# https://github.com/mikedh/trimesh
v 0.04578088 -0.05286321 -0.10097733
v -0.00000000 -0.02643159 -0.10097733
v -0.00000000 -0.02643159 -0.07109040
v 0.04578088 -0.05286321 -0.07109040
v 0.00000001 0.02643161 -0.10097733
v 0.04578089 0.05286320 -0.10097733
v 0.04578089 0.05286320 -0.07109040
v 0.00000001 0.02643161 -0.07109040
v 0.09156177 0.02643160 -0.10097733
v 0.09156177 -0.02643161 -0.10097733
v 0.09156177 -0.02643161 -0.07109041
v 0.09156177 0.02643160 -0.07109041
v 0.04578088 -0.04275852 -0.12194650
v 0.00875092 -0.02137925 -0.12194650
v 0.00875093 0.02137926 -0.12194650
v 0.04578089 0.04275852 -0.12194650
v 0.08281085 0.02137925 -0.12194651
v 0.08281085 -0.02137926 -0.12194651
v 0.04578088 -0.02444617 -0.12480437
v 0.04578089 0.02444617 -0.12480437
v 0.02460989 0.01222308 -0.12480437
v 0.02460988 -0.01222308 -0.12480437
v 0.06695189 -0.01222308 -0.12480438
v 0.06695189 0.01222308 -0.12480438
v 0.08296494 -0.02146823 -0.04929711
v 0.08296494 0.02146822 -0.04929711
v 0.00859683 0.02146823 -0.04929711
v 0.00859682 -0.02146821 -0.04929711
v 0.04578089 0.04293645 -0.04929711
v 0.04578088 -0.04293645 -0.04929711
v 0.04578088 -0.05286321 0.10136856
v 0.04578088 -0.05286321 0.07148164
v 0.00000000 -0.02643159 0.07148164
v 0.00000000 -0.02643159 0.10136856
v 0.00000001 0.02643161 0.10136856
v 0.00000001 0.02643161 0.07148164
v 0.04578089 0.05286320 0.07148164
v 0.04578089 0.05286320 0.10136856
v 0.09156177 0.02643160 0.10136856
v 0.09156177 0.02643160 0.07148164
v 0.09156177 -0.02643161 0.07148164
v 0.09156177 -0.02643161 0.10136856
v 0.00875092 -0.02137925 0.12233773
v 0.04578088 -0.04275852 0.12233773
v 0.04578089 0.04275852 0.12233773
v 0.00875093 0.02137926 0.12233773
v 0.08281085 -0.02137926 0.12233776
v 0.08281085 0.02137925 0.12233776
v 0.04578089 -0.02444617 0.12519562
v 0.02460989 -0.01222308 0.12519562
v 0.02460989 0.01222308 0.12519562
v 0.04578089 0.02444617 0.12519562
v 0.06695189 -0.01222308 0.12519562
v 0.06695189 0.01222308 0.12519562
v 0.08296495 0.02146822 0.04968836
v 0.08296494 -0.02146823 0.04968836
v 0.00859683 -0.02146821 0.04968834
v 0.00859683 0.02146823 0.04968834
v 0.04578089 0.04293645 0.04968836
v 0.04578088 -0.04293645 0.04968836
v 0.06151869 -0.00000000 0.00019562
v 0.05941022 -0.00786890 0.00019562
v 0.05887671 -0.00756088 -0.01074604
v 0.06090264 -0.00000000 -0.01074604
v 0.03215155 -0.00786890 0.00019562
v 0.03004309 0.00000000 0.00019562
v 0.03065913 0.00000000 -0.01074604
v 0.03268506 -0.00756088 -0.01074604
v 0.03791199 0.01362934 0.00019562
v 0.04578089 0.01573780 0.00019562
v 0.04578089 0.01512175 -0.01074604
v 0.03822001 0.01309582 -0.01074604
v 0.05941022 0.00786890 0.00019562
v 0.05887671 0.00756088 -0.01074604
v 0.03791198 -0.01362933 0.00019562
v 0.03822000 -0.01309582 -0.01074604
v 0.05364978 -0.01362934 0.00019562
v 0.04578089 -0.01573780 0.00019562
v 0.04578088 -0.01512176 -0.01074604
v 0.05334176 -0.01309583 -0.01074604
v 0.03215155 0.00786890 0.00019562
v 0.03268506 0.00756088 -0.01074604
v 0.05364979 0.01362933 0.00019562
v 0.05334177 0.01309582 -0.01074604
v 0.03865181 0.01234793 -0.01224255
v 0.03343296 0.00712908 -0.01224255
v 0.05812882 0.00712908 -0.01224255
v 0.05290997 0.01234792 -0.01224255
v 0.03865180 -0.01234793 -0.01224255
v 0.04578088 -0.01425816 -0.01224255
v 0.05290996 -0.01234793 -0.01224255
v 0.05812881 -0.00712908 -0.01224255
v 0.03152273 0.00000000 -0.01224255
v 0.04578089 0.01425816 -0.01224255
v 0.06003904 -0.00000000 -0.01224255
v 0.03343296 -0.00712908 -0.01224255
v 0.05255875 -0.01173961 -0.02127689
v 0.04578088 -0.01355573 -0.02127689
v 0.04578088 -0.01381014 -0.02518364
v 0.05268595 -0.01195993 -0.02518364
v 0.03404128 0.00677786 -0.02127689
v 0.03900302 0.01173960 -0.02127689
v 0.03887582 0.01195993 -0.02518364
v 0.03382096 0.00690507 -0.02518364
v 0.05255875 0.01173960 -0.02127689
v 0.05752049 0.00677786 -0.02127689
v 0.05774082 0.00690507 -0.02518364
v 0.05268596 0.01195993 -0.02518364
v 0.03900302 -0.01173960 -0.02127689
v 0.03887581 -0.01195993 -0.02518364
v 0.05752049 -0.00677787 -0.02127689
v 0.05774081 -0.00690507 -0.02518364
v 0.03222516 0.00000000 -0.02127689
v 0.03197075 0.00000000 -0.02518363
v 0.04578089 0.01355573 -0.02127689
v 0.04578089 0.01381014 -0.02518364
v 0.05933661 -0.00000000 -0.02127689
v 0.05959102 -0.00000000 -0.02518364
v 0.03404128 -0.00677786 -0.02127689
v 0.03382095 -0.00690507 -0.02518364
v 0.03371853 -0.00696420 -0.02681632
v 0.03881668 -0.01206236 -0.02681632
v 0.04578088 -0.01392841 -0.02681632
v 0.05274509 -0.01206236 -0.02681632
v 0.03881668 0.01206236 -0.02681632
v 0.03371853 0.00696420 -0.02681632
v 0.05784324 0.00696420 -0.02681632
v 0.05274509 0.01206235 -0.02681632
v 0.05784324 -0.00696421 -0.02681632
v 0.03185248 0.00000000 -0.02681632
v 0.04578089 0.01392841 -0.02681632
v 0.05970929 -0.00000000 -0.02681632
v 0.05911729 -0.00000000 -0.03205511
v 0.05733055 0.00666820 -0.03205511
v 0.03423122 -0.00666820 -0.03205511
v 0.03911268 -0.01154967 -0.03205511
v 0.04578088 -0.01333641 -0.03205511
v 0.05244909 -0.01154967 -0.03205511
v 0.03911268 0.01154967 -0.03205511
v 0.03423122 0.00666820 -0.03205511
v 0.05244909 0.01154966 -0.03205511
v 0.05733055 -0.00666821 -0.03205511
v 0.03244448 0.00000000 -0.03205511
v 0.04578089 0.01333640 -0.03205511
v 0.04578089 0.01268178 -0.03361681
v 0.03943999 0.01098275 -0.03361681
v 0.05846267 -0.00000000 -0.03361681
v 0.05676363 0.00634089 -0.03361681
v 0.03479813 -0.00634089 -0.03361681
v 0.03943999 -0.01098275 -0.03361681
v 0.04578088 -0.01268179 -0.03361681
v 0.05212178 -0.01098275 -0.03361681
v 0.03479814 0.00634089 -0.03361681
v 0.05212178 0.01098275 -0.03361681
v 0.05676363 -0.00634090 -0.03361681
v 0.03309910 0.00000000 -0.03361681
v 0.04028631 0.00951688 -0.04182835
v 0.04578088 0.01098914 -0.04182835
v 0.04578088 0.01084993 -0.04635885
v 0.04035592 0.00939631 -0.04635885
v 0.05529776 0.00549457 -0.04182835
v 0.05677003 -0.00000000 -0.04182835
v 0.05663081 -0.00000000 -0.04635885
v 0.05517720 0.00542496 -0.04635885
v 0.04028631 -0.00951688 -0.04182835
v 0.03626400 -0.00549457 -0.04182835
v 0.03638457 -0.00542496 -0.04635885
v 0.04035592 -0.00939631 -0.04635885
v 0.05127545 -0.00951688 -0.04182835
v 0.04578088 -0.01098915 -0.04182835
v 0.04578088 -0.01084993 -0.04635885
v 0.05120585 -0.00939632 -0.04635885
v 0.03626401 0.00549457 -0.04182835
v 0.03638457 0.00542496 -0.04635885
v 0.05127546 0.00951688 -0.04182835
v 0.05120585 0.00939631 -0.04635885
v 0.05529776 -0.00549458 -0.04182835
v 0.05517720 -0.00542497 -0.04635885
v 0.03479174 0.00000000 -0.04182835
v 0.03493095 0.00000000 -0.04635885
v 0.03468803 -0.00640446 -0.04657181
v 0.03937642 -0.01109285 -0.04657181
v 0.04578088 -0.01280892 -0.04657181
v 0.05218534 -0.01109285 -0.04657181
v 0.03937643 0.01109285 -0.04657181
v 0.03468803 0.00640446 -0.04657181
v 0.05687373 0.00640446 -0.04657181
v 0.05218534 0.01109285 -0.04657181
v 0.05687373 -0.00640446 -0.04657181
v 0.03297196 0.00000000 -0.04657181
v 0.04578088 0.01280892 -0.04657181
v 0.05858980 -0.00000000 -0.04657181
v 0.05858980 -0.00000000 -0.05076000
v 0.05687373 0.00640446 -0.05076000
v 0.03468803 -0.00640446 -0.05076000
v 0.03937642 -0.01109285 -0.05076000
v 0.04578088 -0.01280892 -0.05076000
v 0.05218534 -0.01109285 -0.05076000
v 0.03937643 0.01109285 -0.05076000
v 0.03468803 0.00640446 -0.05076000
v 0.05218534 0.01109285 -0.05076000
v 0.05687373 -0.00640446 -0.05076000
v 0.03297196 0.00000000 -0.05076000
v 0.04578088 0.01280892 -0.05076000
v 0.06090264 -0.00000000 0.01113728
v 0.05887671 -0.00756088 0.01113728
v 0.03268506 -0.00756088 0.01113727
v 0.03065913 0.00000000 0.01113727
v 0.03822001 0.01309582 0.01113727
v 0.04578089 0.01512175 0.01113728
v 0.05887671 0.00756088 0.01113728
v 0.03822001 -0.01309582 0.01113727
v 0.05334176 -0.01309583 0.01113728
v 0.04578089 -0.01512176 0.01113728
v 0.03268506 0.00756088 0.01113727
v 0.05334177 0.01309582 0.01113728
v 0.03343296 0.00712908 0.01263378
v 0.03865181 0.01234793 0.01263378
v 0.05290997 0.01234792 0.01263378
v 0.05812882 0.00712908 0.01263378
v 0.04578089 -0.01425816 0.01263378
v 0.03865180 -0.01234793 0.01263378
v 0.05812881 -0.00712908 0.01263378
v 0.05290997 -0.01234793 0.01263378
v 0.03152273 0.00000000 0.01263378
v 0.04578089 0.01425816 0.01263378
v 0.06003904 -0.00000000 0.01263378
v 0.03343296 -0.00712908 0.01263378
v 0.05255875 -0.01173961 0.02166812
v 0.05268595 -0.01195993 0.02557487
v 0.04578089 -0.01381014 0.02557487
v 0.04578089 -0.01355573 0.02166812
v 0.03404128 0.00677786 0.02166812
v 0.03382096 0.00690507 0.02557487
v 0.03887582 0.01195993 0.02557487
v 0.03900303 0.01173960 0.02166812
v 0.05255875 0.01173960 0.02166812
v 0.05268596 0.01195993 0.02557487
v 0.05774082 0.00690507 0.02557487
v 0.05752049 0.00677786 0.02166812
v 0.03887581 -0.01195993 0.02557487
v 0.03900302 -0.01173960 0.02166812
v 0.05752049 -0.00677787 0.02166812
v 0.05774082 -0.00690507 0.02557487
v 0.03222516 0.00000000 0.02166812
v 0.03197075 0.00000000 0.02557487
v 0.04578089 0.01355573 0.02166812
v 0.04578089 0.01381014 0.02557487
v 0.05933661 -0.00000000 0.02166813
v 0.05959103 -0.00000000 0.02557487
v 0.03404128 -0.00677786 0.02166812
v 0.03382096 -0.00690507 0.02557487
v 0.03881668 -0.01206236 0.02720755
v 0.03371853 -0.00696420 0.02720755
v 0.05274509 -0.01206236 0.02720755
v 0.04578089 -0.01392841 0.02720755
v 0.03371853 0.00696420 0.02720755
v 0.03881668 0.01206236 0.02720755
v 0.05274510 0.01206235 0.02720755
v 0.05784324 0.00696420 0.02720755
v 0.05784324 -0.00696421 0.02720755
v 0.03185248 0.00000000 0.02720755
v 0.04578089 0.01392841 0.02720755
v 0.05970930 -0.00000000 0.02720755
v 0.05733055 0.00666820 0.03244634
v 0.05911729 -0.00000000 0.03244634
v 0.03911268 -0.01154967 0.03244634
v 0.03423122 -0.00666820 0.03244634
v 0.05244909 -0.01154967 0.03244634
v 0.04578088 -0.01333641 0.03244634
v 0.03423122 0.00666820 0.03244634
v 0.03911269 0.01154967 0.03244634
v 0.05244909 0.01154966 0.03244634
v 0.05733055 -0.00666821 0.03244634
v 0.03244448 0.00000000 0.03244634
v 0.04578089 0.01333640 0.03244634
v 0.03944000 0.01098275 0.03400804
v 0.04578089 0.01268178 0.03400804
v 0.05676364 0.00634089 0.03400804
v 0.05846267 -0.00000000 0.03400804
v 0.03943999 -0.01098275 0.03400804
v 0.03479814 -0.00634089 0.03400804
v 0.05212178 -0.01098275 0.03400804
v 0.04578088 -0.01268179 0.03400804
v 0.03479814 0.00634089 0.03400804
v 0.05212178 0.01098275 0.03400804
v 0.05676363 -0.00634090 0.03400804
v 0.03309910 0.00000000 0.03400804
v 0.04028632 0.00951688 0.04221958
v 0.04035592 0.00939631 0.04675008
v 0.04578089 0.01084993 0.04675008
v 0.04578089 0.01098914 0.04221958
v 0.05529777 0.00549457 0.04221958
v 0.05517720 0.00542496 0.04675008
v 0.05663081 -0.00000000 0.04675008
v 0.05677003 -0.00000000 0.04221958
v 0.04028631 -0.00951688 0.04221958
v 0.04035592 -0.00939631 0.04675008
v 0.03638457 -0.00542496 0.04675008
v 0.03626401 -0.00549457 0.04221958
v 0.05127546 -0.00951688 0.04221958
v 0.05120585 -0.00939632 0.04675008
v 0.04578088 -0.01084993 0.04675008
v 0.04578088 -0.01098915 0.04221958
v 0.03626401 0.00549457 0.04221958
v 0.03638457 0.00542496 0.04675008
v 0.05127546 0.00951688 0.04221958
v 0.05120585 0.00939631 0.04675008
v 0.05529776 -0.00549458 0.04221958
v 0.05517720 -0.00542497 0.04675008
v 0.03479174 0.00000000 0.04221958
v 0.03493096 0.00000000 0.04675008
v 0.03937642 -0.01109285 0.04696304
v 0.03468803 -0.00640446 0.04696304
v 0.05218534 -0.01109285 0.04696304
v 0.04578088 -0.01280892 0.04696304
v 0.03468804 0.00640446 0.04696304
v 0.03937643 0.01109285 0.04696304
v 0.05218535 0.01109285 0.04696304
v 0.05687374 0.00640446 0.04696304
v 0.05687373 -0.00640446 0.04696304
v 0.03297197 0.00000000 0.04696304
v 0.04578089 0.01280892 0.04696304
v 0.05858980 -0.00000000 0.04696304
v 0.05687374 0.00640446 0.05115123
v 0.05858980 -0.00000000 0.05115123
v 0.03937642 -0.01109285 0.05115123
v 0.03468803 -0.00640446 0.05115123
v 0.05218534 -0.01109285 0.05115123
v 0.04578088 -0.01280892 0.05115123
v 0.03468804 0.00640446 0.05115123
v 0.03937643 0.01109285 0.05115123
v 0.05218535 0.01109285 0.05115123
v 0.05687373 -0.00640446 0.05115123
v 0.03297197 0.00000000 0.05115123
v 0.04578089 0.01280892 0.05115123
f 1 2 3
f 1 3 4
f 5 6 7
f 5 7 8
f 9 10 11
f 9 11 12
f 2 5 8
f 2 8 3
f 6 9 12
f 6 12 7
f 10 1 4
f 10 4 11
f 2 1 13
f 2 13 14
f 6 5 15
f 6 15 16
f 10 9 17
f 10 17 18
f 5 2 14
f 5 14 15
f 9 6 16
f 9 16 17
f 1 10 18
f 1 18 13
f 19 20 21
f 19 21 22
f 23 24 20
f 23 20 19
f 12 11 25
f 12 25 26
f 3 8 27
f 3 27 28
f 7 12 26
f 7 26 29
f 11 4 30
f 11 30 25
f 4 3 28
f 4 28 30
f 8 7 29
f 8 29 27
f 28 27 29
f 28 29 30
f 30 29 26
f 30 26 25
f 23 19 13
f 23 13 18
f 24 23 18
f 24 18 17
f 20 24 17
f 20 17 16
f 21 20 16
f 21 16 15
f 22 21 15
f 22 15 14
f 19 22 14
f 19 14 13
f 31 32 33
f 31 33 34
f 35 36 37
f 35 37 38
f 39 40 41
f 39 41 42
f 34 33 36
f 34 36 35
f 38 37 40
f 38 40 39
f 42 41 32
f 42 32 31
f 34 43 44
f 34 44 31
f 38 45 46
f 38 46 35
f 42 47 48
f 42 48 39
f 35 46 43
f 35 43 34
f 39 48 45
f 39 45 38
f 31 44 47
f 31 47 42
f 49 50 51
f 49 51 52
f 53 49 52
f 53 52 54
f 40 55 56
f 40 56 41
f 33 57 58
f 33 58 36
f 37 59 55
f 37 55 40
f 41 56 60
f 41 60 32
f 32 60 57
f 32 57 33
f 36 58 59
f 36 59 37
f 57 60 59
f 57 59 58
f 60 56 55
f 60 55 59
f 53 47 44
f 53 44 49
f 54 48 47
f 54 47 53
f 52 45 48
f 52 48 54
f 51 46 45
f 51 45 52
f 50 43 46
f 50 46 51
f 49 44 43
f 49 43 50
f 61 62 63
f 61 63 64
f 65 66 67
f 65 67 68
f 69 70 71
f 69 71 72
f 73 61 64
f 73 64 74
f 75 65 68
f 75 68 76
f 77 78 79
f 77 79 80
f 81 69 72
f 81 72 82
f 83 73 74
f 83 74 84
f 78 75 76
f 78 76 79
f 62 77 80
f 62 80 63
f 66 81 82
f 66 82 67
f 70 83 84
f 70 84 71
f 82 72 85
f 82 85 86
f 84 74 87
f 84 87 88
f 79 76 89
f 79 89 90
f 63 80 91
f 63 91 92
f 67 82 86
f 67 86 93
f 71 84 88
f 71 88 94
f 64 63 92
f 64 92 95
f 68 67 93
f 68 93 96
f 72 71 94
f 72 94 85
f 74 64 95
f 74 95 87
f 76 68 96
f 76 96 89
f 80 79 90
f 80 90 91
f 97 98 99
f 97 99 100
f 101 102 103
f 101 103 104
f 105 106 107
f 105 107 108
f 98 109 110
f 98 110 99
f 111 97 100
f 111 100 112
f 113 101 104
f 113 104 114
f 115 105 108
f 115 108 116
f 117 111 112
f 117 112 118
f 119 113 114
f 119 114 120
f 102 115 116
f 102 116 103
f 106 117 118
f 106 118 107
f 109 119 120
f 109 120 110
f 89 96 119
f 89 119 109
f 87 95 117
f 87 117 106
f 85 94 115
f 85 115 102
f 96 93 113
f 96 113 119
f 95 92 111
f 95 111 117
f 94 88 105
f 94 105 115
f 93 86 101
f 93 101 113
f 92 91 97
f 92 97 111
f 90 89 109
f 90 109 98
f 88 87 106
f 88 106 105
f 86 85 102
f 86 102 101
f 91 90 98
f 91 98 97
f 110 120 121
f 110 121 122
f 100 99 123
f 100 123 124
f 104 103 125
f 104 125 126
f 108 107 127
f 108 127 128
f 99 110 122
f 99 122 123
f 112 100 124
f 112 124 129
f 114 104 126
f 114 126 130
f 116 108 128
f 116 128 131
f 118 112 129
f 118 129 132
f 120 114 130
f 120 130 121
f 103 116 131
f 103 131 125
f 107 118 132
f 107 132 127
f 127 132 133
f 127 133 134
f 122 121 135
f 122 135 136
f 124 123 137
f 124 137 138
f 126 125 139
f 126 139 140
f 128 127 134
f 128 134 141
f 123 122 136
f 123 136 137
f 129 124 138
f 129 138 142
f 130 126 140
f 130 140 143
f 131 128 141
f 131 141 144
f 132 129 142
f 132 142 133
f 121 130 143
f 121 143 135
f 125 131 144
f 125 144 139
f 139 144 145
f 139 145 146
f 134 133 147
f 134 147 148
f 136 135 149
f 136 149 150
f 138 137 151
f 138 151 152
f 140 139 146
f 140 146 153
f 141 134 148
f 141 148 154
f 137 136 150
f 137 150 151
f 142 138 152
f 142 152 155
f 143 140 153
f 143 153 156
f 144 141 154
f 144 154 145
f 133 142 155
f 133 155 147
f 135 143 156
f 135 156 149
f 157 158 159
f 157 159 160
f 161 162 163
f 161 163 164
f 165 166 167
f 165 167 168
f 169 170 171
f 169 171 172
f 173 157 160
f 173 160 174
f 175 161 164
f 175 164 176
f 170 165 168
f 170 168 171
f 177 169 172
f 177 172 178
f 179 173 174
f 179 174 180
f 158 175 176
f 158 176 159
f 162 177 178
f 162 178 163
f 166 179 180
f 166 180 167
f 149 156 179
f 149 179 166
f 147 155 177
f 147 177 162
f 145 154 175
f 145 175 158
f 156 153 173
f 156 173 179
f 155 152 169
f 155 169 177
f 151 150 165
f 151 165 170
f 154 148 161
f 154 161 175
f 153 146 157
f 153 157 173
f 152 151 170
f 152 170 169
f 150 149 166
f 150 166 165
f 148 147 162
f 148 162 161
f 146 145 158
f 146 158 157
f 168 167 181
f 168 181 182
f 172 171 183
f 172 183 184
f 174 160 185
f 174 185 186
f 176 164 187
f 176 187 188
f 171 168 182
f 171 182 183
f 178 172 184
f 178 184 189
f 180 174 186
f 180 186 190
f 159 176 188
f 159 188 191
f 163 178 189
f 163 189 192
f 167 180 190
f 167 190 181
f 160 159 191
f 160 191 185
f 164 163 192
f 164 192 187
f 187 192 193
f 187 193 194
f 182 181 195
f 182 195 196
f 184 183 197
f 184 197 198
f 186 185 199
f 186 199 200
f 188 187 194
f 188 194 201
f 183 182 196
f 183 196 197
f 189 184 198
f 189 198 202
f 190 186 200
f 190 200 203
f 191 188 201
f 191 201 204
f 192 189 202
f 192 202 193
f 181 190 203
f 181 203 195
f 185 191 204
f 185 204 199
f 61 205 206
f 61 206 62
f 65 207 208
f 65 208 66
f 69 209 210
f 69 210 70
f 73 211 205
f 73 205 61
f 75 212 207
f 75 207 65
f 77 213 214
f 77 214 78
f 81 215 209
f 81 209 69
f 83 216 211
f 83 211 73
f 78 214 212
f 78 212 75
f 62 206 213
f 62 213 77
f 66 208 215
f 66 215 81
f 70 210 216
f 70 216 83
f 215 217 218
f 215 218 209
f 216 219 220
f 216 220 211
f 214 221 222
f 214 222 212
f 206 223 224
f 206 224 213
f 208 225 217
f 208 217 215
f 210 226 219
f 210 219 216
f 205 227 223
f 205 223 206
f 207 228 225
f 207 225 208
f 209 218 226
f 209 226 210
f 211 220 227
f 211 227 205
f 212 222 228
f 212 228 207
f 213 224 221
f 213 221 214
f 229 230 231
f 229 231 232
f 233 234 235
f 233 235 236
f 237 238 239
f 237 239 240
f 232 231 241
f 232 241 242
f 243 244 230
f 243 230 229
f 245 246 234
f 245 234 233
f 247 248 238
f 247 238 237
f 249 250 244
f 249 244 243
f 251 252 246
f 251 246 245
f 236 235 248
f 236 248 247
f 240 239 250
f 240 250 249
f 242 241 252
f 242 252 251
f 222 242 251
f 222 251 228
f 220 240 249
f 220 249 227
f 218 236 247
f 218 247 226
f 228 251 245
f 228 245 225
f 227 249 243
f 227 243 223
f 226 247 237
f 226 237 219
f 225 245 233
f 225 233 217
f 223 243 229
f 223 229 224
f 221 232 242
f 221 242 222
f 219 237 240
f 219 240 220
f 217 233 236
f 217 236 218
f 224 229 232
f 224 232 221
f 241 253 254
f 241 254 252
f 230 255 256
f 230 256 231
f 234 257 258
f 234 258 235
f 238 259 260
f 238 260 239
f 231 256 253
f 231 253 241
f 244 261 255
f 244 255 230
f 246 262 257
f 246 257 234
f 248 263 259
f 248 259 238
f 250 264 261
f 250 261 244
f 252 254 262
f 252 262 246
f 235 258 263
f 235 263 248
f 239 260 264
f 239 264 250
f 260 265 266
f 260 266 264
f 253 267 268
f 253 268 254
f 255 269 270
f 255 270 256
f 257 271 272
f 257 272 258
f 259 273 265
f 259 265 260
f 256 270 267
f 256 267 253
f 261 274 269
f 261 269 255
f 262 275 271
f 262 271 257
f 263 276 273
f 263 273 259
f 264 266 274
f 264 274 261
f 254 268 275
f 254 275 262
f 258 272 276
f 258 276 263
f 272 277 278
f 272 278 276
f 265 279 280
f 265 280 266
f 267 281 282
f 267 282 268
f 269 283 284
f 269 284 270
f 271 285 277
f 271 277 272
f 273 286 279
f 273 279 265
f 270 284 281
f 270 281 267
f 274 287 283
f 274 283 269
f 275 288 285
f 275 285 271
f 276 278 286
f 276 286 273
f 266 280 287
f 266 287 274
f 268 282 288
f 268 288 275
f 289 290 291
f 289 291 292
f 293 294 295
f 293 295 296
f 297 298 299
f 297 299 300
f 301 302 303
f 301 303 304
f 305 306 290
f 305 290 289
f 307 308 294
f 307 294 293
f 304 303 298
f 304 298 297
f 309 310 302
f 309 302 301
f 311 312 306
f 311 306 305
f 292 291 308
f 292 308 307
f 296 295 310
f 296 310 309
f 300 299 312
f 300 312 311
f 282 300 311
f 282 311 288
f 280 296 309
f 280 309 287
f 278 292 307
f 278 307 286
f 288 311 305
f 288 305 285
f 287 309 301
f 287 301 283
f 284 304 297
f 284 297 281
f 286 307 293
f 286 293 279
f 285 305 289
f 285 289 277
f 283 301 304
f 283 304 284
f 281 297 300
f 281 300 282
f 279 293 296
f 279 296 280
f 277 289 292
f 277 292 278
f 298 313 314
f 298 314 299
f 302 315 316
f 302 316 303
f 306 317 318
f 306 318 290
f 308 319 320
f 308 320 294
f 303 316 313
f 303 313 298
f 310 321 315
f 310 315 302
f 312 322 317
f 312 317 306
f 291 323 319
f 291 319 308
f 295 324 321
f 295 321 310
f 299 314 322
f 299 322 312
f 290 318 323
f 290 323 291
f 294 320 324
f 294 324 295
f 320 325 326
f 320 326 324
f 313 327 328
f 313 328 314
f 315 329 330
f 315 330 316
f 317 331 332
f 317 332 318
f 319 333 325
f 319 325 320
f 316 330 327
f 316 327 313
f 321 334 329
f 321 329 315
f 322 335 331
f 322 331 317
f 323 336 333
f 323 333 319
f 324 326 334
f 324 334 321
f 314 328 335
f 314 335 322
f 318 332 336
f 318 336 323
f 4 3 2
f 2 1 4
f 8 7 6
f 6 5 8
f 12 11 10
f 10 9 12
f 3 8 5
f 5 2 3
f 7 12 9
f 9 6 7
f 11 4 1
f 1 10 11
f 14 13 1
f 1 2 14
f 16 15 5
f 5 6 16
f 18 17 9
f 9 10 18
f 15 14 2
f 2 5 15
f 17 16 6
f 6 9 17
f 13 18 10
f 10 1 13
f 22 21 20
f 20 19 22
f 19 20 24
f 24 23 19
f 26 25 11
f 11 12 26
f 28 27 8
f 8 3 28
f 29 26 12
f 12 7 29
f 25 30 4
f 4 11 25
f 30 28 3
f 3 4 30
f 27 29 7
f 7 8 27
f 30 29 27
f 27 28 30
f 25 26 29
f 29 30 25
f 18 13 19
f 19 23 18
f 17 18 23
f 23 24 17
f 16 17 24
f 24 20 16
f 15 16 20
f 20 21 15
f 14 15 21
f 21 22 14
f 13 14 22
f 22 19 13
f 34 33 32
f 32 31 34
f 38 37 36
f 36 35 38
f 42 41 40
f 40 39 42
f 35 36 33
f 33 34 35
f 39 40 37
f 37 38 39
f 31 32 41
f 41 42 31
f 31 44 43
f 43 34 31
f 35 46 45
f 45 38 35
f 39 48 47
f 47 42 39
f 34 43 46
f 46 35 34
f 38 45 48
f 48 39 38
f 42 47 44
f 44 31 42
f 41 56 55
f 55 40 41
f 36 58 57
f 57 33 36
f 40 55 59
f 59 37 40
f 32 60 56
f 56 41 32
f 33 57 60
f 60 32 33
f 37 59 58
f 58 36 37
f 58 59 60
f 60 57 58
f 59 55 56
f 56 60 59
f 49 44 47
f 47 53 49
f 53 47 48
f 48 54 53
f 54 48 45
f 45 52 54
f 52 45 46
f 46 51 52
f 51 46 43
f 43 50 51
f 50 43 44
f 44 49 50
f 64 63 62
f 62 61 64
f 68 67 66
f 66 65 68
f 72 71 70
f 70 69 72
f 74 64 61
f 61 73 74
f 76 68 65
f 65 75 76
f 80 79 78
f 78 77 80
f 82 72 69
f 69 81 82
f 84 74 73
f 73 83 84
f 79 76 75
f 75 78 79
f 63 80 77
f 77 62 63
f 67 82 81
f 81 66 67
f 71 84 83
f 83 70 71
f 86 85 72
f 72 82 86
f 88 87 74
f 74 84 88
f 90 89 76
f 76 79 90
f 92 91 80
f 80 63 92
f 93 86 82
f 82 67 93
f 94 88 84
f 84 71 94
f 95 92 63
f 63 64 95
f 96 93 67
f 67 68 96
f 85 94 71
f 71 72 85
f 87 95 64
f 64 74 87
f 89 96 68
f 68 76 89
f 91 90 79
f 79 80 91
f 100 99 98
f 98 97 100
f 104 103 102
f 102 101 104
f 108 107 106
f 106 105 108
f 99 110 109
f 109 98 99
f 112 100 97
f 97 111 112
f 114 104 101
f 101 113 114
f 116 108 105
f 105 115 116
f 118 112 111
f 111 117 118
f 120 114 113
f 113 119 120
f 103 116 115
f 115 102 103
f 107 118 117
f 117 106 107
f 110 120 119
f 119 109 110
f 109 119 96
f 96 89 109
f 106 117 95
f 95 87 106
f 102 115 94
f 94 85 102
f 119 113 93
f 93 96 119
f 117 111 92
f 92 95 117
f 115 105 88
f 88 94 115
f 113 101 86
f 86 93 113
f 111 97 91
f 91 92 111
f 98 109 89
f 89 90 98
f 105 106 87
f 87 88 105
f 101 102 85
f 85 86 101
f 97 98 90
f 90 91 97
f 122 121 120
f 120 110 122
f 124 123 99
f 99 100 124
f 126 125 103
f 103 104 126
f 128 127 107
f 107 108 128
f 123 122 110
f 110 99 123
f 129 124 100
f 100 112 129
f 130 126 104
f 104 114 130
f 131 128 108
f 108 116 131
f 132 129 112
f 112 118 132
f 121 130 114
f 114 120 121
f 125 131 116
f 116 103 125
f 127 132 118
f 118 107 127
f 134 133 132
f 132 127 134
f 136 135 121
f 121 122 136
f 138 137 123
f 123 124 138
f 140 139 125
f 125 126 140
f 141 134 127
f 127 128 141
f 137 136 122
f 122 123 137
f 142 138 124
f 124 129 142
f 143 140 126
f 126 130 143
f 144 141 128
f 128 131 144
f 133 142 129
f 129 132 133
f 135 143 130
f 130 121 135
f 139 144 131
f 131 125 139
f 146 145 144
f 144 139 146
f 148 147 133
f 133 134 148
f 150 149 135
f 135 136 150
f 152 151 137
f 137 138 152
f 153 146 139
f 139 140 153
f 154 148 134
f 134 141 154
f 151 150 136
f 136 137 151
f 155 152 138
f 138 142 155
f 156 153 140
f 140 143 156
f 145 154 141
f 141 144 145
f 147 155 142
f 142 133 147
f 149 156 143
f 143 135 149
f 160 159 158
f 158 157 160
f 164 163 162
f 162 161 164
f 168 167 166
f 166 165 168
f 172 171 170
f 170 169 172
f 174 160 157
f 157 173 174
f 176 164 161
f 161 175 176
f 171 168 165
f 165 170 171
f 178 172 169
f 169 177 178
f 180 174 173
f 173 179 180
f 159 176 175
f 175 158 159
f 163 178 177
f 177 162 163
f 167 180 179
f 179 166 167
f 166 179 156
f 156 149 166
f 162 177 155
f 155 147 162
f 158 175 154
f 154 145 158
f 179 173 153
f 153 156 179
f 177 169 152
f 152 155 177
f 170 165 150
f 150 151 170
f 175 161 148
f 148 154 175
f 173 157 146
f 146 153 173
f 169 170 151
f 151 152 169
f 165 166 149
f 149 150 165
f 161 162 147
f 147 148 161
f 157 158 145
f 145 146 157
f 182 181 167
f 167 168 182
f 184 183 171
f 171 172 184
f 186 185 160
f 160 174 186
f 188 187 164
f 164 176 188
f 183 182 168
f 168 171 183
f 189 184 172
f 172 178 189
f 190 186 174
f 174 180 190
f 191 188 176
f 176 159 191
f 192 189 178
f 178 163 192
f 181 190 180
f 180 167 181
f 185 191 159
f 159 160 185
f 187 192 163
f 163 164 187
f 194 193 192
f 192 187 194
f 196 195 181
f 181 182 196
f 198 197 183
f 183 184 198
f 200 199 185
f 185 186 200
f 201 194 187
f 187 188 201
f 197 196 182
f 182 183 197
f 202 198 184
f 184 189 202
f 203 200 186
f 186 190 203
f 204 201 188
f 188 191 204
f 193 202 189
f 189 192 193
f 195 203 190
f 190 181 195
f 199 204 191
f 191 185 199
f 62 206 205
f 205 61 62
f 66 208 207
f 207 65 66
f 70 210 209
f 209 69 70
f 61 205 211
f 211 73 61
f 65 207 212
f 212 75 65
f 78 214 213
f 213 77 78
f 69 209 215
f 215 81 69
f 73 211 216
f 216 83 73
f 75 212 214
f 214 78 75
f 77 213 206
f 206 62 77
f 81 215 208
f 208 66 81
f 83 216 210
f 210 70 83
f 209 218 217
f 217 215 209
f 211 220 219
f 219 216 211
f 212 222 221
f 221 214 212
f 213 224 223
f 223 206 213
f 215 217 225
f 225 208 215
f 216 219 226
f 226 210 216
f 206 223 227
f 227 205 206
f 208 225 228
f 228 207 208
f 210 226 218
f 218 209 210
f 205 227 220
f 220 211 205
f 207 228 222
f 222 212 207
f 214 221 224
f 224 213 214
f 232 231 230
f 230 229 232
f 236 235 234
f 234 233 236
f 240 239 238
f 238 237 240
f 242 241 231
f 231 232 242
f 229 230 244
f 244 243 229
f 233 234 246
f 246 245 233
f 237 238 248
f 248 247 237
f 243 244 250
f 250 249 243
f 245 246 252
f 252 251 245
f 247 248 235
f 235 236 247
f 249 250 239
f 239 240 249
f 251 252 241
f 241 242 251
f 228 251 242
f 242 222 228
f 227 249 240
f 240 220 227
f 226 247 236
f 236 218 226
f 225 245 251
f 251 228 225
f 223 243 249
f 249 227 223
f 219 237 247
f 247 226 219
f 217 233 245
f 245 225 217
f 224 229 243
f 243 223 224
f 222 242 232
f 232 221 222
f 220 240 237
f 237 219 220
f 218 236 233
f 233 217 218
f 221 232 229
f 229 224 221
f 252 254 253
f 253 241 252
f 231 256 255
f 255 230 231
f 235 258 257
f 257 234 235
f 239 260 259
f 259 238 239
f 241 253 256
f 256 231 241
f 230 255 261
f 261 244 230
f 234 257 262
f 262 246 234
f 238 259 263
f 263 248 238
f 244 261 264
f 264 250 244
f 246 262 254
f 254 252 246
f 248 263 258
f 258 235 248
f 250 264 260
f 260 239 250
f 264 266 265
f 265 260 264
f 254 268 267
f 267 253 254
f 256 270 269
f 269 255 256
f 258 272 271
f 271 257 258
f 260 265 273
f 273 259 260
f 253 267 270
f 270 256 253
f 255 269 274
f 274 261 255
f 257 271 275
f 275 262 257
f 259 273 276
f 276 263 259
f 261 274 266
f 266 264 261
f 262 275 268
f 268 254 262
f 263 276 272
f 272 258 263
f 276 278 277
f 277 272 276
f 266 280 279
f 279 265 266
f 268 282 281
f 281 267 268
f 270 284 283
f 283 269 270
f 272 277 285
f 285 271 272
f 265 279 286
f 286 273 265
f 267 281 284
f 284 270 267
f 269 283 287
f 287 274 269
f 271 285 288
f 288 275 271
f 273 286 278
f 278 276 273
f 274 287 280
f 280 266 274
f 275 288 282
f 282 268 275
f 292 291 290
f 290 289 292
f 296 295 294
f 294 293 296
f 300 299 298
f 298 297 300
f 304 303 302
f 302 301 304
f 289 290 306
f 306 305 289
f 293 294 308
f 308 307 293
f 297 298 303
f 303 304 297
f 301 302 310
f 310 309 301
f 305 306 312
f 312 311 305
f 307 308 291
f 291 292 307
f 309 310 295
f 295 296 309
f 311 312 299
f 299 300 311
f 288 311 300
f 300 282 288
f 287 309 296
f 296 280 287
f 286 307 292
f 292 278 286
f 285 305 311
f 311 288 285
f 283 301 309
f 309 287 283
f 281 297 304
f 304 284 281
f 279 293 307
f 307 286 279
f 277 289 305
f 305 285 277
f 284 304 301
f 301 283 284
f 282 300 297
f 297 281 282
f 280 296 293
f 293 279 280
f 278 292 289
f 289 277 278
f 299 314 313
f 313 298 299
f 303 316 315
f 315 302 303
f 290 318 317
f 317 306 290
f 294 320 319
f 319 308 294
f 298 313 316
f 316 303 298
f 302 315 321
f 321 310 302
f 306 317 322
f 322 312 306
f 308 319 323
f 323 291 308
f 310 321 324
f 324 295 310
f 312 322 314
f 314 299 312
f 291 323 318
f 318 290 291
f 295 324 320
f 320 294 295
f 324 326 325
f 325 320 324
f 314 328 327
f 327 313 314
f 316 330 329
f 329 315 316
f 318 332 331
f 331 317 318
f 320 325 333
f 333 319 320
f 313 327 330
f 330 316 313
f 315 329 334
f 334 321 315
f 317 331 335
f 335 322 317
f 319 333 336
f 336 323 319
f 321 334 326
f 326 324 321
f 322 335 328
f 328 314 322
f 323 336 332
f 332 318 323