# https://github.com/mikedh/trimesh
v 0.27306297 -0.07477962 0.17905020
v 0.27306297 -0.05969279 0.18395219
v 0.27306297 -0.04790413 0.19456816
v 0.27306297 -0.04145148 0.22492435
v 0.27306297 -0.04790413 0.23941622
v 0.27306297 -0.05969279 0.25003220
v 0.27306297 -0.09055771 0.25327578
v 0.27306297 -0.10429653 0.24534433
v 0.27306297 -0.11362054 0.23250944
v -0.22778321 -0.09055771 0.25327578
v -0.22778321 -0.07477962 0.25493419
v -0.22778321 -0.05969279 0.25003220
v -0.22778321 -0.04145148 0.22492435
v -0.22778321 -0.04145148 0.20906005
v -0.22778321 -0.04790413 0.19456816
v -0.22778321 -0.07477962 0.17905020
v -0.22778321 -0.09055771 0.18070863
v -0.22778321 -0.10429653 0.18864007
v 0.27306297 -0.10429653 0.18864007
v 0.27306297 -0.09055771 0.18070863
v 0.27306297 -0.04145148 0.20906005
v 0.27306297 -0.07477962 0.25493419
v 0.27306297 -0.11691872 0.21699292
v 0.27306297 -0.11362054 0.20147494
v -0.22778321 -0.11362054 0.23250944
v -0.22778321 -0.10429653 0.24534433
v -0.22778321 -0.04790413 0.23941622
v -0.22778321 -0.05969279 0.18395219
v -0.22778321 -0.11362054 0.20147494
v -0.22713076 -0.11691872 0.21699292
v 0.22761565 -0.12103893 0.23581195
v 0.22761565 -0.12503986 0.21699292
v 0.22761565 -0.10972883 0.25137879
v 0.22761565 -0.09306692 0.26099883
v 0.22761565 -0.07393173 0.26300935
v 0.22761565 -0.05563294 0.25706401
v 0.22761565 -0.04133364 0.24419033
v 0.22761565 -0.03350855 0.22661296
v 0.22761565 -0.03350855 0.20737143
v 0.22761565 -0.04133364 0.18979550
v 0.22761565 -0.05563294 0.17692039
v 0.22761565 -0.07393173 0.17097504
v 0.22761565 -0.09306692 0.17298557
v 0.22761565 -0.10972883 0.18260562
v 0.22761565 -0.12103893 0.19817245
v 0.21294988 -0.11691872 0.21699292
v 0.21294988 -0.11362054 0.23250944
v 0.18546362 -0.11362054 0.23250944
v 0.18546362 -0.11691872 0.21699292
v 0.15797591 -0.11362054 0.23250944
v 0.15797591 -0.11691872 0.21699292
v 0.21294988 -0.10429653 0.24534433
v 0.18546362 -0.10429653 0.24534433
v 0.15797591 -0.10429653 0.24534433
v 0.21294988 -0.09055771 0.25327578
v 0.18546362 -0.09055771 0.25327578
v 0.15797591 -0.09055771 0.25327578
v 0.21294988 -0.07477962 0.25493419
v 0.18546362 -0.07477962 0.25493419
v 0.15797591 -0.07477962 0.25493419
v 0.21294988 -0.05969279 0.25003220
v 0.18546362 -0.05969279 0.25003220
v 0.15797591 -0.05969279 0.25003220
v 0.21294988 -0.04790413 0.23941622
v 0.18546362 -0.04790413 0.23941622
v 0.15797591 -0.04790413 0.23941622
v 0.21294988 -0.04145148 0.22492435
v 0.18546362 -0.04145148 0.22492435
v 0.15797591 -0.04145148 0.22492435
v 0.21294988 -0.04145148 0.20906005
v 0.18546362 -0.04145148 0.20906005
v 0.15797591 -0.04145148 0.20906005
v 0.21294988 -0.04790413 0.19456816
v 0.18546362 -0.04790413 0.19456816
v 0.15797591 -0.04790413 0.19456816
v 0.21294988 -0.05969279 0.18395219
v 0.18546362 -0.05969279 0.18395219
v 0.15797591 -0.05969279 0.18395219
v 0.21294988 -0.07477962 0.17905020
v 0.18546362 -0.07477962 0.17905020
v 0.15797591 -0.07477962 0.17905020
v 0.21294988 -0.09055771 0.18070863
v 0.18546362 -0.09055771 0.18070863
v 0.15797591 -0.09055771 0.18070863
v 0.21294988 -0.10429653 0.18864007
v 0.18546362 -0.10429653 0.18864007
v 0.15797591 -0.10429653 0.18864007
v 0.21294988 -0.11362054 0.20147494
v 0.18546362 -0.11362054 0.20147494
v 0.15797591 -0.11362054 0.20147494
v 0.14061555 -0.11652926 0.23388765
v 0.14061555 -0.12011487 0.21701877
v 0.14061555 -0.10639185 0.24783915
v 0.14061555 -0.09145735 0.25646184
v 0.14061555 -0.07430681 0.25826399
v 0.14061555 -0.05790502 0.25293517
v 0.14061555 -0.04509026 0.24139657
v 0.14061555 -0.03807570 0.22564147
v 0.14061555 -0.03807570 0.20839610
v 0.14061555 -0.04509026 0.19264243
v 0.14061555 -0.05790502 0.18110240
v 0.14061555 -0.07430681 0.17577358
v 0.14061555 -0.09145735 0.17757572
v 0.14061555 -0.10639185 0.18619841
v 0.14061555 -0.11652926 0.20015136
v 0.12027605 -0.12056180 0.23568259
v 0.12027605 -0.12452824 0.21701877
v 0.12027605 -0.10934512 0.25112008
v 0.12027605 -0.09282117 0.26065967
v 0.12027605 -0.07384550 0.26265438
v 0.12027605 -0.05569904 0.25675791
v 0.12027605 -0.04151903 0.24399056
v 0.12027605 -0.03375860 0.22655979
v 0.12027605 -0.03375860 0.20747921
v 0.12027605 -0.04151903 0.19004844
v 0.12027605 -0.05569904 0.17727967
v 0.12027605 -0.07384550 0.17138463
v 0.12027605 -0.09282117 0.17337790
v 0.12027605 -0.10934512 0.18291892
v 0.12027605 -0.12056180 0.19835497
v 0.08721523 -0.12056180 0.23568259
v 0.08721523 -0.12452824 0.21701877
v -0.07808753 -0.12056037 0.23568259
v -0.07808753 -0.12452824 0.21701877
v -0.04502669 -0.12452824 0.21701877
v -0.04502669 -0.12056037 0.23568259
v -0.01196585 -0.12452824 0.21701877
v -0.01196585 -0.12056037 0.23568259
v 0.02109499 -0.12452824 0.21701877
v 0.02109499 -0.12056037 0.23568259
v 0.05415439 -0.12452824 0.21701877
v 0.05415439 -0.12056180 0.23568259
v 0.08721523 -0.10934512 0.25112008
v -0.07808753 -0.10934512 0.25111866
v -0.04502669 -0.10934512 0.25112008
v -0.01196585 -0.10934512 0.25112008
v 0.02109499 -0.10934512 0.25112008
v 0.05415439 -0.10934512 0.25112008
v 0.08721523 -0.09282117 0.26065967
v -0.07808753 -0.09282117 0.26065967
v -0.04502669 -0.09282117 0.26065967
v -0.01196585 -0.09282117 0.26065967
v 0.02109499 -0.09282117 0.26065967
v 0.05415439 -0.09282117 0.26065967
v 0.08721523 -0.07384550 0.26265438
v -0.07808753 -0.07384550 0.26265438
v -0.04502669 -0.07384550 0.26265438
v -0.01196585 -0.07384550 0.26265438
v 0.02109499 -0.07384550 0.26265438
v 0.05415439 -0.07384550 0.26265438
v 0.08721523 -0.05569904 0.25675791
v -0.07808753 -0.05569904 0.25675791
v -0.04502669 -0.05569904 0.25675791
v -0.01196585 -0.05569904 0.25675791
v 0.02109499 -0.05569904 0.25675791
v 0.05415439 -0.05569904 0.25675791
v 0.08721523 -0.04151903 0.24399056
v -0.07808753 -0.04151903 0.24399056
v -0.04502669 -0.04151903 0.24399056
v -0.01196585 -0.04151903 0.24399056
v 0.02109499 -0.04151903 0.24399056
v 0.05415439 -0.04151903 0.24399056
v 0.08721523 -0.03375860 0.22655979
v -0.07808753 -0.03375860 0.22655979
v -0.04502669 -0.03375860 0.22655979
v -0.01196585 -0.03375860 0.22655979
v 0.02109499 -0.03375860 0.22655979
v 0.05415439 -0.03375860 0.22655979
v 0.08721523 -0.03375860 0.20747921
v -0.07808753 -0.03375860 0.20747921
v -0.04502669 -0.03375860 0.20747921
v -0.01196585 -0.03375860 0.20747921
v 0.02109499 -0.03375860 0.20747921
v 0.05415439 -0.03375860 0.20747921
v 0.08721523 -0.04151903 0.19004844
v -0.07808609 -0.04151903 0.19004844
v -0.04502669 -0.04151903 0.19004844
v -0.01196585 -0.04151903 0.19004844
v 0.02109499 -0.04151903 0.19004844
v 0.05415439 -0.04151903 0.19004844
v 0.08721523 -0.05569904 0.17727967
v -0.07808609 -0.05569904 0.17727967
v -0.04502669 -0.05569904 0.17727967
v -0.01196585 -0.05569904 0.17727967
v 0.02109499 -0.05569904 0.17727967
v 0.05415439 -0.05569904 0.17727967
v 0.08721523 -0.07384550 0.17138463
v -0.07808753 -0.07384550 0.17138463
v -0.04502669 -0.07384550 0.17138463
v -0.01196585 -0.07384550 0.17138463
v 0.02109499 -0.07384550 0.17138463
v 0.05415439 -0.07384550 0.17138463
v 0.08721523 -0.09282117 0.17337790
v -0.07808753 -0.09282117 0.17337790
v -0.04502669 -0.09282117 0.17337790
v -0.01196585 -0.09282117 0.17337790
v 0.02109499 -0.09282117 0.17337790
v 0.05415439 -0.09282117 0.17337790
v 0.08721523 -0.10934512 0.18291892
v -0.07808753 -0.10934512 0.18291892
v -0.04502669 -0.10934512 0.18291892
v -0.01196585 -0.10934512 0.18291892
v 0.02109499 -0.10934512 0.18291892
v 0.05415439 -0.10934512 0.18291892
v 0.08721523 -0.12056180 0.19835497
v -0.07808753 -0.12056037 0.19835497
v -0.04502669 -0.12056037 0.19835497
v -0.01196585 -0.12056180 0.19835497
v 0.02109499 -0.12056180 0.19835497
v 0.05415439 -0.12056180 0.19835497
v -0.09842702 -0.11652926 0.23388765
v -0.09842702 -0.12011487 0.21701877
v -0.09842702 -0.10639185 0.24783915
v -0.09842702 -0.09145735 0.25646184
v -0.09842702 -0.07430681 0.25826399
v -0.09842702 -0.05790502 0.25293517
v -0.09842702 -0.04509026 0.24139657
v -0.09842702 -0.03807570 0.22564147
v -0.09842702 -0.03807570 0.20839610
v -0.09842702 -0.04509026 0.19264243
v -0.09842702 -0.05790502 0.18110240
v -0.09842702 -0.07430681 0.17577358
v -0.09842702 -0.09145735 0.17757572
v -0.09842702 -0.10639185 0.18619841
v -0.09842702 -0.11652926 0.20015136
v -0.11720293 -0.11652926 0.23388765
v -0.11720293 -0.12011487 0.21701877
v -0.11720293 -0.10639185 0.24783915
v -0.11689395 -0.09055771 0.25327578
v -0.11689395 -0.07477962 0.25493419
v -0.11689395 -0.05969279 0.25003220
v -0.11689395 -0.04790413 0.23941622
v -0.11689395 -0.04145148 0.22492435
v -0.11689395 -0.04145148 0.20906005
v -0.11689395 -0.04790413 0.19456816
v -0.11689395 -0.05969279 0.18395219
v -0.11689395 -0.07477962 0.17905020
v -0.11720293 -0.09145735 0.17757572
v -0.11720293 -0.10639185 0.18619841
v -0.11720293 -0.11652926 0.20015136
v -0.14438022 -0.11362054 0.23250944
v -0.14438022 -0.11691872 0.21699292
v -0.17186792 -0.11362054 0.23250944
v -0.17186792 -0.11691872 0.21699292
v -0.14438022 -0.10429653 0.24534433
v -0.17186792 -0.10429653 0.24534433
v -0.14438022 -0.09055771 0.25327578
v -0.17186792 -0.09055771 0.25327578
v -0.14438022 -0.07477962 0.25493419
v -0.17186792 -0.07477962 0.25493419
v -0.14438022 -0.05969279 0.25003220
v -0.17186792 -0.05969279 0.25003220
v -0.14438022 -0.04790413 0.23941622
v -0.17186792 -0.04790413 0.23941622
v -0.14438022 -0.04145148 0.22492435
v -0.17186792 -0.04145148 0.22492435
v -0.14438022 -0.04145148 0.20906005
v -0.17186792 -0.04145148 0.20906005
v -0.14438022 -0.04790413 0.19456816
v -0.17186792 -0.04790413 0.19456816
v -0.14438022 -0.05969279 0.18395219
v -0.17186792 -0.05969279 0.18395219
v -0.14438022 -0.07477962 0.17905020
v -0.17186792 -0.07477962 0.17905020
v -0.14438022 -0.09055771 0.18070863
v -0.17186792 -0.09055771 0.18070863
v -0.14438022 -0.10429653 0.18864007
v -0.17186792 -0.10429653 0.18864007
v -0.14438022 -0.11362054 0.20147494
v -0.17186792 -0.11362054 0.20147494
v -0.18657248 -0.12103893 0.23581195
v -0.18657248 -0.12503986 0.21699292
v -0.18657248 -0.10972883 0.25137879
v -0.18657248 -0.09306692 0.26099883
v -0.18657248 -0.07393173 0.26300935
v -0.18657248 -0.05563294 0.25706401
v -0.18657248 -0.04133364 0.24419033
v -0.18657248 -0.03350855 0.22661296
v -0.18657248 -0.03350855 0.20737143
v -0.18657248 -0.04133364 0.18979407
v -0.18657248 -0.05563294 0.17692039
v -0.18657248 -0.07393173 0.17097504
v -0.18657248 -0.09306692 0.17298557
v -0.18657248 -0.10972883 0.18260562
v -0.18657248 -0.12103893 0.19817245
v 0.39610591 0.02351619 0.36253246
v 0.39650973 0.02259500 0.36306420
v 0.39688481 0.02171980 0.36356861
v 0.40042443 0.01532750 0.36726057
v 0.39601107 0.01532750 0.36726057
v 0.39830612 0.01802928 0.36569986
v 0.39969585 0.02237799 0.36318922
v 0.39916408 0.02094232 0.36401842
v 0.39942136 0.02166231 0.36360167
v 0.40042443 0.01828078 0.37237669
v 0.41198603 0.04451963 0.35722805
v 0.40773648 0.04451963 0.35722805
v 0.40445557 0.03657813 0.36181246
v 0.39172128 0.03657813 0.36181246
v 0.40327279 0.03375420 0.36344359
v 0.39916408 0.02389702 0.36913457
v 0.39998613 0.02604551 0.36789434
v 0.41752038 -0.02560585 0.39089249
v 0.41752038 -0.02249593 0.38909610
v 0.42749254 -0.02249593 0.38909610
v 0.43151068 -0.02249593 0.38909610
v 0.42749254 0.00063157 0.37574386
v 0.43151068 0.00063157 0.37574386
v 0.44148427 -0.02560585 0.39089249
v 0.44148427 -0.02249593 0.38909610
v 0.41269887 -0.02560585 0.39089249
v 0.40868209 -0.02560585 0.39089249
v 0.40868209 0.00063157 0.37574386
v 0.41269887 0.00063157 0.37574386
v 0.39743237 -0.00247835 0.37754025
v 0.37890366 -0.00247835 0.37754025
v 0.37890366 0.00063157 0.37574386
v 0.40144910 0.00063157 0.37574386
v 0.39743237 -0.01140284 0.38269230
v 0.39743237 -0.01451276 0.38448870
v 0.40144910 -0.02560585 0.39089249
v 0.37961360 -0.02560585 0.39089249
v 0.37961360 -0.02249593 0.38909610
v 0.39743237 -0.02249593 0.38909610
v 0.38074747 -0.01140284 0.38269230
v 0.38074747 -0.01451276 0.38448870
v 0.35333306 -0.00498324 0.37898598
v 0.35333306 -0.02560585 0.39089249
v 0.34950459 -0.02560585 0.39089249
v 0.34950459 0.00063157 0.37574386
v 0.35360322 0.00063157 0.37574386
v 0.36959259 -0.01999104 0.38765037
v 0.36932238 -0.02560585 0.39089249
v 0.37342106 -0.02560585 0.39089249
v 0.36959259 0.00063157 0.37574386
v 0.37342106 0.00063157 0.37574386
v 0.42132439 0.01630187 0.36669723
v 0.42069066 0.01657061 0.36654200
v 0.42244824 0.01952245 0.36483759
v 0.42304321 0.01921778 0.36501291
v 0.42198982 0.01606762 0.36683231
v 0.42366549 0.01897347 0.36515375
v 0.42268539 0.01586786 0.36694727
v 0.42416558 0.01883119 0.36523711
v 0.42341255 0.01570259 0.36704214
v 0.42474619 0.01871192 0.36530610
v 0.42397732 0.01560343 0.36710104
v 0.42460969 0.01551865 0.36714846
v 0.42540581 0.01861275 0.36536213
v 0.42531097 0.01544966 0.36718870
v 0.42614453 0.01853658 0.36540670
v 0.42607984 0.01539649 0.36722033
v 0.42696510 0.01848197 0.36543830
v 0.42691768 0.01535768 0.36724188
v 0.42786472 0.01844892 0.36545700
v 0.42782306 0.01533469 0.36725482
v 0.42879597 0.01532750 0.36726057
v 0.42884339 0.01843742 0.36546418
v 0.43519689 0.01843742 0.36546418
v 0.43921509 0.01532750 0.36726057
v 0.43519689 0.03845356 0.35390688
v 0.43921509 0.04156492 0.35211194
v 0.42873995 0.03845356 0.35390688
v 0.42830159 0.04156492 0.35211194
v 0.42791214 0.03844494 0.35391264
v 0.42713609 0.03841476 0.35392988
v 0.42641326 0.03836590 0.35395863
v 0.42574356 0.03829692 0.35399887
v 0.42512561 0.03820782 0.35404917
v 0.42456079 0.03810004 0.35411241
v 0.42404777 0.03797213 0.35418570
v 0.42753129 0.04155629 0.35211624
v 0.42008850 0.01687384 0.36636668
v 0.42188056 0.01988460 0.36462776
v 0.41951797 0.01721013 0.36617266
v 0.41897759 0.01758234 0.36595853
v 0.42133881 0.02030711 0.36438490
v 0.41831798 0.01810258 0.36565674
v 0.42082574 0.02078998 0.36410611
v 0.41770863 0.01866449 0.36533340
v 0.42034002 0.02133034 0.36379280
v 0.41714671 0.01926520 0.36498704
v 0.41663654 0.01990472 0.36461628
v 0.41988154 0.02193249 0.36344647
v 0.41617379 0.02058591 0.36422395
v 0.41946764 0.02260075 0.36305987
v 0.41576137 0.02130591 0.36380862
v 0.41911843 0.02334805 0.36262875
v 0.41539774 0.02206470 0.36337029
v 0.41508301 0.02286087 0.36291042
v 0.41883248 0.02417295 0.36215306
v 0.41481718 0.02368864 0.36243186
v 0.41860968 0.02507546 0.36163138
v 0.41459872 0.02454804 0.36193605
v 0.41442915 0.02543905 0.36142158
v 0.41845021 0.02605557 0.36106516
v 0.41430843 0.02636168 0.36088841
v 0.41835537 0.02711473 0.36045439
v 0.41423514 0.02731593 0.36033797
v 0.41832373 0.02825005 0.35979908
v 0.41421211 0.02830322 0.35976890
v 0.41833952 0.02907926 0.35932051
v 0.41422796 0.02914250 0.35928315
v 0.41427680 0.02995447 0.35881465
v 0.41838837 0.02987255 0.35886207
v 0.41435871 0.03073913 0.35836196
v 0.41846885 0.03062991 0.35842519
v 0.41447367 0.03149649 0.35792506
v 0.41858238 0.03135134 0.35800841
v 0.41462174 0.03222511 0.35750400
v 0.41872897 0.03203685 0.35761320
v 0.41480282 0.03292642 0.35709873
v 0.41890720 0.03268499 0.35723811
v 0.41501547 0.03360043 0.35670928
v 0.41525548 0.03424426 0.35633849
v 0.41911843 0.03329863 0.35688460
v 0.41551270 0.03485503 0.35598495
v 0.41935701 0.03387636 0.35655117
v 0.41578867 0.03543275 0.35565155
v 0.41962290 0.03441815 0.35623789
v 0.41608328 0.03597885 0.35533682
v 0.41991460 0.03492688 0.35594328
v 0.41639653 0.03649190 0.35504078
v 0.41672853 0.03697334 0.35476199
v 0.42023076 0.03540113 0.35567024
v 0.41707917 0.03742172 0.35450328
v 0.42057279 0.03583946 0.35541730
v 0.41744423 0.03783992 0.35426185
v 0.41781784 0.03823369 0.35403481
v 0.42094212 0.03624328 0.35518304
v 0.41820159 0.03860015 0.35382355
v 0.42133591 0.03661406 0.35497036
v 0.41859532 0.03893931 0.35362666
v 0.41899771 0.03925404 0.35344558
v 0.42163770 0.03685549 0.35483095
v 0.41941019 0.03954146 0.35328030
v 0.42196970 0.03708112 0.35470018
v 0.41983270 0.03980158 0.35312940
v 0.42232894 0.03729238 0.35457803
v 0.42027248 0.04004158 0.35299144
v 0.42073808 0.04026433 0.35286212
v 0.42271555 0.03748639 0.35446592
v 0.42122813 0.04046840 0.35274428
v 0.42313230 0.03766315 0.35436390
v 0.42174405 0.04065667 0.35263505
v 0.42357635 0.03782555 0.35427048
v 0.42228585 0.04082767 0.35253733
v 0.42285205 0.04098145 0.35244821
v 0.42344270 0.04111798 0.35236919
v 0.42406070 0.04123582 0.35230162
v 0.42470310 0.04133642 0.35224272
v 0.42537132 0.04141978 0.35219529
v 0.42606547 0.04148301 0.35215936
v 0.42678545 0.04152899 0.35213206
v 0.39298305 0.03079949 0.35832745
v 0.39172128 0.03362342 0.35669634
v 0.40327279 0.03079949 0.35832745
v 0.40445557 0.03362342 0.35669634
v 0.40773648 0.04156492 0.35211194
v 0.41198603 0.04156492 0.35211194
v 0.38365187 0.04156492 0.35211194
v 0.38821472 0.04156492 0.35211194
v 0.39722833 0.02089058 0.36404860
v 0.39754306 0.02010591 0.36450132
v 0.39782758 0.01936868 0.36492668
v 0.39808195 0.01867599 0.36532622
v 0.39849586 0.01876221 0.36527592
v 0.39870133 0.01949227 0.36485484
v 0.39892412 0.02021945 0.36443520
v 0.39998613 0.02309080 0.36277677
v 0.35876966 0.01532750 0.36726057
v 0.35876966 0.01843742 0.36546418
v 0.36874182 0.01843742 0.36546418
v 0.37275997 0.01843742 0.36546418
v 0.36874182 0.04156492 0.35211194
v 0.37275997 0.04156492 0.35211194
v 0.38273213 0.01532750 0.36726057
v 0.38273213 0.01843742 0.36546418
v 0.44148427 -0.02265258 0.39601006
v 0.44148427 -0.01954122 0.39421367
v 0.43151068 -0.01954122 0.39421367
v 0.41752038 -0.02265258 0.39601006
v 0.43151068 0.00358627 0.38086143
v 0.42749254 0.00358627 0.38086143
v 0.42749254 -0.01954122 0.39421367
v 0.41752038 -0.01954122 0.39421367
v 0.40868209 0.00358627 0.38086143
v 0.40868209 -0.02265258 0.39601006
v 0.41269887 -0.02265258 0.39601006
v 0.41269887 0.00358627 0.38086143
v 0.38074747 -0.00844813 0.38780845
v 0.38074747 -0.01155948 0.38960484
v 0.39743237 -0.01155948 0.38960484
v 0.39743237 -0.00844813 0.38780845
v 0.37961360 -0.01954122 0.39421367
v 0.37961360 -0.02265258 0.39601006
v 0.40144910 -0.02265258 0.39601006
v 0.39743237 -0.01954122 0.39421367
v 0.40144910 0.00358627 0.38086143
v 0.37890366 0.00358627 0.38086143
v 0.37890366 0.00047492 0.38265640
v 0.39743237 0.00047492 0.38265640
v 0.37342106 -0.02265258 0.39601006
v 0.37342106 0.00358627 0.38086143
v 0.36959259 0.00358627 0.38086143
v 0.36959259 -0.01703633 0.39276794
v 0.34950459 -0.02265258 0.39601006
v 0.35333306 -0.02265258 0.39601006
v 0.35333306 -0.00202853 0.38410212
v 0.34950459 0.00358627 0.38086143
v 0.35360322 0.00358627 0.38086143
v 0.36932238 -0.02265258 0.39601006
v 0.42069066 0.01952532 0.37165814
v 0.42132439 0.01925658 0.37181334
v 0.42304321 0.02217249 0.37013048
v 0.42244824 0.02247572 0.36995516
v 0.42008850 0.01982712 0.37148425
v 0.42188056 0.02283931 0.36974533
v 0.41951797 0.02016484 0.37128881
v 0.41897759 0.02053561 0.37107467
v 0.42133881 0.02326182 0.36950102
v 0.41831798 0.02105729 0.37077431
v 0.42082574 0.02374326 0.36922223
v 0.41770863 0.02161776 0.37044952
v 0.42034002 0.02428504 0.36891037
v 0.41714671 0.02221848 0.37010318
v 0.41663654 0.02285943 0.36973385
v 0.41988154 0.02488576 0.36856258
v 0.41617379 0.02353918 0.36934006
v 0.41946764 0.02555546 0.36817601
v 0.41576137 0.02425918 0.36892474
v 0.41911843 0.02630275 0.36774487
v 0.41539774 0.02501941 0.36848644
v 0.41508301 0.02581557 0.36802654
v 0.41883248 0.02712766 0.36726918
v 0.41481718 0.02664191 0.36754943
v 0.41860968 0.02803017 0.36674752
v 0.41459872 0.02750131 0.36705362
v 0.41442915 0.02839232 0.36653915
v 0.41845021 0.02901028 0.36618272
v 0.41430843 0.02931639 0.36600598
v 0.41835537 0.03006800 0.36557196
v 0.41423514 0.03027063 0.36545412
v 0.41832373 0.03120332 0.36491519
v 0.41421211 0.03125649 0.36488501
v 0.41833952 0.03203397 0.36443663
v 0.41422796 0.03209720 0.36440072
v 0.41427680 0.03290917 0.36393076
v 0.41838837 0.03282726 0.36397818
v 0.41435871 0.03369384 0.36347807
v 0.41846885 0.03358462 0.36354131
v 0.41447367 0.03445120 0.36304120
v 0.41858238 0.03430462 0.36312456
v 0.41462174 0.03517982 0.36262012
v 0.41872897 0.03499012 0.36272935
v 0.41480282 0.03588113 0.36221485
v 0.41890720 0.03563969 0.36235426
v 0.41501547 0.03655514 0.36182685
v 0.41525548 0.03719753 0.36145461
v 0.41911843 0.03625191 0.36200071
v 0.41551270 0.03780830 0.36110252
v 0.41935701 0.03682962 0.36166732
v 0.41578867 0.03838746 0.36076769
v 0.41962290 0.03737286 0.36135401
v 0.41608328 0.03893356 0.36045296
v 0.41991460 0.03788160 0.36106085
v 0.41639653 0.03944662 0.36015690
v 0.41672853 0.03992805 0.35987956
v 0.42023076 0.03835440 0.36078636
v 0.41707917 0.04037642 0.35962085
v 0.42057279 0.03879416 0.36053344
v 0.41744423 0.04079463 0.35937799
v 0.41781784 0.04118696 0.35915238
v 0.42094212 0.03919799 0.36030061
v 0.41820159 0.04155343 0.35893967
v 0.42133591 0.03956733 0.36008648
v 0.41859532 0.04189402 0.35874423
v 0.41899771 0.04220731 0.35856315
v 0.42163770 0.03981021 0.35994710
v 0.41941019 0.04249473 0.35839644
v 0.42196970 0.04003583 0.35981632
v 0.41983270 0.04275628 0.35824554
v 0.42232894 0.04024565 0.35969560
v 0.42027248 0.04299629 0.35810759
v 0.42073808 0.04321761 0.35797969
v 0.42271555 0.04043966 0.35958349
v 0.42122813 0.04342311 0.35786039
v 0.42313230 0.04061787 0.35948002
v 0.42174405 0.04361138 0.35775262
v 0.42357635 0.04078025 0.35938660
v 0.42228585 0.04378239 0.35765344
v 0.42285205 0.04393615 0.35756436
v 0.42404777 0.04092541 0.35930327
v 0.42344270 0.04407125 0.35748676
v 0.42406070 0.04419053 0.35741776
v 0.42470310 0.04429112 0.35736028
v 0.42537132 0.04437304 0.35731286
v 0.42606547 0.04443772 0.35727550
v 0.42678545 0.04448226 0.35724963
v 0.42753129 0.04450958 0.35723381
v 0.42830159 0.04451963 0.35722805
v 0.42456079 0.04105331 0.35922852
v 0.42512561 0.04116252 0.35916674
v 0.42574356 0.04125020 0.35911499
v 0.42641326 0.04131918 0.35907475
v 0.42713609 0.04136948 0.35904745
v 0.42791214 0.04139822 0.35903021
v 0.42873995 0.04140828 0.35902445
v 0.42198982 0.01902233 0.37194845
v 0.42366549 0.02192817 0.37027132
v 0.42268539 0.01882257 0.37206341
v 0.42416558 0.02178591 0.37035325
v 0.42341255 0.01865731 0.37215970
v 0.42474619 0.02166518 0.37042222
v 0.42397732 0.01855671 0.37221718
v 0.42460969 0.01847335 0.37226603
v 0.42540581 0.02156746 0.37047970
v 0.42531097 0.01840437 0.37230627
v 0.42614453 0.02148986 0.37052427
v 0.42607984 0.01834976 0.37233645
v 0.42696510 0.02143525 0.37055587
v 0.42691768 0.01831240 0.37235945
v 0.42786472 0.02140363 0.37057456
v 0.42782306 0.01828940 0.37237238
v 0.42879597 0.01828078 0.37237669
v 0.42884339 0.02139214 0.37058029
v 0.43519689 0.02139214 0.37058029
v 0.43921509 0.01828078 0.37237669
v 0.43519689 0.04140828 0.35902445
v 0.43921509 0.04451963 0.35722805
v 0.39969585 0.02533271 0.36830536
v 0.39942136 0.02461558 0.36871924
v 0.39688481 0.02467306 0.36868618
v 0.39650973 0.02554827 0.36818031
v 0.39610591 0.02646946 0.36764860
v 0.39722833 0.02384385 0.36916475
v 0.39754306 0.02306062 0.36961743
v 0.39782758 0.02232194 0.37004282
v 0.39808195 0.02162926 0.37044379
v 0.39830612 0.02098256 0.37081742
v 0.39601107 0.01828078 0.37237669
v 0.38821472 0.04451963 0.35722805
v 0.38365187 0.04451963 0.35722805
v 0.39849586 0.02171692 0.37039349
v 0.39870133 0.02244698 0.36997098
v 0.39892412 0.02317272 0.36955132
v 0.39298305 0.03375420 0.36344359
v 0.38273213 0.01828078 0.37237669
v 0.38273213 0.02139214 0.37058029
v 0.37275997 0.02139214 0.37058029
v 0.35876966 0.01828078 0.37237669
v 0.37275997 0.04451963 0.35722805
v 0.36874182 0.04451963 0.35722805
v 0.36874182 0.02139214 0.37058029
v 0.35876966 0.02139214 0.37058029
v -0.31701369 0.02560001 0.36879541
v -0.31660699 0.02415427 0.36962895
v -0.31660699 0.02169105 0.36536358
v -0.31701369 0.02313679 0.36452862
v -0.35601414 0.01898784 0.37261239
v -0.35570804 0.01588224 0.37440446
v -0.35570804 0.01341902 0.37013912
v -0.35601414 0.01652462 0.36834560
v -0.36224976 0.00687583 0.37960538
v -0.36205432 0.00954024 0.37806624
v -0.36205432 0.00707846 0.37379945
v -0.36224976 0.00441262 0.37533859
v -0.31828410 0.02822274 0.36727924
v -0.31757274 0.02695521 0.36801218
v -0.31757274 0.02449343 0.36374538
v -0.31828410 0.02576097 0.36301390
v -0.31914782 0.02940261 0.36659951
v -0.31914782 0.02693940 0.36233269
v -0.32016529 0.03049195 0.36597004
v -0.32016529 0.02802873 0.36170468
v -0.32133366 0.03149218 0.36539231
v -0.32133366 0.02902896 0.36112697
v -0.32263139 0.03237888 0.36488071
v -0.32263139 0.02991566 0.36061392
v -0.32403257 0.03313049 0.36444669
v -0.32403257 0.03066727 0.36017990
v -0.32553579 0.03374557 0.36409172
v -0.32553579 0.03128236 0.35982638
v -0.32714392 0.03422270 0.36381580
v -0.32714392 0.03175948 0.35955043
v -0.32885409 0.03456473 0.36361891
v -0.32885409 0.03210151 0.35935212
v -0.33066773 0.03476880 0.36350107
v -0.33066773 0.03230559 0.35923428
v -0.33258628 0.03483778 0.36346083
v -0.33258628 0.03237457 0.35919546
v -0.33491584 0.03472857 0.36352407
v -0.33491584 0.03226535 0.35925728
v -0.33710170 0.03440378 0.36371090
v -0.33710170 0.03194056 0.35944553
v -0.33914097 0.03386198 0.36402418
v -0.33914097 0.03139877 0.35975884
v -0.34103652 0.03310319 0.36446250
v -0.34103652 0.03063997 0.36019714
v -0.34278836 0.03212594 0.36502585
v -0.34278836 0.02966417 0.36076048
v -0.34439361 0.03093314 0.36571567
v -0.34439361 0.02847137 0.36144888
v -0.34585372 0.02952333 0.36652909
v -0.34585372 0.02706155 0.36226227
v -0.34691431 0.02825436 0.36726200
v -0.34691431 0.02579114 0.36299520
v -0.34781251 0.02691928 0.36803230
v -0.34781251 0.02445606 0.36376693
v -0.34854689 0.02551809 0.36884141
v -0.34854689 0.02305488 0.36457604
v -0.34911741 0.02405080 0.36968931
v -0.34911741 0.02158758 0.36542249
v -0.34952556 0.02251883 0.37057311
v -0.34952556 0.02005561 0.36630777
v -0.34976986 0.02091932 0.37149718
v -0.34976986 0.01845610 0.36723039
v -0.34985178 0.01925514 0.37245717
v -0.34985178 0.01679193 0.36819183
v -0.34975837 0.01751911 0.37346029
v -0.34975837 0.01505589 0.36919350
v -0.34948100 0.01587505 0.37440879
v -0.34948100 0.01341327 0.37014200
v -0.34901538 0.01432440 0.37530411
v -0.34901538 0.01186118 0.37103731
v -0.34836581 0.01286717 0.37614625
v -0.34836581 0.01040395 0.37187946
v -0.34752940 0.01150047 0.37693524
v -0.34752940 0.00903725 0.37266842
v -0.34650762 0.01022718 0.37766960
v -0.34650762 0.00776397 0.37340424
v -0.34530043 0.00904731 0.37835079
v -0.34530043 0.00658410 0.37408542
v -0.34395817 0.00799391 0.37896013
v -0.34395817 0.00553069 0.37469334
v -0.34253112 0.00710289 0.37947460
v -0.34253112 0.00463968 0.37520781
v -0.34101928 0.00637284 0.37989569
v -0.34101928 0.00390962 0.37562890
v -0.33942408 0.00580518 0.38022336
v -0.33942408 0.00334340 0.37595657
v -0.33774408 0.00540135 0.38045616
v -0.33774408 0.00293814 0.37619079
v -0.33597931 0.00515704 0.38059699
v -0.33597931 0.00269383 0.37633020
v -0.33412974 0.00507656 0.38064299
v -0.33412974 0.00261335 0.37637762
v -0.33271131 0.00513261 0.38061136
v -0.33271131 0.00266940 0.37634602
v -0.33131013 0.00529932 0.38051509
v -0.33131013 0.00283610 0.37624972
v -0.32992618 0.00557668 0.38035414
v -0.32992618 0.00311346 0.37608877
v -0.32856236 0.00596614 0.38012994
v -0.32856236 0.00350292 0.37586315
v -0.32721577 0.00646626 0.37984109
v -0.32721577 0.00400447 0.37557427
v -0.32588932 0.00707846 0.37948754
v -0.32588932 0.00461525 0.37522218
v -0.32458010 0.00780133 0.37907079
v -0.32458010 0.00533812 0.37480400
v -0.34748773 -0.00400169 0.38588558
v -0.32730919 -0.00400169 0.38588558
v -0.32730919 -0.00646491 0.38161879
v -0.34748773 -0.00646491 0.38161879
v -0.32234396 -0.00912070 0.38884030
v -0.34748773 -0.00912070 0.38884030
v -0.34748773 -0.01158391 0.38457493
v -0.32234396 -0.01158391 0.38457493
v -0.32328957 0.01408727 0.37544206
v -0.31745776 0.01340465 0.37583582
v -0.31745776 0.01094143 0.37156903
v -0.32328957 0.01162406 0.37117527
v -0.31635407 0.02261943 0.37051563
v -0.32289580 0.02220986 0.37075131
v -0.32289580 0.01974664 0.36648597
v -0.31635407 0.02015622 0.36624884
v -0.35723712 0.02436265 0.36950820
v -0.35652431 0.02181465 0.37097983
v -0.35652431 0.01935143 0.36671301
v -0.35723712 0.02189943 0.36524286
v -0.35815544 0.02663185 0.36819901
v -0.35815544 0.02416864 0.36393222
v -0.35927783 0.02862082 0.36704932
v -0.35927783 0.02615905 0.36278395
v -0.36060284 0.03033243 0.36606201
v -0.36060284 0.02786921 0.36179667
v -0.36185889 0.03152811 0.36537219
v -0.36185889 0.02906489 0.36110539
v -0.36324283 0.03253840 0.36478872
v -0.36324283 0.03007662 0.36052193
v -0.36475322 0.03336618 0.36431018
v -0.36475322 0.03090296 0.36004482
v -0.36639299 0.03401001 0.36393940
v -0.36639299 0.03154679 0.35967260
v -0.36816063 0.03446988 0.36367354
v -0.36816063 0.03200667 0.35940672
v -0.37005619 0.03474581 0.36351401
v -0.37005619 0.03228259 0.35924864
v -0.37207821 0.03483778 0.36346083
v -0.37207821 0.03237457 0.35919546
v -0.37362453 0.03478461 0.36349101
v -0.37362453 0.03232283 0.35922564
v -0.37509329 0.03462797 0.36358155
v -0.37509329 0.03216475 0.35931618
v -0.37648296 0.03436641 0.36373390
v -0.37648296 0.03190320 0.35946708
v -0.37779506 0.03399995 0.36394515
v -0.37779506 0.03153673 0.35967833
v -0.37902953 0.03352857 0.36421677
v -0.37902953 0.03106536 0.35995140
v -0.38018498 0.03295229 0.36455016
v -0.38018498 0.03048907 0.36028337
v -0.38126280 0.03227110 0.36494250
v -0.38126280 0.02980788 0.36067716
v -0.38226447 0.03149362 0.36539231
v -0.38226447 0.02903040 0.36112551
v -0.38319285 0.03062703 0.36589244
v -0.38319285 0.02816382 0.36162565
v -0.38404793 0.02967136 0.36644428
v -0.38404793 0.02720814 0.36217749
v -0.38482829 0.02862513 0.36704786
v -0.38482829 0.02616192 0.36278107
v -0.38553392 0.02749125 0.36770320
v -0.38553392 0.02502803 0.36343641
v -0.38616626 0.02626683 0.36840881
v -0.38616626 0.02380361 0.36414347
v -0.38672528 0.02495475 0.36916762
v -0.38672528 0.02249153 0.36490083
v -0.38720960 0.02353631 0.36998534
v -0.38720960 0.02107310 0.36571998
v -0.38762060 0.02199859 0.37087348
v -0.38762060 0.01953538 0.36660811
v -0.38795545 0.02033873 0.37183204
v -0.38795545 0.01787695 0.36756524
v -0.38821700 0.01855958 0.37285956
v -0.38821700 0.01609636 0.36859276
v -0.38840241 0.01665971 0.37395610
v -0.38840241 0.01419650 0.36968931
v -0.38851449 0.01463913 0.37512303
v -0.38851449 0.01217591 0.37085624
v -0.38855185 0.01249783 0.37635896
v -0.38855185 0.01003461 0.37209359
v -0.38852885 0.01069137 0.37740229
v -0.38852885 0.00822815 0.37313550
v -0.38845989 0.00899557 0.37838097
v -0.38845989 0.00653236 0.37411560
v -0.38834347 0.00740756 0.37929783
v -0.38834347 0.00494435 0.37503104
v -0.38818109 0.00592877 0.38015149
v -0.38818109 0.00346556 0.37588469
v -0.38797126 0.00456064 0.38094190
v -0.38797126 0.00209742 0.37667511
v -0.38771689 0.00330029 0.38166909
v -0.38771689 0.00083707 0.37740372
v -0.38741510 0.00214916 0.38233448
v -0.38741510 -0.00031406 0.37806766
v -0.38707307 0.00107564 0.38295386
v -0.38707307 -0.00138614 0.37868707
v -0.38669655 0.00005097 0.38354453
v -0.38669655 -0.00241224 0.37927917
v -0.38628553 -0.00092626 0.38410930
v -0.38628553 -0.00338948 0.37984394
v -0.38584002 -0.00185608 0.38464678
v -0.38584002 -0.00431930 0.38037998
v -0.38536003 -0.00273991 0.38515552
v -0.38536003 -0.00520168 0.38089018
v -0.38484698 -0.00357487 0.38563839
v -0.38484698 -0.00603665 0.38137160
v -0.38429800 -0.00436241 0.38609253
v -0.38429800 -0.00682562 0.38182716
v -0.38371023 -0.00509965 0.38651934
v -0.38371023 -0.00756286 0.38225255
v -0.38307646 -0.00578659 0.38691601
v -0.38307646 -0.00824981 0.38264919
v -0.38239813 -0.00642323 0.38728246
v -0.38239813 -0.00888645 0.38301709
v -0.38167528 -0.00700670 0.38762019
v -0.38167528 -0.00946992 0.38335482
v -0.38090640 -0.00754131 0.38792771
v -0.38090640 -0.01000309 0.38366237
v -0.38009156 -0.00802274 0.38820653
v -0.38009156 -0.01048596 0.38393974
v -0.37923218 -0.00845388 0.38845515
v -0.37923218 -0.01091710 0.38418978
v -0.37832965 -0.00883040 0.38867216
v -0.37832965 -0.01129362 0.38440679
v -0.37738834 -0.00914800 0.38885609
v -0.37738834 -0.01161122 0.38459075
v -0.37640681 -0.00940956 0.38900698
v -0.37640681 -0.01187277 0.38474019
v -0.37538502 -0.00961219 0.38912340
v -0.37538502 -0.01207541 0.38485806
v -0.37432299 -0.00975591 0.38920818
v -0.37432299 -0.01221912 0.38494139
v -0.37322072 -0.00984357 0.38925705
v -0.37322072 -0.01230678 0.38499169
v -0.37207821 -0.00987231 0.38927429
v -0.37207821 -0.01233552 0.38500750
v -0.37054194 -0.00982058 0.38924412
v -0.37054194 -0.01228379 0.38497878
v -0.36908182 -0.00966393 0.38915358
v -0.36908182 -0.01212715 0.38488824
v -0.36769788 -0.00940381 0.38900413
v -0.36769788 -0.01186702 0.38473731
v -0.36639011 -0.00903879 0.38879288
v -0.36639011 -0.01150200 0.38452751
v -0.36515994 -0.00857029 0.38852269
v -0.36515994 -0.01103350 0.38425732
v -0.36400592 -0.00799831 0.38819214
v -0.36400592 -0.01046153 0.38392535
v -0.36292952 -0.00732143 0.38780127
v -0.36292952 -0.00978465 0.38353590
v -0.36192643 -0.00654683 0.38735430
v -0.36192643 -0.00901004 0.38308897
v -0.36099805 -0.00568312 0.38685565
v -0.36099805 -0.00814634 0.38259028
v -0.36014152 -0.00473031 0.38630521
v -0.36014152 -0.00719352 0.38203987
v -0.35935831 -0.00368696 0.38570308
v -0.35935831 -0.00615018 0.38143771
v -0.35864979 -0.00255452 0.38504919
v -0.35864979 -0.00501774 0.38078237
v -0.35801315 -0.00133153 0.38434356
v -0.35801315 -0.00379475 0.38007677
v -0.35744980 -0.00001945 0.38358620
v -0.35744980 -0.00248122 0.37931940
v -0.35695975 0.00140042 0.38276560
v -0.35695975 -0.00106279 0.37850023
v -0.35654588 0.00294245 0.38187604
v -0.35654588 0.00047923 0.37760924
v -0.35620815 0.00460663 0.38091460
v -0.35620815 0.00214341 0.37664924
v -0.35594372 0.00639583 0.37988275
v -0.35594372 0.00393262 0.37561596
v -0.35575689 0.00830576 0.37877906
v -0.35575689 0.00584254 0.37451226
v -0.35564335 0.01034072 0.37760491
v -0.35564335 0.00787750 0.37333812
v -0.35560599 0.01249783 0.37635896
v -0.35560599 0.01003461 0.37209359
v -0.36302870 0.00237478 0.38220371
v -0.36257455 0.00448735 0.38098357
v -0.36257455 0.00202413 0.37671823
v -0.36302870 -0.00008699 0.37793689
v -0.36361359 0.00054103 0.38326286
v -0.36361359 -0.00192219 0.37899604
v -0.36432783 -0.00101824 0.38416248
v -0.36432783 -0.00348146 0.37989569
v -0.36517288 -0.00230015 0.38490260
v -0.36517288 -0.00476337 0.38063581
v -0.36594030 -0.00313224 0.38538259
v -0.36594030 -0.00559402 0.38111580
v -0.36677814 -0.00383499 0.38578929
v -0.36677814 -0.00629821 0.38152249
v -0.36768639 -0.00441127 0.38612126
v -0.36768639 -0.00687449 0.38185592
v -0.36866219 -0.00485965 0.38637996
v -0.36866219 -0.00732287 0.38211459
v -0.36970841 -0.00517869 0.38656534
v -0.36970841 -0.00764191 0.38229855
v -0.37082504 -0.00537127 0.38667600
v -0.37082504 -0.00783448 0.38240920
v -0.37200921 -0.00543594 0.38671336
v -0.37200921 -0.00789771 0.38244657
v -0.37322502 -0.00536264 0.38667024
v -0.37322502 -0.00782586 0.38240490
v -0.37438189 -0.00514564 0.38654522
v -0.37438189 -0.00760885 0.38227843
v -0.37547843 -0.00478205 0.38633539
v -0.37547843 -0.00724526 0.38207005
v -0.37651459 -0.00427475 0.38604223
v -0.37651459 -0.00673796 0.38177687
v -0.37749181 -0.00362229 0.38566569
v -0.37749181 -0.00608551 0.38140035
v -0.37841013 -0.00282470 0.38520582
v -0.37841013 -0.00528791 0.38093903
v -0.37926809 -0.00188195 0.38466117
v -0.37926809 -0.00434517 0.38039437
v -0.38003696 -0.00071789 0.38398859
v -0.38003696 -0.00318110 0.37972322
v -0.38068797 0.00074222 0.38314645
v -0.38068797 -0.00172099 0.37887965
v -0.38122113 0.00249694 0.38213326
v -0.38122113 0.00003372 0.37786647
v -0.38163501 0.00454914 0.38094766
v -0.38163501 0.00208593 0.37668229
v -0.38193107 0.00689739 0.37959244
v -0.38193107 0.00443417 0.37532565
v -0.38210785 0.00954168 0.37806481
v -0.38210785 0.00707846 0.37379945
v -0.38216820 0.01248202 0.37636756
v -0.38216820 0.01002024 0.37210220
v -0.38210785 0.01541661 0.37467322
v -0.38210785 0.01295339 0.37040785
v -0.38192962 0.01805659 0.37314986
v -0.38192962 0.01559337 0.36888307
v -0.38163358 0.02040052 0.37179610
v -0.38163358 0.01793875 0.36752931
v -0.38121826 0.02245129 0.37061193
v -0.38121826 0.01998807 0.36634656
v -0.38068366 0.02420744 0.36959877
v -0.38068366 0.02174423 0.36533195
v -0.38002978 0.02566755 0.36875517
v -0.38002978 0.02320433 0.36448981
v -0.37925803 0.02683449 0.36808259
v -0.37925803 0.02437127 0.36381580
v -0.37839864 0.02778011 0.36753506
v -0.37839864 0.02531690 0.36326970
v -0.37748463 0.02858058 0.36707374
v -0.37748463 0.02611737 0.36280695
v -0.37651459 0.02923591 0.36669577
v -0.37651459 0.02677269 0.36242898
v -0.37548849 0.02974608 0.36640116
v -0.37548849 0.02728287 0.36213437
v -0.37440777 0.03010967 0.36619136
v -0.37440777 0.02764646 0.36192457
v -0.37327102 0.03032812 0.36606489
v -0.37327102 0.02786490 0.36179809
v -0.37207821 0.03040141 0.36602322
v -0.37207821 0.02793819 0.36175643
v -0.37088685 0.03032812 0.36606489
v -0.37088685 0.02786490 0.36179809
v -0.36975007 0.03011111 0.36618991
v -0.36975007 0.02764790 0.36192457
v -0.36866937 0.02974896 0.36639974
v -0.36866937 0.02728575 0.36213294
v -0.36764328 0.02924166 0.36669289
v -0.36764328 0.02677844 0.36242610
v -0.36667321 0.02858920 0.36706944
v -0.36667321 0.02612599 0.36280264
v -0.36575922 0.02779161 0.36752931
v -0.36575922 0.02532840 0.36326251
v -0.36489981 0.02684886 0.36807399
v -0.36489981 0.02438564 0.36380717
v -0.36412809 0.02568624 0.36874511
v -0.36412809 0.02322302 0.36447832
v -0.36347420 0.02422613 0.36958726
v -0.36347420 0.02176435 0.36532046
v -0.36293958 0.02247141 0.37060041
v -0.36293958 0.02000819 0.36633507
v -0.36252426 0.02041920 0.37178604
v -0.36252426 0.01795599 0.36751925
v -0.36222822 0.01806952 0.37314268
v -0.36222822 0.01560631 0.36887589
v -0.36205002 0.01542379 0.37466889
v -0.36205002 0.01296201 0.37040355
v -0.36198966 0.01248202 0.37636756
v -0.36198966 0.01002024 0.37210220
v -0.32370490 0.01355555 0.37574816
v -0.32370490 0.01109376 0.37148137
v -0.32416191 0.01305399 0.37603704
v -0.32416191 0.01059221 0.37177168
v -0.32466058 0.01258261 0.37631008
v -0.32466058 0.01011940 0.37204472
v -0.32519950 0.01213854 0.37656588
v -0.32519950 0.00967534 0.37230054
v -0.32578011 0.01172466 0.37680589
v -0.32578011 0.00926145 0.37253910
v -0.32640381 0.01133951 0.37702863
v -0.32640381 0.00887630 0.37276184
v -0.32706776 0.01098310 0.37723416
v -0.32706776 0.00851989 0.37296736
v -0.32776476 0.01066550 0.37741666
v -0.32776476 0.00820229 0.37315129
v -0.32848906 0.01039677 0.37757186
v -0.32848906 0.00793355 0.37330652
v -0.32923924 0.01017688 0.37769833
v -0.32923924 0.00771367 0.37343299
v -0.33001672 0.01000587 0.37779750
v -0.33001672 0.00754265 0.37353071
v -0.33082006 0.00988371 0.37786792
v -0.33082006 0.00742050 0.37360255
v -0.33164928 0.00981042 0.37791104
v -0.33164928 0.00734721 0.37364425
v -0.33250580 0.00978599 0.37792398
v -0.33250580 0.00732278 0.37365861
v -0.33386388 0.00984060 0.37789380
v -0.33386388 0.00737739 0.37362698
v -0.33514291 0.01000300 0.37779893
v -0.33514291 0.00753978 0.37353359
v -0.33634290 0.01027461 0.37764227
v -0.33634290 0.00781139 0.37337694
v -0.33746385 0.01065401 0.37742384
v -0.33746385 0.00819223 0.37315705
v -0.33850576 0.01114263 0.37714074
v -0.33850576 0.00867941 0.37287537
v -0.33947006 0.01174046 0.37679725
v -0.33947006 0.00927725 0.37253046
v -0.34035388 0.01244609 0.37638914
v -0.34035388 0.00998288 0.37212377
v -0.34113856 0.01324513 0.37592781
v -0.34113856 0.01078191 0.37166102
v -0.34180106 0.01412320 0.37542052
v -0.34180106 0.01165999 0.37115370
v -0.34234429 0.01508176 0.37486721
v -0.34234429 0.01261854 0.37060187
v -0.34276680 0.01611792 0.37426938
v -0.34276680 0.01365470 0.37000258
v -0.34306859 0.01723456 0.37362413
v -0.34306859 0.01477135 0.36935731
v -0.34324967 0.01843024 0.37293431
v -0.34324967 0.01596703 0.36866751
v -0.34331004 0.01970496 0.37219706
v -0.34331004 0.01724174 0.36793170
v -0.34324680 0.02104867 0.37142246
v -0.34324680 0.01858545 0.36715567
v -0.34305853 0.02231476 0.37069095
v -0.34305853 0.01985155 0.36642416
v -0.34274524 0.02350325 0.37000546
v -0.34274524 0.02104004 0.36573867
v -0.34230693 0.02461271 0.36936452
v -0.34230693 0.02214950 0.36509915
v -0.34174214 0.02564456 0.36876954
v -0.34174214 0.02318134 0.36450274
v -0.34105088 0.02659736 0.36821913
v -0.34105088 0.02413415 0.36395233
v -0.34023604 0.02747257 0.36771326
v -0.34023604 0.02500935 0.36344647
v -0.33932778 0.02825005 0.36726488
v -0.33932778 0.02578683 0.36299808
v -0.33835917 0.02890681 0.36688548
v -0.33835917 0.02644360 0.36261869
v -0.33733163 0.02944429 0.36657506
v -0.33733163 0.02698107 0.36230826
v -0.33624374 0.02986249 0.36633362
v -0.33624374 0.02739927 0.36206683
v -0.33509547 0.03016141 0.36616118
v -0.33509547 0.02769820 0.36189439
v -0.33388830 0.03034105 0.36605770
v -0.33388830 0.02787783 0.36179091
v -0.33262077 0.03040141 0.36602322
v -0.33262077 0.02793819 0.36175643
v -0.33156880 0.03035830 0.36604764
v -0.33156880 0.02789508 0.36178085
v -0.33056282 0.03023327 0.36611949
v -0.33056282 0.02777005 0.36185270
v -0.32960427 0.03002345 0.36624020
v -0.32960427 0.02756023 0.36197487
v -0.32869313 0.02973028 0.36640980
v -0.32869313 0.02726706 0.36214443
v -0.32782799 0.02935231 0.36662823
v -0.32782799 0.02688910 0.36236144
v -0.32701028 0.02889100 0.36689412
v -0.32701028 0.02642779 0.36262875
v -0.32623854 0.02834490 0.36720882
v -0.32623854 0.02588312 0.36294348
v -0.32552860 0.02771688 0.36757242
v -0.32552860 0.02525366 0.36330563
v -0.32489627 0.02700550 0.36798345
v -0.32489627 0.02454229 0.36371663
v -0.32434155 0.02621222 0.36844187
v -0.32434155 0.02374901 0.36417508
v -0.32386442 0.02533558 0.36894773
v -0.32386442 0.02287236 0.36468094
v -0.32346491 0.02437558 0.36950102
v -0.32346491 0.02191237 0.36523423
v -0.32314156 0.02333368 0.37010318
v -0.32314156 0.02087046 0.36583639
v 0.26813654 0.04900918 0.29076435
v 0.26813654 0.04900918 0.14322003
v 0.26813654 -0.07876762 0.06944716
v 0.26813654 -0.20654585 0.14322003
v 0.26813654 -0.20654585 0.29076435
v 0.51952106 -0.07876762 0.36453723
v 0.51952106 -0.20654585 0.29076435
v 0.51952106 -0.20654585 0.14322003
v 0.51952106 -0.07876762 0.06944716
v 0.51952106 0.04900918 0.14322003
v 0.26813654 -0.07876762 0.36453723
v 0.51952106 0.04900918 0.29076435
v -0.47733540 0.04900918 0.29076435
v -0.47733540 0.04900918 0.14322003
v -0.47733540 -0.07876762 0.06944716
v -0.47733540 -0.20654585 0.14322003
v -0.47733540 -0.20654585 0.29076435
v -0.22595089 -0.07876762 0.36453723
v -0.22595089 -0.20654585 0.29076435
v -0.22595089 -0.20654585 0.14322003
v -0.22595089 -0.07876762 0.06944716
v -0.22595089 0.04900918 0.14322003
v -0.47733540 -0.07876762 0.36453723
v -0.22595089 0.04900918 0.29076435
v 0.31302485 0.10915245 0.32548794
v 0.31302485 -0.07876762 0.43398441
v 0.34034439 -0.05510839 0.42032462
v 0.34034439 0.08549179 0.33914915
v 0.39382807 -0.07876762 0.43398441
v 0.47463275 -0.07876762 0.43398441
v 0.44731175 -0.05510839 0.42032462
v 0.39382807 -0.05510839 0.42032462
v 0.47463275 0.10915245 0.32548794
v 0.44731175 0.08549179 0.33914915
v 0.39382807 0.10915245 0.32548794
v 0.39382807 0.08549179 0.33914915
v 0.34034439 -0.06005925 0.41174934
v 0.34034439 0.08054092 0.33057388
v 0.39382807 -0.06005925 0.41174934
v 0.44731175 -0.06005925 0.41174934
v 0.44731175 0.08054092 0.33057388
v 0.39382807 0.08054092 0.33057388
v 0.31302485 0.10915245 0.10849646
v 0.31302485 -0.07876762 0.00000000
v 0.31302485 -0.26668912 0.32548794
v 0.31302485 -0.26668912 0.10849646
v 0.39382807 0.10915245 0.10849646
v 0.39382807 -0.07876762 0.00000000
v 0.47463275 0.10915245 0.10849646
v 0.47463275 -0.07876762 0.00000000
v 0.39382807 -0.26668912 0.32548794
v 0.47463275 -0.26668912 0.32548794
v 0.39382807 -0.26668912 0.10849646
v 0.47463275 -0.26668912 0.10849646
v -0.43244712 0.10915245 0.32548794
v -0.43244712 -0.07876762 0.43398441
v -0.40512612 -0.05510839 0.42032462
v -0.40512612 0.08549179 0.33914915
v -0.35164243 -0.07876762 0.43398441
v -0.27083917 -0.07876762 0.43398441
v -0.29816018 -0.05510839 0.42032462
v -0.35164243 -0.05510839 0.42032462
v -0.27083917 0.10915245 0.32548794
v -0.29816018 0.08549179 0.33914915
v -0.35164243 0.10915245 0.32548794
v -0.35164243 0.08549179 0.33914915
v -0.40512612 -0.06005925 0.41174934
v -0.40512612 0.08054092 0.33057388
v -0.35164243 -0.06005925 0.41174934
v -0.29816018 -0.06005925 0.41174934
v -0.29816018 0.08054092 0.33057388
v -0.35164243 0.08054092 0.33057388
v -0.43244712 0.10915245 0.10849646
v -0.43244712 -0.07876762 0.00000000
v -0.43244712 -0.26668912 0.32548794
v -0.43244712 -0.26668912 0.10849646
v -0.35164243 0.10915245 0.10849646
v -0.35164243 -0.07876762 0.00000000
v -0.27083917 0.10915245 0.10849646
v -0.27083917 -0.07876762 0.00000000
v -0.35164243 -0.26668912 0.32548794
v -0.27083917 -0.26668912 0.32548794
v -0.35164243 -0.26668912 0.10849646
v -0.27083917 -0.26668912 0.10849646
f 1 2 3
f 4 5 6
f 7 8 9
f 10 11 12
f 13 14 15
f 16 17 18
f 19 20 1
f 19 1 3
f 3 21 4
f 3 4 6
f 6 22 7
f 6 7 9
f 3 6 9
f 3 9 19
f 19 9 23
f 19 23 24
f 25 26 10
f 25 10 12
f 12 27 13
f 12 13 15
f 15 28 16
f 15 16 18
f 12 15 18
f 12 18 25
f 25 18 29
f 25 29 30
f 9 31 32
f 9 32 23
f 8 33 31
f 8 31 9
f 7 34 33
f 7 33 8
f 22 35 34
f 22 34 7
f 6 36 35
f 6 35 22
f 5 37 36
f 5 36 6
f 4 38 37
f 4 37 5
f 21 39 38
f 21 38 4
f 3 40 39
f 3 39 21
f 2 41 40
f 2 40 3
f 1 42 41
f 1 41 2
f 20 43 42
f 20 42 1
f 19 44 43
f 19 43 20
f 24 45 44
f 24 44 19
f 23 32 45
f 23 45 24
f 46 47 48
f 46 48 49
f 50 51 49
f 50 49 48
f 47 52 53
f 47 53 48
f 54 50 48
f 54 48 53
f 52 55 56
f 52 56 53
f 57 54 53
f 57 53 56
f 55 58 59
f 55 59 56
f 60 57 56
f 60 56 59
f 58 61 62
f 58 62 59
f 63 60 59
f 63 59 62
f 61 64 65
f 61 65 62
f 66 63 62
f 66 62 65
f 64 67 68
f 64 68 65
f 69 66 65
f 69 65 68
f 67 70 71
f 67 71 68
f 72 69 68
f 72 68 71
f 70 73 74
f 70 74 71
f 75 72 71
f 75 71 74
f 73 76 77
f 73 77 74
f 78 75 74
f 78 74 77
f 76 79 80
f 76 80 77
f 81 78 77
f 81 77 80
f 79 82 83
f 79 83 80
f 84 81 80
f 84 80 83
f 82 85 86
f 82 86 83
f 87 84 83
f 87 83 86
f 85 88 89
f 85 89 86
f 90 87 86
f 90 86 89
f 88 46 49
f 88 49 89
f 51 90 89
f 51 89 49
f 51 50 91
f 51 91 92
f 50 54 93
f 50 93 91
f 54 57 94
f 54 94 93
f 57 60 95
f 57 95 94
f 60 63 96
f 60 96 95
f 63 66 97
f 63 97 96
f 66 69 98
f 66 98 97
f 69 72 99
f 69 99 98
f 72 75 100
f 72 100 99
f 75 78 101
f 75 101 100
f 78 81 102
f 78 102 101
f 81 84 103
f 81 103 102
f 84 87 104
f 84 104 103
f 87 90 105
f 87 105 104
f 90 51 92
f 90 92 105
f 92 91 106
f 92 106 107
f 91 93 108
f 91 108 106
f 93 94 109
f 93 109 108
f 94 95 110
f 94 110 109
f 95 96 111
f 95 111 110
f 96 97 112
f 96 112 111
f 97 98 113
f 97 113 112
f 98 99 114
f 98 114 113
f 99 100 115
f 99 115 114
f 100 101 116
f 100 116 115
f 101 102 117
f 101 117 116
f 102 103 118
f 102 118 117
f 103 104 119
f 103 119 118
f 104 105 120
f 104 120 119
f 105 92 107
f 105 107 120
f 107 106 121
f 107 121 122
f 123 124 125
f 123 125 126
f 126 125 127
f 126 127 128
f 128 127 129
f 128 129 130
f 130 129 131
f 130 131 132
f 132 131 122
f 132 122 121
f 106 108 133
f 106 133 121
f 134 123 126
f 134 126 135
f 135 126 128
f 135 128 136
f 136 128 130
f 136 130 137
f 137 130 132
f 137 132 138
f 138 132 121
f 138 121 133
f 108 109 139
f 108 139 133
f 140 134 135
f 140 135 141
f 141 135 136
f 141 136 142
f 142 136 137
f 142 137 143
f 143 137 138
f 143 138 144
f 144 138 133
f 144 133 139
f 109 110 145
f 109 145 139
f 146 140 141
f 146 141 147
f 147 141 142
f 147 142 148
f 148 142 143
f 148 143 149
f 149 143 144
f 149 144 150
f 150 144 139
f 150 139 145
f 110 111 151
f 110 151 145
f 152 146 147
f 152 147 153
f 153 147 148
f 153 148 154
f 154 148 149
f 154 149 155
f 155 149 150
f 155 150 156
f 156 150 145
f 156 145 151
f 111 112 157
f 111 157 151
f 158 152 153
f 158 153 159
f 159 153 154
f 159 154 160
f 160 154 155
f 160 155 161
f 161 155 156
f 161 156 162
f 162 156 151
f 162 151 157
f 112 113 163
f 112 163 157
f 164 158 159
f 164 159 165
f 165 159 160
f 165 160 166
f 166 160 161
f 166 161 167
f 167 161 162
f 167 162 168
f 168 162 157
f 168 157 163
f 113 114 169
f 113 169 163
f 170 164 165
f 170 165 171
f 171 165 166
f 171 166 172
f 172 166 167
f 172 167 173
f 173 167 168
f 173 168 174
f 174 168 163
f 174 163 169
f 114 115 175
f 114 175 169
f 176 170 171
f 176 171 177
f 177 171 172
f 177 172 178
f 178 172 173
f 178 173 179
f 179 173 174
f 179 174 180
f 180 174 169
f 180 169 175
f 115 116 181
f 115 181 175
f 182 176 177
f 182 177 183
f 183 177 178
f 183 178 184
f 184 178 179
f 184 179 185
f 185 179 180
f 185 180 186
f 186 180 175
f 186 175 181
f 116 117 187
f 116 187 181
f 188 182 183
f 188 183 189
f 189 183 184
f 189 184 190
f 190 184 185
f 190 185 191
f 191 185 186
f 191 186 192
f 192 186 181
f 192 181 187
f 117 118 193
f 117 193 187
f 194 188 189
f 194 189 195
f 195 189 190
f 195 190 196
f 196 190 191
f 196 191 197
f 197 191 192
f 197 192 198
f 198 192 187
f 198 187 193
f 118 119 199
f 118 199 193
f 200 194 195
f 200 195 201
f 201 195 196
f 201 196 202
f 202 196 197
f 202 197 203
f 203 197 198
f 203 198 204
f 204 198 193
f 204 193 199
f 119 120 205
f 119 205 199
f 206 200 201
f 206 201 207
f 207 201 202
f 207 202 208
f 208 202 203
f 208 203 209
f 209 203 204
f 209 204 210
f 210 204 199
f 210 199 205
f 120 107 122
f 120 122 205
f 124 206 207
f 124 207 125
f 125 207 208
f 125 208 127
f 127 208 209
f 127 209 129
f 129 209 210
f 129 210 131
f 131 210 205
f 131 205 122
f 124 123 211
f 124 211 212
f 123 134 213
f 123 213 211
f 134 140 214
f 134 214 213
f 140 146 215
f 140 215 214
f 146 152 216
f 146 216 215
f 152 158 217
f 152 217 216
f 158 164 218
f 158 218 217
f 164 170 219
f 164 219 218
f 170 176 220
f 170 220 219
f 176 182 221
f 176 221 220
f 182 188 222
f 182 222 221
f 188 194 223
f 188 223 222
f 194 200 224
f 194 224 223
f 200 206 225
f 200 225 224
f 206 124 212
f 206 212 225
f 212 211 226
f 212 226 227
f 211 213 228
f 211 228 226
f 213 214 229
f 213 229 228
f 214 215 230
f 214 230 229
f 215 216 231
f 215 231 230
f 216 217 232
f 216 232 231
f 217 218 233
f 217 233 232
f 218 219 234
f 218 234 233
f 219 220 235
f 219 235 234
f 220 221 236
f 220 236 235
f 221 222 237
f 221 237 236
f 222 223 238
f 222 238 237
f 223 224 239
f 223 239 238
f 224 225 240
f 224 240 239
f 225 212 227
f 225 227 240
f 227 226 241
f 227 241 242
f 243 244 242
f 243 242 241
f 226 228 245
f 226 245 241
f 246 243 241
f 246 241 245
f 228 229 247
f 228 247 245
f 248 246 245
f 248 245 247
f 229 230 249
f 229 249 247
f 250 248 247
f 250 247 249
f 230 231 251
f 230 251 249
f 252 250 249
f 252 249 251
f 231 232 253
f 231 253 251
f 254 252 251
f 254 251 253
f 232 233 255
f 232 255 253
f 256 254 253
f 256 253 255
f 233 234 257
f 233 257 255
f 258 256 255
f 258 255 257
f 234 235 259
f 234 259 257
f 260 258 257
f 260 257 259
f 235 236 261
f 235 261 259
f 262 260 259
f 262 259 261
f 236 237 263
f 236 263 261
f 264 262 261
f 264 261 263
f 237 238 265
f 237 265 263
f 266 264 263
f 266 263 265
f 238 239 267
f 238 267 265
f 268 266 265
f 268 265 267
f 239 240 269
f 239 269 267
f 270 268 267
f 270 267 269
f 240 227 242
f 240 242 269
f 244 270 269
f 244 269 242
f 243 271 272
f 243 272 244
f 246 273 271
f 246 271 243
f 248 274 273
f 248 273 246
f 250 275 274
f 250 274 248
f 252 276 275
f 252 275 250
f 254 277 276
f 254 276 252
f 256 278 277
f 256 277 254
f 258 279 278
f 258 278 256
f 260 280 279
f 260 279 258
f 262 281 280
f 262 280 260
f 264 282 281
f 264 281 262
f 266 283 282
f 266 282 264
f 268 284 283
f 268 283 266
f 270 285 284
f 270 284 268
f 244 272 285
f 244 285 270
f 47 46 32
f 47 32 31
f 52 47 31
f 52 31 33
f 55 52 33
f 55 33 34
f 58 55 34
f 58 34 35
f 61 58 35
f 61 35 36
f 64 61 36
f 64 36 37
f 67 64 37
f 67 37 38
f 70 67 38
f 70 38 39
f 73 70 39
f 73 39 40
f 76 73 40
f 76 40 41
f 79 76 41
f 79 41 42
f 82 79 42
f 82 42 43
f 85 82 43
f 85 43 44
f 88 85 44
f 88 44 45
f 46 88 45
f 46 45 32
f 25 30 272
f 25 272 271
f 26 25 271
f 26 271 273
f 10 26 273
f 10 273 274
f 11 10 274
f 11 274 275
f 12 11 275
f 12 275 276
f 27 12 276
f 27 276 277
f 13 27 277
f 13 277 278
f 14 13 278
f 14 278 279
f 15 14 279
f 15 279 280
f 28 15 280
f 28 280 281
f 16 28 281
f 16 281 282
f 17 16 282
f 17 282 283
f 18 17 283
f 18 283 284
f 29 18 284
f 29 284 285
f 30 29 285
f 30 285 272
f 286 287 288
f 289 290 291
f 292 293 294
f 295 296 297
f 298 299 300
f 301 300 302
f 303 304 305
f 303 305 306
f 307 308 306
f 307 306 305
f 309 303 306
f 309 306 310
f 311 312 313
f 311 313 314
f 315 316 317
f 315 317 318
f 319 315 318
f 319 318 320
f 321 322 323
f 321 323 324
f 318 321 324
f 318 324 320
f 325 319 320
f 325 320 326
f 327 328 329
f 327 329 330
f 327 330 331
f 327 331 332
f 333 327 332
f 333 332 334
f 334 332 335
f 334 335 336
f 337 338 339
f 337 339 340
f 341 337 340
f 341 340 342
f 343 341 342
f 343 342 344
f 345 343 344
f 345 344 346
f 347 345 346
f 347 346 348
f 348 346 349
f 348 349 350
f 350 349 351
f 350 351 352
f 352 351 353
f 352 353 354
f 354 353 355
f 354 355 356
f 357 356 355
f 357 355 358
f 357 358 359
f 357 359 360
f 360 359 361
f 360 361 362
f 362 361 363
f 362 363 364
f 364 363 365
f 364 365 366
f 364 366 367
f 364 367 368
f 364 368 369
f 364 369 370
f 364 370 371
f 364 371 372
f 339 338 373
f 339 373 374
f 374 373 375
f 374 375 376
f 377 374 376
f 377 376 378
f 379 377 378
f 379 378 380
f 381 379 380
f 381 380 382
f 381 382 383
f 381 383 384
f 384 383 385
f 384 385 386
f 386 385 387
f 386 387 388
f 388 387 389
f 388 389 390
f 391 388 390
f 391 390 392
f 393 391 392
f 393 392 394
f 393 394 395
f 393 395 396
f 396 395 397
f 396 397 398
f 398 397 399
f 398 399 400
f 400 399 401
f 400 401 402
f 402 401 403
f 402 403 404
f 405 402 404
f 405 404 406
f 407 405 406
f 407 406 408
f 409 407 408
f 409 408 410
f 411 409 410
f 411 410 412
f 413 411 412
f 413 412 414
f 413 414 415
f 413 415 416
f 416 415 417
f 416 417 418
f 418 417 419
f 418 419 420
f 420 419 421
f 420 421 422
f 422 421 423
f 422 423 424
f 425 422 424
f 425 424 426
f 427 425 426
f 427 426 428
f 427 428 429
f 427 429 430
f 430 429 431
f 430 431 432
f 432 431 433
f 432 433 434
f 435 432 434
f 435 434 436
f 437 435 436
f 437 436 438
f 439 437 438
f 439 438 440
f 439 440 441
f 439 441 442
f 442 441 443
f 442 443 444
f 444 443 445
f 444 445 446
f 446 445 447
f 446 447 448
f 371 446 448
f 371 448 449
f 371 449 450
f 371 450 451
f 371 451 452
f 371 452 453
f 371 453 454
f 371 454 372
f 455 286 288
f 455 288 456
f 457 455 456
f 457 456 458
f 459 460 289
f 459 289 291
f 290 461 462
f 290 462 456
f 456 288 463
f 456 463 464
f 456 464 465
f 456 465 466
f 456 466 291
f 456 291 290
f 458 459 291
f 458 291 467
f 458 467 468
f 458 468 469
f 458 469 293
f 458 293 457
f 470 457 293
f 470 293 292
f 471 472 473
f 471 473 474
f 475 476 474
f 475 474 473
f 477 471 474
f 477 474 478
f 479 480 481
f 479 481 482
f 481 483 484
f 481 484 485
f 485 486 482
f 485 482 481
f 487 488 489
f 487 489 490
f 491 492 493
f 491 493 494
f 495 496 497
f 495 497 498
f 498 497 499
f 498 499 493
f 500 501 502
f 500 502 499
f 499 502 494
f 499 494 493
f 503 504 505
f 503 505 506
f 507 508 509
f 507 509 510
f 511 510 509
f 511 509 506
f 506 509 512
f 506 512 503
f 513 514 515
f 513 515 516
f 517 513 516
f 517 516 518
f 519 517 518
f 519 518 520
f 520 518 521
f 520 521 522
f 522 521 523
f 522 523 524
f 524 523 525
f 524 525 526
f 527 526 525
f 527 525 528
f 529 527 528
f 529 528 530
f 531 529 530
f 531 530 532
f 533 531 532
f 533 532 534
f 534 532 535
f 534 535 536
f 536 535 537
f 536 537 538
f 539 538 537
f 539 537 540
f 541 539 540
f 541 540 542
f 543 541 542
f 543 542 544
f 545 543 544
f 545 544 546
f 547 545 546
f 547 546 548
f 548 546 549
f 548 549 550
f 550 549 551
f 550 551 552
f 552 551 553
f 552 553 554
f 554 553 555
f 554 555 556
f 556 555 557
f 556 557 558
f 559 558 557
f 559 557 560
f 561 559 560
f 561 560 562
f 563 561 562
f 563 562 564
f 565 563 564
f 565 564 566
f 567 565 566
f 567 566 568
f 568 566 569
f 568 569 570
f 570 569 571
f 570 571 572
f 573 572 571
f 573 571 574
f 575 573 574
f 575 574 576
f 577 575 576
f 577 576 578
f 578 576 579
f 578 579 580
f 580 579 581
f 580 581 582
f 582 581 583
f 582 583 584
f 585 584 583
f 585 583 586
f 587 585 586
f 587 586 588
f 589 587 588
f 589 588 590
f 591 589 590
f 591 590 592
f 592 590 593
f 592 593 594
f 595 594 593
f 595 593 596
f 597 596 593
f 597 593 598
f 599 598 593
f 599 593 600
f 601 600 593
f 601 593 602
f 601 602 603
f 601 603 604
f 601 604 605
f 601 605 606
f 601 606 607
f 601 607 608
f 515 514 609
f 515 609 610
f 610 609 611
f 610 611 612
f 612 611 613
f 612 613 614
f 614 613 615
f 614 615 616
f 617 614 616
f 617 616 618
f 619 617 618
f 619 618 620
f 621 619 620
f 621 620 622
f 623 621 622
f 623 622 624
f 623 624 625
f 623 625 626
f 627 626 625
f 627 625 628
f 629 627 628
f 629 628 630
f 608 629 630
f 608 630 601
f 631 632 301
f 631 301 302
f 633 634 635
f 633 635 299
f 636 633 299
f 636 299 637
f 638 637 299
f 638 299 639
f 640 639 299
f 640 299 641
f 642 643 641
f 642 641 299
f 640 641 295
f 640 295 297
f 640 297 298
f 640 298 644
f 645 644 298
f 645 298 646
f 301 646 298
f 301 298 300
f 299 635 647
f 299 647 300
f 648 649 650
f 648 650 651
f 650 652 653
f 650 653 654
f 654 655 651
f 654 651 650
f 485 484 307
f 485 307 305
f 488 487 313
f 488 313 312
f 501 500 317
f 501 317 316
f 506 505 335
f 506 335 332
f 600 601 364
f 600 364 372
f 626 627 359
f 626 359 358
f 298 297 459
f 298 459 458
f 631 302 470
f 631 470 292
f 654 653 475
f 654 475 473
f 482 486 304
f 482 304 303
f 480 479 309
f 480 309 310
f 483 481 306
f 483 306 308
f 490 489 311
f 490 311 314
f 494 502 315
f 494 315 319
f 492 491 325
f 492 325 326
f 498 493 320
f 498 320 324
f 496 495 323
f 496 323 322
f 499 497 321
f 499 321 318
f 510 511 331
f 510 331 330
f 508 507 329
f 508 329 328
f 512 509 327
f 512 327 333
f 504 503 334
f 504 334 336
f 598 599 454
f 598 454 453
f 597 598 453
f 597 453 452
f 596 597 452
f 596 452 451
f 595 596 451
f 595 451 450
f 594 595 450
f 594 450 449
f 592 594 449
f 592 449 448
f 591 592 448
f 591 448 447
f 589 591 447
f 589 447 445
f 587 589 445
f 587 445 443
f 585 587 443
f 585 443 441
f 584 585 441
f 584 441 440
f 582 584 440
f 582 440 438
f 580 582 438
f 580 438 436
f 578 580 436
f 578 436 434
f 577 578 434
f 577 434 433
f 575 577 433
f 575 433 431
f 573 575 431
f 573 431 429
f 572 573 429
f 572 429 428
f 570 572 428
f 570 428 426
f 568 570 426
f 568 426 424
f 567 568 424
f 567 424 423
f 565 567 423
f 565 423 421
f 563 565 421
f 563 421 419
f 561 563 419
f 561 419 417
f 559 561 417
f 559 417 415
f 558 559 415
f 558 415 414
f 556 558 414
f 556 414 412
f 554 556 412
f 554 412 410
f 552 554 410
f 552 410 408
f 550 552 408
f 550 408 406
f 548 550 406
f 548 406 404
f 547 548 404
f 547 404 403
f 545 547 403
f 545 403 401
f 543 545 401
f 543 401 399
f 541 543 399
f 541 399 397
f 539 541 397
f 539 397 395
f 538 539 395
f 538 395 394
f 536 538 394
f 536 394 392
f 534 536 392
f 534 392 390
f 533 534 390
f 533 390 389
f 531 533 389
f 531 389 387
f 529 531 387
f 529 387 385
f 527 529 385
f 527 385 383
f 526 527 383
f 526 383 382
f 524 526 382
f 524 382 380
f 522 524 380
f 522 380 378
f 520 522 378
f 520 378 376
f 519 520 376
f 519 376 375
f 517 519 375
f 517 375 373
f 513 517 373
f 513 373 338
f 514 513 338
f 514 338 337
f 609 514 337
f 609 337 341
f 611 609 341
f 611 341 343
f 613 611 343
f 613 343 345
f 615 613 345
f 615 345 347
f 616 615 347
f 616 347 348
f 618 616 348
f 618 348 350
f 620 618 350
f 620 350 352
f 622 620 352
f 622 352 354
f 624 622 354
f 624 354 356
f 625 624 356
f 625 356 357
f 630 628 360
f 630 360 362
f 629 608 363
f 629 363 361
f 642 299 456
f 642 456 462
f 641 643 461
f 641 461 290
f 296 295 289
f 296 289 460
f 301 632 294
f 301 294 293
f 646 301 293
f 646 293 469
f 645 646 469
f 645 469 468
f 644 645 468
f 644 468 467
f 640 644 467
f 640 467 291
f 647 635 286
f 647 286 455
f 302 300 457
f 302 457 470
f 651 655 472
f 651 472 471
f 649 648 477
f 649 477 478
f 652 650 474
f 652 474 476
f 599 600 372
f 599 372 454
f 632 631 292
f 632 292 294
f 486 485 305
f 486 305 304
f 479 482 303
f 479 303 309
f 481 480 310
f 481 310 306
f 484 483 308
f 484 308 307
f 489 488 312
f 489 312 311
f 487 490 314
f 487 314 313
f 502 501 316
f 502 316 315
f 491 494 319
f 491 319 325
f 493 492 326
f 493 326 320
f 495 498 324
f 495 324 323
f 497 496 322
f 497 322 321
f 500 499 318
f 500 318 317
f 511 506 332
f 511 332 331
f 507 510 330
f 507 330 329
f 509 508 328
f 509 328 327
f 503 512 333
f 503 333 334
f 505 504 336
f 505 336 335
f 628 625 357
f 628 357 360
f 601 630 362
f 601 362 364
f 623 626 358
f 623 358 355
f 621 623 355
f 621 355 353
f 619 621 353
f 619 353 351
f 617 619 351
f 617 351 349
f 614 617 349
f 614 349 346
f 612 614 346
f 612 346 344
f 610 612 344
f 610 344 342
f 515 610 342
f 515 342 340
f 516 515 340
f 516 340 339
f 518 516 339
f 518 339 374
f 521 518 374
f 521 374 377
f 523 521 377
f 523 377 379
f 525 523 379
f 525 379 381
f 528 525 381
f 528 381 384
f 530 528 384
f 530 384 386
f 532 530 386
f 532 386 388
f 535 532 388
f 535 388 391
f 537 535 391
f 537 391 393
f 540 537 393
f 540 393 396
f 542 540 396
f 542 396 398
f 544 542 398
f 544 398 400
f 546 544 400
f 546 400 402
f 549 546 402
f 549 402 405
f 551 549 405
f 551 405 407
f 553 551 407
f 553 407 409
f 555 553 409
f 555 409 411
f 557 555 411
f 557 411 413
f 560 557 413
f 560 413 416
f 562 560 416
f 562 416 418
f 564 562 418
f 564 418 420
f 566 564 420
f 566 420 422
f 569 566 422
f 569 422 425
f 571 569 425
f 571 425 427
f 574 571 427
f 574 427 430
f 576 574 430
f 576 430 432
f 579 576 432
f 579 432 435
f 581 579 435
f 581 435 437
f 583 581 437
f 583 437 439
f 586 583 439
f 586 439 442
f 588 586 442
f 588 442 444
f 590 588 444
f 590 444 446
f 593 590 446
f 593 446 371
f 602 593 371
f 602 371 370
f 603 602 370
f 603 370 369
f 604 603 369
f 604 369 368
f 605 604 368
f 605 368 367
f 606 605 367
f 606 367 366
f 607 606 366
f 607 366 365
f 608 607 365
f 608 365 363
f 627 629 361
f 627 361 359
f 299 298 458
f 299 458 456
f 643 642 462
f 643 462 461
f 295 641 290
f 295 290 289
f 297 296 460
f 297 460 459
f 639 640 291
f 639 291 466
f 638 639 466
f 638 466 465
f 637 638 465
f 637 465 464
f 636 637 464
f 636 464 463
f 633 636 463
f 633 463 288
f 634 633 288
f 634 288 287
f 635 634 287
f 635 287 286
f 300 647 455
f 300 455 457
f 655 654 473
f 655 473 472
f 648 651 471
f 648 471 477
f 650 649 478
f 650 478 474
f 653 652 476
f 653 476 475
f 656 657 658
f 656 658 659
f 660 661 662
f 660 662 663
f 664 665 666
f 664 666 667
f 668 669 670
f 668 670 671
f 672 668 671
f 672 671 673
f 674 672 673
f 674 673 675
f 676 674 675
f 676 675 677
f 678 676 677
f 678 677 679
f 680 678 679
f 680 679 681
f 682 680 681
f 682 681 683
f 684 682 683
f 684 683 685
f 686 684 685
f 686 685 687
f 688 686 687
f 688 687 689
f 690 688 689
f 690 689 691
f 692 690 691
f 692 691 693
f 694 692 693
f 694 693 695
f 696 694 695
f 696 695 697
f 698 696 697
f 698 697 699
f 700 698 699
f 700 699 701
f 702 700 701
f 702 701 703
f 704 702 703
f 704 703 705
f 706 704 705
f 706 705 707
f 708 706 707
f 708 707 709
f 710 708 709
f 710 709 711
f 712 710 711
f 712 711 713
f 714 712 713
f 714 713 715
f 716 714 715
f 716 715 717
f 718 716 717
f 718 717 719
f 720 718 719
f 720 719 721
f 722 720 721
f 722 721 723
f 724 722 723
f 724 723 725
f 726 724 725
f 726 725 727
f 728 726 727
f 728 727 729
f 730 728 729
f 730 729 731
f 732 730 731
f 732 731 733
f 734 732 733
f 734 733 735
f 736 734 735
f 736 735 737
f 738 736 737
f 738 737 739
f 740 738 739
f 740 739 741
f 742 740 741
f 742 741 743
f 744 742 743
f 744 743 745
f 746 744 745
f 746 745 747
f 748 746 747
f 748 747 749
f 750 748 749
f 750 749 751
f 752 750 751
f 752 751 753
f 754 752 753
f 754 753 755
f 756 754 755
f 756 755 757
f 758 756 757
f 758 757 759
f 760 758 759
f 760 759 761
f 762 763 764
f 762 764 765
f 766 767 768
f 766 768 769
f 770 771 772
f 770 772 773
f 774 775 776
f 774 776 777
f 778 779 780
f 778 780 781
f 782 778 781
f 782 781 783
f 784 782 783
f 784 783 785
f 786 784 785
f 786 785 787
f 788 786 787
f 788 787 789
f 790 788 789
f 790 789 791
f 792 790 791
f 792 791 793
f 794 792 793
f 794 793 795
f 796 794 795
f 796 795 797
f 798 796 797
f 798 797 799
f 800 798 799
f 800 799 801
f 802 800 801
f 802 801 803
f 804 802 803
f 804 803 805
f 806 804 805
f 806 805 807
f 808 806 807
f 808 807 809
f 810 808 809
f 810 809 811
f 812 810 811
f 812 811 813
f 814 812 813
f 814 813 815
f 816 814 815
f 816 815 817
f 818 816 817
f 818 817 819
f 820 818 819
f 820 819 821
f 822 820 821
f 822 821 823
f 824 822 823
f 824 823 825
f 826 824 825
f 826 825 827
f 828 826 827
f 828 827 829
f 830 828 829
f 830 829 831
f 832 830 831
f 832 831 833
f 834 832 833
f 834 833 835
f 836 834 835
f 836 835 837
f 838 836 837
f 838 837 839
f 840 838 839
f 840 839 841
f 842 840 841
f 842 841 843
f 844 842 843
f 844 843 845
f 846 844 845
f 846 845 847
f 848 846 847
f 848 847 849
f 850 848 849
f 850 849 851
f 852 850 851
f 852 851 853
f 854 852 853
f 854 853 855
f 856 854 855
f 856 855 857
f 858 856 857
f 858 857 859
f 860 858 859
f 860 859 861
f 862 860 861
f 862 861 863
f 864 862 863
f 864 863 865
f 866 864 865
f 866 865 867
f 868 866 867
f 868 867 869
f 870 868 869
f 870 869 871
f 872 870 871
f 872 871 873
f 874 872 873
f 874 873 875
f 876 874 875
f 876 875 877
f 878 876 877
f 878 877 879
f 880 878 879
f 880 879 881
f 882 880 881
f 882 881 883
f 884 882 883
f 884 883 885
f 886 884 885
f 886 885 887
f 888 886 887
f 888 887 889
f 890 888 889
f 890 889 891
f 892 890 891
f 892 891 893
f 894 892 893
f 894 893 895
f 896 894 895
f 896 895 897
f 898 896 897
f 898 897 899
f 900 898 899
f 900 899 901
f 902 900 901
f 902 901 903
f 904 902 903
f 904 903 905
f 906 904 905
f 906 905 907
f 908 906 907
f 908 907 909
f 910 908 909
f 910 909 911
f 912 910 911
f 912 911 913
f 914 912 913
f 914 913 915
f 916 914 915
f 916 915 917
f 918 916 917
f 918 917 919
f 920 918 919
f 920 919 921
f 922 920 921
f 922 921 923
f 924 922 923
f 924 923 925
f 926 924 925
f 926 925 927
f 928 926 927
f 928 927 929
f 930 928 929
f 930 929 931
f 932 930 931
f 932 931 933
f 934 932 933
f 934 933 935
f 936 934 935
f 936 935 937
f 938 936 937
f 938 937 939
f 940 938 939
f 940 939 941
f 942 943 944
f 942 944 945
f 946 942 945
f 946 945 947
f 948 946 947
f 948 947 949
f 950 948 949
f 950 949 951
f 952 950 951
f 952 951 953
f 954 952 953
f 954 953 955
f 956 954 955
f 956 955 957
f 958 956 957
f 958 957 959
f 960 958 959
f 960 959 961
f 962 960 961
f 962 961 963
f 964 962 963
f 964 963 965
f 966 964 965
f 966 965 967
f 968 966 967
f 968 967 969
f 970 968 969
f 970 969 971
f 972 970 971
f 972 971 973
f 974 972 973
f 974 973 975
f 976 974 975
f 976 975 977
f 978 976 977
f 978 977 979
f 980 978 979
f 980 979 981
f 982 980 981
f 982 981 983
f 984 982 983
f 984 983 985
f 986 984 985
f 986 985 987
f 988 986 987
f 988 987 989
f 990 988 989
f 990 989 991
f 992 990 991
f 992 991 993
f 994 992 993
f 994 993 995
f 996 994 995
f 996 995 997
f 998 996 997
f 998 997 999
f 1000 998 999
f 1000 999 1001
f 1002 1000 1001
f 1002 1001 1003
f 1004 1002 1003
f 1004 1003 1005
f 1006 1004 1005
f 1006 1005 1007
f 1008 1006 1007
f 1008 1007 1009
f 1010 1008 1009
f 1010 1009 1011
f 1012 1010 1011
f 1012 1011 1013
f 1014 1012 1013
f 1014 1013 1015
f 1016 1014 1015
f 1016 1015 1017
f 1018 1016 1017
f 1018 1017 1019
f 1020 1018 1019
f 1020 1019 1021
f 1022 1020 1021
f 1022 1021 1023
f 1024 1022 1023
f 1024 1023 1025
f 1026 1024 1025
f 1026 1025 1027
f 1028 1026 1027
f 1028 1027 1029
f 1030 1028 1029
f 1030 1029 1031
f 1032 1030 1031
f 1032 1031 1033
f 1034 1032 1033
f 1034 1033 1035
f 1036 1034 1035
f 1036 1035 1037
f 1038 1036 1037
f 1038 1037 1039
f 1040 1038 1039
f 1040 1039 1041
f 1042 1040 1041
f 1042 1041 1043
f 1044 1042 1043
f 1044 1043 1045
f 1046 1044 1045
f 1046 1045 1047
f 1048 1046 1047
f 1048 1047 1049
f 669 656 659
f 669 659 670
f 779 660 663
f 779 663 780
f 661 940 941
f 661 941 662
f 943 664 667
f 943 667 944
f 665 1048 1049
f 665 1049 666
f 763 760 761
f 763 761 764
f 767 762 765
f 767 765 768
f 771 766 769
f 771 769 772
f 1050 770 773
f 1050 773 1051
f 1052 1050 1051
f 1052 1051 1053
f 1054 1052 1053
f 1054 1053 1055
f 1056 1054 1055
f 1056 1055 1057
f 1058 1056 1057
f 1058 1057 1059
f 1060 1058 1059
f 1060 1059 1061
f 1062 1060 1061
f 1062 1061 1063
f 1064 1062 1063
f 1064 1063 1065
f 1066 1064 1065
f 1066 1065 1067
f 1068 1066 1067
f 1068 1067 1069
f 1070 1068 1069
f 1070 1069 1071
f 1072 1070 1071
f 1072 1071 1073
f 1074 1072 1073
f 1074 1073 1075
f 1076 1074 1075
f 1076 1075 1077
f 1078 1076 1077
f 1078 1077 1079
f 1080 1078 1079
f 1080 1079 1081
f 1082 1080 1081
f 1082 1081 1083
f 1084 1082 1083
f 1084 1083 1085
f 1086 1084 1085
f 1086 1085 1087
f 1088 1086 1087
f 1088 1087 1089
f 1090 1088 1089
f 1090 1089 1091
f 1092 1090 1091
f 1092 1091 1093
f 1094 1092 1093
f 1094 1093 1095
f 1096 1094 1095
f 1096 1095 1097
f 1098 1096 1097
f 1098 1097 1099
f 1100 1098 1099
f 1100 1099 1101
f 1102 1100 1101
f 1102 1101 1103
f 1104 1102 1103
f 1104 1103 1105
f 1106 1104 1105
f 1106 1105 1107
f 1108 1106 1107
f 1108 1107 1109
f 1110 1108 1109
f 1110 1109 1111
f 1112 1110 1111
f 1112 1111 1113
f 1114 1112 1113
f 1114 1113 1115
f 1116 1114 1115
f 1116 1115 1117
f 1118 1116 1117
f 1118 1117 1119
f 1120 1118 1119
f 1120 1119 1121
f 1122 1120 1121
f 1122 1121 1123
f 1124 1122 1123
f 1124 1123 1125
f 1126 1124 1125
f 1126 1125 1127
f 1128 1126 1127
f 1128 1127 1129
f 1130 1128 1129
f 1130 1129 1131
f 1132 1130 1131
f 1132 1131 1133
f 1134 1132 1133
f 1134 1133 1135
f 1136 1134 1135
f 1136 1135 1137
f 1138 1136 1137
f 1138 1137 1139
f 1140 1138 1139
f 1140 1139 1141
f 1142 1140 1141
f 1142 1141 1143
f 1144 1142 1143
f 1144 1143 1145
f 1146 1144 1145
f 1146 1145 1147
f 1148 1146 1147
f 1148 1147 1149
f 1150 1148 1149
f 1150 1149 1151
f 1152 1150 1151
f 1152 1151 1153
f 1154 1152 1153
f 1154 1153 1155
f 1156 1154 1155
f 1156 1155 1157
f 1158 1156 1157
f 1158 1157 1159
f 775 1158 1159
f 775 1159 776
f 657 774 777
f 657 777 658
f 773 772 769
f 773 769 1051
f 1053 1051 769
f 1053 769 1055
f 769 768 765
f 769 765 764
f 769 764 761
f 769 761 1055
f 1057 1055 761
f 1057 761 1059
f 1061 1059 761
f 1061 761 1063
f 1065 1063 761
f 1065 761 759
f 1067 1065 759
f 1067 759 757
f 1069 1067 757
f 1069 757 1071
f 1071 757 755
f 1071 755 1073
f 1073 755 753
f 1073 753 1075
f 1075 753 751
f 1075 751 1077
f 1077 751 749
f 1077 749 1079
f 1079 749 747
f 1079 747 1081
f 1081 747 745
f 1081 745 1083
f 1083 745 743
f 1083 743 1085
f 1085 743 741
f 1085 741 739
f 1087 1085 739
f 1087 739 737
f 1089 1087 737
f 1089 737 735
f 1091 1089 735
f 1091 735 733
f 1093 1091 733
f 1093 733 731
f 1095 1093 731
f 1095 731 729
f 1097 1095 729
f 1097 729 727
f 1099 1097 727
f 1099 727 725
f 1101 1099 725
f 1101 725 723
f 1101 723 721
f 1101 721 1103
f 1103 721 719
f 1103 719 1105
f 1105 719 717
f 1105 717 1107
f 1107 717 715
f 1107 715 1109
f 1109 715 713
f 1109 713 1111
f 1111 713 711
f 1111 711 1113
f 1113 711 709
f 1113 709 1115
f 1115 709 707
f 1115 707 1117
f 1117 707 705
f 1117 705 1119
f 1119 705 703
f 1119 703 1121
f 1121 703 701
f 1121 701 1123
f 1123 701 699
f 1123 699 1125
f 1125 699 697
f 1125 697 1127
f 1127 697 695
f 1127 695 1129
f 1129 695 693
f 1129 693 1131
f 1133 1131 693
f 1133 693 691
f 1135 1133 691
f 1135 691 689
f 1137 1135 689
f 1137 689 687
f 1139 1137 687
f 1139 687 685
f 1141 1139 685
f 1141 685 1143
f 1143 685 683
f 1143 683 1145
f 1145 683 681
f 1145 681 1147
f 1147 681 679
f 1147 679 1149
f 1149 679 677
f 1149 677 1151
f 1151 677 675
f 1151 675 673
f 1153 1151 673
f 1153 673 671
f 1155 1153 671
f 1155 671 670
f 1157 1155 670
f 1157 670 659
f 1159 1157 659
f 1159 659 658
f 776 1159 658
f 776 658 777
f 867 865 983
f 867 983 981
f 869 867 981
f 869 981 871
f 871 981 979
f 871 979 873
f 875 873 979
f 875 979 977
f 877 875 977
f 877 977 879
f 879 977 975
f 879 975 881
f 883 881 975
f 883 975 973
f 885 883 973
f 885 973 887
f 887 973 971
f 887 971 889
f 891 889 971
f 891 971 969
f 893 891 969
f 893 969 895
f 895 969 967
f 895 967 897
f 897 967 965
f 897 965 899
f 899 965 963
f 899 963 901
f 903 901 963
f 903 963 961
f 905 903 961
f 905 961 959
f 907 905 959
f 907 959 957
f 909 907 957
f 909 957 911
f 911 957 955
f 911 955 913
f 913 955 953
f 913 953 915
f 917 915 953
f 917 953 951
f 919 917 951
f 919 951 921
f 921 951 949
f 921 949 923
f 923 949 947
f 923 947 925
f 927 925 947
f 927 947 945
f 929 927 945
f 929 945 931
f 931 945 944
f 931 944 933
f 933 944 667
f 933 667 935
f 937 935 667
f 937 667 666
f 939 937 666
f 939 666 1049
f 941 939 1049
f 941 1049 1047
f 662 941 1047
f 662 1047 1045
f 663 662 1045
f 663 1045 1043
f 780 663 1043
f 780 1043 1041
f 781 780 1041
f 781 1041 1039
f 783 781 1039
f 783 1039 1037
f 785 783 1037
f 785 1037 1035
f 787 785 1035
f 787 1035 1033
f 787 1033 1031
f 787 1031 1029
f 787 1029 1027
f 787 1027 1025
f 787 1025 1023
f 787 1023 1021
f 983 865 863
f 983 863 861
f 985 983 861
f 985 861 859
f 985 859 857
f 985 857 855
f 987 985 855
f 987 855 853
f 987 853 851
f 987 851 989
f 989 851 849
f 989 849 847
f 991 989 847
f 991 847 845
f 993 991 845
f 993 845 843
f 993 843 841
f 993 841 995
f 995 841 839
f 995 839 997
f 997 839 837
f 997 837 835
f 999 997 835
f 999 835 833
f 1001 999 833
f 1001 833 831
f 1001 831 829
f 1001 829 1003
f 1003 829 827
f 1003 827 825
f 1005 1003 825
f 1005 825 823
f 1007 1005 823
f 1007 823 821
f 1007 821 819
f 1007 819 1009
f 1009 819 817
f 1009 817 1011
f 1011 817 815
f 1011 815 813
f 1013 1011 813
f 1013 813 811
f 1015 1013 811
f 1015 811 809
f 1015 809 807
f 1015 807 1017
f 1017 807 805
f 1017 805 1019
f 1019 805 803
f 1019 803 1021
f 1021 803 801
f 1021 801 799
f 1021 799 797
f 1021 797 795
f 1021 795 793
f 1021 793 791
f 1021 791 789
f 1021 789 787
f 775 774 657
f 775 657 1158
f 762 767 766
f 762 766 763
f 760 763 766
f 760 766 1054
f 766 771 770
f 766 770 1050
f 766 1050 1052
f 766 1052 1054
f 760 1054 1056
f 760 1056 1058
f 760 1058 1060
f 760 1060 1062
f 760 1062 1064
f 760 1064 758
f 758 1064 1066
f 758 1066 756
f 756 1066 1068
f 756 1068 1070
f 754 756 1070
f 754 1070 1072
f 752 754 1072
f 752 1072 1074
f 750 752 1074
f 750 1074 1076
f 748 750 1076
f 748 1076 1078
f 746 748 1078
f 746 1078 1080
f 744 746 1080
f 744 1080 1082
f 742 744 1082
f 742 1082 1084
f 740 742 1084
f 740 1084 738
f 738 1084 1086
f 738 1086 736
f 736 1086 1088
f 736 1088 734
f 734 1088 1090
f 734 1090 732
f 732 1090 1092
f 732 1092 730
f 730 1092 1094
f 730 1094 728
f 728 1094 1096
f 728 1096 726
f 726 1096 1098
f 726 1098 724
f 724 1098 1100
f 724 1100 722
f 720 722 1100
f 720 1100 1102
f 718 720 1102
f 718 1102 1104
f 716 718 1104
f 716 1104 1106
f 714 716 1106
f 714 1106 1108
f 712 714 1108
f 712 1108 1110
f 710 712 1110
f 710 1110 1112
f 708 710 1112
f 708 1112 1114
f 706 708 1114
f 706 1114 1116
f 704 706 1116
f 704 1116 1118
f 702 704 1118
f 702 1118 1120
f 700 702 1120
f 700 1120 1122
f 698 700 1122
f 698 1122 1124
f 696 698 1124
f 696 1124 1126
f 694 696 1126
f 694 1126 1128
f 692 694 1128
f 692 1128 1130
f 692 1130 1132
f 692 1132 690
f 690 1132 1134
f 690 1134 688
f 688 1134 1136
f 688 1136 686
f 686 1136 1138
f 686 1138 684
f 684 1138 1140
f 684 1140 1142
f 682 684 1142
f 682 1142 1144
f 680 682 1144
f 680 1144 1146
f 678 680 1146
f 678 1146 1148
f 676 678 1148
f 676 1148 1150
f 674 676 1150
f 674 1150 672
f 672 1150 1152
f 672 1152 668
f 668 1152 1154
f 668 1154 669
f 669 1154 1156
f 669 1156 656
f 656 1156 1158
f 656 1158 657
f 864 866 980
f 864 980 982
f 862 864 982
f 862 982 860
f 860 982 984
f 860 984 858
f 856 858 984
f 856 984 854
f 854 984 986
f 854 986 852
f 850 852 986
f 850 986 988
f 848 850 988
f 848 988 846
f 846 988 990
f 846 990 844
f 844 990 992
f 844 992 842
f 840 842 992
f 840 992 994
f 838 840 994
f 838 994 996
f 836 838 996
f 836 996 834
f 834 996 998
f 834 998 832
f 832 998 1000
f 832 1000 830
f 828 830 1000
f 828 1000 1002
f 826 828 1002
f 826 1002 824
f 824 1002 1004
f 824 1004 822
f 822 1004 1006
f 822 1006 820
f 818 820 1006
f 818 1006 1008
f 816 818 1008
f 816 1008 1010
f 814 816 1010
f 814 1010 812
f 812 1010 1012
f 812 1012 810
f 810 1012 1014
f 810 1014 808
f 806 808 1014
f 806 1014 1016
f 804 806 1016
f 804 1016 1018
f 802 804 1018
f 802 1018 1020
f 800 802 1020
f 800 1020 798
f 796 798 1020
f 796 1020 794
f 792 794 1020
f 792 1020 790
f 788 790 1020
f 788 1020 786
f 786 1020 1022
f 786 1022 1024
f 786 1024 1026
f 786 1026 1028
f 786 1028 1030
f 786 1030 1032
f 786 1032 1034
f 786 1034 784
f 980 866 868
f 980 868 870
f 978 980 870
f 978 870 872
f 978 872 874
f 978 874 976
f 976 874 876
f 976 876 878
f 974 976 878
f 974 878 880
f 974 880 882
f 974 882 972
f 972 882 884
f 972 884 886
f 970 972 886
f 970 886 888
f 970 888 890
f 970 890 968
f 968 890 892
f 968 892 894
f 966 968 894
f 966 894 896
f 964 966 896
f 964 896 898
f 962 964 898
f 962 898 900
f 962 900 902
f 962 902 960
f 960 902 904
f 960 904 958
f 958 904 906
f 958 906 956
f 956 906 908
f 956 908 910
f 954 956 910
f 954 910 912
f 952 954 912
f 952 912 914
f 952 914 916
f 952 916 950
f 950 916 918
f 950 918 920
f 948 950 920
f 948 920 922
f 946 948 922
f 946 922 924
f 946 924 926
f 946 926 942
f 942 926 928
f 942 928 930
f 943 942 930
f 943 930 932
f 664 943 932
f 664 932 934
f 664 934 936
f 664 936 665
f 665 936 938
f 665 938 1048
f 1048 938 940
f 1048 940 1046
f 1046 940 661
f 1046 661 1044
f 1044 661 660
f 1044 660 1042
f 1042 660 779
f 1042 779 1040
f 1040 779 778
f 1040 778 1038
f 1038 778 782
f 1038 782 1036
f 1036 782 784
f 1036 784 1034
f 1160 1161 1162
f 1163 1164 1162
f 1165 1166 1167
f 1168 1169 1167
f 1164 1170 1160
f 1164 1160 1162
f 1169 1171 1165
f 1169 1165 1167
f 1172 1173 1174
f 1175 1176 1174
f 1177 1178 1179
f 1180 1181 1179
f 1176 1182 1172
f 1176 1172 1174
f 1181 1183 1177
f 1181 1177 1179
f 1184 1185 1186
f 1184 1186 1187
f 1188 1189 1190
f 1188 1190 1191
f 1185 1188 1191
f 1185 1191 1186
f 1189 1192 1193
f 1189 1193 1190
f 1194 1184 1187
f 1194 1187 1195
f 1192 1194 1195
f 1192 1195 1193
f 1187 1186 1196
f 1187 1196 1197
f 1186 1191 1198
f 1186 1198 1196
f 1191 1190 1199
f 1191 1199 1198
f 1190 1193 1200
f 1190 1200 1199
f 1193 1195 1201
f 1193 1201 1200
f 1195 1187 1197
f 1195 1197 1201
f 1162 1161 1202
f 1162 1202 1203
f 1161 1160 1184
f 1161 1184 1202
f 1160 1170 1185
f 1160 1185 1184
f 1170 1164 1204
f 1170 1204 1185
f 1164 1163 1205
f 1164 1205 1204
f 1163 1162 1203
f 1163 1203 1205
f 1203 1202 1206
f 1203 1206 1207
f 1208 1209 1207
f 1208 1207 1206
f 1202 1184 1194
f 1202 1194 1206
f 1192 1208 1206
f 1192 1206 1194
f 1197 1196 1198
f 1197 1198 1201
f 1199 1200 1201
f 1199 1201 1198
f 1185 1204 1210
f 1185 1210 1188
f 1211 1189 1188
f 1211 1188 1210
f 1204 1205 1212
f 1204 1212 1210
f 1213 1211 1210
f 1213 1210 1212
f 1205 1203 1207
f 1205 1207 1212
f 1209 1213 1212
f 1209 1212 1207
f 1209 1208 1169
f 1209 1169 1168
f 1208 1192 1171
f 1208 1171 1169
f 1192 1189 1165
f 1192 1165 1171
f 1189 1211 1166
f 1189 1166 1165
f 1211 1213 1167
f 1211 1167 1166
f 1213 1209 1168
f 1213 1168 1167
f 1214 1215 1216
f 1214 1216 1217
f 1218 1219 1220
f 1218 1220 1221
f 1215 1218 1221
f 1215 1221 1216
f 1219 1222 1223
f 1219 1223 1220
f 1224 1214 1217
f 1224 1217 1225
f 1222 1224 1225
f 1222 1225 1223
f 1217 1216 1226
f 1217 1226 1227
f 1216 1221 1228
f 1216 1228 1226
f 1221 1220 1229
f 1221 1229 1228
f 1220 1223 1230
f 1220 1230 1229
f 1223 1225 1231
f 1223 1231 1230
f 1225 1217 1227
f 1225 1227 1231
f 1174 1173 1232
f 1174 1232 1233
f 1173 1172 1214
f 1173 1214 1232
f 1172 1182 1215
f 1172 1215 1214
f 1182 1176 1234
f 1182 1234 1215
f 1176 1175 1235
f 1176 1235 1234
f 1175 1174 1233
f 1175 1233 1235
f 1233 1232 1236
f 1233 1236 1237
f 1238 1239 1237
f 1238 1237 1236
f 1232 1214 1224
f 1232 1224 1236
f 1222 1238 1236
f 1222 1236 1224
f 1227 1226 1228
f 1227 1228 1231
f 1229 1230 1231
f 1229 1231 1228
f 1215 1234 1240
f 1215 1240 1218
f 1241 1219 1218
f 1241 1218 1240
f 1234 1235 1242
f 1234 1242 1240
f 1243 1241 1240
f 1243 1240 1242
f 1235 1233 1237
f 1235 1237 1242
f 1239 1243 1242
f 1239 1242 1237
f 1239 1238 1181
f 1239 1181 1180
f 1238 1222 1183
f 1238 1183 1181
f 1222 1219 1177
f 1222 1177 1183
f 1219 1241 1178
f 1219 1178 1177
f 1241 1243 1179
f 1241 1179 1178
f 1243 1239 1180
f 1243 1180 1179
f 314 313 312
f 312 311 314
f 490 489 488
f 488 487 490
f 305 307 484
f 484 485 305
f 312 313 487
f 487 488 312
f 316 317 500
f 500 501 316
f 332 335 505
f 505 506 332
f 358 359 627
f 627 626 358
f 458 459 297
f 297 298 458
f 473 475 653
f 653 654 473
f 303 304 486
f 486 482 303
f 310 309 479
f 479 480 310
f 308 306 481
f 481 483 308
f 314 311 489
f 489 490 314
f 319 315 502
f 502 494 319
f 326 325 491
f 491 492 326
f 324 320 493
f 493 498 324
f 322 323 495
f 495 496 322
f 318 321 497
f 497 499 318
f 330 331 511
f 511 510 330
f 328 329 507
f 507 508 328
f 333 327 509
f 509 512 333
f 336 334 503
f 503 504 336
f 362 360 628
f 628 630 362
f 361 363 608
f 608 629 361
f 462 456 299
f 299 642 462
f 290 461 643
f 643 641 290
f 460 289 295
f 295 296 460
f 455 286 635
f 635 647 455
f 470 457 300
f 300 302 470
f 471 472 655
f 655 651 471
f 478 477 648
f 648 649 478
f 476 474 650
f 650 652 476
f 304 305 485
f 485 486 304
f 309 303 482
f 482 479 309
f 306 310 480
f 480 481 306
f 307 308 483
f 483 484 307
f 311 312 488
f 488 489 311
f 313 314 490
f 490 487 313
f 315 316 501
f 501 502 315
f 325 319 494
f 494 491 325
f 320 326 492
f 492 493 320
f 323 324 498
f 498 495 323
f 321 322 496
f 496 497 321
f 317 318 499
f 499 500 317
f 331 332 506
f 506 511 331
f 329 330 510
f 510 507 329
f 327 328 508
f 508 509 327
f 334 333 512
f 512 503 334
f 335 336 504
f 504 505 335
f 360 357 625
f 625 628 360
f 364 362 630
f 630 601 364
f 359 361 629
f 629 627 359
f 456 458 298
f 298 299 456
f 461 462 642
f 642 643 461
f 289 290 641
f 641 295 289
f 459 460 296
f 296 297 459
f 457 455 647
f 647 300 457
f 472 473 654
f 654 655 472
f 477 471 651
f 651 648 477
f 474 478 649
f 649 650 474
f 475 476 652
f 652 653 475
f 765 764 763
f 763 762 765
f 769 768 767
f 767 766 769
f 773 772 771
f 771 770 773
f 777 776 775
f 775 774 777
f 764 761 760
f 760 763 764
f 768 765 762
f 762 767 768
f 772 769 766
f 766 771 772
f 1197 1196 1186
f 1186 1187 1197
f 1199 1200 1193
f 1193 1190 1199
f 1227 1226 1216
f 1216 1217 1227
f 1229 1230 1223
f 1223 1220 1229