# https://github.com/mikedh/trimesh
v 0.02689073 -0.01053972 0.02890879
v 0.02566092 -0.01619428 0.02930090
v 0.02507269 -0.01268946 0.02412338
v 0.01256773 0.03226245 0.01258392
v 0.01074018 0.03040674 0.00809443
v 0.00996822 0.03405520 0.01231313
v -0.00382998 -0.03106877 0.00812202
v -0.00210987 -0.03493518 0.01370484
v -0.00517566 -0.03433315 0.01410397
v 0.00167879 -0.04193761 0.02975688
v 0.00132488 -0.03973570 0.02402952
v 0.00458230 -0.03938699 0.02414432
v 0.00482251 -0.04135223 0.02961924
v 0.00507766 -0.04288397 0.03417593
v 0.00197362 -0.04359112 0.03435437
v 0.00526711 -0.04376848 0.03812576
v 0.00215014 -0.04444236 0.03819057
v 0.00111345 -0.03737880 0.01807641
v 0.00444495 -0.03676521 0.01782356
v 0.00088945 -0.03398335 0.01208193
v 0.00422280 -0.03339053 0.01179268
v 0.00057005 -0.03120022 0.00809181
v 0.00409535 -0.03053683 0.00808326
v 0.00845761 -0.04171634 0.03405965
v 0.00868503 -0.04259727 0.03808914
v 0.01226845 -0.03967709 0.03373431
v 0.01248001 -0.04048412 0.03799140
v 0.00814380 -0.04015161 0.02942927
v 0.01201507 -0.03794897 0.02935344
v 0.00792250 -0.03798408 0.02403379
v 0.01172407 -0.03570857 0.02413030
v 0.00766408 -0.03560590 0.01784387
v 0.01122434 -0.03329737 0.01783528
v 0.00720997 -0.03224709 0.01176676
v 0.01062716 -0.03001798 0.01164733
v 0.00674891 -0.02953253 0.00807188
v 0.00991540 -0.02778613 0.00807773
v 0.01576946 -0.03675524 0.03353070
v 0.01597868 -0.03750421 0.03790855
v 0.01976684 -0.03178871 0.03313664
v 0.02033688 -0.03226067 0.03782279
v 0.02247589 -0.02725606 0.03322344
v 0.02310759 -0.02777093 0.03779889
v 0.02491111 -0.02158276 0.03316625
v 0.02582373 -0.02172468 0.03766339
v 0.01525065 -0.03527821 0.02930487
v 0.01906123 -0.03077146 0.02918983
v 0.02183907 -0.02597730 0.02899949
v 0.02418860 -0.02071691 0.02913400
v 0.01452182 -0.03342113 0.02423155
v 0.01387807 -0.03092147 0.01789960
v 0.01305623 -0.02802391 0.01187213
v 0.01820180 -0.02891431 0.02399174
v 0.02077575 -0.02431726 0.02407194
v 0.02319864 -0.01907843 0.02433142
v 0.01705731 -0.02650711 0.01788682
v 0.01955535 -0.02215837 0.01798917
v 0.02193673 -0.01681557 0.01813627
v 0.01589996 -0.02431242 0.01200658
v 0.01819506 -0.02024736 0.01222420
v 0.02044924 -0.01460171 0.01206022
v 0.01213722 -0.02569491 0.00808191
v 0.01489228 -0.02236660 0.00811042
v 0.01695515 -0.01794602 0.00807559
v 0.01895632 -0.01201276 0.00804802
v 0.02656372 -0.01666549 0.03304453
v 0.02745235 -0.01685743 0.03761293
v 0.02786351 -0.01071498 0.03288973
v 0.02879831 -0.01034118 0.03755329
v 0.02870032 -0.00375791 0.03257302
v 0.02970251 -0.00345050 0.03743589
v 0.02909205 0.00286037 0.03236424
v 0.02999952 0.00321011 0.03737307
v 0.02873507 0.00960528 0.03228480
v 0.02975980 0.00990514 0.03736124
v 0.02747298 0.01751383 0.03224010
v 0.02858933 0.01792180 0.03735329
v 0.02572960 0.02316525 0.03187672
v 0.02687751 0.02364170 0.03721840
v 0.02350291 0.02819829 0.03175573
v 0.02444665 0.02926543 0.03713798
v 0.02024692 0.03356881 0.03148936
v 0.02118709 0.03483639 0.03704412
v 0.01661654 0.03791311 0.03139945
v 0.01759523 0.03930271 0.03701303
v 0.01266795 0.04145024 0.03143270
v 0.01326844 0.04310158 0.03701672
v 0.00826168 0.04382214 0.03147206
v 0.00890169 0.04563367 0.03702692
v 0.00345543 0.04503959 0.03144978
v 0.00367368 0.04723606 0.03699919
v -0.00099658 0.04536305 0.03160247
v -0.00081293 0.04770178 0.03704165
v -0.00510644 0.04484129 0.03179282
v -0.00525884 0.04697931 0.03710846
v -0.01018261 0.04241882 0.03228443
v -0.01039370 0.04465572 0.03729602
v -0.01416849 0.03922399 0.03251604
v -0.01436201 0.04135098 0.03738349
v -0.01734338 0.03579742 0.03273517
v -0.01754526 0.03802946 0.03746230
v -0.02036390 0.03155839 0.03314472
v -0.02090572 0.03340983 0.03758437
v -0.02346269 0.02571882 0.03359758
v -0.02405121 0.02765508 0.03773369
v -0.02565276 0.01948516 0.03378050
v -0.02652185 0.02062087 0.03777811
v -0.02721908 0.01279051 0.03369314
v -0.02799608 0.01392747 0.03774545
v -0.02795540 0.00724090 0.03343742
v -0.02871217 0.00837431 0.03763804
v -0.02833129 -0.00019429 0.03329079
v -0.02925682 0.00104248 0.03757490
v -0.02781660 -0.00723514 0.03339938
v -0.02878768 -0.00687991 0.03767378
v -0.02636081 -0.01461775 0.03372220
v -0.02742301 -0.01426269 0.03778229
v -0.02467378 -0.02004761 0.03371268
v -0.02562663 -0.01971222 0.03778025
v -0.02228479 -0.02629778 0.03437579
v -0.02323794 -0.02594447 0.03803369
v -0.01997740 -0.03057341 0.03471184
v -0.02081055 -0.03012978 0.03815774
v -0.01713220 -0.03444643 0.03454704
v -0.01806056 -0.03417581 0.03811511
v -0.01379937 -0.03764146 0.03421343
v -0.01483839 -0.03753895 0.03797722
v -0.01067617 -0.03995243 0.03412013
v -0.01102578 -0.04051386 0.03786256
v -0.00678760 -0.04219201 0.03405310
v -0.00725957 -0.04254820 0.03790087
v -0.00218096 -0.04346629 0.03431290
v -0.00282317 -0.04404378 0.03799575
v -0.00201362 -0.04173849 0.02960275
v -0.00652660 -0.04032193 0.02926860
v -0.01048624 -0.03817024 0.02943812
v -0.01341541 -0.03606748 0.02944652
v -0.01657434 -0.03289994 0.02952932
v -0.01916784 -0.02915395 0.02924754
v -0.02100517 -0.02576334 0.02940488
v -0.02379635 -0.01962983 0.02945577
v -0.02540834 -0.01409227 0.02934157
v -0.02678943 -0.00710433 0.02899750
v -0.02728598 -0.00030306 0.02878182
v -0.02694766 0.00728829 0.02863195
v -0.02627666 0.01178220 0.02849184
v -0.02472539 0.01889378 0.02872563
v -0.02263196 0.02454685 0.02847740
v -0.01961983 0.03044401 0.02835783
v -0.01678227 0.03458614 0.02833881
v -0.01387904 0.03764961 0.02808538
v -0.01014923 0.04067998 0.02785695
v -0.00522470 0.04282302 0.02749833
v -0.00095922 0.04377082 0.02730012
v 0.00346816 0.04335687 0.02729927
v 0.00799325 0.04221789 0.02718426
v 0.01232777 0.03994155 0.02721137
v 0.01613322 0.03668800 0.02733075
v 0.01967994 0.03231928 0.02752275
v 0.02271756 0.02744041 0.02763127
v 0.02470010 0.02294434 0.02781856
v 0.02636386 0.01708350 0.02767429
v 0.02782072 0.00937441 0.02790552
v 0.02806325 0.00247051 0.02812303
v 0.02757525 -0.00429364 0.02841248
v 0.02350235 -0.01214582 0.01847270
v 0.02653379 -0.00432148 0.02448622
v 0.02503352 -0.00410019 0.01864705
v 0.02181102 -0.00969281 0.01187466
v 0.02286199 -0.00353655 0.01159648
v 0.02001013 -0.00810007 0.00805273
v 0.02065334 -0.00228422 0.00802916
v 0.02703075 0.00231798 0.02425033
v 0.02681619 0.00919996 0.02438575
v 0.02541009 0.01665939 0.02416532
v 0.02373279 0.02230262 0.02418905
v 0.02175867 0.02654897 0.02381753
v 0.01874640 0.03157658 0.02350029
v 0.01511524 0.03568686 0.02303870
v 0.02554975 0.00212848 0.01882289
v 0.02529182 0.00910956 0.01892384
v 0.02401549 0.01589290 0.01877686
v 0.02209288 0.02160565 0.01856296
v 0.02328101 0.00221388 0.01188302
v 0.02282341 0.00855781 0.01172878
v 0.02197560 0.01514871 0.01261979
v 0.01984827 0.02080410 0.01207891
v 0.02114514 0.00251671 0.00804727
v 0.02072764 0.00800442 0.00804274
v 0.01978788 0.01429819 0.00806846
v 0.01802935 0.01996586 0.00807289
v 0.02039309 0.02542481 0.01886215
v 0.01720349 0.03057704 0.01876778
v 0.01411999 0.03439123 0.01890264
v 0.01801002 0.02457356 0.01199973
v 0.01581617 0.02425239 0.00807204
v 0.01518304 0.02911705 0.01238427
v 0.01360216 0.02750313 0.00808642
v 0.01157828 0.03859695 0.02306982
v 0.00747537 0.04078075 0.02291651
v 0.00306136 0.04175829 0.02287447
v 0.01111063 0.03689501 0.01880285
v 0.00679735 0.03909293 0.01860939
v 0.00252977 0.03998065 0.01839220
v 0.00607201 0.03617263 0.01243764
v 0.00161398 0.03724038 0.01256961
v -0.00107712 0.04193681 0.02286402
v -0.00540979 0.04081153 0.02285490
v -0.00981875 0.03875318 0.02314665
v -0.01346614 0.03569391 0.02336759
v -0.01635977 0.03258330 0.02373775
v -0.01896230 0.02847815 0.02380360
v -0.02176826 0.02317651 0.02398802
v -0.02376377 0.01771953 0.02436276
v -0.02527804 0.01124201 0.02416400
v -0.00123848 0.04016537 0.01871355
v -0.00184872 0.03750787 0.01304689
v -0.00501111 0.03937196 0.01889994
v -0.00941572 0.03709124 0.01891584
v -0.01300181 0.03406451 0.01872160
v -0.01595933 0.03072751 0.01919838
v -0.01847026 0.02707735 0.01940641
v -0.02070106 0.02247244 0.01962797
v -0.02244477 0.01743061 0.01900817
v -0.02398142 0.01104869 0.01905029
v -0.02585522 0.00678414 0.02442601
v -0.02429781 0.00609701 0.01903073
v -0.02605050 -0.00057573 0.02435709
v -0.02543547 -0.00676244 0.02432823
v -0.02425146 -0.01352580 0.02490149
v -0.02462887 -0.00033420 0.01923101
v -0.02415078 -0.00664174 0.01916805
v -0.02301421 -0.01280289 0.01949116
v -0.00157306 -0.03978953 0.02444681
v -0.00621919 -0.03853190 0.02437746
v -0.01001960 -0.03655015 0.02463020
v -0.01270250 -0.03462821 0.02483557
v -0.01606062 -0.03127920 0.02505769
v -0.01849801 -0.02799755 0.02497616
v -0.02036707 -0.02477750 0.02509502
v -0.02279835 -0.01890702 0.02555927
v -0.02133135 -0.01785130 0.01888647
v -0.01935785 -0.02292065 0.01915865
v -0.01751811 -0.02635819 0.01969029
v -0.01507647 -0.02951305 0.01933579
v -0.01199885 -0.03275084 0.01933667
v -0.00898188 -0.03476554 0.01897831
v -0.00557549 -0.03636372 0.01897506
v -0.00216065 -0.03729629 0.01864666
v 0.00576553 0.03323952 0.00809589
v 0.00151924 0.03414925 0.00809187
v -0.00234716 0.03384778 0.00808345
v -0.00487587 0.03690535 0.01344547
v -0.00910638 0.03466115 0.01353264
v -0.00479946 0.03335104 0.00809421
v -0.00844759 0.03139959 0.00812627
v -0.01241750 0.03186589 0.01364751
v -0.01504168 0.02880251 0.01365552
v -0.01749557 0.02528561 0.01386267
v -0.01978136 0.02063135 0.01392829
v -0.02148588 0.01593281 0.01396122
v -0.02267393 0.01000586 0.01390226
v -0.01120591 0.02907127 0.00813643
v -0.01357040 0.02645680 0.00812362
v -0.01614162 0.02287331 0.00813252
v -0.01829521 0.01878503 0.00814220
v -0.01994052 0.01387104 0.00816251
v -0.02092749 0.00827177 0.00817570
v -0.02307877 0.00518173 0.01375752
v -0.02124739 0.00414407 0.00817927
v -0.02305058 -0.00104764 0.01375798
v -0.02131737 -0.00109626 0.00820537
v -0.02265130 -0.00623857 0.01402934
v -0.02166247 -0.01187756 0.01409268
v -0.02010623 -0.01718193 0.01421276
v -0.02102504 -0.00554702 0.00820997
v -0.02005818 -0.01093068 0.00820181
v -0.01850672 -0.01616704 0.00820255
v -0.01833159 -0.02167898 0.01444084
v -0.01612603 -0.02547379 0.01444319
v -0.01374871 -0.02847548 0.01454082
v -0.01088452 -0.03109888 0.01446145
v -0.00796407 -0.03307962 0.01448405
v -0.00666426 -0.03014157 0.00813891
v -0.00995919 -0.02853792 0.00818569
v -0.01271037 -0.02638043 0.00823517
v -0.01510813 -0.02356828 0.00824313
v -0.01716969 -0.01979745 0.00822421
v 0.00039319 -0.02712089 0.00441348
v 0.00346345 -0.02654314 0.00440493
v 0.00577448 -0.02566848 0.00439355
v 0.00853225 -0.02414750 0.00439939
v 0.01046728 -0.02232621 0.00440357
v 0.01286672 -0.01942753 0.00443208
v 0.01466331 -0.01557755 0.00439726
v 0.01640617 -0.01041015 0.00436969
v 0.01732396 -0.00700252 0.00437440
v 0.01788414 -0.00193737 0.00435083
v 0.01831246 0.00224386 0.00436893
v 0.01794884 0.00702321 0.00436440
v 0.01713039 0.01250458 0.00439013
v 0.01559885 0.01744068 0.00439457
v 0.01367134 0.02117390 0.00439371
v 0.01174312 0.02400503 0.00440809
v 0.00925057 0.02653385 0.00441609
v 0.00491804 0.02900098 0.00441756
v 0.00121985 0.02979328 0.00441354
v -0.00214747 0.02953073 0.00440511
v -0.00428322 0.02909810 0.00441588
v -0.00746046 0.02739855 0.00444795
v -0.00986273 0.02537076 0.00445809
v -0.01192201 0.02309377 0.00444529
v -0.01416135 0.01997284 0.00445419
v -0.01603695 0.01641227 0.00446387
v -0.01746988 0.01213258 0.00448418
v -0.01832945 0.00725606 0.00449737
v -0.01860806 0.00366116 0.00450094
v -0.01866901 -0.00090275 0.00452703
v -0.01841441 -0.00477902 0.00453163
v -0.01757236 -0.00946775 0.00452347
v -0.01622116 -0.01402820 0.00452421
v -0.00343889 -0.02700642 0.00444369
v -0.00590731 -0.02619891 0.00446057
v -0.00877694 -0.02480226 0.00450737
v -0.01117300 -0.02292325 0.00455685
v -0.01326125 -0.02047409 0.00456480
v -0.01505671 -0.01719000 0.00454587
v 0.00008423 -0.01999482 0.00208949
v 0.00235958 -0.01956665 0.00208093
v 0.00407228 -0.01891845 0.00206954
v 0.00611604 -0.01779126 0.00207539
v 0.00755009 -0.01644151 0.00207957
v 0.00932829 -0.01429331 0.00210808
v 0.01065973 -0.01144012 0.00207325
v 0.01195136 -0.00761060 0.00204568
v 0.01263153 -0.00508521 0.00205039
v 0.01304667 -0.00133146 0.00202682
v 0.01336410 0.00176721 0.00204492
v 0.01309463 0.00530917 0.00204040
v 0.01248808 0.00937138 0.00206613
v 0.01135306 0.01302949 0.00207055
v 0.00992460 0.01579616 0.00206970
v 0.00849560 0.01789429 0.00208408
v 0.00664839 0.01976838 0.00209208
v 0.00343758 0.02159675 0.00209354
v 0.00069687 0.02218392 0.00208953
v -0.00179863 0.02198935 0.00208111
v -0.00338143 0.02166874 0.00209187
v -0.00573605 0.02040920 0.00212394
v -0.00751636 0.01890643 0.00213409
v -0.00904248 0.01721896 0.00212128
v -0.01070204 0.01490605 0.00213018
v -0.01209204 0.01226734 0.00213987
v -0.01315397 0.00909568 0.00216018
v -0.01379100 0.00548173 0.00217336
v -0.01399747 0.00281757 0.00217693
v -0.01404264 -0.00056471 0.00220303
v -0.01385396 -0.00343739 0.00220763
v -0.01322992 -0.00691218 0.00219947
v -0.01222855 -0.01029191 0.00220021
v -0.00275569 -0.01990998 0.00211969
v -0.00458502 -0.01931154 0.00213657
v -0.00671169 -0.01827650 0.00218337
v -0.00848739 -0.01688398 0.00223284
v -0.01003499 -0.01506891 0.00224079
v -0.01136559 -0.01263509 0.00222187
v -0.00013529 -0.01493142 0.00106411
v 0.00157524 -0.01460954 0.00105555
v 0.00286278 -0.01412224 0.00104417
v 0.00439922 -0.01327486 0.00105002
v 0.00547728 -0.01226017 0.00105421
v 0.00681408 -0.01064522 0.00108271
v 0.00781501 -0.00850029 0.00104788
v 0.00878601 -0.00562138 0.00102031
v 0.00929734 -0.00372289 0.00102502
v 0.00960943 -0.00090094 0.00100145
v 0.00984806 0.00142854 0.00101956
v 0.00964548 0.00409126 0.00101503
v 0.00918950 0.00714509 0.00104075
v 0.00833623 0.00989514 0.00104519
v 0.00726236 0.01197503 0.00104433
v 0.00618809 0.01355233 0.00105871
v 0.00479942 0.01496121 0.00106672
v 0.00238564 0.01633571 0.00106818
v 0.00032527 0.01677713 0.00106416
v -0.00155077 0.01663086 0.00105573
v -0.00274065 0.01638983 0.00106651
v -0.00451079 0.01544296 0.00109857
v -0.00584916 0.01431321 0.00110872
v -0.00699644 0.01304463 0.00109591
v -0.00824405 0.01130587 0.00110481
v -0.00928899 0.00932218 0.00111449
v -0.01008733 0.00693784 0.00113480
v -0.01056621 0.00422099 0.00114799
v -0.01072144 0.00221817 0.00115156
v -0.01075539 -0.00032453 0.00117767
v -0.01061355 -0.00248411 0.00118227
v -0.01014442 -0.00509633 0.00117410
v -0.00939163 -0.00763710 0.00117485
v -0.00227025 -0.01486764 0.00109431
v -0.00364548 -0.01441775 0.00111121
v -0.00524423 -0.01363963 0.00115799
v -0.00657915 -0.01259279 0.00120747
v -0.00774257 -0.01122829 0.00121542
v -0.00874287 -0.00939863 0.00119650
v -0.00047654 -0.00706035 0.00006265
v 0.00035598 -0.00690369 0.00005410
v 0.00098263 -0.00666652 0.00004271
v 0.00173041 -0.00625410 0.00004856
v 0.00225511 -0.00576024 0.00005274
v 0.00290573 -0.00497425 0.00008125
v 0.00339289 -0.00393031 0.00004643
v 0.00386547 -0.00252914 0.00001886
v 0.00411433 -0.00160513 0.00002357
v 0.00426624 -0.00023169 0.00000000
v 0.00438237 0.00090207 0.00001810
v 0.00428378 0.00219802 0.00001358
v 0.00406185 0.00368433 0.00003930
v 0.00364656 0.00502278 0.00004373
v 0.00312391 0.00603506 0.00004287
v 0.00260106 0.00680274 0.00005726
v 0.00192519 0.00748844 0.00006526
v 0.00075040 0.00815741 0.00006672
v -0.00025238 0.00837226 0.00006271
v -0.00116545 0.00830106 0.00005428
v -0.00174458 0.00818375 0.00006505
v -0.00260610 0.00772291 0.00009712
v -0.00325749 0.00717306 0.00010726
v -0.00381587 0.00655564 0.00009446
v -0.00442309 0.00570938 0.00010336
v -0.00493167 0.00474392 0.00011304
v -0.00532021 0.00358345 0.00013335
v -0.00555329 0.00226116 0.00014654
v -0.00562884 0.00128638 0.00015011
v -0.00564536 0.00004885 0.00017621
v -0.00557633 -0.00100222 0.00018080
v -0.00534800 -0.00227360 0.00017264
v -0.00498161 -0.00351019 0.00017338
v -0.00151563 -0.00702931 0.00009286
v -0.00218495 -0.00681035 0.00010974
v -0.00296307 -0.00643164 0.00015654
v -0.00361278 -0.00592214 0.00020602
v -0.00417902 -0.00525803 0.00021397
v -0.00466587 -0.00436753 0.00019504
v 0.00540033 -0.04497635 0.04075424
v 0.00219738 -0.04566883 0.04081905
v 0.00891253 -0.04377283 0.04071762
v 0.01281220 -0.04160140 0.04061988
v 0.01640737 -0.03853930 0.04053704
v 0.02088579 -0.03315111 0.04045127
v 0.02373293 -0.02853753 0.04042737
v 0.02652399 -0.02232449 0.04029187
v 0.02819754 -0.01732300 0.04024141
v 0.02958062 -0.01062699 0.04018177
v 0.03050977 -0.00354623 0.04006438
v 0.03081497 0.00329809 0.04000155
v 0.03056863 0.01017780 0.03998972
v 0.02936588 0.01841560 0.03998177
v 0.02760684 0.02429328 0.03984688
v 0.02510892 0.03007214 0.03976646
v 0.02175946 0.03579677 0.03967260
v 0.01806851 0.04038629 0.03964150
v 0.01362237 0.04428995 0.03964520
v 0.00913516 0.04689188 0.03965539
v 0.00376294 0.04853847 0.03962767
v -0.00084742 0.04901703 0.03967013
v -0.00541596 0.04827465 0.03973694
v -0.01069247 0.04588696 0.03992450
v -0.01477023 0.04249105 0.04001197
v -0.01804129 0.03907791 0.04009078
v -0.02149445 0.03433085 0.04021285
v -0.02472672 0.02841737 0.04036217
v -0.02726551 0.02118912 0.04040658
v -0.02878040 0.01431109 0.04037393
v -0.02951623 0.00860475 0.04026652
v -0.03007591 0.00107068 0.04020338
v -0.02959383 -0.00707025 0.04030226
v -0.02819152 -0.01465667 0.04041077
v -0.02634558 -0.02025653 0.04040872
v -0.02389100 -0.02666068 0.04066217
v -0.02139666 -0.03096145 0.04078622
v -0.01857082 -0.03511909 0.04074359
v -0.01525976 -0.03857499 0.04060570
v -0.01134198 -0.04163196 0.04049104
v -0.00747188 -0.04372241 0.04052935
v -0.00291310 -0.04525925 0.04062423
v 0.00528425 -0.04392397 0.04233128
v 0.00516818 -0.04287159 0.04300315
v 0.00211506 -0.04353167 0.04306796
v 0.00215622 -0.04460026 0.04239609
v 0.00871431 -0.04274860 0.04229466
v 0.00851610 -0.04172437 0.04296652
v 0.01252278 -0.04062795 0.04219692
v 0.01223335 -0.03965451 0.04286879
v 0.01603386 -0.03763746 0.04211408
v 0.01566036 -0.03673563 0.04278594
v 0.02040754 -0.03237530 0.04202830
v 0.01992929 -0.03159949 0.04270017
v 0.02318810 -0.02786961 0.04200442
v 0.02264326 -0.02720170 0.04267628
v 0.02591387 -0.02180190 0.04186890
v 0.02530376 -0.02127930 0.04254077
v 0.02754828 -0.01691737 0.04181845
v 0.02689903 -0.01651175 0.04249032
v 0.02889902 -0.01037798 0.04175881
v 0.02821742 -0.01012896 0.04243068
v 0.02980644 -0.00346282 0.04164142
v 0.02910310 -0.00337940 0.04231328
v 0.03010449 0.00322144 0.04157858
v 0.02939403 0.00314477 0.04225044
v 0.02986392 0.00994024 0.04156676
v 0.02915921 0.00970268 0.04223862
v 0.02868930 0.01798537 0.04155880
v 0.02801272 0.01755514 0.04223067
v 0.02697140 0.02372557 0.04142391
v 0.02633596 0.02315788 0.04209578
v 0.02453191 0.02936928 0.04134350
v 0.02395489 0.02866644 0.04201536
v 0.02126078 0.03496003 0.04124964
v 0.02076210 0.03412329 0.04192150
v 0.01765616 0.03944221 0.04121854
v 0.01724380 0.03849813 0.04189041
v 0.01331401 0.04325457 0.04122224
v 0.01300563 0.04221920 0.04189411
v 0.00893174 0.04579565 0.04123243
v 0.00872832 0.04469942 0.04190430
v 0.00368517 0.04740373 0.04120471
v 0.00360739 0.04626899 0.04187658
v -0.00081737 0.04787110 0.04124718
v -0.00078732 0.04672516 0.04191904
v -0.00527907 0.04714608 0.04131398
v -0.00514217 0.04601750 0.04198585
v -0.01043217 0.04481423 0.04150154
v -0.01017186 0.04374149 0.04217341
v -0.01441456 0.04149775 0.04158900
v -0.01405888 0.04050444 0.04226087
v -0.01760911 0.03816443 0.04166782
v -0.01717694 0.03725095 0.04233969
v -0.02098151 0.03352840 0.04178989
v -0.02046857 0.03272594 0.04246175
v -0.02413818 0.02775321 0.04193920
v -0.02354964 0.02708906 0.04261107
v -0.02661759 0.02069402 0.04198362
v -0.02596967 0.02019893 0.04265548
v -0.02809705 0.01397685 0.04195096
v -0.02741370 0.01364262 0.04262283
v -0.02881568 0.00840398 0.04184356
v -0.02811513 0.00820320 0.04251543
v -0.02936226 0.00104612 0.04178042
v -0.02864862 0.00102155 0.04245229
v -0.02889145 -0.00690441 0.04187930
v -0.02818908 -0.00673859 0.04255117
v -0.02752194 -0.01431340 0.04198781
v -0.02685237 -0.01397014 0.04265967
v -0.02571919 -0.01978230 0.04198576
v -0.02509278 -0.01930807 0.04265762
v -0.02332201 -0.02603667 0.04223920
v -0.02275302 -0.02541266 0.04291107
v -0.02088600 -0.03023685 0.04236325
v -0.02037535 -0.02951225 0.04303511
v -0.01812625 -0.03429724 0.04232063
v -0.01768169 -0.03347541 0.04299250
v -0.01489263 -0.03767232 0.04218274
v -0.01452551 -0.03676965 0.04285460
v -0.01106649 -0.04065780 0.04206808
v -0.01079099 -0.03968364 0.04273995
v -0.00728690 -0.04269936 0.04210638
v -0.00710192 -0.04167630 0.04277824
v -0.00283474 -0.04420026 0.04220127
v -0.00275638 -0.04314126 0.04287313
v 0.00207390 -0.04246310 0.04283464
v 0.00505211 -0.04181921 0.04276985
v 0.00436493 -0.03692724 0.02689614
v 0.00175011 -0.03749257 0.02696095
v 0.00831788 -0.04070014 0.04273322
v 0.00723222 -0.03594472 0.02685952
v 0.01194393 -0.03868106 0.04263549
v 0.01041583 -0.03417200 0.02676179
v 0.01528686 -0.03583381 0.04255264
v 0.01335086 -0.03167215 0.02667894
v 0.01945105 -0.03082368 0.04246687
v 0.01700694 -0.02727336 0.02659317
v 0.02209843 -0.02653379 0.04244298
v 0.01933130 -0.02350692 0.02656929
v 0.02469365 -0.02075669 0.04230746
v 0.02160986 -0.01843473 0.02643377
v 0.02624978 -0.01610612 0.04225701
v 0.02297611 -0.01435160 0.02638331
v 0.02753581 -0.00987995 0.04219737
v 0.02410523 -0.00888512 0.02632367
v 0.02839977 -0.00329599 0.04207997
v 0.02486376 -0.00310453 0.02620628
v 0.02868355 0.00306811 0.04201714
v 0.02511293 0.00248304 0.02614345
v 0.02845451 0.00946511 0.04200532
v 0.02491182 0.00809949 0.02613162
v 0.02733614 0.01712491 0.04199737
v 0.02392992 0.01482466 0.02612367
v 0.02570052 0.02259018 0.04186247
v 0.02249387 0.01962307 0.02598878
v 0.02337787 0.02796358 0.04178205
v 0.02045462 0.02434082 0.02590836
v 0.02026342 0.03328655 0.04168819
v 0.01772019 0.02901429 0.02581450
v 0.01683144 0.03755405 0.04165711
v 0.01470698 0.03276109 0.02578341
v 0.01269727 0.04118382 0.04166080
v 0.01107725 0.03594795 0.02578710
v 0.00852490 0.04360319 0.04167099
v 0.00741398 0.03807211 0.02579730
v 0.00352961 0.04513424 0.04164328
v 0.00302820 0.03941636 0.02576958
v -0.00075727 0.04557923 0.04168573
v -0.00073561 0.03980704 0.02581204
v -0.00500527 0.04488893 0.04175255
v -0.00446527 0.03920098 0.02587885
v -0.00991155 0.04266876 0.04194010
v -0.00877290 0.03725171 0.02606640
v -0.01370321 0.03951113 0.04202757
v -0.01210191 0.03447937 0.02615387
v -0.01674476 0.03633748 0.04210638
v -0.01477233 0.03169295 0.02623268
v -0.01995563 0.03192348 0.04222845
v -0.01759142 0.02781754 0.02635476
v -0.02296110 0.02642491 0.04237776
v -0.02023017 0.02298990 0.02650407
v -0.02532176 0.01970383 0.04242218
v -0.02230279 0.01708891 0.02654849
v -0.02673036 0.01330839 0.04238952
v -0.02353952 0.01147382 0.02651583
v -0.02741457 0.00800243 0.04228212
v -0.02414024 0.00681528 0.02640842
v -0.02793497 0.00099697 0.04221899
v -0.02459715 0.00066462 0.02634529
v -0.02748672 -0.00657275 0.04231786
v -0.02420359 -0.00598147 0.02644416
v -0.02618280 -0.01362688 0.04242636
v -0.02305877 -0.01217487 0.02655267
v -0.02446639 -0.01883383 0.04242432
v -0.02155179 -0.01674649 0.02655063
v -0.02218403 -0.02478865 0.04267776
v -0.01954792 -0.02197470 0.02680407
v -0.01986469 -0.02878765 0.04280181
v -0.01751158 -0.02548576 0.02692812
v -0.01723712 -0.03265357 0.04275920
v -0.01520462 -0.02887997 0.02688549
v -0.01415838 -0.03586699 0.04262129
v -0.01250155 -0.03170129 0.02674760
v -0.01051549 -0.03870948 0.04250665
v -0.00930315 -0.03419695 0.02663295
v -0.00691694 -0.04065325 0.04254494
v -0.00614368 -0.03590354 0.02667125
v -0.00267802 -0.04208227 0.04263983
v -0.00242199 -0.03715820 0.02676614
v 0.00367728 -0.03069257 0.01228734
v 0.00150625 -0.03116195 0.01235215
v 0.00605792 -0.02987680 0.01225072
v 0.00870120 -0.02840496 0.01215298
v 0.01113808 -0.02632939 0.01207014
v 0.01417364 -0.02267718 0.01198436
v 0.01610350 -0.01954999 0.01196047
v 0.01799534 -0.01533867 0.01182496
v 0.01912970 -0.01194855 0.01177451
v 0.02006718 -0.00740986 0.01171487
v 0.02069698 -0.00261037 0.01159748
v 0.02090385 0.00202886 0.01153464
v 0.02073688 0.00669207 0.01152282
v 0.01992163 0.01227582 0.01151486
v 0.01872931 0.01625983 0.01137997
v 0.01703617 0.02017686 0.01129956
v 0.01476584 0.02405714 0.01120570
v 0.01226404 0.02716801 0.01117460
v 0.00925035 0.02981400 0.01117830
v 0.00620883 0.03157764 0.01118849
v 0.00256742 0.03269374 0.01116077
v -0.00055758 0.03301811 0.01120324
v -0.00365424 0.03251491 0.01127004
v -0.00723076 0.03089648 0.01145760
v -0.00999475 0.02859467 0.01154507
v -0.01221195 0.02628117 0.01162388
v -0.01455257 0.02306351 0.01174595
v -0.01674346 0.01905523 0.01189526
v -0.01846431 0.01415577 0.01193969
v -0.01949113 0.00949370 0.01190702
v -0.01998990 0.00562582 0.01179962
v -0.02036926 0.00051907 0.01173648
v -0.02004250 -0.00499902 0.01183536
v -0.01909198 -0.01014126 0.01194387
v -0.01784077 -0.01393696 0.01194182
v -0.01617700 -0.01827783 0.01219526
v -0.01448628 -0.02119298 0.01231931
v -0.01257087 -0.02401111 0.01227669
v -0.01032657 -0.02635359 0.01213880
v -0.00767101 -0.02842568 0.01202414
v -0.00504778 -0.02984262 0.01206244
v -0.00195775 -0.03088433 0.01215733
v 0.00296637 -0.02424706 0.00836486
v 0.00125415 -0.02461725 0.00842967
v 0.00484391 -0.02360369 0.00832824
v 0.00692858 -0.02244289 0.00823051
v 0.00885047 -0.02080596 0.00814767
v 0.01124453 -0.01792556 0.00806189
v 0.01276655 -0.01545925 0.00803801
v 0.01425858 -0.01213791 0.00790249
v 0.01515322 -0.00946423 0.00785203
v 0.01589259 -0.00588470 0.00779239
v 0.01638928 -0.00209949 0.00767500
v 0.01655244 0.00155933 0.00761217
v 0.01642075 0.00523706 0.00760034
v 0.01577779 0.00964079 0.00759240
v 0.01483744 0.01278286 0.00745750
v 0.01350212 0.01587211 0.00737708
v 0.01171157 0.01893236 0.00728322
v 0.00973849 0.02138581 0.00725213
v 0.00736168 0.02347262 0.00725582
v 0.00496292 0.02486355 0.00726602
v 0.00209106 0.02574377 0.00723830
v -0.00037353 0.02599960 0.00728076
v -0.00281577 0.02560274 0.00734757
v -0.00563647 0.02432634 0.00753512
v -0.00781634 0.02251097 0.00762260
v -0.00956498 0.02068638 0.00770140
v -0.01141095 0.01814871 0.00782348
v -0.01313884 0.01498750 0.00797279
v -0.01449602 0.01112345 0.00801721
v -0.01530585 0.00744661 0.00798455
v -0.01569921 0.00439615 0.00787714
v -0.01599840 0.00036860 0.00781401
v -0.01574069 -0.00398334 0.00791288
v -0.01499105 -0.00803887 0.00802139
v -0.01400426 -0.01103242 0.00801935
v -0.01269209 -0.01445593 0.00827279
v -0.01135868 -0.01675502 0.00839684
v -0.00984805 -0.01897760 0.00835421
v -0.00807803 -0.02082504 0.00821632
v -0.00598368 -0.02245923 0.00810167
v -0.00391482 -0.02357673 0.00813997
v -0.00147780 -0.02439829 0.00823486
v 0.00207240 -0.01614179 0.00620659
v 0.00093712 -0.01638724 0.00627140
v 0.00331728 -0.01571521 0.00616996
v 0.00469950 -0.01494556 0.00607224
v 0.00597380 -0.01386021 0.00598939
v 0.00756115 -0.01195039 0.00590361
v 0.00857031 -0.01031512 0.00587973
v 0.00955959 -0.00811293 0.00574421
v 0.01015277 -0.00634018 0.00569376
v 0.01064300 -0.00396681 0.00563412
v 0.01097233 -0.00145706 0.00551673
v 0.01108050 0.00096889 0.00545389
v 0.01099319 0.00340737 0.00544207
v 0.01056688 0.00632722 0.00543412
v 0.00994340 0.00841055 0.00529922
v 0.00905802 0.01045883 0.00521881
v 0.00787082 0.01248791 0.00512495
v 0.00656258 0.01411465 0.00509385
v 0.00498666 0.01549828 0.00509755
v 0.00339619 0.01642052 0.00510774
v 0.00149203 0.01700416 0.00508002
v -0.00014209 0.01717377 0.00512249
v -0.00176140 0.01691064 0.00518929
v -0.00363163 0.01606434 0.00537685
v -0.00507698 0.01486068 0.00546431
v -0.00623640 0.01365090 0.00554313
v -0.00746035 0.01196832 0.00566520
v -0.00860601 0.00987231 0.00581451
v -0.00950588 0.00731029 0.00585893
v -0.01004283 0.00487240 0.00582627
v -0.01030364 0.00284981 0.00571887
v -0.01050202 0.00017939 0.00565573
v -0.01033114 -0.00270613 0.00575461
v -0.00983410 -0.00539510 0.00586311
v -0.00917982 -0.00737996 0.00586107
v -0.00830980 -0.00964988 0.00611451
v -0.00742569 -0.01117427 0.00623856
v -0.00642408 -0.01264793 0.00619594
v -0.00525049 -0.01387286 0.00605805
v -0.00386185 -0.01495639 0.00594339
v -0.00249011 -0.01569733 0.00598169
v -0.00087427 -0.01624206 0.00607658
v 0.00112192 -0.00752421 0.00620659
v 0.00060006 -0.00763704 0.00627140
v 0.00169416 -0.00732813 0.00616996
v 0.00232953 -0.00697434 0.00607224
v 0.00291529 -0.00647542 0.00598939
v 0.00364496 -0.00559753 0.00590361
v 0.00410884 -0.00484584 0.00587973
v 0.00456359 -0.00383356 0.00574421
v 0.00483626 -0.00301866 0.00569376
v 0.00506160 -0.00192769 0.00563412
v 0.00521299 -0.00077401 0.00551673
v 0.00526271 0.00034113 0.00545389
v 0.00522258 0.00146204 0.00544207
v 0.00502661 0.00280422 0.00543412
v 0.00474002 0.00376186 0.00529922
v 0.00433303 0.00470341 0.00521881
v 0.00378731 0.00563613 0.00512495
v 0.00318594 0.00638390 0.00509385
v 0.00246153 0.00701992 0.00509755
v 0.00173043 0.00744385 0.00510774
v 0.00085513 0.00771213 0.00508002
v 0.00010397 0.00779010 0.00512249
v -0.00064038 0.00766914 0.00518929
v -0.00150008 0.00728012 0.00537685
v -0.00216447 0.00672683 0.00546431
v -0.00269742 0.00617072 0.00554313
v -0.00326005 0.00539728 0.00566520
v -0.00378668 0.00443380 0.00581451
v -0.00420032 0.00325610 0.00585893
v -0.00444714 0.00213547 0.00582627
v -0.00456703 0.00120574 0.00571887
v -0.00465822 -0.00002179 0.00565573
v -0.00457967 -0.00134819 0.00575461
v -0.00435120 -0.00258424 0.00586311
v -0.00405044 -0.00349662 0.00586107
v -0.00365051 -0.00454005 0.00611451
v -0.00324411 -0.00524077 0.00623856
v -0.00278370 -0.00591817 0.00619594
v -0.00224423 -0.00648124 0.00605805
v -0.00160590 -0.00697931 0.00594339
v -0.00097535 -0.00731991 0.00598169
v -0.00023259 -0.00757031 0.00607658
f 1 2 3
f 4 5 6
f 7 8 9
f 10 11 12
f 10 12 13
f 14 15 10
f 14 10 13
f 16 17 15
f 16 15 14
f 18 19 12
f 18 12 11
f 20 21 19
f 20 19 18
f 22 23 21
f 22 21 20
f 24 25 16
f 24 16 14
f 26 27 25
f 26 25 24
f 24 14 13
f 24 13 28
f 29 26 24
f 29 24 28
f 28 13 12
f 28 12 30
f 31 29 28
f 31 28 30
f 30 12 19
f 30 19 32
f 33 31 30
f 33 30 32
f 32 19 21
f 32 21 34
f 35 33 32
f 35 32 34
f 34 21 23
f 34 23 36
f 37 35 34
f 37 34 36
f 38 39 27
f 38 27 26
f 40 41 39
f 40 39 38
f 42 43 41
f 42 41 40
f 44 45 43
f 44 43 42
f 38 26 29
f 38 29 46
f 47 40 38
f 47 38 46
f 48 42 40
f 48 40 47
f 49 44 42
f 49 42 48
f 46 29 31
f 46 31 50
f 50 31 33
f 50 33 51
f 51 33 35
f 51 35 52
f 53 47 46
f 53 46 50
f 54 48 47
f 54 47 53
f 55 49 48
f 55 48 54
f 53 50 51
f 53 51 56
f 57 54 53
f 57 53 56
f 58 55 54
f 58 54 57
f 56 51 52
f 56 52 59
f 60 57 56
f 60 56 59
f 61 58 57
f 61 57 60
f 52 35 37
f 52 37 62
f 63 59 52
f 63 52 62
f 64 60 59
f 64 59 63
f 65 61 60
f 65 60 64
f 66 67 45
f 66 45 44
f 68 69 67
f 68 67 66
f 70 71 69
f 70 69 68
f 72 73 71
f 72 71 70
f 74 75 73
f 74 73 72
f 76 77 75
f 76 75 74
f 78 79 77
f 78 77 76
f 80 81 79
f 80 79 78
f 82 83 81
f 82 81 80
f 84 85 83
f 84 83 82
f 86 87 85
f 86 85 84
f 88 89 87
f 88 87 86
f 90 91 89
f 90 89 88
f 92 93 91
f 92 91 90
f 94 95 93
f 94 93 92
f 96 97 95
f 96 95 94
f 98 99 97
f 98 97 96
f 100 101 99
f 100 99 98
f 102 103 101
f 102 101 100
f 104 105 103
f 104 103 102
f 106 107 105
f 106 105 104
f 108 109 107
f 108 107 106
f 110 111 109
f 110 109 108
f 112 113 111
f 112 111 110
f 114 115 113
f 114 113 112
f 116 117 115
f 116 115 114
f 118 119 117
f 118 117 116
f 120 121 119
f 120 119 118
f 122 123 121
f 122 121 120
f 124 125 123
f 124 123 122
f 126 127 125
f 126 125 124
f 128 129 127
f 128 127 126
f 130 131 129
f 130 129 128
f 132 133 131
f 132 131 130
f 15 17 133
f 15 133 132
f 134 10 15
f 134 15 132
f 134 132 130
f 134 130 135
f 135 130 128
f 135 128 136
f 136 128 126
f 136 126 137
f 137 126 124
f 137 124 138
f 138 124 122
f 138 122 139
f 139 122 120
f 139 120 140
f 140 120 118
f 140 118 141
f 141 118 116
f 141 116 142
f 142 116 114
f 142 114 143
f 143 114 112
f 143 112 144
f 144 112 110
f 144 110 145
f 145 110 108
f 145 108 146
f 146 108 106
f 146 106 147
f 147 106 104
f 147 104 148
f 148 104 102
f 148 102 149
f 149 102 100
f 149 100 150
f 150 100 98
f 150 98 151
f 151 98 96
f 151 96 152
f 152 96 94
f 152 94 153
f 153 94 92
f 153 92 154
f 154 92 90
f 154 90 155
f 155 90 88
f 155 88 156
f 156 88 86
f 156 86 157
f 157 86 84
f 157 84 158
f 158 84 82
f 158 82 159
f 159 82 80
f 159 80 160
f 160 80 78
f 160 78 161
f 161 78 76
f 161 76 162
f 162 76 74
f 162 74 163
f 163 74 72
f 163 72 164
f 164 72 70
f 164 70 165
f 165 70 68
f 165 68 1
f 1 68 66
f 1 66 2
f 44 49 2
f 44 2 66
f 2 49 55
f 2 55 3
f 3 55 58
f 3 58 166
f 167 165 1
f 167 1 3
f 167 3 166
f 167 166 168
f 166 58 61
f 166 61 169
f 170 168 166
f 170 166 169
f 169 61 65
f 169 65 171
f 172 170 169
f 172 169 171
f 173 164 165
f 173 165 167
f 174 163 164
f 174 164 173
f 175 162 163
f 175 163 174
f 176 161 162
f 176 162 175
f 177 160 161
f 177 161 176
f 178 159 160
f 178 160 177
f 179 158 159
f 179 159 178
f 173 167 168
f 173 168 180
f 181 174 173
f 181 173 180
f 182 175 174
f 182 174 181
f 183 176 175
f 183 175 182
f 180 168 170
f 180 170 184
f 185 181 180
f 185 180 184
f 186 182 181
f 186 181 185
f 187 183 182
f 187 182 186
f 184 170 172
f 184 172 188
f 189 185 184
f 189 184 188
f 190 186 185
f 190 185 189
f 191 187 186
f 191 186 190
f 192 177 176
f 192 176 183
f 193 178 177
f 193 177 192
f 194 179 178
f 194 178 193
f 192 183 187
f 192 187 195
f 195 187 191
f 195 191 196
f 197 193 192
f 197 192 195
f 4 194 193
f 4 193 197
f 197 195 196
f 197 196 198
f 5 4 197
f 5 197 198
f 199 157 158
f 199 158 179
f 200 156 157
f 200 157 199
f 201 155 156
f 201 156 200
f 199 179 194
f 199 194 202
f 203 200 199
f 203 199 202
f 204 201 200
f 204 200 203
f 202 194 4
f 202 4 6
f 205 203 202
f 205 202 6
f 206 204 203
f 206 203 205
f 207 154 155
f 207 155 201
f 208 153 154
f 208 154 207
f 209 152 153
f 209 153 208
f 210 151 152
f 210 152 209
f 211 150 151
f 211 151 210
f 212 149 150
f 212 150 211
f 213 148 149
f 213 149 212
f 214 147 148
f 214 148 213
f 215 146 147
f 215 147 214
f 207 201 204
f 207 204 216
f 216 204 206
f 216 206 217
f 218 208 207
f 218 207 216
f 219 209 208
f 219 208 218
f 220 210 209
f 220 209 219
f 221 211 210
f 221 210 220
f 222 212 211
f 222 211 221
f 223 213 212
f 223 212 222
f 224 214 213
f 224 213 223
f 225 215 214
f 225 214 224
f 226 145 146
f 226 146 215
f 226 215 225
f 226 225 227
f 228 144 145
f 228 145 226
f 229 143 144
f 229 144 228
f 230 142 143
f 230 143 229
f 228 226 227
f 228 227 231
f 232 229 228
f 232 228 231
f 233 230 229
f 233 229 232
f 234 11 10
f 234 10 134
f 234 134 135
f 234 135 235
f 235 135 136
f 235 136 236
f 236 136 137
f 236 137 237
f 237 137 138
f 237 138 238
f 238 138 139
f 238 139 239
f 239 139 140
f 239 140 240
f 240 140 141
f 240 141 241
f 141 142 230
f 141 230 241
f 241 230 233
f 241 233 242
f 243 240 241
f 243 241 242
f 244 239 240
f 244 240 243
f 245 238 239
f 245 239 244
f 246 237 238
f 246 238 245
f 247 236 237
f 247 237 246
f 248 235 236
f 248 236 247
f 249 234 235
f 249 235 248
f 234 249 18
f 234 18 11
f 250 205 6
f 250 6 5
f 251 206 205
f 251 205 250
f 252 217 206
f 252 206 251
f 218 216 217
f 218 217 253
f 254 219 218
f 254 218 253
f 253 217 252
f 253 252 255
f 256 254 253
f 256 253 255
f 257 220 219
f 257 219 254
f 258 221 220
f 258 220 257
f 259 222 221
f 259 221 258
f 260 223 222
f 260 222 259
f 261 224 223
f 261 223 260
f 262 225 224
f 262 224 261
f 257 254 256
f 257 256 263
f 264 258 257
f 264 257 263
f 265 259 258
f 265 258 264
f 266 260 259
f 266 259 265
f 267 261 260
f 267 260 266
f 268 262 261
f 268 261 267
f 269 227 225
f 269 225 262
f 269 262 268
f 269 268 270
f 271 231 227
f 271 227 269
f 271 269 270
f 271 270 272
f 273 232 231
f 273 231 271
f 274 233 232
f 274 232 273
f 275 242 233
f 275 233 274
f 273 271 272
f 273 272 276
f 277 274 273
f 277 273 276
f 278 275 274
f 278 274 277
f 279 243 242
f 279 242 275
f 280 244 243
f 280 243 279
f 281 245 244
f 281 244 280
f 282 246 245
f 282 245 281
f 283 247 246
f 283 246 282
f 9 248 247
f 9 247 283
f 8 249 248
f 8 248 9
f 249 8 20
f 249 20 18
f 7 22 20
f 7 20 8
f 7 9 283
f 7 283 284
f 284 283 282
f 284 282 285
f 285 282 281
f 285 281 286
f 286 281 280
f 286 280 287
f 287 280 279
f 287 279 288
f 275 278 288
f 275 288 279
f 23 22 289
f 23 289 290
f 36 23 290
f 36 290 291
f 37 36 291
f 37 291 292
f 62 37 292
f 62 292 293
f 63 62 293
f 63 293 294
f 64 63 294
f 64 294 295
f 65 64 295
f 65 295 296
f 171 65 296
f 171 296 297
f 172 171 297
f 172 297 298
f 188 172 298
f 188 298 299
f 189 188 299
f 189 299 300
f 190 189 300
f 190 300 301
f 191 190 301
f 191 301 302
f 196 191 302
f 196 302 303
f 198 196 303
f 198 303 304
f 5 198 304
f 5 304 305
f 250 5 305
f 250 305 306
f 251 250 306
f 251 306 307
f 252 251 307
f 252 307 308
f 255 252 308
f 255 308 309
f 256 255 309
f 256 309 310
f 263 256 310
f 263 310 311
f 264 263 311
f 264 311 312
f 265 264 312
f 265 312 313
f 266 265 313
f 266 313 314
f 267 266 314
f 267 314 315
f 268 267 315
f 268 315 316
f 270 268 316
f 270 316 317
f 272 270 317
f 272 317 318
f 276 272 318
f 276 318 319
f 277 276 319
f 277 319 320
f 278 277 320
f 278 320 321
f 22 7 322
f 22 322 289
f 7 284 323
f 7 323 322
f 284 285 324
f 284 324 323
f 285 286 325
f 285 325 324
f 286 287 326
f 286 326 325
f 287 288 327
f 287 327 326
f 288 278 321
f 288 321 327
f 290 289 328
f 290 328 329
f 291 290 329
f 291 329 330
f 292 291 330
f 292 330 331
f 293 292 331
f 293 331 332
f 294 293 332
f 294 332 333
f 295 294 333
f 295 333 334
f 296 295 334
f 296 334 335
f 297 296 335
f 297 335 336
f 298 297 336
f 298 336 337
f 299 298 337
f 299 337 338
f 300 299 338
f 300 338 339
f 301 300 339
f 301 339 340
f 302 301 340
f 302 340 341
f 303 302 341
f 303 341 342
f 304 303 342
f 304 342 343
f 305 304 343
f 305 343 344
f 306 305 344
f 306 344 345
f 307 306 345
f 307 345 346
f 308 307 346
f 308 346 347
f 309 308 347
f 309 347 348
f 310 309 348
f 310 348 349
f 311 310 349
f 311 349 350
f 312 311 350
f 312 350 351
f 313 312 351
f 313 351 352
f 314 313 352
f 314 352 353
f 315 314 353
f 315 353 354
f 316 315 354
f 316 354 355
f 317 316 355
f 317 355 356
f 318 317 356
f 318 356 357
f 319 318 357
f 319 357 358
f 320 319 358
f 320 358 359
f 321 320 359
f 321 359 360
f 289 322 361
f 289 361 328
f 322 323 362
f 322 362 361
f 323 324 363
f 323 363 362
f 324 325 364
f 324 364 363
f 325 326 365
f 325 365 364
f 326 327 366
f 326 366 365
f 327 321 360
f 327 360 366
f 329 328 367
f 329 367 368
f 330 329 368
f 330 368 369
f 331 330 369
f 331 369 370
f 332 331 370
f 332 370 371
f 333 332 371
f 333 371 372
f 334 333 372
f 334 372 373
f 335 334 373
f 335 373 374
f 336 335 374
f 336 374 375
f 337 336 375
f 337 375 376
f 338 337 376
f 338 376 377
f 339 338 377
f 339 377 378
f 340 339 378
f 340 378 379
f 341 340 379
f 341 379 380
f 342 341 380
f 342 380 381
f 343 342 381
f 343 381 382
f 344 343 382
f 344 382 383
f 345 344 383
f 345 383 384
f 346 345 384
f 346 384 385
f 347 346 385
f 347 385 386
f 348 347 386
f 348 386 387
f 349 348 387
f 349 387 388
f 350 349 388
f 350 388 389
f 351 350 389
f 351 389 390
f 352 351 390
f 352 390 391
f 353 352 391
f 353 391 392
f 354 353 392
f 354 392 393
f 355 354 393
f 355 393 394
f 356 355 394
f 356 394 395
f 357 356 395
f 357 395 396
f 358 357 396
f 358 396 397
f 359 358 397
f 359 397 398
f 360 359 398
f 360 398 399
f 328 361 400
f 328 400 367
f 361 362 401
f 361 401 400
f 362 363 402
f 362 402 401
f 363 364 403
f 363 403 402
f 364 365 404
f 364 404 403
f 365 366 405
f 365 405 404
f 366 360 399
f 366 399 405
f 368 367 406
f 368 406 407
f 369 368 407
f 369 407 408
f 370 369 408
f 370 408 409
f 371 370 409
f 371 409 410
f 372 371 410
f 372 410 411
f 373 372 411
f 373 411 412
f 374 373 412
f 374 412 413
f 375 374 413
f 375 413 414
f 376 375 414
f 376 414 415
f 377 376 415
f 377 415 416
f 378 377 416
f 378 416 417
f 379 378 417
f 379 417 418
f 380 379 418
f 380 418 419
f 381 380 419
f 381 419 420
f 382 381 420
f 382 420 421
f 383 382 421
f 383 421 422
f 384 383 422
f 384 422 423
f 385 384 423
f 385 423 424
f 386 385 424
f 386 424 425
f 387 386 425
f 387 425 426
f 388 387 426
f 388 426 427
f 389 388 427
f 389 427 428
f 390 389 428
f 390 428 429
f 391 390 429
f 391 429 430
f 392 391 430
f 392 430 431
f 393 392 431
f 393 431 432
f 394 393 432
f 394 432 433
f 395 394 433
f 395 433 434
f 396 395 434
f 396 434 435
f 397 396 435
f 397 435 436
f 398 397 436
f 398 436 437
f 399 398 437
f 399 437 438
f 367 400 439
f 367 439 406
f 400 401 440
f 400 440 439
f 401 402 441
f 401 441 440
f 402 403 442
f 402 442 441
f 403 404 443
f 403 443 442
f 404 405 444
f 404 444 443
f 405 399 438
f 405 438 444
f 17 16 445
f 17 445 446
f 16 25 447
f 16 447 445
f 25 27 448
f 25 448 447
f 27 39 449
f 27 449 448
f 39 41 450
f 39 450 449
f 41 43 451
f 41 451 450
f 43 45 452
f 43 452 451
f 45 67 453
f 45 453 452
f 67 69 454
f 67 454 453
f 69 71 455
f 69 455 454
f 71 73 456
f 71 456 455
f 73 75 457
f 73 457 456
f 75 77 458
f 75 458 457
f 77 79 459
f 77 459 458
f 79 81 460
f 79 460 459
f 81 83 461
f 81 461 460
f 83 85 462
f 83 462 461
f 85 87 463
f 85 463 462
f 87 89 464
f 87 464 463
f 89 91 465
f 89 465 464
f 91 93 466
f 91 466 465
f 93 95 467
f 93 467 466
f 95 97 468
f 95 468 467
f 97 99 469
f 97 469 468
f 99 101 470
f 99 470 469
f 101 103 471
f 101 471 470
f 103 105 472
f 103 472 471
f 105 107 473
f 105 473 472
f 107 109 474
f 107 474 473
f 109 111 475
f 109 475 474
f 111 113 476
f 111 476 475
f 113 115 477
f 113 477 476
f 115 117 478
f 115 478 477
f 117 119 479
f 117 479 478
f 119 121 480
f 119 480 479
f 121 123 481
f 121 481 480
f 123 125 482
f 123 482 481
f 125 127 483
f 125 483 482
f 127 129 484
f 127 484 483
f 129 131 485
f 129 485 484
f 131 133 486
f 131 486 485
f 133 17 446
f 133 446 486
f 487 488 489
f 487 489 490
f 491 492 488
f 491 488 487
f 493 494 492
f 493 492 491
f 495 496 494
f 495 494 493
f 497 498 496
f 497 496 495
f 499 500 498
f 499 498 497
f 501 502 500
f 501 500 499
f 503 504 502
f 503 502 501
f 505 506 504
f 505 504 503
f 507 508 506
f 507 506 505
f 509 510 508
f 509 508 507
f 511 512 510
f 511 510 509
f 513 514 512
f 513 512 511
f 515 516 514
f 515 514 513
f 517 518 516
f 517 516 515
f 519 520 518
f 519 518 517
f 521 522 520
f 521 520 519
f 523 524 522
f 523 522 521
f 525 526 524
f 525 524 523
f 527 528 526
f 527 526 525
f 529 530 528
f 529 528 527
f 531 532 530
f 531 530 529
f 533 534 532
f 533 532 531
f 535 536 534
f 535 534 533
f 537 538 536
f 537 536 535
f 539 540 538
f 539 538 537
f 541 542 540
f 541 540 539
f 543 544 542
f 543 542 541
f 545 546 544
f 545 544 543
f 547 548 546
f 547 546 545
f 549 550 548
f 549 548 547
f 551 552 550
f 551 550 549
f 553 554 552
f 553 552 551
f 555 556 554
f 555 554 553
f 557 558 556
f 557 556 555
f 559 560 558
f 559 558 557
f 561 562 560
f 561 560 559
f 563 564 562
f 563 562 561
f 565 566 564
f 565 564 563
f 567 568 566
f 567 566 565
f 569 570 568
f 569 568 567
f 490 489 570
f 490 570 569
f 571 572 573
f 571 573 574
f 572 575 576
f 572 576 573
f 575 577 578
f 575 578 576
f 577 579 580
f 577 580 578
f 579 581 582
f 579 582 580
f 581 583 584
f 581 584 582
f 583 585 586
f 583 586 584
f 585 587 588
f 585 588 586
f 587 589 590
f 587 590 588
f 589 591 592
f 589 592 590
f 591 593 594
f 591 594 592
f 593 595 596
f 593 596 594
f 595 597 598
f 595 598 596
f 597 599 600
f 597 600 598
f 599 601 602
f 599 602 600
f 601 603 604
f 601 604 602
f 603 605 606
f 603 606 604
f 605 607 608
f 605 608 606
f 607 609 610
f 607 610 608
f 609 611 612
f 609 612 610
f 611 613 614
f 611 614 612
f 613 615 616
f 613 616 614
f 615 617 618
f 615 618 616
f 617 619 620
f 617 620 618
f 619 621 622
f 619 622 620
f 621 623 624
f 621 624 622
f 623 625 626
f 623 626 624
f 625 627 628
f 625 628 626
f 627 629 630
f 627 630 628
f 629 631 632
f 629 632 630
f 631 633 634
f 631 634 632
f 633 635 636
f 633 636 634
f 635 637 638
f 635 638 636
f 637 639 640
f 637 640 638
f 639 641 642
f 639 642 640
f 641 643 644
f 641 644 642
f 643 645 646
f 643 646 644
f 645 647 648
f 645 648 646
f 647 649 650
f 647 650 648
f 649 651 652
f 649 652 650
f 651 653 654
f 651 654 652
f 653 571 574
f 653 574 654
f 574 573 655
f 574 655 656
f 573 576 657
f 573 657 655
f 576 578 658
f 576 658 657
f 578 580 659
f 578 659 658
f 580 582 660
f 580 660 659
f 582 584 661
f 582 661 660
f 584 586 662
f 584 662 661
f 586 588 663
f 586 663 662
f 588 590 664
f 588 664 663
f 590 592 665
f 590 665 664
f 592 594 666
f 592 666 665
f 594 596 667
f 594 667 666
f 596 598 668
f 596 668 667
f 598 600 669
f 598 669 668
f 600 602 670
f 600 670 669
f 602 604 671
f 602 671 670
f 604 606 672
f 604 672 671
f 606 608 673
f 606 673 672
f 608 610 674
f 608 674 673
f 610 612 675
f 610 675 674
f 612 614 676
f 612 676 675
f 614 616 677
f 614 677 676
f 616 618 678
f 616 678 677
f 618 620 679
f 618 679 678
f 620 622 680
f 620 680 679
f 622 624 681
f 622 681 680
f 624 626 682
f 624 682 681
f 626 628 683
f 626 683 682
f 628 630 684
f 628 684 683
f 630 632 685
f 630 685 684
f 632 634 686
f 632 686 685
f 634 636 687
f 634 687 686
f 636 638 688
f 636 688 687
f 638 640 689
f 638 689 688
f 640 642 690
f 640 690 689
f 642 644 691
f 642 691 690
f 644 646 692
f 644 692 691
f 646 648 693
f 646 693 692
f 648 650 694
f 648 694 693
f 650 652 695
f 650 695 694
f 652 654 696
f 652 696 695
f 654 574 656
f 654 656 696
f 656 655 697
f 656 697 698
f 655 657 699
f 655 699 697
f 657 658 700
f 657 700 699
f 658 659 701
f 658 701 700
f 659 660 702
f 659 702 701
f 660 661 703
f 660 703 702
f 661 662 704
f 661 704 703
f 662 663 705
f 662 705 704
f 663 664 706
f 663 706 705
f 664 665 707
f 664 707 706
f 665 666 708
f 665 708 707
f 666 667 709
f 666 709 708
f 667 668 710
f 667 710 709
f 668 669 711
f 668 711 710
f 669 670 712
f 669 712 711
f 670 671 713
f 670 713 712
f 671 672 714
f 671 714 713
f 672 673 715
f 672 715 714
f 673 674 716
f 673 716 715
f 674 675 717
f 674 717 716
f 675 676 718
f 675 718 717
f 676 677 719
f 676 719 718
f 677 678 720
f 677 720 719
f 678 679 721
f 678 721 720
f 679 680 722
f 679 722 721
f 680 681 723
f 680 723 722
f 681 682 724
f 681 724 723
f 682 683 725
f 682 725 724
f 683 684 726
f 683 726 725
f 684 685 727
f 684 727 726
f 685 686 728
f 685 728 727
f 686 687 729
f 686 729 728
f 687 688 730
f 687 730 729
f 688 689 731
f 688 731 730
f 689 690 732
f 689 732 731
f 690 691 733
f 690 733 732
f 691 692 734
f 691 734 733
f 692 693 735
f 692 735 734
f 693 694 736
f 693 736 735
f 694 695 737
f 694 737 736
f 695 696 738
f 695 738 737
f 696 656 698
f 696 698 738
f 698 697 739
f 698 739 740
f 697 699 741
f 697 741 739
f 699 700 742
f 699 742 741
f 700 701 743
f 700 743 742
f 701 702 744
f 701 744 743
f 702 703 745
f 702 745 744
f 703 704 746
f 703 746 745
f 704 705 747
f 704 747 746
f 705 706 748
f 705 748 747
f 706 707 749
f 706 749 748
f 707 708 750
f 707 750 749
f 708 709 751
f 708 751 750
f 709 710 752
f 709 752 751
f 710 711 753
f 710 753 752
f 711 712 754
f 711 754 753
f 712 713 755
f 712 755 754
f 713 714 756
f 713 756 755
f 714 715 757
f 714 757 756
f 715 716 758
f 715 758 757
f 716 717 759
f 716 759 758
f 717 718 760
f 717 760 759
f 718 719 761
f 718 761 760
f 719 720 762
f 719 762 761
f 720 721 763
f 720 763 762
f 721 722 764
f 721 764 763
f 722 723 765
f 722 765 764
f 723 724 766
f 723 766 765
f 724 725 767
f 724 767 766
f 725 726 768
f 725 768 767
f 726 727 769
f 726 769 768
f 727 728 770
f 727 770 769
f 728 729 771
f 728 771 770
f 729 730 772
f 729 772 771
f 730 731 773
f 730 773 772
f 731 732 774
f 731 774 773
f 732 733 775
f 732 775 774
f 733 734 776
f 733 776 775
f 734 735 777
f 734 777 776
f 735 736 778
f 735 778 777
f 736 737 779
f 736 779 778
f 737 738 780
f 737 780 779
f 738 698 740
f 738 740 780
f 740 739 781
f 740 781 782
f 739 741 783
f 739 783 781
f 741 742 784
f 741 784 783
f 742 743 785
f 742 785 784
f 743 744 786
f 743 786 785
f 744 745 787
f 744 787 786
f 745 746 788
f 745 788 787
f 746 747 789
f 746 789 788
f 747 748 790
f 747 790 789
f 748 749 791
f 748 791 790
f 749 750 792
f 749 792 791
f 750 751 793
f 750 793 792
f 751 752 794
f 751 794 793
f 752 753 795
f 752 795 794
f 753 754 796
f 753 796 795
f 754 755 797
f 754 797 796
f 755 756 798
f 755 798 797
f 756 757 799
f 756 799 798
f 757 758 800
f 757 800 799
f 758 759 801
f 758 801 800
f 759 760 802
f 759 802 801
f 760 761 803
f 760 803 802
f 761 762 804
f 761 804 803
f 762 763 805
f 762 805 804
f 763 764 806
f 763 806 805
f 764 765 807
f 764 807 806
f 765 766 808
f 765 808 807
f 766 767 809
f 766 809 808
f 767 768 810
f 767 810 809
f 768 769 811
f 768 811 810
f 769 770 812
f 769 812 811
f 770 771 813
f 770 813 812
f 771 772 814
f 771 814 813
f 772 773 815
f 772 815 814
f 773 774 816
f 773 816 815
f 774 775 817
f 774 817 816
f 775 776 818
f 775 818 817
f 776 777 819
f 776 819 818
f 777 778 820
f 777 820 819
f 778 779 821
f 778 821 820
f 779 780 822
f 779 822 821
f 780 740 782
f 780 782 822
f 488 572 571
f 488 571 489
f 490 446 445
f 490 445 487
f 492 575 572
f 492 572 488
f 487 445 447
f 487 447 491
f 494 577 575
f 494 575 492
f 491 447 448
f 491 448 493
f 496 579 577
f 496 577 494
f 493 448 449
f 493 449 495
f 498 581 579
f 498 579 496
f 495 449 450
f 495 450 497
f 500 583 581
f 500 581 498
f 497 450 451
f 497 451 499
f 502 585 583
f 502 583 500
f 499 451 452
f 499 452 501
f 504 587 585
f 504 585 502
f 501 452 453
f 501 453 503
f 506 589 587
f 506 587 504
f 503 453 454
f 503 454 505
f 508 591 589
f 508 589 506
f 505 454 455
f 505 455 507
f 510 593 591
f 510 591 508
f 507 455 456
f 507 456 509
f 512 595 593
f 512 593 510
f 509 456 457
f 509 457 511
f 514 597 595
f 514 595 512
f 511 457 458
f 511 458 513
f 516 599 597
f 516 597 514
f 513 458 459
f 513 459 515
f 518 601 599
f 518 599 516
f 515 459 460
f 515 460 517
f 520 603 601
f 520 601 518
f 517 460 461
f 517 461 519
f 522 605 603
f 522 603 520
f 519 461 462
f 519 462 521
f 524 607 605
f 524 605 522
f 521 462 463
f 521 463 523
f 526 609 607
f 526 607 524
f 523 463 464
f 523 464 525
f 528 611 609
f 528 609 526
f 525 464 465
f 525 465 527
f 530 613 611
f 530 611 528
f 527 465 466
f 527 466 529
f 532 615 613
f 532 613 530
f 529 466 467
f 529 467 531
f 534 617 615
f 534 615 532
f 531 467 468
f 531 468 533
f 536 619 617
f 536 617 534
f 533 468 469
f 533 469 535
f 538 621 619
f 538 619 536
f 535 469 470
f 535 470 537
f 540 623 621
f 540 621 538
f 537 470 471
f 537 471 539
f 542 625 623
f 542 623 540
f 539 471 472
f 539 472 541
f 544 627 625
f 544 625 542
f 541 472 473
f 541 473 543
f 546 629 627
f 546 627 544
f 543 473 474
f 543 474 545
f 548 631 629
f 548 629 546
f 545 474 475
f 545 475 547
f 550 633 631
f 550 631 548
f 547 475 476
f 547 476 549
f 552 635 633
f 552 633 550
f 549 476 477
f 549 477 551
f 554 637 635
f 554 635 552
f 551 477 478
f 551 478 553
f 556 639 637
f 556 637 554
f 553 478 479
f 553 479 555
f 558 641 639
f 558 639 556
f 555 479 480
f 555 480 557
f 560 643 641
f 560 641 558
f 557 480 481
f 557 481 559
f 562 645 643
f 562 643 560
f 559 481 482
f 559 482 561
f 564 647 645
f 564 645 562
f 561 482 483
f 561 483 563
f 566 649 647
f 566 647 564
f 563 483 484
f 563 484 565
f 568 651 649
f 568 649 566
f 565 484 485
f 565 485 567
f 570 653 651
f 570 651 568
f 567 485 486
f 567 486 569
f 489 571 653
f 489 653 570
f 569 486 446
f 569 446 490
f 439 407 406
f 407 439 440
f 407 440 408
f 408 440 441
f 408 441 409
f 409 441 442
f 409 442 410
f 410 442 443
f 410 443 411
f 411 443 444
f 411 444 412
f 412 444 438
f 412 438 413
f 413 438 437
f 413 437 414
f 414 437 436
f 414 436 415
f 415 436 435
f 415 435 416
f 416 435 434
f 416 434 417
f 417 434 433
f 417 433 418
f 418 433 432
f 418 432 431
f 418 431 419
f 419 431 430
f 419 430 420
f 420 430 429
f 420 429 421
f 421 429 428
f 421 428 422
f 422 428 427
f 422 427 423
f 423 427 426
f 423 426 424
f 424 426 425
f 781 822 782
f 822 781 821
f 821 781 783
f 821 783 784
f 821 784 820
f 820 784 819
f 819 784 785
f 819 785 818
f 818 785 786
f 818 786 817
f 817 786 787
f 817 787 816
f 816 787 788
f 816 788 815
f 815 788 789
f 815 789 814
f 814 789 790
f 814 790 813
f 813 790 791
f 813 791 812
f 812 791 792
f 812 792 811
f 811 792 793
f 811 793 810
f 810 793 794
f 810 794 809
f 809 794 795
f 809 795 808
f 808 795 796
f 808 796 807
f 807 796 797
f 807 797 806
f 806 797 798
f 806 798 805
f 805 798 799
f 805 799 804
f 804 799 800
f 804 800 803
f 803 800 801
f 803 801 802
f 1 3 2
f 4 6 5
f 7 9 8
f 13 12 11
f 11 10 13
f 13 10 15
f 15 14 13
f 14 15 17
f 17 16 14
f 11 12 19
f 19 18 11
f 18 19 21
f 21 20 18
f 20 21 23
f 23 22 20
f 14 16 25
f 25 24 14
f 24 25 27
f 27 26 24
f 28 13 14
f 14 24 28
f 28 24 26
f 26 29 28
f 30 12 13
f 13 28 30
f 30 28 29
f 29 31 30
f 32 19 12
f 12 30 32
f 32 30 31
f 31 33 32
f 34 21 19
f 19 32 34
f 34 32 33
f 33 35 34
f 36 23 21
f 21 34 36
f 36 34 35
f 35 37 36
f 26 27 39
f 39 38 26
f 38 39 41
f 41 40 38
f 40 41 43
f 43 42 40
f 42 43 45
f 45 44 42
f 46 29 26
f 26 38 46
f 46 38 40
f 40 47 46
f 47 40 42
f 42 48 47
f 48 42 44
f 44 49 48
f 50 31 29
f 29 46 50
f 51 33 31
f 31 50 51
f 52 35 33
f 33 51 52
f 50 46 47
f 47 53 50
f 53 47 48
f 48 54 53
f 54 48 49
f 49 55 54
f 56 51 50
f 50 53 56
f 56 53 54
f 54 57 56
f 57 54 55
f 55 58 57
f 59 52 51
f 51 56 59
f 59 56 57
f 57 60 59
f 60 57 58
f 58 61 60
f 62 37 35
f 35 52 62
f 62 52 59
f 59 63 62
f 63 59 60
f 60 64 63
f 64 60 61
f 61 65 64
f 44 45 67
f 67 66 44
f 66 67 69
f 69 68 66
f 68 69 71
f 71 70 68
f 70 71 73
f 73 72 70
f 72 73 75
f 75 74 72
f 74 75 77
f 77 76 74
f 76 77 79
f 79 78 76
f 78 79 81
f 81 80 78
f 80 81 83
f 83 82 80
f 82 83 85
f 85 84 82
f 84 85 87
f 87 86 84
f 86 87 89
f 89 88 86
f 88 89 91
f 91 90 88
f 90 91 93
f 93 92 90
f 92 93 95
f 95 94 92
f 94 95 97
f 97 96 94
f 96 97 99
f 99 98 96
f 98 99 101
f 101 100 98
f 100 101 103
f 103 102 100
f 102 103 105
f 105 104 102
f 104 105 107
f 107 106 104
f 106 107 109
f 109 108 106
f 108 109 111
f 111 110 108
f 110 111 113
f 113 112 110
f 112 113 115
f 115 114 112
f 114 115 117
f 117 116 114
f 116 117 119
f 119 118 116
f 118 119 121
f 121 120 118
f 120 121 123
f 123 122 120
f 122 123 125
f 125 124 122
f 124 125 127
f 127 126 124
f 126 127 129
f 129 128 126
f 128 129 131
f 131 130 128
f 130 131 133
f 133 132 130
f 132 133 17
f 17 15 132
f 132 15 10
f 10 134 132
f 135 130 132
f 132 134 135
f 136 128 130
f 130 135 136
f 137 126 128
f 128 136 137
f 138 124 126
f 126 137 138
f 139 122 124
f 124 138 139
f 140 120 122
f 122 139 140
f 141 118 120
f 120 140 141
f 142 116 118
f 118 141 142
f 143 114 116
f 116 142 143
f 144 112 114
f 114 143 144
f 145 110 112
f 112 144 145
f 146 108 110
f 110 145 146
f 147 106 108
f 108 146 147
f 148 104 106
f 106 147 148
f 149 102 104
f 104 148 149
f 150 100 102
f 102 149 150
f 151 98 100
f 100 150 151
f 152 96 98
f 98 151 152
f 153 94 96
f 96 152 153
f 154 92 94
f 94 153 154
f 155 90 92
f 92 154 155
f 156 88 90
f 90 155 156
f 157 86 88
f 88 156 157
f 158 84 86
f 86 157 158
f 159 82 84
f 84 158 159
f 160 80 82
f 82 159 160
f 161 78 80
f 80 160 161
f 162 76 78
f 78 161 162
f 163 74 76
f 76 162 163
f 164 72 74
f 74 163 164
f 165 70 72
f 72 164 165
f 1 68 70
f 70 165 1
f 2 66 68
f 68 1 2
f 66 2 49
f 49 44 66
f 3 55 49
f 49 2 3
f 166 58 55
f 55 3 166
f 3 1 165
f 165 167 3
f 168 166 3
f 3 167 168
f 169 61 58
f 58 166 169
f 169 166 168
f 168 170 169
f 171 65 61
f 61 169 171
f 171 169 170
f 170 172 171
f 167 165 164
f 164 173 167
f 173 164 163
f 163 174 173
f 174 163 162
f 162 175 174
f 175 162 161
f 161 176 175
f 176 161 160
f 160 177 176
f 177 160 159
f 159 178 177
f 178 159 158
f 158 179 178
f 180 168 167
f 167 173 180
f 180 173 174
f 174 181 180
f 181 174 175
f 175 182 181
f 182 175 176
f 176 183 182
f 184 170 168
f 168 180 184
f 184 180 181
f 181 185 184
f 185 181 182
f 182 186 185
f 186 182 183
f 183 187 186
f 188 172 170
f 170 184 188
f 188 184 185
f 185 189 188
f 189 185 186
f 186 190 189
f 190 186 187
f 187 191 190
f 183 176 177
f 177 192 183
f 192 177 178
f 178 193 192
f 193 178 179
f 179 194 193
f 195 187 183
f 183 192 195
f 196 191 187
f 187 195 196
f 195 192 193
f 193 197 195
f 197 193 194
f 194 4 197
f 198 196 195
f 195 197 198
f 198 197 4
f 4 5 198
f 179 158 157
f 157 199 179
f 199 157 156
f 156 200 199
f 200 156 155
f 155 201 200
f 202 194 179
f 179 199 202
f 202 199 200
f 200 203 202
f 203 200 201
f 201 204 203
f 6 4 194
f 194 202 6
f 6 202 203
f 203 205 6
f 205 203 204
f 204 206 205
f 201 155 154
f 154 207 201
f 207 154 153
f 153 208 207
f 208 153 152
f 152 209 208
f 209 152 151
f 151 210 209
f 210 151 150
f 150 211 210
f 211 150 149
f 149 212 211
f 212 149 148
f 148 213 212
f 213 148 147
f 147 214 213
f 214 147 146
f 146 215 214
f 216 204 201
f 201 207 216
f 217 206 204
f 204 216 217
f 216 207 208
f 208 218 216
f 218 208 209
f 209 219 218
f 219 209 210
f 210 220 219
f 220 210 211
f 211 221 220
f 221 211 212
f 212 222 221
f 222 212 213
f 213 223 222
f 223 213 214
f 214 224 223
f 224 214 215
f 215 225 224
f 215 146 145
f 145 226 215
f 227 225 215
f 215 226 227
f 226 145 144
f 144 228 226
f 228 144 143
f 143 229 228
f 229 143 142
f 142 230 229
f 231 227 226
f 226 228 231
f 231 228 229
f 229 232 231
f 232 229 230
f 230 233 232
f 134 10 11
f 11 234 134
f 235 135 134
f 134 234 235
f 236 136 135
f 135 235 236
f 237 137 136
f 136 236 237
f 238 138 137
f 137 237 238
f 239 139 138
f 138 238 239
f 240 140 139
f 139 239 240
f 241 141 140
f 140 240 241
f 241 230 142
f 142 141 241
f 242 233 230
f 230 241 242
f 242 241 240
f 240 243 242
f 243 240 239
f 239 244 243
f 244 239 238
f 238 245 244
f 245 238 237
f 237 246 245
f 246 237 236
f 236 247 246
f 247 236 235
f 235 248 247
f 248 235 234
f 234 249 248
f 11 18 249
f 249 234 11
f 5 6 205
f 205 250 5
f 250 205 206
f 206 251 250
f 251 206 217
f 217 252 251
f 253 217 216
f 216 218 253
f 253 218 219
f 219 254 253
f 255 252 217
f 217 253 255
f 255 253 254
f 254 256 255
f 254 219 220
f 220 257 254
f 257 220 221
f 221 258 257
f 258 221 222
f 222 259 258
f 259 222 223
f 223 260 259
f 260 223 224
f 224 261 260
f 261 224 225
f 225 262 261
f 263 256 254
f 254 257 263
f 263 257 258
f 258 264 263
f 264 258 259
f 259 265 264
f 265 259 260
f 260 266 265
f 266 260 261
f 261 267 266
f 267 261 262
f 262 268 267
f 262 225 227
f 227 269 262
f 270 268 262
f 262 269 270
f 269 227 231
f 231 271 269
f 272 270 269
f 269 271 272
f 271 231 232
f 232 273 271
f 273 232 233
f 233 274 273
f 274 233 242
f 242 275 274
f 276 272 271
f 271 273 276
f 276 273 274
f 274 277 276
f 277 274 275
f 275 278 277
f 275 242 243
f 243 279 275
f 279 243 244
f 244 280 279
f 280 244 245
f 245 281 280
f 281 245 246
f 246 282 281
f 282 246 247
f 247 283 282
f 283 247 248
f 248 9 283
f 9 248 249
f 249 8 9
f 18 20 8
f 8 249 18
f 8 20 22
f 22 7 8
f 284 283 9
f 9 7 284
f 285 282 283
f 283 284 285
f 286 281 282
f 282 285 286
f 287 280 281
f 281 286 287
f 288 279 280
f 280 287 288
f 279 288 278
f 278 275 279
f 290 289 22
f 22 23 290
f 291 290 23
f 23 36 291
f 292 291 36
f 36 37 292
f 293 292 37
f 37 62 293
f 294 293 62
f 62 63 294
f 295 294 63
f 63 64 295
f 296 295 64
f 64 65 296
f 297 296 65
f 65 171 297
f 298 297 171
f 171 172 298
f 299 298 172
f 172 188 299
f 300 299 188
f 188 189 300
f 301 300 189
f 189 190 301
f 302 301 190
f 190 191 302
f 303 302 191
f 191 196 303
f 304 303 196
f 196 198 304
f 305 304 198
f 198 5 305
f 306 305 5
f 5 250 306
f 307 306 250
f 250 251 307
f 308 307 251
f 251 252 308
f 309 308 252
f 252 255 309
f 310 309 255
f 255 256 310
f 311 310 256
f 256 263 311
f 312 311 263
f 263 264 312
f 313 312 264
f 264 265 313
f 314 313 265
f 265 266 314
f 315 314 266
f 266 267 315
f 316 315 267
f 267 268 316
f 317 316 268
f 268 270 317
f 318 317 270
f 270 272 318
f 319 318 272
f 272 276 319
f 320 319 276
f 276 277 320
f 321 320 277
f 277 278 321
f 289 322 7
f 7 22 289
f 322 323 284
f 284 7 322
f 323 324 285
f 285 284 323
f 324 325 286
f 286 285 324
f 325 326 287
f 287 286 325
f 326 327 288
f 288 287 326
f 327 321 278
f 278 288 327
f 329 328 289
f 289 290 329
f 330 329 290
f 290 291 330
f 331 330 291
f 291 292 331
f 332 331 292
f 292 293 332
f 333 332 293
f 293 294 333
f 334 333 294
f 294 295 334
f 335 334 295
f 295 296 335
f 336 335 296
f 296 297 336
f 337 336 297
f 297 298 337
f 338 337 298
f 298 299 338
f 339 338 299
f 299 300 339
f 340 339 300
f 300 301 340
f 341 340 301
f 301 302 341
f 342 341 302
f 302 303 342
f 343 342 303
f 303 304 343
f 344 343 304
f 304 305 344
f 345 344 305
f 305 306 345
f 346 345 306
f 306 307 346
f 347 346 307
f 307 308 347
f 348 347 308
f 308 309 348
f 349 348 309
f 309 310 349
f 350 349 310
f 310 311 350
f 351 350 311
f 311 312 351
f 352 351 312
f 312 313 352
f 353 352 313
f 313 314 353
f 354 353 314
f 314 315 354
f 355 354 315
f 315 316 355
f 356 355 316
f 316 317 356
f 357 356 317
f 317 318 357
f 358 357 318
f 318 319 358
f 359 358 319
f 319 320 359
f 360 359 320
f 320 321 360
f 328 361 322
f 322 289 328
f 361 362 323
f 323 322 361
f 362 363 324
f 324 323 362
f 363 364 325
f 325 324 363
f 364 365 326
f 326 325 364
f 365 366 327
f 327 326 365
f 366 360 321
f 321 327 366
f 368 367 328
f 328 329 368
f 369 368 329
f 329 330 369
f 370 369 330
f 330 331 370
f 371 370 331
f 331 332 371
f 372 371 332
f 332 333 372
f 373 372 333
f 333 334 373
f 374 373 334
f 334 335 374
f 375 374 335
f 335 336 375
f 376 375 336
f 336 337 376
f 377 376 337
f 337 338 377
f 378 377 338
f 338 339 378
f 379 378 339
f 339 340 379
f 380 379 340
f 340 341 380
f 381 380 341
f 341 342 381
f 382 381 342
f 342 343 382
f 383 382 343
f 343 344 383
f 384 383 344
f 344 345 384
f 385 384 345
f 345 346 385
f 386 385 346
f 346 347 386
f 387 386 347
f 347 348 387
f 388 387 348
f 348 349 388
f 389 388 349
f 349 350 389
f 390 389 350
f 350 351 390
f 391 390 351
f 351 352 391
f 392 391 352
f 352 353 392
f 393 392 353
f 353 354 393
f 394 393 354
f 354 355 394
f 395 394 355
f 355 356 395
f 396 395 356
f 356 357 396
f 397 396 357
f 357 358 397
f 398 397 358
f 358 359 398
f 399 398 359
f 359 360 399
f 367 400 361
f 361 328 367
f 400 401 362
f 362 361 400
f 401 402 363
f 363 362 401
f 402 403 364
f 364 363 402
f 403 404 365
f 365 364 403
f 404 405 366
f 366 365 404
f 405 399 360
f 360 366 405
f 407 406 367
f 367 368 407
f 408 407 368
f 368 369 408
f 409 408 369
f 369 370 409
f 410 409 370
f 370 371 410
f 411 410 371
f 371 372 411
f 412 411 372
f 372 373 412
f 413 412 373
f 373 374 413
f 414 413 374
f 374 375 414
f 415 414 375
f 375 376 415
f 416 415 376
f 376 377 416
f 417 416 377
f 377 378 417
f 418 417 378
f 378 379 418
f 419 418 379
f 379 380 419
f 420 419 380
f 380 381 420
f 421 420 381
f 381 382 421
f 422 421 382
f 382 383 422
f 423 422 383
f 383 384 423
f 424 423 384
f 384 385 424
f 425 424 385
f 385 386 425
f 426 425 386
f 386 387 426
f 427 426 387
f 387 388 427
f 428 427 388
f 388 389 428
f 429 428 389
f 389 390 429
f 430 429 390
f 390 391 430
f 431 430 391
f 391 392 431
f 432 431 392
f 392 393 432
f 433 432 393
f 393 394 433
f 434 433 394
f 394 395 434
f 435 434 395
f 395 396 435
f 436 435 396
f 396 397 436
f 437 436 397
f 397 398 437
f 438 437 398
f 398 399 438
f 406 439 400
f 400 367 406
f 439 440 401
f 401 400 439
f 440 441 402
f 402 401 440
f 441 442 403
f 403 402 441
f 442 443 404
f 404 403 442
f 443 444 405
f 405 404 443
f 444 438 399
f 399 405 444
f 446 445 16
f 16 17 446
f 445 447 25
f 25 16 445
f 447 448 27
f 27 25 447
f 448 449 39
f 39 27 448
f 449 450 41
f 41 39 449
f 450 451 43
f 43 41 450
f 451 452 45
f 45 43 451
f 452 453 67
f 67 45 452
f 453 454 69
f 69 67 453
f 454 455 71
f 71 69 454
f 455 456 73
f 73 71 455
f 456 457 75
f 75 73 456
f 457 458 77
f 77 75 457
f 458 459 79
f 79 77 458
f 459 460 81
f 81 79 459
f 460 461 83
f 83 81 460
f 461 462 85
f 85 83 461
f 462 463 87
f 87 85 462
f 463 464 89
f 89 87 463
f 464 465 91
f 91 89 464
f 465 466 93
f 93 91 465
f 466 467 95
f 95 93 466
f 467 468 97
f 97 95 467
f 468 469 99
f 99 97 468
f 469 470 101
f 101 99 469
f 470 471 103
f 103 101 470
f 471 472 105
f 105 103 471
f 472 473 107
f 107 105 472
f 473 474 109
f 109 107 473
f 474 475 111
f 111 109 474
f 475 476 113
f 113 111 475
f 476 477 115
f 115 113 476
f 477 478 117
f 117 115 477
f 478 479 119
f 119 117 478
f 479 480 121
f 121 119 479
f 480 481 123
f 123 121 480
f 481 482 125
f 125 123 481
f 482 483 127
f 127 125 482
f 483 484 129
f 129 127 483
f 484 485 131
f 131 129 484
f 485 486 133
f 133 131 485
f 486 446 17
f 17 133 486
f 490 489 488
f 488 487 490
f 487 488 492
f 492 491 487
f 491 492 494
f 494 493 491
f 493 494 496
f 496 495 493
f 495 496 498
f 498 497 495
f 497 498 500
f 500 499 497
f 499 500 502
f 502 501 499
f 501 502 504
f 504 503 501
f 503 504 506
f 506 505 503
f 505 506 508
f 508 507 505
f 507 508 510
f 510 509 507
f 509 510 512
f 512 511 509
f 511 512 514
f 514 513 511
f 513 514 516
f 516 515 513
f 515 516 518
f 518 517 515
f 517 518 520
f 520 519 517
f 519 520 522
f 522 521 519
f 521 522 524
f 524 523 521
f 523 524 526
f 526 525 523
f 525 526 528
f 528 527 525
f 527 528 530
f 530 529 527
f 529 530 532
f 532 531 529
f 531 532 534
f 534 533 531
f 533 534 536
f 536 535 533
f 535 536 538
f 538 537 535
f 537 538 540
f 540 539 537
f 539 540 542
f 542 541 539
f 541 542 544
f 544 543 541
f 543 544 546
f 546 545 543
f 545 546 548
f 548 547 545
f 547 548 550
f 550 549 547
f 549 550 552
f 552 551 549
f 551 552 554
f 554 553 551
f 553 554 556
f 556 555 553
f 555 556 558
f 558 557 555
f 557 558 560
f 560 559 557
f 559 560 562
f 562 561 559
f 561 562 564
f 564 563 561
f 563 564 566
f 566 565 563
f 565 566 568
f 568 567 565
f 567 568 570
f 570 569 567
f 569 570 489
f 489 490 569
f 574 573 572
f 572 571 574
f 573 576 575
f 575 572 573
f 576 578 577
f 577 575 576
f 578 580 579
f 579 577 578
f 580 582 581
f 581 579 580
f 582 584 583
f 583 581 582
f 584 586 585
f 585 583 584
f 586 588 587
f 587 585 586
f 588 590 589
f 589 587 588
f 590 592 591
f 591 589 590
f 592 594 593
f 593 591 592
f 594 596 595
f 595 593 594
f 596 598 597
f 597 595 596
f 598 600 599
f 599 597 598
f 600 602 601
f 601 599 600
f 602 604 603
f 603 601 602
f 604 606 605
f 605 603 604
f 606 608 607
f 607 605 606
f 608 610 609
f 609 607 608
f 610 612 611
f 611 609 610
f 612 614 613
f 613 611 612
f 614 616 615
f 615 613 614
f 616 618 617
f 617 615 616
f 618 620 619
f 619 617 618
f 620 622 621
f 621 619 620
f 622 624 623
f 623 621 622
f 624 626 625
f 625 623 624
f 626 628 627
f 627 625 626
f 628 630 629
f 629 627 628
f 630 632 631
f 631 629 630
f 632 634 633
f 633 631 632
f 634 636 635
f 635 633 634
f 636 638 637
f 637 635 636
f 638 640 639
f 639 637 638
f 640 642 641
f 641 639 640
f 642 644 643
f 643 641 642
f 644 646 645
f 645 643 644
f 646 648 647
f 647 645 646
f 648 650 649
f 649 647 648
f 650 652 651
f 651 649 650
f 652 654 653
f 653 651 652
f 654 574 571
f 571 653 654
f 656 655 573
f 573 574 656
f 655 657 576
f 576 573 655
f 657 658 578
f 578 576 657
f 658 659 580
f 580 578 658
f 659 660 582
f 582 580 659
f 660 661 584
f 584 582 660
f 661 662 586
f 586 584 661
f 662 663 588
f 588 586 662
f 663 664 590
f 590 588 663
f 664 665 592
f 592 590 664
f 665 666 594
f 594 592 665
f 666 667 596
f 596 594 666
f 667 668 598
f 598 596 667
f 668 669 600
f 600 598 668
f 669 670 602
f 602 600 669
f 670 671 604
f 604 602 670
f 671 672 606
f 606 604 671
f 672 673 608
f 608 606 672
f 673 674 610
f 610 608 673
f 674 675 612
f 612 610 674
f 675 676 614
f 614 612 675
f 676 677 616
f 616 614 676
f 677 678 618
f 618 616 677
f 678 679 620
f 620 618 678
f 679 680 622
f 622 620 679
f 680 681 624
f 624 622 680
f 681 682 626
f 626 624 681
f 682 683 628
f 628 626 682
f 683 684 630
f 630 628 683
f 684 685 632
f 632 630 684
f 685 686 634
f 634 632 685
f 686 687 636
f 636 634 686
f 687 688 638
f 638 636 687
f 688 689 640
f 640 638 688
f 689 690 642
f 642 640 689
f 690 691 644
f 644 642 690
f 691 692 646
f 646 644 691
f 692 693 648
f 648 646 692
f 693 694 650
f 650 648 693
f 694 695 652
f 652 650 694
f 695 696 654
f 654 652 695
f 696 656 574
f 574 654 696
f 698 697 655
f 655 656 698
f 697 699 657
f 657 655 697
f 699 700 658
f 658 657 699
f 700 701 659
f 659 658 700
f 701 702 660
f 660 659 701
f 702 703 661
f 661 660 702
f 703 704 662
f 662 661 703
f 704 705 663
f 663 662 704
f 705 706 664
f 664 663 705
f 706 707 665
f 665 664 706
f 707 708 666
f 666 665 707
f 708 709 667
f 667 666 708
f 709 710 668
f 668 667 709
f 710 711 669
f 669 668 710
f 711 712 670
f 670 669 711
f 712 713 671
f 671 670 712
f 713 714 672
f 672 671 713
f 714 715 673
f 673 672 714
f 715 716 674
f 674 673 715
f 716 717 675
f 675 674 716
f 717 718 676
f 676 675 717
f 718 719 677
f 677 676 718
f 719 720 678
f 678 677 719
f 720 721 679
f 679 678 720
f 721 722 680
f 680 679 721
f 722 723 681
f 681 680 722
f 723 724 682
f 682 681 723
f 724 725 683
f 683 682 724
f 725 726 684
f 684 683 725
f 726 727 685
f 685 684 726
f 727 728 686
f 686 685 727
f 728 729 687
f 687 686 728
f 729 730 688
f 688 687 729
f 730 731 689
f 689 688 730
f 731 732 690
f 690 689 731
f 732 733 691
f 691 690 732
f 733 734 692
f 692 691 733
f 734 735 693
f 693 692 734
f 735 736 694
f 694 693 735
f 736 737 695
f 695 694 736
f 737 738 696
f 696 695 737
f 738 698 656
f 656 696 738
f 740 739 697
f 697 698 740
f 739 741 699
f 699 697 739
f 741 742 700
f 700 699 741
f 742 743 701
f 701 700 742
f 743 744 702
f 702 701 743
f 744 745 703
f 703 702 744
f 745 746 704
f 704 703 745
f 746 747 705
f 705 704 746
f 747 748 706
f 706 705 747
f 748 749 707
f 707 706 748
f 749 750 708
f 708 707 749
f 750 751 709
f 709 708 750
f 751 752 710
f 710 709 751
f 752 753 711
f 711 710 752
f 753 754 712
f 712 711 753
f 754 755 713
f 713 712 754
f 755 756 714
f 714 713 755
f 756 757 715
f 715 714 756
f 757 758 716
f 716 715 757
f 758 759 717
f 717 716 758
f 759 760 718
f 718 717 759
f 760 761 719
f 719 718 760
f 761 762 720
f 720 719 761
f 762 763 721
f 721 720 762
f 763 764 722
f 722 721 763
f 764 765 723
f 723 722 764
f 765 766 724
f 724 723 765
f 766 767 725
f 725 724 766
f 767 768 726
f 726 725 767
f 768 769 727
f 727 726 768
f 769 770 728
f 728 727 769
f 770 771 729
f 729 728 770
f 771 772 730
f 730 729 771
f 772 773 731
f 731 730 772
f 773 774 732
f 732 731 773
f 774 775 733
f 733 732 774
f 775 776 734
f 734 733 775
f 776 777 735
f 735 734 776
f 777 778 736
f 736 735 777
f 778 779 737
f 737 736 778
f 779 780 738
f 738 737 779
f 780 740 698
f 698 738 780
f 782 781 739
f 739 740 782
f 781 783 741
f 741 739 781
f 783 784 742
f 742 741 783
f 784 785 743
f 743 742 784
f 785 786 744
f 744 743 785
f 786 787 745
f 745 744 786
f 787 788 746
f 746 745 787
f 788 789 747
f 747 746 788
f 789 790 748
f 748 747 789
f 790 791 749
f 749 748 790
f 791 792 750
f 750 749 791
f 792 793 751
f 751 750 792
f 793 794 752
f 752 751 793
f 794 795 753
f 753 752 794
f 795 796 754
f 754 753 795
f 796 797 755
f 755 754 796
f 797 798 756
f 756 755 797
f 798 799 757
f 757 756 798
f 799 800 758
f 758 757 799
f 800 801 759
f 759 758 800
f 801 802 760
f 760 759 801
f 802 803 761
f 761 760 802
f 803 804 762
f 762 761 803
f 804 805 763
f 763 762 804
f 805 806 764
f 764 763 805
f 806 807 765
f 765 764 806
f 807 808 766
f 766 765 807
f 808 809 767
f 767 766 808
f 809 810 768
f 768 767 809
f 810 811 769
f 769 768 810
f 811 812 770
f 770 769 811
f 812 813 771
f 771 770 812
f 813 814 772
f 772 771 813
f 814 815 773
f 773 772 814
f 815 816 774
f 774 773 815
f 816 817 775
f 775 774 816
f 817 818 776
f 776 775 817
f 818 819 777
f 777 776 818
f 819 820 778
f 778 777 819
f 820 821 779
f 779 778 820
f 821 822 780
f 780 779 821
f 822 782 740
f 740 780 822
f 489 571 572
f 572 488 489
f 487 445 446
f 446 490 487
f 488 572 575
f 575 492 488
f 491 447 445
f 445 487 491
f 492 575 577
f 577 494 492
f 493 448 447
f 447 491 493
f 494 577 579
f 579 496 494
f 495 449 448
f 448 493 495
f 496 579 581
f 581 498 496
f 497 450 449
f 449 495 497
f 498 581 583
f 583 500 498
f 499 451 450
f 450 497 499
f 500 583 585
f 585 502 500
f 501 452 451
f 451 499 501
f 502 585 587
f 587 504 502
f 503 453 452
f 452 501 503
f 504 587 589
f 589 506 504
f 505 454 453
f 453 503 505
f 506 589 591
f 591 508 506
f 507 455 454
f 454 505 507
f 508 591 593
f 593 510 508
f 509 456 455
f 455 507 509
f 510 593 595
f 595 512 510
f 511 457 456
f 456 509 511
f 512 595 597
f 597 514 512
f 513 458 457
f 457 511 513
f 514 597 599
f 599 516 514
f 515 459 458
f 458 513 515
f 516 599 601
f 601 518 516
f 517 460 459
f 459 515 517
f 518 601 603
f 603 520 518
f 519 461 460
f 460 517 519
f 520 603 605
f 605 522 520
f 521 462 461
f 461 519 521
f 522 605 607
f 607 524 522
f 523 463 462
f 462 521 523
f 524 607 609
f 609 526 524
f 525 464 463
f 463 523 525
f 526 609 611
f 611 528 526
f 527 465 464
f 464 525 527
f 528 611 613
f 613 530 528
f 529 466 465
f 465 527 529
f 530 613 615
f 615 532 530
f 531 467 466
f 466 529 531
f 532 615 617
f 617 534 532
f 533 468 467
f 467 531 533
f 534 617 619
f 619 536 534
f 535 469 468
f 468 533 535
f 536 619 621
f 621 538 536
f 537 470 469
f 469 535 537
f 538 621 623
f 623 540 538
f 539 471 470
f 470 537 539
f 540 623 625
f 625 542 540
f 541 472 471
f 471 539 541
f 542 625 627
f 627 544 542
f 543 473 472
f 472 541 543
f 544 627 629
f 629 546 544
f 545 474 473
f 473 543 545
f 546 629 631
f 631 548 546
f 547 475 474
f 474 545 547
f 548 631 633
f 633 550 548
f 549 476 475
f 475 547 549
f 550 633 635
f 635 552 550
f 551 477 476
f 476 549 551
f 552 635 637
f 637 554 552
f 553 478 477
f 477 551 553
f 554 637 639
f 639 556 554
f 555 479 478
f 478 553 555
f 556 639 641
f 641 558 556
f 557 480 479
f 479 555 557
f 558 641 643
f 643 560 558
f 559 481 480
f 480 557 559
f 560 643 645
f 645 562 560
f 561 482 481
f 481 559 561
f 562 645 647
f 647 564 562
f 563 483 482
f 482 561 563
f 564 647 649
f 649 566 564
f 565 484 483
f 483 563 565
f 566 649 651
f 651 568 566
f 567 485 484
f 484 565 567
f 568 651 653
f 653 570 568
f 569 486 485
f 485 567 569
f 570 653 571
f 571 489 570
f 490 446 486
f 486 569 490