# https://github.com/mikedh/trimesh
v 0.00125531 -0.00610057 0.05107444
v 0.00005762 -0.00561358 0.05116906
v 0.00005762 -0.00727628 0.05084601
v -0.00114007 -0.00610057 0.05107444
v -0.00163617 -0.00727628 0.05084601
v -0.00114007 -0.00845198 0.05061758
v 0.00005762 -0.00893897 0.05052296
v 0.00125531 -0.00845198 0.05061758
v 0.00175141 -0.00727628 0.05084601
v 0.00187731 -0.00137079 0.04949281
v 0.00087002 -0.00116920 0.04953710
v 0.00007353 -0.00646984 0.04867039
v 0.00007353 -0.01206434 0.04756461
v 0.00093388 -0.01184104 0.04759278
v 0.00191093 -0.01163068 0.04761933
v 0.00349212 -0.01085110 0.04777721
v 0.00443517 -0.00961734 0.04794143
v 0.00512212 -0.00651900 0.04845940
v 0.00474110 -0.00432752 0.04888516
v 0.00464895 -0.00417803 0.04891581
v 0.00364584 -0.00255084 0.04924949
v 0.00275028 -0.00195328 0.04937270
v 0.00007353 -0.00095765 0.04958359
v 0.00180915 -0.00130490 0.04840495
v 0.00007353 -0.00635035 0.04759653
v 0.00083126 -0.00109923 0.04844806
v 0.00007353 -0.01173169 0.04652453
v 0.00088599 -0.01151735 0.04655206
v 0.00181792 -0.01131543 0.04657799
v 0.00331566 -0.01057940 0.04673441
v 0.00421529 -0.00938729 0.04689688
v 0.00489407 -0.00630082 0.04741404
v 0.00454508 -0.00415186 0.04782540
v 0.00439888 -0.00391065 0.04787427
v 0.00425268 -0.00366944 0.04792314
v 0.00351270 -0.00244851 0.04817051
v 0.00246273 -0.00174366 0.04831501
v 0.00007353 -0.00090081 0.04849311
v 0.00448255 -0.00390811 0.04897116
v 0.00402511 -0.00316607 0.04912333
v 0.00396029 -0.00318702 0.04802088
v -0.00173024 -0.00137079 0.04949281
v -0.00072295 -0.00116920 0.04953710
v -0.00078682 -0.01184104 0.04759278
v -0.00176387 -0.01163068 0.04761933
v -0.00334506 -0.01085110 0.04777721
v -0.00428810 -0.00961734 0.04794143
v -0.00497505 -0.00651900 0.04845940
v -0.00459403 -0.00432752 0.04888516
v -0.00450188 -0.00417803 0.04891581
v -0.00349877 -0.00255084 0.04924949
v -0.00260322 -0.00195328 0.04937270
v -0.00166209 -0.00130490 0.04840495
v -0.00068419 -0.00109923 0.04844806
v -0.00073892 -0.01151735 0.04655206
v -0.00167086 -0.01131543 0.04657799
v -0.00316859 -0.01057940 0.04673441
v -0.00406822 -0.00938729 0.04689688
v -0.00474700 -0.00630082 0.04741404
v -0.00439801 -0.00415186 0.04782540
v -0.00425182 -0.00391065 0.04787427
v -0.00410562 -0.00366944 0.04792314
v -0.00336564 -0.00244851 0.04817051
v -0.00231566 -0.00174366 0.04831501
v -0.00387804 -0.00316607 0.04912333
v -0.00433548 -0.00390811 0.04897116
v -0.00381323 -0.00318702 0.04802088
v -0.00850738 -0.02988431 0.00028945
v -0.00850738 -0.02899251 0.00048499
v -0.00492215 -0.03042556 0.00048499
v -0.00492215 -0.03131736 0.00028945
v -0.01019673 -0.03022052 0.00120611
v -0.01290944 -0.02921689 0.00182285
v -0.01290944 -0.02888068 0.00028946
v -0.00850738 -0.02803324 0.00069532
v -0.00492215 -0.02946629 0.00069531
v 0.00631620 -0.03110923 0.00661857
v 0.01176956 -0.03068160 0.00661857
v 0.01176956 -0.02972232 0.00682890
v 0.00631620 -0.03014997 0.00682890
v -0.00850738 -0.03122914 0.00642304
v -0.00850738 -0.03033734 0.00661857
v -0.01290944 -0.02933371 0.00661857
v -0.01290944 -0.03022551 0.00642304
v -0.01019673 -0.02932872 0.00140164
v -0.01019673 -0.02836944 0.00161197
v 0.00433987 -0.03132790 0.00028946
v 0.00433987 -0.03043610 0.00048499
v 0.00631620 -0.02976440 0.00048499
v 0.00631620 -0.03065620 0.00028945
v 0.00433987 -0.02947683 0.00069532
v 0.00631620 -0.02880514 0.00069532
v -0.00492215 -0.03177039 0.00661857
v -0.00492215 -0.03081112 0.00682890
v -0.00850738 -0.02937806 0.00682890
v 0.00433987 -0.02981304 0.00183766
v 0.00838096 -0.02914134 0.00137063
v -0.01290944 -0.02832509 0.00201839
v -0.01290944 -0.02798888 0.00048499
v -0.00492215 -0.03266219 0.00642304
v -0.00492215 -0.03165357 0.00182285
v 0.01176956 -0.02871370 0.00222871
v 0.01176956 -0.02837750 0.00069532
v 0.00795192 -0.03077303 0.00597007
v 0.01176956 -0.03034539 0.00508517
v 0.01176956 -0.02933677 0.00048499
v 0.00631620 -0.03200103 0.00642304
v 0.00795192 -0.03166483 0.00577454
v 0.00433987 -0.03166411 0.00143180
v -0.00029114 -0.03201403 0.00182285
v -0.00029114 -0.03167782 0.00028945
v 0.00433987 -0.03267273 0.00642304
v 0.00433987 -0.03178093 0.00661857
v -0.00029114 -0.03213085 0.00661857
v -0.00029114 -0.03302265 0.00642304
v -0.00492215 -0.02980250 0.00222871
v -0.00029114 -0.03016296 0.00222871
v -0.00029114 -0.02982675 0.00069531
v 0.00433987 -0.03082166 0.00682890
v -0.00029114 -0.03117158 0.00682889
v -0.00029114 -0.03078602 0.00048499
v 0.00838096 -0.03099241 0.00096477
v -0.00029114 -0.03083537 0.00529550
v 0.00433987 -0.03048545 0.00553758
v 0.00433987 -0.03014924 0.00376211
v -0.00029114 -0.03049916 0.00376211
v -0.00984813 -0.02904186 0.00615358
v -0.00492215 -0.03047491 0.00529550
v -0.00492215 -0.03013871 0.00376211
v -0.01073303 -0.02870565 0.00376211
v 0.00795192 -0.02981376 0.00618040
v 0.01176956 -0.02938612 0.00529550
v 0.01176956 -0.02904991 0.00376211
v 0.00897089 -0.02947755 0.00376211
v -0.01290944 -0.02899750 0.00508518
v -0.00984813 -0.03000113 0.00594325
v -0.01073303 -0.02966492 0.00355178
v -0.01290944 -0.02866129 0.00355178
v 0.00433987 -0.03233653 0.00513172
v 0.00433987 -0.03200031 0.00335624
v 0.00897089 -0.03132862 0.00335625
v -0.00029114 -0.03268644 0.00488964
v -0.00492215 -0.03232599 0.00488964
v -0.00492215 -0.03198978 0.00335625
v -0.00029114 -0.03235023 0.00335625
v 0.00838096 -0.03010061 0.00116031
v 0.01176956 -0.02967298 0.00201838
v 0.01176956 -0.03000918 0.00355178
v 0.00897089 -0.03043682 0.00355178
v -0.00984813 -0.03089293 0.00574772
v -0.01073303 -0.03055672 0.00335625
v -0.01290944 -0.02988930 0.00488964
v -0.01290944 -0.02955309 0.00335625
v 0.00005762 -0.00382110 0.05078846
v 0.00237286 -0.00476250 0.05060556
v 0.00333186 -0.00703524 0.05016398
v 0.00237286 -0.00930798 0.04972240
v 0.00005762 -0.01024938 0.04953949
v -0.00225762 -0.00930798 0.04972240
v -0.00321663 -0.00703524 0.05016398
v -0.00225762 -0.00476250 0.05060556
v -0.00225843 -0.00447607 0.04885133
v 0.00005762 -0.00353434 0.04903430
v -0.00321776 -0.00674960 0.04840960
v -0.00225843 -0.00902312 0.04796787
v 0.00005762 -0.00996485 0.04778489
v 0.00237366 -0.00902312 0.04796787
v 0.00333300 -0.00674960 0.04840960
v 0.00237366 -0.00447607 0.04885133
v 0.02636553 0.01564824 0.00833836
v 0.02622462 0.01503629 0.01402817
v 0.02714291 0.01252684 0.01338389
v 0.02722292 0.01303056 0.00728329
v 0.01544078 0.03578736 0.01867027
v 0.01503002 0.03440134 0.02289992
v 0.01973217 0.02916150 0.02009518
v 0.01986253 0.03081375 0.01523672
v 0.01260253 0.02710375 0.03753611
v 0.00569170 0.02844719 0.03829907
v 0.00465538 0.01916645 0.04627672
v 0.00975395 0.01911518 0.04532589
v 0.00272180 0.00974317 0.04903341
v 0.00580627 0.00919597 0.04885604
v 0.02152770 0.02477564 0.02604767
v 0.01938764 0.02704544 0.02701039
v 0.01690834 0.02182841 0.03619461
v 0.01854882 0.01981854 0.03568351
v 0.01518950 0.01402749 0.04399588
v 0.01355436 0.01555799 0.04439598
v 0.00793063 0.00717245 0.04860064
v 0.00927959 0.00588752 0.04843846
v 0.02604023 0.01423549 0.02147389
v 0.02315114 0.02098369 0.02440219
v 0.02042970 0.01633998 0.03491648
v 0.02322889 0.01116308 0.03377497
v 0.01638599 0.01152747 0.04343775
v 0.01847924 0.00715371 0.04246131
v 0.01017966 0.00361889 0.04806111
v 0.01119012 0.00107201 0.04763749
v 0.02809008 -0.00647224 0.01804197
v 0.02743711 0.01097846 0.02101843
v 0.02467509 0.00848844 0.03318520
v 0.02502409 -0.00725025 0.03023824
v 0.01949581 0.00502964 0.04198711
v 0.02092709 -0.00720560 0.03851810
v 0.01178050 -0.00041605 0.04738998
v 0.01244348 -0.00698619 0.04575967
v 0.02224317 -0.02135808 0.02729128
v 0.01804218 -0.01870898 0.03628433
v 0.01141219 -0.01409299 0.04423418
v 0.01846536 -0.02694901 0.02619401
v 0.01566622 -0.02458405 0.03518808
v 0.00973587 -0.01832826 0.04340626
v 0.01167265 -0.03171129 0.02513793
v 0.00987121 -0.02851897 0.03426752
v 0.00633954 -0.02170140 0.04306397
v 0.00683385 -0.03379817 0.01419170
v 0.01336883 -0.03234232 0.01415525
v 0.00643926 -0.03300920 0.02447232
v 0.00503283 -0.02944293 0.03412279
v 0.00321428 -0.02236532 0.04300967
v 0.00007353 0.02855613 0.03894949
v 0.00007353 0.01889883 0.04681508
v 0.00007353 0.01025350 0.04919863
v 0.02133473 0.02778214 0.01291953
v 0.01823624 0.03130578 0.01530818
v 0.01890335 0.06088545 0.00761165
v 0.02121538 0.05815660 0.00563749
v 0.00680211 -0.03370915 0.01191818
v 0.00007353 -0.03510276 0.01433952
v 0.00007353 -0.03490812 0.01267678
v 0.02663927 0.04936682 0.00194003
v 0.02563390 0.04923569 0.00139904
v 0.02273442 0.05636369 0.00434043
v 0.02358716 0.05657297 0.00501553
v 0.00617094 0.03827096 0.02040300
v 0.00618034 0.06449046 0.01433646
v 0.01485768 0.06314347 0.01074986
v 0.01474130 0.03528026 0.01800246
v 0.00007353 0.03981874 0.02208491
v 0.00650120 0.03890690 0.02122696
v 0.00650120 0.06476921 0.01534233
v 0.00007353 0.06518515 0.01670748
v 0.02762365 0.01180709 0.00679016
v 0.02754086 0.01143934 0.01310468
v 0.02828343 -0.00567643 0.01036375
v 0.02844353 -0.00501745 0.00400572
v 0.02408823 -0.02069693 0.00821812
v 0.02405779 -0.01963154 0.00124348
v 0.01971609 -0.02640016 0.00750833
v 0.01961144 -0.02509811 0.00091237
v 0.01315431 -0.03138736 0.00669130
v 0.01292462 -0.03012186 0.00000000
v 0.00007353 0.03798968 0.02563488
v 0.00640899 0.03699384 0.02490984
v 0.01441352 0.03232111 0.02924803
v 0.00627453 0.03420443 0.03027980
v 0.02412189 -0.02187503 0.01593051
v 0.01983731 -0.02790834 0.01514852
v 0.00007353 0.03513557 0.03117436
v 0.02247932 0.02424213 0.01153798
v 0.02203288 0.02302946 0.01805433
v 0.02096474 0.02601825 0.01899922
v 0.01823608 0.03130596 0.01530830
v 0.01749087 0.02956714 0.02123301
v 0.01380869 0.03332886 0.02360076
v 0.01209864 0.02640477 0.03686533
v 0.00938709 0.01862562 0.04442140
v 0.00452751 0.01862748 0.04533567
v 0.00550761 0.02766789 0.03755666
v 0.00561038 0.00902047 0.04779622
v 0.00263862 0.00955181 0.04796159
v 0.02060135 0.02428580 0.02497051
v 0.01770442 0.01937975 0.03514794
v 0.01511341 0.02262674 0.03594172
v 0.01687447 0.02781322 0.02681798
v 0.01451995 0.01373534 0.04318424
v 0.00890561 0.00581726 0.04741495
v 0.00746502 0.00721762 0.04758163
v 0.01202745 0.01611005 0.04378500
v 0.02382076 0.01616566 0.02324614
v 0.02136861 0.01260788 0.03367978
v 0.01905031 0.01689237 0.03460867
v 0.02167562 0.02157621 0.02439511
v 0.01710412 0.00829810 0.04198807
v 0.01551968 0.01163185 0.04272148
v 0.01045750 0.00182456 0.04676609
v 0.00962093 0.00397689 0.04711587
v 0.02701472 -0.00647892 0.01896179
v 0.02399585 -0.00718848 0.02987591
v 0.02368691 0.00832339 0.03275090
v 0.02596589 0.01075510 0.02209717
v 0.02007171 -0.00707237 0.03785255
v 0.01868856 0.00496434 0.04125466
v 0.01190953 -0.00678620 0.04482838
v 0.01129407 -0.00032777 0.04641631
v 0.02125142 -0.02102824 0.02697497
v 0.01721037 -0.01837088 0.03566290
v 0.01086758 -0.01380366 0.04333301
v 0.01765540 -0.02626650 0.02592841
v 0.01497714 -0.02395511 0.03462063
v 0.00927070 -0.01786719 0.04253252
v 0.01118799 -0.03076260 0.02489818
v 0.00947867 -0.02765449 0.03372811
v 0.00609203 -0.02108377 0.04219814
v 0.00658538 -0.03276499 0.01423504
v 0.00618970 -0.03200329 0.02423548
v 0.01288631 -0.03136377 0.01419962
v 0.00483070 -0.02853576 0.03358601
v 0.00308683 -0.02172110 0.04214651
v 0.00007353 0.01834997 0.04587107
v 0.00007353 0.02777847 0.03818292
v 0.00007353 0.01004359 0.04812703
v 0.00658640 -0.03266390 0.01204111
v 0.00007353 -0.03382510 0.01279414
v 0.00007353 -0.03401159 0.01438177
v 0.00007353 0.03916811 0.02120795
v 0.00007353 0.06490158 0.01565300
v 0.02657258 0.01158241 0.00659729
v 0.02736091 -0.00505701 0.00386887
v 0.02719525 -0.00573744 0.01109126
v 0.02627088 0.01117099 0.01430535
v 0.02300516 -0.01935449 0.00115643
v 0.02304329 -0.02047302 0.00853852
v 0.01872704 -0.02446019 0.00096971
v 0.01885096 -0.02583464 0.00797826
v 0.01244443 -0.02915863 0.00018424
v 0.01268377 -0.03047593 0.00711758
v 0.00609257 0.03571192 0.02520226
v 0.00007353 0.03650581 0.02625209
v 0.01294852 0.03152907 0.02876414
v 0.00601889 0.03330647 0.02971350
v 0.02308079 -0.02157309 0.01579873
v 0.01897730 -0.02723590 0.01512353
v 0.00007353 0.03422944 0.03056501
v 0.00677037 -0.03362013 0.01037303
v 0.00658741 -0.03256281 0.01057555
v 0.00911918 -0.03093142 0.00716465
v 0.00928021 -0.03198854 0.00694334
v 0.01125234 -0.02926979 0.00025933
v 0.01139147 -0.03033181 0.00004684
v 0.01544078 0.06338770 0.01164021
v 0.02229411 0.02807869 0.01334856
v 0.02196741 0.02667067 0.01876190
v 0.02366591 0.02202889 0.01687328
v 0.02374161 0.02365934 0.01156730
v 0.02699413 0.01201132 0.02116286
v 0.02417322 0.00941661 0.03338987
v 0.01915170 0.00574863 0.04214763
v 0.02737884 0.04534629 0.00111956
v 0.02642033 0.04523023 0.00057996
v 0.01154007 0.00018996 0.04749078
v 0.02667639 0.04254943 0.00057190
v 0.02762365 0.04265942 0.00109815
v 0.02247932 0.02424212 0.01153797
v 0.02192041 0.05849542 0.00643831
v 0.01971104 0.06104375 0.00832429
v 0.01986252 0.03081376 0.01523673
v 0.00007353 -0.03471349 0.01221409
v 0.00007353 -0.03363861 0.01240654
v 0.00007353 -0.02239766 0.04209170
v 0.00007353 -0.02947127 0.03343516
v 0.00007353 -0.03353058 0.02341910
v 0.00007353 -0.02307010 0.04295203
v 0.00007353 -0.03042375 0.03396916
v 0.00007353 -0.03459723 0.02365284
v 0.01110431 -0.03170548 0.00682467
v 0.01204351 -0.03019371 0.00003227
v 0.02415188 0.01710023 0.01617984
v 0.02452595 0.01791227 0.00906764
v 0.02521138 0.01413561 0.01524259
v 0.02554927 0.01474734 0.00783246
v 0.02489333 0.01346038 0.02267166
v 0.01087579 0.00074839 0.04659120
v 0.01789634 0.00663122 0.04162137
v 0.02252776 0.01046563 0.03321534
v 0.02554927 0.01474733 0.00783246
v 0.01038502 -0.03076967 0.00714793
v 0.01195207 -0.02920454 0.00021525
v 0.01196437 -0.02920339 0.00021448
v -0.02621847 0.01564824 0.00833836
v -0.02707585 0.01303056 0.00728329
v -0.02699585 0.01252684 0.01338389
v -0.02607756 0.01503629 0.01402817
v -0.01529372 0.03578736 0.01867027
v -0.01971546 0.03081375 0.01523672
v -0.01958511 0.02916150 0.02009518
v -0.01488295 0.03440134 0.02289992
v -0.01245547 0.02710375 0.03753611
v -0.00960688 0.01911518 0.04532589
v -0.00450832 0.01916645 0.04627672
v -0.00554464 0.02844719 0.03829907
v -0.00565920 0.00919597 0.04885604
v -0.00257474 0.00974317 0.04903341
v -0.02138064 0.02477564 0.02604767
v -0.01840176 0.01981854 0.03568351
v -0.01676128 0.02182841 0.03619461
v -0.01924057 0.02704544 0.02701039
v -0.01504244 0.01402749 0.04399588
v -0.00913253 0.00588752 0.04843846
v -0.00778357 0.00717245 0.04860064
v -0.01340729 0.01555799 0.04439598
v -0.02589317 0.01423549 0.02147389
v -0.02308183 0.01116308 0.03377497
v -0.02028264 0.01633998 0.03491648
v -0.02300407 0.02098369 0.02440219
v -0.01833218 0.00715371 0.04246131
v -0.01623893 0.01152747 0.04343775
v -0.01104306 0.00107201 0.04763749
v -0.01003260 0.00361889 0.04806111
v -0.02794301 -0.00647224 0.01804197
v -0.02487702 -0.00725025 0.03023824
v -0.02452803 0.00848844 0.03318520
v -0.02729005 0.01097846 0.02101843
v -0.02078003 -0.00720560 0.03851810
v -0.01934874 0.00502964 0.04198711
v -0.01229641 -0.00698619 0.04575967
v -0.01163343 -0.00041605 0.04738998
v -0.02209610 -0.02135808 0.02729128
v -0.01789512 -0.01870898 0.03628433
v -0.01126513 -0.01409299 0.04423418
v -0.01831829 -0.02694901 0.02619401
v -0.01551916 -0.02458405 0.03518808
v -0.00958880 -0.01832826 0.04340626
v -0.01152558 -0.03171129 0.02513793
v -0.00972415 -0.02851897 0.03426752
v -0.00619247 -0.02170140 0.04306397
v -0.00668678 -0.03379817 0.01419170
v -0.00629219 -0.03300920 0.02447232
v -0.01322177 -0.03234232 0.01415525
v -0.00488577 -0.02944293 0.03412279
v -0.00306722 -0.02236532 0.04300967
v -0.02118767 0.02778214 0.01291953
v -0.02106831 0.05815660 0.00563749
v -0.01875629 0.06088545 0.00761165
v -0.01808918 0.03130578 0.01530818
v -0.00665504 -0.03370915 0.01191818
v -0.02649221 0.04936682 0.00194003
v -0.02344010 0.05657297 0.00501553
v -0.02258736 0.05636369 0.00434043
v -0.02548684 0.04923569 0.00139904
v -0.00602388 0.03827096 0.02040300
v -0.01459424 0.03528026 0.01800246
v -0.01471061 0.06314347 0.01074986
v -0.00603328 0.06449046 0.01433646
v -0.00635414 0.06476921 0.01534233
v -0.00635414 0.03890690 0.02122696
v -0.02747658 0.01180709 0.00679016
v -0.02829647 -0.00501745 0.00400572
v -0.02813636 -0.00567643 0.01036375
v -0.02739380 0.01143934 0.01310468
v -0.02391073 -0.01963154 0.00124348
v -0.02394116 -0.02069693 0.00821812
v -0.01946438 -0.02509811 0.00091237
v -0.01956903 -0.02640016 0.00750833
v -0.01277755 -0.03012186 0.00000000
v -0.01300725 -0.03138736 0.00669130
v -0.00626192 0.03699384 0.02490984
v -0.01426645 0.03232111 0.02924803
v -0.00612747 0.03420443 0.03027980
v -0.02397482 -0.02187503 0.01593051
v -0.01969025 -0.02790834 0.01514852
v -0.02081768 0.02601825 0.01899922
v -0.02188581 0.02302946 0.01805433
v -0.02233226 0.02424213 0.01153798
v -0.01366162 0.03332886 0.02360076
v -0.01734381 0.02956714 0.02123301
v -0.01808902 0.03130596 0.01530830
v -0.01195158 0.02640477 0.03686533
v -0.00536055 0.02766789 0.03755666
v -0.00438045 0.01862748 0.04533567
v -0.00924003 0.01862562 0.04442140
v -0.00249156 0.00955181 0.04796159
v -0.00546331 0.00902047 0.04779622
v -0.02045428 0.02428580 0.02497051
v -0.01672741 0.02781322 0.02681798
v -0.01496635 0.02262674 0.03594172
v -0.01755735 0.01937975 0.03514794
v -0.01437289 0.01373534 0.04318424
v -0.01188038 0.01611005 0.04378500
v -0.00731796 0.00721762 0.04758163
v -0.00875855 0.00581726 0.04741495
v -0.02367369 0.01616566 0.02324614
v -0.02152856 0.02157621 0.02439511
v -0.01890325 0.01689237 0.03460867
v -0.02122155 0.01260788 0.03367978
v -0.01537262 0.01163185 0.04272148
v -0.01695706 0.00829810 0.04198807
v -0.00947386 0.00397689 0.04711587
v -0.01031044 0.00182456 0.04676609
v -0.02686765 -0.00647892 0.01896179
v -0.02581883 0.01075510 0.02209717
v -0.02353985 0.00832339 0.03275090
v -0.02384879 -0.00718848 0.02987591
v -0.01854149 0.00496434 0.04125466
v -0.01992465 -0.00707237 0.03785255
v -0.01114701 -0.00032777 0.04641631
v -0.01176246 -0.00678620 0.04482838
v -0.02110436 -0.02102824 0.02697497
v -0.01706331 -0.01837088 0.03566290
v -0.01072052 -0.01380366 0.04333301
v -0.01750834 -0.02626650 0.02592841
v -0.01483008 -0.02395511 0.03462063
v -0.00912364 -0.01786719 0.04253252
v -0.01104093 -0.03076260 0.02489818
v -0.00933160 -0.02765449 0.03372811
v -0.00594496 -0.02108377 0.04219814
v -0.00643832 -0.03276499 0.01423504
v -0.01273924 -0.03136377 0.01419962
v -0.00604263 -0.03200329 0.02423548
v -0.00468364 -0.02853576 0.03358601
v -0.00293977 -0.02172110 0.04214651
v -0.00643933 -0.03266390 0.01204111
v -0.02642552 0.01158241 0.00659729
v -0.02612381 0.01117099 0.01430535
v -0.02704818 -0.00573744 0.01109126
v -0.02721384 -0.00505701 0.00386887
v -0.02289622 -0.02047302 0.00853852
v -0.02285810 -0.01935449 0.00115643
v -0.01870390 -0.02583464 0.00797826
v -0.01857998 -0.02446019 0.00096971
v -0.01253671 -0.03047593 0.00711758
v -0.01229736 -0.02915863 0.00018424
v -0.00594550 0.03571192 0.02520226
v -0.01280146 0.03152907 0.02876414
v -0.00587183 0.03330647 0.02971350
v -0.02293372 -0.02157309 0.01579873
v -0.01883024 -0.02723590 0.01512353
v -0.00662331 -0.03362013 0.01037303
v -0.00913315 -0.03198854 0.00694334
v -0.00897212 -0.03093142 0.00716465
v -0.00644035 -0.03256281 0.01057555
v -0.01124441 -0.03033181 0.00004684
v -0.01110527 -0.02926979 0.00025933
v -0.01529372 0.06338770 0.01164021
v -0.02214705 0.02807869 0.01334856
v -0.02359454 0.02365934 0.01156730
v -0.02351885 0.02202889 0.01687328
v -0.02182034 0.02667067 0.01876190
v -0.02402616 0.00941661 0.03338987
v -0.02684707 0.01201132 0.02116286
v -0.01900464 0.00574863 0.04214763
v -0.02723178 0.04534629 0.00111956
v -0.02627326 0.04523023 0.00057996
v -0.01139300 0.00018996 0.04749078
v -0.02747658 0.04265942 0.00109815
v -0.02652932 0.04254943 0.00057190
v -0.02233226 0.02424212 0.01153797
v -0.02177335 0.05849542 0.00643831
v -0.01956398 0.06104375 0.00832429
v -0.01971545 0.03081376 0.01523673
v -0.01189644 -0.03019371 0.00003227
v -0.01095725 -0.03170548 0.00682467
v -0.02400481 0.01710023 0.01617984
v -0.02437889 0.01791227 0.00906764
v -0.02506432 0.01413561 0.01524259
v -0.02540220 0.01474734 0.00783246
v -0.02474626 0.01346038 0.02267166
v -0.01072872 0.00074839 0.04659120
v -0.01774928 0.00663122 0.04162137
v -0.02238070 0.01046563 0.03321534
v -0.02540221 0.01474733 0.00783246
v -0.01023796 -0.03076967 0.00714793
v -0.01180501 -0.02920454 0.00021525
v -0.01181730 -0.02920339 0.00021448
f 1 2 3
f 2 4 3
f 4 5 3
f 5 6 3
f 6 7 3
f 7 8 3
f 8 9 3
f 9 1 3
f 10 11 12
f 13 14 12
f 15 16 12
f 16 17 12
f 17 18 12
f 18 19 12
f 19 20 12
f 21 22 12
f 12 11 23
f 24 25 26
f 27 25 28
f 29 25 30
f 30 25 31
f 31 25 32
f 32 25 33
f 34 25 35
f 36 25 37
f 25 38 26
f 12 39 40
f 40 21 12
f 12 22 10
f 12 20 39
f 37 25 24
f 41 25 36
f 33 25 34
f 35 25 41
f 12 14 15
f 42 12 43
f 13 12 44
f 45 12 46
f 46 12 47
f 47 12 48
f 48 12 49
f 49 12 50
f 51 12 52
f 12 23 43
f 53 54 25
f 27 55 25
f 56 57 25
f 57 58 25
f 58 59 25
f 59 60 25
f 61 62 25
f 63 64 25
f 25 54 38
f 12 65 66
f 65 12 51
f 12 42 52
f 12 66 50
f 64 53 25
f 67 63 25
f 60 61 25
f 62 67 25
f 12 45 44
f 28 25 29
f 25 55 56
f 68 69 70
f 68 70 71
f 72 73 74
f 72 74 68
f 69 75 76
f 69 76 70
f 77 78 79
f 77 79 80
f 81 82 83
f 81 83 84
f 85 86 75
f 85 75 69
f 87 88 89
f 87 89 90
f 88 91 92
f 88 92 89
f 93 94 95
f 93 95 82
f 96 97 92
f 96 92 91
f 98 85 69
f 98 69 99
f 74 99 69
f 74 69 68
f 100 93 82
f 100 82 81
f 101 72 68
f 101 68 71
f 97 102 103
f 97 103 92
f 104 105 78
f 104 78 77
f 92 103 106
f 92 106 89
f 104 77 107
f 104 107 108
f 109 110 111
f 109 111 87
f 112 113 114
f 112 114 115
f 116 117 118
f 116 118 76
f 113 119 120
f 113 120 114
f 70 76 118
f 70 118 121
f 71 70 121
f 71 121 111
f 86 116 76
f 86 76 75
f 110 101 71
f 110 71 111
f 115 114 93
f 115 93 100
f 114 120 94
f 114 94 93
f 77 80 119
f 77 119 113
f 107 77 113
f 107 113 112
f 122 109 87
f 122 87 90
f 117 96 91
f 117 91 118
f 121 118 91
f 121 91 88
f 111 121 88
f 111 88 87
f 123 124 125
f 123 125 126
f 127 128 129
f 127 129 130
f 128 123 126
f 128 126 129
f 131 132 133
f 131 133 134
f 135 136 137
f 135 137 138
f 124 131 134
f 124 134 125
f 136 127 130
f 136 130 137
f 108 139 140
f 108 140 141
f 142 143 144
f 142 144 145
f 139 142 145
f 139 145 140
f 146 147 148
f 146 148 149
f 143 150 151
f 143 151 144
f 150 152 153
f 150 153 151
f 81 84 152
f 81 152 150
f 100 81 150
f 100 150 143
f 112 115 142
f 112 142 139
f 115 100 143
f 115 143 142
f 107 112 139
f 107 139 108
f 149 104 108
f 149 108 141
f 149 148 105
f 149 105 104
f 82 95 127
f 82 127 136
f 119 80 131
f 119 131 124
f 83 82 136
f 83 136 135
f 80 79 132
f 80 132 131
f 94 120 123
f 94 123 128
f 95 94 128
f 95 128 127
f 120 119 124
f 120 124 123
f 126 125 96
f 126 96 117
f 130 129 116
f 130 116 86
f 129 126 117
f 129 117 116
f 134 133 102
f 134 102 97
f 138 137 85
f 138 85 98
f 125 134 97
f 125 97 96
f 137 130 86
f 137 86 85
f 89 106 147
f 89 147 146
f 89 146 122
f 89 122 90
f 141 140 109
f 141 109 122
f 145 144 101
f 145 101 110
f 140 145 110
f 140 110 109
f 144 151 72
f 144 72 101
f 151 153 73
f 151 73 72
f 154 2 1
f 154 1 155
f 155 1 9
f 155 9 156
f 156 9 8
f 156 8 157
f 157 8 7
f 157 7 158
f 158 7 6
f 158 6 159
f 159 6 5
f 159 5 160
f 160 5 4
f 160 4 161
f 161 4 2
f 161 2 154
f 162 161 154
f 162 154 163
f 164 160 161
f 164 161 162
f 165 159 160
f 165 160 164
f 166 158 159
f 166 159 165
f 167 157 158
f 167 158 166
f 168 156 157
f 168 157 167
f 169 155 156
f 169 156 168
f 163 154 155
f 163 155 169
f 170 171 172
f 170 172 173
f 174 175 176
f 174 176 177
f 178 179 180
f 178 180 181
f 181 180 182
f 181 182 183
f 183 182 11
f 183 11 10
f 184 185 186
f 184 186 187
f 188 189 190
f 188 190 191
f 191 190 22
f 191 22 21
f 192 193 194
f 192 194 195
f 195 194 196
f 195 196 197
f 197 196 198
f 197 198 199
f 199 198 40
f 199 40 39
f 200 201 202
f 200 202 203
f 203 202 204
f 203 204 205
f 205 204 206
f 205 206 207
f 207 206 19
f 207 19 18
f 208 203 205
f 208 205 209
f 209 205 207
f 209 207 210
f 210 207 18
f 210 18 17
f 211 208 209
f 211 209 212
f 212 209 210
f 212 210 213
f 213 210 17
f 213 17 16
f 214 211 212
f 214 212 215
f 215 212 213
f 215 213 216
f 216 213 16
f 216 16 15
f 217 218 214
f 217 214 219
f 219 214 215
f 219 215 220
f 220 215 216
f 220 216 221
f 221 216 15
f 221 15 14
f 180 179 222
f 180 222 223
f 182 180 223
f 182 223 224
f 11 182 224
f 11 224 23
f 225 226 227
f 225 227 228
f 229 217 230
f 229 230 231
f 232 233 234
f 232 234 235
f 236 237 238
f 236 238 239
f 240 241 242
f 240 242 243
f 244 245 246
f 244 246 247
f 247 246 248
f 247 248 249
f 249 248 250
f 249 250 251
f 251 250 252
f 251 252 253
f 240 254 255
f 240 255 241
f 256 257 179
f 256 179 178
f 187 186 189
f 187 189 188
f 258 200 203
f 258 203 208
f 259 258 208
f 259 208 211
f 218 259 211
f 218 211 214
f 179 257 260
f 179 260 222
f 241 255 175
f 241 175 174
f 225 261 262
f 225 262 263
f 239 264 265
f 239 265 266
f 267 268 269
f 267 269 270
f 268 271 272
f 268 272 269
f 271 24 26
f 271 26 272
f 273 274 275
f 273 275 276
f 277 278 279
f 277 279 280
f 278 36 37
f 278 37 279
f 281 282 283
f 281 283 284
f 282 285 286
f 282 286 283
f 285 287 288
f 285 288 286
f 287 35 41
f 287 41 288
f 289 290 291
f 289 291 292
f 290 293 294
f 290 294 291
f 293 295 296
f 293 296 294
f 295 32 33
f 295 33 296
f 297 298 293
f 297 293 290
f 298 299 295
f 298 295 293
f 299 31 32
f 299 32 295
f 300 301 298
f 300 298 297
f 301 302 299
f 301 299 298
f 302 30 31
f 302 31 299
f 303 304 301
f 303 301 300
f 304 305 302
f 304 302 301
f 305 29 30
f 305 30 302
f 306 307 303
f 306 303 308
f 307 309 304
f 307 304 303
f 309 310 305
f 309 305 304
f 310 28 29
f 310 29 305
f 269 311 312
f 269 312 270
f 272 313 311
f 272 311 269
f 26 38 313
f 26 313 272
f 314 315 316
f 314 316 306
f 317 318 237
f 317 237 236
f 319 320 321
f 319 321 322
f 320 323 324
f 320 324 321
f 323 325 326
f 323 326 324
f 325 327 328
f 325 328 326
f 317 236 329
f 317 329 330
f 331 267 270
f 331 270 332
f 274 277 280
f 274 280 275
f 333 297 290
f 333 290 289
f 334 300 297
f 334 297 333
f 308 303 300
f 308 300 334
f 270 312 335
f 270 335 332
f 236 239 266
f 236 266 329
f 249 323 320
f 249 320 247
f 251 325 323
f 251 323 249
f 253 327 325
f 253 325 251
f 336 337 338
f 336 338 339
f 339 338 340
f 339 340 341
f 342 238 237
f 342 237 242
f 242 237 318
f 242 318 243
f 343 344 345
f 343 345 346
f 201 347 348
f 201 348 202
f 202 348 349
f 202 349 204
f 247 320 319
f 247 319 244
f 350 351 233
f 350 233 232
f 204 349 352
f 204 352 206
f 206 352 20
f 206 20 19
f 244 319 353
f 244 353 354
f 241 174 342
f 241 342 242
f 225 228 234
f 225 234 355
f 354 353 351
f 354 351 350
f 232 170 173
f 232 173 350
f 235 234 228
f 235 228 356
f 357 227 238
f 357 238 342
f 343 356 357
f 343 357 358
f 235 356 343
f 235 343 346
f 359 360 337
f 359 337 336
f 361 27 28
f 361 28 310
f 362 361 310
f 362 310 309
f 363 362 309
f 363 309 307
f 316 363 307
f 316 307 306
f 364 221 14
f 364 14 13
f 365 220 221
f 365 221 364
f 366 219 220
f 366 220 365
f 230 217 219
f 230 219 366
f 248 246 200
f 248 200 258
f 255 254 260
f 255 260 257
f 250 248 258
f 250 258 259
f 344 176 185
f 344 185 184
f 252 367 368
f 252 368 253
f 252 250 259
f 252 259 218
f 246 245 201
f 246 201 200
f 171 345 193
f 171 193 192
f 245 172 347
f 245 347 201
f 175 255 257
f 175 257 256
f 266 265 276
f 266 276 331
f 326 328 308
f 326 308 334
f 322 321 289
f 322 289 292
f 330 329 332
f 330 332 335
f 329 266 331
f 329 331 332
f 321 324 333
f 321 333 289
f 263 262 284
f 263 284 273
f 324 326 334
f 324 334 333
f 356 228 227
f 356 227 357
f 198 196 188
f 198 188 191
f 193 345 344
f 193 344 184
f 346 345 171
f 346 171 170
f 40 198 191
f 40 191 21
f 194 193 184
f 194 184 187
f 196 194 187
f 196 187 188
f 346 170 232
f 346 232 235
f 177 176 344
f 177 344 343
f 358 357 342
f 358 342 174
f 186 185 256
f 186 256 178
f 189 186 178
f 189 178 181
f 185 176 175
f 185 175 256
f 190 189 181
f 190 181 183
f 22 190 183
f 22 183 10
f 347 172 171
f 347 171 192
f 348 347 192
f 348 192 195
f 350 173 244
f 350 244 354
f 352 349 197
f 352 197 199
f 173 172 245
f 173 245 244
f 349 348 195
f 349 195 197
f 20 352 199
f 20 199 39
f 284 262 369
f 284 369 281
f 265 264 225
f 265 225 263
f 276 275 267
f 276 267 331
f 275 280 268
f 275 268 267
f 280 279 271
f 280 271 268
f 276 265 263
f 276 263 273
f 227 226 239
f 227 239 238
f 279 37 24
f 279 24 271
f 284 283 274
f 284 274 273
f 286 288 278
f 286 278 277
f 283 286 277
f 283 277 274
f 355 234 233
f 355 233 370
f 371 372 319
f 371 319 322
f 373 371 322
f 373 322 292
f 288 41 36
f 288 36 278
f 262 261 370
f 262 370 369
f 374 34 35
f 374 35 287
f 375 374 287
f 375 287 285
f 376 375 285
f 376 285 282
f 373 376 282
f 373 282 281
f 370 233 351
f 370 351 377
f 292 291 376
f 292 376 373
f 291 294 375
f 291 375 376
f 294 296 374
f 294 374 375
f 296 33 34
f 296 34 374
f 281 369 371
f 281 371 373
f 369 370 372
f 369 372 371
f 377 351 353
f 377 353 319
f 336 229 231
f 336 231 359
f 368 367 339
f 368 339 341
f 367 229 336
f 367 336 339
f 337 360 315
f 337 315 314
f 378 379 340
f 378 340 338
f 314 378 338
f 314 338 337
f 368 380 327
f 368 327 253
f 381 382 383
f 381 383 384
f 385 386 387
f 385 387 388
f 389 390 391
f 389 391 392
f 390 393 394
f 390 394 391
f 393 42 43
f 393 43 394
f 395 396 397
f 395 397 398
f 399 400 401
f 399 401 402
f 400 51 52
f 400 52 401
f 403 404 405
f 403 405 406
f 404 407 408
f 404 408 405
f 407 409 410
f 407 410 408
f 409 66 65
f 409 65 410
f 411 412 413
f 411 413 414
f 412 415 416
f 412 416 413
f 415 417 418
f 415 418 416
f 417 48 49
f 417 49 418
f 419 420 415
f 419 415 412
f 420 421 417
f 420 417 415
f 421 47 48
f 421 48 417
f 422 423 420
f 422 420 419
f 423 424 421
f 423 421 420
f 424 46 47
f 424 47 421
f 425 426 423
f 425 423 422
f 426 427 424
f 426 424 423
f 427 45 46
f 427 46 424
f 428 429 425
f 428 425 430
f 429 431 426
f 429 426 425
f 431 432 427
f 431 427 426
f 432 44 45
f 432 45 427
f 391 223 222
f 391 222 392
f 394 224 223
f 394 223 391
f 43 23 224
f 43 224 394
f 433 434 435
f 433 435 436
f 437 231 230
f 437 230 428
f 438 439 440
f 438 440 441
f 442 443 444
f 442 444 445
f 240 243 446
f 240 446 447
f 448 449 450
f 448 450 451
f 449 452 453
f 449 453 450
f 452 454 455
f 452 455 453
f 454 456 457
f 454 457 455
f 240 447 458
f 240 458 254
f 459 389 392
f 459 392 460
f 396 399 402
f 396 402 397
f 461 419 412
f 461 412 411
f 462 422 419
f 462 419 461
f 430 425 422
f 430 422 462
f 392 222 260
f 392 260 460
f 447 385 388
f 447 388 458
f 433 463 464
f 433 464 465
f 443 466 467
f 443 467 468
f 469 470 471
f 469 471 472
f 472 471 473
f 472 473 474
f 474 473 54
f 474 54 53
f 475 476 477
f 475 477 478
f 479 480 481
f 479 481 482
f 482 481 64
f 482 64 63
f 483 484 485
f 483 485 486
f 486 485 487
f 486 487 488
f 488 487 489
f 488 489 490
f 490 489 67
f 490 67 62
f 491 492 493
f 491 493 494
f 494 493 495
f 494 495 496
f 496 495 497
f 496 497 498
f 498 497 60
f 498 60 59
f 499 494 496
f 499 496 500
f 500 496 498
f 500 498 501
f 501 498 59
f 501 59 58
f 502 499 500
f 502 500 503
f 503 500 501
f 503 501 504
f 504 501 58
f 504 58 57
f 505 502 503
f 505 503 506
f 506 503 504
f 506 504 507
f 507 504 57
f 507 57 56
f 508 509 505
f 508 505 510
f 510 505 506
f 510 506 511
f 511 506 507
f 511 507 512
f 512 507 56
f 512 56 55
f 471 470 312
f 471 312 311
f 473 471 311
f 473 311 313
f 54 473 313
f 54 313 38
f 513 508 316
f 513 316 315
f 317 442 445
f 317 445 318
f 514 515 516
f 514 516 517
f 517 516 518
f 517 518 519
f 519 518 520
f 519 520 521
f 521 520 522
f 521 522 523
f 317 330 524
f 317 524 442
f 525 526 470
f 525 470 469
f 478 477 480
f 478 480 479
f 527 491 494
f 527 494 499
f 528 527 499
f 528 499 502
f 509 528 502
f 509 502 505
f 470 526 335
f 470 335 312
f 442 524 466
f 442 466 443
f 452 449 517
f 452 517 519
f 454 452 519
f 454 519 521
f 456 454 521
f 456 521 523
f 529 530 531
f 529 531 532
f 530 533 534
f 530 534 531
f 535 446 445
f 535 445 444
f 446 243 318
f 446 318 445
f 536 537 538
f 536 538 539
f 414 413 540
f 414 540 541
f 413 416 542
f 413 542 540
f 449 448 514
f 449 514 517
f 543 438 441
f 543 441 544
f 416 418 545
f 416 545 542
f 418 49 50
f 418 50 545
f 448 546 547
f 448 547 514
f 447 446 535
f 447 535 385
f 433 548 440
f 433 440 434
f 546 543 544
f 546 544 547
f 438 543 382
f 438 382 381
f 439 549 434
f 439 434 440
f 550 535 444
f 550 444 435
f 536 551 550
f 536 550 549
f 439 537 536
f 439 536 549
f 359 529 532
f 359 532 360
f 361 512 55
f 361 55 27
f 362 511 512
f 362 512 361
f 363 510 511
f 363 511 362
f 316 508 510
f 316 510 363
f 364 13 44
f 364 44 432
f 365 364 432
f 365 432 431
f 366 365 431
f 366 431 429
f 230 366 429
f 230 429 428
f 453 461 411
f 453 411 450
f 458 460 260
f 458 260 254
f 455 462 461
f 455 461 453
f 539 395 398
f 539 398 387
f 457 456 552
f 457 552 553
f 457 430 462
f 457 462 455
f 450 411 414
f 450 414 451
f 384 403 406
f 384 406 538
f 451 414 541
f 451 541 383
f 388 459 460
f 388 460 458
f 466 525 476
f 466 476 467
f 520 528 509
f 520 509 522
f 515 492 491
f 515 491 516
f 330 335 526
f 330 526 524
f 524 526 525
f 524 525 466
f 516 491 527
f 516 527 518
f 463 475 484
f 463 484 464
f 518 527 528
f 518 528 520
f 549 550 435
f 549 435 434
f 410 400 399
f 410 399 408
f 406 395 539
f 406 539 538
f 537 381 384
f 537 384 538
f 65 51 400
f 65 400 410
f 405 396 395
f 405 395 406
f 408 399 396
f 408 396 405
f 537 439 438
f 537 438 381
f 386 536 539
f 386 539 387
f 551 385 535
f 551 535 550
f 397 389 459
f 397 459 398
f 402 390 389
f 402 389 397
f 398 459 388
f 398 388 387
f 401 393 390
f 401 390 402
f 52 42 393
f 52 393 401
f 541 403 384
f 541 384 383
f 540 404 403
f 540 403 541
f 543 546 448
f 543 448 382
f 545 409 407
f 545 407 542
f 382 448 451
f 382 451 383
f 542 407 404
f 542 404 540
f 50 66 409
f 50 409 545
f 484 483 554
f 484 554 464
f 467 463 433
f 467 433 468
f 476 525 469
f 476 469 477
f 477 469 472
f 477 472 480
f 480 472 474
f 480 474 481
f 476 475 463
f 476 463 467
f 435 444 443
f 435 443 436
f 481 474 53
f 481 53 64
f 484 475 478
f 484 478 485
f 487 479 482
f 487 482 489
f 485 478 479
f 485 479 487
f 548 555 441
f 548 441 440
f 556 515 514
f 556 514 557
f 558 492 515
f 558 515 556
f 489 482 63
f 489 63 67
f 464 554 555
f 464 555 465
f 559 490 62
f 559 62 61
f 560 488 490
f 560 490 559
f 561 486 488
f 561 488 560
f 558 483 486
f 558 486 561
f 555 562 544
f 555 544 441
f 492 558 561
f 492 561 493
f 493 561 560
f 493 560 495
f 495 560 559
f 495 559 497
f 497 559 61
f 497 61 60
f 483 558 556
f 483 556 554
f 554 556 557
f 554 557 555
f 562 514 547
f 562 547 544
f 529 359 231
f 529 231 437
f 552 533 530
f 552 530 553
f 553 530 529
f 553 529 437
f 532 513 315
f 532 315 360
f 563 531 534
f 563 534 564
f 513 532 531
f 513 531 563
f 552 456 523
f 552 523 565
f 122 146 149
f 122 149 141
f 380 328 327
f 328 380 379
f 328 379 378
f 379 341 340
f 341 379 368
f 368 379 380
f 218 367 252
f 367 218 229
f 229 218 217
f 378 308 328
f 308 378 314
f 308 314 306
f 522 565 523
f 565 522 564
f 564 522 563
f 565 533 552
f 533 565 564
f 533 564 534
f 553 430 457
f 430 553 437
f 430 437 428
f 509 563 522
f 563 509 513
f 513 509 508