# https://github.com/mikedh/trimesh
v 0.02073613 -0.03815757 0.01065016
v 0.02841006 -0.03377488 0.01065016
v 0.02841006 -0.03377488 0.00557034
v 0.02123096 -0.03758818 0.00557034
v 0.02231832 -0.03899414 0.01065016
v 0.02949742 -0.03518086 0.01065016
v 0.02231832 -0.03899414 0.00557034
v 0.02949742 -0.03518086 0.00557034
v -0.01676242 -0.03957926 0.00529152
v -0.01676242 -0.03957926 0.01037134
v -0.01604078 -0.03793713 0.01037134
v -0.01604078 -0.03793713 0.00529152
v -0.01030379 -0.04303143 0.00529152
v -0.01102541 -0.04467362 0.00529152
v -0.01102541 -0.04467362 0.01037134
v -0.01030379 -0.04303143 0.01037134
v 0.00434729 -0.04432006 0.00657432
v 0.00472284 -0.04603889 0.00657432
v 0.00472284 -0.04603889 0.01165411
v 0.00434729 -0.04432006 0.01165411
v 0.01046039 -0.04298439 0.00657432
v 0.01083594 -0.04470322 0.00657432
v 0.01083594 -0.04470322 0.01165411
v 0.01046039 -0.04298439 0.01165411
v 0.02345928 -0.03858640 0.06930622
v 0.03159365 -0.03410313 0.06930622
v 0.03159365 -0.03410313 0.06422640
v 0.02395412 -0.03801701 0.06422640
v 0.02504148 -0.03942298 0.06930622
v 0.03268101 -0.03550908 0.06930622
v 0.02504148 -0.03942298 0.06422640
v 0.03268101 -0.03550908 0.06422640
v -0.01676242 -0.03957926 0.06394760
v -0.01676242 -0.03957926 0.06902739
v -0.01604078 -0.03793713 0.06902739
v -0.01604078 -0.03793713 0.06394760
v -0.01030379 -0.04303143 0.06394760
v -0.01102541 -0.04467362 0.06394760
v -0.01102541 -0.04467362 0.06902739
v -0.01030379 -0.04303143 0.06902739
v 0.00360570 -0.04448209 0.06523037
v 0.00398126 -0.04620092 0.06523037
v 0.00398126 -0.04620092 0.07031019
v 0.00360570 -0.04448209 0.07031019
v 0.00971881 -0.04314642 0.06523037
v 0.01009436 -0.04486526 0.06523037
v 0.01009436 -0.04486526 0.07031019
v 0.00971881 -0.04314642 0.07031019
v -0.00963570 -0.04317200 0.02682811
v -0.01493060 -0.04003320 0.02677922
v -0.01602351 -0.03928912 0.00619749
v -0.01085341 -0.04245567 0.00619749
v -0.01122670 -0.04330306 0.06738618
v -0.01667122 -0.03956094 0.06705047
v -0.01627299 -0.03925204 0.04697571
v -0.01092552 -0.04241386 0.04717944
v -0.00893770 -0.04214386 0.02682919
v -0.01015129 -0.04143002 0.00619916
v -0.01532140 -0.03826348 0.00619916
v -0.01423261 -0.03900507 0.02678030
v -0.01049019 -0.04230006 0.06743559
v -0.01021394 -0.04139378 0.04719983
v -0.01556141 -0.03823196 0.04699611
v -0.01593471 -0.03855793 0.06709987
v 0.00966874 -0.04239621 0.02694307
v 0.00356223 -0.04337705 0.02692194
v 0.00472177 -0.04360067 0.00622174
v 0.01083455 -0.04257688 0.00622174
v 0.01010265 -0.04464685 0.06829454
v 0.00450304 -0.04578288 0.06810159
v 0.00315780 -0.04332576 0.04747188
v 0.00928424 -0.04230284 0.04755920
v 0.00948133 -0.04120440 0.02692783
v 0.01064698 -0.04138524 0.00619916
v 0.00453421 -0.04240903 0.00619916
v 0.00337482 -0.04218523 0.02690670
v 0.00988937 -0.04345892 0.06836456
v 0.00908183 -0.04111293 0.04762959
v 0.00295539 -0.04213584 0.04754227
v 0.00428977 -0.04459494 0.06817161
v 0.03084942 -0.03438607 0.02706656
v 0.02412789 -0.03850969 0.02702366
v 0.02188419 -0.03857776 0.00612208
v 0.02836992 -0.03415859 0.00612208
v 0.03206889 -0.03412171 0.06842245
v 0.02523952 -0.03895641 0.06826197
v 0.02263588 -0.03864342 0.04804771
v 0.02943586 -0.03469314 0.04821227
v 0.03016809 -0.03337803 0.02708939
v 0.02767032 -0.03316654 0.00619916
v 0.02118459 -0.03758571 0.00619916
v 0.02344655 -0.03750165 0.02704649
v 0.03133211 -0.03315035 0.06845637
v 0.02875480 -0.03368492 0.04823536
v 0.02195481 -0.03763522 0.04807081
v 0.02450274 -0.03798505 0.06829589
v -0.00807685 -0.00933378 0.02185984
v -0.01282066 -0.00945264 0.01947919
v -0.01152436 -0.00995219 0.01827952
v -0.00679522 -0.00984775 0.01849947
v -0.00371310 -0.00976402 0.02104273
v -0.00377700 -0.00948274 0.02349508
v -0.00975593 -0.00872307 0.02472556
v -0.01314137 -0.00882245 0.02207703
v -0.00564547 -0.00879718 0.02541293
v -0.00189404 -0.01431100 0.01624102
v -0.00013386 -0.01546977 0.01633416
v -0.00160834 -0.01474960 0.02037427
v -0.00208596 -0.01284587 0.01735946
v 0.00325698 -0.00905898 0.02614044
v 0.00453860 -0.00957295 0.02278007
v 0.00823248 -0.00947317 0.02574143
v 0.00839010 -0.00893837 0.02749021
v 0.00054482 -0.00966078 0.02265088
v -0.00103958 -0.00941637 0.02452897
v 0.00259591 -0.00842358 0.02939071
v 0.00688723 -0.00833684 0.02964158
v -0.00093558 -0.00868298 0.02719180
v 0.00254709 -0.01420333 0.01791838
v 0.00188978 -0.01274947 0.01886105
v -0.00037940 -0.01471980 0.02083844
v 0.00121560 -0.01543705 0.01684380
v -0.01696870 0.01780911 0.02223666
v -0.02047851 0.00995442 0.02242168
v -0.01950450 0.00986778 0.02946051
v -0.01865825 0.01446950 0.02692446
v -0.00397743 0.01217564 0.00258964
v -0.00270317 0.01756605 0.00361855
v -0.00326938 0.01055962 0.00339281
v -0.00589569 0.00955261 0.00235814
v -0.01668631 0.01858665 0.03011470
v -0.01489180 0.02213377 0.02513568
v -0.01751420 0.01044142 0.03282956
v -0.01634949 -0.01061917 0.02242220
v -0.01349852 -0.01532764 0.02385156
v -0.01468953 -0.01219634 0.02680396
v -0.01771126 -0.00895509 0.02592091
v -0.00179553 0.01059535 0.00394948
v -0.00194776 0.01758436 0.00390383
v -0.01068029 0.02223588 0.02672631
v -0.01247481 0.01868877 0.03170533
v -0.01371570 0.01054167 0.03551384
v -0.00987097 -0.01522815 0.02698852
v -0.01096802 -0.01209644 0.02969209
v -0.00801941 -0.01678647 0.00813937
v -0.00190598 -0.02046062 0.00784226
v -0.00368679 -0.01836025 0.01242245
v -0.00872131 -0.01480459 0.00987055
v -0.00152382 -0.01830781 0.01323936
v 0.00025698 -0.02040817 0.00865918
v -0.00814798 0.02235067 0.01027459
v -0.00493035 0.02242869 0.01148982
v -0.00812421 0.01807382 0.00918742
v -0.01267358 0.01003768 0.00912803
v -0.01185490 -0.01383948 0.01318756
v -0.01038992 -0.01481441 0.01558803
v -0.01145831 -0.01298441 0.01829930
v -0.01358109 -0.01335764 0.01526810
v -0.00672917 -0.01287996 0.01851925
v -0.00583333 -0.01471075 0.01626483
v -0.00687504 0.02365206 0.01656024
v -0.01075525 0.02355798 0.01509473
v -0.01205889 0.02416163 0.01750482
v -0.00784739 0.02426374 0.01909545
v -0.01430154 0.01971833 0.01505227
v -0.01224242 0.01917016 0.01309734
v -0.01610744 0.01090281 0.01324648
v -0.01782438 0.01133538 0.01530569
v -0.01542670 -0.01153200 0.02003748
v -0.01307533 -0.01185467 0.02209682
v -0.00968989 -0.01175528 0.02474536
v -0.00973599 0.02291183 0.02418271
v -0.01394750 0.02280972 0.02259203
v -0.01607965 0.01844552 0.01984188
v -0.01959379 0.01041474 0.02004965
v -0.01715956 -0.00583997 0.03293578
v -0.01917061 -0.00546113 0.02956049
v -0.01336107 -0.00573972 0.03562011
v -0.00565240 -0.00578815 0.00246507
v -0.00144090 -0.00568604 0.00405570
v -0.00675561 -0.00444519 0.00200959
v -0.01234272 -0.00515229 0.00922718
v -0.01743389 -0.00659234 0.01542266
v -0.01573683 -0.00611232 0.01335751
v -0.02014765 -0.00523555 0.02252078
v -0.01924306 -0.00568781 0.02015474
v -0.01733688 0.00230072 0.03288267
v -0.01933756 0.00220332 0.02951047
v -0.01353839 0.00240097 0.03556695
v -0.00582972 0.00235253 0.00241196
v -0.00161822 0.00245465 0.00400259
v -0.00690775 0.00253959 0.00196399
v -0.01202440 0.00244487 0.00789665
v -0.01863020 0.00234724 0.01498611
v -0.01642827 0.00237979 0.01262294
v -0.02079681 0.00235725 0.02375214
v -0.02007461 0.00235392 0.02083014
v 0.00131334 -0.00561926 0.00509594
v 0.00167151 -0.02037388 0.00919346
v 0.00113602 0.00252143 0.00504283
v 0.00095871 0.01066213 0.00498967
v 0.00080648 0.01765114 0.00494407
v -0.00217611 0.02249546 0.01253007
v -0.00509315 0.02433052 0.02013570
v -0.00412080 0.02371884 0.01760049
v -0.00792605 0.02230266 0.02776656
v -0.00698175 0.02297861 0.02522290
v -0.00972057 0.01875554 0.03274558
v -0.01107591 0.01060794 0.03685716
v -0.01089860 0.00246723 0.03691027
v -0.01072128 -0.00567346 0.03696338
v -0.00799866 -0.01202869 0.03016271
v -0.00673183 -0.01515964 0.02700950
v -0.00557942 -0.01182939 0.02543271
v -0.00204267 -0.01483317 0.01737244
v -0.00364705 -0.01279624 0.02106251
v -0.00010929 -0.01827351 0.01377362
v -0.01275462 -0.01248486 0.01949898
v -0.01450389 -0.01244482 0.01765276
v -0.00879169 0.02358779 0.02163905
v -0.00603745 0.02365457 0.02267930
v -0.01300319 0.02348568 0.02004843
v -0.01519058 0.01908193 0.01744705
v -0.01870909 0.01087506 0.01767770
v -0.01935240 0.00235058 0.01790810
v -0.01833847 -0.00614008 0.01778873
v -0.00371096 -0.01251496 0.02351489
v -0.00932154 -0.01664443 0.01287670
v -0.01012869 -0.01432132 0.01110692
v -0.00493749 -0.01654154 0.01401046
v -0.00185075 -0.01629831 0.01625398
v -0.00590269 0.02304036 0.01402503
v -0.00314845 0.02310714 0.01506528
v -0.00945161 0.02295432 0.01268464
v -0.01018331 0.01862199 0.01114236
v -0.01439051 0.01047025 0.01118727
v -0.01422633 0.00241233 0.01025982
v -0.01403977 -0.00563230 0.01129236
v 0.00352088 -0.00556574 0.00592969
v 0.00280527 -0.02034639 0.00962162
v 0.00334357 0.00257495 0.00587658
v 0.00316625 0.01071565 0.00582347
v 0.00301402 0.01770467 0.00577787
v 0.00003143 0.02254899 0.01336387
v -0.00094091 0.02316067 0.01589903
v -0.00191326 0.02377236 0.01843424
v -0.00288561 0.02438405 0.02096945
v -0.00382990 0.02370809 0.02351307
v -0.00477421 0.02303214 0.02605670
v -0.00571851 0.02235618 0.02860030
v -0.00751303 0.01880907 0.03357933
v -0.00886572 0.01066147 0.03768391
v -0.00868841 0.00252077 0.03773702
v -0.00851109 -0.00561992 0.03779015
v -0.00535083 -0.01197318 0.02983060
v -0.00446722 -0.01510586 0.02769217
v -0.00358858 -0.01495448 0.02564900
v -0.00258568 -0.01549994 0.02354667
v -0.00216246 -0.01597645 0.02205740
v -0.00156505 -0.01673691 0.02038725
v 0.00102447 -0.01824602 0.01420181
v -0.00009058 -0.01745707 0.01634712
v 0.00852041 0.01842711 0.03186358
v 0.00683086 0.01508751 0.03655139
v 0.00598461 0.01048579 0.03908738
v 0.01136167 0.01072641 0.03444731
v 0.01200491 0.01256315 0.00862595
v 0.01370671 0.01002789 0.00976171
v 0.01101214 0.01090588 0.00878675
v 0.01014147 0.01787748 0.00846981
v 0.00486504 0.02261279 0.03259759
v 0.00307052 0.01906568 0.03757661
v 0.00224264 0.01092044 0.04029147
v 0.00913961 -0.01000117 0.03204907
v 0.00777784 -0.00833708 0.03554781
v 0.00506731 -0.01171732 0.03426587
v 0.00625831 -0.01484861 0.03131347
v 0.00953829 0.01087015 0.00823008
v 0.00938606 0.01785916 0.00818448
v 0.00065353 0.02251068 0.03100696
v -0.00114099 0.01896356 0.03598598
v -0.00238188 0.01081647 0.03979449
v 0.00036581 -0.01182164 0.03397274
v 0.00146285 -0.01495335 0.03126912
v 0.01259561 -0.01628665 0.01592539
v 0.01189371 -0.01430476 0.01765659
v 0.00658543 -0.01811119 0.01630213
v 0.00836624 -0.02021156 0.01172194
v 0.00442247 -0.01816364 0.01548520
v 0.00620327 -0.02026400 0.01090503
v 0.00640347 0.02270349 0.01577047
v 0.00962109 0.02278150 0.01698576
v 0.01050304 0.01852546 0.01622269
v 0.01429250 0.01069150 0.01931280
v 0.01200951 -0.01326087 0.02220083
v 0.01190802 -0.01273963 0.02489502
v 0.00829852 -0.01250538 0.02576121
v 0.00936691 -0.01433539 0.02304994
v 0.00460465 -0.01260516 0.02279990
v 0.00550050 -0.01443595 0.02054548
v 0.00445878 0.02392685 0.02084089
v 0.00348644 0.02453854 0.02337610
v 0.00769794 0.02464065 0.02496673
v 0.00833899 0.02402093 0.02230641
v 0.01118757 0.02033634 0.02467920
v 0.01095939 0.01973271 0.02186033
v 0.01401579 0.01210738 0.02733132
v 0.01410803 0.01163542 0.02465848
v 0.01006241 -0.01091399 0.02966440
v 0.00695328 -0.01136906 0.02966136
v 0.00266196 -0.01145580 0.02941049
v 0.00159783 0.02318663 0.02846331
v 0.00580934 0.02328875 0.03005394
v 0.00940945 0.01906353 0.02946880
v 0.01224638 0.01118674 0.03207528
v 0.00631849 -0.00484312 0.03918742
v 0.00259727 -0.00536095 0.04039769
v -0.00202725 -0.00546492 0.03990071
v 0.00989292 -0.00541124 0.00833635
v 0.01410443 -0.00530913 0.00992698
v 0.01517519 -0.00391346 0.01029256
v 0.01462336 -0.00449847 0.01941190
v 0.01440628 -0.00582034 0.02744829
v 0.01447865 -0.00537972 0.02476951
v 0.01169252 -0.00446355 0.03454641
v 0.01259711 -0.00491581 0.03218037
v 0.00615155 0.00282133 0.03913740
v 0.00241996 0.00277974 0.04034458
v -0.00220456 0.00267577 0.03984760
v 0.00971561 0.00272945 0.00828324
v 0.01392711 0.00283156 0.00987387
v 0.01502305 0.00307133 0.01024698
v 0.01494167 0.00309869 0.01808142
v 0.01521210 0.00316778 0.02776793
v 0.01512196 0.00314475 0.02453906
v 0.01104336 0.00312925 0.03577777
v 0.01243294 0.00314209 0.03310782
v 0.00478874 -0.02029830 0.01037080
v 0.00713869 -0.00547802 0.00729610
v 0.00696137 0.00266267 0.00724299
v 0.00678405 0.01080337 0.00718983
v 0.00663182 0.01779239 0.00714423
v 0.00364923 0.02263671 0.01473023
v 0.00073220 0.02447176 0.02233586
v 0.00170454 0.02386008 0.01980065
v -0.00210071 0.02244390 0.02996672
v -0.00115641 0.02311985 0.02742306
v -0.00389522 0.01889679 0.03494574
v -0.00525057 0.01074918 0.03905732
v -0.00507325 0.00260848 0.03911043
v -0.00489593 -0.00553221 0.03916354
v -0.00217331 -0.01188745 0.03236287
v -0.00090648 -0.01501840 0.02920966
v -0.00086953 -0.01171520 0.02721158
v 0.00061087 -0.01269300 0.02267066
v 0.00193307 -0.01473677 0.01887401
v 0.00300794 -0.01819793 0.01495096
v 0.00493114 -0.00553155 0.00646235
v 0.00365498 -0.02032579 0.00994259
v 0.00475382 0.00260914 0.00640920
v 0.00457651 0.01074985 0.00635609
v 0.00442428 0.01773886 0.00631049
v 0.00144169 0.02258318 0.01389648
v -0.00147535 0.02441824 0.02150211
v -0.00050300 0.02380655 0.01896690
v -0.00430825 0.02239037 0.02913292
v -0.00336395 0.02306633 0.02658931
v -0.00610277 0.01884326 0.03411199
v -0.00745547 0.01069567 0.03821655
v -0.00727815 0.00255496 0.03826966
v -0.00710083 -0.00558573 0.03832277
v -0.00394057 -0.01193899 0.03036324
v -0.00305696 -0.01507167 0.02822481
v -0.00237187 -0.01492498 0.02610853
v -0.00033611 -0.01670711 0.02085140
v -0.00102419 -0.01594885 0.02248733
v 0.00187418 -0.01822542 0.01452275
v 0.01098522 -0.01182681 0.02727969
v 0.00845614 -0.01197058 0.02750999
v -0.00171124 -0.01547874 0.02387694
v -0.00241964 0.02374228 0.02404569
v 0.00254214 0.02386259 0.02591971
v -0.00021210 0.02379581 0.02487946
v 0.00675364 0.02396470 0.02751033
v 0.01029852 0.01969993 0.02707397
v 0.01313108 0.01164705 0.02970333
v 0.01382253 0.00315494 0.03043785
v 0.01350170 -0.00536808 0.02981436
v -0.00097354 -0.01244859 0.02454878
v 0.01211101 -0.01378210 0.01950658
v 0.01043529 -0.01616541 0.02033861
v 0.00639633 -0.01626675 0.01829111
v 0.00259038 -0.01619063 0.01793134
v 0.00125889 -0.01742435 0.01685681
v 0.00046935 0.02319486 0.01643169
v 0.00543113 0.02331516 0.01830568
v 0.00267689 0.02324838 0.01726544
v 0.00898005 0.02340121 0.01964608
v 0.01073122 0.01912908 0.01904151
v 0.01420026 0.01116346 0.02198564
v 0.01503182 0.00312172 0.02131024
v 0.01455100 -0.00493909 0.02209073
v 0.01692320 0.00660339 0.11869295
v 0.01563538 0.01128115 0.11861324
v -0.00122293 0.00121676 0.12335374
v 0.01185014 0.01563770 0.11759248
v 0.00968601 0.01880601 0.11762090
v -0.00119895 0.00131400 0.12333585
v 0.00576923 0.02155653 0.11771573
v 0.00221585 0.02307953 0.11777586
v -0.00135716 0.00139857 0.12334837
v -0.00147466 0.02363551 0.11783440
v -0.00421781 0.02312235 0.11789703
v -0.00152321 0.00141242 0.12335291
v -0.00912987 0.02101204 0.11798248
v -0.01183011 0.01873132 0.11804502
v -0.00167887 0.00137073 0.12334849
v -0.01514631 0.01459990 0.11810966
v -0.01735622 0.01112285 0.11812488
v -0.00177073 0.00130170 0.12334311
v -0.01929712 0.00565084 0.11813295
v -0.01976894 0.00126655 0.11814024
v -0.00183106 0.00115975 0.12334056
v -0.01927999 -0.00422197 0.11814493
v -0.01789397 -0.00880298 0.11814866
v -0.00181224 0.00102683 0.12334257
v -0.01534371 -0.01382342 0.11812863
v -0.01312942 -0.01773973 0.11807685
v -0.00176223 0.00095553 0.12334714
v -0.00808112 -0.01666388 0.11647174
v -0.00560037 -0.01816101 0.11627705
v -0.00164256 0.00073095 0.12331423
v -0.00007793 -0.01870499 0.11614766
v 0.00207581 -0.01820082 0.11615907
v -0.00140535 0.00071067 0.12331300
v 0.00641815 -0.01650678 0.11594443
v 0.00880250 -0.01812099 0.11741229
v -0.00230990 0.00046217 0.12277999
v 0.01252611 -0.01415743 0.11757403
v 0.01526482 -0.01061570 0.11860684
v -0.00143247 0.00073978 0.12332498
v 0.01694391 -0.00280804 0.11872962
v 0.01738153 0.00092088 0.11873362
v -0.00120503 0.00108640 0.12335276
v 0.01638192 0.00640538 0.11759263
v -0.00149555 0.00112172 0.12218249
v 0.01509410 0.01108314 0.11751289
v 0.01141652 0.01527749 0.11650237
v 0.00925238 0.01844579 0.11653076
v 0.00553493 0.02102048 0.11662277
v 0.00198155 0.02254348 0.11668290
v -0.00140476 0.02305664 0.11673655
v -0.00414791 0.02254348 0.11679918
v -0.00877959 0.02052505 0.11689355
v -0.01147984 0.01824433 0.11695608
v -0.01465790 0.01428398 0.11702070
v -0.01686780 0.01080691 0.11703589
v -0.01872018 0.00558280 0.11704578
v -0.01919200 0.00119851 0.11705307
v -0.01872018 -0.00403377 0.11705881
v -0.01733416 -0.00861478 0.11706254
v -0.01480808 -0.01344697 0.11705555
v -0.01259379 -0.01736328 0.11700379
v -0.00782132 -0.01608565 0.11541939
v -0.00534058 -0.01758278 0.11522470
v -0.00020630 -0.01808693 0.11509544
v 0.00194745 -0.01758278 0.11510690
v 0.00689047 -0.01559814 0.11515579
v 0.00927482 -0.01721234 0.11662363
v 0.01220131 -0.01358695 0.11650902
v 0.01494002 -0.01004522 0.11754183
v 0.01638192 -0.00273595 0.11762787
v 0.01681954 0.00099296 0.11763187
v 0.04729879 0.01443595 0.06875043
v 0.04389705 0.02088611 0.06860848
v 0.03835854 0.02247638 0.08628454
v 0.04114361 0.01406700 0.08639773
v 0.03676617 0.03286184 0.06822631
v 0.03081037 0.03816530 0.06804777
v 0.02857487 0.03756370 0.08592215
v 0.03398309 0.03227090 0.08604655
v 0.02064202 0.04533594 0.06777128
v 0.01295605 0.04839690 0.06758848
v 0.01109961 0.04760719 0.08557787
v 0.01945148 0.04461037 0.08573248
v 0.00107102 0.04992354 0.06719495
v -0.00752511 0.04870960 0.06675665
v -0.00924700 0.04792614 0.08556624
v -0.00102995 0.04911185 0.08552368
v -0.01805586 0.04501045 0.06605153
v -0.02728308 0.03967771 0.06518477
v -0.02671024 0.03874921 0.08579148
v -0.01792888 0.04291290 0.08568632
v -0.03506824 0.03026676 0.06419327
v -0.03982001 0.02174913 0.06365332
v -0.04111037 0.02456067 0.08601062
v -0.03544312 0.03161146 0.08588774
v -0.04401745 0.01234443 0.06328501
v -0.04512914 0.00300468 0.06320672
v -0.04664020 0.00423643 0.08622929
v -0.04543252 0.01326021 0.08615733
v -0.04396715 -0.00528540 0.06346991
v -0.04068157 -0.01515892 0.06371195
v -0.04183930 -0.01904489 0.08610506
v -0.04538789 -0.00755797 0.08623599
v -0.03402278 -0.02564262 0.06451649
v -0.02931085 -0.03233110 0.06499864
v -0.02992026 -0.03432123 0.08595619
v -0.03604419 -0.02675079 0.08604491
v -0.01656895 -0.03879004 0.06622509
v -0.01134260 -0.04254391 0.06656081
v -0.01063863 -0.04403857 0.08581134
v -0.01611527 -0.04038856 0.08586187
v 0.00359076 -0.04508016 0.06727621
v 0.00886663 -0.04396968 0.06746916
v 0.00857789 -0.04401418 0.08584513
v 0.00209668 -0.04509977 0.08584484
v 0.02307616 -0.03835535 0.06743659
v 0.02944194 -0.03356112 0.06759707
v 0.02683310 -0.03518807 0.08606275
v 0.02089806 -0.04012492 0.08597923
v 0.03900323 -0.02414903 0.06839811
v 0.04314756 -0.01837013 0.06854870
v 0.03803283 -0.01887772 0.08631664
v 0.03442446 -0.02619802 0.08623464
v 0.04737878 -0.00417806 0.06895266
v 0.04853139 0.00233744 0.06891332
v 0.04300818 0.00219131 0.08648780
v 0.04201269 -0.00457687 0.08650309
v 0.02917884 0.01773448 0.10512222
v 0.03156100 0.01168736 0.10530784
v 0.02034759 0.03121927 0.10453068
v 0.02504837 0.02657369 0.10479054
v 0.00610693 0.03848309 0.10377643
v 0.01280662 0.03590473 0.10372307
v -0.00683262 0.03855747 0.10391666
v -0.00038639 0.03942708 0.10381214
v -0.02115140 0.03068913 0.10420054
v -0.01451855 0.03533648 0.10405609
v -0.03170823 0.01863836 0.10439717
v -0.02782694 0.02482258 0.10431994
v -0.03616213 0.00175125 0.10448057
v -0.03523461 0.00934243 0.10445710
v -0.03248381 -0.01370606 0.10449691
v -0.03520470 -0.00668667 0.10447792
v -0.02318066 -0.02663130 0.10286152
v -0.02749908 -0.02095946 0.10324325
v -0.00885755 -0.03366775 0.10244435
v -0.01363678 -0.03107917 0.10268329
v 0.00518663 -0.03353950 0.10235948
v 0.00060713 -0.03441320 0.10235281
v 0.02003610 -0.02732933 0.10322072
v 0.01465300 -0.03090737 0.10226868
v 0.02927154 -0.01613597 0.10516034
v 0.02637838 -0.01995708 0.10386321
v 0.03309156 0.00023095 0.10544272
v 0.03228246 -0.00598392 0.10540139
v 0.04219902 0.01964332 0.02633989
v 0.04435446 0.01250097 0.02634937
v 0.04184378 0.01294882 0.00523797
v 0.03969619 0.01915731 0.00523797
v 0.02924217 0.03741678 0.02626683
v 0.03451657 0.03226825 0.02629351
v 0.03377946 0.03005842 0.00525341
v 0.02893671 0.03475547 0.00525341
v 0.01313372 0.04588867 0.02613369
v 0.01953254 0.04310267 0.02621905
v 0.02002080 0.04179446 0.00529314
v 0.01196256 0.04446318 0.00529314
v -0.00672200 0.04593136 0.02605155
v 0.00095445 0.04698331 0.02610510
v 0.00122631 0.04589650 0.00531820
v -0.00874680 0.04488514 0.00531820
v -0.02453054 0.03799382 0.02587757
v -0.01755385 0.04204244 0.02598202
v -0.01815811 0.04174381 0.00538591
v -0.02697569 0.03708267 0.00538591
v -0.03880041 0.02212419 0.02559001
v -0.03416778 0.02986125 0.02569750
v -0.03382037 0.02887300 0.00533690
v -0.03881193 0.02131304 0.00533690
v -0.04329703 0.00223254 0.02548312
v -0.04225370 0.01048568 0.02551567
v -0.04206010 0.01208838 0.00536735
v -0.04309590 0.00218793 0.00536735
v -0.03909662 -0.01691954 0.02557359
v -0.04218812 -0.00900888 0.02551017
v -0.04199487 -0.00849794 0.00536404
v -0.03892472 -0.01748015 0.00536404
v -0.02820623 -0.03233534 0.02575873
v -0.03312068 -0.02668447 0.02567720
v -0.03275294 -0.02616807 0.00536652
v -0.02809167 -0.03307957 0.00536652
v 0.04122796 -0.01783281 0.02630205
v 0.03720280 -0.02422781 0.02626320
v 0.03531769 -0.02564886 0.00530543
v 0.03872233 -0.01923731 0.00530543
v 0.04543661 -0.00034151 0.02636097
v 0.04439867 -0.00771607 0.02634551
v 0.04262742 -0.00633727 0.00526153
v 0.04359700 0.00097451 0.00526153
v 0.04480336 -0.00598912 0.04794221
v 0.04585703 0.00143641 0.04797242
v 0.03775714 -0.02619372 0.04770194
v 0.04145357 -0.01979266 0.04784296
v -0.03345518 -0.02695840 0.04520394
v -0.02837095 -0.03385445 0.04553484
v -0.04277537 -0.00847022 0.04449746
v -0.03961982 -0.01745873 0.04475604
v -0.04283486 0.01343933 0.04439579
v -0.04390075 0.00454743 0.04434147
v -0.03486740 0.03062357 0.04492779
v -0.03907609 0.02324650 0.04466879
v -0.01804809 0.04377529 0.04570872
v -0.02560484 0.03874857 0.04536864
v -0.00077726 0.04864461 0.04623174
v -0.00890995 0.04753067 0.04601599
v 0.02077262 0.04468011 0.04688481
v 0.01196133 0.04776985 0.04643262
v 0.03626787 0.03147473 0.04747021
v 0.03140626 0.03652439 0.04726276
v 0.04393505 0.01490133 0.04784345
v 0.04162697 0.02237730 0.04770594
v 0.04616732 0.01396685 0.06864174
v 0.04009909 0.01365303 0.08594077
v 0.03731403 0.02206241 0.08582759
v 0.04276558 0.02041701 0.06849979
v 0.03593565 0.03198183 0.06818476
v 0.03318180 0.03141868 0.08567007
v 0.02777358 0.03671147 0.08554567
v 0.02997985 0.03728530 0.06800622
v 0.02021771 0.04420513 0.06775110
v 0.01903900 0.04350025 0.08537282
v 0.01068712 0.04649706 0.08521820
v 0.01253173 0.04726609 0.06756831
v 0.00123876 0.04872814 0.06720698
v -0.00086458 0.04792530 0.08520976
v -0.00908163 0.04673959 0.08525232
v -0.00735737 0.04751421 0.06676868
v -0.01745630 0.04395954 0.06604751
v -0.01736084 0.04187210 0.08536443
v -0.02614219 0.03770840 0.08546959
v -0.02668352 0.03862680 0.06518075
v -0.03404045 0.02963326 0.06424255
v -0.03443205 0.03090414 0.08561211
v -0.04009931 0.02385335 0.08573499
v -0.03879223 0.02111563 0.06370260
v -0.04282245 0.01219735 0.06335979
v -0.04421356 0.01310307 0.08586997
v -0.04542123 0.00407929 0.08594193
v -0.04393414 0.00285760 0.06328150
v -0.04282246 -0.00490639 0.06353338
v -0.04421356 -0.00716968 0.08597597
v -0.04066497 -0.01865659 0.08584503
v -0.03953688 -0.01477991 0.06377541
v -0.03305318 -0.02492370 0.06456599
v -0.03507157 -0.02598506 0.08576471
v -0.02894763 -0.03355551 0.08567599
v -0.02834125 -0.03161218 0.06504815
v -0.01589203 -0.03779270 0.06627450
v -0.01545457 -0.03935982 0.08556857
v -0.00997792 -0.04300982 0.08551801
v -0.01066569 -0.04154657 0.06661021
v 0.00336527 -0.04389458 0.06734623
v 0.00188099 -0.04391552 0.08548022
v 0.00836220 -0.04282993 0.08548051
v 0.00864114 -0.04278410 0.06753918
v 0.02235963 -0.03738366 0.06747051
v 0.02018225 -0.03915680 0.08562062
v 0.02611729 -0.03421995 0.08570414
v 0.02872542 -0.03258943 0.06763099
v 0.03797622 -0.02351270 0.06828894
v 0.03344956 -0.02558751 0.08583129
v 0.03705793 -0.01826720 0.08591329
v 0.04212054 -0.01773379 0.06843954
v 0.04616733 -0.00398499 0.06884085
v 0.04090083 -0.00440947 0.08605411
v 0.04189630 0.00235871 0.08603880
v 0.04731994 0.00253050 0.06880151
v 0.03065846 0.01135305 0.10454843
v 0.02827633 0.01740018 0.10436281
v 0.02438545 0.02591207 0.10398992
v 0.01968468 0.03055766 0.10373009
v 0.01246487 0.03502070 0.10295061
v 0.00576518 0.03759906 0.10300396
v -0.00025913 0.03846866 0.10305913
v -0.00670536 0.03759906 0.10316366
v -0.01399659 0.03450116 0.10332271
v -0.02062944 0.02985379 0.10346715
v -0.02705392 0.02428646 0.10353608
v -0.03093520 0.01810224 0.10361332
v -0.03430607 0.00922471 0.10366766
v -0.03523358 0.00163352 0.10369112
v -0.03430607 -0.00637544 0.10370709
v -0.03158518 -0.01339483 0.10372611
v -0.02672992 -0.02036229 0.10252060
v -0.02241150 -0.02603413 0.10213887
v -0.01318191 -0.03024404 0.10191520
v -0.00840267 -0.03283262 0.10167620
v 0.00043745 -0.03350905 0.10155602
v 0.00501695 -0.03263536 0.10156270
v 0.01435284 -0.02996822 0.10150792
v 0.01973594 -0.02639017 0.10245993
v 0.02563460 -0.01929886 0.10313975
v 0.02852776 -0.01547777 0.10443688
v 0.03132298 -0.00585331 0.10464142
v 0.03213208 0.00036156 0.10468275
v 0.04104882 0.01928254 0.02641575
v 0.03855533 0.01878970 0.00537379
v 0.04070292 0.01258121 0.00537379
v 0.04320425 0.01214020 0.02642523
v 0.02839491 0.03656126 0.02634983
v 0.02809945 0.03389544 0.00537379
v 0.03294220 0.02919839 0.00537379
v 0.03366930 0.03141272 0.02637651
v 0.01270291 0.04476532 0.02622170
v 0.01153726 0.04333722 0.00537379
v 0.01959550 0.04066851 0.00537379
v 0.01910173 0.04197932 0.02630705
v -0.00657146 0.04473705 0.02613568
v -0.00860705 0.04368826 0.00537379
v 0.00136606 0.04469961 0.00537379
v 0.00110500 0.04578901 0.02618923
v -0.02392017 0.03695233 0.02591669
v -0.02639314 0.03602643 0.00537379
v -0.01757556 0.04068756 0.00537379
v -0.01694348 0.04100094 0.02602114
v -0.03777012 0.02149814 0.02563668
v -0.03779150 0.02067077 0.00537379
v -0.03279994 0.02823073 0.00537379
v -0.03313749 0.02923519 0.02574418
v -0.04209931 0.00209013 0.02551542
v -0.04189746 0.00205066 0.00537379
v -0.04086164 0.01195111 0.00537379
v -0.04105598 0.01034327 0.02554796
v -0.03796449 -0.01650349 0.02559491
v -0.03779151 -0.01706677 0.00537379
v -0.04086165 -0.00808457 0.00537379
v -0.04105598 -0.00859282 0.02553150
v -0.02725522 -0.03159332 0.02578551
v -0.02713234 -0.03234827 0.00537379
v -0.03179361 -0.02543677 0.00537379
v -0.03216967 -0.02594245 0.02570398
v 0.04019133 -0.01722004 0.02637396
v 0.03768050 -0.01863309 0.00537379
v 0.03427586 -0.02504464 0.00537379
v 0.03616617 -0.02361503 0.02633511
v 0.04424222 -0.00017554 0.02642177
v 0.04240698 0.00113706 0.00537379
v 0.04143741 -0.00617473 0.00537379
v 0.04320427 -0.00755010 0.02640630
v 0.04466451 0.00161502 0.04804521
v 0.04361084 -0.00581050 0.04801500
v 0.04042993 -0.01915524 0.04788942
v 0.03673349 -0.02555629 0.04774840
v -0.02740942 -0.03312497 0.04555121
v -0.03249364 -0.02622892 0.04522031
v -0.03848342 -0.01705426 0.04477820
v -0.04163896 -0.00806575 0.04451963
v -0.04270486 0.00440207 0.04440371
v -0.04163896 0.01329396 0.04445803
v -0.03803020 0.02264523 0.04469567
v -0.03382150 0.03002230 0.04495466
v -0.02497331 0.03772438 0.04545459
v -0.01741656 0.04275110 0.04579467
v -0.00874737 0.04633810 0.04610113
v -0.00061467 0.04745204 0.04631688
v 0.01153168 0.04664445 0.04650188
v 0.02034297 0.04355471 0.04695407
v 0.03056128 0.03566498 0.04731621
v 0.03542289 0.03061532 0.04752367
v 0.04048996 0.02197313 0.04777824
v 0.04279804 0.01449716 0.04791575
v -0.02259716 0.00220141 0.00546312
v -0.02259716 0.01425523 0.00546312
v -0.03303609 0.02028214 0.00546312
v -0.03465099 0.00822832 0.00546312
v -0.04347501 0.02630905 0.00546312
v -0.04829172 0.01468044 0.00546312
v -0.04993461 0.00220141 0.00546312
v -0.03626590 -0.00382550 0.00546312
v -0.02259716 -0.00985241 0.00546312
v -0.04829171 -0.01027763 0.00546312
v -0.03545843 -0.01727787 0.00546312
v -0.04347500 -0.02190624 0.00546312
v -0.03581268 -0.03189195 0.00546312
v -0.02582696 -0.03955426 0.00546312
v -0.02421206 -0.02470334 0.00546312
v -0.01419836 -0.04437099 0.00546312
v -0.01296569 -0.02933170 0.00546312
v -0.00171932 -0.04601388 0.00546312
v -0.00171932 -0.03396005 0.00546312
v -0.00171932 -0.02190623 0.00546312
v -0.01215824 -0.01587932 0.00546312
v -0.00171933 -0.00985241 0.00546312
v -0.01215824 -0.00382550 0.00546312
v -0.00171933 0.00220141 0.00546312
v -0.01215825 0.00822832 0.00546312
v 0.00871959 -0.01587932 0.00546312
v 0.00952705 -0.02933170 0.00546312
v 0.01075972 -0.04437099 0.00546312
v 0.02238833 -0.03955425 0.00546312
v 0.02077342 -0.02470333 0.00546312
v 0.01915851 -0.00985241 0.00546312
v 0.03237404 -0.03189194 0.00546312
v 0.03201980 -0.01727786 0.00546312
v 0.04003635 -0.02190623 0.00546312
v 0.04485307 -0.01027762 0.00546312
v 0.04649596 0.00220142 0.00546312
v 0.03282725 -0.00382549 0.00546312
v 0.04485306 0.01468045 0.00546312
v 0.03121233 0.00822833 0.00546312
v 0.04003635 0.02630906 0.00546312
v 0.02959743 0.02028215 0.00546312
v 0.01915851 0.01425524 0.00546312
v 0.01915851 0.00220142 0.00546312
v 0.00871959 0.00822833 0.00546312
v 0.00871959 -0.00382550 0.00546312
v 0.00871959 0.02028215 0.00546312
v 0.01996595 0.02770761 0.00546312
v 0.03237402 0.03629478 0.00546312
v 0.02238831 0.04395709 0.00546312
v 0.01033449 0.03513308 0.00546312
v -0.00171933 0.02630906 0.00546312
v 0.01075970 0.04877382 0.00546312
v -0.00171933 0.04115998 0.00546312
v -0.00171933 0.05041671 0.00546312
v -0.01419837 0.04877379 0.00546312
v -0.02582698 0.04395708 0.00546312
v -0.01377315 0.03513308 0.00546312
v -0.03581269 0.03629476 0.00546312
v -0.02340462 0.02770761 0.00546312
v -0.01215825 0.02028215 0.00546312
v -0.00171933 0.01425524 0.00546312
v -0.02036658 0.00220141 0.00000000
v -0.03113258 0.00758441 0.00000000
v -0.02969022 0.01835041 0.00000000
v -0.02036658 0.01296741 0.00000000
v -0.04331595 0.01334719 0.00000000
v -0.03901385 0.02373340 0.00000000
v -0.03257495 -0.00318159 0.00000000
v -0.04478332 0.00220141 0.00000000
v -0.02036658 -0.00856459 0.00000000
v -0.03185377 -0.01519672 0.00000000
v -0.04331595 -0.00894437 0.00000000
v -0.03217017 -0.02824943 0.00000000
v -0.03901384 -0.01933059 0.00000000
v -0.02180895 -0.02182885 0.00000000
v -0.02325132 -0.03509311 0.00000000
v -0.01176414 -0.02596271 0.00000000
v -0.01286510 -0.03939522 0.00000000
v -0.00171932 -0.03009658 0.00000000
v -0.00171932 -0.04086259 0.00000000
v -0.01104295 -0.01394759 0.00000000
v -0.00171932 -0.01933058 0.00000000
v -0.01104295 -0.00318159 0.00000000
v -0.00171933 -0.00856458 0.00000000
v -0.01104296 0.00758441 0.00000000
v -0.00171933 0.00220141 0.00000000
v 0.00760431 -0.01394759 0.00000000
v 0.00832549 -0.02596271 0.00000000
v 0.00942646 -0.03939522 0.00000000
v 0.01837031 -0.02182884 0.00000000
v 0.01981268 -0.03509310 0.00000000
v 0.01692793 -0.00856458 0.00000000
v 0.02841512 -0.01519671 0.00000000
v 0.02873152 -0.02824943 0.00000000
v 0.03987730 -0.00894436 0.00000000
v 0.03557519 -0.01933058 0.00000000
v 0.02913630 -0.00318158 0.00000000
v 0.04134467 0.00220142 0.00000000
v 0.02769393 0.00758442 0.00000000
v 0.03987730 0.01334720 0.00000000
v 0.02625156 0.01835041 0.00000000
v 0.03557519 0.02373341 0.00000000
v 0.01692793 0.00220142 0.00000000
v 0.01692793 0.01296741 0.00000000
v 0.00760430 -0.00318159 0.00000000
v 0.00760430 0.00758441 0.00000000
v 0.00760430 0.01835041 0.00000000
v 0.01764912 0.02498254 0.00000000
v 0.02873151 0.03265226 0.00000000
v 0.00904667 0.03161467 0.00000000
v 0.01981266 0.03949593 0.00000000
v -0.00171933 0.02373341 0.00000000
v -0.00171933 0.03699767 0.00000000
v 0.00942645 0.04379804 0.00000000
v -0.01286511 0.04379803 0.00000000
v -0.00171933 0.04526541 0.00000000
v -0.01248533 0.03161467 0.00000000
v -0.02325133 0.03949592 0.00000000
v -0.02108777 0.02498254 0.00000000
v -0.03217017 0.03265225 0.00000000
v -0.01104296 0.01835041 0.00000000
v -0.00171933 0.01296741 0.00000000
v -0.00172072 0.00217605 0.12702876
v 0.00020180 0.00133646 0.12610254
v 0.00004119 0.00045693 0.12632087
v -0.00206902 0.00137848 0.12733750
v -0.00364323 0.00301564 0.12610254
v -0.00417924 0.00230004 0.12632087
v -0.00443956 0.00336341 0.12323734
v -0.00505332 0.00268177 0.12323734
v -0.00411341 0.00322097 0.12062644
v -0.00469532 0.00252542 0.12037154
v -0.00172072 0.00217605 0.11954496
v -0.00206902 0.00137848 0.11918444
v 0.00067198 0.00113113 0.12062644
v 0.00055727 0.00023155 0.12037154
v 0.00099813 0.00098869 0.12323734
v 0.00091526 0.00007520 0.12323734
v 0.00035005 -0.00007133 0.12684791
v -0.00221330 0.00104813 0.12808290
v -0.00477665 0.00216758 0.12684791
v -0.00583842 0.00263127 0.12323734
v -0.00540356 0.00244135 0.11975612
v -0.00221330 0.00104813 0.11831417
v 0.00097696 -0.00034511 0.11975612
v 0.00141183 -0.00053502 0.12323734
v 0.00094747 0.00006114 0.12737495
v -0.00206902 0.00137849 0.12882827
v -0.00508552 0.00269583 0.12737495
v -0.00633499 0.00324149 0.12323734
v -0.00582325 0.00301801 0.11914073
v -0.00206902 0.00137849 0.11744386
v 0.00168520 -0.00026103 0.11914070
v 0.00219694 -0.00048452 0.12323734
v 0.00148348 0.00077674 0.12759328
v -0.00172072 0.00217605 0.12913704
v -0.00492490 0.00357536 0.12759328
v -0.00625212 0.00415498 0.12323734
v -0.00570854 0.00391759 0.11888583
v -0.00172072 0.00217605 0.11708336
v 0.00226711 0.00043451 0.11888581
v 0.00281070 0.00019712 0.12323734
v 0.00164408 0.00165627 0.12737498
v -0.00137241 0.00297361 0.12882830
v -0.00438890 0.00429096 0.12737498
v -0.00563837 0.00483662 0.12323734
v -0.00512664 0.00461314 0.11914073
v -0.00137241 0.00297361 0.11744386
v 0.00238181 0.00133409 0.11914073
v 0.00289356 0.00111061 0.12323734
v 0.00133522 0.00218453 0.12684791
v -0.00122814 0.00330398 0.12808290
v -0.00379149 0.00442343 0.12684791
v -0.00485326 0.00488712 0.12323734
v -0.00441840 0.00469721 0.11975612
v -0.00122814 0.00330398 0.11831415
v 0.00196212 0.00191075 0.11975612
v 0.00239700 0.00172083 0.12323734
v 0.00073780 0.00205206 0.12632087
v -0.00137241 0.00297361 0.12733753
v -0.00348262 0.00389517 0.12632087
v -0.00435670 0.00427689 0.12323734
v -0.00399871 0.00412055 0.12037154
v -0.00137241 0.00297361 0.11918446
v 0.00125389 0.00182667 0.12037154
v 0.00161188 0.00167034 0.12323734
f 1 2 3
f 1 3 4
f 5 6 2
f 5 2 1
f 7 8 6
f 7 6 5
f 4 3 8
f 4 8 7
f 3 2 6
f 3 6 8
f 9 10 11
f 9 11 12
f 9 12 13
f 9 13 14
f 10 9 14
f 10 14 15
f 11 10 15
f 11 15 16
f 12 11 16
f 12 16 13
f 13 17 18
f 13 18 14
f 14 18 19
f 14 19 15
f 15 19 20
f 15 20 16
f 16 20 17
f 16 17 13
f 17 21 22
f 17 22 18
f 18 22 23
f 18 23 19
f 19 23 24
f 19 24 20
f 20 24 21
f 20 21 17
f 21 4 7
f 21 7 22
f 22 7 5
f 22 5 23
f 23 5 1
f 23 1 24
f 24 1 4
f 24 4 21
f 25 26 27
f 25 27 28
f 29 30 26
f 29 26 25
f 31 32 30
f 31 30 29
f 28 27 32
f 28 32 31
f 27 26 30
f 27 30 32
f 33 34 35
f 33 35 36
f 33 36 37
f 33 37 38
f 34 33 38
f 34 38 39
f 35 34 39
f 35 39 40
f 36 35 40
f 36 40 37
f 37 41 42
f 37 42 38
f 38 42 43
f 38 43 39
f 39 43 44
f 39 44 40
f 40 44 41
f 40 41 37
f 41 45 46
f 41 46 42
f 42 46 47
f 42 47 43
f 43 47 48
f 43 48 44
f 44 48 45
f 44 45 41
f 45 28 31
f 45 31 46
f 46 31 29
f 46 29 47
f 47 29 25
f 47 25 48
f 48 25 28
f 48 28 45
f 49 50 51
f 49 51 52
f 53 54 55
f 53 55 56
f 56 55 50
f 56 50 49
f 57 58 59
f 57 59 60
f 61 62 63
f 61 63 64
f 62 57 60
f 62 60 63
f 60 59 51
f 60 51 50
f 59 58 52
f 59 52 51
f 58 57 49
f 58 49 52
f 64 63 55
f 64 55 54
f 62 61 53
f 62 53 56
f 63 60 50
f 63 50 55
f 57 62 56
f 57 56 49
f 65 66 67
f 65 67 68
f 69 70 71
f 69 71 72
f 72 71 66
f 72 66 65
f 73 74 75
f 73 75 76
f 77 78 79
f 77 79 80
f 78 73 76
f 78 76 79
f 76 75 67
f 76 67 66
f 75 74 68
f 75 68 67
f 74 73 65
f 74 65 68
f 80 79 71
f 80 71 70
f 78 77 69
f 78 69 72
f 79 76 66
f 79 66 71
f 73 78 72
f 73 72 65
f 81 82 83
f 81 83 84
f 85 86 87
f 85 87 88
f 88 87 82
f 88 82 81
f 89 90 91
f 89 91 92
f 93 94 95
f 93 95 96
f 94 89 92
f 94 92 95
f 92 91 83
f 92 83 82
f 91 90 84
f 91 84 83
f 90 89 81
f 90 81 84
f 96 95 87
f 96 87 86
f 94 93 85
f 94 85 88
f 95 92 82
f 95 82 87
f 89 94 88
f 89 88 81
f 97 98 99
f 97 99 100
f 101 102 97
f 101 97 100
f 103 104 98
f 103 98 97
f 97 102 105
f 97 105 103
f 106 107 108
f 106 108 109
f 110 111 112
f 110 112 113
f 114 111 110
f 114 110 115
f 116 110 113
f 116 113 117
f 110 116 118
f 110 118 115
f 119 120 121
f 119 121 122
f 123 124 125
f 123 125 126
f 127 128 129
f 127 129 130
f 126 131 132
f 126 132 123
f 125 133 131
f 125 131 126
f 134 135 136
f 134 136 137
f 138 129 128
f 138 128 139
f 140 132 131
f 140 131 141
f 131 133 142
f 131 142 141
f 136 135 143
f 136 143 144
f 145 146 147
f 145 147 148
f 149 147 146
f 149 146 150
f 128 151 152
f 128 152 139
f 153 151 128
f 153 128 127
f 127 130 154
f 127 154 153
f 155 156 157
f 155 157 158
f 159 157 156
f 159 156 160
f 161 162 163
f 161 163 164
f 165 163 162
f 165 162 166
f 166 167 168
f 166 168 165
f 169 170 135
f 169 135 134
f 143 135 170
f 143 170 171
f 172 173 132
f 172 132 140
f 123 132 173
f 123 173 174
f 174 175 124
f 174 124 123
f 137 136 176
f 137 176 177
f 178 176 136
f 178 136 144
f 146 179 180
f 146 180 150
f 181 179 146
f 181 146 145
f 182 181 145
f 182 145 148
f 183 184 155
f 183 155 158
f 185 186 169
f 185 169 134
f 177 185 134
f 177 134 137
f 177 176 187
f 177 187 188
f 189 187 176
f 189 176 178
f 180 179 190
f 180 190 191
f 192 190 179
f 192 179 181
f 193 192 181
f 193 181 182
f 194 195 184
f 194 184 183
f 196 197 186
f 196 186 185
f 188 196 185
f 188 185 177
f 188 187 133
f 188 133 125
f 142 133 187
f 142 187 189
f 191 190 129
f 191 129 138
f 130 129 190
f 130 190 192
f 154 130 192
f 154 192 193
f 168 167 195
f 168 195 194
f 124 175 197
f 124 197 196
f 125 124 196
f 125 196 188
f 150 180 198
f 150 198 199
f 200 198 180
f 200 180 191
f 201 200 191
f 201 191 138
f 202 201 138
f 202 138 139
f 139 152 203
f 139 203 202
f 204 205 161
f 204 161 164
f 206 207 172
f 206 172 140
f 208 206 140
f 208 140 141
f 141 142 209
f 141 209 208
f 210 209 142
f 210 142 189
f 211 210 189
f 211 189 178
f 212 211 178
f 212 178 144
f 144 143 213
f 144 213 212
f 171 214 213
f 171 213 143
f 160 215 216
f 160 216 159
f 199 217 149
f 199 149 150
f 158 157 218
f 158 218 219
f 220 221 204
f 220 204 164
f 164 163 222
f 164 222 220
f 223 222 163
f 223 163 165
f 165 168 224
f 165 224 223
f 225 224 168
f 225 168 194
f 226 225 194
f 226 194 183
f 219 226 183
f 219 183 158
f 219 218 170
f 219 170 169
f 172 207 221
f 172 221 220
f 220 222 173
f 220 173 172
f 174 173 222
f 174 222 223
f 223 224 175
f 223 175 174
f 197 175 224
f 197 224 225
f 186 197 225
f 186 225 226
f 169 186 226
f 169 226 219
f 218 157 99
f 218 99 98
f 157 159 100
f 157 100 99
f 216 227 102
f 216 102 101
f 159 216 101
f 159 101 100
f 171 170 104
f 171 104 103
f 170 218 98
f 170 98 104
f 227 214 105
f 227 105 102
f 214 171 103
f 214 103 105
f 148 147 228
f 148 228 229
f 230 228 147
f 230 147 149
f 217 231 230
f 217 230 149
f 232 233 203
f 232 203 152
f 152 151 234
f 152 234 232
f 235 234 151
f 235 151 153
f 153 154 236
f 153 236 235
f 237 236 154
f 237 154 193
f 238 237 193
f 238 193 182
f 229 238 182
f 229 182 148
f 229 228 156
f 229 156 155
f 160 156 228
f 160 228 230
f 230 231 215
f 230 215 160
f 161 205 233
f 161 233 232
f 232 234 162
f 232 162 161
f 166 162 234
f 166 234 235
f 235 236 167
f 235 167 166
f 195 167 236
f 195 236 237
f 184 195 237
f 184 237 238
f 155 184 238
f 155 238 229
f 199 198 239
f 199 239 240
f 241 239 198
f 241 198 200
f 242 241 200
f 242 200 201
f 243 242 201
f 243 201 202
f 202 203 244
f 202 244 243
f 233 245 244
f 233 244 203
f 205 246 245
f 205 245 233
f 247 246 205
f 247 205 204
f 221 248 247
f 221 247 204
f 207 249 248
f 207 248 221
f 250 249 207
f 250 207 206
f 251 250 206
f 251 206 208
f 208 209 252
f 208 252 251
f 253 252 209
f 253 209 210
f 254 253 210
f 254 210 211
f 255 254 211
f 255 211 212
f 212 213 256
f 212 256 255
f 214 257 256
f 214 256 213
f 227 258 257
f 227 257 214
f 259 258 227
f 259 227 216
f 215 260 259
f 215 259 216
f 261 262 231
f 261 231 217
f 240 261 217
f 240 217 199
f 231 262 107
f 231 107 106
f 262 260 108
f 262 108 107
f 260 215 109
f 260 109 108
f 215 231 106
f 215 106 109
f 263 264 265
f 263 265 266
f 267 268 269
f 267 269 270
f 264 263 271
f 264 271 272
f 265 264 272
f 265 272 273
f 274 275 276
f 274 276 277
f 278 279 270
f 278 270 269
f 280 281 272
f 280 272 271
f 272 281 282
f 272 282 273
f 276 283 284
f 276 284 277
f 285 286 287
f 285 287 288
f 289 290 288
f 289 288 287
f 270 279 291
f 270 291 292
f 293 267 270
f 293 270 292
f 267 293 294
f 267 294 268
f 295 296 297
f 295 297 298
f 299 300 298
f 299 298 297
f 301 302 303
f 301 303 304
f 305 306 304
f 305 304 303
f 306 305 307
f 306 307 308
f 309 274 277
f 309 277 310
f 284 311 310
f 284 310 277
f 312 280 271
f 312 271 313
f 263 314 313
f 263 313 271
f 314 263 266
f 314 266 315
f 275 316 317
f 275 317 276
f 318 283 276
f 318 276 317
f 288 290 319
f 288 319 320
f 321 285 288
f 321 288 320
f 322 286 285
f 322 285 321
f 323 296 295
f 323 295 324
f 325 274 309
f 325 309 326
f 316 275 274
f 316 274 325
f 316 327 328
f 316 328 317
f 329 318 317
f 329 317 328
f 319 330 331
f 319 331 320
f 332 321 320
f 332 320 331
f 333 322 321
f 333 321 332
f 334 323 324
f 334 324 335
f 336 325 326
f 336 326 337
f 327 316 325
f 327 325 336
f 327 265 273
f 327 273 328
f 282 329 328
f 282 328 273
f 330 278 269
f 330 269 331
f 268 332 331
f 268 331 269
f 294 333 332
f 294 332 268
f 307 334 335
f 307 335 308
f 266 336 337
f 266 337 315
f 265 327 336
f 265 336 266
f 290 338 339
f 290 339 319
f 340 330 319
f 340 319 339
f 341 278 330
f 341 330 340
f 342 279 278
f 342 278 341
f 279 342 343
f 279 343 291
f 344 302 301
f 344 301 345
f 346 280 312
f 346 312 347
f 348 281 280
f 348 280 346
f 281 348 349
f 281 349 282
f 350 329 282
f 350 282 349
f 351 318 329
f 351 329 350
f 352 283 318
f 352 318 351
f 283 352 353
f 283 353 284
f 311 284 353
f 311 353 354
f 300 299 355
f 300 355 356
f 338 290 289
f 338 289 357
f 239 358 359
f 239 359 240
f 241 360 358
f 241 358 239
f 242 361 360
f 242 360 241
f 243 362 361
f 243 361 242
f 244 363 362
f 244 362 243
f 247 364 365
f 247 365 246
f 250 366 367
f 250 367 249
f 251 368 366
f 251 366 250
f 252 369 368
f 252 368 251
f 253 370 369
f 253 369 252
f 254 371 370
f 254 370 253
f 255 372 371
f 255 371 254
f 256 373 372
f 256 372 255
f 257 374 373
f 257 373 256
f 260 375 376
f 260 376 259
f 240 359 377
f 240 377 261
f 296 378 379
f 296 379 297
f 259 376 380
f 259 380 258
f 248 381 364
f 248 364 247
f 382 302 344
f 382 344 383
f 302 382 384
f 302 384 303
f 385 305 303
f 385 303 384
f 305 385 386
f 305 386 307
f 387 334 307
f 387 307 386
f 388 323 334
f 388 334 387
f 378 296 323
f 378 323 388
f 378 309 310
f 378 310 379
f 258 380 374
f 258 374 257
f 249 367 381
f 249 381 248
f 312 382 383
f 312 383 347
f 382 312 313
f 382 313 384
f 314 385 384
f 314 384 313
f 385 314 315
f 385 315 386
f 337 387 386
f 337 386 315
f 326 388 387
f 326 387 337
f 309 378 388
f 309 388 326
f 379 113 112
f 379 112 297
f 297 112 111
f 297 111 299
f 355 114 115
f 355 115 389
f 299 111 114
f 299 114 355
f 311 116 117
f 311 117 310
f 310 117 113
f 310 113 379
f 389 115 118
f 389 118 354
f 354 118 116
f 354 116 311
f 286 390 391
f 286 391 287
f 392 289 287
f 392 287 391
f 357 289 392
f 357 392 393
f 261 377 394
f 261 394 262
f 245 395 363
f 245 363 244
f 396 291 343
f 396 343 397
f 291 396 398
f 291 398 292
f 399 293 292
f 399 292 398
f 293 399 400
f 293 400 294
f 401 333 294
f 401 294 400
f 402 322 333
f 402 333 401
f 390 286 322
f 390 322 402
f 390 295 298
f 390 298 391
f 300 392 391
f 300 391 298
f 392 300 356
f 392 356 393
f 262 394 375
f 262 375 260
f 246 365 395
f 246 395 245
f 301 396 397
f 301 397 345
f 396 301 304
f 396 304 398
f 306 399 398
f 306 398 304
f 399 306 308
f 399 308 400
f 335 401 400
f 335 400 308
f 324 402 401
f 324 401 335
f 295 390 402
f 295 402 324
f 338 359 358
f 338 358 339
f 360 340 339
f 360 339 358
f 361 341 340
f 361 340 360
f 362 342 341
f 362 341 361
f 342 362 363
f 342 363 343
f 397 343 363
f 397 363 395
f 345 397 395
f 345 395 365
f 364 344 345
f 364 345 365
f 383 344 364
f 383 364 381
f 347 383 381
f 347 381 367
f 366 346 347
f 366 347 367
f 368 348 346
f 368 346 366
f 348 368 369
f 348 369 349
f 370 350 349
f 370 349 369
f 371 351 350
f 371 350 370
f 372 352 351
f 372 351 371
f 352 372 373
f 352 373 353
f 354 353 373
f 354 373 374
f 389 354 374
f 389 374 380
f 376 355 389
f 376 389 380
f 356 355 376
f 356 376 375
f 377 357 393
f 377 393 394
f 359 338 357
f 359 357 377
f 393 119 122
f 393 122 394
f 394 122 121
f 394 121 375
f 375 121 120
f 375 120 356
f 356 120 119
f 356 119 393
f 403 404 405
f 406 407 408
f 409 410 411
f 412 413 414
f 415 416 417
f 418 419 420
f 421 422 423
f 424 425 426
f 427 428 429
f 430 431 432
f 433 434 435
f 436 437 438
f 439 440 441
f 442 443 444
f 445 446 447
f 448 446 449
f 450 446 451
f 452 446 453
f 454 446 455
f 456 446 457
f 458 446 459
f 460 446 461
f 462 446 463
f 464 446 465
f 466 446 467
f 468 446 469
f 470 446 471
f 472 446 473
f 474 475 476
f 474 476 477
f 478 479 480
f 478 480 481
f 482 483 484
f 482 484 485
f 486 487 488
f 486 488 489
f 490 491 492
f 490 492 493
f 494 495 496
f 494 496 497
f 498 499 500
f 498 500 501
f 502 503 504
f 502 504 505
f 506 507 508
f 506 508 509
f 510 511 512
f 510 512 513
f 514 515 516
f 514 516 517
f 518 519 520
f 518 520 521
f 522 523 524
f 522 524 525
f 526 527 528
f 526 528 529
f 477 476 530
f 477 530 531
f 481 480 532
f 481 532 533
f 485 484 534
f 485 534 535
f 489 488 536
f 489 536 537
f 493 492 538
f 493 538 539
f 497 496 540
f 497 540 541
f 501 500 542
f 501 542 543
f 505 504 544
f 505 544 545
f 509 508 546
f 509 546 547
f 513 512 548
f 513 548 549
f 517 516 550
f 517 550 551
f 521 520 552
f 521 552 553
f 525 524 554
f 525 554 555
f 529 528 556
f 529 556 557
f 531 530 404
f 531 404 403
f 533 532 407
f 533 407 406
f 535 534 410
f 535 410 409
f 537 536 413
f 537 413 412
f 539 538 416
f 539 416 415
f 541 540 419
f 541 419 418
f 543 542 422
f 543 422 421
f 545 544 425
f 545 425 424
f 547 546 428
f 547 428 427
f 549 548 431
f 549 431 430
f 551 550 434
f 551 434 433
f 553 552 437
f 553 437 436
f 555 554 440
f 555 440 439
f 557 556 443
f 557 443 442
f 558 559 560
f 558 560 561
f 562 563 564
f 562 564 565
f 566 567 568
f 566 568 569
f 570 571 572
f 570 572 573
f 574 575 576
f 574 576 577
f 578 579 580
f 578 580 581
f 582 583 584
f 582 584 585
f 586 587 588
f 586 588 589
f 590 591 592
f 590 592 593
f 594 595 596
f 594 596 597
f 598 599 600
f 598 600 601
f 527 526 602
f 527 602 603
f 523 522 604
f 523 604 605
f 507 506 606
f 507 606 607
f 503 502 608
f 503 608 609
f 499 498 610
f 499 610 611
f 495 494 612
f 495 612 613
f 491 490 614
f 491 614 615
f 487 486 616
f 487 616 617
f 483 482 618
f 483 618 619
f 479 478 620
f 479 620 621
f 475 474 622
f 475 622 623
f 603 602 599
f 603 599 598
f 605 604 595
f 605 595 594
f 607 606 591
f 607 591 590
f 609 608 587
f 609 587 586
f 611 610 583
f 611 583 582
f 613 612 579
f 613 579 578
f 615 614 575
f 615 575 574
f 617 616 571
f 617 571 570
f 619 618 567
f 619 567 566
f 621 620 563
f 621 563 562
f 623 622 559
f 623 559 558
f 624 625 626
f 624 626 627
f 628 629 630
f 628 630 631
f 632 633 634
f 632 634 635
f 636 637 638
f 636 638 639
f 640 641 642
f 640 642 643
f 644 645 646
f 644 646 647
f 648 649 650
f 648 650 651
f 652 653 654
f 652 654 655
f 656 657 658
f 656 658 659
f 660 661 662
f 660 662 663
f 664 665 666
f 664 666 667
f 668 669 670
f 668 670 671
f 672 673 674
f 672 674 675
f 676 677 678
f 676 678 679
f 625 680 681
f 625 681 626
f 629 682 683
f 629 683 630
f 633 684 685
f 633 685 634
f 637 686 687
f 637 687 638
f 641 688 689
f 641 689 642
f 645 690 691
f 645 691 646
f 649 692 693
f 649 693 650
f 653 694 695
f 653 695 654
f 657 696 697
f 657 697 658
f 661 698 699
f 661 699 662
f 665 700 701
f 665 701 666
f 669 702 703
f 669 703 670
f 673 704 705
f 673 705 674
f 677 706 707
f 677 707 678
f 680 445 447
f 680 447 681
f 682 448 449
f 682 449 683
f 684 450 451
f 684 451 685
f 686 452 453
f 686 453 687
f 688 454 455
f 688 455 689
f 690 456 457
f 690 457 691
f 692 458 459
f 692 459 693
f 694 460 461
f 694 461 695
f 696 462 463
f 696 463 697
f 698 464 465
f 698 465 699
f 700 466 467
f 700 467 701
f 702 468 469
f 702 469 703
f 704 470 471
f 704 471 705
f 706 472 473
f 706 473 707
f 708 709 710
f 708 710 711
f 712 713 714
f 712 714 715
f 716 717 718
f 716 718 719
f 720 721 722
f 720 722 723
f 724 725 726
f 724 726 727
f 728 729 730
f 728 730 731
f 732 733 734
f 732 734 735
f 736 737 738
f 736 738 739
f 740 741 742
f 740 742 743
f 744 745 746
f 744 746 747
f 748 749 750
f 748 750 751
f 679 752 753
f 679 753 676
f 675 754 755
f 675 755 672
f 659 756 757
f 659 757 656
f 655 758 759
f 655 759 652
f 651 760 761
f 651 761 648
f 647 762 763
f 647 763 644
f 643 764 765
f 643 765 640
f 639 766 767
f 639 767 636
f 635 768 769
f 635 769 632
f 631 770 771
f 631 771 628
f 627 772 773
f 627 773 624
f 752 748 751
f 752 751 753
f 754 744 747
f 754 747 755
f 756 740 743
f 756 743 757
f 758 736 739
f 758 739 759
f 760 732 735
f 760 735 761
f 762 728 731
f 762 731 763
f 764 724 727
f 764 727 765
f 766 720 723
f 766 723 767
f 768 716 719
f 768 719 769
f 770 712 715
f 770 715 771
f 772 708 711
f 772 711 773
f 627 626 476
f 627 476 475
f 625 624 474
f 625 474 477
f 626 681 530
f 626 530 476
f 680 625 477
f 680 477 531
f 681 447 404
f 681 404 530
f 445 680 531
f 445 531 403
f 447 446 405
f 447 405 404
f 446 445 403
f 446 403 405
f 711 710 560
f 711 560 559
f 710 709 561
f 710 561 560
f 709 708 558
f 709 558 561
f 624 773 622
f 624 622 474
f 772 627 475
f 772 475 623
f 773 711 559
f 773 559 622
f 708 772 623
f 708 623 558
f 631 630 480
f 631 480 479
f 629 628 478
f 629 478 481
f 630 683 532
f 630 532 480
f 682 629 481
f 682 481 533
f 683 449 407
f 683 407 532
f 448 682 533
f 448 533 406
f 449 446 408
f 449 408 407
f 446 448 406
f 446 406 408
f 715 714 564
f 715 564 563
f 714 713 565
f 714 565 564
f 713 712 562
f 713 562 565
f 628 771 620
f 628 620 478
f 770 631 479
f 770 479 621
f 771 715 563
f 771 563 620
f 712 770 621
f 712 621 562
f 635 634 484
f 635 484 483
f 633 632 482
f 633 482 485
f 634 685 534
f 634 534 484
f 684 633 485
f 684 485 535
f 685 451 410
f 685 410 534
f 450 684 535
f 450 535 409
f 451 446 411
f 451 411 410
f 446 450 409
f 446 409 411
f 719 718 568
f 719 568 567
f 718 717 569
f 718 569 568
f 717 716 566
f 717 566 569
f 632 769 618
f 632 618 482
f 768 635 483
f 768 483 619
f 769 719 567
f 769 567 618
f 716 768 619
f 716 619 566
f 639 638 488
f 639 488 487
f 637 636 486
f 637 486 489
f 638 687 536
f 638 536 488
f 686 637 489
f 686 489 537
f 687 453 413
f 687 413 536
f 452 686 537
f 452 537 412
f 453 446 414
f 453 414 413
f 446 452 412
f 446 412 414
f 723 722 572
f 723 572 571
f 722 721 573
f 722 573 572
f 721 720 570
f 721 570 573
f 636 767 616
f 636 616 486
f 766 639 487
f 766 487 617
f 767 723 571
f 767 571 616
f 720 766 617
f 720 617 570
f 643 642 492
f 643 492 491
f 641 640 490
f 641 490 493
f 642 689 538
f 642 538 492
f 688 641 493
f 688 493 539
f 689 455 416
f 689 416 538
f 454 688 539
f 454 539 415
f 455 446 417
f 455 417 416
f 446 454 415
f 446 415 417
f 727 726 576
f 727 576 575
f 726 725 577
f 726 577 576
f 725 724 574
f 725 574 577
f 640 765 614
f 640 614 490
f 764 643 491
f 764 491 615
f 765 727 575
f 765 575 614
f 724 764 615
f 724 615 574
f 647 646 496
f 647 496 495
f 645 644 494
f 645 494 497
f 646 691 540
f 646 540 496
f 690 645 497
f 690 497 541
f 691 457 419
f 691 419 540
f 456 690 541
f 456 541 418
f 457 446 420
f 457 420 419
f 446 456 418
f 446 418 420
f 731 730 580
f 731 580 579
f 730 729 581
f 730 581 580
f 729 728 578
f 729 578 581
f 644 763 612
f 644 612 494
f 762 647 495
f 762 495 613
f 763 731 579
f 763 579 612
f 728 762 613
f 728 613 578
f 651 650 500
f 651 500 499
f 649 648 498
f 649 498 501
f 650 693 542
f 650 542 500
f 692 649 501
f 692 501 543
f 693 459 422
f 693 422 542
f 458 692 543
f 458 543 421
f 459 446 423
f 459 423 422
f 446 458 421
f 446 421 423
f 735 734 584
f 735 584 583
f 734 733 585
f 734 585 584
f 733 732 582
f 733 582 585
f 648 761 610
f 648 610 498
f 760 651 499
f 760 499 611
f 761 735 583
f 761 583 610
f 732 760 611
f 732 611 582
f 655 654 504
f 655 504 503
f 653 652 502
f 653 502 505
f 654 695 544
f 654 544 504
f 694 653 505
f 694 505 545
f 695 461 425
f 695 425 544
f 460 694 545
f 460 545 424
f 461 446 426
f 461 426 425
f 446 460 424
f 446 424 426
f 739 738 588
f 739 588 587
f 738 737 589
f 738 589 588
f 737 736 586
f 737 586 589
f 652 759 608
f 652 608 502
f 758 655 503
f 758 503 609
f 759 739 587
f 759 587 608
f 736 758 609
f 736 609 586
f 659 658 508
f 659 508 507
f 657 656 506
f 657 506 509
f 658 697 546
f 658 546 508
f 696 657 509
f 696 509 547
f 697 463 428
f 697 428 546
f 462 696 547
f 462 547 427
f 463 446 429
f 463 429 428
f 446 462 427
f 446 427 429
f 743 742 592
f 743 592 591
f 742 741 593
f 742 593 592
f 741 740 590
f 741 590 593
f 656 757 606
f 656 606 506
f 756 659 507
f 756 507 607
f 757 743 591
f 757 591 606
f 740 756 607
f 740 607 590
f 663 662 512
f 663 512 511
f 661 660 510
f 661 510 513
f 662 699 548
f 662 548 512
f 698 661 513
f 698 513 549
f 699 465 431
f 699 431 548
f 464 698 549
f 464 549 430
f 465 446 432
f 465 432 431
f 446 464 430
f 446 430 432
f 667 666 516
f 667 516 515
f 665 664 514
f 665 514 517
f 666 701 550
f 666 550 516
f 700 665 517
f 700 517 551
f 701 467 434
f 701 434 550
f 466 700 551
f 466 551 433
f 467 446 435
f 467 435 434
f 446 466 433
f 446 433 435
f 671 670 520
f 671 520 519
f 669 668 518
f 669 518 521
f 670 703 552
f 670 552 520
f 702 669 521
f 702 521 553
f 703 469 437
f 703 437 552
f 468 702 553
f 468 553 436
f 469 446 438
f 469 438 437
f 446 468 436
f 446 436 438
f 675 674 524
f 675 524 523
f 673 672 522
f 673 522 525
f 674 705 554
f 674 554 524
f 704 673 525
f 704 525 555
f 705 471 440
f 705 440 554
f 470 704 555
f 470 555 439
f 471 446 441
f 471 441 440
f 446 470 439
f 446 439 441
f 747 746 596
f 747 596 595
f 746 745 597
f 746 597 596
f 745 744 594
f 745 594 597
f 672 755 604
f 672 604 522
f 754 675 523
f 754 523 605
f 755 747 595
f 755 595 604
f 744 754 605
f 744 605 594
f 679 678 528
f 679 528 527
f 677 676 526
f 677 526 529
f 678 707 556
f 678 556 528
f 706 677 529
f 706 529 557
f 707 473 443
f 707 443 556
f 472 706 557
f 472 557 442
f 473 446 444
f 473 444 443
f 446 472 442
f 446 442 444
f 751 750 600
f 751 600 599
f 750 749 601
f 750 601 600
f 749 748 598
f 749 598 601
f 676 753 602
f 676 602 526
f 752 679 527
f 752 527 603
f 753 751 599
f 753 599 602
f 748 752 603
f 748 603 598
f 774 775 776
f 774 776 777
f 776 778 779
f 776 779 777
f 779 780 781
f 779 781 777
f 781 782 774
f 781 774 777
f 781 780 783
f 781 783 784
f 783 785 786
f 783 786 784
f 786 787 788
f 786 788 784
f 788 782 781
f 788 781 784
f 788 787 789
f 788 789 790
f 789 791 792
f 789 792 790
f 792 793 794
f 792 794 790
f 794 782 788
f 794 788 790
f 794 793 795
f 794 795 796
f 795 797 798
f 795 798 796
f 798 775 774
f 798 774 796
f 774 782 794
f 774 794 796
f 799 793 792
f 799 792 800
f 792 791 801
f 792 801 800
f 801 802 803
f 801 803 800
f 803 804 799
f 803 799 800
f 803 802 805
f 803 805 806
f 805 807 808
f 805 808 806
f 808 809 810
f 808 810 806
f 810 804 803
f 810 803 806
f 810 809 811
f 810 811 812
f 811 813 814
f 811 814 812
f 814 815 816
f 814 816 812
f 816 804 810
f 816 810 812
f 816 815 817
f 816 817 818
f 817 797 795
f 817 795 818
f 795 793 799
f 795 799 818
f 799 804 816
f 799 816 818
f 819 815 814
f 819 814 820
f 814 813 821
f 814 821 820
f 821 822 823
f 821 823 820
f 823 824 819
f 823 819 820
f 823 822 825
f 823 825 826
f 825 827 828
f 825 828 826
f 828 829 830
f 828 830 826
f 830 824 823
f 830 823 826
f 830 829 831
f 830 831 832
f 831 778 776
f 831 776 832
f 776 775 833
f 776 833 832
f 833 824 830
f 833 830 832
f 833 775 798
f 833 798 834
f 798 797 817
f 798 817 834
f 817 815 819
f 817 819 834
f 819 824 833
f 819 833 834
f 835 836 837
f 835 837 838
f 837 836 839
f 837 839 840
f 839 836 841
f 839 841 842
f 841 836 835
f 841 835 843
f 841 844 845
f 841 845 842
f 845 844 846
f 845 846 847
f 846 844 848
f 846 848 849
f 848 844 841
f 848 841 843
f 848 850 851
f 848 851 849
f 851 850 852
f 851 852 853
f 852 850 854
f 852 854 855
f 854 850 848
f 854 848 843
f 854 856 857
f 854 857 855
f 857 856 858
f 857 858 859
f 858 856 835
f 858 835 838
f 835 856 854
f 835 854 843
f 860 861 852
f 860 852 855
f 852 861 862
f 852 862 853
f 862 861 863
f 862 863 864
f 863 861 860
f 863 860 865
f 863 866 867
f 863 867 864
f 867 866 868
f 867 868 869
f 868 866 870
f 868 870 871
f 870 866 863
f 870 863 865
f 870 872 873
f 870 873 871
f 873 872 874
f 873 874 875
f 874 872 876
f 874 876 877
f 876 872 870
f 876 870 865
f 876 878 879
f 876 879 877
f 879 878 857
f 879 857 859
f 857 878 860
f 857 860 855
f 860 878 876
f 860 876 865
f 880 881 874
f 880 874 877
f 874 881 882
f 874 882 875
f 882 881 883
f 882 883 884
f 883 881 880
f 883 880 885
f 883 886 887
f 883 887 884
f 887 886 888
f 887 888 889
f 888 886 890
f 888 890 891
f 890 886 883
f 890 883 885
f 890 892 893
f 890 893 891
f 893 892 837
f 893 837 840
f 837 892 894
f 837 894 838
f 894 892 890
f 894 890 885
f 894 895 858
f 894 858 838
f 858 895 879
f 858 879 859
f 879 895 880
f 879 880 877
f 880 895 894
f 880 894 885
f 840 839 779
f 840 779 778
f 839 842 780
f 839 780 779
f 842 845 783
f 842 783 780
f 845 847 785
f 845 785 783
f 847 846 786
f 847 786 785
f 846 849 787
f 846 787 786
f 849 851 789
f 849 789 787
f 851 853 791
f 851 791 789
f 853 862 801
f 853 801 791
f 862 864 802
f 862 802 801
f 864 867 805
f 864 805 802
f 867 869 807
f 867 807 805
f 869 868 808
f 869 808 807
f 868 871 809
f 868 809 808
f 871 873 811
f 871 811 809
f 873 875 813
f 873 813 811
f 875 882 821
f 875 821 813
f 882 884 822
f 882 822 821
f 884 887 825
f 884 825 822
f 887 889 827
f 887 827 825
f 889 888 828
f 889 828 827
f 888 891 829
f 888 829 828
f 891 893 831
f 891 831 829
f 893 840 778
f 893 778 831
f 896 897 898
f 896 898 899
f 900 896 899
f 900 899 901
f 902 900 901
f 902 901 903
f 904 902 903
f 904 903 905
f 906 904 905
f 906 905 907
f 908 906 907
f 908 907 909
f 910 908 909
f 910 909 911
f 897 910 911
f 897 911 898
f 899 898 912
f 899 912 913
f 901 899 913
f 901 913 914
f 903 901 914
f 903 914 915
f 905 903 915
f 905 915 916
f 907 905 916
f 907 916 917
f 909 907 917
f 909 917 918
f 911 909 918
f 911 918 919
f 898 911 919
f 898 919 912
f 913 912 920
f 913 920 921
f 914 913 921
f 914 921 922
f 915 914 922
f 915 922 923
f 916 915 923
f 916 923 924
f 917 916 924
f 917 924 925
f 918 917 925
f 918 925 926
f 919 918 926
f 919 926 927
f 912 919 927
f 912 927 920
f 921 920 928
f 921 928 929
f 922 921 929
f 922 929 930
f 923 922 930
f 923 930 931
f 924 923 931
f 924 931 932
f 925 924 932
f 925 932 933
f 926 925 933
f 926 933 934
f 927 926 934
f 927 934 935
f 920 927 935
f 920 935 928
f 929 928 936
f 929 936 937
f 930 929 937
f 930 937 938
f 931 930 938
f 931 938 939
f 932 931 939
f 932 939 940
f 933 932 940
f 933 940 941
f 934 933 941
f 934 941 942
f 935 934 942
f 935 942 943
f 928 935 943
f 928 943 936
f 937 936 944
f 937 944 945
f 938 937 945
f 938 945 946
f 939 938 946
f 939 946 947
f 940 939 947
f 940 947 948
f 941 940 948
f 941 948 949
f 942 941 949
f 942 949 950
f 943 942 950
f 943 950 951
f 936 943 951
f 936 951 944
f 945 944 952
f 945 952 953
f 946 945 953
f 946 953 954
f 947 946 954
f 947 954 955
f 948 947 955
f 948 955 956
f 949 948 956
f 949 956 957
f 950 949 957
f 950 957 958
f 951 950 958
f 951 958 959
f 944 951 959
f 944 959 952
f 953 952 897
f 953 897 896
f 954 953 896
f 954 896 900
f 955 954 900
f 955 900 902
f 956 955 902
f 956 902 904
f 957 956 904
f 957 904 906
f 958 957 906
f 958 906 908
f 959 958 908
f 959 908 910
f 952 959 910
f 952 910 897
f 8 6 2
f 2 3 8
f 12 11 10
f 10 9 12
f 32 30 26
f 26 27 32
f 36 35 34
f 34 33 36
f 51 52 58
f 58 59 51
f 54 55 63
f 63 64 54
f 66 67 75
f 75 76 66
f 67 68 74
f 74 75 67
f 68 65 73
f 73 74 68
f 70 71 79
f 79 80 70
f 72 69 77
f 77 78 72
f 71 66 76
f 76 79 71
f 65 72 78
f 78 73 65
f 82 83 91
f 91 92 82
f 83 84 90
f 90 91 83
f 84 81 89
f 89 90 84
f 86 87 95
f 95 96 86
f 88 85 93
f 93 94 88
f 87 82 92
f 92 95 87
f 81 88 94
f 94 89 81
f 109 108 107
f 107 106 109
f 122 121 120
f 120 119 122
f 231 262 260
f 260 215 231
f 98 99 157
f 157 218 98
f 99 100 159
f 159 157 99
f 101 102 227
f 227 216 101
f 100 101 216
f 216 159 100
f 103 104 170
f 170 171 103
f 104 98 218
f 218 170 104
f 102 105 214
f 214 227 102
f 105 103 171
f 171 214 105
f 106 107 262
f 262 231 106
f 107 108 260
f 260 262 107
f 108 109 215
f 215 260 108
f 109 106 231
f 231 215 109
f 375 394 393
f 393 356 375
f 297 112 113
f 113 379 297
f 299 111 112
f 112 297 299
f 389 115 114
f 114 355 389
f 355 114 111
f 111 299 355
f 310 117 116
f 116 311 310
f 379 113 117
f 117 310 379
f 354 118 115
f 115 389 354
f 311 116 118
f 118 354 311
f 394 122 119
f 119 393 394
f 375 121 122
f 122 394 375
f 356 120 121
f 121 375 356
f 393 119 120
f 120 356 393
f 403 405 404
f 406 408 407
f 409 411 410
f 412 414 413
f 415 417 416
f 418 420 419
f 421 423 422
f 424 426 425
f 427 429 428
f 430 432 431
f 433 435 434
f 436 438 437
f 439 441 440
f 442 444 443
f 445 447 446
f 448 449 446
f 450 451 446
f 452 453 446
f 454 455 446
f 456 457 446
f 458 459 446
f 460 461 446
f 462 463 446
f 464 465 446
f 466 467 446
f 468 469 446
f 470 471 446
f 472 473 446
f 477 476 475
f 475 474 477
f 481 480 479
f 479 478 481
f 485 484 483
f 483 482 485
f 489 488 487
f 487 486 489
f 493 492 491
f 491 490 493
f 497 496 495
f 495 494 497
f 501 500 499
f 499 498 501
f 505 504 503
f 503 502 505
f 509 508 507
f 507 506 509
f 513 512 511
f 511 510 513
f 517 516 515
f 515 514 517
f 521 520 519
f 519 518 521
f 525 524 523
f 523 522 525
f 529 528 527
f 527 526 529
f 531 530 476
f 476 477 531
f 533 532 480
f 480 481 533
f 535 534 484
f 484 485 535
f 537 536 488
f 488 489 537
f 539 538 492
f 492 493 539
f 541 540 496
f 496 497 541
f 543 542 500
f 500 501 543
f 545 544 504
f 504 505 545
f 547 546 508
f 508 509 547
f 549 548 512
f 512 513 549
f 551 550 516
f 516 517 551
f 553 552 520
f 520 521 553
f 555 554 524
f 524 525 555
f 557 556 528
f 528 529 557
f 403 404 530
f 530 531 403
f 406 407 532
f 532 533 406
f 409 410 534
f 534 535 409
f 412 413 536
f 536 537 412
f 415 416 538
f 538 539 415
f 418 419 540
f 540 541 418
f 421 422 542
f 542 543 421
f 424 425 544
f 544 545 424
f 427 428 546
f 546 547 427
f 430 431 548
f 548 549 430
f 433 434 550
f 550 551 433
f 436 437 552
f 552 553 436
f 439 440 554
f 554 555 439
f 442 443 556
f 556 557 442
f 627 626 625
f 625 624 627
f 631 630 629
f 629 628 631
f 635 634 633
f 633 632 635
f 639 638 637
f 637 636 639
f 643 642 641
f 641 640 643
f 647 646 645
f 645 644 647
f 651 650 649
f 649 648 651
f 655 654 653
f 653 652 655
f 659 658 657
f 657 656 659
f 663 662 661
f 661 660 663
f 667 666 665
f 665 664 667
f 671 670 669
f 669 668 671
f 675 674 673
f 673 672 675
f 679 678 677
f 677 676 679
f 626 681 680
f 680 625 626
f 630 683 682
f 682 629 630
f 634 685 684
f 684 633 634
f 638 687 686
f 686 637 638
f 642 689 688
f 688 641 642
f 646 691 690
f 690 645 646
f 650 693 692
f 692 649 650
f 654 695 694
f 694 653 654
f 658 697 696
f 696 657 658
f 662 699 698
f 698 661 662
f 666 701 700
f 700 665 666
f 670 703 702
f 702 669 670
f 674 705 704
f 704 673 674
f 678 707 706
f 706 677 678
f 681 447 445
f 445 680 681
f 683 449 448
f 448 682 683
f 685 451 450
f 450 684 685
f 687 453 452
f 452 686 687
f 689 455 454
f 454 688 689
f 691 457 456
f 456 690 691
f 693 459 458
f 458 692 693
f 695 461 460
f 460 694 695
f 697 463 462
f 462 696 697
f 699 465 464
f 464 698 699
f 701 467 466
f 466 700 701
f 703 469 468
f 468 702 703
f 705 471 470
f 470 704 705
f 707 473 472
f 472 706 707
f 475 476 626
f 626 627 475
f 477 474 624
f 624 625 477
f 476 530 681
f 681 626 476
f 531 477 625
f 625 680 531
f 530 404 447
f 447 681 530
f 403 531 680
f 680 445 403
f 404 405 446
f 446 447 404
f 405 403 445
f 445 446 405
f 559 560 710
f 710 711 559
f 560 561 709
f 709 710 560
f 561 558 708
f 708 709 561
f 474 622 773
f 773 624 474
f 623 475 627
f 627 772 623
f 622 559 711
f 711 773 622
f 558 623 772
f 772 708 558
f 479 480 630
f 630 631 479
f 481 478 628
f 628 629 481
f 480 532 683
f 683 630 480
f 533 481 629
f 629 682 533
f 532 407 449
f 449 683 532
f 406 533 682
f 682 448 406
f 407 408 446
f 446 449 407
f 408 406 448
f 448 446 408
f 563 564 714
f 714 715 563
f 564 565 713
f 713 714 564
f 565 562 712
f 712 713 565
f 478 620 771
f 771 628 478
f 621 479 631
f 631 770 621
f 620 563 715
f 715 771 620
f 562 621 770
f 770 712 562
f 483 484 634
f 634 635 483
f 485 482 632
f 632 633 485
f 484 534 685
f 685 634 484
f 535 485 633
f 633 684 535
f 534 410 451
f 451 685 534
f 409 535 684
f 684 450 409
f 410 411 446
f 446 451 410
f 411 409 450
f 450 446 411
f 567 568 718
f 718 719 567
f 568 569 717
f 717 718 568
f 569 566 716
f 716 717 569
f 482 618 769
f 769 632 482
f 619 483 635
f 635 768 619
f 618 567 719
f 719 769 618
f 566 619 768
f 768 716 566
f 487 488 638
f 638 639 487
f 489 486 636
f 636 637 489
f 488 536 687
f 687 638 488
f 537 489 637
f 637 686 537
f 536 413 453
f 453 687 536
f 412 537 686
f 686 452 412
f 413 414 446
f 446 453 413
f 414 412 452
f 452 446 414
f 571 572 722
f 722 723 571
f 572 573 721
f 721 722 572
f 573 570 720
f 720 721 573
f 486 616 767
f 767 636 486
f 617 487 639
f 639 766 617
f 616 571 723
f 723 767 616
f 570 617 766
f 766 720 570
f 491 492 642
f 642 643 491
f 493 490 640
f 640 641 493
f 492 538 689
f 689 642 492
f 539 493 641
f 641 688 539
f 538 416 455
f 455 689 538
f 415 539 688
f 688 454 415
f 416 417 446
f 446 455 416
f 417 415 454
f 454 446 417
f 575 576 726
f 726 727 575
f 576 577 725
f 725 726 576
f 577 574 724
f 724 725 577
f 490 614 765
f 765 640 490
f 615 491 643
f 643 764 615
f 614 575 727
f 727 765 614
f 574 615 764
f 764 724 574
f 495 496 646
f 646 647 495
f 497 494 644
f 644 645 497
f 496 540 691
f 691 646 496
f 541 497 645
f 645 690 541
f 540 419 457
f 457 691 540
f 418 541 690
f 690 456 418
f 419 420 446
f 446 457 419
f 420 418 456
f 456 446 420
f 579 580 730
f 730 731 579
f 580 581 729
f 729 730 580
f 581 578 728
f 728 729 581
f 494 612 763
f 763 644 494
f 613 495 647
f 647 762 613
f 612 579 731
f 731 763 612
f 578 613 762
f 762 728 578
f 499 500 650
f 650 651 499
f 501 498 648
f 648 649 501
f 500 542 693
f 693 650 500
f 543 501 649
f 649 692 543
f 542 422 459
f 459 693 542
f 421 543 692
f 692 458 421
f 422 423 446
f 446 459 422
f 423 421 458
f 458 446 423
f 583 584 734
f 734 735 583
f 584 585 733
f 733 734 584
f 585 582 732
f 732 733 585
f 498 610 761
f 761 648 498
f 611 499 651
f 651 760 611
f 610 583 735
f 735 761 610
f 582 611 760
f 760 732 582
f 503 504 654
f 654 655 503
f 505 502 652
f 652 653 505
f 504 544 695
f 695 654 504
f 545 505 653
f 653 694 545
f 544 425 461
f 461 695 544
f 424 545 694
f 694 460 424
f 425 426 446
f 446 461 425
f 426 424 460
f 460 446 426
f 588 589 737
f 737 738 588
f 502 608 759
f 759 652 502
f 507 508 658
f 658 659 507
f 508 546 697
f 697 658 508
f 546 428 463
f 463 697 546
f 428 429 446
f 446 463 428
f 592 593 741
f 741 742 592
f 511 512 662
f 662 663 511
f 513 510 660
f 660 661 513
f 512 548 699
f 699 662 512
f 548 431 465
f 465 699 548
f 431 432 446
f 446 465 431
f 515 516 666
f 666 667 515
f 517 514 664
f 664 665 517
f 516 550 701
f 701 666 516
f 551 517 665
f 665 700 551
f 550 434 467
f 467 701 550
f 433 551 700
f 700 466 433
f 434 435 446
f 446 467 434
f 435 433 466
f 466 446 435
f 519 520 670
f 670 671 519
f 521 518 668
f 668 669 521
f 520 552 703
f 703 670 520
f 553 521 669
f 669 702 553
f 552 437 469
f 469 703 552
f 436 553 702
f 702 468 436
f 437 438 446
f 446 469 437
f 438 436 468
f 468 446 438
f 554 440 471
f 471 705 554
f 439 555 704
f 704 470 439
f 440 441 446
f 446 471 440
f 441 439 470
f 470 446 441
f 595 596 746
f 746 747 595
f 596 597 745
f 745 746 596
f 597 594 744
f 744 745 597
f 522 604 755
f 755 672 522
f 605 523 675
f 675 754 605
f 604 595 747
f 747 755 604
f 594 605 754
f 754 744 594
f 527 528 678
f 678 679 527
f 529 526 676
f 676 677 529
f 528 556 707
f 707 678 528
f 557 529 677
f 677 706 557
f 556 443 473
f 473 707 556
f 442 557 706
f 706 472 442
f 443 444 446
f 446 473 443
f 444 442 472
f 472 446 444
f 599 600 750
f 750 751 599
f 600 601 749
f 749 750 600
f 601 598 748
f 748 749 601
f 526 602 753
f 753 676 526
f 603 527 679
f 679 752 603
f 602 599 751
f 751 753 602
f 598 603 752
f 752 748 598
f 778 779 839
f 839 840 778
f 779 780 842
f 842 839 779
f 780 783 845
f 845 842 780
f 783 785 847
f 847 845 783
f 785 786 846
f 846 847 785
f 786 787 849
f 849 846 786
f 787 789 851
f 851 849 787
f 789 791 853
f 853 851 789
f 791 801 862
f 862 853 791
f 801 802 864
f 864 862 801
f 802 805 867
f 867 864 802
f 805 807 869
f 869 867 805
f 807 808 868
f 868 869 807
f 808 809 871
f 871 868 808
f 809 811 873
f 873 871 809
f 811 813 875
f 875 873 811
f 813 821 882
f 882 875 813
f 821 822 884
f 884 882 821
f 822 825 887
f 887 884 822
f 825 827 889
f 889 887 825
f 827 828 888
f 888 889 827
f 828 829 891
f 891 888 828
f 829 831 893
f 893 891 829
f 831 778 840
f 840 893 831
f 899 898 897
f 897 896 899
f 901 899 896
f 896 900 901
f 903 901 900
f 900 902 903
f 905 903 902
f 902 904 905
f 907 905 904
f 904 906 907
f 909 907 906
f 906 908 909
f 911 909 908
f 908 910 911
f 898 911 910
f 910 897 898
f 913 912 898
f 898 899 913
f 914 913 899
f 899 901 914
f 915 914 901
f 901 903 915
f 916 915 903
f 903 905 916
f 917 916 905
f 905 907 917
f 918 917 907
f 907 909 918
f 919 918 909
f 909 911 919
f 912 919 911
f 911 898 912
f 921 920 912
f 912 913 921
f 922 921 913
f 913 914 922
f 923 922 914
f 914 915 923
f 924 923 915
f 915 916 924
f 925 924 916
f 916 917 925
f 926 925 917
f 917 918 926
f 927 926 918
f 918 919 927
f 920 927 919
f 919 912 920
f 929 928 920
f 920 921 929
f 930 929 921
f 921 922 930
f 931 930 922
f 922 923 931
f 932 931 923
f 923 924 932
f 933 932 924
f 924 925 933
f 934 933 925
f 925 926 934
f 935 934 926
f 926 927 935
f 928 935 927
f 927 920 928
f 937 936 928
f 928 929 937
f 938 937 929
f 929 930 938
f 939 938 930
f 930 931 939
f 940 939 931
f 931 932 940
f 941 940 932
f 932 933 941
f 942 941 933
f 933 934 942
f 943 942 934
f 934 935 943
f 936 943 935
f 935 928 936
f 945 944 936
f 936 937 945
f 946 945 937
f 937 938 946
f 947 946 938
f 938 939 947
f 948 947 939
f 939 940 948
f 949 948 940
f 940 941 949
f 950 949 941
f 941 942 950
f 951 950 942
f 942 943 951
f 944 951 943
f 943 936 944
f 953 952 944
f 944 945 953
f 954 953 945
f 945 946 954
f 955 954 946
f 946 947 955
f 956 955 947
f 947 948 956
f 957 956 948
f 948 949 957
f 958 957 949
f 949 950 958
f 959 958 950
f 950 951 959
f 952 959 951
f 951 944 952
f 896 897 952
f 952 953 896
f 900 896 953
f 953 954 900
f 902 900 954
f 954 955 902
f 904 902 955
f 955 956 904
f 906 904 956
f 956 957 906
f 908 906 957
f 957 958 908
f 910 908 958
f 958 959 910
f 897 910 959
f 959 952 897