# https://github.com/mikedh/trimesh
v -0.00598567 0.00779880 0.01251278
v -0.00598567 0.00936979 0.01243085
v -0.00543167 0.00948445 0.01429532
v -0.00543167 0.00715499 0.01484538
v -0.00734803 0.00701331 0.01255375
v -0.00734803 0.00616716 0.01474693
v -0.00871039 0.00779880 0.01251278
v -0.00926440 0.00715499 0.01484538
v -0.00871039 0.00936979 0.01243085
v -0.00926440 0.00948445 0.01429532
v -0.00734803 0.01015527 0.01238989
v -0.00734803 0.01031502 0.01337160
v -0.01323211 -0.00441624 0.00058140
v -0.01323211 -0.00412817 0.00009115
v -0.00734803 -0.00707445 0.00013454
v -0.00734803 -0.00727497 0.00081456
v -0.00146394 -0.00412817 0.00009115
v -0.00146394 -0.00441624 0.00058140
v -0.00612214 0.00771214 0.00735886
v -0.00612214 0.00902769 0.00735295
v -0.00727087 0.00705435 0.00736180
v -0.00841959 0.00771214 0.00735886
v -0.00841959 0.00902769 0.00735295
v -0.00727087 0.00968548 0.00734999
v -0.00635849 0.00844703 0.00282941
v -0.00635849 0.00735852 0.00317688
v -0.00504729 0.00674395 0.00227914
v -0.00504729 0.00807978 0.00098471
v -0.00734803 0.00681427 0.00335061
v -0.00734803 0.00607603 0.00292636
v -0.00833757 0.00735852 0.00317688
v -0.00964877 0.00674395 0.00227914
v -0.00833757 0.00844703 0.00282941
v -0.00964877 0.00807978 0.00098471
v -0.00734803 0.00899129 0.00265567
v -0.00734803 0.00874770 0.00033749
v -0.00421289 0.00530145 0.00150256
v -0.00421289 0.00522216 0.00007514
v -0.00734803 0.00534109 0.00285483
v -0.01048318 0.00530145 0.00150256
v -0.01048318 0.00522216 0.00007514
v -0.00734803 0.00518252 0.00000000
v -0.00359837 -0.00022385 0.00064595
v -0.00359837 -0.00028457 0.00006515
v -0.00734803 -0.00065508 0.00109918
v -0.01109770 -0.00022385 0.00064595
v -0.01109770 -0.00028457 0.00006515
v -0.00734803 -0.00122856 0.00005814
v -0.00399718 0.01015900 0.01457127
v -0.00409467 0.00636094 0.01470508
v -0.00734803 0.00453923 0.01516395
v -0.01059570 0.00630270 0.01638324
v -0.01068931 0.01052280 0.01581257
v -0.00734803 0.01160157 0.01290849
v -0.00318349 0.01082759 0.01513276
v -0.00329686 0.00562440 0.01558973
v -0.00734803 0.00276756 0.01662715
v -0.01264910 0.00527057 0.01867091
v -0.01275401 0.01141730 0.01793875
v -0.00734803 0.01343959 0.01308257
v -0.01450047 0.00448482 0.02271704
v -0.01450047 0.01219394 0.02124348
v -0.00727621 0.00158888 0.01863055
v -0.00280732 0.00574286 0.01623470
v -0.00280732 0.01054274 0.01594058
v -0.00734803 0.01497374 0.01520365
v 0.00548534 0.00948445 0.01429532
v 0.00603935 0.00936979 0.01243085
v 0.00603935 0.00779880 0.01251278
v 0.00548534 0.00715498 0.01484538
v 0.00740172 0.00701331 0.01255375
v 0.00740172 0.00616716 0.01474693
v 0.00876407 0.00779880 0.01251278
v 0.00931808 0.00715498 0.01484538
v 0.00876407 0.00936979 0.01243085
v 0.00931808 0.00948445 0.01429532
v 0.00740172 0.01015527 0.01238989
v 0.00740172 0.01031502 0.01337160
v 0.00740172 -0.00707445 0.00013454
v 0.01298764 -0.00412817 0.00009115
v 0.01298764 -0.00441624 0.00058140
v 0.00740172 -0.00727497 0.00081456
v 0.00181579 -0.00441624 0.00058140
v 0.00181579 -0.00412817 0.00009115
v 0.00616339 0.00768972 0.00740201
v 0.00616339 0.00901984 0.00740761
v 0.00732468 0.00702466 0.00739920
v 0.00848597 0.00768972 0.00740201
v 0.00848597 0.00901984 0.00740761
v 0.00732468 0.00968490 0.00741042
v 0.00510098 0.00674395 0.00227914
v 0.00641218 0.00735852 0.00317688
v 0.00641218 0.00844703 0.00282941
v 0.00510098 0.00807978 0.00098471
v 0.00740172 0.00607603 0.00292636
v 0.00740172 0.00681427 0.00335061
v 0.00970245 0.00674395 0.00227914
v 0.00839126 0.00735852 0.00317688
v 0.00970245 0.00807978 0.00098471
v 0.00839126 0.00844703 0.00282941
v 0.00740172 0.00874770 0.00033749
v 0.00740172 0.00899129 0.00265567
v 0.00426657 0.00530145 0.00150256
v 0.00426657 0.00522216 0.00007514
v 0.00740172 0.00534109 0.00285483
v 0.01053686 0.00530145 0.00150256
v 0.01053686 0.00522216 0.00007514
v 0.00740172 0.00518252 0.00000000
v 0.00378163 -0.00022385 0.00064595
v 0.00378163 -0.00028457 0.00006515
v 0.00740172 -0.00065508 0.00109918
v 0.01102179 -0.00022385 0.00064595
v 0.01102179 -0.00028457 0.00006515
v 0.00740172 -0.00122856 0.00005814
v 0.00405086 0.01015900 0.01457127
v 0.00414835 0.00636094 0.01470508
v 0.00740172 0.00453923 0.01516395
v 0.01064938 0.00630270 0.01638324
v 0.01074299 0.01052280 0.01581257
v 0.00740172 0.01160157 0.01290849
v 0.00323718 0.01082759 0.01513276
v 0.00335054 0.00562440 0.01558973
v 0.00740172 0.00276755 0.01662715
v 0.01270279 0.00527057 0.01867091
v 0.01280769 0.01141730 0.01793875
v 0.00740172 0.01343959 0.01308257
v 0.01455414 0.00448482 0.02271704
v 0.01455414 0.01219394 0.02124348
v 0.00733002 0.00158888 0.01863055
v 0.00286101 0.00574286 0.01623470
v 0.00286101 0.01054274 0.01594058
v 0.00740172 0.01497374 0.01520365
v -0.00018026 0.00588570 0.01550185
v -0.00018026 0.01024233 0.01484070
v -0.01500171 0.01145728 0.02397971
v -0.01528169 0.00469038 0.02412276
v 0.01533230 0.00469025 0.02412280
v 0.01505240 0.01145705 0.02397980
v -0.01879184 0.01179640 0.03657651
v -0.01702931 0.01176672 0.02684539
v -0.01730667 0.00467231 0.02716905
v -0.01890804 0.00569897 0.03845636
v 0.01641040 0.00660792 0.04867307
v 0.01894169 0.00570770 0.03850059
v 0.01880627 0.01180161 0.03661179
v 0.01620640 0.01294684 0.04548904
v -0.00811649 0.01248320 0.05009090
v -0.01416166 0.01251246 0.04723454
v -0.01427757 0.00655117 0.05055100
v -0.00818598 0.00646683 0.05338417
v 0.00774172 0.00648225 0.05344170
v 0.01416725 0.00655299 0.05068210
v 0.01405689 0.01251860 0.04735980
v 0.00768281 0.01245283 0.04994789
v -0.00040152 0.01250883 0.05167124
v -0.00040480 0.00647291 0.05525218
v -0.01628444 0.01293359 0.04537707
v -0.01648767 0.00659578 0.04855060
v 0.01735443 0.00467697 0.02717967
v 0.01707233 0.01177107 0.02685911
v -0.01501253 -0.00040353 0.02536652
v -0.01393929 0.01733917 0.02351085
v 0.01506333 -0.00040353 0.02536652
v 0.01399049 0.01733888 0.02351097
v -0.01840121 -0.00034306 0.03976479
v -0.01701576 -0.00020022 0.02823244
v -0.01595282 0.01759090 0.02617480
v -0.01762389 0.01844541 0.03321090
v 0.01706980 -0.00019462 0.02823515
v 0.01846198 -0.00033799 0.03980301
v 0.01762871 0.01844990 0.03323717
v 0.01600186 0.01758491 0.02618097
v -0.00794634 0.00014498 0.05485775
v -0.01388247 0.00003313 0.05182659
v -0.01328268 0.01843250 0.04353714
v -0.00766252 0.01860787 0.04609032
v 0.01377868 0.00002965 0.05195235
v 0.00750771 0.00013960 0.05500393
v 0.00724908 0.01848017 0.04556875
v 0.01318717 0.01843990 0.04365460
v -0.00039823 0.00008242 0.05678602
v -0.00038502 0.01854017 0.04728265
v -0.01612193 -0.00003060 0.04982843
v -0.01527909 0.01890101 0.04167062
v 0.01605604 -0.00002500 0.04994806
v 0.01521344 0.01890916 0.04177709
v -0.00050672 0.00073903 0.01713600
v -0.00051203 0.01498156 0.01413823
v -0.01440569 -0.00711863 0.03014239
v -0.00975475 -0.00586459 0.02347110
v 0.00930971 -0.00586514 0.02332510
v 0.01445676 -0.00711863 0.03014239
v -0.01722422 -0.00705505 0.04112213
v -0.01659985 -0.00585883 0.03277373
v 0.01665708 -0.00585258 0.03277097
v 0.01727421 -0.00704980 0.04114693
v -0.00756393 -0.00501714 0.05357319
v -0.01329029 -0.00512085 0.04994844
v 0.01321020 -0.00511729 0.05005525
v 0.00714704 -0.00501436 0.05371011
v -0.00038774 -0.00499701 0.05529220
v -0.01569540 -0.00469161 0.04735303
v 0.01564556 -0.00468637 0.04746069
v -0.00049354 -0.00570328 0.02127511
v -0.01318070 -0.01206198 0.03555997
v -0.00758921 -0.01275155 0.02857412
v 0.00725903 -0.01277243 0.02845409
v 0.01323929 -0.01206198 0.03555997
v -0.01485497 -0.01095714 0.04355659
v -0.01623473 -0.00920836 0.04204482
v 0.01632257 -0.00920763 0.04203674
v 0.01494720 -0.01095767 0.04354986
v -0.00691791 -0.00815665 0.05450298
v -0.01215969 -0.00889362 0.05068799
v 0.01209822 -0.00887575 0.05077536
v 0.00654814 -0.00813519 0.05461522
v -0.00034901 -0.00789945 0.05591421
v -0.00037617 -0.01273729 0.02624902
v -0.01047765 -0.01718442 0.04226116
v -0.00604915 -0.01930306 0.03755535
v 0.00579976 -0.01934790 0.03747627
v 0.01053651 -0.01718442 0.04226116
v -0.01185949 -0.01363543 0.04806810
v 0.01194599 -0.01363748 0.04806342
v -0.00552766 -0.00953716 0.05483531
v -0.00970985 -0.01102532 0.05230879
v 0.00967369 -0.01099114 0.05236568
v 0.00524617 -0.00949425 0.05490886
v -0.00027147 -0.00899221 0.05578529
v -0.00029308 -0.01989615 0.03551911
v -0.00753940 -0.01910602 0.05067081
v -0.00434725 -0.02168466 0.04869996
v 0.00418609 -0.02174065 0.04866608
v 0.00760041 -0.01910602 0.05067081
v -0.00853065 -0.01484359 0.05305732
v 0.00861149 -0.01484649 0.05305508
v -0.00397041 -0.00989928 0.05586589
v -0.00698240 -0.01171837 0.05480045
v 0.00697491 -0.01167697 0.05482433
v 0.00378618 -0.00984656 0.05589720
v -0.00018628 -0.00922608 0.05627217
v -0.00020185 -0.02317572 0.04765396
v -0.00537729 -0.01728240 0.05585127
v -0.00308795 -0.01945257 0.05548496
v 0.00299138 -0.01949896 0.05548095
v 0.00543989 -0.01728239 0.05585127
v -0.00606279 -0.01411755 0.05633945
v 0.00613916 -0.01412009 0.05633899
v -0.00281311 -0.00964915 0.05676849
v -0.00495926 -0.01113062 0.05666776
v 0.00497270 -0.01109659 0.05666970
v 0.00270032 -0.00960557 0.05677154
v -0.00012359 -0.00910263 0.05681145
v -0.00013471 -0.02100196 0.05523947
v -0.00393588 -0.01019587 0.06566037
v -0.00225645 -0.01131200 0.06594997
v 0.00220333 -0.01134794 0.06595656
v 0.00399953 -0.01019586 0.06566037
v -0.00443876 -0.00808385 0.06525255
v 0.00451252 -0.00808588 0.06525274
v -0.00205481 -0.00537799 0.06462721
v -0.00362922 -0.00643715 0.06485706
v 0.00365681 -0.00641101 0.06485152
v 0.00198981 -0.00534440 0.06462051
v -0.00008180 -0.00495556 0.06454651
v -0.00008996 -0.01232585 0.06609371
v -0.00332493 -0.00567946 0.07377456
v -0.00190398 -0.00657420 0.07392649
v 0.00186938 -0.00660304 0.07393212
v 0.00338913 -0.00567946 0.07377456
v -0.00375041 -0.00298189 0.07328189
v 0.00382316 -0.00298351 0.07328205
v -0.00173338 -0.00056626 0.07232021
v -0.00306546 -0.00152658 0.07282540
v 0.00309915 -0.00150560 0.07282067
v 0.00168873 -0.00053930 0.07231448
v -0.00006404 -0.00017098 0.07211088
v -0.00007094 -0.00738790 0.07404866
v -0.00355411 -0.00345307 0.07869355
v -0.00185098 -0.00379644 0.07859648
v 0.00186126 -0.00387562 0.07874532
v 0.00360849 -0.00346152 0.07868577
v -0.00338500 -0.00135106 0.07851071
v 0.00347188 -0.00135187 0.07851076
v -0.00176281 0.00174543 0.07901946
v -0.00303809 0.00042593 0.07872318
v 0.00310380 0.00043670 0.07872116
v 0.00178730 0.00175927 0.07901699
v -0.00001237 0.00288622 0.07766085
v -0.00022569 0.00256905 0.07930004
v -0.00000951 0.00399455 0.07816029
v -0.00001441 -0.00434828 0.07891798
v -0.00295845 -0.00354274 0.08147006
v -0.00263348 -0.00353476 0.08127730
v 0.00272120 -0.00360337 0.08141798
v 0.00309978 -0.00360464 0.08144758
v -0.00367299 -0.00197719 0.08361159
v 0.00376766 -0.00197719 0.08361159
v -0.00225195 0.00110079 0.08700736
v -0.00367299 -0.00045363 0.08548873
v 0.00376766 -0.00045363 0.08548873
v 0.00234662 0.00110079 0.08700736
v 0.00000680 0.00329554 0.08016797
v 0.00004731 -0.00363381 0.08142293
v -0.00750615 0.02143100 0.01521250
v -0.01231867 0.02256285 0.02144562
v 0.01237101 0.02256257 0.02144575
v 0.00726667 0.02139872 0.01513442
v -0.01418977 0.02349077 0.02334711
v -0.01547861 0.02419520 0.02973748
v 0.01558899 0.02419963 0.02974681
v 0.01425096 0.02348069 0.02334047
v -0.01162803 0.02464370 0.03932948
v -0.00675747 0.02505787 0.04142488
v 0.00635735 0.02502336 0.04046660
v 0.01155640 0.02465486 0.03942774
v -0.00034207 0.02519229 0.04279447
v -0.01344075 0.02466624 0.03711434
v 0.01340140 0.02467797 0.03720927
v -0.00052544 0.02103283 0.01318638
v 0.01005849 0.02926635 0.01614061
v 0.00676065 0.02739889 0.01370656
v 0.01286830 0.03049092 0.02472662
v 0.01259789 0.02848005 0.01934216
v 0.00486694 0.03197393 0.03468033
v 0.00904736 0.03120939 0.03224630
v 0.01161455 0.02910549 0.03147367
v -0.00714347 0.02741503 0.01383992
v -0.00033635 0.02703913 0.01199535
v -0.01000391 0.02926653 0.01614056
v -0.01280519 0.03048524 0.02471693
v -0.01253062 0.02848352 0.01935367
v -0.00516034 0.03173116 0.03428746
v -0.00907268 0.03119071 0.03217978
v -0.00025191 0.03229848 0.03582504
v -0.01162487 0.02908345 0.03139842
v -0.00485582 0.03222295 0.01188976
v -0.00764866 0.03315693 0.01423271
v 0.00770987 0.03315686 0.01423268
v 0.00460442 0.03219131 0.01179320
v -0.01115575 0.03223520 0.02314834
v -0.00848253 0.03458920 0.01935365
v 0.00856874 0.03458774 0.01934316
v 0.01124770 0.03223678 0.02313251
v -0.00690626 0.03625627 0.02351838
v -0.00392697 0.03690178 0.02494556
v 0.00370175 0.03719984 0.02530892
v 0.00691005 0.03627700 0.02355971
v -0.00018050 0.03758095 0.02606628
v -0.00019520 0.03173043 0.01053047
v -0.00206717 0.03632202 0.00894513
v -0.00350233 0.03711914 0.01029996
v 0.00356629 0.03711914 0.01029996
v 0.00202709 0.03630638 0.00891674
v -0.00388893 0.03816907 0.01203903
v 0.00396321 0.03816976 0.01203825
v -0.00319810 0.03905246 0.01344969
v -0.00182198 0.03976319 0.01458980
v 0.00176952 0.03978340 0.01461779
v 0.00323126 0.03906787 0.01347082
v -0.00006923 0.04025292 0.01514836
v -0.00007650 0.03599920 0.00823783
v -0.00054625 0.03950888 0.00542653
v -0.00084936 0.04006974 0.00586263
v 0.00091313 0.03994455 0.00595268
v 0.00058483 0.03950833 0.00541816
v -0.00051376 0.04054123 0.00619308
v 0.00054856 0.04054865 0.00619437
v 0.00000718 0.04083249 0.00628309
v 0.00000534 0.03939149 0.00508163
v 0.00055736 0.04020887 0.00552619
v 0.00001050 0.04034003 0.00536768
v -0.00051160 0.04025738 0.00553335
v -0.00240199 -0.00811748 0.08036909
v -0.00176362 -0.00907216 0.07961934
v -0.00288285 -0.01009504 0.08102483
v -0.00412171 -0.00893372 0.08221565
v -0.00288285 -0.01177890 0.08241039
v -0.00441706 -0.01102988 0.08455058
v -0.00176362 -0.01310271 0.08319817
v -0.00285150 -0.01284351 0.08618061
v 0.00004733 -0.01360838 0.08349908
v 0.00004733 -0.01357857 0.08683812
v 0.00185828 -0.01310271 0.08319817
v 0.00294616 -0.01284351 0.08618061
v 0.00297750 -0.01177888 0.08241039
v 0.00451171 -0.01102988 0.08455058
v 0.00297750 -0.01009504 0.08102483
v 0.00421637 -0.00893372 0.08221565
v 0.00185828 -0.00907216 0.07961934
v 0.00249666 -0.00811748 0.08036909
v -0.00031503 -0.02909003 0.04628054
v -0.00053898 -0.02873599 0.04621698
v 0.00003828 -0.02873599 0.04621698
v 0.00004733 -0.02927350 0.04642072
v 0.00368180 -0.00510281 0.09235547
v 0.00357603 -0.00816329 0.09164970
v 0.00564663 -0.00745789 0.08878924
v 0.00584779 -0.00532551 0.08932922
v 0.00004733 -0.00461686 0.09549613
v 0.00004733 -0.00681311 0.09364728
v 0.00031995 -0.00665853 0.09362861
v 0.00053541 -0.00463485 0.09378906
v -0.00044076 -0.00463485 0.09378907
v -0.00022529 -0.00665853 0.09362861
v -0.00575313 -0.00532553 0.08932923
v -0.00555196 -0.00745789 0.08878924
v -0.00348137 -0.00816329 0.09164970
v -0.00358714 -0.00510281 0.09235547
v -0.00565258 -0.00559886 0.08533703
v -0.00543629 -0.00683346 0.08517223
v -0.00342647 -0.00505181 0.08124961
v -0.00331428 -0.00608579 0.08121400
v 0.00574724 -0.00559886 0.08533703
v 0.00553095 -0.00683346 0.08517223
v 0.00340893 -0.00608579 0.08121400
v 0.00352113 -0.00505181 0.08124961
v 0.00345759 -0.01080963 0.08954531
v 0.00533683 -0.00922330 0.08724273
v 0.00004733 -0.01146645 0.09046609
v -0.00336293 -0.01080963 0.08954531
v -0.00524217 -0.00922330 0.08724273
v -0.00501496 -0.00786267 0.08442192
v -0.00301905 -0.00687357 0.08075632
v 0.00510962 -0.00786267 0.08442192
v 0.00311372 -0.00687357 0.08075632
v 0.00351095 -0.00098042 0.09057116
v 0.00547639 -0.00224784 0.08772298
v 0.00004733 0.00162143 0.09342398
v 0.00049379 -0.00032405 0.09163917
v 0.00004733 0.00329438 0.09150963
v -0.00029737 0.00190018 0.08749376
v 0.00004733 0.00217016 0.09034635
v 0.00004733 0.00473815 0.08796664
v -0.00538173 -0.00224784 0.08772298
v -0.00341628 -0.00098042 0.09057116
v -0.00515626 -0.00349362 0.08441431
v -0.00338957 -0.00411455 0.08126235
v 0.00525092 -0.00349362 0.08441430
v 0.00348423 -0.00411455 0.08126235
v 0.00004733 -0.00844743 0.09277069
v 0.00004733 -0.00114485 0.09520055
v -0.00039914 -0.00032405 0.09163917
v 0.00004733 -0.00189085 0.09376377
v -0.00222163 -0.01138764 0.07932459
v -0.00135496 -0.01036256 0.07871457
v -0.00222163 -0.01265473 0.08007859
v -0.00135496 -0.01367981 0.08068861
v 0.00004733 -0.01407138 0.08092162
v 0.00144963 -0.01367981 0.08068861
v 0.00231628 -0.01265473 0.08007860
v 0.00231628 -0.01138764 0.07932459
v 0.00144963 -0.01036256 0.07871457
v -0.00145187 -0.01750656 0.06870830
v -0.00087922 -0.01682925 0.06830524
v -0.00145187 -0.01834379 0.06920650
v -0.00087922 -0.01902111 0.06960957
v 0.00004733 -0.01927981 0.06976353
v 0.00097389 -0.01902111 0.06960957
v 0.00154652 -0.01834377 0.06920650
v 0.00154652 -0.01750656 0.06870830
v 0.00097389 -0.01682925 0.06830524
v -0.00130525 -0.02235475 0.05938636
v -0.00078861 -0.02169032 0.05913298
v -0.00130525 -0.02317602 0.05969953
v -0.00078861 -0.02384043 0.05995292
v 0.00004733 -0.02409420 0.06004970
v 0.00088327 -0.02384043 0.05995292
v 0.00139990 -0.02317602 0.05969953
v 0.00139990 -0.02235475 0.05938636
v 0.00092126 -0.02169032 0.05913298
v -0.00086538 -0.02685856 0.05033825
v -0.00049286 -0.02647200 0.05005395
v -0.00086538 -0.02733637 0.05068964
v -0.00051676 -0.02772293 0.05097395
v 0.00004733 -0.02787057 0.05108254
v 0.00061141 -0.02772293 0.05097395
v 0.00096004 -0.02733637 0.05068964
v 0.00096004 -0.02685856 0.05033825
v 0.00058654 -0.02647200 0.05005395
v -0.00086538 -0.02844967 0.04795858
v -0.00050096 -0.02798783 0.04787631
v -0.00086538 -0.02902523 0.04805120
v -0.00051676 -0.02946541 0.04830427
v 0.00004733 -0.02966706 0.04836331
v 0.00061141 -0.02946541 0.04830427
v 0.00096004 -0.02902523 0.04805120
v 0.00096004 -0.02844967 0.04795858
v 0.00059734 -0.02799791 0.04786838
v -0.00094325 -0.02854478 0.04728136
v -0.00054606 -0.02815682 0.04742704
v -0.00098585 -0.02912817 0.04718304
v -0.00061376 -0.02955690 0.04714099
v 0.00004733 -0.02977052 0.04710074
v 0.00070843 -0.02955690 0.04714099
v 0.00108052 -0.02912817 0.04718304
v 0.00103792 -0.02854478 0.04728136
v 0.00064073 -0.02815682 0.04742704
v 0.00004733 -0.02762382 0.04781095
v 0.00040017 -0.02766582 0.04782241
v 0.00004733 -0.02784536 0.04733133
v -0.00029754 -0.02766538 0.04782228
v 0.00040969 -0.02815169 0.04669411
v 0.00063363 -0.02841254 0.04641373
v 0.00004733 -0.02810332 0.04699716
v -0.00031503 -0.02815169 0.04669411
v -0.00053898 -0.02841254 0.04641373
v 0.00040969 -0.02909003 0.04628054
v 0.00063363 -0.02873599 0.04621698
v 0.00454523 -0.00655373 0.07771025
v 0.00434797 -0.00755266 0.07671464
v 0.00004873 -0.00653703 0.07524177
v 0.00004782 -0.00581934 0.07676433
v 0.00344543 -0.00850487 0.07882247
v 0.00373860 -0.00754439 0.07967233
v -0.00446642 -0.00657512 0.07772631
v -0.00427962 -0.00756649 0.07674016
v -0.00352156 -0.00844112 0.07873438
v -0.00379898 -0.00748223 0.07959336
v -0.00366489 -0.00456456 0.08032768
v -0.00405391 -0.00516921 0.07972171
v -0.00392419 -0.00574131 0.08086107
v -0.00374248 -0.00492902 0.08102684
v 0.00004736 -0.00471929 0.07878799
v 0.00004731 -0.00416731 0.07959372
v 0.00375527 -0.00453347 0.08032073
v 0.00417827 -0.00514185 0.07971335
v 0.00408769 -0.00577065 0.08089633
v 0.00380203 -0.00493342 0.08104838
v -0.00449158 -0.00577021 0.07864593
v -0.00405501 -0.00654025 0.08034258
v 0.00004754 -0.00516448 0.07784252
v 0.00466329 -0.00590441 0.07904400
v 0.00409800 -0.00656897 0.08026965
v -0.00329455 -0.00394679 0.08091265
v -0.00349341 -0.00405875 0.08115705
v 0.00004731 -0.00390074 0.08061205
v 0.00338429 -0.00392117 0.08090623
v 0.00357580 -0.00405762 0.08116620
v 0.00382726 -0.00858586 0.07574988
v 0.00299025 -0.00960515 0.07760329
v 0.00005402 -0.00719279 0.07414312
v -0.00377712 -0.00858087 0.07578827
v -0.00306118 -0.00951114 0.07748122
v 0.00260428 -0.01393358 0.06687107
v 0.00204475 -0.01585328 0.06780482
v 0.00005445 -0.01190100 0.06612804
v -0.00254164 -0.01395142 0.06689014
v -0.00203658 -0.01574049 0.06775009
v 0.00162178 -0.02001298 0.05795038
v 0.00131063 -0.02114653 0.05870082
v 0.00004953 -0.01932162 0.05694201
v -0.00156154 -0.02002169 0.05796954
v -0.00127279 -0.02108308 0.05865436
v 0.00070441 -0.02614679 0.04982327
v 0.00071954 -0.02633260 0.04997220
v 0.00004707 -0.02584965 0.04971775
v -0.00063188 -0.02619387 0.04985426
v -0.00064762 -0.02633148 0.04997290
v 0.00038601 0.00190213 0.08748956
v 0.00003379 0.00368052 0.08632058
v 0.00029547 0.00257502 0.07929118
v 0.00026128 0.00036005 0.07320880
v -0.00002172 0.00036146 0.07307570
v -0.00020432 0.00035201 0.07321811
v 0.00003920 -0.02841254 0.04641373
f 1 2 3
f 1 3 4
f 5 1 4
f 5 4 6
f 7 5 6
f 7 6 8
f 9 7 8
f 9 8 10
f 11 9 10
f 11 10 12
f 2 11 12
f 2 12 3
f 13 14 15
f 13 15 16
f 17 18 16
f 17 16 15
f 2 1 19
f 2 19 20
f 1 5 21
f 1 21 19
f 5 7 22
f 5 22 21
f 7 9 23
f 7 23 22
f 9 11 24
f 9 24 23
f 11 2 20
f 11 20 24
f 25 26 27
f 25 27 28
f 26 29 30
f 26 30 27
f 29 31 32
f 29 32 30
f 31 33 34
f 31 34 32
f 33 35 36
f 33 36 34
f 35 25 28
f 35 28 36
f 28 27 37
f 28 37 38
f 27 30 39
f 27 39 37
f 30 32 40
f 30 40 39
f 32 34 41
f 32 41 40
f 34 36 42
f 34 42 41
f 36 28 38
f 36 38 42
f 38 37 43
f 38 43 44
f 37 39 45
f 37 45 43
f 39 40 46
f 39 46 45
f 40 41 47
f 40 47 46
f 41 42 48
f 41 48 47
f 42 38 44
f 42 44 48
f 44 43 18
f 44 18 17
f 43 45 16
f 43 16 18
f 45 46 13
f 45 13 16
f 46 47 14
f 46 14 13
f 47 48 15
f 47 15 14
f 48 44 17
f 48 17 15
f 4 3 49
f 4 49 50
f 6 4 50
f 6 50 51
f 8 6 51
f 8 51 52
f 10 8 52
f 10 52 53
f 12 10 53
f 12 53 54
f 3 12 54
f 3 54 49
f 50 49 55
f 50 55 56
f 51 50 56
f 51 56 57
f 52 51 57
f 52 57 58
f 53 52 58
f 53 58 59
f 54 53 59
f 54 59 60
f 49 54 60
f 49 60 55
f 59 58 61
f 59 61 62
f 58 57 63
f 58 63 61
f 57 56 64
f 57 64 63
f 56 55 65
f 56 65 64
f 55 60 66
f 55 66 65
f 60 59 62
f 60 62 66
f 67 68 69
f 67 69 70
f 70 69 71
f 70 71 72
f 72 71 73
f 72 73 74
f 74 73 75
f 74 75 76
f 76 75 77
f 76 77 78
f 78 77 68
f 78 68 67
f 79 80 81
f 79 81 82
f 82 83 84
f 82 84 79
f 85 69 68
f 85 68 86
f 87 71 69
f 87 69 85
f 88 73 71
f 88 71 87
f 89 75 73
f 89 73 88
f 90 77 75
f 90 75 89
f 86 68 77
f 86 77 90
f 91 92 93
f 91 93 94
f 95 96 92
f 95 92 91
f 97 98 96
f 97 96 95
f 99 100 98
f 99 98 97
f 101 102 100
f 101 100 99
f 94 93 102
f 94 102 101
f 103 91 94
f 103 94 104
f 105 95 91
f 105 91 103
f 106 97 95
f 106 95 105
f 107 99 97
f 107 97 106
f 108 101 99
f 108 99 107
f 104 94 101
f 104 101 108
f 109 103 104
f 109 104 110
f 111 105 103
f 111 103 109
f 112 106 105
f 112 105 111
f 113 107 106
f 113 106 112
f 114 108 107
f 114 107 113
f 110 104 108
f 110 108 114
f 83 109 110
f 83 110 84
f 82 111 109
f 82 109 83
f 81 112 111
f 81 111 82
f 80 113 112
f 80 112 81
f 79 114 113
f 79 113 80
f 84 110 114
f 84 114 79
f 115 67 70
f 115 70 116
f 116 70 72
f 116 72 117
f 117 72 74
f 117 74 118
f 118 74 76
f 118 76 119
f 119 76 78
f 119 78 120
f 120 78 67
f 120 67 115
f 121 115 116
f 121 116 122
f 122 116 117
f 122 117 123
f 123 117 118
f 123 118 124
f 124 118 119
f 124 119 125
f 125 119 120
f 125 120 126
f 126 120 115
f 126 115 121
f 127 124 125
f 127 125 128
f 129 123 124
f 129 124 127
f 130 122 123
f 130 123 129
f 131 121 122
f 131 122 130
f 132 126 121
f 132 121 131
f 128 125 126
f 128 126 132
f 133 64 65
f 133 65 134
f 135 62 61
f 135 61 136
f 137 127 128
f 137 128 138
f 139 140 141
f 139 141 142
f 143 144 145
f 143 145 146
f 147 148 149
f 147 149 150
f 151 152 153
f 151 153 154
f 155 147 150
f 155 150 156
f 157 139 142
f 157 142 158
f 144 159 160
f 144 160 145
f 161 136 61
f 161 61 63
f 66 62 135
f 66 135 162
f 129 127 137
f 129 137 163
f 164 138 128
f 164 128 132
f 165 142 141
f 165 141 166
f 167 140 139
f 167 139 168
f 169 159 144
f 169 144 170
f 171 145 160
f 171 160 172
f 173 150 149
f 173 149 174
f 175 148 147
f 175 147 176
f 177 152 151
f 177 151 178
f 179 154 153
f 179 153 180
f 181 156 150
f 181 150 173
f 176 147 155
f 176 155 182
f 183 158 142
f 183 142 165
f 168 139 157
f 168 157 184
f 170 144 143
f 170 143 185
f 186 146 145
f 186 145 171
f 187 63 64
f 187 64 133
f 134 65 66
f 134 66 188
f 189 161 63
f 189 63 190
f 191 129 163
f 191 163 192
f 193 165 166
f 193 166 194
f 195 169 170
f 195 170 196
f 197 173 174
f 197 174 198
f 199 177 178
f 199 178 200
f 201 181 173
f 201 173 197
f 202 183 165
f 202 165 193
f 196 170 185
f 196 185 203
f 190 63 187
f 190 187 204
f 205 189 190
f 205 190 206
f 207 191 192
f 207 192 208
f 209 210 189
f 209 189 205
f 208 192 211
f 208 211 212
f 213 197 198
f 213 198 214
f 215 199 200
f 215 200 216
f 217 201 197
f 217 197 213
f 214 198 210
f 214 210 209
f 212 211 199
f 212 199 215
f 206 190 204
f 206 204 218
f 219 205 206
f 219 206 220
f 221 207 208
f 221 208 222
f 223 209 205
f 223 205 219
f 222 208 212
f 222 212 224
f 225 213 214
f 225 214 226
f 227 215 216
f 227 216 228
f 229 217 213
f 229 213 225
f 226 214 209
f 226 209 223
f 224 212 215
f 224 215 227
f 220 206 218
f 220 218 230
f 231 219 220
f 231 220 232
f 233 221 222
f 233 222 234
f 235 223 219
f 235 219 231
f 234 222 224
f 234 224 236
f 237 225 226
f 237 226 238
f 239 227 228
f 239 228 240
f 241 229 225
f 241 225 237
f 238 226 223
f 238 223 235
f 236 224 227
f 236 227 239
f 232 220 230
f 232 230 242
f 243 231 232
f 243 232 244
f 245 233 234
f 245 234 246
f 247 235 231
f 247 231 243
f 246 234 236
f 246 236 248
f 249 237 238
f 249 238 250
f 251 239 240
f 251 240 252
f 253 241 237
f 253 237 249
f 250 238 235
f 250 235 247
f 248 236 239
f 248 239 251
f 244 232 242
f 244 242 254
f 255 243 244
f 255 244 256
f 257 245 246
f 257 246 258
f 259 247 243
f 259 243 255
f 258 246 248
f 258 248 260
f 261 249 250
f 261 250 262
f 263 251 252
f 263 252 264
f 265 253 249
f 265 249 261
f 262 250 247
f 262 247 259
f 260 248 251
f 260 251 263
f 256 244 254
f 256 254 266
f 267 255 256
f 267 256 268
f 269 257 258
f 269 258 270
f 271 259 255
f 271 255 267
f 270 258 260
f 270 260 272
f 273 261 262
f 273 262 274
f 275 263 264
f 275 264 276
f 277 265 261
f 277 261 273
f 274 262 259
f 274 259 271
f 272 260 263
f 272 263 275
f 268 256 266
f 268 266 278
f 279 267 268
f 279 268 280
f 281 269 270
f 281 270 282
f 283 271 267
f 283 267 279
f 282 270 272
f 282 272 284
f 285 273 274
f 285 274 286
f 287 275 276
f 287 276 288
f 289 290 291
f 286 274 271
f 286 271 283
f 284 272 275
f 284 275 287
f 280 268 278
f 280 278 292
f 293 279 280
f 293 280 294
f 295 281 282
f 295 282 296
f 297 283 279
f 297 279 293
f 296 282 284
f 296 284 298
f 299 285 286
f 299 286 300
f 301 287 288
f 301 288 302
f 291 290 303
f 300 286 283
f 300 283 297
f 298 284 287
f 298 287 301
f 294 280 292
f 294 292 304
f 305 66 162
f 305 162 306
f 307 164 132
f 307 132 308
f 309 167 168
f 309 168 310
f 311 171 172
f 311 172 312
f 313 175 176
f 313 176 314
f 315 179 180
f 315 180 316
f 314 176 182
f 314 182 317
f 310 168 184
f 310 184 318
f 319 186 171
f 319 171 311
f 320 188 66
f 320 66 305
f 321 307 308
f 321 308 322
f 323 311 312
f 323 312 324
f 325 315 316
f 325 316 326
f 327 319 311
f 327 311 323
f 328 329 320
f 328 320 305
f 305 306 330
f 305 330 328
f 309 310 331
f 309 331 332
f 313 314 333
f 313 333 334
f 314 317 335
f 314 335 333
f 310 318 336
f 310 336 331
f 337 328 330
f 337 330 338
f 339 321 322
f 339 322 340
f 338 330 341
f 338 341 342
f 343 344 321
f 343 321 339
f 345 334 333
f 345 333 346
f 347 325 326
f 347 326 348
f 346 333 335
f 346 335 349
f 342 341 334
f 342 334 345
f 348 326 344
f 348 344 343
f 350 329 328
f 350 328 337
f 351 337 338
f 351 338 352
f 353 339 340
f 353 340 354
f 352 338 342
f 352 342 355
f 356 343 339
f 356 339 353
f 357 345 346
f 357 346 358
f 359 347 348
f 359 348 360
f 358 346 349
f 358 349 361
f 355 342 345
f 355 345 357
f 360 348 343
f 360 343 356
f 362 350 337
f 362 337 351
f 363 351 352
f 363 352 364
f 365 353 354
f 365 354 366
f 352 355 364
f 356 353 365
f 364 357 358
f 364 358 367
f 368 359 360
f 368 360 365
f 367 358 361
f 367 361 369
f 355 357 364
f 360 356 365
f 370 362 351
f 370 351 363
f 365 371 368
f 369 372 373
f 369 373 367
f 373 364 367
f 366 371 365
f 370 363 373
f 370 373 372
f 364 373 363
f 374 375 376
f 374 376 377
f 377 376 378
f 377 378 379
f 379 378 380
f 379 380 381
f 381 380 382
f 381 382 383
f 383 382 384
f 383 384 385
f 385 384 386
f 385 386 387
f 387 386 388
f 387 388 389
f 389 388 390
f 389 390 391
f 392 393 394
f 392 394 395
f 396 397 398
f 396 398 399
f 400 401 402
f 400 402 403
f 404 405 401
f 404 401 400
f 406 407 408
f 406 408 409
f 410 411 407
f 410 407 406
f 412 413 411
f 412 411 410
f 414 415 416
f 414 416 417
f 399 398 415
f 399 415 414
f 418 385 387
f 418 387 419
f 420 383 385
f 420 385 418
f 421 381 383
f 421 383 420
f 422 379 381
f 422 381 421
f 423 377 379
f 423 379 422
f 424 374 377
f 424 377 423
f 425 389 391
f 425 391 426
f 419 387 389
f 419 389 425
f 302 427 428
f 302 428 301
f 429 430 431
f 432 433 434
f 300 435 436
f 300 436 299
f 297 437 435
f 297 435 300
f 293 438 437
f 293 437 297
f 298 439 440
f 298 440 296
f 301 428 439
f 301 439 298
f 397 418 419
f 397 419 398
f 441 420 418
f 441 418 397
f 408 421 420
f 408 420 441
f 407 422 421
f 407 421 408
f 411 423 422
f 411 422 407
f 413 424 423
f 413 423 411
f 415 425 426
f 415 426 416
f 398 419 425
f 398 425 415
f 427 396 399
f 427 399 428
f 400 403 442
f 443 444 429
f 435 406 409
f 435 409 436
f 437 410 406
f 437 406 435
f 438 412 410
f 438 410 437
f 439 414 417
f 439 417 440
f 428 399 414
f 428 414 439
f 445 376 375
f 445 375 446
f 447 378 376
f 447 376 445
f 448 380 378
f 448 378 447
f 449 382 380
f 449 380 448
f 450 384 382
f 450 382 449
f 451 386 384
f 451 384 450
f 452 388 386
f 452 386 451
f 453 390 388
f 453 388 452
f 454 445 446
f 454 446 455
f 456 447 445
f 456 445 454
f 457 448 447
f 457 447 456
f 458 449 448
f 458 448 457
f 459 450 449
f 459 449 458
f 460 451 450
f 460 450 459
f 461 452 451
f 461 451 460
f 462 453 452
f 462 452 461
f 463 454 455
f 463 455 464
f 465 456 454
f 465 454 463
f 466 457 456
f 466 456 465
f 467 458 457
f 467 457 466
f 468 459 458
f 468 458 467
f 469 460 459
f 469 459 468
f 470 461 460
f 470 460 469
f 471 462 461
f 471 461 470
f 472 463 464
f 472 464 473
f 474 465 463
f 474 463 472
f 475 466 465
f 475 465 474
f 476 467 466
f 476 466 475
f 477 468 467
f 477 467 476
f 478 469 468
f 478 468 477
f 479 470 469
f 479 469 478
f 480 471 470
f 480 470 479
f 481 472 473
f 481 473 482
f 483 474 472
f 483 472 481
f 484 475 474
f 484 474 483
f 485 476 475
f 485 475 484
f 486 477 476
f 486 476 485
f 487 478 477
f 487 477 486
f 488 479 478
f 488 478 487
f 489 480 479
f 489 479 488
f 490 481 482
f 490 482 491
f 492 483 481
f 492 481 490
f 493 484 483
f 493 483 492
f 494 485 484
f 494 484 493
f 495 486 485
f 495 485 494
f 496 487 486
f 496 486 495
f 497 488 487
f 497 487 496
f 498 489 488
f 498 488 497
f 499 500 501
f 501 502 499
f 503 498 497
f 503 497 504
f 505 501 498
f 505 498 503
f 506 491 501
f 506 501 505
f 507 490 491
f 507 491 506
f 393 492 490
f 393 490 507
f 392 493 492
f 392 492 393
f 395 494 493
f 395 493 392
f 508 495 494
f 508 494 395
f 509 496 495
f 509 495 508
f 504 497 496
f 504 496 509
f 510 511 512
f 510 512 513
f 514 511 510
f 514 510 515
f 516 517 518
f 516 518 519
f 512 517 516
f 512 516 513
f 520 521 522
f 520 522 523
f 524 521 520
f 524 520 525
f 526 527 524
f 526 524 525
f 528 527 526
f 528 526 529
f 530 516 519
f 530 519 531
f 513 516 530
f 513 530 532
f 533 510 513
f 533 513 532
f 515 510 533
f 515 533 534
f 294 535 536
f 294 536 293
f 537 535 294
f 537 294 304
f 295 538 537
f 295 537 304
f 539 538 295
f 539 295 296
f 521 530 531
f 521 531 522
f 532 530 521
f 532 521 524
f 527 533 532
f 527 532 524
f 534 533 527
f 534 527 528
f 535 520 523
f 535 523 536
f 525 520 535
f 525 535 537
f 538 526 525
f 538 525 537
f 529 526 538
f 529 538 539
f 540 511 514
f 540 514 541
f 512 511 540
f 512 540 542
f 543 517 512
f 543 512 542
f 518 517 543
f 518 543 544
f 545 540 541
f 545 541 546
f 542 540 545
f 542 545 547
f 548 543 542
f 548 542 547
f 544 543 548
f 544 548 549
f 550 545 546
f 550 546 551
f 547 545 550
f 547 550 552
f 553 548 547
f 553 547 552
f 549 548 553
f 549 553 554
f 555 550 551
f 555 551 556
f 552 550 555
f 552 555 557
f 558 553 552
f 558 552 557
f 554 553 558
f 554 558 559
f 500 555 556
f 500 556 489
f 557 555 500
f 557 500 499
f 502 558 557
f 502 557 499
f 559 558 502
f 559 502 482
f 390 514 515
f 390 515 391
f 519 518 375
f 519 375 374
f 523 522 413
f 523 413 412
f 416 528 529
f 416 529 417
f 531 519 374
f 531 374 424
f 391 515 534
f 391 534 426
f 536 438 293
f 539 296 440
f 522 531 424
f 522 424 413
f 426 534 528
f 426 528 416
f 536 523 412
f 536 412 438
f 417 529 539
f 417 539 440
f 541 514 390
f 541 390 453
f 375 518 544
f 375 544 446
f 546 541 453
f 546 453 462
f 446 544 549
f 446 549 455
f 551 546 462
f 551 462 471
f 455 549 554
f 455 554 464
f 556 551 471
f 556 471 480
f 464 554 559
f 464 559 473
f 556 480 489
f 559 482 473
f 498 501 500
f 498 500 489
f 491 482 502
f 491 502 501
f 560 561 434
f 562 563 564
f 562 564 289
f 276 264 265
f 276 265 277
f 264 252 253
f 264 253 265
f 252 240 241
f 252 241 253
f 240 228 229
f 240 229 241
f 228 216 217
f 228 217 229
f 216 200 201
f 216 201 217
f 200 178 181
f 200 181 201
f 178 151 156
f 178 156 181
f 154 155 156
f 154 156 151
f 179 182 155
f 179 155 154
f 315 317 182
f 315 182 179
f 317 315 325
f 317 325 335
f 347 349 335
f 347 335 325
f 359 361 349
f 359 349 347
f 368 369 361
f 368 361 359
f 368 371 372
f 368 372 369
f 366 370 372
f 366 372 371
f 366 354 362
f 366 362 370
f 354 340 350
f 354 350 362
f 340 322 329
f 340 329 350
f 329 322 308
f 329 308 320
f 308 132 188
f 308 188 320
f 131 134 188
f 131 188 132
f 130 133 134
f 130 134 131
f 129 187 133
f 129 133 130
f 191 204 187
f 191 187 129
f 207 218 204
f 207 204 191
f 221 230 218
f 221 218 207
f 233 242 230
f 233 230 221
f 245 254 242
f 245 242 233
f 257 266 254
f 257 254 245
f 269 278 266
f 269 266 257
f 281 292 278
f 281 278 269
f 295 304 292
f 295 292 281
f 564 277 273
f 564 273 565
f 565 273 285
f 565 285 290
f 290 285 299
f 290 299 432
f 401 441 397
f 401 397 402
f 402 397 396
f 402 396 403
f 405 408 441
f 405 441 401
f 404 409 408
f 404 408 405
f 430 427 302
f 430 302 560
f 432 299 436
f 432 436 443
f 403 396 427
f 403 427 430
f 443 436 409
f 443 409 404
f 560 302 288
f 560 288 562
f 563 276 277
f 563 277 564
f 562 288 276
f 562 276 563
f 444 430 429
f 442 403 444
f 433 560 434
f 431 430 433
f 560 562 303
f 560 303 561
f 562 291 303
f 562 289 291
f 289 564 565
f 289 565 290
f 561 432 434
f 561 303 290
f 561 290 432
f 443 429 431
f 443 431 433
f 404 400 442
f 404 442 444
f 393 507 566
f 393 566 394
f 506 505 566
f 506 566 507
f 505 503 504
f 505 504 566
f 509 394 566
f 509 566 504
f 508 395 394
f 508 394 509
f 20 19 26
f 20 26 25
f 35 24 20
f 35 20 25
f 33 23 24
f 33 24 35
f 31 22 23
f 31 23 33
f 29 21 22
f 29 22 31
f 26 19 21
f 26 21 29
f 100 89 88
f 100 88 98
f 102 90 89
f 102 89 100
f 93 86 90
f 93 90 102
f 92 85 86
f 92 86 93
f 96 87 85
f 96 85 92
f 98 88 87
f 98 87 96
f 443 433 432
f 404 444 443
f 433 430 560
f 444 403 430
f 140 135 136
f 140 136 141
f 158 149 148
f 158 148 157
f 141 136 161
f 141 161 166
f 167 162 135
f 167 135 140
f 183 174 149
f 183 149 158
f 157 148 175
f 157 175 184
f 166 161 189
f 166 189 194
f 194 189 210
f 194 210 193
f 193 210 198
f 193 198 202
f 202 198 174
f 202 174 183
f 309 306 162
f 309 162 167
f 184 175 313
f 184 313 318
f 331 341 330
f 331 330 332
f 332 330 306
f 332 306 309
f 318 313 334
f 318 334 336
f 336 334 341
f 336 341 331
f 146 153 152
f 146 152 143
f 159 137 138
f 159 138 160
f 169 163 137
f 169 137 159
f 160 138 164
f 160 164 172
f 143 152 177
f 143 177 185
f 186 180 153
f 186 153 146
f 196 211 192
f 196 192 195
f 195 192 163
f 195 163 169
f 185 177 199
f 185 199 203
f 203 199 211
f 203 211 196
f 172 164 307
f 172 307 312
f 319 316 180
f 319 180 186
f 312 307 321
f 312 321 324
f 324 321 344
f 324 344 323
f 323 344 326
f 323 326 327
f 327 326 316
f 327 316 319
f 4 3 2
f 2 1 4
f 6 4 1
f 1 5 6
f 8 6 5
f 5 7 8
f 10 8 7
f 7 9 10
f 12 10 9
f 9 11 12
f 3 12 11
f 11 2 3
f 16 15 14
f 14 13 16
f 15 16 18
f 18 17 15
f 20 19 1
f 1 2 20
f 19 21 5
f 5 1 19
f 21 22 7
f 7 5 21
f 22 23 9
f 9 7 22
f 23 24 11
f 11 9 23
f 24 20 2
f 2 11 24
f 28 27 26
f 26 25 28
f 27 30 29
f 29 26 27
f 30 32 31
f 31 29 30
f 32 34 33
f 33 31 32
f 34 36 35
f 35 33 34
f 36 28 25
f 25 35 36
f 38 37 27
f 27 28 38
f 37 39 30
f 30 27 37
f 39 40 32
f 32 30 39
f 40 41 34
f 34 32 40
f 41 42 36
f 36 34 41
f 42 38 28
f 28 36 42
f 44 43 37
f 37 38 44
f 43 45 39
f 39 37 43
f 45 46 40
f 40 39 45
f 46 47 41
f 41 40 46
f 47 48 42
f 42 41 47
f 48 44 38
f 38 42 48
f 17 18 43
f 43 44 17
f 18 16 45
f 45 43 18
f 16 13 46
f 46 45 16
f 13 14 47
f 47 46 13
f 14 15 48
f 48 47 14
f 15 17 44
f 44 48 15
f 50 49 3
f 3 4 50
f 51 50 4
f 4 6 51
f 52 51 6
f 6 8 52
f 53 52 8
f 8 10 53
f 54 53 10
f 10 12 54
f 49 54 12
f 12 3 49
f 56 55 49
f 49 50 56
f 57 56 50
f 50 51 57
f 58 57 51
f 51 52 58
f 59 58 52
f 52 53 59
f 60 59 53
f 53 54 60
f 55 60 54
f 54 49 55
f 62 61 58
f 58 59 62
f 61 63 57
f 57 58 61
f 63 64 56
f 56 57 63
f 64 65 55
f 55 56 64
f 65 66 60
f 60 55 65
f 66 62 59
f 59 60 66
f 70 69 68
f 68 67 70
f 72 71 69
f 69 70 72
f 74 73 71
f 71 72 74
f 76 75 73
f 73 74 76
f 78 77 75
f 75 76 78
f 67 68 77
f 77 78 67
f 82 81 80
f 80 79 82
f 79 84 83
f 83 82 79
f 86 68 69
f 69 85 86
f 85 69 71
f 71 87 85
f 87 71 73
f 73 88 87
f 88 73 75
f 75 89 88
f 89 75 77
f 77 90 89
f 90 77 68
f 68 86 90
f 94 93 92
f 92 91 94
f 91 92 96
f 96 95 91
f 95 96 98
f 98 97 95
f 97 98 100
f 100 99 97
f 99 100 102
f 102 101 99
f 101 102 93
f 93 94 101
f 104 94 91
f 91 103 104
f 103 91 95
f 95 105 103
f 105 95 97
f 97 106 105
f 106 97 99
f 99 107 106
f 107 99 101
f 101 108 107
f 108 101 94
f 94 104 108
f 110 104 103
f 103 109 110
f 109 103 105
f 105 111 109
f 111 105 106
f 106 112 111
f 112 106 107
f 107 113 112
f 113 107 108
f 108 114 113
f 114 108 104
f 104 110 114
f 84 110 109
f 109 83 84
f 83 109 111
f 111 82 83
f 82 111 112
f 112 81 82
f 81 112 113
f 113 80 81
f 80 113 114
f 114 79 80
f 79 114 110
f 110 84 79
f 116 70 67
f 67 115 116
f 117 72 70
f 70 116 117
f 118 74 72
f 72 117 118
f 119 76 74
f 74 118 119
f 120 78 76
f 76 119 120
f 115 67 78
f 78 120 115
f 122 116 115
f 115 121 122
f 123 117 116
f 116 122 123
f 124 118 117
f 117 123 124
f 125 119 118
f 118 124 125
f 126 120 119
f 119 125 126
f 121 115 120
f 120 126 121
f 128 125 124
f 124 127 128
f 127 124 123
f 123 129 127
f 129 123 122
f 122 130 129
f 130 122 121
f 121 131 130
f 131 121 126
f 126 132 131
f 132 126 125
f 125 128 132
f 134 65 64
f 64 133 134
f 136 61 62
f 62 135 136
f 138 128 127
f 127 137 138
f 142 141 140
f 140 139 142
f 146 145 144
f 144 143 146
f 150 149 148
f 148 147 150
f 154 153 152
f 152 151 154
f 156 150 147
f 147 155 156
f 158 142 139
f 139 157 158
f 145 160 159
f 159 144 145
f 63 61 136
f 136 161 63
f 162 135 62
f 62 66 162
f 163 137 127
f 127 129 163
f 132 128 138
f 138 164 132
f 166 141 142
f 142 165 166
f 168 139 140
f 140 167 168
f 170 144 159
f 159 169 170
f 172 160 145
f 145 171 172
f 174 149 150
f 150 173 174
f 176 147 148
f 148 175 176
f 178 151 152
f 152 177 178
f 180 153 154
f 154 179 180
f 173 150 156
f 156 181 173
f 182 155 147
f 147 176 182
f 165 142 158
f 158 183 165
f 184 157 139
f 139 168 184
f 185 143 144
f 144 170 185
f 171 145 146
f 146 186 171
f 133 64 63
f 63 187 133
f 188 66 65
f 65 134 188
f 190 63 161
f 161 189 190
f 192 163 129
f 129 191 192
f 194 166 165
f 165 193 194
f 196 170 169
f 169 195 196
f 198 174 173
f 173 197 198
f 200 178 177
f 177 199 200
f 197 173 181
f 181 201 197
f 193 165 183
f 183 202 193
f 203 185 170
f 170 196 203
f 204 187 63
f 63 190 204
f 206 190 189
f 189 205 206
f 208 192 191
f 191 207 208
f 205 189 210
f 210 209 205
f 212 211 192
f 192 208 212
f 214 198 197
f 197 213 214
f 216 200 199
f 199 215 216
f 213 197 201
f 201 217 213
f 209 210 198
f 198 214 209
f 215 199 211
f 211 212 215
f 218 204 190
f 190 206 218
f 220 206 205
f 205 219 220
f 222 208 207
f 207 221 222
f 219 205 209
f 209 223 219
f 224 212 208
f 208 222 224
f 226 214 213
f 213 225 226
f 228 216 215
f 215 227 228
f 225 213 217
f 217 229 225
f 223 209 214
f 214 226 223
f 227 215 212
f 212 224 227
f 230 218 206
f 206 220 230
f 232 220 219
f 219 231 232
f 234 222 221
f 221 233 234
f 231 219 223
f 223 235 231
f 236 224 222
f 222 234 236
f 238 226 225
f 225 237 238
f 240 228 227
f 227 239 240
f 237 225 229
f 229 241 237
f 235 223 226
f 226 238 235
f 239 227 224
f 224 236 239
f 242 230 220
f 220 232 242
f 244 232 231
f 231 243 244
f 246 234 233
f 233 245 246
f 243 231 235
f 235 247 243
f 248 236 234
f 234 246 248
f 250 238 237
f 237 249 250
f 252 240 239
f 239 251 252
f 249 237 241
f 241 253 249
f 247 235 238
f 238 250 247
f 251 239 236
f 236 248 251
f 254 242 232
f 232 244 254
f 256 244 243
f 243 255 256
f 258 246 245
f 245 257 258
f 255 243 247
f 247 259 255
f 260 248 246
f 246 258 260
f 262 250 249
f 249 261 262
f 264 252 251
f 251 263 264
f 261 249 253
f 253 265 261
f 259 247 250
f 250 262 259
f 263 251 248
f 248 260 263
f 266 254 244
f 244 256 266
f 268 256 255
f 255 267 268
f 270 258 257
f 257 269 270
f 267 255 259
f 259 271 267
f 272 260 258
f 258 270 272
f 274 262 261
f 261 273 274
f 276 264 263
f 263 275 276
f 273 261 265
f 265 277 273
f 271 259 262
f 262 274 271
f 275 263 260
f 260 272 275
f 278 266 256
f 256 268 278
f 280 268 267
f 267 279 280
f 282 270 269
f 269 281 282
f 279 267 271
f 271 283 279
f 284 272 270
f 270 282 284
f 286 274 273
f 273 285 286
f 288 276 275
f 275 287 288
f 289 291 290
f 283 271 274
f 274 286 283
f 287 275 272
f 272 284 287
f 292 278 268
f 268 280 292
f 294 280 279
f 279 293 294
f 296 282 281
f 281 295 296
f 293 279 283
f 283 297 293
f 298 284 282
f 282 296 298
f 300 286 285
f 285 299 300
f 302 288 287
f 287 301 302
f 291 303 290
f 297 283 286
f 286 300 297
f 301 287 284
f 284 298 301
f 304 292 280
f 280 294 304
f 306 162 66
f 66 305 306
f 308 132 164
f 164 307 308
f 310 168 167
f 167 309 310
f 312 172 171
f 171 311 312
f 314 176 175
f 175 313 314
f 316 180 179
f 179 315 316
f 317 182 176
f 176 314 317
f 318 184 168
f 168 310 318
f 311 171 186
f 186 319 311
f 305 66 188
f 188 320 305
f 322 308 307
f 307 321 322
f 324 312 311
f 311 323 324
f 326 316 315
f 315 325 326
f 323 311 319
f 319 327 323
f 305 320 329
f 329 328 305
f 328 330 306
f 306 305 328
f 332 331 310
f 310 309 332
f 334 333 314
f 314 313 334
f 333 335 317
f 317 314 333
f 331 336 318
f 318 310 331
f 338 330 328
f 328 337 338
f 340 322 321
f 321 339 340
f 342 341 330
f 330 338 342
f 339 321 344
f 344 343 339
f 346 333 334
f 334 345 346
f 348 326 325
f 325 347 348
f 349 335 333
f 333 346 349
f 345 334 341
f 341 342 345
f 343 344 326
f 326 348 343
f 337 328 329
f 329 350 337
f 352 338 337
f 337 351 352
f 354 340 339
f 339 353 354
f 355 342 338
f 338 352 355
f 353 339 343
f 343 356 353
f 358 346 345
f 345 357 358
f 360 348 347
f 347 359 360
f 361 349 346
f 346 358 361
f 357 345 342
f 342 355 357
f 356 343 348
f 348 360 356
f 351 337 350
f 350 362 351
f 364 352 351
f 351 363 364
f 366 354 353
f 353 365 366
f 352 364 355
f 356 365 353
f 367 358 357
f 357 364 367
f 365 360 359
f 359 368 365
f 369 361 358
f 358 367 369
f 355 364 357
f 360 365 356
f 363 351 362
f 362 370 363
f 365 368 371
f 367 373 372
f 372 369 367
f 373 367 364
f 366 365 371
f 372 373 363
f 363 370 372
f 364 363 373
f 377 376 375
f 375 374 377
f 379 378 376
f 376 377 379
f 381 380 378
f 378 379 381
f 383 382 380
f 380 381 383
f 385 384 382
f 382 383 385
f 387 386 384
f 384 385 387
f 389 388 386
f 386 387 389
f 391 390 388
f 388 389 391
f 395 394 393
f 393 392 395
f 399 398 397
f 397 396 399
f 403 402 401
f 401 400 403
f 400 401 405
f 405 404 400
f 409 408 407
f 407 406 409
f 406 407 411
f 411 410 406
f 410 411 413
f 413 412 410
f 417 416 415
f 415 414 417
f 414 415 398
f 398 399 414
f 419 387 385
f 385 418 419
f 418 385 383
f 383 420 418
f 420 383 381
f 381 421 420
f 421 381 379
f 379 422 421
f 422 379 377
f 377 423 422
f 423 377 374
f 374 424 423
f 426 391 389
f 389 425 426
f 425 389 387
f 387 419 425
f 301 428 427
f 427 302 301
f 429 431 430
f 432 434 433
f 299 436 435
f 435 300 299
f 300 435 437
f 437 297 300
f 297 437 438
f 438 293 297
f 296 440 439
f 439 298 296
f 298 439 428
f 428 301 298
f 398 419 418
f 418 397 398
f 397 418 420
f 420 441 397
f 441 420 421
f 421 408 441
f 408 421 422
f 422 407 408
f 407 422 423
f 423 411 407
f 411 423 424
f 424 413 411
f 416 426 425
f 425 415 416
f 415 425 419
f 419 398 415
f 428 399 396
f 396 427 428
f 400 442 403
f 443 429 444
f 436 409 406
f 406 435 436
f 435 406 410
f 410 437 435
f 437 410 412
f 412 438 437
f 440 417 414
f 414 439 440
f 439 414 399
f 399 428 439
f 446 375 376
f 376 445 446
f 445 376 378
f 378 447 445
f 447 378 380
f 380 448 447
f 448 380 382
f 382 449 448
f 449 382 384
f 384 450 449
f 450 384 386
f 386 451 450
f 451 386 388
f 388 452 451
f 452 388 390
f 390 453 452
f 455 446 445
f 445 454 455
f 454 445 447
f 447 456 454
f 456 447 448
f 448 457 456
f 457 448 449
f 449 458 457
f 458 449 450
f 450 459 458
f 459 450 451
f 451 460 459
f 460 451 452
f 452 461 460
f 461 452 453
f 453 462 461
f 464 455 454
f 454 463 464
f 463 454 456
f 456 465 463
f 465 456 457
f 457 466 465
f 466 457 458
f 458 467 466
f 467 458 459
f 459 468 467
f 468 459 460
f 460 469 468
f 469 460 461
f 461 470 469
f 470 461 462
f 462 471 470
f 473 464 463
f 463 472 473
f 472 463 465
f 465 474 472
f 474 465 466
f 466 475 474
f 475 466 467
f 467 476 475
f 476 467 468
f 468 477 476
f 477 468 469
f 469 478 477
f 478 469 470
f 470 479 478
f 479 470 471
f 471 480 479
f 482 473 472
f 472 481 482
f 481 472 474
f 474 483 481
f 483 474 475
f 475 484 483
f 484 475 476
f 476 485 484
f 485 476 477
f 477 486 485
f 486 477 478
f 478 487 486
f 487 478 479
f 479 488 487
f 488 479 480
f 480 489 488
f 491 482 481
f 481 490 491
f 490 481 483
f 483 492 490
f 492 483 484
f 484 493 492
f 493 484 485
f 485 494 493
f 494 485 486
f 486 495 494
f 495 486 487
f 487 496 495
f 496 487 488
f 488 497 496
f 497 488 489
f 489 498 497
f 499 501 500
f 501 499 502
f 504 497 498
f 498 503 504
f 503 498 501
f 501 505 503
f 505 501 491
f 491 506 505
f 506 491 490
f 490 507 506
f 507 490 492
f 492 393 507
f 393 492 493
f 493 392 393
f 392 493 494
f 494 395 392
f 395 494 495
f 495 508 395
f 508 495 496
f 496 509 508
f 509 496 497
f 497 504 509
f 513 512 511
f 511 510 513
f 515 510 511
f 511 514 515
f 519 518 517
f 517 516 519
f 513 516 517
f 517 512 513
f 523 522 521
f 521 520 523
f 525 520 521
f 521 524 525
f 525 524 527
f 527 526 525
f 529 526 527
f 527 528 529
f 531 519 516
f 516 530 531
f 532 530 516
f 516 513 532
f 532 513 510
f 510 533 532
f 534 533 510
f 510 515 534
f 293 536 535
f 535 294 293
f 304 294 535
f 535 537 304
f 304 537 538
f 538 295 304
f 296 295 538
f 538 539 296
f 522 531 530
f 530 521 522
f 524 521 530
f 530 532 524
f 524 532 533
f 533 527 524
f 528 527 533
f 533 534 528
f 536 523 520
f 520 535 536
f 537 535 520
f 520 525 537
f 537 525 526
f 526 538 537
f 539 538 526
f 526 529 539
f 541 514 511
f 511 540 541
f 542 540 511
f 511 512 542
f 542 512 517
f 517 543 542
f 544 543 517
f 517 518 544
f 546 541 540
f 540 545 546
f 547 545 540
f 540 542 547
f 547 542 543
f 543 548 547
f 549 548 543
f 543 544 549
f 551 546 545
f 545 550 551
f 552 550 545
f 545 547 552
f 552 547 548
f 548 553 552
f 554 553 548
f 548 549 554
f 556 551 550
f 550 555 556
f 557 555 550
f 550 552 557
f 557 552 553
f 553 558 557
f 559 558 553
f 553 554 559
f 489 556 555
f 555 500 489
f 499 500 555
f 555 557 499
f 499 557 558
f 558 502 499
f 482 502 558
f 558 559 482
f 391 515 514
f 514 390 391
f 374 375 518
f 518 519 374
f 412 413 522
f 522 523 412
f 417 529 528
f 528 416 417
f 424 374 519
f 519 531 424
f 426 534 515
f 515 391 426
f 536 293 438
f 539 440 296
f 413 424 531
f 531 522 413
f 416 528 534
f 534 426 416
f 438 412 523
f 523 536 438
f 440 539 529
f 529 417 440
f 453 390 514
f 514 541 453
f 446 544 518
f 518 375 446
f 462 453 541
f 541 546 462
f 455 549 544
f 544 446 455
f 471 462 546
f 546 551 471
f 464 554 549
f 549 455 464
f 480 471 551
f 551 556 480
f 473 559 554
f 554 464 473
f 556 489 480
f 559 473 482
f 489 500 501
f 501 498 489
f 501 502 482
f 482 491 501
f 560 434 561
f 289 564 563
f 563 562 289
f 277 265 264
f 264 276 277
f 265 253 252
f 252 264 265
f 253 241 240
f 240 252 253
f 241 229 228
f 228 240 241
f 229 217 216
f 216 228 229
f 217 201 200
f 200 216 217
f 201 181 178
f 178 200 201
f 181 156 151
f 151 178 181
f 151 156 155
f 155 154 151
f 154 155 182
f 182 179 154
f 179 182 317
f 317 315 179
f 335 325 315
f 315 317 335
f 325 335 349
f 349 347 325
f 347 349 361
f 361 359 347
f 359 361 369
f 369 368 359
f 369 372 371
f 371 368 369
f 371 372 370
f 370 366 371
f 370 362 354
f 354 366 370
f 362 350 340
f 340 354 362
f 350 329 322
f 322 340 350
f 320 308 322
f 322 329 320
f 320 188 132
f 132 308 320
f 132 188 134
f 134 131 132
f 131 134 133
f 133 130 131
f 130 133 187
f 187 129 130
f 129 187 204
f 204 191 129
f 191 204 218
f 218 207 191
f 207 218 230
f 230 221 207
f 221 230 242
f 242 233 221
f 233 242 254
f 254 245 233
f 245 254 266
f 266 257 245
f 257 266 278
f 278 269 257
f 269 278 292
f 292 281 269
f 281 292 304
f 304 295 281
f 565 273 277
f 277 564 565
f 290 285 273
f 273 565 290
f 432 299 285
f 285 290 432
f 402 397 441
f 441 401 402
f 403 396 397
f 397 402 403
f 401 441 408
f 408 405 401
f 405 408 409
f 409 404 405
f 560 302 427
f 427 430 560
f 443 436 299
f 299 432 443
f 430 427 396
f 396 403 430
f 404 409 436
f 436 443 404
f 562 288 302
f 302 560 562
f 564 277 276
f 276 563 564
f 563 276 288
f 288 562 563
f 444 429 430
f 442 444 403
f 433 434 560
f 431 433 430
f 561 303 562
f 562 560 561
f 562 303 291
f 562 291 289
f 290 565 564
f 564 289 290
f 561 434 432
f 432 290 303
f 303 561 432
f 443 431 429
f 443 433 431
f 404 442 400
f 404 444 442
f 394 566 507
f 507 393 394
f 507 566 505
f 505 506 507
f 566 504 503
f 503 505 566
f 504 566 394
f 394 509 504
f 509 394 395
f 395 508 509
f 25 26 19
f 19 20 25
f 25 20 24
f 24 35 25
f 35 24 23
f 23 33 35
f 33 23 22
f 22 31 33
f 31 22 21
f 21 29 31
f 29 21 19
f 19 26 29
f 98 88 89
f 89 100 98
f 100 89 90
f 90 102 100
f 102 90 86
f 86 93 102
f 93 86 85
f 85 92 93
f 92 85 87
f 87 96 92
f 96 87 88
f 88 98 96
f 443 432 433
f 404 443 444
f 433 560 430
f 444 430 403
f 141 136 135
f 135 140 141
f 157 148 149
f 149 158 157
f 166 161 136
f 136 141 166
f 140 135 162
f 162 167 140
f 158 149 174
f 174 183 158
f 184 175 148
f 148 157 184
f 194 189 161
f 161 166 194
f 193 210 189
f 189 194 193
f 202 198 210
f 210 193 202
f 183 174 198
f 198 202 183
f 167 162 306
f 306 309 167
f 318 313 175
f 175 184 318
f 332 330 341
f 341 331 332
f 309 306 330
f 330 332 309
f 336 334 313
f 313 318 336
f 331 341 334
f 334 336 331
f 143 152 153
f 153 146 143
f 160 138 137
f 137 159 160
f 159 137 163
f 163 169 159
f 172 164 138
f 138 160 172
f 185 177 152
f 152 143 185
f 146 153 180
f 180 186 146
f 195 192 211
f 211 196 195
f 169 163 192
f 192 195 169
f 203 199 177
f 177 185 203
f 196 211 199
f 199 203 196
f 312 307 164
f 164 172 312
f 186 180 316
f 316 319 186
f 324 321 307
f 307 312 324
f 323 344 321
f 321 324 323
f 327 326 344
f 344 323 327
f 319 316 326
f 326 327 319