# https://github.com/mikedh/trimesh
v -0.00659680 0.01204263 0.05332340
v -0.00659680 -0.01206684 0.05332340
v -0.00659680 -0.01206684 0.07743287
v -0.00659680 0.01204263 0.07743287
v -0.00555170 0.01416994 0.07956017
v -0.00764189 0.01416994 0.07956017
v -0.00764189 -0.01419415 0.07956017
v -0.00555170 -0.01419415 0.07956017
v -0.00555170 -0.01419415 0.05119609
v -0.00555170 0.01416994 0.05119609
v -0.00764189 -0.01419415 0.05119609
v -0.00764189 0.01416994 0.05119609
v -0.00764189 0.01331901 0.05204701
v -0.00764189 0.01331901 0.07870925
v -0.00764189 -0.01334322 0.05204701
v -0.00764189 -0.01334322 0.07870925
v 0.00459792 0.01832434 0.01529283
v 0.00150851 0.01832434 0.01866433
v 0.00712299 0.01832434 0.02070784
v 0.00916649 0.01832434 0.01509336
v 0.01253800 0.01832434 0.01818278
v 0.01273746 0.01832434 0.02275134
v 0.00964806 0.01832434 0.02612286
v 0.00507948 0.01832434 0.02632232
v 0.00170797 0.01832434 0.02323290
v 0.00150851 -0.01834858 0.01866433
v 0.00459793 -0.01834858 0.01529283
v 0.00712299 -0.01834858 0.02070784
v 0.00916649 -0.01834858 0.01509336
v 0.01253800 -0.01834858 0.01818278
v 0.01273746 -0.01834858 0.02275134
v 0.00964806 -0.01834858 0.02612286
v 0.00507948 -0.01834858 0.02632232
v 0.00170797 -0.01834858 0.02323290
v -0.00540872 0.00166005 0.02263932
v -0.00540872 -0.00168426 0.02263932
v -0.00540872 -0.00168426 0.02347540
v -0.00540872 0.00166005 0.02347540
v 0.01183536 -0.00168426 0.01513613
v 0.01183535 0.00166005 0.01513613
v 0.00870006 0.00166005 0.01513613
v 0.00870008 -0.00168426 0.01513613
v 0.01967356 0.00166005 0.02347540
v 0.01967358 -0.00168426 0.02347540
v 0.01967358 -0.00168426 0.02263932
v 0.01967356 0.00166005 0.02263932
v 0.00870006 0.00166005 0.01430006
v 0.01183535 0.00166005 0.01430006
v 0.01183536 -0.00168426 0.01430006
v 0.00870008 -0.00168426 0.01430006
v 0.00870006 -0.01756970 0.01085064
v 0.01183535 -0.01756970 0.01085064
v 0.01183535 -0.01840578 0.01086899
v 0.00870008 -0.01840578 0.01086899
v 0.01183535 0.01838157 0.01086899
v 0.01183536 0.01754549 0.01085064
v 0.00870008 0.01754549 0.01085064
v 0.00870006 0.01838157 0.01086899
v 0.00556478 0.00166005 0.01513613
v 0.00242949 0.00166005 0.01513613
v 0.00242951 -0.00168426 0.01513613
v 0.00556479 -0.00168426 0.01513613
v 0.00556479 -0.01840578 0.01086899
v 0.00242951 -0.01840578 0.01086899
v 0.00242949 -0.01756970 0.01085064
v 0.00556478 -0.01756970 0.01085064
v 0.00242951 -0.00168426 0.01430006
v 0.00242949 0.00166005 0.01430006
v 0.00556478 0.00166005 0.01430006
v 0.00556479 -0.00168426 0.01430006
v 0.00242951 0.01754549 0.01085064
v 0.00242949 0.01838157 0.01086899
v 0.00556478 0.01838157 0.01086899
v 0.00556479 0.01754549 0.01085064
v 0.00086186 -0.00168426 0.01513613
v 0.00086185 0.00166005 0.01513613
v 0.00086186 -0.00168426 0.01430006
v 0.00086185 0.00166005 0.01430006
v 0.01340301 -0.00168426 0.01430006
v 0.01340299 0.00166005 0.01430006
v 0.01340301 -0.00168426 0.01513613
v 0.01340299 0.00166005 0.01513613
v 0.01183535 -0.00502856 0.01430006
v 0.00870006 -0.00502856 0.01430006
v 0.01183535 -0.00502856 0.01513613
v 0.00870006 -0.00502856 0.01513613
v 0.01183536 0.00500435 0.01430006
v 0.01183536 0.00500435 0.01513613
v 0.00870008 0.00500435 0.01430006
v 0.00870008 0.00500435 0.01513613
v 0.00242949 -0.00502856 0.01513613
v 0.00556478 -0.00502856 0.01513613
v 0.00242949 -0.00502856 0.01430006
v 0.00556478 -0.00502856 0.01430006
v 0.00242951 0.00500435 0.01513613
v 0.00242951 0.00500435 0.01430006
v 0.00556479 0.00500435 0.01513613
v 0.00556479 0.00500435 0.01430006
v 0.01183535 -0.00837287 0.01430006
v 0.00870006 -0.00837287 0.01430006
v 0.01969136 -0.00502856 0.02263932
v 0.01969136 -0.00502856 0.02347540
v 0.01969137 -0.00837287 0.02347540
v 0.01969137 -0.00837287 0.02263932
v 0.00870006 -0.00837287 0.01513613
v 0.01183535 -0.00837287 0.01513613
v 0.01969137 0.00500435 0.02347540
v 0.01969137 0.00500435 0.02263932
v 0.01969137 0.00834865 0.02263932
v 0.01969137 0.00834865 0.02347540
v 0.00870006 0.00834865 0.01430006
v 0.01183535 0.00834865 0.01430006
v 0.01183535 0.00834865 0.01513613
v 0.00870006 0.00834865 0.01513613
v 0.00242949 -0.00837287 0.01513613
v 0.00556478 -0.00837287 0.01513613
v -0.00539092 -0.00502856 0.02347540
v -0.00539092 -0.00502856 0.02263932
v -0.00539091 -0.00837287 0.02263932
v -0.00539091 -0.00837287 0.02347540
v 0.00556478 -0.00837287 0.01430006
v 0.00242949 -0.00837287 0.01430006
v -0.00539091 0.00500435 0.02263932
v -0.00539091 0.00500435 0.02347540
v -0.00539091 0.00834865 0.02347540
v -0.00539091 0.00834865 0.02263932
v 0.00556478 0.00834865 0.01513613
v 0.00242949 0.00834865 0.01513613
v 0.00242949 0.00834865 0.01430006
v 0.00556478 0.00834865 0.01430006
v 0.01183536 -0.01171717 0.01430006
v 0.00870008 -0.01171717 0.01430006
v 0.01183536 -0.01171717 0.01513613
v 0.00870008 -0.01171717 0.01513613
v 0.01183535 0.01169296 0.01430006
v 0.01183535 0.01169296 0.01513613
v 0.00870006 0.01169296 0.01430006
v 0.00870006 0.01169296 0.01513613
v 0.00242951 -0.01171717 0.01513613
v 0.00556479 -0.01171717 0.01513613
v 0.00242951 -0.01171717 0.01430006
v 0.00556479 -0.01171717 0.01430006
v 0.00242949 0.01169296 0.01513613
v 0.00242949 0.01169296 0.01430006
v 0.00556478 0.01169296 0.01513613
v 0.00556478 0.01169296 0.01430006
v 0.01183535 -0.01506147 0.01430006
v 0.00870006 -0.01506147 0.01430006
v 0.01969137 -0.01171717 0.02263932
v 0.01969137 -0.01171717 0.02347540
v 0.01969136 -0.01506147 0.02347540
v 0.01969136 -0.01506147 0.02263932
v 0.00870006 -0.01506147 0.01513613
v 0.01183535 -0.01506147 0.01513613
v 0.01969136 0.01169296 0.02347540
v 0.01969136 0.01169296 0.02263932
v 0.01969137 0.01503726 0.02263932
v 0.01969137 0.01503726 0.02347540
v 0.00870008 0.01503726 0.01430006
v 0.01183536 0.01503726 0.01430006
v 0.01183536 0.01503726 0.01513613
v 0.00870008 0.01503726 0.01513613
v 0.00242949 -0.01506147 0.01513613
v 0.00556478 -0.01506147 0.01513613
v -0.00539091 -0.01171717 0.02347540
v -0.00539091 -0.01171717 0.02263932
v -0.00539092 -0.01506147 0.02263932
v -0.00539092 -0.01506147 0.02347540
v 0.00556478 -0.01506147 0.01430006
v 0.00242949 -0.01506147 0.01430006
v -0.00539092 0.01169296 0.02263932
v -0.00539092 0.01169296 0.02347540
v -0.00539091 0.01503726 0.02347540
v -0.00539091 0.01503726 0.02263932
v 0.00556479 0.01503726 0.01513613
v 0.00242951 0.01503726 0.01513613
v 0.00242951 0.01503726 0.01430006
v 0.00556479 0.01503726 0.01430006
v 0.01342079 -0.00502856 0.01430006
v 0.01342079 -0.00502856 0.01513613
v 0.01342079 -0.00837287 0.01513613
v 0.01342079 -0.00837287 0.01430006
v 0.01338369 0.00500435 0.01513613
v 0.01338369 0.00500435 0.01430006
v 0.01338369 0.00834865 0.01430006
v 0.01338369 0.00834865 0.01513613
v 0.00087965 -0.00502856 0.01513613
v 0.00087965 -0.00502856 0.01430006
v 0.00087965 -0.00837287 0.01430006
v 0.00087965 -0.00837287 0.01513613
v 0.00087966 0.00500435 0.01430006
v 0.00087966 0.00500435 0.01513613
v 0.00087965 0.00834865 0.01513613
v 0.00087965 0.00834865 0.01430006
v 0.01342080 -0.01171717 0.01430006
v 0.01342080 -0.01171717 0.01513613
v 0.01342079 -0.01506147 0.01513613
v 0.01342079 -0.01506147 0.01430006
v 0.01342079 0.01169296 0.01513613
v 0.01342079 0.01169296 0.01430006
v 0.01342080 0.01503726 0.01430006
v 0.01342080 0.01503726 0.01513613
v 0.00087966 -0.01171717 0.01513613
v 0.00087966 -0.01171717 0.01430006
v 0.00087965 -0.01506147 0.01430006
v 0.00087965 -0.01506147 0.01513613
v 0.00087965 0.01169296 0.01430006
v 0.00087965 0.01169296 0.01513613
v 0.00087966 0.01503726 0.01513613
v 0.00087966 0.01503726 0.01430006
v -0.01325017 0.00124201 0.02255950
v -0.01325017 -0.00126622 0.02255950
v -0.01325017 -0.00126622 0.02633639
v -0.01325017 0.00124201 0.02633639
v -0.01241411 -0.00126622 0.02633639
v -0.01241411 0.00124201 0.02633639
v -0.01241411 -0.00126622 0.02255950
v -0.01241411 0.00124201 0.02255950
v -0.01241411 0.00124201 0.01086899
v -0.01241411 -0.00126622 0.01086899
v -0.01325017 -0.00126622 0.01086899
v -0.01325017 0.00124201 0.01086899
v -0.01241411 -0.00126622 0.01648525
v -0.01241411 -0.00126622 0.02067833
v -0.01325017 -0.00126622 0.02067833
v -0.01325017 -0.00126622 0.01648525
v -0.01325017 0.00124201 0.02067833
v -0.01241411 0.00124201 0.02067833
v -0.01241411 0.00124201 0.01648525
v -0.01325017 0.00124201 0.01648525
v -0.00374482 -0.02828018 0.02067833
v -0.00315366 -0.02768898 0.02067833
v -0.00315366 -0.02768898 0.02255950
v -0.00374482 -0.02828018 0.02255950
v -0.01241411 -0.00126622 0.01464588
v -0.01325017 -0.00126622 0.01464588
v -0.01325017 0.00124201 0.01464588
v -0.01241411 0.00124201 0.01464588
v -0.00319474 0.02766477 0.02067833
v -0.00378594 0.02825597 0.02067833
v -0.00378594 0.02825597 0.02255950
v -0.00319474 0.02766477 0.02255950
v -0.01241411 -0.00544660 0.01649346
v -0.01241411 -0.00544660 0.01465409
v -0.01325017 -0.00544660 0.01649346
v -0.01325017 -0.00544660 0.01465409
v -0.01241411 0.00542239 0.01649346
v -0.01325017 0.00542239 0.01649346
v -0.01241411 -0.00544660 0.02255950
v -0.01241411 -0.00544660 0.02067833
v -0.01325017 -0.00544660 0.02255950
v -0.01325017 -0.00544660 0.02067833
v -0.01241411 0.00542239 0.02255950
v -0.01325017 0.00542239 0.02255950
v -0.01325017 0.00542239 0.02067833
v -0.01241411 0.00542239 0.02067833
v -0.01325017 -0.00544660 0.01089809
v -0.01241411 -0.00544660 0.01089809
v -0.01241411 -0.00795483 0.01089809
v -0.01325017 -0.00795483 0.01089809
v -0.01241411 -0.00795483 0.02255950
v -0.01241411 -0.00795483 0.02067833
v -0.01241411 -0.00544660 0.02636550
v -0.01325017 -0.00544660 0.02636550
v -0.01325017 -0.00795483 0.02636550
v -0.01241411 -0.00795483 0.02636550
v -0.01325017 -0.00795483 0.02067833
v -0.01325017 -0.00795483 0.02255950
v -0.01241411 0.00542239 0.01089809
v -0.01325017 0.00542239 0.01089809
v -0.01325017 0.00793062 0.01089809
v -0.01241411 0.00793062 0.01089809
v -0.01325017 0.00793062 0.02255950
v -0.01325017 0.00793062 0.02067833
v -0.01325017 0.00542239 0.02636550
v -0.01241411 0.00542239 0.02636550
v -0.01241411 0.00793062 0.02636550
v -0.01325017 0.00793062 0.02636550
v -0.01241411 0.00793062 0.02067833
v -0.01241411 0.00793062 0.02255950
v -0.01241411 -0.01213521 0.02067833
v -0.01325017 -0.01213521 0.02067833
v -0.01241411 -0.01213521 0.02255950
v -0.01325017 -0.01213521 0.02255950
v -0.01325017 0.01211100 0.02067833
v -0.01241411 0.01211100 0.02067833
v -0.01325017 0.01211100 0.02255950
v -0.01241411 0.01211100 0.02255950
v -0.01325017 -0.01213521 0.01089809
v -0.01241411 -0.01213521 0.01089809
v -0.01241411 -0.01464344 0.01089809
v -0.01325017 -0.01464344 0.01089809
v -0.01241411 -0.01464344 0.02255950
v -0.01241411 -0.01464344 0.02067833
v -0.01241411 -0.01213521 0.02636550
v -0.01325017 -0.01213521 0.02636550
v -0.01325017 -0.01464344 0.02636550
v -0.01241411 -0.01464344 0.02636550
v -0.01325017 -0.01464344 0.02067833
v -0.01325017 -0.01464344 0.02255950
v -0.01241411 0.01211100 0.01089809
v -0.01325017 0.01211100 0.01089809
v -0.01325017 0.01461923 0.01089809
v -0.01241411 0.01461923 0.01089809
v -0.01325017 0.01461923 0.02255950
v -0.01325017 0.01461923 0.02067833
v -0.01325017 0.01211100 0.02636550
v -0.01241411 0.01211100 0.02636550
v -0.01241411 0.01461923 0.02636550
v -0.01325017 0.01461923 0.02636550
v -0.01241411 0.01461923 0.02067833
v -0.01241411 0.01461923 0.02255950
v -0.01261278 -0.01822986 0.02067833
v -0.01320396 -0.01882105 0.02067833
v -0.01261278 -0.01822986 0.02255950
v -0.01320396 -0.01882105 0.02255950
v -0.01324505 0.01879685 0.02067833
v -0.01265385 0.01820565 0.02067833
v -0.01324505 0.01879685 0.02255950
v -0.01265385 0.01820565 0.02255950
v -0.01320396 -0.01882105 0.01089809
v -0.01261278 -0.01822986 0.01089809
v -0.01083918 -0.02000345 0.01089809
v -0.01143038 -0.02059464 0.01089809
v -0.01083918 -0.02000345 0.02255950
v -0.01083918 -0.02000345 0.02067833
v -0.01261278 -0.01822986 0.02636550
v -0.01320396 -0.01882105 0.02636550
v -0.01143038 -0.02059464 0.02636550
v -0.01083918 -0.02000345 0.02636550
v -0.01143038 -0.02059464 0.02067833
v -0.01143038 -0.02059464 0.02255950
v -0.01265385 0.01820565 0.01089809
v -0.01324505 0.01879685 0.01089809
v -0.01147147 0.02057043 0.01089809
v -0.01088027 0.01997923 0.01089809
v -0.01147147 0.02057043 0.02255950
v -0.01147147 0.02057043 0.02067833
v -0.01324505 0.01879685 0.02636550
v -0.01265385 0.01820565 0.02636550
v -0.01088027 0.01997923 0.02636550
v -0.01147147 0.02057043 0.02636550
v -0.01088027 0.01997923 0.02067833
v -0.01088027 0.01997923 0.02255950
v -0.00788322 -0.02295942 0.02067833
v -0.00847438 -0.02355062 0.02067833
v -0.00788322 -0.02295942 0.02255950
v -0.00847438 -0.02355062 0.02255950
v -0.00851548 0.02352640 0.02067833
v -0.00792429 0.02293521 0.02067833
v -0.00851548 0.02352640 0.02255950
v -0.00792429 0.02293521 0.02255950
v -0.00847438 -0.02355062 0.01089809
v -0.00788322 -0.02295942 0.01089809
v -0.00610962 -0.02473301 0.01089809
v -0.00670082 -0.02532420 0.01089809
v -0.00610962 -0.02473301 0.02255950
v -0.00610962 -0.02473301 0.02067833
v -0.00788322 -0.02295942 0.02636550
v -0.00847438 -0.02355062 0.02636550
v -0.00670082 -0.02532420 0.02636550
v -0.00610962 -0.02473301 0.02636550
v -0.00670082 -0.02532420 0.02067833
v -0.00670082 -0.02532420 0.02255950
v -0.00792429 0.02293521 0.01089809
v -0.00851548 0.02352640 0.01089809
v -0.00674191 0.02529999 0.01089809
v -0.00615071 0.02470879 0.01089809
v -0.00674191 0.02529999 0.02255950
v -0.00674191 0.02529999 0.02067833
v -0.00851548 0.02352640 0.02636550
v -0.00792429 0.02293521 0.02636550
v -0.00615071 0.02470879 0.02636550
v -0.00674191 0.02529999 0.02636550
v -0.00615071 0.02470879 0.02067833
v -0.00615071 0.02470879 0.02255950
v -0.01241411 -0.00795483 0.01649346
v -0.01325017 -0.00795483 0.01649346
v -0.01325017 0.00793062 0.01649346
v -0.01241411 0.00793062 0.01649346
v -0.01241411 -0.01213521 0.01649346
v -0.01325017 -0.01213521 0.01649346
v -0.01241411 -0.01464344 0.01649346
v -0.01325017 -0.01464344 0.01649346
v -0.01325017 0.01211100 0.01649346
v -0.01241411 0.01211100 0.01649346
v -0.01325017 0.01461923 0.01649346
v -0.01241411 0.01461923 0.01649346
v -0.01261278 -0.01822986 0.01649346
v -0.01320396 -0.01882105 0.01649346
v -0.01083918 -0.02000345 0.01649346
v -0.01143038 -0.02059464 0.01649346
v -0.01324505 0.01879685 0.01649346
v -0.01265385 0.01820565 0.01649346
v -0.01147147 0.02057043 0.01649346
v -0.01088027 0.01997923 0.01649346
v -0.00788322 -0.02295942 0.01649346
v -0.00847438 -0.02355062 0.01649346
v -0.00610962 -0.02473301 0.01649346
v -0.00670082 -0.02532420 0.01649346
v -0.00851548 0.02352640 0.01649346
v -0.00792429 0.02293521 0.01649346
v -0.00674191 0.02529999 0.01649346
v -0.00615071 0.02470879 0.01649346
v -0.00315366 -0.02768898 0.01649346
v -0.00374482 -0.02828018 0.01649346
v -0.00374482 -0.02828018 0.01465409
v -0.00315366 -0.02768898 0.01465409
v -0.00378594 0.02825597 0.01649346
v -0.00319474 0.02766477 0.01649346
v -0.00319474 0.02766477 0.01465409
v -0.00378594 0.02825597 0.01465409
v -0.00674191 0.02529999 0.01465409
v -0.00615071 0.02470879 0.01465409
v -0.01147147 0.02057043 0.01465409
v -0.01088027 0.01997923 0.01465409
v -0.01325017 0.01461923 0.01465409
v -0.01241411 0.01461923 0.01465409
v -0.01241411 0.00793062 0.01465409
v -0.01325017 0.00793062 0.01465409
v -0.01325017 -0.01213521 0.01465409
v -0.01241411 -0.01213521 0.01465409
v -0.01320396 -0.01882105 0.01465409
v -0.01261278 -0.01822986 0.01465409
v -0.00847438 -0.02355062 0.01465409
v -0.00788322 -0.02295942 0.01465409
v -0.00792429 0.02293521 0.01465409
v -0.00851548 0.02352640 0.01465409
v -0.01265385 0.01820565 0.01465409
v -0.01324505 0.01879685 0.01465409
v -0.01241411 0.01211100 0.01465409
v -0.01325017 0.01211100 0.01465409
v -0.01325017 0.00542239 0.01465409
v -0.01241411 0.00542239 0.01465409
v -0.01241411 -0.00795483 0.01465409
v -0.01325017 -0.00795483 0.01465409
v -0.01241411 -0.01464344 0.01465409
v -0.01325017 -0.01464344 0.01465409
v -0.01083918 -0.02000345 0.01465409
v -0.01143038 -0.02059464 0.01465409
v -0.00610962 -0.02473301 0.01465409
v -0.00670082 -0.02532420 0.01465409
v -0.01391246 0.04058784 -0.00000000
v 0.00668406 -0.00001214 -0.00000000
v -0.01391246 -0.04061205 0.00000000
v 0.02789134 -0.04181591 0.00836076
v 0.02789134 -0.04432414 0.00886236
v 0.02789134 -0.04382254 0.00836076
v 0.02789136 0.04429992 0.00886236
v 0.02789134 0.04179169 0.00836076
v 0.02789134 0.04379833 0.00836076
v 0.02789134 -0.04181591 0.04833097
v 0.02789134 -0.02718458 0.04951729
v 0.02789134 -0.03498973 0.06710224
v -0.00090577 -0.00001211 0.21700153
v -0.00054521 0.00291665 0.21700153
v -0.00555170 0.01252903 0.21700153
v 0.02371096 0.02507017 0.01086899
v 0.00979740 -0.00001211 0.01086899
v 0.02371096 -0.02509439 0.01086899
v -0.00555170 -0.03296026 0.06576426
v -0.00555170 -0.02652994 0.04354530
v -0.00555170 -0.03945136 0.04791438
v -0.01591909 0.04379833 0.01086899
v -0.00555170 0.03942715 0.01086899
v -0.00318716 0.04179169 0.01086899
v -0.00555170 -0.01018870 0.12744720
v -0.00318716 -0.01255325 0.12814822
v -0.00555170 -0.01255325 0.13259424
v -0.00318716 0.01252903 0.12814824
v -0.00555170 0.01016449 0.12744718
v -0.00555170 0.01252903 0.13259424
v 0.02789134 -0.01255325 0.13259073
v -0.00555170 -0.01255325 0.21700153
v 0.01116984 0.01206349 0.21700153
v 0.01607419 0.01102272 0.21700153
v 0.02789134 0.01252903 0.21700153
v 0.02789134 -0.01255325 0.21700153
v 0.02083030 -0.00725747 0.21700153
v 0.01607419 -0.01104693 0.21700153
v 0.00150936 -0.00725745 0.21700153
v -0.00054519 -0.00294086 0.21700153
v 0.02324544 -0.00001211 0.21700153
v 0.03227788 0.01691557 0.21700153
v -0.00993824 -0.01693978 0.21700153
v 0.01116982 -0.01208770 0.21700153
v 0.01116980 -0.00001217 0.23790343
v 0.02613792 0.00386402 0.23790345
v 0.02351824 0.00936779 0.23790343
v 0.02351826 -0.00939195 0.23790343
v 0.02613793 -0.00388814 0.23790343
v 0.01116979 0.01548240 0.23790343
v 0.00479890 0.01413032 0.23790343
v 0.00479888 -0.01415459 0.23790340
v 0.01116980 -0.01550661 0.23790343
v -0.00379823 0.00386400 0.23790343
v -0.00427539 -0.00001219 0.23790343
v 0.01754073 -0.01415463 0.23790343
v 0.01754076 0.01413043 0.23790342
v -0.00379823 -0.00388818 0.23790345
v -0.00117859 0.00936779 0.23790345
v -0.00117856 -0.00939196 0.23790343
v 0.02661510 -0.00001222 0.23790343
v -0.01270860 -0.04181591 0.00000000
v -0.01270860 0.04179169 -0.00000000
v 0.02789134 0.04179169 -0.00000000
v 0.02789134 -0.04181591 0.00000000
v -0.01270860 0.04179169 0.00836076
v -0.01391246 0.04058784 0.00836076
v -0.01591909 0.04379833 0.00836076
v -0.01270860 -0.04181591 0.00836076
v -0.01591909 -0.04382254 0.00836076
v -0.01391246 -0.04061205 0.00836076
v -0.00555170 -0.03945136 0.01086899
v -0.00555170 -0.02652994 0.01086899
v -0.01591909 -0.04382254 0.01086899
v -0.00318716 -0.04181591 0.01086899
v -0.00555170 0.02650573 0.01086899
v -0.00411615 -0.02509439 0.01086899
v -0.00411615 0.02507017 0.01086899
v 0.02789134 0.04179169 0.04833097
v 0.02789134 0.02716037 0.04951729
v 0.02789134 0.04179169 0.01086899
v 0.02789134 -0.04181591 0.01086899
v 0.02789134 -0.01255325 0.08816559
v 0.02789134 0.01252903 0.08816559
v 0.02789134 0.03496552 0.06710224
v 0.02789136 0.04429992 0.01036739
v 0.02789134 0.04379833 0.01086899
v 0.02789134 -0.04432414 0.01036739
v 0.02789134 -0.04382254 0.01086899
v 0.02789134 0.01252903 0.13259073
v 0.00626545 -0.01104692 0.21700153
v 0.00150937 0.00723324 0.21700153
v 0.00626545 0.01102271 0.21700153
v 0.02083030 0.00723326 0.21700153
v 0.02288488 0.00291666 0.21700153
v 0.02288490 -0.00294087 0.21700153
v 0.03227788 -0.01693978 0.21700153
v -0.00993824 0.01691557 0.21700153
v -0.00555170 0.03942715 0.04791438
v -0.00555170 0.02650573 0.04354530
v -0.00555170 0.03293604 0.06576426
v 0.02371096 -0.02509439 0.04210974
v 0.02371096 0.02507017 0.04210974
v 0.02789134 -0.01255325 0.20444006
v 0.02789134 0.01252903 0.20444006
v -0.00318716 0.04179169 0.04833097
v -0.00318714 0.03496552 0.06710224
v -0.00318716 -0.04181591 0.04833096
v -0.00318716 -0.03498973 0.06710224
v -0.00555170 0.01016449 0.08714217
v -0.00318716 0.01252903 0.08816559
v -0.00555170 0.01252903 0.20444006
v -0.00318716 -0.01255325 0.08816559
v -0.00555170 -0.01018870 0.08714217
v -0.00555170 -0.01255325 0.20444006
v -0.00411615 0.02507017 0.04210974
v -0.00411615 -0.02509439 0.04210974
v -0.01642067 0.04429992 0.00886236
v -0.01642068 -0.04432414 0.00886236
v -0.01642068 -0.04432414 0.01036739
v -0.01642067 0.04429992 0.01036739
v 0.02083030 0.00723329 0.22954267
v 0.02288488 0.00291669 0.22954267
v 0.02288490 -0.00294087 0.22954267
v 0.02083030 -0.00725747 0.22954267
v 0.00626545 0.01102268 0.22954267
v 0.01116984 0.01206349 0.22954267
v 0.01116982 -0.01208774 0.22954267
v 0.00626545 -0.01104692 0.22954267
v -0.00090577 -0.00001211 0.22954267
v -0.00054521 0.00291665 0.22954267
v 0.01607419 -0.01104698 0.22954267
v 0.01607419 0.01102278 0.22954267
v -0.00054521 -0.00294091 0.22954267
v 0.00150936 0.00723329 0.22954267
v 0.00150937 -0.00725743 0.22954267
v 0.02324544 -0.00001211 0.22954267
v 0.03416191 0.01879961 0.20632409
v 0.03227788 0.01691557 0.20444006
v -0.00993824 0.01691557 0.20444006
v -0.01182227 0.01879961 0.20632409
v 0.03416191 -0.01882382 0.20632409
v 0.03227788 -0.01693978 0.20444006
v -0.01182227 -0.01882382 0.20632409
v -0.00993824 -0.01693978 0.20444006
v 0.03416191 0.01879961 0.21511750
v -0.01182227 0.01879961 0.21511750
v 0.03416191 -0.01882382 0.21511750
v -0.01182227 -0.01882382 0.21511750
v 0.02419015 0.00990134 0.23037865
v 0.02351824 0.00936778 0.22954267
v 0.01754077 0.01413043 0.22954265
v 0.01790735 0.01490724 0.23037865
v 0.02695106 0.00410074 0.23037867
v 0.02613792 0.00386395 0.22954269
v 0.02745738 -0.00001214 0.23037865
v 0.02661510 -0.00001213 0.22954267
v 0.02419015 0.00990135 0.23706745
v 0.01790735 0.01490724 0.23706743
v 0.02695106 0.00410080 0.23706745
v 0.02745738 -0.00001221 0.23706745
v 0.02695106 -0.00412495 0.23037865
v 0.02613790 -0.00388816 0.22954267
v 0.02419015 -0.00992551 0.23037865
v 0.02351826 -0.00939196 0.22954267
v 0.01790736 -0.01493143 0.23037865
v 0.01754077 -0.01415462 0.22954267
v 0.02695106 -0.00412494 0.23706745
v 0.02419018 -0.00992551 0.23706745
v 0.01790733 -0.01493144 0.23706745
v 0.00443228 0.01490712 0.23037865
v 0.00479888 0.01413031 0.22954267
v -0.00117857 0.00936780 0.22954269
v -0.00185048 0.00990136 0.23037867
v 0.01116982 0.01633698 0.23037865
v 0.01116980 0.01548236 0.22954267
v 0.00443229 0.01490712 0.23706745
v -0.00185046 0.00990136 0.23706745
v 0.01116980 0.01633700 0.23706743
v 0.01116980 -0.01636121 0.23037865
v 0.01116980 -0.01550660 0.22954267
v 0.00443226 -0.01493136 0.23037864
v 0.00479885 -0.01415455 0.22954264
v -0.00185048 -0.00992550 0.23037865
v -0.00117859 -0.00939193 0.22954267
v 0.01116980 -0.01636122 0.23706745
v 0.00443228 -0.01493140 0.23706741
v -0.00185045 -0.00992551 0.23706745
v -0.00511771 -0.00001211 0.23037865
v -0.00427541 -0.00001211 0.22954267
v -0.00379823 -0.00388817 0.22954269
v -0.00461139 -0.00412497 0.23037867
v -0.00461136 0.00410073 0.23037865
v -0.00379823 0.00386394 0.22954267
v -0.00511769 -0.00001218 0.23706745
v -0.00461138 -0.00412498 0.23706745
v -0.00461138 0.00410079 0.23706743
f 1 2 3
f 1 3 4
f 5 6 7
f 5 7 8
f 8 9 10
f 8 10 5
f 11 12 10
f 11 10 9
f 7 11 9
f 7 9 8
f 6 5 10
f 6 10 12
f 6 12 13
f 6 13 14
f 15 11 7
f 15 7 16
f 7 6 14
f 7 14 16
f 14 4 3
f 14 3 16
f 16 3 2
f 16 2 15
f 2 1 13
f 2 13 15
f 1 4 14
f 1 14 13
f 13 12 11
f 13 11 15
f 17 18 19
f 20 17 19
f 21 20 19
f 22 21 19
f 23 22 19
f 24 23 19
f 25 24 19
f 18 25 19
f 26 27 28
f 27 29 28
f 29 30 28
f 30 31 28
f 31 32 28
f 32 33 28
f 33 34 28
f 34 26 28
f 18 17 27
f 18 27 26
f 17 20 29
f 17 29 27
f 20 21 30
f 20 30 29
f 21 22 31
f 21 31 30
f 22 23 32
f 22 32 31
f 23 24 33
f 23 33 32
f 24 25 34
f 24 34 33
f 25 18 26
f 25 26 34
f 35 36 37
f 35 37 38
f 39 40 41
f 39 41 42
f 43 44 45
f 43 45 46
f 47 48 49
f 47 49 50
f 51 52 53
f 51 53 54
f 55 56 57
f 55 57 58
f 59 60 61
f 59 61 62
f 63 64 65
f 63 65 66
f 67 68 69
f 67 69 70
f 71 72 73
f 71 73 74
f 38 37 75
f 38 75 76
f 36 77 75
f 36 75 37
f 78 77 36
f 78 36 35
f 76 78 35
f 76 35 38
f 46 45 79
f 46 79 80
f 81 79 45
f 81 45 44
f 82 81 44
f 82 44 43
f 46 80 82
f 46 82 43
f 80 79 49
f 80 49 48
f 39 49 79
f 39 79 81
f 40 39 81
f 40 81 82
f 82 80 48
f 82 48 40
f 42 41 59
f 42 59 62
f 70 50 42
f 70 42 62
f 69 47 50
f 69 50 70
f 41 47 69
f 41 69 59
f 76 75 61
f 76 61 60
f 75 77 67
f 75 67 61
f 68 67 77
f 68 77 78
f 60 68 78
f 60 78 76
f 50 49 83
f 50 83 84
f 49 39 85
f 49 85 83
f 39 42 86
f 39 86 85
f 42 50 84
f 42 84 86
f 40 48 87
f 40 87 88
f 48 47 89
f 48 89 87
f 47 41 90
f 47 90 89
f 41 40 88
f 41 88 90
f 62 61 91
f 62 91 92
f 61 67 93
f 61 93 91
f 67 70 94
f 67 94 93
f 70 62 92
f 70 92 94
f 68 60 95
f 68 95 96
f 60 59 97
f 60 97 95
f 59 69 98
f 59 98 97
f 69 68 96
f 69 96 98
f 84 83 99
f 84 99 100
f 101 102 103
f 101 103 104
f 85 86 105
f 85 105 106
f 107 108 109
f 107 109 110
f 87 89 111
f 87 111 112
f 90 88 113
f 90 113 114
f 92 91 115
f 92 115 116
f 117 118 119
f 117 119 120
f 93 94 121
f 93 121 122
f 123 124 125
f 123 125 126
f 95 97 127
f 95 127 128
f 98 96 129
f 98 129 130
f 100 99 131
f 100 131 132
f 99 106 133
f 99 133 131
f 106 105 134
f 106 134 133
f 105 100 132
f 105 132 134
f 113 112 135
f 113 135 136
f 112 111 137
f 112 137 135
f 111 114 138
f 111 138 137
f 114 113 136
f 114 136 138
f 116 115 139
f 116 139 140
f 115 122 141
f 115 141 139
f 122 121 142
f 122 142 141
f 121 116 140
f 121 140 142
f 129 128 143
f 129 143 144
f 128 127 145
f 128 145 143
f 127 130 146
f 127 146 145
f 130 129 144
f 130 144 146
f 132 131 147
f 132 147 148
f 149 150 151
f 149 151 152
f 133 134 153
f 133 153 154
f 155 156 157
f 155 157 158
f 135 137 159
f 135 159 160
f 138 136 161
f 138 161 162
f 140 139 163
f 140 163 164
f 165 166 167
f 165 167 168
f 141 142 169
f 141 169 170
f 171 172 173
f 171 173 174
f 143 145 175
f 143 175 176
f 146 144 177
f 146 177 178
f 148 147 52
f 148 52 51
f 147 154 53
f 147 53 52
f 154 153 54
f 154 54 53
f 153 148 51
f 153 51 54
f 161 160 56
f 161 56 55
f 160 159 57
f 160 57 56
f 159 162 58
f 159 58 57
f 162 161 55
f 162 55 58
f 164 163 64
f 164 64 63
f 163 170 65
f 163 65 64
f 170 169 66
f 170 66 65
f 169 164 63
f 169 63 66
f 177 176 72
f 177 72 71
f 176 175 73
f 176 73 72
f 175 178 74
f 175 74 73
f 178 177 71
f 178 71 74
f 179 180 102
f 179 102 101
f 180 181 103
f 180 103 102
f 181 182 104
f 181 104 103
f 182 179 101
f 182 101 104
f 116 105 86
f 116 86 92
f 183 184 108
f 183 108 107
f 184 185 109
f 184 109 108
f 185 186 110
f 185 110 109
f 186 183 107
f 186 107 110
f 130 111 89
f 130 89 98
f 187 188 118
f 187 118 117
f 188 189 119
f 188 119 118
f 189 190 120
f 189 120 119
f 190 187 117
f 190 117 120
f 116 121 100
f 116 100 105
f 121 94 84
f 121 84 100
f 191 192 124
f 191 124 123
f 192 193 125
f 192 125 124
f 193 194 126
f 193 126 125
f 194 191 123
f 194 123 126
f 130 127 114
f 130 114 111
f 127 97 90
f 127 90 114
f 195 196 150
f 195 150 149
f 196 197 151
f 196 151 150
f 197 198 152
f 197 152 151
f 198 195 149
f 198 149 152
f 164 153 134
f 164 134 140
f 199 200 156
f 199 156 155
f 200 201 157
f 200 157 156
f 201 202 158
f 201 158 157
f 202 199 155
f 202 155 158
f 178 159 137
f 178 137 146
f 203 204 166
f 203 166 165
f 204 205 167
f 204 167 166
f 205 206 168
f 205 168 167
f 206 203 165
f 206 165 168
f 164 169 148
f 164 148 153
f 169 142 132
f 169 132 148
f 207 208 172
f 207 172 171
f 208 209 173
f 208 173 172
f 209 210 174
f 209 174 173
f 210 207 171
f 210 171 174
f 178 175 162
f 178 162 159
f 175 145 138
f 175 138 162
f 146 137 138
f 146 138 145
f 98 89 90
f 98 90 97
f 92 86 84
f 92 84 94
f 140 134 132
f 140 132 142
f 88 87 184
f 88 184 183
f 87 112 185
f 87 185 184
f 112 113 186
f 112 186 185
f 113 88 183
f 113 183 186
f 136 135 200
f 136 200 199
f 135 160 201
f 135 201 200
f 160 161 202
f 160 202 201
f 161 136 199
f 161 199 202
f 144 143 208
f 144 208 207
f 143 176 209
f 143 209 208
f 176 177 210
f 176 210 209
f 177 144 207
f 177 207 210
f 96 95 192
f 96 192 191
f 95 128 193
f 95 193 192
f 128 129 194
f 128 194 193
f 129 96 191
f 129 191 194
f 91 93 188
f 91 188 187
f 93 122 189
f 93 189 188
f 122 115 190
f 122 190 189
f 115 91 187
f 115 187 190
f 139 141 204
f 139 204 203
f 141 170 205
f 141 205 204
f 170 163 206
f 170 206 205
f 163 139 203
f 163 203 206
f 131 133 196
f 131 196 195
f 133 154 197
f 133 197 196
f 154 147 198
f 154 198 197
f 147 131 195
f 147 195 198
f 83 85 180
f 83 180 179
f 85 106 181
f 85 181 180
f 106 99 182
f 106 182 181
f 99 83 179
f 99 179 182
f 211 212 213
f 211 213 214
f 214 213 215
f 214 215 216
f 216 215 217
f 216 217 218
f 219 220 221
f 219 221 222
f 212 217 215
f 212 215 213
f 218 211 214
f 218 214 216
f 223 224 225
f 223 225 226
f 227 228 229
f 227 229 230
f 231 232 233
f 231 233 234
f 221 220 235
f 221 235 236
f 219 222 237
f 219 237 238
f 239 240 241
f 239 241 242
f 235 223 243
f 235 243 244
f 223 226 245
f 223 245 243
f 226 236 246
f 226 246 245
f 230 229 247
f 230 247 248
f 224 217 249
f 224 249 250
f 217 212 251
f 217 251 249
f 212 225 252
f 212 252 251
f 211 218 253
f 211 253 254
f 224 250 252
f 224 252 225
f 227 255 256
f 227 256 228
f 211 254 255
f 211 255 227
f 228 256 253
f 228 253 218
f 257 258 259
f 257 259 260
f 250 249 261
f 250 261 262
f 263 264 265
f 263 265 266
f 251 252 267
f 251 267 268
f 269 270 271
f 269 271 272
f 255 254 273
f 255 273 274
f 275 276 277
f 275 277 278
f 253 256 279
f 253 279 280
f 267 262 281
f 267 281 282
f 262 261 283
f 262 283 281
f 261 268 284
f 261 284 283
f 268 267 282
f 268 282 284
f 279 274 285
f 279 285 286
f 274 273 287
f 274 287 285
f 273 280 288
f 273 288 287
f 280 279 286
f 280 286 288
f 289 290 291
f 289 291 292
f 281 283 293
f 281 293 294
f 295 296 297
f 295 297 298
f 284 282 299
f 284 299 300
f 301 302 303
f 301 303 304
f 285 287 305
f 285 305 306
f 307 308 309
f 307 309 310
f 288 286 311
f 288 311 312
f 299 294 313
f 299 313 314
f 294 293 315
f 294 315 313
f 293 300 316
f 293 316 315
f 300 299 314
f 300 314 316
f 311 306 317
f 311 317 318
f 306 305 319
f 306 319 317
f 305 312 320
f 305 320 319
f 312 311 318
f 312 318 320
f 321 322 323
f 321 323 324
f 313 315 325
f 313 325 326
f 327 328 329
f 327 329 330
f 316 314 331
f 316 331 332
f 333 334 335
f 333 335 336
f 317 319 337
f 317 337 338
f 339 340 341
f 339 341 342
f 320 318 343
f 320 343 344
f 331 326 345
f 331 345 346
f 326 325 347
f 326 347 345
f 325 332 348
f 325 348 347
f 332 331 346
f 332 346 348
f 343 338 349
f 343 349 350
f 338 337 351
f 338 351 349
f 337 344 352
f 337 352 351
f 344 343 350
f 344 350 352
f 353 354 355
f 353 355 356
f 345 347 357
f 345 357 358
f 359 360 361
f 359 361 362
f 348 346 363
f 348 363 364
f 365 366 367
f 365 367 368
f 349 351 369
f 349 369 370
f 371 372 373
f 371 373 374
f 352 350 375
f 352 375 376
f 363 358 232
f 363 232 231
f 358 357 233
f 358 233 232
f 357 364 234
f 357 234 233
f 364 363 231
f 364 231 234
f 375 370 240
f 375 240 239
f 370 369 241
f 370 241 240
f 369 376 242
f 369 242 241
f 376 375 239
f 376 239 242
f 252 250 243
f 252 243 245
f 250 262 377
f 250 377 243
f 262 267 378
f 262 378 377
f 267 252 245
f 267 245 378
f 256 255 248
f 256 248 247
f 255 274 379
f 255 379 248
f 274 279 380
f 274 380 379
f 279 256 247
f 279 247 380
f 282 281 381
f 282 381 382
f 281 294 383
f 281 383 381
f 294 299 384
f 294 384 383
f 299 282 382
f 299 382 384
f 286 285 385
f 286 385 386
f 285 306 387
f 285 387 385
f 306 311 388
f 306 388 387
f 311 286 386
f 311 386 388
f 314 313 389
f 314 389 390
f 313 326 391
f 313 391 389
f 326 331 392
f 326 392 391
f 331 314 390
f 331 390 392
f 318 317 393
f 318 393 394
f 317 338 395
f 317 395 393
f 338 343 396
f 338 396 395
f 343 318 394
f 343 394 396
f 346 345 397
f 346 397 398
f 345 358 399
f 345 399 397
f 358 363 400
f 358 400 399
f 363 346 398
f 363 398 400
f 350 349 401
f 350 401 402
f 349 370 403
f 349 403 401
f 370 375 404
f 370 404 403
f 375 350 402
f 375 402 404
f 249 251 264
f 249 264 263
f 251 268 265
f 251 265 264
f 268 261 266
f 268 266 265
f 261 249 263
f 261 263 266
f 254 253 276
f 254 276 275
f 253 280 277
f 253 277 276
f 280 273 278
f 280 278 277
f 273 254 275
f 273 275 278
f 283 284 296
f 283 296 295
f 284 300 297
f 284 297 296
f 300 293 298
f 300 298 297
f 293 283 295
f 293 295 298
f 287 288 308
f 287 308 307
f 288 312 309
f 288 309 308
f 312 305 310
f 312 310 309
f 305 287 307
f 305 307 310
f 315 316 328
f 315 328 327
f 316 332 329
f 316 329 328
f 332 325 330
f 332 330 329
f 325 315 327
f 325 327 330
f 319 320 340
f 319 340 339
f 320 344 341
f 320 341 340
f 344 337 342
f 344 342 341
f 337 319 339
f 337 339 342
f 347 348 360
f 347 360 359
f 348 364 361
f 348 361 360
f 364 357 362
f 364 362 361
f 357 347 359
f 357 359 362
f 351 352 372
f 351 372 371
f 352 376 373
f 352 373 372
f 376 369 374
f 376 374 373
f 369 351 371
f 369 371 374
f 405 406 407
f 405 407 408
f 409 410 411
f 409 411 412
f 413 414 368
f 413 368 367
f 415 416 336
f 415 336 335
f 417 418 304
f 417 304 303
f 419 272 271
f 419 271 420
f 246 244 258
f 246 258 257
f 421 422 290
f 421 290 289
f 423 424 322
f 423 322 321
f 425 426 354
f 425 354 353
f 427 428 366
f 427 366 365
f 429 430 334
f 429 334 333
f 431 432 302
f 431 302 301
f 433 270 269
f 433 269 434
f 435 436 260
f 435 260 259
f 437 438 292
f 437 292 291
f 439 440 324
f 439 324 323
f 441 442 356
f 441 356 355
f 416 427 402
f 416 402 396
f 415 395 401
f 415 401 428
f 395 396 402
f 395 402 401
f 415 428 427
f 415 427 416
f 377 378 382
f 377 382 381
f 435 377 381
f 435 381 422
f 436 421 382
f 436 382 378
f 438 423 390
f 438 390 384
f 440 425 398
f 440 398 392
f 383 384 390
f 383 390 389
f 437 383 389
f 437 389 424
f 391 392 398
f 391 398 397
f 439 391 397
f 439 397 426
f 418 429 394
f 418 394 388
f 419 431 386
f 419 386 380
f 238 434 247
f 238 247 229
f 387 388 394
f 387 394 393
f 417 387 393
f 417 393 430
f 379 380 386
f 379 386 385
f 420 379 385
f 420 385 432
f 417 430 429
f 417 429 418
f 420 432 431
f 420 431 419
f 230 248 433
f 230 433 237
f 237 433 434
f 237 434 238
f 235 244 246
f 235 246 236
f 435 422 421
f 435 421 436
f 437 424 423
f 437 423 438
f 439 426 425
f 439 425 440
f 399 400 406
f 399 406 405
f 400 442 407
f 400 407 406
f 442 441 408
f 442 408 407
f 441 399 405
f 441 405 408
f 403 404 410
f 403 410 409
f 404 414 411
f 404 411 410
f 414 413 412
f 414 412 411
f 413 403 409
f 413 409 412
f 227 225 212
f 227 212 211
f 230 226 225
f 230 225 227
f 218 217 224
f 218 224 228
f 228 224 223
f 228 223 229
f 401 403 413
f 401 413 428
f 428 413 367
f 428 367 366
f 393 395 415
f 393 415 430
f 430 415 335
f 430 335 334
f 385 387 417
f 385 417 432
f 432 417 303
f 432 303 302
f 248 379 420
f 248 420 433
f 420 271 270
f 420 270 433
f 237 236 226
f 237 226 230
f 222 221 236
f 222 236 237
f 378 245 246
f 378 246 436
f 436 246 257
f 436 257 260
f 384 382 421
f 384 421 438
f 438 421 289
f 438 289 292
f 392 390 423
f 392 423 440
f 440 423 321
f 440 321 324
f 400 398 425
f 400 425 442
f 442 425 353
f 442 353 356
f 397 399 441
f 397 441 426
f 389 391 439
f 389 439 424
f 424 439 323
f 424 323 322
f 426 441 355
f 426 355 354
f 381 383 437
f 381 437 422
f 422 437 291
f 422 291 290
f 243 377 435
f 243 435 244
f 244 435 259
f 244 259 258
f 238 235 220
f 238 220 219
f 229 223 235
f 229 235 238
f 419 434 269
f 419 269 272
f 380 247 434
f 380 434 419
f 388 386 431
f 388 431 418
f 418 431 301
f 418 301 304
f 396 394 429
f 396 429 416
f 416 429 333
f 416 333 336
f 404 402 427
f 404 427 414
f 414 427 365
f 414 365 368
f 443 444 445
f 446 447 448
f 449 450 451
f 452 453 454
f 455 456 457
f 458 459 460
f 461 462 463
f 464 465 466
f 467 468 469
f 470 471 472
f 468 473 469
f 474 455 457
f 475 476 477
f 478 479 480
f 474 481 482
f 477 483 478
f 484 475 477
f 485 486 474
f 487 488 489
f 487 490 491
f 487 492 493
f 487 494 495
f 487 496 497
f 487 498 490
f 487 489 499
f 487 497 500
f 487 493 501
f 487 495 498
f 487 499 492
f 487 502 494
f 487 500 502
f 487 503 488
f 487 491 503
f 487 501 496
f 444 504 445
f 505 444 443
f 506 507 444
f 506 444 505
f 444 507 504
f 508 509 510
f 511 512 513
f 514 515 516
f 514 516 517
f 464 518 465
f 519 460 459
f 520 459 458
f 519 459 520
f 521 522 523
f 524 453 452
f 454 453 525
f 526 522 527
f 527 522 521
f 523 528 529
f 530 524 531
f 470 472 532
f 474 482 455
f 486 533 474
f 474 533 481
f 457 534 535
f 457 456 534
f 457 535 475
f 477 536 537
f 477 476 536
f 477 537 483
f 478 480 486
f 478 483 538
f 478 538 479
f 478 486 539
f 539 486 485
f 457 475 540
f 540 475 484
f 541 542 543
f 509 443 445
f 509 445 513
f 450 446 507
f 450 507 506
f 511 504 507
f 511 507 446
f 506 505 508
f 506 508 450
f 446 450 523
f 446 523 524
f 544 545 458
f 544 458 460
f 546 473 532
f 546 532 547
f 466 465 541
f 466 541 548
f 548 541 543
f 548 543 549
f 514 517 550
f 514 550 463
f 463 550 551
f 463 551 461
f 549 543 552
f 549 552 553
f 532 472 554
f 532 554 547
f 461 551 555
f 461 555 556
f 546 557 469
f 546 469 473
f 548 549 527
f 548 527 521
f 550 517 524
f 550 524 452
f 523 466 548
f 523 548 521
f 543 461 556
f 543 556 552
f 527 549 553
f 527 553 526
f 454 551 550
f 454 550 452
f 525 555 551
f 525 551 454
f 557 554 472
f 557 472 469
f 518 520 558
f 518 558 542
f 542 558 559
f 542 559 462
f 519 515 462
f 519 462 559
f 559 558 545
f 559 545 544
f 558 520 458
f 558 458 545
f 519 559 544
f 519 544 460
f 541 465 518
f 541 518 542
f 510 560 449
f 510 449 451
f 560 510 512
f 560 512 561
f 561 512 448
f 561 448 447
f 516 562 530
f 516 530 531
f 562 516 464
f 562 464 563
f 563 464 529
f 563 529 528
f 560 561 562
f 560 562 563
f 561 447 530
f 561 530 562
f 449 560 563
f 449 563 528
f 505 443 509
f 505 509 508
f 445 504 511
f 445 511 513
f 508 510 451
f 508 451 450
f 526 532 473
f 526 473 525
f 470 532 526
f 470 526 553
f 469 472 471
f 469 471 467
f 556 555 468
f 556 468 467
f 553 552 471
f 553 471 470
f 537 536 564
f 537 564 565
f 479 538 566
f 479 566 567
f 475 535 568
f 475 568 569
f 533 486 570
f 533 570 571
f 456 455 572
f 456 572 573
f 480 479 567
f 480 567 574
f 536 476 575
f 536 575 564
f 455 482 576
f 455 576 572
f 535 534 577
f 535 577 568
f 486 480 574
f 486 574 570
f 476 475 569
f 476 569 575
f 481 533 571
f 481 571 578
f 482 481 578
f 482 578 576
f 483 537 565
f 483 565 579
f 538 483 579
f 538 579 566
f 534 456 573
f 534 573 577
f 580 581 582
f 580 582 583
f 581 580 584
f 581 584 585
f 585 584 586
f 585 586 587
f 484 588 589
f 484 589 540
f 588 484 539
f 588 539 590
f 590 539 485
f 590 485 591
f 583 582 587
f 583 587 586
f 540 589 591
f 540 591 485
f 584 580 588
f 584 588 590
f 580 583 589
f 580 589 588
f 583 586 591
f 583 591 589
f 586 584 590
f 586 590 591
f 546 547 581
f 546 581 585
f 477 478 539
f 477 539 484
f 547 554 582
f 547 582 581
f 554 557 587
f 554 587 582
f 557 546 585
f 557 585 587
f 474 457 540
f 474 540 485
f 592 593 594
f 592 594 595
f 593 592 596
f 593 596 597
f 597 596 598
f 597 598 599
f 489 600 601
f 489 601 499
f 600 489 488
f 600 488 602
f 602 488 503
f 602 503 603
f 604 605 599
f 604 599 598
f 605 604 606
f 605 606 607
f 607 606 608
f 607 608 609
f 491 610 603
f 491 603 503
f 610 491 490
f 610 490 611
f 611 490 498
f 611 498 612
f 613 614 615
f 613 615 616
f 614 613 617
f 614 617 618
f 618 617 595
f 618 595 594
f 493 619 620
f 493 620 501
f 619 493 492
f 619 492 621
f 621 492 499
f 621 499 601
f 622 623 609
f 622 609 608
f 623 622 624
f 623 624 625
f 625 624 626
f 625 626 627
f 495 628 612
f 495 612 498
f 628 495 494
f 628 494 629
f 629 494 502
f 629 502 630
f 631 632 633
f 631 633 634
f 632 631 635
f 632 635 636
f 636 635 616
f 636 616 615
f 497 637 638
f 497 638 500
f 637 497 496
f 637 496 639
f 639 496 501
f 639 501 620
f 634 633 627
f 634 627 626
f 500 638 630
f 500 630 502
f 596 592 600
f 596 600 602
f 606 604 610
f 606 610 611
f 617 613 619
f 617 619 621
f 624 622 628
f 624 628 629
f 635 631 637
f 635 637 639
f 608 606 611
f 608 611 612
f 592 595 601
f 592 601 600
f 631 634 638
f 631 638 637
f 613 616 620
f 613 620 619
f 622 608 612
f 622 612 628
f 595 617 621
f 595 621 601
f 626 624 629
f 626 629 630
f 634 626 630
f 634 630 638
f 598 596 602
f 598 602 603
f 604 598 603
f 604 603 610
f 616 635 639
f 616 639 620
f 565 564 593
f 565 593 597
f 567 566 605
f 567 605 607
f 569 568 614
f 569 614 618
f 571 570 623
f 571 623 625
f 573 572 632
f 573 632 636
f 574 567 607
f 574 607 609
f 564 575 594
f 564 594 593
f 572 576 633
f 572 633 632
f 568 577 615
f 568 615 614
f 570 574 609
f 570 609 623
f 575 569 618
f 575 618 594
f 578 571 625
f 578 625 627
f 576 578 627
f 576 627 633
f 579 565 597
f 579 597 599
f 566 579 599
f 566 599 605
f 577 573 636
f 577 636 615
f 513 512 510
f 513 510 509
f 511 446 448
f 511 448 512
f 464 466 523
f 464 523 529
f 517 516 531
f 517 531 524
f 519 520 518
f 519 518 515
f 515 518 464
f 515 464 516
f 524 523 522
f 524 522 453
f 453 522 526
f 453 526 525
f 523 450 449
f 523 449 528
f 446 524 530
f 446 530 447
f 556 467 471
f 556 471 552
f 525 473 468
f 525 468 555
f 463 462 515
f 463 515 514
f 543 542 462
f 543 462 461
f 4 3 2
f 2 1 4
f 8 7 6
f 6 5 8
f 5 10 9
f 9 8 5
f 9 10 12
f 12 11 9
f 8 9 11
f 11 7 8
f 12 10 5
f 5 6 12
f 14 13 12
f 12 6 14
f 16 7 11
f 11 15 16
f 16 14 6
f 6 7 16
f 16 3 4
f 4 14 16
f 15 2 3
f 3 16 15
f 15 13 1
f 1 2 15
f 13 14 4
f 4 1 13
f 15 11 12
f 12 13 15
f 26 27 17
f 17 18 26
f 27 29 20
f 20 17 27
f 29 30 21
f 21 20 29
f 30 31 22
f 22 21 30
f 31 32 23
f 23 22 31
f 32 33 24
f 24 23 32
f 33 34 25
f 25 24 33
f 34 26 18
f 18 25 34
f 38 37 36
f 36 35 38
f 90 97 59
f 59 41 90
f 62 92 86
f 86 42 62
f 46 45 44
f 44 43 46
f 69 98 89
f 89 47 69
f 84 94 70
f 70 50 84
f 54 53 52
f 52 51 54
f 58 57 56
f 56 55 58
f 66 65 64
f 64 63 66
f 74 73 72
f 72 71 74
f 62 42 50
f 50 70 62
f 59 69 47
f 47 41 59
f 83 85 39
f 39 49 83
f 86 84 50
f 50 42 86
f 88 87 48
f 48 40 88
f 89 90 41
f 41 47 89
f 91 93 67
f 67 61 91
f 94 92 62
f 62 70 94
f 96 95 60
f 60 68 96
f 97 98 69
f 69 59 97
f 132 142 121
f 121 100 132
f 104 103 102
f 102 101 104
f 116 140 134
f 134 105 116
f 110 109 108
f 108 107 110
f 130 146 137
f 137 111 130
f 138 145 127
f 127 114 138
f 120 119 118
f 118 117 120
f 126 125 124
f 124 123 126
f 131 133 106
f 106 99 131
f 134 132 100
f 100 105 134
f 136 135 112
f 112 113 136
f 137 138 114
f 114 111 137
f 139 141 122
f 122 115 139
f 142 140 116
f 116 121 142
f 144 143 128
f 128 129 144
f 145 146 130
f 130 127 145
f 152 151 150
f 150 149 152
f 158 157 156
f 156 155 158
f 168 167 166
f 166 165 168
f 174 173 172
f 172 171 174
f 52 53 154
f 154 147 52
f 54 51 148
f 148 153 54
f 55 56 160
f 160 161 55
f 57 58 162
f 162 159 57
f 64 65 170
f 170 163 64
f 66 63 164
f 164 169 66
f 71 72 176
f 176 177 71
f 73 74 178
f 178 175 73
f 105 100 121
f 121 116 105
f 111 114 127
f 127 130 111
f 153 148 169
f 169 164 153
f 159 162 175
f 175 178 159
f 145 138 137
f 137 146 145
f 97 90 89
f 89 98 97
f 94 84 86
f 86 92 94
f 142 132 134
f 134 140 142
f 216 215 213
f 213 214 216
f 222 221 220
f 220 219 222
f 213 215 217
f 217 212 213
f 216 214 211
f 211 218 216
f 226 225 224
f 224 223 226
f 230 229 228
f 228 227 230
f 234 233 232
f 232 231 234
f 236 235 220
f 220 221 236
f 238 237 222
f 222 219 238
f 242 241 240
f 240 239 242
f 243 245 226
f 226 223 243
f 248 247 229
f 229 230 248
f 249 251 212
f 212 217 249
f 254 253 218
f 218 211 254
f 225 252 250
f 250 224 225
f 228 256 255
f 255 227 228
f 260 259 258
f 258 257 260
f 281 381 377
f 377 262 281
f 266 265 264
f 264 263 266
f 378 382 282
f 282 267 378
f 272 271 270
f 270 269 272
f 285 385 379
f 379 274 285
f 278 277 276
f 276 275 278
f 380 386 286
f 286 279 380
f 282 281 262
f 262 267 282
f 283 284 268
f 268 261 283
f 286 285 274
f 274 279 286
f 287 288 280
f 280 273 287
f 292 291 290
f 290 289 292
f 313 389 383
f 383 294 313
f 298 297 296
f 296 295 298
f 384 390 314
f 314 299 384
f 304 303 302
f 302 301 304
f 317 393 387
f 387 306 317
f 310 309 308
f 308 307 310
f 388 394 318
f 318 311 388
f 314 313 294
f 294 299 314
f 315 316 300
f 300 293 315
f 318 317 306
f 306 311 318
f 319 320 312
f 312 305 319
f 324 323 322
f 322 321 324
f 345 397 391
f 391 326 345
f 330 329 328
f 328 327 330
f 392 398 346
f 346 331 392
f 336 335 334
f 334 333 336
f 349 401 395
f 395 338 349
f 342 341 340
f 340 339 342
f 396 402 350
f 350 343 396
f 346 345 326
f 326 331 346
f 347 348 332
f 332 325 347
f 350 349 338
f 338 343 350
f 351 352 344
f 344 337 351
f 356 355 354
f 354 353 356
f 362 361 360
f 360 359 362
f 368 367 366
f 366 365 368
f 374 373 372
f 372 371 374
f 231 232 358
f 358 363 231
f 233 234 364
f 364 357 233
f 239 240 370
f 370 375 239
f 241 242 376
f 376 369 241
f 245 243 250
f 250 252 245
f 377 378 267
f 267 262 377
f 247 248 255
f 255 256 247
f 379 380 279
f 279 274 379
f 382 381 281
f 281 282 382
f 383 384 299
f 299 294 383
f 386 385 285
f 285 286 386
f 387 388 311
f 311 306 387
f 390 389 313
f 313 314 390
f 391 392 331
f 331 326 391
f 394 393 317
f 317 318 394
f 395 396 343
f 343 338 395
f 398 397 345
f 345 346 398
f 399 400 363
f 363 358 399
f 402 401 349
f 349 350 402
f 403 404 375
f 375 370 403
f 263 264 251
f 251 249 263
f 265 266 261
f 261 268 265
f 275 276 253
f 253 254 275
f 277 278 273
f 273 280 277
f 295 296 284
f 284 283 295
f 297 298 293
f 293 300 297
f 307 308 288
f 288 287 307
f 309 310 305
f 305 312 309
f 327 328 316
f 316 315 327
f 329 330 325
f 325 332 329
f 339 340 320
f 320 319 339
f 341 342 337
f 337 344 341
f 359 360 348
f 348 347 359
f 361 362 357
f 357 364 361
f 371 372 352
f 352 351 371
f 373 374 369
f 369 376 373
f 408 407 406
f 406 405 408
f 412 411 410
f 410 409 412
f 367 368 414
f 414 413 367
f 335 336 416
f 416 415 335
f 303 304 418
f 418 417 303
f 420 271 272
f 272 419 420
f 257 258 244
f 244 246 257
f 289 290 422
f 422 421 289
f 321 322 424
f 424 423 321
f 353 354 426
f 426 425 353
f 365 366 428
f 428 427 365
f 333 334 430
f 430 429 333
f 301 302 432
f 432 431 301
f 434 269 270
f 270 433 434
f 259 260 436
f 436 435 259
f 291 292 438
f 438 437 291
f 323 324 440
f 440 439 323
f 355 356 442
f 442 441 355
f 401 402 396
f 396 395 401
f 416 427 428
f 428 415 416
f 381 382 378
f 378 377 381
f 389 390 384
f 384 383 389
f 397 398 392
f 392 391 397
f 393 394 388
f 388 387 393
f 385 386 380
f 380 379 385
f 418 429 430
f 430 417 418
f 419 431 432
f 432 420 419
f 238 434 433
f 433 237 238
f 236 246 244
f 244 235 236
f 436 421 422
f 422 435 436
f 438 423 424
f 424 437 438
f 440 425 426
f 426 439 440
f 405 406 400
f 400 399 405
f 407 408 441
f 441 442 407
f 409 410 404
f 404 403 409
f 411 412 413
f 413 414 411
f 460 519 520
f 520 458 460
f 469 473 468
f 468 467 469
f 532 472 471
f 471 470 532
f 539 485 540
f 540 484 539
f 513 445 443
f 443 509 513
f 506 507 446
f 446 450 506
f 446 507 504
f 504 511 446
f 450 508 505
f 505 506 450
f 524 523 450
f 450 446 524
f 460 458 545
f 545 544 460
f 547 532 473
f 473 546 547
f 547 554 472
f 472 532 547
f 473 469 557
f 557 546 473
f 469 472 554
f 554 557 469
f 542 558 520
f 520 518 542
f 462 559 558
f 558 542 462
f 559 462 515
f 515 519 559
f 544 545 558
f 558 559 544
f 545 458 520
f 520 558 545
f 460 544 559
f 559 519 460
f 451 449 560
f 560 510 451
f 561 512 510
f 510 560 561
f 447 448 512
f 512 561 447
f 531 530 562
f 562 516 531
f 563 464 516
f 516 562 563
f 528 529 464
f 464 563 528
f 563 562 561
f 561 560 563
f 562 530 447
f 447 561 562
f 528 563 560
f 560 449 528
f 508 509 443
f 443 505 508
f 513 511 504
f 504 445 513
f 525 473 532
f 532 526 525
f 471 552 553
f 553 470 471
f 553 526 532
f 532 470 553
f 467 471 472
f 472 469 467
f 467 468 555
f 555 556 467
f 473 525 555
f 555 468 473
f 583 582 581
f 581 580 583
f 585 584 580
f 580 581 585
f 587 586 584
f 584 585 587
f 540 589 588
f 588 484 540
f 590 539 484
f 484 588 590
f 591 485 539
f 539 590 591
f 586 587 582
f 582 583 586
f 485 591 589
f 589 540 485
f 590 588 580
f 580 584 590
f 588 589 583
f 583 580 588
f 589 591 586
f 586 583 589
f 591 590 584
f 584 586 591
f 585 581 547
f 547 546 585
f 581 582 554
f 554 547 581
f 582 587 557
f 557 554 582
f 587 585 546
f 546 557 587
f 552 471 467
f 467 556 552