# https://github.com/mikedh/trimesh
v 0.01412383 0.01177389 0.09472958
v 0.01882592 -0.00009993 0.09205798
v 0.01441586 0.01201664 0.09205535
v 0.01844519 -0.00009897 0.09473222
v 0.00324917 0.01846374 0.09205195
v 0.00318174 0.01809132 0.09472618
v -0.00926114 0.01589730 0.09472363
v -0.00944913 0.01622468 0.09204939
v -0.01773735 0.00634716 0.09204888
v -0.01738267 0.00621845 0.09472311
v -0.01738267 -0.00641638 0.09472488
v -0.01773736 -0.00654702 0.09205063
v -0.00926116 -0.01609523 0.09472808
v -0.00944914 -0.01642454 0.09205384
v 0.00324915 -0.01866359 0.09205701
v 0.00318172 -0.01828925 0.09473123
v 0.01412381 -0.01197183 0.09473288
v 0.01441585 -0.01221651 0.09205865
v 0.01778001 -0.00010181 0.08655534
v 0.00297783 0.00239359 0.06261362
v 0.01361536 0.01134046 0.08655271
v 0.00388926 -0.00011057 0.06261626
v 0.00307011 0.01742876 0.08654932
v 0.00066998 0.00372605 0.06261023
v -0.00195443 0.00326331 0.06260768
v -0.00892150 0.01531431 0.08654677
v -0.01674847 0.00598649 0.08654625
v -0.00366739 0.00122188 0.06260717
v -0.00366739 -0.00144302 0.06260892
v -0.01674848 -0.00619010 0.08654800
v -0.00195442 -0.00348443 0.06261212
v -0.00892151 -0.01551793 0.08655121
v 0.00307010 -0.01763238 0.08655437
v 0.00066998 -0.00394716 0.06261528
v 0.00297781 -0.00261472 0.06261691
v 0.01361535 -0.01154409 0.08655600
v 0.01043391 0.00868416 0.10226758
v 0.01362972 -0.00009626 0.10227020
v 0.01701593 -0.00009769 0.09830260
v 0.01302846 0.01085784 0.09829997
v 0.00293180 0.01668715 0.09829659
v 0.00234183 0.01335612 0.10226421
v -0.00686013 0.01173356 0.10226169
v -0.00854971 0.01466265 0.09829405
v -0.01604373 0.00573163 0.09829353
v -0.01286629 0.00457571 0.10226116
v -0.01286630 -0.00476821 0.10226291
v -0.01604373 -0.00592699 0.09829528
v -0.00854971 -0.01485802 0.09829847
v -0.00686015 -0.01192608 0.10226609
v 0.00293178 -0.01688252 0.09830163
v 0.00234182 -0.01354864 0.10226923
v 0.01043390 -0.00887668 0.10227086
v 0.01302844 -0.01105321 0.09830326
v 0.00708203 -0.00009260 0.11234483
v 0.00541161 0.00447410 0.10704383
v 0.00541667 0.00448292 0.11234219
v 0.00707445 -0.00009452 0.10704647
v 0.00119985 0.00691750 0.11233879
v 0.00120114 0.00690500 0.10704046
v -0.00358681 0.00606075 0.10703793
v -0.00359535 0.00607198 0.11233624
v -0.00672519 0.00234198 0.11233571
v -0.00671192 0.00233639 0.10703740
v -0.00672519 -0.00252719 0.11233747
v -0.00671192 -0.00252542 0.10703915
v -0.00358681 -0.00624980 0.10704234
v -0.00359535 -0.00625719 0.11234068
v 0.00119985 -0.00710271 0.11234385
v 0.00120114 -0.00709405 0.10704549
v 0.00541161 -0.00466315 0.10704712
v 0.00541667 -0.00466813 0.11234549
v 0.01006483 -0.00009548 0.10442444
v 0.00770273 0.00639430 0.10442181
v 0.00172172 0.00984743 0.10441845
v -0.00507961 0.00864815 0.10441593
v -0.00951887 0.00335765 0.10441541
v -0.00951888 -0.00354860 0.10441715
v -0.00507963 -0.00883912 0.10442034
v 0.00172172 -0.01003840 0.10442346
v 0.00770274 -0.00658527 0.10442508
v 0.00773019 0.01332838 0.09468078
v 0.01484492 0.00531878 0.09205337
v 0.01454568 0.00521095 0.09468408
v 0.00789005 0.01360215 0.09205022
v -0.00271569 0.01517027 0.09467769
v -0.00276941 0.01548170 0.09204714
v -0.01190164 0.00986676 0.09467609
v -0.01214318 0.01006975 0.09204553
v -0.01552946 -0.00010058 0.09467674
v -0.01584518 -0.00010139 0.09204618
v -0.01190165 -0.01006792 0.09467932
v -0.01214319 -0.01027253 0.09204875
v -0.00272404 -0.01537030 0.09468279
v -0.00277797 -0.01568335 0.09205209
v 0.01185554 -0.01006791 0.09468587
v 0.01209979 -0.01027254 0.09205513
v 0.00156841 0.00261808 0.06271424
v 0.01482792 0.00530955 0.08689138
v 0.00788220 0.01358242 0.08688854
v 0.00295112 0.00097410 0.06271683
v -0.00276315 0.01545949 0.08688545
v -0.00055394 0.00299228 0.06271114
v -0.00242027 0.00191473 0.06270954
v -0.01212452 0.01005470 0.08688385
v -0.01582161 -0.00010297 0.08688450
v -0.00315735 -0.00011036 0.06271018
v -0.00242030 -0.00213547 0.06271277
v -0.01212452 -0.01026065 0.08688707
v -0.00277123 -0.01566429 0.08689010
v -0.00056120 -0.00321170 0.06271554
v 0.00240617 -0.00213513 0.06271832
v 0.01208628 -0.01026059 0.08689295
v 0.00570911 0.00983661 0.10212132
v 0.01342087 0.00480276 0.09820650
v 0.01075065 0.00383170 0.10212501
v 0.00713085 0.01229449 0.09820295
v -0.00250996 0.01399442 0.09819986
v -0.00201887 0.01119926 0.10211821
v -0.00881475 0.00727566 0.10211660
v -0.01098794 0.00909965 0.09819825
v -0.01433616 -0.00009950 0.09819890
v -0.01149865 -0.00009830 0.10211724
v -0.00881475 -0.00747226 0.10211984
v -0.01098795 -0.00929865 0.09820148
v -0.00251779 -0.01419219 0.09820520
v -0.00202563 -0.01139446 0.10212372
v 0.00876053 -0.00747176 0.10212704
v 0.01093808 -0.00929848 0.09820842
v 0.00793604 0.00280639 0.10425332
v 0.00421083 0.00724401 0.10424974
v -0.00149997 0.00825099 0.10424662
v -0.00652197 0.00535154 0.10424500
v -0.00850531 -0.00009765 0.10424567
v -0.00652197 -0.00554683 0.10424824
v -0.00150489 -0.00844487 0.10425202
v 0.00646526 -0.00554605 0.10425531
v -0.00003268 -0.00009457 0.10704447
v 0.00242484 0.00192774 0.06048358
v 0.00316649 -0.00011134 0.06048476
v 0.00054573 0.00301336 0.06048207
v -0.00159194 0.00263690 0.06048092
v -0.00298735 0.00097406 0.06048069
v -0.00298703 -0.00119662 0.06048148
v -0.00159151 -0.00285884 0.06048291
v 0.00054556 -0.00323508 0.06048432
v 0.00242435 -0.00215001 0.06048505
v 0.00052694 -0.00055813 0.06048334
v 0.00064605 0.00013860 0.06048317
v 0.00034389 0.00049573 0.06048286
v -0.00012831 0.00058154 0.06048254
v -0.00054580 0.00034201 0.06048238
v -0.00071003 -0.00011073 0.06048245
v -0.00054366 -0.00056168 0.06048271
v -0.00013873 -0.00079753 0.06048303
v 0.01886359 -0.00012272 0.02893096
v 0.01416471 0.01174917 0.02624448
v 0.01445353 0.01199384 0.02891960
v 0.01848607 -0.00012369 0.02625556
v 0.00328686 0.01844092 0.02890501
v 0.00322263 0.01806659 0.02623024
v -0.00922025 0.01587257 0.02621953
v -0.00941141 0.01620187 0.02889402
v -0.01769962 0.00632436 0.02889178
v -0.01734177 0.00619372 0.02621733
v -0.01734177 -0.00644111 0.02622469
v -0.01769963 -0.00656981 0.02889932
v -0.00922027 -0.01611995 0.02623818
v -0.00941144 -0.01644731 0.02891315
v 0.00328684 -0.01868636 0.02892676
v 0.00322261 -0.01831397 0.02625146
v 0.01416469 -0.01199655 0.02625832
v 0.01445352 -0.01223928 0.02893378
v 0.00389194 -0.00011211 0.05835383
v 0.01778413 -0.00012082 0.03415290
v 0.00298048 0.00239215 0.05835356
v 0.01362588 0.01130388 0.03414156
v 0.00309683 0.01738282 0.03412699
v 0.00067255 0.00372465 0.05835323
v -0.00195196 0.00326190 0.05835298
v -0.00887637 0.01527162 0.03411602
v -0.00366497 -0.00144460 0.05835310
v -0.01669132 0.00595812 0.03411378
v -0.01669133 -0.00619978 0.03412132
v -0.00366499 0.00122039 0.05835293
v -0.00195194 -0.00348609 0.05835341
v -0.00887639 -0.01551329 0.03413511
v 0.00309680 -0.01762449 0.03414870
v 0.00067254 -0.00394884 0.05835373
v 0.00298046 -0.00261635 0.05835389
v 0.01362587 -0.01154554 0.03415573
v 0.01367960 -0.00012642 0.01871184
v 0.01048380 0.00865400 0.01870430
v 0.01706108 -0.00012498 0.02268348
v 0.01307361 0.01083054 0.02267344
v 0.00297695 0.01665985 0.02266056
v 0.00239172 0.01332596 0.01869464
v -0.00681024 0.01170339 0.01868735
v -0.00850455 0.01463535 0.02265085
v -0.01281640 0.00454554 0.01868587
v -0.01599857 0.00570432 0.02264887
v -0.01281641 -0.00479838 0.01869087
v -0.01599858 -0.00595430 0.02265554
v -0.00850456 -0.01488532 0.02266775
v -0.00681026 -0.01195624 0.01870003
v 0.00297693 -0.01690981 0.02267976
v 0.00239171 -0.01357880 0.01870905
v 0.01048378 -0.00890684 0.01871371
v 0.01307359 -0.01108051 0.02268597
v 0.00546720 0.00444049 0.01392510
v 0.00714394 -0.00013004 0.00862939
v 0.00547859 0.00444547 0.00862675
v 0.00713004 -0.00012813 0.01392775
v 0.00125674 0.00687139 0.01392169
v 0.00126177 0.00688006 0.00862335
v -0.00353121 0.00602714 0.01391913
v -0.00353343 0.00603454 0.00862079
v -0.00665632 0.00230277 0.01391860
v -0.00666327 0.00230454 0.00862027
v -0.00665633 -0.00255904 0.01392037
v -0.00666327 -0.00256463 0.00862203
v -0.00353122 -0.00628341 0.01392359
v -0.00353343 -0.00629463 0.00862524
v 0.00125673 -0.00712766 0.01392677
v 0.00126176 -0.00714015 0.00862841
v 0.00546720 -0.00469676 0.01392841
v 0.00547859 -0.00470557 0.00863005
v 0.00775519 0.00636258 0.01654847
v 0.01011729 -0.00012719 0.01655335
v 0.00177419 0.00981571 0.01654220
v -0.00502715 0.00861643 0.01653746
v -0.00946641 0.00332593 0.01653650
v -0.00946642 -0.00358032 0.01653975
v -0.00502717 -0.00887084 0.01654569
v 0.00177418 -0.01007012 0.01655155
v 0.00775520 -0.00661698 0.01655457
v 0.00777102 0.01330370 0.02628451
v 0.01488260 0.00529599 0.02892620
v 0.00792774 0.01357936 0.02891507
v 0.01458651 0.00518626 0.02629522
v -0.00267486 0.01514558 0.02627380
v -0.00273172 0.01545891 0.02890407
v -0.01186080 0.00984207 0.02626827
v -0.01210548 0.01004695 0.02889839
v -0.01548862 -0.00012527 0.02627048
v -0.01580748 -0.00012418 0.02890067
v -0.01186082 -0.01009261 0.02627943
v -0.01210550 -0.01029532 0.02890985
v -0.00268321 -0.01539499 0.02629074
v -0.00274028 -0.01570614 0.02892160
v 0.01189637 -0.01009259 0.02630124
v 0.01213747 -0.01029532 0.02893242
v 0.00157107 0.00261647 0.05825139
v 0.01485945 0.00529049 0.03408817
v 0.00295378 0.00097249 0.05825164
v 0.00791373 0.01356336 0.03407675
v -0.00055128 0.00299067 0.05825169
v -0.00273162 0.01544042 0.03406577
v -0.00241761 0.00191312 0.05825184
v -0.01209298 0.01003563 0.03406009
v -0.00315469 -0.00011197 0.05825178
v -0.01579008 -0.00012204 0.03406237
v -0.00241764 -0.00213708 0.05825153
v -0.01209299 -0.01027971 0.03407154
v -0.00273970 -0.01568335 0.03408359
v -0.00055853 -0.00321331 0.05825177
v 0.00240883 -0.00213675 0.05825175
v 0.01211780 -0.01027964 0.03409457
v 0.01346591 0.00477553 0.02277175
v 0.00717589 0.01226725 0.02276238
v 0.00575883 0.00980655 0.01884409
v 0.01080036 0.00380164 0.01885076
v -0.00246492 0.01396719 0.02275274
v -0.00196915 0.01116920 0.01883699
v -0.01094290 0.00907242 0.02274776
v -0.00876503 0.00724560 0.01883333
v -0.01429112 -0.00012673 0.02274975
v -0.01144893 -0.00012836 0.01883479
v -0.01094291 -0.00932588 0.02275781
v -0.00876503 -0.00750232 0.01884073
v -0.00247275 -0.01421942 0.02276773
v -0.00197591 -0.01142452 0.01884779
v 0.01098311 -0.00932571 0.02277704
v 0.00881024 -0.00750182 0.01885451
v 0.00426309 0.00721241 0.01671576
v 0.00798830 0.00277479 0.01671983
v -0.00144771 0.00821939 0.01671133
v -0.00646971 0.00531994 0.01670905
v -0.00845305 -0.00012925 0.01670995
v -0.00646971 -0.00557843 0.01671367
v -0.00145263 -0.00847647 0.01671798
v 0.00651752 -0.00557765 0.01672211
v 0.00002291 -0.00012819 0.01392126
v 0.03145741 -0.00012922 0.01227752
v 0.02906471 0.01189970 0.00474151
v 0.02906471 0.01189970 0.01227752
v 0.03145741 -0.00012922 0.00474150
v 0.02225087 0.02209733 0.01227752
v 0.02225087 0.02209733 0.00474151
v 0.01205325 0.02891117 0.01227752
v 0.01205325 0.02891117 0.00474150
v 0.00002433 0.03130387 0.01227752
v 0.00002433 0.03130387 0.00474150
v -0.01200459 0.02891117 0.00474151
v -0.01200459 0.02891117 0.01227752
v -0.02220222 0.02209733 0.01227752
v -0.02220222 0.02209733 0.00474151
v -0.02901606 0.01189970 0.00474151
v -0.02901606 0.01189970 0.01227752
v -0.03140876 -0.00012923 0.01227752
v -0.03140876 -0.00012923 0.00474151
v -0.02901605 -0.01215815 0.01227752
v -0.02901605 -0.01215815 0.00474151
v -0.02220221 -0.02235578 0.01227752
v -0.02220221 -0.02235578 0.00474151
v -0.01200457 -0.02916961 0.00474151
v -0.01200457 -0.02916961 0.01227752
v 0.00002436 -0.03156230 0.01227752
v 0.00002436 -0.03156230 0.00474151
v 0.01205328 -0.02916959 0.01227752
v 0.01205328 -0.02916959 0.00474151
v 0.02225090 -0.02235574 0.01227752
v 0.02225090 -0.02235574 0.00474151
v 0.02906473 -0.01215810 0.01227752
v 0.02906473 -0.01215810 0.00474150
v 0.03093881 -0.00012922 0.00421975
v 0.00002433 -0.00012922 0.00421036
v 0.02858559 0.01170125 0.00421975
v 0.02188417 0.02173063 0.00421975
v 0.01185479 0.02843205 0.00421975
v 0.00002433 0.03078527 0.00421975
v -0.01180613 0.02843205 0.00421975
v -0.02183552 0.02173063 0.00421975
v -0.02853694 0.01170124 0.00421975
v -0.03089016 -0.00012923 0.00421975
v -0.02853693 -0.01195969 0.00421975
v -0.02183550 -0.02198908 0.00421975
v -0.01180611 -0.02869049 0.00421975
v 0.00002436 -0.03104371 0.00421975
v 0.01185482 -0.02869047 0.00421975
v 0.02188420 -0.02198903 0.00421975
v 0.02858561 -0.01195964 0.00421975
v 0.03093881 -0.00012922 0.01279928
v 0.02858559 0.01170125 0.01279928
v 0.00002433 -0.00012922 0.01280867
v 0.02188417 0.02173063 0.01279928
v 0.01185479 0.02843205 0.01279928
v 0.00002433 0.03078527 0.01279928
v -0.01180613 0.02843205 0.01279928
v -0.02183552 0.02173063 0.01279928
v -0.02853694 0.01170124 0.01279928
v -0.03089016 -0.00012923 0.01279928
v -0.02853693 -0.01195969 0.01279928
v -0.02183550 -0.02198908 0.01279928
v -0.01180611 -0.02869049 0.01279928
v 0.00002436 -0.03104371 0.01279928
v 0.01185482 -0.02869047 0.01279928
v 0.02188420 -0.02198903 0.01279928
v 0.02858561 -0.01195964 0.01279928
v 0.03082657 -0.00625901 0.11622457
v 0.03082657 -0.00625901 0.10868855
v 0.03082656 0.00599551 0.11622457
v 0.03082656 0.00599551 0.10868855
v 0.02613695 0.01731726 0.11622457
v 0.02613695 0.01731726 0.10868855
v 0.01747165 0.02598256 0.11622456
v 0.01747156 0.02598242 0.10868814
v 0.00614991 0.03067217 0.10868856
v 0.00614991 0.03067217 0.11622456
v -0.00610466 0.03067218 0.11622456
v -0.00610466 0.03067218 0.10868856
v -0.01742641 0.02598256 0.11622456
v -0.01742641 0.02598256 0.10868856
v -0.02609170 0.01731726 0.11622456
v -0.02609170 0.01731726 0.10868856
v -0.03078132 0.00599551 0.11622456
v -0.03078132 0.00599551 0.10868856
v -0.03078132 -0.00625907 0.11622456
v -0.03078132 -0.00625907 0.10868856
v -0.02609169 -0.01758082 0.11622457
v -0.02609169 -0.01758082 0.10868855
v -0.01742639 -0.02624610 0.11622457
v -0.01742639 -0.02624610 0.10868855
v -0.00610464 -0.03093572 0.11622457
v -0.00610464 -0.03093572 0.10868855
v 0.00614994 -0.03093570 0.11622457
v 0.00614994 -0.03093570 0.10868855
v 0.01747169 -0.02624607 0.11622457
v 0.01747169 -0.02624607 0.10868855
v 0.02613697 -0.01758077 0.11622457
v 0.02613697 -0.01758077 0.10868855
v 0.03031793 0.00589434 0.10816679
v 0.03031794 -0.00615784 0.10816679
v 0.00002262 -0.00013177 0.10815740
v 0.02570574 0.01702917 0.10816679
v 0.01717817 0.02554334 0.10816656
v 0.00604875 0.03016354 0.10816679
v -0.00600349 0.03016354 0.10816679
v -0.01713829 0.02555136 0.10816679
v -0.02566050 0.01702915 0.10816679
v -0.03027269 0.00589433 0.10816679
v -0.03027269 -0.00615789 0.10816679
v -0.02566049 -0.01729270 0.10816679
v -0.01713828 -0.02581490 0.10816679
v -0.00600346 -0.03042708 0.10816679
v 0.00604877 -0.03042707 0.10816679
v 0.01718357 -0.02581487 0.10816679
v 0.02570577 -0.01729265 0.10816679
v 0.03031793 0.00589434 0.11674632
v 0.00002262 -0.00013177 0.11675572
v 0.03031794 -0.00615784 0.11674632
v 0.02570575 0.01702915 0.11674632
v 0.01718354 0.02555136 0.11674632
v 0.00604874 0.03016354 0.11674632
v -0.00600349 0.03016354 0.11674632
v -0.01713829 0.02555136 0.11674632
v -0.02566050 0.01702915 0.11674632
v -0.03027269 0.00589433 0.11674632
v -0.03027269 -0.00615789 0.11674632
v -0.02566049 -0.01729270 0.11674632
v -0.01713828 -0.02581490 0.11674632
v -0.00600346 -0.03042708 0.11674632
v 0.00604877 -0.03042707 0.11674632
v 0.01718357 -0.02581487 0.11674632
v 0.02570577 -0.01729265 0.11674632
v 0.03031506 -0.00015689 0.07942848
v 0.02924661 0.00276964 0.07281393
v 0.02924912 0.00277175 0.07942848
v 0.03031178 -0.00015689 0.07281393
v 0.02655008 0.00433004 0.07942848
v 0.02654951 0.00432682 0.07281393
v 0.02348247 0.00378602 0.07281393
v 0.02348083 0.00378885 0.07942848
v 0.02147753 0.00140141 0.07942848
v 0.02148061 0.00140029 0.07281393
v 0.02147753 -0.00171518 0.07942848
v 0.02148061 -0.00171406 0.07281392
v 0.02348247 -0.00409979 0.07281392
v 0.02348083 -0.00410263 0.07942848
v 0.02655007 -0.00464382 0.07942848
v 0.02654950 -0.00464059 0.07281393
v 0.02924661 -0.00308342 0.07281393
v 0.02924912 -0.00308553 0.07942848
v 0.02900341 -0.00015689 0.10330516
v 0.02784200 0.00159103 0.09817304
v 0.02824434 0.00192864 0.10330516
v 0.02847819 -0.00015689 0.09817304
v 0.02632231 0.00303832 0.10330516
v 0.02623111 0.00252108 0.09817304
v 0.02439927 0.00219808 0.09817304
v 0.02413666 0.00265293 0.10330516
v 0.02271008 0.00095280 0.10330516
v 0.02320362 0.00077316 0.09817304
v 0.02271008 -0.00126657 0.10330516
v 0.02320362 -0.00108694 0.09817304
v 0.02439927 -0.00251185 0.09817304
v 0.02413666 -0.00296671 0.10330516
v 0.02632231 -0.00335210 0.10330516
v 0.02623111 -0.00283486 0.09817304
v 0.02784200 -0.00190481 0.09817304
v 0.02824434 -0.00224241 0.10330516
v 0.02917095 -0.00015689 0.12218652
v 0.02837269 0.00203633 0.12218652
v 0.02662866 0.00057292 0.12278707
v 0.02689429 -0.00015689 0.12278707
v 0.02635140 0.00320332 0.12218652
v 0.02595606 0.00096125 0.12278707
v 0.02405289 0.00279803 0.12218652
v 0.02519121 0.00082638 0.12278707
v 0.02255264 0.00101010 0.12218652
v 0.02469200 0.00023144 0.12278707
v 0.02255264 -0.00132387 0.12218652
v 0.02469200 -0.00054521 0.12278707
v 0.02519121 -0.00114016 0.12278707
v 0.02405289 -0.00311180 0.12218652
v 0.02635140 -0.00351709 0.12218652
v 0.02595606 -0.00127502 0.12278707
v 0.02662866 -0.00088670 0.12278707
v 0.02837268 -0.00235011 0.12218652
v 0.02575891 -0.00015689 0.12296608
v 0.02896996 -0.00015689 0.06429648
v 0.03030956 -0.00015689 0.06278601
v 0.02821871 0.00190713 0.06429648
v 0.02924491 0.00276821 0.06278601
v 0.02654912 0.00432463 0.06278601
v 0.02631650 0.00300538 0.06429648
v 0.02415338 0.00262396 0.06429648
v 0.02348359 0.00378409 0.06278601
v 0.02148270 0.00139953 0.06278601
v 0.02274151 0.00094136 0.06429648
v 0.02148270 -0.00171330 0.06278601
v 0.02274151 -0.00125513 0.06429648
v 0.02348358 -0.00409786 0.06278601
v 0.02415338 -0.00293774 0.06429648
v 0.02654912 -0.00463840 0.06278601
v 0.02631650 -0.00331915 0.06429648
v 0.02821871 -0.00222091 0.06429648
v 0.02924491 -0.00308199 0.06278601
v 0.03031169 -0.00015689 0.06642106
v 0.02924654 0.00276959 0.06642106
v 0.02654949 0.00432673 0.06642106
v 0.02348252 0.00378594 0.06642106
v 0.02148069 0.00140026 0.06642106
v 0.02148069 -0.00171403 0.06642106
v 0.02348251 -0.00409972 0.06642106
v 0.02654949 -0.00464051 0.06642106
v 0.02924654 -0.00308337 0.06642106
v 0.02882961 -0.00015689 0.07041953
v 0.03031055 -0.00015689 0.06848055
v 0.02811120 0.00181692 0.07041953
v 0.02924567 0.00276886 0.06848055
v 0.02654929 0.00432561 0.06848055
v 0.02629213 0.00286716 0.07041953
v 0.02422356 0.00250242 0.07041953
v 0.02348308 0.00378496 0.06848055
v 0.02148176 0.00139987 0.06848055
v 0.02287339 0.00089335 0.07041953
v 0.02148176 -0.00171364 0.06848055
v 0.02287339 -0.00120713 0.07041953
v 0.02422356 -0.00281619 0.07041953
v 0.02348308 -0.00409873 0.06848055
v 0.02654929 -0.00463939 0.06848055
v 0.02629213 -0.00318094 0.07041953
v 0.02811120 -0.00213070 0.07041953
v 0.02924567 -0.00308263 0.06848055
v 0.02969142 -0.00015689 0.08628129
v 0.02877138 0.00237088 0.08628129
v 0.02644178 0.00371588 0.08628129
v 0.02379265 0.00324877 0.08628129
v 0.02206356 0.00118811 0.08628129
v 0.02206356 -0.00150188 0.08628129
v 0.02379265 -0.00356254 0.08628129
v 0.02644178 -0.00402965 0.08628129
v 0.02877138 -0.00268466 0.08628129
v 0.03031334 -0.00015689 0.10643526
v 0.02924781 0.00277065 0.10643526
v 0.02654978 0.00432835 0.10643526
v 0.02348169 0.00378737 0.10643526
v 0.02147914 0.00140082 0.10643526
v 0.02147914 -0.00171459 0.10643526
v 0.02348169 -0.00410114 0.10643526
v 0.02654978 -0.00464213 0.10643526
v 0.02924781 -0.00308442 0.10643526
v 0.03031323 -0.00015689 0.11956873
v 0.02924772 0.00277057 0.11956873
v 0.02654976 0.00432824 0.11956873
v 0.02348175 0.00378727 0.11956873
v 0.02147925 0.00140078 0.11956873
v 0.02147925 -0.00171455 0.11956873
v 0.02348175 -0.00410104 0.11956872
v 0.02654975 -0.00464202 0.11956873
v 0.02924772 -0.00308435 0.11956873
v 0.03030956 -0.00015689 0.06018006
v 0.02924491 0.00276821 0.06018006
v 0.02654912 0.00432463 0.06018006
v 0.02348359 0.00378409 0.06018006
v 0.02148270 0.00139953 0.06018006
v 0.02148270 -0.00171330 0.06018006
v 0.02924491 -0.00308199 0.06018006
v 0.03031178 -0.00015689 0.05015215
v 0.03031506 -0.00015689 0.04353759
v 0.02924661 0.00276964 0.05015215
v 0.02924912 0.00277175 0.04353760
v 0.02655008 0.00433004 0.04353760
v 0.02654951 0.00432682 0.05015215
v 0.02348247 0.00378602 0.05015215
v 0.02348083 0.00378885 0.04353760
v 0.02147753 0.00140141 0.04353760
v 0.02148061 0.00140029 0.05015215
v 0.02147753 -0.00171518 0.04353760
v 0.02148061 -0.00171406 0.05015216
v 0.02348247 -0.00409979 0.05015216
v 0.02348083 -0.00410263 0.04353760
v 0.02655007 -0.00464382 0.04353760
v 0.02654950 -0.00464059 0.05015215
v 0.02924661 -0.00308342 0.05015215
v 0.02924912 -0.00308553 0.04353760
v 0.02847819 -0.00015689 0.02479303
v 0.02900341 -0.00015689 0.01966092
v 0.02784200 0.00159103 0.02479303
v 0.02824434 0.00192864 0.01966092
v 0.02632231 0.00303832 0.01966092
v 0.02623111 0.00252108 0.02479303
v 0.02439927 0.00219808 0.02479303
v 0.02413666 0.00265293 0.01966092
v 0.02271008 0.00095280 0.01966092
v 0.02320362 0.00077316 0.02479303
v 0.02271008 -0.00126657 0.01966092
v 0.02320362 -0.00108694 0.02479303
v 0.02439927 -0.00251185 0.02479303
v 0.02413666 -0.00296671 0.01966092
v 0.02632231 -0.00335210 0.01966092
v 0.02623111 -0.00283486 0.02479303
v 0.02784200 -0.00190481 0.02479303
v 0.02824434 -0.00224241 0.01966092
v 0.02662866 0.00057292 0.00017900
v 0.02917095 -0.00015689 0.00077956
v 0.02689429 -0.00015689 0.00017900
v 0.02837269 0.00203633 0.00077956
v 0.02635140 0.00320332 0.00077956
v 0.02595606 0.00096125 0.00017900
v 0.02405289 0.00279803 0.00077956
v 0.02519121 0.00082638 0.00017900
v 0.02255264 0.00101010 0.00077956
v 0.02469200 0.00023144 0.00017900
v 0.02255264 -0.00132387 0.00077956
v 0.02469200 -0.00054521 0.00017900
v 0.02519121 -0.00114016 0.00017900
v 0.02405289 -0.00311180 0.00077956
v 0.02595606 -0.00127502 0.00017900
v 0.02635140 -0.00351709 0.00077956
v 0.02662866 -0.00088670 0.00017900
v 0.02837268 -0.00235011 0.00077956
v 0.02575891 -0.00015689 -0.00000000
v 0.02821871 0.00190713 0.05866960
v 0.02896996 -0.00015689 0.05866960
v 0.02631650 0.00300538 0.05866960
v 0.02415338 0.00262396 0.05866960
v 0.02274151 0.00094136 0.05866960
v 0.02274151 -0.00125513 0.05866960
v 0.02348358 -0.00409786 0.06018006
v 0.02415338 -0.00293774 0.05866960
v 0.02654912 -0.00463840 0.06018006
v 0.02631650 -0.00331915 0.05866960
v 0.02821871 -0.00222091 0.05866960
v 0.03031169 -0.00015689 0.05654502
v 0.02924654 0.00276959 0.05654502
v 0.02654949 0.00432673 0.05654502
v 0.02348252 0.00378594 0.05654502
v 0.02148069 0.00140026 0.05654502
v 0.02148069 -0.00171403 0.05654502
v 0.02348251 -0.00409972 0.05654502
v 0.02654949 -0.00464051 0.05654502
v 0.02924654 -0.00308337 0.05654502
v 0.02924567 0.00276886 0.05448553
v 0.03031055 -0.00015689 0.05448553
v 0.02811120 0.00181692 0.05254654
v 0.02882961 -0.00015689 0.05254654
v 0.02654929 0.00432561 0.05448553
v 0.02629213 0.00286716 0.05254654
v 0.02348308 0.00378496 0.05448553
v 0.02422356 0.00250242 0.05254654
v 0.02148176 0.00139987 0.05448553
v 0.02287339 0.00089335 0.05254654
v 0.02148176 -0.00171364 0.05448553
v 0.02287339 -0.00120713 0.05254654
v 0.02348308 -0.00409873 0.05448553
v 0.02422356 -0.00281619 0.05254654
v 0.02654929 -0.00463939 0.05448553
v 0.02629213 -0.00318094 0.05254654
v 0.02924567 -0.00308263 0.05448553
v 0.02811120 -0.00213070 0.05254654
v 0.02877138 0.00237088 0.03668479
v 0.02969142 -0.00015689 0.03668479
v 0.02644178 0.00371588 0.03668479
v 0.02379265 0.00324877 0.03668479
v 0.02206356 0.00118811 0.03668479
v 0.02206356 -0.00150188 0.03668479
v 0.02379265 -0.00356254 0.03668479
v 0.02644178 -0.00402965 0.03668479
v 0.02877138 -0.00268466 0.03668479
v 0.03031334 -0.00015689 0.01653082
v 0.02924781 0.00277065 0.01653082
v 0.02654978 0.00432835 0.01653082
v 0.02348169 0.00378737 0.01653082
v 0.02147914 0.00140082 0.01653082
v 0.02147914 -0.00171459 0.01653082
v 0.02348169 -0.00410114 0.01653082
v 0.02654978 -0.00464213 0.01653082
v 0.02924781 -0.00308442 0.01653082
v 0.02924772 0.00277057 0.00339735
v 0.03031323 -0.00015689 0.00339735
v 0.02654976 0.00432824 0.00339735
v 0.02348175 0.00378727 0.00339735
v 0.02147925 0.00140078 0.00339735
v 0.02147925 -0.00171455 0.00339735
v 0.02348175 -0.00410104 0.00339735
v 0.02654975 -0.00464202 0.00339735
v 0.02924772 -0.00308435 0.00339735
v -0.01361017 0.02665835 0.07942848
v -0.01630671 0.02509795 0.07281393
v -0.01630922 0.02510005 0.07942848
v -0.01360960 0.02665512 0.07281392
v -0.01737515 0.02217142 0.07942848
v -0.01737188 0.02217142 0.07281392
v -0.01630671 0.01924489 0.07281393
v -0.01630921 0.01924278 0.07942848
v -0.01361017 0.01768449 0.07942848
v -0.01360960 0.01768772 0.07281393
v -0.01054257 0.01822851 0.07281393
v -0.01054093 0.01822568 0.07942848
v -0.00853763 0.02061312 0.07942848
v -0.00854070 0.02061424 0.07281393
v -0.00854070 0.02372859 0.07281393
v -0.00853762 0.02372971 0.07942848
v -0.01054256 0.02611432 0.07281392
v -0.01054093 0.02611716 0.07942848
v -0.01338240 0.02536663 0.10330516
v -0.01490210 0.02391934 0.09817304
v -0.01530444 0.02425694 0.10330516
v -0.01329120 0.02484939 0.09817304
v -0.01606351 0.02217142 0.10330516
v -0.01553828 0.02217142 0.09817304
v -0.01490209 0.02042350 0.09817304
v -0.01530443 0.02008590 0.10330516
v -0.01338240 0.01897621 0.10330516
v -0.01329120 0.01949345 0.09817304
v -0.01145936 0.01981645 0.09817304
v -0.01119675 0.01936160 0.10330516
v -0.00977017 0.02106173 0.10330516
v -0.01026371 0.02124137 0.09817304
v -0.01026371 0.02310147 0.09817304
v -0.00977017 0.02328111 0.10330516
v -0.01145936 0.02452639 0.09817304
v -0.01119675 0.02498124 0.10330516
v -0.01543278 0.02436464 0.12218652
v -0.01368876 0.02290123 0.12278707
v -0.01341150 0.02553163 0.12218652
v -0.01301616 0.02328955 0.12278707
v -0.01395439 0.02217142 0.12278707
v -0.01623105 0.02217142 0.12218652
v -0.01543278 0.01997820 0.12218652
v -0.01368876 0.02144161 0.12278707
v -0.01341150 0.01881121 0.12218652
v -0.01301616 0.02105329 0.12278707
v -0.01225131 0.02118815 0.12278707
v -0.01111298 0.01921650 0.12218652
v -0.00961273 0.02100443 0.12218652
v -0.01175209 0.02178309 0.12278707
v -0.01175209 0.02255974 0.12278707
v -0.00961273 0.02333840 0.12218652
v -0.01111298 0.02512633 0.12218652
v -0.01225131 0.02315469 0.12278707
v -0.01281900 0.02217142 0.12296608
v -0.01337659 0.02533368 0.06429648
v -0.01360921 0.02665293 0.06278601
v -0.01527881 0.02423544 0.06429648
v -0.01630500 0.02509651 0.06278601
v -0.01736965 0.02217142 0.06278601
v -0.01603005 0.02217142 0.06429648
v -0.01527881 0.02010740 0.06429648
v -0.01630500 0.01924632 0.06278601
v -0.01360922 0.01768991 0.06278601
v -0.01337660 0.01900915 0.06429648
v -0.01121348 0.01939057 0.06429648
v -0.01054368 0.01823044 0.06278601
v -0.00854279 0.02061500 0.06278601
v -0.00980161 0.02107318 0.06429648
v -0.00854279 0.02372783 0.06278601
v -0.00980161 0.02326966 0.06429648
v -0.01121348 0.02495227 0.06429648
v -0.01054368 0.02611240 0.06278601
v -0.01360959 0.02665504 0.06642106
v -0.01630664 0.02509789 0.06642106
v -0.01737179 0.02217142 0.06642106
v -0.01630664 0.01924494 0.06642106
v -0.01360959 0.01768780 0.06642106
v -0.01054261 0.01822859 0.06642106
v -0.00854078 0.02061427 0.06642106
v -0.00854078 0.02372856 0.06642106
v -0.01054261 0.02611424 0.06642106
v -0.01335222 0.02519547 0.07041953
v -0.01360939 0.02665392 0.06848055
v -0.01517130 0.02414523 0.07041953
v -0.01630577 0.02509716 0.06848055
v -0.01737065 0.02217142 0.06848055
v -0.01588970 0.02217142 0.07041953
v -0.01517129 0.02019761 0.07041953
v -0.01630577 0.01924567 0.06848055
v -0.01360939 0.01768892 0.06848055
v -0.01335222 0.01914737 0.07041953
v -0.01128365 0.01951212 0.07041953
v -0.01054318 0.01822957 0.06848055
v -0.00854185 0.02061466 0.06848055
v -0.00993349 0.02112118 0.07041953
v -0.00993349 0.02322166 0.07041953
v -0.00854185 0.02372817 0.06848055
v -0.01128365 0.02483072 0.07041953
v -0.01054318 0.02611326 0.06848055
v -0.01350187 0.02604419 0.08628129
v -0.01583148 0.02469919 0.08628129
v -0.01675151 0.02217142 0.08628129
v -0.01583148 0.01964365 0.08628129
v -0.01350188 0.01829865 0.08628129
v -0.01085275 0.01876577 0.08628129
v -0.00912365 0.02082642 0.08628129
v -0.00912365 0.02351642 0.08628129
v -0.01085275 0.02557707 0.08628129
v -0.01360987 0.02665666 0.10643526
v -0.01630790 0.02509895 0.10643526
v -0.01737344 0.02217142 0.10643526
v -0.01630790 0.01924388 0.10643526
v -0.01360987 0.01768618 0.10643526
v -0.01054179 0.01822716 0.10643526
v -0.00853924 0.02061371 0.10643526
v -0.00853924 0.02372913 0.10643526
v -0.01054178 0.02611567 0.10643526
v -0.01360985 0.02665655 0.11956873
v -0.01630781 0.02509888 0.11956873
v -0.01737332 0.02217142 0.11956873
v -0.01630781 0.01924396 0.11956873
v -0.01360985 0.01768629 0.11956873
v -0.01054185 0.01822726 0.11956873
v -0.00853935 0.02061375 0.11956873
v -0.00853935 0.02372909 0.11956873
v -0.01054184 0.02611557 0.11956873
v -0.01630500 0.02509651 0.06018006
v -0.01360921 0.02665293 0.06018006
v -0.01630500 0.01924632 0.06018006
v -0.01360922 0.01768991 0.06018006
v -0.01054368 0.01823044 0.06018006
v -0.00854279 0.02061500 0.06018006
v -0.00854279 0.02372783 0.06018006
v -0.01360960 0.02665512 0.05015216
v -0.01361017 0.02665835 0.04353760
v -0.01630671 0.02509795 0.05015215
v -0.01630922 0.02510005 0.04353760
v -0.01737515 0.02217142 0.04353760
v -0.01737188 0.02217142 0.05015216
v -0.01630671 0.01924489 0.05015215
v -0.01630921 0.01924278 0.04353760
v -0.01361017 0.01768449 0.04353760
v -0.01360960 0.01768772 0.05015215
v -0.01054257 0.01822851 0.05015215
v -0.01054093 0.01822568 0.04353760
v -0.00853763 0.02061312 0.04353760
v -0.00854070 0.02061424 0.05015215
v -0.00854070 0.02372859 0.05015215
v -0.00853762 0.02372971 0.04353760
v -0.01054256 0.02611432 0.05015216
v -0.01054093 0.02611716 0.04353760
v -0.01329120 0.02484939 0.02479303
v -0.01338240 0.02536663 0.01966092
v -0.01490210 0.02391934 0.02479303
v -0.01530444 0.02425694 0.01966092
v -0.01606351 0.02217142 0.01966092
v -0.01553828 0.02217142 0.02479303
v -0.01490209 0.02042350 0.02479303
v -0.01530443 0.02008590 0.01966092
v -0.01338240 0.01897621 0.01966092
v -0.01329120 0.01949345 0.02479303
v -0.01145936 0.01981645 0.02479303
v -0.01119675 0.01936160 0.01966092
v -0.00977017 0.02106173 0.01966092
v -0.01026371 0.02124137 0.02479303
v -0.01026371 0.02310147 0.02479303
v -0.00977017 0.02328111 0.01966092
v -0.01145936 0.02452639 0.02479303
v -0.01119675 0.02498124 0.01966092
v -0.01368876 0.02290123 0.00017900
v -0.01341150 0.02553163 0.00077956
v -0.01301616 0.02328955 0.00017900
v -0.01543278 0.02436464 0.00077956
v -0.01395439 0.02217142 0.00017900
v -0.01623105 0.02217142 0.00077956
v -0.01543278 0.01997820 0.00077956
v -0.01368876 0.02144161 0.00017900
v -0.01341150 0.01881121 0.00077956
v -0.01301616 0.02105329 0.00017900
v -0.01225131 0.02118815 0.00017900
v -0.01111298 0.01921650 0.00077956
v -0.01175209 0.02178309 0.00017900
v -0.00961273 0.02100443 0.00077956
v -0.01175209 0.02255974 0.00017900
v -0.00961273 0.02333840 0.00077956
v -0.01111298 0.02512633 0.00077956
v -0.01225131 0.02315469 0.00017900
v -0.01281900 0.02217142 -0.00000000
v -0.01527881 0.02423544 0.05866960
v -0.01337659 0.02533368 0.05866960
v -0.01736965 0.02217142 0.06018006
v -0.01603005 0.02217142 0.05866960
v -0.01527881 0.02010740 0.05866960
v -0.01337660 0.01900915 0.05866960
v -0.01121348 0.01939057 0.05866960
v -0.00980161 0.02107318 0.05866960
v -0.00980161 0.02326966 0.05866960
v -0.01054368 0.02611240 0.06018006
v -0.01121348 0.02495227 0.05866960
v -0.01360959 0.02665504 0.05654502
v -0.01630664 0.02509789 0.05654502
v -0.01737179 0.02217142 0.05654502
v -0.01630664 0.01924494 0.05654502
v -0.01360959 0.01768780 0.05654502
v -0.01054261 0.01822859 0.05654502
v -0.00854078 0.02061427 0.05654502
v -0.00854078 0.02372856 0.05654502
v -0.01054261 0.02611424 0.05654502
v -0.01630577 0.02509716 0.05448553
v -0.01360939 0.02665392 0.05448553
v -0.01517130 0.02414523 0.05254654
v -0.01335222 0.02519547 0.05254654
v -0.01737065 0.02217142 0.05448553
v -0.01588970 0.02217142 0.05254654
v -0.01630577 0.01924567 0.05448553
v -0.01517129 0.02019761 0.05254654
v -0.01360939 0.01768892 0.05448553
v -0.01335222 0.01914737 0.05254654
v -0.01054318 0.01822957 0.05448553
v -0.01128365 0.01951212 0.05254654
v -0.00854185 0.02061466 0.05448553
v -0.00993349 0.02112118 0.05254654
v -0.00854185 0.02372817 0.05448553
v -0.00993349 0.02322166 0.05254654
v -0.01054318 0.02611326 0.05448553
v -0.01128365 0.02483072 0.05254654
v -0.01583148 0.02469919 0.03668479
v -0.01350187 0.02604419 0.03668479
v -0.01675151 0.02217142 0.03668479
v -0.01583148 0.01964365 0.03668479
v -0.01350188 0.01829865 0.03668479
v -0.01085275 0.01876577 0.03668479
v -0.00912365 0.02082642 0.03668479
v -0.00912365 0.02351642 0.03668479
v -0.01085275 0.02557707 0.03668479
v -0.01360987 0.02665666 0.01653082
v -0.01630790 0.02509895 0.01653082
v -0.01737344 0.02217142 0.01653082
v -0.01630790 0.01924388 0.01653082
v -0.01360987 0.01768618 0.01653082
v -0.01054179 0.01822716 0.01653082
v -0.00853924 0.02061371 0.01653082
v -0.00853924 0.02372913 0.01653082
v -0.01054178 0.02611567 0.01653082
v -0.01630781 0.02509888 0.00339735
v -0.01360985 0.02665655 0.00339735
v -0.01737332 0.02217142 0.00339735
v -0.01630781 0.01924396 0.00339735
v -0.01360985 0.01768629 0.00339735
v -0.01054185 0.01822726 0.00339735
v -0.00853935 0.02061375 0.00339735
v -0.00853935 0.02372909 0.00339735
v -0.01054184 0.02611557 0.00339735
v -0.01365809 -0.02688911 0.07942848
v -0.01635463 -0.02532871 0.07281392
v -0.01365752 -0.02688589 0.07281392
v -0.01635714 -0.02533082 0.07942848
v -0.01059049 -0.02634509 0.07281392
v -0.01058885 -0.02634792 0.07942848
v -0.00858555 -0.02396048 0.07942848
v -0.00858862 -0.02395936 0.07281392
v -0.00858863 -0.02084501 0.07281393
v -0.00858555 -0.02084389 0.07942848
v -0.01059049 -0.01845928 0.07281393
v -0.01058885 -0.01845645 0.07942848
v -0.01365809 -0.01791526 0.07942848
v -0.01365752 -0.01791848 0.07281393
v -0.01635463 -0.01947566 0.07281393
v -0.01635714 -0.01947355 0.07942848
v -0.01742307 -0.02240218 0.07942848
v -0.01741980 -0.02240218 0.07281393
v -0.01343033 -0.02559740 0.10330516
v -0.01495002 -0.02415010 0.09817304
v -0.01333912 -0.02508016 0.09817304
v -0.01535236 -0.02448771 0.10330516
v -0.01150728 -0.02475715 0.09817304
v -0.01124467 -0.02521201 0.10330516
v -0.00981809 -0.02351187 0.10330516
v -0.01031163 -0.02333223 0.09817304
v -0.01031164 -0.02147214 0.09817304
v -0.00981809 -0.02129250 0.10330516
v -0.01150728 -0.02004722 0.09817304
v -0.01124467 -0.01959237 0.10330516
v -0.01343033 -0.01920698 0.10330516
v -0.01333912 -0.01972421 0.09817304
v -0.01495002 -0.02065426 0.09817304
v -0.01535236 -0.02031666 0.10330516
v -0.01611143 -0.02240218 0.10330516
v -0.01558621 -0.02240218 0.09817304
v -0.01345942 -0.02576239 0.12218652
v -0.01373668 -0.02313200 0.12278707
v -0.01548070 -0.02459540 0.12218652
v -0.01306408 -0.02352032 0.12278707
v -0.01229923 -0.02338546 0.12278707
v -0.01116090 -0.02535710 0.12218652
v -0.00966065 -0.02356917 0.12218652
v -0.01180001 -0.02279051 0.12278707
v -0.01180001 -0.02201386 0.12278707
v -0.00966065 -0.02123520 0.12218652
v -0.01116090 -0.01944727 0.12218652
v -0.01229923 -0.02141891 0.12278707
v -0.01345942 -0.01904198 0.12218652
v -0.01306408 -0.02128405 0.12278707
v -0.01373668 -0.02167237 0.12278707
v -0.01548070 -0.02020897 0.12218652
v -0.01400231 -0.02240218 0.12278707
v -0.01627897 -0.02240218 0.12218652
v -0.01286693 -0.02240218 0.12296608
v -0.01532673 -0.02446621 0.06429648
v -0.01365714 -0.02688370 0.06278601
v -0.01342452 -0.02556445 0.06429648
v -0.01635293 -0.02532728 0.06278601
v -0.01126140 -0.02518304 0.06429648
v -0.01059160 -0.02634316 0.06278601
v -0.00859071 -0.02395860 0.06278601
v -0.00984953 -0.02350043 0.06429648
v -0.00984953 -0.02130394 0.06429648
v -0.00859072 -0.02084577 0.06278601
v -0.01126140 -0.01962134 0.06429648
v -0.01059160 -0.01846121 0.06278601
v -0.01365714 -0.01792067 0.06278601
v -0.01342452 -0.01923992 0.06429648
v -0.01532673 -0.02033817 0.06429648
v -0.01635292 -0.01947709 0.06278601
v -0.01741757 -0.02240218 0.06278601
v -0.01607797 -0.02240218 0.06429648
v -0.01635456 -0.02532865 0.06642106
v -0.01365751 -0.02688580 0.06642106
v -0.01059053 -0.02634501 0.06642106
v -0.00858870 -0.02395933 0.06642106
v -0.00858871 -0.02084504 0.06642106
v -0.01059053 -0.01845936 0.06642106
v -0.01365751 -0.01791857 0.06642106
v -0.01635456 -0.01947571 0.06642106
v -0.01741971 -0.02240218 0.06642106
v -0.01521922 -0.02437599 0.07041953
v -0.01365731 -0.02688468 0.06848055
v -0.01340015 -0.02542624 0.07041953
v -0.01635369 -0.02532792 0.06848055
v -0.01133158 -0.02506149 0.07041953
v -0.01059110 -0.02634403 0.06848055
v -0.00858977 -0.02395894 0.06848055
v -0.00998141 -0.02345242 0.07041953
v -0.00998141 -0.02135195 0.07041953
v -0.00858978 -0.02084543 0.06848055
v -0.01133158 -0.01974288 0.07041953
v -0.01059110 -0.01846034 0.06848055
v -0.01365731 -0.01791969 0.06848055
v -0.01340015 -0.01937814 0.07041953
v -0.01521922 -0.02042838 0.07041953
v -0.01635369 -0.01947644 0.06848055
v -0.01741857 -0.02240218 0.06848055
v -0.01593763 -0.02240218 0.07041953
v -0.01354980 -0.02627495 0.08628129
v -0.01090067 -0.02580784 0.08628129
v -0.00917158 -0.02374718 0.08628129
v -0.00917158 -0.02105719 0.08628129
v -0.01090067 -0.01899653 0.08628129
v -0.01354980 -0.01852942 0.08628129
v -0.01587940 -0.01987442 0.08628129
v -0.01679943 -0.02240218 0.08628129
v -0.01587940 -0.02492995 0.08628129
v -0.01635583 -0.02532971 0.10643526
v -0.01365779 -0.02688743 0.10643526
v -0.01058971 -0.02634644 0.10643526
v -0.00858716 -0.02395989 0.10643526
v -0.00858716 -0.02084448 0.10643526
v -0.01058971 -0.01845793 0.10643526
v -0.01365779 -0.01791695 0.10643526
v -0.01635582 -0.01947465 0.10643526
v -0.01742136 -0.02240218 0.10643526
v -0.01635574 -0.02532964 0.11956873
v -0.01365777 -0.02688731 0.11956873
v -0.01058977 -0.02634634 0.11956873
v -0.00858727 -0.02395985 0.11956873
v -0.00858727 -0.02084452 0.11956873
v -0.01058977 -0.01845803 0.11956873
v -0.01365777 -0.01791706 0.11956873
v -0.01635573 -0.01947473 0.11956873
v -0.01742124 -0.02240218 0.11956873
v -0.01365714 -0.02688370 0.06018006
v -0.01635293 -0.02532728 0.06018006
v -0.00859071 -0.02395860 0.06018006
v -0.00859072 -0.02084577 0.06018006
v -0.01059160 -0.01846121 0.06018006
v -0.01365714 -0.01792067 0.06018006
v -0.01635292 -0.01947709 0.06018006
v -0.01635463 -0.02532871 0.05015216
v -0.01365809 -0.02688911 0.04353760
v -0.01365752 -0.02688589 0.05015216
v -0.01635714 -0.02533082 0.04353760
v -0.01059049 -0.02634509 0.05015216
v -0.01058885 -0.02634792 0.04353760
v -0.00858555 -0.02396048 0.04353760
v -0.00858862 -0.02395936 0.05015216
v -0.00858863 -0.02084501 0.05015215
v -0.00858555 -0.02084389 0.04353760
v -0.01059049 -0.01845928 0.05015215
v -0.01058885 -0.01845645 0.04353760
v -0.01365809 -0.01791526 0.04353760
v -0.01365752 -0.01791848 0.05015215
v -0.01635463 -0.01947566 0.05015215
v -0.01635714 -0.01947355 0.04353760
v -0.01742307 -0.02240218 0.04353760
v -0.01741980 -0.02240218 0.05015215
v -0.01495002 -0.02415010 0.02479303
v -0.01343033 -0.02559740 0.01966092
v -0.01333912 -0.02508016 0.02479303
v -0.01535236 -0.02448771 0.01966092
v -0.01150728 -0.02475715 0.02479303
v -0.01124467 -0.02521201 0.01966092
v -0.00981809 -0.02351187 0.01966092
v -0.01031163 -0.02333223 0.02479303
v -0.01031164 -0.02147214 0.02479303
v -0.00981809 -0.02129250 0.01966092
v -0.01150728 -0.02004722 0.02479303
v -0.01124467 -0.01959237 0.01966092
v -0.01343033 -0.01920698 0.01966092
v -0.01333912 -0.01972421 0.02479303
v -0.01495002 -0.02065426 0.02479303
v -0.01535236 -0.02031666 0.01966092
v -0.01611143 -0.02240218 0.01966092
v -0.01558621 -0.02240218 0.02479303
v -0.01373668 -0.02313200 0.00017900
v -0.01345942 -0.02576239 0.00077956
v -0.01548070 -0.02459540 0.00077956
v -0.01306408 -0.02352032 0.00017900
v -0.01229923 -0.02338546 0.00017900
v -0.01116090 -0.02535710 0.00077956
v -0.01180001 -0.02279051 0.00017900
v -0.00966065 -0.02356917 0.00077956
v -0.01180001 -0.02201386 0.00017900
v -0.00966065 -0.02123520 0.00077956
v -0.01116090 -0.01944727 0.00077956
v -0.01229923 -0.02141891 0.00017900
v -0.01345942 -0.01904198 0.00077956
v -0.01306408 -0.02128405 0.00017900
v -0.01373668 -0.02167237 0.00017900
v -0.01548070 -0.02020897 0.00077956
v -0.01400231 -0.02240218 0.00017900
v -0.01627897 -0.02240218 0.00077956
v -0.01286693 -0.02240218 0.00000000
v -0.01532673 -0.02446621 0.05866960
v -0.01342452 -0.02556445 0.05866960
v -0.01059160 -0.02634316 0.06018006
v -0.01126140 -0.02518304 0.05866960
v -0.00984953 -0.02350043 0.05866960
v -0.00984953 -0.02130394 0.05866960
v -0.01126140 -0.01962134 0.05866960
v -0.01342452 -0.01923992 0.05866960
v -0.01532673 -0.02033817 0.05866960
v -0.01741757 -0.02240218 0.06018006
v -0.01607797 -0.02240218 0.05866960
v -0.01365751 -0.02688580 0.05654502
v -0.01635456 -0.02532865 0.05654502
v -0.01059053 -0.02634501 0.05654502
v -0.00858870 -0.02395933 0.05654502
v -0.00858871 -0.02084504 0.05654502
v -0.01059053 -0.01845936 0.05654502
v -0.01365751 -0.01791857 0.05654502
v -0.01635456 -0.01947571 0.05654502
v -0.01741971 -0.02240218 0.05654502
v -0.01521922 -0.02437599 0.05254654
v -0.01365731 -0.02688468 0.05448553
v -0.01635369 -0.02532792 0.05448553
v -0.01340015 -0.02542624 0.05254654
v -0.01059110 -0.02634403 0.05448553
v -0.01133158 -0.02506149 0.05254654
v -0.00858977 -0.02395894 0.05448553
v -0.00998141 -0.02345242 0.05254654
v -0.00858978 -0.02084543 0.05448553
v -0.00998141 -0.02135195 0.05254654
v -0.01059110 -0.01846034 0.05448553
v -0.01133158 -0.01974288 0.05254654
v -0.01365731 -0.01791969 0.05448553
v -0.01340015 -0.01937814 0.05254654
v -0.01635369 -0.01947644 0.05448553
v -0.01521922 -0.02042838 0.05254654
v -0.01741857 -0.02240218 0.05448553
v -0.01593763 -0.02240218 0.05254654
v -0.01587940 -0.02492995 0.03668479
v -0.01354980 -0.02627495 0.03668479
v -0.01090067 -0.02580784 0.03668479
v -0.00917158 -0.02374718 0.03668479
v -0.00917158 -0.02105719 0.03668479
v -0.01090067 -0.01899653 0.03668479
v -0.01354980 -0.01852942 0.03668479
v -0.01587940 -0.01987442 0.03668479
v -0.01679943 -0.02240218 0.03668479
v -0.01365779 -0.02688743 0.01653082
v -0.01635583 -0.02532971 0.01653082
v -0.01058971 -0.02634644 0.01653082
v -0.00858716 -0.02395989 0.01653082
v -0.00858716 -0.02084448 0.01653082
v -0.01058971 -0.01845793 0.01653082
v -0.01365779 -0.01791695 0.01653082
v -0.01635582 -0.01947465 0.01653082
v -0.01742136 -0.02240218 0.01653082
v -0.01635574 -0.02532964 0.00339735
v -0.01365777 -0.02688731 0.00339735
v -0.01058977 -0.02634634 0.00339735
v -0.00858727 -0.02395985 0.00339735
v -0.00858727 -0.02084452 0.00339735
v -0.01058977 -0.01845803 0.00339735
v -0.01365777 -0.01791706 0.00339735
v -0.01635573 -0.01947473 0.00339735
v -0.01742124 -0.02240218 0.00339735
v 0.01060116 0.00002346 0.01854537
v 0.00685529 0.00250564 0.01499443
v 0.00996359 0.00363926 0.01854456
v 0.00729321 0.00002204 0.01499523
v 0.00559433 0.00468969 0.01499337
v 0.00812780 0.00681894 0.01854349
v 0.00366243 0.00631074 0.01499216
v 0.00531521 0.00917898 0.01854229
v 0.00186506 0.01043473 0.01854109
v 0.00129260 0.00717329 0.01499096
v -0.00122932 0.00717330 0.01498992
v -0.00180652 0.01043473 0.01854003
v -0.00359915 0.00631075 0.01498915
v -0.00525667 0.00917897 0.01853926
v -0.00553105 0.00468969 0.01498875
v -0.00806925 0.00681893 0.01853886
v -0.00990504 0.00363926 0.01853888
v -0.00679201 0.00250565 0.01498877
v -0.01054260 0.00002346 0.01853932
v -0.00722994 0.00002204 0.01498921
v -0.00679201 -0.00246157 0.01499001
v -0.00990505 -0.00359233 0.01854012
v -0.00806926 -0.00677201 0.01854119
v -0.00553105 -0.00464561 0.01499107
v -0.00359915 -0.00626667 0.01499227
v -0.00525668 -0.00913206 0.01854240
v -0.00180653 -0.01038781 0.01854360
v -0.00122932 -0.00712921 0.01499347
v 0.00186505 -0.01038782 0.01854465
v 0.00129260 -0.00712921 0.01499452
v 0.00366242 -0.00626666 0.01499529
v 0.00531521 -0.00913207 0.01854542
v 0.00812780 -0.00677202 0.01854582
v 0.00559432 -0.00464561 0.01499569
v 0.00685528 -0.00246157 0.01499567
v 0.00996359 -0.00359235 0.01854580
v 0.01271214 0.00002488 0.02069925
v 0.01194713 0.00436349 0.02069856
v 0.00974435 0.00817879 0.02069762
v 0.00636951 0.01101061 0.02069657
v 0.00222967 0.01251738 0.02069553
v -0.00217587 0.01251738 0.02069461
v -0.00631571 0.01101060 0.02069394
v -0.00969053 0.00817878 0.02069360
v -0.01189329 0.00436348 0.02069361
v -0.01265831 0.00002488 0.02069399
v -0.01189331 -0.00431372 0.02069469
v -0.00969055 -0.00812902 0.02069562
v -0.00631572 -0.01096085 0.02069667
v -0.00217588 -0.01246764 0.02069772
v 0.00222966 -0.01246764 0.02069863
v 0.00636951 -0.01096087 0.02069930
v 0.00974435 -0.00812904 0.02069965
v 0.01194712 -0.00431374 0.02069963
v 0.01500784 0.00002631 0.02508079
v 0.01410424 0.00515090 0.02507999
v 0.01150241 0.00965740 0.02507892
v 0.00751618 0.01300224 0.02507770
v 0.00262635 0.01478200 0.02507650
v -0.00257731 0.01478200 0.02507545
v -0.00746714 0.01300225 0.02507467
v -0.01145337 0.00965740 0.02507428
v -0.01405519 0.00515091 0.02507429
v -0.01495880 0.00002631 0.02507473
v -0.01405520 -0.00509829 0.02507554
v -0.01145337 -0.00960479 0.02507660
v -0.00746714 -0.01294963 0.02507782
v -0.00257731 -0.01472939 0.02507902
v 0.00262634 -0.01472939 0.02508008
v 0.00751617 -0.01294964 0.02508085
v 0.01150240 -0.00960479 0.02508125
v 0.01410423 -0.00509830 0.02508123
v 0.00001978 0.00002915 0.03538387
v 0.00290093 0.00106636 0.01372258
v 0.00308507 0.00002203 0.01372298
v 0.00237071 0.00198473 0.01372205
v 0.00155837 0.00266638 0.01372144
v 0.00056188 0.00302907 0.01372085
v -0.00049857 0.00302907 0.01372033
v -0.00149506 0.00266638 0.01371994
v -0.00230741 0.00198474 0.01371974
v -0.00283764 0.00106637 0.01371975
v -0.00302178 0.00002203 0.01371997
v -0.00283763 -0.00102230 0.01372037
v -0.00230741 -0.00194068 0.01372090
v -0.00149506 -0.00262231 0.01372150
v -0.00049857 -0.00298500 0.01372210
v 0.00056187 -0.00298500 0.01372262
v 0.00155836 -0.00262231 0.01372300
v 0.00237071 -0.00194067 0.01372320
v 0.00290093 -0.00102230 0.01372319
v 0.00003166 0.00002203 0.01372015
v 0.00541595 -0.00929842 0.07728309
v 0.00827964 -0.00689549 0.07728429
v 0.00003394 0.00002346 0.07733911
v -0.01073003 0.00002346 0.07728011
v -0.01008088 0.00370496 0.07728091
v 0.00004346 0.00002916 0.06046660
v -0.00821174 0.00694242 0.07728199
v -0.00534804 0.00934535 0.07728320
v -0.00183519 0.01062391 0.07728440
v 0.00190310 0.01062392 0.07728545
v 0.00541594 0.00934535 0.07728623
v 0.00827964 0.00694242 0.07728663
v 0.01014878 0.00370496 0.07728661
v 0.01079793 0.00002347 0.07728617
v 0.01014879 -0.00365803 0.07728537
v 0.00190310 -0.01057699 0.07728188
v -0.00183519 -0.01057700 0.07728083
v -0.00534804 -0.00929842 0.07728006
v -0.00821173 -0.00689550 0.07727965
v -0.01008088 -0.00365804 0.07727967
v 0.00012322 0.00000774 0.07728210
v 0.00081788 -0.00022975 0.06438310
v -0.00087282 -0.00022975 0.03246540
v 0.00081788 -0.00022975 0.03246540
v -0.00087282 -0.00022975 0.06438310
v -0.00007621 0.00076793 0.06438310
v -0.00007621 -0.00092277 0.03246540
v -0.00007621 -0.00092277 0.06438310
v -0.00007621 0.00076793 0.03246540
v 0.00092148 -0.00002868 0.06438310
v -0.00076923 -0.00002868 0.03246540
v -0.00076923 -0.00002868 0.06438310
v 0.00092148 -0.00002868 0.03246540
v 0.00012486 -0.00102637 0.06438310
v 0.00012486 0.00066434 0.03246540
v 0.00012486 0.00066434 0.06438310
v 0.00012486 -0.00102637 0.03246540
f 1 2 3
f 2 1 4
f 1 5 6
f 5 1 3
f 7 5 8
f 5 7 6
f 7 9 10
f 9 7 8
f 11 9 12
f 9 11 10
f 13 12 14
f 12 13 11
f 13 15 16
f 15 13 14
f 17 15 18
f 15 17 16
f 17 2 4
f 2 17 18
f 19 20 21
f 20 19 22
f 21 20 23
f 23 20 24
f 23 25 26
f 25 23 24
f 26 25 27
f 27 25 28
f 27 29 30
f 29 27 28
f 30 31 32
f 31 30 29
f 31 33 32
f 33 31 34
f 33 35 36
f 35 33 34
f 36 35 19
f 19 35 22
f 2 21 3
f 21 2 19
f 5 3 21
f 5 21 23
f 5 26 8
f 26 5 23
f 8 26 9
f 9 26 27
f 27 12 9
f 12 27 30
f 12 32 14
f 32 12 30
f 32 15 14
f 15 32 33
f 15 36 18
f 36 15 33
f 2 18 36
f 2 36 19
f 37 38 39
f 37 39 40
f 37 41 42
f 41 37 40
f 43 42 41
f 43 41 44
f 43 45 46
f 45 43 44
f 45 47 46
f 47 45 48
f 48 49 50
f 48 50 47
f 50 51 52
f 51 50 49
f 53 52 51
f 53 51 54
f 53 39 38
f 39 53 54
f 55 56 57
f 56 55 58
f 57 56 59
f 59 56 60
f 59 61 62
f 61 59 60
f 62 61 63
f 63 61 64
f 64 65 63
f 65 64 66
f 65 67 68
f 67 65 66
f 67 69 68
f 69 67 70
f 69 71 72
f 71 69 70
f 72 71 55
f 55 71 58
f 73 37 74
f 37 73 38
f 74 42 75
f 42 74 37
f 43 75 42
f 75 43 76
f 76 46 77
f 46 76 43
f 46 78 77
f 46 47 78
f 47 50 79
f 47 79 78
f 80 79 50
f 80 50 52
f 52 81 80
f 81 52 53
f 38 81 53
f 81 38 73
f 58 74 56
f 74 58 73
f 56 75 60
f 75 56 74
f 76 60 75
f 60 76 61
f 61 77 64
f 77 61 76
f 77 66 64
f 77 78 66
f 78 79 67
f 78 67 66
f 70 67 79
f 70 79 80
f 80 71 70
f 71 80 81
f 73 71 81
f 71 73 58
f 40 39 4
f 40 4 1
f 40 6 41
f 6 40 1
f 44 41 6
f 44 6 7
f 44 10 45
f 10 44 7
f 10 48 45
f 48 10 11
f 49 48 11
f 49 11 13
f 49 16 51
f 16 49 13
f 54 51 16
f 54 16 17
f 54 4 39
f 4 54 17
f 82 83 84
f 83 82 85
f 82 86 87
f 82 87 85
f 88 87 86
f 87 88 89
f 88 90 91
f 88 91 89
f 92 91 90
f 91 92 93
f 92 94 95
f 92 95 93
f 96 95 94
f 95 96 97
f 96 84 83
f 96 83 97
f 98 99 100
f 99 98 101
f 102 98 100
f 98 102 103
f 104 102 105
f 102 104 103
f 106 104 105
f 104 106 107
f 106 108 107
f 108 106 109
f 110 108 109
f 108 110 111
f 110 112 111
f 112 110 113
f 99 112 113
f 112 99 101
f 83 100 99
f 100 83 85
f 87 100 85
f 100 87 102
f 87 105 102
f 105 87 89
f 91 105 89
f 105 91 106
f 91 109 106
f 109 91 93
f 95 109 93
f 109 95 110
f 95 113 110
f 113 95 97
f 83 113 97
f 113 83 99
f 114 115 116
f 115 114 117
f 118 114 119
f 114 118 117
f 120 118 119
f 118 120 121
f 122 120 123
f 120 122 121
f 124 122 123
f 122 124 125
f 126 124 127
f 124 126 125
f 128 126 127
f 126 128 129
f 115 128 116
f 128 115 129
f 114 130 131
f 130 114 116
f 119 131 132
f 131 119 114
f 132 120 119
f 120 132 133
f 123 120 134
f 120 133 134
f 123 135 124
f 135 123 134
f 136 124 135
f 127 124 136
f 128 127 137
f 127 136 137
f 137 116 128
f 116 137 130
f 130 137 138
f 130 138 131
f 131 138 132
f 132 138 133
f 133 138 134
f 134 138 135
f 135 138 136
f 136 138 137
f 117 84 115
f 84 117 82
f 117 86 82
f 86 117 118
f 121 86 118
f 86 121 88
f 90 121 122
f 121 90 88
f 125 90 122
f 90 125 92
f 94 125 126
f 125 94 92
f 129 94 126
f 94 129 96
f 129 84 96
f 84 129 115
f 22 139 20
f 139 22 140
f 20 139 24
f 24 139 141
f 24 142 25
f 142 24 141
f 25 142 28
f 28 142 143
f 28 144 29
f 144 28 143
f 29 145 31
f 145 29 144
f 145 34 31
f 34 145 146
f 34 147 35
f 147 34 146
f 35 147 22
f 22 147 140
f 101 148 112
f 148 101 149
f 149 98 150
f 98 149 101
f 98 151 150
f 151 98 103
f 152 103 104
f 103 152 151
f 152 107 153
f 107 152 104
f 107 108 153
f 153 108 154
f 155 108 111
f 108 155 154
f 155 111 148
f 111 112 148
f 156 157 158
f 157 156 159
f 160 158 157
f 160 157 161
f 160 162 163
f 162 160 161
f 164 163 162
f 164 162 165
f 164 166 167
f 166 164 165
f 167 168 169
f 168 167 166
f 170 169 168
f 170 168 171
f 170 172 173
f 172 170 171
f 156 173 172
f 156 172 159
f 174 175 176
f 175 177 176
f 178 179 176
f 176 177 178
f 180 178 181
f 178 180 179
f 182 183 184
f 183 182 185
f 184 186 182
f 186 184 187
f 188 189 186
f 186 187 188
f 190 188 191
f 188 190 189
f 175 174 190
f 190 191 175
f 156 177 175
f 177 156 158
f 158 160 177
f 178 177 160
f 160 181 178
f 181 160 163
f 180 183 185
f 183 180 181
f 164 167 183
f 184 183 167
f 167 187 184
f 187 167 169
f 169 170 187
f 188 187 170
f 170 191 188
f 191 170 173
f 173 156 191
f 175 191 156
f 192 193 194
f 195 194 193
f 193 196 195
f 196 193 197
f 197 198 196
f 199 196 198
f 200 199 198
f 201 199 200
f 200 202 201
f 203 201 202
f 202 204 203
f 204 202 205
f 205 206 204
f 206 205 207
f 207 208 206
f 209 206 208
f 208 194 209
f 194 208 192
f 210 211 212
f 211 210 213
f 214 210 215
f 210 212 215
f 216 215 217
f 215 216 214
f 218 216 219
f 216 217 219
f 220 218 221
f 218 219 221
f 222 221 223
f 221 222 220
f 224 222 225
f 222 223 225
f 226 225 227
f 225 226 224
f 213 226 211
f 226 227 211
f 228 192 229
f 193 192 228
f 197 193 230
f 230 193 228
f 231 197 230
f 197 231 198
f 232 198 231
f 200 198 232
f 202 232 233
f 232 202 200
f 233 205 202
f 205 233 234
f 234 207 205
f 207 234 235
f 208 235 236
f 235 208 207
f 208 229 192
f 229 208 236
f 210 229 213
f 228 229 210
f 230 228 214
f 214 228 210
f 216 230 214
f 230 216 231
f 218 231 216
f 232 231 218
f 233 218 220
f 218 233 232
f 220 234 233
f 234 220 222
f 222 235 234
f 235 222 224
f 236 224 226
f 224 236 235
f 236 213 229
f 213 236 226
f 194 195 159
f 157 159 195
f 195 161 157
f 161 195 196
f 196 199 161
f 162 161 199
f 199 165 162
f 165 199 201
f 201 203 165
f 166 165 203
f 203 204 166
f 168 166 204
f 204 171 168
f 171 204 206
f 206 209 171
f 172 171 209
f 209 159 172
f 159 209 194
f 237 238 239
f 238 237 240
f 241 237 242
f 239 242 237
f 243 242 244
f 242 243 241
f 245 243 246
f 244 246 243
f 247 246 248
f 246 247 245
f 249 247 250
f 248 250 247
f 251 250 252
f 250 251 249
f 240 251 238
f 252 238 251
f 253 254 255
f 254 253 256
f 257 258 253
f 258 256 253
f 259 258 257
f 258 259 260
f 261 262 259
f 262 260 259
f 263 262 261
f 262 263 264
f 264 263 265
f 266 265 263
f 267 265 266
f 265 267 268
f 255 254 267
f 254 268 267
f 256 238 254
f 238 256 239
f 256 258 242
f 256 242 239
f 260 242 258
f 242 260 244
f 260 262 246
f 260 246 244
f 264 246 262
f 246 264 248
f 264 265 250
f 264 250 248
f 268 250 265
f 250 268 252
f 268 254 238
f 268 238 252
f 269 270 271
f 271 272 269
f 273 271 270
f 271 273 274
f 273 275 276
f 273 276 274
f 277 276 275
f 276 277 278
f 277 279 280
f 277 280 278
f 281 280 279
f 280 281 282
f 281 283 284
f 281 284 282
f 269 284 283
f 284 269 272
f 272 285 286
f 285 272 271
f 271 274 287
f 271 287 285
f 274 276 288
f 274 288 287
f 288 278 289
f 278 288 276
f 280 289 278
f 289 280 290
f 282 290 280
f 290 282 291
f 291 284 292
f 284 291 282
f 284 272 286
f 284 286 292
f 286 293 292
f 285 293 286
f 287 293 285
f 288 293 287
f 289 293 288
f 290 293 289
f 291 293 290
f 292 293 291
f 240 237 270
f 240 270 269
f 241 270 237
f 270 241 273
f 241 243 275
f 241 275 273
f 245 275 243
f 275 245 277
f 245 247 279
f 245 279 277
f 249 279 247
f 279 249 281
f 249 251 283
f 249 283 281
f 240 283 251
f 283 240 269
f 174 139 140
f 139 174 176
f 141 139 179
f 139 176 179
f 179 142 141
f 142 179 180
f 143 142 185
f 142 180 185
f 144 185 182
f 185 144 143
f 182 145 144
f 145 182 186
f 146 145 189
f 145 186 189
f 189 147 146
f 147 189 190
f 140 147 174
f 147 190 174
f 253 149 150
f 149 253 255
f 151 253 150
f 253 151 257
f 257 151 152
f 257 152 259
f 261 152 153
f 152 261 259
f 263 153 154
f 153 263 261
f 263 154 155
f 263 155 266
f 267 266 148
f 148 266 155
f 255 148 149
f 148 255 267
f 163 164 181
f 183 181 164
f 294 295 296
f 295 294 297
f 298 296 295
f 298 295 299
f 300 298 299
f 300 299 301
f 302 300 301
f 302 301 303
f 302 304 305
f 304 302 303
f 306 305 304
f 306 304 307
f 306 308 309
f 308 306 307
f 310 309 308
f 310 308 311
f 312 310 311
f 312 311 313
f 314 312 313
f 314 313 315
f 314 316 317
f 316 314 315
f 318 317 316
f 318 316 319
f 320 318 319
f 320 319 321
f 322 320 321
f 322 321 323
f 324 322 323
f 324 323 325
f 324 297 294
f 297 324 325
f 326 327 328
f 328 327 329
f 329 327 330
f 331 327 332
f 332 327 333
f 333 327 334
f 334 327 335
f 335 327 336
f 336 327 337
f 337 327 338
f 338 327 339
f 339 327 340
f 340 327 341
f 341 327 342
f 342 327 326
f 343 344 345
f 344 346 345
f 346 347 345
f 347 348 345
f 348 349 345
f 349 350 345
f 350 351 345
f 351 352 345
f 352 353 345
f 353 354 345
f 354 355 345
f 355 356 345
f 356 357 345
f 357 358 345
f 358 359 345
f 359 343 345
f 360 361 362
f 362 361 363
f 364 362 363
f 364 363 365
f 366 364 365
f 366 365 367
f 366 368 369
f 368 366 367
f 370 369 368
f 370 368 371
f 372 370 371
f 372 371 373
f 374 372 373
f 374 373 375
f 376 374 375
f 376 375 377
f 378 376 377
f 378 377 379
f 380 378 379
f 380 379 381
f 382 380 381
f 382 381 383
f 384 382 383
f 384 383 385
f 386 384 385
f 386 385 387
f 388 386 387
f 388 387 389
f 390 388 389
f 390 389 391
f 360 390 391
f 360 391 361
f 392 393 394
f 392 394 395
f 395 394 396
f 394 397 396
f 397 394 398
f 398 394 399
f 399 394 400
f 400 394 401
f 401 394 402
f 402 394 403
f 403 394 404
f 404 394 405
f 405 394 406
f 406 394 407
f 407 394 408
f 408 394 393
f 409 410 411
f 409 412 410
f 412 413 410
f 413 414 410
f 414 415 410
f 415 416 410
f 416 417 410
f 417 418 410
f 418 419 410
f 419 420 410
f 420 421 410
f 421 422 410
f 422 423 410
f 423 424 410
f 424 425 410
f 425 411 410
f 426 427 428
f 427 426 429
f 430 427 431
f 427 430 428
f 430 432 433
f 432 430 431
f 434 432 435
f 432 434 433
f 436 435 437
f 435 436 434
f 436 438 439
f 438 436 437
f 440 438 441
f 438 440 439
f 440 442 443
f 442 440 441
f 426 442 429
f 442 426 443
f 444 445 446
f 445 444 447
f 448 445 449
f 445 448 446
f 448 450 451
f 450 448 449
f 452 450 453
f 450 452 451
f 454 453 455
f 453 454 452
f 454 456 457
f 456 454 455
f 458 456 459
f 456 458 457
f 458 460 461
f 460 458 459
f 444 460 447
f 460 444 461
f 462 463 464
f 462 464 465
f 464 466 467
f 466 464 463
f 468 467 466
f 467 468 469
f 470 469 468
f 469 470 471
f 471 472 473
f 472 471 470
f 474 472 475
f 472 474 473
f 475 476 477
f 475 477 474
f 477 476 478
f 476 479 478
f 465 479 462
f 479 465 478
f 465 464 480
f 464 467 480
f 467 469 480
f 469 471 480
f 471 473 480
f 473 474 480
f 474 477 480
f 477 478 480
f 478 465 480
f 481 482 483
f 483 482 484
f 483 485 486
f 485 483 484
f 486 485 487
f 487 485 488
f 487 489 490
f 489 487 488
f 490 491 492
f 491 490 489
f 493 492 491
f 492 493 494
f 494 495 496
f 495 494 493
f 496 495 497
f 497 495 498
f 497 482 481
f 482 497 498
f 499 483 500
f 483 499 481
f 500 483 501
f 501 483 486
f 501 487 502
f 487 501 486
f 502 487 503
f 503 487 490
f 503 490 504
f 504 490 492
f 504 494 505
f 494 504 492
f 505 494 506
f 506 494 496
f 506 497 507
f 497 506 496
f 507 497 499
f 499 497 481
f 508 509 510
f 510 509 511
f 510 512 513
f 512 510 511
f 513 512 514
f 514 512 515
f 514 516 517
f 516 514 515
f 517 518 519
f 518 517 516
f 519 518 520
f 520 518 521
f 520 522 523
f 522 520 521
f 523 522 524
f 524 522 525
f 524 509 508
f 509 524 525
f 429 510 427
f 510 429 508
f 427 510 431
f 431 510 513
f 431 514 432
f 514 431 513
f 432 514 435
f 435 514 517
f 435 517 437
f 437 517 519
f 437 520 438
f 520 437 519
f 520 441 438
f 441 520 523
f 441 524 442
f 524 441 523
f 442 524 429
f 429 524 508
f 526 426 527
f 527 426 428
f 527 430 528
f 430 527 428
f 528 430 529
f 529 430 433
f 529 434 530
f 434 529 433
f 530 436 531
f 436 530 434
f 531 436 532
f 532 436 439
f 532 440 533
f 440 532 439
f 533 440 534
f 534 440 443
f 534 426 526
f 426 534 443
f 447 526 445
f 445 526 527
f 445 528 449
f 528 445 527
f 449 528 450
f 450 528 529
f 450 530 453
f 530 450 529
f 453 531 455
f 531 453 530
f 455 531 456
f 456 531 532
f 456 533 459
f 533 456 532
f 459 533 460
f 460 533 534
f 460 526 447
f 526 460 534
f 535 446 536
f 446 535 444
f 536 446 537
f 537 446 448
f 537 451 538
f 451 537 448
f 538 451 539
f 539 451 452
f 539 452 540
f 540 452 454
f 540 457 541
f 457 540 454
f 457 542 541
f 542 457 458
f 542 461 543
f 461 542 458
f 543 461 535
f 535 461 444
f 544 535 545
f 545 535 536
f 545 537 546
f 537 545 536
f 546 537 547
f 547 537 538
f 547 539 548
f 539 547 538
f 548 539 549
f 549 539 540
f 549 540 550
f 550 540 541
f 550 542 551
f 542 550 541
f 551 542 552
f 552 542 543
f 552 535 544
f 535 552 543
f 544 463 462
f 463 544 545
f 463 546 466
f 546 463 545
f 466 546 468
f 468 546 547
f 468 548 470
f 548 468 547
f 470 549 472
f 549 470 548
f 472 549 475
f 475 549 550
f 475 551 476
f 551 475 550
f 476 551 479
f 479 551 552
f 479 544 462
f 544 479 552
f 509 499 511
f 511 499 500
f 511 501 512
f 501 511 500
f 512 501 515
f 515 501 502
f 515 503 516
f 503 515 502
f 516 504 518
f 504 516 503
f 518 504 521
f 521 504 505
f 521 506 522
f 506 521 505
f 522 506 525
f 525 506 507
f 525 499 509
f 499 525 507
f 484 553 554
f 553 484 482
f 488 485 555
f 488 555 556
f 489 488 556
f 489 556 557
f 491 489 557
f 491 557 558
f 482 559 553
f 559 482 498
f 560 561 562
f 562 561 563
f 562 564 565
f 564 562 563
f 565 564 566
f 566 564 567
f 566 568 569
f 568 566 567
f 569 570 571
f 570 569 568
f 571 570 572
f 572 570 573
f 572 574 575
f 574 572 573
f 575 574 576
f 576 574 577
f 576 561 560
f 561 576 577
f 578 579 580
f 580 579 581
f 580 582 583
f 582 580 581
f 583 582 584
f 584 582 585
f 584 586 587
f 586 584 585
f 587 588 589
f 588 587 586
f 589 588 590
f 588 591 590
f 590 592 593
f 592 590 591
f 593 592 594
f 592 595 594
f 594 579 578
f 579 594 595
f 596 597 598
f 599 597 596
f 600 596 601
f 596 600 599
f 602 601 603
f 601 602 600
f 604 603 605
f 603 604 602
f 606 605 607
f 605 606 604
f 606 608 609
f 608 606 607
f 610 609 608
f 611 609 610
f 612 613 611
f 612 611 610
f 613 598 597
f 598 613 612
f 598 614 596
f 596 614 601
f 601 614 603
f 603 614 605
f 605 614 607
f 607 614 608
f 608 614 610
f 610 614 612
f 612 614 598
f 554 553 615
f 553 616 615
f 615 555 554
f 555 615 617
f 556 555 618
f 555 617 618
f 618 557 556
f 557 618 619
f 558 619 620
f 619 558 557
f 620 621 558
f 621 620 622
f 622 623 621
f 623 622 624
f 559 623 625
f 623 624 625
f 625 553 559
f 553 625 616
f 626 615 616
f 615 626 627
f 617 615 628
f 615 627 628
f 628 618 617
f 618 628 629
f 630 619 618
f 618 629 630
f 619 630 631
f 619 631 620
f 631 622 620
f 622 631 632
f 624 622 633
f 622 632 633
f 633 625 624
f 625 633 634
f 616 625 626
f 625 634 626
f 635 636 637
f 636 638 637
f 637 639 635
f 639 637 640
f 641 639 642
f 639 640 642
f 642 643 641
f 643 642 644
f 645 644 646
f 644 645 643
f 647 645 648
f 645 646 648
f 649 648 650
f 648 649 647
f 651 649 652
f 649 650 652
f 652 636 651
f 636 652 638
f 560 637 638
f 637 560 562
f 640 637 565
f 637 562 565
f 565 642 640
f 642 565 566
f 569 644 642
f 642 566 569
f 644 569 571
f 644 571 646
f 571 648 646
f 648 571 572
f 650 648 575
f 648 572 575
f 575 652 650
f 652 575 576
f 638 652 560
f 652 576 560
f 653 563 561
f 561 654 653
f 564 653 655
f 653 564 563
f 656 567 564
f 564 655 656
f 568 656 657
f 656 568 567
f 570 657 658
f 657 570 568
f 659 573 570
f 570 658 659
f 574 659 660
f 659 574 573
f 661 577 574
f 574 660 661
f 561 661 654
f 661 561 577
f 580 653 654
f 654 578 580
f 655 580 583
f 580 655 653
f 584 656 655
f 655 583 584
f 657 584 587
f 584 657 656
f 658 587 589
f 587 658 657
f 590 659 658
f 658 589 590
f 660 590 593
f 590 660 659
f 594 661 660
f 660 593 594
f 654 594 578
f 594 654 661
f 662 581 579
f 581 662 663
f 664 582 581
f 581 663 664
f 664 585 582
f 585 664 665
f 666 586 585
f 585 665 666
f 588 586 667
f 586 666 667
f 667 591 588
f 591 667 668
f 592 591 669
f 591 668 669
f 669 595 592
f 595 669 670
f 579 595 662
f 595 670 662
f 671 663 662
f 662 672 671
f 664 671 673
f 671 664 663
f 674 665 664
f 664 673 674
f 666 674 675
f 674 666 665
f 667 675 676
f 675 667 666
f 677 668 667
f 667 676 677
f 669 677 678
f 677 669 668
f 679 670 669
f 669 678 679
f 662 679 672
f 679 662 670
f 672 599 671
f 599 672 597
f 673 599 600
f 599 673 671
f 674 673 602
f 673 600 602
f 675 602 604
f 602 675 674
f 676 604 606
f 604 676 675
f 609 677 676
f 676 606 609
f 678 609 611
f 609 678 677
f 679 678 613
f 678 611 613
f 672 613 597
f 613 672 679
f 627 626 635
f 626 636 635
f 628 635 639
f 635 628 627
f 629 628 641
f 628 639 641
f 630 641 643
f 641 630 629
f 631 643 645
f 643 631 630
f 632 631 647
f 631 645 647
f 633 647 649
f 647 633 632
f 634 633 651
f 633 649 651
f 626 651 636
f 651 626 634
f 485 484 555
f 484 554 555
f 493 491 621
f 491 558 621
f 495 493 621
f 495 621 623
f 498 495 559
f 495 623 559
f 680 681 682
f 681 680 683
f 684 681 685
f 681 684 682
f 684 686 687
f 686 684 685
f 688 686 689
f 686 688 687
f 688 690 691
f 690 688 689
f 692 690 693
f 690 692 691
f 692 694 695
f 694 692 693
f 695 696 697
f 696 695 694
f 680 696 683
f 696 680 697
f 698 699 700
f 699 698 701
f 702 699 703
f 699 702 700
f 702 704 705
f 704 702 703
f 706 704 707
f 704 706 705
f 706 708 709
f 708 706 707
f 710 708 711
f 708 710 709
f 710 712 713
f 712 710 711
f 713 714 715
f 714 713 712
f 698 714 701
f 714 698 715
f 716 717 718
f 717 719 718
f 717 716 720
f 716 721 720
f 722 720 721
f 720 722 723
f 724 723 722
f 723 724 725
f 725 724 726
f 724 727 726
f 728 729 727
f 727 729 726
f 730 728 731
f 728 730 729
f 730 732 733
f 732 730 731
f 718 733 732
f 733 718 719
f 717 734 719
f 717 720 734
f 720 723 734
f 723 725 734
f 725 726 734
f 726 729 734
f 729 730 734
f 730 733 734
f 733 719 734
f 735 736 737
f 737 736 738
f 737 739 740
f 739 737 738
f 740 739 741
f 741 739 742
f 741 743 744
f 743 741 742
f 744 743 745
f 745 743 746
f 747 745 746
f 745 747 748
f 748 749 750
f 749 748 747
f 749 751 750
f 751 749 752
f 751 736 735
f 736 751 752
f 753 737 754
f 737 753 735
f 754 737 755
f 755 737 740
f 755 741 756
f 741 755 740
f 756 741 757
f 757 741 744
f 757 745 758
f 745 757 744
f 758 745 759
f 759 745 748
f 748 760 759
f 760 748 750
f 760 751 761
f 751 760 750
f 751 753 761
f 753 751 735
f 762 763 764
f 764 763 765
f 764 766 767
f 766 764 765
f 767 766 768
f 768 766 769
f 768 770 771
f 770 768 769
f 771 770 772
f 772 770 773
f 772 774 775
f 774 772 773
f 775 774 776
f 776 774 777
f 776 777 778
f 778 777 779
f 778 763 762
f 763 778 779
f 683 764 681
f 764 683 762
f 681 764 685
f 685 764 767
f 685 768 686
f 768 685 767
f 686 768 689
f 689 768 771
f 689 772 690
f 772 689 771
f 690 772 693
f 693 772 775
f 693 776 694
f 776 693 775
f 694 778 696
f 778 694 776
f 696 778 683
f 683 778 762
f 780 680 781
f 781 680 682
f 781 684 782
f 684 781 682
f 782 684 783
f 783 684 687
f 783 688 784
f 688 783 687
f 784 688 785
f 785 688 691
f 785 692 786
f 692 785 691
f 786 692 787
f 787 692 695
f 787 695 788
f 788 695 697
f 788 680 780
f 680 788 697
f 701 780 699
f 699 780 781
f 699 782 703
f 782 699 781
f 703 782 704
f 704 782 783
f 704 784 707
f 784 704 783
f 707 784 708
f 708 784 785
f 708 786 711
f 786 708 785
f 711 787 712
f 787 711 786
f 712 787 714
f 714 787 788
f 714 780 701
f 780 714 788
f 789 700 790
f 700 789 698
f 790 700 791
f 791 700 702
f 791 705 792
f 705 791 702
f 792 705 793
f 793 705 706
f 793 709 794
f 709 793 706
f 794 709 795
f 795 709 710
f 795 710 796
f 796 710 713
f 796 715 797
f 715 796 713
f 797 715 789
f 789 715 698
f 798 789 799
f 799 789 790
f 799 791 800
f 791 799 790
f 800 791 801
f 801 791 792
f 801 793 802
f 793 801 792
f 802 793 803
f 803 793 794
f 803 795 804
f 795 803 794
f 804 795 805
f 805 795 796
f 805 796 806
f 806 796 797
f 718 798 716
f 716 798 799
f 716 800 721
f 800 716 799
f 721 800 722
f 722 800 801
f 722 802 724
f 802 722 801
f 724 802 727
f 727 802 803
f 727 804 728
f 804 727 803
f 728 804 731
f 731 804 805
f 731 805 732
f 732 805 806
f 732 798 718
f 798 732 806
f 763 753 765
f 765 753 754
f 765 755 766
f 755 765 754
f 766 755 769
f 769 755 756
f 769 757 770
f 757 769 756
f 770 757 773
f 773 757 758
f 773 759 774
f 759 773 758
f 774 759 777
f 777 759 760
f 777 760 779
f 779 760 761
f 779 753 763
f 753 779 761
f 738 736 807
f 736 808 807
f 743 742 809
f 743 809 810
f 747 746 811
f 747 811 812
f 749 747 812
f 749 812 813
f 814 815 816
f 816 815 817
f 816 818 819
f 818 816 817
f 819 818 820
f 820 818 821
f 820 822 823
f 822 820 821
f 823 822 824
f 824 822 825
f 824 826 827
f 826 824 825
f 827 826 828
f 828 826 829
f 828 829 830
f 830 829 831
f 830 815 814
f 815 830 831
f 832 833 834
f 833 835 834
f 834 836 837
f 836 834 835
f 837 836 838
f 838 836 839
f 838 840 841
f 840 838 839
f 841 840 842
f 842 840 843
f 842 844 845
f 844 842 843
f 845 844 846
f 846 844 847
f 846 847 848
f 847 849 848
f 848 833 832
f 833 848 849
f 850 851 852
f 851 850 853
f 854 855 853
f 853 850 854
f 856 854 857
f 854 856 855
f 857 858 856
f 858 857 859
f 860 861 858
f 858 859 860
f 861 862 863
f 862 861 860
f 864 863 862
f 863 864 865
f 866 864 867
f 864 866 865
f 851 867 852
f 867 851 866
f 852 868 850
f 850 868 854
f 854 868 857
f 857 868 859
f 859 868 860
f 860 868 862
f 862 868 864
f 864 868 867
f 867 868 852
f 807 808 869
f 808 870 869
f 869 871 807
f 871 869 872
f 809 871 873
f 871 872 873
f 873 810 809
f 810 873 874
f 811 810 875
f 810 874 875
f 812 875 876
f 875 812 811
f 813 876 877
f 876 813 812
f 878 813 879
f 813 877 879
f 879 808 878
f 808 879 870
f 880 869 870
f 869 880 881
f 872 869 882
f 869 881 882
f 882 873 872
f 873 882 883
f 874 873 884
f 873 883 884
f 884 875 874
f 875 884 885
f 886 876 875
f 875 885 886
f 876 886 887
f 876 887 877
f 887 879 877
f 879 887 888
f 870 879 880
f 879 888 880
f 889 890 891
f 890 892 891
f 891 893 889
f 893 891 894
f 895 893 896
f 893 894 896
f 896 897 895
f 897 896 898
f 899 897 900
f 897 898 900
f 900 901 899
f 901 900 902
f 903 901 904
f 901 902 904
f 905 903 906
f 903 904 906
f 890 906 892
f 906 890 905
f 814 891 892
f 891 814 816
f 894 891 819
f 891 816 819
f 819 896 894
f 896 819 820
f 898 896 823
f 896 820 823
f 823 900 898
f 900 823 824
f 827 902 900
f 900 824 827
f 827 904 902
f 904 827 828
f 828 906 904
f 906 828 830
f 892 906 814
f 906 830 814
f 907 817 815
f 815 908 907
f 818 907 909
f 907 818 817
f 910 821 818
f 818 909 910
f 822 910 911
f 910 822 821
f 912 825 822
f 822 911 912
f 826 912 913
f 912 826 825
f 914 829 826
f 826 913 914
f 915 831 829
f 829 914 915
f 815 915 908
f 915 815 831
f 834 907 908
f 908 832 834
f 909 834 837
f 834 909 907
f 838 910 909
f 909 837 838
f 911 838 841
f 838 911 910
f 842 912 911
f 911 841 842
f 913 842 845
f 842 913 912
f 914 845 846
f 845 914 913
f 848 915 914
f 914 846 848
f 908 848 832
f 848 908 915
f 916 835 833
f 835 916 917
f 836 835 918
f 835 917 918
f 918 839 836
f 839 918 919
f 920 840 839
f 839 919 920
f 920 843 840
f 843 920 921
f 922 844 843
f 843 921 922
f 847 844 923
f 844 922 923
f 923 849 847
f 849 923 924
f 833 849 916
f 849 924 916
f 925 917 916
f 916 926 925
f 918 925 927
f 925 918 917
f 928 919 918
f 918 927 928
f 920 928 929
f 928 920 919
f 930 921 920
f 920 929 930
f 922 930 931
f 930 922 921
f 932 923 922
f 922 931 932
f 933 924 923
f 923 932 933
f 916 933 926
f 933 916 924
f 925 926 853
f 926 851 853
f 927 853 855
f 853 927 925
f 928 927 856
f 927 855 856
f 929 856 858
f 856 929 928
f 930 929 861
f 929 858 861
f 931 861 863
f 861 931 930
f 932 931 865
f 931 863 865
f 866 933 932
f 932 865 866
f 926 866 851
f 866 926 933
f 881 880 889
f 880 890 889
f 882 889 893
f 889 882 881
f 883 882 895
f 882 893 895
f 884 895 897
f 895 884 883
f 885 884 899
f 884 897 899
f 886 899 901
f 899 886 885
f 887 886 903
f 886 901 903
f 888 887 905
f 887 903 905
f 880 905 890
f 905 880 888
f 739 738 807
f 739 807 871
f 742 739 809
f 739 871 809
f 746 743 811
f 743 810 811
f 752 749 878
f 749 813 878
f 736 752 808
f 752 878 808
f 934 935 936
f 935 934 937
f 934 938 939
f 938 934 936
f 940 938 941
f 938 940 939
f 940 942 943
f 942 940 941
f 943 944 945
f 944 943 942
f 946 944 947
f 944 946 945
f 946 948 949
f 948 946 947
f 950 948 951
f 948 950 949
f 950 935 937
f 935 950 951
f 952 953 954
f 953 952 955
f 952 956 957
f 956 952 954
f 958 956 959
f 956 958 957
f 958 960 961
f 960 958 959
f 961 962 963
f 962 961 960
f 964 962 965
f 962 964 963
f 964 966 967
f 966 964 965
f 968 966 969
f 966 968 967
f 968 953 955
f 953 968 969
f 970 971 972
f 971 970 973
f 973 970 974
f 970 975 974
f 976 977 975
f 975 977 974
f 978 976 979
f 976 978 977
f 978 980 981
f 980 978 979
f 982 981 980
f 981 982 983
f 984 982 985
f 982 984 983
f 984 985 986
f 985 987 986
f 972 971 987
f 987 971 986
f 973 988 971
f 973 974 988
f 974 977 988
f 977 978 988
f 978 981 988
f 981 983 988
f 983 984 988
f 984 986 988
f 986 971 988
f 989 990 991
f 990 989 992
f 991 990 993
f 993 990 994
f 994 995 996
f 994 996 993
f 997 996 995
f 997 995 998
f 998 999 997
f 999 998 1000
f 999 1001 1002
f 1001 999 1000
f 1002 1001 1003
f 1003 1001 1004
f 1003 1005 1006
f 1005 1003 1004
f 1006 1005 989
f 989 1005 992
f 1007 989 1008
f 1008 989 991
f 1008 993 1009
f 993 1008 991
f 1009 993 1010
f 1010 993 996
f 1010 997 1011
f 997 1010 996
f 1011 999 1012
f 999 1011 997
f 999 1013 1012
f 1013 999 1002
f 1013 1003 1014
f 1003 1013 1002
f 1014 1003 1015
f 1015 1003 1006
f 1015 989 1007
f 989 1015 1006
f 1016 1017 1018
f 1017 1016 1019
f 1018 1017 1020
f 1020 1017 1021
f 1020 1022 1023
f 1022 1020 1021
f 1023 1022 1024
f 1024 1022 1025
f 1024 1025 1026
f 1026 1025 1027
f 1026 1028 1029
f 1028 1026 1027
f 1029 1028 1030
f 1030 1028 1031
f 1030 1032 1033
f 1032 1030 1031
f 1033 1032 1016
f 1016 1032 1019
f 935 1016 936
f 936 1016 1018
f 936 1020 938
f 1020 936 1018
f 938 1020 941
f 941 1020 1023
f 941 1024 942
f 1024 941 1023
f 942 1026 944
f 1026 942 1024
f 944 1026 947
f 947 1026 1029
f 947 1030 948
f 1030 947 1029
f 948 1030 951
f 951 1030 1033
f 951 1016 935
f 1016 951 1033
f 1034 934 1035
f 1035 934 939
f 1035 940 1036
f 940 1035 939
f 1036 940 1037
f 1037 940 943
f 1037 943 1038
f 1038 943 945
f 1038 946 1039
f 946 1038 945
f 1039 946 1040
f 1040 946 949
f 1040 950 1041
f 950 1040 949
f 1041 950 1042
f 1042 950 937
f 953 1034 954
f 1034 953 1042
f 954 1034 956
f 956 1034 1035
f 956 1036 959
f 1036 956 1035
f 959 1037 960
f 1037 959 1036
f 960 1037 962
f 962 1037 1038
f 962 1039 965
f 1039 962 1038
f 965 1039 966
f 966 1039 1040
f 966 1041 969
f 1041 966 1040
f 969 1041 953
f 953 1041 1042
f 1043 955 1044
f 1044 955 952
f 1044 957 1045
f 957 1044 952
f 1045 957 1046
f 1046 957 958
f 958 1047 1046
f 1047 958 961
f 1047 963 1048
f 963 1047 961
f 963 1049 1048
f 1049 963 964
f 1049 967 1050
f 967 1049 964
f 1050 967 1051
f 1051 967 968
f 1051 955 1043
f 955 1051 968
f 1052 1044 1053
f 1044 1052 1043
f 1053 1044 1054
f 1054 1044 1045
f 1054 1046 1055
f 1046 1054 1045
f 1046 1056 1055
f 1056 1046 1047
f 1056 1047 1057
f 1057 1047 1048
f 1057 1049 1058
f 1049 1057 1048
f 1058 1049 1059
f 1059 1049 1050
f 1059 1051 1060
f 1051 1059 1050
f 1060 1051 1052
f 1052 1051 1043
f 972 1053 970
f 1053 972 1052
f 970 1053 975
f 975 1053 1054
f 975 1055 976
f 1055 975 1054
f 976 1055 979
f 979 1055 1056
f 979 1056 980
f 980 1056 1057
f 980 1058 982
f 1058 980 1057
f 982 1058 985
f 985 1058 1059
f 985 1060 987
f 1060 985 1059
f 987 1060 972
f 972 1060 1052
f 1019 1008 1017
f 1008 1019 1007
f 1017 1008 1021
f 1021 1008 1009
f 1021 1010 1022
f 1010 1021 1009
f 1010 1025 1022
f 1025 1010 1011
f 1025 1011 1027
f 1027 1011 1012
f 1027 1013 1028
f 1013 1027 1012
f 1028 1013 1031
f 1031 1013 1014
f 1031 1015 1032
f 1015 1031 1014
f 1032 1015 1019
f 1019 1015 1007
f 990 992 1061
f 992 1062 1061
f 998 995 1063
f 998 1063 1064
f 1001 1000 1065
f 1001 1065 1066
f 1004 1001 1066
f 1004 1066 1067
f 1068 1069 1070
f 1069 1068 1071
f 1070 1069 1072
f 1072 1069 1073
f 1072 1074 1075
f 1074 1072 1073
f 1075 1074 1076
f 1076 1074 1077
f 1076 1077 1078
f 1078 1077 1079
f 1078 1080 1081
f 1080 1078 1079
f 1081 1080 1082
f 1082 1080 1083
f 1082 1084 1085
f 1084 1082 1083
f 1085 1084 1068
f 1068 1084 1071
f 1086 1087 1088
f 1087 1086 1089
f 1088 1087 1090
f 1090 1087 1091
f 1090 1092 1093
f 1092 1090 1091
f 1093 1092 1094
f 1094 1092 1095
f 1094 1095 1096
f 1095 1097 1096
f 1096 1098 1099
f 1098 1096 1097
f 1099 1098 1100
f 1098 1101 1100
f 1100 1102 1103
f 1102 1100 1101
f 1103 1102 1086
f 1086 1102 1089
f 1104 1105 1106
f 1105 1104 1107
f 1108 1109 1105
f 1105 1107 1108
f 1109 1110 1111
f 1110 1109 1108
f 1112 1111 1110
f 1111 1112 1113
f 1114 1112 1115
f 1112 1114 1113
f 1116 1115 1117
f 1115 1116 1114
f 1118 1116 1117
f 1116 1118 1119
f 1120 1121 1119
f 1119 1118 1120
f 1121 1104 1106
f 1104 1121 1120
f 1104 1122 1107
f 1107 1122 1108
f 1108 1122 1110
f 1110 1122 1112
f 1112 1122 1115
f 1115 1122 1117
f 1117 1122 1118
f 1118 1122 1120
f 1120 1122 1104
f 1123 1061 1062
f 1061 1123 1124
f 1125 1061 1126
f 1061 1124 1126
f 1125 1127 1063
f 1127 1125 1126
f 1064 1063 1128
f 1063 1127 1128
f 1065 1064 1129
f 1064 1128 1129
f 1129 1066 1065
f 1066 1129 1130
f 1067 1066 1131
f 1066 1130 1131
f 1131 1132 1067
f 1132 1131 1133
f 1062 1132 1123
f 1132 1133 1123
f 1124 1123 1134
f 1123 1135 1134
f 1134 1126 1124
f 1126 1134 1136
f 1137 1127 1126
f 1126 1136 1137
f 1137 1128 1127
f 1128 1137 1138
f 1138 1129 1128
f 1129 1138 1139
f 1130 1129 1140
f 1129 1139 1140
f 1140 1131 1130
f 1131 1140 1141
f 1133 1131 1142
f 1131 1141 1142
f 1142 1123 1133
f 1123 1142 1135
f 1143 1144 1145
f 1144 1143 1146
f 1147 1144 1148
f 1144 1146 1148
f 1148 1149 1147
f 1149 1148 1150
f 1151 1149 1152
f 1149 1150 1152
f 1153 1151 1154
f 1151 1152 1154
f 1155 1154 1156
f 1154 1155 1153
f 1157 1155 1158
f 1155 1156 1158
f 1158 1159 1157
f 1159 1158 1160
f 1145 1159 1143
f 1159 1160 1143
f 1146 1143 1070
f 1143 1068 1070
f 1070 1148 1146
f 1148 1070 1072
f 1075 1150 1148
f 1148 1072 1075
f 1075 1152 1150
f 1152 1075 1076
f 1076 1154 1152
f 1154 1076 1078
f 1156 1154 1081
f 1154 1078 1081
f 1081 1158 1156
f 1158 1081 1082
f 1160 1158 1085
f 1158 1082 1085
f 1085 1143 1160
f 1143 1085 1068
f 1069 1161 1162
f 1161 1069 1071
f 1163 1073 1069
f 1069 1162 1163
f 1074 1163 1164
f 1163 1074 1073
f 1165 1077 1074
f 1074 1164 1165
f 1166 1079 1077
f 1077 1165 1166
f 1080 1166 1167
f 1166 1080 1079
f 1168 1083 1080
f 1080 1167 1168
f 1084 1168 1169
f 1168 1084 1083
f 1161 1071 1084
f 1084 1169 1161
f 1162 1086 1088
f 1086 1162 1161
f 1090 1163 1162
f 1162 1088 1090
f 1164 1090 1093
f 1090 1164 1163
f 1165 1093 1094
f 1093 1165 1164
f 1096 1166 1165
f 1165 1094 1096
f 1167 1096 1099
f 1096 1167 1166
f 1100 1168 1167
f 1167 1099 1100
f 1169 1100 1103
f 1100 1169 1168
f 1086 1161 1169
f 1169 1103 1086
f 1170 1087 1089
f 1089 1171 1170
f 1170 1091 1087
f 1091 1170 1172
f 1173 1092 1091
f 1091 1172 1173
f 1095 1173 1174
f 1173 1095 1092
f 1174 1097 1095
f 1097 1174 1175
f 1098 1097 1176
f 1097 1175 1176
f 1176 1101 1098
f 1101 1176 1177
f 1102 1101 1178
f 1101 1177 1178
f 1178 1089 1102
f 1089 1178 1171
f 1170 1179 1180
f 1179 1170 1171
f 1181 1172 1170
f 1170 1180 1181
f 1173 1181 1182
f 1181 1173 1172
f 1183 1174 1173
f 1173 1182 1183
f 1184 1175 1174
f 1174 1183 1184
f 1176 1184 1185
f 1184 1176 1175
f 1186 1177 1176
f 1176 1185 1186
f 1178 1186 1187
f 1186 1178 1177
f 1179 1171 1178
f 1178 1187 1179
f 1180 1106 1105
f 1106 1180 1179
f 1181 1180 1109
f 1180 1105 1109
f 1182 1109 1111
f 1109 1182 1181
f 1183 1182 1113
f 1182 1111 1113
f 1114 1184 1183
f 1183 1113 1114
f 1185 1114 1116
f 1114 1185 1184
f 1186 1185 1119
f 1185 1116 1119
f 1187 1119 1121
f 1119 1187 1186
f 1179 1187 1106
f 1187 1121 1106
f 1134 1145 1144
f 1145 1134 1135
f 1136 1134 1147
f 1134 1144 1147
f 1137 1147 1149
f 1147 1137 1136
f 1138 1137 1151
f 1137 1149 1151
f 1139 1138 1153
f 1138 1151 1153
f 1140 1153 1155
f 1153 1140 1139
f 1141 1140 1157
f 1140 1155 1157
f 1142 1157 1159
f 1157 1142 1141
f 1135 1142 1145
f 1142 1159 1145
f 994 990 1061
f 994 1061 1125
f 995 994 1063
f 994 1125 1063
f 1000 998 1065
f 998 1064 1065
f 1005 1004 1132
f 1004 1067 1132
f 992 1005 1062
f 1005 1132 1062
f 327 331 330
f 1042 934 1034
f 934 1042 937
f 806 789 798
f 789 806 797
f 294 344 343
f 344 294 296
f 326 328 297
f 295 297 328
f 296 298 344
f 344 298 346
f 328 299 295
f 299 328 329
f 298 300 346
f 346 300 347
f 329 301 299
f 301 329 330
f 347 302 348
f 302 347 300
f 330 303 301
f 303 330 331
f 302 349 348
f 349 302 305
f 331 332 303
f 304 303 332
f 349 306 350
f 306 349 305
f 332 307 304
f 307 332 333
f 351 306 309
f 306 351 350
f 333 334 307
f 308 307 334
f 351 310 352
f 310 351 309
f 334 311 308
f 311 334 335
f 310 353 352
f 353 310 312
f 335 336 311
f 313 311 336
f 354 312 314
f 312 354 353
f 337 313 336
f 313 337 315
f 354 317 355
f 317 354 314
f 337 316 315
f 316 337 338
f 355 318 356
f 318 355 317
f 338 319 316
f 319 338 339
f 318 357 356
f 357 318 320
f 339 340 319
f 321 319 340
f 358 357 322
f 320 322 357
f 323 340 341
f 340 323 321
f 359 358 324
f 322 324 358
f 325 341 342
f 341 325 323
f 359 294 343
f 294 359 324
f 342 297 325
f 297 342 326
f 393 392 361
f 363 361 392
f 409 360 362
f 360 409 411
f 409 364 412
f 364 409 362
f 392 365 363
f 365 392 395
f 364 413 412
f 413 364 366
f 395 367 365
f 367 395 396
f 414 366 369
f 366 414 413
f 368 367 397
f 397 367 396
f 414 370 415
f 370 414 369
f 397 398 368
f 371 368 398
f 415 372 416
f 370 372 415
f 398 373 371
f 373 398 399
f 416 374 417
f 374 416 372
f 399 375 373
f 375 399 400
f 374 376 417
f 417 376 418
f 400 377 375
f 377 400 401
f 418 378 419
f 378 418 376
f 401 402 377
f 379 377 402
f 420 419 380
f 378 380 419
f 381 402 403
f 402 381 379
f 421 380 382
f 380 421 420
f 404 381 403
f 381 404 383
f 422 382 384
f 382 422 421
f 405 383 404
f 385 383 405
f 423 384 386
f 384 423 422
f 405 406 385
f 387 385 406
f 386 388 423
f 423 388 424
f 406 389 387
f 389 406 407
f 425 424 390
f 388 390 424
f 391 407 408
f 407 391 389
f 411 390 360
f 390 411 425
f 393 391 408
f 391 393 361
f 1188 1189 1190
f 1189 1188 1191
f 1190 1192 1193
f 1192 1190 1189
f 1193 1194 1195
f 1194 1193 1192
f 1195 1194 1196
f 1194 1197 1196
f 1196 1198 1199
f 1198 1196 1197
f 1199 1200 1201
f 1200 1199 1198
f 1201 1202 1203
f 1202 1201 1200
f 1204 1203 1202
f 1204 1202 1205
f 1206 1204 1205
f 1206 1205 1207
f 1206 1208 1209
f 1208 1206 1207
f 1210 1208 1211
f 1208 1210 1209
f 1211 1212 1213
f 1211 1213 1210
f 1213 1212 1214
f 1212 1215 1214
f 1216 1214 1215
f 1216 1215 1217
f 1216 1218 1219
f 1218 1216 1217
f 1220 1218 1221
f 1218 1220 1219
f 1222 1220 1221
f 1220 1222 1223
f 1188 1223 1222
f 1188 1222 1191
f 1224 1190 1225
f 1190 1224 1188
f 1225 1193 1226
f 1193 1225 1190
f 1226 1195 1227
f 1195 1226 1193
f 1196 1227 1195
f 1227 1196 1228
f 1228 1199 1229
f 1199 1228 1196
f 1201 1229 1199
f 1229 1201 1230
f 1230 1203 1231
f 1203 1230 1201
f 1232 1231 1203
f 1232 1203 1204
f 1233 1232 1204
f 1233 1204 1206
f 1233 1209 1234
f 1209 1233 1206
f 1235 1209 1210
f 1209 1235 1234
f 1210 1213 1236
f 1210 1236 1235
f 1237 1236 1213
f 1237 1213 1214
f 1238 1237 1214
f 1238 1214 1216
f 1239 1238 1216
f 1239 1216 1219
f 1240 1219 1220
f 1219 1240 1239
f 1223 1240 1220
f 1240 1223 1241
f 1224 1241 1223
f 1224 1223 1188
f 1242 1225 1243
f 1225 1242 1224
f 1243 1226 1244
f 1226 1243 1225
f 1244 1226 1245
f 1226 1227 1245
f 1246 1245 1227
f 1246 1227 1228
f 1246 1229 1247
f 1229 1246 1228
f 1247 1230 1248
f 1230 1247 1229
f 1248 1231 1249
f 1231 1248 1230
f 1250 1249 1231
f 1231 1232 1250
f 1251 1250 1232
f 1251 1232 1233
f 1251 1234 1252
f 1234 1251 1233
f 1252 1235 1253
f 1235 1252 1234
f 1253 1235 1254
f 1235 1236 1254
f 1255 1254 1236
f 1255 1236 1237
f 1256 1255 1237
f 1256 1237 1238
f 1256 1239 1257
f 1239 1256 1238
f 1257 1240 1258
f 1240 1257 1239
f 1259 1258 1240
f 1240 1241 1259
f 1242 1259 1241
f 1242 1241 1224
f 1242 1243 1260
f 1243 1244 1260
f 1244 1245 1260
f 1245 1246 1260
f 1246 1247 1260
f 1247 1248 1260
f 1248 1249 1260
f 1249 1250 1260
f 1250 1251 1260
f 1251 1252 1260
f 1252 1253 1260
f 1253 1254 1260
f 1254 1255 1260
f 1255 1256 1260
f 1256 1257 1260
f 1257 1258 1260
f 1258 1259 1260
f 1259 1242 1260
f 1191 1261 1189
f 1261 1191 1262
f 1189 1263 1192
f 1263 1189 1261
f 1192 1264 1194
f 1264 1192 1263
f 1194 1265 1197
f 1265 1194 1264
f 1266 1197 1265
f 1197 1266 1198
f 1267 1198 1266
f 1198 1267 1200
f 1200 1268 1202
f 1268 1200 1267
f 1268 1205 1202
f 1205 1268 1269
f 1205 1269 1207
f 1270 1207 1269
f 1271 1208 1270
f 1208 1207 1270
f 1272 1211 1271
f 1211 1208 1271
f 1212 1272 1273
f 1272 1212 1211
f 1273 1215 1212
f 1215 1273 1274
f 1274 1217 1215
f 1217 1274 1275
f 1217 1275 1218
f 1276 1218 1275
f 1277 1221 1276
f 1221 1218 1276
f 1278 1221 1277
f 1221 1278 1222
f 1222 1262 1191
f 1262 1222 1278
f 1261 1262 1279
f 1263 1261 1279
f 1264 1263 1279
f 1265 1264 1279
f 1266 1265 1279
f 1267 1266 1279
f 1268 1267 1279
f 1269 1268 1279
f 1270 1269 1279
f 1271 1270 1279
f 1272 1271 1279
f 1273 1272 1279
f 1274 1273 1279
f 1275 1274 1279
f 1276 1275 1279
f 1277 1276 1279
f 1278 1277 1279
f 1262 1278 1279
f 1280 1281 1282
f 1283 1284 1285
f 1284 1286 1285
f 1286 1287 1285
f 1287 1288 1285
f 1288 1289 1285
f 1289 1290 1285
f 1290 1291 1285
f 1291 1292 1285
f 1292 1293 1285
f 1293 1294 1285
f 1294 1281 1285
f 1281 1280 1285
f 1280 1295 1285
f 1295 1296 1285
f 1296 1297 1285
f 1297 1298 1285
f 1298 1299 1285
f 1299 1283 1285
f 1293 1292 1282
f 1289 1288 1282
f 1282 1299 1298
f 1298 1300 1282
f 1288 1287 1282
f 1300 1296 1295
f 1286 1284 1282
f 1282 1295 1280
f 1294 1293 1282
f 1282 1287 1286
f 1284 1283 1282
f 1282 1281 1294
f 1291 1290 1282
f 1282 1283 1299
f 1297 1296 1300
f 1282 1292 1291
f 1290 1289 1282
f 1300 1298 1297
f 1301 1302 1303
f 1302 1301 1304
f 1305 1306 1307
f 1306 1305 1308
f 1309 1310 1311
f 1310 1309 1312
f 1313 1314 1315
f 1314 1313 1316
f 57 56 58
f 58 55 57
f 59 60 56
f 56 57 59
f 62 61 60
f 60 59 62
f 63 64 61
f 61 62 63
f 63 65 66
f 66 64 63
f 68 67 66
f 66 65 68
f 68 69 70
f 70 67 68
f 72 71 70
f 70 69 72
f 55 58 71
f 71 72 55
f 212 211 213
f 213 210 212
f 215 212 210
f 210 214 215
f 217 215 214
f 214 216 217
f 219 217 216
f 216 218 219
f 221 219 218
f 218 220 221
f 223 221 220
f 220 222 223
f 225 223 222
f 222 224 225
f 227 225 224
f 224 226 227
f 211 227 226
f 226 213 211
f 1282 1300 1295
f 1303 1302 1304
f 1304 1301 1303
f 1307 1306 1308
f 1308 1305 1307
f 1311 1310 1312
f 1312 1309 1311
f 1315 1314 1316
f 1316 1313 1315