# https://github.com/mikedh/trimesh
v -0.00000620 0.02104766 0.10098382
v -0.00698054 0.02005650 0.10098381
v -0.00676423 0.01975015 0.10897294
v -0.00000620 0.02057305 0.10897294
v -0.00920975 0.01821841 0.10098381
v -0.00892200 0.01785929 0.10897294
v -0.01265763 0.01461478 0.10098381
v -0.01189188 0.01411759 0.10897294
v -0.01403903 0.01106640 0.10098381
v -0.01439605 0.00467543 0.10098381
v -0.01390244 0.00465148 0.10897294
v -0.01356306 0.01106640 0.10897294
v -0.01287923 -0.00118075 0.10098381
v -0.01243489 -0.00108637 0.10897294
v -0.00698055 -0.00400337 0.10098381
v -0.00677393 -0.00394976 0.10897294
v -0.00000620 -0.00498476 0.10098381
v -0.00000620 -0.00493639 0.10897294
v -0.00000620 0.01928378 0.11584507
v -0.00498090 0.01905500 0.11521547
v -0.01172330 0.01108200 0.11510100
v -0.00997305 0.01368936 0.11510100
v -0.01202378 0.00460655 0.11510100
v -0.01075460 -0.00085931 0.11510100
v -0.00585950 -0.00358019 0.11510100
v -0.00000620 -0.00456745 0.11510100
v -0.00069991 0.01366262 0.12149381
v -0.00090275 0.01682540 0.11878887
v -0.00277557 0.01687305 0.11834583
v -0.00353304 0.01376188 0.12043665
v -0.00801369 0.01226421 0.11960800
v -0.00544166 0.01065185 0.12560183
v -0.00294935 0.01161046 0.12617251
v -0.00410576 0.01341726 0.12073664
v -0.01001231 0.01036254 0.11942590
v -0.01026777 0.00431317 0.11942590
v -0.00948640 -0.00061244 0.11942590
v -0.00495687 -0.00291851 0.11942590
v -0.00000620 -0.00373026 0.11942590
v -0.00000620 0.00807775 0.13413457
v -0.00126654 0.00784845 0.13413457
v -0.00000620 0.00500364 0.13553618
v -0.00236283 0.00718955 0.13413457
v -0.00312202 0.00618373 0.13413457
v -0.00324229 0.00434951 0.13413457
v -0.00235584 0.00272216 0.13413457
v -0.00126064 0.00205244 0.13413457
v -0.00000620 0.00181665 0.13413457
v -0.00271457 -0.00058352 0.12981426
v -0.00378945 -0.00193041 0.12540631
v -0.00000620 -0.00254601 0.12544726
v -0.00000620 -0.00105870 0.12983038
v -0.00510532 0.00080458 0.12976790
v -0.00720000 -0.00012883 0.12527131
v -0.00616059 0.00404728 0.12979324
v -0.00813013 0.00401265 0.12534250
v -0.00600813 0.00775658 0.12976872
v -0.00792875 0.00885743 0.12526159
v -0.00422615 0.00927982 0.13009389
v -0.00229452 0.01020655 0.13033153
v -0.00927108 0.01396186 0.11552552
v -0.00793000 0.01298642 0.11861031
v -0.00677240 0.01627018 0.11648976
v -0.00762226 0.01643544 0.11555042
v -0.00600189 0.01636473 0.11705214
v -0.00715950 0.01308098 0.11917269
v -0.00448474 0.01387017 0.11994518
v -0.00380457 0.01666389 0.11806771
v -0.00756406 0.01730336 0.11513738
v -0.00632238 0.01706190 0.11650980
v -0.00311200 0.01749898 0.11799359
v -0.00000620 0.01743647 0.11857484
v -0.00000620 0.01208290 0.12650016
v -0.00000620 0.01328704 0.12212359
v -0.00000620 0.01060361 0.13048147
v -0.00163969 0.00082603 0.13306170
v -0.00000620 0.00047923 0.13306170
v -0.00301064 0.00178489 0.13306170
v -0.00419105 0.00407328 0.13306170
v -0.00408751 0.00664639 0.13306170
v -0.00301064 0.00805912 0.13306170
v -0.00163969 0.00898866 0.13306170
v -0.00000620 0.00931033 0.13306170
v -0.00086260 0.01704010 0.11883097
v -0.00286920 0.01709116 0.11835629
v -0.00368077 0.01375775 0.12059644
v -0.00064528 0.01365141 0.12172911
v -0.00803308 0.01295153 0.11882532
v -0.00679279 0.01646984 0.11655331
v -0.00770336 0.01664691 0.11554687
v -0.00946994 0.01399665 0.11552018
v -0.00734371 0.01304091 0.11932693
v -0.00447790 0.01388648 0.12015460
v -0.00374914 0.01687974 0.11814303
v -0.00610342 0.01655922 0.11705491
v -0.00698054 0.02005650 0.01408348
v -0.00000620 0.02104766 0.01408348
v -0.00920975 0.01821841 0.01408348
v -0.01265763 0.01461478 0.01408348
v -0.01439605 0.00467543 0.01408348
v -0.01403903 0.01106640 0.01408348
v -0.01287923 -0.00118075 0.01408348
v -0.00698055 -0.00400337 0.01408348
v -0.00000620 -0.00498476 0.01408348
v -0.00000620 0.00846159 0.01408345
v -0.03541949 0.00460105 0.01796108
v -0.04520126 0.00460104 0.01796110
v -0.04013420 0.00460104 0.02292792
v -0.03504422 0.00460104 0.02931247
v -0.02266528 0.00588203 0.02927555
v -0.02282847 0.00529304 0.01796109
v -0.00912660 0.00258126 0.09215133
v -0.01231151 0.00258126 0.09215133
v -0.01726671 0.00258126 0.05854107
v -0.00814455 0.00258126 0.05797831
v -0.03541949 0.00258126 0.01796108
v -0.03504422 0.00258126 0.02931247
v -0.04013420 0.00258126 0.02292792
v -0.04520126 0.00258126 0.01796110
v -0.02282847 0.00258126 0.01796109
v -0.02237326 0.00258126 0.04952302
v -0.00800948 0.00258126 0.04967165
v -0.00884829 0.00258126 0.01796109
v -0.01726671 0.00460104 0.05854107
v -0.01231152 0.00460104 0.09215133
v -0.00912660 0.00460104 0.09215133
v -0.00814455 0.00534980 0.05797831
v -0.00855340 0.00683266 0.02910918
v -0.00884829 0.00624366 0.01796109
v -0.02237326 0.00460105 0.04952302
v -0.00800948 0.00624369 0.04967165
v -0.01376046 0.00371641 0.09382558
v -0.01981477 0.00371641 0.05971844
v -0.03689563 0.00371641 0.03157382
v -0.04230041 0.00371641 0.02456738
v -0.05035265 0.00371642 0.01477182
v -0.03541949 0.00371642 0.01477181
v -0.02446831 0.00371641 0.05156343
v -0.02282847 0.00371642 0.01477183
v -0.00738439 0.00371642 0.01477184
v -0.01199505 0.01310163 0.01210379
v -0.01345685 0.01299835 0.00920597
v -0.01181922 0.01238279 0.00860547
v -0.01092237 0.01269843 0.01171044
v -0.01018159 0.01316273 0.00824323
v -0.00984970 0.01320931 0.01147318
v -0.00950326 0.01488129 0.00833146
v -0.00940539 0.01433498 0.01153097
v -0.01018159 0.01653175 0.00881847
v -0.00984970 0.01541606 0.01184997
v -0.01181922 0.01714731 0.00941899
v -0.01092237 0.01581926 0.01224331
v -0.01345685 0.01636737 0.00978122
v -0.01199505 0.01530839 0.01248058
v -0.01413518 0.01464881 0.00969299
v -0.01243936 0.01418271 0.01242279
v -0.01163649 0.01350957 0.00941953
v -0.01242863 0.01380732 0.00970998
v -0.01163649 0.01466191 0.00961627
v -0.01084434 0.01388684 0.00924429
v -0.01051622 0.01471813 0.00928697
v -0.01084433 0.01551649 0.00952257
v -0.01163647 0.01581425 0.00981303
v -0.01242863 0.01543697 0.00998824
v -0.01275676 0.01460567 0.00994558
v -0.01247173 0.01228587 0.00636907
v -0.01442916 0.01302163 0.00708685
v -0.01051430 0.01321812 0.00593611
v -0.00970351 0.01527227 0.00604157
v -0.01051430 0.01724504 0.00662368
v -0.01247173 0.01798081 0.00734146
v -0.01442916 0.01704856 0.00777444
v -0.01523995 0.01499440 0.00766897
v -0.01247173 0.01282583 0.00646127
v -0.01405798 0.01342207 0.00704294
v -0.01088548 0.01358129 0.00611040
v -0.01022844 0.01524593 0.00619586
v -0.01088548 0.01684461 0.00666759
v -0.01247173 0.01744085 0.00724927
v -0.01405798 0.01668538 0.00760014
v -0.01471502 0.01502075 0.00751467
v -0.00675077 0.01405980 0.01022052
v -0.01159350 0.01876420 0.01022052
v -0.00958240 0.02083443 0.01146131
v -0.00473967 0.01613003 0.01146131
v -0.01712897 0.01609218 0.01146131
v -0.01310597 0.02023347 0.01146131
v -0.01561650 0.01462291 0.01022052
v -0.00842891 0.01971389 0.02658009
v -0.01195248 0.01911293 0.02658009
v -0.01278487 0.00784827 0.01146131
v -0.01762760 0.01255268 0.01146131
v -0.01077377 0.00991851 0.01022052
v -0.01597548 0.01497164 0.02658009
v -0.01647411 0.01143214 0.02658009
v -0.00473967 0.01613003 0.02658009
v -0.01044001 0.01764366 0.02946633
v -0.00675077 0.01405980 0.02946633
v -0.01446301 0.01350237 0.02946633
v -0.01077377 0.00991851 0.02946633
v -0.01278487 0.00784827 0.02658009
v -0.00523830 0.01259053 0.02658009
v -0.00523830 0.01259053 0.01146131
v -0.00926130 0.00844924 0.02658009
v -0.00926130 0.00844924 0.01146131
v -0.00123085 0.04350697 0.00417243
v -0.00123084 0.03239126 0.00900613
v -0.00123084 0.03285594 0.02363004
v -0.00123085 0.04278539 0.01023273
v -0.00000620 0.01771655 0.01577492
v -0.00123085 0.01771654 0.04952302
v -0.00000620 0.04488450 0.01058922
v -0.00000620 0.03460707 0.02504496
v -0.00000620 0.04582980 0.00000000
v -0.00000620 0.03238392 0.00677534
v -0.00000620 0.01771656 0.05295789
v -0.00000620 0.01771655 0.01290958
v -0.00519581 -0.02417748 0.17106967
v -0.00000620 -0.02632033 0.17106967
v -0.00000620 -0.01900421 0.17628801
v -0.00000620 -0.01168810 0.17106967
v -0.00519581 -0.01383093 0.17106967
v -0.00733865 -0.01900421 0.17106967
v -0.00818492 -0.02716659 0.16451431
v -0.01075867 -0.02974035 0.15083791
v -0.00000620 -0.03418740 0.15083791
v -0.00000620 -0.03054757 0.16451431
v -0.00000620 -0.00746085 0.16451431
v -0.00000620 -0.00382101 0.15083791
v -0.01075867 -0.00826807 0.15083791
v -0.00818492 -0.01084182 0.16451431
v -0.01520573 -0.01900421 0.15083791
v -0.01156590 -0.01900421 0.16451431
v -0.00000620 -0.03418740 0.03259749
v -0.01075867 -0.02974035 0.03259749
v -0.00918656 -0.02816824 0.02640337
v -0.00000620 -0.03196410 0.02640337
v -0.00539115 -0.02437281 0.02383768
v -0.00000620 -0.02659656 0.02383768
v -0.00761490 -0.01900421 0.02383768
v -0.01298243 -0.01900421 0.02640337
v -0.01520573 -0.01900421 0.03259749
v -0.01075867 -0.00826807 0.03259749
v -0.00000620 -0.00382101 0.03259749
v -0.00000620 -0.00604432 0.02640337
v -0.00918656 -0.00984018 0.02640337
v -0.00000620 -0.01141184 0.02383768
v -0.00539115 -0.01363560 0.02383768
v -0.00000620 -0.01900421 0.02383768
v -0.01114925 -0.03012540 0.14229151
v -0.00000620 -0.03473584 0.14229151
v -0.00000620 -0.03473845 0.14309455
v -0.01114997 -0.03012835 0.14309455
v -0.01574795 -0.01900288 0.14229151
v -0.01574795 -0.01900554 0.14309455
v -0.01114997 -0.00788007 0.14229151
v -0.01114925 -0.00788302 0.14309455
v -0.00000620 -0.00326996 0.14229151
v -0.00000620 -0.00327257 0.14309455
v -0.01114924 -0.03012540 0.11685677
v -0.00000620 -0.03473584 0.11685677
v -0.00000620 -0.03473845 0.11765981
v -0.01114997 -0.03012835 0.11765981
v -0.01574796 -0.01900288 0.11685677
v -0.01574796 -0.01900554 0.11765981
v -0.01114997 -0.00788007 0.11685677
v -0.01114925 -0.00788302 0.11765981
v -0.00000620 -0.00326996 0.11685677
v -0.00000620 -0.00327257 0.11765981
v -0.01075867 -0.02974035 0.11668820
v -0.00000620 -0.03418740 0.11668820
v -0.00000620 -0.00382101 0.11668820
v -0.01075867 -0.00826807 0.11668820
v -0.01520573 -0.01900421 0.11668820
v -0.01075867 -0.02974035 0.14326311
v -0.00000620 -0.03418740 0.14326311
v -0.01520573 -0.01900421 0.14326311
v -0.01075867 -0.00826807 0.14326311
v -0.00000620 -0.00382101 0.14326311
v -0.01075867 -0.02974035 0.14212295
v -0.01075867 -0.02974035 0.11782837
v -0.00000620 -0.03418740 0.11782837
v -0.00000620 -0.03418740 0.14212295
v -0.01520573 -0.01900421 0.14212295
v -0.01520573 -0.01900421 0.11782837
v -0.01075867 -0.00826807 0.14212295
v -0.01075867 -0.00826807 0.11782837
v -0.00000620 -0.00382101 0.14212295
v -0.00000620 -0.00382101 0.11782837
v -0.00996142 -0.00036792 0.01426529
v -0.01142574 -0.00183224 0.00647000
v -0.00718116 -0.00359040 0.00647000
v -0.00718116 -0.00151954 0.01426529
v -0.00293659 -0.00183224 0.00647000
v -0.00440090 -0.00036792 0.01426529
v -0.00117842 0.00241233 0.00647000
v -0.00324928 0.00241233 0.01426529
v -0.00293659 0.00665691 0.00647000
v -0.00440090 0.00519259 0.01426529
v -0.00718116 0.00841507 0.00647000
v -0.00718116 0.00634421 0.01426529
v -0.01142574 0.00665691 0.00647000
v -0.00996142 0.00519259 0.01426529
v -0.01318390 0.00241233 0.00647000
v -0.01111304 0.00241233 0.01426529
v -0.00718116 -0.00174674 0.00735671
v -0.01012207 -0.00052857 0.00735671
v -0.00718116 0.00241233 0.00735671
v -0.00424025 -0.00052857 0.00735671
v -0.00302209 0.00241233 0.00735671
v -0.00424025 0.00535325 0.00735671
v -0.00718116 0.00657141 0.00735671
v -0.01012207 0.00535324 0.00735671
v -0.01134024 0.00241233 0.00735671
v -0.00718116 -0.00476263 0.00079847
v -0.01225462 -0.00266113 0.00079847
v -0.00210770 -0.00266113 0.00079847
v -0.00000620 0.00241233 0.00079847
v -0.00210770 0.00748579 0.00079847
v -0.00718116 0.00958729 0.00079847
v -0.01225463 0.00748580 0.00079847
v -0.01435612 0.00241233 0.00079847
v -0.00718116 -0.00378302 0.00079847
v -0.01156194 -0.00196844 0.00079847
v -0.00280039 -0.00196844 0.00079847
v -0.00098581 0.00241233 0.00079847
v -0.00280039 0.00679310 0.00079847
v -0.00718116 0.00860768 0.00079847
v -0.01156194 0.00679311 0.00079847
v -0.01337651 0.00241233 0.00079847
v -0.00280280 0.01153515 0.01426529
v -0.00426712 0.01007083 0.00647000
v -0.00000620 0.00831267 0.00647000
v -0.00000620 0.01038353 0.01426529
v -0.00000620 0.01824728 0.01426529
v -0.00000620 0.02031814 0.00647000
v -0.00426712 0.01855999 0.00647000
v -0.00280280 0.01709567 0.01426529
v -0.00602528 0.01431541 0.00647000
v -0.00395442 0.01431541 0.01426529
v -0.00000620 0.01015633 0.00735671
v -0.00296345 0.01137450 0.00735671
v -0.00000620 0.01431541 0.00735671
v -0.00296345 0.01725632 0.00735671
v -0.00000620 0.01847449 0.00735671
v -0.00418162 0.01431541 0.00735671
v -0.00000620 0.00714045 0.00079847
v -0.00509600 0.00924195 0.00079847
v -0.00509601 0.01938887 0.00079847
v -0.00000620 0.02149037 0.00079847
v -0.00719750 0.01431541 0.00079847
v -0.00000620 0.00812006 0.00079847
v -0.00440331 0.00993464 0.00079847
v -0.00440332 0.01869618 0.00079847
v -0.00000620 0.02051076 0.00079847
v -0.00621789 0.01431541 0.00079847
v -0.02030262 -0.02156723 0.14067625
v -0.02286564 -0.01900422 0.14589460
v -0.02286564 -0.02262887 0.14067625
v -0.02542866 -0.02156723 0.14067625
v -0.02649029 -0.01900422 0.14067625
v -0.02542866 -0.01644120 0.14067625
v -0.02286564 -0.01537956 0.14067625
v -0.02030262 -0.01644120 0.14067625
v -0.01924098 -0.01900422 0.14067625
v -0.02286564 -0.02652650 0.12453414
v -0.01754658 -0.02432327 0.12453414
v -0.02818469 -0.02432327 0.12453414
v -0.03038792 -0.01900422 0.12453414
v -0.02818469 -0.01368516 0.12453414
v -0.02286564 -0.01148194 0.12453414
v -0.01754658 -0.01368516 0.12453414
v -0.01534336 -0.01900422 0.12453414
v -0.01526184 -0.02660801 0.00387179
v -0.01754658 -0.02432327 0.01119609
v -0.02286564 -0.02652650 0.01119609
v -0.02286564 -0.02975760 0.00387179
v -0.01617076 -0.02569910 0.00359849
v -0.02286564 -0.02847220 0.00359849
v -0.01339765 -0.01900422 0.00359849
v -0.01211225 -0.01900422 0.00387179
v -0.01534336 -0.01900422 0.01119609
v -0.02818469 -0.02432327 0.01119609
v -0.03046943 -0.02660801 0.00387179
v -0.02956051 -0.02569910 0.00359849
v -0.03038792 -0.01900422 0.01119609
v -0.03361903 -0.01900422 0.00387179
v -0.03233364 -0.01900422 0.00359849
v -0.02818469 -0.01368516 0.01119609
v -0.03046943 -0.01140043 0.00387179
v -0.02956051 -0.01230933 0.00359849
v -0.02286564 -0.01148194 0.01119609
v -0.02286564 -0.00825083 0.00387179
v -0.02286564 -0.00953622 0.00359849
v -0.01754658 -0.01368516 0.01119609
v -0.01526184 -0.01140042 0.00387179
v -0.01617076 -0.01230933 0.00359849
v -0.02286564 -0.02604362 0.01211253
v -0.01788803 -0.02398182 0.01211253
v -0.01788803 -0.02398182 0.03180392
v -0.02286564 -0.02604362 0.03180392
v -0.02784324 -0.02398182 0.01211253
v -0.02784324 -0.02398182 0.03180392
v -0.02990504 -0.01900422 0.01211253
v -0.02990504 -0.01900422 0.03180392
v -0.02784324 -0.01402661 0.01211253
v -0.02784324 -0.01402661 0.03180392
v -0.02286564 -0.01196482 0.01211253
v -0.02286564 -0.01196482 0.03180392
v -0.01788803 -0.01402661 0.01211253
v -0.01788803 -0.01402661 0.03180392
v -0.01582624 -0.01900422 0.01211253
v -0.01582624 -0.01900422 0.03180392
v -0.02286564 -0.02567140 0.01002044
v -0.02286564 -0.01900422 0.01002044
v -0.01815123 -0.02371863 0.01002044
v -0.02758006 -0.02371863 0.01002044
v -0.02953282 -0.01900423 0.01002044
v -0.02758005 -0.01428981 0.01002044
v -0.02286564 -0.01233703 0.01002044
v -0.01815123 -0.01428980 0.01002044
v -0.01619845 -0.01900422 0.01002044
v -0.02818469 -0.02432327 0.03272035
v -0.02286564 -0.02652650 0.03272035
v -0.01754658 -0.02432327 0.03272035
v -0.01534336 -0.01900422 0.03272035
v -0.01754658 -0.01368516 0.03272035
v -0.02286564 -0.01148194 0.03272035
v -0.02818469 -0.01368516 0.03272035
v -0.03038792 -0.01900422 0.03272035
v 0.00675183 0.01975015 0.10897294
v 0.00696813 0.02005650 0.10098381
v 0.00890959 0.01785929 0.10897294
v 0.00919734 0.01821841 0.10098381
v 0.01187948 0.01411759 0.10897294
v 0.01264523 0.01461478 0.10098381
v 0.01389003 0.00465148 0.10897294
v 0.01438365 0.00467543 0.10098381
v 0.01402663 0.01106640 0.10098381
v 0.01355066 0.01106640 0.10897294
v 0.01242249 -0.00108637 0.10897294
v 0.01286683 -0.00118075 0.10098381
v 0.00676152 -0.00394976 0.10897294
v 0.00696815 -0.00400337 0.10098381
v 0.00496850 0.01905500 0.11521547
v 0.00996064 0.01368936 0.11510100
v 0.01171090 0.01108200 0.11510100
v 0.01201137 0.00460655 0.11510100
v 0.01074219 -0.00085931 0.11510100
v 0.00584710 -0.00358019 0.11510100
v 0.00276317 0.01687305 0.11834583
v 0.00089034 0.01682540 0.11878887
v 0.00068750 0.01366262 0.12149381
v 0.00352063 0.01376188 0.12043665
v 0.00293694 0.01161046 0.12617251
v 0.00542926 0.01065185 0.12560183
v 0.00800128 0.01226421 0.11960800
v 0.00409335 0.01341726 0.12073664
v 0.00999990 0.01036254 0.11942590
v 0.01025537 0.00431317 0.11942590
v 0.00947400 -0.00061244 0.11942590
v 0.00494447 -0.00291851 0.11942590
v 0.00125413 0.00784845 0.13413457
v 0.00235042 0.00718955 0.13413457
v 0.00310961 0.00618373 0.13413457
v 0.00322988 0.00434951 0.13413457
v 0.00234343 0.00272216 0.13413457
v 0.00124823 0.00205244 0.13413457
v 0.00377704 -0.00193041 0.12540631
v 0.00270216 -0.00058352 0.12981426
v 0.00718759 -0.00012883 0.12527131
v 0.00509291 0.00080458 0.12976790
v 0.00811772 0.00401265 0.12534250
v 0.00614819 0.00404728 0.12979324
v 0.00791634 0.00885743 0.12526159
v 0.00599572 0.00775658 0.12976872
v 0.00228211 0.01020655 0.13033153
v 0.00421374 0.00927982 0.13009389
v 0.00675999 0.01627018 0.11648976
v 0.00791760 0.01298642 0.11861031
v 0.00925867 0.01396186 0.11552552
v 0.00760986 0.01643544 0.11555042
v 0.00447233 0.01387017 0.11994518
v 0.00714709 0.01308098 0.11917269
v 0.00598949 0.01636473 0.11705214
v 0.00379216 0.01666389 0.11806771
v 0.00755166 0.01730336 0.11513738
v 0.00630998 0.01706190 0.11650980
v 0.00309959 0.01749898 0.11799359
v 0.00162728 0.00082603 0.13306170
v 0.00299823 0.00178489 0.13306170
v 0.00417865 0.00407328 0.13306170
v 0.00407510 0.00664639 0.13306170
v 0.00299823 0.00805912 0.13306170
v 0.00162728 0.00898866 0.13306170
v 0.00085020 0.01704010 0.11883097
v 0.00285680 0.01709116 0.11835629
v 0.00366837 0.01375775 0.12059644
v 0.00063287 0.01365141 0.12172911
v 0.00802068 0.01295153 0.11882532
v 0.00678038 0.01646984 0.11655331
v 0.00769095 0.01664691 0.11554687
v 0.00945754 0.01399665 0.11552018
v 0.00733131 0.01304091 0.11932693
v 0.00446549 0.01388648 0.12015460
v 0.00373674 0.01687974 0.11814303
v 0.00609101 0.01655922 0.11705491
v 0.00696813 0.02005650 0.01408348
v 0.00919734 0.01821841 0.01408348
v 0.01264523 0.01461478 0.01408348
v 0.01438365 0.00467543 0.01408348
v 0.01402663 0.01106640 0.01408348
v 0.01286683 -0.00118075 0.01408348
v 0.00696815 -0.00400337 0.01408348
v 0.03540708 0.00460105 0.01796108
v 0.03503181 0.00460104 0.02931247
v 0.04012179 0.00460104 0.02292792
v 0.04518885 0.00460104 0.01796110
v 0.02281606 0.00529304 0.01796109
v 0.02265288 0.00588203 0.02927555
v 0.01725431 0.00258126 0.05854107
v 0.01229911 0.00258126 0.09215133
v 0.00911420 0.00258126 0.09215133
v 0.00813214 0.00258126 0.05797831
v 0.03540708 0.00258126 0.01796108
v 0.04518885 0.00258126 0.01796110
v 0.04012179 0.00258126 0.02292792
v 0.03503181 0.00258126 0.02931247
v 0.02236086 0.00258126 0.04952302
v 0.02281606 0.00258126 0.01796109
v 0.00799707 0.00258126 0.04967165
v 0.00883588 0.00258126 0.01796109
v 0.00911420 0.00460104 0.09215133
v 0.01229911 0.00460104 0.09215133
v 0.01725431 0.00460104 0.05854107
v 0.00813214 0.00534980 0.05797831
v 0.00854099 0.00683266 0.02910918
v 0.00883588 0.00624366 0.01796109
v 0.02236086 0.00460105 0.04952302
v 0.00799707 0.00624369 0.04967165
v 0.01374805 0.00371641 0.09382558
v 0.01980236 0.00371641 0.05971844
v 0.03688323 0.00371641 0.03157382
v 0.04228800 0.00371641 0.02456738
v 0.05034024 0.00371641 0.01477182
v 0.03540708 0.00371642 0.01477181
v 0.02445590 0.00371641 0.05156343
v 0.02281606 0.00371642 0.01477183
v 0.00737198 0.00371642 0.01477184
v 0.01180682 0.01238279 0.00860547
v 0.01344444 0.01299835 0.00920597
v 0.01198264 0.01310163 0.01210379
v 0.01090997 0.01269843 0.01171044
v 0.01016918 0.01316273 0.00824323
v 0.00983730 0.01320931 0.01147318
v 0.00949085 0.01488129 0.00833146
v 0.00939298 0.01433498 0.01153097
v 0.01016918 0.01653175 0.00881847
v 0.00983730 0.01541606 0.01184997
v 0.01180682 0.01714731 0.00941899
v 0.01090997 0.01581926 0.01224331
v 0.01344444 0.01636737 0.00978122
v 0.01198264 0.01530839 0.01248058
v 0.01412277 0.01464881 0.00969299
v 0.01242695 0.01418271 0.01242279
v 0.01162408 0.01350957 0.00941953
v 0.01162408 0.01466191 0.00961627
v 0.01241623 0.01380732 0.00970998
v 0.01083193 0.01388684 0.00924429
v 0.01050382 0.01471813 0.00928697
v 0.01083192 0.01551649 0.00952257
v 0.01162407 0.01581425 0.00981303
v 0.01241623 0.01543697 0.00998824
v 0.01274435 0.01460567 0.00994558
v 0.01245932 0.01228587 0.00636907
v 0.01441675 0.01302163 0.00708685
v 0.01050190 0.01321812 0.00593611
v 0.00969110 0.01527227 0.00604157
v 0.01050190 0.01724504 0.00662368
v 0.01245932 0.01798081 0.00734146
v 0.01441675 0.01704856 0.00777444
v 0.01522754 0.01499440 0.00766897
v 0.01245932 0.01282583 0.00646127
v 0.01404557 0.01342207 0.00704294
v 0.01087307 0.01358129 0.00611040
v 0.01021603 0.01524593 0.00619586
v 0.01087307 0.01684461 0.00666759
v 0.01245932 0.01744085 0.00724927
v 0.01404557 0.01668538 0.00760014
v 0.01470262 0.01502075 0.00751467
v 0.00957000 0.02083443 0.01146131
v 0.01158109 0.01876420 0.01022052
v 0.00673836 0.01405980 0.01022052
v 0.00472727 0.01613003 0.01146131
v 0.01309357 0.02023347 0.01146131
v 0.01711657 0.01609218 0.01146131
v 0.01560409 0.01462291 0.01022052
v 0.00841651 0.01971389 0.02658009
v 0.01194008 0.01911293 0.02658009
v 0.01761519 0.01255268 0.01146131
v 0.01277247 0.00784827 0.01146131
v 0.01076136 0.00991851 0.01022052
v 0.01596308 0.01497164 0.02658009
v 0.01646170 0.01143214 0.02658009
v 0.01042761 0.01764366 0.02946633
v 0.00472727 0.01613003 0.02658009
v 0.00673836 0.01405980 0.02946633
v 0.01445061 0.01350237 0.02946633
v 0.01076136 0.00991851 0.02946633
v 0.01277247 0.00784827 0.02658009
v 0.00522590 0.01259053 0.02658009
v 0.00522590 0.01259053 0.01146131
v 0.00924890 0.00844924 0.02658009
v 0.00924890 0.00844924 0.01146131
v 0.00121843 0.03285594 0.02363004
v 0.00121843 0.03239126 0.00900613
v 0.00121844 0.04350697 0.00417243
v 0.00121844 0.04278539 0.01023273
v 0.00121844 0.01771654 0.04952302
v 0.00518341 -0.02417748 0.17106967
v 0.00518341 -0.01383093 0.17106967
v 0.00732625 -0.01900421 0.17106967
v 0.01074627 -0.02974035 0.15083791
v 0.00817251 -0.02716659 0.16451431
v 0.01074627 -0.00826807 0.15083791
v 0.00817251 -0.01084182 0.16451431
v 0.01519333 -0.01900421 0.15083791
v 0.01155349 -0.01900421 0.16451431
v 0.00917415 -0.02816824 0.02640337
v 0.01074627 -0.02974035 0.03259749
v 0.00537874 -0.02437281 0.02383768
v 0.00760249 -0.01900421 0.02383768
v 0.01297002 -0.01900421 0.02640337
v 0.01519333 -0.01900421 0.03259749
v 0.01074627 -0.00826807 0.03259749
v 0.00917416 -0.00984018 0.02640337
v 0.00537874 -0.01363560 0.02383768
v 0.01113684 -0.03012540 0.14229151
v 0.01113757 -0.03012835 0.14309455
v 0.01573555 -0.01900288 0.14229151
v 0.01573555 -0.01900554 0.14309455
v 0.01113757 -0.00788007 0.14229151
v 0.01113684 -0.00788302 0.14309455
v 0.01113684 -0.03012540 0.11685677
v 0.01113757 -0.03012835 0.11765981
v 0.01573555 -0.01900288 0.11685677
v 0.01573555 -0.01900554 0.11765981
v 0.01113757 -0.00788007 0.11685677
v 0.01113684 -0.00788302 0.11765981
v 0.01074627 -0.02974035 0.11668820
v 0.01074627 -0.00826807 0.11668820
v 0.01519333 -0.01900421 0.11668820
v 0.01074627 -0.02974035 0.14326311
v 0.01519333 -0.01900421 0.14326311
v 0.01074627 -0.00826807 0.14326311
v 0.01074627 -0.02974035 0.11782837
v 0.01074627 -0.02974035 0.14212295
v 0.01519333 -0.01900421 0.11782837
v 0.01519333 -0.01900421 0.14212295
v 0.01074627 -0.00826807 0.11782837
v 0.01074627 -0.00826807 0.14212295
v 0.00716876 -0.00359040 0.00647000
v 0.01141333 -0.00183224 0.00647000
v 0.00994901 -0.00036792 0.01426529
v 0.00716876 -0.00151954 0.01426529
v 0.00292418 -0.00183224 0.00647000
v 0.00438850 -0.00036792 0.01426529
v 0.00116602 0.00241233 0.00647000
v 0.00323688 0.00241233 0.01426529
v 0.00292418 0.00665691 0.00647000
v 0.00438850 0.00519259 0.01426529
v 0.00716876 0.00841507 0.00647000
v 0.00716876 0.00634421 0.01426529
v 0.01141333 0.00665691 0.00647000
v 0.00994901 0.00519259 0.01426529
v 0.01317149 0.00241233 0.00647000
v 0.01110063 0.00241233 0.01426529
v 0.00716876 -0.00174674 0.00735671
v 0.00716876 0.00241233 0.00735671
v 0.01010966 -0.00052857 0.00735671
v 0.00422785 -0.00052857 0.00735671
v 0.00300968 0.00241233 0.00735671
v 0.00422785 0.00535325 0.00735671
v 0.00716876 0.00657141 0.00735671
v 0.01010967 0.00535324 0.00735671
v 0.01132783 0.00241233 0.00735671
v 0.00716876 -0.00476263 0.00079847
v 0.01224222 -0.00266113 0.00079847
v 0.00209530 -0.00266113 0.00079847
v 0.00209530 0.00748579 0.00079847
v 0.00716876 0.00958729 0.00079847
v 0.01224222 0.00748580 0.00079847
v 0.01434372 0.00241233 0.00079847
v 0.00716876 -0.00378302 0.00079847
v 0.01154953 -0.00196844 0.00079847
v 0.00278798 -0.00196844 0.00079847
v 0.00097341 0.00241233 0.00079847
v 0.00278798 0.00679310 0.00079847
v 0.00716876 0.00860768 0.00079847
v 0.01154953 0.00679311 0.00079847
v 0.01336411 0.00241233 0.00079847
v 0.00425471 0.01007083 0.00647000
v 0.00279039 0.01153515 0.01426529
v 0.00425472 0.01855999 0.00647000
v 0.00279040 0.01709567 0.01426529
v 0.00601287 0.01431541 0.00647000
v 0.00394201 0.01431541 0.01426529
v 0.00295105 0.01137450 0.00735671
v 0.00295105 0.01725632 0.00735671
v 0.00416921 0.01431541 0.00735671
v 0.00508360 0.00924195 0.00079847
v 0.00508360 0.01938887 0.00079847
v 0.00718509 0.01431541 0.00079847
v 0.00439091 0.00993464 0.00079847
v 0.00439091 0.01869618 0.00079847
v 0.00620549 0.01431541 0.00079847
v 0.02029021 -0.02156723 0.14067625
v 0.02285323 -0.02262887 0.14067625
v 0.02285323 -0.01900422 0.14589460
v 0.02541625 -0.02156723 0.14067625
v 0.02647788 -0.01900422 0.14067625
v 0.02541625 -0.01644120 0.14067625
v 0.02285323 -0.01537956 0.14067625
v 0.02029021 -0.01644120 0.14067625
v 0.01922858 -0.01900422 0.14067625
v 0.01753417 -0.02432327 0.12453414
v 0.02285323 -0.02652650 0.12453414
v 0.02817229 -0.02432327 0.12453414
v 0.03037551 -0.01900422 0.12453414
v 0.02817229 -0.01368516 0.12453414
v 0.02285323 -0.01148194 0.12453414
v 0.01753417 -0.01368516 0.12453414
v 0.01533095 -0.01900422 0.12453414
v 0.02285323 -0.02652650 0.01119609
v 0.01753417 -0.02432327 0.01119609
v 0.01524944 -0.02660801 0.00387179
v 0.02285323 -0.02975760 0.00387179
v 0.01615835 -0.02569910 0.00359849
v 0.02285323 -0.02847220 0.00359849
v 0.01338524 -0.01900422 0.00359849
v 0.01209984 -0.01900422 0.00387179
v 0.01533095 -0.01900422 0.01119609
v 0.02817229 -0.02432327 0.01119609
v 0.03045703 -0.02660801 0.00387179
v 0.02954811 -0.02569910 0.00359849
v 0.03037551 -0.01900422 0.01119609
v 0.03360663 -0.01900422 0.00387179
v 0.03232123 -0.01900422 0.00359849
v 0.02817229 -0.01368516 0.01119609
v 0.03045703 -0.01140043 0.00387179
v 0.02954811 -0.01230933 0.00359849
v 0.02285323 -0.01148194 0.01119609
v 0.02285323 -0.00825083 0.00387179
v 0.02285323 -0.00953622 0.00359849
v 0.01753417 -0.01368516 0.01119609
v 0.01524944 -0.01140042 0.00387179
v 0.01615835 -0.01230933 0.00359849
v 0.01787563 -0.02398182 0.03180392
v 0.01787563 -0.02398182 0.01211253
v 0.02285323 -0.02604362 0.01211253
v 0.02285323 -0.02604362 0.03180392
v 0.02783084 -0.02398182 0.01211253
v 0.02783084 -0.02398182 0.03180392
v 0.02989264 -0.01900422 0.01211253
v 0.02989264 -0.01900422 0.03180392
v 0.02783084 -0.01402661 0.01211253
v 0.02783084 -0.01402661 0.03180392
v 0.02285323 -0.01196482 0.01211253
v 0.02285323 -0.01196482 0.03180392
v 0.01787563 -0.01402661 0.01211253
v 0.01787563 -0.01402661 0.03180392
v 0.01581383 -0.01900422 0.01211253
v 0.01581383 -0.01900422 0.03180392
v 0.02285324 -0.02567140 0.01002044
v 0.01813882 -0.02371863 0.01002044
v 0.02285323 -0.01900422 0.01002044
v 0.02756765 -0.02371863 0.01002044
v 0.02952042 -0.01900423 0.01002044
v 0.02756765 -0.01428981 0.01002044
v 0.02285324 -0.01233703 0.01002044
v 0.01813882 -0.01428980 0.01002044
v 0.01618604 -0.01900422 0.01002044
v 0.02285323 -0.02652650 0.03272035
v 0.02817229 -0.02432327 0.03272035
v 0.01753417 -0.02432327 0.03272035
v 0.01533095 -0.01900422 0.03272035
v 0.01753417 -0.01368516 0.03272035
v 0.02285323 -0.01148194 0.03272035
v 0.02817229 -0.01368516 0.03272035
v 0.03037551 -0.01900422 0.03272035
f 1 2 3
f 1 3 4
f 2 5 6
f 2 6 3
f 7 8 6
f 7 6 5
f 9 10 11
f 9 11 12
f 10 13 14
f 10 14 11
f 13 15 16
f 13 16 14
f 17 18 16
f 17 16 15
f 19 4 3
f 19 3 20
f 21 22 8
f 21 8 12
f 21 12 11
f 21 11 23
f 23 11 14
f 23 14 24
f 24 14 16
f 24 16 25
f 25 16 18
f 25 18 26
f 27 28 29
f 27 29 30
f 31 32 33
f 31 33 34
f 35 21 23
f 35 23 36
f 36 23 24
f 36 24 37
f 37 24 25
f 37 25 38
f 38 25 26
f 38 26 39
f 40 41 42
f 41 43 42
f 43 44 42
f 44 45 42
f 45 46 42
f 46 47 42
f 47 48 42
f 49 50 51
f 49 51 52
f 53 54 50
f 53 50 49
f 55 56 54
f 55 54 53
f 57 58 56
f 57 56 55
f 32 59 60
f 32 60 33
f 35 31 22
f 35 22 21
f 61 62 63
f 61 63 64
f 65 66 67
f 65 67 68
f 20 3 6
f 20 6 69
f 69 6 8
f 69 8 22
f 7 9 12
f 7 12 8
f 20 69 70
f 20 70 71
f 19 20 71
f 19 71 72
f 73 74 34
f 73 34 33
f 75 73 33
f 75 33 60
f 59 32 58
f 59 58 57
f 58 35 36
f 58 36 56
f 36 37 54
f 36 54 56
f 37 38 50
f 37 50 54
f 38 39 51
f 38 51 50
f 35 58 32
f 35 32 31
f 76 49 52
f 76 52 77
f 78 53 49
f 78 49 76
f 79 55 53
f 79 53 78
f 80 57 55
f 80 55 79
f 81 59 57
f 81 57 80
f 59 81 82
f 59 82 60
f 83 75 60
f 83 60 82
f 84 72 71
f 84 71 85
f 85 71 34
f 85 34 86
f 86 34 74
f 86 74 87
f 87 74 72
f 87 72 84
f 88 31 70
f 88 70 89
f 89 70 69
f 89 69 90
f 90 69 22
f 90 22 91
f 91 22 31
f 91 31 88
f 92 31 34
f 92 34 93
f 93 34 71
f 93 71 94
f 94 71 70
f 94 70 95
f 95 70 31
f 95 31 92
f 28 84 85
f 28 85 29
f 29 85 86
f 29 86 30
f 30 86 87
f 30 87 27
f 27 87 84
f 27 84 28
f 62 88 89
f 62 89 63
f 63 89 90
f 63 90 64
f 64 90 91
f 64 91 61
f 61 91 88
f 61 88 62
f 66 92 93
f 66 93 67
f 67 93 94
f 67 94 68
f 68 94 95
f 68 95 65
f 65 95 92
f 65 92 66
f 40 83 82
f 40 82 41
f 41 82 81
f 41 81 43
f 43 81 80
f 43 80 44
f 44 80 79
f 44 79 45
f 45 79 78
f 45 78 46
f 46 78 76
f 46 76 47
f 47 76 77
f 47 77 48
f 96 2 1
f 96 1 97
f 98 5 2
f 98 2 96
f 99 7 5
f 99 5 98
f 100 10 9
f 100 9 101
f 102 13 10
f 102 10 100
f 103 15 13
f 103 13 102
f 104 17 15
f 104 15 103
f 101 9 7
f 101 7 99
f 96 97 105
f 98 96 105
f 99 98 105
f 100 101 105
f 102 100 105
f 103 102 105
f 104 103 105
f 101 99 105
f 106 107 108
f 106 108 109
f 110 111 106
f 110 106 109
f 112 113 114
f 112 114 115
f 116 117 118
f 116 118 119
f 116 120 121
f 116 121 117
f 122 121 120
f 122 120 123
f 115 114 121
f 115 121 122
f 124 125 126
f 124 126 127
f 111 110 128
f 111 128 129
f 130 124 127
f 130 127 131
f 132 125 124
f 132 124 133
f 133 114 113
f 133 113 132
f 134 109 108
f 134 108 135
f 135 118 117
f 135 117 134
f 135 108 107
f 135 107 136
f 136 119 118
f 136 118 135
f 136 107 106
f 136 106 137
f 137 116 119
f 137 119 136
f 138 130 109
f 138 109 134
f 134 117 121
f 134 121 138
f 137 106 111
f 137 111 139
f 139 120 116
f 139 116 137
f 133 124 130
f 133 130 138
f 138 121 114
f 138 114 133
f 139 111 129
f 139 129 140
f 140 123 120
f 140 120 139
f 110 109 130
f 110 130 131
f 110 131 128
f 141 142 143
f 141 143 144
f 144 143 145
f 144 145 146
f 146 145 147
f 146 147 148
f 148 147 149
f 148 149 150
f 150 149 151
f 150 151 152
f 152 151 153
f 152 153 154
f 154 153 155
f 154 155 156
f 156 155 142
f 156 142 141
f 157 158 159
f 160 157 159
f 161 160 159
f 162 161 159
f 163 162 159
f 164 163 159
f 165 164 159
f 158 165 159
f 166 143 142
f 166 142 167
f 168 145 143
f 168 143 166
f 169 147 145
f 169 145 168
f 170 149 147
f 170 147 169
f 171 151 149
f 171 149 170
f 172 153 151
f 172 151 171
f 173 155 153
f 173 153 172
f 167 142 155
f 167 155 173
f 174 166 167
f 174 167 175
f 176 168 166
f 176 166 174
f 177 169 168
f 177 168 176
f 178 170 169
f 178 169 177
f 179 171 170
f 179 170 178
f 180 172 171
f 180 171 179
f 181 173 172
f 181 172 180
f 175 167 173
f 175 173 181
f 157 174 175
f 157 175 158
f 160 176 174
f 160 174 157
f 161 177 176
f 161 176 160
f 162 178 177
f 162 177 161
f 163 179 178
f 163 178 162
f 164 180 179
f 164 179 163
f 165 181 180
f 165 180 164
f 158 175 181
f 158 181 165
f 182 183 184
f 182 184 185
f 186 187 183
f 186 183 188
f 189 184 187
f 189 187 190
f 191 192 188
f 191 188 193
f 194 186 192
f 194 192 195
f 196 189 197
f 196 197 198
f 199 197 190
f 199 190 194
f 200 199 195
f 200 195 201
f 185 196 202
f 185 202 203
f 204 202 198
f 204 198 200
f 205 204 201
f 205 201 191
f 193 182 203
f 193 203 205
f 190 187 186
f 190 186 194
f 198 197 199
f 198 199 200
f 203 202 204
f 203 204 205
f 183 182 193
f 183 193 188
f 195 192 191
f 195 191 201
f 196 185 184
f 196 184 189
f 183 187 184
f 192 186 188
f 189 190 197
f 199 194 195
f 196 198 202
f 204 200 201
f 185 203 182
f 193 205 191
f 206 207 208
f 206 208 209
f 207 210 211
f 207 211 208
f 212 209 208
f 212 208 213
f 214 206 209
f 214 209 212
f 215 207 206
f 215 206 214
f 213 208 211
f 213 211 216
f 217 210 207
f 217 207 215
f 218 219 220
f 221 222 220
f 222 223 220
f 223 218 220
f 224 225 226
f 224 226 227
f 228 229 230
f 228 230 231
f 231 230 232
f 231 232 233
f 233 232 225
f 233 225 224
f 218 224 227
f 218 227 219
f 221 228 231
f 221 231 222
f 222 231 233
f 222 233 223
f 223 233 224
f 223 224 218
f 234 235 236
f 234 236 237
f 237 236 238
f 237 238 239
f 240 238 236
f 240 236 241
f 241 236 235
f 241 235 242
f 243 244 245
f 243 245 246
f 246 245 247
f 246 247 248
f 242 243 246
f 242 246 241
f 241 246 248
f 241 248 240
f 239 238 249
f 248 247 249
f 240 248 249
f 238 240 249
f 250 251 252
f 250 252 253
f 254 250 253
f 254 253 255
f 256 254 255
f 256 255 257
f 258 256 257
f 258 257 259
f 260 261 262
f 260 262 263
f 264 260 263
f 264 263 265
f 266 264 265
f 266 265 267
f 268 266 267
f 268 267 269
f 270 235 234
f 270 234 271
f 272 244 243
f 272 243 273
f 273 243 242
f 273 242 274
f 274 242 235
f 274 235 270
f 225 275 276
f 225 276 226
f 232 277 275
f 232 275 225
f 230 278 277
f 230 277 232
f 229 279 278
f 229 278 230
f 280 281 282
f 280 282 283
f 284 285 281
f 284 281 280
f 286 287 285
f 286 285 284
f 288 289 287
f 288 287 286
f 252 276 275
f 252 275 253
f 250 280 283
f 250 283 251
f 253 275 277
f 253 277 255
f 254 284 280
f 254 280 250
f 255 277 278
f 255 278 257
f 256 286 284
f 256 284 254
f 257 278 279
f 257 279 259
f 258 288 286
f 258 286 256
f 262 282 281
f 262 281 263
f 260 270 271
f 260 271 261
f 263 281 285
f 263 285 265
f 264 274 270
f 264 270 260
f 265 285 287
f 265 287 267
f 266 273 274
f 266 274 264
f 267 287 289
f 267 289 269
f 268 272 273
f 268 273 266
f 290 291 292
f 290 292 293
f 293 292 294
f 293 294 295
f 295 294 296
f 295 296 297
f 297 296 298
f 297 298 299
f 299 298 300
f 299 300 301
f 301 300 302
f 301 302 303
f 303 302 304
f 303 304 305
f 305 304 291
f 305 291 290
f 306 307 308
f 309 306 308
f 310 309 308
f 311 310 308
f 312 311 308
f 313 312 308
f 314 313 308
f 307 314 308
f 315 292 291
f 315 291 316
f 317 294 292
f 317 292 315
f 318 296 294
f 318 294 317
f 319 298 296
f 319 296 318
f 320 300 298
f 320 298 319
f 321 302 300
f 321 300 320
f 322 304 302
f 322 302 321
f 316 291 304
f 316 304 322
f 323 315 316
f 323 316 324
f 325 317 315
f 325 315 323
f 326 318 317
f 326 317 325
f 327 319 318
f 327 318 326
f 328 320 319
f 328 319 327
f 329 321 320
f 329 320 328
f 330 322 321
f 330 321 329
f 324 316 322
f 324 322 330
f 306 323 324
f 306 324 307
f 309 325 323
f 309 323 306
f 310 326 325
f 310 325 309
f 311 327 326
f 311 326 310
f 312 328 327
f 312 327 311
f 313 329 328
f 313 328 312
f 314 330 329
f 314 329 313
f 307 324 330
f 307 330 314
f 331 332 333
f 331 333 334
f 335 336 337
f 335 337 338
f 338 337 339
f 338 339 340
f 340 339 332
f 340 332 331
f 341 342 343
f 344 345 343
f 346 344 343
f 342 346 343
f 347 333 332
f 347 332 348
f 349 337 336
f 349 336 350
f 351 339 337
f 351 337 349
f 348 332 339
f 348 339 351
f 352 347 348
f 352 348 353
f 354 349 350
f 354 350 355
f 356 351 349
f 356 349 354
f 353 348 351
f 353 351 356
f 341 352 353
f 341 353 342
f 344 354 355
f 344 355 345
f 346 356 354
f 346 354 344
f 342 353 356
f 342 356 346
f 357 358 359
f 359 358 360
f 360 358 361
f 361 358 362
f 362 358 363
f 363 358 364
f 364 358 365
f 365 358 357
f 359 366 367
f 359 367 357
f 360 368 366
f 360 366 359
f 361 369 368
f 361 368 360
f 362 370 369
f 362 369 361
f 363 371 370
f 363 370 362
f 364 372 371
f 364 371 363
f 365 373 372
f 365 372 364
f 357 367 373
f 357 373 365
f 374 375 376
f 374 376 377
f 378 374 377
f 378 377 379
f 374 378 380
f 374 380 381
f 375 374 381
f 375 381 382
f 377 376 383
f 377 383 384
f 379 377 384
f 379 384 385
f 384 383 386
f 384 386 387
f 385 384 387
f 385 387 388
f 387 386 389
f 387 389 390
f 388 387 390
f 388 390 391
f 390 389 392
f 390 392 393
f 391 390 393
f 391 393 394
f 393 392 395
f 393 395 396
f 394 393 396
f 394 396 397
f 396 395 382
f 396 382 381
f 397 396 381
f 397 381 380
f 398 399 400
f 398 400 401
f 402 398 401
f 402 401 403
f 404 402 403
f 404 403 405
f 406 404 405
f 406 405 407
f 408 406 407
f 408 407 409
f 410 408 409
f 410 409 411
f 412 410 411
f 412 411 413
f 399 412 413
f 399 413 400
f 414 415 416
f 417 415 414
f 418 415 417
f 419 415 418
f 420 415 419
f 421 415 420
f 422 415 421
f 416 415 422
f 423 424 366
f 423 366 368
f 424 425 367
f 424 367 366
f 425 426 373
f 425 373 367
f 426 427 372
f 426 372 373
f 427 428 371
f 427 371 372
f 428 429 370
f 428 370 371
f 429 430 369
f 429 369 370
f 430 423 368
f 430 368 369
f 376 375 399
f 376 399 398
f 425 424 401
f 425 401 400
f 383 376 398
f 383 398 402
f 424 423 403
f 424 403 401
f 386 383 402
f 386 402 404
f 423 430 405
f 423 405 403
f 389 386 404
f 389 404 406
f 430 429 407
f 430 407 405
f 392 389 406
f 392 406 408
f 429 428 409
f 429 409 407
f 395 392 408
f 395 408 410
f 428 427 411
f 428 411 409
f 382 395 410
f 382 410 412
f 427 426 413
f 427 413 411
f 375 382 412
f 375 412 399
f 426 425 400
f 426 400 413
f 378 379 414
f 378 414 416
f 379 385 417
f 379 417 414
f 385 388 418
f 385 418 417
f 388 391 419
f 388 419 418
f 391 394 420
f 391 420 419
f 394 397 421
f 394 421 420
f 397 380 422
f 397 422 421
f 380 378 416
f 380 416 422
f 431 432 1
f 431 1 4
f 433 434 432
f 433 432 431
f 433 435 436
f 433 436 434
f 437 438 439
f 437 439 440
f 441 442 438
f 441 438 437
f 443 444 442
f 443 442 441
f 443 18 17
f 443 17 444
f 431 4 19
f 431 19 445
f 435 446 447
f 435 447 440
f 437 440 447
f 437 447 448
f 441 437 448
f 441 448 449
f 443 441 449
f 443 449 450
f 18 443 450
f 18 450 26
f 451 452 453
f 451 453 454
f 455 456 457
f 455 457 458
f 448 447 459
f 448 459 460
f 449 448 460
f 449 460 461
f 450 449 461
f 450 461 462
f 26 450 462
f 26 462 39
f 40 42 463
f 463 42 464
f 464 42 465
f 465 42 466
f 466 42 467
f 467 42 468
f 468 42 48
f 51 469 470
f 51 470 52
f 469 471 472
f 469 472 470
f 471 473 474
f 471 474 472
f 473 475 476
f 473 476 474
f 477 478 456
f 477 456 455
f 446 457 459
f 446 459 447
f 479 480 481
f 479 481 482
f 483 484 485
f 483 485 486
f 433 431 445
f 433 445 487
f 435 433 487
f 435 487 446
f 440 439 436
f 440 436 435
f 488 487 445
f 488 445 489
f 489 445 19
f 489 19 72
f 458 74 73
f 458 73 455
f 455 73 75
f 455 75 477
f 475 456 478
f 475 478 476
f 460 459 475
f 460 475 473
f 471 461 460
f 471 460 473
f 469 462 461
f 469 461 471
f 51 39 462
f 51 462 469
f 456 475 459
f 456 459 457
f 52 470 490
f 52 490 77
f 470 472 491
f 470 491 490
f 472 474 492
f 472 492 491
f 474 476 493
f 474 493 492
f 476 478 494
f 476 494 493
f 495 494 478
f 495 478 477
f 477 75 83
f 477 83 495
f 489 72 496
f 489 496 497
f 458 489 497
f 458 497 498
f 74 458 498
f 74 498 499
f 72 74 499
f 72 499 496
f 488 457 500
f 488 500 501
f 487 488 501
f 487 501 502
f 446 487 502
f 446 502 503
f 457 446 503
f 457 503 500
f 458 457 504
f 458 504 505
f 489 458 505
f 489 505 506
f 488 489 506
f 488 506 507
f 457 488 507
f 457 507 504
f 497 496 452
f 497 452 451
f 498 497 451
f 498 451 454
f 499 498 454
f 499 454 453
f 496 499 453
f 496 453 452
f 501 500 480
f 501 480 479
f 502 501 479
f 502 479 482
f 503 502 482
f 503 482 481
f 500 503 481
f 500 481 480
f 505 504 484
f 505 484 483
f 506 505 483
f 506 483 486
f 507 506 486
f 507 486 485
f 504 507 485
f 504 485 484
f 495 83 40
f 495 40 463
f 494 495 463
f 494 463 464
f 493 494 464
f 493 464 465
f 492 493 465
f 492 465 466
f 491 492 466
f 491 466 467
f 490 491 467
f 490 467 468
f 77 490 468
f 77 468 48
f 1 432 508
f 1 508 97
f 432 434 509
f 432 509 508
f 434 436 510
f 434 510 509
f 439 438 511
f 439 511 512
f 438 442 513
f 438 513 511
f 442 444 514
f 442 514 513
f 444 17 104
f 444 104 514
f 436 439 512
f 436 512 510
f 508 105 97
f 509 105 508
f 510 105 509
f 511 105 512
f 513 105 511
f 514 105 513
f 104 105 514
f 512 105 510
f 515 516 517
f 515 517 518
f 515 519 520
f 515 520 516
f 521 522 523
f 521 523 524
f 525 526 527
f 525 527 528
f 529 530 525
f 529 525 528
f 530 529 531
f 530 531 532
f 529 521 524
f 529 524 531
f 533 534 535
f 533 535 536
f 537 520 519
f 537 519 538
f 536 535 539
f 536 539 540
f 535 534 541
f 535 541 542
f 522 521 542
f 522 542 541
f 517 516 543
f 517 543 544
f 528 527 544
f 528 544 543
f 518 517 544
f 518 544 545
f 527 526 545
f 527 545 544
f 515 518 545
f 515 545 546
f 526 525 546
f 526 546 545
f 516 539 547
f 516 547 543
f 529 528 543
f 529 543 547
f 519 515 546
f 519 546 548
f 525 530 548
f 525 548 546
f 539 535 542
f 539 542 547
f 521 529 547
f 521 547 542
f 538 519 548
f 538 548 549
f 530 532 549
f 530 549 548
f 520 539 516
f 540 539 520
f 540 520 537
f 550 551 552
f 550 552 553
f 554 550 553
f 554 553 555
f 556 554 555
f 556 555 557
f 558 556 557
f 558 557 559
f 560 558 559
f 560 559 561
f 562 560 561
f 562 561 563
f 564 562 563
f 564 563 565
f 551 564 565
f 551 565 552
f 566 567 568
f 569 567 566
f 570 567 569
f 571 567 570
f 572 567 571
f 573 567 572
f 574 567 573
f 568 567 574
f 551 550 575
f 551 575 576
f 550 554 577
f 550 577 575
f 554 556 578
f 554 578 577
f 556 558 579
f 556 579 578
f 558 560 580
f 558 580 579
f 560 562 581
f 560 581 580
f 562 564 582
f 562 582 581
f 564 551 576
f 564 576 582
f 576 575 583
f 576 583 584
f 575 577 585
f 575 585 583
f 577 578 586
f 577 586 585
f 578 579 587
f 578 587 586
f 579 580 588
f 579 588 587
f 580 581 589
f 580 589 588
f 581 582 590
f 581 590 589
f 582 576 584
f 582 584 590
f 584 583 566
f 584 566 568
f 583 585 569
f 583 569 566
f 585 586 570
f 585 570 569
f 586 587 571
f 586 571 570
f 587 588 572
f 587 572 571
f 588 589 573
f 588 573 572
f 589 590 574
f 589 574 573
f 590 584 568
f 590 568 574
f 591 592 593
f 591 593 594
f 592 595 596
f 592 596 597
f 595 591 598
f 595 598 599
f 597 600 601
f 597 601 602
f 600 596 603
f 600 603 604
f 605 598 606
f 605 606 607
f 599 605 608
f 599 608 603
f 604 608 609
f 604 609 610
f 611 606 594
f 611 594 612
f 607 611 613
f 607 613 609
f 610 613 614
f 610 614 601
f 612 593 602
f 612 602 614
f 596 595 599
f 596 599 603
f 608 605 607
f 608 607 609
f 613 611 612
f 613 612 614
f 602 593 592
f 602 592 597
f 601 600 604
f 601 604 610
f 591 594 606
f 591 606 598
f 592 591 595
f 600 597 596
f 598 605 599
f 608 604 603
f 606 611 607
f 613 610 609
f 594 593 612
f 602 601 614
f 615 616 617
f 615 617 618
f 619 210 616
f 619 616 615
f 615 618 212
f 615 212 213
f 618 617 214
f 618 214 212
f 617 616 215
f 617 215 214
f 619 615 213
f 619 213 216
f 616 210 217
f 616 217 215
f 620 220 219
f 221 220 621
f 621 220 622
f 622 220 620
f 226 623 624
f 226 624 227
f 625 229 228
f 625 228 626
f 627 625 626
f 627 626 628
f 623 627 628
f 623 628 624
f 227 624 620
f 227 620 219
f 626 228 221
f 626 221 621
f 628 626 621
f 628 621 622
f 624 628 622
f 624 622 620
f 629 630 234
f 629 234 237
f 631 629 237
f 631 237 239
f 629 631 632
f 629 632 633
f 630 629 633
f 630 633 634
f 245 244 635
f 245 635 636
f 247 245 636
f 247 636 637
f 636 635 634
f 636 634 633
f 637 636 633
f 637 633 632
f 239 249 631
f 637 249 247
f 632 249 637
f 631 249 632
f 252 251 638
f 252 638 639
f 639 638 640
f 639 640 641
f 641 640 642
f 641 642 643
f 643 642 258
f 643 258 259
f 262 261 644
f 262 644 645
f 645 644 646
f 645 646 647
f 647 646 648
f 647 648 649
f 649 648 268
f 649 268 269
f 234 630 650
f 234 650 271
f 635 244 272
f 635 272 651
f 634 635 651
f 634 651 652
f 630 634 652
f 630 652 650
f 276 653 623
f 276 623 226
f 653 654 627
f 653 627 623
f 654 655 625
f 654 625 627
f 655 279 229
f 655 229 625
f 282 656 657
f 282 657 283
f 656 658 659
f 656 659 657
f 658 660 661
f 658 661 659
f 660 289 288
f 660 288 661
f 653 276 252
f 653 252 639
f 283 657 638
f 283 638 251
f 654 653 639
f 654 639 641
f 657 659 640
f 657 640 638
f 655 654 641
f 655 641 643
f 659 661 642
f 659 642 640
f 279 655 643
f 279 643 259
f 661 288 258
f 661 258 642
f 656 282 262
f 656 262 645
f 271 650 644
f 271 644 261
f 658 656 645
f 658 645 647
f 650 652 646
f 650 646 644
f 660 658 647
f 660 647 649
f 652 651 648
f 652 648 646
f 289 660 649
f 289 649 269
f 651 272 268
f 651 268 648
f 662 663 664
f 662 664 665
f 666 662 665
f 666 665 667
f 668 666 667
f 668 667 669
f 670 668 669
f 670 669 671
f 672 670 671
f 672 671 673
f 674 672 673
f 674 673 675
f 676 674 675
f 676 675 677
f 663 676 677
f 663 677 664
f 678 679 680
f 681 679 678
f 682 679 681
f 683 679 682
f 684 679 683
f 685 679 684
f 686 679 685
f 680 679 686
f 663 662 687
f 663 687 688
f 662 666 689
f 662 689 687
f 666 668 318
f 666 318 689
f 668 670 690
f 668 690 318
f 670 672 691
f 670 691 690
f 672 674 692
f 672 692 691
f 674 676 693
f 674 693 692
f 676 663 688
f 676 688 693
f 688 687 694
f 688 694 695
f 687 689 696
f 687 696 694
f 689 318 697
f 689 697 696
f 318 690 698
f 318 698 697
f 690 691 699
f 690 699 698
f 691 692 700
f 691 700 699
f 692 693 701
f 692 701 700
f 693 688 695
f 693 695 701
f 695 694 678
f 695 678 680
f 694 696 681
f 694 681 678
f 696 697 682
f 696 682 681
f 697 698 683
f 697 683 682
f 698 699 684
f 698 684 683
f 699 700 685
f 699 685 684
f 700 701 686
f 700 686 685
f 701 695 680
f 701 680 686
f 333 702 703
f 333 703 334
f 704 336 335
f 704 335 705
f 706 704 705
f 706 705 707
f 702 706 707
f 702 707 703
f 341 343 708
f 709 343 345
f 710 343 709
f 708 343 710
f 702 333 347
f 702 347 711
f 336 704 712
f 336 712 350
f 704 706 713
f 704 713 712
f 706 702 711
f 706 711 713
f 711 347 352
f 711 352 714
f 350 712 715
f 350 715 355
f 712 713 716
f 712 716 715
f 713 711 714
f 713 714 716
f 714 352 341
f 714 341 708
f 355 715 709
f 355 709 345
f 715 716 710
f 715 710 709
f 716 714 708
f 716 708 710
f 717 718 719
f 718 720 719
f 720 721 719
f 721 722 719
f 722 723 719
f 723 724 719
f 724 725 719
f 725 717 719
f 726 727 718
f 726 718 717
f 727 728 720
f 727 720 718
f 728 729 721
f 728 721 720
f 729 730 722
f 729 722 721
f 730 731 723
f 730 723 722
f 731 732 724
f 731 724 723
f 732 733 725
f 732 725 724
f 733 726 717
f 733 717 725
f 734 735 736
f 734 736 737
f 737 736 738
f 737 738 739
f 740 738 736
f 740 736 741
f 741 736 735
f 741 735 742
f 743 734 737
f 743 737 744
f 744 737 739
f 744 739 745
f 746 743 744
f 746 744 747
f 747 744 745
f 747 745 748
f 749 746 747
f 749 747 750
f 750 747 748
f 750 748 751
f 752 749 750
f 752 750 753
f 753 750 751
f 753 751 754
f 755 752 753
f 755 753 756
f 756 753 754
f 756 754 757
f 742 755 756
f 742 756 741
f 741 756 757
f 741 757 740
f 758 759 760
f 758 760 761
f 761 760 762
f 761 762 763
f 763 762 764
f 763 764 765
f 765 764 766
f 765 766 767
f 767 766 768
f 767 768 769
f 769 768 770
f 769 770 771
f 771 770 772
f 771 772 773
f 773 772 759
f 773 759 758
f 774 775 776
f 777 774 776
f 778 777 776
f 779 778 776
f 780 779 776
f 781 780 776
f 782 781 776
f 775 782 776
f 727 783 784
f 727 784 728
f 726 785 783
f 726 783 727
f 733 786 785
f 733 785 726
f 732 787 786
f 732 786 733
f 731 788 787
f 731 787 732
f 730 789 788
f 730 788 731
f 729 790 789
f 729 789 730
f 728 784 790
f 728 790 729
f 759 735 734
f 759 734 760
f 761 783 785
f 761 785 758
f 760 734 743
f 760 743 762
f 763 784 783
f 763 783 761
f 762 743 746
f 762 746 764
f 765 790 784
f 765 784 763
f 764 746 749
f 764 749 766
f 767 789 790
f 767 790 765
f 766 749 752
f 766 752 768
f 769 788 789
f 769 789 767
f 768 752 755
f 768 755 770
f 771 787 788
f 771 788 769
f 770 755 742
f 770 742 772
f 773 786 787
f 773 787 771
f 772 742 735
f 772 735 759
f 758 785 786
f 758 786 773
f 774 739 738
f 774 738 775
f 777 745 739
f 777 739 774
f 778 748 745
f 778 745 777
f 779 751 748
f 779 748 778
f 780 754 751
f 780 751 779
f 781 757 754
f 781 754 780
f 782 740 757
f 782 757 781
f 775 738 740
f 775 740 782
f 4 3 2
f 2 1 4
f 3 6 5
f 5 2 3
f 5 6 8
f 8 7 5
f 12 11 10
f 10 9 12
f 11 14 13
f 13 10 11
f 14 16 15
f 15 13 14
f 15 16 18
f 18 17 15
f 20 3 4
f 4 19 20
f 12 8 22
f 22 21 12
f 23 11 12
f 12 21 23
f 24 14 11
f 11 23 24
f 25 16 14
f 14 24 25
f 26 18 16
f 16 25 26
f 30 29 28
f 28 27 30
f 34 33 32
f 32 31 34
f 36 23 21
f 21 35 36
f 37 24 23
f 23 36 37
f 38 25 24
f 24 37 38
f 39 26 25
f 25 38 39
f 40 42 41
f 41 42 43
f 43 42 44
f 44 42 45
f 45 42 46
f 46 42 47
f 47 42 48
f 52 51 50
f 50 49 52
f 49 50 54
f 54 53 49
f 53 54 56
f 56 55 53
f 55 56 58
f 58 57 55
f 33 60 59
f 59 32 33
f 21 22 31
f 31 35 21
f 64 63 62
f 62 61 64
f 68 67 66
f 66 65 68
f 69 6 3
f 3 20 69
f 22 8 6
f 6 69 22
f 8 12 9
f 9 7 8
f 71 70 69
f 69 20 71
f 72 71 20
f 20 19 72
f 33 34 74
f 74 73 33
f 60 33 73
f 73 75 60
f 57 58 32
f 32 59 57
f 56 36 35
f 35 58 56
f 56 54 37
f 37 36 56
f 54 50 38
f 38 37 54
f 50 51 39
f 39 38 50
f 31 32 58
f 58 35 31
f 77 52 49
f 49 76 77
f 76 49 53
f 53 78 76
f 78 53 55
f 55 79 78
f 79 55 57
f 57 80 79
f 80 57 59
f 59 81 80
f 60 82 81
f 81 59 60
f 82 60 75
f 75 83 82
f 85 71 72
f 72 84 85
f 86 34 71
f 71 85 86
f 87 74 34
f 34 86 87
f 84 72 74
f 74 87 84
f 89 70 31
f 31 88 89
f 90 69 70
f 70 89 90
f 91 22 69
f 69 90 91
f 88 31 22
f 22 91 88
f 93 34 31
f 31 92 93
f 94 71 34
f 34 93 94
f 95 70 71
f 71 94 95
f 92 31 70
f 70 95 92
f 29 85 84
f 84 28 29
f 30 86 85
f 85 29 30
f 27 87 86
f 86 30 27
f 28 84 87
f 87 27 28
f 63 89 88
f 88 62 63
f 64 90 89
f 89 63 64
f 61 91 90
f 90 64 61
f 62 88 91
f 91 61 62
f 67 93 92
f 92 66 67
f 68 94 93
f 93 67 68
f 65 95 94
f 94 68 65
f 66 92 95
f 95 65 66
f 41 82 83
f 83 40 41
f 43 81 82
f 82 41 43
f 44 80 81
f 81 43 44
f 45 79 80
f 80 44 45
f 46 78 79
f 79 45 46
f 47 76 78
f 78 46 47
f 48 77 76
f 76 47 48
f 97 1 2
f 2 96 97
f 96 2 5
f 5 98 96
f 98 5 7
f 7 99 98
f 101 9 10
f 10 100 101
f 100 10 13
f 13 102 100
f 102 13 15
f 15 103 102
f 103 15 17
f 17 104 103
f 99 7 9
f 9 101 99
f 96 105 97
f 99 105 96
f 96 98 99
f 103 105 102
f 104 105 103
f 109 108 107
f 107 106 109
f 109 106 111
f 111 110 109
f 115 114 113
f 113 112 115
f 127 126 125
f 125 124 127
f 129 128 110
f 110 111 129
f 131 127 124
f 124 130 131
f 133 124 125
f 125 132 133
f 132 113 114
f 114 133 132
f 135 108 109
f 109 134 135
f 134 117 118
f 118 135 134
f 136 107 108
f 108 135 136
f 135 118 119
f 119 136 135
f 137 106 107
f 107 136 137
f 136 119 116
f 116 137 136
f 134 109 130
f 130 138 134
f 138 121 117
f 117 134 138
f 139 111 106
f 106 137 139
f 137 116 120
f 120 139 137
f 138 130 124
f 124 133 138
f 133 114 121
f 121 138 133
f 140 129 111
f 111 139 140
f 139 120 123
f 123 140 139
f 110 130 109
f 128 131 130
f 130 110 128
f 144 143 142
f 142 141 144
f 146 145 143
f 143 144 146
f 148 147 145
f 145 146 148
f 150 149 147
f 147 148 150
f 152 151 149
f 149 150 152
f 154 153 151
f 151 152 154
f 156 155 153
f 153 154 156
f 141 142 155
f 155 156 141
f 157 159 158
f 160 159 157
f 161 159 160
f 162 159 161
f 163 159 162
f 164 159 163
f 165 159 164
f 158 159 165
f 167 142 143
f 143 166 167
f 166 143 145
f 145 168 166
f 168 145 147
f 147 169 168
f 169 147 149
f 149 170 169
f 170 149 151
f 151 171 170
f 171 151 153
f 153 172 171
f 172 153 155
f 155 173 172
f 173 155 142
f 142 167 173
f 175 167 166
f 166 174 175
f 174 166 168
f 168 176 174
f 176 168 169
f 169 177 176
f 177 169 170
f 170 178 177
f 178 170 171
f 171 179 178
f 179 171 172
f 172 180 179
f 180 172 173
f 173 181 180
f 181 173 167
f 167 175 181
f 158 175 174
f 174 157 158
f 157 174 176
f 176 160 157
f 160 176 177
f 177 161 160
f 161 177 178
f 178 162 161
f 162 178 179
f 179 163 162
f 163 179 180
f 180 164 163
f 164 180 181
f 181 165 164
f 165 181 175
f 175 158 165
f 185 184 183
f 183 182 185
f 188 183 187
f 187 186 188
f 190 187 184
f 184 189 190
f 193 188 192
f 192 191 193
f 195 192 186
f 186 194 195
f 198 197 189
f 189 196 198
f 194 190 197
f 197 199 194
f 201 195 199
f 199 200 201
f 203 202 196
f 196 185 203
f 200 198 202
f 202 204 200
f 191 201 204
f 204 205 191
f 205 203 182
f 182 193 205
f 194 186 187
f 187 190 194
f 200 199 197
f 197 198 200
f 205 204 202
f 202 203 205
f 188 193 182
f 182 183 188
f 201 191 192
f 192 195 201
f 189 184 185
f 185 196 189
f 183 184 187
f 192 188 186
f 189 197 190
f 199 195 194
f 196 202 198
f 204 201 200
f 185 182 203
f 193 191 205
f 209 208 207
f 207 206 209
f 208 211 210
f 210 207 208
f 213 208 209
f 209 212 213
f 212 209 206
f 206 214 212
f 214 206 207
f 207 215 214
f 216 211 208
f 208 213 216
f 215 207 210
f 210 217 215
f 218 220 219
f 221 220 222
f 222 220 223
f 223 220 218
f 227 226 225
f 225 224 227
f 231 230 229
f 229 228 231
f 233 232 230
f 230 231 233
f 224 225 232
f 232 233 224
f 219 227 224
f 224 218 219
f 222 231 228
f 228 221 222
f 223 233 231
f 231 222 223
f 218 224 233
f 233 223 218
f 237 236 235
f 235 234 237
f 239 238 236
f 236 237 239
f 241 236 238
f 238 240 241
f 242 235 236
f 236 241 242
f 246 245 244
f 244 243 246
f 248 247 245
f 245 246 248
f 241 246 243
f 243 242 241
f 240 248 246
f 246 241 240
f 637 247 248
f 248 249 637
f 240 249 248
f 253 252 251
f 251 250 253
f 255 253 250
f 250 254 255
f 257 255 254
f 254 256 257
f 259 257 256
f 256 258 259
f 263 262 261
f 261 260 263
f 265 263 260
f 260 264 265
f 267 265 264
f 264 266 267
f 269 267 266
f 266 268 269
f 271 234 235
f 235 270 271
f 273 243 244
f 244 272 273
f 274 242 243
f 243 273 274
f 270 235 242
f 242 274 270
f 226 276 275
f 275 225 226
f 225 275 277
f 277 232 225
f 232 277 278
f 278 230 232
f 230 278 279
f 279 229 230
f 283 282 281
f 281 280 283
f 280 281 285
f 285 284 280
f 284 285 287
f 287 286 284
f 286 287 289
f 289 288 286
f 253 275 276
f 276 252 253
f 251 283 280
f 280 250 251
f 255 277 275
f 275 253 255
f 250 280 284
f 284 254 250
f 257 278 277
f 277 255 257
f 254 284 286
f 286 256 254
f 259 279 278
f 278 257 259
f 256 286 288
f 288 258 256
f 263 281 282
f 282 262 263
f 261 271 270
f 270 260 261
f 265 285 281
f 281 263 265
f 260 270 274
f 274 264 260
f 267 287 285
f 285 265 267
f 264 274 273
f 273 266 264
f 269 289 287
f 287 267 269
f 266 273 272
f 272 268 266
f 293 292 291
f 291 290 293
f 295 294 292
f 292 293 295
f 297 296 294
f 294 295 297
f 299 298 296
f 296 297 299
f 301 300 298
f 298 299 301
f 303 302 300
f 300 301 303
f 305 304 302
f 302 303 305
f 290 291 304
f 304 305 290
f 311 312 313
f 313 308 311
f 310 308 309
f 308 313 314
f 311 308 310
f 316 291 292
f 292 315 316
f 315 292 294
f 294 317 315
f 317 294 296
f 296 318 317
f 318 296 298
f 298 319 318
f 319 298 300
f 300 320 319
f 320 300 302
f 302 321 320
f 321 302 304
f 304 322 321
f 322 304 291
f 291 316 322
f 324 316 315
f 315 323 324
f 323 315 317
f 317 325 323
f 325 317 318
f 318 326 325
f 326 318 319
f 319 327 326
f 327 319 320
f 320 328 327
f 328 320 321
f 321 329 328
f 329 321 322
f 322 330 329
f 330 322 316
f 316 324 330
f 307 324 323
f 323 306 307
f 306 323 325
f 325 309 306
f 309 325 326
f 326 310 309
f 310 326 327
f 327 311 310
f 311 327 328
f 328 312 311
f 312 328 329
f 329 313 312
f 313 329 330
f 330 314 313
f 314 330 324
f 324 307 314
f 334 333 332
f 332 331 334
f 338 337 336
f 336 335 338
f 340 339 337
f 337 338 340
f 331 332 339
f 339 340 331
f 348 332 333
f 333 347 348
f 350 336 337
f 337 349 350
f 349 337 339
f 339 351 349
f 351 339 332
f 332 348 351
f 355 350 349
f 349 354 355
f 354 349 351
f 351 356 354
f 356 351 348
f 348 353 356
f 342 353 352
f 352 341 342
f 345 355 354
f 354 344 345
f 344 354 356
f 356 346 344
f 346 356 353
f 353 342 346
f 357 359 358
f 359 360 358
f 360 361 358
f 361 362 358
f 362 363 358
f 363 364 358
f 364 365 358
f 365 357 358
f 357 367 366
f 366 359 357
f 359 366 368
f 368 360 359
f 360 368 369
f 369 361 360
f 361 369 370
f 370 362 361
f 362 370 371
f 371 363 362
f 363 371 372
f 372 364 363
f 364 372 373
f 373 365 364
f 365 373 367
f 367 357 365
f 377 376 375
f 375 374 377
f 379 377 374
f 374 378 379
f 381 380 378
f 378 374 381
f 382 381 374
f 374 375 382
f 384 383 376
f 376 377 384
f 385 384 377
f 377 379 385
f 387 386 383
f 383 384 387
f 388 387 384
f 384 385 388
f 390 389 386
f 386 387 390
f 391 390 387
f 387 388 391
f 393 392 389
f 389 390 393
f 394 393 390
f 390 391 394
f 396 395 392
f 392 393 396
f 397 396 393
f 393 394 397
f 381 382 395
f 395 396 381
f 380 381 396
f 396 397 380
f 401 400 399
f 399 398 401
f 403 401 398
f 398 402 403
f 405 403 402
f 402 404 405
f 407 405 404
f 404 406 407
f 409 407 406
f 406 408 409
f 411 409 408
f 408 410 411
f 413 411 410
f 410 412 413
f 400 413 412
f 412 399 400
f 368 366 424
f 424 423 368
f 366 367 425
f 425 424 366
f 367 373 426
f 426 425 367
f 373 372 427
f 427 426 373
f 372 371 428
f 428 427 372
f 371 370 429
f 429 428 371
f 370 369 430
f 430 429 370
f 369 368 423
f 423 430 369
f 398 399 375
f 375 376 398
f 400 401 424
f 424 425 400
f 402 398 376
f 376 383 402
f 401 403 423
f 423 424 401
f 404 402 383
f 383 386 404
f 403 405 430
f 430 423 403
f 406 404 386
f 386 389 406
f 405 407 429
f 429 430 405
f 408 406 389
f 389 392 408
f 407 409 428
f 428 429 407
f 410 408 392
f 392 395 410
f 409 411 427
f 427 428 409
f 412 410 395
f 395 382 412
f 411 413 426
f 426 427 411
f 399 412 382
f 382 375 399
f 413 400 425
f 425 426 413
f 416 414 379
f 379 378 416
f 414 417 385
f 385 379 414
f 417 418 388
f 388 385 417
f 418 419 391
f 391 388 418
f 419 420 394
f 394 391 419
f 420 421 397
f 397 394 420
f 421 422 380
f 380 397 421
f 422 416 378
f 378 380 422
f 4 1 432
f 432 431 4
f 431 432 434
f 434 433 431
f 434 436 435
f 435 433 434
f 440 439 438
f 438 437 440
f 437 438 442
f 442 441 437
f 441 442 444
f 444 443 441
f 444 17 18
f 18 443 444
f 445 19 4
f 4 431 445
f 440 447 446
f 446 435 440
f 448 447 440
f 440 437 448
f 449 448 437
f 437 441 449
f 450 449 441
f 441 443 450
f 26 450 443
f 443 18 26
f 454 453 452
f 452 451 454
f 458 457 456
f 456 455 458
f 460 459 447
f 447 448 460
f 461 460 448
f 448 449 461
f 462 461 449
f 449 450 462
f 39 462 450
f 450 26 39
f 40 463 42
f 463 464 42
f 464 465 42
f 465 466 42
f 466 467 42
f 467 468 42
f 468 48 42
f 52 470 469
f 469 51 52
f 470 472 471
f 471 469 470
f 472 474 473
f 473 471 472
f 474 476 475
f 475 473 474
f 455 456 478
f 478 477 455
f 447 459 457
f 457 446 447
f 482 481 480
f 480 479 482
f 486 485 484
f 484 483 486
f 487 445 431
f 431 433 487
f 446 487 433
f 433 435 446
f 435 436 439
f 439 440 435
f 489 445 487
f 487 488 489
f 72 19 445
f 445 489 72
f 455 73 74
f 74 458 455
f 477 75 73
f 73 455 477
f 476 478 456
f 456 475 476
f 473 475 459
f 459 460 473
f 473 460 461
f 461 471 473
f 471 461 462
f 462 469 471
f 469 462 39
f 39 51 469
f 457 459 475
f 475 456 457
f 77 490 470
f 470 52 77
f 490 491 472
f 472 470 490
f 491 492 474
f 474 472 491
f 492 493 476
f 476 474 492
f 493 494 478
f 478 476 493
f 477 478 494
f 494 495 477
f 495 83 75
f 75 477 495
f 497 496 72
f 72 489 497
f 498 497 489
f 489 458 498
f 499 498 458
f 458 74 499
f 496 499 74
f 74 72 496
f 501 500 457
f 457 488 501
f 502 501 488
f 488 487 502
f 503 502 487
f 487 446 503
f 500 503 446
f 446 457 500
f 505 504 457
f 457 458 505
f 506 505 458
f 458 489 506
f 507 506 489
f 489 488 507
f 504 507 488
f 488 457 504
f 451 452 496
f 496 497 451
f 454 451 497
f 497 498 454
f 453 454 498
f 498 499 453
f 452 453 499
f 499 496 452
f 479 480 500
f 500 501 479
f 482 479 501
f 501 502 482
f 481 482 502
f 502 503 481
f 480 481 503
f 503 500 480
f 483 484 504
f 504 505 483
f 486 483 505
f 505 506 486
f 485 486 506
f 506 507 485
f 484 485 507
f 507 504 484
f 463 40 83
f 83 495 463
f 464 463 495
f 495 494 464
f 465 464 494
f 494 493 465
f 466 465 493
f 493 492 466
f 467 466 492
f 492 491 467
f 468 467 491
f 491 490 468
f 48 468 490
f 490 77 48
f 97 508 432
f 432 1 97
f 508 509 434
f 434 432 508
f 509 510 436
f 436 434 509
f 512 511 438
f 438 439 512
f 511 513 442
f 442 438 511
f 513 514 444
f 444 442 513
f 514 104 17
f 17 444 514
f 510 512 439
f 439 436 510
f 508 97 105
f 509 508 105
f 510 509 105
f 511 512 105
f 513 511 105
f 512 510 105
f 514 513 105
f 104 514 105
f 518 517 516
f 516 515 518
f 516 520 519
f 519 515 516
f 536 535 534
f 534 533 536
f 538 519 520
f 520 537 538
f 540 539 535
f 535 536 540
f 542 541 534
f 534 535 542
f 541 542 521
f 521 522 541
f 544 543 516
f 516 517 544
f 543 544 527
f 527 528 543
f 545 544 517
f 517 518 545
f 544 545 526
f 526 527 544
f 546 545 518
f 518 515 546
f 545 546 525
f 525 526 545
f 543 547 539
f 539 516 543
f 547 543 528
f 528 529 547
f 548 546 515
f 515 519 548
f 546 548 530
f 530 525 546
f 547 542 535
f 535 539 547
f 542 547 529
f 529 521 542
f 549 548 519
f 519 538 549
f 548 549 532
f 532 530 548
f 520 516 539
f 537 520 539
f 539 540 537
f 553 552 551
f 551 550 553
f 555 553 550
f 550 554 555
f 557 555 554
f 554 556 557
f 559 557 556
f 556 558 559
f 561 559 558
f 558 560 561
f 563 561 560
f 560 562 563
f 565 563 562
f 562 564 565
f 552 565 564
f 564 551 552
f 566 568 567
f 569 566 567
f 570 569 567
f 571 570 567
f 572 571 567
f 573 572 567
f 574 573 567
f 568 574 567
f 576 575 550
f 550 551 576
f 575 577 554
f 554 550 575
f 577 578 556
f 556 554 577
f 578 579 558
f 558 556 578
f 579 580 560
f 560 558 579
f 580 581 562
f 562 560 580
f 581 582 564
f 564 562 581
f 582 576 551
f 551 564 582
f 584 583 575
f 575 576 584
f 583 585 577
f 577 575 583
f 585 586 578
f 578 577 585
f 586 587 579
f 579 578 586
f 587 588 580
f 580 579 587
f 588 589 581
f 581 580 588
f 589 590 582
f 582 581 589
f 590 584 576
f 576 582 590
f 568 566 583
f 583 584 568
f 566 569 585
f 585 583 566
f 569 570 586
f 586 585 569
f 570 571 587
f 587 586 570
f 571 572 588
f 588 587 571
f 572 573 589
f 589 588 572
f 573 574 590
f 590 589 573
f 574 568 584
f 584 590 574
f 594 593 592
f 592 591 594
f 597 596 595
f 595 592 597
f 599 598 591
f 591 595 599
f 602 601 600
f 600 597 602
f 604 603 596
f 596 600 604
f 607 606 598
f 598 605 607
f 603 608 605
f 605 599 603
f 610 609 608
f 608 604 610
f 612 594 606
f 606 611 612
f 609 613 611
f 611 607 609
f 601 614 613
f 613 610 601
f 614 602 593
f 593 612 614
f 603 599 595
f 595 596 603
f 609 607 605
f 605 608 609
f 614 612 611
f 611 613 614
f 597 592 593
f 593 602 597
f 610 604 600
f 600 601 610
f 598 606 594
f 594 591 598
f 592 595 591
f 600 596 597
f 598 599 605
f 608 603 604
f 606 607 611
f 613 609 610
f 594 612 593
f 602 614 601
f 618 617 616
f 616 615 618
f 615 616 210
f 210 619 615
f 213 212 618
f 618 615 213
f 212 214 617
f 617 618 212
f 214 215 616
f 616 617 214
f 216 213 615
f 615 619 216
f 215 217 210
f 210 616 215
f 620 219 220
f 221 621 220
f 621 622 220
f 622 620 220
f 227 624 623
f 623 226 227
f 626 228 229
f 229 625 626
f 628 626 625
f 625 627 628
f 624 628 627
f 627 623 624
f 219 620 624
f 624 227 219
f 621 221 228
f 228 626 621
f 622 621 626
f 626 628 622
f 620 622 628
f 628 624 620
f 237 234 630
f 630 629 237
f 239 237 629
f 629 631 239
f 633 632 631
f 631 629 633
f 634 633 629
f 629 630 634
f 636 635 244
f 244 245 636
f 637 636 245
f 245 247 637
f 633 634 635
f 635 636 633
f 632 633 636
f 636 637 632
f 632 637 249
f 631 632 249
f 639 638 251
f 251 252 639
f 641 640 638
f 638 639 641
f 643 642 640
f 640 641 643
f 259 258 642
f 642 643 259
f 645 644 261
f 261 262 645
f 647 646 644
f 644 645 647
f 649 648 646
f 646 647 649
f 269 268 648
f 648 649 269
f 271 650 630
f 630 234 271
f 651 272 244
f 244 635 651
f 652 651 635
f 635 634 652
f 650 652 634
f 634 630 650
f 226 623 653
f 653 276 226
f 623 627 654
f 654 653 623
f 627 625 655
f 655 654 627
f 625 229 279
f 279 655 625
f 283 657 656
f 656 282 283
f 657 659 658
f 658 656 657
f 659 661 660
f 660 658 659
f 661 288 289
f 289 660 661
f 639 252 276
f 276 653 639
f 251 638 657
f 657 283 251
f 641 639 653
f 653 654 641
f 638 640 659
f 659 657 638
f 643 641 654
f 654 655 643
f 640 642 661
f 661 659 640
f 259 643 655
f 655 279 259
f 642 258 288
f 288 661 642
f 645 262 282
f 282 656 645
f 261 644 650
f 650 271 261
f 647 645 656
f 656 658 647
f 644 646 652
f 652 650 644
f 649 647 658
f 658 660 649
f 646 648 651
f 651 652 646
f 269 649 660
f 660 289 269
f 648 268 272
f 272 651 648
f 665 664 663
f 663 662 665
f 667 665 662
f 662 666 667
f 669 667 666
f 666 668 669
f 671 669 668
f 668 670 671
f 673 671 670
f 670 672 673
f 675 673 672
f 672 674 675
f 677 675 674
f 674 676 677
f 664 677 676
f 676 663 664
f 680 679 681
f 681 678 680
f 685 684 683
f 683 679 685
f 682 681 679
f 686 685 679
f 683 682 679
f 680 686 679
f 688 687 662
f 662 663 688
f 687 689 666
f 666 662 687
f 689 318 668
f 668 666 689
f 318 690 670
f 670 668 318
f 690 691 672
f 672 670 690
f 691 692 674
f 674 672 691
f 692 693 676
f 676 674 692
f 693 688 663
f 663 676 693
f 698 699 691
f 691 690 698
f 680 678 694
f 694 695 680
f 678 681 696
f 696 694 678
f 681 682 697
f 697 696 681
f 682 683 698
f 698 697 682
f 683 684 699
f 699 698 683
f 684 685 700
f 700 699 684
f 685 686 701
f 701 700 685
f 686 680 695
f 695 701 686
f 334 703 702
f 702 333 334
f 705 335 336
f 336 704 705
f 707 705 704
f 704 706 707
f 703 707 706
f 706 702 703
f 710 709 343
f 708 710 343
f 711 347 333
f 333 702 711
f 350 712 704
f 704 336 350
f 712 713 706
f 706 704 712
f 713 711 702
f 702 706 713
f 355 715 712
f 712 350 355
f 715 716 713
f 713 712 715
f 716 714 711
f 711 713 716
f 708 341 352
f 352 714 708
f 345 709 715
f 715 355 345
f 709 710 716
f 716 715 709
f 710 708 714
f 714 716 710
f 717 719 718
f 718 719 720
f 720 719 721
f 721 719 722
f 722 719 723
f 723 719 724
f 724 719 725
f 725 719 717
f 717 718 727
f 727 726 717
f 718 720 728
f 728 727 718
f 720 721 729
f 729 728 720
f 721 722 730
f 730 729 721
f 722 723 731
f 731 730 722
f 723 724 732
f 732 731 723
f 724 725 733
f 733 732 724
f 725 717 726
f 726 733 725
f 737 736 735
f 735 734 737
f 739 738 736
f 736 737 739
f 741 736 738
f 738 740 741
f 742 735 736
f 736 741 742
f 744 737 734
f 734 743 744
f 745 739 737
f 737 744 745
f 747 744 743
f 743 746 747
f 748 745 744
f 744 747 748
f 750 747 746
f 746 749 750
f 751 748 747
f 747 750 751
f 753 750 749
f 749 752 753
f 754 751 750
f 750 753 754
f 756 753 752
f 752 755 756
f 757 754 753
f 753 756 757
f 741 756 755
f 755 742 741
f 740 757 756
f 756 741 740
f 761 760 759
f 759 758 761
f 763 762 760
f 760 761 763
f 765 764 762
f 762 763 765
f 767 766 764
f 764 765 767
f 769 768 766
f 766 767 769
f 771 770 768
f 768 769 771
f 773 772 770
f 770 771 773
f 758 759 772
f 772 773 758
f 774 776 775
f 776 779 780
f 728 784 783
f 783 727 728
f 727 783 785
f 785 726 727
f 726 785 786
f 786 733 726
f 733 786 787
f 787 732 733
f 732 787 788
f 788 731 732
f 731 788 789
f 789 730 731
f 730 789 790
f 790 729 730
f 729 790 784
f 784 728 729
f 760 734 735
f 735 759 760
f 758 785 783
f 783 761 758
f 762 743 734
f 734 760 762
f 761 783 784
f 784 763 761
f 764 746 743
f 743 762 764
f 763 784 790
f 790 765 763
f 766 749 746
f 746 764 766
f 765 790 789
f 789 767 765
f 768 752 749
f 749 766 768
f 767 789 788
f 788 769 767
f 770 755 752
f 752 768 770
f 769 788 787
f 787 771 769
f 772 742 755
f 755 770 772
f 771 787 786
f 786 773 771
f 759 735 742
f 742 772 759
f 773 786 785
f 785 758 773
f 775 738 739
f 739 774 775
f 774 739 745
f 745 777 774
f 777 745 748
f 748 778 777
f 778 748 751
f 751 779 778
f 779 751 754
f 754 780 779
f 780 754 757
f 757 781 780
f 781 757 740
f 740 782 781
f 782 740 738
f 738 775 782