# https://github.com/mikedh/trimesh
v 0.00195855 -0.03436258 0.04463991
v 0.00391709 -0.03436258 0.04124761
v -0.00000000 -0.03436258 0.04019803
v -0.00195855 -0.03436258 0.04463991
v -0.00391709 -0.03436258 0.04124761
v -0.00678460 -0.03436258 0.04411512
v -0.00783418 -0.03436258 0.04803221
v -0.00391709 -0.03436258 0.04803221
v 0.00000000 -0.03436258 0.04803221
v -0.00678460 -0.03436258 0.05194930
v -0.00195854 -0.03436258 0.05142451
v -0.00391709 -0.03436258 0.05481681
v 0.00000000 -0.03436258 0.05586639
v 0.00391709 -0.03436258 0.05481681
v 0.00195855 -0.03436258 0.05142451
v 0.00678460 -0.03436258 0.05194930
v 0.00391709 -0.03436258 0.04803221
v 0.00783418 -0.03436258 0.04803221
v 0.00678460 -0.03436258 0.04411512
v 0.00308661 -0.03611325 0.05013551
v 0.00174295 -0.03611325 0.05132593
v 0.00194260 -0.03567973 0.05170626
v 0.00344016 -0.03567971 0.05037953
v 0.00372316 -0.03611325 0.04845701
v 0.00414963 -0.03567971 0.04850881
v 0.00350679 -0.03611326 0.04667501
v 0.00390848 -0.03567978 0.04652269
v 0.00248706 -0.03611326 0.04519765
v 0.00277194 -0.03567977 0.04487610
v 0.00089756 -0.03611326 0.04436343
v 0.00100037 -0.03567977 0.04394631
v -0.00089756 -0.03611326 0.04436343
v -0.00100037 -0.03567978 0.04394631
v -0.00248705 -0.03611326 0.04519765
v -0.00277193 -0.03567977 0.04487610
v -0.00350679 -0.03611326 0.04667501
v -0.00390848 -0.03567978 0.04652269
v -0.00372316 -0.03611325 0.04845701
v -0.00414963 -0.03567971 0.04850881
v -0.00308661 -0.03611325 0.05013551
v -0.00344016 -0.03567971 0.05037953
v -0.00174295 -0.03611325 0.05132593
v -0.00194259 -0.03567973 0.05170626
v 0.00000000 -0.03611323 0.05175545
v 0.00000000 -0.03567973 0.05218511
v 0.00249580 -0.03530279 0.05276029
v 0.00441983 -0.03530280 0.05105577
v 0.00533133 -0.03530280 0.04865231
v 0.00502148 -0.03530280 0.04610056
v 0.00356130 -0.03530280 0.04398510
v 0.00128524 -0.03530280 0.04279053
v -0.00128524 -0.03530280 0.04279053
v -0.00356130 -0.03530280 0.04398509
v -0.00502148 -0.03530280 0.04610056
v -0.00533133 -0.03530280 0.04865231
v -0.00441983 -0.03530280 0.05105577
v -0.00249580 -0.03530279 0.05276029
v 0.00000000 -0.03530277 0.05337546
v 0.01368419 -0.03561603 0.05741207
v 0.00772720 -0.03561603 0.06268951
v 0.00772720 -0.03635214 0.06268951
v 0.01368419 -0.03635214 0.05741207
v 0.01650630 -0.03561603 0.04997079
v 0.01650630 -0.03635214 0.04997079
v 0.01554702 -0.03561603 0.04207036
v 0.01554702 -0.03635214 0.04207036
v 0.01102610 -0.03561603 0.03552067
v 0.01102610 -0.03635214 0.03552067
v 0.00397923 -0.03561602 0.03182219
v 0.00397923 -0.03635214 0.03182219
v -0.00397922 -0.03561602 0.03182219
v -0.00397922 -0.03635214 0.03182219
v -0.01102609 -0.03561602 0.03552067
v -0.01102609 -0.03635214 0.03552067
v -0.01554701 -0.03561603 0.04207035
v -0.01554701 -0.03635214 0.04207035
v -0.01650630 -0.03561603 0.04997079
v -0.01650630 -0.03635214 0.04997079
v -0.01368419 -0.03561603 0.05741207
v -0.01368419 -0.03635214 0.05741207
v -0.00772720 -0.03561603 0.06268950
v -0.00772720 -0.03635214 0.06268951
v 0.00000000 -0.03561603 0.06459408
v 0.00000000 -0.03635214 0.06459408
v 0.00714867 -0.03658226 0.06158721
v 0.01265967 -0.03658226 0.05670490
v 0.01527049 -0.03658226 0.04982074
v 0.01438303 -0.03658226 0.04251180
v 0.01020058 -0.03658226 0.03645248
v 0.00368131 -0.03658226 0.03303090
v -0.00368131 -0.03658226 0.03303090
v -0.01020058 -0.03658226 0.03645248
v -0.01438302 -0.03658226 0.04251180
v -0.01527049 -0.03658226 0.04982073
v -0.01265967 -0.03658226 0.05670490
v -0.00714867 -0.03658226 0.06158721
v 0.00000000 -0.03658226 0.06334921
v 0.00612415 -0.03658251 0.05963516
v 0.01084533 -0.03658251 0.05545255
v 0.01308198 -0.03658250 0.04955500
v 0.01232171 -0.03658250 0.04329355
v 0.00873868 -0.03658251 0.03810263
v 0.00315372 -0.03658251 0.03517143
v -0.00315371 -0.03658250 0.03517142
v -0.00873867 -0.03658251 0.03810263
v -0.01232170 -0.03658251 0.04329355
v -0.01308198 -0.03658250 0.04955500
v -0.01084534 -0.03658251 0.05545255
v -0.00612415 -0.03658251 0.05963515
v 0.00000000 -0.03658251 0.06114462
v 0.00488834 -0.03612391 0.05728052
v 0.00865683 -0.03612391 0.05394193
v 0.01044214 -0.03612391 0.04923447
v 0.00983528 -0.03612391 0.04423653
v 0.00697528 -0.03612391 0.04009310
v 0.00251732 -0.03612391 0.03775339
v -0.00251732 -0.03612391 0.03775338
v -0.00697527 -0.03612391 0.04009310
v -0.00983528 -0.03612391 0.04423653
v -0.01044214 -0.03612390 0.04923446
v -0.00865683 -0.03612391 0.05394193
v -0.00488834 -0.03612391 0.05728052
v 0.00000000 -0.03612391 0.05848538
v 0.00249580 -0.03529772 0.05276033
v 0.00441983 -0.03529771 0.05105573
v 0.00533133 -0.03529771 0.04865229
v 0.00502148 -0.03529767 0.04610057
v 0.00356130 -0.03529768 0.04398509
v 0.00128524 -0.03529768 0.04279053
v -0.00128524 -0.03529767 0.04279053
v -0.00356130 -0.03529767 0.04398509
v -0.00502148 -0.03529767 0.04610057
v -0.00533132 -0.03529771 0.04865229
v -0.00441983 -0.03529771 0.05105573
v -0.00249580 -0.03529772 0.05276032
v 0.00000000 -0.03529770 0.05337545
v 0.00194260 -0.03651006 0.05170622
v 0.00344016 -0.03651006 0.05037953
v 0.00414963 -0.03651006 0.04850886
v 0.00390848 -0.03651010 0.04652268
v 0.00277193 -0.03651010 0.04487611
v 0.00100037 -0.03651010 0.04394628
v -0.00100037 -0.03651010 0.04394628
v -0.00277193 -0.03651010 0.04487611
v -0.00390848 -0.03651010 0.04652267
v -0.00414963 -0.03651006 0.04850886
v -0.00344016 -0.03651006 0.05037953
v -0.00194259 -0.03651006 0.05170622
v 0.00000000 -0.03651006 0.05218511
v 0.00342896 -0.04061841 0.05354117
v 0.00178050 -0.04061841 0.05425719
v 0.00000000 -0.04168710 0.04790248
v 0.00482310 -0.04061841 0.05240695
v 0.00585954 -0.04061841 0.05093866
v 0.00646140 -0.04061841 0.04924518
v 0.00658405 -0.04061841 0.04745213
v 0.00621839 -0.04061841 0.04569248
v 0.00539154 -0.04061841 0.04409672
v 0.00416482 -0.04061841 0.04278324
v 0.00262922 -0.04061841 0.04184942
v 0.00089863 -0.04061840 0.04136452
v -0.00089862 -0.04061840 0.04136452
v -0.00262922 -0.04061841 0.04184941
v -0.00416482 -0.04061841 0.04278324
v -0.00539153 -0.04061841 0.04409672
v -0.00621839 -0.04061841 0.04569247
v -0.00658405 -0.04061841 0.04745212
v -0.00646140 -0.04061841 0.04924518
v -0.00585954 -0.04061840 0.05093866
v -0.00482310 -0.04061841 0.05240695
v -0.00342896 -0.04061841 0.05354117
v -0.00178050 -0.04061841 0.05425719
v 0.00000000 -0.04061841 0.05450192
v 0.00178050 0.06086152 0.05425719
v 0.00342896 0.06086152 0.05354117
v 0.00000000 0.06131294 0.04790249
v 0.00482310 0.06086153 0.05240695
v 0.00585954 0.06086152 0.05093866
v 0.00646140 0.06086152 0.04924519
v 0.00658405 0.06086152 0.04745213
v 0.00621839 0.06086152 0.04569248
v 0.00539154 0.06086152 0.04409673
v 0.00416482 0.06086152 0.04278324
v 0.00262922 0.06086152 0.04184942
v 0.00089863 0.06086152 0.04136452
v -0.00089862 0.06086152 0.04136452
v -0.00262922 0.06086152 0.04184942
v -0.00416482 0.06086152 0.04278324
v -0.00539153 0.06086152 0.04409673
v -0.00621839 0.06086152 0.04569247
v -0.00658405 0.06086152 0.04745213
v -0.00646140 0.06086152 0.04924518
v -0.00585954 0.06086152 0.05093866
v -0.00482310 0.06086152 0.05240695
v -0.00342896 0.06086152 0.05354117
v -0.00178050 0.06086152 0.05425720
v 0.00000000 0.06086153 0.05450192
v 0.00699701 -0.03855102 0.05940677
v 0.00363323 -0.03855102 0.06086786
v 0.00984185 -0.03855102 0.05709232
v 0.01195676 -0.03855102 0.05409617
v 0.01318490 -0.03855102 0.05064053
v 0.01343517 -0.03855101 0.04698169
v 0.01268902 -0.03855102 0.04339100
v 0.01100178 -0.03855102 0.04013477
v 0.00849859 -0.03855102 0.03745450
v 0.00536510 -0.03855102 0.03554898
v 0.00183370 -0.03855103 0.03455953
v -0.00183369 -0.03855102 0.03455953
v -0.00536509 -0.03855103 0.03554898
v -0.00849858 -0.03855102 0.03745450
v -0.01100178 -0.03855102 0.04013476
v -0.01268902 -0.03855103 0.04339099
v -0.01343517 -0.03855102 0.04698167
v -0.01318490 -0.03855101 0.05064052
v -0.01195677 -0.03855102 0.05409617
v -0.00984185 -0.03855102 0.05709232
v -0.00699701 -0.03855102 0.05940677
v -0.00363324 -0.03855102 0.06086786
v 0.00000000 -0.03855102 0.06136724
v 0.01030604 -0.03445917 0.06484762
v 0.00535146 -0.03445917 0.06699969
v 0.01449626 -0.03445917 0.06143862
v 0.01761137 -0.03445917 0.05702553
v 0.01942032 -0.03445917 0.05193563
v 0.01978895 -0.03445917 0.04654645
v 0.01868993 -0.03445917 0.04125764
v 0.01620476 -0.03445917 0.03646148
v 0.01251776 -0.03445917 0.03251366
v 0.00790237 -0.03445917 0.02970698
v 0.00270090 -0.03445916 0.02824959
v -0.00270088 -0.03445917 0.02824959
v -0.00790236 -0.03445917 0.02970698
v -0.01251774 -0.03445916 0.03251366
v -0.01620475 -0.03445916 0.03646147
v -0.01868992 -0.03445917 0.04125763
v -0.01978895 -0.03445917 0.04654644
v -0.01942032 -0.03445917 0.05193562
v -0.01761137 -0.03445917 0.05702552
v -0.01449627 -0.03445916 0.06143862
v -0.01030605 -0.03445917 0.06484761
v -0.00535147 -0.03445917 0.06699969
v 0.00000000 -0.03445916 0.06773523
v 0.01308419 -0.02972191 0.06941854
v 0.00679403 -0.02972191 0.07215073
v 0.01840395 -0.02972191 0.06509059
v 0.02235878 -0.02972191 0.05948789
v 0.02465536 -0.02972191 0.05302594
v 0.02512336 -0.02972191 0.04618402
v 0.02372808 -0.02972191 0.03946954
v 0.02057300 -0.02972191 0.03338049
v 0.01589211 -0.02972191 0.02836848
v 0.01003257 -0.02972191 0.02480521
v 0.00342897 -0.02972191 0.02295497
v -0.00342895 -0.02972191 0.02295497
v -0.01003256 -0.02972191 0.02480521
v -0.01589209 -0.02972191 0.02836847
v -0.02057299 -0.02972191 0.03338048
v -0.02372808 -0.02972191 0.03946952
v -0.02512337 -0.02972191 0.04618401
v -0.02465537 -0.02972191 0.05302593
v -0.02235879 -0.02972191 0.05948788
v -0.01840396 -0.02972191 0.06509059
v -0.01308420 -0.02972191 0.06941854
v -0.00679404 -0.02972191 0.07215075
v 0.00000000 -0.02972191 0.07308456
v 0.01489239 -0.02763095 0.07240097
v 0.00773295 -0.02763095 0.07551076
v 0.02094734 -0.02763095 0.06747492
v 0.02544872 -0.02763095 0.06109793
v 0.02806268 -0.02763095 0.05374295
v 0.02859536 -0.02763095 0.04595548
v 0.02700726 -0.02763095 0.03831308
v 0.02341615 -0.02763095 0.03138254
v 0.01808837 -0.02763095 0.02567788
v 0.01141905 -0.02763095 0.02162217
v 0.00390284 -0.02763095 0.01951623
v -0.00390282 -0.02763095 0.01951623
v -0.01141904 -0.02763095 0.02162217
v -0.01808835 -0.02763095 0.02567787
v -0.02341614 -0.02763095 0.03138253
v -0.02700725 -0.02763095 0.03831306
v -0.02859536 -0.02763095 0.04595546
v -0.02806269 -0.02763095 0.05374294
v -0.02544873 -0.02763095 0.06109791
v -0.02094735 -0.02763095 0.06747492
v -0.01489241 -0.02763095 0.07240097
v -0.00773296 -0.02763095 0.07551077
v 0.00000000 -0.02763095 0.07657363
v 0.01840394 -0.02023342 0.07816652
v 0.00955634 -0.02023342 0.08200957
v 0.02588661 -0.02023342 0.07207893
v 0.03144939 -0.02023342 0.06419827
v 0.03467971 -0.02023342 0.05510903
v 0.03533800 -0.02023342 0.04548532
v 0.03337543 -0.02023342 0.03604087
v 0.02893755 -0.02023342 0.02747615
v 0.02235351 -0.02023342 0.02042635
v 0.01411161 -0.02023342 0.01541434
v 0.00482311 -0.02023342 0.01281183
v -0.00482309 -0.02023342 0.01281182
v -0.01411159 -0.02023342 0.01541434
v -0.02235349 -0.02023342 0.02042635
v -0.02893754 -0.02023342 0.02747613
v -0.03337542 -0.02023342 0.03604086
v -0.03533801 -0.02023342 0.04548530
v -0.03467973 -0.02023342 0.05510901
v -0.03144941 -0.02023342 0.06419825
v -0.02588663 -0.02023342 0.07207891
v -0.01840396 -0.02023342 0.07816652
v -0.00955636 -0.02023342 0.08200958
v 0.00000000 -0.02023342 0.08332306
v 0.02057297 -0.01510221 0.08173333
v 0.01068262 -0.01510221 0.08602932
v 0.02893752 -0.01510221 0.07492827
v 0.03515592 -0.01510221 0.06611884
v 0.03876695 -0.01510221 0.05595838
v 0.03950282 -0.01510221 0.04520044
v 0.03730895 -0.01510221 0.03464290
v 0.03234804 -0.01510221 0.02506877
v 0.02498802 -0.01510221 0.01718811
v 0.01577475 -0.01510221 0.01158539
v 0.00539155 -0.01510221 0.00867615
v -0.00539152 -0.01510221 0.00867615
v -0.01577473 -0.01510221 0.01158539
v -0.02498800 -0.01510221 0.01718810
v -0.03234802 -0.01510221 0.02506875
v -0.03730894 -0.01510221 0.03464288
v -0.03950283 -0.01510221 0.04520042
v -0.03876696 -0.01510221 0.05595835
v -0.03515593 -0.01510221 0.06611882
v -0.02893755 -0.01510221 0.07492827
v -0.02057300 -0.01510221 0.08173333
v -0.01068264 -0.01510221 0.08602932
v 0.00000000 -0.01510221 0.08749762
v 0.02235876 -0.00945035 0.08466995
v 0.01160990 -0.00945035 0.08933883
v 0.03144938 -0.00945035 0.07727419
v 0.03820755 -0.00945035 0.06770007
v 0.04213203 -0.00945035 0.05665765
v 0.04293178 -0.00945035 0.04496589
v 0.04054747 -0.00945035 0.03349193
v 0.03515594 -0.00945035 0.02308674
v 0.02715705 -0.00945035 0.01452201
v 0.01714405 -0.00945035 0.00843297
v 0.00585955 -0.00945035 0.00527120
v -0.00585952 -0.00945035 0.00527119
v -0.01714402 -0.00945035 0.00843296
v -0.02715703 -0.00945035 0.01452200
v -0.03515592 -0.00945035 0.02308672
v -0.04054746 -0.00945035 0.03349191
v -0.04293178 -0.00945035 0.04496587
v -0.04213204 -0.00945035 0.05665763
v -0.03820757 -0.00945035 0.06770005
v -0.03144941 -0.00945035 0.07727419
v -0.02235879 -0.00945035 0.08466995
v -0.01160992 -0.00945035 0.08933885
v 0.00000000 -0.00945035 0.09093459
v 0.02372805 -0.00338313 0.08692165
v 0.01232091 -0.00338313 0.09187647
v 0.03337540 -0.00338313 0.07907297
v 0.04054745 -0.00338313 0.06891251
v 0.04471228 -0.00338313 0.05719383
v 0.04556100 -0.00338313 0.04478605
v 0.04303067 -0.00338313 0.03260940
v 0.03730895 -0.00338313 0.02156698
v 0.02882020 -0.00338313 0.01247773
v 0.01819398 -0.00338313 0.00601578
v 0.00621840 -0.00338313 0.00266038
v -0.00621837 -0.00338313 0.00266038
v -0.01819395 -0.00338313 0.00601577
v -0.02882017 -0.00338313 0.01247772
v -0.03730894 -0.00338313 0.02156695
v -0.04303066 -0.00338313 0.03260938
v -0.04556100 -0.00338313 0.04478602
v -0.04471229 -0.00338313 0.05719380
v -0.04054747 -0.00338313 0.06891249
v -0.03337543 -0.00338313 0.07907296
v -0.02372808 -0.00338313 0.08692165
v -0.01232094 -0.00338313 0.09187648
v 0.00000000 -0.00338313 0.09356996
v 0.02465534 0.00298642 0.08844651
v 0.01280240 0.00298642 0.09359496
v 0.03467970 0.00298642 0.08029110
v 0.04213203 0.00298642 0.06973357
v 0.04645962 0.00298642 0.05755693
v 0.04734150 0.00298642 0.04466426
v 0.04471229 0.00298642 0.03201176
v 0.03876697 0.00298642 0.02053779
v 0.02994648 0.00298642 0.01109335
v 0.01890499 0.00298642 0.00437886
v 0.00646141 0.00298642 0.00089234
v -0.00646138 0.00298642 0.00089233
v -0.01890497 0.00298642 0.00437886
v -0.02994645 0.00298642 0.01109333
v -0.03876695 0.00298642 0.02053777
v -0.04471229 0.00298642 0.03201173
v -0.04734151 0.00298642 0.04466423
v -0.04645963 0.00298642 0.05755691
v -0.04213205 0.00298642 0.06973355
v -0.03467973 0.00298642 0.08029109
v -0.02465537 0.00298642 0.08844651
v -0.01280243 0.00298642 0.09359497
v 0.00000000 0.00298642 0.09535462
v 0.02512334 0.00953966 0.08921611
v 0.01304541 0.00953966 0.09446229
v 0.03533798 0.00953966 0.08090589
v 0.04293176 0.00953966 0.07014797
v 0.04734150 0.00953966 0.05774019
v 0.04824013 0.00953966 0.04460280
v 0.04556101 0.00953966 0.03171012
v 0.03950284 0.00953966 0.02001836
v 0.03051492 0.00953966 0.01039465
v 0.01926384 0.00953966 0.00355271
v 0.00658406 0.00953966 0.00000000
v -0.00658403 0.00953966 0.00000000
v -0.01926381 0.00953966 0.00355271
v -0.03051489 0.00953966 0.01039463
v -0.03950282 0.00953966 0.02001834
v -0.04556100 0.00953966 0.03171010
v -0.04824013 0.00953966 0.04460277
v -0.04734151 0.00953966 0.05774017
v -0.04293179 0.00953966 0.07014794
v -0.03533801 0.00953966 0.08090588
v -0.02512337 0.00953966 0.08921611
v -0.01304544 0.00953966 0.09446229
v 0.00000000 0.00953966 0.09625535
v 0.02512334 0.01615453 0.08921611
v 0.01304541 0.01615453 0.09446228
v 0.03533798 0.01615453 0.08090589
v 0.04293176 0.01615453 0.07014796
v 0.04734150 0.01615453 0.05774019
v 0.04824013 0.01615453 0.04460280
v 0.04556101 0.01615453 0.03171013
v 0.03950284 0.01615453 0.02001836
v 0.03051492 0.01615453 0.01039465
v 0.01926384 0.01615453 0.00355271
v 0.00658406 0.01615453 0.00000000
v -0.00658403 0.01615453 0.00000000
v -0.01926381 0.01615453 0.00355271
v -0.03051489 0.01615453 0.01039463
v -0.03950282 0.01615453 0.02001834
v -0.04556100 0.01615453 0.03171010
v -0.04824013 0.01615453 0.04460277
v -0.04734151 0.01615453 0.05774016
v -0.04293179 0.01615453 0.07014794
v -0.03533801 0.01615453 0.08090588
v -0.02512337 0.01615453 0.08921610
v -0.01304544 0.01615453 0.09446229
v 0.00000000 0.01615453 0.09625534
v 0.02465534 0.02270777 0.08844652
v 0.01280240 0.02270777 0.09359496
v 0.03467970 0.02270777 0.08029110
v 0.04213203 0.02270777 0.06973357
v 0.04645962 0.02270777 0.05755693
v 0.04734150 0.02270777 0.04466426
v 0.04471229 0.02270777 0.03201176
v 0.03876697 0.02270777 0.02053779
v 0.02994648 0.02270777 0.01109335
v 0.01890499 0.02270777 0.00437886
v 0.00646141 0.02270777 0.00089234
v -0.00646138 0.02270777 0.00089233
v -0.01890497 0.02270777 0.00437886
v -0.02994645 0.02270777 0.01109333
v -0.03876695 0.02270777 0.02053777
v -0.04471229 0.02270777 0.03201173
v -0.04734151 0.02270777 0.04466423
v -0.04645963 0.02270777 0.05755691
v -0.04213205 0.02270777 0.06973355
v -0.03467973 0.02270777 0.08029109
v -0.02465537 0.02270777 0.08844651
v -0.01280243 0.02270777 0.09359497
v 0.00000000 0.02270777 0.09535462
v 0.02372805 0.02907732 0.08692166
v 0.01232091 0.02907733 0.09187647
v 0.03337540 0.02907732 0.07907297
v 0.04054745 0.02907732 0.06891251
v 0.04471228 0.02907732 0.05719383
v 0.04556100 0.02907732 0.04478605
v 0.04303067 0.02907732 0.03260941
v 0.03730895 0.02907732 0.02156698
v 0.02882020 0.02907732 0.01247773
v 0.01819398 0.02907733 0.00601578
v 0.00621840 0.02907733 0.00266038
v -0.00621837 0.02907732 0.00266038
v -0.01819395 0.02907732 0.00601577
v -0.02882017 0.02907732 0.01247772
v -0.03730894 0.02907732 0.02156695
v -0.04303066 0.02907732 0.03260938
v -0.04556100 0.02907732 0.04478602
v -0.04471229 0.02907733 0.05719380
v -0.04054747 0.02907732 0.06891249
v -0.03337543 0.02907732 0.07907296
v -0.02372808 0.02907733 0.08692166
v -0.01232094 0.02907732 0.09187648
v 0.00000000 0.02907733 0.09356996
v 0.02235876 0.03514454 0.08466995
v 0.01160990 0.03514454 0.08933883
v 0.03144938 0.03514454 0.07727419
v 0.03820755 0.03514454 0.06770007
v 0.04213203 0.03514454 0.05665765
v 0.04293178 0.03514454 0.04496590
v 0.04054747 0.03514454 0.03349194
v 0.03515594 0.03514454 0.02308674
v 0.02715705 0.03514454 0.01452201
v 0.01714405 0.03514454 0.00843297
v 0.00585955 0.03514454 0.00527120
v -0.00585952 0.03514454 0.00527119
v -0.01714402 0.03514454 0.00843296
v -0.02715703 0.03514454 0.01452200
v -0.03515592 0.03514454 0.02308672
v -0.04054746 0.03514454 0.03349191
v -0.04293178 0.03514454 0.04496587
v -0.04213204 0.03514454 0.05665763
v -0.03820757 0.03514454 0.06770005
v -0.03144941 0.03514454 0.07727418
v -0.02235879 0.03514454 0.08466995
v -0.01160992 0.03514454 0.08933885
v 0.00000000 0.03514454 0.09093459
v 0.02057297 0.04079640 0.08173335
v 0.01068262 0.04079640 0.08602932
v 0.02893752 0.04079640 0.07492828
v 0.03515592 0.04079640 0.06611884
v 0.03876695 0.04079639 0.05595838
v 0.03950282 0.04079640 0.04520044
v 0.03730895 0.04079640 0.03464290
v 0.03234804 0.04079640 0.02506877
v 0.02498802 0.04079640 0.01718811
v 0.01577475 0.04079640 0.01158539
v 0.00539155 0.04079640 0.00867615
v -0.00539152 0.04079640 0.00867615
v -0.01577473 0.04079640 0.01158539
v -0.02498800 0.04079640 0.01718810
v -0.03234802 0.04079640 0.02506875
v -0.03730894 0.04079640 0.03464288
v -0.03950283 0.04079640 0.04520041
v -0.03876696 0.04079640 0.05595835
v -0.03515593 0.04079640 0.06611882
v -0.02893755 0.04079640 0.07492827
v -0.02057300 0.04079639 0.08173333
v -0.01068264 0.04079639 0.08602932
v 0.00000000 0.04079640 0.08749762
v 0.01840394 0.04592761 0.07816652
v 0.00955634 0.04592761 0.08200957
v 0.02588661 0.04592761 0.07207892
v 0.03144939 0.04592761 0.06419827
v 0.03467971 0.04592761 0.05510903
v 0.03533800 0.04592761 0.04548532
v 0.03337543 0.04592761 0.03604088
v 0.02893755 0.04592761 0.02747615
v 0.02235351 0.04592761 0.02042636
v 0.01411161 0.04592761 0.01541434
v 0.00482311 0.04592761 0.01281183
v -0.00482309 0.04592761 0.01281182
v -0.01411159 0.04592761 0.01541434
v -0.02235349 0.04592761 0.02042635
v -0.02893754 0.04592761 0.02747614
v -0.03337542 0.04592761 0.03604086
v -0.03533801 0.04592761 0.04548530
v -0.03467973 0.04592761 0.05510901
v -0.03144941 0.04592761 0.06419826
v -0.02588663 0.04592761 0.07207891
v -0.01840396 0.04592761 0.07816652
v -0.00955636 0.04592761 0.08200958
v 0.00000000 0.04592761 0.08332307
v 0.01589209 0.05044260 0.07403594
v 0.00825204 0.05044259 0.07735447
v 0.02235349 0.05044260 0.06877921
v 0.02715703 0.05044260 0.06197414
v 0.02994646 0.05044260 0.05412545
v 0.03051490 0.05044260 0.04581523
v 0.02882019 0.05044260 0.03765981
v 0.02498802 0.05044260 0.03026403
v 0.01930260 0.05044260 0.02417643
v 0.01218559 0.05044260 0.01984848
v 0.00416483 0.05044260 0.01760117
v -0.00416481 0.05044260 0.01760117
v -0.01218557 0.05044260 0.01984847
v -0.01930258 0.05044260 0.02417642
v -0.02498801 0.05044260 0.03026402
v -0.02882019 0.05044260 0.03765978
v -0.03051491 0.05044260 0.04581521
v -0.02994647 0.05044260 0.05412543
v -0.02715704 0.05044259 0.06197413
v -0.02235350 0.05044260 0.06877920
v -0.01589210 0.05044260 0.07403594
v -0.00825206 0.05044260 0.07735448
v 0.00000000 0.05044260 0.07848870
v 0.01308419 0.05425725 0.06941854
v 0.00679403 0.05425725 0.07215073
v 0.01840395 0.05425726 0.06509060
v 0.02235878 0.05425725 0.05948789
v 0.02465536 0.05425725 0.05302594
v 0.02512336 0.05425725 0.04618402
v 0.02372808 0.05425725 0.03946954
v 0.02057300 0.05425725 0.03338049
v 0.01589211 0.05425725 0.02836848
v 0.01003257 0.05425725 0.02480521
v 0.00342897 0.05425725 0.02295497
v -0.00342895 0.05425725 0.02295497
v -0.01003256 0.05425725 0.02480521
v -0.01589209 0.05425725 0.02836847
v -0.02057299 0.05425725 0.03338048
v -0.02372808 0.05425725 0.03946952
v -0.02512337 0.05425725 0.04618400
v -0.02465537 0.05425725 0.05302593
v -0.02235879 0.05425725 0.05948788
v -0.01840396 0.05425726 0.06509059
v -0.01308420 0.05425726 0.06941854
v -0.00679404 0.05425725 0.07215074
v 0.00000000 0.05425726 0.07308456
v 0.01003256 0.05730052 0.06440034
v 0.00520945 0.05730051 0.06649531
v 0.01411159 0.05730052 0.06108181
v 0.01714403 0.05730051 0.05678582
v 0.01890498 0.05730052 0.05183100
v 0.01926383 0.05730052 0.04658482
v 0.01819397 0.05730052 0.04143636
v 0.01577475 0.05730052 0.03676746
v 0.01218558 0.05730052 0.03292441
v 0.00769267 0.05730052 0.03019220
v 0.00262923 0.05730052 0.02877349
v -0.00262921 0.05730052 0.02877349
v -0.00769266 0.05730052 0.03019220
v -0.01218557 0.05730052 0.03292440
v -0.01577474 0.05730052 0.03676746
v -0.01819397 0.05730052 0.04143635
v -0.01926383 0.05730052 0.04658480
v -0.01890498 0.05730052 0.05183099
v -0.01714404 0.05730052 0.05678581
v -0.01411160 0.05730052 0.06108180
v -0.01003257 0.05730052 0.06440034
v -0.00520946 0.05730052 0.06649531
v 0.00000000 0.05730052 0.06721133
v 0.00679404 0.05951569 0.05907481
v 0.00352784 0.05951569 0.06049352
v 0.00955635 0.05951569 0.05682751
v 0.01160992 0.05951569 0.05391827
v 0.01280243 0.05951569 0.05056287
v 0.01304544 0.05951569 0.04701016
v 0.01232094 0.05951569 0.04352363
v 0.01068264 0.05951569 0.04036186
v 0.00825206 0.05951569 0.03775935
v 0.00520947 0.05951569 0.03590910
v 0.00178051 0.05951569 0.03494835
v -0.00178050 0.05951569 0.03494835
v -0.00520946 0.05951569 0.03590910
v -0.00825206 0.05951569 0.03775934
v -0.01068264 0.05951569 0.04036186
v -0.01232093 0.05951569 0.04352363
v -0.01304544 0.05951569 0.04701016
v -0.01280243 0.05951569 0.05056286
v -0.01160992 0.05951569 0.05391827
v -0.00955636 0.05951569 0.05682750
v -0.00679404 0.05951569 0.05907481
v -0.00352784 0.05951570 0.06049353
v 0.00000000 0.05951569 0.06097842
f 1 2 3
f 1 3 4
f 3 5 6
f 3 6 4
f 6 7 8
f 6 8 4
f 8 9 1
f 8 1 4
f 8 7 10
f 8 10 11
f 10 12 13
f 10 13 11
f 13 14 15
f 13 15 11
f 15 9 8
f 15 8 11
f 15 14 16
f 15 16 17
f 16 18 19
f 16 19 17
f 19 2 1
f 19 1 17
f 1 9 15
f 1 15 17
f 20 21 22
f 20 22 23
f 24 20 23
f 24 23 25
f 26 24 25
f 26 25 27
f 28 26 27
f 28 27 29
f 30 28 29
f 30 29 31
f 32 30 31
f 32 31 33
f 34 32 33
f 34 33 35
f 36 34 35
f 36 35 37
f 38 36 37
f 38 37 39
f 40 38 39
f 40 39 41
f 42 40 41
f 42 41 43
f 44 42 43
f 44 43 45
f 21 44 45
f 21 45 22
f 23 22 46
f 23 46 47
f 25 23 47
f 25 47 48
f 27 25 48
f 27 48 49
f 29 27 49
f 29 49 50
f 31 29 50
f 31 50 51
f 33 31 51
f 33 51 52
f 35 33 52
f 35 52 53
f 37 35 53
f 37 53 54
f 39 37 54
f 39 54 55
f 41 39 55
f 41 55 56
f 43 41 56
f 43 56 57
f 45 43 57
f 45 57 58
f 22 45 58
f 22 58 46
f 59 60 61
f 59 61 62
f 63 59 62
f 63 62 64
f 65 63 64
f 65 64 66
f 67 65 66
f 67 66 68
f 69 67 68
f 69 68 70
f 71 69 70
f 71 70 72
f 73 71 72
f 73 72 74
f 75 73 74
f 75 74 76
f 77 75 76
f 77 76 78
f 79 77 78
f 79 78 80
f 81 79 80
f 81 80 82
f 83 81 82
f 83 82 84
f 60 83 84
f 60 84 61
f 62 61 85
f 62 85 86
f 64 62 86
f 64 86 87
f 66 64 87
f 66 87 88
f 68 66 88
f 68 88 89
f 70 68 89
f 70 89 90
f 72 70 90
f 72 90 91
f 74 72 91
f 74 91 92
f 76 74 92
f 76 92 93
f 78 76 93
f 78 93 94
f 80 78 94
f 80 94 95
f 82 80 95
f 82 95 96
f 84 82 96
f 84 96 97
f 61 84 97
f 61 97 85
f 86 85 98
f 86 98 99
f 87 86 99
f 87 99 100
f 88 87 100
f 88 100 101
f 89 88 101
f 89 101 102
f 90 89 102
f 90 102 103
f 91 90 103
f 91 103 104
f 92 91 104
f 92 104 105
f 93 92 105
f 93 105 106
f 94 93 106
f 94 106 107
f 95 94 107
f 95 107 108
f 96 95 108
f 96 108 109
f 97 96 109
f 97 109 110
f 85 97 110
f 85 110 98
f 99 98 111
f 99 111 112
f 100 99 112
f 100 112 113
f 101 100 113
f 101 113 114
f 102 101 114
f 102 114 115
f 103 102 115
f 103 115 116
f 104 103 116
f 104 116 117
f 105 104 117
f 105 117 118
f 106 105 118
f 106 118 119
f 107 106 119
f 107 119 120
f 108 107 120
f 108 120 121
f 109 108 121
f 109 121 122
f 110 109 122
f 110 122 123
f 98 110 123
f 98 123 111
f 112 111 124
f 112 124 125
f 113 112 125
f 113 125 126
f 114 113 126
f 114 126 127
f 115 114 127
f 115 127 128
f 116 115 128
f 116 128 129
f 117 116 129
f 117 129 130
f 118 117 130
f 118 130 131
f 119 118 131
f 119 131 132
f 120 119 132
f 120 132 133
f 121 120 133
f 121 133 134
f 122 121 134
f 122 134 135
f 123 122 135
f 123 135 136
f 111 123 136
f 111 136 124
f 125 124 137
f 125 137 138
f 126 125 138
f 126 138 139
f 127 126 139
f 127 139 140
f 128 127 140
f 128 140 141
f 129 128 141
f 129 141 142
f 130 129 142
f 130 142 143
f 131 130 143
f 131 143 144
f 132 131 144
f 132 144 145
f 133 132 145
f 133 145 146
f 134 133 146
f 134 146 147
f 135 134 147
f 135 147 148
f 136 135 148
f 136 148 149
f 124 136 149
f 124 149 137
f 138 137 21
f 138 21 20
f 139 138 20
f 139 20 24
f 140 139 24
f 140 24 26
f 141 140 26
f 141 26 28
f 142 141 28
f 142 28 30
f 143 142 30
f 143 30 32
f 144 143 32
f 144 32 34
f 145 144 34
f 145 34 36
f 146 145 36
f 146 36 38
f 147 146 38
f 147 38 40
f 148 147 40
f 148 40 42
f 149 148 42
f 149 42 44
f 137 149 44
f 137 44 21
f 150 151 152
f 153 150 152
f 154 153 152
f 155 154 152
f 156 155 152
f 157 156 152
f 158 157 152
f 159 158 152
f 160 159 152
f 161 160 152
f 162 161 152
f 163 162 152
f 164 163 152
f 165 164 152
f 166 165 152
f 167 166 152
f 168 167 152
f 169 168 152
f 170 169 152
f 171 170 152
f 172 171 152
f 173 172 152
f 151 173 152
f 174 175 176
f 175 177 176
f 177 178 176
f 178 179 176
f 179 180 176
f 180 181 176
f 181 182 176
f 182 183 176
f 183 184 176
f 184 185 176
f 185 186 176
f 186 187 176
f 187 188 176
f 188 189 176
f 189 190 176
f 190 191 176
f 191 192 176
f 192 193 176
f 193 194 176
f 194 195 176
f 195 196 176
f 196 197 176
f 197 174 176
f 151 150 198
f 151 198 199
f 150 153 200
f 150 200 198
f 153 154 201
f 153 201 200
f 154 155 202
f 154 202 201
f 155 156 203
f 155 203 202
f 156 157 204
f 156 204 203
f 157 158 205
f 157 205 204
f 158 159 206
f 158 206 205
f 159 160 207
f 159 207 206
f 160 161 208
f 160 208 207
f 161 162 209
f 161 209 208
f 162 163 210
f 162 210 209
f 163 164 211
f 163 211 210
f 164 165 212
f 164 212 211
f 165 166 213
f 165 213 212
f 166 167 214
f 166 214 213
f 167 168 215
f 167 215 214
f 168 169 216
f 168 216 215
f 169 170 217
f 169 217 216
f 170 171 218
f 170 218 217
f 171 172 219
f 171 219 218
f 172 173 220
f 172 220 219
f 173 151 199
f 173 199 220
f 199 198 221
f 199 221 222
f 198 200 223
f 198 223 221
f 200 201 224
f 200 224 223
f 201 202 225
f 201 225 224
f 202 203 226
f 202 226 225
f 203 204 227
f 203 227 226
f 204 205 228
f 204 228 227
f 205 206 229
f 205 229 228
f 206 207 230
f 206 230 229
f 207 208 231
f 207 231 230
f 208 209 232
f 208 232 231
f 209 210 233
f 209 233 232
f 210 211 234
f 210 234 233
f 211 212 235
f 211 235 234
f 212 213 236
f 212 236 235
f 213 214 237
f 213 237 236
f 214 215 238
f 214 238 237
f 215 216 239
f 215 239 238
f 216 217 240
f 216 240 239
f 217 218 241
f 217 241 240
f 218 219 242
f 218 242 241
f 219 220 243
f 219 243 242
f 220 199 222
f 220 222 243
f 222 221 244
f 222 244 245
f 221 223 246
f 221 246 244
f 223 224 247
f 223 247 246
f 224 225 248
f 224 248 247
f 225 226 249
f 225 249 248
f 226 227 250
f 226 250 249
f 227 228 251
f 227 251 250
f 228 229 252
f 228 252 251
f 229 230 253
f 229 253 252
f 230 231 254
f 230 254 253
f 231 232 255
f 231 255 254
f 232 233 256
f 232 256 255
f 233 234 257
f 233 257 256
f 234 235 258
f 234 258 257
f 235 236 259
f 235 259 258
f 236 237 260
f 236 260 259
f 237 238 261
f 237 261 260
f 238 239 262
f 238 262 261
f 239 240 263
f 239 263 262
f 240 241 264
f 240 264 263
f 241 242 265
f 241 265 264
f 242 243 266
f 242 266 265
f 243 222 245
f 243 245 266
f 245 244 267
f 245 267 268
f 244 246 269
f 244 269 267
f 246 247 270
f 246 270 269
f 247 248 271
f 247 271 270
f 248 249 272
f 248 272 271
f 249 250 273
f 249 273 272
f 250 251 274
f 250 274 273
f 251 252 275
f 251 275 274
f 252 253 276
f 252 276 275
f 253 254 277
f 253 277 276
f 254 255 278
f 254 278 277
f 255 256 279
f 255 279 278
f 256 257 280
f 256 280 279
f 257 258 281
f 257 281 280
f 258 259 282
f 258 282 281
f 259 260 283
f 259 283 282
f 260 261 284
f 260 284 283
f 261 262 285
f 261 285 284
f 262 263 286
f 262 286 285
f 263 264 287
f 263 287 286
f 264 265 288
f 264 288 287
f 265 266 289
f 265 289 288
f 266 245 268
f 266 268 289
f 268 267 290
f 268 290 291
f 267 269 292
f 267 292 290
f 269 270 293
f 269 293 292
f 270 271 294
f 270 294 293
f 271 272 295
f 271 295 294
f 272 273 296
f 272 296 295
f 273 274 297
f 273 297 296
f 274 275 298
f 274 298 297
f 275 276 299
f 275 299 298
f 276 277 300
f 276 300 299
f 277 278 301
f 277 301 300
f 278 279 302
f 278 302 301
f 279 280 303
f 279 303 302
f 280 281 304
f 280 304 303
f 281 282 305
f 281 305 304
f 282 283 306
f 282 306 305
f 283 284 307
f 283 307 306
f 284 285 308
f 284 308 307
f 285 286 309
f 285 309 308
f 286 287 310
f 286 310 309
f 287 288 311
f 287 311 310
f 288 289 312
f 288 312 311
f 289 268 291
f 289 291 312
f 291 290 313
f 291 313 314
f 290 292 315
f 290 315 313
f 292 293 316
f 292 316 315
f 293 294 317
f 293 317 316
f 294 295 318
f 294 318 317
f 295 296 319
f 295 319 318
f 296 297 320
f 296 320 319
f 297 298 321
f 297 321 320
f 298 299 322
f 298 322 321
f 299 300 323
f 299 323 322
f 300 301 324
f 300 324 323
f 301 302 325
f 301 325 324
f 302 303 326
f 302 326 325
f 303 304 327
f 303 327 326
f 304 305 328
f 304 328 327
f 305 306 329
f 305 329 328
f 306 307 330
f 306 330 329
f 307 308 331
f 307 331 330
f 308 309 332
f 308 332 331
f 309 310 333
f 309 333 332
f 310 311 334
f 310 334 333
f 311 312 335
f 311 335 334
f 312 291 314
f 312 314 335
f 314 313 336
f 314 336 337
f 313 315 338
f 313 338 336
f 315 316 339
f 315 339 338
f 316 317 340
f 316 340 339
f 317 318 341
f 317 341 340
f 318 319 342
f 318 342 341
f 319 320 343
f 319 343 342
f 320 321 344
f 320 344 343
f 321 322 345
f 321 345 344
f 322 323 346
f 322 346 345
f 323 324 347
f 323 347 346
f 324 325 348
f 324 348 347
f 325 326 349
f 325 349 348
f 326 327 350
f 326 350 349
f 327 328 351
f 327 351 350
f 328 329 352
f 328 352 351
f 329 330 353
f 329 353 352
f 330 331 354
f 330 354 353
f 331 332 355
f 331 355 354
f 332 333 356
f 332 356 355
f 333 334 357
f 333 357 356
f 334 335 358
f 334 358 357
f 335 314 337
f 335 337 358
f 337 336 359
f 337 359 360
f 336 338 361
f 336 361 359
f 338 339 362
f 338 362 361
f 339 340 363
f 339 363 362
f 340 341 364
f 340 364 363
f 341 342 365
f 341 365 364
f 342 343 366
f 342 366 365
f 343 344 367
f 343 367 366
f 344 345 368
f 344 368 367
f 345 346 369
f 345 369 368
f 346 347 370
f 346 370 369
f 347 348 371
f 347 371 370
f 348 349 372
f 348 372 371
f 349 350 373
f 349 373 372
f 350 351 374
f 350 374 373
f 351 352 375
f 351 375 374
f 352 353 376
f 352 376 375
f 353 354 377
f 353 377 376
f 354 355 378
f 354 378 377
f 355 356 379
f 355 379 378
f 356 357 380
f 356 380 379
f 357 358 381
f 357 381 380
f 358 337 360
f 358 360 381
f 360 359 382
f 360 382 383
f 359 361 384
f 359 384 382
f 361 362 385
f 361 385 384
f 362 363 386
f 362 386 385
f 363 364 387
f 363 387 386
f 364 365 388
f 364 388 387
f 365 366 389
f 365 389 388
f 366 367 390
f 366 390 389
f 367 368 391
f 367 391 390
f 368 369 392
f 368 392 391
f 369 370 393
f 369 393 392
f 370 371 394
f 370 394 393
f 371 372 395
f 371 395 394
f 372 373 396
f 372 396 395
f 373 374 397
f 373 397 396
f 374 375 398
f 374 398 397
f 375 376 399
f 375 399 398
f 376 377 400
f 376 400 399
f 377 378 401
f 377 401 400
f 378 379 402
f 378 402 401
f 379 380 403
f 379 403 402
f 380 381 404
f 380 404 403
f 381 360 383
f 381 383 404
f 383 382 405
f 383 405 406
f 382 384 407
f 382 407 405
f 384 385 408
f 384 408 407
f 385 386 409
f 385 409 408
f 386 387 410
f 386 410 409
f 387 388 411
f 387 411 410
f 388 389 412
f 388 412 411
f 389 390 413
f 389 413 412
f 390 391 414
f 390 414 413
f 391 392 415
f 391 415 414
f 392 393 416
f 392 416 415
f 393 394 417
f 393 417 416
f 394 395 418
f 394 418 417
f 395 396 419
f 395 419 418
f 396 397 420
f 396 420 419
f 397 398 421
f 397 421 420
f 398 399 422
f 398 422 421
f 399 400 423
f 399 423 422
f 400 401 424
f 400 424 423
f 401 402 425
f 401 425 424
f 402 403 426
f 402 426 425
f 403 404 427
f 403 427 426
f 404 383 406
f 404 406 427
f 406 405 428
f 406 428 429
f 405 407 430
f 405 430 428
f 407 408 431
f 407 431 430
f 408 409 432
f 408 432 431
f 409 410 433
f 409 433 432
f 410 411 434
f 410 434 433
f 411 412 435
f 411 435 434
f 412 413 436
f 412 436 435
f 413 414 437
f 413 437 436
f 414 415 438
f 414 438 437
f 415 416 439
f 415 439 438
f 416 417 440
f 416 440 439
f 417 418 441
f 417 441 440
f 418 419 442
f 418 442 441
f 419 420 443
f 419 443 442
f 420 421 444
f 420 444 443
f 421 422 445
f 421 445 444
f 422 423 446
f 422 446 445
f 423 424 447
f 423 447 446
f 424 425 448
f 424 448 447
f 425 426 449
f 425 449 448
f 426 427 450
f 426 450 449
f 427 406 429
f 427 429 450
f 429 428 451
f 429 451 452
f 428 430 453
f 428 453 451
f 430 431 454
f 430 454 453
f 431 432 455
f 431 455 454
f 432 433 456
f 432 456 455
f 433 434 457
f 433 457 456
f 434 435 458
f 434 458 457
f 435 436 459
f 435 459 458
f 436 437 460
f 436 460 459
f 437 438 461
f 437 461 460
f 438 439 462
f 438 462 461
f 439 440 463
f 439 463 462
f 440 441 464
f 440 464 463
f 441 442 465
f 441 465 464
f 442 443 466
f 442 466 465
f 443 444 467
f 443 467 466
f 444 445 468
f 444 468 467
f 445 446 469
f 445 469 468
f 446 447 470
f 446 470 469
f 447 448 471
f 447 471 470
f 448 449 472
f 448 472 471
f 449 450 473
f 449 473 472
f 450 429 452
f 450 452 473
f 452 451 474
f 452 474 475
f 451 453 476
f 451 476 474
f 453 454 477
f 453 477 476
f 454 455 478
f 454 478 477
f 455 456 479
f 455 479 478
f 456 457 480
f 456 480 479
f 457 458 481
f 457 481 480
f 458 459 482
f 458 482 481
f 459 460 483
f 459 483 482
f 460 461 484
f 460 484 483
f 461 462 485
f 461 485 484
f 462 463 486
f 462 486 485
f 463 464 487
f 463 487 486
f 464 465 488
f 464 488 487
f 465 466 489
f 465 489 488
f 466 467 490
f 466 490 489
f 467 468 491
f 467 491 490
f 468 469 492
f 468 492 491
f 469 470 493
f 469 493 492
f 470 471 494
f 470 494 493
f 471 472 495
f 471 495 494
f 472 473 496
f 472 496 495
f 473 452 475
f 473 475 496
f 475 474 497
f 475 497 498
f 474 476 499
f 474 499 497
f 476 477 500
f 476 500 499
f 477 478 501
f 477 501 500
f 478 479 502
f 478 502 501
f 479 480 503
f 479 503 502
f 480 481 504
f 480 504 503
f 481 482 505
f 481 505 504
f 482 483 506
f 482 506 505
f 483 484 507
f 483 507 506
f 484 485 508
f 484 508 507
f 485 486 509
f 485 509 508
f 486 487 510
f 486 510 509
f 487 488 511
f 487 511 510
f 488 489 512
f 488 512 511
f 489 490 513
f 489 513 512
f 490 491 514
f 490 514 513
f 491 492 515
f 491 515 514
f 492 493 516
f 492 516 515
f 493 494 517
f 493 517 516
f 494 495 518
f 494 518 517
f 495 496 519
f 495 519 518
f 496 475 498
f 496 498 519
f 498 497 520
f 498 520 521
f 497 499 522
f 497 522 520
f 499 500 523
f 499 523 522
f 500 501 524
f 500 524 523
f 501 502 525
f 501 525 524
f 502 503 526
f 502 526 525
f 503 504 527
f 503 527 526
f 504 505 528
f 504 528 527
f 505 506 529
f 505 529 528
f 506 507 530
f 506 530 529
f 507 508 531
f 507 531 530
f 508 509 532
f 508 532 531
f 509 510 533
f 509 533 532
f 510 511 534
f 510 534 533
f 511 512 535
f 511 535 534
f 512 513 536
f 512 536 535
f 513 514 537
f 513 537 536
f 514 515 538
f 514 538 537
f 515 516 539
f 515 539 538
f 516 517 540
f 516 540 539
f 517 518 541
f 517 541 540
f 518 519 542
f 518 542 541
f 519 498 521
f 519 521 542
f 521 520 543
f 521 543 544
f 520 522 545
f 520 545 543
f 522 523 546
f 522 546 545
f 523 524 547
f 523 547 546
f 524 525 548
f 524 548 547
f 525 526 549
f 525 549 548
f 526 527 550
f 526 550 549
f 527 528 551
f 527 551 550
f 528 529 552
f 528 552 551
f 529 530 553
f 529 553 552
f 530 531 554
f 530 554 553
f 531 532 555
f 531 555 554
f 532 533 556
f 532 556 555
f 533 534 557
f 533 557 556
f 534 535 558
f 534 558 557
f 535 536 559
f 535 559 558
f 536 537 560
f 536 560 559
f 537 538 561
f 537 561 560
f 538 539 562
f 538 562 561
f 539 540 563
f 539 563 562
f 540 541 564
f 540 564 563
f 541 542 565
f 541 565 564
f 542 521 544
f 542 544 565
f 544 543 566
f 544 566 567
f 543 545 568
f 543 568 566
f 545 546 569
f 545 569 568
f 546 547 570
f 546 570 569
f 547 548 571
f 547 571 570
f 548 549 572
f 548 572 571
f 549 550 573
f 549 573 572
f 550 551 574
f 550 574 573
f 551 552 575
f 551 575 574
f 552 553 576
f 552 576 575
f 553 554 577
f 553 577 576
f 554 555 578
f 554 578 577
f 555 556 579
f 555 579 578
f 556 557 580
f 556 580 579
f 557 558 581
f 557 581 580
f 558 559 582
f 558 582 581
f 559 560 583
f 559 583 582
f 560 561 584
f 560 584 583
f 561 562 585
f 561 585 584
f 562 563 586
f 562 586 585
f 563 564 587
f 563 587 586
f 564 565 588
f 564 588 587
f 565 544 567
f 565 567 588
f 567 566 589
f 567 589 590
f 566 568 591
f 566 591 589
f 568 569 592
f 568 592 591
f 569 570 593
f 569 593 592
f 570 571 594
f 570 594 593
f 571 572 595
f 571 595 594
f 572 573 596
f 572 596 595
f 573 574 597
f 573 597 596
f 574 575 598
f 574 598 597
f 575 576 599
f 575 599 598
f 576 577 600
f 576 600 599
f 577 578 601
f 577 601 600
f 578 579 602
f 578 602 601
f 579 580 603
f 579 603 602
f 580 581 604
f 580 604 603
f 581 582 605
f 581 605 604
f 582 583 606
f 582 606 605
f 583 584 607
f 583 607 606
f 584 585 608
f 584 608 607
f 585 586 609
f 585 609 608
f 586 587 610
f 586 610 609
f 587 588 611
f 587 611 610
f 588 567 590
f 588 590 611
f 590 589 612
f 590 612 613
f 589 591 614
f 589 614 612
f 591 592 615
f 591 615 614
f 592 593 616
f 592 616 615
f 593 594 617
f 593 617 616
f 594 595 618
f 594 618 617
f 595 596 619
f 595 619 618
f 596 597 620
f 596 620 619
f 597 598 621
f 597 621 620
f 598 599 622
f 598 622 621
f 599 600 623
f 599 623 622
f 600 601 624
f 600 624 623
f 601 602 625
f 601 625 624
f 602 603 626
f 602 626 625
f 603 604 627
f 603 627 626
f 604 605 628
f 604 628 627
f 605 606 629
f 605 629 628
f 606 607 630
f 606 630 629
f 607 608 631
f 607 631 630
f 608 609 632
f 608 632 631
f 609 610 633
f 609 633 632
f 610 611 634
f 610 634 633
f 611 590 613
f 611 613 634
f 613 612 635
f 613 635 636
f 612 614 637
f 612 637 635
f 614 615 638
f 614 638 637
f 615 616 639
f 615 639 638
f 616 617 640
f 616 640 639
f 617 618 641
f 617 641 640
f 618 619 642
f 618 642 641
f 619 620 643
f 619 643 642
f 620 621 644
f 620 644 643
f 621 622 645
f 621 645 644
f 622 623 646
f 622 646 645
f 623 624 647
f 623 647 646
f 624 625 648
f 624 648 647
f 625 626 649
f 625 649 648
f 626 627 650
f 626 650 649
f 627 628 651
f 627 651 650
f 628 629 652
f 628 652 651
f 629 630 653
f 629 653 652
f 630 631 654
f 630 654 653
f 631 632 655
f 631 655 654
f 632 633 656
f 632 656 655
f 633 634 657
f 633 657 656
f 634 613 636
f 634 636 657
f 636 635 175
f 636 175 174
f 635 637 177
f 635 177 175
f 637 638 178
f 637 178 177
f 638 639 179
f 638 179 178
f 639 640 180
f 639 180 179
f 640 641 181
f 640 181 180
f 641 642 182
f 641 182 181
f 642 643 183
f 642 183 182
f 643 644 184
f 643 184 183
f 644 645 185
f 644 185 184
f 645 646 186
f 645 186 185
f 646 647 187
f 646 187 186
f 647 648 188
f 647 188 187
f 648 649 189
f 648 189 188
f 649 650 190
f 649 190 189
f 650 651 191
f 650 191 190
f 651 652 192
f 651 192 191
f 652 653 193
f 652 193 192
f 653 654 194
f 653 194 193
f 654 655 195
f 654 195 194
f 655 656 196
f 655 196 195
f 656 657 197
f 656 197 196
f 657 636 174
f 657 174 197