# https://github.com/mikedh/trimesh
v -0.00995920 -0.01423268 0.00465799
v -0.02322149 -0.01631207 0.00465799
v 0.00037038 0.00180498 0.00465799
v 0.01852212 -0.00406192 0.00465799
v 0.00457608 -0.00997232 0.00465799
v -0.01778135 0.00767189 0.00465799
v -0.00383532 0.01358227 0.00465799
v 0.01069994 0.01784264 0.00465799
v 0.02396223 0.01992202 0.00465799
v 0.03412333 0.01961486 0.00465799
v -0.03338258 -0.01600490 0.00465799
v -0.03871888 -0.01380315 0.00465799
v 0.03945963 0.01741311 0.00465799
v 0.04050431 0.01448769 0.00465799
v -0.03976355 -0.01087773 0.00465799
v -0.03702896 -0.00579384 0.00465799
v 0.03776972 0.00940380 0.00465799
v 0.03010163 0.00272978 0.00465799
v -0.02936086 0.00088019 0.00465799
v 0.00608658 -0.01420216 0.12573978
v 0.02050164 -0.00818788 0.12588797
v 0.00037406 0.00179467 0.12466466
v 0.03529206 -0.00035117 0.12537830
v 0.04095233 0.00701979 0.12502157
v 0.04422801 0.01424248 0.12417105
v 0.04218578 0.01996141 0.12417105
v 0.03507602 0.02347543 0.12417139
v 0.02376826 0.02434882 0.12417225
v 0.00966474 0.02246495 0.12417405
v -0.00545252 0.01811094 0.12417588
v -0.01990821 0.01190435 0.12417405
v -0.03201484 0.00442851 0.12417225
v -0.04021155 -0.00340998 0.12417139
v -0.04348721 -0.01063266 0.12417105
v -0.04144496 -0.01635158 0.12417105
v -0.03433518 -0.01986559 0.12475928
v -0.02528629 -0.02198388 0.12537830
v -0.00887745 -0.01867924 0.12588797
v 0.01955068 -0.00610876 0.00732068
v 0.02369437 -0.01023387 0.03998414
v 0.00723520 -0.01741865 0.03586780
v 0.00534614 -0.01212871 0.00732068
v 0.03144180 0.00086570 0.00732068
v 0.03744601 -0.00155927 0.05118864
v 0.03958524 0.00795345 0.00732068
v 0.04652716 0.00745016 0.03998414
v 0.04299878 0.01429960 0.00732068
v 0.05014680 0.01581645 0.03998414
v 0.04127072 0.01913872 0.00732068
v 0.04776268 0.02249275 0.03998414
v 0.03460948 0.02188713 0.00732068
v 0.03966234 0.02667380 0.03998414
v 0.02381849 0.02221334 0.00732068
v 0.02682282 0.02785529 0.03998414
v 0.01019931 0.02007800 0.00732068
v 0.01079274 0.02589474 0.03998414
v -0.00460538 0.01573867 0.00732068
v -0.00649443 0.02102861 0.03998414
v -0.01880991 0.00971872 0.00732068
v -0.02295360 0.01384382 0.03998414
v -0.03070103 0.00274427 0.00732068
v -0.03659955 0.00520697 0.03998414
v -0.03884446 -0.00434349 0.00732068
v -0.04578640 -0.00384021 0.03998414
v -0.04225803 -0.01068965 0.00732068
v -0.04940605 -0.01220649 0.03998414
v -0.04052997 -0.01552876 0.00732068
v -0.04702193 -0.01888279 0.03998414
v -0.03386872 -0.01827718 0.00732068
v -0.03892160 -0.02306383 0.03998414
v -0.02307775 -0.01860338 0.00732068
v -0.02681466 -0.02450694 0.05168510
v -0.00945858 -0.01646805 0.00732068
v -0.01005201 -0.02228479 0.03998414
v 0.02589301 -0.01205017 0.07230547
v 0.00811199 -0.01987395 0.07230547
v 0.04513064 -0.00093579 0.07230547
v 0.05044649 0.00746557 0.07230547
v 0.05425743 0.01680364 0.07230547
v 0.05156879 0.02433265 0.07230547
v 0.04270488 0.02914449 0.07230547
v 0.02873480 0.03065877 0.07230547
v 0.01134355 0.02869288 0.07230547
v -0.00737122 0.02348390 0.07230547
v -0.02515223 0.01566012 0.07230547
v -0.03985486 0.00616521 0.07230547
v -0.04970572 -0.00385561 0.07230547
v -0.05351667 -0.01319368 0.07230547
v -0.05082804 -0.02072269 0.07230547
v -0.04196414 -0.02553453 0.07230547
v -0.03252908 -0.02866830 0.07230547
v -0.01060282 -0.02508294 0.07230547
v 0.02278770 -0.00979253 0.10616959
v 0.00688736 -0.01644460 0.11076376
v 0.04083679 -0.00068090 0.09041945
v 0.04517778 0.00723106 0.10194555
v 0.04867807 0.01538322 0.10194555
v 0.04635176 0.02189764 0.10194555
v 0.03847941 0.02598859 0.10194555
v 0.02601054 0.02716264 0.10194555
v 0.01044910 0.02527818 0.10194555
v -0.00632798 0.02056251 0.10194555
v -0.02229714 0.01358440 0.10194555
v -0.03553227 0.00518552 0.10194555
v -0.04443701 -0.00362110 0.10194555
v -0.04793731 -0.01177327 0.10194555
v -0.04561100 -0.01828768 0.10194555
v -0.03773866 -0.02237864 0.10194555
v -0.02936795 -0.02575121 0.09041945
v -0.00962998 -0.02136898 0.10616959
v -0.00964256 -0.01564655 0.00563652
v -0.02313057 -0.01776132 0.00563652
v -0.03369007 -0.01744211 0.00563652
v -0.03986438 -0.01489460 0.00563652
v -0.04134131 -0.01075876 0.00563652
v -0.03817727 -0.00487649 0.00563652
v -0.03020852 0.00205922 0.00563652
v -0.01843192 0.00896651 0.00563652
v -0.00432238 0.01494619 0.00563652
v 0.01038329 0.01925651 0.00563652
v 0.02387131 0.02137128 0.00563652
v 0.03443081 0.02105207 0.00563652
v 0.04060515 0.01850456 0.00563652
v 0.04208207 0.01436872 0.00563652
v 0.03891803 0.00848645 0.00563652
v 0.03094928 0.00155074 0.00563652
v 0.01917268 -0.00535655 0.00563652
v 0.00506314 -0.01133623 0.00563652
v 0.02077834 -0.00833169 0.12562775
v 0.00619270 -0.01449934 0.12548247
v 0.03561037 -0.00037065 0.12510953
v 0.04127442 0.00705732 0.12475044
v 0.04454627 0.01433132 0.12389560
v 0.04248827 0.02009439 0.12389560
v 0.03535034 0.02365157 0.12389480
v 0.02399328 0.02457380 0.12389356
v 0.00978681 0.02274978 0.12389245
v -0.00555554 0.01839942 0.12389201
v -0.02018310 0.01204744 0.12389245
v -0.03233147 0.00446007 0.12389356
v -0.04053539 -0.00344745 0.12389480
v -0.04380550 -0.01072137 0.12389560
v -0.04174751 -0.01648444 0.12389560
v -0.03460861 -0.02004089 0.12448645
v -0.02552026 -0.02220057 0.12510953
v -0.00900048 -0.01896579 0.12562775
v 0.02068176 -0.00827925 0.12581304
v 0.00615488 -0.01439341 0.12566669
v 0.03549599 -0.00036368 0.12529713
v 0.04115678 0.00704490 0.12493844
v 0.04442812 0.01429882 0.12408452
v 0.04237627 0.02004466 0.12408452
v 0.03525050 0.02358591 0.12408438
v 0.02391394 0.02449176 0.12408426
v 0.00974581 0.02264942 0.12408447
v -0.00551991 0.01829965 0.12408490
v -0.02008780 0.01199575 0.12408447
v -0.03221810 0.00444684 0.12408426
v -0.04041654 -0.00343501 0.12408438
v -0.04368735 -0.01068891 0.12408453
v -0.04163550 -0.01643475 0.12408452
v -0.03450941 -0.01997577 0.12467494
v -0.02543616 -0.02212272 0.12529714
v -0.00895896 -0.01886404 0.12581304
v 0.00805602 -0.01970899 0.03317701
v 0.02563914 -0.01203358 0.03757445
v 0.02798792 -0.01397391 0.07210289
v 0.00899269 -0.02233196 0.07210289
v 0.04032983 -0.00276662 0.04954407
v 0.04853922 -0.00210056 0.07210289
v -0.02831899 -0.02728132 0.05007443
v -0.01041167 -0.02490742 0.03757445
v -0.01100010 -0.02789665 0.07210289
v -0.03442364 -0.03172684 0.07210289
v 0.01937212 -0.00771003 0.16606000
v 0.00584452 -0.01351611 0.17096790
v 0.03025549 -0.00101521 0.14923433
v -0.00830091 -0.01759216 0.16606000
v -0.02096316 -0.01930554 0.14923433
v 0.00270015 -0.00552889 0.24708625
v 0.00493120 -0.00401850 0.24708625
v 0.00037037 0.00099523 0.24983562
v 0.00637572 -0.00153670 0.24708625
v 0.00687355 0.00122479 0.24708625
v 0.00670120 0.00296307 0.24708625
v 0.00651566 0.00348264 0.24708625
v 0.00554794 0.00493690 0.24708625
v 0.00341352 0.00675840 0.24708625
v 0.00072370 0.00776382 0.24708625
v -0.00195941 0.00751934 0.24708625
v -0.00419046 0.00600895 0.24708625
v -0.00563498 0.00352715 0.24708625
v -0.00613281 0.00076567 0.24708625
v -0.00596046 -0.00097262 0.24708625
v -0.00577493 -0.00149219 0.24708625
v -0.00480721 -0.00294644 0.24708625
v -0.00267279 -0.00476794 0.24708625
v 0.00001703 -0.00577336 0.24708625
v 0.00307994 -0.00659242 0.22866369
v 0.00679188 -0.00451015 0.22866369
v 0.00679188 -0.00451015 0.23984739
v 0.00307994 -0.00659243 0.23984739
v 0.00948113 -0.00144575 0.22866369
v 0.00948113 -0.00144575 0.23984739
v 0.01077918 0.00186496 0.22866369
v 0.01077918 0.00186496 0.23984739
v 0.01082070 0.00413393 0.22866369
v 0.01082070 0.00413393 0.23984739
v 0.01044499 0.00518605 0.22866369
v 0.01044499 0.00518605 0.23984739
v 0.00897563 0.00691548 0.22866369
v 0.00897563 0.00691548 0.23984739
v 0.00587409 0.00865508 0.22866369
v 0.00587409 0.00865508 0.23984739
v 0.00185207 0.00932287 0.22866369
v 0.00185207 0.00932287 0.23984739
v -0.00233921 0.00858288 0.22866369
v -0.00233920 0.00858288 0.23984739
v -0.00605115 0.00650061 0.22866369
v -0.00605115 0.00650061 0.23984739
v -0.00874040 0.00343620 0.22866369
v -0.00874040 0.00343620 0.23984739
v -0.01003845 0.00012549 0.22866369
v -0.01003845 0.00012549 0.23984739
v -0.01007997 -0.00214348 0.22866369
v -0.01007997 -0.00214348 0.23984739
v -0.00970426 -0.00319560 0.22866369
v -0.00970426 -0.00319560 0.23984739
v -0.00823490 -0.00492502 0.22866369
v -0.00823490 -0.00492502 0.23984739
v -0.00513337 -0.00666462 0.22866369
v -0.00513337 -0.00666462 0.23984739
v -0.00111134 -0.00733242 0.22866369
v -0.00111134 -0.00733242 0.23984739
v 0.00262613 -0.00148453 0.23984738
v 0.00152266 -0.00223156 0.23984738
v 0.00334058 -0.00025705 0.23984738
v 0.00358680 0.00110877 0.23984738
v 0.00350156 0.00196851 0.23984738
v 0.00340979 0.00222549 0.23984738
v 0.00293116 0.00294475 0.23984738
v 0.00187549 0.00384566 0.23984738
v 0.00054512 0.00434293 0.23984738
v -0.00078193 0.00422201 0.23984738
v -0.00188539 0.00347498 0.23984738
v -0.00259984 0.00224750 0.23984738
v -0.00284606 0.00088169 0.23984738
v -0.00276082 0.00002194 0.23984738
v -0.00266906 -0.00023503 0.23984738
v -0.00219043 -0.00095430 0.23984738
v -0.00113476 -0.00185520 0.23984738
v 0.00019561 -0.00235247 0.23984738
v -0.01065943 -0.01613824 0.00000000
v -0.02482736 -0.01835962 0.00000000
v 0.00037554 0.00099459 -0.00000000
v 0.01976680 -0.00527294 -0.00000000
v 0.00486843 -0.01158694 0.00000000
v -0.01901573 0.00726213 0.00000000
v -0.00411737 0.01357612 -0.00000000
v 0.01141046 0.01812742 -0.00000000
v 0.02557839 0.02034880 -0.00000000
v 0.03643337 0.02002066 -0.00000000
v -0.03568231 -0.01803147 0.00000000
v -0.04138301 -0.01567938 0.00000000
v 0.04213407 0.01766857 -0.00000000
v 0.04325009 0.01454337 -0.00000000
v -0.04249902 -0.01255418 0.00000000
v -0.03957770 -0.00712313 0.00000000
v 0.04032877 0.00911232 -0.00000000
v 0.03213704 0.00198255 -0.00000000
v -0.03138597 0.00000664 0.00000000
v 0.02086560 -0.00745955 0.00284451
v 0.02529225 -0.01186634 0.03773845
v 0.00770913 -0.01954177 0.03334102
v 0.00569107 -0.01389059 0.00284451
v 0.03356873 -0.00000882 0.00284451
v 0.03998295 -0.00259939 0.04970808
v 0.04226825 0.00756293 0.00284451
v 0.04968422 0.00702528 0.03773845
v 0.04591490 0.01434244 0.00284451
v 0.05355104 0.01596287 0.03773845
v 0.04406883 0.01951201 0.00284451
v 0.05100410 0.02309508 0.03773845
v 0.03695271 0.02244810 0.00284451
v 0.04235062 0.02756164 0.03773845
v 0.02542484 0.02279659 0.00284451
v 0.02863433 0.02882381 0.03773845
v 0.01087565 0.02051543 0.00284451
v 0.01150960 0.02672938 0.03773845
v -0.00494001 0.01587977 0.00284451
v -0.00695806 0.02153094 0.03773845
v -0.02011453 0.00944874 0.00284451
v -0.02454117 0.01385552 0.03773845
v -0.03281765 0.00199801 0.00284451
v -0.03911897 0.00462889 0.03773846
v -0.04151718 -0.00557374 0.00284451
v -0.04893315 -0.00503610 0.03773846
v -0.04516383 -0.01235326 0.00284451
v -0.05279998 -0.01397369 0.03773846
v -0.04331778 -0.01752282 0.00284451
v -0.05025305 -0.02110590 0.03773846
v -0.03620165 -0.02045892 0.00284451
v -0.04159957 -0.02557245 0.03773846
v -0.02467380 -0.02080740 0.00284451
v -0.02866589 -0.02711410 0.05023843
v -0.01012462 -0.01852625 0.00284451
v -0.01075856 -0.02474020 0.03773846
v 0.02764104 -0.01380668 0.07226690
v 0.00864580 -0.02216473 0.07226690
v 0.04819235 -0.00193333 0.07226690
v 0.05387120 0.00704174 0.07226690
v 0.05794237 0.01701747 0.07226690
v 0.05507013 0.02506062 0.07226690
v 0.04560093 0.03020105 0.07226690
v 0.03067687 0.03181874 0.07226690
v 0.01209803 0.02971858 0.07226690
v -0.00789472 0.02415390 0.07226690
v -0.02688995 0.01579585 0.07226691
v -0.04259657 0.00565256 0.07226691
v -0.05312011 -0.00505255 0.07226691
v -0.05719129 -0.01502829 0.07226691
v -0.05431908 -0.02307144 0.07226691
v -0.04484988 -0.02821187 0.07226690
v -0.03477053 -0.03155962 0.07226690
v -0.01134699 -0.02772943 0.07226690
v 0.01902524 -0.00754280 0.16622401
v 0.00549764 -0.01334888 0.17113191
v 0.02990860 -0.00084798 0.14939833
v 0.03797185 0.00633405 0.16171152
v 0.04110561 0.01273108 0.16171152
v 0.03932673 0.01771251 0.16171152
v 0.03284975 0.02067751 0.16171152
v 0.02245591 0.02126847 0.16171152
v 0.00939885 0.01941409 0.16171152
v -0.00474655 0.01533804 0.16171152
v -0.01827416 0.00953197 0.16171152
v -0.02955233 0.00269616 0.16171152
v -0.03722077 -0.00434488 0.16171152
v -0.04035453 -0.01074191 0.16171152
v -0.03857565 -0.01572335 0.16171151
v -0.03209870 -0.01868835 0.16171151
v -0.02131005 -0.01913832 0.14939833
v -0.00864780 -0.01742493 0.16622401
v 0.00474134 -0.01123103 0.18319901
v 0.01695545 -0.00603802 0.18319901
v 0.02045832 -0.00760501 0.19533147
v 0.00569108 -0.01389060 0.19533147
v 0.02716976 0.00000323 0.18319901
v 0.03280327 -0.00028218 0.19533147
v 0.03415231 0.00616405 0.18319901
v 0.04123697 0.00719465 0.19533147
v 0.03706087 0.01170135 0.18319901
v 0.04474216 0.01392364 0.19533147
v 0.03554464 0.01594726 0.18319901
v 0.04289609 0.01909321 0.19533147
v 0.02978650 0.01838966 0.18319901
v 0.03592142 0.02207982 0.19533147
v 0.02048096 0.01873395 0.18319901
v 0.02465939 0.02252323 0.19533147
v 0.00875042 0.01693861 0.18319901
v 0.01046837 0.02036997 0.19533147
v -0.00399026 0.01322019 0.18319901
v -0.00494000 0.01587976 0.19533147
v -0.01620436 0.00802718 0.18319901
v -0.01970723 0.00959417 0.19533147
v -0.02641868 0.00198594 0.18319901
v -0.03205219 0.00227134 0.19533147
v -0.03340122 -0.00417488 0.18319901
v -0.04048588 -0.00520547 0.19533147
v -0.03630980 -0.00971219 0.18319901
v -0.04399109 -0.01193448 0.19533147
v -0.03479358 -0.01395810 0.18319901
v -0.04214503 -0.01710405 0.19533147
v -0.02903544 -0.01640049 0.18319901
v -0.03517036 -0.02009066 0.19533147
v -0.01972991 -0.01674479 0.18319901
v -0.02390834 -0.02053407 0.19533147
v -0.00799937 -0.01494946 0.18319901
v -0.00971732 -0.01838082 0.19533147
v 0.00995354 -0.00500549 0.22286369
v 0.00355060 -0.00789659 0.22286369
v 0.01520124 -0.00139071 0.22286369
v 0.01866073 0.00251178 0.22286369
v 0.01991476 0.00623128 0.22286369
v 0.01881207 0.00931915 0.22286369
v 0.01548567 0.01140295 0.22286369
v 0.01033675 0.01223135 0.22286369
v 0.00398638 0.01170443 0.22286369
v -0.00279952 0.00988574 0.22286369
v -0.00920246 0.00699465 0.22286369
v -0.01445015 0.00337987 0.22286369
v -0.01790964 -0.00052262 0.22286369
v -0.01916368 -0.00424211 0.22286369
v -0.01806100 -0.00732999 0.22286369
v -0.01473459 -0.00941379 0.22286369
v -0.00958569 -0.01024219 0.22286369
v -0.00323531 -0.00971528 0.22286369
v -0.01032116 -0.01764866 0.00104534
v -0.02473023 -0.01990784 0.00104534
v -0.03601080 -0.01956683 0.00104534
v -0.04260674 -0.01684536 0.00104534
v -0.04418453 -0.01242710 0.00104534
v -0.04080442 -0.00614314 0.00104534
v -0.03229151 0.00126619 0.00104534
v -0.01971072 0.00864516 0.00104534
v -0.00463769 0.01503318 0.00104533
v 0.01107219 0.01963784 0.00104533
v 0.02548127 0.02189702 0.00104533
v 0.03676185 0.02155602 0.00104533
v 0.04335781 0.01883454 0.00104533
v 0.04493558 0.01441628 0.00104533
v 0.04155549 0.00813233 0.00104533
v 0.03304258 0.00072300 0.00104533
v 0.02046179 -0.00665597 0.00104533
v 0.00538875 -0.01304399 0.00104534
v 0.00679706 -0.00451080 0.22865587
v 0.00308512 -0.00659308 0.22865587
v 0.00948630 -0.00144640 0.22865587
v 0.01078435 0.00186432 0.22865587
v 0.01082588 0.00413328 0.22865587
v 0.01045016 0.00518541 0.22865587
v 0.00898080 0.00691483 0.22865587
v 0.00587927 0.00865443 0.22865587
v 0.00185724 0.00932222 0.22865587
v -0.00233403 0.00858223 0.22865587
v -0.00604598 0.00649996 0.22865587
v -0.00873522 0.00343555 0.22865587
v -0.01003328 0.00012484 0.22865587
v -0.01007480 -0.00214413 0.22865587
v -0.00969909 -0.00319625 0.22865587
v -0.00822973 -0.00492567 0.22865587
v -0.00512820 -0.00666528 0.22865587
v -0.00110617 -0.00733307 0.22865587
f 1 2 3
f 4 5 3
f 6 7 3
f 3 7 8
f 9 10 3
f 3 5 1
f 11 12 3
f 3 8 9
f 13 14 3
f 3 2 11
f 15 16 3
f 3 10 13
f 17 18 3
f 3 12 15
f 19 6 3
f 3 14 17
f 18 4 3
f 3 16 19
f 20 21 22
f 21 23 22
f 23 24 22
f 24 25 22
f 25 26 22
f 26 27 22
f 27 28 22
f 28 29 22
f 29 30 22
f 30 31 22
f 31 32 22
f 32 33 22
f 33 34 22
f 34 35 22
f 35 36 22
f 36 37 22
f 37 38 22
f 38 20 22
f 39 40 41
f 39 41 42
f 43 44 40
f 43 40 39
f 45 46 44
f 45 44 43
f 47 48 46
f 47 46 45
f 49 50 48
f 49 48 47
f 51 52 50
f 51 50 49
f 53 54 52
f 53 52 51
f 55 56 54
f 55 54 53
f 57 58 56
f 57 56 55
f 59 60 58
f 59 58 57
f 61 62 60
f 61 60 59
f 63 64 62
f 63 62 61
f 65 66 64
f 65 64 63
f 67 68 66
f 67 66 65
f 69 70 68
f 69 68 67
f 71 72 70
f 71 70 69
f 73 74 72
f 73 72 71
f 42 41 74
f 42 74 73
f 41 40 75
f 41 75 76
f 40 44 77
f 40 77 75
f 44 46 78
f 44 78 77
f 46 48 79
f 46 79 78
f 48 50 80
f 48 80 79
f 50 52 81
f 50 81 80
f 52 54 82
f 52 82 81
f 54 56 83
f 54 83 82
f 56 58 84
f 56 84 83
f 58 60 85
f 58 85 84
f 60 62 86
f 60 86 85
f 62 64 87
f 62 87 86
f 64 66 88
f 64 88 87
f 66 68 89
f 66 89 88
f 68 70 90
f 68 90 89
f 70 72 91
f 70 91 90
f 72 74 92
f 72 92 91
f 74 41 76
f 74 76 92
f 76 75 93
f 76 93 94
f 75 77 95
f 75 95 93
f 77 78 96
f 77 96 95
f 78 79 97
f 78 97 96
f 80 98 97
f 80 97 79
f 81 99 98
f 81 98 80
f 82 100 99
f 82 99 81
f 83 101 100
f 83 100 82
f 84 102 101
f 84 101 83
f 84 85 103
f 84 103 102
f 85 86 104
f 85 104 103
f 86 87 105
f 86 105 104
f 87 88 106
f 87 106 105
f 89 107 106
f 89 106 88
f 90 108 107
f 90 107 89
f 91 109 108
f 91 108 90
f 92 110 109
f 92 109 91
f 76 94 110
f 76 110 92
f 2 1 111
f 2 111 112
f 11 2 112
f 11 112 113
f 12 11 113
f 12 113 114
f 15 12 114
f 15 114 115
f 16 15 115
f 16 115 116
f 19 16 116
f 19 116 117
f 6 19 117
f 6 117 118
f 7 6 118
f 7 118 119
f 8 7 119
f 8 119 120
f 9 8 120
f 9 120 121
f 10 9 121
f 10 121 122
f 13 10 122
f 13 122 123
f 14 13 123
f 14 123 124
f 17 14 124
f 17 124 125
f 18 17 125
f 18 125 126
f 4 18 126
f 4 126 127
f 5 4 127
f 5 127 128
f 1 5 128
f 1 128 111
f 39 42 128
f 39 128 127
f 43 39 127
f 43 127 126
f 45 43 126
f 45 126 125
f 47 45 125
f 47 125 124
f 49 47 124
f 49 124 123
f 51 49 123
f 51 123 122
f 53 51 122
f 53 122 121
f 55 53 121
f 55 121 120
f 57 55 120
f 57 120 119
f 59 57 119
f 59 119 118
f 61 59 118
f 61 118 117
f 63 61 117
f 63 117 116
f 65 63 116
f 65 116 115
f 67 65 115
f 67 115 114
f 69 67 114
f 69 114 113
f 71 69 113
f 71 113 112
f 73 71 112
f 73 112 111
f 42 73 111
f 42 111 128
f 129 130 94
f 129 94 93
f 131 129 93
f 131 93 95
f 131 95 96
f 131 96 132
f 133 132 96
f 133 96 97
f 133 97 98
f 133 98 134
f 99 135 134
f 99 134 98
f 100 136 135
f 100 135 99
f 101 137 136
f 101 136 100
f 102 138 137
f 102 137 101
f 139 138 102
f 139 102 103
f 140 139 103
f 140 103 104
f 141 140 104
f 141 104 105
f 142 141 105
f 142 105 106
f 142 106 107
f 142 107 143
f 108 144 143
f 108 143 107
f 145 144 108
f 145 108 109
f 110 146 145
f 110 145 109
f 94 130 146
f 94 146 110
f 130 129 147
f 130 147 148
f 129 131 149
f 129 149 147
f 131 132 150
f 131 150 149
f 132 133 151
f 132 151 150
f 133 134 152
f 133 152 151
f 134 135 153
f 134 153 152
f 135 136 154
f 135 154 153
f 136 137 155
f 136 155 154
f 137 138 156
f 137 156 155
f 138 139 157
f 138 157 156
f 139 140 158
f 139 158 157
f 140 141 159
f 140 159 158
f 141 142 160
f 141 160 159
f 142 143 161
f 142 161 160
f 143 144 162
f 143 162 161
f 144 145 163
f 144 163 162
f 145 146 164
f 145 164 163
f 146 130 148
f 146 148 164
f 21 20 148
f 21 148 147
f 23 21 147
f 23 147 149
f 24 23 149
f 24 149 150
f 25 24 150
f 25 150 151
f 26 25 151
f 26 151 152
f 27 26 152
f 27 152 153
f 28 27 153
f 28 153 154
f 29 28 154
f 29 154 155
f 30 29 155
f 30 155 156
f 31 30 156
f 31 156 157
f 32 31 157
f 32 157 158
f 33 32 158
f 33 158 159
f 34 33 159
f 34 159 160
f 35 34 160
f 35 160 161
f 36 35 161
f 36 161 162
f 37 36 162
f 37 162 163
f 38 37 163
f 38 163 164
f 20 38 164
f 20 164 148
f 165 166 167
f 165 167 168
f 166 169 170
f 166 170 167
f 171 172 173
f 171 173 174
f 172 165 168
f 172 168 173
f 168 167 175
f 168 175 176
f 167 170 177
f 167 177 175
f 173 178 179
f 173 179 174
f 168 176 178
f 168 178 173
f 180 181 182
f 181 183 182
f 183 184 182
f 184 185 182
f 185 186 182
f 186 187 182
f 187 188 182
f 188 189 182
f 189 190 182
f 190 191 182
f 191 192 182
f 192 193 182
f 193 194 182
f 194 195 182
f 195 196 182
f 196 197 182
f 197 198 182
f 198 180 182
f 199 200 201
f 199 201 202
f 200 203 204
f 200 204 201
f 203 205 206
f 203 206 204
f 205 207 208
f 205 208 206
f 207 209 210
f 207 210 208
f 209 211 212
f 209 212 210
f 211 213 214
f 211 214 212
f 213 215 216
f 213 216 214
f 215 217 218
f 215 218 216
f 217 219 220
f 217 220 218
f 219 221 222
f 219 222 220
f 221 223 224
f 221 224 222
f 223 225 226
f 223 226 224
f 225 227 228
f 225 228 226
f 227 229 230
f 227 230 228
f 229 231 232
f 229 232 230
f 231 233 234
f 231 234 232
f 233 199 202
f 233 202 234
f 202 201 235
f 202 235 236
f 201 204 237
f 201 237 235
f 204 206 238
f 204 238 237
f 206 208 239
f 206 239 238
f 208 210 240
f 208 240 239
f 210 212 241
f 210 241 240
f 212 214 242
f 212 242 241
f 214 216 243
f 214 243 242
f 216 218 244
f 216 244 243
f 218 220 245
f 218 245 244
f 220 222 246
f 220 246 245
f 222 224 247
f 222 247 246
f 224 226 248
f 224 248 247
f 226 228 249
f 226 249 248
f 228 230 250
f 228 250 249
f 230 232 251
f 230 251 250
f 232 234 252
f 232 252 251
f 234 202 236
f 234 236 252
f 236 235 181
f 236 181 180
f 235 237 183
f 235 183 181
f 237 238 184
f 237 184 183
f 238 239 185
f 238 185 184
f 239 240 186
f 239 186 185
f 240 241 187
f 240 187 186
f 241 242 188
f 241 188 187
f 242 243 189
f 242 189 188
f 243 244 190
f 243 190 189
f 244 245 191
f 244 191 190
f 245 246 192
f 245 192 191
f 246 247 193
f 246 193 192
f 247 248 194
f 247 194 193
f 248 249 195
f 248 195 194
f 249 250 196
f 249 196 195
f 250 251 197
f 250 197 196
f 251 252 198
f 251 198 197
f 252 236 180
f 252 180 198
f 253 254 255
f 256 257 255
f 258 259 255
f 255 259 260
f 261 262 255
f 255 257 253
f 263 264 255
f 255 260 261
f 265 266 255
f 255 254 263
f 267 268 255
f 255 262 265
f 269 270 255
f 255 264 267
f 271 258 255
f 255 266 269
f 270 256 255
f 255 268 271
f 272 273 274
f 272 274 275
f 276 277 273
f 276 273 272
f 278 279 277
f 278 277 276
f 280 281 279
f 280 279 278
f 282 283 281
f 282 281 280
f 284 285 283
f 284 283 282
f 286 287 285
f 286 285 284
f 288 289 287
f 288 287 286
f 290 291 289
f 290 289 288
f 292 293 291
f 292 291 290
f 294 295 293
f 294 293 292
f 296 297 295
f 296 295 294
f 298 299 297
f 298 297 296
f 300 301 299
f 300 299 298
f 302 303 301
f 302 301 300
f 304 305 303
f 304 303 302
f 306 307 305
f 306 305 304
f 275 274 307
f 275 307 306
f 274 273 308
f 274 308 309
f 273 277 310
f 273 310 308
f 277 279 311
f 277 311 310
f 279 281 312
f 279 312 311
f 281 283 313
f 281 313 312
f 283 285 314
f 283 314 313
f 285 287 315
f 285 315 314
f 287 289 316
f 287 316 315
f 289 291 317
f 289 317 316
f 291 293 318
f 291 318 317
f 293 295 319
f 293 319 318
f 295 297 320
f 295 320 319
f 297 299 321
f 297 321 320
f 299 301 322
f 299 322 321
f 301 303 323
f 301 323 322
f 303 305 324
f 303 324 323
f 305 307 325
f 305 325 324
f 307 274 309
f 307 309 325
f 309 308 326
f 309 326 327
f 308 310 328
f 308 328 326
f 310 311 329
f 310 329 328
f 311 312 330
f 311 330 329
f 313 331 330
f 313 330 312
f 314 332 331
f 314 331 313
f 315 333 332
f 315 332 314
f 316 334 333
f 316 333 315
f 317 335 334
f 317 334 316
f 317 318 336
f 317 336 335
f 318 319 337
f 318 337 336
f 319 320 338
f 319 338 337
f 320 321 339
f 320 339 338
f 322 340 339
f 322 339 321
f 323 341 340
f 323 340 322
f 324 342 341
f 324 341 323
f 325 343 342
f 325 342 324
f 309 327 343
f 309 343 325
f 344 345 346
f 344 346 347
f 345 348 349
f 345 349 346
f 348 350 351
f 348 351 349
f 350 352 353
f 350 353 351
f 352 354 355
f 352 355 353
f 354 356 357
f 354 357 355
f 356 358 359
f 356 359 357
f 358 360 361
f 358 361 359
f 360 362 363
f 360 363 361
f 362 364 365
f 362 365 363
f 364 366 367
f 364 367 365
f 366 368 369
f 366 369 367
f 368 370 371
f 368 371 369
f 370 372 373
f 370 373 371
f 372 374 375
f 372 375 373
f 374 376 377
f 374 377 375
f 376 378 379
f 376 379 377
f 378 344 347
f 378 347 379
f 347 346 380
f 347 380 381
f 346 349 382
f 346 382 380
f 349 351 383
f 349 383 382
f 351 353 384
f 351 384 383
f 353 355 385
f 353 385 384
f 355 357 386
f 355 386 385
f 357 359 387
f 357 387 386
f 359 361 388
f 359 388 387
f 361 363 389
f 361 389 388
f 363 365 390
f 363 390 389
f 365 367 391
f 365 391 390
f 367 369 392
f 367 392 391
f 369 371 393
f 369 393 392
f 371 373 394
f 371 394 393
f 373 375 395
f 373 395 394
f 375 377 396
f 375 396 395
f 377 379 397
f 377 397 396
f 379 347 381
f 379 381 397
f 254 253 398
f 254 398 399
f 263 254 399
f 263 399 400
f 264 263 400
f 264 400 401
f 267 264 401
f 267 401 402
f 268 267 402
f 268 402 403
f 271 268 403
f 271 403 404
f 258 271 404
f 258 404 405
f 259 258 405
f 259 405 406
f 260 259 406
f 260 406 407
f 261 260 407
f 261 407 408
f 262 261 408
f 262 408 409
f 265 262 409
f 265 409 410
f 266 265 410
f 266 410 411
f 269 266 411
f 269 411 412
f 270 269 412
f 270 412 413
f 256 270 413
f 256 413 414
f 257 256 414
f 257 414 415
f 253 257 415
f 253 415 398
f 272 275 415
f 272 415 414
f 276 272 414
f 276 414 413
f 278 276 413
f 278 413 412
f 280 278 412
f 280 412 411
f 282 280 411
f 282 411 410
f 284 282 410
f 284 410 409
f 286 284 409
f 286 409 408
f 288 286 408
f 288 408 407
f 290 288 407
f 290 407 406
f 292 290 406
f 292 406 405
f 294 292 405
f 294 405 404
f 296 294 404
f 296 404 403
f 298 296 403
f 298 403 402
f 300 298 402
f 300 402 401
f 302 300 401
f 302 401 400
f 304 302 400
f 304 400 399
f 306 304 399
f 306 399 398
f 275 306 398
f 275 398 415
f 381 380 416
f 381 416 417
f 380 382 418
f 380 418 416
f 382 383 419
f 382 419 418
f 383 384 420
f 383 420 419
f 384 385 421
f 384 421 420
f 385 386 422
f 385 422 421
f 386 387 423
f 386 423 422
f 387 388 424
f 387 424 423
f 388 389 425
f 388 425 424
f 389 390 426
f 389 426 425
f 390 391 427
f 390 427 426
f 391 392 428
f 391 428 427
f 392 393 429
f 392 429 428
f 393 394 430
f 393 430 429
f 394 395 431
f 394 431 430
f 395 396 432
f 395 432 431
f 396 397 433
f 396 433 432
f 397 381 417
f 397 417 433
f 345 344 327
f 345 327 326
f 348 345 326
f 348 326 328
f 350 348 328
f 350 328 329
f 352 350 329
f 352 329 330
f 354 352 330
f 354 330 331
f 332 356 354
f 332 354 331
f 333 358 356
f 333 356 332
f 334 360 358
f 334 358 333
f 335 362 360
f 335 360 334
f 364 362 335
f 364 335 336
f 366 364 336
f 366 336 337
f 368 366 337
f 368 337 338
f 370 368 338
f 370 338 339
f 372 370 339
f 372 339 340
f 341 374 372
f 341 372 340
f 342 376 374
f 342 374 341
f 343 378 376
f 343 376 342
f 327 344 378
f 327 378 343