# https://github.com/mikedh/trimesh
v -0.01037665 0.01829788 0.28999973
v -0.01589795 0.01358118 0.28999973
v -0.02075330 0.00000000 0.28999973
v -0.01950172 0.00722640 0.28999973
v -0.01589795 -0.01358118 0.28999973
v -0.01037665 -0.01829787 0.28999973
v -0.01950172 -0.00722639 0.28999973
v 0.03159375 -0.00000000 -0.00000000
v 0.02968842 0.01120356 -0.00000000
v 0.03399695 0.01282948 0.03734282
v 0.03617879 0.00000000 0.03734282
v 0.02420222 0.02105580 -0.00000000
v 0.02771456 0.02411153 0.03734282
v 0.01579688 0.02836841 -0.00000000
v 0.01808940 0.03248537 0.03734282
v 0.00548620 0.03225937 -0.00000000
v 0.00628238 0.03694100 0.03734282
v -0.00548619 0.03225936 -0.00000000
v -0.00628238 0.03694100 0.03734282
v -0.01579687 0.02836841 -0.00000000
v -0.01808939 0.03248537 0.03734282
v -0.02420221 0.02105580 0.00000000
v -0.02771455 0.02411153 0.03734282
v -0.02968840 0.01120356 0.00000000
v -0.03399693 0.01282948 0.03734282
v -0.03159374 0.00000001 0.00000000
v -0.03617878 0.00000001 0.03734282
v -0.02968841 -0.01120355 0.00000000
v -0.03399693 -0.01282947 0.03734282
v -0.02420221 -0.02105580 0.00000000
v -0.02771456 -0.02411152 0.03734282
v -0.01579688 -0.02836840 0.00000000
v -0.01808940 -0.03248536 0.03734282
v -0.00548621 -0.03225936 0.00000000
v -0.00628239 -0.03694100 0.03734282
v 0.00548619 -0.03225937 0.00000000
v 0.00628237 -0.03694100 0.03734282
v 0.01579686 -0.02836841 0.00000000
v 0.01808938 -0.03248538 0.03734282
v 0.02420221 -0.02105582 -0.00000000
v 0.02771455 -0.02411155 0.03734282
v 0.02968840 -0.01120358 -0.00000000
v 0.03399693 -0.01282950 0.03734282
v 0.03399695 0.01282948 0.07468565
v 0.03617880 0.00000000 0.07468565
v 0.02771457 0.02411153 0.07468565
v 0.01808940 0.03248538 0.07468565
v 0.00628238 0.03694101 0.07468565
v -0.00628238 0.03694100 0.07468565
v -0.01808939 0.03248537 0.07468565
v -0.02771455 0.02411153 0.07468565
v -0.03399693 0.01282948 0.07468565
v -0.03617878 0.00000001 0.07468565
v -0.03399694 -0.01282947 0.07468565
v -0.02771456 -0.02411152 0.07468565
v -0.01808940 -0.03248536 0.07468565
v -0.00628239 -0.03694100 0.07468565
v 0.00628237 -0.03694101 0.07468565
v 0.01808938 -0.03248538 0.07468565
v 0.02771455 -0.02411155 0.07468565
v 0.03399694 -0.01282950 0.07468565
v 0.03399695 0.01282948 0.11202847
v 0.03617879 0.00000000 0.11202847
v 0.02771456 0.02411153 0.11202847
v 0.01808940 0.03248537 0.11202847
v 0.00628238 0.03694100 0.11202847
v -0.00628238 0.03694100 0.11202847
v -0.01808939 0.03248537 0.11202847
v -0.02771455 0.02411153 0.11202847
v -0.03399693 0.01282948 0.11202847
v -0.03617878 0.00000001 0.11202847
v -0.03399693 -0.01282947 0.11202847
v -0.02771456 -0.02411152 0.11202847
v -0.01808940 -0.03248536 0.11202847
v -0.00628239 -0.03694100 0.11202847
v 0.00628237 -0.03694100 0.11202847
v 0.01808938 -0.03248538 0.11202847
v 0.02771455 -0.02411155 0.11202847
v 0.03399693 -0.01282950 0.11202847
v 0.03399695 0.01282948 0.14937130
v 0.03617879 0.00000000 0.14937130
v 0.02771456 0.02411153 0.14937130
v 0.01808940 0.03248537 0.14937130
v 0.00628238 0.03694100 0.14937130
v -0.00628238 0.03694100 0.14937130
v -0.01808939 0.03248537 0.14937130
v -0.02771455 0.02411153 0.14937130
v -0.03399693 0.01282948 0.14937130
v -0.03617878 0.00000001 0.14937130
v -0.03399693 -0.01282947 0.14937130
v -0.02771456 -0.02411152 0.14937130
v -0.01808940 -0.03248536 0.14937130
v -0.00628239 -0.03694100 0.14937130
v 0.00628237 -0.03694100 0.14937130
v 0.01808938 -0.03248538 0.14937130
v 0.02771455 -0.02411155 0.14937130
v 0.03399693 -0.01282950 0.14937130
v 0.01780458 0.00671894 0.18671413
v 0.01894723 0.00000000 0.18671413
v 0.01451442 0.01262747 0.18671413
v 0.00947362 0.01701295 0.18671413
v 0.00329015 0.01934641 0.18671413
v -0.00329015 0.01934641 0.18671413
v -0.00947361 0.01701295 0.18671413
v -0.01451442 0.01262747 0.18671413
v -0.01780457 0.00671894 0.18671413
v -0.01894723 0.00000000 0.18671413
v -0.01780457 -0.00671893 0.18671413
v -0.01451442 -0.01262747 0.18671413
v -0.00947362 -0.01701294 0.18671413
v -0.00329016 -0.01934641 0.18671413
v 0.00329015 -0.01934641 0.18671413
v 0.00947361 -0.01701295 0.18671413
v 0.01451442 -0.01262748 0.18671413
v 0.01780457 -0.00671895 0.18671413
v 0.01892200 0.00707610 0.25745065
v 0.02013637 0.00000000 0.25745065
v 0.01894723 0.00000000 0.24406666
v 0.01780458 0.00671894 0.24405855
v 0.01451442 0.01262747 0.24408102
v 0.01542535 0.01329872 0.25745065
v 0.00947362 0.01701295 0.24409260
v 0.01006818 0.01791731 0.25745065
v 0.00349665 0.02037482 0.25745065
v 0.00329015 0.01934641 0.24409188
v -0.00329015 0.01934641 0.24410265
v -0.00349664 0.02037481 0.25745065
v -0.01006818 0.01791731 0.25745065
v -0.00947361 0.01701295 0.24409422
v -0.01542534 0.01329872 0.25745065
v -0.01451442 0.01262747 0.24406764
v -0.01892199 0.00707610 0.25745065
v -0.01780457 0.00671894 0.24406159
v -0.02013636 0.00000000 0.25745065
v -0.01894723 0.00000000 0.24405612
v -0.01892199 -0.00707609 0.25745065
v -0.01780457 -0.00671893 0.24405050
v -0.01542535 -0.01329871 0.25745065
v -0.01451442 -0.01262747 0.24404424
v -0.01006819 -0.01791730 0.25745065
v -0.00947362 -0.01701294 0.24404738
v -0.00349665 -0.02037481 0.25745065
v -0.00329016 -0.01934641 0.24403593
v 0.00329015 -0.01934641 0.24405371
v 0.00349664 -0.02037481 0.25745065
v 0.01006817 -0.01791732 0.25745065
v 0.00947361 -0.01701295 0.24405649
v 0.01542534 -0.01329872 0.25745065
v 0.01451442 -0.01262748 0.24404398
v 0.01780457 -0.00671895 0.24406160
v 0.01892199 -0.00707611 0.25745065
v 0.01892200 0.00707610 0.26242122
v 0.02013637 0.00000000 0.26242122
v 0.01542535 0.01329872 0.26242122
v 0.01006818 0.01791731 0.26242122
v 0.00349665 0.02037482 0.26242122
v -0.00349664 0.02037481 0.26242122
v -0.01006818 0.01791731 0.26242122
v -0.01542534 0.01329872 0.26242122
v -0.01892199 0.00707610 0.26242122
v -0.02013636 0.00000000 0.26242122
v -0.01892199 -0.00707609 0.26242122
v -0.01542535 -0.01329871 0.26242122
v -0.01006819 -0.01791730 0.26242122
v -0.00349665 -0.02037481 0.26242122
v 0.00349664 -0.02037481 0.26242122
v 0.01006817 -0.01791732 0.26242122
v 0.01542534 -0.01329872 0.26242122
v 0.01892199 -0.00707611 0.26242122
v 0.01780458 0.00671894 0.26739176
v 0.01894723 0.00000000 0.26739176
v 0.01451442 0.01262747 0.26739176
v 0.00947362 0.01701295 0.26739176
v 0.00329015 0.01934641 0.26739176
v -0.00329015 0.01934641 0.26739176
v -0.00947361 0.01701295 0.26739176
v -0.01451442 0.01262747 0.26739176
v -0.01780457 0.00671894 0.26739176
v -0.01894723 0.00000000 0.26739176
v -0.01780457 -0.00671893 0.26739176
v -0.01451442 -0.01262747 0.26739176
v -0.00947362 -0.01701294 0.26739176
v -0.00329016 -0.01934641 0.26739176
v 0.00329015 -0.01934641 0.26739176
v 0.00947361 -0.01701295 0.26739176
v 0.01451442 -0.01262748 0.26739176
v 0.01780457 -0.00671895 0.26739176
v 0.01950172 0.00722640 0.27236230
v 0.02075330 0.00000000 0.27236230
v 0.01589795 0.01358118 0.27236230
v 0.01037665 0.01829788 0.27236230
v 0.00360377 0.02080758 0.27236230
v -0.00360377 0.02080758 0.27236230
v -0.01037665 0.01829788 0.27236230
v -0.01589795 0.01358118 0.27236230
v -0.01950172 0.00722640 0.27236230
v -0.02075330 0.00000000 0.27236230
v -0.01950172 -0.00722639 0.27236230
v -0.01589795 -0.01358118 0.27236230
v -0.01037665 -0.01829787 0.27236230
v -0.00360378 -0.02080758 0.27236230
v 0.00360377 -0.02080758 0.27236230
v 0.01037664 -0.01829789 0.27236230
v 0.01589795 -0.01358119 0.27236230
v 0.01950172 -0.00722641 0.27236230
v 0.01950172 0.00722640 0.28999973
v 0.02075330 0.00000000 0.28999973
v 0.01589795 0.01358118 0.28999973
v 0.01037665 0.01829788 0.28999973
v 0.00360377 0.02080758 0.28999973
v -0.00360377 0.02080758 0.28999973
v -0.00360378 -0.02080758 0.28999973
v 0.00360377 -0.02080758 0.28999973
v 0.01037664 -0.01829789 0.28999973
v 0.01589795 -0.01358119 0.28999973
v 0.01950172 -0.00722641 0.28999973
f 1 2 3
f 2 4 3
f 3 5 6
f 3 7 5
f 8 9 10
f 8 10 11
f 9 12 13
f 9 13 10
f 12 14 15
f 12 15 13
f 14 16 17
f 14 17 15
f 16 18 19
f 16 19 17
f 18 20 21
f 18 21 19
f 20 22 23
f 20 23 21
f 22 24 25
f 22 25 23
f 24 26 27
f 24 27 25
f 26 28 29
f 26 29 27
f 28 30 31
f 28 31 29
f 30 32 33
f 30 33 31
f 32 34 35
f 32 35 33
f 34 36 37
f 34 37 35
f 36 38 39
f 36 39 37
f 38 40 41
f 38 41 39
f 40 42 43
f 40 43 41
f 42 8 11
f 42 11 43
f 11 10 44
f 11 44 45
f 10 13 46
f 10 46 44
f 13 15 47
f 13 47 46
f 15 17 48
f 15 48 47
f 17 19 49
f 17 49 48
f 19 21 50
f 19 50 49
f 21 23 51
f 21 51 50
f 23 25 52
f 23 52 51
f 25 27 53
f 25 53 52
f 27 29 54
f 27 54 53
f 29 31 55
f 29 55 54
f 31 33 56
f 31 56 55
f 33 35 57
f 33 57 56
f 35 37 58
f 35 58 57
f 37 39 59
f 37 59 58
f 39 41 60
f 39 60 59
f 41 43 61
f 41 61 60
f 43 11 45
f 43 45 61
f 45 44 62
f 45 62 63
f 44 46 64
f 44 64 62
f 46 47 65
f 46 65 64
f 47 48 66
f 47 66 65
f 48 49 67
f 48 67 66
f 49 50 68
f 49 68 67
f 50 51 69
f 50 69 68
f 51 52 70
f 51 70 69
f 52 53 71
f 52 71 70
f 53 54 72
f 53 72 71
f 54 55 73
f 54 73 72
f 55 56 74
f 55 74 73
f 56 57 75
f 56 75 74
f 57 58 76
f 57 76 75
f 58 59 77
f 58 77 76
f 59 60 78
f 59 78 77
f 60 61 79
f 60 79 78
f 61 45 63
f 61 63 79
f 63 62 80
f 63 80 81
f 62 64 82
f 62 82 80
f 64 65 83
f 64 83 82
f 65 66 84
f 65 84 83
f 66 67 85
f 66 85 84
f 67 68 86
f 67 86 85
f 68 69 87
f 68 87 86
f 69 70 88
f 69 88 87
f 70 71 89
f 70 89 88
f 71 72 90
f 71 90 89
f 72 73 91
f 72 91 90
f 73 74 92
f 73 92 91
f 74 75 93
f 74 93 92
f 75 76 94
f 75 94 93
f 76 77 95
f 76 95 94
f 77 78 96
f 77 96 95
f 78 79 97
f 78 97 96
f 79 63 81
f 79 81 97
f 81 80 98
f 81 98 99
f 80 82 100
f 80 100 98
f 82 83 101
f 82 101 100
f 83 84 102
f 83 102 101
f 84 85 103
f 84 103 102
f 85 86 104
f 85 104 103
f 86 87 105
f 86 105 104
f 87 88 106
f 87 106 105
f 88 89 107
f 88 107 106
f 89 90 108
f 89 108 107
f 90 91 109
f 90 109 108
f 91 92 110
f 91 110 109
f 92 93 111
f 92 111 110
f 93 94 112
f 93 112 111
f 94 95 113
f 94 113 112
f 95 96 114
f 95 114 113
f 96 97 115
f 96 115 114
f 97 81 99
f 97 99 115
f 116 117 118
f 116 118 119
f 120 121 116
f 120 116 119
f 122 123 121
f 122 121 120
f 124 123 122
f 124 122 125
f 126 127 124
f 126 124 125
f 128 127 126
f 128 126 129
f 130 128 129
f 130 129 131
f 132 130 131
f 132 131 133
f 134 132 133
f 134 133 135
f 136 134 135
f 136 135 137
f 138 136 137
f 138 137 139
f 140 138 139
f 140 139 141
f 142 140 141
f 142 141 143
f 144 145 142
f 144 142 143
f 146 145 144
f 146 144 147
f 148 146 147
f 148 147 149
f 150 151 148
f 150 148 149
f 118 117 151
f 118 151 150
f 107 108 137
f 107 137 135
f 108 109 139
f 108 139 137
f 109 110 141
f 109 141 139
f 110 111 143
f 110 143 141
f 143 111 112
f 143 112 144
f 112 113 147
f 112 147 144
f 113 114 149
f 113 149 147
f 149 114 115
f 149 115 150
f 115 99 118
f 115 118 150
f 99 98 119
f 99 119 118
f 119 98 100
f 119 100 120
f 120 100 101
f 120 101 122
f 101 102 125
f 101 125 122
f 125 102 103
f 125 103 126
f 103 104 129
f 103 129 126
f 104 105 131
f 104 131 129
f 105 106 133
f 105 133 131
f 106 107 135
f 106 135 133
f 117 116 152
f 117 152 153
f 116 121 154
f 116 154 152
f 121 123 155
f 121 155 154
f 123 124 156
f 123 156 155
f 124 127 157
f 124 157 156
f 127 128 158
f 127 158 157
f 128 130 159
f 128 159 158
f 130 132 160
f 130 160 159
f 132 134 161
f 132 161 160
f 134 136 162
f 134 162 161
f 136 138 163
f 136 163 162
f 138 140 164
f 138 164 163
f 140 142 165
f 140 165 164
f 142 145 166
f 142 166 165
f 145 146 167
f 145 167 166
f 146 148 168
f 146 168 167
f 148 151 169
f 148 169 168
f 151 117 153
f 151 153 169
f 153 152 170
f 153 170 171
f 152 154 172
f 152 172 170
f 154 155 173
f 154 173 172
f 155 156 174
f 155 174 173
f 156 157 175
f 156 175 174
f 157 158 176
f 157 176 175
f 158 159 177
f 158 177 176
f 159 160 178
f 159 178 177
f 160 161 179
f 160 179 178
f 161 162 180
f 161 180 179
f 162 163 181
f 162 181 180
f 163 164 182
f 163 182 181
f 164 165 183
f 164 183 182
f 165 166 184
f 165 184 183
f 166 167 185
f 166 185 184
f 167 168 186
f 167 186 185
f 168 169 187
f 168 187 186
f 169 153 171
f 169 171 187
f 171 170 188
f 171 188 189
f 170 172 190
f 170 190 188
f 172 173 191
f 172 191 190
f 173 174 192
f 173 192 191
f 174 175 193
f 174 193 192
f 175 176 194
f 175 194 193
f 176 177 195
f 176 195 194
f 177 178 196
f 177 196 195
f 178 179 197
f 178 197 196
f 179 180 198
f 179 198 197
f 180 181 199
f 180 199 198
f 181 182 200
f 181 200 199
f 182 183 201
f 182 201 200
f 183 184 202
f 183 202 201
f 184 185 203
f 184 203 202
f 185 186 204
f 185 204 203
f 186 187 205
f 186 205 204
f 187 171 189
f 187 189 205
f 189 188 206
f 189 206 207
f 188 190 208
f 188 208 206
f 190 191 209
f 190 209 208
f 191 192 210
f 191 210 209
f 192 193 211
f 192 211 210
f 193 194 1
f 193 1 211
f 194 195 2
f 194 2 1
f 195 196 4
f 195 4 2
f 196 197 3
f 196 3 4
f 197 198 7
f 197 7 3
f 198 199 5
f 198 5 7
f 199 200 6
f 199 6 5
f 200 201 212
f 200 212 6
f 201 202 213
f 201 213 212
f 202 203 214
f 202 214 213
f 203 204 215
f 203 215 214
f 204 205 216
f 204 216 215
f 205 189 207
f 205 207 216
f 208 3 207
f 208 207 206
f 215 216 207
f 215 207 3
f 208 209 210
f 208 210 3
f 210 211 1
f 210 1 3
f 213 214 215
f 213 215 3
f 6 212 213
f 6 213 3
f 119 118 117
f 117 116 119
f 119 116 121
f 121 120 119
f 120 121 123
f 123 122 120
f 125 122 123
f 123 124 125
f 125 124 127
f 127 126 125
f 129 126 127
f 127 128 129
f 131 129 128
f 128 130 131
f 133 131 130
f 130 132 133
f 135 133 132
f 132 134 135
f 137 135 134
f 134 136 137
f 139 137 136
f 136 138 139
f 141 139 138
f 138 140 141
f 143 141 140
f 140 142 143
f 143 142 145
f 145 144 143
f 147 144 145
f 145 146 147
f 149 147 146
f 146 148 149
f 149 148 151
f 151 150 149
f 150 151 117
f 117 118 150
f 135 137 108
f 108 107 135
f 137 139 109
f 109 108 137
f 139 141 110
f 110 109 139
f 141 143 111
f 111 110 141
f 144 112 111
f 111 143 144
f 144 147 113
f 113 112 144
f 147 149 114
f 114 113 147
f 150 115 114
f 114 149 150
f 150 118 99
f 99 115 150
f 118 119 98
f 98 99 118
f 120 100 98
f 98 119 120
f 122 101 100
f 100 120 122
f 122 125 102
f 102 101 122
f 126 103 102
f 102 125 126
f 126 129 104
f 104 103 126
f 129 131 105
f 105 104 129
f 131 133 106
f 106 105 131
f 133 135 107
f 107 106 133
f 153 152 116
f 116 117 153
f 152 154 121
f 121 116 152
f 154 155 123
f 123 121 154
f 155 156 124
f 124 123 155
f 156 157 127
f 127 124 156
f 157 158 128
f 128 127 157
f 158 159 130
f 130 128 158
f 159 160 132
f 132 130 159
f 160 161 134
f 134 132 160
f 161 162 136
f 136 134 161
f 162 163 138
f 138 136 162
f 163 164 140
f 140 138 163
f 164 165 142
f 142 140 164
f 165 166 145
f 145 142 165
f 166 167 146
f 146 145 166
f 167 168 148
f 148 146 167
f 168 169 151
f 151 148 168
f 169 153 117
f 117 151 169
f 171 170 152
f 152 153 171
f 170 172 154
f 154 152 170
f 172 173 155
f 155 154 172
f 173 174 156
f 156 155 173
f 174 175 157
f 157 156 174
f 175 176 158
f 158 157 175
f 176 177 159
f 159 158 176
f 177 178 160
f 160 159 177
f 178 179 161
f 161 160 178
f 179 180 162
f 162 161 179
f 180 181 163
f 163 162 180
f 181 182 164
f 164 163 181
f 182 183 165
f 165 164 182
f 183 184 166
f 166 165 183
f 184 185 167
f 167 166 184
f 185 186 168
f 168 167 185
f 186 187 169
f 169 168 186
f 187 171 153
f 153 169 187
f 189 188 170
f 170 171 189
f 188 190 172
f 172 170 188
f 190 191 173
f 173 172 190
f 191 192 174
f 174 173 191
f 192 193 175
f 175 174 192
f 193 194 176
f 176 175 193
f 194 195 177
f 177 176 194
f 195 196 178
f 178 177 195
f 196 197 179
f 179 178 196
f 197 198 180
f 180 179 197
f 198 199 181
f 181 180 198
f 199 200 182
f 182 181 199
f 200 201 183
f 183 182 200
f 201 202 184
f 184 183 201
f 202 203 185
f 185 184 202
f 203 204 186
f 186 185 203
f 204 205 187
f 187 186 204
f 205 189 171
f 171 187 205
f 207 206 188
f 188 189 207
f 206 208 190
f 190 188 206
f 208 209 191
f 191 190 208
f 209 210 192
f 192 191 209
f 210 211 193
f 193 192 210
f 211 1 194
f 194 193 211
f 1 2 195
f 195 194 1
f 2 4 196
f 196 195 2
f 4 3 197
f 197 196 4
f 3 7 198
f 198 197 3
f 7 5 199
f 199 198 7
f 5 6 200
f 200 199 5
f 6 212 201
f 201 200 6
f 212 213 202
f 202 201 212
f 213 214 203
f 203 202 213
f 214 215 204
f 204 203 214
f 215 216 205
f 205 204 215
f 216 207 189
f 189 205 216