# https://github.com/mikedh/trimesh
v -0.00082409 -0.02979860 0.07033921
v 0.00062517 -0.02979860 0.07033921
v 0.00149067 -0.02940067 0.07143135
v 0.00062517 -0.00294739 0.06055401
v -0.00082409 -0.00294739 0.06055401
v 0.00149067 -0.00254936 0.06164615
v -0.00082409 -0.03079027 0.06754468
v 0.00017204 -0.03079027 0.06754468
v 0.00609486 -0.01734673 0.06411058
v 0.00578328 -0.01749001 0.06371738
v 0.00578328 -0.00406436 0.05831016
v 0.00609486 -0.00392107 0.05870337
v 0.00062517 -0.00393891 0.05775947
v -0.00082409 -0.00393891 0.05775947
v 0.00062517 -0.01736456 0.06316668
v -0.00082409 -0.01736456 0.06316668
v 0.00062517 -0.01637304 0.06596122
v -0.00082409 -0.01637304 0.06596122
v 0.00149067 -0.01597502 0.06705336
v 0.00417052 -0.03056634 0.06879685
v 0.00465529 -0.03034359 0.06940868
v 0.01006812 0.01339224 0.05320092
v -0.00009946 0.01339224 0.05651640
v -0.00009946 0.00504056 0.05594167
v 0.00955392 0.00504056 0.05279385
v -0.00009946 0.01339224 0.02955031
v 0.01006812 0.01339224 0.03286574
v 0.00955392 0.00504056 0.03348708
v -0.00009946 0.00504056 0.03033929
v 0.01338360 0.01339224 0.04303334
v 0.01270172 0.00504056 0.04314049
v 0.00080079 -0.04681315 0.05170560
v -0.00009946 -0.04710747 0.05170560
v -0.00009946 -0.04601749 0.05106939
v 0.00057942 -0.04621331 0.05122585
v 0.01277749 0.02260694 0.04549772
v 0.00961106 0.02260694 0.05520823
v 0.00961106 0.02260694 0.03578719
v -0.00009946 0.02260694 0.03262077
v -0.00009946 0.02260694 0.05837465
v 0.01141370 0.02903571 0.04806924
v 0.00858266 0.02903571 0.05675136
v 0.00730292 0.02903571 0.03896984
v -0.00009946 0.02903571 0.03655606
v -0.00009946 0.02903571 0.05958239
v 0.01209087 0.03696457 0.04946215
v 0.00909328 0.03696457 0.05603122
v 0.01041780 0.03189611 0.00020722
v 0.00995270 0.02948672 0.00020722
v 0.00733965 0.02948672 0.00020722
v 0.00610831 0.03189611 0.00020722
v -0.00009946 0.03696457 0.04075103
v 0.00162031 0.03696457 0.04115177
v -0.00009946 0.03696457 0.05817332
v 0.00809781 0.04425054 0.05235511
v 0.00567085 0.04339315 0.05384075
v -0.00009946 0.04538731 0.05038503
v 0.00172528 0.04531889 0.05050380
v -0.00009946 0.04311377 0.05432520
v 0.01116744 0.03054701 0.03928080
v 0.00705665 0.03054701 0.03473104
v 0.00714638 0.03205850 0.03049225
v 0.01030635 0.03205850 0.03049235
v 0.00499568 0.03625070 0.03622955
v 0.00565732 0.03553703 0.03049229
v 0.01187187 0.03625070 0.03997726
v 0.01086879 0.03553703 0.03049235
v 0.00445968 0.04421633 0.04052401
v 0.00588267 0.03896109 0.03049236
v 0.00929038 0.04369710 0.04142376
v 0.00962999 0.03896109 0.03049238
v 0.00989564 0.03544364 0.01737060
v 0.01034504 0.03768199 0.01842596
v 0.00737085 0.03544364 0.01737041
v 0.00618109 0.03768199 0.01842592
v 0.00636112 0.03988553 0.01946497
v 0.00935523 0.03988553 0.01946499
v 0.00942607 0.03236580 0.00429679
v 0.00974620 0.03412875 0.00429679
v 0.00762747 0.03236580 0.00429679
v 0.00677991 0.03412875 0.00429679
v 0.00690818 0.03586437 0.00429679
v 0.00904112 0.03586418 0.00429679
v 0.00942607 0.03023185 0.00280692
v 0.00974620 0.03189021 0.00220865
v 0.00762747 0.03023185 0.00280692
v 0.00677991 0.03189021 0.00220865
v 0.00690818 0.03352281 0.00161983
v 0.00904112 0.03352281 0.00161983
v 0.00629463 0.03426795 0.00020722
v 0.00939344 0.03426795 0.00020722
v -0.00009946 -0.00406471 0.06023335
v 0.00811279 -0.00406471 0.05673223
v 0.00725811 -0.00228236 0.03420945
v -0.00009946 -0.00406471 0.03175777
v 0.01180534 -0.00323624 0.04291042
v -0.00009946 -0.00800005 0.06139076
v 0.00846275 -0.00800005 0.05788962
v 0.00211541 -0.00800005 0.03371849
v -0.00009946 -0.00800005 0.03291522
v 0.01253592 -0.00794765 0.04432342
v -0.00012917 -0.01270702 0.06375296
v 0.00773594 -0.01270702 0.06016434
v 0.00542566 -0.01332522 0.03754836
v -0.00012917 -0.01270702 0.03456552
v 0.00990846 -0.00577525 0.00000059
v 0.00924356 -0.00844145 0.00000118
v 0.00687485 -0.00844145 0.00000118
v 0.00604764 -0.00577525 0.00000059
v 0.01098406 -0.01281159 0.04384117
v -0.00009946 -0.01749115 0.06585171
v 0.00629304 -0.01749115 0.06267675
v 0.00713193 -0.01749113 0.04320369
v -0.00009946 -0.01749115 0.04002879
v 0.00948995 -0.01749115 0.05294022
v -0.00009946 -0.01926590 0.06630233
v 0.00578999 -0.01926590 0.06406025
v 0.00578999 -0.01926590 0.05030824
v -0.00009946 -0.01926590 0.04806610
v 0.00771044 -0.01926590 0.05718421
v -0.00009946 -0.02520749 0.06863190
v 0.00514674 -0.02520749 0.06703134
v 0.00514674 -0.02520749 0.05721389
v -0.00009946 -0.02520749 0.05561333
v 0.00685745 -0.02520749 0.06212272
v -0.00009946 -0.03006873 0.07019353
v 0.00414107 -0.03006873 0.06870228
v 0.00414107 -0.03006873 0.05955545
v -0.00009946 -0.03006873 0.05806421
v 0.00552382 -0.03006873 0.06412887
v -0.00009946 -0.03646978 0.06971322
v 0.00414107 -0.03590140 0.06811227
v 0.00453406 -0.03241541 0.05829345
v -0.00009946 -0.03184702 0.05669264
v 0.00604496 -0.03415850 0.06320306
v -0.00009946 -0.04140535 0.06356343
v 0.00300233 -0.04066690 0.06256390
v 0.00328979 -0.03613792 0.05643426
v -0.00009946 -0.03539947 0.05543484
v 0.00439496 -0.03840241 0.05949903
v -0.00009946 -0.04587613 0.05826356
v 0.00212072 -0.04534746 0.05763757
v 0.00212072 -0.04192930 0.05315133
v -0.00009946 -0.04140082 0.05252541
v 0.00284468 -0.04372666 0.05571809
v -0.00009946 -0.04742204 0.05517017
v 0.00219779 -0.04676007 0.05464083
v 0.00219779 -0.04269959 0.05139395
v -0.00009946 -0.04203743 0.05086457
v 0.00294687 -0.04472973 0.05301739
v -0.00009946 -0.04760881 0.05234180
v 0.00057942 -0.04741319 0.05218536
v 0.01102690 -0.00414931 0.03126897
v 0.00827725 -0.00414933 0.03126887
v 0.01183591 -0.00772649 0.03237776
v 0.00715147 -0.00772651 0.03237766
v 0.01102917 -0.01200508 0.03370396
v 0.00815514 -0.01200510 0.03370386
v 0.01009036 -0.00668305 0.01853543
v 0.01065650 -0.00441929 0.01826631
v 0.00807345 -0.00668305 0.01853537
v 0.00736910 -0.00441931 0.01826627
v 0.00815915 -0.00252666 0.01804128
v 0.01008877 -0.00252664 0.01804132
v 0.00889939 -0.00437551 0.00746527
v 0.00938345 -0.00243995 0.00723505
v 0.00717489 -0.00437551 0.00746527
v 0.00657265 -0.00243995 0.00723505
v 0.00724815 -0.00082170 0.00704277
v 0.00889803 -0.00082170 0.00704277
v 0.00905561 -0.00734370 0.00242925
v 0.00962175 -0.00548693 0.00222144
v 0.00703870 -0.00734370 0.00242905
v 0.00633433 -0.00548693 0.00222124
v 0.00712438 -0.00393454 0.00204744
v 0.00905402 -0.00393454 0.00204764
v 0.00697549 -0.00354615 0.00000000
v 0.00924169 -0.00354615 0.00000000
v -0.00009946 0.04425054 0.05235511
v -0.01026704 0.01339224 0.05320092
v -0.00975284 0.00504056 0.05279385
v -0.00975284 0.00504056 0.03348708
v -0.01026704 0.01339224 0.03286574
v -0.01290064 0.00504056 0.04314049
v -0.01358252 0.01339224 0.04303334
v -0.00099971 -0.04681315 0.05170560
v -0.00077834 -0.04621331 0.05122585
v -0.00980997 0.02260694 0.05520823
v -0.01297641 0.02260694 0.04549772
v -0.00980997 0.02260694 0.03578719
v -0.00878157 0.02903571 0.05675136
v -0.01161262 0.02903571 0.04806924
v -0.00750184 0.02903571 0.03896984
v -0.00929220 0.03696457 0.05603122
v -0.01228979 0.03696457 0.04946215
v -0.01061672 0.03189611 0.00020722
v -0.00959235 0.03426795 0.00020722
v -0.00649355 0.03426795 0.00020722
v -0.00630723 0.03189611 0.00020722
v -0.00181923 0.03696457 0.04115177
v -0.00586976 0.04339315 0.05384075
v -0.00829673 0.04425054 0.05235511
v -0.00192420 0.04531889 0.05050380
v -0.01136636 0.03054701 0.03928080
v -0.01050527 0.03205850 0.03049235
v -0.00734530 0.03205850 0.03049225
v -0.00725557 0.03054701 0.03473104
v -0.00585624 0.03553703 0.03049229
v -0.00519460 0.03625070 0.03622955
v -0.01207079 0.03625070 0.03997726
v -0.01106771 0.03553703 0.03049235
v -0.00608159 0.03896109 0.03049236
v -0.00465860 0.04421633 0.04052401
v -0.00982891 0.03896109 0.03049238
v -0.00948929 0.04369710 0.04142376
v -0.01054396 0.03768199 0.01842596
v -0.01009456 0.03544364 0.01737060
v -0.00756976 0.03544364 0.01737041
v -0.00638001 0.03768199 0.01842592
v -0.00656004 0.03988553 0.01946497
v -0.00955415 0.03988553 0.01946499
v -0.00994512 0.03412875 0.00429679
v -0.00962499 0.03236580 0.00429679
v -0.00782639 0.03236580 0.00429679
v -0.00697883 0.03412875 0.00429679
v -0.00710709 0.03586437 0.00429679
v -0.00924004 0.03586418 0.00429679
v -0.00994512 0.03189021 0.00220865
v -0.00962499 0.03023185 0.00280692
v -0.00782639 0.03023185 0.00280692
v -0.00697883 0.03189021 0.00220865
v -0.00710709 0.03352281 0.00161983
v -0.00924004 0.03352281 0.00161983
v -0.01015162 0.02948672 0.00020722
v -0.00753856 0.02948672 0.00020722
v -0.00831171 -0.00406471 0.05673223
v -0.00745703 -0.00228236 0.03420945
v -0.01200426 -0.00323624 0.04291042
v -0.00866167 -0.00800005 0.05788962
v -0.00231433 -0.00800005 0.03371849
v -0.01273484 -0.00794765 0.04432342
v -0.00793486 -0.01270702 0.06016434
v -0.00006975 -0.01270702 0.06375296
v -0.00006975 -0.01270702 0.03456552
v -0.00562458 -0.01332522 0.03754836
v -0.01010738 -0.00577525 0.00000059
v -0.00944061 -0.00354615 0.00000000
v -0.00717441 -0.00354615 0.00000000
v -0.00624656 -0.00577525 0.00000059
v -0.01118298 -0.01281159 0.04384117
v -0.00649196 -0.01749115 0.06267675
v -0.00733085 -0.01749113 0.04320369
v -0.00968887 -0.01749115 0.05294022
v -0.00598891 -0.01926590 0.06406025
v -0.00598891 -0.01926590 0.05030824
v -0.00790936 -0.01926590 0.05718421
v -0.00534566 -0.02520749 0.06703134
v -0.00534566 -0.02520749 0.05721389
v -0.00705637 -0.02520749 0.06212272
v -0.00433998 -0.03006873 0.06870228
v -0.00433998 -0.03006873 0.05955545
v -0.00572274 -0.03006873 0.06412887
v -0.00433998 -0.03590140 0.06811227
v -0.00473298 -0.03241541 0.05829345
v -0.00624388 -0.03415850 0.06320306
v -0.00320125 -0.04066690 0.06256390
v -0.00348871 -0.03613792 0.05643426
v -0.00459388 -0.03840241 0.05949903
v -0.00231964 -0.04534746 0.05763757
v -0.00231964 -0.04192930 0.05315133
v -0.00304359 -0.04372666 0.05571809
v -0.00239671 -0.04676007 0.05464083
v -0.00239671 -0.04269959 0.05139395
v -0.00314579 -0.04472973 0.05301739
v -0.00077834 -0.04741319 0.05218536
v -0.00847617 -0.00414933 0.03126887
v -0.01122582 -0.00414931 0.03126897
v -0.01203483 -0.00772649 0.03237776
v -0.00735039 -0.00772651 0.03237766
v -0.01122808 -0.01200508 0.03370396
v -0.00835406 -0.01200510 0.03370386
v -0.01085542 -0.00441929 0.01826631
v -0.01028928 -0.00668305 0.01853543
v -0.00827237 -0.00668305 0.01853537
v -0.00756801 -0.00441931 0.01826627
v -0.00835807 -0.00252666 0.01804128
v -0.01028768 -0.00252664 0.01804132
v -0.00958237 -0.00243995 0.00723505
v -0.00909830 -0.00437551 0.00746527
v -0.00737381 -0.00437551 0.00746527
v -0.00677157 -0.00243995 0.00723505
v -0.00744706 -0.00082170 0.00704277
v -0.00909695 -0.00082170 0.00704277
v -0.00982067 -0.00548693 0.00222144
v -0.00925453 -0.00734370 0.00242925
v -0.00723762 -0.00734370 0.00242905
v -0.00653325 -0.00548693 0.00222124
v -0.00732330 -0.00393454 0.00204744
v -0.00925294 -0.00393454 0.00204764
v -0.00944248 -0.00844145 0.00000118
v -0.00707377 -0.00844145 0.00000118
v -0.00009946 0.04131190 0.04983627
v 0.00199727 0.04131190 0.05193300
v -0.00009946 0.04131190 0.05402972
v -0.00219619 0.04131190 0.05193300
v -0.00009946 0.04427709 0.05402972
v -0.00219619 0.04427709 0.05193300
v -0.00046503 0.04943579 0.02790253
v -0.00009946 0.04992396 0.02804468
v 0.00026611 0.04943579 0.02790253
v -0.00009946 0.04894743 0.02776037
v -0.00009946 0.04427709 0.04983627
v 0.00199727 0.04427709 0.05193300
v -0.00009946 0.04857309 0.04913732
v -0.00219619 0.04664145 0.04832198
v 0.00199727 0.04664145 0.04832198
v -0.00009946 0.04470981 0.04750666
v -0.00009946 0.05000123 0.04071159
v -0.00219619 0.04720020 0.03989628
v 0.00199727 0.04720020 0.03989628
v -0.00009946 0.04439937 0.03908094
v -0.00009946 0.05069347 0.03485938
v -0.00207074 0.04806015 0.03409284
v 0.00187182 0.04806015 0.03409284
v -0.00009946 0.04542663 0.03332630
v -0.00009946 0.05041881 0.03069776
v -0.00131807 0.04879093 0.03022390
v 0.00111915 0.04879093 0.03022390
v -0.00009946 0.04716304 0.02975003
v 0.00179577 -0.03456213 0.06700342
v 0.00453005 -0.03388758 0.06659429
v 0.00519298 -0.03466849 0.06921641
v 0.00307230 -0.03519166 0.06953372
v 0.00408877 -0.03732639 0.07489415
v 0.00515321 -0.03706373 0.07473470
v 0.00506639 -0.03661783 0.07488982
v 0.00400195 -0.03688030 0.07504907
v 0.00261752 -0.03285540 0.07034570
v 0.00473821 -0.03233224 0.07002838
v 0.00382062 -0.03026239 0.06736183
v 0.00109311 -0.03095228 0.06825796
v 0.00528094 -0.03586562 0.07192817
v 0.00348207 -0.03630936 0.07219732
v 0.00501261 -0.03448722 0.07240730
v 0.00321374 -0.03493096 0.07267645
v -0.00199469 -0.03456213 0.06700342
v -0.00327122 -0.03519166 0.06953372
v -0.00539190 -0.03466849 0.06921641
v -0.00472897 -0.03388758 0.06659429
v -0.00428769 -0.03732639 0.07489415
v -0.00420087 -0.03688030 0.07504907
v -0.00526530 -0.03661783 0.07488982
v -0.00535212 -0.03706373 0.07473470
v -0.00281644 -0.03285540 0.07034570
v -0.00129203 -0.03095228 0.06825796
v -0.00401954 -0.03026239 0.06736183
v -0.00493713 -0.03233224 0.07002838
v -0.00368098 -0.03630936 0.07219732
v -0.00547986 -0.03586562 0.07192817
v -0.00521153 -0.03448722 0.07240730
v -0.00341266 -0.03493096 0.07267645
v 0.00304718 -0.03851683 0.06426413
v 0.00387862 -0.03892616 0.06458224
v 0.00387905 -0.03827265 0.06542213
v 0.00304763 -0.03786332 0.06510403
v 0.00445784 -0.03740916 0.06502047
v 0.00362639 -0.03699983 0.06470236
v 0.00445738 -0.03806268 0.06418058
v 0.00362594 -0.03765334 0.06386247
v -0.00324610 -0.03851683 0.06426413
v -0.00324655 -0.03786332 0.06510403
v -0.00407797 -0.03827265 0.06542213
v -0.00407754 -0.03892616 0.06458224
v -0.00382531 -0.03699983 0.06470236
v -0.00465673 -0.03740916 0.06502047
v -0.00382486 -0.03765334 0.06386247
v -0.00465630 -0.03806268 0.06418058
f 1 2 3
f 4 5 6
f 7 8 2
f 7 2 1
f 9 10 11
f 9 11 12
f 5 4 13
f 5 13 14
f 14 13 15
f 14 15 16
f 17 15 13
f 17 13 4
f 14 16 18
f 14 18 5
f 5 18 19
f 5 19 6
f 3 2 20
f 3 20 21
f 10 17 4
f 10 4 11
f 4 6 12
f 4 12 11
f 6 19 9
f 6 9 12
f 19 18 1
f 19 1 3
f 9 19 3
f 9 3 21
f 21 20 10
f 21 10 9
f 2 17 10
f 2 10 20
f 8 15 17
f 8 17 2
f 16 15 8
f 16 8 7
f 18 16 7
f 18 7 1
f 22 23 24
f 22 24 25
f 26 27 28
f 26 28 29
f 27 30 31
f 27 31 28
f 30 22 25
f 30 25 31
f 32 33 34
f 32 34 35
f 22 30 36
f 22 36 37
f 30 27 38
f 30 38 36
f 27 26 39
f 27 39 38
f 23 22 37
f 23 37 40
f 37 36 41
f 37 41 42
f 36 38 43
f 36 43 41
f 38 39 44
f 38 44 43
f 40 37 42
f 40 42 45
f 42 41 46
f 42 46 47
f 48 49 50
f 48 50 51
f 43 44 52
f 43 52 53
f 45 42 47
f 45 47 54
f 47 46 55
f 47 55 56
f 53 52 57
f 53 57 58
f 54 47 56
f 54 56 59
f 60 61 62
f 60 62 63
f 61 64 65
f 61 65 62
f 66 60 63
f 66 63 67
f 64 68 69
f 64 69 65
f 68 70 71
f 68 71 69
f 70 66 67
f 70 67 71
f 67 63 72
f 67 72 73
f 63 62 74
f 63 74 72
f 62 65 75
f 62 75 74
f 65 69 76
f 65 76 75
f 69 71 77
f 69 77 76
f 71 67 73
f 71 73 77
f 43 53 64
f 43 64 61
f 53 58 68
f 53 68 64
f 58 55 70
f 58 70 68
f 55 46 66
f 55 66 70
f 46 41 60
f 46 60 66
f 41 43 61
f 41 61 60
f 73 72 78
f 73 78 79
f 72 74 80
f 72 80 78
f 74 75 81
f 74 81 80
f 75 76 82
f 75 82 81
f 76 77 83
f 76 83 82
f 77 73 79
f 77 79 83
f 79 78 84
f 79 84 85
f 78 80 86
f 78 86 84
f 80 81 87
f 80 87 86
f 81 82 88
f 81 88 87
f 82 83 89
f 82 89 88
f 83 79 85
f 83 85 89
f 85 84 49
f 85 49 48
f 84 86 50
f 84 50 49
f 86 87 51
f 86 51 50
f 87 88 90
f 87 90 51
f 88 89 91
f 88 91 90
f 89 85 48
f 89 48 91
f 25 24 92
f 25 92 93
f 29 28 94
f 29 94 95
f 28 31 96
f 28 96 94
f 31 25 93
f 31 93 96
f 93 92 97
f 93 97 98
f 95 94 99
f 95 99 100
f 96 93 98
f 96 98 101
f 98 97 102
f 98 102 103
f 100 99 104
f 100 104 105
f 106 107 108
f 106 108 109
f 101 98 103
f 101 103 110
f 103 102 111
f 103 111 112
f 105 104 113
f 105 113 114
f 104 110 115
f 104 115 113
f 110 103 112
f 110 112 115
f 112 111 116
f 112 116 117
f 114 113 118
f 114 118 119
f 113 115 120
f 113 120 118
f 115 112 117
f 115 117 120
f 117 116 121
f 117 121 122
f 119 118 123
f 119 123 124
f 118 120 125
f 118 125 123
f 120 117 122
f 120 122 125
f 122 121 126
f 122 126 127
f 124 123 128
f 124 128 129
f 123 125 130
f 123 130 128
f 125 122 127
f 125 127 130
f 127 126 131
f 127 131 132
f 129 128 133
f 129 133 134
f 128 130 135
f 128 135 133
f 130 127 132
f 130 132 135
f 132 131 136
f 132 136 137
f 134 133 138
f 134 138 139
f 133 135 140
f 133 140 138
f 135 132 137
f 135 137 140
f 137 136 141
f 137 141 142
f 139 138 143
f 139 143 144
f 138 140 145
f 138 145 143
f 140 137 142
f 140 142 145
f 142 141 146
f 142 146 147
f 144 143 148
f 144 148 149
f 143 145 150
f 143 150 148
f 145 142 147
f 145 147 150
f 147 146 151
f 147 151 152
f 149 148 35
f 149 35 34
f 148 150 32
f 148 32 35
f 150 147 152
f 150 152 32
f 94 96 153
f 94 153 154
f 96 101 155
f 96 155 153
f 99 94 154
f 99 154 156
f 101 110 157
f 101 157 155
f 110 104 158
f 110 158 157
f 104 99 156
f 104 156 158
f 155 157 159
f 155 159 160
f 157 158 161
f 157 161 159
f 158 156 162
f 158 162 161
f 156 154 163
f 156 163 162
f 154 153 164
f 154 164 163
f 153 155 160
f 153 160 164
f 160 159 165
f 160 165 166
f 159 161 167
f 159 167 165
f 161 162 168
f 161 168 167
f 162 163 169
f 162 169 168
f 163 164 170
f 163 170 169
f 164 160 166
f 164 166 170
f 166 165 171
f 166 171 172
f 165 167 173
f 165 173 171
f 167 168 174
f 167 174 173
f 168 169 175
f 168 175 174
f 169 170 176
f 169 176 175
f 170 166 172
f 170 172 176
f 172 171 107
f 172 107 106
f 171 173 108
f 171 108 107
f 173 174 109
f 173 109 108
f 174 175 177
f 174 177 109
f 175 176 178
f 175 178 177
f 176 172 106
f 176 106 178
f 152 151 33
f 152 33 32
f 179 55 58
f 179 58 57
f 56 55 179
f 56 179 59
f 180 181 24
f 180 24 23
f 26 29 182
f 26 182 183
f 183 182 184
f 183 184 185
f 185 184 181
f 185 181 180
f 186 187 34
f 186 34 33
f 180 188 189
f 180 189 185
f 185 189 190
f 185 190 183
f 183 190 39
f 183 39 26
f 23 40 188
f 23 188 180
f 188 191 192
f 188 192 189
f 189 192 193
f 189 193 190
f 190 193 44
f 190 44 39
f 40 45 191
f 40 191 188
f 191 194 195
f 191 195 192
f 196 197 198
f 196 198 199
f 193 200 52
f 193 52 44
f 45 54 194
f 45 194 191
f 194 201 202
f 194 202 195
f 200 203 57
f 200 57 52
f 54 59 201
f 54 201 194
f 204 205 206
f 204 206 207
f 207 206 208
f 207 208 209
f 210 211 205
f 210 205 204
f 209 208 212
f 209 212 213
f 213 212 214
f 213 214 215
f 215 214 211
f 215 211 210
f 211 216 217
f 211 217 205
f 205 217 218
f 205 218 206
f 206 218 219
f 206 219 208
f 208 219 220
f 208 220 212
f 212 220 221
f 212 221 214
f 214 221 216
f 214 216 211
f 193 207 209
f 193 209 200
f 200 209 213
f 200 213 203
f 203 213 215
f 203 215 202
f 202 215 210
f 202 210 195
f 195 210 204
f 195 204 192
f 192 204 207
f 192 207 193
f 216 222 223
f 216 223 217
f 217 223 224
f 217 224 218
f 218 224 225
f 218 225 219
f 219 225 226
f 219 226 220
f 220 226 227
f 220 227 221
f 221 227 222
f 221 222 216
f 222 228 229
f 222 229 223
f 223 229 230
f 223 230 224
f 224 230 231
f 224 231 225
f 225 231 232
f 225 232 226
f 226 232 233
f 226 233 227
f 227 233 228
f 227 228 222
f 228 196 234
f 228 234 229
f 229 234 235
f 229 235 230
f 230 235 199
f 230 199 231
f 231 199 198
f 231 198 232
f 232 198 197
f 232 197 233
f 233 197 196
f 233 196 228
f 181 236 92
f 181 92 24
f 29 95 237
f 29 237 182
f 182 237 238
f 182 238 184
f 184 238 236
f 184 236 181
f 236 239 97
f 236 97 92
f 95 100 240
f 95 240 237
f 238 241 239
f 238 239 236
f 239 242 243
f 239 243 97
f 100 244 245
f 100 245 240
f 246 247 248
f 246 248 249
f 241 250 242
f 241 242 239
f 242 251 111
f 242 111 243
f 244 114 252
f 244 252 245
f 245 252 253
f 245 253 250
f 250 253 251
f 250 251 242
f 251 254 116
f 251 116 111
f 114 119 255
f 114 255 252
f 252 255 256
f 252 256 253
f 253 256 254
f 253 254 251
f 254 257 121
f 254 121 116
f 119 124 258
f 119 258 255
f 255 258 259
f 255 259 256
f 256 259 257
f 256 257 254
f 257 260 126
f 257 126 121
f 124 129 261
f 124 261 258
f 258 261 262
f 258 262 259
f 259 262 260
f 259 260 257
f 260 263 131
f 260 131 126
f 129 134 264
f 129 264 261
f 261 264 265
f 261 265 262
f 262 265 263
f 262 263 260
f 263 266 136
f 263 136 131
f 134 139 267
f 134 267 264
f 264 267 268
f 264 268 265
f 265 268 266
f 265 266 263
f 266 269 141
f 266 141 136
f 139 144 270
f 139 270 267
f 267 270 271
f 267 271 268
f 268 271 269
f 268 269 266
f 269 272 146
f 269 146 141
f 144 149 273
f 144 273 270
f 270 273 274
f 270 274 271
f 271 274 272
f 271 272 269
f 272 275 151
f 272 151 146
f 149 34 187
f 149 187 273
f 273 187 186
f 273 186 274
f 274 186 275
f 274 275 272
f 237 276 277
f 237 277 238
f 238 277 278
f 238 278 241
f 240 279 276
f 240 276 237
f 241 278 280
f 241 280 250
f 250 280 281
f 250 281 245
f 245 281 279
f 245 279 240
f 278 282 283
f 278 283 280
f 280 283 284
f 280 284 281
f 281 284 285
f 281 285 279
f 279 285 286
f 279 286 276
f 276 286 287
f 276 287 277
f 277 287 282
f 277 282 278
f 282 288 289
f 282 289 283
f 283 289 290
f 283 290 284
f 284 290 291
f 284 291 285
f 285 291 292
f 285 292 286
f 286 292 293
f 286 293 287
f 287 293 288
f 287 288 282
f 288 294 295
f 288 295 289
f 289 295 296
f 289 296 290
f 290 296 297
f 290 297 291
f 291 297 298
f 291 298 292
f 292 298 299
f 292 299 293
f 293 299 294
f 293 294 288
f 294 246 300
f 294 300 295
f 295 300 301
f 295 301 296
f 296 301 249
f 296 249 297
f 297 249 248
f 297 248 298
f 298 248 247
f 298 247 299
f 299 247 246
f 299 246 294
f 275 186 33
f 275 33 151
f 179 57 203
f 179 203 202
f 201 59 179
f 201 179 202
f 302 303 304
f 302 304 305
f 305 304 306
f 305 306 307
f 308 309 310
f 308 310 311
f 312 313 303
f 312 303 302
f 303 313 306
f 303 306 304
f 312 302 305
f 312 305 307
f 307 306 314
f 307 314 315
f 306 313 316
f 306 316 314
f 313 312 317
f 313 317 316
f 312 307 315
f 312 315 317
f 315 314 318
f 315 318 319
f 314 316 320
f 314 320 318
f 316 317 321
f 316 321 320
f 317 315 319
f 317 319 321
f 319 318 322
f 319 322 323
f 318 320 324
f 318 324 322
f 320 321 325
f 320 325 324
f 321 319 323
f 321 323 325
f 323 322 326
f 323 326 327
f 322 324 328
f 322 328 326
f 324 325 329
f 324 329 328
f 325 323 327
f 325 327 329
f 327 326 309
f 327 309 308
f 326 328 310
f 326 310 309
f 328 329 311
f 328 311 310
f 329 327 308
f 329 308 311
f 330 331 332
f 330 332 333
f 334 335 336
f 334 336 337
f 338 339 340
f 338 340 341
f 341 340 331
f 341 331 330
f 331 340 339
f 331 339 332
f 341 330 333
f 341 333 338
f 333 332 342
f 333 342 343
f 332 339 344
f 332 344 342
f 339 338 345
f 339 345 344
f 338 333 343
f 338 343 345
f 343 342 335
f 343 335 334
f 342 344 336
f 342 336 335
f 344 345 337
f 344 337 336
f 345 343 334
f 345 334 337
f 346 347 348
f 346 348 349
f 350 351 352
f 350 352 353
f 354 355 356
f 354 356 357
f 355 346 349
f 355 349 356
f 349 348 357
f 349 357 356
f 355 354 347
f 355 347 346
f 347 358 359
f 347 359 348
f 348 359 360
f 348 360 357
f 357 360 361
f 357 361 354
f 354 361 358
f 354 358 347
f 358 350 353
f 358 353 359
f 359 353 352
f 359 352 360
f 360 352 351
f 360 351 361
f 361 351 350
f 361 350 358
f 362 363 364
f 362 364 365
f 365 364 366
f 365 366 367
f 367 366 368
f 367 368 369
f 369 368 363
f 369 363 362
f 363 368 366
f 363 366 364
f 369 362 365
f 369 365 367
f 370 371 372
f 370 372 373
f 371 374 375
f 371 375 372
f 374 376 377
f 374 377 375
f 376 370 373
f 376 373 377
f 373 372 375
f 373 375 377
f 376 374 371
f 376 371 370
f 246 249 301
f 301 300 246
f 51 90 91
f 91 48 51
f 178 106 109
f 109 177 178
f 199 235 234
f 234 196 199
f 243 111 102
f 102 97 243
f 105 114 244
f 244 100 105