# https://github.com/mikedh/trimesh
v 0.00397196 0.00124207 0.03820097
v -0.00172667 -0.00074684 0.03816780
v 0.00394520 -0.00272029 0.03819520
v -0.00742529 0.00124207 0.03820097
v -0.00739853 -0.00272029 0.03819520
v -0.00655734 -0.00642197 0.03820749
v -0.00526252 -0.00924631 0.03822564
v -0.00358003 -0.01090090 0.03822955
v -0.00172667 -0.01156208 0.03823776
v 0.00012670 -0.01090090 0.03822955
v 0.00180919 -0.00924631 0.03822564
v 0.00310400 -0.00642197 0.03820749
v 0.00304712 0.00495503 0.03821398
v 0.00163108 0.00735104 0.03822128
v 0.00000990 0.00892801 0.03823194
v -0.00172667 0.00954443 0.03824015
v -0.00346323 0.00892801 0.03823194
v -0.00508441 0.00735104 0.03822128
v -0.00650045 0.00495503 0.03821398
v 0.00644585 -0.00091476 0.04346884
v 0.00631757 -0.00053228 0.04348725
v 0.00589449 -0.00135542 0.04356310
v 0.00611829 -0.00026916 0.04351546
v 0.00587783 -0.00016772 0.04354936
v 0.00563293 -0.00024934 0.04358383
v 0.00542262 -0.00050409 0.04361330
v 0.00528112 -0.00089328 0.04363304
v 0.00523163 -0.00135542 0.04363986
v 0.00528248 -0.00181639 0.04363271
v 0.00542454 -0.00220268 0.04361279
v 0.00563417 -0.00245430 0.04358332
v 0.00587745 -0.00253440 0.04354906
v 0.00611619 -0.00243397 0.04351541
v 0.00631479 -0.00217390 0.04348737
v 0.00644585 -0.00179608 0.04346884
v 0.00649236 -0.00135542 0.04346228
v -0.01854799 -0.00550346 0.02537514
v -0.01646028 -0.01361068 0.02544673
v -0.01171736 -0.00921860 0.02571536
v -0.01329348 -0.00395026 0.02571536
v -0.01284297 -0.02012325 0.02536658
v -0.00911586 -0.01343831 0.02571529
v -0.00732131 -0.02332695 0.02529662
v -0.00555406 -0.01585585 0.02571422
v 0.02043288 -0.00728057 0.02428872
v 0.01744285 -0.01859973 0.02420136
v 0.02063033 -0.02253660 0.02179412
v 0.02410389 -0.00870716 0.02186826
v 0.01205081 -0.02689217 0.02424896
v 0.01436654 -0.03276297 0.02180778
v 0.00533266 -0.03171805 0.02410045
v 0.00645455 -0.03766425 0.02165730
v 0.00495709 0.02754044 0.02434663
v 0.01123368 0.02286851 0.02442746
v 0.01399996 0.02947433 0.02207780
v 0.00628375 0.03439116 0.02192472
v 0.01624932 0.01491441 0.02446380
v 0.02018661 0.01944654 0.02211008
v 0.01959985 0.00448520 0.02437327
v 0.02366796 0.00584769 0.02198769
v -0.00669056 0.01883292 0.02539224
v -0.01148314 0.01577119 0.02542404
v -0.00918296 0.01112320 0.02571536
v -0.00552911 0.01339882 0.02571536
v -0.01513944 0.00997379 0.02545080
v -0.01200524 0.00697921 0.02571536
v -0.01736717 0.00257046 0.02539885
v -0.01308153 0.00160623 0.02571536
v -0.00172667 -0.02458076 0.02531324
v -0.00172667 -0.01695111 0.02571536
v -0.00878599 -0.03171805 0.02410045
v -0.00172667 -0.03370661 0.02404144
v -0.00990788 -0.03766425 0.02165730
v -0.00172667 -0.03940301 0.02162085
v 0.00984015 -0.00395026 0.02571536
v 0.01509466 -0.00550346 0.02537514
v 0.01391384 0.00257046 0.02539885
v 0.00962820 0.00160623 0.02571536
v -0.02712129 0.00584769 0.02198769
v -0.02755722 -0.00870716 0.02186826
v -0.02388621 -0.00728057 0.02428872
v -0.02305318 0.00448520 0.02437327
v -0.00172667 0.03608255 0.02184626
v -0.00973708 0.03439116 0.02192472
v -0.00841042 0.02754044 0.02434663
v -0.00172667 0.02942568 0.02429050
v -0.00172667 0.02005473 0.02538079
v -0.00172667 0.01418866 0.02571536
v -0.02089618 -0.01859973 0.02420136
v -0.01550414 -0.02689217 0.02424896
v 0.00826403 -0.00921860 0.02571536
v 0.01300695 -0.01361068 0.02544673
v 0.00566254 -0.01343831 0.02571529
v 0.00938964 -0.02012325 0.02536658
v 0.00210073 -0.01585585 0.02571422
v 0.00386798 -0.02332695 0.02529662
v -0.02408366 -0.02253660 0.02179412
v -0.01781987 -0.03276297 0.02180778
v 0.00207578 0.01339882 0.02571536
v 0.00572963 0.01112320 0.02571536
v 0.00802981 0.01577119 0.02542404
v 0.00323723 0.01883292 0.02539224
v 0.00855191 0.00697921 0.02571536
v 0.01168611 0.00997379 0.02545080
v -0.01468702 0.02286851 0.02442746
v -0.01745329 0.02947433 0.02207780
v -0.01970264 0.01491441 0.02446380
v -0.02363994 0.01944654 0.02211008
v 0.02158101 -0.00843522 0.00494060
v 0.01864299 -0.00734620 0.00207970
v 0.01847820 0.00473614 0.00207093
v 0.02140097 0.00550683 0.00487586
v -0.02209632 -0.00734620 0.00207970
v -0.02503434 -0.00843522 0.00494060
v -0.02485430 0.00550683 0.00487586
v -0.02193153 0.00473614 0.00207093
v 0.01352735 0.02931160 0.00490543
v 0.01161518 0.02533435 0.00219324
v 0.00514499 0.03038099 0.00231341
v 0.00605335 0.03393983 0.00501051
v 0.00919143 0.02064189 0.00082720
v 0.00401648 0.02522522 0.00090736
v 0.00603775 0.01450941 0.00000000
v 0.00240391 0.01793468 0.00000000
v -0.00172667 -0.04250383 0.01554304
v -0.01053130 -0.04148447 0.01548387
v -0.01033249 -0.04146433 0.01206793
v -0.00172667 -0.04248113 0.01212859
v -0.01063755 0.03892443 0.01539585
v -0.00172667 0.03981024 0.01540961
v -0.00172667 0.03967404 0.01182359
v -0.01061597 0.03876361 0.01179921
v 0.02539773 0.00666229 0.01544109
v 0.02549695 -0.00946963 0.01545790
v 0.02492594 -0.00934446 0.01202336
v 0.02491294 0.00645420 0.01197241
v -0.02895028 -0.00946963 0.01545790
v -0.02885106 0.00666229 0.01544109
v -0.02836627 0.00645420 0.01197241
v -0.02837927 -0.00934446 0.01202336
v -0.02593438 -0.02508082 0.01547661
v -0.02542967 -0.02515596 0.01199319
v -0.01942873 -0.03710358 0.01546988
v -0.01900344 -0.03723522 0.01195853
v 0.01597540 -0.03710358 0.01546988
v 0.00707797 -0.04148447 0.01548387
v 0.00687917 -0.04146433 0.01206793
v 0.01555011 -0.03723522 0.01195853
v 0.02248105 -0.02508082 0.01547661
v 0.02197634 -0.02515596 0.01199319
v 0.02296483 0.02269649 0.01541561
v 0.02279005 0.02241304 0.01174676
v 0.00718422 0.03892443 0.01539585
v 0.01630218 0.03528728 0.01542285
v 0.01627169 0.03526047 0.01172168
v 0.00716264 0.03876361 0.01179921
v -0.01975552 0.03528728 0.01542285
v -0.01972502 0.03526047 0.01172168
v -0.02641816 0.02269649 0.01541561
v -0.02624337 0.02241304 0.01174676
v -0.00846432 -0.03293576 0.00230240
v -0.00928665 -0.03690841 0.00505658
v -0.01647952 -0.03182449 0.00490191
v -0.01462004 -0.02802127 0.00221903
v -0.00618065 -0.02058147 0.00000000
v -0.00772118 -0.02825896 0.00096807
v -0.01313069 -0.02350063 0.00089978
v -0.01015903 -0.01683024 0.00000000
v -0.00172667 -0.03494191 0.00237675
v -0.00172667 -0.03825071 0.00515448
v -0.00172667 -0.03030765 0.00100433
v -0.00172667 -0.02223197 0.00000000
v 0.01872821 -0.02180142 0.00485946
v 0.01587309 -0.01890116 0.00207247
v 0.01125602 -0.00426069 0.00000000
v 0.01615736 -0.00603789 0.00079775
v 0.01377824 -0.01583970 0.00079134
v 0.00961407 -0.01124650 0.00000000
v -0.00585724 0.01793468 0.00000000
v -0.00746981 0.02522522 0.00090736
v -0.00172667 0.02679355 0.00091388
v -0.00172667 0.01913212 0.00000000
v -0.00859832 0.03038099 0.00231341
v -0.00172667 0.03223842 0.00238148
v -0.00950668 0.03393983 0.00501051
v -0.00172667 0.03509868 0.00512735
v -0.02238604 0.01885054 0.00480975
v -0.01987279 0.01629977 0.00212373
v -0.01408187 0.00267663 0.00000000
v -0.01894748 0.00396356 0.00077092
v -0.01664307 0.01338416 0.00071075
v -0.01234864 0.00939727 0.00000000
v -0.02218153 -0.02180142 0.00485946
v -0.01932642 -0.01890116 0.00207247
v -0.01723157 -0.01583970 0.00079134
v -0.01306740 -0.01124650 0.00000000
v -0.01961069 -0.00603789 0.00079775
v -0.01470935 -0.00426069 0.00000000
v 0.01302618 -0.03182449 0.00490191
v 0.01116671 -0.02802127 0.00221903
v 0.00967737 -0.02350063 0.00089978
v 0.00670570 -0.01683024 0.00000000
v 0.00583333 -0.03690841 0.00505658
v 0.00501099 -0.03293576 0.00230240
v 0.00426785 -0.02825896 0.00096807
v 0.00272733 -0.02058147 0.00000000
v 0.01893271 0.01885054 0.00480975
v 0.01641946 0.01629977 0.00212373
v 0.01318974 0.01338416 0.00071075
v 0.00889531 0.00939727 0.00000000
v 0.01549415 0.00396356 0.00077092
v 0.01062855 0.00267663 0.00000000
v -0.01698068 0.02931160 0.00490543
v -0.01506851 0.02533435 0.00219324
v -0.01264476 0.02064189 0.00082720
v -0.00949108 0.01450941 0.00000000
v -0.00989323 -0.03994055 0.00838637
v -0.00172667 -0.04099776 0.00845758
v 0.00643990 -0.03994055 0.00838637
v 0.01450479 -0.03518398 0.00821985
v 0.02071551 -0.02399737 0.00819417
v 0.02346765 -0.00902954 0.00830428
v 0.02342003 0.00603901 0.00825881
v 0.02137840 0.02087040 0.00801006
v 0.01513457 0.03260854 0.00798426
v 0.00668491 0.03702479 0.00819659
v -0.00172667 0.03806349 0.00829042
v -0.01013824 0.03702479 0.00819659
v -0.01858790 0.03260854 0.00798426
v -0.02483173 0.02087040 0.00801006
v -0.02687336 0.00603901 0.00825881
v -0.02692098 -0.00902954 0.00830428
v -0.02416884 -0.02399737 0.00819417
v -0.01795812 -0.03518398 0.00821985
v -0.01041428 -0.04036027 0.01871598
v -0.01899123 -0.03586129 0.01883475
v -0.02558736 -0.02460546 0.01886276
v -0.02902300 -0.00942135 0.01886936
v -0.02891685 0.00649956 0.01896608
v -0.02576952 0.02201529 0.01911182
v -0.01899434 0.03341872 0.01911151
v -0.01039340 0.03781110 0.01890300
v -0.00172667 0.03906072 0.01881905
v 0.00694007 0.03781110 0.01890300
v 0.01554101 0.03341872 0.01911151
v 0.02231618 0.02201529 0.01911182
v 0.02546351 0.00649956 0.01896608
v 0.02556967 -0.00942135 0.01886936
v 0.02213402 -0.02460546 0.01886276
v 0.01553790 -0.03586129 0.01883475
v 0.00696095 -0.04036027 0.01871598
v -0.00172667 -0.04168997 0.01872921
v -0.00703765 0.00939727 0.00000000
v 0.00962820 0.00160623 0.02586700
v 0.00984015 -0.00395026 0.02586700
v -0.01329348 -0.00395026 0.02586700
v -0.01308153 0.00160623 0.02586700
v -0.01171736 -0.00921860 0.02586700
v -0.00911586 -0.01343831 0.02586692
v -0.00555406 -0.01585585 0.02586586
v -0.00172667 -0.01695111 0.02586700
v 0.00210073 -0.01585585 0.02586586
v 0.00566254 -0.01343831 0.02586692
v 0.00826403 -0.00921860 0.02586700
v 0.00855191 0.00697921 0.02586700
v 0.00572963 0.01112320 0.02586700
v 0.00207578 0.01339882 0.02586700
v -0.00172667 0.01418866 0.02586700
v -0.00552911 0.01339882 0.02586700
v -0.00918296 0.01112320 0.02586700
v -0.01200524 0.00697921 0.02586700
v 0.01470813 -0.00533239 0.02665798
v 0.01441102 0.00310106 0.02667966
v 0.01626022 0.00391202 0.02787386
v 0.01663269 -0.00614632 0.02783582
v -0.01786435 0.00310106 0.02667966
v -0.01816146 -0.00533239 0.02665798
v -0.02008602 -0.00614632 0.02783582
v -0.01971355 0.00391202 0.02787386
v -0.01596882 -0.01393544 0.02662914
v -0.01750491 -0.01620505 0.02780474
v -0.01225446 -0.02093670 0.02658640
v -0.01335772 -0.02431378 0.02775086
v -0.00726482 -0.02512062 0.02654621
v -0.00785477 -0.02920041 0.02770338
v -0.00172667 -0.02689373 0.02653075
v -0.00172667 -0.03123707 0.02767350
v 0.00381149 -0.02512062 0.02654621
v 0.00440144 -0.02920041 0.02770338
v 0.00880112 -0.02093670 0.02658640
v 0.00990439 -0.02431378 0.02775086
v 0.01251548 -0.01393544 0.02662914
v 0.01405159 -0.01620505 0.02780474
v 0.01279795 0.01186024 0.02664343
v 0.01435892 0.01421406 0.02784303
v 0.00888792 0.01868470 0.02661274
v 0.01002639 0.02210784 0.02780467
v 0.00377856 0.02269171 0.02660687
v 0.00438714 0.02688877 0.02777812
v -0.00172667 0.02424881 0.02658831
v -0.00172667 0.02870527 0.02774089
v -0.00723189 0.02269171 0.02660687
v -0.00784047 0.02688877 0.02777812
v -0.01234124 0.01868470 0.02661274
v -0.01347972 0.02210784 0.02780467
v -0.01625128 0.01186024 0.02664343
v -0.01781225 0.01421406 0.02784303
v 0.01800230 -0.00728301 0.03365809
v 0.01774213 0.00492439 0.03374141
v 0.01607867 0.00444165 0.03588585
v 0.01645417 -0.00706076 0.03583981
v -0.02119546 0.00492439 0.03374141
v -0.02145563 -0.00728301 0.03365809
v -0.01990750 -0.00706076 0.03583981
v -0.01953200 0.00444165 0.03588585
v -0.01844431 -0.01845470 0.03359459
v -0.01702960 -0.01736918 0.03574025
v -0.01369658 -0.02686597 0.03347669
v -0.01269653 -0.02515780 0.03558420
v -0.00792848 -0.03189018 0.03334702
v -0.00745090 -0.02990521 0.03547121
v -0.00172667 -0.03388976 0.03322297
v -0.00172667 -0.03182184 0.03545031
v 0.00447515 -0.03189018 0.03334702
v 0.00399757 -0.02990521 0.03547121
v 0.01024325 -0.02686597 0.03347669
v 0.00924320 -0.02515780 0.03558420
v 0.01499098 -0.01845470 0.03359459
v 0.01357627 -0.01736918 0.03574025
v 0.01499460 0.01632301 0.03375329
v 0.01341593 0.01496785 0.03584404
v 0.01026741 0.02463510 0.03360034
v 0.00913026 0.02254802 0.03575212
v 0.00449305 0.02951498 0.03349271
v 0.00393432 0.02721590 0.03564819
v -0.00172667 0.03134582 0.03341304
v -0.00172667 0.02921596 0.03563058
v -0.00794638 0.02951498 0.03349271
v -0.00738765 0.02721590 0.03564819
v -0.01372074 0.02463510 0.03360034
v -0.01258359 0.02254802 0.03575212
v -0.01844793 0.01632301 0.03375329
v -0.01686926 0.01496785 0.03584404
v 0.01812339 0.00499394 0.03148050
v 0.01543289 0.01649777 0.03146946
v 0.01060824 0.02496028 0.03134866
v 0.00465362 0.02993827 0.03127914
v -0.00172667 0.03172022 0.03115060
v -0.00810695 0.02993827 0.03127914
v -0.01406157 0.02496028 0.03134866
v -0.01888622 0.01649777 0.03146946
v -0.02157672 0.00499394 0.03148050
v -0.02176994 -0.00722239 0.03141105
v -0.01871801 -0.01854120 0.03133346
v -0.01398560 -0.02706940 0.03125106
v -0.00807668 -0.03222970 0.03116815
v -0.00172667 -0.03412135 0.03112307
v 0.00462335 -0.03222970 0.03116815
v 0.01053227 -0.02706940 0.03125106
v 0.01526468 -0.01854120 0.03133346
v 0.01831660 -0.00722239 0.03141105
v 0.01341910 0.00404920 0.03713299
v 0.01330762 -0.00593672 0.03717137
v 0.01106267 -0.01521365 0.03714256
v 0.00758035 -0.02231221 0.03709979
v 0.00313828 -0.02631888 0.03707480
v -0.00172667 -0.02788507 0.03710648
v -0.00659161 -0.02631888 0.03707480
v -0.01103368 -0.02231221 0.03709979
v -0.01451600 -0.01521365 0.03714256
v -0.01676095 -0.00593672 0.03717137
v -0.01687243 0.00404920 0.03713299
v -0.01446088 0.01332587 0.03718063
v -0.01072723 0.01922925 0.03722546
v -0.00642408 0.02320407 0.03722723
v -0.00172667 0.02484123 0.03725779
v 0.00297075 0.02320407 0.03722723
v 0.00727390 0.01922925 0.03722546
v 0.01100756 0.01332587 0.03718063
v 0.00923706 0.00295169 0.03790583
v 0.00918575 -0.00453286 0.03790703
v 0.00758624 -0.01153818 0.03790983
v 0.00510501 -0.01694568 0.03791098
v 0.00186735 -0.02012807 0.03789604
v -0.00172667 -0.02142608 0.03790843
v -0.00532068 -0.02012807 0.03789604
v -0.00855834 -0.01694568 0.03791098
v -0.01103957 -0.01153818 0.03790983
v -0.01263908 -0.00453286 0.03790703
v -0.01269039 0.00295169 0.03790583
v -0.01096878 0.00998426 0.03792726
v -0.00829389 0.01459517 0.03793304
v -0.00515822 0.01770674 0.03793347
v -0.00172667 0.01896383 0.03794834
v 0.00170489 0.01770674 0.03793347
v 0.00484056 0.01459517 0.03793304
v 0.00751545 0.00998426 0.03792726
v 0.01739544 0.00455312 0.02938094
v 0.01520255 0.01583217 0.02938188
v 0.01060000 0.02432014 0.02935667
v 0.00468648 0.02953730 0.02932069
v -0.00172667 0.03148225 0.02927114
v -0.00813981 0.02953730 0.02932069
v -0.01405332 0.02432014 0.02935667
v -0.01865588 0.01583217 0.02938188
v -0.02084877 0.00455312 0.02938094
v -0.02124393 -0.00681363 0.02933051
v -0.01835869 -0.01780158 0.02931243
v -0.01392026 -0.02649304 0.02927048
v -0.00812927 -0.03176114 0.02923709
v -0.00172667 -0.03390818 0.02919806
v 0.00467594 -0.03176114 0.02923709
v 0.01046693 -0.02649304 0.02927048
v 0.01490536 -0.01780158 0.02931243
v 0.01779060 -0.00681363 0.02933051
v 0.00394370 -0.01124650 0.00000000
v 0.00445094 0.00267663 0.00000000
v 0.00476469 -0.00426069 0.00000000
v -0.00172667 -0.00426069 0.00000000
v -0.00172667 0.00267663 0.00000000
v -0.00172667 -0.01124650 0.00000000
v 0.00358432 0.00939727 0.00000000
v -0.00172667 0.00939727 0.00000000
v -0.00739703 -0.01124650 0.00000000
v -0.00821801 -0.00426069 0.00000000
v -0.00790427 0.00267663 0.00000000
v 0.02318338 0.01486137 0.03731020
v 0.01817839 0.02860933 0.03789327
v 0.01655431 0.02456569 0.03922014
v 0.02085958 0.01267298 0.03867868
v 0.01068791 0.03779544 0.03876589
v 0.01011102 0.03251217 0.04003050
v 0.00185229 0.04102114 0.03979520
v 0.00251060 0.03530255 0.04098636
v -0.00698333 0.03779544 0.04082452
v -0.00508977 0.03251217 0.04194224
v -0.01447382 0.02860937 0.04169712
v -0.01153308 0.02456575 0.04275260
v -0.01947879 0.01486140 0.04228019
v -0.01583836 0.01267300 0.04329408
v -0.02123631 -0.00135540 0.04248494
v -0.01735017 -0.00135542 0.04348418
v -0.01947879 -0.01757222 0.04228019
v -0.01583836 -0.01538384 0.04329408
v -0.01447383 -0.03132017 0.04169711
v -0.01153311 -0.02727655 0.04275259
v -0.00698335 -0.04050628 0.04082451
v -0.00508979 -0.03522303 0.04194224
v 0.00185227 -0.04373198 0.03979518
v 0.00251060 -0.03801342 0.04098634
v 0.01068792 -0.04050629 0.03876587
v 0.01011102 -0.03522305 0.04003050
v 0.01817839 -0.03132019 0.03789327
v 0.01655431 -0.02727655 0.03922014
v 0.02318338 -0.01757224 0.03731019
v 0.02085958 -0.01538385 0.03867868
v 0.02494087 -0.00135542 0.03710546
v 0.02237138 -0.00135542 0.03848853
v 0.02234215 0.01478696 0.03468419
v 0.01733697 0.02847183 0.03522922
v 0.01855280 0.02992379 0.03653883
v 0.02380164 0.01557275 0.03596725
v 0.00984617 0.03761576 0.03604491
v 0.01069738 0.03951286 0.03739424
v 0.00101019 0.04082671 0.03700708
v 0.00143128 0.04288010 0.03840326
v -0.00782578 0.03761580 0.03796926
v -0.00783484 0.03951288 0.03941227
v -0.01531657 0.02847187 0.03878493
v -0.01569028 0.02992383 0.04026763
v -0.02032177 0.01478699 0.03932995
v -0.02093912 0.01557280 0.04083919
v -0.02207936 -0.00135540 0.03952135
v -0.02278226 -0.00135540 0.04103993
v -0.02032178 -0.01749781 0.03932995
v -0.02093912 -0.01828360 0.04083919
v -0.01531659 -0.03118268 0.03878495
v -0.01569029 -0.03263464 0.04026763
v -0.00782581 -0.04032662 0.03796925
v -0.00783487 -0.04222371 0.03941223
v 0.00101019 -0.04353755 0.03700708
v 0.00143125 -0.04559093 0.03840324
v 0.00984616 -0.04032664 0.03604491
v 0.01069738 -0.04222371 0.03739421
v 0.01733697 -0.03118270 0.03522923
v 0.01855280 -0.03263466 0.03653883
v 0.02234215 -0.01749783 0.03468419
v 0.02380164 -0.01828362 0.03596725
v 0.02409973 -0.00135542 0.03449281
v 0.02564477 -0.00135542 0.03576657
v 0.01365371 0.01641538 0.04052110
v 0.01659115 0.00826206 0.04013040
v 0.00925748 0.02186327 0.04110589
v 0.00407176 0.02377628 0.04179565
v -0.00111394 0.02186327 0.04248549
v -0.00551016 0.01641539 0.04307027
v -0.00844764 0.00826208 0.04346096
v -0.00947914 -0.00135542 0.04359817
v -0.00844764 -0.01097291 0.04346096
v -0.00551021 -0.01912623 0.04307027
v -0.00111394 -0.02457412 0.04248549
v 0.00407176 -0.02648711 0.04179565
v 0.00925748 -0.02457412 0.04110589
v 0.01365371 -0.01912623 0.04052110
v 0.01659115 -0.01097291 0.04013041
v 0.01762264 -0.00135542 0.03999319
v 0.00835875 0.00575339 0.04189666
v 0.00953382 0.00249184 0.04174036
v 0.00660013 0.00793270 0.04213059
v 0.00452572 0.00869796 0.04240652
v 0.00245129 0.00793270 0.04268246
v 0.00069268 0.00575339 0.04291643
v -0.00048239 0.00249184 0.04307269
v -0.00089502 -0.00135542 0.04312758
v -0.00048239 -0.00520269 0.04307269
v 0.00069266 -0.00846422 0.04291640
v 0.00245129 -0.01064354 0.04268246
v 0.00452571 -0.01140879 0.04240652
v 0.00660013 -0.01064354 0.04213059
v 0.00835875 -0.00846424 0.04189666
v 0.00953382 -0.00520269 0.04174036
v 0.00994644 -0.00135542 0.04168547
v 0.01482537 0.01004761 0.03325490
v 0.01845313 0.01252343 0.03353414
v 0.01996426 -0.00135542 0.03336959
v 0.01606694 -0.00135542 0.03311972
v 0.01128968 0.01971464 0.03363991
v 0.01414977 0.02428936 0.03400274
v 0.00599816 0.02617396 0.03421613
v 0.00770937 0.03215109 0.03470404
v -0.00024361 0.02844217 0.03489579
v 0.00011240 0.03491179 0.03553133
v -0.00656735 0.02617396 0.03557548
v -0.00748457 0.03215111 0.03635858
v -0.01185887 0.01971468 0.03615168
v -0.01392498 0.02428938 0.03705989
v -0.01539456 0.01004763 0.03653671
v -0.01822832 0.01252344 0.03752848
v -0.01663612 -0.00135542 0.03667190
v -0.01973946 -0.00135542 0.03769301
v -0.01539456 -0.01275847 0.03653671
v -0.01822832 -0.01523426 0.03752848
v -0.01185888 -0.02242550 0.03615170
v -0.01392499 -0.02700020 0.03705986
v -0.00656737 -0.02888482 0.03557550
v -0.00748461 -0.03486195 0.03635856
v -0.00024362 -0.03115302 0.03489581
v 0.00011240 -0.03762263 0.03553132
v 0.00599816 -0.02888482 0.03421612
v 0.00770935 -0.03486196 0.03470407
v 0.01128968 -0.02242550 0.03363991
v 0.01414977 -0.02700022 0.03400274
v 0.01482537 -0.01275847 0.03325490
v 0.01845313 -0.01523428 0.03353414
v 0.00546943 0.00039483 0.04228100
v 0.00575875 -0.00040820 0.04224251
v 0.00503645 0.00093139 0.04233860
v 0.00452571 0.00111979 0.04240652
v 0.00401496 0.00093139 0.04247446
v 0.00358199 0.00039483 0.04253207
v 0.00329267 -0.00040820 0.04257056
v 0.00319107 -0.00135542 0.04258405
v 0.00329267 -0.00230265 0.04257056
v 0.00358199 -0.00310566 0.04253207
v 0.00401496 -0.00364222 0.04247446
v 0.00452571 -0.00383064 0.04240652
v 0.00503645 -0.00364222 0.04233860
v 0.00546943 -0.00310566 0.04228100
v 0.00575875 -0.00230265 0.04224251
v 0.00586032 -0.00135542 0.04222901
v 0.00678125 -0.00057864 0.04331729
v 0.00655340 0.00009301 0.04334981
v 0.00674173 -0.00040820 0.04306701
v 0.00645780 0.00039483 0.04311001
v 0.00603283 0.00093139 0.04317434
v 0.00553179 0.00111979 0.04325041
v 0.00503174 0.00093139 0.04332730
v 0.00460789 0.00039483 0.04339257
v 0.00432455 -0.00040820 0.04343607
v 0.00422483 -0.00135542 0.04345114
v 0.00432455 -0.00230265 0.04343607
v 0.00460789 -0.00310566 0.04339257
v 0.00503174 -0.00364222 0.04332730
v 0.00553179 -0.00383064 0.04325041
v 0.00603283 -0.00364222 0.04317434
v 0.00645780 -0.00310566 0.04311001
v 0.00674173 -0.00230265 0.04306701
v 0.00684117 -0.00135542 0.04305171
v 0.00620216 0.00055329 0.04339982
v 0.00577987 0.00072866 0.04345983
v 0.00535097 0.00058378 0.04352091
v 0.00498317 0.00013642 0.04357319
v 0.00473585 -0.00054578 0.04360825
v 0.00464931 -0.00135542 0.04362045
v 0.00473799 -0.00216345 0.04360800
v 0.00498628 -0.00284159 0.04357286
v 0.00535329 -0.00328462 0.04352071
v 0.00577998 -0.00342731 0.04345995
v 0.00619982 -0.00325330 0.04340026
v 0.00654994 -0.00279730 0.04335037
v 0.00678125 -0.00213221 0.04331729
v 0.00686295 -0.00135542 0.04330551
f 1 2 3
f 4 5 2
f 2 5 6
f 2 6 7
f 2 7 8
f 2 8 9
f 2 9 10
f 2 10 11
f 2 11 12
f 2 12 3
f 13 2 1
f 14 2 13
f 15 2 14
f 16 2 15
f 17 2 16
f 18 2 17
f 19 2 18
f 4 2 19
f 20 21 22
f 21 23 22
f 23 24 22
f 24 25 22
f 25 26 22
f 26 27 22
f 27 28 22
f 28 29 22
f 29 30 22
f 30 31 22
f 31 32 22
f 32 33 22
f 33 34 22
f 34 35 22
f 35 36 22
f 36 20 22
f 37 38 39
f 37 39 40
f 38 41 42
f 38 42 39
f 41 43 44
f 41 44 42
f 45 46 47
f 45 47 48
f 46 49 50
f 46 50 47
f 49 51 52
f 49 52 50
f 53 54 55
f 53 55 56
f 54 57 58
f 54 58 55
f 57 59 60
f 57 60 58
f 61 62 63
f 61 63 64
f 62 65 66
f 62 66 63
f 65 67 68
f 65 68 66
f 44 43 69
f 44 69 70
f 43 71 72
f 43 72 69
f 71 73 74
f 71 74 72
f 45 48 60
f 45 60 59
f 75 76 77
f 75 77 78
f 76 45 59
f 76 59 77
f 79 80 81
f 79 81 82
f 81 37 67
f 81 67 82
f 37 40 68
f 37 68 67
f 83 84 85
f 83 85 86
f 85 61 87
f 85 87 86
f 61 64 88
f 61 88 87
f 38 37 81
f 38 81 89
f 43 41 90
f 43 90 71
f 41 38 89
f 41 89 90
f 75 91 92
f 75 92 76
f 91 93 94
f 91 94 92
f 93 95 96
f 93 96 94
f 89 81 80
f 89 80 97
f 71 90 98
f 71 98 73
f 90 89 97
f 90 97 98
f 76 92 46
f 76 46 45
f 92 94 49
f 92 49 46
f 94 96 51
f 94 51 49
f 99 100 101
f 99 101 102
f 100 103 104
f 100 104 101
f 103 78 77
f 103 77 104
f 102 101 54
f 102 54 53
f 101 104 57
f 101 57 54
f 104 77 59
f 104 59 57
f 105 85 84
f 105 84 106
f 82 107 108
f 82 108 79
f 107 105 106
f 107 106 108
f 85 105 62
f 85 62 61
f 105 107 65
f 105 65 62
f 107 82 67
f 107 67 65
f 87 88 99
f 87 99 102
f 86 87 102
f 86 102 53
f 56 83 86
f 56 86 53
f 72 74 52
f 72 52 51
f 69 72 51
f 69 51 96
f 70 69 96
f 70 96 95
f 109 110 111
f 109 111 112
f 113 114 115
f 113 115 116
f 117 118 119
f 117 119 120
f 118 121 122
f 118 122 119
f 121 123 124
f 121 124 122
f 125 126 127
f 125 127 128
f 129 130 131
f 129 131 132
f 133 134 135
f 133 135 136
f 137 138 139
f 137 139 140
f 141 137 140
f 141 140 142
f 126 143 144
f 126 144 127
f 143 141 142
f 143 142 144
f 145 146 147
f 145 147 148
f 134 149 150
f 134 150 135
f 149 145 148
f 149 148 150
f 151 133 136
f 151 136 152
f 153 154 155
f 153 155 156
f 154 151 152
f 154 152 155
f 157 129 132
f 157 132 158
f 138 159 160
f 138 160 139
f 159 157 158
f 159 158 160
f 156 131 130
f 156 130 153
f 146 125 128
f 146 128 147
f 161 162 163
f 161 163 164
f 165 166 167
f 165 167 168
f 166 161 164
f 166 164 167
f 162 161 169
f 162 169 170
f 161 166 171
f 161 171 169
f 166 165 172
f 166 172 171
f 110 109 173
f 110 173 174
f 175 176 177
f 175 177 178
f 176 110 174
f 176 174 177
f 179 180 181
f 179 181 182
f 180 183 184
f 180 184 181
f 183 185 186
f 183 186 184
f 116 115 187
f 116 187 188
f 189 190 191
f 189 191 192
f 190 116 188
f 190 188 191
f 164 163 193
f 164 193 194
f 168 167 195
f 168 195 196
f 167 164 194
f 167 194 195
f 114 113 194
f 114 194 193
f 113 197 195
f 113 195 194
f 197 198 196
f 197 196 195
f 174 173 199
f 174 199 200
f 178 177 201
f 178 201 202
f 177 174 200
f 177 200 201
f 200 199 203
f 200 203 204
f 202 201 205
f 202 205 206
f 201 200 204
f 201 204 205
f 170 169 204
f 170 204 203
f 169 171 205
f 169 205 204
f 171 172 206
f 171 206 205
f 118 117 207
f 118 207 208
f 123 121 209
f 123 209 210
f 121 118 208
f 121 208 209
f 182 181 122
f 182 122 124
f 181 184 119
f 181 119 122
f 184 186 120
f 184 120 119
f 112 111 208
f 112 208 207
f 111 211 209
f 111 209 208
f 211 212 210
f 211 210 209
f 188 187 213
f 188 213 214
f 192 191 215
f 192 215 216
f 191 188 214
f 191 214 215
f 185 183 214
f 185 214 213
f 183 180 215
f 183 215 214
f 180 179 216
f 180 216 215
f 176 175 212
f 176 212 211
f 198 197 190
f 198 190 189
f 110 176 211
f 110 211 111
f 197 113 116
f 197 116 190
f 128 127 217
f 128 217 218
f 147 128 218
f 147 218 219
f 148 147 219
f 148 219 220
f 150 148 220
f 150 220 221
f 135 150 221
f 135 221 222
f 136 135 222
f 136 222 223
f 152 136 223
f 152 223 224
f 155 152 224
f 155 224 225
f 156 155 225
f 156 225 226
f 226 227 131
f 226 131 156
f 132 131 227
f 132 227 228
f 158 132 228
f 158 228 229
f 160 158 229
f 160 229 230
f 139 160 230
f 139 230 231
f 140 139 231
f 140 231 232
f 142 140 232
f 142 232 233
f 144 142 233
f 144 233 234
f 127 144 234
f 127 234 217
f 235 236 143
f 235 143 126
f 236 237 141
f 236 141 143
f 237 238 137
f 237 137 141
f 239 138 137
f 239 137 238
f 239 240 159
f 239 159 138
f 240 241 157
f 240 157 159
f 241 242 129
f 241 129 157
f 242 243 130
f 242 130 129
f 153 130 243
f 153 243 244
f 244 245 154
f 244 154 153
f 245 246 151
f 245 151 154
f 246 247 133
f 246 133 151
f 248 134 133
f 248 133 247
f 248 249 149
f 248 149 134
f 249 250 145
f 249 145 149
f 250 251 146
f 250 146 145
f 252 125 146
f 252 146 251
f 235 126 125
f 235 125 252
f 219 218 170
f 219 170 203
f 220 219 203
f 220 203 199
f 221 220 199
f 221 199 173
f 222 221 173
f 222 173 109
f 223 222 109
f 223 109 112
f 224 223 112
f 224 112 207
f 225 224 207
f 225 207 117
f 226 225 117
f 226 117 120
f 186 227 226
f 186 226 120
f 228 227 186
f 228 186 185
f 229 228 185
f 229 185 213
f 230 229 213
f 230 213 187
f 231 230 187
f 231 187 115
f 232 231 115
f 232 115 114
f 233 232 114
f 233 114 193
f 234 233 193
f 234 193 163
f 217 234 163
f 217 163 162
f 218 217 162
f 218 162 170
f 74 73 235
f 74 235 252
f 52 74 252
f 52 252 251
f 50 52 251
f 50 251 250
f 47 50 250
f 47 250 249
f 48 47 249
f 48 249 248
f 60 48 248
f 60 248 247
f 58 60 247
f 58 247 246
f 55 58 246
f 55 246 245
f 56 55 245
f 56 245 244
f 243 83 56
f 243 56 244
f 242 84 83
f 242 83 243
f 106 84 242
f 106 242 241
f 108 106 241
f 108 241 240
f 79 108 240
f 79 240 239
f 238 80 79
f 238 79 239
f 97 80 238
f 97 238 237
f 98 97 237
f 98 237 236
f 73 98 236
f 73 236 235
f 179 253 192
f 179 192 216
f 75 78 254
f 75 254 255
f 68 40 256
f 68 256 257
f 40 39 258
f 40 258 256
f 39 42 259
f 39 259 258
f 42 44 260
f 42 260 259
f 44 70 261
f 44 261 260
f 70 95 262
f 70 262 261
f 95 93 263
f 95 263 262
f 93 91 264
f 93 264 263
f 91 75 255
f 91 255 264
f 78 103 265
f 78 265 254
f 103 100 266
f 103 266 265
f 100 99 267
f 100 267 266
f 99 88 268
f 99 268 267
f 88 64 269
f 88 269 268
f 64 63 270
f 64 270 269
f 63 66 271
f 63 271 270
f 66 68 257
f 66 257 271
f 272 273 274
f 272 274 275
f 276 277 278
f 276 278 279
f 277 280 281
f 277 281 278
f 280 282 283
f 280 283 281
f 282 284 285
f 282 285 283
f 284 286 287
f 284 287 285
f 286 288 289
f 286 289 287
f 288 290 291
f 288 291 289
f 290 292 293
f 290 293 291
f 292 272 275
f 292 275 293
f 273 294 295
f 273 295 274
f 294 296 297
f 294 297 295
f 296 298 299
f 296 299 297
f 298 300 301
f 298 301 299
f 300 302 303
f 300 303 301
f 302 304 305
f 302 305 303
f 304 306 307
f 304 307 305
f 306 276 279
f 306 279 307
f 308 309 310
f 308 310 311
f 312 313 314
f 312 314 315
f 313 316 317
f 313 317 314
f 316 318 319
f 316 319 317
f 318 320 321
f 318 321 319
f 320 322 323
f 320 323 321
f 322 324 325
f 322 325 323
f 324 326 327
f 324 327 325
f 326 328 329
f 326 329 327
f 328 308 311
f 328 311 329
f 309 330 331
f 309 331 310
f 330 332 333
f 330 333 331
f 332 334 335
f 332 335 333
f 334 336 337
f 334 337 335
f 336 338 339
f 336 339 337
f 338 340 341
f 338 341 339
f 340 342 343
f 340 343 341
f 342 312 315
f 342 315 343
f 344 345 330
f 344 330 309
f 345 346 332
f 345 332 330
f 346 347 334
f 346 334 332
f 347 348 336
f 347 336 334
f 348 349 338
f 348 338 336
f 349 350 340
f 349 340 338
f 350 351 342
f 350 342 340
f 351 352 312
f 351 312 342
f 352 353 313
f 352 313 312
f 353 354 316
f 353 316 313
f 354 355 318
f 354 318 316
f 355 356 320
f 355 320 318
f 356 357 322
f 356 322 320
f 357 358 324
f 357 324 322
f 358 359 326
f 358 326 324
f 359 360 328
f 359 328 326
f 360 361 308
f 360 308 328
f 361 344 309
f 361 309 308
f 311 310 362
f 311 362 363
f 329 311 363
f 329 363 364
f 327 329 364
f 327 364 365
f 325 327 365
f 325 365 366
f 323 325 366
f 323 366 367
f 321 323 367
f 321 367 368
f 319 321 368
f 319 368 369
f 317 319 369
f 317 369 370
f 314 317 370
f 314 370 371
f 315 314 371
f 315 371 372
f 343 315 372
f 343 372 373
f 341 343 373
f 341 373 374
f 339 341 374
f 339 374 375
f 337 339 375
f 337 375 376
f 335 337 376
f 335 376 377
f 333 335 377
f 333 377 378
f 331 333 378
f 331 378 379
f 310 331 379
f 310 379 362
f 363 362 380
f 363 380 381
f 364 363 381
f 364 381 382
f 365 364 382
f 365 382 383
f 366 365 383
f 366 383 384
f 367 366 384
f 367 384 385
f 368 367 385
f 368 385 386
f 369 368 386
f 369 386 387
f 370 369 387
f 370 387 388
f 371 370 388
f 371 388 389
f 372 371 389
f 372 389 390
f 373 372 390
f 373 390 391
f 374 373 391
f 374 391 392
f 375 374 392
f 375 392 393
f 376 375 393
f 376 393 394
f 377 376 394
f 377 394 395
f 378 377 395
f 378 395 396
f 379 378 396
f 379 396 397
f 362 379 397
f 362 397 380
f 381 380 1
f 381 1 3
f 382 381 3
f 382 3 12
f 383 382 12
f 383 12 11
f 384 383 11
f 384 11 10
f 385 384 10
f 385 10 9
f 386 385 9
f 386 9 8
f 387 386 8
f 387 8 7
f 388 387 7
f 388 7 6
f 389 388 6
f 389 6 5
f 390 389 5
f 390 5 4
f 391 390 4
f 391 4 19
f 392 391 19
f 392 19 18
f 393 392 18
f 393 18 17
f 394 393 17
f 394 17 16
f 395 394 16
f 395 16 15
f 396 395 15
f 396 15 14
f 397 396 14
f 397 14 13
f 380 397 13
f 380 13 1
f 398 399 345
f 398 345 344
f 399 400 346
f 399 346 345
f 400 401 347
f 400 347 346
f 401 402 348
f 401 348 347
f 402 403 349
f 402 349 348
f 403 404 350
f 403 350 349
f 404 405 351
f 404 351 350
f 405 406 352
f 405 352 351
f 406 407 353
f 406 353 352
f 407 408 354
f 407 354 353
f 408 409 355
f 408 355 354
f 409 410 356
f 409 356 355
f 410 411 357
f 410 357 356
f 411 412 358
f 411 358 357
f 412 413 359
f 412 359 358
f 413 414 360
f 413 360 359
f 414 415 361
f 414 361 360
f 415 398 344
f 415 344 361
f 274 295 399
f 274 399 398
f 295 297 400
f 295 400 399
f 297 299 401
f 297 401 400
f 299 301 402
f 299 402 401
f 301 303 403
f 301 403 402
f 303 305 404
f 303 404 403
f 305 307 405
f 305 405 404
f 307 279 406
f 307 406 405
f 279 278 407
f 279 407 406
f 278 281 408
f 278 408 407
f 281 283 409
f 281 409 408
f 283 285 410
f 283 410 409
f 285 287 411
f 285 411 410
f 287 289 412
f 287 412 411
f 289 291 413
f 289 413 412
f 291 293 414
f 291 414 413
f 293 275 415
f 293 415 414
f 275 274 398
f 275 398 415
f 254 265 294
f 254 294 273
f 265 266 296
f 265 296 294
f 266 267 298
f 266 298 296
f 267 268 300
f 267 300 298
f 268 269 302
f 268 302 300
f 269 270 304
f 269 304 302
f 270 271 306
f 270 306 304
f 271 257 276
f 271 276 306
f 257 256 277
f 257 277 276
f 256 258 280
f 256 280 277
f 258 259 282
f 258 282 280
f 259 260 284
f 259 284 282
f 260 261 286
f 260 286 284
f 261 262 288
f 261 288 286
f 262 263 290
f 262 290 288
f 263 264 292
f 263 292 290
f 264 255 272
f 264 272 292
f 255 254 273
f 255 273 272
f 206 416 178
f 206 178 202
f 417 418 419
f 417 419 420
f 418 416 421
f 418 421 419
f 422 417 420
f 422 420 423
f 419 421 424
f 419 424 425
f 420 419 425
f 420 425 426
f 423 420 426
f 423 426 253
f 178 416 418
f 178 418 175
f 425 424 196
f 425 196 198
f 426 425 198
f 426 198 189
f 253 426 189
f 253 189 192
f 212 417 422
f 212 422 210
f 175 418 417
f 175 417 212
f 424 421 172
f 424 172 165
f 424 165 168
f 424 168 196
f 172 421 416
f 172 416 206
f 422 423 182
f 422 182 124
f 182 423 253
f 182 253 179
f 422 124 123
f 422 123 210
f 427 428 429
f 427 429 430
f 428 431 432
f 428 432 429
f 431 433 434
f 431 434 432
f 433 435 436
f 433 436 434
f 435 437 438
f 435 438 436
f 437 439 440
f 437 440 438
f 439 441 442
f 439 442 440
f 441 443 444
f 441 444 442
f 443 445 446
f 443 446 444
f 445 447 448
f 445 448 446
f 447 449 450
f 447 450 448
f 449 451 452
f 449 452 450
f 451 453 454
f 451 454 452
f 453 455 456
f 453 456 454
f 455 457 458
f 455 458 456
f 457 427 430
f 457 430 458
f 459 460 461
f 459 461 462
f 460 463 464
f 460 464 461
f 463 465 466
f 463 466 464
f 465 467 468
f 465 468 466
f 467 469 470
f 467 470 468
f 469 471 472
f 469 472 470
f 471 473 474
f 471 474 472
f 473 475 476
f 473 476 474
f 475 477 478
f 475 478 476
f 477 479 480
f 477 480 478
f 479 481 482
f 479 482 480
f 481 483 484
f 481 484 482
f 483 485 486
f 483 486 484
f 485 487 488
f 485 488 486
f 487 489 490
f 487 490 488
f 489 459 462
f 489 462 490
f 430 429 491
f 430 491 492
f 429 432 493
f 429 493 491
f 432 434 494
f 432 494 493
f 434 436 495
f 434 495 494
f 436 438 496
f 436 496 495
f 438 440 497
f 438 497 496
f 440 442 498
f 440 498 497
f 442 444 499
f 442 499 498
f 444 446 500
f 444 500 499
f 446 448 501
f 446 501 500
f 448 450 502
f 448 502 501
f 450 452 503
f 450 503 502
f 452 454 504
f 452 504 503
f 454 456 505
f 454 505 504
f 456 458 506
f 456 506 505
f 458 430 492
f 458 492 506
f 492 491 507
f 492 507 508
f 491 493 509
f 491 509 507
f 493 494 510
f 493 510 509
f 494 495 511
f 494 511 510
f 495 496 512
f 495 512 511
f 496 497 513
f 496 513 512
f 497 498 514
f 497 514 513
f 498 499 515
f 498 515 514
f 499 500 516
f 499 516 515
f 500 501 517
f 500 517 516
f 501 502 518
f 501 518 517
f 502 503 519
f 502 519 518
f 503 504 520
f 503 520 519
f 504 505 521
f 504 521 520
f 505 506 522
f 505 522 521
f 506 492 508
f 506 508 522
f 523 524 525
f 523 525 526
f 524 523 527
f 524 527 528
f 528 527 529
f 528 529 530
f 530 529 531
f 530 531 532
f 532 531 533
f 532 533 534
f 534 533 535
f 534 535 536
f 536 535 537
f 536 537 538
f 538 537 539
f 538 539 540
f 540 539 541
f 540 541 542
f 542 541 543
f 542 543 544
f 544 543 545
f 544 545 546
f 546 545 547
f 546 547 548
f 548 547 549
f 548 549 550
f 550 549 551
f 550 551 552
f 552 551 553
f 552 553 554
f 554 553 526
f 554 526 525
f 460 459 524
f 460 524 528
f 463 460 528
f 463 528 530
f 465 463 530
f 465 530 532
f 467 465 532
f 467 532 534
f 469 467 534
f 469 534 536
f 471 469 536
f 471 536 538
f 473 471 538
f 473 538 540
f 475 473 540
f 475 540 542
f 477 475 542
f 477 542 544
f 479 477 544
f 479 544 546
f 481 479 546
f 481 546 548
f 483 481 548
f 483 548 550
f 485 483 550
f 485 550 552
f 487 485 552
f 487 552 554
f 489 487 554
f 489 554 525
f 459 489 525
f 459 525 524
f 508 507 555
f 508 555 556
f 507 509 557
f 507 557 555
f 509 510 558
f 509 558 557
f 510 511 559
f 510 559 558
f 511 512 560
f 511 560 559
f 512 513 561
f 512 561 560
f 513 514 562
f 513 562 561
f 514 515 563
f 514 563 562
f 515 516 564
f 515 564 563
f 516 517 565
f 516 565 564
f 517 518 566
f 517 566 565
f 518 519 567
f 518 567 566
f 519 520 568
f 519 568 567
f 520 521 569
f 520 569 568
f 521 522 570
f 521 570 569
f 522 508 556
f 522 556 570
f 20 571 572
f 20 572 21
f 571 573 574
f 571 574 572
f 556 555 574
f 556 574 573
f 555 557 575
f 555 575 574
f 557 558 576
f 557 576 575
f 558 559 577
f 558 577 576
f 559 560 578
f 559 578 577
f 560 561 579
f 560 579 578
f 561 562 580
f 561 580 579
f 562 563 581
f 562 581 580
f 563 564 582
f 563 582 581
f 564 565 583
f 564 583 582
f 565 566 584
f 565 584 583
f 566 567 585
f 566 585 584
f 567 568 586
f 567 586 585
f 568 569 587
f 568 587 586
f 569 570 588
f 569 588 587
f 570 556 573
f 570 573 588
f 21 572 589
f 21 589 23
f 572 574 575
f 572 575 589
f 23 589 590
f 23 590 24
f 589 575 576
f 589 576 590
f 24 590 591
f 24 591 25
f 590 576 577
f 590 577 591
f 25 591 592
f 25 592 26
f 591 577 578
f 591 578 592
f 26 592 593
f 26 593 27
f 592 578 579
f 592 579 593
f 27 593 594
f 27 594 28
f 593 579 580
f 593 580 594
f 28 594 595
f 28 595 29
f 594 580 581
f 594 581 595
f 29 595 596
f 29 596 30
f 595 581 582
f 595 582 596
f 30 596 597
f 30 597 31
f 596 582 583
f 596 583 597
f 31 597 598
f 31 598 32
f 597 583 584
f 597 584 598
f 32 598 599
f 32 599 33
f 598 584 585
f 598 585 599
f 33 599 600
f 33 600 34
f 599 585 586
f 599 586 600
f 34 600 601
f 34 601 35
f 600 586 587
f 600 587 601
f 35 601 602
f 35 602 36
f 601 587 588
f 601 588 602
f 573 571 602
f 573 602 588
f 571 20 36
f 571 36 602
f 462 461 428
f 462 428 427
f 461 464 431
f 461 431 428
f 464 466 433
f 464 433 431
f 466 468 435
f 466 435 433
f 468 470 437
f 468 437 435
f 470 472 439
f 470 439 437
f 472 474 441
f 472 441 439
f 474 476 443
f 474 443 441
f 476 478 445
f 476 445 443
f 478 480 447
f 478 447 445
f 480 482 449
f 480 449 447
f 482 484 451
f 482 451 449
f 484 486 453
f 484 453 451
f 486 488 455
f 486 455 453
f 488 490 457
f 488 457 455
f 490 462 427
f 490 427 457