# https://github.com/mikedh/trimesh
v -0.00189518 0.09049385 0.05485542
v -0.00194120 0.09269095 0.05308226
v -0.00491298 0.09159458 0.05346608
v -0.00437675 0.08966567 0.05432658
v -0.00598685 0.08947532 0.05130247
v -0.00190866 0.09113689 0.05085664
v -0.00184525 0.08810912 0.04932691
v 0.00061889 0.08977029 0.05432656
v 0.00107388 0.09171995 0.05346607
v 0.00223553 0.08964751 0.05130245
v -0.01071124 -0.03447536 0.00031150
v -0.01005194 -0.04213580 0.00017791
v -0.01590390 -0.04129003 0.00004117
v -0.01608794 -0.03250250 0.00009778
v -0.01847241 0.05814491 0.08946473
v -0.01972346 0.05804766 0.08749544
v -0.02100147 0.05728139 0.09045626
v -0.02041030 0.05793083 0.09161771
v -0.01675800 0.05958052 0.08715729
v -0.01755942 0.05967766 0.08448745
v -0.02243007 0.04908874 0.00031156
v -0.01783795 0.05105926 0.00009781
v -0.01767255 0.04316127 0.00004119
v -0.02281135 0.04209755 0.00016567
v -0.01736223 0.02834388 0.00001978
v -0.02208585 0.02908183 0.00015281
v -0.01723155 0.02210377 0.00000013
v -0.01316736 0.04928273 0.00031153
v -0.01237759 0.04256379 0.00016564
v -0.01264858 0.02944915 0.00015278
v -0.01689510 0.05958030 0.09017404
v -0.01481580 0.06167062 0.08760619
v -0.01934038 0.05832846 0.09208670
v -0.01555864 -0.05777625 0.00001976
v -0.02090873 -0.05689475 0.00016803
v -0.02199884 -0.04279052 0.00017795
v -0.02137732 -0.03469873 0.00031154
v -0.01462162 -0.06470259 0.00000010
v -0.01009082 -0.05645054 0.00016799
v 0.01214490 -0.03399668 0.00031143
v 0.01743429 -0.03180045 0.00009767
v 0.01761832 -0.04058798 0.00004106
v 0.01180690 -0.04167802 0.00017784
v 0.01602210 0.05886732 0.08946461
v 0.01796727 0.05873455 0.09161759
v 0.01858511 0.05811043 0.09045614
v 0.01727612 0.05882253 0.08749532
v 0.01424908 0.06022988 0.08715719
v 0.01504571 0.06036049 0.08448734
v 0.02035487 0.04998478 0.00031142
v 0.02102852 0.04301568 0.00016553
v 0.01584968 0.04386331 0.00004109
v 0.01568427 0.05176131 0.00009770
v 0.02084858 0.02998099 0.00015267
v 0.01616000 0.02904594 0.00001968
v 0.01629068 0.02280581 0.00000003
v 0.01109216 0.04979079 0.00031145
v 0.01058438 0.04304467 0.00016556
v 0.01140420 0.02995288 0.00015270
v 0.01222108 0.06223683 0.08760609
v 0.01438609 0.06023541 0.09017394
v 0.01688165 0.05908704 0.09208658
v 0.02377073 -0.04183198 0.00017780
v 0.02327208 -0.05596949 0.00016789
v 0.01796359 -0.05707421 0.00001965
v 0.02281098 -0.03377331 0.00031139
v 0.01731738 -0.06403370 0.00000000
v 0.01244506 -0.05597858 0.00016792
v -0.02225906 -0.04972496 0.00707240
v -0.02319670 -0.05807889 0.00574513
v -0.02500243 -0.05323496 0.02114317
v -0.02393904 -0.04583991 0.02098116
v -0.02375018 -0.06403219 0.02188460
v -0.02543981 -0.05896787 0.02130517
v -0.01490499 -0.06687986 0.00501220
v -0.01398546 -0.07064499 0.02270950
v -0.02087401 -0.06907166 0.02246403
v -0.01894076 -0.06424733 0.00501311
v -0.02320425 -0.05757641 0.00373614
v -0.01972278 -0.06321685 0.00266549
v -0.02351446 -0.04905962 0.00686433
v -0.02050481 -0.06218637 0.00031786
v -0.02321180 -0.05707394 0.00172714
v -0.02239773 -0.05638630 0.00031629
v -0.02332687 -0.04201616 0.00504697
v -0.02377071 -0.04275272 0.00168257
v -0.02149315 -0.03422967 0.00107002
v -0.02344052 -0.04290198 0.00031471
v -0.02135812 -0.03499564 0.00259236
v -0.01447276 -0.06578514 0.00250615
v -0.01578906 -0.04677278 0.00788922
v -0.01580140 -0.04618329 0.00773038
v -0.01595154 -0.03901468 0.00562271
v -0.01609735 -0.03205279 0.00285621
v -0.01610471 -0.03170149 0.00129800
v -0.01623436 -0.04357794 0.02127615
v -0.00953140 -0.04945841 0.00707236
v -0.00861850 -0.04562569 0.02082059
v -0.00690375 -0.05852281 0.02136128
v -0.00791457 -0.05775884 0.00574508
v -0.00955567 -0.06875942 0.02229979
v -0.01023017 -0.06406490 0.00501309
v -0.00993336 -0.06301183 0.00266546
v -0.00784112 -0.05725467 0.00373608
v -0.00797468 -0.04873417 0.00686428
v -0.00963655 -0.06195877 0.00031783
v -0.00878374 -0.05610119 0.00031624
v -0.00776768 -0.05675050 0.00172709
v -0.00798275 -0.04242208 0.00168252
v -0.00845702 -0.04170475 0.00504692
v -0.00830641 -0.04258503 0.00031466
v -0.01061515 -0.03400185 0.00106999
v -0.01071798 -0.03477280 0.00259232
v -0.00178978 0.08546031 0.04762456
v -0.00175980 0.08402833 0.04737471
v -0.00638418 0.08388076 0.04884874
v -0.00501656 0.08573730 0.04845217
v -0.00834354 0.08384511 0.05034061
v -0.00681393 0.08742196 0.04944380
v -0.00795578 0.08453343 0.05467213
v -0.00571322 0.08583897 0.05754431
v -0.00416288 0.08687841 0.05859595
v -0.00184292 0.08799907 0.05934760
v -0.00711421 0.07570617 0.05147993
v -0.00160947 0.07685059 0.04899479
v -0.00973265 0.07545052 0.05356966
v -0.01126256 0.07628558 0.06011768
v -0.00893074 0.07860797 0.06427659
v -0.00409919 0.08197334 0.06572481
v -0.00175325 0.08371848 0.06628284
v -0.00153379 0.07323703 0.05036523
v -0.00139764 0.06673629 0.05238405
v -0.01131079 0.06533551 0.05424287
v -0.00887073 0.07192938 0.05213523
v -0.01668519 0.06468853 0.05757210
v -0.01257833 0.07143604 0.05490861
v -0.01970347 0.06572677 0.06793088
v -0.01649324 0.07112802 0.06456889
v -0.01875953 0.06898794 0.07719603
v -0.01618979 0.07463479 0.07302339
v -0.01118220 0.07459130 0.08325478
v -0.00943574 0.07988362 0.07473900
v -0.00163135 0.07790085 0.08492065
v -0.00175302 0.08370895 0.07483684
v -0.00572719 0.08179351 0.07478792
v -0.00759591 0.07622117 0.08435829
v -0.00125598 0.05997270 0.05390436
v -0.01269948 0.05907928 0.05624564
v -0.01976753 0.05906164 0.05991108
v -0.02191098 0.05978062 0.07119755
v -0.02028134 0.06267731 0.08077998
v -0.01248744 0.06701013 0.08853745
v -0.00107312 0.05124111 0.05522100
v -0.01329659 0.05014783 0.05734700
v -0.02173829 0.04955196 0.06303556
v -0.02098192 0.05430201 0.06147332
v -0.01751745 0.04984989 0.05907606
v -0.02233786 0.05471779 0.07314310
v -0.02276475 0.04965497 0.07508866
v -0.02117160 0.05679257 0.08390830
v -0.02049193 0.05963083 0.08238946
v -0.02095402 0.05063603 0.08515535
v -0.00117553 0.05613775 0.09544357
v -0.00132047 0.06305813 0.09313145
v -0.00739584 0.06209133 0.09231003
v -0.00693398 0.05570678 0.09424393
v -0.01155764 0.03856781 0.05290713
v -0.01191826 0.04443676 0.05545538
v -0.00095960 0.04582051 0.05324337
v -0.00076091 0.03633212 0.04763437
v -0.00958082 0.03659464 0.05131275
v -0.02407911 0.04009357 0.06255839
v -0.02026771 0.04284263 0.06285724
v -0.01752427 0.04360972 0.05833780
v -0.01773789 0.04098015 0.05680138
v -0.02598946 0.03961619 0.07501230
v -0.02252927 0.04240153 0.07507953
v -0.02578086 0.03901274 0.06447672
v -0.02323636 0.03953123 0.09088078
v -0.02085444 0.04303635 0.08691533
v -0.01444952 0.03819459 0.10007515
v -0.01294908 0.04531401 0.09467542
v -0.00097855 0.04673220 0.09706049
v -0.00709662 0.04602032 0.09586796
v -0.00775175 0.03792048 0.10149599
v -0.00078193 0.03734437 0.10291682
v -0.00054018 0.02579211 0.04409145
v -0.00655466 0.02574839 0.04534027
v -0.03026062 0.02487365 0.07454946
v -0.02817810 0.03477874 0.07478088
v -0.02768136 0.03444994 0.06485407
v -0.02946531 0.02432159 0.06400220
v -0.02492916 0.03452821 0.09272500
v -0.02652599 0.02494205 0.09413616
v -0.01604490 0.03370724 0.10194263
v -0.01755442 0.02511981 0.10381014
v -0.00068844 0.03288099 0.10496971
v -0.00849986 0.03330941 0.10345618
v -0.00917460 0.02519501 0.10541637
v -0.00052917 0.02527578 0.10648807
v -0.00028085 0.01340922 0.04391927
v -0.00832641 0.01300920 0.04563171
v -0.02681501 0.01141092 0.06134026
v -0.02839140 0.01062651 0.07396535
v -0.02566587 0.01054193 0.09186997
v -0.01634996 0.01158687 0.10149713
v -0.00026189 0.01251327 0.10418470
v -0.00844000 0.01210769 0.10284091
v -0.01049948 0.00471730 0.04581769
v -0.00011436 0.00545948 0.04376289
v 0.00000636 -0.00030482 0.04298800
v -0.01065998 -0.00052821 0.04523066
v -0.02323126 -0.00079149 0.05566788
v -0.02464471 0.00436005 0.05678402
v -0.01717626 0.00419143 0.05111006
v -0.01694562 -0.00065985 0.05008537
v -0.02639078 -0.00085766 0.07335005
v -0.02736821 0.00379197 0.07365770
v -0.02602145 0.00479091 0.06065290
v -0.02481104 -0.00082457 0.05946506
v -0.02232360 -0.00077248 0.08696755
v -0.02397411 0.00390018 0.08941876
v -0.01289570 -0.00057503 0.09704186
v -0.01461127 0.00495388 0.09926950
v 0.00000654 -0.00030482 0.10045225
v -0.00011828 0.00565588 0.10231848
v -0.00749713 0.00528031 0.10079398
v -0.00657739 -0.00044271 0.09900039
v -0.00512988 -0.03989878 0.03883144
v -0.00771092 -0.03826381 0.04140039
v -0.00887198 -0.02993777 0.04232376
v 0.00062997 -0.03008240 0.03954249
v 0.00084712 -0.04045134 0.03858586
v -0.02482006 -0.02939211 0.05261269
v -0.01746495 -0.02982829 0.04694404
v -0.01773733 -0.03474406 0.04605779
v -0.02690625 -0.03466503 0.05297336
v -0.02777201 -0.02534159 0.07279303
v -0.02625471 -0.02934114 0.05544620
v -0.02773281 -0.03664383 0.05550430
v -0.02947134 -0.03260682 0.07277736
v -0.02551546 -0.03111423 0.09046164
v -0.02369829 -0.02429123 0.08871257
v -0.01480375 -0.02353736 0.10011516
v -0.01679479 -0.03078559 0.10177609
v 0.00065294 -0.03116902 0.10567764
v 0.00048640 -0.02321718 0.10396143
v -0.00729015 -0.02344366 0.10266821
v -0.00820266 -0.03103111 0.10458275
v -0.00262058 -0.05893974 0.04158351
v -0.00359967 -0.04975285 0.04020747
v 0.00103977 -0.04964998 0.03988736
v 0.00123242 -0.05884862 0.04118886
v -0.03087441 -0.04337458 0.07301758
v -0.02985744 -0.04520471 0.05796119
v -0.03120395 -0.05936667 0.06041808
v -0.03218520 -0.05854809 0.07325780
v -0.02868937 -0.05465057 0.09160403
v -0.02698384 -0.04164704 0.09103283
v -0.02083440 -0.05093611 0.10233619
v -0.01940607 -0.04087324 0.10240977
v 0.00098889 -0.04721046 0.10624701
v 0.00083043 -0.03964394 0.10596232
v -0.00912504 -0.04024813 0.10496745
v -0.01005556 -0.04907606 0.10501308
v -0.00320749 -0.07519011 0.04681991
v -0.00259347 -0.06714341 0.04402600
v 0.00140588 -0.06713116 0.04392855
v 0.00157935 -0.07541369 0.04674556
v -0.02490094 -0.07820986 0.07332038
v -0.02941651 -0.06839727 0.07328909
v -0.02843524 -0.06864961 0.06048714
v -0.02450433 -0.07790821 0.06055619
v -0.02335948 -0.07391314 0.08685438
v -0.02692416 -0.06430070 0.08922921
v -0.01786804 -0.06738683 0.09630207
v -0.02006873 -0.05879660 0.09931913
v 0.00130288 -0.06220390 0.10055284
v 0.00114895 -0.05485367 0.10339993
v -0.00924278 -0.05658842 0.10204301
v -0.00843000 -0.06410076 0.09907294
v 0.00163096 -0.07787712 0.05101145
v -0.00410342 -0.07726822 0.04990976
v -0.01825274 -0.08016503 0.07439095
v -0.01701577 -0.08002898 0.06341595
v -0.00931023 -0.08130668 0.06656557
v -0.01007688 -0.08117929 0.07519683
v -0.00914860 -0.07903040 0.08504567
v -0.01672520 -0.07648164 0.08588475
v 0.00157707 -0.07529744 0.09240353
v 0.00143332 -0.06843302 0.09713894
v -0.00647451 -0.07031802 0.09549250
v -0.00451903 -0.07653527 0.09073910
v 0.00018690 -0.00892563 0.04193371
v -0.01038678 -0.00914707 0.04423890
v -0.01714234 -0.00928855 0.04872459
v -0.01283816 -0.00919841 0.09774805
v -0.00645834 -0.00906480 0.09995330
v -0.02209076 -0.00939218 0.08696552
v -0.02623147 -0.00947890 0.07307938
v -0.02304629 -0.00941218 0.05441326
v -0.02463890 -0.00944554 0.05824569
v -0.01251418 0.04742234 0.05656530
v -0.00102190 0.04879523 0.05456842
v -0.02042629 0.04599211 0.06350434
v -0.01760954 0.04668336 0.05896891
v -0.02184661 0.04590270 0.07536080
v -0.01996050 0.04651609 0.08547222
v -0.01248042 0.04931295 0.09300980
v -0.00691118 0.05035407 0.09440269
v -0.00107633 0.05140075 0.09579559
v -0.00503664 0.08213414 0.07325226
v -0.00805559 0.08061051 0.07327669
v -0.01356537 0.07617804 0.07178110
v -0.01341439 0.07293267 0.06266277
v -0.01055814 0.07353502 0.05447191
v -0.00783209 0.07411637 0.05212576
v -0.00157163 0.07504380 0.04970242
v -0.01242681 0.05528139 0.09243042
v -0.01702581 0.05258118 0.08990225
v -0.00184506 0.08809999 0.04931798
v -0.00175207 0.08366333 0.07322783
v -0.01948642 0.05394621 0.09230803
v -0.02310126 0.05359127 0.08753805
v -0.01241862 0.05930748 0.09221954
v -0.01458803 0.05894405 0.09420802
v -0.01555671 0.05673392 0.09475939
v -0.02260990 0.05551077 0.08627340
v -0.01247857 0.06437803 0.08988320
v -0.01465262 0.06153135 0.09308108
v -0.02395904 0.05827529 0.09438982
v -0.01901924 0.05852996 0.09617148
v -0.01899856 0.05976408 0.09533918
v -0.02379426 0.05895820 0.09401311
v -0.02096303 0.05531871 0.09335859
v -0.02421809 0.05650015 0.08947981
v -0.02189982 0.05767918 0.08540744
v -0.02457913 0.05536527 0.09019478
v -0.00785771 0.06847587 0.09037612
v -0.00146541 0.06997854 0.09081933
v -0.00180458 0.08616676 0.04841204
v -0.02318626 0.03558432 0.00707242
v -0.02520523 0.03372383 0.02833498
v -0.02442155 0.03561669 0.02915653
v -0.02399523 0.02807674 0.00574516
v -0.02175282 0.02249956 0.00501315
v -0.02304590 0.01722873 0.02547519
v -0.02585399 0.02538878 0.02650451
v -0.01911236 0.02093435 0.00501268
v -0.01960839 0.01524517 0.02532270
v -0.02396101 0.02852921 0.00373616
v -0.02204931 0.02343424 0.00266552
v -0.02427692 0.03618310 0.00686436
v -0.02234581 0.02436891 0.00031789
v -0.02392679 0.02898168 0.00172716
v -0.02330245 0.02959746 0.00031631
v -0.02411848 0.04251335 0.00504700
v -0.02450347 0.04185166 0.00168259
v -0.02421662 0.04171729 0.00031473
v -0.02253096 0.04951039 0.00107004
v -0.02241320 0.04882186 0.00259238
v -0.01862608 0.02149476 0.00258584
v -0.01721111 0.02112843 0.00250618
v -0.01719068 0.02015310 0.00501223
v -0.01756932 0.03823351 0.00788925
v -0.01758042 0.03876333 0.00773040
v -0.01771536 0.04520627 0.00562274
v -0.01784641 0.05146344 0.00285624
v -0.01785302 0.05177918 0.00129803
v -0.01809959 0.03775761 0.03010728
v -0.01184640 0.03582181 0.00707239
v -0.01163130 0.03503589 0.02873787
v -0.01022288 0.02875100 0.02622641
v -0.01072382 0.02835468 0.00574511
v -0.01198365 0.01740266 0.02452332
v -0.01273077 0.02268851 0.00501311
v -0.01719689 0.01434699 0.02517021
v -0.01247368 0.02363477 0.00266549
v -0.01069378 0.02880706 0.00373612
v -0.01078176 0.03646573 0.00686431
v -0.01221659 0.02458104 0.00031786
v -0.01147970 0.02984506 0.00031627
v -0.01066373 0.02925944 0.00172712
v -0.01079278 0.04213880 0.00168254
v -0.01120510 0.04278379 0.00504695
v -0.01107376 0.04199254 0.00031469
v -0.01308421 0.04970823 0.00107001
v -0.01317302 0.04901538 0.00259235
v -0.00978198 -0.07800638 0.05381428
v -0.00494526 -0.07916911 0.05695481
v -0.01009461 -0.01867152 0.04324714
v -0.01732010 -0.01882282 0.04767611
v -0.01737581 0.00755840 0.05213475
v -0.01033503 0.00977418 0.04640472
v -0.02284555 -0.01878595 0.05315864
v -0.02902642 0.02426583 0.05956251
v -0.02740320 0.03419479 0.06059847
v -0.02670894 0.03421986 0.05303480
v -0.02786992 0.02439901 0.05140709
v -0.02510960 0.01272251 0.04740355
v -0.02625960 0.01191628 0.05681066
v -0.02540984 0.03744465 0.05286532
v -0.02566341 0.03855785 0.06040522
v -0.01776784 0.03893754 0.05452202
v -0.01809059 0.03872725 0.05112849
v -0.01146054 0.03636683 0.04803549
v -0.01108373 0.03652909 0.05044423
v -0.00883646 0.02557901 0.04503048
v -0.00964094 0.02527911 0.04415088
v -0.01090155 0.01285296 0.04598360
v -0.01126448 0.01345167 0.04403353
v -0.01739522 0.00892685 0.05058327
v -0.01721516 0.00911624 0.04532818
v -0.01976350 0.01005659 0.04575278
v -0.02850640 -0.05939625 0.04221847
v -0.03058219 -0.05938076 0.05519217
v -0.02929585 -0.04583390 0.05279633
v -0.02773135 -0.04837954 0.04091991
v -0.02296686 -0.07419068 0.04377630
v -0.02414600 -0.07724998 0.05533035
v -0.02794520 -0.06832754 0.05526126
v -0.02631773 -0.06680564 0.04299738
v -0.01218669 -0.07672336 0.04995069
v -0.01355364 -0.07528578 0.04381056
v -0.02622884 -0.04054460 0.03993876
v -0.02723138 -0.03788814 0.05040048
v -0.01736964 -0.03816989 0.04285852
v -0.01685034 -0.03915867 0.03926092
v -0.00779982 -0.04060244 0.03813436
v -0.00734344 -0.04039887 0.03898137
v -0.00611428 -0.04958215 0.04057311
v -0.00667731 -0.04969095 0.03965786
v -0.00525654 -0.05877321 0.04260436
v -0.00586629 -0.06676179 0.04484643
v -0.00617526 -0.06623305 0.04279014
v -0.00555479 -0.05877946 0.04124865
v -0.00751516 -0.07477213 0.04708851
v -0.00831576 -0.07371846 0.04405678
v -0.02625128 -0.05908104 0.02651862
v -0.02572883 -0.05183437 0.02627431
v -0.02138701 -0.07033852 0.02755935
v -0.02441241 -0.06472221 0.02703899
v -0.01388614 -0.07178301 0.02786140
v -0.02454886 -0.04442965 0.02602999
v -0.01640503 -0.04235351 0.02640674
v -0.00655311 -0.05861219 0.02663037
v -0.00838796 -0.04416473 0.02590747
v -0.00935966 -0.06977702 0.02743338
v 0.00167675 -0.08006266 0.05863901
v 0.00172203 -0.08222317 0.06825112
v 0.00171025 -0.08165935 0.07536842
v 0.00167293 -0.07987604 0.08332443
v -0.00417493 -0.07908435 0.08402126
v 0.00166673 -0.07977353 0.08999440
v 0.00168307 -0.08055474 0.08298946
v -0.00208161 -0.07965736 0.08902765
v -0.00154616 -0.08024854 0.08372139
v 0.00170003 -0.08116937 0.08816311
v 0.00170614 -0.08146190 0.08284498
v -0.00062116 -0.08206301 0.08631905
v 0.00172357 -0.08229360 0.08668724
v -0.00034613 -0.08191080 0.08343716
v 0.00172143 -0.08219230 0.08272971
v 0.00089972 -0.08305263 0.08338820
v 0.00079536 -0.08320126 0.08445769
v 0.00174533 -0.08333344 0.08309881
v -0.02606256 0.00972227 0.05870516
v -0.02026328 0.00968696 0.05317747
v -0.02170708 0.00806223 0.05515287
v -0.02044892 -0.07861096 0.05868691
v -0.02584554 -0.05902446 0.02391190
v -0.02536590 -0.05252164 0.02370874
v -0.02114235 -0.06973794 0.02500233
v -0.02408721 -0.06439363 0.02445712
v -0.01393558 -0.07122673 0.02528256
v -0.01631970 -0.04296573 0.02384144
v -0.02424395 -0.04513478 0.02350558
v -0.00672867 -0.05855603 0.02393681
v -0.00850483 -0.04481887 0.02341797
v -0.00945710 -0.06929518 0.02492052
v -0.01279998 -0.01689717 0.09845423
v -0.00635866 -0.01676226 0.10090620
v 0.00034827 -0.01662179 0.10224524
v 0.00018709 -0.00892562 0.10134874
v 0.00038640 -0.01845201 0.04087943
v -0.02608514 -0.01748056 0.07280870
v -0.02445424 -0.01866424 0.05717761
v -0.02188047 -0.01693473 0.08696349
v -0.01235994 -0.07296770 0.09221794
v 0.00174758 -0.08344076 0.08469052
v 0.02432110 -0.04874944 0.00707225
v 0.02583703 -0.04479747 0.02098100
v 0.02720910 -0.05214151 0.02114300
v 0.02560765 -0.05705679 0.00574497
v 0.02788612 -0.05785108 0.02130500
v 0.02641000 -0.06298170 0.02188444
v 0.01769169 -0.06619719 0.00501209
v 0.02161370 -0.06339801 0.00501298
v 0.02374736 -0.06813717 0.02246389
v 0.01693071 -0.06999752 0.02270940
v 0.02235188 -0.06233570 0.00266535
v 0.02559415 -0.05655444 0.00373598
v 0.02554754 -0.04803212 0.00686417
v 0.02309006 -0.06127338 0.00031772
v 0.02473849 -0.05539914 0.00031613
v 0.02558065 -0.05605209 0.00172698
v 0.02553948 -0.04172003 0.00168241
v 0.02506521 -0.04100270 0.00504682
v 0.02521581 -0.04188299 0.00031455
v 0.02290708 -0.03329981 0.00106988
v 0.02280424 -0.03407076 0.00259221
v 0.01721398 -0.06512153 0.00250605
v 0.01773317 -0.04607074 0.00788911
v 0.01772082 -0.04548124 0.00773027
v 0.01757069 -0.03831263 0.00562260
v 0.01742488 -0.03135074 0.00285611
v 0.01741751 -0.03099945 0.00129789
v 0.01804442 -0.04286005 0.02127604
v 0.01159343 -0.04901600 0.00707229
v 0.01032553 -0.05737684 0.00574502
v 0.00934768 -0.05818246 0.02136123
v 0.01052096 -0.04522486 0.02082053
v 0.01290311 -0.06358043 0.00501301
v 0.01242586 -0.06829907 0.02229972
v 0.01256246 -0.06254071 0.00266538
v 0.01023102 -0.05687619 0.00373603
v 0.01000776 -0.04835757 0.00686422
v 0.01222181 -0.06150099 0.00031776
v 0.01013652 -0.05637553 0.00172703
v 0.01112450 -0.05568426 0.00031618
v 0.01019536 -0.04131412 0.00504686
v 0.00975151 -0.04205067 0.00168246
v 0.01202907 -0.03352763 0.00106991
v 0.01008171 -0.04219993 0.00031460
v 0.01216410 -0.03429359 0.00259225
v 0.00142258 0.08587214 0.04845215
v 0.00286672 0.08407449 0.04884871
v 0.00482586 0.08412091 0.05034057
v 0.00314784 0.08763058 0.04944377
v 0.00440966 0.08479239 0.05467208
v 0.00211443 0.08600289 0.05754428
v 0.00052193 0.08697653 0.05859594
v 0.00393838 0.07593763 0.05147989
v 0.00656523 0.07579184 0.05356960
v 0.00805888 0.07669021 0.06011762
v 0.00563191 0.07891295 0.06427655
v 0.00066370 0.08207307 0.06572479
v 0.00585149 0.07223770 0.05213518
v 0.00856548 0.06575176 0.05424281
v 0.00957650 0.07190001 0.05490853
v 0.01396228 0.06533037 0.05757200
v 0.01350094 0.07175618 0.06456879
v 0.01693451 0.06649407 0.06793076
v 0.01305099 0.07524717 0.07302329
v 0.01585492 0.06971285 0.07719592
v 0.00608312 0.08020863 0.07473895
v 0.00804968 0.07499407 0.08325472
v 0.00439830 0.07647237 0.08435825
v 0.00229786 0.08196157 0.07478789
v 0.01021490 0.05955917 0.05624557
v 0.01727752 0.05983745 0.05991097
v 0.01938905 0.06064555 0.07119741
v 0.01763963 0.06347148 0.08077986
v 0.00967122 0.06747418 0.08853738
v 0.01118543 0.05066055 0.05734691
v 0.01964471 0.05041863 0.06303543
v 0.01541506 0.05053958 0.05907596
v 0.01869012 0.05513285 0.06147320
v 0.02002754 0.05560504 0.07314296
v 0.02066604 0.05056453 0.07508852
v 0.01797759 0.06043648 0.08238933
v 0.01877551 0.05762918 0.08390818
v 0.01881589 0.05146891 0.08515522
v 0.00459589 0.05594825 0.09424390
v 0.00479004 0.06234653 0.09230999
v 0.01004739 0.04489677 0.05545531
v 0.00993279 0.03901787 0.05290705
v 0.00804031 0.03696367 0.05131270
v 0.02237947 0.04106653 0.06255824
v 0.01600665 0.04168685 0.05680127
v 0.01568314 0.04430517 0.05833769
v 0.01845631 0.04365360 0.06285711
v 0.02412499 0.04005790 0.06447656
v 0.02430821 0.04066956 0.07501213
v 0.02073444 0.04330758 0.07507939
v 0.01903458 0.04387172 0.08691520
v 0.02156118 0.04046941 0.09088063
v 0.01104084 0.04581642 0.09467535
v 0.01283807 0.03876606 0.10007506
v 0.00615766 0.03821177 0.10149594
v 0.00516395 0.04627709 0.09586791
v 0.00547086 0.02600024 0.04534023
v 0.02919284 0.02611877 0.07454927
v 0.02842128 0.02553389 0.06400201
v 0.02621486 0.03557867 0.06485389
v 0.02669746 0.03592798 0.07478070
v 0.02346198 0.03554166 0.09272484
v 0.02545875 0.02603075 0.09413599
v 0.01461994 0.03434944 0.10194254
v 0.01648768 0.02583273 0.10381003
v 0.00811206 0.02555705 0.10541631
v 0.00709818 0.03363608 0.10345613
v 0.00777441 0.01334640 0.04563166
v 0.02792175 0.01180586 0.07396516
v 0.02631382 0.01252358 0.06134008
v 0.02520226 0.01160725 0.09186981
v 0.01585084 0.01226124 0.10149703
v 0.00792602 0.01245043 0.10284086
v 0.01029274 0.00515275 0.04581762
v 0.01067271 -0.00008145 0.04523059
v 0.02324405 0.00018183 0.05566773
v 0.01695838 0.00005019 0.05008526
v 0.01698571 0.00490687 0.05110995
v 0.02444059 0.00538803 0.05678386
v 0.02640369 0.00024800 0.07334988
v 0.02482385 0.00021492 0.05946490
v 0.02579811 0.00587615 0.06065274
v 0.02718560 0.00493448 0.07365752
v 0.02233659 0.00016283 0.08696741
v 0.02379005 0.00490049 0.08941861
v 0.01290877 -0.00003461 0.09704178
v 0.01439137 0.00556127 0.09926940
v 0.00659047 -0.00016693 0.09900035
v 0.00726981 0.00558957 0.10079393
v 0.00679575 -0.03964902 0.03883140
v 0.01011755 -0.02954008 0.04232370
v 0.00930609 -0.03790742 0.04140033
v 0.02602886 -0.02832720 0.05261253
v 0.02833399 -0.03350815 0.05297318
v 0.01917638 -0.03397099 0.04605767
v 0.01869843 -0.02907093 0.04694392
v 0.02880877 -0.02415664 0.07279285
v 0.03081079 -0.03134435 0.07277716
v 0.02924269 -0.03545061 0.05550412
v 0.02746014 -0.02821621 0.05544603
v 0.02679601 -0.03001868 0.09046147
v 0.02469476 -0.02327775 0.08871241
v 0.01577653 -0.02289693 0.10011506
v 0.01806929 -0.03005544 0.10177598
v 0.00949500 -0.03066047 0.10458270
v 0.00826561 -0.02311787 0.10266815
v 0.00508585 -0.05877835 0.04158348
v 0.00567945 -0.04955852 0.04020744
v 0.03266344 -0.04204392 0.07301737
v 0.03460836 -0.05714925 0.07325758
v 0.03366215 -0.05800820 0.06041787
v 0.03172390 -0.04391503 0.05796099
v 0.03095254 -0.05340150 0.09160384
v 0.02870408 -0.04048078 0.09103266
v 0.02294901 -0.05001917 0.10233605
v 0.02110063 -0.04002492 0.10240965
v 0.01210176 -0.04861203 0.10501301
v 0.01080245 -0.03983079 0.10496738
v 0.00635264 -0.07498990 0.04681988
v 0.00540225 -0.06697596 0.04402598
v 0.02815367 -0.07709875 0.07332021
v 0.02774469 -0.07681397 0.06055602
v 0.03128452 -0.06739892 0.06048695
v 0.03225445 -0.06710571 0.07328889
v 0.02643376 -0.07287034 0.08685422
v 0.02959289 -0.06311708 0.08922903
v 0.02067396 -0.06657965 0.09630195
v 0.02251309 -0.05790482 0.09931899
v 0.01110662 -0.06369161 0.09907287
v 0.01160419 -0.05615182 0.10204294
v 0.00733481 -0.07702868 0.04990973
v 0.02159316 -0.07933055 0.07439081
v 0.01346694 -0.08068622 0.07519676
v 0.01270624 -0.08084560 0.06656550
v 0.02035151 -0.07924640 0.06341583
v 0.01244957 -0.07857807 0.08504560
v 0.01991282 -0.07571434 0.08588463
v 0.00771963 -0.07627896 0.09073906
v 0.00941313 -0.06998529 0.09549244
v 0.01076059 -0.00870419 0.04423883
v 0.01751618 -0.00856270 0.04872448
v 0.01321232 -0.00865284 0.09774796
v 0.00683251 -0.00878645 0.09995325
v 0.02246484 -0.00845906 0.08696538
v 0.02660546 -0.00837235 0.07307921
v 0.02501280 -0.00840570 0.05824553
v 0.02342016 -0.00843905 0.05441311
v 0.01051780 0.04790468 0.05656523
v 0.01848290 0.04680698 0.06350421
v 0.01563965 0.04737969 0.05896881
v 0.01990580 0.04677711 0.07536066
v 0.01799572 0.04731099 0.08547210
v 0.01040516 0.04979223 0.09300973
v 0.00479722 0.05059927 0.09440266
v 0.00467374 0.08087710 0.07327665
v 0.00159364 0.08227299 0.07325224
v 0.01036426 0.07667918 0.07178102
v 0.01034923 0.07343035 0.06266269
v 0.00747021 0.07391258 0.05447185
v 0.00472219 0.07437928 0.05212572
v 0.01010171 0.05575319 0.09243035
v 0.01480970 0.05324790 0.08990214
v 0.02083753 0.05451146 0.08753791
v 0.01721103 0.05471476 0.09230791
v 0.01316807 0.05733550 0.09475929
v 0.01210770 0.05950313 0.09420793
v 0.00992496 0.05977542 0.09221947
v 0.02026622 0.05640870 0.08627326
v 0.01206390 0.06209086 0.09308099
v 0.00977255 0.06484403 0.08988312
v 0.02149849 0.05922729 0.09438968
v 0.02130526 0.05990271 0.09401297
v 0.01648004 0.06050710 0.09533906
v 0.01655237 0.05927493 0.09617137
v 0.01862889 0.05614786 0.09335846
v 0.01946598 0.05854549 0.08540731
v 0.02183161 0.05746456 0.08947966
v 0.02223985 0.05634577 0.09019463
v 0.00498418 0.06874482 0.09037607
v 0.02167583 0.03652386 0.00707228
v 0.02290882 0.03660792 0.02915638
v 0.02377106 0.03474952 0.02833482
v 0.02279840 0.02905673 0.00574500
v 0.02476821 0.02644895 0.02650435
v 0.02230420 0.01817849 0.02547504
v 0.02079145 0.02339056 0.00501301
v 0.01821884 0.02171617 0.00501256
v 0.01895276 0.01605275 0.02532257
v 0.02104854 0.02433683 0.00266538
v 0.02274526 0.02950737 0.00373601
v 0.02274046 0.03716777 0.00686420
v 0.02130563 0.02528309 0.00031775
v 0.02204253 0.03054710 0.00031616
v 0.02269211 0.02995800 0.00172701
v 0.02272945 0.04284083 0.00168244
v 0.02231712 0.04348584 0.00504684
v 0.02244847 0.04269458 0.00031458
v 0.02043802 0.05041027 0.00106991
v 0.02034921 0.04971742 0.00259224
v 0.01633155 0.02085515 0.00501212
v 0.01631112 0.02183048 0.00250607
v 0.01770951 0.02225574 0.00258573
v 0.01595291 0.03893556 0.00788914
v 0.01594181 0.03946538 0.00773029
v 0.01580687 0.04590832 0.00562263
v 0.01567582 0.05216549 0.00285613
v 0.01566920 0.05248122 0.00129792
v 0.01650278 0.03848228 0.03010716
v 0.01033597 0.03628637 0.00707231
v 0.00952700 0.02877879 0.00574505
v 0.00901003 0.02915380 0.02622635
v 0.01015410 0.03549212 0.02873780
v 0.01176941 0.02320161 0.00501303
v 0.01124437 0.01788912 0.02452325
v 0.01658098 0.01505438 0.02517009
v 0.01147291 0.02413629 0.00266541
v 0.00947802 0.02922952 0.00373605
v 0.00924530 0.03688514 0.00686425
v 0.01117641 0.02507096 0.00031778
v 0.00942905 0.02968024 0.00172705
v 0.01021977 0.03029950 0.00031620
v 0.00940374 0.04321540 0.00504689
v 0.00901876 0.04255369 0.00168248
v 0.00930561 0.04241933 0.00031462
v 0.01099127 0.05021243 0.00106994
v 0.01110902 0.04952391 0.00259227
v 0.01303932 -0.07752844 0.05381420
v 0.00825554 -0.07889265 0.05695477
v 0.01086743 -0.01823251 0.04324708
v 0.01809295 -0.01808118 0.04767600
v 0.01704413 0.00827925 0.05213464
v 0.00991672 0.01019831 0.04640465
v 0.02361204 -0.01781300 0.05315849
v 0.02798508 0.02545981 0.05956232
v 0.02682397 0.02554445 0.05140691
v 0.02525285 0.03530808 0.05303463
v 0.02594759 0.03531211 0.06059829
v 0.02455490 0.01376262 0.04740339
v 0.02573771 0.01300525 0.05681049
v 0.02381987 0.03847565 0.05286516
v 0.01645333 0.03945068 0.05112838
v 0.01612208 0.03964728 0.05452191
v 0.02402666 0.03959850 0.06040505
v 0.00992790 0.03681476 0.04803541
v 0.00857407 0.02566058 0.04415082
v 0.00775775 0.02592653 0.04503043
v 0.00954464 0.03696111 0.05044417
v 0.01069137 0.01391148 0.04403346
v 0.01035384 0.01329811 0.04598353
v 0.01681835 0.00982899 0.04532807
v 0.01700622 0.00964731 0.05058315
v 0.01932510 0.01087521 0.04575265
v 0.03096809 -0.05815070 0.04221828
v 0.02973248 -0.04717609 0.04091972
v 0.03118910 -0.04456718 0.05279613
v 0.03304150 -0.05804830 0.05519196
v 0.02605282 -0.07316407 0.04377614
v 0.02909156 -0.06564522 0.04299721
v 0.03078139 -0.06709764 0.05526107
v 0.02735909 -0.07617132 0.05533018
v 0.01538818 -0.07614586 0.04995060
v 0.01669370 -0.07465232 0.04381047
v 0.02790325 -0.03941093 0.03993858
v 0.01847495 -0.03841886 0.03926081
v 0.01895241 -0.03740921 0.04285840
v 0.02879377 -0.03671482 0.05040030
v 0.00949281 -0.04024029 0.03813431
v 0.00875179 -0.04936782 0.03965781
v 0.00818471 -0.04928269 0.04057307
v 0.00902830 -0.04005600 0.03898132
v 0.00771254 -0.05850161 0.04260432
v 0.00801078 -0.05849536 0.04124860
v 0.00894278 -0.06591643 0.04279009
v 0.00865623 -0.06645765 0.04484638
v 0.01063903 -0.07439193 0.04708845
v 0.01139480 -0.07330567 0.04405672
v 0.02870165 -0.05793017 0.02651844
v 0.02787626 -0.05071173 0.02627413
v 0.02431297 -0.06938144 0.02755921
v 0.02710058 -0.06364338 0.02703882
v 0.01687916 -0.07113871 0.02786130
v 0.02638732 -0.04336291 0.02602983
v 0.01816370 -0.04162955 0.02640663
v 0.01022949 -0.04377483 0.02590742
v 0.00900112 -0.05828644 0.02663032
v 0.01227266 -0.06932398 0.02743331
v 0.00748251 -0.07884021 0.08402123
v 0.00169120 -0.08055457 0.08298946
v 0.00167486 -0.07977336 0.08999440
v 0.00541505 -0.07950036 0.08902763
v 0.00490478 -0.08011345 0.08372137
v 0.00405658 -0.08196504 0.08631904
v 0.00377540 -0.08182448 0.08343715
v 0.00268894 -0.08316161 0.08445768
v 0.00257844 -0.08301747 0.08338819
v 0.02563272 0.01080492 0.05870499
v 0.02135053 0.00896398 0.05515273
v 0.01983996 0.01052683 0.05317734
v 0.02372225 -0.07768590 0.05868676
v 0.02829388 -0.05789063 0.02391172
v 0.02754241 -0.05141360 0.02370857
v 0.02676189 -0.06332870 0.02445695
v 0.02404337 -0.06879163 0.02500219
v 0.01690525 -0.07058084 0.02528246
v 0.01810406 -0.04224480 0.02384133
v 0.02611217 -0.04408019 0.02350542
v 0.00917416 -0.05822298 0.02393675
v 0.01037363 -0.04442351 0.02341790
v 0.01234983 -0.06883849 0.02492045
v 0.01349650 -0.01634645 0.09845415
v 0.00705520 -0.01648134 0.10090616
v 0.02679426 -0.01637311 0.07280853
v 0.02521426 -0.01762405 0.05717745
v 0.02257053 -0.01600381 0.08696335
v 0.01540431 -0.07238625 0.09221785
f 1 2 3
f 3 4 1
f 4 3 5
f 5 6 7
f 3 2 6
f 6 5 3
f 1 8 9
f 9 2 1
f 8 10 9
f 10 7 6
f 9 10 6
f 6 2 9
f 11 12 13
f 13 14 11
f 15 16 17
f 17 18 15
f 19 20 16
f 16 15 19
f 21 22 23
f 23 24 21
f 24 23 25
f 25 26 24
f 27 26 25
f 28 29 23
f 23 22 28
f 29 30 25
f 25 23 29
f 25 30 27
f 19 15 31
f 31 32 19
f 15 18 33
f 33 31 15
f 20 19 32
f 13 34 35
f 35 36 13
f 37 14 13
f 13 36 37
f 35 34 38
f 34 39 38
f 39 34 13
f 13 12 39
f 40 41 42
f 42 43 40
f 44 45 46
f 46 47 44
f 48 44 47
f 47 49 48
f 50 51 52
f 52 53 50
f 51 54 55
f 55 52 51
f 56 55 54
f 57 53 52
f 52 58 57
f 58 52 55
f 55 59 58
f 55 56 59
f 48 60 61
f 61 44 48
f 44 61 62
f 62 45 44
f 49 60 48
f 42 63 64
f 64 65 42
f 66 63 42
f 42 41 66
f 64 67 65
f 65 67 68
f 68 43 42
f 42 65 68
f 69 70 71
f 71 72 69
f 70 73 74
f 75 76 77
f 77 78 75
f 70 79 80
f 80 78 70
f 70 81 79
f 82 83 84
f 81 85 86
f 86 83 81
f 86 87 37
f 37 88 86
f 85 89 87
f 87 86 85
f 78 80 90
f 90 75 78
f 91 92 81
f 81 69 91
f 92 93 85
f 85 81 92
f 94 95 87
f 87 89 94
f 37 36 88
f 84 88 36
f 36 35 84
f 83 86 88
f 88 84 83
f 70 69 81
f 91 69 72
f 72 96 91
f 14 37 87
f 87 95 14
f 89 85 93
f 93 94 89
f 97 98 99
f 99 100 97
f 99 101 102
f 102 100 99
f 101 76 75
f 75 102 101
f 103 104 100
f 100 102 103
f 100 104 105
f 106 107 108
f 105 108 109
f 109 110 105
f 109 111 11
f 11 112 109
f 110 109 112
f 112 113 110
f 90 103 102
f 102 75 90
f 91 97 105
f 105 92 91
f 92 105 110
f 110 93 92
f 94 113 112
f 112 95 94
f 107 39 12
f 12 111 107
f 108 107 111
f 111 109 108
f 100 105 97
f 91 96 98
f 98 97 91
f 14 95 112
f 112 11 14
f 113 94 93
f 93 110 113
f 114 115 116
f 116 117 114
f 118 119 117
f 117 116 118
f 120 5 119
f 119 118 120
f 121 4 5
f 5 120 121
f 4 121 122
f 123 1 4
f 4 122 123
f 124 116 115
f 115 125 124
f 126 118 116
f 116 124 126
f 127 120 118
f 118 126 127
f 128 121 120
f 120 127 128
f 129 122 121
f 121 128 129
f 130 123 122
f 122 129 130
f 131 132 133
f 133 134 131
f 134 133 135
f 135 136 134
f 136 135 137
f 137 138 136
f 138 137 139
f 139 140 138
f 140 139 141
f 141 142 140
f 143 144 145
f 145 146 143
f 132 147 148
f 148 133 132
f 149 135 133
f 133 148 149
f 135 149 150
f 150 137 135
f 137 150 151
f 151 139 137
f 139 151 152
f 152 141 139
f 147 153 154
f 154 148 147
f 155 156 157
f 158 156 155
f 155 159 158
f 160 161 158
f 160 158 159
f 162 160 159
f 163 164 165
f 165 166 163
f 167 168 169
f 167 169 170
f 171 167 170
f 172 173 174
f 174 175 172
f 176 177 173
f 173 172 178
f 176 173 178
f 177 176 179
f 179 180 177
f 180 179 181
f 181 182 180
f 183 184 185
f 185 186 183
f 170 187 188
f 188 171 170
f 189 190 191
f 191 192 189
f 193 190 189
f 189 194 193
f 195 193 194
f 194 196 195
f 197 198 199
f 199 200 197
f 187 201 202
f 202 188 187
f 192 203 204
f 204 189 192
f 189 204 205
f 205 194 189
f 194 205 206
f 206 196 194
f 207 200 199
f 199 208 207
f 209 210 211
f 211 212 209
f 213 214 215
f 215 216 213
f 217 218 219
f 219 220 217
f 221 222 218
f 218 217 221
f 223 224 222
f 222 221 223
f 225 226 227
f 227 228 225
f 229 230 231
f 229 231 232
f 229 232 233
f 234 235 236
f 236 237 234
f 238 239 240
f 240 241 238
f 242 243 238
f 238 241 242
f 244 243 242
f 242 245 244
f 246 247 248
f 248 249 246
f 250 251 252
f 252 253 250
f 254 255 256
f 256 257 254
f 258 259 254
f 254 257 258
f 260 261 259
f 259 258 260
f 262 263 264
f 264 265 262
f 266 267 268
f 268 269 266
f 270 271 272
f 272 273 270
f 274 275 271
f 271 270 274
f 276 277 275
f 275 274 276
f 278 279 280
f 280 281 278
f 282 283 266
f 266 269 282
f 284 285 286
f 286 287 284
f 288 289 284
f 284 287 288
f 290 291 292
f 292 293 290
f 211 294 295
f 295 212 211
f 212 295 296
f 296 216 212
f 297 298 228
f 228 223 297
f 299 297 223
f 223 221 299
f 217 300 299
f 299 221 217
f 213 301 302
f 302 220 213
f 169 168 303
f 303 304 169
f 305 306 174
f 174 173 305
f 173 177 307
f 307 305 173
f 177 180 308
f 308 307 177
f 180 182 309
f 309 308 180
f 310 184 183
f 183 311 310
f 145 312 313
f 313 142 145
f 142 313 314
f 314 140 142
f 138 140 314
f 314 315 138
f 136 138 315
f 315 316 136
f 134 136 316
f 316 317 134
f 131 134 317
f 317 318 131
f 310 166 319
f 319 309 310
f 309 319 320
f 309 320 162
f 308 309 162
f 308 162 159
f 159 307 308
f 305 307 159
f 159 155 305
f 306 157 154
f 154 303 306
f 304 303 154
f 154 153 304
f 5 7 321
f 321 119 5
f 322 130 129
f 129 312 322
f 313 129 128
f 128 314 313
f 128 127 315
f 315 314 128
f 127 126 316
f 316 315 127
f 126 124 317
f 317 316 126
f 124 125 318
f 318 317 124
f 320 323 324
f 324 162 320
f 319 325 326
f 326 327 319
f 162 324 328
f 328 160 162
f 325 329 330
f 330 326 325
f 331 332 333
f 333 334 331
f 332 335 323
f 323 327 332
f 326 333 332
f 332 327 326
f 328 336 337
f 324 338 336
f 336 328 324
f 330 333 326
f 319 327 323
f 323 320 319
f 336 338 331
f 331 334 336
f 331 338 335
f 160 328 337
f 337 161 160
f 20 32 329
f 329 161 20
f 334 333 33
f 33 18 334
f 330 329 32
f 32 31 330
f 333 330 31
f 31 33 333
f 334 18 17
f 17 336 334
f 332 331 335
f 338 324 323
f 323 335 338
f 146 339 340
f 340 143 146
f 114 117 341
f 117 119 321
f 321 341 117
f 342 343 344
f 345 346 347
f 347 348 345
f 349 350 347
f 347 346 349
f 345 351 352
f 352 346 345
f 345 353 351
f 354 355 356
f 353 357 358
f 358 355 353
f 359 21 24
f 358 360 21
f 21 359 358
f 357 361 360
f 360 358 357
f 349 362 363
f 363 364 349
f 365 366 353
f 353 342 365
f 354 356 26
f 26 27 354
f 366 367 357
f 357 353 366
f 368 369 360
f 360 361 368
f 355 358 359
f 359 356 355
f 356 359 24
f 24 26 356
f 345 342 353
f 365 342 344
f 344 370 365
f 22 21 360
f 360 369 22
f 361 357 367
f 367 368 361
f 371 372 373
f 373 374 371
f 373 375 376
f 376 374 373
f 375 377 364
f 364 376 375
f 378 379 374
f 374 376 378
f 374 379 380
f 381 382 383
f 380 383 384
f 384 385 380
f 386 29 28
f 384 386 28
f 28 387 384
f 385 384 387
f 387 388 385
f 363 378 376
f 376 364 363
f 365 371 380
f 380 366 365
f 381 27 30
f 30 382 381
f 366 380 385
f 385 367 366
f 368 388 387
f 387 369 368
f 383 382 386
f 386 384 383
f 382 30 29
f 29 386 382
f 374 380 371
f 365 370 372
f 372 371 365
f 22 369 387
f 387 28 22
f 388 368 367
f 367 385 388
f 389 283 282
f 282 390 389
f 391 231 235
f 235 392 391
f 393 394 209
f 209 215 393
f 168 167 175
f 175 174 168
f 303 168 174
f 174 306 303
f 148 154 157
f 305 155 157
f 157 306 305
f 395 301 296
f 296 392 395
f 396 397 398
f 398 399 396
f 400 401 396
f 396 399 400
f 402 403 404
f 404 405 402
f 406 407 408
f 408 409 406
f 408 410 411
f 411 409 408
f 410 412 413
f 413 411 410
f 405 404 407
f 407 406 405
f 399 398 343
f 343 348 399
f 400 399 348
f 348 347 400
f 413 414 350
f 350 377 413
f 344 402 405
f 405 370 344
f 372 406 409
f 409 373 372
f 409 411 375
f 375 373 409
f 411 413 377
f 377 375 411
f 370 405 406
f 406 372 370
f 415 416 417
f 417 418 415
f 419 420 421
f 421 422 419
f 423 420 419
f 419 424 423
f 425 426 427
f 427 428 425
f 429 430 431
f 431 432 429
f 433 434 435
f 435 436 433
f 437 423 424
f 424 438 437
f 428 427 430
f 430 429 428
f 439 415 418
f 418 440 439
f 441 419 422
f 422 442 441
f 443 424 419
f 419 441 443
f 444 425 428
f 428 445 444
f 429 432 446
f 446 447 429
f 446 436 435
f 438 424 443
f 443 448 438
f 445 428 429
f 429 447 445
f 390 282 449
f 390 449 450
f 450 286 390
f 287 286 450
f 450 451 287
f 451 452 453
f 451 453 288
f 287 451 288
f 293 288 453
f 452 290 454
f 454 455 452
f 290 293 456
f 456 454 290
f 293 453 457
f 457 456 293
f 457 453 452
f 452 455 457
f 455 454 458
f 458 459 455
f 454 456 460
f 454 460 461
f 454 461 458
f 456 457 462
f 462 460 456
f 457 455 459
f 457 459 463
f 457 463 462
f 460 462 464
f 464 465 460
f 463 466 464
f 464 462 463
f 172 403 178
f 394 410 202
f 401 467 203
f 167 171 407
f 188 408 407
f 407 171 188
f 202 410 408
f 408 188 202
f 192 396 401
f 401 203 192
f 401 468 469
f 469 467 401
f 192 191 397
f 397 396 192
f 403 172 175
f 175 404 403
f 410 394 393
f 393 412 410
f 404 175 167
f 167 407 404
f 240 237 426
f 420 470 273
f 430 230 229
f 266 283 437
f 427 236 230
f 230 430 427
f 433 431 251
f 251 250 433
f 240 426 417
f 417 255 240
f 266 437 434
f 434 267 266
f 416 421 272
f 272 256 416
f 470 420 423
f 423 389 470
f 389 423 437
f 437 283 389
f 236 427 426
f 426 237 236
f 351 355 354
f 354 352 351
f 352 354 27
f 27 362 352
f 381 383 379
f 379 378 381
f 27 381 378
f 378 363 27
f 353 355 351
f 379 383 380
f 79 83 82
f 82 80 79
f 80 82 38
f 38 90 80
f 106 108 104
f 104 103 106
f 38 106 103
f 103 90 38
f 81 83 79
f 104 108 105
f 471 472 71
f 71 74 471
f 77 473 474
f 474 73 77
f 473 77 76
f 76 475 473
f 476 96 72
f 72 477 476
f 478 99 98
f 98 479 478
f 475 76 101
f 101 480 475
f 479 98 96
f 96 476 479
f 439 440 472
f 472 471 439
f 473 441 442
f 442 474 473
f 441 473 475
f 475 443 441
f 445 476 477
f 477 444 445
f 446 478 479
f 479 447 446
f 443 475 480
f 480 448 443
f 447 479 476
f 476 445 447
f 182 181 185
f 185 184 182
f 181 195 198
f 198 185 181
f 196 206 208
f 208 199 196
f 208 206 224
f 224 227 208
f 481 244 248
f 248 482 481
f 245 261 264
f 264 249 245
f 260 277 280
f 280 265 260
f 482 483 484
f 484 298 482
f 309 182 184
f 184 310 309
f 339 152 329
f 339 329 325
f 339 325 319
f 319 166 165
f 339 319 165
f 141 152 339
f 339 146 141
f 311 163 166
f 166 310 311
f 144 322 312
f 312 145 144
f 142 141 146
f 146 145 142
f 129 313 312
f 164 340 339
f 339 165 164
f 150 149 156
f 156 158 150
f 161 151 150
f 150 158 161
f 149 148 157
f 157 156 149
f 254 241 240
f 240 255 254
f 259 242 241
f 241 254 259
f 261 245 242
f 242 259 261
f 263 246 249
f 249 264 263
f 426 425 418
f 418 417 426
f 418 425 444
f 444 440 418
f 416 256 255
f 255 417 416
f 472 477 72
f 72 71 472
f 440 444 477
f 477 472 440
f 261 260 265
f 265 264 261
f 70 74 71
f 231 391 485
f 485 232 231
f 395 392 235
f 235 234 395
f 486 487 239
f 239 238 486
f 488 486 238
f 238 243 488
f 481 488 243
f 243 244 481
f 247 483 482
f 482 248 247
f 231 230 236
f 236 235 231
f 244 245 249
f 249 248 244
f 202 201 210
f 394 202 210
f 209 394 210
f 214 469 393
f 393 215 214
f 204 203 219
f 219 218 204
f 222 205 204
f 204 218 222
f 224 206 205
f 205 222 224
f 226 207 208
f 208 227 226
f 209 212 216
f 216 215 209
f 223 228 227
f 227 224 223
f 294 485 391
f 391 295 294
f 295 391 392
f 392 296 295
f 481 482 298
f 298 297 481
f 488 481 297
f 297 299 488
f 300 486 488
f 488 299 300
f 301 395 487
f 487 302 301
f 301 213 216
f 216 296 301
f 225 228 298
f 298 484 225
f 214 213 220
f 220 219 214
f 300 217 220
f 220 302 300
f 395 234 239
f 239 487 395
f 486 300 302
f 302 487 486
f 203 467 219
f 239 234 237
f 467 214 219
f 239 237 240
f 270 273 285
f 285 284 270
f 289 274 270
f 270 284 289
f 273 470 285
f 285 470 389
f 389 390 286
f 286 285 389
f 289 489 276
f 276 274 289
f 288 293 489
f 489 289 288
f 293 292 489
f 292 281 276
f 276 489 292
f 291 278 281
f 281 292 291
f 250 253 268
f 268 267 250
f 271 257 256
f 256 272 271
f 275 258 257
f 257 271 275
f 277 260 258
f 258 275 277
f 279 262 265
f 265 280 279
f 416 415 422
f 422 421 416
f 434 437 438
f 438 435 434
f 415 439 442
f 442 422 415
f 435 438 448
f 448 446 435
f 433 250 267
f 267 434 433
f 420 273 272
f 272 421 420
f 471 74 73
f 73 474 471
f 478 480 101
f 101 99 478
f 439 471 474
f 474 442 439
f 446 448 480
f 480 478 446
f 277 276 281
f 281 280 277
f 78 77 73
f 73 70 78
f 251 229 233
f 233 252 251
f 431 433 436
f 436 432 431
f 430 229 251
f 251 431 430
f 432 436 446
f 364 377 350
f 350 349 364
f 346 352 362
f 362 349 346
f 27 363 362
f 414 400 347
f 347 350 414
f 414 468 401
f 401 400 414
f 468 412 393
f 393 469 468
f 214 467 469
f 414 413 412
f 412 468 414
f 397 403 402
f 402 398 397
f 398 402 344
f 344 343 398
f 190 176 178
f 178 191 190
f 179 176 190
f 190 193 179
f 181 179 193
f 193 195 181
f 186 185 198
f 198 197 186
f 195 196 199
f 199 198 195
f 191 178 403
f 403 397 191
f 342 345 348
f 348 343 342
f 16 337 336
f 336 17 16
f 20 161 337
f 337 16 20
f 329 152 151
f 151 161 329
f 84 35 38
f 38 82 84
f 11 111 12
f 39 107 106
f 106 38 39
f 490 465 464
f 464 466 490
f 461 460 465
f 465 490 461
f 491 492 493
f 493 494 491
f 494 495 496
f 497 498 499
f 499 500 497
f 494 498 501
f 501 502 494
f 494 502 503
f 504 505 506
f 503 506 507
f 507 508 503
f 507 509 66
f 66 510 507
f 508 507 510
f 510 511 508
f 498 497 512
f 512 501 498
f 513 491 503
f 503 514 513
f 514 503 508
f 508 515 514
f 516 511 510
f 510 517 516
f 66 509 63
f 505 64 63
f 63 509 505
f 506 505 509
f 509 507 506
f 494 503 491
f 513 518 492
f 492 491 513
f 41 517 510
f 510 66 41
f 511 516 515
f 515 508 511
f 519 520 521
f 521 522 519
f 521 520 523
f 523 524 521
f 524 523 497
f 497 500 524
f 525 523 520
f 520 526 525
f 520 527 526
f 528 529 530
f 527 531 532
f 532 529 527
f 532 533 40
f 40 534 532
f 531 535 533
f 533 532 531
f 512 497 523
f 523 525 512
f 513 514 527
f 527 519 513
f 514 515 531
f 531 527 514
f 516 517 533
f 533 535 516
f 530 534 43
f 43 68 530
f 529 532 534
f 534 530 529
f 520 519 527
f 513 519 522
f 522 518 513
f 41 40 533
f 533 517 41
f 535 531 515
f 515 516 535
f 114 536 537
f 537 115 114
f 538 537 536
f 536 539 538
f 540 538 539
f 539 10 540
f 541 540 10
f 10 8 541
f 8 542 541
f 123 542 8
f 8 1 123
f 543 125 115
f 115 537 543
f 544 543 537
f 537 538 544
f 545 544 538
f 538 540 545
f 546 545 540
f 540 541 546
f 547 546 541
f 541 542 547
f 130 547 542
f 542 123 130
f 131 548 549
f 549 132 131
f 548 550 551
f 551 549 548
f 550 552 553
f 553 551 550
f 552 554 555
f 555 553 552
f 554 556 557
f 557 555 554
f 143 558 559
f 559 144 143
f 132 549 560
f 560 147 132
f 561 560 549
f 549 551 561
f 551 553 562
f 562 561 551
f 553 555 563
f 563 562 553
f 555 557 564
f 564 563 555
f 147 560 565
f 565 153 147
f 566 567 568
f 569 570 566
f 566 568 569
f 569 571 572
f 570 569 572
f 573 570 572
f 163 574 575
f 575 164 163
f 169 576 577
f 170 169 577
f 578 170 577
f 579 580 581
f 581 582 579
f 583 579 582
f 584 583 582
f 584 582 585
f 585 586 587
f 587 584 585
f 586 588 589
f 589 587 586
f 183 186 590
f 590 591 183
f 170 578 592
f 592 187 170
f 593 594 595
f 595 596 593
f 597 598 593
f 593 596 597
f 599 600 598
f 598 597 599
f 197 200 601
f 601 602 197
f 187 592 603
f 603 201 187
f 594 593 604
f 604 605 594
f 593 598 606
f 606 604 593
f 598 600 607
f 607 606 598
f 207 608 601
f 601 200 207
f 609 610 211
f 211 210 609
f 611 612 613
f 613 614 611
f 615 616 617
f 617 618 615
f 619 615 618
f 618 620 619
f 621 619 620
f 620 622 621
f 225 623 624
f 624 226 225
f 625 233 232
f 625 232 626
f 625 626 627
f 628 629 630
f 630 631 628
f 632 633 634
f 634 635 632
f 636 633 632
f 632 637 636
f 638 639 636
f 636 637 638
f 246 640 641
f 641 247 246
f 642 253 252
f 252 643 642
f 644 645 646
f 646 647 644
f 648 645 644
f 644 649 648
f 650 648 649
f 649 651 650
f 262 652 653
f 653 263 262
f 654 269 268
f 268 655 654
f 656 657 658
f 658 659 656
f 660 656 659
f 659 661 660
f 662 660 661
f 661 663 662
f 278 664 665
f 665 279 278
f 282 269 654
f 654 666 282
f 667 668 669
f 669 670 667
f 671 668 667
f 667 672 671
f 290 673 674
f 674 291 290
f 211 610 675
f 675 294 211
f 610 612 676
f 676 675 610
f 677 621 623
f 623 678 677
f 679 619 621
f 621 677 679
f 615 619 679
f 679 680 615
f 611 616 681
f 681 682 611
f 169 304 683
f 683 576 169
f 684 582 581
f 581 685 684
f 582 684 686
f 686 585 582
f 585 686 687
f 687 586 585
f 586 687 688
f 688 588 586
f 689 311 183
f 183 591 689
f 559 556 690
f 690 691 559
f 556 554 692
f 692 690 556
f 552 693 692
f 692 554 552
f 550 694 693
f 693 552 550
f 548 695 694
f 694 550 548
f 131 318 695
f 695 548 131
f 689 688 696
f 696 574 689
f 697 696 688
f 573 697 688
f 687 573 688
f 687 686 570
f 570 573 687
f 684 566 570
f 570 686 684
f 685 683 565
f 565 567 685
f 304 153 565
f 565 683 304
f 10 539 321
f 321 7 10
f 322 691 547
f 547 130 322
f 690 692 546
f 546 547 690
f 546 692 693
f 693 545 546
f 545 693 694
f 694 544 545
f 544 694 695
f 695 543 544
f 543 695 318
f 318 125 543
f 697 573 698
f 698 699 697
f 696 700 701
f 701 702 696
f 573 572 703
f 703 698 573
f 702 701 704
f 704 705 702
f 706 707 708
f 708 709 706
f 709 700 699
f 699 710 709
f 701 700 709
f 709 708 701
f 703 711 712
f 698 703 712
f 712 713 698
f 704 701 708
f 696 697 699
f 699 700 696
f 712 707 706
f 706 713 712
f 706 710 713
f 572 571 711
f 711 703 572
f 49 571 705
f 705 60 49
f 707 45 62
f 62 708 707
f 704 61 60
f 60 705 704
f 708 62 61
f 61 704 708
f 707 712 46
f 46 45 707
f 709 710 706
f 713 710 699
f 699 698 713
f 558 143 340
f 340 714 558
f 114 341 536
f 536 341 321
f 321 539 536
f 715 716 717
f 718 719 720
f 720 721 718
f 722 721 720
f 720 723 722
f 718 721 724
f 724 725 718
f 718 725 726
f 727 728 729
f 726 729 730
f 730 731 726
f 732 51 50
f 730 732 50
f 50 733 730
f 731 730 733
f 733 734 731
f 722 735 736
f 736 737 722
f 738 715 726
f 726 739 738
f 727 56 54
f 54 728 727
f 739 726 731
f 731 740 739
f 741 734 733
f 733 742 741
f 729 728 732
f 732 730 729
f 728 54 51
f 51 732 728
f 718 726 715
f 738 743 716
f 716 715 738
f 53 742 733
f 733 50 53
f 734 741 740
f 740 731 734
f 744 745 746
f 746 747 744
f 746 745 748
f 748 749 746
f 749 748 735
f 735 750 749
f 751 748 745
f 745 752 751
f 745 753 752
f 754 755 756
f 753 757 758
f 758 755 753
f 759 57 58
f 758 760 57
f 57 759 758
f 757 761 760
f 760 758 757
f 736 735 748
f 748 751 736
f 738 739 753
f 753 744 738
f 754 756 59
f 59 56 754
f 739 740 757
f 757 753 739
f 741 742 760
f 760 761 741
f 755 758 759
f 759 756 755
f 756 759 58
f 58 59 756
f 745 744 753
f 738 744 747
f 747 743 738
f 53 57 760
f 760 742 53
f 761 757 740
f 740 741 761
f 762 763 282
f 282 666 762
f 764 765 631
f 631 626 764
f 766 613 609
f 609 767 766
f 576 581 580
f 580 577 576
f 683 685 581
f 581 576 683
f 560 567 565
f 684 685 567
f 567 566 684
f 768 765 676
f 676 682 768
f 769 770 771
f 771 772 769
f 773 770 769
f 769 774 773
f 775 776 777
f 777 778 775
f 779 780 781
f 781 782 779
f 781 780 783
f 783 784 781
f 784 783 785
f 785 786 784
f 776 779 782
f 782 777 776
f 770 719 717
f 717 771 770
f 773 720 719
f 719 770 773
f 785 750 723
f 723 787 785
f 716 743 776
f 776 775 716
f 747 746 780
f 780 779 747
f 780 746 749
f 749 783 780
f 783 749 750
f 750 785 783
f 743 747 779
f 779 776 743
f 788 789 790
f 790 791 788
f 792 793 794
f 794 795 792
f 796 797 792
f 792 795 796
f 798 799 800
f 800 801 798
f 802 803 804
f 804 805 802
f 806 807 808
f 808 809 806
f 810 811 797
f 797 796 810
f 799 802 805
f 805 800 799
f 812 813 789
f 789 788 812
f 814 815 793
f 793 792 814
f 816 814 792
f 792 797 816
f 817 818 799
f 799 798 817
f 802 819 820
f 820 803 802
f 820 808 807
f 811 821 816
f 816 797 811
f 818 819 802
f 802 799 818
f 763 449 282
f 763 669 450
f 450 449 763
f 668 451 450
f 450 669 668
f 822 452 451
f 671 822 451
f 668 671 451
f 673 822 671
f 452 823 824
f 824 290 452
f 290 824 825
f 825 673 290
f 673 825 826
f 826 822 673
f 826 823 452
f 452 822 826
f 823 459 458
f 458 824 823
f 824 458 461
f 824 461 827
f 824 827 825
f 825 827 828
f 828 826 825
f 826 828 463
f 826 463 459
f 826 459 823
f 827 829 830
f 830 828 827
f 463 828 830
f 830 466 463
f 579 583 778
f 767 603 784
f 774 605 831
f 577 782 578
f 592 578 782
f 782 781 592
f 603 592 781
f 781 784 603
f 594 605 774
f 774 769 594
f 774 831 832
f 832 833 774
f 594 769 772
f 772 595 594
f 778 777 580
f 580 579 778
f 784 786 766
f 766 767 784
f 777 782 577
f 577 580 777
f 634 801 629
f 795 657 834
f 805 625 627
f 654 810 666
f 800 805 627
f 627 630 800
f 806 642 643
f 643 804 806
f 634 647 790
f 790 801 634
f 654 655 809
f 809 810 654
f 791 646 658
f 658 794 791
f 834 762 796
f 796 795 834
f 762 666 810
f 810 796 762
f 630 629 801
f 801 800 630
f 725 724 727
f 727 729 725
f 724 737 56
f 56 727 724
f 754 751 752
f 752 755 754
f 56 736 751
f 751 754 56
f 726 725 729
f 752 753 755
f 502 501 504
f 504 506 502
f 501 512 67
f 67 504 501
f 528 525 526
f 526 529 528
f 67 512 525
f 525 528 67
f 503 502 506
f 526 527 529
f 835 495 493
f 493 836 835
f 499 496 837
f 837 838 499
f 838 839 500
f 500 499 838
f 840 841 492
f 492 518 840
f 842 843 522
f 522 521 842
f 839 844 524
f 524 500 839
f 843 840 518
f 518 522 843
f 812 835 836
f 836 813 812
f 838 837 815
f 815 814 838
f 814 816 839
f 839 838 814
f 818 817 841
f 841 840 818
f 820 819 843
f 843 842 820
f 816 821 844
f 844 839 816
f 819 818 840
f 840 843 819
f 588 591 590
f 590 589 588
f 589 590 602
f 602 599 589
f 600 601 608
f 608 607 600
f 608 624 622
f 622 607 608
f 845 846 641
f 641 638 845
f 639 640 653
f 653 651 639
f 650 652 665
f 665 663 650
f 846 678 484
f 484 483 846
f 688 689 591
f 591 588 688
f 575 574 696
f 714 575 696
f 714 696 702
f 714 702 705
f 714 705 564
f 557 558 714
f 714 564 557
f 311 689 574
f 574 163 311
f 144 559 691
f 691 322 144
f 556 559 558
f 558 557 556
f 547 691 690
f 164 575 714
f 714 340 164
f 562 569 568
f 568 561 562
f 571 569 562
f 562 563 571
f 561 568 567
f 567 560 561
f 644 647 634
f 634 633 644
f 649 644 633
f 633 636 649
f 651 649 636
f 636 639 651
f 263 653 640
f 640 246 263
f 801 790 789
f 789 798 801
f 789 813 817
f 817 798 789
f 791 790 647
f 647 646 791
f 836 493 492
f 492 841 836
f 813 836 841
f 841 817 813
f 651 653 652
f 652 650 651
f 494 493 495
f 626 232 485
f 485 764 626
f 768 628 631
f 631 765 768
f 847 632 635
f 635 848 847
f 849 637 632
f 632 847 849
f 845 638 637
f 637 849 845
f 247 641 846
f 846 483 247
f 626 631 630
f 630 627 626
f 638 641 640
f 640 639 638
f 210 201 603
f 210 603 767
f 609 210 767
f 614 613 766
f 766 832 614
f 604 618 617
f 617 605 604
f 620 618 604
f 604 606 620
f 622 620 606
f 606 607 622
f 226 624 608
f 608 207 226
f 609 613 612
f 612 610 609
f 621 622 624
f 624 623 621
f 294 675 764
f 764 485 294
f 675 676 765
f 765 764 675
f 845 677 678
f 678 846 845
f 849 679 677
f 677 845 849
f 680 679 849
f 849 847 680
f 682 681 848
f 848 768 682
f 682 676 612
f 612 611 682
f 225 484 678
f 678 623 225
f 614 617 616
f 616 611 614
f 680 681 616
f 616 615 680
f 768 848 635
f 635 628 768
f 847 848 681
f 681 680 847
f 605 617 831
f 635 629 628
f 831 617 614
f 635 634 629
f 656 667 670
f 670 657 656
f 672 667 656
f 656 660 672
f 657 670 834
f 670 762 834
f 762 670 669
f 669 763 762
f 672 660 662
f 662 850 672
f 671 672 850
f 850 673 671
f 673 850 674
f 674 850 662
f 662 664 674
f 291 674 664
f 664 278 291
f 642 655 268
f 268 253 642
f 659 658 646
f 646 645 659
f 661 659 645
f 645 648 661
f 663 661 648
f 648 650 663
f 279 665 652
f 652 262 279
f 791 794 793
f 793 788 791
f 809 808 811
f 811 810 809
f 788 793 815
f 815 812 788
f 808 820 821
f 821 811 808
f 806 809 655
f 655 642 806
f 795 794 658
f 658 657 795
f 835 837 496
f 496 495 835
f 842 521 524
f 524 844 842
f 812 815 837
f 837 835 812
f 820 842 844
f 844 821 820
f 663 665 664
f 664 662 663
f 498 494 496
f 496 499 498
f 643 252 233
f 233 625 643
f 804 803 807
f 807 806 804
f 805 804 643
f 643 625 805
f 803 820 807
f 735 722 723
f 723 750 735
f 721 722 737
f 737 724 721
f 56 737 736
f 787 723 720
f 720 773 787
f 787 773 774
f 774 833 787
f 833 832 766
f 766 786 833
f 614 832 831
f 787 833 786
f 786 785 787
f 772 771 775
f 775 778 772
f 771 717 716
f 716 775 771
f 596 595 583
f 583 584 596
f 587 597 596
f 596 584 587
f 589 599 597
f 597 587 589
f 186 197 602
f 602 590 186
f 599 602 601
f 601 600 599
f 595 772 778
f 778 583 595
f 715 717 719
f 719 718 715
f 47 46 712
f 712 711 47
f 49 47 711
f 711 571 49
f 705 571 563
f 563 564 705
f 505 504 67
f 67 64 505
f 40 43 534
f 68 67 528
f 528 530 68
f 490 466 830
f 830 829 490
f 461 490 829
f 829 827 461
f 1 3 2
f 3 1 4
f 4 5 3
f 5 7 6
f 3 6 2
f 6 3 5
f 1 9 8
f 9 1 2
f 8 9 10
f 10 6 7
f 9 6 10
f 6 9 2
f 11 13 12
f 13 11 14
f 15 17 16
f 17 15 18
f 19 16 20
f 16 19 15
f 21 23 22
f 23 21 24
f 24 25 23
f 25 24 26
f 27 25 26
f 28 23 29
f 23 28 22
f 29 25 30
f 25 29 23
f 25 27 30
f 19 31 15
f 31 19 32
f 15 33 18
f 33 15 31
f 20 32 19
f 13 35 34
f 35 13 36
f 37 13 14
f 13 37 36
f 35 38 34
f 34 38 39
f 39 13 34
f 13 39 12
f 40 42 41
f 42 40 43
f 44 46 45
f 46 44 47
f 48 47 44
f 47 48 49
f 50 52 51
f 52 50 53
f 51 55 54
f 55 51 52
f 56 54 55
f 57 52 53
f 52 57 58
f 58 55 52
f 55 58 59
f 55 59 56
f 48 61 60
f 61 48 44
f 44 62 61
f 62 44 45
f 49 48 60
f 42 64 63
f 64 42 65
f 66 42 63
f 42 66 41
f 64 65 67
f 65 68 67
f 68 42 43
f 42 68 65
f 69 71 70
f 71 69 72
f 70 74 73
f 75 77 76
f 77 75 78
f 70 80 79
f 80 70 78
f 70 79 81
f 82 84 83
f 81 86 85
f 86 81 83
f 86 37 87
f 37 86 88
f 85 87 89
f 87 85 86
f 78 90 80
f 90 78 75
f 91 81 92
f 81 91 69
f 92 85 93
f 85 92 81
f 94 87 95
f 87 94 89
f 37 88 36
f 84 36 88
f 36 84 35
f 83 88 86
f 88 83 84
f 70 81 69
f 91 72 69
f 72 91 96
f 14 87 37
f 87 14 95
f 89 93 85
f 93 89 94
f 97 99 98
f 99 97 100
f 99 102 101
f 102 99 100
f 101 75 76
f 75 101 102
f 103 100 104
f 100 103 102
f 100 105 104
f 106 108 107
f 105 109 108
f 109 105 110
f 109 11 111
f 11 109 112
f 110 112 109
f 112 110 113
f 90 102 103
f 102 90 75
f 91 105 97
f 105 91 92
f 92 110 105
f 110 92 93
f 94 112 113
f 112 94 95
f 107 12 39
f 12 107 111
f 108 111 107
f 111 108 109
f 100 97 105
f 91 98 96
f 98 91 97
f 14 112 95
f 112 14 11
f 113 93 94
f 93 113 110
f 114 116 115
f 116 114 117
f 118 117 119
f 117 118 116
f 120 119 5
f 119 120 118
f 121 5 4
f 5 121 120
f 4 122 121
f 123 4 1
f 4 123 122
f 124 115 116
f 115 124 125
f 126 116 118
f 116 126 124
f 127 118 120
f 118 127 126
f 128 120 121
f 120 128 127
f 129 121 122
f 121 129 128
f 130 122 123
f 122 130 129
f 131 133 132
f 133 131 134
f 134 135 133
f 135 134 136
f 136 137 135
f 137 136 138
f 138 139 137
f 139 138 140
f 140 141 139
f 141 140 142
f 143 145 144
f 145 143 146
f 132 148 147
f 148 132 133
f 149 133 135
f 133 149 148
f 135 150 149
f 150 135 137
f 137 151 150
f 151 137 139
f 139 152 151
f 152 139 141
f 147 154 153
f 154 147 148
f 155 157 156
f 158 155 156
f 155 158 159
f 160 158 161
f 160 159 158
f 162 159 160
f 163 165 164
f 165 163 166
f 167 169 168
f 167 170 169
f 171 170 167
f 172 174 173
f 174 172 175
f 176 173 177
f 173 178 172
f 176 178 173
f 177 179 176
f 179 177 180
f 180 181 179
f 181 180 182
f 183 185 184
f 185 183 186
f 170 188 187
f 188 170 171
f 189 191 190
f 191 189 192
f 193 189 190
f 189 193 194
f 195 194 193
f 194 195 196
f 197 199 198
f 199 197 200
f 187 202 201
f 202 187 188
f 192 204 203
f 204 192 189
f 189 205 204
f 205 189 194
f 194 206 205
f 206 194 196
f 207 199 200
f 199 207 208
f 209 211 210
f 211 209 212
f 213 215 214
f 215 213 216
f 217 219 218
f 219 217 220
f 221 218 222
f 218 221 217
f 223 222 224
f 222 223 221
f 225 227 226
f 227 225 228
f 229 231 230
f 229 232 231
f 229 233 232
f 234 236 235
f 236 234 237
f 238 240 239
f 240 238 241
f 242 238 243
f 238 242 241
f 244 242 243
f 242 244 245
f 246 248 247
f 248 246 249
f 250 252 251
f 252 250 253
f 254 256 255
f 256 254 257
f 258 254 259
f 254 258 257
f 260 259 261
f 259 260 258
f 262 264 263
f 264 262 265
f 266 268 267
f 268 266 269
f 270 272 271
f 272 270 273
f 274 271 275
f 271 274 270
f 276 275 277
f 275 276 274
f 278 280 279
f 280 278 281
f 282 266 283
f 266 282 269
f 284 286 285
f 286 284 287
f 288 284 289
f 284 288 287
f 290 292 291
f 292 290 293
f 211 295 294
f 295 211 212
f 212 296 295
f 296 212 216
f 297 228 298
f 228 297 223
f 299 223 297
f 223 299 221
f 217 299 300
f 299 217 221
f 213 302 301
f 302 213 220
f 169 303 168
f 303 169 304
f 305 174 306
f 174 305 173
f 173 307 177
f 307 173 305
f 177 308 180
f 308 177 307
f 180 309 182
f 309 180 308
f 310 183 184
f 183 310 311
f 145 313 312
f 313 145 142
f 142 314 313
f 314 142 140
f 138 314 140
f 314 138 315
f 136 315 138
f 315 136 316
f 134 316 136
f 316 134 317
f 131 317 134
f 317 131 318
f 310 319 166
f 319 310 309
f 309 320 319
f 309 162 320
f 308 162 309
f 308 159 162
f 159 308 307
f 305 159 307
f 159 305 155
f 306 154 157
f 154 306 303
f 304 154 303
f 154 304 153
f 5 321 7
f 321 5 119
f 322 129 130
f 129 322 312
f 313 128 129
f 128 313 314
f 128 315 127
f 315 128 314
f 127 316 126
f 316 127 315
f 126 317 124
f 317 126 316
f 124 318 125
f 318 124 317
f 320 324 323
f 324 320 162
f 319 326 325
f 326 319 327
f 162 328 324
f 328 162 160
f 325 330 329
f 330 325 326
f 331 333 332
f 333 331 334
f 332 323 335
f 323 332 327
f 326 332 333
f 332 326 327
f 328 337 336
f 324 336 338
f 336 324 328
f 330 326 333
f 319 323 327
f 323 319 320
f 336 331 338
f 331 336 334
f 331 335 338
f 160 337 328
f 337 160 161
f 20 329 32
f 329 20 161
f 334 33 333
f 33 334 18
f 330 32 329
f 32 330 31
f 333 31 330
f 31 333 33
f 334 17 18
f 17 334 336
f 332 335 331
f 338 323 324
f 323 338 335
f 146 340 339
f 340 146 143
f 114 341 117
f 117 321 119
f 321 117 341
f 342 344 343
f 345 347 346
f 347 345 348
f 349 347 350
f 347 349 346
f 345 352 351
f 352 345 346
f 345 351 353
f 354 356 355
f 353 358 357
f 358 353 355
f 359 24 21
f 358 21 360
f 21 358 359
f 357 360 361
f 360 357 358
f 349 363 362
f 363 349 364
f 365 353 366
f 353 365 342
f 354 26 356
f 26 354 27
f 366 357 367
f 357 366 353
f 368 360 369
f 360 368 361
f 355 359 358
f 359 355 356
f 356 24 359
f 24 356 26
f 345 353 342
f 365 344 342
f 344 365 370
f 22 360 21
f 360 22 369
f 361 367 357
f 367 361 368
f 371 373 372
f 373 371 374
f 373 376 375
f 376 373 374
f 375 364 377
f 364 375 376
f 378 374 379
f 374 378 376
f 374 380 379
f 381 383 382
f 380 384 383
f 384 380 385
f 386 28 29
f 384 28 386
f 28 384 387
f 385 387 384
f 387 385 388
f 363 376 378
f 376 363 364
f 365 380 371
f 380 365 366
f 381 30 27
f 30 381 382
f 366 385 380
f 385 366 367
f 368 387 388
f 387 368 369
f 383 386 382
f 386 383 384
f 382 29 30
f 29 382 386
f 374 371 380
f 365 372 370
f 372 365 371
f 22 387 369
f 387 22 28
f 388 367 368
f 367 388 385
f 389 282 283
f 282 389 390
f 391 235 231
f 235 391 392
f 393 209 394
f 209 393 215
f 168 175 167
f 175 168 174
f 303 174 168
f 174 303 306
f 148 157 154
f 305 157 155
f 157 305 306
f 395 296 301
f 296 395 392
f 396 398 397
f 398 396 399
f 400 396 401
f 396 400 399
f 402 404 403
f 404 402 405
f 406 408 407
f 408 406 409
f 408 411 410
f 411 408 409
f 410 413 412
f 413 410 411
f 405 407 404
f 407 405 406
f 399 343 398
f 343 399 348
f 400 348 399
f 348 400 347
f 413 350 414
f 350 413 377
f 344 405 402
f 405 344 370
f 372 409 406
f 409 372 373
f 409 375 411
f 375 409 373
f 411 377 413
f 377 411 375
f 370 406 405
f 406 370 372
f 415 417 416
f 417 415 418
f 419 421 420
f 421 419 422
f 423 419 420
f 419 423 424
f 425 427 426
f 427 425 428
f 429 431 430
f 431 429 432
f 433 435 434
f 435 433 436
f 437 424 423
f 424 437 438
f 428 430 427
f 430 428 429
f 439 418 415
f 418 439 440
f 441 422 419
f 422 441 442
f 443 419 424
f 419 443 441
f 444 428 425
f 428 444 445
f 429 446 432
f 446 429 447
f 446 435 436
f 438 443 424
f 443 438 448
f 445 429 428
f 429 445 447
f 390 449 282
f 390 450 449
f 450 390 286
f 287 450 286
f 450 287 451
f 451 453 452
f 451 288 453
f 287 288 451
f 293 453 288
f 452 454 290
f 454 452 455
f 290 456 293
f 456 290 454
f 293 457 453
f 457 293 456
f 457 452 453
f 452 457 455
f 455 458 454
f 458 455 459
f 454 460 456
f 454 461 460
f 454 458 461
f 456 462 457
f 462 456 460
f 457 459 455
f 457 463 459
f 457 462 463
f 460 464 462
f 464 460 465
f 463 464 466
f 464 463 462
f 172 178 403
f 394 202 410
f 401 203 467
f 167 407 171
f 188 407 408
f 407 188 171
f 202 408 410
f 408 202 188
f 192 401 396
f 401 192 203
f 401 469 468
f 469 401 467
f 192 397 191
f 397 192 396
f 403 175 172
f 175 403 404
f 410 393 394
f 393 410 412
f 404 167 175
f 167 404 407
f 240 426 237
f 420 273 470
f 430 229 230
f 266 437 283
f 427 230 236
f 230 427 430
f 433 251 431
f 251 433 250
f 240 417 426
f 417 240 255
f 266 434 437
f 434 266 267
f 416 272 421
f 272 416 256
f 470 423 420
f 423 470 389
f 389 437 423
f 437 389 283
f 236 426 427
f 426 236 237
f 351 354 355
f 354 351 352
f 352 27 354
f 27 352 362
f 381 379 383
f 379 381 378
f 27 378 381
f 378 27 363
f 353 351 355
f 379 380 383
f 79 82 83
f 82 79 80
f 80 38 82
f 38 80 90
f 106 104 108
f 104 106 103
f 38 103 106
f 103 38 90
f 81 79 83
f 104 105 108
f 471 71 472
f 71 471 74
f 77 474 473
f 474 77 73
f 473 76 77
f 76 473 475
f 476 72 96
f 72 476 477
f 478 98 99
f 98 478 479
f 475 101 76
f 101 475 480
f 479 96 98
f 96 479 476
f 439 472 440
f 472 439 471
f 473 442 441
f 442 473 474
f 441 475 473
f 475 441 443
f 445 477 476
f 477 445 444
f 446 479 478
f 479 446 447
f 443 480 475
f 480 443 448
f 447 476 479
f 476 447 445
f 182 185 181
f 185 182 184
f 181 198 195
f 198 181 185
f 196 208 206
f 208 196 199
f 208 224 206
f 224 208 227
f 481 248 244
f 248 481 482
f 245 264 261
f 264 245 249
f 260 280 277
f 280 260 265
f 482 484 483
f 484 482 298
f 309 184 182
f 184 309 310
f 339 329 152
f 339 325 329
f 339 319 325
f 319 165 166
f 339 165 319
f 141 339 152
f 339 141 146
f 311 166 163
f 166 311 310
f 144 312 322
f 312 144 145
f 142 146 141
f 146 142 145
f 129 312 313
f 164 339 340
f 339 164 165
f 150 156 149
f 156 150 158
f 161 150 151
f 150 161 158
f 149 157 148
f 157 149 156
f 254 240 241
f 240 254 255
f 259 241 242
f 241 259 254
f 261 242 245
f 242 261 259
f 263 249 246
f 249 263 264
f 426 418 425
f 418 426 417
f 418 444 425
f 444 418 440
f 416 255 256
f 255 416 417
f 472 72 477
f 72 472 71
f 440 477 444
f 477 440 472
f 261 265 260
f 265 261 264
f 70 71 74
f 231 485 391
f 485 231 232
f 395 235 392
f 235 395 234
f 486 239 487
f 239 486 238
f 488 238 486
f 238 488 243
f 481 243 488
f 243 481 244
f 247 482 483
f 482 247 248
f 231 236 230
f 236 231 235
f 244 249 245
f 249 244 248
f 202 210 201
f 394 210 202
f 209 210 394
f 214 393 469
f 393 214 215
f 204 219 203
f 219 204 218
f 222 204 205
f 204 222 218
f 224 205 206
f 205 224 222
f 226 208 207
f 208 226 227
f 209 216 212
f 216 209 215
f 223 227 228
f 227 223 224
f 294 391 485
f 391 294 295
f 295 392 391
f 392 295 296
f 481 298 482
f 298 481 297
f 488 297 481
f 297 488 299
f 300 488 486
f 488 300 299
f 301 487 395
f 487 301 302
f 301 216 213
f 216 301 296
f 225 298 228
f 298 225 484
f 214 220 213
f 220 214 219
f 300 220 217
f 220 300 302
f 395 239 234
f 239 395 487
f 486 302 300
f 302 486 487
f 203 219 467
f 239 237 234
f 467 219 214
f 239 240 237
f 270 285 273
f 285 270 284
f 289 270 274
f 270 289 284
f 273 285 470
f 285 389 470
f 389 286 390
f 286 389 285
f 289 276 489
f 276 289 274
f 288 489 293
f 489 288 289
f 293 489 292
f 292 276 281
f 276 292 489
f 250 268 253
f 268 250 267
f 271 256 257
f 256 271 272
f 275 257 258
f 257 275 271
f 277 258 260
f 258 277 275
f 279 265 262
f 265 279 280
f 416 422 415
f 422 416 421
f 434 438 437
f 438 434 435
f 415 442 439
f 442 415 422
f 435 448 438
f 448 435 446
f 433 267 250
f 267 433 434
f 420 272 273
f 272 420 421
f 471 73 74
f 73 471 474
f 478 101 480
f 101 478 99
f 439 474 471
f 474 439 442
f 446 480 448
f 480 446 478
f 277 281 276
f 281 277 280
f 78 73 77
f 73 78 70
f 251 233 229
f 233 251 252
f 431 436 433
f 436 431 432
f 430 251 229
f 251 430 431
f 432 446 436
f 364 350 377
f 350 364 349
f 346 362 352
f 362 346 349
f 27 362 363
f 414 347 400
f 347 414 350
f 414 401 468
f 401 414 400
f 468 393 412
f 393 468 469
f 214 469 467
f 414 412 413
f 412 414 468
f 397 402 403
f 402 397 398
f 398 344 402
f 344 398 343
f 190 178 176
f 178 190 191
f 179 190 176
f 190 179 193
f 181 193 179
f 193 181 195
f 186 198 185
f 198 186 197
f 195 199 196
f 199 195 198
f 191 403 178
f 403 191 397
f 342 348 345
f 348 342 343
f 16 336 337
f 336 16 17
f 20 337 161
f 337 20 16
f 329 151 152
f 151 329 161
f 84 38 35
f 38 84 82
f 11 12 111
f 39 106 107
f 106 39 38
f 490 464 465
f 464 490 466
f 461 465 460
f 465 461 490
f 491 493 492
f 493 491 494
f 494 496 495
f 497 499 498
f 499 497 500
f 494 501 498
f 501 494 502
f 494 503 502
f 504 506 505
f 503 507 506
f 507 503 508
f 507 66 509
f 66 507 510
f 508 510 507
f 510 508 511
f 498 512 497
f 512 498 501
f 513 503 491
f 503 513 514
f 514 508 503
f 508 514 515
f 516 510 511
f 510 516 517
f 66 63 509
f 505 63 64
f 63 505 509
f 506 509 505
f 509 506 507
f 494 491 503
f 513 492 518
f 492 513 491
f 41 510 517
f 510 41 66
f 511 515 516
f 515 511 508
f 519 521 520
f 521 519 522
f 521 523 520
f 523 521 524
f 524 497 523
f 497 524 500
f 525 520 523
f 520 525 526
f 520 526 527
f 528 530 529
f 527 532 531
f 532 527 529
f 532 40 533
f 40 532 534
f 531 533 535
f 533 531 532
f 512 523 497
f 523 512 525
f 513 527 514
f 527 513 519
f 514 531 515
f 531 514 527
f 516 533 517
f 533 516 535
f 530 43 534
f 43 530 68
f 529 534 532
f 534 529 530
f 520 527 519
f 513 522 519
f 522 513 518
f 41 533 40
f 533 41 517
f 535 515 531
f 515 535 516
f 114 537 536
f 537 114 115
f 538 536 537
f 536 538 539
f 540 539 538
f 539 540 10
f 541 10 540
f 10 541 8
f 8 541 542
f 123 8 542
f 8 123 1
f 543 115 125
f 115 543 537
f 544 537 543
f 537 544 538
f 545 538 544
f 538 545 540
f 546 540 545
f 540 546 541
f 547 541 546
f 541 547 542
f 130 542 547
f 542 130 123
f 131 549 548
f 549 131 132
f 548 551 550
f 551 548 549
f 550 553 552
f 553 550 551
f 552 555 554
f 555 552 553
f 554 557 556
f 557 554 555
f 143 559 558
f 559 143 144
f 132 560 549
f 560 132 147
f 561 549 560
f 549 561 551
f 551 562 553
f 562 551 561
f 553 563 555
f 563 553 562
f 555 564 557
f 564 555 563
f 147 565 560
f 565 147 153
f 566 568 567
f 569 566 570
f 566 569 568
f 569 572 571
f 570 572 569
f 573 572 570
f 163 575 574
f 575 163 164
f 169 577 576
f 170 577 169
f 578 577 170
f 579 581 580
f 581 579 582
f 583 582 579
f 584 582 583
f 584 585 582
f 585 587 586
f 587 585 584
f 586 589 588
f 589 586 587
f 183 590 186
f 590 183 591
f 170 592 578
f 592 170 187
f 593 595 594
f 595 593 596
f 597 593 598
f 593 597 596
f 599 598 600
f 598 599 597
f 197 601 200
f 601 197 602
f 187 603 592
f 603 187 201
f 594 604 593
f 604 594 605
f 593 606 598
f 606 593 604
f 598 607 600
f 607 598 606
f 207 601 608
f 601 207 200
f 609 211 610
f 211 609 210
f 611 613 612
f 613 611 614
f 615 617 616
f 617 615 618
f 619 618 615
f 618 619 620
f 621 620 619
f 620 621 622
f 225 624 623
f 624 225 226
f 625 232 233
f 625 626 232
f 625 627 626
f 628 630 629
f 630 628 631
f 632 634 633
f 634 632 635
f 636 632 633
f 632 636 637
f 638 636 639
f 636 638 637
f 246 641 640
f 641 246 247
f 642 252 253
f 252 642 643
f 644 646 645
f 646 644 647
f 648 644 645
f 644 648 649
f 650 649 648
f 649 650 651
f 262 653 652
f 653 262 263
f 654 268 269
f 268 654 655
f 656 658 657
f 658 656 659
f 660 659 656
f 659 660 661
f 662 661 660
f 661 662 663
f 278 665 664
f 665 278 279
f 282 654 269
f 654 282 666
f 667 669 668
f 669 667 670
f 671 667 668
f 667 671 672
f 290 674 673
f 674 290 291
f 211 675 610
f 675 211 294
f 610 676 612
f 676 610 675
f 677 623 621
f 623 677 678
f 679 621 619
f 621 679 677
f 615 679 619
f 679 615 680
f 611 681 616
f 681 611 682
f 169 683 304
f 683 169 576
f 684 581 582
f 581 684 685
f 582 686 684
f 686 582 585
f 585 687 686
f 687 585 586
f 586 688 687
f 688 586 588
f 689 183 311
f 183 689 591
f 559 690 556
f 690 559 691
f 556 692 554
f 692 556 690
f 552 692 693
f 692 552 554
f 550 693 694
f 693 550 552
f 548 694 695
f 694 548 550
f 131 695 318
f 695 131 548
f 689 696 688
f 696 689 574
f 697 688 696
f 573 688 697
f 687 688 573
f 687 570 686
f 570 687 573
f 684 570 566
f 570 684 686
f 685 565 683
f 565 685 567
f 304 565 153
f 565 304 683
f 10 321 539
f 321 10 7
f 322 547 691
f 547 322 130
f 690 546 692
f 546 690 547
f 546 693 692
f 693 546 545
f 545 694 693
f 694 545 544
f 544 695 694
f 695 544 543
f 543 318 695
f 318 543 125
f 697 698 573
f 698 697 699
f 696 701 700
f 701 696 702
f 573 703 572
f 703 573 698
f 702 704 701
f 704 702 705
f 706 708 707
f 708 706 709
f 709 699 700
f 699 709 710
f 701 709 700
f 709 701 708
f 703 712 711
f 698 712 703
f 712 698 713
f 704 708 701
f 696 699 697
f 699 696 700
f 712 706 707
f 706 712 713
f 706 713 710
f 572 711 571
f 711 572 703
f 49 705 571
f 705 49 60
f 707 62 45
f 62 707 708
f 704 60 61
f 60 704 705
f 708 61 62
f 61 708 704
f 707 46 712
f 46 707 45
f 709 706 710
f 713 699 710
f 699 713 698
f 558 340 143
f 340 558 714
f 114 536 341
f 536 321 341
f 321 536 539
f 715 717 716
f 718 720 719
f 720 718 721
f 722 720 721
f 720 722 723
f 718 724 721
f 724 718 725
f 718 726 725
f 727 729 728
f 726 730 729
f 730 726 731
f 732 50 51
f 730 50 732
f 50 730 733
f 731 733 730
f 733 731 734
f 722 736 735
f 736 722 737
f 738 726 715
f 726 738 739
f 727 54 56
f 54 727 728
f 739 731 726
f 731 739 740
f 741 733 734
f 733 741 742
f 729 732 728
f 732 729 730
f 728 51 54
f 51 728 732
f 718 715 726
f 738 716 743
f 716 738 715
f 53 733 742
f 733 53 50
f 734 740 741
f 740 734 731
f 744 746 745
f 746 744 747
f 746 748 745
f 748 746 749
f 749 735 748
f 735 749 750
f 751 745 748
f 745 751 752
f 745 752 753
f 754 756 755
f 753 758 757
f 758 753 755
f 759 58 57
f 758 57 760
f 57 758 759
f 757 760 761
f 760 757 758
f 736 748 735
f 748 736 751
f 738 753 739
f 753 738 744
f 754 59 756
f 59 754 56
f 739 757 740
f 757 739 753
f 741 760 742
f 760 741 761
f 755 759 758
f 759 755 756
f 756 58 759
f 58 756 59
f 745 753 744
f 738 747 744
f 747 738 743
f 53 760 57
f 760 53 742
f 761 740 757
f 740 761 741
f 762 282 763
f 282 762 666
f 764 631 765
f 631 764 626
f 766 609 613
f 609 766 767
f 576 580 581
f 580 576 577
f 683 581 685
f 581 683 576
f 560 565 567
f 684 567 685
f 567 684 566
f 768 676 765
f 676 768 682
f 769 771 770
f 771 769 772
f 773 769 770
f 769 773 774
f 775 777 776
f 777 775 778
f 779 781 780
f 781 779 782
f 781 783 780
f 783 781 784
f 784 785 783
f 785 784 786
f 776 782 779
f 782 776 777
f 770 717 719
f 717 770 771
f 773 719 720
f 719 773 770
f 785 723 750
f 723 785 787
f 716 776 743
f 776 716 775
f 747 780 746
f 780 747 779
f 780 749 746
f 749 780 783
f 783 750 749
f 750 783 785
f 743 779 747
f 779 743 776
f 788 790 789
f 790 788 791
f 792 794 793
f 794 792 795
f 796 792 797
f 792 796 795
f 798 800 799
f 800 798 801
f 802 804 803
f 804 802 805
f 806 808 807
f 808 806 809
f 810 797 811
f 797 810 796
f 799 805 802
f 805 799 800
f 812 789 813
f 789 812 788
f 814 793 815
f 793 814 792
f 816 792 814
f 792 816 797
f 817 799 818
f 799 817 798
f 802 820 819
f 820 802 803
f 820 807 808
f 811 816 821
f 816 811 797
f 818 802 819
f 802 818 799
f 763 282 449
f 763 450 669
f 450 763 449
f 668 450 451
f 450 668 669
f 822 451 452
f 671 451 822
f 668 451 671
f 673 671 822
f 452 824 823
f 824 452 290
f 290 825 824
f 825 290 673
f 673 826 825
f 826 673 822
f 826 452 823
f 452 826 822
f 823 458 459
f 458 823 824
f 824 461 458
f 824 827 461
f 824 825 827
f 825 828 827
f 828 825 826
f 826 463 828
f 826 459 463
f 826 823 459
f 827 830 829
f 830 827 828
f 463 830 828
f 830 463 466
f 579 778 583
f 767 784 603
f 774 831 605
f 577 578 782
f 592 782 578
f 782 592 781
f 603 781 592
f 781 603 784
f 594 774 605
f 774 594 769
f 774 832 831
f 832 774 833
f 594 772 769
f 772 594 595
f 778 580 777
f 580 778 579
f 784 766 786
f 766 784 767
f 777 577 782
f 577 777 580
f 634 629 801
f 795 834 657
f 805 627 625
f 654 666 810
f 800 627 805
f 627 800 630
f 806 643 642
f 643 806 804
f 634 790 647
f 790 634 801
f 654 809 655
f 809 654 810
f 791 658 646
f 658 791 794
f 834 796 762
f 796 834 795
f 762 810 666
f 810 762 796
f 630 801 629
f 801 630 800
f 725 727 724
f 727 725 729
f 724 56 737
f 56 724 727
f 754 752 751
f 752 754 755
f 56 751 736
f 751 56 754
f 726 729 725
f 752 755 753
f 502 504 501
f 504 502 506
f 501 67 512
f 67 501 504
f 528 526 525
f 526 528 529
f 67 525 512
f 525 67 528
f 503 506 502
f 526 529 527
f 835 493 495
f 493 835 836
f 499 837 496
f 837 499 838
f 838 500 839
f 500 838 499
f 840 492 841
f 492 840 518
f 842 522 843
f 522 842 521
f 839 524 844
f 524 839 500
f 843 518 840
f 518 843 522
f 812 836 835
f 836 812 813
f 838 815 837
f 815 838 814
f 814 839 816
f 839 814 838
f 818 841 817
f 841 818 840
f 820 843 819
f 843 820 842
f 816 844 821
f 844 816 839
f 819 840 818
f 840 819 843
f 588 590 591
f 590 588 589
f 589 602 590
f 602 589 599
f 600 608 601
f 608 600 607
f 608 622 624
f 622 608 607
f 845 641 846
f 641 845 638
f 639 653 640
f 653 639 651
f 650 665 652
f 665 650 663
f 846 484 678
f 484 846 483
f 688 591 689
f 591 688 588
f 575 696 574
f 714 696 575
f 714 702 696
f 714 705 702
f 714 564 705
f 557 714 558
f 714 557 564
f 311 574 689
f 574 311 163
f 144 691 559
f 691 144 322
f 556 558 559
f 558 556 557
f 547 690 691
f 164 714 575
f 714 164 340
f 562 568 569
f 568 562 561
f 571 562 569
f 562 571 563
f 561 567 568
f 567 561 560
f 644 634 647
f 634 644 633
f 649 633 644
f 633 649 636
f 651 636 649
f 636 651 639
f 263 640 653
f 640 263 246
f 801 789 790
f 789 801 798
f 789 817 813
f 817 789 798
f 791 647 790
f 647 791 646
f 836 492 493
f 492 836 841
f 813 841 836
f 841 813 817
f 651 652 653
f 652 651 650
f 494 495 493
f 626 485 232
f 485 626 764
f 768 631 628
f 631 768 765
f 847 635 632
f 635 847 848
f 849 632 637
f 632 849 847
f 845 637 638
f 637 845 849
f 247 846 641
f 846 247 483
f 626 630 631
f 630 626 627
f 638 640 641
f 640 638 639
f 210 603 201
f 210 767 603
f 609 767 210
f 614 766 613
f 766 614 832
f 604 617 618
f 617 604 605
f 620 604 618
f 604 620 606
f 622 606 620
f 606 622 607
f 226 608 624
f 608 226 207
f 609 612 613
f 612 609 610
f 621 624 622
f 624 621 623
f 294 764 675
f 764 294 485
f 675 765 676
f 765 675 764
f 845 678 677
f 678 845 846
f 849 677 679
f 677 849 845
f 680 849 679
f 849 680 847
f 682 848 681
f 848 682 768
f 682 612 676
f 612 682 611
f 225 678 484
f 678 225 623
f 614 616 617
f 616 614 611
f 680 616 681
f 616 680 615
f 768 635 848
f 635 768 628
f 847 681 848
f 681 847 680
f 605 831 617
f 635 628 629
f 831 614 617
f 635 629 634
f 656 670 667
f 670 656 657
f 672 656 667
f 656 672 660
f 657 834 670
f 670 834 762
f 762 669 670
f 669 762 763
f 672 662 660
f 662 672 850
f 671 850 672
f 850 671 673
f 673 674 850
f 674 662 850
f 662 674 664
f 642 268 655
f 268 642 253
f 659 646 658
f 646 659 645
f 661 645 659
f 645 661 648
f 663 648 661
f 648 663 650
f 279 652 665
f 652 279 262
f 791 793 794
f 793 791 788
f 809 811 808
f 811 809 810
f 788 815 793
f 815 788 812
f 808 821 820
f 821 808 811
f 806 655 809
f 655 806 642
f 795 658 794
f 658 795 657
f 835 496 837
f 496 835 495
f 842 524 521
f 524 842 844
f 812 837 815
f 837 812 835
f 820 844 842
f 844 820 821
f 663 664 665
f 664 663 662
f 498 496 494
f 496 498 499
f 643 233 252
f 233 643 625
f 804 807 803
f 807 804 806
f 805 643 804
f 643 805 625
f 803 807 820
f 735 723 722
f 723 735 750
f 721 737 722
f 737 721 724
f 56 736 737
f 787 720 723
f 720 787 773
f 787 774 773
f 774 787 833
f 833 766 832
f 766 833 786
f 614 831 832
f 787 786 833
f 786 787 785
f 772 775 771
f 775 772 778
f 771 716 717
f 716 771 775
f 596 583 595
f 583 596 584
f 587 596 597
f 596 587 584
f 589 597 599
f 597 589 587
f 186 602 197
f 602 186 590
f 599 601 602
f 601 599 600
f 595 778 772
f 778 595 583
f 715 719 717
f 719 715 718
f 47 712 46
f 712 47 711
f 49 711 47
f 711 49 571
f 705 563 571
f 563 705 564
f 505 67 504
f 67 505 64
f 40 534 43
f 68 528 67
f 528 68 530
f 490 830 466
f 830 490 829
f 461 829 490
f 829 461 827