# https://github.com/mikedh/trimesh
v 0.22732368 -0.13401262 0.24053636
v -0.23187977 0.12516495 0.23700723
v -0.23187977 -0.13401262 0.24053636
v 0.22732368 0.12516495 0.23700723
v 0.21613519 -0.35599858 0.24791126
v 0.21613519 -0.36057504 0.24606894
v 0.21613520 -0.36225633 0.24143082
v 0.21613519 -0.36066069 0.19188139
v 0.14578236 -0.36225636 0.24143082
v 0.14578236 -0.36066071 0.19188139
v 0.14578236 -0.36057507 0.24606894
v 0.14578236 -0.35599861 0.24791126
v 0.21613514 -0.24023576 0.24788086
v 0.14296824 -0.36066069 0.19188139
v 0.07261541 -0.36225638 0.24143082
v 0.07261541 -0.36066072 0.19188139
v 0.07261541 -0.36057510 0.24606894
v 0.14296824 -0.35599858 0.24791126
v 0.07261540 -0.35599863 0.24791126
v 0.14296824 -0.36057505 0.24606894
v 0.07261536 -0.24023579 0.24788086
v 0.14296819 -0.24023576 0.24788086
v 0.06980129 -0.36066069 0.19188139
v -0.00055154 -0.36225637 0.24143082
v -0.00055154 -0.36066072 0.19188139
v -0.00055154 -0.36057508 0.24606894
v 0.06980129 -0.35599858 0.24791126
v -0.00055154 -0.35599861 0.24791126
v 0.06980129 -0.36057506 0.24606894
v -0.00055158 -0.24023584 0.24788086
v 0.06980124 -0.24023576 0.24788086
v -0.00336565 -0.36066077 0.19188139
v -0.07371847 -0.36225644 0.24143082
v -0.07371848 -0.36066073 0.19188139
v -0.07371848 -0.35599869 0.24791126
v -0.00336565 -0.36057513 0.24606894
v -0.00336565 -0.35599866 0.24791126
v -0.07371848 -0.36057509 0.24606894
v -0.00336569 -0.24023584 0.24788086
v -0.07653262 -0.36066070 0.19188139
v -0.14688545 -0.36225647 0.24143082
v -0.14688545 -0.36066083 0.19188139
v -0.14688545 -0.36057518 0.24606894
v -0.07653263 -0.35599860 0.24791126
v -0.14688545 -0.35599862 0.24791126
v -0.07653262 -0.36057506 0.24606894
v -0.07653267 -0.24023587 0.24788086
v -0.14969955 -0.36066070 0.19188139
v -0.22005240 -0.36225638 0.24143082
v -0.22005240 -0.36066073 0.19188139
v -0.22005240 -0.36057510 0.24606894
v -0.14969955 -0.35599860 0.24791126
v -0.22005240 -0.35599863 0.24791126
v -0.14969955 -0.36057507 0.24606894
v -0.22005245 -0.24023580 0.24788086
v -0.14969959 -0.24023578 0.24788086
v 0.14296824 -0.36225636 0.24143082
v 0.06980129 -0.36225639 0.24143082
v -0.00336565 -0.36225641 0.24143082
v -0.07653262 -0.36225644 0.24143082
v -0.14969955 -0.36225635 0.24143082
v 0.21613515 -0.24161376 0.19162106
v 0.14578231 -0.24023579 0.24788086
v 0.14578231 -0.24161379 0.19162106
v -0.07371852 -0.24023580 0.24788086
v -0.14688550 -0.24023580 0.24788086
v 0.14296819 -0.24161376 0.19162106
v 0.07261536 -0.24161379 0.19162106
v 0.06980124 -0.24161377 0.19162106
v -0.00055158 -0.24161379 0.19162106
v -0.00336571 -0.24161377 0.19162106
v -0.07371852 -0.24161380 0.19162106
v -0.07653267 -0.24161378 0.19162106
v -0.14688550 -0.24161380 0.19162106
v -0.14969959 -0.24161378 0.19162106
v -0.22005245 -0.24161381 0.19162106
v 0.23222788 -0.13948801 0.24970686
v 0.22115694 -0.23481377 0.25201472
v 0.26026121 -0.36014151 0.25504892
v -0.23651152 0.13072321 0.24316503
v 0.26032403 0.49475406 0.23435182
v -0.26488000 0.49475406 0.23435182
v -0.23423553 0.12737789 0.19167827
v 0.23195555 0.13072321 0.24316503
v 0.29858045 0.50776204 0.20593500
v 0.26032424 -0.37026577 0.20593128
v 0.29858066 -0.40002065 0.20593129
v 0.30765917 0.53071549 0.15579183
v 0.26032403 0.50776204 0.20593500
v -0.30313663 -0.40002065 0.20593129
v -0.22274069 -0.37026577 0.20593128
v -0.26488021 -0.37026577 0.20593128
v 0.30764769 -0.40162759 0.10834895
v 0.30765917 0.51063624 0.04623134
v 0.22115691 -0.36014151 0.25504892
v 0.21818472 -0.37026577 0.20593128
v 0.29417692 -0.33887239 0.10406806
v 0.29417692 0.51063924 0.04622475
v -0.26488000 0.50776204 0.20593500
v -0.31221514 0.53071549 0.15579183
v -0.31220366 -0.40162759 0.10834895
v 0.30764769 -0.40939409 0.15585644
v -0.23678385 -0.13948801 0.24970686
v 0.22993890 -0.13439765 0.19167831
v -0.23449487 -0.13439765 0.19167831
v 0.22967956 0.12737789 0.19167827
v -0.31220366 -0.40939409 0.15585644
v 0.28917602 0.50352228 0.00826958
v -0.29372141 -0.30694221 0.00826971
v -0.29373199 0.50352228 0.00826958
v 0.28916544 -0.30694221 0.00826971
v -0.29873289 -0.33887239 0.10406806
v 0.22115694 -0.23481377 0.20593126
v -0.22571290 -0.23481377 0.20593126
v -0.22571290 -0.23481377 0.25201472
v -0.26481718 -0.36014151 0.25504892
v -0.30313642 0.50776204 0.20593500
v -0.22571288 -0.36014151 0.25504892
v -0.31221514 0.51063624 0.04623134
v -0.29873289 0.51063924 0.04622475
v 0.28122791 0.52058122 0.14705652
v 0.29071961 0.53106702 0.13222473
v 0.29071961 0.53106702 0.15098811
v -0.17213108 0.25861361 0.23853135
v -0.16680726 0.25404997 0.25629346
v -0.16513958 0.25571765 0.23853135
v -0.16224362 0.24872616 0.23853135
v -0.16460205 0.24872616 0.25629346
v -0.16513958 0.24173467 0.23853135
v -0.16680726 0.24340233 0.25629346
v -0.17213108 0.23883871 0.23853135
v -0.17745490 0.24340233 0.25629346
v -0.17912258 0.24173467 0.23853135
v -0.17966011 0.24872616 0.25629346
v -0.18201854 0.24872616 0.23853135
v -0.17745490 0.25404997 0.25629346
v -0.17912258 0.25571765 0.23853135
v -0.17213108 0.25625519 0.25629346
v -0.17213108 0.24872616 0.25629346
v -0.17213108 0.24119714 0.25629346
v -0.16684100 0.52593312 0.05117320
v -0.16466554 0.50472265 0.04358648
v -0.16935819 0.50678955 0.05472541
v -0.15333647 0.52346930 0.03789532
v -0.14200740 0.50472265 0.04358648
v -0.15333647 0.50386647 0.03897259
v -0.15333647 0.50971263 0.07047824
v -0.16288561 0.52767529 0.06056207
v -0.16466554 0.50885645 0.06586435
v -0.14378732 0.52767529 0.06056207
v -0.14200740 0.50885645 0.06586435
v -0.13731475 0.50678955 0.05472541
v -0.16288561 0.52419094 0.04178432
v -0.14378732 0.52419094 0.04178432
v -0.15333647 0.52593312 0.05117320
v -0.15333647 0.52839693 0.06445107
v -0.13983194 0.52593312 0.05117320
v 0.26262012 0.52058122 0.12844874
v 0.24542081 0.53106702 0.13222473
v 0.25868854 0.53106702 0.11895701
v 0.27444078 0.56551590 0.12622649
v 0.26169962 0.56551590 0.12622648
v 0.27352032 0.52058123 0.15476410
v 0.27745191 0.53106702 0.16425584
v 0.26262015 0.52058123 0.15476410
v 0.25491254 0.52058122 0.14705652
v 0.25868854 0.53106702 0.16425584
v 0.24542081 0.53106702 0.15098813
v 0.27352032 0.52058122 0.12844874
v 0.27745191 0.53106702 0.11895703
v 0.28122791 0.52058122 0.13615633
v 0.28345010 0.56551590 0.14797699
v 0.27444078 0.56551590 0.15698634
v 0.28345010 0.56551590 0.13523584
v 0.25269026 0.56551590 0.14797699
v 0.26169962 0.56551590 0.15698634
v 0.26807020 0.56541261 0.14160641
v 0.25269026 0.56551590 0.13523584
v 0.10903847 0.02229587 0.18871877
v 0.11859303 0.01319760 0.22833368
v 0.12222800 0.01683259 0.18871877
v 0.12769127 0.00364306 0.18871878
v 0.12255063 0.00364307 0.22833368
v 0.11859303 -0.00591146 0.22833368
v 0.12222800 -0.00954646 0.18871878
v 0.10903847 -0.00986909 0.22833368
v 0.10903847 -0.01500974 0.18871878
v 0.09584894 -0.00954647 0.18871878
v 0.09948394 -0.00591147 0.22833368
v 0.09552632 0.00364307 0.22833368
v 0.09038567 0.00364306 0.18871878
v 0.09948394 0.01319761 0.22833368
v 0.09584894 0.01683259 0.18871877
v 0.10903847 0.01715522 0.22833368
v 0.10903847 0.00364307 0.22833368
v -0.12678397 0.01683259 0.18871877
v -0.11359444 0.01715522 0.22833368
v -0.11359444 0.02229587 0.18871877
v -0.13224724 0.00364306 0.18871878
v -0.12314900 0.01319760 0.22833368
v -0.12314900 -0.00591146 0.22833368
v -0.12678397 -0.00954646 0.18871878
v -0.11359444 -0.00986909 0.22833368
v -0.11359444 -0.01500974 0.18871878
v -0.10403991 -0.00591147 0.22833368
v -0.10040491 -0.00954647 0.18871878
v -0.10008228 0.00364307 0.22833368
v -0.09494164 0.00364306 0.18871878
v -0.10403991 0.01319761 0.22833368
v -0.10040491 0.01683259 0.18871877
v -0.12710660 0.00364307 0.22833368
v -0.11359444 0.00364307 0.22833368
v 0.26688049 -0.27204216 0.00244503
v 0.27981822 -0.26994137 0.00889824
v 0.27454340 -0.27521625 0.00244503
v 0.28517722 -0.28287912 0.00889825
v 0.27771746 -0.28287913 0.00244503
v 0.27981822 -0.29581685 0.00889825
v 0.27454340 -0.29054200 0.00244503
v 0.26688049 -0.29371609 0.00244503
v 0.25394276 -0.29581685 0.00889825
v 0.25921759 -0.29054200 0.00244503
v 0.25604350 -0.28287913 0.00244503
v 0.24858377 -0.28287910 0.00889825
v 0.25921759 -0.27521625 0.00244503
v 0.25394276 -0.26994137 0.00889824
v 0.26688049 -0.28287913 0.00000011
v -0.27143646 -0.27204216 0.00244503
v -0.28437419 -0.26994137 0.00889824
v -0.27143646 -0.26458240 0.00889824
v -0.27909936 -0.27521625 0.00244503
v -0.28973321 -0.28287912 0.00889825
v -0.28227345 -0.28287913 0.00244503
v -0.28437419 -0.29581685 0.00889825
v -0.27143646 -0.29371609 0.00244503
v -0.27909936 -0.29054200 0.00244503
v -0.25849871 -0.29581685 0.00889825
v -0.27143646 -0.30117582 0.00889825
v -0.26377354 -0.29054200 0.00244503
v -0.25313974 -0.28287910 0.00889825
v -0.26377354 -0.27521625 0.00244503
v -0.26059950 -0.28287913 0.00244503
v -0.25849871 -0.26994137 0.00889824
v -0.27143646 -0.28287913 0.00000011
v 0.26688049 0.42148950 0.00244492
v 0.27981822 0.42359024 0.00889813
v 0.27454340 0.41831542 0.00244492
v 0.27771746 0.41065251 0.00244492
v 0.27981822 0.39771479 0.00889814
v 0.27454340 0.40298961 0.00244492
v 0.26688049 0.39981553 0.00244492
v 0.26688049 0.39235579 0.00889814
v 0.25921759 0.40298961 0.00244492
v 0.25394276 0.39771479 0.00889814
v 0.25604350 0.41065251 0.00244492
v 0.25394276 0.42359024 0.00889813
v 0.25921759 0.41831542 0.00244492
v 0.26688049 0.41065251 0.00000000
v -0.27143646 0.42148950 0.00244492
v -0.28437419 0.42359024 0.00889813
v -0.27143646 0.42894927 0.00889813
v -0.28227345 0.41065251 0.00244492
v -0.27909936 0.41831542 0.00244492
v -0.28437419 0.39771479 0.00889814
v -0.28973321 0.41065251 0.00889813
v -0.27143646 0.39981553 0.00244492
v -0.27909936 0.40298961 0.00244492
v -0.26377354 0.40298961 0.00244492
v -0.27143646 0.39235579 0.00889814
v -0.25313974 0.41065251 0.00889813
v -0.25849871 0.39771479 0.00889814
v -0.26377354 0.41831542 0.00244492
v -0.26059950 0.41065251 0.00244492
v -0.25849871 0.42359024 0.00889813
v -0.27143646 0.41065251 0.00000000
v 0.25491254 0.52058122 0.13615633
v 0.26688049 -0.26458240 0.00889824
v 0.26688049 -0.30117582 0.00889825
v 0.26688049 0.42894927 0.00889813
v 0.28517722 0.41065251 0.00889813
v 0.24858377 0.41065251 0.00889813
f 1 2 3
f 1 4 2
f 5 6 7
f 8 9 10
f 11 5 12
f 9 6 11
f 10 9 12
f 13 12 5
f 14 15 16
f 17 18 19
f 15 20 17
f 21 18 22
f 23 24 25
f 26 27 28
f 24 29 26
f 30 27 31
f 32 33 34
f 35 36 37
f 33 36 38
f 39 35 37
f 40 41 42
f 43 44 45
f 41 46 43
f 47 45 44
f 48 49 50
f 51 52 53
f 49 54 51
f 55 52 56
f 18 20 57
f 16 15 19
f 27 29 58
f 25 24 28
f 37 36 59
f 34 33 35
f 44 46 60
f 42 41 45
f 52 54 61
f 50 49 53
f 7 8 5
f 8 62 5
f 62 13 5
f 8 7 9
f 11 6 5
f 9 7 6
f 9 11 12
f 12 63 64
f 64 10 12
f 13 63 12
f 14 57 15
f 17 20 18
f 15 57 20
f 21 19 18
f 23 58 24
f 26 29 27
f 24 58 29
f 30 28 27
f 32 59 33
f 35 38 36
f 33 59 36
f 39 65 35
f 40 60 41
f 43 46 44
f 41 60 46
f 47 66 45
f 48 61 49
f 51 54 52
f 49 61 54
f 55 53 52
f 57 14 18
f 14 67 18
f 67 22 18
f 15 17 19
f 19 21 68
f 68 16 19
f 58 23 27
f 23 69 27
f 69 31 27
f 24 26 28
f 28 30 70
f 70 25 28
f 59 32 37
f 32 71 37
f 71 39 37
f 33 38 35
f 35 65 72
f 72 34 35
f 60 40 44
f 40 73 44
f 73 47 44
f 41 43 45
f 45 66 74
f 74 42 45
f 61 48 52
f 48 75 52
f 75 56 52
f 49 51 53
f 53 55 76
f 76 50 53
f 77 78 79
f 80 81 82
f 83 84 80
f 85 86 87
f 88 89 85
f 90 91 92
f 88 93 94
f 86 95 96
f 94 97 98
f 99 88 100
f 101 97 93
f 102 85 87
f 86 81 79
f 103 104 105
f 104 106 83
f 104 84 106
f 101 102 107
f 82 81 89
f 86 96 87
f 88 94 98
f 108 109 110
f 90 102 87
f 110 98 108
f 98 111 108
f 109 97 112
f 96 113 114
f 95 113 96
f 114 78 115
f 79 78 95
f 84 79 81
f 105 104 83
f 115 77 103
f 103 116 115
f 92 117 90
f 100 117 99
f 91 87 96
f 100 101 107
f 92 118 116
f 112 119 120
f 117 107 90
f 82 92 116
f 80 105 83
f 99 82 89
f 100 120 119
f 120 109 112
f 118 114 115
f 121 122 123
f 116 118 115
f 80 116 103
f 91 96 114
f 124 125 126
f 125 127 126
f 128 129 127
f 130 131 129
f 131 132 133
f 133 134 135
f 135 136 137
f 136 124 137
f 125 138 139
f 138 136 139
f 136 134 139
f 134 132 139
f 132 140 139
f 140 130 139
f 130 128 139
f 128 125 139
f 141 142 143
f 144 145 146
f 147 148 149
f 150 147 151
f 152 150 151
f 153 146 142
f 154 152 145
f 149 141 143
f 144 153 155
f 156 150 155
f 141 148 155
f 155 157 154
f 154 144 155
f 148 156 155
f 150 157 155
f 153 141 155
f 158 159 160
f 161 160 162
f 163 123 164
f 164 165 163
f 166 167 168
f 169 160 170
f 171 170 122
f 159 166 168
f 172 164 123
f 173 167 164
f 159 162 160
f 174 123 122
f 175 159 168
f 161 122 170
f 176 168 167
f 161 162 177
f 177 176 173
f 173 172 177
f 172 174 177
f 175 176 177
f 174 161 177
f 162 178 177
f 178 175 177
f 179 180 181
f 182 180 183
f 182 184 185
f 185 186 187
f 188 186 189
f 188 190 191
f 191 192 193
f 193 194 179
f 180 195 183
f 183 195 184
f 184 195 186
f 186 195 189
f 189 195 190
f 190 195 192
f 192 195 194
f 194 195 180
f 120 88 98
f 196 197 198
f 199 200 196
f 201 199 202
f 203 202 204
f 205 204 206
f 207 206 208
f 209 208 210
f 197 210 198
f 200 211 212
f 211 201 212
f 201 203 212
f 203 205 212
f 205 207 212
f 207 209 212
f 209 197 212
f 197 200 212
f 213 214 215
f 215 216 217
f 217 218 219
f 218 220 219
f 220 221 222
f 221 223 222
f 224 225 223
f 226 213 225
f 217 227 215
f 220 227 219
f 227 213 215
f 227 223 225
f 228 229 230
f 231 232 229
f 233 234 232
f 235 234 236
f 235 237 238
f 239 240 237
f 241 240 242
f 228 243 241
f 233 244 236
f 244 235 236
f 228 244 231
f 244 242 239
f 245 246 247
f 246 248 247
f 248 249 250
f 249 251 250
f 252 253 251
f 254 255 253
f 255 256 257
f 256 245 257
f 248 258 247
f 251 258 250
f 258 245 247
f 258 255 257
f 259 260 261
f 262 260 263
f 262 264 265
f 266 264 267
f 268 269 266
f 268 270 271
f 272 270 273
f 259 274 272
f 262 275 267
f 275 266 267
f 259 275 263
f 275 273 268
f 80 84 81
f 83 106 84
f 85 89 86
f 88 102 93
f 86 79 95
f 94 93 97
f 99 89 88
f 101 112 97
f 102 88 85
f 86 89 81
f 103 77 104
f 104 77 84
f 101 93 102
f 108 111 109
f 90 107 102
f 110 120 98
f 98 97 111
f 109 111 97
f 95 78 113
f 114 113 78
f 84 77 79
f 115 78 77
f 92 99 117
f 91 90 87
f 100 119 101
f 92 91 118
f 112 101 119
f 117 100 107
f 82 99 92
f 80 103 105
f 120 110 109
f 118 91 114
f 121 171 122
f 80 82 116
f 124 138 125
f 125 128 127
f 128 130 129
f 130 140 131
f 131 140 132
f 133 132 134
f 135 134 136
f 136 138 124
f 141 153 142
f 144 154 145
f 147 156 148
f 150 156 147
f 152 157 150
f 153 144 146
f 154 157 152
f 149 148 141
f 158 276 159
f 161 170 160
f 163 121 123
f 164 167 165
f 166 165 167
f 169 158 160
f 171 169 170
f 159 276 166
f 172 173 164
f 173 176 167
f 159 178 162
f 174 172 123
f 175 178 159
f 161 174 122
f 176 175 168
f 179 194 180
f 182 181 180
f 182 183 184
f 185 184 186
f 188 187 186
f 188 189 190
f 191 190 192
f 193 192 194
f 120 100 88
f 196 200 197
f 199 211 200
f 201 211 199
f 203 201 202
f 205 203 204
f 207 205 206
f 209 207 208
f 197 209 210
f 213 277 214
f 215 214 216
f 217 216 218
f 218 278 220
f 220 278 221
f 221 224 223
f 224 226 225
f 226 277 213
f 217 219 227
f 220 222 227
f 227 225 213
f 227 222 223
f 228 231 229
f 231 233 232
f 233 236 234
f 235 238 234
f 235 239 237
f 239 242 240
f 241 243 240
f 228 230 243
f 233 231 244
f 244 239 235
f 228 241 244
f 244 241 242
f 245 279 246
f 246 280 248
f 248 280 249
f 249 252 251
f 252 254 253
f 254 281 255
f 255 281 256
f 256 279 245
f 248 250 258
f 251 253 258
f 258 257 245
f 258 253 255
f 259 263 260
f 262 265 260
f 262 267 264
f 266 269 264
f 268 271 269
f 268 273 270
f 272 274 270
f 259 261 274
f 262 263 275
f 275 268 266
f 259 272 275
f 275 272 273
f 1 3 2
f 1 2 4
f 84 80 103
f 103 77 84
f 80 84 106
f 106 83 80
f 96 95 79
f 79 86 96
f 79 81 89
f 89 86 79
f 105 104 77
f 77 103 105
f 105 83 106
f 106 104 105
f 106 84 77
f 77 104 106
f 110 109 111
f 111 108 110
f 108 111 97
f 97 98 108
f 112 97 111
f 111 109 112
f 96 113 78
f 78 95 96
f 115 78 113
f 113 114 115
f 116 118 91
f 91 92 116
f 116 92 99
f 99 82 116
f 83 105 103
f 103 80 83
f 112 109 110
f 110 120 112
f 115 114 91
f 91 118 115