# https://github.com/mikedh/trimesh
v -0.02092692 -0.00097069 0.00006102
v -0.01915224 -0.00097069 0.00736655
v -0.01552311 -0.00000000 0.00595276
v -0.01695437 0.00000000 0.00006102
v -0.01915224 -0.00097069 -0.00724447
v -0.02134894 -0.00223681 -0.00810028
v -0.02333151 -0.00223681 0.00006102
v -0.01413507 -0.00097069 -0.01328690
v -0.01574405 -0.00223681 -0.01485045
v -0.00674290 -0.00097069 -0.01702129
v -0.00748596 -0.00223681 -0.01902237
v 0.00174606 -0.00097069 -0.01780192
v 0.00199741 -0.00223681 -0.01989451
v 0.00986401 -0.00097069 -0.01549399
v 0.01106634 -0.00223681 -0.01731608
v 0.01620732 -0.00097069 -0.01049642
v 0.01815265 -0.00223681 -0.01173313
v 0.01967910 -0.00097069 -0.00367335
v 0.02203114 -0.00223681 -0.00411081
v 0.01967910 -0.00097069 0.00379544
v 0.02203114 -0.00223681 0.00423287
v 0.01620732 -0.00097069 0.01061847
v 0.01815265 -0.00223681 0.01185519
v 0.00986401 -0.00097069 0.01561607
v 0.01106634 -0.00223681 0.01743816
v 0.00174606 -0.00097069 0.01792399
v 0.00199741 -0.00223681 0.02001649
v -0.00674290 -0.00097069 0.01714337
v -0.00748596 -0.00223681 0.01914436
v -0.01413507 -0.00097069 0.01340896
v -0.01574405 -0.00223681 0.01497252
v -0.02134894 -0.00223681 0.00822233
v -0.02539413 -0.00990921 -0.00967625
v -0.02775950 -0.00990921 0.00006102
v -0.02664503 -0.00611610 0.00006102
v -0.02437596 -0.00611610 -0.00927953
v -0.02536007 -0.00408657 0.00006102
v -0.02320213 -0.00408657 -0.00882228
v -0.01710143 -0.00408657 -0.01616963
v -0.01796121 -0.00611613 -0.01700504
v -0.00811283 -0.00408657 -0.02071041
v -0.00850991 -0.00611610 -0.02177979
v 0.00220948 -0.00408657 -0.02165982
v 0.00234376 -0.00611610 -0.02277797
v 0.01208059 -0.00408657 -0.01885324
v 0.01272306 -0.00611610 -0.01982692
v 0.01979378 -0.00408657 -0.01277641
v 0.02083336 -0.00611612 -0.01343732
v 0.02401536 -0.00408657 -0.00447984
v 0.02527224 -0.00611612 -0.00471365
v 0.02401536 -0.00408657 0.00460190
v 0.02527224 -0.00611612 0.00483569
v 0.01979378 -0.00408657 0.01289846
v 0.02083336 -0.00611612 0.01355938
v 0.01208059 -0.00408657 0.01897539
v 0.01272306 -0.00611610 0.01994910
v 0.00220948 -0.00408657 0.02178177
v 0.00234376 -0.00611610 0.02289993
v -0.00811283 -0.00408657 0.02083246
v -0.00850991 -0.00611610 0.02190177
v -0.01710140 -0.00408657 0.01629159
v -0.01796119 -0.00611613 0.01712710
v -0.02320213 -0.00408657 0.00894434
v -0.02437596 -0.00611610 0.00940158
v -0.01689535 -0.00000875 0.00006102
v -0.01546921 -0.00000875 -0.00580971
v -0.01552311 0.00000000 -0.00583070
v -0.01687090 -0.00005838 0.00006102
v -0.01544689 -0.00005838 -0.00580101
v -0.01143742 -0.00000875 -0.01066537
v -0.01147689 0.00000000 -0.01070371
v -0.01142106 -0.00005838 -0.01064947
v -0.00549708 -0.00000875 -0.01366625
v -0.00551532 0.00000000 -0.01371538
v -0.00548951 -0.00005838 -0.01364598
v 0.00132466 -0.00000875 -0.01429364
v 0.00133085 0.00000000 -0.01434497
v 0.00132209 -0.00005838 -0.01427236
v 0.00784824 -0.00000875 -0.01243895
v 0.00787776 0.00000000 -0.01248371
v 0.00783603 -0.00005838 -0.01242042
v 0.01294572 -0.00000875 -0.00842291
v 0.01299344 0.00000000 -0.00845325
v 0.01292593 -0.00005838 -0.00841032
v 0.01573566 -0.00000875 -0.00293996
v 0.01579336 -0.00000000 -0.00295064
v 0.01571174 -0.00005838 -0.00293549
v 0.01573566 -0.00000875 0.00306201
v 0.01579336 -0.00000000 0.00307269
v 0.01571174 -0.00005838 0.00305754
v 0.01294572 -0.00000875 0.00854497
v 0.01299347 -0.00000000 0.00857530
v 0.01292593 -0.00005838 0.00853238
v 0.00784824 -0.00000875 0.01256103
v 0.00787776 -0.00000000 0.01260577
v 0.00783603 -0.00005838 0.01254248
v 0.00132466 -0.00000875 0.01441570
v 0.00133085 -0.00000000 0.01446703
v 0.00132212 -0.00005838 0.01439444
v -0.00549708 -0.00000875 0.01378831
v -0.00551532 -0.00000000 0.01383746
v -0.00548951 -0.00005838 0.01376806
v -0.01143742 -0.00000875 0.01078741
v -0.01147689 -0.00000000 0.01082579
v -0.01142106 -0.00005838 0.01077155
v -0.01546921 -0.00000875 0.00593177
v -0.01544689 -0.00005838 0.00592310
v -0.01680584 -0.00017631 0.00006102
v -0.01538744 -0.00017631 -0.00577782
v -0.01544689 -0.00011695 -0.00580101
v -0.01687090 -0.00011695 0.00006102
v -0.01137750 -0.00017631 -0.01060710
v -0.01142106 -0.00011695 -0.01064947
v -0.00546942 -0.00017631 -0.01359182
v -0.00548951 -0.00011695 -0.01364598
v 0.00131530 -0.00017631 -0.01421575
v 0.00132209 -0.00011695 -0.01427236
v 0.00780350 -0.00017631 -0.01237111
v 0.00783603 -0.00011695 -0.01242042
v 0.01287330 -0.00017631 -0.00837691
v 0.01292593 -0.00011695 -0.00841032
v 0.01564808 -0.00017631 -0.00292360
v 0.01571174 -0.00011695 -0.00293549
v 0.01564808 -0.00017631 0.00304566
v 0.01571174 -0.00011695 0.00305754
v 0.01287330 -0.00017631 0.00849895
v 0.01292593 -0.00011695 0.00853238
v 0.00780350 -0.00017631 0.01249316
v 0.00783603 -0.00011695 0.01254248
v 0.00131530 -0.00017631 0.01433780
v 0.00132212 -0.00011695 0.01439444
v -0.00546942 -0.00017631 0.01371388
v -0.00548951 -0.00011695 0.01376806
v -0.01137750 -0.00017631 0.01072918
v -0.01142106 -0.00011695 0.01077155
v -0.01538744 -0.00017631 0.00589990
v -0.01544689 -0.00011695 0.00592310
v -0.01961427 -0.10105622 0.00754653
v -0.02143266 -0.10105622 0.00006102
v -0.01762708 -0.10198606 0.00006102
v -0.01613768 -0.10198606 0.00619221
v -0.01961427 -0.10105622 -0.00742447
v -0.02353209 -0.09995086 0.00006102
v -0.02153216 -0.09995086 -0.00817169
v -0.01447348 -0.10105622 -0.01361576
v -0.01587828 -0.09995086 -0.01498087
v -0.00689920 -0.10105622 -0.01744213
v -0.00754795 -0.09995086 -0.01918914
v 0.00179892 -0.10105622 -0.01824210
v 0.00201840 -0.09995085 -0.02006893
v 0.01011691 -0.10105622 -0.01587720
v 0.01116664 -0.09995085 -0.01746805
v 0.01661649 -0.10105622 -0.01075651
v 0.01831494 -0.09995085 -0.01183631
v 0.02017382 -0.10105622 -0.00376533
v 0.02222736 -0.09995085 -0.00414734
v 0.02017382 -0.10105622 0.00388739
v 0.02222736 -0.09995085 0.00426931
v 0.01661649 -0.10105622 0.01087856
v 0.01831496 -0.09995085 0.01195837
v 0.01011691 -0.10105622 0.01599925
v 0.01116664 -0.09995085 0.01759020
v 0.00179892 -0.10105622 0.01836418
v 0.00201840 -0.09995085 0.02019111
v -0.00689920 -0.10105622 0.01756419
v -0.00754795 -0.09995086 0.01931129
v -0.01447348 -0.10105622 0.01373782
v -0.01587828 -0.09995086 0.01510291
v -0.02153216 -0.09995086 0.00829375
v -0.02775950 -0.09268130 0.00006102
v -0.02539413 -0.09268130 -0.00967625
v -0.02447912 -0.09609003 -0.00931973
v -0.02675791 -0.09609003 0.00006102
v -0.02322134 -0.09826478 -0.00882978
v -0.02538109 -0.09826478 0.00006102
v -0.01711548 -0.09826478 -0.01618331
v -0.01803675 -0.09609006 -0.01707846
v -0.00811931 -0.09826478 -0.02072793
v -0.00854479 -0.09609003 -0.02187369
v 0.00221167 -0.09826478 -0.02167805
v 0.00235558 -0.09609003 -0.02287622
v 0.01209113 -0.09826478 -0.01886933
v 0.01277954 -0.09609003 -0.01991260
v 0.01981084 -0.09826478 -0.01278727
v 0.02092471 -0.09609006 -0.01349539
v 0.02403598 -0.09826478 -0.00448367
v 0.02538271 -0.09609006 -0.00473419
v 0.02403598 -0.09826478 0.00460575
v 0.02538271 -0.09609006 0.00485624
v 0.01981084 -0.09826478 0.01290933
v 0.02092471 -0.09609006 0.01361745
v 0.01209113 -0.09826478 0.01899129
v 0.01277954 -0.09609003 0.02003466
v 0.00221167 -0.09826478 0.02180013
v 0.00235558 -0.09609003 0.02299820
v -0.00811931 -0.09826478 0.02085000
v -0.00854479 -0.09609003 0.02199574
v -0.01711548 -0.09826478 0.01630528
v -0.01803675 -0.09609006 0.01720054
v -0.02322134 -0.09826478 0.00895182
v -0.02447912 -0.09609003 0.00944178
v -0.01192704 -0.10198606 0.01126323
v -0.01607499 -0.10197613 -0.00604568
v -0.01755847 -0.10197613 0.00006102
v -0.01613768 -0.10198606 -0.00607015
v -0.01604903 -0.10191833 -0.00603563
v -0.01753004 -0.10191833 0.00006102
v -0.01188111 -0.10197613 -0.01109649
v -0.01192704 -0.10198606 -0.01114117
v -0.01186209 -0.10191833 -0.01107806
v -0.00570198 -0.10197613 -0.01421812
v -0.00572318 -0.10198606 -0.01427520
v -0.00569320 -0.10191833 -0.01419447
v 0.00139396 -0.10197613 -0.01487072
v 0.00140116 -0.10198606 -0.01493045
v 0.00139101 -0.10191833 -0.01484596
v 0.00817982 -0.10197613 -0.01294142
v 0.00821413 -0.10198606 -0.01299347
v 0.00816559 -0.10191833 -0.01291995
v 0.01348217 -0.10197613 -0.00876401
v 0.01353771 -0.10198605 -0.00879927
v 0.01345919 -0.10191833 -0.00874931
v 0.01638426 -0.10197613 -0.00306059
v 0.01645140 -0.10198605 -0.00307301
v 0.01635646 -0.10191833 -0.00305537
v 0.01638426 -0.10197613 0.00318265
v 0.01645140 -0.10198605 0.00319507
v 0.01635646 -0.10191833 0.00317746
v 0.01348217 -0.10197613 0.00888599
v 0.01353771 -0.10198605 0.00892133
v 0.01345919 -0.10191833 0.00887137
v 0.00817982 -0.10197613 0.01306348
v 0.00821413 -0.10198606 0.01311553
v 0.00816559 -0.10191833 0.01304203
v 0.00139396 -0.10197613 0.01499278
v 0.00140116 -0.10198606 0.01505250
v 0.00139101 -0.10191833 0.01496804
v -0.00570198 -0.10197613 0.01434020
v -0.00572318 -0.10198606 0.01439726
v -0.00569320 -0.10191833 0.01431655
v -0.01188111 -0.10197613 0.01121857
v -0.01186209 -0.10191833 0.01120011
v -0.01607499 -0.10197613 0.00616774
v -0.01604903 -0.10191833 0.00615771
v -0.01593696 -0.10172062 -0.00599189
v -0.01740732 -0.10172062 0.00006102
v -0.01753004 -0.10183253 0.00006102
v -0.01604903 -0.10183253 -0.00603563
v -0.01178001 -0.10172062 -0.01099825
v -0.01186209 -0.10183253 -0.01107806
v -0.00565528 -0.10172062 -0.01409236
v -0.00569320 -0.10183252 -0.01419447
v 0.00137815 -0.10172062 -0.01473922
v 0.00139101 -0.10183252 -0.01484596
v 0.00810425 -0.10172062 -0.01282690
v 0.00816559 -0.10183252 -0.01291995
v 0.01335992 -0.10172059 -0.00868620
v 0.01345919 -0.10183252 -0.00874931
v 0.01623643 -0.10172059 -0.00303311
v 0.01635646 -0.10183252 -0.00305537
v 0.01623643 -0.10172059 0.00315517
v 0.01635646 -0.10183252 0.00317746
v 0.01335992 -0.10172059 0.00880826
v 0.01345919 -0.10183252 0.00887137
v 0.00810425 -0.10172062 0.01294896
v 0.00816559 -0.10183252 0.01304203
v 0.00137815 -0.10172062 0.01486127
v 0.00139101 -0.10183252 0.01496804
v -0.00565528 -0.10172062 0.01421444
v -0.00569320 -0.10183252 0.01431655
v -0.01178001 -0.10172062 0.01112031
v -0.01186209 -0.10183253 0.01120011
v -0.01593696 -0.10172062 0.00611395
v -0.01604903 -0.10183253 0.00615771
v -0.02355841 -0.02823011 -0.00896108
v -0.02575008 -0.02823011 0.00006102
v -0.02700272 -0.02714403 0.00006102
v -0.02470277 -0.02714403 -0.00940685
v -0.02509199 -0.02962877 0.00006102
v -0.02295723 -0.02962877 0.00884890
v -0.02355841 -0.02823011 0.00908316
v -0.01692203 -0.02962877 0.01611735
v -0.01736238 -0.02823011 0.01654517
v -0.00802999 -0.02962877 0.02060945
v -0.00823334 -0.02823011 0.02115704
v 0.00218144 -0.02962877 0.02154852
v 0.00225022 -0.02823011 0.02212111
v 0.01194659 -0.02962877 0.01877221
v 0.01227563 -0.02823011 0.01927093
v 0.01957696 -0.02962877 0.01276066
v 0.02010933 -0.02823011 0.01309910
v 0.02375320 -0.02962877 0.00455314
v 0.02439687 -0.02823011 0.00467286
v 0.02375320 -0.02962877 -0.00443108
v 0.02439687 -0.02823011 -0.00455081
v 0.01957696 -0.02962877 -0.01263858
v 0.02010930 -0.02823011 -0.01297706
v 0.01194659 -0.02962877 -0.01865013
v 0.01227563 -0.02823011 -0.01914877
v 0.00218144 -0.02962877 -0.02142638
v 0.00225022 -0.02823011 -0.02199916
v -0.00802999 -0.02962877 -0.02048737
v -0.00823334 -0.02823011 -0.02103496
v -0.01692206 -0.02962877 -0.01599520
v -0.01736238 -0.02823011 -0.01642313
v -0.02295723 -0.02962877 -0.00872686
v -0.02295723 -0.07214886 -0.00872686
v -0.02509199 -0.07214886 0.00006102
v -0.01692206 -0.07214886 -0.01599520
v -0.00802999 -0.07214886 -0.02048737
v 0.00218144 -0.07214886 -0.02142638
v 0.01194659 -0.07214886 -0.01865013
v 0.01957696 -0.07214886 -0.01263858
v 0.02375320 -0.07214886 -0.00443108
v 0.02375320 -0.07214886 0.00455314
v 0.01957696 -0.07214886 0.01276066
v 0.01194659 -0.07214886 0.01877221
v 0.00218144 -0.07214886 0.02154852
v -0.00802999 -0.07214886 0.02060945
v -0.01692203 -0.07214886 0.01611735
v -0.02295723 -0.07214886 0.00884890
v -0.02470274 -0.02714403 0.00952890
v -0.02568321 -0.07355005 0.00006102
v -0.02349729 -0.07355005 0.00905931
v -0.01731763 -0.07355005 0.01650173
v -0.00821267 -0.07355005 0.02110142
v 0.00224325 -0.07355005 0.02206294
v 0.01224219 -0.07355005 0.01922024
v 0.02005521 -0.07355005 0.01306468
v 0.02433145 -0.07355005 0.00466071
v 0.02433145 -0.07355005 -0.00453867
v 0.02005521 -0.07355005 -0.01294259
v 0.01224216 -0.07355005 -0.01909817
v 0.00224325 -0.07355005 -0.02194088
v -0.00821267 -0.07355005 -0.02097925
v -0.01731763 -0.07355005 -0.01637965
v -0.02349729 -0.07355005 -0.00893726
v -0.01820058 -0.02714400 0.01735971
v -0.01820058 -0.02714400 -0.01723773
v -0.00862044 -0.02714403 -0.02207733
v 0.00238117 -0.02714403 -0.02308919
v 0.01290194 -0.02714403 -0.02009800
v 0.02112274 -0.02714403 -0.01362123
v 0.02562215 -0.02714403 -0.00477866
v 0.02562215 -0.02714403 0.00490072
v 0.02112274 -0.02714403 0.01374330
v 0.01290194 -0.02714403 0.02022014
v 0.00238117 -0.02714403 0.02321124
v -0.00862044 -0.02714403 0.02219947
v -0.02775950 -0.02548713 0.00006102
v -0.02539413 -0.02548713 0.00979829
v -0.02539413 -0.00990921 0.00979829
v -0.01870694 -0.00990921 0.01785184
v -0.01870694 -0.00990921 -0.01772979
v -0.00885429 -0.00990921 -0.02270709
v 0.00246025 -0.00990920 -0.02374764
v 0.01328033 -0.00990920 -0.02067150
v 0.02173500 -0.00990920 -0.01401047
v 0.02636237 -0.00990920 -0.00491637
v 0.02636237 -0.00990920 0.00503844
v 0.02173500 -0.00990920 0.01413251
v 0.01328033 -0.00990920 0.02079355
v 0.00246025 -0.00990920 0.02386978
v -0.00885429 -0.00990921 0.02282926
v -0.01870695 -0.09268130 0.01785184
v -0.02539413 -0.09268130 0.00979829
v -0.01870695 -0.09268130 -0.01772979
v -0.00885427 -0.09268130 -0.02270709
v 0.00246027 -0.09268130 -0.02374764
v 0.01328033 -0.09268130 -0.02067150
v 0.02173500 -0.09268130 -0.01401047
v 0.02636238 -0.09268130 -0.00491637
v 0.02636238 -0.09268130 0.00503844
v 0.02173500 -0.09268130 0.01413251
v 0.01328033 -0.09268130 0.02079355
v 0.00246027 -0.09268130 0.02386978
v -0.00885427 -0.09268130 0.02282926
v -0.02456281 -0.07472781 0.00947438
v -0.02684953 -0.07472781 0.00006102
v -0.02775950 -0.07650224 0.00006102
v -0.02539413 -0.07650224 0.00979829
v -0.01809806 -0.07472781 0.01726017
v -0.01870692 -0.07650224 0.01785184
v -0.01870695 -0.02548713 0.01785184
v -0.00857310 -0.07472781 0.02207199
v -0.00885429 -0.07650224 0.02282926
v -0.00885429 -0.02548713 0.02282926
v 0.00236516 -0.07472781 0.02307792
v 0.00246027 -0.07650224 0.02386978
v 0.00246025 -0.02548713 0.02386978
v 0.01282536 -0.07472781 0.02010406
v 0.01328033 -0.07650224 0.02079355
v 0.01328033 -0.02548713 0.02079355
v 0.02099880 -0.07472781 0.01366456
v 0.02173500 -0.07650224 0.01413251
v 0.02173500 -0.02548713 0.01413251
v 0.02547230 -0.07472781 0.00487287
v 0.02636238 -0.07650224 0.00503844
v 0.02636238 -0.02548713 0.00503844
v 0.02547230 -0.07472781 -0.00475079
v 0.02636238 -0.07650224 -0.00491637
v 0.02636238 -0.02548713 -0.00491637
v 0.02099880 -0.07472781 -0.01354251
v 0.02173500 -0.07650224 -0.01401047
v 0.02173500 -0.02548713 -0.01401047
v 0.01282533 -0.07472781 -0.01998201
v 0.01328033 -0.07650224 -0.02067150
v 0.01328033 -0.02548713 -0.02067150
v 0.00236516 -0.07472781 -0.02295586
v 0.00246027 -0.07650224 -0.02374764
v 0.00246025 -0.02548713 -0.02374764
v -0.00857310 -0.07472781 -0.02194984
v -0.00885429 -0.07650224 -0.02270709
v -0.00885429 -0.02548713 -0.02270709
v -0.01809806 -0.07472781 -0.01713802
v -0.01870692 -0.07650224 -0.01772979
v -0.01870695 -0.02548713 -0.01772979
v -0.02456281 -0.07472781 -0.00935231
v -0.02539413 -0.07650224 -0.00967625
v -0.02539413 -0.02548713 -0.00967625
f 4 1 2
f 2 3 4
f 7 1 5
f 5 6 7
f 6 5 8
f 8 9 6
f 9 8 10
f 10 11 9
f 11 10 12
f 12 13 11
f 13 12 14
f 14 15 13
f 15 14 16
f 16 17 15
f 17 16 18
f 18 19 17
f 19 18 20
f 20 21 19
f 21 20 22
f 22 23 21
f 23 22 24
f 24 25 23
f 25 24 26
f 26 27 25
f 27 26 28
f 28 29 27
f 29 28 30
f 30 31 29
f 31 30 2
f 2 32 31
f 32 2 1
f 1 7 32
f 36 33 34
f 34 35 36
f 35 37 38
f 38 36 35
f 36 38 39
f 39 40 36
f 40 39 41
f 41 42 40
f 42 41 43
f 43 44 42
f 44 43 45
f 45 46 44
f 46 45 47
f 47 48 46
f 48 47 49
f 49 50 48
f 50 49 51
f 51 52 50
f 52 51 53
f 53 54 52
f 54 53 55
f 55 56 54
f 56 55 57
f 57 58 56
f 58 57 59
f 59 60 58
f 60 59 61
f 61 62 60
f 62 61 63
f 63 64 62
f 64 63 37
f 37 35 64
f 7 37 63
f 63 32 7
f 4 65 66
f 66 67 4
f 65 68 69
f 69 66 65
f 67 66 70
f 70 71 67
f 66 69 72
f 72 70 66
f 71 70 73
f 73 74 71
f 70 72 75
f 75 73 70
f 74 73 76
f 76 77 74
f 73 75 78
f 78 76 73
f 77 76 79
f 79 80 77
f 76 78 81
f 81 79 76
f 80 79 82
f 82 83 80
f 79 81 84
f 84 82 79
f 83 82 85
f 85 86 83
f 82 84 87
f 87 85 82
f 86 85 88
f 88 89 86
f 85 87 90
f 90 88 85
f 89 88 91
f 91 92 89
f 88 90 93
f 93 91 88
f 92 91 94
f 94 95 92
f 91 93 96
f 96 94 91
f 95 94 97
f 97 98 95
f 94 96 99
f 99 97 94
f 98 97 100
f 100 101 98
f 97 99 102
f 102 100 97
f 101 100 103
f 103 104 101
f 100 102 105
f 105 103 100
f 104 103 106
f 106 3 104
f 103 105 107
f 107 106 103
f 3 106 65
f 65 4 3
f 106 107 68
f 68 65 106
f 32 63 61
f 61 31 32
f 111 108 109
f 109 110 111
f 110 109 112
f 112 113 110
f 113 112 114
f 114 115 113
f 115 114 116
f 116 117 115
f 117 116 118
f 118 119 117
f 119 118 120
f 120 121 119
f 121 120 122
f 122 123 121
f 123 122 124
f 124 125 123
f 125 124 126
f 126 127 125
f 127 126 128
f 128 129 127
f 129 128 130
f 130 131 129
f 131 130 132
f 132 133 131
f 133 132 134
f 134 135 133
f 135 134 136
f 136 137 135
f 137 136 108
f 108 111 137
f 109 108 136
f 109 136 134
f 109 134 132
f 109 132 130
f 109 130 128
f 109 128 126
f 109 126 124
f 109 124 122
f 109 122 120
f 109 120 118
f 109 118 116
f 109 116 114
f 114 112 109
f 6 38 37
f 37 7 6
f 27 57 55
f 55 25 27
f 25 55 53
f 53 23 25
f 29 59 57
f 57 27 29
f 23 53 51
f 51 21 23
f 21 51 49
f 49 19 21
f 19 49 47
f 47 17 19
f 17 47 45
f 45 15 17
f 15 45 43
f 43 13 15
f 13 43 41
f 41 11 13
f 11 41 39
f 39 9 11
f 9 39 38
f 38 6 9
f 31 61 59
f 59 29 31
f 141 138 139
f 139 140 141
f 144 142 139
f 139 143 144
f 146 145 142
f 142 144 146
f 148 147 145
f 145 146 148
f 150 149 147
f 147 148 150
f 152 151 149
f 149 150 152
f 154 153 151
f 151 152 154
f 156 155 153
f 153 154 156
f 158 157 155
f 155 156 158
f 160 159 157
f 157 158 160
f 162 161 159
f 159 160 162
f 164 163 161
f 161 162 164
f 166 165 163
f 163 164 166
f 168 167 165
f 165 166 168
f 169 138 167
f 167 168 169
f 143 139 138
f 138 169 143
f 173 170 171
f 171 172 173
f 172 174 175
f 175 173 172
f 177 176 174
f 174 172 177
f 179 178 176
f 176 177 179
f 181 180 178
f 178 179 181
f 183 182 180
f 180 181 183
f 185 184 182
f 182 183 185
f 187 186 184
f 184 185 187
f 189 188 186
f 186 187 189
f 191 190 188
f 188 189 191
f 193 192 190
f 190 191 193
f 195 194 192
f 192 193 195
f 197 196 194
f 194 195 197
f 199 198 196
f 196 197 199
f 201 200 198
f 198 199 201
f 173 175 200
f 200 201 173
f 202 167 138
f 138 141 202
f 205 203 204
f 204 140 205
f 203 206 207
f 207 204 203
f 209 208 203
f 203 205 209
f 208 210 206
f 206 203 208
f 212 211 208
f 208 209 212
f 211 213 210
f 210 208 211
f 215 214 211
f 211 212 215
f 214 216 213
f 213 211 214
f 218 217 214
f 214 215 218
f 217 219 216
f 216 214 217
f 221 220 217
f 217 218 221
f 220 222 219
f 219 217 220
f 224 223 220
f 220 221 224
f 223 225 222
f 222 220 223
f 227 226 223
f 223 224 227
f 226 228 225
f 225 223 226
f 230 229 226
f 226 227 230
f 229 231 228
f 228 226 229
f 233 232 229
f 229 230 233
f 232 234 231
f 231 229 232
f 236 235 232
f 232 233 236
f 235 237 234
f 234 232 235
f 239 238 235
f 235 236 239
f 238 240 237
f 237 235 238
f 202 241 238
f 238 239 202
f 241 242 240
f 240 238 241
f 141 243 241
f 241 202 141
f 243 244 242
f 242 241 243
f 140 204 243
f 243 141 140
f 204 207 244
f 244 243 204
f 168 198 200
f 200 169 168
f 248 245 246
f 246 247 248
f 250 249 245
f 245 248 250
f 252 251 249
f 249 250 252
f 254 253 251
f 251 252 254
f 256 255 253
f 253 254 256
f 258 257 255
f 255 256 258
f 260 259 257
f 257 258 260
f 262 261 259
f 259 260 262
f 264 263 261
f 261 262 264
f 266 265 263
f 263 264 266
f 268 267 265
f 265 266 268
f 270 269 267
f 267 268 270
f 272 271 269
f 269 270 272
f 274 273 271
f 271 272 274
f 247 246 273
f 273 274 247
f 271 273 246
f 271 246 245
f 271 245 249
f 271 249 251
f 271 251 253
f 271 253 255
f 271 255 257
f 271 257 259
f 271 259 261
f 271 261 263
f 271 263 265
f 271 265 267
f 267 269 271
f 164 194 196
f 196 166 164
f 162 192 194
f 194 164 162
f 160 190 192
f 192 162 160
f 166 196 198
f 198 168 166
f 158 188 190
f 190 160 158
f 156 186 188
f 188 158 156
f 154 184 186
f 186 156 154
f 152 182 184
f 184 154 152
f 150 180 182
f 182 152 150
f 148 178 180
f 180 150 148
f 146 176 178
f 178 148 146
f 144 174 176
f 176 146 144
f 274 244 207
f 207 247 274
f 278 275 276
f 276 277 278
f 276 279 280
f 280 281 276
f 281 280 282
f 282 283 281
f 283 282 284
f 284 285 283
f 285 284 286
f 286 287 285
f 287 286 288
f 288 289 287
f 289 288 290
f 290 291 289
f 291 290 292
f 292 293 291
f 293 292 294
f 294 295 293
f 295 294 296
f 296 297 295
f 297 296 298
f 298 299 297
f 299 298 300
f 300 301 299
f 301 300 302
f 302 303 301
f 303 302 304
f 304 305 303
f 305 304 306
f 306 275 305
f 275 306 279
f 279 276 275
f 279 306 307
f 307 308 279
f 306 304 309
f 309 307 306
f 304 302 310
f 310 309 304
f 302 300 311
f 311 310 302
f 300 298 312
f 312 311 300
f 298 296 313
f 313 312 298
f 296 294 314
f 314 313 296
f 294 292 315
f 315 314 294
f 292 290 316
f 316 315 292
f 290 288 317
f 317 316 290
f 288 286 318
f 318 317 288
f 286 284 319
f 319 318 286
f 284 282 320
f 320 319 284
f 282 280 321
f 321 320 282
f 280 279 308
f 308 321 280
f 277 276 281
f 281 322 277
f 308 323 324
f 324 321 308
f 321 324 325
f 325 320 321
f 320 325 326
f 326 319 320
f 319 326 327
f 327 318 319
f 318 327 328
f 328 317 318
f 317 328 329
f 329 316 317
f 316 329 330
f 330 315 316
f 315 330 331
f 331 314 315
f 314 331 332
f 332 313 314
f 313 332 333
f 333 312 313
f 312 333 334
f 334 311 312
f 311 334 335
f 335 310 311
f 310 335 336
f 336 309 310
f 309 336 337
f 337 307 309
f 307 337 323
f 323 308 307
f 322 281 283
f 283 338 322
f 339 305 275
f 275 278 339
f 340 303 305
f 305 339 340
f 341 301 303
f 303 340 341
f 342 299 301
f 301 341 342
f 343 297 299
f 299 342 343
f 344 295 297
f 297 343 344
f 345 293 295
f 295 344 345
f 346 291 293
f 293 345 346
f 347 289 291
f 291 346 347
f 348 287 289
f 289 347 348
f 349 285 287
f 287 348 349
f 338 283 285
f 285 349 338
f 352 34 350
f 350 351 352
f 110 69 68
f 68 111 110
f 64 352 353
f 353 62 64
f 35 34 352
f 352 64 35
f 113 72 69
f 69 110 113
f 115 75 72
f 72 113 115
f 40 354 33
f 33 36 40
f 71 8 5
f 5 67 71
f 117 78 75
f 75 115 117
f 42 355 354
f 354 40 42
f 74 10 8
f 8 71 74
f 119 81 78
f 78 117 119
f 44 356 355
f 355 42 44
f 77 12 10
f 10 74 77
f 121 84 81
f 81 119 121
f 46 357 356
f 356 44 46
f 80 14 12
f 12 77 80
f 123 87 84
f 84 121 123
f 48 358 357
f 357 46 48
f 83 16 14
f 14 80 83
f 125 90 87
f 87 123 125
f 50 359 358
f 358 48 50
f 86 18 16
f 16 83 86
f 127 93 90
f 90 125 127
f 52 360 359
f 359 50 52
f 89 20 18
f 18 86 89
f 129 96 93
f 93 127 129
f 54 361 360
f 360 52 54
f 92 22 20
f 20 89 92
f 131 99 96
f 96 129 131
f 56 362 361
f 361 54 56
f 95 24 22
f 22 92 95
f 133 102 99
f 99 131 133
f 58 363 362
f 362 56 58
f 98 26 24
f 24 95 98
f 135 105 102
f 102 133 135
f 60 364 363
f 363 58 60
f 101 28 26
f 26 98 101
f 137 107 105
f 105 135 137
f 62 353 364
f 364 60 62
f 104 30 28
f 28 101 104
f 111 68 107
f 107 137 111
f 67 5 1
f 1 4 67
f 3 2 30
f 30 104 3
f 143 175 174
f 174 144 143
f 199 365 366
f 366 201 199
f 201 366 170
f 170 173 201
f 248 206 210
f 210 250 248
f 250 210 213
f 213 252 250
f 172 171 367
f 367 177 172
f 205 142 145
f 145 209 205
f 252 213 216
f 216 254 252
f 177 367 368
f 368 179 177
f 209 145 147
f 147 212 209
f 254 216 219
f 219 256 254
f 179 368 369
f 369 181 179
f 212 147 149
f 149 215 212
f 256 219 222
f 222 258 256
f 181 369 370
f 370 183 181
f 215 149 151
f 151 218 215
f 258 222 225
f 225 260 258
f 183 370 371
f 371 185 183
f 218 151 153
f 153 221 218
f 260 225 228
f 228 262 260
f 185 371 372
f 372 187 185
f 221 153 155
f 155 224 221
f 262 228 231
f 231 264 262
f 187 372 373
f 373 189 187
f 224 155 157
f 157 227 224
f 264 231 234
f 234 266 264
f 189 373 374
f 374 191 189
f 227 157 159
f 159 230 227
f 266 234 237
f 237 268 266
f 191 374 375
f 375 193 191
f 230 159 161
f 161 233 230
f 268 237 240
f 240 270 268
f 193 375 376
f 376 195 193
f 233 161 163
f 163 236 233
f 270 240 242
f 242 272 270
f 195 376 377
f 377 197 195
f 236 163 165
f 165 239 236
f 272 242 244
f 244 274 272
f 197 377 365
f 365 199 197
f 239 165 167
f 167 202 239
f 247 207 206
f 206 248 247
f 169 200 175
f 175 143 169
f 140 139 142
f 142 205 140
f 381 378 379
f 379 380 381
f 350 277 322
f 322 351 350
f 383 382 378
f 378 381 383
f 351 322 338
f 338 384 351
f 386 385 382
f 382 383 386
f 384 338 349
f 349 387 384
f 389 388 385
f 385 386 389
f 387 349 348
f 348 390 387
f 392 391 388
f 388 389 392
f 390 348 347
f 347 393 390
f 395 394 391
f 391 392 395
f 393 347 346
f 346 396 393
f 398 397 394
f 394 395 398
f 396 346 345
f 345 399 396
f 401 400 397
f 397 398 401
f 399 345 344
f 344 402 399
f 404 403 400
f 400 401 404
f 402 344 343
f 343 405 402
f 407 406 403
f 403 404 407
f 405 343 342
f 342 408 405
f 410 409 406
f 406 407 410
f 408 342 341
f 341 411 408
f 413 412 409
f 409 410 413
f 411 341 340
f 340 414 411
f 416 415 412
f 412 413 416
f 414 340 339
f 339 417 414
f 419 418 415
f 415 416 419
f 417 339 278
f 278 420 417
f 380 379 418
f 418 419 380
f 420 278 277
f 277 350 420
f 379 323 337
f 337 418 379
f 378 324 323
f 323 379 378
f 364 353 384
f 384 387 364
f 382 325 324
f 324 378 382
f 363 364 387
f 387 390 363
f 385 326 325
f 325 382 385
f 362 363 390
f 390 393 362
f 388 327 326
f 326 385 388
f 361 362 393
f 393 396 361
f 391 328 327
f 327 388 391
f 360 361 396
f 396 399 360
f 394 329 328
f 328 391 394
f 359 360 399
f 399 402 359
f 397 330 329
f 329 394 397
f 358 359 402
f 402 405 358
f 400 331 330
f 330 397 400
f 357 358 405
f 405 408 357
f 403 332 331
f 331 400 403
f 356 357 408
f 408 411 356
f 406 333 332
f 332 403 406
f 355 356 411
f 411 414 355
f 409 334 333
f 333 406 409
f 354 355 414
f 414 417 354
f 412 335 334
f 334 409 412
f 33 354 417
f 417 420 33
f 415 336 335
f 335 412 415
f 418 337 336
f 336 415 418
f 353 352 351
f 351 384 353
f 34 33 420
f 420 350 34
f 383 381 366
f 366 365 383
f 381 380 170
f 170 366 381
f 419 416 367
f 367 171 419
f 416 413 368
f 368 367 416
f 413 410 369
f 369 368 413
f 410 407 370
f 370 369 410
f 407 404 371
f 371 370 407
f 404 401 372
f 372 371 404
f 401 398 373
f 373 372 401
f 398 395 374
f 374 373 398
f 395 392 375
f 375 374 395
f 392 389 376
f 376 375 392
f 389 386 377
f 377 376 389
f 386 383 365
f 365 377 386
f 380 419 171
f 171 170 380