# https://github.com/mikedh/trimesh
v 0.00022821 -0.01959627 0.03431577
v 0.01741810 -0.01858508 0.04341630
v 0.00022821 -0.02465212 0.04442748
v -0.01696168 -0.01858508 0.04341630
v 0.01741810 -0.01555158 0.03633811
v -0.01696168 -0.01555158 0.03633811
v -0.01696168 -0.01959627 0.05858386
v 0.00022821 -0.02364096 0.06060621
v 0.01741810 -0.01959627 0.05858386
v -0.02808456 -0.00240635 0.03836045
v -0.01696168 0.00062715 0.02824874
v 0.00022821 -0.01454042 0.02824874
v 0.01741810 0.00062715 0.02824874
v 0.02854099 -0.00240635 0.03836045
v 0.04723586 -0.00411907 0.03516907
v 0.04723586 0.00599263 0.03516907
v 0.05026937 0.00144236 0.03971934
v 0.04723586 0.00599263 0.04426961
v -0.00160440 -0.01530037 0.00000000
v -0.02233341 -0.01125568 0.00000000
v -0.02738926 -0.00063839 0.00000000
v -0.02656783 -0.01024452 0.01397455
v -0.02656783 0.01195517 0.01357220
v -0.04053093 0.00187448 0.04709852
v -0.04677944 -0.00411907 0.04426961
v -0.04053093 -0.00722606 0.04305384
v -0.04677944 -0.00411907 0.03516907
v -0.04053093 -0.00419256 0.03395330
v -0.04981294 0.00144236 0.03971934
v -0.04677944 0.00599263 0.04426961
v -0.04677944 0.00599263 0.03516907
v -0.02707341 -0.00515221 0.03522020
v -0.03212926 0.00192598 0.03420903
v -0.02789130 0.00895268 0.04254825
v -0.02100637 0.00091479 0.04229839
v 0.02702425 -0.01024452 0.01397455
v 0.00206083 -0.01530037 0.00000000
v 0.02278983 -0.01125568 0.00000000
v 0.00206083 0.01503475 0.00000000
v 0.00225056 -0.01024452 0.01397455
v 0.00225056 0.01200124 0.01397455
v 0.02784568 -0.00063839 0.00000000
v -0.02606225 -0.01741484 0.01923687
v -0.03516276 0.00133788 0.00851635
v -0.02555664 -0.01539250 0.00912516
v 0.00022821 0.02716879 0.02206392
v -0.02606222 0.01911587 0.03420903
v 0.00022821 0.02012706 0.03926488
v 0.02651864 0.01911587 0.03420903
v 0.02651867 0.01907944 0.02206392
v 0.03814711 0.00078624 0.02227038
v -0.03769068 0.00078624 0.02227038
v -0.02606225 0.01907944 0.02206392
v 0.03258568 0.00192598 0.03420903
v -0.02353429 -0.01526392 0.03117552
v 0.00022821 -0.02449303 0.01923687
v 0.00022821 -0.02031979 0.02915318
v 0.02651867 -0.01741484 0.01923687
v 0.02399072 -0.01526392 0.03117552
v 0.00022821 -0.02348188 0.00406931
v 0.02146279 0.00091479 0.04229839
v 0.01387902 -0.01121925 0.03623137
v 0.00022821 -0.01425275 0.03420903
v -0.01999521 -0.00948457 0.06869557
v 0.00022821 -0.00645104 0.07375142
v -0.00786114 -0.00240635 0.07375142
v -0.00786117 0.01225562 0.07274024
v -0.02707341 0.00669416 0.06363972
v -0.01190583 0.00467185 0.07274024
v 0.02045164 -0.00948457 0.06869557
v 0.01236226 0.00467185 0.07274024
v 0.00831756 -0.00240635 0.07375142
v 0.00831760 0.01225562 0.07274024
v 0.02752983 0.00669416 0.06363972
v 0.01741810 0.02186174 0.05858386
v 0.00022821 0.00366066 0.07779611
v 0.00022821 0.01579470 0.07274024
v -0.00160440 0.01503475 0.00000000
v 0.02702425 0.01195517 0.01357220
v 0.02278983 0.01200124 0.00000000
v 0.03561918 0.00133788 0.00851635
v 0.02601306 -0.01539250 0.00912516
v 0.00022821 0.02514644 0.00386285
v 0.02550745 0.01604594 0.00790753
v -0.02505103 0.01604594 0.00790753
v -0.04053093 0.00693033 0.03395330
v -0.04053093 0.00996383 0.04305384
v -0.02707341 0.00799299 0.03825371
v -0.01342260 -0.01121925 0.03623137
v 0.00022821 0.00192598 0.04128722
v 0.02752983 -0.00515221 0.03522020
v 0.03157449 0.00163831 0.04948333
v 0.02854099 -0.01049573 0.05555035
v -0.03111807 0.00163831 0.04948333
v -0.02808456 -0.01049573 0.05555035
v 0.00022821 -0.01555158 0.07071792
v 0.04098735 0.00996383 0.04305384
v 0.04098735 0.00693033 0.03395330
v 0.04098735 0.00187448 0.04709852
v 0.04098735 -0.00722606 0.04305384
v 0.02834773 0.00895268 0.04254825
v 0.02752983 0.00799299 0.03825371
v -0.00179413 -0.01024452 0.01397455
v -0.02233341 0.01200124 0.00000000
v -0.00179413 0.01200124 0.01397455
v 0.00022821 0.02792874 0.05858386
v 0.02854099 0.01478354 0.04543864
v 0.01741810 0.02388408 0.04139397
v 0.00022821 0.00669416 0.02521523
v -0.01696168 0.02388408 0.04139397
v -0.02808456 0.01478354 0.04543864
v -0.01696168 0.02186174 0.05858386
v 0.00022821 0.02691758 0.04038279
v 0.04098735 -0.00419256 0.03395330
v 0.04723586 -0.00411907 0.04426961
f 1 2 3
f 4 1 3
f 2 1 5
f 1 4 6
f 4 3 7
f 7 3 8
f 2 9 3
f 3 9 8
f 10 11 6
f 6 11 12
f 5 13 14
f 5 12 13
f 6 12 1
f 10 6 4
f 5 14 2
f 12 5 1
f 15 16 17
f 17 16 18
f 19 20 21
f 21 22 23
f 24 25 26
f 26 27 28
f 29 27 25
f 29 30 31
f 32 28 33
f 34 24 35
f 36 37 38
f 39 40 41
f 42 38 37
f 43 44 45
f 46 47 48
f 49 46 48
f 46 49 50
f 51 50 49
f 52 47 53
f 46 53 47
f 44 43 52
f 51 49 54
f 52 43 55
f 52 55 33
f 55 56 57
f 56 55 43
f 56 58 59
f 56 59 57
f 59 51 54
f 51 59 58
f 43 60 56
f 47 52 33
f 45 60 43
f 47 35 48
f 61 49 48
f 59 61 62
f 57 59 62
f 57 62 63
f 64 65 66
f 67 68 69
f 70 71 72
f 73 74 75
f 76 77 67
f 76 71 73
f 76 65 72
f 76 69 66
f 21 78 19
f 39 79 80
f 36 42 79
f 42 80 79
f 37 36 40
f 79 39 41
f 60 81 82
f 44 60 45
f 83 60 44
f 83 84 81
f 60 83 81
f 44 85 83
f 31 28 27
f 25 24 30
f 86 87 24
f 87 88 86
f 34 88 87
f 26 35 24
f 28 86 33
f 32 35 26
f 57 89 55
f 89 57 63
f 90 48 35
f 59 91 61
f 90 89 63
f 90 35 89
f 90 62 61
f 90 63 62
f 54 91 59
f 90 61 48
f 35 55 89
f 74 71 70
f 69 68 64
f 66 69 64
f 14 92 93
f 2 93 9
f 14 93 2
f 68 94 95
f 68 95 64
f 64 95 7
f 64 7 96
f 96 7 8
f 94 10 95
f 95 4 7
f 9 96 8
f 10 4 95
f 70 96 9
f 93 70 9
f 74 70 93
f 92 74 93
f 97 16 98
f 99 61 100
f 99 101 61
f 98 54 102
f 55 35 32
f 33 88 47
f 55 32 33
f 58 81 51
f 81 58 82
f 81 84 50
f 81 50 51
f 53 44 52
f 22 21 20
f 22 19 103
f 23 78 104
f 23 104 21
f 78 23 105
f 84 83 50
f 50 83 46
f 83 53 46
f 53 83 85
f 44 53 85
f 106 73 75
f 92 14 107
f 107 13 108
f 107 14 13
f 109 11 110
f 74 73 71
f 94 68 111
f 111 68 112
f 111 112 110
f 110 112 106
f 110 106 113
f 106 108 113
f 106 75 108
f 75 107 108
f 108 13 109
f 68 67 112
f 67 106 112
f 73 106 77
f 106 67 77
f 11 111 110
f 11 10 111
f 109 12 11
f 109 13 12
f 109 110 113
f 10 94 111
f 74 92 107
f 108 109 113
f 75 74 107
f 60 58 56
f 58 60 82
f 39 42 37
f 42 36 38
f 37 40 39
f 42 39 80
f 78 105 19
f 105 103 19
f 19 22 20
f 78 21 104
f 27 26 25
f 31 87 86
f 30 24 87
f 28 31 86
f 25 30 29
f 31 27 29
f 87 31 30
f 98 16 114
f 114 15 100
f 15 114 16
f 97 99 18
f 16 97 18
f 115 100 15
f 100 115 99
f 18 99 115
f 17 115 15
f 18 115 17
f 98 97 99
f 54 98 114
f 98 102 97
f 91 114 100
f 101 99 97
f 114 91 54
f 100 61 91
f 97 102 101
f 61 101 102
f 88 33 86
f 28 32 26
f 47 88 35
f 88 34 35
f 49 102 54
f 61 102 49
f 24 34 87
f 72 65 70
f 65 96 70
f 65 64 96
f 67 69 76
f 73 77 76
f 72 71 76
f 66 65 76
f 20 22 19
f 22 20 19
f 103 105 23
f 23 22 103
f 19 21 20
f 88 86 33
f 33 86 88
f 62 61 59
f 67 69 68
f 73 75 74
f 86 24 87
f 69 66 64
f 64 68 69
f 70 71 73
f 73 74 70
f 11 12 13
f 13 109 11
f 98 99 97