# https://github.com/mikedh/trimesh
v -0.03203513 0.02933611 0.03726494
v -0.02591799 0.03323595 0.03374321
v -0.02819177 0.02613213 0.02426857
v -0.03571870 0.02320957 0.03283570
v -0.01561727 0.03769799 0.03007415
v -0.01629043 0.02937238 0.01818251
v -0.01704634 0.01688419 0.00785917
v -0.03106790 0.01474762 0.01584434
v -0.03971385 0.01249842 0.02765469
v -0.03235135 -0.00101671 0.01068654
v -0.04185916 -0.00178242 0.02409811
v -0.01717972 0.00004461 0.00105945
v -0.01493710 -0.01824452 0.00408413
v -0.03002977 -0.01779296 0.01244617
v -0.03959359 -0.01678668 0.02455149
v -0.02536157 -0.02994605 0.02021576
v -0.03439687 -0.02828829 0.02856921
v -0.01162195 -0.03087576 0.01514967
v -0.00960230 -0.03983340 0.02701344
v -0.02171970 -0.03718168 0.02982898
v -0.02940022 -0.03438274 0.03291855
v -0.00221225 0.03998500 0.02916596
v -0.00133970 0.03140400 0.01649634
v 0.01137575 0.03992821 0.03116079
v 0.01347556 0.03125865 0.02005591
v 0.01652303 0.01890572 0.01080900
v 0.00005803 0.01874937 0.00564976
v 0.00172486 0.00129317 0.00000000
v 0.01953983 0.00271407 0.00542658
v 0.02038341 -0.01465932 0.00818135
v 0.00341365 -0.01735272 0.00250825
v 0.00450537 -0.03135485 0.01317837
v 0.01966102 -0.02802959 0.01739870
v 0.01834753 -0.03619434 0.02932475
v 0.00488290 -0.04009422 0.02640282
v 0.02139445 0.03575712 0.03596813
v 0.02466713 0.02890776 0.02740350
v 0.02809100 0.03323648 0.03959541
v 0.03203648 0.02724956 0.03610658
v 0.03724653 0.01757022 0.03206376
v 0.02931051 0.01840196 0.02018981
v 0.03208667 0.00377878 0.01702922
v 0.03924760 0.00434771 0.03060109
v 0.03905223 -0.00894396 0.03168675
v 0.03185246 -0.01122594 0.01936720
v 0.02988313 -0.02302402 0.02567931
v 0.03652629 -0.01975349 0.03489746
v 0.03360348 -0.02628855 0.03822345
v 0.02800043 -0.03059793 0.03408261
v -0.02636820 0.02332867 0.09825108
v -0.02894810 0.01770602 0.10085964
v -0.02307982 0.01978924 0.10817769
v -0.02131266 0.02621765 0.10139414
v -0.03183713 0.00863729 0.10360890
v -0.02508835 0.00991570 0.11349277
v -0.01701102 0.01334103 0.12427541
v -0.01462882 0.02318440 0.11476119
v -0.01325128 0.02981248 0.10496456
v -0.03303638 -0.00281101 0.10471822
v -0.02769399 -0.00259855 0.11697798
v -0.03184255 -0.01447985 0.10336976
v -0.02546473 -0.01580156 0.11408211
v -0.01622472 -0.01846160 0.12548185
v -0.01924883 -0.00191168 0.13056198
v -0.02821233 -0.02351206 0.09989330
v -0.02165625 -0.02518085 0.10748010
v -0.02483470 -0.02884799 0.09663382
v -0.01888911 -0.03118446 0.09976328
v -0.00932695 -0.03331174 0.10321978
v -0.01178836 -0.02748936 0.11423288
v -0.00258586 0.02597116 0.11829608
v -0.00263202 0.03187981 0.10665011
v -0.00246073 0.01655904 0.13067434
v 0.01351771 0.01626773 0.12616208
v 0.01034969 0.02566995 0.11587624
v 0.00836168 0.03135117 0.10540254
v -0.00183390 -0.00054111 0.13934963
v 0.00020613 -0.02004172 0.13300501
v 0.01873432 -0.01791208 0.12983742
v 0.01669131 0.00049788 0.13208016
v 0.00164271 -0.02948579 0.11864000
v 0.00244443 -0.03429476 0.10545042
v 0.01426064 -0.03181132 0.10469939
v 0.01591003 -0.02692607 0.11674822
v 0.02026030 0.02366813 0.10980059
v 0.01705438 0.02863297 0.10203820
v 0.02479551 0.01484595 0.11666112
v 0.03089661 0.01373417 0.10565073
v 0.02629814 0.02193829 0.10220402
v 0.02279021 0.02675457 0.09916039
v 0.03027690 0.00212902 0.12149675
v 0.03000697 -0.01311621 0.11856186
v 0.03463022 -0.00970650 0.10616386
v 0.03439373 0.00248575 0.10752022
v 0.02656440 -0.02303798 0.11064189
v 0.02341844 -0.02774163 0.10185411
v 0.02864046 -0.02418425 0.09887438
v 0.03168166 -0.01901444 0.10239715
v -0.03955514 0.02234977 0.04382423
v -0.03384261 0.03094252 0.04564236
v -0.04454759 0.01133179 0.04099093
v -0.04659521 0.01076471 0.05507621
v -0.04126651 0.02207713 0.05655775
v -0.03475526 0.03169635 0.05755419
v -0.04677806 -0.00227456 0.03879021
v -0.04452264 -0.01632146 0.03853923
v -0.04607224 -0.01606722 0.05322303
v -0.04834860 -0.00257222 0.05379783
v -0.03885203 -0.02806452 0.03997376
v -0.03092810 -0.03604212 0.04157364
v -0.03190659 -0.03710824 0.05382702
v -0.04029679 -0.02789569 0.05341725
v -0.04062333 0.02129506 0.06976666
v -0.03357148 0.03047482 0.07028895
v -0.04537930 0.01001213 0.06904750
v -0.04172767 0.00909567 0.08181345
v -0.03750494 0.01966339 0.08186738
v -0.03109478 0.02809222 0.08201402
v -0.04690493 -0.00275855 0.06827961
v -0.04472602 -0.01558222 0.06757215
v -0.04171778 -0.01502364 0.08086330
v -0.04338679 -0.00289885 0.08153847
v -0.03939745 -0.02707045 0.06716154
v -0.03104527 -0.03601819 0.06706971
v -0.02918406 -0.03379807 0.07940718
v -0.03700949 -0.02584473 0.08003489
v -0.03324741 0.01803372 0.09218017
v -0.02844284 0.02544225 0.09172756
v -0.03718963 0.00850594 0.09324973
v -0.03840827 -0.00287841 0.09344335
v -0.03699860 -0.01438419 0.09256894
v -0.03289833 -0.02418107 0.09092926
v -0.02690590 -0.03122324 0.08974974
v -0.02108041 -0.04135120 0.04101858
v -0.00883631 -0.04476802 0.04016101
v -0.00866535 -0.04657550 0.05399145
v -0.02115433 -0.04327265 0.05391430
v 0.00485885 -0.04459224 0.04039349
v 0.01758148 -0.04066595 0.04221242
v 0.01708813 -0.04256947 0.05563401
v 0.00457357 -0.04596034 0.05452931
v 0.02722975 -0.03403917 0.04480773
v 0.03456741 -0.02730964 0.04652870
v 0.03505136 -0.02808369 0.05790437
v 0.02726118 -0.03608526 0.05697494
v -0.02058596 -0.04227887 0.06730319
v -0.00856109 -0.04582415 0.06781088
v -0.00838924 -0.04238448 0.08062343
v -0.01961472 -0.03940127 0.07979642
v 0.00421854 -0.04549534 0.06839192
v 0.01645925 -0.04256876 0.06912284
v 0.01523654 -0.03970295 0.08177161
v 0.00364365 -0.04251308 0.08139263
v 0.02643554 -0.03599634 0.06968086
v 0.03383091 -0.02756791 0.07007435
v 0.03264230 -0.02695012 0.08183272
v 0.02492308 -0.03401816 0.08169665
v -0.01877810 -0.03564215 0.09071241
v -0.00849246 -0.03804312 0.09226457
v 0.00301187 -0.03802296 0.09331052
v 0.01429040 -0.03586309 0.09339737
v 0.02354020 -0.03110578 0.09246393
v 0.03063947 -0.02564338 0.09189278
v 0.03938764 -0.01870336 0.04583939
v 0.04246219 -0.00784503 0.04466250
v 0.04411148 -0.00754020 0.05777595
v 0.04039238 -0.01848262 0.05798930
v 0.04282628 0.00459495 0.04430212
v 0.04114064 0.01704577 0.04501944
v 0.04235242 0.01652951 0.05826550
v 0.04498048 0.00458776 0.05780225
v 0.03585845 0.02719806 0.04675982
v 0.02902368 0.03440564 0.04790274
v 0.02972941 0.03528599 0.05935581
v 0.03708614 0.02699266 0.05900347
v 0.03963428 -0.01819072 0.07045268
v 0.04372715 -0.00755992 0.07081918
v 0.04101520 -0.00765303 0.08310047
v 0.03768372 -0.01794663 0.08230909
v 0.04399624 0.00424562 0.07103839
v 0.04148415 0.01579652 0.07128386
v 0.03863808 0.01472476 0.08347573
v 0.04128256 0.00369569 0.08352983
v 0.03634451 0.02603884 0.07153483
v 0.02815620 0.03338530 0.07143449
v 0.02678595 0.03164205 0.08300076
v 0.03421497 0.02466539 0.08337168
v 0.03461367 -0.01776008 0.09294335
v 0.03795026 -0.00824218 0.09467927
v 0.03711048 0.00290074 0.09514182
v 0.03437887 0.01354835 0.09451183
v 0.03014847 0.02249779 0.09337699
v 0.02433548 0.02869081 0.09243913
v 0.02079651 0.03991033 0.04647572
v 0.01007559 0.04401783 0.04430376
v 0.00967876 0.04651842 0.05800158
v 0.02040074 0.04131182 0.05889111
v -0.00275129 0.04502263 0.04294940
v -0.01547328 0.04266711 0.04325738
v -0.01523818 0.04441221 0.05734005
v -0.00290673 0.04685834 0.05739119
v -0.02613239 0.03768375 0.04472327
v -0.02626977 0.03946897 0.05763498
v 0.01969629 0.04044790 0.07172290
v 0.00892362 0.04438375 0.07159423
v 0.00828244 0.04090667 0.08401024
v 0.01822770 0.03703823 0.08334603
v -0.00292900 0.04534861 0.07143599
v -0.01465938 0.04312593 0.07115574
v -0.01374024 0.03942366 0.08364701
v -0.00283856 0.04208560 0.08424819
v -0.02524101 0.03825413 0.07089389
v -0.02375699 0.03538726 0.08307699
v 0.01703477 0.03304372 0.09351184
v 0.00809698 0.03697616 0.09533029
v -0.00269063 0.03722922 0.09571424
v -0.01312992 0.03502664 0.09480643
v -0.02185964 0.03088103 0.09310331
f 1 2 3
f 1 3 4
f 2 5 6
f 2 6 3
f 7 8 3
f 7 3 6
f 8 9 4
f 8 4 3
f 9 8 10
f 9 10 11
f 8 7 12
f 8 12 10
f 13 14 10
f 13 10 12
f 14 15 11
f 14 11 10
f 15 14 16
f 15 16 17
f 14 13 18
f 14 18 16
f 19 20 16
f 19 16 18
f 20 21 17
f 20 17 16
f 5 22 23
f 5 23 6
f 22 24 25
f 22 25 23
f 26 27 23
f 26 23 25
f 27 7 6
f 27 6 23
f 7 27 28
f 7 28 12
f 27 26 29
f 27 29 28
f 30 31 28
f 30 28 29
f 31 13 12
f 31 12 28
f 13 31 32
f 13 32 18
f 31 30 33
f 31 33 32
f 34 35 32
f 34 32 33
f 35 19 18
f 35 18 32
f 24 36 37
f 24 37 25
f 36 38 39
f 36 39 37
f 40 41 37
f 40 37 39
f 41 26 25
f 41 25 37
f 26 41 42
f 26 42 29
f 41 40 43
f 41 43 42
f 44 45 42
f 44 42 43
f 45 30 29
f 45 29 42
f 30 45 46
f 30 46 33
f 45 44 47
f 45 47 46
f 48 49 46
f 48 46 47
f 49 34 33
f 49 33 46
f 50 51 52
f 50 52 53
f 51 54 55
f 51 55 52
f 56 57 52
f 56 52 55
f 57 58 53
f 57 53 52
f 54 59 60
f 54 60 55
f 59 61 62
f 59 62 60
f 63 64 60
f 63 60 62
f 64 56 55
f 64 55 60
f 61 65 66
f 61 66 62
f 65 67 68
f 65 68 66
f 69 70 66
f 69 66 68
f 70 63 62
f 70 62 66
f 58 57 71
f 58 71 72
f 57 56 73
f 57 73 71
f 74 75 71
f 74 71 73
f 75 76 72
f 75 72 71
f 56 64 77
f 56 77 73
f 64 63 78
f 64 78 77
f 79 80 77
f 79 77 78
f 80 74 73
f 80 73 77
f 63 70 81
f 63 81 78
f 70 69 82
f 70 82 81
f 83 84 81
f 83 81 82
f 84 79 78
f 84 78 81
f 76 75 85
f 76 85 86
f 75 74 87
f 75 87 85
f 88 89 85
f 88 85 87
f 89 90 86
f 89 86 85
f 74 80 91
f 74 91 87
f 80 79 92
f 80 92 91
f 93 94 91
f 93 91 92
f 94 88 87
f 94 87 91
f 79 84 95
f 79 95 92
f 84 83 96
f 84 96 95
f 97 98 95
f 97 95 96
f 98 93 92
f 98 92 95
f 1 4 99
f 1 99 100
f 4 9 101
f 4 101 99
f 102 103 99
f 102 99 101
f 103 104 100
f 103 100 99
f 9 11 105
f 9 105 101
f 11 15 106
f 11 106 105
f 107 108 105
f 107 105 106
f 108 102 101
f 108 101 105
f 15 17 109
f 15 109 106
f 17 21 110
f 17 110 109
f 111 112 109
f 111 109 110
f 112 107 106
f 112 106 109
f 104 103 113
f 104 113 114
f 103 102 115
f 103 115 113
f 116 117 113
f 116 113 115
f 117 118 114
f 117 114 113
f 102 108 119
f 102 119 115
f 108 107 120
f 108 120 119
f 121 122 119
f 121 119 120
f 122 116 115
f 122 115 119
f 107 112 123
f 107 123 120
f 112 111 124
f 112 124 123
f 125 126 123
f 125 123 124
f 126 121 120
f 126 120 123
f 118 117 127
f 118 127 128
f 117 116 129
f 117 129 127
f 54 51 127
f 54 127 129
f 51 50 128
f 51 128 127
f 116 122 130
f 116 130 129
f 122 121 131
f 122 131 130
f 61 59 130
f 61 130 131
f 59 54 129
f 59 129 130
f 121 126 132
f 121 132 131
f 126 125 133
f 126 133 132
f 67 65 132
f 67 132 133
f 65 61 131
f 65 131 132
f 21 20 134
f 21 134 110
f 20 19 135
f 20 135 134
f 136 137 134
f 136 134 135
f 137 111 110
f 137 110 134
f 19 35 138
f 19 138 135
f 35 34 139
f 35 139 138
f 140 141 138
f 140 138 139
f 141 136 135
f 141 135 138
f 34 49 142
f 34 142 139
f 49 48 143
f 49 143 142
f 144 145 142
f 144 142 143
f 145 140 139
f 145 139 142
f 111 137 146
f 111 146 124
f 137 136 147
f 137 147 146
f 148 149 146
f 148 146 147
f 149 125 124
f 149 124 146
f 136 141 150
f 136 150 147
f 141 140 151
f 141 151 150
f 152 153 150
f 152 150 151
f 153 148 147
f 153 147 150
f 140 145 154
f 140 154 151
f 145 144 155
f 145 155 154
f 156 157 154
f 156 154 155
f 157 152 151
f 157 151 154
f 125 149 158
f 125 158 133
f 149 148 159
f 149 159 158
f 69 68 158
f 69 158 159
f 68 67 133
f 68 133 158
f 148 153 160
f 148 160 159
f 153 152 161
f 153 161 160
f 83 82 160
f 83 160 161
f 82 69 159
f 82 159 160
f 152 157 162
f 152 162 161
f 157 156 163
f 157 163 162
f 97 96 162
f 97 162 163
f 96 83 161
f 96 161 162
f 48 47 164
f 48 164 143
f 47 44 165
f 47 165 164
f 166 167 164
f 166 164 165
f 167 144 143
f 167 143 164
f 44 43 168
f 44 168 165
f 43 40 169
f 43 169 168
f 170 171 168
f 170 168 169
f 171 166 165
f 171 165 168
f 40 39 172
f 40 172 169
f 39 38 173
f 39 173 172
f 174 175 172
f 174 172 173
f 175 170 169
f 175 169 172
f 144 167 176
f 144 176 155
f 167 166 177
f 167 177 176
f 178 179 176
f 178 176 177
f 179 156 155
f 179 155 176
f 166 171 180
f 166 180 177
f 171 170 181
f 171 181 180
f 182 183 180
f 182 180 181
f 183 178 177
f 183 177 180
f 170 175 184
f 170 184 181
f 175 174 185
f 175 185 184
f 186 187 184
f 186 184 185
f 187 182 181
f 187 181 184
f 156 179 188
f 156 188 163
f 179 178 189
f 179 189 188
f 93 98 188
f 93 188 189
f 98 97 163
f 98 163 188
f 178 183 190
f 178 190 189
f 183 182 191
f 183 191 190
f 88 94 190
f 88 190 191
f 94 93 189
f 94 189 190
f 182 187 192
f 182 192 191
f 187 186 193
f 187 193 192
f 90 89 192
f 90 192 193
f 89 88 191
f 89 191 192
f 38 36 194
f 38 194 173
f 36 24 195
f 36 195 194
f 196 197 194
f 196 194 195
f 197 174 173
f 197 173 194
f 24 22 198
f 24 198 195
f 22 5 199
f 22 199 198
f 200 201 198
f 200 198 199
f 201 196 195
f 201 195 198
f 5 2 202
f 5 202 199
f 2 1 100
f 2 100 202
f 104 203 202
f 104 202 100
f 203 200 199
f 203 199 202
f 174 197 204
f 174 204 185
f 197 196 205
f 197 205 204
f 206 207 204
f 206 204 205
f 207 186 185
f 207 185 204
f 196 201 208
f 196 208 205
f 201 200 209
f 201 209 208
f 210 211 208
f 210 208 209
f 211 206 205
f 211 205 208
f 200 203 212
f 200 212 209
f 203 104 114
f 203 114 212
f 118 213 212
f 118 212 114
f 213 210 209
f 213 209 212
f 186 207 214
f 186 214 193
f 207 206 215
f 207 215 214
f 76 86 214
f 76 214 215
f 86 90 193
f 86 193 214
f 206 211 216
f 206 216 215
f 211 210 217
f 211 217 216
f 58 72 216
f 58 216 217
f 72 76 215
f 72 215 216
f 210 213 218
f 210 218 217
f 213 118 128
f 213 128 218
f 50 53 218
f 50 218 128
f 53 58 217
f 53 217 218