# https://github.com/mikedh/trimesh
v 0.01793141 0.00581494 0.03089117
v 0.01927544 0.01602391 0.03089117
v 0.01793141 0.00581494 0.00000000
v 0.01927544 0.01602391 0.00000000
v 0.00906648 0.01736794 0.03089117
v 0.00772245 0.00715898 0.03089117
v 0.00906648 0.01736794 0.00000000
v 0.00772245 0.00715898 0.00000000
v -0.00528493 0.00850301 0.03089117
v -0.00662896 0.01871198 0.03089117
v -0.00528493 0.00850301 0.00000000
v -0.00662896 0.01871198 0.00000000
v -0.01683793 0.01736794 0.03089117
v -0.01549389 0.00715898 0.03089117
v -0.01683793 0.01736794 0.00000000
v -0.01549389 0.00715898 0.00000000
v 0.01857599 -0.05251779 0.03089117
v 0.02125809 -0.03730686 0.03089117
v 0.01857599 -0.05251779 0.00000000
v 0.02125809 -0.03730686 0.00000000
v 0.01111747 -0.03551880 0.03089117
v 0.00843537 -0.05072973 0.03089117
v 0.01111747 -0.03551880 0.00000000
v 0.00843537 -0.05072973 0.00000000
v -0.00606619 -0.04894166 0.03089117
v -0.00874829 -0.03373073 0.03089117
v -0.00606619 -0.04894166 0.00000000
v -0.00874829 -0.03373073 0.00000000
v -0.01888891 -0.03551880 0.03089117
v -0.01620682 -0.05072973 0.03089117
v -0.01888891 -0.03551880 0.00000000
v -0.01620682 -0.05072973 0.00000000
v -0.01350527 0.01417961 0.08668831
v -0.01396806 0.02412580 0.08931290
v -0.01264170 0.01551215 0.08179077
v -0.01310449 0.02545834 0.08441536
v -0.01903837 0.02412580 0.08841887
v -0.01857558 0.01417961 0.08579428
v -0.01817480 0.02545834 0.08352132
v -0.01771201 0.01551215 0.08089674
v 0.01184628 0.01417961 0.09115848
v 0.01138350 0.02412580 0.09378306
v 0.01270985 0.01551215 0.08626093
v 0.01224706 0.02545834 0.08888552
v 0.00631319 0.02412580 0.09288903
v 0.00677597 0.01417961 0.09026444
v 0.00717675 0.02545834 0.08799149
v 0.00763954 0.01551215 0.08536690
v 0.01294124 0.01053905 0.08494864
v 0.01109010 0.05032382 0.09544698
v 0.01984979 0.02119935 0.04576829
v 0.01799865 0.06098412 0.05626663
v -0.01933176 0.05032382 0.09008279
v -0.01748062 0.01053905 0.07958444
v -0.01242321 0.06098412 0.05090244
v -0.01057207 0.02119935 0.04040410
v 0.02185692 0.02446985 0.06707039
v 0.02185692 0.02984599 0.02623453
v 0.02185692 -0.05720186 0.05631810
v 0.02185692 -0.05182572 0.01548225
v -0.01933131 0.02984599 0.02623453
v -0.01933131 0.02446985 0.06707039
v -0.01933131 -0.05182572 0.01548225
v -0.01933131 -0.05720186 0.05631810
f 1 3 2
f 3 4 2
f 5 7 6
f 7 8 6
f 5 6 2
f 6 1 2
f 8 7 3
f 7 4 3
f 6 8 1
f 8 3 1
f 2 4 5
f 4 7 5
f 9 11 10
f 11 12 10
f 13 15 14
f 15 16 14
f 13 14 10
f 14 9 10
f 16 15 11
f 15 12 11
f 14 16 9
f 16 11 9
f 10 12 13
f 12 15 13
f 17 19 18
f 19 20 18
f 21 23 22
f 23 24 22
f 21 22 18
f 22 17 18
f 24 23 19
f 23 20 19
f 22 24 17
f 24 19 17
f 18 20 21
f 20 23 21
f 25 27 26
f 27 28 26
f 29 31 30
f 31 32 30
f 29 30 26
f 30 25 26
f 32 31 27
f 31 28 27
f 30 32 25
f 32 27 25
f 26 28 29
f 28 31 29
f 33 35 34
f 35 36 34
f 37 39 38
f 39 40 38
f 37 38 34
f 38 33 34
f 40 39 35
f 39 36 35
f 38 40 33
f 40 35 33
f 34 36 37
f 36 39 37
f 41 43 42
f 43 44 42
f 45 47 46
f 47 48 46
f 45 46 42
f 46 41 42
f 48 47 43
f 47 44 43
f 46 48 41
f 48 43 41
f 42 44 45
f 44 47 45
f 49 51 50
f 51 52 50
f 53 55 54
f 55 56 54
f 53 54 50
f 54 49 50
f 56 55 51
f 55 52 51
f 54 56 49
f 56 51 49
f 50 52 53
f 52 55 53
f 57 59 58
f 59 60 58
f 61 63 62
f 63 64 62
f 61 62 58
f 62 57 58
f 64 63 59
f 63 60 59
f 62 64 57
f 64 59 57
f 58 60 61
f 60 63 61
f 2 4 3
f 3 1 2
f 6 8 7
f 7 5 6
f 2 1 6
f 6 5 2
f 3 4 7
f 7 8 3
f 1 3 8
f 8 6 1
f 5 7 4
f 4 2 5
f 10 12 11
f 11 9 10
f 14 16 15
f 15 13 14
f 10 9 14
f 14 13 10
f 11 12 15
f 15 16 11
f 9 11 16
f 16 14 9
f 13 15 12
f 12 10 13
f 18 20 19
f 19 17 18
f 22 24 23
f 23 21 22
f 18 17 22
f 22 21 18
f 19 20 23
f 23 24 19
f 17 19 24
f 24 22 17
f 21 23 20
f 20 18 21
f 26 28 27
f 27 25 26
f 30 32 31
f 31 29 30
f 26 25 30
f 30 29 26
f 27 28 31
f 31 32 27
f 25 27 32
f 32 30 25
f 29 31 28
f 28 26 29
f 34 36 35
f 35 33 34
f 38 40 39
f 39 37 38
f 34 33 38
f 38 37 34
f 35 36 39
f 39 40 35
f 33 35 40
f 40 38 33
f 37 39 36
f 36 34 37
f 42 44 43
f 43 41 42
f 46 48 47
f 47 45 46
f 42 41 46
f 46 45 42
f 43 44 47
f 47 48 43
f 41 43 48
f 48 46 41
f 45 47 44
f 44 42 45
f 50 52 51
f 51 49 50
f 54 56 55
f 55 53 54
f 50 49 54
f 54 53 50
f 51 52 55
f 55 56 51
f 49 51 56
f 56 54 49
f 53 55 52
f 52 50 53
f 58 60 59
f 59 57 58
f 62 64 63
f 63 61 62
f 58 57 62
f 62 61 58
f 59 60 63
f 63 64 59
f 57 59 64
f 64 62 57
f 61 63 60
f 60 58 61