# https://github.com/mikedh/trimesh
v 0.01441874 0.00477543 0.00000000
v 0.01301631 0.00939865 0.00000000
v 0.01613675 0.00511715 0.00050787
v 0.01463463 0.01006898 0.00050787
v 0.01073886 0.01365944 0.00000000
v 0.01219532 0.01463260 0.00050787
v 0.00767395 0.01739405 0.00000000
v 0.00891257 0.01863266 0.00050787
v 0.00393935 0.02045897 0.00000000
v 0.00491252 0.02191542 0.00050787
v -0.00032145 0.02273642 0.00000000
v 0.00034889 0.02435473 0.00050787
v -0.00494467 0.02413887 0.00000000
v -0.00460293 0.02585685 0.00050787
v -0.00975266 0.02461240 0.00000000
v -0.00975266 0.02636406 0.00050787
v -0.01456066 0.02413887 0.00000000
v -0.01490238 0.02585686 0.00050787
v -0.01918388 0.02273643 0.00000000
v -0.01985421 0.02435474 0.00050787
v -0.02344468 0.02045899 0.00000000
v -0.02441784 0.02191544 0.00050787
v -0.02717929 0.01739407 0.00000000
v -0.02841790 0.01863268 0.00050787
v -0.03024421 0.01365946 0.00000000
v -0.03170066 0.01463263 0.00050787
v -0.03252166 0.00939867 0.00000000
v -0.03413997 0.01006900 0.00050787
v -0.03392410 0.00477544 0.00000000
v -0.03564209 0.00511717 0.00050787
v -0.03439764 -0.00003255 0.00000000
v -0.03614930 -0.00003255 0.00050787
v -0.03392411 -0.00484055 0.00000000
v -0.03564210 -0.00518228 0.00050787
v -0.03252167 -0.00946377 0.00000000
v -0.03413998 -0.01013411 0.00050787
v -0.03024422 -0.01372457 0.00000000
v -0.03170067 -0.01469774 0.00050787
v -0.02717931 -0.01745918 0.00000000
v -0.02841791 -0.01869779 0.00050787
v -0.02344469 -0.02052410 0.00000000
v -0.02441786 -0.02198056 0.00050787
v -0.01918390 -0.02280155 0.00000000
v -0.01985423 -0.02441987 0.00050787
v -0.01456068 -0.02420400 0.00000000
v -0.01490240 -0.02592199 0.00050787
v -0.00975268 -0.02467753 0.00000000
v -0.00975267 -0.02642920 0.00050787
v -0.00494468 -0.02420400 0.00000000
v -0.00460294 -0.02592200 0.00050787
v -0.00032145 -0.02280156 0.00000000
v 0.00034888 -0.02441988 0.00050787
v 0.00393935 -0.02052411 0.00000000
v 0.00491251 -0.02198057 0.00050787
v 0.00767396 -0.01745919 0.00000000
v 0.00891257 -0.01869781 0.00050787
v 0.01073888 -0.01372458 0.00000000
v 0.01219534 -0.01469775 0.00050787
v 0.01301633 -0.00946378 0.00000000
v 0.01463465 -0.01013412 0.00050787
v 0.01441877 -0.00484056 0.00000000
v 0.01613677 -0.00518229 0.00050787
v 0.01489231 -0.00003256 0.00000000
v 0.01664398 -0.00003256 0.00050787
v 0.01613675 0.00511715 0.00134195
v 0.01463463 0.01006898 0.00134195
v 0.01219532 0.01463260 0.00134195
v 0.00891257 0.01863266 0.00134195
v 0.00491252 0.02191542 0.00134195
v 0.00034889 0.02435473 0.00134195
v -0.00460293 0.02585685 0.00134195
v -0.00975266 0.02636406 0.00134195
v -0.01490238 0.02585686 0.00134195
v -0.01985421 0.02435475 0.00134195
v -0.02441784 0.02191544 0.00134195
v -0.02841790 0.01863268 0.00134195
v -0.03170066 0.01463263 0.00134195
v -0.03413997 0.01006900 0.00134195
v -0.03564210 0.00511717 0.00134195
v -0.03614930 -0.00003255 0.00134195
v -0.03564210 -0.00518228 0.00134195
v -0.03413999 -0.01013411 0.00134195
v -0.03170067 -0.01469774 0.00134195
v -0.02841792 -0.01869779 0.00134195
v -0.02441786 -0.02198056 0.00134195
v -0.01985423 -0.02441988 0.00134195
v -0.01490240 -0.02592199 0.00134195
v -0.00975267 -0.02642920 0.00134195
v -0.00460294 -0.02592200 0.00134195
v 0.00034888 -0.02441988 0.00134195
v 0.00491252 -0.02198057 0.00134195
v 0.00891257 -0.01869781 0.00134195
v 0.01219534 -0.01469775 0.00134195
v 0.01463465 -0.01013412 0.00134195
v 0.01613677 -0.00518229 0.00134195
v 0.01664398 -0.00003256 0.00134195
v 0.01613675 0.00511715 0.08849668
v 0.01463463 0.01006898 0.08849668
v 0.01481062 0.00485337 0.08849669
v 0.01338545 0.00955155 0.08849669
v 0.01219532 0.01463260 0.08849668
v 0.01107108 0.01388141 0.08849669
v 0.00891257 0.01863266 0.08849668
v 0.00795648 0.01767658 0.08849669
v 0.00491252 0.02191542 0.08849668
v 0.00416132 0.02079118 0.08849669
v 0.00034889 0.02435473 0.08849668
v -0.00016854 0.02310556 0.08849669
v -0.00460293 0.02585685 0.08849668
v -0.00486672 0.02453073 0.08849669
v -0.00975266 0.02636406 0.08849668
v -0.00975266 0.02501196 0.08849669
v -0.01490238 0.02585686 0.08849668
v -0.01463861 0.02453074 0.08849669
v -0.01985421 0.02435474 0.08849668
v -0.01933678 0.02310557 0.08849669
v -0.02441784 0.02191544 0.08849668
v -0.02366665 0.02079120 0.08849669
v -0.02841790 0.01863268 0.08849668
v -0.02746182 0.01767660 0.08849669
v -0.03170066 0.01463263 0.08849668
v -0.03057642 0.01388144 0.08849669
v -0.03413997 0.01006900 0.08849668
v -0.03289080 0.00955157 0.08849669
v -0.03564209 0.00511717 0.08849668
v -0.03431597 0.00485339 0.08849669
v -0.03614930 -0.00003255 0.08849668
v -0.03479719 -0.00003255 0.08849669
v -0.03564210 -0.00518228 0.08849668
v -0.03431598 -0.00491849 0.08849669
v -0.03413998 -0.01013411 0.08849668
v -0.03289081 -0.00961667 0.08849669
v -0.03170067 -0.01469774 0.08849668
v -0.03057644 -0.01394654 0.08849669
v -0.02841791 -0.01869779 0.08849668
v -0.02746184 -0.01774170 0.08849669
v -0.02441786 -0.02198056 0.08849668
v -0.02366667 -0.02085631 0.08849669
v -0.01985423 -0.02441987 0.08849668
v -0.01933680 -0.02317069 0.08849669
v -0.01490240 -0.02592199 0.08849668
v -0.01463862 -0.02459586 0.08849669
v -0.00975267 -0.02642920 0.08849668
v -0.00975268 -0.02507709 0.08849669
v -0.00460294 -0.02592200 0.08849668
v -0.00486673 -0.02459587 0.08849669
v 0.00034888 -0.02441988 0.08849668
v -0.00016855 -0.02317070 0.08849669
v 0.00491251 -0.02198057 0.08849668
v 0.00416132 -0.02085632 0.08849669
v 0.00891257 -0.01869781 0.08849668
v 0.00795649 -0.01774173 0.08849669
v 0.01219534 -0.01469775 0.08849668
v 0.01107109 -0.01394655 0.08849669
v 0.01463465 -0.01013412 0.08849668
v 0.01338547 -0.00961669 0.08849669
v 0.01613677 -0.00518229 0.08849668
v 0.01481064 -0.00491851 0.08849669
v 0.01664398 -0.00003256 0.08849668
v 0.01529053 -0.00003271 0.08849706
v 0.01529053 -0.00003271 0.08849706
v 0.01481062 0.00485337 0.08849668
v 0.01338545 0.00955155 0.08849668
v 0.01107108 0.01388141 0.08849668
v 0.00795648 0.01767658 0.08849668
v 0.00416132 0.02079118 0.08849668
v -0.00016854 0.02310556 0.08849668
v -0.00486672 0.02453073 0.08849668
v -0.00975266 0.02501196 0.08849668
v -0.01463861 0.02453074 0.08849668
v -0.01933678 0.02310557 0.08849668
v -0.02366665 0.02079120 0.08849668
v -0.02746182 0.01767660 0.08849668
v -0.03057642 0.01388144 0.08849668
v -0.03289080 0.00955157 0.08849668
v -0.03431597 0.00485339 0.08849668
v -0.03479719 -0.00003255 0.08849668
v -0.03431598 -0.00491849 0.08849668
v -0.03289081 -0.00961667 0.08849668
v -0.03057644 -0.01394654 0.08849668
v -0.02746184 -0.01774170 0.08849668
v -0.02366667 -0.02085631 0.08849668
v -0.01933680 -0.02317069 0.08849668
v -0.01463862 -0.02459586 0.08849668
v -0.00975268 -0.02507709 0.08849668
v -0.00486673 -0.02459587 0.08849668
v -0.00016855 -0.02317070 0.08849668
v 0.00416132 -0.02085632 0.08849668
v 0.00795649 -0.01774173 0.08849668
v 0.01107109 -0.01394655 0.08849668
v 0.01338547 -0.00961669 0.08849668
v 0.01481064 -0.00491851 0.08849668
v -0.00016855 -0.02317070 0.00368806
v 0.00416132 -0.02085632 0.00368806
v -0.00486673 -0.02459587 0.00368805
v 0.00795649 -0.01774173 0.00368806
v 0.01107109 -0.01394655 0.00368806
v 0.01338547 -0.00961669 0.00368806
v 0.01481064 -0.00491851 0.00368806
v 0.01529186 -0.00003256 0.00368806
v 0.01481062 0.00485337 0.00368806
v 0.01338545 0.00955155 0.00368806
v 0.01107108 0.01388141 0.00368806
v 0.00795648 0.01767658 0.00368806
v 0.00416132 0.02079118 0.00368806
v -0.00016854 0.02310556 0.00368806
v -0.00486672 0.02453073 0.00368806
v -0.00975266 0.02501196 0.00368806
v -0.01463861 0.02453074 0.00368806
v -0.01933678 0.02310557 0.00368806
v -0.02366665 0.02079120 0.00368806
v -0.02746182 0.01767660 0.00368806
v -0.03057642 0.01388144 0.00368806
v -0.03289080 0.00955157 0.00368806
v -0.03431597 0.00485339 0.00368806
v -0.03479719 -0.00003255 0.00368806
v -0.03431598 -0.00491849 0.00368806
v -0.03289081 -0.00961667 0.00368806
v -0.03057644 -0.01394654 0.00368806
v -0.02746184 -0.01774170 0.00368806
v -0.02366667 -0.02085631 0.00368806
v -0.01933680 -0.02317069 0.00368806
v -0.01463862 -0.02459587 0.00368805
v -0.00975268 -0.02507709 0.00368805
v 0.01338545 0.00955155 0.08760581
v 0.01107108 0.01388141 0.08760581
v 0.00795648 0.01767658 0.08760581
v 0.00416132 0.02079118 0.08760581
v -0.00016854 0.02310556 0.08760581
v -0.01933678 0.02310557 0.08760581
v -0.02366665 0.02079120 0.08760581
v -0.02746182 0.01767660 0.08760581
v -0.03057642 0.01388144 0.08760581
v -0.03289080 0.00955157 0.08760581
v -0.00486672 0.02453073 0.08760581
v -0.00975266 0.02501196 0.08760581
v -0.01463861 0.02453074 0.08760581
v -0.03431597 0.00485339 0.08760581
v -0.03479719 -0.00003255 0.08760581
v -0.03431598 -0.00491849 0.08760581
v -0.03289081 -0.00961668 0.08760581
v 0.01529186 -0.00003256 0.08760581
v 0.01481062 0.00485337 0.08760581
v 0.01338547 -0.00961669 0.08760581
v 0.01481064 -0.00491851 0.08760581
v -0.03057644 -0.01394654 0.08760581
v -0.02746184 -0.01774170 0.08760581
v -0.02366667 -0.02085631 0.08760581
v -0.01933680 -0.02317069 0.08760581
v -0.01463862 -0.02459586 0.08760581
v -0.00975268 -0.02507709 0.08760581
v -0.00486673 -0.02459587 0.08760581
v -0.00016855 -0.02317070 0.08760581
v 0.00416132 -0.02085632 0.08760581
v 0.00795649 -0.01774173 0.08760581
v 0.01107109 -0.01394656 0.08760581
v 0.00034888 -0.02441988 0.08767325
v 0.00491251 -0.02198057 0.08767325
v -0.00460294 -0.02592200 0.08767325
v -0.00975267 -0.02642920 0.08767325
v -0.01490240 -0.02592199 0.08767325
v -0.01985423 -0.02441987 0.08767325
v -0.02441786 -0.02198056 0.08767325
v -0.02841791 -0.01869779 0.08767325
v -0.03170067 -0.01469774 0.08767325
v -0.03413998 -0.01013411 0.08767325
v -0.03564210 -0.00518228 0.08767325
v -0.03614930 -0.00003255 0.08767325
v -0.03564209 0.00511717 0.08767325
v -0.03413997 0.01006900 0.08767325
v -0.03170066 0.01463263 0.08767325
v -0.02841790 0.01863268 0.08767325
v -0.02441784 0.02191544 0.08767325
v -0.01985421 0.02435474 0.08767325
v -0.01490238 0.02585686 0.08767325
v -0.00975266 0.02636406 0.08767325
v -0.00460293 0.02585685 0.08767325
v 0.00034889 0.02435473 0.08767325
v 0.00491252 0.02191542 0.08767325
v 0.00891257 0.01863266 0.08767325
v 0.01219532 0.01463260 0.08767325
v 0.01463463 0.01006898 0.08767325
v 0.01613675 0.00511715 0.08767325
v 0.01664398 -0.00003256 0.08767325
v 0.01613677 -0.00518229 0.08767325
v 0.01463465 -0.01013412 0.08767325
v 0.01219534 -0.01469775 0.08767325
v 0.00891257 -0.01869781 0.08767325
v -0.02366667 -0.02085631 0.00453656
v -0.01933680 -0.02317069 0.00453656
v -0.02746184 -0.01774170 0.00453656
v -0.03057644 -0.01394654 0.00453656
v -0.03289081 -0.00961667 0.00453656
v -0.03431598 -0.00491849 0.00453656
v -0.03479720 -0.00003255 0.00453656
v -0.03431597 0.00485339 0.00453656
v -0.03289080 0.00955157 0.00453656
v -0.03057642 0.01388144 0.00453656
v -0.02746182 0.01767660 0.00453656
v -0.02366665 0.02079120 0.00453656
v -0.01933678 0.02310557 0.00453656
v -0.01463861 0.02453074 0.00453656
v -0.00975266 0.02501196 0.00453656
v -0.00486672 0.02453073 0.00453656
v -0.00016854 0.02310556 0.00453656
v 0.00416132 0.02079118 0.00453656
v 0.00795648 0.01767658 0.00453656
v 0.01107108 0.01388141 0.00453656
v 0.01338545 0.00955155 0.00453656
v 0.01481062 0.00485337 0.00453656
v 0.01529186 -0.00003256 0.00453656
v 0.01481064 -0.00491851 0.00453656
v 0.01338547 -0.00961669 0.00453656
v 0.01107109 -0.01394655 0.00453656
v 0.00795649 -0.01774173 0.00453656
v 0.00416132 -0.02085632 0.00453656
v -0.00016855 -0.02317070 0.00453656
v -0.00486673 -0.02459587 0.00453654
v -0.00975268 -0.02507709 0.00453654
v -0.01463862 -0.02459587 0.00453654
v -0.00460294 -0.02592200 0.04450760
v -0.00975267 -0.02642920 0.04450760
v -0.01490240 -0.02592199 0.04450760
v -0.01985423 -0.02441988 0.04450760
v -0.02441786 -0.02198056 0.04450760
v -0.02841791 -0.01869779 0.04450760
v -0.03170067 -0.01469774 0.04450760
v -0.03413999 -0.01013411 0.04450760
v -0.03564210 -0.00518228 0.04450760
v -0.03614930 -0.00003255 0.04450760
v -0.03564209 0.00511717 0.04450760
v -0.03413997 0.01006900 0.04450760
v -0.03170066 0.01463263 0.04450760
v -0.02841790 0.01863268 0.04450760
v -0.02441784 0.02191544 0.04450760
v -0.01985421 0.02435475 0.04450760
v -0.01490238 0.02585686 0.04450760
v -0.00975266 0.02636406 0.04450760
v -0.00460293 0.02585685 0.04450760
v 0.00034889 0.02435473 0.04450760
v 0.00491252 0.02191542 0.04450760
v 0.00891257 0.01863266 0.04450760
v 0.01219532 0.01463260 0.04450760
v 0.01463463 0.01006898 0.04450760
v 0.01613675 0.00511715 0.04450760
v 0.01613677 -0.00518229 0.04450760
v 0.01463465 -0.01013412 0.04450760
v 0.01219534 -0.01469775 0.04450760
v 0.00891257 -0.01869781 0.04450760
v 0.00491251 -0.02198057 0.04450760
v 0.00034888 -0.02441988 0.04450760
v 0.01624087 0.00348618 0.02432907
v 0.01624087 -0.00356077 0.02433133
v 0.01603254 -0.00355131 0.01662444
v 0.01653975 -0.00002783 0.01662576
v 0.01603254 0.00349564 0.01662218
v 0.01603326 -0.00356251 0.07704111
v 0.01654046 -0.00002786 0.07703980
v 0.01624016 -0.00357190 0.06909073
v 0.01624016 0.00349738 0.06909298
v 0.01603325 0.00350677 0.07704335
v 0.02975719 -0.00150619 0.07104554
v 0.03111644 -0.00150619 0.06975279
v 0.03559451 -0.00340625 0.07731918
v 0.03756157 -0.00340625 0.07648529
v 0.03846108 -0.00002722 0.07796232
v 0.03639289 -0.00002722 0.07884557
v 0.03756325 0.00335150 0.07648668
v 0.03559608 0.00335150 0.07732064
v 0.02975872 0.00143080 0.07104696
v 0.03111806 0.00143081 0.06975413
v 0.01760643 -0.00150620 0.02479256
v 0.01648409 -0.00150621 0.02442674
v 0.01746489 -0.00340629 0.01958125
v 0.01602327 -0.00340629 0.01798328
v 0.01595882 -0.00002726 0.01591973
v 0.01746430 -0.00002725 0.01761204
v 0.01602327 0.00335146 0.01798082
v 0.01746504 0.00335147 0.01957888
v 0.01760657 0.00143079 0.02479026
v 0.01648409 0.00143079 0.02442435
v 0.02863744 -0.00150619 0.02650127
v 0.03176627 -0.00340625 0.02327156
v 0.02930141 -0.00150619 0.02729818
v 0.03245093 -0.00340625 0.02424659
v 0.03239156 -0.00002722 0.02152619
v 0.03311632 -0.00002722 0.02255774
v 0.03176795 0.00335150 0.02327017
v 0.03245261 0.00335150 0.02424528
v 0.02863907 0.00143081 0.02649992
v 0.02930303 0.00143081 0.02729691
v 0.01773879 -0.00002725 0.07793813
v 0.01595882 -0.00002726 0.07734815
v 0.01772234 -0.00340629 0.07661297
v 0.01602327 -0.00340629 0.07601571
v 0.01648409 -0.00150621 0.07073491
v 0.01788227 -0.00150620 0.07148914
v 0.01788240 0.00143079 0.07149145
v 0.01648409 0.00143079 0.07073729
v 0.01602327 0.00335146 0.07601817
v 0.01772248 0.00335147 0.07661535
v 0.02773289 -0.00002723 0.07850517
v 0.02726222 -0.00340627 0.07711294
v 0.02573273 -0.00150620 0.07153653
v 0.02573359 0.00143080 0.07153837
v 0.02726311 0.00335148 0.07711483
v 0.03811482 -0.00340625 0.07436206
v 0.03904673 -0.00002722 0.07571519
v 0.03149952 -0.00150619 0.06802109
v 0.03150115 0.00143081 0.06802238
v 0.03811649 0.00335150 0.07436338
v 0.03145964 -0.00002722 0.02048275
v 0.03086653 -0.00340625 0.02228656
v 0.02803994 -0.00150619 0.02571530
v 0.02804142 0.00143080 0.02571386
v 0.03086805 0.00335150 0.02228507
v 0.01921837 -0.00002725 0.01822212
v 0.01913741 -0.00340628 0.02015701
v 0.01900838 -0.00150620 0.02452337
v 0.01900864 0.00143079 0.02452115
v 0.01913767 0.00335147 0.02015472
v 0.02681405 -0.00340627 0.02000083
v 0.02726929 -0.00002724 0.01805953
v 0.02544317 -0.00150620 0.02431910
v 0.02544396 0.00143080 0.02431721
v 0.02681486 0.00335148 0.01999888
f 1 2 3
f 3 2 4
f 2 5 4
f 4 5 6
f 5 7 6
f 6 7 8
f 7 9 8
f 8 9 10
f 9 11 10
f 10 11 12
f 11 13 12
f 12 13 14
f 13 15 14
f 14 15 16
f 15 17 16
f 16 17 18
f 17 19 18
f 18 19 20
f 19 21 20
f 20 21 22
f 21 23 22
f 22 23 24
f 23 25 24
f 24 25 26
f 25 27 26
f 26 27 28
f 27 29 28
f 28 29 30
f 29 31 30
f 30 31 32
f 31 33 32
f 32 33 34
f 33 35 34
f 34 35 36
f 35 37 36
f 36 37 38
f 37 39 38
f 38 39 40
f 39 41 40
f 40 41 42
f 41 43 42
f 42 43 44
f 43 45 44
f 44 45 46
f 45 47 46
f 46 47 48
f 47 49 48
f 48 49 50
f 49 51 50
f 50 51 52
f 51 53 52
f 52 53 54
f 53 55 54
f 54 55 56
f 55 57 56
f 56 57 58
f 57 59 58
f 58 59 60
f 59 61 60
f 60 61 62
f 61 63 62
f 62 63 64
f 63 1 64
f 64 1 3
f 3 4 65
f 65 4 66
f 4 6 66
f 66 6 67
f 6 8 67
f 67 8 68
f 8 10 68
f 68 10 69
f 10 12 69
f 69 12 70
f 12 14 70
f 70 14 71
f 14 16 71
f 71 16 72
f 16 18 72
f 72 18 73
f 18 20 73
f 73 20 74
f 20 22 74
f 74 22 75
f 22 24 75
f 75 24 76
f 24 26 76
f 76 26 77
f 26 28 77
f 77 28 78
f 28 30 78
f 78 30 79
f 30 32 79
f 79 32 80
f 32 34 80
f 80 34 81
f 34 36 81
f 81 36 82
f 36 38 82
f 82 38 83
f 38 40 83
f 83 40 84
f 40 42 84
f 84 42 85
f 42 44 85
f 85 44 86
f 44 46 86
f 86 46 87
f 46 48 87
f 87 48 88
f 48 50 88
f 88 50 89
f 50 52 89
f 89 52 90
f 52 54 90
f 90 54 91
f 54 56 91
f 91 56 92
f 56 58 92
f 92 58 93
f 58 60 93
f 93 60 94
f 60 62 94
f 94 62 95
f 62 64 95
f 95 64 96
f 64 3 96
f 96 3 65
f 97 98 99
f 99 98 100
f 98 101 100
f 100 101 102
f 101 103 102
f 102 103 104
f 103 105 104
f 104 105 106
f 105 107 106
f 106 107 108
f 107 109 108
f 108 109 110
f 109 111 110
f 110 111 112
f 111 113 112
f 112 113 114
f 113 115 114
f 114 115 116
f 115 117 116
f 116 117 118
f 117 119 118
f 118 119 120
f 119 121 120
f 120 121 122
f 121 123 122
f 122 123 124
f 123 125 124
f 124 125 126
f 125 127 126
f 126 127 128
f 127 129 128
f 128 129 130
f 129 131 130
f 130 131 132
f 131 133 132
f 132 133 134
f 133 135 134
f 134 135 136
f 135 137 136
f 136 137 138
f 137 139 138
f 138 139 140
f 139 141 140
f 140 141 142
f 141 143 142
f 142 143 144
f 143 145 144
f 144 145 146
f 145 147 146
f 146 147 148
f 147 149 148
f 148 149 150
f 149 151 150
f 150 151 152
f 151 153 152
f 152 153 154
f 153 155 154
f 154 155 156
f 155 157 156
f 156 157 158
f 157 159 158
f 158 159 160
f 159 97 160
f 160 97 99
f 160 99 161
f 161 99 162
f 99 100 162
f 162 100 163
f 100 102 163
f 163 102 164
f 102 104 164
f 164 104 165
f 104 106 165
f 165 106 166
f 106 108 166
f 166 108 167
f 108 110 167
f 167 110 168
f 110 112 168
f 168 112 169
f 112 114 169
f 169 114 170
f 114 116 170
f 170 116 171
f 116 118 171
f 171 118 172
f 118 120 172
f 172 120 173
f 120 122 173
f 173 122 174
f 122 124 174
f 174 124 175
f 124 126 175
f 175 126 176
f 126 128 176
f 176 128 177
f 128 130 177
f 177 130 178
f 130 132 178
f 178 132 179
f 132 134 179
f 179 134 180
f 134 136 180
f 180 136 181
f 136 138 181
f 181 138 182
f 138 140 182
f 182 140 183
f 140 142 183
f 183 142 184
f 142 144 184
f 184 144 185
f 144 146 185
f 185 146 186
f 146 148 186
f 186 148 187
f 148 150 187
f 187 150 188
f 150 152 188
f 188 152 189
f 152 154 189
f 189 154 190
f 154 156 190
f 190 156 191
f 156 158 191
f 191 158 192
f 158 160 192
f 192 160 161
f 193 194 195
f 194 196 195
f 196 197 195
f 197 198 195
f 198 199 195
f 199 200 195
f 200 201 195
f 201 202 195
f 202 203 195
f 203 204 195
f 204 205 195
f 205 206 195
f 206 207 195
f 207 208 195
f 208 209 195
f 209 210 195
f 210 211 195
f 211 212 195
f 212 213 195
f 213 214 195
f 214 215 195
f 215 216 195
f 216 217 195
f 217 218 195
f 218 219 195
f 219 220 195
f 220 221 195
f 221 222 195
f 222 223 195
f 223 224 195
f 27 25 29
f 25 23 29
f 23 21 29
f 21 19 29
f 19 17 29
f 17 15 29
f 15 13 29
f 11 9 13
f 9 7 13
f 7 5 13
f 5 2 13
f 2 1 13
f 1 63 13
f 63 61 13
f 59 57 61
f 57 55 61
f 55 53 61
f 53 51 61
f 51 49 61
f 49 47 61
f 47 45 61
f 43 41 45
f 41 39 45
f 39 37 45
f 37 35 45
f 35 33 45
f 33 31 45
f 31 29 45
f 13 61 29
f 61 45 29
f 163 164 225
f 225 164 226
f 164 165 226
f 226 165 227
f 165 166 227
f 227 166 228
f 166 167 228
f 228 167 229
f 171 172 230
f 230 172 231
f 172 173 231
f 231 173 232
f 173 174 232
f 232 174 233
f 174 175 233
f 233 175 234
f 167 168 229
f 229 168 235
f 168 169 235
f 235 169 236
f 169 170 236
f 236 170 237
f 170 171 237
f 237 171 230
f 175 176 234
f 234 176 238
f 176 177 238
f 238 177 239
f 177 178 239
f 239 178 240
f 178 179 240
f 240 179 241
f 161 162 242
f 242 162 243
f 162 163 243
f 243 163 225
f 191 192 244
f 244 192 245
f 192 161 245
f 245 161 242
f 179 180 241
f 241 180 246
f 180 181 246
f 246 181 247
f 181 182 247
f 247 182 248
f 182 183 248
f 248 183 249
f 183 184 249
f 249 184 250
f 184 185 250
f 250 185 251
f 185 186 251
f 251 186 252
f 186 187 252
f 252 187 253
f 187 188 253
f 253 188 254
f 188 189 254
f 254 189 255
f 189 190 255
f 255 190 256
f 190 191 256
f 256 191 244
f 257 258 147
f 147 258 149
f 259 257 145
f 145 257 147
f 260 259 143
f 143 259 145
f 261 260 141
f 141 260 143
f 262 261 139
f 139 261 141
f 263 262 137
f 137 262 139
f 264 263 135
f 135 263 137
f 265 264 133
f 133 264 135
f 266 265 131
f 131 265 133
f 267 266 129
f 129 266 131
f 268 267 127
f 127 267 129
f 269 268 125
f 125 268 127
f 270 269 123
f 123 269 125
f 271 270 121
f 121 270 123
f 272 271 119
f 119 271 121
f 273 272 117
f 117 272 119
f 274 273 115
f 115 273 117
f 275 274 113
f 113 274 115
f 276 275 111
f 111 275 113
f 277 276 109
f 109 276 111
f 278 277 107
f 107 277 109
f 279 278 105
f 105 278 107
f 280 279 103
f 103 279 105
f 281 280 101
f 101 280 103
f 282 281 98
f 98 281 101
f 283 282 97
f 97 282 98
f 284 283 159
f 159 283 97
f 285 284 157
f 157 284 159
f 286 285 155
f 155 285 157
f 287 286 153
f 153 286 155
f 288 287 151
f 151 287 153
f 258 288 149
f 149 288 151
f 248 249 289
f 289 249 290
f 247 248 291
f 291 248 289
f 246 247 292
f 292 247 291
f 241 246 293
f 293 246 292
f 240 241 294
f 294 241 293
f 239 240 295
f 295 240 294
f 238 239 296
f 296 239 295
f 234 238 297
f 297 238 296
f 233 234 298
f 298 234 297
f 232 233 299
f 299 233 298
f 300 231 299
f 299 231 232
f 230 231 301
f 301 231 300
f 237 230 302
f 302 230 301
f 236 237 303
f 303 237 302
f 235 236 304
f 304 236 303
f 229 235 305
f 305 235 304
f 228 229 306
f 306 229 305
f 227 228 307
f 307 228 306
f 226 227 308
f 308 227 307
f 225 226 309
f 309 226 308
f 243 225 310
f 310 225 309
f 242 243 311
f 311 243 310
f 245 242 312
f 312 242 311
f 244 245 313
f 313 245 312
f 256 244 314
f 314 244 313
f 255 256 315
f 315 256 314
f 254 255 316
f 316 255 315
f 253 254 317
f 317 254 316
f 252 253 318
f 318 253 317
f 251 252 319
f 319 252 318
f 250 251 320
f 320 251 319
f 249 250 290
f 290 250 320
f 321 322 89
f 89 322 88
f 322 323 88
f 88 323 87
f 323 324 87
f 87 324 86
f 324 325 86
f 86 325 85
f 325 326 85
f 85 326 84
f 326 327 84
f 84 327 83
f 327 328 83
f 83 328 82
f 328 329 82
f 82 329 81
f 329 330 81
f 81 330 80
f 330 331 80
f 80 331 79
f 331 332 79
f 79 332 78
f 332 333 78
f 78 333 77
f 333 334 77
f 77 334 76
f 334 335 76
f 76 335 75
f 335 336 75
f 75 336 74
f 336 337 74
f 74 337 73
f 337 338 73
f 73 338 72
f 338 339 72
f 72 339 71
f 339 340 71
f 71 340 70
f 340 341 70
f 70 341 69
f 341 342 69
f 69 342 68
f 342 343 68
f 68 343 67
f 343 344 67
f 67 344 66
f 344 345 66
f 66 345 65
f 346 347 95
f 95 347 94
f 347 348 94
f 94 348 93
f 348 349 93
f 93 349 92
f 349 350 92
f 92 350 91
f 350 351 91
f 91 351 90
f 351 321 90
f 90 321 89
f 322 321 260
f 260 321 259
f 323 322 261
f 261 322 260
f 324 323 262
f 262 323 261
f 325 324 263
f 263 324 262
f 326 325 264
f 264 325 263
f 327 326 265
f 265 326 264
f 328 327 266
f 266 327 265
f 329 328 267
f 267 328 266
f 330 329 268
f 268 329 267
f 331 330 269
f 269 330 268
f 332 331 270
f 270 331 269
f 333 332 271
f 271 332 270
f 334 333 272
f 272 333 271
f 335 334 273
f 273 334 272
f 336 335 274
f 274 335 273
f 337 336 275
f 275 336 274
f 338 337 276
f 276 337 275
f 339 338 277
f 277 338 276
f 340 339 278
f 278 339 277
f 341 340 279
f 279 340 278
f 342 341 280
f 280 341 279
f 343 342 281
f 281 342 280
f 344 343 282
f 282 343 281
f 345 344 283
f 283 344 282
f 347 346 286
f 286 346 285
f 348 347 287
f 287 347 286
f 349 348 288
f 288 348 287
f 258 350 288
f 288 350 349
f 351 350 257
f 257 350 258
f 321 351 259
f 259 351 257
f 304 303 207
f 207 303 208
f 305 304 206
f 206 304 207
f 306 305 205
f 205 305 206
f 307 306 204
f 204 306 205
f 308 307 203
f 203 307 204
f 309 308 202
f 202 308 203
f 310 309 201
f 201 309 202
f 311 310 200
f 200 310 201
f 312 311 199
f 199 311 200
f 313 312 198
f 198 312 199
f 314 313 197
f 197 313 198
f 315 314 196
f 196 314 197
f 316 315 194
f 194 315 196
f 317 316 193
f 193 316 194
f 318 317 195
f 195 317 193
f 319 318 224
f 224 318 195
f 320 319 223
f 223 319 224
f 290 320 222
f 222 320 223
f 289 290 221
f 221 290 222
f 291 289 220
f 220 289 221
f 292 291 219
f 219 291 220
f 293 292 218
f 218 292 219
f 294 293 217
f 217 293 218
f 295 294 216
f 216 294 217
f 296 295 215
f 215 295 216
f 297 296 214
f 214 296 215
f 298 297 213
f 213 297 214
f 299 298 212
f 212 298 213
f 300 299 211
f 211 299 212
f 301 300 210
f 210 300 211
f 302 301 209
f 209 301 210
f 303 302 208
f 208 302 209
f 345 346 352
f 352 346 353
f 354 353 95
f 95 353 346
f 95 96 354
f 354 96 355
f 65 356 96
f 96 356 355
f 345 352 65
f 65 352 356
f 285 357 284
f 284 357 358
f 346 359 285
f 285 359 357
f 346 345 359
f 359 345 360
f 361 360 283
f 283 360 345
f 283 284 361
f 361 284 358
f 362 363 364
f 364 363 365
f 366 367 365
f 365 367 364
f 366 368 367
f 367 368 369
f 370 369 371
f 371 369 368
f 371 363 370
f 370 363 362
f 372 373 374
f 374 373 375
f 376 377 375
f 375 377 374
f 376 378 377
f 377 378 379
f 380 379 381
f 381 379 378
f 381 373 380
f 380 373 372
f 382 383 384
f 384 383 385
f 386 387 383
f 383 387 385
f 386 388 387
f 387 388 389
f 390 391 388
f 388 391 389
f 390 382 391
f 391 382 384
f 392 393 394
f 394 393 395
f 396 397 395
f 395 397 394
f 398 397 399
f 399 397 396
f 399 400 398
f 398 400 401
f 392 401 393
f 393 401 400
f 367 402 364
f 364 402 403
f 404 362 403
f 403 362 364
f 370 362 405
f 405 362 404
f 405 406 370
f 370 406 369
f 367 369 402
f 402 369 406
f 407 408 365
f 365 408 366
f 409 407 363
f 363 407 365
f 410 409 371
f 371 409 363
f 410 371 411
f 411 371 368
f 411 368 408
f 408 368 366
f 385 387 407
f 407 387 408
f 384 385 409
f 409 385 407
f 391 384 410
f 410 384 409
f 391 410 389
f 389 410 411
f 389 411 387
f 387 411 408
f 412 386 413
f 413 386 383
f 414 413 382
f 382 413 383
f 415 414 390
f 390 414 382
f 415 390 416
f 416 390 388
f 412 416 386
f 386 416 388
f 377 417 374
f 374 417 418
f 419 372 418
f 418 372 374
f 380 372 420
f 420 372 419
f 420 421 380
f 380 421 379
f 377 379 417
f 417 379 421
f 357 395 358
f 358 395 393
f 361 358 400
f 358 393 400
f 361 400 360
f 400 399 360
f 359 360 396
f 396 360 399
f 357 359 395
f 359 396 395
f 354 375 353
f 375 373 353
f 352 353 381
f 381 353 373
f 356 352 378
f 352 381 378
f 376 355 378
f 355 356 378
f 376 375 355
f 354 355 375
f 402 392 403
f 403 392 394
f 397 404 394
f 394 404 403
f 405 404 398
f 398 404 397
f 406 405 401
f 401 405 398
f 402 406 392
f 392 406 401
f 422 423 413
f 413 423 412
f 424 422 414
f 414 422 413
f 425 424 415
f 415 424 414
f 425 415 426
f 426 415 416
f 426 416 423
f 423 416 412
f 418 417 422
f 422 417 423
f 419 418 424
f 424 418 422
f 420 419 425
f 425 419 424
f 420 425 421
f 421 425 426
f 421 426 417
f 417 426 423
f 161 162 99
f 99 160 161
f 162 163 100
f 100 99 162
f 163 164 102
f 102 100 163
f 164 165 104
f 104 102 164
f 165 166 106
f 106 104 165
f 166 167 108
f 108 106 166
f 167 168 110
f 110 108 167
f 168 169 112
f 112 110 168
f 169 170 114
f 114 112 169
f 170 171 116
f 116 114 170
f 171 172 118
f 118 116 171
f 172 173 120
f 120 118 172
f 173 174 122
f 122 120 173
f 174 175 124
f 124 122 174
f 175 176 126
f 126 124 175
f 176 177 128
f 128 126 176
f 177 178 130
f 130 128 177
f 178 179 132
f 132 130 178
f 179 180 134
f 134 132 179
f 180 181 136
f 136 134 180
f 181 182 138
f 138 136 181
f 182 183 140
f 140 138 182
f 183 184 142
f 142 140 183
f 184 185 144
f 144 142 184
f 185 186 146
f 146 144 185
f 186 187 148
f 148 146 186
f 187 188 150
f 150 148 187
f 188 189 152
f 152 150 188
f 189 190 154
f 154 152 189
f 190 191 156
f 156 154 190
f 191 192 158
f 158 156 191
f 192 161 160
f 160 158 192
f 404 403 362
f 397 394 404
f 396 395 397
f 362 364 363
f 364 362 403
f 403 404 394
f 394 397 395
f 364 365 363
f 370 406 405
f 405 401 398
f 398 400 399
f 370 371 369
f 371 368 369
f 369 406 370
f 401 405 406
f 401 400 398
f 419 424 418
f 418 372 419
f 414 422 424
f 414 382 413
f 372 374 373
f 374 372 418
f 418 424 422
f 422 414 413
f 382 383 413
f 374 375 373
f 421 425 420
f 420 380 421
f 425 426 415
f 415 416 390
f 380 381 379
f 381 378 379
f 379 421 380
f 426 425 421
f 416 415 426
f 416 388 390
f 382 384 383
f 409 385 384
f 409 363 407
f 384 385 383
f 385 409 407
f 363 365 407
f 390 388 391
f 391 389 410
f 410 411 371
f 388 389 391
f 411 410 389
f 411 368 371