# https://github.com/mikedh/trimesh
v -0.00128508 0.00793048 0.07354315
v -0.00237230 0.00769397 0.07354315
v -0.00236262 0.00766097 0.07634159
v -0.00128019 0.00789644 0.07634159
v 0.00183361 0.00785590 0.07354392
v 0.00115966 0.00799900 0.07354392
v 0.00115477 0.00796497 0.07634237
v 0.00182595 0.00782247 0.07634237
v 0.00448898 0.00675953 0.07354382
v 0.00351243 0.00729277 0.07354382
v 0.00349815 0.00726149 0.07634227
v 0.00447039 0.00673061 0.07634227
v 0.00703616 0.00422222 0.07354365
v 0.00636938 0.00511295 0.07354365
v 0.00634339 0.00509043 0.07634210
v 0.00700724 0.00420363 0.07634210
v 0.00822175 0.00084490 0.07354255
v 0.00798524 0.00193212 0.07354255
v 0.00795225 0.00192243 0.07634101
v 0.00818772 0.00084001 0.07634101
v 0.00805111 -0.00271491 0.07354337
v 0.00828762 -0.00162769 0.07354337
v 0.00825359 -0.00162280 0.07634183
v 0.00801812 -0.00270523 0.07634183
v 0.00637441 -0.00588518 0.07354373
v 0.00704120 -0.00499446 0.07354373
v 0.00701227 -0.00497587 0.07634219
v 0.00634843 -0.00586266 0.07634219
v 0.00350811 -0.00805332 0.07354371
v 0.00448466 -0.00752008 0.07354371
v 0.00446607 -0.00749115 0.07634215
v 0.00349382 -0.00802204 0.07634215
v -0.00000132 -0.00880269 0.07354330
v 0.00110850 -0.00872332 0.07354330
v 0.00110360 -0.00868928 0.07634174
v -0.00000132 -0.00876830 0.07634174
v -0.00350306 -0.00806191 0.07354331
v -0.00246056 -0.00845075 0.07354331
v -0.00245087 -0.00841775 0.07634177
v -0.00348877 -0.00803064 0.07634177
v -0.00641431 -0.00596611 0.07354392
v -0.00562755 -0.00675287 0.07354392
v -0.00560503 -0.00672688 0.07634236
v -0.00638832 -0.00594359 0.07634236
v -0.00811641 -0.00280069 0.07354337
v -0.00772758 -0.00384319 0.07354337
v -0.00769630 -0.00382890 0.07634183
v -0.00808342 -0.00279101 0.07634183
v -0.00841245 0.00077192 0.07354364
v -0.00849183 -0.00033789 0.07354364
v -0.00845744 -0.00033789 0.07634209
v -0.00837841 0.00076703 0.07634209
v -0.00715656 0.00413247 0.07354336
v -0.00768979 0.00315592 0.07354336
v -0.00765851 0.00314163 0.07634180
v -0.00712763 0.00411388 0.07634180
v -0.00463037 0.00666855 0.07354322
v -0.00552109 0.00600176 0.07354322
v -0.00549858 0.00597577 0.07634166
v -0.00461178 0.00663962 0.07634166
v -0.00115548 0.00733470 0.07353567
v -0.00224270 0.00709819 0.07353567
v -0.00223301 0.00706520 0.07633412
v -0.00115059 0.00730067 0.07633412
v -0.00426175 0.00617613 0.07353567
v -0.00515247 0.00550934 0.07353567
v -0.00512995 0.00548335 0.07633412
v -0.00424316 0.00614720 0.07633412
v -0.00660602 0.00383185 0.07353567
v -0.00713926 0.00285530 0.07353567
v -0.00710798 0.00284102 0.07633412
v -0.00657709 0.00381327 0.07633412
v -0.00776460 0.00072559 0.07353567
v -0.00784397 -0.00038423 0.07353567
v -0.00780959 -0.00038423 0.07633412
v -0.00773056 0.00072069 0.07633412
v -0.00752808 -0.00258126 0.07353567
v -0.00713926 -0.00362376 0.07353567
v -0.00710798 -0.00360947 0.07633412
v -0.00749509 -0.00257157 0.07633412
v -0.00593923 -0.00549103 0.07353567
v -0.00515247 -0.00627779 0.07353567
v -0.00512996 -0.00625180 0.07633412
v -0.00591325 -0.00546851 0.07633412
v -0.00328520 -0.00747782 0.07353567
v -0.00224271 -0.00786665 0.07353567
v -0.00223302 -0.00783365 0.07633412
v -0.00327092 -0.00744654 0.07633412
v -0.00004567 -0.00818253 0.07353567
v 0.00106415 -0.00810316 0.07353567
v 0.00105925 -0.00806912 0.07633412
v -0.00004567 -0.00814815 0.07633412
v 0.00319386 -0.00747782 0.07353567
v 0.00417041 -0.00694459 0.07353567
v 0.00415182 -0.00691566 0.07633412
v 0.00317958 -0.00744654 0.07633412
v 0.00584790 -0.00549104 0.07353567
v 0.00651469 -0.00460031 0.07353567
v 0.00648576 -0.00458172 0.07633412
v 0.00582191 -0.00546852 0.07633412
v 0.00743676 -0.00258127 0.07353567
v 0.00767327 -0.00149405 0.07353567
v 0.00763923 -0.00148915 0.07633412
v 0.00740376 -0.00257158 0.07633412
v 0.00767327 0.00072558 0.07353567
v 0.00743676 0.00181281 0.07353567
v 0.00740376 0.00180312 0.07633412
v 0.00763923 0.00072069 0.07633412
v 0.00651469 0.00383185 0.07353567
v 0.00584790 0.00472258 0.07353567
v 0.00582192 0.00470006 0.07633412
v 0.00648577 0.00381326 0.07633412
v 0.00417042 0.00617613 0.07353567
v 0.00319387 0.00670936 0.07353567
v 0.00317958 0.00667808 0.07633412
v 0.00415183 0.00614720 0.07633412
v 0.00068333 0.00803651 0.07354392
v 0.00068032 0.00800233 0.07634237
v 0.00169059 0.00719843 0.07353567
v 0.00106415 0.00733470 0.07353567
v 0.00105926 0.00730067 0.07633412
v 0.00168293 0.00716500 0.07633412
v 0.00063533 0.00736537 0.07353567
v 0.00063233 0.00733120 0.07633412
v -0.00732057 -0.00143020 0.08093386
v -0.00709767 -0.00245488 0.08093386
v -0.00004567 -0.00038423 0.08093386
v -0.00673121 -0.00343741 0.08093386
v -0.00622864 -0.00435778 0.08093386
v -0.00560021 -0.00519727 0.08093386
v -0.00485871 -0.00593877 0.08093386
v -0.00401923 -0.00656720 0.08093386
v -0.00309885 -0.00706977 0.08093386
v -0.00211632 -0.00743623 0.08093386
v -0.00109164 -0.00765913 0.08093386
v -0.00004567 -0.00773394 0.08093386
v 0.00100031 -0.00765914 0.08093386
v 0.00202499 -0.00743623 0.08093386
v 0.00300751 -0.00706977 0.08093386
v 0.00392789 -0.00656721 0.08093386
v 0.00476738 -0.00593878 0.08093386
v 0.00550888 -0.00519727 0.08093386
v 0.00613731 -0.00435779 0.08093386
v 0.00663987 -0.00343741 0.08093386
v 0.00700633 -0.00245488 0.08093386
v 0.00722924 -0.00143020 0.08093386
v 0.00730405 -0.00038423 0.08093386
v 0.00722924 0.00066174 0.08093386
v 0.00700634 0.00168643 0.08093386
v 0.00663988 0.00266895 0.08093386
v 0.00613731 0.00358933 0.08093386
v 0.00550888 0.00442881 0.08093386
v 0.00476738 0.00517032 0.08093386
v 0.00392789 0.00579875 0.08093386
v 0.00300752 0.00630131 0.08093386
v 0.00202499 0.00666777 0.08093386
v -0.00004566 0.00696549 0.08093386
v -0.00109164 0.00689068 0.08093386
v -0.00211632 0.00666777 0.08093386
v -0.00309885 0.00630131 0.08093386
v -0.00401922 0.00579875 0.08093386
v -0.00485871 0.00517032 0.08093386
v -0.00560021 0.00442882 0.08093386
v -0.00622864 0.00358933 0.08093386
v -0.00673121 0.00266896 0.08093386
v -0.00709767 0.00168643 0.08093386
v -0.00732057 0.00066175 0.08093386
v -0.00739539 -0.00038423 0.08093386
v 0.00100031 0.00689068 0.08093386
v -0.00746095 0.00179310 0.07922984
v -0.00769534 0.00071563 0.07922984
v -0.00712116 0.00063307 0.07996063
v -0.00690436 0.00162967 0.07996063
v -0.00707561 0.00282624 0.07922984
v -0.00654795 0.00258526 0.07996063
v -0.00654716 0.00379403 0.07922984
v -0.00605916 0.00348041 0.07996063
v -0.00588636 0.00467676 0.07922984
v -0.00544795 0.00429688 0.07996063
v -0.00510665 0.00545646 0.07922984
v -0.00472678 0.00501806 0.07996063
v -0.00422392 0.00611727 0.07922984
v -0.00391030 0.00562927 0.07996063
v -0.00325613 0.00664572 0.07922984
v -0.00301515 0.00611805 0.07996063
v -0.00222299 0.00703106 0.07922984
v -0.00205956 0.00647447 0.07996063
v -0.00114552 0.00726545 0.07922984
v -0.00106297 0.00669126 0.07996063
v -0.00004566 0.00734411 0.07922984
v -0.00004566 0.00676402 0.07996063
v 0.00062922 0.00729584 0.07922984
v 0.00057856 0.00671938 0.07996063
v 0.00167501 0.00713040 0.07922984
v 0.00105419 0.00726545 0.07922984
v 0.00097164 0.00669126 0.07996063
v 0.00154586 0.00656635 0.07996063
v 0.00316480 0.00664572 0.07922984
v 0.00213166 0.00703106 0.07922984
v 0.00196823 0.00647447 0.07996063
v 0.00292383 0.00611805 0.07996063
v 0.00413259 0.00611727 0.07922984
v 0.00381897 0.00562926 0.07996063
v 0.00501532 0.00545646 0.07922984
v 0.00463545 0.00501806 0.07996063
v 0.00579503 0.00467676 0.07922984
v 0.00535662 0.00429688 0.07996063
v 0.00645583 0.00379403 0.07922984
v 0.00596783 0.00348041 0.07996063
v 0.00698428 0.00282624 0.07922984
v 0.00645661 0.00258526 0.07996063
v 0.00736962 0.00179310 0.07922984
v 0.00681303 0.00162967 0.07996063
v 0.00760401 0.00071563 0.07922984
v 0.00702983 0.00063307 0.07996063
v 0.00768267 -0.00038423 0.07922984
v 0.00710258 -0.00038423 0.07996063
v 0.00760401 -0.00148409 0.07922984
v 0.00702983 -0.00140153 0.07996063
v 0.00736962 -0.00256156 0.07922984
v 0.00681303 -0.00239813 0.07996063
v 0.00698428 -0.00359470 0.07922984
v 0.00645661 -0.00335372 0.07996063
v 0.00645583 -0.00456249 0.07922984
v 0.00596783 -0.00424887 0.07996063
v 0.00579502 -0.00544522 0.07922984
v 0.00535662 -0.00506534 0.07996063
v 0.00501532 -0.00622492 0.07922984
v 0.00463544 -0.00578652 0.07996063
v 0.00413259 -0.00688572 0.07922984
v 0.00381897 -0.00639772 0.07996063
v 0.00316480 -0.00741418 0.07922984
v 0.00292382 -0.00688651 0.07996063
v 0.00213166 -0.00779952 0.07922984
v 0.00196823 -0.00724292 0.07996063
v 0.00105419 -0.00803390 0.07922984
v 0.00097163 -0.00745972 0.07996063
v -0.00004567 -0.00811256 0.07922984
v -0.00004567 -0.00753248 0.07996063
v -0.00114553 -0.00803390 0.07922984
v -0.00106297 -0.00745972 0.07996063
v -0.00222299 -0.00779951 0.07922984
v -0.00205956 -0.00724292 0.07996063
v -0.00325614 -0.00741417 0.07922984
v -0.00301516 -0.00688650 0.07996063
v -0.00422392 -0.00688572 0.07922984
v -0.00391030 -0.00639772 0.07996063
v -0.00510665 -0.00622491 0.07922984
v -0.00472678 -0.00578651 0.07996063
v -0.00588636 -0.00544521 0.07922984
v -0.00544795 -0.00506533 0.07996063
v -0.00654716 -0.00456248 0.07922984
v -0.00605916 -0.00424886 0.07996063
v -0.00707561 -0.00359469 0.07922984
v -0.00654794 -0.00335371 0.07996063
v -0.00746095 -0.00256155 0.07922984
v -0.00690436 -0.00239812 0.07996063
v -0.00769534 -0.00148408 0.07922984
v -0.00712115 -0.00140153 0.07996063
v -0.00777401 -0.00038423 0.07922984
v -0.00719392 -0.00038423 0.07996063
v 0.00059616 0.00691959 0.08093386
v 0.00159071 0.00676225 0.08093386
v -0.00749509 0.00180312 0.07633412
v -0.00772796 0.00072032 0.07654833
v -0.00749257 0.00180238 0.07654833
v -0.00710558 0.00283993 0.07654833
v -0.00657488 0.00381184 0.07654833
v -0.00591325 0.00470006 0.07633412
v -0.00591126 0.00469834 0.07654833
v -0.00512823 0.00548136 0.07654833
v -0.00424173 0.00614499 0.07654833
v -0.00327091 0.00667809 0.07633412
v -0.00326982 0.00667569 0.07654833
v -0.00223227 0.00706267 0.07654833
v -0.00115021 0.00729806 0.07654833
v -0.00004566 0.00737969 0.07633412
v -0.00004566 0.00737706 0.07654833
v 0.00063210 0.00732859 0.07654833
v 0.00105888 0.00729806 0.07654833
v 0.00168234 0.00716244 0.07654833
v 0.00214169 0.00706520 0.07633412
v 0.00214094 0.00706267 0.07654833
v 0.00317849 0.00667569 0.07654833
v 0.00415041 0.00614498 0.07654833
v 0.00503862 0.00548335 0.07633412
v 0.00503690 0.00548136 0.07654833
v 0.00581993 0.00469834 0.07654833
v 0.00648355 0.00381184 0.07654833
v 0.00701665 0.00284102 0.07633412
v 0.00701425 0.00283992 0.07654833
v 0.00740124 0.00180238 0.07654833
v 0.00763663 0.00072032 0.07654833
v 0.00771826 -0.00038423 0.07633412
v 0.00771562 -0.00038423 0.07654833
v 0.00763662 -0.00148878 0.07654833
v 0.00740123 -0.00257084 0.07654833
v 0.00701665 -0.00360948 0.07633412
v 0.00701425 -0.00360839 0.07654833
v 0.00648355 -0.00458030 0.07654833
v 0.00581992 -0.00546679 0.07654833
v 0.00503862 -0.00625181 0.07633412
v 0.00503690 -0.00624982 0.07654833
v 0.00415040 -0.00691344 0.07654833
v 0.00317849 -0.00744415 0.07654833
v 0.00214168 -0.00783366 0.07633412
v 0.00214094 -0.00783113 0.07654833
v 0.00105888 -0.00806652 0.07654833
v -0.00004567 -0.00814551 0.07654833
v -0.00115059 -0.00806912 0.07633412
v -0.00115021 -0.00806652 0.07654833
v -0.00223228 -0.00783113 0.07654833
v -0.00326982 -0.00744414 0.07654833
v -0.00424316 -0.00691565 0.07633412
v -0.00424174 -0.00691344 0.07654833
v -0.00512823 -0.00624982 0.07654833
v -0.00591126 -0.00546679 0.07654833
v -0.00657709 -0.00458172 0.07633412
v -0.00657488 -0.00458029 0.07654833
v -0.00710558 -0.00360838 0.07654833
v -0.00749257 -0.00257083 0.07654833
v -0.00773056 -0.00148914 0.07633412
v -0.00772795 -0.00148877 0.07654833
v -0.00780695 -0.00038423 0.07654833
v -0.00328520 0.00670936 0.07353567
v -0.00004566 0.00741408 0.07353567
v 0.00215137 0.00709819 0.07353567
v 0.00506114 0.00550934 0.07353567
v 0.00704793 0.00285530 0.07353567
v 0.00775264 -0.00038423 0.07353567
v 0.00704793 -0.00362376 0.07353567
v 0.00506114 -0.00627780 0.07353567
v 0.00215137 -0.00786665 0.07353567
v -0.00115548 -0.00810316 0.07353567
v -0.00426175 -0.00694458 0.07353567
v -0.00660602 -0.00460031 0.07353567
v -0.00776459 -0.00149404 0.07353567
v -0.00752809 0.00181281 0.07353567
v -0.00593923 0.00472258 0.07353567
v -0.01437448 -0.00244439 0.01230573
v -0.01393544 -0.00446263 0.01230573
v -0.01393544 -0.00446263 0.02548147
v -0.01437448 -0.00244439 0.02548147
v -0.01321365 -0.00639784 0.01230573
v -0.01321365 -0.00639784 0.02548147
v -0.01222379 -0.00821063 0.01230573
v -0.01222379 -0.00821063 0.02548147
v -0.01098603 -0.00986409 0.01230573
v -0.01098603 -0.00986409 0.02548147
v -0.00952554 -0.01132458 0.01230573
v -0.00952554 -0.01132458 0.02548147
v -0.00787208 -0.01256235 0.01230573
v -0.00787208 -0.01256235 0.02548147
v -0.00605929 -0.01355221 0.01230573
v -0.00605929 -0.01355221 0.02548147
v -0.00412408 -0.01427401 0.01230573
v -0.00412408 -0.01427401 0.02548147
v -0.00210584 -0.01471305 0.01230573
v -0.00210584 -0.01471305 0.02548147
v -0.00004567 -0.01486040 0.01230573
v -0.00004567 -0.01486040 0.02548147
v 0.00201450 -0.01471305 0.01230573
v 0.00201450 -0.01471305 0.02548147
v 0.00403274 -0.01427401 0.01230573
v 0.00403274 -0.01427401 0.02548147
v 0.00596795 -0.01355222 0.01230573
v 0.00596795 -0.01355222 0.02548147
v 0.00778074 -0.01256236 0.01230573
v 0.00778074 -0.01256236 0.02548147
v 0.00943420 -0.01132459 0.01230573
v 0.00943420 -0.01132459 0.02548147
v 0.01089469 -0.00986410 0.01230573
v 0.01089469 -0.00986410 0.02548147
v 0.01213246 -0.00821064 0.01230573
v 0.01213246 -0.00821064 0.02548147
v 0.01312232 -0.00639785 0.01230573
v 0.01312232 -0.00639785 0.02548147
v 0.01384411 -0.00446264 0.01230573
v 0.01384411 -0.00446264 0.02548147
v 0.01428315 -0.00244441 0.01230573
v 0.01428315 -0.00244441 0.02548147
v 0.01443050 -0.00038423 0.01230573
v 0.01443050 -0.00038423 0.02548147
v 0.01428316 0.00167594 0.01230573
v 0.01428316 0.00167594 0.02548147
v 0.01384412 0.00369418 0.01230573
v 0.01384412 0.00369418 0.02548147
v 0.01312233 0.00562938 0.01230573
v 0.01312233 0.00562938 0.02548147
v 0.01213246 0.00744218 0.01230573
v 0.01213246 0.00744218 0.02548147
v 0.01089470 0.00909564 0.01230573
v 0.01089470 0.00909564 0.02548147
v 0.00943421 0.01055613 0.01230573
v 0.00943421 0.01055613 0.02548147
v 0.00778074 0.01179390 0.01230573
v 0.00778074 0.01179390 0.02548147
v 0.00596795 0.01278376 0.01230573
v 0.00596795 0.01278376 0.02548147
v 0.00403275 0.01350555 0.01230573
v 0.00403275 0.01350555 0.02548147
v 0.00317738 0.01369163 0.01230573
v 0.00201451 0.01394459 0.01230573
v 0.00201451 0.01394459 0.02548147
v 0.00317738 0.01369163 0.02548147
v 0.00121848 0.01400153 0.01230573
v -0.00004566 0.01409194 0.01230573
v -0.00004566 0.01409194 0.02548147
v 0.00121848 0.01400153 0.02548147
v -0.00210584 0.01394459 0.01230573
v -0.00210584 0.01394459 0.02548147
v -0.00412407 0.01350555 0.01230573
v -0.00412407 0.01350555 0.02548147
v -0.00605928 0.01278376 0.01230573
v -0.00605928 0.01278376 0.02548147
v -0.00787207 0.01179390 0.01230573
v -0.00787207 0.01179390 0.02548147
v -0.00952554 0.01055613 0.01230573
v -0.00952554 0.01055613 0.02548147
v -0.01098602 0.00909565 0.01230573
v -0.01098602 0.00909565 0.02548147
v -0.01222379 0.00744218 0.01230573
v -0.01222379 0.00744218 0.02548147
v -0.01321365 0.00562939 0.01230573
v -0.01321365 0.00562939 0.02548147
v -0.01393545 0.00369418 0.01230573
v -0.01393545 0.00369418 0.02548147
v -0.01437449 0.00167594 0.01230573
v -0.01437449 0.00167594 0.02548147
v -0.01452183 -0.00038423 0.01230573
v -0.01452183 -0.00038423 0.02548147
v -0.01393544 -0.00446263 0.03865719
v -0.01437448 -0.00244439 0.03865719
v -0.01321365 -0.00639784 0.03865719
v -0.01222379 -0.00821063 0.03865719
v -0.01098603 -0.00986409 0.03865719
v -0.00952554 -0.01132458 0.03865719
v -0.00787208 -0.01256235 0.03865719
v -0.00605929 -0.01355221 0.03865719
v -0.00412408 -0.01427401 0.03865719
v -0.00210584 -0.01471305 0.03865719
v -0.00004567 -0.01486040 0.03865719
v 0.00201450 -0.01471305 0.03865719
v 0.00403274 -0.01427401 0.03865719
v 0.00596795 -0.01355222 0.03865719
v 0.00778074 -0.01256236 0.03865719
v 0.00943420 -0.01132459 0.03865719
v 0.01089469 -0.00986410 0.03865719
v 0.01213246 -0.00821064 0.03865719
v 0.01312232 -0.00639785 0.03865719
v 0.01384411 -0.00446264 0.03865719
v 0.01428315 -0.00244441 0.03865719
v 0.01443050 -0.00038423 0.03865719
v 0.01428316 0.00167594 0.03865719
v 0.01384412 0.00369418 0.03865719
v 0.01312233 0.00562938 0.03865719
v 0.01213246 0.00744218 0.03865719
v 0.01089470 0.00909564 0.03865719
v 0.00943421 0.01055613 0.03865719
v 0.00778074 0.01179390 0.03865719
v 0.00596795 0.01278376 0.03865719
v 0.00403275 0.01350555 0.03865719
v 0.00201451 0.01394459 0.03865719
v 0.00317738 0.01369163 0.03865719
v -0.00004566 0.01409194 0.03865719
v 0.00121848 0.01400153 0.03865719
v -0.00210584 0.01394459 0.03865719
v -0.00412407 0.01350555 0.03865719
v -0.00605928 0.01278376 0.03865719
v -0.00787207 0.01179390 0.03865719
v -0.00952554 0.01055613 0.03865719
v -0.01098602 0.00909565 0.03865719
v -0.01222379 0.00744218 0.03865719
v -0.01321365 0.00562939 0.03865719
v -0.01393545 0.00369418 0.03865719
v -0.01437449 0.00167594 0.03865719
v -0.01452183 -0.00038423 0.03865719
v -0.01353086 -0.00434383 0.06150392
v -0.01395711 -0.00238439 0.06150392
v -0.01283009 -0.00622267 0.06150392
v -0.01186907 -0.00798266 0.06150392
v -0.01066735 -0.00958797 0.06150392
v -0.00924941 -0.01100591 0.06150392
v -0.00764411 -0.01220763 0.06150392
v -0.00588412 -0.01316865 0.06150392
v -0.00400528 -0.01386942 0.06150392
v -0.00204583 -0.01429568 0.06150392
v -0.00004567 -0.01443873 0.06150392
v 0.00195449 -0.01429568 0.06150392
v 0.00391394 -0.01386943 0.06150392
v 0.00579278 -0.01316866 0.06150392
v 0.00755277 -0.01220763 0.06150392
v 0.00915808 -0.01100592 0.06150392
v 0.01057602 -0.00958798 0.06150392
v 0.01177774 -0.00798267 0.06150392
v 0.01273876 -0.00622268 0.06150392
v 0.01343953 -0.00434385 0.06150392
v 0.01386578 -0.00238440 0.06150392
v 0.01400884 -0.00038423 0.06150392
v 0.01386579 0.00161593 0.06150392
v 0.01343953 0.00357538 0.06150392
v 0.01273877 0.00545422 0.06150392
v 0.01177774 0.00721421 0.06150392
v 0.01057602 0.00881951 0.06150392
v 0.00915808 0.01023746 0.06150392
v 0.00755278 0.01143917 0.06150392
v 0.00579279 0.01240020 0.06150392
v 0.00391395 0.01310097 0.06150392
v 0.00195450 0.01352722 0.06150392
v 0.00308350 0.01328162 0.06150392
v -0.00004566 0.01367028 0.06150392
v 0.00118166 0.01358250 0.06150392
v -0.00204583 0.01352722 0.06150392
v -0.00400528 0.01310097 0.06150392
v -0.00588412 0.01240020 0.06150392
v -0.00764410 0.01143917 0.06150392
v -0.00924941 0.01023746 0.06150392
v -0.01066735 0.00881952 0.06150392
v -0.01186907 0.00721421 0.06150392
v -0.01283009 0.00545423 0.06150392
v -0.01353086 0.00357538 0.06150392
v -0.01395712 0.00161594 0.06150392
v -0.01410017 -0.00038423 0.06150392
v -0.00846356 -0.00285594 0.06971661
v -0.00872964 -0.00163279 0.06971661
v -0.00802612 -0.00402877 0.06971661
v -0.00742622 -0.00512742 0.06971661
v -0.00667607 -0.00612950 0.06971661
v -0.00579094 -0.00701463 0.06971661
v -0.00478886 -0.00776478 0.06971661
v -0.00369022 -0.00836468 0.06971661
v -0.00251739 -0.00880212 0.06971661
v -0.00129424 -0.00906821 0.06971661
v -0.00004567 -0.00915750 0.06971661
v 0.00120290 -0.00906821 0.06971661
v 0.00242605 -0.00880213 0.06971661
v 0.00359888 -0.00836469 0.06971661
v 0.00469752 -0.00776479 0.06971661
v 0.00569961 -0.00701463 0.06971661
v 0.00658474 -0.00612951 0.06971661
v 0.00733489 -0.00512742 0.06971661
v 0.00793479 -0.00402878 0.06971661
v 0.00837223 -0.00285595 0.06971661
v 0.00863831 -0.00163280 0.06971661
v 0.00872761 -0.00038423 0.06971661
v 0.00863832 0.00086434 0.06971661
v 0.00837224 0.00208749 0.06971661
v 0.00793479 0.00326032 0.06971661
v 0.00733489 0.00435896 0.06971661
v 0.00658474 0.00536105 0.06971661
v 0.00569961 0.00624617 0.06971661
v 0.00469753 0.00699633 0.06971661
v 0.00359889 0.00759623 0.06971661
v 0.00242605 0.00803367 0.06971661
v 0.00120290 0.00829975 0.06971661
v 0.00190766 0.00814644 0.06971661
v -0.00004566 0.00838905 0.06971661
v 0.00072047 0.00833426 0.06971661
v -0.00129423 0.00829975 0.06971661
v -0.00251738 0.00803367 0.06971661
v -0.00369021 0.00759623 0.06971661
v -0.00478886 0.00699633 0.06971661
v -0.00579094 0.00624618 0.06971661
v -0.00667607 0.00536105 0.06971661
v -0.00742622 0.00435896 0.06971661
v -0.00802612 0.00326032 0.06971661
v -0.00846357 0.00208749 0.06971661
v -0.00872965 0.00086434 0.06971661
v -0.00881894 -0.00038423 0.06971661
v -0.01321365 0.00562939 0.00429257
v -0.01393545 0.00369418 0.00429257
v -0.01222379 0.00744218 0.00429257
v -0.01098602 0.00909565 0.00429257
v -0.00952554 0.01055613 0.00429257
v -0.00787207 0.01179390 0.00429257
v -0.00605928 0.01278376 0.00429257
v -0.00412407 0.01350555 0.00429257
v -0.00210584 0.01394459 0.00429257
v -0.00004566 0.01409194 0.00429257
v 0.00121848 0.01400153 0.00429257
v 0.00317738 0.01369163 0.00429257
v 0.00201451 0.01394459 0.00429257
v 0.00596795 0.01278376 0.00429257
v 0.00403275 0.01350555 0.00429257
v 0.00778074 0.01179390 0.00429257
v 0.00943421 0.01055613 0.00429257
v 0.01089470 0.00909564 0.00429257
v 0.01213247 0.00744217 0.00429257
v 0.01312233 0.00562939 0.00429257
v 0.01384412 0.00369418 0.00429257
v 0.01428316 0.00167594 0.00429257
v 0.01443050 -0.00038423 0.00429257
v 0.01428315 -0.00244441 0.00429257
v 0.01384411 -0.00446264 0.00429257
v 0.01312232 -0.00639785 0.00429257
v 0.01213246 -0.00821064 0.00429257
v 0.01089469 -0.00986410 0.00429257
v 0.00943420 -0.01132459 0.00429257
v 0.00778074 -0.01256236 0.00429257
v 0.00596795 -0.01355222 0.00429257
v 0.00403274 -0.01427401 0.00429257
v 0.00201450 -0.01471305 0.00429257
v -0.00004567 -0.01486040 0.00429257
v -0.00210584 -0.01471305 0.00429257
v -0.00412408 -0.01427401 0.00429257
v -0.00605929 -0.01355221 0.00429257
v -0.00787208 -0.01256235 0.00429257
v -0.00952554 -0.01132458 0.00429257
v -0.01098602 -0.00986409 0.00429257
v -0.01222379 -0.00821063 0.00429257
v -0.01321365 -0.00639784 0.00429257
v -0.01393545 -0.00446263 0.00429257
v -0.01437448 -0.00244439 0.00429257
v -0.01452183 -0.00038423 0.00429257
v -0.01437449 0.00167594 0.00429257
v -0.01099295 -0.00359864 0.00000000
v -0.01133898 -0.00200796 0.00000000
v -0.00004566 -0.00038423 0.00000000
v -0.01042407 -0.00512388 0.00000000
v -0.00964391 -0.00655263 0.00000000
v -0.00866836 -0.00785582 0.00000000
v -0.00751727 -0.00900691 0.00000000
v -0.00621409 -0.00998247 0.00000000
v -0.00478533 -0.01076262 0.00000000
v -0.00326008 -0.01133151 0.00000000
v -0.00166940 -0.01167754 0.00000000
v -0.00004567 -0.01179368 0.00000000
v 0.00157806 -0.01167755 0.00000000
v 0.00316875 -0.01133152 0.00000000
v 0.00469399 -0.01076263 0.00000000
v 0.00612275 -0.00998247 0.00000000
v 0.00742593 -0.00900692 0.00000000
v 0.00857702 -0.00785584 0.00000000
v 0.00955258 -0.00655265 0.00000000
v 0.01033274 -0.00512389 0.00000000
v 0.01090162 -0.00359865 0.00000000
v 0.01124765 -0.00200797 0.00000000
v 0.01136379 -0.00038423 0.00000000
v 0.01124766 0.00123950 0.00000000
v 0.01090163 0.00283018 0.00000000
v 0.01033274 0.00435543 0.00000000
v 0.00955258 0.00578418 0.00000000
v 0.00857702 0.00708737 0.00000000
v 0.00742594 0.00823846 0.00000000
v 0.00612275 0.00921401 0.00000000
v 0.00469399 0.00999417 0.00000000
v 0.00316875 0.01056306 0.00000000
v -0.00166940 0.01090909 0.00000000
v -0.00004566 0.01102523 0.00000000
v -0.00326008 0.01056306 0.00000000
v -0.00478532 0.00999417 0.00000000
v -0.00621408 0.00921401 0.00000000
v -0.00751727 0.00823846 0.00000000
v -0.00866835 0.00708737 0.00000000
v -0.00964391 0.00578419 0.00000000
v -0.01042407 0.00435543 0.00000000
v -0.01099295 0.00283019 0.00000000
v -0.01133899 0.00123951 0.00000000
v -0.01145512 -0.00038423 0.00000000
v -0.01300909 -0.00419063 0.00294118
v -0.01341885 -0.00230700 0.00294118
v -0.01233543 -0.00599677 0.00294118
v -0.01141160 -0.00768866 0.00294118
v -0.01025638 -0.00923185 0.00294118
v -0.00889330 -0.01059493 0.00294118
v -0.00735011 -0.01175015 0.00294118
v -0.00565822 -0.01267399 0.00294118
v -0.00385207 -0.01334765 0.00294118
v -0.00196844 -0.01375741 0.00294118
v -0.00004567 -0.01389493 0.00294118
v 0.00187710 -0.01375741 0.00294118
v 0.00376074 -0.01334766 0.00294118
v 0.00556688 -0.01267400 0.00294118
v 0.00725877 -0.01175016 0.00294118
v 0.00880196 -0.01059494 0.00294118
v 0.01016504 -0.00923186 0.00294118
v 0.01132026 -0.00768867 0.00294118
v 0.01224410 -0.00599678 0.00294118
v 0.01291776 -0.00419064 0.00294118
v 0.01332752 -0.00230701 0.00294118
v 0.01346504 -0.00038423 0.00294118
v 0.01332752 0.00153854 0.00294118
v 0.01291776 0.00342217 0.00294118
v 0.01224411 0.00522832 0.00294118
v 0.01132027 0.00692021 0.00294118
v 0.01016505 0.00846340 0.00294118
v 0.00880197 0.00982648 0.00294118
v 0.00725878 0.01098170 0.00294118
v 0.00556689 0.01190554 0.00294118
v 0.00376074 0.01257920 0.00294118
v 0.00249459 0.01070972 0.00000000
v 0.00157807 0.01090909 0.00000000
v 0.00187711 0.01298896 0.00294118
v 0.00296242 0.01275286 0.00294118
v 0.00095068 0.01095396 0.00000000
v -0.00004566 0.01312648 0.00294118
v 0.00113417 0.01304209 0.00294118
v -0.00196844 0.01298896 0.00294118
v -0.00385207 0.01257920 0.00294118
v -0.00565821 0.01190554 0.00294118
v -0.00735010 0.01098170 0.00294118
v -0.00889330 0.00982648 0.00294118
v -0.01025637 0.00846340 0.00294118
v -0.01141160 0.00692021 0.00294118
v -0.01233543 0.00522832 0.00294118
v -0.01300909 0.00342218 0.00294118
v -0.01341885 0.00153855 0.00294118
v -0.01355637 -0.00038423 0.00294118
v -0.00943138 -0.00173368 0.07137871
v -0.00914380 -0.00305567 0.07137871
v -0.00754831 -0.00258720 0.07182040
v -0.00778546 -0.00149704 0.07182040
v -0.00867100 -0.00432328 0.07137871
v -0.00715843 -0.00363251 0.07182040
v -0.00802263 -0.00551070 0.07137871
v -0.00662375 -0.00461170 0.07182040
v -0.00721186 -0.00659376 0.07137871
v -0.00595516 -0.00550483 0.07182040
v -0.00625521 -0.00755042 0.07137871
v -0.00516627 -0.00629372 0.07182040
v -0.00517215 -0.00836119 0.07137871
v -0.00427314 -0.00696231 0.07182040
v -0.00398473 -0.00900956 0.07137871
v -0.00329396 -0.00749699 0.07182040
v -0.00271712 -0.00948236 0.07137871
v -0.00224864 -0.00788687 0.07182040
v -0.00139513 -0.00976994 0.07137871
v -0.00115848 -0.00812402 0.07182040
v -0.00004567 -0.00986645 0.07137871
v -0.00004567 -0.00820361 0.07182040
v 0.00130379 -0.00976994 0.07137871
v 0.00106715 -0.00812402 0.07182040
v 0.00262578 -0.00948236 0.07137871
v 0.00215731 -0.00788687 0.07182040
v 0.00389339 -0.00900957 0.07137871
v 0.00320262 -0.00749699 0.07182040
v 0.00508081 -0.00836119 0.07137871
v 0.00418181 -0.00696232 0.07182040
v 0.00616387 -0.00755043 0.07137871
v 0.00507494 -0.00629373 0.07182040
v 0.00712052 -0.00659377 0.07137871
v 0.00586383 -0.00550484 0.07182040
v 0.00793129 -0.00551071 0.07137871
v 0.00653242 -0.00461171 0.07182040
v 0.00857967 -0.00432329 0.07137871
v 0.00706710 -0.00363252 0.07182040
v 0.00905247 -0.00305568 0.07137871
v 0.00745698 -0.00258721 0.07182040
v 0.00934005 -0.00173369 0.07137871
v 0.00769413 -0.00149705 0.07182040
v 0.00943656 -0.00038423 0.07137871
v 0.00777371 -0.00038423 0.07182040
v 0.00934005 0.00096523 0.07137871
v 0.00769413 0.00072858 0.07182040
v 0.00905247 0.00228722 0.07137871
v 0.00745698 0.00181874 0.07182040
v 0.00857968 0.00355483 0.07137871
v 0.00706710 0.00286406 0.07182040
v 0.00793130 0.00474225 0.07137871
v 0.00653242 0.00384325 0.07182040
v 0.00712053 0.00582531 0.07137871
v 0.00586383 0.00473638 0.07182040
v 0.00616387 0.00678196 0.07137871
v 0.00507494 0.00552527 0.07182040
v 0.00508082 0.00759273 0.07137871
v 0.00418181 0.00619386 0.07182040
v 0.00389339 0.00824111 0.07137871
v 0.00320262 0.00672853 0.07182040
v 0.00262579 0.00871390 0.07137871
v 0.00215731 0.00711841 0.07182040
v 0.00206550 0.00883579 0.07137871
v 0.00130380 0.00900149 0.07137871
v 0.00106715 0.00735557 0.07182040
v 0.00169528 0.00721892 0.07182040
v 0.00078238 0.00903878 0.07137871
v -0.00004566 0.00909800 0.07137871
v -0.00004566 0.00743515 0.07182040
v 0.00063717 0.00738632 0.07182040
v -0.00139513 0.00900149 0.07137871
v -0.00115848 0.00735557 0.07182040
v -0.00271712 0.00871391 0.07137871
v -0.00224864 0.00711842 0.07182040
v -0.00398472 0.00824111 0.07137871
v -0.00329395 0.00672854 0.07182040
v -0.00517214 0.00759274 0.07137871
v -0.00427314 0.00619386 0.07182040
v -0.00625521 0.00678196 0.07137871
v -0.00516627 0.00552527 0.07182040
v -0.00721186 0.00582531 0.07137871
v -0.00595516 0.00473638 0.07182040
v -0.00802263 0.00474225 0.07137871
v -0.00662375 0.00384325 0.07182040
v -0.00867101 0.00355483 0.07137871
v -0.00715843 0.00286406 0.07182040
v -0.00914380 0.00228723 0.07137871
v -0.00754831 0.00181875 0.07182040
v -0.00943138 0.00096523 0.07137871
v -0.00778546 0.00072859 0.07182040
v -0.00952789 -0.00038423 0.07137871
v -0.00786505 -0.00038423 0.07182040
v -0.00004566 0.00799930 0.07252956
v -0.00123876 0.00791398 0.07252956
v -0.00123752 0.00790530 0.07324267
v -0.00004566 0.00799054 0.07324267
v 0.00068643 0.00794694 0.07252956
v 0.00068567 0.00793824 0.07324267
v 0.00182088 0.00776748 0.07252956
v 0.00114744 0.00791397 0.07252956
v 0.00114619 0.00790530 0.07324267
v 0.00181893 0.00775895 0.07324267
v 0.00343698 0.00724170 0.07252956
v 0.00231625 0.00765972 0.07252956
v 0.00231378 0.00765131 0.07324267
v 0.00343334 0.00723373 0.07324267
v 0.00448682 0.00666845 0.07252956
v 0.00448208 0.00666108 0.07324267
v 0.00544438 0.00595163 0.07252956
v 0.00543865 0.00594500 0.07324267
v 0.00629019 0.00510582 0.07252956
v 0.00628357 0.00510008 0.07324267
v 0.00700702 0.00414825 0.07252956
v 0.00699965 0.00414351 0.07324267
v 0.00758027 0.00309841 0.07252956
v 0.00757230 0.00309477 0.07324267
v 0.00799828 0.00197768 0.07252956
v 0.00798987 0.00197522 0.07324267
v 0.00825254 0.00080887 0.07252956
v 0.00824387 0.00080762 0.07324267
v 0.00833787 -0.00038423 0.07252956
v 0.00832911 -0.00038423 0.07324267
v 0.00825254 -0.00157733 0.07252956
v 0.00824386 -0.00157609 0.07324267
v 0.00799828 -0.00274615 0.07252956
v 0.00798987 -0.00274368 0.07324267
v 0.00758027 -0.00386688 0.07252956
v 0.00757230 -0.00386324 0.07324267
v 0.00700701 -0.00491671 0.07252956
v 0.00699964 -0.00491197 0.07324267
v 0.00629019 -0.00587428 0.07252956
v 0.00628357 -0.00586854 0.07324267
v 0.00544438 -0.00672009 0.07252956
v 0.00543864 -0.00671346 0.07324267
v 0.00448681 -0.00743691 0.07252956
v 0.00448208 -0.00742954 0.07324267
v 0.00343697 -0.00801016 0.07252956
v 0.00343333 -0.00800219 0.07324267
v 0.00231625 -0.00842817 0.07252956
v 0.00231378 -0.00841976 0.07324267
v 0.00114743 -0.00868243 0.07252956
v 0.00114619 -0.00867376 0.07324267
v -0.00004567 -0.00876776 0.07252956
v -0.00004567 -0.00875900 0.07324267
v -0.00123877 -0.00868243 0.07252956
v -0.00123752 -0.00867376 0.07324267
v -0.00240758 -0.00842817 0.07252956
v -0.00240511 -0.00841976 0.07324267
v -0.00352831 -0.00801016 0.07252956
v -0.00352467 -0.00800219 0.07324267
v -0.00457815 -0.00743691 0.07252956
v -0.00457341 -0.00742954 0.07324267
v -0.00553572 -0.00672008 0.07252956
v -0.00552998 -0.00671345 0.07324267
v -0.00638152 -0.00587427 0.07252956
v -0.00637490 -0.00586854 0.07324267
v -0.00709835 -0.00491671 0.07252956
v -0.00709098 -0.00491197 0.07324267
v -0.00767160 -0.00386687 0.07252956
v -0.00766363 -0.00386323 0.07324267
v -0.00808961 -0.00274614 0.07252956
v -0.00808120 -0.00274367 0.07324267
v -0.00834387 -0.00157733 0.07252956
v -0.00833519 -0.00157608 0.07324267
v -0.00842920 -0.00038423 0.07252956
v -0.00842044 -0.00038423 0.07324267
v -0.00834387 0.00080887 0.07252956
v -0.00833520 0.00080763 0.07324267
v -0.00808961 0.00197769 0.07252956
v -0.00808120 0.00197522 0.07324267
v -0.00767160 0.00309842 0.07252956
v -0.00766363 0.00309478 0.07324267
v -0.00709835 0.00414825 0.07252956
v -0.00709098 0.00414352 0.07324267
v -0.00638152 0.00510582 0.07252956
v -0.00637490 0.00510008 0.07324267
v -0.00553572 0.00595163 0.07252956
v -0.00552998 0.00594500 0.07324267
v -0.00457814 0.00666846 0.07252956
v -0.00457341 0.00666108 0.07324267
v -0.00352831 0.00724171 0.07252956
v -0.00352467 0.00723373 0.07324267
v -0.00240758 0.00765972 0.07252956
v -0.00240511 0.00765131 0.07324267
v -0.00115769 0.00735011 0.07226941
v -0.00004566 0.00742963 0.07226941
v 0.00063669 0.00738084 0.07226941
v 0.00106637 0.00735011 0.07226941
v 0.00169405 0.00721356 0.07226941
v 0.00215576 0.00711312 0.07226941
v 0.00320033 0.00672352 0.07226941
v 0.00417883 0.00618922 0.07226941
v 0.00507133 0.00552110 0.07226941
v 0.00585966 0.00473277 0.07226941
v 0.00652778 0.00384026 0.07226941
v 0.00706208 0.00286176 0.07226941
v 0.00745169 0.00181719 0.07226941
v 0.00768867 0.00072780 0.07226941
v 0.00776820 -0.00038423 0.07226941
v 0.00768867 -0.00149626 0.07226941
v 0.00745168 -0.00258565 0.07226941
v 0.00706208 -0.00363023 0.07226941
v 0.00652778 -0.00460873 0.07226941
v 0.00585966 -0.00550122 0.07226941
v 0.00507133 -0.00628956 0.07226941
v 0.00417883 -0.00695767 0.07226941
v 0.00320033 -0.00749197 0.07226941
v 0.00215575 -0.00788158 0.07226941
v 0.00106636 -0.00811856 0.07226941
v -0.00004567 -0.00819809 0.07226941
v -0.00115770 -0.00811856 0.07226941
v -0.00224709 -0.00788157 0.07226941
v -0.00329166 -0.00749197 0.07226941
v -0.00427016 -0.00695767 0.07226941
v -0.00516266 -0.00628955 0.07226941
v -0.00595099 -0.00550122 0.07226941
v -0.00661911 -0.00460872 0.07226941
v -0.00715341 -0.00363022 0.07226941
v -0.00754301 -0.00258564 0.07226941
v -0.00778000 -0.00149625 0.07226941
v -0.00785953 -0.00038423 0.07226941
v -0.00778000 0.00072780 0.07226941
v -0.00754302 0.00181719 0.07226941
v -0.00715341 0.00286177 0.07226941
v -0.00661911 0.00384027 0.07226941
v -0.00595099 0.00473277 0.07226941
v -0.00516266 0.00552110 0.07226941
v -0.00427016 0.00618922 0.07226941
v -0.00329166 0.00672352 0.07226941
v -0.00224708 0.00711312 0.07226941
v -0.00004566 0.00913053 0.07059300
v -0.00139976 0.00903369 0.07059300
v 0.00078522 0.00907111 0.07059300
v 0.00207275 0.00886742 0.07059300
v 0.00130843 0.00903369 0.07059300
v 0.00390691 0.00827071 0.07059300
v 0.00263496 0.00874512 0.07059300
v 0.00509841 0.00762010 0.07059300
v 0.00618518 0.00680655 0.07059300
v 0.00714512 0.00584662 0.07059300
v 0.00795867 0.00475984 0.07059300
v 0.00860927 0.00356834 0.07059300
v 0.00908369 0.00229639 0.07059300
v 0.00937226 0.00096986 0.07059300
v 0.00946910 -0.00038423 0.07059300
v 0.00937225 -0.00173832 0.07059300
v 0.00908369 -0.00306485 0.07059300
v 0.00860927 -0.00433681 0.07059300
v 0.00795867 -0.00552830 0.07059300
v 0.00714511 -0.00661508 0.07059300
v 0.00618518 -0.00757501 0.07059300
v 0.00509840 -0.00838857 0.07059300
v 0.00390690 -0.00903917 0.07059300
v 0.00263495 -0.00951358 0.07059300
v 0.00130842 -0.00980215 0.07059300
v -0.00004567 -0.00989899 0.07059300
v -0.00139976 -0.00980215 0.07059300
v -0.00272629 -0.00951358 0.07059300
v -0.00399824 -0.00903916 0.07059300
v -0.00518974 -0.00838856 0.07059300
v -0.00627652 -0.00757501 0.07059300
v -0.00723645 -0.00661507 0.07059300
v -0.00805000 -0.00552829 0.07059300
v -0.00870060 -0.00433680 0.07059300
v -0.00917501 -0.00306484 0.07059300
v -0.00946358 -0.00173832 0.07059300
v -0.00956043 -0.00038423 0.07059300
v -0.00946359 0.00096986 0.07059300
v -0.00917502 0.00229639 0.07059300
v -0.00870060 0.00356835 0.07059300
v -0.00805000 0.00475984 0.07059300
v -0.00723645 0.00584662 0.07059300
v -0.00627652 0.00680655 0.07059300
v -0.00518973 0.00762011 0.07059300
v -0.00399824 0.00827071 0.07059300
v -0.00272628 0.00874512 0.07059300
v -0.00594021 0.00472343 0.07343051
v -0.00515332 0.00551032 0.07343051
v -0.00426245 0.00617722 0.07343051
v -0.00328573 0.00671054 0.07343051
v -0.00224307 0.00709943 0.07343051
v -0.00115566 0.00733598 0.07343051
v -0.00004566 0.00741537 0.07343051
v 0.00063544 0.00736666 0.07343051
v 0.00106433 0.00733598 0.07343051
v 0.00169087 0.00719969 0.07343051
v 0.00215174 0.00709943 0.07343051
v 0.00319441 0.00671054 0.07343051
v 0.00417112 0.00617721 0.07343051
v 0.00506199 0.00551032 0.07343051
v 0.00584888 0.00472342 0.07343051
v 0.00651578 0.00383255 0.07343051
v 0.00704910 0.00285584 0.07343051
v 0.00743800 0.00181317 0.07343051
v 0.00767455 0.00072577 0.07343051
v 0.00775393 -0.00038423 0.07343051
v 0.00767455 -0.00149423 0.07343051
v 0.00743800 -0.00258163 0.07343051
v 0.00704910 -0.00362430 0.07343051
v 0.00651578 -0.00460101 0.07343051
v 0.00584888 -0.00549188 0.07343051
v 0.00506198 -0.00627878 0.07343051
v 0.00417111 -0.00694567 0.07343051
v 0.00319440 -0.00747900 0.07343051
v 0.00215173 -0.00786789 0.07343051
v 0.00106433 -0.00810444 0.07343051
v -0.00004567 -0.00818382 0.07343051
v -0.00115567 -0.00810444 0.07343051
v -0.00224307 -0.00786789 0.07343051
v -0.00328574 -0.00747899 0.07343051
v -0.00426245 -0.00694567 0.07343051
v -0.00515332 -0.00627877 0.07343051
v -0.00594021 -0.00549188 0.07343051
v -0.00660711 -0.00460101 0.07343051
v -0.00714043 -0.00362429 0.07343051
v -0.00752932 -0.00258162 0.07343051
v -0.00776588 -0.00149422 0.07343051
v -0.00784526 -0.00038423 0.07343051
v -0.00776588 0.00072577 0.07343051
v -0.00752933 0.00181317 0.07343051
v -0.00714043 0.00285584 0.07343051
v -0.00660711 0.00383255 0.07343051
f 1 2 3
f 1 3 4
f 5 6 7
f 5 7 8
f 9 10 11
f 9 11 12
f 13 14 15
f 13 15 16
f 17 18 19
f 17 19 20
f 21 22 23
f 21 23 24
f 25 26 27
f 25 27 28
f 29 30 31
f 29 31 32
f 33 34 35
f 33 35 36
f 37 38 39
f 37 39 40
f 41 42 43
f 41 43 44
f 45 46 47
f 45 47 48
f 49 50 51
f 49 51 52
f 53 54 55
f 53 55 56
f 57 58 59
f 57 59 60
f 61 62 2
f 61 2 1
f 62 63 3
f 62 3 2
f 63 64 4
f 63 4 3
f 64 61 1
f 64 1 4
f 65 66 58
f 65 58 57
f 66 67 59
f 66 59 58
f 67 68 60
f 67 60 59
f 68 65 57
f 68 57 60
f 69 70 54
f 69 54 53
f 70 71 55
f 70 55 54
f 71 72 56
f 71 56 55
f 72 69 53
f 72 53 56
f 73 74 50
f 73 50 49
f 74 75 51
f 74 51 50
f 75 76 52
f 75 52 51
f 76 73 49
f 76 49 52
f 77 78 46
f 77 46 45
f 78 79 47
f 78 47 46
f 79 80 48
f 79 48 47
f 80 77 45
f 80 45 48
f 81 82 42
f 81 42 41
f 82 83 43
f 82 43 42
f 83 84 44
f 83 44 43
f 84 81 41
f 84 41 44
f 85 86 38
f 85 38 37
f 86 87 39
f 86 39 38
f 87 88 40
f 87 40 39
f 88 85 37
f 88 37 40
f 89 90 34
f 89 34 33
f 90 91 35
f 90 35 34
f 91 92 36
f 91 36 35
f 92 89 33
f 92 33 36
f 93 94 30
f 93 30 29
f 94 95 31
f 94 31 30
f 95 96 32
f 95 32 31
f 96 93 29
f 96 29 32
f 97 98 26
f 97 26 25
f 98 99 27
f 98 27 26
f 99 100 28
f 99 28 27
f 100 97 25
f 100 25 28
f 101 102 22
f 101 22 21
f 102 103 23
f 102 23 22
f 103 104 24
f 103 24 23
f 104 101 21
f 104 21 24
f 105 106 18
f 105 18 17
f 106 107 19
f 106 19 18
f 107 108 20
f 107 20 19
f 108 105 17
f 108 17 20
f 109 110 14
f 109 14 13
f 110 111 15
f 110 15 14
f 111 112 16
f 111 16 15
f 112 109 13
f 112 13 16
f 113 114 10
f 113 10 9
f 114 115 11
f 114 11 10
f 115 116 12
f 115 12 11
f 116 113 9
f 116 9 12
f 6 117 118
f 6 118 7
f 119 120 6
f 119 6 5
f 121 122 8
f 121 8 7
f 122 119 5
f 122 5 8
f 120 123 117
f 120 117 6
f 123 124 118
f 123 118 117
f 124 121 7
f 124 7 118
f 125 126 127
f 126 128 127
f 128 129 127
f 129 130 127
f 130 131 127
f 131 132 127
f 132 133 127
f 133 134 127
f 134 135 127
f 135 136 127
f 136 137 127
f 137 138 127
f 138 139 127
f 139 140 127
f 140 141 127
f 141 142 127
f 142 143 127
f 143 144 127
f 144 145 127
f 145 146 127
f 146 147 127
f 147 148 127
f 148 149 127
f 149 150 127
f 150 151 127
f 151 152 127
f 152 153 127
f 153 154 127
f 154 155 127
f 155 156 127
f 157 158 127
f 158 159 127
f 159 160 127
f 160 161 127
f 161 162 127
f 162 163 127
f 163 164 127
f 164 165 127
f 165 166 127
f 166 167 127
f 167 168 127
f 168 125 127
f 156 169 127
f 169 157 127
f 170 171 172
f 170 172 173
f 174 170 173
f 174 173 175
f 176 174 175
f 176 175 177
f 178 176 177
f 178 177 179
f 180 178 179
f 180 179 181
f 182 180 181
f 182 181 183
f 184 182 183
f 184 183 185
f 186 184 185
f 186 185 187
f 188 186 187
f 188 187 189
f 190 188 189
f 190 189 191
f 192 190 191
f 192 191 193
f 194 195 196
f 194 196 197
f 198 199 200
f 198 200 201
f 202 198 201
f 202 201 203
f 204 202 203
f 204 203 205
f 206 204 205
f 206 205 207
f 208 206 207
f 208 207 209
f 210 208 209
f 210 209 211
f 212 210 211
f 212 211 213
f 214 212 213
f 214 213 215
f 216 214 215
f 216 215 217
f 218 216 217
f 218 217 219
f 220 218 219
f 220 219 221
f 222 220 221
f 222 221 223
f 224 222 223
f 224 223 225
f 226 224 225
f 226 225 227
f 228 226 227
f 228 227 229
f 230 228 229
f 230 229 231
f 232 230 231
f 232 231 233
f 234 232 233
f 234 233 235
f 236 234 235
f 236 235 237
f 238 236 237
f 238 237 239
f 240 238 239
f 240 239 241
f 242 240 241
f 242 241 243
f 244 242 243
f 244 243 245
f 246 244 245
f 246 245 247
f 248 246 247
f 248 247 249
f 250 248 249
f 250 249 251
f 252 250 251
f 252 251 253
f 254 252 253
f 254 253 255
f 256 254 255
f 256 255 257
f 258 256 257
f 258 257 259
f 260 258 259
f 260 259 261
f 171 260 261
f 171 261 172
f 209 207 152
f 209 152 151
f 211 209 151
f 211 151 150
f 213 211 150
f 213 150 149
f 215 213 149
f 215 149 148
f 217 215 148
f 217 148 147
f 219 217 147
f 219 147 146
f 221 219 146
f 221 146 145
f 223 221 145
f 223 145 144
f 225 223 144
f 225 144 143
f 227 225 143
f 227 143 142
f 229 227 142
f 229 142 141
f 231 229 141
f 231 141 140
f 233 231 140
f 233 140 139
f 235 233 139
f 235 139 138
f 237 235 138
f 237 138 137
f 239 237 137
f 239 137 136
f 241 239 136
f 241 136 135
f 243 241 135
f 243 135 134
f 245 243 134
f 245 134 133
f 247 245 133
f 247 133 132
f 249 247 132
f 249 132 131
f 251 249 131
f 251 131 130
f 253 251 130
f 253 130 129
f 255 253 129
f 255 129 128
f 257 255 128
f 257 128 126
f 259 257 126
f 259 126 125
f 261 259 125
f 261 125 168
f 172 261 168
f 172 168 167
f 173 172 167
f 173 167 166
f 175 173 166
f 175 166 165
f 177 175 165
f 177 165 164
f 179 177 164
f 179 164 163
f 181 179 163
f 181 163 162
f 183 181 162
f 183 162 161
f 185 183 161
f 185 161 160
f 187 185 160
f 187 160 159
f 189 187 159
f 189 159 158
f 191 189 158
f 191 158 157
f 193 191 157
f 193 157 262
f 197 196 169
f 197 169 263
f 201 200 156
f 201 156 155
f 203 201 155
f 203 155 154
f 205 203 154
f 205 154 153
f 207 205 153
f 207 153 152
f 264 76 265
f 264 265 266
f 71 264 266
f 71 266 267
f 72 71 267
f 72 267 268
f 269 72 268
f 269 268 270
f 67 269 270
f 67 270 271
f 68 67 271
f 68 271 272
f 273 68 272
f 273 272 274
f 63 273 274
f 63 274 275
f 64 63 275
f 64 275 276
f 277 64 276
f 277 276 278
f 124 277 278
f 124 278 279
f 122 121 280
f 122 280 281
f 115 282 283
f 115 283 284
f 116 115 284
f 116 284 285
f 286 116 285
f 286 285 287
f 111 286 287
f 111 287 288
f 112 111 288
f 112 288 289
f 290 112 289
f 290 289 291
f 107 290 291
f 107 291 292
f 108 107 292
f 108 292 293
f 294 108 293
f 294 293 295
f 103 294 295
f 103 295 296
f 104 103 296
f 104 296 297
f 298 104 297
f 298 297 299
f 99 298 299
f 99 299 300
f 100 99 300
f 100 300 301
f 302 100 301
f 302 301 303
f 95 302 303
f 95 303 304
f 96 95 304
f 96 304 305
f 306 96 305
f 306 305 307
f 91 306 307
f 91 307 308
f 92 91 308
f 92 308 309
f 310 92 309
f 310 309 311
f 87 310 311
f 87 311 312
f 88 87 312
f 88 312 313
f 314 88 313
f 314 313 315
f 83 314 315
f 83 315 316
f 84 83 316
f 84 316 317
f 318 84 317
f 318 317 319
f 79 318 319
f 79 319 320
f 80 79 320
f 80 320 321
f 322 80 321
f 322 321 323
f 75 322 323
f 75 323 324
f 76 75 324
f 76 324 265
f 268 267 174
f 268 174 176
f 270 268 176
f 270 176 178
f 271 270 178
f 271 178 180
f 272 271 180
f 272 180 182
f 274 272 182
f 274 182 184
f 275 274 184
f 275 184 186
f 276 275 186
f 276 186 188
f 278 276 188
f 278 188 190
f 279 278 190
f 279 190 192
f 281 280 195
f 281 195 194
f 284 283 199
f 284 199 198
f 285 284 198
f 285 198 202
f 287 285 202
f 287 202 204
f 288 287 204
f 288 204 206
f 289 288 206
f 289 206 208
f 291 289 208
f 291 208 210
f 292 291 210
f 292 210 212
f 293 292 212
f 293 212 214
f 295 293 214
f 295 214 216
f 296 295 216
f 296 216 218
f 297 296 218
f 297 218 220
f 299 297 220
f 299 220 222
f 300 299 222
f 300 222 224
f 301 300 224
f 301 224 226
f 303 301 226
f 303 226 228
f 304 303 228
f 304 228 230
f 305 304 230
f 305 230 232
f 307 305 232
f 307 232 234
f 308 307 234
f 308 234 236
f 309 308 236
f 309 236 238
f 311 309 238
f 311 238 240
f 312 311 240
f 312 240 242
f 313 312 242
f 313 242 244
f 315 313 244
f 315 244 246
f 316 315 246
f 316 246 248
f 317 316 248
f 317 248 250
f 319 317 250
f 319 250 252
f 320 319 252
f 320 252 254
f 321 320 254
f 321 254 256
f 323 321 256
f 323 256 258
f 324 323 258
f 324 258 260
f 265 324 260
f 265 260 171
f 266 265 171
f 266 171 170
f 267 266 170
f 267 170 174
f 62 325 273
f 62 273 63
f 326 61 64
f 326 64 277
f 123 326 277
f 123 277 124
f 114 327 282
f 114 282 115
f 328 113 116
f 328 116 286
f 110 328 286
f 110 286 111
f 329 109 112
f 329 112 290
f 106 329 290
f 106 290 107
f 330 105 108
f 330 108 294
f 102 330 294
f 102 294 103
f 331 101 104
f 331 104 298
f 98 331 298
f 98 298 99
f 332 97 100
f 332 100 302
f 94 332 302
f 94 302 95
f 333 93 96
f 333 96 306
f 90 333 306
f 90 306 91
f 334 89 92
f 334 92 310
f 86 334 310
f 86 310 87
f 335 85 88
f 335 88 314
f 82 335 314
f 82 314 83
f 336 81 84
f 336 84 318
f 78 336 318
f 78 318 79
f 337 77 80
f 337 80 322
f 74 337 322
f 74 322 75
f 338 73 76
f 338 76 264
f 70 338 264
f 70 264 71
f 339 69 72
f 339 72 269
f 66 339 269
f 66 269 67
f 325 65 68
f 325 68 273
f 196 193 262
f 196 262 169
f 195 192 193
f 195 193 196
f 280 279 192
f 280 192 195
f 121 124 279
f 121 279 280
f 200 197 263
f 200 263 156
f 199 194 197
f 199 197 200
f 283 281 194
f 283 194 199
f 282 122 281
f 282 281 283
f 327 119 122
f 327 122 282
f 340 341 342
f 340 342 343
f 341 344 345
f 341 345 342
f 344 346 347
f 344 347 345
f 346 348 349
f 346 349 347
f 348 350 351
f 348 351 349
f 350 352 353
f 350 353 351
f 352 354 355
f 352 355 353
f 354 356 357
f 354 357 355
f 356 358 359
f 356 359 357
f 358 360 361
f 358 361 359
f 360 362 363
f 360 363 361
f 362 364 365
f 362 365 363
f 364 366 367
f 364 367 365
f 366 368 369
f 366 369 367
f 368 370 371
f 368 371 369
f 370 372 373
f 370 373 371
f 372 374 375
f 372 375 373
f 374 376 377
f 374 377 375
f 376 378 379
f 376 379 377
f 378 380 381
f 378 381 379
f 380 382 383
f 380 383 381
f 382 384 385
f 382 385 383
f 384 386 387
f 384 387 385
f 386 388 389
f 386 389 387
f 388 390 391
f 388 391 389
f 390 392 393
f 390 393 391
f 392 394 395
f 392 395 393
f 394 396 397
f 394 397 395
f 396 398 399
f 396 399 397
f 398 400 401
f 398 401 399
f 402 403 404
f 402 404 405
f 406 407 408
f 406 408 409
f 407 410 411
f 407 411 408
f 410 412 413
f 410 413 411
f 412 414 415
f 412 415 413
f 414 416 417
f 414 417 415
f 416 418 419
f 416 419 417
f 418 420 421
f 418 421 419
f 420 422 423
f 420 423 421
f 422 424 425
f 422 425 423
f 424 426 427
f 424 427 425
f 426 428 429
f 426 429 427
f 428 430 431
f 428 431 429
f 430 340 343
f 430 343 431
f 343 342 432
f 343 432 433
f 342 345 434
f 342 434 432
f 345 347 435
f 345 435 434
f 347 349 436
f 347 436 435
f 349 351 437
f 349 437 436
f 351 353 438
f 351 438 437
f 353 355 439
f 353 439 438
f 355 357 440
f 355 440 439
f 357 359 441
f 357 441 440
f 359 361 442
f 359 442 441
f 361 363 443
f 361 443 442
f 363 365 444
f 363 444 443
f 365 367 445
f 365 445 444
f 367 369 446
f 367 446 445
f 369 371 447
f 369 447 446
f 371 373 448
f 371 448 447
f 373 375 449
f 373 449 448
f 375 377 450
f 375 450 449
f 377 379 451
f 377 451 450
f 379 381 452
f 379 452 451
f 381 383 453
f 381 453 452
f 383 385 454
f 383 454 453
f 385 387 455
f 385 455 454
f 387 389 456
f 387 456 455
f 389 391 457
f 389 457 456
f 391 393 458
f 391 458 457
f 393 395 459
f 393 459 458
f 395 397 460
f 395 460 459
f 397 399 461
f 397 461 460
f 399 401 462
f 399 462 461
f 405 404 463
f 405 463 464
f 409 408 465
f 409 465 466
f 408 411 467
f 408 467 465
f 411 413 468
f 411 468 467
f 413 415 469
f 413 469 468
f 415 417 470
f 415 470 469
f 417 419 471
f 417 471 470
f 419 421 472
f 419 472 471
f 421 423 473
f 421 473 472
f 423 425 474
f 423 474 473
f 425 427 475
f 425 475 474
f 427 429 476
f 427 476 475
f 429 431 477
f 429 477 476
f 431 343 433
f 431 433 477
f 433 432 478
f 433 478 479
f 432 434 480
f 432 480 478
f 434 435 481
f 434 481 480
f 435 436 482
f 435 482 481
f 436 437 483
f 436 483 482
f 437 438 484
f 437 484 483
f 438 439 485
f 438 485 484
f 439 440 486
f 439 486 485
f 440 441 487
f 440 487 486
f 441 442 488
f 441 488 487
f 442 443 489
f 442 489 488
f 443 444 490
f 443 490 489
f 444 445 491
f 444 491 490
f 445 446 492
f 445 492 491
f 446 447 493
f 446 493 492
f 447 448 494
f 447 494 493
f 448 449 495
f 448 495 494
f 449 450 496
f 449 496 495
f 450 451 497
f 450 497 496
f 451 452 498
f 451 498 497
f 452 453 499
f 452 499 498
f 453 454 500
f 453 500 499
f 454 455 501
f 454 501 500
f 455 456 502
f 455 502 501
f 456 457 503
f 456 503 502
f 457 458 504
f 457 504 503
f 458 459 505
f 458 505 504
f 459 460 506
f 459 506 505
f 460 461 507
f 460 507 506
f 461 462 508
f 461 508 507
f 464 463 509
f 464 509 510
f 466 465 511
f 466 511 512
f 465 467 513
f 465 513 511
f 467 468 514
f 467 514 513
f 468 469 515
f 468 515 514
f 469 470 516
f 469 516 515
f 470 471 517
f 470 517 516
f 471 472 518
f 471 518 517
f 472 473 519
f 472 519 518
f 473 474 520
f 473 520 519
f 474 475 521
f 474 521 520
f 475 476 522
f 475 522 521
f 476 477 523
f 476 523 522
f 477 433 479
f 477 479 523
f 479 478 524
f 479 524 525
f 478 480 526
f 478 526 524
f 480 481 527
f 480 527 526
f 481 482 528
f 481 528 527
f 482 483 529
f 482 529 528
f 483 484 530
f 483 530 529
f 484 485 531
f 484 531 530
f 485 486 532
f 485 532 531
f 486 487 533
f 486 533 532
f 487 488 534
f 487 534 533
f 488 489 535
f 488 535 534
f 489 490 536
f 489 536 535
f 490 491 537
f 490 537 536
f 491 492 538
f 491 538 537
f 492 493 539
f 492 539 538
f 493 494 540
f 493 540 539
f 494 495 541
f 494 541 540
f 495 496 542
f 495 542 541
f 496 497 543
f 496 543 542
f 497 498 544
f 497 544 543
f 498 499 545
f 498 545 544
f 499 500 546
f 499 546 545
f 500 501 547
f 500 547 546
f 501 502 548
f 501 548 547
f 502 503 549
f 502 549 548
f 503 504 550
f 503 550 549
f 504 505 551
f 504 551 550
f 505 506 552
f 505 552 551
f 506 507 553
f 506 553 552
f 507 508 554
f 507 554 553
f 510 509 555
f 510 555 556
f 512 511 557
f 512 557 558
f 511 513 559
f 511 559 557
f 513 514 560
f 513 560 559
f 514 515 561
f 514 561 560
f 515 516 562
f 515 562 561
f 516 517 563
f 516 563 562
f 517 518 564
f 517 564 563
f 518 519 565
f 518 565 564
f 519 520 566
f 519 566 565
f 520 521 567
f 520 567 566
f 521 522 568
f 521 568 567
f 522 523 569
f 522 569 568
f 523 479 525
f 523 525 569
f 570 571 426
f 570 426 424
f 572 570 424
f 572 424 422
f 573 572 422
f 573 422 420
f 574 573 420
f 574 420 418
f 575 574 418
f 575 418 416
f 576 575 416
f 576 416 414
f 577 576 414
f 577 414 412
f 578 577 412
f 578 412 410
f 579 578 410
f 579 410 407
f 580 579 407
f 580 407 406
f 581 582 403
f 581 403 402
f 583 584 400
f 583 400 398
f 585 583 398
f 585 398 396
f 586 585 396
f 586 396 394
f 587 586 394
f 587 394 392
f 588 587 392
f 588 392 390
f 589 588 390
f 589 390 388
f 590 589 388
f 590 388 386
f 591 590 386
f 591 386 384
f 592 591 384
f 592 384 382
f 593 592 382
f 593 382 380
f 594 593 380
f 594 380 378
f 595 594 378
f 595 378 376
f 596 595 376
f 596 376 374
f 597 596 374
f 597 374 372
f 598 597 372
f 598 372 370
f 599 598 370
f 599 370 368
f 600 599 368
f 600 368 366
f 601 600 366
f 601 366 364
f 602 601 364
f 602 364 362
f 603 602 362
f 603 362 360
f 604 603 360
f 604 360 358
f 605 604 358
f 605 358 356
f 606 605 356
f 606 356 354
f 607 606 354
f 607 354 352
f 608 607 352
f 608 352 350
f 609 608 350
f 609 350 348
f 610 609 348
f 610 348 346
f 611 610 346
f 611 346 344
f 612 611 344
f 612 344 341
f 613 612 341
f 613 341 340
f 614 613 340
f 614 340 430
f 615 614 430
f 615 430 428
f 571 615 428
f 571 428 426
f 509 512 558
f 509 558 555
f 463 466 512
f 463 512 509
f 404 409 466
f 404 466 463
f 403 406 409
f 403 409 404
f 582 580 406
f 582 406 403
f 508 510 556
f 508 556 554
f 462 464 510
f 462 510 508
f 401 405 464
f 401 464 462
f 400 402 405
f 400 405 401
f 584 581 402
f 584 402 400
f 616 617 618
f 619 616 618
f 620 619 618
f 621 620 618
f 622 621 618
f 623 622 618
f 624 623 618
f 625 624 618
f 626 625 618
f 627 626 618
f 628 627 618
f 629 628 618
f 630 629 618
f 631 630 618
f 632 631 618
f 633 632 618
f 634 633 618
f 635 634 618
f 636 635 618
f 637 636 618
f 638 637 618
f 639 638 618
f 640 639 618
f 641 640 618
f 642 641 618
f 643 642 618
f 644 643 618
f 645 644 618
f 646 645 618
f 647 646 618
f 648 649 618
f 650 648 618
f 651 650 618
f 652 651 618
f 653 652 618
f 654 653 618
f 655 654 618
f 656 655 618
f 657 656 618
f 658 657 618
f 659 658 618
f 617 659 618
f 617 616 660
f 617 660 661
f 616 619 662
f 616 662 660
f 619 620 663
f 619 663 662
f 620 621 664
f 620 664 663
f 621 622 665
f 621 665 664
f 622 623 666
f 622 666 665
f 623 624 667
f 623 667 666
f 624 625 668
f 624 668 667
f 625 626 669
f 625 669 668
f 626 627 670
f 626 670 669
f 627 628 671
f 627 671 670
f 628 629 672
f 628 672 671
f 629 630 673
f 629 673 672
f 630 631 674
f 630 674 673
f 631 632 675
f 631 675 674
f 632 633 676
f 632 676 675
f 633 634 677
f 633 677 676
f 634 635 678
f 634 678 677
f 635 636 679
f 635 679 678
f 636 637 680
f 636 680 679
f 637 638 681
f 637 681 680
f 638 639 682
f 638 682 681
f 639 640 683
f 639 683 682
f 640 641 684
f 640 684 683
f 641 642 685
f 641 685 684
f 642 643 686
f 642 686 685
f 643 644 687
f 643 687 686
f 644 645 688
f 644 688 687
f 645 646 689
f 645 689 688
f 646 647 690
f 646 690 689
f 691 692 693
f 691 693 694
f 695 649 696
f 695 696 697
f 649 648 698
f 649 698 696
f 648 650 699
f 648 699 698
f 650 651 700
f 650 700 699
f 651 652 701
f 651 701 700
f 652 653 702
f 652 702 701
f 653 654 703
f 653 703 702
f 654 655 704
f 654 704 703
f 655 656 705
f 655 705 704
f 656 657 706
f 656 706 705
f 657 658 707
f 657 707 706
f 658 659 708
f 658 708 707
f 659 617 661
f 659 661 708
f 709 710 711
f 709 711 712
f 710 713 714
f 710 714 711
f 713 715 716
f 713 716 714
f 715 717 718
f 715 718 716
f 717 719 720
f 717 720 718
f 719 721 722
f 719 722 720
f 721 723 724
f 721 724 722
f 723 725 726
f 723 726 724
f 725 727 728
f 725 728 726
f 727 729 730
f 727 730 728
f 729 731 732
f 729 732 730
f 731 733 734
f 731 734 732
f 733 735 736
f 733 736 734
f 735 737 738
f 735 738 736
f 737 739 740
f 737 740 738
f 739 741 742
f 739 742 740
f 741 743 744
f 741 744 742
f 743 745 746
f 743 746 744
f 745 747 748
f 745 748 746
f 747 749 750
f 747 750 748
f 749 751 752
f 749 752 750
f 751 753 754
f 751 754 752
f 753 755 756
f 753 756 754
f 755 757 758
f 755 758 756
f 757 759 760
f 757 760 758
f 759 761 762
f 759 762 760
f 761 763 764
f 761 764 762
f 763 765 766
f 763 766 764
f 765 767 768
f 765 768 766
f 767 769 770
f 767 770 768
f 771 772 773
f 771 773 774
f 775 776 777
f 775 777 778
f 776 779 780
f 776 780 777
f 779 781 782
f 779 782 780
f 781 783 784
f 781 784 782
f 783 785 786
f 783 786 784
f 785 787 788
f 785 788 786
f 787 789 790
f 787 790 788
f 789 791 792
f 789 792 790
f 791 793 794
f 791 794 792
f 793 795 796
f 793 796 794
f 795 797 798
f 795 798 796
f 797 799 800
f 797 800 798
f 799 709 712
f 799 712 800
f 692 691 647
f 692 647 618
f 649 695 692
f 649 692 618
f 801 802 803
f 801 803 804
f 805 801 804
f 805 804 806
f 807 808 809
f 807 809 810
f 811 812 813
f 811 813 814
f 815 811 814
f 815 814 816
f 817 815 816
f 817 816 818
f 819 817 818
f 819 818 820
f 821 819 820
f 821 820 822
f 823 821 822
f 823 822 824
f 825 823 824
f 825 824 826
f 827 825 826
f 827 826 828
f 829 827 828
f 829 828 830
f 831 829 830
f 831 830 832
f 833 831 832
f 833 832 834
f 835 833 834
f 835 834 836
f 837 835 836
f 837 836 838
f 839 837 838
f 839 838 840
f 841 839 840
f 841 840 842
f 843 841 842
f 843 842 844
f 845 843 844
f 845 844 846
f 847 845 846
f 847 846 848
f 849 847 848
f 849 848 850
f 851 849 850
f 851 850 852
f 853 851 852
f 853 852 854
f 855 853 854
f 855 854 856
f 857 855 856
f 857 856 858
f 859 857 858
f 859 858 860
f 861 859 860
f 861 860 862
f 863 861 862
f 863 862 864
f 865 863 864
f 865 864 866
f 867 865 866
f 867 866 868
f 869 867 868
f 869 868 870
f 871 869 870
f 871 870 872
f 873 871 872
f 873 872 874
f 875 873 874
f 875 874 876
f 877 875 876
f 877 876 878
f 879 877 878
f 879 878 880
f 881 879 880
f 881 880 882
f 883 881 882
f 883 882 884
f 885 883 884
f 885 884 886
f 887 885 886
f 887 886 888
f 889 887 888
f 889 888 890
f 891 889 890
f 891 890 892
f 802 891 892
f 802 892 803
f 777 780 893
f 777 893 894
f 778 777 894
f 778 894 895
f 774 773 896
f 774 896 897
f 768 770 898
f 768 898 899
f 766 768 899
f 766 899 900
f 764 766 900
f 764 900 901
f 762 764 901
f 762 901 902
f 760 762 902
f 760 902 903
f 758 760 903
f 758 903 904
f 756 758 904
f 756 904 905
f 754 756 905
f 754 905 906
f 752 754 906
f 752 906 907
f 750 752 907
f 750 907 908
f 748 750 908
f 748 908 909
f 746 748 909
f 746 909 910
f 744 746 910
f 744 910 911
f 742 744 911
f 742 911 912
f 740 742 912
f 740 912 913
f 738 740 913
f 738 913 914
f 736 738 914
f 736 914 915
f 734 736 915
f 734 915 916
f 732 734 916
f 732 916 917
f 730 732 917
f 730 917 918
f 728 730 918
f 728 918 919
f 726 728 919
f 726 919 920
f 724 726 920
f 724 920 921
f 722 724 921
f 722 921 922
f 720 722 922
f 720 922 923
f 718 720 923
f 718 923 924
f 716 718 924
f 716 924 925
f 714 716 925
f 714 925 926
f 711 714 926
f 711 926 927
f 712 711 927
f 712 927 928
f 800 712 928
f 800 928 929
f 798 800 929
f 798 929 930
f 796 798 930
f 796 930 931
f 794 796 931
f 794 931 932
f 792 794 932
f 792 932 933
f 790 792 933
f 790 933 934
f 788 790 934
f 788 934 935
f 786 788 935
f 786 935 936
f 784 786 936
f 784 936 937
f 782 784 937
f 782 937 938
f 780 782 938
f 780 938 893
f 939 940 779
f 939 779 776
f 941 939 776
f 941 776 775
f 942 943 772
f 942 772 771
f 944 945 769
f 944 769 767
f 946 944 767
f 946 767 765
f 947 946 765
f 947 765 763
f 948 947 763
f 948 763 761
f 949 948 761
f 949 761 759
f 950 949 759
f 950 759 757
f 951 950 757
f 951 757 755
f 952 951 755
f 952 755 753
f 953 952 753
f 953 753 751
f 954 953 751
f 954 751 749
f 955 954 749
f 955 749 747
f 956 955 747
f 956 747 745
f 957 956 745
f 957 745 743
f 958 957 743
f 958 743 741
f 959 958 741
f 959 741 739
f 960 959 739
f 960 739 737
f 961 960 737
f 961 737 735
f 962 961 735
f 962 735 733
f 963 962 733
f 963 733 731
f 964 963 731
f 964 731 729
f 965 964 729
f 965 729 727
f 966 965 727
f 966 727 725
f 967 966 725
f 967 725 723
f 968 967 723
f 968 723 721
f 969 968 721
f 969 721 719
f 970 969 719
f 970 719 717
f 971 970 717
f 971 717 715
f 972 971 715
f 972 715 713
f 973 972 713
f 973 713 710
f 974 973 710
f 974 710 709
f 975 974 709
f 975 709 799
f 976 975 799
f 976 799 797
f 977 976 797
f 977 797 795
f 978 977 795
f 978 795 793
f 979 978 793
f 979 793 791
f 980 979 791
f 980 791 789
f 981 980 789
f 981 789 787
f 982 981 787
f 982 787 785
f 983 982 785
f 983 785 783
f 984 983 783
f 984 783 781
f 940 984 781
f 940 781 779
f 557 559 940
f 557 940 939
f 558 557 939
f 558 939 941
f 556 555 943
f 556 943 942
f 553 554 945
f 553 945 944
f 552 553 944
f 552 944 946
f 551 552 946
f 551 946 947
f 550 551 947
f 550 947 948
f 549 550 948
f 549 948 949
f 548 549 949
f 548 949 950
f 547 548 950
f 547 950 951
f 546 547 951
f 546 951 952
f 545 546 952
f 545 952 953
f 544 545 953
f 544 953 954
f 543 544 954
f 543 954 955
f 542 543 955
f 542 955 956
f 541 542 956
f 541 956 957
f 540 541 957
f 540 957 958
f 539 540 958
f 539 958 959
f 538 539 959
f 538 959 960
f 537 538 960
f 537 960 961
f 536 537 961
f 536 961 962
f 535 536 962
f 535 962 963
f 534 535 963
f 534 963 964
f 533 534 964
f 533 964 965
f 532 533 965
f 532 965 966
f 531 532 966
f 531 966 967
f 530 531 967
f 530 967 968
f 529 530 968
f 529 968 969
f 528 529 969
f 528 969 970
f 527 528 970
f 527 970 971
f 526 527 971
f 526 971 972
f 524 526 972
f 524 972 973
f 525 524 973
f 525 973 974
f 569 525 974
f 569 974 975
f 568 569 975
f 568 975 976
f 567 568 976
f 567 976 977
f 566 567 977
f 566 977 978
f 565 566 978
f 565 978 979
f 564 565 979
f 564 979 980
f 563 564 980
f 563 980 981
f 562 563 981
f 562 981 982
f 561 562 982
f 561 982 983
f 560 561 983
f 560 983 984
f 559 560 984
f 559 984 940
f 886 884 985
f 886 985 986
f 888 886 986
f 888 986 987
f 890 888 987
f 890 987 988
f 892 890 988
f 892 988 989
f 803 892 989
f 803 989 990
f 804 803 990
f 804 990 991
f 806 804 991
f 806 991 992
f 810 809 993
f 810 993 994
f 814 813 995
f 814 995 996
f 816 814 996
f 816 996 997
f 818 816 997
f 818 997 998
f 820 818 998
f 820 998 999
f 822 820 999
f 822 999 1000
f 824 822 1000
f 824 1000 1001
f 826 824 1001
f 826 1001 1002
f 828 826 1002
f 828 1002 1003
f 830 828 1003
f 830 1003 1004
f 832 830 1004
f 832 1004 1005
f 834 832 1005
f 834 1005 1006
f 836 834 1006
f 836 1006 1007
f 838 836 1007
f 838 1007 1008
f 840 838 1008
f 840 1008 1009
f 842 840 1009
f 842 1009 1010
f 844 842 1010
f 844 1010 1011
f 846 844 1011
f 846 1011 1012
f 848 846 1012
f 848 1012 1013
f 850 848 1013
f 850 1013 1014
f 852 850 1014
f 852 1014 1015
f 854 852 1015
f 854 1015 1016
f 856 854 1016
f 856 1016 1017
f 858 856 1017
f 858 1017 1018
f 860 858 1018
f 860 1018 1019
f 862 860 1019
f 862 1019 1020
f 864 862 1020
f 864 1020 1021
f 866 864 1021
f 866 1021 1022
f 868 866 1022
f 868 1022 1023
f 870 868 1023
f 870 1023 1024
f 872 870 1024
f 872 1024 1025
f 874 872 1025
f 874 1025 1026
f 876 874 1026
f 876 1026 1027
f 878 876 1027
f 878 1027 1028
f 880 878 1028
f 880 1028 1029
f 882 880 1029
f 882 1029 1030
f 884 882 1030
f 884 1030 985
f 1019 1018 85
f 1019 85 335
f 1020 1019 335
f 1020 335 82
f 1021 1020 82
f 1021 82 81
f 1022 1021 81
f 1022 81 336
f 1023 1022 336
f 1023 336 78
f 1024 1023 78
f 1024 78 77
f 1025 1024 77
f 1025 77 337
f 1026 1025 337
f 1026 337 74
f 1027 1026 74
f 1027 74 73
f 1028 1027 73
f 1028 73 338
f 1029 1028 338
f 1029 338 70
f 1030 1029 70
f 1030 70 69
f 985 1030 69
f 985 69 339
f 986 985 339
f 986 339 66
f 987 986 66
f 987 66 65
f 988 987 65
f 988 65 325
f 989 988 325
f 989 325 62
f 990 989 62
f 990 62 61
f 991 990 61
f 991 61 326
f 992 991 326
f 992 326 123
f 994 993 120
f 994 120 119
f 996 995 327
f 996 327 114
f 997 996 114
f 997 114 113
f 998 997 113
f 998 113 328
f 999 998 328
f 999 328 110
f 1000 999 110
f 1000 110 109
f 1001 1000 109
f 1001 109 329
f 1002 1001 329
f 1002 329 106
f 1003 1002 106
f 1003 106 105
f 1004 1003 105
f 1004 105 330
f 1005 1004 330
f 1005 330 102
f 1006 1005 102
f 1006 102 101
f 1007 1006 101
f 1007 101 331
f 1008 1007 331
f 1008 331 98
f 1009 1008 98
f 1009 98 97
f 1010 1009 97
f 1010 97 332
f 1011 1010 332
f 1011 332 94
f 1012 1011 94
f 1012 94 93
f 1013 1012 93
f 1013 93 333
f 1014 1013 333
f 1014 333 90
f 1015 1014 90
f 1015 90 89
f 1016 1015 89
f 1016 89 334
f 1017 1016 334
f 1017 334 86
f 1018 1017 86
f 1018 86 85
f 929 928 871
f 929 871 873
f 930 929 873
f 930 873 875
f 931 930 875
f 931 875 877
f 932 931 877
f 932 877 879
f 933 932 879
f 933 879 881
f 934 933 881
f 934 881 883
f 935 934 883
f 935 883 885
f 936 935 885
f 936 885 887
f 937 936 887
f 937 887 889
f 938 937 889
f 938 889 891
f 893 938 891
f 893 891 802
f 894 893 802
f 894 802 801
f 895 894 801
f 895 801 805
f 897 896 808
f 897 808 807
f 899 898 812
f 899 812 811
f 900 899 811
f 900 811 815
f 901 900 815
f 901 815 817
f 902 901 817
f 902 817 819
f 903 902 819
f 903 819 821
f 904 903 821
f 904 821 823
f 905 904 823
f 905 823 825
f 906 905 825
f 906 825 827
f 907 906 827
f 907 827 829
f 908 907 829
f 908 829 831
f 909 908 831
f 909 831 833
f 910 909 833
f 910 833 835
f 911 910 835
f 911 835 837
f 912 911 837
f 912 837 839
f 913 912 839
f 913 839 841
f 914 913 841
f 914 841 843
f 915 914 843
f 915 843 845
f 916 915 845
f 916 845 847
f 917 916 847
f 917 847 849
f 918 917 849
f 918 849 851
f 919 918 851
f 919 851 853
f 920 919 853
f 920 853 855
f 921 920 855
f 921 855 857
f 922 921 857
f 922 857 859
f 923 922 859
f 923 859 861
f 924 923 861
f 924 861 863
f 925 924 863
f 925 863 865
f 926 925 865
f 926 865 867
f 927 926 867
f 927 867 869
f 928 927 869
f 928 869 871
f 993 992 123
f 993 123 120
f 809 806 992
f 809 992 993
f 808 805 806
f 808 806 809
f 896 895 805
f 896 805 808
f 773 778 895
f 773 895 896
f 772 775 778
f 772 778 773
f 943 941 775
f 943 775 772
f 555 558 941
f 555 941 943
f 692 695 697
f 692 697 693
f 995 994 119
f 995 119 327
f 813 810 994
f 813 994 995
f 812 807 810
f 812 810 813
f 898 897 807
f 898 807 812
f 770 774 897
f 770 897 898
f 769 771 774
f 769 774 770
f 945 942 771
f 945 771 769
f 554 556 942
f 554 942 945
f 647 691 694
f 647 694 690
f 679 680 593
f 679 593 594
f 678 679 594
f 678 594 595
f 677 678 595
f 677 595 596
f 676 677 596
f 676 596 597
f 675 676 597
f 675 597 598
f 674 675 598
f 674 598 599
f 673 674 599
f 673 599 600
f 672 673 600
f 672 600 601
f 671 672 601
f 671 601 602
f 670 671 602
f 670 602 603
f 669 670 603
f 669 603 604
f 668 669 604
f 668 604 605
f 667 668 605
f 667 605 606
f 666 667 606
f 666 606 607
f 665 666 607
f 665 607 608
f 664 665 608
f 664 608 609
f 663 664 609
f 663 609 610
f 662 663 610
f 662 610 611
f 660 662 611
f 660 611 612
f 661 660 612
f 661 612 613
f 708 661 613
f 708 613 614
f 707 708 614
f 707 614 615
f 706 707 615
f 706 615 571
f 705 706 571
f 705 571 570
f 704 705 570
f 704 570 572
f 703 704 572
f 703 572 573
f 702 703 573
f 702 573 574
f 701 702 574
f 701 574 575
f 700 701 575
f 700 575 576
f 699 700 576
f 699 576 577
f 698 699 577
f 698 577 578
f 696 698 578
f 696 578 579
f 697 696 579
f 697 579 580
f 693 697 580
f 693 580 582
f 694 693 582
f 694 582 581
f 690 694 581
f 690 581 584
f 689 690 584
f 689 584 583
f 688 689 583
f 688 583 585
f 687 688 585
f 687 585 586
f 686 687 586
f 686 586 587
f 685 686 587
f 685 587 588
f 684 685 588
f 684 588 589
f 683 684 589
f 683 589 590
f 682 683 590
f 682 590 591
f 681 682 591
f 681 591 592
f 680 681 592
f 680 592 593
f 4 3 2
f 2 1 4
f 12 11 10
f 10 9 12
f 16 15 14
f 14 13 16
f 20 19 18
f 18 17 20
f 24 23 22
f 22 21 24
f 28 27 26
f 26 25 28
f 32 31 30
f 30 29 32
f 36 35 34
f 34 33 36
f 40 39 38
f 38 37 40
f 44 43 42
f 42 41 44
f 48 47 46
f 46 45 48
f 52 51 50
f 50 49 52
f 56 55 54
f 54 53 56
f 60 59 58
f 58 57 60
f 1 2 62
f 62 61 1
f 2 3 63
f 63 62 2
f 3 4 64
f 64 63 3
f 4 1 61
f 61 64 4
f 57 58 66
f 66 65 57
f 58 59 67
f 67 66 58
f 59 60 68
f 68 67 59
f 60 57 65
f 65 68 60
f 53 54 70
f 70 69 53
f 54 55 71
f 71 70 54
f 55 56 72
f 72 71 55
f 56 53 69
f 69 72 56
f 49 50 74
f 74 73 49
f 50 51 75
f 75 74 50
f 51 52 76
f 76 75 51
f 52 49 73
f 73 76 52
f 45 46 78
f 78 77 45
f 46 47 79
f 79 78 46
f 47 48 80
f 80 79 47
f 48 45 77
f 77 80 48
f 41 42 82
f 82 81 41
f 42 43 83
f 83 82 42
f 43 44 84
f 84 83 43
f 44 41 81
f 81 84 44
f 37 38 86
f 86 85 37
f 38 39 87
f 87 86 38
f 39 40 88
f 88 87 39
f 40 37 85
f 85 88 40
f 33 34 90
f 90 89 33
f 34 35 91
f 91 90 34
f 35 36 92
f 92 91 35
f 36 33 89
f 89 92 36
f 29 30 94
f 94 93 29
f 30 31 95
f 95 94 30
f 31 32 96
f 96 95 31
f 32 29 93
f 93 96 32
f 25 26 98
f 98 97 25
f 26 27 99
f 99 98 26
f 27 28 100
f 100 99 27
f 28 25 97
f 97 100 28
f 21 22 102
f 102 101 21
f 22 23 103
f 103 102 22
f 23 24 104
f 104 103 23
f 24 21 101
f 101 104 24
f 17 18 106
f 106 105 17
f 18 19 107
f 107 106 18
f 19 20 108
f 108 107 19
f 20 17 105
f 105 108 20
f 13 14 110
f 110 109 13
f 14 15 111
f 111 110 14
f 15 16 112
f 112 111 15
f 16 13 109
f 109 112 16
f 9 10 114
f 114 113 9
f 10 11 115
f 115 114 10
f 11 12 116
f 116 115 11
f 12 9 113
f 113 116 12
f 8 5 119
f 119 122 8
f 117 118 124
f 124 123 117