# https://github.com/mikedh/trimesh
v 0.05927208 -0.02620053 0.01279498
v 0.05927208 -0.02620053 0.00000003
v 0.05437571 -0.02620053 0.00097396
v 0.05022470 -0.02620058 0.00374759
v 0.04745106 -0.02620058 0.00789859
v 0.04647713 -0.02620053 0.01279498
v 0.04745106 -0.02620053 0.01769141
v 0.05022470 -0.02620058 0.02184241
v 0.05437571 -0.02620053 0.02461600
v 0.05927208 -0.02620053 0.02558997
v 0.06416851 -0.02620053 0.02461600
v 0.06831952 -0.02620058 0.02184241
v 0.07109310 -0.02620053 0.01769141
v 0.07206704 -0.02620053 0.01279498
v 0.07109310 -0.02620058 0.00789859
v 0.06831952 -0.02620058 0.00374759
v 0.06416851 -0.02620053 0.00097396
v 0.05927208 -0.03246562 0.01279496
v 0.05494625 -0.03407385 0.00235154
v 0.05927208 -0.03407380 0.00149104
v 0.05127903 -0.03407375 0.00480189
v 0.04882864 -0.03407380 0.00846914
v 0.04796815 -0.03407385 0.01279495
v 0.04882864 -0.03407380 0.01712079
v 0.05127903 -0.03407375 0.02078805
v 0.05494625 -0.03407385 0.02323840
v 0.05927208 -0.03407380 0.02409890
v 0.06359792 -0.03407385 0.02323840
v 0.06726514 -0.03407375 0.02078805
v 0.06971553 -0.03407380 0.01712079
v 0.07057602 -0.03407385 0.01279495
v 0.06971553 -0.03407380 0.00846914
v 0.06726514 -0.03407375 0.00480189
v 0.06359792 -0.03407385 0.00235154
v -0.04210663 -0.02620053 0.01279498
v -0.04210663 -0.02620053 0.00000003
v -0.04700301 -0.02620053 0.00097396
v -0.05115402 -0.02620058 0.00374759
v -0.05392765 -0.02620058 0.00789859
v -0.05490158 -0.02620053 0.01279498
v -0.05392765 -0.02620053 0.01769141
v -0.05115402 -0.02620058 0.02184241
v -0.04700301 -0.02620053 0.02461599
v -0.04210663 -0.02620053 0.02558997
v -0.03721021 -0.02620053 0.02461600
v -0.03305919 -0.02620058 0.02184241
v -0.03028561 -0.02620053 0.01769141
v -0.02931168 -0.02620053 0.01279498
v -0.03028561 -0.02620058 0.00789859
v -0.03305919 -0.02620058 0.00374759
v -0.03721021 -0.02620053 0.00097396
v -0.04210663 -0.03246562 0.01279496
v -0.04643247 -0.03407385 0.00235154
v -0.04210663 -0.03407380 0.00149104
v -0.05009968 -0.03407375 0.00480189
v -0.05255007 -0.03407380 0.00846914
v -0.05341056 -0.03407385 0.01279495
v -0.05255007 -0.03407380 0.01712079
v -0.05009968 -0.03407375 0.02078805
v -0.04643247 -0.03407385 0.02323840
v -0.04210663 -0.03407380 0.02409890
v -0.03778080 -0.03407385 0.02323840
v -0.03411358 -0.03407375 0.02078805
v -0.03166319 -0.03407380 0.01712079
v -0.03080270 -0.03407385 0.01279495
v -0.03166319 -0.03407380 0.00846914
v -0.03411358 -0.03407375 0.00480189
v -0.03778080 -0.03407385 0.00235154
v 0.05927208 0.02653074 0.01279498
v 0.05437571 0.02653074 0.00097396
v 0.05927208 0.02653074 0.00000003
v 0.05022470 0.02653079 0.00374759
v 0.04745106 0.02653079 0.00789859
v 0.04647713 0.02653074 0.01279498
v 0.04745106 0.02653074 0.01769141
v 0.05022470 0.02653079 0.02184241
v 0.05437571 0.02653074 0.02461600
v 0.05927208 0.02653074 0.02558997
v 0.06416851 0.02653074 0.02461600
v 0.06831952 0.02653079 0.02184241
v 0.07109310 0.02653074 0.01769141
v 0.07206704 0.02653074 0.01279498
v 0.07109310 0.02653079 0.00789859
v 0.06831952 0.02653079 0.00374759
v 0.06416851 0.02653074 0.00097396
v 0.05927208 0.03279583 0.01279496
v 0.05927208 0.03440401 0.00149104
v 0.05494625 0.03440406 0.00235154
v 0.05127903 0.03440396 0.00480189
v 0.04882864 0.03440401 0.00846914
v 0.04796815 0.03440406 0.01279495
v 0.04882864 0.03440401 0.01712079
v 0.05127903 0.03440396 0.02078805
v 0.05494625 0.03440406 0.02323840
v 0.05927208 0.03440401 0.02409890
v 0.06359792 0.03440406 0.02323840
v 0.06726514 0.03440396 0.02078805
v 0.06971553 0.03440401 0.01712079
v 0.07057602 0.03440406 0.01279495
v 0.06971553 0.03440401 0.00846914
v 0.06726514 0.03440396 0.00480189
v 0.06359792 0.03440406 0.00235154
v -0.04210663 0.02653074 0.01279498
v -0.04700301 0.02653074 0.00097396
v -0.04210663 0.02653074 0.00000003
v -0.05115402 0.02653079 0.00374759
v -0.05392765 0.02653079 0.00789859
v -0.05490158 0.02653074 0.01279498
v -0.05392765 0.02653074 0.01769141
v -0.05115402 0.02653079 0.02184241
v -0.04700301 0.02653074 0.02461599
v -0.04210663 0.02653074 0.02558997
v -0.03721021 0.02653074 0.02461599
v -0.03305919 0.02653079 0.02184241
v -0.03028561 0.02653074 0.01769141
v -0.02931168 0.02653074 0.01279498
v -0.03028561 0.02653079 0.00789859
v -0.03305919 0.02653079 0.00374759
v -0.03721021 0.02653074 0.00097396
v -0.04210663 0.03279583 0.01279496
v -0.04210663 0.03440401 0.00149104
v -0.04643247 0.03440406 0.00235154
v -0.05009968 0.03440396 0.00480189
v -0.05255007 0.03440401 0.00846914
v -0.05341056 0.03440406 0.01279495
v -0.05255007 0.03440401 0.01712079
v -0.05009968 0.03440396 0.02078805
v -0.04643247 0.03440406 0.02323840
v -0.04210663 0.03440401 0.02409890
v -0.03778080 0.03440406 0.02323840
v -0.03411358 0.03440396 0.02078805
v -0.03166319 0.03440401 0.01712079
v -0.03080270 0.03440406 0.01279495
v -0.03166319 0.03440401 0.00846914
v -0.03411358 0.03440396 0.00480189
v -0.03778080 0.03440406 0.00235154
v 0.05927208 -0.03407380 0.00000000
v 0.05437571 -0.03407380 0.00097392
v 0.05022470 -0.03407380 0.00374755
v 0.04745106 -0.03407380 0.00789856
v 0.04647713 -0.03407385 0.01279495
v 0.04745106 -0.03407385 0.01769137
v 0.05022470 -0.03407380 0.02184238
v 0.05437571 -0.03407385 0.02461596
v 0.05927208 -0.03407380 0.02558994
v 0.06416851 -0.03407385 0.02461596
v 0.06831952 -0.03407380 0.02184238
v 0.07109310 -0.03407385 0.01769137
v 0.07206704 -0.03407385 0.01279495
v 0.07109310 -0.03407380 0.00789856
v 0.06831952 -0.03407380 0.00374755
v 0.06416851 -0.03407380 0.00097392
v -0.04210663 -0.03407380 -0.00000000
v -0.04700301 -0.03407380 0.00097392
v -0.05115402 -0.03407380 0.00374755
v -0.05392765 -0.03407380 0.00789856
v -0.05490158 -0.03407385 0.01279495
v -0.05392765 -0.03407385 0.01769137
v -0.05115402 -0.03407380 0.02184238
v -0.04700301 -0.03407385 0.02461596
v -0.04210663 -0.03407380 0.02558994
v -0.03721021 -0.03407385 0.02461596
v -0.03305919 -0.03407380 0.02184238
v -0.03028561 -0.03407385 0.01769137
v -0.02931168 -0.03407385 0.01279495
v -0.03028561 -0.03407380 0.00789856
v -0.03305919 -0.03407380 0.00374755
v -0.03721021 -0.03407380 0.00097392
v 0.05437571 0.03440401 0.00097392
v 0.05927208 0.03440401 0.00000000
v 0.05022470 0.03440401 0.00374755
v 0.04745106 0.03440401 0.00789856
v 0.04647713 0.03440406 0.01279495
v 0.04745106 0.03440406 0.01769137
v 0.05022470 0.03440401 0.02184238
v 0.05437571 0.03440406 0.02461596
v 0.05927208 0.03440401 0.02558994
v 0.06416851 0.03440406 0.02461596
v 0.06831952 0.03440401 0.02184238
v 0.07109310 0.03440406 0.01769137
v 0.07206704 0.03440406 0.01279495
v 0.07109310 0.03440401 0.00789856
v 0.06831952 0.03440401 0.00374755
v 0.06416851 0.03440401 0.00097392
v -0.04700301 0.03440401 0.00097392
v -0.04210663 0.03440401 -0.00000000
v -0.05115402 0.03440401 0.00374755
v -0.05392765 0.03440401 0.00789856
v -0.05490158 0.03440406 0.01279495
v -0.05392765 0.03440406 0.01769137
v -0.05115402 0.03440401 0.02184238
v -0.04700301 0.03440406 0.02461596
v -0.04210663 0.03440401 0.02558994
v -0.03721021 0.03440406 0.02461596
v -0.03305919 0.03440401 0.02184238
v -0.03028561 0.03440406 0.01769137
v -0.02931168 0.03440406 0.01279495
v -0.03028561 0.03440401 0.00789856
v -0.03305919 0.03440401 0.00374755
v -0.03721021 0.03440401 0.00097392
v 0.02037573 0.03114031 0.03906985
v 0.02370172 0.03169252 0.03527867
v 0.01572636 0.03709080 0.03750379
v 0.01572636 0.03647919 0.03906985
v 0.02453641 0.03097693 0.03386741
v 0.02453641 0.03018711 0.03413149
v 0.01477898 0.03693483 0.03931976
v 0.01477898 0.03760561 0.03760218
v 0.01942830 0.03004174 0.03931976
v 0.01942830 0.03125554 0.03444217
v 0.02358902 0.03069974 0.03361398
v 0.02358902 0.02983350 0.03390361
v 0.01222074 0.03693483 0.03931976
v 0.01222074 0.03760561 0.03760218
v 0.01564219 0.03170585 0.03931976
v 0.01564219 0.03218182 0.03516178
v 0.02037573 -0.03081010 0.03906985
v 0.01572636 -0.03614898 0.03906985
v 0.01572636 -0.03676059 0.03750379
v 0.02370172 -0.03136231 0.03527867
v 0.02453641 -0.03064672 0.03386741
v 0.02453641 -0.02985690 0.03413149
v 0.01477898 -0.03660462 0.03931976
v 0.01477898 -0.03727540 0.03760218
v 0.01942830 -0.02971153 0.03931976
v 0.01942830 -0.03092533 0.03444217
v 0.02358902 -0.03036953 0.03361398
v 0.02358902 -0.02950329 0.03390361
v 0.01222074 -0.03660462 0.03931976
v 0.01222074 -0.03727540 0.03760218
v 0.01564219 -0.03137564 0.03931976
v 0.01564219 -0.03185161 0.03516178
v 0.06202640 0.02561066 0.02720452
v 0.05783348 0.02561066 0.02725358
v 0.05783348 0.03531968 0.02725358
v 0.06202640 0.03531968 0.02720452
v 0.06511743 0.02561066 0.02623839
v 0.06511743 0.03531968 0.02623839
v 0.06721698 0.02561066 0.02520636
v 0.06721698 0.03531968 0.02520636
v 0.05475929 0.02561066 0.02663378
v 0.05475929 0.03531968 0.02663378
v 0.05160272 0.02561066 0.02519335
v 0.05160272 0.03531968 0.02519335
v 0.04901823 0.02561066 0.02307771
v 0.04901823 0.03531968 0.02307771
v 0.04655570 0.02561066 0.01958421
v 0.04655570 0.03531968 0.01958421
v 0.04543488 0.02561066 0.01610326
v 0.04543488 0.03531968 0.01610326
v 0.04507112 0.02565744 0.01280796
v 0.04507112 0.03536647 0.01280795
v 0.06877969 0.02561066 0.02400242
v 0.06877969 0.03531968 0.02400242
v 0.04547664 0.02565744 0.00858454
v 0.04547664 0.03460989 0.00858454
v 0.07173082 0.02561066 0.02024698
v 0.07173082 0.03531968 0.02024698
v 0.07346949 0.02561063 0.01627760
v 0.07346949 0.03468779 0.01627760
v 0.07376053 0.02561071 0.01346492
v 0.07376053 0.03375426 0.01346492
v 0.07357971 0.02561066 0.00814202
v 0.07357971 0.03108270 0.00814201
v -0.03995560 0.02548619 0.02864746
v -0.04413817 0.02548619 0.02864746
v -0.04413817 0.03531968 0.02864746
v -0.03995560 0.03531968 0.02864746
v -0.04727542 0.02548619 0.02789108
v -0.04727542 0.03531968 0.02789108
v -0.04806512 0.02548619 0.02748230
v -0.04806512 0.03531968 0.02748230
v -0.03688147 0.02548619 0.02802766
v -0.03688147 0.03531968 0.02802766
v -0.03394510 0.02548619 0.02663032
v -0.03394510 0.03531968 0.02663032
v -0.03118558 0.02548619 0.02447080
v -0.03118558 0.03531968 0.02447080
v -0.02891749 0.02548619 0.02150819
v -0.02891749 0.03531968 0.02150819
v -0.02736727 0.02548619 0.01772499
v -0.02736727 0.03531968 0.01772499
v -0.02660457 0.02548619 0.01378020
v -0.02660457 0.03531968 0.01378020
v -0.02688551 0.02548617 0.00909533
v -0.02688551 0.03456310 0.00909532
v -0.05151332 0.02548619 0.02558686
v -0.05151332 0.03531968 0.02558686
v -0.05479557 0.02548619 0.02238292
v -0.05479557 0.03466795 0.02238292
v -0.05682999 0.02548619 0.01779611
v -0.05682999 0.03466795 0.01779611
v -0.05742044 0.02548619 0.01514747
v -0.05742044 0.03466795 0.01514747
v -0.05742044 0.02548621 0.00958472
v -0.05742044 0.03122564 0.00958472
v 0.06202640 -0.02528045 0.02720452
v 0.06202640 -0.03498948 0.02720452
v 0.05783348 -0.03498948 0.02725358
v 0.05783348 -0.02528045 0.02725358
v 0.06511743 -0.02528045 0.02623839
v 0.06511743 -0.03498948 0.02623839
v 0.06721698 -0.02528045 0.02520636
v 0.06721698 -0.03498948 0.02520636
v 0.05475929 -0.03498948 0.02663378
v 0.05475929 -0.02528045 0.02663378
v 0.05160272 -0.03498948 0.02519335
v 0.05160272 -0.02528045 0.02519335
v 0.04901823 -0.03498948 0.02307771
v 0.04901823 -0.02528045 0.02307771
v 0.04655570 -0.03498948 0.01958421
v 0.04655570 -0.02528045 0.01958421
v 0.04543488 -0.03498948 0.01610326
v 0.04543488 -0.02528045 0.01610326
v 0.04507112 -0.03503627 0.01280795
v 0.04507112 -0.02532724 0.01280796
v 0.06877969 -0.02528045 0.02400242
v 0.06877969 -0.03498948 0.02400242
v 0.04547664 -0.03427968 0.00858454
v 0.04547664 -0.02532724 0.00858454
v 0.07173082 -0.02528045 0.02024698
v 0.07173082 -0.03498948 0.02024698
v 0.07346949 -0.02528042 0.01627760
v 0.07346949 -0.03435758 0.01627760
v 0.07376053 -0.02528050 0.01346492
v 0.07376053 -0.03342405 0.01346492
v 0.07357971 -0.02528045 0.00814202
v 0.07357971 -0.03075249 0.00814201
v -0.03995560 -0.02515598 0.02864746
v -0.03995560 -0.03498948 0.02864746
v -0.04413817 -0.03498948 0.02864746
v -0.04413817 -0.02515598 0.02864746
v -0.04727542 -0.03498948 0.02789108
v -0.04727542 -0.02515598 0.02789108
v -0.04806512 -0.03498948 0.02748230
v -0.04806512 -0.02515598 0.02748230
v -0.03688147 -0.02515598 0.02802766
v -0.03688147 -0.03498948 0.02802766
v -0.03394510 -0.02515598 0.02663032
v -0.03394510 -0.03498948 0.02663032
v -0.03118558 -0.02515598 0.02447080
v -0.03118558 -0.03498948 0.02447080
v -0.02891749 -0.02515598 0.02150819
v -0.02891749 -0.03498948 0.02150819
v -0.02736727 -0.02515598 0.01772499
v -0.02736727 -0.03498948 0.01772499
v -0.02660457 -0.02515598 0.01378020
v -0.02660457 -0.03498948 0.01378020
v -0.02688551 -0.02515596 0.00909533
v -0.02688551 -0.03423290 0.00909532
v -0.05151332 -0.03498948 0.02558686
v -0.05151332 -0.02515598 0.02558686
v -0.05479557 -0.03433774 0.02238292
v -0.05479557 -0.02515598 0.02238292
v -0.05682999 -0.03433774 0.01779611
v -0.05682999 -0.02515598 0.01779611
v -0.05742044 -0.03433774 0.01514747
v -0.05742044 -0.02515598 0.01514747
v -0.05742044 -0.03089543 0.00958472
v -0.05742044 -0.02515601 0.00958472
v -0.06035388 0.03030625 0.00974786
v -0.06046381 0.00015299 0.00969858
v -0.07012419 0.02261080 0.01192887
v -0.06934108 0.02741011 0.01222457
v -0.07333218 0.00016510 0.01192887
v -0.06035388 -0.02997604 0.00974786
v -0.06934108 -0.02707987 0.01222457
v -0.07012419 -0.02228057 0.01192886
v -0.05742044 -0.02515601 0.00958472
v -0.05742044 -0.03089543 0.00958472
v 0.03014213 0.03484646 0.00852256
v 0.03014213 -0.03451628 0.00852256
v -0.01448270 -0.03430787 0.00915061
v -0.01448270 0.03463810 0.00915062
v 0.04260358 0.03449100 0.00852417
v 0.04260358 -0.03416082 0.00852417
v -0.02356472 -0.03451187 0.00936266
v -0.02356472 0.03484210 0.00936266
v 0.04422673 0.03460989 0.00853318
v 0.04422673 -0.03427968 0.00853318
v 0.04547664 -0.03427968 0.00858453
v 0.07357971 0.00014172 0.00814201
v 0.07357971 -0.02532721 0.00814201
v 0.04547664 -0.02532726 0.00858453
v 0.04547664 0.00016510 0.00858454
v 0.07504893 0.03108270 0.00814599
v 0.07504893 -0.03075251 0.00814598
v 0.08193771 -0.02347456 0.00767349
v 0.07964852 -0.02865070 0.00814598
v 0.08193771 0.02380477 0.00767350
v 0.08792295 0.00016510 0.00714352
v 0.07357971 -0.03075251 0.00814201
v 0.07964852 0.02898089 0.00814599
v -0.02688551 -0.02515596 0.00909532
v -0.02548955 -0.03423290 0.00906477
v -0.02548955 0.03456310 0.00906477
v -0.02688551 -0.03423290 0.00909532
v -0.03995560 0.03531968 0.03011880
v -0.04413817 0.03531968 0.03011880
v -0.04413817 0.03328782 0.03366397
v -0.03995560 0.03328782 0.03366397
v -0.04741571 0.03531968 0.02939635
v -0.04802465 0.03339361 0.03257579
v -0.05056005 0.03531968 0.02808467
v -0.05205454 0.03367155 0.03095059
v -0.03581816 0.03339359 0.03246305
v -0.03688147 0.03531968 0.02949900
v -0.03204261 0.03354082 0.03025017
v -0.03347805 0.03531968 0.02797941
v -0.02866024 0.03354082 0.02696097
v -0.03061153 0.03531968 0.02586107
v -0.02630873 0.03342396 0.02322354
v -0.02771984 0.03531968 0.02252963
v -0.02480720 0.03354082 0.01952028
v -0.02619618 0.03531968 0.01909361
v -0.02369149 0.03512819 0.01406191
v -0.02522893 0.03531968 0.01374830
v -0.04401522 0.03080924 0.03734961
v -0.03941394 0.03109008 0.03690438
v -0.05173432 0.03009576 0.03740929
v -0.07172826 0.02766273 0.03256347
v -0.06760479 0.03025545 0.03026274
v -0.07334759 0.02732029 0.02914277
v -0.03443940 0.03119584 0.03645195
v -0.01989993 0.03048073 0.03367050
v -0.02032166 0.03235027 0.02671731
v -0.07135598 0.02749928 0.03412158
v -0.07002462 0.02690488 0.03661688
v -0.07224218 0.02644474 0.03416797
v -0.07112904 0.02581817 0.03634560
v -0.07277834 0.02508819 0.03410957
v -0.07190536 0.02496573 0.03622909
v -0.04172097 0.02583928 0.03752339
v -0.03941394 0.02731400 0.03690438
v -0.05173432 0.02377774 0.03740929
v -0.03443940 0.02839598 0.03645195
v -0.01989988 0.03048073 0.03367051
v -0.06208542 0.01913575 0.03747858
v -0.01905455 0.03278674 0.02322354
v -0.01753732 0.03295143 0.01952028
v -0.01612670 0.03327940 0.01377959
v -0.05444682 0.03415317 0.02575000
v -0.02356472 0.03533274 0.01377243
v -0.01448270 0.03539469 0.01356038
v 0.06201604 0.03283236 0.03172727
v 0.06201604 0.03531968 0.02854422
v 0.05783348 0.03531968 0.02854422
v 0.05783348 0.03292002 0.03187489
v 0.06529354 0.03531968 0.02756591
v 0.06590247 0.03289171 0.03060693
v 0.06829866 0.03531968 0.02615031
v 0.07002757 0.03325114 0.02844141
v 0.07637534 0.03059375 0.03001369
v 0.07634056 0.03314413 0.02373904
v 0.07080157 0.03531968 0.02400640
v 0.05369599 0.03355927 0.03088848
v 0.05475929 0.03531968 0.02792442
v 0.04962637 0.03445253 0.02875750
v 0.05124134 0.03531968 0.02648545
v 0.04653806 0.03491552 0.02538640
v 0.04834282 0.03531968 0.02436836
v 0.04454972 0.03503372 0.02137152
v 0.04576362 0.03531968 0.02087486
v 0.04329000 0.03508812 0.01769275
v 0.04445817 0.03531968 0.01739391
v 0.04260358 0.03524758 0.01282355
v 0.04385068 0.03536647 0.01284661
v 0.03092786 0.03450237 0.02155846
v 0.03101352 0.03400465 0.02564056
v 0.03059635 0.03453684 0.01769628
v 0.03014213 0.03487235 0.01314277
v 0.03014213 0.03560305 0.01293233
v -0.01448270 0.03539469 0.01356039
v 0.05785408 0.03199203 0.03335020
v 0.06201604 0.03184800 0.03299414
v 0.06836782 0.03153006 0.03201640
v 0.05352795 0.03206325 0.03362275
v 0.02825816 0.03166946 0.03418605
v 0.05785408 0.02880133 0.03376720
v 0.06201604 0.02842342 0.03331856
v 0.06836782 0.02752689 0.03222542
v 0.07434083 0.02634916 0.03156680
v 0.05352795 0.02908130 0.03424836
v 0.02699408 0.03015047 0.03464998
v -0.01989988 0.03048073 0.03367050
v 0.05785408 0.02717742 0.03376720
v 0.06201604 0.02686860 0.03331856
v 0.06836782 0.02600996 0.03231282
v 0.07433785 0.02536915 0.03160770
v 0.05352795 0.02741006 0.03435436
v 0.02918157 0.02953002 0.03478160
v 0.03129544 0.02892075 0.03490679
v 0.03201460 0.02740847 0.03494415
v 0.03471680 0.02742435 0.03494415
v -0.07324812 0.02369132 0.03397137
v -0.07307057 0.02356886 0.03622909
v -0.07479987 0.02149658 0.03387296
v -0.07434555 0.02137414 0.03604413
v -0.07658823 0.01422593 0.03374994
v -0.07631319 0.01410347 0.03576577
v -0.07767367 0.00625041 0.03373354
v -0.07776740 0.00612795 0.03569637
v -0.07790621 0.00016510 0.03377454
v -0.07807454 0.00016510 0.03571957
v -0.03892821 0.02664082 0.03690438
v -0.03443940 0.02772280 0.03645195
v 0.08277859 0.01011893 0.03041331
v 0.08522809 0.00016510 0.03025623
v 0.08619281 0.00016510 0.02988531
v 0.08347728 0.01033214 0.03004239
v -0.01943015 0.02929380 0.03367050
v -0.02836083 0.02073323 0.04698114
v -0.02743405 0.02284683 0.04470436
v -0.01865002 0.02073323 0.04788618
v -0.01818613 0.02284683 0.04629368
v -0.00319210 0.02160189 0.04826868
v -0.00272817 0.02358833 0.04656272
v 0.00477579 0.02224810 0.04765339
v 0.00453889 0.02408037 0.04609533
v 0.01276710 0.02316235 0.04583162
v 0.01253021 0.02549365 0.04400969
v 0.01568153 0.02425029 0.04403177
v 0.01544458 0.02603307 0.04289666
v 0.02722032 0.02889105 0.03646066
v 0.02745722 0.02756212 0.03738885
v 0.06833423 0.00016510 0.03438162
v 0.06658378 0.01100297 0.03393403
v 0.05868262 0.00016510 0.03597367
v 0.05733155 0.01137519 0.03573391
v 0.03737698 0.00016510 0.03708773
v 0.03690750 0.01215993 0.03675453
v 0.08254184 0.01068498 0.03045199
v 0.06767794 0.01332030 0.03352281
v 0.05737346 0.01420274 0.03441696
v 0.03872439 0.01535838 0.03536739
v 0.07598284 0.02384841 0.03131518
v 0.07638985 0.02484568 0.03121210
v 0.07761862 0.02134162 0.03118519
v 0.07838399 0.02184691 0.03088826
v 0.08023600 0.01618866 0.03074675
v 0.08119641 0.01644591 0.03041858
v 0.08326506 0.01090090 0.03007739
v 0.03686916 0.00962564 0.03536739
v 0.03849106 0.00962564 0.03536739
v 0.03496707 0.01952587 0.03536739
v 0.03737698 0.00016510 0.03536739
v 0.03900989 0.00016510 0.03536739
v 0.03133621 0.02759437 0.03494415
v 0.03461544 0.01952587 0.03536739
v 0.03651753 0.00962564 0.03536739
v 0.03702536 0.00016510 0.03536739
v -0.02836078 0.00617652 0.04749081
v -0.01865002 0.00654923 0.04839585
v -0.00319210 0.00648466 0.04877836
v 0.00477579 0.00648463 0.04816307
v 0.01603558 0.01291572 0.04579781
v 0.01714580 0.00648463 0.04597408
v -0.03568317 0.02040801 0.04484174
v -0.03677506 0.00597089 0.04590252
v -0.02836078 0.00497122 0.04731527
v -0.01865002 0.00534392 0.04817632
v -0.00319210 0.00527937 0.04855883
v 0.00477579 0.00527933 0.04794354
v 0.01714580 0.00527933 0.04599907
v -0.03677506 0.00476558 0.04603889
v -0.02836078 0.00016510 0.04719787
v -0.01865002 0.00016510 0.04822271
v -0.00319210 0.00016510 0.04860522
v 0.00477579 0.00016510 0.04798993
v 0.01714580 0.00016510 0.04602852
v -0.03677506 0.00016510 0.04608528
v -0.05772907 0.03365069 0.02254606
v -0.05976348 0.03374858 0.01795925
v -0.06035388 0.03374858 0.01531061
v -0.07106087 0.03054218 0.02051007
v -0.07056866 0.02988611 0.02731784
v -0.07158628 0.03042688 0.01906782
v -0.07108242 0.02996203 0.01590547
v -0.07443140 0.02556686 0.02715419
v -0.07445459 0.02556686 0.02829517
v -0.07444299 0.02709165 0.02051007
v -0.07547241 0.02585144 0.01871054
v -0.07610582 0.02161440 0.02735264
v -0.07612900 0.02161440 0.02829517
v -0.07611741 0.02313919 0.02051008
v -0.07646676 0.02261080 0.01906998
v -0.07689903 0.01722476 0.02735264
v -0.07692222 0.01722476 0.02829517
v -0.07691062 0.01874954 0.02051007
v -0.07754160 0.01689456 0.01906998
v -0.07796090 0.01139156 0.02829517
v -0.07847328 0.01139156 0.02742129
v -0.07848487 0.01058724 0.02051007
v -0.07981395 0.00016510 0.02735264
v -0.07930157 0.00016510 0.02829517
v -0.07967475 0.00016510 0.01906998
v -0.07982554 0.00016510 0.02051007
v -0.07682988 0.00735364 0.02688885
v -0.07744703 0.00016510 0.02688889
v -0.07682705 0.00673869 0.02106956
v -0.07746754 0.00016510 0.02106952
v -0.07387102 0.02673115 0.01579176
v -0.06934108 0.02741011 0.01220701
v -0.06360086 0.01691262 0.03722375
v -0.06241332 0.01842234 0.03721237
v -0.06487584 0.01471790 0.03703879
v -0.06524288 0.01410347 0.03696434
v -0.06669704 0.00612795 0.03689493
v -0.06700418 0.00016510 0.03691813
v -0.06158780 0.00612795 0.03725147
v -0.06037018 0.01410347 0.03732087
v -0.06177179 0.00016510 0.03727467
v -0.06021889 0.01471790 0.03703879
v -0.05905106 0.01842231 0.03721237
v -0.07346648 0.02118111 0.03351064
v -0.07479561 0.02129891 0.02793285
v -0.07558883 0.01690927 0.02793285
v -0.07850375 0.00016510 0.02793285
v -0.07657282 0.00016510 0.03341222
v -0.07634028 0.00593492 0.03337121
v -0.07716308 0.01107609 0.02793285
v -0.07525484 0.01391044 0.03338762
v -0.07191473 0.02337583 0.03360905
v -0.07312120 0.02525138 0.02773440
v -0.07201420 0.02700483 0.02878045
v -0.07144495 0.02477271 0.03374725
v -0.07090879 0.02612928 0.03380565
v -0.07039482 0.02734727 0.03220115
v -0.07002259 0.02718379 0.03375926
v 0.08228344 0.02486938 0.02868639
v 0.07954424 0.02939644 0.02901023
v 0.08508824 0.01788197 0.02821672
v 0.08732512 0.01090090 0.02787552
v 0.08991357 0.00016510 0.02768344
v 0.08753729 0.01033214 0.02784052
v 0.07954905 0.02939644 0.02901022
v 0.08251846 0.02941274 0.02345421
v 0.08276546 0.02486938 0.02768601
v 0.08013955 0.02939981 0.02784718
v 0.08557030 0.01788197 0.02741478
v 0.08780718 0.01090090 0.02714224
v 0.09039559 0.00016510 0.02688150
v 0.08801935 0.01033214 0.02714116
v 0.07320004 0.03531968 0.02064852
v 0.07493876 0.03471633 0.01628157
v 0.07522975 0.03375426 0.01346889
v 0.08216693 0.02913235 0.01319610
v 0.08472150 0.02380477 0.01242525
v 0.08067477 0.03148404 0.02171913
v 0.08174560 0.03088068 0.01650468
v 0.08575379 0.02174231 0.01291436
v 0.08643357 0.01896021 0.01284259
v 0.09167963 0.00016510 0.01046691
v 0.08216693 0.02913235 0.01319618
v 0.08425762 0.02545461 0.01354883
v 0.08564075 0.02440535 0.01694398
v 0.08473517 0.02579462 0.01568310
v 0.08341249 0.02826327 0.02216764
v 0.08609848 0.02231840 0.01674014
v 0.08897486 0.01145774 0.02074244
v 0.08784176 0.01641901 0.01642467
v 0.08716154 0.01814604 0.01467669
v 0.08627851 0.02110559 0.01495465
v 0.09193422 0.00016510 0.01971595
v 0.09184623 0.00016510 0.01640818
v 0.08227175 0.02445060 0.02746498
v 0.07964585 0.02898106 0.02762615
v 0.08507660 0.01746319 0.02719375
v 0.08731347 0.01048212 0.02692121
v 0.08752565 0.00991337 0.02692013
v 0.08990188 0.00016510 0.02666047
v 0.08799657 0.01103897 0.02189206
v 0.09095592 0.00016510 0.02086556
v 0.08243419 0.02784449 0.02331726
v 0.08154016 0.02899396 0.02460382
v 0.08501066 0.02416754 0.01708076
v 0.08564837 0.02086778 0.01509143
v 0.08512366 0.02150450 0.01305115
v 0.08410509 0.02555681 0.01581989
v 0.08409142 0.02356695 0.01256204
v 0.08362748 0.02521680 0.01368561
v 0.08546835 0.02208059 0.01687692
v 0.08773951 0.01591302 0.01593486
v 0.08729188 0.01734841 0.01468470
v 0.08659476 0.01802509 0.01306116
v 0.09142545 0.00016510 0.01587477
v 0.09084961 0.00016510 0.01247383
v -0.07514674 0.02603025 0.01812975
v -0.07614114 0.02261080 0.01848919
v -0.07721598 0.01689456 0.01848919
v -0.07934913 0.00016510 0.01848919
v -0.07420154 0.02603025 0.01812976
v -0.07519589 0.02261080 0.01848919
v -0.07627073 0.01689456 0.01848919
v -0.07840388 0.00016510 0.01848919
v -0.07519589 0.02261080 0.01692429
v -0.07840388 0.00016510 0.01692429
v 0.02390211 0.02937618 0.03517202
v 0.02587926 0.02881543 0.03529099
v -0.03820336 0.02547968 0.03776905
v -0.03567921 0.02620413 0.03720958
v -0.03162217 0.02705922 0.03662787
v -0.01805664 0.02860191 0.03428676
v -0.02529065 0.02277507 0.04425930
v -0.01693225 0.02277507 0.04569574
v -0.00296120 0.02344526 0.04593890
v 0.00360687 0.02388997 0.04551646
v 0.01082949 0.02516728 0.04363144
v 0.01346357 0.02565484 0.04262547
v 0.02410660 0.02823790 0.03680854
v -0.03995560 -0.03498948 0.03011879
v -0.03995560 -0.03295764 0.03366396
v -0.04413817 -0.03295764 0.03366396
v -0.04413817 -0.03498948 0.03011879
v -0.04802465 -0.03306341 0.03257579
v -0.04741571 -0.03498948 0.02939635
v -0.05205454 -0.03334134 0.03095058
v -0.05056005 -0.03498948 0.02808467
v -0.03688147 -0.03498948 0.02949899
v -0.03581816 -0.03306341 0.03246305
v -0.03347805 -0.03498948 0.02797941
v -0.03204261 -0.03321064 0.03025016
v -0.03061153 -0.03498948 0.02586107
v -0.02866024 -0.03321064 0.02696096
v -0.02771984 -0.03498948 0.02252963
v -0.02630873 -0.03309375 0.02322353
v -0.02619618 -0.03498948 0.01909361
v -0.02480720 -0.03321064 0.01952027
v -0.02522893 -0.03498948 0.01374830
v -0.02369149 -0.03479801 0.01406190
v -0.03941394 -0.03075990 0.03690437
v -0.04401522 -0.03047906 0.03734961
v -0.05173432 -0.02976555 0.03740929
v -0.07172826 -0.02733252 0.03256346
v -0.07334759 -0.02699009 0.02914276
v -0.06545342 -0.03022735 0.03058551
v -0.03443940 -0.03086566 0.03645194
v -0.01989993 -0.03015052 0.03367050
v -0.02032166 -0.03202007 0.02671731
v -0.07002462 -0.02657468 0.03661688
v -0.07135598 -0.02716907 0.03412157
v -0.07112904 -0.02548797 0.03634560
v -0.07224218 -0.02611453 0.03416796
v -0.07190536 -0.02463553 0.03622909
v -0.07277834 -0.02475799 0.03410957
v -0.03941394 -0.02698379 0.03690438
v -0.04172097 -0.02550907 0.03752339
v -0.05173432 -0.02344756 0.03740929
v -0.03443940 -0.02806577 0.03645194
v -0.01989988 -0.03015052 0.03367050
v -0.06208542 -0.01880554 0.03747858
v -0.01905455 -0.03245653 0.02322353
v -0.01753732 -0.03262122 0.01952027
v -0.01612670 -0.03294917 0.01377958
v -0.04413817 -0.03498948 0.02864745
v -0.03995560 -0.03498948 0.02864745
v -0.04727542 -0.03498948 0.02789107
v -0.04806512 -0.03498948 0.02748229
v -0.05444682 -0.03382296 0.02575000
v -0.03688147 -0.03498948 0.02802765
v -0.03394510 -0.03498948 0.02663031
v -0.03118558 -0.03498948 0.02447080
v -0.02891749 -0.03498948 0.02150819
v -0.02736727 -0.03498948 0.01772499
v -0.02660457 -0.03498948 0.01378020
v -0.02356472 -0.03500256 0.01377243
v -0.01448270 -0.03506448 0.01356038
v 0.06201604 -0.03250218 0.03172727
v 0.05783343 -0.03258984 0.03187489
v 0.05783343 -0.03498948 0.02854422
v 0.06201604 -0.03498948 0.02854422
v 0.06529354 -0.03498948 0.02756591
v 0.06590247 -0.03256153 0.03060693
v 0.06829866 -0.03498948 0.02615031
v 0.07002757 -0.03292093 0.02844140
v 0.05369599 -0.03322909 0.03088848
v 0.05475929 -0.03498948 0.02792442
v 0.04962637 -0.03412235 0.02875749
v 0.05124129 -0.03498948 0.02648545
v 0.04653806 -0.03458534 0.02538639
v 0.04834282 -0.03498948 0.02436835
v 0.04454972 -0.03470354 0.02137152
v 0.04576357 -0.03498948 0.02087485
v 0.04329000 -0.03475791 0.01769274
v 0.04445817 -0.03498948 0.01739391
v 0.04260358 -0.03491740 0.01282354
v 0.04385068 -0.03503629 0.01284660
v 0.07080157 -0.03498948 0.02400639
v 0.03092786 -0.03417218 0.02155846
v 0.03101352 -0.03367447 0.02564055
v 0.03059635 -0.03420666 0.01769628
v 0.03014213 -0.03454214 0.01314276
v 0.03014213 -0.03527286 0.01293232
v -0.01448270 -0.03506448 0.01356038
v 0.06202640 -0.03498948 0.02720451
v 0.05783343 -0.03498948 0.02725357
v 0.06511743 -0.03498948 0.02623838
v 0.06721698 -0.03498948 0.02520636
v 0.05475929 -0.03498948 0.02663377
v 0.05160272 -0.03498948 0.02519335
v 0.04901823 -0.03498948 0.02307770
v 0.04655570 -0.03498948 0.01958420
v 0.04543488 -0.03498948 0.01610326
v 0.04507112 -0.03503629 0.01280795
v 0.06877969 -0.03498948 0.02400242
v 0.05785403 -0.03166185 0.03335020
v 0.06201604 -0.03151782 0.03299414
v 0.06836782 -0.03119988 0.03201639
v 0.07637534 -0.03026354 0.03001369
v 0.07634056 -0.03281395 0.02373904
v 0.05352795 -0.03173306 0.03362275
v 0.02825816 -0.03133925 0.03418605
v 0.05785403 -0.02847115 0.03376720
v 0.06201604 -0.02809324 0.03331856
v 0.06836782 -0.02719671 0.03222541
v 0.07434083 -0.02601895 0.03156680
v 0.05352795 -0.02875112 0.03424836
v 0.02699408 -0.02982029 0.03464997
v 0.05785403 -0.02684724 0.03376720
v 0.06201604 -0.02653841 0.03331856
v 0.06836782 -0.02567976 0.03231281
v 0.07433785 -0.02503897 0.03160769
v 0.05352795 -0.02707985 0.03435436
v 0.03129539 -0.02859056 0.03490679
v 0.02918157 -0.02919982 0.03478160
v -0.07324812 -0.02336111 0.03397137
v -0.07307057 -0.02323865 0.03622909
v -0.07479987 -0.02116637 0.03387296
v -0.07434555 -0.02104393 0.03604412
v -0.07658823 -0.01389569 0.03374994
v -0.07631319 -0.01377326 0.03576577
v -0.07767367 -0.00592020 0.03373354
v -0.07776740 -0.00579775 0.03569637
v -0.03892821 -0.02631061 0.03690437
v -0.03443940 -0.02739259 0.03645194
v 0.08277859 -0.00978872 0.03041331
v 0.08347728 -0.01000194 0.03004239
v -0.01943015 -0.02896359 0.03367050
v -0.02836083 -0.02040302 0.04698113
v -0.02743405 -0.02251662 0.04470436
v -0.01865002 -0.02040302 0.04788617
v -0.01818613 -0.02251662 0.04629368
v -0.00319210 -0.02127171 0.04826868
v -0.00272817 -0.02325815 0.04656272
v 0.00477579 -0.02191790 0.04765339
v 0.00453889 -0.02375019 0.04609532
v 0.01276710 -0.02283214 0.04583162
v 0.01253021 -0.02516344 0.04400969
v 0.01568148 -0.02392009 0.04403177
v 0.01544458 -0.02570289 0.04289665
v 0.02745722 -0.02723191 0.03738885
v 0.02722032 -0.02856086 0.03646065
v 0.06658378 -0.01067279 0.03393403
v 0.05733150 -0.01104498 0.03573391
v 0.03690750 -0.01182972 0.03675453
v 0.08254184 -0.01035478 0.03045199
v 0.06767794 -0.01299012 0.03352281
v 0.05737346 -0.01387253 0.03441696
v 0.03872439 -0.01502818 0.03536739
v 0.07638985 -0.02451549 0.03121209
v 0.07598284 -0.02351823 0.03131518
v 0.07838399 -0.02151673 0.03088826
v 0.07761862 -0.02101141 0.03118519
v 0.08119641 -0.01611573 0.03041858
v 0.08023600 -0.01585845 0.03074675
v 0.08326506 -0.01057072 0.03007739
v 0.03471680 -0.02709414 0.03494415
v 0.03201460 -0.02707826 0.03494415
v 0.03496707 -0.01919566 0.03536739
v 0.03686916 -0.00929546 0.03536739
v 0.03849106 -0.00929544 0.03536739
v 0.03133621 -0.02726416 0.03494415
v 0.03461544 -0.01919566 0.03536739
v 0.03651753 -0.00929546 0.03536739
v -0.02836078 -0.00584632 0.04749081
v -0.01865002 -0.00621902 0.04839585
v -0.00319210 -0.00615447 0.04877836
v 0.00477579 -0.00615445 0.04816307
v 0.01603558 -0.01258551 0.04579781
v 0.01714580 -0.00615442 0.04597408
v -0.03568322 -0.02007782 0.04484173
v -0.03677506 -0.00564068 0.04590252
v -0.02836078 -0.00464104 0.04731526
v -0.01865002 -0.00501374 0.04817632
v -0.00319210 -0.00494917 0.04855883
v 0.00477579 -0.00494914 0.04794354
v 0.01714580 -0.00494914 0.04599907
v -0.03677506 -0.00443538 0.04603888
v -0.05479557 -0.03433774 0.02238292
v -0.05151332 -0.03498948 0.02558686
v -0.05772907 -0.03332049 0.02254605
v -0.05682999 -0.03433774 0.01779610
v -0.05976348 -0.03341838 0.01795924
v -0.05742044 -0.03433774 0.01514747
v -0.06035388 -0.03341838 0.01531061
v -0.07106087 -0.03021197 0.02051007
v -0.07073902 -0.02956658 0.02731784
v -0.07158633 -0.03009667 0.01906782
v -0.07108242 -0.02963180 0.01590547
v -0.07443140 -0.02523666 0.02715419
v -0.07445459 -0.02523666 0.02829517
v -0.07444299 -0.02676144 0.02051007
v -0.07547241 -0.02552123 0.01871054
v -0.07610582 -0.02128420 0.02735263
v -0.07612905 -0.02128420 0.02829517
v -0.07611741 -0.02280898 0.02051007
v -0.07646676 -0.02228060 0.01906998
v -0.07689903 -0.01689456 0.02735264
v -0.07692222 -0.01689456 0.02829517
v -0.07691062 -0.01841934 0.02051007
v -0.07754160 -0.01656435 0.01906998
v -0.07796090 -0.01106135 0.02829517
v -0.07847328 -0.01106135 0.02742129
v -0.07848487 -0.01025704 0.02051007
v -0.07682988 -0.00702344 0.02688885
v -0.07682705 -0.00640846 0.02106956
v -0.07387102 -0.02640094 0.01579176
v -0.06934108 -0.02707987 0.01220700
v -0.06360086 -0.01658241 0.03722375
v -0.06241332 -0.01809206 0.03721237
v -0.06487584 -0.01438769 0.03703879
v -0.06524288 -0.01377326 0.03696433
v -0.06669704 -0.00579775 0.03689493
v -0.06158780 -0.00579775 0.03725147
v -0.06037018 -0.01377326 0.03732087
v -0.06021889 -0.01438769 0.03703879
v -0.05905106 -0.01809211 0.03721236
v -0.07634028 -0.00560472 0.03337121
v -0.07716308 -0.01074589 0.02793285
v -0.07558883 -0.01657907 0.02793285
v -0.07479561 -0.02096871 0.02793285
v -0.07346648 -0.02085090 0.03351064
v -0.07525484 -0.01358023 0.03338761
v -0.07191473 -0.02304563 0.03360905
v -0.07312120 -0.02492117 0.02773440
v -0.07201420 -0.02667462 0.02878044
v -0.07090879 -0.02579907 0.03380564
v -0.07144495 -0.02444250 0.03374725
v -0.07039482 -0.02701703 0.03220114
v -0.07002259 -0.02685358 0.03375925
v 0.08228344 -0.02453917 0.02868639
v 0.07954424 -0.02906626 0.02901022
v 0.08508824 -0.01755179 0.02821671
v 0.08732512 -0.01057072 0.02787552
v 0.08753729 -0.01000194 0.02784052
v 0.07954905 -0.02906626 0.02901022
v 0.08251846 -0.02908256 0.02345420
v 0.08276546 -0.02453917 0.02768600
v 0.08013955 -0.02906963 0.02784718
v 0.08557030 -0.01755179 0.02741478
v 0.08780718 -0.01057072 0.02714224
v 0.08801935 -0.01000194 0.02714116
v 0.07320004 -0.03498948 0.02064852
v 0.07173082 -0.03498948 0.02024697
v 0.07493876 -0.03438612 0.01628157
v 0.07346949 -0.03435758 0.01627759
v 0.07522975 -0.03342405 0.01346888
v 0.07376053 -0.03342405 0.01346491
v 0.08216693 -0.02880217 0.01319614
v 0.08472150 -0.02347456 0.01242525
v 0.08067477 -0.03115383 0.02171912
v 0.08174560 -0.03055047 0.01650467
v 0.08643357 -0.01863000 0.01284258
v 0.08575379 -0.02141211 0.01291436
v 0.08425762 -0.02512440 0.01354882
v 0.08564075 -0.02407517 0.01694397
v 0.08473517 -0.02546441 0.01568310
v 0.08341249 -0.02793308 0.02216764
v 0.08609848 -0.02198819 0.01674013
v 0.08897486 -0.01112756 0.02074244
v 0.08784176 -0.01608883 0.01642467
v 0.08716154 -0.01781583 0.01467669
v 0.08627851 -0.02077538 0.01495465
v 0.08227175 -0.02412040 0.02746498
v 0.07964585 -0.02865085 0.02762615
v 0.08507660 -0.01713301 0.02719375
v 0.08731347 -0.01015194 0.02692121
v 0.08752565 -0.00958316 0.02692013
v 0.08799657 -0.01070878 0.02189206
v 0.08243419 -0.02751431 0.02331726
v 0.08154016 -0.02866376 0.02460382
v 0.08501066 -0.02383736 0.01708076
v 0.08410509 -0.02522660 0.01581988
v 0.08512366 -0.02117432 0.01305114
v 0.08564837 -0.02053760 0.01509143
v 0.08409142 -0.02323675 0.01256203
v 0.08362748 -0.02488661 0.01368560
v 0.08546835 -0.02175041 0.01687692
v 0.08773951 -0.01558284 0.01593486
v 0.08729188 -0.01701820 0.01468470
v 0.08659476 -0.01769491 0.01306116
v -0.07514679 -0.02570004 0.01812975
v -0.07614114 -0.02228060 0.01848918
v -0.07721598 -0.01656433 0.01848918
v -0.07420154 -0.02570004 0.01812975
v -0.07519589 -0.02228057 0.01848918
v -0.07627073 -0.01656433 0.01848918
v -0.07519589 -0.02228057 0.01692429
v 0.02390211 -0.02904600 0.03517202
v 0.02587926 -0.02848522 0.03529098
v -0.03820336 -0.02514947 0.03776904
v -0.03567921 -0.02587393 0.03720957
v -0.03162217 -0.02672901 0.03662786
v -0.01805664 -0.02827171 0.03428676
v -0.02529065 -0.02244487 0.04425929
v -0.01693225 -0.02244487 0.04569574
v -0.00296120 -0.02311505 0.04593890
v 0.00360687 -0.02355977 0.04551646
v 0.01082949 -0.02483708 0.04363144
v 0.01346357 -0.02532464 0.04262546
v 0.02410660 -0.02790772 0.03680853
f 1 2 3
f 1 3 4
f 1 4 5
f 1 5 6
f 1 6 7
f 1 7 8
f 1 8 9
f 1 9 10
f 1 10 11
f 1 11 12
f 1 12 13
f 1 13 14
f 1 14 15
f 1 15 16
f 1 16 17
f 1 17 2
f 18 19 20
f 18 21 19
f 18 22 21
f 18 23 22
f 18 24 23
f 18 25 24
f 18 26 25
f 18 27 26
f 18 28 27
f 18 29 28
f 18 30 29
f 18 31 30
f 18 32 31
f 18 33 32
f 18 34 33
f 18 20 34
f 35 36 37
f 35 37 38
f 35 38 39
f 35 39 40
f 35 40 41
f 35 41 42
f 35 42 43
f 35 43 44
f 35 44 45
f 35 45 46
f 35 46 47
f 35 47 48
f 35 48 49
f 35 49 50
f 35 50 51
f 35 51 36
f 52 53 54
f 52 55 53
f 52 56 55
f 52 57 56
f 52 58 57
f 52 59 58
f 52 60 59
f 52 61 60
f 52 62 61
f 52 63 62
f 52 64 63
f 52 65 64
f 52 66 65
f 52 67 66
f 52 68 67
f 52 54 68
f 69 70 71
f 69 72 70
f 69 73 72
f 69 74 73
f 69 75 74
f 69 76 75
f 69 77 76
f 69 78 77
f 69 79 78
f 69 80 79
f 69 81 80
f 69 82 81
f 69 83 82
f 69 84 83
f 69 85 84
f 69 71 85
f 86 87 88
f 86 88 89
f 86 89 90
f 86 90 91
f 86 91 92
f 86 92 93
f 86 93 94
f 86 94 95
f 86 95 96
f 86 96 97
f 86 97 98
f 86 98 99
f 86 99 100
f 86 100 101
f 86 101 102
f 86 102 87
f 103 104 105
f 103 106 104
f 103 107 106
f 103 108 107
f 103 109 108
f 103 110 109
f 103 111 110
f 103 112 111
f 103 113 112
f 103 114 113
f 103 115 114
f 103 116 115
f 103 117 116
f 103 118 117
f 103 119 118
f 103 105 119
f 120 121 122
f 120 122 123
f 120 123 124
f 120 124 125
f 120 125 126
f 120 126 127
f 120 127 128
f 120 128 129
f 120 129 130
f 120 130 131
f 120 131 132
f 120 132 133
f 120 133 134
f 120 134 135
f 120 135 136
f 120 136 121
f 2 137 138
f 2 138 3
f 3 138 139
f 3 139 4
f 4 139 140
f 4 140 5
f 5 140 141
f 5 141 6
f 6 141 142
f 6 142 7
f 7 142 143
f 7 143 8
f 8 143 144
f 8 144 9
f 9 144 145
f 9 145 10
f 10 145 146
f 10 146 11
f 11 146 147
f 11 147 12
f 12 147 148
f 12 148 13
f 13 148 149
f 13 149 14
f 14 149 150
f 14 150 15
f 15 150 151
f 15 151 16
f 16 151 152
f 16 152 17
f 17 152 137
f 17 137 2
f 137 20 19
f 137 19 138
f 138 19 21
f 138 21 139
f 139 21 22
f 139 22 140
f 140 22 23
f 140 23 141
f 141 23 24
f 141 24 142
f 142 24 25
f 142 25 143
f 143 25 26
f 143 26 144
f 144 26 27
f 144 27 145
f 145 27 28
f 145 28 146
f 146 28 29
f 146 29 147
f 147 29 30
f 147 30 148
f 148 30 31
f 148 31 149
f 149 31 32
f 149 32 150
f 150 32 33
f 150 33 151
f 151 33 34
f 151 34 152
f 152 34 20
f 152 20 137
f 36 153 154
f 36 154 37
f 37 154 155
f 37 155 38
f 38 155 156
f 38 156 39
f 39 156 157
f 39 157 40
f 40 157 158
f 40 158 41
f 41 158 159
f 41 159 42
f 42 159 160
f 42 160 43
f 43 160 161
f 43 161 44
f 44 161 162
f 44 162 45
f 45 162 163
f 45 163 46
f 46 163 164
f 46 164 47
f 47 164 165
f 47 165 48
f 48 165 166
f 48 166 49
f 49 166 167
f 49 167 50
f 50 167 168
f 50 168 51
f 51 168 153
f 51 153 36
f 153 54 53
f 153 53 154
f 154 53 55
f 154 55 155
f 155 55 56
f 155 56 156
f 156 56 57
f 156 57 157
f 157 57 58
f 157 58 158
f 158 58 59
f 158 59 159
f 159 59 60
f 159 60 160
f 160 60 61
f 160 61 161
f 161 61 62
f 161 62 162
f 162 62 63
f 162 63 163
f 163 63 64
f 163 64 164
f 164 64 65
f 164 65 165
f 165 65 66
f 165 66 166
f 166 66 67
f 166 67 167
f 167 67 68
f 167 68 168
f 168 68 54
f 168 54 153
f 71 70 169
f 71 169 170
f 70 72 171
f 70 171 169
f 72 73 172
f 72 172 171
f 73 74 173
f 73 173 172
f 74 75 174
f 74 174 173
f 75 76 175
f 75 175 174
f 76 77 176
f 76 176 175
f 77 78 177
f 77 177 176
f 78 79 178
f 78 178 177
f 79 80 179
f 79 179 178
f 80 81 180
f 80 180 179
f 81 82 181
f 81 181 180
f 82 83 182
f 82 182 181
f 83 84 183
f 83 183 182
f 84 85 184
f 84 184 183
f 85 71 170
f 85 170 184
f 170 169 88
f 170 88 87
f 169 171 89
f 169 89 88
f 171 172 90
f 171 90 89
f 172 173 91
f 172 91 90
f 173 174 92
f 173 92 91
f 174 175 93
f 174 93 92
f 175 176 94
f 175 94 93
f 176 177 95
f 176 95 94
f 177 178 96
f 177 96 95
f 178 179 97
f 178 97 96
f 179 180 98
f 179 98 97
f 180 181 99
f 180 99 98
f 181 182 100
f 181 100 99
f 182 183 101
f 182 101 100
f 183 184 102
f 183 102 101
f 184 170 87
f 184 87 102
f 105 104 185
f 105 185 186
f 104 106 187
f 104 187 185
f 106 107 188
f 106 188 187
f 107 108 189
f 107 189 188
f 108 109 190
f 108 190 189
f 109 110 191
f 109 191 190
f 110 111 192
f 110 192 191
f 111 112 193
f 111 193 192
f 112 113 194
f 112 194 193
f 113 114 195
f 113 195 194
f 114 115 196
f 114 196 195
f 115 116 197
f 115 197 196
f 116 117 198
f 116 198 197
f 117 118 199
f 117 199 198
f 118 119 200
f 118 200 199
f 119 105 186
f 119 186 200
f 186 185 122
f 186 122 121
f 185 187 123
f 185 123 122
f 187 188 124
f 187 124 123
f 188 189 125
f 188 125 124
f 189 190 126
f 189 126 125
f 190 191 127
f 190 127 126
f 191 192 128
f 191 128 127
f 192 193 129
f 192 129 128
f 193 194 130
f 193 130 129
f 194 195 131
f 194 131 130
f 195 196 132
f 195 132 131
f 196 197 133
f 196 133 132
f 197 198 134
f 197 134 133
f 198 199 135
f 198 135 134
f 199 200 136
f 199 136 135
f 200 186 121
f 200 121 136
f 201 202 203
f 201 203 204
f 205 202 201
f 205 201 206
f 207 204 203
f 207 203 208
f 209 201 204
f 209 204 207
f 208 203 202
f 208 202 210
f 210 202 205
f 210 205 211
f 212 206 201
f 212 201 209
f 210 211 212
f 210 212 209
f 213 207 208
f 213 208 214
f 215 209 207
f 215 207 213
f 214 208 210
f 214 210 216
f 216 210 209
f 216 209 215
f 214 216 215
f 214 215 213
f 217 218 219
f 217 219 220
f 221 222 217
f 221 217 220
f 223 224 219
f 223 219 218
f 225 223 218
f 225 218 217
f 224 226 220
f 224 220 219
f 226 227 221
f 226 221 220
f 228 225 217
f 228 217 222
f 226 225 228
f 226 228 227
f 229 230 224
f 229 224 223
f 231 229 223
f 231 223 225
f 230 232 226
f 230 226 224
f 232 231 225
f 232 225 226
f 230 229 231
f 230 231 232
f 233 234 235
f 235 236 233
f 237 233 236
f 236 238 237
f 239 237 238
f 238 240 239
f 234 241 242
f 242 235 234
f 241 243 244
f 244 242 241
f 243 245 246
f 246 244 243
f 245 247 248
f 248 246 245
f 247 249 250
f 250 248 247
f 249 251 252
f 252 250 249
f 253 239 240
f 240 254 253
f 251 255 256
f 256 252 251
f 257 253 254
f 254 258 257
f 259 257 258
f 258 260 259
f 261 259 260
f 260 262 261
f 263 261 262
f 262 264 263
f 265 266 267
f 267 268 265
f 266 269 270
f 270 267 266
f 269 271 272
f 272 270 269
f 273 265 268
f 268 274 273
f 275 273 274
f 274 276 275
f 277 275 276
f 276 278 277
f 279 277 278
f 278 280 279
f 281 279 280
f 280 282 281
f 283 281 282
f 282 284 283
f 285 283 284
f 284 286 285
f 271 287 288
f 288 272 271
f 287 289 290
f 290 288 287
f 289 291 292
f 292 290 289
f 291 293 294
f 294 292 291
f 293 295 296
f 296 294 293
f 257 259 247
f 247 245 257
f 261 249 247
f 247 259 261
f 251 249 261
f 251 261 263
f 251 263 255
f 239 241 234
f 234 237 239
f 253 243 241
f 241 239 253
f 253 257 245
f 245 243 253
f 233 237 234
f 281 291 289
f 289 279 281
f 281 283 293
f 293 291 281
f 285 295 293
f 293 283 285
f 277 287 271
f 271 275 277
f 279 289 287
f 287 277 279
f 271 269 273
f 273 275 271
f 266 265 273
f 273 269 266
f 297 298 299
f 299 300 297
f 301 302 298
f 298 297 301
f 303 304 302
f 302 301 303
f 300 299 305
f 305 306 300
f 306 305 307
f 307 308 306
f 308 307 309
f 309 310 308
f 310 309 311
f 311 312 310
f 312 311 313
f 313 314 312
f 314 313 315
f 315 316 314
f 317 318 304
f 304 303 317
f 316 315 319
f 319 320 316
f 321 322 318
f 318 317 321
f 323 324 322
f 322 321 323
f 325 326 324
f 324 323 325
f 327 328 326
f 326 325 327
f 329 330 331
f 331 332 329
f 332 331 333
f 333 334 332
f 334 333 335
f 335 336 334
f 337 338 330
f 330 329 337
f 339 340 338
f 338 337 339
f 341 342 340
f 340 339 341
f 343 344 342
f 342 341 343
f 345 346 344
f 344 343 345
f 347 348 346
f 346 345 347
f 349 350 348
f 348 347 349
f 336 335 351
f 351 352 336
f 352 351 353
f 353 354 352
f 354 353 355
f 355 356 354
f 356 355 357
f 357 358 356
f 358 357 359
f 359 360 358
f 321 310 312
f 312 323 321
f 325 323 312
f 312 314 325
f 316 320 327
f 316 327 325
f 316 325 314
f 303 301 300
f 300 306 303
f 317 303 306
f 306 308 317
f 317 308 310
f 310 321 317
f 297 300 301
f 345 343 354
f 354 356 345
f 345 356 358
f 358 347 345
f 349 347 358
f 358 360 349
f 341 339 336
f 336 352 341
f 343 341 352
f 352 354 343
f 336 339 337
f 337 334 336
f 332 334 337
f 337 329 332
f 361 362 363
f 363 364 361
f 363 362 365
f 366 367 368
f 368 362 366
f 368 365 362
f 361 296 295
f 369 370 366
f 369 366 362
f 295 369 362
f 361 295 362
f 371 372 373
f 373 374 371
f 375 376 372
f 372 371 375
f 374 373 377
f 377 378 374
f 379 380 376
f 376 375 379
f 256 381 380
f 380 379 256
f 382 383 384
f 384 385 382
f 263 382 385
f 385 255 263
f 386 382 263
f 263 264 386
f 387 382 388
f 388 389 387
f 382 390 391
f 391 388 382
f 387 392 383
f 383 382 387
f 390 382 386
f 386 393 390
f 285 394 369
f 369 295 285
f 378 377 395
f 395 396 378
f 396 395 397
f 397 286 396
f 398 399 400
f 400 401 398
f 400 399 402
f 402 403 400
f 403 402 404
f 404 405 403
f 398 401 406
f 406 407 398
f 407 406 408
f 408 409 407
f 409 408 410
f 410 411 409
f 411 410 412
f 412 413 411
f 413 412 414
f 414 415 413
f 415 414 416
f 416 417 415
f 401 400 418
f 418 419 401
f 400 403 420
f 420 418 400
f 403 405 421
f 421 420 403
f 422 423 421
f 421 405 422
f 406 401 419
f 419 424 406
f 408 406 424
f 424 425 408
f 410 408 425
f 425 426 410
f 420 427 428
f 428 427 429
f 429 430 428
f 430 429 431
f 431 432 430
f 419 418 433
f 433 434 419
f 418 420 435
f 435 433 418
f 424 419 434
f 434 436 424
f 437 425 424
f 424 436 437
f 420 428 438
f 438 435 420
f 438 428 430
f 412 410 426
f 426 439 412
f 414 412 439
f 439 440 414
f 416 414 440
f 440 441 416
f 399 398 268
f 268 267 399
f 402 399 267
f 267 270 402
f 404 402 270
f 270 272 404
f 422 405 404
f 404 442 422
f 398 407 274
f 274 268 398
f 407 409 276
f 276 274 407
f 409 411 278
f 278 276 409
f 411 413 280
f 280 278 411
f 413 415 282
f 282 280 413
f 282 415 417
f 417 284 282
f 420 421 427
f 416 443 417
f 416 441 444
f 444 443 416
f 445 446 447
f 447 448 445
f 449 446 445
f 445 450 449
f 451 449 450
f 450 452 451
f 452 453 454
f 454 455 452
f 456 448 447
f 447 457 456
f 458 456 457
f 457 459 458
f 460 458 459
f 459 461 460
f 462 460 461
f 461 463 462
f 464 462 463
f 463 465 464
f 466 464 465
f 465 467 466
f 452 455 451
f 468 469 460
f 460 462 468
f 470 468 462
f 462 464 470
f 471 470 464
f 464 466 471
f 441 440 470
f 470 471 441
f 440 439 468
f 468 470 440
f 439 426 469
f 469 468 439
f 466 472 471
f 441 472 473
f 441 471 472
f 236 235 447
f 447 446 236
f 238 236 446
f 446 449 238
f 240 238 449
f 449 451 240
f 235 242 457
f 457 447 235
f 242 244 459
f 459 457 242
f 244 246 461
f 461 459 244
f 246 248 463
f 463 461 246
f 248 250 465
f 465 463 248
f 250 252 467
f 467 465 250
f 254 240 451
f 451 455 254
f 256 379 467
f 467 252 256
f 396 286 284
f 284 417 396
f 378 396 417
f 417 443 378
f 379 375 466
f 466 467 379
f 375 371 472
f 472 466 375
f 371 374 473
f 473 472 371
f 474 475 445
f 445 448 474
f 475 476 450
f 450 445 475
f 476 453 452
f 452 450 476
f 477 474 448
f 448 456 477
f 456 478 477
f 469 478 458
f 458 460 469
f 456 458 478
f 426 425 478
f 478 469 426
f 479 480 475
f 475 474 479
f 480 481 476
f 476 475 480
f 481 482 453
f 453 476 481
f 483 479 474
f 474 477 483
f 484 483 477
f 477 478 484
f 484 478 485
f 486 487 480
f 480 479 486
f 487 488 481
f 481 480 487
f 488 489 482
f 482 481 488
f 490 486 479
f 479 483 490
f 483 484 491
f 483 491 492
f 483 492 490
f 492 493 494
f 494 490 492
f 495 496 432
f 432 431 495
f 497 498 496
f 496 495 497
f 499 500 498
f 498 497 499
f 501 502 500
f 500 499 501
f 503 504 502
f 502 501 503
f 434 433 505
f 505 506 436
f 436 434 505
f 506 485 437
f 437 436 506
f 507 508 509
f 509 510 507
f 484 485 511
f 512 513 433
f 433 435 512
f 435 438 512
f 514 515 513
f 513 512 514
f 516 517 515
f 515 514 516
f 518 519 517
f 517 516 518
f 520 521 519
f 519 518 520
f 522 523 521
f 521 520 522
f 492 491 524
f 524 525 492
f 526 508 507
f 507 527 526
f 528 526 527
f 527 529 528
f 530 528 529
f 529 531 530
f 532 533 527
f 527 507 532
f 533 534 529
f 529 527 533
f 534 535 531
f 531 529 534
f 489 536 537
f 537 482 489
f 536 538 539
f 539 537 536
f 538 540 541
f 541 539 538
f 507 510 542
f 542 532 507
f 490 494 535
f 535 534 490
f 533 488 487
f 533 487 486
f 486 490 534
f 533 486 534
f 532 542 541
f 541 540 532
f 532 540 533
f 533 540 538
f 538 536 533
f 536 489 533
f 533 489 488
f 543 544 535
f 535 545 543
f 546 547 544
f 544 543 546
f 530 531 544
f 544 547 530
f 535 544 531
f 493 492 548
f 548 549 545
f 545 493 548
f 549 550 543
f 543 545 549
f 550 551 546
f 546 543 550
f 548 492 525
f 552 553 514
f 514 512 552
f 553 554 516
f 516 514 553
f 554 555 518
f 518 516 554
f 555 556 520
f 520 518 555
f 556 555 557
f 558 559 552
f 552 512 558
f 560 561 553
f 553 552 560
f 561 562 554
f 554 553 561
f 562 563 555
f 555 554 562
f 563 564 557
f 557 555 563
f 565 560 552
f 552 559 565
f 566 567 561
f 561 560 566
f 567 568 562
f 562 561 567
f 568 569 563
f 563 562 568
f 569 570 564
f 564 563 569
f 571 566 560
f 560 565 571
f 290 572 442
f 442 288 290
f 292 573 572
f 572 290 292
f 294 574 573
f 573 292 294
f 575 576 442
f 442 572 575
f 572 577 575
f 578 577 573
f 573 574 578
f 579 580 423
f 423 576 579
f 581 579 576
f 576 575 581
f 575 582 581
f 583 584 580
f 580 579 583
f 585 583 579
f 579 581 585
f 581 586 585
f 587 588 584
f 584 583 587
f 589 587 583
f 583 585 589
f 590 589 585
f 585 586 590
f 591 588 587
f 587 592 591
f 593 592 587
f 587 589 593
f 591 592 594
f 594 595 591
f 590 596 597
f 590 597 593
f 590 593 589
f 598 599 594
f 594 592 598
f 600 598 592
f 592 593 600
f 597 601 600
f 600 593 597
f 422 442 576
f 576 423 422
f 404 272 288
f 404 288 442
f 578 602 582
f 582 577 578
f 581 582 586
f 575 577 582
f 572 573 577
f 296 361 574
f 574 294 296
f 361 603 578
f 578 574 361
f 578 603 602
f 604 605 432
f 432 496 604
f 606 604 496
f 496 498 606
f 607 606 498
f 498 500 607
f 608 607 500
f 500 502 608
f 609 608 502
f 502 504 609
f 610 611 607
f 607 608 610
f 612 610 608
f 608 609 612
f 613 614 605
f 613 605 604
f 613 604 606
f 611 613 606
f 606 607 611
f 615 616 617
f 618 619 620
f 621 618 620
f 621 620 622
f 617 621 622
f 615 617 622
f 623 624 616
f 616 615 623
f 625 624 626
f 626 627 625
f 623 626 624
f 628 625 627
f 627 629 628
f 625 628 421
f 421 423 625
f 624 625 423
f 423 580 624
f 616 624 580
f 580 584 616
f 617 616 584
f 584 588 617
f 621 617 588
f 588 591 621
f 618 621 591
f 591 595 618
f 620 619 503
f 503 501 620
f 622 620 501
f 501 499 622
f 615 622 499
f 499 497 615
f 623 615 497
f 497 495 623
f 626 623 495
f 495 431 626
f 627 626 431
f 431 429 627
f 629 627 429
f 429 427 629
f 628 629 427
f 427 421 628
f 599 598 600
f 600 601 599
f 506 511 485
f 565 610 612
f 612 571 565
f 610 565 559
f 558 613 611
f 559 558 611
f 610 559 611
f 613 558 614
f 438 614 558
f 438 558 512
f 551 550 564
f 564 570 551
f 550 549 557
f 557 564 550
f 549 548 556
f 556 557 549
f 522 520 556
f 556 525 522
f 523 522 525
f 525 524 523
f 556 548 525
f 630 631 537
f 537 539 630
f 632 630 539
f 539 541 632
f 633 632 541
f 541 542 633
f 634 635 510
f 510 509 634
f 635 633 542
f 542 510 635
f 636 637 454
f 454 453 636
f 638 639 631
f 631 630 638
f 640 638 630
f 630 632 640
f 641 640 632
f 632 633 641
f 642 643 635
f 635 634 642
f 643 641 633
f 633 635 643
f 644 258 254
f 254 455 644
f 645 260 258
f 258 644 645
f 646 262 260
f 260 645 646
f 386 264 262
f 262 646 386
f 647 393 386
f 386 646 647
f 648 390 393
f 393 647 648
f 390 648 391
f 454 649 644
f 644 455 454
f 649 650 645
f 645 644 649
f 650 647 646
f 646 645 650
f 391 648 651
f 391 651 652
f 391 652 653
f 654 655 648
f 648 647 654
f 649 454 637
f 656 657 650
f 650 649 656
f 657 655 647
f 647 650 657
f 658 659 656
f 656 649 658
f 649 637 658
f 660 661 659
f 659 658 660
f 662 663 659
f 659 661 662
f 652 651 663
f 663 662 652
f 664 665 661
f 661 660 664
f 666 667 639
f 639 638 666
f 668 666 638
f 638 640 668
f 669 668 640
f 640 641 669
f 670 669 641
f 641 643 670
f 671 670 643
f 643 642 671
f 672 673 664
f 664 660 672
f 674 672 660
f 660 658 674
f 675 674 658
f 658 637 675
f 667 675 637
f 637 639 667
f 676 677 678
f 678 679 676
f 680 681 679
f 679 678 680
f 677 676 682
f 680 678 651
f 651 648 680
f 681 680 648
f 648 655 681
f 679 681 655
f 655 657 679
f 676 679 657
f 657 656 676
f 682 676 656
f 656 659 682
f 677 682 659
f 659 663 677
f 678 677 663
f 663 651 678
f 683 684 662
f 662 661 683
f 684 685 652
f 652 662 684
f 686 683 661
f 661 665 686
f 685 687 653
f 653 652 685
f 673 672 670
f 670 671 673
f 672 674 669
f 669 670 672
f 668 669 674
f 666 668 674
f 666 674 675
f 666 675 667
f 688 689 586
f 586 582 688
f 689 690 590
f 590 586 689
f 690 691 596
f 596 590 690
f 692 693 689
f 689 688 692
f 693 694 690
f 690 689 693
f 694 695 691
f 691 690 694
f 602 696 693
f 693 692 602
f 694 693 696
f 694 696 697
f 694 697 695
f 603 363 696
f 696 602 603
f 363 365 697
f 697 696 363
f 683 686 687
f 687 685 683
f 683 685 684
f 698 699 491
f 491 484 698
f 700 701 505
f 505 433 700
f 701 702 506
f 506 505 701
f 703 698 484
f 484 511 703
f 704 700 433
f 433 513 704
f 705 704 513
f 513 515 705
f 706 705 515
f 515 517 706
f 707 706 517
f 517 519 707
f 708 707 519
f 519 521 708
f 709 708 521
f 521 523 709
f 710 709 523
f 523 524 710
f 699 710 524
f 524 491 699
f 702 703 511
f 511 506 702
f 698 703 710
f 710 699 698
f 709 710 703
f 703 708 709
f 707 708 703
f 703 706 707
f 704 705 701
f 701 700 704
f 702 701 705
f 702 705 706
f 702 706 703
f 711 712 713
f 713 714 711
f 713 715 716
f 716 714 713
f 715 717 718
f 718 716 715
f 711 719 720
f 720 712 711
f 719 721 722
f 722 720 719
f 721 723 724
f 724 722 721
f 723 725 726
f 726 724 723
f 725 727 728
f 728 726 725
f 727 729 730
f 730 728 727
f 712 731 732
f 732 713 712
f 713 732 733
f 733 715 713
f 715 733 734
f 734 717 715
f 734 735 736
f 736 717 734
f 720 737 731
f 731 712 720
f 722 738 737
f 737 720 722
f 724 739 738
f 738 722 724
f 733 740 741
f 740 742 743
f 743 741 740
f 742 744 745
f 745 743 742
f 731 746 747
f 747 732 731
f 732 747 748
f 748 733 732
f 737 749 746
f 746 731 737
f 750 749 737
f 737 738 750
f 733 748 751
f 751 740 733
f 742 740 751
f 726 752 739
f 739 724 726
f 728 753 752
f 752 726 728
f 730 754 753
f 753 728 730
f 714 755 756
f 756 711 714
f 716 757 755
f 755 714 716
f 718 758 757
f 757 716 718
f 736 759 718
f 718 717 736
f 711 756 760
f 760 719 711
f 719 760 761
f 761 721 719
f 721 761 762
f 762 723 721
f 723 762 763
f 763 725 723
f 725 763 764
f 764 727 725
f 764 765 729
f 729 727 764
f 733 741 734
f 766 730 729
f 730 766 767
f 767 754 730
f 768 769 770
f 770 771 768
f 772 773 768
f 768 771 772
f 774 775 773
f 773 772 774
f 776 777 770
f 770 769 776
f 778 779 777
f 777 776 778
f 780 781 779
f 779 778 780
f 782 783 781
f 781 780 782
f 784 785 783
f 783 782 784
f 786 787 785
f 785 784 786
f 775 774 788
f 789 782 780
f 780 790 789
f 791 784 782
f 782 789 791
f 792 786 784
f 784 791 792
f 754 792 791
f 791 753 754
f 753 791 789
f 789 752 753
f 752 789 790
f 790 739 752
f 792 793 786
f 754 794 793
f 754 793 792
f 795 771 770
f 770 796 795
f 797 772 771
f 771 795 797
f 798 774 772
f 772 797 798
f 796 770 777
f 777 799 796
f 799 777 779
f 779 800 799
f 800 779 781
f 781 801 800
f 801 781 783
f 783 802 801
f 802 783 785
f 785 803 802
f 803 785 787
f 787 804 803
f 805 788 774
f 774 798 805
f 381 804 787
f 787 380 381
f 395 729 765
f 765 397 395
f 377 766 729
f 729 395 377
f 376 786 793
f 793 372 376
f 372 793 794
f 794 373 372
f 806 769 768
f 768 807 806
f 807 768 773
f 773 808 807
f 808 773 775
f 775 809 808
f 810 809 775
f 775 788 810
f 811 776 769
f 769 806 811
f 776 811 812
f 790 780 778
f 778 812 790
f 776 812 778
f 739 790 812
f 812 738 739
f 813 806 807
f 807 814 813
f 814 807 808
f 808 815 814
f 815 808 809
f 809 816 815
f 817 811 806
f 806 813 817
f 818 812 811
f 811 817 818
f 818 750 812
f 819 813 814
f 814 820 819
f 820 814 815
f 815 821 820
f 821 815 816
f 816 822 821
f 823 817 813
f 813 819 823
f 817 823 824
f 817 824 825
f 817 825 818
f 826 745 744
f 744 827 826
f 828 826 827
f 827 829 828
f 830 828 829
f 829 831 830
f 832 830 831
f 831 833 832
f 503 832 833
f 833 504 503
f 746 834 747
f 834 746 749
f 749 835 834
f 835 749 750
f 836 837 509
f 509 508 836
f 818 838 750
f 839 748 747
f 747 840 839
f 748 839 751
f 841 839 840
f 840 842 841
f 843 841 842
f 842 844 843
f 845 843 844
f 844 846 845
f 847 845 846
f 846 848 847
f 849 847 848
f 848 850 849
f 824 851 852
f 852 825 824
f 526 853 836
f 836 508 526
f 528 854 853
f 853 526 528
f 530 855 854
f 854 528 530
f 856 836 853
f 853 857 856
f 857 853 854
f 854 858 857
f 858 854 855
f 855 859 858
f 822 816 860
f 860 861 822
f 861 860 862
f 862 863 861
f 863 862 864
f 864 865 863
f 836 856 866
f 866 837 836
f 823 858 859
f 859 867 823
f 820 821 857
f 858 823 819
f 857 858 819
f 820 857 819
f 856 865 864
f 864 866 856
f 856 857 865
f 857 863 865
f 863 857 861
f 861 857 822
f 857 821 822
f 868 867 859
f 859 869 868
f 870 869 859
f 859 871 870
f 546 870 871
f 871 547 546
f 530 547 871
f 871 855 530
f 859 855 871
f 868 872 824
f 872 868 869
f 869 873 872
f 873 869 870
f 870 874 873
f 874 870 546
f 546 551 874
f 872 851 824
f 875 839 841
f 841 876 875
f 876 841 843
f 843 877 876
f 877 843 845
f 845 878 877
f 878 845 847
f 847 879 878
f 879 880 878
f 881 839 875
f 875 882 881
f 883 875 876
f 876 884 883
f 884 876 877
f 877 885 884
f 885 877 878
f 878 886 885
f 886 878 880
f 880 887 886
f 888 882 875
f 875 883 888
f 566 883 884
f 884 567 566
f 567 884 885
f 885 568 567
f 568 885 886
f 886 569 568
f 569 886 887
f 887 570 569
f 571 888 883
f 883 566 571
f 889 890 759
f 759 891 889
f 892 889 891
f 891 893 892
f 894 892 893
f 893 895 894
f 896 891 759
f 759 897 896
f 891 896 898
f 899 895 893
f 893 898 899
f 900 897 735
f 735 901 900
f 902 896 897
f 897 900 902
f 896 902 903
f 904 900 901
f 901 905 904
f 906 902 900
f 900 904 906
f 902 906 907
f 908 904 905
f 905 909 908
f 910 906 904
f 904 908 910
f 911 907 906
f 906 910 911
f 912 913 908
f 908 909 912
f 914 910 908
f 908 913 914
f 912 595 594
f 594 913 912
f 911 910 914
f 911 914 597
f 911 597 596
f 915 913 594
f 594 599 915
f 916 914 913
f 913 915 916
f 597 914 916
f 916 601 597
f 736 735 897
f 897 759 736
f 718 759 890
f 718 890 758
f 899 898 903
f 903 917 899
f 902 907 903
f 896 903 898
f 891 898 893
f 370 894 895
f 895 366 370
f 366 895 899
f 899 918 366
f 899 917 918
f 919 827 744
f 744 920 919
f 921 829 827
f 827 919 921
f 922 831 829
f 829 921 922
f 923 833 831
f 831 922 923
f 609 504 833
f 833 923 609
f 924 923 922
f 922 925 924
f 612 609 923
f 923 924 612
f 926 921 919
f 926 919 920
f 926 920 927
f 925 922 921
f 921 926 925
f 928 619 618
f 928 618 929
f 930 931 932
f 930 932 933
f 929 930 933
f 928 929 933
f 934 932 931
f 931 935 934
f 936 937 938
f 938 935 936
f 934 935 938
f 939 940 937
f 937 936 939
f 936 735 734
f 734 939 936
f 935 901 735
f 735 936 935
f 931 905 901
f 901 935 931
f 930 909 905
f 905 931 930
f 929 912 909
f 909 930 929
f 618 595 912
f 912 929 618
f 928 832 503
f 503 619 928
f 933 830 832
f 832 928 933
f 932 828 830
f 830 933 932
f 934 826 828
f 828 932 934
f 938 745 826
f 826 934 938
f 937 743 745
f 745 938 937
f 940 741 743
f 743 937 940
f 939 734 741
f 741 940 939
f 599 601 916
f 916 915 599
f 750 838 835
f 888 571 612
f 612 924 888
f 882 888 924
f 882 924 925
f 925 926 881
f 882 925 881
f 926 927 881
f 551 570 887
f 887 874 551
f 874 887 880
f 880 873 874
f 873 880 879
f 879 872 873
f 849 851 879
f 879 847 849
f 850 852 851
f 851 849 850
f 879 851 872
f 941 862 860
f 860 942 941
f 943 864 862
f 862 941 943
f 944 866 864
f 864 943 944
f 634 509 837
f 837 945 634
f 945 837 866
f 866 944 945
f 946 809 810
f 810 947 946
f 948 941 942
f 942 949 948
f 950 943 941
f 941 948 950
f 951 944 943
f 943 950 951
f 642 634 945
f 945 952 642
f 952 945 944
f 944 951 952
f 953 788 805
f 805 954 953
f 955 953 954
f 954 956 955
f 957 955 956
f 956 958 957
f 387 957 958
f 958 392 387
f 959 957 387
f 387 389 959
f 960 959 389
f 389 388 960
f 388 391 960
f 810 788 953
f 953 961 810
f 961 953 955
f 955 962 961
f 962 955 957
f 957 959 962
f 391 653 963
f 391 963 964
f 391 964 960
f 960 965 959
f 961 947 810
f 966 961 962
f 962 967 966
f 967 962 959
f 959 965 967
f 968 961 966
f 966 969 968
f 961 968 947
f 970 968 969
f 969 971 970
f 972 971 969
f 969 973 972
f 963 972 973
f 973 964 963
f 664 970 971
f 971 665 664
f 974 948 949
f 949 975 974
f 976 950 948
f 948 974 976
f 977 951 950
f 950 976 977
f 978 952 951
f 951 977 978
f 671 642 952
f 952 978 671
f 979 970 664
f 664 673 979
f 980 968 970
f 970 979 980
f 981 947 968
f 968 980 981
f 975 949 947
f 947 981 975
f 982 983 984
f 984 985 982
f 986 984 983
f 983 987 986
f 985 988 982
f 986 960 964
f 964 984 986
f 987 965 960
f 960 986 987
f 983 967 965
f 965 987 983
f 982 966 967
f 967 983 982
f 988 969 966
f 966 982 988
f 985 973 969
f 969 988 985
f 984 964 973
f 973 985 984
f 989 971 972
f 972 990 989
f 990 972 963
f 963 991 990
f 686 665 971
f 971 989 686
f 991 963 653
f 653 687 991
f 673 671 978
f 978 979 673
f 979 978 977
f 977 980 979
f 976 980 977
f 974 975 981
f 974 981 980
f 974 980 976
f 992 903 907
f 907 993 992
f 993 907 911
f 911 994 993
f 994 911 596
f 596 691 994
f 995 992 993
f 993 996 995
f 996 993 994
f 994 997 996
f 997 994 691
f 691 695 997
f 917 995 996
f 996 998 917
f 997 695 697
f 997 697 998
f 997 998 996
f 918 917 998
f 998 368 918
f 368 998 697
f 697 365 368
f 989 991 687
f 687 686 989
f 989 990 991
f 999 818 825
f 825 1000 999
f 1001 747 834
f 834 1002 1001
f 1002 834 835
f 835 1003 1002
f 1004 838 818
f 818 999 1004
f 1005 840 747
f 747 1001 1005
f 1006 842 840
f 840 1005 1006
f 1007 844 842
f 842 1006 1007
f 1008 846 844
f 844 1007 1008
f 1009 848 846
f 846 1008 1009
f 1010 850 848
f 848 1009 1010
f 1011 852 850
f 850 1010 1011
f 1000 825 852
f 852 1011 1000
f 1003 835 838
f 838 1004 1003
f 999 1000 1011
f 1011 1004 999
f 1010 1009 1004
f 1004 1011 1010
f 1008 1007 1004
f 1004 1009 1008
f 1005 1001 1002
f 1002 1006 1005
f 1003 1004 1007
f 1003 1007 1006
f 1003 1006 1002
f 453 482 537
f 537 631 453
f 881 927 751
f 881 751 839
f 809 942 860
f 860 816 809
f 378 443 473
f 473 374 378
f 377 373 794
f 794 766 377
f 438 605 614
f 430 432 605
f 605 438 430
f 751 927 920
f 751 920 744
f 744 742 751
f 992 995 917
f 917 903 992
f 602 692 688
f 688 582 602
f 867 868 824
f 824 823 867
f 494 493 545
f 545 535 494
f 376 380 787
f 787 786 376
f 213 215 216
f 216 214 213
f 232 231 229
f 229 230 232
f 361 363 362
f 363 361 364
f 363 365 362
f 366 368 367
f 368 366 362
f 368 362 365
f 361 295 296
f 369 366 370
f 369 362 366
f 295 362 369
f 361 362 295
f 371 373 372
f 373 371 374
f 375 372 376
f 372 375 371
f 374 377 373
f 377 374 378
f 379 376 380
f 376 379 375
f 256 380 381
f 380 256 379
f 382 384 383
f 384 382 385
f 263 385 382
f 385 263 255
f 386 263 382
f 263 386 264
f 387 388 382
f 388 387 389
f 382 391 390
f 391 382 388
f 387 383 392
f 383 387 382
f 390 386 382
f 386 390 393
f 285 369 394
f 369 285 295
f 378 395 377
f 395 378 396
f 396 397 395
f 397 396 286
f 512 558 614
f 614 438 512
f 430 438 614
f 614 438 430
f 548 525 492
f 548 493 492
f 545 535 494
f 494 493 545
f 823 867 868
f 868 824 823
f 493 548 492
f 598 594 599
f 594 598 592
f 600 592 598
f 592 600 593
f 597 600 601
f 600 597 593
f 625 421 628
f 421 625 423
f 624 423 625
f 423 624 580
f 616 580 624
f 580 616 584
f 588 584 616
f 616 617 588
f 621 588 617
f 588 621 591
f 618 591 621
f 591 618 595
f 620 503 619
f 503 620 501
f 622 501 620
f 501 622 499
f 615 499 622
f 499 615 497
f 623 497 615
f 497 623 495
f 626 495 623
f 495 626 431
f 627 431 626
f 431 627 429
f 629 429 627
f 429 629 427
f 628 427 629
f 427 628 421
f 603 696 363
f 696 603 602
f 363 697 365
f 697 363 696
f 746 747 834
f 834 749 746
f 749 834 835
f 835 750 749
f 915 594 913
f 594 915 599
f 916 913 914
f 913 916 915
f 597 916 914
f 916 597 601
f 936 734 735
f 734 936 939
f 935 735 901
f 735 935 936
f 931 901 905
f 901 931 935
f 930 905 909
f 905 930 931
f 929 909 912
f 909 929 930
f 618 912 595
f 912 618 929
f 928 503 832
f 503 928 619
f 933 832 830
f 832 933 928
f 932 830 828
f 830 932 933
f 934 828 826
f 828 934 932
f 938 826 745
f 826 938 934
f 937 745 743
f 745 937 938
f 940 743 741
f 743 940 937
f 939 741 734
f 741 939 940
f 918 998 917
f 998 918 368
f 368 697 998
f 697 368 365
f 881 751 927
f 881 839 751
f 992 917 995
f 917 992 903
f 602 688 692
f 688 602 582
f 867 824 868
f 824 867 823
f 494 545 493
f 545 494 535
f 376 787 380
f 787 376 786