# https://github.com/mikedh/trimesh
v -0.09598369 -0.29906428 0.36158240
v 0.08908174 -0.29906428 0.36158240
v 0.08908174 -0.29906428 0.37538034
v -0.09598369 -0.29906428 0.37538034
v 0.08908174 -0.17377563 0.37538034
v -0.09598369 -0.17377563 0.37538034
v 0.08908174 -0.17377563 0.36158240
v -0.09598369 -0.17377563 0.36158240
v -0.22568271 0.32423822 0.00000003
v -0.16710312 0.32423822 0.00000003
v -0.16710312 -0.25608728 0.00000003
v -0.22568271 -0.25608728 0.00000003
v -0.17366989 -0.25613763 0.09715043
v -0.23451793 -0.25608728 0.08977788
v -0.29527593 -0.25608728 0.70715921
v -0.21882829 -0.25648423 0.76523125
v -0.21882829 0.32510802 0.76523125
v -0.29527593 0.32423822 0.70715921
v -0.23451793 0.32423822 0.08977788
v -0.17366989 0.32434864 0.09715043
v 0.23063339 0.32423822 0.00000003
v 0.23946864 0.32423822 0.08977788
v 0.23946864 -0.25608728 0.08977788
v 0.23063339 -0.25608728 0.00000003
v -0.00045156 -0.25761826 0.93111700
v 0.10369187 -0.25708794 0.85354654
v 0.10369187 0.32643080 0.85354654
v -0.00045156 0.32759265 0.93111700
v 0.00023255 0.32423822 0.00000000
v 0.00014571 0.32466408 0.11821055
v 0.08303807 0.32451657 0.10836256
v 0.08003464 0.32423822 0.00000000
v 0.00023255 -0.25608728 0.00000000
v 0.08003464 -0.25608728 0.00000000
v 0.00014571 -0.25628161 0.11821055
v 0.08303807 -0.25621433 0.10836256
v -0.28551849 0.32423822 0.60801048
v -0.28551849 -0.25608728 0.60801048
v -0.21157606 0.32498605 0.65794041
v 0.10037498 0.32612337 0.73387325
v -0.00035566 0.32712231 0.80056772
v 0.29046909 -0.25608728 0.60801048
v 0.29046909 0.32423822 0.60801048
v 0.30022656 0.32423822 0.70715921
v 0.30022656 -0.25608728 0.70715921
v -0.00035566 -0.25740359 0.80056772
v 0.10037498 -0.25694766 0.73387325
v -0.21157606 -0.25642861 0.65794041
v -0.27456620 0.32423822 0.49672083
v -0.27456620 -0.25608728 0.49672083
v -0.20343577 0.32484919 0.53751163
v 0.09665189 0.32577831 0.59954583
v -0.00024798 0.32659441 0.65403265
v 0.27951680 -0.25608728 0.49672083
v 0.27951680 0.32423822 0.49672083
v -0.00024798 -0.25716262 0.65403265
v 0.09665189 -0.25679012 0.59954583
v -0.20343577 -0.25636610 0.53751163
v -0.26527592 0.32423822 0.40231926
v -0.26527592 -0.25608728 0.40231926
v -0.19653077 0.32473305 0.43535777
v 0.09349378 0.32548562 0.48560237
v -0.00015665 0.32614662 0.52973406
v 0.27022652 -0.25608728 0.40231926
v 0.27022652 0.32423822 0.40231926
v -0.19653077 -0.25631312 0.43535777
v -0.25518048 0.32423822 0.29973639
v -0.25518048 -0.25608728 0.29973639
v -0.18902734 0.32460689 0.32435074
v 0.09006201 0.32516756 0.36178406
v -0.00005742 0.32566003 0.36148764
v 0.26013114 -0.25608728 0.29973639
v 0.26013114 0.32423822 0.29973639
v -0.18902734 -0.25625548 0.32435074
v -0.24459562 0.32423822 0.19218036
v -0.24459562 -0.25608728 0.19218036
v -0.18116014 0.32447459 0.20796224
v 0.08646384 0.32483407 0.23196313
v 0.00004664 0.32514982 0.25304396
v 0.24954631 -0.25608728 0.19218036
v 0.24954631 0.32423822 0.19218036
v -0.00005742 -0.25673619 0.36148764
v 0.00004664 -0.25650329 0.25304396
v 0.08646384 -0.25635920 0.23196313
v 0.09006201 -0.25651136 0.36178406
v -0.18116014 -0.25619515 0.20796224
v -0.10994655 -0.25704970 0.84794117
v -0.10994655 0.32634684 0.84794117
v -0.10626243 0.32605118 0.72905380
v -0.10212718 0.32571936 0.59560851
v -0.09861944 0.32543785 0.48241336
v -0.09480772 0.32513199 0.35940817
v -0.09081120 0.32481126 0.23043980
v -0.08700617 0.32450593 0.10765092
v -0.08367025 0.32423822 0.00000000
v -0.08367025 -0.25608728 0.00000000
v -0.08700617 -0.25620945 0.10765092
v -0.09081120 -0.25634877 0.23043980
v -0.09480772 -0.25649516 0.35940817
v -0.10626243 -0.25691470 0.72905380
v -0.10212718 -0.25676327 0.59560851
v 0.22098014 -0.25649073 0.76618532
v 0.22098014 0.32512232 0.76618532
v 0.21381962 0.32499835 0.65876071
v 0.20578224 0.32485923 0.53818178
v 0.19896456 0.32474121 0.43590057
v 0.19155606 0.32461296 0.32475517
v 0.18378841 0.32447849 0.20822152
v 0.17639292 0.32435046 0.09727156
v 0.16990917 0.32423822 0.00000000
v 0.16990917 -0.25608728 0.00000000
v 0.17639292 -0.25613853 0.09727156
v 0.18378841 -0.25619695 0.20822152
v 0.19155606 -0.25625828 0.32475517
v 0.09349378 -0.25665657 0.48560237
v 0.19896456 -0.25631682 0.43590057
v 0.20578224 -0.25637064 0.53818178
v 0.21381962 -0.25643422 0.65876071
v -0.09861944 -0.25663482 0.48241336
v -0.10211953 -0.17005021 0.59572636
v -0.00024030 -0.17044957 0.65415050
v -0.09861179 -0.16992176 0.48253121
v -0.09480006 -0.16978211 0.35952597
v 0.09350146 -0.16994352 0.48572022
v 0.09006969 -0.16979831 0.36190186
v 0.09665958 -0.17007707 0.59966367
v 0.34547631 -0.27663847 0.67435864
v 0.34547631 0.39188002 0.67435864
v 0.36196293 0.39188002 0.69650923
v 0.36196293 -0.27663847 0.69650923
v -0.35722076 -0.27663847 0.69635258
v -0.26915523 -0.27709579 0.76320100
v -0.26915523 0.39288200 0.76320100
v -0.35722076 0.39188002 0.69635258
v -0.00100055 -0.27840217 0.96464232
v 0.13556060 -0.27779123 0.86502007
v 0.13556060 0.39440578 0.86502007
v -0.00100055 0.39574420 0.96464232
v -0.14372657 -0.27774722 0.85754132
v -0.14372657 0.39430909 0.85754132
v 0.27067331 -0.27710325 0.76445592
v 0.27067331 0.39289848 0.76445592
v -0.34052568 -0.27663847 0.67435864
v -0.34052568 0.39188002 0.67435864
v -0.25246016 0.39288200 0.74120706
v -0.25246016 -0.27709579 0.74120706
v -0.00089635 -0.27616995 0.93216312
v -0.00089635 0.39797642 0.93216312
v 0.11907392 0.39663800 0.84286948
v 0.11907392 -0.27555901 0.84286948
v -0.12703148 -0.27774722 0.83641685
v -0.12703148 0.39430909 0.83641685
v 0.25418668 0.39289848 0.74230533
v 0.25418668 -0.27710325 0.74230533
f 1 2 3
f 1 3 4
f 4 3 5
f 4 5 6
f 6 5 7
f 6 7 8
f 8 7 2
f 8 2 1
f 2 7 5
f 2 5 3
f 8 1 4
f 8 4 6
f 9 10 11
f 9 11 12
f 12 11 13
f 12 13 14
f 15 16 17
f 15 17 18
f 19 20 10
f 19 10 9
f 21 22 23
f 21 23 24
f 19 9 12
f 19 12 14
f 25 26 27
f 25 27 28
f 29 30 31
f 29 31 32
f 33 29 32
f 33 32 34
f 35 33 34
f 35 34 36
f 18 37 38
f 18 38 15
f 18 17 39
f 18 39 37
f 40 41 28
f 40 28 27
f 42 43 44
f 42 44 45
f 25 46 47
f 25 47 26
f 38 48 16
f 38 16 15
f 37 49 50
f 37 50 38
f 37 39 51
f 37 51 49
f 52 53 41
f 52 41 40
f 54 55 43
f 54 43 42
f 46 56 57
f 46 57 47
f 50 58 48
f 50 48 38
f 49 59 60
f 49 60 50
f 49 51 61
f 49 61 59
f 62 63 53
f 62 53 52
f 64 65 55
f 64 55 54
f 60 66 58
f 60 58 50
f 59 67 68
f 59 68 60
f 59 61 69
f 59 69 67
f 70 71 63
f 70 63 62
f 72 73 65
f 72 65 64
f 68 74 66
f 68 66 60
f 67 75 76
f 67 76 68
f 67 69 77
f 67 77 75
f 78 79 71
f 78 71 70
f 80 81 73
f 80 73 72
f 82 83 84
f 82 84 85
f 76 86 74
f 76 74 68
f 75 19 14
f 75 14 76
f 75 77 20
f 75 20 19
f 31 30 79
f 31 79 78
f 23 22 81
f 23 81 80
f 83 35 36
f 83 36 84
f 14 13 86
f 14 86 76
f 87 25 28
f 87 28 88
f 89 88 28
f 89 28 41
f 90 89 41
f 90 41 53
f 91 90 53
f 91 53 63
f 92 91 63
f 92 63 71
f 93 92 71
f 93 71 79
f 94 93 79
f 94 79 30
f 95 94 30
f 95 30 29
f 96 95 29
f 96 29 33
f 97 96 33
f 97 33 35
f 98 97 35
f 98 35 83
f 99 98 83
f 99 83 82
f 100 101 56
f 100 56 46
f 87 100 46
f 87 46 25
f 26 102 103
f 26 103 27
f 104 40 27
f 104 27 103
f 105 52 40
f 105 40 104
f 106 62 52
f 106 52 105
f 107 70 62
f 107 62 106
f 108 78 70
f 108 70 107
f 109 31 78
f 109 78 108
f 32 31 109
f 32 109 110
f 34 32 110
f 34 110 111
f 36 34 111
f 36 111 112
f 84 36 112
f 84 112 113
f 85 84 113
f 85 113 114
f 115 85 114
f 115 114 116
f 57 115 116
f 57 116 117
f 47 57 117
f 47 117 118
f 26 47 118
f 26 118 102
f 16 87 88
f 16 88 17
f 39 17 88
f 39 88 89
f 51 39 89
f 51 89 90
f 61 51 90
f 61 90 91
f 69 61 91
f 69 91 92
f 77 69 92
f 77 92 93
f 20 77 93
f 20 93 94
f 10 20 94
f 10 94 95
f 11 10 95
f 11 95 96
f 13 11 96
f 13 96 97
f 86 13 97
f 86 97 98
f 74 86 98
f 74 98 99
f 66 74 99
f 66 99 119
f 58 66 119
f 58 119 101
f 48 58 101
f 48 101 100
f 16 48 100
f 16 100 87
f 102 45 44
f 102 44 103
f 43 104 103
f 43 103 44
f 55 105 104
f 55 104 43
f 65 106 105
f 65 105 55
f 73 107 106
f 73 106 65
f 81 108 107
f 81 107 73
f 22 109 108
f 22 108 81
f 110 109 22
f 110 22 21
f 111 110 21
f 111 21 24
f 112 111 24
f 112 24 23
f 113 112 23
f 113 23 80
f 114 113 80
f 114 80 72
f 116 114 72
f 116 72 64
f 117 116 64
f 117 64 54
f 118 117 54
f 118 54 42
f 102 118 42
f 102 42 45
f 56 101 120
f 56 120 121
f 101 119 122
f 101 122 120
f 119 99 123
f 119 123 122
f 85 115 124
f 85 124 125
f 115 57 126
f 115 126 124
f 57 56 121
f 57 121 126
f 127 128 129
f 127 129 130
f 131 132 133
f 131 133 134
f 135 136 137
f 135 137 138
f 139 135 138
f 139 138 140
f 136 141 142
f 136 142 137
f 132 139 140
f 132 140 133
f 141 130 129
f 141 129 142
f 143 144 145
f 143 145 146
f 147 148 149
f 147 149 150
f 151 152 148
f 151 148 147
f 150 149 153
f 150 153 154
f 146 145 152
f 146 152 151
f 154 153 128
f 154 128 127
f 143 146 132
f 143 132 131
f 145 144 134
f 145 134 133
f 144 143 131
f 144 131 134
f 147 150 136
f 147 136 135
f 149 148 138
f 149 138 137
f 151 147 135
f 151 135 139
f 148 152 140
f 148 140 138
f 150 154 141
f 150 141 136
f 153 149 137
f 153 137 142
f 146 151 139
f 146 139 132
f 152 145 133
f 152 133 140
f 154 127 130
f 154 130 141
f 128 153 142
f 128 142 129
f 4 3 2
f 2 1 4
f 6 5 3
f 3 4 6
f 8 7 5
f 5 6 8
f 1 2 7
f 7 8 1
f 3 5 7
f 7 2 3
f 6 4 1
f 1 8 6
f 121 120 101
f 101 56 121
f 126 121 56
f 56 57 126
f 130 129 128
f 128 127 130
f 134 131 143
f 143 144 134