# https://github.com/mikedh/trimesh
v -0.02605817 -0.03115958 0.00931165
v -0.02691390 -0.03115958 0.00966611
v -0.02691390 -0.03115958 0.00845593
v -0.02776962 -0.03115958 0.00931165
v -0.02812407 -0.03115958 0.00845593
v -0.02776962 -0.03115958 0.00760020
v -0.02691390 -0.03115958 0.00724575
v -0.02605817 -0.03115958 0.00760020
v -0.02570372 -0.03115958 0.00845593
v -0.02691390 0.03955305 0.00966611
v -0.02605817 0.03955305 0.00931165
v -0.02691390 0.03955305 0.00845592
v -0.02776962 0.03955305 0.00931165
v -0.02812407 0.03955305 0.00845592
v -0.02776962 0.03955305 0.00760020
v -0.02691390 0.03955305 0.00724575
v -0.02605817 0.03955305 0.00760020
v -0.02570372 0.03955305 0.00845592
v 0.02817711 -0.03115958 0.00931165
v 0.02732141 -0.03115958 0.00966611
v 0.02732141 -0.03115958 0.00845593
v 0.02646566 -0.03115958 0.00931165
v 0.02611121 -0.03115958 0.00845593
v 0.02646566 -0.03115958 0.00760020
v 0.02732141 -0.03115958 0.00724575
v 0.02817711 -0.03115958 0.00760020
v 0.02853158 -0.03115958 0.00845593
v 0.02732141 0.03955305 0.00966611
v 0.02817711 0.03955305 0.00931165
v 0.02732141 0.03955305 0.00845592
v 0.02646566 0.03955305 0.00931165
v 0.02611121 0.03955305 0.00845592
v 0.02646566 0.03955305 0.00760020
v 0.02732141 0.03955305 0.00724575
v 0.02817711 0.03955305 0.00760020
v 0.02853158 0.03955305 0.00845592
v -0.00227132 -0.04455068 0.02484378
v -0.00179044 -0.04455068 0.02375897
v 0.00069598 -0.04460550 0.02551013
v -0.00093103 -0.04455068 0.02294076
v 0.00017608 -0.04455068 0.02251370
v 0.00136232 -0.04455068 0.02254283
v 0.00244714 -0.04455068 0.02302371
v 0.00326536 -0.04455068 0.02388311
v 0.00369240 -0.04455068 0.02499022
v 0.00366327 -0.04455068 0.02617647
v 0.00318240 -0.04455068 0.02726129
v 0.00232298 -0.04455068 0.02807949
v 0.00121589 -0.04455068 0.02850655
v 0.00002965 -0.04455068 0.02847741
v -0.00105519 -0.04455068 0.02799654
v -0.00187339 -0.04455068 0.02713714
v -0.00230045 -0.04455068 0.02603003
v -0.00280506 -0.03915829 0.02472391
v -0.00223770 -0.03915829 0.02344398
v -0.00190229 -0.04050136 0.02368019
v -0.00240480 -0.04050136 0.02481380
v -0.00122369 -0.03915829 0.02247858
v -0.00100421 -0.04050136 0.02282517
v 0.00008255 -0.03915829 0.02197472
v 0.00015269 -0.04050136 0.02237891
v 0.00148218 -0.03915829 0.02200909
v 0.00139231 -0.04050136 0.02240935
v 0.00276215 -0.03915829 0.02257646
v 0.00252592 -0.04050136 0.02291185
v 0.00372753 -0.03915829 0.02359045
v 0.00338092 -0.04050136 0.02380992
v 0.00423140 -0.03915829 0.02489670
v 0.00382720 -0.04050136 0.02496683
v 0.00419701 -0.03915829 0.02629633
v 0.00379676 -0.04050136 0.02620645
v 0.00362966 -0.03915829 0.02757627
v 0.00329425 -0.04050136 0.02734006
v 0.00261565 -0.03915829 0.02854167
v 0.00239619 -0.04050136 0.02819508
v 0.00130941 -0.03915829 0.02904553
v 0.00123926 -0.04050136 0.02864134
v -0.00009023 -0.03915829 0.02901116
v -0.00000034 -0.04050136 0.02861090
v -0.00137016 -0.03915829 0.02844379
v -0.00113396 -0.04050136 0.02810840
v -0.00233556 -0.03915829 0.02742980
v -0.00198898 -0.04050136 0.02721033
v -0.00283943 -0.03915829 0.02612355
v -0.00243523 -0.04050136 0.02605342
v -0.00237306 -0.04189740 0.02334864
v -0.00296660 -0.04189740 0.02468764
v -0.00131226 -0.04189740 0.02233870
v 0.00005425 -0.04189740 0.02181158
v 0.00151848 -0.04189740 0.02184754
v 0.00285747 -0.04189740 0.02244109
v 0.00386740 -0.04189740 0.02350187
v 0.00439452 -0.04189740 0.02486840
v 0.00435856 -0.04189740 0.02633261
v 0.00376500 -0.04189740 0.02767161
v 0.00270423 -0.04189740 0.02868155
v 0.00133771 -0.04189740 0.02920866
v -0.00012652 -0.04189740 0.02917271
v -0.00146551 -0.04189740 0.02857916
v -0.00247544 -0.04189740 0.02751838
v -0.00300258 -0.04189740 0.02615185
v -0.00251980 -0.04311619 0.02324529
v -0.00314173 -0.04311618 0.02464831
v -0.00140829 -0.04311618 0.02218706
v 0.00002357 -0.04311618 0.02163475
v 0.00155779 -0.04311618 0.02167242
v 0.00296082 -0.04311618 0.02229435
v 0.00401906 -0.04311619 0.02340585
v 0.00457138 -0.04311618 0.02483771
v 0.00453369 -0.04311618 0.02637194
v 0.00391175 -0.04311618 0.02777496
v 0.00280025 -0.04311618 0.02883319
v 0.00136839 -0.04311618 0.02938551
v -0.00016585 -0.04311618 0.02934783
v -0.00156886 -0.04311618 0.02872590
v -0.00262709 -0.04311618 0.02761440
v -0.00317938 -0.04311618 0.02618254
v -0.00222688 -0.04414587 0.02345159
v -0.00279215 -0.04414587 0.02472681
v -0.00121663 -0.04414587 0.02248975
v 0.00008481 -0.04414587 0.02198774
v 0.00147929 -0.04414587 0.02202199
v 0.00275451 -0.04414587 0.02258726
v 0.00371636 -0.04414587 0.02359753
v 0.00421837 -0.04414587 0.02489895
v 0.00418413 -0.04414587 0.02629344
v 0.00361884 -0.04414587 0.02756866
v 0.00260859 -0.04414587 0.02853050
v 0.00130715 -0.04414587 0.02903251
v -0.00008735 -0.04414587 0.02899827
v -0.00136257 -0.04414587 0.02843298
v -0.00232440 -0.04414587 0.02742272
v -0.00282640 -0.04414587 0.02612129
v -0.02897299 0.04829683 0.03881311
v -0.02970564 0.04829683 0.04538588
v -0.00027774 0.04829682 0.04490213
v -0.02895737 0.04829683 0.05195684
v -0.02676565 0.04829683 0.05819659
v -0.02324041 0.04829682 0.06379219
v -0.01855843 0.04829682 0.06846305
v -0.01295445 0.04829682 0.07197497
v -0.00670951 0.04829682 0.07415184
v -0.00013675 0.04829682 0.07488449
v 0.00643427 0.04829682 0.07413620
v 0.01267400 0.04829682 0.07194449
v 0.01826960 0.04829682 0.06841925
v 0.02294049 0.04829684 0.06373724
v 0.02645239 0.04829681 0.05813327
v 0.02862925 0.04829684 0.05188834
v 0.02936191 0.04829683 0.04531557
v 0.02861360 0.04829683 0.03874458
v 0.02642188 0.04829682 0.03250482
v 0.02279079 0.04829682 0.02646063
v 0.01810879 0.04829684 0.02178978
v 0.01261066 0.04829682 0.01872645
v 0.00636573 0.04829683 0.01654960
v -0.00020703 0.04829683 0.01581695
v -0.00677801 0.04829683 0.01656525
v -0.01301776 0.04829682 0.01875697
v -0.01861337 0.04829683 0.02228220
v -0.02328425 0.04829683 0.02696420
v -0.02679615 0.04829683 0.03256817
v 0.01940829 0.04770538 0.02118930
v 0.01357389 0.04770536 0.01753300
v 0.00707220 0.04770538 0.01526664
v 0.00022922 0.04770538 0.01450388
v -0.00661193 0.04770538 0.01528294
v -0.01310820 0.04770536 0.01756477
v -0.01893387 0.04770538 0.02123494
v -0.02379677 0.04770538 0.02610943
v -0.02745306 0.04770538 0.03194380
v -0.02971941 0.04770538 0.03844549
v -0.03048218 0.04770538 0.04528849
v -0.02970314 0.04770538 0.05212960
v -0.02742132 0.04770537 0.05862588
v -0.02375116 0.04770537 0.06445153
v -0.01887667 0.04770537 0.06931445
v -0.01304231 0.04770537 0.07297074
v -0.00654060 0.04770537 0.07523712
v 0.00030240 0.04770537 0.07599989
v 0.00714357 0.04770536 0.07522084
v 0.01363985 0.04770537 0.07293901
v 0.01946550 0.04770536 0.06926883
v 0.02432841 0.04770538 0.06439435
v 0.02798470 0.04770536 0.05855997
v 0.03025106 0.04770538 0.05205828
v 0.03101384 0.04770538 0.04521529
v 0.03023477 0.04770538 0.03837413
v 0.02795294 0.04770536 0.03187785
v 0.02428275 0.04770536 0.02605219
v 0.00023697 0.04450130 0.00912930
v 0.00646815 0.04450130 0.00092207
v -0.00600789 0.04450130 0.00092207
v 0.02508477 0.04450130 0.01841016
v 0.02725436 0.04450130 0.00092207
v 0.02286174 0.04450130 0.00535079
v -0.02679411 0.04450130 0.00038761
v -0.02462453 0.04450130 0.01779348
v -0.02240150 0.04450130 0.00535079
v -0.01040056 0.04450130 0.00481634
v -0.00807616 0.04450130 0.01020631
v 0.00828772 0.04450130 0.01012654
v 0.01086082 0.04450130 0.00535079
v 0.01612353 0.04450130 0.01281267
v 0.01686127 0.04450130 0.00695861
v 0.03462918 0.04450130 0.00092207
v 0.02761604 0.04450130 0.01841016
v -0.01640104 0.04450130 0.00642415
v -0.01587115 0.04450130 0.01295596
v -0.03416894 0.04450130 0.00038761
v -0.02715579 0.04450130 0.01779348
v 0.00023697 0.03955305 0.00798360
v -0.00600789 0.03955305 0.00092206
v 0.00646815 0.03955305 0.00092206
v 0.02725436 0.03955305 0.00092206
v 0.02508477 0.03955305 0.01726883
v 0.02286174 0.03955305 0.00535079
v 0.03462918 0.03955305 0.00092206
v 0.02761604 0.03955305 0.01726883
v -0.01587115 0.03955305 0.01183624
v -0.01640104 0.03955305 0.00695861
v -0.01040056 0.03955305 0.00535079
v -0.00807616 0.03955305 0.00915151
v 0.01086082 0.03955305 0.00535079
v 0.00828772 0.03955305 0.00874890
v 0.01686127 0.03955305 0.00695861
v 0.01612353 0.03955305 0.01167874
v -0.02462453 0.03955305 0.01738187
v -0.02679411 0.03955305 0.00092206
v -0.02240150 0.03955305 0.00535079
v -0.03416894 0.03955305 0.00092206
v -0.02715579 0.03955305 0.01738187
v 0.00022327 -0.03117317 0.00759598
v 0.00646814 -0.03117317 0.00053445
v -0.00600789 -0.03117317 0.00053445
v -0.02679411 -0.03117317 0.00053445
v -0.02462453 -0.03117317 0.01688122
v -0.02240150 -0.03117317 0.00496318
v -0.03416894 -0.03117317 0.00053445
v -0.02715578 -0.03117317 0.01688122
v 0.01633138 -0.03117317 0.01144863
v 0.01686127 -0.03117317 0.00657099
v 0.01086082 -0.03117317 0.00496318
v 0.00853640 -0.03117317 0.00876389
v -0.01040056 -0.03117317 0.00496318
v -0.00782748 -0.03117317 0.00836129
v -0.01640104 -0.03117317 0.00657099
v -0.01566331 -0.03117317 0.01129112
v -0.00339870 0.00428629 0.09028135
v -0.00316512 0.00312401 0.09033248
v -0.00035759 0.00428911 0.09022229
v -0.00250442 0.00213868 0.09035849
v -0.00151722 0.00148031 0.09035544
v -0.00035379 0.00124912 0.09032380
v 0.00080877 0.00148031 0.09026837
v 0.00179344 0.00213868 0.09019758
v 0.00245033 0.00312401 0.09012224
v 0.00267944 0.00428628 0.09005381
v 0.00244587 0.00544856 0.09000268
v 0.00178518 0.00643389 0.08997667
v 0.00079796 0.00709227 0.08997971
v -0.00036549 0.00732346 0.09001136
v -0.00152802 0.00709227 0.09006679
v -0.00251271 0.00643389 0.09013756
v -0.00316958 0.00544856 0.09021292
v -0.00414680 0.00400910 0.08492033
v -0.00387124 0.00263776 0.08498065
v -0.00344261 0.00286358 0.08629876
v -0.00368668 0.00407814 0.08624534
v -0.00309168 0.00147520 0.08501134
v -0.00275220 0.00183393 0.08632595
v -0.00192692 0.00069839 0.08500776
v -0.00172059 0.00114593 0.08632277
v -0.00055419 0.00042562 0.08497041
v -0.00050480 0.00090434 0.08628969
v 0.00081746 0.00069839 0.08490501
v 0.00071005 0.00114594 0.08623176
v 0.00197927 0.00147520 0.08482150
v 0.00173901 0.00183393 0.08615780
v 0.00275431 0.00263776 0.08473261
v 0.00242544 0.00286358 0.08607908
v 0.00302462 0.00400910 0.08465185
v 0.00266486 0.00407814 0.08600756
v 0.00274904 0.00538044 0.08459154
v 0.00242079 0.00529270 0.08595414
v 0.00196951 0.00654301 0.08456084
v 0.00173038 0.00632236 0.08592695
v 0.00080472 0.00731981 0.08456444
v 0.00069874 0.00701035 0.08593013
v -0.00056800 0.00759259 0.08460178
v -0.00051703 0.00725194 0.08596320
v -0.00193966 0.00731981 0.08466717
v -0.00173189 0.00701035 0.08602113
v -0.00310145 0.00654301 0.08475069
v -0.00276084 0.00632235 0.08609508
v -0.00387651 0.00538044 0.08483958
v -0.00344730 0.00529270 0.08617382
v -0.00392164 0.00271529 0.08772320
v -0.00420993 0.00414990 0.08766010
v -0.00310614 0.00149908 0.08775531
v -0.00188759 0.00068643 0.08775155
v -0.00045154 0.00040107 0.08771250
v 0.00098341 0.00068643 0.08764407
v 0.00219882 0.00149908 0.08755672
v 0.00300964 0.00271528 0.08746372
v 0.00329240 0.00414990 0.08737924
v 0.00300411 0.00558452 0.08731614
v 0.00218861 0.00680073 0.08728402
v 0.00097008 0.00761338 0.08728779
v -0.00046599 0.00789873 0.08732685
v -0.00190092 0.00761338 0.08739527
v -0.00311635 0.00680073 0.08748262
v -0.00392716 0.00558452 0.08757563
v -0.00404166 0.00270934 0.08894925
v -0.00434374 0.00421255 0.08888312
v -0.00318719 0.00143498 0.08898290
v -0.00191039 0.00058348 0.08897896
v -0.00040566 0.00028447 0.08893802
v 0.00109791 0.00058348 0.08886634
v 0.00237142 0.00143498 0.08877481
v 0.00322099 0.00270934 0.08867736
v 0.00351732 0.00421255 0.08858883
v 0.00321522 0.00571577 0.08852272
v 0.00236073 0.00699012 0.08848907
v 0.00108392 0.00784163 0.08849301
v -0.00042078 0.00814063 0.08853395
v -0.00192436 0.00784163 0.08860564
v -0.00319788 0.00699012 0.08869716
v -0.00404748 0.00571576 0.08879461
v -0.00367269 0.00289919 0.08995743
v -0.00394729 0.00426548 0.08989732
v -0.00289604 0.00174091 0.08998801
v -0.00173556 0.00096696 0.08998444
v -0.00036788 0.00069519 0.08994723
v 0.00099872 0.00096696 0.08988207
v 0.00215625 0.00174090 0.08979888
v 0.00292845 0.00289919 0.08971029
v 0.00319776 0.00426548 0.08962985
v 0.00292318 0.00563177 0.08956975
v 0.00214653 0.00679005 0.08953917
v 0.00098604 0.00756400 0.08954275
v -0.00038165 0.00783577 0.08957995
v -0.00174825 0.00756400 0.08964511
v -0.00290577 0.00679005 0.08972831
v -0.00367797 0.00563177 0.08981688
v -0.02886574 -0.04046629 0.03881071
v -0.02671330 -0.04046629 0.03258967
v -0.00018288 -0.04046628 0.04525188
v -0.02323055 -0.04046629 0.02700356
v -0.01859205 -0.04046629 0.02233251
v -0.01303045 -0.04046629 0.01881072
v -0.00682462 -0.04046629 0.01661480
v -0.00028576 -0.04046629 0.01585487
v 0.00625827 -0.04046629 0.01656903
v 0.01247931 -0.04046629 0.01872146
v 0.01806542 -0.04046629 0.02220423
v 0.02273646 -0.04046629 0.02684271
v 0.02625826 -0.04046629 0.03240431
v 0.02845417 -0.04046629 0.03861014
v 0.02921410 -0.04046629 0.04514901
v 0.02849996 -0.04046629 0.05169305
v 0.02634753 -0.04046629 0.05791409
v 0.02286474 -0.04046629 0.06350018
v 0.01822626 -0.04046629 0.06817125
v 0.01266465 -0.04046629 0.07169303
v 0.00645883 -0.04046629 0.07388895
v -0.00008004 -0.04046629 0.07464887
v -0.00662408 -0.04046629 0.07393471
v -0.01284510 -0.04046629 0.07178228
v -0.01843124 -0.04046629 0.06829948
v -0.02310230 -0.04046629 0.06366100
v -0.02662407 -0.04046629 0.05809940
v -0.02881998 -0.04046629 0.05189357
v -0.02957989 -0.04046629 0.04535469
v 0.02779879 -0.03900315 0.03187381
v 0.03008536 -0.03900315 0.03833589
v 0.03087669 -0.03900315 0.04514477
v 0.03013305 -0.03900315 0.05195901
v 0.02789174 -0.03900315 0.05843693
v 0.02426513 -0.03900315 0.06425369
v 0.01943511 -0.03900315 0.06911762
v 0.01364387 -0.03900315 0.07278484
v 0.00718180 -0.03900315 0.07507143
v 0.00037293 -0.03900315 0.07586273
v -0.00644134 -0.03900315 0.07511908
v -0.01291924 -0.03900315 0.07287777
v -0.01873602 -0.03900315 0.06925116
v -0.02359995 -0.03900315 0.06442115
v -0.02726715 -0.03900315 0.05862990
v -0.02955373 -0.03900315 0.05216782
v -0.03034503 -0.03900315 0.04535894
v -0.02960138 -0.03900315 0.03854475
v -0.02736008 -0.03900315 0.03206682
v -0.02373348 -0.03900315 0.02625006
v -0.01890350 -0.03900315 0.02138612
v -0.01311223 -0.03900315 0.01771891
v -0.00665017 -0.03900315 0.01543233
v 0.00015873 -0.03900315 0.01464101
v 0.00697294 -0.03900315 0.01538466
v 0.01345087 -0.03900315 0.01762597
v 0.01926762 -0.03900315 0.02125254
v 0.02413158 -0.03900315 0.02608257
v 0.02508477 -0.03117317 0.01699426
v 0.02725436 -0.03117317 0.00053445
v 0.02286174 -0.03117317 0.00496318
v 0.03462918 -0.03117317 0.00053445
v 0.02761604 -0.03117317 0.01699426
v 0.00022327 -0.03612143 0.00874169
v -0.00600789 -0.03612142 0.00053445
v 0.00646814 -0.03612142 0.00053445
v -0.02462453 -0.03612143 0.01802255
v -0.02679411 -0.03612142 0.00053445
v -0.02240150 -0.03612142 0.00496318
v 0.02725436 -0.03612142 0.00000000
v 0.02508477 -0.03612143 0.01740587
v 0.02286174 -0.03612142 0.00496318
v 0.01086082 -0.03612142 0.00442872
v 0.00853640 -0.03612143 0.00981869
v -0.00782748 -0.03612143 0.00973892
v -0.01040056 -0.03612142 0.00496318
v -0.01566331 -0.03612143 0.01242505
v -0.01640104 -0.03612142 0.00657099
v -0.03416894 -0.03612142 0.00053445
v -0.02715578 -0.03612143 0.01802255
v 0.01686127 -0.03612142 0.00603653
v 0.01633138 -0.03612143 0.01256834
v 0.03462918 -0.03612142 0.00000000
v 0.02761604 -0.03612143 0.01740587
v -0.03580903 0.04210385 0.03715074
v -0.03310188 0.04210385 0.02932645
v -0.03475583 0.03245931 0.02853706
v -0.03759716 0.03245929 0.03674919
v -0.02872152 0.04210385 0.02230072
v -0.03015835 0.03245929 0.02116309
v -0.02288765 0.04210386 0.01642585
v -0.02403532 0.03245931 0.01499703
v -0.01589275 0.04210386 0.01199645
v -0.01669368 0.03245931 0.01034806
v -0.00808759 0.04210385 0.00923462
v -0.00850166 0.03245929 0.00744934
v 0.00013645 0.04210386 0.00827884
v 0.00013004 0.03245931 0.00644618
v 0.00836695 0.04210385 0.00917703
v 0.00876851 0.03245930 0.00738890
v 0.01619127 0.04210386 0.01188418
v 0.01698062 0.03245931 0.01023023
v 0.02321698 0.04210385 0.01626452
v 0.02435461 0.03245930 0.01482770
v 0.02909184 0.04210386 0.02209841
v 0.03052067 0.03245931 0.02095075
v 0.03352125 0.04210385 0.02909331
v 0.03516964 0.03245929 0.02829237
v 0.03628310 0.04210385 0.03689848
v 0.03806837 0.03245931 0.03648442
v 0.03723888 0.04210386 0.04512251
v 0.03907153 0.03245931 0.04511610
v 0.03634068 0.04210385 0.05335303
v 0.03812880 0.03245929 0.05375459
v 0.03363352 0.04210386 0.06117735
v 0.03528747 0.03245931 0.06196672
v 0.02925317 0.04210384 0.06820306
v 0.03068999 0.03245929 0.06934068
v 0.02341928 0.04210386 0.07407794
v 0.02456692 0.03245931 0.07550676
v 0.01642438 0.04210385 0.07850733
v 0.01722531 0.03245930 0.08015571
v 0.00861921 0.04210385 0.08126917
v 0.00903326 0.03245929 0.08305444
v 0.00039518 0.04210385 0.08222493
v 0.00040158 0.03245930 0.08405758
v -0.00783536 0.04210385 0.08132673
v -0.00823691 0.03245929 0.08311485
v -0.01565964 0.04210385 0.07861957
v -0.01644901 0.03245930 0.08027350
v -0.02268538 0.04210385 0.07423923
v -0.02382300 0.03245930 0.07567605
v -0.02856023 0.04210385 0.06840533
v -0.02998907 0.03245930 0.06955298
v -0.03298963 0.04210385 0.06141041
v -0.03463802 0.03245929 0.06221134
v -0.03575146 0.04210385 0.05360525
v -0.03753674 0.03245931 0.05401930
v -0.03670722 0.04210385 0.04538120
v -0.03853987 0.03245931 0.04538762
v -0.03699314 0.01348776 0.02746925
v -0.04001599 0.01348776 0.03620600
v -0.03834175 0.02661923 0.03658197
v -0.03544453 0.02661924 0.02820836
v -0.03210196 0.01348776 0.01962420
v -0.03075666 0.02661923 0.02068937
v -0.02558773 0.01348776 0.01306424
v -0.02451319 0.02661924 0.01440205
v -0.01777712 0.01348776 0.00811829
v -0.01702720 0.02661924 0.00966167
v -0.00906174 0.01348776 0.00503437
v -0.00867407 0.02661923 0.00670593
v 0.00012133 0.01348776 0.00396712
v 0.00012736 0.02661924 0.00568304
v 0.00931170 0.01348777 0.00497008
v 0.00893572 0.02661924 0.00664431
v 0.01804843 0.01348777 0.00799292
v 0.01730935 0.02661924 0.00954151
v 0.02589349 0.01348776 0.01288409
v 0.02482833 0.02661923 0.01422939
v 0.03245347 0.01348777 0.01939831
v 0.03111567 0.02661924 0.02047286
v 0.03739942 0.01348776 0.02720893
v 0.03585605 0.02661923 0.02795886
v 0.04048334 0.01348776 0.03592432
v 0.03881179 0.02661924 0.03631200
v 0.04155058 0.01348776 0.04510741
v 0.03983468 0.02661924 0.04511343
v 0.04054761 0.01348776 0.05429777
v 0.03887339 0.02661923 0.05392180
v 0.03752478 0.01348778 0.06303452
v 0.03597618 0.02661925 0.06229542
v 0.03263360 0.01348775 0.07087955
v 0.03128832 0.02661922 0.06981440
v 0.02611938 0.01348776 0.07743954
v 0.02504483 0.02661924 0.07610174
v 0.01830874 0.01348775 0.08238548
v 0.01755884 0.02661923 0.08084211
v 0.00959337 0.01348775 0.08546939
v 0.00920568 0.02661923 0.08379785
v 0.00041027 0.01348775 0.08653664
v 0.00040427 0.02661923 0.08482072
v -0.00878007 0.01348775 0.08553367
v -0.00840413 0.02661923 0.08385945
v -0.01751683 0.01348776 0.08251082
v -0.01677773 0.02661923 0.08096222
v -0.02536188 0.01348776 0.07761964
v -0.02429671 0.02661923 0.07627435
v -0.03192184 0.01348776 0.07110541
v -0.03058405 0.02661923 0.07003087
v -0.03686779 0.01348776 0.06329477
v -0.03532441 0.02661923 0.06254486
v -0.03995170 0.01348776 0.05457939
v -0.03828014 0.02661924 0.05419172
v -0.04101894 0.01348776 0.04539628
v -0.03930300 0.02661924 0.04539029
v -0.03699314 -0.00519418 0.02746925
v -0.04001597 -0.00519418 0.03620599
v -0.03210196 -0.00519419 0.01962420
v -0.02558774 -0.00519418 0.01306423
v -0.01777714 -0.00519418 0.00811829
v -0.00906174 -0.00519419 0.00503437
v 0.00012137 -0.00519418 0.00396712
v 0.00931170 -0.00519418 0.00497008
v 0.01804843 -0.00519419 0.00799292
v 0.02589349 -0.00519418 0.01288409
v 0.03245347 -0.00519418 0.01939831
v 0.03739942 -0.00519418 0.02720893
v 0.04048334 -0.00519418 0.03592432
v 0.04155058 -0.00519419 0.04510741
v 0.04054761 -0.00519418 0.05429776
v 0.03752478 -0.00519418 0.06303452
v 0.03263360 -0.00519419 0.07087956
v 0.02611938 -0.00519418 0.07743953
v 0.01830874 -0.00519419 0.08238548
v 0.00959337 -0.00519418 0.08546938
v 0.00041027 -0.00519419 0.08653663
v -0.00878010 -0.00519419 0.08553368
v -0.01751683 -0.00519419 0.08251083
v -0.02536188 -0.00519418 0.07761963
v -0.03192184 -0.00519418 0.07110541
v -0.03686779 -0.00519418 0.06329477
v -0.03995170 -0.00519418 0.05457939
v -0.04101894 -0.00519418 0.04539628
v -0.03105682 -0.01702606 0.02045170
v -0.03579006 -0.01702606 0.02804344
v -0.02475296 -0.01702606 0.01410356
v -0.01719452 -0.01702606 0.00931730
v -0.00876056 -0.01702606 0.00633297
v 0.00012600 -0.01702605 0.00530018
v 0.00901961 -0.01702605 0.00627075
v 0.01747424 -0.01702606 0.00919600
v 0.02506600 -0.01702606 0.01392922
v 0.03141416 -0.01702606 0.02023310
v 0.03620040 -0.01702606 0.02779153
v 0.03918474 -0.01702606 0.03622550
v 0.04021751 -0.01702606 0.04511208
v 0.03924695 -0.01702606 0.05400568
v 0.03632170 -0.01702606 0.06246033
v 0.03158848 -0.01702606 0.07005206
v 0.02528457 -0.01702606 0.07640022
v 0.01772615 -0.01702606 0.08118646
v 0.00929217 -0.01702606 0.08417080
v 0.00040557 -0.01702607 0.08520356
v -0.00848801 -0.01702606 0.08423300
v -0.01694264 -0.01702606 0.08130775
v -0.02453440 -0.01702606 0.07657451
v -0.03088253 -0.01702606 0.07027061
v -0.03566878 -0.01702606 0.06271217
v -0.03865310 -0.01702606 0.05427821
v -0.03968586 -0.01702606 0.04539162
v -0.03871530 -0.01702606 0.03649808
v -0.02688071 0.05052963 0.02375821
v -0.02758948 0.04728548 0.02319704
v -0.03179875 0.04728547 0.02994838
v -0.03098288 0.05052963 0.03033777
v -0.02141731 0.05052963 0.01825643
v -0.02198342 0.04728548 0.01755161
v -0.01486661 0.05052963 0.01410831
v -0.01526171 0.04728548 0.01329519
v -0.00755712 0.05052963 0.01152188
v -0.00776137 0.04728547 0.01064121
v 0.00014465 0.05052963 0.01062678
v 0.00014151 0.04728548 0.00972276
v 0.00785249 0.05052963 0.01146795
v 0.00805057 0.04728548 0.01058588
v 0.01517995 0.05052963 0.01400318
v 0.01556932 0.04728548 0.01318730
v 0.02175949 0.05052963 0.01810534
v 0.02232068 0.04728547 0.01739657
v 0.02726129 0.05052965 0.02356875
v 0.02796611 0.04728548 0.02300263
v 0.03140940 0.05052963 0.03011945
v 0.03222254 0.04728546 0.02972436
v 0.03399584 0.05052963 0.03742895
v 0.03487649 0.04728547 0.03722470
v 0.03489092 0.05052963 0.04513073
v 0.03579495 0.04728547 0.04512756
v 0.03404976 0.05052963 0.05283858
v 0.03493182 0.04728547 0.05303666
v 0.03151454 0.05052964 0.06016600
v 0.03233039 0.04728548 0.06055540
v 0.02741235 0.05052962 0.06674556
v 0.02812113 0.04728546 0.06730674
v 0.02194895 0.05052964 0.07224735
v 0.02251507 0.04728548 0.07295217
v 0.01539825 0.05052963 0.07639547
v 0.01579332 0.04728546 0.07720860
v 0.00808873 0.05052963 0.07898192
v 0.00829298 0.04728547 0.07986257
v 0.00038696 0.05052963 0.07987698
v 0.00039013 0.04728546 0.08078100
v -0.00732088 0.05052963 0.07903582
v -0.00751896 0.04728547 0.07991788
v -0.01464831 0.05052963 0.07650058
v -0.01503772 0.04728547 0.07731645
v -0.02122789 0.05052963 0.07239839
v -0.02178908 0.04728547 0.07310716
v -0.02672966 0.05052963 0.06693498
v -0.02743449 0.04728547 0.06750110
v -0.03087777 0.05052963 0.06038427
v -0.03169090 0.04728547 0.06077936
v -0.03346422 0.05052963 0.05307477
v -0.03434486 0.04728547 0.05327901
v -0.03435928 0.05052963 0.04537299
v -0.03526330 0.04728547 0.04537615
v -0.03351812 0.05052963 0.03766520
v -0.03440018 0.04728547 0.03746712
v -0.03572033 -0.03469547 0.03717065
v -0.03772720 -0.02285546 0.03671997
v -0.03487613 -0.02285546 0.02847964
v -0.03301985 -0.03469547 0.02936559
v -0.03026287 -0.02285546 0.02108033
v -0.02865026 -0.03469547 0.02235713
v -0.02411878 -0.02285546 0.01489310
v -0.02283072 -0.03469547 0.01649672
v -0.01675192 -0.02285546 0.01022817
v -0.01585303 -0.03469547 0.01207820
v -0.00853176 -0.02285546 0.00731947
v -0.00806706 -0.03469547 0.00932316
v 0.00012956 -0.02285546 0.00631287
v 0.00013675 -0.03469547 0.00836973
v 0.00879773 -0.02285546 0.00725883
v 0.00834705 -0.03469547 0.00926572
v 0.01703804 -0.02285546 0.01010994
v 0.01615211 -0.03469547 0.01196621
v 0.02443736 -0.02285546 0.01472317
v 0.02316055 -0.03469547 0.01633578
v 0.03062461 -0.02285546 0.02086727
v 0.02902098 -0.03469547 0.02215532
v 0.03528955 -0.02285546 0.02823411
v 0.03343950 -0.03469547 0.02913303
v 0.03819824 -0.02285547 0.03645429
v 0.03619454 -0.03469547 0.03691900
v 0.03920482 -0.02285546 0.04511562
v 0.03714797 -0.03469547 0.04512282
v 0.03825887 -0.02285546 0.05378379
v 0.03625199 -0.03469547 0.05333311
v 0.03540774 -0.02285546 0.06202414
v 0.03355147 -0.03469547 0.06113817
v 0.03079451 -0.02285546 0.06942343
v 0.02918190 -0.03469547 0.06814663
v 0.02465042 -0.02285546 0.07561067
v 0.02336234 -0.03469547 0.07400704
v 0.01728358 -0.02285546 0.08027559
v 0.01638466 -0.03469547 0.07842555
v 0.00906339 -0.02285546 0.08318429
v 0.00859866 -0.03469547 0.08118061
v 0.00040206 -0.02285547 0.08419087
v 0.00039486 -0.03469547 0.08213402
v -0.00826612 -0.02285546 0.08324491
v -0.00781545 -0.03469547 0.08123802
v -0.01650646 -0.02285546 0.08039380
v -0.01562048 -0.03469547 0.07853752
v -0.02390576 -0.02285547 0.07578054
v -0.02262895 -0.03469547 0.07416793
v -0.03009301 -0.02285546 0.06963644
v -0.02848936 -0.03469547 0.06834839
v -0.03475790 -0.02285546 0.06226959
v -0.03290786 -0.03469547 0.06137067
v -0.03766660 -0.02285546 0.05404941
v -0.03566291 -0.03469547 0.05358470
v -0.03867317 -0.02285546 0.04538807
v -0.03661633 -0.03469547 0.04538088
v -0.03422231 -0.04246102 0.04537250
v -0.03510476 -0.03959857 0.04537558
v -0.03424548 -0.03959857 0.03750185
v -0.03338446 -0.04246102 0.03769520
v -0.03333078 -0.04246102 0.05304380
v -0.03419042 -0.03959857 0.05324318
v -0.03075455 -0.04246102 0.06032440
v -0.03154828 -0.03959857 0.06071007
v -0.02662287 -0.04246102 0.06684919
v -0.02731088 -0.03959857 0.06740181
v -0.02114286 -0.04246102 0.07229099
v -0.02169064 -0.03959857 0.07298285
v -0.01458932 -0.04246102 0.07637695
v -0.01496940 -0.03959857 0.07717335
v -0.00729086 -0.04246102 0.07890216
v -0.00748424 -0.03959857 0.07976318
v 0.00038650 -0.04246102 0.07973999
v 0.00038956 -0.03959857 0.08062244
v 0.00805778 -0.04246102 0.07884848
v 0.00825716 -0.03959857 0.07970812
v 0.01533839 -0.04246102 0.07627225
v 0.01572404 -0.03959857 0.07706597
v 0.02186316 -0.04246102 0.07214053
v 0.02241578 -0.03959857 0.07282855
v 0.02730497 -0.04246102 0.06666052
v 0.02799682 -0.03959857 0.06720831
v 0.03139092 -0.04246102 0.06010699
v 0.03218734 -0.03959857 0.06048709
v 0.03391613 -0.04246102 0.05280855
v 0.03477715 -0.03959857 0.05300191
v 0.03475396 -0.04246102 0.04513120
v 0.03563640 -0.03959857 0.04512811
v 0.03386240 -0.04246102 0.03745989
v 0.03472208 -0.03959857 0.03726052
v 0.03128620 -0.04246102 0.03017930
v 0.03207992 -0.03959857 0.02979364
v 0.02715449 -0.04246102 0.02365452
v 0.02784250 -0.03959857 0.02310190
v 0.02167446 -0.04246102 0.01821272
v 0.02222225 -0.03959857 0.01752087
v 0.01512092 -0.04246102 0.01412678
v 0.01550103 -0.03959857 0.01333038
v 0.00782249 -0.04246102 0.01160158
v 0.00801585 -0.03959857 0.01074056
v 0.00014513 -0.04246102 0.01076374
v 0.00014205 -0.03959857 0.00988129
v -0.00752616 -0.04246102 0.01165529
v -0.00772553 -0.03959857 0.01079565
v -0.01480675 -0.04246102 0.01423150
v -0.01519241 -0.03959857 0.01343778
v -0.02133153 -0.04246102 0.01836321
v -0.02188414 -0.03959857 0.01767521
v -0.02677332 -0.04246102 0.02384323
v -0.02746518 -0.03959857 0.02329544
v -0.03085926 -0.04246102 0.03039677
v -0.03165567 -0.03959857 0.03001666
v -0.02736008 -0.04246102 0.03206682
v -0.02960138 -0.04246102 0.03854475
v -0.02373348 -0.04246102 0.02625006
v -0.01890350 -0.04246102 0.02138612
v -0.01311223 -0.04246102 0.01771891
v -0.00665017 -0.04246102 0.01543233
v 0.00015873 -0.04246102 0.01464101
v 0.00697294 -0.04246102 0.01538466
v 0.01345087 -0.04246102 0.01762597
v 0.01926762 -0.04246102 0.02125254
v 0.02413158 -0.04246102 0.02608257
v 0.02779879 -0.04246102 0.03187381
v 0.03008536 -0.04246102 0.03833589
v 0.03087669 -0.04246102 0.04514477
v 0.03013305 -0.04246102 0.05195901
v 0.02789174 -0.04246102 0.05843693
v 0.02426513 -0.04246102 0.06425369
v 0.01943511 -0.04246102 0.06911762
v 0.01364387 -0.04246102 0.07278484
v 0.00718180 -0.04246102 0.07507143
v 0.00037293 -0.04246102 0.07586273
v -0.00644134 -0.04246102 0.07511908
v -0.01291924 -0.04246102 0.07287777
v -0.01873602 -0.04246102 0.06925116
v -0.02359995 -0.04246102 0.06442115
v -0.02726715 -0.04246102 0.05862990
v -0.02955373 -0.04246102 0.05216782
v -0.03034503 -0.04246102 0.04535894
v -0.02973505 0.05052963 0.03851475
v -0.02748370 0.05052963 0.03200783
v -0.03048201 0.05052963 0.04535943
v -0.02968718 0.05052963 0.05219878
v -0.02739036 0.05052963 0.05868978
v -0.02370677 0.05052963 0.06450695
v -0.01882104 0.05052963 0.06935856
v -0.01297826 0.05052963 0.07300139
v -0.00647134 0.05052963 0.07525274
v 0.00037339 0.05052963 0.07599973
v 0.00721274 0.05052963 0.07520488
v 0.01370372 0.05052963 0.07290805
v 0.01952091 0.05052964 0.06922443
v 0.02437252 0.05052962 0.06433874
v 0.02801536 0.05052964 0.05849594
v 0.03026668 0.05052963 0.05198903
v 0.03101366 0.05052963 0.04514430
v 0.03021881 0.05052963 0.03830496
v 0.02792199 0.05052963 0.03181395
v 0.02423837 0.05052965 0.02599680
v 0.01935264 0.05052963 0.02114516
v 0.01350987 0.05052963 0.01750235
v 0.00700296 0.05052963 0.01525102
v 0.00015824 0.05052963 0.01450404
v -0.00668111 0.05052963 0.01529890
v -0.01317209 0.05052963 0.01759572
v -0.01898927 0.05052963 0.02127933
v -0.02384091 0.05052963 0.02616504
v -0.02973505 0.04770538 0.03851475
v -0.02748370 0.04770538 0.03200783
v -0.03048201 0.04770538 0.04535943
v -0.02968718 0.04770537 0.05219878
v -0.02739036 0.04770537 0.05868978
v -0.02370677 0.04770537 0.06450695
v -0.01882104 0.04770537 0.06935856
v -0.01297826 0.04770537 0.07300139
v -0.00647134 0.04770537 0.07525274
v 0.00037339 0.04770536 0.07599973
v 0.00721274 0.04770537 0.07520488
v 0.01370372 0.04770536 0.07290805
v 0.01952091 0.04770538 0.06922443
v 0.02437252 0.04770536 0.06433874
v 0.02801536 0.04770538 0.05849594
v 0.03026668 0.04770538 0.05198903
v 0.03101366 0.04770538 0.04514430
v 0.03021881 0.04770536 0.03830496
v 0.02792199 0.04770536 0.03181395
v 0.02423837 0.04770538 0.02599680
v 0.01935264 0.04770536 0.02114516
v 0.01350987 0.04770538 0.01750235
v 0.00700296 0.04770538 0.01525102
v 0.00015824 0.04770538 0.01450404
v -0.00668111 0.04770536 0.01529890
v -0.01317209 0.04770538 0.01759572
v -0.01898927 0.04770538 0.02127933
v -0.02384091 0.04770538 0.02616504
f 1 2 3
f 2 4 3
f 4 5 3
f 5 6 3
f 6 7 3
f 7 8 3
f 8 9 3
f 9 1 3
f 10 11 12
f 13 10 12
f 14 13 12
f 15 14 12
f 16 15 12
f 17 16 12
f 18 17 12
f 11 18 12
f 19 20 21
f 20 22 21
f 22 23 21
f 23 24 21
f 24 25 21
f 25 26 21
f 26 27 21
f 27 19 21
f 28 29 30
f 31 28 30
f 32 31 30
f 33 32 30
f 34 33 30
f 35 34 30
f 36 35 30
f 29 36 30
f 37 38 39
f 38 40 39
f 40 41 39
f 41 42 39
f 42 43 39
f 43 44 39
f 44 45 39
f 45 46 39
f 46 47 39
f 47 48 39
f 48 49 39
f 49 50 39
f 50 51 39
f 51 52 39
f 52 53 39
f 53 37 39
f 54 55 56
f 54 56 57
f 55 58 59
f 55 59 56
f 58 60 61
f 58 61 59
f 60 62 63
f 60 63 61
f 62 64 65
f 62 65 63
f 64 66 67
f 64 67 65
f 66 68 69
f 66 69 67
f 68 70 71
f 68 71 69
f 70 72 73
f 70 73 71
f 72 74 75
f 72 75 73
f 74 76 77
f 74 77 75
f 76 78 79
f 76 79 77
f 78 80 81
f 78 81 79
f 80 82 83
f 80 83 81
f 82 84 85
f 82 85 83
f 84 54 57
f 84 57 85
f 57 56 86
f 57 86 87
f 56 59 88
f 56 88 86
f 59 61 89
f 59 89 88
f 61 63 90
f 61 90 89
f 63 65 91
f 63 91 90
f 65 67 92
f 65 92 91
f 67 69 93
f 67 93 92
f 69 71 94
f 69 94 93
f 71 73 95
f 71 95 94
f 73 75 96
f 73 96 95
f 75 77 97
f 75 97 96
f 77 79 98
f 77 98 97
f 79 81 99
f 79 99 98
f 81 83 100
f 81 100 99
f 83 85 101
f 83 101 100
f 85 57 87
f 85 87 101
f 87 86 102
f 87 102 103
f 86 88 104
f 86 104 102
f 88 89 105
f 88 105 104
f 89 90 106
f 89 106 105
f 90 91 107
f 90 107 106
f 91 92 108
f 91 108 107
f 92 93 109
f 92 109 108
f 93 94 110
f 93 110 109
f 94 95 111
f 94 111 110
f 95 96 112
f 95 112 111
f 96 97 113
f 96 113 112
f 97 98 114
f 97 114 113
f 98 99 115
f 98 115 114
f 99 100 116
f 99 116 115
f 100 101 117
f 100 117 116
f 101 87 103
f 101 103 117
f 103 102 118
f 103 118 119
f 102 104 120
f 102 120 118
f 104 105 121
f 104 121 120
f 105 106 122
f 105 122 121
f 106 107 123
f 106 123 122
f 107 108 124
f 107 124 123
f 108 109 125
f 108 125 124
f 109 110 126
f 109 126 125
f 110 111 127
f 110 127 126
f 111 112 128
f 111 128 127
f 112 113 129
f 112 129 128
f 113 114 130
f 113 130 129
f 114 115 131
f 114 131 130
f 115 116 132
f 115 132 131
f 116 117 133
f 116 133 132
f 117 103 119
f 117 119 133
f 118 38 37
f 118 37 119
f 120 40 38
f 120 38 118
f 121 41 40
f 121 40 120
f 122 42 41
f 122 41 121
f 123 43 42
f 123 42 122
f 124 44 43
f 124 43 123
f 125 45 44
f 125 44 124
f 126 46 45
f 126 45 125
f 127 47 46
f 127 46 126
f 128 48 47
f 128 47 127
f 129 49 48
f 129 48 128
f 130 50 49
f 130 49 129
f 131 51 50
f 131 50 130
f 132 52 51
f 132 51 131
f 133 53 52
f 133 52 132
f 119 37 53
f 119 53 133
f 134 135 136
f 135 137 136
f 137 138 136
f 138 139 136
f 139 140 136
f 140 141 136
f 141 142 136
f 142 143 136
f 143 144 136
f 144 145 136
f 145 146 136
f 146 147 136
f 147 148 136
f 148 149 136
f 149 150 136
f 150 151 136
f 151 152 136
f 152 153 136
f 153 154 136
f 154 155 136
f 155 156 136
f 156 157 136
f 157 158 136
f 158 159 136
f 159 160 136
f 160 161 136
f 161 162 136
f 162 134 136
f 154 163 164
f 154 164 155
f 155 164 165
f 155 165 156
f 156 165 166
f 156 166 157
f 157 166 167
f 157 167 158
f 158 167 168
f 158 168 159
f 159 168 169
f 159 169 160
f 160 169 170
f 160 170 161
f 161 170 171
f 161 171 162
f 162 171 172
f 162 172 134
f 134 172 173
f 134 173 135
f 135 173 174
f 135 174 137
f 137 174 175
f 137 175 138
f 138 175 176
f 138 176 139
f 139 176 177
f 139 177 140
f 140 177 178
f 140 178 141
f 141 178 179
f 141 179 142
f 142 179 180
f 142 180 143
f 143 180 181
f 143 181 144
f 144 181 182
f 144 182 145
f 145 182 183
f 145 183 146
f 146 183 184
f 146 184 147
f 147 184 185
f 147 185 148
f 148 185 186
f 148 186 149
f 149 186 187
f 149 187 150
f 150 187 188
f 150 188 151
f 151 188 189
f 151 189 152
f 152 189 190
f 152 190 153
f 153 190 163
f 153 163 154
f 191 192 193
f 194 195 196
f 197 198 199
f 200 201 191
f 200 191 193
f 202 203 192
f 202 192 191
f 204 205 203
f 204 203 202
f 194 196 205
f 194 205 204
f 206 195 194
f 206 194 207
f 208 209 201
f 208 201 200
f 199 198 209
f 199 209 208
f 210 211 198
f 210 198 197
f 212 213 214
f 215 216 217
f 218 219 216
f 218 216 215
f 220 221 222
f 220 222 223
f 223 222 213
f 223 213 212
f 224 225 212
f 224 212 214
f 226 227 225
f 226 225 224
f 217 216 227
f 217 227 226
f 228 229 230
f 231 229 228
f 231 228 232
f 228 230 221
f 228 221 220
f 233 234 235
f 236 237 238
f 239 240 237
f 239 237 236
f 241 242 243
f 241 243 244
f 244 243 234
f 244 234 233
f 245 246 233
f 245 233 235
f 247 248 246
f 247 246 245
f 238 237 248
f 238 248 247
f 249 250 251
f 250 252 251
f 252 253 251
f 253 254 251
f 254 255 251
f 255 256 251
f 256 257 251
f 257 258 251
f 258 259 251
f 259 260 251
f 260 261 251
f 261 262 251
f 262 263 251
f 263 264 251
f 264 265 251
f 265 249 251
f 266 267 268
f 266 268 269
f 267 270 271
f 267 271 268
f 270 272 273
f 270 273 271
f 272 274 275
f 272 275 273
f 274 276 277
f 274 277 275
f 276 278 279
f 276 279 277
f 278 280 281
f 278 281 279
f 280 282 283
f 280 283 281
f 282 284 285
f 282 285 283
f 284 286 287
f 284 287 285
f 286 288 289
f 286 289 287
f 288 290 291
f 288 291 289
f 290 292 293
f 290 293 291
f 292 294 295
f 292 295 293
f 294 296 297
f 294 297 295
f 296 266 269
f 296 269 297
f 269 268 298
f 269 298 299
f 268 271 300
f 268 300 298
f 271 273 301
f 271 301 300
f 273 275 302
f 273 302 301
f 275 277 303
f 275 303 302
f 277 279 304
f 277 304 303
f 279 281 305
f 279 305 304
f 281 283 306
f 281 306 305
f 283 285 307
f 283 307 306
f 285 287 308
f 285 308 307
f 287 289 309
f 287 309 308
f 289 291 310
f 289 310 309
f 291 293 311
f 291 311 310
f 293 295 312
f 293 312 311
f 295 297 313
f 295 313 312
f 297 269 299
f 297 299 313
f 299 298 314
f 299 314 315
f 298 300 316
f 298 316 314
f 300 301 317
f 300 317 316
f 301 302 318
f 301 318 317
f 302 303 319
f 302 319 318
f 303 304 320
f 303 320 319
f 304 305 321
f 304 321 320
f 305 306 322
f 305 322 321
f 306 307 323
f 306 323 322
f 307 308 324
f 307 324 323
f 308 309 325
f 308 325 324
f 309 310 326
f 309 326 325
f 310 311 327
f 310 327 326
f 311 312 328
f 311 328 327
f 312 313 329
f 312 329 328
f 313 299 315
f 313 315 329
f 315 314 330
f 315 330 331
f 314 316 332
f 314 332 330
f 316 317 333
f 316 333 332
f 317 318 334
f 317 334 333
f 318 319 335
f 318 335 334
f 319 320 336
f 319 336 335
f 320 321 337
f 320 337 336
f 321 322 338
f 321 338 337
f 322 323 339
f 322 339 338
f 323 324 340
f 323 340 339
f 324 325 341
f 324 341 340
f 325 326 342
f 325 342 341
f 326 327 343
f 326 343 342
f 327 328 344
f 327 344 343
f 328 329 345
f 328 345 344
f 329 315 331
f 329 331 345
f 330 250 249
f 330 249 331
f 332 252 250
f 332 250 330
f 333 253 252
f 333 252 332
f 334 254 253
f 334 253 333
f 335 255 254
f 335 254 334
f 336 256 255
f 336 255 335
f 337 257 256
f 337 256 336
f 338 258 257
f 338 257 337
f 339 259 258
f 339 258 338
f 340 260 259
f 340 259 339
f 341 261 260
f 341 260 340
f 342 262 261
f 342 261 341
f 343 263 262
f 343 262 342
f 344 264 263
f 344 263 343
f 345 265 264
f 345 264 344
f 331 249 265
f 331 265 345
f 346 347 348
f 347 349 348
f 349 350 348
f 350 351 348
f 351 352 348
f 352 353 348
f 353 354 348
f 354 355 348
f 355 356 348
f 356 357 348
f 357 358 348
f 358 359 348
f 359 360 348
f 360 361 348
f 361 362 348
f 362 363 348
f 363 364 348
f 364 365 348
f 365 366 348
f 366 367 348
f 367 368 348
f 368 369 348
f 369 370 348
f 370 371 348
f 371 372 348
f 372 373 348
f 373 374 348
f 374 346 348
f 358 375 376
f 358 376 359
f 359 376 377
f 359 377 360
f 360 377 378
f 360 378 361
f 361 378 379
f 361 379 362
f 362 379 380
f 362 380 363
f 363 380 381
f 363 381 364
f 364 381 382
f 364 382 365
f 365 382 383
f 365 383 366
f 366 383 384
f 366 384 367
f 367 384 385
f 367 385 368
f 368 385 386
f 368 386 369
f 369 386 387
f 369 387 370
f 370 387 388
f 370 388 371
f 371 388 389
f 371 389 372
f 372 389 390
f 372 390 373
f 373 390 391
f 373 391 374
f 374 391 392
f 374 392 346
f 346 392 393
f 346 393 347
f 347 393 394
f 347 394 349
f 349 394 395
f 349 395 350
f 350 395 396
f 350 396 351
f 351 396 397
f 351 397 352
f 352 397 398
f 352 398 353
f 353 398 399
f 353 399 354
f 354 399 400
f 354 400 355
f 355 400 401
f 355 401 356
f 356 401 402
f 356 402 357
f 357 402 375
f 357 375 358
f 403 404 405
f 406 404 403
f 406 403 407
f 403 405 242
f 403 242 241
f 408 409 410
f 411 412 413
f 414 415 416
f 417 418 408
f 417 408 410
f 419 420 409
f 419 409 408
f 421 422 420
f 421 420 419
f 411 413 422
f 411 422 421
f 423 412 411
f 423 411 424
f 425 426 418
f 425 418 417
f 416 415 426
f 416 426 425
f 427 428 415
f 427 415 414
f 191 201 223
f 191 223 212
f 201 209 220
f 201 220 223
f 209 198 228
f 209 228 220
f 198 211 232
f 198 232 228
f 207 194 216
f 207 216 219
f 194 204 227
f 194 227 216
f 204 202 225
f 204 225 227
f 202 191 212
f 202 212 225
f 211 210 231
f 211 231 232
f 206 207 219
f 206 219 218
f 29 28 20
f 29 20 19
f 28 31 22
f 28 22 20
f 31 32 23
f 31 23 22
f 32 33 24
f 32 24 23
f 33 34 25
f 33 25 24
f 34 35 26
f 34 26 25
f 35 36 27
f 35 27 26
f 36 29 19
f 36 19 27
f 210 197 229
f 210 229 231
f 197 199 230
f 197 230 229
f 199 208 221
f 199 221 230
f 208 200 222
f 208 222 221
f 200 193 213
f 200 213 222
f 213 193 192
f 213 192 214
f 192 203 224
f 192 224 214
f 203 205 226
f 203 226 224
f 205 196 217
f 205 217 226
f 196 195 215
f 196 215 217
f 195 206 218
f 195 218 215
f 423 424 240
f 423 240 239
f 11 10 2
f 11 2 1
f 10 13 4
f 10 4 2
f 13 14 5
f 13 5 4
f 14 15 6
f 14 6 5
f 15 16 7
f 15 7 6
f 16 17 8
f 16 8 7
f 17 18 9
f 17 9 8
f 18 11 1
f 18 1 9
f 427 414 404
f 427 404 406
f 414 416 405
f 414 405 404
f 416 425 242
f 416 242 405
f 425 417 243
f 425 243 242
f 417 410 234
f 417 234 243
f 234 410 409
f 234 409 235
f 409 420 245
f 409 245 235
f 420 422 247
f 420 247 245
f 422 413 238
f 422 238 247
f 413 412 236
f 413 236 238
f 412 423 239
f 412 239 236
f 408 418 244
f 408 244 233
f 418 426 241
f 418 241 244
f 426 415 403
f 426 403 241
f 415 428 407
f 415 407 403
f 424 411 237
f 424 237 240
f 411 421 248
f 411 248 237
f 421 419 246
f 421 246 248
f 419 408 233
f 419 233 246
f 429 430 431
f 429 431 432
f 431 430 433
f 431 433 434
f 434 433 435
f 434 435 436
f 436 435 437
f 436 437 438
f 438 437 439
f 438 439 440
f 440 439 441
f 440 441 442
f 442 441 443
f 442 443 444
f 444 443 445
f 444 445 446
f 446 445 447
f 446 447 448
f 448 447 449
f 448 449 450
f 450 449 451
f 450 451 452
f 452 451 453
f 452 453 454
f 454 453 455
f 454 455 456
f 456 455 457
f 456 457 458
f 458 457 459
f 458 459 460
f 460 459 461
f 460 461 462
f 462 461 463
f 462 463 464
f 464 463 465
f 464 465 466
f 466 465 467
f 466 467 468
f 468 467 469
f 468 469 470
f 470 469 471
f 470 471 472
f 472 471 473
f 472 473 474
f 474 473 475
f 474 475 476
f 476 475 477
f 476 477 478
f 478 477 479
f 478 479 480
f 480 479 481
f 480 481 482
f 482 481 483
f 482 483 484
f 484 483 429
f 484 429 432
f 485 486 487
f 485 487 488
f 489 485 488
f 489 488 490
f 491 489 490
f 491 490 492
f 493 491 492
f 493 492 494
f 495 493 494
f 495 494 496
f 497 495 496
f 497 496 498
f 499 497 498
f 499 498 500
f 501 499 500
f 501 500 502
f 503 501 502
f 503 502 504
f 505 503 504
f 505 504 506
f 507 505 506
f 507 506 508
f 509 507 508
f 509 508 510
f 511 509 510
f 511 510 512
f 513 511 512
f 513 512 514
f 515 513 514
f 515 514 516
f 517 515 516
f 517 516 518
f 519 517 518
f 519 518 520
f 521 519 520
f 521 520 522
f 523 521 522
f 523 522 524
f 525 523 524
f 525 524 526
f 527 525 526
f 527 526 528
f 529 527 528
f 529 528 530
f 531 529 530
f 531 530 532
f 533 531 532
f 533 532 534
f 535 533 534
f 535 534 536
f 537 535 536
f 537 536 538
f 539 537 538
f 539 538 540
f 486 539 540
f 486 540 487
f 486 485 541
f 486 541 542
f 485 489 543
f 485 543 541
f 489 491 544
f 489 544 543
f 491 493 545
f 491 545 544
f 493 495 546
f 493 546 545
f 495 497 547
f 495 547 546
f 497 499 548
f 497 548 547
f 499 501 549
f 499 549 548
f 501 503 550
f 501 550 549
f 503 505 551
f 503 551 550
f 505 507 552
f 505 552 551
f 507 509 553
f 507 553 552
f 509 511 554
f 509 554 553
f 511 513 555
f 511 555 554
f 513 515 556
f 513 556 555
f 515 517 557
f 515 557 556
f 517 519 558
f 517 558 557
f 519 521 559
f 519 559 558
f 521 523 560
f 521 560 559
f 523 525 561
f 523 561 560
f 525 527 562
f 525 562 561
f 527 529 563
f 527 563 562
f 529 531 564
f 529 564 563
f 531 533 565
f 531 565 564
f 533 535 566
f 533 566 565
f 535 537 567
f 535 567 566
f 537 539 568
f 537 568 567
f 539 486 542
f 539 542 568
f 541 543 569
f 541 569 570
f 543 544 571
f 543 571 569
f 544 545 572
f 544 572 571
f 545 546 573
f 545 573 572
f 546 547 574
f 546 574 573
f 547 548 575
f 547 575 574
f 548 549 576
f 548 576 575
f 549 550 577
f 549 577 576
f 550 551 578
f 550 578 577
f 551 552 579
f 551 579 578
f 552 553 580
f 552 580 579
f 553 554 581
f 553 581 580
f 554 555 582
f 554 582 581
f 555 556 583
f 555 583 582
f 556 557 584
f 556 584 583
f 557 558 585
f 557 585 584
f 558 559 586
f 558 586 585
f 559 560 587
f 559 587 586
f 560 561 588
f 560 588 587
f 561 562 589
f 561 589 588
f 562 563 590
f 562 590 589
f 563 564 591
f 563 591 590
f 564 565 592
f 564 592 591
f 565 566 593
f 565 593 592
f 566 567 594
f 566 594 593
f 567 568 595
f 567 595 594
f 568 542 596
f 568 596 595
f 542 541 570
f 542 570 596
f 597 598 599
f 597 599 600
f 601 602 598
f 601 598 597
f 603 604 602
f 603 602 601
f 605 606 604
f 605 604 603
f 607 608 606
f 607 606 605
f 609 610 608
f 609 608 607
f 611 612 610
f 611 610 609
f 613 614 612
f 613 612 611
f 615 616 614
f 615 614 613
f 617 618 616
f 617 616 615
f 619 620 618
f 619 618 617
f 621 622 620
f 621 620 619
f 623 624 622
f 623 622 621
f 625 626 624
f 625 624 623
f 627 628 626
f 627 626 625
f 629 630 628
f 629 628 627
f 631 632 630
f 631 630 629
f 633 634 632
f 633 632 631
f 635 636 634
f 635 634 633
f 637 638 636
f 637 636 635
f 639 640 638
f 639 638 637
f 641 642 640
f 641 640 639
f 643 644 642
f 643 642 641
f 645 646 644
f 645 644 643
f 647 648 646
f 647 646 645
f 649 650 648
f 649 648 647
f 651 652 650
f 651 650 649
f 600 599 652
f 600 652 651
f 653 654 655
f 653 655 656
f 656 655 657
f 656 657 658
f 658 657 659
f 658 659 660
f 660 659 661
f 660 661 662
f 662 661 663
f 662 663 664
f 664 663 665
f 664 665 666
f 666 665 667
f 666 667 668
f 668 667 669
f 668 669 670
f 670 669 671
f 670 671 672
f 672 671 673
f 672 673 674
f 674 673 675
f 674 675 676
f 676 675 677
f 676 677 678
f 678 677 679
f 678 679 680
f 680 679 681
f 680 681 682
f 682 681 683
f 682 683 684
f 684 683 685
f 684 685 686
f 686 685 687
f 686 687 688
f 688 687 689
f 688 689 690
f 690 689 691
f 690 691 692
f 692 691 693
f 692 693 694
f 694 693 695
f 694 695 696
f 696 695 697
f 696 697 698
f 698 697 699
f 698 699 700
f 700 699 701
f 700 701 702
f 702 701 703
f 702 703 704
f 704 703 705
f 704 705 706
f 706 705 707
f 706 707 708
f 708 707 654
f 708 654 653
f 709 710 711
f 709 711 712
f 713 714 710
f 713 710 709
f 715 716 714
f 715 714 713
f 717 718 716
f 717 716 715
f 719 720 718
f 719 718 717
f 721 722 720
f 721 720 719
f 723 724 722
f 723 722 721
f 725 726 724
f 725 724 723
f 727 728 726
f 727 726 725
f 729 730 728
f 729 728 727
f 731 732 730
f 731 730 729
f 733 734 732
f 733 732 731
f 735 736 734
f 735 734 733
f 737 738 736
f 737 736 735
f 739 740 738
f 739 738 737
f 741 742 740
f 741 740 739
f 743 744 742
f 743 742 741
f 745 746 744
f 745 744 743
f 747 748 746
f 747 746 745
f 749 750 748
f 749 748 747
f 751 752 750
f 751 750 749
f 753 754 752
f 753 752 751
f 755 756 754
f 755 754 753
f 757 758 756
f 757 756 755
f 759 760 758
f 759 758 757
f 761 762 760
f 761 760 759
f 763 764 762
f 763 762 761
f 712 711 764
f 712 764 763
f 712 763 765
f 712 765 766
f 763 761 767
f 763 767 765
f 761 759 768
f 761 768 767
f 759 757 769
f 759 769 768
f 757 755 770
f 757 770 769
f 755 753 771
f 755 771 770
f 753 751 772
f 753 772 771
f 751 749 773
f 751 773 772
f 749 747 774
f 749 774 773
f 747 745 775
f 747 775 774
f 745 743 776
f 745 776 775
f 743 741 777
f 743 777 776
f 741 739 778
f 741 778 777
f 739 737 779
f 739 779 778
f 737 735 780
f 737 780 779
f 735 733 781
f 735 781 780
f 733 731 782
f 733 782 781
f 731 729 783
f 731 783 782
f 729 727 784
f 729 784 783
f 727 725 785
f 727 785 784
f 725 723 786
f 725 786 785
f 723 721 787
f 723 787 786
f 721 719 788
f 721 788 787
f 719 717 789
f 719 789 788
f 717 715 790
f 717 790 789
f 715 713 791
f 715 791 790
f 713 709 792
f 713 792 791
f 709 712 766
f 709 766 792
f 766 765 393
f 766 393 392
f 765 767 394
f 765 394 393
f 767 768 395
f 767 395 394
f 768 769 396
f 768 396 395
f 769 770 397
f 769 397 396
f 770 771 398
f 770 398 397
f 771 772 399
f 771 399 398
f 772 773 400
f 772 400 399
f 773 774 401
f 773 401 400
f 774 775 402
f 774 402 401
f 775 776 375
f 775 375 402
f 776 777 376
f 776 376 375
f 777 778 377
f 777 377 376
f 778 779 378
f 778 378 377
f 779 780 379
f 779 379 378
f 780 781 380
f 780 380 379
f 781 782 381
f 781 381 380
f 782 783 382
f 782 382 381
f 783 784 383
f 783 383 382
f 784 785 384
f 784 384 383
f 785 786 385
f 785 385 384
f 786 787 386
f 786 386 385
f 787 788 387
f 787 387 386
f 788 789 388
f 788 388 387
f 789 790 389
f 789 389 388
f 790 791 390
f 790 390 389
f 791 792 391
f 791 391 390
f 792 766 392
f 792 392 391
f 600 651 793
f 600 793 794
f 651 649 795
f 651 795 793
f 649 647 796
f 649 796 795
f 647 645 797
f 647 797 796
f 645 643 798
f 645 798 797
f 643 641 799
f 643 799 798
f 641 639 800
f 641 800 799
f 639 637 801
f 639 801 800
f 637 635 802
f 637 802 801
f 635 633 803
f 635 803 802
f 633 631 804
f 633 804 803
f 631 629 805
f 631 805 804
f 629 627 806
f 629 806 805
f 627 625 807
f 627 807 806
f 625 623 808
f 625 808 807
f 623 621 809
f 623 809 808
f 621 619 810
f 621 810 809
f 619 617 811
f 619 811 810
f 617 615 812
f 617 812 811
f 615 613 813
f 615 813 812
f 613 611 814
f 613 814 813
f 611 609 815
f 611 815 814
f 609 607 816
f 609 816 815
f 607 605 817
f 607 817 816
f 605 603 818
f 605 818 817
f 603 601 819
f 603 819 818
f 601 597 820
f 601 820 819
f 597 600 794
f 597 794 820
f 794 793 821
f 794 821 822
f 793 795 823
f 793 823 821
f 795 796 824
f 795 824 823
f 796 797 825
f 796 825 824
f 797 798 826
f 797 826 825
f 798 799 827
f 798 827 826
f 799 800 828
f 799 828 827
f 800 801 829
f 800 829 828
f 801 802 830
f 801 830 829
f 802 803 831
f 802 831 830
f 803 804 832
f 803 832 831
f 804 805 833
f 804 833 832
f 805 806 834
f 805 834 833
f 806 807 835
f 806 835 834
f 807 808 836
f 807 836 835
f 808 809 837
f 808 837 836
f 809 810 838
f 809 838 837
f 810 811 839
f 810 839 838
f 811 812 840
f 811 840 839
f 812 813 841
f 812 841 840
f 813 814 842
f 813 842 841
f 814 815 843
f 814 843 842
f 815 816 844
f 815 844 843
f 816 817 845
f 816 845 844
f 817 818 846
f 817 846 845
f 818 819 847
f 818 847 846
f 819 820 848
f 819 848 847
f 820 794 822
f 820 822 848
f 428 427 406
f 428 406 407
f 764 711 653
f 764 653 656
f 762 764 656
f 762 656 658
f 760 762 658
f 760 658 660
f 758 760 660
f 758 660 662
f 756 758 662
f 756 662 664
f 754 756 664
f 754 664 666
f 752 754 666
f 752 666 668
f 750 752 668
f 750 668 670
f 748 750 670
f 748 670 672
f 746 748 672
f 746 672 674
f 744 746 674
f 744 674 676
f 742 744 676
f 742 676 678
f 740 742 678
f 740 678 680
f 738 740 680
f 738 680 682
f 736 738 682
f 736 682 684
f 734 736 684
f 734 684 686
f 732 734 686
f 732 686 688
f 730 732 688
f 730 688 690
f 728 730 690
f 728 690 692
f 726 728 692
f 726 692 694
f 724 726 694
f 724 694 696
f 722 724 696
f 722 696 698
f 720 722 698
f 720 698 700
f 718 720 700
f 718 700 702
f 716 718 702
f 716 702 704
f 714 716 704
f 714 704 706
f 710 714 706
f 710 706 708
f 711 710 708
f 711 708 653
f 488 487 432
f 488 432 431
f 490 488 431
f 490 431 434
f 492 490 434
f 492 434 436
f 494 492 436
f 494 436 438
f 496 494 438
f 496 438 440
f 498 496 440
f 498 440 442
f 500 498 442
f 500 442 444
f 502 500 444
f 502 444 446
f 504 502 446
f 504 446 448
f 506 504 448
f 506 448 450
f 508 506 450
f 508 450 452
f 510 508 452
f 510 452 454
f 512 510 454
f 512 454 456
f 514 512 456
f 514 456 458
f 516 514 458
f 516 458 460
f 518 516 460
f 518 460 462
f 520 518 462
f 520 462 464
f 522 520 464
f 522 464 466
f 524 522 466
f 524 466 468
f 526 524 468
f 526 468 470
f 528 526 470
f 528 470 472
f 530 528 472
f 530 472 474
f 532 530 474
f 532 474 476
f 534 532 476
f 534 476 478
f 536 534 478
f 536 478 480
f 538 536 480
f 538 480 482
f 540 538 482
f 540 482 484
f 487 540 484
f 487 484 432
f 599 598 433
f 599 433 430
f 652 599 430
f 652 430 429
f 650 652 429
f 650 429 483
f 648 650 483
f 648 483 481
f 646 648 481
f 646 481 479
f 644 646 479
f 644 479 477
f 642 644 477
f 642 477 475
f 640 642 475
f 640 475 473
f 638 640 473
f 638 473 471
f 636 638 471
f 636 471 469
f 634 636 469
f 634 469 467
f 632 634 467
f 632 467 465
f 630 632 465
f 630 465 463
f 628 630 463
f 628 463 461
f 626 628 461
f 626 461 459
f 624 626 459
f 624 459 457
f 622 624 457
f 622 457 455
f 620 622 455
f 620 455 453
f 618 620 453
f 618 453 451
f 616 618 451
f 616 451 449
f 614 616 449
f 614 449 447
f 612 614 447
f 612 447 445
f 610 612 445
f 610 445 443
f 608 610 443
f 608 443 441
f 606 608 441
f 606 441 439
f 604 606 439
f 604 439 437
f 602 604 437
f 602 437 435
f 598 602 435
f 598 435 433
f 655 654 596
f 655 596 570
f 657 655 570
f 657 570 569
f 659 657 569
f 659 569 571
f 661 659 571
f 661 571 572
f 663 661 572
f 663 572 573
f 665 663 573
f 665 573 574
f 667 665 574
f 667 574 575
f 669 667 575
f 669 575 576
f 671 669 576
f 671 576 577
f 673 671 577
f 673 577 578
f 675 673 578
f 675 578 579
f 677 675 579
f 677 579 580
f 679 677 580
f 679 580 581
f 681 679 581
f 681 581 582
f 683 681 582
f 683 582 583
f 685 683 583
f 685 583 584
f 687 685 584
f 687 584 585
f 689 687 585
f 689 585 586
f 691 689 586
f 691 586 587
f 693 691 587
f 693 587 588
f 695 693 588
f 695 588 589
f 697 695 589
f 697 589 590
f 699 697 590
f 699 590 591
f 701 699 591
f 701 591 592
f 703 701 592
f 703 592 593
f 705 703 593
f 705 593 594
f 707 705 594
f 707 594 595
f 654 707 595
f 654 595 596
f 232 231 210
f 210 211 232
f 218 219 207
f 207 206 218
f 239 240 424
f 424 423 239
f 407 406 427
f 427 428 407