# https://github.com/mikedh/trimesh
v 0.00499596 -0.02727271 0.07496926
v 0.00188122 -0.02803266 0.07144907
v 0.00271375 -0.02560080 0.07304025
v 0.00663770 -0.02278910 0.06947959
v 0.00637647 -0.02228136 0.06905350
v 0.00826898 -0.01977075 0.07041374
v 0.00609346 -0.02184178 0.06864182
v -0.00499596 -0.02727271 0.07496926
v -0.00271375 -0.02560080 0.07304025
v -0.00188122 -0.02803266 0.07144907
v -0.00663770 -0.02278910 0.06947959
v -0.00826898 -0.01977075 0.07041374
v -0.00637647 -0.02228136 0.06905350
v -0.00609346 -0.02184178 0.06864182
v 0.01607659 -0.01297868 0.07843819
v 0.01166958 -0.01380467 0.08548881
v 0.00744840 -0.01524143 0.08336193
v 0.00817506 -0.01535115 0.08234448
v 0.00512307 -0.01444420 0.08997061
v 0.00578983 -0.01561710 0.08366334
v 0.00666716 -0.01580147 0.08187582
v 0.01081575 -0.01725174 0.07615141
v 0.00603994 -0.01625373 0.08224449
v 0.00606839 -0.01874913 0.08146283
v 0.00313619 -0.01714791 0.08492229
v 0.00347678 -0.01808568 0.08429207
v 0.00528965 -0.01581077 0.08345874
v 0.00347219 -0.01558207 0.08673963
v 0.00000000 -0.02859860 0.07664273
v 0.00000000 -0.02806412 0.07142914
v 0.01233827 0.01069237 0.09385046
v 0.01093824 0.00701801 0.09547840
v 0.01630325 0.00948921 0.09929863
v 0.01668398 0.01213735 0.09605606
v 0.01839893 0.01239135 0.08881769
v 0.01634431 0.01308566 0.09159784
v 0.02065078 0.01271907 0.09458562
v 0.02176136 0.01233184 0.09207906
v 0.01918143 0.00586583 0.08792134
v 0.01994572 0.00962904 0.08617480
v 0.02145712 0.00936969 0.09087912
v 0.02108469 0.00675753 0.09319664
v 0.01608231 0.00513909 0.08992031
v 0.02007268 0.00678847 0.09667270
v 0.01524502 0.01316428 0.09051398
v 0.01035708 0.01060567 0.09392717
v 0.01841503 0.01276182 0.08677228
v 0.01922682 0.00882761 0.08338463
v 0.01994357 0.00397961 0.08353797
v 0.01231225 0.00426946 0.09572529
v 0.01077056 0.00274891 0.09545939
v 0.01602477 0.00270090 0.09071295
v 0.00929928 0.00699860 0.09587097
v 0.02104622 0.01017641 0.09783062
v 0.01639406 0.00778873 0.09886521
v 0.00769137 -0.01135031 0.06214247
v 0.00000000 -0.01209625 0.06132861
v 0.00000000 -0.01475567 0.05552219
v 0.00873275 -0.01386764 0.05559458
v 0.01834238 -0.00521478 0.06316629
v 0.01850340 -0.00689832 0.05861879
v 0.00000000 0.02016695 0.06233057
v 0.01003630 0.01878178 0.06278187
v 0.00925683 0.01992691 0.05579236
v 0.00000000 0.02055187 0.05559010
v 0.01600677 0.01700313 0.06507322
v 0.01900318 0.00997634 0.06706332
v 0.02944156 0.00941898 0.06538339
v 0.02849724 0.01495230 0.06412843
v 0.01686615 0.01696924 0.05718191
v 0.02137311 0.01052495 0.04914495
v 0.01736305 0.01746089 0.05044125
v 0.02828616 0.01607638 0.05232457
v 0.03018515 0.00989251 0.04992111
v 0.01865238 0.00153064 0.06676731
v 0.02692231 -0.00470766 0.06299647
v 0.02907603 0.00097468 0.06508738
v 0.00961155 0.02042552 0.04957491
v 0.00000000 0.02098359 0.04935642
v 0.01908442 -0.00599608 0.05150595
v 0.02235488 0.00129996 0.04919834
v 0.03080532 0.00120927 0.04979718
v 0.02840457 -0.00536356 0.05306989
v 0.02789562 -0.00639308 0.05811516
v 0.00000000 -0.01560913 0.05012163
v 0.00986406 -0.01461793 0.05010042
v 0.02787643 0.01615947 0.05785172
v 0.00326151 -0.02429882 0.06855003
v 0.00335034 -0.02393159 0.06809836
v 0.00000000 -0.02507362 0.06820210
v 0.00000000 -0.02474884 0.06772619
v 0.00317279 -0.02473283 0.06900169
v 0.00000000 -0.02546365 0.06867801
v 0.04400587 0.01408773 0.05722605
v 0.04427953 0.01399785 0.05320790
v 0.04398704 -0.00268062 0.05742365
v 0.04327112 -0.00155411 0.06108755
v 0.04492720 0.00267239 0.06265941
v 0.04573917 0.00938016 0.05150964
v 0.04621108 0.00299970 0.05143879
v 0.04519511 0.00902049 0.06288194
v 0.04437148 -0.00176957 0.05375572
v 0.05301521 -0.00189952 0.05807807
v 0.05480253 0.00242039 0.05894496
v 0.05377981 0.00246903 0.05005689
v 0.05262233 -0.00228830 0.05223288
v 0.04446149 0.01318022 0.06193851
v 0.05487254 0.00877741 0.05896562
v 0.05381850 0.01288359 0.05828703
v 0.05556563 0.01364117 0.05485378
v 0.05185520 0.01344678 0.05155596
v 0.05622721 -0.00310621 0.05528918
v 0.05310898 0.00883112 0.05007931
v 0.05785306 0.00255471 0.05466344
v 0.05731358 0.00866731 0.05467830
v 0.02254384 0.00068115 0.01704430
v 0.01905824 -0.00858444 0.01662179
v 0.01868928 -0.00678160 0.00603260
v 0.02217488 0.00211650 0.00645511
v 0.02116924 0.00991069 0.01690601
v 0.02080028 0.01073375 0.00631682
v 0.00463729 0.00959967 0.01646052
v 0.00683600 0.01729651 0.01714334
v 0.00646704 0.01734597 0.00655414
v 0.00426833 0.01021344 0.00587132
v 0.02229282 0.00225547 0.00097486
v 0.02091822 0.01087272 0.00083657
v 0.00658499 0.01748495 0.00107389
v 0.00438627 0.01035241 0.00039107
v 0.01819880 0.01554309 0.00608941
v 0.01831674 0.01568206 0.00060916
v 0.01115992 -0.01089961 0.01626031
v 0.01079096 -0.00896739 0.00567111
v 0.00577370 -0.00298130 0.01641792
v 0.00540474 -0.00131682 0.00582873
v 0.01856776 0.01512630 0.01667860
v 0.00552268 -0.00117785 0.00034848
v 0.01880723 -0.00664263 0.00055235
v 0.01090890 -0.00882842 0.00019087
v 0.02235865 -0.00212976 0.00346731
v 0.02247659 -0.00199079 0.00078400
v 0.01887305 -0.01102786 0.00304479
v 0.00570645 -0.00542411 0.00015762
v 0.00558851 -0.00556308 0.00284093
v 0.01899100 -0.01088889 0.00036148
v 0.01097473 -0.01321365 0.00268331
v 0.01109267 -0.01307468 0.00000000
v -0.01607659 -0.01297868 0.07843819
v -0.00817506 -0.01535115 0.08234448
v -0.00744840 -0.01524143 0.08336193
v -0.01166958 -0.01380467 0.08548881
v -0.00578983 -0.01561710 0.08366334
v -0.00512307 -0.01444420 0.08997061
v -0.00666716 -0.01580147 0.08187582
v -0.01081575 -0.01725174 0.07615141
v -0.00606839 -0.01874913 0.08146283
v -0.00603994 -0.01625373 0.08224449
v -0.00313619 -0.01714791 0.08492229
v -0.00347219 -0.01558207 0.08673963
v -0.00528965 -0.01581077 0.08345874
v -0.00347678 -0.01808568 0.08429207
v -0.01233827 0.01069237 0.09385046
v -0.01668398 0.01213735 0.09605606
v -0.01630325 0.00948921 0.09929863
v -0.01093824 0.00701801 0.09547840
v -0.01839893 0.01239135 0.08881769
v -0.02176136 0.01233184 0.09207906
v -0.02065078 0.01271907 0.09458562
v -0.01634431 0.01308566 0.09159784
v -0.01918143 0.00586583 0.08792134
v -0.02108469 0.00675753 0.09319664
v -0.02145712 0.00936969 0.09087912
v -0.01994572 0.00962904 0.08617480
v -0.01608231 0.00513909 0.08992031
v -0.02007268 0.00678847 0.09667270
v -0.01035708 0.01060567 0.09392717
v -0.01524502 0.01316428 0.09051398
v -0.01841503 0.01276182 0.08677228
v -0.01922682 0.00882761 0.08338463
v -0.01994357 0.00397961 0.08353797
v -0.01602477 0.00270090 0.09071295
v -0.01077056 0.00274891 0.09545939
v -0.01231225 0.00426946 0.09572529
v -0.00929928 0.00699860 0.09587097
v -0.02104622 0.01017641 0.09783062
v -0.01639406 0.00778873 0.09886521
v -0.00769137 -0.01135031 0.06214247
v -0.00873275 -0.01386764 0.05559458
v -0.01834238 -0.00521478 0.06316629
v -0.01850340 -0.00689832 0.05861879
v -0.00925683 0.01992691 0.05579236
v -0.01003630 0.01878178 0.06278187
v -0.01600677 0.01700313 0.06507322
v -0.02849724 0.01495230 0.06412843
v -0.02944156 0.00941898 0.06538339
v -0.01900318 0.00997634 0.06706332
v -0.01686615 0.01696924 0.05718191
v -0.02137311 0.01052495 0.04914495
v -0.03018515 0.00989251 0.04992111
v -0.02828616 0.01607638 0.05232457
v -0.01736305 0.01746089 0.05044125
v -0.01865238 0.00153064 0.06676731
v -0.02907603 0.00097468 0.06508738
v -0.02692231 -0.00470766 0.06299647
v -0.00961155 0.02042552 0.04957491
v -0.01908442 -0.00599608 0.05150595
v -0.02840457 -0.00536356 0.05306989
v -0.03080532 0.00120927 0.04979718
v -0.02235488 0.00129996 0.04919834
v -0.02789562 -0.00639308 0.05811516
v -0.00986406 -0.01461793 0.05010042
v -0.02787643 0.01615947 0.05785172
v -0.00335034 -0.02393159 0.06809836
v -0.00326151 -0.02429882 0.06855003
v -0.00317279 -0.02473283 0.06900169
v -0.04427953 0.01399785 0.05320790
v -0.04400587 0.01408773 0.05722605
v -0.04327112 -0.00155411 0.06108755
v -0.04398704 -0.00268062 0.05742365
v -0.04492720 0.00267239 0.06265941
v -0.04621108 0.00299970 0.05143879
v -0.04573917 0.00938016 0.05150964
v -0.04519511 0.00902049 0.06288194
v -0.04437148 -0.00176957 0.05375572
v -0.05480253 0.00242039 0.05894496
v -0.05301521 -0.00189952 0.05807807
v -0.05262233 -0.00228830 0.05223288
v -0.05377981 0.00246903 0.05005689
v -0.04446149 0.01318022 0.06193851
v -0.05381850 0.01288359 0.05828703
v -0.05487254 0.00877741 0.05896562
v -0.05185520 0.01344678 0.05155596
v -0.05556563 0.01364117 0.05485378
v -0.05622721 -0.00310621 0.05528918
v -0.05310898 0.00883112 0.05007931
v -0.05731358 0.00866731 0.05467830
v -0.05785306 0.00255471 0.05466344
v -0.02254384 0.00068115 0.01704430
v -0.02217488 0.00211650 0.00645511
v -0.01868928 -0.00678160 0.00603260
v -0.01905824 -0.00858444 0.01662179
v -0.02116924 0.00991069 0.01690601
v -0.02080028 0.01073375 0.00631682
v -0.00463729 0.00959967 0.01646052
v -0.00426833 0.01021344 0.00587132
v -0.00646704 0.01734597 0.00655414
v -0.00683600 0.01729651 0.01714334
v -0.02091822 0.01087272 0.00083657
v -0.02229282 0.00225547 0.00097486
v -0.00438627 0.01035241 0.00039107
v -0.00658499 0.01748495 0.00107389
v -0.01831674 0.01568206 0.00060916
v -0.01819880 0.01554309 0.00608941
v -0.01079096 -0.00896739 0.00567111
v -0.01115992 -0.01089961 0.01626031
v -0.00577370 -0.00298130 0.01641792
v -0.00540474 -0.00131682 0.00582873
v -0.01856776 0.01512630 0.01667860
v -0.00552268 -0.00117785 0.00034848
v -0.01090890 -0.00882842 0.00019087
v -0.01880723 -0.00664263 0.00055235
v -0.02247659 -0.00199079 0.00078400
v -0.02235865 -0.00212976 0.00346731
v -0.01887305 -0.01102786 0.00304479
v -0.00558851 -0.00556308 0.00284093
v -0.00570645 -0.00542411 0.00015762
v -0.01899100 -0.01088889 0.00036148
v -0.01109267 -0.01307468 0.00000000
v -0.01097473 -0.01321365 0.00268331
v 0.00000000 -0.01834751 0.08468679
v 0.00000000 -0.02403113 0.08009986
v 0.00667628 -0.02657423 0.07285434
v 0.00626062 -0.02418872 0.07855544
v 0.01543981 0.01503724 0.08688595
v 0.01722873 0.01583448 0.08013598
v 0.01007373 -0.01323737 0.06729183
v 0.01115837 -0.01584550 0.07093790
v 0.00579586 -0.02000626 0.06685953
v 0.01009742 -0.02186721 0.07454511
v 0.01651898 -0.01297677 0.07216189
v -0.00667628 -0.02657423 0.07285434
v -0.00626062 -0.02418872 0.07855544
v -0.01543981 0.01503724 0.08688595
v -0.01722873 0.01583448 0.08013598
v -0.01007373 -0.01323737 0.06729183
v -0.00579586 -0.02000626 0.06685953
v -0.01115837 -0.01584550 0.07093790
v -0.01009742 -0.02186721 0.07454511
v -0.01651898 -0.01297677 0.07216189
v 0.00819549 -0.00752177 0.09545172
v 0.01559875 -0.00885787 0.08864950
v 0.01601646 -0.00073396 0.09055219
v 0.00930674 -0.00095836 0.09770386
v 0.00000000 -0.00742980 0.09729942
v 0.00000000 -0.01470728 0.09118383
v 0.02155127 -0.00650265 0.07978190
v 0.02196697 0.00175492 0.08070058
v 0.00000000 -0.00120711 0.09995250
v 0.00000000 -0.01728723 0.08561197
v 0.00000000 -0.01626029 0.08774151
v 0.00000000 0.00622201 0.09859539
v 0.00803761 0.00718937 0.09661361
v 0.00971631 0.01363801 0.09396983
v 0.00000000 0.01208029 0.09652622
v 0.01298569 0.01460470 0.09065793
v 0.02023208 0.00958587 0.08037385
v 0.02130872 0.00078065 0.06876891
v 0.01911873 0.00857554 0.06920391
v 0.01721656 0.01608948 0.07029444
v 0.02149819 -0.00693678 0.06978284
v 0.00384778 -0.02229909 0.06571286
v 0.00536347 -0.01551890 0.06535694
v 0.00000000 -0.01640073 0.06477098
v 0.00000000 -0.02343117 0.06550068
v 0.00654637 0.01537362 0.09304479
v 0.00000000 0.01503553 0.09388884
v 0.00851428 0.01609046 0.09032051
v 0.01265867 0.01797372 0.08062904
v 0.01067251 0.01675709 0.08636198
v 0.00000000 0.01938201 0.08056495
v 0.00000000 0.01859888 0.08551683
v 0.00000000 0.01717911 0.09009293
v 0.01107724 0.01853366 0.07023543
v 0.00000000 0.01959375 0.07000302
v 0.01153745 -0.01600079 0.04096470
v 0.01973474 -0.00785180 0.04238301
v 0.02360565 0.00226142 0.04293951
v 0.02223387 0.01109138 0.04263473
v 0.00970626 0.02062829 0.04109923
v 0.00000000 0.02111450 0.04088671
v 0.01816046 0.01799129 0.04225977
v 0.02278345 0.01114716 0.03379320
v 0.02421960 0.00177851 0.03416255
v 0.02410388 0.00116674 0.02486162
v 0.02272924 0.01064284 0.02455072
v 0.00000000 0.02154240 0.03123385
v 0.00958214 0.02111769 0.03166009
v 0.00892646 0.01998130 0.02290368
v 0.00000000 0.01946236 0.02192456
v 0.01857094 0.01809214 0.03284753
v 0.01871975 0.01692583 0.02370368
v 0.02033174 -0.00898221 0.03266860
v 0.02044524 -0.00870511 0.02356013
v 0.01195980 -0.01739409 0.03131287
v 0.00000000 -0.01881090 0.03124026
v 0.00000000 -0.01640127 0.02154402
v 0.01173214 -0.01587183 0.02240504
v 0.00000000 -0.01740017 0.04132376
v 0.00000000 0.01552615 0.01816779
v 0.00000000 -0.00176034 0.01420810
v 0.00000000 0.00939277 0.01535886
v 0.00000000 -0.00860905 0.01482117
v -0.00819549 -0.00752177 0.09545172
v -0.00930674 -0.00095836 0.09770386
v -0.01601646 -0.00073396 0.09055219
v -0.01559875 -0.00885787 0.08864950
v -0.02155127 -0.00650265 0.07978190
v -0.02196697 0.00175492 0.08070058
v -0.00971631 0.01363801 0.09396983
v -0.00803761 0.00718937 0.09661361
v -0.01298569 0.01460470 0.09065793
v -0.02023208 0.00958587 0.08037385
v -0.01911873 0.00857554 0.06920391
v -0.02130872 0.00078065 0.06876891
v -0.01721656 0.01608948 0.07029444
v -0.02149819 -0.00693678 0.06978284
v -0.00536347 -0.01551890 0.06535694
v -0.00384778 -0.02229909 0.06571286
v -0.00654637 0.01537362 0.09304479
v -0.00851428 0.01609046 0.09032051
v -0.01067251 0.01675709 0.08636198
v -0.01265867 0.01797372 0.08062904
v -0.01107724 0.01853366 0.07023543
v -0.01973474 -0.00785180 0.04238301
v -0.01153745 -0.01600079 0.04096470
v -0.02223387 0.01109138 0.04263473
v -0.02360565 0.00226142 0.04293951
v -0.00970626 0.02062829 0.04109923
v -0.01816046 0.01799129 0.04225977
v -0.02278345 0.01114716 0.03379320
v -0.02272924 0.01064284 0.02455072
v -0.02410388 0.00116674 0.02486162
v -0.02421960 0.00177851 0.03416255
v -0.00892646 0.01998130 0.02290368
v -0.00958214 0.02111769 0.03166009
v -0.01871975 0.01692583 0.02370368
v -0.01857094 0.01809214 0.03284753
v -0.02044524 -0.00870511 0.02356013
v -0.02033174 -0.00898221 0.03266860
v -0.01195980 -0.01739409 0.03131287
v -0.01173214 -0.01587183 0.02240504
f 1 2 3
f 4 5 6
f 6 5 7
f 8 9 10
f 11 12 13
f 12 14 13
f 15 16 17
f 15 17 18
f 16 19 20
f 16 20 17
f 18 17 20
f 18 20 21
f 15 18 21
f 15 21 22
f 22 21 23
f 22 23 24
f 25 26 27
f 25 27 28
f 24 23 27
f 24 27 26
f 29 30 2
f 29 2 1
f 31 32 33
f 31 33 34
f 35 36 37
f 35 37 38
f 39 40 41
f 39 41 42
f 43 39 42
f 43 42 44
f 31 36 45
f 31 45 46
f 36 35 47
f 36 47 45
f 35 40 48
f 35 48 47
f 40 39 49
f 40 49 48
f 43 50 51
f 43 51 52
f 39 43 52
f 39 52 49
f 32 31 46
f 32 46 53
f 50 32 53
f 50 53 51
f 54 41 38
f 54 38 37
f 33 54 37
f 33 37 34
f 55 44 54
f 55 54 33
f 44 42 41
f 44 41 54
f 50 43 44
f 50 44 55
f 40 35 38
f 40 38 41
f 36 31 34
f 36 34 37
f 32 50 55
f 32 55 33
f 56 57 58
f 56 58 59
f 60 56 59
f 60 59 61
f 62 63 64
f 62 64 65
f 66 67 68
f 66 68 69
f 63 66 70
f 63 70 64
f 71 72 73
f 71 73 74
f 20 19 28
f 20 28 27
f 21 20 27
f 21 27 23
f 75 60 76
f 75 76 77
f 65 64 78
f 65 78 79
f 64 70 72
f 64 72 78
f 80 81 82
f 80 82 83
f 61 80 83
f 61 83 84
f 59 58 85
f 59 85 86
f 72 70 87
f 72 87 73
f 5 88 89
f 5 89 7
f 88 90 91
f 88 91 89
f 92 93 90
f 92 90 88
f 4 92 88
f 4 88 5
f 61 59 86
f 61 86 80
f 73 87 94
f 73 94 95
f 76 84 96
f 76 96 97
f 77 76 97
f 77 97 98
f 82 74 99
f 82 99 100
f 68 77 98
f 68 98 101
f 84 83 102
f 84 102 96
f 60 61 84
f 60 84 76
f 70 66 69
f 70 69 87
f 81 71 74
f 81 74 82
f 67 75 77
f 67 77 68
f 98 97 103
f 98 103 104
f 102 100 105
f 102 105 106
f 107 101 108
f 107 108 109
f 95 94 110
f 95 110 111
f 97 96 112
f 97 112 103
f 100 99 113
f 100 113 105
f 69 68 101
f 69 101 107
f 83 82 100
f 83 100 102
f 74 73 95
f 74 95 99
f 87 69 107
f 87 107 94
f 108 104 114
f 108 114 115
f 109 108 115
f 109 115 110
f 115 114 105
f 115 105 113
f 110 115 113
f 110 113 111
f 114 112 106
f 114 106 105
f 104 103 112
f 104 112 114
f 99 95 111
f 99 111 113
f 94 107 109
f 94 109 110
f 96 102 106
f 96 106 112
f 101 98 104
f 101 104 108
f 116 117 118
f 116 118 119
f 120 116 119
f 120 119 121
f 122 123 124
f 122 124 125
f 121 119 126
f 121 126 127
f 125 124 128
f 125 128 129
f 124 130 131
f 124 131 128
f 117 132 133
f 117 133 118
f 134 122 125
f 134 125 135
f 132 134 135
f 132 135 133
f 136 120 121
f 136 121 130
f 123 136 130
f 123 130 124
f 127 126 137
f 127 137 129
f 131 127 129
f 131 129 128
f 126 138 139
f 126 139 137
f 126 119 140
f 126 140 141
f 119 118 142
f 119 142 140
f 135 125 129
f 135 129 137
f 135 137 143
f 135 143 144
f 130 121 127
f 130 127 131
f 140 142 145
f 140 145 141
f 142 146 147
f 142 147 145
f 146 144 143
f 146 143 147
f 118 133 146
f 118 146 142
f 138 126 141
f 138 141 145
f 139 138 145
f 139 145 147
f 133 135 144
f 133 144 146
f 137 139 147
f 137 147 143
f 148 149 150
f 148 150 151
f 151 150 152
f 151 152 153
f 149 154 152
f 149 152 150
f 148 155 154
f 148 154 149
f 155 156 157
f 155 157 154
f 158 159 160
f 158 160 161
f 156 161 160
f 156 160 157
f 29 8 10
f 29 10 30
f 162 163 164
f 162 164 165
f 166 167 168
f 166 168 169
f 170 171 172
f 170 172 173
f 174 175 171
f 174 171 170
f 162 176 177
f 162 177 169
f 169 177 178
f 169 178 166
f 166 178 179
f 166 179 173
f 173 179 180
f 173 180 170
f 174 181 182
f 174 182 183
f 170 180 181
f 170 181 174
f 165 184 176
f 165 176 162
f 183 182 184
f 183 184 165
f 185 168 167
f 185 167 172
f 164 163 168
f 164 168 185
f 186 164 185
f 186 185 175
f 175 185 172
f 175 172 171
f 183 186 175
f 183 175 174
f 173 172 167
f 173 167 166
f 169 168 163
f 169 163 162
f 165 164 186
f 165 186 183
f 187 188 58
f 187 58 57
f 189 190 188
f 189 188 187
f 62 65 191
f 62 191 192
f 193 194 195
f 193 195 196
f 192 191 197
f 192 197 193
f 198 199 200
f 198 200 201
f 152 160 159
f 152 159 153
f 154 157 160
f 154 160 152
f 202 203 204
f 202 204 189
f 65 79 205
f 65 205 191
f 191 205 201
f 191 201 197
f 206 207 208
f 206 208 209
f 190 210 207
f 190 207 206
f 188 211 85
f 188 85 58
f 201 200 212
f 201 212 197
f 13 14 213
f 13 213 214
f 214 213 91
f 214 91 90
f 215 214 90
f 215 90 93
f 11 13 214
f 11 214 215
f 190 206 211
f 190 211 188
f 200 216 217
f 200 217 212
f 204 218 219
f 204 219 210
f 203 220 218
f 203 218 204
f 208 221 222
f 208 222 199
f 195 223 220
f 195 220 203
f 210 219 224
f 210 224 207
f 189 204 210
f 189 210 190
f 197 212 194
f 197 194 193
f 209 208 199
f 209 199 198
f 196 195 203
f 196 203 202
f 220 225 226
f 220 226 218
f 224 227 228
f 224 228 221
f 229 230 231
f 229 231 223
f 216 232 233
f 216 233 217
f 218 226 234
f 218 234 219
f 221 228 235
f 221 235 222
f 194 229 223
f 194 223 195
f 207 224 221
f 207 221 208
f 199 222 216
f 199 216 200
f 212 217 229
f 212 229 194
f 231 236 237
f 231 237 225
f 230 233 236
f 230 236 231
f 236 235 228
f 236 228 237
f 233 232 235
f 233 235 236
f 237 228 227
f 237 227 234
f 225 237 234
f 225 234 226
f 222 235 232
f 222 232 216
f 217 233 230
f 217 230 229
f 219 234 227
f 219 227 224
f 223 231 225
f 223 225 220
f 238 239 240
f 238 240 241
f 242 243 239
f 242 239 238
f 244 245 246
f 244 246 247
f 243 248 249
f 243 249 239
f 245 250 251
f 245 251 246
f 246 251 252
f 246 252 253
f 241 240 254
f 241 254 255
f 256 257 245
f 256 245 244
f 255 254 257
f 255 257 256
f 258 253 243
f 258 243 242
f 247 246 253
f 247 253 258
f 248 250 259
f 248 259 249
f 252 251 250
f 252 250 248
f 249 259 260
f 249 260 261
f 249 262 263
f 249 263 239
f 239 263 264
f 239 264 240
f 257 259 250
f 257 250 245
f 257 265 266
f 257 266 259
f 253 252 248
f 253 248 243
f 263 262 267
f 263 267 264
f 264 267 268
f 264 268 269
f 269 268 266
f 269 266 265
f 240 264 269
f 240 269 254
f 261 267 262
f 261 262 249
f 260 268 267
f 260 267 261
f 254 269 265
f 254 265 257
f 259 266 268
f 259 268 260
f 26 270 271
f 272 273 1
f 2 272 3
f 272 1 3
f 274 47 275
f 276 277 278
f 22 6 277
f 279 6 22
f 279 273 272
f 276 280 277
f 161 271 270
f 281 8 282
f 10 9 281
f 281 9 8
f 283 284 178
f 285 286 287
f 155 287 12
f 288 155 12
f 288 281 282
f 285 287 289
f 290 291 292
f 290 292 293
f 19 290 294
f 19 294 295
f 291 16 15
f 291 15 296
f 291 296 297
f 291 297 292
f 290 293 298
f 290 298 294
f 290 19 16
f 290 16 291
f 273 24 26
f 273 26 271
f 22 24 273
f 22 273 279
f 26 25 299
f 26 299 270
f 28 300 299
f 28 299 25
f 300 28 19
f 300 19 295
f 92 4 272
f 92 272 2
f 4 6 279
f 4 279 272
f 1 273 271
f 1 271 29
f 93 92 2
f 93 2 30
f 301 302 303
f 301 303 304
f 298 293 302
f 298 302 301
f 52 51 293
f 52 293 292
f 49 52 292
f 49 292 297
f 46 45 305
f 46 305 303
f 45 47 274
f 45 274 305
f 53 46 303
f 53 303 302
f 47 48 306
f 47 306 275
f 51 53 302
f 51 302 293
f 48 49 297
f 48 297 306
f 306 297 307
f 306 307 308
f 275 306 308
f 275 308 309
f 296 15 280
f 296 280 310
f 297 296 310
f 297 310 307
f 15 22 277
f 15 277 280
f 308 307 75
f 308 75 67
f 309 308 67
f 309 67 66
f 307 310 60
f 307 60 75
f 310 280 276
f 310 276 60
f 276 278 311
f 276 311 312
f 313 57 56
f 313 56 312
f 314 313 312
f 314 312 311
f 60 276 312
f 60 312 56
f 304 303 315
f 304 315 316
f 303 305 317
f 303 317 315
f 274 275 318
f 274 318 319
f 305 274 319
f 305 319 317
f 319 318 320
f 319 320 321
f 317 319 321
f 317 321 322
f 315 317 322
f 315 322 316
f 320 318 323
f 320 323 324
f 318 275 309
f 318 309 323
f 62 324 323
f 62 323 63
f 309 66 63
f 309 63 323
f 311 89 91
f 311 91 314
f 278 7 89
f 278 89 311
f 277 6 7
f 277 7 278
f 80 86 325
f 80 325 326
f 71 81 327
f 71 327 328
f 79 78 329
f 79 329 330
f 78 72 331
f 78 331 329
f 72 71 328
f 72 328 331
f 81 80 326
f 81 326 327
f 332 333 334
f 332 334 335
f 336 337 338
f 336 338 339
f 337 340 341
f 337 341 338
f 340 332 335
f 340 335 341
f 333 342 343
f 333 343 334
f 344 345 346
f 344 346 347
f 86 85 348
f 86 348 325
f 343 347 132
f 343 132 117
f 335 334 116
f 335 116 120
f 339 338 123
f 339 123 349
f 338 341 136
f 338 136 123
f 341 335 120
f 341 120 136
f 334 343 117
f 334 117 116
f 342 344 347
f 342 347 343
f 122 134 350
f 122 350 351
f 123 122 351
f 123 351 349
f 134 132 352
f 134 352 350
f 347 346 352
f 347 352 132
f 326 325 344
f 326 344 342
f 325 348 345
f 325 345 344
f 327 326 342
f 327 342 333
f 331 328 332
f 331 332 340
f 329 331 340
f 329 340 337
f 330 329 337
f 330 337 336
f 328 327 333
f 328 333 332
f 353 354 355
f 353 355 356
f 153 295 294
f 153 294 353
f 356 357 148
f 356 148 151
f 356 355 358
f 356 358 357
f 353 294 298
f 353 298 354
f 353 356 151
f 353 151 153
f 282 271 161
f 282 161 156
f 155 288 282
f 155 282 156
f 161 270 299
f 161 299 158
f 159 158 299
f 159 299 300
f 300 295 153
f 300 153 159
f 215 10 281
f 215 281 11
f 11 281 288
f 11 288 12
f 8 29 271
f 8 271 282
f 93 30 10
f 93 10 215
f 301 304 359
f 301 359 360
f 298 301 360
f 298 360 354
f 181 355 354
f 181 354 182
f 180 358 355
f 180 355 181
f 176 359 361
f 176 361 177
f 177 361 283
f 177 283 178
f 184 360 359
f 184 359 176
f 178 284 362
f 178 362 179
f 182 354 360
f 182 360 184
f 179 362 358
f 179 358 180
f 362 363 364
f 362 364 358
f 284 365 363
f 284 363 362
f 357 366 289
f 357 289 148
f 358 364 366
f 358 366 357
f 148 289 287
f 148 287 155
f 363 196 202
f 363 202 364
f 365 193 196
f 365 196 363
f 364 202 189
f 364 189 366
f 366 189 285
f 366 285 289
f 285 367 368
f 285 368 286
f 313 367 187
f 313 187 57
f 314 368 367
f 314 367 313
f 189 187 367
f 189 367 285
f 304 316 369
f 304 369 359
f 359 369 370
f 359 370 361
f 283 371 372
f 283 372 284
f 361 370 371
f 361 371 283
f 371 321 320
f 371 320 372
f 370 322 321
f 370 321 371
f 369 316 322
f 369 322 370
f 320 324 373
f 320 373 372
f 372 373 365
f 372 365 284
f 62 192 373
f 62 373 324
f 365 373 192
f 365 192 193
f 368 314 91
f 368 91 213
f 286 368 213
f 286 213 14
f 287 286 14
f 287 14 12
f 206 374 375
f 206 375 211
f 198 376 377
f 198 377 209
f 79 330 378
f 79 378 205
f 205 378 379
f 205 379 201
f 201 379 376
f 201 376 198
f 209 377 374
f 209 374 206
f 380 381 382
f 380 382 383
f 336 339 384
f 336 384 385
f 385 384 386
f 385 386 387
f 387 386 381
f 387 381 380
f 383 382 388
f 383 388 389
f 390 391 346
f 390 346 345
f 211 375 348
f 211 348 85
f 388 241 255
f 388 255 391
f 381 242 238
f 381 238 382
f 339 349 247
f 339 247 384
f 384 247 258
f 384 258 386
f 386 258 242
f 386 242 381
f 382 238 241
f 382 241 388
f 389 388 391
f 389 391 390
f 244 351 350
f 244 350 256
f 247 349 351
f 247 351 244
f 256 350 352
f 256 352 255
f 391 255 352
f 391 352 346
f 374 389 390
f 374 390 375
f 375 390 345
f 375 345 348
f 377 383 389
f 377 389 374
f 379 387 380
f 379 380 376
f 378 385 387
f 378 387 379
f 330 336 385
f 330 385 378
f 376 380 383
f 376 383 377
f 1 3 2
f 4 6 5
f 6 7 5
f 8 10 9
f 11 13 12
f 12 13 14
f 18 17 16
f 16 15 18
f 17 20 19
f 19 16 17
f 21 20 17
f 17 18 21
f 22 21 18
f 18 15 22
f 24 23 21
f 21 22 24
f 28 27 26
f 26 25 28
f 26 27 23
f 23 24 26
f 1 2 30
f 30 29 1
f 34 33 32
f 32 31 34
f 38 37 36
f 36 35 38
f 42 41 40
f 40 39 42
f 44 42 39
f 39 43 44
f 46 45 36
f 36 31 46
f 45 47 35
f 35 36 45
f 47 48 40
f 40 35 47
f 48 49 39
f 39 40 48
f 52 51 50
f 50 43 52
f 49 52 43
f 43 39 49
f 53 46 31
f 31 32 53
f 51 53 32
f 32 50 51
f 37 38 41
f 41 54 37
f 34 37 54
f 54 33 34
f 33 54 44
f 44 55 33
f 54 41 42
f 42 44 54
f 55 44 43
f 43 50 55
f 41 38 35
f 35 40 41
f 37 34 31
f 31 36 37
f 33 55 50
f 50 32 33
f 59 58 57
f 57 56 59
f 61 59 56
f 56 60 61
f 65 64 63
f 63 62 65
f 69 68 67
f 67 66 69
f 64 70 66
f 66 63 64
f 74 73 72
f 72 71 74
f 27 28 19
f 19 20 27
f 23 27 20
f 20 21 23
f 77 76 60
f 60 75 77
f 79 78 64
f 64 65 79
f 78 72 70
f 70 64 78
f 83 82 81
f 81 80 83
f 84 83 80
f 80 61 84
f 86 85 58
f 58 59 86
f 73 87 70
f 70 72 73
f 7 89 88
f 88 5 7
f 89 91 90
f 90 88 89
f 88 90 93
f 93 92 88
f 5 88 92
f 92 4 5
f 80 86 59
f 59 61 80
f 95 94 87
f 87 73 95
f 97 96 84
f 84 76 97
f 98 97 76
f 76 77 98
f 100 99 74
f 74 82 100
f 101 98 77
f 77 68 101
f 96 102 83
f 83 84 96
f 76 84 61
f 61 60 76
f 87 69 66
f 66 70 87
f 82 74 71
f 71 81 82
f 68 77 75
f 75 67 68
f 104 103 97
f 97 98 104
f 106 105 100
f 100 102 106
f 109 108 101
f 101 107 109
f 111 110 94
f 94 95 111
f 103 112 96
f 96 97 103
f 105 113 99
f 99 100 105
f 107 101 68
f 68 69 107
f 102 100 82
f 82 83 102
f 99 95 73
f 73 74 99
f 94 107 69
f 69 87 94
f 115 114 104
f 104 108 115
f 110 115 108
f 108 109 110
f 113 105 114
f 114 115 113
f 111 113 115
f 115 110 111
f 105 106 112
f 112 114 105
f 114 112 103
f 103 104 114
f 113 111 95
f 95 99 113
f 110 109 107
f 107 94 110
f 112 106 102
f 102 96 112
f 108 104 98
f 98 101 108
f 119 118 117
f 117 116 119
f 121 119 116
f 116 120 121
f 125 124 123
f 123 122 125
f 127 126 119
f 119 121 127
f 129 128 124
f 124 125 129
f 128 131 130
f 130 124 128
f 118 133 132
f 132 117 118
f 135 125 122
f 122 134 135
f 133 135 134
f 134 132 133
f 130 121 120
f 120 136 130
f 124 130 136
f 136 123 124
f 129 137 126
f 126 127 129
f 128 129 127
f 127 131 128
f 137 139 138
f 138 126 137
f 141 140 119
f 119 126 141
f 140 142 118
f 118 119 140
f 137 129 125
f 125 135 137
f 144 143 137
f 137 135 144
f 131 127 121
f 121 130 131
f 141 145 142
f 142 140 141
f 145 147 146
f 146 142 145
f 147 143 144
f 144 146 147
f 142 146 133
f 133 118 142
f 145 141 126
f 126 138 145
f 147 145 138
f 138 139 147
f 146 144 135
f 135 133 146
f 143 147 139
f 139 137 143
f 151 150 149
f 149 148 151
f 153 152 150
f 150 151 153
f 150 152 154
f 154 149 150
f 149 154 155
f 155 148 149
f 154 157 156
f 156 155 154
f 161 160 159
f 159 158 161
f 157 160 161
f 161 156 157
f 30 10 8
f 8 29 30
f 165 164 163
f 163 162 165
f 169 168 167
f 167 166 169
f 173 172 171
f 171 170 173
f 170 171 175
f 175 174 170
f 169 177 176
f 176 162 169
f 166 178 177
f 177 169 166
f 173 179 178
f 178 166 173
f 170 180 179
f 179 173 170
f 183 182 181
f 181 174 183
f 174 181 180
f 180 170 174
f 162 176 184
f 184 165 162
f 165 184 182
f 182 183 165
f 172 167 168
f 168 185 172
f 185 168 163
f 163 164 185
f 175 185 164
f 164 186 175
f 171 172 185
f 185 175 171
f 174 175 186
f 186 183 174
f 166 167 172
f 172 173 166
f 162 163 168
f 168 169 162
f 183 186 164
f 164 165 183
f 57 58 188
f 188 187 57
f 187 188 190
f 190 189 187
f 192 191 65
f 65 62 192
f 196 195 194
f 194 193 196
f 193 197 191
f 191 192 193
f 201 200 199
f 199 198 201
f 153 159 160
f 160 152 153
f 152 160 157
f 157 154 152
f 189 204 203
f 203 202 189
f 191 205 79
f 79 65 191
f 197 201 205
f 205 191 197
f 209 208 207
f 207 206 209
f 206 207 210
f 210 190 206
f 58 85 211
f 211 188 58
f 197 212 200
f 200 201 197
f 214 213 14
f 14 13 214
f 90 91 213
f 213 214 90
f 93 90 214
f 214 215 93
f 215 214 13
f 13 11 215
f 188 211 206
f 206 190 188
f 212 217 216
f 216 200 212
f 210 219 218
f 218 204 210
f 204 218 220
f 220 203 204
f 199 222 221
f 221 208 199
f 203 220 223
f 223 195 203
f 207 224 219
f 219 210 207
f 190 210 204
f 204 189 190
f 193 194 212
f 212 197 193
f 198 199 208
f 208 209 198
f 202 203 195
f 195 196 202
f 218 226 225
f 225 220 218
f 221 228 227
f 227 224 221
f 223 231 230
f 230 229 223
f 217 233 232
f 232 216 217
f 219 234 226
f 226 218 219
f 222 235 228
f 228 221 222
f 195 223 229
f 229 194 195
f 208 221 224
f 224 207 208
f 200 216 222
f 222 199 200
f 194 229 217
f 217 212 194
f 225 237 236
f 236 231 225
f 231 236 233
f 233 230 231
f 237 228 235
f 235 236 237
f 236 235 232
f 232 233 236
f 234 227 228
f 228 237 234
f 226 234 237
f 237 225 226
f 216 232 235
f 235 222 216
f 229 230 233
f 233 217 229
f 224 227 234
f 234 219 224
f 220 225 231
f 231 223 220
f 241 240 239
f 239 238 241
f 238 239 243
f 243 242 238
f 247 246 245
f 245 244 247
f 239 249 248
f 248 243 239
f 246 251 250
f 250 245 246
f 253 252 251
f 251 246 253
f 255 254 240
f 240 241 255
f 244 245 257
f 257 256 244
f 256 257 254
f 254 255 256
f 242 243 253
f 253 258 242
f 258 253 246
f 246 247 258
f 249 259 250
f 250 248 249
f 248 250 251
f 251 252 248
f 261 260 259
f 259 249 261
f 239 263 262
f 262 249 239
f 240 264 263
f 263 239 240
f 245 250 259
f 259 257 245
f 259 266 265
f 265 257 259
f 243 248 252
f 252 253 243
f 264 267 262
f 262 263 264
f 269 268 267
f 267 264 269
f 265 266 268
f 268 269 265
f 254 269 264
f 264 240 254
f 249 262 267
f 267 261 249
f 261 267 268
f 268 260 261
f 257 265 269
f 269 254 257
f 260 268 266
f 266 259 260
f 26 271 270
f 272 1 273
f 2 3 272
f 272 3 1
f 274 275 47
f 276 278 277
f 22 277 6
f 279 22 6
f 279 272 273
f 276 277 280
f 161 270 271
f 281 282 8
f 10 281 9
f 281 8 9
f 283 178 284
f 285 287 286
f 155 12 287
f 288 12 155
f 288 282 281
f 285 289 287
f 293 292 291
f 291 290 293
f 295 294 290
f 290 19 295
f 296 15 16
f 16 291 296
f 292 297 296
f 296 291 292
f 294 298 293
f 293 290 294
f 291 16 19
f 19 290 291
f 271 26 24
f 24 273 271
f 279 273 24
f 24 22 279
f 270 299 25
f 25 26 270
f 25 299 300
f 300 28 25
f 295 19 28
f 28 300 295
f 2 272 4
f 4 92 2
f 272 279 6
f 6 4 272
f 29 271 273
f 273 1 29
f 30 2 92
f 92 93 30
f 304 303 302
f 302 301 304
f 301 302 293
f 293 298 301
f 292 293 51
f 51 52 292
f 297 292 52
f 52 49 297
f 303 305 45
f 45 46 303
f 305 274 47
f 47 45 305
f 302 303 46
f 46 53 302
f 275 306 48
f 48 47 275
f 293 302 53
f 53 51 293
f 306 297 49
f 49 48 306
f 308 307 297
f 297 306 308
f 309 308 306
f 306 275 309
f 310 280 15
f 15 296 310
f 307 310 296
f 296 297 307
f 280 277 22
f 22 15 280
f 67 75 307
f 307 308 67
f 66 67 308
f 308 309 66
f 75 60 310
f 310 307 75
f 60 276 280
f 280 310 60
f 312 311 278
f 278 276 312
f 312 56 57
f 57 313 312
f 311 312 313
f 313 314 311
f 56 312 276
f 276 60 56
f 316 315 303
f 303 304 316
f 315 317 305
f 305 303 315
f 319 318 275
f 275 274 319
f 317 319 274
f 274 305 317
f 321 320 318
f 318 319 321
f 322 321 319
f 319 317 322
f 316 322 317
f 317 315 316
f 324 323 318
f 318 320 324
f 323 309 275
f 275 318 323
f 63 323 324
f 324 62 63
f 323 63 66
f 66 309 323
f 314 91 89
f 89 311 314
f 311 89 7
f 7 278 311
f 278 7 6
f 6 277 278
f 326 325 86
f 86 80 326
f 328 327 81
f 81 71 328
f 330 329 78
f 78 79 330
f 329 331 72
f 72 78 329
f 331 328 71
f 71 72 331
f 327 326 80
f 80 81 327
f 335 334 333
f 333 332 335
f 339 338 337
f 337 336 339
f 338 341 340
f 340 337 338
f 341 335 332
f 332 340 341
f 334 343 342
f 342 333 334
f 347 346 345
f 345 344 347
f 325 348 85
f 85 86 325
f 117 132 347
f 347 343 117
f 120 116 334
f 334 335 120
f 349 123 338
f 338 339 349
f 123 136 341
f 341 338 123
f 136 120 335
f 335 341 136
f 116 117 343
f 343 334 116
f 343 347 344
f 344 342 343
f 351 350 134
f 134 122 351
f 349 351 122
f 122 123 349
f 350 352 132
f 132 134 350
f 132 352 346
f 346 347 132
f 342 344 325
f 325 326 342
f 344 345 348
f 348 325 344
f 333 342 326
f 326 327 333
f 340 332 328
f 328 331 340
f 337 340 331
f 331 329 337
f 336 337 329
f 329 330 336
f 332 333 327
f 327 328 332
f 356 355 354
f 354 353 356
f 353 294 295
f 295 153 353
f 151 148 357
f 357 356 151
f 357 358 355
f 355 356 357
f 354 298 294
f 294 353 354
f 153 151 356
f 356 353 153
f 156 161 271
f 271 282 156
f 156 282 288
f 288 155 156
f 158 299 270
f 270 161 158
f 300 299 158
f 158 159 300
f 159 153 295
f 295 300 159
f 11 281 10
f 10 215 11
f 12 288 281
f 281 11 12
f 282 271 29
f 29 8 282
f 215 10 30
f 30 93 215
f 360 359 304
f 304 301 360
f 354 360 301
f 301 298 354
f 182 354 355
f 355 181 182
f 181 355 358
f 358 180 181
f 177 361 359
f 359 176 177
f 178 283 361
f 361 177 178
f 176 359 360
f 360 184 176
f 179 362 284
f 284 178 179
f 184 360 354
f 354 182 184
f 180 358 362
f 362 179 180
f 358 364 363
f 363 362 358
f 362 363 365
f 365 284 362
f 148 289 366
f 366 357 148
f 357 366 364
f 364 358 357
f 155 287 289
f 289 148 155
f 364 202 196
f 196 363 364
f 363 196 193
f 193 365 363
f 366 189 202
f 202 364 366
f 289 285 189
f 189 366 289
f 286 368 367
f 367 285 286
f 57 187 367
f 367 313 57
f 313 367 368
f 368 314 313
f 285 367 187
f 187 189 285
f 359 369 316
f 316 304 359
f 361 370 369
f 369 359 361
f 284 372 371
f 371 283 284
f 283 371 370
f 370 361 283
f 372 320 321
f 321 371 372
f 371 321 322
f 322 370 371
f 370 322 316
f 316 369 370
f 372 373 324
f 324 320 372
f 284 365 373
f 373 372 284
f 324 373 192
f 192 62 324
f 193 192 373
f 373 365 193
f 213 91 314
f 314 368 213
f 14 213 368
f 368 286 14
f 12 14 286
f 286 287 12
f 211 375 374
f 374 206 211
f 209 377 376
f 376 198 209
f 205 378 330
f 330 79 205
f 201 379 378
f 378 205 201
f 198 376 379
f 379 201 198
f 206 374 377
f 377 209 206
f 383 382 381
f 381 380 383
f 385 384 339
f 339 336 385
f 387 386 384
f 384 385 387
f 380 381 386
f 386 387 380
f 389 388 382
f 382 383 389
f 345 346 391
f 391 390 345
f 85 348 375
f 375 211 85
f 391 255 241
f 241 388 391
f 382 238 242
f 242 381 382
f 384 247 349
f 349 339 384
f 386 258 247
f 247 384 386
f 381 242 258
f 258 386 381
f 388 241 238
f 238 382 388
f 390 391 388
f 388 389 390
f 256 350 351
f 351 244 256
f 244 351 349
f 349 247 244
f 255 352 350
f 350 256 255
f 346 352 255
f 255 391 346
f 375 390 389
f 389 374 375
f 348 345 390
f 390 375 348
f 374 389 383
f 383 377 374
f 376 380 387
f 387 379 376
f 379 387 385
f 385 378 379
f 378 385 336
f 336 330 378
f 377 383 380
f 380 376 377