# https://github.com/mikedh/trimesh
v 0.05997854 0.02028423 0.06559498
v 0.06187663 0.02028423 0.06559498
v 0.06148283 0.02451079 0.06529942
v 0.05997854 0.02514087 0.06529942
v 0.05997854 0.02542915 0.06331263
v 0.06148283 0.02479907 0.06331263
v 0.06148283 0.02451079 0.06132584
v 0.05997854 0.02514087 0.06132584
v 0.06187663 0.02028423 0.06103029
v 0.05997854 0.02028423 0.06103029
v 0.05997854 0.00114090 0.06073473
v 0.06187663 0.00114090 0.06073473
v 0.06187663 0.00033372 0.06331263
v 0.05997854 0.00033372 0.06331263
v 0.06187663 0.02028423 0.06331263
v 0.05997854 0.00114090 0.06589053
v 0.06187663 0.00114090 0.06589053
v 0.05997854 0.02028423 0.06331263
v -0.06636755 0.02028423 0.06559498
v -0.06636755 0.02514087 0.06529942
v -0.06787184 0.02451079 0.06529942
v -0.06826564 0.02028423 0.06559498
v -0.06636755 0.02542915 0.06331263
v -0.06636755 0.02514087 0.06132584
v -0.06787184 0.02451079 0.06132584
v -0.06787184 0.02479907 0.06331263
v -0.06636755 0.02028423 0.06103029
v -0.06826564 0.02028423 0.06103029
v -0.06636755 0.00114090 0.06073473
v -0.06636755 0.00033372 0.06331263
v -0.06826564 0.00033372 0.06331263
v -0.06826564 0.00114090 0.06073473
v -0.06826564 0.02028423 0.06331263
v -0.06636755 0.00114090 0.06589053
v -0.06826564 0.00114090 0.06589053
v -0.06636755 0.02028423 0.06331263
v 0.05839921 0.02514087 0.06132584
v 0.05839921 0.02542915 0.06331263
v 0.05839921 0.02028424 0.06103029
v 0.05839921 0.02028424 0.06331263
v 0.05839921 0.02028424 0.06559498
v 0.05839921 0.02514087 0.06529942
v 0.05839921 0.02552498 0.06586023
v 0.05839921 0.02589463 0.06331263
v -0.06478825 0.02589463 0.06331263
v -0.06478825 0.02552498 0.06586023
v 0.05839921 0.01956130 0.06622315
v -0.06478825 0.01956130 0.06622315
v 0.05839921 0.01956130 0.06331263
v -0.06478825 0.01956130 0.06331263
v 0.05839921 0.01956130 0.06040211
v -0.06478825 0.01956130 0.06040211
v 0.05839921 0.02552499 0.06076504
v -0.06478825 0.02552498 0.06076504
v -0.06478825 0.02514087 0.06529942
v -0.06478825 0.02542915 0.06331263
v -0.06478825 0.02028423 0.06559498
v -0.06478825 0.02028423 0.06331263
v -0.06478825 0.02028423 0.06103029
v -0.06478825 0.02514087 0.06132584
v -0.02993156 0.01706197 0.06611797
v -0.02993156 0.01727395 0.06560620
v -0.02993156 0.01655019 0.06560620
v -0.02993156 0.01706197 0.06509442
v -0.02993156 0.01655019 0.06488244
v -0.02993156 0.01603842 0.06509442
v -0.02993156 0.01582643 0.06560620
v -0.02993156 0.01603842 0.06611797
v -0.02993156 0.01655019 0.06632996
v -0.02853297 0.01717716 0.06623316
v -0.02853297 0.01743686 0.06560620
v -0.02853297 0.01655019 0.06560620
v -0.02853297 0.01717716 0.06497923
v -0.02853297 0.01655019 0.06471954
v -0.02853297 0.01592322 0.06497923
v -0.02853297 0.01566353 0.06560620
v -0.02853297 0.01592322 0.06623316
v -0.02853297 0.01655019 0.06649286
v -0.03549539 0.01729339 0.06634939
v -0.03549539 0.01760123 0.06560619
v -0.03549539 0.01655019 0.06560619
v -0.03549539 0.01729339 0.06486300
v -0.03549539 0.01655019 0.06455516
v -0.03549539 0.01580700 0.06486300
v -0.03549539 0.01549915 0.06560619
v -0.03549539 0.01580700 0.06634939
v -0.03549539 0.01655019 0.06665725
v -0.04944350 0.00612155 0.06767281
v -0.05081472 0.00749277 0.06767281
v -0.05081472 0.00612155 0.06767281
v -0.05081472 0.00100409 0.06767281
v -0.04944358 0.00237564 0.06767281
v -0.05081472 0.00237570 0.06767281
v -0.05456095 0.00749277 0.06767281
v -0.05593218 0.00612155 0.06767281
v -0.05456095 0.00612155 0.06767281
v -0.05593218 0.00237531 0.06767281
v -0.05456095 0.00100409 0.06767281
v -0.05456095 0.00237541 0.06767281
v -0.03763916 0.00612155 0.06767281
v -0.03901038 0.00749277 0.06767281
v -0.03901038 0.00612155 0.06767281
v -0.03901038 0.00100409 0.06767281
v -0.03763924 0.00237564 0.06767281
v -0.03901038 0.00237570 0.06767281
v -0.04275662 0.00749277 0.06767281
v -0.04412784 0.00612155 0.06767281
v -0.04275662 0.00612155 0.06767281
v -0.04412784 0.00237531 0.06767281
v -0.04275662 0.00100409 0.06767281
v -0.04275662 0.00237541 0.06767281
v -0.02781133 -0.01546152 0.02988568
v -0.03171450 -0.01546152 0.03572719
v -0.04444655 -0.01591469 0.02299516
v -0.03755601 -0.01546152 0.03963037
v -0.04444654 -0.01546152 0.04100098
v -0.05133707 -0.01546152 0.03963038
v -0.05717859 -0.01546152 0.03572720
v -0.06108176 -0.01546152 0.02988569
v -0.06245238 -0.01546152 0.02299516
v -0.06108177 -0.01546152 0.01610463
v -0.05717860 -0.01546152 0.01026312
v -0.05133708 -0.01546152 0.00635994
v -0.04444656 -0.01546152 0.00498933
v -0.03755602 -0.01546152 0.00635994
v -0.03171451 -0.01546152 0.01026311
v -0.02781134 -0.01546152 0.01610462
v -0.02644072 -0.01546152 0.02299516
v -0.02583482 0.00612155 0.06767281
v -0.02720605 0.00749277 0.06767281
v -0.02720605 0.00612155 0.06767281
v -0.02720605 0.00100409 0.06767281
v -0.02583490 0.00237564 0.06767281
v -0.02720605 0.00237570 0.06767281
v -0.03095228 0.00749277 0.06767281
v -0.03232350 0.00612155 0.06767281
v -0.03095228 0.00612155 0.06767281
v -0.03232350 0.00237531 0.06767281
v -0.03095228 0.00100409 0.06767281
v -0.03095228 0.00237541 0.06767281
v 0.05479935 -0.01546152 0.02988568
v 0.05089618 -0.01546152 0.03572719
v 0.03816413 -0.01591469 0.02299516
v 0.04505467 -0.01546152 0.03963037
v 0.03816414 -0.01546152 0.04100098
v 0.03127361 -0.01546152 0.03963038
v 0.02543209 -0.01546152 0.03572720
v 0.02152892 -0.01546152 0.02988569
v 0.02015830 -0.01546152 0.02299516
v 0.02152891 -0.01546152 0.01610463
v 0.02543208 -0.01546152 0.01026312
v 0.03127360 -0.01546152 0.00635994
v 0.03816413 -0.01546152 0.00498933
v 0.04505466 -0.01546152 0.00635994
v 0.05089617 -0.01546152 0.01026311
v 0.05479934 -0.01546152 0.01610462
v 0.05616996 -0.01546152 0.02299516
v 0.06217176 -0.00190772 0.04225523
v 0.06217176 -0.00025243 0.04391052
v 0.06217176 -0.00416889 0.04617169
v 0.06217176 0.00035345 0.04617169
v 0.06217176 -0.00025243 0.04843286
v 0.06217176 -0.00190772 0.05008814
v 0.06217176 -0.00416889 0.05069402
v 0.06217176 -0.00643005 0.05008814
v 0.06217176 -0.00808534 0.04843286
v 0.06217176 -0.00869122 0.04617169
v 0.06217176 -0.00808534 0.04391052
v 0.06217176 -0.00643005 0.04225523
v 0.06217176 -0.00416889 0.04164935
v 0.02449034 0.01706197 0.06611797
v 0.02449034 0.01727395 0.06560620
v 0.02449033 0.01706197 0.06509442
v 0.02449034 0.01655019 0.06488244
v 0.02449033 0.01603842 0.06509442
v 0.02449034 0.01582643 0.06560620
v 0.02449034 0.01603842 0.06611797
v 0.02449034 0.01655019 0.06632996
v 0.03813831 0.01717716 0.06623316
v 0.03813831 0.01743686 0.06560620
v 0.03813831 0.01717716 0.06497923
v 0.03813831 0.01655019 0.06471954
v 0.03813831 0.01592322 0.06497923
v 0.03813831 0.01566353 0.06560620
v 0.03813831 0.01592322 0.06623316
v 0.03813831 0.01655019 0.06649286
v 0.02089534 0.01690270 0.06595870
v 0.02089534 0.01704871 0.06560620
v -0.03404867 0.01704871 0.06560620
v -0.03404867 0.01690270 0.06595870
v 0.02089534 0.01690270 0.06525369
v -0.03404867 0.01690270 0.06525369
v 0.02089534 0.01655019 0.06510769
v -0.03404867 0.01655019 0.06510769
v 0.02089534 0.01619769 0.06525369
v -0.03404867 0.01619769 0.06525369
v 0.02089534 0.01605167 0.06560620
v -0.03404867 0.01605167 0.06560620
v 0.02089534 0.01619769 0.06595870
v -0.03404867 0.01619769 0.06595870
v 0.02089534 0.01655019 0.06610473
v -0.03404867 0.01655019 0.06610473
v -0.03404867 0.01760123 0.06560619
v -0.03404867 0.01729339 0.06634939
v -0.03404867 0.01729339 0.06486300
v -0.03404867 0.01655019 0.06455516
v -0.03404867 0.01580700 0.06486300
v -0.03404867 0.01549915 0.06560619
v -0.03404867 0.01580700 0.06634939
v -0.03404867 0.01655019 0.06665725
v -0.02211877 -0.01477090 0.01312498
v 0.01572976 -0.01477090 0.01312498
v 0.01572976 -0.01477090 0.02201375
v -0.02211877 -0.01477090 0.02201375
v 0.01572976 -0.01305732 0.02201375
v -0.02211877 -0.01305732 0.02201375
v -0.02211877 -0.01305732 0.01312498
v 0.01572976 -0.01305732 0.01312498
v -0.04229867 0.01736778 0.06508372
v -0.04125875 0.01736778 0.06508372
v -0.04125875 0.01736778 0.06360595
v -0.04229867 0.01736778 0.06360595
v -0.04229867 0.01702300 0.06360595
v -0.04125875 0.01702300 0.06360595
v -0.04125875 0.01570618 0.06360595
v -0.04229867 0.01570618 0.06360595
v -0.04125875 0.01702300 0.06508372
v -0.04125875 0.01570618 0.06508372
v -0.04229867 0.01702300 0.06508372
v -0.04229867 0.01570618 0.06508372
v -0.04229867 0.01404459 0.06656150
v -0.04125875 0.01404459 0.06656150
v -0.04125875 0.01570618 0.06656150
v -0.04229867 0.01570618 0.06656150
v -0.04125875 0.01404459 0.06360595
v -0.04125875 0.01404459 0.06508372
v -0.04229867 0.01404459 0.06360595
v -0.04229867 0.01404459 0.06508372
v -0.04229867 0.01736778 0.06569885
v -0.04229867 0.01702300 0.06569885
v -0.04125875 0.01702300 0.06569885
v -0.04125875 0.01736778 0.06569885
v 0.03813831 0.01529640 0.06560620
v 0.03908153 0.01561081 0.06560620
v 0.03883699 0.01585534 0.06630488
v 0.03813831 0.01561081 0.06654941
v 0.03719510 0.01561081 0.06560620
v 0.03743963 0.01585534 0.06630488
v 0.03813831 0.01655402 0.06686382
v 0.03719510 0.01655402 0.06654941
v 0.03908153 0.01655402 0.06654941
v 0.03883699 0.01725270 0.06630488
v 0.03813831 0.01749723 0.06654941
v 0.03743963 0.01725270 0.06630487
v 0.03813831 0.01781164 0.06560620
v 0.03719510 0.01749723 0.06560620
v 0.03908153 0.01749723 0.06560620
v 0.03939593 0.01655402 0.06560620
v 0.03688069 0.01655402 0.06560620
v 0.03719510 0.01561081 0.06454097
v 0.03813831 0.01529640 0.06454097
v 0.03908153 0.01561081 0.06454097
v 0.03813831 0.01781164 0.06454097
v 0.03719510 0.01749723 0.06454097
v 0.03908153 0.01749723 0.06454097
v 0.03939593 0.01655402 0.06454097
v 0.03688069 0.01655402 0.06454097
v -0.05508881 -0.01477091 0.05014267
v -0.05528748 -0.01543189 0.04992106
v -0.05416339 -0.01543189 0.04835252
v -0.05390615 -0.01477091 0.04849240
v -0.05528748 -0.01543189 0.04141529
v -0.05508881 -0.01477091 0.04119368
v -0.05390615 -0.01477091 0.04271701
v -0.05416339 -0.01543189 0.04286317
v -0.06429384 -0.01477091 0.04271701
v -0.06311118 -0.01477091 0.04119368
v -0.06291252 -0.01543189 0.04141529
v -0.06403660 -0.01543189 0.04286317
v -0.06403660 -0.01543189 0.04835252
v -0.06291252 -0.01543189 0.04992106
v -0.06311118 -0.01477091 0.05014267
v -0.06429384 -0.01477091 0.04849240
v -0.06455945 -0.01543189 0.04450720
v -0.06455945 -0.01543189 0.04682915
v -0.06484393 -0.01477091 0.04688964
v -0.06484393 -0.01477091 0.04444670
v -0.06230529 -0.01513908 0.04663192
v -0.06230529 -0.01513908 0.04469066
v -0.05589470 -0.01513908 0.04469066
v -0.05589470 -0.01513908 0.04663192
v -0.05364055 -0.01543189 0.04682915
v -0.05364055 -0.01543189 0.04450720
v -0.05335607 -0.01477091 0.04444670
v -0.05335607 -0.01477091 0.04688964
v -0.06349473 -0.01513908 0.04470779
v -0.06364786 -0.01543189 0.04467353
v -0.06303941 -0.01543189 0.04338170
v -0.06290808 -0.01513908 0.04346225
v -0.06349473 -0.01513908 0.04661706
v -0.06364786 -0.01543189 0.04664678
v -0.06303180 -0.01513908 0.04776466
v -0.06316456 -0.01543189 0.04784489
v -0.05455214 -0.01543189 0.04467353
v -0.05470527 -0.01513908 0.04470779
v -0.05529191 -0.01513908 0.04346225
v -0.05516058 -0.01543189 0.04338170
v -0.05455214 -0.01543189 0.04664678
v -0.05470527 -0.01513908 0.04661706
v -0.05503544 -0.01543189 0.04784489
v -0.05516819 -0.01513908 0.04776466
v -0.05585927 -0.01543189 0.04881540
v -0.05593014 -0.01513908 0.04866227
v -0.06234073 -0.01543189 0.04881540
v -0.06226986 -0.01513908 0.04866227
v -0.05582884 -0.01543189 0.04252094
v -0.05590382 -0.01513908 0.04267408
v -0.06229618 -0.01513908 0.04267408
v -0.06237115 -0.01543189 0.04252094
v -0.04944350 0.00612155 0.06720451
v -0.05081472 0.00749277 0.06720451
v -0.05268784 0.00799467 0.06720451
v -0.05268784 0.00799467 0.06767281
v -0.05456095 0.00749277 0.06720451
v -0.05593218 0.00612155 0.06720451
v -0.05643408 0.00424843 0.06720451
v -0.05643408 0.00424843 0.06767281
v -0.05593218 0.00237531 0.06720451
v -0.05456095 0.00100409 0.06720451
v -0.05268784 0.00050219 0.06720451
v -0.05268784 0.00050219 0.06767281
v -0.05081472 0.00100409 0.06720451
v -0.04944350 0.00237531 0.06720451
v -0.04894160 0.00424843 0.06720451
v -0.04894160 0.00424843 0.06767281
v -0.05081472 0.00424843 0.06767281
v -0.05456095 0.00424843 0.06767281
v -0.05268784 0.00799467 0.07038211
v -0.05268784 0.00780959 0.07056088
v -0.05099349 0.00735559 0.07056088
v -0.05081472 0.00749277 0.07038211
v -0.05456095 0.00749277 0.07038211
v -0.05438218 0.00735559 0.07056088
v -0.05456095 0.00612089 0.07038211
v -0.05438218 0.00612085 0.07056088
v -0.05456095 0.00424843 0.07038211
v -0.05438218 0.00424843 0.07056088
v -0.05456095 0.00237827 0.07038211
v -0.05438218 0.00237848 0.07056088
v -0.05456095 0.00100409 0.07038211
v -0.05438218 0.00114127 0.07056088
v -0.05268784 0.00050219 0.07038211
v -0.05268784 0.00068727 0.07056088
v -0.05081472 0.00100409 0.07038211
v -0.05099349 0.00114127 0.07056088
v -0.05081472 0.00237856 0.07038211
v -0.05099349 0.00237874 0.07056088
v -0.05099349 0.00424843 0.07056088
v -0.05081472 0.00424843 0.07038211
v -0.05081472 0.00612089 0.07038211
v -0.05099349 0.00612085 0.07056088
v -0.05268784 0.00612085 0.07056088
v -0.05268784 0.00237861 0.07056088
v -0.05268784 0.00424843 0.07056088
v -0.03763916 0.00612155 0.06720451
v -0.03901038 0.00749277 0.06720451
v -0.04088350 0.00799467 0.06720451
v -0.04088350 0.00799467 0.06767281
v -0.04275662 0.00749277 0.06720451
v -0.04412784 0.00612155 0.06720451
v -0.04462974 0.00424843 0.06720451
v -0.04462974 0.00424843 0.06767281
v -0.04412784 0.00237531 0.06720451
v -0.04275662 0.00100409 0.06720451
v -0.04088350 0.00050219 0.06720451
v -0.04088350 0.00050219 0.06767281
v -0.03901038 0.00100409 0.06720451
v -0.03763916 0.00237531 0.06720451
v -0.03713726 0.00424843 0.06720451
v -0.03713726 0.00424843 0.06767281
v -0.03901038 0.00424843 0.06767281
v -0.04275662 0.00424843 0.06767281
v -0.04088350 0.00799467 0.07038211
v -0.04088350 0.00780959 0.07056088
v -0.03918916 0.00735559 0.07056088
v -0.03901038 0.00749277 0.07038211
v -0.04275662 0.00749277 0.07038211
v -0.04257784 0.00735559 0.07056088
v -0.04275662 0.00612089 0.07038211
v -0.04257784 0.00612085 0.07056088
v -0.04275662 0.00424843 0.07038211
v -0.04257784 0.00424843 0.07056088
v -0.04275662 0.00237827 0.07038211
v -0.04257784 0.00237848 0.07056088
v -0.04275662 0.00100409 0.07038211
v -0.04257784 0.00114127 0.07056088
v -0.04088350 0.00050219 0.07038211
v -0.04088350 0.00068727 0.07056088
v -0.03901038 0.00100409 0.07038211
v -0.03918916 0.00114127 0.07056088
v -0.03901038 0.00237856 0.07038211
v -0.03918916 0.00237874 0.07056088
v -0.03918916 0.00424843 0.07056088
v -0.03901038 0.00424843 0.07038211
v -0.03901038 0.00612089 0.07038211
v -0.03918916 0.00612085 0.07056088
v -0.04088350 0.00612085 0.07056088
v -0.04088350 0.00237861 0.07056088
v -0.04088350 0.00424843 0.07056088
v 0.03813831 0.01819909 0.06454097
v 0.03813831 0.01404459 0.06454097
v 0.03961609 0.01404459 0.06454097
v 0.03961609 0.01763076 0.06454097
v 0.03961609 0.01763076 0.06158542
v 0.03813831 0.01819909 0.06158542
v 0.03961609 0.01404459 0.06158542
v 0.03666054 0.01763076 0.06158542
v 0.03666054 0.01404459 0.06158542
v 0.03666054 0.01404459 0.06454097
v 0.03666054 0.01763076 0.06454097
v 0.05680216 -0.01477091 0.05014267
v 0.05660350 -0.01543189 0.04992106
v 0.05772758 -0.01543189 0.04835252
v 0.05798482 -0.01477091 0.04849240
v 0.05660350 -0.01543189 0.04141529
v 0.05680216 -0.01477091 0.04119368
v 0.05798482 -0.01477091 0.04271701
v 0.05772758 -0.01543189 0.04286317
v 0.04759713 -0.01477091 0.04271701
v 0.04877980 -0.01477091 0.04119368
v 0.04897846 -0.01543189 0.04141529
v 0.04785437 -0.01543189 0.04286317
v 0.04785437 -0.01543189 0.04835252
v 0.04897846 -0.01543189 0.04992106
v 0.04877980 -0.01477091 0.05014267
v 0.04759713 -0.01477091 0.04849240
v 0.04733153 -0.01543189 0.04450720
v 0.04733153 -0.01543189 0.04682915
v 0.04704704 -0.01477091 0.04688964
v 0.04704704 -0.01477091 0.04444670
v 0.04958568 -0.01513908 0.04663192
v 0.04958568 -0.01513908 0.04469066
v 0.05599627 -0.01513908 0.04469066
v 0.05599627 -0.01513908 0.04663192
v 0.05825043 -0.01543189 0.04682915
v 0.05825043 -0.01543189 0.04450720
v 0.05853491 -0.01477091 0.04444670
v 0.05853491 -0.01477091 0.04688964
v 0.04839625 -0.01513908 0.04470779
v 0.04824312 -0.01543189 0.04467353
v 0.04885156 -0.01543189 0.04338170
v 0.04898289 -0.01513908 0.04346225
v 0.04839625 -0.01513908 0.04661706
v 0.04824312 -0.01543189 0.04664678
v 0.04885917 -0.01513908 0.04776466
v 0.04872642 -0.01543189 0.04784489
v 0.05733884 -0.01543189 0.04467353
v 0.05718571 -0.01513908 0.04470779
v 0.05659906 -0.01513908 0.04346225
v 0.05673039 -0.01543189 0.04338170
v 0.05733884 -0.01543189 0.04664678
v 0.05718571 -0.01513908 0.04661706
v 0.05685554 -0.01543189 0.04784489
v 0.05672278 -0.01513908 0.04776466
v 0.05603171 -0.01543189 0.04881540
v 0.05596084 -0.01513908 0.04866227
v 0.04955025 -0.01543189 0.04881540
v 0.04962112 -0.01513908 0.04866227
v 0.05606213 -0.01543189 0.04252094
v 0.05598716 -0.01513908 0.04267408
v 0.04959480 -0.01513908 0.04267408
v 0.04951982 -0.01543189 0.04252094
v -0.02669782 -0.01473259 0.03034691
v -0.02523546 -0.01473259 0.02299516
v -0.03086225 -0.01473259 0.03657944
v -0.03709478 -0.01473259 0.04074388
v -0.04444654 -0.01473259 0.04220624
v -0.05179831 -0.01473259 0.04074389
v -0.05803084 -0.01473259 0.03657945
v -0.06219528 -0.01473259 0.03034693
v -0.06365764 -0.01473259 0.02299516
v -0.06219529 -0.01473259 0.01564339
v -0.05803084 -0.01473259 0.00941087
v -0.05179832 -0.01473259 0.00524642
v -0.04444656 -0.01473259 0.00378407
v -0.03709479 -0.01473259 0.00524642
v -0.03086226 -0.01473259 0.00941086
v -0.02669782 -0.01473259 0.01564339
v -0.02669782 -0.01477091 0.03034691
v -0.03086225 -0.01477091 0.03657944
v -0.03709478 -0.01477091 0.04074388
v -0.04444654 -0.01477091 0.04220624
v -0.05179831 -0.01477091 0.04074389
v -0.05803084 -0.01477091 0.03657945
v -0.06219528 -0.01477091 0.03034693
v -0.06365764 -0.01477091 0.02299516
v -0.06219529 -0.01477091 0.01564339
v -0.05803084 -0.01477091 0.00941087
v -0.05179832 -0.01477091 0.00524642
v -0.04444656 -0.01477091 0.00378407
v -0.03709479 -0.01477091 0.00524642
v -0.03086226 -0.01477091 0.00941086
v -0.02669782 -0.01477091 0.01564339
v -0.02523546 -0.01477091 0.02299516
v 0.01946433 -0.00640429 0.06720451
v 0.01946433 0.00101022 0.06720451
v 0.01663082 0.00598163 0.06720451
v 0.01663082 -0.00640429 0.06720451
v 0.01663082 -0.00640429 0.00000000
v 0.01663082 0.00598163 0.00000000
v 0.01946435 0.00598163 0.00000000
v 0.01946435 -0.00640429 0.00000000
v -0.06599999 -0.00640429 0.05260445
v -0.06599999 -0.00640429 0.05349646
v -0.06599999 0.00598163 0.05349646
v -0.06599999 0.00598163 0.05260445
v 0.05961098 -0.00640429 0.05349646
v 0.05961098 -0.00640429 0.05260445
v 0.05961098 0.00598163 0.05260445
v 0.05961098 0.00598163 0.05349646
v 0.01946435 0.01819908 0.05349646
v 0.01946435 0.01819908 0.05260445
v 0.01663082 0.01819908 0.05260445
v 0.01663082 0.01819908 0.05349646
v 0.01663082 0.01819908 0.06193644
v 0.01946433 0.01819908 0.06193644
v 0.05961098 -0.00640429 0.06720451
v 0.05961098 0.00598163 0.06720451
v -0.06599999 0.00598163 0.06720451
v -0.06599999 -0.00640429 0.06720451
v 0.05961098 -0.00640429 0.01148529
v 0.05961098 0.00598163 0.01148529
v 0.01946435 0.01819908 0.01148529
v 0.01663082 0.01819908 0.01148529
v -0.06599999 0.00598163 0.01148529
v -0.06599999 -0.00640429 0.01148529
v 0.01946433 -0.00640429 0.06636855
v 0.01663081 -0.00640429 0.06636855
v 0.05606144 -0.00640429 0.06636855
v 0.05835131 -0.00640429 0.05349646
v 0.05835131 -0.00640429 0.05260445
v 0.05835131 -0.00640429 0.01190327
v 0.01663081 -0.00640429 0.00083596
v 0.01946434 -0.00640429 0.00083596
v -0.06474032 -0.00640429 0.01190327
v -0.06474032 -0.00640429 0.05260445
v -0.06474032 -0.00640429 0.05349646
v -0.06245045 -0.00640429 0.06636855
v 0.01663081 -0.01185386 0.05349646
v 0.01663081 -0.01185386 0.05260444
v 0.01946434 -0.01185386 0.05260444
v 0.01946434 -0.01185386 0.05349646
v 0.01663082 -0.01184380 0.06567017
v 0.01663082 -0.01298421 0.05734434
v 0.01946429 -0.01298421 0.05734434
v 0.01946429 -0.01184380 0.06567017
v 0.01663082 -0.01477090 0.05162363
v 0.01663082 -0.01477090 0.01148528
v 0.01946435 -0.01477090 0.01148529
v 0.01946435 -0.01477090 0.05162363
v 0.01663082 -0.00689570 0.06720451
v 0.01663082 -0.01166822 0.06720451
v 0.01946433 -0.01166822 0.06720451
v 0.01946433 -0.00689570 0.06720451
v 0.05732111 -0.01166822 0.06720451
v 0.05961098 -0.01313680 0.05349646
v 0.05961098 -0.00689570 0.05349646
v 0.05732111 -0.00689570 0.06720451
v 0.05961098 -0.01185386 0.05162364
v 0.05961098 -0.01313680 0.01148529
v 0.05961098 -0.00689570 0.01148529
v 0.05961098 -0.00689570 0.05162364
v 0.01946435 -0.01313680 0.00000000
v 0.01663082 -0.01313680 0.00000000
v 0.01663082 -0.00689570 0.00000000
v 0.01946435 -0.00689570 0.00000000
v -0.06599999 -0.00689570 0.05162364
v -0.06599999 -0.00689570 0.01148529
v -0.06599999 -0.01313680 0.01148529
v -0.06599999 -0.01185386 0.05162364
v -0.06371012 -0.00689570 0.06720451
v -0.06599999 -0.00689570 0.05349646
v -0.06599999 -0.01313680 0.05349646
v -0.06371012 -0.01166822 0.06720451
v 0.01663081 -0.01305732 0.05260444
v 0.01946434 -0.01305732 0.05260444
v 0.01946434 -0.01305732 0.05349646
v 0.01946435 -0.01477090 0.05349646
v 0.01663082 -0.01477090 0.05349646
v 0.01663081 -0.01305732 0.05349646
v 0.05835131 -0.01185386 0.05260445
v 0.05835131 -0.00689570 0.05260445
v 0.05835131 -0.01185386 0.05349646
v 0.05835131 -0.00689570 0.05349646
v -0.06474032 -0.01185386 0.05349646
v -0.06474032 -0.00689570 0.05349646
v -0.06474032 -0.01185386 0.05260445
v -0.06474032 -0.00689570 0.05260445
v 0.01663081 -0.00689570 0.06636855
v 0.01946433 -0.00689570 0.06636855
v 0.05606144 -0.00689570 0.06636855
v -0.06245045 -0.00689570 0.06636855
v 0.05835131 -0.00689570 0.01190327
v 0.01946434 -0.00689570 0.00083596
v 0.01663081 -0.00689570 0.00083596
v -0.06474032 -0.00689570 0.01190327
v -0.02301989 -0.00640429 0.06720451
v -0.02301989 0.00598163 0.06720451
v -0.02301989 -0.00640429 0.06636855
v -0.02301989 -0.00689570 0.06636855
v -0.02301989 -0.00689570 0.06720451
v -0.02301989 -0.01166822 0.06720451
v -0.05665043 -0.01298421 0.05734434
v -0.02301989 -0.01298421 0.05734434
v -0.02301989 -0.01184380 0.06567017
v -0.05665042 -0.01184380 0.06567017
v -0.02301989 -0.01305732 0.05349646
v -0.02301989 -0.01477090 0.05349646
v -0.06599999 -0.01477090 0.05349646
v -0.06474032 -0.01305732 0.05349646
v -0.02301989 -0.01185386 0.05260444
v -0.02301989 -0.01185386 0.05349646
v -0.06599999 -0.01477090 0.01148529
v -0.02301989 -0.01477090 0.01148528
v -0.02301989 -0.01477090 0.05162363
v -0.06599999 -0.01477090 0.05162364
v -0.06599999 -0.00689570 0.00000000
v -0.02301989 -0.00689570 0.00000000
v -0.02301989 -0.01313680 0.00000000
v -0.06599999 -0.01313680 0.00000000
v -0.02301989 -0.00689570 0.00083596
v -0.06474032 -0.00689570 0.00083596
v -0.06474032 -0.00640429 0.00083596
v -0.02301989 -0.00640429 0.00083596
v -0.06599999 -0.00640429 0.00000000
v -0.02301989 -0.00640429 0.00000000
v -0.06599999 0.00598163 0.00000000
v -0.02301989 0.00598163 0.00000000
v -0.05499852 0.01819908 0.05260445
v -0.02301989 0.01819908 0.05260445
v -0.02301989 0.01819908 0.01148529
v -0.05499852 0.01819908 0.01148529
v -0.02301989 0.01819908 0.05349646
v -0.05499852 0.01819908 0.05330033
v -0.05499852 0.01819908 0.06193644
v -0.02301989 0.01819908 0.06193644
v 0.01285171 0.00377600 0.06536819
v -0.01924078 0.00377600 0.06536819
v -0.01924078 -0.00463096 0.06536819
v 0.01285171 -0.00463096 0.06536819
v 0.01663082 0.01819908 0.00232189
v 0.01946435 0.01819908 0.00232189
v -0.02301989 0.01819908 0.00232189
v -0.05499852 0.01819908 0.00232189
v -0.06599999 -0.01477090 0.00000000
v -0.02301989 -0.01477090 0.00000000
v 0.01663082 -0.01477090 0.00000000
v 0.01946435 -0.01477090 0.00000000
v 0.05961098 -0.01313680 0.00000000
v 0.05961098 -0.00689570 0.00000000
v 0.05835131 -0.00689570 0.00083596
v 0.05835131 -0.00640429 0.00083596
v 0.05961098 -0.00640429 0.00000000
v 0.05961098 0.00598163 0.00000000
v 0.01663082 -0.01305732 0.01312498
v -0.02301989 -0.01305732 0.01312498
v -0.02301989 -0.01305732 0.05260444
v 0.01946429 -0.01441456 0.05734434
v 0.01663082 -0.01441456 0.05734434
v 0.05961098 -0.01477090 0.05349646
v 0.05732111 -0.01291780 0.06720451
v 0.05026140 -0.01327415 0.06567017
v 0.05026142 -0.01441456 0.05734434
v 0.01946429 -0.01327415 0.06567017
v 0.01946433 -0.01291780 0.06720451
v 0.01663082 -0.01291780 0.06720451
v 0.01663082 -0.01327415 0.06567017
v -0.02301989 -0.01441456 0.05734434
v -0.05665043 -0.01441456 0.05734434
v -0.02301989 -0.01291780 0.06720451
v -0.06371012 -0.01291780 0.06720451
v -0.05665042 -0.01327415 0.06567017
v -0.02301989 -0.01327415 0.06567017
v 0.05026140 -0.01184380 0.06567017
v 0.05026142 -0.01298421 0.05734434
v -0.06599999 0.01004014 0.00000000
v -0.02301989 0.01004014 0.00000000
v 0.01663082 0.01004014 0.00000000
v 0.01946435 0.01004014 0.00000000
v 0.05961098 0.01004014 0.00000000
v 0.05961098 0.01004014 0.01148529
v 0.05961098 0.01004014 0.05260445
v 0.05961098 0.01004014 0.05349646
v 0.05961098 0.01004014 0.06720451
v 0.01946433 0.01004012 0.06720451
v 0.01663082 0.01004014 0.06720451
v -0.02301989 0.01004014 0.06720451
v -0.06599999 0.01004014 0.06720451
v -0.06599999 0.01004014 0.05349646
v -0.06599999 0.01004014 0.05260445
v -0.06599999 0.01004014 0.01148529
v -0.01924078 0.00377600 0.06720451
v 0.01285171 0.00377600 0.06720451
v -0.01924078 -0.00463096 0.06720451
v 0.01285171 -0.00463096 0.06720451
v 0.03858880 0.01819908 0.05260445
v 0.03858880 0.01819908 0.01148529
v 0.02825126 0.01819908 0.01148529
v 0.02825126 0.01819908 0.05260445
v 0.02825126 0.01819908 0.00232189
v 0.03858880 0.01819908 0.00232189
v 0.02825126 0.00598163 0.00000000
v 0.02825126 0.01004014 0.00000000
v 0.03858880 0.01004014 0.00000000
v 0.03858880 0.00598163 0.00000000
v 0.02825126 -0.00640429 0.00000000
v 0.03858880 -0.00640429 0.00000000
v 0.02825125 -0.00640429 0.00083596
v 0.03858879 -0.00640429 0.00083596
v 0.02825125 -0.00689570 0.00083596
v 0.03858879 -0.00689570 0.00083596
v 0.03858880 -0.00689570 0.00000000
v 0.02825126 -0.00689570 0.00000000
v 0.03858880 -0.01313680 0.00000000
v 0.02825126 -0.01313680 0.00000000
v 0.03858880 -0.01477090 0.00000000
v 0.03858880 -0.01477090 0.01148529
v 0.02825126 -0.01477090 0.01148529
v 0.02825126 -0.01477090 0.00000000
v 0.02825126 -0.01477090 0.05162363
v 0.03858880 -0.01477090 0.05162363
v 0.02825125 -0.01305732 0.05260444
v 0.03858879 -0.01305732 0.05260444
v 0.02825125 -0.01185386 0.05260444
v 0.03858879 -0.01185386 0.05260444
v 0.02825125 -0.01185386 0.05349646
v 0.03858879 -0.01185386 0.05349646
v 0.03858879 -0.01305732 0.05349646
v 0.02825125 -0.01305732 0.05349646
v 0.03858880 -0.01477090 0.05349646
v 0.02825126 -0.01477090 0.05349646
v 0.02825120 -0.01441456 0.05734434
v 0.03858874 -0.01441456 0.05734434
v 0.02825120 -0.01298421 0.05734434
v 0.03858874 -0.01298421 0.05734434
v 0.02825120 -0.01184380 0.06567017
v 0.03858874 -0.01184380 0.06567017
v 0.03858874 -0.01327415 0.06567017
v 0.02825120 -0.01327415 0.06567017
v 0.03858878 -0.01291780 0.06720451
v 0.02825125 -0.01291780 0.06720451
v 0.02825125 -0.00689570 0.06720451
v 0.02825125 -0.01166822 0.06720451
v 0.03858878 -0.01166822 0.06720451
v 0.03858878 -0.00689570 0.06720451
v 0.02825124 -0.00689570 0.06636855
v 0.03858877 -0.00689570 0.06636855
v 0.03858877 -0.00640429 0.06636855
v 0.02825124 -0.00640429 0.06636855
v 0.03858878 -0.00640429 0.06720451
v 0.02825125 -0.00640429 0.06720451
v 0.03858878 0.00101022 0.06720451
v 0.02825125 0.00101022 0.06720451
v 0.03584108 0.00168215 0.06590794
v 0.03584108 0.00936819 0.06590794
v 0.03107052 0.00936819 0.06590794
v 0.03107052 0.00168215 0.06590794
v 0.02825126 0.01819908 0.05349646
v 0.02825125 0.01819908 0.06193644
v 0.03858878 0.01819908 0.06193644
v 0.03858880 0.01819908 0.05349646
v 0.04871215 0.01819908 0.01148529
v 0.04784559 0.01819908 0.01148529
v 0.04784559 0.01819908 0.05260445
v 0.04871215 0.01819908 0.05260445
v 0.04784559 0.01819908 0.00232189
v 0.04871215 0.01819908 0.00232189
v 0.04784559 0.00598163 0.00000000
v 0.04784559 0.01004014 0.00000000
v 0.04784559 -0.00640429 0.00000000
v 0.04784558 -0.00640429 0.00083596
v 0.04784558 -0.00689570 0.00083596
v 0.04784559 -0.00689570 0.00000000
v 0.04784559 -0.01313680 0.00000000
v 0.05961098 -0.01477090 0.01148529
v 0.04784559 -0.01477090 0.01148529
v 0.04784559 -0.01477090 0.00000000
v 0.05961098 -0.01477090 0.00000000
v 0.04784559 -0.01477090 0.05162363
v 0.05961098 -0.01477090 0.05162364
v 0.04784558 -0.01185386 0.05349646
v 0.04784558 -0.01185386 0.05260444
v 0.05835131 -0.01305732 0.05349646
v 0.04784558 -0.01305732 0.05349646
v 0.04784559 -0.01477090 0.05349646
v 0.04784554 -0.01441456 0.05734434
v 0.04784554 -0.01298421 0.05734434
v 0.04784554 -0.01184380 0.06567017
v 0.04784554 -0.01327415 0.06567017
v 0.04784558 -0.01291780 0.06720451
v 0.04784558 -0.00689570 0.06720451
v 0.04784558 -0.01166822 0.06720451
v 0.04784557 -0.00689570 0.06636855
v 0.04784557 -0.00640429 0.06636855
v 0.04784558 -0.00640429 0.06720451
v 0.04784558 0.00101022 0.06720451
v 0.04784558 0.01004012 0.06720451
v 0.04784559 0.01819908 0.05349646
v 0.04784558 0.01819908 0.06193644
v 0.04871214 0.01819908 0.06193644
v 0.04871215 0.01819908 0.05330033
v -0.06599999 0.01404459 0.00000000
v -0.02301989 0.01404459 0.00000000
v 0.01663082 0.01404459 0.00000000
v 0.01946435 0.01404459 0.00000000
v 0.03858880 0.01404459 0.00000000
v 0.02825126 0.01404459 0.00000000
v 0.04784559 0.01404459 0.00000000
v 0.05961098 0.01404459 0.00000000
v 0.05961098 0.01404459 0.01148529
v 0.05961098 0.01404459 0.05260445
v 0.05961098 0.01404459 0.05349646
v 0.05961098 0.01404459 0.06720451
v 0.04784558 0.01404459 0.06720451
v 0.02825125 0.01404459 0.06720451
v 0.02825125 0.01004012 0.06720451
v 0.03858878 0.01004012 0.06720451
v 0.03858878 0.01404459 0.06720451
v 0.01663082 0.01404459 0.06720451
v 0.01946433 0.01404459 0.06720451
v -0.02301989 0.01404459 0.06720451
v -0.06599999 0.01404459 0.06720451
v -0.06599999 0.01404459 0.05349646
v -0.06599999 0.01404459 0.05260445
v -0.06599999 0.01404459 0.01148529
v 0.02500250 0.00168215 0.06590794
v 0.02500250 0.00936819 0.06590794
v 0.02027942 0.00936819 0.06590794
v 0.02027942 0.00168215 0.06590794
v 0.04784558 -0.01305732 0.05260444
v 0.04695891 0.00936819 0.06590794
v 0.04205226 0.00936819 0.06590794
v 0.04205226 0.00168215 0.06590794
v 0.04695891 0.00168215 0.06590794
v 0.03584108 0.00936819 0.06720451
v 0.03584108 0.00168215 0.06720451
v 0.03107052 0.00936819 0.06720451
v 0.03107052 0.00168215 0.06720451
v 0.02500250 0.00936819 0.06720451
v 0.02500250 0.00168215 0.06720451
v 0.02027942 0.00936819 0.06720451
v 0.02027942 0.00168215 0.06720451
v 0.04205226 0.00936819 0.06720451
v 0.04695891 0.00936819 0.06720451
v 0.04205226 0.00168215 0.06720451
v 0.04695891 0.00168215 0.06720451
v 0.01946433 0.01404459 0.06360595
v 0.01663082 0.01404459 0.06360595
v -0.05975778 0.01404459 0.05260445
v -0.05975778 0.01404459 0.01148529
v -0.05975778 0.01404459 0.05330033
v -0.02301989 0.01404459 0.06360595
v -0.05975777 0.01404459 0.06360595
v 0.01663082 0.01404459 0.00070477
v 0.01946435 0.01404459 0.00070477
v -0.02301989 0.01404459 0.00070477
v -0.05975778 0.01404459 0.00070477
v 0.02825126 0.01404459 0.00070477
v 0.03858880 0.01404459 0.00070477
v 0.03858878 0.01404459 0.06360595
v 0.02825125 0.01404459 0.06360595
v 0.05346382 0.01404459 0.01148529
v 0.05346382 0.01404459 0.05260445
v 0.05346382 0.01404459 0.00070477
v 0.04784559 0.01404459 0.00070477
v 0.05346381 0.01404459 0.06360595
v 0.04784558 0.01404459 0.06360595
v 0.05346382 0.01404459 0.05330033
v -0.06474032 -0.01305732 0.05260444
v 0.05835131 -0.01305732 0.05260445
v -0.02211877 -0.01477090 0.02248608
v 0.01572976 -0.01477090 0.02248608
v 0.01572976 -0.01477090 0.05162363
v -0.02211877 -0.01477090 0.05162363
v 0.01572976 -0.01299047 0.02248608
v 0.01572976 -0.01299047 0.05260444
v -0.02211877 -0.01299047 0.02248608
v -0.02211877 -0.01299047 0.05260444
v -0.01880125 -0.00446314 0.06536820
v -0.01402564 -0.00446314 0.06536820
v -0.01402564 -0.00446314 0.06954096
v -0.01880125 -0.00446314 0.06954096
v -0.01880125 -0.00405414 0.06994995
v -0.01402564 -0.00405414 0.06994995
v -0.01402564 0.00330862 0.06994995
v -0.01880125 0.00330862 0.06994995
v -0.01880125 0.00371762 0.06954096
v -0.01402564 0.00371762 0.06954096
v -0.01402564 0.00371762 0.06536820
v -0.01880125 0.00371762 0.06536820
v -0.02583482 0.00612155 0.06720451
v -0.02720605 0.00749277 0.06720451
v -0.02907916 0.00799467 0.06720451
v -0.02907916 0.00799467 0.06767281
v -0.03095228 0.00749277 0.06720451
v -0.03232350 0.00612155 0.06720451
v -0.03282540 0.00424843 0.06720451
v -0.03282540 0.00424843 0.06767281
v -0.03232350 0.00237531 0.06720451
v -0.03095228 0.00100409 0.06720451
v -0.02907916 0.00050219 0.06720451
v -0.02907916 0.00050219 0.06767281
v -0.02720605 0.00100409 0.06720451
v -0.02583482 0.00237531 0.06720451
v -0.02533293 0.00424843 0.06720451
v -0.02533293 0.00424843 0.06767281
v -0.02720605 0.00424843 0.06767281
v -0.03095228 0.00424843 0.06767281
v -0.02907916 0.00799467 0.07038211
v -0.02907916 0.00780959 0.07056088
v -0.02738482 0.00735559 0.07056088
v -0.02720605 0.00749277 0.07038211
v -0.03095228 0.00749277 0.07038211
v -0.03077350 0.00735559 0.07056088
v -0.03095228 0.00612089 0.07038211
v -0.03077350 0.00612085 0.07056088
v -0.03095228 0.00424843 0.07038211
v -0.03077350 0.00424843 0.07056088
v -0.03095228 0.00237827 0.07038211
v -0.03077350 0.00237848 0.07056088
v -0.03095228 0.00100409 0.07038211
v -0.03077350 0.00114127 0.07056088
v -0.02907916 0.00050219 0.07038211
v -0.02907916 0.00068727 0.07056088
v -0.02720605 0.00100409 0.07038211
v -0.02738482 0.00114127 0.07056088
v -0.02720605 0.00237856 0.07038211
v -0.02738482 0.00237874 0.07056088
v -0.02738482 0.00424843 0.07056088
v -0.02720605 0.00424843 0.07038211
v -0.02720605 0.00612089 0.07038211
v -0.02738482 0.00612085 0.07056088
v -0.02907916 0.00612085 0.07056088
v -0.02907916 0.00237861 0.07056088
v -0.02907916 0.00424843 0.07056088
v 0.05591286 -0.01473259 0.03034691
v 0.05737522 -0.01473259 0.02299516
v 0.05174843 -0.01473259 0.03657944
v 0.04551590 -0.01473259 0.04074388
v 0.03816414 -0.01473259 0.04220624
v 0.03081237 -0.01473259 0.04074389
v 0.02457984 -0.01473259 0.03657945
v 0.02041540 -0.01473259 0.03034693
v 0.01895304 -0.01473259 0.02299516
v 0.02041539 -0.01473259 0.01564339
v 0.02457984 -0.01473259 0.00941087
v 0.03081236 -0.01473259 0.00524642
v 0.03816413 -0.01473259 0.00378407
v 0.04551589 -0.01473259 0.00524642
v 0.05174842 -0.01473259 0.00941086
v 0.05591286 -0.01473259 0.01564339
v 0.05591286 -0.01477091 0.03034691
v 0.05174843 -0.01477091 0.03657944
v 0.04551590 -0.01477091 0.04074388
v 0.03816414 -0.01477091 0.04220624
v 0.03081237 -0.01477091 0.04074389
v 0.02457984 -0.01477091 0.03657945
v 0.02041540 -0.01477091 0.03034693
v 0.01895304 -0.01477091 0.02299516
v 0.02041539 -0.01477091 0.01564339
v 0.02457984 -0.01477091 0.00941087
v 0.03081236 -0.01477091 0.00524642
v 0.03816413 -0.01477091 0.00378407
v 0.04551589 -0.01477091 0.00524642
v 0.05174842 -0.01477091 0.00941086
v 0.05591286 -0.01477091 0.01564339
v 0.05737522 -0.01477091 0.02299516
v -0.01353821 -0.00446314 0.06536820
v -0.00876260 -0.00446314 0.06536820
v -0.00876260 -0.00446314 0.06954096
v -0.01353821 -0.00446314 0.06954096
v -0.01353821 -0.00405414 0.06994995
v -0.00876260 -0.00405414 0.06994995
v -0.00876260 0.00330862 0.06994995
v -0.01353821 0.00330862 0.06994995
v -0.01353821 0.00371762 0.06954096
v -0.00876260 0.00371762 0.06954096
v -0.00876260 0.00371762 0.06536820
v -0.01353821 0.00371762 0.06536820
v 0.06232020 -0.00121333 0.04105252
v 0.06262195 -0.00136953 0.04132307
v 0.06262195 -0.00416889 0.04057298
v 0.06232020 -0.00416889 0.04026058
v 0.06232020 0.00095028 0.04321613
v 0.06262195 0.00067973 0.04337233
v 0.06232020 0.00174222 0.04617169
v 0.06262195 0.00142982 0.04617169
v 0.06232020 0.00095028 0.04912724
v 0.06262195 0.00067973 0.04897104
v 0.06232020 -0.00121333 0.05129085
v 0.06262195 -0.00136953 0.05102031
v 0.06232020 -0.00416889 0.05208279
v 0.06262195 -0.00416889 0.05177039
v 0.06232020 -0.00712444 0.05129085
v 0.06262195 -0.00696824 0.05102031
v 0.06232020 -0.00928805 0.04912724
v 0.06262195 -0.00901751 0.04897104
v 0.06232020 -0.01007999 0.04617169
v 0.06262195 -0.00976759 0.04617169
v 0.06232020 -0.00928805 0.04321613
v 0.06262195 -0.00901751 0.04337233
v 0.06232020 -0.00712444 0.04105252
v 0.06262195 -0.00696824 0.04132307
v 0.05835131 -0.00121333 0.04105252
v 0.05835131 0.00095028 0.04321613
v 0.05835131 0.00174222 0.04617169
v 0.05835131 0.00095028 0.04912724
v 0.05835131 -0.00121333 0.05129085
v 0.05835131 -0.00416889 0.05208279
v 0.05835131 -0.00712444 0.05129085
v 0.05835131 -0.00928805 0.04912724
v 0.05835131 -0.01007999 0.04617169
v 0.05835131 -0.00928805 0.04321613
v 0.05835131 -0.00712444 0.04105252
v 0.05835131 -0.00416889 0.04026058
v 0.06262195 -0.00025243 0.04391052
v 0.06262195 -0.00190772 0.04225523
v 0.06262195 0.00035345 0.04617169
v 0.06262195 -0.00025243 0.04843286
v 0.06262195 -0.00190772 0.05008814
v 0.06262195 -0.00416889 0.05069402
v 0.06262195 -0.00643005 0.05008814
v 0.06262195 -0.00808534 0.04843286
v 0.06262195 -0.00869122 0.04617169
v 0.06262195 -0.00808534 0.04391052
v 0.06262195 -0.00643005 0.04225523
v 0.06262195 -0.00416889 0.04164935
v -0.06599999 0.00501592 0.06164072
v -0.06636755 0.00501592 0.06164072
v -0.06636755 0.00570845 0.06331263
v -0.06599999 0.00570845 0.06331263
v -0.06636755 0.00501592 0.06498454
v -0.06599999 0.00501592 0.06498454
v -0.06636755 0.00334401 0.06567707
v -0.06599999 0.00334401 0.06567707
v -0.06636755 0.00167210 0.06498454
v -0.06599999 0.00167210 0.06498454
v -0.06636755 0.00097957 0.06331263
v -0.06599999 0.00097957 0.06331263
v -0.06636755 0.00167210 0.06164072
v -0.06599999 0.00167210 0.06164072
v -0.06636755 0.00334401 0.06094819
v -0.06599999 0.00334401 0.06094819
v 0.03123884 0.00199643 0.06590794
v 0.03568439 0.00199643 0.06590794
v 0.03568439 0.00199643 0.06857498
v 0.03123884 0.00199643 0.06857498
v 0.03568439 0.00294049 0.06857498
v 0.03123884 0.00294049 0.06857498
v 0.03568439 0.00454224 0.06590794
v 0.03123884 0.00454224 0.06590794
v 0.02038123 0.00199643 0.06590794
v 0.02482678 0.00199643 0.06590794
v 0.02482678 0.00199643 0.06857498
v 0.02038123 0.00199643 0.06857498
v 0.02482678 0.00294049 0.06857498
v 0.02038123 0.00294049 0.06857498
v 0.02482678 0.00454224 0.06590794
v 0.02038123 0.00454224 0.06590794
v 0.05961098 0.00501592 0.06164072
v 0.05961098 0.00570845 0.06331263
v 0.05997854 0.00570845 0.06331263
v 0.05997854 0.00501592 0.06164072
v 0.05961098 0.00501592 0.06498454
v 0.05997854 0.00501592 0.06498454
v 0.05961098 0.00334401 0.06567707
v 0.05997854 0.00334401 0.06567707
v 0.05961098 0.00167210 0.06498454
v 0.05997854 0.00167210 0.06498454
v 0.05961098 0.00097957 0.06331263
v 0.05997854 0.00097957 0.06331263
v 0.05961098 0.00167210 0.06164072
v 0.05997854 0.00167210 0.06164072
v 0.05961098 0.00334401 0.06094819
v 0.05997854 0.00334401 0.06094819
v 0.04233931 0.00199643 0.06590794
v 0.04678486 0.00199643 0.06590794
v 0.04678486 0.00199643 0.06857498
v 0.04233931 0.00199643 0.06857498
v 0.04678486 0.00294049 0.06857498
v 0.04233931 0.00294049 0.06857498
v 0.04678486 0.00454224 0.06590794
v 0.04233931 0.00454224 0.06590794
v -0.03174410 0.01736778 0.06508372
v -0.03070419 0.01736778 0.06508372
v -0.03070419 0.01736778 0.06360595
v -0.03174410 0.01736778 0.06360595
v -0.03174410 0.01702300 0.06360595
v -0.03070419 0.01702300 0.06360595
v -0.03070419 0.01570618 0.06360595
v -0.03174410 0.01570618 0.06360595
v -0.03070419 0.01702300 0.06508372
v -0.03070419 0.01570618 0.06508372
v -0.03174410 0.01702300 0.06508372
v -0.03174410 0.01570618 0.06508372
v -0.03174410 0.01404459 0.06656150
v -0.03070419 0.01404459 0.06656150
v -0.03070419 0.01570618 0.06656150
v -0.03174410 0.01570618 0.06656150
v -0.03070419 0.01404459 0.06360595
v -0.03070419 0.01404459 0.06508372
v -0.03174410 0.01404459 0.06360595
v -0.03174410 0.01404459 0.06508372
v -0.03174410 0.01736778 0.06569885
v -0.03174410 0.01702300 0.06569885
v -0.03070419 0.01702300 0.06569885
v -0.03070419 0.01736778 0.06569885
v -0.00301213 -0.00446314 0.06536820
v 0.00176348 -0.00446314 0.06536820
v 0.00176348 -0.00446314 0.06954096
v -0.00301213 -0.00446314 0.06954096
v -0.00301213 -0.00405414 0.06994995
v 0.00176348 -0.00405414 0.06994995
v 0.00176348 0.00330862 0.06994995
v -0.00301213 0.00330862 0.06994995
v -0.00301213 0.00371762 0.06954096
v 0.00176348 0.00371762 0.06954096
v 0.00176348 0.00371762 0.06536820
v -0.00301213 0.00371762 0.06536820
v 0.00216463 -0.00446314 0.06536820
v 0.01274486 -0.00446314 0.06536820
v 0.01274486 -0.00446314 0.06954096
v 0.00216463 -0.00446314 0.06954096
v 0.00702290 -0.00273976 0.06994995
v 0.01196422 -0.00273976 0.06994995
v 0.01196422 0.00246026 0.06994995
v 0.00702290 0.00246026 0.06994995
v 0.00216463 0.00371762 0.06954096
v 0.01274486 0.00371762 0.06954096
v 0.01274486 0.00371762 0.06536820
v 0.00216463 0.00371762 0.06536820
v 0.01274486 0.00330862 0.06994995
v 0.01274486 -0.00405414 0.06994995
v 0.00216463 -0.00405414 0.06994995
v 0.00216463 0.00330862 0.06994995
v 0.01214515 -0.00293017 0.06994995
v 0.00684196 -0.00293017 0.06994995
v 0.01214515 0.00265067 0.06994995
v 0.00684196 0.00265067 0.06994995
v 0.01214515 -0.00293017 0.06888112
v 0.00684196 -0.00293017 0.06888112
v 0.01214515 0.00265067 0.06888112
v 0.00684196 0.00265067 0.06888112
v 0.01196422 -0.00273976 0.06888112
v 0.00702290 -0.00273976 0.06888112
v 0.01196422 0.00246026 0.06888112
v 0.00702290 0.00246026 0.06888112
v -0.00827517 -0.00446314 0.06536820
v -0.00349956 -0.00446314 0.06536820
v -0.00349956 -0.00446314 0.06954096
v -0.00827517 -0.00446314 0.06954096
v -0.00827517 -0.00405414 0.06994995
v -0.00349956 -0.00405414 0.06994995
v -0.00349956 0.00330862 0.06994995
v -0.00827517 0.00330862 0.06994995
v -0.00827517 0.00371762 0.06954096
v -0.00349956 0.00371762 0.06954096
v -0.00349956 0.00371762 0.06536820
v -0.00827517 0.00371762 0.06536820
f 1 2 3
f 1 3 4
f 5 6 7
f 5 7 8
f 8 7 9
f 8 9 10
f 11 12 13
f 11 13 14
f 6 15 9
f 6 9 7
f 16 17 2
f 16 2 1
f 15 13 12
f 15 12 9
f 10 9 12
f 10 12 11
f 11 14 18
f 11 18 10
f 4 3 6
f 4 6 5
f 2 15 6
f 2 6 3
f 17 13 15
f 17 15 2
f 14 13 17
f 14 17 16
f 18 14 16
f 18 16 1
f 19 20 21
f 19 21 22
f 23 24 25
f 23 25 26
f 24 27 28
f 24 28 25
f 29 30 31
f 29 31 32
f 26 25 28
f 26 28 33
f 34 19 22
f 34 22 35
f 33 28 32
f 33 32 31
f 27 29 32
f 27 32 28
f 29 27 36
f 29 36 30
f 20 23 26
f 20 26 21
f 22 21 26
f 22 26 33
f 35 22 33
f 35 33 31
f 30 34 35
f 30 35 31
f 36 19 34
f 36 34 30
f 5 8 37
f 5 37 38
f 8 10 39
f 8 39 37
f 10 18 40
f 10 40 39
f 18 1 41
f 18 41 40
f 1 4 42
f 1 42 41
f 4 5 38
f 4 38 42
f 43 44 45
f 43 45 46
f 47 43 46
f 47 46 48
f 49 47 48
f 49 48 50
f 51 49 50
f 51 50 52
f 53 51 52
f 53 52 54
f 44 53 54
f 44 54 45
f 55 56 23
f 55 23 20
f 57 55 20
f 57 20 19
f 58 57 19
f 58 19 36
f 59 58 36
f 59 36 27
f 60 59 27
f 60 27 24
f 56 60 24
f 56 24 23
f 42 38 44
f 42 44 43
f 56 55 46
f 56 46 45
f 41 42 43
f 41 43 47
f 55 57 48
f 55 48 46
f 40 41 47
f 40 47 49
f 57 58 50
f 57 50 48
f 39 40 49
f 39 49 51
f 58 59 52
f 58 52 50
f 37 39 51
f 37 51 53
f 59 60 54
f 59 54 52
f 38 37 53
f 38 53 44
f 60 56 45
f 60 45 54
f 61 62 63
f 62 64 63
f 64 65 63
f 65 66 63
f 66 67 63
f 67 68 63
f 68 69 63
f 69 61 63
f 70 71 72
f 71 73 72
f 73 74 72
f 74 75 72
f 75 76 72
f 76 77 72
f 77 78 72
f 78 70 72
f 79 80 81
f 80 82 81
f 82 83 81
f 83 84 81
f 84 85 81
f 85 86 81
f 86 87 81
f 87 79 81
f 88 89 90
f 91 92 93
f 94 95 96
f 97 98 99
f 100 101 102
f 103 104 105
f 106 107 108
f 109 110 111
f 112 113 114
f 113 115 114
f 115 116 114
f 116 117 114
f 117 118 114
f 118 119 114
f 119 120 114
f 120 121 114
f 121 122 114
f 122 123 114
f 123 124 114
f 124 125 114
f 125 126 114
f 126 127 114
f 127 128 114
f 128 112 114
f 129 130 131
f 132 133 134
f 135 136 137
f 138 139 140
f 141 142 143
f 142 144 143
f 144 145 143
f 145 146 143
f 146 147 143
f 147 148 143
f 148 149 143
f 149 150 143
f 150 151 143
f 151 152 143
f 152 153 143
f 153 154 143
f 154 155 143
f 155 156 143
f 156 157 143
f 157 141 143
f 158 159 160
f 159 161 160
f 161 162 160
f 162 163 160
f 163 164 160
f 164 165 160
f 165 166 160
f 166 167 160
f 167 168 160
f 168 169 160
f 169 170 160
f 170 158 160
f 171 172 62
f 171 62 61
f 172 173 64
f 172 64 62
f 173 174 65
f 173 65 64
f 174 175 66
f 174 66 65
f 175 176 67
f 175 67 66
f 176 177 68
f 176 68 67
f 177 178 69
f 177 69 68
f 178 171 61
f 178 61 69
f 179 180 71
f 179 71 70
f 180 181 73
f 180 73 71
f 181 182 74
f 181 74 73
f 182 183 75
f 182 75 74
f 183 184 76
f 183 76 75
f 184 185 77
f 184 77 76
f 185 186 78
f 185 78 77
f 186 179 70
f 186 70 78
f 187 188 189
f 187 189 190
f 188 191 192
f 188 192 189
f 191 193 194
f 191 194 192
f 193 195 196
f 193 196 194
f 195 197 198
f 195 198 196
f 197 199 200
f 197 200 198
f 199 201 202
f 199 202 200
f 201 187 190
f 201 190 202
f 190 189 203
f 190 203 204
f 189 192 205
f 189 205 203
f 192 194 206
f 192 206 205
f 194 196 207
f 194 207 206
f 196 198 208
f 196 208 207
f 198 200 209
f 198 209 208
f 200 202 210
f 200 210 209
f 202 190 204
f 202 204 210
f 204 203 80
f 204 80 79
f 203 205 82
f 203 82 80
f 205 206 83
f 205 83 82
f 206 207 84
f 206 84 83
f 207 208 85
f 207 85 84
f 208 209 86
f 208 86 85
f 209 210 87
f 209 87 86
f 210 204 79
f 210 79 87
f 211 212 213
f 211 213 214
f 214 213 215
f 214 215 216
f 217 218 212
f 217 212 211
f 212 218 215
f 212 215 213
f 217 211 214
f 217 214 216
f 219 220 221
f 219 221 222
f 223 224 225
f 223 225 226
f 224 227 228
f 224 228 225
f 229 223 226
f 229 226 230
f 231 232 233
f 231 233 234
f 235 225 228
f 235 228 236
f 226 225 235
f 226 235 237
f 238 230 226
f 238 226 237
f 234 230 238
f 234 238 231
f 236 228 233
f 236 233 232
f 233 228 230
f 233 230 234
f 227 229 230
f 227 230 228
f 222 221 224
f 222 224 223
f 220 227 224
f 220 224 221
f 239 240 241
f 239 241 242
f 222 223 229
f 222 229 219
f 219 229 240
f 219 240 239
f 229 227 241
f 229 241 240
f 227 220 242
f 227 242 241
f 220 219 239
f 220 239 242
f 243 244 245
f 243 245 246
f 247 243 246
f 247 246 248
f 248 246 249
f 248 249 250
f 246 245 251
f 246 251 249
f 249 251 252
f 249 252 253
f 250 249 253
f 250 253 254
f 254 253 255
f 254 255 256
f 253 252 257
f 253 257 255
f 258 257 252
f 258 252 251
f 244 258 251
f 244 251 245
f 259 247 248
f 259 248 250
f 256 259 250
f 256 250 254
f 243 247 260
f 243 260 261
f 244 243 261
f 244 261 262
f 256 255 263
f 256 263 264
f 255 257 265
f 255 265 263
f 258 244 262
f 258 262 266
f 257 258 266
f 257 266 265
f 259 256 264
f 259 264 267
f 247 259 267
f 247 267 260
f 268 269 270
f 268 270 271
f 272 273 274
f 272 274 275
f 276 277 278
f 276 278 279
f 280 281 282
f 280 282 283
f 278 277 273
f 278 273 272
f 282 281 269
f 282 269 268
f 284 285 286
f 284 286 287
f 288 289 290
f 288 290 291
f 292 293 294
f 292 294 295
f 292 295 271
f 292 271 270
f 286 285 280
f 286 280 283
f 275 274 294
f 275 294 293
f 276 279 284
f 276 284 287
f 296 297 298
f 296 298 299
f 297 296 300
f 297 300 301
f 301 300 302
f 301 302 303
f 304 305 306
f 304 306 307
f 305 304 308
f 305 308 309
f 309 308 310
f 309 310 311
f 311 310 312
f 311 312 313
f 313 312 314
f 313 314 315
f 316 317 318
f 316 318 319
f 317 316 307
f 317 307 306
f 315 314 303
f 315 303 302
f 299 298 319
f 299 319 318
f 300 296 289
f 300 289 288
f 305 309 291
f 305 291 290
f 313 291 309
f 313 309 311
f 290 317 306
f 290 306 305
f 300 288 315
f 300 315 302
f 299 318 289
f 299 289 296
f 315 288 291
f 315 291 313
f 289 318 317
f 289 317 290
f 285 284 297
f 285 297 301
f 293 292 308
f 293 308 304
f 292 270 310
f 292 310 308
f 270 269 312
f 270 312 310
f 272 275 307
f 272 307 316
f 275 293 304
f 275 304 307
f 281 280 303
f 281 303 314
f 280 285 301
f 280 301 303
f 279 278 319
f 279 319 298
f 284 279 298
f 284 298 297
f 269 281 314
f 269 314 312
f 278 272 316
f 278 316 319
f 320 321 89
f 320 89 88
f 321 322 323
f 321 323 89
f 322 324 94
f 322 94 323
f 324 325 95
f 324 95 94
f 325 326 327
f 325 327 95
f 326 328 97
f 326 97 327
f 328 329 98
f 328 98 97
f 329 330 331
f 329 331 98
f 330 332 91
f 330 91 331
f 332 333 92
f 332 92 91
f 334 320 88
f 334 88 335
f 336 335 88
f 336 88 90
f 337 327 97
f 337 97 99
f 337 96 95
f 337 95 327
f 333 334 335
f 333 335 92
f 336 93 92
f 336 92 335
f 338 339 340
f 338 340 341
f 339 338 342
f 339 342 343
f 343 342 344
f 343 344 345
f 345 344 346
f 345 346 347
f 347 346 348
f 347 348 349
f 349 348 350
f 349 350 351
f 351 350 352
f 351 352 353
f 353 352 354
f 353 354 355
f 355 354 356
f 355 356 357
f 358 359 360
f 358 360 361
f 359 358 357
f 359 357 356
f 341 340 361
f 341 361 360
f 345 362 339
f 345 339 343
f 363 349 351
f 363 351 353
f 357 363 353
f 357 353 355
f 362 361 340
f 362 340 339
f 323 94 342
f 323 342 338
f 94 96 344
f 94 344 342
f 348 99 98
f 348 98 350
f 98 331 352
f 98 352 350
f 331 91 354
f 331 354 352
f 91 93 356
f 91 356 354
f 360 90 89
f 360 89 341
f 89 323 338
f 89 338 341
f 344 96 337
f 344 337 346
f 364 362 345
f 364 345 347
f 364 358 361
f 364 361 362
f 336 90 360
f 336 360 359
f 356 93 336
f 356 336 359
f 364 363 357
f 364 357 358
f 364 347 349
f 364 349 363
f 337 99 348
f 337 348 346
f 365 366 101
f 365 101 100
f 366 367 368
f 366 368 101
f 367 369 106
f 367 106 368
f 369 370 107
f 369 107 106
f 370 371 372
f 370 372 107
f 371 373 109
f 371 109 372
f 373 374 110
f 373 110 109
f 374 375 376
f 374 376 110
f 375 377 103
f 375 103 376
f 377 378 104
f 377 104 103
f 379 365 100
f 379 100 380
f 381 380 100
f 381 100 102
f 382 372 109
f 382 109 111
f 382 108 107
f 382 107 372
f 378 379 380
f 378 380 104
f 381 105 104
f 381 104 380
f 383 384 385
f 383 385 386
f 384 383 387
f 384 387 388
f 388 387 389
f 388 389 390
f 390 389 391
f 390 391 392
f 392 391 393
f 392 393 394
f 394 393 395
f 394 395 396
f 396 395 397
f 396 397 398
f 398 397 399
f 398 399 400
f 400 399 401
f 400 401 402
f 403 404 405
f 403 405 406
f 404 403 402
f 404 402 401
f 386 385 406
f 386 406 405
f 390 407 384
f 390 384 388
f 408 394 396
f 408 396 398
f 402 408 398
f 402 398 400
f 407 406 385
f 407 385 384
f 368 106 387
f 368 387 383
f 106 108 389
f 106 389 387
f 393 111 110
f 393 110 395
f 110 376 397
f 110 397 395
f 376 103 399
f 376 399 397
f 103 105 401
f 103 401 399
f 405 102 101
f 405 101 386
f 101 368 383
f 101 383 386
f 389 108 382
f 389 382 391
f 409 407 390
f 409 390 392
f 409 403 406
f 409 406 407
f 381 102 405
f 381 405 404
f 401 105 381
f 401 381 404
f 409 408 402
f 409 402 403
f 409 392 394
f 409 394 408
f 382 111 393
f 382 393 391
f 410 411 412
f 410 412 413
f 413 414 415
f 413 415 410
f 416 414 413
f 416 413 412
f 417 418 419
f 417 419 420
f 410 415 417
f 410 417 420
f 419 411 410
f 419 410 420
f 421 422 423
f 421 423 424
f 425 426 427
f 425 427 428
f 429 430 431
f 429 431 432
f 433 434 435
f 433 435 436
f 431 430 426
f 431 426 425
f 435 434 422
f 435 422 421
f 437 438 439
f 437 439 440
f 441 442 443
f 441 443 444
f 445 446 447
f 445 447 448
f 445 448 424
f 445 424 423
f 439 438 433
f 439 433 436
f 428 427 447
f 428 447 446
f 429 432 437
f 429 437 440
f 449 450 451
f 449 451 452
f 450 449 453
f 450 453 454
f 454 453 455
f 454 455 456
f 457 458 459
f 457 459 460
f 458 457 461
f 458 461 462
f 462 461 463
f 462 463 464
f 464 463 465
f 464 465 466
f 466 465 467
f 466 467 468
f 469 470 471
f 469 471 472
f 470 469 460
f 470 460 459
f 468 467 456
f 468 456 455
f 452 451 472
f 452 472 471
f 453 449 442
f 453 442 441
f 458 462 444
f 458 444 443
f 466 444 462
f 466 462 464
f 443 470 459
f 443 459 458
f 453 441 468
f 453 468 455
f 452 471 442
f 452 442 449
f 468 441 444
f 468 444 466
f 442 471 470
f 442 470 443
f 438 437 450
f 438 450 454
f 446 445 461
f 446 461 457
f 445 423 463
f 445 463 461
f 423 422 465
f 423 465 463
f 425 428 460
f 425 460 469
f 428 446 457
f 428 457 460
f 434 433 456
f 434 456 467
f 433 438 454
f 433 454 456
f 432 431 472
f 432 472 451
f 437 432 451
f 437 451 450
f 422 434 467
f 422 467 465
f 431 425 469
f 431 469 472
f 473 112 128
f 473 128 474
f 112 473 475
f 112 475 113
f 113 475 476
f 113 476 115
f 115 476 477
f 115 477 116
f 116 477 478
f 116 478 117
f 117 478 479
f 117 479 118
f 118 479 480
f 118 480 119
f 119 480 481
f 119 481 120
f 120 481 482
f 120 482 121
f 121 482 483
f 121 483 122
f 122 483 484
f 122 484 123
f 123 484 485
f 123 485 124
f 124 485 486
f 124 486 125
f 125 486 487
f 125 487 126
f 126 487 488
f 126 488 127
f 127 488 474
f 127 474 128
f 489 490 475
f 489 475 473
f 490 491 476
f 490 476 475
f 491 492 477
f 491 477 476
f 492 493 478
f 492 478 477
f 493 494 479
f 493 479 478
f 494 495 480
f 494 480 479
f 495 496 481
f 495 481 480
f 496 497 482
f 496 482 481
f 497 498 483
f 497 483 482
f 498 499 484
f 498 484 483
f 499 500 485
f 499 485 484
f 500 501 486
f 500 486 485
f 501 502 487
f 501 487 486
f 502 503 488
f 502 488 487
f 503 504 474
f 503 474 488
f 504 489 473
f 504 473 474
f 505 506 507
f 505 507 508
f 509 510 511
f 509 511 512
f 513 514 515
f 513 515 516
f 517 518 519
f 517 519 520
f 521 522 523
f 521 523 524
f 524 525 526
f 524 526 521
f 527 517 520
f 527 520 528
f 529 515 514
f 529 514 530
f 518 531 532
f 518 532 519
f 522 533 534
f 522 534 523
f 516 535 536
f 516 536 513
f 537 505 508
f 537 508 538
f 517 527 539
f 517 539 540
f 518 517 540
f 518 540 541
f 542 531 518
f 542 518 541
f 543 509 512
f 543 512 544
f 513 536 545
f 513 545 546
f 514 513 546
f 514 546 547
f 530 514 547
f 530 547 548
f 549 550 551
f 549 551 552
f 553 554 555
f 553 555 556
f 557 558 559
f 557 559 560
f 561 562 563
f 561 563 564
f 565 566 567
f 565 567 568
f 569 570 571
f 569 571 572
f 573 574 575
f 573 575 576
f 577 578 579
f 577 579 580
f 581 582 583
f 581 583 584
f 585 557 560
f 585 560 586
f 587 588 589
f 587 589 590
f 591 569 572
f 591 572 592
f 567 566 593
f 567 593 594
f 595 583 582
f 595 582 596
f 577 580 597
f 577 597 598
f 541 540 594
f 541 594 592
f 547 546 598
f 547 598 596
f 599 561 564
f 599 564 600
f 568 567 594
f 568 594 601
f 582 581 602
f 582 602 596
f 540 539 601
f 540 601 594
f 600 537 538
f 600 538 599
f 548 547 596
f 548 596 602
f 572 571 603
f 572 603 592
f 604 576 575
f 604 575 605
f 606 578 577
f 606 577 598
f 546 545 606
f 546 606 598
f 605 543 544
f 605 544 604
f 603 542 541
f 603 541 592
f 530 607 608
f 530 608 529
f 609 607 530
f 609 530 548
f 610 609 548
f 610 548 602
f 581 611 610
f 581 610 602
f 584 612 611
f 584 611 581
f 613 614 615
f 613 615 616
f 617 618 619
f 617 619 620
f 595 597 621
f 595 621 622
f 623 624 625
f 623 625 626
f 627 628 629
f 627 629 630
f 631 628 627
f 631 627 632
f 633 634 631
f 633 631 632
f 635 636 634
f 635 634 633
f 637 638 636
f 637 636 635
f 639 640 641
f 639 641 642
f 643 640 639
f 643 639 644
f 645 646 643
f 645 643 644
f 647 648 649
f 647 649 650
f 538 508 607
f 538 607 609
f 599 538 609
f 599 609 610
f 610 611 561
f 610 561 599
f 611 612 562
f 611 562 561
f 615 614 554
f 615 554 553
f 590 589 618
f 590 618 617
f 622 621 550
f 622 550 549
f 574 629 628
f 574 628 575
f 605 575 628
f 605 628 631
f 631 634 543
f 631 543 605
f 634 636 509
f 634 509 543
f 636 638 510
f 636 510 509
f 534 641 640
f 534 640 523
f 524 523 640
f 524 640 643
f 643 646 525
f 643 525 524
f 651 534 533
f 651 533 652
f 653 641 534
f 653 534 651
f 642 641 653
f 642 653 654
f 535 637 635
f 535 635 536
f 545 536 635
f 545 635 633
f 606 545 633
f 606 633 632
f 627 578 606
f 627 606 632
f 630 579 578
f 630 578 627
f 655 656 624
f 655 624 623
f 657 558 624
f 657 624 656
f 658 559 558
f 658 558 657
f 570 659 660
f 570 660 571
f 603 571 660
f 603 660 661
f 662 542 603
f 662 603 661
f 663 531 542
f 663 542 662
f 664 532 531
f 664 531 663
f 558 557 585
f 558 585 665
f 625 624 666
f 625 666 667
f 624 558 665
f 624 665 666
f 666 665 585
f 666 585 667
f 589 588 668
f 589 668 669
f 670 671 672
f 670 672 673
f 674 675 676
f 674 676 677
f 619 618 678
f 619 678 679
f 680 681 682
f 680 682 683
f 681 619 679
f 681 679 682
f 618 589 669
f 618 669 678
f 676 680 683
f 676 683 677
f 585 586 551
f 585 551 550
f 552 587 590
f 552 590 549
f 617 620 595
f 617 595 622
f 667 585 550
f 667 550 621
f 590 617 622
f 590 622 549
f 669 668 555
f 669 555 554
f 673 672 684
f 673 684 685
f 556 674 677
f 556 677 553
f 679 678 614
f 679 614 613
f 683 682 616
f 683 616 615
f 682 679 613
f 682 613 616
f 678 669 554
f 678 554 614
f 677 683 615
f 677 615 553
f 686 687 638
f 686 638 637
f 510 638 687
f 510 687 688
f 688 689 511
f 688 511 510
f 690 691 532
f 690 532 664
f 519 532 691
f 519 691 692
f 520 519 692
f 520 692 693
f 528 520 693
f 528 693 694
f 695 696 507
f 695 507 506
f 696 697 608
f 696 608 507
f 529 608 697
f 529 697 698
f 698 699 515
f 698 515 529
f 516 515 699
f 516 699 700
f 700 701 535
f 700 535 516
f 701 686 637
f 701 637 535
f 507 608 702
f 507 702 703
f 608 607 704
f 608 704 702
f 607 508 705
f 607 705 704
f 508 507 703
f 508 703 705
f 703 702 648
f 703 648 647
f 702 704 649
f 702 649 648
f 704 705 650
f 704 650 649
f 705 703 647
f 705 647 650
f 706 707 708
f 706 708 709
f 710 708 707
f 710 707 711
f 712 713 714
f 712 714 715
f 716 712 715
f 716 715 717
f 718 716 717
f 718 717 719
f 720 718 719
f 720 719 721
f 721 722 723
f 721 723 720
f 724 725 723
f 724 723 722
f 726 727 728
f 726 728 729
f 730 728 727
f 730 727 731
f 732 730 731
f 732 731 733
f 734 732 733
f 734 733 735
f 736 734 735
f 736 735 737
f 737 738 739
f 737 739 736
f 738 740 741
f 738 741 739
f 742 741 740
f 742 740 743
f 744 742 743
f 744 743 745
f 746 744 745
f 746 745 747
f 747 748 749
f 747 749 746
f 748 750 751
f 748 751 749
f 752 753 754
f 752 754 755
f 756 752 755
f 756 755 757
f 757 758 759
f 757 759 756
f 758 760 761
f 758 761 759
f 760 762 763
f 760 763 761
f 764 765 766
f 764 766 767
f 768 769 770
f 768 770 771
f 771 706 709
f 771 709 768
f 772 773 774
f 772 774 775
f 776 773 772
f 776 772 777
f 664 778 779
f 664 779 690
f 780 778 664
f 780 664 663
f 781 780 663
f 781 663 662
f 782 781 662
f 782 662 661
f 660 783 782
f 660 782 661
f 659 784 783
f 659 783 660
f 785 786 787
f 785 787 788
f 789 786 785
f 789 785 790
f 791 792 591
f 791 591 593
f 793 794 791
f 793 791 593
f 670 795 794
f 670 794 793
f 796 795 670
f 796 670 673
f 797 796 673
f 797 673 685
f 798 797 685
f 798 685 684
f 672 799 798
f 672 798 684
f 671 800 799
f 671 799 672
f 801 802 565
f 801 565 568
f 803 801 568
f 803 568 601
f 539 804 803
f 539 803 601
f 527 805 804
f 527 804 539
f 528 806 805
f 528 805 527
f 694 807 806
f 694 806 528
f 808 809 810
f 808 810 811
f 811 775 774
f 811 774 808
f 812 813 687
f 812 687 686
f 688 687 813
f 688 813 814
f 815 689 688
f 815 688 814
f 816 714 713
f 816 713 817
f 690 779 818
f 690 818 819
f 820 691 690
f 820 690 819
f 692 691 820
f 692 820 821
f 693 692 821
f 693 821 822
f 694 693 822
f 694 822 823
f 824 807 694
f 824 694 823
f 825 826 827
f 825 827 828
f 829 696 695
f 829 695 830
f 831 697 696
f 831 696 829
f 698 697 831
f 698 831 832
f 833 699 698
f 833 698 832
f 700 699 833
f 700 833 834
f 835 701 700
f 835 700 834
f 812 686 701
f 812 701 835
f 652 533 708
f 652 708 710
f 709 708 533
f 709 533 522
f 768 709 522
f 768 522 521
f 521 526 769
f 521 769 768
f 830 695 826
f 830 826 825
f 836 837 838
f 836 838 839
f 761 763 506
f 761 506 505
f 759 761 505
f 759 505 537
f 756 759 537
f 756 537 600
f 600 564 752
f 600 752 756
f 564 563 753
f 564 753 752
f 749 751 675
f 749 675 674
f 746 749 674
f 746 674 556
f 556 555 744
f 556 744 746
f 555 668 742
f 555 742 744
f 668 588 741
f 668 741 742
f 739 741 588
f 739 588 587
f 736 739 587
f 736 587 552
f 552 551 734
f 552 734 736
f 551 586 732
f 551 732 734
f 586 560 730
f 586 730 732
f 560 559 728
f 560 728 730
f 729 728 559
f 729 559 658
f 725 573 576
f 725 576 723
f 720 723 576
f 720 576 604
f 604 544 718
f 604 718 720
f 544 512 716
f 544 716 718
f 512 511 712
f 512 712 716
f 689 713 712
f 689 712 511
f 817 713 689
f 817 689 815
f 774 773 707
f 774 707 706
f 711 707 773
f 711 773 776
f 818 779 714
f 818 714 816
f 715 714 779
f 715 779 778
f 717 715 778
f 717 778 780
f 719 717 780
f 719 780 781
f 721 719 781
f 721 781 782
f 782 783 722
f 782 722 721
f 784 724 722
f 784 722 783
f 787 786 727
f 787 727 726
f 731 727 786
f 731 786 789
f 733 731 789
f 733 789 840
f 735 733 840
f 735 840 792
f 737 735 792
f 737 792 791
f 791 794 738
f 791 738 737
f 794 795 740
f 794 740 738
f 743 740 795
f 743 795 796
f 745 743 796
f 745 796 797
f 747 745 797
f 747 797 798
f 798 799 748
f 798 748 747
f 799 800 750
f 799 750 748
f 755 754 802
f 755 802 801
f 757 755 801
f 757 801 803
f 803 804 758
f 803 758 757
f 804 805 760
f 804 760 758
f 805 806 762
f 805 762 760
f 841 842 843
f 841 843 844
f 828 827 807
f 828 807 824
f 771 770 809
f 771 809 808
f 808 774 706
f 808 706 771
f 762 827 845
f 762 845 846
f 827 826 847
f 827 847 845
f 826 763 848
f 826 848 847
f 763 762 846
f 763 846 848
f 763 826 849
f 763 849 850
f 826 695 851
f 826 851 849
f 695 506 852
f 695 852 851
f 506 763 850
f 506 850 852
f 807 827 853
f 807 853 854
f 827 762 855
f 827 855 853
f 762 806 856
f 762 856 855
f 806 807 854
f 806 854 856
f 846 845 765
f 846 765 764
f 845 847 766
f 845 766 765
f 847 848 767
f 847 767 766
f 848 846 764
f 848 764 767
f 850 849 837
f 850 837 836
f 849 851 838
f 849 838 837
f 851 852 839
f 851 839 838
f 852 850 836
f 852 836 839
f 854 853 842
f 854 842 841
f 853 855 843
f 853 843 842
f 855 856 844
f 855 844 843
f 856 854 841
f 856 841 844
f 829 830 857
f 829 857 858
f 835 834 859
f 835 859 860
f 834 833 861
f 834 861 859
f 832 831 862
f 832 862 863
f 833 832 863
f 833 863 861
f 831 829 858
f 831 858 862
f 815 814 864
f 815 864 865
f 814 813 866
f 814 866 864
f 813 812 867
f 813 867 866
f 812 835 860
f 812 860 867
f 816 817 868
f 816 868 869
f 825 828 870
f 825 870 871
f 821 820 872
f 821 872 873
f 820 819 874
f 820 874 872
f 819 818 875
f 819 875 874
f 824 823 876
f 824 876 877
f 823 822 878
f 823 878 876
f 822 821 873
f 822 873 878
f 817 815 865
f 817 865 868
f 830 825 871
f 830 871 857
f 818 816 869
f 818 869 875
f 828 824 877
f 828 877 870
f 858 857 526
f 858 526 525
f 860 859 639
f 860 639 642
f 859 861 644
f 859 644 639
f 863 862 646
f 863 646 645
f 861 863 645
f 861 645 644
f 862 858 525
f 862 525 646
f 865 864 651
f 865 651 652
f 864 866 653
f 864 653 651
f 866 867 654
f 866 654 653
f 867 860 642
f 867 642 654
f 869 868 710
f 869 710 711
f 871 870 770
f 871 770 769
f 873 872 772
f 873 772 775
f 872 874 777
f 872 777 772
f 874 875 776
f 874 776 777
f 877 876 810
f 877 810 809
f 876 878 811
f 876 811 810
f 878 873 775
f 878 775 811
f 868 865 652
f 868 652 710
f 857 871 769
f 857 769 526
f 875 869 711
f 875 711 776
f 870 877 809
f 870 809 770
f 785 570 569
f 785 569 790
f 788 659 570
f 788 570 785
f 787 784 659
f 787 659 788
f 726 724 784
f 726 784 787
f 729 725 724
f 729 724 726
f 658 573 725
f 658 725 729
f 657 574 573
f 657 573 658
f 656 629 574
f 656 574 657
f 630 629 656
f 630 656 655
f 623 579 630
f 623 630 655
f 580 579 623
f 580 623 626
f 619 583 595
f 619 595 620
f 584 583 619
f 584 619 681
f 681 680 612
f 681 612 584
f 562 612 680
f 562 680 676
f 563 562 676
f 563 676 675
f 753 563 675
f 753 675 751
f 754 753 751
f 754 751 750
f 802 754 750
f 802 750 800
f 565 802 800
f 565 800 671
f 670 566 565
f 670 565 671
f 593 566 670
f 593 670 793
f 594 593 591
f 594 591 592
f 598 597 595
f 598 595 596
f 626 625 667
f 626 667 879
f 597 580 626
f 597 626 879
f 621 597 879
f 621 879 667
f 789 790 880
f 789 880 840
f 569 591 880
f 569 880 790
f 591 792 840
f 591 840 880
f 881 882 883
f 881 883 884
f 885 886 883
f 885 883 882
f 887 885 882
f 887 882 881
f 884 888 887
f 884 887 881
f 886 888 884
f 886 884 883
f 889 890 891
f 889 891 892
f 893 894 895
f 893 895 896
f 897 898 899
f 897 899 900
f 891 898 895
f 891 895 894
f 900 889 892
f 900 892 897
f 893 892 891
f 893 891 894
f 897 896 895
f 897 895 898
f 890 899 898
f 890 898 891
f 897 892 893
f 897 893 896
f 901 902 130
f 901 130 129
f 902 903 904
f 902 904 130
f 903 905 135
f 903 135 904
f 905 906 136
f 905 136 135
f 906 907 908
f 906 908 136
f 907 909 138
f 907 138 908
f 909 910 139
f 909 139 138
f 910 911 912
f 910 912 139
f 911 913 132
f 911 132 912
f 913 914 133
f 913 133 132
f 915 901 129
f 915 129 916
f 917 916 129
f 917 129 131
f 918 908 138
f 918 138 140
f 918 137 136
f 918 136 908
f 914 915 916
f 914 916 133
f 917 134 133
f 917 133 916
f 919 920 921
f 919 921 922
f 920 919 923
f 920 923 924
f 924 923 925
f 924 925 926
f 926 925 927
f 926 927 928
f 928 927 929
f 928 929 930
f 930 929 931
f 930 931 932
f 932 931 933
f 932 933 934
f 934 933 935
f 934 935 936
f 936 935 937
f 936 937 938
f 939 940 941
f 939 941 942
f 940 939 938
f 940 938 937
f 922 921 942
f 922 942 941
f 926 943 920
f 926 920 924
f 944 930 932
f 944 932 934
f 938 944 934
f 938 934 936
f 943 942 921
f 943 921 920
f 904 135 923
f 904 923 919
f 135 137 925
f 135 925 923
f 929 140 139
f 929 139 931
f 139 912 933
f 139 933 931
f 912 132 935
f 912 935 933
f 132 134 937
f 132 937 935
f 941 131 130
f 941 130 922
f 130 904 919
f 130 919 922
f 925 137 918
f 925 918 927
f 945 943 926
f 945 926 928
f 945 939 942
f 945 942 943
f 917 131 941
f 917 941 940
f 937 134 917
f 937 917 940
f 945 944 938
f 945 938 939
f 945 928 930
f 945 930 944
f 918 140 929
f 918 929 927
f 946 141 157
f 946 157 947
f 141 946 948
f 141 948 142
f 142 948 949
f 142 949 144
f 144 949 950
f 144 950 145
f 145 950 951
f 145 951 146
f 146 951 952
f 146 952 147
f 147 952 953
f 147 953 148
f 148 953 954
f 148 954 149
f 149 954 955
f 149 955 150
f 150 955 956
f 150 956 151
f 151 956 957
f 151 957 152
f 152 957 958
f 152 958 153
f 153 958 959
f 153 959 154
f 154 959 960
f 154 960 155
f 155 960 961
f 155 961 156
f 156 961 947
f 156 947 157
f 962 963 948
f 962 948 946
f 963 964 949
f 963 949 948
f 964 965 950
f 964 950 949
f 965 966 951
f 965 951 950
f 966 967 952
f 966 952 951
f 967 968 953
f 967 953 952
f 968 969 954
f 968 954 953
f 969 970 955
f 969 955 954
f 970 971 956
f 970 956 955
f 971 972 957
f 971 957 956
f 972 973 958
f 972 958 957
f 973 974 959
f 973 959 958
f 974 975 960
f 974 960 959
f 975 976 961
f 975 961 960
f 976 977 947
f 976 947 961
f 977 962 946
f 977 946 947
f 978 979 980
f 978 980 981
f 982 983 984
f 982 984 985
f 986 987 988
f 986 988 989
f 980 987 984
f 980 984 983
f 989 978 981
f 989 981 986
f 982 981 980
f 982 980 983
f 986 985 984
f 986 984 987
f 979 988 987
f 979 987 980
f 986 981 982
f 986 982 985
f 990 991 992
f 990 992 993
f 991 990 994
f 991 994 995
f 995 994 996
f 995 996 997
f 997 996 998
f 997 998 999
f 999 998 1000
f 999 1000 1001
f 1001 1000 1002
f 1001 1002 1003
f 1003 1002 1004
f 1003 1004 1005
f 1005 1004 1006
f 1005 1006 1007
f 1007 1006 1008
f 1007 1008 1009
f 1009 1008 1010
f 1009 1010 1011
f 1011 1010 1012
f 1011 1012 1013
f 1013 1012 993
f 1013 993 992
f 1014 1015 994
f 1014 994 990
f 1015 1016 996
f 1015 996 994
f 1016 1017 998
f 1016 998 996
f 1017 1018 1000
f 1017 1000 998
f 1018 1019 1002
f 1018 1002 1000
f 1019 1020 1004
f 1019 1004 1002
f 1020 1021 1006
f 1020 1006 1004
f 1021 1022 1008
f 1021 1008 1006
f 1022 1023 1010
f 1022 1010 1008
f 1023 1024 1012
f 1023 1012 1010
f 1024 1025 993
f 1024 993 1012
f 1025 1014 990
f 1025 990 993
f 991 995 1026
f 991 1026 1027
f 995 997 1028
f 995 1028 1026
f 997 999 1029
f 997 1029 1028
f 999 1001 1030
f 999 1030 1029
f 1001 1003 1031
f 1001 1031 1030
f 1003 1005 1032
f 1003 1032 1031
f 1005 1007 1033
f 1005 1033 1032
f 1007 1009 1034
f 1007 1034 1033
f 1009 1011 1035
f 1009 1035 1034
f 1011 1013 1036
f 1011 1036 1035
f 1013 992 1037
f 1013 1037 1036
f 992 991 1027
f 992 1027 1037
f 1027 1026 159
f 1027 159 158
f 1026 1028 161
f 1026 161 159
f 1028 1029 162
f 1028 162 161
f 1029 1030 163
f 1029 163 162
f 1030 1031 164
f 1030 164 163
f 1031 1032 165
f 1031 165 164
f 1032 1033 166
f 1032 166 165
f 1033 1034 167
f 1033 167 166
f 1034 1035 168
f 1034 168 167
f 1035 1036 169
f 1035 169 168
f 1036 1037 170
f 1036 170 169
f 1037 1027 158
f 1037 158 170
f 1038 1039 1040
f 1038 1040 1041
f 1041 1040 1042
f 1041 1042 1043
f 1043 1042 1044
f 1043 1044 1045
f 1045 1044 1046
f 1045 1046 1047
f 1047 1046 1048
f 1047 1048 1049
f 1049 1048 1050
f 1049 1050 1051
f 1051 1050 1052
f 1051 1052 1053
f 1053 1052 1039
f 1053 1039 1038
f 1054 1055 1056
f 1054 1056 1057
f 1057 1056 1058
f 1057 1058 1059
f 1059 1058 1060
f 1059 1060 1061
f 1055 1060 1058
f 1055 1058 1056
f 1061 1054 1057
f 1061 1057 1059
f 1062 1063 1064
f 1062 1064 1065
f 1065 1064 1066
f 1065 1066 1067
f 1067 1066 1068
f 1067 1068 1069
f 1063 1068 1066
f 1063 1066 1064
f 1069 1062 1065
f 1069 1065 1067
f 1070 1071 1072
f 1070 1072 1073
f 1071 1074 1075
f 1071 1075 1072
f 1074 1076 1077
f 1074 1077 1075
f 1076 1078 1079
f 1076 1079 1077
f 1078 1080 1081
f 1078 1081 1079
f 1080 1082 1083
f 1080 1083 1081
f 1082 1084 1085
f 1082 1085 1083
f 1084 1070 1073
f 1084 1073 1085
f 1086 1087 1088
f 1086 1088 1089
f 1089 1088 1090
f 1089 1090 1091
f 1091 1090 1092
f 1091 1092 1093
f 1087 1092 1090
f 1087 1090 1088
f 1093 1086 1089
f 1093 1089 1091
f 1094 1095 1096
f 1094 1096 1097
f 1098 1099 1100
f 1098 1100 1101
f 1099 1102 1103
f 1099 1103 1100
f 1104 1098 1101
f 1104 1101 1105
f 1106 1107 1108
f 1106 1108 1109
f 1110 1100 1103
f 1110 1103 1111
f 1101 1100 1110
f 1101 1110 1112
f 1113 1105 1101
f 1113 1101 1112
f 1109 1105 1113
f 1109 1113 1106
f 1111 1103 1108
f 1111 1108 1107
f 1108 1103 1105
f 1108 1105 1109
f 1102 1104 1105
f 1102 1105 1103
f 1097 1096 1099
f 1097 1099 1098
f 1095 1102 1099
f 1095 1099 1096
f 1114 1115 1116
f 1114 1116 1117
f 1097 1098 1104
f 1097 1104 1094
f 1094 1104 1115
f 1094 1115 1114
f 1104 1102 1116
f 1104 1116 1115
f 1102 1095 1117
f 1102 1117 1116
f 1095 1094 1114
f 1095 1114 1117
f 1118 1119 1120
f 1118 1120 1121
f 1122 1123 1124
f 1122 1124 1125
f 1126 1127 1128
f 1126 1128 1129
f 1120 1127 1124
f 1120 1124 1123
f 1129 1118 1121
f 1129 1121 1126
f 1122 1121 1120
f 1122 1120 1123
f 1126 1125 1124
f 1126 1124 1127
f 1119 1128 1127
f 1119 1127 1120
f 1126 1121 1122
f 1126 1122 1125
f 1130 1131 1132
f 1130 1132 1133
f 1134 1135 1136
f 1134 1136 1137
f 1138 1139 1140
f 1138 1140 1141
f 1132 1139 1142
f 1132 1142 1143
f 1141 1130 1133
f 1141 1133 1138
f 1144 1133 1132
f 1144 1132 1143
f 1138 1145 1142
f 1138 1142 1139
f 1131 1140 1139
f 1131 1139 1132
f 1138 1133 1144
f 1138 1144 1145
f 1144 1143 1146
f 1144 1146 1147
f 1143 1142 1148
f 1143 1148 1146
f 1142 1145 1149
f 1142 1149 1148
f 1145 1144 1147
f 1145 1147 1149
f 1147 1146 1150
f 1147 1150 1151
f 1146 1148 1152
f 1146 1152 1150
f 1148 1149 1153
f 1148 1153 1152
f 1149 1147 1151
f 1149 1151 1153
f 1151 1150 1154
f 1151 1154 1155
f 1150 1152 1156
f 1150 1156 1154
f 1152 1153 1157
f 1152 1157 1156
f 1153 1151 1155
f 1153 1155 1157
f 1155 1154 1135
f 1155 1135 1134
f 1154 1156 1136
f 1154 1136 1135
f 1156 1157 1137
f 1156 1137 1136
f 1157 1155 1134
f 1157 1134 1137
f 1158 1159 1160
f 1158 1160 1161
f 1162 1163 1164
f 1162 1164 1165
f 1166 1167 1168
f 1166 1168 1169
f 1160 1167 1164
f 1160 1164 1163
f 1169 1158 1161
f 1169 1161 1166
f 1162 1161 1160
f 1162 1160 1163
f 1166 1165 1164
f 1166 1164 1167
f 1159 1168 1167
f 1159 1167 1160
f 1166 1161 1162
f 1166 1162 1165
f 4 3 2
f 2 1 4
f 8 7 6
f 6 5 8
f 10 9 7
f 7 8 10
f 14 13 12
f 12 11 14
f 7 9 15
f 15 6 7
f 1 2 17
f 17 16 1
f 11 12 9
f 9 10 11
f 10 18 14
f 14 11 10
f 5 6 3
f 3 4 5
f 3 6 15
f 15 2 3
f 16 17 13
f 13 14 16
f 1 16 14
f 14 18 1
f 22 21 20
f 20 19 22
f 26 25 24
f 24 23 26
f 25 28 27
f 27 24 25
f 32 31 30
f 30 29 32
f 33 28 25
f 25 26 33
f 35 22 19
f 19 34 35
f 31 32 28
f 28 33 31
f 28 32 29
f 29 27 28
f 30 36 27
f 27 29 30
f 21 26 23
f 23 20 21
f 33 26 21
f 21 22 33
f 31 33 22
f 22 35 31
f 31 35 34
f 34 30 31
f 30 34 19
f 19 36 30
f 38 37 8
f 8 5 38
f 37 39 10
f 10 8 37
f 41 42 4
f 4 1 41
f 42 38 5
f 5 4 42
f 46 45 44
f 44 43 46
f 48 46 43
f 43 47 48
f 54 52 51
f 51 53 54
f 45 54 53
f 53 44 45
f 20 23 56
f 56 55 20
f 19 20 55
f 55 57 19
f 24 27 59
f 59 60 24
f 23 24 60
f 60 56 23
f 43 44 38
f 38 42 43
f 47 43 42
f 42 41 47
f 53 51 39
f 39 37 53
f 52 54 60
f 60 59 52
f 44 53 37
f 37 38 44
f 54 45 56
f 56 60 54
f 112 114 113
f 113 114 115
f 115 114 116
f 116 114 117
f 117 114 118
f 118 114 119
f 119 114 120
f 120 114 121
f 121 114 122
f 122 114 123
f 123 114 124
f 124 114 125
f 125 114 126
f 126 114 127
f 127 114 128
f 128 114 112
f 141 143 142
f 142 143 144
f 144 143 145
f 145 143 146
f 146 143 147
f 147 143 148
f 148 143 149
f 149 143 150
f 150 143 151
f 151 143 152
f 152 143 153
f 153 143 154
f 154 143 155
f 155 143 156
f 156 143 157
f 157 143 141
f 158 160 159
f 159 160 161
f 161 160 162
f 162 160 163
f 158 170 169
f 169 160 158
f 168 160 169
f 61 62 172
f 172 171 61
f 62 64 173
f 173 172 62
f 64 65 174
f 174 173 64
f 65 66 175
f 175 174 65
f 66 67 176
f 176 175 66
f 67 68 177
f 177 176 67
f 68 69 178
f 178 177 68
f 69 61 171
f 171 178 69
f 70 71 180
f 180 179 70
f 71 73 181
f 181 180 71
f 73 74 182
f 182 181 73
f 74 75 183
f 183 182 74
f 75 76 184
f 184 183 75
f 76 77 185
f 185 184 76
f 77 78 186
f 186 185 77
f 78 70 179
f 179 186 78
f 190 189 188
f 188 187 190
f 189 192 191
f 191 188 189
f 192 194 193
f 193 191 192
f 194 196 195
f 195 193 194
f 196 198 197
f 197 195 196
f 198 200 199
f 199 197 198
f 200 202 201
f 201 199 200
f 202 190 187
f 187 201 202
f 204 203 189
f 189 190 204
f 203 205 192
f 192 189 203
f 205 206 194
f 194 192 205
f 206 207 196
f 196 194 206
f 207 208 198
f 198 196 207
f 208 209 200
f 200 198 208
f 209 210 202
f 202 200 209
f 210 204 190
f 190 202 210
f 79 80 203
f 203 204 79
f 80 82 205
f 205 203 80
f 82 83 206
f 206 205 82
f 83 84 207
f 207 206 83
f 84 85 208
f 208 207 84
f 85 86 209
f 209 208 85
f 86 87 210
f 210 209 86
f 87 79 204
f 204 210 87
f 214 213 212
f 212 211 214
f 216 215 213
f 213 214 216
f 211 212 218
f 218 217 211
f 213 215 218
f 218 212 213
f 216 214 211
f 211 217 216
f 234 233 232
f 232 231 234
f 234 230 228
f 228 233 234
f 228 230 229
f 229 227 228
f 242 241 240
f 240 239 242
f 240 241 227
f 227 229 240
f 246 245 244
f 244 243 246
f 248 246 243
f 243 247 248
f 250 249 246
f 246 248 250
f 249 251 245
f 245 246 249
f 253 252 251
f 251 249 253
f 254 253 249
f 249 250 254
f 256 255 253
f 253 254 256
f 255 257 252
f 252 253 255
f 251 252 257
f 257 258 251
f 245 251 258
f 258 244 245
f 250 248 247
f 247 259 250
f 254 250 259
f 259 256 254
f 261 260 247
f 247 243 261
f 262 261 243
f 243 244 262
f 264 263 255
f 255 256 264
f 263 265 257
f 257 255 263
f 266 262 244
f 244 258 266
f 265 266 258
f 258 257 265
f 267 264 256
f 256 259 267
f 260 267 259
f 259 247 260
f 271 270 269
f 269 268 271
f 275 274 273
f 273 272 275
f 279 278 277
f 277 276 279
f 283 282 281
f 281 280 283
f 272 273 277
f 277 278 272
f 268 269 281
f 281 282 268
f 287 286 285
f 285 284 287
f 295 294 293
f 293 292 295
f 270 271 295
f 295 292 270
f 283 280 285
f 285 286 283
f 293 294 274
f 274 275 293
f 287 284 279
f 279 276 287
f 299 298 297
f 297 296 299
f 301 300 296
f 296 297 301
f 303 302 300
f 300 301 303
f 307 306 305
f 305 304 307
f 309 308 304
f 304 305 309
f 311 310 308
f 308 309 311
f 313 312 310
f 310 311 313
f 315 314 312
f 312 313 315
f 319 318 317
f 317 316 319
f 306 307 316
f 316 317 306
f 302 303 314
f 314 315 302
f 318 319 298
f 298 299 318
f 288 289 296
f 296 300 288
f 290 291 309
f 309 305 290
f 311 309 291
f 291 313 311
f 305 306 317
f 317 290 305
f 302 315 288
f 288 300 302
f 296 289 318
f 318 299 296
f 301 297 284
f 284 285 301
f 304 308 292
f 292 293 304
f 308 310 270
f 270 292 308
f 310 312 269
f 269 270 310
f 316 307 275
f 275 272 316
f 307 304 293
f 293 275 307
f 303 301 285
f 285 280 303
f 298 319 278
f 278 279 298
f 297 298 279
f 279 284 297
f 319 316 272
f 272 278 319
f 88 89 321
f 321 320 88
f 89 323 322
f 322 321 89
f 323 94 324
f 324 322 323
f 94 95 325
f 325 324 94
f 95 327 326
f 326 325 95
f 327 97 328
f 328 326 327
f 97 98 329
f 329 328 97
f 98 331 330
f 330 329 98
f 331 91 332
f 332 330 331
f 91 92 333
f 333 332 91
f 335 88 320
f 320 334 335
f 92 335 334
f 334 333 92
f 341 340 339
f 339 338 341
f 343 342 338
f 338 339 343
f 345 344 342
f 342 343 345
f 347 346 344
f 344 345 347
f 349 348 346
f 346 347 349
f 351 350 348
f 348 349 351
f 353 352 350
f 350 351 353
f 355 354 352
f 352 353 355
f 357 356 354
f 354 355 357
f 361 360 359
f 359 358 361
f 356 357 358
f 358 359 356
f 360 361 340
f 340 341 360
f 338 342 94
f 94 323 338
f 350 352 331
f 331 98 350
f 352 354 91
f 91 331 352
f 354 356 93
f 93 91 354
f 341 89 90
f 90 360 341
f 341 338 323
f 323 89 341
f 100 101 366
f 366 365 100
f 101 368 367
f 367 366 101
f 368 106 369
f 369 367 368
f 106 107 370
f 370 369 106
f 107 372 371
f 371 370 107
f 372 109 373
f 373 371 372
f 109 110 374
f 374 373 109
f 110 376 375
f 375 374 110
f 376 103 377
f 377 375 376
f 103 104 378
f 378 377 103
f 380 100 365
f 365 379 380
f 104 380 379
f 379 378 104
f 386 385 384
f 384 383 386
f 388 387 383
f 383 384 388
f 390 389 387
f 387 388 390
f 392 391 389
f 389 390 392
f 394 393 391
f 391 392 394
f 396 395 393
f 393 394 396
f 398 397 395
f 395 396 398
f 400 399 397
f 397 398 400
f 402 401 399
f 399 400 402
f 406 405 404
f 404 403 406
f 401 402 403
f 403 404 401
f 405 406 385
f 385 386 405
f 383 387 106
f 106 368 383
f 395 110 111
f 111 393 395
f 395 397 376
f 376 110 395
f 397 399 103
f 103 376 397
f 386 101 102
f 102 405 386
f 386 383 368
f 368 101 386
f 391 393 111
f 111 382 391
f 410 415 414
f 414 413 410
f 412 413 414
f 414 416 412
f 420 419 418
f 418 417 420
f 420 417 415
f 415 410 420
f 424 423 422
f 422 421 424
f 428 427 426
f 426 425 428
f 432 431 430
f 430 429 432
f 436 435 434
f 434 433 436
f 425 426 430
f 430 431 425
f 421 422 434
f 434 435 421
f 440 439 438
f 438 437 440
f 448 447 446
f 446 445 448
f 423 424 448
f 448 445 423
f 436 433 438
f 438 439 436
f 446 447 427
f 427 428 446
f 440 437 432
f 432 429 440
f 452 451 450
f 450 449 452
f 454 453 449
f 449 450 454
f 456 455 453
f 453 454 456
f 460 459 458
f 458 457 460
f 462 461 457
f 457 458 462
f 464 463 461
f 461 462 464
f 466 465 463
f 463 464 466
f 468 467 465
f 465 466 468
f 472 471 470
f 470 469 472
f 459 460 469
f 469 470 459
f 455 456 467
f 467 468 455
f 471 472 451
f 451 452 471
f 441 442 449
f 449 453 441
f 443 444 462
f 462 458 443
f 464 462 444
f 444 466 464
f 458 459 470
f 470 443 458
f 455 468 441
f 441 453 455
f 449 442 471
f 471 452 449
f 454 450 437
f 437 438 454
f 457 461 445
f 445 446 457
f 461 463 423
f 423 445 461
f 463 465 422
f 422 423 463
f 469 460 428
f 428 425 469
f 460 457 446
f 446 428 460
f 456 454 438
f 438 433 456
f 451 472 431
f 431 432 451
f 450 451 432
f 432 437 450
f 472 469 425
f 425 431 472
f 474 128 112
f 112 473 474
f 113 475 473
f 473 112 113
f 115 476 475
f 475 113 115
f 116 477 476
f 476 115 116
f 117 478 477
f 477 116 117
f 118 479 478
f 478 117 118
f 119 480 479
f 479 118 119
f 120 481 480
f 480 119 120
f 121 482 481
f 481 120 121
f 122 483 482
f 482 121 122
f 123 484 483
f 483 122 123
f 124 485 484
f 484 123 124
f 125 486 485
f 485 124 125
f 126 487 486
f 486 125 126
f 127 488 487
f 487 126 127
f 128 474 488
f 488 127 128
f 473 475 490
f 490 489 473
f 475 476 491
f 491 490 475
f 476 477 492
f 492 491 476
f 477 478 493
f 493 492 477
f 478 479 494
f 494 493 478
f 479 480 495
f 495 494 479
f 480 481 496
f 496 495 480
f 481 482 497
f 497 496 481
f 482 483 498
f 498 497 482
f 483 484 499
f 499 498 483
f 484 485 500
f 500 499 484
f 485 486 501
f 501 500 485
f 486 487 502
f 502 501 486
f 487 488 503
f 503 502 487
f 488 474 504
f 504 503 488
f 474 473 489
f 489 504 474
f 524 523 522
f 522 521 524
f 523 534 533
f 533 522 523
f 540 539 527
f 527 517 540
f 548 547 514
f 514 530 548
f 552 551 550
f 550 549 552
f 556 555 554
f 554 553 556
f 568 567 566
f 566 565 568
f 584 583 582
f 582 581 584
f 586 560 557
f 557 585 586
f 590 589 588
f 588 587 590
f 592 572 569
f 569 591 592
f 598 597 580
f 580 577 598
f 582 596 602
f 602 581 582
f 601 594 567
f 567 568 601
f 594 601 539
f 539 540 594
f 602 596 547
f 547 548 602
f 592 603 571
f 571 572 592
f 598 577 578
f 578 606 598
f 616 615 614
f 614 613 616
f 622 621 597
f 597 595 622
f 626 625 624
f 624 623 626
f 642 641 640
f 640 639 642
f 644 639 640
f 640 643 644
f 644 643 646
f 646 645 644
f 650 649 648
f 648 647 650
f 553 554 614
f 614 615 553
f 617 618 589
f 589 590 617
f 549 550 621
f 621 622 549
f 523 640 641
f 641 534 523
f 643 640 523
f 523 524 643
f 654 653 641
f 641 642 654
f 632 606 578
f 578 627 632
f 657 558 559
f 559 658 657
f 661 660 571
f 571 603 661
f 662 542 531
f 531 663 662
f 665 585 557
f 557 558 665
f 667 666 624
f 624 625 667
f 666 665 558
f 558 624 666
f 667 585 665
f 665 666 667
f 669 668 588
f 588 589 669
f 673 672 671
f 671 670 673
f 677 676 675
f 675 674 677
f 679 678 618
f 618 619 679
f 683 682 681
f 681 680 683
f 682 679 619
f 619 681 682
f 678 669 589
f 589 618 678
f 677 683 680
f 680 676 677
f 621 550 585
f 585 667 621
f 685 684 672
f 672 673 685
f 616 613 679
f 679 682 616
f 703 702 608
f 608 507 703
f 704 705 508
f 508 607 704
f 647 648 702
f 702 703 647
f 648 649 704
f 704 702 648
f 649 650 705
f 705 704 649
f 650 647 703
f 703 705 650
f 733 731 730
f 730 732 733
f 743 740 741
f 741 742 743
f 747 745 744
f 744 746 747
f 749 751 750
f 750 748 749
f 767 766 765
f 765 764 767
f 788 787 786
f 786 785 788
f 790 785 786
f 786 789 790
f 793 794 795
f 795 670 793
f 673 670 795
f 795 796 673
f 684 685 797
f 797 798 684
f 672 799 800
f 800 671 672
f 811 810 809
f 809 808 811
f 710 708 533
f 533 652 710
f 522 533 708
f 708 709 522
f 521 522 709
f 709 768 521
f 768 769 526
f 526 521 768
f 839 838 837
f 837 836 839
f 674 675 751
f 751 749 674
f 746 744 555
f 555 556 746
f 742 741 588
f 588 668 742
f 732 730 560
f 560 586 732
f 840 789 731
f 731 733 840
f 796 795 740
f 740 743 796
f 798 797 745
f 745 747 798
f 748 750 800
f 800 799 748
f 844 843 842
f 842 841 844
f 845 847 826
f 826 827 845
f 849 851 695
f 695 826 849
f 852 850 763
f 763 506 852
f 854 853 827
f 827 807 854
f 855 856 806
f 806 762 855
f 764 765 845
f 845 846 764
f 765 766 847
f 847 845 765
f 766 767 848
f 848 847 766
f 767 764 846
f 846 848 767
f 836 837 849
f 849 850 836
f 837 838 851
f 851 849 837
f 838 839 852
f 852 851 838
f 839 836 850
f 850 852 839
f 841 842 853
f 853 854 841
f 842 843 855
f 855 853 842
f 843 844 856
f 856 855 843
f 844 841 854
f 854 856 844
f 858 857 830
f 830 829 858
f 863 862 831
f 831 832 863
f 861 863 832
f 832 833 861
f 862 858 829
f 829 831 862
f 865 864 814
f 814 815 865
f 864 866 813
f 813 814 864
f 866 867 812
f 812 813 866
f 867 860 835
f 835 812 867
f 872 874 819
f 819 820 872
f 876 878 822
f 822 823 876
f 868 865 815
f 815 817 868
f 857 871 825
f 825 830 857
f 525 526 857
f 857 858 525
f 642 639 859
f 859 860 642
f 639 644 861
f 861 859 639
f 645 646 862
f 862 863 645
f 644 645 863
f 863 861 644
f 646 525 858
f 858 862 646
f 652 651 864
f 864 865 652
f 651 653 866
f 866 864 651
f 653 654 867
f 867 866 653
f 654 642 860
f 860 867 654
f 711 710 868
f 868 869 711
f 769 770 870
f 870 871 769
f 775 772 872
f 872 873 775
f 772 777 874
f 874 872 772
f 777 776 875
f 875 874 777
f 809 810 876
f 876 877 809
f 810 811 878
f 878 876 810
f 811 775 873
f 873 878 811
f 710 652 865
f 865 868 710
f 526 769 871
f 871 857 526
f 776 711 869
f 869 875 776
f 770 809 877
f 877 870 770
f 681 619 583
f 583 584 681
f 751 675 563
f 563 753 751
f 671 565 566
f 566 670 671
f 592 591 593
f 593 594 592
f 596 595 597
f 597 598 596
f 879 667 625
f 625 626 879
f 879 626 580
f 580 597 879
f 667 879 597
f 597 621 667
f 840 880 790
f 790 789 840
f 790 880 591
f 591 569 790
f 880 840 792
f 792 591 880
f 884 883 882
f 882 881 884
f 882 883 886
f 886 885 882
f 881 882 885
f 885 887 881
f 881 887 888
f 888 884 881
f 883 884 888
f 888 886 883
f 892 891 890
f 890 889 892
f 896 895 894
f 894 893 896
f 900 899 898
f 898 897 900
f 894 895 898
f 898 891 894
f 894 891 892
f 892 893 894
f 898 895 896
f 896 897 898
f 891 898 899
f 899 890 891
f 129 130 902
f 902 901 129
f 130 904 903
f 903 902 130
f 904 135 905
f 905 903 904
f 135 136 906
f 906 905 135
f 136 908 907
f 907 906 136
f 908 138 909
f 909 907 908
f 138 139 910
f 910 909 138
f 139 912 911
f 911 910 139
f 912 132 913
f 913 911 912
f 132 133 914
f 914 913 132
f 916 129 901
f 901 915 916
f 133 916 915
f 915 914 133
f 922 921 920
f 920 919 922
f 924 923 919
f 919 920 924
f 926 925 923
f 923 924 926
f 928 927 925
f 925 926 928
f 930 929 927
f 927 928 930
f 932 931 929
f 929 930 932
f 934 933 931
f 931 932 934
f 936 935 933
f 933 934 936
f 938 937 935
f 935 936 938
f 942 941 940
f 940 939 942
f 937 938 939
f 939 940 937
f 941 942 921
f 921 922 941
f 919 923 135
f 135 904 919
f 931 139 140
f 140 929 931
f 931 933 912
f 912 139 931
f 933 935 132
f 132 912 933
f 935 937 134
f 134 132 935
f 922 130 131
f 131 941 922
f 922 919 904
f 904 130 922
f 940 941 131
f 131 917 940
f 940 917 134
f 134 937 940
f 947 157 141
f 141 946 947
f 142 948 946
f 946 141 142
f 144 949 948
f 948 142 144
f 145 950 949
f 949 144 145
f 146 951 950
f 950 145 146
f 147 952 951
f 951 146 147
f 148 953 952
f 952 147 148
f 149 954 953
f 953 148 149
f 150 955 954
f 954 149 150
f 151 956 955
f 955 150 151
f 152 957 956
f 956 151 152
f 153 958 957
f 957 152 153
f 154 959 958
f 958 153 154
f 155 960 959
f 959 154 155
f 156 961 960
f 960 155 156
f 157 947 961
f 961 156 157
f 946 948 963
f 963 962 946
f 948 949 964
f 964 963 948
f 949 950 965
f 965 964 949
f 950 951 966
f 966 965 950
f 951 952 967
f 967 966 951
f 952 953 968
f 968 967 952
f 953 954 969
f 969 968 953
f 954 955 970
f 970 969 954
f 955 956 971
f 971 970 955
f 956 957 972
f 972 971 956
f 957 958 973
f 973 972 957
f 958 959 974
f 974 973 958
f 959 960 975
f 975 974 959
f 960 961 976
f 976 975 960
f 961 947 977
f 977 976 961
f 947 946 962
f 962 977 947
f 981 980 979
f 979 978 981
f 985 984 983
f 983 982 985
f 989 988 987
f 987 986 989
f 983 984 987
f 987 980 983
f 986 981 978
f 978 989 986
f 983 980 981
f 981 982 983
f 987 984 985
f 985 986 987
f 980 987 988
f 988 979 980
f 985 982 981
f 981 986 985
f 993 992 991
f 991 990 993
f 995 994 990
f 990 991 995
f 997 996 994
f 994 995 997
f 999 998 996
f 996 997 999
f 1001 1000 998
f 998 999 1001
f 1003 1002 1000
f 1000 1001 1003
f 1005 1004 1002
f 1002 1003 1005
f 1007 1006 1004
f 1004 1005 1007
f 1009 1008 1006
f 1006 1007 1009
f 1011 1010 1008
f 1008 1009 1011
f 1013 1012 1010
f 1010 1011 1013
f 992 993 1012
f 1012 1013 992
f 990 994 1015
f 1015 1014 990
f 994 996 1016
f 1016 1015 994
f 996 998 1017
f 1017 1016 996
f 998 1000 1018
f 1018 1017 998
f 1000 1002 1019
f 1019 1018 1000
f 1002 1004 1020
f 1020 1019 1002
f 1004 1006 1021
f 1021 1020 1004
f 1006 1008 1022
f 1022 1021 1006
f 1008 1010 1023
f 1023 1022 1008
f 1010 1012 1024
f 1024 1023 1010
f 1012 993 1025
f 1025 1024 1012
f 993 990 1014
f 1014 1025 993
f 1026 1028 997
f 997 995 1026
f 1028 1029 999
f 999 997 1028
f 1029 1030 1001
f 1001 999 1029
f 1032 1033 1007
f 1007 1005 1032
f 1033 1034 1009
f 1009 1007 1033
f 1034 1035 1011
f 1011 1009 1034
f 1035 1036 1013
f 1013 1011 1035
f 158 159 1026
f 1026 1027 158
f 159 161 1028
f 1028 1026 159
f 161 162 1029
f 1029 1028 161
f 162 163 1030
f 1030 1029 162
f 163 164 1031
f 1031 1030 163
f 164 165 1032
f 1032 1031 164
f 165 166 1033
f 1033 1032 165
f 166 167 1034
f 1034 1033 166
f 167 168 1035
f 1035 1034 167
f 168 169 1036
f 1036 1035 168
f 169 170 1037
f 1037 1036 169
f 170 158 1027
f 1027 1037 170
f 1041 1040 1039
f 1039 1038 1041
f 1043 1042 1040
f 1040 1041 1043
f 1045 1044 1042
f 1042 1043 1045
f 1047 1046 1044
f 1044 1045 1047
f 1049 1048 1046
f 1046 1047 1049
f 1051 1050 1048
f 1048 1049 1051
f 1053 1052 1050
f 1050 1051 1053
f 1038 1039 1052
f 1052 1053 1038
f 1057 1056 1055
f 1055 1054 1057
f 1059 1058 1056
f 1056 1057 1059
f 1061 1060 1058
f 1058 1059 1061
f 1056 1058 1060
f 1060 1055 1056
f 1059 1057 1054
f 1054 1061 1059
f 1065 1064 1063
f 1063 1062 1065
f 1067 1066 1064
f 1064 1065 1067
f 1069 1068 1066
f 1066 1067 1069
f 1064 1066 1068
f 1068 1063 1064
f 1067 1065 1062
f 1062 1069 1067
f 1073 1072 1071
f 1071 1070 1073
f 1072 1075 1074
f 1074 1071 1072
f 1075 1077 1076
f 1076 1074 1075
f 1077 1079 1078
f 1078 1076 1077
f 1079 1081 1080
f 1080 1078 1079
f 1081 1083 1082
f 1082 1080 1081
f 1083 1085 1084
f 1084 1082 1083
f 1085 1073 1070
f 1070 1084 1085
f 1089 1088 1087
f 1087 1086 1089
f 1091 1090 1088
f 1088 1089 1091
f 1093 1092 1090
f 1090 1091 1093
f 1088 1090 1092
f 1092 1087 1088
f 1091 1089 1086
f 1086 1093 1091
f 1109 1108 1107
f 1107 1106 1109
f 1109 1105 1103
f 1103 1108 1109
f 1103 1105 1104
f 1104 1102 1103
f 1117 1116 1115
f 1115 1114 1117
f 1115 1116 1102
f 1102 1104 1115
f 1121 1120 1119
f 1119 1118 1121
f 1125 1124 1123
f 1123 1122 1125
f 1129 1128 1127
f 1127 1126 1129
f 1123 1124 1127
f 1127 1120 1123
f 1126 1121 1118
f 1118 1129 1126
f 1123 1120 1121
f 1121 1122 1123
f 1127 1124 1125
f 1125 1126 1127
f 1120 1127 1128
f 1128 1119 1120
f 1125 1122 1121
f 1121 1126 1125
f 1133 1132 1131
f 1131 1130 1133
f 1137 1136 1135
f 1135 1134 1137
f 1141 1140 1139
f 1139 1138 1141
f 1143 1142 1139
f 1139 1132 1143
f 1138 1133 1130
f 1130 1141 1138
f 1143 1132 1133
f 1133 1144 1143
f 1139 1142 1145
f 1145 1138 1139
f 1132 1139 1140
f 1140 1131 1132
f 1145 1144 1133
f 1133 1138 1145
f 1147 1146 1143
f 1143 1144 1147
f 1146 1148 1142
f 1142 1143 1146
f 1148 1149 1145
f 1145 1142 1148
f 1149 1147 1144
f 1144 1145 1149
f 1151 1150 1146
f 1146 1147 1151
f 1150 1152 1148
f 1148 1146 1150
f 1152 1153 1149
f 1149 1148 1152
f 1153 1151 1147
f 1147 1149 1153
f 1155 1154 1150
f 1150 1151 1155
f 1154 1156 1152
f 1152 1150 1154
f 1156 1157 1153
f 1153 1152 1156
f 1157 1155 1151
f 1151 1153 1157
f 1134 1135 1154
f 1154 1155 1134
f 1135 1136 1156
f 1156 1154 1135
f 1136 1137 1157
f 1157 1156 1136
f 1137 1134 1155
f 1155 1157 1137
f 1161 1160 1159
f 1159 1158 1161
f 1165 1164 1163
f 1163 1162 1165
f 1169 1168 1167
f 1167 1166 1169
f 1163 1164 1167
f 1167 1160 1163
f 1166 1161 1158
f 1158 1169 1166
f 1163 1160 1161
f 1161 1162 1163
f 1167 1164 1165
f 1165 1166 1167
f 1160 1167 1168
f 1168 1159 1160
f 1165 1162 1161
f 1161 1166 1165