# https://github.com/mikedh/trimesh
v -0.03621056 -0.03744394 0.03130972
v -0.00000000 -0.04951413 0.03130971
v -0.00000000 -0.04850867 0.04778292
v -0.03545645 -0.03668984 0.04778291
v 0.03621056 -0.03744395 0.03130971
v 0.03545645 -0.03668984 0.04778291
v 0.03085812 -0.03209150 0.06129476
v 0.00000000 -0.04237755 0.06129476
v -0.03085812 -0.03209150 0.06129476
v -0.03085812 0.02962473 0.06129476
v 0.00000000 0.03991078 0.06129476
v 0.00000000 0.04604189 0.04778292
v -0.03545646 0.03422307 0.04778291
v 0.03085812 0.02962474 0.06129476
v 0.03545646 0.03422307 0.04778291
v 0.03621056 0.03497717 0.03130972
v 0.00000000 0.04704737 0.03130971
v -0.03621056 0.03497718 0.03130971
v -0.02382148 0.02258810 0.00069582
v 0.00000000 0.02984988 0.00014087
v -0.00000000 -0.00123339 0.00000000
v -0.03108327 -0.00123339 0.00014087
v 0.02382148 0.02258810 0.00069582
v 0.03108327 -0.00123339 0.00014087
v 0.02382148 -0.02505486 0.00069582
v -0.00000000 -0.03231665 0.00014087
v -0.02382148 -0.02505486 0.00069582
v 0.04828075 -0.00123339 0.03130971
v 0.04727528 -0.00123339 0.04778292
v 0.04114416 -0.00123339 0.06129476
v -0.04828075 -0.00123339 0.03130971
v -0.04727528 -0.00123339 0.04778292
v -0.04114416 -0.00123339 0.06129476
v 0.00000000 -0.01637348 0.08352825
v 0.00000000 -0.01713360 0.24309455
v -0.01192517 -0.01315855 0.24309455
v -0.01135508 -0.01258846 0.08352825
v 0.01135508 -0.01258846 0.08352825
v 0.01192517 -0.01315855 0.24309455
v 0.01514010 -0.00123339 0.08352825
v 0.01590022 -0.00123339 0.24309455
v 0.01135508 0.01012169 0.08352825
v 0.01192517 0.01069178 0.24309455
v 0.00000000 0.01390672 0.08352825
v 0.00000000 0.01466684 0.24309455
v -0.01135508 0.01012169 0.08352825
v -0.01192517 0.01069178 0.24309455
v -0.01514010 -0.00123339 0.08352825
v -0.01590022 -0.00123339 0.24309455
v 0.00000000 -0.03025124 0.07160510
v -0.02176339 -0.02299678 0.07160510
v 0.02176339 -0.02299678 0.07160510
v 0.01325620 -0.01448959 0.07908269
v 0.00000000 -0.01890832 0.07908269
v -0.01325620 -0.01448959 0.07908269
v 0.02901786 -0.00123339 0.07160510
v 0.02176339 0.02053001 0.07160510
v 0.01325620 0.01202282 0.07908269
v 0.01767494 -0.00123339 0.07908269
v 0.00000000 0.02778447 0.07160510
v -0.02176339 0.02053001 0.07160510
v -0.01325620 0.01202282 0.07908269
v 0.00000000 0.01644156 0.07908269
v -0.02901786 -0.00123339 0.07160510
v -0.01767494 -0.00123339 0.07908269
v -0.00000000 -0.04626351 0.01211529
v -0.03377259 -0.03500598 0.01211529
v 0.03377259 -0.03500598 0.01211528
v 0.04503013 -0.00123339 0.01211528
v 0.03377259 0.03253921 0.01211528
v 0.00000000 0.04379674 0.01211528
v -0.03377259 0.03253921 0.01211528
v -0.04503013 -0.00123339 0.01211529
v -0.01944353 -0.00123339 0.24758079
v -0.01458265 0.01334926 0.24758082
v -0.01458265 -0.01581603 0.24758082
v 0.00000000 0.01821014 0.24758079
v 0.01458265 0.01334926 0.24758082
v 0.01944353 -0.00123339 0.24758079
v 0.01458265 -0.01581603 0.24758082
v 0.00000000 -0.02067691 0.24758079
v 0.00000000 -0.01551144 0.25379444
v -0.01070854 -0.01194193 0.25379444
v -0.01428480 -0.01551819 0.25434855
v 0.00000000 -0.02027979 0.25434855
v 0.01428480 -0.01551819 0.25434855
v 0.01070854 -0.01194193 0.25379441
v -0.01904640 -0.00123339 0.25434855
v -0.01427806 -0.00123339 0.25379444
v -0.01070854 0.00947516 0.25379441
v -0.01428480 0.01305142 0.25434855
v 0.01427806 -0.00123339 0.25379444
v 0.01904640 -0.00123339 0.25434855
v 0.01428480 0.01305142 0.25434855
v 0.01070854 0.00947516 0.25379441
v 0.00000000 0.01304467 0.25379444
v 0.00000000 0.01781302 0.25434855
v -0.02285077 -0.02408415 0.00159489
v -0.00000000 -0.03103407 0.00115030
v -0.00000000 -0.00123339 0.00115134
v -0.02980068 -0.00123339 0.00115030
v 0.02285077 -0.02408415 0.00159489
v 0.02980068 -0.00123339 0.00115030
v 0.02285077 0.02161738 0.00159489
v 0.00000000 0.02856730 0.00115030
v -0.02285077 0.02161738 0.00159489
v 0.00000000 -0.01471672 0.24387294
v -0.01011250 -0.01134589 0.24387294
v 0.01011250 -0.01134589 0.24387294
v 0.01011250 -0.01134589 0.08357490
v 0.00000000 -0.01471672 0.08357490
v -0.01011250 -0.01134589 0.08357490
v 0.01348333 -0.00123339 0.24387294
v 0.01011250 0.00887912 0.24387294
v 0.01011250 0.00887912 0.08357490
v 0.01348333 -0.00123339 0.08357490
v 0.00000000 0.01224995 0.24387294
v -0.01011250 0.00887912 0.24387294
v -0.01011250 0.00887912 0.08357490
v 0.00000000 0.01224995 0.08357490
v -0.01348333 -0.00123339 0.24387294
v -0.01348333 -0.00123339 0.08357490
v -0.01208537 -0.01331875 0.07907834
v 0.00000000 -0.01734721 0.07907834
v 0.00000000 -0.02856800 0.07162305
v -0.02050096 -0.02173434 0.07162305
v 0.01208537 -0.01331875 0.07907835
v 0.02050096 -0.02173434 0.07162305
v 0.02949505 -0.03072843 0.06134811
v 0.00000000 -0.04056012 0.06134811
v -0.02949505 -0.03072844 0.06134811
v 0.01611383 -0.00123339 0.07907834
v 0.02733461 -0.00123339 0.07162305
v 0.01208537 0.01085198 0.07907835
v 0.02050096 0.01926757 0.07162305
v 0.02949505 0.02826166 0.06134811
v 0.03932673 -0.00123339 0.06134811
v 0.00000000 0.01488044 0.07907834
v 0.00000000 0.02610123 0.07162305
v -0.01208537 0.01085198 0.07907835
v -0.02050096 0.01926757 0.07162305
v -0.02949505 0.02826166 0.06134811
v 0.00000000 0.03809335 0.06134811
v -0.01611382 -0.00123339 0.07907834
v -0.02733461 -0.00123339 0.07162305
v -0.03932673 -0.00123339 0.06134811
v 0.00000000 -0.04661439 0.04782846
v -0.03403576 -0.03526914 0.04782846
v 0.03403576 -0.03526914 0.04782846
v 0.03478890 -0.03602229 0.03147510
v -0.00000000 -0.04761859 0.03147510
v -0.03478890 -0.03602228 0.03147510
v 0.04538101 -0.00123339 0.04782846
v 0.03403576 0.03280237 0.04782846
v 0.03478890 0.03355552 0.03147510
v 0.04638520 -0.00123339 0.03147510
v 0.00000000 0.04414762 0.04782846
v -0.03403576 0.03280237 0.04782846
v -0.03478890 0.03355552 0.03147510
v 0.00000000 0.04515182 0.03147510
v -0.04538101 -0.00123339 0.04782846
v -0.04638520 -0.00123339 0.03147510
v -0.00000000 -0.04446048 0.01269902
v -0.03242032 -0.03365370 0.01269902
v 0.03242032 -0.03365370 0.01269902
v 0.04322709 -0.00123339 0.01269902
v 0.03242032 0.03118693 0.01269902
v 0.00000000 0.04199371 0.01269902
v -0.03242032 0.03118693 0.01269902
v -0.04322709 -0.00123339 0.01269902
v -0.00971560 -0.01094899 0.23859265
v 0.00000000 -0.01418752 0.23859265
v 0.00000000 -0.01553765 0.25945063
v -0.01072820 -0.01196159 0.25945063
v 0.00971560 -0.01094899 0.23859265
v 0.01072820 -0.01196159 0.25945063
v -0.01072820 0.00949482 0.25945063
v 0.00000000 0.01307088 0.25945063
v 0.00000000 0.01172075 0.23859265
v -0.00971560 0.00848222 0.23859265
v 0.01072820 0.00949482 0.25945063
v 0.00971560 0.00848222 0.23859265
v 0.01295414 -0.00123339 0.23859265
v 0.01430427 -0.00123339 0.25945063
v -0.01295414 -0.00123339 0.23859265
v -0.01430427 -0.00123339 0.25945063
v -0.00718946 -0.00842284 0.23831124
v 0.00000000 -0.01093259 0.23821275
v 0.00718946 -0.00842284 0.23831124
v 0.00969921 -0.00123339 0.23821275
v 0.00718946 0.00595607 0.23831124
v 0.00000000 0.00846583 0.23821275
v -0.00718946 0.00595607 0.23831124
v -0.00969921 -0.00123339 0.23821275
v -0.00795572 0.00672233 0.25979451
v 0.00000000 0.00951485 0.25991486
v 0.00795572 0.00672233 0.25979451
v 0.01074823 -0.00123339 0.25991486
v 0.00795572 -0.00918910 0.25979451
v 0.00000000 -0.01198162 0.25991486
v -0.00795572 -0.00918910 0.25979451
v -0.01074823 -0.00123339 0.25991486
f 1 2 3
f 1 3 4
f 2 5 6
f 2 6 3
f 3 6 7
f 3 7 8
f 4 3 8
f 4 8 9
f 10 11 12
f 10 12 13
f 11 14 15
f 11 15 12
f 12 15 16
f 12 16 17
f 13 12 17
f 13 17 18
f 19 20 21
f 19 21 22
f 20 23 24
f 20 24 21
f 21 24 25
f 21 25 26
f 22 21 26
f 22 26 27
f 5 28 29
f 5 29 6
f 28 16 15
f 28 15 29
f 29 15 14
f 29 14 30
f 6 29 30
f 6 30 7
f 18 31 32
f 18 32 13
f 31 1 4
f 31 4 32
f 32 4 9
f 32 9 33
f 13 32 33
f 13 33 10
f 34 35 36
f 34 36 37
f 38 39 35
f 38 35 34
f 40 41 39
f 40 39 38
f 42 43 41
f 42 41 40
f 44 45 43
f 44 43 42
f 46 47 45
f 46 45 44
f 48 49 47
f 48 47 46
f 37 36 49
f 37 49 48
f 9 8 50
f 9 50 51
f 8 7 52
f 8 52 50
f 50 52 53
f 50 53 54
f 51 50 54
f 51 54 55
f 7 30 56
f 7 56 52
f 30 14 57
f 30 57 56
f 56 57 58
f 56 58 59
f 52 56 59
f 52 59 53
f 14 11 60
f 14 60 57
f 11 10 61
f 11 61 60
f 60 61 62
f 60 62 63
f 57 60 63
f 57 63 58
f 10 33 64
f 10 64 61
f 33 9 51
f 33 51 64
f 64 51 55
f 64 55 65
f 61 64 65
f 61 65 62
f 27 26 66
f 27 66 67
f 26 25 68
f 26 68 66
f 66 68 5
f 66 5 2
f 67 66 2
f 67 2 1
f 25 24 69
f 25 69 68
f 24 23 70
f 24 70 69
f 69 70 16
f 69 16 28
f 68 69 28
f 68 28 5
f 18 17 71
f 18 71 72
f 17 16 70
f 17 70 71
f 71 70 23
f 71 23 20
f 72 71 20
f 72 20 19
f 19 22 73
f 19 73 72
f 22 27 67
f 22 67 73
f 73 67 1
f 73 1 31
f 72 73 31
f 72 31 18
f 55 54 34
f 55 34 37
f 54 53 38
f 54 38 34
f 53 59 40
f 53 40 38
f 59 58 42
f 59 42 40
f 58 63 44
f 58 44 42
f 63 62 46
f 63 46 44
f 62 65 48
f 62 48 46
f 65 55 37
f 65 37 48
f 47 49 74
f 47 74 75
f 74 49 36
f 74 36 76
f 43 45 77
f 43 77 78
f 77 45 47
f 77 47 75
f 39 41 79
f 39 79 80
f 79 41 43
f 79 43 78
f 76 36 35
f 76 35 81
f 81 35 39
f 81 39 80
f 82 83 84
f 82 84 85
f 82 85 86
f 82 86 87
f 88 84 83
f 88 83 89
f 88 89 90
f 88 90 91
f 92 87 86
f 92 86 93
f 92 93 94
f 92 94 95
f 96 95 94
f 96 94 97
f 96 97 91
f 96 91 90
f 98 99 100
f 98 100 101
f 99 102 103
f 99 103 100
f 100 103 104
f 100 104 105
f 101 100 105
f 101 105 106
f 75 74 88
f 75 88 91
f 74 76 84
f 74 84 88
f 78 77 97
f 78 97 94
f 77 75 91
f 77 91 97
f 80 79 93
f 80 93 86
f 79 78 94
f 79 94 93
f 84 76 81
f 84 81 85
f 81 80 86
f 81 86 85
f 107 108 83
f 107 83 82
f 87 109 107
f 87 107 82
f 107 109 110
f 107 110 111
f 108 107 111
f 108 111 112
f 113 109 87
f 113 87 92
f 114 113 92
f 114 92 95
f 113 114 115
f 113 115 116
f 110 109 113
f 110 113 116
f 117 114 95
f 117 95 96
f 118 117 96
f 118 96 90
f 117 118 119
f 117 119 120
f 114 117 120
f 114 120 115
f 121 118 90
f 121 90 89
f 108 121 89
f 108 89 83
f 121 108 112
f 121 112 122
f 118 121 122
f 118 122 119
f 123 124 125
f 123 125 126
f 124 127 128
f 124 128 125
f 125 128 129
f 125 129 130
f 126 125 130
f 126 130 131
f 127 132 133
f 127 133 128
f 132 134 135
f 132 135 133
f 133 135 136
f 133 136 137
f 128 133 137
f 128 137 129
f 134 138 139
f 134 139 135
f 138 140 141
f 138 141 139
f 139 141 142
f 139 142 143
f 135 139 143
f 135 143 136
f 140 144 145
f 140 145 141
f 144 123 126
f 144 126 145
f 145 126 131
f 145 131 146
f 141 145 146
f 141 146 142
f 131 130 147
f 131 147 148
f 130 129 149
f 130 149 147
f 147 149 150
f 147 150 151
f 148 147 151
f 148 151 152
f 129 137 153
f 129 153 149
f 137 136 154
f 137 154 153
f 153 154 155
f 153 155 156
f 149 153 156
f 149 156 150
f 136 143 157
f 136 157 154
f 143 142 158
f 143 158 157
f 157 158 159
f 157 159 160
f 154 157 160
f 154 160 155
f 142 146 161
f 142 161 158
f 146 131 148
f 146 148 161
f 161 148 152
f 161 152 162
f 158 161 162
f 158 162 159
f 152 151 163
f 152 163 164
f 151 150 165
f 151 165 163
f 163 165 102
f 163 102 99
f 164 163 99
f 164 99 98
f 150 156 166
f 150 166 165
f 156 155 167
f 156 167 166
f 166 167 104
f 166 104 103
f 165 166 103
f 165 103 102
f 155 160 168
f 155 168 167
f 160 159 169
f 160 169 168
f 168 169 106
f 168 106 105
f 167 168 105
f 167 105 104
f 159 162 170
f 159 170 169
f 162 152 164
f 162 164 170
f 170 164 98
f 170 98 101
f 169 170 101
f 169 101 106
f 111 110 127
f 111 127 124
f 112 111 124
f 112 124 123
f 122 112 123
f 122 123 144
f 119 122 144
f 119 144 140
f 120 119 140
f 120 140 138
f 115 120 138
f 115 138 134
f 116 115 134
f 116 134 132
f 110 116 132
f 110 132 127
f 171 172 173
f 171 173 174
f 172 175 176
f 172 176 173
f 177 178 179
f 177 179 180
f 178 181 182
f 178 182 179
f 176 175 183
f 176 183 184
f 183 182 181
f 183 181 184
f 177 180 185
f 177 185 186
f 185 171 174
f 185 174 186
f 187 188 172
f 187 172 171
f 188 189 175
f 188 175 172
f 189 190 183
f 189 183 175
f 190 191 182
f 190 182 183
f 179 182 191
f 179 191 192
f 180 179 192
f 180 192 193
f 193 194 185
f 193 185 180
f 194 187 171
f 194 171 185
f 195 196 178
f 195 178 177
f 196 197 181
f 196 181 178
f 184 181 197
f 184 197 198
f 176 184 198
f 176 198 199
f 173 176 199
f 173 199 200
f 174 173 200
f 174 200 201
f 186 174 201
f 186 201 202
f 177 186 202
f 177 202 195
f 195 197 196
f 197 195 202
f 197 202 198
f 198 202 201
f 198 201 199
f 199 201 200
f 191 193 192
f 193 191 190
f 193 190 194
f 194 190 189
f 194 189 187
f 187 189 188