# https://github.com/mikedh/trimesh
v -0.02511895 0.01676468 0.02816015
v -0.02490027 0.04080792 0.02945885
v -0.02562596 0.04510600 0.02572867
v -0.01788804 -0.04163841 0.00604677
v -0.02562596 -0.04527055 0.02128115
v -0.02562596 -0.04163841 0.00604677
v 0.02592005 0.04510600 0.02572867
v 0.02526694 0.04080792 0.02945885
v 0.02549414 0.01676468 0.02816255
v 0.00052385 -0.00721600 0.02813062
v 0.02549414 -0.00721600 0.02816253
v 0.00391503 -0.00626087 0.03035843
v -0.01788804 0.01978443 0.04135532
v -0.02006748 0.01978443 0.04118769
v -0.02006748 -0.00173834 0.04118769
v -0.00286734 -0.00626087 0.03035843
v 0.02592005 -0.04163841 0.00604677
v 0.02592005 -0.04527055 0.02128115
v 0.01773206 -0.04163841 0.00604677
v -0.00286734 -0.00368202 0.03637353
v -0.02511895 -0.00721600 0.02816015
v 0.00391503 -0.00368202 0.03637353
v 0.00052385 -0.00173834 0.04135532
v -0.00286734 0.04510600 0.02572867
v -0.00286734 0.04080792 0.02945885
v 0.00200096 -0.01168011 0.03115798
v -0.00090289 -0.01158544 0.03115798
v -0.00190984 -0.01157903 0.03035843
v 0.00315910 -0.01148435 0.03035843
v -0.00190984 -0.01157903 0.03599685
v 0.02592005 0.01676468 0.00604679
v 0.02592005 -0.00721600 0.00604677
v -0.02562596 -0.03447174 0.00604677
v -0.02511895 -0.03015245 0.02816015
v -0.02562596 -0.00721600 0.00604677
v -0.02562596 0.01676468 0.00604679
v -0.02562596 0.04632796 0.00523351
v 0.02592005 -0.03447174 0.00604677
v 0.02549414 -0.03015245 0.02816253
v 0.02043512 0.01978443 0.04121935
v 0.02043512 -0.00173834 0.04121934
v -0.00286734 0.04080792 0.04135532
v 0.02043512 0.04080792 0.04121935
v -0.02006748 0.04080792 0.04118769
v 0.02592005 0.04632796 0.00523351
v 0.00315910 -0.01148436 0.03599685
v 0.02592005 0.03454493 0.00000002
v 0.02592005 0.01676468 0.00000002
v -0.02562596 -0.00721600 0.00000002
v -0.02562596 0.01676468 0.00000002
v -0.02562596 -0.03515890 0.00000000
v 0.02592005 -0.00721600 0.00000002
v 0.02592005 -0.03515890 0.00000000
v -0.01788804 -0.03515890 0.00000000
v -0.02562596 0.03454493 0.00000002
v -0.00105382 -0.03659103 0.03093922
v -0.00201062 -0.02918639 0.03035843
v 0.00325990 -0.02937576 0.03035843
v 0.00260544 -0.03630699 0.03093922
v 0.00200096 -0.01168011 0.03445184
v -0.00090289 -0.01158544 0.03445184
v 0.00325990 -0.02937576 0.03531650
v 0.00260544 -0.03630699 0.03437934
v 0.00052385 -0.03015245 0.02813062
v 0.00798383 0.00572265 0.04132488
v 0.01588907 0.00670430 0.04124834
v 0.01588907 0.00670430 0.04344960
v 0.00798383 0.00572265 0.04352615
v 0.00052385 -0.04527055 0.02128115
v 0.01773206 -0.03515890 0.00000000
v -0.00286734 0.01978443 0.04135532
v -0.01788804 0.04080792 0.04135532
v -0.01788804 0.04080792 0.04527889
v -0.00286734 0.04080792 0.04527889
v -0.01788804 0.04510600 0.02572867
v -0.01788804 0.04080792 0.02945885
v -0.01788804 0.04632796 0.00523351
v -0.00286734 0.04632796 0.00523351
v -0.01788804 0.02085594 0.04527889
v -0.00286734 0.02085594 0.04527889
v -0.00105382 -0.03659103 0.03437934
v -0.00201062 -0.02918639 0.03531650
v 0.00052385 -0.04163841 0.00604677
v -0.01788804 0.03454493 0.00000002
v -0.01788804 0.01676468 0.00000002
v -0.01788804 -0.00721600 0.00000002
v 0.01773206 0.01676468 0.00000002
v 0.01773206 0.03454493 0.00000002
v 0.01773206 -0.00721600 0.00000002
v 0.01773206 0.04632796 0.00523351
v 0.01449582 0.01436857 0.04125841
v 0.00641488 0.01355050 0.04131481
v 0.01449582 0.01436857 0.04345968
v 0.00641488 0.01355050 0.04351609
v -0.00085249 -0.02890731 0.03115798
v 0.00220253 -0.02876529 0.03115798
v -0.00085249 -0.02890731 0.03405440
v 0.00220253 -0.02876529 0.03405440
f 1 2 3
f 4 5 6
f 7 8 9
f 10 11 12
f 13 14 15
f 10 12 16
f 17 18 19
f 20 21 16
f 21 10 16
f 22 23 20
f 11 22 12
f 24 25 8
f 24 8 7
f 26 27 28
f 26 28 29
f 16 28 30
f 16 30 20
f 31 9 11
f 31 11 32
f 33 34 21
f 33 21 35
f 36 1 3
f 36 3 37
f 38 39 18
f 38 18 17
f 32 11 39
f 32 39 38
f 6 5 34
f 6 34 33
f 9 40 41
f 9 41 11
f 25 42 43
f 25 43 8
f 1 14 44
f 1 44 2
f 21 15 14
f 21 14 1
f 8 43 40
f 8 40 9
f 35 21 1
f 35 1 36
f 45 7 9
f 45 9 31
f 22 20 30
f 22 30 46
f 47 45 31
f 47 31 48
f 49 35 36
f 49 36 50
f 51 6 33
f 52 32 38
f 52 38 53
f 54 4 6
f 54 6 51
f 53 38 17
f 50 36 37
f 50 37 55
f 51 33 35
f 51 35 49
f 48 31 32
f 48 32 52
f 56 57 58
f 56 58 59
f 60 26 29
f 60 29 46
f 61 60 46
f 61 46 30
f 58 62 63
f 58 63 59
f 64 39 11
f 64 11 10
f 65 66 67
f 65 67 68
f 11 41 23
f 11 23 22
f 39 64 69
f 39 69 18
f 28 16 12
f 28 12 29
f 53 17 19
f 53 19 70
f 43 42 71
f 43 71 40
f 72 73 74
f 72 74 42
f 75 76 25
f 75 25 24
f 77 75 24
f 77 24 78
f 76 72 42
f 76 42 25
f 27 61 30
f 27 30 28
f 34 64 10
f 34 10 21
f 79 13 71
f 79 71 80
f 59 63 81
f 59 81 56
f 62 82 81
f 62 81 63
f 42 74 80
f 42 80 71
f 44 14 13
f 44 13 72
f 19 18 69
f 19 69 83
f 57 56 81
f 57 81 82
f 12 22 46
f 12 46 29
f 55 37 77
f 55 77 84
f 55 84 85
f 55 85 50
f 2 44 72
f 2 72 76
f 37 3 75
f 37 75 77
f 50 85 86
f 50 86 49
f 3 2 76
f 3 76 75
f 49 86 54
f 49 54 51
f 13 79 73
f 13 73 72
f 71 13 15
f 71 15 23
f 20 23 15
f 20 15 21
f 64 34 5
f 64 5 69
f 74 73 79
f 74 79 80
f 83 69 5
f 83 5 4
f 87 88 47
f 87 47 48
f 89 87 48
f 89 48 52
f 88 90 45
f 88 45 47
f 70 89 52
f 70 52 53
f 91 66 41
f 91 41 40
f 92 91 40
f 92 40 71
f 66 65 23
f 66 23 41
f 65 92 71
f 65 71 23
f 93 94 68
f 93 68 67
f 66 91 93
f 66 93 67
f 92 65 68
f 92 68 94
f 91 92 94
f 91 94 93
f 84 77 4
f 84 4 54
f 19 90 88
f 19 88 70
f 95 27 26
f 95 26 96
f 27 95 97
f 27 97 61
f 26 60 98
f 26 98 96
f 60 61 97
f 60 97 98
f 97 95 57
f 97 57 82
f 95 96 58
f 95 58 57
f 96 98 62
f 96 62 58
f 98 97 82
f 98 82 62
f 24 90 78
f 90 24 45
f 45 24 7
f 22 20 16
f 16 12 22
f 60 61 27
f 27 26 60
f 30 46 29
f 29 28 30
f 20 30 28
f 28 16 20
f 46 30 20
f 20 22 46
f 51 6 4
f 4 54 51
f 59 58 57
f 57 56 59
f 59 63 62
f 62 58 59
f 68 67 66
f 66 65 68
f 29 12 16
f 16 28 29
f 70 19 17
f 17 53 70
f 80 71 13
f 13 79 80
f 56 81 63
f 63 59 56
f 63 81 82
f 82 62 63
f 71 80 74
f 74 42 71
f 82 81 56
f 56 57 82
f 29 46 22
f 22 12 29
f 72 73 79
f 79 13 72
f 80 79 73
f 73 74 80
f 92 65 66
f 66 91 92
f 67 68 94
f 94 93 67
f 67 93 91
f 91 66 67
f 94 68 65
f 65 92 94
f 93 94 92
f 92 91 93
f 54 4 77
f 77 84 54
f 70 88 90
f 90 19 70
f 96 26 27
f 27 95 96
f 61 97 95
f 95 27 61
f 96 98 60
f 60 26 96
f 98 97 61
f 61 60 98