# https://github.com/mikedh/trimesh
v 0.04528012 -0.01562368 0.00708521
v 0.04496092 -0.01562368 0.00527490
v 0.05025390 -0.01562368 0.00527490
v 0.04528012 0.01563729 0.00708521
v 0.05025390 0.01563729 0.00527490
v 0.04496092 0.01563729 0.00527490
v 0.04619924 -0.01562368 0.00867717
v 0.04619924 0.01563729 0.00867717
v 0.04760741 -0.01562368 0.00985876
v 0.04760741 0.01563729 0.00985876
v 0.04933478 -0.01562368 0.01048747
v 0.04933478 0.01563729 0.01048747
v 0.05117302 -0.01562368 0.01048747
v 0.05117302 0.01563729 0.01048747
v 0.05290039 -0.01562368 0.00985876
v 0.05290039 0.01563729 0.00985876
v 0.05430856 -0.01562368 0.00867717
v 0.05430856 0.01563729 0.00867717
v 0.05522768 -0.01562368 0.00708521
v 0.05522768 0.01563729 0.00708521
v 0.05554688 -0.01562368 0.00527490
v 0.05554688 0.01563729 0.00527490
v 0.05522768 -0.01562368 0.00346460
v 0.05522768 0.01563729 0.00346460
v 0.05430856 -0.01562368 0.00187264
v 0.05430856 0.01563729 0.00187264
v 0.05290039 -0.01562368 0.00069105
v 0.05290039 0.01563729 0.00069105
v 0.05117302 -0.01562368 0.00006233
v 0.05117302 0.01563729 0.00006233
v 0.04933478 -0.01562368 0.00006233
v 0.04933478 0.01563729 0.00006233
v 0.04760741 -0.01562368 0.00069105
v 0.04760741 0.01563729 0.00069105
v 0.04619924 -0.01562368 0.00187264
v 0.04619924 0.01563729 0.00187264
v 0.04528012 -0.01562368 0.00346460
v 0.04528012 0.01563729 0.00346460
v 0.02773359 -0.01562368 0.00708521
v 0.02741439 -0.01562368 0.00527490
v 0.03270737 -0.01562368 0.00527490
v 0.02773359 0.01563729 0.00708521
v 0.03270737 0.01563729 0.00527490
v 0.02741439 0.01563729 0.00527490
v 0.02865271 -0.01562368 0.00867717
v 0.02865271 0.01563729 0.00867717
v 0.03006088 -0.01562368 0.00985876
v 0.03006088 0.01563729 0.00985876
v 0.03178825 -0.01562368 0.01048747
v 0.03178825 0.01563729 0.01048747
v 0.03362648 -0.01562368 0.01048747
v 0.03362648 0.01563729 0.01048747
v 0.03535386 -0.01562368 0.00985876
v 0.03535386 0.01563729 0.00985876
v 0.03676203 -0.01562368 0.00867717
v 0.03676203 0.01563729 0.00867717
v 0.03768114 -0.01562368 0.00708521
v 0.03768114 0.01563729 0.00708521
v 0.03800035 -0.01562368 0.00527490
v 0.03800035 0.01563729 0.00527490
v 0.03768114 -0.01562368 0.00346460
v 0.03768114 0.01563729 0.00346460
v 0.03676203 -0.01562368 0.00187264
v 0.03676203 0.01563729 0.00187264
v 0.03535386 -0.01562368 0.00069105
v 0.03535386 0.01563729 0.00069105
v 0.03362648 -0.01562368 0.00006233
v 0.03362648 0.01563729 0.00006233
v 0.03178825 -0.01562368 0.00006233
v 0.03178825 0.01563729 0.00006233
v 0.03006088 -0.01562368 0.00069105
v 0.03006088 0.01563729 0.00069105
v 0.02865271 -0.01562368 0.00187264
v 0.02865271 0.01563729 0.00187264
v 0.02773359 -0.01562368 0.00346460
v 0.02773359 0.01563729 0.00346460
v -0.04059098 -0.01562368 0.00708521
v -0.04091019 -0.01562368 0.00527490
v -0.03561721 -0.01562368 0.00527490
v -0.04059098 0.01563729 0.00708521
v -0.03561721 0.01563729 0.00527490
v -0.04091019 0.01563729 0.00527490
v -0.03967187 -0.01562368 0.00867717
v -0.03967187 0.01563729 0.00867717
v -0.03826370 -0.01562368 0.00985876
v -0.03826370 0.01563729 0.00985876
v -0.03653633 -0.01562368 0.01048747
v -0.03653633 0.01563729 0.01048747
v -0.03469809 -0.01562368 0.01048747
v -0.03469809 0.01563729 0.01048747
v -0.03297072 -0.01562368 0.00985876
v -0.03297072 0.01563729 0.00985876
v -0.03156255 -0.01562368 0.00867717
v -0.03156255 0.01563729 0.00867717
v -0.03064343 -0.01562368 0.00708521
v -0.03064343 0.01563729 0.00708521
v -0.03032422 -0.01562368 0.00527490
v -0.03032422 0.01563729 0.00527490
v -0.03064343 -0.01562368 0.00346460
v -0.03064343 0.01563729 0.00346460
v -0.03156255 -0.01562368 0.00187264
v -0.03156255 0.01563729 0.00187264
v -0.03297072 -0.01562368 0.00069105
v -0.03297072 0.01563729 0.00069105
v -0.03469809 -0.01562368 0.00006233
v -0.03469809 0.01563729 0.00006233
v -0.03653633 -0.01562368 0.00006233
v -0.03653633 0.01563729 0.00006233
v -0.03826370 -0.01562368 0.00069105
v -0.03826370 0.01563729 0.00069105
v -0.03967187 -0.01562368 0.00187264
v -0.03967187 0.01563729 0.00187264
v -0.04059098 -0.01562368 0.00346460
v -0.04059098 0.01563729 0.00346460
v -0.05816993 -0.01562368 0.00699353
v -0.05845672 -0.01562368 0.00527490
v -0.05316374 -0.01562368 0.00527490
v -0.05816993 0.01563729 0.00699353
v -0.05316374 0.01563729 0.00527490
v -0.05845672 0.01563729 0.00527490
v -0.05734065 -0.01562368 0.00852592
v -0.05734065 0.01563729 0.00852592
v -0.05605872 -0.01562368 0.00970601
v -0.05605872 0.01563729 0.00970601
v -0.05446309 -0.01562368 0.01040592
v -0.05446309 0.01563729 0.01040592
v -0.05272665 -0.01562368 0.01054981
v -0.05272665 0.01563729 0.01054981
v -0.05103757 -0.01562368 0.01012208
v -0.05103757 0.01563729 0.01012208
v -0.04957890 -0.01562368 0.00916908
v -0.04957890 0.01563729 0.00916908
v -0.04850870 -0.01562368 0.00779408
v -0.04850870 0.01563729 0.00779408
v -0.04794295 -0.01562368 0.00614610
v -0.04794295 0.01563729 0.00614610
v -0.04794295 -0.01562368 0.00440371
v -0.04794295 0.01563729 0.00440371
v -0.04850870 -0.01562368 0.00275572
v -0.04850870 0.01563729 0.00275572
v -0.04957890 -0.01562368 0.00138073
v -0.04957890 0.01563729 0.00138073
v -0.05103757 -0.01562368 0.00042773
v -0.05103757 0.01563729 0.00042773
v -0.05272665 -0.01562368 0.00000000
v -0.05272665 0.01563729 0.00000000
v -0.05446309 -0.01562368 0.00014389
v -0.05446309 0.01563729 0.00014389
v -0.05605872 -0.01562368 0.00084380
v -0.05605872 0.01563729 0.00084380
v -0.05734065 -0.01562368 0.00202389
v -0.05734065 0.01563729 0.00202389
v -0.05816993 -0.01562368 0.00355628
v -0.05816993 0.01563729 0.00355628
v -0.06443786 0.01143334 0.00544874
v -0.06443786 0.01143334 0.01481752
v 0.06509748 0.01143334 0.01481752
v 0.06509748 0.01143334 0.00544874
v -0.06443786 -0.01214529 0.00544874
v -0.06443786 -0.01214529 0.01481752
v 0.06509748 -0.01214529 0.00544874
v 0.06509748 -0.01214529 0.01481752
v -0.07972959 0.01688286 0.00360862
v -0.07883125 0.01702514 0.00360862
v -0.07883125 0.01411806 0.00309810
v -0.07972959 0.01688286 0.05639254
v -0.07339762 0.01411806 0.05811457
v -0.07883125 0.01702514 0.05639254
v -0.08053999 0.01646994 0.00360862
v -0.08053999 0.01646994 0.05639254
v -0.08118312 0.01582680 0.00360862
v -0.08118312 0.01582680 0.05639254
v -0.08159604 0.01501640 0.00360862
v -0.08159604 0.01501640 0.05639254
v -0.08173833 0.01411806 0.00360862
v -0.08173833 0.01411806 0.05639254
v -0.08159604 -0.01500279 0.00360862
v -0.08173833 -0.01410445 0.00360862
v -0.07883125 -0.01410445 0.00309810
v -0.08159604 -0.01500279 0.05639254
v -0.07339762 -0.01410445 0.05811457
v -0.08173833 -0.01410445 0.05639254
v -0.08118312 -0.01581319 0.00360862
v -0.08118312 -0.01581319 0.05639254
v -0.08053999 -0.01645632 0.00360862
v -0.08053999 -0.01645632 0.05639254
v -0.07972959 -0.01686925 0.00360862
v -0.07972959 -0.01686925 0.05639254
v -0.07883125 -0.01701153 0.00360862
v -0.07883125 -0.01701153 0.05639254
v 0.08399338 -0.01686925 0.00360862
v 0.08309504 -0.01701153 0.00360862
v 0.08309504 -0.01410445 0.00309810
v 0.08399338 -0.01686925 0.05639254
v 0.07766141 -0.01410445 0.05811457
v 0.08309504 -0.01701153 0.05639254
v 0.08480378 -0.01645632 0.00360862
v 0.08480378 -0.01645632 0.05639254
v 0.08544691 -0.01581319 0.00360862
v 0.08544691 -0.01581319 0.05639254
v 0.08585983 -0.01500279 0.00360862
v 0.08585983 -0.01500279 0.05639254
v 0.08600212 -0.01410445 0.00360862
v 0.08600212 -0.01410445 0.05639254
v 0.08585983 0.01501640 0.00360862
v 0.08600212 0.01411806 0.00360862
v 0.08309504 0.01411806 0.00309810
v 0.08585983 0.01501640 0.05639254
v 0.07766141 0.01411806 0.05811457
v 0.08600212 0.01411806 0.05639254
v 0.08544691 0.01582680 0.00360862
v 0.08544691 0.01582680 0.05639254
v 0.08480378 0.01646994 0.00360862
v 0.08480378 0.01646994 0.05639254
v 0.08399338 0.01688286 0.00360862
v 0.08399338 0.01688286 0.05639254
v 0.08309504 0.01702514 0.00360862
v 0.08309504 0.01702514 0.05639254
v -0.06916440 0.01411806 0.00309810
v -0.06916440 0.01702514 0.00360862
v -0.07883125 0.01964765 0.00509020
v -0.06916440 0.01964765 0.00509020
v -0.07883125 0.02172889 0.00739782
v -0.06916440 0.02172889 0.00739782
v -0.07883125 0.02306513 0.01030559
v -0.06916440 0.02306513 0.01030559
v -0.07883125 0.02352556 0.04482121
v -0.07883125 0.02306513 0.04804450
v 0.08309504 0.02306513 0.04804450
v 0.08309504 0.02352556 0.04482121
v -0.07883125 0.02172889 0.05115420
v 0.08309504 0.02172889 0.05115420
v -0.07883125 0.01964765 0.05434434
v 0.08309504 0.01964765 0.05434434
v -0.08053999 0.01937701 0.00509020
v -0.08118312 0.02135639 0.00739782
v -0.08159604 0.02262723 0.01030559
v -0.08173833 0.02306513 0.01352888
v -0.07883125 0.02352556 0.01352888
v -0.08173833 0.02306513 0.04482121
v -0.08159604 0.02262723 0.04804450
v -0.08118312 0.02135639 0.05115420
v -0.08053999 0.01937701 0.05434434
v -0.08208146 0.01859159 0.00509020
v -0.08330478 0.02027535 0.00739782
v -0.08409020 0.02135639 0.01030559
v -0.08436084 0.02172889 0.01352888
v -0.08436084 0.02172889 0.04482121
v -0.08409020 0.02135639 0.04804450
v -0.08330478 0.02027535 0.05115420
v -0.08208146 0.01859159 0.05434434
v -0.08330478 0.01736827 0.00509020
v -0.08498854 0.01859159 0.00739782
v -0.08606957 0.01937701 0.01030559
v -0.08644208 0.01964765 0.01352888
v -0.08644208 0.01964765 0.04482121
v -0.08606957 0.01937701 0.04804450
v -0.08498854 0.01859159 0.05115420
v -0.08330478 0.01736827 0.05434434
v -0.08409020 0.01582680 0.00509020
v -0.08606957 0.01646994 0.00739782
v -0.08734042 0.01688286 0.01030559
v -0.08777832 0.01702514 0.01352888
v -0.08777832 0.01702514 0.04482121
v -0.08734042 0.01688286 0.04804450
v -0.08606957 0.01646994 0.05115420
v -0.08409020 0.01582680 0.05434434
v -0.08436084 0.01411806 0.00509020
v -0.08644208 0.01411806 0.00739782
v -0.08777832 0.01411806 0.01030559
v -0.08823875 0.01411806 0.01352888
v -0.08823875 0.01411806 0.04482121
v -0.08777832 0.01411806 0.04804450
v -0.08644208 0.01411806 0.05115420
v -0.08436084 0.01411806 0.05434434
v -0.08436084 -0.01410445 0.00509020
v -0.08644208 -0.01410445 0.00739782
v -0.08777832 -0.01410445 0.01030559
v -0.08823875 -0.01410445 0.01352888
v -0.08823875 -0.01410445 0.04482121
v -0.08777832 -0.01410445 0.04804450
v -0.08644208 -0.01410445 0.05115420
v -0.08436084 -0.01410445 0.05434434
v -0.08409020 -0.01581319 0.00509020
v -0.08606957 -0.01645632 0.00739782
v -0.08734042 -0.01686925 0.01030559
v -0.08777832 -0.01701153 0.01352888
v -0.08777832 -0.01701153 0.04482121
v -0.08734042 -0.01686925 0.04804450
v -0.08606957 -0.01645632 0.05115420
v -0.08409020 -0.01581319 0.05434434
v -0.08330478 -0.01735466 0.00509020
v -0.08498854 -0.01857798 0.00739782
v -0.08606957 -0.01936340 0.01030559
v -0.08644208 -0.01963404 0.01352888
v -0.08644208 -0.01963404 0.04482121
v -0.08606957 -0.01936340 0.04804450
v -0.08498854 -0.01857798 0.05115420
v -0.08330478 -0.01735466 0.05434434
v -0.08208146 -0.01857798 0.00509020
v -0.08330478 -0.02026174 0.00739782
v -0.08409020 -0.02134278 0.01030559
v -0.08436084 -0.02171528 0.01352888
v -0.08436084 -0.02171528 0.04482121
v -0.08409020 -0.02134278 0.04804450
v -0.08330478 -0.02026174 0.05115420
v -0.08208146 -0.01857798 0.05434434
v -0.08053999 -0.01936340 0.00509020
v -0.08118312 -0.02134278 0.00739782
v -0.08159604 -0.02261362 0.01030559
v -0.08173833 -0.02305152 0.01352888
v -0.08173833 -0.02305152 0.04482121
v -0.08159604 -0.02261362 0.04804450
v -0.08118312 -0.02134278 0.05115420
v -0.08053999 -0.01936340 0.05434434
v -0.07883125 -0.01963404 0.00509020
v -0.07883125 -0.02171528 0.00739782
v -0.07883125 -0.02305152 0.01030559
v -0.07883125 -0.02351195 0.01352888
v -0.07883125 -0.02351195 0.04482121
v -0.07883125 -0.02305152 0.04804450
v -0.07883125 -0.02171528 0.05115420
v -0.07883125 -0.01963404 0.05434434
v 0.06576358 -0.01410445 0.00309810
v 0.06575729 -0.01701153 0.00360862
v 0.08309504 -0.01963404 0.00509020
v 0.06573906 -0.01963404 0.00509020
v 0.08309504 -0.02171528 0.00739782
v 0.06571066 -0.02171528 0.00739782
v 0.08309504 -0.02305152 0.01030559
v 0.06567488 -0.02305152 0.01030559
v 0.08309504 -0.02351195 0.04482121
v 0.08309504 -0.02305152 0.04804450
v 0.08309504 -0.02171528 0.05115420
v 0.08309504 -0.01963404 0.05434434
v 0.08480378 -0.01936340 0.00509020
v 0.08544691 -0.02134278 0.00739782
v 0.08585983 -0.02261362 0.01030559
v 0.08600212 -0.02305152 0.01352888
v 0.08309504 -0.02351195 0.01352888
v 0.08600212 -0.02305152 0.04482121
v 0.08585983 -0.02261362 0.04804450
v 0.08544691 -0.02134278 0.05095227
v 0.08480378 -0.01936340 0.05434434
v 0.08634525 -0.01857798 0.00509020
v 0.08756857 -0.02026174 0.00739782
v 0.08835399 -0.02134278 0.01030559
v 0.08862463 -0.02171528 0.01352888
v 0.08862463 -0.02171528 0.04482121
v 0.08835399 -0.02134278 0.04804450
v 0.08756857 -0.02026174 0.05095227
v 0.08634525 -0.01857798 0.05434434
v 0.08756857 -0.01735466 0.00509020
v 0.08925233 -0.01857798 0.00739782
v 0.09033336 -0.01936340 0.01030559
v 0.09070587 -0.01963404 0.01352888
v 0.09070587 -0.01963404 0.04482121
v 0.09033336 -0.01936340 0.04804450
v 0.08925233 -0.01857798 0.05095227
v 0.08756857 -0.01735466 0.05434434
v 0.08835399 -0.01581319 0.00509020
v 0.09033336 -0.01645632 0.00739782
v 0.09160421 -0.01686925 0.01030559
v 0.09204211 -0.01701153 0.01352888
v 0.09204211 -0.01701153 0.04482121
v 0.09160421 -0.01686925 0.04804450
v 0.09033336 -0.01645632 0.05095227
v 0.08835399 -0.01581319 0.05434434
v 0.08862463 -0.01410445 0.00509020
v 0.09070587 -0.01410445 0.00739782
v 0.09204211 -0.01410445 0.01030559
v 0.09250254 -0.01410445 0.01352888
v 0.09250254 -0.01410445 0.04482121
v 0.09204211 -0.01410445 0.04804450
v 0.09070587 -0.01410445 0.05115420
v 0.08862463 -0.01410445 0.05434434
v 0.08862463 0.01411806 0.00509020
v 0.09070587 0.01411806 0.00739782
v 0.09204211 0.01411806 0.01030559
v 0.09250254 0.01411806 0.01352888
v 0.09250254 0.01411806 0.04482121
v 0.09204211 0.01411806 0.04804450
v 0.09070587 0.01411806 0.05115420
v 0.08862463 0.01411806 0.05434434
v 0.08835399 0.01582680 0.00509020
v 0.09033336 0.01646994 0.00739782
v 0.09160421 0.01688286 0.01030559
v 0.09204211 0.01702514 0.01352888
v 0.09204211 0.01702514 0.04482121
v 0.09160421 0.01688286 0.04804450
v 0.09033336 0.01646994 0.05115420
v 0.08835399 0.01582680 0.05434434
v 0.08756857 0.01736827 0.00509020
v 0.08925233 0.01859159 0.00739782
v 0.09033336 0.01937701 0.01030559
v 0.09070587 0.01964765 0.01352888
v 0.09070587 0.01964765 0.04482121
v 0.09033336 0.01937701 0.04804450
v 0.08925233 0.01859159 0.05115420
v 0.08756857 0.01736827 0.05434434
v 0.08634525 0.01859159 0.00509020
v 0.08756857 0.02027535 0.00739782
v 0.08835399 0.02135639 0.01030559
v 0.08862463 0.02172889 0.01352888
v 0.08862463 0.02172889 0.04482121
v 0.08835399 0.02135639 0.04804450
v 0.08756857 0.02027535 0.05115420
v 0.08634525 0.01859159 0.05434434
v 0.08480378 0.01937701 0.00509020
v 0.08544691 0.02135639 0.00739782
v 0.08585983 0.02262723 0.01030559
v 0.08600212 0.02306513 0.01352888
v 0.08600212 0.02306513 0.04482121
v 0.08585983 0.02262723 0.04804450
v 0.08544691 0.02135639 0.05115420
v 0.08480378 0.01937701 0.05434434
v 0.08309504 0.01964765 0.00509020
v 0.08309504 0.02172889 0.00739782
v 0.08309504 0.02306513 0.01030559
v 0.08309504 0.02352556 0.01352888
v 0.06576358 0.01411806 0.00309810
v -0.05811711 0.01702514 0.00926161
v 0.05360239 0.01702514 0.00955583
v 0.05361495 0.01411806 0.00949835
v -0.05812539 0.01411806 0.00918195
v -0.05809311 0.01964765 0.00949279
v 0.05356592 0.01964765 0.00972266
v -0.05805572 0.02172889 0.00985286
v 0.05350912 0.02172889 0.00998250
v -0.05800861 0.02306513 0.01030657
v 0.05343755 0.02306513 0.01030992
v -0.06916440 0.02352556 0.01352888
v -0.05811711 -0.01701153 0.00926161
v -0.06916440 -0.01701153 0.00360862
v -0.06916440 -0.01410445 0.00309810
v -0.05812539 -0.01410445 0.00918195
v -0.05809311 -0.01963404 0.00949279
v -0.06916440 -0.01963404 0.00509020
v -0.05805572 -0.02171528 0.00985286
v -0.06916440 -0.02171528 0.00739782
v -0.05800861 -0.02305152 0.01030657
v -0.06916440 -0.02305152 0.01030559
v -0.05795638 -0.02351195 0.01352888
v -0.06916440 -0.02351195 0.01352888
v 0.05360239 -0.01701153 0.00955583
v 0.05361495 -0.01410445 0.00949835
v 0.05356592 -0.01963404 0.00972266
v 0.05350912 -0.02171528 0.00998250
v 0.05343755 -0.02305152 0.01030992
v 0.06575729 0.01702514 0.00360862
v 0.06573906 0.01964765 0.00509020
v 0.06571066 0.02172889 0.00739782
v 0.06567488 0.02306513 0.01030559
v -0.05795638 0.02352556 0.01352888
f 1 2 3
f 4 5 6
f 7 1 3
f 8 5 4
f 9 7 3
f 10 5 8
f 11 9 3
f 12 5 10
f 13 11 3
f 14 5 12
f 15 13 3
f 16 5 14
f 17 15 3
f 18 5 16
f 19 17 3
f 20 5 18
f 21 19 3
f 22 5 20
f 23 21 3
f 24 5 22
f 25 23 3
f 26 5 24
f 27 25 3
f 28 5 26
f 29 27 3
f 30 5 28
f 31 29 3
f 32 5 30
f 33 31 3
f 34 5 32
f 35 33 3
f 36 5 34
f 37 35 3
f 38 5 36
f 2 37 3
f 6 5 38
f 39 40 41
f 42 43 44
f 45 39 41
f 46 43 42
f 47 45 41
f 48 43 46
f 49 47 41
f 50 43 48
f 51 49 41
f 52 43 50
f 53 51 41
f 54 43 52
f 55 53 41
f 56 43 54
f 57 55 41
f 58 43 56
f 59 57 41
f 60 43 58
f 61 59 41
f 62 43 60
f 63 61 41
f 64 43 62
f 65 63 41
f 66 43 64
f 67 65 41
f 68 43 66
f 69 67 41
f 70 43 68
f 71 69 41
f 72 43 70
f 73 71 41
f 74 43 72
f 75 73 41
f 76 43 74
f 40 75 41
f 44 43 76
f 77 78 79
f 80 81 82
f 83 77 79
f 84 81 80
f 85 83 79
f 86 81 84
f 87 85 79
f 88 81 86
f 89 87 79
f 90 81 88
f 91 89 79
f 92 81 90
f 93 91 79
f 94 81 92
f 95 93 79
f 96 81 94
f 97 95 79
f 98 81 96
f 99 97 79
f 100 81 98
f 101 99 79
f 102 81 100
f 103 101 79
f 104 81 102
f 105 103 79
f 106 81 104
f 107 105 79
f 108 81 106
f 109 107 79
f 110 81 108
f 111 109 79
f 112 81 110
f 113 111 79
f 114 81 112
f 78 113 79
f 82 81 114
f 115 116 117
f 118 119 120
f 121 115 117
f 122 119 118
f 123 121 117
f 124 119 122
f 125 123 117
f 126 119 124
f 127 125 117
f 128 119 126
f 129 127 117
f 130 119 128
f 131 129 117
f 132 119 130
f 133 131 117
f 134 119 132
f 135 133 117
f 136 119 134
f 137 135 117
f 138 119 136
f 139 137 117
f 140 119 138
f 141 139 117
f 142 119 140
f 143 141 117
f 144 119 142
f 145 143 117
f 146 119 144
f 147 145 117
f 148 119 146
f 149 147 117
f 150 119 148
f 151 149 117
f 152 119 150
f 153 151 117
f 154 119 152
f 116 153 117
f 120 119 154
f 155 156 157
f 155 157 158
f 159 160 156
f 159 156 155
f 161 162 160
f 161 160 159
f 158 157 162
f 158 162 161
f 156 160 162
f 156 162 157
f 159 155 158
f 159 158 161
f 1 4 6
f 1 6 2
f 7 8 4
f 7 4 1
f 9 10 8
f 9 8 7
f 11 12 10
f 11 10 9
f 13 14 12
f 13 12 11
f 15 16 14
f 15 14 13
f 17 18 16
f 17 16 15
f 19 20 18
f 19 18 17
f 21 22 20
f 21 20 19
f 23 24 22
f 23 22 21
f 25 26 24
f 25 24 23
f 27 28 26
f 27 26 25
f 29 30 28
f 29 28 27
f 31 32 30
f 31 30 29
f 33 34 32
f 33 32 31
f 35 36 34
f 35 34 33
f 37 38 36
f 37 36 35
f 2 6 38
f 2 38 37
f 39 42 44
f 39 44 40
f 45 46 42
f 45 42 39
f 47 48 46
f 47 46 45
f 49 50 48
f 49 48 47
f 51 52 50
f 51 50 49
f 53 54 52
f 53 52 51
f 55 56 54
f 55 54 53
f 57 58 56
f 57 56 55
f 59 60 58
f 59 58 57
f 61 62 60
f 61 60 59
f 63 64 62
f 63 62 61
f 65 66 64
f 65 64 63
f 67 68 66
f 67 66 65
f 69 70 68
f 69 68 67
f 71 72 70
f 71 70 69
f 73 74 72
f 73 72 71
f 75 76 74
f 75 74 73
f 40 44 76
f 40 76 75
f 77 80 82
f 77 82 78
f 83 84 80
f 83 80 77
f 85 86 84
f 85 84 83
f 87 88 86
f 87 86 85
f 89 90 88
f 89 88 87
f 91 92 90
f 91 90 89
f 93 94 92
f 93 92 91
f 95 96 94
f 95 94 93
f 97 98 96
f 97 96 95
f 99 100 98
f 99 98 97
f 101 102 100
f 101 100 99
f 103 104 102
f 103 102 101
f 105 106 104
f 105 104 103
f 107 108 106
f 107 106 105
f 109 110 108
f 109 108 107
f 111 112 110
f 111 110 109
f 113 114 112
f 113 112 111
f 78 82 114
f 78 114 113
f 115 118 120
f 115 120 116
f 121 122 118
f 121 118 115
f 123 124 122
f 123 122 121
f 125 126 124
f 125 124 123
f 127 128 126
f 127 126 125
f 129 130 128
f 129 128 127
f 131 132 130
f 131 130 129
f 133 134 132
f 133 132 131
f 135 136 134
f 135 134 133
f 137 138 136
f 137 136 135
f 139 140 138
f 139 138 137
f 141 142 140
f 141 140 139
f 143 144 142
f 143 142 141
f 145 146 144
f 145 144 143
f 147 148 146
f 147 146 145
f 149 150 148
f 149 148 147
f 151 152 150
f 151 150 149
f 153 154 152
f 153 152 151
f 116 120 154
f 116 154 153
f 163 164 165
f 166 167 168
f 169 163 165
f 170 167 166
f 171 169 165
f 172 167 170
f 173 171 165
f 174 167 172
f 175 173 165
f 176 167 174
f 177 178 179
f 180 181 182
f 183 177 179
f 184 181 180
f 185 183 179
f 186 181 184
f 187 185 179
f 188 181 186
f 189 187 179
f 190 181 188
f 191 192 193
f 194 195 196
f 197 191 193
f 198 195 194
f 199 197 193
f 200 195 198
f 201 199 193
f 202 195 200
f 203 201 193
f 204 195 202
f 205 206 207
f 208 209 210
f 211 205 207
f 212 209 208
f 213 211 207
f 214 209 212
f 215 213 207
f 216 209 214
f 217 215 207
f 218 209 216
f 219 165 164
f 219 164 220
f 220 164 221
f 220 221 222
f 222 221 223
f 222 223 224
f 224 223 225
f 224 225 226
f 227 228 229
f 227 229 230
f 228 231 232
f 228 232 229
f 231 233 234
f 231 234 232
f 233 168 218
f 233 218 234
f 168 167 209
f 168 209 218
f 163 235 221
f 163 221 164
f 235 236 223
f 235 223 221
f 236 237 225
f 236 225 223
f 237 238 239
f 237 239 225
f 238 240 227
f 238 227 239
f 240 241 228
f 240 228 227
f 241 242 231
f 241 231 228
f 242 243 233
f 242 233 231
f 243 166 168
f 243 168 233
f 169 244 235
f 169 235 163
f 244 245 236
f 244 236 235
f 245 246 237
f 245 237 236
f 246 247 238
f 246 238 237
f 247 248 240
f 247 240 238
f 248 249 241
f 248 241 240
f 249 250 242
f 249 242 241
f 250 251 243
f 250 243 242
f 251 170 166
f 251 166 243
f 171 252 244
f 171 244 169
f 252 253 245
f 252 245 244
f 253 254 246
f 253 246 245
f 254 255 247
f 254 247 246
f 255 256 248
f 255 248 247
f 256 257 249
f 256 249 248
f 257 258 250
f 257 250 249
f 258 259 251
f 258 251 250
f 259 172 170
f 259 170 251
f 173 260 252
f 173 252 171
f 260 261 253
f 260 253 252
f 261 262 254
f 261 254 253
f 262 263 255
f 262 255 254
f 263 264 256
f 263 256 255
f 264 265 257
f 264 257 256
f 265 266 258
f 265 258 257
f 266 267 259
f 266 259 258
f 267 174 172
f 267 172 259
f 175 268 260
f 175 260 173
f 268 269 261
f 268 261 260
f 269 270 262
f 269 262 261
f 270 271 263
f 270 263 262
f 271 272 264
f 271 264 263
f 272 273 265
f 272 265 264
f 273 274 266
f 273 266 265
f 274 275 267
f 274 267 266
f 275 176 174
f 275 174 267
f 179 178 175
f 179 175 165
f 178 276 268
f 178 268 175
f 276 277 269
f 276 269 268
f 277 278 270
f 277 270 269
f 278 279 271
f 278 271 270
f 279 280 272
f 279 272 271
f 280 281 273
f 280 273 272
f 281 282 274
f 281 274 273
f 282 283 275
f 282 275 274
f 283 182 176
f 283 176 275
f 182 181 167
f 182 167 176
f 177 284 276
f 177 276 178
f 284 285 277
f 284 277 276
f 285 286 278
f 285 278 277
f 286 287 279
f 286 279 278
f 287 288 280
f 287 280 279
f 288 289 281
f 288 281 280
f 289 290 282
f 289 282 281
f 290 291 283
f 290 283 282
f 291 180 182
f 291 182 283
f 183 292 284
f 183 284 177
f 292 293 285
f 292 285 284
f 293 294 286
f 293 286 285
f 294 295 287
f 294 287 286
f 295 296 288
f 295 288 287
f 296 297 289
f 296 289 288
f 297 298 290
f 297 290 289
f 298 299 291
f 298 291 290
f 299 184 180
f 299 180 291
f 185 300 292
f 185 292 183
f 300 301 293
f 300 293 292
f 301 302 294
f 301 294 293
f 302 303 295
f 302 295 294
f 303 304 296
f 303 296 295
f 304 305 297
f 304 297 296
f 305 306 298
f 305 298 297
f 306 307 299
f 306 299 298
f 307 186 184
f 307 184 299
f 187 308 300
f 187 300 185
f 308 309 301
f 308 301 300
f 309 310 302
f 309 302 301
f 310 311 303
f 310 303 302
f 311 312 304
f 311 304 303
f 312 313 305
f 312 305 304
f 313 314 306
f 313 306 305
f 314 315 307
f 314 307 306
f 315 188 186
f 315 186 307
f 189 316 308
f 189 308 187
f 316 317 309
f 316 309 308
f 317 318 310
f 317 310 309
f 318 319 311
f 318 311 310
f 319 320 312
f 319 312 311
f 320 321 313
f 320 313 312
f 321 322 314
f 321 314 313
f 322 323 315
f 322 315 314
f 323 190 188
f 323 188 315
f 324 193 192
f 324 192 325
f 325 192 326
f 325 326 327
f 327 326 328
f 327 328 329
f 329 328 330
f 329 330 331
f 332 333 321
f 332 321 320
f 333 334 322
f 333 322 321
f 334 335 323
f 334 323 322
f 335 196 190
f 335 190 323
f 196 195 181
f 196 181 190
f 191 336 326
f 191 326 192
f 336 337 328
f 336 328 326
f 337 338 330
f 337 330 328
f 338 339 340
f 338 340 330
f 339 341 332
f 339 332 340
f 341 342 333
f 341 333 332
f 342 343 334
f 342 334 333
f 343 344 335
f 343 335 334
f 344 194 196
f 344 196 335
f 197 345 336
f 197 336 191
f 345 346 337
f 345 337 336
f 346 347 338
f 346 338 337
f 347 348 339
f 347 339 338
f 348 349 341
f 348 341 339
f 349 350 342
f 349 342 341
f 350 351 343
f 350 343 342
f 351 352 344
f 351 344 343
f 352 198 194
f 352 194 344
f 199 353 345
f 199 345 197
f 353 354 346
f 353 346 345
f 354 355 347
f 354 347 346
f 355 356 348
f 355 348 347
f 356 357 349
f 356 349 348
f 357 358 350
f 357 350 349
f 358 359 351
f 358 351 350
f 359 360 352
f 359 352 351
f 360 200 198
f 360 198 352
f 201 361 353
f 201 353 199
f 361 362 354
f 361 354 353
f 362 363 355
f 362 355 354
f 363 364 356
f 363 356 355
f 364 365 357
f 364 357 356
f 365 366 358
f 365 358 357
f 366 367 359
f 366 359 358
f 367 368 360
f 367 360 359
f 368 202 200
f 368 200 360
f 203 369 361
f 203 361 201
f 369 370 362
f 369 362 361
f 370 371 363
f 370 363 362
f 371 372 364
f 371 364 363
f 372 373 365
f 372 365 364
f 373 374 366
f 373 366 365
f 374 375 367
f 374 367 366
f 375 376 368
f 375 368 367
f 376 204 202
f 376 202 368
f 207 206 203
f 207 203 193
f 206 377 369
f 206 369 203
f 377 378 370
f 377 370 369
f 378 379 371
f 378 371 370
f 379 380 372
f 379 372 371
f 380 381 373
f 380 373 372
f 381 382 374
f 381 374 373
f 382 383 375
f 382 375 374
f 383 384 376
f 383 376 375
f 384 210 204
f 384 204 376
f 210 209 195
f 210 195 204
f 205 385 377
f 205 377 206
f 385 386 378
f 385 378 377
f 386 387 379
f 386 379 378
f 387 388 380
f 387 380 379
f 388 389 381
f 388 381 380
f 389 390 382
f 389 382 381
f 390 391 383
f 390 383 382
f 391 392 384
f 391 384 383
f 392 208 210
f 392 210 384
f 211 393 385
f 211 385 205
f 393 394 386
f 393 386 385
f 394 395 387
f 394 387 386
f 395 396 388
f 395 388 387
f 396 397 389
f 396 389 388
f 397 398 390
f 397 390 389
f 398 399 391
f 398 391 390
f 399 400 392
f 399 392 391
f 400 212 208
f 400 208 392
f 213 401 393
f 213 393 211
f 401 402 394
f 401 394 393
f 402 403 395
f 402 395 394
f 403 404 396
f 403 396 395
f 404 405 397
f 404 397 396
f 405 406 398
f 405 398 397
f 406 407 399
f 406 399 398
f 407 408 400
f 407 400 399
f 408 214 212
f 408 212 400
f 215 409 401
f 215 401 213
f 409 410 402
f 409 402 401
f 410 411 403
f 410 403 402
f 411 412 404
f 411 404 403
f 412 413 405
f 412 405 404
f 413 414 406
f 413 406 405
f 414 415 407
f 414 407 406
f 415 416 408
f 415 408 407
f 416 216 214
f 416 214 408
f 217 417 409
f 217 409 215
f 417 418 410
f 417 410 409
f 418 419 411
f 418 411 410
f 419 420 412
f 419 412 411
f 420 230 413
f 420 413 412
f 230 229 414
f 230 414 413
f 229 232 415
f 229 415 414
f 232 234 416
f 232 416 415
f 234 218 216
f 234 216 416
f 167 181 195
f 167 195 209
f 193 324 421
f 193 421 207
f 422 423 424
f 422 424 425
f 426 427 423
f 426 423 422
f 428 429 427
f 428 427 426
f 430 431 429
f 430 429 428
f 226 225 239
f 226 239 432
f 433 434 435
f 433 435 436
f 437 438 434
f 437 434 433
f 439 440 438
f 439 438 437
f 441 442 440
f 441 440 439
f 443 444 442
f 443 442 441
f 436 435 219
f 436 219 425
f 445 433 436
f 445 436 446
f 447 437 433
f 447 433 445
f 448 439 437
f 448 437 447
f 449 441 439
f 449 439 448
f 446 436 425
f 446 425 424
f 423 450 421
f 423 421 424
f 427 451 450
f 427 450 423
f 429 452 451
f 429 451 427
f 431 453 452
f 431 452 429
f 325 445 446
f 325 446 324
f 327 447 445
f 327 445 325
f 329 448 447
f 329 447 327
f 331 449 448
f 331 448 329
f 324 446 424
f 324 424 421
f 450 217 207
f 450 207 421
f 451 417 217
f 451 217 450
f 452 418 417
f 452 417 451
f 453 419 418
f 453 418 452
f 220 422 425
f 220 425 219
f 222 426 422
f 222 422 220
f 224 428 426
f 224 426 222
f 226 430 428
f 226 428 224
f 432 454 430
f 432 430 226
f 434 189 179
f 434 179 435
f 438 316 189
f 438 189 434
f 440 317 316
f 440 316 438
f 442 318 317
f 442 317 440
f 444 319 318
f 444 318 442
f 435 179 165
f 435 165 219
f 454 230 420
f 230 454 227
f 227 454 432
f 227 432 239
f 320 340 332
f 340 320 443
f 443 320 444
f 444 320 319
f 453 420 419
f 420 453 454
f 454 453 431
f 454 431 430
f 443 330 340
f 330 443 331
f 331 443 449
f 449 443 441
f 158 157 156
f 156 155 158
f 155 156 160
f 160 159 155
f 159 160 162
f 162 161 159
f 161 162 157
f 157 158 161
f 157 162 160
f 160 156 157
f 161 158 155
f 155 159 161
f 329 448 331
f 224 428 226