# https://github.com/mikedh/trimesh
v 0.01312870 -0.00737558 0.04181494
v 0.01201269 -0.00737558 0.03887291
v 0.01026464 -0.00737558 0.03632212
v 0.01378796 -0.00737558 0.04493303
v 0.01385555 -0.00737558 0.04805731
v 0.01337172 -0.00737558 0.05124682
v 0.01248788 -0.00737558 0.05435655
v 0.01135113 -0.00737558 0.05734543
v 0.00994990 -0.00737558 0.06014719
v 0.00809089 -0.00737558 0.06254600
v 0.00586402 -0.00737558 0.06445563
v 0.00387635 -0.00737558 0.06554289
v 0.00095430 -0.00737558 0.06627058
v -0.00206688 -0.00737558 0.06627379
v -0.00551633 -0.00737558 0.06540394
v -0.00750637 -0.00737558 0.06426962
v -0.00929849 -0.00737558 0.06259661
v -0.01111775 -0.00737558 0.06014719
v -0.01251919 -0.00737558 0.05734543
v -0.01365469 -0.00737558 0.05435655
v -0.01453581 -0.00737558 0.05124682
v -0.01501686 -0.00737558 0.04805731
v -0.01494835 -0.00737558 0.04493303
v -0.01428930 -0.00737558 0.04181494
v -0.01317309 -0.00737558 0.03887291
v -0.01142518 -0.00737558 0.03632212
v -0.00787436 -0.00737558 0.03327275
v 0.00671375 -0.00737558 0.03327275
v 0.00750222 0.01648088 0.00000000
v -0.00857086 0.01648088 0.00000000
v 0.00750222 0.01648088 0.00090055
v 0.00814533 0.01592173 0.00090055
v 0.00814533 0.01592173 0.00000000
v 0.00625846 -0.01518382 0.00090034
v 0.00625846 -0.01518382 0.00000007
v 0.00561556 -0.01574297 0.00000007
v 0.00561556 -0.01574297 0.00090034
v 0.00561556 -0.01518382 0.00154345
v 0.00750222 0.01592173 0.00154345
v -0.00857086 0.01648088 0.00090055
v -0.00921383 0.01592173 0.00000000
v -0.00921383 0.01592173 0.00090055
v -0.00857086 0.01592173 0.00154345
v -0.00743975 -0.01518382 0.00090034
v -0.00679685 -0.01518382 0.00154345
v -0.00679685 -0.01574297 0.00090034
v -0.00679685 -0.01574297 0.00000007
v -0.00743975 -0.01518382 0.00000007
v -0.00608489 0.02493167 0.03270343
v -0.00244315 0.02592306 0.03271485
v -0.01010060 0.02228864 0.03273594
v -0.00827889 0.02380807 0.03271213
v 0.00200557 0.02119087 0.03257958
v 0.00427038 0.02506923 0.03271095
v 0.00396936 0.01978839 0.03253538
v 0.00646188 0.02399248 0.03271805
v 0.00492804 0.01859782 0.03250343
v 0.00891695 0.02210081 0.03273970
v 0.01096650 0.01972448 0.03273879
v 0.01251148 0.01694932 0.03271464
v 0.00691647 0.01505745 0.03247593
v 0.01364879 0.01398850 0.03269709
v 0.01435330 0.01090821 0.03268658
v 0.00763483 0.01307166 0.03245623
v 0.00809207 0.01061499 0.03242726
v 0.01461833 0.00774877 0.03269459
v 0.00816893 0.00848719 0.03241237
v 0.01443977 0.00465394 0.03272014
v 0.00784131 0.00563803 0.03240617
v 0.01374751 0.00156530 0.03276114
v 0.00718519 0.00363463 0.03239016
v 0.00605219 0.00164376 0.03236127
v 0.01257560 -0.00134902 0.03281530
v 0.01074018 -0.00387565 0.03278690
v 0.00701177 -0.00700390 0.03261843
v 0.00443690 0.00000354 0.03233127
v 0.00235400 -0.00132048 0.03230015
v -0.00064693 -0.00700314 0.03258968
v -0.00064693 -0.00152083 0.03223290
v -0.00364806 -0.00132062 0.03230015
v -0.00830570 -0.00700390 0.03261843
v -0.00573075 0.00000340 0.03233127
v -0.00734604 0.00164376 0.03236127
v -0.01203424 -0.00387565 0.03278690
v -0.01386945 -0.00134902 0.03281530
v -0.00913538 0.00563803 0.03240617
v -0.01504136 0.00156530 0.03276114
v -0.01573383 0.00465394 0.03272014
v -0.00946306 0.00848719 0.03241237
v -0.01591225 0.00774877 0.03269459
v -0.01564723 0.01090821 0.03268658
v -0.00941266 0.01061513 0.03243047
v -0.00906841 0.01275024 0.03246186
v -0.01494286 0.01398850 0.03269709
v -0.01380554 0.01694932 0.03271464
v -0.01226056 0.01972448 0.03273879
v -0.00839710 0.01481679 0.03248338
v -0.00721203 0.01760761 0.03249827
v -0.00594273 0.01937376 0.03251637
v -0.00437840 0.02074226 0.03253698
v -0.00185358 0.02186134 0.03259894
v 0.00104070 0.02591986 0.03271589
v 0.00049435 0.02183147 0.03260653
v 0.00575361 -0.00766010 0.03365083
v 0.00575361 -0.00868011 0.03365083
v 0.00575361 -0.00941957 0.03242358
v 0.00575361 -0.00684059 0.03242358
v 0.00215218 -0.00868011 0.03365083
v 0.00215218 -0.00766010 0.03365083
v 0.00215218 -0.00684059 0.03242358
v 0.00215218 -0.00941943 0.03242358
v -0.00328522 -0.00766010 0.03365083
v -0.00328522 -0.00868011 0.03365083
v -0.00328522 -0.00941957 0.03242358
v -0.00328522 -0.00684059 0.03242358
v -0.00688665 -0.00868011 0.03365083
v -0.00688665 -0.00766010 0.03365083
v -0.00688665 -0.00684059 0.03242358
v -0.00688665 -0.00941943 0.03242358
v 0.00598759 -0.00882582 0.03501551
v 0.00918664 -0.00882582 0.03785666
v 0.01076127 -0.00882582 0.04015454
v -0.00715488 -0.00882582 0.03501551
v -0.01035393 -0.00882582 0.03785666
v -0.01192864 -0.00882582 0.04015454
v -0.01293416 -0.00882582 0.04280508
v -0.01351232 -0.00882582 0.04561414
v -0.01353544 -0.00882582 0.04842885
v -0.01311043 -0.00882582 0.05130217
v -0.01234647 -0.00882582 0.05410378
v -0.01133962 -0.00882582 0.05679658
v -0.01007721 -0.00882582 0.05932057
v -0.00843811 -0.00882582 0.06152711
v -0.00682344 -0.00882582 0.06303436
v -0.00503084 -0.00882582 0.06405625
v -0.00193022 -0.00882582 0.06480615
v 0.00079119 -0.00882582 0.06480329
v 0.00343116 -0.00882582 0.06418155
v 0.00522182 -0.00882582 0.06320206
v 0.00722779 -0.00882582 0.06148172
v 0.00890274 -0.00882582 0.05932057
v 0.01016523 -0.00882582 0.05679658
v 0.01117312 -0.00882582 0.05410378
v 0.01193903 -0.00882582 0.05130217
v 0.01236647 -0.00882582 0.04842885
v 0.01234503 -0.00882582 0.04561414
v 0.01176687 -0.00882582 0.04280508
v -0.00968597 -0.00686453 0.05936137
v -0.00920033 -0.00686453 0.05887552
v -0.00968597 -0.00658670 0.05887552
v -0.00968597 -0.00753904 0.05947303
v -0.00908852 -0.00753904 0.05887552
v -0.00968597 -0.00753904 0.05827807
v -0.00968597 -0.00686453 0.05838967
v -0.01017181 -0.00686453 0.05887552
v -0.01028348 -0.00753904 0.05887552
v 0.00885722 -0.00686453 0.05936137
v 0.00934286 -0.00686453 0.05887552
v 0.00885722 -0.00658670 0.05887552
v 0.00885722 -0.00753904 0.05947303
v 0.00945473 -0.00753904 0.05887552
v 0.00885722 -0.00753904 0.05827807
v 0.00885722 -0.00686453 0.05838967
v 0.00837137 -0.00686453 0.05887552
v 0.00825970 -0.00753904 0.05887552
v -0.02029756 -0.02489346 0.05463432
v -0.01918990 -0.02637830 0.05667406
v -0.02051858 -0.02489346 0.05667406
v -0.01896894 -0.02637830 0.05463432
v -0.02029756 -0.01107162 0.05463432
v -0.02051858 -0.01085776 0.05667406
v -0.01918990 -0.01085776 0.05792596
v -0.01918990 -0.02489346 0.05792603
v 0.01812181 -0.02637830 0.05667406
v 0.01788129 -0.02637830 0.05463432
v -0.01896894 -0.00958678 0.05463432
v -0.01918990 -0.00937293 0.05667406
v 0.01812181 -0.01085776 0.05792596
v 0.01812181 -0.02489346 0.05792603
v 0.01945043 -0.02489346 0.05667406
v 0.01920990 -0.02489346 0.05463432
v 0.01921011 -0.01107162 0.05463432
v 0.01945043 -0.01085776 0.05667406
v 0.01812181 -0.00937293 0.05667406
v 0.01788129 -0.00958678 0.05463432
v 0.01648619 -0.02564594 0.05463432
v 0.01771428 -0.02429066 0.05463432
v -0.01757384 -0.02564594 0.05463432
v -0.01880186 -0.02429066 0.05463432
v -0.01880186 -0.01167442 0.05463432
v -0.01757384 -0.01031914 0.05463432
v 0.01648619 -0.01031914 0.05463432
v 0.01771442 -0.01167442 0.05463432
v 0.01046360 -0.01382763 0.03242246
v 0.01267835 -0.00062655 0.03244411
v 0.00320588 -0.01692156 0.03242246
v -0.01060705 -0.00034878 0.03246848
v -0.01414548 -0.00062662 0.03244411
v -0.00908797 -0.00295526 0.03246653
v -0.01156350 0.00282966 0.03247008
v -0.01544311 0.00295448 0.03244411
v -0.01201433 0.00634309 0.03247126
v -0.01596426 0.00634309 0.03244411
v -0.01567173 0.00990157 0.03244411
v -0.01175320 0.01015859 0.03247008
v -0.01458538 0.01407280 0.03244411
v -0.01093230 0.01386409 0.03246848
v -0.01263920 0.01835201 0.03244446
v -0.00947280 0.01719249 0.03246653
v -0.00956149 0.02232713 0.03244523
v -0.00729724 0.01988780 0.03246437
v -0.00573019 0.02496223 0.03244662
v -0.00435932 0.02168646 0.03246221
v -0.00073214 0.02602213 0.03244912
v -0.00073214 0.02232553 0.03245121
v 0.00289220 0.02168646 0.03246221
v 0.00426314 0.02496223 0.03244662
v 0.00583012 0.01988780 0.03246437
v 0.00824864 0.02218936 0.03244523
v 0.00800568 0.01719249 0.03246653
v 0.01117201 0.01835201 0.03244446
v 0.00946510 0.01386409 0.03246848
v 0.01311825 0.01407280 0.03244411
v 0.01028608 0.01015859 0.03247008
v 0.01420454 0.00990157 0.03244411
v 0.01054741 0.00634309 0.03247126
v 0.01449727 0.00634309 0.03244411
v 0.01397592 0.00295448 0.03244411
v 0.01010577 0.00272210 0.03247008
v 0.00914932 -0.00045634 0.03246848
v 0.00763024 -0.00306289 0.03246653
v 0.00548970 -0.00501902 0.03246437
v 0.00268398 -0.00625373 0.03246221
v -0.00072413 -0.00657180 0.03245107
v -0.00414149 -0.00614617 0.03246221
v -0.00694735 -0.00491140 0.03246437
v -0.00467955 -0.01692156 0.03242246
v -0.01193072 -0.01382763 0.03242246
v 0.00709183 0.01090557 0.01865680
v 0.01052305 0.01084180 0.02200211
v 0.00902172 0.00634309 0.01952351
v -0.01196163 -0.01385673 0.02964786
v 0.00814463 0.01583582 0.02163196
v 0.00446440 0.02020163 0.02185313
v 0.00872140 0.02000601 0.02613749
v 0.00466231 0.02365290 0.02637620
v -0.00073214 0.02267855 0.02274706
v -0.00073214 0.02527571 0.02698986
v -0.00612944 0.02365290 0.02637620
v -0.01018852 0.02000601 0.02613749
v -0.01295568 0.01531997 0.02622639
v -0.01459902 0.01049922 0.02660628
v -0.01522919 0.00634309 0.02725113
v -0.01434360 0.00241677 0.02653492
v -0.01249099 -0.00162366 0.02605562
v -0.00577336 -0.00835716 0.02487543
v -0.00640505 -0.00202715 0.02109627
v -0.01172445 0.00211234 0.02176103
v -0.00582285 0.00205623 0.01823750
v -0.01048884 0.00634309 0.01952351
v -0.00520174 0.00634309 0.01598286
v -0.00855896 0.01090557 0.01865680
v -0.00551808 0.01093091 0.01514301
v -0.00541156 0.01556139 0.01865248
v -0.00180624 0.01372827 0.01566381
v -0.00073214 0.01885999 0.01956688
v 0.00033911 0.01372827 0.01566381
v 0.00394451 0.01556139 0.01865248
v 0.00405102 0.01093091 0.01514301
v 0.00377019 0.00634309 0.01598286
v 0.00461066 0.00205623 0.01823729
v 0.01025733 0.00211234 0.02176103
v 0.00497350 -0.00202715 0.02109627
v 0.01102379 -0.00162366 0.02605562
v 0.00430644 -0.00835716 0.02487543
v 0.01049451 -0.01385673 0.02964786
v 0.01287648 0.00241677 0.02653492
v 0.01376206 0.00634309 0.02725113
v 0.01313190 0.01049922 0.02660628
v 0.01148855 0.01531997 0.02622639
v 0.01177376 0.00634309 0.02292939
v -0.00673753 0.02020163 0.02185313
v -0.01041804 0.01583582 0.02163196
v -0.01279646 0.01084180 0.02200211
v -0.01324096 0.00634309 0.02292939
v -0.01914799 -0.02437406 0.05469976
v -0.01914799 -0.01137361 0.05469976
v -0.01699805 -0.02318245 0.03365146
v -0.01789609 -0.02577389 0.05469976
v -0.01574608 -0.02458228 0.03365146
v -0.01574608 -0.02318245 0.03239956
v -0.01699805 -0.01226260 0.03365146
v -0.01574608 -0.01086277 0.03365146
v -0.01789609 -0.00997378 0.05469976
v -0.00068577 -0.01086277 0.03365146
v -0.01574608 -0.01226260 0.03239956
v -0.00068577 -0.01226260 0.03239956
v -0.00068577 -0.02318245 0.03239956
v 0.01453953 -0.02318245 0.03239956
v 0.01453953 -0.01226260 0.03239956
v 0.01453953 -0.01086277 0.03365146
v 0.01579150 -0.01226260 0.03365146
v 0.01687834 -0.00997378 0.05469976
v 0.01813030 -0.01137361 0.05469976
v 0.01813030 -0.02437406 0.05469976
v 0.01579150 -0.02318245 0.03365146
v 0.01687834 -0.02577389 0.05469976
v 0.01453953 -0.02458228 0.03365146
v -0.00068577 -0.02577389 0.05469976
v -0.00068577 -0.02458228 0.03365146
v -0.00068577 -0.00997378 0.05469976
v -0.00302019 -0.01476786 0.00143374
v 0.00155307 -0.01476786 0.00143436
v -0.00345474 -0.01312201 0.00604118
v 0.00198768 -0.01312201 0.00604118
v 0.00198768 -0.01254169 0.01081076
v -0.00345474 -0.01254169 0.01081076
v 0.00198768 -0.01280909 0.01531733
v -0.00345474 -0.01280909 0.01531733
v -0.00469034 -0.01690576 0.02964786
v 0.00321667 -0.01690576 0.02964786
v -0.00446047 -0.00897723 0.00143387
v 0.00299342 -0.00897723 0.00143450
v 0.00335779 -0.00238664 0.00943543
v 0.00224895 -0.00263329 0.00143471
v 0.00452385 0.00048298 0.00143478
v 0.00438183 0.00496992 0.00943543
v 0.00589563 0.00353083 0.00143478
v 0.00576120 0.00798268 0.00143478
v 0.00421977 0.01080957 0.00943543
v 0.00445639 0.01182665 0.00143478
v 0.00033911 0.01362601 0.00943543
v 0.00100150 0.01435523 0.00143478
v -0.00205128 0.01362601 0.00943543
v -0.00302855 0.01435523 0.00143478
v -0.00592352 0.01182665 0.00143478
v -0.00568682 0.01080957 0.00943543
v -0.00722860 0.00798080 0.00143478
v -0.00620323 0.00355150 0.00943543
v -0.00736275 0.00353083 0.00143478
v -0.00580489 0.00016846 0.00143478
v -0.00481043 -0.00281805 0.00943543
v -0.00371600 -0.00263329 0.00143471
v -0.00072274 -0.00668367 0.02913556
v -0.00400498 -0.00611582 0.02913667
v -0.00676663 -0.00456833 0.02914426
v -0.00892360 -0.00226642 0.02915547
v -0.01049045 0.00054641 0.02916772
v -0.01149423 0.00354747 0.02918457
v -0.01189508 0.00634309 0.02918986
v -0.01164746 0.00936991 0.02920093
v -0.01077107 0.01278338 0.02920211
v -0.00927502 0.01628491 0.02920726
v -0.00709828 0.01940160 0.02921102
v -0.00421515 0.02164142 0.02921387
v -0.00073214 0.02249505 0.02921652
v 0.00274809 0.02164142 0.02921387
v 0.00563116 0.01940160 0.02921102
v 0.00780790 0.01628491 0.02920726
v 0.00930394 0.01278338 0.02920211
v 0.01018026 0.00936991 0.02920093
v 0.01042789 0.00634309 0.02918986
v 0.01003671 0.00343991 0.02918457
v 0.00903272 0.00043899 0.02916772
v 0.00746588 -0.00237397 0.02915547
v 0.00530897 -0.00467568 0.02914426
v 0.00254732 -0.00622337 0.02913667
v -0.00399983 -0.00733138 0.03856723
v -0.00370786 -0.00720196 0.03788207
v -0.00451637 -0.00733138 0.03856723
v -0.00490121 -0.00693979 0.03259504
v -0.00490121 -0.00710171 0.03693203
v -0.00361506 -0.00693979 0.03259504
v -0.00361506 -0.00710171 0.03693203
v -0.00480841 -0.00720196 0.03788207
v -0.00455334 -0.00739668 0.03870430
v -0.00396279 -0.00739668 0.03870430
v -0.00362529 -0.00739668 0.03788207
v -0.00353674 -0.00739668 0.03693203
v -0.00353674 -0.00739668 0.03324650
v -0.00489077 -0.00739668 0.03788207
v -0.00497953 -0.00739668 0.03693203
v -0.00497953 -0.00739668 0.03324650
v 0.00355034 -0.00739668 0.03870430
v 0.00351324 -0.00733138 0.03856723
v 0.00295979 -0.00739668 0.03870430
v 0.00388784 -0.00739668 0.03788207
v 0.00380527 -0.00720196 0.03788207
v 0.00397639 -0.00739668 0.03693203
v 0.00389807 -0.00710171 0.03693203
v 0.00389807 -0.00693979 0.03259504
v 0.00397639 -0.00739668 0.03324650
v 0.00261185 -0.00693979 0.03259504
v 0.00253361 -0.00739668 0.03324650
v 0.00261185 -0.00710171 0.03693203
v 0.00253361 -0.00739668 0.03693203
v 0.00262237 -0.00739668 0.03788207
v 0.00270472 -0.00720196 0.03788207
v 0.00299669 -0.00733138 0.03856723
v -0.00441202 -0.00182422 0.03303947
v -0.01506608 0.00478064 0.03384005
v -0.01432871 0.00171121 0.03382410
v -0.01527715 0.00772462 0.03382550
v -0.01504491 0.01088496 0.03382710
v -0.01438990 0.01384293 0.03384499
v -0.01327340 0.01681155 0.03387165
v -0.01181857 0.01947011 0.03390430
v -0.00967434 0.02204171 0.03389080
v -0.00785925 0.02356720 0.03384144
v -0.00567039 0.02467604 0.03380948
v -0.00245032 0.02550398 0.03378219
v 0.00104682 0.02549813 0.03378415
v 0.00404830 0.02474350 0.03381714
v 0.00623076 0.02366459 0.03384805
v 0.00850127 0.02186649 0.03389525
v 0.01052451 0.01947011 0.03390430
v 0.01197948 0.01681162 0.03387165
v 0.01309605 0.01384293 0.03384499
v 0.01375106 0.01088496 0.03382710
v 0.01398302 0.00772462 0.03382550
v 0.01377201 0.00478064 0.03384005
v 0.01303464 0.00171121 0.03382410
v 0.01189469 -0.00098695 0.03378073
v 0.01011162 -0.00358793 0.03371348
v 0.00650107 -0.00700390 0.03357843
v -0.00064693 -0.00700300 0.03387694
v -0.00779500 -0.00700370 0.03357843
v -0.01140547 -0.00358793 0.03371348
v -0.01318875 -0.00098695 0.03378073
v -0.00825300 0.00151114 0.03322889
v -0.01003996 0.00535469 0.03335830
v -0.01037704 0.01040162 0.03353492
v -0.00905692 0.01545544 0.03368578
v -0.00778427 0.01794211 0.03375567
v -0.00646889 0.01974871 0.03379939
v -0.00469953 0.02111164 0.03377962
v -0.00184842 0.02232143 0.03377008
v 0.00051872 0.02233187 0.03377314
v 0.00253368 0.02165451 0.03376458
v 0.00461101 0.02039210 0.03378324
v 0.00591804 0.01902686 0.03381860
v 0.00777260 0.01543643 0.03368508
v 0.00847287 0.01343665 0.03362027
v 0.00908298 0.01040162 0.03353492
v 0.00915092 0.00828802 0.03346642
v 0.00874604 0.00535469 0.03335830
v 0.00805093 0.00336695 0.03328904
v 0.00695887 0.00151114 0.03322889
v 0.00536682 -0.00019403 0.03314793
v 0.00311817 -0.00182422 0.03303947
v -0.00064693 -0.00216199 0.03309899
v 0.01881393 -0.01766408 0.05182965
v 0.01891828 -0.01707945 0.05263475
v 0.01829369 -0.01724660 0.05297928
v 0.01818927 -0.01792681 0.05188777
v 0.01871090 -0.01687764 0.05125149
v 0.01808624 -0.01701178 0.05110404
v 0.01843926 -0.01354200 0.05161850
v 0.01816657 -0.01611945 0.05164990
v 0.01849411 -0.01355230 0.05219227
v 0.01824517 -0.01612975 0.05247247
v 0.01886983 -0.01611959 0.05226092
v 0.01884540 -0.01390442 0.05207351
v 0.01879103 -0.01611075 0.05165421
v 0.01879054 -0.01389558 0.05165032
v -0.00253170 -0.00733562 0.02971977
v 0.00118494 -0.00733562 0.02971977
v 0.00119865 -0.00656491 0.02662208
v 0.00729775 -0.00466858 0.02971977
v 0.00724680 -0.00283497 0.02662208
v 0.01085254 0.00086517 0.02971977
v 0.00514837 0.02034984 0.02662208
v 0.00977879 0.01607028 0.02971977
v 0.00490019 0.02192058 0.02971977
v -0.00067338 0.02234642 0.02662208
v -0.00067338 0.02396512 0.02971977
v -0.00624695 0.02192058 0.02971977
v -0.00649506 0.02034984 0.02662208
v -0.01112555 0.01607028 0.02971977
v -0.01078756 0.01297120 0.02662208
v -0.01326721 0.00831071 0.02971977
v -0.01168067 0.00420408 0.02662208
v -0.01219930 0.00086517 0.02971977
v -0.00859203 -0.00457271 0.02971977
v -0.00649506 -0.00437431 0.02662257
v -0.00267602 -0.00669321 0.02662208
v -0.00080405 0.00647140 0.01903342
v 0.01033383 0.00420408 0.02662208
v 0.01192038 0.00831071 0.02971977
v 0.00944080 0.01297120 0.02662208
f 1 2 3
f 4 1 3
f 5 4 3
f 6 5 3
f 7 6 3
f 8 7 3
f 9 8 3
f 10 9 3
f 11 10 3
f 12 11 3
f 13 12 3
f 14 13 3
f 15 14 3
f 16 15 3
f 17 16 3
f 18 17 3
f 19 18 3
f 20 19 3
f 21 20 3
f 22 21 3
f 23 22 3
f 24 23 3
f 25 24 3
f 26 25 3
f 27 26 3
f 28 27 3
f 29 30 31
f 31 32 29
f 32 33 29
f 33 32 34
f 35 33 34
f 36 35 37
f 35 34 37
f 37 34 38
f 34 32 38
f 32 39 38
f 32 31 39
f 31 40 39
f 30 40 31
f 40 30 41
f 42 40 41
f 40 42 43
f 42 44 43
f 44 45 43
f 44 46 45
f 46 37 45
f 36 37 46
f 47 36 46
f 37 38 45
f 45 38 39
f 43 45 39
f 40 43 39
f 41 48 42
f 48 44 42
f 44 48 47
f 46 44 47
f 49 50 51
f 52 49 51
f 53 54 55
f 54 56 55
f 55 56 57
f 56 58 57
f 58 59 57
f 57 59 60
f 60 61 57
f 60 62 61
f 61 62 63
f 64 61 63
f 65 64 63
f 63 66 65
f 67 65 66
f 68 67 66
f 69 67 68
f 68 70 69
f 69 70 71
f 71 70 72
f 73 72 70
f 73 74 72
f 72 74 75
f 76 72 75
f 75 77 76
f 77 75 78
f 78 79 77
f 78 80 79
f 80 78 81
f 81 82 80
f 83 82 81
f 83 81 84
f 84 85 83
f 83 85 86
f 86 85 87
f 87 88 86
f 86 88 89
f 89 88 90
f 90 91 89
f 92 89 91
f 93 92 91
f 94 93 91
f 94 95 93
f 95 96 93
f 96 97 93
f 96 98 97
f 96 51 98
f 99 98 51
f 100 99 51
f 101 100 51
f 50 101 51
f 102 101 50
f 102 54 101
f 103 101 54
f 53 103 54
f 104 105 106
f 107 104 106
f 108 109 110
f 111 108 110
f 104 107 110
f 109 104 110
f 105 104 109
f 108 105 109
f 106 105 108
f 111 106 108
f 112 113 114
f 115 112 114
f 116 117 118
f 119 116 118
f 112 115 118
f 117 112 118
f 113 112 117
f 116 113 117
f 114 113 116
f 119 114 116
f 120 121 122
f 123 120 122
f 124 123 122
f 125 124 122
f 126 125 122
f 127 126 122
f 128 127 122
f 129 128 122
f 130 129 122
f 131 130 122
f 132 131 122
f 133 132 122
f 134 133 122
f 135 134 122
f 136 135 122
f 137 136 122
f 138 137 122
f 139 138 122
f 140 139 122
f 141 140 122
f 142 141 122
f 143 142 122
f 144 143 122
f 145 144 122
f 146 145 122
f 147 146 122
f 136 14 135
f 14 136 13
f 137 13 136
f 13 137 12
f 138 12 137
f 12 138 11
f 139 11 138
f 11 139 10
f 140 10 139
f 10 140 9
f 141 9 140
f 9 141 8
f 142 8 141
f 8 142 7
f 143 7 142
f 7 143 6
f 144 6 143
f 6 144 5
f 145 5 144
f 5 145 4
f 146 4 145
f 4 146 1
f 147 1 146
f 1 147 2
f 122 2 147
f 2 122 3
f 121 3 122
f 3 121 28
f 120 28 121
f 28 120 27
f 123 27 120
f 27 123 26
f 124 26 123
f 26 124 25
f 125 25 124
f 25 125 24
f 126 24 125
f 24 126 23
f 127 23 126
f 23 127 22
f 128 22 127
f 22 128 21
f 129 21 128
f 21 129 20
f 130 20 129
f 20 130 19
f 131 19 130
f 19 131 18
f 132 18 131
f 18 132 17
f 133 17 132
f 17 133 16
f 134 16 133
f 16 134 15
f 135 15 134
f 15 135 14
f 148 149 150
f 149 148 151
f 152 149 151
f 153 154 152
f 154 149 152
f 149 154 150
f 154 155 150
f 155 148 150
f 148 155 156
f 151 148 156
f 155 154 153
f 156 155 153
f 157 158 159
f 158 157 160
f 161 158 160
f 162 163 161
f 163 158 161
f 158 163 159
f 163 164 159
f 164 157 159
f 157 164 165
f 160 157 165
f 164 163 162
f 165 164 162
f 166 167 168
f 167 166 169
f 170 166 171
f 166 168 171
f 171 168 172
f 168 173 172
f 168 167 173
f 167 174 173
f 175 174 167
f 169 175 167
f 171 176 170
f 176 171 177
f 177 171 172
f 177 172 178
f 172 173 178
f 173 179 178
f 174 179 173
f 174 180 179
f 175 180 174
f 180 175 181
f 181 182 180
f 182 183 180
f 180 183 179
f 183 178 179
f 183 184 178
f 184 177 178
f 176 177 184
f 185 176 184
f 182 184 183
f 184 182 185
f 186 187 181
f 175 186 181
f 188 186 175
f 169 188 175
f 189 188 169
f 166 189 169
f 190 189 166
f 170 190 166
f 191 190 170
f 176 191 170
f 192 191 176
f 185 192 176
f 193 192 185
f 182 193 185
f 187 193 182
f 181 187 182
f 194 195 196
f 197 198 199
f 198 197 200
f 200 201 198
f 201 200 202
f 202 203 201
f 203 202 204
f 205 204 202
f 204 205 206
f 207 206 205
f 206 207 208
f 209 208 207
f 208 209 210
f 211 210 209
f 210 211 212
f 213 212 211
f 212 213 214
f 215 214 213
f 214 215 216
f 216 217 214
f 217 216 218
f 218 219 217
f 219 218 220
f 220 221 219
f 221 220 222
f 222 223 221
f 223 222 224
f 224 225 223
f 225 224 226
f 226 227 225
f 227 226 228
f 229 228 226
f 228 229 195
f 230 195 229
f 195 230 196
f 230 231 196
f 231 232 196
f 232 233 196
f 233 234 196
f 234 235 196
f 235 236 196
f 236 199 196
f 237 196 199
f 238 237 199
f 198 238 199
f 239 240 241
f 238 198 242
f 243 244 245
f 244 246 245
f 246 244 247
f 246 247 248
f 247 249 248
f 249 212 248
f 212 249 210
f 249 250 210
f 210 250 208
f 250 251 208
f 208 251 206
f 251 252 206
f 206 252 204
f 252 253 204
f 204 253 203
f 253 201 203
f 253 254 201
f 254 198 201
f 254 255 198
f 198 255 242
f 255 256 242
f 257 256 255
f 258 257 255
f 259 257 258
f 259 258 260
f 259 260 261
f 260 262 261
f 262 263 261
f 264 263 262
f 263 264 265
f 265 264 266
f 267 265 266
f 268 267 266
f 268 269 267
f 269 268 239
f 269 239 270
f 239 241 270
f 241 271 270
f 272 271 241
f 272 273 271
f 273 272 274
f 275 273 274
f 276 275 274
f 194 276 274
f 195 194 274
f 274 277 195
f 195 277 228
f 277 278 228
f 228 278 227
f 278 225 227
f 278 279 225
f 279 223 225
f 279 280 223
f 280 221 223
f 280 245 221
f 245 219 221
f 245 246 219
f 246 217 219
f 217 246 248
f 217 248 214
f 248 212 214
f 268 244 243
f 239 268 243
f 239 243 240
f 240 281 241
f 281 272 241
f 243 245 280
f 240 243 280
f 240 280 279
f 240 279 281
f 279 278 281
f 278 277 281
f 277 272 281
f 274 272 277
f 244 268 266
f 244 266 247
f 266 282 247
f 264 282 266
f 282 264 283
f 264 262 283
f 283 262 284
f 284 262 260
f 285 284 260
f 258 285 260
f 258 254 285
f 258 255 254
f 282 249 247
f 249 282 250
f 282 283 250
f 250 283 251
f 283 284 251
f 251 284 252
f 252 284 285
f 253 252 285
f 254 253 285
f 286 287 288
f 288 289 286
f 289 288 290
f 291 290 288
f 291 288 292
f 292 288 287
f 287 293 292
f 293 287 294
f 294 295 293
f 293 295 296
f 295 297 296
f 296 297 291
f 297 298 291
f 298 297 299
f 297 300 299
f 300 297 301
f 300 301 302
f 303 302 301
f 302 303 304
f 304 305 302
f 306 302 305
f 305 307 306
f 308 306 307
f 307 309 308
f 309 310 308
f 310 309 289
f 290 310 289
f 310 290 291
f 298 310 291
f 310 298 299
f 308 310 299
f 296 292 293
f 296 291 292
f 295 294 311
f 303 295 311
f 295 303 301
f 297 295 301
f 300 302 306
f 299 300 306
f 299 306 308
f 312 313 314
f 313 315 314
f 315 316 314
f 316 317 314
f 317 316 318
f 319 317 318
f 319 318 320
f 320 242 319
f 242 320 238
f 320 237 238
f 237 320 196
f 320 321 196
f 318 321 320
f 276 321 318
f 321 276 194
f 196 321 194
f 322 312 314
f 313 323 315
f 316 315 323
f 324 316 323
f 325 324 323
f 326 324 325
f 324 326 327
f 327 326 328
f 329 327 328
f 327 329 330
f 330 329 331
f 332 330 331
f 333 332 331
f 334 332 333
f 335 334 333
f 334 335 336
f 337 334 336
f 338 337 336
f 338 339 337
f 339 338 340
f 341 339 340
f 341 342 339
f 342 341 343
f 322 342 343
f 322 317 342
f 314 317 322
f 342 317 319
f 257 342 319
f 259 342 257
f 339 342 259
f 261 339 259
f 337 339 261
f 263 337 261
f 334 337 263
f 265 334 263
f 332 334 265
f 267 332 265
f 332 267 269
f 330 332 269
f 327 330 269
f 270 327 269
f 271 327 270
f 324 327 271
f 324 271 273
f 316 324 273
f 318 316 273
f 318 273 275
f 318 275 276
f 257 319 256
f 242 256 319
f 234 344 345
f 345 235 234
f 235 345 346
f 346 236 235
f 236 346 347
f 347 199 236
f 199 347 348
f 348 197 199
f 197 348 349
f 349 200 197
f 200 349 350
f 350 202 200
f 202 350 205
f 351 205 350
f 205 351 207
f 352 207 351
f 207 352 209
f 353 209 352
f 209 353 211
f 354 211 353
f 211 354 213
f 355 213 354
f 213 355 215
f 356 215 355
f 215 356 357
f 357 216 215
f 216 357 358
f 358 218 216
f 218 358 359
f 359 220 218
f 220 359 360
f 360 222 220
f 222 360 361
f 361 224 222
f 224 361 362
f 362 226 224
f 226 362 229
f 363 229 362
f 229 363 230
f 364 230 363
f 230 364 231
f 365 231 364
f 231 365 232
f 366 232 365
f 232 366 233
f 367 233 366
f 233 367 234
f 344 234 367
f 368 369 370
f 371 372 373
f 374 373 372
f 372 375 374
f 369 374 375
f 375 370 369
f 370 375 376
f 370 376 368
f 377 368 376
f 377 378 368
f 369 368 378
f 378 379 369
f 374 369 379
f 374 379 373
f 380 373 379
f 381 376 375
f 375 372 381
f 382 381 372
f 382 372 383
f 371 383 372
f 384 385 386
f 384 387 385
f 388 385 387
f 387 389 388
f 390 388 389
f 390 389 391
f 392 391 389
f 393 394 395
f 396 395 394
f 396 397 395
f 398 395 397
f 397 386 398
f 399 398 386
f 399 386 385
f 385 388 399
f 398 399 388
f 388 390 398
f 395 398 390
f 390 391 395
f 393 395 391
f 79 80 400
f 82 400 80
f 401 87 402
f 87 401 88
f 88 401 90
f 403 90 401
f 404 90 403
f 90 404 91
f 91 404 94
f 405 94 404
f 406 94 405
f 94 406 95
f 95 406 96
f 407 96 406
f 408 96 407
f 96 408 51
f 408 409 51
f 52 51 409
f 410 52 409
f 52 410 49
f 410 411 49
f 50 49 411
f 412 50 411
f 50 412 102
f 412 413 102
f 54 102 413
f 414 54 413
f 54 414 56
f 414 415 56
f 58 56 415
f 416 58 415
f 58 416 59
f 59 416 417
f 417 60 59
f 418 60 417
f 60 418 62
f 62 418 419
f 419 63 62
f 420 63 419
f 63 420 66
f 66 420 421
f 421 68 66
f 422 68 421
f 68 422 70
f 70 422 423
f 423 73 70
f 424 73 423
f 73 424 74
f 74 424 425
f 425 75 74
f 75 425 426
f 426 78 75
f 78 426 81
f 427 81 426
f 81 427 84
f 428 84 427
f 429 84 428
f 429 428 430
f 430 402 429
f 401 402 430
f 431 401 430
f 431 403 401
f 404 403 431
f 432 404 431
f 432 405 404
f 432 406 405
f 433 406 432
f 433 407 406
f 408 407 433
f 434 408 433
f 408 434 435
f 435 409 408
f 435 436 409
f 436 410 409
f 410 436 411
f 436 437 411
f 411 437 438
f 412 411 438
f 412 438 439
f 413 412 439
f 413 439 440
f 414 413 440
f 414 440 441
f 415 414 441
f 415 441 416
f 416 441 442
f 442 417 416
f 442 443 417
f 417 443 418
f 418 443 444
f 444 445 418
f 444 67 445
f 445 67 69
f 69 446 445
f 71 446 69
f 446 71 447
f 447 71 72
f 72 448 447
f 76 448 72
f 448 76 449
f 449 76 77
f 77 450 449
f 450 77 79
f 79 451 450
f 400 451 79
f 451 400 427
f 400 428 427
f 430 428 400
f 430 400 82
f 82 83 430
f 86 430 83
f 430 86 431
f 89 431 86
f 432 431 89
f 89 92 432
f 93 432 92
f 433 432 93
f 93 97 433
f 98 433 97
f 434 433 98
f 434 98 435
f 98 99 435
f 99 100 435
f 100 436 435
f 436 100 437
f 100 101 437
f 103 437 101
f 437 103 438
f 103 53 438
f 439 438 53
f 55 439 53
f 439 55 440
f 55 57 440
f 441 440 57
f 441 57 61
f 61 442 441
f 64 442 61
f 442 64 443
f 443 64 65
f 65 444 443
f 67 444 65
f 84 429 85
f 85 429 87
f 402 87 429
f 419 418 420
f 445 420 418
f 420 445 446
f 446 447 420
f 447 422 420
f 422 447 448
f 448 449 422
f 449 424 422
f 423 422 424
f 427 426 451
f 426 450 451
f 450 426 425
f 450 425 424
f 424 449 450
f 421 420 422
f 452 453 454
f 455 452 454
f 456 452 455
f 457 456 455
f 458 459 460
f 461 460 459
f 454 453 461
f 453 462 461
f 462 463 461
f 460 461 463
f 452 456 464
f 453 452 464
f 462 453 464
f 464 465 462
f 463 462 465
f 463 465 458
f 460 463 458
f 465 464 458
f 459 458 464
f 459 464 457
f 464 456 457
f 466 467 468
f 469 468 467
f 470 468 469
f 471 470 469
f 472 473 474
f 472 474 475
f 476 475 474
f 475 476 477
f 477 478 475
f 479 478 477
f 480 478 479
f 481 480 479
f 480 481 482
f 483 482 481
f 483 484 482
f 484 485 482
f 466 485 484
f 486 485 466
f 486 466 468
f 486 468 487
f 468 470 487
f 470 488 487
f 488 470 471
f 488 471 489
f 489 490 488
f 490 489 473
f 472 490 473
f 490 472 487
f 472 475 487
f 475 478 487
f 478 480 487
f 482 487 480
f 482 485 487
f 486 487 485
f 487 488 490
f 156 153 152
f 152 151 156
f 165 162 161
f 161 160 165
f 239 241 240
f 239 240 241
f 322 314 312
f 85 429 84
f 82 430 83
f 455 454 452
f 454 461 453