# https://github.com/mikedh/trimesh
v -0.05387838 -0.04091773 0.00000000
v -0.04043627 -0.05435338 0.00000000
v -0.05303068 -0.04614958 0.00000005
v 0.04011286 -0.05436027 0.00000000
v 0.05355203 -0.04091045 0.00000000
v 0.04534759 -0.05350093 0.00000005
v -0.04044605 0.05308108 0.00000000
v -0.05388373 0.03963509 0.00000000
v -0.05303398 0.04487757 0.00000005
v 0.05355134 0.03964095 0.00000000
v 0.04010564 0.05309097 0.00000000
v 0.05270640 0.04487816 0.00000005
v -0.04027078 -0.05284371 0.00731300
v -0.05237749 -0.04074356 0.00731205
v -0.04501494 -0.05190360 0.00735485
v -0.05237764 0.03947021 0.00731580
v -0.04027078 0.05157034 0.00731293
v -0.04501475 0.05062975 0.00734810
v 0.05204646 -0.04074337 0.00731256
v 0.03994218 -0.05284761 0.00731189
v 0.05110220 -0.04548705 0.00735167
v 0.05110226 0.04421370 0.00735267
v 0.03994221 0.05157453 0.00731759
v 0.05204657 0.03947000 0.00731447
v -0.04569671 -0.05354953 0.00000002
v -0.05012030 -0.05059249 0.00000002
v -0.05012124 0.04932006 0.00000002
v -0.04569651 0.05227566 0.00000002
v 0.05274830 -0.04616888 0.00000002
v 0.04979137 -0.05059254 0.00000002
v 0.04536761 0.05227587 0.00000002
v 0.04979124 0.04931905 0.00000002
v -0.05387774 -0.04089132 0.00508608
v -0.05387575 0.03961776 0.00508507
v -0.05299991 -0.04613683 0.00516145
v -0.05142413 -0.04548412 0.00735496
v -0.05142352 0.04421050 0.00735028
v -0.05299493 0.04486140 0.00515870
v -0.04041904 -0.05434897 0.00508559
v -0.04566164 -0.05346487 0.00515747
v 0.04008983 -0.05434670 0.00508444
v 0.04533380 -0.05346763 0.00515898
v 0.04468278 -0.05189594 0.00735201
v 0.05354552 -0.04089101 0.00508445
v 0.05266515 -0.04613444 0.00515827
v 0.05355172 0.03961825 0.00508757
v 0.05266519 0.04486109 0.00515829
v -0.04041893 0.05307452 0.00508505
v 0.04008990 0.05307405 0.00508482
v -0.04566234 0.05219317 0.00515839
v 0.04468296 0.05062297 0.00735513
v 0.04533383 0.05219432 0.00515902
v -0.05005955 -0.05053174 0.00515982
v -0.04885599 -0.04932819 0.00735728
v 0.04973082 -0.05053199 0.00516000
v 0.04852686 -0.04932803 0.00735570
v -0.04885611 0.04805493 0.00735849
v -0.05005908 0.04925791 0.00515949
v 0.04852666 0.04805447 0.00735378
v 0.04973198 0.04925978 0.00516084
v 0.03443944 0.01058091 0.02335393
v 0.03733989 0.01155906 0.00890410
v 0.03493905 0.01726119 0.00888554
v 0.02927691 0.02072146 0.02336998
v 0.03172420 0.02254125 0.00889954
v 0.02771242 0.02724817 0.00890678
v 0.02124144 0.02877725 0.02335983
v 0.02299716 0.03125093 0.00888703
v 0.01771828 0.03446756 0.00887262
v 0.01110789 0.03396184 0.02333487
v 0.01201419 0.03685234 0.00887737
v 0.00599639 0.03827747 0.00886294
v -0.00013734 0.03575907 0.02331427
v -0.00016952 0.03877880 0.00887003
v -0.00633698 0.03827712 0.00886270
v -0.01138419 0.03397998 0.02333148
v -0.01235574 0.03684913 0.00887628
v -0.01805834 0.03445672 0.00886901
v -0.02152233 0.02881059 0.02336301
v -0.02334019 0.03124656 0.00889150
v -0.02804991 0.02723775 0.00890755
v -0.02957181 0.02076951 0.02336773
v -0.03205600 0.02252433 0.00889590
v -0.03528755 0.01725292 0.00889645
v -0.03474919 0.01063434 0.02335807
v -0.03767570 0.01154640 0.00890738
v -0.03910177 0.00552400 0.00890198
v -0.03653245 -0.00060474 0.02337149
v -0.03960061 -0.00064401 0.00891502
v -0.03906465 -0.00680740 0.00888749
v -0.03475787 -0.01184396 0.02337879
v -0.03762516 -0.01281966 0.00889113
v -0.03525636 -0.01852907 0.00889878
v -0.02959209 -0.02197914 0.02340488
v -0.03204354 -0.02381163 0.00891964
v -0.02801450 -0.02850789 0.00892458
v -0.02155040 -0.03001664 0.02343427
v -0.02334364 -0.03256729 0.00896464
v -0.01806642 -0.03579726 0.00896674
v -0.01142500 -0.03518702 0.02343356
v -0.01234582 -0.03815130 0.00895542
v -0.00632539 -0.03957990 0.00895255
v -0.00019624 -0.03697476 0.02343381
v -0.00015662 -0.04009809 0.00897414
v 0.00601239 -0.03957745 0.00894932
v 0.01103750 -0.03520907 0.02342515
v 0.01203126 -0.03813886 0.00894584
v 0.01774784 -0.03576739 0.00894869
v 0.02117185 -0.03005478 0.02342940
v 0.02305008 -0.03257431 0.00897953
v 0.02770143 -0.02849388 0.00892363
v 0.02922709 -0.02202748 0.02340520
v 0.03172506 -0.02380058 0.00892036
v 0.03494748 -0.01852329 0.00890924
v 0.03440992 -0.01189958 0.02338105
v 0.03731393 -0.01281081 0.00890090
v 0.03873342 -0.00679322 0.00888424
v 0.03620469 -0.00066319 0.02336834
v 0.03927255 -0.00063173 0.00891497
v 0.03877189 0.00553744 0.00890162
v 0.00903635 0.00604812 0.20186479
v 0.01054570 0.00284326 0.20185308
v 0.00657182 0.00863509 0.20187400
v 0.00339518 0.01031886 0.20188016
v -0.00016449 0.01090241 0.20188223
v -0.00372423 0.01031907 0.20188018
v -0.00690105 0.00863540 0.20187402
v -0.00936498 0.00604785 0.20186474
v -0.01087469 0.00284326 0.20185308
v -0.01130320 -0.00063668 0.20184022
v -0.01064370 -0.00404158 0.20182760
v -0.00899084 -0.00704938 0.20181622
v -0.00652765 -0.00939483 0.20180738
v -0.00349303 -0.01088085 0.20180168
v -0.00016450 -0.01138948 0.20179973
v 0.00316408 -0.01088102 0.20180170
v 0.00619850 -0.00939462 0.20180734
v 0.00866203 -0.00704952 0.20181624
v 0.01031452 -0.00404151 0.20182758
v 0.01097431 -0.00063668 0.20184022
v 0.04147592 0.00597276 0.00734697
v 0.04034259 0.01253890 0.00734697
v 0.00954629 -0.00063725 0.21942644
v 0.00916170 0.00239197 0.21951269
v 0.00897092 -0.00360462 0.21936510
v 0.00752829 -0.00622471 0.21932088
v 0.00537429 -0.00825863 0.21929897
v 0.00272844 -0.00953829 0.21927846
v -0.00016449 -0.00998047 0.21928197
v -0.00305695 -0.00953675 0.21927532
v -0.00570001 -0.00825401 0.21929329
v -0.00785570 -0.00622342 0.21931317
v -0.00930066 -0.00360488 0.21936569
v -0.00987513 -0.00063726 0.21942705
v -0.00949040 0.00239186 0.21951202
v -0.00815225 0.00516454 0.21957166
v -0.00599311 0.00738312 0.21961935
v -0.00323555 0.00881227 0.21964071
v -0.00016448 0.00930669 0.21965256
v 0.00290618 0.00881077 0.21963988
v 0.00565352 0.00736865 0.21960353
v 0.00781916 0.00516163 0.21957381
v 0.00592053 0.00378440 0.21938899
v 0.00690215 0.00166084 0.21944900
v 0.00431153 0.00552286 0.21934266
v 0.00221098 0.00667224 0.21932067
v -0.00016450 0.00708203 0.21931021
v -0.00253928 0.00667018 0.21932209
v -0.00463907 0.00552092 0.21934400
v -0.00624893 0.00378398 0.21938932
v -0.00723144 0.00166096 0.21945054
v -0.00748848 -0.00063378 0.21951817
v -0.00704837 -0.00286907 0.21959749
v -0.00596006 -0.00484184 0.21966942
v -0.00435141 -0.00639348 0.21971275
v -0.00235638 -0.00737667 0.21974865
v -0.00016455 -0.00773972 0.21973098
v 0.00202617 -0.00737299 0.21975041
v 0.00401997 -0.00638989 0.21971938
v 0.00563182 -0.00484240 0.21966806
v 0.00672253 -0.00287023 0.21959109
v 0.00715997 -0.00063382 0.21951724
v 0.00592510 0.00378756 0.20151511
v 0.00687874 0.00165190 0.20174567
v 0.00431941 0.00553470 0.20132274
v 0.00221298 0.00668040 0.20119900
v -0.00016450 0.00707836 0.20115843
v -0.00254197 0.00668039 0.20119898
v -0.00464833 0.00553476 0.20132297
v -0.00625405 0.00378763 0.20151521
v -0.00720777 0.00165182 0.20174557
v -0.00743473 -0.00063668 0.20200281
v -0.00695297 -0.00284239 0.20225416
v -0.00584370 -0.00476296 0.20247809
v -0.00423622 -0.00624092 0.20265396
v -0.00228774 -0.00717127 0.20276068
v -0.00016449 -0.00748648 0.20280099
v 0.00195871 -0.00717133 0.20276093
v 0.00390729 -0.00624088 0.20265372
v 0.00551482 -0.00476283 0.20247783
v 0.00662393 -0.00284247 0.20225428
v 0.00710565 -0.00063668 0.20200299
v 0.03778197 0.01871150 0.00734697
v 0.03428951 0.02440898 0.00734697
v 0.02994502 0.02948633 0.00734697
v 0.02486426 0.03382627 0.00734697
v 0.01916494 0.03731398 0.00734697
v 0.01299198 0.03987086 0.00734697
v 0.00649464 0.04142835 0.00734697
v -0.00016602 0.04195269 0.00734697
v -0.00682652 0.04142661 0.00734697
v -0.01332383 0.03986879 0.00734697
v -0.01949702 0.03731167 0.00734697
v -0.02519570 0.03382188 0.00734697
v -0.03027680 0.02948137 0.00734697
v -0.03462019 0.02440228 0.00734697
v -0.03811155 0.01870343 0.00734697
v -0.04024579 0.01239132 0.00734697
v -0.04179941 0.00596183 0.00734697
v -0.04232705 -0.00063308 0.00734697
v -0.04181880 -0.00723119 0.00734697
v -0.04028191 -0.01366970 0.00734697
v -0.03775680 -0.01979025 0.00734697
v -0.03430222 -0.02544011 0.00734697
v -0.03000456 -0.03047982 0.00734697
v -0.02497012 -0.03478483 0.00734697
v -0.01932453 -0.03825159 0.00734697
v -0.01320454 -0.04079147 0.00734697
v -0.00676141 -0.04234090 0.00734697
v -0.00015473 -0.04286001 0.00734697
v 0.00645183 -0.04233911 0.00734697
v 0.01289469 -0.04078821 0.00734697
v 0.01901314 -0.03824478 0.00734697
v 0.02465901 -0.03477869 0.00734697
v 0.02969276 -0.03047269 0.00734697
v 0.03398720 -0.02543026 0.00734697
v 0.03743786 -0.01977846 0.00734697
v 0.03996277 -0.01365837 0.00734697
v 0.04149658 -0.00721959 0.00734697
v 0.04200494 -0.00062188 0.00734697
f 1 2 3
f 4 5 6
f 7 8 9
f 10 11 12
f 13 14 15
f 16 17 18
f 19 20 21
f 22 23 24
f 3 2 25
f 3 25 26
f 7 9 27
f 7 27 28
f 6 5 29
f 6 29 30
f 10 8 7
f 10 7 11
f 12 11 31
f 12 31 32
f 1 5 4
f 1 4 2
f 10 5 1
f 10 1 8
f 33 14 16
f 33 16 34
f 14 33 35
f 14 35 36
f 34 16 37
f 34 37 38
f 39 13 15
f 39 15 40
f 13 39 41
f 13 41 20
f 20 41 42
f 20 42 43
f 44 19 21
f 44 21 45
f 19 44 46
f 19 46 24
f 24 46 47
f 24 47 22
f 48 17 23
f 48 23 49
f 17 48 50
f 17 50 18
f 49 23 51
f 49 51 52
f 36 35 53
f 36 53 54
f 54 53 40
f 54 40 15
f 43 42 55
f 43 55 56
f 56 55 45
f 56 45 21
f 38 37 57
f 38 57 58
f 58 57 18
f 58 18 50
f 52 51 59
f 52 59 60
f 60 59 22
f 60 22 47
f 39 2 4
f 39 4 41
f 7 48 49
f 7 49 11
f 44 5 10
f 44 10 46
f 34 8 1
f 34 1 33
f 1 3 35
f 1 35 33
f 3 26 53
f 3 53 35
f 26 25 40
f 26 40 53
f 25 2 39
f 25 39 40
f 4 6 42
f 4 42 41
f 6 30 55
f 6 55 42
f 30 29 45
f 30 45 55
f 29 5 44
f 29 44 45
f 34 38 9
f 34 9 8
f 38 58 27
f 38 27 9
f 58 50 28
f 58 28 27
f 50 48 7
f 50 7 28
f 49 52 31
f 49 31 11
f 52 60 32
f 52 32 31
f 60 47 12
f 60 12 32
f 47 46 10
f 47 10 12
f 16 18 57
f 16 57 37
f 15 14 36
f 15 36 54
f 22 59 51
f 22 51 23
f 19 14 13
f 19 13 20
f 21 20 43
f 21 43 56
f 24 23 17
f 24 17 16
f 24 16 14
f 24 14 19
f 61 62 63
f 64 65 66
f 67 68 69
f 70 71 72
f 73 74 75
f 76 77 78
f 79 80 81
f 82 83 84
f 85 86 87
f 88 89 90
f 91 92 93
f 94 95 96
f 97 98 99
f 100 101 102
f 103 104 105
f 106 107 108
f 109 110 111
f 112 113 114
f 115 116 117
f 118 119 120
f 121 122 61
f 121 61 64
f 123 121 64
f 123 64 67
f 124 123 67
f 124 67 70
f 125 124 70
f 125 70 73
f 126 125 73
f 126 73 76
f 127 126 76
f 127 76 79
f 128 127 79
f 128 79 82
f 129 128 82
f 129 82 85
f 130 129 85
f 130 85 88
f 131 130 88
f 131 88 91
f 132 131 91
f 132 91 94
f 133 132 94
f 133 94 97
f 134 133 97
f 134 97 100
f 135 134 100
f 135 100 103
f 136 135 103
f 136 103 106
f 137 136 106
f 137 106 109
f 138 137 109
f 138 109 112
f 139 138 112
f 139 112 115
f 140 139 115
f 140 115 118
f 118 61 122
f 118 122 140
f 141 142 62
f 141 62 120
f 143 140 122
f 143 122 144
f 145 139 140
f 145 140 143
f 146 138 139
f 146 139 145
f 147 137 138
f 147 138 146
f 148 136 137
f 148 137 147
f 149 135 136
f 149 136 148
f 150 134 135
f 150 135 149
f 151 133 134
f 151 134 150
f 152 132 133
f 152 133 151
f 153 131 132
f 153 132 152
f 154 130 131
f 154 131 153
f 155 129 130
f 155 130 154
f 156 128 129
f 156 129 155
f 157 127 128
f 157 128 156
f 158 126 127
f 158 127 157
f 159 125 126
f 159 126 158
f 160 124 125
f 160 125 159
f 161 123 124
f 161 124 160
f 162 121 123
f 162 123 161
f 144 122 121
f 144 121 162
f 144 162 163
f 144 163 164
f 162 161 165
f 162 165 163
f 161 160 166
f 161 166 165
f 160 159 167
f 160 167 166
f 159 158 168
f 159 168 167
f 158 157 169
f 158 169 168
f 157 156 170
f 157 170 169
f 156 155 171
f 156 171 170
f 155 154 172
f 155 172 171
f 154 153 173
f 154 173 172
f 153 152 174
f 153 174 173
f 152 151 175
f 152 175 174
f 151 150 176
f 151 176 175
f 150 149 177
f 150 177 176
f 149 148 178
f 149 178 177
f 148 147 179
f 148 179 178
f 147 146 180
f 147 180 179
f 146 145 181
f 146 181 180
f 145 143 182
f 145 182 181
f 143 144 164
f 143 164 182
f 164 163 183
f 164 183 184
f 163 165 185
f 163 185 183
f 165 166 186
f 165 186 185
f 166 167 187
f 166 187 186
f 167 168 188
f 167 188 187
f 168 169 189
f 168 189 188
f 169 170 190
f 169 190 189
f 170 171 191
f 170 191 190
f 171 172 192
f 171 192 191
f 172 173 193
f 172 193 192
f 173 174 194
f 173 194 193
f 174 175 195
f 174 195 194
f 175 176 196
f 175 196 195
f 176 177 197
f 176 197 196
f 177 178 198
f 177 198 197
f 178 179 199
f 178 199 198
f 179 180 200
f 179 200 199
f 180 181 201
f 180 201 200
f 181 182 202
f 181 202 201
f 182 164 184
f 182 184 202
f 118 120 62
f 118 62 61
f 62 142 203
f 62 203 63
f 203 204 65
f 203 65 63
f 65 204 205
f 65 205 66
f 205 206 68
f 205 68 66
f 68 206 207
f 68 207 69
f 207 208 71
f 207 71 69
f 71 208 209
f 71 209 72
f 209 210 74
f 209 74 72
f 74 210 211
f 74 211 75
f 211 212 77
f 211 77 75
f 77 212 213
f 77 213 78
f 213 214 80
f 213 80 78
f 80 214 215
f 80 215 81
f 215 216 83
f 215 83 81
f 83 216 217
f 83 217 84
f 217 218 86
f 217 86 84
f 86 218 219
f 86 219 87
f 219 220 89
f 219 89 87
f 89 220 221
f 89 221 90
f 221 222 92
f 221 92 90
f 92 222 223
f 92 223 93
f 223 224 95
f 223 95 93
f 95 224 225
f 95 225 96
f 225 226 98
f 225 98 96
f 98 226 227
f 98 227 99
f 227 228 101
f 227 101 99
f 101 228 229
f 101 229 102
f 229 230 104
f 229 104 102
f 104 230 231
f 104 231 105
f 231 232 107
f 231 107 105
f 107 232 233
f 107 233 108
f 233 234 110
f 233 110 108
f 110 234 235
f 110 235 111
f 235 236 113
f 235 113 111
f 113 236 237
f 113 237 114
f 237 238 116
f 237 116 114
f 116 238 239
f 116 239 117
f 239 240 119
f 239 119 117
f 119 240 141
f 119 141 120
f 61 63 65
f 61 65 64
f 64 66 68
f 64 68 67
f 67 69 71
f 67 71 70
f 70 72 74
f 70 74 73
f 73 75 77
f 73 77 76
f 76 78 80
f 76 80 79
f 79 81 83
f 79 83 82
f 82 84 86
f 82 86 85
f 85 87 89
f 85 89 88
f 88 90 92
f 88 92 91
f 91 93 95
f 91 95 94
f 94 96 98
f 94 98 97
f 97 99 101
f 97 101 100
f 100 102 104
f 100 104 103
f 103 105 107
f 103 107 106
f 106 108 110
f 106 110 109
f 109 111 113
f 109 113 112
f 112 114 116
f 112 116 115
f 115 117 119
f 115 119 118
f 202 184 200
f 202 200 201
f 184 183 199
f 184 199 200
f 183 185 198
f 183 198 199
f 185 186 197
f 185 197 198
f 186 187 196
f 186 196 197
f 187 188 195
f 187 195 196
f 188 189 194
f 188 194 195
f 189 190 193
f 189 193 194
f 190 191 192
f 190 192 193