# https://github.com/mikedh/trimesh
v -0.02410218 -0.01470913 0.01162800
v -0.02437674 -0.01655840 0.01162800
v -0.02437674 -0.01655840 0.01267829
v -0.02437674 -0.01655840 -0.01165469
v -0.02524731 -0.02242231 -0.01165469
v -0.02342074 -0.01670033 -0.01165469
v -0.02342074 -0.01670033 0.01162800
v -0.02524731 -0.02242231 0.01162800
v -0.02410218 -0.01470913 -0.01165469
v -0.02437674 -0.01655840 -0.01270497
v 0.01507578 -0.02757534 0.01237437
v 0.01507578 -0.02757534 0.01174464
v 0.01416503 -0.02744013 0.01174464
v 0.01416503 -0.02744013 0.01237437
v -0.02335718 -0.01163701 -0.00795462
v -0.02395648 -0.01567371 -0.00781292
v -0.02395648 -0.01567371 -0.00470053
v -0.02335718 -0.01163701 -0.00453427
v 0.02011353 -0.01800393 -0.00856505
v 0.01861452 -0.02810072 -0.00869297
v 0.01861452 -0.02810072 -0.01210682
v 0.02011353 -0.01800393 -0.01210682
v 0.01861452 -0.02810072 -0.00050271
v 0.01861452 -0.02810072 -0.00317107
v 0.02011353 -0.01800393 -0.00355480
v 0.02011353 -0.01800393 -0.00050271
v -0.01859786 -0.01225669 0.01237437
v -0.01859786 -0.01225669 0.01174464
v -0.02009687 -0.02235348 0.01174464
v -0.02009687 -0.02235348 0.01237437
v -0.02395648 -0.01567371 0.00369431
v -0.02337076 -0.01576067 0.00369431
v -0.02277146 -0.01172396 0.00352805
v -0.02335718 -0.01163701 0.00352805
v -0.00265897 -0.02494238 0.01237437
v -0.00265897 -0.02494238 0.01174464
v -0.00357007 -0.02480711 0.01174464
v -0.00357007 -0.02480711 0.01237437
v -0.02335718 -0.01163701 -0.01210682
v -0.02395648 -0.01567371 -0.01210682
v -0.02395648 -0.01567371 -0.00879222
v -0.02335718 -0.01163701 -0.00893392
v 0.00228856 -0.01535756 0.01237437
v 0.00228856 -0.01535756 0.01174464
v 0.00319917 -0.01549276 0.01174464
v 0.00319917 -0.01549276 0.01237437
v 0.02011353 -0.01800393 -0.00453420
v 0.01861452 -0.02810072 -0.00415047
v 0.01861452 -0.02810072 -0.00771417
v 0.02011353 -0.01800393 -0.00758626
v -0.02100717 -0.02221834 0.01174464
v -0.02100717 -0.02221834 0.01237437
v 0.01861452 -0.02810072 0.00314439
v 0.01802881 -0.02801376 0.00314439
v 0.01802881 -0.02801376 0.00412379
v 0.01861452 -0.02810072 0.00412379
v 0.02011353 -0.01800393 0.00853837
v 0.01952781 -0.01791697 0.00853837
v 0.01952781 -0.01791697 0.00755958
v 0.02011353 -0.01800393 0.00755958
v -0.04235734 -0.01220899 0.00829811
v -0.02381706 -0.01496156 0.00829811
v -0.02403080 -0.01640128 0.00829811
v -0.04257109 -0.01364872 0.00829811
v 0.01861452 -0.02810072 0.00768748
v 0.01802881 -0.02801376 0.00768748
v 0.01802881 -0.02801376 0.00866629
v 0.01861452 -0.02810072 0.00866629
v -0.01950817 -0.01212155 -0.01240106
v -0.02100717 -0.02221834 -0.01240106
v -0.02491140 -0.02163870 -0.01240106
v -0.02341239 -0.01154191 -0.01240106
v 0.01191792 -0.01678717 0.01237437
v 0.01191792 -0.01678717 0.01174464
v 0.01066677 -0.02692076 0.01174464
v 0.01066677 -0.02692076 0.01237437
v 0.00514869 -0.02610153 0.01237437
v 0.00514869 -0.02610153 0.01174464
v 0.00704426 -0.01606361 0.01174464
v 0.00704426 -0.01606361 0.01237437
v -0.02335718 -0.01163701 0.00450758
v -0.02277146 -0.01172396 0.00450758
v -0.02337076 -0.01576067 0.00467384
v -0.02395648 -0.01567371 0.00467384
v 0.00795536 -0.01619887 0.01237437
v 0.00795536 -0.01619887 0.01174464
v 0.00605978 -0.02623679 0.01174464
v 0.00605978 -0.02623679 0.01237437
v 0.00194801 -0.02562635 0.01237437
v 0.00194801 -0.02562635 0.01174464
v 0.00103740 -0.02549115 0.01174464
v 0.00103740 -0.02549115 0.01237437
v -0.02335718 -0.01163701 -0.00355474
v -0.02395648 -0.01567371 -0.00372100
v -0.02395648 -0.01567371 -0.00050271
v -0.02335718 -0.01163701 -0.00050271
v 0.02018137 -0.01801399 -0.01240106
v 0.01868236 -0.02811078 -0.01240106
v 0.01507578 -0.02757534 -0.01240106
v 0.01627736 -0.01743439 -0.01240106
v 0.01536662 -0.01729918 -0.01240106
v 0.01416503 -0.02744013 -0.01240106
v 0.01066677 -0.02692076 -0.01240106
v 0.01191792 -0.01678717 -0.01240106
v 0.01100731 -0.01665198 -0.01240106
v 0.00975616 -0.02678557 -0.01240106
v 0.00605978 -0.02623679 -0.01240106
v 0.00795536 -0.01619887 -0.01240106
v 0.00704426 -0.01606361 -0.01240106
v 0.00514869 -0.02610153 -0.01240106
v 0.00194801 -0.02562635 -0.01240106
v 0.00319917 -0.01549276 -0.01240106
v 0.00228856 -0.01535756 -0.01240106
v 0.00103740 -0.02549115 -0.01240106
v -0.00265897 -0.02494238 -0.01240106
v -0.00076340 -0.01490446 -0.01240106
v -0.00167449 -0.01476920 -0.01240106
v -0.00357007 -0.02480711 -0.01240106
v -0.00696916 -0.02430247 -0.01240106
v -0.00551973 -0.01419832 -0.01240106
v -0.00643005 -0.01406317 -0.01240106
v -0.00787948 -0.02416732 -0.01240106
v -0.01088179 -0.02372158 -0.01240106
v -0.00987849 -0.01355120 -0.01240106
v -0.01079003 -0.01341587 -0.01240106
v -0.01179334 -0.02358625 -0.01240106
v -0.01539028 -0.02305224 -0.01240106
v -0.01359385 -0.01299961 -0.01240106
v -0.01450459 -0.01286439 -0.01240106
v -0.01630103 -0.02291702 -0.01240106
v -0.02009687 -0.02235348 -0.01240106
v -0.01859786 -0.01225669 -0.01240106
v -0.00551973 -0.01419832 0.01237437
v -0.00551973 -0.01419832 0.01174464
v -0.00696916 -0.02430247 0.01174464
v -0.00696916 -0.02430247 0.01237437
v 0.01627736 -0.01743439 0.01237437
v 0.01627736 -0.01743439 0.01174464
v -0.01179334 -0.02358625 0.01237437
v -0.01179334 -0.02358625 0.01174464
v -0.01079003 -0.01341587 0.01174464
v -0.01079003 -0.01341587 0.01237437
v -0.01088179 -0.02372158 0.01237437
v -0.01088179 -0.02372158 0.01174464
v 0.02011353 -0.01800393 0.00450752
v -0.00643005 -0.01406317 0.01237437
v -0.00643005 -0.01406317 0.01174464
v -0.00987849 -0.01355120 0.01237437
v -0.00787948 -0.02416732 0.01237437
v -0.00787948 -0.02416732 0.01174464
v 0.02011353 -0.01800393 0.00352812
v 0.01952781 -0.01791697 0.00352812
v 0.01536662 -0.01729918 0.01237437
v 0.01536662 -0.01729918 0.01174464
v -0.00076340 -0.01490446 0.01237437
v -0.00076340 -0.01490446 0.01174464
v -0.00167449 -0.01476920 0.01237437
v -0.00167449 -0.01476920 0.01174464
v 0.01952781 -0.01791697 0.00450752
v 0.01802881 -0.02801376 -0.00771417
v 0.01952781 -0.01791697 -0.00758626
v 0.01952781 -0.01791697 -0.00856505
v 0.01802881 -0.02801376 -0.00869297
v 0.02011353 -0.01800393 0.01208013
v 0.01861452 -0.02810072 0.01208013
v -0.02335718 -0.01163701 0.01208013
v -0.02335718 -0.01163701 0.00890724
v -0.02395648 -0.01567371 0.00876553
v -0.02395648 -0.01567371 0.01208013
v 0.01802881 -0.02801376 -0.00317107
v 0.01952781 -0.01791697 -0.00355480
v 0.01952781 -0.01791697 -0.00453420
v 0.01416503 -0.02744013 -0.01177133
v 0.01507578 -0.02757534 -0.01177133
v 0.00975616 -0.02678557 0.01174464
v 0.00975616 -0.02678557 0.01237437
v 0.01861452 -0.02810072 -0.00001334
v 0.01802881 -0.02801376 -0.00050271
v 0.01802881 -0.02801376 -0.00001334
v 0.01536662 -0.01729918 -0.01177133
v -0.02335718 -0.01163701 -0.00001334
v -0.02277146 -0.01172396 -0.00050271
v -0.02277146 -0.01172396 -0.00001334
v 0.01952781 -0.01791697 -0.00050271
v 0.01627736 -0.01743439 -0.01177133
v -0.02337076 -0.01576067 -0.00050271
v -0.00987849 -0.01355120 0.01174464
v -0.01539028 -0.02305224 0.01237437
v -0.01539028 -0.02305224 0.01174464
v -0.01630103 -0.02291702 0.01174464
v -0.01630103 -0.02291702 0.01237437
v 0.00975616 -0.02678557 -0.01177133
v 0.01066677 -0.02692076 -0.01177133
v -0.02395648 -0.01567371 0.00778624
v -0.02337076 -0.01576067 0.00778624
v -0.02277146 -0.01172396 0.00792794
v -0.02335718 -0.01163701 0.00792794
v -0.01450459 -0.01286439 0.01174464
v -0.01450459 -0.01286439 0.01237437
v 0.01100731 -0.01665198 -0.01177133
v 0.01861452 -0.02810072 0.00047602
v 0.02011353 -0.01800393 0.00047602
v -0.01359385 -0.01299961 0.01174464
v -0.01359385 -0.01299961 0.01237437
v 0.01191792 -0.01678717 -0.01177133
v -0.02277146 -0.01172396 0.00890724
v -0.02403080 -0.01640128 0.00861953
v -0.04257109 -0.01364872 0.00853565
v -0.02337076 -0.01576067 -0.00372100
v -0.02337076 -0.01576067 -0.00470053
v -0.04235734 -0.01220899 0.00912207
v -0.04382562 -0.01199102 0.00912207
v -0.04382562 -0.01199102 0.00944347
v -0.04235734 -0.01220899 0.00944347
v 0.00514869 -0.02610153 -0.01177133
v 0.00605978 -0.02623679 -0.01177133
v -0.02277146 -0.01172396 -0.00355474
v 0.00704426 -0.01606361 -0.01177133
v -0.02277146 -0.01172396 -0.00453427
v 0.00795536 -0.01619887 -0.01177133
v -0.02337076 -0.01576067 -0.00781292
v -0.02337076 -0.01576067 -0.00879222
v 0.00103740 -0.02549115 -0.01177133
v 0.00194801 -0.02562635 -0.01177133
v -0.02277146 -0.01172396 -0.00795462
v 0.00228856 -0.01535756 -0.01177133
v -0.02277146 -0.01172396 -0.00893392
v 0.00319917 -0.01549276 -0.01177133
v 0.01100731 -0.01665198 0.01237437
v -0.00357007 -0.02480711 -0.01177133
v -0.00265897 -0.02494238 -0.01177133
v -0.01950817 -0.01212155 0.01237437
v -0.02341239 -0.01154191 0.01237437
v -0.02491140 -0.02163870 0.01237437
v -0.00167449 -0.01476920 -0.01177133
v 0.01100731 -0.01665198 0.01174464
v -0.00076340 -0.01490446 -0.01177133
v -0.02335718 -0.01163701 0.00047602
v -0.02395648 -0.01567371 0.00047602
v -0.00787948 -0.02416732 -0.01177133
v -0.00696916 -0.02430247 -0.01177133
v -0.00643005 -0.01406317 -0.01177133
v -0.00551973 -0.01419832 -0.01177133
v -0.02337076 -0.01576067 0.00876553
v 0.01802881 -0.02801376 0.00047602
v 0.01952781 -0.01791697 0.00047602
v -0.01179334 -0.02358625 -0.01177133
v -0.01088179 -0.02372158 -0.01177133
v -0.01079003 -0.01341587 -0.01177133
v -0.00987849 -0.01355120 -0.01177133
v -0.02277146 -0.01172396 0.00047602
v -0.02337076 -0.01576067 0.00047602
v -0.01630103 -0.02291702 -0.01177133
v -0.01539028 -0.02305224 -0.01177133
v -0.01450459 -0.01286439 -0.01177133
v -0.01950817 -0.01212155 0.01174464
v -0.01359385 -0.01299961 -0.01177133
v -0.02100717 -0.02221834 -0.01177133
v -0.02009687 -0.02235348 -0.01177133
v -0.01950817 -0.01212155 -0.01177133
v -0.01859786 -0.01225669 -0.01177133
v 0.01802881 -0.02801376 -0.00415047
v -0.04235734 -0.01220899 -0.00832480
v -0.04257109 -0.01364872 -0.00832480
v -0.02403080 -0.01640128 -0.00832480
v -0.02381706 -0.01496156 -0.00832480
v -0.04235734 -0.01220899 -0.00947016
v -0.04257109 -0.01364872 -0.00947016
v -0.04403938 -0.01343074 -0.00947016
v -0.04382562 -0.01199102 -0.00947016
v -0.04382562 -0.01199102 -0.00864622
v -0.04403938 -0.01343074 -0.00856234
v -0.04403938 -0.01343074 -0.00832480
v -0.04382562 -0.01199102 -0.00832480
v -0.04235734 -0.01220899 -0.00914875
v -0.04382562 -0.01199102 -0.00914875
v -0.04257109 -0.01364872 -0.00856234
v -0.04235734 -0.01220899 0.00861953
v -0.02381706 -0.01496156 0.00861953
v -0.02403080 -0.01640128 0.00944347
v -0.04257109 -0.01364872 0.00944347
v -0.04257109 -0.01364872 0.00920595
v -0.02403080 -0.01640128 0.00912207
v -0.04320919 -0.01794677 0.00853565
v -0.04467747 -0.01772879 0.00853565
v -0.04403938 -0.01343074 0.00853565
v -0.04382562 -0.01199102 0.00861953
v -0.04403938 -0.01343074 0.00920595
v -0.02381706 -0.01496156 0.00912207
v -0.02403080 -0.01640128 -0.00864622
v -0.02381706 -0.01496156 -0.00914875
v -0.02381706 -0.01496156 -0.00947016
v -0.02403080 -0.01640128 -0.00947016
v -0.02381706 -0.01496156 -0.00864622
v -0.04235734 -0.01220899 -0.00864622
v -0.02403080 -0.01640128 -0.00914875
v -0.04257109 -0.01364872 -0.00923263
v -0.04403938 -0.01343074 -0.00923263
v -0.04320919 -0.01794677 -0.00856234
v -0.04320919 -0.01794677 -0.00923263
v -0.04467747 -0.01772879 -0.00856234
v -0.04467747 -0.01772879 -0.00923263
v -0.04320919 -0.01794677 0.00920595
v -0.04403938 -0.01343074 0.00944347
v -0.04403938 -0.01343074 0.00829811
v -0.04382562 -0.01199102 0.00829811
v -0.04467747 -0.01772879 0.00920595
v -0.02381706 -0.01496156 0.00944347
v -0.01597135 -0.01221734 0.00861953
v -0.01597135 -0.01221734 0.00829811
v -0.01418926 -0.00021374 0.00829811
v -0.01418926 -0.00021374 0.00861953
v -0.01741108 -0.01200361 0.00912207
v -0.01741108 -0.01200361 0.00944347
v -0.01562897 0.00000000 0.00944347
v -0.01562897 0.00000000 0.00912207
v -0.01741108 -0.01200361 0.00829811
v -0.01562897 0.00000000 0.00829811
v -0.01741108 -0.01200361 0.00861953
v -0.01562897 0.00000000 0.00861953
v -0.01597135 -0.01221734 0.00944347
v -0.01418926 -0.00021374 0.00944347
v -0.01597135 -0.01221734 0.00912207
v -0.01418926 -0.00021374 0.00912207
v -0.02365710 -0.01171120 0.01162800
v -0.02299031 -0.01181020 0.01162800
v -0.02343539 -0.01480813 0.01162800
v -0.01741108 -0.01200361 -0.00914875
v -0.01562897 0.00000000 -0.00914875
v -0.01562897 0.00000000 -0.00947016
v -0.01741108 -0.01200361 -0.00947016
v -0.01597135 -0.01221734 -0.00832480
v -0.01418926 -0.00021374 -0.00832480
v -0.01562897 0.00000000 -0.00832480
v -0.01741108 -0.01200361 -0.00832480
v 0.01964670 -0.02309429 0.01162800
v 0.01897990 -0.02299529 0.01162800
v 0.01969955 -0.01814808 0.01162800
v 0.02036634 -0.01824708 0.01162800
v -0.01741108 -0.01200361 -0.00864622
v -0.01562897 0.00000000 -0.00864622
v -0.01597135 -0.01221734 -0.00864622
v -0.01418926 -0.00021374 -0.00864622
v -0.01597135 -0.01221734 -0.00947016
v -0.01418926 -0.00021374 -0.00947016
v -0.01418926 -0.00021374 -0.00914875
v -0.01597135 -0.01221734 -0.00914875
v 0.01940578 -0.01806589 0.01196138
v -0.02269551 -0.01181538 0.01196138
v -0.02342074 -0.01670033 0.01196138
v 0.01868055 -0.02295085 0.01196138
v 0.01940578 -0.01806589 0.01267829
v 0.02051728 -0.01723039 0.01267829
v -0.02350616 -0.01069451 0.01267829
v -0.02269551 -0.01181538 0.01267829
v -0.02365710 -0.01171120 -0.01165469
v -0.02343539 -0.01480813 -0.01165469
v -0.02299031 -0.01181020 -0.01165469
v 0.01964670 -0.02309429 -0.01165469
v 0.02036634 -0.01824708 -0.01165469
v 0.01969955 -0.01814808 -0.01165469
v 0.01897990 -0.02299529 -0.01165469
v 0.02051728 -0.01723039 -0.00001334
v 0.02051728 -0.01723039 -0.01270497
v -0.02350616 -0.01069451 -0.01270497
v -0.02350616 -0.01069451 -0.00001334
v 0.01940017 -0.01810365 -0.00001334
v 0.01868055 -0.02295085 -0.00001334
v 0.01868055 -0.02295085 0.01162800
v 0.01940017 -0.01810365 0.01162800
v -0.02342074 -0.01670033 0.01267829
v 0.01892146 -0.02797925 -0.00001334
v 0.01892146 -0.02797925 -0.01165469
v 0.01825467 -0.02788025 -0.01165469
v 0.01825467 -0.02788025 -0.00001334
v 0.01780996 -0.02881475 -0.00001334
v 0.01780996 -0.02881475 0.01162800
v 0.01868055 -0.02295085 -0.01165469
v 0.01780996 -0.02881475 -0.01165469
v -0.02270112 -0.01185313 -0.00001334
v -0.02270112 -0.01185313 -0.01165469
v 0.01940017 -0.01810365 -0.01165469
v 0.01877613 -0.02895818 0.01267829
v 0.01877613 -0.02895818 -0.00001334
v -0.02270112 -0.01185313 0.01162800
v -0.02342074 -0.01670033 -0.00001334
v -0.02365710 -0.01171120 -0.00001334
v -0.02299031 -0.01181020 -0.00001334
v -0.02524731 -0.02242231 -0.01270497
v 0.01877613 -0.02895818 -0.01270497
v -0.02437674 -0.01655840 -0.00001334
v -0.02414598 -0.02158529 0.01267829
v -0.02524731 -0.02242231 0.01267829
v 0.01795531 -0.02783581 0.01267829
v 0.01964670 -0.02309429 0.01267829
v 0.01868055 -0.02295085 0.01267829
v 0.02036634 -0.01824708 -0.00001334
v -0.02343539 -0.01480813 -0.00001334
v -0.02410218 -0.01470913 -0.00001334
v -0.02414598 -0.02158529 -0.01270497
v -0.02342074 -0.01670033 -0.01270497
v -0.02342074 -0.01670033 -0.01198806
v -0.02414598 -0.02158529 -0.01198806
v 0.01892146 -0.02797925 0.01162800
v 0.01825467 -0.02788025 0.01162800
v -0.02414598 -0.02158529 0.01196138
v 0.01964670 -0.02309429 -0.01270497
v 0.01868055 -0.02295085 -0.01270497
v 0.01940578 -0.01806589 -0.01270497
v -0.02269551 -0.01181538 -0.01270497
v 0.01795531 -0.02783581 -0.01270497
v 0.01795531 -0.02783581 0.01196138
v 0.01897990 -0.02299529 -0.00001334
v 0.01868055 -0.02295085 -0.01198806
v 0.01795531 -0.02783581 -0.01198806
v 0.01940578 -0.01806589 -0.01198806
v -0.02269551 -0.01181538 -0.01198806
v 0.01969955 -0.01814808 -0.00001334
v -0.02337076 -0.01576067 -0.00001334
v -0.02395648 -0.01567371 -0.00001334
v 0.01952781 -0.01791697 -0.00001334
v 0.02011353 -0.01800393 -0.00001334
v 0.02018137 -0.01801399 0.01237437
v 0.01868236 -0.02811078 0.01237437
v 0.00642664 -0.01130635 0.00998927
v 0.00596060 -0.01115990 0.00998927
v 0.00596060 -0.01115990 0.00748365
v 0.00642664 -0.01130635 0.00748365
v 0.00855163 -0.01292126 0.00998927
v 0.00855163 -0.01292126 0.00748365
v 0.00852926 -0.01223334 0.00748365
v 0.00852926 -0.01223334 0.00998927
v 0.00461662 -0.01161104 0.00998927
v 0.00433333 -0.01200901 0.00998927
v 0.00433333 -0.01200901 0.00748365
v 0.00461662 -0.01161104 0.00748365
v 0.00547212 -0.01116464 0.00998927
v 0.00547212 -0.01116464 0.00748365
v 0.00642664 -0.01130635 -0.01001596
v 0.00642664 -0.01130635 -0.00751034
v 0.00596060 -0.01115990 -0.00751034
v 0.00596060 -0.01115990 -0.01001596
v 0.00547212 -0.01116464 -0.00751034
v 0.00547212 -0.01116464 -0.01001596
v 0.00319089 -0.01144078 -0.01001596
v 0.00296961 -0.01209254 -0.01001596
v 0.00296961 -0.01209254 -0.00751034
v 0.00319089 -0.01144078 -0.00751034
v 0.00727574 -0.01293362 -0.01001596
v 0.00727574 -0.01293362 -0.00751034
v 0.00727101 -0.01244515 -0.00751034
v 0.00727101 -0.01244515 -0.01001596
v 0.00370568 -0.01071760 -0.01001596
v 0.00370568 -0.01071760 -0.00751034
v 0.00771805 -0.01067870 -0.01001596
v 0.00699487 -0.01016392 -0.01001596
v 0.00699485 -0.01016392 -0.00751034
v 0.00771805 -0.01067870 -0.00751034
v 0.00500902 -0.01132010 -0.00751034
v 0.00500902 -0.01132010 -0.01001596
v 0.00461662 -0.01161104 -0.00751034
v 0.00461662 -0.01161104 -0.01001596
v 0.00711555 -0.01198204 -0.00751034
v 0.00711555 -0.01198204 -0.01001596
v 0.00682461 -0.01158964 -0.00751034
v 0.00682461 -0.01158964 -0.01001596
v 0.00824677 -0.01139178 -0.01001596
v 0.00824677 -0.01139178 -0.00751034
v 0.00852926 -0.01223334 -0.01001596
v 0.00852926 -0.01223334 -0.00751034
v 0.00441876 -0.01018888 -0.01001596
v 0.00441876 -0.01018888 -0.00751034
v 0.00526031 -0.00990639 -0.01001596
v 0.00526031 -0.00990639 -0.00751034
v 0.00855163 -0.01292126 -0.01001596
v 0.00855163 -0.01292126 -0.00751034
v 0.00614798 -0.00989778 -0.01001596
v 0.00614798 -0.00989778 -0.00751034
v 0.00433333 -0.01200901 -0.00751034
v 0.00433333 -0.01200901 -0.01001596
v 0.00418688 -0.01247505 -0.00751034
v 0.00418688 -0.01247505 -0.01001596
v 0.00376098 -0.01534385 -0.01001596
v 0.00251439 -0.01515878 -0.01001596
v 0.00684983 -0.01580244 -0.00751034
v 0.00809641 -0.01598751 -0.00751034
v 0.00376098 -0.01534385 -0.00751034
v 0.00251439 -0.01515878 -0.00751034
v 0.00809641 -0.01598751 -0.01001596
v 0.00684983 -0.01580244 -0.01001596
v 0.00809641 -0.01598751 0.00998927
v 0.00809641 -0.01598751 0.00748365
v 0.00614798 -0.00989778 0.00998927
v 0.00526031 -0.00990639 0.00998927
v 0.00824677 -0.01139178 0.00998927
v 0.00824677 -0.01139178 0.00748365
v 0.00771805 -0.01067870 0.00748365
v 0.00771805 -0.01067870 0.00998927
v 0.00727574 -0.01293362 0.00998927
v 0.00727101 -0.01244515 0.00998927
v 0.00727101 -0.01244515 0.00748365
v 0.00727574 -0.01293362 0.00748365
v 0.00418688 -0.01247505 0.00748365
v 0.00376098 -0.01534385 0.00748365
v 0.00251439 -0.01515878 0.00748365
v 0.00296961 -0.01209254 0.00748365
v 0.00699485 -0.01016392 0.00748365
v 0.00699487 -0.01016392 0.00998927
v 0.00614798 -0.00989778 0.00748365
v 0.00526031 -0.00990639 0.00748365
v 0.00500902 -0.01132010 0.00998927
v 0.00500902 -0.01132010 0.00748365
v 0.00441876 -0.01018888 0.00998927
v 0.00370568 -0.01071760 0.00998927
v 0.00370568 -0.01071760 0.00748365
v 0.00319089 -0.01144078 0.00748365
v 0.00319089 -0.01144078 0.00998927
v 0.00711555 -0.01198204 0.00998927
v 0.00441876 -0.01018888 0.00748365
v 0.00296961 -0.01209254 0.00998927
v 0.00251439 -0.01515878 0.00998927
v 0.00376098 -0.01534385 0.00998927
v 0.00418688 -0.01247505 0.00998927
v 0.00682461 -0.01158964 0.00998927
v 0.00682461 -0.01158964 0.00748365
v 0.00711555 -0.01198204 0.00748365
v 0.00684983 -0.01580244 0.00748365
v 0.00684983 -0.01580244 0.00998927
v 0.00618487 -0.01410025 -0.01502570
v 0.00573131 -0.01417208 -0.01502570
v 0.00730222 -0.02409043 -0.01502570
v 0.00775578 -0.02401860 -0.01502570
v 0.00618487 -0.01410025 -0.01613005
v 0.00659404 -0.01389176 -0.01613005
v 0.00659404 -0.01389176 -0.01502570
v 0.00719906 -0.01270434 -0.01502570
v 0.00712723 -0.01315790 -0.01502570
v 0.01704557 -0.01472880 -0.01502570
v 0.01711741 -0.01427524 -0.01502570
v 0.00691874 -0.01356706 -0.01502570
v 0.00691874 -0.01356706 -0.01613005
v 0.00712723 -0.01315790 -0.01613005
v 0.00659404 -0.01151691 -0.01613005
v 0.00618487 -0.01130842 -0.01613005
v 0.01074383 -0.00236096 -0.01613005
v 0.01115300 -0.00256943 -0.01613005
v 0.00719906 -0.01270434 -0.01613005
v 0.00712723 -0.01225077 -0.01613005
v 0.00712723 -0.01225077 -0.01502570
v 0.00454388 -0.01184161 -0.01613005
v 0.00454388 -0.01184161 -0.01502570
v -0.00255688 -0.00474087 -0.01502570
v -0.00255688 -0.00474087 -0.01613005
v 0.00691874 -0.01184161 -0.01502570
v 0.00691874 -0.01184161 -0.01613005
v 0.00659404 -0.01151691 -0.01502570
v 0.01704557 -0.01472880 -0.01613005
v 0.00618487 -0.01130842 -0.01502570
v 0.00573131 -0.01123659 -0.01613005
v 0.00573131 -0.01123659 -0.01502570
v 0.01115300 -0.00256943 -0.01502570
v 0.01074383 -0.00236096 -0.01502570
v 0.00527775 -0.01130842 -0.01502570
v 0.00527775 -0.01130842 -0.01613005
v 0.00486859 -0.01151691 -0.01613005
v 0.00486859 -0.01151691 -0.01502570
v -0.00223217 -0.00441616 -0.01613005
v 0.00433540 -0.01225077 -0.01613005
v 0.00433540 -0.01225077 -0.01502570
v 0.00454388 -0.01356706 -0.01613005
v 0.00454388 -0.01356706 -0.01502570
v -0.00440359 -0.01812602 -0.01502570
v -0.00440359 -0.01812602 -0.01613005
v 0.00426356 -0.01270434 -0.01502570
v 0.00426356 -0.01270434 -0.01613005
v 0.00433540 -0.01315790 -0.01613005
v 0.00433540 -0.01315790 -0.01502570
v 0.00486859 -0.01389176 -0.01613005
v 0.00486859 -0.01389176 -0.01502570
v 0.00691874 -0.01184161 -0.01653502
v 0.00659404 -0.01151691 -0.01653502
v -0.00223217 -0.00441616 -0.01502570
v 0.00527775 -0.01410025 -0.01502570
v 0.00527775 -0.01410025 -0.01613005
v 0.00573131 -0.01417208 -0.01613005
v 0.00573131 -0.02337075 0.01475744
v 0.00781223 -0.02316579 0.01475744
v 0.00820732 -0.02515210 0.01475744
v 0.00573131 -0.02539597 0.01475744
v 0.00030963 -0.02283924 -0.01613005
v 0.00030963 -0.02283924 -0.01502570
v 0.01711741 -0.01427524 -0.01613005
v 0.00775578 -0.02401860 -0.01613005
v 0.00730222 -0.02409043 -0.01613005
v 0.00071879 -0.02304771 -0.01502570
v -0.00558295 -0.01067986 -0.01613005
v -0.00558295 -0.01067986 -0.01502570
v 0.00071879 -0.02304771 -0.01613005
v -0.00565478 -0.01113342 -0.01502570
v 0.00416041 -0.00131824 -0.01613005
v 0.00416041 -0.00131824 -0.01502570
v -0.00565478 -0.01113342 -0.01613005
v 0.00370685 -0.00139008 -0.01502570
v 0.01607469 -0.00769181 -0.01613005
v 0.01607469 -0.00769181 -0.01502570
v 0.00370685 -0.00139008 -0.01613005
v 0.01586622 -0.00728265 -0.01502570
v 0.01369478 -0.02099252 -0.01613005
v 0.01369478 -0.02099252 -0.01502570
v 0.01586622 -0.00728265 -0.01613005
v 0.01401949 -0.02066780 -0.01502570
v -0.00461206 -0.01771686 -0.01613005
v -0.00461206 -0.01771686 -0.01502570
v 0.01401949 -0.02066780 -0.01613005
v 0.00712723 -0.01225077 0.01499902
v 0.01607469 -0.00769181 0.01499902
v 0.01607469 -0.00769181 0.01610337
v 0.00712723 -0.01225077 0.01610337
v 0.00659404 -0.01389176 0.01610337
v 0.01369478 -0.02099252 0.01610337
v 0.01401949 -0.02066780 0.01610337
v 0.00691874 -0.01356706 0.01610337
v 0.00691874 -0.01356706 0.01499902
v 0.00712723 -0.01315790 0.01499902
v 0.00712723 -0.01315790 0.01610337
v 0.00719906 -0.01270434 0.01499902
v 0.01711741 -0.01427524 0.01499902
v 0.01704557 -0.01472880 0.01499902
v 0.00719906 -0.01270434 0.01610337
v 0.00486859 -0.01151691 0.01610337
v -0.00223217 -0.00441616 0.01610337
v -0.00255688 -0.00474087 0.01610337
v 0.00454388 -0.01184161 0.01610337
v 0.00659404 -0.01151691 0.01499902
v 0.01115300 -0.00256943 0.01499902
v 0.01115300 -0.00256943 0.01610337
v 0.00659404 -0.01151691 0.01610337
v 0.00712723 -0.01315790 0.01650833
v 0.00691874 -0.01356706 0.01650833
v 0.00573131 -0.01123659 0.01610337
v 0.00573131 -0.01123659 0.01650833
v 0.00618487 -0.01130842 0.01650833
v 0.00618487 -0.01130842 0.01610337
v 0.00454388 -0.01356706 0.01610337
v -0.00440359 -0.01812602 0.01610337
v -0.00440359 -0.01812602 0.01499902
v 0.00454388 -0.01356706 0.01499902
v 0.00454388 -0.01184161 0.01499902
v -0.00255688 -0.00474087 0.01499902
v -0.00223217 -0.00441616 0.01499902
v 0.00486859 -0.01151691 0.01499902
v 0.01401949 -0.02066780 0.01499902
v 0.00691874 -0.01184161 0.01610337
v 0.01586622 -0.00728265 0.01610337
v 0.01586622 -0.00728265 0.01499902
v 0.00691874 -0.01184161 0.01499902
v 0.01369478 -0.02099252 0.01499902
v 0.00659404 -0.01389176 0.01499902
v 0.00527775 -0.01130842 0.01499902
v 0.00370685 -0.00139008 0.01499902
v 0.00416041 -0.00131824 0.01499902
v 0.00573131 -0.01123659 0.01499902
v 0.01558579 -0.00862248 0.01475744
v 0.01460011 -0.00677840 0.01475744
v 0.01628401 -0.00565325 0.01475744
v 0.01745686 -0.00784745 0.01475744
v 0.00659404 -0.01151691 0.01650833
v 0.00433540 -0.01225077 0.01499902
v -0.00558295 -0.01067986 0.01499902
v -0.00558295 -0.01067986 0.01610337
v 0.00433540 -0.01225077 0.01610337
v 0.00426356 -0.01270434 0.01610337
v -0.00565478 -0.01113342 0.01610337
v -0.00565478 -0.01113342 0.01499902
v 0.00426356 -0.01270434 0.01499902
v 0.00527775 -0.01410025 0.01610337
v 0.00071879 -0.02304771 0.01610337
v 0.00071879 -0.02304771 0.01499902
v 0.00527775 -0.01410025 0.01499902
v 0.00365039 -0.02316579 -0.01478413
v 0.00325530 -0.02515210 -0.01478413
v 0.00573131 -0.02539597 -0.01478413
v 0.00573131 -0.02337075 -0.01478413
v 0.00365039 -0.02316579 -0.01637161
v 0.00573131 -0.02337075 -0.01637161
v 0.00573131 -0.02539597 -0.01637161
v 0.00325530 -0.02515210 -0.01637161
v 0.00164946 -0.02255882 -0.01637161
v 0.00087444 -0.02442988 -0.01637161
v -0.00019463 -0.02157313 -0.01637161
v -0.00131978 -0.02325705 -0.01637161
v -0.00181098 -0.02024663 -0.01637161
v -0.00324303 -0.02167868 -0.01637161
v -0.00313749 -0.01863027 -0.01637161
v -0.00482140 -0.01975543 -0.01637161
v -0.00412317 -0.01678619 -0.01637161
v -0.00599423 -0.01756121 -0.01637161
v -0.00473015 -0.01478526 -0.01637161
v -0.00671645 -0.01518035 -0.01637161
v -0.00493510 -0.01270434 -0.01637161
v -0.00696032 -0.01270434 -0.01637161
v -0.00473015 -0.01062342 -0.01637161
v -0.00671645 -0.01022833 -0.01637161
v -0.00412317 -0.00862248 -0.01637161
v -0.00599423 -0.00784746 -0.01637161
v -0.00313749 -0.00677840 -0.01637161
v -0.00482140 -0.00565325 -0.01637161
v -0.00181098 -0.00516204 -0.01637161
v -0.00324303 -0.00372999 -0.01637161
v -0.00019463 -0.00383554 -0.01637161
v -0.00131978 -0.00215162 -0.01637161
v 0.00164946 -0.00284986 -0.01637161
v 0.00087444 -0.00097879 -0.01637161
v 0.00365039 -0.00224288 -0.01637161
v 0.00325530 -0.00025657 -0.01637161
v 0.00573131 -0.00203792 -0.01637161
v 0.00573131 -0.00001270 -0.01637161
v 0.00781223 -0.00224288 -0.01637161
v 0.00820732 -0.00025657 -0.01637161
v 0.00981317 -0.00284986 -0.01637161
v 0.01058818 -0.00097879 -0.01637161
v 0.01165725 -0.00383554 -0.01637161
v 0.01278240 -0.00215162 -0.01637161
v 0.01327361 -0.00516204 -0.01637161
v 0.01470565 -0.00372999 -0.01637161
v 0.01460011 -0.00677840 -0.01637161
v 0.01628401 -0.00565325 -0.01637161
v 0.01558579 -0.00862248 -0.01637161
v 0.01745686 -0.00784745 -0.01637161
v 0.01619277 -0.01062342 -0.01637161
v 0.01817907 -0.01022833 -0.01637161
v 0.01639773 -0.01270434 -0.01637161
v 0.01842294 -0.01270434 -0.01637161
v 0.01619277 -0.01478526 -0.01637161
v 0.01817907 -0.01518035 -0.01637161
v 0.01558579 -0.01678619 -0.01637161
v 0.01745684 -0.01756122 -0.01637161
v 0.01460011 -0.01863027 -0.01637161
v 0.01628402 -0.01975543 -0.01637161
v 0.01327361 -0.02024663 -0.01637161
v 0.01470565 -0.02167868 -0.01637161
v 0.01165725 -0.02157313 -0.01637161
v 0.01278240 -0.02325705 -0.01637161
v 0.00981317 -0.02255882 -0.01637161
v 0.01058818 -0.02442988 -0.01637161
v 0.00781223 -0.02316579 -0.01637161
v 0.00820732 -0.02515210 -0.01637161
v 0.00164946 -0.02255882 -0.01478413
v 0.00087444 -0.02442988 -0.01478413
v -0.00019463 -0.02157313 -0.01478413
v -0.00131978 -0.02325705 -0.01478413
v -0.00181098 -0.02024663 -0.01478413
v -0.00324303 -0.02167868 -0.01478413
v -0.00313749 -0.01863027 -0.01478413
v -0.00482140 -0.01975543 -0.01478413
v -0.00412317 -0.01678619 -0.01478413
v -0.00599423 -0.01756121 -0.01478413
v -0.00473015 -0.01478526 -0.01478413
v -0.00671645 -0.01518035 -0.01478413
v -0.00493510 -0.01270434 -0.01478413
v -0.00696032 -0.01270434 -0.01478413
v -0.00473015 -0.01062342 -0.01478413
v -0.00671645 -0.01022833 -0.01478413
v -0.00412317 -0.00862248 -0.01478413
v -0.00599423 -0.00784746 -0.01478413
v -0.00313749 -0.00677840 -0.01478413
v -0.00482140 -0.00565325 -0.01478413
v -0.00181098 -0.00516204 -0.01478413
v -0.00324303 -0.00372999 -0.01478413
v -0.00019463 -0.00383554 -0.01478413
v -0.00131978 -0.00215162 -0.01478413
v 0.00164946 -0.00284986 -0.01478413
v 0.00087444 -0.00097879 -0.01478413
v 0.00365039 -0.00224288 -0.01478413
v 0.00325530 -0.00025657 -0.01478413
v 0.00573131 -0.00203792 -0.01478413
v 0.00573131 -0.00001270 -0.01478413
v 0.00781222 -0.00224288 -0.01478413
v 0.00820732 -0.00025657 -0.01478413
v 0.00981317 -0.00284986 -0.01478413
v 0.01058818 -0.00097879 -0.01478413
v 0.01165725 -0.00383554 -0.01478413
v 0.01278240 -0.00215162 -0.01478413
v 0.01327361 -0.00516204 -0.01478413
v 0.01470565 -0.00372999 -0.01478413
v 0.01460011 -0.00677840 -0.01478413
v 0.01628401 -0.00565325 -0.01478413
v 0.01558579 -0.00862248 -0.01478413
v 0.01745686 -0.00784745 -0.01478413
v 0.01619277 -0.01062342 -0.01478413
v 0.01817907 -0.01022833 -0.01478413
v 0.01639773 -0.01270434 -0.01478413
v 0.01842294 -0.01270434 -0.01478413
v 0.01619277 -0.01478526 -0.01478413
v 0.01817907 -0.01518035 -0.01478413
v 0.01558579 -0.01678619 -0.01478413
v 0.01745684 -0.01756122 -0.01478413
v 0.01460011 -0.01863027 -0.01478413
v 0.01628402 -0.01975543 -0.01478413
v 0.01327361 -0.02024663 -0.01478413
v 0.01470565 -0.02167868 -0.01478413
v 0.01165725 -0.02157313 -0.01478413
v 0.01278240 -0.02325705 -0.01478413
v 0.00981317 -0.02255882 -0.01478413
v 0.01058818 -0.02442988 -0.01478413
v 0.00781223 -0.02316579 -0.01478413
v 0.00820732 -0.02515210 -0.01478413
v 0.01817907 -0.01022833 0.01634493
v 0.01842294 -0.01270434 0.01634493
v 0.01842294 -0.01270434 0.01475744
v 0.01817907 -0.01022833 0.01475744
v 0.00573131 -0.01417208 0.01610337
v 0.00730222 -0.02409043 0.01610337
v 0.00775578 -0.02401860 0.01610337
v 0.00618487 -0.01410025 0.01610337
v 0.00433540 -0.01315790 0.01610337
v -0.00461206 -0.01771686 0.01610337
v 0.00164946 -0.00284986 0.01634493
v 0.00087444 -0.00097879 0.01634493
v -0.00131978 -0.00215162 0.01634493
v -0.00019463 -0.00383554 0.01634493
v 0.00365039 -0.02316579 0.01634493
v 0.00325530 -0.02515210 0.01634493
v 0.00573131 -0.02539597 0.01634493
v 0.00573131 -0.02337075 0.01634493
v 0.00486859 -0.01389176 0.01499902
v 0.00030963 -0.02283924 0.01499902
v 0.00030963 -0.02283924 0.01610337
v 0.00486859 -0.01389176 0.01610337
v 0.01165725 -0.00383554 0.01634493
v 0.00981317 -0.00284986 0.01634493
v 0.00981317 -0.00284986 0.01475744
v 0.01165725 -0.00383554 0.01475744
v -0.00019463 -0.02157313 0.01634493
v -0.00131978 -0.02325705 0.01634493
v 0.00087444 -0.02442988 0.01634493
v 0.00164946 -0.02255882 0.01634493
v 0.00618487 -0.01410025 0.01499902
v 0.00775578 -0.02401860 0.01499902
v 0.00730222 -0.02409043 0.01499902
v 0.00573131 -0.01417208 0.01499902
v -0.00181098 -0.02024663 0.01634493
v -0.00324303 -0.02167868 0.01634493
v -0.00461206 -0.01771686 0.01499902
v 0.00433540 -0.01315790 0.01499902
v 0.00486859 -0.01389176 0.01650833
v 0.00454388 -0.01356706 0.01650833
v -0.00181098 -0.00516204 0.01634493
v -0.00181098 -0.00516204 0.01475744
v -0.00019463 -0.00383554 0.01475744
v 0.01327361 -0.00516204 0.01475744
v 0.01470565 -0.00372999 0.01475744
v 0.01058818 -0.00097879 0.01634493
v 0.01278240 -0.00215162 0.01634493
v 0.01278240 -0.00215162 0.01475744
v 0.01058818 -0.00097879 0.01475744
v -0.00313749 -0.01863027 0.01634493
v -0.00482140 -0.01975543 0.01634493
v -0.00412317 -0.01678619 0.01634493
v -0.00599423 -0.01756121 0.01634493
v -0.00412317 -0.00862248 0.01634493
v -0.00599423 -0.00784746 0.01634493
v -0.00671645 -0.01022833 0.01634493
v -0.00473015 -0.01062342 0.01634493
v 0.01327361 -0.02024663 0.01634493
v 0.01470565 -0.02167868 0.01634493
v 0.01628402 -0.01975543 0.01634493
v 0.01460011 -0.01863027 0.01634493
v -0.00313749 -0.00677840 0.01634493
v -0.00482140 -0.00565325 0.01634493
v 0.00573131 -0.00203792 0.01475744
v 0.00365039 -0.00224288 0.01475744
v 0.00325530 -0.00025657 0.01475744
v 0.00573131 -0.00001270 0.01475744
v 0.00164946 -0.02255882 0.01475744
v 0.00365039 -0.02316579 0.01475744
v 0.00325530 -0.02515210 0.01475744
v 0.00087444 -0.02442988 0.01475744
v -0.00131978 -0.02325705 0.01475744
v 0.01704557 -0.01472880 0.01610337
v 0.01711741 -0.01427524 0.01610337
v -0.00181098 -0.02024663 0.01475744
v -0.00019463 -0.02157313 0.01475744
v -0.00324303 -0.02167868 0.01475744
v -0.00493510 -0.01270434 0.01634493
v -0.00696032 -0.01270434 0.01634493
v -0.00671645 -0.01518035 0.01634493
v -0.00473015 -0.01478526 0.01634493
v 0.01470565 -0.02167868 0.01475744
v 0.01628402 -0.01975543 0.01475744
v 0.00416041 -0.00131824 0.01610337
v 0.00370685 -0.00139008 0.01610337
v 0.00527775 -0.01130842 0.01610337
v -0.00324303 -0.00372999 0.01634493
v 0.00573131 -0.00203792 0.01634493
v 0.00573131 -0.00001270 0.01634493
v 0.00325530 -0.00025657 0.01634493
v 0.00365039 -0.00224288 0.01634493
v 0.01619277 -0.01062342 0.01634493
v 0.01558579 -0.00862248 0.01634493
v 0.01619277 -0.01062342 0.01475744
v 0.00087444 -0.00097879 0.01475744
v -0.00131978 -0.00215162 0.01475744
v 0.01278240 -0.02325705 0.01634493
v 0.01058818 -0.02442988 0.01634493
v 0.01058818 -0.02442988 0.01475744
v 0.01278240 -0.02325705 0.01475744
v 0.01639773 -0.01270434 0.01634493
v 0.01460011 -0.01863027 0.01475744
v 0.01558579 -0.01678619 0.01475744
v 0.01745684 -0.01756122 0.01475744
v 0.01470565 -0.00372999 0.01634493
v -0.00324303 -0.00372999 0.01475744
v 0.01745684 -0.01756122 0.01634493
v 0.01558579 -0.01678619 0.01634493
v 0.00981317 -0.02255882 0.01634493
v 0.01165725 -0.02157313 0.01634493
v 0.01165725 -0.02157313 0.01475744
v 0.00981317 -0.02255882 0.01475744
v 0.01619277 -0.01478526 0.01634493
v 0.01619277 -0.01478526 0.01475744
v 0.01327361 -0.00516204 0.01634493
v -0.00482140 -0.00565325 0.01475744
v -0.00599423 -0.00784746 0.01475744
v -0.00313749 -0.01863027 0.01475744
v -0.00412317 -0.01678619 0.01475744
v 0.00781223 -0.02316579 0.01634493
v 0.00820732 -0.02515210 0.01634493
v 0.01639773 -0.01270434 0.01475744
v 0.00820732 -0.00025657 0.01634493
v 0.00781223 -0.00224288 0.01634493
v 0.01327361 -0.02024663 0.01475744
v 0.01628401 -0.00565325 0.01634493
v -0.00493510 -0.01270434 0.01475744
v -0.00473015 -0.01062342 0.01475744
v 0.01817907 -0.01518035 0.01475744
v -0.00696032 -0.01270434 0.01475744
v -0.00671645 -0.01518035 0.01475744
v 0.00691874 -0.01184161 -0.00001334
v 0.00691874 -0.01184161 -0.00600538
v 0.00659404 -0.01151691 -0.00600538
v 0.00659404 -0.01151691 -0.00001334
v 0.00164946 -0.00284986 0.01475744
v 0.00781222 -0.00224288 0.01475744
v 0.01817907 -0.01518035 0.01634493
v 0.01745686 -0.00784745 0.01634493
v -0.00412317 -0.00862248 0.01475744
v -0.00671645 -0.01022833 0.01475744
v 0.00719906 -0.01270434 0.00597869
v 0.00712723 -0.01225077 0.00597869
v 0.00659404 -0.01389176 0.00597869
v 0.00691874 -0.01356706 0.00597869
v 0.00618487 -0.01130842 -0.00001334
v 0.00573131 -0.01123659 -0.00001334
v 0.00573131 -0.01123659 0.00597869
v 0.00618487 -0.01130842 0.00597869
v 0.00618487 -0.01410025 -0.00001334
v 0.00659404 -0.01389176 -0.00001334
v 0.00618487 -0.01410025 0.00597869
v 0.00527775 -0.01410025 0.00597869
v 0.00573131 -0.01417208 0.00597869
v 0.00454388 -0.01184161 -0.00001334
v 0.00433540 -0.01225077 -0.00001334
v 0.00433540 -0.01225077 0.00597869
v 0.00454388 -0.01184161 0.00597869
v -0.00473015 -0.01478526 0.01475744
v 0.00712723 -0.01225077 -0.00001334
v 0.00691874 -0.01184161 0.00597869
v -0.00313749 -0.00677840 0.01475744
v 0.01460011 -0.00677840 0.01634493
v 0.00527775 -0.01130842 -0.00001334
v 0.00486859 -0.01151691 -0.00001334
v 0.00486859 -0.01151691 0.00597869
v 0.00527775 -0.01130842 0.00597869
v -0.00482140 -0.01975543 0.01475744
v -0.00599423 -0.01756121 0.01475744
v 0.00691874 -0.01356706 -0.00001334
v 0.00712723 -0.01315790 -0.00001334
v 0.00719906 -0.01270434 -0.00001334
v 0.00712723 -0.01315790 0.00597869
v 0.00820732 -0.00025657 0.01475744
v 0.00712723 -0.01315790 -0.00600538
v 0.00719906 -0.01270434 -0.00600538
v 0.00454388 -0.01356706 -0.00001334
v 0.00486859 -0.01389176 -0.00001334
v 0.00486859 -0.01389176 0.00597869
v 0.00454388 -0.01356706 0.00597869
v 0.00691874 -0.01356706 -0.00600538
v 0.00454388 -0.01184161 -0.00600538
v 0.00433540 -0.01225077 -0.00600538
v 0.00618487 -0.01130842 -0.00600538
v 0.00573131 -0.01123659 -0.00600538
v 0.00527775 -0.01130842 -0.00600538
v 0.00659404 -0.01389176 -0.00600538
v 0.00712723 -0.01225077 -0.00600538
v 0.00486859 -0.01389176 -0.00600538
v 0.00527775 -0.01410025 -0.00600538
v 0.00527775 -0.01410025 -0.00001334
v 0.00433540 -0.01315790 -0.00001334
v 0.00433540 -0.01315790 -0.00600538
v 0.00454388 -0.01356706 -0.00600538
v 0.00573131 -0.01417208 -0.00001334
v 0.00573131 -0.01417208 -0.00600538
v 0.00618487 -0.01410025 -0.00600538
v 0.00486859 -0.01151691 -0.00600538
v 0.00426356 -0.01270434 -0.00600538
v 0.00426356 -0.01270434 -0.00001334
v 0.00433540 -0.01315790 0.00597869
v 0.00659404 -0.01151691 0.00597869
v 0.00573131 -0.01417208 -0.01653502
v 0.00618487 -0.01410025 -0.01653502
v 0.00486859 -0.01151691 -0.01653502
v 0.00454388 -0.01184161 -0.01653502
v 0.00454388 -0.01356706 -0.01653502
v 0.00486859 -0.01389176 -0.01653502
v 0.00719906 -0.01270434 -0.01653502
v 0.00712723 -0.01225077 -0.01653502
v 0.00573131 -0.01123659 -0.01653502
v 0.00527775 -0.01130842 -0.01653502
v 0.00426356 -0.01270434 -0.01653502
v 0.00433540 -0.01315790 -0.01653502
v 0.00691874 -0.01356706 -0.01653502
v 0.00712723 -0.01315790 -0.01653502
v 0.00618487 -0.01130842 -0.01653502
v 0.00433540 -0.01225077 -0.01653502
v 0.00527775 -0.01410025 -0.01653502
v 0.00659404 -0.01389176 -0.01653502
v 0.00618487 -0.01130842 0.01499902
v 0.00433540 -0.01315790 0.01650833
v 0.00426356 -0.01270434 0.01650833
v 0.00454388 -0.01184161 0.01650833
v 0.00486859 -0.01151691 0.01650833
v 0.00691874 -0.01184161 0.01650833
v 0.01074383 -0.00236096 0.01499902
v 0.01074383 -0.00236096 0.01610337
v 0.00719906 -0.01270434 0.01650833
v 0.00426356 -0.01270434 0.00597869
v 0.00527775 -0.01410025 0.01650833
v 0.00433540 -0.01225077 0.01650833
v 0.00712723 -0.01225077 0.01650833
v 0.00659404 -0.01389176 0.01650833
v 0.00618487 -0.01410025 0.01650833
v 0.00573131 -0.01417208 0.01650833
v 0.00527775 -0.01130842 0.01650833
f 1 2 3
f 4 5 6
f 2 7 8
f 9 10 4
f 11 12 13
f 11 13 14
f 15 16 17
f 15 17 18
f 19 20 21
f 19 21 22
f 23 24 25
f 23 25 26
f 27 28 29
f 27 29 30
f 31 32 33
f 31 33 34
f 35 36 37
f 35 37 38
f 39 40 41
f 39 41 42
f 43 44 45
f 43 45 46
f 47 48 49
f 47 49 50
f 30 29 51
f 30 51 52
f 53 54 55
f 53 55 56
f 57 58 59
f 57 59 60
f 61 62 63
f 61 63 64
f 65 66 67
f 65 67 68
f 69 70 71
f 69 71 72
f 73 74 75
f 73 75 76
f 77 78 79
f 77 79 80
f 81 82 83
f 81 83 84
f 85 86 87
f 85 87 88
f 89 90 91
f 89 91 92
f 93 94 95
f 93 95 96
f 97 98 99
f 97 99 100
f 101 102 103
f 101 103 104
f 105 106 107
f 105 107 108
f 109 110 111
f 109 111 112
f 113 114 115
f 113 115 116
f 117 118 119
f 117 119 120
f 121 122 123
f 121 123 124
f 125 126 127
f 125 127 128
f 129 130 131
f 129 131 132
f 133 134 135
f 133 135 136
f 137 138 12
f 137 12 11
f 88 87 78
f 88 78 77
f 139 140 141
f 139 141 142
f 84 83 32
f 84 32 31
f 143 144 140
f 143 140 139
f 145 60 65
f 145 65 56
f 146 147 134
f 146 134 133
f 146 148 143
f 146 143 149
f 136 135 150
f 136 150 149
f 151 152 54
f 151 54 53
f 149 150 147
f 149 147 146
f 153 154 138
f 153 138 137
f 155 156 36
f 155 36 35
f 157 133 136
f 157 136 38
f 157 158 156
f 157 156 155
f 145 159 152
f 145 152 151
f 50 49 160
f 50 160 161
f 56 55 159
f 56 159 145
f 19 50 161
f 19 161 162
f 60 59 66
f 60 66 65
f 20 19 162
f 20 162 163
f 57 164 165
f 57 165 68
f 49 20 163
f 49 163 160
f 166 167 168
f 166 168 169
f 25 24 170
f 25 170 171
f 34 33 82
f 34 82 81
f 47 25 171
f 47 171 172
f 14 13 154
f 14 154 153
f 99 102 173
f 99 173 174
f 76 75 175
f 76 175 176
f 177 23 178
f 177 178 179
f 102 101 180
f 102 180 173
f 181 96 182
f 181 182 183
f 23 26 184
f 23 184 178
f 101 100 185
f 101 185 180
f 96 95 186
f 96 186 182
f 148 187 144
f 148 144 143
f 100 99 174
f 100 174 185
f 92 91 44
f 92 44 43
f 188 189 190
f 188 190 191
f 103 106 192
f 103 192 193
f 194 195 196
f 194 196 197
f 191 190 198
f 191 198 199
f 106 105 200
f 106 200 192
f 201 202 151
f 201 151 53
f 199 198 203
f 199 203 204
f 105 104 205
f 105 205 200
f 197 196 206
f 197 206 167
f 207 208 64
f 207 64 63
f 104 103 193
f 104 193 205
f 17 94 209
f 17 209 210
f 211 212 213
f 211 213 214
f 107 110 215
f 107 215 216
f 94 93 217
f 94 217 209
f 110 109 218
f 110 218 215
f 93 18 219
f 93 219 217
f 109 108 220
f 109 220 218
f 18 17 210
f 18 210 219
f 108 107 216
f 108 216 220
f 41 16 221
f 41 221 222
f 111 114 223
f 111 223 224
f 16 15 225
f 16 225 221
f 114 113 226
f 114 226 223
f 15 42 227
f 15 227 225
f 113 112 228
f 113 228 226
f 42 41 222
f 42 222 227
f 112 111 224
f 112 224 228
f 229 85 88
f 229 88 176
f 115 118 230
f 115 230 231
f 232 233 234
f 232 234 52
f 118 117 235
f 118 235 230
f 176 175 236
f 176 236 229
f 117 116 237
f 117 237 235
f 80 79 86
f 80 86 85
f 116 115 231
f 116 231 237
f 34 238 239
f 34 239 31
f 119 122 240
f 119 240 241
f 153 73 76
f 153 76 14
f 122 121 242
f 122 242 240
f 68 67 58
f 68 58 57
f 121 120 243
f 121 243 242
f 168 244 195
f 168 195 194
f 120 119 241
f 120 241 243
f 201 245 246
f 201 246 202
f 123 126 247
f 123 247 248
f 177 179 245
f 177 245 201
f 126 125 249
f 126 249 247
f 43 155 35
f 43 35 92
f 125 124 250
f 125 250 249
f 181 183 251
f 181 251 238
f 124 123 248
f 124 248 250
f 238 251 252
f 238 252 239
f 127 130 253
f 127 253 254
f 204 203 189
f 204 189 188
f 130 129 255
f 130 255 253
f 52 51 256
f 52 256 232
f 129 128 257
f 129 257 255
f 232 256 28
f 232 28 27
f 128 127 254
f 128 254 257
f 38 37 158
f 38 158 157
f 131 70 258
f 131 258 259
f 167 206 244
f 167 244 168
f 70 69 260
f 70 260 258
f 199 27 30
f 199 30 191
f 69 132 261
f 69 261 260
f 46 45 90
f 46 90 89
f 132 131 259
f 132 259 261
f 80 46 89
f 80 89 77
f 24 48 262
f 24 262 170
f 142 204 188
f 142 188 139
f 48 47 172
f 48 172 262
f 229 236 74
f 229 74 73
f 263 264 265
f 263 265 266
f 267 268 269
f 267 269 270
f 271 272 273
f 271 273 274
f 275 267 270
f 275 270 276
f 277 264 273
f 277 273 272
f 62 61 278
f 62 278 279
f 280 281 282
f 280 282 283
f 208 284 285
f 208 285 286
f 212 287 286
f 212 286 288
f 279 278 211
f 279 211 289
f 290 265 264
f 290 264 277
f 291 292 267
f 291 267 275
f 292 293 268
f 292 268 267
f 274 273 264
f 274 264 263
f 266 294 295
f 266 295 263
f 294 291 275
f 294 275 295
f 293 296 297
f 293 297 268
f 296 290 277
f 296 277 297
f 268 297 298
f 268 298 269
f 297 277 299
f 297 299 300
f 263 295 271
f 263 271 274
f 295 275 276
f 295 276 271
f 270 269 298
f 270 298 276
f 276 298 272
f 276 272 271
f 300 299 301
f 300 301 302
f 272 298 302
f 272 302 301
f 298 297 300
f 298 300 302
f 277 272 301
f 277 301 299
f 282 303 284
f 282 284 208
f 281 304 288
f 281 288 282
f 208 286 305
f 208 305 64
f 306 61 64
f 306 64 305
f 278 287 212
f 278 212 211
f 288 307 303
f 288 303 282
f 289 211 214
f 289 214 308
f 308 214 281
f 308 281 280
f 283 282 208
f 283 208 207
f 309 310 311
f 309 311 312
f 61 306 287
f 61 287 278
f 313 314 315
f 313 315 316
f 213 212 288
f 213 288 304
f 303 307 285
f 303 285 284
f 310 317 318
f 310 318 311
f 287 306 305
f 287 305 286
f 286 285 307
f 286 307 288
f 319 313 316
f 319 316 320
f 314 321 322
f 314 322 315
f 321 323 324
f 321 324 322
f 325 326 327
f 325 327 1
f 328 329 330
f 328 330 331
f 332 333 334
f 332 334 335
f 336 337 338
f 336 338 339
f 340 341 329
f 340 329 328
f 335 334 341
f 335 341 340
f 342 343 333
f 342 333 332
f 344 345 346
f 344 346 347
f 347 346 343
f 347 343 342
f 331 330 345
f 331 345 344
f 323 309 312
f 323 312 324
f 317 319 320
f 317 320 318
f 348 349 350
f 348 350 351
f 352 353 354
f 352 354 355
f 356 9 357
f 356 357 358
f 359 360 361
f 359 361 362
f 363 364 365
f 363 365 366
f 367 368 369
f 367 369 370
f 355 354 3
f 355 3 371
f 372 373 374
f 372 374 375
f 368 376 377
f 368 377 369
f 368 378 379
f 368 379 376
f 378 6 5
f 378 5 379
f 367 380 381
f 367 381 382
f 383 377 376
f 383 376 384
f 382 381 6
f 382 6 378
f 367 382 378
f 367 378 368
f 371 350 349
f 371 349 355
f 385 7 386
f 385 386 380
f 387 388 326
f 387 326 325
f 355 349 348
f 355 348 352
f 389 390 379
f 389 379 5
f 10 389 5
f 10 5 4
f 391 4 6
f 391 6 386
f 392 393 383
f 392 383 394
f 381 380 386
f 381 386 6
f 394 383 395
f 394 395 396
f 397 363 353
f 397 353 339
f 1 327 398
f 1 398 399
f 352 348 351
f 352 351 396
f 400 401 402
f 400 402 403
f 390 384 376
f 390 376 379
f 336 395 383
f 336 383 404
f 372 375 405
f 372 405 404
f 363 366 354
f 363 354 353
f 392 406 350
f 392 350 371
f 399 391 2
f 399 2 1
f 367 370 385
f 367 385 380
f 404 383 384
f 404 384 372
f 369 377 8
f 369 8 7
f 393 8 377
f 393 377 383
f 373 372 384
f 373 384 390
f 360 359 407
f 360 407 364
f 359 373 390
f 359 390 407
f 397 360 364
f 397 364 363
f 391 386 7
f 391 7 2
f 408 409 364
f 408 364 407
f 409 410 365
f 409 365 364
f 400 411 390
f 400 390 389
f 410 401 10
f 410 10 365
f 411 408 407
f 411 407 390
f 401 400 389
f 401 389 10
f 339 353 395
f 339 395 336
f 9 356 365
f 9 365 10
f 356 387 366
f 356 366 365
f 399 9 4
f 399 4 391
f 394 412 406
f 394 406 392
f 370 369 7
f 370 7 385
f 1 3 354
f 1 354 325
f 413 375 374
f 413 374 362
f 414 415 403
f 414 403 402
f 404 405 337
f 404 337 336
f 416 414 402
f 416 402 417
f 418 413 362
f 418 362 361
f 396 351 412
f 396 412 394
f 358 357 398
f 358 398 388
f 3 2 8
f 3 8 393
f 418 338 337
f 418 337 413
f 351 350 406
f 351 406 412
f 396 395 353
f 396 353 352
f 409 408 414
f 409 414 416
f 413 337 405
f 413 405 375
f 387 356 358
f 387 358 388
f 371 3 393
f 371 393 392
f 410 409 416
f 410 416 417
f 373 359 362
f 373 362 374
f 9 399 398
f 9 398 357
f 325 354 366
f 325 366 387
f 411 400 403
f 411 403 415
f 360 397 418
f 360 418 361
f 401 410 417
f 401 417 402
f 339 338 418
f 339 418 397
f 326 388 398
f 326 398 327
f 408 411 415
f 408 415 414
f 197 81 84
f 197 84 194
f 239 252 419
f 239 419 420
f 202 246 421
f 202 421 422
f 214 213 304
f 214 304 281
f 26 422 421
f 26 421 184
f 142 141 187
f 142 187 148
f 423 137 11
f 423 11 424
f 95 420 419
f 95 419 186
f 324 315 322
f 315 324 316
f 316 324 312
f 316 312 320
f 320 312 311
f 320 311 318
f 343 334 333
f 334 343 341
f 341 343 346
f 341 346 329
f 329 346 345
f 329 345 330
f 425 426 427
f 425 427 428
f 429 430 431
f 429 431 432
f 433 434 435
f 433 435 436
f 426 437 438
f 426 438 427
f 439 440 441
f 439 441 442
f 442 441 443
f 442 443 444
f 445 446 447
f 445 447 448
f 449 450 451
f 449 451 452
f 453 445 448
f 453 448 454
f 455 456 457
f 455 457 458
f 444 443 459
f 444 459 460
f 460 459 461
f 460 461 462
f 452 451 463
f 452 463 464
f 464 463 465
f 464 465 466
f 466 465 440
f 466 440 439
f 467 455 458
f 467 458 468
f 469 467 468
f 469 468 470
f 471 453 454
f 471 454 472
f 473 471 472
f 473 472 474
f 475 469 470
f 475 470 476
f 477 473 474
f 477 474 478
f 462 461 479
f 462 479 480
f 480 479 481
f 480 481 482
f 456 477 478
f 456 478 457
f 459 443 474
f 459 474 472
f 439 442 477
f 439 477 456
f 461 459 472
f 461 472 454
f 441 440 457
f 441 457 478
f 442 444 473
f 442 473 477
f 463 451 470
f 463 470 468
f 443 441 478
f 443 478 474
f 444 460 471
f 444 471 473
f 446 482 483
f 446 483 484
f 465 463 468
f 465 468 458
f 479 461 454
f 479 454 448
f 460 462 453
f 460 453 471
f 440 465 458
f 440 458 457
f 449 452 469
f 449 469 475
f 451 450 476
f 451 476 470
f 481 479 448
f 481 448 447
f 462 480 445
f 462 445 453
f 476 450 485
f 476 485 486
f 452 464 467
f 452 467 469
f 480 482 446
f 480 446 445
f 464 466 455
f 464 455 467
f 466 439 456
f 466 456 455
f 482 481 487
f 482 487 483
f 481 447 488
f 481 488 487
f 475 476 486
f 475 486 489
f 450 449 490
f 450 490 485
f 447 446 484
f 447 484 488
f 449 475 489
f 449 489 490
f 429 491 492
f 429 492 430
f 426 493 494
f 426 494 437
f 495 496 497
f 495 497 498
f 499 500 501
f 499 501 502
f 503 504 505
f 503 505 506
f 498 497 507
f 498 507 508
f 493 509 510
f 493 510 494
f 437 511 512
f 437 512 438
f 437 494 513
f 437 513 511
f 514 515 516
f 514 516 517
f 500 432 495
f 500 495 518
f 513 519 515
f 513 515 514
f 520 521 522
f 520 522 523
f 518 495 498
f 518 498 524
f 512 519 510
f 512 510 438
f 425 508 493
f 425 493 426
f 525 497 496
f 525 496 526
f 511 433 436
f 511 436 512
f 501 431 430
f 501 430 502
f 434 517 520
f 434 520 523
f 434 523 503
f 434 503 435
f 427 509 507
f 427 507 428
f 524 498 508
f 524 508 425
f 502 527 528
f 502 528 499
f 433 514 517
f 433 517 434
f 508 507 509
f 508 509 493
f 500 518 526
f 500 526 501
f 499 528 491
f 499 491 429
f 523 522 504
f 523 504 503
f 436 515 519
f 436 519 512
f 518 524 525
f 518 525 526
f 511 513 514
f 511 514 433
f 517 516 506
f 517 506 520
f 435 516 515
f 435 515 436
f 428 507 497
f 428 497 525
f 526 496 431
f 526 431 501
f 524 425 428
f 524 428 525
f 494 510 519
f 494 519 513
f 432 431 496
f 432 496 495
f 503 506 516
f 503 516 435
f 499 429 432
f 499 432 500
f 506 505 521
f 506 521 520
f 430 492 527
f 430 527 502
f 438 510 509
f 438 509 427
f 529 530 531
f 529 531 532
f 529 533 534
f 529 534 535
f 536 537 538
f 536 538 539
f 540 541 542
f 540 542 537
f 543 544 545
f 543 545 546
f 536 547 548
f 536 548 549
f 550 551 552
f 550 552 553
f 554 555 543
f 554 543 556
f 537 542 557
f 537 557 538
f 558 544 559
f 558 559 560
f 558 556 561
f 558 561 562
f 563 564 565
f 563 565 566
f 565 550 553
f 565 553 567
f 551 550 568
f 551 568 569
f 570 571 572
f 570 572 573
f 574 575 576
f 574 576 577
f 556 543 546
f 556 546 561
f 571 570 578
f 571 578 579
f 543 555 580
f 543 580 581
f 551 566 582
f 551 582 552
f 583 584 585
f 583 585 530
f 586 587 588
f 586 588 589
f 544 558 562
f 544 562 545
f 579 578 590
f 579 590 591
f 542 547 592
f 542 592 557
f 585 533 593
f 585 593 594
f 583 579 591
f 583 591 595
f 547 536 539
f 547 539 592
f 569 568 596
f 569 596 597
f 530 585 594
f 530 594 531
f 578 584 598
f 578 598 590
f 574 569 597
f 574 597 599
f 533 529 532
f 533 532 593
f 560 559 600
f 560 600 601
f 584 583 595
f 584 595 598
f 568 575 602
f 568 602 596
f 563 560 601
f 563 601 603
f 549 548 604
f 549 604 605
f 575 574 599
f 575 599 602
f 559 564 606
f 559 606 600
f 554 549 605
f 554 605 607
f 535 534 608
f 535 608 609
f 564 563 603
f 564 603 606
f 548 555 610
f 548 610 604
f 540 535 609
f 540 609 611
f 555 554 607
f 555 607 610
f 577 576 612
f 577 612 613
f 534 541 614
f 534 614 608
f 571 577 613
f 571 613 572
f 541 540 611
f 541 611 614
f 566 565 567
f 566 567 582
f 576 570 573
f 576 573 612
f 615 616 617
f 615 617 618
f 619 620 621
f 619 621 622
f 623 624 625
f 623 625 622
f 626 627 628
f 626 628 624
f 626 615 618
f 626 618 629
f 630 631 632
f 630 632 633
f 634 635 636
f 634 636 637
f 625 638 639
f 625 639 622
f 640 641 642
f 640 642 643
f 644 645 646
f 644 646 647
f 648 649 650
f 648 650 651
f 622 621 652
f 622 652 623
f 653 654 655
f 653 655 656
f 623 652 657
f 623 657 658
f 659 660 661
f 659 661 662
f 663 664 665
f 663 665 666
f 643 642 667
f 643 667 637
f 668 669 670
f 668 670 671
f 672 673 674
f 672 674 675
f 676 677 678
f 676 678 679
f 680 681 682
f 680 682 683
f 684 685 686
f 684 686 687
f 688 684 687
f 688 687 689
f 690 688 689
f 690 689 691
f 692 690 691
f 692 691 693
f 694 692 693
f 694 693 695
f 696 694 695
f 696 695 697
f 698 696 697
f 698 697 699
f 700 698 699
f 700 699 701
f 702 700 701
f 702 701 703
f 704 702 703
f 704 703 705
f 706 704 705
f 706 705 707
f 708 706 707
f 708 707 709
f 710 708 709
f 710 709 711
f 712 710 711
f 712 711 713
f 714 712 713
f 714 713 715
f 716 714 715
f 716 715 717
f 718 716 717
f 718 717 719
f 720 718 719
f 720 719 721
f 722 720 721
f 722 721 723
f 724 722 723
f 724 723 725
f 726 724 725
f 726 725 727
f 728 726 727
f 728 727 729
f 730 728 729
f 730 729 731
f 732 730 731
f 732 731 733
f 734 732 733
f 734 733 735
f 736 734 735
f 736 735 737
f 738 736 737
f 738 737 739
f 740 738 739
f 740 739 741
f 742 740 741
f 742 741 743
f 744 742 743
f 744 743 745
f 746 744 745
f 746 745 747
f 685 746 747
f 685 747 686
f 748 749 681
f 748 681 680
f 750 751 749
f 750 749 748
f 752 753 751
f 752 751 750
f 754 755 753
f 754 753 752
f 756 757 755
f 756 755 754
f 758 759 757
f 758 757 756
f 760 761 759
f 760 759 758
f 762 763 761
f 762 761 760
f 764 765 763
f 764 763 762
f 766 767 765
f 766 765 764
f 768 769 767
f 768 767 766
f 770 771 769
f 770 769 768
f 772 773 771
f 772 771 770
f 774 775 773
f 774 773 772
f 776 777 775
f 776 775 774
f 778 779 777
f 778 777 776
f 780 781 779
f 780 779 778
f 782 783 781
f 782 781 780
f 784 785 783
f 784 783 782
f 786 787 785
f 786 785 784
f 788 789 787
f 788 787 786
f 790 791 789
f 790 789 788
f 792 793 791
f 792 791 790
f 794 795 793
f 794 793 792
f 796 797 795
f 796 795 794
f 798 799 797
f 798 797 796
f 800 801 799
f 800 799 798
f 802 803 801
f 802 801 800
f 804 805 803
f 804 803 802
f 806 807 805
f 806 805 804
f 683 682 807
f 683 807 806
f 715 775 777
f 715 777 717
f 728 788 786
f 728 786 726
f 717 777 779
f 717 779 719
f 730 790 788
f 730 788 728
f 719 779 781
f 719 781 721
f 732 792 790
f 732 790 730
f 721 781 783
f 721 783 723
f 734 794 792
f 734 792 732
f 723 783 785
f 723 785 725
f 736 796 794
f 736 794 734
f 725 785 787
f 725 787 727
f 738 798 796
f 738 796 736
f 684 680 683
f 684 683 685
f 727 787 789
f 727 789 729
f 740 800 798
f 740 798 738
f 688 748 680
f 688 680 684
f 729 789 791
f 729 791 731
f 742 802 800
f 742 800 740
f 690 750 748
f 690 748 688
f 731 791 793
f 731 793 733
f 744 804 802
f 744 802 742
f 692 752 750
f 692 750 690
f 733 793 795
f 733 795 735
f 746 806 804
f 746 804 744
f 694 754 752
f 694 752 692
f 735 795 797
f 735 797 737
f 685 683 806
f 685 806 746
f 696 756 754
f 696 754 694
f 737 797 799
f 737 799 739
f 686 682 681
f 686 681 687
f 698 758 756
f 698 756 696
f 739 799 801
f 739 801 741
f 687 681 749
f 687 749 689
f 700 760 758
f 700 758 698
f 741 801 803
f 741 803 743
f 689 749 751
f 689 751 691
f 702 762 760
f 702 760 700
f 743 803 805
f 743 805 745
f 691 751 753
f 691 753 693
f 704 764 762
f 704 762 702
f 745 805 807
f 745 807 747
f 693 753 755
f 693 755 695
f 706 766 764
f 706 764 704
f 747 807 682
f 747 682 686
f 695 755 757
f 695 757 697
f 708 768 766
f 708 766 706
f 697 757 759
f 697 759 699
f 710 770 768
f 710 768 708
f 699 759 761
f 699 761 701
f 712 772 770
f 712 770 710
f 701 761 763
f 701 763 703
f 714 774 772
f 714 772 712
f 703 763 765
f 703 765 705
f 716 776 774
f 716 774 714
f 705 765 767
f 705 767 707
f 718 778 776
f 718 776 716
f 707 767 769
f 707 769 709
f 720 780 778
f 720 778 718
f 709 769 771
f 709 771 711
f 722 782 780
f 722 780 720
f 711 771 773
f 711 773 713
f 724 784 782
f 724 782 722
f 713 773 775
f 713 775 715
f 726 786 784
f 726 784 724
f 808 809 810
f 808 810 811
f 812 813 814
f 812 814 815
f 816 817 645
f 816 645 644
f 633 632 649
f 633 649 648
f 818 819 820
f 818 820 821
f 822 823 824
f 822 824 825
f 826 827 828
f 826 828 829
f 830 831 832
f 830 832 833
f 834 835 836
f 834 836 837
f 838 839 840
f 838 840 841
f 842 843 835
f 842 835 834
f 647 646 844
f 647 844 845
f 829 846 847
f 829 847 644
f 821 848 849
f 821 849 850
f 664 851 852
f 664 852 665
f 838 658 619
f 838 619 815
f 853 854 855
f 853 855 856
f 857 858 843
f 857 843 842
f 859 860 858
f 859 858 857
f 861 862 863
f 861 863 864
f 656 634 637
f 656 637 653
f 865 866 867
f 865 867 868
f 869 870 862
f 869 862 861
f 871 872 873
f 871 873 874
f 875 876 877
f 875 877 878
f 836 835 879
f 836 879 878
f 625 880 881
f 625 881 629
f 882 883 879
f 882 879 884
f 885 886 887
f 885 887 888
f 679 678 827
f 679 827 826
f 888 887 860
f 888 860 859
f 867 866 889
f 867 889 890
f 640 891 892
f 640 892 893
f 829 828 677
f 829 677 676
f 659 651 630
f 659 630 893
f 821 820 894
f 821 894 848
f 895 896 897
f 895 897 898
f 893 892 660
f 893 660 659
f 671 670 673
f 671 673 672
f 837 836 823
f 837 823 822
f 899 900 663
f 899 663 901
f 876 586 589
f 876 589 877
f 820 819 902
f 820 902 903
f 618 617 654
f 618 654 653
f 904 905 906
f 904 906 907
f 845 844 817
f 845 817 816
f 908 809 808
f 908 808 899
f 848 894 870
f 848 870 869
f 647 826 829
f 647 829 644
f 864 863 886
f 864 886 885
f 909 910 911
f 909 911 890
f 854 912 852
f 854 852 855
f 894 820 903
f 894 903 913
f 868 867 914
f 868 914 915
f 916 917 918
f 916 918 919
f 868 915 910
f 868 910 909
f 675 845 816
f 675 816 672
f 915 920 921
f 915 921 910
f 922 830 833
f 922 833 851
f 898 897 819
f 898 819 818
f 862 870 923
f 862 923 924
f 859 857 925
f 859 925 926
f 927 928 905
f 927 905 916
f 928 824 589
f 928 589 588
f 908 899 901
f 908 901 929
f 831 853 930
f 831 930 931
f 865 868 909
f 865 909 932
f 901 663 666
f 901 666 811
f 912 933 665
f 912 665 852
f 824 823 877
f 824 877 589
f 864 885 934
f 864 934 935
f 910 921 936
f 910 936 911
f 887 886 937
f 887 937 938
f 939 940 941
f 939 941 942
f 898 818 943
f 898 943 872
f 916 905 904
f 916 904 917
f 929 901 811
f 929 811 810
f 931 895 871
f 931 871 944
f 837 822 876
f 837 876 875
f 920 908 929
f 920 929 921
f 945 914 911
f 945 911 936
f 825 824 928
f 825 928 927
f 933 946 666
f 933 666 665
f 914 867 890
f 914 890 911
f 809 945 936
f 809 936 810
f 947 935 948
f 947 948 924
f 935 934 937
f 935 937 948
f 918 932 889
f 918 889 907
f 626 949 950
f 626 950 615
f 658 951 952
f 658 952 623
f 953 954 955
f 953 955 956
f 957 958 951
f 957 951 959
f 679 960 961
f 679 961 841
f 962 963 964
f 962 964 965
f 831 931 944
f 831 944 832
f 888 859 926
f 888 926 966
f 967 939 968
f 967 968 950
f 834 837 875
f 834 875 883
f 869 861 947
f 869 947 969
f 917 865 932
f 917 932 918
f 970 933 912
f 970 912 922
f 971 972 973
f 971 973 974
f 926 925 975
f 926 975 976
f 648 965 964
f 648 964 668
f 958 977 952
f 958 952 951
f 978 979 949
f 978 949 980
f 897 896 874
f 897 874 873
f 861 864 935
f 861 935 947
f 944 871 874
f 944 874 981
f 972 962 965
f 972 965 973
f 843 858 975
f 843 975 884
f 900 970 664
f 900 664 663
f 895 898 872
f 895 872 871
f 978 982 983
f 978 983 979
f 886 863 948
f 886 948 937
f 984 985 986
f 984 986 987
f 896 930 981
f 896 981 874
f 835 843 884
f 835 884 879
f 857 842 882
f 857 882 925
f 858 860 976
f 858 976 975
f 977 988 982
f 977 982 978
f 818 821 850
f 818 850 943
f 825 927 587
f 825 587 586
f 931 930 896
f 931 896 895
f 899 808 946
f 899 946 900
f 917 904 866
f 917 866 865
f 934 966 938
f 934 938 937
f 819 897 873
f 819 873 902
f 851 833 855
f 851 855 852
f 962 989 990
f 962 990 963
f 927 916 919
f 927 919 587
f 930 853 856
f 930 856 981
f 842 834 883
f 842 883 882
f 822 825 586
f 822 586 876
f 587 919 906
f 587 906 588
f 849 969 923
f 849 923 913
f 932 909 890
f 932 890 889
f 885 888 966
f 885 966 934
f 832 944 981
f 832 981 856
f 921 929 810
f 921 810 936
f 966 926 976
f 966 976 938
f 830 854 853
f 830 853 831
f 919 918 907
f 919 907 906
f 922 912 854
f 922 854 830
f 946 808 811
f 946 811 666
f 848 869 969
f 848 969 849
f 823 836 878
f 823 878 877
f 915 914 945
f 915 945 920
f 860 887 938
f 860 938 976
f 866 904 907
f 866 907 889
f 872 943 902
f 872 902 873
f 900 946 933
f 900 933 970
f 920 945 809
f 920 809 908
f 942 941 991
f 942 991 953
f 953 991 992
f 953 992 954
f 954 992 993
f 954 993 971
f 958 994 988
f 958 988 977
f 969 947 924
f 969 924 923
f 979 983 995
f 979 995 967
f 985 996 997
f 985 997 998
f 833 832 856
f 833 856 855
f 999 1000 1001
f 999 1001 984
f 1002 1003 1004
f 1002 1004 957
f 984 1001 996
f 984 996 985
f 971 993 1005
f 971 1005 972
f 963 990 1006
f 963 1006 1007
f 863 862 924
f 863 924 948
f 972 1005 989
f 972 989 962
f 845 1008 987
f 845 987 647
f 967 995 940
f 967 940 939
f 1002 957 959
f 1002 959 961
f 957 1004 994
f 957 994 958
f 850 849 913
f 850 913 903
f 656 968 1009
f 656 1009 634
f 883 875 878
f 883 878 879
f 998 997 1003
f 998 1003 1002
f 1007 1006 1000
f 1007 1000 999
f 925 882 884
f 925 884 975
f 558 560 992
f 558 992 991
f 560 563 993
f 560 993 992
f 537 536 983
f 537 983 982
f 536 549 995
f 536 995 983
f 577 571 1001
f 577 1001 1000
f 571 579 996
f 571 996 1001
f 563 566 1005
f 563 1005 993
f 566 551 989
f 566 989 1005
f 549 554 940
f 549 940 995
f 554 556 941
f 554 941 940
f 556 558 991
f 556 991 941
f 529 535 994
f 529 994 1004
f 535 540 988
f 535 988 994
f 540 537 982
f 540 982 988
f 579 583 997
f 579 997 996
f 583 530 1003
f 583 1003 997
f 530 529 1004
f 530 1004 1003
f 551 569 990
f 551 990 989
f 569 574 1006
f 569 1006 990
f 574 577 1000
f 574 1000 1006
f 533 585 1010
f 533 1010 1011
f 550 565 1012
f 550 1012 1013
f 578 570 1014
f 578 1014 1015
f 548 547 1016
f 548 1016 1017
f 564 559 1018
f 564 1018 1019
f 576 575 1020
f 576 1020 1021
f 542 541 1022
f 542 1022 1023
f 544 543 581
f 544 581 1024
f 568 550 1013
f 568 1013 1025
f 584 578 1015
f 584 1015 1026
f 534 533 1011
f 534 1011 1027
f 555 548 1017
f 555 1017 580
f 565 564 1019
f 565 1019 1012
f 570 576 1021
f 570 1021 1014
f 547 542 1023
f 547 1023 1016
f 559 544 1024
f 559 1024 1018
f 575 568 1025
f 575 1025 1020
f 585 584 1026
f 585 1026 1010
f 541 534 1027
f 541 1027 1022
f 1028 662 640
f 1028 640 643
f 662 661 891
f 662 891 640
f 629 881 627
f 629 627 626
f 644 847 1029
f 644 1029 816
f 816 1029 1030
f 816 1030 672
f 633 1031 1032
f 633 1032 630
f 624 628 880
f 624 880 625
f 637 667 1033
f 637 1033 653
f 1028 1034 635
f 1028 635 634
f 643 1035 1034
f 643 1034 1028
f 637 636 1035
f 637 1035 643
f 656 655 616
f 656 616 615
f 658 657 620
f 658 620 619
f 841 840 813
f 841 813 812
f 675 674 669
f 675 669 668
f 651 650 631
f 651 631 630
f 815 814 839
f 815 839 838
f 629 1036 638
f 629 638 625
f 679 841 812
f 679 812 676
f 648 668 671
f 648 671 633
f 624 980 949
f 624 949 626
f 985 998 960
f 985 960 986
f 662 955 974
f 662 974 659
f 905 928 588
f 905 588 906
f 659 974 973
f 659 973 651
f 615 950 968
f 615 968 656
f 970 922 851
f 970 851 664
f 870 894 913
f 870 913 923
f 963 1007 1037
f 963 1037 964
f 977 978 980
f 977 980 952
f 999 984 987
f 999 987 1008
f 942 953 956
f 942 956 1009
f 668 964 1037
f 668 1037 675
f 623 952 980
f 623 980 624
f 954 971 974
f 954 974 955
f 1007 999 1008
f 1007 1008 1037
f 943 850 903
f 943 903 902
f 651 973 965
f 651 965 648
f 1028 956 955
f 1028 955 662
f 826 986 960
f 826 960 679
f 634 1009 956
f 634 956 1028
f 939 942 1009
f 939 1009 968
f 676 1038 846
f 676 846 829
f 672 1030 1039
f 672 1039 671
f 618 1040 1036
f 618 1036 629
f 653 1033 1040
f 653 1040 618
f 619 1041 1042
f 619 1042 815
f 812 1043 1038
f 812 1038 676
f 630 1032 1044
f 630 1044 893
f 893 1044 641
f 893 641 640
f 647 987 986
f 647 986 826
f 815 1042 1043
f 815 1043 812
f 671 1039 1031
f 671 1031 633
f 838 959 951
f 838 951 658
f 622 639 1041
f 622 1041 619
f 675 1037 1008
f 675 1008 845
f 979 967 950
f 979 950 949
f 841 961 959
f 841 959 838
f 998 1002 961
f 998 961 960
f 1025 1021 1020
f 1021 1025 1013
f 1021 1013 1014
f 1014 1013 1012
f 1014 1012 1015
f 1015 1012 1019
f 1015 1019 1026
f 1026 1019 1018
f 1026 1018 1010
f 1010 1018 1024
f 1010 1024 1011
f 1011 1024 581
f 1011 581 1027
f 1027 581 580
f 1027 580 1022
f 1022 580 1017
f 1022 1017 1023
f 1023 1017 1016
f 1029 1039 1030
f 1039 1029 847
f 1039 847 1031
f 1031 847 846
f 1031 846 1032
f 1032 846 1038
f 1032 1038 1044
f 1044 1038 1043
f 1044 1043 641
f 641 1043 1042
f 641 1042 642
f 642 1042 1041
f 642 1041 667
f 667 1041 639
f 667 639 1033
f 1033 639 638
f 1033 638 1040
f 1040 638 1036
f 14 13 12
f 12 11 14
f 18 17 16
f 16 15 18
f 22 21 20
f 20 19 22
f 26 25 24
f 24 23 26
f 30 29 28
f 28 27 30
f 34 33 32
f 32 31 34
f 38 37 36
f 36 35 38
f 42 41 40
f 40 39 42
f 46 45 44
f 44 43 46
f 50 49 48
f 48 47 50
f 52 51 29
f 29 30 52
f 56 55 54
f 54 53 56
f 60 59 58
f 58 57 60
f 68 67 66
f 66 65 68
f 72 71 70
f 70 69 72
f 76 75 74
f 74 73 76
f 80 79 78
f 78 77 80
f 84 83 82
f 82 81 84
f 88 87 86
f 86 85 88
f 92 91 90
f 90 89 92
f 96 95 94
f 94 93 96
f 100 99 98
f 98 97 100
f 104 103 102
f 102 101 104
f 108 107 106
f 106 105 108
f 112 111 110
f 110 109 112
f 116 115 114
f 114 113 116
f 120 119 118
f 118 117 120
f 124 123 122
f 122 121 124
f 128 127 126
f 126 125 128
f 132 131 130
f 130 129 132
f 136 135 134
f 134 133 136
f 11 12 138
f 138 137 11
f 77 78 87
f 87 88 77
f 142 141 140
f 140 139 142
f 31 32 83
f 83 84 31
f 139 140 144
f 144 143 139
f 56 65 60
f 60 145 56
f 133 134 147
f 147 146 133
f 149 143 148
f 148 146 149
f 149 150 135
f 135 136 149
f 53 54 152
f 152 151 53
f 146 147 150
f 150 149 146
f 137 138 154
f 154 153 137
f 35 36 156
f 156 155 35
f 38 136 133
f 133 157 38
f 155 156 158
f 158 157 155
f 151 152 159
f 159 145 151
f 161 160 49
f 49 50 161
f 145 159 55
f 55 56 145
f 162 161 50
f 50 19 162
f 65 66 59
f 59 60 65
f 163 162 19
f 19 20 163
f 68 165 164
f 164 57 68
f 160 163 20
f 20 49 160
f 169 168 167
f 167 166 169
f 171 170 24
f 24 25 171
f 81 82 33
f 33 34 81
f 172 171 25
f 25 47 172
f 153 154 13
f 13 14 153
f 174 173 102
f 102 99 174
f 176 175 75
f 75 76 176
f 173 180 101
f 101 102 173
f 178 184 26
f 26 23 178
f 180 185 100
f 100 101 180
f 182 186 95
f 95 96 182
f 143 144 187
f 187 148 143
f 185 174 99
f 99 100 185
f 43 44 91
f 91 92 43
f 191 190 189
f 189 188 191
f 193 192 106
f 106 103 193
f 197 196 195
f 195 194 197
f 199 198 190
f 190 191 199
f 192 200 105
f 105 106 192
f 53 151 202
f 202 201 53
f 204 203 198
f 198 199 204
f 200 205 104
f 104 105 200
f 167 206 196
f 196 197 167
f 205 193 103
f 103 104 205
f 210 209 94
f 94 17 210
f 216 215 110
f 110 107 216
f 209 217 93
f 93 94 209
f 215 218 109
f 109 110 215
f 217 219 18
f 18 93 217
f 218 220 108
f 108 109 218
f 219 210 17
f 17 18 219
f 220 216 107
f 107 108 220
f 222 221 16
f 16 41 222
f 224 223 114
f 114 111 224
f 221 225 15
f 15 16 221
f 223 226 113
f 113 114 223
f 225 227 42
f 42 15 225
f 226 228 112
f 112 113 226
f 227 222 41
f 41 42 227
f 228 224 111
f 111 112 228
f 176 88 85
f 85 229 176
f 231 230 118
f 118 115 231
f 52 234 233
f 233 232 52
f 230 235 117
f 117 118 230
f 229 236 175
f 175 176 229
f 235 237 116
f 116 117 235
f 85 86 79
f 79 80 85
f 237 231 115
f 115 116 237
f 31 239 238
f 238 34 31
f 241 240 122
f 122 119 241
f 14 76 73
f 73 153 14
f 240 242 121
f 121 122 240
f 57 58 67
f 67 68 57
f 242 243 120
f 120 121 242
f 194 195 244
f 244 168 194
f 243 241 119
f 119 120 243
f 202 246 245
f 245 201 202
f 248 247 126
f 126 123 248
f 247 249 125
f 125 126 247
f 92 35 155
f 155 43 92
f 249 250 124
f 124 125 249
f 250 248 123
f 123 124 250
f 239 252 251
f 251 238 239
f 254 253 130
f 130 127 254
f 188 189 203
f 203 204 188
f 253 255 129
f 129 130 253
f 232 256 51
f 51 52 232
f 255 257 128
f 128 129 255
f 27 28 256
f 256 232 27
f 257 254 127
f 127 128 257
f 157 158 37
f 37 38 157
f 259 258 70
f 70 131 259
f 168 244 206
f 206 167 168
f 258 260 69
f 69 70 258
f 191 30 27
f 27 199 191
f 260 261 132
f 132 69 260
f 89 90 45
f 45 46 89
f 261 259 131
f 131 132 261
f 77 89 46
f 46 80 77
f 170 262 48
f 48 24 170
f 139 188 204
f 204 142 139
f 262 172 47
f 47 48 262
f 73 74 236
f 236 229 73
f 286 285 284
f 284 208 286
f 300 299 277
f 277 297 300
f 302 301 299
f 299 300 302
f 302 300 297
f 297 298 302
f 299 301 272
f 272 277 299
f 208 284 303
f 303 282 208
f 282 303 307
f 307 288 282
f 284 285 307
f 307 303 284
f 311 318 317
f 317 310 311
f 315 322 321
f 321 314 315
f 1 327 326
f 326 325 1
f 335 334 333
f 333 332 335
f 344 345 330
f 330 331 344
f 358 357 9
f 9 356 358
f 352 348 349
f 349 355 352
f 392 406 412
f 412 394 392
f 417 416 409
f 409 410 417
f 415 403 400
f 400 411 415
f 194 84 81
f 81 197 194
f 148 187 141
f 141 142 148
f 424 11 137
f 137 423 424
f 532 531 530
f 530 529 532
f 539 538 537
f 537 536 539
f 546 545 544
f 544 543 546
f 553 552 551
f 551 550 553
f 538 557 542
f 542 537 538
f 562 561 556
f 556 558 562
f 567 553 550
f 550 565 567
f 573 572 571
f 571 570 573
f 561 546 543
f 543 556 561
f 552 582 566
f 566 551 552
f 545 562 558
f 558 544 545
f 591 590 578
f 578 579 591
f 557 592 547
f 547 542 557
f 594 593 533
f 533 585 594
f 595 591 579
f 579 583 595
f 592 539 536
f 536 547 592
f 597 596 568
f 568 569 597
f 531 594 585
f 585 530 531
f 590 598 584
f 584 578 590
f 599 597 569
f 569 574 599
f 593 532 529
f 529 533 593
f 601 600 559
f 559 560 601
f 598 595 583
f 583 584 598
f 596 602 575
f 575 568 596
f 603 601 560
f 560 563 603
f 605 604 548
f 548 549 605
f 602 599 574
f 574 575 602
f 600 606 564
f 564 559 600
f 607 605 549
f 549 554 607
f 609 608 534
f 534 535 609
f 606 603 563
f 563 564 606
f 604 610 555
f 555 548 604
f 611 609 535
f 535 540 611
f 610 607 554
f 554 555 610
f 613 612 576
f 576 577 613
f 608 614 541
f 541 534 608
f 572 613 577
f 577 571 572
f 614 611 540
f 540 541 614
f 582 567 565
f 565 566 582
f 612 573 570
f 570 576 612
f 618 617 616
f 616 615 618
f 622 621 620
f 620 619 622
f 624 628 627
f 627 626 624
f 633 632 631
f 631 630 633
f 637 636 635
f 635 634 637
f 647 646 645
f 645 644 647
f 651 650 649
f 649 648 651
f 623 652 621
f 621 622 623
f 656 655 654
f 654 653 656
f 658 657 652
f 652 623 658
f 662 661 660
f 660 659 662
f 671 670 669
f 669 668 671
f 675 674 673
f 673 672 675
f 679 678 677
f 677 676 679
f 815 814 813
f 813 812 815
f 644 645 817
f 817 816 644
f 648 649 632
f 632 633 648
f 829 828 827
f 827 826 829
f 841 840 839
f 839 838 841
f 845 844 646
f 646 647 845
f 629 881 880
f 880 625 629
f 826 827 678
f 678 679 826
f 893 892 891
f 891 640 893
f 676 677 828
f 828 829 676
f 659 660 892
f 892 893 659
f 672 673 670
f 670 671 672
f 653 654 617
f 617 618 653
f 816 817 844
f 844 845 816
f 640 891 661
f 661 662 640
f 626 627 881
f 881 629 626
f 625 880 628
f 628 624 625
f 634 635 1034
f 1034 1028 634
f 1028 1034 1035
f 1035 643 1028
f 643 1035 636
f 636 637 643
f 615 616 655
f 655 656 615
f 619 620 657
f 657 658 619
f 812 813 840
f 840 841 812
f 668 669 674
f 674 675 668
f 630 631 650
f 650 651 630
f 838 839 814
f 814 815 838