# https://github.com/mikedh/trimesh
v 0.01558648 -0.04203658 0.01702233
v 0.00987727 -0.04167361 0.01006001
v 0.01023889 -0.03527747 0.00831269
v 0.01614123 -0.03489182 0.01600093
v 0.01065832 -0.02700679 0.00807971
v 0.01614123 -0.02684169 0.01592549
v 0.01065832 -0.02001748 0.00901162
v 0.01614123 -0.01963183 0.01662109
v 0.01065832 -0.01244573 0.01157436
v 0.01614123 -0.01202857 0.01869548
v 0.01231101 -0.00768187 0.01248552
v 0.01614123 -0.00377076 0.02019984
v 0.01343161 0.00304724 0.01614647
v 0.01614123 0.00299178 0.02205423
v 0.01109196 0.00383496 0.01631494
v 0.01465830 0.00455298 0.02413368
v 0.00972652 0.00587214 0.01829111
v 0.01188492 0.00685028 0.02655039
v 0.00713897 0.00812152 0.01925750
v 0.01033812 0.00795548 0.02747464
v 0.00640323 0.01428815 0.01542750
v 0.01162991 0.01530019 0.02187292
v 0.00580694 0.01929015 0.01373154
v 0.01047781 0.02023995 0.02018429
v 0.00610935 0.02306936 0.00999715
v 0.00926661 0.02389951 0.01677438
v 0.00598081 0.02629295 0.00940243
v 0.00944843 0.02714179 0.01443883
v 0.00786846 0.03121582 0.00850151
v 0.01044719 0.03154753 0.01037089
v 0.00771686 0.03364187 0.01032634
v 0.01045643 0.03554239 0.01219290
v 0.01558648 -0.04280962 0.03185060
v 0.00602814 -0.04353743 0.04406459
v 0.00602814 -0.04898952 0.04112219
v 0.01437562 -0.04836310 0.03053030
v 0.00542170 -0.05461469 0.03696822
v 0.01301397 -0.05405585 0.02800990
v 0.00455410 -0.05920137 0.03421474
v 0.00991298 -0.05887909 0.02677629
v 0.00282124 -0.06197069 0.02876265
v 0.00311880 -0.06178358 0.02568360
v -0.00092979 0.00382855 0.01602824
v -0.00088085 0.00574267 0.01655434
v 0.00013818 -0.04898952 0.04286885
v 0.00013818 -0.05461469 0.03871488
v 0.00013818 -0.01030363 0.04814102
v 0.00013818 -0.01803718 0.04808601
v 0.00745259 -0.01803718 0.04633935
v 0.00895493 -0.01030363 0.04639436
v 0.00033901 0.03105160 0.03202251
v 0.00052248 0.02867953 0.03492208
v 0.00905301 0.02479201 0.03096897
v 0.00348769 0.02936782 0.02979661
v 0.00013818 -0.02001748 0.00901161
v 0.00013818 -0.01244573 0.01157436
v -0.00118812 0.02311871 0.01045330
v -0.00122007 0.02632161 0.00961239
v 0.00100340 0.01360205 0.04372929
v 0.00105645 0.00960824 0.04493723
v 0.01034038 0.00935688 0.04208683
v 0.00681613 0.01339441 0.04134235
v 0.00061528 -0.05199540 0.01516594
v 0.00060980 -0.05196236 0.01105070
v 0.00374104 -0.05840042 0.01184527
v 0.01256705 -0.05840042 0.01092542
v 0.00569555 -0.05837605 0.01516594
v 0.00013818 -0.03329717 0.04779155
v 0.00013818 -0.04353743 0.04581125
v 0.00602814 -0.03329717 0.04604489
v -0.00084411 0.00880060 0.01677904
v 0.00013818 -0.05920137 0.03496352
v 0.00013818 -0.00354407 0.04671403
v 0.00988052 -0.00354407 0.04566405
v -0.00008156 0.03326437 0.02554008
v 0.00509238 0.03322499 0.02516374
v 0.00013818 -0.06158484 0.02241320
v 0.00013818 -0.06149153 0.02029662
v 0.00325237 -0.06149153 0.02029663
v 0.00311881 -0.06158484 0.02241320
v 0.00013818 -0.00382558 0.01378764
v 0.00373289 -0.00768188 0.01248552
v -0.00108326 0.03223377 0.00980354
v 0.00013818 -0.04167361 0.00807135
v 0.00013818 -0.03527747 0.00755885
v 0.00091400 0.01897393 0.04183619
v 0.00875647 0.01788439 0.03979804
v 0.00450787 0.01792269 0.04071951
v 0.00478288 0.03528063 0.02254378
v 0.00567584 0.03695173 0.02041571
v 0.00448987 0.03669827 0.02002076
v 0.00421171 0.03559591 0.02262912
v -0.00089409 0.01430135 0.01545824
v 0.00013818 -0.06178358 0.02568360
v 0.00215391 -0.06217783 0.02353095
v 0.00013818 -0.06214767 0.02354352
v 0.00013818 0.00276249 0.04649076
v 0.01134535 0.00276249 0.04474411
v -0.00016841 0.03517844 0.02404825
v 0.00623057 0.03451318 0.02321024
v 0.00013818 0.00304724 0.01332169
v 0.00384888 0.00304724 0.01382109
v -0.00106095 0.03447707 0.01103902
v 0.00013818 -0.02615901 0.04836752
v 0.00602814 -0.02615901 0.04662086
v 0.00082902 0.02364632 0.04008243
v 0.00087473 0.02113329 0.04102568
v 0.00482071 0.02306517 0.03931980
v 0.00929233 0.02130624 0.03724752
v 0.00895087 0.02251373 0.03691158
v 0.00298332 0.02334591 0.03924138
v 0.00013818 -0.02700679 0.00738275
v -0.00099403 0.01931612 0.01391669
v 0.00105603 0.00662711 0.04524429
v 0.01192245 0.00638412 0.04252180
v 0.00013818 -0.04738533 0.00914566
v 0.01395028 -0.04738533 0.01127159
v 0.00823978 -0.04738533 0.01127159
v 0.00416650 0.02832799 0.03488441
v 0.00986454 0.02554148 0.03189232
v -0.00069913 0.03680688 0.01485533
v 0.00991298 -0.05853678 0.01887557
v 0.01301398 -0.05346228 0.01633723
v 0.01437563 -0.04769774 0.01742494
v 0.00859998 0.03260951 0.02037859
v 0.00973630 0.03576342 0.01443766
v 0.00838222 0.03570077 0.01866038
v 0.01033580 0.02871509 0.02223147
v 0.01119903 0.02518992 0.02539288
v 0.01211600 0.02181669 0.02841158
v 0.01219866 0.01701575 0.03014443
v 0.00953571 0.01041586 0.03376739
v 0.01233924 0.00802486 0.03317838
v 0.01442560 0.00546740 0.03328092
v 0.01614123 0.00287368 0.03353843
v 0.01614123 -0.00365400 0.03385647
v 0.01614123 -0.01114011 0.03386195
v 0.01614123 -0.01881047 0.03282768
v 0.01614123 -0.02649006 0.03263536
v 0.01614123 -0.03407047 0.03237528
v 0.00939580 0.01911154 0.03866434
v 0.00250324 -0.06309257 0.02799096
v 0.00215391 -0.06363322 0.02491192
v -0.00066399 0.03749245 0.01707321
v 0.00173493 0.03548780 0.02342760
v -0.00018789 0.03597154 0.02367552
v -0.00032139 0.03705050 0.02157820
v -0.00022790 0.03666024 0.02300854
v 0.00040304 0.03657090 0.02298997
v -0.00002643 0.03700854 0.02143834
v 0.00359141 0.03676571 0.01943286
v 0.00272942 0.03682155 0.01843242
v -0.00048125 0.03758142 0.01920774
v 0.00276972 0.03662680 0.01812245
v -0.00050129 0.03753139 0.01893235
v 0.00728377 -0.05250129 0.00008030
v 0.00692836 -0.04793077 0.00012456
v 0.00892970 -0.04793077 0.00012456
v 0.00925084 -0.04793077 0.00012456
v 0.01169563 -0.04793077 0.00012456
v 0.01200852 -0.04793077 0.00012456
v 0.01295283 -0.04793077 0.00019445
v 0.01055124 -0.05250129 0.00008030
v 0.01152152 -0.04847795 0.00610854
v 0.01044630 -0.05564904 0.00576238
v 0.01278939 -0.04809428 0.00279368
v 0.01176199 -0.04836926 0.00584653
v 0.00537530 -0.05564904 0.00603200
v 0.00605889 -0.04847795 0.00610854
v 0.00605889 -0.04837632 0.00592370
v 0.00663854 -0.04809431 0.00191311
v 0.00658057 -0.04731399 0.00485587
v 0.01238488 -0.04730694 0.00477870
v 0.01414359 -0.04572044 0.00253763
v 0.01210250 -0.04532841 0.00267547
v 0.01126988 -0.04527206 0.00259733
v 0.00931468 -0.04495315 0.00259128
v 0.00867627 -0.04481719 0.00255717
v 0.00693247 -0.04451746 0.00249824
v 0.00679561 -0.04434072 0.00013867
v 0.00914879 -0.04466695 0.00013867
v 0.01439933 -0.04559695 0.00013867
v 0.01185202 -0.04524579 0.00013867
v 0.01172313 -0.04511780 0.00013867
v 0.01454857 -0.04378054 0.00213091
v 0.01304870 -0.04353275 0.00212288
v 0.00739939 -0.04301601 0.00231183
v 0.00719502 -0.04192317 0.00010109
v 0.00970064 -0.04242343 0.00010109
v 0.00885760 -0.04334839 0.00228182
v 0.00941127 -0.04471929 0.00013867
v 0.01334754 -0.04293964 0.00010109
v 0.01492497 -0.04320026 0.00010109
v 0.01070592 -0.04250322 0.00010109
v 0.01075873 -0.04321579 0.00226832
v 0.01168852 -0.04352226 0.00225647
v 0.01261549 -0.04290173 0.00010109
v 0.00803717 -0.00374438 0.00003717
v 0.00560954 0.00312844 0.00041458
v 0.00990445 0.00312844 0.00039141
v 0.01022029 0.00312844 0.00029226
v 0.01399653 0.00312844 0.00026336
v 0.01389603 0.00262634 0.00027476
v 0.01469369 -0.00121222 0.00021717
v 0.01163658 -0.00374437 0.00003717
v 0.01351246 0.00111247 0.00692535
v 0.01231717 -0.00473966 0.00591362
v 0.01193017 -0.00476664 0.00484836
v 0.01324581 -0.00266454 0.00508436
v 0.01380411 0.00113197 0.00544415
v 0.01359958 0.00153332 0.00632883
v 0.00690800 -0.00499693 0.00591362
v 0.00649219 0.00111247 0.00630484
v 0.01001053 0.00151404 0.00605821
v 0.00887930 0.00151029 0.00582447
v 0.00674524 0.00149296 0.00577327
v 0.00570433 0.00365102 0.00392049
v 0.00563890 0.00135660 0.00902514
v 0.00554564 -0.00584211 0.00843367
v 0.01324399 0.00135660 0.01001176
v 0.01234287 -0.00584211 0.00843367
v 0.01043255 0.00661396 0.00012964
v 0.01109290 0.00578644 0.00227641
v 0.01384230 0.00577599 0.00241875
v 0.01518272 0.00661396 0.00010074
v 0.00934140 0.00366651 0.00396279
v 0.01048704 0.00355989 0.00394560
v 0.00559999 0.00661396 0.00015903
v 0.00989490 0.00661396 0.00013586
v 0.01329865 0.00354945 0.00408793
v 0.01503071 0.00396838 0.00368334
v 0.01479176 -0.00037855 0.00388531
v 0.01615542 0.00146823 0.00175708
v 0.01587402 0.00523998 0.00217815
v 0.00634787 0.00579673 0.00213075
v 0.00905999 0.00581221 0.00217305
v 0.01627433 0.00592613 0.00000000
v 0.01676466 0.00205968 0.00001379
v 0.01240907 0.02148276 0.04239800
v 0.01054149 0.02245922 0.04313838
v 0.01179449 0.02130408 0.04356817
v 0.01235308 0.02079795 0.04295712
v 0.01115008 0.02093263 0.04109390
v 0.01048137 0.02179754 0.04043475
v 0.01248050 0.02260334 0.04166730
v 0.00464533 0.01991606 0.04012548
v 0.00089669 0.01992546 0.04147903
v 0.00867008 0.02134630 0.04090575
v 0.01149277 0.02239868 0.04254754
v 0.00788695 0.02187871 0.04144586
v 0.00903183 0.02077428 0.04187877
v 0.01030899 0.01978632 0.04174478
v 0.00902323 0.01880471 0.04033186
v 0.00699817 0.01959921 0.04132442
v 0.00585448 0.02152085 0.04082333
v 0.00781638 0.02124551 0.04018177
v 0.00965507 0.02183670 0.03870084
v 0.00958296 0.02024784 0.03947061
v 0.00813523 0.03683647 0.01584234
v -0.00060642 0.03753987 0.01736920
v 0.00575754 0.03699206 0.01900508
v 0.00678427 0.03689146 0.01905338
v 0.00327684 0.03682219 0.02076036
v 0.00377461 0.03623938 0.02226055
v 0.00103459 0.03689781 0.02180471
v 0.00102990 0.03652210 0.02307212
v 0.00183367 0.03579111 0.02338128
v 0.00178453 0.03623683 0.02302263
v 0.00154817 0.03646871 0.02291888
v 0.00158487 0.03657858 0.02251137
v 0.00179347 0.03671505 0.02189839
v 0.00242931 0.03668360 0.02163376
v 0.00306267 0.03652571 0.02177356
v 0.00335887 0.03628220 0.02238348
v 0.00278418 0.03613606 0.02237030
v 0.00265582 0.03640682 0.02208996
v 0.00238286 0.03657002 0.02202003
v 0.00210937 0.03658837 0.02213401
v 0.00202036 0.03642360 0.02240987
v 0.00200510 0.03629509 0.02259433
v 0.00284620 0.03597973 0.02283081
v 0.00330495 0.03607004 0.02258053
v 0.00276107 0.03591547 0.02246686
v 0.00256374 0.03581338 0.02258051
v 0.00284479 0.03597979 0.02283130
v 0.00229459 0.03600511 0.02302214
v 0.00229385 0.03600545 0.02302214
v 0.00210688 0.03605949 0.02265121
v 0.00232609 0.03582953 0.02266263
v 0.00232641 0.03582919 0.02266265
v 0.00256313 0.03581342 0.02258072
v 0.00874372 0.02368472 0.03654601
v 0.00858344 0.02498988 0.03422096
v 0.00748945 0.02470880 0.03505223
v 0.00742269 0.02420801 0.03603670
v 0.00450181 0.02733734 0.03544048
v 0.00498027 0.02744342 0.03509922
v 0.00859774 0.02536289 0.03360583
v 0.00907990 0.02499352 0.03340118
v 0.00902647 0.02268582 0.03703686
v 0.00887001 0.02316170 0.03730106
v 0.00837070 0.02405479 0.03819467
v 0.00840815 0.02458474 0.03842422
v 0.00903547 0.02333163 0.03642860
v 0.00780612 0.02507948 0.03808506
v 0.00478199 0.02690760 0.03579443
v 0.00744286 0.02427300 0.03613127
v 0.00756878 0.02481825 0.03511121
v 0.00756990 0.02487221 0.03525131
v 0.00746420 0.02441447 0.03610765
v 0.00795966 0.02453643 0.03756116
v 0.00873686 0.02364572 0.03673240
v 0.00725366 0.02424684 0.03602983
v 0.00674259 0.02507561 0.03632422
v 0.00799763 0.02458666 0.03774130
v 0.00554511 0.02680742 0.03559556
v 0.00777534 0.02469100 0.03745770
v 0.00682113 0.02516523 0.03664685
v 0.00686308 0.02574792 0.03572376
v 0.00885365 0.02345374 0.03674928
v 0.00849587 0.02509542 0.03415055
v 0.00571232 0.02671558 0.03543706
v 0.00692740 0.02575125 0.03558605
v 0.00746057 0.02484178 0.03503922
v 0.00695417 0.02574080 0.03565845
v 0.00696476 0.02520100 0.03663878
v 0.00706283 0.02519353 0.03653370
v 0.00705394 0.02564669 0.03571072
v 0.00868541 0.02504797 0.03392276
v 0.00907406 0.02476605 0.03379927
v 0.00523218 0.02703800 0.03551020
v 0.00724277 0.02516796 0.03630045
v 0.00748910 0.02470667 0.03604858
v 0.00754477 0.02497312 0.03554315
v 0.00724424 0.02543717 0.03581862
v 0.00013818 -0.06105101 0.03344305
v 0.00013818 -0.06309257 0.02799096
v 0.00226905 -0.06105101 0.03344306
v 0.00013818 -0.06363322 0.02491191
v 0.00013818 -0.06246672 0.01702120
v 0.00089177 -0.06249688 0.01700862
v 0.00089177 -0.06385567 0.01644172
v 0.00013818 -0.06385567 0.01644172
v -0.01531012 -0.04203658 0.01702233
v -0.01586486 -0.03489182 0.01600093
v -0.00996252 -0.03527747 0.00831268
v -0.01078908 -0.03990757 0.01231190
v -0.01586486 -0.02684169 0.01592549
v -0.01038195 -0.02700679 0.00807971
v -0.01586486 -0.01963183 0.01662109
v -0.01038195 -0.02001748 0.00901162
v -0.01586486 -0.01202857 0.01869547
v -0.01038195 -0.01244573 0.01157436
v -0.01586486 -0.00377076 0.02019984
v -0.01091984 -0.00629513 0.01248552
v -0.01586486 0.00299178 0.02205423
v -0.01438895 0.00391931 0.01614647
v -0.01527970 0.00476469 0.02614829
v -0.01280347 0.00400394 0.01792293
v -0.01217548 0.00702043 0.02816948
v -0.01115704 0.00601982 0.01969643
v -0.01050340 0.00810286 0.02887713
v -0.00843194 0.00823163 0.02030531
v -0.01243049 0.01547033 0.02349201
v -0.00812921 0.01439092 0.01640543
v -0.01155860 0.02040548 0.02175953
v -0.00775672 0.01939204 0.01470112
v -0.01074000 0.02404980 0.01820452
v -0.00847726 0.02317893 0.01103985
v -0.01117175 0.02729668 0.01591283
v -0.00838217 0.02640084 0.01042914
v -0.01261606 0.03172078 0.01201953
v -0.01041375 0.03135315 0.00968742
v -0.01234248 0.03586873 0.01382264
v -0.01095659 0.03317026 0.01189154
v -0.01531012 -0.04280962 0.03185059
v -0.01409926 -0.04836310 0.03053030
v -0.00575178 -0.04898952 0.04112219
v -0.00575178 -0.04353743 0.04406459
v -0.01273761 -0.05405585 0.02800990
v -0.00514534 -0.05461469 0.03696822
v -0.00963662 -0.05887909 0.02677629
v -0.00427773 -0.05920137 0.03421474
v -0.00284244 -0.06178358 0.02568360
v -0.00254487 -0.06197069 0.02876265
v -0.00867857 -0.01030363 0.04639436
v -0.00717622 -0.01803718 0.04633935
v -0.00312523 0.02941735 0.03026787
v -0.00855234 0.02492386 0.03222359
v -0.00507905 0.01347853 0.04214281
v -0.00852828 0.00949031 0.04335656
v -0.00486722 -0.05290454 0.01516594
v -0.01164216 -0.05405270 0.01092542
v -0.00293505 -0.05260884 0.01184527
v -0.00575178 -0.03329717 0.04604489
v -0.00960416 -0.00354407 0.04566404
v -0.00525011 0.03330244 0.02590078
v -0.00284244 -0.06158484 0.02241320
v -0.00297600 -0.06149153 0.02029662
v -0.00255477 -0.00439522 0.01248552
v -0.00281152 0.01797445 0.04121205
v -0.00714539 0.01799684 0.04086812
v -0.00527469 0.03535176 0.02322058
v -0.00469286 0.03565888 0.02322833
v -0.00530242 0.03676752 0.02067971
v -0.00649691 0.03703781 0.02076500
v -0.00187754 -0.06217783 0.02353095
v -0.01106898 0.00276249 0.04474410
v -0.00663070 0.03460413 0.02407571
v -0.00504421 0.00604174 0.01382109
v -0.00575178 -0.02615901 0.04662086
v -0.00142254 0.02337706 0.03953786
v -0.00765955 0.02263119 0.03802934
v -0.00796988 0.02142831 0.03840914
v -0.00323663 0.02312215 0.03986200
v -0.01007951 0.00653970 0.04400237
v -0.00917516 -0.04247809 0.01035973
v -0.01480873 -0.04341228 0.01127159
v -0.00919470 0.02567626 0.03317487
v -0.00223937 0.02844718 0.03545958
v -0.00963662 -0.05853678 0.01887556
v -0.01273761 -0.05346228 0.01633723
v -0.01409926 -0.04769774 0.01742494
v -0.00887505 0.03274385 0.02165710
v -0.00890734 0.03582629 0.01985497
v -0.01125575 0.03681905 0.01593824
v -0.01087664 0.02887394 0.02374315
v -0.01137893 0.02535900 0.02700187
v -0.01194440 0.02198683 0.03003068
v -0.01186174 0.01718590 0.03176353
v -0.00883061 0.01054573 0.03500332
v -0.01172116 0.00819501 0.03479747
v -0.01381077 0.00566708 0.03518103
v -0.01586486 0.00287368 0.03353843
v -0.01586486 -0.00365400 0.03385646
v -0.01586486 -0.01114011 0.03386195
v -0.01586486 -0.01881047 0.03282768
v -0.01586486 -0.02649006 0.03263536
v -0.01586486 -0.03407047 0.03237528
v -0.00791349 0.01923395 0.03982913
v -0.00187754 -0.06363322 0.02491192
v -0.00222687 -0.06309257 0.02799096
v -0.00213321 0.03551516 0.02368790
v -0.00063299 0.03701283 0.02147916
v -0.00085684 0.03657981 0.02307475
v -0.00448995 0.03682286 0.01997668
v -0.00376906 0.03735369 0.01886972
v -0.00385327 0.03741650 0.01856813
v -0.00739510 -0.04736874 0.00008030
v -0.01061854 -0.04790327 0.00008030
v -0.01373548 -0.04378719 0.00019445
v -0.01280390 -0.04363272 0.00012456
v -0.01249522 -0.04358153 0.00012456
v -0.01008336 -0.04318158 0.00012456
v -0.00976655 -0.04312905 0.00012456
v -0.00779218 -0.04280165 0.00012456
v -0.01223394 -0.04409286 0.00610854
v -0.01248895 -0.04402497 0.00584652
v -0.01354750 -0.04392177 0.00279368
v -0.01000008 -0.05099144 0.00576238
v -0.00499739 -0.05016187 0.00603199
v -0.00747950 -0.04291558 0.00191311
v -0.00686153 -0.04309896 0.00592370
v -0.00684490 -0.04319922 0.00610854
v -0.00754997 -0.04213629 0.00485587
v -0.00835461 -0.03943500 0.00249824
v -0.01002589 -0.04001596 0.00255717
v -0.01063346 -0.04025452 0.00259128
v -0.01251014 -0.04088899 0.00259732
v -0.01332232 -0.04108079 0.00267547
v -0.01527179 -0.04180144 0.00253763
v -0.01327724 -0.04307886 0.00477870
v -0.01051662 -0.03994504 0.00013867
v -0.00824851 -0.03923825 0.00013867
v -0.01554428 -0.04172146 0.00013867
v -0.01308874 -0.04095831 0.00013867
v -0.01298252 -0.04081096 0.00013867
v -0.01454954 -0.03946412 0.00212288
v -0.01598866 -0.03995393 0.00213091
v -0.00903803 -0.03691860 0.00010109
v -0.00906087 -0.03803016 0.00231183
v -0.01044506 -0.03859661 0.00228182
v -0.01142806 -0.03782202 0.00010109
v -0.01076700 -0.04003962 0.00013867
v -0.01494137 -0.03892789 0.00010109
v -0.01645492 -0.03944304 0.00010109
v -0.01240674 -0.03806519 0.00010109
v -0.01422539 -0.03877072 0.00010109
v -0.01320940 -0.03923125 0.00225647
v -0.01234226 -0.03877680 0.00226832
v -0.00762425 -0.00150884 0.00003717
v -0.01113426 -0.00230605 0.00003717
v -0.01467628 -0.00051389 0.00021717
v -0.01474861 0.00340600 0.00027476
v -0.01495781 0.00387338 0.00026336
v -0.01127537 0.00470976 0.00029225
v -0.01096737 0.00477971 0.00039140
v -0.00677913 0.00573097 0.00041458
v -0.01403926 0.00201469 0.00692535
v -0.01421743 0.00240580 0.00632883
v -0.01432799 0.00196911 0.00544415
v -0.01294268 -0.00160945 0.00508436
v -0.01119414 -0.00336795 0.00484836
v -0.01157750 -0.00342735 0.00591362
v -0.00624570 -0.00248020 0.00591362
v -0.00719335 0.00356957 0.00630484
v -0.00752439 0.00388456 0.00577327
v -0.00960929 0.00342880 0.00582447
v -0.01071325 0.00318191 0.00605821
v -0.00698731 0.00621958 0.00392049
v -0.00472997 -0.00300263 0.00843367
v -0.00641533 0.00399663 0.00902513
v -0.01383153 0.00231222 0.01001176
v -0.01135839 -0.00450811 0.00843367
v -0.01225434 0.00806170 0.00012964
v -0.01688653 0.00700961 0.00010074
v -0.01539381 0.00648933 0.00241874
v -0.01271501 0.00710847 0.00227641
v -0.01053747 0.00542912 0.00396279
v -0.01163104 0.00507142 0.00394560
v -0.01173004 0.00818078 0.00013585
v -0.00754180 0.00913203 0.00015903
v -0.01437051 0.00443850 0.00408793
v -0.01615234 0.00446341 0.00368334
v -0.01725634 0.00551664 0.00217815
v -0.01669537 0.00177624 0.00175707
v -0.01495655 0.00027736 0.00388531
v -0.00809010 0.00816945 0.00213075
v -0.01073829 0.00758386 0.00217305
v -0.01779868 0.00609709 0.00000000
v -0.01742048 0.00221807 0.00001379
v -0.01036570 0.02164381 0.04393058
v -0.01024496 0.02095775 0.04447781
v -0.00960247 0.02145539 0.04500804
v -0.00840222 0.02259319 0.04441316
v -0.00930066 0.02107724 0.04247008
v -0.01051860 0.02276598 0.04321498
v -0.00871417 0.02193329 0.04172648
v -0.00299924 0.01997012 0.04063990
v -0.00942484 0.02254660 0.04395514
v -0.00686264 0.02145614 0.04195099
v -0.00600679 0.02197696 0.04238081
v -0.00709879 0.02088835 0.04296424
v -0.00839616 0.01991859 0.04300350
v -0.00517448 0.01968529 0.04214355
v -0.00732523 0.01892032 0.04143200
v -0.00408129 0.02159111 0.04149193
v -0.00812714 0.02196244 0.03989746
v -0.00611514 0.02134403 0.04111927
v -0.00797493 0.02037200 0.04065213
v -0.00963454 0.03771164 0.01699355
v -0.00801426 0.03687665 0.01964241
v -0.00694075 0.03706639 0.01980325
v -0.00430006 0.03629648 0.02280392
v -0.00399960 0.03687365 0.02125001
v -0.00163682 0.03691670 0.02198448
v -0.00146766 0.03653976 0.02324019
v -0.00200249 0.03649382 0.02315781
v -0.00222606 0.03626519 0.02329251
v -0.00223298 0.03581987 0.02365493
v -0.00387104 0.03633333 0.02287000
v -0.00365582 0.03657321 0.02222566
v -0.00304475 0.03672231 0.02200212
v -0.00237880 0.03674455 0.02217915
v -0.00209190 0.03660458 0.02275879
v -0.00330542 0.03617912 0.02278009
v -0.00250118 0.03632696 0.02289757
v -0.00253920 0.03645584 0.02271670
v -0.00266204 0.03662211 0.02245510
v -0.00294857 0.03660773 0.02237879
v -0.00321196 0.03644831 0.02248482
v -0.00330738 0.03602324 0.02324491
v -0.00306336 0.03585317 0.02295917
v -0.00327268 0.03595814 0.02287289
v -0.00379420 0.03612024 0.02305825
v -0.00273406 0.03604101 0.02336048
v -0.00273480 0.03604068 0.02336058
v -0.00330591 0.03602328 0.02324520
v -0.00306273 0.03585320 0.02295930
v -0.00281697 0.03586557 0.02300876
v -0.00281665 0.03586590 0.02300870
v -0.00259773 0.03609276 0.02296780
v -0.00748678 0.02379949 0.03763821
v -0.00675705 0.02435502 0.03683298
v -0.00681269 0.02487601 0.03585836
v -0.00762107 0.02510447 0.03531141
v -0.00822278 0.02511588 0.03456553
v -0.00771240 0.02547823 0.03470338
v -0.00389854 0.02750621 0.03569670
v -0.00338021 0.02739308 0.03597088
v -0.00688997 0.02469293 0.03945368
v -0.00689107 0.02416271 0.03922168
v -0.00751812 0.02327758 0.03840387
v -0.00771525 0.02280421 0.03816346
v -0.00779657 0.02345066 0.03756127
v -0.00361647 0.02696699 0.03635958
v -0.00633189 0.02517946 0.03903645
v -0.00674988 0.02441978 0.03690017
v -0.00674626 0.02456313 0.03687857
v -0.00683712 0.02504694 0.03603495
v -0.00685811 0.02499608 0.03589526
v -0.00656186 0.02463912 0.03853835
v -0.00610441 0.02511126 0.03736334
v -0.00668243 0.02437805 0.03695959
v -0.00745555 0.02376022 0.03782204
v -0.00657465 0.02468971 0.03872190
v -0.00440069 0.02687775 0.03626484
v -0.00594094 0.02576721 0.03644449
v -0.00593017 0.02517145 0.03736010
v -0.00639091 0.02479118 0.03841099
v -0.00757172 0.02356989 0.03785459
v -0.00754225 0.02520883 0.03522980
v -0.00675397 0.02500021 0.03581412
v -0.00601503 0.02578482 0.03631291
v -0.00458891 0.02678843 0.03613026
v -0.00603699 0.02577833 0.03638736
v -0.00614779 0.02570363 0.03644807
v -0.00617106 0.02524628 0.03726845
v -0.00606471 0.02523354 0.03736459
v -0.00816686 0.02488796 0.03495946
v -0.00776124 0.02516427 0.03502951
v -0.00409880 0.02710398 0.03613811
v -0.00637187 0.02525868 0.03705175
v -0.00636405 0.02553152 0.03657204
v -0.00676866 0.02513644 0.03632355
v -0.00672091 0.02485580 0.03682206
v -0.00199269 -0.06105101 0.03344305
v -0.00061540 -0.06385567 0.01644172
v -0.00061540 -0.06249688 0.01700862
v 0.00975845 0.00291437 0.00461218
v 0.01005077 0.00318262 0.00075101
v 0.01408322 0.00353455 0.00395265
v 0.01426264 0.00332504 0.00204937
v -0.00122145 0.00383286 0.01476374
v -0.01489972 0.00372456 0.00064169
f 110 304 300
f 304 320 300
f 316 322 331
f 293 329 321
f 317 315 311
f 292 312 320
f 318 314 326
f 325 323 319
f 307 313 295
f 294 324 308
f 413 594 595
f 595 594 611
f 607 622 615
f 586 612 621
f 610 602 606
f 583 611 605
f 609 619 603
f 616 608 614
f 598 584 604
f 585 601 613
f 300 320 301
f 611 594 593
f 1 2 3
f 1 3 4
f 4 3 5
f 4 5 6
f 6 5 7
f 6 7 8
f 8 7 9
f 8 9 10
f 10 9 11
f 10 11 12
f 12 11 13
f 12 13 14
f 14 13 15
f 14 15 16
f 16 15 17
f 16 17 18
f 18 17 19
f 18 19 20
f 20 19 21
f 20 21 22
f 22 21 23
f 22 23 24
f 24 23 25
f 24 25 26
f 26 25 27
f 26 27 28
f 28 27 29
f 28 29 30
f 30 29 31
f 30 31 32
f 33 34 35
f 33 35 36
f 36 35 37
f 36 37 38
f 38 37 39
f 38 39 40
f 40 39 41
f 40 41 42
f 43 44 17
f 43 17 15
f 45 46 37
f 45 37 35
f 47 48 49
f 47 49 50
f 51 52 53
f 51 53 54
f 55 56 9
f 55 9 7
f 57 58 27
f 57 27 25
f 59 60 61
f 59 61 62
f 68 69 34
f 68 34 70
f 44 71 19
f 44 19 17
f 46 72 39
f 46 39 37
f 73 47 50
f 73 50 74
f 75 51 54
f 75 54 76
f 77 78 79
f 77 79 80
f 58 83 29
f 58 29 27
f 84 85 3
f 84 3 2
f 78 63 67
f 78 67 79
f 89 90 91
f 89 91 92
f 71 93 21
f 71 21 19
f 94 42 95
f 94 95 96
f 97 73 74
f 97 74 98
f 99 75 76
f 99 76 100
f 81 101 102
f 81 102 82
f 83 103 31
f 83 31 29
f 104 68 70
f 104 70 105
f 85 112 5
f 85 5 3
f 93 113 23
f 93 23 21
f 114 97 98
f 114 98 115
f 69 45 35
f 69 35 34
f 48 104 105
f 48 105 49
f 52 119 120
f 52 120 53
f 112 55 7
f 112 7 5
f 113 57 25
f 113 25 23
f 60 114 115
f 60 115 61
f 64 116 118
f 64 118 65
f 103 121 32
f 103 32 31
f 94 77 80
f 94 80 42
f 67 122 80
f 67 80 79
f 66 123 122
f 66 122 67
f 117 124 123
f 117 123 66
f 2 1 124
f 2 124 117
f 128 28 30
f 128 30 125
f 129 26 28
f 129 28 128
f 130 24 26
f 130 26 129
f 131 22 24
f 131 24 130
f 132 20 22
f 132 22 131
f 133 18 20
f 133 20 132
f 134 16 18
f 134 18 133
f 135 14 16
f 135 16 134
f 136 12 14
f 136 14 135
f 137 10 12
f 137 12 136
f 138 8 10
f 138 10 137
f 139 6 8
f 139 8 138
f 140 4 6
f 140 6 139
f 33 1 4
f 33 4 140
f 34 33 140
f 34 140 70
f 70 140 139
f 70 139 105
f 105 139 138
f 105 138 49
f 49 138 137
f 49 137 50
f 50 137 136
f 50 136 74
f 74 136 135
f 74 135 98
f 98 135 134
f 98 134 115
f 115 134 133
f 115 133 61
f 61 133 132
f 61 132 62
f 62 132 131
f 62 131 87
f 53 129 128
f 53 128 54
f 54 128 125
f 54 125 76
f 76 125 127
f 76 127 100
f 121 144 126
f 121 126 32
f 122 40 42
f 122 42 80
f 123 38 40
f 123 40 122
f 124 36 38
f 124 38 123
f 1 33 36
f 1 36 124
f 147 148 149
f 147 149 150
f 152 154 155
f 152 155 153
f 146 145 149
f 146 149 148
f 165 168 156
f 165 156 163
f 169 164 167
f 169 167 170
f 118 117 164
f 118 164 169
f 65 118 169
f 65 169 168
f 66 65 168
f 66 168 165
f 117 66 165
f 117 165 164
f 167 166 174
f 167 174 173
f 158 157 180
f 158 180 181
f 166 162 182
f 166 182 174
f 162 161 183
f 162 183 182
f 161 160 184
f 161 184 183
f 170 167 173
f 170 173 172
f 175 174 185
f 175 185 186
f 180 179 187
f 180 187 188
f 184 176 175
f 184 175 183
f 178 181 189
f 178 189 190
f 181 178 177
f 181 177 191
f 171 170 172
f 171 172 179
f 157 171 179
f 157 179 180
f 159 158 181
f 159 181 191
f 160 159 191
f 160 191 184
f 187 190 189
f 187 189 188
f 192 186 185
f 192 185 193
f 194 195 196
f 194 196 197
f 191 177 195
f 191 195 194
f 176 184 197
f 176 197 196
f 183 175 186
f 183 186 192
f 179 178 190
f 179 190 187
f 184 191 194
f 184 194 197
f 181 180 188
f 181 188 189
f 182 183 192
f 182 192 193
f 177 176 196
f 177 196 195
f 174 182 193
f 174 193 185
f 82 102 218
f 82 218 219
f 102 13 220
f 102 220 218
f 11 82 219
f 11 219 221
f 13 11 221
f 13 221 220
f 219 218 213
f 219 213 212
f 218 220 206
f 218 206 213
f 221 219 212
f 221 212 207
f 220 221 207
f 220 207 206
f 222 223 224
f 222 224 225
f 216 215 226
f 216 226 217
f 201 227 223
f 201 223 222
f 200 199 228
f 200 228 229
f 230 227 214
f 230 214 211
f 231 232 233
f 231 233 234
f 232 231 210
f 232 210 209
f 235 236 229
f 235 229 228
f 227 230 224
f 227 224 223
f 226 200 229
f 226 229 236
f 230 202 225
f 230 225 224
f 217 226 236
f 217 236 235
f 202 201 222
f 202 222 225
f 199 217 235
f 199 235 228
f 237 234 233
f 237 233 238
f 203 231 234
f 203 234 237
f 204 203 237
f 204 237 238
f 232 204 238
f 232 238 233
f 239 240 241
f 239 241 242
f 243 244 245
f 243 245 239
f 246 108 107
f 246 107 247
f 244 248 249
f 244 249 245
f 250 251 241
f 250 241 240
f 251 252 242
f 251 242 241
f 88 87 253
f 88 253 254
f 246 88 254
f 246 254 255
f 109 108 256
f 109 256 257
f 141 109 257
f 141 257 258
f 254 253 252
f 254 252 251
f 255 254 251
f 255 251 250
f 257 256 248
f 257 248 244
f 258 257 244
f 258 244 243
f 253 258 243
f 253 243 252
f 256 255 250
f 256 250 248
f 87 141 258
f 87 258 253
f 108 246 255
f 108 255 256
f 248 250 240
f 248 240 249
f 88 246 247
f 88 247 86
f 252 243 239
f 252 239 242
f 245 249 240
f 245 240 239
f 90 127 262
f 90 262 261
f 127 126 259
f 127 259 262
f 126 144 260
f 126 260 259
f 92 91 263
f 92 263 264
f 151 150 265
f 151 265 263
f 150 149 266
f 150 266 265
f 266 267 268
f 266 268 269
f 90 151 263
f 90 263 91
f 149 145 267
f 149 267 266
f 145 89 92
f 145 92 267
f 281 282 283
f 281 283 284
f 270 269 280
f 270 280 279
f 273 272 277
f 273 277 276
f 268 287 289
f 268 289 288
f 269 268 288
f 269 288 280
f 282 274 275
f 282 275 283
f 272 271 278
f 272 278 277
f 285 281 284
f 285 284 291
f 271 270 279
f 271 279 278
f 286 285 291
f 286 291 290
f 274 273 276
f 274 276 275
f 287 286 290
f 287 290 289
f 292 293 294
f 292 294 295
f 307 308 309
f 307 309 310
f 311 312 313
f 311 313 314
f 302 315 305
f 302 305 303
f 316 317 318
f 316 318 319
f 301 320 315
f 301 315 302
f 321 322 323
f 321 323 324
f 325 326 327
f 325 327 328
f 299 298 329
f 299 329 330
f 305 315 331
f 305 331 306
f 306 331 297
f 306 297 296
f 330 329 320
f 330 320 304
f 308 325 328
f 308 328 309
f 332 333 334
f 332 334 335
f 332 335 328
f 332 328 327
f 310 309 334
f 310 334 333
f 309 328 335
f 309 335 334
f 333 332 327
f 333 327 310
f 326 307 310
f 326 310 327
f 317 316 331
f 317 331 315
f 320 329 293
f 320 293 292
f 329 331 322
f 329 322 321
f 312 311 315
f 312 315 320
f 326 325 319
f 326 319 318
f 295 294 308
f 295 308 307
f 324 323 325
f 324 325 308
f 307 326 314
f 307 314 313
f 311 314 318
f 311 318 317
f 323 322 316
f 323 316 319
f 294 293 321
f 294 321 324
f 292 295 313
f 292 313 312
f 331 329 298
f 331 298 297
f 336 337 142
f 336 142 338
f 337 339 143
f 337 143 142
f 41 39 338
f 41 338 142
f 39 72 336
f 39 336 338
f 340 341 342
f 340 342 343
f 96 95 341
f 96 341 340
f 95 143 342
f 95 342 341
f 143 339 343
f 143 343 342
f 344 345 346
f 344 346 347
f 345 348 349
f 345 349 346
f 348 350 351
f 348 351 349
f 350 352 353
f 350 353 351
f 352 354 355
f 352 355 353
f 354 356 357
f 354 357 355
f 356 358 359
f 356 359 357
f 358 360 361
f 358 361 359
f 360 362 363
f 360 363 361
f 362 364 365
f 362 365 363
f 364 366 367
f 364 367 365
f 366 368 369
f 366 369 367
f 368 370 371
f 368 371 369
f 370 372 373
f 370 373 371
f 372 374 375
f 372 375 373
f 376 377 378
f 376 378 379
f 377 380 381
f 377 381 378
f 380 382 383
f 380 383 381
f 382 384 385
f 382 385 383
f 43 359 361
f 43 361 44
f 45 378 381
f 45 381 46
f 47 386 387
f 47 387 48
f 51 388 389
f 51 389 52
f 55 351 353
f 55 353 56
f 57 369 371
f 57 371 58
f 59 390 391
f 59 391 60
f 68 395 379
f 68 379 69
f 44 361 363
f 44 363 71
f 46 381 383
f 46 383 72
f 73 396 386
f 73 386 47
f 75 397 388
f 75 388 51
f 77 398 399
f 77 399 78
f 58 371 373
f 58 373 83
f 84 347 346
f 84 346 85
f 78 399 392
f 78 392 63
f 403 404 405
f 403 405 406
f 71 363 365
f 71 365 93
f 94 96 407
f 94 407 384
f 97 408 396
f 97 396 73
f 99 409 397
f 99 397 75
f 81 400 410
f 81 410 101
f 83 373 375
f 83 375 103
f 104 411 395
f 104 395 68
f 85 346 349
f 85 349 112
f 93 365 367
f 93 367 113
f 114 416 408
f 114 408 97
f 69 379 378
f 69 378 45
f 48 387 411
f 48 411 104
f 52 389 419
f 52 419 420
f 112 349 351
f 112 351 55
f 113 367 369
f 113 369 57
f 60 391 416
f 60 416 114
f 64 394 417
f 64 417 116
f 103 375 374
f 103 374 121
f 94 384 398
f 94 398 77
f 392 399 398
f 392 398 421
f 393 392 421
f 393 421 422
f 418 393 422
f 418 422 423
f 347 418 423
f 347 423 344
f 427 424 372
f 427 372 370
f 428 427 370
f 428 370 368
f 429 428 368
f 429 368 366
f 430 429 366
f 430 366 364
f 431 430 364
f 431 364 362
f 432 431 362
f 432 362 360
f 433 432 360
f 433 360 358
f 434 433 358
f 434 358 356
f 435 434 356
f 435 356 354
f 436 435 354
f 436 354 352
f 437 436 352
f 437 352 350
f 438 437 350
f 438 350 348
f 439 438 348
f 439 348 345
f 376 439 345
f 376 345 344
f 379 395 439
f 379 439 376
f 395 411 438
f 395 438 439
f 411 387 437
f 411 437 438
f 387 386 436
f 387 436 437
f 386 396 435
f 386 435 436
f 396 408 434
f 396 434 435
f 408 416 433
f 408 433 434
f 416 391 432
f 416 432 433
f 391 390 431
f 391 431 432
f 390 402 430
f 390 430 431
f 389 388 427
f 389 427 428
f 388 397 424
f 388 424 427
f 397 409 425
f 397 425 424
f 121 374 426
f 121 426 144
f 421 398 384
f 421 384 382
f 422 421 382
f 422 382 380
f 423 422 380
f 423 380 377
f 344 423 377
f 344 377 376
f 147 444 445
f 147 445 148
f 447 153 155
f 447 155 448
f 146 148 445
f 146 445 443
f 460 450 449
f 460 449 461
f 464 463 458
f 464 458 457
f 417 464 457
f 417 457 418
f 394 461 464
f 394 464 417
f 393 460 461
f 393 461 394
f 418 457 460
f 418 460 393
f 458 472 471
f 458 471 459
f 455 473 474
f 455 474 456
f 459 471 475
f 459 475 451
f 451 475 476
f 451 476 452
f 452 476 477
f 452 477 453
f 463 465 472
f 463 472 458
f 470 478 479
f 470 479 471
f 474 480 481
f 474 481 466
f 477 476 470
f 477 470 469
f 467 482 483
f 467 483 473
f 473 484 468
f 473 468 467
f 462 466 465
f 462 465 463
f 456 474 466
f 456 466 462
f 454 484 473
f 454 473 455
f 453 477 484
f 453 484 454
f 481 480 483
f 481 483 482
f 485 486 479
f 485 479 478
f 487 488 489
f 487 489 490
f 484 487 490
f 484 490 468
f 469 489 488
f 469 488 477
f 476 485 478
f 476 478 470
f 466 481 482
f 466 482 467
f 477 488 487
f 477 487 484
f 473 483 480
f 473 480 474
f 475 486 485
f 475 485 476
f 468 490 489
f 468 489 469
f 471 479 486
f 471 486 475
f 400 511 512
f 400 512 410
f 410 512 513
f 410 513 357
f 355 514 511
f 355 511 400
f 357 513 514
f 357 514 355
f 511 505 506
f 511 506 512
f 512 506 499
f 512 499 513
f 514 504 505
f 514 505 511
f 513 499 504
f 513 504 514
f 515 516 517
f 515 517 518
f 507 510 519
f 507 519 508
f 496 515 518
f 496 518 520
f 497 521 522
f 497 522 498
f 523 500 509
f 523 509 520
f 524 525 526
f 524 526 527
f 527 502 501
f 527 501 524
f 528 522 521
f 528 521 529
f 520 518 517
f 520 517 523
f 519 529 521
f 519 521 497
f 523 517 516
f 523 516 495
f 510 528 529
f 510 529 519
f 495 516 515
f 495 515 496
f 498 522 528
f 498 528 510
f 530 531 526
f 530 526 525
f 494 530 525
f 494 525 524
f 493 531 530
f 493 530 494
f 527 526 531
f 527 531 493
f 532 533 534
f 532 534 535
f 536 532 537
f 536 537 538
f 539 247 107
f 539 107 415
f 538 537 540
f 538 540 541
f 542 535 534
f 542 534 543
f 543 534 533
f 543 533 544
f 401 545 546
f 401 546 402
f 539 547 545
f 539 545 401
f 414 548 549
f 414 549 415
f 440 550 548
f 440 548 414
f 545 543 544
f 545 544 546
f 547 542 543
f 547 543 545
f 548 538 541
f 548 541 549
f 550 536 538
f 550 538 548
f 546 544 536
f 546 536 550
f 549 541 542
f 549 542 547
f 402 546 550
f 402 550 440
f 415 549 547
f 415 547 539
f 541 540 535
f 541 535 542
f 401 86 247
f 401 247 539
f 544 533 532
f 544 532 536
f 537 532 535
f 537 535 540
f 406 553 552
f 406 552 425
f 425 552 551
f 425 551 426
f 426 551 260
f 426 260 144
f 404 554 555
f 404 555 405
f 446 555 556
f 446 556 444
f 444 556 557
f 444 557 445
f 557 558 559
f 557 559 560
f 406 405 555
f 406 555 446
f 445 557 560
f 445 560 443
f 443 560 404
f 443 404 403
f 572 573 574
f 572 574 575
f 565 568 567
f 565 567 558
f 562 571 570
f 562 570 563
f 559 582 581
f 559 581 576
f 558 567 582
f 558 582 559
f 575 574 566
f 575 566 561
f 563 570 569
f 563 569 564
f 578 579 573
f 578 573 572
f 564 569 568
f 564 568 565
f 577 580 579
f 577 579 578
f 561 566 571
f 561 571 562
f 576 581 580
f 576 580 577
f 583 584 585
f 583 585 586
f 598 599 600
f 598 600 601
f 602 603 604
f 602 604 605
f 592 591 597
f 592 597 606
f 607 608 609
f 607 609 610
f 593 592 606
f 593 606 611
f 612 613 614
f 612 614 615
f 616 617 618
f 616 618 619
f 587 620 621
f 587 621 588
f 597 596 622
f 597 622 606
f 596 590 589
f 596 589 622
f 620 595 611
f 620 611 621
f 601 600 617
f 601 617 616
f 623 624 625
f 623 625 626
f 623 618 617
f 623 617 624
f 599 626 625
f 599 625 600
f 600 625 624
f 600 624 617
f 626 599 618
f 626 618 623
f 619 618 599
f 619 599 598
f 610 606 622
f 610 622 607
f 611 583 586
f 611 586 621
f 621 612 615
f 621 615 622
f 605 611 606
f 605 606 602
f 619 609 608
f 619 608 616
f 584 598 601
f 584 601 585
f 613 601 616
f 613 616 614
f 598 604 603
f 598 603 619
f 602 610 609
f 602 609 603
f 614 608 607
f 614 607 615
f 585 613 612
f 585 612 586
f 583 605 604
f 583 604 584
f 622 589 588
f 622 588 621
f 336 627 442
f 336 442 337
f 337 442 441
f 337 441 339
f 385 442 627
f 385 627 383
f 383 627 336
f 383 336 72
f 340 343 628
f 340 628 629
f 96 340 629
f 96 629 407
f 407 629 628
f 407 628 441
f 441 628 343
f 441 343 339
f 420 412 106
f 420 106 52
f 119 52 106
f 119 106 111
f 64 65 63
f 63 66 67
f 66 63 65
f 82 56 81
f 56 82 9
f 9 82 11
f 59 88 86
f 88 59 62
f 88 62 87
f 107 111 106
f 111 107 108
f 111 108 110
f 110 108 109
f 2 116 84
f 116 2 118
f 118 2 117
f 13 43 15
f 43 13 102
f 43 102 101
f 127 32 126
f 32 127 125
f 32 125 30
f 109 130 110
f 130 109 131
f 131 109 141
f 131 141 87
f 110 53 120
f 53 130 129
f 130 53 110
f 41 95 42
f 95 41 142
f 95 142 143
f 100 146 99
f 146 100 145
f 145 100 89
f 89 100 127
f 89 127 90
f 150 153 147
f 153 150 151
f 153 151 152
f 158 156 157
f 156 158 163
f 163 158 159
f 163 159 160
f 163 160 162
f 162 160 161
f 166 163 162
f 163 166 167
f 163 167 164
f 163 164 165
f 156 171 157
f 171 156 170
f 170 156 169
f 169 156 168
f 173 179 172
f 179 173 178
f 178 173 177
f 177 173 176
f 176 173 175
f 175 173 174
f 200 198 199
f 198 200 205
f 205 200 201
f 205 201 202
f 205 202 203
f 204 205 203
f 206 210 211
f 210 206 209
f 209 206 207
f 209 207 208
f 212 208 207
f 208 212 198
f 208 198 205
f 211 213 206
f 213 211 214
f 213 214 216
f 216 214 215
f 199 216 217
f 216 199 198
f 216 198 213
f 213 198 212
f 630 227 226
f 201 631 200
f 215 630 214
f 631 226 227
f 211 632 230
f 632 211 210
f 203 202 633
f 633 231 632
f 208 232 209
f 232 208 205
f 232 205 204
f 259 261 262
f 261 259 154
f 154 259 260
f 260 155 154
f 264 273 274
f 273 264 263
f 273 263 272
f 269 265 266
f 265 269 270
f 265 270 271
f 265 271 272
f 265 272 263
f 275 279 280
f 279 275 278
f 278 275 276
f 278 276 277
f 267 287 268
f 287 267 286
f 286 267 92
f 286 92 285
f 285 92 281
f 281 92 282
f 282 92 274
f 274 92 264
f 288 275 280
f 275 288 289
f 275 289 290
f 275 290 291
f 275 291 284
f 275 284 283
f 261 151 90
f 151 261 152
f 152 261 154
f 297 119 296
f 119 297 298
f 119 298 120
f 120 298 299
f 110 302 111
f 302 110 301
f 301 110 300
f 303 111 302
f 111 296 119
f 296 111 306
f 306 111 303
f 306 303 305
f 393 63 392
f 63 393 394
f 64 63 394
f 400 353 355
f 353 400 56
f 56 400 81
f 390 401 402
f 401 390 59
f 401 59 86
f 415 413 414
f 413 415 412
f 412 415 107
f 412 107 106
f 347 417 418
f 417 347 84
f 417 84 116
f 359 410 357
f 410 359 634
f 101 43 634
f 374 425 426
f 425 374 372
f 425 372 424
f 429 414 413
f 414 429 430
f 414 430 440
f 440 430 402
f 429 389 428
f 389 429 413
f 413 419 389
f 407 385 384
f 385 407 442
f 442 407 441
f 146 443 99
f 409 403 425
f 403 409 99
f 403 99 443
f 425 403 406
f 153 444 147
f 444 153 446
f 446 153 447
f 452 450 451
f 450 452 453
f 450 453 454
f 450 454 449
f 449 454 455
f 449 455 456
f 450 459 451
f 459 450 458
f 458 450 457
f 457 450 460
f 462 449 456
f 449 462 463
f 449 463 464
f 449 464 461
f 472 470 471
f 470 472 469
f 469 472 465
f 469 465 468
f 468 465 467
f 467 465 466
f 496 494 495
f 494 496 493
f 493 496 492
f 492 496 497
f 492 497 491
f 491 497 498
f 501 499 500
f 499 501 504
f 504 501 502
f 504 502 503
f 503 505 504
f 505 503 491
f 491 503 492
f 506 500 499
f 500 506 509
f 509 506 507
f 509 507 508
f 507 498 510
f 498 507 491
f 491 507 506
f 491 506 505
f 497 520 519
f 520 497 496
f 520 508 519
f 508 520 509
f 523 501 500
f 501 523 524
f 524 523 635
f 495 635 494
f 527 503 502
f 503 527 492
f 492 527 493
f 260 448 155
f 448 552 553
f 552 448 551
f 551 448 260
f 556 558 557
f 558 556 565
f 565 556 564
f 564 556 563
f 562 554 561
f 554 562 555
f 555 562 563
f 555 563 556
f 568 566 567
f 566 568 571
f 571 568 569
f 571 569 570
f 404 575 554
f 575 404 572
f 572 404 560
f 554 575 561
f 572 560 578
f 578 560 577
f 577 560 576
f 576 560 559
f 574 567 566
f 567 574 573
f 567 573 579
f 567 579 580
f 567 580 581
f 567 581 582
f 446 553 406
f 553 446 447
f 553 447 448
f 420 589 590
f 589 420 588
f 588 420 419
f 588 419 587
f 413 593 594
f 593 413 412
f 593 412 592
f 592 412 591
f 412 597 591
f 597 412 596
f 596 412 590
f 590 412 420
f 120 304 110
f 304 120 330
f 330 120 299
f 595 419 413
f 419 595 620
f 419 620 587
f 4 3 2
f 2 1 4
f 6 5 3
f 3 4 6
f 8 7 5
f 5 6 8
f 10 9 7
f 7 8 10
f 12 11 9
f 9 10 12
f 14 13 11
f 11 12 14
f 16 15 13
f 13 14 16
f 18 17 15
f 15 16 18
f 20 19 17
f 17 18 20
f 22 21 19
f 19 20 22
f 24 23 21
f 21 22 24
f 26 25 23
f 23 24 26
f 28 27 25
f 25 26 28
f 30 29 27
f 27 28 30
f 32 31 29
f 29 30 32
f 36 35 34
f 34 33 36
f 38 37 35
f 35 36 38
f 40 39 37
f 37 38 40
f 42 41 39
f 39 40 42
f 15 17 44
f 44 43 15
f 35 37 46
f 46 45 35
f 50 49 48
f 48 47 50
f 54 53 52
f 52 51 54
f 7 9 56
f 56 55 7
f 25 27 58
f 58 57 25
f 62 61 60
f 60 59 62
f 70 34 69
f 69 68 70
f 17 19 71
f 71 44 17
f 37 39 72
f 72 46 37
f 74 50 47
f 47 73 74
f 76 54 51
f 51 75 76
f 80 79 78
f 78 77 80
f 27 29 83
f 83 58 27
f 2 3 85
f 85 84 2
f 79 67 63
f 63 78 79
f 92 91 90
f 90 89 92
f 19 21 93
f 93 71 19
f 96 95 42
f 42 94 96
f 98 74 73
f 73 97 98
f 100 76 75
f 75 99 100
f 82 102 101
f 101 81 82
f 29 31 103
f 103 83 29
f 105 70 68
f 68 104 105
f 3 5 112
f 112 85 3
f 21 23 113
f 113 93 21
f 115 98 97
f 97 114 115
f 34 35 45
f 45 69 34
f 49 105 104
f 104 48 49
f 53 120 119
f 119 52 53
f 5 7 55
f 55 112 5
f 23 25 57
f 57 113 23
f 61 115 114
f 114 60 61
f 65 118 116
f 116 64 65
f 31 32 121
f 121 103 31
f 42 80 77
f 77 94 42
f 79 80 122
f 122 67 79
f 67 122 123
f 123 66 67
f 66 123 124
f 124 117 66
f 117 124 1
f 1 2 117
f 125 30 28
f 28 128 125
f 128 28 26
f 26 129 128
f 129 26 24
f 24 130 129
f 130 24 22
f 22 131 130
f 131 22 20
f 20 132 131
f 132 20 18
f 18 133 132
f 133 18 16
f 16 134 133
f 134 16 14
f 14 135 134
f 135 14 12
f 12 136 135
f 136 12 10
f 10 137 136
f 137 10 8
f 8 138 137
f 138 8 6
f 6 139 138
f 139 6 4
f 4 140 139
f 140 4 1
f 1 33 140
f 70 140 33
f 33 34 70
f 105 139 140
f 140 70 105
f 49 138 139
f 139 105 49
f 50 137 138
f 138 49 50
f 74 136 137
f 137 50 74
f 98 135 136
f 136 74 98
f 115 134 135
f 135 98 115
f 61 133 134
f 134 115 61
f 62 132 133
f 133 61 62
f 87 131 132
f 132 62 87
f 54 128 129
f 129 53 54
f 76 125 128
f 128 54 76
f 100 127 125
f 125 76 100
f 32 126 144
f 144 121 32
f 80 42 40
f 40 122 80
f 122 40 38
f 38 123 122
f 123 38 36
f 36 124 123
f 124 36 33
f 33 1 124
f 150 149 148
f 148 147 150
f 153 155 154
f 154 152 153
f 148 149 145
f 145 146 148
f 163 156 168
f 168 165 163
f 170 167 164
f 164 169 170
f 169 164 117
f 117 118 169
f 168 169 118
f 118 65 168
f 165 168 65
f 65 66 165
f 164 165 66
f 66 117 164
f 173 174 166
f 166 167 173
f 181 180 157
f 157 158 181
f 174 182 162
f 162 166 174
f 182 183 161
f 161 162 182
f 183 184 160
f 160 161 183
f 172 173 167
f 167 170 172
f 186 185 174
f 174 175 186
f 188 187 179
f 179 180 188
f 183 175 176
f 176 184 183
f 190 189 181
f 181 178 190
f 191 177 178
f 178 181 191
f 179 172 170
f 170 171 179
f 180 179 171
f 171 157 180
f 191 181 158
f 158 159 191
f 184 191 159
f 159 160 184
f 188 189 190
f 190 187 188
f 193 185 186
f 186 192 193
f 197 196 195
f 195 194 197
f 194 195 177
f 177 191 194
f 196 197 184
f 184 176 196
f 192 186 175
f 175 183 192
f 187 190 178
f 178 179 187
f 197 194 191
f 191 184 197
f 189 188 180
f 180 181 189
f 193 192 183
f 183 182 193
f 195 196 176
f 176 177 195
f 185 193 182
f 182 174 185
f 219 218 102
f 102 82 219
f 218 220 13
f 13 102 218
f 221 219 82
f 82 11 221
f 220 221 11
f 11 13 220
f 212 213 218
f 218 219 212
f 213 206 220
f 220 218 213
f 207 212 219
f 219 221 207
f 206 207 221
f 221 220 206
f 225 224 223
f 223 222 225
f 217 226 215
f 215 216 217
f 222 223 227
f 227 201 222
f 200 631 201
f 227 630 226
f 226 631 227
f 215 214 630
f 229 228 199
f 199 200 229
f 211 214 227
f 227 230 211
f 230 632 210
f 210 211 230
f 231 633 632
f 633 202 203
f 234 233 232
f 232 231 234
f 209 210 231
f 231 232 209
f 228 229 236
f 236 235 228
f 223 224 230
f 230 227 223
f 236 229 200
f 200 226 236
f 224 225 202
f 202 230 224
f 235 236 226
f 226 217 235
f 225 222 201
f 201 202 225
f 228 235 217
f 217 199 228
f 238 233 234
f 234 237 238
f 237 234 231
f 231 203 237
f 238 237 203
f 203 204 238
f 233 238 204
f 204 232 233
f 242 241 240
f 240 239 242
f 239 245 244
f 244 243 239
f 247 107 108
f 108 246 247
f 245 249 248
f 248 244 245
f 240 241 251
f 251 250 240
f 241 242 252
f 252 251 241
f 254 253 87
f 87 88 254
f 255 254 88
f 88 246 255
f 257 256 108
f 108 109 257
f 258 257 109
f 109 141 258
f 251 252 253
f 253 254 251
f 250 251 254
f 254 255 250
f 244 248 256
f 256 257 244
f 243 244 257
f 257 258 243
f 252 243 258
f 258 253 252
f 248 250 255
f 255 256 248
f 253 258 141
f 141 87 253
f 256 255 246
f 246 108 256
f 249 240 250
f 250 248 249
f 86 247 246
f 246 88 86
f 242 239 243
f 243 252 242
f 239 240 249
f 249 245 239
f 261 262 127
f 127 90 261
f 262 259 126
f 126 127 262
f 259 260 144
f 144 126 259
f 264 263 91
f 91 92 264
f 263 265 150
f 150 151 263
f 265 266 149
f 149 150 265
f 269 268 267
f 267 266 269
f 91 263 151
f 151 90 91
f 266 267 145
f 145 149 266
f 267 92 89
f 89 145 267
f 284 283 282
f 282 281 284
f 279 280 269
f 269 270 279
f 276 277 272
f 272 273 276
f 288 289 287
f 287 268 288
f 280 288 268
f 268 269 280
f 283 275 274
f 274 282 283
f 277 278 271
f 271 272 277
f 291 284 281
f 281 285 291
f 278 279 270
f 270 271 278
f 290 291 285
f 285 286 290
f 275 276 273
f 273 274 275
f 289 290 286
f 286 287 289
f 295 294 293
f 293 292 295
f 110 300 304
f 310 309 308
f 308 307 310
f 314 313 312
f 312 311 314
f 303 305 315
f 315 302 303
f 319 318 317
f 317 316 319
f 302 315 320
f 320 301 302
f 324 323 322
f 322 321 324
f 328 327 326
f 326 325 328
f 330 329 298
f 298 299 330
f 306 331 315
f 315 305 306
f 296 297 331
f 331 306 296
f 304 300 320
f 304 320 329
f 329 330 304
f 309 328 325
f 325 308 309
f 335 334 333
f 333 332 335
f 327 328 335
f 335 332 327
f 333 334 309
f 309 310 333
f 334 335 328
f 328 309 334
f 310 327 332
f 332 333 310
f 327 310 307
f 307 326 327
f 316 331 322
f 293 321 329
f 317 311 315
f 292 320 312
f 318 326 314
f 325 319 323
f 307 295 313
f 294 308 324
f 315 331 316
f 316 317 315
f 292 293 329
f 329 320 292
f 321 322 331
f 331 329 321
f 320 315 311
f 311 312 320
f 318 319 325
f 325 326 318
f 307 308 294
f 294 295 307
f 308 325 323
f 323 324 308
f 313 314 326
f 326 307 313
f 317 318 314
f 314 311 317
f 319 316 322
f 322 323 319
f 324 321 293
f 293 294 324
f 312 313 295
f 295 292 312
f 297 298 329
f 329 331 297
f 338 142 337
f 337 336 338
f 142 143 339
f 339 337 142
f 142 338 39
f 39 41 142
f 338 336 72
f 72 39 338
f 343 342 341
f 341 340 343
f 340 341 95
f 95 96 340
f 341 342 143
f 143 95 341
f 342 343 339
f 339 143 342
f 347 346 345
f 345 344 347
f 346 349 348
f 348 345 346
f 349 351 350
f 350 348 349
f 351 353 352
f 352 350 351
f 353 355 354
f 354 352 353
f 355 357 356
f 356 354 355
f 357 359 358
f 358 356 357
f 359 361 360
f 360 358 359
f 361 363 362
f 362 360 361
f 363 365 364
f 364 362 363
f 365 367 366
f 366 364 365
f 367 369 368
f 368 366 367
f 369 371 370
f 370 368 369
f 371 373 372
f 372 370 371
f 373 375 374
f 374 372 373
f 379 378 377
f 377 376 379
f 378 381 380
f 380 377 378
f 381 383 382
f 382 380 381
f 383 385 384
f 384 382 383
f 44 361 359
f 359 43 44
f 46 381 378
f 378 45 46
f 48 387 386
f 386 47 48
f 52 389 388
f 388 51 52
f 56 353 351
f 351 55 56
f 58 371 369
f 369 57 58
f 60 391 390
f 390 59 60
f 69 379 395
f 395 68 69
f 71 363 361
f 361 44 71
f 72 383 381
f 381 46 72
f 47 386 396
f 396 73 47
f 51 388 397
f 397 75 51
f 78 399 398
f 398 77 78
f 83 373 371
f 371 58 83
f 85 346 347
f 347 84 85
f 63 392 399
f 399 78 63
f 406 405 404
f 404 403 406
f 93 365 363
f 363 71 93
f 384 407 96
f 96 94 384
f 73 396 408
f 408 97 73
f 75 397 409
f 409 99 75
f 101 410 400
f 400 81 101
f 103 375 373
f 373 83 103
f 68 395 411
f 411 104 68
f 112 349 346
f 346 85 112
f 113 367 365
f 365 93 113
f 97 408 416
f 416 114 97
f 101 634 43
f 359 357 410
f 410 634 359
f 45 378 379
f 379 69 45
f 104 411 387
f 387 48 104
f 420 419 389
f 389 52 420
f 55 351 349
f 349 112 55
f 57 369 367
f 367 113 57
f 114 416 391
f 391 60 114
f 116 417 394
f 394 64 116
f 121 374 375
f 375 103 121
f 77 398 384
f 384 94 77
f 421 398 399
f 399 392 421
f 422 421 392
f 392 393 422
f 423 422 393
f 393 418 423
f 344 423 418
f 418 347 344
f 370 372 424
f 424 427 370
f 368 370 427
f 427 428 368
f 366 368 428
f 428 429 366
f 364 366 429
f 429 430 364
f 362 364 430
f 430 431 362
f 360 362 431
f 431 432 360
f 358 360 432
f 432 433 358
f 356 358 433
f 433 434 356
f 354 356 434
f 434 435 354
f 352 354 435
f 435 436 352
f 350 352 436
f 436 437 350
f 348 350 437
f 437 438 348
f 345 348 438
f 438 439 345
f 344 345 439
f 439 376 344
f 376 439 395
f 395 379 376
f 439 438 411
f 411 395 439
f 438 437 387
f 387 411 438
f 437 436 386
f 386 387 437
f 436 435 396
f 396 386 436
f 435 434 408
f 408 396 435
f 434 433 416
f 416 408 434
f 433 432 391
f 391 416 433
f 432 431 390
f 390 391 432
f 431 430 402
f 402 390 431
f 428 427 388
f 388 389 428
f 427 424 397
f 397 388 427
f 424 425 409
f 409 397 424
f 144 426 374
f 374 121 144
f 382 384 398
f 398 421 382
f 380 382 421
f 421 422 380
f 377 380 422
f 422 423 377
f 376 377 423
f 423 344 376
f 148 445 444
f 444 147 148
f 448 155 153
f 153 447 448
f 443 445 148
f 148 146 443
f 461 449 450
f 450 460 461
f 457 458 463
f 463 464 457
f 418 457 464
f 464 417 418
f 417 464 461
f 461 394 417
f 394 461 460
f 460 393 394
f 393 460 457
f 457 418 393
f 459 471 472
f 472 458 459
f 456 474 473
f 473 455 456
f 451 475 471
f 471 459 451
f 452 476 475
f 475 451 452
f 453 477 476
f 476 452 453
f 458 472 465
f 465 463 458
f 471 479 478
f 478 470 471
f 466 481 480
f 480 474 466
f 469 470 476
f 476 477 469
f 473 483 482
f 482 467 473
f 467 468 484
f 484 473 467
f 463 465 466
f 466 462 463
f 462 466 474
f 474 456 462
f 455 473 484
f 484 454 455
f 454 484 477
f 477 453 454
f 482 483 480
f 480 481 482
f 478 479 486
f 486 485 478
f 490 489 488
f 488 487 490
f 468 490 487
f 487 484 468
f 477 488 489
f 489 469 477
f 470 478 485
f 485 476 470
f 467 482 481
f 481 466 467
f 484 487 488
f 488 477 484
f 474 480 483
f 483 473 474
f 476 485 486
f 486 475 476
f 469 489 490
f 490 468 469
f 475 486 479
f 479 471 475
f 410 512 511
f 511 400 410
f 357 513 512
f 512 410 357
f 400 511 514
f 514 355 400
f 355 514 513
f 513 357 355
f 512 506 505
f 505 511 512
f 513 499 506
f 506 512 513
f 511 505 504
f 504 514 511
f 514 504 499
f 499 513 514
f 518 517 516
f 516 515 518
f 508 519 510
f 510 507 508
f 520 518 515
f 515 496 520
f 498 522 521
f 521 497 498
f 520 509 500
f 500 523 520
f 495 494 635
f 527 526 525
f 525 524 527
f 524 501 502
f 502 527 524
f 529 521 522
f 522 528 529
f 523 517 518
f 518 520 523
f 497 521 529
f 529 519 497
f 495 516 517
f 517 523 495
f 519 529 528
f 528 510 519
f 496 515 516
f 516 495 496
f 510 528 522
f 522 498 510
f 525 526 531
f 531 530 525
f 524 525 530
f 530 494 524
f 494 530 531
f 531 493 494
f 493 531 526
f 526 527 493
f 535 534 533
f 533 532 535
f 538 537 532
f 532 536 538
f 415 107 247
f 247 539 415
f 541 540 537
f 537 538 541
f 543 534 535
f 535 542 543
f 544 533 534
f 534 543 544
f 402 546 545
f 545 401 402
f 401 545 547
f 547 539 401
f 415 549 548
f 548 414 415
f 414 548 550
f 550 440 414
f 546 544 543
f 543 545 546
f 545 543 542
f 542 547 545
f 549 541 538
f 538 548 549
f 548 538 536
f 536 550 548
f 550 536 544
f 544 546 550
f 547 542 541
f 541 549 547
f 440 550 546
f 546 402 440
f 539 547 549
f 549 415 539
f 542 535 540
f 540 541 542
f 539 247 86
f 86 401 539
f 536 532 533
f 533 544 536
f 540 535 532
f 532 537 540
f 425 552 553
f 553 406 425
f 426 551 552
f 552 425 426
f 144 260 551
f 551 426 144
f 405 555 554
f 554 404 405
f 444 556 555
f 555 446 444
f 445 557 556
f 556 444 445
f 560 559 558
f 558 557 560
f 446 555 405
f 405 406 446
f 443 560 557
f 557 445 443
f 403 404 560
f 560 443 403
f 575 574 573
f 573 572 575
f 558 567 568
f 568 565 558
f 563 570 571
f 571 562 563
f 576 581 582
f 582 559 576
f 559 582 567
f 567 558 559
f 561 566 574
f 574 575 561
f 564 569 570
f 570 563 564
f 572 573 579
f 579 578 572
f 565 568 569
f 569 564 565
f 578 579 580
f 580 577 578
f 562 571 566
f 566 561 562
f 577 580 581
f 581 576 577
f 586 585 584
f 584 583 586
f 413 595 594
f 601 600 599
f 599 598 601
f 605 604 603
f 603 602 605
f 606 597 591
f 591 592 606
f 610 609 608
f 608 607 610
f 611 606 592
f 592 593 611
f 615 614 613
f 613 612 615
f 619 618 617
f 617 616 619
f 588 621 620
f 620 587 588
f 606 622 596
f 596 597 606
f 622 589 590
f 590 596 622
f 595 611 594
f 621 611 595
f 595 620 621
f 616 617 600
f 600 601 616
f 626 625 624
f 624 623 626
f 624 617 618
f 618 623 624
f 600 625 626
f 626 599 600
f 617 624 625
f 625 600 617
f 623 618 599
f 599 626 623
f 598 599 618
f 618 619 598
f 607 615 622
f 586 621 612
f 610 606 602
f 583 605 611
f 609 603 619
f 616 614 608
f 598 604 584
f 585 613 601
f 607 622 606
f 606 610 607
f 621 586 583
f 583 611 621
f 622 615 612
f 612 621 622
f 602 606 611
f 611 605 602
f 616 608 609
f 609 619 616
f 585 601 598
f 598 584 585
f 614 616 601
f 601 613 614
f 619 603 604
f 604 598 619
f 603 609 610
f 610 602 603
f 615 607 608
f 608 614 615
f 586 612 613
f 613 585 586
f 584 604 605
f 605 583 584
f 621 588 589
f 589 622 621
f 337 442 627
f 627 336 337
f 339 441 442
f 442 337 339
f 383 627 442
f 442 385 383
f 72 336 627
f 627 383 72
f 629 628 343
f 343 340 629
f 407 629 340
f 340 96 407
f 441 628 629
f 629 407 441
f 339 343 628
f 628 441 339
f 52 106 412
f 412 420 52
f 111 106 52
f 52 119 111
f 300 301 320
f 611 593 594