# https://github.com/mikedh/trimesh
v 0.02881418 -0.00049600 0.00146303
v 0.02907570 0.00263143 0.00689923
v 0.02906119 -0.00037384 0.00663151
v 0.02897711 0.00332740 0.00172874
v 0.02899778 0.00666111 0.00802245
v 0.02896537 0.00792187 0.00348734
v 0.02896044 -0.00337537 0.00706342
v 0.02855018 -0.00771701 0.00362120
v 0.02873009 -0.00406743 0.00203105
v 0.02881834 -0.00693219 0.00798966
v 0.02820628 -0.01193904 0.00660590
v 0.02852889 -0.01045739 0.01001913
v 0.02788134 -0.01513495 0.00993648
v 0.02827355 -0.01374965 0.01251960
v 0.02805337 -0.01644210 0.01542411
v 0.02771116 -0.01921051 0.01765640
v 0.02767444 -0.01767041 0.01388853
v 0.02790048 -0.01825746 0.01854963
v 0.02886154 0.01068892 0.00998163
v 0.02851532 0.01235919 0.00632022
v 0.02828435 0.01501052 0.00893073
v 0.02868010 0.01345173 0.01219302
v 0.02809858 0.01717302 0.01210881
v 0.02800277 0.01895541 0.01635170
v 0.02850822 0.01597580 0.01489631
v 0.02829021 0.01808494 0.01759710
v 0.02800277 0.01958681 0.01852897
v 0.02829021 0.01871668 0.01896536
v 0.02771116 -0.01990988 0.01964477
v 0.02790048 -0.01896482 0.02007040
v 0.02684698 0.00246066 0.00852847
v 0.02678326 -0.00034784 0.00830253
v 0.02651479 -0.00049958 0.00132334
v 0.02652282 -0.00412571 0.00168427
v 0.02683664 0.00635612 0.00942350
v 0.02663931 0.00335051 0.00154749
v 0.02674731 0.00793462 0.00344400
v 0.02667989 -0.00656636 0.00953759
v 0.02672062 -0.00319101 0.00865941
v 0.02648934 -0.00781573 0.00331665
v 0.02661169 -0.00997653 0.01128228
v 0.02639676 -0.01197336 0.00653673
v 0.02652359 -0.01320983 0.01355590
v 0.02624201 -0.01808857 0.01351075
v 0.02632301 -0.01536366 0.00962317
v 0.02624310 -0.01791016 0.01886587
v 0.02635341 -0.01588428 0.01613969
v 0.02624000 -0.01976902 0.01728581
v 0.02684328 0.01027417 0.01112147
v 0.02662820 0.01226743 0.00652033
v 0.02676135 0.01592007 0.01497941
v 0.02681397 0.01310222 0.01285020
v 0.02659873 0.01499659 0.00895116
v 0.02663838 0.01794204 0.01774826
v 0.02656386 0.01728159 0.01200639
v 0.02649258 0.01894063 0.01636091
v 0.02589177 0.01824738 0.01887463
v 0.02580568 0.01929881 0.01860399
v 0.02559291 -0.01895972 0.02008881
v 0.02555080 -0.01989544 0.01963647
v 0.02450518 -0.00037673 0.00747443
v 0.02461826 0.00270993 0.00733899
v 0.02431554 -0.00408783 0.00375484
v 0.02421541 -0.00056414 0.00369757
v 0.02467551 0.00666111 0.00802245
v 0.02430166 0.00311195 0.00437182
v 0.02452939 0.00749607 0.00549437
v 0.02454143 -0.00672862 0.00907357
v 0.02448095 -0.00366440 0.00758987
v 0.02442849 -0.00753674 0.00537689
v 0.02469433 -0.01029444 0.01050404
v 0.02458710 -0.01175349 0.00772822
v 0.02477348 -0.01360318 0.01278125
v 0.02476468 -0.01503437 0.01076165
v 0.02480943 -0.01773515 0.01426743
v 0.02466162 -0.01825746 0.01854963
v 0.02468106 -0.01612980 0.01561053
v 0.02476870 -0.01943004 0.01736308
v 0.02482517 0.01077388 0.00939386
v 0.02474124 0.01186320 0.00798674
v 0.02494783 0.01358087 0.01069001
v 0.02501448 0.01619788 0.01414996
v 0.02491296 0.01410454 0.01011347
v 0.02491450 0.01813201 0.01700821
v 0.02493224 0.01652972 0.01338924
v 0.02488550 0.01885177 0.01642133
v 0.02491682 0.01724013 0.01909811
v 0.02487284 0.01992732 0.01855839
v 0.02496202 0.01974144 0.02525504
v 0.02492823 0.01750503 0.02534195
v 0.02575939 0.01923288 0.02488579
v 0.02589177 0.01812063 0.02481662
v 0.02467597 -0.01820615 0.02003378
v 0.02467473 -0.02055131 0.01987409
v 0.02481791 -0.01796793 0.02709226
v 0.02566851 -0.01973826 0.02649191
v 0.02571851 -0.01874902 0.02662262
v 0.02476932 -0.02068435 0.02713561
v 0.02695498 0.00039876 0.01742483
v 0.02597864 0.00168025 0.01550744
v 0.02597864 0.00062084 0.01793311
v 0.02695498 0.00123627 0.01550744
v 0.02597864 -0.00149816 0.01793311
v 0.02695498 -0.00127626 0.01742483
v 0.02597864 -0.00255757 0.01550744
v 0.02695498 -0.00211359 0.01550744
v 0.02695498 -0.00127626 0.01358981
v 0.02597864 -0.00149816 0.01308177
v 0.02597864 0.00062084 0.01308177
v 0.02695498 0.00039876 0.01358981
v 0.02695498 -0.00043875 0.01550744
v 0.02523249 0.00931144 0.01007663
v 0.02521521 0.00938347 0.02726205
v 0.02533340 0.00371566 0.02746486
v 0.02503099 0.00334609 0.01004564
v 0.02503855 -0.00426929 0.02782871
v 0.02513760 -0.01001340 0.01068148
v 0.02503670 -0.00426929 0.01004564
v 0.02517047 -0.01002665 0.02788487
v 0.02606381 0.00318925 0.02601530
v 0.02604282 -0.00387407 0.01104892
v 0.02594192 0.00304942 0.01094538
v 0.02616378 -0.00398248 0.02664351
v 0.02468801 0.00367250 0.02786510
v 0.02470667 0.00969645 0.02765285
v 0.02470112 0.00958074 0.00975703
v 0.02460561 -0.00426929 0.00969459
v 0.02467134 -0.01041219 0.01023116
v 0.02479431 -0.01026420 0.02826983
v 0.02472071 -0.00433351 0.02826264
v 0.02459296 0.00335951 0.00947695
v 0.02645524 0.00191660 0.03671138
v 0.02825519 -0.00047324 0.03015331
v 0.02819686 0.00169232 0.02980226
v 0.02660367 -0.00036653 0.03690296
v 0.02654041 -0.00260821 0.03693149
v 0.02827246 -0.00284795 0.02988829
v 0.02900333 -0.00050417 0.02677040
v 0.02894749 -0.00374443 0.02649639
v 0.02891832 0.00241224 0.02644496
v 0.02953131 -0.00309688 0.02383019
v 0.02970891 -0.00043076 0.02231773
v 0.02945633 0.00174805 0.02362243
v 0.02572838 -0.00038097 0.03727153
v 0.02572144 0.00230468 0.03697125
v 0.02661400 -0.00323366 0.03120893
v 0.02681319 -0.00329636 0.02968413
v 0.02632657 0.00219611 0.03106114
v 0.02583283 -0.00298780 0.03718910
v 0.02746136 0.00272387 0.02614378
v 0.02647638 0.00216909 0.02959744
v 0.02768786 -0.00394493 0.02656108
v 0.02818729 0.00211336 0.02347980
v 0.02876959 -0.00337622 0.02349441
v 0.02894717 -0.00042787 0.02192963
v 0.02555373 0.00556755 0.03250711
v 0.02543508 0.00628866 0.03560568
v 0.02546810 -0.00538851 0.03165476
v 0.02544757 -0.00696498 0.03313532
v 0.02531720 -0.00032864 0.03961298
v 0.02538230 0.00425683 0.03848145
v 0.02526583 -0.00512396 0.03896366
v 0.02538756 -0.00713982 0.03631721
v 0.02543739 0.00429047 0.03115458
v 0.02519068 0.00197369 0.03019532
v 0.02516137 0.00448010 0.03046125
v 0.02513082 0.00615307 0.03167048
v 0.02544125 -0.00271509 0.03003046
v 0.02501448 -0.00562231 0.03100140
v 0.02480480 -0.00772925 0.03658291
v 0.02501371 -0.00739893 0.03272138
v 0.02466903 0.00474465 0.03952854
v 0.02495662 0.00694436 0.03591315
v 0.02453557 -0.00032695 0.04024433
v 0.02478567 -0.00536337 0.03962960
v 0.02580676 0.00195840 0.02686743
v 0.02607198 -0.00323332 0.02663272
v 0.02629447 0.00143421 0.02474609
v 0.02643673 -0.00236201 0.02483818
v 0.02652559 -0.00041666 0.02308788
v -0.00177223 -0.00805905 0.00026278
v -0.00799921 -0.00805905 0.00017720
v -0.00177223 0.00005758 0.00022325
v -0.00799921 0.00005758 0.00006872
v -0.00799921 -0.00805905 0.04020301
v -0.00177223 -0.00805905 0.04003837
v -0.00799921 0.00005758 0.04000536
v -0.00177223 0.00005758 0.03985645
v 0.02467952 -0.00805905 0.01924903
v 0.02461750 0.00005758 0.01116594
v 0.02466008 0.00005758 0.01924903
v 0.02473183 -0.00805905 0.01116594
v -0.00799921 0.04237280 0.01924903
v -0.00177223 0.04231775 0.01924903
v -0.00799921 0.04227102 0.01116594
v -0.00177223 0.04232251 0.01116594
v -0.03480598 0.00817420 0.01116594
v -0.03488451 0.00005758 0.01924903
v -0.03487263 0.00817420 0.01924903
v -0.03478823 0.00005758 0.01116594
v -0.00177223 -0.04192259 0.01924903
v -0.00799921 -0.04195402 0.01924903
v -0.00177223 -0.04178835 0.01116594
v -0.00799921 -0.04182794 0.01116594
v 0.02332007 -0.04058230 0.00174580
v 0.02252687 -0.03978676 0.00115017
v 0.02367139 -0.03937778 0.00153198
v 0.02228972 -0.04101847 0.00131076
v 0.02314727 -0.04114404 0.00218221
v 0.02227384 -0.04153858 0.00167124
v 0.02371104 -0.04033457 0.00204991
v 0.02399262 -0.03938373 0.00187742
v 0.02350923 -0.04083038 0.00231359
v -0.03208384 -0.04100794 0.00181992
v -0.03312870 -0.04080370 0.00203734
v -0.03236666 -0.03993799 0.00119689
v -0.03340858 -0.03983995 0.00165552
v -0.03346505 -0.04074678 0.00226059
v -0.03371546 -0.03992932 0.00187203
v -0.03202692 -0.04128608 0.00202521
v -0.03306590 -0.04112841 0.00226980
v -0.03334439 -0.04102068 0.00243668
v -0.03252126 0.04148823 0.00089547
v -0.03284434 0.04055930 0.00039013
v -0.03340688 0.04116165 0.00142486
v -0.03367102 0.04012330 0.00088043
v -0.03242760 0.04186102 0.00149583
v -0.03329378 0.04158338 0.00183250
v -0.03411445 0.04004651 0.00135231
v -0.03379693 0.04104577 0.00179701
v -0.03362751 0.04142264 0.00203958
v 0.02372385 0.04127584 0.00124921
v 0.02391193 0.04036527 0.00082248
v 0.02312520 0.04062914 0.00021246
v 0.02291536 0.04154498 0.00065335
v 0.02430105 0.04032687 0.00141003
v 0.02406946 0.04116301 0.00170538
v 0.02362557 0.04173562 0.00163508
v 0.02265447 0.04214290 0.00111153
v 0.02394819 0.04153972 0.00189359
v 0.02274457 -0.04146925 0.04157417
v 0.02379298 -0.04122696 0.04101043
v 0.02288529 -0.04019167 0.04208514
v 0.02402379 -0.03987104 0.04166043
v 0.02426186 -0.04109018 0.04056752
v 0.02457738 -0.03976467 0.04101043
v 0.02270940 -0.04200499 0.04087028
v 0.02367663 -0.04176286 0.04056393
v 0.02409182 -0.04157596 0.04032047
v 0.02128916 0.04074519 0.04115485
v 0.02179368 0.03923755 0.04135228
v 0.02268378 0.04060688 0.04105693
v 0.02324848 0.03899559 0.04117350
v 0.02090003 0.04198455 0.04068341
v 0.02230130 0.04176110 0.04053878
v 0.02391795 0.03912081 0.04051250
v 0.02362973 0.04056356 0.04045231
v 0.02324678 0.04160717 0.04026880
v -0.03330304 0.04102946 0.04081997
v -0.03358339 0.03910620 0.04147536
v -0.03215713 0.03984771 0.04180754
v -0.03183559 0.04125086 0.04108613
v -0.03387268 0.04093397 0.04036763
v -0.03425069 0.03906424 0.04087186
v -0.03321572 0.04167598 0.04033462
v -0.03181646 0.04183995 0.04058774
v -0.03367535 0.04147684 0.04005476
v -0.03361517 -0.04129628 0.04119707
v -0.03261213 -0.04010179 0.04249212
v -0.03382424 -0.03994428 0.04172983
v -0.03244179 -0.04157307 0.04203618
v -0.03348849 -0.04187755 0.04071868
v -0.03238009 -0.04230302 0.04127389
v -0.03429328 -0.03990247 0.04088400
v -0.03407804 -0.04113147 0.04062188
v -0.03391835 -0.04163645 0.04039818
v 0.02425136 -0.04104226 0.00435676
v 0.02397735 -0.04051995 0.00267947
v 0.02459142 -0.03961634 0.00396237
v 0.02428685 -0.03935382 0.00243173
v 0.02399093 -0.04149644 0.00447221
v 0.02369685 -0.04114999 0.00287599
v 0.02452384 0.04139851 0.00352777
v 0.02469510 0.04040043 0.00331912
v 0.02424889 0.04125171 0.00228753
v 0.02451720 0.04038786 0.00206294
v 0.02406637 0.04167377 0.00240478
v 0.02429997 0.04187784 0.00345074
v 0.02419119 0.04071698 0.03918355
v 0.02437372 0.03931095 0.03953234
v 0.02457167 0.03942020 0.03755565
v 0.02449066 0.04105631 0.03732499
v 0.02363159 0.04182058 0.03905103
v 0.02397580 0.04208480 0.03728770
v 0.02455593 -0.04120368 0.03986812
v 0.02515211 -0.03999780 0.03849110
v 0.02493981 -0.03976604 0.04014865
v 0.02491558 -0.04141879 0.03832289
v 0.02422823 -0.04172480 0.03969136
v 0.02445410 -0.04197882 0.03830828
v 0.02394278 0.04234476 0.00350284
v 0.02373064 0.04201734 0.00224351
v 0.02296859 0.04278161 0.00331306
v 0.02274657 0.04250228 0.00191807
v -0.03358370 0.04209890 0.00360032
v -0.03276889 0.04229837 0.00326679
v -0.03338281 0.04182245 0.00239377
v -0.03246787 0.04208480 0.00211685
v -0.03376777 0.04157947 0.00252359
v -0.03398037 0.04182568 0.00366029
v -0.03327141 0.04200443 0.03953325
v -0.03181461 0.04234561 0.03990114
v -0.03209264 0.04248086 0.03800305
v -0.03347755 0.04237926 0.03748175
v -0.03382238 0.04166052 0.03939041
v -0.03412541 0.04201564 0.03745683
v 0.02246253 0.04233678 0.03903935
v 0.02153077 0.04287677 0.03718507
v 0.02099570 0.04261816 0.03936390
v 0.02295734 0.04280217 0.03702583
v -0.03426705 0.04139783 0.00361650
v -0.03401987 0.04114246 0.00238726
v -0.03452826 0.04045838 0.00326971
v -0.03435607 0.04009358 0.00204048
v -0.03407171 -0.04120928 0.00383121
v -0.03440390 -0.04013390 0.00344894
v -0.03370867 -0.04083582 0.00267947
v -0.03393872 -0.03994121 0.00225946
v -0.03350670 -0.04119535 0.00281108
v -0.03383797 -0.04157596 0.00391790
v -0.03428201 -0.04121541 0.03985869
v -0.03446932 -0.03990044 0.04000917
v -0.03456436 -0.04001581 0.03847448
v -0.03449524 -0.04133944 0.03832086
v -0.03405258 -0.04178971 0.03973157
v -0.03425995 -0.04200262 0.03829188
v -0.03419067 0.04103269 0.03956537
v -0.03477620 0.03943379 0.03789120
v -0.03458859 0.03909736 0.03994270
v -0.03456822 0.04134006 0.03753364
v -0.03350871 -0.04182114 0.00387276
v -0.03320260 -0.04141760 0.00260625
v -0.03262571 -0.04208367 0.00341211
v -0.03214186 -0.04157953 0.00227115
v 0.02367432 -0.04184409 0.00436845
v 0.02241902 -0.04222622 0.00387590
v 0.02324678 -0.04150953 0.00278187
v 0.02225115 -0.04184799 0.00217502
v 0.02375903 -0.04200975 0.03984410
v 0.02273624 -0.04231951 0.04006217
v 0.02286029 -0.04248279 0.03860834
v 0.02390530 -0.04232222 0.03839206
v -0.03358956 -0.04220447 0.03993551
v -0.03248222 -0.04291658 0.03844282
v -0.03236681 -0.04272067 0.04022411
v -0.03373752 -0.04251559 0.03829796
v -0.00176976 -0.04098466 0.00173840
v -0.00799921 -0.04044025 0.00159264
v -0.00177223 -0.04043940 0.00161015
v -0.00800306 -0.04097956 0.00175412
v -0.00177300 -0.04140520 0.00200072
v -0.00800400 -0.04138769 0.00199624
v -0.03363631 0.00005758 0.00100104
v -0.03287520 0.00817420 0.00066256
v -0.03287165 0.00005758 0.00073736
v -0.03363878 0.00817420 0.00099048
v -0.03405983 0.00005758 0.00140486
v -0.03407881 0.00817420 0.00137724
v -0.00177223 0.04062388 0.00031714
v -0.00799921 0.04149961 0.00079215
v -0.00177223 0.04150793 0.00076050
v -0.00799921 0.04061878 0.00041438
v -0.00177223 0.04190010 0.00141811
v -0.00799921 0.04190061 0.00141721
v 0.02381704 -0.00805905 0.00119644
v 0.02309959 0.00005758 0.00074702
v 0.02385392 0.00005758 0.00104528
v 0.02309511 -0.00805905 0.00083775
v 0.02418316 0.00005758 0.00155781
v 0.02411003 -0.00805905 0.00166450
v 0.02386086 0.00005758 0.04099897
v 0.02382722 0.00817420 0.04094350
v 0.02308988 0.00005758 0.04106883
v 0.02287217 0.00817402 0.04096640
v 0.02433236 0.00005758 0.04067511
v 0.02429164 0.00817420 0.04061424
v -0.00796526 0.04021251 0.04085748
v -0.00177207 0.04133191 0.04072924
v -0.00799921 0.04136539 0.04072451
v -0.00177223 0.04023868 0.04078314
v -0.00177223 0.04177522 0.04043322
v -0.00799921 0.04177895 0.04043793
v -0.03361903 0.00005758 0.04094396
v -0.03288893 -0.00805905 0.04163279
v -0.03288769 0.00005758 0.04160698
v -0.03367519 -0.00805905 0.04117439
v -0.03376946 0.00005758 0.04018818
v -0.03391681 -0.00805905 0.04040267
v -0.00799921 -0.04152447 0.04174510
v -0.00177223 -0.04152260 0.04173792
v -0.00799921 -0.04051230 0.04176239
v -0.00177223 -0.04051162 0.04174824
v -0.00799921 -0.04221501 0.04116631
v -0.00177223 -0.04216930 0.04110567
v 0.02430043 0.00005758 0.00215862
v 0.02431138 0.00817420 0.00215301
v 0.02442031 0.00005758 0.00308239
v 0.02444237 0.00817420 0.00316617
v 0.02419535 0.00817420 0.00154007
v 0.02485587 0.04060994 0.03148002
v 0.02477425 0.04152493 0.03145689
v 0.02447308 0.04211283 0.03144903
v 0.02465746 0.00005758 0.04004175
v 0.02469263 -0.00805905 0.03887561
v 0.02473353 0.00005758 0.03878061
v 0.02460299 -0.00805905 0.04001345
v 0.02435844 -0.00805905 0.04071284
v 0.02441275 -0.04126859 0.01924903
v 0.02475019 -0.04048647 0.01116594
v 0.02457445 -0.04047288 0.01924903
v 0.02458278 -0.04133502 0.01116594
v 0.02413102 -0.04162167 0.01924903
v 0.02429812 -0.04180568 0.01116594
v -0.00177223 0.04206339 0.00209303
v -0.00799921 0.04203552 0.00210606
v -0.00177223 0.04222005 0.00315292
v -0.00799921 0.04218861 0.00315584
v -0.03288908 0.04252555 0.03137401
v -0.03372086 0.04246065 0.03135335
v -0.03433169 0.04221461 0.03137738
v -0.00177223 0.04208887 0.03988093
v -0.00799458 0.04227289 0.03873838
v -0.00799921 0.04206253 0.03992248
v -0.00177238 0.04233542 0.03843293
v 0.02397025 0.04254289 0.01924903
v 0.02312613 0.04282018 0.01116594
v 0.02311795 0.04269342 0.01924903
v 0.02402070 0.04269937 0.01116594
v 0.02450146 0.04214461 0.01924903
v 0.02453433 0.04218097 0.01116594
v -0.03433355 0.00005758 0.00202364
v -0.03430639 -0.00805905 0.00203756
v -0.03448459 0.00005758 0.00313810
v -0.03441316 -0.00805905 0.00314551
v -0.03402543 -0.00805905 0.00145496
v -0.03480181 -0.04050856 0.03149957
v -0.03473500 -0.04148370 0.03150721
v -0.03446438 -0.04224083 0.03153214
v -0.03379276 0.00005758 0.03971270
v -0.03410319 0.00817420 0.03883812
v -0.03376900 0.00005758 0.03880375
v -0.03398623 0.00817420 0.03981287
v -0.03391141 0.00817420 0.04039482
v -0.03440004 0.04146801 0.01924903
v -0.03469644 0.04061521 0.01116594
v -0.03461297 0.04060876 0.01924903
v -0.03456467 0.04153223 0.01116594
v -0.03401956 0.04186561 0.01924903
v -0.03420040 0.04206458 0.01116594
v -0.00800584 -0.04171682 0.00251551
v -0.00177609 -0.04175165 0.00248900
v -0.00799921 -0.04189438 0.00317269
v -0.00177223 -0.04192599 0.00316977
v 0.02313029 -0.04283401 0.03159906
v 0.02405495 -0.04271846 0.03175471
v 0.02480434 -0.04237150 0.03181085
v -0.00177223 -0.04236147 0.04011675
v -0.00799921 -0.04259918 0.03890931
v -0.00177223 -0.04247497 0.03889762
v -0.00799921 -0.04244167 0.04015448
v -0.03364063 -0.04211425 0.01924903
v -0.03286841 -0.04225137 0.01116594
v -0.03287412 -0.04233837 0.01924903
v -0.03367612 -0.04222401 0.01116594
v -0.03414284 -0.04188623 0.01924903
v -0.03423850 -0.04199157 0.01116594
v 0.02472967 0.00817335 0.03865933
v 0.02511061 0.00005758 0.03154605
v 0.02512727 0.00817691 0.03155234
v -0.00797699 0.04323953 0.03133987
v -0.00175356 0.04323172 0.03138928
v -0.03410966 -0.00805905 0.03883879
v -0.03520621 -0.00805905 0.03149957
v -0.03520559 0.00005758 0.03149957
v -0.00798748 -0.04356667 0.03160916
v -0.00176282 -0.04343074 0.03164825
v 0.02495601 0.04061792 0.03019532
v 0.02486452 0.04156010 0.03017442
v 0.02453294 0.04217723 0.03017173
v 0.02548661 -0.04054152 0.03162152
v 0.02528727 -0.04160875 0.03177245
v -0.03289156 0.04253779 0.03002215
v -0.03373151 0.04251213 0.02998711
v -0.03434897 0.04226066 0.03001003
v 0.02312227 0.04275205 0.03147328
v 0.02397334 0.04255002 0.03145263
v -0.03481385 -0.04050924 0.03022362
v -0.03473485 -0.04148692 0.03021599
v -0.03446223 -0.04223165 0.03018835
v -0.03510731 0.04064784 0.03149418
v -0.03485427 0.04165033 0.03143510
v 0.02403428 -0.04266477 0.03030245
v 0.02311533 -0.04272322 0.03018139
v 0.02468245 -0.04227754 0.03015399
v -0.03290698 -0.04295006 0.03161635
v -0.03384923 -0.04277215 0.03157953
v 0.02514270 0.00005758 0.03018813
v 0.02515226 0.00817878 0.03021171
v -0.00171607 0.04332823 0.02986785
v -0.00795786 0.04342644 0.02982540
v -0.03480104 0.00005587 0.03025483
v -0.03510221 -0.00805905 0.03022384
v -0.00795554 -0.04290281 0.03020385
v -0.00174739 -0.04279373 0.03016320
v 0.02517556 -0.04165209 0.03011738
v 0.02543045 -0.04057891 0.03007763
v 0.02394263 0.04246557 0.03017016
v 0.02311703 0.04273999 0.03018858
v -0.03514032 0.04067077 0.03002912
v -0.03489099 0.04170028 0.03001518
v -0.03291115 -0.04292864 0.03014838
v -0.03385355 -0.04275210 0.03017062
v 0.02500090 0.04062133 0.02928996
v 0.02485279 0.04155552 0.02926458
v 0.02450332 0.04214613 0.02925986
v -0.03366470 0.04226236 0.02917137
v -0.03288183 0.04235683 0.02917834
v -0.03413004 0.04197826 0.02920125
v -0.03455125 -0.04141081 0.02932949
v -0.03482882 -0.04051025 0.02931444
v -0.03418204 -0.04193108 0.02936902
v 0.02387166 -0.04212427 0.02956756
v 0.02308046 -0.04214008 0.02948222
v 0.02417160 -0.04168283 0.02957901
v 0.02473923 0.00005758 0.02818089
v 0.02469726 0.00817318 0.02817280
v 0.02465637 0.00005758 0.02936250
v 0.02469741 0.00817777 0.02938048
v -0.00176575 0.04194734 0.02809847
v -0.00794999 0.04276326 0.02926054
v -0.00171530 0.04286266 0.02916508
v -0.00799320 0.04203178 0.02813911
v -0.03464104 0.00005758 0.02815888
v -0.03503325 -0.00805888 0.02931332
v -0.03468347 0.00005740 0.02931557
v -0.03494145 -0.00806007 0.02816067
v -0.00796048 -0.04179481 0.02850679
v -0.00175032 -0.04199361 0.02954488
v -0.00795817 -0.04211849 0.02956711
v -0.00175449 -0.04182471 0.02841290
v 0.02446320 -0.04132381 0.02959923
v 0.02432589 -0.04123936 0.02842120
v 0.02468878 -0.04048103 0.02955318
v 0.02471778 -0.04048613 0.02831206
v 0.02405774 -0.04154929 0.02842323
v 0.02395328 0.04248783 0.02926121
v 0.02312644 0.04281560 0.02814113
v 0.02312922 0.04284040 0.02927985
v 0.02398167 0.04257703 0.02812518
v 0.02456842 0.04221766 0.02812249
v -0.03430855 0.04142638 0.02814945
v -0.03457655 0.04060484 0.02931175
v -0.03448012 0.04150335 0.02922393
v -0.03459553 0.04060688 0.02815933
v -0.03400305 0.04184793 0.02813102
v -0.03361702 -0.04204764 0.02822043
v -0.03287011 -0.04239885 0.02942876
v -0.03366439 -0.04220346 0.02940765
v -0.03286285 -0.04224474 0.02824670
v -0.03410951 -0.04184578 0.02818718
v 0.02487948 0.04061181 0.01924903
v 0.02491820 0.04061470 0.01116594
v 0.02477302 0.04152442 0.01924903
v 0.02480912 0.04153852 0.01116594
v -0.03285884 0.04221665 0.01924903
v -0.03288076 0.04255580 0.01116594
v -0.03358709 0.04206322 0.01924903
v -0.03370096 0.04241630 0.01116594
v -0.03481694 -0.04050958 0.01924903
v -0.03482079 -0.04050991 0.01116594
v -0.03458920 -0.04142695 0.01924903
v -0.03463749 -0.04144581 0.01116594
v 0.02307737 -0.04195011 0.01924903
v 0.02310052 -0.04230676 0.01116594
v 0.02377106 -0.04181010 0.01924903
v 0.02386009 -0.04208638 0.01116594
v 0.02498903 0.04062047 0.02814877
v 0.02480511 0.04153751 0.02812968
v -0.03358339 0.04204996 0.02813305
v -0.03285915 0.04218487 0.02813597
v -0.03455927 -0.04141404 0.02816000
v -0.03488992 -0.04051433 0.02815911
v 0.02378741 -0.04186668 0.02839560
v 0.02306873 -0.04189625 0.02827230
v -0.00177223 0.03252407 0.00021449
v -0.00799921 0.03252407 0.00021000
v -0.00799921 0.02440745 0.00006469
v -0.00177223 0.02440745 0.00022617
v -0.00177223 0.01629082 0.00016396
v -0.00799921 0.01629082 0.00008916
v -0.00177223 0.00817420 0.00015026
v -0.00799921 0.00817420 0.00006603
v -0.00799921 -0.03240893 0.00104731
v -0.00177223 -0.03240893 0.00110390
v -0.00177223 -0.02429231 0.00083910
v -0.00799921 -0.02429231 0.00081305
v -0.00799921 -0.01617568 0.00046245
v -0.00177223 -0.01617568 0.00057812
v -0.00799921 0.03252407 0.04044444
v -0.00177223 0.03252407 0.04026993
v -0.00799921 0.02440745 0.04016414
v -0.00177223 0.02440745 0.04001614
v -0.00799921 0.01629082 0.03996942
v -0.00177223 0.01629082 0.03991821
v -0.00799921 0.00817420 0.03991978
v -0.00177223 0.00817420 0.03980861
v -0.00799921 -0.03240893 0.04108950
v -0.00177223 -0.03240893 0.04108769
v -0.00799921 -0.02429231 0.04067871
v -0.00177223 -0.02429231 0.04070790
v -0.00799921 -0.01617568 0.04039952
v -0.00177223 -0.01617568 0.04033822
v 0.02499581 0.03252407 0.01924903
v 0.02491682 0.03252407 0.01116594
v 0.02481915 0.02440745 0.01924903
v 0.02487253 0.02440745 0.01116594
v 0.02492298 0.01629082 0.01924903
v 0.02496850 0.01629082 0.01116594
v 0.02479770 0.00817420 0.01924903
v 0.02470529 0.00817420 0.01116594
v 0.02479153 -0.03240893 0.01116594
v 0.02475527 -0.03240893 0.01924903
v 0.02480650 -0.02429231 0.01116594
v 0.02466718 -0.02429231 0.01924903
v 0.02475296 -0.01617568 0.01116594
v 0.02466224 -0.01617568 0.01924903
v -0.03499807 -0.03240893 0.01924903
v -0.03488035 -0.03240893 0.01116594
v -0.03518229 -0.02429231 0.01924903
v -0.03492170 -0.02429231 0.01116594
v -0.03512598 -0.01617568 0.01924903
v -0.03487695 -0.01617568 0.01116594
v -0.03498851 -0.00805905 0.01924903
v -0.03480753 -0.00805905 0.01116594
v -0.03476617 0.03252407 0.01116594
v -0.03485273 0.03252407 0.01924903
v -0.03482928 0.02440745 0.01116594
v -0.03491352 0.02440745 0.01924903
v -0.03486137 0.01629082 0.01924903
v -0.03480737 0.01629082 0.01116594
v -0.03284619 -0.03240893 0.00125888
v -0.03353942 -0.03240893 0.00139791
v -0.03285206 -0.02429231 0.00113894
v -0.03356719 -0.02429231 0.00128426
v -0.03286101 -0.01617568 0.00095567
v -0.03359434 -0.01617568 0.00117263
v -0.03287011 -0.00805905 0.00076903
v -0.03362258 -0.00805905 0.00105696
v -0.03288877 0.03252407 0.00038586
v -0.03371639 0.03252407 0.00067245
v -0.03369309 0.02440745 0.00076790
v -0.03288260 0.02440745 0.00051187
v -0.03367396 0.01629082 0.00084652
v -0.03288029 0.01629082 0.00056037
v -0.03389227 -0.03240893 0.00164901
v -0.03395353 -0.02429231 0.00155962
v -0.03397051 -0.01617568 0.00153491
v -0.03422585 0.03252407 0.00116320
v -0.03420487 0.02440745 0.00119396
v -0.03412047 0.01629082 0.00131660
v 0.02312150 0.03252407 0.00029803
v 0.02396824 0.03252407 0.00057654
v 0.02394464 0.02440745 0.00067335
v 0.02311316 0.02440745 0.00046761
v 0.02388770 0.01629082 0.00090671
v 0.02310808 0.01629082 0.00057250
v 0.02386287 0.00817420 0.00100845
v 0.02310406 0.00817420 0.00065403
v 0.02307444 -0.03240893 0.00126157
v 0.02373865 -0.03240893 0.00151739
v 0.02308154 -0.02429231 0.00111648
v 0.02376319 -0.02429231 0.00141677
v 0.02308771 -0.01617568 0.00098913
v 0.02379049 -0.01617568 0.00130492
v 0.02441352 0.03252407 0.00122271
v 0.02434564 0.02440745 0.00132153
v 0.02426062 0.01629082 0.00144507
v 0.02402625 -0.03240893 0.00178623
v 0.02400759 -0.02429231 0.00181341
v 0.02404292 -0.01617568 0.00176197
v 0.02311055 -0.03240893 0.04149400
v 0.02394387 -0.03240893 0.04133969
v 0.02393322 -0.02429231 0.04129612
v 0.02310654 -0.02429231 0.04140976
v 0.02391749 -0.01617568 0.04123143
v 0.02310036 -0.01617568 0.04128624
v 0.02388662 -0.00805905 0.04110476
v 0.02309666 -0.00805905 0.04120942
v 0.02270924 0.03240309 0.04092756
v 0.02372030 0.03235313 0.04075529
v 0.02271587 0.02439946 0.04094193
v 0.02377477 0.02439538 0.04082222
v 0.02285088 0.01629048 0.04091768
v 0.02381241 0.01629031 0.04089926
v 0.02442679 -0.03240893 0.04081256
v 0.02440550 -0.02429231 0.04078156
v 0.02436061 -0.01617568 0.04071620
v 0.02409954 0.03235450 0.04035932
v 0.02422761 0.02439538 0.04051789
v 0.02424782 0.01629031 0.04055495
v -0.03271921 0.03248873 0.04180349
v -0.03372209 0.03246783 0.04143987
v -0.03286362 0.02440711 0.04188165
v -0.03374015 0.02440677 0.04144953
v -0.03367164 0.01629014 0.04128445
v -0.03256986 0.01628998 0.04184954
v -0.03289109 0.00817420 0.04167817
v -0.03367365 0.00817420 0.04116855
v -0.03290281 -0.03240893 0.04191625
v -0.03373181 -0.03240893 0.04140662
v -0.03289927 -0.02429231 0.04184573
v -0.03373768 -0.02429231 0.04143089
v -0.03368321 -0.01617568 0.04120741
v -0.03288893 -0.01617568 0.04163370
v -0.03414577 0.03246732 0.04074317
v -0.03407403 0.02440694 0.04063311
v -0.03391974 0.01629082 0.04044333
v -0.03401339 -0.03240893 0.04054327
v -0.03406184 -0.02429231 0.04061380
v -0.03397343 -0.01617568 0.04048511
v 0.02440534 -0.03240893 0.00316999
v 0.02422483 -0.03240893 0.00219770
v 0.02417391 -0.02429231 0.00222397
v 0.02433391 -0.02429231 0.00317740
v 0.02434455 -0.01617568 0.00317628
v 0.02418888 -0.01617568 0.00221634
v 0.02433391 -0.00805905 0.00317740
v 0.02422945 -0.00805905 0.00219545
v 0.02469942 0.03252407 0.00313966
v 0.02457353 0.03252407 0.00201757
v 0.02452338 0.02440745 0.00204340
v 0.02460716 0.02440745 0.00314910
v 0.02440519 0.01629082 0.00210449
v 0.02455856 0.01629082 0.00315427
v 0.02450039 0.03241974 0.03833546
v 0.02432373 0.03236775 0.03978277
v 0.02474756 0.02440150 0.03852300
v 0.02462768 0.02439725 0.03998133
v 0.02458478 0.01629082 0.03858455
v 0.02447678 0.01629031 0.03991597
v 0.02461765 0.00817454 0.03999839
v 0.02484507 -0.03240893 0.03889133
v 0.02469665 -0.03240893 0.04006195
v 0.02463662 -0.02429231 0.04003096
v 0.02481576 -0.02429231 0.03888819
v 0.02458587 -0.01617568 0.04000468
v 0.02469711 -0.01617568 0.03887607
v -0.03453782 0.03252407 0.00313270
v -0.03446223 0.03252407 0.00195715
v -0.03445081 0.02440745 0.00196299
v -0.03454261 0.02440745 0.00313226
v -0.03438230 0.01629082 0.00199848
v -0.03447966 0.01629082 0.00313878
v -0.03435114 0.00817420 0.00201443
v -0.03446994 0.00817420 0.00313967
v -0.03451190 -0.03240893 0.00313541
v -0.03422353 -0.03240893 0.00208047
v -0.03444263 -0.02429231 0.00314259
v -0.03425177 -0.02429231 0.00206586
v -0.03444633 -0.01617568 0.00314215
v -0.03425115 -0.01617568 0.00206609
v -0.03426720 -0.03240893 0.03885519
v -0.03414021 -0.03240893 0.03989238
v -0.03427291 -0.02429231 0.03885587
v -0.03416090 -0.02429231 0.03990316
v -0.03409640 -0.01617568 0.03986970
v -0.03421505 -0.01617568 0.03884979
v -0.03401215 -0.00805905 0.03982613
v -0.03447780 0.03250283 0.03874356
v -0.03432444 0.03247718 0.03996853
v -0.03414886 0.02440745 0.03883026
v -0.03412896 0.02440711 0.03988452
v -0.03400105 0.01629082 0.03978368
v -0.03412587 0.01629082 0.03852142
v 0.02566543 -0.03240196 0.03164286
v 0.02574458 -0.02425339 0.03165229
v 0.02558921 -0.01617415 0.03174842
v 0.02508361 -0.00805905 0.03154718
v 0.02527385 0.03252390 0.03153325
v 0.02539357 0.02440728 0.03156896
v 0.02542057 0.01628402 0.03157031
v -0.03560859 0.03252407 0.03149957
v -0.03537469 0.02440745 0.03149957
v -0.03490673 0.01629082 0.03149957
v -0.03494778 0.00817420 0.03149957
v -0.03502584 -0.03240893 0.03149957
v -0.03577322 -0.02429231 0.03149957
v -0.03529986 -0.01617568 0.03149957
v 0.02560942 -0.03240740 0.03009088
v 0.02576819 -0.02424116 0.02999991
v 0.02576403 -0.01614798 0.03016612
v 0.02512758 -0.00805973 0.03014275
v 0.02524128 0.03252713 0.03029235
v 0.02557270 0.02440982 0.03027774
v 0.02561837 0.01626703 0.03019149
v -0.03504081 0.03252136 0.03028021
v -0.03512351 0.02440897 0.03024676
v -0.03475506 0.01629405 0.03023956
v -0.03480891 0.00817402 0.03023597
v -0.03510145 -0.03241114 0.03022047
v -0.03541064 -0.02429111 0.03024832
v -0.03526314 -0.01617398 0.03021081
v 0.02485309 -0.03240196 0.02831206
v 0.02491466 -0.03239975 0.02949973
v 0.02481468 -0.02425526 0.02830240
v 0.02493426 -0.02424218 0.02950624
v 0.02484276 -0.01616990 0.02848792
v 0.02490293 -0.01616786 0.02967716
v 0.02463786 -0.00805871 0.02936093
v 0.02478490 -0.00806211 0.02819706
v 0.02513005 0.03252407 0.02821121
v 0.02502297 0.03252390 0.02940068
v 0.02503083 0.02440728 0.02822536
v 0.02517988 0.02440762 0.02943886
v 0.02491805 0.01628743 0.02819458
v 0.02505537 0.01627875 0.02941169
v -0.03485288 0.03252407 0.02815911
v -0.03483853 0.03252407 0.02931466
v -0.03493373 0.02440728 0.02816045
v -0.03506673 0.02440745 0.02931399
v -0.03486445 0.01629099 0.02815933
v -0.03487664 0.01629065 0.02931399
v -0.03483992 0.00817436 0.02815888
v -0.03482897 0.00817420 0.02931421
v -0.03499267 -0.03240927 0.02815843
v -0.03506936 -0.03240893 0.02931466
v -0.03514064 -0.02429231 0.02816135
v -0.03533504 -0.02429247 0.02931332
v -0.03500470 -0.01617619 0.02816135
v -0.03513601 -0.01617568 0.02931444
v 0.01690872 0.00005758 0.00112524
v 0.01690872 -0.00805905 0.00106774
v 0.01068173 0.00005758 0.00072770
v 0.01068173 -0.00805905 0.00069154
v 0.00445475 0.00005758 0.00033981
v 0.00445475 -0.00805905 0.00043931
v -0.02668031 0.00005758 0.00039597
v -0.02668031 -0.00805905 0.00046043
v -0.02045333 0.00005758 0.00023336
v -0.02045333 -0.00805905 0.00033173
v -0.01422634 0.00005758 0.00015227
v -0.01422634 -0.00805905 0.00019113
v -0.02668031 -0.00805905 0.04092510
v -0.02668031 0.00005758 0.04085142
v -0.02045333 -0.00805905 0.04042334
v -0.02045333 0.00005758 0.04028970
v -0.01422634 -0.00805905 0.04025668
v -0.01422634 0.00005758 0.04015583
v 0.01690872 -0.00805905 0.04035618
v 0.01690872 0.00005758 0.04017178
v 0.01068173 -0.00805905 0.04005387
v 0.01068173 0.00005758 0.03989552
v 0.00445475 -0.00805905 0.04000985
v 0.00445475 0.00005758 0.03983510
v 0.01690872 0.04212744 0.01924903
v 0.01690872 0.04222905 0.01116594
v 0.01068173 0.04231791 0.01924903
v 0.01068173 0.04229124 0.01116594
v 0.00445475 0.04230416 0.01924903
v 0.00445475 0.04234748 0.01116594
v -0.02668031 0.04212201 0.01116594
v -0.02668031 0.04215701 0.01924903
v -0.02045333 0.04233797 0.01924903
v -0.02045333 0.04223126 0.01116594
v -0.01422634 0.04238776 0.01924903
v -0.01422634 0.04229073 0.01116594
v -0.02668031 -0.04196540 0.01924903
v -0.02668031 -0.04180925 0.01116594
v -0.02045333 -0.04201213 0.01924903
v -0.02045333 -0.04188283 0.01116594
v -0.01422634 -0.04202708 0.01924903
v -0.01422634 -0.04187518 0.01116594
v 0.01690872 -0.04178988 0.01116594
v 0.01690872 -0.04186090 0.01924903
v 0.01068173 -0.04183457 0.01116594
v 0.01068173 -0.04192768 0.01924903
v 0.00445475 -0.04180670 0.01116594
v 0.00445475 -0.04193159 0.01924903
v 0.01690872 -0.04046166 0.00119531
v 0.01690717 -0.04114387 0.00133546
v 0.01068451 -0.04098551 0.00165620
v 0.01068173 -0.04044484 0.00150952
v 0.00445784 -0.04088679 0.00177500
v 0.00445475 -0.04044433 0.00151918
v -0.02661906 -0.04091839 0.00179320
v -0.02668031 -0.04045095 0.00139386
v -0.02045903 -0.04092451 0.00166675
v -0.02045333 -0.04044586 0.00148909
v -0.01422634 -0.04099604 0.00169370
v -0.01422634 -0.04044450 0.00151357
v 0.01690840 -0.04156100 0.00173525
v 0.01068636 -0.04135949 0.00198725
v 0.00446216 -0.04130070 0.00211302
v -0.02666241 -0.04135167 0.00203869
v -0.02045395 -0.04138735 0.00194570
v -0.01423051 -0.04139670 0.00204744
v -0.02668031 0.04063067 0.00019315
v -0.02668031 0.04153648 0.00065448
v -0.02045333 0.04061895 0.00041079
v -0.02045333 0.04147956 0.00086627
v -0.01422634 0.04062370 0.00032297
v -0.01422634 0.04149349 0.00081440
v 0.01690872 0.04063169 0.00017159
v 0.01690872 0.04156673 0.00054218
v 0.01068173 0.04153597 0.00065650
v 0.01068173 0.04061895 0.00040943
v 0.00445475 0.04152187 0.00070906
v 0.00445475 0.04062370 0.00032207
v -0.02668031 0.04203008 0.00124607
v -0.02045333 0.04189127 0.00142958
v -0.01422634 0.04184199 0.00149470
v 0.01690872 0.04224333 0.00096419
v 0.01068173 0.04206169 0.00120452
v 0.00445475 0.04197690 0.00131637
v 0.01659751 0.03921495 0.04088375
v 0.01625901 0.04097831 0.04073283
v 0.01064995 0.03953354 0.04044333
v 0.01059703 0.04112699 0.04054933
v 0.00445475 0.04011039 0.04064478
v 0.00445490 0.04128314 0.04060413
v -0.02667922 0.04044648 0.04137160
v -0.02667830 0.04138101 0.04083951
v -0.02051335 0.04032380 0.04119348
v -0.02046459 0.04139563 0.04086760
v -0.01422589 0.04024632 0.04101493
v -0.01422619 0.04135314 0.04081391
v 0.01616334 0.04177776 0.04043119
v 0.01058206 0.04171557 0.04033349
v 0.00445475 0.04172169 0.04035348
v -0.02667846 0.04179951 0.04046713
v -0.02045579 0.04179628 0.04043007
v -0.01422634 0.04180801 0.04047656
v -0.02668031 -0.04054288 0.04232950
v -0.02668031 -0.04162014 0.04210087
v -0.02045333 -0.04156016 0.04187807
v -0.02045333 -0.04051688 0.04184729
v -0.01422634 -0.04153009 0.04176554
v -0.01422634 -0.04051111 0.04173858
v 0.01690872 -0.04148455 0.04159642
v 0.01690872 -0.04051977 0.04190254
v 0.01068173 -0.04142711 0.04138237
v 0.01068173 -0.04050601 0.04164561
v 0.00445475 -0.04148166 0.04158586
v 0.00445475 -0.04050737 0.04167076
v -0.02668031 -0.04257335 0.04163976
v -0.02045333 -0.04227549 0.04124604
v -0.01422634 -0.04225001 0.04121257
v 0.01690872 -0.04212563 0.04104817
v 0.01068173 -0.04198087 0.04085681
v 0.00445475 -0.04212223 0.04104367
v 0.01690872 0.04260320 0.00311698
v 0.01690872 0.04253490 0.00187181
v 0.01068173 0.04234256 0.00196187
v 0.01068173 0.04250142 0.00312664
v 0.00445475 0.04215599 0.00204946
v 0.00445475 0.04223160 0.00315179
v -0.02668031 0.04240559 0.00313562
v -0.02668031 0.04227187 0.00199511
v -0.02045333 0.04204759 0.00210045
v -0.02045333 0.04221308 0.00315360
v -0.01422634 0.04195974 0.00214177
v -0.01422634 0.04202006 0.00317178
v -0.02667938 0.04236736 0.03871661
v -0.02667862 0.04214579 0.03994763
v -0.02045240 0.04200239 0.03983825
v -0.02044901 0.04221461 0.03847516
v -0.01422604 0.04221036 0.03853221
v -0.01422634 0.04206576 0.03988048
v 0.01653472 0.04268188 0.03755386
v 0.01622521 0.04229821 0.03959681
v 0.01064223 0.04247678 0.03797251
v 0.01059008 0.04216924 0.03976278
v 0.00445475 0.04236430 0.03846460
v 0.00445475 0.04210977 0.03988834
v -0.02668031 -0.04200890 0.00316213
v -0.02663619 -0.04170085 0.00240590
v -0.02045333 -0.04193176 0.00316932
v -0.02045410 -0.04171257 0.00241736
v -0.01423375 -0.04169762 0.00249642
v -0.01422634 -0.04185649 0.00317628
v 0.01690872 -0.04213821 0.00314978
v 0.01690856 -0.04193550 0.00227452
v 0.01069253 -0.04175454 0.00247283
v 0.01068173 -0.04190084 0.00317223
v 0.00446617 -0.04169438 0.00252449
v 0.00445475 -0.04190831 0.00317156
v 0.01690872 -0.04254192 0.03890391
v 0.01690872 -0.04236589 0.04011877
v 0.01068173 -0.04245356 0.03889561
v 0.01068173 -0.04242043 0.04014438
v 0.00445475 -0.04241261 0.04014078
v 0.00445475 -0.04246427 0.03889651
v -0.02668031 -0.04299304 0.03894637
v -0.02668031 -0.04292456 0.04038088
v -0.02045333 -0.04252001 0.04019110
v -0.02045333 -0.04268142 0.03891694
v -0.01422634 -0.04247668 0.04017088
v -0.01422634 -0.04257064 0.03890662
v 0.01693772 0.04307964 0.03136278
v 0.01068682 0.04328218 0.03136121
v 0.00446941 0.04326570 0.03136885
v -0.02667584 0.04284856 0.03144634
v -0.02045348 0.04308237 0.03146161
v -0.01422650 0.04323477 0.03145285
v -0.02665686 -0.04336821 0.03186521
v -0.02044191 -0.04356055 0.03166689
v -0.01421786 -0.04360779 0.03161097
v 0.01691473 -0.04309210 0.03165297
v 0.01069346 -0.04318538 0.03171810
v 0.00445691 -0.04329345 0.03173584
v 0.01694127 0.04309850 0.03004865
v 0.01069099 0.04314931 0.02997274
v 0.00447975 0.04331191 0.02996173
v -0.02667846 0.04288085 0.03004664
v -0.02046196 0.04315984 0.02998037
v -0.01423730 0.04336340 0.02997071
v -0.02663927 -0.04294886 0.03044036
v -0.02042818 -0.04293901 0.03023755
v -0.01420027 -0.04288430 0.03014524
v 0.01692029 -0.04269468 0.03017892
v 0.01069747 -0.04274820 0.03018768
v 0.00446031 -0.04275041 0.03023934
v 0.01693788 0.04270957 0.02921966
v 0.01691982 0.04207103 0.02810901
v 0.01068883 0.04274831 0.02918304
v 0.01068266 0.04223585 0.02817617
v 0.00447728 0.04282070 0.02922101
v 0.00445552 0.04200477 0.02815775
v -0.02667244 0.04227323 0.02930164
v -0.02667892 0.04200901 0.02815350
v -0.02045302 0.04209074 0.02817191
v -0.02045255 0.04242071 0.02931781
v -0.01422634 0.04194648 0.02815776
v -0.01422372 0.04251094 0.02936879
v -0.02664405 -0.04177765 0.02877338
v -0.02663494 -0.04202725 0.02993366
v -0.02042463 -0.04214857 0.02962305
v -0.02042864 -0.04187790 0.02850634
v -0.01420027 -0.04202250 0.02953680
v -0.01420351 -0.04170288 0.02844389
v 0.01691736 -0.04179022 0.02839695
v 0.01691828 -0.04196217 0.02952489
v 0.01069546 -0.04207465 0.02952152
v 0.01069207 -0.04184697 0.02836483
v 0.00445784 -0.04147537 0.02852969
v 0.00445830 -0.04191663 0.02965718
v 0.01690872 0.03252407 0.00041461
v 0.01068173 0.03252407 0.00043931
v 0.00445475 0.03252407 0.00032252
v -0.02668031 0.03252407 0.00026278
v -0.02045333 0.03252407 0.00010152
v -0.01422634 0.03252407 0.00012061
v 0.01690872 0.02440745 0.00076206
v 0.01068173 0.02440745 0.00077329
v 0.00445475 0.02440745 0.00045885
v -0.02668031 0.02440745 0.00017362
v -0.02045333 0.02440745 0.00010556
v -0.01422634 0.02440745 0.00000000
v 0.01690872 0.01629082 0.00098891
v 0.01068173 0.01629082 0.00077037
v 0.00445475 0.01629082 0.00042426
v -0.02668031 0.01629082 0.00024773
v -0.02045333 0.01629082 0.00019921
v -0.01422634 0.01629082 0.00003234
v 0.01690872 0.00817420 0.00119554
v 0.01068173 0.00817420 0.00074521
v 0.00445475 0.00817420 0.00033533
v -0.02668031 0.00817420 0.00033780
v -0.02045333 0.00817420 0.00021830
v -0.01422634 0.00817420 0.00008894
v -0.02668031 -0.03240893 0.00117039
v -0.02045333 -0.03240893 0.00099924
v -0.01422634 -0.03240893 0.00097925
v 0.01690872 -0.03240893 0.00113714
v 0.01068173 -0.03240893 0.00111535
v 0.00445475 -0.03240893 0.00108369
v -0.02668031 -0.02429231 0.00090468
v -0.02045333 -0.02429231 0.00071108
v -0.01422634 -0.02429231 0.00068817
v 0.01690872 -0.02429231 0.00109716
v 0.01068173 -0.02429231 0.00085078
v 0.00445475 -0.02429231 0.00076116
v -0.02668031 -0.01617568 0.00062438
v -0.02045333 -0.01617568 0.00046964
v -0.01422634 -0.01617568 0.00038900
v 0.01690872 -0.01617568 0.00108975
v 0.01068173 -0.01617568 0.00077756
v 0.00445475 -0.01617568 0.00050782
v -0.02668031 0.03252407 0.04106434
v -0.02045333 0.03252407 0.04072902
v -0.01422634 0.03252407 0.04059313
v 0.01690872 0.03252407 0.04050643
v 0.01068173 0.03252407 0.04021716
v 0.00445475 0.03252407 0.04017672
v -0.02668031 0.02440745 0.04065782
v -0.02045333 0.02440745 0.04023960
v -0.01422634 0.02440745 0.04017560
v 0.01690872 0.02440745 0.04025713
v 0.01068173 0.02440745 0.04019267
v 0.00445475 0.02440745 0.04001748
v -0.02668031 0.01629082 0.04074698
v -0.02045333 0.01629082 0.04004938
v -0.01422634 0.01629082 0.03997279
v 0.01690872 0.01629082 0.04016123
v 0.01068173 0.01629082 0.03986947
v 0.00445475 0.01629082 0.03984566
v -0.02668031 0.00817420 0.04065804
v -0.02045333 0.00817420 0.04017043
v -0.01422634 0.00817420 0.04003478
v 0.01690872 0.00817420 0.04018278
v 0.01068173 0.00817420 0.03989911
v 0.00445475 0.00817420 0.03980389
v 0.01690872 -0.03240893 0.04114160
v 0.01068173 -0.03240893 0.04108433
v 0.00445475 -0.03240893 0.04111779
v -0.02668031 -0.03240893 0.04169883
v -0.02045333 -0.03240893 0.04121055
v -0.01422634 -0.03240893 0.04111644
v 0.01690872 -0.02429231 0.04084962
v 0.01068173 -0.02429231 0.04070677
v 0.00445475 -0.02429231 0.04070655
v -0.02668031 -0.02429231 0.04129096
v -0.02045333 -0.02429231 0.04096934
v -0.01422634 -0.02429231 0.04070499
v 0.01690872 -0.01617568 0.04060098
v 0.01068173 -0.01617568 0.04036830
v 0.00445475 -0.01617568 0.04030227
v -0.02668031 -0.01617568 0.04102639
v -0.02045333 -0.01617568 0.04058504
v -0.01422634 -0.01617568 0.04043614
f 1 2 3
f 2 1 4
f 4 5 2
f 5 4 6
f 7 8 9
f 8 7 10
f 10 11 8
f 11 10 12
f 11 12 13
f 12 14 13
f 15 16 17
f 16 15 18
f 6 19 5
f 19 6 20
f 21 19 20
f 19 21 22
f 23 24 25
f 25 24 26
f 14 17 13
f 17 14 15
f 3 9 1
f 9 3 7
f 22 21 23
f 23 25 22
f 27 26 24
f 26 27 28
f 29 16 30
f 16 18 30
f 31 32 3
f 31 3 2
f 1 9 33
f 9 34 33
f 35 2 5
f 2 35 31
f 36 37 4
f 6 4 37
f 38 7 39
f 7 38 10
f 9 8 34
f 8 40 34
f 41 10 38
f 10 41 12
f 42 40 11
f 8 11 40
f 43 12 41
f 12 43 14
f 44 13 17
f 13 44 45
f 46 18 47
f 18 15 47
f 48 17 16
f 17 48 44
f 49 5 19
f 5 49 35
f 20 6 37
f 20 37 50
f 51 22 25
f 22 51 52
f 20 50 21
f 21 50 53
f 51 26 54
f 26 51 25
f 55 56 24
f 24 23 55
f 47 14 43
f 14 47 15
f 45 42 13
f 11 13 42
f 39 3 32
f 3 39 7
f 4 1 36
f 1 33 36
f 52 19 22
f 19 52 49
f 55 23 53
f 23 21 53
f 54 28 57
f 28 54 26
f 27 56 58
f 56 27 24
f 57 28 27
f 57 27 58
f 30 46 59
f 46 30 18
f 48 29 60
f 29 48 16
f 60 29 59
f 59 29 30
f 61 31 62
f 31 61 32
f 33 34 63
f 33 63 64
f 62 35 65
f 35 62 31
f 66 67 36
f 37 36 67
f 68 38 69
f 69 38 39
f 34 40 70
f 34 70 63
f 68 41 38
f 41 68 71
f 40 42 72
f 40 72 70
f 43 71 73
f 71 43 41
f 44 74 45
f 74 44 75
f 76 47 77
f 47 76 46
f 78 75 48
f 48 75 44
f 65 49 79
f 49 65 35
f 67 80 37
f 50 37 80
f 81 51 82
f 51 81 52
f 53 50 83
f 50 80 83
f 84 51 54
f 51 84 82
f 56 85 86
f 56 55 85
f 77 47 73
f 73 47 43
f 42 45 74
f 42 74 72
f 69 39 61
f 61 39 32
f 36 33 66
f 33 64 66
f 79 52 81
f 52 79 49
f 55 83 85
f 83 55 53
f 87 84 57
f 57 84 54
f 58 86 88
f 86 58 56
f 89 90 91
f 91 90 92
f 59 76 93
f 76 59 46
f 94 78 60
f 60 78 48
f 95 96 97
f 96 95 98
f 98 94 96
f 96 94 60
f 96 59 97
f 59 96 60
f 97 93 95
f 93 97 59
f 90 87 92
f 92 87 57
f 92 57 91
f 91 57 58
f 91 88 89
f 88 91 58
f 99 100 101
f 100 99 102
f 103 104 101
f 101 104 99
f 104 105 106
f 105 104 103
f 106 105 107
f 105 108 107
f 109 107 108
f 107 109 110
f 100 110 109
f 110 100 102
f 102 99 111
f 99 104 111
f 104 106 111
f 106 107 111
f 107 110 111
f 110 102 111
f 112 113 114
f 114 115 112
f 116 117 118
f 117 116 119
f 120 121 122
f 121 120 123
f 115 121 118
f 121 115 122
f 115 114 120
f 115 120 122
f 116 120 114
f 120 116 123
f 123 118 121
f 118 123 116
f 124 113 125
f 113 124 114
f 126 125 113
f 126 113 112
f 117 127 118
f 127 117 128
f 119 128 117
f 128 119 129
f 130 129 119
f 130 119 116
f 115 118 127
f 115 127 131
f 124 130 116
f 124 116 114
f 131 112 115
f 112 131 126
f 132 133 134
f 133 132 135
f 133 135 136
f 136 137 133
f 137 138 133
f 138 137 139
f 133 138 134
f 134 138 140
f 141 138 139
f 138 141 142
f 138 143 140
f 143 138 142
f 144 132 145
f 132 144 135
f 137 146 147
f 148 145 132
f 132 134 148
f 144 149 136
f 144 136 135
f 150 151 134
f 134 140 150
f 152 137 147
f 137 152 139
f 153 150 140
f 140 143 153
f 154 139 152
f 139 154 141
f 141 155 142
f 155 141 154
f 143 142 155
f 143 155 153
f 146 136 149
f 136 146 137
f 134 151 148
f 145 156 157
f 149 158 146
f 158 149 159
f 160 145 161
f 145 160 144
f 160 162 149
f 160 149 144
f 145 157 161
f 163 149 162
f 145 148 164
f 145 164 156
f 149 163 159
f 164 148 165
f 164 165 166
f 167 164 166
f 164 167 156
f 158 168 146
f 168 158 169
f 170 159 163
f 170 171 159
f 157 172 161
f 172 157 173
f 174 161 172
f 161 174 160
f 174 175 162
f 174 162 160
f 175 170 163
f 163 162 175
f 167 173 157
f 167 157 156
f 169 159 171
f 159 169 158
f 148 151 165
f 176 165 151
f 151 150 176
f 177 147 168
f 147 177 152
f 176 150 178
f 150 153 178
f 179 152 177
f 152 179 154
f 179 155 154
f 155 179 180
f 155 180 153
f 153 180 178
f 147 146 168
f 181 182 183
f 183 182 184
f 185 186 187
f 187 186 188
f 189 190 191
f 190 189 192
f 193 194 195
f 194 196 195
f 197 198 199
f 198 197 200
f 201 202 203
f 202 204 203
f 205 206 207
f 206 205 208
f 209 208 205
f 208 209 210
f 211 207 212
f 205 207 211
f 211 213 205
f 209 205 213
f 214 215 216
f 216 215 217
f 217 215 218
f 217 218 219
f 220 221 214
f 214 221 215
f 221 222 215
f 218 215 222
f 223 224 225
f 224 226 225
f 227 225 228
f 225 227 223
f 229 230 226
f 225 226 230
f 228 225 231
f 225 230 231
f 232 233 234
f 234 235 232
f 236 232 237
f 232 236 233
f 232 235 238
f 235 239 238
f 237 232 240
f 232 238 240
f 241 242 243
f 243 242 244
f 244 242 245
f 244 245 246
f 247 248 241
f 241 248 242
f 248 249 242
f 242 249 245
f 250 251 252
f 251 253 252
f 254 250 255
f 250 252 255
f 256 257 253
f 252 253 257
f 255 252 258
f 252 257 258
f 259 260 261
f 259 261 262
f 263 264 260
f 263 260 259
f 259 262 265
f 262 266 265
f 267 263 259
f 259 265 267
f 268 269 270
f 269 268 271
f 272 271 268
f 271 272 273
f 268 274 275
f 274 268 270
f 276 272 268
f 268 275 276
f 277 278 279
f 279 278 280
f 280 278 211
f 280 211 212
f 281 282 277
f 277 282 278
f 282 213 278
f 278 213 211
f 283 284 285
f 284 286 285
f 287 288 283
f 283 285 287
f 236 237 286
f 285 286 237
f 287 285 240
f 285 237 240
f 289 290 291
f 291 292 289
f 257 256 290
f 257 290 289
f 293 289 292
f 292 294 293
f 258 257 289
f 289 293 258
f 295 296 297
f 296 295 298
f 299 298 295
f 298 299 300
f 245 297 246
f 297 245 295
f 249 295 245
f 295 249 299
f 301 302 303
f 303 302 304
f 304 302 238
f 304 238 239
f 288 302 301
f 302 288 287
f 238 302 240
f 302 287 240
f 305 306 307
f 306 308 307
f 309 310 305
f 305 307 309
f 227 228 308
f 307 308 228
f 309 307 231
f 307 228 231
f 311 312 313
f 311 313 314
f 265 266 312
f 265 312 311
f 311 314 315
f 314 316 315
f 267 265 311
f 311 315 267
f 317 318 319
f 318 317 320
f 293 320 317
f 320 293 294
f 255 319 254
f 319 255 317
f 258 317 255
f 317 258 293
f 321 322 323
f 323 322 324
f 324 322 230
f 324 230 229
f 310 309 321
f 321 309 322
f 309 231 322
f 230 322 231
f 325 326 327
f 326 328 327
f 329 330 325
f 325 327 329
f 219 218 328
f 327 328 218
f 222 327 218
f 327 222 329
f 331 332 333
f 331 333 334
f 275 274 332
f 275 332 331
f 331 334 335
f 334 336 335
f 276 275 331
f 331 335 276
f 337 338 339
f 338 337 340
f 315 340 337
f 340 315 316
f 263 339 264
f 339 263 337
f 267 337 263
f 337 267 315
f 341 342 343
f 343 342 344
f 221 220 344
f 344 342 221
f 330 329 341
f 342 341 329
f 222 342 329
f 342 222 221
f 345 346 347
f 346 348 347
f 282 281 345
f 345 347 282
f 210 209 348
f 347 348 209
f 282 209 213
f 209 282 347
f 349 350 351
f 349 351 352
f 248 247 350
f 248 350 349
f 349 352 299
f 352 300 299
f 249 248 349
f 349 299 249
f 353 354 355
f 354 353 356
f 335 356 353
f 356 335 336
f 272 355 273
f 355 272 353
f 276 353 272
f 353 276 335
f 357 358 359
f 358 357 360
f 361 360 357
f 360 361 362
f 363 364 365
f 364 363 366
f 367 366 363
f 366 367 368
f 369 370 371
f 370 369 372
f 373 370 374
f 370 373 371
f 375 376 377
f 376 375 378
f 379 375 377
f 375 379 380
f 381 382 383
f 384 383 382
f 385 386 381
f 382 381 386
f 387 388 389
f 388 387 390
f 389 391 392
f 391 389 388
f 393 394 395
f 394 393 396
f 397 398 393
f 396 393 398
f 399 400 401
f 401 400 402
f 403 404 399
f 399 404 400
f 405 406 407
f 408 407 406
f 379 406 405
f 406 379 409
f 291 410 292
f 410 411 292
f 292 411 294
f 294 411 412
f 413 414 415
f 414 413 416
f 385 416 413
f 416 385 417
f 418 419 420
f 419 418 421
f 422 421 418
f 421 422 423
f 424 425 426
f 427 426 425
f 373 374 424
f 425 424 374
f 313 428 314
f 314 428 429
f 314 429 316
f 429 430 316
f 431 432 433
f 432 431 434
f 391 433 392
f 433 391 431
f 435 436 437
f 436 435 438
f 439 438 435
f 438 439 440
f 441 442 443
f 444 443 442
f 367 445 441
f 442 441 445
f 333 446 334
f 334 446 447
f 334 447 336
f 447 448 336
f 449 450 451
f 450 449 452
f 397 452 449
f 452 397 453
f 454 455 456
f 455 454 457
f 458 457 454
f 457 458 459
f 460 461 462
f 463 462 461
f 362 461 460
f 461 362 361
f 351 464 352
f 352 464 465
f 352 465 300
f 465 466 300
f 467 468 469
f 468 467 470
f 404 470 467
f 470 404 403
f 471 472 473
f 472 471 474
f 475 474 471
f 474 475 476
f 477 478 479
f 478 477 415
f 432 434 480
f 434 481 480
f 482 451 483
f 451 484 483
f 469 485 486
f 485 469 468
f 411 410 487
f 411 487 488
f 411 488 412
f 412 488 489
f 298 490 296
f 490 298 491
f 300 491 298
f 491 300 466
f 429 428 492
f 429 492 493
f 429 494 430
f 494 429 493
f 320 495 318
f 495 320 496
f 294 496 320
f 496 294 412
f 447 446 497
f 447 497 498
f 447 499 448
f 499 447 498
f 340 500 338
f 500 340 501
f 316 501 340
f 501 316 430
f 464 502 465
f 502 464 503
f 465 504 466
f 504 465 502
f 356 505 354
f 505 356 506
f 336 506 356
f 506 336 448
f 507 508 478
f 479 478 508
f 509 510 481
f 480 481 510
f 511 483 484
f 483 511 512
f 513 486 485
f 486 513 514
f 491 515 490
f 490 515 516
f 466 504 491
f 491 504 515
f 517 495 496
f 495 517 518
f 412 517 496
f 517 412 489
f 501 519 500
f 519 501 520
f 430 520 501
f 520 430 494
f 506 521 505
f 521 506 522
f 448 522 506
f 522 448 499
f 488 487 523
f 488 523 524
f 488 525 489
f 525 488 524
f 492 526 493
f 526 492 527
f 493 528 494
f 528 493 526
f 497 529 498
f 529 497 530
f 498 531 499
f 531 498 529
f 532 503 533
f 503 532 502
f 534 504 532
f 532 504 502
f 535 536 537
f 538 537 536
f 539 540 541
f 540 539 542
f 543 544 545
f 544 543 546
f 547 548 549
f 548 547 550
f 551 552 553
f 553 552 554
f 555 551 534
f 551 555 552
f 556 557 558
f 557 556 559
f 525 559 556
f 559 525 560
f 561 562 563
f 562 561 564
f 565 563 528
f 563 565 561
f 566 567 568
f 567 566 569
f 570 568 531
f 568 570 566
f 571 572 573
f 573 572 574
f 573 574 439
f 439 574 440
f 575 576 577
f 577 576 578
f 577 578 458
f 578 459 458
f 579 580 581
f 581 580 582
f 581 582 475
f 475 582 476
f 583 584 585
f 585 584 586
f 585 586 422
f 586 423 422
f 524 523 587
f 524 587 588
f 525 524 588
f 525 588 560
f 527 589 526
f 589 527 590
f 526 565 528
f 565 526 589
f 530 591 529
f 591 530 592
f 529 570 531
f 570 529 591
f 533 593 532
f 593 533 594
f 532 593 534
f 593 555 534
f 537 538 507
f 508 507 538
f 541 540 509
f 509 540 510
f 545 512 511
f 512 545 544
f 514 549 548
f 549 514 513
f 515 553 516
f 553 515 551
f 551 504 534
f 504 551 515
f 517 558 518
f 558 517 556
f 489 525 517
f 517 525 556
f 520 563 519
f 519 563 562
f 494 528 520
f 520 528 563
f 521 522 568
f 521 568 567
f 499 531 522
f 522 531 568
f 595 372 369
f 372 595 596
f 597 595 598
f 595 597 596
f 599 597 598
f 597 599 600
f 601 600 599
f 600 601 602
f 183 184 601
f 601 184 602
f 359 603 604
f 603 359 358
f 605 604 603
f 605 603 606
f 605 607 608
f 607 605 606
f 608 182 181
f 182 608 607
f 609 610 387
f 387 610 390
f 611 612 609
f 609 612 610
f 613 612 611
f 612 613 614
f 615 614 613
f 614 615 616
f 187 188 615
f 615 188 616
f 617 401 402
f 617 402 618
f 619 617 618
f 619 618 620
f 621 619 620
f 621 620 622
f 621 186 185
f 186 621 622
f 623 624 571
f 571 624 572
f 625 624 623
f 624 625 626
f 627 626 625
f 626 627 628
f 629 628 627
f 628 629 630
f 191 630 629
f 630 191 190
f 420 631 632
f 631 420 419
f 632 633 634
f 633 632 631
f 634 635 636
f 635 634 633
f 636 192 189
f 192 636 635
f 637 638 579
f 579 638 580
f 639 640 637
f 637 640 638
f 641 642 639
f 639 642 640
f 643 644 641
f 641 644 642
f 200 643 198
f 643 200 644
f 456 645 646
f 645 456 455
f 646 647 648
f 647 646 645
f 649 648 647
f 649 647 650
f 199 649 650
f 199 650 197
f 217 651 216
f 651 217 652
f 652 653 651
f 653 652 654
f 654 655 653
f 655 654 656
f 656 657 655
f 657 656 658
f 658 365 657
f 365 658 363
f 224 659 226
f 226 659 660
f 659 661 660
f 661 659 662
f 662 663 661
f 663 662 664
f 664 366 663
f 366 664 364
f 219 665 217
f 652 217 665
f 665 654 652
f 654 665 666
f 666 656 654
f 656 666 667
f 667 658 656
f 658 667 445
f 445 363 658
f 363 445 367
f 660 229 226
f 229 660 668
f 660 669 668
f 669 660 661
f 661 670 669
f 670 661 663
f 663 368 670
f 368 663 366
f 671 233 672
f 233 671 234
f 673 671 672
f 671 673 674
f 675 674 673
f 674 675 676
f 677 676 675
f 676 677 678
f 377 678 677
f 678 377 376
f 206 679 207
f 680 207 679
f 679 681 680
f 682 680 681
f 681 683 682
f 684 682 683
f 683 378 684
f 375 684 378
f 236 672 233
f 672 236 685
f 685 673 672
f 673 685 686
f 686 675 673
f 675 686 687
f 687 677 675
f 677 687 409
f 409 377 677
f 377 409 379
f 207 688 212
f 688 207 680
f 680 682 688
f 689 688 682
f 682 690 689
f 690 682 684
f 684 380 690
f 380 684 375
f 244 691 243
f 691 244 692
f 692 693 691
f 694 691 693
f 693 695 694
f 696 694 695
f 695 697 696
f 698 696 697
f 697 381 698
f 383 698 381
f 699 253 251
f 253 699 700
f 701 700 699
f 700 701 702
f 703 702 701
f 702 703 704
f 384 704 703
f 704 384 382
f 246 692 244
f 692 246 705
f 705 706 692
f 693 692 706
f 706 707 693
f 695 693 707
f 707 417 695
f 697 695 417
f 417 385 697
f 381 697 385
f 253 708 256
f 708 253 700
f 702 708 700
f 708 702 709
f 704 709 702
f 709 704 710
f 382 710 704
f 710 382 386
f 711 260 712
f 260 711 261
f 712 713 711
f 713 712 714
f 715 713 714
f 713 715 716
f 715 717 716
f 717 715 718
f 393 717 718
f 717 393 395
f 269 719 270
f 720 270 719
f 719 721 720
f 722 720 721
f 721 723 722
f 723 721 724
f 724 396 723
f 396 724 394
f 264 712 260
f 712 264 725
f 725 714 712
f 714 725 726
f 726 715 714
f 715 726 727
f 727 718 715
f 718 727 453
f 453 393 718
f 393 453 397
f 720 274 270
f 274 720 728
f 720 729 728
f 729 720 722
f 723 729 722
f 729 723 730
f 396 730 723
f 730 396 398
f 280 731 279
f 731 280 732
f 732 733 731
f 734 731 733
f 733 735 734
f 735 733 736
f 736 737 735
f 737 736 738
f 738 407 737
f 407 738 405
f 739 286 284
f 286 739 740
f 739 741 740
f 741 739 742
f 742 743 741
f 743 742 744
f 744 406 743
f 406 744 408
f 212 688 280
f 732 280 688
f 688 689 732
f 733 732 689
f 689 736 733
f 736 689 690
f 690 738 736
f 738 690 380
f 380 405 738
f 405 380 379
f 740 236 286
f 236 740 685
f 740 686 685
f 686 740 741
f 741 687 686
f 687 741 743
f 743 409 687
f 409 743 406
f 290 745 291
f 745 290 746
f 746 747 745
f 747 746 748
f 748 749 747
f 749 748 750
f 750 477 749
f 477 750 751
f 751 415 477
f 415 751 413
f 296 752 297
f 753 297 752
f 752 754 753
f 754 752 755
f 755 756 754
f 756 755 757
f 757 414 756
f 416 756 414
f 746 256 708
f 256 746 290
f 708 748 746
f 748 708 709
f 709 750 748
f 750 709 710
f 710 751 750
f 751 710 386
f 386 413 751
f 413 386 385
f 297 705 246
f 705 297 753
f 753 706 705
f 706 753 754
f 754 707 706
f 707 754 756
f 756 416 707
f 417 707 416
f 324 758 323
f 758 324 759
f 759 760 758
f 761 758 760
f 760 762 761
f 763 761 762
f 762 764 763
f 765 763 764
f 764 441 765
f 443 765 441
f 766 328 326
f 328 766 767
f 768 767 766
f 767 768 769
f 770 769 768
f 769 770 771
f 444 771 770
f 771 444 442
f 229 759 324
f 759 229 668
f 668 669 759
f 760 759 669
f 669 670 760
f 762 760 670
f 670 368 762
f 764 762 368
f 368 367 764
f 441 764 367
f 767 219 328
f 219 767 665
f 769 665 767
f 665 769 666
f 771 666 769
f 666 771 667
f 442 667 771
f 667 442 445
f 332 772 333
f 772 332 773
f 773 774 772
f 774 773 775
f 776 774 775
f 774 776 777
f 778 777 776
f 777 778 482
f 449 482 778
f 482 449 451
f 338 779 339
f 780 339 779
f 779 781 780
f 782 780 781
f 781 783 782
f 783 781 784
f 784 450 783
f 452 783 450
f 728 332 274
f 332 728 773
f 728 775 773
f 775 728 729
f 730 775 729
f 775 730 776
f 398 776 730
f 776 398 778
f 397 778 398
f 778 397 449
f 339 780 264
f 725 264 780
f 780 726 725
f 726 780 782
f 782 727 726
f 727 782 783
f 783 453 727
f 453 783 452
f 752 296 785
f 296 490 785
f 755 785 786
f 785 755 752
f 757 755 787
f 755 786 787
f 414 787 788
f 787 414 757
f 415 788 478
f 788 415 414
f 789 291 745
f 291 789 410
f 745 790 789
f 790 745 747
f 747 791 790
f 791 747 749
f 749 479 791
f 479 749 477
f 779 338 792
f 338 500 792
f 781 779 793
f 779 792 793
f 784 793 794
f 793 784 781
f 450 784 795
f 784 794 795
f 451 795 484
f 795 451 450
f 333 796 446
f 796 333 772
f 772 797 796
f 797 772 774
f 777 797 774
f 797 777 798
f 482 798 777
f 798 482 483
f 516 799 490
f 785 490 799
f 799 786 785
f 786 799 800
f 800 787 786
f 787 800 801
f 801 788 787
f 788 801 802
f 802 507 788
f 478 788 507
f 410 803 487
f 803 410 789
f 789 804 803
f 804 789 790
f 791 804 790
f 804 791 805
f 479 805 791
f 805 479 508
f 519 806 500
f 792 500 806
f 806 793 792
f 793 806 807
f 807 808 793
f 794 793 808
f 808 809 794
f 795 794 809
f 809 484 795
f 484 809 511
f 446 810 497
f 810 446 796
f 796 811 810
f 811 796 797
f 798 811 797
f 811 798 812
f 483 812 798
f 812 483 512
f 554 813 553
f 814 553 813
f 813 815 814
f 816 814 815
f 815 817 816
f 818 816 817
f 817 819 818
f 819 817 820
f 820 535 819
f 537 819 535
f 523 821 587
f 821 523 822
f 822 823 821
f 823 822 824
f 824 825 823
f 825 824 826
f 538 825 826
f 825 538 536
f 564 827 562
f 828 562 827
f 827 829 828
f 830 828 829
f 829 831 830
f 832 830 831
f 831 833 832
f 834 832 833
f 833 543 834
f 545 834 543
f 530 835 592
f 835 530 836
f 836 837 835
f 837 836 838
f 838 839 837
f 839 838 840
f 840 546 839
f 546 840 544
f 553 799 516
f 799 553 814
f 814 816 799
f 800 799 816
f 816 818 800
f 801 800 818
f 818 802 801
f 802 818 819
f 819 537 802
f 507 802 537
f 487 822 523
f 822 487 803
f 804 822 803
f 822 804 824
f 804 826 824
f 826 804 805
f 805 538 826
f 538 805 508
f 562 806 519
f 806 562 828
f 828 807 806
f 807 828 830
f 830 808 807
f 808 830 832
f 832 809 808
f 809 832 834
f 834 545 809
f 511 809 545
f 810 530 497
f 530 810 836
f 810 838 836
f 838 810 811
f 811 840 838
f 840 811 812
f 812 544 840
f 544 812 512
f 820 189 535
f 535 189 191
f 190 192 737
f 190 737 407
f 542 539 193
f 539 194 193
f 196 427 195
f 427 196 426
f 833 199 543
f 543 199 198
f 200 197 765
f 200 765 443
f 550 202 201
f 202 550 547
f 203 462 463
f 462 203 204
f 552 418 554
f 554 418 420
f 421 277 419
f 277 279 419
f 555 418 552
f 418 555 422
f 423 281 421
f 281 277 421
f 559 437 557
f 437 559 435
f 438 301 436
f 436 301 303
f 439 559 560
f 559 439 435
f 440 301 438
f 301 440 288
f 561 456 564
f 456 561 454
f 457 321 455
f 455 321 323
f 565 454 561
f 454 565 458
f 459 310 457
f 310 321 457
f 566 473 569
f 473 566 471
f 474 341 472
f 341 343 472
f 570 471 566
f 471 570 475
f 476 330 474
f 330 341 474
f 572 283 574
f 283 572 284
f 587 571 588
f 588 571 573
f 574 283 440
f 440 283 288
f 588 439 560
f 439 588 573
f 576 305 578
f 305 576 306
f 590 575 589
f 589 575 577
f 578 310 459
f 310 578 305
f 589 577 565
f 565 577 458
f 580 325 582
f 325 580 326
f 579 591 592
f 591 579 581
f 582 330 476
f 330 582 325
f 591 475 570
f 475 591 581
f 584 345 586
f 345 584 346
f 594 585 593
f 585 594 583
f 586 281 423
f 281 586 345
f 593 422 555
f 422 593 585
f 821 623 587
f 587 623 571
f 624 284 572
f 284 624 739
f 823 625 821
f 821 625 623
f 624 626 742
f 624 742 739
f 825 625 823
f 625 825 627
f 626 628 744
f 626 744 742
f 536 627 825
f 627 536 629
f 628 630 408
f 628 408 744
f 535 191 536
f 536 191 629
f 190 408 630
f 408 190 407
f 631 419 279
f 631 279 731
f 420 813 554
f 813 420 632
f 631 734 633
f 734 631 731
f 813 634 815
f 634 813 632
f 635 633 734
f 635 734 735
f 815 636 817
f 636 815 634
f 635 737 192
f 737 635 735
f 817 636 820
f 820 636 189
f 835 579 592
f 579 835 637
f 638 326 580
f 326 638 766
f 837 639 835
f 835 639 637
f 638 640 768
f 638 768 766
f 839 639 837
f 639 839 641
f 642 768 640
f 768 642 770
f 546 641 839
f 641 546 643
f 642 644 444
f 642 444 770
f 543 643 546
f 643 543 198
f 200 444 644
f 444 200 443
f 645 455 323
f 645 323 758
f 564 646 827
f 646 564 456
f 647 645 758
f 647 758 761
f 827 648 829
f 648 827 646
f 647 763 650
f 763 647 761
f 829 648 831
f 831 648 649
f 650 765 197
f 765 650 763
f 831 649 833
f 833 649 199
f 378 841 376
f 841 378 842
f 842 843 841
f 843 842 844
f 844 845 843
f 845 844 846
f 846 181 845
f 845 181 183
f 847 848 657
f 847 657 365
f 849 850 848
f 849 848 847
f 851 852 850
f 851 850 849
f 184 182 852
f 184 852 851
f 394 853 395
f 395 853 854
f 853 855 854
f 854 855 856
f 857 856 855
f 856 857 858
f 857 185 858
f 858 185 187
f 859 383 860
f 383 859 698
f 861 860 862
f 860 861 859
f 863 862 864
f 862 863 861
f 188 186 863
f 188 863 864
f 865 437 866
f 437 436 866
f 867 866 868
f 866 867 865
f 869 868 870
f 868 869 867
f 194 869 196
f 869 870 196
f 575 871 576
f 871 575 872
f 873 871 872
f 871 873 874
f 875 874 873
f 874 875 876
f 193 876 875
f 876 193 195
f 877 472 878
f 472 877 473
f 879 877 880
f 877 878 880
f 881 879 882
f 879 880 882
f 202 881 204
f 881 882 204
f 583 883 584
f 883 583 884
f 884 885 883
f 885 884 886
f 886 887 885
f 887 886 888
f 201 887 888
f 887 201 203
f 208 889 206
f 889 208 890
f 891 889 890
f 889 891 892
f 891 893 892
f 892 893 894
f 893 359 894
f 359 893 357
f 895 214 896
f 214 216 896
f 897 895 898
f 898 895 896
f 899 898 900
f 898 899 897
f 360 900 358
f 900 360 899
f 210 890 208
f 890 210 901
f 901 902 890
f 890 902 891
f 902 903 891
f 891 903 893
f 903 357 893
f 357 903 361
f 904 220 895
f 895 220 214
f 905 895 897
f 895 905 904
f 906 905 899
f 899 905 897
f 362 899 360
f 899 362 906
f 907 223 908
f 223 907 224
f 909 907 910
f 910 907 908
f 911 910 912
f 910 911 909
f 372 912 370
f 912 372 911
f 234 913 235
f 235 913 914
f 913 915 914
f 915 913 916
f 916 917 915
f 917 916 918
f 918 371 917
f 371 918 369
f 227 908 223
f 908 227 919
f 910 908 920
f 908 919 920
f 920 912 910
f 912 920 921
f 374 912 921
f 912 374 370
f 235 914 239
f 239 914 922
f 914 923 922
f 923 914 915
f 915 924 923
f 924 915 917
f 917 371 924
f 373 924 371
f 925 250 926
f 250 925 251
f 927 926 928
f 926 927 925
f 929 928 930
f 928 929 927
f 390 930 388
f 930 390 929
f 261 931 262
f 262 931 932
f 933 932 931
f 932 933 934
f 933 935 934
f 934 935 936
f 935 389 936
f 389 935 387
f 926 254 937
f 254 926 250
f 928 937 938
f 937 928 926
f 930 938 939
f 938 930 928
f 388 939 391
f 939 388 930
f 262 932 266
f 266 932 940
f 934 940 932
f 940 934 941
f 934 936 941
f 941 936 942
f 936 392 942
f 392 936 389
f 271 943 269
f 943 271 944
f 944 945 943
f 943 945 946
f 945 947 946
f 946 947 948
f 399 948 947
f 948 399 401
f 949 241 950
f 241 243 950
f 951 950 952
f 950 951 949
f 953 951 954
f 954 951 952
f 400 953 402
f 402 953 954
f 273 944 271
f 944 273 955
f 955 956 944
f 944 956 945
f 956 957 945
f 945 957 947
f 957 403 947
f 947 403 399
f 958 247 949
f 949 247 241
f 959 949 951
f 949 959 958
f 960 959 953
f 953 959 951
f 404 960 400
f 400 960 953
f 304 961 303
f 961 304 962
f 962 963 961
f 964 961 963
f 963 965 964
f 966 964 965
f 965 424 966
f 426 966 424
f 967 308 306
f 308 967 968
f 967 969 968
f 969 967 970
f 970 971 969
f 971 970 972
f 427 971 972
f 971 427 425
f 239 962 304
f 962 239 922
f 922 923 962
f 963 962 923
f 923 924 963
f 965 963 924
f 924 373 965
f 424 965 373
f 968 227 308
f 227 968 919
f 968 920 919
f 920 968 969
f 969 921 920
f 921 969 971
f 425 921 971
f 921 425 374
f 312 973 313
f 973 312 974
f 975 973 974
f 973 975 976
f 975 977 976
f 977 975 978
f 978 432 977
f 432 978 433
f 318 979 319
f 980 319 979
f 979 981 980
f 982 980 981
f 981 983 982
f 984 982 983
f 983 431 984
f 431 983 434
f 940 312 266
f 312 940 974
f 941 974 940
f 974 941 975
f 941 978 975
f 978 941 942
f 942 433 978
f 433 942 392
f 319 980 254
f 937 254 980
f 980 982 937
f 938 937 982
f 939 938 984
f 984 938 982
f 984 431 939
f 391 939 431
f 344 985 343
f 985 344 986
f 986 987 985
f 987 986 988
f 988 989 987
f 990 987 989
f 989 460 990
f 462 990 460
f 991 348 346
f 348 991 992
f 991 993 992
f 993 991 994
f 994 995 993
f 995 994 996
f 996 461 995
f 461 996 463
f 986 220 904
f 220 986 344
f 988 986 905
f 905 986 904
f 905 906 988
f 989 988 906
f 906 460 989
f 460 906 362
f 348 901 210
f 901 348 992
f 992 902 901
f 902 992 993
f 993 995 902
f 902 995 903
f 995 361 903
f 361 995 461
f 350 997 351
f 997 350 998
f 998 999 997
f 999 998 1000
f 1001 999 1000
f 999 1001 1002
f 467 1002 1001
f 1002 467 469
f 354 1003 355
f 1004 355 1003
f 1003 1005 1004
f 1005 1003 1006
f 1006 1007 1005
f 1007 1006 1008
f 1008 470 1007
f 470 1008 468
f 247 998 350
f 998 247 958
f 959 998 958
f 998 959 1000
f 959 1001 1000
f 1001 959 960
f 960 467 1001
f 467 960 404
f 355 1004 273
f 955 273 1004
f 1004 956 955
f 956 1004 1005
f 1005 957 956
f 957 1005 1007
f 1007 403 957
f 403 1007 470
f 979 318 1009
f 318 495 1009
f 981 979 1010
f 979 1009 1010
f 983 981 1011
f 981 1010 1011
f 434 983 481
f 983 1011 481
f 1012 313 973
f 313 1012 428
f 976 1012 973
f 1012 976 1013
f 976 1014 1013
f 1014 976 977
f 977 480 1014
f 480 977 432
f 1003 354 1015
f 354 505 1015
f 1006 1015 1016
f 1015 1006 1003
f 1008 1016 1017
f 1016 1008 1006
f 468 1017 485
f 1017 468 1008
f 351 1018 464
f 1018 351 997
f 997 1019 1018
f 1019 997 999
f 999 1020 1019
f 1020 999 1002
f 469 1020 1002
f 1020 469 486
f 518 1009 495
f 1009 518 1021
f 1021 1010 1009
f 1010 1021 1022
f 1022 1023 1010
f 1011 1010 1023
f 1023 509 1011
f 481 1011 509
f 428 1024 492
f 1024 428 1012
f 1012 1025 1024
f 1025 1012 1013
f 1013 1026 1025
f 1026 1013 1014
f 480 1026 1014
f 1026 480 510
f 521 1027 505
f 1015 505 1027
f 1027 1016 1015
f 1016 1027 1028
f 1028 1017 1016
f 1017 1028 1029
f 1029 485 1017
f 485 1029 513
f 1018 503 464
f 503 1018 1030
f 1018 1031 1030
f 1031 1018 1019
f 1019 1032 1031
f 1032 1019 1020
f 1020 514 1032
f 514 1020 486
f 557 1033 558
f 1033 557 1034
f 1034 1035 1033
f 1035 1034 1036
f 1036 1037 1035
f 1037 1036 1038
f 1038 541 1037
f 541 1038 539
f 1039 590 527
f 590 1039 1040
f 1039 1041 1040
f 1041 1039 1042
f 1042 1043 1041
f 1043 1042 1044
f 1044 542 1043
f 542 1044 540
f 569 1045 567
f 1046 567 1045
f 1045 1047 1046
f 1047 1045 1048
f 1048 1049 1047
f 1049 1048 1050
f 1050 547 1049
f 549 1049 547
f 533 1051 594
f 1051 533 1052
f 1053 1051 1052
f 1051 1053 1054
f 1053 1055 1054
f 1055 1053 1056
f 548 1055 1056
f 1055 548 550
f 558 1021 518
f 1021 558 1033
f 1033 1022 1021
f 1022 1033 1035
f 1035 1023 1022
f 1023 1035 1037
f 1037 509 1023
f 509 1037 541
f 1024 527 492
f 527 1024 1039
f 1042 1024 1025
f 1024 1042 1039
f 1044 1025 1026
f 1025 1044 1042
f 540 1026 510
f 1026 540 1044
f 1027 567 1046
f 567 1027 521
f 1028 1027 1047
f 1047 1027 1046
f 1029 1047 1049
f 1047 1029 1028
f 513 1029 549
f 549 1029 1049
f 503 1030 533
f 533 1030 1052
f 1030 1053 1052
f 1053 1030 1031
f 1031 1032 1053
f 1053 1032 1056
f 1032 548 1056
f 548 1032 514
f 671 913 234
f 913 671 1057
f 1057 916 913
f 916 1057 1058
f 1058 1059 916
f 916 1059 918
f 1059 595 918
f 918 595 369
f 1060 224 907
f 224 1060 659
f 909 1061 1060
f 909 1060 907
f 1062 909 911
f 909 1062 1061
f 372 596 1062
f 372 1062 911
f 674 1057 671
f 1057 674 1063
f 1063 1064 1057
f 1057 1064 1058
f 1064 1065 1058
f 1058 1065 1059
f 1065 598 1059
f 1059 598 595
f 1060 1066 662
f 1060 662 659
f 1061 1067 1066
f 1061 1066 1060
f 1062 1068 1067
f 1062 1067 1061
f 596 597 1068
f 596 1068 1062
f 676 1063 674
f 1063 676 1069
f 1070 1063 1069
f 1063 1070 1064
f 1071 1064 1070
f 1064 1071 1065
f 599 1065 1071
f 1065 599 598
f 1066 1072 664
f 1066 664 662
f 1067 1073 1072
f 1067 1072 1066
f 1068 1074 1073
f 1068 1073 1067
f 597 600 1074
f 597 1074 1068
f 678 1069 676
f 1069 678 1075
f 1075 1076 1069
f 1069 1076 1070
f 1077 1070 1076
f 1070 1077 1071
f 601 1071 1077
f 1071 601 599
f 1072 1078 364
f 1072 364 664
f 1073 1079 1078
f 1073 1078 1072
f 1074 1080 1079
f 1074 1079 1073
f 600 602 1080
f 600 1080 1074
f 376 1075 678
f 1075 376 841
f 841 1076 1075
f 1076 841 843
f 843 845 1076
f 1076 845 1077
f 845 183 1077
f 1077 183 601
f 1078 847 365
f 1078 365 364
f 1079 849 847
f 1079 847 1078
f 1080 851 849
f 1080 849 1079
f 602 184 851
f 602 851 1080
f 1081 896 216
f 1081 216 651
f 898 1081 1082
f 1081 898 896
f 900 1082 1083
f 1082 900 898
f 358 1083 603
f 1083 358 900
f 206 1084 679
f 1084 206 889
f 892 1084 889
f 1084 892 1085
f 894 1085 892
f 1085 894 1086
f 894 359 1086
f 1086 359 604
f 1087 1081 651
f 1087 651 653
f 1088 1082 1081
f 1088 1081 1087
f 1089 1083 1082
f 1089 1082 1088
f 606 603 1083
f 606 1083 1089
f 679 1090 681
f 1090 679 1084
f 1084 1085 1090
f 1090 1085 1091
f 1085 1086 1091
f 1091 1086 1092
f 604 1092 1086
f 1092 604 605
f 1093 1087 653
f 1093 653 655
f 1088 1093 1094
f 1093 1088 1087
f 1095 1089 1088
f 1095 1088 1094
f 607 606 1089
f 607 1089 1095
f 681 1096 683
f 1096 681 1090
f 1090 1091 1096
f 1096 1091 1097
f 1091 1092 1097
f 1097 1092 1098
f 605 1098 1092
f 1098 605 608
f 848 1093 655
f 848 655 657
f 1094 848 850
f 848 1094 1093
f 852 1095 1094
f 852 1094 850
f 182 607 1095
f 182 1095 852
f 683 842 378
f 842 683 1096
f 1097 842 1096
f 842 1097 844
f 1098 844 1097
f 844 1098 846
f 608 846 1098
f 846 608 181
f 711 1099 261
f 261 1099 931
f 1099 933 931
f 933 1099 1100
f 1100 935 933
f 935 1100 1101
f 1101 609 935
f 935 609 387
f 1102 251 925
f 251 1102 699
f 1103 925 927
f 925 1103 1102
f 1104 927 929
f 927 1104 1103
f 610 929 390
f 929 610 1104
f 713 1105 711
f 711 1105 1099
f 1106 1099 1105
f 1099 1106 1100
f 1106 1107 1100
f 1100 1107 1101
f 1107 611 1101
f 1101 611 609
f 1108 699 1102
f 699 1108 701
f 1103 1109 1108
f 1103 1108 1102
f 1110 1103 1104
f 1103 1110 1109
f 610 612 1110
f 610 1110 1104
f 716 1105 713
f 1105 716 1111
f 1112 1105 1111
f 1105 1112 1106
f 1113 1106 1112
f 1106 1113 1107
f 613 1107 1113
f 1107 613 611
f 1114 701 1108
f 701 1114 703
f 1109 1115 1114
f 1109 1114 1108
f 1116 1109 1110
f 1109 1116 1115
f 612 614 1116
f 612 1116 1110
f 717 1117 716
f 716 1117 1111
f 1117 1112 1111
f 1112 1117 1118
f 1118 1119 1112
f 1112 1119 1113
f 615 1113 1119
f 1113 615 613
f 1120 703 1114
f 703 1120 384
f 1115 1121 1120
f 1115 1120 1114
f 1116 1122 1121
f 1116 1121 1115
f 614 616 1122
f 614 1122 1116
f 395 1117 717
f 1117 395 854
f 854 1118 1117
f 1118 854 856
f 856 858 1118
f 1118 858 1119
f 858 187 1119
f 1119 187 615
f 860 384 1120
f 384 860 383
f 1121 862 860
f 1121 860 1120
f 1122 864 862
f 1122 862 1121
f 616 188 864
f 616 864 1122
f 1123 950 243
f 1123 243 691
f 952 1123 1124
f 1123 952 950
f 1125 954 952
f 1125 952 1124
f 618 402 954
f 618 954 1125
f 269 1126 719
f 1126 269 943
f 943 946 1126
f 1126 946 1127
f 946 948 1127
f 1127 948 1128
f 948 617 1128
f 617 948 401
f 1123 694 1129
f 694 1123 691
f 1130 1124 1123
f 1130 1123 1129
f 1131 1125 1124
f 1131 1124 1130
f 618 1131 620
f 1131 618 1125
f 719 1126 721
f 721 1126 1132
f 1126 1127 1132
f 1132 1127 1133
f 1127 1128 1133
f 1133 1128 1134
f 1128 619 1134
f 619 1128 617
f 1129 696 1135
f 696 1129 694
f 1136 1130 1129
f 1136 1129 1135
f 1137 1131 1130
f 1137 1130 1136
f 620 1137 622
f 1137 620 1131
f 721 1132 724
f 724 1132 1138
f 1132 1133 1138
f 1138 1133 1139
f 1133 1140 1139
f 1140 1133 1134
f 1134 619 1140
f 1140 619 621
f 1135 698 859
f 698 1135 696
f 861 1136 1135
f 861 1135 859
f 1137 861 863
f 861 1137 1136
f 186 622 1137
f 186 1137 863
f 724 1138 394
f 394 1138 853
f 1138 1139 853
f 853 1139 855
f 1139 857 855
f 857 1139 1140
f 621 857 1140
f 857 621 185
f 1034 437 865
f 437 1034 557
f 1036 1034 867
f 1034 865 867
f 1038 867 869
f 867 1038 1036
f 539 869 194
f 869 539 1038
f 590 872 575
f 872 590 1040
f 1040 873 872
f 873 1040 1041
f 1043 873 1041
f 873 1043 875
f 542 875 1043
f 875 542 193
f 871 306 576
f 306 871 967
f 871 970 967
f 970 871 874
f 874 972 970
f 972 874 876
f 195 972 876
f 972 195 427
f 866 303 961
f 303 866 436
f 868 866 964
f 866 961 964
f 870 868 966
f 868 964 966
f 196 870 426
f 870 966 426
f 1045 569 877
f 569 473 877
f 1048 877 879
f 877 1048 1045
f 1050 1048 881
f 1048 879 881
f 547 1050 202
f 1050 881 202
f 594 884 583
f 884 594 1051
f 1054 884 1051
f 884 1054 886
f 1054 888 886
f 888 1054 1055
f 550 888 1055
f 888 550 201
f 883 346 584
f 346 883 991
f 883 994 991
f 994 883 885
f 887 994 885
f 994 887 996
f 203 996 887
f 996 203 463
f 878 343 985
f 343 878 472
f 880 878 987
f 878 985 987
f 882 880 990
f 880 987 990
f 204 990 462
f 990 204 882