# https://github.com/mikedh/trimesh
v 0.01228173 -0.00805661 0.00467594
v 0.13669019 -0.04082465 0.08767716
v 0.12510639 -0.06263467 0.08752711
v -0.00328045 0.00778554 1.00021535
v 0.00338945 -0.00494492 0.99768078
v 0.01082988 0.00778563 0.99838212
v -0.07031375 0.08042859 0.97189500
v -0.07644561 0.07189035 0.97104052
v -0.02026798 0.00778533 0.99768078
v -0.09044318 0.05010568 0.96561325
v -0.09830889 0.03685925 0.96104046
v -0.09384514 0.00721735 0.96290373
v -0.09776720 -0.02248950 0.96136458
v -0.08939841 -0.03563431 0.96600816
v -0.07300792 -0.05784432 0.97286448
v -0.06498623 -0.06690953 0.97507717
v 0.09429511 0.02311908 0.96592243
v 0.08952364 0.03242021 0.96481314
v 0.00306269 0.02051557 0.99768078
v 0.07432363 0.05427650 0.96058238
v 0.06389509 0.06683167 0.95746092
v 0.05218378 0.07377996 0.95875859
v 0.02439043 0.08912858 0.96001440
v 0.00830840 0.09752892 0.95997254
v -0.00524606 0.09764087 0.96357818
v -0.01880053 0.09775282 0.96718384
v -0.02970647 0.09674449 0.96889225
v -0.04137587 -0.07997126 0.97411647
v -0.02893191 -0.08152817 0.97120287
v -0.00195126 -0.08375530 0.96447860
v 0.01258544 -0.08442552 0.96066792
v 0.02802123 -0.07687791 0.96100960
v 0.04345703 -0.06933031 0.96135127
v 0.05770458 -0.06048143 0.96020814
v 0.07863894 -0.03932607 0.96169827
v 0.08532575 -0.02701960 0.96433151
v 0.08965293 -0.01774071 0.96533092
v -0.10961127 0.00704897 0.95792795
v -0.11042297 0.02806710 0.95554880
v -0.13626452 0.00674809 0.95745344
v -0.10936734 -0.01625303 0.95540921
v -0.13327625 -0.02205460 0.95254537
v -0.15000522 -0.01961608 0.95075482
v -0.13174263 0.03293640 0.95311624
v -0.15058780 0.03093431 0.95100150
v -0.01042870 -0.00372787 0.99936039
v 0.11201024 -0.08357154 0.08737705
v -0.01648796 -0.08308508 0.96828929
v 0.07195213 -0.05163254 0.95906502
v 0.09398011 -0.00846182 0.96633030
v 0.08475217 0.04172134 0.96370384
v 0.04047246 0.08072825 0.96005625
v -0.04061241 0.09573616 0.97060065
v -0.08257748 0.06335212 0.97018604
v -0.08102960 -0.04877913 0.97065177
v -0.10573947 0.09914220 0.08767716
v -0.11883561 0.07820533 0.08752711
v -0.17647828 0.11148535 0.14494545
v -0.15719299 0.14231685 0.14507934
v -0.13041941 0.05639531 0.08737705
v -0.13556493 0.03224195 0.08732447
v -0.20111373 0.04379998 0.14476427
v -0.19353650 0.07936806 0.14481156
v -0.13899066 0.00778534 0.08727188
v -0.13556493 -0.01667127 0.08732447
v -0.20111376 -0.02822930 0.14476427
v -0.20615845 0.00778534 0.14471698
v -0.13041941 -0.04082463 0.08737705
v -0.11883562 -0.06263466 0.08752711
v -0.17647830 -0.09591467 0.14494545
v -0.19353651 -0.06379738 0.14481156
v -0.22540009 0.13973040 0.21139798
v -0.20086204 0.17895954 0.21145581
v -0.25674562 0.05360938 0.21131920
v -0.24710451 0.09886523 0.21134015
v -0.25674562 -0.03803869 0.21131920
v -0.26316439 0.00778535 0.21129827
v -0.22540013 -0.12415971 0.21139798
v -0.24710453 -0.08329455 0.21134015
v -0.26284497 0.16134920 0.27925347
v -0.23428639 0.20700592 0.27925347
v -0.29932631 0.06111752 0.27925347
v -0.28810556 0.11378841 0.27925347
v -0.29932631 -0.04554681 0.27925347
v -0.30679676 0.00778535 0.27925347
v -0.26284499 -0.14577849 0.27925347
v -0.28810556 -0.09821769 0.27925347
v -0.28998813 0.17702030 0.35148548
v -0.25851517 0.22733625 0.35148548
v -0.33019237 0.06656004 0.35148548
v -0.31782655 0.12460594 0.35148548
v -0.33019237 -0.05098933 0.35148548
v -0.33842515 0.00778536 0.35148548
v -0.28998813 -0.16144960 0.35148548
v -0.31782653 -0.10903525 0.35148548
v -0.30946409 0.18826476 0.43060865
v -0.27589998 0.24192386 0.43060865
v -0.35233966 0.07046520 0.43060865
v -0.33915219 0.13236785 0.43060865
v -0.35233966 -0.05489449 0.43060865
v -0.36111946 0.00778536 0.43060865
v -0.30946414 -0.17269405 0.43060865
v -0.33915221 -0.11679715 0.43060865
v -0.32202265 0.19533375 0.51261911
v -0.28711826 0.25114347 0.51261911
v -0.36661140 0.07281435 0.51261911
v -0.35289534 0.13719858 0.51261911
v -0.36661347 -0.05757090 0.51261911
v -0.37574286 0.00762380 0.51261911
v -0.32202895 -0.18010529 0.51261911
v -0.35289945 -0.12195523 0.51261911
v -0.32607209 0.19656244 0.59264872
v -0.29075481 0.25304338 0.59264872
v -0.37118807 0.07258260 0.59264872
v -0.35730743 0.13774078 0.59264872
v -0.37119188 -0.05935907 0.59264872
v -0.38042738 0.00662099 0.59264872
v -0.32608393 -0.18336724 0.59264872
v -0.35731500 -0.12450658 0.59264872
v -0.32220768 0.19217607 0.66826253
v -0.28734819 0.24779076 0.66813971
v -0.36670680 0.07011788 0.66841704
v -0.35303316 0.13427508 0.66838535
v -0.36662978 -0.05977770 0.66838541
v -0.37579465 0.00518779 0.66844871
v -0.32211628 -0.18185829 0.66822241
v -0.35288006 -0.12390545 0.66832213
v -0.31172434 0.18247490 0.74624111
v -0.27804777 0.23561282 0.74577834
v -0.35458614 0.06587308 0.74680646
v -0.34149689 0.12717095 0.74670387
v -0.35416104 -0.05821219 0.74663910
v -0.36323988 0.00385496 0.74690906
v -0.31051754 -0.17481602 0.74576597
v -0.34065196 -0.11946102 0.74636913
v -0.26587901 0.22178402 0.80337727
v -0.29789372 0.17171980 0.80409002
v -0.27899918 0.15890319 0.85532346
v -0.24920216 0.20513556 0.85445474
v -0.32617587 0.11962290 0.80480274
v -0.33853511 0.06187150 0.80495948
v -0.31673708 0.05746644 0.85638123
v -0.30529795 0.11079703 0.85619216
v -0.34665788 0.00344948 0.80511623
v -0.33787010 -0.05502664 0.80469808
v -0.31591238 -0.05048000 0.85605690
v -0.32421002 0.00351983 0.85657028
v -0.32485409 -0.11272395 0.80427993
v -0.29580626 -0.16487545 0.80326943
v -0.27629178 -0.15191523 0.85428059
v -0.30365882 -0.10375739 0.85554352
v -0.23658157 0.19309674 0.88378886
v -0.26471487 0.14967161 0.88473023
v -0.24562356 0.13844596 0.91135091
v -0.21965831 0.17840122 0.91043920
v -0.28952702 0.10448719 0.88567157
v -0.30028938 0.05439523 0.88587491
v -0.27842244 0.05078149 0.91245652
v -0.26850438 0.09687061 0.91226261
v -0.30728947 0.00372534 0.88607824
v -0.29938500 -0.04699520 0.88551901
v -0.27752591 -0.04250596 0.91211530
v -0.28484940 0.00415925 0.91265043
v -0.28772955 -0.09703651 0.88495979
v -0.26168104 -0.14226853 0.88358016
v -0.24256591 -0.13015643 0.91028174
v -0.26672244 -0.08854759 0.91158017
v 0.13669019 0.05639528 0.08767716
v 0.12510640 0.07820531 0.08752711
v 0.18274908 0.11148531 0.14494545
v 0.19980729 0.07936801 0.14507934
v 0.11201027 0.09914218 0.08737705
v 0.09366560 0.11567502 0.08732447
v 0.13644956 0.16666295 0.14476427
v 0.16346380 0.14231681 0.14481156
v 0.07419842 0.13087009 0.08727188
v 0.05130551 0.14013161 0.08732447
v 0.07407038 0.20267760 0.14476427
v 0.10778232 0.18903912 0.14471698
v 0.02781533 0.14775215 0.08737705
v 0.00313539 0.14862532 0.08752711
v 0.00313540 0.21518535 0.14494545
v 0.03947890 0.21389955 0.14481156
v 0.23167091 0.13973035 0.21139798
v 0.25337531 0.09886518 0.21145581
v 0.17276067 0.20993685 0.21131920
v 0.20713284 0.17895949 0.21134015
v 0.09339112 0.25576088 0.21131920
v 0.13628529 0.23840767 0.21129827
v 0.00313539 0.27167540 0.21139798
v 0.04937786 0.27003937 0.21134015
v 0.26911579 0.16134913 0.27925347
v 0.29437638 0.11378834 0.27925347
v 0.20055326 0.24305875 0.27925347
v 0.24055722 0.20700585 0.27925347
v 0.10817924 0.29639090 0.27925347
v 0.15810147 0.27619442 0.27925347
v 0.00313539 0.31491298 0.27925347
v 0.05695455 0.31300888 0.27925347
v 0.29625893 0.17702024 0.35148548
v 0.32409733 0.12460587 0.35148548
v 0.22069966 0.26706825 0.35148548
v 0.26478599 0.22733620 0.35148548
v 0.11889892 0.32584295 0.35148548
v 0.17391569 0.30358541 0.35148548
v 0.00313539 0.34625522 0.35148548
v 0.06244676 0.34415680 0.35148548
v 0.31573491 0.18826468 0.43060865
v 0.34542299 0.13236777 0.43060865
v 0.23515526 0.28429580 0.43060865
v 0.28217082 0.24192379 0.43060865
v 0.12659059 0.34697562 0.43060865
v 0.18526284 0.32323925 0.43060865
v 0.00313540 0.36874410 0.43060865
v 0.06638759 0.36650630 0.43060865
v 0.32832444 0.19530113 0.51261911
v 0.35921583 0.13714585 0.51261911
v 0.24448284 0.29521257 0.51261911
v 0.29340094 0.25113135 0.51261911
v 0.13153174 0.36042029 0.51261911
v 0.19257221 0.33572988 0.51261911
v 0.00310123 0.38306236 0.51261911
v 0.06889924 0.38073834 0.51261911
v 0.33212026 0.19649983 0.59264872
v 0.36339350 0.13763899 0.59264872
v 0.24724792 0.29763310 0.59264872
v 0.29676780 0.25302077 0.59264872
v 0.13291548 0.36363384 0.59264872
v 0.19470123 0.33865149 0.59264872
v 0.00292621 0.38654688 0.59264872
v 0.06952054 0.38420394 0.59264872
v 0.32587104 0.19212104 0.66642202
v 0.35666198 0.13418760 0.66633081
v 0.24232504 0.29167706 0.66665297
v 0.29107840 0.24776887 0.66651323
v 0.12977637 0.35665029 0.66696412
v 0.19060591 0.33206518 0.66679271
v 0.00181144 0.37920819 0.66731795
v 0.06737659 0.37690972 0.66713554
v 0.30963077 0.18245557 0.73945616
v 0.33903919 0.12714219 0.73916077
v 0.22985805 0.27752641 0.74020412
v 0.27642203 0.23560315 0.73975156
v 0.12238290 0.33957779 0.74121186
v 0.18048287 0.31610512 0.74065669
v 0.00017456 0.36112592 0.74235779
v 0.06280437 0.35893652 0.74176701
v 0.31876901 0.11961566 0.79250275
v 0.29106492 0.17171491 0.79290586
v 0.26875637 0.15890043 0.84109520
v 0.29433760 0.11079385 0.84069926
v 0.25979071 0.22178157 0.79330892
v 0.21592944 0.26126811 0.79400038
v 0.19938258 0.24159350 0.84229658
v 0.23988160 0.20513332 0.84149115
v 0.16942970 0.29761166 0.79469186
v 0.11470030 0.31971937 0.79554006
v 0.10586453 0.29556755 0.84414520
v 0.15645020 0.27515462 0.84310203
v 0.05858758 0.33795932 0.79638829
v -0.00061272 0.34001876 0.79737006
v -0.00116567 0.31431254 0.84654999
v 0.05400509 0.31241219 0.84518836
v 0.27666293 0.10448087 0.86857139
v 0.25263641 0.14966617 0.86892428
v 0.23288941 0.13844750 0.89569489
v 0.25499225 0.09687528 0.89542740
v 0.22551627 0.19309228 0.86927719
v 0.18747854 0.22733834 0.87011697
v 0.17292803 0.20990826 0.89669822
v 0.20793777 0.17839962 0.89596238
v 0.14715509 0.25886208 0.87095675
v 0.09958963 0.27803522 0.87209722
v 0.09175091 0.25655218 0.89861263
v 0.13581297 0.23891068 0.89743406
v 0.05082820 0.29385745 0.87323766
v -0.00145620 0.29564207 0.87484876
v -0.00190393 0.27275224 0.90146715
v 0.04659008 0.27110908 0.89979118
v -0.02154456 -0.13218151 0.08767716
v 0.00313537 -0.13305467 0.08752711
v 0.00313537 -0.19961470 0.14494545
v -0.03320814 -0.19832888 0.14507934
v 0.02781530 -0.13218152 0.08737705
v 0.05130549 -0.12456099 0.08732447
v 0.07407036 -0.18710695 0.14476427
v 0.03947887 -0.19832890 0.14481156
v 0.07419841 -0.11529946 0.08727188
v 0.09366558 -0.10010438 0.08732447
v 0.13644954 -0.15109232 0.14476427
v 0.10778231 -0.17346848 0.14471698
v 0.18274906 -0.09591469 0.14494545
v 0.16346378 -0.12674619 0.14481156
v 0.00313536 -0.25610477 0.21139798
v -0.04310711 -0.25446875 0.21145581
v 0.09339110 -0.24019025 0.21131920
v 0.04937783 -0.25446875 0.21134015
v 0.17276066 -0.19436620 0.21131920
v 0.13628525 -0.22283704 0.21129827
v 0.23167091 -0.12415972 0.21139798
v 0.20713284 -0.16338887 0.21134015
v 0.00313535 -0.29934235 0.27925347
v -0.05068381 -0.29743828 0.27925347
v 0.10817921 -0.28082028 0.27925347
v 0.05695451 -0.29743828 0.27925347
v 0.20055321 -0.22748813 0.27925347
v 0.15810144 -0.26062379 0.27925347
v 0.26911577 -0.14577850 0.27925347
v 0.24055717 -0.19143522 0.27925347
v 0.00313535 -0.33068457 0.35148548
v -0.05617602 -0.32858617 0.35148548
v 0.11889888 -0.31027235 0.35148548
v 0.06244673 -0.32858619 0.35148548
v 0.22069959 -0.25149765 0.35148548
v 0.17391563 -0.28801481 0.35148548
v 0.29625890 -0.16144961 0.35148548
v 0.26478594 -0.21176555 0.35148548
v 0.00313535 -0.35317347 0.43060865
v -0.06011685 -0.35093565 0.43060865
v 0.12659053 -0.33140500 0.43060865
v 0.06638754 -0.35093567 0.43060865
v 0.23515522 -0.26872517 0.43060865
v 0.18526279 -0.30766863 0.43060865
v 0.31573486 -0.17269409 0.43060865
v 0.28217078 -0.22635319 0.43060865
v 0.00310090 -0.36791482 0.51261911
v -0.06269640 -0.36557635 0.51261911
v 0.13152870 -0.34529287 0.51261911
v 0.06889863 -0.36559489 0.51261911
v 0.24447538 -0.28011213 0.51261911
v 0.19256679 -0.32061292 0.51261911
v 0.32831590 -0.18022672 0.51261911
v 0.29339151 -0.23604162 0.51261911
v 0.00292684 -0.37350416 0.59264872
v -0.06366304 -0.37111509 0.59264872
v 0.13290936 -0.35063724 0.59264872
v 0.06951930 -0.37116550 0.59264872
v 0.24723243 -0.28468782 0.59264872
v 0.19469030 -0.32566482 0.59264872
v 0.33210315 -0.18360506 0.59264872
v 0.29674794 -0.24008436 0.59264872
v 0.00181224 -0.36901521 0.66731795
v -0.06373456 -0.36665968 0.66750037
v 0.12977022 -0.34649449 0.66696412
v 0.06737545 -0.36669869 0.66713554
v 0.24230984 -0.28156597 0.66665297
v 0.19059480 -0.32189747 0.66679271
v 0.32585254 -0.18205241 0.66642202
v 0.29105930 -0.23764673 0.66651323
v 0.00017502 -0.35350442 0.74252581
v -0.06241712 -0.35126036 0.74301592
v 0.12238085 -0.33197098 0.74153179
v 0.06280387 -0.35126874 0.74203570
v 0.22985118 -0.26993704 0.74057861
v 0.18047928 -0.30846050 0.74102789
v 0.30962199 -0.17487828 0.73977939
v 0.27641198 -0.22797003 0.74012933
v -0.05936585 -0.33106882 0.79863737
v -0.00041120 -0.33318379 0.79794170
v -0.00042122 -0.30732313 0.84748883
v -0.05490471 -0.30536957 0.84830749
v 0.05858742 -0.33107094 0.79724604
v 0.11469976 -0.31288807 0.79648792
v 0.10591466 -0.28857998 0.84576626
v 0.05410638 -0.30536957 0.84667014
v 0.16942878 -0.29072909 0.79572986
v 0.21592770 -0.25444119 0.79504193
v 0.19938093 -0.23461007 0.84403166
v 0.15644858 -0.26811565 0.84486237
v 0.25978819 -0.21490187 0.79435403
v 0.29106271 -0.16489102 0.79380746
v 0.26875448 -0.15191976 0.84253176
v 0.23988000 -0.19809898 0.84320094
v -0.05146066 -0.28640079 0.87689343
v -0.00023582 -0.28823601 0.87602026
v 0.00060080 -0.26494202 0.90279426
v -0.04735409 -0.26285355 0.90371107
v 0.05103081 -0.28640079 0.87514709
v 0.09968994 -0.27063283 0.87418215
v 0.09338555 -0.24915283 0.90096061
v 0.04858712 -0.26364885 0.90187748
v 0.14715187 -0.25141268 0.87321721
v 0.18747531 -0.21994424 0.87232324
v 0.17417781 -0.20252999 0.89919084
v 0.13706495 -0.23147095 0.90004373
v 0.22551304 -0.18565214 0.87142926
v 0.25263269 -0.14227759 0.87070299
v 0.23360249 -0.13068576 0.89763590
v 0.20916984 -0.17098128 0.89833795
v -0.01504389 0.00778533 0.00467594
v -0.00347144 -0.00365804 0.00213463
v -0.06885348 -0.11690303 0.08795076
v -0.08144561 -0.10734797 0.08786277
v -0.05428250 -0.12303061 0.08786277
v -0.09419595 0.11167449 0.08776997
v -0.08144559 0.12291863 0.08786277
v -0.10573949 -0.08357153 0.08767716
v -0.09419597 -0.09610383 0.08776997
v -0.13740369 0.16350277 0.14523820
v -0.11587185 -0.16718724 0.14539706
v -0.13740371 -0.14793208 0.14523820
v -0.17407566 0.20748872 0.21154994
v -0.14509202 -0.21797105 0.21164409
v -0.17407568 -0.19191802 0.21154994
v -0.20214045 0.24115952 0.27925347
v -0.16744924 -0.25684882 0.27925347
v -0.20214047 -0.22558885 0.27925347
v -0.22248370 0.26556739 0.35148548
v -0.18365474 -0.28503155 0.35148548
v -0.22248372 -0.24999672 0.35148548
v -0.23708425 0.28308024 0.43059813
v -0.19529002 -0.30525246 0.43058759
v -0.23708430 -0.26750955 0.43059813
v -0.24652669 0.29417901 0.51259242
v -0.20283266 -0.31848614 0.51256572
v -0.24652749 -0.27898376 0.51259241
v -0.24963521 0.29664535 0.59261071
v -0.20539221 -0.32353107 0.59257271
v -0.24964867 -0.28350026 0.59261072
v -0.24696024 0.29058815 0.66796922
v -0.20347666 -0.31958759 0.66779872
v -0.24694857 -0.28030973 0.66796070
v -0.23903172 0.27619447 0.74506863
v -0.19647284 -0.30575305 0.74414314
v -0.23797827 -0.26854311 0.74465297
v -0.22888705 0.25965513 0.80226163
v -0.21506034 0.23964318 0.85309403
v -0.22637423 -0.25281265 0.80130116
v -0.18685091 -0.28750803 0.80034335
v -0.17471225 -0.26422279 0.85060139
v -0.21141628 -0.23264846 0.85180952
v -0.20461515 0.22514438 0.88231839
v -0.19062976 0.20742088 0.90902973
v -0.20032636 -0.21772771 0.88089143
v -0.16578089 -0.24701922 0.87958229
v -0.15460291 -0.22555777 0.90649131
v -0.18615645 -0.19908889 0.90773731
v 0.01222503 0.02352904 0.00467594
v 0.14177171 0.04013215 0.08776997
v 0.14513425 0.02346795 0.08786277
v -0.02154454 0.14775216 0.08767716
v -0.05428247 0.13860127 0.08786277
v -0.03816958 0.14402132 0.08776997
v 0.20826020 0.05163702 0.14523820
v -0.08889167 0.19833490 0.14539706
v -0.06145029 0.20735447 0.14523820
v 0.26468911 0.06140292 0.21154994
v -0.11826164 0.24903222 0.21164409
v -0.08120726 0.26110629 0.21154994
v 0.30788130 0.06887229 0.27925347
v -0.14075220 0.28783303 0.27925347
v -0.09633466 0.30224653 0.27925347
v 0.33919073 0.07428615 0.35148548
v -0.15705639 0.31595878 0.35148548
v -0.10730086 0.33206824 0.35148548
v 0.36165759 0.07817418 0.43059813
v -0.16875058 0.33614564 0.43058759
v -0.11516711 0.35346908 0.43059813
v 0.37618964 0.08045040 0.51259242
v -0.17630388 0.34898387 0.51256572
v -0.12026516 0.36708607 0.51259242
v 0.38059509 0.08017271 0.59261071
v -0.17877670 0.35202589 0.59257270
v -0.12199689 0.37035748 0.59261071
v 0.37356050 0.07777735 0.66627102
v -0.17670546 0.34533228 0.66772660
v -0.12099091 0.36332099 0.66761349
v 0.35506459 0.07366376 0.73904728
v -0.16980249 0.32900254 0.74399918
v -0.11685441 0.34606555 0.74347388
v 0.33372776 0.06972166 0.79243794
v 0.30797615 0.06535722 0.84069238
v -0.11122035 0.32596381 0.79940116
v -0.16125621 0.31002369 0.80045044
v -0.14992909 0.28696244 0.85074444
v -0.10376887 0.30150829 0.84932802
v 0.28933684 0.06230681 0.86860622
v 0.26648376 0.05873347 0.89550115
v -0.09819542 0.28375337 0.87806875
v -0.14145076 0.27022746 0.87967766
v -0.13030134 0.24973667 0.90634027
v -0.09090139 0.26199936 0.90474170
v -0.03816960 -0.12845067 0.08776997
v 0.14513425 -0.00789732 0.08786277
v 0.14177171 -0.02456152 0.08776997
v -0.06145033 -0.19178382 0.14523820
v 0.21416969 -0.00779168 0.14539706
v 0.20826020 -0.03606640 0.14523820
v -0.08120728 -0.24553564 0.21154994
v 0.27275985 -0.00770520 0.21164409
v 0.26468911 -0.04583229 0.21154994
v -0.09633471 -0.28667588 0.27925347
v 0.31760759 -0.00762821 0.27925347
v 0.30788130 -0.05330167 0.27925347
v -0.10730088 -0.31649759 0.35148548
v 0.35011732 -0.00757124 0.35148548
v 0.33919073 -0.05871554 0.35148548
v -0.11516717 -0.33789843 0.43059813
v 0.37344675 -0.00753723 0.43058759
v 0.36165759 -0.06260359 0.43059813
v -0.12027451 -0.35191412 0.51259241
v 0.38853787 -0.00779420 0.51256572
v 0.37618585 -0.06539106 0.51259242
v -0.12199644 -0.35726904 0.59261072
v 0.39311586 -0.00892526 0.59257270
v 0.38058771 -0.06730448 0.59261071
v -0.12099297 -0.35309052 0.66761349
v 0.38586605 -0.01041936 0.66621124
v 0.37355166 -0.06772996 0.66627102
v -0.11671828 -0.33843020 0.74345423
v 0.36672631 -0.01174366 0.73896775
v 0.35506087 -0.06609066 0.73919861
v -0.11013821 -0.31912536 0.79925327
v -0.10152876 -0.29451361 0.84911133
v 0.33372682 -0.06289881 0.79287054
v 0.34458740 -0.01218207 0.79248018
v 0.31783491 -0.01216718 0.84086490
v 0.30797509 -0.05837391 0.84136375
v -0.09511266 -0.27633681 0.87782601
v -0.08724643 -0.25371265 0.90465063
v 0.28933475 -0.05491295 0.86942260
v 0.29846207 -0.01200615 0.86886845
v 0.27470993 -0.01158518 0.89584408
v 0.26657695 -0.05049052 0.89638899
v -0.00347144 0.01922869 0.00213463
v -0.06885346 0.13247369 0.08795076
v -0.10336454 -0.17667793 0.14550103
v -0.08889171 -0.18276423 0.14539706
v -0.10336451 0.19224861 0.14550103
v -0.11587182 0.18275791 0.14539706
v -0.13265415 -0.22740903 0.21168864
v -0.11826167 -0.23346155 0.21164409
v -0.13265413 0.24297971 0.21168864
v -0.14509200 0.23354172 0.21164409
v -0.15507319 -0.26623991 0.27925347
v -0.14075225 -0.27226235 0.27925347
v -0.15507314 0.28181058 0.27925347
v -0.16744919 0.27241950 0.27925347
v -0.17132443 -0.29438793 0.35148548
v -0.15705641 -0.30038811 0.35148548
v -0.17132440 0.30995860 0.35148548
v -0.18365472 0.30060222 0.35148548
v -0.18298718 -0.31458836 0.43058614
v -0.16875063 -0.32057496 0.43058759
v -0.18298713 0.33015903 0.43058614
v -0.19528997 0.32082313 0.43058759
v -0.19054363 -0.32781233 0.51256220
v -0.17632240 -0.33379185 0.51256572
v -0.19053756 0.34299840 0.51256220
v -0.20283953 0.33366348 0.51256572
v -0.19305350 -0.33288919 0.59256774
v -0.17877831 -0.33889660 0.59257271
v -0.19304502 0.34602487 0.59256774
v -0.20538144 0.33666569 0.59257270
v -0.19105859 -0.32900485 0.66775344
v -0.17671229 -0.33504673 0.66772660
v -0.19104927 0.33929525 0.66775344
v -0.20347127 0.32987898 0.66779872
v -0.18397231 -0.31523127 0.74401342
v -0.16953334 -0.32130725 0.74389254
v -0.18434026 0.32292602 0.74416092
v -0.19701294 0.31344798 0.74435892
v -0.17411934 -0.29702596 0.80009024
v -0.16170338 -0.27378055 0.85023419
v -0.15950608 -0.30312841 0.79986918
v -0.14685507 -0.27990936 0.84991520
v -0.17605093 0.30392109 0.80077915
v -0.16497789 0.28083369 0.85122364
v -0.18901821 0.29440319 0.80114599
v -0.17821303 0.27127595 0.85173332
v -0.15257174 -0.25660358 0.87914215
v -0.14122168 -0.23518081 0.90600968
v -0.13754646 -0.26274994 0.87875860
v -0.12601810 -0.24132940 0.90559017
v -0.15666796 0.26408127 0.88025169
v -0.14567568 0.24357280 0.90697395
v -0.17007276 0.25449694 0.88084794
v -0.15919866 0.23396520 0.90762030
v 0.01634905 0.00778532 0.00213463
v 0.14711310 0.00778531 0.08795076
v 0.21613523 0.00778531 0.14550103
v 0.21416969 0.02336230 0.14539706
v 0.27471447 0.00778531 0.21168864
v 0.27275985 0.02327582 0.21164409
v 0.31955250 0.00778531 0.27925347
v 0.31760759 0.02319882 0.27925347
v 0.35205502 0.00778531 0.35148548
v 0.35011732 0.02314186 0.35148548
v 0.37538048 0.00778529 0.43058614
v 0.37344675 0.02310782 0.43058759
v 0.39047242 0.00752988 0.51256220
v 0.38853787 0.02285395 0.51256572
v 0.39505658 0.00644204 0.59256774
v 0.39311645 0.02180888 0.59257270
v 0.38782966 0.00503994 0.66621427
v 0.38586605 0.02049924 0.66621124
v 0.36870392 0.00381241 0.73894302
v 0.36672631 0.01936849 0.73893380
v 0.34656708 0.00343881 0.79239702
v 0.31981735 0.00351978 0.84072411
v 0.34458740 0.01905969 0.79237309
v 0.31783491 0.01920674 0.84068547
v 0.30044657 0.00372529 0.86868945
v 0.27670258 0.00418386 0.89564308
v 0.29846209 0.01945673 0.86864103
v 0.27470995 0.01995994 0.89557490
v 0.00313539 0.00778532 0.00000000
v -0.01069193 0.01929852 0.99916405
v -0.05371391 -0.07463333 0.97527846
v -0.06937116 -0.10195397 0.96934599
v -0.05606663 -0.10898648 0.96793816
v -0.08467612 -0.12947943 0.96010670
v -0.07083585 -0.13681101 0.95959986
v -0.08854118 0.14239421 0.95969209
v -0.07250722 0.11584324 0.96640439
v -0.05629883 0.12431647 0.96440064
v -0.07282621 0.15166549 0.95718917
v -0.05603868 0.08932925 0.97280892
v 0.15895574 0.00648385 0.95182098
v 0.12754423 0.00698292 0.95978939
v 0.12733202 -0.01049966 0.95877271
v 0.15955660 -0.00991171 0.95076213
v 0.09570116 0.00739307 0.96763875
v -0.16146068 0.12959114 0.94954019
v -0.17893289 0.10058746 0.95025128
v -0.14577113 0.08038184 0.95406247
v -0.13084296 0.10507823 0.95826233
v -0.19640510 0.07158379 0.95096237
v -0.20222058 0.03860572 0.95114853
v -0.16518225 0.03093092 0.94972938
v -0.16069931 0.05568545 0.94986260
v -0.20803606 0.00562765 0.95133471
v -0.20149102 -0.02734130 0.95103109
v -0.16442632 -0.02033330 0.94942670
v -0.16966520 0.00617639 0.94959614
v -0.19494596 -0.06031026 0.95072745
v -0.17633706 -0.08928496 0.94984658
v -0.14351661 -0.06961229 0.95375926
v -0.15918743 -0.04684299 0.94925726
v 0.18270866 0.07164119 0.93708326
v 0.16591780 0.10063010 0.93713409
v 0.13017424 0.08369772 0.94308417
v 0.14599353 0.05893706 0.94788541
v 0.14912695 0.12961900 0.93718489
v 0.12301089 0.15113820 0.93773108
v 0.09623526 0.12797994 0.93570422
v 0.11435496 0.10845839 0.93828295
v 0.09689484 0.17265741 0.93827725
v 0.06427766 0.18410862 0.93936129
v 0.04699365 0.15444881 0.93686145
v 0.07811557 0.14750150 0.93312546
v 0.03166049 0.19555982 0.94044534
v -0.00369471 0.19555898 0.94195825
v -0.00860023 0.15952311 0.94700964
v 0.01587172 0.16139612 0.94059747
v -0.03337130 -0.18551105 0.94458351
v 0.00298851 -0.18681060 0.94363604
v 0.00175639 -0.14724056 0.94861632
v -0.02810697 -0.14589922 0.95467236
v 0.03934831 -0.18811016 0.94268856
v 0.07127243 -0.17666959 0.94184399
v 0.05697244 -0.13975001 0.94177135
v 0.03161976 -0.14858190 0.94256025
v 0.10319654 -0.16522904 0.94099940
v 0.12889074 -0.14371657 0.94033945
v 0.10259153 -0.11400893 0.94036471
v 0.08232512 -0.13091812 0.94098244
v 0.15458496 -0.12220409 0.93967953
v 0.16967183 -0.09198078 0.93913700
v 0.13534995 -0.07222743 0.94442239
v 0.12285795 -0.09709972 0.93974696
v -0.14207075 0.14745046 0.94882069
v -0.11802749 0.11968293 0.95854108
v -0.13747473 -0.13628364 0.94809685
v -0.11722130 -0.15430762 0.94722796
v -0.09851640 -0.12214784 0.96061353
v -0.11318111 -0.10726472 0.95943739
v 0.18912837 0.04662799 0.93723122
v 0.15278101 0.04375478 0.94886230
v -0.06515263 0.18887687 0.94498715
v -0.09125535 0.18219561 0.94650314
v -0.05294920 0.15465779 0.95530550
v -0.06056570 -0.17782832 0.94537643
v -0.04947141 -0.14135512 0.95713611
v 0.19015302 -0.03591524 0.93817408
v 0.19554734 -0.01007303 0.93775367
v 0.15380856 -0.03161556 0.94973739
v -0.10343229 -0.16399993 0.94667516
v -0.08776011 -0.17014558 0.94616935
v -0.10797181 0.17547682 0.94677008
v -0.12268081 0.16530976 0.94810116
v -0.10521202 0.13428762 0.95881981
v 0.19756071 0.00575170 0.93750620
v 0.19554808 0.02161477 0.93737921
v 0.15940505 0.02268056 0.95036780
v -0.10640161 0.08490834 0.96467807
v -0.11692778 0.06858305 0.95889050
v -0.15437272 0.01911476 0.95137965
v -0.12861430 -0.03959779 0.95585701
v -0.11635611 -0.05539566 0.96042617
v 0.11593215 0.04959016 0.95618676
v 0.10607068 0.06685151 0.95077645
v 0.06886747 0.08555690 0.94925478
v 0.05804649 0.08927683 0.95009468
v 0.08386106 0.09413283 0.94436374
v 0.09118720 0.11337260 0.94032675
v 0.08193962 0.12358923 0.93925453
v 0.07192428 0.10375322 0.94653593
v 0.00820024 0.13003614 0.95008395
v 0.02537685 0.10653027 0.94846537
v 0.02190328 0.12450557 0.94255549
v 0.05998752 0.11337361 0.94870811
v 0.07269203 0.13380586 0.93818231
v 0.05854890 0.13779478 0.93939528
v 0.04094540 0.11893958 0.94563180
v -0.00941117 0.12882547 0.95545161
v -0.02351383 -0.11414963 0.96205430
v -0.00242196 -0.11573926 0.95601416
v 0.03324821 -0.09375794 0.94916029
v 0.04177977 -0.08723412 0.95092236
v 0.04903719 -0.12211082 0.94339693
v 0.06329543 -0.12271150 0.94362997
v 0.05031134 -0.08071031 0.95268441
v 0.05883480 -0.07681651 0.95056481
v 0.09976809 -0.07210042 0.94713316
v 0.08626093 -0.08596058 0.94677217
v 0.08982881 -0.09786478 0.94204172
v 0.10838002 -0.05415398 0.95210993
v -0.09344559 -0.08293809 0.96697190
v -0.08279326 -0.09468264 0.96894844
v -0.03979023 -0.11156806 0.96499622
v -0.08882178 0.10702095 0.96597150
v -0.04166071 0.12596563 0.96260997
v -0.09761169 0.09596465 0.96532478
v 0.12160566 0.03694965 0.95727738
v 0.12727916 0.02430914 0.95836803
v 0.12216197 -0.02335360 0.95792970
v 0.03630118 0.09976352 0.94969997
v 0.04722551 0.09299677 0.95093456
v 0.09620920 0.08411287 0.94536614
v 0.04440576 0.14178371 0.94060824
v -0.12745395 0.05225776 0.95310292
v -0.15408144 -0.00616043 0.95125629
v -0.15815765 0.00729522 0.95175777
v 0.01866992 -0.11732888 0.94997402
v 0.03780273 -0.10958215 0.94741169
v 0.06735826 -0.07292271 0.94844519
v 0.06330211 -0.10093950 0.95047557
v 0.07478152 -0.09345004 0.94862387
v 0.08369124 -0.11058847 0.94295237
v 0.07755366 -0.12331217 0.94386302
v 0.05055242 -0.10526082 0.94894363
v 0.19980728 -0.06379739 0.14507934
v 0.25337531 -0.08329456 0.21145581
v 0.29437636 -0.09821771 0.27925347
v 0.32409733 -0.10903527 0.35148548
v 0.34542296 -0.11679718 0.43060865
v 0.35920828 -0.12208057 0.51261911
v 0.36337943 -0.12475263 0.59264872
v 0.35664435 -0.12410422 0.66633081
v 0.33903182 -0.11952163 0.73942946
v 0.31876715 -0.11273913 0.79326091
v 0.29433551 -0.10376032 0.84186258
v 0.27665876 -0.09704234 0.86997673
v 0.25517749 -0.08867329 0.89693386
v 0.18475870 -0.06175745 0.93859449
v 0.14784195 -0.04735514 0.94909785
v 0.11699193 -0.03620753 0.95708670
v -0.10409791 -0.07119353 0.96499535
v -0.12784581 -0.09238158 0.95826125
v -0.15772816 -0.11825967 0.94896574
v -0.23234902 -0.18563999 0.88220057
v -0.21536289 -0.17005488 0.90898333
v -0.26305176 -0.21488608 0.80225898
v -0.24546002 -0.19809290 0.85301766
v -0.28731962 -0.23745969 0.66812268
v -0.27649408 -0.22790687 0.74516280
v -0.29077077 -0.23985775 0.59264872
v -0.28712666 -0.23592563 0.51261911
v -0.27590002 -0.22635316 0.43060865
v -0.25851519 -0.21176555 0.35148548
v -0.23428642 -0.19143522 0.27925347
v -0.20086206 -0.16338885 0.21145581
v -0.15719300 -0.12674616 0.14507934
v -0.02702258 0.12761480 0.96081928
v -0.03307218 0.15765011 0.95342184
v -0.03904992 0.19555812 0.94347116
v -0.05368367 0.29385749 0.87645984
v -0.05033546 0.27110998 0.90314316
v -0.05976655 0.33795874 0.79835189
v -0.05628311 0.31241221 0.84791162
v -0.06373729 0.37690130 0.66750037
v -0.06241854 0.35893414 0.74294857
v -0.06366553 0.38419342 0.59264872
v -0.06269636 0.38073321 0.51261911
v -0.06011679 0.36650630 0.43060865
v -0.05617598 0.34415684 0.35148548
v -0.05068378 0.31300893 0.27925347
v -0.04310708 0.27003937 0.21145581
v -0.03320810 0.21389953 0.14507934
v -0.10780733 -0.20746804 0.92970569
v -0.12326178 -0.20131852 0.93017378
v -0.13687403 -0.19164915 0.93070433
v -0.16335859 -0.16940844 0.93180869
v -0.18821460 -0.14541724 0.93291308
v -0.21167235 -0.11085449 0.93404621
v -0.23302300 -0.07512158 0.93517939
v -0.24212288 -0.03534786 0.93563855
v -0.24881602 0.00485179 0.93609771
v -0.24297179 0.04502724 0.93591282
v -0.23471258 0.08483646 0.93572789
v -0.21463239 0.12056210 0.93488856
v -0.19241643 0.15517707 0.93404929
v -0.16800096 0.17913565 0.93285807
v -0.14191362 0.20140253 0.93166684
v -0.12800550 0.21116747 0.93081176
v -0.11217778 0.21748330 0.93022501
v -0.07899368 0.22740322 0.92865483
v -0.04500292 0.23516139 0.92708472
v -0.00268743 0.23628656 0.92540083
v 0.03967908 0.23516052 0.92371693
v 0.07900356 0.22232899 0.92253343
v 0.11757685 0.20738384 0.92134991
v 0.14953587 0.18214318 0.92073947
v 0.18005120 0.15518498 0.92012895
v 0.20133625 0.12057916 0.91997972
v 0.22066834 0.08486257 0.91983043
v 0.23000507 0.05302709 0.91995196
v 0.23710537 0.02075105 0.92007348
v 0.23910910 0.00491975 0.92017115
v 0.23710518 -0.01089141 0.92040029
v 0.23040262 -0.04352988 0.92090713
v 0.22146184 -0.07566754 0.92141397
v 0.20334719 -0.11231565 0.92205792
v 0.18326625 -0.14778383 0.92270191
v 0.15288293 -0.17476594 0.92347576
v 0.12103268 -0.19995417 0.92424958
v 0.08312898 -0.21492201 0.92511236
v 0.04444465 -0.22770022 0.92597511
v 0.00182519 -0.22793866 0.92693231
v -0.04077847 -0.22585749 0.92788950
v -0.07467658 -0.21777345 0.92879760
f 1 2 3
f 4 5 6
f 7 8 9
f 9 10 11
f 11 12 9
f 12 13 9
f 13 14 9
f 9 15 16
f 17 18 19
f 19 20 21
f 21 22 19
f 19 23 24
f 24 25 19
f 26 27 19
f 28 29 5
f 5 30 31
f 31 32 5
f 33 34 5
f 5 35 36
f 36 37 5
f 38 39 40
f 41 38 40
f 41 40 42
f 40 43 42
f 44 45 40
f 40 39 44
f 46 5 4
f 1 3 47
f 5 29 48
f 48 30 5
f 5 32 33
f 5 34 49
f 5 37 50
f 49 35 5
f 19 18 51
f 51 20 19
f 19 22 52
f 52 23 19
f 19 25 26
f 19 27 53
f 9 8 54
f 54 10 9
f 9 14 55
f 55 15 9
f 56 57 58
f 56 58 59
f 60 61 62
f 60 62 63
f 64 65 66
f 64 66 67
f 68 69 70
f 68 70 71
f 59 58 72
f 59 72 73
f 63 62 74
f 63 74 75
f 67 66 76
f 67 76 77
f 71 70 78
f 71 78 79
f 73 72 80
f 73 80 81
f 75 74 82
f 75 82 83
f 77 76 84
f 77 84 85
f 79 78 86
f 79 86 87
f 81 80 88
f 81 88 89
f 83 82 90
f 83 90 91
f 85 84 92
f 85 92 93
f 87 86 94
f 87 94 95
f 89 88 96
f 89 96 97
f 91 90 98
f 91 98 99
f 93 92 100
f 93 100 101
f 95 94 102
f 95 102 103
f 97 96 104
f 97 104 105
f 99 98 106
f 99 106 107
f 101 100 108
f 101 108 109
f 103 102 110
f 103 110 111
f 105 104 112
f 105 112 113
f 107 106 114
f 107 114 115
f 109 108 116
f 109 116 117
f 111 110 118
f 111 118 119
f 113 112 120
f 113 120 121
f 115 114 122
f 115 122 123
f 117 116 124
f 117 124 125
f 119 118 126
f 119 126 127
f 121 120 128
f 121 128 129
f 123 122 130
f 123 130 131
f 125 124 132
f 125 132 133
f 127 126 134
f 127 134 135
f 136 137 138
f 136 138 139
f 140 141 142
f 140 142 143
f 144 145 146
f 144 146 147
f 148 149 150
f 148 150 151
f 152 153 154
f 152 154 155
f 156 157 158
f 156 158 159
f 160 161 162
f 160 162 163
f 164 165 166
f 164 166 167
f 168 169 170
f 168 170 171
f 172 173 174
f 172 174 175
f 176 177 178
f 176 178 179
f 180 181 182
f 180 182 183
f 171 170 184
f 171 184 185
f 175 174 186
f 175 186 187
f 179 178 188
f 179 188 189
f 183 182 190
f 183 190 191
f 185 184 192
f 185 192 193
f 187 186 194
f 187 194 195
f 189 188 196
f 189 196 197
f 191 190 198
f 191 198 199
f 193 192 200
f 193 200 201
f 195 194 202
f 195 202 203
f 197 196 204
f 197 204 205
f 199 198 206
f 199 206 207
f 201 200 208
f 201 208 209
f 203 202 210
f 203 210 211
f 205 204 212
f 205 212 213
f 207 206 214
f 207 214 215
f 209 208 216
f 209 216 217
f 211 210 218
f 211 218 219
f 213 212 220
f 213 220 221
f 215 214 222
f 215 222 223
f 217 216 224
f 217 224 225
f 219 218 226
f 219 226 227
f 221 220 228
f 221 228 229
f 223 222 230
f 223 230 231
f 225 224 232
f 225 232 233
f 227 226 234
f 227 234 235
f 229 228 236
f 229 236 237
f 231 230 238
f 231 238 239
f 233 232 240
f 233 240 241
f 235 234 242
f 235 242 243
f 237 236 244
f 237 244 245
f 239 238 246
f 239 246 247
f 248 249 250
f 248 250 251
f 252 253 254
f 252 254 255
f 256 257 258
f 256 258 259
f 260 261 262
f 260 262 263
f 264 265 266
f 264 266 267
f 268 269 270
f 268 270 271
f 272 273 274
f 272 274 275
f 276 277 278
f 276 278 279
f 280 281 282
f 280 282 283
f 284 285 286
f 284 286 287
f 288 289 290
f 288 290 291
f 47 3 292
f 47 292 293
f 283 282 294
f 283 294 295
f 287 286 296
f 287 296 297
f 291 290 298
f 291 298 299
f 293 292 300
f 293 300 301
f 295 294 302
f 295 302 303
f 297 296 304
f 297 304 305
f 299 298 306
f 299 306 307
f 301 300 308
f 301 308 309
f 303 302 310
f 303 310 311
f 305 304 312
f 305 312 313
f 307 306 314
f 307 314 315
f 309 308 316
f 309 316 317
f 311 310 318
f 311 318 319
f 313 312 320
f 313 320 321
f 315 314 322
f 315 322 323
f 317 316 324
f 317 324 325
f 319 318 326
f 319 326 327
f 321 320 328
f 321 328 329
f 323 322 330
f 323 330 331
f 325 324 332
f 325 332 333
f 327 326 334
f 327 334 335
f 329 328 336
f 329 336 337
f 331 330 338
f 331 338 339
f 333 332 340
f 333 340 341
f 335 334 342
f 335 342 343
f 337 336 344
f 337 344 345
f 339 338 346
f 339 346 347
f 341 340 348
f 341 348 349
f 343 342 350
f 343 350 351
f 345 344 352
f 345 352 353
f 347 346 354
f 347 354 355
f 349 348 356
f 349 356 357
f 358 359 360
f 358 360 361
f 362 363 364
f 362 364 365
f 366 367 368
f 366 368 369
f 370 371 372
f 370 372 373
f 374 375 376
f 374 376 377
f 378 379 380
f 378 380 381
f 382 383 384
f 382 384 385
f 386 387 388
f 386 388 389
f 390 391 392
f 390 392 393
f 391 1 394
f 391 394 392
f 390 56 395
f 390 395 396
f 390 60 57
f 390 57 56
f 390 64 61
f 390 61 60
f 390 68 65
f 390 65 64
f 390 397 69
f 390 69 68
f 390 393 398
f 390 398 397
f 395 56 59
f 395 59 399
f 398 393 400
f 398 400 401
f 399 59 73
f 399 73 402
f 401 400 403
f 401 403 404
f 402 73 81
f 402 81 405
f 404 403 406
f 404 406 407
f 405 81 89
f 405 89 408
f 407 406 409
f 407 409 410
f 408 89 97
f 408 97 411
f 410 409 412
f 410 412 413
f 411 97 105
f 411 105 414
f 413 412 415
f 413 415 416
f 414 105 113
f 414 113 417
f 416 415 418
f 416 418 419
f 417 113 121
f 417 121 420
f 419 418 421
f 419 421 422
f 420 121 129
f 420 129 423
f 422 421 424
f 422 424 425
f 426 136 139
f 426 139 427
f 428 429 430
f 428 430 431
f 432 152 155
f 432 155 433
f 434 435 436
f 434 436 437
f 438 168 439
f 438 439 440
f 438 172 169
f 438 169 168
f 438 176 173
f 438 173 172
f 438 180 177
f 438 177 176
f 438 441 181
f 438 181 180
f 438 442 443
f 438 443 441
f 439 168 171
f 439 171 444
f 443 442 445
f 443 445 446
f 444 171 185
f 444 185 447
f 446 445 448
f 446 448 449
f 447 185 193
f 447 193 450
f 449 448 451
f 449 451 452
f 450 193 201
f 450 201 453
f 452 451 454
f 452 454 455
f 453 201 209
f 453 209 456
f 455 454 457
f 455 457 458
f 456 209 217
f 456 217 459
f 458 457 460
f 458 460 461
f 459 217 225
f 459 225 462
f 461 460 463
f 461 463 464
f 462 225 233
f 462 233 465
f 464 463 466
f 464 466 467
f 465 233 241
f 465 241 468
f 467 466 469
f 467 469 470
f 471 248 251
f 471 251 472
f 473 474 475
f 473 475 476
f 477 264 267
f 477 267 478
f 479 480 481
f 479 481 482
f 1 280 483
f 1 483 394
f 1 284 281
f 1 281 280
f 1 288 285
f 1 285 284
f 1 47 289
f 1 289 288
f 1 484 485
f 1 485 2
f 483 280 283
f 483 283 486
f 485 484 487
f 485 487 488
f 486 283 295
f 486 295 489
f 488 487 490
f 488 490 491
f 489 295 303
f 489 303 492
f 491 490 493
f 491 493 494
f 492 303 311
f 492 311 495
f 494 493 496
f 494 496 497
f 495 311 319
f 495 319 498
f 497 496 499
f 497 499 500
f 498 319 327
f 498 327 501
f 500 499 502
f 500 502 503
f 501 327 335
f 501 335 504
f 503 502 505
f 503 505 506
f 504 335 343
f 504 343 507
f 506 505 508
f 506 508 509
f 507 343 351
f 507 351 510
f 509 508 511
f 509 511 512
f 513 358 361
f 513 361 514
f 515 516 517
f 515 517 518
f 519 374 377
f 519 377 520
f 521 522 523
f 521 523 524
f 438 525 526
f 438 526 442
f 525 390 396
f 525 396 526
f 393 392 527
f 393 527 400
f 392 394 528
f 392 528 527
f 442 526 529
f 442 529 445
f 526 396 530
f 526 530 529
f 400 527 531
f 400 531 403
f 527 528 532
f 527 532 531
f 445 529 533
f 445 533 448
f 529 530 534
f 529 534 533
f 403 531 535
f 403 535 406
f 531 532 536
f 531 536 535
f 448 533 537
f 448 537 451
f 533 534 538
f 533 538 537
f 406 535 539
f 406 539 409
f 535 536 540
f 535 540 539
f 451 537 541
f 451 541 454
f 537 538 542
f 537 542 541
f 409 539 543
f 409 543 412
f 539 540 544
f 539 544 543
f 454 541 545
f 454 545 457
f 541 542 546
f 541 546 545
f 412 543 547
f 412 547 415
f 543 544 548
f 543 548 547
f 457 545 549
f 457 549 460
f 545 546 550
f 545 550 549
f 415 547 551
f 415 551 418
f 547 548 552
f 547 552 551
f 460 549 553
f 460 553 463
f 549 550 554
f 549 554 553
f 418 551 555
f 418 555 421
f 551 552 556
f 551 556 555
f 463 553 557
f 463 557 466
f 553 554 558
f 553 558 557
f 421 555 559
f 421 559 424
f 555 556 560
f 555 560 559
f 466 557 561
f 466 561 469
f 557 558 562
f 557 562 561
f 429 563 564
f 429 564 430
f 563 565 566
f 563 566 564
f 474 567 568
f 474 568 475
f 567 569 570
f 567 570 568
f 435 571 572
f 435 572 436
f 571 573 574
f 571 574 572
f 480 575 576
f 480 576 481
f 575 577 578
f 575 578 576
f 1 579 580
f 1 580 484
f 579 438 440
f 579 440 580
f 484 580 581
f 484 581 487
f 580 440 582
f 580 582 581
f 487 581 583
f 487 583 490
f 581 582 584
f 581 584 583
f 490 583 585
f 490 585 493
f 583 584 586
f 583 586 585
f 493 585 587
f 493 587 496
f 585 586 588
f 585 588 587
f 496 587 589
f 496 589 499
f 587 588 590
f 587 590 589
f 499 589 591
f 499 591 502
f 589 590 592
f 589 592 591
f 502 591 593
f 502 593 505
f 591 592 594
f 591 594 593
f 505 593 595
f 505 595 508
f 593 594 596
f 593 596 595
f 508 595 597
f 508 597 511
f 595 596 598
f 595 598 597
f 516 599 600
f 516 600 517
f 599 601 602
f 599 602 600
f 522 603 604
f 522 604 523
f 603 605 606
f 603 606 604
f 579 1 391
f 579 391 607
f 391 390 525
f 391 525 607
f 525 438 579
f 525 579 607
f 6 19 608
f 6 608 4
f 608 9 46
f 608 46 4
f 609 610 611
f 609 611 28
f 610 612 613
f 610 613 611
f 614 615 616
f 614 616 617
f 615 618 53
f 615 53 616
f 619 620 621
f 619 621 622
f 620 623 50
f 620 50 621
f 624 625 626
f 624 626 627
f 628 629 630
f 628 630 631
f 632 633 634
f 632 634 635
f 636 637 638
f 636 638 639
f 640 641 642
f 640 642 643
f 644 645 646
f 644 646 647
f 648 649 650
f 648 650 651
f 652 653 654
f 652 654 655
f 656 657 658
f 656 658 659
f 660 661 662
f 660 662 663
f 664 665 666
f 664 666 667
f 668 669 670
f 668 670 671
f 53 618 608
f 53 608 19
f 618 7 9
f 618 9 608
f 19 6 623
f 19 623 17
f 6 5 50
f 6 50 623
f 672 624 627
f 672 627 673
f 674 675 676
f 674 676 677
f 678 640 643
f 678 643 679
f 680 681 617
f 680 617 682
f 683 656 659
f 683 659 684
f 685 686 622
f 685 622 687
f 675 688 612
f 675 612 676
f 688 689 613
f 688 613 612
f 681 690 614
f 681 614 617
f 690 691 692
f 690 692 614
f 16 609 46
f 16 46 9
f 609 28 5
f 609 5 46
f 686 693 619
f 686 619 622
f 693 694 695
f 693 695 619
f 54 696 697
f 54 697 10
f 696 627 626
f 696 626 697
f 12 11 39
f 12 39 38
f 630 698 45
f 630 45 631
f 41 13 12
f 41 12 38
f 699 42 43
f 699 43 639
f 13 699 700
f 13 700 14
f 699 639 638
f 699 638 700
f 51 701 702
f 51 702 20
f 701 643 642
f 701 642 702
f 22 21 703
f 22 703 704
f 705 706 707
f 705 707 708
f 709 24 710
f 709 710 711
f 712 713 714
f 712 714 715
f 24 709 716
f 24 716 25
f 709 655 654
f 709 654 716
f 48 717 718
f 48 718 30
f 717 659 658
f 717 658 718
f 32 31 719
f 32 719 720
f 721 663 662
f 721 662 722
f 33 723 724
f 33 724 34
f 725 726 727
f 725 727 671
f 49 725 728
f 49 728 35
f 725 671 670
f 725 670 728
f 15 729 730
f 15 730 16
f 729 677 676
f 729 676 730
f 16 730 610
f 16 610 609
f 730 676 612
f 730 612 610
f 659 717 731
f 659 731 684
f 717 48 29
f 717 29 731
f 618 615 732
f 618 732 7
f 615 614 692
f 615 692 732
f 27 733 616
f 27 616 53
f 733 682 617
f 733 617 616
f 627 696 734
f 627 734 673
f 696 54 8
f 696 8 734
f 643 701 735
f 643 735 679
f 701 51 18
f 701 18 735
f 695 736 620
f 695 620 619
f 736 17 623
f 736 623 620
f 37 737 621
f 37 621 50
f 737 687 622
f 737 622 621
f 738 739 712
f 738 712 715
f 704 703 705
f 704 705 708
f 738 23 52
f 738 52 739
f 703 21 740
f 703 740 705
f 646 707 706
f 646 706 647
f 714 713 651
f 714 651 650
f 709 711 741
f 709 741 655
f 706 705 740
f 706 740 647
f 39 11 742
f 39 742 44
f 699 13 41
f 699 41 42
f 743 744 635
f 743 635 634
f 45 44 742
f 45 742 631
f 40 744 743
f 40 743 43
f 40 45 698
f 40 698 744
f 719 31 745
f 719 745 746
f 747 726 725
f 747 725 49
f 724 723 748
f 724 748 749
f 750 751 667
f 750 667 666
f 748 751 750
f 748 750 749
f 745 663 721
f 745 721 746
f 746 721 722
f 746 722 752
f 720 719 746
f 720 746 752
f 3 2 753
f 3 753 292
f 300 292 753
f 300 753 754
f 308 300 754
f 308 754 755
f 316 308 755
f 316 755 756
f 324 316 756
f 324 756 757
f 332 324 757
f 332 757 758
f 340 332 758
f 340 758 759
f 348 340 759
f 348 759 760
f 356 348 760
f 356 760 761
f 372 371 762
f 372 762 763
f 388 387 764
f 388 764 765
f 670 669 766
f 670 766 767
f 728 670 767
f 728 767 768
f 35 728 768
f 35 768 36
f 285 288 291
f 285 291 286
f 296 286 291
f 296 291 299
f 304 296 299
f 304 299 307
f 312 304 307
f 312 307 315
f 320 312 315
f 320 315 323
f 328 320 323
f 328 323 331
f 336 328 331
f 336 331 339
f 344 336 339
f 344 339 347
f 352 344 347
f 352 347 355
f 364 363 366
f 364 366 369
f 380 379 382
f 380 382 385
f 662 661 664
f 662 664 667
f 722 662 667
f 722 667 751
f 752 722 751
f 752 751 748
f 723 720 752
f 723 752 748
f 33 32 720
f 33 720 723
f 289 47 293
f 289 293 290
f 298 290 293
f 298 293 301
f 306 298 301
f 306 301 309
f 314 306 309
f 314 309 317
f 322 314 317
f 322 317 325
f 330 322 325
f 330 325 333
f 338 330 333
f 338 333 341
f 346 338 341
f 346 341 349
f 354 346 349
f 354 349 357
f 368 367 370
f 368 370 373
f 384 383 386
f 384 386 389
f 666 665 668
f 666 668 671
f 727 750 666
f 727 666 671
f 749 750 727
f 749 727 726
f 747 724 749
f 747 749 726
f 34 724 747
f 34 747 49
f 281 284 287
f 281 287 282
f 294 282 287
f 294 287 297
f 302 294 297
f 302 297 305
f 310 302 305
f 310 305 313
f 318 310 313
f 318 313 321
f 326 318 321
f 326 321 329
f 334 326 329
f 334 329 337
f 342 334 337
f 342 337 345
f 350 342 345
f 350 345 353
f 360 359 362
f 360 362 365
f 376 375 378
f 376 378 381
f 658 657 660
f 658 660 663
f 718 658 663
f 718 663 745
f 30 718 745
f 30 745 31
f 731 29 28
f 731 28 611
f 684 731 611
f 684 611 613
f 689 683 684
f 689 684 613
f 573 519 520
f 573 520 574
f 565 513 514
f 565 514 566
f 556 507 510
f 556 510 560
f 552 504 507
f 552 507 556
f 548 501 504
f 548 504 552
f 544 498 501
f 544 501 548
f 540 495 498
f 540 498 544
f 536 492 495
f 536 495 540
f 532 489 492
f 532 492 536
f 528 486 489
f 528 489 532
f 394 483 486
f 394 486 528
f 55 769 729
f 55 729 15
f 769 770 677
f 769 677 729
f 771 674 677
f 771 677 770
f 772 434 437
f 772 437 773
f 774 428 431
f 774 431 775
f 776 422 425
f 776 425 777
f 778 419 422
f 778 422 776
f 779 416 419
f 779 419 778
f 780 413 416
f 780 416 779
f 781 410 413
f 781 413 780
f 782 407 410
f 782 410 781
f 783 404 407
f 783 407 782
f 784 401 404
f 784 404 783
f 397 398 401
f 397 401 784
f 69 397 784
f 69 784 70
f 78 70 784
f 78 784 783
f 86 78 783
f 86 783 782
f 94 86 782
f 94 782 781
f 102 94 781
f 102 781 780
f 110 102 780
f 110 780 779
f 118 110 779
f 118 779 778
f 126 118 778
f 126 778 776
f 134 126 776
f 134 776 777
f 150 149 774
f 150 774 775
f 166 165 772
f 166 772 773
f 638 637 771
f 638 771 770
f 700 638 770
f 700 770 769
f 14 700 769
f 14 769 55
f 65 68 71
f 65 71 66
f 76 66 71
f 76 71 79
f 84 76 79
f 84 79 87
f 92 84 87
f 92 87 95
f 100 92 95
f 100 95 103
f 108 100 103
f 108 103 111
f 116 108 111
f 116 111 119
f 124 116 119
f 124 119 127
f 132 124 127
f 132 127 135
f 146 145 148
f 146 148 151
f 162 161 164
f 162 164 167
f 634 633 636
f 634 636 639
f 43 743 634
f 43 634 639
f 61 64 67
f 61 67 62
f 74 62 67
f 74 67 77
f 82 74 77
f 82 77 85
f 90 82 85
f 90 85 93
f 98 90 93
f 98 93 101
f 106 98 101
f 106 101 109
f 114 106 109
f 114 109 117
f 122 114 117
f 122 117 125
f 130 122 125
f 130 125 133
f 142 141 144
f 142 144 147
f 158 157 160
f 158 160 163
f 630 629 632
f 630 632 635
f 635 744 698
f 635 698 630
f 57 60 63
f 57 63 58
f 72 58 63
f 72 63 75
f 80 72 75
f 80 75 83
f 88 80 83
f 88 83 91
f 96 88 91
f 96 91 99
f 104 96 99
f 104 99 107
f 112 104 107
f 112 107 115
f 120 112 115
f 120 115 123
f 128 120 123
f 128 123 131
f 138 137 140
f 138 140 143
f 154 153 156
f 154 156 159
f 626 625 628
f 626 628 631
f 697 626 631
f 697 631 742
f 10 697 742
f 10 742 11
f 734 8 7
f 734 7 732
f 673 734 732
f 673 732 692
f 691 672 673
f 691 673 692
f 577 432 433
f 577 433 578
f 569 426 427
f 569 427 570
f 558 420 423
f 558 423 562
f 554 417 420
f 554 420 558
f 550 414 417
f 550 417 554
f 546 411 414
f 546 414 550
f 542 408 411
f 542 411 546
f 538 405 408
f 538 408 542
f 534 402 405
f 534 405 538
f 530 399 402
f 530 402 534
f 396 395 399
f 396 399 530
f 26 785 733
f 26 733 27
f 785 786 682
f 785 682 733
f 787 680 682
f 787 682 786
f 788 479 482
f 788 482 789
f 790 473 476
f 790 476 791
f 792 467 470
f 792 470 793
f 794 464 467
f 794 467 792
f 795 461 464
f 795 464 794
f 796 458 461
f 796 461 795
f 797 455 458
f 797 458 796
f 798 452 455
f 798 455 797
f 799 449 452
f 799 452 798
f 800 446 449
f 800 449 799
f 441 443 446
f 441 446 800
f 181 441 800
f 181 800 182
f 190 182 800
f 190 800 799
f 198 190 799
f 198 799 798
f 206 198 798
f 206 798 797
f 214 206 797
f 214 797 796
f 222 214 796
f 222 796 795
f 230 222 795
f 230 795 794
f 238 230 794
f 238 794 792
f 246 238 792
f 246 792 793
f 262 261 790
f 262 790 791
f 278 277 788
f 278 788 789
f 654 653 787
f 654 787 786
f 716 654 786
f 716 786 785
f 25 716 785
f 25 785 26
f 177 180 183
f 177 183 178
f 188 178 183
f 188 183 191
f 196 188 191
f 196 191 199
f 204 196 199
f 204 199 207
f 212 204 207
f 212 207 215
f 220 212 215
f 220 215 223
f 228 220 223
f 228 223 231
f 236 228 231
f 236 231 239
f 244 236 239
f 244 239 247
f 258 257 260
f 258 260 263
f 274 273 276
f 274 276 279
f 650 649 652
f 650 652 655
f 741 714 650
f 741 650 655
f 715 714 741
f 715 741 711
f 710 738 715
f 710 715 711
f 710 24 23
f 710 23 738
f 173 176 179
f 173 179 174
f 186 174 179
f 186 179 189
f 194 186 189
f 194 189 197
f 202 194 197
f 202 197 205
f 210 202 205
f 210 205 213
f 218 210 213
f 218 213 221
f 226 218 221
f 226 221 229
f 234 226 229
f 234 229 237
f 242 234 237
f 242 237 245
f 254 253 256
f 254 256 259
f 270 269 272
f 270 272 275
f 646 645 648
f 646 648 651
f 651 713 707
f 651 707 646
f 708 707 713
f 708 713 712
f 739 704 708
f 739 708 712
f 52 22 704
f 52 704 739
f 169 172 175
f 169 175 170
f 184 170 175
f 184 175 187
f 192 184 187
f 192 187 195
f 200 192 195
f 200 195 203
f 208 200 203
f 208 203 211
f 216 208 211
f 216 211 219
f 224 216 219
f 224 219 227
f 232 224 227
f 232 227 235
f 240 232 235
f 240 235 243
f 250 249 252
f 250 252 255
f 266 265 268
f 266 268 271
f 642 641 644
f 642 644 647
f 702 642 647
f 702 647 740
f 20 702 740
f 20 740 21
f 735 18 17
f 735 17 736
f 679 735 736
f 679 736 695
f 694 678 679
f 694 679 695
f 605 477 478
f 605 478 606
f 601 471 472
f 601 472 602
f 596 465 468
f 596 468 598
f 594 462 465
f 594 465 596
f 592 459 462
f 592 462 594
f 590 456 459
f 590 459 592
f 588 453 456
f 588 456 590
f 586 450 453
f 586 453 588
f 584 447 450
f 584 450 586
f 582 444 447
f 582 447 584
f 440 439 444
f 440 444 582
f 36 768 737
f 36 737 37
f 768 767 687
f 768 687 737
f 766 685 687
f 766 687 767
f 764 521 524
f 764 524 765
f 762 515 518
f 762 518 763
f 760 509 512
f 760 512 761
f 759 506 509
f 759 509 760
f 758 503 506
f 758 506 759
f 757 500 503
f 757 503 758
f 756 497 500
f 756 500 757
f 755 494 497
f 755 497 756
f 754 491 494
f 754 494 755
f 753 488 491
f 753 491 754
f 2 485 488
f 2 488 753
f 572 574 801
f 572 801 802
f 436 572 802
f 436 802 803
f 437 436 803
f 437 803 804
f 773 437 804
f 773 804 805
f 806 166 773
f 806 773 805
f 167 166 806
f 167 806 807
f 808 162 167
f 808 167 807
f 163 162 808
f 163 808 809
f 810 158 163
f 810 163 809
f 159 158 810
f 159 810 811
f 812 154 159
f 812 159 811
f 155 154 812
f 155 812 813
f 433 155 813
f 433 813 814
f 578 433 814
f 578 814 815
f 576 578 815
f 576 815 816
f 481 576 816
f 481 816 817
f 482 481 817
f 482 817 818
f 789 482 818
f 789 818 819
f 820 278 789
f 820 789 819
f 279 278 820
f 279 820 821
f 822 274 279
f 822 279 821
f 275 274 822
f 275 822 823
f 824 270 275
f 824 275 823
f 271 270 824
f 271 824 825
f 826 266 271
f 826 271 825
f 267 266 826
f 267 826 827
f 478 267 827
f 478 827 828
f 606 478 828
f 606 828 829
f 604 606 829
f 604 829 830
f 523 604 830
f 523 830 831
f 524 523 831
f 524 831 832
f 765 524 832
f 765 832 833
f 834 388 765
f 834 765 833
f 389 388 834
f 389 834 835
f 836 384 389
f 836 389 835
f 385 384 836
f 385 836 837
f 838 380 385
f 838 385 837
f 381 380 838
f 381 838 839
f 840 376 381
f 840 381 839
f 377 376 840
f 377 840 841
f 520 377 841
f 520 841 842
f 574 520 842
f 574 842 801
f 807 806 637
f 807 637 636
f 633 808 807
f 633 807 636
f 809 808 633
f 809 633 632
f 629 810 809
f 629 809 632
f 811 810 629
f 811 629 628
f 625 812 811
f 625 811 628
f 813 812 625
f 813 625 624
f 814 813 624
f 814 624 672
f 815 814 672
f 815 672 691
f 816 815 691
f 816 691 690
f 817 816 690
f 817 690 681
f 818 817 681
f 818 681 680
f 819 818 680
f 819 680 787
f 653 820 819
f 653 819 787
f 821 820 653
f 821 653 652
f 649 822 821
f 649 821 652
f 823 822 649
f 823 649 648
f 645 824 823
f 645 823 648
f 825 824 645
f 825 645 644
f 641 826 825
f 641 825 644
f 827 826 641
f 827 641 640
f 828 827 640
f 828 640 678
f 829 828 678
f 829 678 694
f 830 829 694
f 830 694 693
f 831 830 693
f 831 693 686
f 832 831 686
f 832 686 685
f 833 832 685
f 833 685 766
f 669 834 833
f 669 833 766
f 835 834 669
f 835 669 668
f 665 836 835
f 665 835 668
f 837 836 665
f 837 665 664
f 661 838 837
f 661 837 664
f 839 838 661
f 839 661 660
f 657 840 839
f 657 839 660
f 841 840 657
f 841 657 656
f 842 841 656
f 842 656 683
f 801 842 683
f 801 683 689
f 802 801 689
f 802 689 688
f 803 802 688
f 803 688 675
f 804 803 675
f 804 675 674
f 805 804 674
f 805 674 771
f 637 806 805
f 637 805 771
f 564 566 573
f 564 573 571
f 430 564 571
f 430 571 435
f 431 430 435
f 431 435 434
f 775 431 434
f 775 434 772
f 165 150 775
f 165 775 772
f 151 150 165
f 151 165 164
f 161 146 151
f 161 151 164
f 147 146 161
f 147 161 160
f 157 142 147
f 157 147 160
f 143 142 157
f 143 157 156
f 153 138 143
f 153 143 156
f 139 138 153
f 139 153 152
f 427 139 152
f 427 152 432
f 570 427 432
f 570 432 577
f 568 570 577
f 568 577 575
f 475 568 575
f 475 575 480
f 476 475 480
f 476 480 479
f 791 476 479
f 791 479 788
f 277 262 791
f 277 791 788
f 263 262 277
f 263 277 276
f 273 258 263
f 273 263 276
f 259 258 273
f 259 273 272
f 269 254 259
f 269 259 272
f 255 254 269
f 255 269 268
f 265 250 255
f 265 255 268
f 251 250 265
f 251 265 264
f 472 251 264
f 472 264 477
f 602 472 477
f 602 477 605
f 600 602 605
f 600 605 603
f 517 600 603
f 517 603 522
f 518 517 522
f 518 522 521
f 763 518 521
f 763 521 764
f 387 372 763
f 387 763 764
f 373 372 387
f 373 387 386
f 383 368 373
f 383 373 386
f 369 368 383
f 369 383 382
f 379 364 369
f 379 369 382
f 365 364 379
f 365 379 378
f 375 360 365
f 375 365 378
f 361 360 375
f 361 375 374
f 514 361 374
f 514 374 519
f 566 514 519
f 566 519 573
f 424 559 563
f 424 563 429
f 559 560 565
f 559 565 563
f 560 510 513
f 560 513 565
f 510 351 358
f 510 358 513
f 351 350 359
f 351 359 358
f 362 359 350
f 362 350 353
f 353 352 363
f 353 363 362
f 366 363 352
f 366 352 355
f 355 354 367
f 355 367 366
f 370 367 354
f 370 354 357
f 357 356 371
f 357 371 370
f 762 371 356
f 762 356 761
f 761 512 515
f 761 515 762
f 512 511 516
f 512 516 515
f 511 597 599
f 511 599 516
f 597 598 601
f 597 601 599
f 598 468 471
f 598 471 601
f 468 241 248
f 468 248 471
f 241 240 249
f 241 249 248
f 252 249 240
f 252 240 243
f 243 242 253
f 243 253 252
f 256 253 242
f 256 242 245
f 245 244 257
f 245 257 256
f 260 257 244
f 260 244 247
f 247 246 261
f 247 261 260
f 790 261 246
f 790 246 793
f 793 470 473
f 793 473 790
f 470 469 474
f 470 474 473
f 469 561 567
f 469 567 474
f 561 562 569
f 561 569 567
f 562 423 426
f 562 426 569
f 423 129 136
f 423 136 426
f 129 128 137
f 129 137 136
f 140 137 128
f 140 128 131
f 131 130 141
f 131 141 140
f 144 141 130
f 144 130 133
f 133 132 145
f 133 145 144
f 148 145 132
f 148 132 135
f 135 134 149
f 135 149 148
f 774 149 134
f 774 134 777
f 777 425 428
f 777 428 774
f 425 424 429
f 425 429 428