# https://github.com/mikedh/trimesh
v 0.07216586 0.00528857 0.08730613
v 0.07245701 0.00523380 0.08714012
v 0.07230961 0.00565843 0.08708884
v 0.07263587 0.00540347 0.08690656
v 0.07259763 0.00569819 0.08674222
v 0.07236472 0.00594534 0.08674341
v 0.07207356 0.00600010 0.08690939
v 0.07189472 0.00583045 0.08714299
v 0.07193296 0.00553572 0.08730732
v 0.07216587 -0.00584633 0.08730613
v 0.07230961 -0.00621618 0.08708885
v 0.07245701 -0.00579155 0.08714013
v 0.07263588 -0.00596122 0.08690656
v 0.07259763 -0.00625595 0.08674223
v 0.07236472 -0.00650308 0.08674341
v 0.07207356 -0.00655786 0.08690939
v 0.07189472 -0.00638819 0.08714299
v 0.07193295 -0.00609348 0.08730730
v -0.08418691 -0.02056386 0.05119759
v -0.08108039 -0.01229743 0.05202445
v -0.08124846 -0.02268401 0.03269858
v -0.07261945 -0.02077142 0.03128158
v -0.05430713 -0.02340265 0.04489849
v -0.06342118 -0.02268401 0.02950822
v -0.06049434 -0.02735206 0.02884747
v -0.06342118 -0.03202012 0.02950822
v -0.05944613 -0.03636217 0.04864373
v -0.07175566 -0.03386263 0.03125643
v -0.07001098 -0.03540399 0.05301766
v -0.08081522 -0.03210793 0.03256516
v -0.08231278 -0.03202016 0.05341949
v -0.08717372 -0.02769609 0.05134801
v -0.08468079 -0.02717899 0.03275104
v -0.07786934 -0.02311422 0.01066884
v -0.07233482 -0.02135885 0.01066884
v -0.07749762 -0.02218926 0.00000574
v -0.07233482 -0.02005076 0.00000574
v -0.05612063 -0.02005076 0.00000000
v -0.05612063 -0.02021725 0.00476857
v -0.05095782 -0.02218926 0.00000000
v -0.05058612 -0.02231811 0.00476857
v -0.04881932 -0.02735206 0.00000000
v -0.04829364 -0.02735206 0.00476857
v -0.05058612 -0.03238602 0.00476857
v -0.05095782 -0.03251487 0.00000000
v -0.05618341 -0.03446293 0.00476857
v -0.05612063 -0.03465337 0.00000000
v -0.07233482 -0.03465337 0.00000574
v -0.07233482 -0.03334528 0.01066884
v -0.07749762 -0.03251487 0.00000574
v -0.07786934 -0.03158991 0.01066884
v -0.07963614 -0.02735206 0.00000574
v -0.08016182 -0.02735206 0.01066884
v -0.06680031 -0.02311422 0.01066884
v -0.06450784 -0.02735206 0.01066884
v -0.06680031 -0.03158991 0.01066884
v -0.06717203 -0.02218926 0.00000574
v -0.06503351 -0.02735206 0.00000574
v -0.06717203 -0.03251487 0.00000574
v -0.08557285 -0.01717611 0.06586284
v -0.05599045 -0.03393733 0.06717211
v -0.05627283 -0.02440209 0.08923770
v -0.05874140 -0.02574022 0.08612581
v -0.06586362 -0.02960097 0.07714749
v -0.07275718 -0.02030067 0.08220563
v -0.07037163 -0.01832281 0.08460795
v -0.08221881 -0.01473916 0.07468154
v -0.08108039 -0.01229743 0.07701413
v -0.08289126 -0.01426398 0.07251913
v -0.08196182 -0.01325464 0.07482620
v -0.07009822 -0.01131811 0.08756432
v -0.05616355 -0.01504460 0.09294297
v -0.00422133 -0.01841870 0.08913623
v 0.01575409 -0.01995816 0.09289532
v -0.00422133 -0.01137689 0.09185293
v 0.01575409 -0.01232055 0.09584988
v 0.00025514 -0.02890342 0.07465594
v 0.01575409 -0.03114728 0.07697578
v -0.00407690 -0.01323261 0.04446767
v -0.00422000 0.00006211 0.03925818
v 0.01570168 -0.00594384 0.05025981
v 0.01575302 0.00006211 0.04843794
v 0.02957221 -0.01672355 0.09080648
v 0.02957221 -0.01033779 0.09326591
v 0.02665023 -0.02650612 0.07793113
v 0.02957221 0.00006211 0.05381389
v 0.02957221 -0.01196091 0.05825505
v -0.02172297 0.00006211 0.03370371
v -0.02172297 -0.01452579 0.03915024
v -0.02172297 -0.02857276 0.06923133
v -0.00401678 -0.01852460 0.04665642
v -0.02172297 -0.02035608 0.04143669
v -0.02172297 -0.02035608 0.08801239
v -0.02172297 -0.01256447 0.09102313
v -0.04001970 -0.01599193 0.03981110
v -0.04015746 0.00006211 0.03379046
v -0.03908250 -0.03210123 0.06835016
v -0.03996191 -0.02243249 0.04233661
v -0.04015853 -0.02304002 0.08950683
v -0.04015853 -0.01420968 0.09292495
v -0.05480187 -0.01667694 0.04214577
v -0.05598169 0.00006211 0.03558141
v 0.03676603 -0.01496568 0.08979517
v 0.04395984 -0.01320780 0.09005181
v 0.03677676 -0.00926025 0.09203638
v 0.04398130 -0.00818270 0.09207481
v 0.03668788 -0.02063748 0.07560724
v 0.04380357 -0.01783937 0.07574984
v 0.03659485 -0.01452941 0.06233897
v 0.04361748 -0.01233528 0.06455514
v 0.02957221 -0.01672355 0.06012280
v 0.06539039 -0.00948702 0.08808084
v 0.07250238 -0.00682341 0.08453487
v 0.06542475 -0.00590193 0.09001451
v 0.07253684 -0.00426919 0.08616501
v 0.07233958 -0.00685817 0.07601619
v 0.06521128 -0.01093325 0.07560957
v 0.07206409 -0.00399714 0.07240236
v 0.06493221 -0.00694129 0.07033928
v 0.05310595 -0.01069631 0.06704457
v 0.05780033 -0.00988544 0.06827620
v 0.05335664 -0.01594538 0.07538397
v 0.05808299 -0.01500834 0.07520295
v 0.05827839 -0.01215063 0.08917861
v 0.05353909 -0.01250054 0.08946763
v 0.05431159 -0.01340295 0.09375199
v 0.05658939 -0.01318632 0.09357306
v 0.05432602 -0.01046142 0.09509314
v 0.05660586 -0.01032863 0.09495811
v 0.05831265 -0.00753468 0.09141583
v 0.07789468 -0.00520161 0.08193899
v 0.08418648 -0.00190273 0.08140654
v 0.07789246 -0.00327505 0.08299834
v 0.08416889 -0.00125290 0.08162740
v 0.07778835 -0.00471350 0.07588290
v 0.08416395 -0.00144574 0.07978214
v 0.07752524 -0.00239819 0.07365771
v 0.08405061 -0.00064581 0.07940399
v -0.08108039 -0.00762466 0.07880178
v -0.08108039 -0.00533738 0.05094735
v -0.06955568 0.00006210 0.04209783
v -0.08108039 0.00006211 0.05011174
v -0.07963988 -0.02600714 0.07527452
v -0.08550335 -0.02178398 0.06795162
v 0.03658232 -0.01041166 0.06075815
v 0.04359242 -0.00886240 0.06326126
v 0.05776339 -0.00713260 0.06731289
v 0.05307294 -0.00770515 0.06597184
v 0.06489611 -0.00505377 0.06971808
v 0.07202885 -0.00297494 0.07212326
v 0.07750854 -0.00184594 0.07352828
v 0.01418623 -0.01074697 0.04184115
v 0.01215087 -0.01382000 0.02440316
v 0.00032039 -0.01402838 0.03615005
v 0.00511456 -0.01635892 0.02299503
v 0.02474359 -0.01331556 0.04538413
v 0.01919795 -0.01442112 0.02680808
v 0.02743228 -0.01915430 0.04610683
v 0.02372296 -0.02169802 0.02737797
v 0.02301304 -0.02680523 0.05036493
v 0.01945346 -0.02843487 0.02674028
v 0.01198004 -0.03104073 0.02563419
v 0.01315864 -0.02973640 0.05133451
v 0.00447250 -0.02835567 0.02455881
v 0.00189732 -0.02762764 0.04798910
v 0.00219779 -0.02185011 0.02220532
v -0.00079784 -0.01992864 0.03706502
v 0.00412910 -0.01676480 0.00781233
v 0.00915605 -0.01488532 0.00700627
v 0.00446577 -0.01710148 0.00048930
v 0.00921440 -0.01513453 0.00048930
v 0.01990534 -0.01513454 0.00048930
v 0.01990534 -0.01465840 0.00369817
v 0.02465397 -0.01710148 0.00048930
v 0.02499065 -0.01676480 0.00369817
v 0.02662092 -0.02185011 0.00048930
v 0.02709705 -0.02185011 0.00369817
v 0.02465397 -0.02659873 0.00048930
v 0.02499065 -0.02693541 0.00369817
v 0.02011496 -0.02904181 0.00369817
v 0.01990534 -0.02856567 0.00048930
v 0.00921440 -0.02856567 0.00048930
v 0.00955261 -0.02940836 0.00724576
v 0.00446577 -0.02659873 0.00048930
v 0.00412909 -0.02693541 0.00781233
v 0.00249882 -0.02185011 0.00048930
v 0.00202269 -0.02185011 0.00781233
v 0.01396303 -0.01710148 0.00048930
v 0.01429970 -0.01676480 0.00781233
v 0.01592997 -0.02185011 0.00048930
v 0.01640610 -0.02185011 0.00781234
v 0.01396303 -0.02659873 0.00048930
v 0.01454127 -0.02667697 0.00825128
v 0.05356912 -0.00774917 0.09163395
v 0.03678624 -0.00399351 0.09401547
v 0.03679354 0.00006211 0.09553945
v 0.02957221 -0.00447030 0.09543769
v 0.02957221 0.00006211 0.09711530
v 0.04400026 -0.00351673 0.09386122
v 0.04401480 0.00006211 0.09523140
v 0.05359563 -0.00332490 0.09354690
v 0.05361593 0.00006211 0.09501139
v 0.05834290 -0.00322999 0.09339140
v 0.05836603 0.00006211 0.09490227
v 0.06545510 -0.00250755 0.09172204
v 0.06547806 0.00006211 0.09301469
v 0.07256728 -0.00178510 0.08760449
v 0.07258991 0.00006211 0.08867491
v 0.07789048 -0.00134522 0.08393379
v 0.07788905 0.00006211 0.08461598
v 0.08415336 -0.00045048 0.08182243
v 0.08414343 0.00006211 0.08194700
v -0.08226062 -0.00812416 0.07622659
v -0.08709577 -0.00439628 0.06567672
v -0.08709576 0.00006211 0.06567672
v -0.08709577 -0.01017051 0.06567673
v -0.08108039 -0.00326981 0.08038035
v -0.08226062 -0.00349083 0.07749544
v -0.06985679 -0.00490406 0.09017492
v -0.05606704 -0.00655293 0.09621487
v -0.04015853 -0.00618350 0.09594330
v -0.02172297 -0.00545554 0.09368176
v -0.00422133 -0.00493007 0.09425190
v 0.01575409 -0.00534761 0.09845888
v -0.09001098 0.00006211 0.07012120
v -0.09125548 0.00006211 0.06720461
v -0.09001098 -0.00349083 0.07008490
v -0.09125548 -0.00372388 0.06704289
v -0.08350514 -0.00372388 0.07445343
v -0.08350514 -0.00865087 0.07351117
v -0.08350514 0.00006211 0.07517749
v -0.08883073 -0.00326981 0.07296981
v -0.08108039 0.00006211 0.08158813
v -0.08883073 0.00006211 0.07312067
v 0.03655258 0.00006211 0.05700495
v 0.04353305 0.00006211 0.06019555
v 0.07194749 0.00006211 0.07147912
v 0.06481146 0.00006211 0.06826109
v 0.05299490 0.00006211 0.06343531
v 0.05767616 0.00006211 0.06503794
v 0.07747087 0.00006211 0.07323636
v 0.08405132 0.00006211 0.07941178
v -0.06966987 0.00006211 0.09219621
v -0.05599186 0.00006211 0.09876370
v -0.04015853 0.00006211 0.09829204
v -0.02172297 0.00006211 0.09574526
v -0.00422133 0.00006211 0.09610959
v 0.01575409 0.00006211 0.10048301
v -0.07261945 0.02089565 0.03128158
v -0.08108039 0.01242165 0.05202445
v -0.08124846 0.02280823 0.03269858
v -0.08418691 0.02068808 0.05119759
v -0.06342118 0.02280823 0.02950822
v -0.05430713 0.02352687 0.04489849
v -0.06049434 0.02747629 0.02884747
v -0.06342118 0.03214435 0.02950822
v -0.05944612 0.03648639 0.04864373
v -0.07175566 0.03398685 0.03125643
v -0.07001098 0.03552821 0.05301766
v -0.08081522 0.03223216 0.03256516
v -0.08231278 0.03214439 0.05341949
v -0.08468079 0.02730322 0.03275104
v -0.08717372 0.02782032 0.05134801
v -0.07233482 0.02017499 0.00000574
v -0.07233482 0.02148308 0.01066884
v -0.07749762 0.02231349 0.00000574
v -0.07786934 0.02323845 0.01066884
v -0.05612063 0.02017499 0.00000000
v -0.05095782 0.02231349 0.00000000
v -0.05612063 0.02034148 0.00476857
v -0.05058612 0.02244233 0.00476857
v -0.04881932 0.02747629 0.00000000
v -0.04829364 0.02747629 0.00476857
v -0.05095782 0.03263909 0.00000000
v -0.05058612 0.03251025 0.00476857
v -0.05612063 0.03477760 0.00000000
v -0.05618341 0.03458716 0.00476857
v -0.07233482 0.03477760 0.00000574
v -0.07749762 0.03263909 0.00000574
v -0.07233482 0.03346951 0.01066884
v -0.07786934 0.03171414 0.01066884
v -0.07963614 0.02747629 0.00000574
v -0.08016182 0.02747629 0.01066884
v -0.06680031 0.02323845 0.01066884
v -0.06450784 0.02747629 0.01066884
v -0.06680031 0.03171414 0.01066884
v -0.06717203 0.02231349 0.00000574
v -0.06503351 0.02747629 0.00000574
v -0.06717203 0.03263909 0.00000574
v -0.08557285 0.01730034 0.06586284
v -0.05599045 0.03406155 0.06717211
v -0.05627283 0.02452632 0.08923770
v -0.05874140 0.02586445 0.08612581
v -0.06586362 0.02972520 0.07714749
v -0.07275718 0.02042490 0.08220563
v -0.07037163 0.01844704 0.08460795
v -0.08221881 0.01486339 0.07468154
v -0.08108039 0.01242165 0.07701413
v -0.08289126 0.01438821 0.07251913
v -0.08196182 0.01337887 0.07482620
v -0.07009822 0.01144234 0.08756432
v -0.05616355 0.01516883 0.09294297
v 0.01575409 0.01244478 0.09584988
v 0.01575409 0.02008238 0.09289532
v -0.00422133 0.01150111 0.09185293
v -0.00422133 0.01854292 0.08913623
v 0.01575409 0.03127151 0.07697578
v 0.00025514 0.02902765 0.07465594
v -0.00407690 0.01335683 0.04446767
v 0.01570168 0.00606806 0.05025981
v 0.02957221 0.01046202 0.09326591
v 0.02957221 0.01684777 0.09080648
v 0.02665023 0.02663035 0.07793113
v 0.02957221 0.01208513 0.05825505
v -0.02172297 0.01465002 0.03915024
v -0.00401678 0.01864882 0.04665642
v -0.02172297 0.02869699 0.06923133
v -0.02172297 0.02048030 0.04143669
v -0.02172297 0.02048030 0.08801239
v -0.02172297 0.01268870 0.09102313
v -0.04001970 0.01611615 0.03981110
v -0.03996191 0.02255672 0.04233661
v -0.03908250 0.03222546 0.06835016
v -0.04015853 0.02316425 0.08950683
v -0.04015853 0.01433390 0.09292495
v -0.05480187 0.01680116 0.04214577
v 0.03676603 0.01508990 0.08979517
v 0.03677676 0.00938447 0.09203638
v 0.04395984 0.01333203 0.09005181
v 0.04398130 0.00830693 0.09207481
v 0.03668788 0.02076171 0.07560724
v 0.04380357 0.01796359 0.07574984
v 0.03659485 0.01465364 0.06233897
v 0.04361748 0.01245950 0.06455514
v 0.02957221 0.01684777 0.06012280
v 0.06539039 0.00961125 0.08808084
v 0.06542475 0.00602616 0.09001451
v 0.07250238 0.00694764 0.08453487
v 0.07253684 0.00439341 0.08616501
v 0.06521128 0.01105748 0.07560957
v 0.07233958 0.00698239 0.07601619
v 0.06493221 0.00706552 0.07033928
v 0.07206409 0.00412137 0.07240236
v 0.05310595 0.01082054 0.06704457
v 0.05335664 0.01606961 0.07538397
v 0.05780033 0.01000966 0.06827620
v 0.05808299 0.01513257 0.07520295
v 0.05353909 0.01262477 0.08946763
v 0.05827839 0.01227486 0.08917861
v 0.05431159 0.01352717 0.09375199
v 0.05432602 0.01058565 0.09509314
v 0.05658939 0.01331054 0.09357306
v 0.05660586 0.01045286 0.09495811
v 0.05831265 0.00765890 0.09141583
v 0.07789468 0.00532584 0.08193899
v 0.07789246 0.00339928 0.08299834
v 0.08418648 0.00202696 0.08140654
v 0.08416889 0.00137713 0.08162740
v 0.07778835 0.00483773 0.07588290
v 0.08416395 0.00156996 0.07978214
v 0.07752524 0.00252241 0.07365771
v 0.08405061 0.00077003 0.07940399
v -0.08108039 0.00774888 0.07880178
v -0.08108039 0.00546161 0.05094735
v -0.07963988 0.02613137 0.07527452
v -0.08550335 0.02190821 0.06795162
v 0.03658232 0.01053588 0.06075815
v 0.04359242 0.00898663 0.06326126
v 0.05776339 0.00725683 0.06731289
v 0.05307294 0.00782937 0.06597184
v 0.06489611 0.00517800 0.06971808
v 0.07202885 0.00309917 0.07212326
v 0.07750854 0.00197017 0.07352828
v 0.01418623 0.01087120 0.04184115
v 0.00032039 0.01415261 0.03615005
v 0.01215087 0.01394423 0.02440316
v 0.00511456 0.01648315 0.02299503
v 0.02474359 0.01343979 0.04538413
v 0.01919795 0.01454534 0.02680808
v 0.02743228 0.01927852 0.04610683
v 0.02372296 0.02182225 0.02737797
v 0.02301304 0.02692945 0.05036493
v 0.01945346 0.02855910 0.02674028
v 0.01315864 0.02986063 0.05133451
v 0.01198004 0.03116495 0.02563419
v 0.00189732 0.02775187 0.04798910
v 0.00447250 0.02847989 0.02455881
v -0.00079784 0.02005287 0.03706502
v 0.00219779 0.02197433 0.02220532
v 0.00921440 0.01525876 0.00048930
v 0.00915605 0.01500954 0.00700627
v 0.00446577 0.01722571 0.00048930
v 0.00412910 0.01688903 0.00781233
v 0.01990534 0.01525876 0.00048930
v 0.02465397 0.01722571 0.00048930
v 0.01990534 0.01478262 0.00369817
v 0.02499065 0.01688903 0.00369817
v 0.02662092 0.02197433 0.00048930
v 0.02709705 0.02197433 0.00369817
v 0.02465397 0.02672296 0.00048930
v 0.02499065 0.02705964 0.00369817
v 0.01990534 0.02868990 0.00048930
v 0.02011496 0.02916604 0.00369817
v 0.00921440 0.02868990 0.00048930
v 0.00446577 0.02672296 0.00048930
v 0.00955261 0.02953259 0.00724576
v 0.00412909 0.02705964 0.00781233
v 0.00249882 0.02197433 0.00048930
v 0.00202269 0.02197433 0.00781233
v 0.01396303 0.01722571 0.00048930
v 0.01429970 0.01688903 0.00781233
v 0.01592997 0.02197433 0.00048930
v 0.01640610 0.02197433 0.00781234
v 0.01396303 0.02672296 0.00048930
v 0.01454127 0.02680120 0.00825128
v 0.05356912 0.00787339 0.09163395
v 0.02957221 0.00459452 0.09543769
v 0.03678624 0.00411774 0.09401547
v 0.04400026 0.00364095 0.09386122
v 0.05359563 0.00344913 0.09354690
v 0.05834290 0.00335422 0.09339140
v 0.06545510 0.00263177 0.09172204
v 0.07256728 0.00190933 0.08760449
v 0.07789048 0.00146945 0.08393379
v 0.08415336 0.00057470 0.08182243
v -0.08226062 0.00824839 0.07622659
v -0.08709577 0.00452051 0.06567672
v -0.08709577 0.01029474 0.06567673
v -0.08108039 0.00339404 0.08038035
v -0.08226062 0.00361505 0.07749544
v -0.06985679 0.00502829 0.09017492
v -0.05606704 0.00667716 0.09621487
v -0.04015853 0.00630773 0.09594330
v -0.02172297 0.00557977 0.09368176
v -0.00422133 0.00505429 0.09425190
v 0.01575409 0.00547184 0.09845888
v -0.09125548 0.00384811 0.06704289
v -0.09001098 0.00361505 0.07008490
v -0.08350514 0.00877510 0.07351117
v -0.08350514 0.00384811 0.07445343
v -0.08883073 0.00339404 0.07296981
v 0.07146745 0.00425554 0.08698242
v 0.07222827 0.00411236 0.08654863
v 0.07241300 0.00439709 0.08684778
v 0.07171008 0.00452935 0.08724852
v 0.07269562 0.00455572 0.08593827
v 0.07284476 0.00480670 0.08628387
v 0.07259572 0.00532588 0.08550888
v 0.07275245 0.00551820 0.08588715
v 0.07198708 0.00597169 0.08551196
v 0.07219017 0.00611486 0.08589001
v 0.07122624 0.00611481 0.08594571
v 0.07148724 0.00624711 0.08629076
v 0.07075890 0.00567146 0.08655607
v 0.07105549 0.00583751 0.08685466
v 0.07085882 0.00490133 0.08698549
v 0.07114779 0.00512598 0.08725138
v 0.07249331 0.00479087 0.08705549
v 0.07195534 0.00489210 0.08736221
v 0.07282378 0.00510438 0.08662390
v 0.07275314 0.00564896 0.08632028
v 0.07232277 0.00610561 0.08632245
v 0.07178478 0.00620682 0.08662914
v 0.07145431 0.00589332 0.08706073
v 0.07152497 0.00534876 0.08736438
v 0.07146746 -0.00481328 0.08698242
v 0.07171008 -0.00508709 0.08724852
v 0.07241301 -0.00495484 0.08684778
v 0.07222828 -0.00467012 0.08654865
v 0.07284476 -0.00536444 0.08628387
v 0.07269562 -0.00511348 0.08593828
v 0.07275245 -0.00607596 0.08588715
v 0.07259571 -0.00588363 0.08550888
v 0.07219017 -0.00667260 0.08589001
v 0.07198708 -0.00652944 0.08551196
v 0.07148724 -0.00680487 0.08629076
v 0.07122626 -0.00667258 0.08594572
v 0.07105548 -0.00639526 0.08685465
v 0.07075891 -0.00622923 0.08655609
v 0.07114779 -0.00568373 0.08725139
v 0.07085881 -0.00545909 0.08698549
v 0.07195534 -0.00544986 0.08736221
v 0.07249331 -0.00534863 0.08705549
v 0.07282378 -0.00566212 0.08662390
v 0.07275314 -0.00620671 0.08632027
v 0.07232277 -0.00666335 0.08632245
v 0.07178478 -0.00676458 0.08662914
v 0.07145431 -0.00645108 0.08706074
v 0.07152497 -0.00590650 0.08736438
f 1 2 3
f 2 4 3
f 4 5 3
f 5 6 3
f 6 7 3
f 7 8 3
f 8 9 3
f 9 1 3
f 10 11 12
f 12 11 13
f 13 11 14
f 14 11 15
f 15 11 16
f 16 11 17
f 17 11 18
f 18 11 10
f 19 20 21
f 21 20 22
f 20 23 22
f 22 23 24
f 24 23 25
f 25 23 26
f 26 23 27
f 26 27 28
f 28 27 29
f 28 29 30
f 30 29 31
f 31 32 30
f 30 32 33
f 32 19 33
f 33 19 21
f 34 35 36
f 36 35 37
f 38 39 40
f 40 39 41
f 40 41 42
f 42 41 43
f 43 44 42
f 42 44 45
f 44 46 45
f 45 46 47
f 48 49 50
f 50 49 51
f 50 51 52
f 52 51 53
f 53 34 52
f 52 34 36
f 21 22 34
f 34 22 35
f 22 24 35
f 35 24 54
f 54 24 55
f 55 24 25
f 25 26 55
f 55 26 56
f 56 26 49
f 49 26 28
f 49 28 51
f 51 28 30
f 51 30 53
f 53 30 33
f 33 21 53
f 53 21 34
f 37 38 57
f 57 38 40
f 41 39 54
f 54 39 35
f 35 39 37
f 37 39 38
f 57 40 58
f 58 40 42
f 43 41 55
f 55 41 54
f 42 45 58
f 58 45 59
f 56 44 55
f 55 44 43
f 45 47 59
f 59 47 48
f 47 46 48
f 48 46 49
f 49 46 56
f 56 46 44
f 19 60 20
f 23 61 27
f 62 63 61
f 61 63 64
f 65 63 66
f 66 63 62
f 67 65 68
f 68 65 66
f 69 67 70
f 70 67 68
f 71 66 72
f 72 66 62
f 73 74 75
f 75 74 76
f 73 77 74
f 74 77 78
f 79 80 81
f 81 80 82
f 74 83 76
f 76 83 84
f 83 74 85
f 85 74 78
f 82 86 81
f 81 86 87
f 88 80 89
f 89 80 79
f 77 90 91
f 91 90 92
f 73 93 77
f 77 93 90
f 93 73 94
f 94 73 75
f 95 96 89
f 89 96 88
f 97 98 90
f 90 98 92
f 93 99 90
f 90 99 97
f 99 93 100
f 100 93 94
f 101 102 95
f 95 102 96
f 61 23 97
f 97 23 98
f 99 62 97
f 97 62 61
f 62 99 72
f 72 99 100
f 103 104 105
f 105 104 106
f 107 108 103
f 103 108 104
f 109 110 107
f 107 110 108
f 109 107 111
f 111 107 85
f 85 107 83
f 83 107 103
f 83 103 84
f 84 103 105
f 112 113 114
f 114 113 115
f 116 113 117
f 117 113 112
f 118 116 119
f 119 116 117
f 120 121 122
f 122 121 123
f 123 124 122
f 122 124 125
f 126 127 128
f 128 127 129
f 119 117 121
f 121 117 123
f 123 117 124
f 124 117 112
f 124 112 130
f 130 112 114
f 131 132 133
f 133 132 134
f 135 136 131
f 131 136 132
f 137 138 135
f 135 138 136
f 137 135 118
f 118 135 116
f 135 131 116
f 116 131 113
f 131 133 113
f 113 133 115
f 139 68 71
f 71 68 66
f 20 140 141
f 140 142 141
f 27 61 29
f 29 61 64
f 64 143 29
f 29 143 31
f 143 144 31
f 31 144 32
f 32 144 19
f 19 144 60
f 37 57 36
f 57 58 36
f 58 59 36
f 59 48 36
f 48 50 36
f 50 52 36
f 23 20 101
f 101 20 141
f 23 101 98
f 98 101 95
f 98 95 92
f 92 95 89
f 91 92 79
f 79 92 89
f 145 109 87
f 87 109 111
f 146 110 145
f 145 110 109
f 147 121 148
f 148 121 120
f 149 119 147
f 147 119 121
f 150 118 149
f 149 118 119
f 151 137 150
f 150 137 118
f 152 153 154
f 154 153 155
f 156 157 152
f 152 157 153
f 158 159 156
f 156 159 157
f 160 161 158
f 158 161 159
f 162 161 163
f 163 161 160
f 164 162 165
f 165 162 163
f 166 164 167
f 167 164 165
f 154 155 167
f 167 155 166
f 168 169 170
f 170 169 171
f 172 173 174
f 174 173 175
f 174 175 176
f 176 175 177
f 176 177 178
f 178 177 179
f 179 180 178
f 178 180 181
f 182 183 184
f 184 183 185
f 184 185 186
f 186 185 187
f 186 187 170
f 170 187 168
f 171 172 188
f 188 172 174
f 175 173 189
f 189 173 169
f 169 173 171
f 171 173 172
f 188 174 190
f 190 174 176
f 177 175 191
f 191 175 189
f 176 178 190
f 190 178 192
f 193 179 191
f 191 179 177
f 178 181 192
f 192 181 182
f 181 180 182
f 182 180 183
f 183 180 193
f 193 180 179
f 153 169 155
f 155 169 168
f 157 189 153
f 153 189 169
f 159 191 157
f 157 191 189
f 193 191 161
f 161 191 159
f 183 193 162
f 162 193 161
f 185 183 164
f 164 183 162
f 187 185 166
f 166 185 164
f 155 168 166
f 166 168 187
f 154 167 79
f 79 167 91
f 167 165 91
f 91 165 77
f 165 163 77
f 77 163 78
f 163 160 78
f 78 160 85
f 85 160 111
f 111 160 158
f 111 158 87
f 87 158 156
f 87 156 81
f 81 156 152
f 81 152 79
f 79 152 154
f 110 146 120
f 120 146 148
f 110 120 108
f 108 120 122
f 108 122 104
f 104 122 125
f 104 125 106
f 106 125 194
f 195 196 197
f 197 196 198
f 195 199 196
f 196 199 200
f 199 201 200
f 200 201 202
f 201 203 202
f 202 203 204
f 205 206 203
f 203 206 204
f 207 208 205
f 205 208 206
f 209 210 207
f 207 210 208
f 211 212 209
f 209 212 210
f 126 128 125
f 125 128 194
f 128 129 194
f 194 129 130
f 130 129 124
f 124 129 127
f 124 127 125
f 125 127 126
f 139 213 68
f 68 213 70
f 214 215 140
f 140 215 142
f 60 216 20
f 214 140 216
f 216 140 20
f 217 218 139
f 139 218 213
f 219 217 71
f 71 217 139
f 219 71 220
f 220 71 72
f 221 220 100
f 100 220 72
f 222 221 94
f 94 221 100
f 223 222 75
f 75 222 94
f 224 223 76
f 76 223 75
f 197 224 84
f 84 224 76
f 195 197 105
f 105 197 84
f 199 195 106
f 106 195 105
f 201 199 194
f 194 199 106
f 203 201 130
f 130 201 194
f 205 203 114
f 114 203 130
f 115 207 114
f 114 207 205
f 133 209 115
f 115 209 207
f 211 209 134
f 134 209 133
f 225 226 227
f 227 226 228
f 218 229 213
f 213 229 230
f 213 230 70
f 70 230 69
f 231 215 229
f 229 215 214
f 229 214 230
f 230 214 216
f 230 216 69
f 69 216 60
f 67 69 144
f 144 69 60
f 65 67 143
f 143 67 144
f 63 65 64
f 64 65 143
f 217 232 218
f 218 232 227
f 233 234 217
f 217 234 232
f 218 227 229
f 229 227 228
f 171 188 170
f 188 190 170
f 190 192 170
f 192 182 170
f 182 184 170
f 184 186 170
f 141 102 101
f 235 236 145
f 145 236 146
f 86 235 87
f 87 235 145
f 237 150 238
f 238 150 149
f 239 240 148
f 148 240 147
f 238 149 240
f 240 149 147
f 241 242 151
f 241 151 237
f 237 151 150
f 138 137 242
f 242 137 151
f 236 239 146
f 146 239 148
f 243 233 219
f 219 233 217
f 244 243 220
f 220 243 219
f 245 244 221
f 221 244 220
f 245 221 246
f 246 221 222
f 247 246 223
f 223 246 222
f 248 247 224
f 224 247 223
f 248 224 198
f 198 224 197
f 212 211 242
f 242 211 138
f 138 211 136
f 211 134 136
f 134 132 136
f 234 225 232
f 232 225 227
f 231 229 226
f 226 229 228
f 249 250 251
f 251 250 252
f 253 254 249
f 249 254 250
f 253 255 254
f 255 256 254
f 254 256 257
f 256 258 257
f 257 258 259
f 258 260 259
f 259 260 261
f 262 263 260
f 260 263 261
f 251 252 262
f 262 252 263
f 264 265 266
f 266 265 267
f 268 269 270
f 270 269 271
f 269 272 271
f 271 272 273
f 274 275 272
f 272 275 273
f 276 277 274
f 274 277 275
f 278 279 280
f 280 279 281
f 279 282 281
f 281 282 283
f 266 267 282
f 282 267 283
f 265 249 267
f 267 249 251
f 284 253 265
f 265 253 249
f 284 285 253
f 253 285 255
f 286 256 285
f 285 256 255
f 286 280 256
f 256 280 258
f 280 281 258
f 258 281 260
f 281 283 260
f 260 283 262
f 267 251 283
f 283 251 262
f 264 287 268
f 268 287 269
f 265 270 284
f 284 270 271
f 265 264 270
f 270 264 268
f 287 288 269
f 269 288 272
f 284 271 285
f 285 271 273
f 289 274 288
f 288 274 272
f 286 285 275
f 275 285 273
f 278 276 289
f 289 276 274
f 280 277 278
f 278 277 276
f 280 286 277
f 277 286 275
f 252 250 290
f 254 257 291
f 292 291 293
f 291 294 293
f 295 296 293
f 293 296 292
f 297 298 295
f 295 298 296
f 299 300 297
f 297 300 298
f 301 302 296
f 296 302 292
f 303 304 305
f 305 304 306
f 307 308 304
f 304 308 306
f 309 310 80
f 80 310 82
f 311 312 303
f 303 312 304
f 312 313 304
f 304 313 307
f 314 86 310
f 310 86 82
f 309 80 315
f 315 80 88
f 308 316 317
f 317 316 318
f 306 308 319
f 319 308 317
f 305 306 320
f 320 306 319
f 321 315 96
f 96 315 88
f 318 322 317
f 317 322 323
f 319 317 324
f 324 317 323
f 320 319 325
f 325 319 324
f 326 321 102
f 102 321 96
f 322 254 323
f 323 254 291
f 324 323 292
f 292 323 291
f 325 324 302
f 302 324 292
f 327 328 329
f 329 328 330
f 331 327 332
f 332 327 329
f 333 331 334
f 334 331 332
f 313 331 335
f 335 331 333
f 313 312 331
f 331 312 327
f 312 311 327
f 327 311 328
f 336 337 338
f 338 337 339
f 336 338 340
f 340 338 341
f 340 341 342
f 342 341 343
f 344 345 346
f 346 345 347
f 348 349 345
f 345 349 347
f 350 351 352
f 352 351 353
f 347 340 346
f 346 340 342
f 347 349 340
f 340 349 336
f 349 354 336
f 336 354 337
f 355 356 357
f 357 356 358
f 359 355 360
f 360 355 357
f 361 359 362
f 362 359 360
f 341 359 343
f 343 359 361
f 338 355 341
f 341 355 359
f 339 356 338
f 338 356 355
f 363 301 298
f 298 301 296
f 250 141 364
f 141 142 364
f 257 259 291
f 291 259 294
f 261 365 259
f 259 365 294
f 263 366 261
f 261 366 365
f 263 252 366
f 366 252 290
f 264 266 287
f 266 282 287
f 282 279 287
f 279 278 287
f 278 289 287
f 289 288 287
f 254 326 250
f 326 141 250
f 321 326 322
f 322 326 254
f 315 321 318
f 318 321 322
f 316 309 318
f 318 309 315
f 367 314 333
f 333 314 335
f 368 367 334
f 334 367 333
f 369 370 346
f 346 370 344
f 371 369 342
f 342 369 346
f 372 371 343
f 343 371 342
f 373 372 361
f 361 372 343
f 374 375 376
f 376 375 377
f 378 374 379
f 379 374 376
f 380 378 381
f 381 378 379
f 382 380 383
f 383 380 381
f 382 383 384
f 384 383 385
f 384 385 386
f 386 385 387
f 386 387 388
f 388 387 389
f 375 388 377
f 377 388 389
f 390 391 392
f 392 391 393
f 394 395 396
f 396 395 397
f 395 398 397
f 397 398 399
f 398 400 399
f 399 400 401
f 402 403 400
f 400 403 401
f 404 405 406
f 406 405 407
f 405 408 407
f 407 408 409
f 408 392 409
f 409 392 393
f 390 410 394
f 394 410 395
f 391 396 411
f 411 396 397
f 391 390 396
f 396 390 394
f 410 412 395
f 395 412 398
f 411 397 413
f 413 397 399
f 414 400 412
f 412 400 398
f 415 413 401
f 401 413 399
f 404 402 414
f 414 402 400
f 406 403 404
f 404 403 402
f 406 415 403
f 403 415 401
f 376 377 391
f 391 377 393
f 379 376 411
f 411 376 391
f 381 379 413
f 413 379 411
f 381 413 383
f 383 413 415
f 383 415 385
f 385 415 406
f 385 406 387
f 387 406 407
f 387 407 389
f 389 407 409
f 377 389 393
f 393 389 409
f 316 388 309
f 309 388 375
f 308 386 316
f 316 386 388
f 307 384 308
f 308 384 386
f 313 382 307
f 307 382 384
f 313 335 382
f 382 335 380
f 335 314 380
f 380 314 378
f 314 310 378
f 378 310 374
f 310 309 374
f 374 309 375
f 370 368 344
f 344 368 334
f 334 332 344
f 344 332 345
f 332 329 345
f 345 329 348
f 329 330 348
f 348 330 416
f 198 196 417
f 417 196 418
f 418 196 419
f 419 196 200
f 419 200 420
f 420 200 202
f 420 202 421
f 421 202 204
f 204 206 421
f 421 206 422
f 206 208 422
f 422 208 423
f 208 210 423
f 423 210 424
f 210 212 424
f 424 212 425
f 416 351 348
f 348 351 350
f 354 353 416
f 416 353 351
f 354 349 353
f 353 349 352
f 349 348 352
f 352 348 350
f 363 298 426
f 426 298 300
f 142 215 364
f 364 215 427
f 290 250 428
f 250 364 428
f 428 364 427
f 429 363 430
f 430 363 426
f 431 301 429
f 429 301 363
f 302 301 432
f 432 301 431
f 433 325 432
f 432 325 302
f 434 320 433
f 433 320 325
f 435 305 434
f 434 305 320
f 436 303 435
f 435 303 305
f 417 311 436
f 436 311 303
f 311 417 328
f 328 417 418
f 328 418 330
f 330 418 419
f 330 419 416
f 416 419 420
f 416 420 354
f 354 420 421
f 354 421 337
f 337 421 422
f 339 337 423
f 423 337 422
f 356 339 424
f 424 339 423
f 356 424 358
f 358 424 425
f 437 226 438
f 438 226 225
f 439 440 426
f 426 440 430
f 299 439 300
f 300 439 426
f 427 215 440
f 440 215 231
f 428 427 439
f 439 427 440
f 290 428 299
f 299 428 439
f 290 299 366
f 366 299 297
f 366 297 365
f 365 297 295
f 365 295 294
f 294 295 293
f 438 441 430
f 430 441 429
f 441 234 429
f 429 234 233
f 437 438 440
f 440 438 430
f 390 392 410
f 392 408 410
f 408 405 410
f 405 404 410
f 404 414 410
f 414 412 410
f 141 326 102
f 235 367 236
f 236 367 368
f 86 314 235
f 235 314 367
f 371 372 238
f 238 372 237
f 239 370 240
f 240 370 369
f 369 371 240
f 240 371 238
f 241 373 242
f 372 373 237
f 237 373 241
f 362 242 361
f 242 373 361
f 236 368 239
f 239 368 370
f 243 431 233
f 233 431 429
f 244 432 243
f 243 432 431
f 245 433 244
f 244 433 432
f 434 433 246
f 246 433 245
f 247 435 246
f 246 435 434
f 248 436 247
f 247 436 435
f 417 436 198
f 198 436 248
f 212 242 425
f 242 362 425
f 362 360 425
f 425 360 358
f 360 357 358
f 234 441 225
f 225 441 438
f 437 440 226
f 226 440 231
f 442 443 444
f 442 444 445
f 443 446 447
f 443 447 444
f 446 448 449
f 446 449 447
f 448 450 451
f 448 451 449
f 450 452 453
f 450 453 451
f 452 454 455
f 452 455 453
f 454 456 457
f 454 457 455
f 456 442 445
f 456 445 457
f 445 444 458
f 445 458 459
f 444 447 460
f 444 460 458
f 447 449 461
f 447 461 460
f 449 451 462
f 449 462 461
f 451 453 463
f 451 463 462
f 453 455 464
f 453 464 463
f 455 457 465
f 455 465 464
f 457 445 459
f 457 459 465
f 459 458 2
f 459 2 1
f 458 460 4
f 458 4 2
f 460 461 5
f 460 5 4
f 461 462 6
f 461 6 5
f 462 463 7
f 462 7 6
f 463 464 8
f 463 8 7
f 464 465 9
f 464 9 8
f 465 459 1
f 465 1 9
f 466 467 468
f 466 468 469
f 469 468 470
f 469 470 471
f 471 470 472
f 471 472 473
f 473 472 474
f 473 474 475
f 475 474 476
f 475 476 477
f 477 476 478
f 477 478 479
f 479 478 480
f 479 480 481
f 481 480 467
f 481 467 466
f 467 482 483
f 467 483 468
f 468 483 484
f 468 484 470
f 470 484 485
f 470 485 472
f 472 485 486
f 472 486 474
f 474 486 487
f 474 487 476
f 476 487 488
f 476 488 478
f 478 488 489
f 478 489 480
f 480 489 482
f 480 482 467
f 482 10 12
f 482 12 483
f 483 12 13
f 483 13 484
f 484 13 14
f 484 14 485
f 485 14 15
f 485 15 486
f 486 15 16
f 486 16 487
f 487 16 17
f 487 17 488
f 488 17 18
f 488 18 489
f 489 18 10
f 489 10 482
f 1 3 2
f 2 3 4
f 4 3 5
f 5 3 6
f 6 3 7
f 7 3 8
f 8 3 9
f 9 3 1
f 10 12 11
f 12 13 11
f 13 14 11
f 14 15 11
f 15 16 11
f 16 17 11
f 17 18 11
f 18 10 11
f 19 21 20
f 21 22 20
f 20 22 23
f 22 24 23
f 24 25 23
f 25 26 23
f 26 27 23
f 26 28 27
f 28 29 27
f 28 30 29
f 30 31 29
f 31 30 32
f 30 33 32
f 32 33 19
f 33 21 19
f 34 36 35
f 36 37 35
f 38 40 39
f 40 41 39
f 40 42 41
f 42 43 41
f 43 42 44
f 42 45 44
f 44 45 46
f 45 47 46
f 48 50 49
f 50 51 49
f 50 52 51
f 52 53 51
f 53 52 34
f 52 36 34
f 21 34 22
f 34 35 22
f 22 35 24
f 35 54 24
f 54 55 24
f 55 25 24
f 25 55 26
f 55 56 26
f 56 49 26
f 49 28 26
f 49 51 28
f 51 30 28
f 51 53 30
f 53 33 30
f 33 53 21
f 53 34 21
f 37 57 38
f 57 40 38
f 41 54 39
f 54 35 39
f 35 37 39
f 37 38 39
f 57 58 40
f 58 42 40
f 43 55 41
f 55 54 41
f 42 58 45
f 58 59 45
f 56 55 44
f 55 43 44
f 45 59 47
f 59 48 47
f 47 48 46
f 48 49 46
f 49 56 46
f 56 44 46
f 19 20 60
f 23 27 61
f 62 61 63
f 61 64 63
f 65 66 63
f 66 62 63
f 67 68 65
f 68 66 65
f 69 70 67
f 70 68 67
f 71 72 66
f 72 62 66
f 73 75 74
f 75 76 74
f 73 74 77
f 74 78 77
f 79 81 80
f 81 82 80
f 74 76 83
f 76 84 83
f 83 85 74
f 85 78 74
f 82 81 86
f 81 87 86
f 88 89 80
f 89 79 80
f 77 91 90
f 91 92 90
f 73 77 93
f 77 90 93
f 93 94 73
f 94 75 73
f 95 89 96
f 89 88 96
f 97 90 98
f 90 92 98
f 93 90 99
f 90 97 99
f 99 100 93
f 100 94 93
f 101 95 102
f 95 96 102
f 61 97 23
f 97 98 23
f 99 97 62
f 97 61 62
f 62 72 99
f 72 100 99
f 103 105 104
f 105 106 104
f 107 103 108
f 103 104 108
f 109 107 110
f 107 108 110
f 109 111 107
f 111 85 107
f 85 83 107
f 83 103 107
f 83 84 103
f 84 105 103
f 112 114 113
f 114 115 113
f 116 117 113
f 117 112 113
f 118 119 116
f 119 117 116
f 120 122 121
f 122 123 121
f 123 122 124
f 122 125 124
f 126 128 127
f 128 129 127
f 119 121 117
f 121 123 117
f 123 124 117
f 124 112 117
f 124 130 112
f 130 114 112
f 131 133 132
f 133 134 132
f 135 131 136
f 131 132 136
f 137 135 138
f 135 136 138
f 137 118 135
f 118 116 135
f 135 116 131
f 116 113 131
f 131 113 133
f 113 115 133
f 139 71 68
f 71 66 68
f 20 141 140
f 140 141 142
f 27 29 61
f 29 64 61
f 64 29 143
f 29 31 143
f 143 31 144
f 31 32 144
f 32 19 144
f 19 60 144
f 37 36 57
f 57 36 58
f 58 36 59
f 23 101 20
f 101 141 20
f 23 98 101
f 98 95 101
f 98 92 95
f 92 89 95
f 91 79 92
f 79 89 92
f 145 87 109
f 87 111 109
f 146 145 110
f 145 109 110
f 147 148 121
f 148 120 121
f 149 147 119
f 147 121 119
f 150 149 118
f 149 119 118
f 151 150 137
f 150 118 137
f 152 154 153
f 154 155 153
f 156 152 157
f 152 153 157
f 158 156 159
f 156 157 159
f 160 158 161
f 158 159 161
f 162 163 161
f 163 160 161
f 164 165 162
f 165 163 162
f 166 167 164
f 167 165 164
f 154 167 155
f 167 166 155
f 168 170 169
f 170 171 169
f 172 174 173
f 174 175 173
f 174 176 175
f 176 177 175
f 176 178 177
f 178 179 177
f 179 178 180
f 178 181 180
f 182 184 183
f 184 185 183
f 184 186 185
f 186 187 185
f 186 170 187
f 170 168 187
f 171 188 172
f 188 174 172
f 175 189 173
f 189 169 173
f 169 171 173
f 171 172 173
f 170 184 182
f 177 191 175
f 191 189 175
f 193 191 179
f 191 177 179
f 178 192 181
f 192 182 181
f 181 182 180
f 182 183 180
f 183 193 180
f 193 179 180
f 153 155 169
f 155 168 169
f 157 153 189
f 153 169 189
f 159 157 191
f 157 189 191
f 193 161 191
f 161 159 191
f 183 162 193
f 162 161 193
f 185 164 183
f 164 162 183
f 187 166 185
f 166 164 185
f 155 166 168
f 166 187 168
f 154 79 167
f 79 91 167
f 167 91 165
f 91 77 165
f 165 77 163
f 77 78 163
f 163 78 160
f 78 85 160
f 85 111 160
f 111 158 160
f 111 87 158
f 87 156 158
f 87 81 156
f 81 152 156
f 81 79 152
f 79 154 152
f 110 120 146
f 120 148 146
f 110 108 120
f 108 122 120
f 108 104 122
f 104 125 122
f 104 106 125
f 106 194 125
f 195 197 196
f 197 198 196
f 195 196 199
f 196 200 199
f 199 200 201
f 200 202 201
f 201 202 203
f 202 204 203
f 205 203 206
f 203 204 206
f 207 205 208
f 205 206 208
f 209 207 210
f 207 208 210
f 211 209 212
f 209 210 212
f 126 125 128
f 125 194 128
f 128 194 129
f 194 130 129
f 130 124 129
f 124 127 129
f 124 125 127
f 125 126 127
f 139 68 213
f 68 70 213
f 214 140 215
f 140 142 215
f 60 20 216
f 214 216 140
f 216 20 140
f 217 139 218
f 139 213 218
f 219 71 217
f 71 139 217
f 219 220 71
f 220 72 71
f 221 100 220
f 100 72 220
f 222 94 221
f 94 100 221
f 223 75 222
f 75 94 222
f 224 76 223
f 76 75 223
f 197 84 224
f 84 76 224
f 195 105 197
f 105 84 197
f 199 106 195
f 106 105 195
f 201 194 199
f 194 106 199
f 203 130 201
f 130 194 201
f 205 114 203
f 114 130 203
f 115 114 207
f 114 205 207
f 133 115 209
f 115 207 209
f 211 134 209
f 134 133 209
f 225 227 226
f 227 228 226
f 218 213 229
f 213 230 229
f 213 70 230
f 70 69 230
f 231 229 215
f 229 214 215
f 229 230 214
f 230 216 214
f 230 69 216
f 69 60 216
f 67 144 69
f 144 60 69
f 65 143 67
f 143 144 67
f 63 64 65
f 64 143 65
f 217 218 232
f 218 227 232
f 233 217 234
f 217 232 234
f 218 229 227
f 229 228 227
f 171 170 188
f 192 170 182
f 184 170 186
f 141 101 102
f 235 145 236
f 145 146 236
f 86 87 235
f 87 145 235
f 237 238 150
f 238 149 150
f 239 148 240
f 148 147 240
f 238 240 149
f 240 147 149
f 241 151 242
f 241 237 151
f 237 150 151
f 138 242 137
f 242 151 137
f 236 146 239
f 146 148 239
f 243 219 233
f 219 217 233
f 244 220 243
f 220 219 243
f 245 221 244
f 221 220 244
f 245 246 221
f 246 222 221
f 247 223 246
f 223 222 246
f 248 224 247
f 224 223 247
f 248 198 224
f 198 197 224
f 212 242 211
f 242 138 211
f 138 136 211
f 211 136 134
f 134 136 132
f 234 232 225
f 232 227 225
f 231 226 229
f 226 228 229
f 249 251 250
f 251 252 250
f 253 249 254
f 249 250 254
f 253 254 255
f 255 254 256
f 254 257 256
f 256 257 258
f 257 259 258
f 258 259 260
f 259 261 260
f 262 260 263
f 260 261 263
f 251 262 252
f 262 263 252
f 264 266 265
f 266 267 265
f 268 270 269
f 270 271 269
f 269 271 272
f 271 273 272
f 274 272 275
f 272 273 275
f 276 274 277
f 274 275 277
f 278 280 279
f 280 281 279
f 279 281 282
f 281 283 282
f 266 282 267
f 282 283 267
f 265 267 249
f 267 251 249
f 284 265 253
f 265 249 253
f 284 253 285
f 253 255 285
f 286 285 256
f 285 255 256
f 286 256 280
f 256 258 280
f 280 258 281
f 258 260 281
f 281 260 283
f 260 262 283
f 267 283 251
f 283 262 251
f 264 268 287
f 268 269 287
f 265 284 270
f 284 271 270
f 265 270 264
f 270 268 264
f 287 269 288
f 269 272 288
f 284 285 271
f 285 273 271
f 289 288 274
f 288 272 274
f 286 275 285
f 275 273 285
f 278 289 276
f 289 274 276
f 280 278 277
f 278 276 277
f 280 277 286
f 277 275 286
f 252 290 250
f 254 291 257
f 292 293 291
f 291 293 294
f 295 293 296
f 293 292 296
f 297 295 298
f 295 296 298
f 299 297 300
f 297 298 300
f 301 296 302
f 296 292 302
f 303 305 304
f 305 306 304
f 307 304 308
f 304 306 308
f 309 80 310
f 80 82 310
f 311 303 312
f 303 304 312
f 312 304 313
f 304 307 313
f 314 310 86
f 310 82 86
f 309 315 80
f 315 88 80
f 308 317 316
f 317 318 316
f 306 319 308
f 319 317 308
f 305 320 306
f 320 319 306
f 321 96 315
f 96 88 315
f 318 317 322
f 317 323 322
f 319 324 317
f 324 323 317
f 320 325 319
f 325 324 319
f 326 102 321
f 102 96 321
f 322 323 254
f 323 291 254
f 324 292 323
f 292 291 323
f 325 302 324
f 302 292 324
f 327 329 328
f 329 330 328
f 331 332 327
f 332 329 327
f 333 334 331
f 334 332 331
f 313 335 331
f 335 333 331
f 313 331 312
f 331 327 312
f 312 327 311
f 327 328 311
f 336 338 337
f 338 339 337
f 336 340 338
f 340 341 338
f 340 342 341
f 342 343 341
f 344 346 345
f 346 347 345
f 348 345 349
f 345 347 349
f 350 352 351
f 352 353 351
f 347 346 340
f 346 342 340
f 347 340 349
f 340 336 349
f 349 336 354
f 336 337 354
f 355 357 356
f 357 358 356
f 359 360 355
f 360 357 355
f 361 362 359
f 362 360 359
f 341 343 359
f 343 361 359
f 338 341 355
f 341 359 355
f 339 338 356
f 338 355 356
f 363 298 301
f 298 296 301
f 250 364 141
f 141 364 142
f 257 291 259
f 291 294 259
f 261 259 365
f 259 294 365
f 263 261 366
f 261 365 366
f 263 366 252
f 366 290 252
f 254 250 326
f 326 250 141
f 321 322 326
f 322 254 326
f 315 318 321
f 318 322 321
f 316 318 309
f 318 315 309
f 367 333 314
f 333 335 314
f 368 334 367
f 334 333 367
f 369 346 370
f 346 344 370
f 371 342 369
f 342 346 369
f 372 343 371
f 343 342 371
f 373 361 372
f 361 343 372
f 374 376 375
f 376 377 375
f 378 379 374
f 379 376 374
f 380 381 378
f 381 379 378
f 382 383 380
f 383 381 380
f 382 384 383
f 384 385 383
f 384 386 385
f 386 387 385
f 386 388 387
f 388 389 387
f 375 377 388
f 377 389 388
f 390 392 391
f 392 393 391
f 394 396 395
f 396 397 395
f 395 397 398
f 397 399 398
f 398 399 400
f 399 401 400
f 402 400 403
f 400 401 403
f 404 406 405
f 406 407 405
f 405 407 408
f 407 409 408
f 408 409 392
f 409 393 392
f 390 394 410
f 410 405 408
f 394 395 410
f 391 411 396
f 411 397 396
f 391 396 390
f 396 394 390
f 395 398 412
f 411 413 397
f 413 399 397
f 415 401 413
f 401 399 413
f 404 414 402
f 414 400 402
f 406 404 403
f 404 402 403
f 406 403 415
f 403 401 415
f 376 391 377
f 391 393 377
f 379 411 376
f 411 391 376
f 381 413 379
f 413 411 379
f 381 383 413
f 383 415 413
f 383 385 415
f 385 406 415
f 385 387 406
f 387 407 406
f 387 389 407
f 389 409 407
f 377 393 389
f 393 409 389
f 316 309 388
f 309 375 388
f 308 316 386
f 316 388 386
f 307 308 384
f 308 386 384
f 313 307 382
f 307 384 382
f 313 382 335
f 382 380 335
f 335 380 314
f 380 378 314
f 314 378 310
f 378 374 310
f 310 374 309
f 374 375 309
f 370 344 368
f 344 334 368
f 334 344 332
f 344 345 332
f 332 345 329
f 345 348 329
f 329 348 330
f 348 416 330
f 198 417 196
f 417 418 196
f 418 419 196
f 419 200 196
f 419 420 200
f 420 202 200
f 420 421 202
f 421 204 202
f 204 421 206
f 421 422 206
f 206 422 208
f 422 423 208
f 208 423 210
f 423 424 210
f 210 424 212
f 424 425 212
f 416 348 351
f 348 350 351
f 354 416 353
f 416 351 353
f 354 353 349
f 353 352 349
f 349 352 348
f 352 350 348
f 363 426 298
f 426 300 298
f 142 364 215
f 364 427 215
f 290 428 250
f 250 428 364
f 428 427 364
f 429 430 363
f 430 426 363
f 431 429 301
f 429 363 301
f 302 432 301
f 432 431 301
f 433 432 325
f 432 302 325
f 434 433 320
f 433 325 320
f 435 434 305
f 434 320 305
f 436 435 303
f 435 305 303
f 417 436 311
f 436 303 311
f 311 328 417
f 328 418 417
f 328 330 418
f 330 419 418
f 330 416 419
f 416 420 419
f 416 354 420
f 354 421 420
f 354 337 421
f 337 422 421
f 339 423 337
f 423 422 337
f 356 424 339
f 424 423 339
f 356 358 424
f 358 425 424
f 437 438 226
f 438 225 226
f 439 426 440
f 426 430 440
f 299 300 439
f 300 426 439
f 427 440 215
f 440 231 215
f 428 439 427
f 439 440 427
f 290 299 428
f 299 439 428
f 290 366 299
f 366 297 299
f 366 365 297
f 365 295 297
f 365 294 295
f 294 293 295
f 438 430 441
f 430 429 441
f 441 429 234
f 429 233 234
f 437 440 438
f 440 430 438
f 390 410 392
f 392 410 408
f 405 410 404
f 141 102 326
f 235 236 367
f 236 368 367
f 86 235 314
f 235 367 314
f 371 238 372
f 238 237 372
f 239 240 370
f 240 369 370
f 369 240 371
f 240 238 371
f 241 242 373
f 372 237 373
f 237 241 373
f 362 361 242
f 242 361 373
f 236 239 368
f 239 370 368
f 243 233 431
f 233 429 431
f 244 243 432
f 243 431 432
f 245 244 433
f 244 432 433
f 434 246 433
f 246 245 433
f 247 246 435
f 246 434 435
f 248 247 436
f 247 435 436
f 417 198 436
f 198 248 436
f 212 425 242
f 242 425 362
f 362 425 360
f 425 358 360
f 360 358 357
f 234 225 441
f 225 438 441
f 437 226 440
f 226 231 440
f 445 444 443
f 443 442 445
f 444 447 446
f 446 443 444
f 447 449 448
f 448 446 447
f 449 451 450
f 450 448 449
f 451 453 452
f 452 450 451
f 453 455 454
f 454 452 453
f 455 457 456
f 456 454 455
f 457 445 442
f 442 456 457
f 459 458 444
f 444 445 459
f 458 460 447
f 447 444 458
f 460 461 449
f 449 447 460
f 461 462 451
f 451 449 461
f 462 463 453
f 453 451 462
f 463 464 455
f 455 453 463
f 464 465 457
f 457 455 464
f 465 459 445
f 445 457 465
f 1 2 458
f 458 459 1
f 2 4 460
f 460 458 2
f 4 5 461
f 461 460 4
f 5 6 462
f 462 461 5
f 6 7 463
f 463 462 6
f 7 8 464
f 464 463 7
f 8 9 465
f 465 464 8
f 9 1 459
f 459 465 9
f 469 468 467
f 467 466 469
f 471 470 468
f 468 469 471
f 473 472 470
f 470 471 473
f 475 474 472
f 472 473 475
f 477 476 474
f 474 475 477
f 479 478 476
f 476 477 479
f 481 480 478
f 478 479 481
f 466 467 480
f 480 481 466
f 468 483 482
f 482 467 468
f 470 484 483
f 483 468 470
f 472 485 484
f 484 470 472
f 474 486 485
f 485 472 474
f 476 487 486
f 486 474 476
f 478 488 487
f 487 476 478
f 480 489 488
f 488 478 480
f 467 482 489
f 489 480 467
f 483 12 10
f 10 482 483
f 484 13 12
f 12 483 484
f 485 14 13
f 13 484 485
f 486 15 14
f 14 485 486
f 487 16 15
f 15 486 487
f 488 17 16
f 16 487 488
f 489 18 17
f 17 488 489
f 482 10 18
f 18 489 482