# https://github.com/mikedh/trimesh
v 0.00567289 -0.00404886 0.24133374
v 0.00482649 -0.00508019 0.24133374
v 0.00509587 -0.00534957 0.24133374
v 0.00598965 -0.00426050 0.24133374
v 0.00261851 -0.00655552 0.24133374
v 0.00134179 -0.00694282 0.24133374
v 0.00141610 -0.00731645 0.24133374
v 0.00276430 -0.00690748 0.24133374
v -0.00666108 0.00106004 0.24133374
v -0.00627377 0.00233677 0.24133374
v -0.00662573 0.00248256 0.24133374
v -0.00703471 0.00113435 0.24133374
v 0.00379516 -0.00592660 0.24133374
v 0.00400680 -0.00624334 0.24133374
v -0.00564485 0.00351342 0.24133374
v -0.00596160 0.00372506 0.24133374
v 0.01296954 -0.00892433 0.22183940
v 0.01440944 -0.00623049 0.22183940
v 0.01548967 -0.00667795 0.22183939
v 0.01394174 -0.00957392 0.22183939
v -0.00479845 0.00454475 0.24133374
v -0.00506782 0.00481413 0.24133374
v -0.00376712 0.00539114 0.24133374
v -0.00397875 0.00570790 0.24133374
v 0.00001402 -0.00707359 0.24133374
v 0.00001402 -0.00745453 0.24133374
v -0.00259048 0.00602008 0.24133374
v -0.00273625 0.00637204 0.24133374
v -0.00131374 -0.00694282 0.24133374
v -0.00138805 -0.00731645 0.24133374
v -0.00131374 0.00640737 0.24133374
v -0.00138805 0.00678100 0.24133374
v -0.00259048 -0.00655552 0.24133374
v -0.00273625 -0.00690748 0.24133374
v 0.00222108 0.01082791 0.23608697
v 0.00001402 0.01104529 0.23608697
v 0.00001403 0.00737934 0.24110059
v 0.00150590 0.00723241 0.24110059
v -0.00376712 -0.00592660 0.24133374
v -0.00397875 -0.00624334 0.24133374
v 0.00305381 0.01501437 0.22183940
v 0.00001402 0.01531376 0.22183940
v 0.00001402 0.01648302 0.22183939
v 0.00328192 0.01616115 0.22183939
v -0.00479845 -0.00508019 0.24133374
v -0.00506782 -0.00534957 0.24133374
v 0.00630182 0.00233677 0.24133374
v 0.00668911 0.00106004 0.24133374
v 0.00706274 0.00113435 0.24133374
v 0.00665378 0.00248256 0.24133374
v -0.00564484 -0.00404886 0.24133374
v -0.00596160 -0.00426051 0.24133374
v 0.00681989 -0.00026773 0.24133374
v 0.00720083 -0.00026773 0.24133374
v -0.00627377 -0.00287222 0.24133374
v -0.00662573 -0.00301800 0.24133374
v 0.00668911 -0.00159548 0.24133374
v 0.00706274 -0.00166981 0.24133374
v 0.00567289 0.00351342 0.24133374
v 0.00598965 0.00372506 0.24133374
v -0.00666108 -0.00159548 0.24133374
v -0.00703471 -0.00166981 0.24133374
v 0.00630182 -0.00287222 0.24133374
v 0.00665378 -0.00301800 0.24133374
v -0.00679185 -0.00026773 0.24133374
v -0.00717279 -0.00026773 0.24133374
v 0.00680717 -0.01666785 0.22283519
v 0.00987614 -0.01502743 0.22283519
v 0.00987614 -0.01502743 0.23055711
v 0.00680717 -0.01666785 0.23055711
v -0.01526808 0.00277208 0.22183940
v -0.01556747 -0.00026773 0.22183940
v -0.01673672 -0.00026773 0.22183939
v -0.01641486 0.00300019 0.22183939
v 0.01103178 -0.01128549 0.22183940
v 0.01185858 -0.01211229 0.22183939
v -0.01438140 0.00569505 0.22183940
v -0.01546164 0.00614251 0.22183939
v 0.00867062 -0.01322325 0.22183940
v 0.00932023 -0.01419544 0.22183939
v -0.01294153 0.00838889 0.22183940
v -0.01391371 0.00903848 0.22183939
v 0.00597679 -0.01466313 0.22183940
v 0.00642424 -0.01574338 0.22183939
v 0.00597679 0.01412769 0.22183940
v 0.00642424 0.01520794 0.22183939
v -0.01100376 0.01075005 0.22183940
v -0.01183055 0.01157683 0.22183939
v 0.00305381 -0.01554981 0.22183940
v 0.00328192 -0.01669660 0.22183939
v 0.00482649 0.00454475 0.24133374
v 0.00509587 0.00481413 0.24133374
v -0.00864260 0.01268781 0.22183940
v -0.00929220 0.01366000 0.22183939
v 0.00001402 -0.01584920 0.22183940
v 0.00001402 -0.01701846 0.22183939
v 0.00867062 0.01268781 0.22183940
v 0.00932023 0.01366000 0.22183939
v -0.00594876 0.01412769 0.22183940
v -0.00639622 0.01520794 0.22183939
v -0.00302578 -0.01554981 0.22183940
v -0.00325389 -0.01669660 0.22183939
v 0.01103178 0.01075005 0.22183940
v 0.01185858 0.01157683 0.22183939
v -0.00302578 0.01501437 0.22183940
v -0.00325389 0.01616115 0.22183939
v -0.00594876 -0.01466313 0.22183940
v -0.00639622 -0.01574338 0.22183939
v 0.01296954 0.00838889 0.22183940
v 0.01394174 0.00903848 0.22183939
v -0.00864260 -0.01322325 0.22183940
v -0.00929220 -0.01419544 0.22183939
v 0.01440944 0.00569505 0.22183940
v 0.01548967 0.00614251 0.22183939
v -0.01100376 -0.01128549 0.22183940
v -0.01183055 -0.01211229 0.22183939
v 0.01529610 0.00277208 0.22183940
v 0.01644289 0.00300019 0.22183939
v -0.01294153 -0.00892433 0.22183940
v -0.01391371 -0.00957394 0.22183939
v 0.01559550 -0.00026773 0.22183940
v 0.01676475 -0.00026773 0.22183939
v -0.01438140 -0.00623051 0.22183940
v -0.01546164 -0.00667795 0.22183939
v 0.01529610 -0.00330752 0.22183940
v 0.01644289 -0.00353563 0.22183939
v -0.01526808 -0.00330752 0.22183940
v -0.01641486 -0.00353563 0.22183939
v -0.00336103 -0.01723522 0.23139062
v 0.00001402 -0.01756763 0.23139062
v 0.00001402 -0.01421292 0.23358777
v -0.00270655 -0.01394498 0.23358777
v 0.00680717 0.01613239 0.22283519
v 0.00347713 0.01714255 0.22283519
v 0.00347714 0.01714255 0.23055711
v 0.00680717 0.01613239 0.23055711
v -0.01253810 0.01228439 0.22283519
v -0.01474571 0.00959440 0.22283519
v -0.01474571 0.00959440 0.23055711
v -0.01253809 0.01228439 0.23055711
v 0.00347713 -0.01767799 0.22283519
v 0.00347714 -0.01767799 0.23055711
v 0.00379516 0.00539114 0.24133374
v 0.00400680 0.00570790 0.24133374
v -0.00984811 0.01449199 0.22283519
v -0.00984811 0.01449199 0.23055711
v 0.00001402 -0.01801908 0.22283519
v 0.00001402 -0.01801908 0.23055711
v 0.00987614 0.01449199 0.22283519
v 0.00987614 0.01449199 0.23055711
v -0.00677914 0.01613239 0.22283519
v -0.00677914 0.01613239 0.23055711
v -0.00344911 -0.01767799 0.22283519
v -0.00344909 -0.01767799 0.23055711
v 0.01256612 0.01228439 0.22283519
v 0.01256612 0.01228439 0.23055711
v -0.00344911 0.01714255 0.22283519
v -0.00344909 0.01714255 0.23055711
v -0.00677914 -0.01666785 0.22283519
v -0.00677914 -0.01666785 0.23055711
v 0.01477372 0.00959440 0.22283519
v 0.01477374 0.00959440 0.23055711
v 0.00001402 0.01748364 0.22283519
v 0.00001402 0.01748364 0.23055711
v -0.00984811 -0.01502743 0.22283519
v -0.00984811 -0.01502743 0.23055711
v 0.01641413 0.00652543 0.22283519
v 0.01641413 0.00652543 0.23055711
v -0.01253809 -0.01281983 0.22283519
v -0.01253809 -0.01281983 0.23055711
v 0.01742428 0.00319540 0.22283519
v 0.01742428 0.00319540 0.23055711
v -0.01474571 -0.01012985 0.22283519
v -0.01474569 -0.01012985 0.23055711
v 0.01776538 -0.00026773 0.22283519
v 0.01776538 -0.00026773 0.23055711
v -0.01638610 -0.00706088 0.22283519
v -0.01638610 -0.00706088 0.23055711
v 0.01742428 -0.00373084 0.22283519
v 0.01742428 -0.00373084 0.23055711
v -0.01739626 -0.00373084 0.22283519
v -0.01739625 -0.00373084 0.23055711
v 0.01641413 -0.00706086 0.22283519
v 0.01641413 -0.00706086 0.23055711
v -0.01773735 -0.00026773 0.22283519
v -0.01773735 -0.00026773 0.23055711
v 0.01477372 -0.01012984 0.22283519
v 0.01477374 -0.01012984 0.23055711
v -0.01739626 0.00319540 0.22283519
v -0.01739625 0.00319540 0.23055711
v 0.01256612 -0.01281983 0.22283519
v 0.01256612 -0.01281983 0.23055711
v -0.01638610 0.00652544 0.22283519
v -0.01638610 0.00652544 0.23055711
v 0.01224690 0.01196516 0.23139062
v 0.00962533 0.01411663 0.23139062
v 0.00776156 0.01132730 0.23358777
v 0.00987477 0.00959302 0.23358777
v -0.00336103 0.01669978 0.23139062
v -0.00660638 0.01571531 0.23139062
v -0.00532259 0.01261598 0.23358777
v -0.00270655 0.01340953 0.23358777
v 0.01439837 0.00934360 0.23139062
v 0.01160903 0.00747982 0.23358777
v 0.00001402 0.01703219 0.23139062
v 0.00001402 0.01367748 0.23358777
v 0.01599705 0.00635267 0.23139062
v 0.01289770 0.00506887 0.23358777
v -0.01221887 -0.01250061 0.23139062
v -0.00959730 -0.01465207 0.23139062
v -0.00773352 -0.01186274 0.23358777
v -0.00984673 -0.01012848 0.23358777
v 0.01698151 0.00310733 0.23139062
v 0.01369127 0.00245285 0.23358777
v -0.01437033 -0.00987904 0.23139062
v -0.01158099 -0.00801526 0.23358777
v 0.01731393 -0.00026773 0.23139062
v 0.01395922 -0.00026773 0.23358777
v -0.01596902 -0.00688812 0.23139062
v -0.01286967 -0.00560431 0.23358777
v 0.01698151 -0.00364277 0.23139062
v 0.01369127 -0.00298829 0.23358777
v -0.01695348 -0.00364277 0.23139062
v -0.01366324 -0.00298829 0.23358777
v 0.01599705 -0.00688811 0.23139062
v 0.01289770 -0.00560431 0.23358777
v -0.01728590 -0.00026773 0.23139062
v -0.01393118 -0.00026773 0.23358777
v 0.01439837 -0.00987904 0.23139062
v 0.01160903 -0.00801526 0.23358777
v -0.01695348 0.00310733 0.23139062
v -0.01366324 0.00245285 0.23358777
v 0.01224690 -0.01250061 0.23139062
v 0.00987477 -0.01012848 0.23358777
v -0.01596902 0.00635267 0.23139062
v -0.01286967 0.00506887 0.23358777
v 0.00962533 -0.01465207 0.23139062
v 0.00776156 -0.01186274 0.23358777
v -0.01437034 0.00934360 0.23139062
v -0.01158099 0.00747982 0.23358777
v 0.00663441 -0.01625076 0.23139062
v 0.00535062 -0.01315142 0.23358777
v 0.00663441 0.01571531 0.23139062
v 0.00338906 0.01669978 0.23139062
v 0.00273459 0.01340953 0.23358777
v 0.00535062 0.01261598 0.23358777
v -0.01221887 0.01196516 0.23139062
v -0.00984673 0.00959302 0.23358777
v 0.00338906 -0.01723522 0.23139062
v 0.00273459 -0.01394498 0.23358777
v 0.00261851 0.00602008 0.24133374
v 0.00276430 0.00637204 0.24133374
v -0.00959730 0.01411663 0.23139062
v -0.00773352 0.01132730 0.23358777
v 0.00001402 0.01679222 0.22188815
v 0.00334224 0.01646442 0.22188815
v 0.00001402 0.01707117 0.22202957
v 0.00339667 0.01673801 0.22202957
v 0.00001402 0.01729253 0.22224989
v 0.00343985 0.01695513 0.22224989
v 0.00001402 0.01743466 0.22252748
v 0.00346757 0.01709451 0.22252748
v 0.00654256 0.01549361 0.22188815
v 0.00664932 0.01575132 0.22202957
v 0.00673404 0.01595584 0.22224989
v 0.00678842 0.01608715 0.22252748
v 0.00949200 0.01391711 0.22188815
v 0.00964698 0.01414904 0.22202957
v 0.00976997 0.01433310 0.22224989
v 0.00984894 0.01445127 0.22252748
v 0.01207721 0.01179549 0.22188815
v 0.01227445 0.01199272 0.22202957
v 0.01243099 0.01214925 0.22224989
v 0.01253149 0.01224976 0.22252748
v 0.01419884 0.00921028 0.22188815
v 0.01443076 0.00936525 0.22202957
v 0.01461482 0.00948824 0.22224989
v 0.01473301 0.00956719 0.22252748
v 0.01577535 0.00626084 0.22188815
v 0.01603305 0.00636758 0.22202957
v 0.01623757 0.00645230 0.22224989
v 0.01636888 0.00650668 0.22252748
v 0.01674616 0.00306051 0.22188815
v 0.01701974 0.00311493 0.22202957
v 0.01723685 0.00315812 0.22224989
v 0.01737626 0.00318584 0.22252748
v 0.01707395 -0.00026773 0.22188815
v 0.01735290 -0.00026773 0.22202957
v 0.01757428 -0.00026773 0.22224989
v 0.01771640 -0.00026773 0.22252748
v 0.01674616 -0.00359595 0.22188815
v 0.01701974 -0.00365037 0.22202957
v 0.01723685 -0.00369356 0.22224989
v 0.01737626 -0.00372128 0.22252748
v 0.01577535 -0.00679628 0.22188815
v 0.01603305 -0.00690302 0.22202957
v 0.01623757 -0.00698773 0.22224989
v 0.01636888 -0.00704213 0.22252748
v 0.01419884 -0.00974572 0.22188815
v 0.01443076 -0.00990069 0.22202957
v 0.01461482 -0.01002368 0.22224989
v 0.01473301 -0.01010263 0.22252748
v 0.01207721 -0.01233092 0.22188815
v 0.01227445 -0.01252816 0.22202957
v 0.01243099 -0.01268470 0.22224989
v 0.01253149 -0.01278520 0.22252748
v 0.00949200 -0.01445255 0.22188815
v 0.00964698 -0.01468448 0.22202957
v 0.00976997 -0.01486854 0.22224989
v 0.00984894 -0.01498672 0.22252748
v 0.00654256 -0.01602906 0.22188815
v 0.00664932 -0.01628676 0.22202957
v 0.00673404 -0.01649128 0.22224989
v 0.00678842 -0.01662259 0.22252748
v 0.00334224 -0.01699986 0.22188815
v 0.00339667 -0.01727345 0.22202957
v 0.00343985 -0.01749057 0.22224989
v 0.00346757 -0.01762997 0.22252748
v 0.00001402 -0.01732766 0.22188815
v 0.00001402 -0.01760661 0.22202957
v 0.00001402 -0.01782797 0.22224989
v 0.00001402 -0.01797010 0.22252748
v -0.00331422 -0.01699986 0.22188815
v -0.00336864 -0.01727345 0.22202957
v -0.00341182 -0.01749057 0.22224989
v -0.00343955 -0.01762997 0.22252748
v -0.00651455 -0.01602906 0.22188815
v -0.00662129 -0.01628676 0.22202957
v -0.00670601 -0.01649128 0.22224989
v -0.00676039 -0.01662259 0.22252748
v -0.00946399 -0.01445255 0.22188815
v -0.00961895 -0.01468448 0.22202957
v -0.00974195 -0.01486854 0.22224989
v -0.00982090 -0.01498672 0.22252748
v -0.01204918 -0.01233092 0.22188815
v -0.01224643 -0.01252816 0.22202957
v -0.01240296 -0.01268470 0.22224989
v -0.01250347 -0.01278520 0.22252748
v -0.01417082 -0.00974573 0.22188815
v -0.01440275 -0.00990069 0.22202957
v -0.01458681 -0.01002368 0.22224989
v -0.01470498 -0.01010265 0.22252748
v -0.01574732 -0.00679628 0.22188815
v -0.01600503 -0.00690303 0.22202957
v -0.01620956 -0.00698775 0.22224989
v -0.01634086 -0.00704213 0.22252748
v -0.01671813 -0.00359595 0.22188815
v -0.01699172 -0.00365037 0.22202957
v -0.01720882 -0.00369356 0.22224989
v -0.01734823 -0.00372128 0.22252748
v -0.01704594 -0.00026773 0.22188815
v -0.01732488 -0.00026773 0.22202957
v -0.01754624 -0.00026773 0.22224989
v -0.01768837 -0.00026773 0.22252748
v -0.01671813 0.00306051 0.22188815
v -0.01699172 0.00311493 0.22202957
v -0.01720882 0.00315812 0.22224989
v -0.01734823 0.00318584 0.22252748
v -0.01574732 0.00626084 0.22188815
v -0.01600503 0.00636759 0.22202957
v -0.01620956 0.00645230 0.22224989
v -0.01634086 0.00650670 0.22252748
v -0.01417082 0.00921028 0.22188815
v -0.01440275 0.00936524 0.22202957
v -0.01458681 0.00948823 0.22224989
v -0.01470498 0.00956719 0.22252748
v -0.01204920 0.01179549 0.22188815
v -0.01224643 0.01199272 0.22202957
v -0.01240296 0.01214925 0.22224989
v -0.01250347 0.01224976 0.22252748
v -0.00946399 0.01391711 0.22188815
v -0.00961895 0.01414904 0.22202957
v -0.00974195 0.01433310 0.22224989
v -0.00982090 0.01445127 0.22252748
v -0.00651455 0.01549362 0.22188815
v -0.00662129 0.01575132 0.22202957
v -0.00670601 0.01595584 0.22224989
v -0.00676039 0.01608715 0.22252748
v -0.00331422 0.01646442 0.22188815
v -0.00336864 0.01673801 0.22202957
v -0.00341182 0.01695513 0.22224989
v -0.00343955 0.01709451 0.22252748
v 0.00134179 0.00640737 0.24133374
v 0.00141610 0.00678100 0.24133374
v 0.00001402 0.01746154 0.23073777
v 0.00347282 0.01712088 0.23073777
v 0.00001402 0.01739741 0.23092970
v 0.00346031 0.01705799 0.23092970
v 0.00001402 0.01729755 0.23111409
v 0.00344083 0.01696004 0.23111409
v 0.00001402 0.01717170 0.23127291
v 0.00341628 0.01683661 0.23127291
v 0.00679872 0.01611199 0.23073777
v 0.00677418 0.01605275 0.23092970
v 0.00673595 0.01596047 0.23111409
v 0.00668779 0.01584420 0.23127291
v 0.00986387 0.01447362 0.23073777
v 0.00982825 0.01442030 0.23092970
v 0.00977275 0.01433726 0.23111409
v 0.00970283 0.01423262 0.23127291
v 0.01255050 0.01226876 0.23073777
v 0.01250516 0.01222342 0.23092970
v 0.01243454 0.01215280 0.23111409
v 0.01234555 0.01206381 0.23127291
v 0.01475536 0.00958213 0.23073777
v 0.01470204 0.00954650 0.23092970
v 0.01461900 0.00949102 0.23111409
v 0.01451436 0.00942110 0.23127291
v 0.01639372 0.00651698 0.23073777
v 0.01633447 0.00649244 0.23092970
v 0.01624220 0.00645421 0.23111409
v 0.01612595 0.00640606 0.23127291
v 0.01740261 0.00319110 0.23073777
v 0.01733972 0.00317858 0.23092970
v 0.01724177 0.00315909 0.23111409
v 0.01711834 0.00313454 0.23127291
v 0.01774328 -0.00026773 0.23073777
v 0.01767916 -0.00026773 0.23092970
v 0.01757929 -0.00026773 0.23111409
v 0.01745343 -0.00026773 0.23127291
v 0.01740261 -0.00372653 0.23073777
v 0.01733972 -0.00371402 0.23092970
v 0.01724177 -0.00369453 0.23111409
v 0.01711834 -0.00366998 0.23127291
v 0.01639372 -0.00705242 0.23073777
v 0.01633449 -0.00702788 0.23092970
v 0.01624220 -0.00698965 0.23111409
v 0.01612595 -0.00694150 0.23127291
v 0.01475536 -0.01011757 0.23073777
v 0.01470204 -0.01008194 0.23092970
v 0.01461900 -0.01002646 0.23111409
v 0.01451436 -0.00995654 0.23127291
v 0.01255050 -0.01280420 0.23073777
v 0.01250516 -0.01275887 0.23092970
v 0.01243454 -0.01268824 0.23111409
v 0.01234555 -0.01259925 0.23127291
v 0.00986387 -0.01500907 0.23073777
v 0.00982825 -0.01495575 0.23092970
v 0.00977275 -0.01487271 0.23111409
v 0.00970283 -0.01476807 0.23127291
v 0.00679872 -0.01664743 0.23073777
v 0.00677418 -0.01658818 0.23092970
v 0.00673595 -0.01649591 0.23111409
v 0.00668779 -0.01637964 0.23127291
v 0.00347282 -0.01765632 0.23073777
v 0.00346031 -0.01759343 0.23092970
v 0.00344083 -0.01749548 0.23111409
v 0.00341628 -0.01737205 0.23127291
v 0.00001402 -0.01799698 0.23073777
v 0.00001402 -0.01793287 0.23092970
v 0.00001402 -0.01783298 0.23111409
v 0.00001402 -0.01770714 0.23127291
v -0.00344479 -0.01765632 0.23073777
v -0.00343228 -0.01759343 0.23092970
v -0.00341280 -0.01749548 0.23111409
v -0.00338825 -0.01737205 0.23127291
v -0.00677069 -0.01664743 0.23073777
v -0.00674614 -0.01658818 0.23092970
v -0.00670792 -0.01649591 0.23111409
v -0.00665976 -0.01637964 0.23127291
v -0.00660638 -0.01625076 0.23139062
v -0.00983583 -0.01500906 0.23073777
v -0.00980022 -0.01495575 0.23092970
v -0.00974472 -0.01487271 0.23111409
v -0.00967480 -0.01476807 0.23127291
v -0.01252247 -0.01280420 0.23073777
v -0.01247713 -0.01275887 0.23092970
v -0.01240650 -0.01268824 0.23111409
v -0.01231751 -0.01259925 0.23127291
v -0.01472733 -0.01011757 0.23073777
v -0.01467401 -0.01008196 0.23092970
v -0.01459097 -0.01002646 0.23111409
v -0.01448633 -0.00995654 0.23127291
v -0.01636568 -0.00705242 0.23073777
v -0.01630644 -0.00702788 0.23092970
v -0.01621417 -0.00698967 0.23111409
v -0.01609790 -0.00694150 0.23127291
v -0.01737458 -0.00372653 0.23073777
v -0.01731169 -0.00371402 0.23092970
v -0.01721374 -0.00369454 0.23111409
v -0.01709031 -0.00366999 0.23127291
v -0.01771525 -0.00026773 0.23073777
v -0.01765113 -0.00026773 0.23092970
v -0.01755126 -0.00026773 0.23111409
v -0.01742540 -0.00026773 0.23127291
v -0.01737458 0.00319110 0.23073777
v -0.01731169 0.00317858 0.23092970
v -0.01721374 0.00315909 0.23111409
v -0.01709031 0.00313454 0.23127291
v -0.01636568 0.00651698 0.23073777
v -0.01630644 0.00649244 0.23092970
v -0.01621417 0.00645423 0.23111409
v -0.01609790 0.00640606 0.23127291
v -0.01472733 0.00958213 0.23073777
v -0.01467401 0.00954650 0.23092970
v -0.01459097 0.00949101 0.23111409
v -0.01448633 0.00942110 0.23127291
v -0.01252247 0.01226876 0.23073777
v -0.01247713 0.01222342 0.23092970
v -0.01240650 0.01215280 0.23111409
v -0.01231752 0.01206381 0.23127291
v -0.00983583 0.01447362 0.23073777
v -0.00980022 0.01442030 0.23092970
v -0.00974472 0.01433726 0.23111409
v -0.00967480 0.01423262 0.23127291
v -0.00677069 0.01611199 0.23073777
v -0.00674614 0.01605275 0.23092970
v -0.00670792 0.01596047 0.23111409
v -0.00665976 0.01584420 0.23127291
v -0.00344479 0.01712088 0.23073777
v -0.00343228 0.01705799 0.23092970
v -0.00341280 0.01696004 0.23111409
v -0.00338825 0.01683661 0.23127291
v 0.00001402 0.01314700 0.23397314
v 0.00263110 0.01288924 0.23397314
v 0.00001402 0.01256196 0.23446644
v 0.00251696 0.01231545 0.23446644
v 0.00001402 0.01197965 0.23501933
v 0.00240336 0.01174431 0.23501933
v 0.00001402 0.01145703 0.23557774
v 0.00230141 0.01123175 0.23557774
v 0.00514761 0.01212586 0.23397314
v 0.00492372 0.01158537 0.23446644
v 0.00470088 0.01104736 0.23501933
v 0.00450089 0.01056453 0.23557774
v 0.00434333 0.01018414 0.23608697
v 0.00746684 0.01088622 0.23397314
v 0.00714180 0.01039977 0.23446644
v 0.00681829 0.00991559 0.23501933
v 0.00652794 0.00948106 0.23557774
v 0.00629919 0.00913869 0.23608697
v 0.00949966 0.00921792 0.23397314
v 0.00908598 0.00880424 0.23446644
v 0.00867421 0.00839247 0.23501933
v 0.00830467 0.00802293 0.23557774
v 0.00801353 0.00773179 0.23608697
v 0.01116796 0.00718510 0.23397314
v 0.01068151 0.00686008 0.23446644
v 0.01019733 0.00653654 0.23501933
v 0.00976280 0.00624620 0.23557774
v 0.00942044 0.00601745 0.23608697
v 0.01240761 0.00486587 0.23397314
v 0.01186711 0.00464198 0.23446644
v 0.01132911 0.00441914 0.23501933
v 0.01084627 0.00421915 0.23557774
v 0.01046588 0.00406158 0.23608697
v 0.01317098 0.00234936 0.23397314
v 0.01259719 0.00223522 0.23446644
v 0.01202605 0.00212162 0.23501933
v 0.01151349 0.00201967 0.23557774
v 0.01110965 0.00193934 0.23608697
v 0.01342874 -0.00026773 0.23397314
v 0.01284370 -0.00026773 0.23446644
v 0.01226139 -0.00026773 0.23501933
v 0.01173877 -0.00026773 0.23557774
v 0.01132703 -0.00026773 0.23608697
v 0.01317098 -0.00288480 0.23397314
v 0.01259719 -0.00277068 0.23446644
v 0.01202605 -0.00265706 0.23501933
v 0.01151349 -0.00255511 0.23557774
v 0.01110965 -0.00247478 0.23608697
v 0.01240761 -0.00540131 0.23397314
v 0.01186711 -0.00517743 0.23446644
v 0.01132911 -0.00495458 0.23501933
v 0.01084627 -0.00475459 0.23557774
v 0.01046588 -0.00459702 0.23608697
v 0.01116796 -0.00772054 0.23397314
v 0.01068151 -0.00739552 0.23446644
v 0.01019733 -0.00707198 0.23501933
v 0.00976280 -0.00678164 0.23557774
v 0.00942044 -0.00655289 0.23608697
v 0.00949966 -0.00975337 0.23397314
v 0.00908598 -0.00933968 0.23446644
v 0.00867421 -0.00892791 0.23501933
v 0.00830467 -0.00855837 0.23557774
v 0.00801353 -0.00826723 0.23608697
v 0.00746684 -0.01142166 0.23397314
v 0.00714180 -0.01093522 0.23446644
v 0.00681829 -0.01045103 0.23501933
v 0.00652794 -0.01001650 0.23557774
v 0.00629919 -0.00967415 0.23608697
v 0.00514761 -0.01266132 0.23397314
v 0.00492374 -0.01212081 0.23446644
v 0.00470088 -0.01158281 0.23501933
v 0.00450089 -0.01109997 0.23557774
v 0.00434333 -0.01071958 0.23608697
v 0.00263110 -0.01342468 0.23397314
v 0.00251696 -0.01285089 0.23446644
v 0.00240336 -0.01227975 0.23501933
v 0.00230141 -0.01176719 0.23557774
v 0.00222108 -0.01136335 0.23608697
v 0.00001402 -0.01368245 0.23397314
v 0.00001402 -0.01309741 0.23446644
v 0.00001402 -0.01251508 0.23501933
v 0.00001402 -0.01199247 0.23557774
v 0.00001402 -0.01158072 0.23608697
v -0.00260306 -0.01342468 0.23397314
v -0.00248893 -0.01285089 0.23446644
v -0.00237532 -0.01227975 0.23501933
v -0.00227336 -0.01176719 0.23557774
v -0.00219303 -0.01136335 0.23608697
v -0.00532259 -0.01315142 0.23358777
v -0.00511957 -0.01266132 0.23397314
v -0.00489569 -0.01212081 0.23446644
v -0.00467284 -0.01158281 0.23501933
v -0.00447284 -0.01109998 0.23557774
v -0.00431528 -0.01071958 0.23608697
v -0.00743880 -0.01142166 0.23397314
v -0.00711377 -0.01093522 0.23446644
v -0.00679026 -0.01045103 0.23501933
v -0.00649991 -0.01001650 0.23557774
v -0.00627115 -0.00967415 0.23608697
v -0.00947163 -0.00975337 0.23397314
v -0.00905794 -0.00933968 0.23446644
v -0.00864617 -0.00892791 0.23501933
v -0.00827663 -0.00855837 0.23557774
v -0.00798548 -0.00826723 0.23608697
v -0.01113991 -0.00772054 0.23397314
v -0.01065348 -0.00739552 0.23446644
v -0.01016929 -0.00707200 0.23501933
v -0.00973475 -0.00678165 0.23557774
v -0.00939241 -0.00655289 0.23608697
v -0.01237957 -0.00540131 0.23397314
v -0.01183907 -0.00517743 0.23446644
v -0.01130107 -0.00495458 0.23501933
v -0.01081824 -0.00475459 0.23557774
v -0.01043784 -0.00459702 0.23608697
v -0.01314295 -0.00288480 0.23397314
v -0.01256914 -0.00277068 0.23446644
v -0.01199802 -0.00265706 0.23501933
v -0.01148544 -0.00255511 0.23557774
v -0.01108161 -0.00247478 0.23608697
v -0.01340071 -0.00026773 0.23397314
v -0.01281567 -0.00026773 0.23446644
v -0.01223334 -0.00026773 0.23501933
v -0.01171073 -0.00026773 0.23557774
v -0.01129898 -0.00026773 0.23608697
v -0.01314295 0.00234936 0.23397314
v -0.01256914 0.00223522 0.23446644
v -0.01199801 0.00212162 0.23501933
v -0.01148544 0.00201967 0.23557774
v -0.01108161 0.00193934 0.23608697
v -0.01237957 0.00486587 0.23397314
v -0.01183907 0.00464199 0.23446644
v -0.01130107 0.00441914 0.23501933
v -0.01081824 0.00421915 0.23557774
v -0.01043784 0.00406158 0.23608697
v -0.01113991 0.00718510 0.23397314
v -0.01065348 0.00686006 0.23446644
v -0.01016929 0.00653654 0.23501933
v -0.00973475 0.00624620 0.23557774
v -0.00939241 0.00601745 0.23608697
v -0.00947163 0.00921792 0.23397314
v -0.00905794 0.00880424 0.23446644
v -0.00864617 0.00839247 0.23501933
v -0.00827663 0.00802293 0.23557774
v -0.00798548 0.00773179 0.23608697
v -0.00743880 0.01088622 0.23397314
v -0.00711377 0.01039977 0.23446644
v -0.00679026 0.00991559 0.23501933
v -0.00649991 0.00948106 0.23557774
v -0.00627115 0.00913869 0.23608697
v -0.00511957 0.01212586 0.23397314
v -0.00489569 0.01158537 0.23446644
v -0.00467284 0.01104736 0.23501933
v -0.00447284 0.01056453 0.23557774
v -0.00431528 0.01018414 0.23608697
v -0.00260306 0.01288924 0.23397314
v -0.00248893 0.01231545 0.23446644
v -0.00237532 0.01174431 0.23501933
v -0.00227336 0.01123175 0.23557774
v -0.00219303 0.01082791 0.23608697
v 0.00294042 0.00679724 0.24110059
v 0.00001403 0.00653815 0.24133374
v 0.00001403 0.00691909 0.24133374
v 0.00426250 0.00609058 0.24110059
v 0.00542132 0.00513958 0.24110059
v 0.00637232 0.00398076 0.24110059
v 0.00707900 0.00265868 0.24110059
v 0.00751416 0.00122415 0.24110059
v 0.00766108 -0.00026773 0.24110059
v 0.00751416 -0.00175959 0.24110059
v 0.00707900 -0.00319413 0.24110059
v 0.00637232 -0.00451620 0.24110059
v 0.00542132 -0.00567502 0.24110059
v 0.00426250 -0.00662602 0.24110059
v 0.00294042 -0.00733270 0.24110059
v 0.00150590 -0.00776785 0.24110059
v 0.00001402 -0.00791480 0.24110059
v -0.00147785 -0.00776785 0.24110059
v -0.00291239 -0.00733270 0.24110059
v -0.00423445 -0.00662602 0.24110059
v -0.00539327 -0.00567502 0.24110059
v -0.00634428 -0.00451621 0.24110059
v -0.00705095 -0.00319413 0.24110059
v -0.00748611 -0.00175959 0.24110059
v -0.00763304 -0.00026773 0.24110059
v -0.00748611 0.00122415 0.24110059
v -0.00705095 0.00265868 0.24110059
v -0.00634428 0.00398076 0.24110059
v -0.00539327 0.00513958 0.24110059
v -0.00423445 0.00609058 0.24110059
v -0.00291239 0.00679724 0.24110059
v -0.00147785 0.00723241 0.24110059
v -0.01195174 0.00468866 0.23110493
v -0.01075488 0.00692783 0.23110493
v 0.00720957 0.01050118 0.23110493
v 0.00497040 0.01169803 0.23110493
v 0.00532802 0.01256145 0.22268718
v 0.00772876 0.01127822 0.22268718
v 0.00720957 -0.01103662 0.23110493
v 0.00497040 -0.01223348 0.23110493
v 0.00001402 0.01268392 0.23110493
v 0.00254076 0.01243507 0.23110493
v -0.00914418 0.00889048 0.23110493
v 0.00254076 -0.01297051 0.23110493
v -0.00718154 0.01050118 0.23110493
v 0.00001402 -0.01321936 0.23110493
v -0.00494237 0.01169805 0.23110493
v -0.00251272 -0.01297051 0.23110493
v 0.00917222 0.00889048 0.23110493
v -0.00251272 0.01243507 0.23110493
v -0.00494237 -0.01223348 0.23110493
v 0.01078291 0.00692783 0.23110493
v -0.00718154 -0.01103662 0.23110493
v 0.01197977 0.00468866 0.23110493
v -0.00914418 -0.00942592 0.23110493
v 0.01271680 0.00225902 0.23110493
v -0.01075488 -0.00746328 0.23110493
v 0.01296566 -0.00026773 0.23110493
v -0.01195174 -0.00522411 0.23110493
v 0.01271680 -0.00279446 0.23110493
v -0.01268876 -0.00279446 0.23110493
v 0.01197977 -0.00522409 0.23110493
v -0.01293762 -0.00026773 0.23110493
v 0.01078291 -0.00746326 0.23110493
v -0.01268876 0.00225902 0.23110493
v 0.00917222 -0.00942592 0.23110493
v -0.00770075 0.01127822 0.22268718
v -0.00530001 0.01256145 0.22268718
v 0.00001402 -0.01415391 0.22268718
v -0.00269505 -0.01388709 0.22268718
v 0.00983303 0.00955130 0.22268718
v -0.00269505 0.01335165 0.22268718
v -0.00530001 -0.01309689 0.22268718
v 0.01155996 0.00744703 0.22268718
v 0.00001402 0.01361847 0.22268718
v -0.00770075 -0.01181366 0.22268718
v 0.01284318 0.00504630 0.22268718
v -0.00980500 -0.01008674 0.22268718
v 0.01363338 0.00244133 0.22268718
v -0.01153193 -0.00798247 0.22268718
v 0.01390021 -0.00026773 0.22268718
v -0.01281514 -0.00558174 0.22268718
v 0.01363338 -0.00297679 0.22268718
v -0.01360536 -0.00297679 0.22268718
v 0.01284318 -0.00558174 0.22268718
v -0.01387218 -0.00026773 0.22268718
v 0.01155996 -0.00798247 0.22268718
v -0.01360536 0.00244133 0.22268718
v 0.00983303 -0.01008674 0.22268718
v -0.01281514 0.00504630 0.22268718
v 0.00772876 -0.01181366 0.22268718
v -0.01153193 0.00744703 0.22268718
v 0.00532802 -0.01309689 0.22268718
v 0.00272308 0.01335165 0.22268718
v -0.00980500 0.00955130 0.22268718
v 0.00272308 -0.01388709 0.22268718
v 0.00001403 0.00725528 0.24121717
v 0.00148168 0.00711072 0.24121717
v 0.00001403 0.00708682 0.24130252
v 0.00144883 0.00694550 0.24130252
v 0.00289295 0.00668262 0.24121717
v 0.00282848 0.00652699 0.24130252
v 0.00419357 0.00598743 0.24121717
v 0.00409998 0.00584735 0.24130252
v 0.00533359 0.00505185 0.24121717
v 0.00521447 0.00493272 0.24130252
v 0.00626917 0.00391183 0.24121717
v 0.00612910 0.00381824 0.24130252
v 0.00696438 0.00261121 0.24121717
v 0.00680873 0.00254674 0.24130252
v 0.00739246 0.00119994 0.24121717
v 0.00722725 0.00116708 0.24130252
v 0.00753702 -0.00026773 0.24121717
v 0.00736856 -0.00026773 0.24130252
v 0.00739246 -0.00173538 0.24121717
v 0.00722725 -0.00170252 0.24130252
v 0.00696438 -0.00314665 0.24121717
v 0.00680873 -0.00308218 0.24130252
v 0.00626917 -0.00444727 0.24121717
v 0.00612910 -0.00435369 0.24130252
v 0.00533359 -0.00558729 0.24121717
v 0.00521447 -0.00546816 0.24130252
v 0.00419357 -0.00652287 0.24121717
v 0.00409998 -0.00638280 0.24130252
v 0.00289295 -0.00721807 0.24121717
v 0.00282848 -0.00706243 0.24130252
v 0.00148168 -0.00764617 0.24121717
v 0.00144883 -0.00748094 0.24130252
v 0.00001402 -0.00779073 0.24121717
v 0.00001402 -0.00762226 0.24130252
v -0.00145364 -0.00764617 0.24121717
v -0.00142078 -0.00748094 0.24130252
v -0.00286491 -0.00721807 0.24121717
v -0.00280044 -0.00706243 0.24130252
v -0.00416553 -0.00652287 0.24121717
v -0.00407194 -0.00638280 0.24130252
v -0.00530555 -0.00558729 0.24121717
v -0.00518642 -0.00546816 0.24130252
v -0.00624113 -0.00444728 0.24121717
v -0.00610106 -0.00435369 0.24130252
v -0.00693633 -0.00314665 0.24121717
v -0.00678068 -0.00308218 0.24130252
v -0.00736443 -0.00173538 0.24121717
v -0.00719920 -0.00170252 0.24130252
v -0.00750897 -0.00026773 0.24121717
v -0.00734052 -0.00026773 0.24130252
v -0.00736443 0.00119994 0.24121717
v -0.00719920 0.00116708 0.24130252
v -0.00693633 0.00261121 0.24121717
v -0.00678068 0.00254674 0.24130252
v -0.00624113 0.00391183 0.24121717
v -0.00610106 0.00381824 0.24130252
v -0.00530555 0.00505185 0.24121717
v -0.00518642 0.00493272 0.24130252
v -0.00416553 0.00598743 0.24121717
v -0.00407194 0.00584735 0.24130252
v -0.00286491 0.00668262 0.24121717
v -0.00280044 0.00652699 0.24130252
v -0.00145364 0.00711072 0.24121717
v -0.00142078 0.00694550 0.24130252
v 0.00001402 0.03260204 0.20381006
v 0.00001402 0.02834294 0.21222799
v 0.00001402 0.03252020 0.20489975
v 0.00001402 0.03227784 0.20606828
v 0.00001402 0.03188425 0.20727078
v 0.00001402 0.03135458 0.20846103
v 0.00001402 0.03070918 0.20959329
v 0.00001402 0.02997283 0.21062404
v 0.00001402 0.02917386 0.21151367
v 0.00559568 0.02779321 0.21222799
v 0.00642659 0.03197045 0.20381006
v 0.00575779 0.02860814 0.21151367
v 0.00591365 0.02939177 0.21062404
v 0.00605731 0.03011395 0.20959329
v 0.00618322 0.03074696 0.20846103
v 0.00628655 0.03126645 0.20727078
v 0.00636333 0.03165248 0.20606828
v 0.00641062 0.03189019 0.20489975
v 0.01096284 0.02616509 0.21222799
v 0.01259273 0.03009998 0.20381006
v 0.01128082 0.02693274 0.21151367
v 0.01158658 0.02767090 0.21062404
v 0.01186836 0.02835119 0.20959329
v 0.01211534 0.02894748 0.20846103
v 0.01231805 0.02943683 0.20727078
v 0.01246867 0.02980045 0.20606828
v 0.01256141 0.03002437 0.20489975
v 0.01590925 0.02352118 0.21222799
v 0.01827547 0.02706249 0.20381006
v 0.01637088 0.02421205 0.21151367
v 0.01681476 0.02487638 0.21062404
v 0.01722385 0.02548863 0.20959329
v 0.01758243 0.02602526 0.20846103
v 0.01787669 0.02646566 0.20727078
v 0.01809536 0.02679291 0.20606828
v 0.01823000 0.02699444 0.20489975
v 0.02024481 0.01996308 0.21222799
v 0.02325645 0.02297471 0.20381006
v 0.02083235 0.02055061 0.21151367
v 0.02139731 0.02111558 0.21062404
v 0.02191798 0.02163626 0.20959329
v 0.02237436 0.02209262 0.20846103
v 0.02274890 0.02246715 0.20727078
v 0.02302719 0.02274546 0.20606828
v 0.02319857 0.02291684 0.20489975
v 0.02380292 0.01562751 0.21222799
v 0.02734422 0.01799374 0.20381006
v 0.02449379 0.01608914 0.21151367
v 0.02515811 0.01653303 0.21062404
v 0.02577036 0.01694212 0.20959329
v 0.02630699 0.01730068 0.20846103
v 0.02674740 0.01759496 0.20727078
v 0.02707466 0.01781362 0.20606828
v 0.02727617 0.01794827 0.20489975
v 0.02644683 0.01068111 0.21222799
v 0.03038171 0.01231099 0.20381006
v 0.02721448 0.01099908 0.21151367
v 0.02795264 0.01130483 0.21062404
v 0.02863294 0.01158662 0.20959329
v 0.02922921 0.01183361 0.20846103
v 0.02971857 0.01203630 0.20727078
v 0.03008219 0.01218692 0.20606828
v 0.03030611 0.01227968 0.20489975
v 0.02807493 0.00531395 0.21222799
v 0.03225219 0.00614485 0.20381006
v 0.02888987 0.00547605 0.21151367
v 0.02967350 0.00563192 0.21062404
v 0.03039570 0.00577557 0.20959329
v 0.03102870 0.00590149 0.20846103
v 0.03154820 0.00600482 0.20727078
v 0.03193421 0.00608160 0.20606828
v 0.03217192 0.00612889 0.20489975
v 0.02862469 -0.00026773 0.21222799
v 0.03288378 -0.00026773 0.20381006
v 0.02945560 -0.00026773 0.21151367
v 0.03025456 -0.00026773 0.21062404
v 0.03099090 -0.00026773 0.20959329
v 0.03163631 -0.00026773 0.20846103
v 0.03216598 -0.00026773 0.20727078
v 0.03255956 -0.00026773 0.20606828
v 0.03280193 -0.00026773 0.20489975
v 0.02807493 -0.00584939 0.21222799
v 0.03225219 -0.00668029 0.20381006
v 0.02888987 -0.00601148 0.21151367
v 0.02967350 -0.00616736 0.21062404
v 0.03039570 -0.00631101 0.20959329
v 0.03102870 -0.00643693 0.20846103
v 0.03154820 -0.00654026 0.20727078
v 0.03193421 -0.00661704 0.20606828
v 0.03217192 -0.00666433 0.20489975
v 0.02644683 -0.01121655 0.21222799
v 0.03038171 -0.01284643 0.20381006
v 0.02721448 -0.01153452 0.21151367
v 0.02795264 -0.01184027 0.21062404
v 0.02863294 -0.01212207 0.20959329
v 0.02922921 -0.01236905 0.20846103
v 0.02971857 -0.01257174 0.20727078
v 0.03008219 -0.01272236 0.20606828
v 0.03030611 -0.01281512 0.20489975
v 0.02380292 -0.01616295 0.21222799
v 0.02734422 -0.01852918 0.20381006
v 0.02449379 -0.01662458 0.21151367
v 0.02515811 -0.01706847 0.21062404
v 0.02577036 -0.01747756 0.20959329
v 0.02630701 -0.01783612 0.20846103
v 0.02674740 -0.01813040 0.20727078
v 0.02707466 -0.01834906 0.20606828
v 0.02727618 -0.01848371 0.20489975
v 0.02024481 -0.02049852 0.21222799
v 0.02325645 -0.02351014 0.20381006
v 0.02083235 -0.02108606 0.21151367
v 0.02139731 -0.02165102 0.21062404
v 0.02191798 -0.02217170 0.20959329
v 0.02237436 -0.02262806 0.20846103
v 0.02274890 -0.02300259 0.20727078
v 0.02302719 -0.02328090 0.20606828
v 0.02319857 -0.02345228 0.20489975
v 0.01590925 -0.02405663 0.21222799
v 0.01827547 -0.02759793 0.20381006
v 0.01637088 -0.02474750 0.21151367
v 0.01681476 -0.02541182 0.21062404
v 0.01722385 -0.02602407 0.20959329
v 0.01758243 -0.02656070 0.20846103
v 0.01787669 -0.02700112 0.20727078
v 0.01809536 -0.02732837 0.20606828
v 0.01823000 -0.02752988 0.20489975
v 0.01096284 -0.02670053 0.21222799
v 0.01259273 -0.03063542 0.20381006
v 0.01128082 -0.02746820 0.21151367
v 0.01158658 -0.02820634 0.21062404
v 0.01186836 -0.02888663 0.20959329
v 0.01211534 -0.02948292 0.20846103
v 0.01231805 -0.02997227 0.20727078
v 0.01246867 -0.03033589 0.20606828
v 0.01256141 -0.03055981 0.20489975
v 0.00559568 -0.02832864 0.21222799
v 0.00642658 -0.03250590 0.20381006
v 0.00575779 -0.02914358 0.21151367
v 0.00591365 -0.02992721 0.21062404
v 0.00605731 -0.03064941 0.20959329
v 0.00618322 -0.03128242 0.20846103
v 0.00628655 -0.03180191 0.20727078
v 0.00636333 -0.03218792 0.20606828
v 0.00641062 -0.03242563 0.20489975
v 0.00001402 -0.02887840 0.21222799
v 0.00001402 -0.03313747 0.20381006
v 0.00001402 -0.02970930 0.21151367
v 0.00001402 -0.03050827 0.21062404
v 0.00001402 -0.03124461 0.20959329
v 0.00001402 -0.03189002 0.20846103
v 0.00001402 -0.03241969 0.20727078
v 0.00001402 -0.03281327 0.20606828
v 0.00001402 -0.03305564 0.20489975
v -0.00556765 -0.02832864 0.21222799
v -0.00639856 -0.03250590 0.20381006
v -0.00572976 -0.02914358 0.21151367
v -0.00588563 -0.02992721 0.21062404
v -0.00602928 -0.03064941 0.20959329
v -0.00615519 -0.03128242 0.20846103
v -0.00625852 -0.03180191 0.20727078
v -0.00633530 -0.03218792 0.20606828
v -0.00638259 -0.03242563 0.20489975
v -0.01093482 -0.02670053 0.21222799
v -0.01256470 -0.03063542 0.20381006
v -0.01125279 -0.02746820 0.21151367
v -0.01155854 -0.02820634 0.21062404
v -0.01184033 -0.02888663 0.20959329
v -0.01208731 -0.02948292 0.20846103
v -0.01229001 -0.02997227 0.20727078
v -0.01244063 -0.03033589 0.20606828
v -0.01253337 -0.03055981 0.20489975
v -0.01588122 -0.02405662 0.21222799
v -0.01824745 -0.02759793 0.20381006
v -0.01634285 -0.02474749 0.21151367
v -0.01678674 -0.02541182 0.21062404
v -0.01719583 -0.02602407 0.20959329
v -0.01755440 -0.02656070 0.20846103
v -0.01784866 -0.02700110 0.20727078
v -0.01806733 -0.02732835 0.20606828
v -0.01820199 -0.02752988 0.20489975
v -0.02021678 -0.02049852 0.21222799
v -0.02322842 -0.02351014 0.20381006
v -0.02080432 -0.02108606 0.21151367
v -0.02136928 -0.02165102 0.21062404
v -0.02188995 -0.02217170 0.20959329
v -0.02234633 -0.02262807 0.20846103
v -0.02272087 -0.02300261 0.20727078
v -0.02299917 -0.02328090 0.20606828
v -0.02317055 -0.02345229 0.20489975
v -0.02377489 -0.01616297 0.21222799
v -0.02731618 -0.01852918 0.20381006
v -0.02446576 -0.01662459 0.21151367
v -0.02513008 -0.01706847 0.21062404
v -0.02574233 -0.01747756 0.20959329
v -0.02627896 -0.01783614 0.20846103
v -0.02671937 -0.01813040 0.20727078
v -0.02704663 -0.01834907 0.20606828
v -0.02724814 -0.01848371 0.20489975
v -0.02641880 -0.01121655 0.21222799
v -0.03035368 -0.01284644 0.20381006
v -0.02718645 -0.01153453 0.21151367
v -0.02792461 -0.01184029 0.21062404
v -0.02860491 -0.01212207 0.20959329
v -0.02920118 -0.01236905 0.20846103
v -0.02969054 -0.01257176 0.20727078
v -0.03005416 -0.01272238 0.20606828
v -0.03027808 -0.01281512 0.20489975
v -0.02804690 -0.00584939 0.21222799
v -0.03222416 -0.00668029 0.20381006
v -0.02886185 -0.00601148 0.21151367
v -0.02964547 -0.00616736 0.21062404
v -0.03036767 -0.00631102 0.20959329
v -0.03100067 -0.00643693 0.20846103
v -0.03152017 -0.00654026 0.20727078
v -0.03190618 -0.00661704 0.20606828
v -0.03214389 -0.00666433 0.20489975
v -0.02859666 -0.00026773 0.21222799
v -0.03285575 -0.00026773 0.20381006
v -0.02942757 -0.00026773 0.21151367
v -0.03022655 -0.00026773 0.21062404
v -0.03096289 -0.00026773 0.20959329
v -0.03160829 -0.00026773 0.20846103
v -0.03213797 -0.00026773 0.20727078
v -0.03253153 -0.00026773 0.20606828
v -0.03277390 -0.00026773 0.20489975
v -0.02804690 0.00531395 0.21222799
v -0.03222416 0.00614485 0.20381006
v -0.02886185 0.00547605 0.21151367
v -0.02964547 0.00563192 0.21062404
v -0.03036767 0.00577558 0.20959329
v -0.03100067 0.00590149 0.20846103
v -0.03152017 0.00600482 0.20727078
v -0.03190618 0.00608160 0.20606828
v -0.03214389 0.00612889 0.20489975
v -0.02641880 0.01068111 0.21222799
v -0.03035368 0.01231100 0.20381006
v -0.02718645 0.01099909 0.21151367
v -0.02792461 0.01130485 0.21062404
v -0.02860491 0.01158663 0.20959329
v -0.02920118 0.01183361 0.20846103
v -0.02969054 0.01203632 0.20727078
v -0.03005416 0.01218692 0.20606828
v -0.03027808 0.01227968 0.20489975
v -0.02377489 0.01562751 0.21222799
v -0.02731620 0.01799373 0.20381006
v -0.02446576 0.01608914 0.21151367
v -0.02513008 0.01653303 0.21062404
v -0.02574233 0.01694211 0.20959329
v -0.02627897 0.01730068 0.20846103
v -0.02671937 0.01759495 0.20727078
v -0.02704663 0.01781362 0.20606828
v -0.02724815 0.01794826 0.20489975
v -0.02021680 0.01996308 0.21222799
v -0.02322842 0.02297471 0.20381006
v -0.02080432 0.02055061 0.21151367
v -0.02136930 0.02111558 0.21062404
v -0.02188997 0.02163626 0.20959329
v -0.02234633 0.02209262 0.20846103
v -0.02272087 0.02246715 0.20727078
v -0.02299917 0.02274546 0.20606828
v -0.02317055 0.02291684 0.20489975
v -0.01588122 0.02352118 0.21222799
v -0.01824745 0.02706249 0.20381006
v -0.01634285 0.02421205 0.21151367
v -0.01678674 0.02487638 0.21062404
v -0.01719583 0.02548863 0.20959329
v -0.01755440 0.02602526 0.20846103
v -0.01784866 0.02646568 0.20727078
v -0.01806733 0.02679291 0.20606828
v -0.01820199 0.02699444 0.20489975
v -0.01093482 0.02616509 0.21222799
v -0.01256470 0.03009998 0.20381006
v -0.01125279 0.02693276 0.21151367
v -0.01155854 0.02767092 0.21062404
v -0.01184033 0.02835119 0.20959329
v -0.01208731 0.02894748 0.20846103
v -0.01229001 0.02943683 0.20727078
v -0.01244063 0.02980045 0.20606828
v -0.01253337 0.03002437 0.20489975
v -0.00556765 0.02779321 0.21222799
v -0.00639855 0.03197046 0.20381006
v -0.00572976 0.02860814 0.21151367
v -0.00588562 0.02939177 0.21062404
v -0.00602928 0.03011397 0.20959329
v -0.00615519 0.03074696 0.20846103
v -0.00625852 0.03126647 0.20727078
v -0.00633530 0.03165248 0.20606828
v -0.00638259 0.03189019 0.20489975
v 0.00561241 0.02787738 0.20629076
v 0.00001400 0.02842878 0.20629076
v 0.01099567 0.02624440 0.20629076
v 0.01595692 0.02359255 0.20629076
v 0.02030550 0.02002377 0.20629076
v 0.02387428 0.01567521 0.20629076
v 0.02652613 0.01071396 0.20629076
v 0.02815911 0.00533069 0.20629076
v 0.02871051 -0.00026773 0.20629076
v 0.02815911 -0.00586613 0.20629076
v 0.02652613 -0.01124940 0.20629076
v 0.02387428 -0.01621065 0.20629076
v 0.02030550 -0.02055921 0.20629076
v 0.01595692 -0.02412799 0.20629076
v 0.01099567 -0.02677984 0.20629076
v 0.00561241 -0.02841284 0.20629076
v 0.00001399 -0.02896422 0.20629076
v -0.00558441 -0.02841284 0.20629076
v -0.01096768 -0.02677984 0.20629076
v -0.01592892 -0.02412799 0.20629076
v -0.02027750 -0.02055921 0.20629076
v -0.02384627 -0.01621065 0.20629076
v -0.02649811 -0.01124940 0.20629076
v -0.02813111 -0.00586613 0.20629076
v -0.02868251 -0.00026773 0.20629076
v -0.02813111 0.00533069 0.20629076
v -0.02649811 0.01071396 0.20629076
v -0.02384627 0.01567520 0.20629076
v -0.02027750 0.02002377 0.20629076
v -0.01592892 0.02359255 0.20629076
v -0.01096768 0.02624440 0.20629076
v -0.00558441 0.02787738 0.20629076
v 0.00561232 0.02787738 0.00264351
v 0.00001392 0.02842878 0.00264351
v 0.01099560 0.02624440 0.00264351
v 0.01595684 0.02359255 0.00264351
v 0.02030542 0.02002377 0.00264351
v 0.02387419 0.01567521 0.00264351
v 0.02652604 0.01071396 0.00264351
v 0.02815903 0.00533069 0.00264351
v 0.02871043 -0.00026773 0.00264351
v 0.02815903 -0.00586613 0.00264351
v 0.02652604 -0.01124940 0.00264351
v 0.02387419 -0.01621065 0.00264351
v 0.02030542 -0.02055921 0.00264351
v 0.01595684 -0.02412799 0.00264351
v 0.01099560 -0.02677984 0.00264351
v 0.00561232 -0.02841284 0.00264351
v 0.00001392 -0.02896422 0.00264351
v -0.00558449 -0.02841284 0.00264351
v -0.01096777 -0.02677984 0.00264351
v -0.01592901 -0.02412799 0.00264351
v -0.02027757 -0.02055921 0.00264351
v -0.02384634 -0.01621065 0.00264351
v -0.02649819 -0.01124940 0.00264351
v -0.02813119 -0.00586613 0.00264351
v -0.02868259 -0.00026773 0.00264351
v -0.02813119 0.00533069 0.00264351
v -0.02649819 0.01071396 0.00264351
v -0.02384636 0.01567520 0.00264351
v -0.02027757 0.02002377 0.00264351
v -0.01592901 0.02359255 0.00264351
v -0.01096777 0.02624440 0.00264351
v -0.00558449 0.02787738 0.00264351
v 0.00001402 0.03178115 0.00000000
v 0.00001402 0.03260204 0.00081694
v 0.00001402 0.03199361 0.00002783
v 0.00001402 0.03219158 0.00010945
v 0.00001402 0.03236160 0.00023928
v 0.00001402 0.03249206 0.00040848
v 0.00001402 0.03257406 0.00060550
v 0.00642659 0.03197045 0.00081694
v 0.00626643 0.03116534 0.00000000
v 0.00642113 0.03194303 0.00060550
v 0.00640512 0.03186258 0.00040848
v 0.00637968 0.03173464 0.00023928
v 0.00634651 0.03156789 0.00010945
v 0.00630788 0.03137371 0.00002783
v 0.01259273 0.03009998 0.00081694
v 0.01227858 0.02934157 0.00000000
v 0.01258202 0.03007414 0.00060550
v 0.01255064 0.02999837 0.00040848
v 0.01250071 0.02987785 0.00023928
v 0.01243565 0.02972077 0.00010945
v 0.01235989 0.02953786 0.00002783
v 0.01827547 0.02706249 0.00081694
v 0.01781941 0.02637994 0.00000000
v 0.01825994 0.02703923 0.00060550
v 0.01821438 0.02697104 0.00040848
v 0.01814189 0.02686257 0.00023928
v 0.01804745 0.02672121 0.00010945
v 0.01793745 0.02655658 0.00002783
v 0.02325645 0.02297471 0.00081694
v 0.02267598 0.02239425 0.00000000
v 0.02323667 0.02295494 0.00060550
v 0.02317867 0.02289695 0.00040848
v 0.02308643 0.02280470 0.00023928
v 0.02296621 0.02268449 0.00010945
v 0.02282622 0.02254449 0.00002783
v 0.02734422 0.01799374 0.00081694
v 0.02666166 0.01753768 0.00000000
v 0.02732096 0.01797819 0.00060550
v 0.02725277 0.01793264 0.00040848
v 0.02714431 0.01786016 0.00023928
v 0.02700295 0.01776571 0.00010945
v 0.02683833 0.01765571 0.00002783
v 0.03038171 0.01231099 0.00081694
v 0.02962330 0.01199686 0.00000000
v 0.03035587 0.01230028 0.00060550
v 0.03028011 0.01226890 0.00040848
v 0.03015958 0.01221899 0.00023928
v 0.03000251 0.01215392 0.00010945
v 0.02981960 0.01207815 0.00002783
v 0.03225219 0.00614485 0.00081694
v 0.03144706 0.00598470 0.00000000
v 0.03222476 0.00613940 0.00060550
v 0.03214433 0.00612340 0.00040848
v 0.03201637 0.00609795 0.00023928
v 0.03184963 0.00606478 0.00010945
v 0.03165545 0.00602615 0.00002783
v 0.03288378 -0.00026773 0.00081694
v 0.03206288 -0.00026773 0.00000000
v 0.03285580 -0.00026773 0.00060550
v 0.03277380 -0.00026773 0.00040848
v 0.03264334 -0.00026773 0.00023928
v 0.03247333 -0.00026773 0.00010945
v 0.03227534 -0.00026773 0.00002783
v 0.03225219 -0.00668029 0.00081694
v 0.03144706 -0.00652014 0.00000000
v 0.03222476 -0.00667484 0.00060550
v 0.03214433 -0.00665883 0.00040848
v 0.03201637 -0.00663339 0.00023928
v 0.03184963 -0.00660022 0.00010945
v 0.03165545 -0.00656159 0.00002783
v 0.03038171 -0.01284643 0.00081694
v 0.02962330 -0.01253230 0.00000000
v 0.03035588 -0.01283573 0.00060550
v 0.03028011 -0.01280435 0.00040848
v 0.03015958 -0.01275443 0.00023928
v 0.03000251 -0.01268936 0.00010945
v 0.02981960 -0.01261360 0.00002783
v 0.02734422 -0.01852918 0.00081694
v 0.02666168 -0.01807311 0.00000000
v 0.02732097 -0.01851363 0.00060550
v 0.02725278 -0.01846808 0.00040848
v 0.02714431 -0.01839560 0.00023928
v 0.02700295 -0.01830114 0.00010945
v 0.02683833 -0.01819115 0.00002783
v 0.02325645 -0.02351014 0.00081694
v 0.02267598 -0.02292969 0.00000000
v 0.02323667 -0.02349038 0.00060550
v 0.02317867 -0.02343239 0.00040848
v 0.02308643 -0.02334014 0.00023928
v 0.02296621 -0.02321993 0.00010945
v 0.02282622 -0.02307993 0.00002783
v 0.01827547 -0.02759793 0.00081694
v 0.01781941 -0.02691538 0.00000000
v 0.01825994 -0.02757467 0.00060550
v 0.01821437 -0.02750648 0.00040848
v 0.01814189 -0.02739802 0.00023928
v 0.01804745 -0.02725666 0.00010945
v 0.01793744 -0.02709204 0.00002783
v 0.01259273 -0.03063542 0.00081694
v 0.01227860 -0.02987700 0.00000000
v 0.01258202 -0.03060958 0.00060550
v 0.01255064 -0.03053381 0.00040848
v 0.01250071 -0.03041329 0.00023928
v 0.01243566 -0.03025621 0.00010945
v 0.01235989 -0.03007330 0.00002783
v 0.00642658 -0.03250590 0.00081694
v 0.00626643 -0.03170078 0.00000000
v 0.00642113 -0.03247847 0.00060550
v 0.00640512 -0.03239802 0.00040848
v 0.00637968 -0.03227008 0.00023928
v 0.00634651 -0.03210333 0.00010945
v 0.00630788 -0.03190916 0.00002783
v 0.00001402 -0.03313747 0.00081694
v 0.00001402 -0.03231659 0.00000000
v 0.00001402 -0.03310950 0.00060550
v 0.00001402 -0.03302750 0.00040848
v 0.00001402 -0.03289704 0.00023928
v 0.00001402 -0.03272702 0.00010945
v 0.00001402 -0.03252905 0.00002783
v -0.00639856 -0.03250590 0.00081694
v -0.00623840 -0.03170078 0.00000000
v -0.00639310 -0.03247847 0.00060550
v -0.00637709 -0.03239802 0.00040848
v -0.00635165 -0.03227008 0.00023928
v -0.00631847 -0.03210333 0.00010945
v -0.00627985 -0.03190916 0.00002783
v -0.01256470 -0.03063542 0.00081694
v -0.01225055 -0.02987700 0.00000000
v -0.01255399 -0.03060958 0.00060550
v -0.01252261 -0.03053381 0.00040848
v -0.01247268 -0.03041329 0.00023928
v -0.01240763 -0.03025621 0.00010945
v -0.01233186 -0.03007330 0.00002783
v -0.01824745 -0.02759793 0.00081694
v -0.01779138 -0.02691538 0.00000000
v -0.01823191 -0.02757467 0.00060550
v -0.01818634 -0.02750648 0.00040848
v -0.01811386 -0.02739801 0.00023928
v -0.01801942 -0.02725664 0.00010945
v -0.01790942 -0.02709202 0.00002783
v -0.02322842 -0.02351014 0.00081694
v -0.02264795 -0.02292969 0.00000000
v -0.02320864 -0.02349036 0.00060550
v -0.02315064 -0.02343239 0.00040848
v -0.02305840 -0.02334014 0.00023928
v -0.02293818 -0.02321993 0.00010945
v -0.02279819 -0.02307993 0.00002783
v -0.02731618 -0.01852918 0.00081694
v -0.02663363 -0.01807312 0.00000000
v -0.02729293 -0.01851365 0.00060550
v -0.02722475 -0.01846808 0.00040848
v -0.02711628 -0.01839560 0.00023928
v -0.02697492 -0.01830116 0.00010945
v -0.02681030 -0.01819117 0.00002783
v -0.03035368 -0.01284644 0.00081694
v -0.02959527 -0.01253230 0.00000000
v -0.03032785 -0.01283573 0.00060550
v -0.03025208 -0.01280435 0.00040848
v -0.03013155 -0.01275443 0.00023928
v -0.02997448 -0.01268936 0.00010945
v -0.02979157 -0.01261360 0.00002783
v -0.03222416 -0.00668029 0.00081694
v -0.03141903 -0.00652014 0.00000000
v -0.03219672 -0.00667484 0.00060550
v -0.03211630 -0.00665883 0.00040848
v -0.03198834 -0.00663339 0.00023928
v -0.03182160 -0.00660022 0.00010945
v -0.03162742 -0.00656159 0.00002783
v -0.03285575 -0.00026773 0.00081694
v -0.03203484 -0.00026773 0.00000000
v -0.03282777 -0.00026773 0.00060550
v -0.03274577 -0.00026773 0.00040848
v -0.03261531 -0.00026773 0.00023928
v -0.03244530 -0.00026773 0.00010945
v -0.03224731 -0.00026773 0.00002783
v -0.03222416 0.00614485 0.00081694
v -0.03141903 0.00598472 0.00000000
v -0.03219672 0.00613940 0.00060550
v -0.03211630 0.00612340 0.00040848
v -0.03198834 0.00609795 0.00023928
v -0.03182160 0.00606478 0.00010945
v -0.03162742 0.00602615 0.00002783
v -0.03035368 0.01231100 0.00081694
v -0.02959527 0.01199684 0.00000000
v -0.03032785 0.01230030 0.00060550
v -0.03025208 0.01226891 0.00040848
v -0.03013155 0.01221899 0.00023928
v -0.02997448 0.01215392 0.00010945
v -0.02979157 0.01207815 0.00002783
v -0.02731620 0.01799373 0.00081694
v -0.02663365 0.01753767 0.00000000
v -0.02729294 0.01797819 0.00060550
v -0.02722475 0.01793263 0.00040848
v -0.02711628 0.01786015 0.00023928
v -0.02697492 0.01776571 0.00010945
v -0.02681030 0.01765571 0.00002783
v -0.02322842 0.02297471 0.00081694
v -0.02264796 0.02239424 0.00000000
v -0.02320864 0.02295492 0.00060550
v -0.02315066 0.02289693 0.00040848
v -0.02305840 0.02280469 0.00023928
v -0.02293818 0.02268447 0.00010945
v -0.02279820 0.02254447 0.00002783
v -0.01824745 0.02706249 0.00081694
v -0.01779138 0.02637994 0.00000000
v -0.01823191 0.02703923 0.00060550
v -0.01818634 0.02697104 0.00040848
v -0.01811386 0.02686257 0.00023928
v -0.01801942 0.02672121 0.00010945
v -0.01790942 0.02655658 0.00002783
v -0.01256470 0.03009998 0.00081694
v -0.01225055 0.02934156 0.00000000
v -0.01255399 0.03007414 0.00060550
v -0.01252261 0.02999837 0.00040848
v -0.01247268 0.02987784 0.00023928
v -0.01240763 0.02972077 0.00010945
v -0.01233186 0.02953786 0.00002783
v -0.00639855 0.03197046 0.00081694
v -0.00623840 0.03116534 0.00000000
v -0.00639310 0.03194303 0.00060550
v -0.00637709 0.03186258 0.00040848
v -0.00635165 0.03173464 0.00023928
v -0.00631847 0.03156789 0.00010945
v -0.00627985 0.03137372 0.00002783
f 1 2 3
f 1 3 4
f 5 6 7
f 5 7 8
f 9 10 11
f 9 11 12
f 2 13 14
f 2 14 3
f 10 15 16
f 10 16 11
f 17 18 19
f 17 19 20
f 15 21 22
f 15 22 16
f 13 5 8
f 13 8 14
f 21 23 24
f 21 24 22
f 6 25 26
f 6 26 7
f 23 27 28
f 23 28 24
f 25 29 30
f 25 30 26
f 27 31 32
f 27 32 28
f 29 33 34
f 29 34 30
f 35 36 37
f 35 37 38
f 33 39 40
f 33 40 34
f 41 42 43
f 41 43 44
f 39 45 46
f 39 46 40
f 47 48 49
f 47 49 50
f 45 51 52
f 45 52 46
f 48 53 54
f 48 54 49
f 51 55 56
f 51 56 52
f 53 57 58
f 53 58 54
f 59 47 50
f 59 50 60
f 55 61 62
f 55 62 56
f 57 63 64
f 57 64 58
f 61 65 66
f 61 66 62
f 63 1 4
f 63 4 64
f 65 9 12
f 65 12 66
f 67 68 69
f 67 69 70
f 71 72 73
f 71 73 74
f 75 17 20
f 75 20 76
f 77 71 74
f 77 74 78
f 79 75 76
f 79 76 80
f 81 77 78
f 81 78 82
f 83 79 80
f 83 80 84
f 85 41 44
f 85 44 86
f 87 81 82
f 87 82 88
f 89 83 84
f 89 84 90
f 91 59 60
f 91 60 92
f 93 87 88
f 93 88 94
f 95 89 90
f 95 90 96
f 97 85 86
f 97 86 98
f 99 93 94
f 99 94 100
f 101 95 96
f 101 96 102
f 103 97 98
f 103 98 104
f 105 99 100
f 105 100 106
f 107 101 102
f 107 102 108
f 109 103 104
f 109 104 110
f 42 105 106
f 42 106 43
f 111 107 108
f 111 108 112
f 113 109 110
f 113 110 114
f 115 111 112
f 115 112 116
f 117 113 114
f 117 114 118
f 119 115 116
f 119 116 120
f 121 117 118
f 121 118 122
f 123 119 120
f 123 120 124
f 125 121 122
f 125 122 126
f 127 123 124
f 127 124 128
f 18 125 126
f 18 126 19
f 72 127 128
f 72 128 73
f 129 130 131
f 129 131 132
f 133 134 135
f 133 135 136
f 137 138 139
f 137 139 140
f 141 67 70
f 141 70 142
f 143 91 92
f 143 92 144
f 145 137 140
f 145 140 146
f 147 141 142
f 147 142 148
f 149 133 136
f 149 136 150
f 151 145 146
f 151 146 152
f 153 147 148
f 153 148 154
f 155 149 150
f 155 150 156
f 157 151 152
f 157 152 158
f 159 153 154
f 159 154 160
f 161 155 156
f 161 156 162
f 163 157 158
f 163 158 164
f 165 159 160
f 165 160 166
f 167 161 162
f 167 162 168
f 169 165 166
f 169 166 170
f 171 167 168
f 171 168 172
f 173 169 170
f 173 170 174
f 175 171 172
f 175 172 176
f 177 173 174
f 177 174 178
f 179 175 176
f 179 176 180
f 181 177 178
f 181 178 182
f 183 179 180
f 183 180 184
f 185 181 182
f 185 182 186
f 187 183 184
f 187 184 188
f 189 185 186
f 189 186 190
f 191 187 188
f 191 188 192
f 193 189 190
f 193 190 194
f 68 191 192
f 68 192 69
f 138 193 194
f 138 194 139
f 195 196 197
f 195 197 198
f 199 200 201
f 199 201 202
f 203 195 198
f 203 198 204
f 205 199 202
f 205 202 206
f 207 203 204
f 207 204 208
f 209 210 211
f 209 211 212
f 213 207 208
f 213 208 214
f 215 209 212
f 215 212 216
f 217 213 214
f 217 214 218
f 219 215 216
f 219 216 220
f 221 217 218
f 221 218 222
f 223 219 220
f 223 220 224
f 225 221 222
f 225 222 226
f 227 223 224
f 227 224 228
f 229 225 226
f 229 226 230
f 231 227 228
f 231 228 232
f 233 229 230
f 233 230 234
f 235 231 232
f 235 232 236
f 237 233 234
f 237 234 238
f 239 235 236
f 239 236 240
f 241 237 238
f 241 238 242
f 243 244 245
f 243 245 246
f 247 239 240
f 247 240 248
f 249 241 242
f 249 242 250
f 251 143 144
f 251 144 252
f 253 247 248
f 253 248 254
f 196 243 246
f 196 246 197
f 200 253 254
f 200 254 201
f 44 43 255
f 44 255 256
f 256 255 257
f 256 257 258
f 258 257 259
f 258 259 260
f 260 259 261
f 260 261 262
f 262 261 163
f 262 163 134
f 86 44 256
f 86 256 263
f 263 256 258
f 263 258 264
f 264 258 260
f 264 260 265
f 265 260 262
f 265 262 266
f 266 262 134
f 266 134 133
f 98 86 263
f 98 263 267
f 267 263 264
f 267 264 268
f 268 264 265
f 268 265 269
f 269 265 266
f 269 266 270
f 270 266 133
f 270 133 149
f 104 98 267
f 104 267 271
f 271 267 268
f 271 268 272
f 272 268 269
f 272 269 273
f 273 269 270
f 273 270 274
f 274 270 149
f 274 149 155
f 110 104 271
f 110 271 275
f 275 271 272
f 275 272 276
f 276 272 273
f 276 273 277
f 277 273 274
f 277 274 278
f 278 274 155
f 278 155 161
f 114 110 275
f 114 275 279
f 279 275 276
f 279 276 280
f 280 276 277
f 280 277 281
f 281 277 278
f 281 278 282
f 282 278 161
f 282 161 167
f 118 114 279
f 118 279 283
f 283 279 280
f 283 280 284
f 284 280 281
f 284 281 285
f 285 281 282
f 285 282 286
f 286 282 167
f 286 167 171
f 122 118 283
f 122 283 287
f 287 283 284
f 287 284 288
f 288 284 285
f 288 285 289
f 289 285 286
f 289 286 290
f 290 286 171
f 290 171 175
f 126 122 287
f 126 287 291
f 291 287 288
f 291 288 292
f 292 288 289
f 292 289 293
f 293 289 290
f 293 290 294
f 294 290 175
f 294 175 179
f 19 126 291
f 19 291 295
f 295 291 292
f 295 292 296
f 296 292 293
f 296 293 297
f 297 293 294
f 297 294 298
f 298 294 179
f 298 179 183
f 20 19 295
f 20 295 299
f 299 295 296
f 299 296 300
f 300 296 297
f 300 297 301
f 301 297 298
f 301 298 302
f 302 298 183
f 302 183 187
f 76 20 299
f 76 299 303
f 303 299 300
f 303 300 304
f 304 300 301
f 304 301 305
f 305 301 302
f 305 302 306
f 306 302 187
f 306 187 191
f 80 76 303
f 80 303 307
f 307 303 304
f 307 304 308
f 308 304 305
f 308 305 309
f 309 305 306
f 309 306 310
f 310 306 191
f 310 191 68
f 84 80 307
f 84 307 311
f 311 307 308
f 311 308 312
f 312 308 309
f 312 309 313
f 313 309 310
f 313 310 314
f 314 310 68
f 314 68 67
f 90 84 311
f 90 311 315
f 315 311 312
f 315 312 316
f 316 312 313
f 316 313 317
f 317 313 314
f 317 314 318
f 318 314 67
f 318 67 141
f 96 90 315
f 96 315 319
f 319 315 316
f 319 316 320
f 320 316 317
f 320 317 321
f 321 317 318
f 321 318 322
f 322 318 141
f 322 141 147
f 102 96 319
f 102 319 323
f 323 319 320
f 323 320 324
f 324 320 321
f 324 321 325
f 325 321 322
f 325 322 326
f 326 322 147
f 326 147 153
f 108 102 323
f 108 323 327
f 327 323 324
f 327 324 328
f 328 324 325
f 328 325 329
f 329 325 326
f 329 326 330
f 330 326 153
f 330 153 159
f 112 108 327
f 112 327 331
f 331 327 328
f 331 328 332
f 332 328 329
f 332 329 333
f 333 329 330
f 333 330 334
f 334 330 159
f 334 159 165
f 116 112 331
f 116 331 335
f 335 331 332
f 335 332 336
f 336 332 333
f 336 333 337
f 337 333 334
f 337 334 338
f 338 334 165
f 338 165 169
f 120 116 335
f 120 335 339
f 339 335 336
f 339 336 340
f 340 336 337
f 340 337 341
f 341 337 338
f 341 338 342
f 342 338 169
f 342 169 173
f 124 120 339
f 124 339 343
f 343 339 340
f 343 340 344
f 344 340 341
f 344 341 345
f 345 341 342
f 345 342 346
f 346 342 173
f 346 173 177
f 128 124 343
f 128 343 347
f 347 343 344
f 347 344 348
f 348 344 345
f 348 345 349
f 349 345 346
f 349 346 350
f 350 346 177
f 350 177 181
f 73 128 347
f 73 347 351
f 351 347 348
f 351 348 352
f 352 348 349
f 352 349 353
f 353 349 350
f 353 350 354
f 354 350 181
f 354 181 185
f 74 73 351
f 74 351 355
f 355 351 352
f 355 352 356
f 356 352 353
f 356 353 357
f 357 353 354
f 357 354 358
f 358 354 185
f 358 185 189
f 78 74 355
f 78 355 359
f 359 355 356
f 359 356 360
f 360 356 357
f 360 357 361
f 361 357 358
f 361 358 362
f 362 358 189
f 362 189 193
f 82 78 359
f 82 359 363
f 363 359 360
f 363 360 364
f 364 360 361
f 364 361 365
f 365 361 362
f 365 362 366
f 366 362 193
f 366 193 138
f 88 82 363
f 88 363 367
f 367 363 364
f 367 364 368
f 368 364 365
f 368 365 369
f 369 365 366
f 369 366 370
f 370 366 138
f 370 138 137
f 94 88 367
f 94 367 371
f 371 367 368
f 371 368 372
f 372 368 369
f 372 369 373
f 373 369 370
f 373 370 374
f 374 370 137
f 374 137 145
f 100 94 371
f 100 371 375
f 375 371 372
f 375 372 376
f 376 372 373
f 376 373 377
f 377 373 374
f 377 374 378
f 378 374 145
f 378 145 151
f 106 100 375
f 106 375 379
f 379 375 376
f 379 376 380
f 380 376 377
f 380 377 381
f 381 377 378
f 381 378 382
f 382 378 151
f 382 151 157
f 43 106 379
f 43 379 255
f 255 379 380
f 255 380 257
f 257 380 381
f 257 381 259
f 259 381 382
f 259 382 261
f 261 382 157
f 261 157 163
f 383 251 252
f 383 252 384
f 135 164 385
f 135 385 386
f 386 385 387
f 386 387 388
f 388 387 389
f 388 389 390
f 390 389 391
f 390 391 392
f 392 391 205
f 392 205 244
f 136 135 386
f 136 386 393
f 393 386 388
f 393 388 394
f 394 388 390
f 394 390 395
f 395 390 392
f 395 392 396
f 396 392 244
f 396 244 243
f 150 136 393
f 150 393 397
f 397 393 394
f 397 394 398
f 398 394 395
f 398 395 399
f 399 395 396
f 399 396 400
f 400 396 243
f 400 243 196
f 156 150 397
f 156 397 401
f 401 397 398
f 401 398 402
f 402 398 399
f 402 399 403
f 403 399 400
f 403 400 404
f 404 400 196
f 404 196 195
f 162 156 401
f 162 401 405
f 405 401 402
f 405 402 406
f 406 402 403
f 406 403 407
f 407 403 404
f 407 404 408
f 408 404 195
f 408 195 203
f 168 162 405
f 168 405 409
f 409 405 406
f 409 406 410
f 410 406 407
f 410 407 411
f 411 407 408
f 411 408 412
f 412 408 203
f 412 203 207
f 172 168 409
f 172 409 413
f 413 409 410
f 413 410 414
f 414 410 411
f 414 411 415
f 415 411 412
f 415 412 416
f 416 412 207
f 416 207 213
f 176 172 413
f 176 413 417
f 417 413 414
f 417 414 418
f 418 414 415
f 418 415 419
f 419 415 416
f 419 416 420
f 420 416 213
f 420 213 217
f 180 176 417
f 180 417 421
f 421 417 418
f 421 418 422
f 422 418 419
f 422 419 423
f 423 419 420
f 423 420 424
f 424 420 217
f 424 217 221
f 184 180 421
f 184 421 425
f 425 421 422
f 425 422 426
f 426 422 423
f 426 423 427
f 427 423 424
f 427 424 428
f 428 424 221
f 428 221 225
f 188 184 425
f 188 425 429
f 429 425 426
f 429 426 430
f 430 426 427
f 430 427 431
f 431 427 428
f 431 428 432
f 432 428 225
f 432 225 229
f 192 188 429
f 192 429 433
f 433 429 430
f 433 430 434
f 434 430 431
f 434 431 435
f 435 431 432
f 435 432 436
f 436 432 229
f 436 229 233
f 69 192 433
f 69 433 437
f 437 433 434
f 437 434 438
f 438 434 435
f 438 435 439
f 439 435 436
f 439 436 440
f 440 436 233
f 440 233 237
f 70 69 437
f 70 437 441
f 441 437 438
f 441 438 442
f 442 438 439
f 442 439 443
f 443 439 440
f 443 440 444
f 444 440 237
f 444 237 241
f 142 70 441
f 142 441 445
f 445 441 442
f 445 442 446
f 446 442 443
f 446 443 447
f 447 443 444
f 447 444 448
f 448 444 241
f 448 241 249
f 148 142 445
f 148 445 449
f 449 445 446
f 449 446 450
f 450 446 447
f 450 447 451
f 451 447 448
f 451 448 452
f 452 448 249
f 452 249 130
f 154 148 449
f 154 449 453
f 453 449 450
f 453 450 454
f 454 450 451
f 454 451 455
f 455 451 452
f 455 452 456
f 456 452 130
f 456 130 129
f 160 154 453
f 160 453 457
f 457 453 454
f 457 454 458
f 458 454 455
f 458 455 459
f 459 455 456
f 459 456 460
f 460 456 129
f 460 129 461
f 166 160 457
f 166 457 462
f 462 457 458
f 462 458 463
f 463 458 459
f 463 459 464
f 464 459 460
f 464 460 465
f 465 460 461
f 465 461 210
f 170 166 462
f 170 462 466
f 466 462 463
f 466 463 467
f 467 463 464
f 467 464 468
f 468 464 465
f 468 465 469
f 469 465 210
f 469 210 209
f 174 170 466
f 174 466 470
f 470 466 467
f 470 467 471
f 471 467 468
f 471 468 472
f 472 468 469
f 472 469 473
f 473 469 209
f 473 209 215
f 178 174 470
f 178 470 474
f 474 470 471
f 474 471 475
f 475 471 472
f 475 472 476
f 476 472 473
f 476 473 477
f 477 473 215
f 477 215 219
f 182 178 474
f 182 474 478
f 478 474 475
f 478 475 479
f 479 475 476
f 479 476 480
f 480 476 477
f 480 477 481
f 481 477 219
f 481 219 223
f 186 182 478
f 186 478 482
f 482 478 479
f 482 479 483
f 483 479 480
f 483 480 484
f 484 480 481
f 484 481 485
f 485 481 223
f 485 223 227
f 190 186 482
f 190 482 486
f 486 482 483
f 486 483 487
f 487 483 484
f 487 484 488
f 488 484 485
f 488 485 489
f 489 485 227
f 489 227 231
f 194 190 486
f 194 486 490
f 490 486 487
f 490 487 491
f 491 487 488
f 491 488 492
f 492 488 489
f 492 489 493
f 493 489 231
f 493 231 235
f 139 194 490
f 139 490 494
f 494 490 491
f 494 491 495
f 495 491 492
f 495 492 496
f 496 492 493
f 496 493 497
f 497 493 235
f 497 235 239
f 140 139 494
f 140 494 498
f 498 494 495
f 498 495 499
f 499 495 496
f 499 496 500
f 500 496 497
f 500 497 501
f 501 497 239
f 501 239 247
f 146 140 498
f 146 498 502
f 502 498 499
f 502 499 503
f 503 499 500
f 503 500 504
f 504 500 501
f 504 501 505
f 505 501 247
f 505 247 253
f 152 146 502
f 152 502 506
f 506 502 503
f 506 503 507
f 507 503 504
f 507 504 508
f 508 504 505
f 508 505 509
f 509 505 253
f 509 253 200
f 158 152 506
f 158 506 510
f 510 506 507
f 510 507 511
f 511 507 508
f 511 508 512
f 512 508 509
f 512 509 513
f 513 509 200
f 513 200 199
f 164 158 510
f 164 510 385
f 385 510 511
f 385 511 387
f 387 511 512
f 387 512 389
f 389 512 513
f 389 513 391
f 391 513 199
f 391 199 205
f 134 163 164
f 134 164 135
f 245 206 514
f 245 514 515
f 515 514 516
f 515 516 517
f 517 516 518
f 517 518 519
f 519 518 520
f 519 520 521
f 521 520 36
f 521 36 35
f 246 245 515
f 246 515 522
f 522 515 517
f 522 517 523
f 523 517 519
f 523 519 524
f 524 519 521
f 524 521 525
f 525 521 35
f 525 35 526
f 197 246 522
f 197 522 527
f 527 522 523
f 527 523 528
f 528 523 524
f 528 524 529
f 529 524 525
f 529 525 530
f 530 525 526
f 530 526 531
f 198 197 527
f 198 527 532
f 532 527 528
f 532 528 533
f 533 528 529
f 533 529 534
f 534 529 530
f 534 530 535
f 535 530 531
f 535 531 536
f 204 198 532
f 204 532 537
f 537 532 533
f 537 533 538
f 538 533 534
f 538 534 539
f 539 534 535
f 539 535 540
f 540 535 536
f 540 536 541
f 208 204 537
f 208 537 542
f 542 537 538
f 542 538 543
f 543 538 539
f 543 539 544
f 544 539 540
f 544 540 545
f 545 540 541
f 545 541 546
f 214 208 542
f 214 542 547
f 547 542 543
f 547 543 548
f 548 543 544
f 548 544 549
f 549 544 545
f 549 545 550
f 550 545 546
f 550 546 551
f 218 214 547
f 218 547 552
f 552 547 548
f 552 548 553
f 553 548 549
f 553 549 554
f 554 549 550
f 554 550 555
f 555 550 551
f 555 551 556
f 222 218 552
f 222 552 557
f 557 552 553
f 557 553 558
f 558 553 554
f 558 554 559
f 559 554 555
f 559 555 560
f 560 555 556
f 560 556 561
f 226 222 557
f 226 557 562
f 562 557 558
f 562 558 563
f 563 558 559
f 563 559 564
f 564 559 560
f 564 560 565
f 565 560 561
f 565 561 566
f 230 226 562
f 230 562 567
f 567 562 563
f 567 563 568
f 568 563 564
f 568 564 569
f 569 564 565
f 569 565 570
f 570 565 566
f 570 566 571
f 234 230 567
f 234 567 572
f 572 567 568
f 572 568 573
f 573 568 569
f 573 569 574
f 574 569 570
f 574 570 575
f 575 570 571
f 575 571 576
f 238 234 572
f 238 572 577
f 577 572 573
f 577 573 578
f 578 573 574
f 578 574 579
f 579 574 575
f 579 575 580
f 580 575 576
f 580 576 581
f 242 238 577
f 242 577 582
f 582 577 578
f 582 578 583
f 583 578 579
f 583 579 584
f 584 579 580
f 584 580 585
f 585 580 581
f 585 581 586
f 250 242 582
f 250 582 587
f 587 582 583
f 587 583 588
f 588 583 584
f 588 584 589
f 589 584 585
f 589 585 590
f 590 585 586
f 590 586 591
f 131 250 587
f 131 587 592
f 592 587 588
f 592 588 593
f 593 588 589
f 593 589 594
f 594 589 590
f 594 590 595
f 595 590 591
f 595 591 596
f 132 131 592
f 132 592 597
f 597 592 593
f 597 593 598
f 598 593 594
f 598 594 599
f 599 594 595
f 599 595 600
f 600 595 596
f 600 596 601
f 602 132 597
f 602 597 603
f 603 597 598
f 603 598 604
f 604 598 599
f 604 599 605
f 605 599 600
f 605 600 606
f 606 600 601
f 606 601 607
f 211 602 603
f 211 603 608
f 608 603 604
f 608 604 609
f 609 604 605
f 609 605 610
f 610 605 606
f 610 606 611
f 611 606 607
f 611 607 612
f 212 211 608
f 212 608 613
f 613 608 609
f 613 609 614
f 614 609 610
f 614 610 615
f 615 610 611
f 615 611 616
f 616 611 612
f 616 612 617
f 216 212 613
f 216 613 618
f 618 613 614
f 618 614 619
f 619 614 615
f 619 615 620
f 620 615 616
f 620 616 621
f 621 616 617
f 621 617 622
f 220 216 618
f 220 618 623
f 623 618 619
f 623 619 624
f 624 619 620
f 624 620 625
f 625 620 621
f 625 621 626
f 626 621 622
f 626 622 627
f 224 220 623
f 224 623 628
f 628 623 624
f 628 624 629
f 629 624 625
f 629 625 630
f 630 625 626
f 630 626 631
f 631 626 627
f 631 627 632
f 228 224 628
f 228 628 633
f 633 628 629
f 633 629 634
f 634 629 630
f 634 630 635
f 635 630 631
f 635 631 636
f 636 631 632
f 636 632 637
f 232 228 633
f 232 633 638
f 638 633 634
f 638 634 639
f 639 634 635
f 639 635 640
f 640 635 636
f 640 636 641
f 641 636 637
f 641 637 642
f 236 232 638
f 236 638 643
f 643 638 639
f 643 639 644
f 644 639 640
f 644 640 645
f 645 640 641
f 645 641 646
f 646 641 642
f 646 642 647
f 240 236 643
f 240 643 648
f 648 643 644
f 648 644 649
f 649 644 645
f 649 645 650
f 650 645 646
f 650 646 651
f 651 646 647
f 651 647 652
f 248 240 648
f 248 648 653
f 653 648 649
f 653 649 654
f 654 649 650
f 654 650 655
f 655 650 651
f 655 651 656
f 656 651 652
f 656 652 657
f 254 248 653
f 254 653 658
f 658 653 654
f 658 654 659
f 659 654 655
f 659 655 660
f 660 655 656
f 660 656 661
f 661 656 657
f 661 657 662
f 201 254 658
f 201 658 663
f 663 658 659
f 663 659 664
f 664 659 660
f 664 660 665
f 665 660 661
f 665 661 666
f 666 661 662
f 666 662 667
f 202 201 663
f 202 663 668
f 668 663 664
f 668 664 669
f 669 664 665
f 669 665 670
f 670 665 666
f 670 666 671
f 671 666 667
f 671 667 672
f 206 202 668
f 206 668 514
f 514 668 669
f 514 669 516
f 516 669 670
f 516 670 518
f 518 670 671
f 518 671 520
f 520 671 672
f 520 672 36
f 244 205 206
f 244 206 245
f 526 35 38
f 526 38 673
f 31 674 675
f 31 675 32
f 531 526 673
f 531 673 676
f 536 531 676
f 536 676 677
f 541 536 677
f 541 677 678
f 546 541 678
f 546 678 679
f 551 546 679
f 551 679 680
f 556 551 680
f 556 680 681
f 561 556 681
f 561 681 682
f 566 561 682
f 566 682 683
f 571 566 683
f 571 683 684
f 576 571 684
f 576 684 685
f 581 576 685
f 581 685 686
f 586 581 686
f 586 686 687
f 591 586 687
f 591 687 688
f 596 591 688
f 596 688 689
f 601 596 689
f 601 689 690
f 607 601 690
f 607 690 691
f 612 607 691
f 612 691 692
f 617 612 692
f 617 692 693
f 622 617 693
f 622 693 694
f 627 622 694
f 627 694 695
f 632 627 695
f 632 695 696
f 637 632 696
f 637 696 697
f 642 637 697
f 642 697 698
f 647 642 698
f 647 698 699
f 652 647 699
f 652 699 700
f 657 652 700
f 657 700 701
f 662 657 701
f 662 701 702
f 667 662 702
f 667 702 703
f 672 667 703
f 672 703 704
f 36 672 704
f 36 704 37
f 15 10 705
f 15 705 706
f 707 708 709
f 707 709 710
f 5 13 711
f 5 711 712
f 383 674 713
f 383 713 714
f 21 15 706
f 21 706 715
f 6 5 712
f 6 712 716
f 251 383 714
f 251 714 708
f 23 21 715
f 23 715 717
f 25 6 716
f 25 716 718
f 143 251 708
f 143 708 707
f 27 23 717
f 27 717 719
f 29 25 718
f 29 718 720
f 91 143 707
f 91 707 721
f 31 27 719
f 31 719 722
f 33 29 720
f 33 720 723
f 59 91 721
f 59 721 724
f 674 31 722
f 674 722 713
f 39 33 723
f 39 723 725
f 47 59 724
f 47 724 726
f 45 39 725
f 45 725 727
f 48 47 726
f 48 726 728
f 51 45 727
f 51 727 729
f 53 48 728
f 53 728 730
f 55 51 729
f 55 729 731
f 57 53 730
f 57 730 732
f 61 55 731
f 61 731 733
f 63 57 732
f 63 732 734
f 65 61 733
f 65 733 735
f 1 63 734
f 1 734 736
f 9 65 735
f 9 735 737
f 2 1 736
f 2 736 738
f 10 9 737
f 10 737 705
f 13 2 738
f 13 738 711
f 719 717 739
f 719 739 740
f 720 718 741
f 720 741 742
f 721 707 710
f 721 710 743
f 722 719 740
f 722 740 744
f 723 720 742
f 723 742 745
f 724 721 743
f 724 743 746
f 713 722 744
f 713 744 747
f 725 723 745
f 725 745 748
f 726 724 746
f 726 746 749
f 727 725 748
f 727 748 750
f 728 726 749
f 728 749 751
f 729 727 750
f 729 750 752
f 730 728 751
f 730 751 753
f 731 729 752
f 731 752 754
f 732 730 753
f 732 753 755
f 733 731 754
f 733 754 756
f 734 732 755
f 734 755 757
f 735 733 756
f 735 756 758
f 736 734 757
f 736 757 759
f 737 735 758
f 737 758 760
f 738 736 759
f 738 759 761
f 705 737 760
f 705 760 762
f 711 738 761
f 711 761 763
f 706 705 762
f 706 762 764
f 712 711 763
f 712 763 765
f 714 713 747
f 714 747 766
f 715 706 764
f 715 764 767
f 716 712 765
f 716 765 768
f 708 714 766
f 708 766 709
f 717 715 767
f 717 767 739
f 718 716 768
f 718 768 741
f 38 37 769
f 38 769 770
f 770 769 771
f 770 771 772
f 772 771 675
f 772 675 384
f 673 38 770
f 673 770 773
f 773 770 772
f 773 772 774
f 774 772 384
f 774 384 252
f 676 673 773
f 676 773 775
f 775 773 774
f 775 774 776
f 776 774 252
f 776 252 144
f 677 676 775
f 677 775 777
f 777 775 776
f 777 776 778
f 778 776 144
f 778 144 92
f 678 677 777
f 678 777 779
f 779 777 778
f 779 778 780
f 780 778 92
f 780 92 60
f 679 678 779
f 679 779 781
f 781 779 780
f 781 780 782
f 782 780 60
f 782 60 50
f 680 679 781
f 680 781 783
f 783 781 782
f 783 782 784
f 784 782 50
f 784 50 49
f 681 680 783
f 681 783 785
f 785 783 784
f 785 784 786
f 786 784 49
f 786 49 54
f 682 681 785
f 682 785 787
f 787 785 786
f 787 786 788
f 788 786 54
f 788 54 58
f 683 682 787
f 683 787 789
f 789 787 788
f 789 788 790
f 790 788 58
f 790 58 64
f 684 683 789
f 684 789 791
f 791 789 790
f 791 790 792
f 792 790 64
f 792 64 4
f 685 684 791
f 685 791 793
f 793 791 792
f 793 792 794
f 794 792 4
f 794 4 3
f 686 685 793
f 686 793 795
f 795 793 794
f 795 794 796
f 796 794 3
f 796 3 14
f 687 686 795
f 687 795 797
f 797 795 796
f 797 796 798
f 798 796 14
f 798 14 8
f 688 687 797
f 688 797 799
f 799 797 798
f 799 798 800
f 800 798 8
f 800 8 7
f 689 688 799
f 689 799 801
f 801 799 800
f 801 800 802
f 802 800 7
f 802 7 26
f 690 689 801
f 690 801 803
f 803 801 802
f 803 802 804
f 804 802 26
f 804 26 30
f 691 690 803
f 691 803 805
f 805 803 804
f 805 804 806
f 806 804 30
f 806 30 34
f 692 691 805
f 692 805 807
f 807 805 806
f 807 806 808
f 808 806 34
f 808 34 40
f 693 692 807
f 693 807 809
f 809 807 808
f 809 808 810
f 810 808 40
f 810 40 46
f 694 693 809
f 694 809 811
f 811 809 810
f 811 810 812
f 812 810 46
f 812 46 52
f 695 694 811
f 695 811 813
f 813 811 812
f 813 812 814
f 814 812 52
f 814 52 56
f 696 695 813
f 696 813 815
f 815 813 814
f 815 814 816
f 816 814 56
f 816 56 62
f 697 696 815
f 697 815 817
f 817 815 816
f 817 816 818
f 818 816 62
f 818 62 66
f 698 697 817
f 698 817 819
f 819 817 818
f 819 818 820
f 820 818 66
f 820 66 12
f 699 698 819
f 699 819 821
f 821 819 820
f 821 820 822
f 822 820 12
f 822 12 11
f 700 699 821
f 700 821 823
f 823 821 822
f 823 822 824
f 824 822 11
f 824 11 16
f 701 700 823
f 701 823 825
f 825 823 824
f 825 824 826
f 826 824 16
f 826 16 22
f 702 701 825
f 702 825 827
f 827 825 826
f 827 826 828
f 828 826 22
f 828 22 24
f 703 702 827
f 703 827 829
f 829 827 828
f 829 828 830
f 830 828 24
f 830 24 28
f 704 703 829
f 704 829 831
f 831 829 830
f 831 830 832
f 832 830 28
f 832 28 32
f 37 704 831
f 37 831 769
f 769 831 832
f 769 832 771
f 771 832 32
f 771 32 675
f 674 383 384
f 674 384 675
f 210 461 602
f 210 602 211
f 602 461 129
f 602 129 132
f 130 249 250
f 130 250 131
f 1192 843 852
f 1192 852 1199
f 851 842 41
f 851 41 85
f 860 851 85
f 860 85 97
f 869 860 97
f 869 97 103
f 878 869 103
f 878 103 109
f 887 878 109
f 887 109 113
f 896 887 113
f 896 113 117
f 905 896 117
f 905 117 121
f 914 905 121
f 914 121 125
f 923 914 125
f 923 125 18
f 932 923 18
f 932 18 17
f 941 932 17
f 941 17 75
f 950 941 75
f 950 75 79
f 959 950 79
f 959 79 83
f 968 959 83
f 968 83 89
f 977 968 89
f 977 89 95
f 986 977 95
f 986 95 101
f 995 986 101
f 995 101 107
f 1004 995 107
f 1004 107 111
f 1013 1004 111
f 1013 111 115
f 1022 1013 115
f 1022 115 119
f 1031 1022 119
f 1031 119 123
f 1040 1031 123
f 1040 123 127
f 1049 1040 127
f 1049 127 72
f 1058 1049 72
f 1058 72 71
f 1067 1058 71
f 1067 71 77
f 1076 1067 77
f 1076 77 81
f 1085 1076 81
f 1085 81 87
f 1094 1085 87
f 1094 87 93
f 1103 1094 93
f 1103 93 99
f 1248 915 924
f 1248 924 1255
f 1112 1103 99
f 1112 99 105
f 834 1112 105
f 834 105 42
f 1402 1113 833
f 1402 833 1186
f 1311 996 1005
f 1311 1005 1318
f 1374 1077 1086
f 1374 1086 1381
f 1220 879 888
f 1220 888 1227
f 1283 960 969
f 1283 969 1290
f 1346 1041 1050
f 1346 1050 1353
f 1255 924 933
f 1255 933 1262
f 1318 1005 1014
f 1318 1014 1325
f 1381 1086 1095
f 1381 1095 1388
f 1227 888 897
f 1227 897 1234
f 1290 969 978
f 1290 978 1297
f 1353 1050 1059
f 1353 1059 1360
f 1199 852 861
f 1199 861 1206
f 1262 933 942
f 1262 942 1269
f 1325 1014 1023
f 1325 1023 1332
f 1388 1095 1104
f 1388 1104 1395
f 1234 897 906
f 1234 906 1241
f 1297 978 987
f 1297 987 1304
f 1360 1059 1068
f 1360 1068 1367
f 1206 861 870
f 1206 870 1213
f 1269 942 951
f 1269 951 1276
f 1332 1023 1032
f 1332 1032 1339
f 1395 1104 1113
f 1395 1113 1402
f 1241 906 915
f 1241 915 1248
f 1304 987 996
f 1304 996 1311
f 1367 1068 1077
f 1367 1077 1374
f 1213 870 879
f 1213 879 1220
f 1276 951 960
f 1276 960 1283
f 1339 1032 1041
f 1339 1041 1346
f 843 833 835
f 843 835 850
f 850 835 836
f 850 836 849
f 849 836 837
f 849 837 848
f 848 837 838
f 848 838 847
f 847 838 839
f 847 839 846
f 846 839 840
f 846 840 845
f 845 840 841
f 845 841 844
f 844 841 834
f 844 834 842
f 852 843 850
f 852 850 859
f 859 850 849
f 859 849 858
f 858 849 848
f 858 848 857
f 857 848 847
f 857 847 856
f 856 847 846
f 856 846 855
f 855 846 845
f 855 845 854
f 854 845 844
f 854 844 853
f 853 844 842
f 853 842 851
f 861 852 859
f 861 859 868
f 868 859 858
f 868 858 867
f 867 858 857
f 867 857 866
f 866 857 856
f 866 856 865
f 865 856 855
f 865 855 864
f 864 855 854
f 864 854 863
f 863 854 853
f 863 853 862
f 862 853 851
f 862 851 860
f 870 861 868
f 870 868 877
f 877 868 867
f 877 867 876
f 876 867 866
f 876 866 875
f 875 866 865
f 875 865 874
f 874 865 864
f 874 864 873
f 873 864 863
f 873 863 872
f 872 863 862
f 872 862 871
f 871 862 860
f 871 860 869
f 879 870 877
f 879 877 886
f 886 877 876
f 886 876 885
f 885 876 875
f 885 875 884
f 884 875 874
f 884 874 883
f 883 874 873
f 883 873 882
f 882 873 872
f 882 872 881
f 881 872 871
f 881 871 880
f 880 871 869
f 880 869 878
f 888 879 886
f 888 886 895
f 895 886 885
f 895 885 894
f 894 885 884
f 894 884 893
f 893 884 883
f 893 883 892
f 892 883 882
f 892 882 891
f 891 882 881
f 891 881 890
f 890 881 880
f 890 880 889
f 889 880 878
f 889 878 887
f 897 888 895
f 897 895 904
f 904 895 894
f 904 894 903
f 903 894 893
f 903 893 902
f 902 893 892
f 902 892 901
f 901 892 891
f 901 891 900
f 900 891 890
f 900 890 899
f 899 890 889
f 899 889 898
f 898 889 887
f 898 887 896
f 906 897 904
f 906 904 913
f 913 904 903
f 913 903 912
f 912 903 902
f 912 902 911
f 911 902 901
f 911 901 910
f 910 901 900
f 910 900 909
f 909 900 899
f 909 899 908
f 908 899 898
f 908 898 907
f 907 898 896
f 907 896 905
f 915 906 913
f 915 913 922
f 922 913 912
f 922 912 921
f 921 912 911
f 921 911 920
f 920 911 910
f 920 910 919
f 919 910 909
f 919 909 918
f 918 909 908
f 918 908 917
f 917 908 907
f 917 907 916
f 916 907 905
f 916 905 914
f 924 915 922
f 924 922 931
f 931 922 921
f 931 921 930
f 930 921 920
f 930 920 929
f 929 920 919
f 929 919 928
f 928 919 918
f 928 918 927
f 927 918 917
f 927 917 926
f 926 917 916
f 926 916 925
f 925 916 914
f 925 914 923
f 933 924 931
f 933 931 940
f 940 931 930
f 940 930 939
f 939 930 929
f 939 929 938
f 938 929 928
f 938 928 937
f 937 928 927
f 937 927 936
f 936 927 926
f 936 926 935
f 935 926 925
f 935 925 934
f 934 925 923
f 934 923 932
f 942 933 940
f 942 940 949
f 949 940 939
f 949 939 948
f 948 939 938
f 948 938 947
f 947 938 937
f 947 937 946
f 946 937 936
f 946 936 945
f 945 936 935
f 945 935 944
f 944 935 934
f 944 934 943
f 943 934 932
f 943 932 941
f 951 942 949
f 951 949 958
f 958 949 948
f 958 948 957
f 957 948 947
f 957 947 956
f 956 947 946
f 956 946 955
f 955 946 945
f 955 945 954
f 954 945 944
f 954 944 953
f 953 944 943
f 953 943 952
f 952 943 941
f 952 941 950
f 960 951 958
f 960 958 967
f 967 958 957
f 967 957 966
f 966 957 956
f 966 956 965
f 965 956 955
f 965 955 964
f 964 955 954
f 964 954 963
f 963 954 953
f 963 953 962
f 962 953 952
f 962 952 961
f 961 952 950
f 961 950 959
f 969 960 967
f 969 967 976
f 976 967 966
f 976 966 975
f 975 966 965
f 975 965 974
f 974 965 964
f 974 964 973
f 973 964 963
f 973 963 972
f 972 963 962
f 972 962 971
f 971 962 961
f 971 961 970
f 970 961 959
f 970 959 968
f 978 969 976
f 978 976 985
f 985 976 975
f 985 975 984
f 984 975 974
f 984 974 983
f 983 974 973
f 983 973 982
f 982 973 972
f 982 972 981
f 981 972 971
f 981 971 980
f 980 971 970
f 980 970 979
f 979 970 968
f 979 968 977
f 987 978 985
f 987 985 994
f 994 985 984
f 994 984 993
f 993 984 983
f 993 983 992
f 992 983 982
f 992 982 991
f 991 982 981
f 991 981 990
f 990 981 980
f 990 980 989
f 989 980 979
f 989 979 988
f 988 979 977
f 988 977 986
f 996 987 994
f 996 994 1003
f 1003 994 993
f 1003 993 1002
f 1002 993 992
f 1002 992 1001
f 1001 992 991
f 1001 991 1000
f 1000 991 990
f 1000 990 999
f 999 990 989
f 999 989 998
f 998 989 988
f 998 988 997
f 997 988 986
f 997 986 995
f 1005 996 1003
f 1005 1003 1012
f 1012 1003 1002
f 1012 1002 1011
f 1011 1002 1001
f 1011 1001 1010
f 1010 1001 1000
f 1010 1000 1009
f 1009 1000 999
f 1009 999 1008
f 1008 999 998
f 1008 998 1007
f 1007 998 997
f 1007 997 1006
f 1006 997 995
f 1006 995 1004
f 1014 1005 1012
f 1014 1012 1021
f 1021 1012 1011
f 1021 1011 1020
f 1020 1011 1010
f 1020 1010 1019
f 1019 1010 1009
f 1019 1009 1018
f 1018 1009 1008
f 1018 1008 1017
f 1017 1008 1007
f 1017 1007 1016
f 1016 1007 1006
f 1016 1006 1015
f 1015 1006 1004
f 1015 1004 1013
f 1023 1014 1021
f 1023 1021 1030
f 1030 1021 1020
f 1030 1020 1029
f 1029 1020 1019
f 1029 1019 1028
f 1028 1019 1018
f 1028 1018 1027
f 1027 1018 1017
f 1027 1017 1026
f 1026 1017 1016
f 1026 1016 1025
f 1025 1016 1015
f 1025 1015 1024
f 1024 1015 1013
f 1024 1013 1022
f 1032 1023 1030
f 1032 1030 1039
f 1039 1030 1029
f 1039 1029 1038
f 1038 1029 1028
f 1038 1028 1037
f 1037 1028 1027
f 1037 1027 1036
f 1036 1027 1026
f 1036 1026 1035
f 1035 1026 1025
f 1035 1025 1034
f 1034 1025 1024
f 1034 1024 1033
f 1033 1024 1022
f 1033 1022 1031
f 1041 1032 1039
f 1041 1039 1048
f 1048 1039 1038
f 1048 1038 1047
f 1047 1038 1037
f 1047 1037 1046
f 1046 1037 1036
f 1046 1036 1045
f 1045 1036 1035
f 1045 1035 1044
f 1044 1035 1034
f 1044 1034 1043
f 1043 1034 1033
f 1043 1033 1042
f 1042 1033 1031
f 1042 1031 1040
f 1050 1041 1048
f 1050 1048 1057
f 1057 1048 1047
f 1057 1047 1056
f 1056 1047 1046
f 1056 1046 1055
f 1055 1046 1045
f 1055 1045 1054
f 1054 1045 1044
f 1054 1044 1053
f 1053 1044 1043
f 1053 1043 1052
f 1052 1043 1042
f 1052 1042 1051
f 1051 1042 1040
f 1051 1040 1049
f 1059 1050 1057
f 1059 1057 1066
f 1066 1057 1056
f 1066 1056 1065
f 1065 1056 1055
f 1065 1055 1064
f 1064 1055 1054
f 1064 1054 1063
f 1063 1054 1053
f 1063 1053 1062
f 1062 1053 1052
f 1062 1052 1061
f 1061 1052 1051
f 1061 1051 1060
f 1060 1051 1049
f 1060 1049 1058
f 1068 1059 1066
f 1068 1066 1075
f 1075 1066 1065
f 1075 1065 1074
f 1074 1065 1064
f 1074 1064 1073
f 1073 1064 1063
f 1073 1063 1072
f 1072 1063 1062
f 1072 1062 1071
f 1071 1062 1061
f 1071 1061 1070
f 1070 1061 1060
f 1070 1060 1069
f 1069 1060 1058
f 1069 1058 1067
f 1077 1068 1075
f 1077 1075 1084
f 1084 1075 1074
f 1084 1074 1083
f 1083 1074 1073
f 1083 1073 1082
f 1082 1073 1072
f 1082 1072 1081
f 1081 1072 1071
f 1081 1071 1080
f 1080 1071 1070
f 1080 1070 1079
f 1079 1070 1069
f 1079 1069 1078
f 1078 1069 1067
f 1078 1067 1076
f 1086 1077 1084
f 1086 1084 1093
f 1093 1084 1083
f 1093 1083 1092
f 1092 1083 1082
f 1092 1082 1091
f 1091 1082 1081
f 1091 1081 1090
f 1090 1081 1080
f 1090 1080 1089
f 1089 1080 1079
f 1089 1079 1088
f 1088 1079 1078
f 1088 1078 1087
f 1087 1078 1076
f 1087 1076 1085
f 1095 1086 1093
f 1095 1093 1102
f 1102 1093 1092
f 1102 1092 1101
f 1101 1092 1091
f 1101 1091 1100
f 1100 1091 1090
f 1100 1090 1099
f 1099 1090 1089
f 1099 1089 1098
f 1098 1089 1088
f 1098 1088 1097
f 1097 1088 1087
f 1097 1087 1096
f 1096 1087 1085
f 1096 1085 1094
f 1104 1095 1102
f 1104 1102 1111
f 1111 1102 1101
f 1111 1101 1110
f 1110 1101 1100
f 1110 1100 1109
f 1109 1100 1099
f 1109 1099 1108
f 1108 1099 1098
f 1108 1098 1107
f 1107 1098 1097
f 1107 1097 1106
f 1106 1097 1096
f 1106 1096 1105
f 1105 1096 1094
f 1105 1094 1103
f 1113 1104 1111
f 1113 1111 1120
f 1120 1111 1110
f 1120 1110 1119
f 1119 1110 1109
f 1119 1109 1118
f 1118 1109 1108
f 1118 1108 1117
f 1117 1108 1107
f 1117 1107 1116
f 1116 1107 1106
f 1116 1106 1115
f 1115 1106 1105
f 1115 1105 1114
f 1114 1105 1103
f 1114 1103 1112
f 833 1113 1120
f 833 1120 835
f 835 1120 1119
f 835 1119 836
f 836 1119 1118
f 836 1118 837
f 837 1118 1117
f 837 1117 838
f 838 1117 1116
f 838 1116 839
f 839 1116 1115
f 839 1115 840
f 840 1115 1114
f 840 1114 841
f 841 1114 1112
f 841 1112 834
f 842 834 42
f 842 42 41
f 754 752 1142
f 754 1142 1143
f 1146 1145 1177
f 1146 1177 1178
f 755 753 1129
f 755 1129 1130
f 756 754 1143
f 756 1143 1144
f 757 755 1130
f 757 1130 1131
f 758 756 1144
f 758 1144 1145
f 759 757 1131
f 759 1131 1132
f 760 758 1145
f 760 1145 1146
f 761 759 1132
f 761 1132 1133
f 762 760 1146
f 762 1146 1147
f 763 761 1133
f 763 1133 1134
f 764 762 1147
f 764 1147 1148
f 765 763 1134
f 765 1134 1135
f 766 747 1122
f 766 1122 1121
f 767 764 1148
f 767 1148 1149
f 768 765 1135
f 768 1135 1136
f 709 766 1121
f 709 1121 1123
f 739 767 1149
f 739 1149 1150
f 741 768 1136
f 741 1136 1137
f 710 709 1123
f 710 1123 1124
f 740 739 1150
f 740 1150 1151
f 742 741 1137
f 742 1137 1138
f 743 710 1124
f 743 1124 1125
f 744 740 1151
f 744 1151 1152
f 745 742 1138
f 745 1138 1139
f 746 743 1125
f 746 1125 1126
f 747 744 1152
f 747 1152 1122
f 748 745 1139
f 748 1139 1140
f 749 746 1126
f 749 1126 1127
f 750 748 1140
f 750 1140 1141
f 751 749 1127
f 751 1127 1128
f 752 750 1141
f 752 1141 1142
f 753 751 1128
f 753 1128 1129
f 1133 1132 1164
f 1133 1164 1165
f 1147 1146 1178
f 1147 1178 1179
f 1134 1133 1165
f 1134 1165 1166
f 1148 1147 1179
f 1148 1179 1180
f 1135 1134 1166
f 1135 1166 1167
f 1121 1122 1154
f 1121 1154 1153
f 1149 1148 1180
f 1149 1180 1181
f 1136 1135 1167
f 1136 1167 1168
f 1123 1121 1153
f 1123 1153 1155
f 1150 1149 1181
f 1150 1181 1182
f 1137 1136 1168
f 1137 1168 1169
f 1124 1123 1155
f 1124 1155 1156
f 1151 1150 1182
f 1151 1182 1183
f 1138 1137 1169
f 1138 1169 1170
f 1125 1124 1156
f 1125 1156 1157
f 1152 1151 1183
f 1152 1183 1184
f 1139 1138 1170
f 1139 1170 1171
f 1126 1125 1157
f 1126 1157 1158
f 1122 1152 1184
f 1122 1184 1154
f 1140 1139 1171
f 1140 1171 1172
f 1127 1126 1158
f 1127 1158 1159
f 1141 1140 1172
f 1141 1172 1173
f 1128 1127 1159
f 1128 1159 1160
f 1142 1141 1173
f 1142 1173 1174
f 1129 1128 1160
f 1129 1160 1161
f 1143 1142 1174
f 1143 1174 1175
f 1130 1129 1161
f 1130 1161 1162
f 1144 1143 1175
f 1144 1175 1176
f 1131 1130 1162
f 1131 1162 1163
f 1145 1144 1176
f 1145 1176 1177
f 1132 1131 1163
f 1132 1163 1164
f 1186 1192 1194
f 1186 1194 1191
f 1191 1194 1195
f 1191 1195 1190
f 1190 1195 1196
f 1190 1196 1189
f 1189 1196 1197
f 1189 1197 1188
f 1188 1197 1198
f 1188 1198 1187
f 1187 1198 1193
f 1187 1193 1185
f 1192 1199 1201
f 1192 1201 1194
f 1194 1201 1202
f 1194 1202 1195
f 1195 1202 1203
f 1195 1203 1196
f 1196 1203 1204
f 1196 1204 1197
f 1197 1204 1205
f 1197 1205 1198
f 1198 1205 1200
f 1198 1200 1193
f 1199 1206 1208
f 1199 1208 1201
f 1201 1208 1209
f 1201 1209 1202
f 1202 1209 1210
f 1202 1210 1203
f 1203 1210 1211
f 1203 1211 1204
f 1204 1211 1212
f 1204 1212 1205
f 1205 1212 1207
f 1205 1207 1200
f 1206 1213 1215
f 1206 1215 1208
f 1208 1215 1216
f 1208 1216 1209
f 1209 1216 1217
f 1209 1217 1210
f 1210 1217 1218
f 1210 1218 1211
f 1211 1218 1219
f 1211 1219 1212
f 1212 1219 1214
f 1212 1214 1207
f 1213 1220 1222
f 1213 1222 1215
f 1215 1222 1223
f 1215 1223 1216
f 1216 1223 1224
f 1216 1224 1217
f 1217 1224 1225
f 1217 1225 1218
f 1218 1225 1226
f 1218 1226 1219
f 1219 1226 1221
f 1219 1221 1214
f 1220 1227 1229
f 1220 1229 1222
f 1222 1229 1230
f 1222 1230 1223
f 1223 1230 1231
f 1223 1231 1224
f 1224 1231 1232
f 1224 1232 1225
f 1225 1232 1233
f 1225 1233 1226
f 1226 1233 1228
f 1226 1228 1221
f 1227 1234 1236
f 1227 1236 1229
f 1229 1236 1237
f 1229 1237 1230
f 1230 1237 1238
f 1230 1238 1231
f 1231 1238 1239
f 1231 1239 1232
f 1232 1239 1240
f 1232 1240 1233
f 1233 1240 1235
f 1233 1235 1228
f 1234 1241 1243
f 1234 1243 1236
f 1236 1243 1244
f 1236 1244 1237
f 1237 1244 1245
f 1237 1245 1238
f 1238 1245 1246
f 1238 1246 1239
f 1239 1246 1247
f 1239 1247 1240
f 1240 1247 1242
f 1240 1242 1235
f 1241 1248 1250
f 1241 1250 1243
f 1243 1250 1251
f 1243 1251 1244
f 1244 1251 1252
f 1244 1252 1245
f 1245 1252 1253
f 1245 1253 1246
f 1246 1253 1254
f 1246 1254 1247
f 1247 1254 1249
f 1247 1249 1242
f 1248 1255 1257
f 1248 1257 1250
f 1250 1257 1258
f 1250 1258 1251
f 1251 1258 1259
f 1251 1259 1252
f 1252 1259 1260
f 1252 1260 1253
f 1253 1260 1261
f 1253 1261 1254
f 1254 1261 1256
f 1254 1256 1249
f 1255 1262 1264
f 1255 1264 1257
f 1257 1264 1265
f 1257 1265 1258
f 1258 1265 1266
f 1258 1266 1259
f 1259 1266 1267
f 1259 1267 1260
f 1260 1267 1268
f 1260 1268 1261
f 1261 1268 1263
f 1261 1263 1256
f 1262 1269 1271
f 1262 1271 1264
f 1264 1271 1272
f 1264 1272 1265
f 1265 1272 1273
f 1265 1273 1266
f 1266 1273 1274
f 1266 1274 1267
f 1267 1274 1275
f 1267 1275 1268
f 1268 1275 1270
f 1268 1270 1263
f 1269 1276 1278
f 1269 1278 1271
f 1271 1278 1279
f 1271 1279 1272
f 1272 1279 1280
f 1272 1280 1273
f 1273 1280 1281
f 1273 1281 1274
f 1274 1281 1282
f 1274 1282 1275
f 1275 1282 1277
f 1275 1277 1270
f 1276 1283 1285
f 1276 1285 1278
f 1278 1285 1286
f 1278 1286 1279
f 1279 1286 1287
f 1279 1287 1280
f 1280 1287 1288
f 1280 1288 1281
f 1281 1288 1289
f 1281 1289 1282
f 1282 1289 1284
f 1282 1284 1277
f 1283 1290 1292
f 1283 1292 1285
f 1285 1292 1293
f 1285 1293 1286
f 1286 1293 1294
f 1286 1294 1287
f 1287 1294 1295
f 1287 1295 1288
f 1288 1295 1296
f 1288 1296 1289
f 1289 1296 1291
f 1289 1291 1284
f 1290 1297 1299
f 1290 1299 1292
f 1292 1299 1300
f 1292 1300 1293
f 1293 1300 1301
f 1293 1301 1294
f 1294 1301 1302
f 1294 1302 1295
f 1295 1302 1303
f 1295 1303 1296
f 1296 1303 1298
f 1296 1298 1291
f 1297 1304 1306
f 1297 1306 1299
f 1299 1306 1307
f 1299 1307 1300
f 1300 1307 1308
f 1300 1308 1301
f 1301 1308 1309
f 1301 1309 1302
f 1302 1309 1310
f 1302 1310 1303
f 1303 1310 1305
f 1303 1305 1298
f 1304 1311 1313
f 1304 1313 1306
f 1306 1313 1314
f 1306 1314 1307
f 1307 1314 1315
f 1307 1315 1308
f 1308 1315 1316
f 1308 1316 1309
f 1309 1316 1317
f 1309 1317 1310
f 1310 1317 1312
f 1310 1312 1305
f 1311 1318 1320
f 1311 1320 1313
f 1313 1320 1321
f 1313 1321 1314
f 1314 1321 1322
f 1314 1322 1315
f 1315 1322 1323
f 1315 1323 1316
f 1316 1323 1324
f 1316 1324 1317
f 1317 1324 1319
f 1317 1319 1312
f 1318 1325 1327
f 1318 1327 1320
f 1320 1327 1328
f 1320 1328 1321
f 1321 1328 1329
f 1321 1329 1322
f 1322 1329 1330
f 1322 1330 1323
f 1323 1330 1331
f 1323 1331 1324
f 1324 1331 1326
f 1324 1326 1319
f 1325 1332 1334
f 1325 1334 1327
f 1327 1334 1335
f 1327 1335 1328
f 1328 1335 1336
f 1328 1336 1329
f 1329 1336 1337
f 1329 1337 1330
f 1330 1337 1338
f 1330 1338 1331
f 1331 1338 1333
f 1331 1333 1326
f 1332 1339 1341
f 1332 1341 1334
f 1334 1341 1342
f 1334 1342 1335
f 1335 1342 1343
f 1335 1343 1336
f 1336 1343 1344
f 1336 1344 1337
f 1337 1344 1345
f 1337 1345 1338
f 1338 1345 1340
f 1338 1340 1333
f 1339 1346 1348
f 1339 1348 1341
f 1341 1348 1349
f 1341 1349 1342
f 1342 1349 1350
f 1342 1350 1343
f 1343 1350 1351
f 1343 1351 1344
f 1344 1351 1352
f 1344 1352 1345
f 1345 1352 1347
f 1345 1347 1340
f 1346 1353 1355
f 1346 1355 1348
f 1348 1355 1356
f 1348 1356 1349
f 1349 1356 1357
f 1349 1357 1350
f 1350 1357 1358
f 1350 1358 1351
f 1351 1358 1359
f 1351 1359 1352
f 1352 1359 1354
f 1352 1354 1347
f 1353 1360 1362
f 1353 1362 1355
f 1355 1362 1363
f 1355 1363 1356
f 1356 1363 1364
f 1356 1364 1357
f 1357 1364 1365
f 1357 1365 1358
f 1358 1365 1366
f 1358 1366 1359
f 1359 1366 1361
f 1359 1361 1354
f 1360 1367 1369
f 1360 1369 1362
f 1362 1369 1370
f 1362 1370 1363
f 1363 1370 1371
f 1363 1371 1364
f 1364 1371 1372
f 1364 1372 1365
f 1365 1372 1373
f 1365 1373 1366
f 1366 1373 1368
f 1366 1368 1361
f 1367 1374 1376
f 1367 1376 1369
f 1369 1376 1377
f 1369 1377 1370
f 1370 1377 1378
f 1370 1378 1371
f 1371 1378 1379
f 1371 1379 1372
f 1372 1379 1380
f 1372 1380 1373
f 1373 1380 1375
f 1373 1375 1368
f 1374 1381 1383
f 1374 1383 1376
f 1376 1383 1384
f 1376 1384 1377
f 1377 1384 1385
f 1377 1385 1378
f 1378 1385 1386
f 1378 1386 1379
f 1379 1386 1387
f 1379 1387 1380
f 1380 1387 1382
f 1380 1382 1375
f 1381 1388 1390
f 1381 1390 1383
f 1383 1390 1391
f 1383 1391 1384
f 1384 1391 1392
f 1384 1392 1385
f 1385 1392 1393
f 1385 1393 1386
f 1386 1393 1394
f 1386 1394 1387
f 1387 1394 1389
f 1387 1389 1382
f 1388 1395 1397
f 1388 1397 1390
f 1390 1397 1398
f 1390 1398 1391
f 1391 1398 1399
f 1391 1399 1392
f 1392 1399 1400
f 1392 1400 1393
f 1393 1400 1401
f 1393 1401 1394
f 1394 1401 1396
f 1394 1396 1389
f 1395 1402 1404
f 1395 1404 1397
f 1397 1404 1405
f 1397 1405 1398
f 1398 1405 1406
f 1398 1406 1399
f 1399 1406 1407
f 1399 1407 1400
f 1400 1407 1408
f 1400 1408 1401
f 1401 1408 1403
f 1401 1403 1396
f 1402 1186 1191
f 1402 1191 1404
f 1404 1191 1190
f 1404 1190 1405
f 1405 1190 1189
f 1405 1189 1406
f 1406 1189 1188
f 1406 1188 1407
f 1407 1188 1187
f 1407 1187 1408
f 1408 1187 1185
f 1408 1185 1403
f 1186 833 843
f 1186 843 1192
f 1193 1403 1185
f 1403 1193 1396
f 1396 1193 1200
f 1396 1200 1207
f 1396 1207 1389
f 1389 1207 1382
f 1382 1207 1214
f 1382 1214 1221
f 1382 1221 1375
f 1375 1221 1228
f 1375 1228 1368
f 1368 1228 1235
f 1368 1235 1361
f 1361 1235 1354
f 1354 1235 1242
f 1354 1242 1347
f 1347 1242 1249
f 1347 1249 1256
f 1347 1256 1340
f 1340 1256 1263
f 1340 1263 1333
f 1333 1263 1270
f 1333 1270 1326
f 1326 1270 1277
f 1326 1277 1319
f 1319 1277 1312
f 1312 1277 1284
f 1312 1284 1291
f 1312 1291 1305
f 1305 1291 1298
f 1184 1153 1154
f 1153 1184 1183
f 1153 1183 1155
f 1155 1183 1182
f 1155 1182 1156
f 1156 1182 1181
f 1156 1181 1157
f 1157 1181 1158
f 1158 1181 1180
f 1158 1180 1159
f 1159 1180 1179
f 1159 1179 1178
f 1159 1178 1160
f 1160 1178 1177
f 1160 1177 1161
f 1161 1177 1176
f 1161 1176 1162
f 1162 1176 1163
f 1163 1176 1175
f 1163 1175 1164
f 1164 1175 1174
f 1164 1174 1165
f 1165 1174 1173
f 1165 1173 1172
f 1165 1172 1166
f 1166 1172 1171
f 1166 1171 1167
f 1167 1171 1170
f 1167 1170 1168
f 1168 1170 1169
f 249 250 131
f 131 130 249
f 156 155 274
f 274 155 156
f 160 159 330
f 330 159 160
f 162 161 278
f 278 161 162
f 190 189 358
f 358 189 190
f 208 207 412
f 412 207 208
f 224 223 481
f 481 223 224
f 131 250 249
f 249 130 131