# https://github.com/mikedh/trimesh
v 0.04763944 0.00133507 0.02535548
v 0.03949834 0.00332440 0.02258347
v 0.01856380 0.00783641 0.06919092
v 0.02713749 0.00587954 0.07212197
v 0.03110006 0.00208341 0.01984625
v 0.00950972 0.00655486 0.06620979
v -0.01510062 0.01217499 0.12910787
v -0.00564140 0.01349344 0.13220864
v 0.00352685 0.01156586 0.13531061
v -0.02427080 0.01837452 0.19812089
v -0.01410844 0.01645896 0.20149202
v -0.03465750 0.01703474 0.19479526
v -0.04712974 0.02057268 0.26220647
v -0.03556133 0.02189696 0.26577635
v -0.02434017 0.01995277 0.26931223
v -0.04002618 0.02368190 0.33358386
v -0.02824000 0.02166512 0.33715977
v -0.05191149 0.02243041 0.33006466
v -0.04745025 0.02162511 0.36904877
v -0.03719525 0.02269663 0.38508425
v -0.02984216 0.02096558 0.37428796
v -0.03688439 0.01807355 0.40214883
v -0.02647959 0.01743293 0.38848120
v -0.05026428 0.01832304 0.38140418
v -0.05145223 0.01189876 0.38132818
v -0.03788594 0.01164956 0.40212791
v -0.02766774 0.01100862 0.38840520
v -0.03881691 0.00522570 0.40212791
v -0.02859871 0.00458476 0.38840520
v -0.05216685 0.00547525 0.38139212
v -0.05049230 0.00163941 0.36900573
v -0.04126339 0.00021179 0.38484477
v -0.03315225 0.00097958 0.37416551
v -0.04268740 -0.00201165 0.33389815
v -0.03080350 -0.00081727 0.33736527
v -0.05458175 -0.00005220 0.33023858
v -0.04974652 -0.00190980 0.26239629
v -0.03843347 -0.00379699 0.26602829
v -0.02692498 -0.00252968 0.26951150
v -0.02732873 -0.00731978 0.19831791
v -0.01664507 -0.00602331 0.20170554
v -0.03754372 -0.00545360 0.19491138
v -0.01785088 -0.01030764 0.12925807
v -0.00883022 -0.01220108 0.13236688
v 0.00089767 -0.01091655 0.13549681
v 0.01511881 -0.01785857 0.06927355
v 0.02448230 -0.01660294 0.07230052
v 0.00689983 -0.01592751 0.06640161
v 0.02838174 -0.02039924 0.02000610
v 0.03639676 -0.02236997 0.02276765
v 0.04515376 -0.02114704 0.02560020
v 0.05192192 -0.02168270 0.00550864
v 0.04604793 -0.02269752 0.00290432
v 0.04670142 -0.01798931 0.00199949
v 0.05460083 -0.01828784 0.00550361
v 0.03994794 -0.02110823 0.00152354
v 0.03843505 -0.01753011 0.00016710
v 0.03888586 -0.01110729 0.00000000
v 0.04758073 -0.01156574 0.00195967
v 0.05526880 -0.01186442 0.00542579
v 0.04863355 -0.00514168 0.00199566
v 0.05625567 -0.00544061 0.00542640
v 0.04007120 -0.00468317 0.00005308
v 0.04240024 -0.00112360 0.00139204
v 0.04889937 -0.00021462 0.00278388
v 0.05445123 -0.00169811 0.00538397
v 0.02685498 -0.00907532 0.01896735
v 0.02620189 -0.01547568 0.01904959
v 0.00444526 -0.01101733 0.06536969
v 0.00500002 -0.00463630 0.06522593
v -0.02038443 -0.00541441 0.12819399
v -0.01980997 0.00094909 0.12804540
v 0.02768059 -0.00262891 0.01890060
v 0.00621769 0.00182981 0.06529349
v -0.01897185 0.00742302 0.12801785
v -0.04042290 -0.00057058 0.19373840
v -0.03990554 0.00578241 0.19355968
v -0.05293154 0.00297433 0.26117033
v -0.05241659 0.00933544 0.26098212
v -0.03867778 0.01227643 0.19364747
v -0.05164366 0.01582075 0.26096463
v -0.05785726 0.00485106 0.32904259
v -0.05716054 0.01124116 0.32888193
v -0.05618533 0.01769817 0.32895313
v 0.04806652 -0.01647986 0.02633270
v 0.02763455 -0.01192144 0.07314363
v 0.04871961 -0.01005648 0.02625046
v 0.02830714 -0.00551186 0.07304310
v 0.00517444 0.00017520 0.13636284
v 0.00469053 -0.00622058 0.13653476
v 0.05005736 -0.00363207 0.02635100
v 0.02932840 0.00092577 0.07306984
v 0.00605661 0.00662594 0.13634836
v -0.01253891 -0.00132824 0.20276949
v -0.01206892 0.00506834 0.20258411
v -0.02221139 0.00856221 0.27043081
v -0.02244886 0.00214930 0.27066346
v -0.01106952 0.01149241 0.20261488
v -0.02105039 0.01498670 0.27052632
v -0.02615606 0.00385224 0.33854055
v -0.02569561 0.01027470 0.33833586
v -0.02507851 0.01669860 0.33830830
v 0.04791973 0.00162030 0.00513443
v 0.05571559 -0.00038201 0.00778098
v 0.03957917 0.00039197 0.00243180
v 0.03631814 -0.00431379 0.00157541
v 0.03533831 -0.01075666 0.00156114
v 0.03459091 -0.01716116 0.00163011
v 0.03691413 -0.02209048 0.00260733
v 0.04478458 -0.02407408 0.00530856
v 0.05304391 -0.02286462 0.00795451
v 0.05641131 -0.01819637 0.00884728
v 0.05717961 -0.01177281 0.00879922
v 0.05798733 -0.00534947 0.00872683
f 4 1 2
f 2 3 4
f 3 2 5
f 5 6 3
f 8 3 6
f 6 7 8
f 9 4 3
f 3 8 9
f 11 9 8
f 8 10 11
f 10 8 7
f 7 12 10
f 14 10 12
f 12 13 14
f 15 11 10
f 10 14 15
f 17 15 14
f 14 16 17
f 16 14 13
f 13 18 16
f 20 16 18
f 18 19 20
f 21 17 16
f 16 20 21
f 23 21 20
f 20 22 23
f 22 20 19
f 19 24 22
f 26 22 24
f 24 25 26
f 27 23 22
f 22 26 27
f 29 27 26
f 26 28 29
f 28 26 25
f 25 30 28
f 32 28 30
f 30 31 32
f 33 29 28
f 28 32 33
f 35 33 32
f 32 34 35
f 34 32 31
f 31 36 34
f 38 34 36
f 36 37 38
f 39 35 34
f 34 38 39
f 41 39 38
f 38 40 41
f 40 38 37
f 37 42 40
f 44 40 42
f 42 43 44
f 45 41 40
f 40 44 45
f 47 45 44
f 44 46 47
f 46 44 43
f 43 48 46
f 50 46 48
f 48 49 50
f 51 47 46
f 46 50 51
f 55 52 53
f 53 54 55
f 54 53 56
f 56 57 54
f 59 54 57
f 57 58 59
f 60 55 54
f 54 59 60
f 62 60 59
f 59 61 62
f 61 59 58
f 58 63 61
f 65 61 63
f 63 64 65
f 66 62 61
f 61 65 66
f 70 67 68
f 68 69 70
f 69 68 49
f 49 48 69
f 71 69 48
f 48 43 71
f 72 70 69
f 69 71 72
f 6 5 73
f 73 74 6
f 74 73 67
f 67 70 74
f 75 74 70
f 70 72 75
f 7 6 74
f 74 75 7
f 77 72 71
f 71 76 77
f 76 71 43
f 43 42 76
f 78 76 42
f 42 37 78
f 79 77 76
f 76 78 79
f 12 7 75
f 75 80 12
f 80 75 72
f 72 77 80
f 81 80 77
f 77 79 81
f 13 12 80
f 80 81 13
f 83 79 78
f 78 82 83
f 82 78 37
f 37 36 82
f 30 82 36
f 36 31 30
f 25 83 82
f 82 30 25
f 18 13 81
f 81 84 18
f 84 81 79
f 79 83 84
f 24 84 83
f 83 25 24
f 19 18 84
f 84 24 19
f 47 51 85
f 85 86 47
f 86 85 87
f 87 88 86
f 90 86 88
f 88 89 90
f 45 47 86
f 86 90 45
f 88 87 91
f 91 92 88
f 92 91 1
f 1 4 92
f 93 92 4
f 4 9 93
f 89 88 92
f 92 93 89
f 41 45 90
f 90 94 41
f 94 90 89
f 89 95 94
f 97 94 95
f 95 96 97
f 39 41 94
f 94 97 39
f 95 89 93
f 93 98 95
f 98 93 9
f 9 11 98
f 99 98 11
f 11 15 99
f 96 95 98
f 98 99 96
f 35 39 97
f 97 100 35
f 100 97 96
f 96 101 100
f 29 100 101
f 101 27 29
f 33 35 100
f 100 29 33
f 101 96 99
f 99 102 101
f 102 99 15
f 15 17 102
f 23 102 17
f 17 21 23
f 27 101 102
f 102 23 27
f 104 66 65
f 65 103 104
f 103 65 64
f 64 105 103
f 2 103 105
f 105 5 2
f 1 104 103
f 103 2 1
f 105 64 63
f 63 106 105
f 106 63 58
f 58 107 106
f 73 106 107
f 107 67 73
f 5 105 106
f 106 73 5
f 107 58 57
f 57 108 107
f 108 57 56
f 56 109 108
f 68 108 109
f 109 49 68
f 67 107 108
f 108 68 67
f 111 51 50
f 50 110 111
f 110 50 49
f 49 109 110
f 53 110 109
f 109 56 53
f 52 111 110
f 110 53 52
f 111 52 55
f 55 112 111
f 112 55 60
f 60 113 112
f 85 112 113
f 113 87 85
f 51 111 112
f 112 85 51
f 113 60 62
f 62 114 113
f 114 62 66
f 66 104 114
f 91 114 104
f 104 1 91
f 87 113 114
f 114 91 87