# https://github.com/mikedh/trimesh
v 0.03396048 -0.00425830 0.07954867
v 0.03647627 -0.00511888 0.07942726
v 0.03581232 -0.00295603 0.07951512
v 0.03807452 -0.00299048 0.07942726
v 0.03654650 -0.00081449 0.07954867
v 0.03400388 -0.00159804 0.07962374
v -0.01753920 -0.00673189 0.07954866
v -0.01502341 -0.00759247 0.07942725
v -0.01568736 -0.00542962 0.07951511
v -0.01342516 -0.00546407 0.07942725
v -0.01495318 -0.00328807 0.07954867
v -0.01749581 -0.00407163 0.07962373
v 0.02073645 -0.00509777 0.07954867
v 0.02325225 -0.00595834 0.07942726
v 0.02258830 -0.00379550 0.07951512
v 0.02485050 -0.00382994 0.07942726
v 0.02332247 -0.00165395 0.07954867
v 0.02077985 -0.00243751 0.07962374
v -0.03095164 -0.00763705 0.07954866
v -0.02843585 -0.00849762 0.07942725
v -0.02909980 -0.00633477 0.07951511
v -0.02683760 -0.00636922 0.07942725
v -0.02836562 -0.00419323 0.07954866
v -0.03090825 -0.00497678 0.07962373
v 0.03185058 -0.00575553 0.06806460
v 0.03725027 -0.00760462 0.06806460
v 0.03626749 -0.00491595 0.07055040
v 0.03381921 -0.00407757 0.07055040
v 0.04067749 -0.00304056 0.06806460
v 0.03782142 -0.00284657 0.07055040
v 0.03739593 0.00162924 0.06806460
v 0.03633354 -0.00072922 0.07055040
v 0.03194057 -0.00004867 0.06806460
v 0.03385999 -0.00149000 0.07055040
v 0.03213099 -0.00551651 0.05851233
v 0.03711030 -0.00722165 0.05851233
v 0.03790528 -0.00939657 0.06322305
v 0.03053852 -0.00687386 0.06322305
v 0.04027068 -0.00301294 0.05851232
v 0.04258103 -0.00316985 0.06322305
v 0.03724459 0.00129331 0.05851232
v 0.03810399 0.00320113 0.06322305
v 0.03221397 -0.00025397 0.05851232
v 0.03066130 0.00091195 0.06322305
v 0.03655220 -0.00569482 0.07488281
v 0.03324889 -0.00456366 0.07488281
v 0.03864879 -0.00290278 0.07488281
v 0.03664129 -0.00004598 0.07488281
v 0.03330395 -0.00107245 0.07488281
v 0.03613272 -0.00454720 0.07488281
v 0.03408917 -0.00384743 0.07488281
v 0.03742971 -0.00281998 0.07488281
v 0.03618781 -0.00105265 0.07488281
v 0.03412323 -0.00168767 0.07488281
v -0.01964910 -0.00822912 0.06806459
v -0.01424941 -0.01007820 0.06806459
v -0.01523219 -0.00738954 0.07055039
v -0.01768047 -0.00655116 0.07055039
v -0.01082219 -0.00551415 0.06806459
v -0.01367826 -0.00532016 0.07055039
v -0.01410376 -0.00084434 0.06806459
v -0.01516614 -0.00320281 0.07055039
v -0.01955912 -0.00252226 0.06806459
v -0.01763969 -0.00396359 0.07055039
v -0.01936869 -0.00799010 0.05851232
v -0.01438938 -0.00969523 0.05851232
v -0.01359441 -0.01187016 0.06322305
v -0.02096116 -0.00934745 0.06322304
v -0.01122900 -0.00548653 0.05851232
v -0.00891866 -0.00564344 0.06322305
v -0.01425510 -0.00118028 0.05851232
v -0.01339569 0.00072754 0.06322304
v -0.01928572 -0.00272756 0.05851232
v -0.02083838 -0.00156163 0.06322304
v -0.01494748 -0.00816841 0.07488280
v -0.01825079 -0.00703724 0.07488280
v -0.01285089 -0.00537637 0.07488280
v -0.01485839 -0.00251956 0.07488280
v -0.01819574 -0.00354604 0.07488280
v -0.01536696 -0.00702078 0.07488280
v -0.01741051 -0.00632102 0.07488280
v -0.01406997 -0.00529357 0.07488280
v -0.01531187 -0.00352624 0.07488280
v -0.01737645 -0.00416126 0.07488280
v 0.01862656 -0.00659499 0.06806460
v 0.02402624 -0.00844408 0.06806459
v 0.02304346 -0.00575541 0.07055040
v 0.02059518 -0.00491704 0.07055040
v 0.02745346 -0.00388003 0.06806460
v 0.02459739 -0.00368603 0.07055040
v 0.02417190 0.00078978 0.06806459
v 0.02310951 -0.00156869 0.07055040
v 0.01871654 -0.00088813 0.06806459
v 0.02063596 -0.00232946 0.07055040
v 0.01890696 -0.00635597 0.05851233
v 0.02388627 -0.00806111 0.05851233
v 0.02468125 -0.01023604 0.06322305
v 0.01731449 -0.00771332 0.06322305
v 0.02704665 -0.00385241 0.05851232
v 0.02935700 -0.00400932 0.06322305
v 0.02402056 0.00045384 0.05851232
v 0.02487996 0.00236166 0.06322305
v 0.01898994 -0.00109344 0.05851232
v 0.01743727 0.00007249 0.06322305
v 0.02332818 -0.00653429 0.07488280
v 0.02002486 -0.00540312 0.07488280
v 0.02542477 -0.00374224 0.07488281
v 0.02341726 -0.00088544 0.07488280
v 0.02007992 -0.00191192 0.07488280
v 0.02290869 -0.00538666 0.07488280
v 0.02086514 -0.00468689 0.07488280
v 0.02420568 -0.00365945 0.07488280
v 0.02296378 -0.00189212 0.07488280
v 0.02089921 -0.00252713 0.07488280
v -0.03306154 -0.00913427 0.06806459
v -0.02766185 -0.01098336 0.06806459
v -0.02864463 -0.00829469 0.07055039
v -0.03109291 -0.00745631 0.07055039
v -0.02423463 -0.00641930 0.06806459
v -0.02709070 -0.00622531 0.07055039
v -0.02751619 -0.00174950 0.06806459
v -0.02857858 -0.00410796 0.07055039
v -0.03297156 -0.00342741 0.06806459
v -0.03105213 -0.00486874 0.07055039
v -0.03278113 -0.00889525 0.05851232
v -0.02780182 -0.01060039 0.05851232
v -0.02700685 -0.01277532 0.06322304
v -0.03437361 -0.01025260 0.06322304
v -0.02464144 -0.00639168 0.05851231
v -0.02233110 -0.00654859 0.06322304
v -0.02766753 -0.00208544 0.05851231
v -0.02680813 -0.00017761 0.06322304
v -0.03269816 -0.00363271 0.05851231
v -0.03425083 -0.00246679 0.06322304
v -0.02835992 -0.00907357 0.07488280
v -0.03166323 -0.00794240 0.07488279
v -0.02626333 -0.00628152 0.07488280
v -0.02827083 -0.00342472 0.07488280
v -0.03160818 -0.00445119 0.07488279
v -0.02877940 -0.00792594 0.07488280
v -0.03082295 -0.00722617 0.07488279
v -0.02748241 -0.00619872 0.07488280
v -0.02872431 -0.00443140 0.07488280
v -0.03078889 -0.00506641 0.07488279
v 0.04766962 0.00109043 0.06034391
v 0.04766961 0.00109043 0.08000980
v -0.05488179 0.00109036 0.08000978
v -0.05488179 0.00109036 0.06034389
v -0.05488180 0.01153868 0.08000978
v -0.05488179 0.01153868 0.06034389
v 0.04766961 0.01153874 0.08000980
v 0.04766961 0.01153874 0.06034391
v -0.03352637 0.01074288 0.17542677
v -0.03352638 0.01074288 0.19468166
v -0.03547938 0.00060742 0.19468166
v -0.03547938 0.00060742 0.17542677
v -0.04211578 0.00188619 0.19468166
v -0.04211577 0.00188619 0.17542677
v -0.04016277 0.01202165 0.19468166
v -0.04016277 0.01202165 0.17542677
v -0.02814187 0.01013946 0.17686901
v -0.02814187 0.01013946 0.19323943
v -0.02978725 0.00160048 0.19323943
v -0.02978725 0.00160048 0.17686901
v -0.03440155 0.00248961 0.19323943
v -0.03440155 0.00248961 0.17686901
v -0.03275617 0.01102860 0.19323943
v -0.03275617 0.01102860 0.17686901
v 0.02434677 0.00435332 0.17698599
v 0.02434677 0.00435332 0.19151226
v -0.01549583 0.00435330 0.19151225
v -0.01549583 0.00435330 0.17698598
v -0.01549584 0.01258485 0.19151225
v -0.01549583 0.01258485 0.17698598
v 0.02434676 0.01258488 0.17698599
v 0.02434676 0.01258488 0.19151226
v 0.01448309 0.00291280 0.17584248
v 0.01448309 0.00291280 0.19265575
v 0.01032270 0.00270778 0.19265575
v 0.01032270 0.00270778 0.17584248
v 0.00985375 0.01222375 0.19265575
v 0.00985376 0.01222375 0.17584248
v 0.01401414 0.01242877 0.17584248
v 0.01401414 0.01242877 0.19265575
v 0.03067903 0.01463944 0.17700664
v 0.03067903 0.01463944 0.19779130
v 0.03137763 0.00435270 0.19779130
v 0.03137764 0.00435270 0.17700664
v 0.02697270 0.00405355 0.19779130
v 0.02697270 0.00405355 0.17700664
v 0.02627409 0.01434029 0.19779130
v 0.02627410 0.01434029 0.17700664
v 0.04134964 0.01081183 0.17677404
v 0.04134964 0.01081183 0.19428922
v 0.04193886 0.00213574 0.19428922
v 0.04193886 0.00213574 0.17677404
v 0.03725047 0.00181734 0.19428922
v 0.03725048 0.00181734 0.17677404
v 0.03666126 0.01049342 0.19428922
v 0.03666126 0.01049342 0.17677404
v 0.03669736 0.01055078 0.17686902
v 0.03669735 0.01055078 0.19323944
v 0.03630024 0.00186379 0.19323944
v 0.03630024 0.00186379 0.17686902
v 0.03160596 0.00207838 0.19323944
v 0.03160596 0.00207838 0.17686902
v 0.03200307 0.01076537 0.19323944
v 0.03200307 0.01076537 0.17686902
v -0.01239124 0.01055075 0.17686901
v -0.01239124 0.01055075 0.19323943
v -0.01278836 0.00186375 0.19323943
v -0.01278836 0.00186375 0.17686901
v -0.01748264 0.00207835 0.19323943
v -0.01748264 0.00207835 0.17686901
v -0.01708553 0.01076534 0.19323943
v -0.01708552 0.01076534 0.17686901
v -0.03166807 0.01153870 0.09011720
v -0.03166807 0.01153870 0.10978308
v -0.03166806 0.00109038 0.10978308
v -0.03166806 0.00109038 0.09011720
v -0.05386137 0.00109036 0.10978308
v -0.05386136 0.00109036 0.09011720
v -0.05386137 0.01153868 0.10978308
v -0.05386137 0.01153868 0.09011720
v -0.01239123 0.01055075 0.09091999
v -0.01239123 0.01055075 0.10729042
v -0.01278834 0.00186375 0.10729042
v -0.01278834 0.00186375 0.09091999
v -0.01748263 0.00207835 0.10729042
v -0.01748262 0.00207835 0.09091999
v -0.01708551 0.01076534 0.10729042
v -0.01708551 0.01076534 0.09091999
v 0.02579224 0.01153874 0.09011721
v 0.02579224 0.01153874 0.10978309
v 0.02579224 0.00109042 0.10978309
v 0.02579225 0.00109042 0.09011721
v -0.00898868 0.00109039 0.10978309
v -0.00898868 0.00109039 0.09011720
v -0.00898869 0.01153870 0.10978309
v -0.00898869 0.01153870 0.09011720
v 0.03335813 0.01055078 0.09092000
v 0.03335813 0.01055078 0.10729043
v 0.03296102 0.00186379 0.10729043
v 0.03296102 0.00186379 0.09092000
v 0.02826674 0.00207838 0.10729043
v 0.02826674 0.00207838 0.09092000
v 0.02866385 0.01076537 0.10729043
v 0.02866385 0.01076537 0.09092000
v 0.04134966 0.01081183 0.09082502
v 0.04134966 0.01081183 0.10834021
v 0.04193887 0.00213574 0.10834021
v 0.04193887 0.00213574 0.09082502
v 0.03725049 0.00181734 0.10834020
v 0.03725049 0.00181734 0.09082502
v 0.03666127 0.01049342 0.10834020
v 0.03666127 0.01049342 0.09082502
v -0.02699044 -0.00049741 0.14716145
v -0.02699045 -0.00049741 0.16587644
v -0.03162141 -0.00072562 0.16587644
v -0.03162141 -0.00072562 0.14716145
v -0.03214340 0.00986669 0.16587644
v -0.03214339 0.00986669 0.14716145
v -0.02751243 0.01009490 0.14716145
v -0.02751243 0.01009490 0.16587644
v -0.04207615 0.00213569 0.11958868
v -0.04207615 0.00213569 0.13710386
v -0.04676454 0.00181729 0.13710386
v -0.04676453 0.00181729 0.11958868
v -0.04735375 0.01049337 0.13710386
v -0.04735375 0.01049337 0.11958868
v -0.04266537 0.01081177 0.11958868
v -0.04266537 0.01081177 0.13710386
v -0.03407873 0.00186374 0.11968366
v -0.03407873 0.00186374 0.13605409
v -0.03877301 0.00207833 0.13605409
v -0.03877301 0.00207833 0.11968366
v -0.03837590 0.01076533 0.13605409
v -0.03837590 0.01076533 0.11968366
v -0.03368161 0.01055074 0.11968366
v -0.03368162 0.01055074 0.13605409
v 0.02828435 0.00153789 0.14474841
v 0.02828435 0.00153789 0.16608950
v 0.02300357 0.00127766 0.16608950
v 0.02300357 0.00127766 0.14474841
v 0.02240833 0.01335628 0.16608950
v 0.02240834 0.01335628 0.14474841
v 0.02768912 0.01361652 0.14474841
v 0.02768911 0.01361652 0.16608950
v 0.04080424 0.00336615 0.14619986
v 0.04080424 0.00336615 0.16463806
v -0.00976800 0.00336611 0.16463805
v -0.00976799 0.00336611 0.14619985
v -0.00976800 0.01381443 0.16463805
v -0.00976800 0.01381443 0.14619985
v 0.04080424 0.01381446 0.14619986
v 0.04080423 0.01381446 0.16463806
v 0.02906777 0.00109042 0.11888088
v 0.02906777 0.00109042 0.13854676
v -0.02767119 0.00109038 0.13854676
v -0.02767119 0.00109038 0.11888087
v -0.02767120 0.01153870 0.13854676
v -0.02767120 0.01153870 0.11888087
v 0.02906776 0.01153873 0.11888088
v 0.02906776 0.01153873 0.13854676
v -0.02143068 0.00109039 0.14668601
v -0.02143068 0.00109039 0.16635189
v -0.05252476 0.00109037 0.16635188
v -0.05252475 0.00109037 0.14668601
v -0.05252476 0.01153868 0.16635188
v -0.05252476 0.01153868 0.14668601
v -0.02143068 0.01153870 0.14668601
v -0.02143069 0.01153870 0.16635189
v -0.05217375 -0.02156091 -0.00000000
v -0.05217379 -0.01037172 0.21175571
v -0.05680846 -0.01037172 0.21175571
v -0.05680841 -0.02156091 -0.00000000
v -0.05680848 0.02300076 0.21175571
v -0.05680844 0.02300076 -0.00000000
v 0.04660450 0.02300083 0.00000002
v 0.04660447 0.02300083 0.21175573
v 0.05123914 0.02300083 0.21175573
v 0.05123917 0.02300083 0.00000002
v 0.05123916 -0.01037165 0.21175573
v 0.05123920 -0.02156084 0.00000002
v 0.04660449 -0.01037165 0.21175573
v -0.05217381 0.02300076 0.21175571
v -0.05985908 -0.01478698 0.21302662
v 0.05481487 -0.01478690 0.21302663
v 0.05481484 0.02383100 0.21302663
v -0.05985911 0.02383093 0.21302662
v -0.05985909 -0.01478698 0.20878486
v 0.05481487 -0.01478690 0.20878487
v -0.05217377 0.02300076 -0.00000000
v 0.04660453 -0.02156084 0.00000002
v 0.05481484 0.02383100 0.20878487
v -0.05985911 0.02383093 0.20878486
v 0.04329126 -0.01880116 0.00429367
v 0.04329125 -0.01417392 0.00429367
v 0.04329124 -0.01046829 0.05444877
v 0.04329125 -0.01509553 0.05444877
v -0.00143238 -0.01046832 0.05444877
v -0.00143238 -0.01509556 0.05444877
v -0.00143237 -0.01880119 0.00429369
v 0.04798983 -0.01277658 0.05837224
v -0.05303399 -0.01277665 0.05837224
v -0.05303398 -0.01648228 0.00037020
v 0.04798984 -0.01648222 0.00037022
v -0.05303399 -0.01443804 0.06085160
v 0.04798983 -0.01443797 0.06085160
v 0.04798981 0.02291354 0.06085160
v -0.05303401 0.02291348 0.06085160
v -0.05303399 -0.01443804 0.05837224
v 0.04798983 -0.01443797 0.05837224
v -0.05303400 -0.00155022 0.09073388
v 0.04798982 -0.00155016 0.09073389
v 0.04798980 0.02291354 0.09073389
v -0.05303402 0.02291348 0.09073388
v -0.05303401 -0.00155022 0.08825451
v 0.04798982 -0.00155016 0.08825452
v 0.04798980 0.02291354 0.08825452
v -0.05303402 0.02291348 0.08825451
v -0.05303401 -0.00155022 0.11968050
v 0.04798981 -0.00155016 0.11968051
v 0.04798980 0.02291354 0.11968051
v -0.05303402 0.02291348 0.11968050
v -0.05303401 -0.00155022 0.11720113
v 0.04798981 -0.00155016 0.11720114
v 0.04798980 0.02291354 0.11720114
v -0.05303403 0.02291348 0.11720113
v -0.05303401 -0.00155022 0.14703353
v 0.04798981 -0.00155016 0.14703354
v 0.04798979 0.02291354 0.14703354
v -0.05303403 0.02291348 0.14703353
v -0.05303402 -0.00155022 0.14455416
v 0.04798981 -0.00155016 0.14455416
v 0.04798979 0.02291354 0.14455416
v -0.05303403 0.02291348 0.14455416
v -0.05303402 -0.00155022 0.17752429
v 0.04798981 -0.00155016 0.17752429
v 0.04798979 0.02291354 0.17752429
v -0.05303403 0.02291348 0.17752429
v -0.05303402 -0.00155022 0.17504491
v 0.04798981 -0.00155016 0.17504493
v 0.04798979 0.02291354 0.17504493
v -0.05303404 0.02291348 0.17504491
v -0.00143237 -0.01417395 0.00429369
v 0.00718450 -0.01847950 0.03233609
v 0.00718450 -0.01419484 0.03233609
v 0.00718450 -0.01419484 0.03589806
v 0.00718450 -0.01847950 0.03589806
v 0.00400827 -0.01419484 0.03589806
v 0.00400828 -0.01847950 0.03589806
v 0.00400828 -0.01847950 0.03233609
v 0.00400827 -0.01419484 0.03233609
v -0.04847183 -0.01880122 0.00429366
v -0.04847184 -0.01509559 0.05444875
v -0.04847185 -0.01046835 0.05444875
v -0.04847184 -0.01417398 0.00429366
v -0.00374822 -0.01509556 0.05444877
v -0.00374822 -0.01046832 0.05444877
v -0.00374821 -0.01880119 0.00429369
v -0.00374821 -0.01417396 0.00429369
v -0.01236509 -0.01847951 0.03233609
v -0.01236509 -0.01847951 0.03589805
v -0.01236510 -0.01419485 0.03589805
v -0.01236510 -0.01419485 0.03233609
v -0.00918887 -0.01847951 0.03589806
v -0.00918887 -0.01419485 0.03589806
v -0.00918887 -0.01847951 0.03233609
v -0.00918887 -0.01419485 0.03233609
f 1 2 3
f 2 4 3
f 4 5 3
f 5 6 3
f 6 1 3
f 7 8 9
f 8 10 9
f 10 11 9
f 11 12 9
f 12 7 9
f 13 14 15
f 14 16 15
f 16 17 15
f 17 18 15
f 18 13 15
f 19 20 21
f 20 22 21
f 22 23 21
f 23 24 21
f 24 19 21
f 25 26 27
f 25 27 28
f 26 29 30
f 26 30 27
f 29 31 32
f 29 32 30
f 31 33 34
f 31 34 32
f 33 25 28
f 33 28 34
f 35 36 37
f 35 37 38
f 36 39 40
f 36 40 37
f 39 41 42
f 39 42 40
f 41 43 44
f 41 44 42
f 43 35 38
f 43 38 44
f 28 27 45
f 28 45 46
f 27 30 47
f 27 47 45
f 30 32 48
f 30 48 47
f 32 34 49
f 32 49 48
f 34 28 46
f 34 46 49
f 46 45 50
f 46 50 51
f 45 47 52
f 45 52 50
f 47 48 53
f 47 53 52
f 48 49 54
f 48 54 53
f 49 46 51
f 49 51 54
f 51 50 2
f 51 2 1
f 50 52 4
f 50 4 2
f 52 53 5
f 52 5 4
f 53 54 6
f 53 6 5
f 54 51 1
f 54 1 6
f 44 38 25
f 44 25 33
f 42 44 33
f 42 33 31
f 40 42 31
f 40 31 29
f 37 40 29
f 37 29 26
f 38 37 26
f 38 26 25
f 55 56 57
f 55 57 58
f 56 59 60
f 56 60 57
f 59 61 62
f 59 62 60
f 61 63 64
f 61 64 62
f 63 55 58
f 63 58 64
f 65 66 67
f 65 67 68
f 66 69 70
f 66 70 67
f 69 71 72
f 69 72 70
f 71 73 74
f 71 74 72
f 73 65 68
f 73 68 74
f 58 57 75
f 58 75 76
f 57 60 77
f 57 77 75
f 60 62 78
f 60 78 77
f 62 64 79
f 62 79 78
f 64 58 76
f 64 76 79
f 76 75 80
f 76 80 81
f 75 77 82
f 75 82 80
f 77 78 83
f 77 83 82
f 78 79 84
f 78 84 83
f 79 76 81
f 79 81 84
f 81 80 8
f 81 8 7
f 80 82 10
f 80 10 8
f 82 83 11
f 82 11 10
f 83 84 12
f 83 12 11
f 84 81 7
f 84 7 12
f 74 68 55
f 74 55 63
f 72 74 63
f 72 63 61
f 70 72 61
f 70 61 59
f 67 70 59
f 67 59 56
f 68 67 56
f 68 56 55
f 85 86 87
f 85 87 88
f 86 89 90
f 86 90 87
f 89 91 92
f 89 92 90
f 91 93 94
f 91 94 92
f 93 85 88
f 93 88 94
f 95 96 97
f 95 97 98
f 96 99 100
f 96 100 97
f 99 101 102
f 99 102 100
f 101 103 104
f 101 104 102
f 103 95 98
f 103 98 104
f 88 87 105
f 88 105 106
f 87 90 107
f 87 107 105
f 90 92 108
f 90 108 107
f 92 94 109
f 92 109 108
f 94 88 106
f 94 106 109
f 106 105 110
f 106 110 111
f 105 107 112
f 105 112 110
f 107 108 113
f 107 113 112
f 108 109 114
f 108 114 113
f 109 106 111
f 109 111 114
f 111 110 14
f 111 14 13
f 110 112 16
f 110 16 14
f 112 113 17
f 112 17 16
f 113 114 18
f 113 18 17
f 114 111 13
f 114 13 18
f 104 98 85
f 104 85 93
f 102 104 93
f 102 93 91
f 100 102 91
f 100 91 89
f 97 100 89
f 97 89 86
f 98 97 86
f 98 86 85
f 115 116 117
f 115 117 118
f 116 119 120
f 116 120 117
f 119 121 122
f 119 122 120
f 121 123 124
f 121 124 122
f 123 115 118
f 123 118 124
f 125 126 127
f 125 127 128
f 126 129 130
f 126 130 127
f 129 131 132
f 129 132 130
f 131 133 134
f 131 134 132
f 133 125 128
f 133 128 134
f 118 117 135
f 118 135 136
f 117 120 137
f 117 137 135
f 120 122 138
f 120 138 137
f 122 124 139
f 122 139 138
f 124 118 136
f 124 136 139
f 136 135 140
f 136 140 141
f 135 137 142
f 135 142 140
f 137 138 143
f 137 143 142
f 138 139 144
f 138 144 143
f 139 136 141
f 139 141 144
f 141 140 20
f 141 20 19
f 140 142 22
f 140 22 20
f 142 143 23
f 142 23 22
f 143 144 24
f 143 24 23
f 144 141 19
f 144 19 24
f 134 128 115
f 134 115 123
f 132 134 123
f 132 123 121
f 130 132 121
f 130 121 119
f 127 130 119
f 127 119 116
f 128 127 116
f 128 116 115
f 145 146 147
f 145 147 148
f 148 147 149
f 148 149 150
f 150 149 151
f 150 151 152
f 152 151 146
f 152 146 145
f 148 150 152
f 148 152 145
f 149 147 146
f 149 146 151
f 153 154 155
f 153 155 156
f 156 155 157
f 156 157 158
f 158 157 159
f 158 159 160
f 153 156 158
f 153 158 160
f 155 154 159
f 155 159 157
f 161 162 163
f 161 163 164
f 164 163 165
f 164 165 166
f 166 165 167
f 166 167 168
f 161 164 166
f 161 166 168
f 163 162 167
f 163 167 165
f 169 170 171
f 169 171 172
f 172 171 173
f 172 173 174
f 175 176 170
f 175 170 169
f 172 174 175
f 172 175 169
f 173 171 170
f 173 170 176
f 177 178 179
f 177 179 180
f 180 179 181
f 180 181 182
f 183 184 178
f 183 178 177
f 180 182 183
f 180 183 177
f 181 179 178
f 181 178 184
f 185 186 187
f 185 187 188
f 188 187 189
f 188 189 190
f 190 189 191
f 190 191 192
f 185 188 190
f 185 190 192
f 187 186 191
f 187 191 189
f 193 194 195
f 193 195 196
f 196 195 197
f 196 197 198
f 198 197 199
f 198 199 200
f 193 196 198
f 193 198 200
f 195 194 199
f 195 199 197
f 201 202 203
f 201 203 204
f 204 203 205
f 204 205 206
f 206 205 207
f 206 207 208
f 201 204 206
f 201 206 208
f 203 202 207
f 203 207 205
f 209 210 211
f 209 211 212
f 212 211 213
f 212 213 214
f 214 213 215
f 214 215 216
f 209 212 214
f 209 214 216
f 211 210 215
f 211 215 213
f 217 218 219
f 217 219 220
f 220 219 221
f 220 221 222
f 222 221 223
f 222 223 224
f 217 220 222
f 217 222 224
f 219 218 223
f 219 223 221
f 225 226 227
f 225 227 228
f 228 227 229
f 228 229 230
f 230 229 231
f 230 231 232
f 225 228 230
f 225 230 232
f 227 226 231
f 227 231 229
f 233 234 235
f 233 235 236
f 236 235 237
f 236 237 238
f 238 237 239
f 238 239 240
f 233 236 238
f 233 238 240
f 235 234 239
f 235 239 237
f 241 242 243
f 241 243 244
f 244 243 245
f 244 245 246
f 246 245 247
f 246 247 248
f 241 244 246
f 241 246 248
f 243 242 247
f 243 247 245
f 249 250 251
f 249 251 252
f 252 251 253
f 252 253 254
f 254 253 255
f 254 255 256
f 249 252 254
f 249 254 256
f 251 250 255
f 251 255 253
f 257 258 259
f 257 259 260
f 260 259 261
f 260 261 262
f 263 264 258
f 263 258 257
f 260 262 263
f 260 263 257
f 261 259 258
f 261 258 264
f 265 266 267
f 265 267 268
f 268 267 269
f 268 269 270
f 271 272 266
f 271 266 265
f 268 270 271
f 268 271 265
f 269 267 266
f 269 266 272
f 273 274 275
f 273 275 276
f 276 275 277
f 276 277 278
f 279 280 274
f 279 274 273
f 276 278 279
f 276 279 273
f 277 275 274
f 277 274 280
f 281 282 283
f 281 283 284
f 284 283 285
f 284 285 286
f 287 288 282
f 287 282 281
f 284 286 287
f 284 287 281
f 285 283 282
f 285 282 288
f 289 290 291
f 289 291 292
f 292 291 293
f 292 293 294
f 295 296 290
f 295 290 289
f 292 294 295
f 292 295 289
f 293 291 290
f 293 290 296
f 297 298 299
f 297 299 300
f 300 299 301
f 300 301 302
f 303 304 298
f 303 298 297
f 300 302 303
f 300 303 297
f 301 299 298
f 301 298 304
f 305 306 307
f 305 307 308
f 308 307 309
f 308 309 310
f 311 312 306
f 311 306 305
f 308 310 311
f 308 311 305
f 309 307 306
f 309 306 312
f 313 314 315
f 313 315 316
f 316 315 317
f 316 317 318
f 319 320 321
f 319 321 322
f 322 321 323
f 322 323 324
f 320 325 323
f 320 323 321
f 317 315 314
f 317 314 326
f 327 328 329
f 327 329 330
f 331 332 328
f 331 328 327
f 318 317 326
f 318 326 333
f 325 320 319
f 325 319 334
f 324 323 325
f 324 325 334
f 314 313 333
f 314 333 326
f 329 328 332
f 329 332 335
f 327 330 336
f 327 336 331
f 332 331 336
f 332 336 335
f 337 338 339
f 337 339 340
f 340 339 341
f 340 341 342
f 340 342 343
f 340 343 337
f 344 345 346
f 344 346 347
f 348 349 350
f 348 350 351
f 352 353 349
f 352 349 348
f 350 349 353
f 350 353 344
f 348 351 345
f 348 345 352
f 351 350 344
f 351 344 345
f 353 352 345
f 353 345 344
f 354 355 356
f 354 356 357
f 358 359 355
f 358 355 354
f 356 355 359
f 356 359 360
f 354 357 361
f 354 361 358
f 357 356 360
f 357 360 361
f 359 358 361
f 359 361 360
f 362 363 364
f 362 364 365
f 366 367 363
f 366 363 362
f 364 363 367
f 364 367 368
f 362 365 369
f 362 369 366
f 365 364 368
f 365 368 369
f 367 366 369
f 367 369 368
f 370 371 372
f 370 372 373
f 374 375 371
f 374 371 370
f 372 371 375
f 372 375 376
f 370 373 377
f 370 377 374
f 373 372 376
f 373 376 377
f 375 374 377
f 375 377 376
f 378 379 380
f 378 380 381
f 382 383 379
f 382 379 378
f 380 379 383
f 380 383 384
f 378 381 385
f 378 385 382
f 381 380 384
f 381 384 385
f 383 382 385
f 383 385 384
f 326 333 319
f 326 319 320
f 342 341 386
f 342 386 343
f 387 388 389
f 387 389 390
f 390 389 391
f 390 391 392
f 393 394 388
f 393 388 387
f 390 392 393
f 390 393 387
f 392 391 394
f 392 394 393
f 395 396 397
f 395 397 398
f 396 399 400
f 396 400 397
f 396 395 401
f 396 401 399
f 399 401 402
f 399 402 400
f 403 404 405
f 403 405 406
f 404 407 408
f 404 408 405
f 409 403 406
f 409 406 410
f 404 403 409
f 404 409 407
f 407 409 410
f 407 410 408
f 1 3 2
f 2 3 4
f 4 3 5
f 5 3 6
f 6 3 1
f 7 9 8
f 8 9 10
f 10 9 11
f 11 9 12
f 12 9 7
f 13 15 14
f 14 15 16
f 16 15 17
f 17 15 18
f 18 15 13
f 19 21 20
f 20 21 22
f 22 21 23
f 23 21 24
f 24 21 19
f 28 27 26
f 26 25 28
f 27 30 29
f 29 26 27
f 30 32 31
f 31 29 30
f 32 34 33
f 33 31 32
f 34 28 25
f 25 33 34
f 38 37 36
f 36 35 38
f 37 40 39
f 39 36 37
f 40 42 41
f 41 39 40
f 42 44 43
f 43 41 42
f 44 38 35
f 35 43 44
f 46 45 27
f 27 28 46
f 45 47 30
f 30 27 45
f 47 48 32
f 32 30 47
f 48 49 34
f 34 32 48
f 49 46 28
f 28 34 49
f 51 50 45
f 45 46 51
f 50 52 47
f 47 45 50
f 52 53 48
f 48 47 52
f 53 54 49
f 49 48 53
f 54 51 46
f 46 49 54
f 1 2 50
f 50 51 1
f 2 4 52
f 52 50 2
f 4 5 53
f 53 52 4
f 5 6 54
f 54 53 5
f 6 1 51
f 51 54 6
f 33 25 38
f 38 44 33
f 31 33 44
f 44 42 31
f 29 31 42
f 42 40 29
f 26 29 40
f 40 37 26
f 25 26 37
f 37 38 25
f 58 57 56
f 56 55 58
f 57 60 59
f 59 56 57
f 60 62 61
f 61 59 60
f 62 64 63
f 63 61 62
f 64 58 55
f 55 63 64
f 68 67 66
f 66 65 68
f 67 70 69
f 69 66 67
f 70 72 71
f 71 69 70
f 72 74 73
f 73 71 72
f 74 68 65
f 65 73 74
f 76 75 57
f 57 58 76
f 75 77 60
f 60 57 75
f 77 78 62
f 62 60 77
f 78 79 64
f 64 62 78
f 79 76 58
f 58 64 79
f 83 84 79
f 79 78 83
f 84 81 76
f 76 79 84
f 7 8 80
f 80 81 7
f 8 10 82
f 82 80 8
f 10 11 83
f 83 82 10
f 11 12 84
f 84 83 11
f 12 7 81
f 81 84 12
f 63 55 68
f 68 74 63
f 61 63 74
f 74 72 61
f 59 61 72
f 72 70 59
f 56 59 70
f 70 67 56
f 55 56 67
f 67 68 55
f 88 87 86
f 86 85 88
f 87 90 89
f 89 86 87
f 90 92 91
f 91 89 90
f 92 94 93
f 93 91 92
f 94 88 85
f 85 93 94
f 98 97 96
f 96 95 98
f 97 100 99
f 99 96 97
f 100 102 101
f 101 99 100
f 102 104 103
f 103 101 102
f 104 98 95
f 95 103 104
f 106 105 87
f 87 88 106
f 105 107 90
f 90 87 105
f 107 108 92
f 92 90 107
f 108 109 94
f 94 92 108
f 109 106 88
f 88 94 109
f 111 110 105
f 105 106 111
f 114 111 106
f 106 109 114
f 13 14 110
f 110 111 13
f 14 16 112
f 112 110 14
f 16 17 113
f 113 112 16
f 17 18 114
f 114 113 17
f 18 13 111
f 111 114 18
f 93 85 98
f 98 104 93
f 91 93 104
f 104 102 91
f 89 91 102
f 102 100 89
f 86 89 100
f 100 97 86
f 85 86 97
f 97 98 85
f 118 117 116
f 116 115 118
f 117 120 119
f 119 116 117
f 120 122 121
f 121 119 120
f 122 124 123
f 123 121 122
f 124 118 115
f 115 123 124
f 128 127 126
f 126 125 128
f 127 130 129
f 129 126 127
f 130 132 131
f 131 129 130
f 132 134 133
f 133 131 132
f 134 128 125
f 125 133 134
f 136 135 117
f 117 118 136
f 135 137 120
f 120 117 135
f 137 138 122
f 122 120 137
f 138 139 124
f 124 122 138
f 139 136 118
f 118 124 139
f 141 140 135
f 135 136 141
f 140 142 137
f 137 135 140
f 142 143 138
f 138 137 142
f 143 144 139
f 139 138 143
f 144 141 136
f 136 139 144
f 19 20 140
f 140 141 19
f 20 22 142
f 142 140 20
f 22 23 143
f 143 142 22
f 23 24 144
f 144 143 23
f 24 19 141
f 141 144 24
f 123 115 128
f 128 134 123
f 121 123 134
f 134 132 121
f 119 121 132
f 132 130 119
f 116 119 130
f 130 127 116
f 115 116 127
f 127 128 115
f 148 147 146
f 146 145 148
f 150 149 147
f 147 148 150
f 152 151 149
f 149 150 152
f 145 146 151
f 151 152 145
f 145 152 150
f 150 148 145
f 151 146 147
f 147 149 151
f 156 155 154
f 154 153 156
f 158 157 155
f 155 156 158
f 160 159 157
f 157 158 160
f 160 158 156
f 156 153 160
f 157 159 154
f 154 155 157
f 164 163 162
f 162 161 164
f 166 165 163
f 163 164 166
f 168 167 165
f 165 166 168
f 168 166 164
f 164 161 168
f 165 167 162
f 162 163 165
f 172 171 170
f 170 169 172
f 174 173 171
f 171 172 174
f 169 170 176
f 176 175 169
f 169 175 174
f 174 172 169
f 176 170 171
f 171 173 176
f 180 179 178
f 178 177 180
f 182 181 179
f 179 180 182
f 177 178 184
f 184 183 177
f 177 183 182
f 182 180 177
f 184 178 179
f 179 181 184
f 188 187 186
f 186 185 188
f 190 189 187
f 187 188 190
f 192 191 189
f 189 190 192
f 192 190 188
f 188 185 192
f 189 191 186
f 186 187 189
f 196 195 194
f 194 193 196
f 198 197 195
f 195 196 198
f 200 199 197
f 197 198 200
f 200 198 196
f 196 193 200
f 197 199 194
f 194 195 197
f 204 203 202
f 202 201 204
f 206 205 203
f 203 204 206
f 208 207 205
f 205 206 208
f 208 206 204
f 204 201 208
f 205 207 202
f 202 203 205
f 212 211 210
f 210 209 212
f 214 213 211
f 211 212 214
f 216 215 213
f 213 214 216
f 216 214 212
f 212 209 216
f 213 215 210
f 210 211 213
f 220 219 218
f 218 217 220
f 222 221 219
f 219 220 222
f 224 223 221
f 221 222 224
f 224 222 220
f 220 217 224
f 221 223 218
f 218 219 221
f 228 227 226
f 226 225 228
f 230 229 227
f 227 228 230
f 232 231 229
f 229 230 232
f 232 230 228
f 228 225 232
f 229 231 226
f 226 227 229
f 236 235 234
f 234 233 236
f 238 237 235
f 235 236 238
f 240 239 237
f 237 238 240
f 240 238 236
f 236 233 240
f 237 239 234
f 234 235 237
f 244 243 242
f 242 241 244
f 246 245 243
f 243 244 246
f 248 247 245
f 245 246 248
f 248 246 244
f 244 241 248
f 245 247 242
f 242 243 245
f 252 251 250
f 250 249 252
f 254 253 251
f 251 252 254
f 256 255 253
f 253 254 256
f 256 254 252
f 252 249 256
f 253 255 250
f 250 251 253
f 260 259 258
f 258 257 260
f 262 261 259
f 259 260 262
f 257 258 264
f 264 263 257
f 257 263 262
f 262 260 257
f 264 258 259
f 259 261 264
f 268 267 266
f 266 265 268
f 270 269 267
f 267 268 270
f 265 266 272
f 272 271 265
f 265 271 270
f 270 268 265
f 272 266 267
f 267 269 272
f 276 275 274
f 274 273 276
f 278 277 275
f 275 276 278
f 273 274 280
f 280 279 273
f 273 279 278
f 278 276 273
f 280 274 275
f 275 277 280
f 284 283 282
f 282 281 284
f 286 285 283
f 283 284 286
f 281 282 288
f 288 287 281
f 281 287 286
f 286 284 281
f 288 282 283
f 283 285 288
f 292 291 290
f 290 289 292
f 294 293 291
f 291 292 294
f 289 290 296
f 296 295 289
f 289 295 294
f 294 292 289
f 296 290 291
f 291 293 296
f 300 299 298
f 298 297 300
f 302 301 299
f 299 300 302
f 297 298 304
f 304 303 297
f 297 303 302
f 302 300 297
f 304 298 299
f 299 301 304
f 308 307 306
f 306 305 308
f 310 309 307
f 307 308 310
f 305 306 312
f 312 311 305
f 305 311 310
f 310 308 305
f 312 306 307
f 307 309 312
f 316 315 314
f 314 313 316
f 318 317 315
f 315 316 318
f 322 321 320
f 320 319 322
f 324 323 321
f 321 322 324
f 321 323 325
f 325 320 321
f 326 314 315
f 315 317 326
f 330 329 328
f 328 327 330
f 327 328 332
f 332 331 327
f 333 326 317
f 317 318 333
f 334 319 320
f 320 325 334
f 334 325 323
f 323 324 334
f 326 333 313
f 313 314 326
f 335 332 328
f 328 329 335
f 331 336 330
f 330 327 331
f 335 336 331
f 331 332 335
f 340 339 338
f 338 337 340
f 342 341 339
f 339 340 342
f 337 343 342
f 342 340 337
f 347 346 345
f 345 344 347
f 351 350 349
f 349 348 351
f 348 349 353
f 353 352 348
f 344 353 349
f 349 350 344
f 352 345 351
f 351 348 352
f 345 344 350
f 350 351 345
f 344 345 352
f 352 353 344
f 357 356 355
f 355 354 357
f 354 355 359
f 359 358 354
f 360 359 355
f 355 356 360
f 358 361 357
f 357 354 358
f 361 360 356
f 356 357 361
f 360 361 358
f 358 359 360
f 365 364 363
f 363 362 365
f 362 363 367
f 367 366 362
f 368 367 363
f 363 364 368
f 366 369 365
f 365 362 366
f 369 368 364
f 364 365 369
f 368 369 366
f 366 367 368
f 373 372 371
f 371 370 373
f 370 371 375
f 375 374 370
f 376 375 371
f 371 372 376
f 374 377 373
f 373 370 374
f 377 376 372
f 372 373 377
f 376 377 374
f 374 375 376
f 381 380 379
f 379 378 381
f 378 379 383
f 383 382 378
f 384 383 379
f 379 380 384
f 382 385 381
f 381 378 382
f 385 384 380
f 380 381 385
f 384 385 382
f 382 383 384
f 320 319 333
f 333 326 320
f 343 386 341
f 341 342 343
f 390 389 388
f 388 387 390
f 392 391 389
f 389 390 392
f 387 388 394
f 394 393 387
f 387 393 392
f 392 390 387
f 393 394 391
f 391 392 393
f 398 397 396
f 396 395 398
f 397 400 399
f 399 396 397
f 399 401 395
f 395 396 399
f 400 402 401
f 401 399 400
f 406 405 404
f 404 403 406
f 405 408 407
f 407 404 405
f 410 406 403
f 403 409 410
f 407 409 403
f 403 404 407
f 408 410 409
f 409 407 408