# https://github.com/mikedh/trimesh
v 0.01359128 0.00931375 -0.00000000
v 0.01584197 0.00489654 -0.00000000
v 0.00077199 -0.00000000 -0.00000000
v 0.01008575 0.01281928 -0.00000000
v 0.00566853 0.01506997 -0.00000000
v 0.00077199 0.01584551 -0.00000000
v -0.00412454 0.01506997 -0.00000000
v -0.00854176 0.01281928 -0.00000000
v -0.01204729 0.00931375 0.00000000
v -0.01429797 0.00489653 0.00000000
v -0.01507351 -0.00000000 0.00000000
v -0.01429797 -0.00489653 0.00000000
v -0.01204729 -0.00931375 0.00000000
v -0.00854176 -0.01281928 0.00000000
v -0.00412453 -0.01506997 0.00000000
v 0.00077199 -0.01584550 0.00000000
v 0.00566852 -0.01506997 0.00000000
v 0.01008574 -0.01281928 0.00000000
v 0.01359127 -0.00931375 -0.00000000
v 0.01584196 -0.00489653 -0.00000000
v 0.01661749 0.00000000 -0.00000000
v -0.01386880 -0.01063716 0.05442393
v 0.00077199 0.00000000 0.05471381
v -0.01643929 -0.00559229 0.05442393
v 0.01798329 0.00559229 0.05442393
v 0.01541280 0.01063716 0.05442393
v 0.01140916 0.01464080 0.05442393
v 0.00636428 0.01721129 0.05442393
v 0.00077200 0.01809702 0.05442393
v -0.00482029 0.01721129 0.05442393
v -0.00986516 0.01464079 0.05442393
v -0.01386880 0.01063716 0.05442393
v -0.01643929 0.00559228 0.05442393
v -0.01732502 -0.00000000 0.05442393
v -0.00986516 -0.01464080 0.05442393
v -0.00482029 -0.01721129 0.05442393
v 0.00077199 -0.01809702 0.05442393
v 0.00636428 -0.01721128 0.05442393
v 0.01140915 -0.01464080 0.05442393
v 0.01541278 -0.01063716 0.05442393
v 0.01798327 -0.00559229 0.05442393
v 0.01886901 0.00000001 0.05442393
v 0.01907077 0.00594563 0.00089848
v 0.01633787 0.01130926 0.00089848
v 0.02229958 0.00699473 0.00670633
v 0.02143442 0.00671363 0.00335317
v 0.01834851 0.01277008 0.00335317
v 0.01908445 0.01330477 0.00670633
v 0.01208126 0.01556587 0.00089848
v 0.01354208 0.01757651 0.00335317
v 0.01407677 0.01831245 0.00670633
v 0.00671763 0.01829877 0.00089848
v 0.00748562 0.02066242 0.00335317
v 0.00776673 0.02152758 0.00670633
v 0.00077199 0.01924047 0.00089848
v 0.00077199 0.02172576 0.00335317
v 0.00077199 0.02263543 0.00670633
v -0.00517364 0.01829877 0.00089848
v -0.00594163 0.02066242 0.00335317
v -0.00622274 0.02152758 0.00670633
v -0.01053727 0.01556586 0.00089848
v -0.01199808 0.01757650 0.00335317
v -0.01253278 0.01831245 0.00670633
v -0.01479387 0.01130926 0.00089848
v -0.01680451 0.01277007 0.00335317
v -0.01754045 0.01330477 0.00670633
v -0.01752678 0.00594563 0.00089848
v -0.01989043 0.00671362 0.00335317
v -0.02075558 0.00699473 0.00670633
v -0.01846847 -0.00000000 0.00089848
v -0.02095376 -0.00000000 0.00335317
v -0.02186344 -0.00000000 0.00670633
v -0.01752678 -0.00594563 0.00089848
v -0.01989043 -0.00671363 0.00335317
v -0.02075558 -0.00699473 0.00670633
v -0.01479387 -0.01130926 0.00089848
v -0.01680451 -0.01277008 0.00335317
v -0.01754045 -0.01330477 0.00670633
v -0.01053727 -0.01556586 0.00089848
v -0.01199808 -0.01757650 0.00335317
v -0.01253278 -0.01831245 0.00670633
v -0.00517364 -0.01829877 0.00089848
v -0.00594163 -0.02066242 0.00335317
v -0.00622274 -0.02152757 0.00670633
v 0.00077199 -0.01924047 0.00089848
v 0.00077199 -0.02172575 0.00335317
v 0.00077199 -0.02263543 0.00670633
v 0.00671762 -0.01829877 0.00089848
v 0.00748562 -0.02066242 0.00335317
v 0.00776672 -0.02152757 0.00670633
v 0.01208125 -0.01556586 0.00089848
v 0.01354207 -0.01757650 0.00335317
v 0.01407676 -0.01831245 0.00670633
v 0.01633785 -0.01130926 0.00089848
v 0.01834849 -0.01277008 0.00335317
v 0.01908444 -0.01330477 0.00670633
v 0.01907076 -0.00594563 0.00089848
v 0.02143441 -0.00671363 0.00335317
v 0.02229956 -0.00699473 0.00670633
v 0.02001246 0.00000000 0.00089848
v 0.02249774 -0.00000000 0.00335317
v 0.02340742 -0.00000000 0.00670633
v 0.01908445 0.01330477 0.03856452
v 0.02229958 0.00699473 0.03856452
v 0.01407677 0.01831245 0.03856452
v 0.00776673 0.02152758 0.03856452
v 0.00077199 0.02263543 0.03856452
v -0.00622274 0.02152758 0.03856452
v -0.01253278 0.01831245 0.03856452
v -0.01754045 0.01330477 0.03856452
v -0.02075558 0.00699473 0.03856452
v -0.02186344 -0.00000000 0.03856452
v -0.02075558 -0.00699473 0.03856452
v -0.01754045 -0.01330477 0.03856452
v -0.01253278 -0.01831245 0.03856452
v -0.00622274 -0.02152757 0.03856452
v 0.00077199 -0.02263543 0.03856452
v 0.00776672 -0.02152757 0.03856452
v 0.01407676 -0.01831245 0.03856452
v 0.01908444 -0.01330477 0.03856452
v 0.02229956 -0.00699473 0.03856452
v 0.02340742 -0.00000000 0.03856452
v 0.02117751 0.00663015 0.04191768
v 0.01812996 0.01261130 0.04191768
v 0.01748051 0.00542893 0.04999108
v 0.01775887 0.00551937 0.04723918
v 0.01522190 0.01049846 0.04723918
v 0.01498512 0.01032643 0.04999108
v 0.01919879 0.00598723 0.04456684
v 0.01644677 0.01138838 0.04456684
v 0.01338330 0.01735797 0.04191768
v 0.01127046 0.01444990 0.04723918
v 0.01109843 0.01421311 0.04999108
v 0.01216038 0.01567477 0.04456684
v 0.00740215 0.02040551 0.04191768
v 0.00629137 0.01698687 0.04723918
v 0.00620092 0.01670852 0.04999108
v 0.00675922 0.01842680 0.04456684
v 0.00077199 0.02145562 0.04191768
v 0.00077199 0.01786105 0.04723918
v 0.00077200 0.01756837 0.04999108
v 0.00077199 0.01937508 0.04456684
v -0.00585816 0.02040551 0.04191768
v -0.00474738 0.01698687 0.04723917
v -0.00465693 0.01670852 0.04999108
v -0.00521523 0.01842680 0.04456683
v -0.01183930 0.01735796 0.04191768
v -0.00972647 0.01444989 0.04723917
v -0.00955443 0.01421311 0.04999108
v -0.01061639 0.01567477 0.04456683
v -0.01658597 0.01261129 0.04191768
v -0.01367790 0.01049846 0.04723917
v -0.01344111 0.01032643 0.04999108
v -0.01490277 0.01138838 0.04456683
v -0.01963351 0.00663015 0.04191768
v -0.01621487 0.00551936 0.04723917
v -0.01593652 0.00542892 0.04999108
v -0.01765480 0.00598722 0.04456683
v -0.02068363 -0.00000000 0.04191768
v -0.01708905 -0.00000000 0.04723917
v -0.01679638 -0.00000000 0.04999108
v -0.01860308 -0.00000000 0.04456683
v -0.01963351 -0.00663015 0.04191768
v -0.01621488 -0.00551937 0.04723918
v -0.01593652 -0.00542893 0.04999108
v -0.01765480 -0.00598723 0.04456684
v -0.01658597 -0.01261130 0.04191768
v -0.01367790 -0.01049846 0.04723918
v -0.01344111 -0.01032643 0.04999108
v -0.01490277 -0.01138838 0.04456684
v -0.01183930 -0.01735796 0.04191768
v -0.00972647 -0.01444989 0.04723918
v -0.00955443 -0.01421311 0.04999108
v -0.01061639 -0.01567477 0.04456684
v -0.00585816 -0.02040551 0.04191768
v -0.00474737 -0.01698687 0.04723918
v -0.00465693 -0.01670852 0.04999108
v -0.00521523 -0.01842679 0.04456684
v 0.00077199 -0.02145562 0.04191768
v 0.00077199 -0.01786105 0.04723918
v 0.00077199 -0.01756837 0.04999108
v 0.00077199 -0.01937507 0.04456684
v 0.00740214 -0.02040551 0.04191768
v 0.00629136 -0.01698687 0.04723918
v 0.00620092 -0.01670851 0.04999108
v 0.00675922 -0.01842679 0.04456684
v 0.01338329 -0.01735796 0.04191768
v 0.01127045 -0.01444989 0.04723918
v 0.01109842 -0.01421311 0.04999108
v 0.01216038 -0.01567477 0.04456684
v 0.01812995 -0.01261130 0.04191768
v 0.01522188 -0.01049846 0.04723918
v 0.01498510 -0.01032643 0.04999108
v 0.01644676 -0.01138838 0.04456684
v 0.02117750 -0.00663015 0.04191768
v 0.01775886 -0.00551937 0.04723918
v 0.01748050 -0.00542893 0.04999108
v 0.01919878 -0.00598723 0.04456684
v 0.02222761 -0.00000000 0.04191768
v 0.01863304 0.00000000 0.04723918
v 0.01834036 0.00000000 0.04999108
v 0.02014706 0.00000000 0.04456684
v 0.01570162 0.01084700 0.04999108
v 0.01588072 0.01097713 0.05020974
v 0.01853336 0.00577102 0.05020974
v 0.01832281 0.00570261 0.04999108
v 0.01161900 0.01492962 0.04999108
v 0.01174913 0.01510872 0.05020974
v 0.01944739 0.00000000 0.05020974
v 0.01922601 0.00000000 0.04999108
v 0.01853335 -0.00577102 0.05020974
v 0.01832280 -0.00570261 0.04999108
v 0.00647460 0.01755082 0.04999108
v 0.00654301 0.01776137 0.05020974
v 0.00077200 0.01845402 0.04999108
v 0.00077200 0.01867541 0.05020974
v -0.00493061 0.01755082 0.04999108
v -0.00499902 0.01776137 0.05020974
v -0.01007500 0.01492961 0.04999108
v -0.01020513 0.01510872 0.05020974
v -0.01415762 0.01084700 0.04999108
v -0.01433672 0.01097712 0.05020974
v -0.01677882 0.00570260 0.04999108
v -0.01698937 0.00577101 0.05020974
v -0.01768202 -0.00000000 0.04999108
v -0.01790341 -0.00000000 0.05020974
v -0.01677882 -0.00570261 0.04999108
v -0.01698937 -0.00577102 0.05020974
v -0.01415762 -0.01084700 0.04999108
v -0.01433672 -0.01097713 0.05020974
v -0.01007500 -0.01492962 0.04999108
v -0.01020513 -0.01510872 0.05020974
v -0.00493061 -0.01755082 0.04999108
v -0.00499902 -0.01776136 0.05020974
v 0.00077199 -0.01845402 0.04999108
v 0.00077199 -0.01867540 0.05020974
v 0.00647460 -0.01755081 0.04999108
v 0.00654301 -0.01776136 0.05020974
v 0.01161899 -0.01492962 0.04999108
v 0.01174912 -0.01510872 0.05020974
v 0.01570160 -0.01084700 0.04999108
v 0.01588071 -0.01097713 0.05020974
v 0.01588072 0.01097713 0.05096565
v 0.01853336 0.00577102 0.05096565
v 0.01944739 0.00000000 0.05096565
v 0.01174913 0.01510872 0.05096565
v 0.00654301 0.01776137 0.05096565
v 0.00077200 0.01867541 0.05096565
v -0.00499902 0.01776137 0.05096565
v -0.01020513 0.01510872 0.05096565
v -0.01433672 0.01097712 0.05096565
v -0.01698937 0.00577101 0.05096565
v -0.01790341 -0.00000000 0.05096565
v -0.01698937 -0.00577102 0.05096565
v -0.01433672 -0.01097713 0.05096565
v -0.01020513 -0.01510872 0.05096565
v -0.00499902 -0.01776136 0.05096565
v 0.00077199 -0.01867540 0.05096565
v 0.00654301 -0.01776136 0.05096565
v 0.01174912 -0.01510872 0.05096565
v 0.01588071 -0.01097713 0.05096565
v 0.01853335 -0.00577102 0.05096565
v 0.01574412 0.01087788 0.05425059
v 0.01164988 0.01497212 0.05425059
v 0.01588072 0.01097713 0.05384334
v 0.01174913 0.01510872 0.05384334
v 0.01837278 0.00571885 0.05425059
v 0.01853336 0.00577102 0.05384334
v 0.01927854 0.00000000 0.05425059
v 0.01944739 0.00000000 0.05384334
v 0.00649084 0.01760078 0.05425059
v 0.00654301 0.01776137 0.05384334
v 0.00077200 0.01850656 0.05425059
v 0.00077200 0.01867541 0.05384334
v -0.00494684 0.01760078 0.05425059
v -0.00499902 0.01776137 0.05384333
v -0.01010588 0.01497212 0.05425059
v -0.01020513 0.01510872 0.05384333
v -0.01420012 0.01087788 0.05425059
v -0.01433672 0.01097712 0.05384333
v -0.01682878 0.00571884 0.05425059
v -0.01698937 0.00577101 0.05384333
v -0.01773456 -0.00000000 0.05425059
v -0.01790341 -0.00000000 0.05384333
v -0.01682878 -0.00571884 0.05425059
v -0.01698937 -0.00577102 0.05384334
v -0.01420012 -0.01087788 0.05425059
v -0.01433672 -0.01097713 0.05384334
v -0.01010588 -0.01497212 0.05425059
v -0.01020513 -0.01510872 0.05384334
v -0.00494684 -0.01760078 0.05425059
v -0.00499902 -0.01776136 0.05384334
v 0.00077199 -0.01850655 0.05425059
v 0.00077199 -0.01867540 0.05384334
v 0.00649083 -0.01760078 0.05425059
v 0.00654301 -0.01776136 0.05384334
v 0.01164987 -0.01497212 0.05425059
v 0.01174912 -0.01510872 0.05384334
v 0.01574411 -0.01087788 0.05425059
v 0.01588071 -0.01097713 0.05384334
v 0.01837277 -0.00571884 0.05425059
v 0.01853335 -0.00577102 0.05384334
v 0.01870148 0.00582565 0.05096565
v 0.01602373 0.01108103 0.05096565
v 0.01602373 0.01108103 0.05164742
v 0.01870148 0.00582565 0.05164742
v 0.01962416 0.00000000 0.05096565
v 0.01962416 0.00000000 0.05164742
v 0.01870147 -0.00582564 0.05096565
v 0.01870147 -0.00582564 0.05164742
v 0.01602372 -0.01108103 0.05096565
v 0.01602372 -0.01108103 0.05164742
v 0.01185302 -0.01525173 0.05096565
v 0.01185302 -0.01525173 0.05164742
v 0.00659763 -0.01792948 0.05096565
v 0.00659763 -0.01792948 0.05164742
v 0.00077199 -0.01885217 0.05096565
v 0.00077199 -0.01885217 0.05164742
v -0.00505365 -0.01792948 0.05096565
v -0.00505365 -0.01792948 0.05164742
v -0.01030903 -0.01525173 0.05096565
v -0.01030903 -0.01525173 0.05164742
v -0.01447973 -0.01108103 0.05096565
v -0.01447973 -0.01108103 0.05164742
v -0.01715749 -0.00582564 0.05096565
v -0.01715749 -0.00582564 0.05164742
v -0.01808018 -0.00000000 0.05096565
v -0.01808018 -0.00000000 0.05164742
v -0.01715749 0.00582564 0.05096565
v -0.01715749 0.00582564 0.05164742
v -0.01447973 0.01108103 0.05096565
v -0.01447973 0.01108103 0.05164742
v -0.01030903 0.01525173 0.05096565
v -0.01030903 0.01525173 0.05164742
v -0.00505365 0.01792949 0.05096565
v -0.00505365 0.01792949 0.05164742
v 0.00077200 0.01885218 0.05096565
v 0.00077200 0.01885218 0.05164742
v 0.00659764 0.01792949 0.05096565
v 0.00659764 0.01792949 0.05164742
v 0.01185303 0.01525173 0.05096565
v 0.01185303 0.01525173 0.05164742
v 0.01853336 0.00577102 0.05164742
v 0.01588072 0.01097713 0.05164742
v 0.01588072 0.01097713 0.05244689
v 0.01853336 0.00577102 0.05244689
v 0.01944739 0.00000000 0.05164742
v 0.01944739 0.00000000 0.05244689
v 0.01853335 -0.00577102 0.05164742
v 0.01853335 -0.00577102 0.05244689
v 0.01588071 -0.01097713 0.05164742
v 0.01588071 -0.01097712 0.05244689
v 0.01174912 -0.01510872 0.05164742
v 0.01174912 -0.01510872 0.05244689
v 0.00654301 -0.01776136 0.05164742
v 0.00654301 -0.01776136 0.05244689
v 0.00077199 -0.01867540 0.05164742
v 0.00077199 -0.01867540 0.05244689
v -0.00499902 -0.01776136 0.05164742
v -0.00499902 -0.01776136 0.05244689
v -0.01020513 -0.01510872 0.05164742
v -0.01020513 -0.01510872 0.05244689
v -0.01433672 -0.01097713 0.05164742
v -0.01433672 -0.01097712 0.05244689
v -0.01698937 -0.00577102 0.05164742
v -0.01698937 -0.00577102 0.05244689
v -0.01790341 -0.00000000 0.05164742
v -0.01790341 -0.00000000 0.05244689
v -0.01698937 0.00577101 0.05164742
v -0.01698937 0.00577101 0.05244689
v -0.01433672 0.01097712 0.05164742
v -0.01433672 0.01097712 0.05244689
v -0.01020513 0.01510872 0.05164742
v -0.01020513 0.01510872 0.05244689
v -0.00499902 0.01776137 0.05164742
v -0.00499902 0.01776137 0.05244689
v 0.00077200 0.01867541 0.05164742
v 0.00077200 0.01867540 0.05244689
v 0.00654301 0.01776137 0.05164742
v 0.00654301 0.01776137 0.05244689
v 0.01174913 0.01510872 0.05164742
v 0.01174913 0.01510872 0.05244689
v 0.01870148 0.00582565 0.05244689
v 0.01602373 0.01108103 0.05244689
v 0.01602373 0.01108103 0.05312866
v 0.01870148 0.00582565 0.05312866
v 0.01962416 0.00000000 0.05244689
v 0.01962416 0.00000000 0.05312866
v 0.01870147 -0.00582564 0.05244689
v 0.01870147 -0.00582564 0.05312866
v 0.01602372 -0.01108103 0.05244689
v 0.01602372 -0.01108103 0.05312866
v 0.01185302 -0.01525173 0.05244689
v 0.01185302 -0.01525173 0.05312866
v 0.00659763 -0.01792948 0.05244689
v 0.00659763 -0.01792948 0.05312866
v 0.00077199 -0.01885217 0.05244689
v 0.00077199 -0.01885217 0.05312866
v -0.00505365 -0.01792948 0.05244689
v -0.00505365 -0.01792948 0.05312866
v -0.01030903 -0.01525173 0.05244689
v -0.01030903 -0.01525173 0.05312866
v -0.01447973 -0.01108103 0.05244689
v -0.01447973 -0.01108103 0.05312866
v -0.01715749 -0.00582564 0.05244689
v -0.01715749 -0.00582564 0.05312866
v -0.01808018 -0.00000000 0.05244689
v -0.01808018 -0.00000000 0.05312866
v -0.01715749 0.00582564 0.05244689
v -0.01715749 0.00582564 0.05312866
v -0.01447973 0.01108103 0.05244689
v -0.01447973 0.01108103 0.05312866
v -0.01030903 0.01525173 0.05244689
v -0.01030903 0.01525173 0.05312866
v -0.00505365 0.01792949 0.05244689
v -0.00505365 0.01792949 0.05312866
v 0.00077200 0.01885217 0.05244689
v 0.00077200 0.01885217 0.05312866
v 0.00659764 0.01792949 0.05244689
v 0.00659764 0.01792949 0.05312866
v 0.01185303 0.01525173 0.05244689
v 0.01185303 0.01525173 0.05312866
v 0.01853336 0.00577102 0.05312866
v 0.01588072 0.01097713 0.05312866
v 0.01944739 0.00000000 0.05312866
v 0.01853335 -0.00577102 0.05312866
v 0.01588071 -0.01097712 0.05312866
v 0.01174912 -0.01510872 0.05312866
v 0.00654301 -0.01776136 0.05312866
v 0.00077199 -0.01867540 0.05312866
v -0.00499902 -0.01776136 0.05312866
v -0.01020513 -0.01510872 0.05312866
v -0.01433672 -0.01097712 0.05312866
v -0.01698937 -0.00577102 0.05312866
v -0.01790341 -0.00000000 0.05312866
v -0.01698937 0.00577101 0.05312866
v -0.01433672 0.01097712 0.05312866
v -0.01020513 0.01510872 0.05312866
v -0.00499902 0.01776137 0.05312866
v 0.00077200 0.01867540 0.05312866
v 0.00654301 0.01776137 0.05312866
v 0.01174913 0.01510872 0.05312866
f 1 2 3
f 4 1 3
f 5 4 3
f 6 5 3
f 7 6 3
f 8 7 3
f 9 8 3
f 10 9 3
f 11 10 3
f 12 11 3
f 13 12 3
f 14 13 3
f 15 14 3
f 16 15 3
f 17 16 3
f 18 17 3
f 19 18 3
f 20 19 3
f 21 20 3
f 2 21 3
f 22 23 24
f 25 26 23
f 23 26 27
f 23 27 28
f 23 28 29
f 23 29 30
f 23 30 31
f 23 31 32
f 23 32 33
f 23 33 34
f 23 34 24
f 35 23 22
f 36 23 35
f 37 23 36
f 38 23 37
f 39 23 38
f 40 23 39
f 41 23 40
f 42 23 41
f 25 23 42
f 43 2 1
f 43 1 44
f 45 46 47
f 45 47 48
f 46 43 44
f 46 44 47
f 44 1 4
f 44 4 49
f 48 47 50
f 48 50 51
f 47 44 49
f 47 49 50
f 49 4 5
f 49 5 52
f 51 50 53
f 51 53 54
f 50 49 52
f 50 52 53
f 52 5 6
f 52 6 55
f 54 53 56
f 54 56 57
f 53 52 55
f 53 55 56
f 55 6 7
f 55 7 58
f 57 56 59
f 57 59 60
f 56 55 58
f 56 58 59
f 58 7 8
f 58 8 61
f 60 59 62
f 60 62 63
f 59 58 61
f 59 61 62
f 61 8 9
f 61 9 64
f 63 62 65
f 63 65 66
f 62 61 64
f 62 64 65
f 64 9 10
f 64 10 67
f 66 65 68
f 66 68 69
f 65 64 67
f 65 67 68
f 67 10 11
f 67 11 70
f 69 68 71
f 69 71 72
f 68 67 70
f 68 70 71
f 70 11 12
f 70 12 73
f 72 71 74
f 72 74 75
f 71 70 73
f 71 73 74
f 73 12 13
f 73 13 76
f 75 74 77
f 75 77 78
f 74 73 76
f 74 76 77
f 76 13 14
f 76 14 79
f 78 77 80
f 78 80 81
f 77 76 79
f 77 79 80
f 79 14 15
f 79 15 82
f 81 80 83
f 81 83 84
f 80 79 82
f 80 82 83
f 82 15 16
f 82 16 85
f 84 83 86
f 84 86 87
f 83 82 85
f 83 85 86
f 85 16 17
f 85 17 88
f 87 86 89
f 87 89 90
f 86 85 88
f 86 88 89
f 88 17 18
f 88 18 91
f 90 89 92
f 90 92 93
f 89 88 91
f 89 91 92
f 91 18 19
f 91 19 94
f 93 92 95
f 93 95 96
f 92 91 94
f 92 94 95
f 94 19 20
f 94 20 97
f 96 95 98
f 96 98 99
f 95 94 97
f 95 97 98
f 97 20 21
f 97 21 100
f 99 98 101
f 99 101 102
f 98 97 100
f 98 100 101
f 2 43 100
f 2 100 21
f 43 46 101
f 43 101 100
f 46 45 102
f 46 102 101
f 45 48 103
f 45 103 104
f 48 51 105
f 48 105 103
f 51 54 106
f 51 106 105
f 54 57 107
f 54 107 106
f 57 60 108
f 57 108 107
f 60 63 109
f 60 109 108
f 63 66 110
f 63 110 109
f 66 69 111
f 66 111 110
f 69 72 112
f 69 112 111
f 72 75 113
f 72 113 112
f 75 78 114
f 75 114 113
f 78 81 115
f 78 115 114
f 81 84 116
f 81 116 115
f 84 87 117
f 84 117 116
f 87 90 118
f 87 118 117
f 90 93 119
f 90 119 118
f 93 96 120
f 93 120 119
f 96 99 121
f 96 121 120
f 99 102 122
f 99 122 121
f 102 45 104
f 102 104 122
f 123 104 103
f 123 103 124
f 125 126 127
f 125 127 128
f 129 123 124
f 129 124 130
f 124 103 105
f 124 105 131
f 128 127 132
f 128 132 133
f 130 124 131
f 130 131 134
f 131 105 106
f 131 106 135
f 133 132 136
f 133 136 137
f 134 131 135
f 134 135 138
f 135 106 107
f 135 107 139
f 137 136 140
f 137 140 141
f 138 135 139
f 138 139 142
f 139 107 108
f 139 108 143
f 141 140 144
f 141 144 145
f 142 139 143
f 142 143 146
f 143 108 109
f 143 109 147
f 145 144 148
f 145 148 149
f 146 143 147
f 146 147 150
f 147 109 110
f 147 110 151
f 149 148 152
f 149 152 153
f 150 147 151
f 150 151 154
f 151 110 111
f 151 111 155
f 153 152 156
f 153 156 157
f 154 151 155
f 154 155 158
f 155 111 112
f 155 112 159
f 157 156 160
f 157 160 161
f 158 155 159
f 158 159 162
f 159 112 113
f 159 113 163
f 161 160 164
f 161 164 165
f 162 159 163
f 162 163 166
f 163 113 114
f 163 114 167
f 165 164 168
f 165 168 169
f 166 163 167
f 166 167 170
f 167 114 115
f 167 115 171
f 169 168 172
f 169 172 173
f 170 167 171
f 170 171 174
f 171 115 116
f 171 116 175
f 173 172 176
f 173 176 177
f 174 171 175
f 174 175 178
f 175 116 117
f 175 117 179
f 177 176 180
f 177 180 181
f 178 175 179
f 178 179 182
f 179 117 118
f 179 118 183
f 181 180 184
f 181 184 185
f 182 179 183
f 182 183 186
f 183 118 119
f 183 119 187
f 185 184 188
f 185 188 189
f 186 183 187
f 186 187 190
f 187 119 120
f 187 120 191
f 189 188 192
f 189 192 193
f 190 187 191
f 190 191 194
f 191 120 121
f 191 121 195
f 193 192 196
f 193 196 197
f 194 191 195
f 194 195 198
f 195 121 122
f 195 122 199
f 197 196 200
f 197 200 201
f 198 195 199
f 198 199 202
f 104 123 199
f 104 199 122
f 123 129 202
f 123 202 199
f 200 126 125
f 200 125 201
f 132 127 130
f 132 130 134
f 136 132 134
f 136 134 138
f 140 136 138
f 140 138 142
f 144 140 142
f 144 142 146
f 148 144 146
f 148 146 150
f 152 148 150
f 152 150 154
f 156 152 154
f 156 154 158
f 160 156 158
f 160 158 162
f 164 160 162
f 164 162 166
f 168 164 166
f 168 166 170
f 172 168 170
f 172 170 174
f 176 172 174
f 176 174 178
f 180 176 178
f 180 178 182
f 184 180 182
f 184 182 186
f 188 184 186
f 188 186 190
f 192 188 190
f 192 190 194
f 196 192 194
f 196 194 198
f 200 196 198
f 200 198 202
f 129 126 200
f 129 200 202
f 127 126 129
f 127 129 130
f 203 204 205
f 203 205 206
f 204 203 207
f 204 207 208
f 206 205 209
f 206 209 210
f 210 209 211
f 210 211 212
f 208 207 213
f 208 213 214
f 214 213 215
f 214 215 216
f 216 215 217
f 216 217 218
f 218 217 219
f 218 219 220
f 220 219 221
f 220 221 222
f 222 221 223
f 222 223 224
f 224 223 225
f 224 225 226
f 226 225 227
f 226 227 228
f 228 227 229
f 228 229 230
f 230 229 231
f 230 231 232
f 232 231 233
f 232 233 234
f 234 233 235
f 234 235 236
f 236 235 237
f 236 237 238
f 238 237 239
f 238 239 240
f 240 239 241
f 240 241 242
f 242 241 212
f 242 212 211
f 125 128 203
f 125 203 206
f 201 125 206
f 201 206 210
f 128 133 207
f 128 207 203
f 133 137 213
f 133 213 207
f 137 141 215
f 137 215 213
f 141 145 217
f 141 217 215
f 145 149 219
f 145 219 217
f 149 153 221
f 149 221 219
f 153 157 223
f 153 223 221
f 157 161 225
f 157 225 223
f 161 165 227
f 161 227 225
f 165 169 229
f 165 229 227
f 169 173 231
f 169 231 229
f 173 177 233
f 173 233 231
f 177 181 235
f 177 235 233
f 181 185 237
f 181 237 235
f 185 189 239
f 185 239 237
f 189 193 241
f 189 241 239
f 193 197 212
f 193 212 241
f 197 201 210
f 197 210 212
f 205 204 243
f 205 243 244
f 209 205 244
f 209 244 245
f 204 208 246
f 204 246 243
f 208 214 247
f 208 247 246
f 214 216 248
f 214 248 247
f 216 218 249
f 216 249 248
f 218 220 250
f 218 250 249
f 220 222 251
f 220 251 250
f 222 224 252
f 222 252 251
f 224 226 253
f 224 253 252
f 226 228 254
f 226 254 253
f 228 230 255
f 228 255 254
f 230 232 256
f 230 256 255
f 232 234 257
f 232 257 256
f 234 236 258
f 234 258 257
f 236 238 259
f 236 259 258
f 238 240 260
f 238 260 259
f 240 242 261
f 240 261 260
f 242 211 262
f 242 262 261
f 211 209 245
f 211 245 262
f 26 263 264
f 26 264 27
f 263 265 266
f 263 266 264
f 265 263 267
f 265 267 268
f 263 26 25
f 263 25 267
f 268 267 269
f 268 269 270
f 267 25 42
f 267 42 269
f 27 264 271
f 27 271 28
f 264 266 272
f 264 272 271
f 28 271 273
f 28 273 29
f 271 272 274
f 271 274 273
f 29 273 275
f 29 275 30
f 273 274 276
f 273 276 275
f 30 275 277
f 30 277 31
f 275 276 278
f 275 278 277
f 31 277 279
f 31 279 32
f 277 278 280
f 277 280 279
f 32 279 281
f 32 281 33
f 279 280 282
f 279 282 281
f 33 281 283
f 33 283 34
f 281 282 284
f 281 284 283
f 34 283 285
f 34 285 24
f 283 284 286
f 283 286 285
f 24 285 287
f 24 287 22
f 285 286 288
f 285 288 287
f 22 287 289
f 22 289 35
f 287 288 290
f 287 290 289
f 35 289 291
f 35 291 36
f 289 290 292
f 289 292 291
f 36 291 293
f 36 293 37
f 291 292 294
f 291 294 293
f 37 293 295
f 37 295 38
f 293 294 296
f 293 296 295
f 38 295 297
f 38 297 39
f 295 296 298
f 295 298 297
f 39 297 299
f 39 299 40
f 297 298 300
f 297 300 299
f 40 299 301
f 40 301 41
f 299 300 302
f 299 302 301
f 270 269 301
f 270 301 302
f 269 42 41
f 269 41 301
f 303 304 305
f 303 305 306
f 307 303 306
f 307 306 308
f 309 307 308
f 309 308 310
f 311 309 310
f 311 310 312
f 313 311 312
f 313 312 314
f 315 313 314
f 315 314 316
f 317 315 316
f 317 316 318
f 319 317 318
f 319 318 320
f 321 319 320
f 321 320 322
f 323 321 322
f 323 322 324
f 325 323 324
f 325 324 326
f 327 325 326
f 327 326 328
f 329 327 328
f 329 328 330
f 331 329 330
f 331 330 332
f 333 331 332
f 333 332 334
f 335 333 334
f 335 334 336
f 337 335 336
f 337 336 338
f 339 337 338
f 339 338 340
f 341 339 340
f 341 340 342
f 304 341 342
f 304 342 305
f 343 344 345
f 343 345 346
f 347 343 346
f 347 346 348
f 349 347 348
f 349 348 350
f 351 349 350
f 351 350 352
f 353 351 352
f 353 352 354
f 355 353 354
f 355 354 356
f 357 355 356
f 357 356 358
f 359 357 358
f 359 358 360
f 361 359 360
f 361 360 362
f 363 361 362
f 363 362 364
f 365 363 364
f 365 364 366
f 367 365 366
f 367 366 368
f 369 367 368
f 369 368 370
f 371 369 370
f 371 370 372
f 373 371 372
f 373 372 374
f 375 373 374
f 375 374 376
f 377 375 376
f 377 376 378
f 379 377 378
f 379 378 380
f 381 379 380
f 381 380 382
f 344 381 382
f 344 382 345
f 383 384 385
f 383 385 386
f 387 383 386
f 387 386 388
f 389 387 388
f 389 388 390
f 391 389 390
f 391 390 392
f 393 391 392
f 393 392 394
f 395 393 394
f 395 394 396
f 397 395 396
f 397 396 398
f 399 397 398
f 399 398 400
f 401 399 400
f 401 400 402
f 403 401 402
f 403 402 404
f 405 403 404
f 405 404 406
f 407 405 406
f 407 406 408
f 409 407 408
f 409 408 410
f 411 409 410
f 411 410 412
f 413 411 412
f 413 412 414
f 415 413 414
f 415 414 416
f 417 415 416
f 417 416 418
f 419 417 418
f 419 418 420
f 421 419 420
f 421 420 422
f 384 421 422
f 384 422 385
f 423 424 265
f 423 265 268
f 425 423 268
f 425 268 270
f 426 425 270
f 426 270 302
f 427 426 302
f 427 302 300
f 428 427 300
f 428 300 298
f 429 428 298
f 429 298 296
f 430 429 296
f 430 296 294
f 431 430 294
f 431 294 292
f 432 431 292
f 432 292 290
f 433 432 290
f 433 290 288
f 434 433 288
f 434 288 286
f 435 434 286
f 435 286 284
f 436 435 284
f 436 284 282
f 437 436 282
f 437 282 280
f 438 437 280
f 438 280 278
f 439 438 278
f 439 278 276
f 440 439 276
f 440 276 274
f 441 440 274
f 441 274 272
f 442 441 272
f 442 272 266
f 424 442 266
f 424 266 265
f 244 243 304
f 244 304 303
f 344 343 306
f 344 306 305
f 245 244 303
f 245 303 307
f 343 347 308
f 343 308 306
f 262 245 307
f 262 307 309
f 347 349 310
f 347 310 308
f 261 262 309
f 261 309 311
f 349 351 312
f 349 312 310
f 260 261 311
f 260 311 313
f 351 353 314
f 351 314 312
f 259 260 313
f 259 313 315
f 353 355 316
f 353 316 314
f 258 259 315
f 258 315 317
f 355 357 318
f 355 318 316
f 257 258 317
f 257 317 319
f 357 359 320
f 357 320 318
f 256 257 319
f 256 319 321
f 359 361 322
f 359 322 320
f 255 256 321
f 255 321 323
f 361 363 324
f 361 324 322
f 254 255 323
f 254 323 325
f 363 365 326
f 363 326 324
f 253 254 325
f 253 325 327
f 365 367 328
f 365 328 326
f 252 253 327
f 252 327 329
f 367 369 330
f 367 330 328
f 251 252 329
f 251 329 331
f 369 371 332
f 369 332 330
f 250 251 331
f 250 331 333
f 371 373 334
f 371 334 332
f 249 250 333
f 249 333 335
f 373 375 336
f 373 336 334
f 248 249 335
f 248 335 337
f 375 377 338
f 375 338 336
f 247 248 337
f 247 337 339
f 377 379 340
f 377 340 338
f 246 247 339
f 246 339 341
f 379 381 342
f 379 342 340
f 243 246 341
f 243 341 304
f 381 344 305
f 381 305 342
f 346 345 384
f 346 384 383
f 424 423 386
f 424 386 385
f 348 346 383
f 348 383 387
f 423 425 388
f 423 388 386
f 350 348 387
f 350 387 389
f 425 426 390
f 425 390 388
f 352 350 389
f 352 389 391
f 426 427 392
f 426 392 390
f 354 352 391
f 354 391 393
f 427 428 394
f 427 394 392
f 356 354 393
f 356 393 395
f 428 429 396
f 428 396 394
f 358 356 395
f 358 395 397
f 429 430 398
f 429 398 396
f 360 358 397
f 360 397 399
f 430 431 400
f 430 400 398
f 362 360 399
f 362 399 401
f 431 432 402
f 431 402 400
f 364 362 401
f 364 401 403
f 432 433 404
f 432 404 402
f 366 364 403
f 366 403 405
f 433 434 406
f 433 406 404
f 368 366 405
f 368 405 407
f 434 435 408
f 434 408 406
f 370 368 407
f 370 407 409
f 435 436 410
f 435 410 408
f 372 370 409
f 372 409 411
f 436 437 412
f 436 412 410
f 374 372 411
f 374 411 413
f 437 438 414
f 437 414 412
f 376 374 413
f 376 413 415
f 438 439 416
f 438 416 414
f 378 376 415
f 378 415 417
f 439 440 418
f 439 418 416
f 380 378 417
f 380 417 419
f 440 441 420
f 440 420 418
f 382 380 419
f 382 419 421
f 441 442 422
f 441 422 420
f 345 382 421
f 345 421 384
f 442 424 385
f 442 385 422