# https://github.com/mikedh/trimesh
v 0.01102503 0.00012346 0.00000000
v 0.01542637 -0.00307432 0.00032575
v 0.00934379 -0.00505075 0.00032530
v 0.04403896 -0.02386240 0.02522000
v 0.04183487 -0.02226101 0.02049975
v 0.04623621 -0.01906322 0.02386177
v 0.00558438 0.00012346 0.00032575
v 0.00934379 0.00529767 0.00032530
v 0.01542637 0.00332125 0.00032575
v 0.04727553 -0.02226101 0.02930242
v -0.00158497 -0.03868653 0.02522000
v 0.00365814 -0.03929333 0.02386177
v 0.00093804 -0.04126976 0.02930242
v -0.02978238 0.00012346 0.02522000
v -0.02873896 -0.00505075 0.02386223
v -0.03145952 -0.00307432 0.02930242
v -0.00158497 0.03893346 0.02522000
v -0.00618340 0.03634248 0.02386177
v -0.00514454 0.03954026 0.02930242
v 0.04403896 0.02410933 0.02522000
v 0.04015363 0.02768214 0.02386177
v 0.04351611 0.02768214 0.02930242
v 0.04351611 -0.02743522 0.02930242
v -0.00514454 -0.03929333 0.02930242
v -0.03145952 0.00332125 0.02930242
v 0.00093804 0.04151669 0.02930242
v 0.04727553 0.02250793 0.02930242
v 0.02363503 -0.03868653 0.06602786
v 0.02823347 -0.03609555 0.06738609
v 0.02279327 -0.03609555 0.07074857
v -0.02198890 -0.02386240 0.06602786
v -0.01810357 -0.02743522 0.06738609
v -0.01978481 -0.02226101 0.07074812
v -0.02198890 0.02410933 0.06602786
v -0.02418615 0.01931015 0.06738609
v -0.01978481 0.02250793 0.07074812
v 0.02363503 0.03893346 0.06602786
v 0.01839193 0.03954026 0.06738609
v 0.02279327 0.03634248 0.07074857
v 0.05183244 0.00012346 0.06602786
v 0.05078902 0.00529767 0.06738563
v 0.04910824 0.00012346 0.07074812
v 0.01646523 0.00012346 0.09092211
v 0.01270627 0.00529767 0.09092256
v 0.01102503 0.00012346 0.09124786
v 0.02248348 0.00012346 0.08978561
v 0.01860773 0.00563255 0.09027470
v 0.02880331 0.00012346 0.08764129
v 0.02503934 0.00589580 0.08865688
v 0.03501090 0.00012346 0.08443393
v 0.03161831 0.00604226 0.08590302
v 0.04065595 0.00012346 0.08031637
v 0.03784187 0.00604226 0.08205692
v 0.04539993 0.00012346 0.07562212
v 0.04324739 0.00589580 0.07740374
v 0.04757071 0.00563255 0.07237461
v 0.01456591 0.01102074 0.08978561
v 0.02084513 0.01166814 0.08865688
v 0.01651861 0.01703169 0.08764129
v 0.02753177 0.01211617 0.08643134
v 0.02301774 0.01787984 0.08590347
v 0.01843710 0.02293543 0.08443393
v 0.03414405 0.01227768 0.08303145
v 0.02972856 0.01835479 0.08303145
v 0.02494079 0.02379863 0.08205692
v 0.02018130 0.02830400 0.08031637
v 0.04014177 0.01211617 0.07863786
v 0.03611865 0.01835479 0.07908224
v 0.03142851 0.02410933 0.07863786
v 0.02647193 0.02898471 0.07740374
v 0.02164720 0.03281575 0.07562258
v 0.04512299 0.01166814 0.07365254
v 0.04168842 0.01787984 0.07436427
v 0.03738791 0.02379909 0.07436427
v 0.03254128 0.02898471 0.07365254
v 0.02755778 0.03317800 0.07237461
v 0.04894080 0.01102074 0.06854083
v 0.04614953 0.01703169 0.06932876
v 0.04242296 0.02293543 0.06961026
v 0.03796003 0.02830400 0.06932876
v 0.03310565 0.03281575 0.06854083
v 0.02823347 0.03634248 0.06738609
v 0.00662369 0.00332125 0.09092211
v 0.00812883 0.00903747 0.09027470
v 0.00986573 0.01523548 0.08865688
v 0.01175958 0.02153797 0.08590347
v 0.01368263 0.02745676 0.08205692
v 0.01549207 0.03255204 0.07740374
v 0.01707842 0.03658292 0.07237461
v 0.00175516 0.00685847 0.08978561
v 0.00308008 0.01303047 0.08865688
v -0.00335791 0.01057317 0.08764129
v 0.00471981 0.01952823 0.08643134
v -0.00215663 0.01701618 0.08590347
v -0.00837974 0.01422171 0.08443393
v 0.00660955 0.02586677 0.08303145
v -0.00053470 0.02354542 0.08303145
v -0.00719123 0.02067431 0.08205692
v -0.01294669 0.01753994 0.08031637
v 0.00861655 0.03152094 0.07863786
v 0.00143990 0.02962253 0.07908224
v -0.00548170 0.02694030 0.07863786
v -0.01165052 0.02373294 0.07740374
v -0.01678503 0.02032848 0.07562258
v 0.01058202 0.03611983 0.07365254
v 0.00361297 0.03477301 0.07436427
v -0.00334514 0.03251189 0.07436427
v -0.00977492 0.02950527 0.07365254
v -0.01530317 0.02606113 0.07237461
v 0.01237733 0.03955075 0.06854083
v 0.00579836 0.03875370 0.06932876
v -0.00096813 0.03703368 0.06961026
v -0.00745312 0.03444817 0.06932876
v -0.01324416 0.03122575 0.06854083
v -0.01810357 0.02768214 0.06738609
v 0.00662369 -0.00307432 0.09092211
v 0.00165251 0.00012346 0.09027470
v -0.00370557 0.00369080 0.08865688
v -0.00911428 0.00743926 0.08590302
v -0.01414934 0.01109739 0.08205692
v -0.01843616 0.01439326 0.07740374
v -0.02177949 0.01714758 0.07237461
v 0.00175516 -0.00661154 0.08978561
v -0.00370557 -0.00344387 0.08865688
v -0.00335791 -0.01032624 0.08764129
v -0.00937845 0.00012346 0.08643134
v -0.00911428 -0.00719233 0.08590302
v -0.00837974 -0.01397479 0.08443393
v -0.01482275 0.00387923 0.08303145
v -0.01482275 -0.00363230 0.08303145
v -0.01414934 -0.01085046 0.08205692
v -0.01294669 -0.01729301 0.08031637
v -0.01958041 0.00753553 0.07863786
v -0.01999240 0.00012346 0.07908224
v -0.01958041 -0.00728860 0.07863786
v -0.01843616 -0.01414633 0.07740374
v -0.01678503 -0.02008155 0.07562258
v -0.02334621 0.01082593 0.07365254
v -0.02421900 0.00378159 0.07436427
v -0.02421900 -0.00353466 0.07436427
v -0.02334621 -0.01057900 0.07365254
v -0.02177949 -0.01690065 0.07237461
v -0.02605491 0.01359347 0.06854083
v -0.02778496 0.00012346 0.06961026
v -0.02968748 -0.00519309 0.06542745
v -0.02970938 -0.00606770 0.06515371
v -0.01790419 -0.00392977 0.05785753
v -0.01788275 -0.00305515 0.05813173
v -0.02914273 -0.00886810 0.06520025
v -0.02885028 -0.00954470 0.06545346
v -0.01704555 -0.00740677 0.05815728
v -0.01733800 -0.00673016 0.05790407
v -0.02526059 -0.01112238 0.07087176
v -0.02493803 -0.01063192 0.07151870
v -0.01313330 -0.00849353 0.06422253
v -0.01345586 -0.00898398 0.06357558
v -0.02605491 -0.01334655 0.06854083
v -0.02418615 -0.01906322 0.06738609
v 0.01270627 -0.00505075 0.09092256
v 0.00812883 -0.00879054 0.09027470
v 0.00308008 -0.01278355 0.08865688
v -0.00215663 -0.01676925 0.08590347
v -0.00719123 -0.02042738 0.08205692
v -0.01165052 -0.02348601 0.07740374
v -0.01530317 -0.02581420 0.07237461
v 0.01456591 -0.01077381 0.08978561
v 0.00986573 -0.01498855 0.08865688
v 0.01651861 -0.01678476 0.08764129
v 0.00471981 -0.01928131 0.08643134
v 0.01175958 -0.02129104 0.08590347
v 0.01843710 -0.02268850 0.08443393
v -0.00053470 -0.02329849 0.08303145
v 0.00660955 -0.02561984 0.08303145
v 0.01368263 -0.02720983 0.08205692
v 0.02018130 -0.02805707 0.08031637
v -0.00548170 -0.02669337 0.07863786
v 0.00143990 -0.02937560 0.07908224
v 0.00861655 -0.03127401 0.07863786
v 0.01549207 -0.03230511 0.07740374
v 0.02164720 -0.03256882 0.07562258
v -0.00977492 -0.02925835 0.07365254
v -0.00334514 -0.03226496 0.07436427
v 0.00361297 -0.03452608 0.07436427
v 0.01058202 -0.03587290 0.07365254
v 0.01707842 -0.03633599 0.07237461
v -0.01324416 -0.03097883 0.06854083
v -0.00745312 -0.03420124 0.06932876
v -0.00096813 -0.03678675 0.06961026
v 0.00579836 -0.03850677 0.06932876
v 0.01237733 -0.03930383 0.06854083
v 0.01839193 -0.03929333 0.06738609
v 0.01860773 -0.00538563 0.09027470
v 0.02084513 -0.01142121 0.08865688
v 0.02301774 -0.01763291 0.08590347
v 0.02494079 -0.02355171 0.08205692
v 0.02647193 -0.02873778 0.07740374
v 0.02755778 -0.03293107 0.07237461
v 0.02503934 -0.00564888 0.08865688
v 0.02753177 -0.01186924 0.08643134
v 0.03161831 -0.00579533 0.08590302
v 0.02972856 -0.01810786 0.08303145
v 0.03414405 -0.01203075 0.08303145
v 0.03784187 -0.00579533 0.08205692
v 0.03142851 -0.02386240 0.07863786
v 0.03611865 -0.01810786 0.07908224
v 0.04014177 -0.01186924 0.07863786
v 0.04324739 -0.00564888 0.07740374
v 0.03254128 -0.02873778 0.07365254
v 0.03738791 -0.02355216 0.07436427
v 0.04168842 -0.01763291 0.07436427
v 0.04512299 -0.01142121 0.07365254
v 0.04757071 -0.00538563 0.07237461
v 0.03310565 -0.03256882 0.06854083
v 0.03796003 -0.02805707 0.06932876
v 0.04242296 -0.02268850 0.06961026
v 0.04614953 -0.01678476 0.06932876
v 0.04894080 -0.01077381 0.06854083
v 0.05078902 -0.00505075 0.06738563
v 0.05350958 0.00332125 0.06194544
v 0.05467025 0.00685847 0.05708238
v 0.05225720 0.00903747 0.06300209
v 0.05503889 0.01057317 0.05155002
v 0.05306794 0.01303047 0.05776263
v 0.05441613 0.01422171 0.04562393
v 0.05294704 0.01701618 0.05184749
v 0.05277549 0.01753994 0.03969784
v 0.05175853 0.02067431 0.04562393
v 0.05029355 0.02032848 0.03416548
v 0.04959048 0.02373294 0.03955458
v 0.04672576 0.02606113 0.03403865
v 0.05003304 0.01523548 0.06383198
v 0.05034374 0.01952823 0.05823438
v 0.04672348 0.02153797 0.06429461
v 0.04965299 0.02354542 0.05201402
v 0.04645795 0.02586677 0.05840410
v 0.04242296 0.02745676 0.06429461
v 0.04793570 0.02694030 0.04562393
v 0.04523751 0.02962298 0.05201402
v 0.04163048 0.03152140 0.05823438
v 0.03745178 0.03255250 0.06383244
v 0.04539673 0.02950527 0.03955458
v 0.04315751 0.03251235 0.04562393
v 0.04004596 0.03477301 0.05184749
v 0.03629248 0.03611983 0.05776309
v 0.03224381 0.03658292 0.06300209
v 0.04237597 0.03122621 0.03416548
v 0.04049079 0.03444817 0.03969784
v 0.03784232 0.03703414 0.04562393
v 0.03456470 0.03875416 0.05155002
v 0.03091752 0.03955121 0.05708238
v 0.02719461 0.03954026 0.06194544
v 0.02111203 0.04151669 0.06194544
v 0.01810678 0.04371348 0.05708238
v 0.01528859 0.04209200 0.06300209
v 0.01468772 0.04521223 0.05155002
v 0.01174133 0.04409718 0.05776263
v 0.01102503 0.04574739 0.04562393
v 0.00791302 0.04521360 0.05184749
v 0.00736234 0.04521223 0.03969784
v 0.00406693 0.04521360 0.04562393
v 0.00394329 0.04371348 0.03416548
v 0.00048819 0.04409718 0.03955458
v -0.00261150 0.04209200 0.03403865
v 0.00870642 0.04189217 0.06383244
v 0.00471981 0.04351456 0.05823438
v 0.00168946 0.04069181 0.06429461
v 0.00068574 0.04409854 0.05201402
v -0.00250931 0.04177720 0.05840410
v -0.00526819 0.03843114 0.06429461
v -0.00307368 0.04351456 0.04562393
v -0.00645851 0.04177720 0.05201402
v -0.00937890 0.03893346 0.05823438
v -0.01165052 0.03527761 0.06383244
v -0.00629746 0.04189217 0.03955458
v -0.00984928 0.04069226 0.04562393
v -0.01296084 0.03843114 0.05184749
v -0.01540172 0.03527761 0.05776263
v -0.01709300 0.03157067 0.06300209
v -0.00886746 0.03955121 0.03416548
v -0.01251464 0.03875416 0.03969784
v -0.01579226 0.03703414 0.04562393
v -0.01844073 0.03444817 0.05155002
v -0.02032591 0.03122621 0.05708238
v -0.02146605 0.02768214 0.06194544
v -0.02522546 0.02250793 0.06194544
v -0.02824348 0.02032848 0.05708238
v -0.02757190 0.01714758 0.06300209
v -0.03072542 0.01753994 0.05155002
v -0.03057487 0.01439326 0.05776263
v -0.03236606 0.01422171 0.04562393
v -0.03282002 0.01109739 0.05184749
v -0.03298883 0.01057317 0.03969784
v -0.03400852 0.00743972 0.04562393
v -0.03262019 0.00685847 0.03416548
v -0.03405232 0.00369080 0.03955458
v -0.03310335 0.00012346 0.03403865
v -0.02941602 0.01082593 0.06383198
v -0.03219041 0.00753553 0.05823438
v -0.03044256 0.00378159 0.06429461
v -0.03399301 0.00387923 0.05201402
v -0.03277257 0.00012346 0.05840410
v -0.03044256 -0.00353466 0.06429461
v -0.02960399 -0.00450189 0.06576644
v -0.01779880 -0.00236395 0.05847026
v -0.03399256 -0.00363230 0.05201402
v -0.03219041 -0.00728860 0.05823438
v -0.02941602 -0.01057900 0.06383244
v -0.02946210 -0.00387365 0.06619576
v -0.01765691 -0.00173571 0.05890004
v -0.02469622 -0.01007577 0.07204384
v -0.01289103 -0.00793783 0.06474766
v -0.03405232 -0.00344387 0.03955458
v -0.03400852 -0.00719279 0.04562393
v -0.03282002 -0.01085046 0.05184749
v -0.03057487 -0.01414633 0.05776263
v -0.02757190 -0.01690065 0.06300209
v -0.03262019 -0.00661154 0.03416548
v -0.03298883 -0.01032624 0.03969784
v -0.03236606 -0.01397479 0.04562393
v -0.03072542 -0.01729301 0.05155002
v -0.02824348 -0.02008155 0.05708238
v -0.02522546 -0.02226101 0.06194544
v -0.02146605 -0.02743522 0.06194544
v -0.02032591 -0.03097928 0.05708238
v -0.01709300 -0.03132374 0.06300209
v -0.01844073 -0.03420124 0.05155002
v -0.01540172 -0.03503069 0.05776263
v -0.01579226 -0.03678721 0.04562393
v -0.01296084 -0.03818421 0.05184749
v -0.01251464 -0.03850723 0.03969784
v -0.00984928 -0.04044533 0.04562393
v -0.00886746 -0.03930428 0.03416548
v -0.00629746 -0.04164524 0.03955458
v -0.00261150 -0.04184508 0.03403865
v -0.01165052 -0.03503069 0.06383244
v -0.00937890 -0.03868653 0.05823438
v -0.00526819 -0.03818421 0.06429461
v -0.00645851 -0.04153027 0.05201402
v -0.00250931 -0.04153027 0.05840410
v 0.00168946 -0.04044488 0.06429461
v -0.00307368 -0.04326763 0.04562393
v 0.00068574 -0.04385162 0.05201402
v 0.00471981 -0.04326763 0.05823438
v 0.00870642 -0.04164524 0.06383244
v 0.00048819 -0.04385025 0.03955458
v 0.00406693 -0.04496667 0.04562393
v 0.00791302 -0.04496667 0.05184749
v 0.01174133 -0.04385025 0.05776263
v 0.01528859 -0.04184508 0.06300209
v 0.00394329 -0.04346655 0.03416548
v 0.00736234 -0.04496530 0.03969784
v 0.01102503 -0.04550047 0.04562393
v 0.01468772 -0.04496530 0.05155002
v 0.01810678 -0.04346655 0.05708238
v 0.02111203 -0.04126976 0.06194544
v 0.02719461 -0.03929333 0.06194544
v 0.03091752 -0.03930428 0.05708238
v 0.03224381 -0.03633599 0.06300209
v 0.03456470 -0.03850723 0.05155002
v 0.03629248 -0.03587290 0.05776263
v 0.03784232 -0.03678721 0.04562393
v 0.04004596 -0.03452608 0.05184749
v 0.04049079 -0.03420124 0.03969784
v 0.04315751 -0.03226542 0.04562393
v 0.04237597 -0.03097928 0.03416548
v 0.04539673 -0.02925835 0.03955458
v 0.04672576 -0.02581465 0.03403865
v 0.03745178 -0.03230557 0.06383244
v 0.04163048 -0.03127447 0.05823438
v 0.04242296 -0.02720983 0.06429461
v 0.04523751 -0.02937606 0.05201402
v 0.04645795 -0.02561984 0.05840410
v 0.04672348 -0.02129104 0.06429461
v 0.04793570 -0.02669337 0.04562393
v 0.04965299 -0.02329849 0.05201402
v 0.05034374 -0.01928131 0.05823393
v 0.05003304 -0.01498855 0.06383198
v 0.04959048 -0.02348601 0.03955458
v 0.05175808 -0.02042738 0.04562393
v 0.05294704 -0.01676971 0.05184749
v 0.05306794 -0.01278355 0.05776263
v 0.05225720 -0.00879054 0.06300209
v 0.05029355 -0.02008155 0.03416548
v 0.05277549 -0.01729301 0.03969784
v 0.05441613 -0.01397479 0.04562393
v 0.05503889 -0.01032624 0.05155002
v 0.05467025 -0.00661154 0.05708238
v 0.05350958 -0.00307432 0.06194544
v 0.02466157 0.04209200 0.05720921
v 0.02834753 0.04189217 0.05169328
v 0.03189935 0.04069226 0.04562393
v 0.03501090 0.03843114 0.03940037
v 0.03745178 0.03527761 0.03348477
v 0.03914306 0.03157067 0.02824578
v 0.02156188 0.04409718 0.05169328
v 0.02512374 0.04351456 0.04562393
v 0.01798314 0.04521360 0.04562393
v 0.02850858 0.04177720 0.03923384
v 0.02136433 0.04409854 0.03923384
v 0.01413704 0.04521360 0.03940037
v 0.03142897 0.03893346 0.03301348
v 0.02455937 0.04177720 0.03284376
v 0.01733026 0.04351410 0.03301348
v 0.01030874 0.04409718 0.03348523
v 0.03370058 0.03527761 0.02741542
v 0.02731825 0.03843114 0.02695325
v 0.02036060 0.04069181 0.02695325
v 0.01334364 0.04189217 0.02741542
v 0.00676148 0.04209200 0.02824578
v 0.03529423 0.03122575 0.02270703
v 0.02950318 0.03444817 0.02191911
v 0.02301820 0.03703368 0.02163760
v 0.01625171 0.03875370 0.02191911
v 0.00967274 0.03955075 0.02270703
v 0.00365814 0.03954026 0.02386177
v -0.02467569 0.02606158 0.05720921
v -0.02334667 0.02950527 0.05169328
v -0.02110744 0.03251235 0.04562393
v -0.01799589 0.03477301 0.03940037
v -0.01424241 0.03611983 0.03348523
v -0.01019374 0.03658292 0.02824578
v -0.02754042 0.02373294 0.05169328
v -0.02588564 0.02694030 0.04562393
v -0.02970801 0.02067431 0.04562393
v -0.02318744 0.02962298 0.03923384
v -0.02760293 0.02354542 0.03923384
v -0.03089697 0.01701664 0.03940037
v -0.01958041 0.03152140 0.03301348
v -0.02440788 0.02586677 0.03284376
v -0.02829367 0.01952823 0.03301348
v -0.03101787 0.01303047 0.03348523
v -0.01540126 0.03255250 0.02741542
v -0.02037290 0.02745722 0.02695325
v -0.02467296 0.02153797 0.02695325
v -0.02798297 0.01523548 0.02741588
v -0.03020714 0.00903747 0.02824578
v -0.01105558 0.03281575 0.02270703
v -0.01590997 0.02830400 0.02191911
v -0.02037290 0.02293543 0.02163760
v -0.02409946 0.01703169 0.02191911
v -0.02689073 0.01102074 0.02270703
v -0.02873896 0.00529767 0.02386223
v -0.02467569 -0.02581465 0.05720921
v -0.02754042 -0.02348601 0.05169328
v -0.02970801 -0.02042738 0.04562393
v -0.03089697 -0.01676971 0.03940037
v -0.03101787 -0.01278355 0.03348523
v -0.03020714 -0.00879054 0.02824578
v -0.02334667 -0.02925835 0.05169328
v -0.02588564 -0.02669337 0.04562393
v -0.02110744 -0.03226542 0.04562393
v -0.02760293 -0.02329849 0.03923384
v -0.02318744 -0.02937606 0.03923384
v -0.01799589 -0.03452608 0.03940037
v -0.02829367 -0.01928131 0.03301348
v -0.02440788 -0.02561984 0.03284376
v -0.01958041 -0.03127447 0.03301348
v -0.01424241 -0.03587290 0.03348523
v -0.02798297 -0.01498855 0.02741588
v -0.02467296 -0.02129104 0.02695325
v -0.02037290 -0.02721029 0.02695325
v -0.01540126 -0.03230557 0.02741542
v -0.01019374 -0.03633599 0.02824578
v -0.02689073 -0.01077381 0.02270703
v -0.02409946 -0.01678476 0.02191911
v -0.02037290 -0.02268850 0.02163760
v -0.01590997 -0.02805707 0.02191911
v -0.01105558 -0.03256882 0.02270703
v -0.00618340 -0.03609555 0.02386177
v 0.02466157 -0.04184508 0.05720921
v 0.02156188 -0.04385025 0.05169328
v 0.01798314 -0.04496667 0.04562393
v 0.01413704 -0.04496667 0.03940037
v 0.01030874 -0.04385025 0.03348523
v 0.00676148 -0.04184508 0.02824578
v 0.02834753 -0.04164524 0.05169328
v 0.02512374 -0.04326763 0.04562393
v 0.03189935 -0.04044533 0.04562393
v 0.02136433 -0.04385162 0.03923384
v 0.02850858 -0.04153027 0.03923384
v 0.03501090 -0.03818421 0.03940037
v 0.01733026 -0.04326717 0.03301348
v 0.02455937 -0.04153027 0.03284376
v 0.03142897 -0.03868653 0.03301348
v 0.03745178 -0.03503069 0.03348523
v 0.01334364 -0.04164524 0.02741542
v 0.02036060 -0.04044488 0.02695325
v 0.02731825 -0.03818421 0.02695325
v 0.03370058 -0.03503069 0.02741542
v 0.03914306 -0.03132374 0.02824578
v 0.00967274 -0.03930383 0.02270703
v 0.01625171 -0.03850677 0.02191911
v 0.02301820 -0.03678675 0.02163760
v 0.02950318 -0.03420124 0.02191911
v 0.03529423 -0.03097883 0.02270703
v 0.04015363 -0.02743522 0.02386177
v 0.05515341 0.00012346 0.05720921
v 0.05610239 -0.00344387 0.05169328
v 0.05605859 -0.00719279 0.04562393
v 0.05487009 -0.01085046 0.03940037
v 0.05262493 -0.01414633 0.03348523
v 0.04962196 -0.01690065 0.02824578
v 0.05610239 0.00369080 0.05169328
v 0.05664896 0.00012346 0.04562393
v 0.05605859 0.00743972 0.04562393
v 0.05604308 -0.00363230 0.03923384
v 0.05604308 0.00387923 0.03923384
v 0.05487009 0.01109739 0.03940037
v 0.05424048 -0.00728860 0.03301348
v 0.05482264 0.00012346 0.03284376
v 0.05424048 0.00753553 0.03301348
v 0.05262493 0.01439326 0.03348523
v 0.05146608 -0.01057900 0.02741588
v 0.05249262 -0.00353466 0.02695325
v 0.05249262 0.00378159 0.02695325
v 0.05146608 0.01082593 0.02741588
v 0.04962196 0.01714758 0.02824578
v 0.04810497 -0.01334655 0.02270703
v 0.04937970 -0.00684285 0.02191911
v 0.04983503 0.00012346 0.02163760
v 0.04937970 0.00708978 0.02191911
v 0.04810497 0.01359347 0.02270703
v 0.04623621 0.01931015 0.02386177
v 0.04183487 0.02250793 0.02049975
v 0.03883510 0.02032848 0.01562528
v 0.03735323 0.02606113 0.01887325
v 0.03499676 0.01753994 0.01093149
v 0.03370058 0.02373294 0.01384412
v 0.03042980 0.01422171 0.00681393
v 0.02924130 0.02067431 0.00919094
v 0.02540798 0.01057317 0.00360657
v 0.02420670 0.01701618 0.00534484
v 0.02029490 0.00685847 0.00146225
v 0.01896998 0.01303047 0.00259098
v 0.01392124 0.00903747 0.00097316
v 0.03182498 0.02950527 0.01759533
v 0.02753177 0.02694030 0.01261000
v 0.02539520 0.03251189 0.01688359
v 0.02258477 0.02354542 0.00821641
v 0.02061016 0.02962253 0.01216562
v 0.01843710 0.03477301 0.01688359
v 0.01733026 0.01952823 0.00481652
v 0.01544052 0.02586677 0.00821641
v 0.01343352 0.03152140 0.01261000
v 0.01146804 0.03611983 0.01759533
v 0.01218434 0.01523548 0.00259098
v 0.01029049 0.02153797 0.00534484
v 0.00836744 0.02745676 0.00919094
v 0.00655754 0.03255250 0.01384412
v 0.00497165 0.03658292 0.01887325
v 0.00748416 0.01102074 0.00146225
v 0.00553146 0.01703169 0.00360657
v 0.00361297 0.02293543 0.00681393
v 0.00186877 0.02830400 0.01093149
v 0.00040287 0.03281575 0.01562528
v -0.00074320 0.03634248 0.02049929
v -0.00550771 0.03317800 0.01887325
v -0.00442186 0.02898471 0.01384412
v -0.00289072 0.02379863 0.00919094
v -0.00096767 0.01787984 0.00534439
v 0.00120448 0.01166814 0.00259098
v 0.00344234 0.00563255 0.00097316
v -0.01049121 0.02898471 0.01759533
v -0.00937845 0.02410933 0.01261000
v -0.01533784 0.02379863 0.01688359
v -0.00767850 0.01835479 0.00821641
v -0.01406859 0.01835479 0.01216562
v -0.01963835 0.01787984 0.01688359
v -0.00548170 0.01211617 0.00481652
v -0.01209398 0.01227768 0.00821641
v -0.01809170 0.01211617 0.01261000
v -0.02307292 0.01166814 0.01759533
v -0.00298927 0.00589580 0.00259098
v -0.00956870 0.00604226 0.00534484
v -0.01579180 0.00604226 0.00919094
v -0.02119733 0.00589580 0.01384412
v -0.02552065 0.00563255 0.01887325
v -0.00043342 0.00012346 0.00146225
v -0.00675324 0.00012346 0.00360657
v -0.01296084 0.00012346 0.00681393
v -0.01860589 0.00012346 0.01093149
v -0.02334986 0.00012346 0.01562574
v -0.02705818 0.00012346 0.02049975
v -0.02552065 -0.00538563 0.01887325
v -0.02119733 -0.00564888 0.01384412
v -0.01579180 -0.00579533 0.00919094
v -0.00956870 -0.00579533 0.00534484
v -0.00298927 -0.00564888 0.00259098
v 0.00344234 -0.00538563 0.00097316
v -0.02307292 -0.01142121 0.01759533
v -0.01809170 -0.01186924 0.01261000
v -0.01963835 -0.01763291 0.01688359
v -0.01209398 -0.01203075 0.00821641
v -0.01406859 -0.01810786 0.01216562
v -0.01533784 -0.02355171 0.01688359
v -0.00548170 -0.01186924 0.00481652
v -0.00767850 -0.01810831 0.00821641
v -0.00937845 -0.02386240 0.01261000
v -0.01049121 -0.02873778 0.01759533
v 0.00120448 -0.01142121 0.00259098
v -0.00096767 -0.01763291 0.00534484
v -0.00289072 -0.02355216 0.00919094
v -0.00442186 -0.02873778 0.01384412
v -0.00550771 -0.03293107 0.01887325
v 0.00748416 -0.01077381 0.00146225
v 0.00553146 -0.01678476 0.00360657
v 0.00361297 -0.02268850 0.00681393
v 0.00186877 -0.02805707 0.01093149
v 0.00040287 -0.03256882 0.01562528
v -0.00074320 -0.03609555 0.02049929
v 0.04382955 0.01714758 0.01887325
v 0.04539628 0.01082593 0.01759533
v 0.04626906 0.00378159 0.01688359
v 0.04626906 -0.00353466 0.01688359
v 0.04539628 -0.01057900 0.01759533
v 0.04382955 -0.01690065 0.01887325
v 0.04048623 0.01439326 0.01384412
v 0.04163048 0.00753553 0.01261000
v 0.03619940 0.01109739 0.00919094
v 0.04204246 0.00012346 0.01216562
v 0.03687281 0.00387923 0.00821641
v 0.03116435 0.00743926 0.00534484
v 0.04163048 -0.00728860 0.01261000
v 0.03687281 -0.00363230 0.00821641
v 0.03142851 0.00012346 0.00481652
v 0.02575563 0.00369080 0.00259098
v 0.04048623 -0.01414633 0.01384412
v 0.03619940 -0.01085046 0.00919094
v 0.03116435 -0.00719279 0.00534484
v 0.02575563 -0.00344387 0.00259098
v 0.02039756 0.00012346 0.00097316
v 0.03883510 -0.02008155 0.01562528
v 0.03499676 -0.01729301 0.01093149
v 0.03042980 -0.01397479 0.00681393
v 0.02540798 -0.01032624 0.00360657
v 0.02029490 -0.00661154 0.00146225
v 0.00497165 -0.03633599 0.01887325
v 0.00655799 -0.03230511 0.01384412
v 0.00836744 -0.02720983 0.00919094
v 0.01029049 -0.02129104 0.00534439
v 0.01218434 -0.01498855 0.00259098
v 0.01392124 -0.00879054 0.00097316
v 0.01146804 -0.03587290 0.01759533
v 0.01343352 -0.03127447 0.01261000
v 0.01843710 -0.03452608 0.01688359
v 0.01544052 -0.02561984 0.00821641
v 0.02061016 -0.02937560 0.01216562
v 0.02539520 -0.03226496 0.01688359
v 0.01733026 -0.01928131 0.00481652
v 0.02258477 -0.02329849 0.00821641
v 0.02753177 -0.02669337 0.01261000
v 0.03182498 -0.02925835 0.01759533
v 0.01896998 -0.01278355 0.00259098
v 0.02420670 -0.01676925 0.00534484
v 0.02924130 -0.02042738 0.00919094
v 0.03370058 -0.02348601 0.01384412
v 0.03735323 -0.02581420 0.01887325
v -0.02429200 0.00532505 0.07388431
v -0.02467843 0.00429760 0.07356904
v -0.02395255 0.01025015 0.07294765
v -0.02381431 0.00925509 0.07347141
v -0.02397217 0.00660799 0.07401433
v -0.02380428 0.00799314 0.07386788
v -0.02417976 0.01103808 0.07236047
v -0.02619041 0.01286805 0.06862432
v -0.02562148 0.01276312 0.06956418
v -0.02454566 0.01180000 0.07155840
v -0.02504570 0.01240680 0.07058615
v -0.02709741 0.00154009 0.07042419
v -0.02766087 0.00144336 0.06953315
v -0.02514242 0.00338558 0.07307722
v -0.02643495 0.00188957 0.07140328
v -0.02574922 0.00253104 0.07233583
v -0.02970436 0.00338558 0.06569618
v -0.02993659 0.00429760 0.06506155
v -0.02820562 0.00153963 0.06863162
v -0.02931245 0.00253104 0.06657033
v -0.02878504 0.00188957 0.06760052
v -0.02677622 0.01276312 0.06769542
v -0.02905605 0.01025015 0.06468972
v -0.02863265 0.01103808 0.06515553
v -0.02743320 0.01240680 0.06672317
v -0.02807878 0.01180000 0.06584126
v -0.02946301 0.00925509 0.06433202
v -0.03004563 0.00532505 0.06457474
v -0.02981340 0.00799314 0.06414542
v -0.03001917 0.00660799 0.06423028
v -0.02383393 -0.00919157 0.07338427
v -0.02395575 -0.00999957 0.07294308
v -0.02468117 -0.00405386 0.07356403
v -0.02435724 -0.00488924 0.07383594
v -0.02379287 -0.00818922 0.07375337
v -0.02406890 -0.00591258 0.07399335
v -0.02386906 -0.00705501 0.07397190
v -0.02505665 -0.00329514 0.07317166
v -0.02765995 -0.00120282 0.06953269
v -0.02719915 -0.00126807 0.07026541
v -0.02553525 -0.00255740 0.07260547
v -0.02666353 -0.00149938 0.07107205
v -0.02608912 -0.00193463 0.07188233
v -0.02572002 -0.01254356 0.06939856
v -0.02619086 -0.01261474 0.06862523
v -0.02413596 -0.01065428 0.07246951
v -0.02523504 -0.01230267 0.07024260
v -0.02441016 -0.01130487 0.07184583
v -0.02478382 -0.01187791 0.07108528
v -0.02871067 -0.01065428 0.06506748
v -0.02905376 -0.00999957 0.06469473
v -0.02667219 -0.01254356 0.06785784
v -0.02827542 -0.01130487 0.06559170
v -0.02721056 -0.01230267 0.06704665
v -0.02776215 -0.01187791 0.06626602
v -0.02810889 -0.00126807 0.06879313
v -0.02993340 -0.00405386 0.06506566
v -0.02975044 -0.00329514 0.06557710
v -0.02859114 -0.00149938 0.06795319
v -0.02945799 -0.00255740 0.06625827
v -0.02905924 -0.00193463 0.06707721
v -0.03003149 -0.00488924 0.06465458
v -0.02939366 -0.00919157 0.06438814
v -0.03004381 -0.00591304 0.06432609
v -0.02970528 -0.00818922 0.06418648
v -0.02993522 -0.00705501 0.06415683
v -0.02444757 -0.00886810 0.07279663
v -0.02454338 -0.00954470 0.07242206
v -0.02768231 -0.00208838 0.06954684
v -0.02730911 -0.00214268 0.07015546
v -0.02604897 -0.01168766 0.06942411
v -0.02643678 -0.01174606 0.06877671
v -0.02684237 -0.01168766 0.06814025
v -0.02516022 -0.00450189 0.07295586
v -0.02489469 -0.00519309 0.07318261
v -0.02465927 -0.00606770 0.07332450
v -0.02449228 -0.00704634 0.07330853
v -0.02442294 -0.00801585 0.07311873
v -0.02548095 -0.00387365 0.07263695
v -0.02589933 -0.00324541 0.07216018
v -0.02637655 -0.00271298 0.07154425
v -0.02686336 -0.00234068 0.07084895
v -0.02564383 -0.01148463 0.07014999
v -0.02858019 -0.01007577 0.06575914
v -0.02821885 -0.01063192 0.06621036
v -0.02778451 -0.01112238 0.06678796
v -0.02731002 -0.01148463 0.06745361
v -0.02806007 -0.00214268 0.06894095
v -0.02848073 -0.00234068 0.06823150
v -0.02888496 -0.00271298 0.06748555
v -0.02922257 -0.00324541 0.06678294
v -0.02962041 -0.00704634 0.06501091
v -0.02941967 -0.00801585 0.06503372
v -0.02484541 0.00559469 0.07322276
v -0.02516113 0.00474654 0.07296042
v -0.02643814 0.01199755 0.06877762
v -0.02597004 0.01191132 0.06956235
v -0.02722972 0.00241059 0.07028549
v -0.02768459 0.00233075 0.06954821
v -0.02814083 0.00241059 0.06881138
v -0.02885256 0.00979711 0.06545209
v -0.02851905 0.01043447 0.06583214
v -0.02960809 0.00474699 0.06576507
v -0.02970163 0.00559469 0.06536541
v -0.02454338 0.00979711 0.07242434
v -0.02443571 0.00896584 0.07286826
v -0.02443708 0.00788729 0.07321591
v -0.02458171 0.00669605 0.07334138
v -0.02473409 0.01043447 0.07195624
v -0.02505528 0.01108781 0.07127690
v -0.02548506 0.01160838 0.07044335
v -0.02555486 0.00399329 0.07256030
v -0.02608456 0.00326193 0.07193115
v -0.02667311 0.00271080 0.07112999
v -0.02942606 0.00399329 0.06629613
v -0.02910030 0.00326193 0.06705121
v -0.02864726 0.00271080 0.06793586
v -0.02693088 0.01191132 0.06800794
v -0.02750164 0.01160838 0.06718033
v -0.02805551 0.01108781 0.06642342
v -0.02920159 0.00896584 0.06515690
v -0.02951274 0.00788729 0.06500315
v -0.02969022 0.00669605 0.06507661
v -0.01788457 0.00455811 0.05777997
v -0.01770755 0.00574935 0.05770697
v -0.01463295 0.00985961 0.06148144
v -0.01416440 0.00977384 0.06226617
v -0.01335594 0.00260906 0.06566424
v -0.01374922 0.00185580 0.06526366
v -0.01739594 0.00682836 0.05786072
v -0.01304022 0.00345675 0.06592658
v -0.01367941 0.00947044 0.06314717
v -0.01292890 0.00829654 0.06466006
v -0.01325009 0.00894987 0.06398072
v -0.01563212 0.00490075 0.06209919
v -0.01273774 0.00765917 0.06512816
v -0.01263189 0.00574935 0.06591928
v -0.01263006 0.00682836 0.06557208
v -0.01277652 0.00455811 0.06604520
v -0.01486746 0.00057286 0.06383381
v -0.01427891 0.00112400 0.06463497
v -0.01587894 0.00019281 0.06225203
v -0.01542407 0.00027265 0.06298931
v -0.01704692 0.00765917 0.05815591
v -0.01624986 0.00894987 0.05912679
v -0.01671386 0.00829654 0.05853596
v -0.01512524 0.00977384 0.06071176
v -0.01569645 0.00947044 0.05988369
v -0.01780291 0.00260906 0.05846889
v -0.01789598 0.00345675 0.05806923
v -0.01684161 0.00057286 0.06063968
v -0.01633518 0.00027265 0.06151475
v -0.01762087 0.00185580 0.05899995
v -0.01729511 0.00112400 0.05975503
v -0.01587712 0.00004955 0.06225066
v -0.01505817 -0.00020275 0.06355277
v -0.01550437 -0.00000474 0.06285928
v -0.01409414 -0.00110747 0.06486445
v -0.01457136 -0.00057504 0.06424808
v -0.01335548 -0.00236395 0.06566014
v -0.01367622 -0.00173571 0.06534077
v -0.01563303 -0.00465382 0.06209964
v -0.01285453 -0.00392977 0.06602832
v -0.01308995 -0.00305515 0.06588643
v -0.01261774 -0.00587791 0.06582301
v -0.01268709 -0.00490840 0.06601281
v -0.01273865 -0.00740677 0.06512634
v -0.01264284 -0.00673016 0.06550091
v -0.01424378 -0.00954972 0.06212839
v -0.01383864 -0.00934624 0.06285381
v -0.01463158 -0.00960812 0.06148098
v -0.01741784 -0.00110747 0.05948722
v -0.01667599 -0.00020275 0.06093578
v -0.01708022 -0.00057504 0.06018937
v -0.01625489 -0.00000474 0.06164477
v -0.01761493 -0.00587791 0.05773800
v -0.01781568 -0.00490840 0.05771518
v -0.01550528 -0.00934624 0.06015743
v -0.01503718 -0.00954972 0.06084453
v -0.01641411 -0.00849353 0.05891418
v -0.01597931 -0.00898398 0.05949224
v -0.01677545 -0.00793783 0.05846296
v -0.03413353 0.00378935 0.04982863
v -0.03413262 0.00295215 0.05044729
v -0.03414448 0.00561385 0.04566089
v -0.03414129 0.00553036 0.04669700
v -0.03413536 0.00458640 0.04893942
v -0.03413810 0.00519639 0.04784217
v -0.03417414 -0.00348995 0.04160629
v -0.03417961 -0.00263450 0.04099265
v -0.03414448 -0.00536692 0.04566134
v -0.03415133 -0.00526016 0.04466127
v -0.03415908 -0.00491296 0.04355352
v -0.03416730 -0.00429704 0.04248364
v -0.03415133 0.00550709 0.04466127
v -0.03417961 0.00288097 0.04099265
v -0.03417414 0.00373688 0.04160629
v -0.03415908 0.00515989 0.04355352
v -0.03416730 0.00454397 0.04248318
v -0.03413080 -0.00173936 0.05090627
v -0.03413262 -0.00270522 0.05044729
v -0.03413080 0.00198629 0.05090627
v -0.03412988 -0.00053170 0.05119233
v -0.03412988 0.00077862 0.05119233
v -0.03418235 0.00193017 0.04055557
v -0.03418235 -0.00168324 0.04055557
v -0.03418372 0.00075718 0.04028639
v -0.03418372 -0.00051025 0.04028639
v -0.03414129 -0.00528343 0.04669700
v -0.03413353 -0.00354242 0.04982863
v -0.03413810 -0.00494946 0.04784262
v -0.03413536 -0.00433947 0.04893942
v -0.03417825 0.00339698 0.04939749
v -0.03417551 0.00265240 0.04994725
v -0.03418691 -0.00478430 0.04566910
v -0.03419513 -0.00468986 0.04478034
v -0.03421931 0.00258853 0.04149679
v -0.03421566 0.00335045 0.04204336
v -0.03417505 -0.00154546 0.05035604
v -0.03417551 -0.00240547 0.04994725
v -0.03421931 -0.00234160 0.04149679
v -0.03422296 -0.00149573 0.04110807
v -0.03418509 -0.00471039 0.04659161
v -0.03418691 0.00503123 0.04566864
v -0.03418509 0.00495732 0.04659161
v -0.03418418 0.00465803 0.04761770
v -0.03418189 0.00411145 0.04860135
v -0.03421566 -0.00310352 0.04204336
v -0.03421155 -0.00382666 0.04282901
v -0.03420425 -0.00437916 0.04378802
v -0.03419513 0.00493679 0.04478034
v -0.03420425 0.00462609 0.04378802
v -0.03421155 0.00407358 0.04282901
v -0.03417505 0.00179239 0.05035604
v -0.03417642 0.00071110 0.05061291
v -0.03417642 -0.00046417 0.05061291
v -0.03422296 0.00174266 0.04110762
v -0.03422661 0.00069148 0.04086672
v -0.03422661 -0.00044455 0.04086672
v -0.03417825 -0.00315005 0.04939749
v -0.03418189 -0.00386452 0.04860135
v -0.03418418 -0.00441110 0.04761770
v -0.01662900 -0.00046417 0.05054766
v -0.01662763 -0.00154546 0.05029080
v -0.01663767 0.00495732 0.04652637
v -0.01663676 0.00465803 0.04755245
v -0.01662900 0.00071110 0.05054766
v -0.01663949 0.00503123 0.04560340
v -0.01662763 0.00179239 0.05029080
v -0.01663767 -0.00471039 0.04652637
v -0.01663949 -0.00478430 0.04560340
v -0.01667143 0.00258853 0.04143155
v -0.01666413 0.00407358 0.04276331
v -0.01666824 0.00335045 0.04197767
v -0.01664771 0.00493679 0.04471510
v -0.01665683 0.00462609 0.04372278
v -0.01705148 0.00012346 0.04555869
v -0.01663083 0.00339698 0.04933224
v -0.01663447 0.00411145 0.04853565
v -0.01662809 0.00265240 0.04988201
v -0.01662809 -0.00240547 0.04988201
v -0.01667143 -0.00234160 0.04143155
v -0.01667919 -0.00044455 0.04080102
v -0.01667554 -0.00149573 0.04104238
v -0.01667554 0.00174266 0.04104238
v -0.01667919 0.00069148 0.04080102
v -0.01665683 -0.00437916 0.04372278
v -0.01664725 -0.00468986 0.04471510
v -0.01666824 -0.00310352 0.04197767
v -0.01666413 -0.00382666 0.04276331
v -0.01663083 -0.00315005 0.04933224
v -0.01663676 -0.00441110 0.04755245
v -0.01663447 -0.00386452 0.04853565
f 1 2 3
f 4 5 6
f 1 3 7
f 1 7 8
f 1 8 9
f 4 6 10
f 11 12 13
f 14 15 16
f 17 18 19
f 20 21 22
f 4 10 23
f 11 13 24
f 14 16 25
f 17 19 26
f 20 22 27
f 28 29 30
f 31 32 33
f 34 35 36
f 37 38 39
f 40 41 42
f 43 44 45
f 46 47 43
f 48 49 46
f 50 51 48
f 52 53 50
f 54 55 52
f 42 56 54
f 43 47 44
f 47 57 44
f 46 49 47
f 49 58 47
f 47 58 57
f 58 59 57
f 48 51 49
f 51 60 49
f 49 60 58
f 60 61 58
f 58 61 59
f 61 62 59
f 50 53 51
f 53 63 51
f 51 63 60
f 63 64 60
f 60 64 61
f 64 65 61
f 61 65 62
f 65 66 62
f 52 55 53
f 55 67 53
f 53 67 63
f 67 68 63
f 63 68 64
f 68 69 64
f 64 69 65
f 69 70 65
f 65 70 66
f 70 71 66
f 54 56 55
f 56 72 55
f 55 72 67
f 72 73 67
f 67 73 68
f 73 74 68
f 68 74 69
f 74 75 69
f 69 75 70
f 75 76 70
f 70 76 71
f 76 39 71
f 42 41 56
f 41 77 56
f 56 77 72
f 77 78 72
f 72 78 73
f 78 79 73
f 73 79 74
f 79 80 74
f 74 80 75
f 80 81 75
f 75 81 76
f 81 82 76
f 76 82 39
f 82 37 39
f 44 83 45
f 57 84 44
f 59 85 57
f 62 86 59
f 66 87 62
f 71 88 66
f 39 89 71
f 44 84 83
f 84 90 83
f 57 85 84
f 85 91 84
f 84 91 90
f 91 92 90
f 59 86 85
f 86 93 85
f 85 93 91
f 93 94 91
f 91 94 92
f 94 95 92
f 62 87 86
f 87 96 86
f 86 96 93
f 96 97 93
f 93 97 94
f 97 98 94
f 94 98 95
f 98 99 95
f 66 88 87
f 88 100 87
f 87 100 96
f 100 101 96
f 96 101 97
f 101 102 97
f 97 102 98
f 102 103 98
f 98 103 99
f 103 104 99
f 71 89 88
f 89 105 88
f 88 105 100
f 105 106 100
f 100 106 101
f 106 107 101
f 101 107 102
f 107 108 102
f 102 108 103
f 108 109 103
f 103 109 104
f 109 36 104
f 39 38 89
f 38 110 89
f 89 110 105
f 110 111 105
f 105 111 106
f 111 112 106
f 106 112 107
f 112 113 107
f 107 113 108
f 113 114 108
f 108 114 109
f 114 115 109
f 109 115 36
f 115 34 36
f 83 116 45
f 90 117 83
f 92 118 90
f 95 119 92
f 99 120 95
f 104 121 99
f 36 122 104
f 83 117 116
f 117 123 116
f 90 118 117
f 118 124 117
f 117 124 123
f 124 125 123
f 92 119 118
f 119 126 118
f 118 126 124
f 126 127 124
f 124 127 125
f 127 128 125
f 95 120 119
f 120 129 119
f 119 129 126
f 129 130 126
f 126 130 127
f 130 131 127
f 127 131 128
f 131 132 128
f 99 121 120
f 121 133 120
f 120 133 129
f 133 134 129
f 129 134 130
f 134 135 130
f 130 135 131
f 135 136 131
f 131 136 132
f 136 137 132
f 104 122 121
f 122 138 121
f 121 138 133
f 138 139 133
f 133 139 134
f 139 140 134
f 134 140 135
f 140 141 135
f 135 141 136
f 141 142 136
f 136 142 137
f 142 33 137
f 36 35 122
f 35 143 122
f 122 143 138
f 139 144 140
f 141 157 142
f 157 158 142
f 142 158 33
f 158 31 33
f 116 159 45
f 123 160 116
f 125 161 123
f 128 162 125
f 132 163 128
f 137 164 132
f 33 165 137
f 116 160 159
f 160 166 159
f 123 161 160
f 161 167 160
f 160 167 166
f 167 168 166
f 125 162 161
f 162 169 161
f 161 169 167
f 169 170 167
f 167 170 168
f 170 171 168
f 128 163 162
f 163 172 162
f 162 172 169
f 172 173 169
f 169 173 170
f 173 174 170
f 170 174 171
f 174 175 171
f 132 164 163
f 164 176 163
f 163 176 172
f 176 177 172
f 172 177 173
f 177 178 173
f 173 178 174
f 178 179 174
f 174 179 175
f 179 180 175
f 137 165 164
f 165 181 164
f 164 181 176
f 181 182 176
f 176 182 177
f 182 183 177
f 177 183 178
f 183 184 178
f 178 184 179
f 184 185 179
f 179 185 180
f 185 30 180
f 33 32 165
f 32 186 165
f 165 186 181
f 186 187 181
f 181 187 182
f 187 188 182
f 182 188 183
f 188 189 183
f 183 189 184
f 189 190 184
f 184 190 185
f 190 191 185
f 185 191 30
f 191 28 30
f 159 43 45
f 166 192 159
f 168 193 166
f 171 194 168
f 175 195 171
f 180 196 175
f 30 197 180
f 159 192 43
f 192 46 43
f 166 193 192
f 193 198 192
f 192 198 46
f 198 48 46
f 168 194 193
f 194 199 193
f 193 199 198
f 199 200 198
f 198 200 48
f 200 50 48
f 171 195 194
f 195 201 194
f 194 201 199
f 201 202 199
f 199 202 200
f 202 203 200
f 200 203 50
f 203 52 50
f 175 196 195
f 196 204 195
f 195 204 201
f 204 205 201
f 201 205 202
f 205 206 202
f 202 206 203
f 206 207 203
f 203 207 52
f 207 54 52
f 180 197 196
f 197 208 196
f 196 208 204
f 208 209 204
f 204 209 205
f 209 210 205
f 205 210 206
f 210 211 206
f 206 211 207
f 211 212 207
f 207 212 54
f 212 42 54
f 30 29 197
f 29 213 197
f 197 213 208
f 213 214 208
f 208 214 209
f 214 215 209
f 209 215 210
f 215 216 210
f 210 216 211
f 216 217 211
f 211 217 212
f 217 218 212
f 212 218 42
f 218 40 42
f 219 41 40
f 220 221 219
f 222 223 220
f 224 225 222
f 226 227 224
f 228 229 226
f 27 230 228
f 219 221 41
f 221 77 41
f 220 223 221
f 223 231 221
f 221 231 77
f 231 78 77
f 222 225 223
f 225 232 223
f 223 232 231
f 232 233 231
f 231 233 78
f 233 79 78
f 224 227 225
f 227 234 225
f 225 234 232
f 234 235 232
f 232 235 233
f 235 236 233
f 233 236 79
f 236 80 79
f 226 229 227
f 229 237 227
f 227 237 234
f 237 238 234
f 234 238 235
f 238 239 235
f 235 239 236
f 239 240 236
f 236 240 80
f 240 81 80
f 228 230 229
f 230 241 229
f 229 241 237
f 241 242 237
f 237 242 238
f 242 243 238
f 238 243 239
f 243 244 239
f 239 244 240
f 244 245 240
f 240 245 81
f 245 82 81
f 27 22 230
f 22 246 230
f 230 246 241
f 246 247 241
f 241 247 242
f 247 248 242
f 242 248 243
f 248 249 243
f 243 249 244
f 249 250 244
f 244 250 245
f 250 251 245
f 245 251 82
f 251 37 82
f 252 38 37
f 253 254 252
f 255 256 253
f 257 258 255
f 259 260 257
f 261 262 259
f 26 263 261
f 252 254 38
f 254 110 38
f 253 256 254
f 256 264 254
f 254 264 110
f 264 111 110
f 255 258 256
f 258 265 256
f 256 265 264
f 265 266 264
f 264 266 111
f 266 112 111
f 257 260 258
f 260 267 258
f 258 267 265
f 267 268 265
f 265 268 266
f 268 269 266
f 266 269 112
f 269 113 112
f 259 262 260
f 262 270 260
f 260 270 267
f 270 271 267
f 267 271 268
f 271 272 268
f 268 272 269
f 272 273 269
f 269 273 113
f 273 114 113
f 261 263 262
f 263 274 262
f 262 274 270
f 274 275 270
f 270 275 271
f 275 276 271
f 271 276 272
f 276 277 272
f 272 277 273
f 277 278 273
f 273 278 114
f 278 115 114
f 26 19 263
f 19 279 263
f 263 279 274
f 279 280 274
f 274 280 275
f 280 281 275
f 275 281 276
f 281 282 276
f 276 282 277
f 282 283 277
f 277 283 278
f 283 284 278
f 278 284 115
f 284 34 115
f 285 35 34
f 286 287 285
f 288 289 286
f 290 291 288
f 292 293 290
f 294 295 292
f 25 296 294
f 285 287 35
f 287 143 35
f 286 289 287
f 289 297 287
f 287 297 143
f 288 291 289
f 291 298 289
f 289 298 297
f 298 299 297
f 290 293 291
f 293 300 291
f 291 300 298
f 300 301 298
f 298 301 299
f 301 302 299
f 299 302 144
f 292 295 293
f 300 305 301
f 305 306 301
f 301 306 302
f 306 307 302
f 294 296 295
f 296 312 295
f 313 314 305
f 305 314 306
f 314 315 306
f 306 315 307
f 315 316 307
f 307 316 157
f 316 158 157
f 25 16 296
f 16 317 296
f 296 317 312
f 317 318 312
f 312 318 313
f 318 319 313
f 313 319 314
f 319 320 314
f 314 320 315
f 320 321 315
f 315 321 316
f 321 322 316
f 316 322 158
f 322 31 158
f 323 32 31
f 324 325 323
f 326 327 324
f 328 329 326
f 330 331 328
f 332 333 330
f 24 334 332
f 323 325 32
f 325 186 32
f 324 327 325
f 327 335 325
f 325 335 186
f 335 187 186
f 326 329 327
f 329 336 327
f 327 336 335
f 336 337 335
f 335 337 187
f 337 188 187
f 328 331 329
f 331 338 329
f 329 338 336
f 338 339 336
f 336 339 337
f 339 340 337
f 337 340 188
f 340 189 188
f 330 333 331
f 333 341 331
f 331 341 338
f 341 342 338
f 338 342 339
f 342 343 339
f 339 343 340
f 343 344 340
f 340 344 189
f 344 190 189
f 332 334 333
f 334 345 333
f 333 345 341
f 345 346 341
f 341 346 342
f 346 347 342
f 342 347 343
f 347 348 343
f 343 348 344
f 348 349 344
f 344 349 190
f 349 191 190
f 24 13 334
f 13 350 334
f 334 350 345
f 350 351 345
f 345 351 346
f 351 352 346
f 346 352 347
f 352 353 347
f 347 353 348
f 353 354 348
f 348 354 349
f 354 355 349
f 349 355 191
f 355 28 191
f 356 29 28
f 357 358 356
f 359 360 357
f 361 362 359
f 363 364 361
f 365 366 363
f 23 367 365
f 356 358 29
f 358 213 29
f 357 360 358
f 360 368 358
f 358 368 213
f 368 214 213
f 359 362 360
f 362 369 360
f 360 369 368
f 369 370 368
f 368 370 214
f 370 215 214
f 361 364 362
f 364 371 362
f 362 371 369
f 371 372 369
f 369 372 370
f 372 373 370
f 370 373 215
f 373 216 215
f 363 366 364
f 366 374 364
f 364 374 371
f 374 375 371
f 371 375 372
f 375 376 372
f 372 376 373
f 376 377 373
f 373 377 216
f 377 217 216
f 365 367 366
f 367 378 366
f 366 378 374
f 378 379 374
f 374 379 375
f 379 380 375
f 375 380 376
f 380 381 376
f 376 381 377
f 381 382 377
f 377 382 217
f 382 218 217
f 23 10 367
f 10 383 367
f 367 383 378
f 383 384 378
f 378 384 379
f 384 385 379
f 379 385 380
f 385 386 380
f 380 386 381
f 386 387 381
f 381 387 382
f 387 388 382
f 382 388 218
f 388 40 218
f 251 252 37
f 250 389 251
f 249 390 250
f 248 391 249
f 247 392 248
f 246 393 247
f 22 394 246
f 251 389 252
f 389 253 252
f 250 390 389
f 390 395 389
f 389 395 253
f 395 255 253
f 249 391 390
f 391 396 390
f 390 396 395
f 396 397 395
f 395 397 255
f 397 257 255
f 248 392 391
f 392 398 391
f 391 398 396
f 398 399 396
f 396 399 397
f 399 400 397
f 397 400 257
f 400 259 257
f 247 393 392
f 393 401 392
f 392 401 398
f 401 402 398
f 398 402 399
f 402 403 399
f 399 403 400
f 403 404 400
f 400 404 259
f 404 261 259
f 246 394 393
f 394 405 393
f 393 405 401
f 405 406 401
f 401 406 402
f 406 407 402
f 402 407 403
f 407 408 403
f 403 408 404
f 408 409 404
f 404 409 261
f 409 26 261
f 22 21 394
f 21 410 394
f 394 410 405
f 410 411 405
f 405 411 406
f 411 412 406
f 406 412 407
f 412 413 407
f 407 413 408
f 413 414 408
f 408 414 409
f 414 415 409
f 409 415 26
f 415 17 26
f 284 285 34
f 283 416 284
f 282 417 283
f 281 418 282
f 280 419 281
f 279 420 280
f 19 421 279
f 284 416 285
f 416 286 285
f 283 417 416
f 417 422 416
f 416 422 286
f 422 288 286
f 282 418 417
f 418 423 417
f 417 423 422
f 423 424 422
f 422 424 288
f 424 290 288
f 281 419 418
f 419 425 418
f 418 425 423
f 425 426 423
f 423 426 424
f 426 427 424
f 424 427 290
f 427 292 290
f 280 420 419
f 420 428 419
f 419 428 425
f 428 429 425
f 425 429 426
f 429 430 426
f 426 430 427
f 430 431 427
f 427 431 292
f 431 294 292
f 279 421 420
f 421 432 420
f 420 432 428
f 432 433 428
f 428 433 429
f 433 434 429
f 429 434 430
f 434 435 430
f 430 435 431
f 435 436 431
f 431 436 294
f 436 25 294
f 19 18 421
f 18 437 421
f 421 437 432
f 437 438 432
f 432 438 433
f 438 439 433
f 433 439 434
f 439 440 434
f 434 440 435
f 440 441 435
f 435 441 436
f 441 442 436
f 436 442 25
f 442 14 25
f 322 323 31
f 321 443 322
f 320 444 321
f 319 445 320
f 318 446 319
f 317 447 318
f 16 448 317
f 322 443 323
f 443 324 323
f 321 444 443
f 444 449 443
f 443 449 324
f 449 326 324
f 320 445 444
f 445 450 444
f 444 450 449
f 450 451 449
f 449 451 326
f 451 328 326
f 319 446 445
f 446 452 445
f 445 452 450
f 452 453 450
f 450 453 451
f 453 454 451
f 451 454 328
f 454 330 328
f 318 447 446
f 447 455 446
f 446 455 452
f 455 456 452
f 452 456 453
f 456 457 453
f 453 457 454
f 457 458 454
f 454 458 330
f 458 332 330
f 317 448 447
f 448 459 447
f 447 459 455
f 459 460 455
f 455 460 456
f 460 461 456
f 456 461 457
f 461 462 457
f 457 462 458
f 462 463 458
f 458 463 332
f 463 24 332
f 16 15 448
f 15 464 448
f 448 464 459
f 464 465 459
f 459 465 460
f 465 466 460
f 460 466 461
f 466 467 461
f 461 467 462
f 467 468 462
f 462 468 463
f 468 469 463
f 463 469 24
f 469 11 24
f 355 356 28
f 354 470 355
f 353 471 354
f 352 472 353
f 351 473 352
f 350 474 351
f 13 475 350
f 355 470 356
f 470 357 356
f 354 471 470
f 471 476 470
f 470 476 357
f 476 359 357
f 353 472 471
f 472 477 471
f 471 477 476
f 477 478 476
f 476 478 359
f 478 361 359
f 352 473 472
f 473 479 472
f 472 479 477
f 479 480 477
f 477 480 478
f 480 481 478
f 478 481 361
f 481 363 361
f 351 474 473
f 474 482 473
f 473 482 479
f 482 483 479
f 479 483 480
f 483 484 480
f 480 484 481
f 484 485 481
f 481 485 363
f 485 365 363
f 350 475 474
f 475 486 474
f 474 486 482
f 486 487 482
f 482 487 483
f 487 488 483
f 483 488 484
f 488 489 484
f 484 489 485
f 489 490 485
f 485 490 365
f 490 23 365
f 13 12 475
f 12 491 475
f 475 491 486
f 491 492 486
f 486 492 487
f 492 493 487
f 487 493 488
f 493 494 488
f 488 494 489
f 494 495 489
f 489 495 490
f 495 496 490
f 490 496 23
f 496 4 23
f 388 219 40
f 387 497 388
f 386 498 387
f 385 499 386
f 384 500 385
f 383 501 384
f 10 502 383
f 388 497 219
f 497 220 219
f 387 498 497
f 498 503 497
f 497 503 220
f 503 222 220
f 386 499 498
f 499 504 498
f 498 504 503
f 504 505 503
f 503 505 222
f 505 224 222
f 385 500 499
f 500 506 499
f 499 506 504
f 506 507 504
f 504 507 505
f 507 508 505
f 505 508 224
f 508 226 224
f 384 501 500
f 501 509 500
f 500 509 506
f 509 510 506
f 506 510 507
f 510 511 507
f 507 511 508
f 511 512 508
f 508 512 226
f 512 228 226
f 383 502 501
f 502 513 501
f 501 513 509
f 513 514 509
f 509 514 510
f 514 515 510
f 510 515 511
f 515 516 511
f 511 516 512
f 516 517 512
f 512 517 228
f 517 27 228
f 10 6 502
f 6 518 502
f 502 518 513
f 518 519 513
f 513 519 514
f 519 520 514
f 514 520 515
f 520 521 515
f 515 521 516
f 521 522 516
f 516 522 517
f 522 523 517
f 517 523 27
f 523 20 27
f 524 21 20
f 525 526 524
f 527 528 525
f 529 530 527
f 531 532 529
f 533 534 531
f 9 535 533
f 524 526 21
f 526 410 21
f 525 528 526
f 528 536 526
f 526 536 410
f 536 411 410
f 527 530 528
f 530 537 528
f 528 537 536
f 537 538 536
f 536 538 411
f 538 412 411
f 529 532 530
f 532 539 530
f 530 539 537
f 539 540 537
f 537 540 538
f 540 541 538
f 538 541 412
f 541 413 412
f 531 534 532
f 534 542 532
f 532 542 539
f 542 543 539
f 539 543 540
f 543 544 540
f 540 544 541
f 544 545 541
f 541 545 413
f 545 414 413
f 533 535 534
f 535 546 534
f 534 546 542
f 546 547 542
f 542 547 543
f 547 548 543
f 543 548 544
f 548 549 544
f 544 549 545
f 549 550 545
f 545 550 414
f 550 415 414
f 9 8 535
f 8 551 535
f 535 551 546
f 551 552 546
f 546 552 547
f 552 553 547
f 547 553 548
f 553 554 548
f 548 554 549
f 554 555 549
f 549 555 550
f 555 556 550
f 550 556 415
f 556 17 415
f 556 18 17
f 555 557 556
f 554 558 555
f 553 559 554
f 552 560 553
f 551 561 552
f 8 562 551
f 556 557 18
f 557 437 18
f 555 558 557
f 558 563 557
f 557 563 437
f 563 438 437
f 554 559 558
f 559 564 558
f 558 564 563
f 564 565 563
f 563 565 438
f 565 439 438
f 553 560 559
f 560 566 559
f 559 566 564
f 566 567 564
f 564 567 565
f 567 568 565
f 565 568 439
f 568 440 439
f 552 561 560
f 561 569 560
f 560 569 566
f 569 570 566
f 566 570 567
f 570 571 567
f 567 571 568
f 571 572 568
f 568 572 440
f 572 441 440
f 551 562 561
f 562 573 561
f 561 573 569
f 573 574 569
f 569 574 570
f 574 575 570
f 570 575 571
f 575 576 571
f 571 576 572
f 576 577 572
f 572 577 441
f 577 442 441
f 8 7 562
f 7 578 562
f 562 578 573
f 578 579 573
f 573 579 574
f 579 580 574
f 574 580 575
f 580 581 575
f 575 581 576
f 581 582 576
f 576 582 577
f 582 583 577
f 577 583 442
f 583 14 442
f 583 15 14
f 582 584 583
f 581 585 582
f 580 586 581
f 579 587 580
f 578 588 579
f 7 589 578
f 583 584 15
f 584 464 15
f 582 585 584
f 585 590 584
f 584 590 464
f 590 465 464
f 581 586 585
f 586 591 585
f 585 591 590
f 591 592 590
f 590 592 465
f 592 466 465
f 580 587 586
f 587 593 586
f 586 593 591
f 593 594 591
f 591 594 592
f 594 595 592
f 592 595 466
f 595 467 466
f 579 588 587
f 588 596 587
f 587 596 593
f 596 597 593
f 593 597 594
f 597 598 594
f 594 598 595
f 598 599 595
f 595 599 467
f 599 468 467
f 578 589 588
f 589 600 588
f 588 600 596
f 600 601 596
f 596 601 597
f 601 602 597
f 597 602 598
f 602 603 598
f 598 603 599
f 603 604 599
f 599 604 468
f 604 469 468
f 7 3 589
f 3 605 589
f 589 605 600
f 605 606 600
f 600 606 601
f 606 607 601
f 601 607 602
f 607 608 602
f 602 608 603
f 608 609 603
f 603 609 604
f 609 610 604
f 604 610 469
f 610 11 469
f 523 524 20
f 522 611 523
f 521 612 522
f 520 613 521
f 519 614 520
f 518 615 519
f 6 616 518
f 523 611 524
f 611 525 524
f 522 612 611
f 612 617 611
f 611 617 525
f 617 527 525
f 521 613 612
f 613 618 612
f 612 618 617
f 618 619 617
f 617 619 527
f 619 529 527
f 520 614 613
f 614 620 613
f 613 620 618
f 620 621 618
f 618 621 619
f 621 622 619
f 619 622 529
f 622 531 529
f 519 615 614
f 615 623 614
f 614 623 620
f 623 624 620
f 620 624 621
f 624 625 621
f 621 625 622
f 625 626 622
f 622 626 531
f 626 533 531
f 518 616 615
f 616 627 615
f 615 627 623
f 627 628 623
f 623 628 624
f 628 629 624
f 624 629 625
f 629 630 625
f 625 630 626
f 630 631 626
f 626 631 533
f 631 9 533
f 6 5 616
f 5 632 616
f 616 632 627
f 632 633 627
f 627 633 628
f 633 634 628
f 628 634 629
f 634 635 629
f 629 635 630
f 635 636 630
f 630 636 631
f 636 2 631
f 631 2 9
f 2 1 9
f 610 12 11
f 609 637 610
f 608 638 609
f 607 639 608
f 606 640 607
f 605 641 606
f 3 642 605
f 610 637 12
f 637 491 12
f 609 638 637
f 638 643 637
f 637 643 491
f 643 492 491
f 608 639 638
f 639 644 638
f 638 644 643
f 644 645 643
f 643 645 492
f 645 493 492
f 607 640 639
f 640 646 639
f 639 646 644
f 646 647 644
f 644 647 645
f 647 648 645
f 645 648 493
f 648 494 493
f 606 641 640
f 641 649 640
f 640 649 646
f 649 650 646
f 646 650 647
f 650 651 647
f 647 651 648
f 651 652 648
f 648 652 494
f 652 495 494
f 605 642 641
f 642 653 641
f 641 653 649
f 653 654 649
f 649 654 650
f 654 655 650
f 650 655 651
f 655 656 651
f 651 656 652
f 656 657 652
f 652 657 495
f 657 496 495
f 3 2 642
f 2 636 642
f 642 636 653
f 636 635 653
f 653 635 654
f 635 634 654
f 654 634 655
f 634 633 655
f 655 633 656
f 633 632 656
f 656 632 657
f 632 5 657
f 657 5 496
f 5 4 496
f 658 659 139
f 660 661 138
f 662 658 139
f 661 663 138
f 662 139 138
f 663 662 138
f 664 660 138
f 665 666 143
f 667 664 138
f 666 668 143
f 668 667 138
f 668 138 143
f 669 670 144
f 659 671 139
f 672 669 144
f 671 673 139
f 672 144 139
f 673 672 139
f 674 675 299
f 670 676 144
f 677 674 299
f 676 678 144
f 677 299 144
f 678 677 144
f 679 665 143
f 680 681 297
f 682 679 143
f 681 683 297
f 682 143 297
f 683 682 297
f 684 680 297
f 675 685 299
f 686 684 297
f 685 687 299
f 686 297 299
f 687 686 299
f 688 689 141
f 690 691 140
f 692 688 141
f 691 693 140
f 694 692 141
f 693 694 140
f 694 141 140
f 695 690 140
f 696 697 144
f 698 695 140
f 697 699 144
f 698 140 144
f 699 700 144
f 700 698 144
f 701 702 157
f 689 703 141
f 704 701 157
f 703 705 141
f 704 157 141
f 705 706 141
f 706 704 141
f 707 708 307
f 702 709 157
f 710 707 307
f 709 711 157
f 712 710 307
f 711 307 157
f 711 712 307
f 713 696 144
f 714 715 302
f 716 713 144
f 715 717 302
f 718 716 144
f 717 144 302
f 717 718 144
f 719 714 302
f 708 720 307
f 721 719 302
f 720 722 307
f 723 721 302
f 722 723 307
f 723 302 307
f 783 789 784
f 790 791 789
f 792 793 790
f 783 792 789
f 792 790 789
f 793 794 795
f 788 796 794
f 792 785 788
f 793 792 794
f 792 788 794
f 792 786 785
f 797 798 786
f 799 800 797
f 792 799 786
f 799 797 786
f 801 802 803
f 804 805 802
f 792 783 804
f 801 792 802
f 792 804 802
f 801 806 792
f 781 807 806
f 787 782 781
f 801 787 806
f 787 781 806
f 806 799 792
f 808 809 799
f 810 811 808
f 806 810 799
f 810 808 799
f 812 813 814
f 815 816 813
f 817 818 815
f 812 819 817
f 812 815 813
f 812 817 815
f 817 820 821
f 822 823 820
f 824 825 822
f 817 819 824
f 817 822 820
f 817 824 822
f 819 311 824
f 156 155 311
f 826 827 156
f 819 828 826
f 819 156 311
f 819 826 156
f 304 829 309
f 830 831 829
f 812 832 830
f 304 819 812
f 304 830 829
f 304 812 830
f 304 151 819
f 833 152 151
f 147 834 833
f 304 148 147
f 304 833 151
f 304 147 833
f 151 828 819
f 835 836 828
f 837 838 835
f 151 839 837
f 151 835 828
f 151 837 835
f 840 841 300
f 842 843 293
f 844 840 300
f 843 845 293
f 844 300 293
f 845 844 293
f 846 847 312
f 848 849 313
f 846 312 313
f 849 850 313
f 851 846 313
f 850 851 313
f 852 842 293
f 853 854 295
f 855 852 293
f 854 293 295
f 856 855 293
f 854 856 293
f 857 858 305
f 841 859 300
f 860 857 305
f 859 861 300
f 860 305 300
f 861 860 300
f 862 853 295
f 847 863 312
f 864 862 295
f 863 865 312
f 864 295 312
f 865 864 312
f 866 848 313
f 858 867 305
f 868 866 313
f 867 869 305
f 868 313 305
f 869 868 305
f 909 910 911
f 912 913 910
f 914 905 912
f 909 914 910
f 914 912 910
f 905 903 902
f 915 916 903
f 914 917 915
f 905 914 903
f 914 915 903
f 914 906 917
f 900 904 906
f 918 901 900
f 914 918 906
f 918 900 906
f 909 919 914
f 920 921 919
f 922 923 920
f 909 922 919
f 922 920 919
f 919 908 914
f 924 925 908
f 926 927 924
f 919 926 908
f 926 924 908
f 914 928 918
f 929 930 928
f 908 907 929
f 914 908 928
f 908 929 928
f 145 146 147
f 145 147 148
f 149 150 151
f 149 151 152
f 153 154 155
f 153 155 156
f 303 145 148
f 303 148 304
f 308 303 304
f 308 304 309
f 154 310 311
f 154 311 155
f 724 725 689
f 724 689 688
f 726 727 697
f 726 697 696
f 728 729 702
f 728 702 701
f 729 730 709
f 729 709 702
f 303 308 715
f 303 715 714
f 150 149 720
f 150 720 708
f 731 732 691
f 731 691 690
f 732 733 693
f 732 693 691
f 733 734 694
f 733 694 693
f 734 735 692
f 734 692 694
f 735 724 688
f 735 688 692
f 736 731 690
f 736 690 695
f 737 736 695
f 737 695 698
f 738 737 698
f 738 698 700
f 739 738 700
f 739 700 699
f 727 739 699
f 727 699 697
f 725 310 703
f 725 703 689
f 310 154 705
f 310 705 703
f 154 153 706
f 154 706 705
f 153 740 704
f 153 704 706
f 740 728 701
f 740 701 704
f 741 150 708
f 741 708 707
f 742 741 707
f 742 707 710
f 743 742 710
f 743 710 712
f 744 743 712
f 744 712 711
f 730 744 711
f 730 711 709
f 745 726 696
f 745 696 713
f 746 745 713
f 746 713 716
f 747 746 716
f 747 716 718
f 748 747 718
f 748 718 717
f 308 748 717
f 308 717 715
f 145 303 714
f 145 714 719
f 146 145 719
f 146 719 721
f 749 146 721
f 749 721 723
f 750 749 723
f 750 723 722
f 149 750 722
f 149 722 720
f 751 752 659
f 751 659 658
f 753 754 666
f 753 666 665
f 755 756 670
f 755 670 669
f 756 757 676
f 756 676 670
f 758 759 681
f 758 681 680
f 760 761 685
f 760 685 675
f 762 763 661
f 762 661 660
f 763 764 663
f 763 663 661
f 764 765 662
f 764 662 663
f 765 751 658
f 765 658 662
f 766 762 660
f 766 660 664
f 767 766 664
f 767 664 667
f 768 767 667
f 768 667 668
f 754 768 668
f 754 668 666
f 752 769 671
f 752 671 659
f 769 770 673
f 769 673 671
f 770 771 672
f 770 672 673
f 771 755 669
f 771 669 672
f 772 760 675
f 772 675 674
f 773 772 674
f 773 674 677
f 774 773 677
f 774 677 678
f 757 774 678
f 757 678 676
f 775 753 665
f 775 665 679
f 776 775 679
f 776 679 682
f 777 776 682
f 777 682 683
f 759 777 683
f 759 683 681
f 778 758 680
f 778 680 684
f 779 778 684
f 779 684 686
f 780 779 686
f 780 686 687
f 761 780 687
f 761 687 685
f 779 780 781
f 779 781 782
f 754 753 783
f 754 783 784
f 769 752 785
f 769 785 786
f 778 779 782
f 778 782 787
f 752 751 788
f 752 788 785
f 768 754 784
f 768 784 789
f 770 769 786
f 770 786 798
f 756 755 800
f 756 800 799
f 780 761 807
f 780 807 781
f 771 770 798
f 771 798 797
f 757 756 799
f 757 799 809
f 755 771 797
f 755 797 800
f 759 758 801
f 759 801 803
f 760 772 810
f 760 810 806
f 761 760 806
f 761 806 807
f 772 773 811
f 772 811 810
f 763 762 793
f 763 793 795
f 773 774 808
f 773 808 811
f 764 763 795
f 764 795 794
f 774 757 809
f 774 809 808
f 765 764 794
f 765 794 796
f 753 775 804
f 753 804 783
f 751 765 796
f 751 796 788
f 775 776 805
f 775 805 804
f 762 766 790
f 762 790 793
f 776 777 802
f 776 802 805
f 766 767 791
f 766 791 790
f 777 759 803
f 777 803 802
f 767 768 789
f 767 789 791
f 758 778 787
f 758 787 801
f 740 153 156
f 740 156 827
f 732 731 817
f 732 817 821
f 146 749 834
f 146 834 147
f 728 740 827
f 728 827 826
f 733 732 821
f 733 821 820
f 749 750 833
f 749 833 834
f 150 741 839
f 150 839 151
f 734 733 820
f 734 820 823
f 750 149 152
f 750 152 833
f 741 742 837
f 741 837 839
f 735 734 823
f 735 823 822
f 742 743 838
f 742 838 837
f 724 735 822
f 724 822 825
f 743 744 835
f 743 835 838
f 731 736 818
f 731 818 817
f 744 730 836
f 744 836 835
f 736 737 815
f 736 815 818
f 726 745 832
f 726 832 812
f 737 738 816
f 737 816 815
f 725 724 825
f 725 825 824
f 745 746 830
f 745 830 832
f 738 739 813
f 738 813 816
f 727 726 812
f 727 812 814
f 746 747 831
f 746 831 830
f 739 727 814
f 739 814 813
f 729 728 826
f 729 826 828
f 747 748 829
f 747 829 831
f 310 725 824
f 310 824 311
f 730 729 828
f 730 828 836
f 748 308 309
f 748 309 829
f 870 871 841
f 870 841 840
f 872 873 849
f 872 849 848
f 874 875 854
f 874 854 853
f 876 877 858
f 876 858 857
f 878 879 863
f 878 863 847
f 880 872 848
f 880 848 866
f 881 882 843
f 881 843 842
f 882 883 845
f 882 845 843
f 883 884 844
f 883 844 845
f 884 870 840
f 884 840 844
f 885 878 847
f 885 847 846
f 886 885 846
f 886 846 851
f 887 886 851
f 887 851 850
f 873 887 850
f 873 850 849
f 888 881 842
f 888 842 852
f 889 888 852
f 889 852 855
f 890 889 855
f 890 855 856
f 875 890 856
f 875 856 854
f 871 891 859
f 871 859 841
f 891 892 861
f 891 861 859
f 892 893 860
f 892 860 861
f 893 876 857
f 893 857 860
f 894 874 853
f 894 853 862
f 895 894 862
f 895 862 864
f 896 895 864
f 896 864 865
f 879 896 865
f 879 865 863
f 877 897 867
f 877 867 858
f 897 898 869
f 897 869 867
f 898 899 868
f 898 868 869
f 899 880 866
f 899 866 868
f 876 893 900
f 876 900 901
f 883 882 902
f 883 902 903
f 893 892 904
f 893 904 900
f 882 881 905
f 882 905 902
f 892 891 906
f 892 906 904
f 872 880 907
f 872 907 908
f 884 883 903
f 884 903 916
f 874 894 922
f 874 922 909
f 870 884 916
f 870 916 915
f 894 895 923
f 894 923 922
f 878 885 926
f 878 926 919
f 895 896 920
f 895 920 923
f 885 886 927
f 885 927 926
f 896 879 921
f 896 921 920
f 886 887 924
f 886 924 927
f 897 877 918
f 897 918 928
f 887 873 925
f 887 925 924
f 871 870 915
f 871 915 917
f 898 897 928
f 898 928 930
f 881 888 912
f 881 912 905
f 873 872 908
f 873 908 925
f 899 898 930
f 899 930 929
f 888 889 913
f 888 913 912
f 875 874 909
f 875 909 911
f 880 899 929
f 880 929 907
f 889 890 910
f 889 910 913
f 877 876 901
f 877 901 918
f 890 875 911
f 890 911 910
f 879 878 919
f 879 919 921
f 891 871 917
f 891 917 906