# https://github.com/mikedh/trimesh
v 0.00737400 -0.05431297 0.11006375
v 0.00733869 -0.05763408 0.10674241
v 0.01931282 -0.05722672 0.10657070
v 0.01934813 -0.05431304 0.10948467
v 0.00730338 -0.05431312 0.10342182
v 0.00733869 -0.05099171 0.10674316
v 0.01931282 -0.05139936 0.10657070
v 0.01927751 -0.05431304 0.10365747
v 0.02548271 -0.05623277 0.11348766
v -0.00755141 -0.05431297 0.11006375
v -0.01952554 -0.05431304 0.10948467
v -0.01949023 -0.05722672 0.10657070
v -0.00751610 -0.05763408 0.10674241
v -0.00751610 -0.05099171 0.10674316
v -0.01949023 -0.05139936 0.10657070
v -0.00748080 -0.05431312 0.10342182
v -0.01945492 -0.05431304 0.10365747
v -0.02566012 -0.05623277 0.11348766
v 0.02445985 0.07040651 0.05410735
v 0.02014739 0.06568483 0.07656197
v 0.02151480 0.03168485 0.07656197
v -0.01529195 0.08691967 0.06577254
v -0.02470357 0.07040651 0.05410735
v -0.02039104 0.06568483 0.07656197
v -0.01345831 0.08480793 0.07656197
v 0.01504823 0.08691967 0.06577254
v 0.02368489 0.06960717 0.04038239
v -0.02296804 0.05174882 0.05410735
v -0.02392861 0.06960717 0.04038239
v -0.02122746 0.05528886 0.04384854
v 0.02272432 0.05174882 0.05410735
v 0.02555660 0.03168485 0.05480418
v -0.00022946 -0.08498158 0.09302296
v -0.00425245 -0.08296557 0.09330915
v -0.00673654 -0.08736033 0.08894710
v -0.00022946 -0.08908046 0.08883263
v -0.00012182 -0.04843648 0.10549654
v -0.00990251 -0.04876728 0.09972137
v -0.00012182 -0.05529525 0.08457838
v 0.00965880 -0.04876728 0.09972137
v -0.00715453 -0.00483474 0.03631851
v -0.02209697 -0.00472160 0.04391826
v -0.02181316 0.03168485 0.03796402
v -0.00012182 0.03168485 0.02872226
v 0.00691082 -0.00483474 0.03631851
v 0.02185333 -0.00472160 0.04391826
v 0.01739755 -0.00995620 0.02961296
v -0.01656890 -0.02994821 0.03846594
v -0.02099420 -0.03348891 0.05394739
v -0.02159193 -0.00955634 0.05569406
v -0.02134975 -0.01925995 0.03980131
v 0.02110603 -0.01567101 0.03980131
v 0.02134821 -0.00955634 0.05569406
v -0.02175852 0.03168485 0.07656197
v -0.02580032 0.03168485 0.05480418
v -0.01853866 -0.01417001 0.07458463
v -0.01215014 -0.01298019 0.09489919
v -0.01544665 0.03168485 0.08782835
v -0.01764127 -0.01966984 0.02961296
v -0.01004479 -0.01587848 0.02890297
v -0.01080562 -0.02833244 0.09887915
v -0.00012182 -0.02803725 0.10389312
v -0.00012182 -0.01188276 0.09685275
v 0.01051396 -0.01475570 0.00460556
v 0.01449064 -0.02024163 0.00460556
v 0.01440642 -0.01831677 0.01280439
v 0.01115496 -0.01399874 0.01280439
v 0.01190642 -0.01298019 0.09489919
v 0.01520293 0.03168485 0.08782835
v -0.00012182 0.03168485 0.09230189
v -0.01800202 -0.02978705 0.01705522
v -0.01592136 -0.02543177 0.01608491
v -0.01628910 -0.02343890 0.00797425
v -0.01883377 -0.02939426 0.00809401
v 0.01056198 -0.02833244 0.09887915
v 0.01773816 -0.03115194 0.07036777
v 0.01829494 -0.01417001 0.07458463
v 0.02156944 0.03168485 0.03796402
v -0.00012182 0.08978577 0.07656197
v -0.00012182 0.09149275 0.06885533
v 0.02075048 -0.03348891 0.05394739
v 0.02098374 0.05528886 0.04384854
v 0.01823591 0.06248704 0.02963206
v 0.02207760 0.07267673 0.02963206
v -0.00012182 -0.03732956 0.10720478
v 0.00817780 -0.03796037 0.10271637
v -0.00022946 -0.06815040 0.07797882
v -0.00022946 -0.05611540 0.07552573
v 0.01084513 -0.05562968 0.08017471
v 0.00765269 -0.06840314 0.07973018
v -0.01798188 -0.03115194 0.07036777
v -0.01042525 -0.04316077 0.07758930
v -0.00842152 -0.03796037 0.10271637
v -0.00799208 -0.07160108 0.08770718
v -0.01245142 -0.05848226 0.09354182
v -0.01130405 -0.05562968 0.08017471
v -0.00811161 -0.06840314 0.07973018
v 0.01170073 -0.04050772 0.06583833
v 0.01018160 -0.04316077 0.07758930
v -0.01194445 -0.04050772 0.06583833
v -0.00012182 -0.04924518 0.05447659
v -0.00012182 -0.05105943 0.06491984
v 0.02039389 0.07921131 0.01060129
v 0.01706244 0.07350677 0.01060129
v 0.01724241 0.07519761 0.00462467
v 0.02097572 0.08062898 0.00265395
v 0.01125026 -0.05319109 0.08810042
v 0.01251516 -0.01152551 0.01280439
v 0.01567764 -0.01011862 0.01280439
v 0.01604538 -0.00982603 0.00164193
v 0.01217752 -0.01161352 0.00347060
v -0.00012182 -0.03967129 0.04323734
v -0.00715453 -0.03550973 0.03981818
v 0.00691082 -0.03192079 0.03981818
v -0.01275888 -0.02537394 0.01639088
v -0.01273212 -0.02380441 0.02159024
v -0.01126279 -0.03006492 0.02239166
v -0.01139868 -0.02921912 0.01692870
v -0.00357525 -0.01908756 0.03462916
v -0.01166153 -0.03437812 0.02961296
v -0.01149390 -0.05319109 0.08810042
v -0.02015955 -0.02880024 0.02961296
v -0.00022946 -0.04527199 0.08228883
v -0.00022946 -0.04145454 0.10354299
v 0.01200945 -0.04931766 0.09973252
v 0.00979624 -0.04913093 0.08541465
v -0.01025524 -0.04913093 0.08541465
v -0.01176634 0.06345178 0.02402014
v -0.01011051 0.06568795 0.03016067
v -0.01211498 0.05557974 0.03150585
v -0.01319411 0.05489480 0.02678128
v 0.01049954 -0.06164377 0.09757232
v 0.01199243 -0.05848226 0.09354182
v 0.00887433 -0.05108663 0.11017080
v 0.00644294 -0.05756867 0.11050010
v -0.01202258 0.06005647 0.00841804
v -0.01262076 0.06161493 0.01403086
v -0.01374294 0.05712503 0.01547967
v -0.01368027 0.05602835 0.00843982
v 0.01775823 -0.01458064 0.01280439
v 0.01859005 -0.01549498 0.00347060
v -0.00789544 -0.07298968 0.09460408
v -0.01095853 -0.06164377 0.09757232
v -0.01847963 0.05617740 0.03278235
v -0.01772757 0.05525682 0.02666449
v -0.01614831 -0.02347354 0.02092322
v 0.02119486 0.07758484 0.02067197
v 0.01748386 0.06909923 0.02067197
v -0.00641392 -0.02616666 0.02890297
v -0.01246837 -0.04931766 0.09973252
v -0.00933332 -0.05108663 0.11017080
v -0.00022946 -0.04774649 0.10964375
v 0.00333161 -0.01908756 0.03462916
v 0.00980115 -0.00888658 0.02890297
v 0.01590459 -0.00925930 0.01795275
v -0.01465014 -0.03343375 0.01786764
v -0.01473436 -0.03426677 0.00781480
v -0.01075768 -0.02901291 0.00939370
v -0.01839586 -0.03028525 0.02244072
v -0.01477510 -0.03495408 0.02348090
v 0.01687906 0.08363914 0.02067197
v 0.01658706 0.08272481 0.01060129
v -0.01302180 0.06335596 0.00649824
v -0.01374294 0.06479243 0.01300554
v -0.02232132 0.06600068 0.03007443
v 0.01738685 0.07895263 0.02963206
v 0.01632518 -0.02635927 0.03846594
v 0.01141788 -0.02466448 0.02961296
v 0.01991583 -0.01908660 0.02961296
v -0.01242124 -0.02567701 0.00921106
v -0.00719817 0.07941448 0.08517158
v -0.00012182 0.08364702 0.08627547
v 0.00986679 0.07235233 0.02963206
v 0.01187133 0.07831631 0.02963206
v 0.01295040 0.08318592 0.02067197
v 0.01152262 0.07771025 0.02067197
v 0.00617020 -0.01917476 0.02890297
v 0.01199198 0.08045607 0.00462467
v 0.01324952 0.07628560 0.00462467
v 0.01349922 0.07431182 0.01060129
v 0.01237704 0.07902971 0.01060129
v 0.01187133 0.06279197 0.02685814
v 0.01295040 0.06871885 0.02067197
v 0.01248840 -0.01232655 0.01795275
v 0.01349922 0.08236859 0.01060129
v 0.01670972 0.08397417 0.00151475
v 0.01324952 0.08363506 0.00265395
v 0.01101907 -0.01601228 0.01795275
v -0.00022946 -0.07451877 0.09945079
v -0.00468502 -0.07426603 0.09769943
v -0.00022946 -0.05736944 0.11219496
v -0.00690194 -0.05756867 0.11050010
v -0.00586517 -0.06776088 0.10132034
v -0.00022946 -0.06930930 0.10291708
v 0.01815214 -0.01623796 0.01795275
v 0.01453145 -0.02102127 0.01795275
v -0.01730609 0.05635878 0.01572691
v -0.01775850 0.05533428 0.00855563
v -0.01319411 0.06866280 0.02233866
v -0.01211498 0.07143747 0.02857567
v -0.01316609 0.06398231 0.08941914
v -0.00012182 0.06398231 0.09389194
v 0.01292245 0.06398231 0.08941914
v 0.00695445 0.07941448 0.08517158
v -0.02143858 0.06333239 0.02405864
v 0.01321459 0.08480793 0.07656197
v -0.01635518 0.08209385 0.04535577
v 0.01611154 0.08209385 0.04535577
v 0.00691082 0.08885092 0.05253173
v -0.00715453 0.08885092 0.05253173
v -0.01763056 0.07205089 0.02840656
v 0.00627755 -0.08736033 0.08894710
v 0.00627755 -0.08382787 0.08365363
v 0.00753308 -0.07160108 0.08770718
v 0.00743644 -0.07298968 0.09460408
v -0.01712278 0.06909418 0.02219942
v -0.02100089 0.06111650 0.00671886
v -0.02063761 0.06178776 0.01397510
v -0.01683071 0.06513147 0.01289619
v -0.01646453 0.06403806 0.00546482
v 0.00691082 0.05528886 0.03569402
v 0.00483773 0.07241432 0.03705177
v 0.00422602 -0.07426603 0.09769943
v 0.00540618 -0.06776088 0.10132034
v -0.00715453 0.05528886 0.03569402
v -0.00508138 0.07241432 0.03705177
v -0.00642723 -0.07906367 0.08041258
v -0.00022946 -0.08363460 0.07811411
v 0.00379346 -0.08296557 0.09330915
v -0.00673654 -0.08382787 0.08365363
v 0.00596823 -0.07906367 0.08041258
v -0.01766446 -0.04772315 0.09890962
v -0.01613819 -0.04658165 0.10313043
v -0.00450222 -0.04656195 0.10067065
v -0.00602849 -0.04770345 0.09644910
v -0.01792174 -0.04969216 0.09936753
v -0.01639547 -0.04855066 0.10358908
v -0.00628577 -0.04967254 0.09690775
v -0.00475950 -0.04853104 0.10112855
v 0.00271960 0.09459948 0.04487437
v 0.00271960 0.08404286 0.08392645
v -0.00296614 0.08404286 0.08392645
v -0.00296614 0.09459948 0.04487437
v 0.00271960 0.09906336 0.04604212
v 0.00271960 0.08946865 0.08271997
v -0.00296614 0.09906336 0.04604212
v -0.00296614 0.08946865 0.08271997
v 0.01720547 -0.04772315 0.09890962
v 0.00556950 -0.04770345 0.09644910
v 0.00404323 -0.04656195 0.10067065
v 0.01567920 -0.04658165 0.10313043
v 0.01746274 -0.04969216 0.09936753
v 0.00582677 -0.04967254 0.09690775
v 0.01593648 -0.04855066 0.10358908
v 0.00430050 -0.04853104 0.10112855
v -0.01678804 -0.02510648 0.00575852
v 0.01696016 0.08269180 0.00001903
v 0.01273980 0.08227812 0.00001903
v 0.01654440 -0.01206072 0.00000000
v 0.01171939 -0.01295358 0.00000000
v 0.00964415 -0.01672301 0.00000000
v 0.01971877 -0.01760984 0.00000000
v 0.01460489 -0.02330390 0.00000000
v -0.00988787 -0.02957147 0.00441675
v -0.01484861 -0.03587399 0.00252274
v -0.01996249 -0.03042077 0.00416156
v -0.01196311 -0.02596149 0.00550161
v -0.01359895 0.05305238 0.00380965
v -0.01157708 0.05796548 0.00378304
v -0.01857315 0.05220584 0.00395089
v -0.02245691 0.05924220 0.00411316
v -0.01688289 0.06279628 0.00397244
v -0.01272483 0.06197367 0.00384399
v 0.01120595 0.07840076 0.00001903
v 0.01273980 0.07331401 0.00001903
v 0.01760993 0.07198697 0.00001903
v 0.02216338 0.07861165 0.00001903
v -0.00022946 -0.08857721 0.08430259
v 0.01151623 -0.06007305 0.09617108
v 0.01151623 -0.06334160 0.09721327
v 0.00741727 -0.06334160 0.09721327
v 0.00741727 -0.06007305 0.09617108
v 0.01151623 -0.05926873 0.09869331
v 0.01151623 -0.06253803 0.09973550
v 0.00741727 -0.05926873 0.09869331
v 0.00741727 -0.06253803 0.09973550
v -0.01197523 -0.06007305 0.09617108
v -0.00787626 -0.06007305 0.09617108
v -0.00787626 -0.06334160 0.09721327
v -0.01197523 -0.06334160 0.09721327
v -0.01197523 -0.05926873 0.09869331
v -0.00787626 -0.05926873 0.09869331
v -0.01197523 -0.06253803 0.09973550
v -0.00787626 -0.06253803 0.09973550
f 1 2 3
f 1 3 4
f 5 6 7
f 5 7 8
f 6 1 4
f 6 4 7
f 7 4 9
f 4 3 9
f 3 8 9
f 2 5 8
f 2 8 3
f 8 7 9
f 10 11 12
f 10 12 13
f 14 15 11
f 14 11 10
f 16 17 15
f 16 15 14
f 13 12 17
f 13 17 16
f 12 18 17
f 11 18 12
f 15 18 11
f 17 18 15
f 19 20 21
f 22 23 24
f 22 24 25
f 26 19 27
f 28 23 29
f 28 29 30
f 21 31 19
f 32 31 21
f 33 34 35
f 33 35 36
f 37 38 39
f 37 39 40
f 41 42 43
f 41 43 44
f 45 46 47
f 48 49 50
f 48 50 51
f 52 46 53
f 54 55 50
f 54 50 56
f 57 58 54
f 57 54 56
f 59 42 41
f 59 41 60
f 61 62 63
f 61 63 57
f 64 65 66
f 64 66 67
f 68 69 70
f 68 70 63
f 71 72 73
f 71 73 74
f 75 76 77
f 75 77 68
f 45 44 78
f 45 78 46
f 79 80 22
f 79 22 25
f 76 81 53
f 76 53 77
f 27 82 83
f 27 83 84
f 62 85 86
f 62 86 75
f 87 88 89
f 87 89 90
f 91 92 93
f 91 93 61
f 94 95 96
f 94 96 97
f 81 76 98
f 76 99 98
f 92 100 101
f 92 101 102
f 63 62 75
f 63 75 68
f 103 104 105
f 103 105 106
f 86 85 37
f 86 37 40
f 40 107 99
f 40 99 86
f 91 100 92
f 49 100 91
f 108 109 110
f 108 110 111
f 112 113 114
f 115 116 117
f 115 117 118
f 119 113 120
f 86 99 76
f 86 76 75
f 92 121 38
f 92 38 93
f 122 120 113
f 122 113 48
f 123 124 125
f 123 125 126
f 88 96 127
f 88 127 123
f 128 129 130
f 128 130 131
f 132 133 134
f 132 134 135
f 136 137 138
f 136 138 139
f 110 109 140
f 110 140 141
f 142 143 95
f 142 95 94
f 144 145 131
f 144 131 130
f 146 59 60
f 104 103 147
f 104 147 148
f 41 149 60
f 119 149 41
f 120 149 119
f 150 151 152
f 150 152 124
f 21 69 68
f 21 68 77
f 60 116 146
f 45 153 119
f 45 119 41
f 93 85 62
f 93 62 61
f 45 47 154
f 154 47 155
f 156 157 158
f 156 158 118
f 146 72 71
f 146 71 159
f 156 160 159
f 156 159 71
f 70 58 57
f 70 57 63
f 111 64 67
f 111 67 108
f 161 147 103
f 161 103 162
f 137 136 163
f 137 163 164
f 29 165 144
f 29 144 30
f 160 156 118
f 160 118 117
f 21 77 53
f 21 53 32
f 147 161 166
f 147 166 84
f 167 168 169
f 167 114 168
f 114 167 81
f 52 169 47
f 52 47 46
f 169 52 167
f 118 158 170
f 118 170 115
f 119 153 114
f 119 114 113
f 25 171 172
f 25 172 79
f 98 101 112
f 173 174 175
f 173 175 176
f 102 99 107
f 39 107 40
f 107 39 102
f 102 39 121
f 38 121 39
f 121 92 102
f 99 102 101
f 99 101 98
f 112 101 100
f 168 114 153
f 153 177 168
f 178 179 180
f 178 180 181
f 83 182 183
f 83 183 148
f 155 184 154
f 45 41 44
f 185 162 186
f 185 186 187
f 177 154 184
f 177 184 188
f 78 82 31
f 78 31 32
f 189 190 34
f 189 34 33
f 23 28 54
f 55 54 28
f 32 53 46
f 32 46 78
f 51 50 42
f 113 49 48
f 48 51 122
f 59 122 51
f 191 192 193
f 191 193 194
f 140 109 155
f 140 155 195
f 67 66 196
f 67 196 188
f 51 42 59
f 54 24 23
f 197 198 139
f 197 139 138
f 199 200 129
f 199 129 128
f 82 27 19
f 82 19 31
f 171 201 202
f 70 202 201
f 70 201 58
f 202 203 204
f 171 25 24
f 171 24 201
f 58 201 24
f 58 24 54
f 145 144 165
f 145 165 205
f 55 43 42
f 55 42 50
f 172 204 206
f 172 206 79
f 26 80 79
f 26 79 206
f 184 155 109
f 184 109 108
f 202 172 171
f 204 172 202
f 29 23 22
f 22 207 29
f 207 22 80
f 80 26 208
f 27 208 26
f 195 196 66
f 195 66 140
f 209 208 166
f 208 209 80
f 210 80 209
f 80 210 207
f 211 207 210
f 29 207 211
f 211 165 29
f 70 69 203
f 70 203 202
f 159 122 59
f 159 59 146
f 26 206 20
f 26 20 19
f 212 213 214
f 212 214 215
f 211 216 205
f 211 205 165
f 43 55 28
f 43 28 30
f 113 112 100
f 113 100 49
f 217 218 219
f 217 219 220
f 199 216 211
f 199 211 200
f 164 219 216
f 164 216 199
f 72 146 116
f 72 116 115
f 106 186 162
f 106 162 103
f 52 53 81
f 52 81 167
f 81 98 112
f 81 112 114
f 27 84 166
f 27 166 208
f 168 177 188
f 168 188 196
f 185 181 176
f 185 176 175
f 173 182 221
f 173 221 222
f 189 223 224
f 189 224 194
f 164 163 220
f 164 220 219
f 225 144 130
f 30 144 225
f 44 225 221
f 222 221 225
f 222 225 226
f 152 151 192
f 152 192 191
f 182 173 176
f 127 96 95
f 127 95 150
f 74 157 156
f 74 156 71
f 161 162 185
f 161 185 175
f 216 219 218
f 216 218 205
f 37 85 93
f 37 93 38
f 196 195 169
f 196 169 168
f 45 154 177
f 45 177 153
f 187 178 181
f 188 184 108
f 188 108 67
f 131 138 137
f 131 137 128
f 138 131 145
f 138 145 197
f 44 221 82
f 44 82 78
f 116 60 149
f 116 149 117
f 73 72 115
f 73 115 170
f 205 218 197
f 205 197 145
f 66 65 141
f 66 141 140
f 166 161 175
f 166 175 174
f 174 173 222
f 222 209 174
f 209 222 226
f 209 226 210
f 200 210 226
f 210 200 211
f 226 129 200
f 129 226 225
f 129 225 130
f 179 105 104
f 179 104 180
f 166 174 209
f 30 225 44
f 30 44 43
f 176 183 182
f 181 185 187
f 47 169 195
f 47 195 155
f 56 91 61
f 56 61 57
f 87 97 96
f 87 96 88
f 180 104 148
f 180 148 183
f 150 124 123
f 150 123 127
f 20 206 204
f 20 204 203
f 123 126 89
f 123 89 88
f 97 87 227
f 228 227 87
f 212 229 33
f 212 33 36
f 33 229 223
f 33 223 189
f 164 199 128
f 164 128 137
f 194 224 135
f 194 135 191
f 191 135 134
f 191 134 152
f 125 124 152
f 125 152 134
f 50 49 91
f 50 91 56
f 194 193 190
f 194 190 189
f 221 182 83
f 221 83 82
f 229 212 223
f 215 223 212
f 223 215 224
f 132 224 215
f 224 132 135
f 151 95 143
f 151 143 192
f 183 176 181
f 183 181 180
f 94 230 35
f 94 35 142
f 117 149 120
f 117 120 160
f 122 159 160
f 122 160 120
f 228 87 231
f 90 231 87
f 90 214 231
f 213 231 214
f 125 134 133
f 150 95 151
f 126 125 133
f 126 133 89
f 214 90 89
f 214 89 133
f 215 214 133
f 215 133 132
f 143 142 193
f 190 193 142
f 142 35 190
f 218 217 198
f 218 198 197
f 230 94 227
f 97 227 94
f 34 190 35
f 193 192 143
f 148 147 84
f 148 84 83
f 232 233 234
f 232 234 235
f 232 236 237
f 232 237 233
f 235 238 236
f 235 236 232
f 233 237 239
f 233 239 234
f 240 241 242
f 240 242 243
f 241 240 244
f 241 244 245
f 240 243 246
f 240 246 244
f 243 242 247
f 243 247 246
f 242 241 245
f 242 245 247
f 244 246 247
f 244 247 245
f 248 249 250
f 248 250 251
f 249 248 252
f 249 252 253
f 248 251 254
f 248 254 252
f 251 250 255
f 251 255 254
f 69 21 20
f 69 20 203
f 256 73 170
f 74 73 256
f 187 186 257
f 187 257 258
f 259 110 141
f 111 110 259
f 259 260 111
f 261 260 259
f 261 259 262
f 261 262 263
f 264 158 157
f 264 157 265
f 157 74 266
f 157 266 265
f 141 262 259
f 260 261 64
f 260 64 111
f 170 267 256
f 265 266 256
f 265 256 267
f 265 267 264
f 256 266 74
f 268 269 136
f 268 136 139
f 268 270 271
f 268 271 272
f 268 272 273
f 268 273 269
f 270 268 139
f 270 139 198
f 65 263 262
f 65 262 141
f 178 187 258
f 178 258 274
f 270 198 217
f 270 217 271
f 179 275 276
f 179 276 105
f 178 274 275
f 178 275 179
f 258 257 277
f 258 277 276
f 258 276 275
f 258 275 274
f 163 273 272
f 163 272 220
f 36 35 230
f 36 230 278
f 276 277 106
f 276 106 105
f 220 272 271
f 220 271 217
f 186 106 277
f 186 277 257
f 158 264 267
f 158 267 170
f 228 231 213
f 228 213 278
f 36 278 213
f 36 213 212
f 278 230 227
f 278 227 228
f 261 263 65
f 261 65 64
f 136 269 273
f 136 273 163
f 279 280 281
f 279 281 282
f 280 279 283
f 280 283 284
f 279 282 285
f 279 285 283
f 283 285 286
f 283 286 284
f 281 280 284
f 281 284 286
f 287 288 289
f 287 289 290
f 287 291 292
f 287 292 288
f 290 293 291
f 290 291 287
f 289 294 293
f 289 293 290
f 291 293 294
f 291 294 292
f 236 238 239
f 236 239 237
f 252 254 255
f 252 255 253
f 8 7 6
f 6 5 8
f 7 4 1
f 1 6 7
f 7 9 4
f 10 11 15
f 15 14 10
f 14 15 17
f 17 16 14
f 12 13 16
f 16 17 12
f 17 15 18
f 18 12 17
f 15 11 18
f 25 22 80
f 80 79 25
f 68 75 62
f 62 63 68
f 86 99 107
f 107 40 86
f 48 113 120
f 120 122 48
f 141 140 109
f 109 110 141
f 207 22 23
f 23 29 207
f 140 141 65
f 65 66 140
f 235 234 233
f 233 232 235
f 233 237 236
f 236 232 233
f 232 236 238
f 238 235 232
f 234 239 237
f 237 233 234
f 243 242 241
f 241 240 243
f 245 244 240
f 240 241 245
f 244 246 243
f 243 240 244
f 246 247 242
f 242 243 246
f 247 245 241
f 241 242 247
f 245 247 246
f 246 244 245
f 251 250 249
f 249 248 251
f 253 252 248
f 248 249 253
f 252 254 251
f 251 248 252
f 254 255 250
f 250 251 254
f 265 157 158
f 158 264 265
f 274 258 187
f 187 178 274
f 282 281 280
f 280 279 282
f 284 283 279
f 279 280 284
f 283 285 282
f 282 279 283
f 284 286 285
f 285 283 284
f 286 284 280
f 280 281 286
f 290 289 288
f 288 287 290
f 288 292 291
f 291 287 288
f 287 291 293
f 293 290 287
f 290 293 294
f 294 289 290
f 292 294 293
f 293 291 292
f 237 239 238
f 238 236 237
f 253 255 254
f 254 252 253