# https://github.com/mikedh/trimesh
v 0.03355104 -0.03821958 0.03256993
v 0.04273209 -0.02929113 0.01223951
v 0.03187455 -0.04239718 0.02536411
v 0.04380457 0.02369618 0.03278173
v 0.04613694 0.02537977 0.01455451
v 0.05041893 0.01752589 0.02683774
v -0.03066930 -0.03934985 0.03047607
v -0.03807205 -0.03288904 0.01069314
v -0.04525196 -0.02690639 0.02168976
v -0.03394729 0.03269052 0.03469548
v -0.03538927 0.03503527 0.01211511
v -0.02795477 0.04295995 0.02284798
v -0.04320440 0.02834180 0.02293041
v -0.02836037 -0.04362825 0.02354385
v 0.04958540 -0.02460057 0.02382638
v 0.04228575 0.03272446 0.02070047
v 0.02991532 0.02625898 0.05897747
v 0.02770662 0.02419502 0.05908172
v 0.02745362 0.02443818 0.04986689
v 0.02999441 0.02682847 0.05030661
v 0.03102513 0.03062778 0.05122197
v 0.03101328 0.02889701 0.05919743
v 0.03254164 0.02481427 0.06083796
v 0.03501553 0.02479927 0.06058368
v 0.03607092 0.02471619 0.05474722
v 0.03264254 0.02509303 0.05481169
v 0.03099732 0.02225996 0.05496799
v 0.03100203 0.02236048 0.06117466
v 0.03734333 0.02256466 0.06070274
v 0.03848621 0.02114742 0.05477198
v 0.03974455 0.02303380 0.06121191
v 0.04178112 0.02119456 0.05540464
v 0.00130229 -0.02596482 0.05704773
v 0.00114413 -0.02559676 0.06355891
v 0.01264534 -0.02455685 0.06396513
v 0.01277704 -0.02439112 0.05721318
v 0.01277310 -0.02426665 0.04989581
v 0.00141710 -0.02634195 0.04987314
v -0.01035946 -0.02588942 0.04928651
v -0.01048164 -0.02572950 0.05618768
v -0.01060215 -0.02554854 0.06254107
v -0.01967641 -0.02361768 0.05528935
v -0.01970326 -0.02365120 0.06146560
v -0.01966086 -0.02360034 0.04863051
v -0.02522939 -0.02420717 0.05487981
v -0.02513068 -0.02422072 0.06095218
v 0.02922621 -0.02976555 0.06357822
v 0.03248162 -0.03040298 0.06399851
v 0.03288948 -0.03273264 0.05692306
v 0.02884871 -0.03193694 0.05682792
v 0.02830279 -0.02771160 0.05646399
v 0.02824971 -0.02671778 0.06300058
v 0.03569757 -0.02797810 0.06423892
v 0.03743000 -0.02852836 0.05665564
v 0.03890657 -0.02831699 0.04889151
v 0.03309679 -0.03484767 0.04958312
v 0.02783721 -0.03414999 0.04981375
v -0.03010826 -0.00170294 0.06220664
v -0.03085066 -0.00210072 0.05470051
v -0.02860404 0.00450415 0.05478006
v -0.02844450 0.00452489 0.06173641
v -0.03023020 -0.00856115 0.06272126
v -0.03071429 -0.00878655 0.05476987
v 0.03974013 0.01810407 0.04126220
v 0.03942208 0.01941561 0.04813348
v 0.04382868 0.01914767 0.04778588
v 0.04546644 0.01619345 0.04011948
v 0.03748767 0.02394395 0.04161507
v 0.03688992 0.02426427 0.04825998
v 0.04169907 0.02921090 0.04110083
v 0.02135320 -0.02352526 0.05689513
v 0.02141786 -0.02348565 0.04957651
v 0.02139120 -0.02346063 0.04237089
v 0.01278765 -0.02423802 0.04258353
v 0.00149583 -0.02669616 0.04258860
v 0.02643061 -0.02421754 0.05652936
v 0.02661517 -0.02448115 0.04930069
v 0.02663685 -0.02472607 0.04220691
v 0.02121967 -0.02365212 0.06373851
v 0.02630616 -0.02405226 0.06327205
v 0.02827343 -0.02891922 0.04935215
v 0.02802193 -0.02977448 0.04231327
v -0.02823899 -0.01480244 0.06281495
v -0.02828886 -0.01487328 0.05474168
v -0.02732436 -0.01971012 0.06271501
v -0.02732464 -0.01994868 0.05471804
v 0.03336509 -0.03647124 0.04161683
v 0.04144540 -0.02753595 0.03994084
v 0.02580079 -0.03727329 0.03564296
v 0.02688452 -0.03557311 0.04275509
v 0.03299379 -0.00599441 0.04254324
v 0.03100121 -0.01596922 0.04247376
v 0.03101422 -0.01578168 0.04931802
v 0.03279813 -0.00564841 0.04929601
v 0.03512170 0.00570958 0.04922330
v 0.03572747 0.00535947 0.04259004
v 0.03165595 0.01541655 0.04878232
v 0.03191343 0.01515457 0.04220075
v 0.03449895 0.00611663 0.05581319
v 0.03146838 0.01562015 0.05528850
v 0.03263145 -0.00519901 0.05602925
v 0.03099562 0.02219902 0.04852571
v 0.03099505 0.02213612 0.04197345
v 0.03274854 0.02547197 0.04838654
v 0.03333726 0.02579616 0.04182253
v -0.02635764 0.03680144 0.04843673
v -0.02585741 0.03558779 0.03884573
v -0.02386378 0.03383125 0.03867924
v -0.02493482 0.03269670 0.04753075
v -0.02615985 0.03113089 0.05566271
v -0.02824923 0.03390325 0.05657982
v -0.03335618 0.03116091 0.05633456
v -0.03370687 0.03240638 0.04775576
v -0.02720351 0.02949438 0.06291674
v -0.02769071 0.02695843 0.05516389
v -0.02721636 0.02611328 0.06285044
v -0.02950584 0.03129772 0.06322025
v -0.02782347 0.02795519 0.04684243
v -0.02767213 0.02854759 0.03823897
v -0.02509079 0.02410193 0.05514449
v -0.02462235 0.02401035 0.06327214
v -0.02556480 0.02427769 0.04666333
v -0.02551520 0.02439090 0.03811480
v -0.02061468 0.02393769 0.04681059
v -0.02027362 0.02394646 0.05528942
v -0.01927370 0.02405261 0.06336698
v -0.03433872 0.02414289 0.06292518
v -0.03673291 0.02368416 0.05705661
v -0.03719166 0.02725099 0.05705506
v -0.03476520 0.02673009 0.06361224
v -0.03311394 0.02358012 0.06132229
v -0.03414293 0.02317809 0.05637282
v -0.03258024 0.02953048 0.06335123
v -0.04006879 0.02693256 0.04923411
v -0.03943545 0.02246960 0.04948809
v -0.04394108 0.02605517 0.04027999
v 0.04065849 0.02737158 0.05342838
v 0.03911501 0.02652348 0.06067549
v 0.03249758 -0.00472337 0.06260292
v 0.03388048 0.00638156 0.06222033
v 0.03108185 -0.01546794 0.05614269
v 0.03131811 -0.01498382 0.06281345
v -0.03143990 -0.03488955 0.04789080
v -0.02600301 -0.03561057 0.04863771
v -0.02490491 -0.03752141 0.04108753
v -0.03119482 -0.03694047 0.03948766
v -0.03888537 -0.02929643 0.03818357
v -0.03716906 -0.02941972 0.04747303
v -0.03571174 -0.02887929 0.05524913
v -0.03148215 -0.03258726 0.05505328
v -0.02741060 -0.03362854 0.05518629
v -0.04397575 -0.02230696 0.04017169
v -0.04090340 -0.02347521 0.04857849
v -0.03769757 -0.02426040 0.05597081
v 0.03151980 -0.02296462 0.05621490
v 0.03138229 -0.02296598 0.06288842
v 0.03137542 0.01568198 0.06161861
v 0.02775126 -0.03045926 0.03540304
v 0.02659844 -0.02495082 0.03529821
v 0.02135457 -0.02345159 0.03537731
v 0.01281928 -0.02425506 0.03547871
v 0.00154589 -0.02701961 0.03549505
v -0.02064417 0.02393524 0.03824716
v -0.01460100 0.02421662 0.03846922
v -0.01463140 0.02420124 0.04702781
v -0.01426880 0.02433955 0.05524033
v 0.03771536 -0.02297673 0.06401477
v 0.03498310 -0.02367231 0.06310018
v 0.03592947 -0.02371434 0.05644630
v 0.03987728 -0.02176721 0.05697326
v 0.04148965 -0.02444509 0.05742485
v 0.03817861 -0.02504150 0.06471990
v -0.01024266 -0.02619315 0.03526102
v -0.01033349 -0.02602895 0.04220828
v 0.03651485 0.02968871 0.06034897
v 0.03724631 0.03228452 0.05293135
v 0.03721242 0.03652895 0.04264020
v 0.03311495 0.03070441 0.05999402
v 0.03326549 0.03314713 0.05233175
v 0.03286576 0.03623983 0.04236688
v 0.02439578 0.02394200 0.05916097
v 0.02409427 0.02393633 0.04966382
v 0.00495133 0.02725868 0.05685277
v -0.00186861 0.02794118 0.05599180
v -0.00160743 0.02867567 0.04788090
v 0.00537588 0.02771905 0.04836564
v 0.01254936 0.02493248 0.04889885
v 0.01197419 0.02501644 0.05806434
v 0.00348813 0.02705999 0.06264995
v -0.00287906 0.02720319 0.06245221
v -0.00160043 0.02934632 0.03914218
v 0.00529195 0.02838534 0.03934808
v 0.01243806 0.02511826 0.03948577
v -0.00798376 0.02600795 0.06062098
v -0.00811193 0.02612987 0.05517983
v -0.00806031 0.02639750 0.04734093
v -0.01253395 0.02473686 0.06236869
v 0.03073182 0.03256222 0.04134823
v 0.01919039 0.02395123 0.03965969
v 0.01932280 0.02395845 0.04938832
v -0.02786444 -0.02279082 0.06247133
v -0.02985385 -0.02441181 0.06227768
v -0.03135530 -0.02438935 0.05492647
v -0.02826053 -0.02321082 0.05474312
v -0.02733250 0.01704197 0.04819958
v -0.02740878 0.02074067 0.04831282
v -0.02734456 0.02076667 0.05623890
v -0.02736462 0.01696039 0.05591276
v -0.02763098 0.01135673 0.05532896
v -0.02745700 0.01184262 0.04791941
v -0.02742464 0.01224103 0.04043089
v -0.02732487 0.01712637 0.04048080
v -0.02753532 0.02065146 0.04044911
v -0.04205265 0.02079376 0.04135465
v -0.03566389 0.02232121 0.04889873
v -0.03712864 0.02143368 0.04090968
v -0.02745644 0.02115319 0.06349756
v -0.02740934 0.01715896 0.06312910
v -0.02789850 0.01122628 0.06231985
v -0.02864083 0.02284146 0.05630919
v -0.02872104 0.02318794 0.06328616
v -0.02886825 0.02274694 0.04836008
v -0.03107671 0.02372552 0.05626804
v -0.03102839 0.02372353 0.06246127
v -0.03187967 0.02362885 0.04850470
v -0.03253848 0.02345894 0.04054222
v -0.03169180 -0.00118999 0.04025423
v -0.02876527 0.00563888 0.04031190
v -0.02868924 0.00511752 0.04755244
v -0.03129546 -0.00164525 0.04735910
v -0.03125924 -0.00855686 0.04719996
v -0.03179754 -0.00828579 0.04010350
v -0.02912191 0.02261636 0.04043051
v -0.03854934 -0.02039866 0.04010857
v -0.03725674 -0.02139334 0.04791347
v -0.03520253 -0.02263789 0.05531180
v -0.03273548 -0.02449690 0.04741923
v -0.03336727 -0.02431463 0.03993540
v -0.02863084 -0.02390736 0.03984548
v -0.02848735 -0.02359988 0.04715534
v -0.00794729 0.02674031 0.03877888
v -0.02821884 -0.03135983 0.06139859
v -0.02673524 -0.03006187 0.06091811
v -0.02585401 -0.03126284 0.05481467
v -0.03105737 -0.03050677 0.06165999
v 0.03632282 -0.02399693 0.04949737
v 0.04119442 -0.02001600 0.04987470
v 0.04471342 -0.02237680 0.05028438
v 0.03157631 -0.02289587 0.04934131
v 0.03162265 -0.02280097 0.04244357
v 0.03647425 -0.02436661 0.04249225
v 0.04184529 -0.01928673 0.04256166
v 0.04765413 -0.02057344 0.04246946
v 0.02385798 0.02394136 0.03979956
v 0.02726066 0.02479069 0.03998324
v 0.02985799 0.02791721 0.04046734
v -0.02860573 -0.01455198 0.03988280
v -0.02841958 -0.01475017 0.04704970
v -0.02732494 -0.02007553 0.04704904
v -0.02732493 -0.02009445 0.03981177
v -0.03516229 -0.02481659 0.06275564
v -0.03388630 -0.02798626 0.06210258
v -0.03274482 -0.02354714 0.06220781
v 0.01924941 0.02409477 0.05892872
v -0.02712073 -0.02787694 0.04823419
v -0.02548189 -0.03195842 0.04829053
v -0.02683859 -0.02752479 0.05476979
v -0.02531497 -0.02422816 0.04831868
v -0.02527116 -0.02420508 0.04151170
v -0.02738448 -0.02789541 0.04140248
v -0.02500491 -0.03272179 0.04123799
v -0.02658472 -0.02709832 0.06080505
v -0.02470733 -0.03327432 0.03432138
v -0.02344705 -0.03901431 0.03391928
v -0.02755402 -0.02784201 0.03462968
v -0.01960660 -0.02359175 0.04174749
v -0.02521237 -0.02416124 0.03476961
v -0.01953203 -0.02358885 0.03494994
v 0.04464829 0.01253741 0.03342644
v 0.03936196 0.01765258 0.03437986
v 0.03723319 0.02393144 0.03496344
v 0.02455003 -0.03822493 0.02895298
v 0.03678583 0.00530036 0.03600891
v 0.03371610 -0.00629761 0.03584079
v 0.03149600 -0.01617969 0.03563325
v 0.03260883 0.01528197 0.03558418
v 0.03148468 0.02200209 0.03534862
v 0.03332978 0.02536661 0.03522372
v -0.04644532 -0.01827777 0.03118068
v 0.02700724 -0.03077895 0.02862224
v 0.02615970 -0.02548995 0.02846746
v 0.02141548 -0.02394521 0.02847100
v -0.02502516 0.02486800 0.02948733
v -0.02049659 0.02443180 0.02964582
v -0.01456457 0.02476175 0.02985360
v -0.02714680 0.02857906 0.02940767
v -0.02307440 0.03400353 0.02932300
v -0.02022821 0.04098657 0.02900017
v 0.01307179 -0.02476643 0.02850826
v 0.00165423 -0.02780353 0.02857832
v -0.01033531 -0.02680091 0.02847700
v 0.00531976 0.02952115 0.03032039
v 0.01246898 0.02584845 0.03008663
v 0.01913179 0.02446042 0.02992511
v -0.00165883 0.03048580 0.03036059
v -0.04324861 0.01843442 0.03326474
v -0.04883603 0.02247139 0.03159462
v -0.03764204 0.02035522 0.03304223
v -0.03279631 0.02268682 0.03283084
v -0.03274511 -0.00826695 0.03320981
v -0.03264367 -0.00092366 0.03324758
v -0.02943063 0.00599355 0.03305102
v -0.02794556 0.01245001 0.03292369
v -0.02782154 0.01712398 0.03284193
v -0.02809246 0.02033016 0.03278609
v -0.02957644 0.02200255 0.03277275
v -0.03858169 -0.01947874 0.03206938
v -0.03325379 -0.02399306 0.03242805
v -0.02886763 -0.02355958 0.03260983
v -0.00800845 0.02757650 0.03011819
v 0.03209254 -0.02245392 0.03552923
v 0.03641075 -0.02420207 0.03546570
v 0.04164457 -0.01854399 0.03511490
v 0.04920871 -0.01603148 0.03428496
v 0.02668817 0.02555169 0.02976275
v 0.02898874 0.02878382 0.02980485
v 0.02359933 0.02450408 0.02982325
v 0.02978858 0.03390232 0.02999999
v 0.03079788 0.03880194 0.03019291
v 0.03438730 0.04226543 0.02981292
v -0.02783305 -0.02006380 0.03272943
v -0.02923080 -0.01461814 0.03293222
v 0.03987061 0.04005514 0.02655348
v -0.02424875 -0.03320305 0.02793813
v -0.02160740 -0.03947751 0.02767790
v -0.02719594 -0.02780951 0.02813699
v -0.01968151 -0.02405989 0.02830673
v -0.02494332 -0.02455592 0.02821472
v 0.02540147 -0.03754333 0.03576255
v -0.03926989 -0.02960149 0.03825954
v -0.04442418 -0.02216811 0.04033393
v -0.03423021 0.03426203 0.03475366
v 0.03373567 -0.03866989 0.03266903
v 0.01538813 -0.02261924 0.08004906
v 0.00279702 -0.02273082 0.08010185
v 0.00206923 -0.02433346 0.07875138
v 0.01473285 -0.02428626 0.07881380
v 0.01595265 -0.01844533 0.07971024
v 0.00378179 -0.01858762 0.07978205
v 0.02449502 -0.02294623 0.07987631
v 0.02468437 -0.01858091 0.07960775
v 0.02395372 -0.02466867 0.07859761
v 0.03032353 -0.01953605 0.07944896
v 0.03053603 -0.01271283 0.07944002
v 0.02502406 -0.01174179 0.07945069
v 0.03168579 -0.02151826 0.07595872
v 0.03222509 -0.01346647 0.07680637
v 0.02971031 -0.02322384 0.07964492
v 0.03049149 -0.02537543 0.07684918
v 0.01662675 -0.01178584 0.07942477
v 0.03136711 -0.00312817 0.07920103
v 0.02577439 -0.00262392 0.07946152
v 0.03250865 -0.00360067 0.07683680
v 0.02980028 0.02664616 0.06547540
v 0.02950517 0.02653813 0.05900087
v 0.02749992 0.02464650 0.05909340
v 0.02824751 0.02482855 0.06658660
v 0.03076420 0.02819645 0.06424272
v 0.03060428 0.02917224 0.05925799
v 0.03140922 0.02714676 0.06908128
v 0.03236806 0.02893479 0.06564450
v 0.02948755 0.02578114 0.07129796
v 0.02438191 0.02443848 0.05915830
v 0.02504101 0.02443624 0.06731945
v 0.02613717 0.02473872 0.07292359
v 0.02956376 0.02707464 0.05033161
v 0.02722870 0.02488064 0.04988515
v 0.03058247 0.03084619 0.05127709
v -0.02669209 -0.02701236 0.07087418
v -0.02777931 -0.02778083 0.07188120
v -0.02848001 -0.02946559 0.06731009
v -0.02660910 -0.02904751 0.06668965
v -0.02493667 -0.02521056 0.07350196
v -0.02604938 -0.02576635 0.07501068
v -0.02597757 -0.02621756 0.06969674
v -0.02478727 -0.02471413 0.07068436
v -0.02614136 -0.02676793 0.06616473
v -0.02766344 -0.02572525 0.07553561
v -0.02929573 -0.02738350 0.07240024
v -0.03057674 -0.02904322 0.06764747
v -0.02109316 -0.02503279 0.07808959
v -0.02603434 -0.02490742 0.07822855
v -0.02011003 -0.02483706 0.07514706
v 0.03340010 0.02454594 0.07440614
v 0.03319885 0.02416213 0.07657342
v 0.03151218 0.02241206 0.07161863
v 0.03381250 0.02420296 0.07004754
v 0.03164323 0.02597933 0.07378594
v 0.02816645 0.02508369 0.07669552
v 0.03549725 0.02601442 0.07159597
v 0.03363046 0.02718866 0.07075731
v 0.03548846 0.02479880 0.07084045
v -0.02879686 0.01218200 0.07266825
v -0.02811761 0.01878681 0.07334172
v -0.02793268 0.01783537 0.06898291
v -0.02865101 0.01167728 0.06809523
v -0.02874636 0.01327443 0.07648674
v -0.02856659 0.01964832 0.07655940
v -0.02929466 0.00206945 0.07000089
v -0.02899518 0.00358916 0.07590134
v -0.02875819 0.00586680 0.06680002
v -0.02912389 0.02247645 0.07284104
v -0.02832513 0.02171985 0.06906164
v -0.02790557 0.01717631 0.06311702
v -0.02839339 0.01126731 0.06231023
v -0.02792987 0.02100313 0.06349136
v 0.02726413 -0.02512767 0.07192065
v 0.02858794 -0.02578022 0.07439900
v 0.02302479 -0.02502864 0.07648162
v 0.02224372 -0.02488072 0.07353976
v 0.02855008 -0.02784182 0.06894284
v 0.03115608 -0.02837079 0.07023723
v 0.02631966 -0.02467359 0.06848099
v 0.02787768 -0.02625319 0.06730631
v 0.02144027 -0.02446683 0.06935209
v 0.01346570 -0.02525941 0.07403661
v 0.01290790 -0.02518396 0.06969148
v 0.01408320 -0.02510965 0.07703931
v 0.03372219 -0.02708642 0.07125763
v 0.03278938 0.02438381 0.06083455
v 0.03286334 0.02464818 0.05480485
v 0.03580837 0.02429489 0.05473097
v 0.03482002 0.02434286 0.06057116
v 0.03148279 0.02223575 0.06117211
v 0.03148272 0.02215469 0.05496945
v 0.03300092 0.02423629 0.06584412
v 0.03148410 0.02234572 0.06677986
v 0.03437046 0.02462066 0.06449535
v 0.03826142 0.02070949 0.05483814
v 0.03717214 0.02210305 0.06076837
v 0.03585274 0.02322424 0.06565017
v 0.04011944 0.02277253 0.06140655
v 0.03777382 0.02381298 0.06681375
v 0.04215389 0.02091667 0.05557931
v 0.00133023 -0.02646050 0.05706216
v 0.01283509 -0.02488440 0.05721380
v 0.01269179 -0.02505135 0.06396202
v 0.00116412 -0.02609277 0.06357530
v 0.00145136 -0.02683724 0.04988727
v 0.01284013 -0.02475878 0.04989913
v -0.01054335 -0.02622218 0.05619975
v -0.01042914 -0.02638107 0.04929741
v -0.01065473 -0.02604224 0.06255503
v -0.01973110 -0.02414710 0.06146560
v -0.01970863 -0.02411331 0.05529084
v -0.01969630 -0.02409575 0.04863233
v 0.00117470 -0.02573776 0.06911157
v -0.01077076 -0.02581238 0.06810857
v -0.01979502 -0.02424821 0.06702329
v -0.02480751 -0.02466954 0.06637866
v -0.02485326 -0.02463270 0.06095071
v -0.02494474 -0.02461417 0.05487536
v 0.00135998 -0.02547045 0.07351369
v -0.01077022 -0.02553880 0.07263898
v -0.01991888 -0.02450963 0.07168482
v -0.02610195 -0.02721443 0.06081714
v 0.00159256 -0.02515340 0.07675220
v -0.01090691 -0.02523510 0.07611267
v -0.03086274 -0.02405673 0.07132642
v -0.02917480 -0.02314357 0.07346619
v -0.02844868 -0.02253882 0.06898352
v -0.03015289 -0.02336274 0.06799753
v -0.03089560 -0.02608819 0.07258003
v -0.02939868 -0.02519439 0.07567538
v -0.03309420 -0.02453714 0.06826933
v -0.03254225 -0.02736249 0.06816299
v -0.03169074 -0.02343998 0.06685968
v -0.02830253 -0.02051277 0.07547345
v -0.02782582 -0.01981469 0.06980263
v -0.02859667 -0.02363945 0.07746193
v -0.00901094 -0.01865518 0.07979056
v -0.01008887 -0.02284365 0.08003944
v -0.01074486 -0.02456155 0.07853061
v -0.01875517 -0.01868799 0.07970943
v -0.01977394 -0.02296345 0.07997321
v -0.02444910 -0.01891264 0.07960416
v -0.02492377 -0.02259760 0.07981795
v -0.00786654 -0.01248417 0.07944446
v -0.01799422 -0.01265706 0.07945689
v 0.00493390 -0.01222171 0.07943095
v -0.02431523 -0.01317897 0.07951517
v -0.01725581 -0.00436831 0.07941987
v -0.02417254 -0.00496639 0.07948658
v -0.00666211 -0.00395028 0.07941988
v -0.02786352 -0.01397525 0.07891450
v -0.02744003 -0.01948087 0.07941701
v -0.02799521 -0.00575515 0.07866202
v -0.02359113 0.00485907 0.07947866
v -0.02788788 0.00438906 0.07879642
v -0.01599139 0.00534034 0.07941987
v -0.02745387 -0.02240235 0.07957472
v -0.02990404 0.02341216 0.06826559
v -0.03094394 0.02443570 0.07148161
v -0.03285803 0.02570988 0.06844773
v -0.03220767 0.02346788 0.06643698
v -0.02900523 0.02278074 0.06329722
v -0.03109862 0.02323260 0.06248862
v 0.02888866 -0.03011114 0.06369365
v 0.03257187 -0.03086220 0.06416483
v 0.02849251 -0.03226289 0.05694439
v 0.03302627 -0.03318993 0.05706042
v 0.02780106 -0.02692871 0.06303081
v 0.02782869 -0.02785693 0.05649225
v 0.03777334 -0.02887506 0.05674842
v 0.03601303 -0.02833016 0.06439133
v 0.03325936 -0.03530311 0.04969642
v 0.03926604 -0.02865252 0.04896145
v 0.02746311 -0.03445849 0.04992133
v -0.03059912 -0.00163610 0.06224231
v -0.02893308 0.00461388 0.06174423
v -0.02908724 0.00461822 0.05479417
v -0.03134058 -0.00202568 0.05473272
v -0.03072123 -0.00862730 0.06275591
v -0.03008255 -0.00752391 0.07012828
v -0.03120099 -0.00888193 0.05479670
v 0.03940976 0.01774030 0.04133444
v 0.04577532 0.01587328 0.04034034
v 0.04419746 0.01886515 0.04796160
v 0.03915431 0.01900358 0.04820573
v 0.03713160 0.02359782 0.04160527
v 0.03656960 0.02388484 0.04824922
v 0.04665215 0.02382783 0.03285894
v 0.04214191 0.02941952 0.04118486
v 0.02139722 -0.02398190 0.04957786
v 0.02134706 -0.02402190 0.05689262
v 0.01286282 -0.02472895 0.04258905
v 0.02135867 -0.02395623 0.04237416
v 0.00153461 -0.02719112 0.04260309
v 0.02629544 -0.02486099 0.04931439
v 0.02614731 -0.02462536 0.05654017
v 0.02629217 -0.02508336 0.04222219
v 0.02122518 -0.02414859 0.06372491
v 0.02606761 -0.02448785 0.06327887
v 0.02752637 -0.02979583 0.04233891
v 0.02778298 -0.02899246 0.04938023
v 0.03766337 0.02633224 0.06676112
v 0.03954411 0.02672705 0.06082085
v -0.02872139 -0.01492018 0.06282579
v -0.02876577 -0.01501163 0.05475216
v -0.02886450 -0.01474899 0.07009905
v -0.02782104 -0.01970810 0.06271489
v -0.02782108 -0.01993370 0.05472211
v 0.04182468 -0.02784614 0.04002223
v 0.03354132 -0.03692358 0.04172181
v 0.02649088 -0.03586008 0.04285194
v 0.03347857 -0.00610024 0.04256504
v 0.03328573 -0.00574042 0.04931779
v 0.03151013 -0.01580892 0.04932274
v 0.03149698 -0.01599865 0.04248013
v 0.03622217 0.00539222 0.04262003
v 0.03561625 0.00574498 0.04925271
v 0.03239392 0.01527930 0.04221700
v 0.03214024 0.01552580 0.04879703
v 0.03195581 0.01571458 0.05530205
v 0.03499340 0.00615391 0.05584187
v 0.03312189 -0.00527516 0.05604820
v 0.03148265 0.02204181 0.04197997
v 0.03148267 0.02210189 0.04853213
v 0.03348867 0.02532317 0.04181521
v 0.03294293 0.02501491 0.04838368
v -0.02619855 0.03724906 0.04858169
v -0.02444540 0.03264378 0.04759678
v -0.02339026 0.03369266 0.03873635
v -0.02290366 0.04017963 0.03901555
v -0.02814779 0.03436132 0.05674286
v -0.02567261 0.03117992 0.05574569
v -0.03398758 0.03281017 0.04782541
v -0.03364300 0.03155241 0.05644015
v -0.02674687 0.02966257 0.06301616
v -0.02676384 0.02631717 0.06286904
v -0.02720351 0.02705500 0.05516654
v -0.02741126 0.02838668 0.06762425
v -0.02716273 0.02631599 0.06897684
v -0.02945802 0.03175790 0.06340091
v -0.02915689 0.02927030 0.06898282
v -0.02732689 0.02796288 0.04684872
v -0.02717656 0.02851538 0.03824689
v -0.02446273 0.02448069 0.06327147
v -0.02488393 0.02455348 0.05514668
v -0.02453056 0.02448700 0.07002247
v -0.02531333 0.02470593 0.04667096
v -0.02524556 0.02480794 0.03812284
v -0.02028486 0.02444301 0.05528701
v -0.02061301 0.02443436 0.04681148
v -0.01930545 0.02454813 0.06335490
v -0.03465575 0.02379163 0.06307618
v -0.03521215 0.02681314 0.06381232
v -0.03763488 0.02741083 0.05721220
v -0.03706503 0.02334856 0.05721077
v -0.03314846 0.02308662 0.06136657
v -0.03412986 0.02268360 0.05641761
v -0.03287916 0.02989187 0.06351473
v -0.03179111 0.02804263 0.06906242
v -0.04050880 0.02711310 0.04937724
v -0.03973576 0.02210955 0.04965200
v -0.03057209 0.02624176 0.07295954
v -0.02874530 0.02741807 0.07291103
v -0.04438825 0.02621826 0.04042187
v 0.01743222 -0.00278025 0.07941988
v 0.03143232 0.00756161 0.07907826
v 0.02644725 0.00754912 0.07951598
v 0.03254634 0.00717242 0.07648663
v 0.01832904 0.00712102 0.07941987
v 0.03149241 0.01660920 0.07894309
v 0.02653226 0.01631532 0.07962322
v 0.03213632 0.01628670 0.07611482
v 0.01857119 0.01567755 0.07943772
v 0.02710720 0.02286039 0.07955023
v 0.01939862 0.02209722 0.07951410
v 0.03149257 0.02226652 0.07901690
v 0.03229808 -0.01392724 0.07334888
v 0.03283764 -0.00402119 0.07334294
v 0.03149768 -0.02129339 0.07244568
v 0.03312194 0.00674520 0.07293382
v 0.04110176 0.02757119 0.05353014
v -0.02775636 0.01389841 0.07905975
v -0.02778718 0.02017255 0.07902319
v -0.02903225 0.02492817 0.07587898
v -0.02794494 0.02383403 0.07885488
v 0.03148480 -0.02147942 0.06843562
v 0.03211775 -0.01443793 0.06875977
v 0.03477474 -0.02292958 0.06983104
v 0.03375395 -0.02305516 0.06759923
v 0.03501714 -0.02464196 0.07170041
v 0.03292538 -0.00439064 0.06860595
v 0.03181373 -0.01501624 0.06281188
v 0.03299065 -0.00478142 0.06261737
v 0.03176698 -0.02265197 0.06287814
v 0.03437514 0.00641701 0.06224763
v 0.03376385 0.00657564 0.06814118
v 0.03157777 -0.01549533 0.05614366
v -0.03165768 -0.03532286 0.04799804
v -0.03140907 -0.03737831 0.03958300
v -0.02458437 -0.03787894 0.04121449
v -0.02572631 -0.03599956 0.04877489
v -0.03754591 -0.02972933 0.04756691
v -0.03170306 -0.03301201 0.05518547
v -0.03609138 -0.02917343 0.05537580
v -0.02722158 -0.03405939 0.05534545
v -0.04135645 -0.02335728 0.04874442
v -0.03814005 -0.02412467 0.05615103
v -0.03086998 -0.03979482 0.03056783
v -0.02525971 0.02583272 0.07518128
v 0.01982030 0.02493236 0.07766040
v 0.00841898 0.02188741 0.07949347
v 0.00770700 0.01526079 0.07941985
v 0.00871063 0.02494352 0.07805846
v -0.00461482 0.02476930 0.07836910
v -0.00498544 0.02587353 0.07513455
v -0.01683811 0.02519723 0.07557422
v -0.01646863 0.02444924 0.07875119
v 0.00843720 0.02587354 0.07441612
v -0.00452421 0.02161171 0.07947716
v -0.01607311 0.02099803 0.07950071
v -0.02401082 0.02442253 0.07881860
v -0.02356763 0.02056820 0.07947257
v 0.00822687 0.02628431 0.06714148
v -0.00631038 0.02654384 0.06878425
v 0.01935056 0.02528123 0.07384286
v 0.01909173 0.02497987 0.06755916
v -0.01770934 0.02496272 0.07037788
v 0.03539607 0.02845236 0.06641726
v 0.03206550 0.01590991 0.07233917
v 0.03190609 0.01581010 0.06746342
v 0.03186541 0.01576244 0.06162999
v 0.03497369 -0.02317583 0.06308998
v 0.03189279 -0.02263664 0.05621295
v 0.02725535 -0.03044409 0.03542624
v 0.02623558 -0.02528969 0.03531219
v 0.02131231 -0.02394645 0.03538140
v 0.01290186 -0.02474478 0.03548550
v 0.00158756 -0.02751433 0.03550936
v -0.02063625 0.02443185 0.03824898
v -0.01472284 0.02468942 0.04703080
v -0.01470242 0.02470281 0.03847395
v -0.01435496 0.02482871 0.05524077
v 0.03790913 -0.02253722 0.06414114
v 0.03997013 -0.02129694 0.05710334
v 0.03585133 -0.02322387 0.05645090
v 0.03862595 -0.02510450 0.06492631
v 0.04195249 -0.02450296 0.05759549
v -0.01041138 -0.02651938 0.04221872
v -0.01032729 -0.02668247 0.03527108
v 0.03750110 0.03268552 0.05307615
v 0.03675588 0.03009301 0.06050753
v 0.03740273 0.03696036 0.04279626
v 0.03307852 0.03358483 0.05247375
v 0.03298208 0.03116071 0.06013835
v 0.03257420 0.03661780 0.04250411
v 0.01929127 0.02458959 0.05891899
v 0.01207597 0.02550257 0.05806840
v 0.02405978 0.02443180 0.04966738
v 0.00504936 0.02774457 0.05688437
v 0.00549715 0.02819987 0.04839389
v -0.00166038 0.02916845 0.04791351
v -0.00191675 0.02843436 0.05602568
v 0.01267371 0.02541325 0.04890839
v 0.00354580 0.02754925 0.06271314
v -0.00292483 0.02769455 0.06250843
v 0.00542919 0.02886186 0.03937609
v -0.00166320 0.02983799 0.03917407
v 0.01258401 0.02559286 0.03949790
v -0.00811309 0.02648708 0.06064079
v -0.01262079 0.02522587 0.06236432
v -0.00825486 0.02660524 0.05519672
v -0.00822244 0.02686667 0.04735783
v 0.03026307 0.03271797 0.04140025
v 0.01923303 0.02444606 0.03966254
v 0.01936115 0.02445364 0.04938726
v -0.02827257 -0.02250777 0.06246889
v -0.02993130 -0.02392130 0.06226807
v -0.02863417 -0.02288366 0.05475011
v -0.03133867 -0.02389299 0.05491974
v -0.03278625 -0.02305469 0.06225747
v -0.02782917 0.01704494 0.04819890
v -0.02786109 0.01697399 0.05590732
v -0.02782185 0.02062929 0.05624210
v -0.02788014 0.02058427 0.04832009
v -0.02795110 0.01189324 0.04792018
v -0.02812543 0.01140355 0.05532461
v -0.02782149 0.01711937 0.04048254
v -0.02791823 0.01229615 0.04043512
v -0.02799926 0.02047434 0.04045821
v -0.04228473 0.02038857 0.04152392
v -0.03699527 0.02095697 0.04095029
v -0.03558828 0.02183227 0.04894245
v -0.02894366 0.02244795 0.05632098
v -0.02915552 0.02234202 0.04837468
v -0.03110534 0.02322983 0.05628098
v -0.03249488 0.02296438 0.04055638
v -0.03186846 0.02313246 0.04851749
v -0.03217686 -0.00108762 0.04028473
v -0.03178315 -0.00155648 0.04739023
v -0.02916764 0.00524998 0.04756936
v -0.02923939 0.00578579 0.04032959
v -0.03228057 -0.00839870 0.04012857
v -0.03174364 -0.00866382 0.04722462
v -0.02938842 0.02219756 0.04044700
v -0.03723300 -0.02090188 0.04798127
v -0.03845831 -0.01991537 0.04017813
v -0.03521636 -0.02214589 0.05537842
v -0.03263933 -0.02400967 0.04741152
v -0.03323053 -0.02383714 0.03993355
v -0.02894326 -0.02352126 0.03984274
v -0.02882031 -0.02323134 0.04715526
v -0.00812982 0.02720192 0.03879595
v -0.02810594 -0.03181399 0.06156496
v -0.03126785 -0.03092954 0.06181380
v -0.02628470 -0.03025092 0.06100739
v -0.02536586 -0.03132650 0.05488068
v 0.04116632 -0.01952981 0.04997227
v 0.03621506 -0.02351209 0.04949535
v 0.04517912 -0.02232909 0.05045032
v 0.03195467 -0.02257411 0.04933734
v 0.03636220 -0.02388278 0.04248549
v 0.03201177 -0.02249232 0.04243991
v 0.04170357 -0.01881638 0.04263496
v 0.04809689 -0.02044242 0.04265247
v -0.02324759 0.01406492 0.07945714
v -0.01552491 0.01438880 0.07941987
v -0.00454077 0.01482945 0.07941987
v -0.00527116 0.00585041 0.07941987
v -0.03426674 -0.02826577 0.06225699
v -0.03559929 -0.02466292 0.06293481
v 0.02699816 0.02521177 0.04000491
v 0.02379881 0.02443446 0.03980605
v 0.02940865 0.02812685 0.04049635
v -0.02907223 -0.01472218 0.03989319
v -0.02889141 -0.01490497 0.04705987
v -0.02782124 -0.02007532 0.03981388
v -0.02782107 -0.02005239 0.04705192
v -0.02924432 -0.00643224 0.07548629
v -0.02893345 -0.01449848 0.07549678
v -0.02662449 -0.02789656 0.04822711
v -0.02634505 -0.02758057 0.05476979
v -0.02498874 -0.03191346 0.04832885
v -0.02503288 -0.02463693 0.04831434
v -0.02688805 -0.02791016 0.04139659
v -0.02500036 -0.02462143 0.04150758
v -0.02452190 -0.03260963 0.04126650
v -0.02423889 -0.03311121 0.03434690
v -0.02308192 -0.03931848 0.03406367
v -0.02705776 -0.02786150 0.03462362
v -0.01964619 -0.02408685 0.04174911
v -0.02495328 -0.02458498 0.03476555
v -0.01957696 -0.02408349 0.03495132
v 0.00611063 -0.00340701 0.07941985
v 0.00703876 0.00641820 0.07941987
v 0.03198924 0.02474773 0.00000000
v 0.03212971 0.02474773 0.00005818
v 0.03212971 -0.02452307 0.00005818
v 0.03198924 -0.02452307 0.00000000
v 0.03218789 0.02474773 0.00019865
v 0.03218789 -0.02452307 0.00019865
v 0.03198924 0.02494638 0.00019865
v 0.03198924 0.02488820 0.00005818
v -0.02820855 0.02488820 0.00005818
v -0.02820855 0.02494638 0.00019865
v -0.02820855 0.02474773 0.00000000
v 0.03212971 0.02488820 0.00019865
v 0.03212971 0.02488820 0.01803884
v 0.03218789 0.02474773 0.01803884
v 0.03198924 0.02494638 0.01803884
v -0.02840720 0.02474773 0.00019865
v -0.02834901 0.02474773 0.00005818
v -0.02834901 -0.02452307 0.00005818
v -0.02840720 -0.02452307 0.00019865
v -0.02820855 -0.02452307 0.00000000
v -0.02834901 0.02488820 0.00019865
v -0.02834901 0.02488820 0.01803884
v -0.02820855 0.02494638 0.01803884
v -0.02840720 0.02474773 0.01803884
v 0.03198924 0.02446679 0.01823749
v 0.03190696 0.02466545 0.01823749
v 0.03112430 0.02388279 0.01823749
v 0.03119453 0.02371323 0.01823749
v 0.03170830 0.02474773 0.01823749
v 0.03095474 0.02395302 0.01823749
v 0.03213757 0.02465852 0.01818127
v 0.03213757 -0.02443386 0.01818127
v 0.03218789 -0.02452307 0.01803884
v 0.03198924 -0.02424214 0.01823749
v 0.03190003 0.02489606 0.01818127
v -0.02811933 0.02489606 0.01818127
v -0.02792761 0.02474773 0.01823749
v -0.02812626 0.02466545 0.01823749
v -0.02734360 0.02388279 0.01823749
v -0.02717404 0.02395302 0.01823749
v -0.02820855 0.02446679 0.01823749
v -0.02741383 0.02371323 0.01823749
v -0.02835687 0.02465852 0.01818127
v -0.02835687 -0.02443386 0.01818127
v -0.02820855 -0.02424214 0.01823749
v -0.02840720 -0.02452307 0.01803884
v 0.03170830 -0.02452307 0.01823749
v 0.03190696 -0.02444079 0.01823749
v 0.03112430 -0.02365813 0.01823749
v 0.03095474 -0.02372836 0.01823749
v 0.03119453 -0.02348857 0.01823749
v 0.03198924 -0.02472172 0.01803884
v 0.03190003 -0.02467140 0.01818127
v -0.02811933 -0.02467140 0.01818127
v -0.02820855 -0.02472172 0.01803884
v -0.02792761 -0.02452307 0.01823749
v 0.03212971 -0.02466354 0.01803884
v 0.03212971 -0.02466354 0.00019865
v 0.03198924 -0.02472172 0.00019865
v -0.02812626 -0.02444079 0.01823749
v -0.02734360 -0.02365813 0.01823749
v -0.02741383 -0.02348857 0.01823749
v -0.02717404 -0.02372836 0.01823749
v -0.02834901 -0.02466354 0.01803884
v -0.02834901 -0.02466354 0.00019865
v -0.02820855 -0.02472172 0.00019865
v 0.03198924 -0.02466354 0.00005818
v -0.02820855 -0.02466354 0.00005818
v 0.03119453 0.02375437 0.07512319
v 0.03113635 0.02375439 0.07526366
v 0.03113635 -0.02352973 0.07526366
v 0.03119453 -0.02352971 0.07512319
v 0.03099588 0.02375437 0.07532185
v 0.03099588 -0.02352971 0.07532185
v 0.03099590 0.02389484 0.07526366
v -0.02721520 0.02389484 0.07526366
v -0.02721518 0.02375437 0.07532185
v 0.03099588 0.02395302 0.07512319
v -0.02721518 0.02395302 0.07512319
v -0.02735565 0.02375439 0.07526366
v -0.02735565 -0.02352973 0.07526366
v -0.02721518 -0.02352971 0.07532185
v -0.02741383 0.02375437 0.07512319
v -0.02741383 -0.02352971 0.07512319
v -0.02721520 -0.02367018 0.07526366
v 0.03099590 -0.02367018 0.07526366
v -0.02721518 -0.02372836 0.07512319
v 0.03099588 -0.02372836 0.07512319
v 0.03113635 0.02389484 0.07512319
v -0.02735565 0.02389484 0.07512319
v -0.02735565 -0.02367018 0.07512319
v 0.03113635 -0.02367018 0.07512319
v 0.03210389 0.02486238 0.00008400
v -0.02832320 0.02486238 0.00008400
v 0.03206623 0.02482472 0.01818029
v -0.02828554 0.02482472 0.01818029
v 0.03206623 -0.02460006 0.01818029
v -0.02828554 -0.02460006 0.01818029
v 0.03210389 -0.02463772 0.00008400
v -0.02832320 -0.02463772 0.00008400
v 0.03111054 0.02386903 0.07523785
v -0.02732984 0.02386903 0.07523785
v -0.02732984 -0.02364437 0.07523785
v 0.03111054 -0.02364437 0.07523785
f 1 2 3
f 4 5 6
f 7 8 9
f 10 11 12
f 13 11 10
f 7 14 8
f 1 15 2
f 4 16 5
f 17 18 19
f 17 19 20
f 17 20 21
f 17 21 22
f 23 24 25
f 23 25 26
f 23 26 27
f 23 27 28
f 24 29 30
f 24 30 25
f 29 31 32
f 29 32 30
f 33 34 35
f 33 35 36
f 33 36 37
f 33 37 38
f 33 38 39
f 33 39 40
f 33 40 41
f 33 41 34
f 40 42 43
f 40 43 41
f 40 39 44
f 40 44 42
f 43 42 45
f 43 45 46
f 47 48 49
f 47 49 50
f 47 50 51
f 47 51 52
f 49 48 53
f 49 53 54
f 49 54 55
f 49 55 56
f 49 56 57
f 49 57 50
f 58 59 60
f 58 60 61
f 58 62 63
f 58 63 59
f 64 65 66
f 64 66 67
f 64 68 69
f 64 69 65
f 65 69 25
f 65 25 30
f 65 30 32
f 65 32 66
f 67 66 70
f 67 70 4
f 37 36 71
f 37 71 72
f 37 72 73
f 37 73 74
f 37 74 75
f 37 75 38
f 72 71 76
f 72 76 77
f 72 77 78
f 72 78 73
f 71 36 35
f 71 35 79
f 71 79 80
f 71 80 76
f 77 81 82
f 77 82 78
f 77 76 51
f 77 51 81
f 76 80 52
f 76 52 51
f 51 50 57
f 51 57 81
f 83 84 63
f 83 63 62
f 83 85 86
f 83 86 84
f 1 87 88
f 1 88 15
f 1 89 90
f 1 90 87
f 87 56 55
f 87 55 88
f 87 90 57
f 87 57 56
f 91 92 93
f 91 93 94
f 91 94 95
f 91 95 96
f 96 95 97
f 96 97 98
f 95 99 100
f 95 100 97
f 95 94 101
f 95 101 99
f 98 97 102
f 98 102 103
f 103 102 104
f 103 104 105
f 106 107 108
f 106 108 109
f 106 109 110
f 106 110 111
f 106 111 112
f 106 112 113
f 106 113 10
f 106 10 107
f 114 110 115
f 114 115 116
f 114 117 111
f 114 111 110
f 110 109 118
f 110 118 115
f 109 108 119
f 109 119 118
f 116 115 120
f 116 120 121
f 115 118 122
f 115 122 120
f 118 119 123
f 118 123 122
f 120 122 124
f 120 124 125
f 120 125 126
f 120 126 121
f 127 128 129
f 127 129 130
f 127 131 132
f 127 132 128
f 130 129 112
f 130 112 133
f 129 134 113
f 129 113 112
f 129 128 135
f 129 135 134
f 133 112 111
f 133 111 117
f 113 134 136
f 113 136 10
f 66 32 137
f 66 137 70
f 32 31 138
f 32 138 137
f 139 140 99
f 139 99 101
f 139 101 141
f 139 141 142
f 143 144 145
f 143 145 146
f 143 146 147
f 143 147 148
f 143 148 149
f 143 149 150
f 143 150 151
f 143 151 144
f 148 147 152
f 148 152 153
f 148 153 154
f 148 154 149
f 147 146 7
f 147 7 9
f 142 141 155
f 142 155 156
f 101 94 93
f 101 93 141
f 28 27 100
f 28 100 157
f 158 159 78
f 158 78 82
f 158 82 90
f 158 90 89
f 159 160 73
f 159 73 78
f 82 81 57
f 82 57 90
f 73 160 161
f 73 161 74
f 74 161 162
f 74 162 75
f 124 122 123
f 124 123 163
f 124 163 164
f 124 164 165
f 124 165 166
f 124 166 125
f 167 168 169
f 167 169 170
f 167 170 171
f 167 171 172
f 162 173 174
f 162 174 75
f 75 174 39
f 75 39 38
f 137 138 175
f 137 175 176
f 137 176 177
f 137 177 70
f 176 175 178
f 176 178 179
f 176 179 180
f 176 180 177
f 18 181 182
f 18 182 19
f 183 184 185
f 183 185 186
f 183 186 187
f 183 187 188
f 183 189 190
f 183 190 184
f 186 185 191
f 186 191 192
f 186 192 193
f 186 193 187
f 190 194 195
f 190 195 184
f 184 195 196
f 184 196 185
f 166 197 126
f 166 126 125
f 166 165 196
f 166 196 195
f 166 195 194
f 166 194 197
f 22 21 179
f 22 179 178
f 179 21 198
f 179 198 180
f 193 199 200
f 193 200 187
f 201 202 203
f 201 203 204
f 201 204 86
f 201 86 85
f 205 206 207
f 205 207 208
f 205 208 209
f 205 209 210
f 205 210 211
f 205 211 212
f 205 212 213
f 205 213 206
f 214 136 134
f 214 134 135
f 214 135 215
f 214 215 216
f 208 207 217
f 208 217 218
f 208 218 219
f 208 219 209
f 217 207 220
f 217 220 221
f 207 206 222
f 207 222 220
f 221 220 223
f 221 223 224
f 224 223 132
f 224 132 131
f 216 215 225
f 216 225 226
f 227 228 229
f 227 229 230
f 227 230 231
f 227 231 232
f 228 211 210
f 228 210 229
f 213 233 222
f 213 222 206
f 233 226 225
f 233 225 222
f 210 209 60
f 210 60 229
f 172 171 54
f 172 54 53
f 153 152 234
f 153 234 235
f 153 235 236
f 153 236 154
f 235 237 203
f 235 203 236
f 235 234 238
f 235 238 237
f 238 239 240
f 238 240 237
f 165 164 241
f 165 241 196
f 242 243 244
f 242 244 151
f 242 151 150
f 242 150 245
f 170 169 246
f 170 246 247
f 170 247 248
f 170 248 171
f 246 169 155
f 246 155 249
f 246 249 250
f 246 250 251
f 246 251 252
f 246 252 247
f 169 168 156
f 169 156 155
f 250 249 93
f 250 93 92
f 249 155 141
f 249 141 93
f 253 248 247
f 253 247 252
f 253 88 55
f 253 55 248
f 171 248 55
f 171 55 54
f 19 182 254
f 19 254 255
f 19 255 256
f 19 256 20
f 254 182 200
f 254 200 199
f 196 241 191
f 196 191 185
f 257 232 231
f 257 231 258
f 257 258 259
f 257 259 260
f 231 230 59
f 231 59 63
f 231 63 84
f 231 84 258
f 230 229 60
f 230 60 59
f 154 261 262
f 154 262 149
f 154 236 263
f 154 263 261
f 236 203 202
f 236 202 263
f 97 100 27
f 97 27 102
f 100 99 140
f 100 140 157
f 102 27 26
f 102 26 104
f 105 104 69
f 105 69 68
f 104 26 25
f 104 25 69
f 181 264 200
f 181 200 182
f 264 188 187
f 264 187 200
f 198 21 20
f 198 20 256
f 150 149 262
f 150 262 245
f 265 266 244
f 265 244 267
f 265 267 45
f 265 45 268
f 265 268 269
f 265 269 270
f 265 270 271
f 265 271 266
f 267 272 46
f 267 46 45
f 267 244 243
f 267 243 272
f 244 266 144
f 244 144 151
f 273 274 145
f 273 145 271
f 273 271 270
f 273 270 275
f 144 266 271
f 144 271 145
f 145 274 7
f 145 7 146
f 86 204 240
f 86 240 259
f 86 259 258
f 86 258 84
f 259 240 239
f 259 239 260
f 237 240 204
f 237 204 203
f 209 219 61
f 209 61 60
f 39 174 276
f 39 276 44
f 44 268 45
f 44 45 42
f 44 276 269
f 44 269 268
f 220 222 225
f 220 225 223
f 223 225 215
f 223 215 132
f 132 215 135
f 132 135 128
f 277 275 270
f 277 270 269
f 277 269 276
f 277 276 278
f 173 278 276
f 173 276 174
f 279 280 64
f 279 64 67
f 64 280 281
f 64 281 68
f 6 279 67
f 6 67 4
f 3 282 89
f 3 89 1
f 283 284 91
f 283 91 96
f 91 284 285
f 91 285 92
f 286 283 96
f 286 96 98
f 287 286 98
f 287 98 103
f 288 287 103
f 288 103 105
f 9 289 152
f 9 152 147
f 89 282 290
f 89 290 158
f 158 290 291
f 158 291 159
f 159 291 292
f 159 292 160
f 293 294 163
f 293 163 123
f 163 294 295
f 163 295 164
f 296 293 123
f 296 123 119
f 297 296 119
f 297 119 108
f 298 297 108
f 298 108 107
f 12 298 107
f 12 107 10
f 160 292 299
f 160 299 161
f 161 299 300
f 161 300 162
f 162 300 301
f 162 301 173
f 302 303 193
f 302 193 192
f 193 303 304
f 193 304 199
f 305 302 192
f 305 192 191
f 306 307 136
f 306 136 214
f 308 306 214
f 308 214 216
f 136 307 13
f 136 13 10
f 309 308 216
f 309 216 226
f 310 311 227
f 310 227 232
f 227 311 312
f 227 312 228
f 228 312 313
f 228 313 211
f 211 313 314
f 211 314 212
f 212 314 315
f 212 315 213
f 213 315 316
f 213 316 233
f 233 316 309
f 233 309 226
f 152 289 317
f 152 317 234
f 234 317 318
f 234 318 238
f 238 318 319
f 238 319 239
f 164 295 320
f 164 320 241
f 92 285 321
f 92 321 250
f 250 321 322
f 250 322 251
f 323 324 253
f 323 253 252
f 253 324 15
f 253 15 88
f 251 322 323
f 251 323 252
f 325 326 256
f 325 256 255
f 327 325 255
f 327 255 254
f 199 304 327
f 199 327 254
f 328 329 180
f 328 180 198
f 180 329 330
f 180 330 177
f 331 332 257
f 331 257 260
f 257 332 310
f 257 310 232
f 333 16 4
f 333 4 70
f 68 281 288
f 68 288 105
f 177 330 333
f 177 333 70
f 256 326 328
f 256 328 198
f 334 335 274
f 334 274 273
f 336 334 273
f 336 273 275
f 274 335 14
f 274 14 7
f 239 319 331
f 239 331 260
f 241 320 305
f 241 305 191
f 337 338 277
f 337 277 278
f 277 338 336
f 277 336 275
f 173 301 337
f 173 337 278
f 3 339 282
f 340 341 9
f 13 342 12
f 13 12 11
f 343 339 3
f 9 341 289
f 344 345 346
f 344 346 347
f 344 348 349
f 344 349 345
f 344 350 351
f 344 351 348
f 344 347 352
f 344 352 350
f 353 354 355
f 353 355 351
f 353 356 357
f 353 357 354
f 353 358 359
f 353 359 356
f 353 351 350
f 353 350 358
f 351 355 360
f 351 360 348
f 354 361 362
f 354 362 355
f 354 357 363
f 354 363 361
f 364 365 366
f 364 366 367
f 364 368 369
f 364 369 365
f 364 370 371
f 364 371 368
f 364 367 372
f 364 372 370
f 367 366 373
f 367 373 374
f 367 374 375
f 367 375 372
f 365 376 377
f 365 377 366
f 365 369 378
f 365 378 376
f 379 380 381
f 379 381 382
f 379 383 384
f 379 384 380
f 379 385 386
f 379 386 383
f 379 382 387
f 379 387 385
f 380 384 388
f 380 388 389
f 380 389 390
f 380 390 381
f 384 391 392
f 384 392 388
f 384 383 393
f 384 393 391
f 394 395 396
f 394 396 397
f 394 398 399
f 394 399 395
f 394 400 401
f 394 401 398
f 394 397 402
f 394 402 400
f 403 404 405
f 403 405 406
f 403 407 408
f 403 408 404
f 403 409 410
f 403 410 407
f 403 406 411
f 403 411 409
f 405 404 412
f 405 412 413
f 405 414 415
f 405 415 406
f 405 413 416
f 405 416 414
f 417 418 419
f 417 419 420
f 417 421 422
f 417 422 418
f 417 423 424
f 417 424 421
f 417 420 425
f 417 425 423
f 420 426 427
f 420 427 425
f 420 419 428
f 420 428 426
f 418 359 352
f 418 352 419
f 418 422 429
f 418 429 359
f 419 352 347
f 419 347 428
f 430 431 432
f 430 432 433
f 430 434 435
f 430 435 431
f 430 436 437
f 430 437 434
f 430 433 438
f 430 438 436
f 433 432 439
f 433 439 440
f 433 440 441
f 433 441 438
f 440 442 443
f 440 443 441
f 440 439 444
f 440 444 442
f 445 446 447
f 445 447 448
f 445 449 450
f 445 450 446
f 445 451 452
f 445 452 449
f 445 448 453
f 445 453 451
f 451 453 454
f 451 454 455
f 451 455 456
f 451 456 452
f 448 457 458
f 448 458 453
f 448 447 427
f 448 427 457
f 453 458 459
f 453 459 454
f 454 459 460
f 454 460 461
f 454 461 462
f 454 462 455
f 457 463 464
f 457 464 458
f 457 427 426
f 457 426 463
f 458 464 465
f 458 465 459
f 459 465 386
f 459 386 460
f 460 386 385
f 460 385 387
f 460 387 466
f 460 466 461
f 463 467 468
f 463 468 464
f 463 426 428
f 463 428 467
f 464 468 393
f 464 393 465
f 465 393 383
f 465 383 386
f 469 470 471
f 469 471 472
f 469 473 474
f 469 474 470
f 469 475 476
f 469 476 473
f 469 472 477
f 469 477 475
f 470 478 479
f 470 479 471
f 470 474 480
f 470 480 478
f 345 349 481
f 345 481 482
f 345 482 483
f 345 483 346
f 482 481 484
f 482 484 485
f 482 485 391
f 482 391 483
f 485 484 486
f 485 486 487
f 485 487 392
f 485 392 391
f 481 488 489
f 481 489 484
f 481 349 490
f 481 490 488
f 484 489 491
f 484 491 486
f 489 492 493
f 489 493 491
f 489 488 494
f 489 494 492
f 491 495 496
f 491 496 486
f 491 493 497
f 491 497 495
f 493 498 499
f 493 499 497
f 493 492 500
f 493 500 498
f 473 389 388
f 473 388 474
f 473 476 390
f 473 390 389
f 388 392 480
f 388 480 474
f 487 486 496
f 487 496 501
f 487 501 480
f 487 480 392
f 502 503 504
f 502 504 505
f 502 413 412
f 502 412 503
f 502 506 416
f 502 416 413
f 502 505 507
f 502 507 506
f 508 509 422
f 508 422 421
f 508 510 511
f 508 511 509
f 508 512 513
f 508 513 510
f 508 421 424
f 508 424 512
f 511 514 515
f 511 515 509
f 511 516 517
f 511 517 514
f 511 510 518
f 511 518 516
f 519 520 521
f 519 521 522
f 519 409 411
f 519 411 520
f 519 523 524
f 519 524 409
f 519 522 525
f 519 525 523
f 526 527 528
f 526 528 529
f 526 280 279
f 526 279 527
f 526 530 281
f 526 281 280
f 526 529 531
f 526 531 530
f 529 439 432
f 529 432 531
f 529 528 444
f 529 444 439
f 527 532 533
f 527 533 528
f 527 279 6
f 527 6 532
f 450 534 535
f 450 535 446
f 450 536 537
f 450 537 534
f 450 449 538
f 450 538 536
f 534 539 540
f 534 540 535
f 534 537 541
f 534 541 539
f 535 542 447
f 535 447 446
f 535 540 543
f 535 543 542
f 539 541 544
f 539 544 545
f 539 545 513
f 539 513 540
f 540 513 512
f 540 512 543
f 543 423 425
f 543 425 542
f 543 512 424
f 543 424 423
f 513 545 518
f 513 518 510
f 443 402 397
f 443 397 441
f 443 546 400
f 443 400 402
f 443 442 547
f 443 547 546
f 548 523 525
f 548 525 549
f 548 550 524
f 548 524 523
f 548 551 479
f 548 479 550
f 548 549 552
f 548 552 551
f 343 15 553
f 343 553 554
f 343 3 2
f 343 2 15
f 343 554 555
f 343 555 339
f 554 553 517
f 554 517 516
f 554 516 518
f 554 518 555
f 556 557 558
f 556 558 559
f 556 560 561
f 556 561 557
f 556 284 283
f 556 283 560
f 556 559 285
f 556 285 284
f 560 562 563
f 560 563 561
f 560 283 286
f 560 286 562
f 561 563 564
f 561 564 565
f 561 565 566
f 561 566 557
f 562 567 568
f 562 568 563
f 562 286 287
f 562 287 567
f 567 569 570
f 567 570 568
f 567 287 288
f 567 288 569
f 571 572 573
f 571 573 574
f 571 575 576
f 571 576 572
f 571 577 578
f 571 578 575
f 571 574 342
f 571 342 577
f 579 580 581
f 579 581 576
f 579 582 583
f 579 583 580
f 579 584 585
f 579 585 582
f 579 576 575
f 579 575 584
f 576 581 586
f 576 586 572
f 572 586 587
f 572 587 573
f 580 588 589
f 580 589 581
f 580 583 590
f 580 590 588
f 581 589 591
f 581 591 586
f 586 591 592
f 586 592 587
f 589 593 594
f 589 594 591
f 589 588 595
f 589 595 593
f 596 597 598
f 596 598 599
f 596 505 504
f 596 504 597
f 596 600 507
f 596 507 505
f 596 599 601
f 596 601 600
f 597 602 578
f 597 578 598
f 597 504 603
f 597 603 602
f 598 578 577
f 598 577 604
f 598 604 605
f 598 605 599
f 603 585 584
f 603 584 602
f 603 606 607
f 603 607 585
f 603 504 503
f 603 503 606
f 602 584 575
f 602 575 578
f 577 342 608
f 577 608 604
f 355 362 609
f 355 609 360
f 361 610 611
f 361 611 362
f 361 363 612
f 361 612 610
f 362 611 613
f 362 613 609
f 610 614 615
f 610 615 611
f 610 612 616
f 610 616 614
f 611 615 617
f 611 617 613
f 615 618 619
f 615 619 617
f 615 614 620
f 615 620 618
f 357 621 622
f 357 622 363
f 357 356 623
f 357 623 621
f 363 622 624
f 363 624 612
f 528 533 625
f 528 625 444
f 444 625 547
f 444 547 442
f 407 626 627
f 407 627 408
f 407 410 499
f 407 499 626
f 408 628 412
f 408 412 404
f 408 627 629
f 408 629 628
f 623 630 631
f 623 631 621
f 623 632 633
f 623 633 630
f 623 356 634
f 623 634 632
f 631 635 622
f 631 622 621
f 631 636 637
f 631 637 635
f 631 630 638
f 631 638 636
f 637 639 640
f 637 640 635
f 637 566 565
f 637 565 639
f 637 636 641
f 637 641 566
f 635 640 624
f 635 624 622
f 642 643 644
f 642 644 645
f 642 646 340
f 642 340 643
f 642 647 648
f 642 648 646
f 642 645 649
f 642 649 647
f 646 650 341
f 646 341 340
f 646 648 651
f 646 651 650
f 340 9 652
f 340 652 643
f 607 606 628
f 607 628 653
f 607 583 582
f 607 582 585
f 607 653 590
f 607 590 583
f 619 618 399
f 619 399 654
f 619 655 656
f 619 656 617
f 619 654 657
f 619 657 655
f 658 659 660
f 658 660 661
f 658 657 662
f 658 662 659
f 658 663 655
f 658 655 657
f 658 661 664
f 658 664 663
f 661 660 653
f 661 653 665
f 661 665 666
f 661 666 664
f 662 667 668
f 662 668 659
f 662 669 670
f 662 670 667
f 662 657 654
f 662 654 669
f 659 668 671
f 659 671 660
f 618 620 395
f 618 395 399
f 654 399 375
f 654 375 669
f 401 672 371
f 401 371 370
f 401 400 546
f 401 546 672
f 401 370 372
f 401 372 398
f 398 372 375
f 398 375 399
f 612 624 673
f 612 673 616
f 616 673 396
f 616 396 395
f 616 395 620
f 616 620 614
f 437 436 397
f 437 397 396
f 437 674 675
f 437 675 434
f 437 396 673
f 437 673 674
f 606 503 412
f 606 412 628
f 630 633 676
f 630 676 638
f 636 638 677
f 636 677 641
f 566 641 558
f 566 558 557
f 436 438 441
f 436 441 397
f 434 675 564
f 434 564 435
f 678 544 541
f 678 541 679
f 678 339 555
f 678 555 544
f 678 290 282
f 678 282 339
f 678 679 291
f 678 291 290
f 679 680 292
f 679 292 291
f 679 541 537
f 679 537 680
f 544 555 518
f 544 518 545
f 537 536 681
f 537 681 680
f 536 538 682
f 536 682 681
f 594 683 592
f 594 592 591
f 594 684 685
f 594 685 683
f 594 593 686
f 594 686 684
f 683 294 293
f 683 293 592
f 683 685 295
f 683 295 294
f 592 293 296
f 592 296 587
f 587 296 297
f 587 297 573
f 573 297 298
f 573 298 574
f 574 298 12
f 574 12 342
f 687 676 633
f 687 633 632
f 687 688 689
f 687 689 676
f 687 690 691
f 687 691 688
f 687 632 634
f 687 634 690
f 660 671 590
f 660 590 653
f 680 681 299
f 680 299 292
f 681 682 300
f 681 300 299
f 682 538 692
f 682 692 693
f 682 693 301
f 682 301 300
f 538 449 452
f 538 452 692
f 625 694 695
f 625 695 547
f 625 533 696
f 625 696 694
f 547 695 672
f 547 672 546
f 694 697 698
f 694 698 695
f 694 696 699
f 694 699 697
f 374 373 700
f 374 700 670
f 374 670 669
f 374 669 375
f 670 700 701
f 670 701 667
f 366 377 702
f 366 702 373
f 703 704 705
f 703 705 706
f 703 701 707
f 703 707 704
f 703 708 667
f 703 667 701
f 703 706 709
f 703 709 708
f 704 710 711
f 704 711 705
f 704 707 712
f 704 712 710
f 709 668 667
f 709 667 708
f 709 713 714
f 709 714 668
f 709 706 715
f 709 715 713
f 706 705 716
f 706 716 715
f 686 593 595
f 686 595 714
f 686 715 716
f 686 716 684
f 686 714 713
f 686 713 715
f 369 698 697
f 369 697 378
f 369 368 371
f 369 371 698
f 697 699 717
f 697 717 378
f 712 303 302
f 712 302 710
f 712 718 304
f 712 304 303
f 712 707 719
f 712 719 718
f 710 302 305
f 710 305 711
f 672 695 698
f 672 698 371
f 720 721 472
f 720 472 471
f 720 722 723
f 720 723 721
f 720 551 552
f 720 552 722
f 720 471 479
f 720 479 551
f 472 721 724
f 472 724 477
f 725 726 727
f 725 727 728
f 725 729 730
f 725 730 726
f 725 731 732
f 725 732 729
f 725 728 733
f 725 733 731
f 734 608 307
f 734 307 306
f 734 605 604
f 734 604 608
f 734 735 736
f 734 736 605
f 734 306 308
f 734 308 735
f 608 342 13
f 608 13 307
f 726 414 416
f 726 416 727
f 726 730 415
f 726 415 414
f 416 506 737
f 416 737 727
f 727 737 738
f 727 738 728
f 506 507 739
f 506 739 737
f 507 600 601
f 507 601 739
f 735 308 309
f 735 309 740
f 735 740 741
f 735 741 736
f 742 743 744
f 742 744 745
f 742 746 747
f 742 747 743
f 742 311 310
f 742 310 746
f 742 745 312
f 742 312 311
f 745 744 729
f 745 729 732
f 745 732 313
f 745 313 312
f 732 731 314
f 732 314 313
f 731 733 315
f 731 315 314
f 733 728 738
f 733 738 748
f 733 748 316
f 733 316 315
f 748 738 741
f 748 741 740
f 748 740 309
f 748 309 316
f 729 744 521
f 729 521 730
f 690 515 514
f 690 514 691
f 690 634 429
f 690 429 515
f 634 356 359
f 634 359 429
f 650 749 750
f 650 750 341
f 650 651 751
f 650 751 749
f 341 750 317
f 341 317 289
f 749 751 723
f 749 723 752
f 749 752 753
f 749 753 750
f 750 753 318
f 750 318 317
f 753 754 319
f 753 319 318
f 753 752 755
f 753 755 754
f 684 716 756
f 684 756 685
f 685 756 320
f 685 320 295
f 757 381 390
f 757 390 758
f 757 759 382
f 757 382 381
f 757 649 760
f 757 760 759
f 757 758 647
f 757 647 649
f 382 759 466
f 382 466 387
f 688 761 762
f 688 762 689
f 688 691 763
f 688 763 761
f 762 764 677
f 762 677 689
f 762 765 766
f 762 766 764
f 762 761 767
f 762 767 765
f 689 677 638
f 689 638 676
f 766 321 285
f 766 285 559
f 766 765 322
f 766 322 321
f 766 559 558
f 766 558 764
f 764 558 641
f 764 641 677
f 467 346 483
f 467 483 468
f 467 428 347
f 467 347 346
f 483 391 393
f 483 393 468
f 768 767 761
f 768 761 763
f 768 324 323
f 768 323 767
f 768 553 15
f 768 15 324
f 768 763 517
f 768 517 553
f 767 323 322
f 767 322 765
f 350 352 359
f 350 359 358
f 665 629 627
f 665 627 666
f 665 653 628
f 665 628 629
f 626 769 666
f 626 666 627
f 626 499 498
f 626 498 769
f 770 771 663
f 770 663 664
f 770 500 772
f 770 772 771
f 770 769 498
f 770 498 500
f 770 664 666
f 770 666 769
f 655 663 771
f 655 771 656
f 691 514 517
f 691 517 763
f 590 671 595
f 590 595 588
f 671 668 714
f 671 714 595
f 476 773 758
f 476 758 390
f 476 475 774
f 476 774 773
f 475 477 724
f 475 724 774
f 377 775 776
f 377 776 702
f 377 376 777
f 377 777 775
f 775 777 326
f 775 326 325
f 775 325 327
f 775 327 776
f 776 327 304
f 776 304 718
f 776 718 719
f 776 719 702
f 699 329 328
f 699 328 717
f 699 696 330
f 699 330 329
f 509 515 429
f 509 429 422
f 716 705 711
f 716 711 756
f 778 779 747
f 778 747 746
f 778 780 781
f 778 781 779
f 778 332 331
f 778 331 780
f 778 746 310
f 778 310 332
f 747 525 522
f 747 522 743
f 747 779 549
f 747 549 525
f 743 522 521
f 743 521 744
f 651 648 773
f 651 773 774
f 651 774 724
f 651 724 751
f 751 724 721
f 751 721 723
f 410 782 497
f 410 497 499
f 410 409 524
f 410 524 782
f 532 16 333
f 532 333 533
f 532 6 5
f 532 5 16
f 563 568 435
f 563 435 564
f 564 675 639
f 564 639 565
f 568 570 431
f 568 431 435
f 569 530 531
f 569 531 570
f 569 288 281
f 569 281 530
f 570 531 432
f 570 432 431
f 675 674 640
f 675 640 639
f 674 673 624
f 674 624 640
f 496 495 783
f 496 783 478
f 496 478 480
f 496 480 501
f 495 497 782
f 495 782 783
f 782 524 550
f 782 550 783
f 479 478 783
f 479 783 550
f 696 533 333
f 696 333 330
f 542 425 427
f 542 427 447
f 373 702 719
f 373 719 700
f 700 719 707
f 700 707 701
f 717 777 376
f 717 376 378
f 717 328 326
f 717 326 777
f 647 758 773
f 647 773 648
f 784 785 760
f 784 760 786
f 784 787 462
f 784 462 785
f 784 788 789
f 784 789 787
f 784 786 790
f 784 790 788
f 785 462 461
f 785 461 466
f 785 466 759
f 785 759 760
f 760 649 645
f 760 645 786
f 791 792 335
f 791 335 334
f 791 790 644
f 791 644 792
f 791 793 788
f 791 788 790
f 791 334 336
f 791 336 793
f 645 644 790
f 645 790 786
f 644 643 652
f 644 652 792
f 792 652 14
f 792 14 335
f 652 9 8
f 652 8 14
f 552 781 755
f 552 755 722
f 552 549 779
f 552 779 781
f 781 780 754
f 781 754 755
f 780 331 319
f 780 319 754
f 752 723 722
f 752 722 755
f 730 521 520
f 730 520 415
f 415 520 411
f 415 411 406
f 711 305 320
f 711 320 756
f 452 456 794
f 452 794 692
f 456 455 462
f 456 462 787
f 456 787 789
f 456 789 794
f 737 739 741
f 737 741 738
f 739 601 736
f 739 736 741
f 601 599 605
f 601 605 736
f 795 789 788
f 795 788 793
f 795 796 794
f 795 794 789
f 795 338 337
f 795 337 796
f 795 793 336
f 795 336 338
f 693 692 794
f 693 794 796
f 693 796 337
f 693 337 301
f 348 360 490
f 348 490 349
f 360 609 797
f 360 797 490
f 490 797 494
f 490 494 488
f 609 613 798
f 609 798 797
f 797 798 772
f 797 772 494
f 494 772 500
f 494 500 492
f 613 617 656
f 613 656 798
f 798 656 771
f 798 771 772
f 799 800 801
f 799 801 802
f 800 803 804
f 800 804 801
f 805 806 807
f 805 807 808
f 806 799 809
f 806 809 807
f 803 810 811
f 803 811 812
f 810 805 813
f 810 813 811
f 814 815 816
f 814 816 817
f 815 809 818
f 815 818 816
f 808 819 820
f 808 820 821
f 819 814 822
f 819 822 820
f 823 824 825
f 823 825 826
f 824 827 828
f 824 828 825
f 812 829 830
f 812 830 831
f 829 823 832
f 829 832 830
f 827 833 834
f 827 834 835
f 833 813 821
f 833 821 834
f 835 836 837
f 835 837 838
f 836 839 840
f 836 840 837
f 839 841 842
f 839 842 843
f 841 822 844
f 841 844 842
f 845 846 847
f 845 847 848
f 846 832 849
f 846 849 847
f 850 851 852
f 850 852 853
f 851 845 854
f 851 854 852
f 831 855 856
f 831 856 804
f 855 850 857
f 855 857 856
f 843 858 859
f 843 859 860
f 858 854 861
f 858 861 859
f 853 862 863
f 853 863 864
f 862 844 817
f 862 817 863
f 802 865 866
f 802 866 818
f 865 857 864
f 865 864 866
f 867 868 869
f 867 869 870
f 868 871 872
f 868 872 869
f 871 873 874
f 871 874 875
f 873 876 877
f 873 877 874
f 875 878 879
f 875 879 880
f 878 881 882
f 878 882 879
f 880 883 884
f 880 884 872
f 883 885 886
f 883 886 884
f 805 808 821
f 805 821 813
f 871 875 880
f 871 880 872
f 850 853 864
f 850 864 857
f 814 817 844
f 814 844 822
f 804 803 812
f 804 812 831
f 827 835 838
f 827 838 828
f 839 843 860
f 839 860 840
f 854 845 848
f 854 848 861
f 832 823 826
f 832 826 849
f 828 838 877
f 828 877 876
f 840 860 882
f 840 882 881
f 861 848 886
f 861 886 885
f 849 826 867
f 849 867 870
f 826 825 887
f 826 887 867
f 825 828 876
f 825 876 887
f 838 837 888
f 838 888 877
f 837 840 881
f 837 881 888
f 860 859 889
f 860 889 882
f 859 861 885
f 859 885 889
f 848 847 890
f 848 890 886
f 847 849 870
f 847 870 890
f 810 803 800
f 810 800 891
f 800 799 806
f 800 806 891
f 806 805 810
f 806 810 891
f 807 809 815
f 807 815 892
f 815 814 819
f 815 819 892
f 819 808 807
f 819 807 892
f 833 827 824
f 833 824 893
f 824 823 829
f 824 829 893
f 829 812 811
f 829 811 893
f 811 813 833
f 811 833 893
f 841 839 836
f 841 836 894
f 836 835 834
f 836 834 894
f 834 821 820
f 834 820 894
f 820 822 841
f 820 841 894
f 830 832 846
f 830 846 895
f 846 845 851
f 846 851 895
f 851 850 855
f 851 855 895
f 855 831 830
f 855 830 895
f 852 854 858
f 852 858 896
f 858 843 842
f 858 842 896
f 842 844 862
f 842 862 896
f 862 853 852
f 862 852 896
f 865 802 801
f 865 801 897
f 801 804 856
f 801 856 897
f 856 857 865
f 856 865 897
f 863 817 816
f 863 816 898
f 816 818 866
f 816 866 898
f 866 864 863
f 866 863 898
f 873 871 868
f 873 868 899
f 868 867 887
f 868 887 899
f 887 876 873
f 887 873 899
f 888 881 878
f 888 878 900
f 878 875 874
f 878 874 900
f 874 877 888
f 874 888 900
f 889 885 883
f 889 883 901
f 883 880 879
f 883 879 901
f 879 882 889
f 879 889 901
f 890 870 869
f 890 869 902
f 869 872 884
f 869 884 902
f 884 886 890
f 884 890 902
f 807 809 799
f 799 806 807
f 818 866 865
f 865 802 818