# https://github.com/mikedh/trimesh
v -0.02324335 0.00962768 0.00000000
v -0.01663018 0.00688845 0.00038298
v -0.01765452 0.00351170 0.00038298
v -0.02467497 0.00490816 0.00000000
v 0.02467497 0.00490817 0.00000000
v 0.01765452 0.00351171 0.00038298
v 0.01663018 0.00688845 0.00038298
v 0.02324328 0.00962768 0.00000000
v -0.01800038 0.00000000 0.00038298
v -0.02515838 -0.00000001 0.00000000
v 0.01496677 0.01000046 0.00038298
v 0.02091843 0.01397729 0.00000000
v -0.01765452 -0.00351170 0.00038298
v -0.02467497 -0.00490816 0.00000000
v 0.01272817 0.01272818 0.00038298
v 0.01778965 0.01778967 0.00000000
v -0.01663018 -0.00688843 0.00038298
v -0.02324328 -0.00962772 0.00000000
v 0.01000044 0.01496678 0.00038298
v 0.01397728 0.02091844 0.00000000
v -0.01496677 -0.01000050 0.00038298
v -0.02091843 -0.01397726 0.00000000
v 0.00688844 0.01663020 0.00038298
v 0.00962767 0.02324336 0.00000000
v -0.01272817 -0.01272816 0.00038298
v -0.01778966 -0.01778964 0.00000000
v 0.00351170 0.01765453 0.00038298
v 0.00490815 0.02467499 0.00000000
v -0.00490812 -0.02467496 0.00000000
v -0.00351167 -0.01765451 0.00038298
v -0.00000000 -0.01800037 0.00038298
v -0.00000000 -0.02515837 0.00000000
v -0.01000045 -0.01496676 0.00038298
v -0.01397721 -0.02091841 0.00000000
v -0.00000001 0.01800040 0.00038298
v -0.00000001 0.02515839 0.00000000
v 0.00962767 -0.02324327 0.00000000
v 0.00688844 -0.01663017 0.00038298
v 0.01000044 -0.01496676 0.00038298
v 0.01397727 -0.02091841 0.00000000
v -0.00688844 -0.01663017 0.00038298
v -0.00962767 -0.02324333 0.00000000
v -0.00351171 0.01765453 0.00038298
v -0.00490817 0.02467499 0.00000000
v 0.01272817 -0.01272816 0.00038298
v 0.01778965 -0.01778964 0.00000000
v -0.00688844 0.01663020 0.00038298
v -0.00962773 0.02324330 0.00000000
v 0.01496677 -0.01000043 0.00038298
v 0.02091843 -0.01397720 0.00000000
v 0.00559736 0.00559736 0.12961974
v 0.00289737 0.00289737 0.12983106
v 0.00340695 0.00227645 0.12983106
v 0.00658183 0.00439782 0.12961974
v -0.01000051 0.01496678 0.00038298
v -0.01397727 0.02091844 0.00000000
v 0.01663018 -0.00688843 0.00038298
v 0.02324328 -0.00962766 0.00000000
v 0.00527900 -0.02653935 0.00179277
v 0.00527900 -0.02653935 0.06402960
v -0.00000000 -0.02705929 0.06402960
v -0.00000000 -0.02705929 0.00179277
v -0.01272817 0.01272818 0.00038298
v -0.01778965 0.01778967 0.00000000
v 0.01765452 -0.00351168 0.00038298
v 0.02467497 -0.00490814 0.00000000
v -0.01496677 0.01000046 0.00038298
v -0.02091843 0.01397722 0.00000000
v 0.01800038 0.00000002 0.00038298
v 0.02515838 0.00000002 0.00000000
v 0.02249897 0.01503335 0.06402960
v 0.02085934 0.01393777 0.06996966
v 0.02317763 0.00960052 0.06996966
v 0.02499952 0.01035517 0.06402959
v -0.02653937 -0.00527902 0.06402959
v -0.02460523 -0.00489431 0.06996966
v -0.02508734 -0.00000001 0.06996966
v -0.02705930 -0.00000001 0.06402959
v 0.01913379 0.01913381 0.06402960
v 0.01773941 0.01773943 0.06996966
v -0.02499952 -0.01035513 0.06402960
v -0.02317763 -0.00960048 0.06996966
v 0.01503333 0.02249899 0.06402960
v 0.01393775 0.02085936 0.06996966
v -0.02249897 -0.01503338 0.06402960
v -0.02085934 -0.01393780 0.06996965
v 0.01035515 0.02499954 0.06402960
v 0.00960050 0.02317765 0.06996966
v 0.00489429 -0.02460528 0.06996965
v -0.00000000 -0.02508732 0.06996965
v -0.01913379 -0.01913384 0.06402960
v -0.01773941 -0.01773939 0.06996965
v 0.00527900 0.02653938 0.06402960
v 0.00489428 0.02460525 0.06996966
v 0.01035515 -0.02499950 0.06402960
v 0.00960050 -0.02317762 0.06996965
v -0.01503333 -0.02249902 0.06402960
v -0.01393776 -0.02085933 0.06996965
v -0.00000001 0.02705932 0.06402960
v -0.00000001 0.02508728 0.06996966
v 0.01503333 -0.02249895 0.06402960
v 0.01393775 -0.02085933 0.06996965
v -0.01035509 -0.02499950 0.06402960
v -0.00960044 -0.02317768 0.06996965
v -0.00527902 0.02653938 0.06402960
v -0.00489430 0.02460525 0.06996966
v 0.01913379 -0.01913377 0.06402960
v 0.01773941 -0.01773939 0.06996965
v -0.00527897 -0.02653935 0.06402960
v -0.00489425 -0.02460528 0.06996965
v -0.01035515 0.02499954 0.06402960
v -0.00960050 0.02317765 0.06996966
v 0.02249897 -0.01503331 0.06402960
v 0.02085934 -0.01393774 0.06996965
v -0.01503333 0.02249899 0.06402960
v -0.01393775 0.02085936 0.06996966
v 0.02499952 -0.01035513 0.06402960
v 0.02317763 -0.00960048 0.06996966
v -0.01913385 0.01913381 0.06402960
v -0.01773941 0.01773943 0.06996966
v 0.02653937 -0.00527900 0.06402959
v 0.02460523 -0.00489428 0.06996966
v -0.02249897 0.01503335 0.06402960
v -0.02085934 0.01393777 0.06996966
v 0.02705930 0.00000001 0.06402959
v 0.02508733 0.00000001 0.06996966
v -0.02499952 0.01035517 0.06402959
v -0.02317763 0.00960052 0.06996966
v 0.02653937 0.00527902 0.06402959
v 0.02460523 0.00489430 0.06996966
v -0.02653937 0.00527899 0.06402959
v -0.02460529 0.00489428 0.06996966
v 0.00823966 0.01989236 0.07627763
v 0.01196215 0.01790264 0.07627763
v 0.00420055 -0.02111757 0.07627763
v -0.00000000 -0.02153130 0.07627763
v -0.01522489 -0.01522493 0.07627763
v -0.01790262 -0.01196219 0.07627763
v 0.00420054 0.02111761 0.07627763
v 0.00823966 -0.01989232 0.07627763
v -0.01196215 -0.01790261 0.07627763
v -0.00000001 0.02153133 0.07627763
v 0.01196214 -0.01790261 0.07627763
v -0.00823966 -0.01989232 0.07627763
v -0.00420056 0.02111761 0.07627763
v 0.01522495 -0.01522493 0.07627763
v -0.00420051 -0.02111757 0.07627763
v -0.00823966 0.01989236 0.07627763
v 0.01790262 -0.01196213 0.07627763
v -0.01196214 0.01790264 0.07627763
v 0.01989234 -0.00823964 0.07627763
v -0.01522495 0.01522490 0.07627763
v 0.02111759 -0.00420054 0.07627763
v -0.01790262 0.01196216 0.07627763
v 0.02153131 0.00000001 0.07627763
v -0.01989234 0.00823968 0.07627763
v 0.02111759 0.00420056 0.07627763
v -0.02111759 0.00420054 0.07627763
v 0.01989234 0.00823968 0.07627763
v -0.02153132 -0.00000001 0.07627763
v 0.01790262 0.01196216 0.07627763
v -0.02111759 -0.00420056 0.07627763
v 0.01522495 0.01522497 0.07627763
v -0.01989234 -0.00823971 0.07627763
v -0.00387198 0.01946570 0.07995734
v -0.00000001 0.01984705 0.07995734
v 0.01403395 -0.01403400 0.07995734
v 0.01102640 -0.01650218 0.07995734
v -0.00387194 -0.01946566 0.07995734
v -0.00759512 -0.01833629 0.07995734
v -0.00759512 0.01833626 0.07995734
v 0.01650220 -0.01102639 0.07995734
v -0.00000000 -0.01984702 0.07995734
v -0.01102647 0.01650222 0.07995734
v 0.01833631 -0.00759510 0.07995734
v -0.01403402 0.01403397 0.07995734
v 0.01946568 -0.00387196 0.07995734
v -0.01650220 0.01102642 0.07995734
v 0.01984704 0.00000001 0.07995734
v -0.01833631 0.00759514 0.07995734
v 0.01946568 0.00387197 0.07995734
v -0.01946568 0.00387196 0.07995734
v 0.01833631 0.00759514 0.07995734
v -0.01984704 -0.00000001 0.07995734
v 0.01650220 0.01102642 0.07995734
v -0.01946568 -0.00387198 0.07995734
v 0.01403395 0.01403397 0.07995734
v -0.01833624 -0.00759517 0.07995734
v 0.01102640 0.01650222 0.07995734
v -0.01650220 -0.01102645 0.07995734
v 0.00759512 0.01833626 0.07995734
v 0.00387196 -0.01946566 0.07995734
v -0.01403396 -0.01403400 0.07995734
v 0.00387196 0.01946570 0.07995734
v 0.00759512 -0.01833629 0.07995734
v -0.01102641 -0.01650225 0.07995734
v -0.01351330 0.01351332 0.08864537
v -0.01061736 0.01588998 0.08864537
v 0.01874347 -0.00372831 0.08864537
v 0.01765595 -0.00731333 0.08864537
v -0.01588997 0.01061731 0.08864537
v 0.01911071 0.00000001 0.08864537
v -0.01765602 0.00731336 0.08864537
v 0.01874347 0.00372831 0.08864537
v -0.01874347 0.00372830 0.08864537
v 0.01765601 0.00731336 0.08864537
v -0.01911072 -0.00000001 0.08864537
v 0.01588996 0.01061731 0.08864537
v -0.01874347 -0.00372832 0.08864537
v 0.01351330 0.01351332 0.08864537
v -0.01765595 -0.00731339 0.08864537
v 0.01061736 0.01588998 0.08864537
v -0.01588997 -0.01061734 0.08864537
v 0.00731334 0.01765597 0.08864537
v 0.00372831 -0.01874351 0.08864537
v -0.00000000 -0.01911070 0.08864537
v -0.01351331 -0.01351329 0.08864537
v 0.00372831 0.01874348 0.08864537
v 0.00731334 -0.01765600 0.08864537
v -0.01061730 -0.01588995 0.08864537
v -0.00000001 0.01911073 0.08864537
v 0.01061736 -0.01588995 0.08864537
v -0.00731335 -0.01765600 0.08864537
v -0.00372832 0.01874348 0.08864537
v 0.01351330 -0.01351329 0.08864537
v -0.00372828 -0.01874351 0.08864537
v -0.00731334 0.01765597 0.08864537
v 0.01588996 -0.01061734 0.08864537
v -0.01628568 0.00323942 0.09463213
v -0.01534078 0.00635435 0.09463213
v 0.01534078 0.00635436 0.09463213
v 0.01628568 0.00323943 0.09463213
v -0.01660477 -0.00000001 0.09463213
v 0.01380632 0.00922508 0.09463213
v -0.01628568 -0.00323944 0.09463213
v 0.01174134 0.01174136 0.09463213
v -0.01534078 -0.00635437 0.09463213
v 0.00922513 0.01380634 0.09463213
v -0.01380633 -0.00922511 0.09463213
v 0.00635435 0.01534080 0.09463213
v 0.00323942 -0.01628567 0.09463213
v -0.00000000 -0.01660475 0.09463213
v -0.01174134 -0.01174132 0.09463213
v 0.00323942 0.01628570 0.09463213
v 0.00635436 -0.01534076 0.09463213
v -0.00922506 -0.01380637 0.09463213
v -0.00000001 0.01660472 0.09463213
v 0.00922512 -0.01380631 0.09463213
v -0.00635434 -0.01534076 0.09463213
v -0.00323943 0.01628570 0.09463213
v 0.01174134 -0.01174132 0.09463213
v -0.00323940 -0.01628567 0.09463213
v -0.00635437 0.01534080 0.09463213
v 0.01380632 -0.00922511 0.09463213
v -0.00922513 0.01380634 0.09463213
v 0.01534078 -0.00635436 0.09463213
v -0.01174134 0.01174129 0.09463213
v 0.01628568 -0.00323942 0.09463213
v -0.01380632 0.00922508 0.09463213
v 0.01660477 0.00000000 0.09463213
v -0.01170397 -0.00484794 0.10061889
v -0.01242481 -0.00247146 0.10061889
v 0.00703807 0.01053327 0.10061889
v 0.00895778 0.00895780 0.10061889
v -0.01053325 -0.00703812 0.10061889
v 0.00484793 0.01170392 0.10061889
v 0.00247145 -0.01242486 0.10061889
v -0.00000000 -0.01266822 0.10061889
v -0.00895778 -0.00895783 0.10061889
v 0.00247145 0.01242483 0.10061889
v 0.00484793 -0.01170395 0.10061889
v -0.00703807 -0.01053330 0.10061889
v -0.00000001 0.01266826 0.10061889
v 0.00703807 -0.01053323 0.10061889
v -0.00484791 -0.01170395 0.10061889
v -0.00247146 0.01242483 0.10061889
v 0.00895778 -0.00895783 0.10061889
v -0.00247144 -0.01242486 0.10061889
v -0.00484793 0.01170392 0.10061889
v 0.01053325 -0.00703812 0.10061889
v -0.00703813 0.01053327 0.10061889
v 0.01170396 -0.00484793 0.10061889
v -0.00895784 0.00895780 0.10061889
v 0.01242481 -0.00247145 0.10061889
v -0.01053325 0.00703809 0.10061889
v 0.01266824 0.00000000 0.10061889
v -0.01170397 0.00484793 0.10061889
v 0.01242481 0.00247145 0.10061889
v -0.01242481 0.00247145 0.10061889
v 0.01170396 0.00484793 0.10061889
v -0.01266824 -0.00000001 0.10061889
v 0.01053325 0.00703809 0.10061889
v -0.00600512 -0.00898734 0.10421866
v -0.00764309 -0.00764307 0.10421866
v -0.00000000 0.01080893 0.10421866
v 0.00210872 0.01060126 0.10421866
v 0.00600513 -0.00898734 0.10421866
v 0.00413641 -0.00998619 0.10421866
v -0.00413640 -0.00998619 0.10421866
v -0.00210873 0.01060126 0.10421866
v 0.00764309 -0.00764307 0.10421866
v -0.00210871 -0.01060129 0.10421866
v -0.00413642 0.00998616 0.10421866
v 0.00898735 -0.00600514 0.10421866
v -0.00000000 -0.01080896 0.10421866
v -0.00600514 0.00898731 0.10421866
v 0.00998621 -0.00413641 0.10421866
v -0.00764309 0.00764311 0.10421866
v 0.01060124 -0.00210872 0.10421866
v -0.00898736 0.00600513 0.10421866
v 0.01080898 0.00000000 0.10421866
v -0.00998621 0.00413640 0.10421866
v 0.01060124 0.00210872 0.10421866
v -0.01060131 0.00210872 0.10421866
v 0.00998621 0.00413641 0.10421866
v -0.01080898 -0.00000001 0.10421866
v 0.00898735 0.00600514 0.10421866
v -0.01060124 -0.00210873 0.10421866
v 0.00764309 0.00764311 0.10421866
v -0.00998615 -0.00413642 0.10421866
v 0.00600513 0.00898731 0.10421866
v -0.00898729 -0.00600514 0.10421866
v 0.00413641 0.00998616 0.10421866
v 0.00210872 -0.01060129 0.10421866
v -0.00000000 -0.01017632 0.10721002
v -0.00198528 -0.00998073 0.10721002
v -0.00565365 0.00846126 0.10721002
v -0.00389431 0.00940168 0.10721002
v 0.00940166 -0.00389430 0.10721002
v 0.00846131 -0.00565364 0.10721002
v -0.00719576 0.00719571 0.10721002
v 0.00998075 -0.00198530 0.10721002
v -0.00846131 0.00565364 0.10721002
v 0.01017627 0.00000000 0.10721002
v -0.00940167 0.00389429 0.10721002
v 0.00998075 0.00198529 0.10721002
v -0.00998075 0.00198529 0.10721002
v 0.00940166 0.00389430 0.10721002
v -0.01017627 -0.00000001 0.10721002
v 0.00846131 0.00565365 0.10721002
v -0.00998075 -0.00198531 0.10721002
v 0.00719576 0.00719571 0.10721002
v -0.00940167 -0.00389431 0.10721002
v 0.00565365 0.00846126 0.10721002
v -0.00846125 -0.00565366 0.10721002
v 0.00389430 0.00940168 0.10721002
v 0.00198529 -0.00998073 0.10721002
v -0.00719570 -0.00719574 0.10721002
v 0.00198530 0.00998077 0.10721002
v 0.00389430 -0.00940165 0.10721002
v -0.00565364 -0.00846129 0.10721002
v -0.00000000 0.01017629 0.10721002
v 0.00565365 -0.00846129 0.10721002
v -0.00389429 -0.00940165 0.10721002
v -0.00198530 0.00998077 0.10721002
v 0.00719576 -0.00719574 0.10721002
v -0.00940167 0.00389429 0.10999859
v -0.00846131 0.00565364 0.10999859
v 0.00998075 0.00198529 0.10999859
v 0.01017627 -0.00000000 0.10999859
v -0.00998075 0.00198529 0.10999859
v 0.00940166 0.00389430 0.10999859
v -0.01017627 -0.00000001 0.10999859
v 0.00846131 0.00565365 0.10999859
v -0.00998075 -0.00198531 0.10999859
v 0.00719576 0.00719571 0.10999859
v -0.00940167 -0.00389431 0.10999859
v 0.00565365 0.00846126 0.10999859
v -0.00846125 -0.00565366 0.10999859
v 0.00389430 0.00940168 0.10999859
v 0.00198529 -0.00998073 0.10999859
v -0.00000000 -0.01017632 0.10999859
v -0.00719570 -0.00719574 0.10999859
v 0.00198530 0.00998077 0.10999859
v 0.00389430 -0.00940165 0.10999859
v -0.00565364 -0.00846129 0.10999859
v -0.00000000 0.01017629 0.10999859
v 0.00565365 -0.00846129 0.10999859
v -0.00389429 -0.00940165 0.10999859
v -0.00198530 0.00998077 0.10999859
v 0.00719576 -0.00719574 0.10999859
v -0.00198528 -0.00998073 0.10999859
v -0.00389431 0.00940168 0.10999859
v 0.00846131 -0.00565364 0.10999859
v -0.00565365 0.00846126 0.10999859
v 0.00940166 -0.00389430 0.10999859
v -0.00719576 0.00719571 0.10999859
v 0.00998075 -0.00198530 0.10999859
v -0.01005303 -0.00199969 0.11233079
v -0.01024998 -0.00000001 0.11233079
v 0.00724783 0.00724784 0.11233079
v 0.00852254 0.00569459 0.11233079
v -0.00946979 -0.00392251 0.11233079
v 0.00569459 0.00852256 0.11233079
v -0.00852254 -0.00569460 0.11233079
v 0.00392250 0.00946974 0.11233079
v 0.00199967 -0.01005301 0.11233079
v -0.00000000 -0.01025003 0.11233079
v -0.00724783 -0.00724787 0.11233079
v 0.00199967 0.01005305 0.11233079
v 0.00392250 -0.00946977 0.11233079
v -0.00569458 -0.00852259 0.11233079
v -0.00000000 0.01025000 0.11233079
v 0.00569459 -0.00852259 0.11233079
v -0.00392249 -0.00946977 0.11233079
v -0.00199968 0.01005305 0.11233079
v 0.00724782 -0.00724787 0.11233079
v -0.00199966 -0.01005308 0.11233079
v -0.00392251 0.00946974 0.11233079
v 0.00852254 -0.00569459 0.11233079
v -0.00569460 0.00852256 0.11233079
v 0.00946978 -0.00392250 0.11233079
v -0.00724782 0.00724784 0.11233079
v 0.01005303 -0.00199967 0.11233079
v -0.00852254 0.00569458 0.11233079
v 0.01024998 -0.00000000 0.11233079
v -0.00946979 0.00392250 0.11233079
v 0.01005303 0.00199967 0.11233079
v -0.01005303 0.00199967 0.11233079
v 0.00946978 0.00392250 0.11233079
v 0.00202530 -0.01018184 0.11359835
v -0.00000000 -0.01038133 0.11359835
v -0.00734071 -0.00734069 0.11359835
v -0.00863174 -0.00576757 0.11359835
v 0.00202530 0.01018188 0.11359835
v 0.00397276 0.00959109 0.11359835
v 0.00397277 -0.00959112 0.11359835
v -0.00576755 -0.00863179 0.11359835
v -0.00000000 0.01038136 0.11359835
v 0.00576756 -0.00863179 0.11359835
v -0.00397275 -0.00959112 0.11359835
v -0.00202530 0.01018188 0.11359835
v 0.00734071 -0.00734069 0.11359835
v -0.00202528 -0.01018184 0.11359835
v -0.00397277 0.00959109 0.11359835
v 0.00863174 -0.00576756 0.11359835
v -0.00576757 0.00863176 0.11359835
v 0.00959107 -0.00397276 0.11359835
v -0.00734071 0.00734073 0.11359835
v 0.01018186 -0.00202530 0.11359835
v -0.00863174 0.00576755 0.11359835
v 0.01038134 -0.00000000 0.11359835
v -0.00959114 0.00397276 0.11359835
v 0.01018186 0.00202529 0.11359835
v -0.01018186 0.00202529 0.11359835
v 0.00959107 0.00397277 0.11359835
v -0.01038135 -0.00000001 0.11359835
v 0.00863174 0.00576756 0.11359835
v -0.01018186 -0.00202531 0.11359835
v 0.00734071 0.00734073 0.11359835
v -0.00959107 -0.00397278 0.11359835
v 0.00576756 0.00863176 0.11359835
v 0.00722962 -0.00722961 0.11446025
v 0.00568028 -0.00850114 0.11446025
v -0.00199464 -0.01002779 0.11446025
v -0.00391263 -0.00944598 0.11446025
v -0.00391265 0.00944595 0.11446025
v -0.00199465 0.01002776 0.11446025
v 0.00850115 -0.00568027 0.11446025
v -0.00000000 -0.01022422 0.11446025
v -0.00568028 0.00850111 0.11446025
v 0.00944593 -0.00391264 0.11446025
v -0.00722962 0.00722964 0.11446025
v 0.01002774 -0.00199465 0.11446025
v -0.00850115 0.00568027 0.11446025
v 0.01022424 -0.00000000 0.11446025
v -0.00944593 0.00391263 0.11446025
v 0.01002774 0.00199465 0.11446025
v -0.01002774 0.00199464 0.11446025
v 0.00944593 0.00391264 0.11446025
v -0.01022424 -0.00000001 0.11446025
v 0.00850115 0.00568028 0.11446025
v -0.01002774 -0.00199466 0.11446025
v 0.00722963 0.00722964 0.11446025
v -0.00944593 -0.00391266 0.11446025
v 0.00568028 0.00850111 0.11446025
v -0.00850115 -0.00568028 0.11446025
v 0.00391264 0.00944595 0.11446025
v 0.00199465 -0.01002779 0.11446025
v -0.00722963 -0.00722961 0.11446025
v 0.00199465 0.01002776 0.11446025
v 0.00391264 -0.00944598 0.11446025
v -0.00568027 -0.00850114 0.11446025
v -0.00000000 0.01022426 0.11446025
v 0.01077525 -0.00214333 0.11511935
v 0.01015007 -0.00420429 0.11511935
v -0.00913484 0.00610368 0.11511935
v -0.00776854 0.00776849 0.11511935
v 0.01098636 -0.00000000 0.11511935
v -0.01015007 0.00420428 0.11511935
v 0.01077525 0.00214333 0.11511935
v -0.01077525 0.00214332 0.11511935
v 0.01015007 0.00420429 0.11511935
v -0.01098637 -0.00000001 0.11511935
v 0.00913484 0.00610369 0.11511935
v -0.01077525 -0.00214334 0.11511935
v 0.00776854 0.00776849 0.11511935
v -0.01015007 -0.00420431 0.11511935
v 0.00610369 0.00913479 0.11511935
v -0.00913484 -0.00610370 0.11511935
v 0.00420429 0.01015009 0.11511935
v 0.00214333 -0.01077523 0.11511935
v -0.00000000 -0.01098635 0.11511935
v -0.00776854 -0.00776852 0.11511935
v 0.00214333 0.01077526 0.11511935
v 0.00420429 -0.01015006 0.11511935
v -0.00610368 -0.00913482 0.11511935
v -0.00000000 0.01098632 0.11511935
v 0.00610369 -0.00913482 0.11511935
v -0.00420428 -0.01015006 0.11511935
v -0.00214334 0.01077526 0.11511935
v 0.00776854 -0.00776852 0.11511935
v -0.00214332 -0.01077523 0.11511935
v -0.00420430 0.01015003 0.11511935
v 0.00913484 -0.00610369 0.11511935
v -0.00610369 0.00913479 0.11511935
v 0.01076400 0.00445859 0.11633622
v 0.01142700 0.00227297 0.11633622
v -0.01165086 -0.00000001 0.11633622
v -0.01142700 0.00227296 0.11633622
v 0.00968734 0.00647287 0.11633622
v -0.01142700 -0.00227298 0.11633622
v 0.00823842 0.00823838 0.11633622
v -0.01076400 -0.00445860 0.11633622
v 0.00647287 0.00968736 0.11633622
v -0.00968734 -0.00647288 0.11633622
v 0.00445859 0.01076402 0.11633622
v 0.00227297 -0.01142698 0.11633622
v -0.00000000 -0.01165084 0.11633622
v -0.00823836 -0.00823841 0.11633622
v 0.00227297 0.01142702 0.11633622
v 0.00445859 -0.01076398 0.11633622
v -0.00647286 -0.00968732 0.11633622
v -0.00000000 0.01165088 0.11633622
v 0.00647287 -0.00968732 0.11633622
v -0.00445858 -0.01076398 0.11633622
v -0.00227297 0.01142702 0.11633622
v 0.00823842 -0.00823841 0.11633622
v -0.00227295 -0.01142698 0.11633622
v -0.00445860 0.01076402 0.11633622
v 0.00968734 -0.00647287 0.11633622
v -0.00647288 0.00968736 0.11633622
v 0.01076400 -0.00445859 0.11633622
v -0.00823842 0.00823838 0.11633622
v 0.01142700 -0.00227297 0.11633622
v -0.00968734 0.00647286 0.11633622
v 0.01165086 -0.00000000 0.11633622
v -0.01076400 0.00445858 0.11633622
v 0.00641679 0.00960344 0.11861772
v 0.00816705 0.00816701 0.11861772
v -0.00960342 -0.00641681 0.11861772
v -0.01067073 -0.00441998 0.11861772
v 0.00441996 0.01067074 0.11861772
v 0.00225328 -0.01132799 0.11861772
v -0.00000000 -0.01154990 0.11861772
v -0.00816706 -0.00816704 0.11861772
v 0.00225328 0.01132802 0.11861772
v 0.00441997 -0.01067077 0.11861772
v -0.00641679 -0.00960341 0.11861772
v -0.00000000 0.01154993 0.11861772
v 0.00641679 -0.00960341 0.11861772
v -0.00441995 -0.01067077 0.11861772
v -0.00225328 0.01132802 0.11861772
v 0.00816705 -0.00816704 0.11861772
v -0.00225326 -0.01132799 0.11861772
v -0.00441997 0.01067074 0.11861772
v 0.00960342 -0.00641679 0.11861772
v -0.00641681 0.00960344 0.11861772
v 0.01067073 -0.00441997 0.11861772
v -0.00816705 0.00816701 0.11861772
v 0.01132800 -0.00225328 0.11861772
v -0.00960342 0.00641679 0.11861772
v 0.01154991 -0.00000000 0.11861772
v -0.01067073 0.00441996 0.11861772
v 0.01132800 0.00225328 0.11861772
v -0.01132801 0.00225327 0.11861772
v 0.01067073 0.00441997 0.11861772
v -0.01154991 -0.00000001 0.11861772
v 0.00960342 0.00641680 0.11861772
v -0.01132801 -0.00225329 0.11861772
v -0.00000000 0.01106724 0.12008802
v 0.00215911 0.01085463 0.12008802
v 0.00614863 -0.00920210 0.12008802
v 0.00423526 -0.01022481 0.12008802
v -0.00423524 -0.01022481 0.12008802
v -0.00614862 -0.00920210 0.12008802
v -0.00215912 0.01085463 0.12008802
v 0.00782574 -0.00782572 0.12008802
v -0.00215910 -0.01085459 0.12008802
v -0.00423526 0.01022478 0.12008802
v 0.00920211 -0.00614864 0.12008802
v -0.00000000 -0.01106727 0.12008802
v -0.00614864 0.00920207 0.12008802
v 0.01022482 -0.00423526 0.12008802
v -0.00782574 0.00782576 0.12008802
v 0.01085461 -0.00215911 0.12008802
v -0.00920212 0.00614863 0.12008802
v 0.01106722 -0.00000000 0.12008802
v -0.01022482 0.00423525 0.12008802
v 0.01085461 0.00215911 0.12008802
v -0.01085461 0.00215910 0.12008802
v 0.01022482 0.00423526 0.12008802
v -0.01106729 -0.00000001 0.12008802
v 0.00920211 0.00614863 0.12008802
v -0.01085461 -0.00215913 0.12008802
v 0.00782574 0.00782576 0.12008802
v -0.01022482 -0.00423526 0.12008802
v 0.00614863 0.00920207 0.12008802
v -0.00920205 -0.00614865 0.12008802
v 0.00423525 0.01022484 0.12008802
v 0.00215911 -0.01085459 0.12008802
v -0.00782574 -0.00782572 0.12008802
v -0.00579875 0.00867843 0.12176118
v -0.00399425 0.00964296 0.12176118
v 0.00964294 -0.00399424 0.12176118
v 0.00867841 -0.00579874 0.12176118
v -0.00738042 0.00738038 0.12176118
v 0.01023691 -0.00203625 0.12176118
v -0.00867841 0.00579874 0.12176118
v 0.01043744 -0.00000000 0.12176118
v -0.00964295 0.00399424 0.12176118
v 0.01023691 0.00203625 0.12176118
v -0.01023691 0.00203624 0.12176118
v 0.00964294 0.00399424 0.12176118
v -0.01043744 -0.00000001 0.12176118
v 0.00867841 0.00579875 0.12176118
v -0.01023691 -0.00203626 0.12176118
v 0.00738042 0.00738038 0.12176118
v -0.00964295 -0.00399426 0.12176118
v 0.00579874 0.00867843 0.12176118
v -0.00867841 -0.00579875 0.12176118
v 0.00399424 0.00964296 0.12176118
v 0.00203625 -0.01023690 0.12176118
v -0.00000000 -0.01043749 0.12176118
v -0.00738043 -0.00738041 0.12176118
v 0.00203625 0.01023693 0.12176118
v 0.00399424 -0.00964299 0.12176118
v -0.00579873 -0.00867846 0.12176118
v -0.00000000 0.01043746 0.12176118
v 0.00579874 -0.00867846 0.12176118
v -0.00399423 -0.00964299 0.12176118
v -0.00203625 0.01023693 0.12176118
v 0.00738042 -0.00738041 0.12176118
v -0.00203624 -0.01023690 0.12176118
v -0.00869401 0.00360117 0.12383988
v -0.00782437 0.00522809 0.12383988
v 0.00922948 0.00183586 0.12383988
v 0.00941031 -0.00000000 0.12383988
v -0.00922955 0.00183585 0.12383988
v 0.00869401 0.00360118 0.12383988
v -0.00941031 -0.00000001 0.12383988
v 0.00782437 0.00522810 0.12383988
v -0.00922948 -0.00183587 0.12383988
v 0.00665411 0.00665413 0.12383988
v -0.00869401 -0.00360119 0.12383988
v 0.00522810 0.00782439 0.12383988
v -0.00782437 -0.00522811 0.12383988
v 0.00360118 0.00869403 0.12383988
v 0.00183587 -0.00922953 0.12383988
v -0.00000000 -0.00941036 0.12383988
v -0.00665412 -0.00665410 0.12383988
v 0.00183586 0.00922950 0.12383988
v 0.00360118 -0.00869399 0.12383988
v -0.00522809 -0.00782442 0.12383988
v -0.00000000 0.00941033 0.12383988
v 0.00522810 -0.00782442 0.12383988
v -0.00360116 -0.00869399 0.12383988
v -0.00183587 0.00922950 0.12383988
v 0.00665411 -0.00665410 0.12383988
v -0.00183585 -0.00922953 0.12383988
v -0.00360118 0.00869403 0.12383988
v 0.00782437 -0.00522810 0.12383988
v -0.00522811 0.00782439 0.12383988
v 0.00869401 -0.00360118 0.12383988
v -0.00665411 0.00665413 0.12383988
v 0.00922948 -0.00183587 0.12383988
v -0.01114308 -0.00221651 0.12383988
v -0.01191996 -0.00000001 0.12258226
v 0.00842868 0.00842870 0.12258226
v 0.00944665 0.00631205 0.12383988
v -0.01101262 -0.00456160 0.12258226
v 0.00631205 0.00944666 0.12383988
v -0.00944665 -0.00631206 0.12383988
v 0.00456158 0.01101264 0.12258226
v 0.00221649 -0.01114306 0.12383988
v -0.00000000 -0.01192001 0.12258226
v -0.00842868 -0.00842873 0.12258226
v 0.00221649 0.01114310 0.12383988
v 0.00456158 -0.01101261 0.12258226
v -0.00631203 -0.00944663 0.12383988
v -0.00000001 0.01191998 0.12258226
v 0.00631205 -0.00944663 0.12383988
v -0.00456156 -0.01101267 0.12258226
v -0.00221650 0.01114310 0.12383988
v 0.00842868 -0.00842873 0.12258226
v -0.00221648 -0.01114306 0.12383988
v -0.00456159 0.01101264 0.12258226
v 0.00944665 -0.00631205 0.12383988
v -0.00631205 0.00944666 0.12383988
v 0.01101262 -0.00456158 0.12258226
v -0.00842868 0.00842870 0.12258226
v 0.01114308 -0.00221650 0.12383988
v -0.00944665 0.00631204 0.12383988
v 0.01191996 -0.00000000 0.12258226
v -0.01101262 0.00456157 0.12258226
v 0.01114308 0.00221649 0.12383988
v -0.01114308 0.00221649 0.12383988
v 0.01101262 0.00456158 0.12258226
v 0.00221649 -0.01114306 0.12450912
v -0.00000000 -0.01192001 0.12328446
v -0.00842868 -0.00842873 0.12328446
v -0.00944665 -0.00631206 0.12450912
v 0.00221649 0.01114310 0.12450912
v 0.00456158 0.01101264 0.12328446
v 0.00456158 -0.01101261 0.12328446
v -0.00631203 -0.00944663 0.12450912
v -0.00000001 0.01191998 0.12328446
v 0.00631205 -0.00944663 0.12450912
v -0.00456156 -0.01101267 0.12328446
v -0.00221650 0.01114310 0.12450912
v 0.00842868 -0.00842873 0.12328446
v -0.00221648 -0.01114306 0.12450912
v -0.00456159 0.01101264 0.12328446
v 0.00944665 -0.00631205 0.12450912
v -0.00631205 0.00944666 0.12450912
v 0.01101262 -0.00456158 0.12328446
v -0.00842868 0.00842870 0.12328446
v 0.01114308 -0.00221650 0.12450912
v -0.00944665 0.00631204 0.12450912
v 0.01191996 -0.00000000 0.12328446
v -0.01101262 0.00456157 0.12328446
v 0.01114308 0.00221649 0.12450912
v -0.01114308 0.00221649 0.12450912
v 0.01101262 0.00456158 0.12328446
v -0.01191996 -0.00000001 0.12328446
v 0.00944665 0.00631205 0.12450912
v -0.01114308 -0.00221651 0.12450912
v 0.00842868 0.00842870 0.12328446
v -0.01101262 -0.00456160 0.12328446
v 0.00631205 0.00944666 0.12450912
v 0.00820202 -0.00820207 0.12505675
v 0.00644431 -0.00964462 0.12505675
v -0.00226292 -0.01137661 0.12505675
v -0.00443890 -0.01071653 0.12505675
v -0.00443892 0.01071650 0.12505675
v -0.00226294 0.01137658 0.12505675
v 0.00964457 -0.00644431 0.12505675
v -0.00000000 -0.01159943 0.12505675
v -0.00644431 0.00964459 0.12505675
v 0.01071648 -0.00443892 0.12505675
v -0.00820209 0.00820204 0.12505675
v 0.01137656 -0.00226294 0.12505675
v -0.00964457 0.00644430 0.12505675
v 0.01159944 -0.00000000 0.12505675
v -0.01071648 0.00443891 0.12505675
v 0.01137656 0.00226294 0.12505675
v -0.01137656 0.00226293 0.12505675
v 0.01071648 0.00443891 0.12505675
v -0.01159944 -0.00000001 0.12505675
v 0.00964457 0.00644431 0.12505675
v -0.01137656 -0.00226296 0.12505675
v 0.00820202 0.00820204 0.12505675
v -0.01071648 -0.00443893 0.12505675
v 0.00644431 0.00964459 0.12505675
v -0.00964457 -0.00644432 0.12505675
v 0.00443892 0.01071650 0.12505675
v 0.00226294 -0.01137654 0.12505675
v -0.00820203 -0.00820207 0.12505675
v 0.00226293 0.01137658 0.12505675
v 0.00443892 -0.01071647 0.12505675
v -0.00644430 -0.00964462 0.12505675
v -0.00000000 0.01159946 0.12505675
v 0.01100086 -0.00218821 0.12615187
v 0.01036263 -0.00429233 0.12615187
v -0.00932607 0.00623148 0.12615187
v -0.00793117 0.00793119 0.12615187
v 0.01121640 -0.00000000 0.12615187
v -0.01036263 0.00429232 0.12615187
v 0.01100086 0.00218821 0.12615187
v -0.01100086 0.00218820 0.12615187
v 0.01036263 0.00429233 0.12615187
v -0.01121640 -0.00000001 0.12615187
v 0.00932607 0.00623150 0.12615187
v -0.01100086 -0.00218822 0.12615187
v 0.00793117 0.00793119 0.12615187
v -0.01036263 -0.00429234 0.12615187
v 0.00623149 0.00932609 0.12615187
v -0.00932607 -0.00623150 0.12615187
v 0.00429233 0.01036258 0.12615186
v 0.00218821 -0.01100091 0.12615187
v -0.00000000 -0.01121638 0.12615187
v -0.00793117 -0.00793122 0.12615187
v 0.00218821 0.01100088 0.12615186
v 0.00429233 -0.01036261 0.12615187
v -0.00623149 -0.00932612 0.12615187
v -0.00000000 0.01121642 0.12615186
v 0.00623149 -0.00932612 0.12615187
v -0.00429231 -0.01036261 0.12615187
v -0.00218821 0.01100088 0.12615186
v 0.00793117 -0.00793122 0.12615187
v -0.00218819 -0.01100091 0.12615187
v -0.00429233 0.01036258 0.12615186
v 0.00932607 -0.00623149 0.12615187
v -0.00623150 0.00932609 0.12615187
v 0.00989046 0.00409677 0.12706446
v 0.01049971 0.00208851 0.12706446
v -0.01070537 -0.00000001 0.12706446
v -0.01049971 0.00208851 0.12706446
v 0.00890123 0.00594760 0.12706446
v -0.01049971 -0.00208853 0.12706447
v 0.00756983 0.00756985 0.12706446
v -0.00989046 -0.00409679 0.12706447
v 0.00594760 0.00890118 0.12706446
v -0.00890123 -0.00594760 0.12706447
v 0.00409677 0.00989048 0.12706446
v 0.00208851 -0.01049969 0.12706447
v -0.00000000 -0.01070542 0.12706447
v -0.00756984 -0.00756988 0.12706447
v 0.00208852 0.01049966 0.12706446
v 0.00409677 -0.00989051 0.12706447
v -0.00594758 -0.00890121 0.12706447
v -0.00000000 0.01070539 0.12706446
v 0.00594760 -0.00890121 0.12706447
v -0.00409676 -0.00989051 0.12706447
v -0.00208852 0.01049966 0.12706446
v 0.00756983 -0.00756988 0.12706447
v -0.00208850 -0.01049969 0.12706447
v -0.00409678 0.00989048 0.12706446
v 0.00890123 -0.00594760 0.12706447
v -0.00594760 0.00890118 0.12706446
v 0.00989046 -0.00409677 0.12706447
v -0.00756983 0.00756985 0.12706446
v 0.01049971 -0.00208852 0.12706447
v -0.00890123 0.00594759 0.12706446
v 0.01070537 -0.00000000 0.12706446
v -0.00989046 0.00409677 0.12706446
v 0.00563400 0.00843188 0.12797706
v 0.00717074 0.00717075 0.12797706
v -0.00843187 -0.00563402 0.12797706
v -0.00936903 -0.00388079 0.12797706
v 0.00388077 0.00936899 0.12797706
v 0.00197840 -0.00994609 0.12797706
v -0.00000000 -0.01014096 0.12797706
v -0.00717074 -0.00717072 0.12797706
v 0.00197840 0.00994606 0.12797706
v 0.00388077 -0.00936902 0.12797706
v -0.00563400 -0.00843191 0.12797706
v -0.00000000 0.01014093 0.12797706
v 0.00563400 -0.00843191 0.12797706
v -0.00388076 -0.00936902 0.12797706
v -0.00197840 0.00994606 0.12797706
v 0.00717073 -0.00717072 0.12797706
v -0.00197839 -0.00994609 0.12797706
v -0.00388078 0.00936899 0.12797706
v 0.00843186 -0.00563401 0.12797706
v -0.00563401 0.00843188 0.12797706
v 0.00936903 -0.00388077 0.12797706
v -0.00717073 0.00717075 0.12797706
v 0.00994610 -0.00197840 0.12797706
v -0.00843187 0.00563400 0.12797706
v 0.01014097 -0.00000000 0.12797706
v -0.00936903 0.00388076 0.12797706
v 0.00994610 0.00197840 0.12797706
v -0.00994611 0.00197839 0.12797706
v 0.00936903 0.00388077 0.12797706
v -0.01014097 -0.00000001 0.12797706
v 0.00843186 0.00563400 0.12797706
v -0.00994611 -0.00197841 0.12797706
v -0.00000000 0.00915449 0.12901135
v 0.00178595 0.00897860 0.12901135
v 0.00508596 -0.00761168 0.12901135
v 0.00350327 -0.00845765 0.12901135
v -0.00350326 -0.00845765 0.12901135
v -0.00508595 -0.00761168 0.12901135
v -0.00178595 0.00897860 0.12901135
v 0.00647320 -0.00647320 0.12901135
v -0.00178594 -0.00897856 0.12901135
v -0.00350327 0.00845762 0.12901135
v 0.00761169 -0.00508596 0.12901135
v -0.00000000 -0.00915452 0.12901135
v -0.00508596 0.00761165 0.12901135
v 0.00845767 -0.00350327 0.12901135
v -0.00647320 0.00647319 0.12901135
v 0.00897858 -0.00178595 0.12901135
v -0.00761169 0.00508595 0.12901135
v 0.00915447 -0.00000000 0.12901135
v -0.00845767 0.00350326 0.12901135
v 0.00897858 0.00178595 0.12901135
v -0.00897858 0.00178594 0.12901135
v 0.00845767 0.00350327 0.12901135
v -0.00915447 -0.00000001 0.12901135
v 0.00761170 0.00508596 0.12901135
v -0.00897858 -0.00178596 0.12901135
v 0.00647320 0.00647320 0.12901135
v -0.00845767 -0.00350328 0.12901135
v 0.00508596 0.00761165 0.12901135
v -0.00761170 -0.00508597 0.12901135
v 0.00350327 0.00845762 0.12901135
v 0.00178595 -0.00897856 0.12901135
v -0.00647319 -0.00647321 0.12901135
v -0.00731335 0.00302927 0.12961975
v -0.00658183 0.00439782 0.12961974
v 0.00776379 0.00154431 0.12961975
v 0.00791590 -0.00000000 0.12961975
v 0.00731328 -0.00302927 0.12961975
v 0.00658183 -0.00439782 0.12961975
v -0.00776379 0.00154430 0.12961975
v 0.00731328 0.00302927 0.12961975
v -0.00791590 -0.00000001 0.12961975
v -0.00776379 -0.00154432 0.12961975
v -0.00731328 -0.00302929 0.12961975
v 0.00439782 0.00658179 0.12961974
v -0.00658177 -0.00439783 0.12961975
v 0.00302927 0.00731330 0.12961974
v -0.00559736 -0.00559737 0.12961975
v 0.00154431 0.00776375 0.12961974
v -0.00439782 -0.00658182 0.12961975
v -0.00000000 0.00791585 0.12961974
v -0.00302926 -0.00731333 0.12961975
v -0.00154432 0.00776375 0.12961974
v 0.00154431 -0.00776378 0.12961975
v -0.00000000 -0.00791588 0.12961975
v -0.00154430 -0.00776378 0.12961975
v -0.00302928 0.00731330 0.12961974
v 0.00302927 -0.00731333 0.12961975
v -0.00439783 0.00658179 0.12961974
v 0.00439782 -0.00658182 0.12961975
v -0.00559737 0.00559736 0.12961974
v 0.00559736 -0.00559736 0.12961975
v 0.00776379 -0.00154431 0.12961975
v 0.01503333 -0.02249896 0.00179277
v 0.01035515 -0.02499951 0.00179277
v -0.01035509 -0.02499951 0.00179277
v -0.01503333 -0.02249896 0.00179277
v -0.00527902 0.02653938 0.00179283
v -0.00000001 0.02705932 0.00179283
v 0.01913379 -0.01913378 0.00179277
v -0.00527897 -0.02653935 0.00179277
v -0.01035515 0.02499953 0.00179276
v 0.02249897 -0.01503332 0.00179277
v 0.00490816 -0.02467496 0.00000000
v 0.00351170 -0.01765451 0.00038298
v -0.01503333 0.02249898 0.00179276
v 0.02499952 -0.01035514 0.00179277
v -0.01913385 0.01913380 0.00179276
v 0.02653937 -0.00527899 0.00179277
v -0.02249897 0.01503334 0.00179276
v 0.02705930 0.00000002 0.00179277
v -0.02499952 0.01035516 0.00179276
v 0.02653937 0.00527902 0.00179276
v -0.02653937 0.00527900 0.00179276
v 0.02499952 0.01035516 0.00179276
v -0.02705930 -0.00000001 0.00179277
v 0.02249897 0.01503334 0.00179276
v -0.02653937 -0.00527901 0.00179277
v 0.01913379 0.01913380 0.00179276
v -0.02499952 -0.01035514 0.00179277
v 0.01503333 0.02249898 0.00179276
v -0.02249897 -0.01503332 0.00179277
v 0.01035515 0.02499953 0.00179276
v -0.01913379 -0.01913384 0.00179277
v 0.00527900 0.02653938 0.00179283
v -0.01076329 -0.00719178 0.00287677
v -0.00915343 -0.00915342 0.00287677
v 0.00495379 0.01195956 0.00287677
v 0.00252542 0.01269620 0.00287677
v 0.00252543 -0.01269611 0.00287677
v 0.00495379 -0.01195953 0.00287677
v -0.00719180 -0.01076327 0.00287677
v -0.00000001 0.01294489 0.00287677
v 0.00719179 -0.01076327 0.00287677
v -0.00495378 -0.01195953 0.00287677
v -0.00252543 0.01269620 0.00287677
v 0.00915343 -0.00915342 0.00287677
v -0.00252541 -0.01269618 0.00287677
v -0.00495380 0.01195956 0.00287677
v 0.01076328 -0.00719178 0.00287677
v -0.00000000 -0.01294487 0.00287677
v -0.00719179 0.01076330 0.00287677
v 0.01195954 -0.00495378 0.00287677
v -0.00915343 0.00915344 0.00287677
v 0.01269612 -0.00252541 0.00287677
v -0.01076328 0.00719181 0.00287677
v 0.01294488 0.00000001 0.00287677
v -0.01195955 0.00495380 0.00287677
v 0.01269612 0.00252544 0.00287677
v -0.01269619 0.00252543 0.00287677
v 0.01195954 0.00495381 0.00287677
v -0.01294488 0.00000000 0.00287677
v 0.01076329 0.00719181 0.00287677
v -0.01269613 -0.00252542 0.00287677
v 0.00915343 0.00915344 0.00287677
v -0.01195955 -0.00495379 0.00287677
v 0.00719179 0.01076330 0.00287677
v -0.00281377 -0.00679307 0.00381349
v -0.00143445 -0.00721148 0.00381349
v -0.00143446 0.00721150 0.00381348
v -0.00281378 0.00679310 0.00381348
v 0.00519919 -0.00519919 0.00381348
v 0.00611361 -0.00408497 0.00381348
v -0.00000000 -0.00735279 0.00381349
v -0.00408498 0.00611362 0.00381348
v 0.00679309 -0.00281377 0.00381348
v -0.00519920 0.00519921 0.00381348
v 0.00721149 -0.00143444 0.00381348
v -0.00611361 0.00408499 0.00381348
v 0.00735280 0.00000001 0.00381348
v -0.00679309 0.00281379 0.00381348
v 0.00721149 0.00143447 0.00381348
v -0.00721149 0.00143446 0.00381348
v 0.00679309 0.00281380 0.00381348
v -0.00735280 0.00000001 0.00381348
v 0.00611361 0.00408500 0.00381348
v -0.00721149 -0.00143445 0.00381348
v 0.00519919 0.00519921 0.00381348
v -0.00679309 -0.00281378 0.00381348
v 0.00408498 0.00611362 0.00381348
v -0.00611360 -0.00408498 0.00381348
v 0.00281378 0.00679310 0.00381348
v 0.00143445 -0.00721148 0.00381349
v -0.00519919 -0.00519919 0.00381348
v 0.00143445 0.00721150 0.00381348
v 0.00281378 -0.00679307 0.00381349
v -0.00408498 -0.00611360 0.00381349
v -0.00000000 0.00735281 0.00381348
v 0.00408498 -0.00611359 0.00381349
v 0.00000000 0.00000001 0.00564902
v 0.00517039 -0.02599329 0.00048295
v -0.00000000 -0.02650250 0.00048295
v 0.01014208 -0.02448510 0.00048295
v 0.01472399 -0.02203602 0.00048295
v 0.01874008 -0.01874007 0.00048295
v 0.02203604 -0.01472398 0.00048295
v 0.02448511 -0.01014207 0.00048295
v 0.02599330 -0.00517037 0.00048295
v 0.02650251 0.00000002 0.00048295
v 0.02599330 0.00517040 0.00048295
v 0.02448517 0.01014209 0.00048295
v 0.02203604 0.01472401 0.00048295
v 0.01874009 0.01874016 0.00048295
v 0.01472399 0.02203605 0.00048295
v 0.01014208 0.02448519 0.00048295
v 0.00517038 0.02599332 0.00048295
v -0.00000001 0.02650253 0.00048295
v -0.00517040 0.02599332 0.00048295
v -0.01014208 0.02448519 0.00048295
v -0.01472406 0.02203605 0.00048295
v -0.01874015 0.01874010 0.00048295
v -0.02203604 0.01472401 0.00048295
v -0.02448518 0.01014209 0.00048295
v -0.02599331 0.00517038 0.00048295
v -0.02650252 -0.00000001 0.00048295
v -0.02599331 -0.00517040 0.00048295
v -0.02448511 -0.01014207 0.00048295
v -0.02203604 -0.01472405 0.00048295
v -0.01874009 -0.01874014 0.00048295
v -0.01472400 -0.02203602 0.00048295
v -0.01014202 -0.02448516 0.00048295
v -0.00517035 -0.02599329 0.00048295
v -0.00378559 -0.00156805 0.12983106
v -0.00401877 -0.00079939 0.12983106
v 0.00227645 0.00340694 0.12983106
v -0.00340694 -0.00227646 0.12983106
v 0.00156805 0.00378559 0.12983106
v 0.00079938 -0.00401877 0.12983106
v -0.00000000 -0.00409750 0.12983106
v -0.00289737 -0.00289737 0.12983106
v 0.00079938 0.00401877 0.12983106
v 0.00156805 -0.00378560 0.12983106
v -0.00227644 -0.00340696 0.12983106
v -0.00000000 0.00409750 0.12983106
v 0.00227645 -0.00340695 0.12983106
v -0.00156804 -0.00378561 0.12983106
v -0.00079938 0.00401877 0.12983106
v 0.00289737 -0.00289738 0.12983106
v -0.00079938 -0.00401877 0.12983106
v -0.00156805 0.00378559 0.12983106
v 0.00340695 -0.00227645 0.12983106
v -0.00227645 0.00340694 0.12983106
v 0.00378560 -0.00156805 0.12983106
v -0.00289737 0.00289737 0.12983106
v 0.00401877 -0.00079938 0.12983106
v -0.00340695 0.00227644 0.12983106
v 0.00409750 -0.00000000 0.12983106
v -0.00378560 0.00156804 0.12983106
v 0.00401877 0.00079938 0.12983106
v -0.00401877 0.00079938 0.12983106
v 0.00378560 0.00156804 0.12983106
v -0.00409750 -0.00000001 0.12983106
v -0.00000000 -0.00000000 0.13000000
f 4 1 2
f 2 3 4
f 8 5 6
f 6 7 8
f 10 4 3
f 3 9 10
f 12 8 7
f 7 11 12
f 14 10 9
f 9 13 14
f 16 12 11
f 11 15 16
f 18 14 13
f 13 17 18
f 20 16 15
f 15 19 20
f 22 18 17
f 17 21 22
f 24 20 19
f 19 23 24
f 26 22 21
f 21 25 26
f 28 24 23
f 23 27 28
f 32 29 30
f 30 31 32
f 34 26 25
f 25 33 34
f 36 28 27
f 27 35 36
f 40 37 38
f 38 39 40
f 42 34 33
f 33 41 42
f 44 36 35
f 35 43 44
f 46 40 39
f 39 45 46
f 29 42 41
f 41 30 29
f 48 44 43
f 43 47 48
f 50 46 45
f 45 49 50
f 54 51 52
f 52 53 54
f 56 48 47
f 47 55 56
f 58 50 49
f 49 57 58
f 62 59 60
f 60 61 62
f 64 56 55
f 55 63 64
f 66 58 57
f 57 65 66
f 68 64 63
f 63 67 68
f 70 66 65
f 65 69 70
f 1 68 67
f 67 2 1
f 5 70 69
f 69 6 5
f 74 71 72
f 72 73 74
f 78 75 76
f 76 77 78
f 71 79 80
f 80 72 71
f 75 81 82
f 82 76 75
f 79 83 84
f 84 80 79
f 81 85 86
f 86 82 81
f 83 87 88
f 88 84 83
f 61 60 89
f 89 90 61
f 85 91 92
f 92 86 85
f 87 93 94
f 94 88 87
f 60 95 96
f 96 89 60
f 91 97 98
f 98 92 91
f 93 99 100
f 100 94 93
f 95 101 102
f 102 96 95
f 97 103 104
f 104 98 97
f 99 105 106
f 106 100 99
f 101 107 108
f 108 102 101
f 103 109 110
f 110 104 103
f 105 111 112
f 112 106 105
f 107 113 114
f 114 108 107
f 109 61 90
f 90 110 109
f 111 115 116
f 116 112 111
f 113 117 118
f 118 114 113
f 115 119 120
f 120 116 115
f 117 121 122
f 122 118 117
f 119 123 124
f 124 120 119
f 121 125 126
f 126 122 121
f 123 127 128
f 128 124 123
f 125 129 130
f 130 126 125
f 127 131 132
f 132 128 127
f 129 74 73
f 73 130 129
f 131 78 77
f 77 132 131
f 84 88 133
f 133 134 84
f 90 89 135
f 135 136 90
f 86 92 137
f 137 138 86
f 88 94 139
f 139 133 88
f 89 96 140
f 140 135 89
f 92 98 141
f 141 137 92
f 94 100 142
f 142 139 94
f 96 102 143
f 143 140 96
f 98 104 144
f 144 141 98
f 100 106 145
f 145 142 100
f 102 108 146
f 146 143 102
f 104 110 147
f 147 144 104
f 106 112 148
f 148 145 106
f 108 114 149
f 149 146 108
f 110 90 136
f 136 147 110
f 112 116 150
f 150 148 112
f 114 118 151
f 151 149 114
f 116 120 152
f 152 150 116
f 118 122 153
f 153 151 118
f 120 124 154
f 154 152 120
f 122 126 155
f 155 153 122
f 124 128 156
f 156 154 124
f 126 130 157
f 157 155 126
f 128 132 158
f 158 156 128
f 130 73 159
f 159 157 130
f 132 77 160
f 160 158 132
f 73 72 161
f 161 159 73
f 77 76 162
f 162 160 77
f 72 80 163
f 163 161 72
f 76 82 164
f 164 162 76
f 80 84 134
f 134 163 80
f 82 86 138
f 138 164 82
f 142 145 165
f 165 166 142
f 143 146 167
f 167 168 143
f 144 147 169
f 169 170 144
f 145 148 171
f 171 165 145
f 146 149 172
f 172 167 146
f 147 136 173
f 173 169 147
f 148 150 174
f 174 171 148
f 149 151 175
f 175 172 149
f 150 152 176
f 176 174 150
f 151 153 177
f 177 175 151
f 152 154 178
f 178 176 152
f 153 155 179
f 179 177 153
f 154 156 180
f 180 178 154
f 155 157 181
f 181 179 155
f 156 158 182
f 182 180 156
f 157 159 183
f 183 181 157
f 158 160 184
f 184 182 158
f 159 161 185
f 185 183 159
f 160 162 186
f 186 184 160
f 161 163 187
f 187 185 161
f 162 164 188
f 188 186 162
f 163 134 189
f 189 187 163
f 164 138 190
f 190 188 164
f 134 133 191
f 191 189 134
f 136 135 192
f 192 173 136
f 138 137 193
f 193 190 138
f 133 139 194
f 194 191 133
f 135 140 195
f 195 192 135
f 137 141 196
f 196 193 137
f 139 142 166
f 166 194 139
f 140 143 168
f 168 195 140
f 141 144 170
f 170 196 141
f 174 176 197
f 197 198 174
f 175 177 199
f 199 200 175
f 176 178 201
f 201 197 176
f 177 179 202
f 202 199 177
f 178 180 203
f 203 201 178
f 179 181 204
f 204 202 179
f 180 182 205
f 205 203 180
f 181 183 206
f 206 204 181
f 182 184 207
f 207 205 182
f 183 185 208
f 208 206 183
f 184 186 209
f 209 207 184
f 185 187 210
f 210 208 185
f 186 188 211
f 211 209 186
f 187 189 212
f 212 210 187
f 188 190 213
f 213 211 188
f 189 191 214
f 214 212 189
f 173 192 215
f 215 216 173
f 190 193 217
f 217 213 190
f 191 194 218
f 218 214 191
f 192 195 219
f 219 215 192
f 193 196 220
f 220 217 193
f 194 166 221
f 221 218 194
f 195 168 222
f 222 219 195
f 196 170 223
f 223 220 196
f 166 165 224
f 224 221 166
f 168 167 225
f 225 222 168
f 170 169 226
f 226 223 170
f 165 171 227
f 227 224 165
f 167 172 228
f 228 225 167
f 169 173 216
f 216 226 169
f 171 174 198
f 198 227 171
f 172 175 200
f 200 228 172
f 203 205 229
f 229 230 203
f 204 206 231
f 231 232 204
f 205 207 233
f 233 229 205
f 206 208 234
f 234 231 206
f 207 209 235
f 235 233 207
f 208 210 236
f 236 234 208
f 209 211 237
f 237 235 209
f 210 212 238
f 238 236 210
f 211 213 239
f 239 237 211
f 212 214 240
f 240 238 212
f 216 215 241
f 241 242 216
f 213 217 243
f 243 239 213
f 214 218 244
f 244 240 214
f 215 219 245
f 245 241 215
f 217 220 246
f 246 243 217
f 218 221 247
f 247 244 218
f 219 222 248
f 248 245 219
f 220 223 249
f 249 246 220
f 221 224 250
f 250 247 221
f 222 225 251
f 251 248 222
f 223 226 252
f 252 249 223
f 224 227 253
f 253 250 224
f 225 228 254
f 254 251 225
f 226 216 242
f 242 252 226
f 227 198 255
f 255 253 227
f 228 200 256
f 256 254 228
f 198 197 257
f 257 255 198
f 200 199 258
f 258 256 200
f 197 201 259
f 259 257 197
f 199 202 260
f 260 258 199
f 201 203 230
f 230 259 201
f 202 204 232
f 232 260 202
f 235 237 261
f 261 262 235
f 236 238 263
f 263 264 236
f 237 239 265
f 265 261 237
f 238 240 266
f 266 263 238
f 242 241 267
f 267 268 242
f 239 243 269
f 269 265 239
f 240 244 270
f 270 266 240
f 241 245 271
f 271 267 241
f 243 246 272
f 272 269 243
f 244 247 273
f 273 270 244
f 245 248 274
f 274 271 245
f 246 249 275
f 275 272 246
f 247 250 276
f 276 273 247
f 248 251 277
f 277 274 248
f 249 252 278
f 278 275 249
f 250 253 279
f 279 276 250
f 251 254 280
f 280 277 251
f 252 242 268
f 268 278 252
f 253 255 281
f 281 279 253
f 254 256 282
f 282 280 254
f 255 257 283
f 283 281 255
f 256 258 284
f 284 282 256
f 257 259 285
f 285 283 257
f 258 260 286
f 286 284 258
f 259 230 287
f 287 285 259
f 260 232 288
f 288 286 260
f 230 229 289
f 289 287 230
f 232 231 290
f 290 288 232
f 229 233 291
f 291 289 229
f 231 234 292
f 292 290 231
f 233 235 262
f 262 291 233
f 234 236 264
f 264 292 234
f 269 272 293
f 293 294 269
f 270 273 295
f 295 296 270
f 271 274 297
f 297 298 271
f 272 275 299
f 299 293 272
f 273 276 300
f 300 295 273
f 274 277 301
f 301 297 274
f 275 278 302
f 302 299 275
f 276 279 303
f 303 300 276
f 277 280 304
f 304 301 277
f 278 268 305
f 305 302 278
f 279 281 306
f 306 303 279
f 280 282 307
f 307 304 280
f 281 283 308
f 308 306 281
f 282 284 309
f 309 307 282
f 283 285 310
f 310 308 283
f 284 286 311
f 311 309 284
f 285 287 312
f 312 310 285
f 286 288 313
f 313 311 286
f 287 289 314
f 314 312 287
f 288 290 315
f 315 313 288
f 289 291 316
f 316 314 289
f 290 292 317
f 317 315 290
f 291 262 318
f 318 316 291
f 292 264 319
f 319 317 292
f 262 261 320
f 320 318 262
f 264 263 321
f 321 319 264
f 261 265 322
f 322 320 261
f 263 266 323
f 323 321 263
f 268 267 324
f 324 305 268
f 265 269 294
f 294 322 265
f 266 270 296
f 296 323 266
f 267 271 298
f 298 324 267
f 302 305 325
f 325 326 302
f 303 306 327
f 327 328 303
f 304 307 329
f 329 330 304
f 306 308 331
f 331 327 306
f 307 309 332
f 332 329 307
f 308 310 333
f 333 331 308
f 309 311 334
f 334 332 309
f 310 312 335
f 335 333 310
f 311 313 336
f 336 334 311
f 312 314 337
f 337 335 312
f 313 315 338
f 338 336 313
f 314 316 339
f 339 337 314
f 315 317 340
f 340 338 315
f 316 318 341
f 341 339 316
f 317 319 342
f 342 340 317
f 318 320 343
f 343 341 318
f 319 321 344
f 344 342 319
f 320 322 345
f 345 343 320
f 321 323 346
f 346 344 321
f 305 324 347
f 347 325 305
f 322 294 348
f 348 345 322
f 323 296 349
f 349 346 323
f 324 298 350
f 350 347 324
f 294 293 351
f 351 348 294
f 296 295 352
f 352 349 296
f 298 297 353
f 353 350 298
f 293 299 354
f 354 351 293
f 295 300 355
f 355 352 295
f 297 301 356
f 356 353 297
f 299 302 326
f 326 354 299
f 300 303 328
f 328 355 300
f 301 304 330
f 330 356 301
f 333 335 357
f 357 358 333
f 334 336 359
f 359 360 334
f 335 337 361
f 361 357 335
f 336 338 362
f 362 359 336
f 337 339 363
f 363 361 337
f 338 340 364
f 364 362 338
f 339 341 365
f 365 363 339
f 340 342 366
f 366 364 340
f 341 343 367
f 367 365 341
f 342 344 368
f 368 366 342
f 343 345 369
f 369 367 343
f 344 346 370
f 370 368 344
f 325 347 371
f 371 372 325
f 345 348 373
f 373 369 345
f 346 349 374
f 374 370 346
f 347 350 375
f 375 371 347
f 348 351 376
f 376 373 348
f 349 352 377
f 377 374 349
f 350 353 378
f 378 375 350
f 351 354 379
f 379 376 351
f 352 355 380
f 380 377 352
f 353 356 381
f 381 378 353
f 354 326 382
f 382 379 354
f 355 328 383
f 383 380 355
f 356 330 384
f 384 381 356
f 326 325 372
f 372 382 326
f 328 327 385
f 385 383 328
f 330 329 386
f 386 384 330
f 327 331 387
f 387 385 327
f 329 332 388
f 388 386 329
f 331 333 358
f 358 387 331
f 332 334 360
f 360 388 332
f 363 365 389
f 389 390 363
f 364 366 391
f 391 392 364
f 365 367 393
f 393 389 365
f 366 368 394
f 394 391 366
f 367 369 395
f 395 393 367
f 368 370 396
f 396 394 368
f 372 371 397
f 397 398 372
f 369 373 399
f 399 395 369
f 370 374 400
f 400 396 370
f 371 375 401
f 401 397 371
f 373 376 402
f 402 399 373
f 374 377 403
f 403 400 374
f 375 378 404
f 404 401 375
f 376 379 405
f 405 402 376
f 377 380 406
f 406 403 377
f 378 381 407
f 407 404 378
f 379 382 408
f 408 405 379
f 380 383 409
f 409 406 380
f 381 384 410
f 410 407 381
f 382 372 398
f 398 408 382
f 383 385 411
f 411 409 383
f 384 386 412
f 412 410 384
f 385 387 413
f 413 411 385
f 386 388 414
f 414 412 386
f 387 358 415
f 415 413 387
f 388 360 416
f 416 414 388
f 358 357 417
f 417 415 358
f 360 359 418
f 418 416 360
f 357 361 419
f 419 417 357
f 359 362 420
f 420 418 359
f 361 363 390
f 390 419 361
f 362 364 392
f 392 420 362
f 398 397 421
f 421 422 398
f 395 399 423
f 423 424 395
f 396 400 425
f 425 426 396
f 397 401 427
f 427 421 397
f 399 402 428
f 428 423 399
f 400 403 429
f 429 425 400
f 401 404 430
f 430 427 401
f 402 405 431
f 431 428 402
f 403 406 432
f 432 429 403
f 404 407 433
f 433 430 404
f 405 408 434
f 434 431 405
f 406 409 435
f 435 432 406
f 407 410 436
f 436 433 407
f 408 398 422
f 422 434 408
f 409 411 437
f 437 435 409
f 410 412 438
f 438 436 410
f 411 413 439
f 439 437 411
f 412 414 440
f 440 438 412
f 413 415 441
f 441 439 413
f 414 416 442
f 442 440 414
f 415 417 443
f 443 441 415
f 416 418 444
f 444 442 416
f 417 419 445
f 445 443 417
f 418 420 446
f 446 444 418
f 419 390 447
f 447 445 419
f 420 392 448
f 448 446 420
f 390 389 449
f 449 447 390
f 392 391 450
f 450 448 392
f 389 393 451
f 451 449 389
f 391 394 452
f 452 450 391
f 393 395 424
f 424 451 393
f 394 396 426
f 426 452 394
f 430 433 453
f 453 454 430
f 431 434 455
f 455 456 431
f 432 435 457
f 457 458 432
f 433 436 459
f 459 453 433
f 434 422 460
f 460 455 434
f 435 437 461
f 461 457 435
f 436 438 462
f 462 459 436
f 437 439 463
f 463 461 437
f 438 440 464
f 464 462 438
f 439 441 465
f 465 463 439
f 440 442 466
f 466 464 440
f 441 443 467
f 467 465 441
f 442 444 468
f 468 466 442
f 443 445 469
f 469 467 443
f 444 446 470
f 470 468 444
f 445 447 471
f 471 469 445
f 446 448 472
f 472 470 446
f 447 449 473
f 473 471 447
f 448 450 474
f 474 472 448
f 449 451 475
f 475 473 449
f 450 452 476
f 476 474 450
f 451 424 477
f 477 475 451
f 452 426 478
f 478 476 452
f 422 421 479
f 479 460 422
f 424 423 480
f 480 477 424
f 426 425 481
f 481 478 426
f 421 427 482
f 482 479 421
f 423 428 483
f 483 480 423
f 425 429 484
f 484 481 425
f 427 430 454
f 454 482 427
f 428 431 456
f 456 483 428
f 429 432 458
f 458 484 429
f 462 464 485
f 485 486 462
f 463 465 487
f 487 488 463
f 464 466 489
f 489 485 464
f 465 467 490
f 490 487 465
f 466 468 491
f 491 489 466
f 467 469 492
f 492 490 467
f 468 470 493
f 493 491 468
f 469 471 494
f 494 492 469
f 470 472 495
f 495 493 470
f 471 473 496
f 496 494 471
f 472 474 497
f 497 495 472
f 473 475 498
f 498 496 473
f 474 476 499
f 499 497 474
f 475 477 500
f 500 498 475
f 476 478 501
f 501 499 476
f 460 479 502
f 502 503 460
f 477 480 504
f 504 500 477
f 478 481 505
f 505 501 478
f 479 482 506
f 506 502 479
f 480 483 507
f 507 504 480
f 481 484 508
f 508 505 481
f 482 454 509
f 509 506 482
f 483 456 510
f 510 507 483
f 484 458 511
f 511 508 484
f 454 453 512
f 512 509 454
f 456 455 513
f 513 510 456
f 458 457 514
f 514 511 458
f 453 459 515
f 515 512 453
f 455 460 503
f 503 513 455
f 457 461 516
f 516 514 457
f 459 462 486
f 486 515 459
f 461 463 488
f 488 516 461
f 491 493 517
f 517 518 491
f 492 494 519
f 519 520 492
f 493 495 521
f 521 517 493
f 494 496 522
f 522 519 494
f 495 497 523
f 523 521 495
f 496 498 524
f 524 522 496
f 497 499 525
f 525 523 497
f 498 500 526
f 526 524 498
f 499 501 527
f 527 525 499
f 503 502 528
f 528 529 503
f 500 504 530
f 530 526 500
f 501 505 531
f 531 527 501
f 502 506 532
f 532 528 502
f 504 507 533
f 533 530 504
f 505 508 534
f 534 531 505
f 506 509 535
f 535 532 506
f 507 510 536
f 536 533 507
f 508 511 537
f 537 534 508
f 509 512 538
f 538 535 509
f 510 513 539
f 539 536 510
f 511 514 540
f 540 537 511
f 512 515 541
f 541 538 512
f 513 503 529
f 529 539 513
f 514 516 542
f 542 540 514
f 515 486 543
f 543 541 515
f 516 488 544
f 544 542 516
f 486 485 545
f 545 543 486
f 488 487 546
f 546 544 488
f 485 489 547
f 547 545 485
f 487 490 548
f 548 546 487
f 489 491 518
f 518 547 489
f 490 492 520
f 520 548 490
f 523 525 549
f 549 550 523
f 524 526 551
f 551 552 524
f 525 527 553
f 553 549 525
f 529 528 554
f 554 555 529
f 526 530 556
f 556 551 526
f 527 531 557
f 557 553 527
f 528 532 558
f 558 554 528
f 530 533 559
f 559 556 530
f 531 534 560
f 560 557 531
f 532 535 561
f 561 558 532
f 533 536 562
f 562 559 533
f 534 537 563
f 563 560 534
f 535 538 564
f 564 561 535
f 536 539 565
f 565 562 536
f 537 540 566
f 566 563 537
f 538 541 567
f 567 564 538
f 539 529 555
f 555 565 539
f 540 542 568
f 568 566 540
f 541 543 569
f 569 567 541
f 542 544 570
f 570 568 542
f 543 545 571
f 571 569 543
f 544 546 572
f 572 570 544
f 545 547 573
f 573 571 545
f 546 548 574
f 574 572 546
f 547 518 575
f 575 573 547
f 548 520 576
f 576 574 548
f 518 517 577
f 577 575 518
f 520 519 578
f 578 576 520
f 517 521 579
f 579 577 517
f 519 522 580
f 580 578 519
f 521 523 550
f 550 579 521
f 522 524 552
f 552 580 522
f 557 560 581
f 581 582 557
f 558 561 583
f 583 584 558
f 559 562 585
f 585 586 559
f 560 563 587
f 587 581 560
f 561 564 588
f 588 583 561
f 562 565 589
f 589 585 562
f 563 566 590
f 590 587 563
f 564 567 591
f 591 588 564
f 565 555 592
f 592 589 565
f 566 568 593
f 593 590 566
f 567 569 594
f 594 591 567
f 568 570 595
f 595 593 568
f 569 571 596
f 596 594 569
f 570 572 597
f 597 595 570
f 571 573 598
f 598 596 571
f 572 574 599
f 599 597 572
f 573 575 600
f 600 598 573
f 574 576 601
f 601 599 574
f 575 577 602
f 602 600 575
f 576 578 603
f 603 601 576
f 577 579 604
f 604 602 577
f 578 580 605
f 605 603 578
f 579 550 606
f 606 604 579
f 580 552 607
f 607 605 580
f 550 549 608
f 608 606 550
f 552 551 609
f 609 607 552
f 549 553 610
f 610 608 549
f 555 554 611
f 611 592 555
f 551 556 612
f 612 609 551
f 553 557 582
f 582 610 553
f 554 558 584
f 584 611 554
f 556 559 586
f 586 612 556
f 590 593 613
f 613 614 590
f 591 594 615
f 615 616 591
f 593 595 617
f 617 613 593
f 594 596 618
f 618 615 594
f 595 597 619
f 619 617 595
f 596 598 620
f 620 618 596
f 597 599 621
f 621 619 597
f 598 600 622
f 622 620 598
f 599 601 623
f 623 621 599
f 600 602 624
f 624 622 600
f 601 603 625
f 625 623 601
f 602 604 626
f 626 624 602
f 603 605 627
f 627 625 603
f 604 606 628
f 628 626 604
f 605 607 629
f 629 627 605
f 606 608 630
f 630 628 606
f 607 609 631
f 631 629 607
f 608 610 632
f 632 630 608
f 592 611 633
f 633 634 592
f 609 612 635
f 635 631 609
f 610 582 636
f 636 632 610
f 611 584 637
f 637 633 611
f 612 586 638
f 638 635 612
f 582 581 639
f 639 636 582
f 584 583 640
f 640 637 584
f 586 585 641
f 641 638 586
f 581 587 642
f 642 639 581
f 583 588 643
f 643 640 583
f 585 589 644
f 644 641 585
f 587 590 614
f 614 642 587
f 588 591 616
f 616 643 588
f 589 592 634
f 634 644 589
f 619 621 645
f 645 646 619
f 620 622 647
f 647 648 620
f 621 623 649
f 649 645 621
f 622 624 650
f 650 647 622
f 623 625 651
f 651 649 623
f 624 626 652
f 652 650 624
f 625 627 653
f 653 651 625
f 626 628 654
f 654 652 626
f 627 629 655
f 655 653 627
f 628 630 656
f 656 654 628
f 629 631 657
f 657 655 629
f 630 632 658
f 658 656 630
f 634 633 659
f 659 660 634
f 631 635 661
f 661 657 631
f 632 636 662
f 662 658 632
f 633 637 663
f 663 659 633
f 635 638 664
f 664 661 635
f 636 639 665
f 665 662 636
f 637 640 666
f 666 663 637
f 638 641 667
f 667 664 638
f 639 642 668
f 668 665 639
f 640 643 669
f 669 666 640
f 641 644 670
f 670 667 641
f 642 614 671
f 671 668 642
f 643 616 672
f 672 669 643
f 644 634 660
f 660 670 644
f 614 613 673
f 673 671 614
f 616 615 674
f 674 672 616
f 613 617 675
f 675 673 613
f 615 618 676
f 676 674 615
f 617 619 646
f 646 675 617
f 618 620 648
f 648 676 618
f 651 653 677
f 677 678 651
f 652 654 679
f 679 680 652
f 653 655 681
f 681 677 653
f 654 656 682
f 682 679 654
f 655 657 683
f 683 681 655
f 656 658 684
f 684 682 656
f 660 659 685
f 685 686 660
f 657 661 687
f 687 683 657
f 658 662 688
f 688 684 658
f 659 663 689
f 689 685 659
f 661 664 690
f 690 687 661
f 662 665 691
f 691 688 662
f 663 666 692
f 692 689 663
f 664 667 693
f 693 690 664
f 665 668 694
f 694 691 665
f 666 669 695
f 695 692 666
f 667 670 696
f 696 693 667
f 668 671 697
f 697 694 668
f 669 672 698
f 698 695 669
f 670 660 686
f 686 696 670
f 671 673 699
f 699 697 671
f 672 674 700
f 700 698 672
f 673 675 701
f 701 699 673
f 674 676 702
f 702 700 674
f 675 646 703
f 703 701 675
f 676 648 704
f 704 702 676
f 646 645 705
f 705 703 646
f 648 647 706
f 706 704 648
f 645 649 707
f 707 705 645
f 647 650 708
f 708 706 647
f 649 651 678
f 678 707 649
f 650 652 680
f 680 708 650
f 686 685 709
f 709 710 686
f 683 687 711
f 711 712 683
f 684 688 713
f 713 714 684
f 685 689 715
f 715 709 685
f 687 690 716
f 716 711 687
f 688 691 717
f 717 713 688
f 689 692 718
f 718 715 689
f 690 693 719
f 719 716 690
f 691 694 720
f 720 717 691
f 692 695 721
f 721 718 692
f 693 696 722
f 722 719 693
f 694 697 723
f 723 720 694
f 695 698 724
f 724 721 695
f 696 686 710
f 710 722 696
f 697 699 725
f 725 723 697
f 698 700 726
f 726 724 698
f 699 701 727
f 727 725 699
f 700 702 728
f 728 726 700
f 701 703 729
f 729 727 701
f 702 704 730
f 730 728 702
f 703 705 731
f 731 729 703
f 704 706 732
f 732 730 704
f 705 707 733
f 733 731 705
f 706 708 734
f 734 732 706
f 707 678 735
f 735 733 707
f 708 680 736
f 736 734 708
f 678 677 737
f 737 735 678
f 680 679 738
f 738 736 680
f 677 681 739
f 739 737 677
f 679 682 740
f 740 738 679
f 681 683 712
f 712 739 681
f 682 684 714
f 714 740 682
f 718 721 741
f 741 742 718
f 719 722 743
f 743 744 719
f 720 723 745
f 745 746 720
f 721 724 747
f 747 741 721
f 722 710 748
f 748 743 722
f 723 725 749
f 749 745 723
f 724 726 750
f 750 747 724
f 725 727 751
f 751 749 725
f 726 728 752
f 752 750 726
f 727 729 753
f 753 751 727
f 728 730 754
f 754 752 728
f 729 731 755
f 755 753 729
f 730 732 756
f 756 754 730
f 731 733 757
f 757 755 731
f 732 734 758
f 758 756 732
f 733 735 759
f 759 757 733
f 734 736 760
f 760 758 734
f 735 737 761
f 761 759 735
f 736 738 762
f 762 760 736
f 737 739 763
f 763 761 737
f 738 740 764
f 764 762 738
f 739 712 765
f 765 763 739
f 740 714 766
f 766 764 740
f 710 709 767
f 767 748 710
f 712 711 768
f 768 765 712
f 714 713 769
f 769 766 714
f 709 715 770
f 770 767 709
f 711 716 771
f 771 768 711
f 713 717 772
f 772 769 713
f 715 718 742
f 742 770 715
f 716 719 744
f 744 771 716
f 717 720 746
f 746 772 717
f 750 752 773
f 773 774 750
f 751 753 775
f 775 776 751
f 752 754 777
f 777 773 752
f 753 755 778
f 778 775 753
f 754 756 779
f 779 777 754
f 755 757 780
f 780 778 755
f 756 758 781
f 781 779 756
f 757 759 782
f 782 780 757
f 758 760 783
f 783 781 758
f 759 761 784
f 784 782 759
f 760 762 785
f 785 783 760
f 761 763 786
f 786 784 761
f 762 764 787
f 787 785 762
f 763 765 788
f 788 786 763
f 764 766 789
f 789 787 764
f 748 767 790
f 790 791 748
f 765 768 792
f 792 788 765
f 766 769 793
f 793 789 766
f 767 770 794
f 794 790 767
f 768 771 795
f 795 792 768
f 769 772 796
f 796 793 769
f 770 742 797
f 797 794 770
f 771 744 798
f 798 795 771
f 772 746 799
f 799 796 772
f 742 741 800
f 800 797 742
f 744 743 801
f 801 798 744
f 746 745 802
f 802 799 746
f 741 747 803
f 803 800 741
f 743 748 791
f 791 801 743
f 745 749 804
f 804 802 745
f 747 750 774
f 774 803 747
f 749 751 776
f 776 804 749
f 779 781 805
f 805 806 779
f 780 782 807
f 807 808 780
f 781 783 809
f 809 805 781
f 782 784 810
f 810 807 782
f 783 785 811
f 811 809 783
f 784 786 812
f 812 810 784
f 785 787 813
f 813 811 785
f 786 788 814
f 814 812 786
f 787 789 815
f 815 813 787
f 791 790 816
f 816 817 791
f 788 792 818
f 818 814 788
f 789 793 819
f 819 815 789
f 790 794 820
f 820 816 790
f 792 795 821
f 821 818 792
f 793 796 822
f 822 819 793
f 794 797 823
f 823 820 794
f 795 798 824
f 824 821 795
f 796 799 825
f 825 822 796
f 797 800 826
f 826 823 797
f 798 801 827
f 827 824 798
f 799 802 828
f 828 825 799
f 800 803 829
f 829 826 800
f 801 791 817
f 817 827 801
f 802 804 830
f 830 828 802
f 803 774 831
f 831 829 803
f 804 776 832
f 832 830 804
f 774 773 833
f 833 831 774
f 776 775 834
f 834 832 776
f 773 777 835
f 835 833 773
f 775 778 836
f 836 834 775
f 777 779 806
f 806 835 777
f 778 780 808
f 808 836 778
f 811 813 837
f 837 838 811
f 812 814 839
f 839 840 812
f 813 815 841
f 841 837 813
f 817 816 842
f 842 843 817
f 814 818 844
f 844 839 814
f 815 819 845
f 845 841 815
f 816 820 846
f 846 842 816
f 818 821 847
f 847 844 818
f 819 822 848
f 848 845 819
f 820 823 849
f 849 846 820
f 821 824 850
f 850 847 821
f 822 825 851
f 851 848 822
f 823 826 852
f 852 849 823
f 824 827 853
f 853 850 824
f 825 828 854
f 854 851 825
f 826 829 855
f 855 852 826
f 827 817 843
f 843 853 827
f 828 830 856
f 856 854 828
f 829 831 857
f 857 855 829
f 830 832 858
f 858 856 830
f 831 833 859
f 859 857 831
f 832 834 860
f 860 858 832
f 833 835 861
f 861 859 833
f 834 836 862
f 862 860 834
f 835 806 863
f 863 861 835
f 836 808 864
f 864 862 836
f 806 805 865
f 865 863 806
f 808 807 866
f 866 864 808
f 805 809 867
f 867 865 805
f 807 810 868
f 868 866 807
f 809 811 838
f 838 867 809
f 810 812 840
f 840 868 810
f 845 848 869
f 869 870 845
f 846 849 871
f 871 872 846
f 847 850 873
f 873 874 847
f 848 851 875
f 875 869 848
f 849 852 876
f 876 871 849
f 850 853 877
f 877 873 850
f 851 854 878
f 878 875 851
f 852 855 879
f 879 876 852
f 853 843 880
f 880 877 853
f 854 856 881
f 881 878 854
f 855 857 882
f 882 879 855
f 856 858 883
f 883 881 856
f 857 859 884
f 884 882 857
f 858 860 885
f 885 883 858
f 859 861 886
f 886 884 859
f 860 862 887
f 887 885 860
f 861 863 888
f 888 886 861
f 862 864 889
f 889 887 862
f 863 865 890
f 890 888 863
f 864 866 891
f 891 889 864
f 865 867 892
f 892 890 865
f 866 868 893
f 893 891 866
f 867 838 894
f 894 892 867
f 868 840 895
f 895 893 868
f 838 837 896
f 896 894 838
f 840 839 897
f 897 895 840
f 837 841 898
f 898 896 837
f 843 842 899
f 899 880 843
f 839 844 900
f 900 897 839
f 841 845 870
f 870 898 841
f 842 846 872
f 872 899 842
f 844 847 874
f 874 900 844
f 885 887 901
f 901 902 885
f 886 888 903
f 903 904 886
f 879 882 905
f 905 906 879
f 887 889 907
f 907 901 887
f 888 890 908
f 908 903 888
f 889 891 909
f 909 907 889
f 890 892 54
f 54 908 890
f 891 893 910
f 910 909 891
f 892 894 51
f 51 54 892
f 893 895 911
f 911 910 893
f 894 896 912
f 912 51 894
f 895 897 913
f 913 911 895
f 896 898 914
f 914 912 896
f 897 900 915
f 915 913 897
f 898 870 916
f 916 914 898
f 900 874 917
f 917 915 900
f 870 869 918
f 918 916 870
f 874 873 919
f 919 917 874
f 869 875 920
f 920 918 869
f 880 899 921
f 921 922 880
f 873 877 923
f 923 919 873
f 875 878 924
f 924 920 875
f 899 872 925
f 925 921 899
f 877 880 922
f 922 923 877
f 878 881 926
f 926 924 878
f 872 871 927
f 927 925 872
f 881 883 928
f 928 926 881
f 871 876 929
f 929 927 871
f 882 884 930
f 930 905 882
f 883 885 902
f 902 928 883
f 884 886 904
f 904 930 884
f 876 879 906
f 906 929 876
f 932 931 101
f 101 95 932
f 934 933 103
f 103 97 934
f 936 935 105
f 105 99 936
f 931 937 107
f 107 101 931
f 933 938 109
f 109 103 933
f 935 939 111
f 111 105 935
f 937 940 113
f 113 107 937
f 37 941 942
f 942 38 37
f 939 943 115
f 115 111 939
f 940 944 117
f 117 113 940
f 943 945 119
f 119 115 943
f 944 946 121
f 121 117 944
f 945 947 123
f 123 119 945
f 946 948 125
f 125 121 946
f 947 949 127
f 127 123 947
f 948 950 129
f 129 125 948
f 949 951 131
f 131 127 949
f 950 952 74
f 74 129 950
f 951 953 78
f 78 131 951
f 952 954 71
f 71 74 952
f 953 955 75
f 75 78 953
f 954 956 79
f 79 71 954
f 955 957 81
f 81 75 955
f 956 958 83
f 83 79 956
f 957 959 85
f 85 81 957
f 958 960 87
f 87 83 958
f 938 62 61
f 61 109 938
f 959 961 91
f 91 85 959
f 960 962 93
f 93 87 960
f 59 932 95
f 95 60 59
f 961 934 97
f 97 91 961
f 962 936 99
f 99 93 962
f 25 21 963
f 963 964 25
f 27 23 965
f 965 966 27
f 38 942 967
f 967 968 38
f 33 25 964
f 964 969 33
f 35 27 966
f 966 970 35
f 39 38 968
f 968 971 39
f 41 33 969
f 969 972 41
f 43 35 970
f 970 973 43
f 45 39 971
f 971 974 45
f 30 41 972
f 972 975 30
f 47 43 973
f 973 976 47
f 49 45 974
f 974 977 49
f 31 30 975
f 975 978 31
f 55 47 976
f 976 979 55
f 57 49 977
f 977 980 57
f 63 55 979
f 979 981 63
f 65 57 980
f 980 982 65
f 67 63 981
f 981 983 67
f 69 65 982
f 982 984 69
f 2 67 983
f 983 985 2
f 6 69 984
f 984 986 6
f 3 2 985
f 985 987 3
f 7 6 986
f 986 988 7
f 9 3 987
f 987 989 9
f 11 7 988
f 988 990 11
f 13 9 989
f 989 991 13
f 15 11 990
f 990 992 15
f 17 13 991
f 991 993 17
f 19 15 992
f 992 994 19
f 21 17 993
f 993 963 21
f 23 19 994
f 994 965 23
f 942 31 978
f 978 967 942
f 975 972 995
f 995 996 975
f 976 973 997
f 997 998 976
f 977 974 999
f 999 1000 977
f 978 975 996
f 996 1001 978
f 979 976 998
f 998 1002 979
f 980 977 1000
f 1000 1003 980
f 981 979 1002
f 1002 1004 981
f 982 980 1003
f 1003 1005 982
f 983 981 1004
f 1004 1006 983
f 984 982 1005
f 1005 1007 984
f 985 983 1006
f 1006 1008 985
f 986 984 1007
f 1007 1009 986
f 987 985 1008
f 1008 1010 987
f 988 986 1009
f 1009 1011 988
f 989 987 1010
f 1010 1012 989
f 990 988 1011
f 1011 1013 990
f 991 989 1012
f 1012 1014 991
f 992 990 1013
f 1013 1015 992
f 993 991 1014
f 1014 1016 993
f 994 992 1015
f 1015 1017 994
f 963 993 1016
f 1016 1018 963
f 965 994 1017
f 1017 1019 965
f 967 978 1001
f 1001 1020 967
f 964 963 1018
f 1018 1021 964
f 966 965 1019
f 1019 1022 966
f 968 967 1020
f 1020 1023 968
f 969 964 1021
f 1021 1024 969
f 970 966 1022
f 1022 1025 970
f 971 968 1023
f 1023 1026 971
f 972 969 1024
f 1024 995 972
f 973 970 1025
f 1025 997 973
f 974 971 1026
f 1026 999 974
f 1004 1027 1006
f 1005 1027 1007
f 1006 1027 1008
f 1007 1027 1009
f 1008 1027 1010
f 1009 1027 1011
f 1010 1027 1012
f 1011 1027 1013
f 1012 1027 1014
f 1013 1027 1015
f 1014 1027 1016
f 1015 1027 1017
f 1016 1027 1018
f 1017 1027 1019
f 1001 1027 1020
f 1018 1027 1021
f 1019 1027 1022
f 1020 1027 1023
f 1021 1027 1024
f 1022 1027 1025
f 1023 1027 1026
f 1024 1027 995
f 1025 1027 997
f 1026 1027 999
f 995 1027 996
f 997 1027 998
f 999 1027 1000
f 996 1027 1001
f 998 1027 1002
f 1000 1027 1003
f 1002 1027 1004
f 1003 1027 1005
f 32 941 1028
f 1028 1029 32
f 1029 1028 59
f 59 62 1029
f 941 37 1030
f 1030 1028 941
f 1028 1030 932
f 932 59 1028
f 37 40 1031
f 1031 1030 37
f 1030 1031 931
f 931 932 1030
f 40 46 1032
f 1032 1031 40
f 1031 1032 937
f 937 931 1031
f 46 50 1033
f 1033 1032 46
f 1032 1033 940
f 940 937 1032
f 50 58 1034
f 1034 1033 50
f 1033 1034 944
f 944 940 1033
f 58 66 1035
f 1035 1034 58
f 1034 1035 946
f 946 944 1034
f 66 70 1036
f 1036 1035 66
f 1035 1036 948
f 948 946 1035
f 70 5 1037
f 1037 1036 70
f 1036 1037 950
f 950 948 1036
f 5 8 1038
f 1038 1037 5
f 1037 1038 952
f 952 950 1037
f 8 12 1039
f 1039 1038 8
f 1038 1039 954
f 954 952 1038
f 12 16 1040
f 1040 1039 12
f 1039 1040 956
f 956 954 1039
f 16 20 1041
f 1041 1040 16
f 1040 1041 958
f 958 956 1040
f 20 24 1042
f 1042 1041 20
f 1041 1042 960
f 960 958 1041
f 24 28 1043
f 1043 1042 24
f 1042 1043 962
f 962 960 1042
f 28 36 1044
f 1044 1043 28
f 1043 1044 936
f 936 962 1043
f 36 44 1045
f 1045 1044 36
f 1044 1045 935
f 935 936 1044
f 44 48 1046
f 1046 1045 44
f 1045 1046 939
f 939 935 1045
f 48 56 1047
f 1047 1046 48
f 1046 1047 943
f 943 939 1046
f 56 64 1048
f 1048 1047 56
f 1047 1048 945
f 945 943 1047
f 64 68 1049
f 1049 1048 64
f 1048 1049 947
f 947 945 1048
f 68 1 1050
f 1050 1049 68
f 1049 1050 949
f 949 947 1049
f 1 4 1051
f 1051 1050 1
f 1050 1051 951
f 951 949 1050
f 4 10 1052
f 1052 1051 4
f 1051 1052 953
f 953 951 1051
f 10 14 1053
f 1053 1052 10
f 1052 1053 955
f 955 953 1052
f 14 18 1054
f 1054 1053 14
f 1053 1054 957
f 957 955 1053
f 18 22 1055
f 1055 1054 18
f 1054 1055 959
f 959 957 1054
f 22 26 1056
f 1056 1055 22
f 1055 1056 961
f 961 959 1055
f 26 34 1057
f 1057 1056 26
f 1056 1057 934
f 934 961 1056
f 34 42 1058
f 1058 1057 34
f 1057 1058 933
f 933 934 1057
f 42 29 1059
f 1059 1058 42
f 1058 1059 938
f 938 933 1058
f 29 32 1029
f 1029 1059 29
f 1059 1029 62
f 62 938 1059
f 941 32 31
f 31 942 941
f 910 911 1060
f 1060 1061 910
f 51 912 1062
f 1062 52 51
f 911 913 1063
f 1063 1060 911
f 912 914 1064
f 1064 1062 912
f 922 921 1065
f 1065 1066 922
f 913 915 1067
f 1067 1063 913
f 914 916 1068
f 1068 1064 914
f 921 925 1069
f 1069 1065 921
f 915 917 1070
f 1070 1067 915
f 916 918 1071
f 1071 1068 916
f 925 927 1072
f 1072 1069 925
f 917 919 1073
f 1073 1070 917
f 918 920 1074
f 1074 1071 918
f 927 929 1075
f 1075 1072 927
f 919 923 1076
f 1076 1073 919
f 920 924 1077
f 1077 1074 920
f 929 906 1078
f 1078 1075 929
f 923 922 1066
f 1066 1076 923
f 924 926 1079
f 1079 1077 924
f 906 905 1080
f 1080 1078 906
f 926 928 1081
f 1081 1079 926
f 905 930 1082
f 1082 1080 905
f 928 902 1083
f 1083 1081 928
f 930 904 1084
f 1084 1082 930
f 902 901 1085
f 1085 1083 902
f 904 903 1086
f 1086 1084 904
f 901 907 1087
f 1087 1085 901
f 903 908 1088
f 1088 1086 903
f 907 909 1089
f 1089 1087 907
f 908 54 53
f 53 1088 908
f 909 910 1061
f 1061 1089 909
f 1082 1084 1090
f 1074 1077 1090
f 1082 1090 1080
f 1085 1090 1083
f 1078 1090 1075
f 1064 1068 1090
f 1079 1090 1077
f 1075 1090 1072
f 52 1090 53
f 1068 1071 1090
f 1076 1066 1090
f 1073 1090 1070
f 1080 1090 1078
f 1065 1069 1090
f 1070 1090 1067
f 1062 1090 52
f 1072 1090 1069
f 1084 1086 1090
f 1060 1090 1061
f 1063 1090 1060
f 1073 1076 1090
f 1087 1090 1085
f 1067 1090 1063
f 1081 1090 1079
f 1087 1089 1090
f 1071 1074 1090
f 1088 1090 1086
f 1066 1065 1090
f 1064 1090 1062
f 1083 1090 1081
f 1089 1061 1090
f 53 1090 1088