# https://github.com/mikedh/trimesh
v -0.00330958 0.00951929 0.00149869
v -0.00336285 0.01473445 0.00149869
v -0.00000013 0.00945649 0.00149869
v 0.00336259 0.01473445 0.00149869
v 0.00330932 0.00951929 0.00149869
v 0.00325604 0.00430413 0.00149869
v -0.00000013 0.00399796 0.00149869
v -0.00325630 0.00430413 0.00149869
v -0.00000013 0.01453816 0.00149869
v -0.00152639 -0.03323052 0.02410185
v -0.00152639 -0.03313249 0.02310670
v 0.00152613 -0.03313249 0.02310670
v 0.00152613 -0.03323052 0.02410185
v -0.00152639 -0.03284222 0.02214977
v 0.00152613 -0.03284222 0.02214977
v -0.00152639 -0.03237084 0.02126787
v 0.00152613 -0.03237084 0.02126787
v -0.00152639 -0.03173647 0.02049488
v 0.00152613 -0.03173647 0.02049488
v -0.00152639 -0.03096348 0.01986051
v 0.00152613 -0.03096348 0.01986051
v -0.00152639 -0.03008158 0.01938913
v 0.00152613 -0.03008158 0.01938913
v -0.00152639 -0.02912470 0.01909886
v 0.00152613 -0.02912470 0.01909886
v -0.00152639 -0.02812950 0.01900087
v 0.00152613 -0.02812950 0.01900087
v -0.00152639 -0.02713435 0.01909886
v 0.00152613 -0.02713435 0.01909886
v -0.00152639 -0.02617747 0.01938913
v 0.00152613 -0.02617747 0.01938913
v -0.00152639 -0.02529557 0.01986051
v 0.00152613 -0.02529557 0.01986051
v -0.00152639 -0.02452258 0.02049488
v 0.00152613 -0.02452258 0.02049488
v -0.00152639 -0.02388821 0.02126787
v 0.00152613 -0.02388821 0.02126787
v -0.00152639 -0.02341683 0.02214977
v 0.00152613 -0.02341683 0.02214977
v -0.00152639 -0.02312651 0.02310670
v 0.00152613 -0.02312651 0.02310670
v -0.00152639 -0.02302852 0.02410185
v 0.00152613 -0.02302852 0.02410185
v -0.00152639 -0.02312651 0.02509700
v 0.00152613 -0.02312651 0.02509700
v -0.00152639 -0.02341683 0.02605393
v 0.00152613 -0.02341683 0.02605393
v -0.00152639 -0.02388821 0.02693583
v 0.00152613 -0.02388821 0.02693583
v -0.00152639 -0.02452258 0.02770882
v 0.00152613 -0.02452258 0.02770882
v -0.00152639 -0.02529557 0.02834318
v 0.00152613 -0.02529557 0.02834318
v -0.00152639 -0.02617747 0.02881456
v 0.00152613 -0.02617747 0.02881456
v -0.00152639 -0.02713435 0.02910484
v 0.00152613 -0.02713435 0.02910484
v -0.00152639 -0.02812950 0.02920283
v 0.00152613 -0.02812950 0.02920283
v -0.00152639 -0.02912470 0.02910484
v 0.00152613 -0.02912470 0.02910484
v -0.00152639 -0.03008158 0.02881456
v 0.00152613 -0.03008158 0.02881456
v -0.00152639 -0.03096348 0.02834318
v 0.00152613 -0.03096348 0.02834318
v -0.00152639 -0.03173647 0.02770882
v 0.00152613 -0.03173647 0.02770882
v -0.00152639 -0.03237084 0.02693583
v 0.00152613 -0.03237084 0.02693583
v -0.00152639 -0.03284222 0.02605393
v 0.00152613 -0.03284222 0.02605393
v -0.00152639 -0.03313249 0.02509700
v 0.00152613 -0.03313249 0.02509700
v -0.03314378 -0.00813036 0.02244337
v -0.03349559 -0.00819472 0.02343832
v -0.03396415 -0.00346279 0.02464893
v -0.03358490 -0.00336741 0.02367831
v -0.02378296 -0.04728075 0.01436482
v -0.01925978 -0.05075310 0.01436482
v -0.02026370 -0.03714370 0.02082604
v -0.02663827 -0.03300381 0.02062596
v -0.01005289 -0.05527582 0.01436482
v -0.01039319 -0.04134853 0.02110619
v -0.02147132 -0.00769831 0.03087302
v -0.02858667 -0.00540770 0.02939228
v -0.01101563 -0.01030856 0.03261385
v -0.02705717 -0.04394518 0.01389112
v -0.03139051 -0.02945454 0.01799927
v 0.02378270 -0.04728075 0.01436482
v 0.02705691 -0.04394518 0.01389112
v 0.03139026 -0.02945454 0.01799927
v 0.02663801 -0.03300381 0.02062596
v 0.01005263 -0.05527582 0.01436482
v 0.01925952 -0.05075310 0.01436482
v 0.02026344 -0.03714370 0.02082604
v 0.01039293 -0.04134853 0.02110619
v 0.00590676 -0.05573531 0.01436444
v 0.00640845 -0.04168403 0.02116065
v 0.02147106 -0.00769831 0.03087302
v 0.01101537 -0.01030856 0.03261385
v 0.00647251 -0.01079988 0.03296005
v 0.02858642 -0.00540770 0.02939228
v -0.03279197 -0.00806605 0.02144848
v -0.03320565 -0.00327203 0.02270768
v 0.03320539 -0.00327203 0.02270768
v 0.03358464 -0.00336741 0.02367831
v 0.03314352 -0.00813036 0.02244337
v 0.03279171 -0.00806605 0.02144848
v 0.03396389 -0.00346279 0.02464893
v 0.03349533 -0.00819472 0.02343832
v -0.00590614 -0.05573544 0.01436444
v -0.00175938 -0.05619502 0.01436402
v -0.00192207 -0.04206184 0.02122197
v -0.00640774 -0.04168411 0.02116069
v 0.00029377 -0.05629242 0.01436393
v 0.00176093 -0.05619485 0.01436402
v 0.00192383 -0.04206168 0.02122197
v 0.00032091 -0.04214268 0.02123512
v 0.00029773 -0.02175869 0.02928641
v 0.00192767 -0.02163322 0.02924468
v 0.00192961 -0.01129116 0.03330622
v 0.00029802 -0.01139551 0.03337976
v -0.00647176 -0.01079997 0.03296014
v 0.00032112 -0.03624953 0.02356278
v 0.00192493 -0.03614909 0.02354394
v 0.00192527 -0.03436902 0.02424304
v 0.00096257 -0.03447532 0.02426353
v -0.02378296 -0.04693084 0.01348153
v -0.01925978 -0.05040319 0.01348153
v 0.02705691 -0.04359526 0.01300783
v 0.03139026 -0.02910463 0.01711593
v -0.00192321 -0.03614931 0.02354402
v -0.00032045 -0.03624966 0.02356278
v -0.00096182 -0.03447545 0.02426357
v -0.00192355 -0.03436923 0.02424309
v -0.00029314 -0.05629255 0.01436393
v -0.00032029 -0.04214276 0.02123512
v -0.00192591 -0.02163343 0.02924481
v -0.00029436 -0.02175928 0.02928662
v -0.00029466 -0.01139602 0.03338010
v -0.00192784 -0.01129141 0.03330638
v -0.00192553 -0.02372700 0.02842259
v -0.00095908 -0.02385715 0.02845795
v -0.00032045 -0.03589975 0.02267949
v -0.00096182 -0.03412553 0.02338028
v 0.00096358 -0.02385652 0.02845778
v 0.00192725 -0.02372679 0.02842251
v 0.00000097 -0.01149987 0.03345327
v -0.00029466 -0.01104615 0.03249681
v 0.00000097 -0.01114996 0.03256998
v 0.00000017 -0.03600010 0.02269828
v -0.00000013 -0.03423175 0.02340076
v 0.00032112 -0.03589966 0.02267949
v 0.00096257 -0.03412545 0.02338024
v -0.00000013 -0.02363638 0.02760977
v 0.00096358 -0.02350665 0.02757445
v 0.00029773 -0.02140878 0.02840312
v 0.00000097 -0.02153425 0.02844480
v -0.00095908 -0.02350723 0.02757466
v -0.00029436 -0.02140937 0.02840333
v 0.01925952 -0.05040319 0.01348153
v 0.02378270 -0.04693084 0.01348153
v -0.00000013 -0.02398629 0.02849306
v -0.03139051 -0.02910463 0.01711593
v -0.02705717 -0.04359526 0.01300783
v 0.01005263 -0.05492590 0.01348153
v -0.00029314 -0.05594264 0.01348060
v -0.00032029 -0.04179285 0.02035183
v -0.00192355 -0.03401932 0.02335980
v -0.00192553 -0.02337708 0.02753930
v 0.00192725 -0.02337687 0.02753917
v 0.00192527 -0.03401916 0.02335971
v -0.01005289 -0.05492590 0.01348153
v 0.00032091 -0.04179277 0.02035183
v -0.03311744 -0.00784481 0.02255498
v 0.00000017 -0.03634997 0.02358158
v 0.00176093 -0.05584494 0.01348073
v 0.00590676 -0.05538544 0.01348111
v 0.00029377 -0.05594255 0.01348060
v -0.00175938 -0.05584515 0.01348073
v -0.00590614 -0.05538552 0.01348111
v 0.00000097 -0.02188416 0.02932814
v 0.00029802 -0.01104564 0.03249643
v -0.00000013 -0.03458162 0.02428405
v 0.03311718 -0.00784481 0.02255498
v 0.02107378 0.05204116 0.00000000
v 0.02107378 0.05204116 0.00038123
v 0.02001081 0.05214586 0.00038123
v 0.02001081 0.05214586 0.00000000
v 0.01898868 0.05245590 0.00038123
v 0.01898868 0.05245590 0.00000000
v 0.01804672 0.05295940 0.00038123
v 0.01804672 0.05295940 0.00000000
v 0.01722105 0.05363701 0.00038123
v 0.01722105 0.05363701 0.00000000
v 0.01654348 0.05446264 0.00038123
v 0.01654348 0.05446264 0.00000000
v 0.01603998 0.05540464 0.00038123
v 0.01603998 0.05540464 0.00000000
v 0.01572990 0.05642677 0.00038123
v 0.01572990 0.05642677 0.00000000
v 0.01562520 0.05748974 0.00038123
v 0.01562520 0.05748974 0.00000000
v 0.01572990 0.05855266 0.00038123
v 0.01572990 0.05855266 0.00000000
v 0.01603998 0.05957479 0.00038123
v 0.01603998 0.05957479 0.00000000
v 0.01654348 0.06051679 0.00038123
v 0.01654348 0.06051679 0.00000000
v 0.01722105 0.06134243 0.00038123
v 0.01722105 0.06134243 0.00000000
v 0.01804672 0.06202004 0.00038123
v 0.01804672 0.06202004 0.00000000
v 0.01898868 0.06252354 0.00038123
v 0.01898868 0.06252354 0.00000000
v 0.02001081 0.06283357 0.00038123
v 0.02001081 0.06283357 0.00000000
v 0.02107378 0.06293827 0.00038123
v 0.02107378 0.06293827 0.00000000
v 0.02213674 0.06283357 0.00038123
v 0.02213674 0.06283357 0.00000000
v 0.02315887 0.06252354 0.00038123
v 0.02315887 0.06252354 0.00000000
v 0.02410083 0.06202004 0.00038123
v 0.02410083 0.06202004 0.00000000
v 0.02492651 0.06134243 0.00038123
v 0.02492651 0.06134243 0.00000000
v 0.02560408 0.06051679 0.00038123
v 0.02560408 0.06051679 0.00000000
v 0.02610757 0.05957479 0.00038123
v 0.02610757 0.05957479 0.00000000
v 0.02641766 0.05855266 0.00038123
v 0.02641766 0.05855266 0.00000000
v 0.02652235 0.05748974 0.00038123
v 0.02652235 0.05748974 0.00000000
v 0.02641766 0.05642677 0.00038123
v 0.02641766 0.05642677 0.00000000
v 0.02610757 0.05540464 0.00038123
v 0.02610757 0.05540464 0.00000000
v 0.02560408 0.05446268 0.00038123
v 0.02560408 0.05446268 0.00000000
v 0.02492651 0.05363701 0.00038123
v 0.02492651 0.05363701 0.00000000
v 0.02410083 0.05295940 0.00038123
v 0.02410083 0.05295940 0.00000000
v 0.02315887 0.05245590 0.00038123
v 0.02315887 0.05245590 0.00000000
v 0.02213674 0.05214586 0.00038123
v 0.02213674 0.05214586 0.00000000
v -0.00000013 -0.04744357 0.00000000
v -0.00000013 -0.04744357 0.00038123
v -0.00106310 -0.04733887 0.00038123
v -0.00106310 -0.04733887 0.00000000
v -0.00208518 -0.04702879 0.00038123
v -0.00208518 -0.04702879 0.00000000
v -0.00302719 -0.04652530 0.00038123
v -0.00302719 -0.04652530 0.00000000
v -0.00385286 -0.04584773 0.00038123
v -0.00385286 -0.04584773 0.00000000
v -0.00453043 -0.04502205 0.00038123
v -0.00453043 -0.04502205 0.00000000
v -0.00503393 -0.04408005 0.00038123
v -0.00503393 -0.04408005 0.00000000
v -0.00534401 -0.04305796 0.00038123
v -0.00534401 -0.04305796 0.00000000
v -0.00544870 -0.04199500 0.00038123
v -0.00544870 -0.04199500 0.00000000
v -0.00534401 -0.04093203 0.00038123
v -0.00534401 -0.04093203 0.00000000
v -0.00503393 -0.03990994 0.00038123
v -0.00503393 -0.03990994 0.00000000
v -0.00453043 -0.03896794 0.00038123
v -0.00453043 -0.03896794 0.00000000
v -0.00385286 -0.03814226 0.00038123
v -0.00385286 -0.03814226 0.00000000
v -0.00302719 -0.03746470 0.00038123
v -0.00302719 -0.03746470 0.00000000
v -0.00208518 -0.03696120 0.00038123
v -0.00208518 -0.03696120 0.00000000
v -0.00106310 -0.03665112 0.00038123
v -0.00106310 -0.03665112 0.00000000
v -0.00000013 -0.03654642 0.00038123
v -0.00000013 -0.03654642 0.00000000
v 0.00106284 -0.03665112 0.00038123
v 0.00106284 -0.03665112 0.00000000
v 0.00208497 -0.03696120 0.00038123
v 0.00208497 -0.03696120 0.00000000
v 0.00302693 -0.03746470 0.00038123
v 0.00302693 -0.03746470 0.00000000
v 0.00385260 -0.03814226 0.00038123
v 0.00385260 -0.03814226 0.00000000
v 0.00453017 -0.03896794 0.00038123
v 0.00453017 -0.03896794 0.00000000
v 0.00503367 -0.03990994 0.00038123
v 0.00503367 -0.03990994 0.00000000
v 0.00534375 -0.04093203 0.00038123
v 0.00534375 -0.04093203 0.00000000
v 0.00544844 -0.04199500 0.00038123
v 0.00544844 -0.04199500 0.00000000
v 0.00534375 -0.04305796 0.00038123
v 0.00534375 -0.04305796 0.00000000
v 0.00503367 -0.04408005 0.00038123
v 0.00503367 -0.04408005 0.00000000
v 0.00453017 -0.04502205 0.00038123
v 0.00453017 -0.04502205 0.00000000
v 0.00385260 -0.04584769 0.00038123
v 0.00385260 -0.04584769 0.00000000
v 0.00302693 -0.04652530 0.00038123
v 0.00302693 -0.04652530 0.00000000
v 0.00208497 -0.04702879 0.00038123
v 0.00208497 -0.04702879 0.00000000
v 0.00106284 -0.04733887 0.00038123
v 0.00106284 -0.04733887 0.00000000
v -0.02107404 0.05204116 0.00000000
v -0.02107404 0.05204116 0.00038123
v -0.02213700 0.05214586 0.00038123
v -0.02213700 0.05214586 0.00000000
v -0.02315909 0.05245590 0.00038123
v -0.02315909 0.05245590 0.00000000
v -0.02410109 0.05295940 0.00038123
v -0.02410109 0.05295940 0.00000000
v -0.02492677 0.05363701 0.00038123
v -0.02492677 0.05363701 0.00000000
v -0.02560434 0.05446264 0.00038123
v -0.02560434 0.05446264 0.00000000
v -0.02610783 0.05540464 0.00038123
v -0.02610783 0.05540464 0.00000000
v -0.02641791 0.05642677 0.00038123
v -0.02641791 0.05642677 0.00000000
v -0.02652261 0.05748974 0.00038123
v -0.02652261 0.05748974 0.00000000
v -0.02641791 0.05855266 0.00038123
v -0.02641791 0.05855266 0.00000000
v -0.02610783 0.05957479 0.00038123
v -0.02610783 0.05957479 0.00000000
v -0.02560434 0.06051679 0.00038123
v -0.02560434 0.06051679 0.00000000
v -0.02492677 0.06134243 0.00038123
v -0.02492677 0.06134243 0.00000000
v -0.02410109 0.06202004 0.00038123
v -0.02410109 0.06202004 0.00000000
v -0.02315909 0.06252354 0.00038123
v -0.02315909 0.06252354 0.00000000
v -0.02213700 0.06283357 0.00038123
v -0.02213700 0.06283357 0.00000000
v -0.02107404 0.06293827 0.00038123
v -0.02107404 0.06293827 0.00000000
v -0.02001107 0.06283357 0.00038123
v -0.02001107 0.06283357 0.00000000
v -0.01898894 0.06252354 0.00038123
v -0.01898894 0.06252354 0.00000000
v -0.01804698 0.06202004 0.00038123
v -0.01804698 0.06202004 0.00000000
v -0.01722130 0.06134243 0.00038123
v -0.01722130 0.06134243 0.00000000
v -0.01654374 0.06051679 0.00038123
v -0.01654374 0.06051679 0.00000000
v -0.01604020 0.05957479 0.00038123
v -0.01604020 0.05957479 0.00000000
v -0.01573016 0.05855266 0.00038123
v -0.01573016 0.05855266 0.00000000
v -0.01562546 0.05748974 0.00038123
v -0.01562546 0.05748974 0.00000000
v -0.01573016 0.05642677 0.00038123
v -0.01573016 0.05642677 0.00000000
v -0.01604024 0.05540464 0.00038123
v -0.01604024 0.05540464 0.00000000
v -0.01654374 0.05446268 0.00038123
v -0.01654374 0.05446268 0.00000000
v -0.01722130 0.05363701 0.00038123
v -0.01722130 0.05363701 0.00000000
v -0.01804698 0.05295940 0.00038123
v -0.01804698 0.05295940 0.00000000
v -0.01898894 0.05245590 0.00038123
v -0.01898894 0.05245590 0.00000000
v -0.02001107 0.05214586 0.00038123
v -0.02001107 0.05214586 0.00000000
v 0.03093316 -0.02968543 0.01638083
v 0.03279171 -0.00814668 0.02203817
v -0.00000013 -0.04087576 0.01455549
v -0.03279197 -0.00814668 0.02203817
v -0.03093342 -0.02968543 0.01638083
v -0.02636540 -0.04466590 0.01235213
v 0.01903049 -0.05127675 0.01245046
v 0.02306648 -0.04795761 0.01250943
v -0.00976784 -0.05557001 0.01261311
v -0.00000013 -0.05678011 0.01253299
v -0.02306674 -0.04795761 0.01250943
v 0.02636514 -0.04466590 0.01235213
v 0.00976758 -0.05557001 0.01261311
v -0.01903075 -0.05127675 0.01245046
v -0.03362574 0.05199155 0.00038607
v -0.03488499 0.05242222 0.02456788
v -0.03158848 0.06413278 0.01751275
v -0.02971569 0.06952660 0.00038607
v 0.02417219 0.07390821 0.00038607
v 0.02645702 0.06791622 0.01808230
v 0.03158822 0.06413278 0.01751275
v 0.02971543 0.06952660 0.00038607
v -0.02735309 0.05478663 0.00038607
v -0.02417245 0.07390821 0.00038607
v 0.02937028 0.05492960 0.02931128
v 0.03488473 0.05242222 0.02456788
v -0.01131770 0.05856328 0.03253284
v -0.00000013 0.05877246 0.03337323
v -0.00000013 0.07434229 0.01870263
v -0.01019510 0.07377123 0.01856253
v 0.01054003 0.05839697 0.00038607
v -0.00000013 0.05853968 0.00038607
v -0.00000013 0.08088999 0.00038607
v 0.00931441 0.08028142 0.00038607
v -0.00931467 0.08028142 0.00038607
v -0.02645728 0.06791622 0.01808230
v -0.01987738 0.07180077 0.01828242
v -0.01862921 0.07828977 0.00038607
v -0.02937054 0.05492960 0.02931128
v -0.02205511 0.05753888 0.03079197
v -0.01054029 0.05839697 0.00038607
v -0.02108044 0.05758175 0.00038607
v 0.02735283 0.05478663 0.00038607
v 0.02108018 0.05758175 0.00038607
v 0.01862895 0.07828977 0.00038607
v 0.01131744 0.05856328 0.03253284
v 0.02205485 0.05753888 0.03079197
v 0.01987712 0.07180077 0.01828242
v 0.01019484 0.07377123 0.01856253
v -0.00000013 0.00934555 0.03780647
v 0.01142943 0.01012339 0.03682598
v 0.01173053 0.02788334 0.03792170
v -0.00000013 0.02746216 0.03890218
v -0.02228077 0.01166263 0.03480499
v -0.01142969 0.01012339 0.03682598
v -0.01173079 0.02788334 0.03792170
v -0.02286439 0.02849524 0.03590071
v -0.00336285 0.01473445 0.00038607
v -0.01067845 0.01912481 0.00038607
v -0.01084763 0.02823856 0.00038607
v -0.00542388 0.02798888 0.00038607
v 0.02228051 0.01166263 0.03480499
v 0.02286413 0.02849524 0.03590071
v 0.02727229 0.01250938 0.00038607
v 0.02101810 0.01179678 0.00038607
v 0.02169491 0.02904447 0.00038607
v 0.02815044 0.02843569 0.00038607
v -0.02966115 0.01250938 0.03312418
v -0.03044261 0.02809181 0.03421989
v 0.00336259 0.01473445 0.00038607
v -0.00000013 0.01453816 0.00038607
v -0.00000013 0.02773924 0.00038607
v 0.00542362 0.02798888 0.00038607
v 0.02966089 0.01250938 0.03312418
v 0.03524552 0.01313291 0.02780129
v 0.03616700 0.02758767 0.02875775
v 0.03044235 0.02809180 0.03421989
v -0.02727255 0.01250938 0.00038607
v -0.03352669 0.01322201 0.00038607
v -0.03460627 0.02782691 0.00038607
v -0.02815070 0.02843569 0.00038607
v -0.03524578 0.01313291 0.02780129
v -0.03616725 0.02758767 0.02875775
v 0.03411574 0.03990921 0.00038607
v 0.03586501 0.04012197 0.02790135
v 0.03460601 0.02782691 0.00038607
v 0.03362548 0.05199155 0.00038607
v 0.02138753 0.04331311 0.00038607
v 0.01069370 0.04331779 0.00038607
v -0.00000013 0.04318401 0.03792650
v 0.01163031 0.04329490 0.03694602
v -0.02267237 0.04310094 0.03492503
v -0.01163057 0.04329490 0.03694602
v -0.00000013 0.04313946 0.00038607
v -0.01069396 0.04331779 0.00038607
v 0.02267211 0.04310094 0.03492503
v 0.02775163 0.04161114 0.00038607
v -0.02138779 0.04331311 0.00038607
v -0.03018248 0.04161114 0.03324422
v 0.03018222 0.04161114 0.03324422
v -0.02775189 0.04161114 0.00038607
v -0.03411600 0.03990921 0.00038607
v -0.03586527 0.04012197 0.02790135
v -0.02172185 -0.04899663 0.00038607
v -0.02481449 -0.04602041 0.00038607
v -0.03028810 -0.03059270 0.00038607
v -0.02463806 -0.03671017 0.00038607
v 0.00931441 -0.05721748 0.00038607
v -0.00000013 -0.05854830 0.00038607
v -0.00000013 -0.04867783 0.00038607
v 0.00949383 -0.04755277 0.00038607
v -0.00931467 -0.05721748 0.00038607
v -0.01862921 -0.05197286 0.00038607
v -0.01898806 -0.04282767 0.00038607
v -0.00949409 -0.04755277 0.00038607
v 0.02172159 -0.04899663 0.00038607
v 0.01862895 -0.05197286 0.00038607
v 0.01898780 -0.04282767 0.00038607
v 0.02463780 -0.03671017 0.00038607
v -0.03244716 -0.00138292 0.00038607
v -0.02639440 -0.00341689 0.00038607
v -0.02034159 -0.00545090 0.00038607
v -0.01017086 -0.00821639 0.00038607
v 0.02034133 -0.00545090 0.00038607
v 0.02639414 -0.00341689 0.00038607
v 0.01017060 -0.00821639 0.00038607
v 0.03352643 0.01322197 0.00038607
v -0.00330958 0.00951929 0.00038607
v -0.00325630 0.00430413 0.00038607
v -0.01034004 0.00089736 0.00038607
v -0.01050927 0.01001107 0.00038607
v -0.02169517 0.02904447 0.00038607
v 0.01084737 0.02823856 0.00038607
v -0.02101836 0.01179679 0.00038607
v 0.03244690 -0.00138292 0.00038607
v 0.03028784 -0.03059270 0.00038607
v 0.02481423 -0.04602041 0.00038607
v 0.00330932 0.00951929 0.00038607
v 0.00325604 0.00430413 0.00038607
v -0.00000013 -0.00949178 0.00038607
v -0.00508552 -0.00885408 0.00038607
v -0.00000013 0.00399796 0.00038607
v 0.01033978 0.00089736 0.00038607
v 0.01050901 0.01001107 0.00038607
v 0.00508526 -0.00885408 0.00038607
v 0.01067819 0.01912481 0.00038607
v -0.02569238 -0.04669026 0.00682580
v -0.02636540 -0.04458532 0.01176249
v -0.03093342 -0.02960480 0.01579119
v -0.03057946 -0.03014666 0.00734164
v -0.02245960 -0.04986467 0.00671318
v -0.02306674 -0.04787702 0.01191978
v -0.01884665 -0.05303439 0.00660077
v -0.01903075 -0.05119612 0.01186082
v -0.00955053 -0.05780034 0.00644271
v -0.00976784 -0.05548938 0.01202346
v -0.00000013 -0.05906852 0.00639972
v -0.00000013 -0.05669948 0.01194334
v 0.00955027 -0.05780034 0.00644271
v 0.00976758 -0.05548938 0.01202346
v 0.01884639 -0.05303439 0.00660077
v 0.01903049 -0.05119612 0.01186082
v 0.02245934 -0.04986467 0.00671318
v 0.02306648 -0.04787702 0.01191978
v 0.02569212 -0.04669026 0.00682580
v 0.02636514 -0.04458532 0.01176249
v 0.03057920 -0.03014666 0.00734164
v 0.03093316 -0.02960480 0.01579119
v -0.00000013 -0.04079513 0.01396581
v 0.03271576 -0.00205248 0.00829772
v -0.03271602 -0.00205248 0.00829772
v 0.03272727 -0.00813036 0.02193857
v -0.03272753 -0.00813036 0.02193698
f 1 2 3
f 4 5 3
f 6 7 3
f 7 8 3
f 2 9 3
f 9 4 3
f 5 6 3
f 8 1 3
f 10 11 12
f 10 12 13
f 11 14 15
f 11 15 12
f 14 16 17
f 14 17 15
f 16 18 19
f 16 19 17
f 18 20 21
f 18 21 19
f 20 22 23
f 20 23 21
f 22 24 25
f 22 25 23
f 24 26 27
f 24 27 25
f 26 28 29
f 26 29 27
f 28 30 31
f 28 31 29
f 30 32 33
f 30 33 31
f 32 34 35
f 32 35 33
f 34 36 37
f 34 37 35
f 36 38 39
f 36 39 37
f 38 40 41
f 38 41 39
f 40 42 43
f 40 43 41
f 42 44 45
f 42 45 43
f 44 46 47
f 44 47 45
f 46 48 49
f 46 49 47
f 48 50 51
f 48 51 49
f 50 52 53
f 50 53 51
f 52 54 55
f 52 55 53
f 54 56 57
f 54 57 55
f 56 58 59
f 56 59 57
f 58 60 61
f 58 61 59
f 60 62 63
f 60 63 61
f 62 64 65
f 62 65 63
f 64 66 67
f 64 67 65
f 66 68 69
f 66 69 67
f 68 70 71
f 68 71 69
f 70 72 73
f 70 73 71
f 72 10 13
f 72 13 73
f 45 41 43
f 41 45 47
f 41 47 39
f 39 47 49
f 39 49 37
f 37 49 51
f 37 51 35
f 35 51 53
f 35 53 33
f 33 53 55
f 33 55 31
f 31 55 57
f 31 57 29
f 29 57 59
f 29 59 27
f 27 59 61
f 27 61 25
f 25 61 63
f 25 63 23
f 23 63 65
f 23 65 21
f 21 65 67
f 21 67 19
f 19 67 69
f 19 69 17
f 17 69 71
f 17 71 15
f 15 71 73
f 15 73 12
f 12 73 13
f 40 44 42
f 44 40 38
f 44 38 46
f 46 38 36
f 46 36 48
f 48 36 34
f 48 34 50
f 50 34 32
f 50 32 52
f 52 32 30
f 52 30 54
f 54 30 28
f 54 28 56
f 56 28 26
f 56 26 58
f 58 26 24
f 58 24 60
f 60 24 22
f 60 22 62
f 62 22 20
f 62 20 64
f 64 20 18
f 64 18 66
f 66 18 16
f 66 16 68
f 68 16 14
f 68 14 70
f 70 14 11
f 70 11 72
f 72 11 10
f 74 75 76
f 74 76 77
f 78 79 80
f 78 80 81
f 79 82 83
f 79 83 80
f 81 80 84
f 81 84 85
f 80 83 86
f 80 86 84
f 87 78 81
f 87 81 88
f 89 90 91
f 89 91 92
f 93 94 95
f 93 95 96
f 97 93 96
f 97 96 98
f 96 95 99
f 96 99 100
f 98 96 100
f 98 100 101
f 95 92 102
f 95 102 99
f 94 89 92
f 94 92 95
f 103 74 77
f 103 77 104
f 105 106 107
f 105 107 108
f 106 109 110
f 106 110 107
f 111 112 113
f 111 113 114
f 115 116 117
f 115 117 118
f 119 120 121
f 119 121 122
f 82 111 114
f 82 114 83
f 83 114 123
f 83 123 86
f 124 125 126
f 124 126 127
f 79 78 128
f 79 128 129
f 116 97 98
f 116 98 117
f 91 90 130
f 91 130 131
f 132 133 134
f 132 134 135
f 112 136 137
f 112 137 113
f 113 137 133
f 113 133 132
f 118 117 125
f 118 125 124
f 138 139 140
f 138 140 141
f 142 143 139
f 142 139 138
f 134 133 144
f 134 144 145
f 146 147 120
f 146 120 119
f 148 140 149
f 148 149 150
f 144 151 152
f 144 152 145
f 151 153 154
f 151 154 152
f 155 156 157
f 155 157 158
f 159 155 158
f 159 158 160
f 89 94 161
f 89 161 162
f 143 163 155
f 143 155 159
f 87 88 164
f 87 164 165
f 94 93 166
f 94 166 161
f 137 136 167
f 137 167 168
f 140 139 160
f 140 160 149
f 142 135 169
f 142 169 170
f 126 147 171
f 126 171 172
f 78 87 165
f 78 165 128
f 82 79 129
f 82 129 173
f 118 124 153
f 118 153 174
f 90 89 162
f 90 162 130
f 133 137 168
f 133 168 144
f 146 119 157
f 146 157 156
f 88 75 175
f 88 175 164
f 139 143 159
f 139 159 160
f 163 146 156
f 163 156 155
f 176 124 153
f 176 153 151
f 97 116 177
f 97 177 178
f 116 115 179
f 116 179 177
f 143 142 170
f 143 170 159
f 133 176 151
f 133 151 144
f 136 112 180
f 136 180 167
f 111 82 173
f 111 173 181
f 119 182 158
f 119 158 157
f 122 148 150
f 122 150 183
f 127 126 172
f 127 172 154
f 127 184 152
f 127 152 154
f 124 127 154
f 124 154 153
f 182 139 160
f 182 160 158
f 135 134 145
f 135 145 169
f 147 146 156
f 147 156 171
f 110 91 131
f 110 131 185
f 115 118 174
f 115 174 179
f 93 97 178
f 93 178 166
f 119 122 183
f 119 183 157
f 184 134 145
f 184 145 152
f 112 111 181
f 112 181 180
f 134 184 176
f 134 176 133
f 184 127 124
f 184 124 176
f 139 182 163
f 139 163 143
f 182 119 146
f 182 146 163
f 75 85 76
f 85 75 81
f 81 75 88
f 102 110 109
f 110 102 92
f 110 92 91
f 132 114 113
f 114 132 135
f 114 135 142
f 114 142 138
f 114 138 141
f 114 141 123
f 121 98 101
f 98 121 120
f 98 120 117
f 117 120 126
f 126 120 147
f 117 126 125
f 186 187 188
f 186 188 189
f 189 188 190
f 189 190 191
f 191 190 192
f 191 192 193
f 193 192 194
f 193 194 195
f 195 194 196
f 195 196 197
f 197 196 198
f 197 198 199
f 199 198 200
f 199 200 201
f 201 200 202
f 201 202 203
f 203 202 204
f 203 204 205
f 205 204 206
f 205 206 207
f 207 206 208
f 207 208 209
f 209 208 210
f 209 210 211
f 211 210 212
f 211 212 213
f 213 212 214
f 213 214 215
f 215 214 216
f 215 216 217
f 217 216 218
f 217 218 219
f 219 218 220
f 219 220 221
f 221 220 222
f 221 222 223
f 223 222 224
f 223 224 225
f 225 224 226
f 225 226 227
f 227 226 228
f 227 228 229
f 229 228 230
f 229 230 231
f 231 230 232
f 231 232 233
f 233 232 234
f 233 234 235
f 235 234 236
f 235 236 237
f 237 236 238
f 237 238 239
f 239 238 240
f 239 240 241
f 241 240 242
f 241 242 243
f 243 242 244
f 243 244 245
f 245 244 246
f 245 246 247
f 247 246 248
f 247 248 249
f 249 248 187
f 249 187 186
f 250 251 252
f 250 252 253
f 253 252 254
f 253 254 255
f 255 254 256
f 255 256 257
f 257 256 258
f 257 258 259
f 259 258 260
f 259 260 261
f 261 260 262
f 261 262 263
f 263 262 264
f 263 264 265
f 265 264 266
f 265 266 267
f 267 266 268
f 267 268 269
f 269 268 270
f 269 270 271
f 271 270 272
f 271 272 273
f 273 272 274
f 273 274 275
f 275 274 276
f 275 276 277
f 277 276 278
f 277 278 279
f 279 278 280
f 279 280 281
f 281 280 282
f 281 282 283
f 283 282 284
f 283 284 285
f 285 284 286
f 285 286 287
f 287 286 288
f 287 288 289
f 289 288 290
f 289 290 291
f 291 290 292
f 291 292 293
f 293 292 294
f 293 294 295
f 295 294 296
f 295 296 297
f 297 296 298
f 297 298 299
f 299 298 300
f 299 300 301
f 301 300 302
f 301 302 303
f 303 302 304
f 303 304 305
f 305 304 306
f 305 306 307
f 307 306 308
f 307 308 309
f 309 308 310
f 309 310 311
f 311 310 312
f 311 312 313
f 313 312 251
f 313 251 250
f 314 315 316
f 314 316 317
f 317 316 318
f 317 318 319
f 319 318 320
f 319 320 321
f 321 320 322
f 321 322 323
f 323 322 324
f 323 324 325
f 325 324 326
f 325 326 327
f 327 326 328
f 327 328 329
f 329 328 330
f 329 330 331
f 331 330 332
f 331 332 333
f 333 332 334
f 333 334 335
f 335 334 336
f 335 336 337
f 337 336 338
f 337 338 339
f 339 338 340
f 339 340 341
f 341 340 342
f 341 342 343
f 343 342 344
f 343 344 345
f 345 344 346
f 345 346 347
f 347 346 348
f 347 348 349
f 349 348 350
f 349 350 351
f 351 350 352
f 351 352 353
f 353 352 354
f 353 354 355
f 355 354 356
f 355 356 357
f 357 356 358
f 357 358 359
f 359 358 360
f 359 360 361
f 361 360 362
f 361 362 363
f 363 362 364
f 363 364 365
f 365 364 366
f 365 366 367
f 367 366 368
f 367 368 369
f 369 368 370
f 369 370 371
f 371 370 372
f 371 372 373
f 373 372 374
f 373 374 375
f 375 374 376
f 375 376 377
f 377 376 315
f 377 315 314
f 232 236 234
f 236 232 230
f 236 230 238
f 238 230 228
f 238 228 240
f 240 228 226
f 240 226 242
f 242 226 224
f 242 224 244
f 244 224 222
f 244 222 246
f 246 222 220
f 246 220 248
f 248 220 218
f 248 218 187
f 187 218 216
f 187 216 188
f 188 216 214
f 188 214 190
f 190 214 212
f 190 212 192
f 192 212 210
f 192 210 194
f 194 210 208
f 194 208 196
f 196 208 206
f 196 206 198
f 198 206 204
f 198 204 200
f 200 204 202
f 237 233 235
f 233 237 239
f 233 239 231
f 231 239 241
f 231 241 229
f 229 241 243
f 229 243 227
f 227 243 245
f 227 245 225
f 225 245 247
f 225 247 223
f 223 247 249
f 223 249 221
f 221 249 186
f 221 186 219
f 219 186 189
f 219 189 217
f 217 189 191
f 217 191 215
f 215 191 193
f 215 193 213
f 213 193 195
f 213 195 211
f 211 195 197
f 211 197 209
f 209 197 199
f 209 199 207
f 207 199 201
f 207 201 205
f 205 201 203
f 296 300 298
f 300 296 294
f 300 294 302
f 302 294 292
f 302 292 304
f 304 292 290
f 304 290 306
f 306 290 288
f 306 288 308
f 308 288 286
f 308 286 310
f 310 286 284
f 310 284 312
f 312 284 282
f 312 282 251
f 251 282 280
f 251 280 252
f 252 280 278
f 252 278 254
f 254 278 276
f 254 276 256
f 256 276 274
f 256 274 258
f 258 274 272
f 258 272 260
f 260 272 270
f 260 270 262
f 262 270 268
f 262 268 264
f 264 268 266
f 301 297 299
f 297 301 303
f 297 303 295
f 295 303 305
f 295 305 293
f 293 305 307
f 293 307 291
f 291 307 309
f 291 309 289
f 289 309 311
f 289 311 287
f 287 311 313
f 287 313 285
f 285 313 250
f 285 250 283
f 283 250 253
f 283 253 281
f 281 253 255
f 281 255 279
f 279 255 257
f 279 257 277
f 277 257 259
f 277 259 275
f 275 259 261
f 275 261 273
f 273 261 263
f 273 263 271
f 271 263 265
f 271 265 269
f 269 265 267
f 360 364 362
f 364 360 358
f 364 358 366
f 366 358 356
f 366 356 368
f 368 356 354
f 368 354 370
f 370 354 352
f 370 352 372
f 372 352 350
f 372 350 374
f 374 350 348
f 374 348 376
f 376 348 346
f 376 346 315
f 315 346 344
f 315 344 316
f 316 344 342
f 316 342 318
f 318 342 340
f 318 340 320
f 320 340 338
f 320 338 322
f 322 338 336
f 322 336 324
f 324 336 334
f 324 334 326
f 326 334 332
f 326 332 328
f 328 332 330
f 365 361 363
f 361 365 367
f 361 367 359
f 359 367 357
f 357 367 369
f 357 369 371
f 357 371 355
f 355 371 373
f 355 373 353
f 353 373 375
f 353 375 351
f 351 375 377
f 351 377 349
f 349 377 314
f 349 314 347
f 347 314 317
f 347 317 345
f 345 317 319
f 345 319 343
f 343 319 321
f 343 321 341
f 341 321 323
f 341 323 339
f 339 323 325
f 339 325 337
f 337 325 327
f 337 327 335
f 335 327 329
f 335 329 333
f 333 329 331
f 378 379 380
f 381 382 380
f 382 383 380
f 384 385 380
f 386 387 380
f 383 388 380
f 385 389 380
f 387 390 380
f 388 391 380
f 389 378 380
f 390 384 380
f 391 386 380
f 392 393 394
f 392 394 395
f 396 397 398
f 396 398 399
f 400 392 395
f 400 395 401
f 402 403 398
f 402 398 397
f 404 405 406
f 404 406 407
f 408 409 410
f 408 410 411
f 412 407 406
f 412 406 410
f 401 413 414
f 401 414 415
f 416 417 414
f 416 414 413
f 418 419 415
f 418 415 412
f 420 421 422
f 420 422 396
f 423 424 425
f 423 425 426
f 411 426 425
f 411 425 422
f 409 418 412
f 409 412 410
f 415 414 407
f 415 407 412
f 417 404 407
f 417 407 414
f 410 406 426
f 410 426 411
f 405 423 426
f 405 426 406
f 421 408 411
f 421 411 422
f 427 428 429
f 427 429 430
f 431 432 433
f 431 433 434
f 435 436 437
f 435 437 438
f 428 439 440
f 428 440 429
f 441 442 443
f 441 443 444
f 445 431 434
f 445 434 446
f 447 448 449
f 447 449 450
f 432 427 430
f 432 430 433
f 451 452 453
f 451 453 454
f 455 456 457
f 455 457 458
f 456 459 460
f 456 460 457
f 461 462 453
f 461 453 463
f 399 398 403
f 399 403 464
f 465 466 408
f 465 408 421
f 467 468 423
f 467 423 405
f 469 470 404
f 469 404 417
f 471 472 418
f 471 418 409
f 468 473 424
f 468 424 423
f 474 465 421
f 474 421 420
f 472 475 419
f 472 419 418
f 476 469 417
f 476 417 416
f 466 471 409
f 466 409 408
f 470 467 405
f 470 405 404
f 477 462 403
f 477 403 402
f 478 479 392
f 478 392 400
f 479 480 393
f 479 393 392
f 481 482 483
f 481 483 484
f 485 486 487
f 485 487 488
f 489 490 491
f 489 491 492
f 493 494 495
f 493 495 496
f 486 489 492
f 486 492 487
f 494 485 488
f 494 488 495
f 484 483 497
f 484 497 498
f 492 491 499
f 492 499 500
f 496 495 501
f 496 501 502
f 495 488 503
f 495 503 501
f 463 453 452
f 463 452 504
f 498 497 456
f 498 456 455
f 102 109 452
f 102 452 451
f 505 435 2
f 505 2 1
f 85 84 431
f 85 431 445
f 502 501 442
f 502 442 441
f 100 99 439
f 100 439 428
f 506 507 508
f 506 508 505
f 84 86 432
f 84 432 431
f 457 460 480
f 457 480 479
f 458 457 479
f 458 479 478
f 454 453 462
f 454 462 477
f 433 430 467
f 433 467 470
f 446 434 469
f 446 469 476
f 437 509 475
f 437 475 472
f 444 443 465
f 444 465 474
f 429 440 473
f 429 473 468
f 434 433 470
f 434 470 469
f 430 429 468
f 430 468 467
f 443 510 466
f 443 466 465
f 464 403 462
f 464 462 461
f 460 446 476
f 460 476 480
f 509 458 478
f 509 478 475
f 76 85 445
f 76 445 459
f 499 498 455
f 499 455 511
f 491 484 498
f 491 498 499
f 490 481 484
f 490 484 491
f 475 478 400
f 475 400 419
f 480 476 416
f 480 416 393
f 511 455 458
f 511 458 509
f 459 445 446
f 459 446 460
f 393 416 413
f 393 413 394
f 395 394 413
f 395 413 401
f 419 400 401
f 419 401 415
f 463 444 474
f 463 474 461
f 440 454 477
f 440 477 473
f 512 502 441
f 512 441 504
f 99 102 451
f 99 451 439
f 513 496 502
f 513 502 512
f 514 493 496
f 514 496 513
f 473 477 402
f 473 402 424
f 461 474 420
f 461 420 464
f 439 451 454
f 439 454 440
f 504 441 444
f 504 444 463
f 464 420 396
f 464 396 399
f 424 402 397
f 424 397 425
f 422 425 397
f 422 397 396
f 515 516 6
f 515 6 5
f 517 518 506
f 517 506 519
f 518 500 507
f 518 507 506
f 520 516 515
f 520 515 521
f 503 522 516
f 503 516 520
f 522 517 519
f 522 519 516
f 523 447 450
f 523 450 510
f 521 515 447
f 521 447 523
f 435 448 9
f 435 9 2
f 448 435 438
f 448 438 449
f 516 519 7
f 516 7 6
f 505 508 436
f 505 436 435
f 519 506 8
f 519 8 7
f 448 447 4
f 448 4 9
f 506 505 1
f 506 1 8
f 447 515 5
f 447 5 4
f 524 525 526
f 524 526 527
f 528 529 525
f 528 525 524
f 530 531 529
f 530 529 528
f 532 533 531
f 532 531 530
f 534 535 533
f 534 533 532
f 536 537 535
f 536 535 534
f 538 539 537
f 538 537 536
f 540 541 539
f 540 539 538
f 542 543 541
f 542 541 540
f 544 545 543
f 544 543 542
f 546 103 381
f 546 381 380
f 533 535 387
f 533 387 386
f 531 533 386
f 531 386 391
f 108 546 380
f 108 380 379
f 545 108 379
f 545 379 378
f 103 526 382
f 103 382 381
f 529 531 391
f 529 391 388
f 543 545 378
f 543 378 389
f 525 529 388
f 525 388 383
f 541 543 389
f 541 389 385
f 526 525 383
f 526 383 382
f 539 541 385
f 539 385 384
f 75 74 107
f 75 107 110
f 75 110 185
f 75 185 175
f 535 537 390
f 535 390 387
f 537 539 384
f 537 384 390
f 482 524 527
f 482 527 483
f 481 528 524
f 481 524 482
f 490 530 528
f 490 528 481
f 489 532 530
f 489 530 490
f 486 534 532
f 486 532 489
f 485 536 534
f 485 534 486
f 494 538 536
f 494 536 485
f 493 540 538
f 493 538 494
f 514 542 540
f 514 540 493
f 513 544 542
f 513 542 514
f 512 547 544
f 512 544 513
f 483 527 548
f 483 548 497
f 442 510 443
f 510 442 523
f 523 442 521
f 511 436 508
f 436 511 437
f 437 511 509
f 452 512 504
f 512 452 547
f 547 452 105
f 105 452 106
f 106 452 109
f 488 522 503
f 522 488 487
f 522 487 517
f 492 517 487
f 517 492 518
f 518 492 500
f 497 459 456
f 459 497 548
f 459 548 104
f 459 104 77
f 459 77 76
f 427 140 148
f 140 427 432
f 140 432 141
f 141 432 123
f 123 432 86
f 499 507 500
f 507 499 508
f 508 499 511
f 427 100 428
f 100 427 101
f 101 427 121
f 121 427 122
f 122 427 148
f 501 521 442
f 521 501 503
f 521 503 520
f 450 466 510
f 466 450 471
f 471 450 449
f 438 471 449
f 471 438 472
f 472 438 437
f 105 544 547
f 544 105 108
f 544 108 545
f 527 104 548
f 104 527 103
f 103 527 526
f 550 546 549
f 74 550 103
f 549 107 108
f 8 3 1
f 7 3 8
f 6 3 7
f 5 3 6
f 4 3 5
f 9 3 4
f 2 3 9
f 1 3 2
f 13 12 11
f 11 10 13
f 12 15 14
f 14 11 12
f 15 17 16
f 16 14 15
f 17 19 18
f 18 16 17
f 19 21 20
f 20 18 19
f 21 23 22
f 22 20 21
f 23 25 24
f 24 22 23
f 25 27 26
f 26 24 25
f 27 29 28
f 28 26 27
f 29 31 30
f 30 28 29
f 31 33 32
f 32 30 31
f 33 35 34
f 34 32 33
f 35 37 36
f 36 34 35
f 37 39 38
f 38 36 37
f 39 41 40
f 40 38 39
f 41 43 42
f 42 40 41
f 43 45 44
f 44 42 43
f 45 47 46
f 46 44 45
f 47 49 48
f 48 46 47
f 49 51 50
f 50 48 49
f 51 53 52
f 52 50 51
f 53 55 54
f 54 52 53
f 55 57 56
f 56 54 55
f 57 59 58
f 58 56 57
f 59 61 60
f 60 58 59
f 61 63 62
f 62 60 61
f 63 65 64
f 64 62 63
f 65 67 66
f 66 64 65
f 67 69 68
f 68 66 67
f 69 71 70
f 70 68 69
f 71 73 72
f 72 70 71
f 73 13 10
f 10 72 73
f 77 76 75
f 75 74 77
f 81 80 79
f 79 78 81
f 80 83 82
f 82 79 80
f 85 84 80
f 80 81 85
f 84 86 83
f 83 80 84
f 88 81 78
f 78 87 88
f 92 91 90
f 90 89 92
f 96 95 94
f 94 93 96
f 98 96 93
f 93 97 98
f 100 99 95
f 95 96 100
f 101 100 96
f 96 98 101
f 99 102 92
f 92 95 99
f 95 92 89
f 89 94 95
f 104 77 74
f 74 103 104
f 108 107 106
f 106 105 108
f 107 110 109
f 109 106 107
f 114 113 112
f 112 111 114
f 118 117 116
f 116 115 118
f 122 121 120
f 120 119 122
f 83 114 111
f 111 82 83
f 86 123 114
f 114 83 86
f 127 126 125
f 125 124 127
f 129 128 78
f 78 79 129
f 117 98 97
f 97 116 117
f 131 130 90
f 90 91 131
f 135 134 133
f 133 132 135
f 113 137 136
f 136 112 113
f 132 133 137
f 137 113 132
f 124 125 117
f 117 118 124
f 141 140 139
f 139 138 141
f 138 139 143
f 143 142 138
f 145 144 133
f 133 134 145
f 119 120 147
f 147 146 119
f 150 149 140
f 140 148 150
f 145 152 151
f 151 144 145
f 152 154 153
f 153 151 152
f 158 157 156
f 156 155 158
f 160 158 155
f 155 159 160
f 162 161 94
f 94 89 162
f 159 155 163
f 163 143 159
f 165 164 88
f 88 87 165
f 161 166 93
f 93 94 161
f 168 167 136
f 136 137 168
f 149 160 139
f 139 140 149
f 170 169 135
f 135 142 170
f 172 171 147
f 147 126 172
f 128 165 87
f 87 78 128
f 173 129 79
f 79 82 173
f 174 153 124
f 124 118 174
f 130 162 89
f 89 90 130
f 144 168 137
f 137 133 144
f 156 157 119
f 119 146 156
f 164 175 75
f 75 88 164
f 160 159 143
f 143 139 160
f 155 156 146
f 146 163 155
f 151 153 124
f 124 176 151
f 177 179 115
f 115 116 177
f 159 170 142
f 142 143 159
f 144 151 176
f 176 133 144
f 167 180 112
f 112 136 167
f 157 158 182
f 182 119 157
f 183 150 148
f 148 122 183
f 154 172 126
f 126 127 154
f 154 152 184
f 184 127 154
f 153 154 127
f 127 124 153
f 158 160 139
f 139 182 158
f 169 145 134
f 134 135 169
f 171 156 146
f 146 147 171
f 185 131 91
f 91 110 185
f 179 174 118
f 118 115 179
f 157 183 122
f 122 119 157
f 152 145 134
f 134 184 152
f 133 176 184
f 184 134 133
f 176 124 127
f 127 184 176
f 143 163 182
f 182 139 143
f 163 146 119
f 119 182 163
f 189 188 187
f 187 186 189
f 191 190 188
f 188 189 191
f 193 192 190
f 190 191 193
f 195 194 192
f 192 193 195
f 197 196 194
f 194 195 197
f 199 198 196
f 196 197 199
f 201 200 198
f 198 199 201
f 203 202 200
f 200 201 203
f 205 204 202
f 202 203 205
f 207 206 204
f 204 205 207
f 209 208 206
f 206 207 209
f 211 210 208
f 208 209 211
f 213 212 210
f 210 211 213
f 215 214 212
f 212 213 215
f 217 216 214
f 214 215 217
f 219 218 216
f 216 217 219
f 221 220 218
f 218 219 221
f 223 222 220
f 220 221 223
f 225 224 222
f 222 223 225
f 227 226 224
f 224 225 227
f 229 228 226
f 226 227 229
f 231 230 228
f 228 229 231
f 233 232 230
f 230 231 233
f 235 234 232
f 232 233 235
f 237 236 234
f 234 235 237
f 239 238 236
f 236 237 239
f 241 240 238
f 238 239 241
f 243 242 240
f 240 241 243
f 245 244 242
f 242 243 245
f 247 246 244
f 244 245 247
f 249 248 246
f 246 247 249
f 186 187 248
f 248 249 186
f 253 252 251
f 251 250 253
f 255 254 252
f 252 253 255
f 257 256 254
f 254 255 257
f 259 258 256
f 256 257 259
f 261 260 258
f 258 259 261
f 263 262 260
f 260 261 263
f 265 264 262
f 262 263 265
f 267 266 264
f 264 265 267
f 269 268 266
f 266 267 269
f 271 270 268
f 268 269 271
f 273 272 270
f 270 271 273
f 275 274 272
f 272 273 275
f 277 276 274
f 274 275 277
f 279 278 276
f 276 277 279
f 281 280 278
f 278 279 281
f 283 282 280
f 280 281 283
f 285 284 282
f 282 283 285
f 287 286 284
f 284 285 287
f 289 288 286
f 286 287 289
f 291 290 288
f 288 289 291
f 293 292 290
f 290 291 293
f 295 294 292
f 292 293 295
f 297 296 294
f 294 295 297
f 299 298 296
f 296 297 299
f 301 300 298
f 298 299 301
f 303 302 300
f 300 301 303
f 305 304 302
f 302 303 305
f 307 306 304
f 304 305 307
f 309 308 306
f 306 307 309
f 311 310 308
f 308 309 311
f 313 312 310
f 310 311 313
f 250 251 312
f 312 313 250
f 317 316 315
f 315 314 317
f 319 318 316
f 316 317 319
f 321 320 318
f 318 319 321
f 323 322 320
f 320 321 323
f 325 324 322
f 322 323 325
f 327 326 324
f 324 325 327
f 329 328 326
f 326 327 329
f 331 330 328
f 328 329 331
f 333 332 330
f 330 331 333
f 335 334 332
f 332 333 335
f 337 336 334
f 334 335 337
f 339 338 336
f 336 337 339
f 341 340 338
f 338 339 341
f 343 342 340
f 340 341 343
f 345 344 342
f 342 343 345
f 347 346 344
f 344 345 347
f 349 348 346
f 346 347 349
f 351 350 348
f 348 349 351
f 353 352 350
f 350 351 353
f 355 354 352
f 352 353 355
f 357 356 354
f 354 355 357
f 359 358 356
f 356 357 359
f 361 360 358
f 358 359 361
f 363 362 360
f 360 361 363
f 365 364 362
f 362 363 365
f 367 366 364
f 364 365 367
f 369 368 366
f 366 367 369
f 371 370 368
f 368 369 371
f 373 372 370
f 370 371 373
f 375 374 372
f 372 373 375
f 377 376 374
f 374 375 377
f 314 315 376
f 376 377 314
f 378 380 379
f 381 380 382
f 382 380 383
f 384 380 385
f 386 380 387
f 383 380 388
f 385 380 389
f 387 380 390
f 388 380 391
f 389 380 378
f 390 380 384
f 391 380 386
f 395 394 393
f 393 392 395
f 399 398 397
f 397 396 399
f 397 398 403
f 403 402 397
f 407 406 405
f 405 404 407
f 410 406 407
f 407 412 410
f 415 414 413
f 413 401 415
f 413 414 417
f 417 416 413
f 426 425 424
f 424 423 426
f 422 425 426
f 426 411 422
f 412 407 414
f 414 415 412
f 414 407 404
f 404 417 414
f 411 426 406
f 406 410 411
f 406 426 423
f 423 405 406
f 430 429 428
f 428 427 430
f 434 433 432
f 432 431 434
f 429 440 439
f 439 428 429
f 446 434 431
f 431 445 446
f 433 430 427
f 427 432 433
f 454 453 452
f 452 451 454
f 457 460 459
f 459 456 457
f 463 453 462
f 462 461 463
f 464 403 398
f 398 399 464
f 405 423 468
f 468 467 405
f 417 404 470
f 470 469 417
f 423 424 473
f 473 468 423
f 416 417 469
f 469 476 416
f 404 405 467
f 467 470 404
f 402 403 462
f 462 477 402
f 392 393 480
f 480 479 392
f 504 452 453
f 453 463 504
f 451 452 109
f 109 102 451
f 445 431 84
f 84 85 445
f 428 439 99
f 99 100 428
f 431 432 86
f 86 84 431
f 479 480 460
f 460 457 479
f 477 462 453
f 453 454 477
f 470 467 430
f 430 433 470
f 476 469 434
f 434 446 476
f 468 473 440
f 440 429 468
f 469 470 433
f 433 434 469
f 467 468 429
f 429 430 467
f 461 462 403
f 403 464 461
f 480 476 446
f 446 460 480
f 459 445 85
f 85 76 459
f 393 416 476
f 476 480 393
f 460 446 445
f 445 459 460
f 394 413 416
f 416 393 394
f 401 413 394
f 394 395 401
f 473 477 454
f 454 440 473
f 439 451 102
f 102 99 439
f 424 402 477
f 477 473 424
f 440 454 451
f 451 439 440
f 425 397 402
f 402 424 425
f 396 397 425
f 425 422 396
f 2 9 448
f 448 435 2
f 6 7 519
f 519 516 6
f 7 8 506
f 506 519 7
f 9 4 447
f 447 448 9
f 527 526 525
f 525 524 527
f 524 525 529
f 529 528 524
f 528 529 531
f 531 530 528
f 530 531 533
f 533 532 530
f 532 533 535
f 535 534 532
f 534 535 537
f 537 536 534
f 536 537 539
f 539 538 536
f 538 539 541
f 541 540 538
f 540 541 543
f 543 542 540
f 542 543 545
f 545 544 542
f 380 381 103
f 103 546 380
f 386 387 535
f 535 533 386
f 391 386 533
f 533 531 391
f 379 380 546
f 546 108 379
f 378 379 108
f 108 545 378
f 381 382 526
f 526 103 381
f 388 391 531
f 531 529 388
f 389 378 545
f 545 543 389
f 383 388 529
f 529 525 383
f 385 389 543
f 543 541 385
f 382 383 525
f 525 526 382
f 384 385 541
f 541 539 384
f 110 107 74
f 74 75 110
f 175 185 110
f 110 75 175
f 387 390 537
f 537 535 387
f 390 384 539
f 539 537 390
f 483 527 524
f 524 482 483
f 482 524 528
f 528 481 482
f 481 528 530
f 530 490 481
f 490 530 532
f 532 489 490
f 489 532 534
f 534 486 489
f 486 534 536
f 536 485 486
f 485 536 538
f 538 494 485
f 494 538 540
f 540 493 494
f 493 540 542
f 542 514 493
f 514 542 544
f 544 513 514
f 513 544 547
f 547 512 513
f 497 548 527
f 527 483 497
f 103 550 74
f 550 549 546
f 108 107 549