# https://github.com/mikedh/trimesh
v 0.00000098 -0.00908753 0.02318529
v 0.00268860 -0.01019659 0.02327338
v 0.00322130 -0.00964913 0.02344639
v 0.00000098 -0.00831522 0.02375006
v 0.00380184 -0.01287406 0.02348605
v 0.00455521 -0.01286947 0.02399440
v 0.00268860 -0.01555155 0.02369874
v 0.00322130 -0.01608980 0.02425973
v 0.00000098 -0.01666059 0.02378683
v 0.00000098 -0.01742370 0.02490030
v -0.00268665 -0.01555155 0.02369874
v -0.00321935 -0.01608980 0.02425973
v -0.00379989 -0.01287406 0.02348605
v -0.00455325 -0.01286947 0.02399440
v -0.00268665 -0.01019659 0.02327338
v -0.00321935 -0.00964913 0.02344639
v 0.00260709 -0.01543855 0.02402516
v 0.00000098 -0.01651396 0.02411060
v 0.00000098 0.00195307 0.02224260
v 0.00000098 0.00183203 0.02257193
v 0.00387442 0.00183203 0.02180145
v 0.00374839 0.00195307 0.02149720
v 0.00715814 0.00183203 0.01960734
v 0.00692528 0.00195307 0.01937446
v 0.00935227 0.00183203 0.01632360
v 0.00904802 0.00195307 0.01619757
v 0.01012275 0.00183203 0.01245016
v 0.00979342 0.00195307 0.01245016
v 0.00935227 0.00183203 0.00857673
v 0.00904802 0.00195307 0.00870276
v 0.00715814 0.00183203 0.00529299
v 0.00692528 0.00195307 0.00552585
v 0.00387442 0.00183203 0.00309886
v 0.00374839 0.00195307 0.00340313
v 0.00000098 0.00183203 0.00232838
v 0.00000098 0.00195307 0.00265773
v -0.00387245 0.00183203 0.00309886
v -0.00374643 0.00195307 0.00340313
v -0.00715619 0.00183203 0.00529299
v -0.00692333 0.00195307 0.00552585
v -0.00935032 0.00183203 0.00857673
v -0.00904607 0.00195307 0.00870276
v -0.01012080 0.00183203 0.01245016
v -0.00979147 0.00195307 0.01245016
v -0.00935032 0.00183203 0.01632360
v -0.00904607 0.00195307 0.01619757
v -0.00715619 0.00183203 0.01960734
v -0.00692333 0.00195307 0.01937446
v 0.00935227 -0.00349240 0.00857673
v 0.01012275 -0.00349240 0.01245016
v 0.00994522 -0.00365064 0.01245016
v 0.00918827 -0.00365064 0.00864467
v -0.00387245 0.00183203 0.02180145
v -0.00374642 0.00195307 0.02149720
v -0.00773051 0.06473160 0.02018166
v -0.00418327 0.06473160 0.02255186
v -0.00418327 0.06809629 0.02255188
v -0.00773051 0.06809629 0.02018166
v -0.00418327 0.06473160 0.00234847
v -0.00773053 0.06473160 0.00471867
v -0.00773053 0.06809629 0.00471867
v -0.00418327 0.06809629 0.00234847
v 0.00773248 0.06473160 0.02018166
v 0.01010266 0.06473160 0.01663442
v 0.01010266 0.06809629 0.01663442
v 0.00773248 0.06809629 0.02018166
v 0.00418524 0.06473160 0.00234847
v 0.00000098 0.06473160 0.00151618
v 0.00000098 0.06809629 0.00151619
v 0.00418524 0.06809629 0.00234847
v -0.01093302 0.06473160 0.01245016
v -0.01010071 0.06473160 0.01663442
v -0.01010071 0.06809629 0.01663442
v -0.01093302 0.06809629 0.01245016
v 0.01010266 0.06473160 0.00826591
v 0.00773248 0.06473160 0.00471867
v 0.00773248 0.06809629 0.00471867
v 0.01010266 0.06809629 0.00826591
v -0.01010071 0.06473160 0.00826591
v -0.01010071 0.06809629 0.00826591
v 0.01093497 0.06473160 0.01245016
v 0.01093497 0.06809629 0.01245016
v 0.00000098 0.06422908 0.00232840
v -0.00387245 0.06422908 0.00309886
v -0.00398722 0.06422908 0.00282182
v 0.00000098 0.06422908 0.00202853
v 0.00000098 0.06473160 0.02338416
v 0.00000098 0.06809629 0.02338416
v 0.00000098 0.06422908 0.02257193
v 0.00387442 0.06422908 0.02180145
v 0.00398917 0.06422908 0.02207851
v 0.00000098 0.06422908 0.02287181
v 0.00418524 0.06473160 0.02255186
v 0.00418524 0.06809629 0.02255188
v 0.00000098 0.06908317 0.02237793
v 0.00380018 0.06908317 0.02162223
v 0.00702097 0.06908317 0.01947017
v 0.00917304 0.06908317 0.01624936
v 0.00992875 0.06908317 0.01245016
v 0.00917304 0.06908317 0.00865097
v 0.00702097 0.06908317 0.00543016
v 0.00380018 0.06908317 0.00327809
v 0.00000098 0.06908317 0.00252238
v -0.00379822 0.06908317 0.00327809
v -0.00701902 0.06908317 0.00543016
v -0.00917109 0.06908317 0.00865097
v -0.00992680 0.06908317 0.01245016
v -0.00917109 0.06908317 0.01624936
v -0.00701902 0.06908317 0.01947017
v -0.00379821 0.06908317 0.02162223
v 0.00715814 0.06422908 0.01960734
v 0.00737020 0.06422908 0.01981938
v -0.00715619 0.06422908 0.00529299
v -0.00736823 0.06422908 0.00508095
v 0.00935227 0.06422908 0.01632360
v 0.00962933 0.06422908 0.01643835
v -0.00935032 0.06422908 0.00857673
v -0.00962738 0.06422908 0.00846198
v 0.01012275 0.06422908 0.01245016
v 0.01042263 0.06422908 0.01245016
v -0.01012080 0.06422908 0.01245016
v -0.01042067 0.06422908 0.01245016
v 0.00935227 0.06422908 0.00857673
v 0.00962933 0.06422908 0.00846198
v -0.00935032 0.06422908 0.01632360
v -0.00962738 0.06422908 0.01643835
v 0.00715814 0.06422908 0.00529299
v 0.00737020 0.06422908 0.00508095
v -0.00715619 0.06422908 0.01960734
v -0.00736823 0.06422908 0.01981938
v 0.00387442 0.06422908 0.00309886
v 0.00398917 0.06422908 0.00282182
v -0.00387245 0.06422908 0.02180147
v -0.00398720 0.06422908 0.02207851
v 0.00407245 0.06879412 0.02227958
v 0.00000098 0.06879412 0.02308944
v 0.00752407 0.06879412 0.01997327
v 0.00983038 0.06879412 0.01652163
v 0.01064026 0.06879412 0.01245016
v 0.00983038 0.06879412 0.00837868
v 0.00752407 0.06879412 0.00492706
v 0.00407245 0.06879412 0.00262075
v 0.00000098 0.06879412 0.00181091
v -0.00407050 0.06879412 0.00262075
v -0.00752212 0.06879412 0.00492706
v -0.00982843 0.06879412 0.00837868
v -0.01063831 0.06879412 0.01245016
v -0.00982843 0.06879412 0.01652163
v -0.00752212 0.06879412 0.01997327
v -0.00407050 0.06879412 0.02227958
v 0.00412780 0.06437627 0.02241321
v 0.00000098 0.06437627 0.02323409
v 0.00762637 0.06437627 0.02007555
v 0.00996403 0.06437627 0.01657700
v 0.01078491 0.06437627 0.01245016
v 0.00996403 0.06437627 0.00832333
v 0.00762637 0.06437627 0.00482477
v 0.00412780 0.06437627 0.00248712
v 0.00000098 0.06437627 0.00166623
v -0.00412585 0.06437627 0.00248710
v -0.00762441 0.06437627 0.00482477
v -0.00996208 0.06437627 0.00832333
v -0.01078296 0.06437627 0.01245016
v -0.00996208 0.06437627 0.01657700
v -0.00762441 0.06437627 0.02007555
v -0.00412585 0.06437627 0.02241321
v -0.00938331 -0.00379196 0.00856307
v -0.00718144 -0.00379196 0.00526774
v -0.00880260 -0.01286947 0.00364658
v -0.01150145 -0.01286947 0.00768569
v -0.00715619 -0.00349240 0.00529299
v -0.00387245 -0.00349240 0.00309886
v -0.00380452 -0.00365064 0.00326287
v -0.00703066 -0.00365064 0.00541852
v -0.00387245 -0.00349240 0.02180145
v -0.00715619 -0.00349240 0.01960734
v -0.00703066 -0.00365064 0.01948181
v -0.00380452 -0.00365064 0.02163745
v 0.00935227 -0.00349240 0.01632360
v 0.00715814 -0.00349240 0.01960734
v 0.00703263 -0.00365064 0.01948181
v 0.00918827 -0.00365064 0.01625567
v 0.00000098 -0.00349240 0.00232838
v 0.00387442 -0.00349240 0.00309886
v 0.00380648 -0.00365064 0.00326287
v 0.00000098 -0.00365064 0.00250591
v 0.00387442 -0.00349240 0.02180145
v 0.00000098 -0.00349240 0.02257193
v 0.00000098 -0.00365064 0.02239441
v 0.00380648 -0.00365064 0.02163745
v -0.00935032 -0.00349240 0.01632360
v -0.01012080 -0.00349240 0.01245016
v -0.00994327 -0.00365064 0.01245016
v -0.00918632 -0.00365064 0.01625567
v 0.00715814 -0.00349240 0.00529299
v 0.00703263 -0.00365064 0.00541852
v -0.00935032 -0.00349240 0.00857673
v -0.00918632 -0.00365064 0.00864467
v 0.00000098 -0.02280083 0.02467140
v -0.00467588 -0.02280083 0.02374112
v -0.00476347 -0.02295955 0.02395259
v 0.00000098 -0.02295955 0.02490030
v 0.01015845 -0.00379196 0.01245016
v 0.00938526 -0.00379196 0.01633726
v 0.01150341 -0.01286947 0.01721462
v 0.01245112 -0.01286947 0.01245016
v -0.01015650 -0.00379196 0.01245016
v -0.01244917 -0.01286947 0.01245016
v 0.00938526 -0.00379196 0.00856307
v 0.01150341 -0.01286947 0.00768569
v -0.00938331 -0.00379196 0.01633726
v -0.01150145 -0.01286947 0.01721462
v 0.00718339 -0.00379196 0.00526776
v 0.00880456 -0.01286947 0.00364659
v -0.00718144 -0.00379196 0.01963258
v -0.00880259 -0.01286947 0.02125374
v 0.00388808 -0.00379196 0.00306589
v 0.00476544 -0.01286947 0.00094774
v -0.00388611 -0.00379196 0.02183444
v -0.00476347 -0.01286947 0.02395259
v 0.00000098 -0.00379196 0.00229270
v 0.00000098 -0.01286947 0.00000003
v 0.00388806 -0.00379196 0.02183444
v 0.00476544 -0.01286947 0.02395259
v 0.00000098 -0.00379196 0.02260763
v -0.00388611 -0.00379196 0.00306589
v -0.00476349 -0.01286947 0.00094773
v 0.00718339 -0.00379196 0.01963258
v 0.00880456 -0.01286947 0.02125374
v -0.00880259 -0.02295955 0.02125374
v -0.01150145 -0.02295955 0.01721462
v -0.01150145 -0.02405025 0.01721462
v -0.00880259 -0.02405025 0.02125374
v -0.00467590 -0.02280083 0.00115919
v 0.00000098 -0.02280083 0.00022891
v 0.00000098 -0.02295955 0.00000002
v -0.00476349 -0.02295955 0.00094773
v 0.00864271 -0.02280083 0.02109189
v 0.00467785 -0.02280083 0.02374112
v 0.00476544 -0.02295955 0.02395259
v 0.00880456 -0.02295955 0.02125374
v -0.00864075 -0.02280083 0.00380843
v -0.00880260 -0.02295955 0.00364658
v 0.01129194 -0.02280083 0.01712703
v 0.01150341 -0.02295955 0.01721462
v -0.01128999 -0.02280083 0.00777328
v -0.01150145 -0.02295955 0.00768569
v 0.01222222 -0.02280083 0.01245016
v 0.01245112 -0.02295955 0.01245016
v -0.01222027 -0.02280083 0.01245016
v -0.01244917 -0.02295955 0.01245016
v 0.01129194 -0.02280083 0.00777328
v 0.01150341 -0.02295955 0.00768569
v -0.01128999 -0.02280083 0.01712703
v 0.00864271 -0.02280083 0.00380843
v 0.00880456 -0.02295955 0.00364658
v -0.00864075 -0.02280083 0.02109189
v 0.00467785 -0.02280083 0.00115919
v 0.00476544 -0.02295955 0.00094773
v 0.01245112 -0.02763743 0.01245016
v 0.01150341 -0.02763743 0.01721462
v 0.01138521 -0.02777356 0.01716566
v 0.01232319 -0.02777356 0.01245016
v 0.00880456 -0.02405025 0.00364658
v 0.00476544 -0.02405025 0.00094773
v -0.00476347 -0.02405025 0.02395259
v 0.00000098 -0.02405025 0.00000002
v 0.00000098 -0.02405025 0.02490028
v 0.00476544 -0.02405025 0.02395257
v -0.00476349 -0.02405025 0.00094773
v 0.00880456 -0.02405025 0.02125374
v -0.00880260 -0.02405025 0.00364658
v 0.01150341 -0.02405025 0.01721462
v -0.01150145 -0.02405025 0.00768569
v 0.01245112 -0.02405025 0.01245016
v -0.01244917 -0.02405025 0.01245016
v 0.01150341 -0.02405025 0.00768569
v -0.00828445 -0.03073781 0.00416473
v -0.00448306 -0.03073781 0.00162472
v -0.00426773 -0.03073781 0.00214458
v -0.00788658 -0.03073781 0.00456261
v -0.01244917 -0.02763743 0.01245016
v -0.01150145 -0.02763743 0.00768569
v -0.01138326 -0.02777356 0.00773465
v -0.01232124 -0.02777356 0.01245016
v 0.01150341 -0.02763743 0.00768569
v 0.01138521 -0.02777356 0.00773465
v -0.01150145 -0.02763743 0.01721462
v -0.01138326 -0.02777356 0.01716566
v 0.00880456 -0.02763743 0.00364658
v 0.00871410 -0.02777356 0.00373704
v -0.00880259 -0.02763743 0.02125374
v -0.00871215 -0.02777356 0.02116328
v 0.00476544 -0.02763743 0.00094773
v 0.00471648 -0.02777356 0.00106590
v -0.00476347 -0.02763743 0.02395259
v -0.00471453 -0.02777356 0.02383440
v 0.00000098 -0.02763743 0.00000002
v 0.00000098 -0.02777356 0.00012794
v 0.00476544 -0.02763743 0.02395257
v 0.00000098 -0.02763743 0.02490028
v 0.00000098 -0.02777356 0.02477237
v 0.00471648 -0.02777356 0.02383440
v -0.00476349 -0.02763743 0.00094773
v -0.00471453 -0.02777356 0.00106590
v 0.00880456 -0.02763743 0.02125374
v 0.00871410 -0.02777356 0.02116328
v -0.00880260 -0.02763743 0.00364658
v -0.00871215 -0.02777356 0.00373704
v -0.00448306 -0.03073781 0.02327557
v -0.00828445 -0.03073781 0.02073558
v -0.00788658 -0.03073781 0.02033771
v -0.00426773 -0.03073781 0.02275573
v 0.00476544 -0.02788287 0.02395257
v 0.00000098 -0.02788287 0.02490028
v 0.00000098 -0.03001910 0.02490028
v 0.00476544 -0.03001910 0.02395257
v -0.01082444 -0.03073781 0.00796612
v -0.01030460 -0.03073781 0.00818145
v 0.01171833 -0.03073781 0.01245016
v 0.01082639 -0.03073781 0.01693419
v 0.01030655 -0.03073781 0.01671887
v 0.01115565 -0.03073781 0.01245016
v -0.01171638 -0.03073781 0.01245016
v -0.01115370 -0.03073781 0.01245016
v 0.01082639 -0.03073781 0.00796612
v 0.01030655 -0.03073781 0.00818145
v -0.01082444 -0.03073781 0.01693419
v -0.01030460 -0.03073781 0.01671887
v 0.00828640 -0.03073781 0.00416473
v 0.00788853 -0.03073781 0.00456261
v -0.00880259 -0.02788287 0.02125374
v -0.01150145 -0.02788287 0.01721462
v -0.01150145 -0.03001910 0.01721462
v -0.00880259 -0.03001910 0.02125372
v 0.00448501 -0.03073781 0.00162472
v 0.00426969 -0.03073781 0.00214458
v 0.00000098 -0.03073781 0.00073280
v 0.00000098 -0.03073781 0.00129548
v 0.00828640 -0.03073781 0.02073558
v 0.00448501 -0.03073781 0.02327557
v 0.00426969 -0.03073781 0.02275573
v 0.00788853 -0.03073781 0.02033771
v 0.00950180 -0.02928167 0.01638552
v 0.01028460 -0.02928167 0.01245016
v 0.00476544 -0.02788287 0.00094773
v 0.00880456 -0.02788287 0.00364658
v 0.00880456 -0.03001910 0.00364658
v 0.00476544 -0.03001910 0.00094773
v -0.00476347 -0.02788287 0.02395259
v -0.00476347 -0.03001910 0.02395257
v 0.00000098 -0.02788287 0.00000002
v 0.00000098 -0.03001910 0.00000000
v 0.00880456 -0.02788287 0.02125374
v 0.00880456 -0.03001910 0.02125372
v -0.00476349 -0.02788287 0.00094773
v -0.00476349 -0.03001910 0.00094773
v 0.00000098 -0.03073781 0.02416751
v 0.00000098 -0.03073781 0.02360484
v -0.00880260 -0.02788287 0.00364658
v -0.00880260 -0.03001910 0.00364658
v 0.01150341 -0.02788287 0.01721462
v 0.01150341 -0.03001910 0.01721462
v -0.01150145 -0.02788287 0.00768569
v -0.01150145 -0.03001910 0.00768569
v 0.01245112 -0.02788287 0.01245016
v 0.01245112 -0.03001910 0.01245016
v -0.01244917 -0.02788287 0.01245016
v -0.01244917 -0.03001910 0.01245016
v 0.01150341 -0.02788287 0.00768569
v 0.01150341 -0.03001910 0.00768569
v 0.00727260 -0.02928167 0.00517853
v 0.00950180 -0.02928167 0.00851479
v 0.00918187 -0.02858531 0.00864731
v 0.00702773 -0.02858531 0.00542340
v -0.00949985 -0.02928167 0.00851479
v -0.01028265 -0.02928167 0.01245016
v -0.00949985 -0.02928167 0.01638554
v -0.00727065 -0.02928167 0.01972178
v 0.00393634 -0.02928167 0.00294933
v -0.00393439 -0.02928167 0.02195098
v 0.00000098 -0.02928167 0.00216653
v 0.00000098 -0.02928167 0.02273377
v 0.00393634 -0.02928167 0.02195098
v -0.00393439 -0.02928167 0.00294933
v 0.00727260 -0.02928167 0.01972178
v -0.00727065 -0.02928167 0.00517853
v 0.00000098 -0.03052731 0.02468567
v 0.00468331 -0.03052731 0.02375429
v 0.00865279 -0.03052731 0.02110197
v 0.01130511 -0.03052731 0.01713249
v 0.01223649 -0.03052729 0.01245016
v 0.01130511 -0.03052731 0.00776783
v 0.00865279 -0.03052731 0.00379835
v 0.00468331 -0.03052731 0.00114602
v 0.00000098 -0.03052731 0.00021465
v -0.00468135 -0.03052731 0.00114602
v -0.00865083 -0.03052729 0.00379835
v -0.01130316 -0.03052731 0.00776783
v -0.01223453 -0.03052731 0.01245016
v -0.01130316 -0.03052731 0.01713249
v -0.00865083 -0.03052731 0.02110197
v -0.00468134 -0.03052731 0.02375429
v -0.00387245 0.00212603 0.02180145
v 0.00000098 0.00212603 0.02257193
v -0.00715619 0.00212603 0.01960734
v -0.00935032 0.00212603 0.01632360
v -0.01012080 0.00212603 0.01245016
v -0.00935032 0.00212603 0.00857673
v -0.00715619 0.00212603 0.00529299
v -0.00387245 0.00212603 0.00309886
v 0.00000098 0.00212603 0.00232838
v 0.00387442 0.00212603 0.00309886
v 0.00715814 0.00212603 0.00529299
v 0.00935227 0.00212603 0.00857673
v 0.01012275 0.00212603 0.01245016
v 0.00935227 0.00212603 0.01632360
v 0.00715814 0.00212603 0.01960734
v 0.00387442 0.00212603 0.02180145
v 0.00000098 0.05780583 0.02257193
v 0.00387442 0.05780583 0.02180145
v 0.00715814 0.05780583 0.01960734
v 0.00935227 0.05780583 0.01632360
v 0.01012275 0.05780583 0.01245016
v 0.00935227 0.05780583 0.00857673
v 0.00715814 0.05780583 0.00529299
v 0.00387442 0.05780583 0.00309886
v 0.00000098 0.05780583 0.00232840
v -0.00387245 0.05780583 0.00309886
v -0.00715619 0.05780583 0.00529299
v -0.00935032 0.05780583 0.00857673
v -0.01012080 0.05780583 0.01245016
v -0.00935032 0.05780583 0.01632360
v -0.00715619 0.05780583 0.01960734
v -0.00387245 0.05780583 0.02180147
v -0.00387245 0.05816327 0.02180147
v -0.00379746 0.05798916 0.02162044
v 0.00000098 0.05798916 0.02237599
v 0.00000098 0.05816327 0.02257193
v -0.00715619 0.05816327 0.01960734
v -0.00701764 0.05798916 0.01946878
v -0.00935032 0.05816327 0.01632360
v -0.00916928 0.05798916 0.01624861
v -0.01012080 0.05816327 0.01245016
v -0.00992485 0.05798916 0.01245016
v -0.00935032 0.05816327 0.00857673
v -0.00916928 0.05798916 0.00865172
v -0.00715619 0.05816327 0.00529299
v -0.00701764 0.05798916 0.00543154
v -0.00387245 0.05816327 0.00309886
v -0.00379748 0.05798916 0.00327990
v 0.00000098 0.05816327 0.00232840
v 0.00000098 0.05798916 0.00252435
v 0.00387442 0.05816327 0.00309886
v 0.00379943 0.05798916 0.00327990
v 0.00715814 0.05816327 0.00529299
v 0.00701960 0.05798916 0.00543155
v 0.00935227 0.05816327 0.00857673
v 0.00917124 0.05798916 0.00865172
v 0.01012275 0.05816327 0.01245016
v 0.00992680 0.05798916 0.01245016
v 0.00935227 0.05816327 0.01632360
v 0.00917124 0.05798916 0.01624861
v 0.00715814 0.05816327 0.01960734
v 0.00701960 0.05798916 0.01946878
v 0.00387442 0.05816327 0.02180145
v 0.00379943 0.05798916 0.02162044
v 0.00476544 -0.02265192 0.02395259
v 0.00000098 -0.02265192 0.02490030
v 0.00000098 -0.02265192 0.00000002
v 0.00476544 -0.02265192 0.00094773
v -0.00476347 -0.02265192 0.02395259
v -0.00880259 -0.02265192 0.02125374
v 0.00880456 -0.02265192 0.00364658
v -0.01150145 -0.02265192 0.01721462
v 0.01150341 -0.02265192 0.00768569
v -0.01244917 -0.02265192 0.01245016
v 0.01245112 -0.02265192 0.01245016
v -0.01150145 -0.02265192 0.00768569
v 0.01150341 -0.02265192 0.01721462
v -0.00880260 -0.02265192 0.00364658
v 0.00880456 -0.02265192 0.02125374
v -0.00476349 -0.02265192 0.00094773
v -0.00917992 -0.02858531 0.01625301
v -0.00993634 -0.02858531 0.01245016
v -0.00608014 -0.01681245 0.01245016
v -0.00561725 -0.01681245 0.01477731
v -0.00702578 -0.02858531 0.01947691
v 0.00380383 -0.02858531 0.00326925
v -0.00380187 -0.02858531 0.02163105
v 0.00000098 -0.02858531 0.00251282
v 0.00000098 -0.02858531 0.02238747
v 0.00380383 -0.02858531 0.02163104
v -0.00380187 -0.02858531 0.00326925
v 0.00702773 -0.02858531 0.01947691
v -0.00702578 -0.02858531 0.00542340
v 0.00918187 -0.02858531 0.01625301
v -0.00917992 -0.02858531 0.00864731
v 0.00993831 -0.02858531 0.01245016
v 0.00561920 -0.01681245 0.01477731
v 0.00430097 -0.01681245 0.01675015
v 0.00376460 -0.01681245 0.01621378
v 0.00491839 -0.01681245 0.01448703
v 0.00561920 -0.01681245 0.01012301
v 0.00430097 -0.01681245 0.00815017
v -0.00429902 -0.01681245 0.01675015
v 0.00232812 -0.01681245 0.00683194
v -0.00232616 -0.01681245 0.01806838
v 0.00000098 -0.01681245 0.00636905
v 0.00000098 -0.01681245 0.01853127
v 0.00232812 -0.01681245 0.01806838
v -0.00232617 -0.01681245 0.00683194
v -0.00429902 -0.01681245 0.00815015
v -0.00561725 -0.01681245 0.01012301
v 0.00608209 -0.01681245 0.01245016
v 0.00000098 -0.01681245 0.00712759
v 0.00203784 -0.01681245 0.00753274
v 0.00203784 -0.01598959 0.00753274
v 0.00000098 -0.01598959 0.00712759
v -0.00376265 -0.01681245 0.00868653
v -0.00491644 -0.01681245 0.01041329
v 0.00532355 -0.01681245 0.01245016
v -0.00532160 -0.01681245 0.01245016
v 0.00491839 -0.01681245 0.01041329
v -0.00491644 -0.01681245 0.01448703
v 0.00376460 -0.01681245 0.00868653
v -0.00376265 -0.01681245 0.01621378
v -0.00203587 -0.01681245 0.01736757
v 0.00000098 -0.01681245 0.01777273
v 0.00203784 -0.01681245 0.01736757
v -0.00203587 -0.01681245 0.00753274
v -0.00491644 -0.01598959 0.01448703
v -0.00532160 -0.01598959 0.01245016
v -0.00439205 -0.01671403 0.01245016
v -0.00405764 -0.01671403 0.01413130
v 0.00000098 -0.01598959 0.01777273
v 0.00203784 -0.01598959 0.01736757
v -0.00203587 -0.01598959 0.01736757
v -0.00203587 -0.01598959 0.00753274
v 0.00376460 -0.01598959 0.01621378
v -0.00376265 -0.01598959 0.00868653
v 0.00491839 -0.01598959 0.01448703
v -0.00491644 -0.01598959 0.01041329
v 0.00532355 -0.01598959 0.01245016
v 0.00491839 -0.01598959 0.01041329
v 0.00376460 -0.01598959 0.00868653
v -0.00376265 -0.01598959 0.01621378
v 0.00405959 -0.01671403 0.01413130
v 0.00310731 -0.01671403 0.01555649
v 0.00265662 -0.01671403 0.01510579
v 0.00347074 -0.01671403 0.01388738
v 0.00405959 -0.01671403 0.01076902
v 0.00310731 -0.01671403 0.00934382
v -0.00310536 -0.01671403 0.01555649
v 0.00168211 -0.01671403 0.00839152
v -0.00168016 -0.01671403 0.01650877
v 0.00000098 -0.01671403 0.00805714
v 0.00000098 -0.01671403 0.01684318
v 0.00168211 -0.01671403 0.01650877
v -0.00168016 -0.01671403 0.00839152
v -0.00310536 -0.01671403 0.00934382
v -0.00405764 -0.01671403 0.01076902
v 0.00439400 -0.01671403 0.01245016
v 0.00000098 -0.01671403 0.00869451
v 0.00143820 -0.01671403 0.00898039
v 0.00136931 -0.01562286 0.00914669
v 0.00000098 -0.01562286 0.00887452
v -0.00265465 -0.01671403 0.00979451
v -0.00346879 -0.01671403 0.01101293
v 0.00375662 -0.01671403 0.01245016
v -0.00375466 -0.01671403 0.01245016
v 0.00347074 -0.01671403 0.01101293
v -0.00346877 -0.01671403 0.01388738
v 0.00265662 -0.01671403 0.00979451
v -0.00265465 -0.01671403 0.01510579
v -0.00143625 -0.01671403 0.01591992
v 0.00000098 -0.01671403 0.01620579
v 0.00143820 -0.01671403 0.01591991
v -0.00143625 -0.01671403 0.00898039
v 0.00136931 -0.01562286 0.01575362
v 0.00000098 -0.01562286 0.01602580
v -0.00136736 -0.01562286 0.01575362
v -0.00252739 -0.01562286 0.01497852
v -0.00330249 -0.01562286 0.01381849
v -0.00357466 -0.01562286 0.01245016
v -0.00330249 -0.01562286 0.01108182
v -0.00252739 -0.01562286 0.00992180
v -0.00136736 -0.01562286 0.00914669
v 0.00252934 -0.01562286 0.00992180
v 0.00330444 -0.01562286 0.01108182
v 0.00357661 -0.01562286 0.01245016
v 0.00330444 -0.01562286 0.01381849
v 0.00252934 -0.01562286 0.01497852
v 0.00000098 -0.01562286 0.00817351
v 0.00181993 -0.01694441 0.00881220
v -0.00069378 -0.01776116 0.00881220
v 0.00309560 -0.01787121 0.01053755
v 0.00363890 -0.01562286 0.01020177
v -0.00224739 -0.01562286 0.00881222
v -0.00069378 -0.01348455 0.00881220
v 0.00181993 -0.01430133 0.00881220
v 0.00406833 -0.01694441 0.01245016
v -0.00118104 -0.01926080 0.01053755
v 0.00112517 -0.01908273 0.01020175
v 0.00000098 -0.01989953 0.01245016
v -0.00382417 -0.01562286 0.01053757
v -0.00294217 -0.01776119 0.01020177
v -0.00406636 -0.01694441 0.01245016
v -0.00118104 -0.01198493 0.01053755
v -0.00294217 -0.01348455 0.01020177
v -0.00251279 -0.01216298 0.01245016
v 0.00309560 -0.01337452 0.01053755
v 0.00112517 -0.01216300 0.01020175
v 0.00251474 -0.01216298 0.01245016
v 0.00251474 -0.01908275 0.01245016
v -0.00251279 -0.01908275 0.01245016
v -0.00406636 -0.01430133 0.01245016
v 0.00000098 -0.01134620 0.01245016
v 0.00406833 -0.01430133 0.01245016
v 0.00118299 -0.01926080 0.01436277
v 0.00294412 -0.01776119 0.01469855
v 0.00069575 -0.01776116 0.01608812
v -0.00309365 -0.01787121 0.01436277
v -0.00112322 -0.01908273 0.01469856
v -0.00181798 -0.01694441 0.01608812
v -0.00309365 -0.01337452 0.01436277
v -0.00363695 -0.01562286 0.01469855
v -0.00181798 -0.01430133 0.01608812
v 0.00118299 -0.01198493 0.01436277
v -0.00112322 -0.01216300 0.01469856
v 0.00069575 -0.01348455 0.01608812
v 0.00382612 -0.01562286 0.01436275
v 0.00294412 -0.01348455 0.01469855
v 0.00224935 -0.01562286 0.01608810
v 0.00000098 -0.01562286 0.01672681
v -0.00260514 -0.01024598 0.02361273
v 0.00000098 -0.00917057 0.02352731
v 0.00368659 -0.01284226 0.02381895
v 0.00000098 -0.01020341 0.02430990
v -0.00182489 -0.01095686 0.02436974
v -0.00258119 -0.01277585 0.02451423
v -0.00182489 -0.01459482 0.02465871
v 0.00000098 -0.01534827 0.02471855
v 0.00182685 -0.01459482 0.02465871
v 0.00258314 -0.01277585 0.02451423
v 0.00182685 -0.01095686 0.02436974
v 0.00260709 -0.01024598 0.02361273
v -0.00368464 -0.01284226 0.02381895
v -0.00260514 -0.01543855 0.02402516
v 0.00230805 -0.01049693 0.02412803
v 0.00000098 -0.00954491 0.02405241
v 0.00326367 -0.01279530 0.02431058
v 0.00230805 -0.01509367 0.02449315
v 0.00000098 -0.01604569 0.02456876
v -0.00230610 -0.01509367 0.02449315
v -0.00326172 -0.01279530 0.02431058
v -0.00230610 -0.01049693 0.02412803
f 1 2 3
f 1 3 4
f 2 5 6
f 2 6 3
f 5 7 8
f 5 8 6
f 7 9 10
f 7 10 8
f 9 11 12
f 9 12 10
f 11 13 14
f 11 14 12
f 13 15 16
f 13 16 14
f 15 1 4
f 15 4 16
f 9 7 17
f 9 17 18
f 19 20 21
f 19 21 22
f 22 21 23
f 22 23 24
f 24 23 25
f 24 25 26
f 26 25 27
f 26 27 28
f 28 27 29
f 28 29 30
f 30 29 31
f 30 31 32
f 32 31 33
f 32 33 34
f 34 33 35
f 34 35 36
f 36 35 37
f 36 37 38
f 38 37 39
f 38 39 40
f 40 39 41
f 40 41 42
f 42 41 43
f 42 43 44
f 44 43 45
f 44 45 46
f 46 45 47
f 46 47 48
f 49 50 51
f 49 51 52
f 48 47 53
f 48 53 54
f 54 53 20
f 54 20 19
f 55 56 57
f 55 57 58
f 59 60 61
f 59 61 62
f 63 64 65
f 63 65 66
f 67 68 69
f 67 69 70
f 71 72 73
f 71 73 74
f 75 76 77
f 75 77 78
f 60 79 80
f 60 80 61
f 64 81 82
f 64 82 65
f 83 84 85
f 83 85 86
f 56 87 88
f 56 88 57
f 72 55 58
f 72 58 73
f 76 67 70
f 76 70 77
f 79 71 74
f 79 74 80
f 89 90 91
f 89 91 92
f 81 75 78
f 81 78 82
f 68 59 62
f 68 62 69
f 93 63 66
f 93 66 94
f 104 102 103
f 102 104 105
f 102 105 101
f 101 105 106
f 101 106 100
f 100 106 107
f 100 107 99
f 99 107 108
f 99 108 98
f 98 108 109
f 98 109 97
f 97 109 110
f 97 110 96
f 96 110 95
f 90 111 112
f 90 112 91
f 84 113 114
f 84 114 85
f 111 115 116
f 111 116 112
f 113 117 118
f 113 118 114
f 115 119 120
f 115 120 116
f 117 121 122
f 117 122 118
f 119 123 124
f 119 124 120
f 121 125 126
f 121 126 122
f 123 127 128
f 123 128 124
f 125 129 130
f 125 130 126
f 127 131 132
f 127 132 128
f 129 133 134
f 129 134 130
f 131 83 86
f 131 86 132
f 88 94 135
f 88 135 136
f 136 135 96
f 136 96 95
f 94 66 137
f 94 137 135
f 135 137 97
f 135 97 96
f 66 65 138
f 66 138 137
f 137 138 98
f 137 98 97
f 65 82 139
f 65 139 138
f 138 139 99
f 138 99 98
f 82 78 140
f 82 140 139
f 139 140 100
f 139 100 99
f 78 77 141
f 78 141 140
f 140 141 101
f 140 101 100
f 77 70 142
f 77 142 141
f 141 142 102
f 141 102 101
f 70 69 143
f 70 143 142
f 142 143 103
f 142 103 102
f 69 62 144
f 69 144 143
f 143 144 104
f 143 104 103
f 62 61 145
f 62 145 144
f 144 145 105
f 144 105 104
f 61 80 146
f 61 146 145
f 145 146 106
f 145 106 105
f 80 74 147
f 80 147 146
f 146 147 107
f 146 107 106
f 74 73 148
f 74 148 147
f 147 148 108
f 147 108 107
f 73 58 149
f 73 149 148
f 148 149 109
f 148 109 108
f 58 57 150
f 58 150 149
f 149 150 110
f 149 110 109
f 57 88 136
f 57 136 150
f 150 136 95
f 150 95 110
f 133 89 92
f 133 92 134
f 92 91 151
f 92 151 152
f 152 151 93
f 152 93 87
f 91 112 153
f 91 153 151
f 151 153 63
f 151 63 93
f 112 116 154
f 112 154 153
f 153 154 64
f 153 64 63
f 116 120 155
f 116 155 154
f 154 155 81
f 154 81 64
f 120 124 156
f 120 156 155
f 155 156 75
f 155 75 81
f 124 128 157
f 124 157 156
f 156 157 76
f 156 76 75
f 128 132 158
f 128 158 157
f 157 158 67
f 157 67 76
f 132 86 159
f 132 159 158
f 158 159 68
f 158 68 67
f 86 85 160
f 86 160 159
f 159 160 59
f 159 59 68
f 85 114 161
f 85 161 160
f 160 161 60
f 160 60 59
f 114 118 162
f 114 162 161
f 161 162 79
f 161 79 60
f 118 122 163
f 118 163 162
f 162 163 71
f 162 71 79
f 122 126 164
f 122 164 163
f 163 164 72
f 163 72 71
f 126 130 165
f 126 165 164
f 164 165 55
f 164 55 72
f 130 134 166
f 130 166 165
f 165 166 56
f 165 56 55
f 134 92 152
f 134 152 166
f 166 152 87
f 166 87 56
f 87 93 94
f 87 94 88
f 167 168 169
f 167 169 170
f 171 172 173
f 171 173 174
f 175 176 177
f 175 177 178
f 179 180 181
f 179 181 182
f 183 184 185
f 183 185 186
f 187 188 189
f 187 189 190
f 191 192 193
f 191 193 194
f 195 49 52
f 195 52 196
f 197 171 174
f 197 174 198
f 188 175 178
f 188 178 189
f 50 179 182
f 50 182 51
f 172 183 186
f 172 186 173
f 176 191 194
f 176 194 177
f 180 187 190
f 180 190 181
f 184 195 196
f 184 196 185
f 192 197 198
f 192 198 193
f 199 200 201
f 199 201 202
f 203 204 205
f 203 205 206
f 207 167 170
f 207 170 208
f 209 203 206
f 209 206 210
f 211 207 208
f 211 208 212
f 213 209 210
f 213 210 214
f 215 211 212
f 215 212 216
f 217 213 214
f 217 214 218
f 219 215 216
f 219 216 220
f 221 217 218
f 221 218 222
f 223 3 6
f 223 6 224
f 225 219 16
f 225 16 4
f 226 221 222
f 226 222 227
f 228 223 224
f 228 224 229
f 168 226 227
f 168 227 169
f 204 228 229
f 204 229 205
f 230 231 232
f 230 232 233
f 234 235 236
f 234 236 237
f 238 239 240
f 238 240 241
f 242 234 237
f 242 237 243
f 244 238 241
f 244 241 245
f 246 242 243
f 246 243 247
f 248 244 245
f 248 245 249
f 250 246 247
f 250 247 251
f 252 248 249
f 252 249 253
f 254 250 251
f 254 251 231
f 255 252 253
f 255 253 256
f 257 254 231
f 257 231 230
f 258 255 256
f 258 256 259
f 200 257 230
f 200 230 201
f 235 258 259
f 235 259 236
f 239 199 202
f 239 202 240
f 260 261 262
f 260 262 263
f 259 256 264
f 259 264 265
f 201 230 233
f 201 233 266
f 236 259 265
f 236 265 267
f 240 202 268
f 240 268 269
f 202 201 266
f 202 266 268
f 237 236 267
f 237 267 270
f 241 240 269
f 241 269 271
f 243 237 270
f 243 270 272
f 245 241 271
f 245 271 273
f 247 243 272
f 247 272 274
f 249 245 273
f 249 273 275
f 251 247 274
f 251 274 276
f 253 249 275
f 253 275 277
f 231 251 276
f 231 276 232
f 256 253 277
f 256 277 264
f 278 279 280
f 278 280 281
f 282 283 284
f 282 284 285
f 286 260 263
f 286 263 287
f 288 282 285
f 288 285 289
f 290 286 287
f 290 287 291
f 292 288 289
f 292 289 293
f 294 290 291
f 294 291 295
f 296 292 293
f 296 293 297
f 298 294 295
f 298 295 299
f 300 301 302
f 300 302 303
f 301 296 297
f 301 297 302
f 304 298 299
f 304 299 305
f 306 300 303
f 306 303 307
f 308 304 305
f 308 305 309
f 261 306 307
f 261 307 262
f 283 308 309
f 283 309 284
f 310 311 312
f 310 312 313
f 314 315 316
f 314 316 317
f 318 278 281
f 318 281 319
f 320 321 322
f 320 322 323
f 324 318 319
f 324 319 325
f 326 320 323
f 326 323 327
f 328 324 325
f 328 325 329
f 330 326 327
f 330 327 331
f 332 333 334
f 332 334 335
f 336 330 331
f 336 331 337
f 311 328 329
f 311 329 312
f 338 336 337
f 338 337 339
f 279 338 339
f 279 339 280
f 340 341 342
f 340 342 343
f 321 340 343
f 321 343 322
f 323 322 344
f 323 344 345
f 346 347 348
f 346 348 349
f 350 332 335
f 350 335 351
f 352 346 349
f 352 349 353
f 354 314 317
f 354 317 355
f 315 350 351
f 315 351 316
f 356 352 353
f 356 353 357
f 358 310 313
f 358 313 359
f 360 356 357
f 360 357 361
f 362 354 355
f 362 355 363
f 364 360 361
f 364 361 365
f 366 362 363
f 366 363 367
f 368 364 365
f 368 365 369
f 370 366 367
f 370 367 371
f 333 368 369
f 333 369 334
f 347 370 371
f 347 371 348
f 372 373 374
f 372 374 375
f 325 319 376
f 325 376 377
f 327 323 345
f 327 345 373
f 329 325 377
f 329 377 378
f 331 327 373
f 331 373 372
f 312 329 378
f 312 378 379
f 337 331 372
f 337 372 380
f 313 312 379
f 313 379 381
f 339 337 380
f 339 380 382
f 342 359 383
f 342 383 384
f 359 313 381
f 359 381 383
f 280 339 382
f 280 382 385
f 343 342 384
f 343 384 386
f 281 280 385
f 281 385 387
f 322 343 386
f 322 386 344
f 319 281 387
f 319 387 376
f 317 316 388
f 317 388 389
f 389 388 358
f 389 358 341
f 355 317 389
f 355 389 390
f 390 389 341
f 390 341 340
f 363 355 390
f 363 390 391
f 391 390 340
f 391 340 321
f 367 363 391
f 367 391 392
f 392 391 321
f 392 321 320
f 371 367 392
f 371 392 393
f 393 392 320
f 393 320 326
f 348 371 393
f 348 393 394
f 394 393 326
f 394 326 330
f 349 348 394
f 349 394 395
f 395 394 330
f 395 330 336
f 353 349 395
f 353 395 396
f 396 395 336
f 396 336 338
f 357 353 396
f 357 396 397
f 397 396 338
f 397 338 279
f 361 357 397
f 361 397 398
f 398 397 279
f 398 279 278
f 365 361 398
f 365 398 399
f 399 398 278
f 399 278 318
f 369 365 399
f 369 399 400
f 400 399 318
f 400 318 324
f 334 369 400
f 334 400 401
f 401 400 324
f 401 324 328
f 335 334 401
f 335 401 402
f 402 401 328
f 402 328 311
f 351 335 402
f 351 402 403
f 403 402 311
f 403 311 310
f 316 351 403
f 316 403 388
f 388 403 310
f 388 310 358
f 341 358 359
f 341 359 342
f 404 54 19
f 404 19 405
f 406 48 54
f 406 54 404
f 407 46 48
f 407 48 406
f 408 44 46
f 408 46 407
f 409 42 44
f 409 44 408
f 410 40 42
f 410 42 409
f 411 38 40
f 411 40 410
f 412 36 38
f 412 38 411
f 413 34 36
f 413 36 412
f 414 32 34
f 414 34 413
f 415 30 32
f 415 32 414
f 416 28 30
f 416 30 415
f 417 26 28
f 417 28 416
f 418 24 26
f 418 26 417
f 419 22 24
f 419 24 418
f 405 19 22
f 405 22 419
f 420 405 419
f 420 419 421
f 421 419 418
f 421 418 422
f 422 418 417
f 422 417 423
f 423 417 416
f 423 416 424
f 424 416 415
f 424 415 425
f 425 415 414
f 425 414 426
f 426 414 413
f 426 413 427
f 427 413 412
f 427 412 428
f 428 412 411
f 428 411 429
f 429 411 410
f 429 410 430
f 430 410 409
f 430 409 431
f 431 409 408
f 431 408 432
f 432 408 407
f 432 407 433
f 433 407 406
f 433 406 434
f 434 406 404
f 434 404 435
f 435 404 405
f 435 405 420
f 43 41 197
f 43 197 192
f 33 31 195
f 33 195 184
f 23 21 187
f 23 187 180
f 47 45 191
f 47 191 176
f 37 35 183
f 37 183 172
f 27 25 179
f 27 179 50
f 20 53 175
f 20 175 188
f 41 39 171
f 41 171 197
f 31 29 49
f 31 49 195
f 45 43 192
f 45 192 191
f 21 20 188
f 21 188 187
f 35 33 184
f 35 184 183
f 25 23 180
f 25 180 179
f 53 47 176
f 53 176 175
f 39 37 172
f 39 172 171
f 29 27 50
f 29 50 49
f 182 181 228
f 182 228 204
f 174 173 226
f 174 226 168
f 181 190 223
f 181 223 228
f 173 186 221
f 173 221 226
f 189 178 219
f 189 219 225
f 190 189 225
f 190 225 223
f 186 185 217
f 186 217 221
f 178 177 215
f 178 215 219
f 185 196 213
f 185 213 217
f 177 194 211
f 177 211 215
f 196 52 209
f 196 209 213
f 194 193 207
f 194 207 211
f 52 51 203
f 52 203 209
f 193 198 167
f 193 167 207
f 51 182 204
f 51 204 203
f 198 174 168
f 198 168 167
f 436 437 438
f 436 438 439
f 440 441 437
f 440 437 436
f 442 443 441
f 442 441 440
f 444 445 443
f 444 443 442
f 446 447 445
f 446 445 444
f 448 449 447
f 448 447 446
f 450 451 449
f 450 449 448
f 452 453 451
f 452 451 450
f 454 455 453
f 454 453 452
f 456 457 455
f 456 455 454
f 458 459 457
f 458 457 456
f 460 461 459
f 460 459 458
f 462 463 461
f 462 461 460
f 464 465 463
f 464 463 462
f 466 467 465
f 466 465 464
f 439 438 467
f 439 467 466
f 89 439 466
f 89 466 90
f 90 466 464
f 90 464 111
f 111 464 462
f 111 462 115
f 115 462 460
f 115 460 119
f 119 460 458
f 119 458 123
f 123 458 456
f 123 456 127
f 127 456 454
f 127 454 131
f 131 454 452
f 131 452 83
f 83 452 450
f 83 450 84
f 84 450 448
f 84 448 113
f 113 448 446
f 113 446 117
f 117 446 444
f 117 444 121
f 121 444 442
f 121 442 125
f 125 442 440
f 125 440 129
f 129 440 436
f 129 436 133
f 133 436 439
f 133 439 89
f 437 435 420
f 437 420 438
f 441 434 435
f 441 435 437
f 443 433 434
f 443 434 441
f 445 432 433
f 445 433 443
f 447 431 432
f 447 432 445
f 449 430 431
f 449 431 447
f 451 429 430
f 451 430 449
f 453 428 429
f 453 429 451
f 455 427 428
f 455 428 453
f 457 426 427
f 457 427 455
f 459 425 426
f 459 426 457
f 461 424 425
f 461 425 459
f 463 423 424
f 463 424 461
f 465 422 423
f 465 423 463
f 467 421 422
f 467 422 465
f 438 420 421
f 438 421 467
f 274 272 308
f 274 308 283
f 273 271 306
f 273 306 261
f 272 270 304
f 272 304 308
f 271 269 300
f 271 300 306
f 270 267 298
f 270 298 304
f 268 266 296
f 268 296 301
f 269 268 301
f 269 301 300
f 267 265 294
f 267 294 298
f 266 233 292
f 266 292 296
f 265 264 290
f 265 290 294
f 233 232 288
f 233 288 292
f 264 277 286
f 264 286 290
f 232 276 282
f 232 282 288
f 277 275 260
f 277 260 286
f 276 274 283
f 276 283 282
f 275 273 261
f 275 261 260
f 291 287 370
f 291 370 347
f 289 285 368
f 289 368 333
f 287 263 366
f 287 366 370
f 285 284 364
f 285 364 368
f 263 262 362
f 263 362 366
f 284 309 360
f 284 360 364
f 262 307 354
f 262 354 362
f 309 305 356
f 309 356 360
f 305 299 352
f 305 352 356
f 302 297 350
f 302 350 315
f 307 303 314
f 307 314 354
f 299 295 346
f 299 346 352
f 297 293 332
f 297 332 350
f 295 291 347
f 295 347 346
f 293 289 333
f 293 333 332
f 303 302 315
f 303 315 314
f 468 469 199
f 468 199 239
f 470 471 258
f 470 258 235
f 472 473 257
f 472 257 200
f 471 474 255
f 471 255 258
f 473 475 254
f 473 254 257
f 474 476 252
f 474 252 255
f 475 477 250
f 475 250 254
f 476 478 248
f 476 248 252
f 477 479 246
f 477 246 250
f 478 480 244
f 478 244 248
f 479 481 242
f 479 242 246
f 480 482 238
f 480 238 244
f 481 483 234
f 481 234 242
f 482 468 239
f 482 239 238
f 483 470 235
f 483 235 234
f 469 472 200
f 469 200 199
f 227 222 470
f 227 470 483
f 229 224 468
f 229 468 482
f 169 227 483
f 169 483 481
f 205 229 482
f 205 482 480
f 170 169 481
f 170 481 479
f 206 205 480
f 206 480 478
f 208 170 479
f 208 479 477
f 210 206 478
f 210 478 476
f 212 208 477
f 212 477 475
f 214 210 476
f 214 476 474
f 216 212 475
f 216 475 473
f 218 214 474
f 218 474 471
f 220 216 473
f 220 473 472
f 222 218 471
f 222 471 470
f 224 6 8
f 224 8 468
f 484 485 486
f 484 486 487
f 379 378 484
f 379 484 488
f 380 372 375
f 380 375 489
f 381 379 488
f 381 488 490
f 382 380 489
f 382 489 491
f 384 383 492
f 384 492 493
f 383 381 490
f 383 490 492
f 385 382 491
f 385 491 494
f 386 384 493
f 386 493 495
f 387 385 494
f 387 494 496
f 344 386 495
f 344 495 497
f 376 387 496
f 376 496 498
f 345 344 497
f 345 497 499
f 377 376 498
f 377 498 485
f 373 345 499
f 373 499 374
f 378 377 485
f 378 485 484
f 500 501 502
f 500 502 503
f 375 374 504
f 375 504 505
f 488 484 487
f 488 487 506
f 489 375 505
f 489 505 507
f 490 488 506
f 490 506 508
f 491 489 507
f 491 507 509
f 493 492 510
f 493 510 511
f 492 490 508
f 492 508 510
f 494 491 509
f 494 509 512
f 495 493 511
f 495 511 501
f 496 494 512
f 496 512 513
f 497 495 501
f 497 501 500
f 498 496 513
f 498 513 514
f 499 497 500
f 499 500 515
f 485 498 514
f 485 514 486
f 374 499 515
f 374 515 504
f 516 517 518
f 516 518 519
f 514 513 520
f 514 520 521
f 515 500 503
f 515 503 522
f 486 514 521
f 486 521 523
f 504 515 522
f 504 522 524
f 487 486 523
f 487 523 525
f 505 504 524
f 505 524 526
f 506 487 525
f 506 525 527
f 507 505 526
f 507 526 517
f 508 506 527
f 508 527 528
f 509 507 517
f 509 517 516
f 511 510 529
f 511 529 530
f 510 508 528
f 510 528 529
f 512 509 516
f 512 516 531
f 501 511 530
f 501 530 502
f 513 512 531
f 513 531 520
f 532 533 534
f 532 534 535
f 530 529 536
f 530 536 537
f 529 528 538
f 529 538 536
f 531 516 519
f 531 519 539
f 502 530 537
f 502 537 540
f 520 531 539
f 520 539 541
f 503 502 540
f 503 540 542
f 521 520 541
f 521 541 543
f 522 503 542
f 522 542 544
f 523 521 543
f 523 543 533
f 524 522 544
f 524 544 545
f 525 523 533
f 525 533 532
f 526 524 545
f 526 545 546
f 527 525 532
f 527 532 547
f 517 526 546
f 517 546 518
f 528 527 547
f 528 547 538
f 548 549 550
f 548 550 551
f 546 545 552
f 546 552 553
f 547 532 535
f 547 535 554
f 518 546 553
f 518 553 555
f 538 547 554
f 538 554 556
f 519 518 555
f 519 555 557
f 537 536 558
f 537 558 559
f 536 538 556
f 536 556 558
f 539 519 557
f 539 557 560
f 540 537 559
f 540 559 549
f 541 539 560
f 541 560 561
f 542 540 549
f 542 549 548
f 543 541 561
f 543 561 562
f 544 542 548
f 544 548 563
f 533 543 562
f 533 562 534
f 545 544 563
f 545 563 552
f 564 565 566
f 564 566 567
f 562 561 568
f 562 568 569
f 563 548 551
f 563 551 570
f 534 562 569
f 534 569 571
f 552 563 570
f 552 570 572
f 535 534 571
f 535 571 573
f 553 552 572
f 553 572 574
f 554 535 573
f 554 573 575
f 555 553 574
f 555 574 565
f 556 554 575
f 556 575 576
f 557 555 565
f 557 565 564
f 559 558 577
f 559 577 578
f 558 556 576
f 558 576 577
f 560 557 564
f 560 564 579
f 549 559 578
f 549 578 550
f 561 560 579
f 561 579 568
f 566 588 567
f 588 566 589
f 588 589 587
f 587 589 590
f 587 590 586
f 586 590 591
f 586 591 585
f 585 591 592
f 585 592 584
f 584 592 593
f 584 593 583
f 583 593 580
f 583 580 582
f 582 580 581
f 578 577 581
f 578 581 580
f 577 576 582
f 577 582 581
f 579 564 567
f 579 567 588
f 550 578 580
f 550 580 593
f 568 579 588
f 568 588 587
f 551 550 593
f 551 593 592
f 569 568 587
f 569 587 586
f 570 551 592
f 570 592 591
f 571 569 586
f 571 586 585
f 572 570 591
f 572 591 590
f 573 571 585
f 573 585 584
f 574 572 590
f 574 590 589
f 575 573 584
f 575 584 583
f 565 574 589
f 565 589 566
f 576 575 583
f 576 583 582
f 594 595 596
f 597 595 598
f 594 596 599
f 594 599 600
f 594 600 601
f 597 598 602
f 603 604 605
f 606 607 608
f 609 610 611
f 612 613 614
f 597 602 615
f 603 605 616
f 606 608 617
f 609 611 618
f 612 614 619
f 620 621 622
f 623 624 625
f 626 627 628
f 629 630 631
f 632 633 634
f 634 631 635
f 634 633 631
f 633 629 631
f 631 628 635
f 631 630 628
f 630 626 628
f 628 625 635
f 628 627 625
f 627 623 625
f 625 622 635
f 625 624 622
f 624 620 622
f 622 634 635
f 622 621 634
f 621 632 634
f 619 633 632
f 619 614 633
f 614 629 633
f 618 630 629
f 618 611 630
f 611 626 630
f 617 627 626
f 617 608 627
f 608 623 627
f 616 624 623
f 616 605 624
f 605 620 624
f 615 621 620
f 615 602 621
f 602 632 621
f 614 618 629
f 614 613 618
f 613 609 618
f 611 617 626
f 611 610 617
f 610 606 617
f 608 616 623
f 608 607 616
f 607 603 616
f 605 615 620
f 605 604 615
f 604 597 615
f 602 619 632
f 602 598 619
f 598 612 619
f 601 613 612
f 601 600 613
f 600 609 613
f 600 610 609
f 600 599 610
f 599 606 610
f 599 607 606
f 599 596 607
f 596 603 607
f 598 601 612
f 598 595 601
f 595 594 601
f 596 604 603
f 596 595 604
f 595 597 604
f 489 494 491
f 494 489 375
f 494 375 496
f 496 375 374
f 496 374 498
f 498 374 499
f 498 499 485
f 485 499 497
f 485 497 484
f 484 497 495
f 484 495 488
f 488 495 493
f 488 493 490
f 490 493 492
f 10 12 472
f 10 472 469
f 1 15 636
f 1 636 637
f 7 5 638
f 7 638 17
f 642 640 641
f 640 642 643
f 640 643 639
f 639 643 644
f 639 644 646
f 646 644 645
f 5 2 647
f 5 647 638
f 15 13 648
f 15 648 636
f 13 11 649
f 13 649 648
f 11 9 18
f 11 18 649
f 639 646 650
f 639 650 651
f 651 650 647
f 651 647 637
f 646 645 652
f 646 652 650
f 650 652 638
f 650 638 647
f 645 644 653
f 645 653 652
f 652 653 17
f 652 17 638
f 644 643 654
f 644 654 653
f 653 654 18
f 653 18 17
f 643 642 655
f 643 655 654
f 654 655 649
f 654 649 18
f 642 641 656
f 642 656 655
f 655 656 648
f 655 648 649
f 641 640 657
f 641 657 656
f 656 657 636
f 656 636 648
f 640 639 651
f 640 651 657
f 657 651 637
f 657 637 636
f 2 1 637
f 2 637 647
f 472 12 14
f 472 14 220
f 468 8 10
f 468 10 469
f 3 223 225
f 3 225 4
f 16 219 220
f 16 220 14
f 18 17 7
f 7 9 18
f 295 291 290
f 290 294 295
f 297 293 292
f 292 296 297
f 262 307 306
f 306 261 262
f 284 309 308
f 308 283 284
f 17 638 5
f 5 7 17
f 647 2 5
f 5 638 647