# https://github.com/mikedh/trimesh
v 0.00178590 -0.03551515 0.03328367
v -0.00000365 -0.03539442 0.03343995
v 0.00149987 -0.03529765 0.03197798
v -0.00000365 -0.03481759 0.03220789
v -0.00000365 -0.03117374 0.04184049
v 0.00306773 -0.02972422 0.04349866
v -0.00000365 -0.02927500 0.04327613
v 0.00178590 -0.03400726 0.03424788
v -0.00000365 -0.03307241 0.03637149
v -0.00000365 -0.03401332 0.03423550
v 0.00145372 -0.03171296 0.03788361
v -0.00000365 -0.03170961 0.03787271
v 0.00354827 -0.03119125 0.04200986
v 0.01172262 -0.03584898 0.04706905
v 0.01413869 -0.03239362 0.04571097
v 0.01345913 -0.03182110 0.04516057
v 0.01487203 -0.03283007 0.04509489
v 0.01377247 -0.03190369 0.04420433
v 0.01464570 -0.03252728 0.04416373
v 0.00295115 -0.03196646 0.03563171
v 0.00445204 -0.02920815 0.04305884
v 0.00436101 -0.03013611 0.03973526
v 0.00078782 -0.03463571 0.03085210
v 0.00343378 -0.03369129 0.03116424
v 0.00314557 -0.03302938 0.03458309
v 0.00329484 -0.03427337 0.03222606
v 0.00313245 -0.03023236 0.03768622
v -0.00000365 -0.02473743 0.04851399
v 0.00395318 -0.02592180 0.04722117
v 0.00301000 -0.02461594 0.04817826
v -0.00000365 -0.03178376 0.03118017
v 0.00110309 -0.03178376 0.03118017
v -0.00000365 -0.03379391 0.03080280
v 0.00565227 -0.02752243 0.04132464
v 0.00381778 -0.03150824 0.03359974
v 0.00427474 -0.02426072 0.04701009
v 0.00326992 -0.03073527 0.03132551
v 0.00577181 -0.02718662 0.03768259
v 0.00104745 -0.03026709 0.03024604
v 0.00499958 -0.02717631 0.04361390
v 0.00532705 -0.02674389 0.04295564
v 0.00491183 -0.02508831 0.04344408
v 0.00209886 -0.02792717 0.03292265
v 0.00537657 -0.02870251 0.03623204
v 0.00532705 -0.02461668 0.04135976
v 0.00454870 -0.02420656 0.04520214
v 0.00539595 -0.02187518 0.04514133
v 0.00422662 -0.02841107 0.03414975
v 0.00495584 -0.02386784 0.03745812
v 0.00098085 -0.02408264 0.03377339
v 0.00068003 -0.02590135 0.03221552
v 0.00046907 -0.02782547 0.03020229
v 0.00045984 -0.02592992 0.03084161
v 0.00192468 -0.02322804 0.03488145
v 0.00064541 -0.02456581 0.03172614
v 0.00107119 -0.02190428 0.03392069
v 0.00308888 -0.02167492 0.03613574
v 0.00532705 -0.02233065 0.04132489
v 0.00455739 -0.01999079 0.03875343
v 0.00528008 -0.02099283 0.04266889
v 0.00656002 -0.01950256 0.04335338
v 0.00712243 -0.01858356 0.04566681
v 0.00615466 -0.02021867 0.04554842
v 0.01076245 0.00658347 0.02070172
v 0.01474044 0.00478266 0.03104832
v 0.01436930 0.00458234 0.02224838
v 0.00643227 0.00114615 0.00007819
v 0.01058356 0.00085330 0.00009533
v 0.00839282 -0.00334890 0.00000000
v 0.01338090 -0.00245028 0.00005356
v 0.01020866 0.00415360 0.00018007
v 0.01450315 0.00260015 0.00016485
v 0.00922266 0.04707051 0.00033226
v 0.00562492 0.04895114 0.00038464
v 0.00875503 0.05185878 0.00042549
v 0.00635288 0.05429965 0.00049348
v 0.01217414 0.04981587 0.00040872
v 0.01040053 0.05483411 0.00050836
v 0.00445247 0.04050166 0.02673659
v 0.00317688 0.04335081 0.03428705
v 0.00423797 0.04461782 0.02836216
v 0.00803228 0.04414341 0.03557544
v 0.00335893 0.04335447 0.03803634
v -0.00179320 -0.03551515 0.03328367
v -0.00150718 -0.03529765 0.03197798
v -0.00307503 -0.02972422 0.04349866
v -0.00179320 -0.03400726 0.03424788
v -0.00146103 -0.03171296 0.03788361
v -0.00355558 -0.03119125 0.04200986
v -0.01172961 -0.03584943 0.04706811
v -0.01346643 -0.03182110 0.04516057
v -0.01414600 -0.03239362 0.04571097
v -0.01487934 -0.03283007 0.04509489
v -0.01377977 -0.03190369 0.04420433
v -0.01465300 -0.03252728 0.04416373
v -0.00295846 -0.03196646 0.03563171
v -0.00445935 -0.02920815 0.04305884
v -0.00436831 -0.03013611 0.03973526
v -0.00344108 -0.03369129 0.03116424
v -0.00079513 -0.03463571 0.03085210
v -0.00315288 -0.03302938 0.03458309
v -0.00330215 -0.03427337 0.03222606
v -0.00313976 -0.03023236 0.03768622
v -0.00301731 -0.02461594 0.04817826
v -0.00396049 -0.02592180 0.04722117
v -0.00111040 -0.03178376 0.03118017
v -0.00565957 -0.02752243 0.04132464
v -0.00382509 -0.03150824 0.03359974
v -0.00428204 -0.02426072 0.04701009
v -0.00327723 -0.03073527 0.03132551
v -0.00577912 -0.02718662 0.03768259
v -0.00105476 -0.03026709 0.03024604
v -0.00500689 -0.02717631 0.04361390
v -0.00491914 -0.02508831 0.04344408
v -0.00533436 -0.02674389 0.04295564
v -0.00210617 -0.02792717 0.03292265
v -0.00538388 -0.02870251 0.03623204
v -0.00533436 -0.02461668 0.04135976
v -0.00455601 -0.02420656 0.04520214
v -0.00540326 -0.02187518 0.04514133
v -0.00423393 -0.02841107 0.03414975
v -0.00496315 -0.02386784 0.03745812
v -0.00098816 -0.02408264 0.03377339
v -0.00068733 -0.02590135 0.03221552
v -0.00046715 -0.02592992 0.03084161
v -0.00047638 -0.02782547 0.03020229
v -0.00193199 -0.02322804 0.03488145
v -0.00065272 -0.02456581 0.03172614
v -0.00107849 -0.02190428 0.03392069
v -0.00309619 -0.02167492 0.03613574
v -0.00533436 -0.02233065 0.04132489
v -0.00528739 -0.02099283 0.04266889
v -0.00456469 -0.01999079 0.03875343
v -0.00656733 -0.01950256 0.04335338
v -0.00616197 -0.02021867 0.04554842
v -0.00712973 -0.01858356 0.04566681
v -0.01076975 0.00658347 0.02070172
v -0.01437661 0.00458234 0.02224838
v -0.01474775 0.00478266 0.03104832
v -0.00643958 0.00114615 0.00007819
v -0.00840013 -0.00334890 0.00000000
v -0.01059086 0.00085330 0.00009533
v -0.01338820 -0.00245028 0.00005356
v -0.01021597 0.00415360 0.00018007
v -0.01451046 0.00260015 0.00016485
v -0.00922996 0.04707051 0.00033226
v -0.00876233 0.05185878 0.00042549
v -0.00563223 0.04895114 0.00038464
v -0.00636019 0.05429965 0.00049348
v -0.01218145 0.04981587 0.00040872
v -0.01040784 0.05483411 0.00050836
v -0.00445978 0.04050166 0.02673659
v -0.00424528 0.04461782 0.02836216
v -0.00318418 0.04335081 0.03428705
v -0.00803959 0.04414341 0.03557544
v -0.00336624 0.04335447 0.03803634
v 0.00309127 -0.02878013 0.04555516
v -0.00000365 -0.02856843 0.04632383
v 0.00380233 -0.02742056 0.04684394
v -0.00000365 -0.02747344 0.04777213
v -0.00000365 -0.03431635 0.03099466
v 0.00318895 -0.03488046 0.03356344
v 0.00509885 -0.02741340 0.04539243
v 0.00301000 -0.02296887 0.04908248
v -0.00000365 -0.02292954 0.04926367
v 0.00491580 -0.02573809 0.04645150
v -0.00000365 -0.02162506 0.05045441
v 0.00327254 -0.02122703 0.04998435
v 0.00668098 -0.02799041 0.04592316
v 0.00664657 -0.02624258 0.04721481
v 0.00761222 -0.02732074 0.04441861
v 0.00985623 -0.02727958 0.04667485
v 0.01032380 -0.02596711 0.04803437
v 0.01065549 -0.02664542 0.04499168
v 0.01288575 -0.02885623 0.04711250
v 0.01222319 -0.02877765 0.04577185
v 0.00790421 -0.02487326 0.04609201
v 0.00831943 -0.02547376 0.04434364
v 0.01439901 -0.02829031 0.04704477
v -0.00000365 -0.03026709 0.03024604
v -0.00000365 -0.02785997 0.03016620
v 0.01141202 -0.02452178 0.04719143
v 0.01332695 -0.02816316 0.04487555
v 0.01467168 -0.02786197 0.04566226
v 0.01161702 -0.02494100 0.04531094
v -0.00000365 -0.02593539 0.03057862
v 0.00449650 -0.02205169 0.03805152
v 0.01190765 -0.02213503 0.04196630
v 0.01079449 -0.02297624 0.04179611
v 0.01092780 -0.02188236 0.04047258
v 0.01133777 -0.02152318 0.04091376
v -0.00000365 -0.02461430 0.03152067
v -0.00000365 -0.02259777 0.03192853
v 0.00060814 -0.02253541 0.03207020
v -0.00000365 -0.02030574 0.03043544
v 0.00073320 -0.02022918 0.03091879
v 0.00134507 -0.01991134 0.03325231
v 0.00308888 -0.01976012 0.03494750
v -0.00000365 -0.00385227 0.04813716
v -0.00000365 -0.00951446 0.04912975
v 0.00681857 -0.00955518 0.04738804
v 0.00688925 -0.00347170 0.04649089
v 0.00537018 -0.01826931 0.03870365
v 0.00578138 -0.01411390 0.04905535
v 0.00793997 -0.01534636 0.04603399
v 0.00966137 -0.00991132 0.04076519
v 0.00064059 -0.01876220 0.02909075
v 0.00175031 -0.01841618 0.03032957
v -0.00000365 -0.01873575 0.02874592
v 0.00397843 -0.01806307 0.03195667
v 0.00767617 -0.01655915 0.03829908
v 0.00805923 -0.01395128 0.03712647
v -0.00000365 -0.00138459 0.04703474
v 0.00731954 -0.00097374 0.04529887
v 0.00422710 -0.01565463 0.03025509
v -0.00000365 -0.01687500 0.02703071
v 0.00075253 -0.01665998 0.02750612
v 0.00207518 -0.01606511 0.02873594
v 0.00464765 -0.01414807 0.02916161
v 0.00079957 -0.01426073 0.02547737
v -0.00000365 -0.01461176 0.02499467
v 0.00834378 -0.01102951 0.03494830
v 0.00984473 -0.00439135 0.03944377
v 0.00235793 -0.01387024 0.02697334
v -0.00000365 0.00170791 0.04591278
v 0.00735922 0.00213646 0.04414340
v 0.00112022 -0.01338240 0.02372242
v -0.00000365 -0.01341155 0.02323890
v 0.00316829 -0.01228706 0.02634947
v 0.00469356 -0.01207865 0.02881638
v 0.01021446 -0.00137584 0.03945862
v 0.00110219 -0.01232272 0.02192176
v -0.00000365 -0.01270407 0.02175198
v -0.00000365 0.00973406 0.04548135
v 0.00684395 0.01012153 0.04432773
v 0.00284545 -0.01065975 0.02622104
v 0.00949352 -0.00637711 0.03362660
v -0.00000365 -0.01136374 0.02060100
v 0.00143258 -0.01051400 0.02072090
v 0.00573248 -0.00843067 0.02836738
v 0.01036711 0.00185373 0.03996712
v 0.00344018 -0.00873087 0.02439427
v 0.00692458 -0.00560814 0.02735528
v -0.00000365 -0.00855970 0.01844441
v 0.00153877 -0.00792184 0.01888397
v 0.01193072 -0.00212943 0.03459134
v 0.00520020 0.01416317 0.04373209
v -0.00000365 0.01487694 0.04417195
v 0.01024713 0.01130235 0.04028345
v 0.00355339 -0.00647952 0.02131932
v 0.00772664 -0.00258765 0.02629997
v 0.01340537 0.00283629 0.03599002
v -0.00000365 0.01728598 0.04210025
v 0.00867101 0.01852619 0.04046231
v -0.00000365 -0.00582632 0.01607520
v 0.00180706 -0.00551192 0.01692875
v 0.00458668 -0.00143463 0.01773150
v 0.01249618 -0.00194205 0.02940178
v 0.01278526 0.01203933 0.03645254
v -0.00000365 -0.00142778 0.01650629
v 0.00818698 -0.00144536 0.02151519
v 0.01299844 -0.00056946 0.02224986
v -0.00000365 0.02322254 0.04174166
v 0.00754914 0.02497638 0.04002833
v -0.00000365 0.00230474 0.01711281
v 0.00589069 0.00249433 0.01786974
v 0.01475061 0.01223475 0.02917926
v 0.01317048 0.02109379 0.03718801
v -0.00000365 0.00593044 0.01712281
v 0.00706848 0.00624632 0.01808679
v 0.00830339 0.00266551 0.01855315
v -0.00000365 0.02951997 0.04154837
v 0.00634846 0.03151639 0.04026109
v 0.00895806 -0.00194151 0.01542971
v 0.00825463 0.00181896 0.01447700
v 0.01301621 -0.00096899 0.01555855
v -0.00000365 0.01262802 0.01658959
v 0.00770662 0.01224394 0.01856548
v 0.01363481 0.01168725 0.02259439
v 0.01612525 0.02250088 0.03074380
v -0.00000365 0.03917036 0.04116174
v 0.00404657 0.03998495 0.04052767
v 0.00974404 -0.00081589 0.00977493
v 0.00901272 0.00094708 0.00935539
v 0.01225028 -0.00013036 0.00944086
v 0.01403543 0.00378338 0.01486853
v 0.01130351 0.00546372 0.01468826
v 0.01229057 0.02841728 0.03760137
v 0.01106697 0.00272219 0.00876203
v 0.01306789 0.00205630 0.00881485
v -0.00000365 0.02103531 0.01696246
v 0.00776315 0.02132884 0.01896621
v 0.00798173 0.00089810 0.00463644
v 0.00929474 -0.00078505 0.00343551
v 0.01228755 -0.00038864 0.00390865
v 0.01146149 0.03387372 0.03817789
v 0.01016305 0.00233476 0.00585181
v 0.01520209 0.03123916 0.03184145
v 0.01603915 0.02203732 0.02424922
v 0.01282419 0.00153951 0.00540201
v 0.00862953 0.04085761 0.03890516
v -0.00000365 0.02897442 0.01854152
v 0.00721795 0.02933652 0.02070707
v 0.01263796 0.03782380 0.03321889
v -0.00000365 0.03475630 0.02097214
v 0.00486038 0.03720914 0.02406524
v 0.01543388 0.03025431 0.02619576
v 0.00957284 0.04534693 0.02973573
v 0.00966179 0.03393490 0.02470034
v 0.01110558 0.03629773 0.02073848
v 0.01043280 0.03453759 0.02264904
v 0.00518219 0.03781308 0.02200513
v 0.00621176 0.03890751 0.02046729
v 0.00614959 0.04510164 0.02198940
v 0.01100500 0.04632007 0.02320125
v 0.01406797 0.04087896 0.02242816
v 0.01370170 0.03915627 0.02839752
v 0.00685717 0.04343796 0.01501095
v 0.00664025 0.04644351 0.01647986
v 0.01097742 0.04215029 0.01509572
v 0.01330695 0.04436002 0.01661699
v 0.01062643 0.04701337 0.01747243
v 0.00778648 0.04770634 0.01123744
v 0.00762407 0.04997223 0.01247012
v 0.00993450 0.04674182 0.01051132
v 0.00967172 0.05040811 0.01250584
v 0.01109964 0.04841161 0.01129523
v 0.00750567 0.05185779 0.00613800
v 0.00720074 0.05009137 0.00515031
v 0.00907467 0.04920125 0.00488604
v 0.00956805 0.05205941 0.00648414
v 0.01053775 0.05041758 0.00571039
v -0.00000365 0.04084648 0.02599785
v -0.00000365 0.04335081 0.03428705
v 0.00053187 0.05009108 0.01191108
v -0.00000365 0.05009108 0.01164604
v -0.00000365 0.05122731 0.01356448
v 0.00056252 0.05114900 0.01352891
v -0.00000365 0.04260819 0.03869933
v 0.00825772 -0.02212830 0.04411214
v 0.00687122 -0.02201566 0.04232576
v 0.00672863 -0.02275905 0.04180777
v 0.00805493 -0.02383186 0.04413096
v -0.00000365 -0.01490240 0.05072114
v 0.00462527 -0.01854806 0.04954003
v -0.00000365 -0.01890798 0.05017481
v -0.00000365 0.04334780 0.03498481
v 0.00178737 0.04334780 0.03498481
v 0.00188989 0.04334986 0.03736152
v -0.00000365 0.04261280 0.03800157
v -0.00000365 0.04502252 0.03473022
v 0.00110770 0.04502252 0.03473022
v 0.00077964 0.04552176 0.03648639
v -0.00000365 0.04555423 0.03673567
v 0.00033640 0.04746655 0.02923136
v 0.00137986 0.04746655 0.02923136
v 0.00115443 0.04830711 0.02986959
v 0.00033640 0.04864750 0.03015590
v -0.00000365 0.04777850 0.02223002
v 0.00053187 0.04777850 0.02223002
v 0.00056252 0.04892654 0.02267863
v -0.00000365 0.04896627 0.02270035
v -0.00000365 0.04857205 0.01757146
v 0.00053187 0.04857205 0.01757146
v 0.00056252 0.04945186 0.01843470
v -0.00000365 0.04947987 0.01847027
v -0.00000365 0.04831067 0.01638610
v 0.00118002 0.04871159 0.01643859
v 0.00126444 0.05143647 0.01730183
v -0.00000365 0.05151478 0.01733740
v -0.00309858 -0.02878013 0.04555516
v -0.00380964 -0.02742056 0.04684394
v -0.00319626 -0.03488046 0.03356344
v -0.00510616 -0.02741340 0.04539243
v -0.00301731 -0.02296887 0.04908248
v -0.00492310 -0.02573809 0.04645150
v -0.00327984 -0.02122703 0.04998435
v -0.00665388 -0.02624258 0.04721481
v -0.00668829 -0.02799041 0.04592316
v -0.00761952 -0.02732074 0.04441861
v -0.01033110 -0.02596711 0.04803437
v -0.00986354 -0.02727958 0.04667485
v -0.01066279 -0.02664542 0.04499168
v -0.01223049 -0.02877765 0.04577185
v -0.01289306 -0.02885623 0.04711250
v -0.00791151 -0.02487326 0.04609201
v -0.00832674 -0.02547376 0.04434364
v -0.01440632 -0.02829031 0.04704477
v -0.01141933 -0.02452178 0.04719143
v -0.01333426 -0.02816316 0.04487555
v -0.01467899 -0.02786197 0.04566226
v -0.01162433 -0.02494100 0.04531094
v -0.00450381 -0.02205169 0.03805152
v -0.01191496 -0.02213503 0.04196630
v -0.01134508 -0.02152318 0.04091376
v -0.01093511 -0.02188236 0.04047258
v -0.01080180 -0.02297624 0.04179611
v -0.00061545 -0.02253541 0.03207020
v -0.00074051 -0.02022918 0.03091879
v -0.00135238 -0.01991134 0.03325231
v -0.00309619 -0.01976012 0.03494750
v -0.00689656 -0.00347170 0.04649089
v -0.00682588 -0.00955518 0.04738804
v -0.00537748 -0.01826931 0.03870365
v -0.00966868 -0.00991132 0.04076519
v -0.00794728 -0.01534636 0.04603399
v -0.00578869 -0.01411390 0.04905535
v -0.00175762 -0.01841618 0.03032957
v -0.00064790 -0.01876220 0.02909075
v -0.00398573 -0.01806307 0.03195667
v -0.00768348 -0.01655915 0.03829908
v -0.00806654 -0.01395128 0.03712647
v -0.00732685 -0.00097374 0.04529887
v -0.00423440 -0.01565463 0.03025509
v -0.00075984 -0.01665998 0.02750612
v -0.00208249 -0.01606511 0.02873594
v -0.00465496 -0.01414807 0.02916161
v -0.00080687 -0.01426073 0.02547737
v -0.00835109 -0.01102951 0.03494830
v -0.00985204 -0.00439135 0.03944377
v -0.00236524 -0.01387024 0.02697334
v -0.00736653 0.00213646 0.04414340
v -0.00112753 -0.01338240 0.02372242
v -0.00317560 -0.01228706 0.02634947
v -0.00470087 -0.01207865 0.02881638
v -0.01022176 -0.00137584 0.03945862
v -0.00110949 -0.01232272 0.02192176
v -0.00685125 0.01012153 0.04432773
v -0.00285276 -0.01065975 0.02622104
v -0.00950083 -0.00637711 0.03362660
v -0.00143989 -0.01051400 0.02072090
v -0.00573979 -0.00843067 0.02836738
v -0.01037442 0.00185373 0.03996712
v -0.00344748 -0.00873087 0.02439427
v -0.00693189 -0.00560814 0.02735528
v -0.00154608 -0.00792184 0.01888397
v -0.01193802 -0.00212943 0.03459134
v -0.00520750 0.01416317 0.04373209
v -0.01025444 0.01130235 0.04028345
v -0.00356070 -0.00647952 0.02131932
v -0.00773394 -0.00258765 0.02629997
v -0.01341267 0.00283629 0.03599002
v -0.00867831 0.01852619 0.04046231
v -0.00181437 -0.00551192 0.01692875
v -0.00459399 -0.00143463 0.01773150
v -0.01250348 -0.00194205 0.02940178
v -0.01279257 0.01203933 0.03645254
v -0.00819429 -0.00144536 0.02151519
v -0.01300574 -0.00056946 0.02224986
v -0.00755644 0.02497638 0.04002833
v -0.00589800 0.00249433 0.01786974
v -0.01475791 0.01223475 0.02917926
v -0.01317779 0.02109379 0.03718801
v -0.00707579 0.00624632 0.01808679
v -0.00831070 0.00266551 0.01855315
v -0.00635577 0.03151639 0.04026109
v -0.00896537 -0.00194151 0.01542971
v -0.00826194 0.00181896 0.01447700
v -0.01302352 -0.00096899 0.01555855
v -0.00771392 0.01224394 0.01856548
v -0.01364211 0.01168725 0.02259439
v -0.01613256 0.02250088 0.03074380
v -0.00405388 0.03998495 0.04052767
v -0.00975135 -0.00081589 0.00977493
v -0.00902002 0.00094708 0.00935539
v -0.01225759 -0.00013036 0.00944086
v -0.01404273 0.00378338 0.01486853
v -0.01131082 0.00546372 0.01468826
v -0.01229788 0.02841728 0.03760137
v -0.01107428 0.00272219 0.00876203
v -0.01307520 0.00205630 0.00881485
v -0.00777046 0.02132884 0.01896621
v -0.00930205 -0.00078505 0.00343551
v -0.00798904 0.00089810 0.00463644
v -0.01229486 -0.00038864 0.00390865
v -0.01146879 0.03387372 0.03817789
v -0.01017036 0.00233476 0.00585181
v -0.01520939 0.03123916 0.03184145
v -0.01604646 0.02203732 0.02424922
v -0.01283150 0.00153951 0.00540201
v -0.00863683 0.04085761 0.03890516
v -0.00722526 0.02933652 0.02070707
v -0.01264527 0.03782380 0.03321889
v -0.00486768 0.03720914 0.02406524
v -0.01544119 0.03025431 0.02619576
v -0.00958014 0.04534693 0.02973573
v -0.00966910 0.03393490 0.02470034
v -0.01111289 0.03629773 0.02073848
v -0.00621907 0.03890751 0.02046729
v -0.00518950 0.03781308 0.02200513
v -0.01044010 0.03453759 0.02264904
v -0.00615690 0.04510164 0.02198940
v -0.01101231 0.04632007 0.02320125
v -0.01407527 0.04087896 0.02242816
v -0.01370900 0.03915627 0.02839752
v -0.00686448 0.04343796 0.01501095
v -0.00664755 0.04644351 0.01647986
v -0.01098472 0.04215029 0.01509572
v -0.01331426 0.04436002 0.01661699
v -0.01063374 0.04701337 0.01747243
v -0.00779378 0.04770634 0.01123744
v -0.00763138 0.04997223 0.01247012
v -0.00994181 0.04674182 0.01051132
v -0.00967903 0.05040811 0.01250584
v -0.01110695 0.04841161 0.01129523
v -0.00720805 0.05009137 0.00515031
v -0.00751297 0.05185779 0.00613800
v -0.00908198 0.04920125 0.00488604
v -0.00957536 0.05205941 0.00648414
v -0.01054506 0.05041758 0.00571039
v -0.00053917 0.05009108 0.01191108
v -0.00056983 0.05114900 0.01352891
v -0.00687852 -0.02201566 0.04232576
v -0.00826503 -0.02212830 0.04411214
v -0.00673594 -0.02275905 0.04180777
v -0.00806224 -0.02383186 0.04413096
v -0.00463258 -0.01854806 0.04954003
v -0.00179468 0.04334780 0.03498481
v -0.00189719 0.04334986 0.03736152
v -0.00111501 0.04502252 0.03473022
v -0.00078695 0.04552176 0.03648639
v -0.00070706 0.04746655 0.02923136
v -0.00048163 0.04830711 0.02986959
v -0.00053917 0.04777850 0.02223002
v -0.00056983 0.04892654 0.02267863
v -0.00053917 0.04857205 0.01757146
v -0.00056983 0.04945186 0.01843470
v -0.00118733 0.04871159 0.01643859
v -0.00127175 0.05143647 0.01730183
f 1 2 3
f 3 2 4
f 5 6 7
f 8 9 10
f 11 12 9
f 5 13 6
f 11 9 8
f 14 15 16
f 15 14 17
f 14 16 18
f 17 14 19
f 11 8 20
f 19 14 18
f 6 13 21
f 13 11 22
f 3 23 24
f 8 25 20
f 3 24 26
f 20 27 11
f 22 11 27
f 28 29 30
f 31 32 33
f 24 33 32
f 13 34 21
f 25 35 20
f 13 22 34
f 24 35 26
f 29 36 30
f 24 32 37
f 35 24 37
f 22 27 38
f 37 32 39
f 40 41 42
f 22 38 34
f 43 37 39
f 38 27 44
f 41 34 45
f 46 47 36
f 48 37 43
f 42 47 46
f 34 38 49
f 50 43 51
f 51 52 53
f 54 43 50
f 51 53 55
f 50 51 55
f 56 54 50
f 57 54 56
f 58 59 60
f 61 62 63
f 64 65 66
f 67 68 69
f 69 68 70
f 71 68 67
f 70 68 72
f 72 68 71
f 73 74 75
f 74 76 75
f 77 73 75
f 76 78 75
f 78 77 75
f 79 80 81
f 82 80 83
f 84 85 2
f 85 4 2
f 5 7 86
f 87 10 9
f 88 9 12
f 5 86 89
f 88 87 9
f 90 91 92
f 92 93 90
f 90 94 91
f 93 95 90
f 88 96 87
f 95 94 90
f 86 97 89
f 89 98 88
f 85 99 100
f 87 96 101
f 85 102 99
f 96 88 103
f 98 103 88
f 28 104 105
f 31 33 106
f 99 106 33
f 89 97 107
f 101 96 108
f 89 107 98
f 99 102 108
f 105 104 109
f 99 110 106
f 108 110 99
f 98 111 103
f 110 112 106
f 113 114 115
f 98 107 111
f 116 112 110
f 111 117 103
f 115 118 107
f 119 109 120
f 121 116 110
f 114 119 120
f 107 122 111
f 123 124 116
f 124 125 126
f 127 123 116
f 124 128 125
f 123 128 124
f 129 123 127
f 130 129 127
f 131 132 133
f 134 135 136
f 137 138 139
f 140 141 142
f 141 143 142
f 144 140 142
f 143 145 142
f 145 144 142
f 146 147 148
f 148 147 149
f 150 147 146
f 149 147 151
f 151 147 150
f 152 153 154
f 155 156 154
f 8 10 2
f 8 2 1
f 157 158 7
f 157 7 6
f 5 12 11
f 5 11 13
f 159 160 158
f 159 158 157
f 23 3 4
f 23 4 161
f 8 1 162
f 8 162 25
f 1 3 26
f 1 26 162
f 29 28 160
f 29 160 159
f 23 161 33
f 23 33 24
f 157 6 21
f 157 21 40
f 25 162 26
f 25 26 35
f 163 159 157
f 163 157 40
f 164 165 28
f 164 28 30
f 166 29 159
f 166 159 163
f 167 165 164
f 167 164 168
f 166 163 169
f 166 169 170
f 36 29 166
f 36 166 46
f 40 21 34
f 40 34 41
f 44 27 20
f 44 20 35
f 171 169 163
f 171 163 40
f 170 169 172
f 170 172 173
f 172 169 171
f 172 171 174
f 16 15 175
f 16 175 176
f 166 170 177
f 166 177 46
f 171 40 42
f 171 42 178
f 15 17 179
f 15 179 175
f 52 39 180
f 52 180 181
f 35 37 48
f 35 48 44
f 63 30 36
f 63 36 47
f 177 170 173
f 177 173 182
f 183 18 16
f 183 16 176
f 172 176 175
f 172 175 173
f 43 39 52
f 43 52 51
f 17 19 184
f 17 184 179
f 42 41 45
f 42 45 58
f 178 42 46
f 178 46 177
f 184 19 18
f 184 18 183
f 176 172 174
f 176 174 183
f 173 175 179
f 173 179 182
f 174 171 178
f 174 178 185
f 38 44 48
f 38 48 49
f 52 181 186
f 52 186 53
f 48 43 54
f 48 54 49
f 45 34 49
f 45 49 187
f 185 178 177
f 185 177 182
f 188 189 190
f 188 190 191
f 183 174 185
f 183 185 184
f 179 184 185
f 179 185 182
f 53 186 192
f 53 192 55
f 58 45 187
f 58 187 59
f 63 47 60
f 63 60 61
f 55 192 193
f 55 193 194
f 50 55 194
f 50 194 56
f 164 30 63
f 164 63 62
f 49 54 57
f 49 57 187
f 194 193 195
f 194 195 196
f 56 194 196
f 56 196 197
f 57 56 197
f 57 197 198
f 199 200 201
f 199 201 202
f 187 57 198
f 187 198 59
f 203 61 60
f 203 60 59
f 201 204 205
f 201 205 206
f 197 196 207
f 197 207 208
f 196 195 209
f 196 209 207
f 198 197 208
f 198 208 210
f 211 62 61
f 211 61 203
f 59 198 210
f 59 210 203
f 205 62 211
f 205 211 212
f 213 199 202
f 213 202 214
f 203 210 215
f 203 215 211
f 207 209 216
f 207 216 217
f 210 208 218
f 210 218 215
f 208 207 217
f 208 217 218
f 212 211 215
f 212 215 219
f 220 217 216
f 220 216 221
f 206 205 212
f 206 212 222
f 202 201 206
f 202 206 223
f 224 218 217
f 224 217 220
f 219 215 218
f 219 218 224
f 225 213 214
f 225 214 226
f 227 220 221
f 227 221 228
f 229 224 220
f 229 220 227
f 222 212 219
f 222 219 230
f 230 219 224
f 230 224 229
f 214 202 223
f 214 223 231
f 232 227 228
f 232 228 233
f 234 225 226
f 234 226 235
f 236 229 227
f 236 227 232
f 206 222 237
f 206 237 223
f 232 233 238
f 232 238 239
f 240 230 229
f 240 229 236
f 237 222 230
f 237 230 240
f 39 32 31
f 39 31 180
f 226 214 231
f 226 231 241
f 242 236 232
f 242 232 239
f 240 236 242
f 240 242 243
f 239 238 244
f 239 244 245
f 246 231 223
f 246 223 237
f 247 248 234
f 247 234 235
f 235 226 241
f 235 241 249
f 237 240 243
f 237 243 246
f 250 242 239
f 250 239 245
f 243 242 250
f 243 250 251
f 252 241 231
f 252 231 246
f 253 248 247
f 253 247 254
f 245 244 255
f 245 255 256
f 250 245 256
f 250 256 257
f 258 246 243
f 258 243 251
f 247 235 249
f 247 249 254
f 249 241 252
f 249 252 259
f 252 246 258
f 252 258 65
f 257 256 255
f 257 255 260
f 251 250 257
f 251 257 261
f 262 258 251
f 262 251 261
f 263 253 254
f 263 254 264
f 257 260 265
f 257 265 266
f 259 252 65
f 259 65 267
f 254 249 259
f 254 259 268
f 266 265 269
f 266 269 270
f 271 261 257
f 271 257 266
f 66 65 258
f 66 258 262
f 272 263 264
f 272 264 273
f 274 261 271
f 274 271 275
f 276 262 261
f 276 261 274
f 271 266 270
f 271 270 64
f 270 269 277
f 270 277 278
f 267 65 64
f 267 64 279
f 268 259 267
f 268 267 280
f 281 272 273
f 281 273 282
f 283 274 275
f 283 275 284
f 276 274 283
f 276 283 285
f 262 276 286
f 262 286 66
f 287 275 271
f 287 271 64
f 264 254 268
f 264 268 288
f 64 270 278
f 64 278 279
f 64 66 286
f 64 286 287
f 289 284 275
f 289 275 287
f 286 276 285
f 286 285 290
f 278 277 291
f 278 291 292
f 283 284 293
f 283 293 294
f 295 285 283
f 295 283 294
f 289 287 286
f 289 286 290
f 273 264 288
f 273 288 296
f 297 293 284
f 297 284 289
f 288 268 280
f 288 280 298
f 267 279 299
f 267 299 280
f 294 293 67
f 294 67 69
f 300 290 285
f 300 285 295
f 279 278 292
f 279 292 299
f 282 273 296
f 282 296 301
f 289 290 300
f 289 300 297
f 294 69 70
f 294 70 295
f 293 297 71
f 293 71 67
f 301 82 83
f 301 83 282
f 292 291 302
f 292 302 303
f 71 297 300
f 71 300 72
f 296 288 298
f 296 298 304
f 72 300 295
f 72 295 70
f 301 296 304
f 301 304 82
f 302 305 306
f 302 306 303
f 280 299 307
f 280 307 298
f 299 292 303
f 299 303 307
f 81 80 82
f 81 82 308
f 309 304 298
f 309 298 307
f 309 307 303
f 309 303 306
f 310 311 312
f 310 312 313
f 312 81 314
f 312 314 313
f 314 81 308
f 314 308 315
f 316 317 311
f 316 311 310
f 315 308 317
f 315 317 316
f 318 313 314
f 318 314 319
f 320 310 313
f 320 313 318
f 316 310 320
f 316 320 321
f 314 315 322
f 314 322 319
f 315 316 321
f 315 321 322
f 323 318 319
f 323 319 324
f 325 320 318
f 325 318 323
f 319 322 326
f 319 326 324
f 327 321 320
f 327 320 325
f 322 321 327
f 322 327 326
f 323 324 328
f 323 328 329
f 330 325 323
f 330 323 329
f 324 326 331
f 324 331 328
f 332 327 325
f 332 325 330
f 331 326 327
f 331 327 332
f 74 329 328
f 74 328 76
f 73 330 329
f 73 329 74
f 77 332 330
f 77 330 73
f 328 331 78
f 328 78 76
f 331 332 77
f 331 77 78
f 308 82 304
f 308 304 317
f 309 311 317
f 309 317 304
f 306 305 333
f 306 333 79
f 311 309 306
f 311 306 312
f 312 306 79
f 312 79 81
f 79 333 334
f 79 334 80
f 335 336 337
f 335 337 338
f 281 282 83
f 281 83 339
f 47 340 341
f 47 341 60
f 60 341 342
f 60 342 58
f 58 342 343
f 58 343 42
f 42 343 340
f 42 340 47
f 340 188 191
f 340 191 341
f 341 191 190
f 341 190 342
f 342 190 189
f 342 189 343
f 343 189 188
f 343 188 340
f 200 344 204
f 200 204 201
f 204 345 62
f 204 62 205
f 345 204 344
f 345 344 346
f 345 168 164
f 345 164 62
f 167 168 345
f 167 345 346
f 80 334 347
f 80 347 348
f 339 83 349
f 339 349 350
f 83 80 348
f 83 348 349
f 348 347 351
f 348 351 352
f 350 349 353
f 350 353 354
f 349 348 352
f 349 352 353
f 352 351 355
f 352 355 356
f 354 353 357
f 354 357 358
f 353 352 356
f 353 356 357
f 356 355 359
f 356 359 360
f 358 357 361
f 358 361 362
f 357 356 360
f 357 360 361
f 360 359 363
f 360 363 364
f 362 361 365
f 362 365 366
f 361 360 364
f 361 364 365
f 364 363 367
f 364 367 368
f 366 365 369
f 366 369 370
f 365 364 368
f 365 368 369
f 368 367 336
f 368 336 335
f 370 369 338
f 370 338 337
f 369 368 335
f 369 335 338
f 87 84 2
f 87 2 10
f 371 86 7
f 371 7 158
f 5 89 88
f 5 88 12
f 372 371 158
f 372 158 160
f 100 161 4
f 100 4 85
f 87 101 373
f 87 373 84
f 84 373 102
f 84 102 85
f 105 372 160
f 105 160 28
f 100 99 33
f 100 33 161
f 371 113 97
f 371 97 86
f 101 108 102
f 101 102 373
f 374 113 371
f 374 371 372
f 375 104 28
f 375 28 165
f 376 374 372
f 376 372 105
f 167 377 375
f 167 375 165
f 376 378 379
f 376 379 374
f 109 119 376
f 109 376 105
f 113 115 107
f 113 107 97
f 117 108 96
f 117 96 103
f 380 113 374
f 380 374 379
f 378 381 382
f 378 382 379
f 382 383 380
f 382 380 379
f 91 384 385
f 91 385 92
f 376 119 386
f 376 386 378
f 380 387 114
f 380 114 113
f 92 385 388
f 92 388 93
f 126 181 180
f 126 180 112
f 108 117 121
f 108 121 110
f 135 120 109
f 135 109 104
f 386 389 381
f 386 381 378
f 390 384 91
f 390 91 94
f 382 381 385
f 382 385 384
f 116 124 126
f 116 126 112
f 93 388 391
f 93 391 95
f 114 131 118
f 114 118 115
f 387 386 119
f 387 119 114
f 391 390 94
f 391 94 95
f 384 390 383
f 384 383 382
f 381 389 388
f 381 388 385
f 383 392 387
f 383 387 380
f 111 122 121
f 111 121 117
f 126 125 186
f 126 186 181
f 121 122 127
f 121 127 116
f 118 393 122
f 118 122 107
f 392 389 386
f 392 386 387
f 394 395 396
f 394 396 397
f 390 391 392
f 390 392 383
f 388 389 392
f 388 392 391
f 125 128 192
f 125 192 186
f 131 133 393
f 131 393 118
f 135 134 132
f 135 132 120
f 128 398 193
f 128 193 192
f 123 129 398
f 123 398 128
f 375 136 135
f 375 135 104
f 122 393 130
f 122 130 127
f 398 399 195
f 398 195 193
f 129 400 399
f 129 399 398
f 130 401 400
f 130 400 129
f 199 402 403
f 199 403 200
f 393 133 401
f 393 401 130
f 404 133 132
f 404 132 134
f 403 405 406
f 403 406 407
f 400 408 409
f 400 409 399
f 399 409 209
f 399 209 195
f 401 410 408
f 401 408 400
f 411 404 134
f 411 134 136
f 133 404 410
f 133 410 401
f 406 412 411
f 406 411 136
f 213 413 402
f 213 402 199
f 404 411 414
f 404 414 410
f 409 415 216
f 409 216 209
f 410 414 416
f 410 416 408
f 408 416 415
f 408 415 409
f 412 417 414
f 412 414 411
f 418 221 216
f 418 216 415
f 405 419 412
f 405 412 406
f 402 420 405
f 402 405 403
f 421 418 415
f 421 415 416
f 417 421 416
f 417 416 414
f 225 422 413
f 225 413 213
f 423 228 221
f 423 221 418
f 424 423 418
f 424 418 421
f 419 425 417
f 419 417 412
f 425 424 421
f 425 421 417
f 413 426 420
f 413 420 402
f 427 233 228
f 427 228 423
f 234 428 422
f 234 422 225
f 429 427 423
f 429 423 424
f 405 420 430
f 405 430 419
f 427 431 238
f 427 238 233
f 432 429 424
f 432 424 425
f 430 432 425
f 430 425 419
f 112 180 31
f 112 31 106
f 422 433 426
f 422 426 413
f 434 431 427
f 434 427 429
f 432 435 434
f 432 434 429
f 431 436 244
f 431 244 238
f 437 430 420
f 437 420 426
f 438 428 234
f 438 234 248
f 428 439 433
f 428 433 422
f 430 437 435
f 430 435 432
f 440 436 431
f 440 431 434
f 435 441 440
f 435 440 434
f 442 437 426
f 442 426 433
f 253 443 438
f 253 438 248
f 436 444 255
f 436 255 244
f 440 445 444
f 440 444 436
f 446 441 435
f 446 435 437
f 438 443 439
f 438 439 428
f 439 447 442
f 439 442 433
f 442 139 446
f 442 446 437
f 445 260 255
f 445 255 444
f 441 448 445
f 441 445 440
f 449 448 441
f 449 441 446
f 263 450 443
f 263 443 253
f 445 451 265
f 445 265 260
f 447 452 139
f 447 139 442
f 443 453 447
f 443 447 439
f 451 454 269
f 451 269 265
f 455 451 445
f 455 445 448
f 138 449 446
f 138 446 139
f 272 456 450
f 272 450 263
f 457 458 455
f 457 455 448
f 459 457 448
f 459 448 449
f 455 137 454
f 455 454 451
f 454 460 277
f 454 277 269
f 452 461 137
f 452 137 139
f 453 462 452
f 453 452 447
f 281 463 456
f 281 456 272
f 464 465 458
f 464 458 457
f 459 466 464
f 459 464 457
f 449 138 467
f 449 467 459
f 468 137 455
f 468 455 458
f 450 469 453
f 450 453 443
f 137 461 460
f 137 460 454
f 137 468 467
f 137 467 138
f 470 468 458
f 470 458 465
f 467 471 466
f 467 466 459
f 460 472 291
f 460 291 277
f 464 473 474
f 464 474 465
f 475 473 464
f 475 464 466
f 470 471 467
f 470 467 468
f 456 476 469
f 456 469 450
f 477 470 465
f 477 465 474
f 469 478 462
f 469 462 453
f 452 462 479
f 452 479 461
f 473 141 140
f 473 140 474
f 480 475 466
f 480 466 471
f 461 479 472
f 461 472 460
f 463 481 476
f 463 476 456
f 470 477 480
f 470 480 471
f 473 475 143
f 473 143 141
f 474 140 144
f 474 144 477
f 481 463 156
f 481 156 155
f 472 482 302
f 472 302 291
f 144 145 480
f 144 480 477
f 476 483 478
f 476 478 469
f 145 143 475
f 145 475 480
f 481 155 483
f 481 483 476
f 302 482 484
f 302 484 305
f 462 478 485
f 462 485 479
f 479 485 482
f 479 482 472
f 153 486 155
f 153 155 154
f 487 485 478
f 487 478 483
f 487 484 482
f 487 482 485
f 488 489 490
f 488 490 491
f 490 489 492
f 490 492 153
f 492 493 486
f 492 486 153
f 494 488 491
f 494 491 495
f 493 494 495
f 493 495 486
f 496 497 492
f 496 492 489
f 498 496 489
f 498 489 488
f 494 499 498
f 494 498 488
f 492 497 500
f 492 500 493
f 493 500 499
f 493 499 494
f 501 502 497
f 501 497 496
f 503 501 496
f 503 496 498
f 497 502 504
f 497 504 500
f 505 503 498
f 505 498 499
f 500 504 505
f 500 505 499
f 501 506 507
f 501 507 502
f 508 506 501
f 508 501 503
f 502 507 509
f 502 509 504
f 510 508 503
f 510 503 505
f 509 510 505
f 509 505 504
f 148 149 507
f 148 507 506
f 146 148 506
f 146 506 508
f 150 146 508
f 150 508 510
f 507 149 151
f 507 151 509
f 509 151 150
f 509 150 510
f 486 495 483
f 486 483 155
f 487 483 495
f 487 495 491
f 484 152 333
f 484 333 305
f 491 490 484
f 491 484 487
f 490 153 152
f 490 152 484
f 152 154 334
f 152 334 333
f 511 512 337
f 511 337 336
f 281 339 156
f 281 156 463
f 120 132 513
f 120 513 514
f 132 131 515
f 132 515 513
f 131 114 516
f 131 516 515
f 114 120 514
f 114 514 516
f 514 513 395
f 514 395 394
f 513 515 396
f 513 396 395
f 515 516 397
f 515 397 396
f 516 514 394
f 516 394 397
f 200 403 407
f 200 407 344
f 407 406 136
f 407 136 517
f 517 346 344
f 517 344 407
f 517 136 375
f 517 375 377
f 167 346 517
f 167 517 377
f 154 518 347
f 154 347 334
f 339 350 519
f 339 519 156
f 156 519 518
f 156 518 154
f 518 520 351
f 518 351 347
f 350 354 521
f 350 521 519
f 519 521 520
f 519 520 518
f 520 522 355
f 520 355 351
f 354 358 523
f 354 523 521
f 521 523 522
f 521 522 520
f 522 524 359
f 522 359 355
f 358 362 525
f 358 525 523
f 523 525 524
f 523 524 522
f 524 526 363
f 524 363 359
f 362 366 527
f 362 527 525
f 525 527 526
f 525 526 524
f 526 528 367
f 526 367 363
f 366 370 529
f 366 529 527
f 527 529 528
f 527 528 526
f 528 511 336
f 528 336 367
f 370 337 512
f 370 512 529
f 529 512 511
f 529 511 528
f 1 3 2
f 3 4 2
f 5 7 6
f 8 10 9
f 11 9 12
f 5 6 13
f 11 8 9
f 14 16 15
f 15 17 14
f 14 18 16
f 17 19 14
f 11 20 8
f 19 18 14
f 6 21 13
f 13 22 11
f 3 24 23
f 8 20 25
f 3 26 24
f 20 11 27
f 22 27 11
f 28 30 29
f 31 33 32
f 24 32 33
f 13 21 34
f 25 20 35
f 13 34 22
f 24 26 35
f 29 30 36
f 24 37 32
f 35 37 24
f 22 38 27
f 37 39 32
f 40 42 41
f 22 34 38
f 43 39 37
f 38 44 27
f 41 45 34
f 46 36 47
f 48 43 37
f 42 46 47
f 34 49 38
f 50 51 43
f 51 53 52
f 54 50 43
f 51 55 53
f 50 55 51
f 56 50 54
f 57 56 54
f 58 60 59
f 61 63 62
f 64 66 65
f 67 69 68
f 69 70 68
f 71 67 68
f 70 72 68
f 72 71 68
f 73 75 74
f 74 75 76
f 77 75 73
f 76 75 78
f 78 75 77
f 79 81 80
f 82 83 80
f 84 2 85
f 85 2 4
f 5 86 7
f 87 9 10
f 88 12 9
f 5 89 86
f 88 9 87
f 90 92 91
f 92 90 93
f 90 91 94
f 93 90 95
f 88 87 96
f 95 90 94
f 86 89 97
f 89 88 98
f 85 100 99
f 87 101 96
f 85 99 102
f 96 103 88
f 98 88 103
f 28 105 104
f 31 106 33
f 99 33 106
f 89 107 97
f 101 108 96
f 89 98 107
f 99 108 102
f 105 109 104
f 99 106 110
f 108 99 110
f 98 103 111
f 110 106 112
f 113 115 114
f 98 111 107
f 116 110 112
f 111 103 117
f 115 107 118
f 119 120 109
f 121 110 116
f 114 120 119
f 107 111 122
f 123 116 124
f 124 126 125
f 127 116 123
f 124 125 128
f 123 124 128
f 129 127 123
f 130 127 129
f 131 133 132
f 134 136 135
f 137 139 138
f 140 142 141
f 141 142 143
f 144 142 140
f 143 142 145
f 145 142 144
f 146 148 147
f 148 149 147
f 150 146 147
f 149 151 147
f 151 150 147
f 152 154 153
f 155 154 156
f 1 2 10
f 10 8 1
f 6 7 158
f 158 157 6
f 13 11 12
f 12 5 13
f 157 158 160
f 160 159 157
f 161 4 3
f 3 23 161
f 25 162 1
f 1 8 25
f 162 26 3
f 3 1 162
f 159 160 28
f 28 29 159
f 24 33 161
f 161 23 24
f 40 21 6
f 6 157 40
f 35 26 162
f 162 25 35
f 40 157 159
f 159 163 40
f 30 28 165
f 165 164 30
f 163 159 29
f 29 166 163
f 168 164 165
f 165 167 168
f 170 169 163
f 163 166 170
f 46 166 29
f 29 36 46
f 41 34 21
f 21 40 41
f 35 20 27
f 27 44 35
f 40 163 169
f 169 171 40
f 173 172 169
f 169 170 173
f 174 171 169
f 169 172 174
f 176 175 15
f 15 16 176
f 46 177 170
f 170 166 46
f 178 42 40
f 40 171 178
f 175 179 17
f 17 15 175
f 181 180 39
f 39 52 181
f 44 48 37
f 37 35 44
f 47 36 30
f 30 63 47
f 182 173 170
f 170 177 182
f 176 16 18
f 18 183 176
f 173 175 176
f 176 172 173
f 51 52 39
f 39 43 51
f 179 184 19
f 19 17 179
f 58 45 41
f 41 42 58
f 177 46 42
f 42 178 177
f 183 18 19
f 19 184 183
f 183 174 172
f 172 176 183
f 182 179 175
f 175 173 182
f 185 178 171
f 171 174 185
f 49 48 44
f 44 38 49
f 53 186 181
f 181 52 53
f 49 54 43
f 43 48 49
f 187 49 34
f 34 45 187
f 182 177 178
f 178 185 182
f 191 190 189
f 189 188 191
f 184 185 174
f 174 183 184
f 182 185 184
f 184 179 182
f 55 192 186
f 186 53 55
f 59 187 45
f 45 58 59
f 61 60 47
f 47 63 61
f 194 193 192
f 192 55 194
f 56 194 55
f 55 50 56
f 62 63 30
f 30 164 62
f 187 57 54
f 54 49 187
f 196 195 193
f 193 194 196
f 197 196 194
f 194 56 197
f 198 197 56
f 56 57 198
f 202 201 200
f 200 199 202
f 59 198 57
f 57 187 59
f 59 60 61
f 61 203 59
f 206 205 204
f 204 201 206
f 208 207 196
f 196 197 208
f 207 209 195
f 195 196 207
f 210 208 197
f 197 198 210
f 203 61 62
f 62 211 203
f 203 210 198
f 198 59 203
f 212 211 62
f 62 205 212
f 214 202 199
f 199 213 214
f 211 215 210
f 210 203 211
f 217 216 209
f 209 207 217
f 215 218 208
f 208 210 215
f 218 217 207
f 207 208 218
f 219 215 211
f 211 212 219
f 221 216 217
f 217 220 221
f 222 212 205
f 205 206 222
f 223 206 201
f 201 202 223
f 220 217 218
f 218 224 220
f 224 218 215
f 215 219 224
f 226 214 213
f 213 225 226
f 228 221 220
f 220 227 228
f 227 220 224
f 224 229 227
f 230 219 212
f 212 222 230
f 229 224 219
f 219 230 229
f 231 223 202
f 202 214 231
f 233 228 227
f 227 232 233
f 235 226 225
f 225 234 235
f 232 227 229
f 229 236 232
f 223 237 222
f 222 206 223
f 239 238 233
f 233 232 239
f 236 229 230
f 230 240 236
f 240 230 222
f 222 237 240
f 180 31 32
f 32 39 180
f 241 231 214
f 214 226 241
f 239 232 236
f 236 242 239
f 243 242 236
f 236 240 243
f 245 244 238
f 238 239 245
f 237 223 231
f 231 246 237
f 235 234 248
f 248 247 235
f 249 241 226
f 226 235 249
f 246 243 240
f 240 237 246
f 245 239 242
f 242 250 245
f 251 250 242
f 242 243 251
f 246 231 241
f 241 252 246
f 254 247 248
f 248 253 254
f 256 255 244
f 244 245 256
f 257 256 245
f 245 250 257
f 251 243 246
f 246 258 251
f 254 249 235
f 235 247 254
f 259 252 241
f 241 249 259
f 65 258 246
f 246 252 65
f 260 255 256
f 256 257 260
f 261 257 250
f 250 251 261
f 261 251 258
f 258 262 261
f 264 254 253
f 253 263 264
f 266 265 260
f 260 257 266
f 267 65 252
f 252 259 267
f 268 259 249
f 249 254 268
f 270 269 265
f 265 266 270
f 266 257 261
f 261 271 266
f 262 258 65
f 65 66 262
f 273 264 263
f 263 272 273
f 275 271 261
f 261 274 275
f 274 261 262
f 262 276 274
f 64 270 266
f 266 271 64
f 278 277 269
f 269 270 278
f 279 64 65
f 65 267 279
f 280 267 259
f 259 268 280
f 282 273 272
f 272 281 282
f 284 275 274
f 274 283 284
f 285 283 274
f 274 276 285
f 66 286 276
f 276 262 66
f 64 271 275
f 275 287 64
f 288 268 254
f 254 264 288
f 279 278 270
f 270 64 279
f 287 286 66
f 66 64 287
f 287 275 284
f 284 289 287
f 290 285 276
f 276 286 290
f 292 291 277
f 277 278 292
f 294 293 284
f 284 283 294
f 294 283 285
f 285 295 294
f 290 286 287
f 287 289 290
f 296 288 264
f 264 273 296
f 289 284 293
f 293 297 289
f 298 280 268
f 268 288 298
f 280 299 279
f 279 267 280
f 69 67 293
f 293 294 69
f 295 285 290
f 290 300 295
f 299 292 278
f 278 279 299
f 301 296 273
f 273 282 301
f 297 300 290
f 290 289 297
f 295 70 69
f 69 294 295
f 67 71 297
f 297 293 67
f 282 83 82
f 82 301 282
f 303 302 291
f 291 292 303
f 72 300 297
f 297 71 72
f 304 298 288
f 288 296 304
f 70 295 300
f 300 72 70
f 82 304 296
f 296 301 82
f 303 306 305
f 305 302 303
f 298 307 299
f 299 280 298
f 307 303 292
f 292 299 307
f 308 82 80
f 80 81 308
f 307 298 304
f 304 309 307
f 306 303 307
f 307 309 306
f 313 312 311
f 311 310 313
f 313 314 81
f 81 312 313
f 315 308 81
f 81 314 315
f 310 311 317
f 317 316 310
f 316 317 308
f 308 315 316
f 319 314 313
f 313 318 319
f 318 313 310
f 310 320 318
f 321 320 310
f 310 316 321
f 319 322 315
f 315 314 319
f 322 321 316
f 316 315 322
f 324 319 318
f 318 323 324
f 323 318 320
f 320 325 323
f 324 326 322
f 322 319 324
f 325 320 321
f 321 327 325
f 326 327 321
f 321 322 326
f 329 328 324
f 324 323 329
f 329 323 325
f 325 330 329
f 328 331 326
f 326 324 328
f 330 325 327
f 327 332 330
f 332 327 326
f 326 331 332
f 76 328 329
f 329 74 76
f 74 329 330
f 330 73 74
f 73 330 332
f 332 77 73
f 76 78 331
f 331 328 76
f 78 77 332
f 332 331 78
f 317 304 82
f 82 308 317
f 304 317 311
f 311 309 304
f 79 333 305
f 305 306 79
f 312 306 309
f 309 311 312
f 81 79 306
f 306 312 81
f 80 334 333
f 333 79 80
f 338 337 336
f 336 335 338
f 339 83 282
f 282 281 339
f 60 341 340
f 340 47 60
f 58 342 341
f 341 60 58
f 42 343 342
f 342 58 42
f 47 340 343
f 343 42 47
f 341 191 188
f 188 340 341
f 342 190 191
f 191 341 342
f 343 189 190
f 190 342 343
f 340 188 189
f 189 343 340
f 201 204 344
f 344 200 201
f 205 62 345
f 345 204 205
f 346 344 204
f 204 345 346
f 62 164 168
f 168 345 62
f 346 345 168
f 168 167 346
f 348 347 334
f 334 80 348
f 350 349 83
f 83 339 350
f 349 348 80
f 80 83 349
f 352 351 347
f 347 348 352
f 354 353 349
f 349 350 354
f 353 352 348
f 348 349 353
f 356 355 351
f 351 352 356
f 358 357 353
f 353 354 358
f 357 356 352
f 352 353 357
f 360 359 355
f 355 356 360
f 362 361 357
f 357 358 362
f 361 360 356
f 356 357 361
f 364 363 359
f 359 360 364
f 366 365 361
f 361 362 366
f 365 364 360
f 360 361 365
f 368 367 363
f 363 364 368
f 370 369 365
f 365 366 370
f 369 368 364
f 364 365 369
f 335 336 367
f 367 368 335
f 337 338 369
f 369 370 337
f 338 335 368
f 368 369 338
f 10 2 84
f 84 87 10
f 158 7 86
f 86 371 158
f 12 88 89
f 89 5 12
f 160 158 371
f 371 372 160
f 85 4 161
f 161 100 85
f 84 373 101
f 101 87 84
f 85 102 373
f 373 84 85
f 28 160 372
f 372 105 28
f 161 33 99
f 99 100 161
f 86 97 113
f 113 371 86
f 373 102 108
f 108 101 373
f 372 371 113
f 113 374 372
f 165 28 104
f 104 375 165
f 105 372 374
f 374 376 105
f 165 375 377
f 377 167 165
f 374 379 378
f 378 376 374
f 105 376 119
f 119 109 105
f 97 107 115
f 115 113 97
f 103 96 108
f 108 117 103
f 379 374 113
f 113 380 379
f 379 382 381
f 381 378 379
f 379 380 383
f 383 382 379
f 92 385 384
f 384 91 92
f 378 386 119
f 119 376 378
f 113 114 387
f 387 380 113
f 93 388 385
f 385 92 93
f 112 180 181
f 181 126 112
f 110 121 117
f 117 108 110
f 104 109 120
f 120 135 104
f 378 381 389
f 389 386 378
f 94 91 384
f 384 390 94
f 384 385 381
f 381 382 384
f 112 126 124
f 124 116 112
f 95 391 388
f 388 93 95
f 115 118 131
f 131 114 115
f 114 119 386
f 386 387 114
f 95 94 390
f 390 391 95
f 382 383 390
f 390 384 382
f 385 388 389
f 389 381 385
f 380 387 392
f 392 383 380
f 117 121 122
f 122 111 117
f 181 186 125
f 125 126 181
f 116 127 122
f 122 121 116
f 107 122 393
f 393 118 107
f 387 386 389
f 389 392 387
f 397 396 395
f 395 394 397
f 383 392 391
f 391 390 383
f 391 392 389
f 389 388 391
f 186 192 128
f 128 125 186
f 118 393 133
f 133 131 118
f 120 132 134
f 134 135 120
f 192 193 398
f 398 128 192
f 128 398 129
f 129 123 128
f 104 135 136
f 136 375 104
f 127 130 393
f 393 122 127
f 193 195 399
f 399 398 193
f 398 399 400
f 400 129 398
f 129 400 401
f 401 130 129
f 200 403 402
f 402 199 200
f 130 401 133
f 133 393 130
f 134 132 133
f 133 404 134
f 407 406 405
f 405 403 407
f 399 409 408
f 408 400 399
f 195 209 409
f 409 399 195
f 400 408 410
f 410 401 400
f 136 134 404
f 404 411 136
f 401 410 404
f 404 133 401
f 136 411 412
f 412 406 136
f 199 402 413
f 413 213 199
f 410 414 411
f 411 404 410
f 209 216 415
f 415 409 209
f 408 416 414
f 414 410 408
f 409 415 416
f 416 408 409
f 411 414 417
f 417 412 411
f 415 216 221
f 221 418 415
f 406 412 419
f 419 405 406
f 403 405 420
f 420 402 403
f 416 415 418
f 418 421 416
f 414 416 421
f 421 417 414
f 213 413 422
f 422 225 213
f 418 221 228
f 228 423 418
f 421 418 423
f 423 424 421
f 412 417 425
f 425 419 412
f 417 421 424
f 424 425 417
f 402 420 426
f 426 413 402
f 423 228 233
f 233 427 423
f 225 422 428
f 428 234 225
f 424 423 427
f 427 429 424
f 419 430 420
f 420 405 419
f 233 238 431
f 431 427 233
f 425 424 429
f 429 432 425
f 419 425 432
f 432 430 419
f 106 31 180
f 180 112 106
f 413 426 433
f 433 422 413
f 429 427 431
f 431 434 429
f 429 434 435
f 435 432 429
f 238 244 436
f 436 431 238
f 426 420 430
f 430 437 426
f 248 234 428
f 428 438 248
f 422 433 439
f 439 428 422
f 432 435 437
f 437 430 432
f 434 431 436
f 436 440 434
f 434 440 441
f 441 435 434
f 433 426 437
f 437 442 433
f 248 438 443
f 443 253 248
f 244 255 444
f 444 436 244
f 436 444 445
f 445 440 436
f 437 435 441
f 441 446 437
f 428 439 443
f 443 438 428
f 433 442 447
f 447 439 433
f 437 446 139
f 139 442 437
f 444 255 260
f 260 445 444
f 440 445 448
f 448 441 440
f 446 441 448
f 448 449 446
f 253 443 450
f 450 263 253
f 260 265 451
f 451 445 260
f 442 139 452
f 452 447 442
f 439 447 453
f 453 443 439
f 265 269 454
f 454 451 265
f 448 445 451
f 451 455 448
f 139 446 449
f 449 138 139
f 263 450 456
f 456 272 263
f 448 455 458
f 458 457 448
f 449 448 457
f 457 459 449
f 451 454 137
f 137 455 451
f 269 277 460
f 460 454 269
f 139 137 461
f 461 452 139
f 447 452 462
f 462 453 447
f 272 456 463
f 463 281 272
f 457 458 465
f 465 464 457
f 457 464 466
f 466 459 457
f 459 467 138
f 138 449 459
f 458 455 137
f 137 468 458
f 443 453 469
f 469 450 443
f 454 460 461
f 461 137 454
f 138 467 468
f 468 137 138
f 465 458 468
f 468 470 465
f 459 466 471
f 471 467 459
f 277 291 472
f 472 460 277
f 465 474 473
f 473 464 465
f 466 464 473
f 473 475 466
f 468 467 471
f 471 470 468
f 450 469 476
f 476 456 450
f 474 465 470
f 470 477 474
f 453 462 478
f 478 469 453
f 461 479 462
f 462 452 461
f 474 140 141
f 141 473 474
f 471 466 475
f 475 480 471
f 460 472 479
f 479 461 460
f 456 476 481
f 481 463 456
f 471 480 477
f 477 470 471
f 141 143 475
f 475 473 141
f 477 144 140
f 140 474 477
f 155 156 463
f 463 481 155
f 291 302 482
f 482 472 291
f 477 480 145
f 145 144 477
f 469 478 483
f 483 476 469
f 480 475 143
f 143 145 480
f 476 483 155
f 155 481 476
f 305 484 482
f 482 302 305
f 479 485 478
f 478 462 479
f 472 482 485
f 485 479 472
f 154 155 486
f 486 153 154
f 483 478 485
f 485 487 483
f 485 482 484
f 484 487 485
f 491 490 489
f 489 488 491
f 153 492 489
f 489 490 153
f 153 486 493
f 493 492 153
f 495 491 488
f 488 494 495
f 486 495 494
f 494 493 486
f 489 492 497
f 497 496 489
f 488 489 496
f 496 498 488
f 488 498 499
f 499 494 488
f 493 500 497
f 497 492 493
f 494 499 500
f 500 493 494
f 496 497 502
f 502 501 496
f 498 496 501
f 501 503 498
f 500 504 502
f 502 497 500
f 499 498 503
f 503 505 499
f 499 505 504
f 504 500 499
f 502 507 506
f 506 501 502
f 503 501 506
f 506 508 503
f 504 509 507
f 507 502 504
f 505 503 508
f 508 510 505
f 504 505 510
f 510 509 504
f 506 507 149
f 149 148 506
f 508 506 148
f 148 146 508
f 510 508 146
f 146 150 510
f 509 151 149
f 149 507 509
f 510 150 151
f 151 509 510
f 155 483 495
f 495 486 155
f 491 495 483
f 483 487 491
f 305 333 152
f 152 484 305
f 487 484 490
f 490 491 487
f 484 152 153
f 153 490 484
f 333 334 154
f 154 152 333
f 336 337 512
f 512 511 336
f 463 156 339
f 339 281 463
f 514 513 132
f 132 120 514
f 513 515 131
f 131 132 513
f 515 516 114
f 114 131 515
f 516 514 120
f 120 114 516
f 394 395 513
f 513 514 394
f 395 396 515
f 515 513 395
f 396 397 516
f 516 515 396
f 397 394 514
f 514 516 397
f 344 407 403
f 403 200 344
f 517 136 406
f 406 407 517
f 407 344 346
f 346 517 407
f 377 375 136
f 136 517 377
f 377 517 346
f 346 167 377
f 334 347 518
f 518 154 334
f 156 519 350
f 350 339 156
f 154 518 519
f 519 156 154
f 347 351 520
f 520 518 347
f 519 521 354
f 354 350 519
f 518 520 521
f 521 519 518
f 351 355 522
f 522 520 351
f 521 523 358
f 358 354 521
f 520 522 523
f 523 521 520
f 355 359 524
f 524 522 355
f 523 525 362
f 362 358 523
f 522 524 525
f 525 523 522
f 359 363 526
f 526 524 359
f 525 527 366
f 366 362 525
f 524 526 527
f 527 525 524
f 363 367 528
f 528 526 363
f 527 529 370
f 370 366 527
f 526 528 529
f 529 527 526
f 367 336 511
f 511 528 367
f 529 512 337
f 337 370 529
f 528 511 512
f 512 529 528