# https://github.com/mikedh/trimesh
v -0.00570124 -0.36473638 0.01272203
v 0.03024633 -0.36804682 0.05999329
v -0.00429700 -0.36786324 0.05766527
v 0.03824596 -0.36679883 0.01503249
v 0.07656451 -0.36706048 0.06976042
v 0.09105603 -0.36665034 0.03032473
v -0.03879737 -0.36658791 0.06142096
v -0.08870133 -0.36139472 0.03148874
v -0.04675208 -0.36367196 0.01766125
v -0.07968025 -0.36478913 0.06947528
v -0.13723034 -0.35704147 0.05744261
v -0.12019987 -0.36112525 0.08712290
v -0.17396499 -0.35292835 0.08640418
v -0.15804189 -0.35789296 0.10886605
v -0.18898968 -0.35510598 0.13412270
v -0.22081048 -0.35077419 0.15353391
v -0.20310818 -0.35030937 0.12076979
v -0.20985591 -0.35317056 0.16130114
v 0.12286121 -0.36533597 0.08679675
v 0.14205955 -0.36095337 0.05495839
v 0.17253470 -0.35802968 0.07765849
v 0.15461756 -0.36303922 0.10602633
v 0.19739098 -0.35567823 0.10529395
v 0.21787832 -0.35446541 0.14218873
v 0.18362989 -0.36086352 0.12953306
v 0.20787293 -0.35810388 0.15301832
v 0.22513580 -0.35446541 0.16112146
v 0.21513430 -0.35810388 0.16491620
v -0.22884918 -0.35077419 0.17082412
v -0.21798639 -0.35317056 0.17452516
v 0.02828353 -0.33983523 0.07416061
v -0.00399819 -0.33902859 0.07219586
v -0.00574225 -0.33563031 0.01150726
v -0.04742197 -0.33573186 0.01464577
v 0.07305881 -0.33970433 0.08194346
v 0.03851157 -0.33720641 0.01345637
v 0.09120251 -0.33857353 0.02994782
v -0.07547537 -0.33772010 0.08293560
v -0.03667833 -0.33823566 0.07529922
v -0.08983604 -0.33530809 0.02884043
v -0.11467278 -0.33685685 0.09810678
v -0.13762483 -0.33413624 0.05684109
v -0.15183711 -0.33574162 0.11787735
v -0.20791459 -0.33217735 0.11748481
v -0.17659377 -0.33320273 0.08367970
v -0.20586391 -0.33219106 0.16405100
v -0.18257787 -0.33358746 0.14034506
v -0.22723011 -0.33215195 0.15031140
v 0.11809385 -0.33978836 0.09670840
v 0.14100493 -0.33706582 0.05669852
v 0.18298930 -0.33875129 0.13025568
v 0.15060016 -0.33941727 0.11174091
v 0.17237456 -0.33669279 0.07783623
v 0.20623043 -0.33719472 0.15433271
v 0.19863897 -0.33625136 0.10440335
v 0.21770842 -0.33534907 0.14226881
v 0.20974003 -0.32774394 0.16412718
v 0.22182540 -0.32665419 0.16177376
v -0.21792780 -0.32396093 0.17468529
v -0.22868317 -0.32342779 0.17075188
v -0.00433021 -0.31019207 0.06499502
v 0.03114863 -0.31162363 0.06381734
v -0.04698645 -0.30779175 0.03265080
v -0.00648440 -0.30652424 0.03215278
v 0.07656451 -0.31234817 0.06976042
v 0.03576951 -0.30761600 0.03801581
v 0.08616173 -0.31049865 0.04777706
v -0.07734051 -0.31065101 0.07890062
v -0.04211948 -0.30988542 0.06599887
v -0.08662915 -0.30922138 0.04675562
v -0.11832692 -0.31258643 0.09133950
v -0.13509763 -0.31122907 0.06720195
v -0.15635838 -0.31358834 0.11114133
v -0.17280879 -0.31347703 0.09357964
v -0.20385227 -0.31404340 0.12406456
v -0.20985591 -0.31217242 0.16130114
v -0.18540000 -0.31241850 0.13574371
v -0.22333380 -0.31352784 0.15098325
v 0.12383773 -0.31424262 0.08168565
v 0.13635863 -0.31318021 0.06944989
v 0.15610187 -0.31579532 0.09295662
v 0.18618251 -0.31663899 0.12304312
v 0.16212110 -0.31535389 0.08794318
v 0.20841391 -0.31537342 0.14789745
v 0.18999679 -0.31559804 0.11642820
v 0.21668697 -0.31500627 0.14279417
v 0.19816244 -0.31540277 0.16607045
v 0.22904969 -0.31484609 0.16137730
v 0.22691307 -0.31597495 0.21960899
v 0.20120722 -0.31554723 0.22036482
v 0.22106763 -0.32606824 0.21639820
v 0.20828306 -0.32774394 0.21579667
v -0.20926610 -0.31235406 0.17420680
v -0.23622188 -0.31233841 0.17281818
v -0.20652793 -0.31415084 0.23558485
v -0.22687661 -0.32491792 0.23036436
v -0.21550604 -0.32555074 0.23150102
v -0.23775111 -0.31353567 0.23596176
v 0.00458345 -0.34120235 0.15152034
v 0.01931324 -0.32884352 0.13484727
v 0.00713606 -0.32884352 0.15594006
v 0.01420996 -0.34120235 0.13484727
v -0.01722024 -0.32884352 0.15594006
v -0.01466957 -0.34120235 0.15152034
v -0.02939741 -0.32884352 0.13484727
v -0.02429413 -0.34120235 0.13484727
v -0.01466957 -0.34120235 0.11817226
v -0.01722024 -0.32884352 0.11375451
v 0.00713606 -0.32884352 0.11375451
v 0.00458345 -0.34120235 0.11817226
v -0.00504306 -0.34120235 0.13484727
v 0.10702795 -0.31939863 0.08762288
v 0.10785604 -0.31917990 0.23706132
v 0.04270865 -0.32067590 0.23882491
v 0.03846080 -0.31684796 0.08735337
v -0.04907229 -0.31694371 0.24198884
v -0.11509660 -0.31819750 0.09288240
v -0.04907229 -0.31692023 0.08735337
v -0.11524893 -0.31861353 0.24247709
v 0.03665814 -0.32992157 0.22622002
v -0.04452953 -0.32965597 0.09607757
v 0.03505080 -0.32837870 0.09517722
v -0.04577557 -0.33118715 0.23168266
v 0.04221257 -0.31250642 0.24230521
v 0.11145353 -0.31274274 0.24045960
v 0.11012352 -0.31267240 0.08484372
v -0.04907229 -0.31146345 0.08430077
v -0.11968037 -0.31229542 0.08896657
v -0.11797927 -0.31385201 0.24582459
v -0.04981054 -0.31292043 0.24576208
v 0.03861509 -0.31130335 0.08240828
v 0.02202991 -0.33487643 0.31922938
v -0.00543953 -0.35766060 0.26220274
v 0.01945190 -0.35692228 0.25915014
v -0.00421302 -0.33675531 0.32089533
v -0.02997942 -0.33595456 0.32114338
v -0.03273515 -0.35787934 0.25989816
v -0.00579498 -0.36713082 0.23278613
v -0.04303936 -0.36642386 0.23040342
v 0.02772691 -0.36605471 0.22995618
v -0.03559634 -0.37381413 0.20721895
v -0.00495127 -0.37606209 0.19406721
v 0.02009250 -0.37286497 0.20541237
v -0.00437903 -0.32567569 0.32410027
v 0.02649064 -0.32558785 0.32148911
v -0.03716854 -0.33688613 0.27138200
v -0.03788921 -0.33940752 0.25812285
v 0.02524265 -0.33324766 0.27009691
v -0.03434250 -0.32699788 0.32338348
v 0.03130878 -0.34761216 0.22733716
v 0.02493212 -0.33514404 0.25736898
v -0.04534395 -0.35047924 0.23096589
v 0.02429152 -0.35680121 0.20417221
v -0.03880714 -0.36417195 0.20429916
v -0.00491807 -0.36641991 0.19069236
v 0.06399478 -0.32346490 0.28267054
v 0.07228346 -0.32196301 0.30961463
v -0.06193693 -0.32238097 0.27525879
v -0.08005719 -0.32212118 0.28813319
v -0.00377750 -0.32047088 0.34446066
v 0.04892906 -0.32129502 0.33462131
v -0.05889605 -0.31982055 0.33881442
v -0.08206686 -0.32136148 0.31580182
v 0.04931576 -0.32199229 0.27090937
v 0.02268613 -0.31886937 0.26256796
v 0.05149535 -0.31849827 0.26488038
v 0.07072494 -0.31811161 0.27539550
v -0.03120788 -0.32204109 0.26113444
v -0.06462430 -0.31663899 0.26957740
v -0.08884194 -0.31398485 0.31811229
v -0.08504524 -0.31662923 0.28453375
v 0.05453623 -0.31226615 0.34372636
v 0.07982022 -0.31590664 0.31228829
v -0.00375797 -0.31057681 0.34995066
v -0.06164788 -0.31374264 0.34460519
v 0.02251036 -0.32666783 0.23362984
v -0.03716463 -0.33002513 0.23158892
v 0.01648524 -0.33284140 0.21518342
v -0.02714947 -0.33464212 0.21598417
v -0.00478917 -0.33576703 0.20076415
v -0.09263278 0.02243330 0.00228503
v -0.09263278 0.10125585 0.00154092
v 0.00066175 0.02243330 0.00194129
v 0.00066175 0.10125585 0.00059761
v -0.09263278 0.10125583 0.34959135
v -0.09263278 0.02243329 0.34815971
v 0.00066175 0.10125584 0.34787266
v 0.00066175 0.02243329 0.34657780
v -0.09263278 -0.31239898 0.16738288
v 0.00066175 -0.31161387 0.09709510
v 0.00066175 -0.31215290 0.16738288
v -0.09263278 -0.31306108 0.09709510
v 0.48704368 0.10125584 0.16738290
v 0.48641089 0.02243329 0.16738289
v 0.48587380 0.10125585 0.09709512
v 0.48646558 0.02243330 0.09709512
v 0.09395629 0.44058204 0.09709513
v 0.00066175 0.44157611 0.16738291
v 0.09395629 0.44142573 0.16738291
v 0.00066175 0.44035740 0.09709513
v -0.48186877 0.02243329 0.16738289
v -0.48223011 0.10125584 0.16738290
v -0.48032590 0.02243330 0.09709512
v -0.48078093 0.10125585 0.09709512
v -0.46646324 -0.29519079 0.01518090
v -0.45731912 -0.28515025 0.01000145
v -0.45261817 -0.29963784 0.01332161
v -0.47147670 -0.28214840 0.01139789
v -0.47291999 -0.29300340 0.01897565
v -0.47745492 -0.28194725 0.01453250
v -0.46361573 -0.30013976 0.01782531
v -0.45268653 -0.30370403 0.01632538
v -0.46931467 -0.29758522 0.02011818
v -0.47135559 0.40612460 0.01582543
v -0.46900806 0.41935058 0.01771597
v -0.45905734 0.40970452 0.01040772
v -0.45793045 0.42289338 0.01439581
v -0.46835378 0.42360819 0.01965729
v -0.45895773 0.42677797 0.01627854
v -0.47455271 0.40540396 0.01761053
v -0.47274029 0.41855571 0.01973736
v -0.47150206 0.42208094 0.02118847
v 0.47687619 0.41166148 0.00778674
v 0.46619892 0.41575114 0.00339241
v 0.47312242 0.42287188 0.01239005
v 0.46118744 0.42621548 0.00765589
v 0.48116112 0.41047601 0.01300720
v 0.47796988 0.42144032 0.01593480
v 0.46030466 0.43182852 0.01175922
v 0.47179047 0.42780915 0.01562623
v 0.47612230 0.42566472 0.01773550
v 0.47443490 -0.30030188 0.01086274
v 0.46396858 -0.30268260 0.00715197
v 0.46700164 -0.29272409 0.00184753
v 0.47752850 -0.29006793 0.00568134
v 0.46352719 -0.30760818 0.01226111
v 0.47313807 -0.30467666 0.01482936
v 0.47971980 -0.29905776 0.01421806
v 0.48440123 -0.28676539 0.00966553
v 0.47746796 -0.30314161 0.01646600
v -0.47665808 -0.28790596 0.36151455
v -0.47387307 -0.30117685 0.35661244
v -0.46197321 -0.28968717 0.36595772
v -0.45828784 -0.30409861 0.36226456
v -0.47230088 -0.30711208 0.35276104
v -0.45706525 -0.31110608 0.35661244
v -0.48281600 -0.28746066 0.35539373
v -0.48003292 -0.29970423 0.35272982
v -0.47788461 -0.30495985 0.35061276
v 0.46833553 -0.26948301 0.35786825
v 0.45100628 -0.27586943 0.35958501
v 0.46674577 -0.28713650 0.35701677
v 0.44822515 -0.29428456 0.35803037
v 0.48258099 -0.26455744 0.35376884
v 0.48001274 -0.28229489 0.35251109
v 0.44966453 -0.30275883 0.35228259
v 0.46624775 -0.29911052 0.35175921
v 0.47824331 -0.29426310 0.35016352
v 0.47160299 0.42155751 0.35495628
v 0.44949657 0.42510616 0.36065527
v 0.45801964 0.40705230 0.36354380
v 0.47414780 0.40298216 0.35727070
v 0.47050538 0.42876810 0.35102293
v 0.44901416 0.43355302 0.35540747
v 0.47903426 0.42045208 0.35073580
v 0.48091895 0.40274000 0.35293690
v 0.47674533 0.42627015 0.34830233
v -0.47466991 0.42550848 0.35823543
v -0.46094005 0.41281178 0.36949669
v -0.45912960 0.42815485 0.36286806
v -0.47785138 0.41065565 0.36553197
v -0.48135124 0.42390504 0.35407552
v -0.48624161 0.40987446 0.35890342
v -0.45864914 0.43409209 0.35551297
v -0.47277546 0.43136761 0.35323372
v -0.47857986 0.42934620 0.35128853
v -0.47175012 -0.30697930 0.03788494
v -0.46574649 -0.30351069 0.02329967
v -0.45536023 -0.31128375 0.03445541
v -0.45234281 -0.30742848 0.02114547
v -0.47697058 -0.30368257 0.03888880
v -0.47298835 -0.29996006 0.02500857
v 0.47584496 -0.31042832 0.03067628
v 0.46437283 -0.31259619 0.02886189
v 0.47415756 -0.30694801 0.01989162
v 0.46422833 -0.31034435 0.01793859
v 0.47900889 -0.30463762 0.02091111
v 0.48135449 -0.30759447 0.03000641
v 0.46801134 -0.30621760 0.34072648
v 0.45184998 -0.30852807 0.34375951
v 0.45310580 -0.31103381 0.32657085
v 0.47191157 -0.31000843 0.32456509
v 0.48069630 -0.29913399 0.33957419
v 0.48373328 -0.30349119 0.32424093
v -0.47360549 -0.31083459 0.34667934
v -0.45974481 -0.31838116 0.33470524
v -0.45708086 -0.31569378 0.34911869
v -0.47607804 -0.31538713 0.33324246
v -0.47959544 -0.30668637 0.34514228
v -0.48251523 -0.30954562 0.33311547
v 0.48672142 -0.30307322 0.03045950
v 0.48295793 -0.30038778 0.01950883
v 0.49174269 -0.29074173 0.02880918
v 0.48853190 -0.28793135 0.01667888
v 0.48389539 0.42511010 0.03130714
v 0.48618824 0.41479610 0.02840689
v 0.48071779 0.42256721 0.02081544
v 0.48373328 0.41098575 0.01840735
v 0.47792496 0.42744005 0.02194430
v 0.48075490 0.43013133 0.03182860
v 0.48280948 0.42115712 0.34376737
v 0.48673118 0.40271656 0.34696643
v 0.48828582 0.40623593 0.33046132
v 0.48711788 0.42376640 0.32592833
v 0.47885654 0.42813141 0.34252526
v 0.48293841 0.43196717 0.32571157
v 0.48662963 -0.28433581 0.33947265
v 0.49283639 -0.27254141 0.32334836
v 0.48986385 -0.26576833 0.34229480
v 0.49197898 -0.29059922 0.32196369
v 0.47583714 0.43376007 0.03144776
v 0.47290175 0.43063131 0.02075880
v 0.46503884 0.43706656 0.02843230
v 0.46084566 0.43488697 0.01774332
v -0.47366993 0.43128753 0.03331489
v -0.46130917 0.43549241 0.02999080
v -0.46937718 0.42669204 0.02329970
v -0.45909444 0.42960399 0.01964752
v -0.47350979 0.42413553 0.02444418
v -0.47788461 0.42832866 0.03406874
v -0.47374026 0.43394948 0.34659734
v -0.45862571 0.43632049 0.34790583
v -0.45995181 0.43752356 0.33456074
v -0.47516598 0.43664860 0.33322491
v -0.48034151 0.43104534 0.34549188
v -0.48278865 0.43367022 0.33297294
v 0.47164009 0.43279333 0.34404668
v 0.45326203 0.44020507 0.32948873
v 0.44939502 0.43783016 0.34732776
v 0.47517314 0.43757238 0.32637948
v -0.48070281 0.42416088 0.03367618
v -0.47606437 0.42028610 0.02266301
v -0.48372027 0.41298368 0.02967048
v -0.47792562 0.40685898 0.01974908
v -0.48096647 -0.29967494 0.03798649
v -0.48535887 -0.28378507 0.03370349
v -0.47712096 -0.29426309 0.02419025
v -0.48101140 -0.28166012 0.01891317
v -0.48287068 -0.30074719 0.34647036
v -0.48643107 -0.28780047 0.34836674
v -0.48830794 -0.28937075 0.33572473
v -0.48646233 -0.30259865 0.33384399
v -0.48510888 0.42518428 0.34726526
v -0.49329405 0.41116737 0.33428538
v -0.49104218 0.40970650 0.34977494
v -0.48868488 0.42705724 0.33302569
v -0.47108802 0.02240205 0.01511647
v -0.46483049 0.10125585 0.01384895
v -0.46482073 0.02243330 0.01400128
v -0.47102942 0.10130465 0.01525318
v -0.47592181 0.02244306 0.01739761
v -0.47572061 0.10131638 0.01735855
v 0.00066175 0.42577606 0.00870467
v 0.09395629 0.41614176 0.00576144
v 0.00066175 0.41609682 0.00641181
v 0.09395629 0.42580731 0.00861288
v 0.00066175 0.43113714 0.01221623
v 0.09395629 0.43137739 0.01197600
v 0.46694107 0.02243330 0.00275766
v 0.47700702 0.10125585 0.00688833
v 0.47710271 0.02243330 0.00661295
v 0.46688248 0.10125585 0.00360333
v 0.48161033 0.02243330 0.01233144
v 0.48161618 0.10125585 0.01232363
v -0.09263278 -0.30148147 0.01040378
v 0.00066175 -0.29239986 0.00649576
v 0.00066175 -0.30194830 0.00908939
v -0.09263278 -0.29234323 0.00728478
v 0.00066175 -0.30611604 0.01354621
v -0.09263278 -0.30519028 0.01447390
v 0.00066175 -0.30203616 0.35651283
v 0.09395629 -0.30161038 0.35603043
v 0.00066175 -0.29227687 0.35712025
v 0.09395434 -0.28952110 0.35622965
v 0.00066175 -0.30800462 0.35369657
v 0.09395629 -0.30748906 0.35316730
v 0.46221278 0.10082614 0.35528244
v 0.47507938 0.02243131 0.35416729
v 0.47546415 0.10125583 0.35412624
v 0.46251355 0.02243329 0.35463598
v 0.48017486 0.02243329 0.35159316
v 0.48021781 0.10125583 0.35163421
v 0.00066175 0.42555731 0.35603441
v -0.09263278 0.41631555 0.36202433
v 0.00066175 0.41629990 0.36179977
v -0.09263278 0.42626821 0.35803822
v 0.00066175 0.42746152 0.34946240
v -0.09263278 0.42932665 0.35132757
v -0.47729284 0.10125583 0.36300089
v -0.47727134 0.02243329 0.36293838
v -0.46565858 0.10125583 0.36315123
v -0.46565080 0.02243329 0.36302823
v -0.48522995 0.10125583 0.35796788
v -0.48470459 0.02243329 0.35744055
v 0.00066175 -0.30760035 0.01877058
v 0.09395629 -0.30773900 0.01872177
v 0.00066175 -0.30911789 0.02680341
v 0.09395629 -0.30939713 0.02753189
v 0.09395629 -0.30627034 0.01339192
v 0.46678093 -0.31463130 0.27373933
v 0.47729802 -0.31359810 0.27353815
v 0.48405554 -0.30978582 0.27346980
v 0.00066175 -0.31211968 0.34818905
v -0.09263278 -0.31256498 0.33804883
v 0.00066175 -0.31308255 0.33722271
v -0.09263278 -0.31143024 0.34794297
v -0.09263278 -0.30833474 0.35402467
v -0.47435156 -0.30902216 0.16738288
v -0.46536173 -0.31329346 0.09709510
v -0.46520550 -0.31106897 0.16738288
v -0.47511521 -0.31117439 0.09709510
v -0.47840996 -0.30545596 0.16738288
v -0.48052508 -0.30757108 0.09709510
v 0.48348720 0.02243330 0.01820031
v 0.48316691 0.10125585 0.01831359
v 0.48528788 0.02243330 0.02741670
v 0.48492658 0.10125585 0.02744207
v 0.48879944 0.41631750 0.27281752
v 0.48805341 0.42684632 0.27263784
v 0.48522541 0.43457840 0.27284682
v 0.48378014 0.02243329 0.34679066
v 0.48589530 0.10119724 0.33685555
v 0.48347744 0.10125584 0.34715200
v 0.48661402 0.02243522 0.33419942
v 0.48899866 -0.30342085 0.16738288
v 0.49218602 -0.29273579 0.09709510
v 0.49072905 -0.29263231 0.16738288
v 0.49079741 -0.30405948 0.09709510
v 0.48442075 -0.31014514 0.16738288
v 0.48483871 -0.31056116 0.09709510
v 0.00066175 0.43460185 0.01759686
v -0.09263278 0.43425810 0.01771793
v 0.00066175 0.43651383 0.02728780
v -0.09263278 0.43560960 0.02735225
v -0.09263278 0.43070160 0.01265175
v -0.46561563 0.44052928 0.27390926
v -0.47682410 0.43968360 0.27397566
v -0.48552680 0.43625797 0.27419247
v 0.00066175 0.42775645 0.34532782
v 0.09395629 0.43168592 0.33772277
v 0.00066175 0.42745568 0.33742390
v 0.09395629 0.43020551 0.34619890
v 0.09395629 0.42925829 0.35125925
v 0.47664378 0.43544356 0.16738291
v 0.46684146 0.43919536 0.09709513
v 0.46676726 0.43813877 0.16738291
v 0.47738202 0.43752747 0.09709513
v 0.48121387 0.43062740 0.16738291
v 0.48350087 0.43291638 0.09709513
v -0.47950366 0.10133981 0.02187397
v -0.47990403 0.02248210 0.02164351
v -0.48154458 0.10125585 0.02758855
v -0.48190785 0.02243330 0.02756316
v -0.49234485 -0.29278855 0.27477443
v -0.49101681 -0.30449309 0.27612787
v -0.48702870 -0.31397896 0.27661614
v -0.48691348 0.02243329 0.34884134
v -0.48964578 0.10125584 0.33834183
v -0.48821809 0.02243329 0.33824024
v -0.48783530 0.10125584 0.34916945
v -0.48407181 0.42583074 0.16738291
v -0.48564791 0.41605580 0.09709513
v -0.48664788 0.41612808 0.16738291
v -0.48533347 0.42627996 0.09709513
v -0.48145085 0.43218789 0.16738291
v -0.48266170 0.43339874 0.09709513
v 0.09394653 -0.31303375 0.33616806
v 0.00066175 -0.31785577 0.27431352
v 0.09398754 -0.31806668 0.27436820
v 0.49700610 0.10097459 0.27252064
v 0.49691629 0.02219697 0.27295031
v -0.09263278 0.43176794 0.33772858
v -0.09263278 0.44564819 0.27390926
v 0.00066175 0.44564037 0.27390926
v -0.50076634 0.10110739 0.27486234
v -0.49920391 0.02231416 0.27520216
v 0.46687272 -0.31589881 0.26256796
v 0.47770231 -0.31474067 0.26238632
v 0.48479572 -0.31054358 0.26236289
v -0.46599451 -0.32261528 0.27496973
v -0.47826152 -0.32009196 0.27628217
v 0.48894006 0.41634875 0.26106220
v 0.48864518 0.42698106 0.26075753
v 0.48575468 0.43479714 0.26095675
v 0.49140285 -0.29268700 0.27368073
v 0.48908068 -0.30345997 0.27350105
v -0.46562345 0.44068164 0.26281407
v -0.47686121 0.43968166 0.26274767
v -0.48542134 0.43623065 0.26250744
v 0.46721647 0.44439629 0.27386240
v 0.47873938 0.44119331 0.27334875
v -0.49039963 -0.30423137 0.26349955
v -0.49107149 -0.29259909 0.26244687
v -0.48594867 -0.31243609 0.26220860
v -0.49367878 0.41654405 0.27492484
v -0.49163395 0.42847126 0.27460458
v 0.00066175 -0.31826195 0.26250547
v 0.09400902 -0.31838309 0.26271054
v 0.49802559 0.02172239 0.25972045
v 0.49915445 0.10073242 0.25935134
v 0.00064222 0.44051952 0.26308554
v -0.09263278 0.44433184 0.26281603
v -0.49313584 0.10070311 0.26264220
v -0.49188200 0.02211885 0.26228868
v -0.47875956 -0.31867797 0.26189025
v -0.46642417 -0.32190437 0.26154457
v 0.48811003 -0.30307129 0.26234922
v 0.49126420 -0.29262062 0.26250936
v 0.46748014 0.44481424 0.26112277
v 0.47931357 0.44165814 0.26100165
v -0.49343270 0.41659681 0.26215981
v -0.49140351 0.42852595 0.26235316
v 0.46691179 -0.31646712 0.25469527
v 0.47764956 -0.31459226 0.25447458
v 0.48443833 -0.31016861 0.25443356
v 0.48577419 0.42613541 0.25366410
v 0.48686010 0.41622571 0.25372465
v 0.48250872 0.43202577 0.25392385
v -0.47598625 0.43735757 0.25503904
v -0.46563515 0.44087106 0.25490820
v -0.48196644 0.43268396 0.25538278
v -0.48418703 -0.30217287 0.25710922
v -0.48436866 -0.29215773 0.25636707
v -0.47911304 -0.30596958 0.25720883
v 0.00066175 -0.31315481 0.24505118
v 0.09394457 -0.31262354 0.24498087
v 0.00066175 -0.31210604 0.25532610
v 0.09399730 -0.31262555 0.25548235
v 0.48215327 0.02235126 0.24433445
v 0.49153174 0.10063281 0.25443945
v 0.49267427 0.02171259 0.25360940
v 0.48312392 0.10117966 0.24468794
v 0.00066175 0.43849422 0.24485982
v -0.09263083 0.44345883 0.25489842
v 0.00065980 0.43903130 0.25491796
v -0.09264450 0.44229678 0.24487544
v -0.48040011 0.10076561 0.24788507
v -0.48268517 0.02215596 0.25691201
v -0.48412064 0.10073633 0.25710533
v -0.48074382 0.02220867 0.24706868
v -0.47498628 -0.30966080 0.25738460
v -0.47401563 -0.30792259 0.24714094
v -0.46529922 -0.31251618 0.25698423
v -0.46535782 -0.31288333 0.24619176
v -0.47757796 -0.30452826 0.24715852
v 0.48836587 -0.30320606 0.25444528
v 0.49213327 -0.29273975 0.24470553
v 0.49241843 -0.29277491 0.25460738
v 0.48939121 -0.30356539 0.24456684
v 0.48526054 -0.31099275 0.24454339
v 0.47616529 0.43428543 0.24477779
v 0.46672233 0.43767785 0.25488475
v 0.47705000 0.43645720 0.25412112
v 0.46674577 0.43791807 0.24486373
v 0.48101074 0.43041842 0.24461765
v -0.48330622 0.42553190 0.24539495
v -0.48734313 0.41607730 0.25590228
v -0.48509715 0.42613151 0.25571873
v -0.48557173 0.41598547 0.24562347
v -0.48098603 0.43176601 0.24510590
v 0.46680242 -0.31493013 0.16738288
v 0.46683562 -0.31542028 0.09709510
v 0.47729217 -0.31358253 0.16738288
v 0.47745429 -0.31403952 0.09709510
v 0.48524884 0.41593471 0.16738291
v 0.48914710 0.41621205 0.09709513
v 0.48348526 0.42515304 0.16738291
v 0.48754366 0.42659440 0.09709513
v -0.46562733 0.44072068 0.16738291
v -0.46563124 0.44076951 0.09709513
v -0.47617180 0.43783800 0.16738291
v -0.47638856 0.43844929 0.09709513
v -0.48218518 -0.29211862 0.16738288
v -0.48628460 -0.29241163 0.09709510
v -0.48057586 -0.30089947 0.16738288
v -0.48375152 -0.30202639 0.09709510
v 0.46690203 -0.31631677 0.24477191
v 0.47744256 -0.31398872 0.24460590
v 0.48333290 0.42510616 0.24463523
v 0.48488363 0.41593861 0.24466062
v -0.47602335 0.43745911 0.24486960
v -0.46568201 0.44164446 0.24486177
v -0.48122623 -0.30110651 0.24691829
v -0.48156607 -0.29200925 0.24584607
v 0.37383988 0.02243330 0.00186512
v 0.37383988 0.10125585 0.00182607
v 0.28054536 0.10125585 0.00056247
v 0.28054536 0.02243330 0.00196668
v 0.18725082 0.02243330 0.00142569
v 0.18725082 0.10125585 0.00077533
v 0.09395629 0.02243330 0.00130655
v 0.09395629 0.10125585 0.00057417
v -0.37251638 0.10125585 0.00910700
v -0.37251638 0.02243330 0.00959914
v -0.27922186 0.02243330 0.00729651
v -0.27922186 0.10125585 0.00706996
v -0.18592731 0.10125585 0.00402128
v -0.18592731 0.02243330 0.00502709
v 0.37383988 0.10125583 0.35169083
v 0.37383988 0.02243329 0.35017329
v 0.28054536 0.10125584 0.34925341
v 0.28054536 0.02243329 0.34796638
v 0.18725082 0.10125584 0.34756020
v 0.18725082 0.02243329 0.34711489
v 0.09395629 0.10125584 0.34712853
v 0.09395629 0.02243329 0.34616178
v -0.37251638 0.10125583 0.35729997
v -0.37251638 0.02243329 0.35728432
v -0.27922186 0.10125583 0.35372788
v -0.27922186 0.02243329 0.35398170
v -0.18592731 0.10125583 0.35130022
v -0.18592731 0.02243329 0.35076707
v 0.37383988 -0.31640267 0.16738288
v 0.37383988 -0.31540277 0.09709510
v 0.28054536 -0.31416648 0.16738288
v 0.28054536 -0.31484221 0.09709510
v 0.18725082 -0.31548085 0.16738288
v 0.18725082 -0.31605697 0.09709510
v 0.09395629 -0.31389499 0.16738288
v 0.09395629 -0.31272515 0.09709510
v -0.37251638 -0.31381684 0.09709510
v -0.37251638 -0.31335790 0.16738288
v -0.27922186 -0.31400629 0.09709510
v -0.27922186 -0.31224275 0.16738288
v -0.18592731 -0.31332862 0.09709510
v -0.18592731 -0.31218024 0.16738288
v -0.37251638 0.44301353 0.16738291
v -0.37251638 0.44152336 0.09709513
v -0.27922186 0.44534545 0.16738291
v -0.27922186 0.44204680 0.09709513
v -0.18592731 0.44463261 0.16738291
v -0.18592731 0.44148042 0.09709513
v -0.09263278 0.44289246 0.16738291
v -0.09263278 0.44060155 0.09709513
v 0.37383988 0.44007814 0.09709513
v 0.37383988 0.44117381 0.16738291
v 0.28054536 0.44087691 0.09709513
v 0.28054536 0.44194326 0.16738291
v 0.18725082 0.44128318 0.16738291
v 0.18725082 0.44059962 0.09709513
v -0.37251638 0.41577457 0.01094675
v -0.37251638 0.42454958 0.01215568
v -0.27922186 0.41584877 0.00990383
v -0.27922186 0.42490110 0.01116745
v -0.18592731 0.41596206 0.00831016
v -0.18592731 0.42524484 0.01019679
v -0.09263278 0.41607731 0.00668718
v -0.09263278 0.42560226 0.00919097
v 0.37383988 0.41631359 0.00335531
v 0.37383988 0.42678967 0.00584738
v 0.28054536 0.42649480 0.00667742
v 0.28054536 0.41623549 0.00445096
v 0.18725082 0.42625262 0.00736098
v 0.18725082 0.41620619 0.00487281
v -0.37251638 0.42901613 0.01433918
v -0.27922186 0.42979149 0.01356187
v -0.18592731 0.43000636 0.01334703
v 0.37383988 0.43323859 0.01011476
v 0.28054536 0.43297300 0.01038233
v 0.18725082 0.43190467 0.01144868
v 0.37383988 -0.29267723 0.00259164
v 0.37383988 -0.30339544 0.00501340
v 0.28054536 -0.30309668 0.00585516
v 0.28054536 -0.29257173 0.00406618
v 0.18725082 -0.30237602 0.00788436
v 0.18725082 -0.29250729 0.00497825
v 0.09395629 -0.30206155 0.00876909
v 0.09395629 -0.29245655 0.00568720
v -0.37251638 -0.29208151 0.01097016
v -0.37251638 -0.30048932 0.01319467
v -0.27922186 -0.29217136 0.00970850
v -0.27922186 -0.30079985 0.01231970
v -0.18592731 -0.29224951 0.00860113
v -0.18592731 -0.30114554 0.01134709
v 0.37383988 -0.30903192 0.01063228
v 0.28054536 -0.30817261 0.01149162
v 0.18725082 -0.30709649 0.01256579
v -0.37251638 -0.30412981 0.01553245
v -0.27922186 -0.30389349 0.01576877
v -0.18592731 -0.30434073 0.01532152
v -0.37251638 -0.29253860 0.36081736
v -0.37251638 -0.30308694 0.35947564
v -0.27922186 -0.30295216 0.35909672
v -0.27922186 -0.29248778 0.36008492
v -0.18592731 -0.30275295 0.35853423
v -0.18592731 -0.29240963 0.35901082
v -0.09263278 -0.30236233 0.35743271
v -0.09263278 -0.29236277 0.35834283
v 0.37244933 -0.28745872 0.35589178
v 0.37187514 -0.30025697 0.35439383
v 0.28045355 -0.28754269 0.35601679
v 0.28040669 -0.30094641 0.35497585
v 0.18724693 -0.28925162 0.35580588
v 0.18724497 -0.30142293 0.35564570
v -0.37251638 -0.30919993 0.35489181
v -0.27922186 -0.30893038 0.35462233
v -0.18592731 -0.30836208 0.35405395
v 0.37189075 -0.30505753 0.35095063
v 0.28040669 -0.30667855 0.35232945
v 0.18724497 -0.30693439 0.35265167
v 0.37343366 0.41416721 0.36350864
v 0.37319343 0.42686192 0.36034668
v 0.28054145 0.41599523 0.36418832
v 0.28053756 0.42709046 0.36043065
v 0.18724301 0.42622329 0.35899521
v 0.18724106 0.41227667 0.36390901
v 0.09395629 0.41634289 0.36241889
v 0.09395629 0.42624870 0.35798741
v -0.37251638 0.41649130 0.36448909
v -0.37251638 0.42698496 0.36005761
v -0.27922186 0.41644638 0.36387586
v -0.27922186 0.42705921 0.36026860
v -0.18592731 0.42636977 0.35832528
v -0.18592731 0.41631555 0.36203215
v 0.37318758 0.43222497 0.35428837
v 0.28053949 0.43131679 0.35333139
v 0.18725082 0.42936379 0.35168109
v -0.37251638 0.43054927 0.35255016
v -0.27922186 0.43116254 0.35316346
v -0.18592731 0.43004343 0.35204436
v -0.37251638 -0.30892843 0.02756510
v -0.37251638 -0.30664337 0.01911041
v -0.27922186 -0.30599885 0.01933891
v -0.27922186 -0.30802420 0.02762955
v -0.18592731 -0.30815890 0.02761978
v -0.18592731 -0.30618831 0.01927251
v -0.09263278 -0.30802420 0.02762955
v -0.09263278 -0.30670193 0.01909088
v 0.37383988 -0.31265087 0.02730144
v 0.37383988 -0.31105726 0.01754407
v 0.28054536 -0.31042250 0.01776867
v 0.28054536 -0.31148297 0.02738346
v 0.18725082 -0.30892650 0.01829990
v 0.18725082 -0.31086780 0.02742839
v 0.37264073 -0.31013151 0.33335179
v 0.37204311 -0.30789525 0.34593714
v 0.28047700 -0.31326024 0.33498257
v 0.28042819 -0.31174277 0.34766366
v 0.18725082 -0.31119980 0.33551776
v 0.18724497 -0.30983268 0.34709536
v 0.09396020 -0.31161582 0.34781207
v -0.37251638 -0.31449459 0.33818554
v -0.37251638 -0.31261579 0.34836480
v -0.27922186 -0.31185602 0.34809525
v -0.27922186 -0.31412350 0.33815820
v -0.18592731 -0.31121351 0.34786676
v -0.18592731 -0.31262160 0.33805278
v 0.37383988 0.43718763 0.02724093
v 0.37383988 0.43623066 0.01701874
v 0.28054536 0.43608616 0.01706952
v 0.28054536 0.43724821 0.02723702
v 0.18725082 0.43521899 0.01737812
v 0.18725082 0.43645137 0.02729368
v 0.09395629 0.43482450 0.01751676
v 0.09395629 0.43632833 0.02730147
v -0.37251638 0.43685952 0.02726436
v -0.37251638 0.43320931 0.01809096
v -0.27922186 0.43598263 0.02732686
v -0.27922186 0.43356670 0.01796401
v -0.18592731 0.43602950 0.02732295
v -0.18592731 0.43355893 0.01796596
v -0.37251638 0.43376201 0.33787118
v -0.37251638 0.43215464 0.34689029
v -0.27922186 0.43383427 0.33787706
v -0.27922186 0.43241637 0.34698401
v -0.18592731 0.43160002 0.34669300
v -0.18592731 0.43310187 0.33782431
v -0.09263278 0.43053362 0.34631416
v 0.37359578 0.43642792 0.33690048
v 0.37330086 0.43448657 0.34755239
v 0.28054536 0.43226401 0.33765437
v 0.28054145 0.43201209 0.34682189
v 0.18725082 0.43039304 0.34594500
v 0.18725082 0.43197305 0.33496894
v -0.37243633 -0.32487888 0.27515526
v -0.27877462 -0.32588079 0.27523729
v -0.18590975 -0.32391408 0.27607319
v -0.09263278 -0.31751395 0.27432328
v 0.37383795 -0.31992209 0.27420219
v 0.28054339 -0.32143762 0.27451272
v 0.18717270 -0.32177943 0.27452443
v 0.37383988 0.45074170 0.27390926
v 0.28054536 0.44778090 0.27390926
v 0.18725082 0.44185736 0.27390926
v 0.09395629 0.44237687 0.27390926
v -0.37251638 0.44336511 0.27390926
v -0.27922186 0.45282559 0.27390926
v -0.18592731 0.44683368 0.27390926
v -0.37249883 -0.32416992 0.26165979
v -0.27863401 -0.32617962 0.26086882
v -0.18560898 -0.32612687 0.26231407
v -0.09264059 -0.31807056 0.26211094
v 0.37387505 -0.31950994 0.26341168
v 0.28057270 -0.32370510 0.26328473
v 0.18697739 -0.32428316 0.26253475
v 0.37380867 0.44355453 0.26330623
v 0.28056294 0.44460136 0.26301527
v 0.18728794 0.43993751 0.26295274
v 0.09395434 0.44061912 0.26292149
v -0.37254178 0.44432207 0.26278673
v -0.27920820 0.44823596 0.26302894
v -0.18590779 0.44636886 0.26270275
v -0.37243633 -0.31459614 0.24619176
v -0.37241092 -0.31537543 0.25651941
v -0.27879611 -0.31410986 0.24610777
v -0.27864573 -0.31562345 0.25657605
v -0.18586091 -0.31446531 0.24772099
v -0.18583748 -0.31522695 0.25806231
v -0.09262888 -0.31187166 0.25531243
v -0.09266794 -0.31373288 0.24519180
v 0.37383988 -0.31810185 0.24531485
v 0.37383795 -0.31674642 0.25565812
v 0.28054339 -0.31684603 0.24543789
v 0.28054733 -0.31873266 0.25599014
v 0.18721176 -0.31541835 0.24517033
v 0.18711215 -0.31715656 0.25575382
v 0.37383988 0.44117574 0.24486177
v 0.37383988 0.44099410 0.25491013
v 0.28054339 0.44219915 0.24487349
v 0.28054536 0.44388262 0.25490428
v 0.18725277 0.44132221 0.24486373
v 0.18724888 0.44147650 0.25490428
v 0.09395824 0.44101168 0.24485982
v 0.09395629 0.44087303 0.25490624
v -0.37252029 0.44294517 0.24485593
v -0.37251638 0.44391586 0.25491013
v -0.27922186 0.44481817 0.24488131
v -0.27922381 0.44727897 0.25489842
v -0.18593318 0.44309752 0.24488131
v -0.18592731 0.44475956 0.25490820
v 0.00066175 -0.21403438 0.00978467
v -0.09263278 -0.21403438 0.00928469
v 0.00066175 -0.13521179 0.00632780
v -0.09263278 -0.13521179 0.00601336
v 0.00066175 -0.05638925 0.00295491
v -0.09263278 -0.05638925 0.00382011
v 0.00066175 0.33772540 0.00344319
v -0.09263278 0.33772540 0.00400371
v 0.00066175 0.25890288 0.00202919
v -0.09263278 0.25890288 0.00288462
v 0.00066175 0.18008034 0.00132414
v -0.09263278 0.18008034 0.00166201
v -0.09263278 0.33772539 0.35587035
v 0.00066175 0.33772539 0.35522970
v -0.09263278 0.25890287 0.35150726
v 0.00066175 0.25890287 0.35034518
v -0.09263278 0.18008032 0.35005812
v 0.00066175 0.18008032 0.34918115
v -0.09263278 -0.21403440 0.35092329
v 0.00066175 -0.21403440 0.34931985
v -0.09263278 -0.13521181 0.34829448
v 0.00066175 -0.13521181 0.34691760
v -0.09263278 -0.05638926 0.34791169
v 0.00066175 -0.05638926 0.34639222
v 0.48422350 -0.21403439 0.16738288
v 0.48539140 -0.21403438 0.09709511
v 0.48641283 -0.13521180 0.16738289
v 0.48610621 -0.13521180 0.09709511
v 0.48625466 -0.05638925 0.16738289
v 0.48675267 -0.05638925 0.09709511
v 0.48416099 0.33772540 0.09709513
v 0.48456331 0.33772540 0.16738291
v 0.48664330 0.25890288 0.16738291
v 0.48541681 0.25890288 0.09709513
v 0.48721556 0.18008033 0.16738290
v 0.48610037 0.18008033 0.09709512
v -0.48236094 0.33772540 0.16738291
v -0.48056610 0.33772540 0.09709513
v -0.48289802 0.25890288 0.16738291
v -0.48141177 0.25890288 0.09709513
v -0.48306990 0.18008033 0.16738290
v -0.48132390 0.18008033 0.09709512
v -0.48034345 -0.21403438 0.09709511
v -0.48115984 -0.21403439 0.16738288
v -0.48085710 -0.13521180 0.09709511
v -0.48192737 -0.13521180 0.16738289
v -0.48053682 -0.05638925 0.09709511
v -0.48197229 -0.05638925 0.16738289
v -0.46507661 -0.21403438 0.01039402
v -0.47291802 -0.21401479 0.01161271
v -0.47109781 -0.13524696 0.01440165
v -0.46488324 -0.13521179 0.01312632
v -0.46996307 -0.05642832 0.01543481
v -0.46487739 -0.05638925 0.01321030
v -0.47032634 0.33695008 0.01559302
v -0.46495353 0.33772540 0.01212052
v -0.47039667 0.25897515 0.01449346
v -0.46489497 0.25890288 0.01294861
v -0.47121888 0.18008033 0.01472782
v -0.46487932 0.18008033 0.01316148
v -0.47771273 -0.21403043 0.01508911
v -0.47539642 -0.13527039 0.01728042
v -0.47472068 -0.05648301 0.01837412
v -0.47530660 0.33749885 0.01772769
v -0.47571674 0.25891069 0.01691913
v -0.47582413 0.18013305 0.01780385
v 0.46701919 0.33772540 0.00167960
v 0.47743082 0.33772540 0.00569113
v 0.46688445 0.25890288 0.00357209
v 0.47677658 0.25890288 0.00753284
v 0.46693914 0.18008034 0.00280845
v 0.47693672 0.18008034 0.00708169
v 0.46703092 -0.21403438 0.00149208
v 0.47777849 -0.21403438 0.00471459
v 0.47742497 -0.13521179 0.00570869
v 0.46688445 -0.13521179 0.00356035
v 0.47726286 -0.05638925 0.00616570
v 0.46693914 -0.05638925 0.00280062
v 0.48310440 0.33772540 0.01083543
v 0.48150878 0.25890288 0.01243105
v 0.48094238 0.18008033 0.01299743
v 0.48555546 -0.21403438 0.00838434
v 0.48346768 -0.13521179 0.01047409
v 0.48249311 -0.05638925 0.01144671
v 0.45074653 -0.21009508 0.35551093
v 0.47101512 -0.20581015 0.35419849
v 0.45440847 -0.13480950 0.35168106
v 0.47272402 -0.13413961 0.35260288
v 0.46103900 -0.05638926 0.35343291
v 0.47451886 -0.05639124 0.35307940
v 0.46490213 0.33771174 0.35975297
v 0.47564381 0.33769998 0.35512622
v 0.46349202 0.25966259 0.35820421
v 0.47581177 0.25904543 0.35537036
v 0.46260142 0.18007445 0.35665158
v 0.47532352 0.18007836 0.35490360
v 0.48020414 -0.20459926 0.35157556
v 0.47948932 -0.13395015 0.35072602
v 0.47955965 -0.05638926 0.35089983
v 0.48045413 0.33770199 0.35188812
v 0.48041703 0.25893412 0.35156582
v 0.48055180 0.18008032 0.35197014
v -0.46601012 0.33772539 0.36808263
v -0.47839238 0.33772539 0.36609446
v -0.47770297 0.25890287 0.36415710
v -0.46571133 0.25890287 0.36388949
v -0.47735728 0.18008032 0.36317858
v -0.46564491 0.18008032 0.36294420
v -0.47683386 -0.21403440 0.36170796
v -0.46574452 -0.21403440 0.36436993
v -0.47617374 -0.13521181 0.35984667
v -0.46558631 -0.13521181 0.36213568
v -0.47680067 -0.05638926 0.36161618
v -0.46560196 -0.05638926 0.36235442
v -0.48934892 0.33772539 0.36208489
v -0.48592524 0.25890287 0.35866121
v -0.48563230 0.18008032 0.35837020
v -0.48420267 -0.21403440 0.35694055
v -0.48253866 -0.13521181 0.35527662
v -0.48416359 -0.05638926 0.35690152
v 0.48969198 -0.21403438 0.02710419
v 0.48890687 -0.21403438 0.01627656
v 0.48669605 -0.13521180 0.01705973
v 0.48852214 -0.13521180 0.02718817
v 0.48455161 -0.05638925 0.01782142
v 0.48542072 -0.05638925 0.02740691
v 0.48742062 0.33772540 0.02726633
v 0.48588356 0.33772540 0.01734880
v 0.48330556 0.25890288 0.01826477
v 0.48520783 0.25890288 0.02742255
v 0.48229587 0.18008033 0.01862412
v 0.48298918 0.18008033 0.02758074
v 0.48698117 0.33771367 0.33666617
v 0.48443442 0.33770395 0.34737075
v 0.48278605 0.25889115 0.34641957
v 0.48522541 0.25884818 0.33456662
v 0.48517657 0.18007641 0.33506272
v 0.48351454 0.18008032 0.34678679
v 0.49059625 -0.20930021 0.32655528
v 0.48618630 -0.20538243 0.34432007
v 0.48823892 -0.13471182 0.33019569
v 0.48470393 -0.13405170 0.34576334
v 0.48694601 -0.05638926 0.33447481
v 0.48402037 -0.05638926 0.34685510
v -0.48286092 0.33772540 0.02749677
v -0.47932008 0.33716686 0.02092090
v -0.48197423 0.25890288 0.02755926
v -0.47945482 0.25891264 0.02102050
v -0.47928298 0.18017408 0.02170797
v -0.48110907 0.18008033 0.02761980
v -0.48434717 -0.21403438 0.02738935
v -0.48201722 -0.21403237 0.01977837
v -0.47993722 -0.13534851 0.02150288
v -0.48161878 -0.13521180 0.02758464
v -0.47924584 -0.05653378 0.02195209
v -0.48170472 -0.05638925 0.02757878
v -0.48898759 -0.21403439 0.33829492
v -0.48696425 -0.21403440 0.34885891
v -0.48797201 -0.13521181 0.33822265
v -0.48759119 -0.13521181 0.34908160
v -0.48750134 -0.05638926 0.34905031
v -0.48809505 -0.05638926 0.33823048
v -0.49417291 0.33772539 0.33866410
v -0.49338583 0.33772539 0.35113811
v -0.48873566 0.25890287 0.34948780
v -0.49059103 0.25890287 0.33840822
v -0.48823765 0.18008032 0.34931205
v -0.48931767 0.18008032 0.33831840
v 0.49516831 -0.21440154 0.27271984
v 0.49749632 -0.13527625 0.27270617
v 0.49730687 -0.05657481 0.27277258
v 0.49251219 0.33766878 0.27344639
v 0.49519957 0.25890483 0.27357919
v 0.49695141 0.18008226 0.27350303
v -0.49848522 0.33742859 0.27708880
v -0.50069604 0.25875834 0.27536427
v -0.50123898 0.17997291 0.27487797
v -0.49531153 -0.21411053 0.27524316
v -0.49638374 -0.13536025 0.27580955
v -0.49762588 -0.05641660 0.27596383
v 0.49538508 -0.21444646 0.26129263
v 0.49596906 -0.13532900 0.26063250
v 0.49783810 -0.05670567 0.26053681
v 0.49288325 0.33770200 0.26127507
v 0.49609013 0.25901224 0.26069892
v 0.49842988 0.18021897 0.26061494
v -0.49366511 0.33720592 0.26469875
v -0.49355183 0.25858452 0.26293515
v -0.49292295 0.17975026 0.26213246
v -0.49074338 -0.21418086 0.26242542
v -0.49135859 -0.13541103 0.26250156
v -0.49138396 -0.05645959 0.26295076
v 0.49091460 -0.21440348 0.25408398
v 0.48357507 -0.21417498 0.24442622
v 0.49135990 -0.13530166 0.25376564
v 0.48546952 -0.13522354 0.24501018
v 0.49219187 -0.05667442 0.25409571
v 0.48281340 -0.05639902 0.24485004
v 0.48589921 0.33762579 0.25479687
v 0.48286223 0.33770784 0.24481295
v 0.48380163 0.25889896 0.24497309
v 0.48759444 0.25889311 0.25493747
v 0.48214351 0.18008032 0.24485005
v 0.48863151 0.18004710 0.25538081
v -0.48020286 0.33726645 0.25020333
v -0.48307184 0.33715120 0.26029270
v -0.48446634 0.25853960 0.25759165
v -0.48135515 0.25859039 0.24788116
v -0.48301715 0.17975026 0.25684169
v -0.47934351 0.17979127 0.24733822
v -0.48034736 -0.21414376 0.24693001
v -0.48232383 -0.21415546 0.25673815
v -0.48361675 -0.13538562 0.25670886
v -0.48099970 -0.13534267 0.24665074
v -0.47672841 -0.05642833 0.24808426
v -0.48180042 -0.05643418 0.25788849
v 0.37383988 -0.21403438 0.00360527
v 0.37383988 -0.13521179 0.00382010
v 0.37383988 -0.05638925 0.00280453
v 0.37383988 0.33772540 0.00228504
v 0.37383988 0.25890288 0.00088276
v 0.37383988 0.18008034 0.00104876
v 0.28054536 -0.21403438 0.00662661
v 0.28054536 -0.13521179 0.00672427
v 0.28054536 -0.05638925 0.00399002
v 0.28054536 0.33772540 0.00150968
v 0.28054536 0.25890288 0.00091791
v 0.28054536 0.18008034 0.00000000
v 0.18725082 -0.21403438 0.00859918
v 0.18725082 -0.13521179 0.00669888
v 0.18725082 -0.05638925 0.00368925
v 0.18725082 0.33772540 0.00215419
v 0.18725082 0.25890288 0.00173233
v 0.18725082 0.18008034 0.00028122
v 0.09395629 -0.21403438 0.01039597
v 0.09395629 -0.13521179 0.00648014
v 0.09395629 -0.05638925 0.00291585
v 0.09395629 0.33772540 0.00293735
v 0.09395629 0.25890288 0.00189833
v 0.09395629 0.18008034 0.00077338
v -0.37251638 0.33772540 0.01017727
v -0.37251638 0.25890288 0.00868904
v -0.37251638 0.18008034 0.00851521
v -0.37251638 -0.21403438 0.00988818
v -0.37251638 -0.13521179 0.00969874
v -0.37251638 -0.05638925 0.00942336
v -0.27922186 0.33772540 0.00786681
v -0.27922186 0.25890288 0.00618329
v -0.27922186 0.18008034 0.00598408
v -0.27922186 -0.21403438 0.00954054
v -0.27922186 -0.13521179 0.00739806
v -0.27922186 -0.05638925 0.00661881
v -0.18592731 0.33772540 0.00542943
v -0.18592731 0.25890288 0.00408378
v -0.18592731 0.18008034 0.00338264
v -0.18592731 -0.21403438 0.00947609
v -0.18592731 -0.13521179 0.00676137
v -0.18592731 -0.05638925 0.00441578
v 0.37383988 0.33772539 0.35708124
v 0.37383988 0.25890287 0.35416536
v 0.37383988 0.18008032 0.35298375
v 0.37383988 -0.21403440 0.35222984
v 0.37383988 -0.13521181 0.34971435
v 0.37383988 -0.05638926 0.34936277
v 0.28054536 0.33772539 0.35354625
v 0.28054536 0.25890287 0.34990964
v 0.28054536 0.18008032 0.34935302
v 0.28054536 -0.21403440 0.35006197
v 0.28054536 -0.13521181 0.34950149
v 0.28054536 -0.05638926 0.34797807
v 0.18725082 0.33772539 0.35432160
v 0.18725082 0.25890287 0.34825546
v 0.18725082 0.18008032 0.34758948
v 0.18725082 -0.21403440 0.34922807
v 0.18725082 -0.13521181 0.34669104
v 0.18725082 -0.05638926 0.34648400
v 0.09395629 0.33772539 0.35354819
v 0.09395629 0.25890287 0.34930810
v 0.09395629 0.18008032 0.34812850
v 0.09395629 -0.21403440 0.34941551
v 0.09395629 -0.13521181 0.34694882
v 0.09395629 -0.05638926 0.34612080
v -0.37251638 -0.21403440 0.35775300
v -0.37251638 -0.13521181 0.35725503
v -0.37251638 -0.05638926 0.35754604
v -0.37251638 0.33772539 0.36259851
v -0.37251638 0.25890287 0.35835262
v -0.37251638 0.18008032 0.35753428
v -0.27922186 -0.21403440 0.35521411
v -0.27922186 -0.13521181 0.35397193
v -0.27922186 -0.05638926 0.35397000
v -0.27922186 0.33772539 0.35905183
v -0.27922186 0.25890287 0.35625508
v -0.27922186 0.18008032 0.35395638
v -0.18592731 -0.21403440 0.35305205
v -0.18592731 -0.13521181 0.35102872
v -0.18592731 -0.05638926 0.35045453
v -0.18592731 0.33772539 0.35675119
v -0.18592731 0.25890287 0.35291342
v -0.18592731 0.18008032 0.35161857
f 1 2 3
f 2 1 4
f 4 5 2
f 5 4 6
f 7 8 9
f 8 7 10
f 10 11 8
f 11 10 12
f 11 12 13
f 12 14 13
f 15 16 17
f 16 15 18
f 6 19 5
f 19 6 20
f 21 19 20
f 19 21 22
f 23 24 25
f 25 24 26
f 14 17 13
f 17 14 15
f 3 9 1
f 9 3 7
f 22 21 23
f 23 25 22
f 27 26 24
f 26 27 28
f 29 16 30
f 16 18 30
f 31 32 3
f 31 3 2
f 1 9 33
f 9 34 33
f 35 2 5
f 2 35 31
f 36 37 4
f 6 4 37
f 38 7 39
f 7 38 10
f 9 8 34
f 8 40 34
f 41 10 38
f 10 41 12
f 42 40 11
f 8 11 40
f 43 12 41
f 12 43 14
f 44 13 17
f 13 44 45
f 46 18 47
f 18 15 47
f 48 17 16
f 17 48 44
f 49 5 19
f 5 49 35
f 20 6 37
f 20 37 50
f 51 22 25
f 22 51 52
f 20 50 21
f 21 50 53
f 51 26 54
f 26 51 25
f 55 56 24
f 24 23 55
f 47 14 43
f 14 47 15
f 45 42 13
f 11 13 42
f 39 3 32
f 3 39 7
f 4 1 36
f 1 33 36
f 52 19 22
f 19 52 49
f 55 23 53
f 23 21 53
f 54 28 57
f 28 54 26
f 27 56 58
f 56 27 24
f 57 28 27
f 57 27 58
f 30 46 59
f 46 30 18
f 48 29 60
f 29 48 16
f 60 29 59
f 59 29 30
f 61 31 62
f 31 61 32
f 33 34 63
f 33 63 64
f 62 35 65
f 35 62 31
f 66 67 36
f 37 36 67
f 68 38 69
f 69 38 39
f 34 40 70
f 34 70 63
f 68 41 38
f 41 68 71
f 40 42 72
f 40 72 70
f 43 71 73
f 71 43 41
f 44 74 45
f 74 44 75
f 76 47 77
f 47 76 46
f 78 75 48
f 48 75 44
f 65 49 79
f 49 65 35
f 67 80 37
f 50 37 80
f 81 51 82
f 51 81 52
f 53 50 83
f 50 80 83
f 84 51 54
f 51 84 82
f 56 85 86
f 56 55 85
f 77 47 73
f 73 47 43
f 42 45 74
f 42 74 72
f 69 39 61
f 61 39 32
f 36 33 66
f 33 64 66
f 79 52 81
f 52 79 49
f 55 83 85
f 83 55 53
f 87 84 57
f 57 84 54
f 58 86 88
f 86 58 56
f 89 90 91
f 91 90 92
f 59 76 93
f 76 59 46
f 94 78 60
f 60 78 48
f 95 96 97
f 96 95 98
f 98 94 96
f 96 94 60
f 96 59 97
f 59 96 60
f 97 93 95
f 93 97 59
f 90 87 92
f 92 87 57
f 92 57 91
f 91 57 58
f 91 88 89
f 88 91 58
f 99 100 101
f 100 99 102
f 103 104 101
f 101 104 99
f 104 105 106
f 105 104 103
f 106 105 107
f 105 108 107
f 109 107 108
f 107 109 110
f 100 110 109
f 110 100 102
f 102 99 111
f 99 104 111
f 104 106 111
f 106 107 111
f 107 110 111
f 110 102 111
f 112 113 114
f 114 115 112
f 116 117 118
f 117 116 119
f 120 121 122
f 121 120 123
f 115 121 118
f 121 115 122
f 115 114 120
f 115 120 122
f 116 120 114
f 120 116 123
f 123 118 121
f 118 123 116
f 124 113 125
f 113 124 114
f 126 125 113
f 126 113 112
f 117 127 118
f 127 117 128
f 119 128 117
f 128 119 129
f 130 129 119
f 130 119 116
f 115 118 127
f 115 127 131
f 124 130 116
f 124 116 114
f 131 112 115
f 112 131 126
f 132 133 134
f 133 132 135
f 133 135 136
f 136 137 133
f 137 138 133
f 138 137 139
f 133 138 134
f 134 138 140
f 141 138 139
f 138 141 142
f 138 143 140
f 143 138 142
f 144 132 145
f 132 144 135
f 137 146 147
f 148 145 132
f 132 134 148
f 144 149 136
f 144 136 135
f 150 151 134
f 134 140 150
f 152 137 147
f 137 152 139
f 153 150 140
f 140 143 153
f 154 139 152
f 139 154 141
f 141 155 142
f 155 141 154
f 143 142 155
f 143 155 153
f 146 136 149
f 136 146 137
f 134 151 148
f 145 156 157
f 149 158 146
f 158 149 159
f 160 145 161
f 145 160 144
f 160 162 149
f 160 149 144
f 145 157 161
f 163 149 162
f 145 148 164
f 145 164 156
f 149 163 159
f 164 148 165
f 164 165 166
f 167 164 166
f 164 167 156
f 158 168 146
f 168 158 169
f 170 159 163
f 170 171 159
f 157 172 161
f 172 157 173
f 174 161 172
f 161 174 160
f 174 175 162
f 174 162 160
f 175 170 163
f 163 162 175
f 167 173 157
f 167 157 156
f 169 159 171
f 159 169 158
f 148 151 165
f 176 165 151
f 151 150 176
f 177 147 168
f 147 177 152
f 176 150 178
f 150 153 178
f 179 152 177
f 152 179 154
f 179 155 154
f 155 179 180
f 155 180 153
f 153 180 178
f 147 146 168
f 181 182 183
f 183 182 184
f 185 186 187
f 187 186 188
f 189 190 191
f 190 189 192
f 193 194 195
f 194 196 195
f 197 198 199
f 198 197 200
f 201 202 203
f 202 204 203
f 205 206 207
f 206 205 208
f 209 208 205
f 208 209 210
f 211 207 212
f 205 207 211
f 211 213 205
f 209 205 213
f 214 215 216
f 216 215 217
f 217 215 218
f 217 218 219
f 220 221 214
f 214 221 215
f 221 222 215
f 218 215 222
f 223 224 225
f 224 226 225
f 227 225 228
f 225 227 223
f 229 230 226
f 225 226 230
f 228 225 231
f 225 230 231
f 232 233 234
f 234 235 232
f 236 232 237
f 232 236 233
f 232 235 238
f 235 239 238
f 237 232 240
f 232 238 240
f 241 242 243
f 243 242 244
f 244 242 245
f 244 245 246
f 247 248 241
f 241 248 242
f 248 249 242
f 242 249 245
f 250 251 252
f 251 253 252
f 254 250 255
f 250 252 255
f 256 257 253
f 252 253 257
f 255 252 258
f 252 257 258
f 259 260 261
f 259 261 262
f 263 264 260
f 263 260 259
f 259 262 265
f 262 266 265
f 267 263 259
f 259 265 267
f 268 269 270
f 269 268 271
f 272 271 268
f 271 272 273
f 268 274 275
f 274 268 270
f 276 272 268
f 268 275 276
f 277 278 279
f 279 278 280
f 280 278 211
f 280 211 212
f 281 282 277
f 277 282 278
f 282 213 278
f 278 213 211
f 283 284 285
f 284 286 285
f 287 288 283
f 283 285 287
f 236 237 286
f 285 286 237
f 287 285 240
f 285 237 240
f 289 290 291
f 291 292 289
f 257 256 290
f 257 290 289
f 293 289 292
f 292 294 293
f 258 257 289
f 289 293 258
f 295 296 297
f 296 295 298
f 299 298 295
f 298 299 300
f 245 297 246
f 297 245 295
f 249 295 245
f 295 249 299
f 301 302 303
f 303 302 304
f 304 302 238
f 304 238 239
f 288 302 301
f 302 288 287
f 238 302 240
f 302 287 240
f 305 306 307
f 306 308 307
f 309 310 305
f 305 307 309
f 227 228 308
f 307 308 228
f 309 307 231
f 307 228 231
f 311 312 313
f 311 313 314
f 265 266 312
f 265 312 311
f 311 314 315
f 314 316 315
f 267 265 311
f 311 315 267
f 317 318 319
f 318 317 320
f 293 320 317
f 320 293 294
f 255 319 254
f 319 255 317
f 258 317 255
f 317 258 293
f 321 322 323
f 323 322 324
f 324 322 230
f 324 230 229
f 310 309 321
f 321 309 322
f 309 231 322
f 230 322 231
f 325 326 327
f 326 328 327
f 329 330 325
f 325 327 329
f 219 218 328
f 327 328 218
f 222 327 218
f 327 222 329
f 331 332 333
f 331 333 334
f 275 274 332
f 275 332 331
f 331 334 335
f 334 336 335
f 276 275 331
f 331 335 276
f 337 338 339
f 338 337 340
f 315 340 337
f 340 315 316
f 263 339 264
f 339 263 337
f 267 337 263
f 337 267 315
f 341 342 343
f 343 342 344
f 221 220 344
f 344 342 221
f 330 329 341
f 342 341 329
f 222 342 329
f 342 222 221
f 345 346 347
f 346 348 347
f 282 281 345
f 345 347 282
f 210 209 348
f 347 348 209
f 282 209 213
f 209 282 347
f 349 350 351
f 349 351 352
f 248 247 350
f 248 350 349
f 349 352 299
f 352 300 299
f 249 248 349
f 349 299 249
f 353 354 355
f 354 353 356
f 335 356 353
f 356 335 336
f 272 355 273
f 355 272 353
f 276 353 272
f 353 276 335
f 357 358 359
f 358 357 360
f 361 360 357
f 360 361 362
f 363 364 365
f 364 363 366
f 367 366 363
f 366 367 368
f 369 370 371
f 370 369 372
f 373 370 374
f 370 373 371
f 375 376 377
f 376 375 378
f 379 375 377
f 375 379 380
f 381 382 383
f 384 383 382
f 385 386 381
f 382 381 386
f 387 388 389
f 388 387 390
f 389 391 392
f 391 389 388
f 393 394 395
f 394 393 396
f 397 398 393
f 396 393 398
f 399 400 401
f 401 400 402
f 403 404 399
f 399 404 400
f 405 406 407
f 408 407 406
f 379 406 405
f 406 379 409
f 291 410 292
f 410 411 292
f 292 411 294
f 294 411 412
f 413 414 415
f 414 413 416
f 385 416 413
f 416 385 417
f 418 419 420
f 419 418 421
f 422 421 418
f 421 422 423
f 424 425 426
f 427 426 425
f 373 374 424
f 425 424 374
f 313 428 314
f 314 428 429
f 314 429 316
f 429 430 316
f 431 432 433
f 432 431 434
f 391 433 392
f 433 391 431
f 435 436 437
f 436 435 438
f 439 438 435
f 438 439 440
f 441 442 443
f 444 443 442
f 367 445 441
f 442 441 445
f 333 446 334
f 334 446 447
f 334 447 336
f 447 448 336
f 449 450 451
f 450 449 452
f 397 452 449
f 452 397 453
f 454 455 456
f 455 454 457
f 458 457 454
f 457 458 459
f 460 461 462
f 463 462 461
f 362 461 460
f 461 362 361
f 351 464 352
f 352 464 465
f 352 465 300
f 465 466 300
f 467 468 469
f 468 467 470
f 404 470 467
f 470 404 403
f 471 472 473
f 472 471 474
f 475 474 471
f 474 475 476
f 477 478 479
f 478 477 415
f 432 434 480
f 434 481 480
f 482 451 483
f 451 484 483
f 469 485 486
f 485 469 468
f 411 410 487
f 411 487 488
f 411 488 412
f 412 488 489
f 298 490 296
f 490 298 491
f 300 491 298
f 491 300 466
f 429 428 492
f 429 492 493
f 429 494 430
f 494 429 493
f 320 495 318
f 495 320 496
f 294 496 320
f 496 294 412
f 447 446 497
f 447 497 498
f 447 499 448
f 499 447 498
f 340 500 338
f 500 340 501
f 316 501 340
f 501 316 430
f 464 502 465
f 502 464 503
f 465 504 466
f 504 465 502
f 356 505 354
f 505 356 506
f 336 506 356
f 506 336 448
f 507 508 478
f 479 478 508
f 509 510 481
f 480 481 510
f 511 483 484
f 483 511 512
f 513 486 485
f 486 513 514
f 491 515 490
f 490 515 516
f 466 504 491
f 491 504 515
f 517 495 496
f 495 517 518
f 412 517 496
f 517 412 489
f 501 519 500
f 519 501 520
f 430 520 501
f 520 430 494
f 506 521 505
f 521 506 522
f 448 522 506
f 522 448 499
f 488 487 523
f 488 523 524
f 488 525 489
f 525 488 524
f 492 526 493
f 526 492 527
f 493 528 494
f 528 493 526
f 497 529 498
f 529 497 530
f 498 531 499
f 531 498 529
f 532 503 533
f 503 532 502
f 534 504 532
f 532 504 502
f 535 536 537
f 538 537 536
f 539 540 541
f 540 539 542
f 543 544 545
f 544 543 546
f 547 548 549
f 548 547 550
f 551 552 553
f 553 552 554
f 555 551 534
f 551 555 552
f 556 557 558
f 557 556 559
f 525 559 556
f 559 525 560
f 561 562 563
f 562 561 564
f 565 563 528
f 563 565 561
f 566 567 568
f 567 566 569
f 570 568 531
f 568 570 566
f 571 572 573
f 573 572 574
f 573 574 439
f 439 574 440
f 575 576 577
f 577 576 578
f 577 578 458
f 578 459 458
f 579 580 581
f 581 580 582
f 581 582 475
f 475 582 476
f 583 584 585
f 585 584 586
f 585 586 422
f 586 423 422
f 524 523 587
f 524 587 588
f 525 524 588
f 525 588 560
f 527 589 526
f 589 527 590
f 526 565 528
f 565 526 589
f 530 591 529
f 591 530 592
f 529 570 531
f 570 529 591
f 533 593 532
f 593 533 594
f 532 593 534
f 593 555 534
f 537 538 507
f 508 507 538
f 541 540 509
f 509 540 510
f 545 512 511
f 512 545 544
f 514 549 548
f 549 514 513
f 515 553 516
f 553 515 551
f 551 504 534
f 504 551 515
f 517 558 518
f 558 517 556
f 489 525 517
f 517 525 556
f 520 563 519
f 519 563 562
f 494 528 520
f 520 528 563
f 521 522 568
f 521 568 567
f 499 531 522
f 522 531 568
f 595 372 369
f 372 595 596
f 597 595 598
f 595 597 596
f 599 597 598
f 597 599 600
f 601 600 599
f 600 601 602
f 183 184 601
f 601 184 602
f 359 603 604
f 603 359 358
f 605 604 603
f 605 603 606
f 605 607 608
f 607 605 606
f 608 182 181
f 182 608 607
f 609 610 387
f 387 610 390
f 611 612 609
f 609 612 610
f 613 612 611
f 612 613 614
f 615 614 613
f 614 615 616
f 187 188 615
f 615 188 616
f 617 401 402
f 617 402 618
f 619 617 618
f 619 618 620
f 621 619 620
f 621 620 622
f 621 186 185
f 186 621 622
f 623 624 571
f 571 624 572
f 625 624 623
f 624 625 626
f 627 626 625
f 626 627 628
f 629 628 627
f 628 629 630
f 191 630 629
f 630 191 190
f 420 631 632
f 631 420 419
f 632 633 634
f 633 632 631
f 634 635 636
f 635 634 633
f 636 192 189
f 192 636 635
f 637 638 579
f 579 638 580
f 639 640 637
f 637 640 638
f 641 642 639
f 639 642 640
f 643 644 641
f 641 644 642
f 200 643 198
f 643 200 644
f 456 645 646
f 645 456 455
f 646 647 648
f 647 646 645
f 649 648 647
f 649 647 650
f 199 649 650
f 199 650 197
f 217 651 216
f 651 217 652
f 652 653 651
f 653 652 654
f 654 655 653
f 655 654 656
f 656 657 655
f 657 656 658
f 658 365 657
f 365 658 363
f 224 659 226
f 226 659 660
f 659 661 660
f 661 659 662
f 662 663 661
f 663 662 664
f 664 366 663
f 366 664 364
f 219 665 217
f 652 217 665
f 665 654 652
f 654 665 666
f 666 656 654
f 656 666 667
f 667 658 656
f 658 667 445
f 445 363 658
f 363 445 367
f 660 229 226
f 229 660 668
f 660 669 668
f 669 660 661
f 661 670 669
f 670 661 663
f 663 368 670
f 368 663 366
f 671 233 672
f 233 671 234
f 673 671 672
f 671 673 674
f 675 674 673
f 674 675 676
f 677 676 675
f 676 677 678
f 377 678 677
f 678 377 376
f 206 679 207
f 680 207 679
f 679 681 680
f 682 680 681
f 681 683 682
f 684 682 683
f 683 378 684
f 375 684 378
f 236 672 233
f 672 236 685
f 685 673 672
f 673 685 686
f 686 675 673
f 675 686 687
f 687 677 675
f 677 687 409
f 409 377 677
f 377 409 379
f 207 688 212
f 688 207 680
f 680 682 688
f 689 688 682
f 682 690 689
f 690 682 684
f 684 380 690
f 380 684 375
f 244 691 243
f 691 244 692
f 692 693 691
f 694 691 693
f 693 695 694
f 696 694 695
f 695 697 696
f 698 696 697
f 697 381 698
f 383 698 381
f 699 253 251
f 253 699 700
f 701 700 699
f 700 701 702
f 703 702 701
f 702 703 704
f 384 704 703
f 704 384 382
f 246 692 244
f 692 246 705
f 705 706 692
f 693 692 706
f 706 707 693
f 695 693 707
f 707 417 695
f 697 695 417
f 417 385 697
f 381 697 385
f 253 708 256
f 708 253 700
f 702 708 700
f 708 702 709
f 704 709 702
f 709 704 710
f 382 710 704
f 710 382 386
f 711 260 712
f 260 711 261
f 712 713 711
f 713 712 714
f 715 713 714
f 713 715 716
f 715 717 716
f 717 715 718
f 393 717 718
f 717 393 395
f 269 719 270
f 720 270 719
f 719 721 720
f 722 720 721
f 721 723 722
f 723 721 724
f 724 396 723
f 396 724 394
f 264 712 260
f 712 264 725
f 725 714 712
f 714 725 726
f 726 715 714
f 715 726 727
f 727 718 715
f 718 727 453
f 453 393 718
f 393 453 397
f 720 274 270
f 274 720 728
f 720 729 728
f 729 720 722
f 723 729 722
f 729 723 730
f 396 730 723
f 730 396 398
f 280 731 279
f 731 280 732
f 732 733 731
f 734 731 733
f 733 735 734
f 735 733 736
f 736 737 735
f 737 736 738
f 738 407 737
f 407 738 405
f 739 286 284
f 286 739 740
f 739 741 740
f 741 739 742
f 742 743 741
f 743 742 744
f 744 406 743
f 406 744 408
f 212 688 280
f 732 280 688
f 688 689 732
f 733 732 689
f 689 736 733
f 736 689 690
f 690 738 736
f 738 690 380
f 380 405 738
f 405 380 379
f 740 236 286
f 236 740 685
f 740 686 685
f 686 740 741
f 741 687 686
f 687 741 743
f 743 409 687
f 409 743 406
f 290 745 291
f 745 290 746
f 746 747 745
f 747 746 748
f 748 749 747
f 749 748 750
f 750 477 749
f 477 750 751
f 751 415 477
f 415 751 413
f 296 752 297
f 753 297 752
f 752 754 753
f 754 752 755
f 755 756 754
f 756 755 757
f 757 414 756
f 416 756 414
f 746 256 708
f 256 746 290
f 708 748 746
f 748 708 709
f 709 750 748
f 750 709 710
f 710 751 750
f 751 710 386
f 386 413 751
f 413 386 385
f 297 705 246
f 705 297 753
f 753 706 705
f 706 753 754
f 754 707 706
f 707 754 756
f 756 416 707
f 417 707 416
f 324 758 323
f 758 324 759
f 759 760 758
f 761 758 760
f 760 762 761
f 763 761 762
f 762 764 763
f 765 763 764
f 764 441 765
f 443 765 441
f 766 328 326
f 328 766 767
f 768 767 766
f 767 768 769
f 770 769 768
f 769 770 771
f 444 771 770
f 771 444 442
f 229 759 324
f 759 229 668
f 668 669 759
f 760 759 669
f 669 670 760
f 762 760 670
f 670 368 762
f 764 762 368
f 368 367 764
f 441 764 367
f 767 219 328
f 219 767 665
f 769 665 767
f 665 769 666
f 771 666 769
f 666 771 667
f 442 667 771
f 667 442 445
f 332 772 333
f 772 332 773
f 773 774 772
f 774 773 775
f 776 774 775
f 774 776 777
f 778 777 776
f 777 778 482
f 449 482 778
f 482 449 451
f 338 779 339
f 780 339 779
f 779 781 780
f 782 780 781
f 781 783 782
f 783 781 784
f 784 450 783
f 452 783 450
f 728 332 274
f 332 728 773
f 728 775 773
f 775 728 729
f 730 775 729
f 775 730 776
f 398 776 730
f 776 398 778
f 397 778 398
f 778 397 449
f 339 780 264
f 725 264 780
f 780 726 725
f 726 780 782
f 782 727 726
f 727 782 783
f 783 453 727
f 453 783 452
f 752 296 785
f 296 490 785
f 755 785 786
f 785 755 752
f 757 755 787
f 755 786 787
f 414 787 788
f 787 414 757
f 415 788 478
f 788 415 414
f 789 291 745
f 291 789 410
f 745 790 789
f 790 745 747
f 747 791 790
f 791 747 749
f 749 479 791
f 479 749 477
f 779 338 792
f 338 500 792
f 781 779 793
f 779 792 793
f 784 793 794
f 793 784 781
f 450 784 795
f 784 794 795
f 451 795 484
f 795 451 450
f 333 796 446
f 796 333 772
f 772 797 796
f 797 772 774
f 777 797 774
f 797 777 798
f 482 798 777
f 798 482 483
f 516 799 490
f 785 490 799
f 799 786 785
f 786 799 800
f 800 787 786
f 787 800 801
f 801 788 787
f 788 801 802
f 802 507 788
f 478 788 507
f 410 803 487
f 803 410 789
f 789 804 803
f 804 789 790
f 791 804 790
f 804 791 805
f 479 805 791
f 805 479 508
f 519 806 500
f 792 500 806
f 806 793 792
f 793 806 807
f 807 808 793
f 794 793 808
f 808 809 794
f 795 794 809
f 809 484 795
f 484 809 511
f 446 810 497
f 810 446 796
f 796 811 810
f 811 796 797
f 798 811 797
f 811 798 812
f 483 812 798
f 812 483 512
f 554 813 553
f 814 553 813
f 813 815 814
f 816 814 815
f 815 817 816
f 818 816 817
f 817 819 818
f 819 817 820
f 820 535 819
f 537 819 535
f 523 821 587
f 821 523 822
f 822 823 821
f 823 822 824
f 824 825 823
f 825 824 826
f 538 825 826
f 825 538 536
f 564 827 562
f 828 562 827
f 827 829 828
f 830 828 829
f 829 831 830
f 832 830 831
f 831 833 832
f 834 832 833
f 833 543 834
f 545 834 543
f 530 835 592
f 835 530 836
f 836 837 835
f 837 836 838
f 838 839 837
f 839 838 840
f 840 546 839
f 546 840 544
f 553 799 516
f 799 553 814
f 814 816 799
f 800 799 816
f 816 818 800
f 801 800 818
f 818 802 801
f 802 818 819
f 819 537 802
f 507 802 537
f 487 822 523
f 822 487 803
f 804 822 803
f 822 804 824
f 804 826 824
f 826 804 805
f 805 538 826
f 538 805 508
f 562 806 519
f 806 562 828
f 828 807 806
f 807 828 830
f 830 808 807
f 808 830 832
f 832 809 808
f 809 832 834
f 834 545 809
f 511 809 545
f 810 530 497
f 530 810 836
f 810 838 836
f 838 810 811
f 811 840 838
f 840 811 812
f 812 544 840
f 544 812 512
f 820 189 535
f 535 189 191
f 190 192 737
f 190 737 407
f 542 539 193
f 539 194 193
f 196 427 195
f 427 196 426
f 833 199 543
f 543 199 198
f 200 197 765
f 200 765 443
f 550 202 201
f 202 550 547
f 203 462 463
f 462 203 204
f 552 418 554
f 554 418 420
f 421 277 419
f 277 279 419
f 555 418 552
f 418 555 422
f 423 281 421
f 281 277 421
f 559 437 557
f 437 559 435
f 438 301 436
f 436 301 303
f 439 559 560
f 559 439 435
f 440 301 438
f 301 440 288
f 561 456 564
f 456 561 454
f 457 321 455
f 455 321 323
f 565 454 561
f 454 565 458
f 459 310 457
f 310 321 457
f 566 473 569
f 473 566 471
f 474 341 472
f 341 343 472
f 570 471 566
f 471 570 475
f 476 330 474
f 330 341 474
f 572 283 574
f 283 572 284
f 587 571 588
f 588 571 573
f 574 283 440
f 440 283 288
f 588 439 560
f 439 588 573
f 576 305 578
f 305 576 306
f 590 575 589
f 589 575 577
f 578 310 459
f 310 578 305
f 589 577 565
f 565 577 458
f 580 325 582
f 325 580 326
f 579 591 592
f 591 579 581
f 582 330 476
f 330 582 325
f 591 475 570
f 475 591 581
f 584 345 586
f 345 584 346
f 594 585 593
f 585 594 583
f 586 281 423
f 281 586 345
f 593 422 555
f 422 593 585
f 821 623 587
f 587 623 571
f 624 284 572
f 284 624 739
f 823 625 821
f 821 625 623
f 624 626 742
f 624 742 739
f 825 625 823
f 625 825 627
f 626 628 744
f 626 744 742
f 536 627 825
f 627 536 629
f 628 630 408
f 628 408 744
f 535 191 536
f 536 191 629
f 190 408 630
f 408 190 407
f 631 419 279
f 631 279 731
f 420 813 554
f 813 420 632
f 631 734 633
f 734 631 731
f 813 634 815
f 634 813 632
f 635 633 734
f 635 734 735
f 815 636 817
f 636 815 634
f 635 737 192
f 737 635 735
f 817 636 820
f 820 636 189
f 835 579 592
f 579 835 637
f 638 326 580
f 326 638 766
f 837 639 835
f 835 639 637
f 638 640 768
f 638 768 766
f 839 639 837
f 639 839 641
f 642 768 640
f 768 642 770
f 546 641 839
f 641 546 643
f 642 644 444
f 642 444 770
f 543 643 546
f 643 543 198
f 200 444 644
f 444 200 443
f 645 455 323
f 645 323 758
f 564 646 827
f 646 564 456
f 647 645 758
f 647 758 761
f 827 648 829
f 648 827 646
f 647 763 650
f 763 647 761
f 829 648 831
f 831 648 649
f 650 765 197
f 765 650 763
f 831 649 833
f 833 649 199
f 378 841 376
f 841 378 842
f 842 843 841
f 843 842 844
f 844 845 843
f 845 844 846
f 846 181 845
f 845 181 183
f 847 848 657
f 847 657 365
f 849 850 848
f 849 848 847
f 851 852 850
f 851 850 849
f 184 182 852
f 184 852 851
f 394 853 395
f 395 853 854
f 853 855 854
f 854 855 856
f 857 856 855
f 856 857 858
f 857 185 858
f 858 185 187
f 859 383 860
f 383 859 698
f 861 860 862
f 860 861 859
f 863 862 864
f 862 863 861
f 188 186 863
f 188 863 864
f 865 437 866
f 437 436 866
f 867 866 868
f 866 867 865
f 869 868 870
f 868 869 867
f 194 869 196
f 869 870 196
f 575 871 576
f 871 575 872
f 873 871 872
f 871 873 874
f 875 874 873
f 874 875 876
f 193 876 875
f 876 193 195
f 877 472 878
f 472 877 473
f 879 877 880
f 877 878 880
f 881 879 882
f 879 880 882
f 202 881 204
f 881 882 204
f 583 883 584
f 883 583 884
f 884 885 883
f 885 884 886
f 886 887 885
f 887 886 888
f 201 887 888
f 887 201 203
f 208 889 206
f 889 208 890
f 891 889 890
f 889 891 892
f 891 893 892
f 892 893 894
f 893 359 894
f 359 893 357
f 895 214 896
f 214 216 896
f 897 895 898
f 898 895 896
f 899 898 900
f 898 899 897
f 360 900 358
f 900 360 899
f 210 890 208
f 890 210 901
f 901 902 890
f 890 902 891
f 902 903 891
f 891 903 893
f 903 357 893
f 357 903 361
f 904 220 895
f 895 220 214
f 905 895 897
f 895 905 904
f 906 905 899
f 899 905 897
f 362 899 360
f 899 362 906
f 907 223 908
f 223 907 224
f 909 907 910
f 910 907 908
f 911 910 912
f 910 911 909
f 372 912 370
f 912 372 911
f 234 913 235
f 235 913 914
f 913 915 914
f 915 913 916
f 916 917 915
f 917 916 918
f 918 371 917
f 371 918 369
f 227 908 223
f 908 227 919
f 910 908 920
f 908 919 920
f 920 912 910
f 912 920 921
f 374 912 921
f 912 374 370
f 235 914 239
f 239 914 922
f 914 923 922
f 923 914 915
f 915 924 923
f 924 915 917
f 917 371 924
f 373 924 371
f 925 250 926
f 250 925 251
f 927 926 928
f 926 927 925
f 929 928 930
f 928 929 927
f 390 930 388
f 930 390 929
f 261 931 262
f 262 931 932
f 933 932 931
f 932 933 934
f 933 935 934
f 934 935 936
f 935 389 936
f 389 935 387
f 926 254 937
f 254 926 250
f 928 937 938
f 937 928 926
f 930 938 939
f 938 930 928
f 388 939 391
f 939 388 930
f 262 932 266
f 266 932 940
f 934 940 932
f 940 934 941
f 934 936 941
f 941 936 942
f 936 392 942
f 392 936 389
f 271 943 269
f 943 271 944
f 944 945 943
f 943 945 946
f 945 947 946
f 946 947 948
f 399 948 947
f 948 399 401
f 949 241 950
f 241 243 950
f 951 950 952
f 950 951 949
f 953 951 954
f 954 951 952
f 400 953 402
f 402 953 954
f 273 944 271
f 944 273 955
f 955 956 944
f 944 956 945
f 956 957 945
f 945 957 947
f 957 403 947
f 947 403 399
f 958 247 949
f 949 247 241
f 959 949 951
f 949 959 958
f 960 959 953
f 953 959 951
f 404 960 400
f 400 960 953
f 304 961 303
f 961 304 962
f 962 963 961
f 964 961 963
f 963 965 964
f 966 964 965
f 965 424 966
f 426 966 424
f 967 308 306
f 308 967 968
f 967 969 968
f 969 967 970
f 970 971 969
f 971 970 972
f 427 971 972
f 971 427 425
f 239 962 304
f 962 239 922
f 922 923 962
f 963 962 923
f 923 924 963
f 965 963 924
f 924 373 965
f 424 965 373
f 968 227 308
f 227 968 919
f 968 920 919
f 920 968 969
f 969 921 920
f 921 969 971
f 425 921 971
f 921 425 374
f 312 973 313
f 973 312 974
f 975 973 974
f 973 975 976
f 975 977 976
f 977 975 978
f 978 432 977
f 432 978 433
f 318 979 319
f 980 319 979
f 979 981 980
f 982 980 981
f 981 983 982
f 984 982 983
f 983 431 984
f 431 983 434
f 940 312 266
f 312 940 974
f 941 974 940
f 974 941 975
f 941 978 975
f 978 941 942
f 942 433 978
f 433 942 392
f 319 980 254
f 937 254 980
f 980 982 937
f 938 937 982
f 939 938 984
f 984 938 982
f 984 431 939
f 391 939 431
f 344 985 343
f 985 344 986
f 986 987 985
f 987 986 988
f 988 989 987
f 990 987 989
f 989 460 990
f 462 990 460
f 991 348 346
f 348 991 992
f 991 993 992
f 993 991 994
f 994 995 993
f 995 994 996
f 996 461 995
f 461 996 463
f 986 220 904
f 220 986 344
f 988 986 905
f 905 986 904
f 905 906 988
f 989 988 906
f 906 460 989
f 460 906 362
f 348 901 210
f 901 348 992
f 992 902 901
f 902 992 993
f 993 995 902
f 902 995 903
f 995 361 903
f 361 995 461
f 350 997 351
f 997 350 998
f 998 999 997
f 999 998 1000
f 1001 999 1000
f 999 1001 1002
f 467 1002 1001
f 1002 467 469
f 354 1003 355
f 1004 355 1003
f 1003 1005 1004
f 1005 1003 1006
f 1006 1007 1005
f 1007 1006 1008
f 1008 470 1007
f 470 1008 468
f 247 998 350
f 998 247 958
f 959 998 958
f 998 959 1000
f 959 1001 1000
f 1001 959 960
f 960 467 1001
f 467 960 404
f 355 1004 273
f 955 273 1004
f 1004 956 955
f 956 1004 1005
f 1005 957 956
f 957 1005 1007
f 1007 403 957
f 403 1007 470
f 979 318 1009
f 318 495 1009
f 981 979 1010
f 979 1009 1010
f 983 981 1011
f 981 1010 1011
f 434 983 481
f 983 1011 481
f 1012 313 973
f 313 1012 428
f 976 1012 973
f 1012 976 1013
f 976 1014 1013
f 1014 976 977
f 977 480 1014
f 480 977 432
f 1003 354 1015
f 354 505 1015
f 1006 1015 1016
f 1015 1006 1003
f 1008 1016 1017
f 1016 1008 1006
f 468 1017 485
f 1017 468 1008
f 351 1018 464
f 1018 351 997
f 997 1019 1018
f 1019 997 999
f 999 1020 1019
f 1020 999 1002
f 469 1020 1002
f 1020 469 486
f 518 1009 495
f 1009 518 1021
f 1021 1010 1009
f 1010 1021 1022
f 1022 1023 1010
f 1011 1010 1023
f 1023 509 1011
f 481 1011 509
f 428 1024 492
f 1024 428 1012
f 1012 1025 1024
f 1025 1012 1013
f 1013 1026 1025
f 1026 1013 1014
f 480 1026 1014
f 1026 480 510
f 521 1027 505
f 1015 505 1027
f 1027 1016 1015
f 1016 1027 1028
f 1028 1017 1016
f 1017 1028 1029
f 1029 485 1017
f 485 1029 513
f 1018 503 464
f 503 1018 1030
f 1018 1031 1030
f 1031 1018 1019
f 1019 1032 1031
f 1032 1019 1020
f 1020 514 1032
f 514 1020 486
f 557 1033 558
f 1033 557 1034
f 1034 1035 1033
f 1035 1034 1036
f 1036 1037 1035
f 1037 1036 1038
f 1038 541 1037
f 541 1038 539
f 1039 590 527
f 590 1039 1040
f 1039 1041 1040
f 1041 1039 1042
f 1042 1043 1041
f 1043 1042 1044
f 1044 542 1043
f 542 1044 540
f 569 1045 567
f 1046 567 1045
f 1045 1047 1046
f 1047 1045 1048
f 1048 1049 1047
f 1049 1048 1050
f 1050 547 1049
f 549 1049 547
f 533 1051 594
f 1051 533 1052
f 1053 1051 1052
f 1051 1053 1054
f 1053 1055 1054
f 1055 1053 1056
f 548 1055 1056
f 1055 548 550
f 558 1021 518
f 1021 558 1033
f 1033 1022 1021
f 1022 1033 1035
f 1035 1023 1022
f 1023 1035 1037
f 1037 509 1023
f 509 1037 541
f 1024 527 492
f 527 1024 1039
f 1042 1024 1025
f 1024 1042 1039
f 1044 1025 1026
f 1025 1044 1042
f 540 1026 510
f 1026 540 1044
f 1027 567 1046
f 567 1027 521
f 1028 1027 1047
f 1047 1027 1046
f 1029 1047 1049
f 1047 1029 1028
f 513 1029 549
f 549 1029 1049
f 503 1030 533
f 533 1030 1052
f 1030 1053 1052
f 1053 1030 1031
f 1031 1032 1053
f 1053 1032 1056
f 1032 548 1056
f 548 1032 514
f 671 913 234
f 913 671 1057
f 1057 916 913
f 916 1057 1058
f 1058 1059 916
f 916 1059 918
f 1059 595 918
f 918 595 369
f 1060 224 907
f 224 1060 659
f 909 1061 1060
f 909 1060 907
f 1062 909 911
f 909 1062 1061
f 372 596 1062
f 372 1062 911
f 674 1057 671
f 1057 674 1063
f 1063 1064 1057
f 1057 1064 1058
f 1064 1065 1058
f 1058 1065 1059
f 1065 598 1059
f 1059 598 595
f 1060 1066 662
f 1060 662 659
f 1061 1067 1066
f 1061 1066 1060
f 1062 1068 1067
f 1062 1067 1061
f 596 597 1068
f 596 1068 1062
f 676 1063 674
f 1063 676 1069
f 1070 1063 1069
f 1063 1070 1064
f 1071 1064 1070
f 1064 1071 1065
f 599 1065 1071
f 1065 599 598
f 1066 1072 664
f 1066 664 662
f 1067 1073 1072
f 1067 1072 1066
f 1068 1074 1073
f 1068 1073 1067
f 597 600 1074
f 597 1074 1068
f 678 1069 676
f 1069 678 1075
f 1075 1076 1069
f 1069 1076 1070
f 1077 1070 1076
f 1070 1077 1071
f 601 1071 1077
f 1071 601 599
f 1072 1078 364
f 1072 364 664
f 1073 1079 1078
f 1073 1078 1072
f 1074 1080 1079
f 1074 1079 1073
f 600 602 1080
f 600 1080 1074
f 376 1075 678
f 1075 376 841
f 841 1076 1075
f 1076 841 843
f 843 845 1076
f 1076 845 1077
f 845 183 1077
f 1077 183 601
f 1078 847 365
f 1078 365 364
f 1079 849 847
f 1079 847 1078
f 1080 851 849
f 1080 849 1079
f 602 184 851
f 602 851 1080
f 1081 896 216
f 1081 216 651
f 898 1081 1082
f 1081 898 896
f 900 1082 1083
f 1082 900 898
f 358 1083 603
f 1083 358 900
f 206 1084 679
f 1084 206 889
f 892 1084 889
f 1084 892 1085
f 894 1085 892
f 1085 894 1086
f 894 359 1086
f 1086 359 604
f 1087 1081 651
f 1087 651 653
f 1088 1082 1081
f 1088 1081 1087
f 1089 1083 1082
f 1089 1082 1088
f 606 603 1083
f 606 1083 1089
f 679 1090 681
f 1090 679 1084
f 1084 1085 1090
f 1090 1085 1091
f 1085 1086 1091
f 1091 1086 1092
f 604 1092 1086
f 1092 604 605
f 1093 1087 653
f 1093 653 655
f 1088 1093 1094
f 1093 1088 1087
f 1095 1089 1088
f 1095 1088 1094
f 607 606 1089
f 607 1089 1095
f 681 1096 683
f 1096 681 1090
f 1090 1091 1096
f 1096 1091 1097
f 1091 1092 1097
f 1097 1092 1098
f 605 1098 1092
f 1098 605 608
f 848 1093 655
f 848 655 657
f 1094 848 850
f 848 1094 1093
f 852 1095 1094
f 852 1094 850
f 182 607 1095
f 182 1095 852
f 683 842 378
f 842 683 1096
f 1097 842 1096
f 842 1097 844
f 1098 844 1097
f 844 1098 846
f 608 846 1098
f 846 608 181
f 711 1099 261
f 261 1099 931
f 1099 933 931
f 933 1099 1100
f 1100 935 933
f 935 1100 1101
f 1101 609 935
f 935 609 387
f 1102 251 925
f 251 1102 699
f 1103 925 927
f 925 1103 1102
f 1104 927 929
f 927 1104 1103
f 610 929 390
f 929 610 1104
f 713 1105 711
f 711 1105 1099
f 1106 1099 1105
f 1099 1106 1100
f 1106 1107 1100
f 1100 1107 1101
f 1107 611 1101
f 1101 611 609
f 1108 699 1102
f 699 1108 701
f 1103 1109 1108
f 1103 1108 1102
f 1110 1103 1104
f 1103 1110 1109
f 610 612 1110
f 610 1110 1104
f 716 1105 713
f 1105 716 1111
f 1112 1105 1111
f 1105 1112 1106
f 1113 1106 1112
f 1106 1113 1107
f 613 1107 1113
f 1107 613 611
f 1114 701 1108
f 701 1114 703
f 1109 1115 1114
f 1109 1114 1108
f 1116 1109 1110
f 1109 1116 1115
f 612 614 1116
f 612 1116 1110
f 717 1117 716
f 716 1117 1111
f 1117 1112 1111
f 1112 1117 1118
f 1118 1119 1112
f 1112 1119 1113
f 615 1113 1119
f 1113 615 613
f 1120 703 1114
f 703 1120 384
f 1115 1121 1120
f 1115 1120 1114
f 1116 1122 1121
f 1116 1121 1115
f 614 616 1122
f 614 1122 1116
f 395 1117 717
f 1117 395 854
f 854 1118 1117
f 1118 854 856
f 856 858 1118
f 1118 858 1119
f 858 187 1119
f 1119 187 615
f 860 384 1120
f 384 860 383
f 1121 862 860
f 1121 860 1120
f 1122 864 862
f 1122 862 1121
f 616 188 864
f 616 864 1122
f 1123 950 243
f 1123 243 691
f 952 1123 1124
f 1123 952 950
f 1125 954 952
f 1125 952 1124
f 618 402 954
f 618 954 1125
f 269 1126 719
f 1126 269 943
f 943 946 1126
f 1126 946 1127
f 946 948 1127
f 1127 948 1128
f 948 617 1128
f 617 948 401
f 1123 694 1129
f 694 1123 691
f 1130 1124 1123
f 1130 1123 1129
f 1131 1125 1124
f 1131 1124 1130
f 618 1131 620
f 1131 618 1125
f 719 1126 721
f 721 1126 1132
f 1126 1127 1132
f 1132 1127 1133
f 1127 1128 1133
f 1133 1128 1134
f 1128 619 1134
f 619 1128 617
f 1129 696 1135
f 696 1129 694
f 1136 1130 1129
f 1136 1129 1135
f 1137 1131 1130
f 1137 1130 1136
f 620 1137 622
f 1137 620 1131
f 721 1132 724
f 724 1132 1138
f 1132 1133 1138
f 1138 1133 1139
f 1133 1140 1139
f 1140 1133 1134
f 1134 619 1140
f 1140 619 621
f 1135 698 859
f 698 1135 696
f 861 1136 1135
f 861 1135 859
f 1137 861 863
f 861 1137 1136
f 186 622 1137
f 186 1137 863
f 724 1138 394
f 394 1138 853
f 1138 1139 853
f 853 1139 855
f 1139 857 855
f 857 1139 1140
f 621 857 1140
f 857 621 185
f 1034 437 865
f 437 1034 557
f 1036 1034 867
f 1034 865 867
f 1038 867 869
f 867 1038 1036
f 539 869 194
f 869 539 1038
f 590 872 575
f 872 590 1040
f 1040 873 872
f 873 1040 1041
f 1043 873 1041
f 873 1043 875
f 542 875 1043
f 875 542 193
f 871 306 576
f 306 871 967
f 871 970 967
f 970 871 874
f 874 972 970
f 972 874 876
f 195 972 876
f 972 195 427
f 866 303 961
f 303 866 436
f 868 866 964
f 866 961 964
f 870 868 966
f 868 964 966
f 196 870 426
f 870 966 426
f 1045 569 877
f 569 473 877
f 1048 877 879
f 877 1048 1045
f 1050 1048 881
f 1048 879 881
f 547 1050 202
f 1050 881 202
f 594 884 583
f 884 594 1051
f 1054 884 1051
f 884 1054 886
f 1054 888 886
f 888 1054 1055
f 550 888 1055
f 888 550 201
f 883 346 584
f 346 883 991
f 883 994 991
f 994 883 885
f 887 994 885
f 994 887 996
f 203 996 887
f 996 203 463
f 878 343 985
f 343 878 472
f 880 878 987
f 878 985 987
f 882 880 990
f 880 987 990
f 204 990 462
f 990 204 882