# https://github.com/mikedh/trimesh
v -0.06204912 0.00564061 0.02293111
v -0.05686740 -0.00000000 0.02694900
v -0.07774304 -0.00000000 0.02712557
v -0.06204912 -0.00564062 0.02293112
v -0.04723809 0.00000000 0.07779970
v -0.04723809 0.02299920 0.07779970
v -0.06036133 0.02044427 0.07585746
v -0.06036133 0.00000000 0.07585747
v -0.02316050 0.02880939 0.05941329
v -0.02086720 0.02281824 0.07563354
v 0.00012445 0.02235937 0.07160148
v -0.00132466 0.02404522 0.05734373
v -0.04846994 0.02743220 0.06291383
v -0.07952694 0.01489999 0.07143511
v -0.07952694 0.00000000 0.07143511
v -0.04930259 0.03042861 0.05285195
v -0.05640686 0.02300150 0.03083246
v -0.06950951 0.02128213 0.03915435
v -0.06259851 0.02473920 0.05591980
v -0.07875045 0.01563511 0.04074800
v -0.07913870 0.01674020 0.05609156
v -0.08968385 0.01369609 0.05053377
v -0.08554308 0.01277206 0.04023220
v -0.09684746 0.01041402 0.03446926
v -0.10123572 0.01112400 0.04209219
v -0.09382465 0.01239207 0.06083535
v -0.09382465 0.00000000 0.06083535
v -0.10562393 -0.00000000 0.04971512
v -0.10562393 0.01047293 0.04971512
v -0.11770369 0.00757262 0.03770140
v -0.11770369 -0.00000000 0.03770140
v -0.11471895 0.00819158 0.03251654
v -0.11173426 0.00741811 0.02733169
v -0.11960160 0.00531857 0.02408872
v -0.12203034 0.00600643 0.02830768
v -0.06169622 0.02300698 0.06396101
v -0.12445902 0.00579731 0.03252664
v -0.12445902 -0.00000001 0.03252664
v -0.12843462 -0.00000001 0.03056151
v -0.12843462 0.00500066 0.03056151
v -0.13467763 0.00316761 0.02927675
v -0.13467763 -0.00000001 0.02927675
v -0.02471061 0.03285902 0.04844946
v -0.02855401 0.02281824 0.02126539
v -0.12906475 0.00487192 0.02287864
v -0.12874969 0.00525448 0.02672008
v -0.13462940 0.00328877 0.02720232
v -0.13458112 0.00323562 0.02512789
v -0.13944655 0.00126547 0.02629541
v -0.13946501 0.00126650 0.02708985
v -0.09135391 0.01317016 0.05468858
v -0.10300556 0.01086141 0.04516665
v -0.07929528 0.01599801 0.06227989
v -0.13948351 -0.00000001 0.02788430
v -0.13948351 0.00125438 0.02788430
v -0.14328059 0.00048478 0.02737961
v -0.14328059 -0.00000001 0.02737961
v -0.12300987 0.00592209 0.03000926
v -0.12862261 0.00515211 0.02826939
v -0.11592274 0.00794194 0.03460768
v -0.14327533 -0.00000001 0.02715389
v -0.14327533 0.00048502 0.02715389
v -0.13464885 0.00323991 0.02803897
v -0.14326297 0.00048478 0.02662302
v -0.14327178 0.00048519 0.02700131
v -0.14326297 -0.00000001 0.02662302
v -0.14327178 -0.00000001 0.02700131
v -0.13944655 -0.00000001 0.02629541
v -0.00912695 0.02257445 0.02280700
v -0.00230416 0.02518474 0.04770644
v 0.00982671 0.02386719 0.04826945
v 0.01094505 0.02153039 0.02679690
v -0.13458112 -0.00000001 0.02512789
v -0.13947247 0.00126161 0.02741026
v -0.12906475 -0.00000001 0.02287864
v -0.11960160 -0.00000001 0.02408872
v -0.11173426 -0.00000001 0.02733169
v -0.09684746 -0.00000000 0.03446926
v -0.08554307 -0.00000000 0.04023220
v -0.06950951 -0.00000000 0.03915435
v -0.07875045 -0.00000000 0.04074800
v -0.07728250 0.02034357 0.03100903
v -0.02855401 -0.00000000 0.02126539
v -0.02086720 0.00000001 0.07563355
v 0.00012445 0.00000001 0.07160149
v -0.00912695 -0.00000000 0.02280700
v 0.00870838 0.00000001 0.06974200
v 0.00870838 0.02133784 0.06974200
v -0.06204912 0.02206295 0.02293111
v -0.06432911 0.00564061 0.01792202
v -0.06432911 0.02043012 0.01792202
v -0.08084725 0.00564061 0.02648788
v -0.08084725 0.01871075 0.02648788
v -0.07991680 0.01649608 0.01924911
v -0.07991680 0.00564061 0.01924911
v -0.07902252 0.01649608 0.01104970
v -0.07902252 0.00564061 0.01104970
v -0.06470042 0.01740958 0.01472157
v -0.06470042 0.00564061 0.01472157
v -0.08010025 0.01852114 0.00545116
v -0.08010025 0.00343766 0.00545117
v -0.06380613 0.01740958 0.01104969
v -0.06380613 0.00564061 0.01104969
v -0.05921533 0.00343766 0.00874380
v -0.08153320 0.00272865 0.00373061
v -0.05396172 0.00257694 0.00322691
v -0.05921534 0.01979043 0.00874380
v -0.08153320 0.01903704 0.00373061
v -0.07714596 0.01768944 0.00115134
v -0.07714596 0.00434241 0.00115134
v -0.05396172 0.02084425 0.00322691
v -0.05844022 0.01881261 0.00080959
v -0.05844022 0.00434241 0.00080960
v 0.01989883 0.02225094 0.04634645
v 0.02224239 0.02021049 0.02771843
v 0.00937567 0.02284706 0.05692971
v 0.01780640 0.02004236 0.06597886
v 0.01905492 0.02136018 0.05426455
v 0.01138146 0.01949796 0.01951758
v -0.00246324 0.02041995 0.01688114
v 0.02224239 -0.00000000 0.02771844
v 0.02757623 0.02021049 0.02999082
v 0.02757623 -0.00000000 0.02999083
v 0.02598598 0.02225094 0.04711225
v 0.01780640 0.00000001 0.06597886
v 0.01094505 -0.00000000 0.02679691
v 0.01138146 0.00659322 0.01951758
v 0.01378801 0.00776112 0.01288591
v 0.01378801 0.01841061 0.01288591
v -0.00246324 0.00659322 0.01688114
v 0.00236284 0.01917147 0.01071021
v 0.02200394 0.02019170 0.00947093
v 0.00134247 0.02121649 0.00528503
v 0.00236284 0.00776112 0.01071021
v 0.02200394 0.00584807 0.00947094
v 0.00134247 0.00584807 0.00528503
v 0.00210670 0.00584807 0.00254292
v 0.02729488 0.00584807 0.00416423
v 0.00210669 0.02121649 0.00254291
v 0.02729488 0.02019170 0.00416423
v 0.02546613 0.01909307 0.00136375
v 0.00427939 0.01995507 -0.00000000
v 0.00427939 0.00702809 0.00000000
v 0.02546613 0.00702809 0.00136375
v 0.03066535 0.00982652 0.02896603
v 0.03066535 -0.00000000 0.02896603
v 0.02201031 0.02004236 0.06837680
v 0.02201031 0.00000001 0.06837680
v 0.03495329 0.00000001 0.06166620
v 0.03495329 0.00968569 0.06166620
v 0.02438252 0.02136018 0.05568862
v 0.04086807 0.01068266 0.05315184
v 0.04013558 0.00968569 0.06245099
v 0.04967673 0.00968569 0.06389588
v 0.05458297 0.01048581 0.05718161
v 0.03341880 0.01078958 0.05096306
v 0.03238158 0.01153574 0.04372845
v 0.05789927 0.01102664 0.05264321
v 0.05833181 0.00000000 0.05264518
v 0.05668396 0.00000000 0.04234614
v 0.05668396 0.00867605 0.04234614
v 0.06472940 0.00871600 0.06425567
v 0.06584316 0.00342225 0.06426223
v 0.06589190 0.00407548 0.06381868
v 0.06496837 0.00845532 0.06381904
v 0.03295300 0.00982652 0.02719347
v 0.04136319 0.01135654 0.04686623
v 0.03716479 0.00982652 0.02393001
v 0.04013559 0.00000001 0.06245099
v 0.04967673 0.00000001 0.06389588
v 0.03295300 -0.00000000 0.02719348
v 0.03716479 -0.00000000 0.02393002
v 0.05990890 -0.00000000 0.03601187
v 0.05990890 0.00460608 0.03601187
v 0.04100898 0.00746832 0.02128059
v 0.04100898 -0.00000000 0.02128059
v 0.04621400 0.00575017 0.01780391
v 0.04621400 -0.00000000 0.01780391
v 0.05095307 0.00492300 0.01626959
v 0.06240304 0.00360302 0.02708178
v 0.06240304 -0.00000000 0.02708178
v 0.05095307 -0.00000000 0.01626960
v 0.06576496 0.00256600 0.02847755
v 0.06576496 -0.00000000 0.02847755
v 0.06398692 0.00328107 0.03484367
v 0.06398692 -0.00000000 0.03484367
v 0.06854057 0.00163938 0.03181891
v 0.06740241 0.00209711 0.03589399
v 0.07059717 0.00102217 0.03781979
v 0.07115438 0.00192190 0.03582479
v 0.06740241 -0.00000000 0.03589399
v 0.06854057 -0.00000000 0.03181891
v 0.07059717 0.00000000 0.03781979
v 0.07115438 -0.00000000 0.03582480
v 0.05919591 0.00136800 0.05759838
v 0.05523365 0.00103174 0.06271339
v 0.05484106 0.00000001 0.05718278
v 0.06086519 0.01004231 0.05414097
v 0.06187414 0.00159529 0.05414097
v 0.05847876 0.00945421 0.05759838
v 0.05494819 0.00858416 0.06271339
v 0.07568415 0.00580373 0.06294563
v 0.07482708 0.00988642 0.06294866
v 0.06754739 0.00311526 0.05608081
v 0.06660584 0.00294001 0.05951307
v 0.06571835 0.00958029 0.05992424
v 0.06572362 0.00914536 0.06020531
v 0.06696673 0.00365464 0.05992640
v 0.06772619 0.00381171 0.05699567
v 0.06733284 0.00439154 0.05776316
v 0.06675168 0.00426407 0.06020546
v 0.07473495 0.01031129 0.06099580
v 0.08282223 0.01022490 0.06417021
v 0.08280095 0.01059031 0.06192863
v 0.06623410 0.00961179 0.05776266
v 0.07467267 0.01059847 0.05967580
v 0.07564270 0.00589644 0.05967998
v 0.07565942 0.00585905 0.06099707
v 0.08346130 0.00719580 0.06417021
v 0.09061865 0.00783809 0.06413353
v 0.08998712 0.01083150 0.06413353
v 0.08355144 0.00721191 0.06041346
v 0.08351509 0.00720541 0.06192863
v 0.08278658 0.01083730 0.06041346
v 0.09083218 0.00786545 0.06138972
v 0.09007711 0.01144441 0.06138972
v 0.09635747 0.01148767 0.06232803
v 0.09695238 0.00866792 0.06232803
v 0.09004081 0.01119721 0.06249635
v 0.09074606 0.00785442 0.06249635
v 0.09630122 0.01128040 0.06348868
v 0.09621800 0.01097375 0.06520579
v 0.10124613 0.01127941 0.06756356
v 0.10141030 0.01147878 0.06628964
v 0.09685666 0.00864773 0.06348868
v 0.09671504 0.00861785 0.06520579
v 0.10152936 0.00993689 0.06756356
v 0.10326001 0.01041798 0.06800523
v 0.10307420 0.01129869 0.06800522
v 0.10186027 0.01000670 0.06542856
v 0.10172682 0.00997855 0.06628964
v 0.10152128 0.01161355 0.06542856
v 0.10314500 0.01142170 0.06755011
v 0.10335264 0.01043753 0.06755011
v 0.10319288 0.01150485 0.06724248
v 0.10341526 0.01045074 0.06724248
v 0.06521288 0.00268075 0.06459088
v 0.06389424 0.00895686 0.06457712
v 0.06513206 0.00995211 0.05949379
v 0.06596874 0.01062484 0.05605779
v 0.06638681 0.01016449 0.05699648
v 0.03340022 0.01943819 0.06190056
v 0.03276595 0.01989447 0.05747655
v 0.02785588 0.01876316 0.07616047
v 0.02785588 0.00000001 0.07616048
v 0.02373863 0.03084720 0.07681680
v 0.02387407 0.03102150 0.07511489
v 0.03825826 0.01978489 0.05939532
v 0.02575951 0.03097964 0.07629149
v 0.02487010 0.01876316 0.07499516
v 0.02217191 0.02391114 0.08398234
v 0.02487009 0.00000001 0.07499516
v 0.03795550 0.01937281 0.06323901
v 0.01784328 0.02669850 0.09490414
v 0.01792025 0.02679755 0.09393698
v 0.02331250 0.02391114 0.08442750
v 0.01760112 0.02522410 0.10003100
v 0.02018303 0.02229861 0.09533301
v 0.02532367 0.03082222 0.07769839
v 0.01874402 0.02668430 0.09540512
v 0.02018303 0.00000001 0.09305368
v 0.01899170 0.02677376 0.09460562
v 0.01848626 0.00000001 0.09239146
v 0.01848627 0.02229861 0.09467078
v 0.01695294 0.02522410 0.09977802
v 0.01565943 0.00000001 0.10779300
v 0.01630761 0.00000001 0.10804597
v -0.06036133 -0.02044426 0.07585747
v -0.04723808 -0.02299919 0.07779971
v -0.02316050 -0.02880939 0.05941330
v -0.00132466 -0.02404521 0.05734374
v 0.00012445 -0.02235936 0.07160149
v -0.02086720 -0.02281823 0.07563355
v -0.04846994 -0.02743219 0.06291383
v -0.07952694 -0.01489999 0.07143511
v -0.04930259 -0.03042861 0.05285196
v -0.06259851 -0.02473920 0.05591981
v -0.06950951 -0.02128213 0.03915436
v -0.05640686 -0.02300151 0.03083247
v -0.07913870 -0.01674020 0.05609156
v -0.07875045 -0.01563512 0.04074801
v -0.08968385 -0.01369609 0.05053377
v -0.10123572 -0.01112401 0.04209219
v -0.09684746 -0.01041403 0.03446926
v -0.08554307 -0.01277206 0.04023220
v -0.09382465 -0.01239207 0.06083535
v -0.11770368 -0.00757263 0.03770140
v -0.10562393 -0.01047293 0.04971512
v -0.11471895 -0.00819159 0.03251654
v -0.12203034 -0.00600644 0.02830768
v -0.11960160 -0.00531858 0.02408872
v -0.11173426 -0.00741812 0.02733169
v -0.06169621 -0.02300697 0.06396102
v -0.12445902 -0.00579732 0.03252664
v -0.13467763 -0.00316763 0.02927675
v -0.12843462 -0.00500067 0.03056151
v -0.02855401 -0.02281824 0.02126540
v -0.02471061 -0.03285902 0.04844948
v -0.12874969 -0.00525449 0.02672008
v -0.12906475 -0.00487193 0.02287864
v -0.13462940 -0.00328879 0.02720232
v -0.13946501 -0.00126652 0.02708985
v -0.13944655 -0.00126548 0.02629541
v -0.13458112 -0.00323564 0.02512789
v -0.09135391 -0.01317016 0.05468858
v -0.10300556 -0.01086142 0.04516666
v -0.07929528 -0.01599801 0.06227989
v -0.14328059 -0.00048479 0.02737961
v -0.13948351 -0.00125439 0.02788430
v -0.12300987 -0.00592210 0.03000926
v -0.12862261 -0.00515212 0.02826940
v -0.11592274 -0.00794195 0.03460769
v -0.14327533 -0.00048504 0.02715389
v -0.13464885 -0.00323992 0.02803897
v -0.14327178 -0.00048520 0.02700131
v -0.14326297 -0.00048479 0.02662302
v -0.00912695 -0.02257446 0.02280701
v 0.01094505 -0.02153039 0.02679691
v 0.00982671 -0.02386718 0.04826946
v -0.00230416 -0.02518474 0.04770645
v -0.13947247 -0.00126163 0.02741026
v -0.07728250 -0.02034357 0.03100904
v 0.00870838 -0.02133783 0.06974200
v -0.06204912 -0.02206295 0.02293112
v -0.06432911 -0.02043013 0.01792203
v -0.06432911 -0.00564062 0.01792203
v -0.08084725 -0.00564062 0.02648788
v -0.07991680 -0.00564062 0.01924912
v -0.07991680 -0.01649609 0.01924912
v -0.08084725 -0.01871075 0.02648788
v -0.07902251 -0.00564062 0.01104970
v -0.07902251 -0.01649609 0.01104970
v -0.06470042 -0.01740959 0.01472157
v -0.06470042 -0.00564062 0.01472157
v -0.08010025 -0.00343767 0.00545117
v -0.08010025 -0.01852115 0.00545117
v -0.06380613 -0.01740959 0.01104970
v -0.06380613 -0.00564062 0.01104969
v -0.05921533 -0.00343767 0.00874380
v -0.05396172 -0.00257696 0.00322691
v -0.08153320 -0.00272867 0.00373062
v -0.05921533 -0.01979044 0.00874381
v -0.07714596 -0.00434243 0.00115134
v -0.07714596 -0.01768946 0.00115134
v -0.08153320 -0.01903705 0.00373062
v -0.05396172 -0.02084426 0.00322691
v -0.05844022 -0.01881263 0.00080960
v -0.05844022 -0.00434243 0.00080960
v 0.02224239 -0.02021049 0.02771844
v 0.01989884 -0.02225094 0.04634646
v 0.00937567 -0.02284705 0.05692972
v 0.01905492 -0.02136017 0.05426456
v 0.01780640 -0.02004235 0.06597886
v -0.00246324 -0.02041995 0.01688114
v 0.01138146 -0.01949796 0.01951758
v 0.02757623 -0.02021049 0.02999083
v 0.02598598 -0.02225093 0.04711226
v 0.01378801 -0.01841062 0.01288591
v 0.01378801 -0.00776113 0.01288591
v 0.01138146 -0.00659322 0.01951758
v -0.00246324 -0.00659322 0.01688114
v 0.00236283 -0.01917148 0.01071022
v 0.00134247 -0.02121651 0.00528504
v 0.02200394 -0.02019171 0.00947094
v 0.00236284 -0.00776113 0.01071022
v 0.02200394 -0.00584808 0.00947094
v 0.02729488 -0.00584808 0.00416423
v 0.00210669 -0.00584808 0.00254292
v 0.00134247 -0.00584808 0.00528504
v 0.00210669 -0.02121651 0.00254292
v 0.00427939 -0.01995508 0.00000001
v 0.02546613 -0.01909308 0.00136376
v 0.02729488 -0.02019171 0.00416423
v 0.00427939 -0.00702811 0.00000001
v 0.02546613 -0.00702811 0.00136376
v 0.03066535 -0.00982653 0.02896603
v 0.02201031 -0.02004235 0.06837680
v 0.03495329 -0.00968568 0.06166620
v 0.01989883 0.00000000 0.04634645
v 0.02598598 0.00000000 0.04711226
v 0.02438252 -0.02136017 0.05568863
v 0.01905492 0.00000000 0.05426455
v 0.02438252 0.00000000 0.05568863
v 0.04086807 -0.01068265 0.05315185
v 0.05458297 -0.01048580 0.05718161
v 0.04967673 -0.00968568 0.06389588
v 0.04013558 -0.00968568 0.06245099
v 0.04151543 0.00000000 0.04686692
v 0.03238158 0.00000000 0.04372845
v 0.03341880 -0.01078957 0.05096307
v 0.03341880 0.00000000 0.05096307
v 0.03238158 -0.01153573 0.04372845
v 0.05789927 -0.01102663 0.05264321
v 0.05668396 -0.00867605 0.04234614
v 0.06472940 -0.00871599 0.06425567
v 0.06496837 -0.00845530 0.06381904
v 0.06589190 -0.00407547 0.06381868
v 0.06584316 -0.00342224 0.06426223
v 0.04095892 0.00000000 0.05315226
v 0.03295300 -0.00982653 0.02719348
v 0.03716479 -0.00982653 0.02393002
v 0.04136319 -0.01135654 0.04686623
v 0.05990890 -0.00460608 0.03601188
v 0.04100898 -0.00746833 0.02128059
v 0.04621400 -0.00575017 0.01780391
v 0.05095307 -0.00492301 0.01626960
v 0.06240304 -0.00360302 0.02708178
v 0.06576496 -0.00256601 0.02847755
v 0.06398692 -0.00328107 0.03484367
v 0.06854057 -0.00163938 0.03181891
v 0.07115438 -0.00192190 0.03582479
v 0.07059717 -0.00102217 0.03781979
v 0.06740241 -0.00209711 0.03589399
v 0.05919591 -0.00136799 0.05759838
v 0.05523365 -0.00103173 0.06271339
v 0.06086519 -0.01004230 0.05414097
v 0.06187414 -0.00159528 0.05414097
v 0.05847876 -0.00945420 0.05759838
v 0.05494819 -0.00858415 0.06271340
v 0.07482708 -0.00988641 0.06294866
v 0.07568415 -0.00580372 0.06294563
v 0.06660584 -0.00294001 0.05951307
v 0.06754739 -0.00311526 0.05608081
v 0.06571835 -0.00958028 0.05992424
v 0.06572362 -0.00914535 0.06020531
v 0.06696673 -0.00365463 0.05992640
v 0.06675168 -0.00426406 0.06020546
v 0.06733284 -0.00439153 0.05776316
v 0.06772619 -0.00381171 0.05699567
v 0.07473496 -0.01031128 0.06099581
v 0.08280095 -0.01059030 0.06192863
v 0.08282223 -0.01022489 0.06417021
v 0.07564270 -0.00589643 0.05967998
v 0.07467268 -0.01059847 0.05967581
v 0.06623410 -0.00961178 0.05776267
v 0.07565942 -0.00585904 0.06099708
v 0.08998712 -0.01083149 0.06413353
v 0.09061865 -0.00783808 0.06413353
v 0.08346130 -0.00719579 0.06417021
v 0.08351510 -0.00720540 0.06192863
v 0.08355144 -0.00721190 0.06041347
v 0.08278658 -0.01083730 0.06041347
v 0.09083218 -0.00786545 0.06138972
v 0.09695238 -0.00866791 0.06232803
v 0.09635747 -0.01148766 0.06232803
v 0.09007711 -0.01144440 0.06138972
v 0.09004081 -0.01119720 0.06249635
v 0.09074606 -0.00785441 0.06249635
v 0.09630123 -0.01128039 0.06348868
v 0.10141030 -0.01147877 0.06628964
v 0.10124614 -0.01127940 0.06756356
v 0.09621800 -0.01097374 0.06520579
v 0.09685666 -0.00864772 0.06348868
v 0.09671504 -0.00861784 0.06520579
v 0.10307420 -0.01129868 0.06800523
v 0.10326001 -0.01041797 0.06800523
v 0.10152937 -0.00993688 0.06756356
v 0.10172682 -0.00997854 0.06628964
v 0.10186028 -0.01000669 0.06542856
v 0.10152128 -0.01161354 0.06542856
v 0.10314500 -0.01142169 0.06755011
v 0.10335264 -0.01043751 0.06755011
v 0.10341526 -0.01045072 0.06724248
v 0.10319288 -0.01150484 0.06724248
v 0.06389424 -0.00895685 0.06457712
v 0.06521288 -0.00268073 0.06459088
v 0.06513206 -0.00995211 0.05949379
v 0.06596874 -0.01062483 0.05605780
v 0.06638681 -0.01016448 0.05699648
v 0.03276596 -0.01989446 0.05747656
v 0.03340022 -0.01943818 0.06190057
v 0.02785588 -0.01876315 0.07616048
v 0.02387408 -0.03102149 0.07511490
v 0.02373864 -0.03084719 0.07681681
v 0.03825826 -0.01978488 0.05939533
v 0.02575952 -0.03097963 0.07629150
v 0.02217191 -0.02391112 0.08398235
v 0.02487010 -0.01876315 0.07499517
v 0.03795550 -0.01937280 0.06323901
v 0.01792025 -0.02679753 0.09393699
v 0.01784328 -0.02669848 0.09490415
v 0.02018303 -0.02229859 0.09533301
v 0.01760112 -0.02522408 0.10003101
v 0.02331251 -0.02391112 0.08442750
v 0.01874402 -0.02668428 0.09540514
v 0.02532367 -0.03082220 0.07769840
v 0.01899170 -0.02677374 0.09460562
v 0.01848627 -0.02229859 0.09467079
v 0.01695294 -0.02522408 0.09977803
f 1 2 3
f 4 3 2
f 5 6 7
f 5 7 8
f 9 10 11
f 9 11 12
f 13 6 10
f 13 10 9
f 8 7 14
f 8 14 15
f 16 17 18
f 16 18 19
f 19 18 20
f 19 20 21
f 22 23 24
f 22 24 25
f 21 20 23
f 21 23 22
f 15 14 26
f 15 26 27
f 28 29 30
f 28 30 31
f 27 26 29
f 27 29 28
f 32 33 34
f 32 34 35
f 25 24 33
f 25 33 32
f 13 16 19
f 13 19 36
f 31 30 37
f 31 37 38
f 39 40 41
f 39 41 42
f 38 37 40
f 38 40 39
f 17 16 43
f 17 43 44
f 35 34 45
f 35 45 46
f 47 48 49
f 47 49 50
f 51 22 25
f 51 25 52
f 46 45 48
f 46 48 47
f 53 21 22
f 53 22 51
f 54 55 56
f 54 56 57
f 58 35 46
f 58 46 59
f 42 41 55
f 42 55 54
f 52 25 32
f 52 32 60
f 61 57 56
f 61 56 62
f 59 46 47
f 59 47 63
f 50 49 64
f 50 64 65
f 66 67 65
f 66 65 64
f 49 68 66
f 49 66 64
f 69 70 71
f 69 71 72
f 48 73 68
f 48 68 49
f 63 47 50
f 63 50 74
f 74 50 65
f 74 65 62
f 45 75 73
f 45 73 48
f 34 76 75
f 34 75 45
f 36 19 21
f 36 21 53
f 60 32 35
f 60 35 58
f 33 77 76
f 33 76 34
f 44 43 70
f 44 70 69
f 24 78 77
f 24 77 33
f 23 79 78
f 23 78 24
f 18 80 81
f 18 81 20
f 20 81 79
f 20 79 23
f 80 18 82
f 80 82 3
f 17 44 83
f 17 83 2
f 11 10 84
f 11 84 85
f 10 6 5
f 10 5 84
f 44 69 86
f 44 86 83
f 11 85 87
f 11 87 88
f 89 1 90
f 89 90 91
f 17 2 1
f 17 1 89
f 18 17 89
f 18 89 82
f 92 93 94
f 92 94 95
f 3 82 93
f 3 93 92
f 82 89 91
f 82 91 93
f 95 94 96
f 95 96 97
f 93 91 98
f 93 98 94
f 91 90 99
f 91 99 98
f 97 96 100
f 97 100 101
f 94 98 102
f 94 102 96
f 98 99 103
f 98 103 102
f 104 101 105
f 104 105 106
f 96 102 107
f 96 107 100
f 103 97 101
f 103 101 104
f 102 103 104
f 102 104 107
f 105 108 109
f 105 109 110
f 107 104 106
f 107 106 111
f 101 100 108
f 101 108 105
f 100 107 111
f 100 111 108
f 112 113 110
f 112 110 109
f 108 111 112
f 108 112 109
f 106 105 110
f 106 110 113
f 111 106 113
f 111 113 112
f 99 95 97
f 99 97 103
f 90 92 95
f 90 95 99
f 1 3 92
f 1 92 90
f 72 71 114
f 72 114 115
f 116 88 117
f 116 117 118
f 12 11 88
f 12 88 116
f 69 72 119
f 69 119 120
f 121 115 122
f 121 122 123
f 115 114 124
f 115 124 122
f 88 87 125
f 88 125 117
f 126 72 115
f 126 115 121
f 119 127 128
f 119 128 129
f 126 86 130
f 126 130 127
f 86 69 120
f 86 120 130
f 72 126 127
f 72 127 119
f 131 129 132
f 131 132 133
f 120 119 129
f 120 129 131
f 130 120 131
f 130 131 134
f 127 130 134
f 127 134 128
f 135 136 137
f 135 137 138
f 134 131 133
f 134 133 136
f 128 134 136
f 128 136 135
f 129 128 135
f 129 135 132
f 139 140 141
f 139 141 142
f 132 135 138
f 132 138 140
f 133 132 140
f 133 140 139
f 136 133 139
f 136 139 137
f 143 142 141
f 143 141 144
f 137 139 142
f 137 142 143
f 138 137 143
f 138 143 144
f 140 138 144
f 140 144 141
f 123 122 145
f 123 145 146
f 147 148 149
f 147 149 150
f 118 117 147
f 118 147 151
f 117 125 148
f 117 148 147
f 152 153 154
f 152 154 155
f 151 147 150
f 151 150 156
f 122 124 157
f 122 157 145
f 158 159 160
f 158 160 161
f 162 163 164
f 162 164 165
f 166 167 158
f 166 158 168
f 153 169 170
f 153 170 154
f 171 166 168
f 171 168 172
f 161 160 173
f 161 173 174
f 172 168 175
f 172 175 176
f 168 158 161
f 168 161 175
f 175 161 174
f 175 174 177
f 176 175 177
f 176 177 178
f 179 180 181
f 179 181 182
f 178 177 179
f 178 179 182
f 181 180 183
f 181 183 184
f 177 174 180
f 177 180 179
f 180 174 185
f 180 185 183
f 174 173 186
f 174 186 185
f 187 188 189
f 187 189 190
f 185 186 191
f 185 191 188
f 183 185 188
f 183 188 187
f 184 183 187
f 184 187 192
f 189 193 194
f 189 194 190
f 192 187 190
f 192 190 194
f 188 191 193
f 188 193 189
f 195 196 170
f 195 170 197
f 198 199 159
f 198 159 158
f 200 198 158
f 200 158 155
f 196 201 154
f 196 154 170
f 165 164 202
f 165 202 203
f 195 199 204
f 195 204 205
f 206 162 165
f 206 165 207
f 208 209 210
f 208 210 211
f 212 203 213
f 212 213 214
f 210 215 216
f 210 216 217
f 207 165 203
f 207 203 212
f 211 210 217
f 211 217 218
f 213 219 220
f 213 220 221
f 218 217 222
f 218 222 223
f 203 202 219
f 203 219 213
f 217 216 224
f 217 224 222
f 225 226 227
f 225 227 228
f 222 224 226
f 222 226 225
f 214 213 221
f 214 221 229
f 223 222 225
f 223 225 230
f 231 232 233
f 231 233 234
f 229 221 232
f 229 232 231
f 230 225 228
f 230 228 235
f 221 220 236
f 221 236 232
f 233 237 238
f 233 238 239
f 235 228 240
f 235 240 241
f 232 236 237
f 232 237 233
f 228 227 242
f 228 242 240
f 243 239 238
f 243 238 244
f 240 242 245
f 240 245 246
f 234 233 239
f 234 239 243
f 241 240 246
f 241 246 244
f 201 196 247
f 201 247 248
f 200 201 248
f 200 248 249
f 199 198 250
f 199 250 204
f 205 204 209
f 205 209 208
f 251 209 204
f 251 204 250
f 206 251 250
f 206 250 249
f 248 247 163
f 248 163 162
f 209 251 215
f 209 215 210
f 162 206 249
f 162 249 248
f 247 205 208
f 247 208 163
f 198 200 249
f 198 249 250
f 237 241 244
f 237 244 238
f 242 234 243
f 242 243 245
f 245 243 244
f 245 244 246
f 236 235 241
f 236 241 237
f 220 230 235
f 220 235 236
f 226 229 231
f 226 231 227
f 227 231 234
f 227 234 242
f 219 223 230
f 219 230 220
f 224 214 229
f 224 229 226
f 202 218 223
f 202 223 219
f 164 211 218
f 164 218 202
f 215 207 212
f 215 212 216
f 216 212 214
f 216 214 224
f 163 208 211
f 163 211 164
f 251 206 207
f 251 207 215
f 196 195 205
f 196 205 247
f 201 200 155
f 201 155 154
f 199 195 197
f 199 197 159
f 124 151 156
f 124 156 157
f 167 152 155
f 167 155 158
f 114 118 151
f 114 151 124
f 70 12 116
f 70 116 71
f 71 116 118
f 71 118 114
f 30 60 58
f 30 58 37
f 7 36 53
f 7 53 14
f 55 74 62
f 55 62 56
f 41 63 74
f 41 74 55
f 40 59 63
f 40 63 41
f 67 61 62
f 67 62 65
f 29 52 60
f 29 60 30
f 37 58 59
f 37 59 40
f 14 53 51
f 14 51 26
f 26 51 52
f 26 52 29
f 6 13 36
f 6 36 7
f 16 13 9
f 16 9 43
f 43 9 12
f 43 12 70
f 146 145 166
f 146 166 171
f 157 156 252
f 157 252 253
f 145 157 167
f 145 167 166
f 169 153 254
f 169 254 255
f 253 252 256
f 253 256 257
f 258 253 257
f 258 257 259
f 252 260 261
f 252 261 256
f 156 150 260
f 156 260 252
f 150 149 262
f 150 262 260
f 152 167 258
f 152 258 263
f 153 152 263
f 153 263 254
f 167 157 253
f 167 253 258
f 257 256 264
f 257 264 265
f 254 266 267
f 254 267 268
f 266 269 270
f 266 270 267
f 254 263 269
f 254 269 266
f 263 258 259
f 263 259 269
f 255 254 268
f 255 268 271
f 259 257 265
f 259 265 272
f 260 262 273
f 260 273 274
f 265 264 270
f 265 270 272
f 275 276 277
f 275 277 267
f 264 275 267
f 264 267 270
f 274 273 276
f 274 276 275
f 271 268 267
f 271 267 277
f 269 259 272
f 269 272 270
f 261 260 274
f 261 274 275
f 256 261 275
f 256 275 264
f 5 8 278
f 5 278 279
f 280 281 282
f 280 282 283
f 284 280 283
f 284 283 279
f 8 15 285
f 8 285 278
f 286 287 288
f 286 288 289
f 287 290 291
f 287 291 288
f 292 293 294
f 292 294 295
f 290 292 295
f 290 295 291
f 15 27 296
f 15 296 285
f 28 31 297
f 28 297 298
f 27 28 298
f 27 298 296
f 299 300 301
f 299 301 302
f 293 299 302
f 293 302 294
f 284 303 287
f 284 287 286
f 31 38 304
f 31 304 297
f 39 42 305
f 39 305 306
f 38 39 306
f 38 306 304
f 289 307 308
f 289 308 286
f 300 309 310
f 300 310 301
f 311 312 313
f 311 313 314
f 315 316 293
f 315 293 292
f 309 311 314
f 309 314 310
f 317 315 292
f 317 292 290
f 54 57 318
f 54 318 319
f 320 321 309
f 320 309 300
f 42 54 319
f 42 319 305
f 316 322 299
f 316 299 293
f 61 323 318
f 61 318 57
f 321 324 311
f 321 311 309
f 312 325 326
f 312 326 313
f 66 326 325
f 66 325 67
f 313 326 66
f 313 66 68
f 327 328 329
f 327 329 330
f 314 313 68
f 314 68 73
f 324 331 312
f 324 312 311
f 331 323 325
f 331 325 312
f 310 314 73
f 310 73 75
f 301 310 75
f 301 75 76
f 303 317 290
f 303 290 287
f 322 320 300
f 322 300 299
f 302 301 76
f 302 76 77
f 307 327 330
f 307 330 308
f 294 302 77
f 294 77 78
f 295 294 78
f 295 78 79
f 288 291 81
f 288 81 80
f 291 295 79
f 291 79 81
f 80 3 332
f 80 332 288
f 289 2 83
f 289 83 307
f 282 85 84
f 282 84 283
f 283 84 5
f 283 5 279
f 307 83 86
f 307 86 327
f 282 333 87
f 282 87 85
f 334 335 336
f 334 336 4
f 289 334 4
f 289 4 2
f 288 332 334
f 288 334 289
f 337 338 339
f 337 339 340
f 3 337 340
f 3 340 332
f 332 340 335
f 332 335 334
f 338 341 342
f 338 342 339
f 340 339 343
f 340 343 335
f 335 343 344
f 335 344 336
f 341 345 346
f 341 346 342
f 339 342 347
f 339 347 343
f 343 347 348
f 343 348 344
f 349 350 351
f 349 351 345
f 342 346 352
f 342 352 347
f 348 349 345
f 348 345 341
f 347 352 349
f 347 349 348
f 351 353 354
f 351 354 355
f 352 356 350
f 352 350 349
f 345 351 355
f 345 355 346
f 346 355 356
f 346 356 352
f 357 354 353
f 357 353 358
f 355 354 357
f 355 357 356
f 350 358 353
f 350 353 351
f 356 357 358
f 356 358 350
f 344 348 341
f 344 341 338
f 336 344 338
f 336 338 337
f 4 336 337
f 4 337 3
f 328 359 360
f 328 360 329
f 361 362 363
f 361 363 333
f 281 361 333
f 281 333 282
f 327 364 365
f 327 365 328
f 121 123 366
f 121 366 359
f 359 366 367
f 359 367 360
f 333 363 125
f 333 125 87
f 126 121 359
f 126 359 328
f 365 368 369
f 365 369 370
f 126 370 371
f 126 371 86
f 86 371 364
f 86 364 327
f 328 365 370
f 328 370 126
f 372 373 374
f 372 374 368
f 364 372 368
f 364 368 365
f 371 375 372
f 371 372 364
f 370 369 375
f 370 375 371
f 376 377 378
f 376 378 379
f 375 379 373
f 375 373 372
f 369 376 379
f 369 379 375
f 368 374 376
f 368 376 369
f 380 381 382
f 380 382 383
f 374 383 377
f 374 377 376
f 373 380 383
f 373 383 374
f 379 378 380
f 379 380 373
f 384 385 382
f 384 382 381
f 378 384 381
f 378 381 380
f 377 385 384
f 377 384 378
f 383 382 385
f 383 385 377
f 123 146 386
f 123 386 366
f 387 388 149
f 387 149 148
f 389 390 123
f 389 123 121
f 362 391 387
f 362 387 363
f 392 393 390
f 392 390 389
f 363 387 148
f 363 148 125
f 394 395 396
f 394 396 397
f 398 159 172
f 398 172 171
f 390 399 146
f 390 146 123
f 391 400 388
f 391 388 387
f 393 401 399
f 393 399 390
f 366 386 402
f 366 402 367
f 403 404 160
f 403 160 159
f 405 406 407
f 405 407 408
f 409 197 159
f 409 159 398
f 410 411 403
f 410 403 412
f 397 396 170
f 397 170 169
f 171 172 411
f 171 411 410
f 404 413 173
f 404 173 160
f 172 176 414
f 172 414 411
f 159 160 176
f 159 176 172
f 411 414 404
f 411 404 403
f 173 181 182
f 173 182 178
f 414 415 413
f 414 413 404
f 160 173 178
f 160 178 176
f 176 178 415
f 176 415 414
f 416 182 181
f 416 181 417
f 178 182 416
f 178 416 415
f 181 184 418
f 181 418 417
f 415 416 417
f 415 417 413
f 186 191 192
f 186 192 184
f 417 418 419
f 417 419 413
f 413 419 186
f 413 186 173
f 173 186 184
f 173 184 181
f 420 421 422
f 420 422 423
f 419 423 191
f 419 191 186
f 418 420 423
f 418 423 419
f 184 192 420
f 184 420 418
f 422 421 194
f 422 194 193
f 192 194 421
f 192 421 420
f 191 193 194
f 191 194 192
f 423 422 193
f 423 193 191
f 424 197 170
f 424 170 425
f 426 403 159
f 426 159 427
f 428 395 403
f 428 403 426
f 425 170 396
f 425 396 429
f 406 430 431
f 406 431 407
f 424 432 433
f 424 433 427
f 434 435 406
f 434 406 405
f 436 437 438
f 436 438 439
f 440 441 442
f 440 442 430
f 438 443 444
f 438 444 445
f 435 440 430
f 435 430 406
f 437 446 443
f 437 443 438
f 442 447 448
f 442 448 449
f 446 450 451
f 446 451 443
f 430 442 449
f 430 449 431
f 443 451 452
f 443 452 444
f 453 454 455
f 453 455 456
f 451 453 456
f 451 456 452
f 441 457 447
f 441 447 442
f 450 458 453
f 450 453 451
f 459 460 461
f 459 461 462
f 457 459 462
f 457 462 447
f 458 463 454
f 458 454 453
f 447 462 464
f 447 464 448
f 461 465 466
f 461 466 467
f 463 468 469
f 463 469 454
f 462 461 467
f 462 467 464
f 454 469 470
f 454 470 455
f 471 472 466
f 471 466 465
f 469 473 474
f 469 474 470
f 460 471 465
f 460 465 461
f 468 472 473
f 468 473 469
f 429 475 476
f 429 476 425
f 428 477 475
f 428 475 429
f 427 433 478
f 427 478 426
f 432 436 439
f 432 439 433
f 479 478 433
f 479 433 439
f 434 477 478
f 434 478 479
f 475 405 408
f 475 408 476
f 439 438 445
f 439 445 479
f 405 475 477
f 405 477 434
f 476 408 436
f 476 436 432
f 426 478 477
f 426 477 428
f 467 466 472
f 467 472 468
f 470 474 471
f 470 471 460
f 474 473 472
f 474 472 471
f 464 467 468
f 464 468 463
f 448 464 463
f 448 463 458
f 456 455 459
f 456 459 457
f 455 470 460
f 455 460 459
f 449 448 458
f 449 458 450
f 452 456 457
f 452 457 441
f 431 449 450
f 431 450 446
f 407 431 446
f 407 446 437
f 445 444 440
f 445 440 435
f 444 452 441
f 444 441 440
f 408 407 437
f 408 437 436
f 479 445 435
f 479 435 434
f 425 476 432
f 425 432 424
f 429 396 395
f 429 395 428
f 427 159 197
f 427 197 424
f 169 170 197
f 169 197 409
f 148 149 401
f 148 401 393
f 367 402 400
f 367 400 391
f 412 403 395
f 412 395 394
f 125 148 393
f 125 393 392
f 360 367 391
f 360 391 362
f 330 329 361
f 330 361 281
f 329 360 362
f 329 362 361
f 297 304 320
f 297 320 322
f 278 285 317
f 278 317 303
f 319 318 323
f 319 323 331
f 305 319 331
f 305 331 324
f 306 305 324
f 306 324 321
f 67 325 323
f 67 323 61
f 298 297 322
f 298 322 316
f 304 306 321
f 304 321 320
f 285 296 315
f 285 315 317
f 296 298 316
f 296 316 315
f 279 278 303
f 279 303 284
f 286 308 280
f 286 280 284
f 308 330 281
f 308 281 280
f 149 262 255
f 149 255 169
f 149 169 409
f 149 409 401
f 146 171 410
f 146 410 386
f 402 480 481
f 402 481 400
f 386 410 412
f 386 412 402
f 401 409 398
f 401 398 399
f 399 398 171
f 399 171 146
f 169 255 482
f 169 482 397
f 480 483 484
f 480 484 481
f 485 486 483
f 485 483 480
f 481 484 487
f 481 487 488
f 400 481 488
f 400 488 388
f 388 488 262
f 388 262 149
f 394 489 485
f 394 485 412
f 397 482 489
f 397 489 394
f 412 485 480
f 412 480 402
f 483 490 491
f 483 491 484
f 482 492 493
f 482 493 494
f 494 493 495
f 494 495 496
f 482 494 496
f 482 496 489
f 489 496 486
f 489 486 485
f 255 271 492
f 255 492 482
f 486 497 490
f 486 490 483
f 488 498 273
f 488 273 262
f 490 497 495
f 490 495 491
f 499 493 277
f 499 277 276
f 491 495 493
f 491 493 499
f 273 276 277
f 273 277 271
f 498 499 276
f 498 276 273
f 271 277 493
f 271 493 492
f 496 495 497
f 496 497 486
f 487 499 498
f 487 498 488
f 262 273 271
f 262 271 255
f 484 491 499
f 484 499 487
f 1 3 2
f 4 2 3
f 8 7 6
f 6 5 8
f 12 11 10
f 10 9 12
f 9 10 6
f 6 13 9
f 15 14 7
f 7 8 15
f 19 18 17
f 17 16 19
f 21 20 18
f 18 19 21
f 25 24 23
f 23 22 25
f 22 23 20
f 20 21 22
f 35 34 33
f 33 32 35
f 32 33 24
f 24 25 32
f 36 19 16
f 16 13 36
f 44 43 16
f 16 17 44
f 46 45 34
f 34 35 46
f 50 49 48
f 48 47 50
f 52 25 22
f 22 51 52
f 47 48 45
f 45 46 47
f 51 22 21
f 21 53 51
f 59 46 35
f 35 58 59
f 60 32 25
f 25 52 60
f 62 56 57
f 57 61 62
f 63 47 46
f 46 59 63
f 65 64 49
f 49 50 65
f 64 65 67
f 67 66 64
f 72 71 70
f 70 69 72
f 49 68 73
f 73 48 49
f 74 50 47
f 47 63 74
f 62 65 50
f 50 74 62
f 48 73 75
f 75 45 48
f 53 21 19
f 19 36 53
f 58 35 32
f 32 60 58
f 69 70 43
f 43 44 69
f 3 82 18
f 18 80 3
f 2 83 44
f 44 17 2
f 91 90 1
f 1 89 91
f 89 1 2
f 2 17 89
f 82 89 17
f 17 18 82
f 95 94 93
f 93 92 95
f 92 93 82
f 82 3 92
f 93 91 89
f 89 82 93
f 97 96 94
f 94 95 97
f 94 98 91
f 91 93 94
f 98 99 90
f 90 91 98
f 101 100 96
f 96 97 101
f 96 102 98
f 98 94 96
f 102 103 99
f 99 98 102
f 106 105 101
f 101 104 106
f 100 107 102
f 102 96 100
f 104 101 97
f 97 103 104
f 107 104 103
f 103 102 107
f 110 109 108
f 108 105 110
f 111 106 104
f 104 107 111
f 105 108 100
f 100 101 105
f 108 111 107
f 107 100 108
f 109 110 113
f 113 112 109
f 109 112 111
f 111 108 109
f 113 110 105
f 105 106 113
f 112 113 106
f 106 111 112
f 103 97 95
f 95 99 103
f 99 95 92
f 92 90 99
f 90 92 3
f 3 1 90
f 115 114 71
f 71 72 115
f 118 117 88
f 88 116 118
f 116 88 11
f 11 12 116
f 120 119 72
f 72 69 120
f 122 124 114
f 114 115 122
f 121 115 72
f 72 126 121
f 129 128 127
f 127 119 129
f 127 130 86
f 86 126 127
f 327 364 371
f 371 86 327
f 130 120 69
f 69 86 130
f 119 127 126
f 126 72 119
f 370 365 328
f 328 126 370
f 133 132 129
f 129 131 133
f 131 129 119
f 119 120 131
f 134 131 120
f 120 130 134
f 128 134 130
f 130 127 128
f 138 137 136
f 136 135 138
f 136 133 131
f 131 134 136
f 135 136 134
f 134 128 135
f 132 135 128
f 128 129 132
f 142 141 140
f 140 139 142
f 140 138 135
f 135 132 140
f 139 140 132
f 132 133 139
f 137 139 133
f 133 136 137
f 144 141 142
f 142 143 144
f 143 142 139
f 139 137 143
f 144 143 137
f 137 138 144
f 141 144 138
f 138 140 141
f 151 147 117
f 117 118 151
f 155 154 153
f 153 152 155
f 156 150 147
f 147 151 156
f 145 157 124
f 124 122 145
f 161 160 159
f 159 158 161
f 165 164 163
f 163 162 165
f 168 158 167
f 167 166 168
f 172 168 166
f 166 171 172
f 176 175 168
f 168 172 176
f 175 161 158
f 158 168 175
f 177 174 161
f 161 175 177
f 182 179 177
f 177 178 182
f 184 183 180
f 180 181 184
f 179 180 174
f 174 177 179
f 183 185 174
f 174 180 183
f 190 189 188
f 188 187 190
f 187 188 185
f 185 183 187
f 190 194 193
f 193 189 190
f 194 190 187
f 187 192 194
f 197 170 196
f 196 195 197
f 158 159 199
f 199 198 158
f 155 158 198
f 198 200 155
f 170 154 201
f 201 196 170
f 203 202 164
f 164 165 203
f 205 204 199
f 199 195 205
f 207 165 162
f 162 206 207
f 211 210 209
f 209 208 211
f 214 213 203
f 203 212 214
f 217 216 215
f 215 210 217
f 212 203 165
f 165 207 212
f 218 217 210
f 210 211 218
f 221 220 219
f 219 213 221
f 223 222 217
f 217 218 223
f 213 219 202
f 202 203 213
f 222 224 216
f 216 217 222
f 228 227 226
f 226 225 228
f 225 226 224
f 224 222 225
f 229 221 213
f 213 214 229
f 230 225 222
f 222 223 230
f 234 233 232
f 232 231 234
f 231 232 221
f 221 229 231
f 235 228 225
f 225 230 235
f 232 236 220
f 220 221 232
f 239 238 237
f 237 233 239
f 241 240 228
f 228 235 241
f 233 237 236
f 236 232 233
f 240 242 227
f 227 228 240
f 244 238 239
f 239 243 244
f 246 245 242
f 242 240 246
f 243 239 233
f 233 234 243
f 244 246 240
f 240 241 244
f 248 247 196
f 196 201 248
f 249 248 201
f 201 200 249
f 204 250 198
f 198 199 204
f 208 209 204
f 204 205 208
f 250 204 209
f 209 251 250
f 249 250 251
f 251 206 249
f 162 163 247
f 247 248 162
f 210 215 251
f 251 209 210
f 248 249 206
f 206 162 248
f 163 208 205
f 205 247 163
f 250 249 200
f 200 198 250
f 238 244 241
f 241 237 238
f 245 243 234
f 234 242 245
f 246 244 243
f 243 245 246
f 237 241 235
f 235 236 237
f 236 235 230
f 230 220 236
f 227 231 229
f 229 226 227
f 242 234 231
f 231 227 242
f 220 230 223
f 223 219 220
f 226 229 214
f 214 224 226
f 219 223 218
f 218 202 219
f 202 218 211
f 211 164 202
f 216 212 207
f 207 215 216
f 224 214 212
f 212 216 224
f 164 211 208
f 208 163 164
f 215 207 206
f 206 251 215
f 247 205 195
f 195 196 247
f 154 155 200
f 200 201 154
f 159 197 195
f 195 199 159
f 157 156 151
f 151 124 157
f 158 155 152
f 152 167 158
f 124 151 118
f 118 114 124
f 71 116 12
f 12 70 71
f 114 118 116
f 116 71 114
f 37 58 60
f 60 30 37
f 14 53 36
f 36 7 14
f 56 62 74
f 74 55 56
f 55 74 63
f 63 41 55
f 41 63 59
f 59 40 41
f 65 62 61
f 61 67 65
f 30 60 52
f 52 29 30
f 40 59 58
f 58 37 40
f 26 51 53
f 53 14 26
f 29 52 51
f 51 26 29
f 7 36 13
f 13 6 7
f 43 9 13
f 13 16 43
f 70 12 9
f 9 43 70
f 253 252 156
f 156 157 253
f 166 167 157
f 157 145 166
f 257 256 252
f 252 253 257
f 259 257 253
f 253 258 259
f 256 261 260
f 260 252 256
f 252 260 150
f 150 156 252
f 260 262 149
f 149 150 260
f 263 258 167
f 167 152 263
f 254 263 152
f 152 153 254
f 258 253 157
f 157 167 258
f 265 264 256
f 256 257 265
f 268 267 266
f 266 254 268
f 267 270 269
f 269 266 267
f 266 269 263
f 263 254 266
f 269 259 258
f 258 263 269
f 271 268 254
f 254 255 271
f 272 265 257
f 257 259 272
f 274 273 262
f 262 260 274
f 272 270 264
f 264 265 272
f 267 277 276
f 276 275 267
f 270 267 275
f 275 264 270
f 275 276 273
f 273 274 275
f 277 267 268
f 268 271 277
f 270 272 259
f 259 269 270
f 275 274 260
f 260 261 275
f 264 275 261
f 261 256 264
f 279 278 8
f 8 5 279
f 283 282 281
f 281 280 283
f 279 283 280
f 280 284 279
f 278 285 15
f 15 8 278
f 289 288 287
f 287 286 289
f 288 291 290
f 290 287 288
f 295 294 293
f 293 292 295
f 291 295 292
f 292 290 291
f 302 301 300
f 300 299 302
f 294 302 299
f 299 293 294
f 286 287 303
f 303 284 286
f 286 308 307
f 307 289 286
f 301 310 309
f 309 300 301
f 314 313 312
f 312 311 314
f 292 293 316
f 316 315 292
f 310 314 311
f 311 309 310
f 290 292 315
f 315 317 290
f 300 309 321
f 321 320 300
f 293 299 322
f 322 316 293
f 57 318 323
f 323 61 57
f 309 311 324
f 324 321 309
f 313 326 325
f 325 312 313
f 67 325 326
f 326 66 67
f 330 329 328
f 328 327 330
f 73 68 313
f 313 314 73
f 311 312 331
f 331 324 311
f 312 325 323
f 323 331 312
f 75 73 314
f 314 310 75
f 287 290 317
f 317 303 287
f 299 300 320
f 320 322 299
f 308 330 327
f 327 307 308
f 288 332 3
f 3 80 288
f 307 83 2
f 2 289 307
f 4 336 335
f 335 334 4
f 2 4 334
f 334 289 2
f 289 334 332
f 332 288 289
f 340 339 338
f 338 337 340
f 332 340 337
f 337 3 332
f 334 335 340
f 340 332 334
f 339 342 341
f 341 338 339
f 335 343 339
f 339 340 335
f 336 344 343
f 343 335 336
f 342 346 345
f 345 341 342
f 343 347 342
f 342 339 343
f 344 348 347
f 347 343 344
f 345 351 350
f 350 349 345
f 347 352 346
f 346 342 347
f 341 345 349
f 349 348 341
f 348 349 352
f 352 347 348
f 355 354 353
f 353 351 355
f 349 350 356
f 356 352 349
f 346 355 351
f 351 345 346
f 352 356 355
f 355 346 352
f 358 353 354
f 354 357 358
f 356 357 354
f 354 355 356
f 351 353 358
f 358 350 351
f 350 358 357
f 357 356 350
f 338 341 348
f 348 344 338
f 337 338 344
f 344 336 337
f 3 337 336
f 336 4 3
f 329 360 359
f 359 328 329
f 333 363 362
f 362 361 333
f 282 333 361
f 361 281 282
f 328 365 364
f 364 327 328
f 360 367 366
f 366 359 360
f 328 359 121
f 121 126 328
f 370 369 368
f 368 365 370
f 86 371 370
f 370 126 86
f 368 374 373
f 373 372 368
f 365 368 372
f 372 364 365
f 364 372 375
f 375 371 364
f 371 375 369
f 369 370 371
f 379 378 377
f 377 376 379
f 372 373 379
f 379 375 372
f 375 379 376
f 376 369 375
f 369 376 374
f 374 368 369
f 383 382 381
f 381 380 383
f 376 377 383
f 383 374 376
f 374 383 380
f 380 373 374
f 373 380 378
f 378 379 373
f 381 382 385
f 385 384 381
f 380 381 384
f 384 378 380
f 378 384 385
f 385 377 378
f 377 385 382
f 382 383 377
f 363 387 391
f 391 362 363
f 397 396 395
f 395 394 397
f 387 388 400
f 400 391 387
f 367 402 386
f 386 366 367
f 159 160 404
f 404 403 159
f 408 407 406
f 406 405 408
f 412 403 411
f 411 410 412
f 410 411 172
f 172 171 410
f 411 414 176
f 176 172 411
f 403 404 414
f 414 411 403
f 404 413 415
f 415 414 404
f 415 416 182
f 182 178 415
f 417 418 184
f 184 181 417
f 413 417 416
f 416 415 413
f 413 419 418
f 418 417 413
f 423 422 421
f 421 420 423
f 419 423 420
f 420 418 419
f 193 194 421
f 421 422 193
f 420 421 194
f 194 192 420
f 425 170 197
f 197 424 425
f 427 159 403
f 403 426 427
f 426 403 395
f 395 428 426
f 429 396 170
f 170 425 429
f 407 431 430
f 430 406 407
f 427 433 432
f 432 424 427
f 405 406 435
f 435 434 405
f 439 438 437
f 437 436 439
f 430 442 441
f 441 440 430
f 445 444 443
f 443 438 445
f 406 430 440
f 440 435 406
f 438 443 446
f 446 437 438
f 449 448 447
f 447 442 449
f 443 451 450
f 450 446 443
f 431 449 442
f 442 430 431
f 444 452 451
f 451 443 444
f 456 455 454
f 454 453 456
f 452 456 453
f 453 451 452
f 442 447 457
f 457 441 442
f 451 453 458
f 458 450 451
f 462 461 460
f 460 459 462
f 447 462 459
f 459 457 447
f 453 454 463
f 463 458 453
f 448 464 462
f 462 447 448
f 467 466 465
f 465 461 467
f 454 469 468
f 468 463 454
f 464 467 461
f 461 462 464
f 455 470 469
f 469 454 455
f 465 466 472
f 472 471 465
f 470 474 473
f 473 469 470
f 461 465 471
f 471 460 461
f 469 473 472
f 472 468 469
f 425 476 475
f 475 429 425
f 429 475 477
f 477 428 429
f 426 478 433
f 433 427 426
f 433 439 436
f 436 432 433
f 439 433 478
f 478 479 439
f 479 478 477
f 477 434 479
f 476 408 405
f 405 475 476
f 479 445 438
f 438 439 479
f 434 477 475
f 475 405 434
f 432 436 408
f 408 476 432
f 428 477 478
f 478 426 428
f 468 472 466
f 466 467 468
f 460 471 474
f 474 470 460
f 471 472 473
f 473 474 471
f 463 468 467
f 467 464 463
f 458 463 464
f 464 448 458
f 457 459 455
f 455 456 457
f 459 460 470
f 470 455 459
f 450 458 448
f 448 449 450
f 441 457 456
f 456 452 441
f 446 450 449
f 449 431 446
f 437 446 431
f 431 407 437
f 435 440 444
f 444 445 435
f 440 441 452
f 452 444 440
f 436 437 407
f 407 408 436
f 434 435 445
f 445 479 434
f 424 432 476
f 476 425 424
f 428 395 396
f 396 429 428
f 424 197 159
f 159 427 424
f 391 400 402
f 402 367 391
f 394 395 403
f 403 412 394
f 362 391 367
f 367 360 362
f 281 361 329
f 329 330 281
f 361 362 360
f 360 329 361
f 322 320 304
f 304 297 322
f 303 317 285
f 285 278 303
f 331 323 318
f 318 319 331
f 324 331 319
f 319 305 324
f 321 324 305
f 305 306 321
f 61 323 325
f 325 67 61
f 316 322 297
f 297 298 316
f 320 321 306
f 306 304 320
f 317 315 296
f 296 285 317
f 315 316 298
f 298 296 315
f 284 303 278
f 278 279 284
f 284 280 308
f 308 286 284
f 280 281 330
f 330 308 280
f 400 481 480
f 480 402 400
f 402 412 410
f 410 386 402
f 481 484 483
f 483 480 481
f 480 483 486
f 486 485 480
f 488 487 484
f 484 481 488
f 388 488 481
f 481 400 388
f 149 262 488
f 488 388 149
f 412 485 489
f 489 394 412
f 394 489 482
f 482 397 394
f 402 480 485
f 485 412 402
f 484 491 490
f 490 483 484
f 494 493 492
f 492 482 494
f 496 495 493
f 493 494 496
f 489 496 494
f 494 482 489
f 485 486 496
f 496 489 485
f 482 492 271
f 271 255 482
f 483 490 497
f 497 486 483
f 262 273 498
f 498 488 262
f 491 495 497
f 497 490 491
f 276 277 493
f 493 499 276
f 499 493 495
f 495 491 499
f 273 276 499
f 499 498 273
f 492 493 277
f 277 271 492
f 486 497 495
f 495 496 486
f 488 498 499
f 499 487 488
f 487 499 491
f 491 484 487