# https://github.com/mikedh/trimesh
v -0.00106008 0.00155376 0.10625205
v -0.00106008 -0.01941391 0.10349169
v 0.01137095 -0.01540959 0.10401882
v 0.01905353 -0.00492575 0.10539914
v 0.01905353 0.00803327 0.10710525
v 0.01137095 0.01851710 0.10848528
v -0.00106008 0.02252143 0.10901241
v -0.01349081 0.01851710 0.10848528
v -0.02117368 0.00803327 0.10710525
v -0.02117368 -0.00492575 0.10539914
v -0.01349081 -0.01540959 0.10401882
v -0.00106008 -0.02155779 0.10276382
v 0.01267585 -0.01713281 0.10334635
v 0.02116521 -0.00554832 0.10487173
v 0.02116521 0.00877101 0.10675683
v 0.01267585 0.02035579 0.10828192
v -0.00106008 0.02478049 0.10886446
v -0.01479600 0.02035579 0.10828192
v -0.02328536 0.00877101 0.10675683
v -0.02328536 -0.00554832 0.10487173
v -0.01479600 -0.01713281 0.10334635
v -0.00106008 -0.02325985 0.10127122
v 0.01378230 -0.01847833 0.10190076
v 0.02295545 -0.00596085 0.10354856
v 0.02295545 0.00951194 0.10558568
v 0.01378230 0.02202970 0.10723377
v -0.00106008 0.02681093 0.10786330
v -0.01590246 0.02202970 0.10723377
v -0.02507560 0.00951194 0.10558568
v -0.02507560 -0.00596085 0.10354856
v -0.01590246 -0.01847833 0.10190076
v -0.00106008 -0.02426100 0.09924078
v 0.01452178 -0.01924159 0.09990164
v 0.02415155 -0.00610039 0.10163183
v 0.02415155 0.01014291 0.10377020
v 0.01452178 0.02328412 0.10550039
v -0.00106008 0.02830353 0.10616096
v -0.01664165 0.02328412 0.10550039
v -0.02627171 0.01014291 0.10377020
v -0.02627171 -0.00610039 0.10163183
v -0.01664165 -0.01924159 0.09990164
v -0.00106008 -0.02440924 0.09698173
v 0.01478114 -0.01930600 0.09765361
v 0.02457162 -0.00594576 0.09941252
v 0.02457162 0.01056821 0.10158658
v 0.01478114 0.02392815 0.10334548
v -0.00106008 0.02903140 0.10401737
v -0.01690129 0.02392815 0.10334548
v -0.02669178 0.01056821 0.10158658
v -0.02669178 -0.00594576 0.09941252
v -0.01690129 -0.01930600 0.09765361
v -0.00106008 -0.02012264 0.06442288
v 0.01478114 -0.01501969 0.06509477
v 0.02457162 -0.00165945 0.06685368
v 0.02457162 0.01485452 0.06902773
v 0.01478114 0.02821475 0.07078664
v -0.00106008 0.03331771 0.07145853
v -0.01690129 0.02821475 0.07078664
v -0.02669178 0.01485452 0.06902773
v -0.02669178 -0.00165945 0.06685368
v -0.01690129 -0.01501969 0.06509477
v -0.00106008 -0.01939506 0.06227900
v 0.01452178 -0.01437536 0.06293986
v 0.02415155 -0.00123416 0.06467006
v 0.02415155 0.01500914 0.06680842
v 0.01452178 0.02815035 0.06853861
v -0.00106008 0.03316976 0.06919947
v -0.01664165 0.02815035 0.06853861
v -0.02627171 0.01500914 0.06680842
v -0.02627171 -0.00123416 0.06467006
v -0.01664165 -0.01437536 0.06293986
v -0.00106008 -0.01790218 0.06057695
v 0.01378230 -0.01312094 0.06120648
v 0.02295545 -0.00060318 0.06285457
v 0.02295545 0.01486931 0.06489140
v 0.01378230 0.02738708 0.06653950
v -0.00106008 0.03216831 0.06716902
v -0.01590246 0.02738708 0.06653950
v -0.02507560 0.01486931 0.06489140
v -0.02507560 -0.00060318 0.06285457
v -0.01590246 -0.01312094 0.06120648
v -0.00106008 -0.01587202 0.05957580
v 0.01267585 -0.01144704 0.06015833
v 0.02116521 0.00013746 0.06168342
v 0.02116521 0.01445678 0.06356852
v 0.01267585 0.02604157 0.06509361
v -0.00106008 0.03046626 0.06567643
v -0.01479600 0.02604157 0.06509361
v -0.02328536 0.01445678 0.06356852
v -0.02328536 0.00013746 0.06168342
v -0.01479600 -0.01144704 0.06015833
v -0.00106008 -0.01361296 0.05942755
v 0.01137095 -0.00960835 0.05995497
v 0.01905353 0.00087549 0.06133500
v 0.01905353 0.01383422 0.06304111
v 0.01137095 0.02431805 0.06442144
v -0.00106008 0.02832267 0.06494855
v -0.01349081 0.02431805 0.06442144
v -0.02117368 0.01383422 0.06304111
v -0.02117368 0.00087549 0.06133500
v -0.01349081 -0.00960835 0.05995497
v -0.00106008 0.00735500 0.06218820
v -0.00077635 -0.04225364 0.06268138
v -0.00069483 -0.04193278 0.06085459
v 0.02286755 -0.03571640 0.06299876
v 0.02278574 -0.03603725 0.06482555
v 0.04002932 -0.01869329 0.06675418
v 0.03994751 -0.01901415 0.06858126
v 0.04619203 0.00457521 0.07111475
v 0.04611051 0.00425435 0.07294184
v 0.03970469 0.02785444 0.07491194
v 0.03962317 0.02753358 0.07673874
v 0.02230561 0.04490656 0.07712806
v 0.02222380 0.04458570 0.07895514
v -0.00134351 0.05116240 0.07716984
v -0.00142532 0.05084154 0.07899663
v -0.02490589 0.04494601 0.07502567
v -0.02498741 0.04462516 0.07685246
v -0.04206767 0.02792262 0.07126996
v -0.04214919 0.02760205 0.07309675
v -0.04823067 0.00465411 0.06690938
v -0.04831219 0.00433355 0.06873646
v -0.04174333 -0.01862483 0.06311219
v -0.04182485 -0.01894568 0.06493927
v -0.02434395 -0.03567695 0.06089607
v -0.02442547 -0.03599751 0.06272286
v -0.00110098 0.00429381 0.07083915
v -0.00101917 0.00461466 0.06901206
v 0.01168891 -0.02269762 0.04486512
v 0.01128914 -0.02130337 0.04486512
v 0.01032222 -0.02158071 0.04184774
v 0.01072198 -0.02297496 0.04184774
v 0.01233352 -0.02251282 0.04151237
v 0.01193375 -0.02111858 0.04151237
v 0.01311535 -0.02077973 0.04497681
v 0.01351512 -0.02217398 0.04497681
v 0.01340778 -0.02220473 0.04777082
v 0.01300801 -0.02081048 0.04777082
v 0.01472689 -0.02031759 0.04687671
v 0.01512665 -0.02171184 0.04687671
v 0.01598624 -0.02146554 0.05000580
v 0.01558618 -0.02007129 0.05000580
v 0.01633814 -0.01985546 0.04855324
v 0.01673819 -0.02124999 0.04855324
v 0.01781245 -0.02094190 0.05022947
v 0.01741269 -0.01954736 0.05022947
v 0.01784233 -0.01942436 0.04888831
v 0.01824210 -0.02081861 0.04888831
v 0.02049825 -0.02017167 0.04989411
v 0.02009819 -0.01877742 0.04989411
v 0.01988351 -0.01883893 0.04799420
v 0.02028328 -0.02023346 0.04799420
v 0.02221683 -0.01967878 0.04810618
v 0.02181707 -0.01828453 0.04810618
v 0.02170973 -0.01831529 0.04587092
v 0.02210950 -0.01970953 0.04587092
v 0.02372103 -0.01924769 0.04642966
v 0.02332127 -0.01785315 0.04642966
v 0.02479529 -0.01893959 0.04330058
v 0.02439553 -0.01754505 0.04330058
v 0.02289133 -0.01797644 0.04341227
v 0.02329110 -0.01937069 0.04341227
v 0.02576222 -0.01866225 0.04072996
v 0.02536216 -0.01726800 0.04072996
v 0.02404334 -0.01915514 0.04072996
v 0.02364328 -0.01776089 0.04072996
v -0.01311513 -0.02275071 0.04389646
v -0.01197472 -0.02322271 0.04079175
v -0.01123814 -0.02194190 0.04077261
v -0.01238377 -0.02146989 0.04387906
v -0.01353027 -0.02243566 0.04048279
v -0.01497702 -0.02185863 0.04407227
v -0.01424973 -0.02057811 0.04405602
v -0.01279514 -0.02115484 0.04046393
v -0.01533937 -0.02191144 0.04702554
v -0.01462484 -0.02063062 0.04701393
v -0.01697005 -0.02107216 0.04614942
v -0.01625726 -0.01979134 0.04613840
v -0.01819662 -0.02065238 0.04942994
v -0.01750964 -0.01937185 0.04942790
v -0.01883688 -0.02028510 0.04795968
v -0.01814353 -0.01900458 0.04795533
v -0.01988735 -0.01976059 0.04965825
v -0.01920647 -0.01847977 0.04965825
v -0.02028218 -0.01955056 0.04831709
v -0.01960102 -0.01827003 0.04831709
v -0.02235441 -0.01844902 0.04932289
v -0.02167324 -0.01716821 0.04932289
v -0.02220123 -0.01855404 0.04744764
v -0.02152935 -0.01727323 0.04745287
v -0.02407590 -0.01760946 0.04761445
v -0.02341068 -0.01632893 0.04762345
v -0.02424561 -0.01766255 0.04552918
v -0.02359113 -0.01638173 0.04554397
v -0.02577534 -0.01687549 0.04611548
v -0.02512260 -0.01559467 0.04613115
v -0.02723021 -0.01635127 0.04324750
v -0.02658908 -0.01507074 0.04326983
v -0.02573675 -0.01708582 0.04329681
v -0.02509301 -0.01580500 0.04331770
v -0.02826618 -0.01587927 0.04075984
v -0.02762795 -0.01459874 0.04078362
v -0.02662389 -0.01671884 0.04072415
v -0.02598450 -0.01543802 0.04074737
v 0.01637962 -0.02124883 0.01594275
v 0.01637556 -0.01980005 0.01586936
v 0.01840398 -0.01967646 0.01819861
v 0.01840775 -0.02112525 0.01827201
v 0.01741095 -0.02106549 0.01950699
v 0.01740689 -0.01961670 0.01943359
v 0.01504021 -0.01976378 0.01666019
v 0.01504398 -0.02121228 0.01673358
v 0.01345101 -0.02141942 0.01272693
v 0.01344694 -0.01997092 0.01265354
v 0.01199816 -0.01994597 0.01322214
v 0.01200222 -0.02139475 0.01329554
v 0.00907041 -0.02158826 0.00963325
v 0.00906635 -0.02013947 0.00956014
v 0.00840520 -0.02007332 0.01090420
v 0.00840926 -0.02152182 0.01097760
v 0.00514934 -0.02166542 0.00832226
v 0.00514528 -0.02021664 0.00824886
v 0.00481804 -0.02016094 0.00936751
v 0.00482211 -0.02160972 0.00944091
v 0.00090017 -0.02169241 0.00801823
v 0.00089640 -0.02024362 0.00794483
v 0.00101766 -0.02017573 0.00928338
v 0.00102172 -0.02162423 0.00935678
v -0.00390050 -0.02166977 0.00872261
v -0.00390427 -0.02022128 0.00864921
v -0.00355963 -0.02015252 0.00998630
v -0.00355557 -0.02160131 0.01005941
v -0.00847199 -0.02160711 0.01020679
v -0.00847605 -0.02015862 0.01013339
v -0.00790831 -0.02009508 0.01135705
v -0.00790454 -0.02154387 0.01143045
v -0.01181284 -0.02153053 0.01190506
v -0.01181661 -0.02008174 0.01183167
v -0.01102636 -0.02002343 0.01294219
v -0.01102259 -0.02147192 0.01301559
v -0.01514558 -0.02139708 0.01471967
v -0.01514935 -0.01994829 0.01464627
v -0.01402635 -0.01990622 0.01541940
v -0.01402228 -0.02135472 0.01549280
v -0.01791637 -0.02123984 0.01797669
v -0.01792043 -0.01979105 0.01790329
v -0.01679715 -0.01974870 0.01867642
v -0.01679337 -0.02119748 0.01874981
v -0.01968689 -0.02111945 0.02044490
v -0.01969095 -0.01967095 0.02037180
v -0.01812003 -0.02109885 0.02076866
v -0.01812409 -0.01965035 0.02069526
v -0.04553298 0.01486787 0.03936965
v -0.04683845 0.01116264 0.03864062
v -0.04474244 0.01144897 0.03960174
v -0.04291303 0.01365203 0.04002384
v -0.04242160 0.01648143 0.03965976
v -0.04355620 0.01827980 0.03872272
v -0.04565192 0.01799317 0.03776160
v -0.04748162 0.01579011 0.03733950
v -0.04797306 0.01296071 0.03770357
v -0.04727390 0.00772779 0.03664614
v -0.04340128 0.00825694 0.03842217
v -0.04002068 0.01232770 0.03920226
v -0.03911265 0.01755569 0.03852951
v -0.04120924 0.02087827 0.03679787
v -0.04508186 0.02034912 0.03502213
v -0.04846246 0.01627807 0.03424204
v -0.04937049 0.01105007 0.03491479
v -0.04677347 0.00508608 0.03369025
v -0.04171345 0.00577741 0.03601052
v -0.03729659 0.01109649 0.03702966
v -0.03611006 0.01792703 0.03615064
v -0.03884924 0.02226817 0.03388839
v -0.04390926 0.02157685 0.03156842
v -0.04832611 0.01625776 0.03054928
v -0.04951235 0.00942722 0.03142801
v -0.04541258 0.00364019 0.03022291
v -0.03993597 0.00438838 0.03273436
v -0.03515503 0.01014553 0.03383734
v -0.03387102 0.01753915 0.03288608
v -0.03683561 0.02223771 0.03043730
v -0.04231252 0.02148953 0.02792585
v -0.04709316 0.01573238 0.02682287
v -0.04837746 0.00833875 0.02777413
v -0.04339925 0.00360973 0.02677182
v -0.03833923 0.00430106 0.02909179
v -0.03392237 0.00962014 0.03011093
v -0.03273584 0.01645068 0.02923220
v -0.03547502 0.02079182 0.02696996
v -0.04053475 0.02010050 0.02464969
v -0.04495189 0.01478141 0.02363055
v -0.04613814 0.00795088 0.02450957
v -0.04103924 0.00499963 0.02386235
v -0.03716662 0.00552878 0.02563808
v -0.03378602 0.00959984 0.02641818
v -0.03287799 0.01482783 0.02574542
v -0.03497429 0.01815041 0.02401407
v -0.03884691 0.01762096 0.02223805
v -0.04222751 0.01355020 0.02145824
v -0.04313554 0.00832221 0.02213100
v -0.03869229 0.00759840 0.02193750
v -0.03659627 0.00788473 0.02289862
v -0.03476687 0.01008779 0.02332072
v -0.03427543 0.01291719 0.02295664
v -0.03541003 0.01471527 0.02201959
v -0.03750575 0.01442893 0.02105848
v -0.03933545 0.01222587 0.02063637
v -0.03982689 0.00939647 0.02100046
v -0.03671551 0.01101004 0.02129056
v 0.04706119 0.01486787 0.04480333
v 0.04627066 0.01144897 0.04503513
v 0.04836667 0.01116264 0.04407429
v 0.04444125 0.01365203 0.04545752
v 0.04394981 0.01648143 0.04509343
v 0.04508441 0.01827980 0.04415639
v 0.04718013 0.01799317 0.04319527
v 0.04900983 0.01579011 0.04277317
v 0.04950127 0.01296071 0.04313725
v 0.04492949 0.00825694 0.04385584
v 0.04880240 0.00772779 0.04207982
v 0.04154918 0.01232770 0.04463565
v 0.04064115 0.01755569 0.04396289
v 0.04273746 0.02087827 0.04223154
v 0.04661008 0.02034912 0.04045581
v 0.04999068 0.01627807 0.03967571
v 0.05089871 0.01105007 0.04034847
v 0.04324166 0.00577741 0.04144420
v 0.04830168 0.00508608 0.03912393
v 0.03882481 0.01109649 0.04246334
v 0.03763856 0.01792703 0.04158432
v 0.04037744 0.02226817 0.03932207
v 0.04543747 0.02157685 0.03700181
v 0.04985433 0.01625776 0.03598267
v 0.05104057 0.00942722 0.03686169
v 0.04146419 0.00438838 0.03816774
v 0.04694109 0.00364019 0.03565659
v 0.03668324 0.01014553 0.03927101
v 0.03539923 0.01753915 0.03831947
v 0.03836382 0.02223771 0.03587098
v 0.04384072 0.02148953 0.03335953
v 0.04862167 0.01573238 0.03225656
v 0.04990568 0.00833875 0.03320781
v 0.03986744 0.00430106 0.03452547
v 0.04492747 0.00360973 0.03220521
v 0.03545058 0.00962014 0.03554461
v 0.03426405 0.01645068 0.03466559
v 0.03700323 0.02079182 0.03240335
v 0.04206325 0.02010050 0.03008337
v 0.04648011 0.01478141 0.02906423
v 0.04766635 0.00795088 0.02994325
v 0.03869484 0.00552878 0.03107176
v 0.04256745 0.00499963 0.02929573
v 0.03531424 0.00959984 0.03185156
v 0.03440620 0.01482783 0.03117910
v 0.03650251 0.01815041 0.02944746
v 0.04037542 0.01762096 0.02767172
v 0.04375573 0.01355020 0.02689163
v 0.04466376 0.00832221 0.02756438
v 0.03812449 0.00788473 0.02833229
v 0.04022050 0.00759840 0.02737118
v 0.03629508 0.01008779 0.02875440
v 0.03580364 0.01291719 0.02839032
v 0.03693825 0.01471527 0.02745327
v 0.03903397 0.01442893 0.02649215
v 0.04086366 0.01222587 0.02607005
v 0.04135510 0.00939647 0.02643413
v 0.03824372 0.01101004 0.02672395
v -0.01748847 0.00730945 0.06922529
v -0.03159079 0.00730945 0.06575186
v -0.02829345 -0.00224314 0.06687195
v -0.01541479 0.00082820 0.06643767
v -0.02221255 -0.01086972 0.06575156
v -0.01210643 -0.00691297 0.06535557
v -0.03470972 0.00730945 0.06193581
v -0.03134739 -0.00325213 0.06309420
v -0.02442431 -0.01262922 0.06193581
v -0.01147110 -0.01573857 0.06456823
v -0.00593704 -0.01105481 0.06642055
v 0.00042497 -0.01839913 0.06477769
v 0.00076614 -0.01360252 0.06535557
v -0.01274669 -0.01816994 0.06307418
v 0.00040728 -0.02088823 0.06193581
v 0.00064255 0.02692495 0.07198884
v 0.00042497 0.03301832 0.06574983
v -0.01147110 0.03035806 0.06685252
v -0.00606034 0.02437724 0.07305382
v -0.02221255 0.02548892 0.06575156
v -0.01223001 0.02023511 0.07198884
v 0.00040728 0.03550743 0.06193581
v -0.01274669 0.03278914 0.06307418
v -0.02442431 0.02724841 0.06193581
v -0.02836714 0.01363753 0.06963579
v -0.01553838 0.01249393 0.07059053
v -0.03134739 0.01787133 0.06309420
v -0.03596413 0.00730945 0.05839130
v -0.03273004 -0.00370992 0.05925234
v -0.02531262 -0.01333794 0.05839101
v -0.03667257 0.00730945 0.05464603
v -0.03364706 -0.00401279 0.05521029
v -0.02581566 -0.01373684 0.05464603
v -0.01332400 -0.01927031 0.05923667
v 0.00039857 -0.02188939 0.05838985
v -0.01370549 -0.01999819 0.05519985
v 0.00039538 -0.02245480 0.05464603
v 0.00039857 0.03650858 0.05838985
v -0.01332400 0.03388951 0.05923667
v -0.02531262 0.02795714 0.05839101
v 0.00039538 0.03707400 0.05464603
v -0.01370549 0.03461738 0.05519985
v -0.02581566 0.02835604 0.05464603
v -0.03273004 0.01832911 0.05925234
v -0.03364706 0.01863228 0.05521029
v -0.03789624 0.00730945 0.04731681
v -0.03480429 -0.00439573 0.04770090
v -0.02668221 -0.01442787 0.04731681
v -0.03863542 0.00730945 0.03992317
v -0.03554841 -0.00464116 0.04012741
v -0.02720700 -0.01484446 0.03992317
v -0.01418939 -0.02092043 0.04769365
v 0.00038726 -0.02343043 0.04731623
v -0.01449980 -0.02151283 0.04012364
v 0.00038349 -0.02402108 0.03992317
v 0.00038726 0.03804962 0.04731623
v -0.01418939 0.03553963 0.04769365
v -0.02668221 0.02904707 0.04731681
v 0.00038349 0.03864028 0.03992317
v -0.01449980 0.03613203 0.04012364
v -0.02720700 0.02946395 0.03992317
v -0.03480429 0.01901493 0.04770090
v -0.03554841 0.01926064 0.04012741
v -0.03886316 0.00730945 0.03256291
v -0.03574423 -0.00470643 0.03257625
v -0.02736801 -0.01497385 0.03256291
v -0.03863542 0.00730945 0.02520031
v -0.03555160 -0.00464232 0.02502306
v -0.02720700 -0.01484446 0.02520031
v -0.01458190 -0.02166949 0.03257567
v 0.00038146 -0.02420269 0.03256291
v -0.01450096 -0.02151515 0.02502596
v 0.00038349 -0.02402108 0.02520031
v 0.00038146 0.03882189 0.03256291
v -0.01458190 0.03628868 0.03257567
v -0.02736801 0.02959305 0.03256291
v 0.00038349 0.03864028 0.02520031
v -0.01450096 0.03613463 0.02502596
v -0.02720700 0.02946395 0.02520031
v -0.03574423 0.01932563 0.03257625
v -0.03555160 0.01926151 0.02502306
v -0.03844106 0.00730945 0.02328417
v -0.03535752 -0.00457791 0.02302510
v -0.02706979 -0.01473422 0.02328417
v -0.03819389 0.00730945 0.02137266
v -0.03511848 -0.00449814 0.02103150
v -0.02689485 -0.01459381 0.02137266
v -0.01442089 -0.02135965 0.02302916
v 0.00038349 -0.02386500 0.02328417
v -0.01432167 -0.02116790 0.02103701
v 0.00038349 -0.02366657 0.02137266
v 0.00038349 0.03848420 0.02328417
v -0.01442089 0.03597885 0.02302916
v -0.02706979 0.02935342 0.02328417
v 0.00038349 0.03828577 0.02137266
v -0.01432167 0.03578709 0.02103701
v -0.02689485 0.02921300 0.02137266
v -0.03535752 0.01919711 0.02302510
v -0.03511848 0.01911733 0.02103150
v -0.03814283 0.00730945 0.01550121
v -0.03469202 -0.00435656 0.01469066
v -0.02685859 -0.01456480 0.01550150
v -0.03693599 0.00730945 0.01002344
v -0.03327921 -0.00388659 0.00874320
v -0.02600539 -0.01387986 0.01002344
v -0.01414848 -0.02082992 0.01470429
v 0.00037769 -0.02362364 0.01550295
v -0.01356073 -0.01970141 0.00876322
v 0.00038349 -0.02265672 0.01002344
v 0.00037769 0.03824312 0.01550295
v -0.01414848 0.03544883 0.01470429
v -0.02685859 0.02918400 0.01550150
v 0.00038349 0.03727591 0.01002344
v -0.01356073 0.03432061 0.00876322
v -0.02600539 0.02849905 0.01002344
v -0.03469202 0.01897576 0.01469066
v -0.03327921 0.01850579 0.00874320
v -0.03314431 0.00730945 0.00636057
v -0.02928271 -0.00256139 0.00532982
v -0.02332046 -0.01173366 0.00636115
v -0.02829693 0.00730945 0.00390134
v -0.02438544 -0.00093651 0.00311951
v -0.01988967 -0.00898810 0.00390134
v -0.01190162 -0.01651025 0.00534723
v 0.00038900 -0.01962192 0.00636289
v -0.00986275 -0.01259527 0.00313169
v 0.00040728 -0.01573886 0.00390134
v 0.00038900 0.03424112 0.00636289
v -0.01190162 0.03112944 0.00534723
v -0.02332046 0.02635286 0.00636115
v 0.00040728 0.03035806 0.00390134
v -0.00986275 0.02721447 0.00313169
v -0.01988967 0.02360730 0.00390134
v -0.02928271 0.01718059 0.00532982
v -0.02438544 0.01555571 0.00311951
v -0.01988242 0.00730945 0.00139048
v -0.01705766 0.00149226 0.00095445
v -0.01393235 -0.00422486 0.00139048
v -0.01112442 0.00730945 0.00017377
v -0.00943630 0.00401879 0.00008384
v -0.00773193 0.00073363 0.00017377
v -0.00681374 -0.00673369 0.00096112
v 0.00042961 -0.00900376 0.00138903
v -0.00364057 -0.00063480 0.00008587
v 0.00045776 -0.00199017 0.00017377
v 0.00042961 0.02362296 0.00138903
v -0.00681374 0.02135289 0.00096112
v -0.01393235 0.01884434 0.00139048
v 0.00045776 0.01660966 0.00017377
v -0.00364057 0.01525399 0.00008587
v -0.00773193 0.01388557 0.00017377
v -0.01705766 0.01312694 0.00095445
v -0.00943630 0.01060041 0.00008384
v -0.00534146 0.00730945 0.00001944
v -0.00364289 0.00401675 0.00001944
v 0.00045776 0.00730945 0.00017377
v 0.00045746 0.00265297 0.00001857
v 0.00045746 0.01196623 0.00001857
v -0.00364289 0.01060244 0.00001944
v 0.01987481 0.00730945 0.06922529
v 0.01790645 0.00082008 0.06645420
v 0.03069169 -0.00225533 0.06688994
v 0.03397714 0.00730945 0.06575186
v 0.03375057 -0.00326664 0.06311248
v 0.03709606 0.00730945 0.06193581
v 0.01459286 -0.00691297 0.06535557
v 0.02459686 -0.01087147 0.06575215
v 0.02681066 -0.01262922 0.06193581
v 0.00795409 -0.01112038 0.06650468
v 0.01310375 -0.01582415 0.06580089
v 0.01436513 -0.01827351 0.06315483
v 0.00783050 0.02444280 0.07313824
v 0.01310375 0.03044335 0.06693520
v 0.01436542 0.03289300 0.06315483
v 0.01446928 0.02023511 0.07198884
v 0.02459686 0.02549066 0.06575215
v 0.02681066 0.02724841 0.06193581
v 0.01778315 0.01250205 0.07308747
v 0.03069169 0.01687482 0.06688994
v 0.03375057 0.01788612 0.06311248
v 0.03513611 -0.00372820 0.05926655
v 0.03835048 0.00730945 0.05839130
v 0.03605749 -0.00403251 0.05521899
v 0.03905892 0.00730945 0.05464603
v 0.02769751 -0.01333997 0.05839159
v 0.02820200 -0.01373684 0.05464603
v 0.01493693 -0.01939158 0.05929643
v 0.01531986 -0.02013483 0.05523814
v 0.01493693 0.03401077 0.05929614
v 0.01531986 0.03475402 0.05523814
v 0.02769751 0.02795917 0.05839159
v 0.02820200 0.02835604 0.05464603
v 0.03513611 0.01834739 0.05926655
v 0.03605749 0.01865171 0.05521899
v 0.03721501 -0.00441691 0.04770700
v 0.04028259 0.00730945 0.04731681
v 0.03796087 -0.00466233 0.04013060
v 0.04102177 0.00730945 0.03992317
v 0.02906739 -0.01442961 0.04731681
v 0.02959335 -0.01484446 0.03992317
v 0.01579564 -0.02106200 0.04771947
v 0.01610373 -0.02165759 0.04013698
v 0.01579564 0.03568120 0.04771947
v 0.01610373 0.03627679 0.04013727
v 0.02906739 0.02904881 0.04731681
v 0.02959335 0.02946395 0.03992317
v 0.03721501 0.01903610 0.04770700
v 0.03796087 0.01928153 0.04013060
v 0.03809576 -0.00471803 0.03264268
v 0.04114913 0.00730945 0.03256581
v 0.03797915 -0.00467162 0.02514751
v 0.04102177 0.00730945 0.02520031
v 0.02971781 -0.01494658 0.03256493
v 0.02959335 -0.01484446 0.02520031
v 0.01616320 -0.02179887 0.03260062
v 0.01610025 -0.02165672 0.02506019
v 0.01616320 0.03641807 0.03260062
v 0.01610025 0.03627592 0.02506019
v 0.02971781 0.02956577 0.03256493
v 0.02959335 0.02946395 0.02520031
v 0.03809576 0.01933723 0.03264268
v 0.03797915 0.01929081 0.02514751
v 0.03813928 -0.00462172 0.02233378
v 0.04148855 0.00730945 0.02184872
v 0.03815147 -0.00454513 0.01953194
v 0.04172383 0.00730945 0.01851367
v 0.02946976 -0.01474582 0.02328272
v 0.02928120 -0.01459381 0.02137266
v 0.01601757 -0.02149803 0.02302539
v 0.01590298 -0.02129119 0.02099639
v 0.01601757 0.03611723 0.02302539
v 0.01590298 0.03591067 0.02099639
v 0.02946976 0.02936502 0.02328272
v 0.02928120 0.02921300 0.02137266
v 0.03813928 0.01924091 0.02233378
v 0.03815147 0.01916433 0.01953194
v 0.03687413 -0.00436875 0.01392478
v 0.04015610 0.00730945 0.01408086
v 0.03469080 -0.00385584 0.00871999
v 0.03760722 0.00730945 0.01002344
v 0.02925219 -0.01457321 0.01548352
v 0.02839173 -0.01387986 0.01002344
v 0.01572949 -0.02093900 0.01461813
v 0.01514639 -0.01978815 0.00864950
v 0.01572949 0.03555819 0.01461813
v 0.01514639 0.03440735 0.00864950
v 0.02925219 0.02919270 0.01548352
v 0.02839173 0.02849905 0.01002344
v 0.03687413 0.01898794 0.01392478
v 0.03469080 0.01847504 0.00871999
v 0.03111901 -0.00253876 0.00539190
v 0.03454546 0.00730945 0.00649924
v 0.02680021 -0.00094173 0.00309717
v 0.03068328 0.00730945 0.00390134
v 0.02568070 -0.01171393 0.00639248
v 0.02227602 -0.00898810 0.00390134
v 0.01348204 -0.01655957 0.00525729
v 0.01147800 -0.01262689 0.00303450
v 0.01348204 0.03117876 0.00525729
v 0.01147800 0.02724609 0.00303450
v 0.02568070 0.02633313 0.00639248
v 0.02227602 0.02360730 0.00390134
v 0.03111901 0.01715796 0.00539190
v 0.02680021 0.01556122 0.00309717
v 0.01947650 0.00148732 0.00089933
v 0.02229806 0.00730945 0.00132694
v 0.01182264 0.00401879 0.00008210
v 0.01351077 0.00730945 0.00017377
v 0.01632624 -0.00422979 0.00136727
v 0.01011827 0.00073363 0.00017377
v 0.00844784 -0.00675226 0.00089295
v 0.00529179 -0.00063596 0.00006992
v 0.00844784 0.02137145 0.00089295
v 0.00529179 0.01525516 0.00006992
v 0.01632624 0.01884898 0.00136727
v 0.01011827 0.01388557 0.00017377
v 0.01947650 0.01313187 0.00089933
v 0.01182264 0.01060041 0.00008210
v 0.00699355 0.00730945 -0.00000000
v 0.00529352 0.00401588 0.00000754
v 0.00529352 0.01060331 0.00000754
f 3 1 2
f 4 1 3
f 5 1 4
f 5 6 1
f 6 7 1
f 7 8 1
f 1 8 9
f 1 9 10
f 1 10 11
f 1 11 2
f 13 2 12
f 2 13 3
f 13 4 3
f 4 13 14
f 14 5 4
f 5 14 15
f 5 16 6
f 16 5 15
f 6 17 7
f 17 6 16
f 8 17 18
f 17 8 7
f 9 18 19
f 18 9 8
f 10 19 20
f 19 10 9
f 21 10 20
f 10 21 11
f 12 11 21
f 11 12 2
f 23 12 22
f 12 23 13
f 23 14 13
f 14 23 24
f 24 15 14
f 15 24 25
f 15 26 16
f 26 15 25
f 16 27 17
f 27 16 26
f 18 27 28
f 27 18 17
f 19 28 29
f 28 19 18
f 20 29 30
f 29 20 19
f 31 20 30
f 20 31 21
f 22 21 31
f 21 22 12
f 33 22 32
f 22 33 23
f 34 23 33
f 23 34 24
f 35 24 34
f 24 35 25
f 35 26 25
f 26 35 36
f 37 26 36
f 26 37 27
f 28 37 38
f 37 28 27
f 28 39 29
f 39 28 38
f 30 39 40
f 39 30 29
f 31 40 41
f 40 31 30
f 22 41 32
f 41 22 31
f 43 32 42
f 32 43 33
f 44 33 43
f 33 44 34
f 44 35 34
f 35 44 45
f 45 36 35
f 36 45 46
f 47 36 46
f 36 47 37
f 38 47 48
f 47 38 37
f 38 49 39
f 49 38 48
f 39 50 40
f 50 39 49
f 41 50 51
f 50 41 40
f 32 51 42
f 51 32 41
f 53 42 52
f 42 53 43
f 53 44 43
f 44 53 54
f 54 45 44
f 45 54 55
f 55 46 45
f 46 55 56
f 57 46 56
f 46 57 47
f 48 57 58
f 57 48 47
f 48 59 49
f 59 48 58
f 49 60 50
f 60 49 59
f 50 61 51
f 61 50 60
f 42 61 52
f 61 42 51
f 63 52 62
f 52 63 53
f 63 54 53
f 54 63 64
f 64 55 54
f 55 64 65
f 65 56 55
f 56 65 66
f 67 56 66
f 56 67 57
f 58 67 68
f 67 58 57
f 58 69 59
f 69 58 68
f 59 70 60
f 70 59 69
f 60 71 61
f 71 60 70
f 52 71 62
f 71 52 61
f 73 62 72
f 62 73 63
f 73 64 63
f 64 73 74
f 74 65 64
f 65 74 75
f 76 65 75
f 65 76 66
f 77 66 76
f 66 77 67
f 68 77 78
f 77 68 67
f 69 78 79
f 78 69 68
f 69 80 70
f 80 69 79
f 70 81 71
f 81 70 80
f 62 81 72
f 81 62 71
f 83 72 82
f 72 83 73
f 84 73 83
f 73 84 74
f 75 84 85
f 84 75 74
f 76 85 86
f 85 76 75
f 76 87 77
f 87 76 86
f 77 88 78
f 88 77 87
f 78 89 79
f 89 78 88
f 89 80 79
f 80 89 90
f 90 81 80
f 81 90 91
f 91 72 81
f 72 91 82
f 93 82 92
f 82 93 83
f 94 83 93
f 83 94 84
f 85 94 95
f 94 85 84
f 86 95 96
f 95 86 85
f 86 97 87
f 97 86 96
f 87 98 88
f 98 87 97
f 88 99 89
f 99 88 98
f 99 90 89
f 90 99 100
f 100 91 90
f 91 100 101
f 101 82 91
f 82 101 92
f 93 92 102
f 94 93 102
f 94 102 95
f 95 102 96
f 96 102 97
f 102 98 97
f 102 99 98
f 102 100 99
f 102 101 100
f 92 101 102
f 105 103 104
f 103 105 106
f 105 108 106
f 108 105 107
f 107 110 108
f 110 107 109
f 109 112 110
f 112 109 111
f 111 114 112
f 114 111 113
f 115 114 113
f 114 115 116
f 118 115 117
f 115 118 116
f 118 119 120
f 119 118 117
f 120 121 122
f 121 120 119
f 122 123 124
f 123 122 121
f 124 125 126
f 125 124 123
f 103 125 104
f 125 103 126
f 106 127 103
f 108 127 106
f 110 127 108
f 110 112 127
f 112 114 127
f 114 116 127
f 127 116 118
f 127 118 120
f 127 120 122
f 127 122 124
f 127 124 126
f 103 127 126
f 105 104 128
f 107 105 128
f 109 107 128
f 109 128 111
f 111 128 113
f 113 128 115
f 128 117 115
f 128 119 117
f 128 121 119
f 128 123 121
f 128 125 123
f 104 125 128
f 129 131 132
f 131 129 130
f 134 136 133
f 136 134 135
f 134 132 131
f 132 134 133
f 136 132 133
f 132 136 129
f 137 130 129
f 130 137 138
f 135 140 136
f 140 135 139
f 136 137 129
f 137 136 140
f 137 142 138
f 142 137 141
f 143 140 139
f 140 143 144
f 144 137 140
f 137 144 141
f 141 146 142
f 146 141 145
f 147 144 143
f 144 147 148
f 148 141 144
f 141 148 145
f 145 150 146
f 150 145 149
f 151 148 147
f 148 151 152
f 149 148 152
f 148 149 145
f 149 154 150
f 154 149 153
f 149 152 153
f 151 156 152
f 156 151 155
f 153 152 156
f 157 154 153
f 154 157 158
f 153 156 157
f 159 158 157
f 158 159 160
f 155 162 156
f 162 155 161
f 157 162 159
f 162 157 156
f 163 160 159
f 160 163 164
f 164 165 166
f 165 164 163
f 161 165 162
f 165 161 166
f 159 165 163
f 165 159 162
f 169 167 168
f 167 169 170
f 172 174 171
f 174 172 173
f 174 168 171
f 168 174 169
f 168 172 171
f 172 168 167
f 170 175 167
f 175 170 176
f 178 172 177
f 172 178 173
f 175 172 167
f 172 175 177
f 175 180 179
f 180 175 176
f 182 177 181
f 177 182 178
f 175 181 177
f 181 175 179
f 179 184 183
f 184 179 180
f 186 181 185
f 181 186 182
f 179 185 181
f 185 179 183
f 183 188 187
f 188 183 184
f 190 185 189
f 185 190 186
f 185 187 189
f 187 185 183
f 187 192 191
f 192 187 188
f 187 191 189
f 194 189 193
f 189 194 190
f 191 193 189
f 191 196 195
f 196 191 192
f 191 195 193
f 196 197 195
f 197 196 198
f 199 194 193
f 194 199 200
f 199 195 197
f 195 199 193
f 198 201 197
f 201 198 202
f 202 203 201
f 203 202 204
f 203 200 199
f 200 203 204
f 199 201 203
f 201 199 197
f 206 208 205
f 208 206 207
f 209 211 212
f 211 209 210
f 207 209 208
f 209 207 210
f 208 212 205
f 212 208 209
f 214 205 213
f 205 214 206
f 212 215 216
f 215 212 211
f 205 216 213
f 216 205 212
f 214 217 218
f 217 214 213
f 220 215 219
f 215 220 216
f 213 220 217
f 220 213 216
f 218 221 222
f 221 218 217
f 224 219 223
f 219 224 220
f 217 224 221
f 224 217 220
f 222 225 226
f 225 222 221
f 228 223 227
f 223 228 224
f 221 228 225
f 228 221 224
f 226 229 230
f 229 226 225
f 232 227 231
f 227 232 228
f 228 229 225
f 229 228 232
f 230 233 234
f 233 230 229
f 236 231 235
f 231 236 232
f 232 233 229
f 233 232 236
f 234 237 238
f 237 234 233
f 240 235 239
f 235 240 236
f 236 237 233
f 237 236 240
f 238 241 242
f 241 238 237
f 244 239 243
f 239 244 240
f 240 241 237
f 241 240 244
f 245 242 241
f 242 245 246
f 243 248 244
f 248 243 247
f 244 245 241
f 245 244 248
f 249 246 245
f 246 249 250
f 249 252 250
f 252 249 251
f 247 251 248
f 251 247 252
f 248 249 245
f 249 248 251
f 255 253 254
f 256 253 255
f 257 253 256
f 257 258 253
f 258 259 253
f 253 259 260
f 253 260 261
f 253 261 254
f 263 254 262
f 254 263 255
f 263 256 255
f 256 263 264
f 264 257 256
f 257 264 265
f 257 266 258
f 266 257 265
f 259 266 267
f 266 259 258
f 259 268 260
f 268 259 267
f 261 268 269
f 268 261 260
f 254 269 262
f 269 254 261
f 271 262 270
f 262 271 263
f 271 264 263
f 264 271 272
f 272 265 264
f 265 272 273
f 265 274 266
f 274 265 273
f 267 274 275
f 274 267 266
f 268 275 276
f 275 268 267
f 269 276 277
f 276 269 268
f 262 277 270
f 277 262 269
f 279 270 278
f 270 279 271
f 280 271 279
f 271 280 272
f 281 272 280
f 272 281 273
f 282 273 281
f 273 282 274
f 275 282 283
f 282 275 274
f 276 283 284
f 283 276 275
f 277 284 285
f 284 277 276
f 270 285 278
f 285 270 277
f 287 278 286
f 278 287 279
f 288 279 287
f 279 288 280
f 289 280 288
f 280 289 281
f 290 281 289
f 281 290 282
f 283 290 291
f 290 283 282
f 284 291 292
f 291 284 283
f 285 292 293
f 292 285 284
f 278 293 286
f 293 278 285
f 295 286 294
f 286 295 287
f 295 288 287
f 288 295 296
f 297 288 296
f 288 297 289
f 298 289 297
f 289 298 290
f 291 298 299
f 298 291 290
f 291 300 292
f 300 291 299
f 292 301 293
f 301 292 300
f 301 286 293
f 286 301 294
f 303 294 302
f 294 303 295
f 303 296 295
f 296 303 304
f 304 297 296
f 297 304 305
f 306 297 305
f 297 306 298
f 298 307 299
f 307 298 306
f 299 308 300
f 308 299 307
f 300 309 301
f 309 300 308
f 309 294 301
f 294 309 302
f 303 302 310
f 304 303 310
f 305 304 310
f 305 310 306
f 306 310 307
f 310 308 307
f 310 309 308
f 310 302 309
f 313 311 312
f 311 314 312
f 311 315 314
f 311 316 315
f 317 316 311
f 318 317 311
f 319 318 311
f 319 311 313
f 321 312 320
f 312 321 313
f 320 314 322
f 314 320 312
f 322 315 323
f 315 322 314
f 315 324 323
f 324 315 316
f 324 317 325
f 317 324 316
f 326 317 318
f 317 326 325
f 326 319 327
f 319 326 318
f 327 313 321
f 313 327 319
f 321 328 329
f 328 321 320
f 328 322 330
f 322 328 320
f 330 323 331
f 323 330 322
f 323 332 331
f 332 323 324
f 332 325 333
f 325 332 324
f 333 326 334
f 326 333 325
f 334 327 335
f 327 334 326
f 335 321 329
f 321 335 327
f 329 336 337
f 336 329 328
f 328 338 336
f 338 328 330
f 330 339 338
f 339 330 331
f 331 340 339
f 340 331 332
f 340 333 341
f 333 340 332
f 341 334 342
f 334 341 333
f 342 335 343
f 335 342 334
f 343 329 337
f 329 343 335
f 337 344 345
f 344 337 336
f 336 346 344
f 346 336 338
f 338 347 346
f 347 338 339
f 339 348 347
f 348 339 340
f 348 341 349
f 341 348 340
f 349 342 350
f 342 349 341
f 350 343 351
f 343 350 342
f 351 337 345
f 337 351 343
f 345 352 353
f 352 345 344
f 346 352 344
f 352 346 354
f 346 355 354
f 355 346 347
f 347 356 355
f 356 347 348
f 356 349 357
f 349 356 348
f 349 358 357
f 358 349 350
f 350 359 358
f 359 350 351
f 359 345 353
f 345 359 351
f 353 360 361
f 360 353 352
f 354 360 352
f 360 354 362
f 355 362 354
f 362 355 363
f 355 364 363
f 364 355 356
f 357 364 356
f 364 357 365
f 357 366 365
f 366 357 358
f 358 367 366
f 367 358 359
f 367 353 361
f 353 367 359
f 361 360 368
f 368 360 362
f 368 362 363
f 368 363 364
f 365 368 364
f 366 368 365
f 367 368 366
f 367 361 368
f 371 369 370
f 369 371 372
f 373 372 371
f 372 373 374
f 371 375 376
f 375 371 370
f 377 371 376
f 371 377 373
f 378 374 373
f 374 378 379
f 380 379 378
f 379 380 381
f 382 373 377
f 373 382 378
f 380 382 383
f 382 380 378
f 386 384 385
f 384 386 387
f 389 386 388
f 386 389 387
f 391 385 390
f 385 391 386
f 388 391 392
f 391 388 386
f 394 388 393
f 388 394 389
f 369 393 370
f 393 369 394
f 393 392 395
f 392 393 388
f 393 375 370
f 375 393 395
f 376 396 397
f 396 376 375
f 377 397 398
f 397 377 376
f 397 399 400
f 399 397 396
f 398 400 401
f 400 398 397
f 402 377 398
f 377 402 382
f 383 402 403
f 402 383 382
f 404 398 401
f 398 404 402
f 403 404 405
f 404 403 402
f 407 390 406
f 390 407 391
f 392 407 408
f 407 392 391
f 410 406 409
f 406 410 407
f 408 410 411
f 410 408 407
f 392 412 395
f 412 392 408
f 395 396 375
f 396 395 412
f 408 413 412
f 413 408 411
f 412 399 396
f 399 412 413
f 400 414 415
f 414 400 399
f 401 415 416
f 415 401 400
f 415 417 418
f 417 415 414
f 416 418 419
f 418 416 415
f 420 401 416
f 401 420 404
f 405 420 421
f 420 405 404
f 422 416 419
f 416 422 420
f 421 422 423
f 422 421 420
f 425 409 424
f 409 425 410
f 411 425 426
f 425 411 410
f 428 424 427
f 424 428 425
f 426 428 429
f 428 426 425
f 411 430 413
f 430 411 426
f 413 414 399
f 414 413 430
f 426 431 430
f 431 426 429
f 430 417 414
f 417 430 431
f 418 432 433
f 432 418 417
f 419 433 434
f 433 419 418
f 432 436 433
f 436 432 435
f 433 437 434
f 437 433 436
f 438 419 434
f 419 438 422
f 423 438 439
f 438 423 422
f 438 437 440
f 437 438 434
f 441 438 440
f 438 441 439
f 443 427 442
f 427 443 428
f 429 443 444
f 443 429 428
f 443 445 446
f 445 443 442
f 447 443 446
f 443 447 444
f 429 448 431
f 448 429 444
f 431 432 417
f 432 431 448
f 448 447 449
f 447 448 444
f 448 435 432
f 435 448 449
f 435 451 436
f 451 435 450
f 436 452 437
f 452 436 451
f 450 454 451
f 454 450 453
f 451 455 452
f 455 451 454
f 440 452 456
f 452 440 437
f 457 440 456
f 440 457 441
f 456 455 458
f 455 456 452
f 459 456 458
f 456 459 457
f 446 460 461
f 460 446 445
f 462 446 461
f 446 462 447
f 461 463 464
f 463 461 460
f 465 461 464
f 461 465 462
f 449 462 466
f 462 449 447
f 449 450 435
f 450 449 466
f 466 465 467
f 465 466 462
f 466 453 450
f 453 466 467
f 453 469 454
f 469 453 468
f 454 470 455
f 470 454 469
f 468 472 469
f 472 468 471
f 469 473 470
f 473 469 472
f 458 470 474
f 470 458 455
f 475 458 474
f 458 475 459
f 474 473 476
f 473 474 470
f 477 474 476
f 474 477 475
f 464 478 479
f 478 464 463
f 480 464 479
f 464 480 465
f 479 481 482
f 481 479 478
f 483 479 482
f 479 483 480
f 467 480 484
f 480 467 465
f 467 468 453
f 468 467 484
f 484 483 485
f 483 484 480
f 484 471 468
f 471 484 485
f 486 472 471
f 472 486 487
f 487 473 472
f 473 487 488
f 489 487 486
f 487 489 490
f 490 488 487
f 488 490 491
f 488 476 473
f 476 488 492
f 493 476 492
f 476 493 477
f 491 492 488
f 492 491 494
f 494 493 492
f 493 494 495
f 482 496 497
f 496 482 481
f 482 498 483
f 498 482 497
f 496 500 497
f 500 496 499
f 497 501 498
f 501 497 500
f 483 502 485
f 502 483 498
f 485 486 471
f 486 485 502
f 498 503 502
f 503 498 501
f 502 489 486
f 489 502 503
f 504 490 489
f 490 504 505
f 505 491 490
f 491 505 506
f 507 505 504
f 505 507 508
f 508 506 505
f 506 508 509
f 506 494 491
f 494 506 510
f 510 495 494
f 495 510 511
f 509 510 506
f 510 509 512
f 512 511 510
f 511 512 513
f 499 515 500
f 515 499 514
f 500 516 501
f 516 500 515
f 514 518 515
f 518 514 517
f 515 519 516
f 519 515 518
f 501 520 503
f 520 501 516
f 503 504 489
f 504 503 520
f 516 521 520
f 521 516 519
f 520 507 504
f 507 520 521
f 522 508 507
f 523 508 522
f 524 523 522
f 523 509 508
f 512 509 523
f 525 512 523
f 524 525 523
f 513 512 525
f 517 526 518
f 526 527 518
f 524 527 526
f 518 527 519
f 527 521 519
f 527 522 521
f 524 522 527
f 522 507 521
f 530 528 529
f 528 530 531
f 533 530 532
f 530 533 531
f 535 529 534
f 529 535 530
f 536 530 535
f 530 536 532
f 538 534 537
f 534 538 535
f 535 539 536
f 539 535 538
f 538 381 380
f 381 538 537
f 539 380 383
f 380 539 538
f 384 541 385
f 541 384 540
f 385 542 390
f 542 385 541
f 543 541 540
f 541 543 544
f 542 544 545
f 544 542 541
f 546 544 543
f 544 546 547
f 547 545 544
f 545 547 548
f 528 547 546
f 547 528 531
f 548 531 533
f 531 548 547
f 550 532 549
f 532 550 533
f 552 549 551
f 549 552 550
f 549 536 553
f 536 549 532
f 551 553 554
f 553 551 549
f 536 555 553
f 555 536 539
f 553 556 554
f 556 553 555
f 555 383 403
f 383 555 539
f 556 403 405
f 403 556 555
f 390 557 406
f 557 390 542
f 406 558 409
f 558 406 557
f 557 545 559
f 545 557 542
f 558 559 560
f 559 558 557
f 561 545 548
f 545 561 559
f 562 559 561
f 559 562 560
f 561 533 550
f 533 561 548
f 562 550 552
f 550 562 561
f 564 551 563
f 551 564 552
f 566 563 565
f 563 566 564
f 563 554 567
f 554 563 551
f 565 567 568
f 567 565 563
f 554 569 567
f 569 554 556
f 567 570 568
f 570 567 569
f 569 405 421
f 405 569 556
f 570 421 423
f 421 570 569
f 409 571 424
f 571 409 558
f 424 572 427
f 572 424 571
f 571 560 573
f 560 571 558
f 572 573 574
f 573 572 571
f 575 560 562
f 560 575 573
f 576 573 575
f 573 576 574
f 575 552 564
f 552 575 562
f 576 564 566
f 564 576 575
f 578 565 577
f 565 578 566
f 579 578 577
f 578 579 580
f 577 568 581
f 568 577 565
f 582 577 581
f 577 582 579
f 568 583 581
f 583 568 570
f 582 583 584
f 583 582 581
f 583 423 439
f 423 583 570
f 583 441 584
f 441 583 439
f 427 585 442
f 585 427 572
f 445 585 586
f 585 445 442
f 585 574 587
f 574 585 572
f 585 588 586
f 588 585 587
f 589 574 576
f 574 589 587
f 588 589 590
f 589 588 587
f 589 566 578
f 566 589 576
f 590 578 580
f 578 590 589
f 591 580 579
f 580 591 592
f 593 592 591
f 592 593 594
f 595 579 582
f 579 595 591
f 596 591 595
f 591 596 593
f 595 584 597
f 584 595 582
f 596 597 598
f 597 596 595
f 584 457 597
f 457 584 441
f 597 459 598
f 459 597 457
f 460 586 599
f 586 460 445
f 463 599 600
f 599 463 460
f 586 601 599
f 601 586 588
f 599 602 600
f 602 599 601
f 601 590 603
f 590 601 588
f 602 603 604
f 603 602 601
f 603 580 592
f 580 603 590
f 604 592 594
f 592 604 603
f 605 594 593
f 594 605 606
f 607 606 605
f 606 607 608
f 609 593 596
f 593 609 605
f 610 605 609
f 605 610 607
f 609 598 611
f 598 609 596
f 610 611 612
f 611 610 609
f 598 475 611
f 475 598 459
f 611 477 612
f 477 611 475
f 478 600 613
f 600 478 463
f 481 613 614
f 613 481 478
f 600 615 613
f 615 600 602
f 613 616 614
f 616 613 615
f 615 604 617
f 604 615 602
f 616 617 618
f 617 616 615
f 617 594 606
f 594 617 604
f 618 606 608
f 606 618 617
f 620 607 619
f 607 620 608
f 622 619 621
f 619 622 620
f 619 610 623
f 610 619 607
f 621 623 624
f 623 621 619
f 623 612 625
f 612 623 610
f 624 625 626
f 625 624 623
f 493 612 477
f 612 493 625
f 495 625 493
f 625 495 626
f 614 496 481
f 496 614 627
f 627 499 496
f 499 627 628
f 614 629 627
f 629 614 616
f 627 630 628
f 630 627 629
f 616 631 629
f 631 616 618
f 629 632 630
f 632 629 631
f 618 620 631
f 620 618 608
f 631 622 632
f 622 631 620
f 634 621 633
f 621 634 622
f 636 633 635
f 633 636 634
f 633 624 637
f 624 633 621
f 635 637 638
f 637 635 633
f 637 626 639
f 626 637 624
f 638 639 640
f 639 638 637
f 511 626 495
f 626 511 639
f 513 639 511
f 639 513 640
f 628 514 499
f 514 628 641
f 641 517 514
f 517 641 642
f 628 643 641
f 643 628 630
f 641 644 642
f 644 641 643
f 630 645 643
f 645 630 632
f 643 646 644
f 646 643 645
f 632 634 645
f 634 632 622
f 645 636 646
f 636 645 634
f 636 635 647
f 635 648 647
f 635 638 648
f 647 648 524
f 638 640 648
f 648 640 525
f 640 513 525
f 648 525 524
f 642 526 517
f 649 526 642
f 644 649 642
f 649 524 526
f 646 649 644
f 646 647 649
f 636 647 646
f 647 524 649
f 133 134 131
f 131 132 133
f 163 164 166
f 166 165 163
f 169 174 171
f 171 168 169
f 204 202 201
f 201 203 204
f 209 210 207
f 207 208 209
f 249 250 252
f 252 251 249