# https://github.com/mikedh/trimesh
v 0.00878505 0.04536378 0.04543524
v 0.00689144 0.04503378 0.03865707
v 0.00054542 0.04830120 0.04024614
v 0.00245342 0.04859546 0.04687398
v -0.00643640 0.05051624 0.04248087
v -0.00505289 0.05087375 0.04935749
v -0.01368404 0.05084697 0.04461816
v -0.01213015 0.05112072 0.05138953
v -0.02045651 0.04984025 0.04648917
v -0.01888846 0.05014476 0.05321783
v -0.02664850 0.04781887 0.04790921
v -0.02504922 0.04794107 0.05468554
v -0.03298665 0.04410211 0.04929277
v -0.03116797 0.04398876 0.05620194
v -0.03793631 0.03904247 0.04999022
v -0.03594492 0.03921758 0.05703827
v 0.02211004 0.02908584 0.04208552
v 0.02754636 0.02438184 0.04151904
v 0.02549316 0.02379002 0.03538941
v 0.02026289 0.02876933 0.03579189
v 0.03156724 0.01974302 0.04095694
v 0.02987898 0.01947372 0.03493679
v 0.03449560 0.01464490 0.04033967
v 0.03302244 0.01444720 0.03435838
v 0.03601948 0.00885108 0.03979500
v 0.03442524 0.00833499 0.03375196
v 0.03662726 0.00090111 0.03978902
v 0.03476028 0.00076964 0.03288639
v 0.03538884 -0.00663552 0.03989074
v 0.03307697 -0.00672724 0.03286642
v 0.02631153 -0.01843497 0.03338985
v 0.02980375 -0.01927814 0.04102627
v 0.02491728 -0.02490837 0.04116086
v 0.02167315 -0.02391322 0.03322832
v 0.02176605 -0.02997544 0.04113066
v 0.01889055 -0.02877209 0.03355277
v 0.01819119 -0.03667203 0.04194490
v 0.01463298 -0.03595054 0.03448791
v 0.01189839 -0.04285107 0.04321941
v 0.00950923 -0.04186900 0.03541396
v 0.00542546 -0.04675749 0.04426367
v 0.00330193 -0.04602159 0.03656708
v -0.01412484 -0.05108576 0.04748074
v -0.02136580 -0.05034214 0.04826333
v -0.02238860 -0.04926301 0.04153109
v -0.01527907 -0.04994197 0.04047406
v -0.03009876 -0.04740500 0.04924801
v -0.03013038 -0.04660389 0.04240041
v -0.03560025 -0.04341651 0.05008244
v -0.03621458 -0.04286263 0.04325269
v -0.04022174 -0.03854067 0.05092777
v -0.04105449 -0.03806859 0.04418866
v -0.04538749 -0.02842001 0.05332607
v -0.05013713 -0.02336194 0.05463105
v -0.05103943 -0.02277856 0.04778021
v -0.04587729 -0.02757977 0.04651339
v -0.05513970 -0.01856253 0.05598706
v -0.05637219 -0.01817039 0.04881631
v -0.05900998 -0.01256190 0.05718261
v -0.06033684 -0.01208110 0.04990372
v -0.06048949 -0.00526915 0.05811584
v -0.06189167 -0.00468638 0.05088811
v -0.05958810 0.00272557 0.05881057
v -0.06084415 0.00312392 0.05172445
v -0.05675762 0.01079664 0.05933699
v -0.05353599 0.01726121 0.05917919
v -0.05468821 0.01775249 0.05302652
v -0.05829047 0.01095971 0.05295433
v -0.04866089 0.02277516 0.05880691
v -0.04908337 0.02346998 0.05232242
v -0.04362923 0.02793566 0.05778308
v -0.04419276 0.02882519 0.05101923
v -0.04031487 0.03375455 0.05758134
v -0.04188851 0.03336387 0.05030502
v 0.01185053 0.04111289 0.03804480
v 0.01354808 0.04088387 0.04450800
v 0.01710022 0.03636960 0.04361934
v 0.01542573 0.03617133 0.03651976
v 0.01925443 0.03321552 0.04310765
v 0.01740964 0.03266034 0.03587049
v 0.03288719 -0.01344516 0.04028216
v 0.02998440 -0.01293393 0.03324755
v -0.00967762 -0.04979694 0.03935929
v -0.00349489 -0.04844614 0.03803675
v -0.00191000 -0.04964547 0.04595744
v -0.00812001 -0.05077407 0.04699794
v -0.04287978 -0.03402453 0.05204014
v -0.04344012 -0.03327952 0.04527670
v -0.03383558 -0.04458829 0.05773857
v -0.03857110 -0.03963014 0.05860147
v -0.02767202 -0.04886081 0.05681993
v -0.01955222 -0.05140486 0.05569490
v -0.01209345 -0.05176054 0.05491537
v -0.00600836 -0.05147704 0.05441093
v 0.00021717 -0.05026795 0.05338014
v 0.00733670 -0.04749536 0.05168488
v 0.01458463 -0.04338316 0.05038223
v 0.02096556 -0.03750731 0.04903598
v 0.02432662 -0.03041167 0.04841047
v 0.02729967 -0.02544280 0.04822512
v 0.03201579 -0.02008444 0.04783741
v 0.03528838 -0.01391979 0.04734358
v 0.03861352 0.00069191 0.04705847
v 0.03774511 -0.00690841 0.04702316
v 0.03809164 0.00863918 0.04731706
v 0.03651426 0.01451630 0.04787161
v 0.03379615 0.01976865 0.04842147
v 0.03023910 0.02463640 0.04886403
v 0.02517071 0.02962020 0.04930654
v 0.02203888 0.03341259 0.05007649
v 0.01907932 0.03676528 0.05111609
v 0.01036917 0.04572551 0.05314198
v 0.01536698 0.04107206 0.05212911
v 0.00406548 0.04898162 0.05475665
v -0.00321282 0.05101606 0.05688687
v -0.01008302 0.05079835 0.05891190
v -0.01684949 0.05010984 0.06074351
v -0.02308769 0.04800392 0.06223706
v -0.02886600 0.04375413 0.06338415
v -0.03409252 0.03877406 0.06432905
v -0.03837338 0.03326236 0.06493994
v -0.04220571 0.02711690 0.06539342
v -0.04672369 0.02179516 0.06606948
v -0.05139570 0.01677316 0.06646241
v -0.05540847 0.01045025 0.06666427
v -0.05771055 0.00271366 0.06623671
v -0.05867625 -0.00525584 0.06554809
v -0.05717708 -0.01298291 0.06422355
v -0.05348083 -0.01881747 0.06312224
v -0.04854162 -0.02386090 0.06206395
v -0.04407217 -0.02902171 0.06085005
v -0.04173745 -0.03455167 0.05959875
v -0.04147611 -0.03643049 0.03730702
v -0.03714375 -0.04126106 0.03623513
v -0.04375950 -0.03084468 0.03853246
v -0.04645196 -0.02550134 0.03986292
v -0.05135432 -0.02143871 0.04080248
v -0.05671570 -0.01722611 0.04156914
v -0.06089056 -0.01140849 0.04247429
v -0.06262587 -0.00421430 0.04342010
v -0.06195159 0.00322957 0.04426189
v -0.05982190 0.01045065 0.04551101
v -0.05633285 0.01692746 0.04614470
v -0.05118852 0.02243267 0.04569239
v -0.04624173 0.02673365 0.04377595
v -0.04360396 0.03171055 0.04254629
v -0.04013095 0.03751891 0.04219286
v -0.03500180 0.04307638 0.04147836
v -0.02879300 0.04718729 0.04024868
v -0.02260030 0.04897245 0.03884212
v -0.01592369 0.04950387 0.03702099
v -0.00899336 0.04947251 0.03485831
v -0.00212744 0.04722630 0.03266413
v 0.00438324 0.04455219 0.03088404
v 0.00926586 0.04085602 0.03023029
v 0.01277929 0.03619886 0.02962591
v 0.01795557 0.02696068 0.02930622
v 0.01518528 0.03155164 0.02944422
v 0.02265556 0.02308878 0.02809591
v 0.02739878 0.01904196 0.02732150
v 0.03105470 0.01426602 0.02650424
v 0.03237634 0.00792453 0.02603599
v 0.03212767 0.00073281 0.02579621
v 0.03020357 -0.00739384 0.02590977
v 0.02719373 -0.01250825 0.02584401
v 0.01837932 -0.02275151 0.02717663
v 0.02332886 -0.01811118 0.02622648
v 0.01524256 -0.02862582 0.02735735
v 0.01201104 -0.03545227 0.02748997
v 0.00706432 -0.04137072 0.02850270
v 0.00098920 -0.04511331 0.02950040
v -0.00556720 -0.04710624 0.03053031
v -0.01196885 -0.04827051 0.03187278
v -0.01816603 -0.04855105 0.03306102
v -0.02471564 -0.04777530 0.03409196
v -0.03149653 -0.04511474 0.03518249
v -0.05195484 0.02204961 0.03843510
v -0.05649500 0.01748976 0.03741134
v -0.04732423 0.02562298 0.03716955
v -0.04417329 0.03072054 0.03567697
v -0.04108357 0.03691539 0.03528121
v -0.03634714 0.04226540 0.03456159
v -0.03059806 0.04620146 0.03351386
v -0.02483988 0.04771007 0.03240290
v -0.01857017 0.04818132 0.03075184
v -0.01223353 0.04801886 0.02879703
v -0.00579977 0.04655563 0.02629466
v 0.00035217 0.04408836 0.02433876
v 0.00578160 0.04013810 0.02282422
v 0.00973453 0.03532461 0.02265523
v 0.01462868 0.02517938 0.02343951
v 0.01232920 0.03019487 0.02320119
v 0.01948718 0.02233576 0.02173407
v 0.02430509 0.01888800 0.02041088
v 0.02782168 0.01423896 0.01949729
v 0.02965985 0.00810532 0.01881707
v 0.02979854 0.00080884 0.01838384
v 0.02823274 -0.00617125 0.01908536
v 0.02543069 -0.01160579 0.01936299
v 0.01511690 -0.02184974 0.02139426
v 0.02075135 -0.01685308 0.02031724
v 0.01199167 -0.02767827 0.02130048
v 0.00911285 -0.03480854 0.02139045
v 0.00466230 -0.04093195 0.02195694
v -0.00134196 -0.04446580 0.02298690
v -0.00784977 -0.04580570 0.02367658
v -0.01429630 -0.04679878 0.02470471
v -0.02058915 -0.04659249 0.02606021
v -0.02700215 -0.04560612 0.02717492
v -0.03296380 -0.04309687 0.02831924
v -0.03792098 -0.03914776 0.02947724
v -0.04115390 -0.03396744 0.03084844
v -0.04379128 -0.02874604 0.03226338
v -0.04632516 -0.02357693 0.03363488
v -0.05117784 -0.01996585 0.03412280
v -0.05639201 -0.01611056 0.03446181
v -0.06056665 -0.01050939 0.03514493
v -0.06239874 -0.00363341 0.03598042
v -0.06183803 0.00330136 0.03680392
v -0.05997851 0.01111682 0.03872108
v -0.05155712 0.02104606 0.02924040
v -0.05639109 0.01725797 0.02904631
v -0.04594833 0.02458290 0.02798517
v -0.04394502 0.02932727 0.02809521
v -0.04190461 0.03441797 0.02751184
v -0.03733992 0.04029237 0.02711872
v -0.03249230 0.04373347 0.02630255
v -0.02756542 0.04521167 0.02552806
v -0.02183704 0.04608312 0.02396122
v -0.01600213 0.04584318 0.02217103
v -0.00998756 0.04483541 0.01960804
v -0.00372080 0.04183046 0.01756888
v 0.00193932 0.03784736 0.01644473
v 0.00641454 0.03347414 0.01625826
v 0.01240499 0.02445599 0.01712113
v 0.00953249 0.02868779 0.01706218
v 0.01610624 0.02096066 0.01616908
v 0.01998561 0.01776019 0.01507340
v 0.02273288 0.01389022 0.01388548
v 0.02552879 0.00917383 0.01248262
v 0.02611345 0.00211969 0.01216709
v 0.02556279 -0.00365310 0.01262970
v 0.02312074 -0.00942957 0.01276221
v 0.01224663 -0.01942529 0.01641301
v 0.01886908 -0.01546024 0.01373548
v 0.00879473 -0.02601245 0.01562738
v 0.00627417 -0.03304434 0.01500613
v 0.00166891 -0.03869170 0.01543546
v -0.00400358 -0.04228380 0.01626237
v -0.01027713 -0.04366855 0.01692023
v -0.01655435 -0.04458336 0.01808613
v -0.02259483 -0.04428563 0.01955287
v -0.02858126 -0.04302989 0.02079582
v -0.03379735 -0.04043280 0.02193430
v -0.03819739 -0.03655228 0.02308560
v -0.04140226 -0.03172446 0.02462182
v -0.04312252 -0.02644023 0.02639470
v -0.04537246 -0.02144573 0.02785850
v -0.04993905 -0.01781614 0.02801192
v -0.05545279 -0.01463869 0.02765843
v -0.05946886 -0.00920154 0.02828230
v -0.06100058 -0.00264072 0.02893372
v -0.06087855 0.00347924 0.02944164
v -0.05972558 0.01119206 0.02972070
v -0.04187441 -0.02391999 0.02095327
v -0.04065655 -0.02910376 0.01886238
v -0.04287328 -0.01863320 0.02306818
v -0.04799275 -0.01588528 0.02226606
v -0.05335324 -0.01278322 0.02131270
v -0.05744125 -0.00756508 0.02163029
v -0.05903150 -0.00139092 0.02235972
v -0.05912365 0.00362724 0.02263460
v -0.05820609 0.01053421 0.02246036
v -0.05498626 0.01598563 0.02196600
v -0.05084257 0.01934463 0.02186704
v -0.04378055 0.02218940 0.02147340
v -0.04255356 0.02643823 0.02093629
v -0.04092381 0.03225955 0.02000299
v -0.03748953 0.03714551 0.01915072
v -0.03309421 0.04026205 0.01808475
v -0.02819801 0.04217228 0.01722825
v -0.02355867 0.04276125 0.01614796
v -0.01882240 0.04234102 0.01455646
v -0.01273054 0.04087799 0.01225643
v -0.00695852 0.03861380 0.01048720
v -0.00125183 0.03501340 0.01024064
v 0.00316324 0.03037257 0.01048489
v 0.00876445 0.02191233 0.01272168
v 0.00597213 0.02569851 0.01192455
v 0.01281182 0.01990330 0.01091338
v 0.01635193 0.01703421 0.00947942
v 0.01936726 0.01371867 0.00812163
v 0.02085107 0.00888878 0.00731088
v 0.02120527 0.00334412 0.00678744
v 0.02049698 -0.00147539 0.00617518
v 0.01827442 -0.00780942 0.00567228
v 0.00894168 -0.01720783 0.01075351
v 0.01438065 -0.01337481 0.00719605
v 0.00547092 -0.02362674 0.01067090
v 0.00274276 -0.02953723 0.00911906
v -0.00153851 -0.03497967 0.00890946
v -0.00693130 -0.03852131 0.00943804
v -0.01277154 -0.04030839 0.01059335
v -0.01849240 -0.04118572 0.01230124
v -0.02409778 -0.04120570 0.01383081
v -0.02953061 -0.04005142 0.01524666
v -0.03390372 -0.03741440 0.01619589
v -0.03786747 -0.03379753 0.01724515
v 0.02673560 -0.03167442 0.05574966
v 0.02334412 -0.03802776 0.05679411
v 0.02989463 -0.02531553 0.05534231
v 0.03419835 -0.02007586 0.05485620
v 0.03750235 -0.01423852 0.05448336
v 0.03980731 -0.00733990 0.05437483
v 0.04051067 0.00008162 0.05454297
v 0.03990107 0.00740863 0.05491551
v 0.03849086 0.01417380 0.05529438
v 0.03595895 0.01974487 0.05573591
v 0.03248958 0.02447905 0.05615505
v 0.02768290 0.02860129 0.05667537
v 0.02411139 0.03241089 0.05751420
v 0.02127305 0.03621466 0.05846259
v 0.01711157 0.04089510 0.05959612
v 0.01198287 0.04498593 0.06100952
v 0.00581705 0.04820828 0.06252543
v -0.00097849 0.04967586 0.06415844
v -0.00736180 0.04947507 0.06590108
v -0.01429990 0.04907519 0.06773932
v -0.02092495 0.04712188 0.06944535
v -0.02689468 0.04334621 0.07068545
v -0.03179636 0.03842286 0.07151409
v -0.03602273 0.03283386 0.07214834
v -0.03926762 0.02717484 0.07229996
v -0.04353901 0.02167725 0.07290648
v -0.04833159 0.01686812 0.07336507
v -0.05301683 0.01024000 0.07375668
v -0.05541621 0.00259192 0.07342087
v -0.05638998 -0.00530461 0.07274862
v -0.05525307 -0.01300262 0.07151268
v -0.05193378 -0.01931994 0.07019822
v -0.04741341 -0.02437117 0.06882178
v -0.04320396 -0.02921747 0.06753982
v -0.04023690 -0.03468200 0.06670483
v -0.03689350 -0.04023080 0.06655602
v -0.03206680 -0.04539353 0.06645192
v -0.02569859 -0.04947411 0.06574721
v -0.01796716 -0.05173570 0.06432772
v -0.01057627 -0.05222240 0.06288075
v -0.00388076 -0.05178371 0.06159388
v 0.00287172 -0.05064282 0.06062925
v 0.01008370 -0.04794694 0.05933578
v 0.01770143 -0.04363232 0.05891567
v 0.02750221 -0.03162218 0.06365012
v 0.02429097 -0.03672517 0.06537616
v 0.02997714 -0.02521306 0.06291494
v 0.03433587 -0.01982246 0.06207773
v 0.03809365 -0.01438202 0.06186497
v 0.04050299 -0.00773213 0.06205201
v 0.04077878 -0.00086771 0.06239925
v 0.04009149 0.00599995 0.06279058
v 0.03861807 0.01289331 0.06318262
v 0.03603493 0.01886833 0.06343679
v 0.03244926 0.02363222 0.06357210
v 0.02817770 0.02727913 0.06355758
v 0.02459499 0.03042742 0.06397130
v 0.02167940 0.03463143 0.06525615
v 0.01775165 0.03907984 0.06681914
v 0.01273680 0.04286917 0.06826999
v 0.00698482 0.04579594 0.06981390
v 0.00058307 0.04717578 0.07100040
v -0.00575464 0.04700711 0.07221510
v -0.01205190 0.04623828 0.07393470
v -0.01834080 0.04476540 0.07600608
v -0.02438264 0.04147539 0.07744583
v -0.02952046 0.03680868 0.07812162
v -0.03372253 0.03143377 0.07848633
v -0.03731814 0.02560683 0.07832766
v -0.04150240 0.02054280 0.07880050
v -0.04565453 0.01556930 0.07951808
v -0.04961045 0.00940238 0.08002234
v -0.05219815 0.00223252 0.07998430
v -0.05342877 -0.00537883 0.07949912
v -0.05278667 -0.01298528 0.07839537
v -0.04996346 -0.01967503 0.07726723
v -0.04565356 -0.02481742 0.07561093
v -0.04147440 -0.02920598 0.07402876
v -0.03827577 -0.03434729 0.07374499
v -0.03456681 -0.03979476 0.07483469
v -0.02915687 -0.04463922 0.07505384
v -0.02234268 -0.04786863 0.07457786
v -0.01551943 -0.05002329 0.07229662
v -0.00868236 -0.05006466 0.07031670
v -0.00245651 -0.04983728 0.06861813
v 0.00402489 -0.04898756 0.06726210
v 0.01125025 -0.04625389 0.06783385
v 0.01893909 -0.04217446 0.06643547
v -0.03426454 0.02316071 0.08258377
v -0.03081215 0.02878111 0.08330289
v -0.03818541 0.01850985 0.08349468
v -0.04195033 0.01365295 0.08450397
v -0.04520998 0.00815326 0.08503830
v -0.04758729 0.00165939 0.08515595
v -0.04904420 -0.00537851 0.08498005
v -0.04850921 -0.01251761 0.08465549
v -0.04554120 -0.01907643 0.08409224
v -0.04175999 -0.02418875 0.08201080
v -0.03822279 -0.02828186 0.07986082
v -0.03524657 -0.03292945 0.07955683
v -0.03098961 -0.03761589 0.08053556
v -0.02590794 -0.04160724 0.08069227
v -0.01977260 -0.04430781 0.07985151
v -0.01343562 -0.04570546 0.07760194
v -0.00741297 -0.04561026 0.07519147
v -0.00173485 -0.04549712 0.07338970
v 0.00419119 -0.04507969 0.07273855
v 0.01071041 -0.04203791 0.07351578
v 0.01796682 -0.03874688 0.07274039
v 0.02241158 -0.03398235 0.07264942
v 0.02611535 -0.02987189 0.07036887
v 0.02798981 -0.02380403 0.06912484
v 0.03216321 -0.01824174 0.06845145
v 0.03602177 -0.01370758 0.06854515
v 0.03821181 -0.00774990 0.06906376
v 0.03850064 -0.00156142 0.06930175
v 0.03755435 0.00489992 0.06953783
v 0.03580232 0.01109452 0.06984852
v 0.03305271 0.01694234 0.07004094
v 0.02968830 0.02158517 0.06985025
v 0.02605133 0.02466973 0.06910332
v 0.02285442 0.02782842 0.06917318
v 0.02011350 0.03176328 0.07073235
v 0.01688679 0.03595907 0.07276461
v 0.01232222 0.03938755 0.07421907
v 0.00694371 0.04184004 0.07531927
v 0.00113675 0.04300185 0.07597456
v -0.00448860 0.04262583 0.07664071
v -0.00989865 0.04191869 0.07840492
v -0.01535788 0.04070865 0.08091477
v -0.02106434 0.03790035 0.08274252
v -0.02628521 0.03365074 0.08326873
v 0.01404301 -0.00230418 0.00233820
v 0.01493807 0.00192507 0.00302351
v 0.01254282 -0.00664943 0.00221130
v 0.00895599 -0.01154243 0.00335521
v 0.00444906 -0.01514057 0.00684585
v 0.00191403 -0.02076098 0.00648595
v -0.00067362 -0.02590747 0.00438641
v -0.00499320 -0.03055603 0.00374499
v -0.01006788 -0.03383229 0.00457246
v -0.01527852 -0.03598551 0.00598307
v -0.02032913 -0.03708347 0.00765918
v -0.02510062 -0.03730803 0.00921770
v -0.02959595 -0.03664924 0.01027569
v -0.03343175 -0.03442323 0.01112755
v -0.03676431 -0.03097051 0.01195220
v -0.03911737 -0.02641178 0.01356381
v -0.04016571 -0.02149004 0.01581064
v -0.04081836 -0.01656290 0.01817714
v -0.04559745 -0.01401609 0.01707768
v -0.05058257 -0.01123571 0.01560244
v -0.05423102 -0.00640680 0.01539519
v -0.05594315 -0.00064327 0.01576866
v -0.05641642 0.00433038 0.01623548
v -0.05492725 0.00984989 0.01539458
v -0.05199027 0.01446410 0.01497606
v -0.04720717 0.01785445 0.01482120
v -0.04174155 0.01989365 0.01554193
v -0.03982997 0.02418983 0.01493678
v -0.03833325 0.02944271 0.01331660
v -0.03540137 0.03388265 0.01211568
v -0.03268722 0.03606753 0.01143490
v -0.02940747 0.03735519 0.01085562
v -0.02526913 0.03829133 0.01037887
v -0.01983533 0.03815997 0.00950660
v -0.01465740 0.03685032 0.00810288
v -0.00927104 0.03459764 0.00633506
v -0.00431867 0.03071230 0.00480294
v -0.00038116 0.02607777 0.00467027
v 0.00199873 0.02173695 0.00692087
v 0.00469837 0.01801835 0.00911192
v 0.00861377 0.01640812 0.00751075
v 0.01216056 0.01485165 0.00586622
v 0.01436295 0.01187021 0.00467891
v 0.01537876 0.00734381 0.00376031
v -0.05175555 -0.00056957 0.01124083
v -0.05163326 0.00363773 0.01074753
v -0.05031229 -0.00497594 0.01087768
v -0.04704332 -0.00908237 0.01121928
v -0.04272401 -0.01181315 0.01287304
v -0.03869202 -0.01471354 0.01364225
v -0.05038068 0.00811117 0.01019501
v -0.04782490 0.01220734 0.00979488
v -0.03836851 0.01687346 0.01095362
v -0.04404127 0.01521159 0.01005720
v -0.03679782 -0.02376295 0.00875173
v -0.03789699 -0.01910462 0.01104086
v -0.03455525 -0.02824181 0.00750919
v -0.03233740 -0.03159903 0.00728548
v -0.02939388 -0.03333647 0.00691480
v -0.02613683 -0.03340119 0.00590154
v -0.02219656 -0.03249329 0.00446334
v -0.01780689 -0.03105419 0.00290868
v -0.00867514 -0.02589882 0.00074378
v -0.01322721 -0.02897892 0.00139126
v -0.00457255 -0.02186628 0.00147082
v -0.00160772 -0.01763252 0.00353789
v 0.00432830 -0.00963072 0.00167817
v 0.00081019 -0.01309246 0.00438497
v 0.00733162 -0.00610324 0.00050997
v 0.00916600 -0.00282462 0.00075425
v 0.00965321 0.00067044 0.00133350
v 0.00961649 0.00529421 0.00177486
v 0.00948696 0.00930647 0.00265186
v 0.00777624 0.01172808 0.00370247
v 0.00462584 0.01273208 0.00484800
v 0.00078891 0.01491838 0.00545705
v -0.00297814 0.01895542 0.00477292
v -0.00523482 0.02266238 0.00217729
v -0.00850834 0.02599036 0.00213143
v -0.01204911 0.02952369 0.00351953
v -0.01584579 0.03199294 0.00496342
v -0.02087557 0.03330642 0.00541402
v -0.02556275 0.03325757 0.00596221
v -0.03019135 0.03176829 0.00666135
v -0.03457451 0.03033966 0.00915430
v -0.03196777 0.03241808 0.00806268
v -0.03516729 0.02617356 0.00848952
v -0.03657979 0.02085666 0.01028382
v -0.04710581 0.00240241 0.00803463
v -0.04846644 -0.00035851 0.00898658
v -0.03998069 0.01234683 0.00716376
v -0.03494309 0.01368871 0.00807558
v -0.04300597 0.00947337 0.00665166
v -0.04536467 0.00594659 0.00718206
v -0.04650887 -0.00301763 0.00837886
v -0.04333666 -0.00642251 0.00850755
v -0.03949519 -0.00929235 0.00986371
v -0.03598846 -0.01260265 0.00983175
v -0.03255265 0.01826584 0.00661419
v -0.03140945 0.02395865 0.00503001
v -0.02613206 0.02844935 0.00377341
v -0.02935073 0.02810630 0.00473386
v -0.02199848 0.02852338 0.00320619
v -0.01798460 0.02764615 0.00294298
v -0.01494457 0.02553293 0.00226491
v -0.01218697 0.02262537 0.00154375
v -0.00946433 0.01920328 0.00178073
v -0.00674078 0.01562473 0.00310760
v 0.00140686 0.00898213 0.00337127
v -0.00311379 0.01192756 0.00476667
v 0.00599044 0.00776061 0.00206024
v 0.00495497 0.00950084 0.00280579
v 0.00399961 0.00465821 0.00159396
v 0.00544925 0.00016846 0.00087120
v 0.00625403 -0.00262414 0.00053790
v 0.00418580 -0.00466688 0.00054707
v 0.00114111 -0.00747623 0.00144968
v -0.00224698 -0.01066989 0.00277033
v -0.00860993 -0.01769478 0.00044728
v -0.00535442 -0.01424940 0.00218437
v -0.01627322 -0.02371147 0.00052757
v -0.01235380 -0.02100152 -0.00000000
v -0.02028616 -0.02583882 0.00144651
v -0.02428143 -0.02761943 0.00267744
v -0.02760454 -0.02961611 0.00422396
v -0.02924325 -0.03087736 0.00534191
v -0.03081221 -0.02955046 0.00532791
v -0.03061284 -0.02606105 0.00431553
v -0.03321721 -0.02115934 0.00497559
v -0.03476598 -0.01660744 0.00679276
v -0.03005350 -0.01421236 0.00360973
v -0.03273790 -0.01021844 0.00688125
v -0.02992885 -0.01894394 0.00306449
v -0.02680157 -0.02198673 0.00211102
v -0.01899164 -0.01868520 0.00077429
v -0.02254592 -0.02053629 0.00114811
v -0.01571485 -0.01645526 0.00043527
v -0.01233633 -0.01370656 0.00072102
v -0.00902127 -0.01076294 0.00171880
v -0.00546464 -0.00768110 0.00132316
v 0.00175016 -0.00193789 0.00098542
v -0.00185063 -0.00471756 0.00173850
v -0.00084165 0.00168186 0.00191073
v -0.00355362 0.00573816 0.00339801
v -0.01011178 0.01311603 0.00244062
v -0.00695990 0.00955003 0.00380954
v -0.01563977 0.02013179 0.00169658
v -0.01294536 0.01667094 0.00179890
v -0.01741848 0.02266165 0.00198440
v -0.01968212 0.02396592 0.00216326
v -0.02297035 0.02403888 0.00230500
v -0.02723873 0.02351272 0.00305080
v -0.02973576 0.01272579 0.00594554
v -0.02741761 0.01757815 0.00368917
v -0.00836659 -0.00404665 0.00239785
v -0.00497178 -0.00127740 0.00222293
v -0.00748057 0.00267352 0.00325314
v -0.01039687 0.00654515 0.00369388
v -0.01169276 -0.00677571 0.00239065
v -0.01502534 -0.00933105 0.00158810
v -0.01427967 -0.00287523 0.00374854
v -0.01094626 -0.00017277 0.00348827
v -0.01344047 0.01028535 0.00284311
v -0.01652927 0.01427309 0.00214897
v -0.01954549 0.01797912 0.00182959
v -0.01926236 0.02078367 0.00185726
v -0.02058680 0.02163884 0.00192990
v -0.02276969 0.02017427 0.00200625
v -0.01985660 0.01077141 0.00297285
v -0.02322229 0.01406702 0.00294302
v -0.01670969 0.00724371 0.00357260
v -0.01369046 0.00362236 0.00424718
v -0.02282965 0.00770683 0.00419238
v -0.02595233 0.01054384 0.00462959
v -0.01981195 0.00441988 0.00470000
v -0.01674393 0.00084959 0.00596231
v -0.03735782 0.00975224 0.00644287
v -0.03769589 0.00667077 0.00585381
v -0.04066814 0.00313295 0.00608969
v -0.04339062 -0.00008433 0.00694737
v -0.03450673 0.01009644 0.00674895
v -0.03104504 0.00919894 0.00622358
v -0.03609680 -0.00660764 0.00791589
v -0.03980945 -0.00339585 0.00689343
v -0.01837550 -0.01174976 0.00112628
v -0.02155510 -0.01388450 0.00117062
v -0.01755739 -0.00556158 0.00380359
v -0.02097357 -0.00757354 0.00272826
v -0.02710008 -0.01718252 0.00208720
v -0.02451539 -0.01570901 0.00172445
v -0.02426157 -0.00966301 0.00253749
v -0.02732046 -0.01177444 0.00294192
v -0.03650897 -0.00033870 0.00602699
v -0.03290523 0.00286890 0.00563349
v -0.03295858 -0.00415528 0.00676625
v -0.02967242 -0.00180844 0.00593798
v -0.02678108 -0.00589254 0.00490229
v -0.02985402 -0.00804846 0.00559794
v -0.02348501 -0.00390915 0.00496861
v -0.02016396 -0.00172729 0.00538228
v -0.02293358 0.00198349 0.00548199
v -0.02615866 -0.00007043 0.00553300
v -0.02801105 0.00769078 0.00546935
v -0.02560991 0.00518861 0.00492468
v -0.02954075 0.00584219 0.00563629
v -0.02855883 0.00345580 0.00537221
v -0.03475078 0.00770023 0.00628168
v -0.03205259 0.00638452 0.00606283
v 0.03231305 0.00353476 0.07349305
v 0.03031163 0.00891704 0.07334772
v 0.02757856 0.01409514 0.07333100
v 0.02457978 0.01832181 0.07267059
v 0.01929862 0.02461034 0.07213554
v 0.02179599 0.02142672 0.07162079
v 0.03346693 -0.00199590 0.07352302
v 0.03357526 -0.00729677 0.07342286
v 0.02771876 -0.01476718 0.07064944
v 0.03177856 -0.01199300 0.07237644
v 0.02243791 -0.02670153 0.07484436
v 0.02436879 -0.02073037 0.07232150
v 0.01923035 -0.03075301 0.07615958
v 0.01465767 -0.03398694 0.07649164
v 0.00353500 -0.03933014 0.07560908
v 0.00891856 -0.03718936 0.07617928
v -0.00674798 -0.03945020 0.07737012
v -0.00150418 -0.03909069 0.07530850
v -0.01793197 -0.03964467 0.08271391
v -0.01211423 -0.04004214 0.08050528
v -0.02753491 -0.03455097 0.08376923
v -0.02317947 -0.03795093 0.08358293
v -0.03115572 -0.03034802 0.08308348
v -0.03377279 -0.02621238 0.08359955
v -0.03938453 -0.01743982 0.08834261
v -0.03650913 -0.02241150 0.08607923
v -0.04159948 -0.01124944 0.08910816
v -0.04254331 -0.00501758 0.08849424
v -0.04166944 0.00091171 0.08792645
v -0.03970093 0.00625635 0.08790715
v -0.03702017 0.01141951 0.08764357
v -0.03380086 0.01607392 0.08638609
v -0.02713112 0.02512746 0.08644834
v -0.03042974 0.02027023 0.08519655
v -0.02260561 0.02953556 0.08675891
v -0.01742910 0.03322759 0.08613652
v -0.01251985 0.03538161 0.08319118
v -0.00815040 0.03668547 0.08037387
v -0.00363959 0.03748135 0.07874331
v 0.00106835 0.03792121 0.07865853
v 0.00599077 0.03724216 0.07869427
v 0.01073985 0.03518466 0.07825346
v 0.01481904 0.03198514 0.07694480
v 0.01784620 0.02826393 0.07489455
v 0.00088260 0.03299865 0.07899589
v 0.00464888 0.03275296 0.07995597
v -0.00312509 0.03248128 0.07873769
v -0.00718698 0.03148222 0.07974546
v -0.01396968 0.02781811 0.08707690
v -0.01000909 0.02997887 0.08353247
v -0.02310436 0.02091222 0.08759017
v -0.01882757 0.02459206 0.08814781
v -0.02639064 0.01730522 0.08562865
v -0.02916364 0.01333392 0.08672648
v -0.03169558 0.00894403 0.08783329
v -0.03404303 0.00438657 0.08801215
v -0.03595249 0.00021378 0.08822013
v -0.03616259 -0.00439701 0.08918337
v -0.03299556 -0.01516626 0.08930432
v -0.03498768 -0.00967809 0.09003155
v -0.03114025 -0.01958704 0.08643827
v -0.02930354 -0.02325454 0.08379161
v -0.02334532 -0.03072809 0.08454881
v -0.02656938 -0.02692688 0.08376411
v -0.02112265 -0.03438764 0.08447609
v -0.01676272 -0.03385844 0.08383885
v -0.01133464 -0.03356245 0.08132369
v -0.00658797 -0.03281022 0.07746373
v 0.00290894 -0.03431452 0.07612597
v -0.00093954 -0.03181849 0.07474256
v 0.00650757 -0.03196093 0.07668002
v 0.01082590 -0.02910134 0.07720107
v 0.01471870 -0.02640695 0.07699742
v 0.01726832 -0.02243399 0.07492365
v 0.02051482 -0.01710789 0.07269230
v 0.02423366 -0.01182121 0.07408088
v 0.02878223 -0.00705719 0.07475040
v 0.02830207 -0.01044686 0.07420481
v 0.02601011 0.00236055 0.07450441
v 0.02780868 -0.00265403 0.07516656
v 0.02425524 0.00673389 0.07383427
v 0.02198577 0.01101268 0.07373744
v 0.01944438 0.01495183 0.07289854
v 0.01717401 0.01830252 0.07134992
v 0.01435240 0.02411069 0.07709111
v 0.01573114 0.02088469 0.07415207
v 0.01163606 0.02765389 0.07902178
v 0.00826532 0.03082105 0.08002171
v 0.01152847 0.01735834 0.07480448
v 0.01265911 0.01520938 0.07072713
v 0.01026951 0.02091900 0.07726328
v 0.00802511 0.02404337 0.07918000
v 0.01681179 0.00797120 0.07221972
v 0.01467912 0.01173948 0.07196875
v 0.01879107 0.00401072 0.07179006
v 0.02037079 -0.00044816 0.07337553
v 0.02301819 -0.00470366 0.07431444
v 0.02528546 -0.00788073 0.07495489
v 0.01928575 -0.00847475 0.07323209
v 0.01619523 -0.01347233 0.07077033
v 0.01140323 -0.02319075 0.07596452
v 0.01162213 -0.01836148 0.07381654
v 0.00797396 -0.02498694 0.07600265
v 0.00356696 -0.02761404 0.07586508
v -0.00744547 -0.02652583 0.07676912
v -0.00325473 -0.02568687 0.07244974
v 0.00618348 -0.02053189 0.07334937
v 0.00141062 -0.02274367 0.07381592
v 0.01143018 -0.00911003 0.06897928
v 0.00753907 -0.01293388 0.07031751
v -0.00048242 -0.01781097 0.07205838
v 0.00355921 -0.01558663 0.07140742
v -0.00487088 -0.01988397 0.07177557
v -0.00840188 -0.01868562 0.07514021
v -0.01175438 -0.02747704 0.08051738
v -0.01768309 -0.02725899 0.08294398
v -0.01178640 -0.02309659 0.07917782
v -0.01533688 -0.02178080 0.08006562
v -0.02551479 -0.02032375 0.08213645
v -0.02231487 -0.02354394 0.08207027
v -0.02272206 -0.01745477 0.07949458
v -0.01945088 -0.01983159 0.07936632
v -0.01109097 -0.01819634 0.07632365
v -0.02650820 -0.01704623 0.08495261
v -0.02782865 -0.01278098 0.08726557
v -0.02372827 -0.01047741 0.08402392
v -0.02291512 -0.01442590 0.08206860
v -0.02953568 -0.00791233 0.08801379
v -0.03115096 -0.00351379 0.08734091
v -0.03213047 -0.00026086 0.08687462
v -0.02929008 0.00244843 0.08520495
v -0.02539617 -0.00612699 0.08445220
v -0.02744467 -0.00186486 0.08392314
v -0.02181316 -0.00462665 0.08058168
v -0.02026024 -0.00849152 0.08026903
v -0.02705737 0.00698129 0.08564218
v -0.02502142 0.01115426 0.08497549
v -0.02529480 0.00286078 0.08244074
v -0.02297384 -0.00003303 0.08008890
v -0.02330401 0.00594752 0.08256738
v -0.02011662 0.00432113 0.07926610
v -0.01751054 0.00887051 0.07911366
v -0.02166230 0.00988640 0.08183430
v -0.00844934 0.02456369 0.08196723
v -0.01175176 0.02217943 0.08552325
v -0.01586773 0.01999127 0.08705884
v -0.01092377 0.01687255 0.08299725
v -0.00764399 0.01941803 0.07955937
v -0.01429247 0.01692256 0.08505264
v -0.00656816 0.02661909 0.07789119
v -0.00607621 0.02183610 0.07524857
v 0.00109624 0.02889040 0.07863708
v -0.00248008 0.02790875 0.07743531
v 0.00374588 0.02964760 0.07935672
v 0.00554348 0.02734293 0.07948326
v -0.01580681 0.01212640 0.08204899
v -0.01335719 0.01105113 0.08043644
v -0.01349355 0.01397237 0.08267025
v -0.01649777 0.01441784 0.08403357
v -0.01961892 0.01258329 0.08293772
v -0.01764237 0.01118439 0.08137144
v -0.02273967 0.01479262 0.08446515
v -0.01950323 0.01724570 0.08641952
v -0.01014971 0.01328036 0.07941016
v -0.00772528 0.01501911 0.07675737
v 0.00234266 0.02506312 0.07833180
v -0.00131827 0.02316303 0.07621242
v -0.00552729 0.01625849 0.07227513
v 0.00061086 0.01735642 0.07512468
v 0.00690932 0.01862637 0.07707254
v 0.00440875 0.02115489 0.07775288
v 0.00816473 0.01184846 0.07097603
v 0.00601868 0.01470148 0.07464126
v 0.01217480 0.00542536 0.07015704
v 0.01031869 0.00876038 0.07057739
v 0.01365633 0.00148282 0.06954611
v 0.01450141 -0.00392098 0.07129068
v 0.00649796 0.00611568 0.06981843
v 0.00855220 0.00753762 0.07022649
v 0.00521009 0.01036308 0.07249697
v 0.00393241 0.00834277 0.06990015
v 0.00080322 0.01262629 0.07559898
v 0.00209603 0.01011234 0.07275467
v 0.00420507 0.01257972 0.07376901
v 0.00069980 0.01516948 0.07534397
v 0.00787420 0.00351127 0.06933704
v 0.00846400 0.00033889 0.06943051
v 0.01125569 0.00095393 0.06949266
v 0.01018645 0.00454039 0.06977792
v 0.00841200 -0.00311449 0.07002735
v 0.00682256 -0.00638238 0.06975264
v 0.00929126 -0.00762583 0.07047806
v 0.01094311 -0.00504801 0.07164454
v -0.00345585 0.01227964 0.07604930
v -0.00456957 0.01441889 0.07402010
v -0.00664631 0.01369702 0.07704745
v -0.00539158 0.01215957 0.07738479
v -0.00817301 0.00999920 0.07805959
v -0.00923580 0.01176334 0.07878574
v -0.01199162 0.00970650 0.07896049
v -0.01040359 0.00814284 0.07724410
v -0.01554718 0.00225667 0.07764399
v -0.01306883 0.00558363 0.07742037
v -0.01545694 0.00735084 0.07895117
v -0.01800397 0.00336664 0.07851612
v -0.01764315 -0.00063968 0.07841559
v -0.02050923 -0.00031351 0.07931526
v -0.01988280 -0.00416357 0.07938920
v -0.01763799 -0.00362505 0.07800247
v -0.01842247 -0.00761457 0.07871859
v -0.01628533 -0.00659477 0.07691560
v -0.00742509 -0.01403161 0.07385026
v -0.01050826 -0.01336516 0.07531043
v -0.01156162 -0.01597336 0.07763731
v -0.00761088 -0.01657279 0.07520738
v -0.00476891 -0.01494734 0.07262172
v -0.00482374 -0.01760155 0.07268078
v -0.00116330 -0.01563626 0.07172301
v -0.00195509 -0.01310730 0.07133301
v 0.00101472 -0.01121125 0.07032720
v 0.00238278 -0.01356370 0.07090799
v 0.00567731 -0.01103829 0.07009491
v 0.00351229 -0.00883393 0.06909083
v -0.00867407 0.00316544 0.07921583
v -0.00632282 0.00565653 0.07807147
v -0.01429365 -0.00108360 0.07784441
v -0.01110233 -0.00003862 0.07928478
v -0.01431603 -0.00276231 0.07755120
v -0.01111558 -0.00383201 0.07830442
v -0.00891163 -0.00731921 0.07753942
v -0.01468769 -0.01101116 0.07633542
v -0.00607990 -0.00962285 0.07566993
v -0.00667826 -0.01165320 0.07311734
v -0.00482487 -0.01174726 0.07249513
v -0.00227240 -0.00994417 0.07415808
v 0.00122605 -0.00871072 0.07380396
v 0.00475859 -0.00493891 0.07283163
v 0.00355212 -0.00714348 0.07321379
v 0.00423166 0.00021257 0.07144911
v 0.00470158 -0.00262935 0.07235798
v 0.00371478 0.00398870 0.06914634
v 0.00442606 0.00208878 0.06845121
v 0.00298764 0.00382039 0.07237369
v 0.00115300 0.00547900 0.07466987
v -0.00076049 0.00628257 0.07614048
v -0.00335932 0.00677366 0.07698480
v -0.00179572 -0.00727075 0.07956884
v -0.00388190 -0.00574115 0.08087952
v -0.00534896 -0.00342145 0.08196802
v -0.00550755 -0.00063363 0.08263342
v 0.00065972 -0.00776972 0.07856555
v 0.00302870 -0.00724749 0.07775662
v 0.00477344 -0.00614492 0.07712561
v 0.00573679 -0.00452426 0.07670894
v 0.00574705 -0.00252015 0.07649898
v 0.00521087 -0.00028488 0.07655446
v 0.00302268 0.00348644 0.07829984
v 0.00420067 0.00203120 0.07724448
v 0.00154080 0.00433621 0.07942945
v -0.00034548 0.00450647 0.08045564
v -0.00421078 0.00186729 0.08237942
v -0.00240144 0.00362990 0.08147910
v 0.00555836 -0.00657591 0.08150786
v 0.00392727 -0.00691370 0.08235578
v 0.00751937 -0.00435407 0.08035968
v 0.00687910 -0.00574729 0.08076531
v 0.00759216 -0.00256050 0.08018969
v 0.00714104 -0.00053193 0.08035802
v 0.00639750 0.00132783 0.08094181
v 0.00554175 0.00258697 0.08180416
v 0.00283983 0.00348900 0.08401327
v 0.00434100 0.00335039 0.08286476
v 0.00117492 0.00281765 0.08522329
v -0.00027239 0.00136387 0.08621455
v -0.00118142 -0.00094200 0.08665409
v -0.00087728 -0.00347482 0.08605539
v 0.00206351 -0.00658297 0.08356559
v 0.00031133 -0.00551683 0.08494617
v 0.00621537 0.00336435 0.08745380
v 0.00746913 0.00304536 0.08616543
v 0.00485734 0.00272901 0.08881890
v 0.00362500 0.00121870 0.09002836
v 0.00294065 -0.00110877 0.09060483
v 0.00331077 -0.00359081 0.09001618
v 0.00440245 -0.00559884 0.08874126
v 0.00595125 -0.00650824 0.08711521
v 0.00746989 -0.00663759 0.08569874
v 0.00878613 -0.00617900 0.08458660
v 0.00972571 -0.00523461 0.08384142
v 0.01014421 -0.00392357 0.08350589
v 0.01016723 -0.00242184 0.08344399
v 0.00986460 -0.00077861 0.08365009
v 0.00933302 0.00095284 0.08413941
v 0.00850513 0.00225286 0.08505617
v 0.01230397 -0.00597168 0.08736606
v 0.01130431 -0.00666071 0.08858425
v 0.01292218 -0.00488652 0.08666187
v 0.01321007 -0.00368317 0.08633742
v 0.01326885 -0.00239331 0.08625163
v 0.01312138 -0.00099768 0.08639218
v 0.01277409 0.00043542 0.08679795
v 0.01216075 0.00164849 0.08757527
v 0.01133200 0.00256657 0.08865066
v 0.01029509 0.00317482 0.09004583
v 0.00906997 0.00290390 0.09175501
v 0.00805985 0.00126441 0.09315103
v 0.00750601 -0.00113970 0.09389096
v 0.00781599 -0.00367877 0.09338600
v 0.00874340 -0.00560571 0.09203371
v 0.01003960 -0.00663124 0.09023249
v 0.01613293 -0.00594269 0.08972803
v 0.01536503 -0.00664282 0.09109945
v 0.01661873 -0.00482738 0.08887962
v 0.01685585 -0.00365335 0.08846382
v 0.01686987 -0.00243673 0.08844195
v 0.01673325 -0.00119616 0.08867190
v 0.01649625 0.00009353 0.08904196
v 0.01603213 0.00128065 0.08974871
v 0.01539243 0.00231954 0.09077789
v 0.01456900 0.00304558 0.09223355
v 0.01360427 0.00277298 0.09406209
v 0.01281886 0.00120702 0.09560133
v 0.01248197 -0.00116834 0.09628621
v 0.01265269 -0.00370652 0.09607631
v 0.01336930 -0.00574186 0.09478747
v 0.01439152 -0.00666249 0.09288139
v 0.01832721 -0.00557818 0.09671259
v 0.01906842 -0.00661900 0.09486322
v 0.02391213 -0.00621829 0.09617257
v 0.02342360 -0.00516379 0.09785215
v 0.01977148 -0.00664052 0.09300554
v 0.02434745 -0.00629243 0.09438806
v 0.02030724 -0.00590183 0.09153864
v 0.02465641 -0.00571827 0.09292693
v 0.02065651 -0.00490329 0.09055794
v 0.02485659 -0.00483348 0.09189189
v 0.02079581 -0.00370081 0.09011851
v 0.02491048 -0.00367435 0.09136468
v 0.02077705 -0.00251028 0.09012078
v 0.02484998 -0.00254222 0.09134746
v 0.02068245 -0.00133680 0.09036757
v 0.02483581 -0.00142218 0.09152115
v 0.02049738 -0.00013474 0.09081658
v 0.02480557 -0.00022494 0.09203947
v 0.02007911 0.00101796 0.09153697
v 0.02430248 0.00104030 0.09273781
v 0.01955762 0.00206389 0.09254843
v 0.02379965 0.00205971 0.09381449
v 0.01893911 0.00280369 0.09400721
v 0.02334280 0.00270053 0.09530643
v 0.01824014 0.00269074 0.09591537
v 0.02292036 0.00255664 0.09717499
v 0.01771204 0.00115093 0.09747022
v 0.02267174 0.00099651 0.09850805
v 0.01757673 -0.00114953 0.09802358
v 0.02271689 -0.00112551 0.09888807
v 0.01778526 -0.00354524 0.09782202
v 0.02298584 -0.00327928 0.09874139
v 0.02911868 -0.00539738 0.09363875
v 0.02902830 -0.00588346 0.09517422
v 0.02912948 -0.00459132 0.09256980
v 0.02903080 -0.00337261 0.09188667
v 0.02883992 -0.00237969 0.09182691
v 0.02895072 -0.00144108 0.09201368
v 0.02961724 -0.00011481 0.09243226
v 0.02848199 0.00129181 0.09333986
v 0.02793581 0.00233914 0.09450903
v 0.02764629 0.00281453 0.09610882
v 0.02748804 0.00073509 0.09880734
v 0.02749167 0.00217788 0.09769417
v 0.02771130 -0.00109106 0.09932769
v 0.02810247 -0.00297342 0.09917676
v 0.02852659 -0.00463921 0.09840167
v 0.02878859 -0.00567442 0.09688515
v 0.03337935 -0.00429242 0.09303169
v 0.03352108 -0.00477631 0.09390128
v 0.03664483 -0.00414086 0.09172725
v 0.03675647 -0.00435706 0.09269924
v 0.03877413 -0.00468761 0.09089006
v 0.03797751 -0.00451846 0.09062058
v 0.03935914 -0.00516971 0.08938326
v 0.03800871 -0.00468436 0.08970896
v 0.03778789 -0.00468960 0.08892215
v 0.03870159 -0.00523702 0.08830889
v 0.03717231 -0.00433185 0.08834465
v 0.03802264 -0.00514895 0.08746951
v 0.03676445 -0.00438320 0.08681034
v 0.03661574 -0.00375701 0.08801990
v 0.03641669 -0.00358228 0.08681226
v 0.03591692 -0.00288660 0.08788986
v 0.03581600 -0.00223530 0.08731084
v 0.03520386 -0.00172496 0.08831233
v 0.03528817 -0.00237588 0.08900159
v 0.03449871 -0.00154384 0.08940221
v 0.03315268 -0.00285488 0.09147602
v 0.03240146 -0.00207529 0.09125178
v 0.03657677 -0.00366482 0.08927947
v 0.03590781 -0.00308005 0.08944736
v 0.03715086 -0.00408508 0.08964728
v 0.03675706 -0.00401407 0.09083356
v 0.03500065 -0.00357743 0.09163448
v 0.03476047 -0.00301955 0.09092405
v 0.03729705 -0.00433756 0.09418401
v 0.03908224 -0.00396740 0.09226715
v 0.03262087 -0.00086495 0.09170499
v 0.03232573 -0.00159957 0.09148552
v 0.03436745 -0.00118821 0.08973466
v 0.03446242 -0.00122243 0.09060877
v 0.03585754 -0.00189005 0.08975869
v 0.03574301 -0.00168595 0.08805265
v 0.03633530 -0.00215812 0.08704697
v 0.03652965 -0.00230395 0.08848619
v 0.03709705 -0.00304107 0.08747499
v 0.03672531 -0.00329651 0.08671519
v 0.03751433 -0.00349285 0.08738043
v 0.03729142 -0.00391563 0.08679328
v 0.03827633 -0.00483929 0.08749834
v 0.03808384 -0.00424929 0.08784384
v 0.03883040 -0.00499972 0.08823453
v 0.03858706 -0.00440767 0.08861715
v 0.03940191 -0.00493358 0.08936867
v 0.03887652 -0.00435330 0.08931865
v 0.03909265 -0.00387430 0.09064724
v 0.03917630 -0.00439735 0.09074647
v 0.03988215 -0.00320170 0.09113992
v 0.03958325 -0.00377253 0.09168397
v 0.03870125 -0.00352704 0.09024884
v 0.03926721 -0.00287209 0.09024364
v 0.03847070 -0.00220530 0.08981816
v 0.03786833 -0.00288059 0.08995783
v 0.03799229 -0.00379577 0.08855615
v 0.03826264 -0.00374849 0.08931276
v 0.03765181 -0.00314315 0.08944884
v 0.03736781 -0.00319801 0.08873232
v 0.03699796 -0.00280617 0.08872602
v 0.03675728 -0.00240116 0.08959296
v 0.03607936 -0.00176161 0.09041161
v 0.03707838 -0.00219452 0.08994980
v 0.03776527 -0.00145226 0.08989876
v 0.03657466 -0.00076536 0.09058023
v 0.03495660 -0.00107764 0.09130055
v 0.03363287 -0.00028017 0.09188017
v 0.03443940 0.00021451 0.09177320
v 0.03545047 -0.00016912 0.09134304
v 0.03244067 0.00058964 0.09258172
v 0.03179827 0.00175346 0.09341096
v 0.03422451 0.00208243 0.09285215
v 0.03426661 0.00101214 0.09223386
v 0.03366434 -0.00508966 0.09554795
v 0.03345270 -0.00479273 0.09690767
v 0.03945620 -0.00354185 0.09401622
v 0.03729859 -0.00403473 0.09561870
v 0.03685460 -0.00330341 0.09688251
v 0.03352479 -0.00385470 0.09798569
v 0.03626806 -0.00213382 0.09759939
v 0.03294475 -0.00252998 0.09854231
v 0.03554283 -0.00086566 0.09790584
v 0.03229685 -0.00104683 0.09872627
v 0.03506583 0.00040898 0.09764140
v 0.03181491 0.00044557 0.09841151
v 0.03466767 0.00289543 0.09411011
v 0.03153244 0.00258525 0.09460952
v 0.03453465 0.00269441 0.09590452
v 0.03142371 0.00267409 0.09623259
v 0.03154101 0.00174416 0.09754068
v 0.03473202 0.00170143 0.09708642
v 0.03707013 0.00042673 0.09055801
v 0.03572393 0.00096569 0.09149229
v 0.03739402 0.00171494 0.09084680
v 0.03614498 0.00217866 0.09193243
v 0.03955489 -0.00079244 0.08882956
v 0.03815551 -0.00008184 0.08969110
v 0.04144494 -0.00250615 0.09073838
v 0.04064293 -0.00214860 0.08948818
v 0.03965592 0.00131559 0.08914952
v 0.03848722 0.00142577 0.08998377
v 0.03987605 0.00271047 0.09008320
v 0.03872557 0.00250644 0.09065389
v 0.03786984 0.00237692 0.09110541
v 0.03748548 0.00282200 0.09183416
v 0.03731040 0.00319786 0.09293104
v 0.03604271 0.00283576 0.09297911
v 0.03697831 0.00324934 0.09421625
v 0.03703853 0.00277468 0.09561720
v 0.03765819 0.00054799 0.09703862
v 0.03734571 0.00171358 0.09658535
v 0.03816285 -0.00067694 0.09722297
v 0.04006080 0.00348373 0.09119387
v 0.03873022 0.00319939 0.09155727
v 0.04029458 0.00376844 0.09244931
v 0.03879231 0.00350394 0.09274255
v 0.03857645 -0.00195220 0.09689539
v 0.03900779 -0.00301622 0.09585057
v 0.04114508 -0.00294035 0.09300474
v 0.04046319 -0.00318246 0.09344585
v 0.04158492 -0.00215967 0.09440635
v 0.04046756 -0.00262052 0.09502162
v 0.04266205 -0.00159483 0.09396544
v 0.04224147 -0.00240489 0.09226541
v 0.03887619 0.00346592 0.09403652
v 0.03910986 0.00282742 0.09521662
v 0.04058622 0.00353439 0.09369246
v 0.04092646 0.00276828 0.09470108
v 0.03941442 0.00174746 0.09596642
v 0.03972973 0.00071568 0.09647252
v 0.04038703 -0.00167153 0.09605820
v 0.04007235 -0.00049405 0.09643559
v 0.04126483 0.00169084 0.09532339
v 0.04148035 0.00077251 0.09567895
v 0.04166927 -0.00026960 0.09560976
v 0.04175850 -0.00132291 0.09522846
v 0.04297613 -0.00092651 0.09437817
v 0.04302135 0.00002228 0.09482052
v 0.04283593 0.00089308 0.09481478
v 0.04291694 0.00153363 0.09467089
v 0.04215957 0.00350539 0.09327874
v 0.04256424 0.00262501 0.09412850
v 0.04146326 0.00378445 0.09081136
v 0.04177790 0.00383388 0.09210290
v 0.04114888 0.00161920 0.08850312
v 0.04123218 0.00300620 0.08953945
v 0.04143724 -0.00016154 0.08810190
v 0.04275322 -0.00175290 0.09033177
v 0.04359964 -0.00170854 0.09166012
v 0.04215613 -0.00138258 0.08904912
v 0.04409283 -0.00092206 0.09331719
v 0.04352360 -0.00048886 0.09414957
v 0.04372680 0.00014814 0.09427048
v 0.04426832 0.00170542 0.09375982
v 0.04395130 0.00263838 0.09339418
v 0.04435525 0.00050721 0.09389609
v 0.04316631 0.00385419 0.09177587
v 0.04353025 0.00340021 0.09279099
v 0.04288418 0.00387170 0.09051866
v 0.04269577 0.00323154 0.08921562
v 0.04306397 0.00038801 0.08811627
v 0.04269764 0.00188876 0.08828733
v 0.04343093 -0.00066904 0.08902127
v 0.04362320 -0.00108060 0.09001786
v 0.04463801 -0.00074786 0.09074084
v 0.04510653 -0.00031163 0.09218508
v 0.04520423 0.00180933 0.09292712
v 0.04522005 0.00073035 0.09277244
v 0.04486562 0.00263077 0.09261858
v 0.04454720 0.00326467 0.09223147
v 0.04430374 0.00359225 0.09144073
v 0.04418658 0.00376577 0.09038576
v 0.04413466 0.00201609 0.08860676
v 0.04409918 0.00312164 0.08932639
v 0.04425386 0.00082598 0.08863379
v 0.04448273 -0.00004082 0.08944631
v 0.04559824 0.00028729 0.09160118
v 0.04552498 0.00030506 0.09067644
v 0.04506088 0.00109390 0.08893908
v 0.04543172 0.00061480 0.08957188
v 0.04524420 0.00290035 0.08959280
v 0.04526143 0.00195167 0.08897793
v 0.04514593 0.00337528 0.09126535
v 0.04512244 0.00335692 0.09044230
v 0.04510747 0.00316565 0.09184759
v 0.04554301 0.00280841 0.09204967
v 0.04597468 0.00098361 0.09191467
v 0.04594441 0.00201437 0.09210236
v 0.04621331 0.00121557 0.09084199
v 0.04595478 0.00157129 0.08976239
v 0.04639544 0.00231080 0.09112029
v 0.04577722 0.00296464 0.09127641
v 0.04571072 0.00304126 0.09061295
v 0.04605828 0.00259147 0.09016460
v -0.01980249 -0.01435034 0.07755607
v -0.01459129 -0.01748895 0.07730354
v -0.01729855 -0.01353076 0.07834880
v -0.01376734 -0.01518435 0.07904432
v -0.02029581 -0.01099169 0.08039720
v -0.01813334 -0.01037277 0.07864739
f 1 2 3
f 1 3 4
f 4 3 5
f 4 5 6
f 6 5 7
f 6 7 8
f 8 7 9
f 8 9 10
f 10 9 11
f 10 11 12
f 11 13 14
f 11 14 12
f 13 15 16
f 13 16 14
f 17 18 19
f 17 19 20
f 18 21 22
f 18 22 19
f 21 23 24
f 21 24 22
f 24 23 25
f 24 25 26
f 26 25 27
f 26 27 28
f 28 27 29
f 28 29 30
f 31 32 33
f 31 33 34
f 34 33 35
f 34 35 36
f 35 37 38
f 35 38 36
f 38 37 39
f 38 39 40
f 40 39 41
f 40 41 42
f 43 44 45
f 43 45 46
f 44 47 48
f 44 48 45
f 47 49 50
f 47 50 48
f 49 51 52
f 49 52 50
f 53 54 55
f 53 55 56
f 54 57 58
f 54 58 55
f 57 59 60
f 57 60 58
f 59 61 62
f 59 62 60
f 62 61 63
f 62 63 64
f 65 66 67
f 65 67 68
f 66 69 70
f 66 70 67
f 70 69 71
f 70 71 72
f 71 73 74
f 71 74 72
f 75 76 77
f 75 77 78
f 79 17 20
f 79 20 80
f 75 2 1
f 75 1 76
f 30 29 81
f 30 81 82
f 83 84 85
f 83 85 86
f 42 41 85
f 42 85 84
f 83 86 43
f 83 43 46
f 51 87 88
f 51 88 52
f 87 53 56
f 87 56 88
f 63 65 68
f 63 68 64
f 16 15 74
f 16 74 73
f 51 49 89
f 51 89 90
f 49 47 91
f 49 91 89
f 47 44 92
f 47 92 91
f 44 43 93
f 44 93 92
f 43 86 94
f 43 94 93
f 86 85 95
f 86 95 94
f 85 41 96
f 85 96 95
f 41 39 97
f 41 97 96
f 39 37 98
f 39 98 97
f 37 35 99
f 37 99 98
f 35 33 100
f 35 100 99
f 33 32 101
f 33 101 100
f 32 81 102
f 32 102 101
f 29 27 103
f 29 103 104
f 27 25 105
f 27 105 103
f 25 23 106
f 25 106 105
f 23 21 107
f 23 107 106
f 21 18 108
f 21 108 107
f 18 17 109
f 18 109 108
f 17 79 110
f 17 110 109
f 77 111 110
f 77 110 79
f 76 1 112
f 76 112 113
f 1 4 114
f 1 114 112
f 4 6 115
f 4 115 114
f 6 8 116
f 6 116 115
f 8 10 117
f 8 117 116
f 10 12 118
f 10 118 117
f 12 14 119
f 12 119 118
f 14 16 120
f 14 120 119
f 16 73 121
f 16 121 120
f 73 71 122
f 73 122 121
f 71 69 123
f 71 123 122
f 69 66 124
f 69 124 123
f 66 65 125
f 66 125 124
f 65 63 126
f 65 126 125
f 63 61 127
f 63 127 126
f 61 59 128
f 61 128 127
f 59 57 129
f 59 129 128
f 57 54 130
f 57 130 129
f 54 53 131
f 54 131 130
f 53 87 132
f 53 132 131
f 87 51 90
f 87 90 132
f 50 52 133
f 50 133 134
f 52 88 135
f 52 135 133
f 88 56 136
f 88 136 135
f 56 55 137
f 56 137 136
f 55 58 138
f 55 138 137
f 58 60 139
f 58 139 138
f 60 62 140
f 60 140 139
f 62 64 141
f 62 141 140
f 64 68 142
f 64 142 141
f 68 67 143
f 68 143 142
f 67 70 144
f 67 144 143
f 70 72 145
f 70 145 144
f 72 74 146
f 72 146 145
f 74 15 147
f 74 147 146
f 15 13 148
f 15 148 147
f 13 11 149
f 13 149 148
f 11 9 150
f 11 150 149
f 9 7 151
f 9 151 150
f 7 5 152
f 7 152 151
f 5 3 153
f 5 153 152
f 3 2 154
f 3 154 153
f 2 75 155
f 2 155 154
f 78 156 155
f 78 155 75
f 80 20 157
f 80 157 158
f 20 19 159
f 20 159 157
f 19 22 160
f 19 160 159
f 22 24 161
f 22 161 160
f 24 26 162
f 24 162 161
f 26 28 163
f 26 163 162
f 28 30 164
f 28 164 163
f 82 165 164
f 82 164 30
f 31 34 166
f 31 166 167
f 34 36 168
f 34 168 166
f 36 38 169
f 36 169 168
f 38 40 170
f 38 170 169
f 40 42 171
f 40 171 170
f 42 84 172
f 42 172 171
f 84 83 173
f 84 173 172
f 83 46 174
f 83 174 173
f 46 45 175
f 46 175 174
f 45 48 176
f 45 176 175
f 48 50 134
f 48 134 176
f 143 144 177
f 143 177 178
f 144 145 179
f 144 179 177
f 145 146 180
f 145 180 179
f 146 147 181
f 146 181 180
f 147 148 182
f 147 182 181
f 148 149 183
f 148 183 182
f 149 150 184
f 149 184 183
f 150 151 185
f 150 185 184
f 151 152 186
f 151 186 185
f 152 153 187
f 152 187 186
f 153 154 188
f 153 188 187
f 154 155 189
f 154 189 188
f 155 156 190
f 155 190 189
f 158 157 191
f 158 191 192
f 157 159 193
f 157 193 191
f 159 160 194
f 159 194 193
f 160 161 195
f 160 195 194
f 161 162 196
f 161 196 195
f 162 163 197
f 162 197 196
f 163 164 198
f 163 198 197
f 165 199 198
f 165 198 164
f 167 166 200
f 167 200 201
f 166 168 202
f 166 202 200
f 168 169 203
f 168 203 202
f 169 170 204
f 169 204 203
f 170 171 205
f 170 205 204
f 171 172 206
f 171 206 205
f 172 173 207
f 172 207 206
f 173 174 208
f 173 208 207
f 174 175 209
f 174 209 208
f 175 176 210
f 175 210 209
f 176 134 211
f 176 211 210
f 134 133 212
f 134 212 211
f 133 135 213
f 133 213 212
f 135 136 214
f 135 214 213
f 136 137 215
f 136 215 214
f 137 138 216
f 137 216 215
f 138 139 217
f 138 217 216
f 139 140 218
f 139 218 217
f 140 141 219
f 140 219 218
f 141 142 220
f 141 220 219
f 142 143 178
f 142 178 220
f 178 177 221
f 178 221 222
f 177 179 223
f 177 223 221
f 179 180 224
f 179 224 223
f 180 181 225
f 180 225 224
f 181 182 226
f 181 226 225
f 182 183 227
f 182 227 226
f 183 184 228
f 183 228 227
f 184 185 229
f 184 229 228
f 185 186 230
f 185 230 229
f 186 187 231
f 186 231 230
f 187 188 232
f 187 232 231
f 188 189 233
f 188 233 232
f 189 190 234
f 189 234 233
f 192 191 235
f 192 235 236
f 191 193 237
f 191 237 235
f 193 194 238
f 193 238 237
f 194 195 239
f 194 239 238
f 195 196 240
f 195 240 239
f 196 197 241
f 196 241 240
f 197 198 242
f 197 242 241
f 199 243 242
f 199 242 198
f 201 200 244
f 201 244 245
f 200 202 246
f 200 246 244
f 202 203 247
f 202 247 246
f 203 204 248
f 203 248 247
f 204 205 249
f 204 249 248
f 205 206 250
f 205 250 249
f 206 207 251
f 206 251 250
f 207 208 252
f 207 252 251
f 208 209 253
f 208 253 252
f 209 210 254
f 209 254 253
f 210 211 255
f 210 255 254
f 211 212 256
f 211 256 255
f 212 213 257
f 212 257 256
f 213 214 258
f 213 258 257
f 214 215 259
f 214 259 258
f 215 216 260
f 215 260 259
f 216 217 261
f 216 261 260
f 217 218 262
f 217 262 261
f 218 219 263
f 218 263 262
f 219 220 264
f 219 264 263
f 220 178 222
f 220 222 264
f 256 257 265
f 256 265 266
f 257 258 267
f 257 267 265
f 258 259 268
f 258 268 267
f 259 260 269
f 259 269 268
f 260 261 270
f 260 270 269
f 261 262 271
f 261 271 270
f 262 263 272
f 262 272 271
f 263 264 273
f 263 273 272
f 264 222 274
f 264 274 273
f 222 221 275
f 222 275 274
f 221 223 276
f 221 276 275
f 223 224 277
f 223 277 276
f 224 225 278
f 224 278 277
f 225 226 279
f 225 279 278
f 226 227 280
f 226 280 279
f 227 228 281
f 227 281 280
f 228 229 282
f 228 282 281
f 229 230 283
f 229 283 282
f 230 231 284
f 230 284 283
f 231 232 285
f 231 285 284
f 232 233 286
f 232 286 285
f 234 287 286
f 234 286 233
f 236 235 288
f 236 288 289
f 235 237 290
f 235 290 288
f 237 238 291
f 237 291 290
f 238 239 292
f 238 292 291
f 239 240 293
f 239 293 292
f 240 241 294
f 240 294 293
f 241 242 295
f 241 295 294
f 243 296 295
f 243 295 242
f 245 244 297
f 245 297 298
f 244 246 299
f 244 299 297
f 246 247 300
f 246 300 299
f 247 248 301
f 247 301 300
f 248 249 302
f 248 302 301
f 249 250 303
f 249 303 302
f 250 251 304
f 250 304 303
f 251 252 305
f 251 305 304
f 252 253 306
f 252 306 305
f 253 254 307
f 253 307 306
f 254 255 308
f 254 308 307
f 255 256 266
f 255 266 308
f 32 31 82
f 32 82 81
f 29 104 102
f 29 102 81
f 31 167 165
f 31 165 82
f 167 201 199
f 167 199 165
f 201 245 243
f 201 243 199
f 245 298 296
f 245 296 243
f 79 80 78
f 79 78 77
f 76 113 111
f 76 111 77
f 80 158 156
f 80 156 78
f 156 158 192
f 156 192 190
f 190 192 236
f 190 236 234
f 236 289 287
f 236 287 234
f 98 99 309
f 98 309 310
f 99 100 311
f 99 311 309
f 100 101 312
f 100 312 311
f 101 102 313
f 101 313 312
f 102 104 314
f 102 314 313
f 104 103 315
f 104 315 314
f 103 105 316
f 103 316 315
f 105 106 317
f 105 317 316
f 106 107 318
f 106 318 317
f 107 108 319
f 107 319 318
f 108 109 320
f 108 320 319
f 109 110 321
f 109 321 320
f 110 111 322
f 110 322 321
f 111 113 323
f 111 323 322
f 113 112 324
f 113 324 323
f 112 114 325
f 112 325 324
f 114 115 326
f 114 326 325
f 115 116 327
f 115 327 326
f 116 117 328
f 116 328 327
f 117 118 329
f 117 329 328
f 118 119 330
f 118 330 329
f 119 120 331
f 119 331 330
f 120 121 332
f 120 332 331
f 121 122 333
f 121 333 332
f 122 123 334
f 122 334 333
f 123 124 335
f 123 335 334
f 124 125 336
f 124 336 335
f 125 126 337
f 125 337 336
f 126 127 338
f 126 338 337
f 127 128 339
f 127 339 338
f 128 129 340
f 128 340 339
f 129 130 341
f 129 341 340
f 130 131 342
f 130 342 341
f 131 132 343
f 131 343 342
f 132 90 344
f 132 344 343
f 90 89 345
f 90 345 344
f 89 91 346
f 89 346 345
f 91 92 347
f 91 347 346
f 92 93 348
f 92 348 347
f 93 94 349
f 93 349 348
f 94 95 350
f 94 350 349
f 95 96 351
f 95 351 350
f 96 97 352
f 96 352 351
f 97 98 310
f 97 310 352
f 310 309 353
f 310 353 354
f 309 311 355
f 309 355 353
f 311 312 356
f 311 356 355
f 312 313 357
f 312 357 356
f 313 314 358
f 313 358 357
f 314 315 359
f 314 359 358
f 315 316 360
f 315 360 359
f 316 317 361
f 316 361 360
f 317 318 362
f 317 362 361
f 318 319 363
f 318 363 362
f 319 320 364
f 319 364 363
f 320 321 365
f 320 365 364
f 321 322 366
f 321 366 365
f 322 323 367
f 322 367 366
f 323 324 368
f 323 368 367
f 324 325 369
f 324 369 368
f 325 326 370
f 325 370 369
f 326 327 371
f 326 371 370
f 327 328 372
f 327 372 371
f 328 329 373
f 328 373 372
f 329 330 374
f 329 374 373
f 330 331 375
f 330 375 374
f 331 332 376
f 331 376 375
f 332 333 377
f 332 377 376
f 333 334 378
f 333 378 377
f 334 335 379
f 334 379 378
f 335 336 380
f 335 380 379
f 336 337 381
f 336 381 380
f 337 338 382
f 337 382 381
f 338 339 383
f 338 383 382
f 339 340 384
f 339 384 383
f 340 341 385
f 340 385 384
f 341 342 386
f 341 386 385
f 342 343 387
f 342 387 386
f 343 344 388
f 343 388 387
f 344 345 389
f 344 389 388
f 345 346 390
f 345 390 389
f 346 347 391
f 346 391 390
f 347 348 392
f 347 392 391
f 348 349 393
f 348 393 392
f 349 350 394
f 349 394 393
f 350 351 395
f 350 395 394
f 351 352 396
f 351 396 395
f 352 310 354
f 352 354 396
f 376 377 397
f 376 397 398
f 377 378 399
f 377 399 397
f 378 379 400
f 378 400 399
f 379 380 401
f 379 401 400
f 380 381 402
f 380 402 401
f 381 382 403
f 381 403 402
f 382 383 404
f 382 404 403
f 383 384 405
f 383 405 404
f 384 385 406
f 384 406 405
f 385 386 407
f 385 407 406
f 386 387 408
f 386 408 407
f 387 388 409
f 387 409 408
f 388 389 410
f 388 410 409
f 389 390 411
f 389 411 410
f 390 391 412
f 390 412 411
f 391 392 413
f 391 413 412
f 392 393 414
f 392 414 413
f 393 394 415
f 393 415 414
f 394 395 416
f 394 416 415
f 395 396 417
f 395 417 416
f 396 354 418
f 396 418 417
f 354 353 419
f 354 419 418
f 353 355 420
f 353 420 419
f 355 356 421
f 355 421 420
f 356 357 422
f 356 422 421
f 357 358 423
f 357 423 422
f 358 359 424
f 358 424 423
f 359 360 425
f 359 425 424
f 360 361 426
f 360 426 425
f 361 362 427
f 361 427 426
f 362 363 428
f 362 428 427
f 363 364 429
f 363 429 428
f 364 365 430
f 364 430 429
f 365 366 431
f 365 431 430
f 366 367 432
f 366 432 431
f 367 368 433
f 367 433 432
f 368 369 434
f 368 434 433
f 369 370 435
f 369 435 434
f 370 371 436
f 370 436 435
f 371 372 437
f 371 437 436
f 372 373 438
f 372 438 437
f 373 374 439
f 373 439 438
f 374 375 440
f 374 440 439
f 375 376 398
f 375 398 440
f 294 295 441
f 294 441 442
f 295 296 443
f 295 443 441
f 296 298 444
f 296 444 443
f 298 297 445
f 298 445 444
f 297 299 446
f 297 446 445
f 299 300 447
f 299 447 446
f 300 301 448
f 300 448 447
f 301 302 449
f 301 449 448
f 302 303 450
f 302 450 449
f 303 304 451
f 303 451 450
f 304 305 452
f 304 452 451
f 305 306 453
f 305 453 452
f 306 307 454
f 306 454 453
f 307 308 455
f 307 455 454
f 308 266 456
f 308 456 455
f 266 265 457
f 266 457 456
f 265 267 458
f 265 458 457
f 267 268 459
f 267 459 458
f 268 269 460
f 268 460 459
f 269 270 461
f 269 461 460
f 270 271 462
f 270 462 461
f 271 272 463
f 271 463 462
f 272 273 464
f 272 464 463
f 273 274 465
f 273 465 464
f 274 275 466
f 274 466 465
f 275 276 467
f 275 467 466
f 276 277 468
f 276 468 467
f 277 278 469
f 277 469 468
f 278 279 470
f 278 470 469
f 279 280 471
f 279 471 470
f 280 281 472
f 280 472 471
f 281 282 473
f 281 473 472
f 282 283 474
f 282 474 473
f 283 284 475
f 283 475 474
f 284 285 476
f 284 476 475
f 285 286 477
f 285 477 476
f 286 287 478
f 286 478 477
f 287 289 479
f 287 479 478
f 289 288 480
f 289 480 479
f 288 290 481
f 288 481 480
f 290 291 482
f 290 482 481
f 291 292 483
f 291 483 482
f 292 293 484
f 292 484 483
f 293 294 442
f 293 442 484
f 485 462 463
f 485 463 486
f 487 488 460
f 487 460 461
f 489 490 458
f 489 458 459
f 491 464 465
f 491 465 492
f 493 494 466
f 493 466 467
f 466 494 492
f 466 492 465
f 463 464 491
f 463 491 486
f 461 462 485
f 461 485 487
f 459 460 488
f 459 488 489
f 495 456 457
f 495 457 496
f 497 498 454
f 497 454 455
f 499 500 452
f 499 452 453
f 501 502 450
f 501 450 451
f 503 448 449
f 503 449 504
f 505 506 446
f 505 446 447
f 507 444 445
f 507 445 508
f 445 446 506
f 445 506 508
f 447 448 503
f 447 503 505
f 449 450 502
f 449 502 504
f 451 452 500
f 451 500 501
f 453 454 498
f 453 498 499
f 456 495 497
f 456 497 455
f 458 490 496
f 458 496 457
f 509 510 441
f 509 441 443
f 444 507 509
f 444 509 443
f 511 512 484
f 511 484 442
f 513 514 482
f 513 482 483
f 515 516 480
f 515 480 481
f 481 482 514
f 481 514 515
f 442 441 510
f 442 510 511
f 483 484 512
f 483 512 513
f 517 518 478
f 517 478 479
f 480 516 517
f 480 517 479
f 519 520 476
f 519 476 477
f 521 522 474
f 521 474 475
f 523 524 472
f 523 472 473
f 525 470 471
f 525 471 526
f 527 528 468
f 527 468 469
f 467 468 528
f 467 528 493
f 469 470 525
f 469 525 527
f 472 524 526
f 472 526 471
f 474 522 523
f 474 523 473
f 475 476 520
f 475 520 521
f 478 518 519
f 478 519 477
f 529 530 485
f 529 485 486
f 531 494 493
f 531 493 532
f 533 534 491
f 533 491 492
f 494 531 533
f 494 533 492
f 486 491 534
f 486 534 529
f 535 536 488
f 535 488 487
f 530 535 487
f 530 487 485
f 537 538 490
f 537 490 489
f 536 537 489
f 536 489 488
f 539 528 527
f 539 527 540
f 541 542 524
f 541 524 523
f 525 526 524
f 525 524 527
f 542 540 527
f 542 527 524
f 493 528 539
f 493 539 532
f 543 522 521
f 543 521 544
f 545 520 519
f 545 519 546
f 547 518 517
f 547 517 548
f 546 519 518
f 546 518 547
f 545 544 521
f 545 521 520
f 543 541 523
f 543 523 522
f 549 550 516
f 549 516 515
f 548 517 516
f 548 516 550
f 551 552 514
f 551 514 513
f 553 512 511
f 553 511 554
f 555 510 509
f 555 509 556
f 557 507 508
f 557 508 558
f 556 509 507
f 556 507 557
f 552 549 515
f 552 515 514
f 553 551 513
f 553 513 512
f 554 511 510
f 554 510 555
f 552 551 553
f 552 553 549
f 559 560 506
f 559 506 505
f 560 558 508
f 560 508 506
f 561 562 503
f 561 503 504
f 563 502 501
f 563 501 564
f 565 500 499
f 565 499 566
f 567 498 497
f 567 497 568
f 569 495 496
f 569 496 570
f 570 496 490
f 570 490 538
f 568 497 495
f 568 495 569
f 566 499 498
f 566 498 567
f 565 564 501
f 565 501 500
f 563 561 504
f 563 504 502
f 562 559 505
f 562 505 503
f 567 568 565
f 567 565 566
f 571 570 538
f 571 538 572
f 573 574 568
f 573 568 569
f 565 568 574
f 565 574 564
f 575 561 563
f 575 563 576
f 577 578 559
f 577 559 562
f 579 580 558
f 579 558 560
f 581 556 557
f 581 557 582
f 582 557 558
f 582 558 580
f 578 579 560
f 578 560 559
f 575 577 562
f 575 562 561
f 576 563 564
f 576 564 574
f 573 569 570
f 573 570 571
f 554 555 556
f 554 556 581
f 583 584 549
f 583 549 553
f 585 548 550
f 585 550 586
f 587 546 547
f 587 547 588
f 589 590 544
f 589 544 545
f 591 592 541
f 591 541 543
f 542 541 592
f 542 592 540
f 593 532 539
f 593 539 594
f 594 539 540
f 594 540 592
f 590 591 543
f 590 543 544
f 587 589 545
f 587 545 546
f 588 547 548
f 588 548 585
f 584 586 550
f 584 550 549
f 581 583 553
f 581 553 554
f 595 596 582
f 595 582 580
f 583 581 582
f 583 582 596
f 597 598 586
f 597 586 584
f 596 597 584
f 596 584 583
f 599 579 578
f 599 578 600
f 599 595 580
f 599 580 579
f 601 602 595
f 601 595 599
f 597 596 595
f 597 595 602
f 603 604 588
f 603 588 585
f 603 585 586
f 603 586 598
f 605 606 589
f 605 589 587
f 605 587 588
f 605 588 604
f 607 608 591
f 607 591 590
f 606 607 590
f 606 590 589
f 608 594 592
f 608 592 591
f 607 606 605
f 607 605 608
f 609 610 605
f 609 605 604
f 611 603 598
f 611 598 612
f 602 612 598
f 602 598 597
f 609 604 603
f 609 603 611
f 608 605 610
f 608 610 594
f 613 614 610
f 613 610 609
f 610 614 593
f 610 593 594
f 615 611 612
f 615 612 616
f 611 615 613
f 611 613 609
f 612 602 601
f 612 601 616
f 617 618 533
f 617 533 531
f 619 620 529
f 619 529 534
f 619 534 533
f 619 533 618
f 621 532 593
f 621 593 622
f 617 531 532
f 617 532 621
f 535 530 529
f 535 529 620
f 623 537 536
f 623 536 624
f 620 624 536
f 620 536 535
f 623 572 538
f 623 538 537
f 625 577 575
f 625 575 626
f 625 600 578
f 625 578 577
f 627 600 625
f 627 625 628
f 629 630 576
f 629 576 574
f 629 574 573
f 629 573 571
f 630 626 575
f 630 575 576
f 631 626 630
f 631 630 632
f 632 630 629
f 632 629 571
f 628 625 626
f 628 626 631
f 627 601 599
f 627 599 600
f 633 619 618
f 633 618 634
f 633 624 620
f 633 620 619
f 635 633 634
f 635 634 636
f 633 635 623
f 633 623 624
f 637 638 635
f 637 635 636
f 572 623 635
f 572 635 638
f 638 632 571
f 638 571 572
f 638 637 631
f 638 631 632
f 639 640 627
f 639 627 628
f 641 640 639
f 641 639 642
f 631 637 639
f 631 639 628
f 642 639 637
f 642 637 636
f 640 616 601
f 640 601 627
f 640 641 615
f 640 615 616
f 643 614 613
f 643 613 644
f 615 641 644
f 615 644 613
f 614 643 622
f 614 622 593
f 645 643 644
f 645 644 646
f 647 621 622
f 647 622 648
f 622 643 645
f 622 645 648
f 644 641 642
f 644 642 646
f 646 642 636
f 646 636 634
f 647 648 634
f 647 634 618
f 648 645 646
f 648 646 634
f 647 618 617
f 647 617 621
f 649 425 426
f 649 426 650
f 651 427 428
f 651 428 652
f 653 654 429
f 653 429 430
f 429 654 652
f 429 652 428
f 427 651 650
f 427 650 426
f 655 656 423
f 655 423 424
f 424 425 649
f 424 649 655
f 657 421 422
f 657 422 658
f 422 423 656
f 422 656 658
f 659 419 420
f 659 420 660
f 421 657 660
f 421 660 420
f 661 662 417
f 661 417 418
f 419 659 661
f 419 661 418
f 663 415 416
f 663 416 664
f 416 417 662
f 416 662 664
f 665 413 414
f 665 414 666
f 414 415 663
f 414 663 666
f 667 411 412
f 667 412 668
f 413 665 668
f 413 668 412
f 669 409 410
f 669 410 670
f 411 667 670
f 411 670 410
f 671 672 407
f 671 407 408
f 408 409 669
f 408 669 671
f 673 405 406
f 673 406 674
f 407 672 674
f 407 674 406
f 675 676 403
f 675 403 404
f 405 673 675
f 405 675 404
f 677 678 401
f 677 401 402
f 402 403 676
f 402 676 677
f 679 680 399
f 679 399 400
f 400 401 678
f 400 678 679
f 681 398 397
f 681 397 682
f 399 680 682
f 399 682 397
f 683 684 439
f 683 439 440
f 683 440 398
f 683 398 681
f 685 686 437
f 685 437 438
f 687 688 435
f 687 435 436
f 689 690 433
f 689 433 434
f 691 692 431
f 691 431 432
f 432 433 690
f 432 690 691
f 435 688 689
f 435 689 434
f 436 437 686
f 436 686 687
f 438 439 684
f 438 684 685
f 431 692 653
f 431 653 430
f 693 694 689
f 693 689 688
f 695 687 686
f 695 686 696
f 697 698 685
f 697 685 684
f 698 696 686
f 698 686 685
f 693 688 687
f 693 687 695
f 699 700 683
f 699 683 681
f 700 697 684
f 700 684 683
f 701 682 680
f 701 680 702
f 703 679 678
f 703 678 704
f 703 702 680
f 703 680 679
f 705 677 676
f 705 676 706
f 705 704 678
f 705 678 677
f 707 708 675
f 707 675 673
f 708 706 676
f 708 676 675
f 709 674 672
f 709 672 710
f 707 673 674
f 707 674 709
f 711 712 671
f 711 671 669
f 712 710 672
f 712 672 671
f 713 670 667
f 713 667 714
f 713 711 669
f 713 669 670
f 715 668 665
f 715 665 716
f 714 667 668
f 714 668 715
f 717 718 666
f 717 666 663
f 716 665 666
f 716 666 718
f 719 664 662
f 719 662 720
f 721 661 659
f 721 659 722
f 719 717 663
f 719 663 664
f 720 662 661
f 720 661 721
f 723 660 657
f 723 657 724
f 722 659 660
f 722 660 723
f 725 726 658
f 725 658 656
f 726 724 657
f 726 657 658
f 727 728 655
f 727 655 649
f 729 650 651
f 729 651 730
f 731 652 654
f 731 654 732
f 733 734 653
f 733 653 692
f 734 732 654
f 734 654 653
f 731 730 651
f 731 651 652
f 729 727 649
f 729 649 650
f 728 725 656
f 728 656 655
f 735 691 690
f 735 690 736
f 735 733 692
f 735 692 691
f 694 736 690
f 694 690 689
f 699 681 682
f 699 682 701
f 737 738 732
f 737 732 734
f 739 733 735
f 739 735 740
f 739 737 734
f 739 734 733
f 741 730 731
f 741 731 742
f 742 731 732
f 742 732 738
f 743 744 727
f 743 727 729
f 743 729 730
f 743 730 741
f 745 746 725
f 745 725 728
f 744 745 728
f 744 728 727
f 726 725 746
f 726 746 724
f 747 748 723
f 747 723 724
f 746 745 747
f 746 747 724
f 749 721 722
f 749 722 750
f 723 748 750
f 723 750 722
f 751 752 719
f 751 719 720
f 721 749 751
f 721 751 720
f 752 718 717
f 752 717 719
f 753 716 718
f 753 718 754
f 755 756 752
f 755 752 751
f 752 756 754
f 752 754 718
f 751 749 750
f 751 750 755
f 757 758 750
f 757 750 748
f 759 756 755
f 759 755 760
f 758 760 755
f 758 755 750
f 761 762 753
f 761 753 754
f 754 756 759
f 754 759 761
f 763 764 714
f 763 714 715
f 763 715 716
f 763 716 753
f 765 766 764
f 765 764 763
f 753 762 765
f 753 765 763
f 713 714 764
f 713 764 711
f 767 710 712
f 767 712 768
f 768 712 711
f 768 711 764
f 769 767 768
f 769 768 770
f 766 770 768
f 766 768 764
f 771 766 765
f 771 765 762
f 772 773 707
f 772 707 709
f 772 709 710
f 772 710 767
f 774 773 772
f 774 772 775
f 767 769 775
f 767 775 772
f 776 777 706
f 776 706 708
f 773 776 708
f 773 708 707
f 778 779 704
f 778 704 705
f 777 778 705
f 777 705 706
f 780 781 777
f 780 777 776
f 774 780 776
f 774 776 773
f 782 780 774
f 782 774 783
f 781 779 778
f 781 778 777
f 784 785 702
f 784 702 703
f 779 784 703
f 779 703 704
f 786 779 781
f 786 781 787
f 782 787 781
f 782 781 780
f 788 786 787
f 788 787 789
f 786 788 784
f 786 784 779
f 790 791 788
f 790 788 789
f 788 791 785
f 788 785 784
f 792 698 697
f 792 697 793
f 700 794 793
f 700 793 697
f 795 796 792
f 795 792 793
f 797 795 793
f 797 793 794
f 798 792 796
f 798 796 799
f 696 698 792
f 696 792 798
f 800 693 695
f 800 695 801
f 802 803 736
f 802 736 694
f 803 740 735
f 803 735 736
f 802 694 693
f 802 693 800
f 801 695 696
f 801 696 798
f 804 805 806
f 804 806 807
f 804 807 808
f 804 808 809
f 791 790 809
f 791 809 808
f 810 808 807
f 810 807 811
f 811 807 797
f 811 797 794
f 791 808 810
f 791 810 785
f 785 810 701
f 785 701 702
f 699 701 810
f 699 810 811
f 794 700 699
f 794 699 811
f 812 813 796
f 812 796 795
f 805 812 795
f 805 795 806
f 814 800 801
f 814 801 815
f 815 801 798
f 815 798 799
f 816 817 815
f 816 815 799
f 816 799 796
f 816 796 813
f 803 802 800
f 803 800 814
f 818 739 740
f 818 740 819
f 740 803 814
f 740 814 819
f 819 814 815
f 819 815 817
f 820 738 737
f 820 737 821
f 737 739 818
f 737 818 821
f 821 818 819
f 821 819 817
f 822 741 742
f 822 742 823
f 823 742 738
f 823 738 820
f 824 825 744
f 824 744 743
f 822 824 743
f 822 743 741
f 747 745 744
f 747 744 825
f 757 748 747
f 757 747 825
f 826 827 828
f 826 828 829
f 830 831 832
f 830 832 833
f 831 829 828
f 831 828 832
f 834 835 836
f 834 836 837
f 838 839 840
f 838 840 841
f 838 841 836
f 838 836 835
f 842 843 844
f 842 844 845
f 842 830 833
f 842 833 843
f 846 847 848
f 846 848 849
f 845 844 847
f 845 847 846
f 805 804 809
f 805 809 790
f 850 851 852
f 850 852 853
f 851 849 848
f 851 848 852
f 854 855 856
f 854 856 857
f 854 850 853
f 854 853 855
f 857 856 858
f 857 858 859
f 860 861 862
f 860 862 863
f 864 865 866
f 864 866 867
f 860 863 865
f 860 865 864
f 868 869 870
f 868 870 871
f 867 866 869
f 867 869 868
f 839 871 870
f 839 870 840
f 872 873 849
f 872 849 851
f 874 875 850
f 874 850 854
f 876 857 859
f 876 859 877
f 878 879 861
f 878 861 880
f 881 860 864
f 881 864 882
f 883 867 868
f 883 868 884
f 885 886 871
f 885 871 839
f 887 888 838
f 887 838 835
f 889 890 834
f 889 834 826
f 891 829 831
f 891 831 892
f 893 830 842
f 893 842 894
f 892 831 830
f 892 830 893
f 889 826 829
f 889 829 891
f 890 887 835
f 890 835 834
f 885 839 838
f 885 838 888
f 872 851 850
f 872 850 875
f 874 854 857
f 874 857 876
f 886 884 868
f 886 868 871
f 883 882 864
f 883 864 867
f 881 880 861
f 881 861 860
f 881 882 883
f 881 883 880
f 877 859 879
f 877 879 878
f 876 877 875
f 876 875 874
f 887 890 889
f 887 889 891
f 895 896 878
f 895 878 880
f 897 898 875
f 897 875 877
f 899 883 884
f 899 884 900
f 880 883 899
f 880 899 895
f 901 886 885
f 901 885 902
f 886 901 900
f 886 900 884
f 903 888 887
f 903 887 904
f 905 906 891
f 905 891 892
f 907 893 894
f 907 894 908
f 909 910 873
f 909 873 872
f 875 898 909
f 875 909 872
f 910 908 894
f 910 894 873
f 878 896 897
f 878 897 877
f 888 903 902
f 888 902 885
f 887 891 906
f 887 906 904
f 893 907 905
f 893 905 892
f 911 912 899
f 911 899 900
f 913 914 901
f 913 901 902
f 901 914 911
f 901 911 900
f 915 903 904
f 915 904 916
f 903 915 913
f 903 913 902
f 917 906 905
f 917 905 918
f 904 906 917
f 904 917 916
f 919 920 907
f 919 907 908
f 907 920 918
f 907 918 905
f 921 910 909
f 921 909 922
f 910 921 919
f 910 919 908
f 923 898 897
f 923 897 924
f 922 909 898
f 922 898 923
f 925 926 896
f 925 896 895
f 899 912 925
f 899 925 895
f 924 897 896
f 924 896 926
f 920 919 927
f 920 927 928
f 919 921 929
f 919 929 927
f 921 922 930
f 921 930 929
f 922 923 931
f 922 931 930
f 923 924 932
f 923 932 931
f 924 926 933
f 924 933 932
f 926 925 934
f 926 934 933
f 925 912 935
f 925 935 934
f 912 911 936
f 912 936 935
f 911 914 937
f 911 937 936
f 914 913 938
f 914 938 937
f 913 915 939
f 913 939 938
f 915 916 940
f 915 940 939
f 916 917 941
f 916 941 940
f 917 918 942
f 917 942 941
f 918 920 928
f 918 928 942
f 935 936 943
f 935 943 944
f 936 937 945
f 936 945 943
f 937 938 946
f 937 946 945
f 938 939 947
f 938 947 946
f 939 940 948
f 939 948 947
f 940 941 949
f 940 949 948
f 941 942 950
f 941 950 949
f 942 928 951
f 942 951 950
f 928 927 952
f 928 952 951
f 927 929 953
f 927 953 952
f 929 930 954
f 929 954 953
f 930 931 955
f 930 955 954
f 931 932 956
f 931 956 955
f 932 933 957
f 932 957 956
f 933 934 958
f 933 958 957
f 934 935 944
f 934 944 958
f 944 943 959
f 944 959 960
f 945 961 959
f 945 959 943
f 945 946 962
f 945 962 961
f 946 947 963
f 946 963 962
f 948 964 963
f 948 963 947
f 948 949 965
f 948 965 964
f 949 950 966
f 949 966 965
f 951 967 966
f 951 966 950
f 951 952 968
f 951 968 967
f 953 969 968
f 953 968 952
f 954 970 969
f 954 969 953
f 954 955 971
f 954 971 970
f 955 956 972
f 955 972 971
f 957 973 972
f 957 972 956
f 958 974 973
f 958 973 957
f 944 960 974
f 944 974 958
f 975 976 977
f 975 977 978
f 976 979 980
f 976 980 977
f 979 981 982
f 979 982 980
f 981 983 984
f 981 984 982
f 983 985 986
f 983 986 984
f 985 987 988
f 985 988 986
f 987 989 990
f 987 990 988
f 989 991 992
f 989 992 990
f 991 993 994
f 991 994 992
f 993 995 996
f 993 996 994
f 995 997 998
f 995 998 996
f 997 999 1000
f 997 1000 998
f 999 1001 1002
f 999 1002 1000
f 1001 1003 1004
f 1001 1004 1002
f 1003 1005 1006
f 1003 1006 1004
f 1005 975 978
f 1005 978 1006
f 981 979 960
f 981 960 959
f 983 981 959
f 983 959 961
f 985 983 961
f 985 961 962
f 987 985 962
f 987 962 963
f 964 989 987
f 964 987 963
f 991 989 964
f 991 964 965
f 966 993 991
f 966 991 965
f 967 995 993
f 967 993 966
f 968 997 995
f 968 995 967
f 969 999 997
f 969 997 968
f 970 1001 999
f 970 999 969
f 1003 1001 970
f 1003 970 971
f 1005 1003 971
f 1005 971 972
f 975 1005 972
f 975 972 973
f 974 976 975
f 974 975 973
f 979 976 974
f 979 974 960
f 826 834 837
f 826 837 827
f 980 982 1007
f 980 1007 1008
f 982 984 1009
f 982 1009 1007
f 984 986 1010
f 984 1010 1009
f 986 988 1011
f 986 1011 1010
f 988 990 1012
f 988 1012 1011
f 990 992 1013
f 990 1013 1012
f 992 994 1014
f 992 1014 1013
f 994 996 1015
f 994 1015 1014
f 996 998 1016
f 996 1016 1015
f 1000 1002 1017
f 1000 1017 1018
f 1002 1004 1019
f 1002 1019 1017
f 1004 1006 1020
f 1004 1020 1019
f 1006 978 1021
f 1006 1021 1020
f 978 977 1022
f 978 1022 1021
f 977 980 1008
f 977 1008 1022
f 1000 1018 1016
f 1000 1016 998
f 1023 1024 1007
f 1023 1007 1009
f 1025 1026 1024
f 1025 1024 1023
f 1027 1026 1025
f 1027 1025 1028
f 1029 1027 1028
f 1029 1028 1030
f 1031 1032 1029
f 1031 1029 1030
f 1033 1034 1032
f 1033 1032 1031
f 1035 1034 1033
f 1035 1033 1036
f 1037 1035 1036
f 1037 1036 1038
f 1039 1037 1038
f 1039 1038 1040
f 1041 1042 1040
f 1041 1040 1038
f 1043 1044 1042
f 1043 1042 1041
f 1010 1011 1044
f 1010 1044 1043
f 1045 1046 1036
f 1045 1036 1033
f 1046 1041 1038
f 1046 1038 1036
f 1047 1031 1030
f 1047 1030 1048
f 1048 1030 1028
f 1048 1028 1025
f 1047 1045 1033
f 1047 1033 1031
f 1048 1046 1045
f 1048 1045 1047
f 1049 1050 1046
f 1049 1046 1048
f 1050 1043 1041
f 1050 1041 1046
f 1049 1048 1025
f 1049 1025 1023
f 1043 1050 1049
f 1043 1049 1023
f 1010 1043 1023
f 1010 1023 1009
f 1051 1026 1027
f 1051 1027 1052
f 1053 1054 1012
f 1053 1012 1013
f 1012 1054 1044
f 1012 1044 1011
f 1055 1054 1053
f 1055 1053 1056
f 1044 1054 1055
f 1044 1055 1042
f 1057 1058 1055
f 1057 1055 1056
f 1040 1042 1055
f 1040 1055 1058
f 1059 1058 1057
f 1059 1057 1060
f 1058 1059 1039
f 1058 1039 1040
f 1061 1062 1059
f 1061 1059 1060
f 1037 1039 1059
f 1037 1059 1062
f 1063 1064 1062
f 1063 1062 1061
f 1037 1062 1064
f 1037 1064 1035
f 1065 1064 1063
f 1065 1063 1066
f 1034 1035 1064
f 1034 1064 1065
f 1067 1065 1066
f 1067 1066 1068
f 1032 1034 1065
f 1032 1065 1067
f 1069 1067 1068
f 1069 1068 1070
f 1032 1067 1069
f 1032 1069 1029
f 1071 1072 1069
f 1071 1069 1070
f 1029 1069 1072
f 1029 1072 1027
f 1073 1074 1072
f 1073 1072 1071
f 1072 1074 1052
f 1072 1052 1027
f 1075 1076 1073
f 1075 1073 1071
f 1077 1076 1075
f 1077 1075 1078
f 1079 1080 1070
f 1079 1070 1068
f 1075 1071 1070
f 1075 1070 1080
f 1081 1080 1079
f 1081 1079 1082
f 1080 1081 1078
f 1080 1078 1075
f 1079 1068 1066
f 1079 1066 1063
f 1082 1079 1063
f 1082 1063 1061
f 1083 1060 1057
f 1083 1057 1084
f 1083 1084 1081
f 1083 1081 1082
f 1082 1061 1060
f 1082 1060 1083
f 1085 1086 1084
f 1085 1084 1057
f 1081 1084 1086
f 1081 1086 1078
f 1087 1086 1085
f 1087 1085 1088
f 1086 1087 1077
f 1086 1077 1078
f 1089 1056 1053
f 1089 1053 1090
f 1085 1057 1056
f 1085 1056 1089
f 1091 1092 1089
f 1091 1089 1090
f 1092 1088 1085
f 1092 1085 1089
f 1093 1013 1014
f 1093 1014 1094
f 1093 1090 1053
f 1093 1053 1013
f 1095 1096 1093
f 1095 1093 1094
f 1096 1091 1090
f 1096 1090 1093
f 1097 1098 1022
f 1097 1022 1008
f 1007 1024 1097
f 1007 1097 1008
f 1024 1026 1051
f 1024 1051 1097
f 1099 1100 1051
f 1099 1051 1052
f 1100 1098 1097
f 1100 1097 1051
f 1101 1102 1098
f 1101 1098 1100
f 1022 1098 1102
f 1022 1102 1021
f 1103 1104 1102
f 1103 1102 1101
f 1020 1021 1102
f 1020 1102 1104
f 1105 1106 1104
f 1105 1104 1103
f 1019 1020 1104
f 1019 1104 1106
f 1107 1108 1106
f 1107 1106 1105
f 1017 1019 1106
f 1017 1106 1108
f 1109 1095 1094
f 1109 1094 1110
f 1015 1110 1094
f 1015 1094 1014
f 1111 1109 1110
f 1111 1110 1112
f 1016 1112 1110
f 1016 1110 1015
f 1112 1113 1114
f 1112 1114 1111
f 1113 1108 1107
f 1113 1107 1114
f 1018 1017 1108
f 1018 1108 1113
f 1016 1018 1113
f 1016 1113 1112
f 1115 1088 1092
f 1115 1092 1116
f 1116 1092 1091
f 1116 1091 1096
f 1117 1115 1116
f 1117 1116 1118
f 1116 1096 1095
f 1116 1095 1118
f 1119 1077 1087
f 1119 1087 1120
f 1115 1120 1087
f 1115 1087 1088
f 1121 1073 1076
f 1121 1076 1122
f 1077 1119 1122
f 1077 1122 1076
f 1123 1119 1120
f 1123 1120 1124
f 1115 1117 1124
f 1115 1124 1120
f 1125 1123 1124
f 1125 1124 1126
f 1127 1117 1118
f 1127 1118 1128
f 1126 1124 1117
f 1126 1117 1127
f 1129 1128 1118
f 1129 1118 1130
f 1095 1109 1130
f 1095 1130 1118
f 1131 1109 1111
f 1131 1111 1132
f 1131 1129 1130
f 1131 1130 1109
f 1133 1134 1114
f 1133 1114 1107
f 1114 1134 1132
f 1114 1132 1111
f 1133 1107 1105
f 1133 1105 1135
f 1136 1125 1126
f 1136 1126 1137
f 1127 1128 1137
f 1127 1137 1126
f 1138 1136 1137
f 1138 1137 1139
f 1128 1129 1139
f 1128 1139 1137
f 1140 1103 1101
f 1140 1101 1141
f 1135 1105 1103
f 1135 1103 1140
f 1141 1101 1100
f 1141 1100 1099
f 1142 1143 1074
f 1142 1074 1073
f 1052 1074 1143
f 1052 1143 1099
f 1144 1145 1143
f 1144 1143 1142
f 1145 1141 1099
f 1145 1099 1143
f 1146 1144 1142
f 1146 1142 1147
f 1073 1121 1147
f 1073 1147 1142
f 1148 1131 1132
f 1148 1132 1149
f 1129 1131 1148
f 1129 1148 1139
f 1150 1148 1149
f 1150 1149 1151
f 1150 1138 1139
f 1150 1139 1148
f 1152 1134 1133
f 1152 1133 1153
f 1134 1152 1149
f 1134 1149 1132
f 1154 1155 1135
f 1154 1135 1140
f 1145 1154 1140
f 1145 1140 1141
f 1135 1155 1153
f 1135 1153 1133
f 1156 1152 1153
f 1156 1153 1157
f 1152 1156 1151
f 1152 1151 1149
f 1158 1155 1154
f 1158 1154 1159
f 1153 1155 1158
f 1153 1158 1157
f 1159 1154 1145
f 1159 1145 1144
f 1160 1161 1158
f 1160 1158 1159
f 1146 1160 1159
f 1146 1159 1144
f 1162 1163 1156
f 1162 1156 1157
f 1157 1158 1161
f 1157 1161 1162
f 1164 1150 1151
f 1164 1151 1165
f 1156 1163 1165
f 1156 1165 1151
f 1166 1136 1138
f 1166 1138 1167
f 1150 1164 1167
f 1150 1167 1138
f 1168 1123 1125
f 1168 1125 1169
f 1125 1136 1166
f 1125 1166 1169
f 1123 1168 1170
f 1123 1170 1119
f 1171 1172 1147
f 1171 1147 1121
f 1173 1171 1121
f 1173 1121 1122
f 1174 1175 1160
f 1174 1160 1146
f 1172 1174 1146
f 1172 1146 1147
f 1175 1176 1161
f 1175 1161 1160
f 1177 1178 1165
f 1177 1165 1163
f 1179 1177 1163
f 1179 1163 1162
f 1176 1179 1162
f 1176 1162 1161
f 1180 1167 1164
f 1180 1164 1181
f 1178 1181 1164
f 1178 1164 1165
f 1182 1183 1169
f 1182 1169 1166
f 1180 1182 1166
f 1180 1166 1167
f 1184 1170 1168
f 1184 1168 1185
f 1185 1168 1169
f 1185 1169 1183
f 1186 1187 1171
f 1186 1171 1173
f 1184 1186 1173
f 1184 1173 1170
f 1188 1189 1174
f 1188 1174 1172
f 1188 1172 1171
f 1188 1171 1187
f 1176 1175 1174
f 1176 1174 1179
f 1190 1177 1179
f 1190 1179 1191
f 1189 1191 1179
f 1189 1179 1174
f 1192 1193 1181
f 1192 1181 1178
f 1190 1192 1178
f 1190 1178 1177
f 1194 1195 1182
f 1194 1182 1180
f 1193 1194 1180
f 1193 1180 1181
f 1196 1185 1183
f 1196 1183 1197
f 1197 1183 1182
f 1197 1182 1195
f 1198 1199 1186
f 1198 1186 1184
f 1196 1198 1184
f 1196 1184 1185
f 1199 1188 1187
f 1199 1187 1186
f 1200 1189 1188
f 1200 1188 1201
f 1202 1203 1199
f 1202 1199 1198
f 1199 1203 1201
f 1199 1201 1188
f 1204 1205 1196
f 1204 1196 1197
f 1205 1202 1198
f 1205 1198 1196
f 1206 1207 1195
f 1206 1195 1194
f 1207 1204 1197
f 1207 1197 1195
f 1208 1193 1192
f 1208 1192 1209
f 1208 1206 1194
f 1208 1194 1193
f 1210 1211 1190
f 1210 1190 1191
f 1200 1210 1191
f 1200 1191 1189
f 1209 1192 1190
f 1209 1190 1211
f 1212 1201 1203
f 1212 1203 1213
f 1210 1200 1201
f 1210 1201 1212
f 1214 1215 1209
f 1214 1209 1211
f 1212 1214 1211
f 1212 1211 1210
f 1208 1209 1215
f 1208 1215 1206
f 1216 1215 1214
f 1216 1214 1217
f 1216 1207 1206
f 1216 1206 1215
f 1214 1212 1213
f 1214 1213 1217
f 1213 1203 1202
f 1213 1202 1205
f 1204 1207 1216
f 1204 1216 1217
f 1213 1205 1204
f 1213 1204 1217
f 1170 1173 1122
f 1170 1122 1119
f 806 795 797
f 806 797 807
f 873 894 846
f 873 846 849
f 846 894 842
f 846 842 845
f 1218 769 770
f 1218 770 1219
f 771 1219 770
f 771 770 766
f 823 820 828
f 823 828 827
f 821 817 833
f 821 833 832
f 820 821 832
f 820 832 828
f 824 822 837
f 824 837 836
f 757 825 841
f 757 841 840
f 841 825 824
f 841 824 836
f 843 816 813
f 843 813 844
f 817 816 843
f 817 843 833
f 812 805 848
f 812 848 847
f 813 812 847
f 813 847 844
f 790 789 853
f 790 853 852
f 805 790 852
f 805 852 848
f 855 787 782
f 855 782 856
f 789 787 855
f 789 855 853
f 856 782 783
f 856 783 858
f 771 762 863
f 771 863 862
f 865 761 759
f 865 759 866
f 863 762 761
f 863 761 865
f 869 760 758
f 869 758 870
f 866 759 760
f 866 760 869
f 758 757 840
f 758 840 870
f 822 823 827
f 822 827 837
f 1220 1218 1219
f 1220 1219 1221
f 862 1221 1219
f 862 1219 771
f 1222 1218 1220
f 1222 1220 1223
f 1218 1222 775
f 1218 775 769
f 1222 783 774
f 1222 774 775
f 1223 858 783
f 1223 783 1222
f 859 858 1223
f 859 1223 879
f 1220 1221 879
f 1220 879 1223
f 1221 862 861
f 1221 861 879