# https://github.com/mikedh/trimesh
v 0.01448560 0.03100866 0.06841837
v 0.01186320 0.02245504 0.08591841
v 0.03140674 0.01480377 0.07901310
v 0.00231475 -0.01762585 0.05084610
v -0.00362349 -0.03421042 0.06320705
v -0.01897874 -0.02543593 0.05880735
v 0.01107596 0.00815542 0.09071074
v 0.02817655 0.00597811 0.08427679
v 0.00967909 -0.02106340 0.05618136
v 0.01111746 -0.02137572 0.08243179
v -0.02017650 0.01980187 0.06602675
v -0.02530610 0.01840921 0.07674844
v 0.00449498 0.03145627 0.07192802
v -0.00989130 0.02014444 0.05027807
v -0.00971477 0.00934207 0.04855227
v -0.02201899 -0.00917062 0.05119255
v -0.02574130 -0.00654630 0.07748521
v -0.03051945 -0.01630053 0.06669310
v -0.02090195 -0.02297787 0.07352320
v 0.00087165 -0.00484614 0.09937069
v -0.00680691 0.00396994 0.09871640
v -0.01019891 -0.00713681 0.09700295
v 0.01183835 0.01317171 0.05501408
v 0.01284254 0.00526687 0.04788447
v 0.00117924 -0.00747648 0.04959239
v -0.00023279 0.02102916 0.08815704
v -0.01485962 0.00508569 0.09499753
v -0.02478306 0.00863642 0.08459253
v -0.01872398 -0.00889407 0.08623577
v 0.00308761 -0.01685499 0.09078973
v -0.00864662 -0.02045848 0.08704863
v 0.03204748 0.00797849 0.06683111
v 0.02738346 -0.01488872 0.08161208
v 0.02265929 -0.01384997 0.06488249
v 0.02705529 0.00381618 0.05189175
v 0.00623240 0.03224447 0.06004523
v 0.02393262 0.02173213 0.06186661
v 0.02297882 -0.00830107 0.08297501
v -0.03451764 0.00671185 0.06126817
v -0.03055268 -0.01099120 0.05861922
v -0.02059587 0.01661708 0.05429344
v 0.02099997 -0.01595074 0.05427435
v -0.00334370 -0.02522125 0.07898391
v -0.00393682 0.01145514 0.09201524
v -0.00278609 -0.01178687 0.09222045
v -0.00846277 -0.00355346 0.05002248
v 0.01431901 -0.00460178 0.09649364
v 0.00477509 -0.01404210 0.09555358
v -0.00122518 0.02087381 0.05106597
v 0.02170691 -0.01478485 0.06914710
v -0.00829027 -0.00692074 0.00000000
v 0.00599812 -0.00605402 0.00000000
v 0.00358024 -0.00799225 0.00923693
v -0.00966271 0.00513448 0.02375211
v -0.01236376 -0.00505364 0.04090640
v -0.00695934 0.00514013 0.05278246
v -0.00619392 -0.00982026 0.01715430
v -0.00952574 -0.00366620 0.03430859
v -0.01270661 -0.00112172 0.01187605
v 0.00276651 0.01194203 0.03166947
v 0.00799705 0.00715459 0.04354552
v 0.01012255 0.00250076 0.03034991
v 0.00571163 -0.00827317 0.03826728
v 0.00963746 0.00241569 0.04354552
v 0.00647836 0.01068784 0.01451518
v 0.00785929 0.00210385 0.02507167
v 0.00941906 0.00248077 0.00000000
v -0.00927852 0.00919038 0.01715430
v -0.01069746 0.00551248 0.00000000
v 0.00599813 -0.00865182 0.02507167
v 0.00078527 -0.01019433 0.03958684
v 0.00078719 -0.01020788 0.02507167
v -0.00090105 -0.00688272 0.05278246
v -0.00093582 0.01116114 0.04882377
v 0.00063784 0.01133747 0.00000000
v -0.00273369 0.01208535 0.02111298
v -0.00552457 0.00986696 0.03958684
v 0.00929721 -0.00453615 0.01451518
v 0.00610087 -0.00288838 0.05278246
v 0.00460526 0.00616112 0.05278245
f 1 2 3
f 4 5 6
f 7 8 3
f 9 10 5
f 11 12 13
f 14 15 16
f 17 18 19
f 20 21 22
f 4 9 5
f 23 24 25
f 26 13 12
f 22 21 27
f 22 28 29
f 30 31 10
f 32 33 34
f 35 36 37
f 32 8 33
f 30 10 38
f 17 39 40
f 41 14 16
f 11 36 14
f 23 36 35
f 42 4 24
f 32 34 35
f 19 6 5
f 10 43 5
f 12 27 44
f 39 17 12
f 29 45 22
f 45 20 22
f 3 2 7
f 26 12 44
f 25 15 23
f 46 4 6
f 47 8 7
f 38 47 48
f 36 23 49
f 49 23 15
f 40 18 17
f 46 6 16
f 13 36 11
f 1 13 2
f 37 1 3
f 8 32 3
f 41 40 39
f 39 12 11
f 43 10 31
f 19 31 17
f 34 50 10
f 33 38 10
f 28 12 17
f 17 29 28
f 2 44 7
f 7 21 47
f 32 35 37
f 3 32 37
f 20 45 48
f 45 31 30
f 9 4 42
f 10 9 34
f 40 16 18
f 16 40 41
f 24 23 35
f 24 35 42
f 28 22 27
f 27 12 28
f 36 1 37
f 36 13 1
f 47 38 8
f 38 33 8
f 4 46 25
f 25 24 4
f 11 41 39
f 41 11 14
f 25 46 15
f 15 46 16
f 31 19 43
f 5 43 19
f 33 50 34
f 50 33 10
f 15 14 49
f 36 49 14
f 47 21 20
f 48 47 20
f 44 2 26
f 13 26 2
f 34 42 35
f 34 9 42
f 6 18 16
f 19 18 6
f 31 45 29
f 29 17 31
f 27 21 44
f 21 7 44
f 30 48 45
f 38 48 30
f 51 52 53
f 54 55 56
f 57 51 53
f 58 54 59
f 60 61 62
f 63 62 64
f 65 66 67
f 59 68 69
f 70 71 72
f 56 55 73
f 61 60 74
f 67 75 65
f 68 76 69
f 76 68 77
f 59 57 58
f 58 72 71
f 66 78 52
f 70 62 63
f 79 73 63
f 71 73 55
f 57 59 51
f 69 51 59
f 56 80 74
f 56 77 54
f 74 80 61
f 63 64 79
f 76 60 66
f 60 76 77
f 78 72 53
f 52 78 53
f 58 57 72
f 57 53 72
f 69 76 75
f 52 67 66
f 76 65 75
f 66 65 76
f 60 62 66
f 70 66 62
f 71 55 58
f 58 55 54
f 63 73 71
f 71 70 63
f 68 59 54
f 68 54 77
f 70 72 78
f 66 70 78
f 60 77 74
f 56 74 77
f 64 61 80
f 61 64 62
f 79 64 80
f 1 3 2
f 4 6 5
f 7 3 8
f 9 5 10
f 11 13 12
f 14 16 15
f 17 19 18
f 20 22 21
f 4 5 9
f 23 25 24
f 26 12 13
f 22 27 21
f 22 29 28
f 30 10 31
f 32 34 33
f 35 37 36
f 32 33 8
f 30 38 10
f 17 40 39
f 41 16 14
f 11 14 36
f 23 35 36
f 42 24 4
f 32 35 34
f 19 5 6
f 10 5 43
f 12 44 27
f 39 12 17
f 29 22 45
f 45 22 20
f 3 7 2
f 26 44 12
f 25 23 15
f 46 6 4
f 47 7 8
f 38 48 47
f 36 49 23
f 49 15 23
f 40 17 18
f 46 16 6
f 13 11 36
f 1 2 13
f 37 3 1
f 8 3 32
f 41 39 40
f 39 11 12
f 43 31 10
f 19 17 31
f 34 10 50
f 33 10 38
f 28 17 12
f 17 28 29
f 2 7 44
f 7 47 21
f 32 37 35
f 3 37 32
f 20 48 45
f 45 30 31
f 9 42 4
f 10 34 9
f 40 18 16
f 16 41 40
f 24 35 23
f 24 42 35
f 28 27 22
f 27 28 12
f 36 37 1
f 36 1 13
f 47 8 38
f 38 8 33
f 4 25 46
f 25 4 24
f 11 39 41
f 41 14 11
f 25 15 46
f 15 16 46
f 31 43 19
f 5 19 43
f 33 34 50
f 50 10 33
f 15 49 14
f 36 14 49
f 47 20 21
f 48 20 47
f 44 26 2
f 13 2 26
f 34 35 42
f 34 42 9
f 6 16 18
f 19 6 18
f 31 29 45
f 29 31 17
f 27 44 21
f 21 44 7
f 30 45 48
f 38 30 48
f 51 53 52
f 54 56 55
f 57 53 51
f 58 59 54
f 60 62 61
f 63 64 62
f 65 67 66
f 59 69 68
f 70 72 71
f 56 73 55
f 61 74 60
f 67 65 75
f 68 69 76
f 76 77 68
f 59 58 57
f 58 71 72
f 66 52 78
f 70 63 62
f 79 63 73
f 71 55 73
f 57 51 59
f 69 59 51
f 56 74 80
f 56 54 77
f 74 61 80
f 63 79 64
f 76 66 60
f 60 77 76
f 78 53 72
f 52 53 78
f 58 72 57
f 57 72 53
f 69 75 76
f 52 66 67
f 76 75 65
f 66 76 65
f 60 66 62
f 70 62 66
f 71 58 55
f 58 54 55
f 63 71 73
f 71 63 70
f 68 54 59
f 68 77 54
f 70 78 72
f 66 78 70
f 60 74 77
f 56 77 74
f 64 80 61
f 61 62 64
f 79 80 64