# https://github.com/mikedh/trimesh
v 0.01180336 -0.01406950 0.01047968
v 0.01180336 0.01217047 0.01047968
v 0.01180336 0.01217047 0.04370199
v 0.01180336 -0.01406949 0.04370200
v 0.01207603 -0.01361391 0.05097698
v 0.01207603 0.01171489 0.05097698
v -0.01190804 0.01171489 0.05097698
v -0.01190804 -0.01361391 0.05097698
v -0.01005658 -0.01336655 0.04309088
v -0.01005658 0.01146761 0.04309088
v -0.01005658 0.01146761 0.01047685
v -0.01005658 -0.01336655 0.01047685
v -0.01689765 -0.01888319 0.00000000
v -0.01689765 0.01698417 0.00000000
v 0.01706564 0.01698417 0.00000000
v 0.01706564 -0.01888319 0.00000000
v 0.01447351 0.01424675 0.00701104
v -0.01430550 0.01424675 0.00701104
v -0.01430550 0.01424675 0.04717067
v 0.01447351 0.01424675 0.04717067
v -0.01430550 -0.01614569 0.00701104
v 0.01447351 -0.01614569 0.00701104
v 0.01447351 -0.01614569 0.04717067
v -0.01430550 -0.01614569 0.04717067
v 0.01447351 0.01217047 0.01047968
v 0.01447351 -0.01406950 0.01047968
v 0.01447351 0.01217047 0.04370199
v 0.01447351 -0.01406949 0.04370200
v -0.01430550 0.01146761 0.04309088
v -0.01430550 -0.01336655 0.04309088
v -0.01430550 0.01146761 0.01047685
v -0.01430550 -0.01336655 0.01047685
v -0.01557224 0.01558448 0.00701103
v -0.01557224 -0.01748351 0.00701104
v 0.01574024 0.01558448 0.00701103
v 0.01574024 -0.01748351 0.00701104
v -0.01745310 0.01757088 0.00469363
v -0.01745310 -0.01946983 0.00469364
v 0.01762110 0.01757088 0.00469363
v 0.01762110 -0.01946983 0.00469364
v -0.01745310 0.01757088 0.00221477
v -0.01745310 -0.01946983 0.00221477
v 0.01762110 0.01757088 0.00221477
v 0.01762110 -0.01946983 0.00221477
v -0.01689765 0.01698417 0.00139651
v -0.01689765 -0.01888319 0.00139651
v 0.01706564 0.01698417 0.00139651
v 0.01706564 -0.01888319 0.00139651
v -0.01689765 0.01698417 0.00136196
v -0.01689765 -0.01888319 0.00136197
v 0.01706564 0.01698417 0.00136196
v 0.01706564 -0.01888319 0.00136197
v 0.01489968 0.01469684 0.04764159
v 0.01489968 -0.01659587 0.04764159
v -0.01473168 0.01469684 0.04764159
v -0.01473168 -0.01659587 0.04764159
v 0.01482782 0.01462100 0.04828601
v 0.01482782 -0.01651995 0.04828601
v -0.01465982 0.01462100 0.04828601
v -0.01465982 -0.01651995 0.04828601
v 0.01310817 0.01280487 0.04882151
v 0.01310817 -0.01470389 0.04882151
v -0.01294018 0.01280487 0.04882151
v -0.01294018 -0.01470389 0.04882151
v 0.01310817 0.01280487 0.05038065
v 0.01310817 -0.01470389 0.05038065
v -0.01294018 0.01280487 0.05038065
v -0.01294018 -0.01470389 0.05038065
v -0.01025047 -0.00465966 0.05003737
v -0.00725529 -0.00841553 0.05003737
v -0.00725529 -0.00841552 0.24332932
v -0.01025047 -0.00465965 0.24332932
v -0.00292716 -0.01049981 0.05003737
v -0.00292716 -0.01049980 0.24332932
v 0.00187671 -0.01049981 0.05003737
v 0.00187671 -0.01049980 0.24332932
v 0.00620485 -0.00841553 0.05003737
v 0.00620485 -0.00841552 0.24332932
v 0.00920003 -0.00465966 0.05003737
v 0.00920003 -0.00465965 0.24332932
v 0.01026898 0.00002377 0.05003737
v 0.01026898 0.00002378 0.24332932
v 0.00920003 0.00470720 0.05003737
v 0.00920003 0.00470721 0.24332932
v 0.00620485 0.00846303 0.05003737
v 0.00620485 0.00846304 0.24332932
v 0.00187671 0.01054727 0.05003737
v 0.00187671 0.01054728 0.24332932
v -0.00292716 0.01054727 0.05003737
v -0.00292716 0.01054728 0.24332932
v -0.00725529 0.00846303 0.05003737
v -0.00725529 0.00846304 0.24332932
v -0.01025047 0.00470720 0.05003737
v -0.01025047 0.00470721 0.24332932
v -0.01131942 0.00002377 0.05003737
v -0.01131942 0.00002378 0.24332932
v -0.00052522 0.00002377 0.05003737
v -0.00052522 0.00002378 0.24332932
v -0.01599365 -0.00742546 0.17641595
v -0.01122970 -0.01339925 0.17641595
v -0.01184113 -0.01416596 0.17819672
v -0.01687714 -0.00785093 0.17819671
v -0.00434562 -0.01671444 0.17641595
v -0.00456383 -0.01767047 0.17819672
v 0.00329515 -0.01671444 0.17641595
v 0.00351336 -0.01767055 0.17819672
v 0.01017928 -0.01339925 0.17641595
v 0.01079065 -0.01416596 0.17819672
v 0.01494321 -0.00742546 0.17641595
v 0.01582670 -0.00785093 0.17819671
v 0.01664344 0.00002377 0.17641595
v 0.01762404 0.00002377 0.17819671
v 0.01494321 0.00747293 0.17641595
v 0.01582670 0.00789840 0.17819671
v 0.01017928 0.01344672 0.17641595
v 0.01079065 0.01421342 0.17819671
v 0.00329517 0.01676199 0.17641595
v 0.00351337 0.01771794 0.17819671
v -0.00434562 0.01676199 0.17641595
v -0.00456380 0.01771801 0.17819671
v -0.01122970 0.01344672 0.17641595
v -0.01184110 0.01421342 0.17819671
v -0.01599365 0.00747293 0.17641595
v -0.01687714 0.00789840 0.17819671
v -0.01769391 0.00002377 0.17641595
v -0.01867449 0.00002377 0.17819671
v -0.00052522 0.00002377 0.17641595
v -0.01599365 -0.00742546 0.18116651
v -0.01122970 -0.01339925 0.18116651
v -0.00052522 0.00002377 0.18116651
v -0.00434562 -0.01671444 0.18116651
v 0.00329515 -0.01671444 0.18116651
v 0.01017928 -0.01339925 0.18116651
v 0.01494321 -0.00742546 0.18116651
v 0.01664344 0.00002377 0.18116651
v 0.01494321 0.00747293 0.18116651
v 0.01017928 0.01344672 0.18116651
v 0.00329517 0.01676199 0.18116651
v -0.00434562 0.01676199 0.18116651
v -0.01122970 0.01344672 0.18116651
v -0.01599365 0.00747293 0.18116651
v -0.01769391 0.00002377 0.18116651
v 0.01762404 0.00002377 0.18010455
v 0.01582670 0.00789840 0.18010455
v 0.01582670 -0.00785093 0.18010455
v 0.01079065 -0.01416596 0.18010455
v 0.00351336 -0.01767055 0.18010455
v -0.00456383 -0.01767047 0.18010455
v -0.01184113 -0.01416596 0.18010455
v -0.01687714 -0.00785093 0.18010455
v -0.01867449 0.00002377 0.18010455
v -0.01687714 0.00789840 0.18010455
v -0.01184110 0.01421342 0.18010455
v -0.00456380 0.01771802 0.18010455
v 0.00351337 0.01771794 0.18010455
v 0.01079065 0.01421342 0.18010455
v -0.01165612 -0.00533664 0.16571097
v -0.00822804 -0.00963522 0.16571097
v -0.00866799 -0.01018696 0.17520753
v -0.01229187 -0.00564274 0.17520753
v -0.00327434 -0.01202090 0.16571097
v -0.00343135 -0.01270878 0.17520753
v 0.00222387 -0.01202090 0.16571097
v 0.00238091 -0.01270878 0.17520753
v 0.00717760 -0.00963530 0.16571097
v 0.00761754 -0.01018696 0.17520753
v 0.01060567 -0.00533664 0.16571097
v 0.01124142 -0.00564274 0.17520753
v 0.01182914 0.00002377 0.16571097
v 0.01253476 0.00002377 0.17520753
v 0.01060567 0.00538411 0.16571097
v 0.01124142 0.00569021 0.17520753
v 0.00717760 0.00968277 0.16571097
v 0.00761755 0.01023450 0.17520753
v 0.00222387 0.01206837 0.16571097
v 0.00238091 0.01275625 0.17520753
v -0.00327434 0.01206837 0.16571097
v -0.00343135 0.01275625 0.17520753
v -0.00822804 0.00968277 0.16571097
v -0.00866799 0.01023450 0.17520753
v -0.01165612 0.00538411 0.16571097
v -0.01229187 0.00569021 0.17520753
v -0.01287958 0.00002377 0.16571097
v -0.01358521 0.00002377 0.17520753
v -0.00052522 0.00002377 0.16571097
v -0.01317177 -0.00606648 0.17679611
v -0.00927690 -0.01095052 0.17679611
v -0.00052522 0.00002377 0.17679611
v -0.00364866 -0.01366088 0.17679611
v 0.00259821 -0.01366088 0.17679611
v 0.00822644 -0.01095052 0.17679611
v 0.01212133 -0.00606648 0.17679611
v 0.01351139 0.00002377 0.17679611
v 0.01212133 0.00611395 0.17679610
v 0.00822647 0.01099799 0.17679610
v 0.00259821 0.01370843 0.17679610
v -0.00364866 0.01370843 0.17679610
v -0.00927690 0.01099799 0.17679610
v -0.01317177 0.00611395 0.17679610
v -0.01456183 0.00002377 0.17679611
v -0.01105754 -0.00504810 0.24248341
v -0.00781379 -0.00911588 0.24248341
v -0.00823008 -0.00963765 0.25146931
v -0.01165908 -0.00533781 0.25146931
v -0.00312647 -0.01137316 0.24248341
v -0.00327505 -0.01202387 0.25146931
v 0.00207605 -0.01137316 0.24248341
v 0.00222460 -0.01202387 0.25146931
v 0.00676337 -0.00911588 0.24248341
v 0.00717967 -0.00963765 0.25146931
v 0.01000709 -0.00504810 0.24248341
v 0.01060866 -0.00533781 0.25146931
v 0.01116476 0.00002393 0.24248341
v 0.01183245 0.00002393 0.25146931
v 0.01000710 0.00509605 0.24248341
v 0.01060866 0.00538552 0.25146931
v 0.00676337 0.00916359 0.24248341
v 0.00717967 0.00968536 0.25146931
v 0.00207605 0.01142087 0.24248341
v 0.00222464 0.01207158 0.25146931
v -0.00312647 0.01142087 0.24248341
v -0.00327504 0.01207158 0.25146931
v -0.00781379 0.00916359 0.24248341
v -0.00823008 0.00968536 0.25146931
v -0.01105754 0.00509605 0.24248341
v -0.01165908 0.00538552 0.25146931
v -0.01221519 0.00002393 0.24248341
v -0.01288288 0.00002393 0.25146931
v -0.00052520 0.00002393 0.24248341
v -0.01268906 -0.00583386 0.26078803
v -0.00894289 -0.01053140 0.26078803
v -0.00052520 0.00002393 0.26078803
v -0.00352942 -0.01313848 0.26078803
v 0.00247900 -0.01313848 0.26078803
v 0.00789244 -0.01053140 0.26078803
v 0.01163867 -0.00583386 0.26078803
v 0.01297564 0.00002393 0.26078803
v 0.01163867 0.00588157 0.26078803
v 0.00789244 0.01057920 0.26078803
v 0.00247900 0.01318619 0.26078803
v -0.00352942 0.01318619 0.26078803
v -0.00894289 0.01057920 0.26078803
v -0.01268906 0.00588157 0.26078803
v -0.01402608 0.00002393 0.26078803
v 0.01144125 0.00578644 0.25297244
v 0.01275653 0.00002393 0.25297244
v 0.01144125 -0.00573873 0.25297244
v 0.00775583 -0.01036012 0.25297244
v 0.00243025 -0.01292476 0.25297244
v -0.00348068 -0.01292476 0.25297244
v -0.00880625 -0.01036012 0.25297244
v -0.01249166 -0.00573873 0.25297244
v -0.01380697 0.00002393 0.25297244
v -0.01249166 0.00578644 0.25297244
v -0.00880625 0.01040783 0.25297244
v -0.00348068 0.01297248 0.25297244
v 0.00243025 0.01297248 0.25297244
v 0.00775583 0.01040783 0.25297244
v -0.00880625 -0.01036012 0.25463160
v -0.01249166 -0.00573873 0.25463160
v -0.00348068 -0.01292476 0.25463160
v 0.00243025 -0.01292476 0.25463160
v 0.00775583 -0.01036012 0.25463160
v 0.01144125 -0.00573873 0.25463160
v 0.01275653 0.00002393 0.25463160
v 0.01144125 0.00578644 0.25463160
v 0.00775583 0.01040783 0.25463160
v 0.00243025 0.01297248 0.25463160
v -0.00348068 0.01297248 0.25463160
v -0.00880625 0.01040783 0.25463160
v -0.01249166 0.00578644 0.25463160
v -0.01380697 0.00002393 0.25463160
v -0.00984375 -0.01166107 0.25667551
v -0.01399090 -0.00646073 0.25667551
v -0.00385096 -0.01454718 0.25667551
v 0.00280055 -0.01454718 0.25667551
v 0.00879333 -0.01166107 0.25667551
v 0.01294048 -0.00646073 0.25667551
v 0.01442057 0.00002393 0.25667551
v 0.01294048 0.00650844 0.25667551
v 0.00879333 0.01170886 0.25667551
v 0.00280055 0.01459490 0.25667551
v -0.00385096 0.01459490 0.25667551
v -0.00984375 0.01170886 0.25667551
v -0.01399090 0.00650844 0.25667551
v -0.01547100 0.00002393 0.25667551
v -0.00984375 -0.01166107 0.25869895
v -0.01399090 -0.00646073 0.25869895
v -0.00385096 -0.01454718 0.25869895
v 0.00280055 -0.01454718 0.25869895
v 0.00879333 -0.01166107 0.25869895
v 0.01294048 -0.00646073 0.25869895
v 0.01442057 0.00002393 0.25869895
v 0.01294048 0.00650844 0.25869895
v 0.00879333 0.01170886 0.25869895
v 0.00280055 0.01459490 0.25869895
v -0.00385096 0.01459490 0.25869895
v -0.00984375 0.01170886 0.25869895
v -0.01399090 0.00650844 0.25869895
v -0.01547100 0.00002393 0.25869895
f 4 1 2
f 2 3 4
f 8 5 6
f 6 7 8
f 12 9 10
f 10 11 12
f 16 13 14
f 14 15 16
f 20 17 18
f 18 19 20
f 24 21 22
f 22 23 24
f 26 22 17
f 17 25 26
f 25 17 20
f 20 27 25
f 27 20 23
f 23 28 27
f 28 23 22
f 22 26 28
f 30 24 19
f 19 29 30
f 29 19 18
f 18 31 29
f 31 18 21
f 21 32 31
f 32 21 24
f 24 30 32
f 1 26 25
f 25 2 1
f 2 25 27
f 27 3 2
f 3 27 28
f 28 4 3
f 4 28 26
f 26 1 4
f 9 30 29
f 29 10 9
f 10 29 31
f 31 11 10
f 11 31 32
f 32 12 11
f 12 32 30
f 30 9 12
f 34 21 18
f 18 33 34
f 33 18 17
f 17 35 33
f 35 17 22
f 22 36 35
f 36 22 21
f 21 34 36
f 38 34 33
f 33 37 38
f 37 33 35
f 35 39 37
f 39 35 36
f 36 40 39
f 40 36 34
f 34 38 40
f 42 38 37
f 37 41 42
f 41 37 39
f 39 43 41
f 43 39 40
f 40 44 43
f 44 40 38
f 38 42 44
f 46 42 41
f 41 45 46
f 45 41 43
f 43 47 45
f 47 43 44
f 44 48 47
f 48 44 42
f 42 46 48
f 50 46 45
f 45 49 50
f 49 45 47
f 47 51 49
f 51 47 48
f 48 52 51
f 52 48 46
f 46 50 52
f 13 50 49
f 49 14 13
f 14 49 51
f 51 15 14
f 15 51 52
f 52 16 15
f 16 52 50
f 50 13 16
f 54 23 20
f 20 53 54
f 53 20 19
f 19 55 53
f 55 19 24
f 24 56 55
f 56 24 23
f 23 54 56
f 58 54 53
f 53 57 58
f 57 53 55
f 55 59 57
f 59 55 56
f 56 60 59
f 60 56 54
f 54 58 60
f 62 58 57
f 57 61 62
f 61 57 59
f 59 63 61
f 63 59 60
f 60 64 63
f 64 60 58
f 58 62 64
f 66 62 61
f 61 65 66
f 65 61 63
f 63 67 65
f 67 63 64
f 64 68 67
f 68 64 62
f 62 66 68
f 5 66 65
f 65 6 5
f 6 65 67
f 67 7 6
f 7 67 68
f 68 8 7
f 8 68 66
f 66 5 8
f 72 69 70
f 70 71 72
f 71 70 73
f 73 74 71
f 74 73 75
f 75 76 74
f 76 75 77
f 77 78 76
f 78 77 79
f 79 80 78
f 80 79 81
f 81 82 80
f 82 81 83
f 83 84 82
f 84 83 85
f 85 86 84
f 86 85 87
f 87 88 86
f 88 87 89
f 89 90 88
f 90 89 91
f 91 92 90
f 92 91 93
f 93 94 92
f 94 93 95
f 95 96 94
f 96 95 69
f 69 72 96
f 70 69 97
f 73 70 97
f 75 73 97
f 77 75 97
f 79 77 97
f 81 79 97
f 83 81 97
f 85 83 97
f 87 85 97
f 89 87 97
f 91 89 97
f 93 91 97
f 95 93 97
f 69 95 97
f 72 71 98
f 71 74 98
f 74 76 98
f 76 78 98
f 78 80 98
f 80 82 98
f 82 84 98
f 84 86 98
f 86 88 98
f 88 90 98
f 90 92 98
f 92 94 98
f 94 96 98
f 96 72 98
f 102 99 100
f 100 101 102
f 101 100 103
f 103 104 101
f 104 103 105
f 105 106 104
f 106 105 107
f 107 108 106
f 108 107 109
f 109 110 108
f 110 109 111
f 111 112 110
f 112 111 113
f 113 114 112
f 114 113 115
f 115 116 114
f 116 115 117
f 117 118 116
f 118 117 119
f 119 120 118
f 120 119 121
f 121 122 120
f 122 121 123
f 123 124 122
f 124 123 125
f 125 126 124
f 126 125 99
f 99 102 126
f 100 99 127
f 103 100 127
f 105 103 127
f 107 105 127
f 109 107 127
f 111 109 127
f 113 111 127
f 115 113 127
f 117 115 127
f 119 117 127
f 121 119 127
f 123 121 127
f 125 123 127
f 99 125 127
f 128 129 130
f 129 131 130
f 131 132 130
f 132 133 130
f 133 134 130
f 134 135 130
f 135 136 130
f 136 137 130
f 137 138 130
f 138 139 130
f 139 140 130
f 140 141 130
f 141 142 130
f 142 128 130
f 135 143 144
f 144 136 135
f 134 145 143
f 143 135 134
f 133 146 145
f 145 134 133
f 132 147 146
f 146 133 132
f 131 148 147
f 147 132 131
f 129 149 148
f 148 131 129
f 128 150 149
f 149 129 128
f 142 151 150
f 150 128 142
f 141 152 151
f 151 142 141
f 140 153 152
f 152 141 140
f 139 154 153
f 153 140 139
f 138 155 154
f 154 139 138
f 137 156 155
f 155 138 137
f 136 144 156
f 156 137 136
f 143 112 114
f 114 144 143
f 145 110 112
f 112 143 145
f 146 108 110
f 110 145 146
f 147 106 108
f 108 146 147
f 148 104 106
f 106 147 148
f 149 101 104
f 104 148 149
f 150 102 101
f 101 149 150
f 151 126 102
f 102 150 151
f 152 124 126
f 126 151 152
f 153 122 124
f 124 152 153
f 154 120 122
f 122 153 154
f 155 118 120
f 120 154 155
f 156 116 118
f 118 155 156
f 144 114 116
f 116 156 144
f 160 157 158
f 158 159 160
f 159 158 161
f 161 162 159
f 162 161 163
f 163 164 162
f 164 163 165
f 165 166 164
f 166 165 167
f 167 168 166
f 168 167 169
f 169 170 168
f 170 169 171
f 171 172 170
f 174 172 171
f 171 173 174
f 174 173 175
f 175 176 174
f 176 175 177
f 177 178 176
f 178 177 179
f 179 180 178
f 180 179 181
f 181 182 180
f 182 181 183
f 183 184 182
f 184 183 157
f 157 160 184
f 158 157 185
f 161 158 185
f 163 161 185
f 165 163 185
f 167 165 185
f 169 167 185
f 171 169 185
f 173 171 185
f 175 173 185
f 177 175 185
f 179 177 185
f 181 179 185
f 183 181 185
f 157 183 185
f 186 187 188
f 187 189 188
f 189 190 188
f 190 191 188
f 191 192 188
f 192 193 188
f 193 194 188
f 194 195 188
f 195 196 188
f 196 197 188
f 197 198 188
f 198 199 188
f 199 200 188
f 200 186 188
f 193 170 172
f 172 194 193
f 192 168 170
f 170 193 192
f 191 166 168
f 168 192 191
f 190 164 166
f 166 191 190
f 189 162 164
f 164 190 189
f 187 159 162
f 162 189 187
f 186 160 159
f 159 187 186
f 200 184 160
f 160 186 200
f 199 182 184
f 184 200 199
f 198 180 182
f 182 199 198
f 197 178 180
f 180 198 197
f 196 176 178
f 178 197 196
f 195 174 176
f 176 196 195
f 194 172 174
f 174 195 194
f 204 201 202
f 202 203 204
f 203 202 205
f 205 206 203
f 206 205 207
f 207 208 206
f 208 207 209
f 209 210 208
f 210 209 211
f 211 212 210
f 212 211 213
f 213 214 212
f 214 213 215
f 215 216 214
f 218 216 215
f 215 217 218
f 218 217 219
f 219 220 218
f 220 219 221
f 221 222 220
f 222 221 223
f 223 224 222
f 224 223 225
f 225 226 224
f 226 225 227
f 227 228 226
f 228 227 201
f 201 204 228
f 202 201 229
f 205 202 229
f 207 205 229
f 209 207 229
f 211 209 229
f 213 211 229
f 215 213 229
f 217 215 229
f 219 217 229
f 221 219 229
f 223 221 229
f 225 223 229
f 227 225 229
f 201 227 229
f 230 231 232
f 231 233 232
f 233 234 232
f 234 235 232
f 235 236 232
f 236 237 232
f 237 238 232
f 238 239 232
f 239 240 232
f 240 241 232
f 241 242 232
f 242 243 232
f 243 244 232
f 244 230 232
f 246 214 216
f 216 245 246
f 247 212 214
f 214 246 247
f 248 210 212
f 212 247 248
f 249 208 210
f 210 248 249
f 250 206 208
f 208 249 250
f 251 203 206
f 206 250 251
f 252 204 203
f 203 251 252
f 253 228 204
f 204 252 253
f 254 226 228
f 228 253 254
f 255 224 226
f 226 254 255
f 256 222 224
f 224 255 256
f 257 220 222
f 222 256 257
f 258 218 220
f 220 257 258
f 245 216 218
f 218 258 245
f 260 252 251
f 251 259 260
f 259 251 250
f 250 261 259
f 261 250 249
f 249 262 261
f 262 249 248
f 248 263 262
f 263 248 247
f 247 264 263
f 264 247 246
f 246 265 264
f 265 246 245
f 245 266 265
f 266 245 258
f 258 267 266
f 267 258 257
f 257 268 267
f 268 257 256
f 256 269 268
f 269 256 255
f 255 270 269
f 270 255 254
f 254 271 270
f 271 254 253
f 253 272 271
f 272 253 252
f 252 260 272
f 274 260 259
f 259 273 274
f 273 259 261
f 261 275 273
f 275 261 262
f 262 276 275
f 276 262 263
f 263 277 276
f 277 263 264
f 264 278 277
f 278 264 265
f 265 279 278
f 279 265 266
f 266 280 279
f 280 266 267
f 267 281 280
f 281 267 268
f 268 282 281
f 282 268 269
f 269 283 282
f 283 269 270
f 270 284 283
f 284 270 271
f 271 285 284
f 285 271 272
f 272 286 285
f 286 272 260
f 260 274 286
f 288 274 273
f 273 287 288
f 287 273 275
f 275 289 287
f 289 275 276
f 276 290 289
f 290 276 277
f 277 291 290
f 291 277 278
f 278 292 291
f 292 278 279
f 279 293 292
f 293 279 280
f 280 294 293
f 294 280 281
f 281 295 294
f 295 281 282
f 282 296 295
f 296 282 283
f 283 297 296
f 297 283 284
f 284 298 297
f 298 284 285
f 285 299 298
f 299 285 286
f 286 300 299
f 300 286 274
f 274 288 300
f 230 288 287
f 287 231 230
f 231 287 289
f 289 233 231
f 233 289 290
f 290 234 233
f 234 290 291
f 291 235 234
f 235 291 292
f 292 236 235
f 236 292 293
f 293 237 236
f 237 293 294
f 294 238 237
f 238 294 295
f 295 239 238
f 239 295 296
f 296 240 239
f 240 296 297
f 297 241 240
f 241 297 298
f 298 242 241
f 242 298 299
f 299 243 242
f 243 299 300
f 300 244 243
f 244 300 288
f 288 230 244
f 4 3 2
f 2 1 4
f 8 7 6
f 6 5 8
f 12 11 10
f 10 9 12
f 16 15 14
f 14 13 16
f 20 19 18
f 18 17 20
f 24 23 22
f 22 21 24
f 26 25 17
f 17 22 26
f 25 27 20
f 20 17 25
f 27 28 23
f 23 20 27
f 28 26 22
f 22 23 28
f 31 32 21
f 21 18 31
f 1 2 25
f 25 26 1
f 2 3 27
f 27 25 2
f 3 4 28
f 28 27 3
f 4 1 26
f 26 28 4
f 9 10 29
f 29 30 9
f 10 11 31
f 31 29 10
f 11 12 32
f 32 31 11
f 12 9 30
f 30 32 12
f 33 35 17
f 17 18 33
f 38 37 33
f 33 34 38
f 37 39 35
f 35 33 37
f 39 40 36
f 36 35 39
f 40 38 34
f 34 36 40
f 42 41 37
f 37 38 42
f 41 43 39
f 39 37 41
f 43 44 40
f 40 39 43
f 44 42 38
f 38 40 44
f 46 45 41
f 41 42 46
f 45 47 43
f 43 41 45
f 47 48 44
f 44 43 47
f 48 46 42
f 42 44 48
f 54 53 20
f 20 23 54
f 53 55 19
f 19 20 53
f 55 56 24
f 24 19 55
f 56 54 23
f 23 24 56
f 58 57 53
f 53 54 58
f 57 59 55
f 55 53 57
f 59 60 56
f 56 55 59
f 60 58 54
f 54 56 60
f 62 61 57
f 57 58 62
f 61 63 59
f 59 57 61
f 63 64 60
f 60 59 63
f 64 62 58
f 58 60 64
f 66 65 61
f 61 62 66
f 65 67 63
f 63 61 65
f 67 68 64
f 64 63 67
f 68 66 62
f 62 64 68
f 5 6 65
f 65 66 5
f 6 7 67
f 67 65 6
f 7 8 68
f 68 67 7
f 8 5 66
f 66 68 8