# https://github.com/mikedh/trimesh
v 0.00794715 0.02030390 0.12384562
v 0.00794715 0.02030390 0.15238887
v 0.00794733 0.02402875 0.15238887
v 0.00794733 0.02402875 0.12384562
v 0.00794734 0.02419616 0.13342979
v 0.00794775 0.03252476 0.14263729
v 0.00794796 0.03696110 0.14263729
v 0.00794757 0.02892547 0.13342979
v 0.00794780 0.03361292 0.12384562
v 0.00794804 0.03863520 0.12384562
v 0.00794671 0.01126382 0.12384562
v 0.00794671 0.01126381 0.15238886
v 0.00794689 0.01498867 0.15238886
v 0.00794689 0.01498867 0.12384562
v 0.00794634 0.00368291 0.15052690
v 0.00794636 0.00398152 0.15054736
v 0.00794637 0.00428012 0.15052690
v 0.00794638 0.00456725 0.15046735
v 0.00794633 0.00339578 0.15046734
v 0.00794640 0.00484014 0.15037146
v 0.00794631 0.00312289 0.15037145
v 0.00794641 0.00509603 0.15024200
v 0.00794630 0.00286701 0.15024200
v 0.00794642 0.00533215 0.15008174
v 0.00794629 0.00263089 0.15008173
v 0.00794643 0.00554574 0.14989343
v 0.00794628 0.00241729 0.14989342
v 0.00794644 0.00573406 0.14967983
v 0.00794627 0.00222898 0.14967982
v 0.00794645 0.00589432 0.14944371
v 0.00794626 0.00206871 0.14944370
v 0.00794645 0.00602378 0.14918782
v 0.00794626 0.00193926 0.14918782
v 0.00794646 0.00611966 0.14891494
v 0.00794625 0.00184337 0.14891493
v 0.00794646 0.00617922 0.14862780
v 0.00794625 0.00178381 0.14862780
v 0.00794646 0.00619969 0.14832919
v 0.00794625 0.00176335 0.14832919
v 0.00794625 0.00178381 0.14803059
v 0.00794646 0.00617923 0.14803059
v 0.00794646 0.00611967 0.14774346
v 0.00794625 0.00184337 0.14774346
v 0.00794645 0.00602378 0.14747057
v 0.00794626 0.00193926 0.14747057
v 0.00794645 0.00589433 0.14721469
v 0.00794626 0.00206872 0.14721468
v 0.00794644 0.00573406 0.14697857
v 0.00794627 0.00222898 0.14697856
v 0.00794643 0.00554575 0.14676497
v 0.00794628 0.00241729 0.14676497
v 0.00794642 0.00533215 0.14657666
v 0.00794629 0.00263089 0.14657665
v 0.00794641 0.00509603 0.14641639
v 0.00794630 0.00286701 0.14641639
v 0.00794640 0.00484015 0.14628693
v 0.00794631 0.00312289 0.14628693
v 0.00794638 0.00456726 0.14619105
v 0.00794633 0.00339578 0.14619104
v 0.00794637 0.00428013 0.14613149
v 0.00794634 0.00368291 0.14613149
v 0.00794635 0.00398152 0.14611102
v 0.00794626 0.00209817 0.12384562
v 0.00794626 0.00209817 0.14263729
v 0.00794644 0.00582302 0.14263729
v 0.00794644 0.00582302 0.12384562
v 0.00794468 -0.03025364 0.12384562
v 0.00794468 -0.03025364 0.15238886
v 0.00794487 -0.02640323 0.15238886
v 0.00794488 -0.02615211 0.14606917
v 0.00794489 -0.02606841 0.14606917
v 0.00794533 -0.01694461 0.14067023
v 0.00794580 -0.00744415 0.15238886
v 0.00794598 -0.00363559 0.15238886
v 0.00794578 -0.00782082 0.14606917
v 0.00794578 -0.00773712 0.14606917
v 0.00794598 -0.00363559 0.12384562
v 0.00794488 -0.02615211 0.12384562
v 0.00794532 -0.01727943 0.13502017
v 0.00794535 -0.01660980 0.13502017
v 0.00794578 -0.00773712 0.12384562
v 0.00386283 0.02030390 0.12384562
v 0.00386301 0.02402875 0.15238887
v 0.00386283 0.02030390 0.15238887
v 0.00386301 0.02402875 0.12384562
v 0.00386302 0.02419616 0.13342979
v 0.00386364 0.03696110 0.14263729
v 0.00386342 0.03252476 0.14263729
v 0.00386325 0.02892547 0.13342979
v 0.00386348 0.03361292 0.12384562
v 0.00386372 0.03863519 0.12384562
v 0.00386239 0.01126381 0.12384562
v 0.00386257 0.01498867 0.15238887
v 0.00386239 0.01126381 0.15238887
v 0.00386257 0.01498867 0.12384562
v 0.00386202 0.00368291 0.15052690
v 0.00386205 0.00428012 0.15052690
v 0.00386203 0.00398152 0.15054736
v 0.00386206 0.00456725 0.15046735
v 0.00386201 0.00339578 0.15046734
v 0.00386208 0.00484014 0.15037146
v 0.00386199 0.00312289 0.15037145
v 0.00386209 0.00509603 0.15024200
v 0.00386198 0.00286701 0.15024200
v 0.00386210 0.00533215 0.15008174
v 0.00386197 0.00263089 0.15008173
v 0.00386211 0.00554574 0.14989343
v 0.00386196 0.00241729 0.14989342
v 0.00386212 0.00573405 0.14967983
v 0.00386195 0.00222898 0.14967982
v 0.00386213 0.00589432 0.14944371
v 0.00386194 0.00206871 0.14944370
v 0.00386213 0.00602378 0.14918782
v 0.00386193 0.00193926 0.14918782
v 0.00386214 0.00611966 0.14891494
v 0.00386193 0.00184337 0.14891493
v 0.00386214 0.00617922 0.14862781
v 0.00386193 0.00178381 0.14862780
v 0.00386214 0.00619969 0.14832919
v 0.00386193 0.00176335 0.14832919
v 0.00386193 0.00178381 0.14803059
v 0.00386214 0.00617923 0.14803059
v 0.00386214 0.00611967 0.14774346
v 0.00386193 0.00184337 0.14774346
v 0.00386213 0.00602378 0.14747057
v 0.00386193 0.00193926 0.14747057
v 0.00386213 0.00589432 0.14721469
v 0.00386194 0.00206871 0.14721468
v 0.00386212 0.00573406 0.14697857
v 0.00386195 0.00222898 0.14697856
v 0.00386211 0.00554575 0.14676497
v 0.00386196 0.00241729 0.14676497
v 0.00386210 0.00533215 0.14657666
v 0.00386197 0.00263089 0.14657665
v 0.00386209 0.00509603 0.14641639
v 0.00386198 0.00286701 0.14641639
v 0.00386207 0.00484015 0.14628693
v 0.00386199 0.00312289 0.14628693
v 0.00386206 0.00456726 0.14619105
v 0.00386201 0.00339578 0.14619105
v 0.00386205 0.00428013 0.14613149
v 0.00386202 0.00368291 0.14613149
v 0.00386203 0.00398152 0.14611102
v 0.00386194 0.00209817 0.12384562
v 0.00386212 0.00582302 0.14263729
v 0.00386194 0.00209817 0.14263729
v 0.00386212 0.00582302 0.12384562
v 0.00386036 -0.03025364 0.12384562
v 0.00386055 -0.02640323 0.15238886
v 0.00386036 -0.03025364 0.15238886
v 0.00386056 -0.02615211 0.14606917
v 0.00386057 -0.02606841 0.14606917
v 0.00386101 -0.01694461 0.14067023
v 0.00386166 -0.00363559 0.15238886
v 0.00386148 -0.00744415 0.15238886
v 0.00386146 -0.00782082 0.14606917
v 0.00386146 -0.00773712 0.14606917
v 0.00386166 -0.00363559 0.12384562
v 0.00386056 -0.02615211 0.12384562
v 0.00386099 -0.01727943 0.13502017
v 0.00386103 -0.01660980 0.13502017
v 0.00386146 -0.00773712 0.12384562
v -0.01045788 -0.01518955 0.19432107
v -0.01045788 -0.01518955 0.20186000
v -0.00588735 -0.01345618 0.20186000
v -0.00588735 -0.01345618 0.19432107
v -0.01369934 -0.02834069 0.19432107
v -0.01369934 -0.02834069 0.20186001
v -0.01486916 -0.02359455 0.20186001
v -0.01486916 -0.02359455 0.19432107
v -0.01045788 -0.03199955 0.20186001
v -0.00465633 -0.02359455 0.20186001
v -0.01045788 -0.03199955 0.19432107
v -0.01369934 -0.01884841 0.20186000
v -0.00588735 -0.03373292 0.19432107
v -0.00588735 -0.03373292 0.20186001
v -0.00103481 -0.03314371 0.20186001
v -0.00103481 -0.03314371 0.19432107
v -0.01369934 -0.01884841 0.19432107
v 0.00298809 -0.03036691 0.19432107
v 0.00298809 -0.03036691 0.20186001
v 0.00525974 -0.02603864 0.20186001
v 0.00525974 -0.02603864 0.19432107
v 0.00525974 -0.02115046 0.19432107
v 0.00525974 -0.02115046 0.20186001
v 0.00298809 -0.01682219 0.20186000
v 0.00298809 -0.01682219 0.19432107
v -0.00103481 -0.01404539 0.19432107
v -0.00103481 -0.01404538 0.20186000
v -0.04846498 -0.03569582 0.18766459
v -0.04846498 -0.03569585 0.00508627
v 0.00203019 -0.03569585 0.00508627
v 0.00203019 -0.03569582 0.18766459
v -0.05422910 0.04291611 0.00000000
v -0.05422910 0.04291614 0.19275083
v 0.00779432 0.04291614 0.19275083
v 0.00779432 0.04291611 0.00000000
v -0.05265889 -0.03679673 0.19432107
v -0.03366913 -0.04126271 0.17156192
v -0.02452386 -0.04126271 0.17156192
v -0.05422910 -0.03569585 0.00000001
v -0.05422910 -0.03569582 0.19275085
v -0.02321739 -0.03649924 0.19626928
v -0.02321739 -0.03800169 0.19567048
v -0.02106741 -0.03738601 0.19432107
v 0.00779432 -0.03569582 0.19275085
v 0.00779432 -0.03569585 0.00000001
v -0.02216118 0.04524352 0.17315827
v -0.02321739 0.04524352 0.17315827
v -0.02321739 0.04600911 0.19626927
v -0.02106741 0.04460634 0.19432106
v -0.05265889 0.04401706 0.19432106
v 0.00622410 -0.03679673 0.19432107
v 0.00622410 0.04401706 0.19432106
v -0.01220824 -0.04026806 0.17100450
v -0.03422655 -0.04026806 0.17100450
v -0.01276566 -0.04126271 0.17156192
v -0.02536738 -0.03738601 0.19432107
v -0.02536738 0.04460634 0.19432106
v -0.03211775 0.04435494 0.17267750
v -0.01431703 0.04435494 0.17267750
v -0.03166710 0.04524352 0.17315827
v -0.02427361 0.04524352 0.17315827
v -0.01476769 0.04524352 0.17315827
v -0.02321739 -0.03903370 0.19382325
v -0.02191093 -0.04126271 0.17156192
v -0.02321739 -0.04126271 0.17156192
f 1 2 3
f 1 3 4
f 5 6 7
f 5 7 8
f 9 5 8
f 9 8 10
f 11 12 13
f 11 13 14
f 15 16 17
f 15 17 18
f 19 15 18
f 19 18 20
f 21 19 20
f 21 20 22
f 23 21 22
f 23 22 24
f 25 23 24
f 25 24 26
f 27 25 26
f 27 26 28
f 29 27 28
f 29 28 30
f 31 29 30
f 31 30 32
f 33 31 32
f 33 32 34
f 35 33 34
f 35 34 36
f 37 35 36
f 37 36 38
f 39 37 38
f 40 39 38
f 40 38 41
f 40 41 42
f 43 40 42
f 43 42 44
f 45 43 44
f 45 44 46
f 47 45 46
f 47 46 48
f 49 47 48
f 49 48 50
f 51 49 50
f 51 50 52
f 53 51 52
f 53 52 54
f 55 53 54
f 55 54 56
f 57 55 56
f 57 56 58
f 59 57 58
f 59 58 60
f 61 59 60
f 61 60 62
f 63 64 65
f 63 65 66
f 67 68 69
f 67 69 70
f 70 69 71
f 71 69 72
f 72 73 74
f 72 74 75
f 75 74 76
f 76 74 77
f 67 70 78
f 79 71 72
f 72 75 80
f 81 76 77
f 79 72 80
f 82 83 84
f 82 85 83
f 86 87 88
f 86 89 87
f 90 89 86
f 90 91 89
f 92 93 94
f 92 95 93
f 96 97 98
f 96 99 97
f 100 99 96
f 100 101 99
f 102 101 100
f 102 103 101
f 104 103 102
f 104 105 103
f 106 105 104
f 106 107 105
f 108 107 106
f 108 109 107
f 110 109 108
f 110 111 109
f 112 111 110
f 112 113 111
f 114 113 112
f 114 115 113
f 116 115 114
f 116 117 115
f 118 117 116
f 118 119 117
f 120 119 118
f 121 119 120
f 121 122 119
f 121 123 122
f 124 123 121
f 124 125 123
f 126 125 124
f 126 127 125
f 128 127 126
f 128 129 127
f 130 129 128
f 130 131 129
f 132 131 130
f 132 133 131
f 134 133 132
f 134 135 133
f 136 135 134
f 136 137 135
f 138 137 136
f 138 139 137
f 140 139 138
f 140 141 139
f 142 141 140
f 142 143 141
f 144 145 146
f 144 147 145
f 148 149 150
f 148 151 149
f 151 152 149
f 152 153 149
f 153 154 155
f 153 156 154
f 156 157 154
f 157 158 154
f 148 159 151
f 160 153 152
f 153 161 156
f 162 158 157
f 160 161 153
f 81 77 158
f 81 158 162
f 66 65 145
f 66 145 147
f 37 39 120
f 37 120 118
f 79 80 161
f 79 161 160
f 9 10 91
f 9 91 90
f 68 67 148
f 68 148 150
f 52 50 131
f 52 131 133
f 26 24 105
f 26 105 107
f 10 8 89
f 10 89 91
f 51 53 134
f 51 134 132
f 39 40 121
f 39 121 120
f 25 27 108
f 25 108 106
f 12 11 92
f 12 92 94
f 69 68 150
f 69 150 149
f 13 12 94
f 13 94 93
f 54 52 133
f 54 133 135
f 41 38 119
f 41 119 122
f 28 26 107
f 28 107 109
f 11 14 95
f 11 95 92
f 70 71 152
f 70 152 151
f 53 55 136
f 53 136 134
f 27 29 110
f 27 110 108
f 14 13 93
f 14 93 95
f 42 41 122
f 42 122 123
f 16 15 96
f 16 96 98
f 40 43 124
f 40 124 121
f 72 69 149
f 72 149 153
f 56 54 135
f 56 135 137
f 30 28 109
f 30 109 111
f 17 16 98
f 17 98 97
f 73 72 153
f 73 153 155
f 55 57 138
f 55 138 136
f 29 31 112
f 29 112 110
f 44 42 123
f 44 123 125
f 18 17 97
f 18 97 99
f 74 73 155
f 74 155 154
f 43 45 126
f 43 126 124
f 15 19 100
f 15 100 96
f 58 56 137
f 58 137 139
f 32 30 111
f 32 111 113
f 57 59 140
f 57 140 138
f 31 33 114
f 31 114 112
f 75 76 157
f 75 157 156
f 2 1 82
f 2 82 84
f 46 44 125
f 46 125 127
f 20 18 99
f 20 99 101
f 45 47 128
f 45 128 126
f 19 21 102
f 19 102 100
f 3 2 84
f 3 84 83
f 60 58 139
f 60 139 141
f 34 32 113
f 34 113 115
f 77 74 154
f 77 154 158
f 1 4 85
f 1 85 82
f 59 61 142
f 59 142 140
f 33 35 116
f 33 116 114
f 67 78 159
f 67 159 148
f 4 3 83
f 4 83 85
f 48 46 127
f 48 127 129
f 22 20 101
f 22 101 103
f 78 70 151
f 78 151 159
f 6 5 86
f 6 86 88
f 61 62 143
f 61 143 142
f 47 49 130
f 47 130 128
f 21 23 104
f 21 104 102
f 71 79 160
f 71 160 152
f 62 60 141
f 62 141 143
f 36 34 115
f 36 115 117
f 7 6 88
f 7 88 87
f 64 63 144
f 64 144 146
f 35 37 118
f 35 118 116
f 50 48 129
f 50 129 131
f 24 22 103
f 24 103 105
f 80 75 156
f 80 156 161
f 8 7 87
f 8 87 89
f 65 64 146
f 65 146 145
f 49 51 132
f 49 132 130
f 23 25 106
f 23 106 104
f 76 81 162
f 76 162 157
f 5 9 90
f 5 90 86
f 63 66 147
f 63 147 144
f 38 36 117
f 38 117 119
f 169 172 174
f 163 164 165
f 163 165 166
f 167 168 169
f 167 169 170
f 168 171 172
f 168 172 169
f 173 171 168
f 173 168 167
f 164 174 172
f 164 172 165
f 175 176 171
f 175 171 173
f 176 177 172
f 176 172 171
f 178 177 176
f 178 176 175
f 179 174 164
f 179 164 163
f 180 181 177
f 180 177 178
f 181 182 172
f 181 172 177
f 183 182 181
f 183 181 180
f 170 169 174
f 170 174 179
f 184 185 182
f 184 182 183
f 185 186 172
f 185 172 182
f 187 186 185
f 187 185 184
f 188 189 186
f 188 186 187
f 189 165 172
f 189 172 186
f 166 165 189
f 166 189 188
f 190 191 192
f 190 192 193
f 194 195 196
f 194 196 197
f 198 199 200
f 203 204 205
f 219 223 212
f 205 204 225
f 220 222 223
f 223 222 212
f 208 214 224
f 213 205 226
f 208 211 214
f 200 218 198
f 226 217 213
f 221 209 208
f 224 221 208
f 200 199 216
f 215 217 226
f 214 187 184
f 225 204 218
f 204 203 218
f 215 226 227
f 201 202 195
f 201 195 194
f 197 196 206
f 197 206 207
f 208 209 210
f 208 210 211
f 201 194 197
f 201 197 207
f 206 202 190
f 206 190 193
f 202 198 212
f 202 212 195
f 213 206 196
f 213 196 214
f 206 215 216
f 206 216 202
f 213 217 215
f 213 215 206
f 212 198 218
f 212 218 219
f 202 216 199
f 202 199 198
f 195 220 221
f 195 221 196
f 212 222 220
f 212 220 195
f 196 221 224
f 196 224 214
f 203 210 219
f 203 219 218
f 219 210 209
f 219 209 223
f 225 227 226
f 225 226 205
f 218 200 227
f 218 227 225
f 205 211 210
f 205 210 203
f 215 227 200
f 215 200 216
f 214 184 183
f 214 183 213
f 167 170 211
f 167 211 205
f 175 173 167
f 175 167 205
f 183 180 178
f 183 178 213
f 166 188 187
f 166 187 214
f 214 211 163
f 214 163 166
f 205 213 178
f 205 178 175
f 163 211 170
f 163 170 179
f 221 220 223
f 221 223 209
f 202 201 191
f 202 191 190
f 207 206 193
f 207 193 192
f 201 207 192
f 201 192 191
f 4 3 2
f 2 1 4
f 9 10 8
f 14 13 12
f 12 11 14
f 57 58 56
f 66 65 64
f 64 63 66
f 81 77 76
f 84 83 85
f 85 82 84
f 94 93 95
f 95 92 94
f 146 145 147
f 147 144 146
f 156 154 157
f 156 157 154
f 154 158 162
f 162 157 154
f 162 158 77
f 77 81 162
f 147 145 65
f 65 66 147
f 118 120 39
f 39 37 118
f 160 161 80
f 80 79 160
f 90 91 10
f 10 9 90
f 150 148 67
f 67 68 150
f 133 131 50
f 50 52 133
f 107 105 24
f 24 26 107
f 91 89 8
f 8 10 91
f 132 134 53
f 53 51 132
f 120 121 40
f 40 39 120
f 106 108 27
f 27 25 106
f 94 92 11
f 11 12 94
f 149 150 68
f 68 69 149
f 93 94 12
f 12 13 93
f 135 133 52
f 52 54 135
f 122 119 38
f 38 41 122
f 109 107 26
f 26 28 109
f 92 95 14
f 14 11 92
f 151 152 71
f 71 70 151
f 134 136 55
f 55 53 134
f 108 110 29
f 29 27 108
f 95 93 13
f 13 14 95
f 123 122 41
f 41 42 123
f 98 96 15
f 15 16 98
f 121 124 43
f 43 40 121
f 153 149 69
f 69 72 153
f 137 135 54
f 54 56 137
f 111 109 28
f 28 30 111
f 97 98 16
f 16 17 97
f 155 153 72
f 72 73 155
f 136 138 57
f 57 55 136
f 110 112 31
f 31 29 110
f 125 123 42
f 42 44 125
f 99 97 17
f 17 18 99
f 154 155 73
f 73 74 154
f 124 126 45
f 45 43 124
f 96 100 19
f 19 15 96
f 139 137 56
f 56 58 139
f 113 111 30
f 30 32 113
f 138 140 59
f 59 57 138
f 112 114 33
f 33 31 112
f 156 157 76
f 76 75 156
f 84 82 1
f 1 2 84
f 127 125 44
f 44 46 127
f 101 99 18
f 18 20 101
f 126 128 47
f 47 45 126
f 100 102 21
f 21 19 100
f 83 84 2
f 2 3 83
f 141 139 58
f 58 60 141
f 115 113 32
f 32 34 115
f 158 154 74
f 74 77 158
f 82 85 4
f 4 1 82
f 140 142 61
f 61 59 140
f 114 116 35
f 35 33 114
f 148 159 78
f 78 67 148
f 85 83 3
f 3 4 85
f 129 127 46
f 46 48 129
f 103 101 20
f 20 22 103
f 159 151 70
f 70 78 159
f 88 86 5
f 5 6 88
f 142 143 62
f 62 61 142
f 128 130 49
f 49 47 128
f 102 104 23
f 23 21 102
f 152 160 79
f 79 71 152
f 143 141 60
f 60 62 143
f 117 115 34
f 34 36 117
f 87 88 6
f 6 7 87
f 146 144 63
f 63 64 146
f 116 118 37
f 37 35 116
f 131 129 48
f 48 50 131
f 105 103 22
f 22 24 105
f 161 156 75
f 75 80 161
f 89 87 7
f 7 8 89
f 145 146 64
f 64 65 145
f 130 132 51
f 51 49 130
f 104 106 25
f 25 23 104
f 157 162 81
f 81 76 157
f 86 90 9
f 9 5 86
f 144 147 66
f 66 63 144
f 119 117 36
f 36 38 119
f 193 192 191
f 191 190 193
f 197 196 195
f 195 194 197
f 194 195 202
f 202 201 194
f 207 206 196
f 196 197 207
f 211 210 209
f 209 208 211
f 207 197 194
f 194 201 207
f 193 190 202
f 202 206 193
f 195 212 198
f 198 202 195
f 214 196 206
f 206 213 214
f 202 216 215
f 215 206 202
f 219 218 198
f 198 212 219
f 196 221 220
f 220 195 196
f 223 209 210
f 210 219 223
f 213 205 211
f 211 214 213
f 190 191 201
f 201 202 190
f 192 193 206
f 206 207 192
f 191 192 207
f 207 201 191