# https://github.com/mikedh/trimesh
v 0.02194494 -0.00586779 0.02523621
v 0.02194494 -0.00586779 0.03493075
v -0.00010847 -0.00586778 0.03493075
v -0.00010847 -0.00586779 0.02523621
v -0.02216189 -0.00586779 0.02523621
v -0.02216187 -0.00586779 0.03493076
v 0.02161359 -0.00387569 0.02339551
v 0.02161359 -0.00387569 0.03428107
v 0.02161359 0.00999063 0.03428107
v 0.02161359 0.00999063 0.02339551
v -0.02206598 -0.00387569 0.02339551
v -0.02206598 -0.00387569 0.03428107
v -0.02206598 0.00999063 0.03428107
v -0.02206598 0.00999063 0.02339551
v 0.02266031 -0.00400674 0.00901349
v 0.02257472 0.01120129 0.00832692
v 0.02257472 0.01120129 0.01886534
v 0.02265990 -0.00393222 0.01873731
v 0.02230571 0.05690588 0.03632412
v 0.02230570 0.05690588 0.04172346
v 0.02257472 0.03577062 0.04160309
v 0.02257472 0.03577062 0.03592947
v 0.02267296 0.00325472 0.04136786
v 0.02267296 -0.00603454 0.03673494
v 0.02267296 -0.00625120 0.03513855
v 0.02257472 0.01120129 0.03551953
v 0.02257472 0.01120129 0.04146360
v 0.02257472 0.04491630 0.01431411
v 0.02228347 0.05715471 0.01413819
v 0.02228347 0.05697209 0.01922413
v 0.02257472 0.04158897 0.01868837
v 0.02257472 0.01120129 0.02293979
v 0.02265971 -0.00389915 0.02305298
v 0.02257472 0.03663121 0.02018995
v 0.02257472 0.03095190 0.01843072
v 0.02238849 0.02754431 0.01424373
v 0.02080885 0.05690588 0.04381187
v 0.02080885 0.03577062 0.04369149
v 0.02080885 0.01120130 0.04353529
v 0.02080885 0.00310516 0.04277249
v 0.02174090 -0.00507740 0.03902225
v 0.02267296 -0.00109846 0.04090387
v 0.02080885 -0.00168759 0.04163918
v 0.02188284 -0.02943998 0.01347131
v 0.02188284 -0.02738029 0.01574187
v 0.02188284 -0.02839351 0.01566210
v 0.02188284 -0.03045202 0.01347131
v 0.00999823 -0.03048543 0.02281376
v 0.01019139 -0.02940272 0.02316472
v 0.00903132 -0.02949366 0.02379883
v 0.00873896 -0.03057059 0.02358830
v 0.01102337 -0.03146710 0.01353484
v 0.00848997 -0.03072180 0.01541327
v 0.00660169 -0.03053726 0.01477109
v 0.01029292 -0.03146710 0.01353484
v 0.02025922 -0.02971338 0.02262269
v 0.02063744 -0.02868625 0.02285121
v 0.02129693 -0.03092148 0.01347131
v 0.02129693 -0.02904293 0.01563080
v 0.02188284 -0.02864766 0.01347131
v 0.02188284 -0.02671130 0.01559775
v 0.01237227 -0.01997652 0.02372954
v 0.01097166 -0.02003045 0.02403865
v 0.02063560 -0.01955169 0.02339742
v 0.02188284 -0.00931434 0.00946573
v 0.02188284 -0.00623913 0.00946573
v 0.02188284 -0.00623913 0.01461655
v 0.02245420 -0.01068065 0.01440938
v 0.01484749 -0.00623913 0.02453832
v 0.01411703 -0.00623913 0.02487402
v 0.02063158 -0.00623913 0.02412842
v 0.02188284 -0.00623913 0.02312792
v 0.02188284 -0.01949657 0.02237803
v 0.02188284 -0.02859344 0.02186349
v 0.02150462 -0.02961355 0.02165044
v 0.00911666 -0.03079403 0.02157991
v 0.00782738 -0.03090007 0.02159891
v 0.00788705 -0.03102415 0.02110542
v 0.00925000 -0.03024825 0.02112445
v 0.00709901 -0.03111871 0.02183921
v 0.00620978 -0.02829881 0.02111951
v -0.00010847 -0.03140454 0.02190429
v -0.00010847 -0.02801905 0.02127521
v 0.02203547 -0.02830549 0.01951856
v 0.02178778 -0.02932322 0.01951856
v 0.00830451 -0.03023724 0.01600067
v 0.00803113 -0.03069487 0.01951856
v 0.00614708 -0.02817613 0.01951856
v 0.00602810 -0.02794336 0.01450500
v 0.00937194 -0.02990565 0.01951856
v 0.02203607 -0.02430778 0.01856742
v 0.02213535 -0.00623913 0.01951856
v 0.02235185 -0.01252574 0.01716746
v 0.02091875 -0.03007493 0.02156887
v 0.02120189 -0.02984949 0.01951856
v 0.00825904 -0.03126032 0.02306152
v 0.00898950 -0.03116356 0.02223722
v 0.02000794 -0.03033246 0.02208901
v 0.00960330 -0.02987768 0.01572585
v 0.02022243 -0.02946767 0.01951856
v 0.02025352 -0.02898767 0.01598896
v 0.01808967 -0.03005611 0.02144766
v 0.02023529 -0.02997202 0.02126023
v -0.00010847 -0.03167732 0.02314485
v 0.02193659 -0.01949657 0.02005356
v 0.02211106 -0.02163834 0.01951856
v 0.02213535 -0.01624790 0.01951856
v 0.02267296 -0.00620876 0.02513036
v 0.02267296 -0.00376979 0.02426399
v 0.02267296 -0.00376979 0.03339035
v 0.02267296 0.00968655 0.02442095
v 0.02267296 0.00968655 0.03368245
v -0.00010847 -0.00625120 0.03513855
v -0.00010847 -0.00625120 0.03438254
v 0.01934854 -0.00625120 0.03438254
v 0.02267296 -0.00625120 0.01871769
v 0.02267296 -0.00625120 0.00911482
v 0.02343603 -0.03243087 0.01102962
v 0.02331903 -0.03156244 0.01119883
v 0.02309678 -0.03269046 0.01439280
v 0.02332568 -0.03299744 0.01421141
v -0.00005378 -0.03191753 0.01066572
v 0.01318185 -0.03196263 0.01091899
v 0.01318185 -0.03272150 0.01076909
v -0.00005378 -0.03276258 0.01049881
v -0.00015917 -0.03330365 0.01353742
v 0.01307451 -0.03327258 0.01386387
v 0.01307232 -0.03275858 0.01403073
v -0.00016135 -0.03260261 0.01374122
v -0.00006057 -0.03298337 0.01065784
v 0.01317505 -0.03294228 0.01092812
v 0.01308129 -0.03342365 0.01363140
v -0.00015238 -0.03345472 0.01330495
v 0.01943542 -0.03181670 0.01107168
v 0.01943542 -0.03267745 0.01090167
v 0.01932507 -0.03324400 0.01408347
v 0.01932470 -0.03267176 0.01420725
v 0.01942864 -0.03289821 0.01106071
v 0.01933185 -0.03339507 0.01385100
v 0.02316681 -0.03266784 0.01118026
v 0.02307003 -0.03316469 0.01397055
v 0.02034286 -0.02907712 0.01844666
v 0.01971419 -0.02907712 0.01990889
v 0.01934947 -0.02969029 0.01970864
v 0.01989206 -0.02969029 0.01844666
v 0.01806828 -0.02907712 0.02081260
v 0.01792897 -0.02969029 0.02048859
v 0.01438794 -0.02907712 0.01990889
v 0.01375926 -0.02907712 0.01844666
v 0.01421007 -0.02969029 0.01844666
v 0.01475264 -0.02969029 0.01970864
v 0.01438794 -0.02907712 0.01698443
v 0.01475264 -0.02969029 0.01718468
v 0.01603384 -0.02907712 0.01608072
v 0.01617314 -0.02969029 0.01640473
v 0.01806828 -0.02907712 0.01608072
v 0.01792897 -0.02969029 0.01640473
v 0.01971419 -0.02907712 0.01698443
v 0.01934947 -0.02969029 0.01718468
v 0.01946178 -0.02995029 0.01844666
v 0.01900138 -0.02995029 0.01951751
v 0.01705106 -0.03033060 0.01844666
v 0.01779602 -0.02995029 0.02017933
v 0.01630611 -0.02995029 0.02017933
v 0.01510075 -0.02995029 0.01951751
v 0.01464034 -0.02995029 0.01844666
v 0.01510075 -0.02995029 0.01737581
v 0.01630611 -0.02995029 0.01671398
v 0.01779602 -0.02995029 0.01671398
v 0.01900138 -0.02995029 0.01737581
v 0.01617314 -0.02969029 0.02048858
v 0.02224220 0.02721024 0.00832692
v 0.01555681 0.02824637 0.00977798
v 0.01566185 0.02848118 0.01393684
v 0.01582754 0.04125029 0.01810045
v 0.01584825 0.04400338 0.01429883
v 0.01582158 0.03668189 0.01925654
v 0.01582607 0.03150559 0.01765304
v 0.01540396 0.03535710 0.01461677
v 0.01294647 -0.02934190 0.01839923
v 0.01254886 -0.02934190 0.01912466
v 0.01254886 -0.03007620 0.01912466
v 0.01294647 -0.03007620 0.01839923
v 0.01158894 -0.02934190 0.01942515
v 0.01158894 -0.03007620 0.01942515
v 0.01062903 -0.02934190 0.01912466
v 0.01062903 -0.03007620 0.01912466
v 0.01023141 -0.02934190 0.01839923
v 0.01023141 -0.03007620 0.01839923
v 0.01062903 -0.02934190 0.01767380
v 0.01062903 -0.03007620 0.01767380
v 0.01158894 -0.02934190 0.01737331
v 0.01158894 -0.03007620 0.01737331
v 0.01254886 -0.02934190 0.01767380
v 0.01254886 -0.03007620 0.01767380
v -0.00010847 0.05715471 0.01415009
v -0.00010847 0.05697210 0.01924247
v -0.00010847 0.05690588 0.04448516
v -0.00010847 0.03577062 0.04402844
v -0.00010847 -0.00622314 0.03673494
v -0.00010847 0.05690588 0.04172347
v -0.00010847 0.01120130 0.04381497
v -0.00010847 0.00310516 0.04314454
v -0.00010847 -0.00532581 0.03902662
v -0.00010847 -0.00168759 0.04213728
v -0.00010847 0.05690588 0.03632413
v -0.00010847 -0.00623913 0.02487402
v -0.00010847 -0.02039735 0.02443060
v -0.00010847 -0.02805615 0.01951856
v -0.00010847 -0.03008300 0.02387909
v -0.00010847 -0.03119164 0.02366971
v -0.00010847 -0.03196159 0.01352012
v -0.00010847 -0.03060093 0.01479545
v -0.00010847 -0.02812326 0.01449168
v -0.02287726 -0.00400674 0.00901350
v -0.02287684 -0.00393222 0.01873731
v -0.02279166 0.01120129 0.01886535
v -0.02279167 0.01120129 0.00832693
v -0.02252265 0.05690588 0.03632413
v -0.02279166 0.03577062 0.03592948
v -0.02279166 0.03577062 0.04160310
v -0.02252263 0.05690588 0.04172347
v -0.02288989 -0.00625120 0.03513855
v -0.02288989 -0.00603454 0.03673494
v -0.02288989 0.00325472 0.04136787
v -0.02279166 0.01120129 0.03551954
v -0.02279166 0.01120129 0.04146360
v -0.02279166 0.04491630 0.01431411
v -0.02279166 0.04158897 0.01868838
v -0.02250042 0.05697209 0.01922414
v -0.02250042 0.05715471 0.01413819
v -0.02279166 0.01120129 0.02293979
v -0.02287666 -0.00389915 0.02305299
v -0.02279166 0.03663121 0.02018996
v -0.02279166 0.03095190 0.01843072
v -0.02260543 0.02754431 0.01424374
v -0.02245915 0.02721024 0.00832693
v -0.02102578 0.03577062 0.04369150
v -0.02102578 0.05690588 0.04381188
v -0.02102578 0.00310516 0.04277250
v -0.02102579 0.01120130 0.04353529
v -0.02195784 -0.00507740 0.03902226
v -0.02102578 -0.00168759 0.04163918
v -0.02288989 -0.00109846 0.04090388
v -0.02209979 -0.02943998 0.01347131
v -0.02209979 -0.03045202 0.01347131
v -0.02209979 -0.02839351 0.01566210
v -0.02209979 -0.02738029 0.01574188
v -0.01021518 -0.03048543 0.02281376
v -0.00895589 -0.03057059 0.02358830
v -0.00924827 -0.02949366 0.02379883
v -0.01040833 -0.02940272 0.02316473
v -0.01124032 -0.03146710 0.01353484
v -0.01050987 -0.03146710 0.01353484
v -0.00681864 -0.03053726 0.01477110
v -0.00870692 -0.03072180 0.01541327
v -0.02047616 -0.02971338 0.02262270
v -0.02085439 -0.02868625 0.02285122
v -0.02151388 -0.03092148 0.01347131
v -0.02151388 -0.02904293 0.01563080
v -0.02209979 -0.02864766 0.01347131
v -0.02209979 -0.02671130 0.01559776
v -0.01118859 -0.02003045 0.02403865
v -0.01258922 -0.01997652 0.02372954
v -0.02085255 -0.01955169 0.02339742
v -0.02209979 -0.00931434 0.00946573
v -0.02267115 -0.01068065 0.01440938
v -0.02209979 -0.00623913 0.01461655
v -0.02209979 -0.00623913 0.00946573
v -0.01506442 -0.00623913 0.02453833
v -0.01433398 -0.00623913 0.02487402
v -0.02084852 -0.00623913 0.02412843
v -0.02209979 -0.00623913 0.02312792
v -0.02209979 -0.01949657 0.02237804
v -0.02209979 -0.02859344 0.02186349
v -0.02172157 -0.02961355 0.02165045
v -0.00933359 -0.03079403 0.02157991
v -0.00946694 -0.03024825 0.02112445
v -0.00810399 -0.03102415 0.02110542
v -0.00804432 -0.03090007 0.02159891
v -0.00642673 -0.02829881 0.02111951
v -0.00731596 -0.03111871 0.02183921
v -0.02225241 -0.02830549 0.01951856
v -0.02200473 -0.02932322 0.01951856
v -0.00852146 -0.03023724 0.01600067
v -0.00624505 -0.02794336 0.01450501
v -0.00636402 -0.02817613 0.01951856
v -0.00824807 -0.03069487 0.01951856
v -0.00958887 -0.02990565 0.01951856
v -0.02225302 -0.02430778 0.01856742
v -0.02256880 -0.01252574 0.01716746
v -0.02235229 -0.00623913 0.01951856
v -0.02141883 -0.02984949 0.01951856
v -0.02113568 -0.03007493 0.02156888
v -0.00920643 -0.03116356 0.02223723
v -0.00847599 -0.03126032 0.02306153
v -0.02022489 -0.03033246 0.02208901
v -0.00982024 -0.02987768 0.01572585
v -0.02047045 -0.02898767 0.01598897
v -0.02043937 -0.02946767 0.01951856
v -0.02045224 -0.02997202 0.02126023
v -0.01830661 -0.03005611 0.02144766
v -0.02215354 -0.01949657 0.02005356
v -0.02232801 -0.02163834 0.01951856
v -0.02235229 -0.01624790 0.01951856
v -0.02288989 -0.00376979 0.03339035
v -0.02288989 -0.00376979 0.02426399
v -0.02288989 -0.00620876 0.02513036
v -0.02288989 0.00968655 0.02442096
v -0.02288989 0.00968655 0.03368245
v -0.01956548 -0.00625120 0.03438254
v -0.02288989 -0.00625120 0.01871770
v -0.02288989 -0.00625120 0.00911483
v -0.02354360 -0.03227080 0.01013065
v -0.02365395 -0.03283737 0.01331245
v -0.02343345 -0.03253192 0.01350243
v -0.02342660 -0.03140315 0.01030435
v -0.01328941 -0.03263131 0.01026257
v -0.01328941 -0.03187243 0.01041245
v -0.01339893 -0.03266838 0.01352419
v -0.01339674 -0.03318238 0.01335734
v -0.01338996 -0.03333344 0.01312487
v -0.01329620 -0.03285209 0.01042159
v -0.01954299 -0.03254463 0.01015582
v -0.01954299 -0.03168388 0.01032582
v -0.01965334 -0.03311120 0.01333762
v -0.01965371 -0.03253895 0.01346140
v -0.01954977 -0.03276541 0.01031484
v -0.01964655 -0.03326227 0.01310514
v -0.02328796 -0.03250955 0.01029133
v -0.02338473 -0.03300641 0.01308162
v -0.02055981 -0.02907712 0.01844666
v -0.02010900 -0.02969029 0.01844666
v -0.01956642 -0.02969029 0.01970864
v -0.01993113 -0.02907712 0.01990890
v -0.01814592 -0.02969029 0.02048859
v -0.01828523 -0.02907712 0.02081260
v -0.01460488 -0.02907712 0.01990889
v -0.01496959 -0.02969029 0.01970864
v -0.01442700 -0.02969029 0.01844666
v -0.01397621 -0.02907712 0.01844666
v -0.01496959 -0.02969029 0.01718468
v -0.01460489 -0.02907712 0.01698443
v -0.01639009 -0.02969029 0.01640474
v -0.01625079 -0.02907712 0.01608072
v -0.01814592 -0.02969029 0.01640474
v -0.01828523 -0.02907712 0.01608072
v -0.01956642 -0.02969029 0.01718468
v -0.01993113 -0.02907712 0.01698443
v -0.01967873 -0.02995029 0.01844666
v -0.01726800 -0.03033060 0.01844666
v -0.01921832 -0.02995029 0.01951751
v -0.01801296 -0.02995029 0.02017934
v -0.01652306 -0.02995029 0.02017934
v -0.01531769 -0.02995029 0.01951751
v -0.01485729 -0.02995029 0.01844666
v -0.01531770 -0.02995029 0.01737581
v -0.01652306 -0.02995029 0.01671399
v -0.01801296 -0.02995029 0.01671399
v -0.01921832 -0.02995029 0.01737582
v -0.01639009 -0.02969029 0.02048859
v -0.01587880 0.02848118 0.01393684
v -0.01577376 0.02824637 0.00977798
v -0.01606518 0.04400338 0.01429883
v -0.01604449 0.04125029 0.01810045
v -0.01603851 0.03668189 0.01925655
v -0.01604302 0.03150559 0.01765304
v -0.01562090 0.03535710 0.01461677
v -0.01316342 -0.02934190 0.01839923
v -0.01316342 -0.03007620 0.01839923
v -0.01276581 -0.03007620 0.01912467
v -0.01276581 -0.02934190 0.01912467
v -0.01180589 -0.03007620 0.01942516
v -0.01180589 -0.02934190 0.01942516
v -0.01084596 -0.03007620 0.01912467
v -0.01084596 -0.02934190 0.01912467
v -0.01044835 -0.03007620 0.01839923
v -0.01044835 -0.02934190 0.01839923
v -0.01084596 -0.03007620 0.01767380
v -0.01084596 -0.02934190 0.01767380
v -0.01180589 -0.03007620 0.01737331
v -0.01180589 -0.02934190 0.01737331
v -0.01276581 -0.03007620 0.01767380
v -0.01276581 -0.02934190 0.01767380
v 0.02103657 -0.00625120 0.03310686
v 0.02103657 -0.00625120 0.02706309
v 0.01934854 -0.00625120 0.02600030
v 0.02055082 -0.00376979 0.02426399
v 0.02055082 -0.00376979 0.03339035
v 0.02055081 0.00968655 0.02442095
v 0.02055082 0.00968655 0.03368245
v 0.02103657 -0.00478901 0.02706309
v 0.01934854 -0.00478901 0.02600030
v 0.02103657 -0.00478901 0.03310686
v 0.01934854 -0.00478901 0.03438254
v -0.00010847 -0.00478901 0.03438254
v 0.02231927 -0.00692798 0.01871968
v 0.02231926 -0.00692798 0.00913671
v 0.02231927 -0.00688730 0.02486506
v -0.00010847 -0.00620876 0.02513036
v -0.00010847 -0.00688730 0.02486506
v 0.01966986 -0.00692798 0.01871968
v 0.01966986 -0.00692798 0.00913553
v 0.01966987 -0.00690055 0.02286289
v -0.00010847 -0.00690055 0.02286289
v 0.01894411 0.04445197 0.00716680
v 0.01893731 0.04386509 0.01027428
v 0.02305413 0.04384056 0.01027428
v 0.02306093 0.04442743 0.00716680
v 0.01891796 0.04219380 0.01290868
v 0.02303478 0.04216926 0.01290868
v 0.01888899 0.03969254 0.01466893
v 0.02300581 0.03966800 0.01466893
v 0.01885484 0.03674210 0.01528705
v 0.02297166 0.03671756 0.01528705
v 0.01882068 0.03379166 0.01466893
v 0.02293750 0.03376711 0.01466893
v 0.01879171 0.03129039 0.01290868
v 0.02290853 0.03126586 0.01290868
v 0.01877237 0.02961911 0.01027428
v 0.02288918 0.02959457 0.01027428
v 0.01876557 0.02903223 0.00716680
v 0.02288240 0.02900769 0.00716680
v 0.01877237 0.02961911 0.00405931
v 0.02288918 0.02959457 0.00405931
v 0.01879171 0.03129039 0.00142491
v 0.02290853 0.03126585 0.00142491
v 0.01882068 0.03379166 0.00002217
v 0.02293750 0.03376711 0.00002217
v 0.01885484 0.03674210 0.00001830
v 0.02297166 0.03671756 0.00001829
v 0.01888899 0.03969254 0.00002217
v 0.02300581 0.03966800 0.00002217
v 0.01891796 0.04219381 0.00142491
v 0.02303478 0.04216926 0.00142491
v 0.01893731 0.04386509 0.00405932
v 0.02305413 0.04384056 0.00405932
v 0.01772409 0.04123935 0.00243760
v 0.01770024 0.03917923 0.00098779
v 0.01767211 0.03674915 0.00047869
v 0.01764397 0.03431907 0.00098779
v 0.01762012 0.03225895 0.00243760
v 0.01760419 0.03088242 0.00460737
v 0.01759858 0.03039905 0.00716680
v 0.01760419 0.03088242 0.00972623
v 0.01762012 0.03225895 0.01189600
v 0.01764397 0.03431907 0.01334580
v 0.01767211 0.03674915 0.01385490
v 0.01770025 0.03917923 0.01334580
v 0.01772409 0.04123935 0.01189600
v 0.01774003 0.04261588 0.00972623
v 0.01774563 0.04309925 0.00716680
v 0.01774003 0.04261588 0.00460737
v 0.02606490 0.03701445 0.00765381
v 0.02606007 0.03659698 0.00774127
v 0.02605597 0.03624307 0.00749221
v 0.02605501 0.03616004 0.00705252
v 0.02605775 0.03639651 0.00667978
v 0.02606258 0.03681397 0.00659232
v 0.02606668 0.03716788 0.00684139
v 0.02606764 0.03725092 0.00728106
v 0.02399463 0.04169722 0.00934174
v 0.02399938 0.04210798 0.00716680
v 0.02398108 0.04052747 0.01118556
v 0.02396082 0.03877682 0.01241757
v 0.02393691 0.03671180 0.01285019
v 0.02391300 0.03464678 0.01241757
v 0.02389272 0.03289614 0.01118556
v 0.02387918 0.03172639 0.00934174
v 0.02387442 0.03131564 0.00716680
v 0.02387918 0.03172639 0.00499186
v 0.02389272 0.03289614 0.00314803
v 0.02391300 0.03464678 0.00191603
v 0.02406959 0.03671180 0.00148340
v 0.02418829 0.03877683 0.00191603
v 0.02398108 0.04052747 0.00314803
v 0.02399463 0.04169722 0.00499186
v 0.02279667 0.04006052 0.00862464
v 0.02279986 0.04033584 0.00716680
v 0.02278759 0.03927644 0.00986055
v 0.02277401 0.03810300 0.01068635
v 0.02275798 0.03671883 0.01097633
v 0.02274195 0.03533467 0.01068635
v 0.02272837 0.03416122 0.00986055
v 0.02271929 0.03337715 0.00862464
v 0.02271611 0.03310183 0.00716680
v 0.02271929 0.03337715 0.00570895
v 0.02272837 0.03416122 0.00447305
v 0.02274195 0.03533467 0.00364725
v 0.02275798 0.03671883 0.00335726
v 0.02277401 0.03810300 0.00364725
v 0.02278759 0.03927644 0.00447305
v 0.02279667 0.04006052 0.00570895
v 0.02114116 0.03963753 0.00777620
v 0.02112657 0.03837641 0.00976407
v 0.02110079 0.03615006 0.01023049
v 0.02107893 0.03426265 0.00890224
v 0.02107380 0.03381981 0.00655739
v 0.02108841 0.03508093 0.00456952
v 0.02111419 0.03730728 0.00410310
v 0.02113604 0.03919469 0.00543135
v 0.02253647 0.03795249 0.00910916
v 0.02254738 0.03889562 0.00762254
v 0.02251718 0.03628752 0.00945797
v 0.02250085 0.03487603 0.00846465
v 0.02249701 0.03454485 0.00671105
v 0.02250792 0.03548798 0.00522443
v 0.02252721 0.03715295 0.00487562
v 0.02254354 0.03856444 0.00586895
v 0.02312005 0.03750182 0.00840431
v 0.02312646 0.03810270 0.00745716
v 0.02310871 0.03644104 0.00862654
v 0.02309910 0.03554175 0.00799368
v 0.02309685 0.03533075 0.00687643
v 0.02310326 0.03593163 0.00592928
v 0.02311460 0.03699241 0.00570704
v 0.02312421 0.03789170 0.00633991
v 0.02198724 -0.01140337 0.00716680
v 0.02180933 -0.01197621 0.01027428
v 0.02582772 -0.01261876 0.01027428
v 0.02600564 -0.01204591 0.00716680
v 0.02130271 -0.01360754 0.01290868
v 0.02532111 -0.01425009 0.01290868
v 0.02054449 -0.01604901 0.01466893
v 0.02456289 -0.01669156 0.01466893
v 0.01965012 -0.01892891 0.01528705
v 0.02366852 -0.01957147 0.01528705
v 0.01875574 -0.02180882 0.01466893
v 0.02277414 -0.02245136 0.01466893
v 0.01799754 -0.02425028 0.01290868
v 0.02201593 -0.02489283 0.01290868
v 0.01749091 -0.02588161 0.01027428
v 0.02150931 -0.02652416 0.01027428
v 0.01731301 -0.02645446 0.00716680
v 0.02133141 -0.02709701 0.00716680
v 0.01749091 -0.02588161 0.00405931
v 0.02150931 -0.02652416 0.00405931
v 0.01799754 -0.02425028 0.00142491
v 0.02201593 -0.02489283 0.00142491
v 0.01875574 -0.02180882 0.00000388
v 0.02277414 -0.02245136 0.00000388
v 0.01965012 -0.01892891 0.00000000
v 0.02366852 -0.01957147 0.00000000
v 0.02054449 -0.01604901 0.00000388
v 0.02456289 -0.01669156 0.00000388
v 0.02130271 -0.01360754 0.00142491
v 0.02532111 -0.01425009 0.00142491
v 0.02180934 -0.01197621 0.00405932
v 0.02582774 -0.01261876 0.00405932
v 0.01985680 -0.01436146 0.00243759
v 0.01923231 -0.01637233 0.00098779
v 0.01849567 -0.01874431 0.00047869
v 0.01775903 -0.02111629 0.00098779
v 0.01713454 -0.02312716 0.00243760
v 0.01671728 -0.02447078 0.00460737
v 0.01657074 -0.02494260 0.00716680
v 0.01671728 -0.02447078 0.00972623
v 0.01713454 -0.02312716 0.01189600
v 0.01775903 -0.02111629 0.01334580
v 0.01849567 -0.01874431 0.01385490
v 0.01923231 -0.01637233 0.01334580
v 0.01985680 -0.01436146 0.01189600
v 0.02027406 -0.01301783 0.00972623
v 0.02042059 -0.01254602 0.00716680
v 0.02027406 -0.01301783 0.00460737
v 0.02574002 -0.01958614 0.00765381
v 0.02561346 -0.01999362 0.00774127
v 0.02550618 -0.02033907 0.00749221
v 0.02548102 -0.02042012 0.00705252
v 0.02555270 -0.02018930 0.00667978
v 0.02567925 -0.01978182 0.00659232
v 0.02578652 -0.01943637 0.00684139
v 0.02581170 -0.01935531 0.00728106
v 0.02632399 -0.01463538 0.00942591
v 0.02645331 -0.01421892 0.00716680
v 0.02595567 -0.01582134 0.01134109
v 0.02540446 -0.01759625 0.01262077
v 0.02475426 -0.01968992 0.01307014
v 0.02410407 -0.02178358 0.01262077
v 0.02355284 -0.02355850 0.01134109
v 0.02318454 -0.02474446 0.00942591
v 0.02305521 -0.02516091 0.00716680
v 0.02318454 -0.02474446 0.00490769
v 0.02355284 -0.02355850 0.00299250
v 0.02410407 -0.02178358 0.00171282
v 0.02475427 -0.01968992 0.00126345
v 0.02540446 -0.01759625 0.00171282
v 0.02595567 -0.01582134 0.00299250
v 0.02632399 -0.01463537 0.00490769
v 0.02447292 -0.01627633 0.00862464
v 0.02455638 -0.01600757 0.00716680
v 0.02423525 -0.01704165 0.00986054
v 0.02387953 -0.01818704 0.01068635
v 0.02345995 -0.01953812 0.01097633
v 0.02304036 -0.02088919 0.01068635
v 0.02268465 -0.02203458 0.00986054
v 0.02244698 -0.02279990 0.00862464
v 0.02236351 -0.02306865 0.00716680
v 0.02244698 -0.02279990 0.00570895
v 0.02268465 -0.02203458 0.00447305
v 0.02304036 -0.02088919 0.00364725
v 0.02345995 -0.01953812 0.00335726
v 0.02387953 -0.01818704 0.00364725
v 0.02423524 -0.01704165 0.00447305
v 0.02447292 -0.01627633 0.00570895
v 0.02273069 -0.01644118 0.00777620
v 0.02234839 -0.01767216 0.00976407
v 0.02167352 -0.01984528 0.01023049
v 0.02110139 -0.02168757 0.00890224
v 0.02096714 -0.02211983 0.00655739
v 0.02134942 -0.02088885 0.00456952
v 0.02202431 -0.01871573 0.00410310
v 0.02259644 -0.01687345 0.00543135
v 0.02360334 -0.01829851 0.00910916
v 0.02388923 -0.01737793 0.00762253
v 0.02309863 -0.01992368 0.00945797
v 0.02267077 -0.02130142 0.00846465
v 0.02257037 -0.02162469 0.00671105
v 0.02285626 -0.02070411 0.00522443
v 0.02336097 -0.01907894 0.00487562
v 0.02378884 -0.01770120 0.00586895
v 0.02402477 -0.01888619 0.00830871
v 0.02419284 -0.01834497 0.00743473
v 0.02372806 -0.01984162 0.00851378
v 0.02347651 -0.02065160 0.00792980
v 0.02341749 -0.02084165 0.00689886
v 0.02358557 -0.02030045 0.00602487
v 0.02388228 -0.01934500 0.00581980
v 0.02413383 -0.01853502 0.00640379
v 0.01311476 -0.01183292 0.01380931
v 0.01257092 -0.02679347 0.01557451
v 0.01267249 -0.02876661 0.01301958
v 0.01263695 -0.01046573 0.00926676
v 0.01275390 -0.02363598 0.01791680
v 0.01303612 -0.01372081 0.01630862
v 0.01283103 -0.01642373 0.01876825
v 0.01264257 -0.01932868 0.01924659
v 0.01282238 -0.02125032 0.01876685
v 0.02008847 0.05548563 0.01130566
v 0.02008847 0.05708017 0.01130566
v 0.02008847 0.05708017 0.01355725
v 0.02008847 0.05548563 0.01355725
v -0.00010847 0.05548563 0.01130566
v -0.00010847 0.05708017 0.01130566
v -0.00010847 0.05708017 0.01355725
v -0.00010847 0.05548563 0.01355725
v 0.01980317 0.05880109 0.01272013
v 0.01938262 0.05867927 0.01347662
v 0.01947101 0.05814043 0.01344815
v 0.01992819 0.05827285 0.01262578
v 0.01836730 0.05862882 0.01378998
v 0.01836730 0.05808557 0.01378878
v 0.01735198 0.05867927 0.01347662
v 0.01726357 0.05814043 0.01344815
v 0.01693144 0.05880109 0.01272013
v 0.01680641 0.05827285 0.01262578
v 0.01735198 0.05892290 0.01196364
v 0.01726357 0.05840527 0.01180341
v 0.01836730 0.05897336 0.01165029
v 0.01836730 0.05846012 0.01146277
v 0.01938262 0.05892290 0.01196364
v 0.01947101 0.05840527 0.01180341
v 0.01911380 0.05710575 0.01313287
v 0.01948232 0.05710575 0.01246052
v 0.01822410 0.05710575 0.01341138
v 0.01733442 0.05710575 0.01313287
v 0.01696589 0.05710575 0.01246052
v 0.01733442 0.05710575 0.01178815
v 0.01822410 0.05710575 0.01150965
v 0.01911380 0.05710575 0.01178815
v 0.01230431 -0.02993958 0.01054355
v 0.01938083 -0.03237918 0.01350419
v 0.01938083 -0.03237918 0.01054355
v -0.00010847 -0.02993958 0.01054355
v -0.00010847 -0.03237918 0.01054355
v -0.00010847 -0.01061923 0.00923236
v -0.00010847 -0.03237918 0.01350419
v -0.00010847 -0.02993958 0.01350419
v -0.00010847 -0.00625120 0.02600031
v -0.00010847 -0.00478901 0.02600031
v 0.00818594 0.05708991 0.01141512
v 0.00818594 0.05962589 0.01169260
v 0.00933076 0.06052645 0.01179114
v 0.01372026 0.05708991 0.01141512
v 0.01245847 0.06052645 0.01179114
v 0.01372026 0.05962589 0.01169260
v 0.01372026 0.05708991 0.01331500
v 0.01372026 0.05962589 0.01359247
v 0.01245848 0.06052645 0.01369102
v 0.00933076 0.06052645 0.01369102
v 0.00818594 0.05962589 0.01359247
v 0.00818594 0.05708991 0.01331500
v 0.01071149 -0.02940070 0.00874153
v 0.01071149 -0.02940070 0.00911472
v 0.01071149 -0.02463385 0.00719786
v 0.01071149 -0.02463385 0.00643575
v 0.01183082 -0.02940070 0.00874153
v 0.01183081 -0.02463385 0.00643575
v 0.01183082 -0.02463385 0.00719786
v 0.01183081 -0.02940070 0.00911472
v 0.01071149 -0.01924780 0.00536173
v 0.01071149 -0.01924780 0.00612432
v 0.01183081 -0.01924780 0.00612432
v 0.01183082 -0.01924780 0.00536173
v -0.00010847 0.04491630 0.01431411
v -0.00010847 0.02824637 0.00977798
v -0.00010847 0.04400338 0.01429883
v -0.00010847 0.01120129 0.00832692
v -0.00010847 0.02721024 0.00832692
v -0.00010847 -0.00400674 0.00901349
v -0.00010847 -0.00625120 0.00911482
v -0.00010847 -0.00911821 0.00946573
v -0.00010847 -0.00623913 0.00946573
v 0.01404761 0.04403110 0.01053401
v 0.01404761 0.04403110 0.01471374
v 0.01404761 0.02691529 0.00973519
v 0.01404761 0.02691529 0.00854655
v -0.00010847 0.04403110 0.01053401
v -0.00010847 0.02691529 0.00854655
v -0.00010847 0.05577163 0.01053401
v -0.00010847 0.05713403 0.01471374
v 0.01404761 0.05713403 0.01471374
v 0.01404761 0.05577163 0.01053401
v -0.00010847 -0.01769106 0.01038007
v 0.01508012 -0.01769106 0.01038007
v 0.01508012 -0.01700711 0.00864102
v -0.00010847 -0.01700711 0.00864102
v -0.00010847 -0.01934229 0.01110040
v 0.01508012 -0.01934229 0.01110040
v -0.00010847 -0.02099351 0.01038007
v 0.01508012 -0.02099351 0.01038007
v -0.00010847 -0.02167746 0.00864102
v 0.01508012 -0.02167746 0.00864102
v -0.00010848 -0.02099351 0.00690196
v 0.01508012 -0.02099351 0.00690196
v -0.00010848 -0.01934229 0.00618163
v 0.01508012 -0.01934229 0.00618163
v -0.00010848 -0.01769106 0.00690196
v 0.01508012 -0.01769106 0.00690196
v 0.01937352 -0.01674227 0.01145230
v 0.01972233 -0.01566532 0.00864102
v 0.01853146 -0.01934229 0.01261677
v 0.01768939 -0.02194230 0.01145230
v 0.01734059 -0.02301927 0.00864102
v 0.01768939 -0.02194230 0.00582973
v 0.01853146 -0.01934229 0.00466527
v 0.01937352 -0.01674227 0.00582973
v -0.00010847 0.03844516 0.00966049
v 0.01508012 0.03844516 0.00966049
v 0.01508012 0.03912913 0.00792144
v -0.00010847 0.03912913 0.00792144
v -0.00010847 0.03679395 0.01038082
v 0.01508012 0.03679395 0.01038082
v -0.00010847 0.03514273 0.00966049
v 0.01508012 0.03514273 0.00966049
v -0.00010847 0.03445877 0.00792144
v 0.01508012 0.03445877 0.00792144
v -0.00010848 0.03514273 0.00618238
v 0.01508012 0.03514273 0.00618238
v -0.00010848 0.03679395 0.00546205
v 0.01508012 0.03679395 0.00546205
v -0.00010848 0.03844516 0.00618238
v 0.01508012 0.03844516 0.00618238
v 0.01853146 0.03946325 0.01073272
v 0.01853146 0.04056891 0.00792144
v 0.01853146 0.03679395 0.01189719
v 0.01853146 0.03412465 0.01073272
v 0.01853146 0.03301899 0.00792144
v 0.01853146 0.03412465 0.00511015
v 0.01853146 0.03679395 0.00394568
v 0.01853146 0.03946325 0.00511015
v 0.01128163 -0.02951703 0.00880689
v 0.01128164 -0.02942255 0.01207851
v 0.01128164 -0.02784292 0.01207851
v 0.01128163 -0.02852661 0.00880689
v 0.01273684 -0.02951703 0.00880689
v 0.01273684 -0.02852661 0.00880689
v 0.01273684 -0.02784292 0.01207852
v 0.01273684 -0.02942255 0.01207852
v 0.02484836 -0.01176368 0.01628804
v 0.02484836 -0.01035731 0.01402798
v 0.02029328 -0.01035731 0.01402798
v 0.02029328 -0.01176368 0.01628805
v 0.02484836 -0.01388174 0.01876440
v 0.02029328 -0.01388174 0.01876440
v 0.02484836 -0.01667660 0.01987979
v 0.02029328 -0.01667660 0.01987979
v 0.02484836 -0.01992565 0.02021726
v 0.02029328 -0.01992565 0.02021726
v 0.02484836 -0.02294822 0.01957170
v 0.02029328 -0.02294822 0.01957170
v 0.02484836 -0.02528707 0.01831175
v 0.02029328 -0.02528707 0.01831175
v 0.02484836 -0.02733131 0.01603564
v 0.02029328 -0.02733131 0.01603564
v 0.02484836 -0.02876080 0.01305811
v 0.02029328 -0.02876080 0.01305811
v 0.02484836 -0.00927177 0.00969832
v 0.02029328 -0.00927177 0.00969832
v 0.02029328 -0.01061895 0.01390520
v 0.02484836 -0.01061895 0.01390520
v 0.02484836 -0.01199054 0.01610387
v 0.02029328 -0.01199054 0.01610387
v 0.02484836 -0.01404345 0.01851539
v 0.02029328 -0.01404345 0.01851539
v 0.02484836 -0.01674197 0.01958608
v 0.02029328 -0.01674197 0.01958608
v 0.02484836 -0.01991108 0.01991597
v 0.02029328 -0.01991108 0.01991597
v 0.02484836 -0.02285366 0.01928693
v 0.02029328 -0.02285366 0.01928693
v 0.02484836 -0.02511531 0.01807032
v 0.02029328 -0.02511531 0.01807032
v 0.02484836 -0.02709699 0.01586211
v 0.02029328 -0.02709699 0.01586212
v 0.02484836 -0.02850518 0.01292198
v 0.02029328 -0.02850518 0.01292198
v 0.02029328 -0.00954872 0.00962130
v 0.02484836 -0.00954872 0.00962130
v 0.02484836 0.04352631 0.01715294
v 0.02484836 0.04506567 0.01440124
v 0.02029328 0.04506567 0.01440124
v 0.02029328 0.04352631 0.01715294
v 0.02484836 0.04114208 0.01924038
v 0.02029328 0.04114208 0.01924037
v 0.02484836 0.03754160 0.02038939
v 0.02029328 0.03754160 0.02038939
v 0.02484836 0.03457473 0.02026759
v 0.02029328 0.03457473 0.02026759
v 0.02484836 0.03155486 0.01902494
v 0.02029328 0.03155486 0.01902494
v 0.02484836 0.02912425 0.01696161
v 0.02029328 0.02912425 0.01696161
v 0.02484836 0.02732187 0.01340951
v 0.02029328 0.02732187 0.01340951
v 0.02484836 0.02682827 0.00874491
v 0.02029328 0.02682827 0.00874491
v 0.02029328 0.04481887 0.01424810
v 0.02484836 0.04481887 0.01424810
v 0.02484836 0.04330812 0.01695747
v 0.02029328 0.04330812 0.01695747
v 0.02484836 0.04100630 0.01897475
v 0.02029328 0.04100630 0.01897475
v 0.02484836 0.03750514 0.02009016
v 0.02029328 0.03750514 0.02009016
v 0.02484836 0.03463325 0.01997227
v 0.02029328 0.03463325 0.01997227
v 0.02484836 0.03169854 0.01876396
v 0.02029328 0.03169854 0.01876396
v 0.02484836 0.02934487 0.01676921
v 0.02029328 0.02934487 0.01676921
v 0.02484836 0.02759545 0.01332010
v 0.02029328 0.02759545 0.01332010
v 0.02484836 0.02711294 0.00871150
v 0.02029328 0.02711294 0.00871150
v 0.02039649 -0.03160615 0.01698028
v 0.01550675 -0.03160576 0.01564860
v 0.01561178 -0.03160615 0.01519429
v 0.02099765 -0.03160615 0.01666109
v 0.02026028 -0.03213303 0.02087208
v 0.02085223 -0.03220820 0.02106027
v 0.01929360 -0.03201025 0.02161398
v 0.01953879 -0.03204139 0.02206829
v 0.01388662 -0.03132393 0.02161398
v 0.01388669 -0.03132357 0.02206829
v -0.00010847 -0.03233551 0.02206829
v -0.00010847 -0.03233569 0.02161398
v 0.01550075 -0.03103290 0.01564728
v 0.01560575 -0.03103327 0.01519300
v -0.00010847 -0.03120733 0.01519166
v -0.00010847 -0.03120536 0.01564589
v 0.02039650 -0.03103326 0.01698026
v 0.02099765 -0.03103326 0.01666109
v 0.02039941 -0.03156890 0.02087208
v 0.02099137 -0.03164408 0.02106027
v 0.01943271 -0.03144613 0.02161400
v 0.01967790 -0.03147726 0.02206828
v 0.01401904 -0.03075899 0.02161348
v 0.01401914 -0.03075862 0.02206777
v -0.00010847 -0.03178027 0.01519429
v -0.00010847 -0.03176272 0.02161372
v 0.00893445 -0.03108486 0.01557929
v 0.00907309 -0.03029650 0.02177715
v 0.00956417 -0.03035887 0.02177715
v 0.00943317 -0.03108486 0.01557929
v 0.00893445 -0.03152403 0.01557929
v 0.00943317 -0.03152403 0.01557929
v 0.00945749 -0.03079131 0.02177715
v 0.00896641 -0.03072894 0.02177715
v 0.01354547 -0.03108486 0.01557929
v 0.01361352 -0.03087313 0.02177715
v 0.01410460 -0.03093550 0.02177715
v 0.01404417 -0.03108486 0.01557929
v 0.01354547 -0.03152403 0.01557929
v 0.01404417 -0.03152403 0.01557929
v 0.01399794 -0.03136795 0.02177715
v 0.01350686 -0.03130557 0.02177715
v 0.02053927 -0.02968866 0.01484594
v 0.02046728 -0.03077228 0.01575751
v 0.02096599 -0.03077228 0.01575751
v 0.02103798 -0.02968866 0.01484594
v 0.02053927 -0.03000840 0.01432618
v 0.02103798 -0.03000840 0.01432618
v 0.02096599 -0.03115984 0.01553291
v 0.02046728 -0.03115984 0.01553291
v 0.02041250 -0.03112171 0.01666906
v 0.02041250 -0.03156088 0.01666906
v 0.02091120 -0.03112171 0.01666906
v 0.02091120 -0.03156088 0.01666906
v 0.01858125 0.01350620 0.01411915
v 0.02090028 -0.00418162 0.01411915
v 0.02090028 -0.00418162 0.02309125
v 0.01858125 0.01350620 0.02309125
v 0.01858125 0.01350620 0.03551144
v 0.02090028 -0.00418162 0.03551144
v -0.00010847 -0.00454686 0.03551144
v 0.00480382 -0.00035477 0.01386707
v 0.01916254 -0.00035477 0.01386707
v 0.01916254 -0.00035477 0.01794029
v 0.00480382 -0.00035477 0.01794029
v 0.01916254 0.01371979 0.01386707
v 0.01916254 0.00801777 0.01754664
v 0.01916254 0.01371979 0.02498802
v 0.01916254 0.00985228 0.02498802
v 0.00480382 0.01371979 0.02498802
v 0.00480382 0.00985228 0.02498802
v 0.00480382 0.01371979 0.01386707
v 0.00480382 0.00801777 0.01754664
v -0.00010847 -0.03177830 0.01564860
v -0.00010847 -0.03176254 0.02206802
v -0.00010847 -0.00454686 0.01411915
v -0.00010847 0.01350620 0.01411915
v -0.00010847 0.01350620 0.02309125
v -0.00010847 0.01350620 0.03551144
v -0.00010847 -0.00454686 0.02309125
v -0.02125351 -0.00625120 0.02706310
v -0.02125351 -0.00625120 0.03310687
v -0.01956549 -0.00625120 0.02600031
v -0.02076776 -0.00376979 0.03339035
v -0.02076776 -0.00376979 0.02426399
v -0.02076776 0.00968655 0.02442096
v -0.02076776 0.00968655 0.03368245
v -0.01956549 -0.00478901 0.02600031
v -0.02125351 -0.00478901 0.02706310
v -0.02125351 -0.00478901 0.03310686
v -0.01956548 -0.00478901 0.03438254
v -0.02253621 -0.00692798 0.00913672
v -0.02253621 -0.00692798 0.01871969
v -0.02253621 -0.00688730 0.02486507
v -0.01988681 -0.00692798 0.00913553
v -0.01988681 -0.00692798 0.01871969
v -0.01988681 -0.00690055 0.02286290
v -0.01916104 0.04445197 0.00716680
v -0.02327787 0.04442743 0.00716680
v -0.02327108 0.04384056 0.01027429
v -0.01915426 0.04386509 0.01027429
v -0.02325173 0.04216926 0.01290869
v -0.01913491 0.04219380 0.01290869
v -0.02322276 0.03966800 0.01466894
v -0.01910594 0.03969254 0.01466894
v -0.02318860 0.03671756 0.01528706
v -0.01907178 0.03674210 0.01528706
v -0.02315445 0.03376711 0.01466894
v -0.01903763 0.03379166 0.01466894
v -0.02312548 0.03126586 0.01290869
v -0.01900866 0.03129039 0.01290869
v -0.02310613 0.02959457 0.01027429
v -0.01898931 0.02961911 0.01027429
v -0.02309935 0.02900769 0.00716681
v -0.01898252 0.02903223 0.00716680
v -0.02310613 0.02959457 0.00405932
v -0.01898931 0.02961911 0.00405932
v -0.02312550 0.03126585 0.00142492
v -0.01900866 0.03129039 0.00142492
v -0.02315445 0.03376711 0.00002218
v -0.01903763 0.03379166 0.00002218
v -0.02318861 0.03671756 0.00001830
v -0.01907179 0.03674210 0.00001830
v -0.02322276 0.03966800 0.00002218
v -0.01910594 0.03969254 0.00002218
v -0.02325173 0.04216926 0.00142492
v -0.01913491 0.04219381 0.00142492
v -0.02327108 0.04384056 0.00405932
v -0.01915426 0.04386509 0.00405932
v -0.01796258 0.04309925 0.00716680
v -0.01795698 0.04261588 0.00972623
v -0.01794104 0.04123935 0.01189601
v -0.01791718 0.03917923 0.01334580
v -0.01788905 0.03674915 0.01385491
v -0.01786092 0.03431907 0.01334580
v -0.01783706 0.03225895 0.01189601
v -0.01782112 0.03088242 0.00972623
v -0.01781553 0.03039905 0.00716680
v -0.01782114 0.03088242 0.00460737
v -0.01783706 0.03225895 0.00243760
v -0.01786092 0.03431907 0.00098779
v -0.01788906 0.03674915 0.00047869
v -0.01791718 0.03917923 0.00098779
v -0.01794104 0.04123935 0.00243760
v -0.01795698 0.04261588 0.00460738
v -0.02628362 0.03716788 0.00684140
v -0.02627953 0.03681397 0.00659233
v -0.02627470 0.03639651 0.00667979
v -0.02627196 0.03616004 0.00705253
v -0.02627291 0.03624307 0.00749221
v -0.02627701 0.03659698 0.00774128
v -0.02628185 0.03701445 0.00765382
v -0.02628459 0.03725092 0.00728107
v -0.02421633 0.04210798 0.00716680
v -0.02421158 0.04169722 0.00934174
v -0.02419803 0.04052747 0.01118557
v -0.02417775 0.03877682 0.01241757
v -0.02415385 0.03671180 0.01285020
v -0.02412994 0.03464678 0.01241757
v -0.02410967 0.03289614 0.01118557
v -0.02409613 0.03172639 0.00934174
v -0.02409137 0.03131564 0.00716680
v -0.02409613 0.03172639 0.00499186
v -0.02410967 0.03289614 0.00314803
v -0.02412995 0.03464678 0.00191603
v -0.02428654 0.03671180 0.00148341
v -0.02440523 0.03877683 0.00191604
v -0.02419803 0.04052747 0.00314803
v -0.02421158 0.04169722 0.00499187
v -0.02301680 0.04033584 0.00716680
v -0.02301362 0.04006052 0.00862465
v -0.02300454 0.03927644 0.00986055
v -0.02299096 0.03810300 0.01068635
v -0.02297492 0.03671883 0.01097634
v -0.02295890 0.03533467 0.01068635
v -0.02294532 0.03416122 0.00986055
v -0.02293624 0.03337715 0.00862465
v -0.02293306 0.03310183 0.00716680
v -0.02293624 0.03337715 0.00570895
v -0.02294532 0.03416122 0.00447306
v -0.02295890 0.03533467 0.00364725
v -0.02297492 0.03671883 0.00335727
v -0.02299096 0.03810300 0.00364725
v -0.02300454 0.03927644 0.00447306
v -0.02301362 0.04006052 0.00570896
v -0.02135811 0.03963753 0.00777620
v -0.02134350 0.03837641 0.00976407
v -0.02131773 0.03615006 0.01023049
v -0.02129588 0.03426265 0.00890225
v -0.02129075 0.03381981 0.00655739
v -0.02130536 0.03508093 0.00456952
v -0.02133114 0.03730728 0.00410310
v -0.02135299 0.03919469 0.00543136
v -0.02276433 0.03889562 0.00762254
v -0.02275340 0.03795249 0.00910917
v -0.02273413 0.03628752 0.00945798
v -0.02271778 0.03487603 0.00846465
v -0.02271396 0.03454485 0.00671106
v -0.02272487 0.03548798 0.00522444
v -0.02274415 0.03715295 0.00487562
v -0.02276049 0.03856444 0.00586896
v -0.02334341 0.03810270 0.00745717
v -0.02333700 0.03750182 0.00840432
v -0.02332566 0.03644104 0.00862655
v -0.02331605 0.03554175 0.00799369
v -0.02331379 0.03533075 0.00687644
v -0.02332021 0.03593163 0.00592929
v -0.02333155 0.03699241 0.00570705
v -0.02334116 0.03789170 0.00633992
v -0.01722856 -0.01245051 0.00716680
v -0.02121685 -0.01171770 0.00716680
v -0.02141973 -0.01228625 0.01027429
v -0.01743145 -0.01301907 0.01027429
v -0.02199752 -0.01390536 0.01290869
v -0.01800924 -0.01463817 0.01290869
v -0.02286224 -0.01632853 0.01466894
v -0.01887396 -0.01706135 0.01466894
v -0.02388223 -0.01918686 0.01528706
v -0.01989395 -0.01991966 0.01528706
v -0.02490224 -0.02204519 0.01466894
v -0.02091394 -0.02277800 0.01466894
v -0.02576695 -0.02446836 0.01290869
v -0.02177866 -0.02520116 0.01290869
v -0.02634473 -0.02608746 0.01027429
v -0.02235645 -0.02682027 0.01027429
v -0.02654762 -0.02665602 0.00716681
v -0.02255934 -0.02738883 0.00716680
v -0.02634473 -0.02608746 0.00405932
v -0.02235645 -0.02682027 0.00405932
v -0.02576695 -0.02446836 0.00142492
v -0.02177867 -0.02520116 0.00142492
v -0.02490224 -0.02204519 0.00000389
v -0.02091395 -0.02277800 0.00000388
v -0.02388224 -0.01918686 0.00000001
v -0.01989396 -0.01991966 0.00000001
v -0.02286224 -0.01632853 0.00000389
v -0.01887396 -0.01706134 0.00000388
v -0.02199752 -0.01390536 0.00142492
v -0.01800924 -0.01463817 0.00142492
v -0.02141974 -0.01228625 0.00405932
v -0.01743145 -0.01301906 0.00405932
v -0.01655285 -0.01397835 0.00716680
v -0.01671995 -0.01444662 0.00972623
v -0.01719583 -0.01578018 0.01189601
v -0.01790804 -0.01777598 0.01334580
v -0.01874814 -0.02013019 0.01385491
v -0.01958825 -0.02248441 0.01334580
v -0.02030045 -0.02448020 0.01189601
v -0.02077634 -0.02581375 0.00972623
v -0.02094344 -0.02628204 0.00716680
v -0.02077634 -0.02581375 0.00460737
v -0.02030045 -0.02448020 0.00243760
v -0.01958826 -0.02248441 0.00098779
v -0.01874814 -0.02013019 0.00047869
v -0.01790804 -0.01777598 0.00098779
v -0.01719583 -0.01578018 0.00243760
v -0.01671996 -0.01444662 0.00460738
v -0.02568539 -0.01837821 0.00684140
v -0.02580775 -0.01872108 0.00659233
v -0.02595207 -0.01912549 0.00667979
v -0.02603381 -0.01935459 0.00705253
v -0.02600511 -0.01927415 0.00749221
v -0.02588276 -0.01893129 0.00774128
v -0.02573845 -0.01852686 0.00765382
v -0.02565669 -0.01829777 0.00728107
v -0.02298733 -0.01350968 0.00716681
v -0.02313482 -0.01392302 0.00942592
v -0.02355486 -0.01510009 0.01134109
v -0.02418350 -0.01686171 0.01262078
v -0.02492503 -0.01893967 0.01307015
v -0.02566655 -0.02101766 0.01262078
v -0.02629520 -0.02277927 0.01134109
v -0.02671525 -0.02395635 0.00942592
v -0.02686274 -0.02436969 0.00716681
v -0.02671525 -0.02395635 0.00490769
v -0.02629521 -0.02277927 0.00299251
v -0.02566657 -0.02101766 0.00171283
v -0.02492503 -0.01893967 0.00126346
v -0.02418350 -0.01686171 0.00171283
v -0.02355487 -0.01510009 0.00299251
v -0.02313482 -0.01392301 0.00490770
v -0.02242479 -0.01572081 0.00716680
v -0.02251997 -0.01598755 0.00862465
v -0.02279104 -0.01674714 0.00986055
v -0.02319671 -0.01788394 0.01068636
v -0.02367522 -0.01922490 0.01097634
v -0.02415375 -0.02056586 0.01068636
v -0.02455942 -0.02170265 0.00986055
v -0.02483049 -0.02246224 0.00862465
v -0.02492567 -0.02272897 0.00716681
v -0.02483049 -0.02246224 0.00570895
v -0.02455942 -0.02170265 0.00447306
v -0.02415375 -0.02056586 0.00364725
v -0.02367524 -0.01922490 0.00335727
v -0.02319671 -0.01788394 0.00364725
v -0.02279104 -0.01674714 0.00447306
v -0.02251997 -0.01598755 0.00570896
v -0.02107064 -0.01670064 0.00777620
v -0.02150662 -0.01792240 0.00976407
v -0.02227630 -0.02007924 0.01023049
v -0.02292879 -0.02190772 0.00890225
v -0.02308189 -0.02233673 0.00655739
v -0.02264590 -0.02111498 0.00456952
v -0.02187624 -0.01895815 0.00410310
v -0.02122374 -0.01712967 0.00543136
v -0.02269475 -0.01715940 0.00762254
v -0.02302080 -0.01807308 0.00910917
v -0.02359640 -0.01968606 0.00945798
v -0.02408436 -0.02105349 0.00846465
v -0.02419886 -0.02137434 0.00671106
v -0.02387281 -0.02046065 0.00522444
v -0.02329721 -0.01884767 0.00487562
v -0.02280925 -0.01748024 0.00586896
v -0.02357573 -0.01792295 0.00743473
v -0.02376742 -0.01846011 0.00830872
v -0.02410581 -0.01940840 0.00851379
v -0.02439268 -0.02021230 0.00792981
v -0.02446001 -0.02040092 0.00689887
v -0.02426831 -0.01986377 0.00602488
v -0.02392993 -0.01891549 0.00581981
v -0.02364304 -0.01811158 0.00640380
v -0.01333170 -0.01183292 0.01380932
v -0.01285389 -0.01046573 0.00926677
v -0.01288944 -0.02876661 0.01301959
v -0.01278785 -0.02679347 0.01557452
v -0.01304797 -0.01642373 0.01876826
v -0.01325306 -0.01372081 0.01630863
v -0.01297083 -0.02363598 0.01791680
v -0.01285952 -0.01932868 0.01924660
v -0.01303933 -0.02125032 0.01876685
v -0.02030542 0.05548563 0.01130567
v -0.02030542 0.05548563 0.01355725
v -0.02030542 0.05708017 0.01355725
v -0.02030542 0.05708017 0.01130567
v -0.02002011 0.05880109 0.01272013
v -0.02014514 0.05827285 0.01262579
v -0.01968796 0.05814043 0.01344815
v -0.01959955 0.05867927 0.01347663
v -0.01858425 0.05808557 0.01378879
v -0.01858425 0.05862882 0.01378998
v -0.01748052 0.05814043 0.01344815
v -0.01756893 0.05867927 0.01347663
v -0.01702335 0.05827285 0.01262579
v -0.01714837 0.05880109 0.01272013
v -0.01748052 0.05840527 0.01180341
v -0.01756893 0.05892290 0.01196365
v -0.01858425 0.05846012 0.01146278
v -0.01858425 0.05897336 0.01165029
v -0.01968796 0.05840527 0.01180341
v -0.01959955 0.05892290 0.01196365
v -0.01969927 0.05710575 0.01246052
v -0.01933074 0.05710575 0.01313288
v -0.01844105 0.05710575 0.01341138
v -0.01755137 0.05710575 0.01313288
v -0.01718284 0.05710575 0.01246052
v -0.01755137 0.05710575 0.01178816
v -0.01844105 0.05710575 0.01150965
v -0.01933074 0.05710575 0.01178816
v -0.01252126 -0.02993958 0.01054355
v -0.01959778 -0.03237918 0.01054355
v -0.01959778 -0.03237918 0.01350419
v -0.01393721 0.05962589 0.01169260
v -0.01267542 0.06052645 0.01179114
v -0.00954771 0.06052645 0.01179114
v -0.01393721 0.05708991 0.01141513
v -0.00840289 0.05962589 0.01169260
v -0.00840289 0.05708991 0.01141512
v -0.01393721 0.05708991 0.01331500
v -0.00840288 0.05708991 0.01331500
v -0.00840288 0.05962589 0.01359248
v -0.00954771 0.06052645 0.01369102
v -0.01267542 0.06052645 0.01369102
v -0.01393721 0.05962589 0.01359248
v -0.01092844 -0.02940070 0.00874153
v -0.01092844 -0.02463385 0.00643575
v -0.01092844 -0.02463385 0.00719786
v -0.01092844 -0.02940070 0.00911472
v -0.01204776 -0.02940070 0.00874153
v -0.01204776 -0.02940070 0.00911472
v -0.01204776 -0.02463385 0.00719786
v -0.01204776 -0.02463385 0.00643575
v -0.01092844 -0.01924780 0.00536174
v -0.01204777 -0.01924780 0.00536174
v -0.01204776 -0.01924780 0.00612433
v -0.01092844 -0.01924780 0.00612433
v -0.01426456 0.04403110 0.01053402
v -0.01426456 0.02691529 0.00854656
v -0.01426456 0.02691529 0.00973519
v -0.01426456 0.04403110 0.01471374
v -0.01426456 0.05577163 0.01053402
v -0.01426456 0.05713403 0.01471374
v -0.01529707 -0.01700711 0.00864102
v -0.01529707 -0.01769106 0.01038007
v -0.01529707 -0.01934229 0.01110041
v -0.01529707 -0.02099351 0.01038007
v -0.01529707 -0.02167746 0.00864102
v -0.01529707 -0.02099351 0.00690197
v -0.01529707 -0.01934229 0.00618163
v -0.01529707 -0.01769106 0.00690197
v -0.01785068 -0.01675188 0.01145230
v -0.01747883 -0.01567889 0.00864102
v -0.01874841 -0.01934229 0.01261678
v -0.01964612 -0.02193269 0.01145230
v -0.02001798 -0.02300567 0.00864102
v -0.01964614 -0.02193269 0.00582973
v -0.01874841 -0.01934229 0.00466527
v -0.01785068 -0.01675188 0.00582973
v -0.01529707 0.03912913 0.00792144
v -0.01529707 0.03844516 0.00966049
v -0.01529707 0.03679395 0.01038083
v -0.01529707 0.03514273 0.00966049
v -0.01529707 0.03445877 0.00792144
v -0.01529707 0.03514273 0.00618239
v -0.01529707 0.03679395 0.00546205
v -0.01529707 0.03844516 0.00618239
v -0.01874841 0.03946325 0.01073272
v -0.01874841 0.04056891 0.00792144
v -0.01874841 0.03679395 0.01189720
v -0.01874841 0.03412465 0.01073272
v -0.01874841 0.03301899 0.00792144
v -0.01874841 0.03412465 0.00511016
v -0.01874841 0.03679395 0.00394568
v -0.01874841 0.03946325 0.00511016
v -0.01149858 -0.02951703 0.00880689
v -0.01149858 -0.02852661 0.00880689
v -0.01149858 -0.02784292 0.01207852
v -0.01149858 -0.02942255 0.01207852
v -0.01295378 -0.02951703 0.00880689
v -0.01295378 -0.02942255 0.01207852
v -0.01295378 -0.02784292 0.01207852
v -0.01295378 -0.02852661 0.00880689
v -0.02506530 -0.01176368 0.01628805
v -0.02051022 -0.01176368 0.01628805
v -0.02051022 -0.01035731 0.01402799
v -0.02506530 -0.01035731 0.01402799
v -0.02506530 -0.01388174 0.01876440
v -0.02051021 -0.01388174 0.01876440
v -0.02506530 -0.01667660 0.01987980
v -0.02051021 -0.01667660 0.01987980
v -0.02506530 -0.01992565 0.02021727
v -0.02051021 -0.01992565 0.02021727
v -0.02506530 -0.02294822 0.01957171
v -0.02051021 -0.02294822 0.01957171
v -0.02506530 -0.02528707 0.01831176
v -0.02051021 -0.02528707 0.01831176
v -0.02506530 -0.02733131 0.01603565
v -0.02051022 -0.02733131 0.01603564
v -0.02506530 -0.02876080 0.01305811
v -0.02051022 -0.02876080 0.01305811
v -0.02051022 -0.00927177 0.00969832
v -0.02506530 -0.00927177 0.00969832
v -0.02051022 -0.01061894 0.01390521
v -0.02051022 -0.01199054 0.01610387
v -0.02506530 -0.01199054 0.01610387
v -0.02506530 -0.01061894 0.01390521
v -0.02051021 -0.01404345 0.01851540
v -0.02506530 -0.01404345 0.01851540
v -0.02051021 -0.01674197 0.01958609
v -0.02506530 -0.01674197 0.01958609
v -0.02051021 -0.01991108 0.01991598
v -0.02506530 -0.01991108 0.01991598
v -0.02051021 -0.02285366 0.01928694
v -0.02506530 -0.02285366 0.01928694
v -0.02051021 -0.02511531 0.01807033
v -0.02506530 -0.02511531 0.01807033
v -0.02051022 -0.02709699 0.01586212
v -0.02506530 -0.02709699 0.01586212
v -0.02051022 -0.02850518 0.01292198
v -0.02506530 -0.02850518 0.01292198
v -0.02051022 -0.00954872 0.00962130
v -0.02506530 -0.00954872 0.00962130
v -0.02506530 0.04352631 0.01715294
v -0.02051022 0.04352631 0.01715294
v -0.02051022 0.04506567 0.01440124
v -0.02506530 0.04506567 0.01440124
v -0.02506530 0.04114208 0.01924038
v -0.02051021 0.04114208 0.01924038
v -0.02506530 0.03754160 0.02038940
v -0.02051021 0.03754160 0.02038939
v -0.02506530 0.03457473 0.02026760
v -0.02051021 0.03457473 0.02026760
v -0.02506530 0.03155486 0.01902495
v -0.02051021 0.03155486 0.01902494
v -0.02506530 0.02912425 0.01696162
v -0.02051022 0.02912425 0.01696162
v -0.02506530 0.02732187 0.01340952
v -0.02051022 0.02732187 0.01340952
v -0.02506530 0.02682827 0.00874492
v -0.02051022 0.02682827 0.00874492
v -0.02051022 0.04481887 0.01424811
v -0.02051022 0.04330812 0.01695748
v -0.02506530 0.04330812 0.01695748
v -0.02506530 0.04481887 0.01424811
v -0.02051021 0.04100630 0.01897476
v -0.02506530 0.04100630 0.01897476
v -0.02051021 0.03750514 0.02009017
v -0.02506530 0.03750514 0.02009017
v -0.02051021 0.03463325 0.01997228
v -0.02506530 0.03463325 0.01997228
v -0.02051021 0.03169854 0.01876396
v -0.02506530 0.03169854 0.01876397
v -0.02051022 0.02934487 0.01676921
v -0.02506530 0.02934487 0.01676922
v -0.02051022 0.02759545 0.01332011
v -0.02506530 0.02759545 0.01332011
v -0.02051022 0.02711294 0.00871150
v -0.02506530 0.02711294 0.00871150
v -0.02061344 -0.03160615 0.01698028
v -0.02121460 -0.03160615 0.01666110
v -0.01582872 -0.03160615 0.01519430
v -0.01572369 -0.03160576 0.01564860
v -0.02061344 -0.03160615 0.02087209
v -0.02121460 -0.03160615 0.02106027
v -0.01963174 -0.03160615 0.02161399
v -0.01988074 -0.03160615 0.02206830
v -0.01414081 -0.03160651 0.02161398
v -0.01414080 -0.03160615 0.02206829
v -0.01571769 -0.03103290 0.01564728
v -0.01582270 -0.03103327 0.01519300
v -0.02121460 -0.03103326 0.01666110
v -0.02061345 -0.03103326 0.01698027
v -0.02121460 -0.03103326 0.02106027
v -0.02061344 -0.03103326 0.02087209
v -0.01988072 -0.03103326 0.02206828
v -0.01963170 -0.03103326 0.02161400
v -0.01413400 -0.03103328 0.02206778
v -0.01413400 -0.03103365 0.02161348
v -0.00915140 -0.03108486 0.01557929
v -0.00965012 -0.03108486 0.01557929
v -0.00965010 -0.03119676 0.02177715
v -0.00915140 -0.03119676 0.02177715
v -0.00915140 -0.03152403 0.01557929
v -0.00915140 -0.03163593 0.02177715
v -0.00965010 -0.03163593 0.02177715
v -0.00965012 -0.03152403 0.01557929
v -0.01376240 -0.03108486 0.01557929
v -0.01426112 -0.03108486 0.01557929
v -0.01426112 -0.03119676 0.02177715
v -0.01376240 -0.03119676 0.02177715
v -0.01376240 -0.03152403 0.01557929
v -0.01376240 -0.03163593 0.02177715
v -0.01426112 -0.03163593 0.02177715
v -0.01426112 -0.03152403 0.01557929
v -0.02075622 -0.02968866 0.01484595
v -0.02125493 -0.02968866 0.01484595
v -0.02118294 -0.03077228 0.01575752
v -0.02068422 -0.03077228 0.01575752
v -0.02075622 -0.03000840 0.01432618
v -0.02068422 -0.03115984 0.01553292
v -0.02118294 -0.03115984 0.01553292
v -0.02125493 -0.03000840 0.01432618
v -0.02062943 -0.03112171 0.01666907
v -0.02062943 -0.03156088 0.01666907
v -0.02112815 -0.03112171 0.01666907
v -0.02112815 -0.03156088 0.01666907
v -0.01879820 0.01350620 0.01411915
v -0.01879820 0.01350620 0.02309126
v -0.02111721 -0.00418162 0.02309126
v -0.02111721 -0.00418162 0.01411915
v -0.01879819 0.01350620 0.03551144
v -0.02111721 -0.00418162 0.03551144
v -0.00502076 -0.00035477 0.01386707
v -0.00502076 -0.00035477 0.01794029
v -0.01937947 -0.00035477 0.01794029
v -0.01937947 -0.00035477 0.01386707
v -0.01937947 0.00801777 0.01754665
v -0.01937947 0.01371979 0.01386707
v -0.01937947 0.00985228 0.02498802
v -0.01937947 0.01371979 0.02498802
v -0.00502076 0.00985228 0.02498802
v -0.00502076 0.01371979 0.02498802
v -0.00502076 0.00801777 0.01754664
v -0.00502076 0.01371979 0.01386707
f 1 2 3
f 3 4 1
f 5 4 3
f 3 6 5
f 7 8 9
f 7 9 10
f 11 12 13
f 11 13 14
f 15 16 17
f 17 18 15
f 19 20 21
f 21 22 19
f 23 24 25
f 23 25 26
f 27 23 26
f 28 29 30
f 30 31 28
f 32 33 18
f 18 17 32
f 22 34 31
f 19 22 31
f 30 19 31
f 27 26 22
f 22 21 27
f 17 35 34
f 32 17 34
f 26 32 34
f 22 26 34
f 17 36 35
f 20 37 38
f 38 21 20
f 27 39 40
f 40 23 27
f 41 42 43
f 43 42 23
f 23 40 43
f 21 38 39
f 39 27 21
f 44 45 46
f 46 47 44
f 48 49 50
f 50 51 48
f 52 53 54
f 54 55 52
f 56 57 49
f 49 48 56
f 58 59 53
f 53 52 58
f 60 61 45
f 45 44 60
f 49 62 63
f 63 50 49
f 57 64 62
f 62 49 57
f 65 66 67
f 67 68 65
f 69 70 63
f 63 62 69
f 64 71 69
f 69 62 64
f 72 71 64
f 64 73 72
f 74 57 56
f 56 75 74
f 73 64 57
f 57 74 73
f 76 77 78
f 78 79 76
f 77 80 81
f 81 78 77
f 81 80 82
f 82 83 81
f 84 85 46
f 46 45 84
f 86 87 88
f 88 89 86
f 79 78 87
f 87 90 79
f 84 45 61
f 61 91 84
f 67 92 93
f 93 68 67
f 75 94 95
f 95 85 75
f 51 96 97
f 97 48 51
f 48 97 98
f 98 56 48
f 56 98 94
f 94 75 56
f 46 59 58
f 58 47 46
f 54 53 89
f 53 99 86
f 95 100 101
f 101 59 95
f 94 98 102
f 102 103 94
f 97 77 76
f 97 96 80
f 80 77 97
f 104 82 80
f 80 96 104
f 53 59 101
f 101 99 53
f 99 101 100
f 100 90 99
f 79 103 102
f 102 76 79
f 102 98 97
f 97 76 102
f 74 75 85
f 85 84 74
f 87 78 81
f 81 88 87
f 86 99 90
f 90 87 86
f 73 74 84
f 105 73 84
f 106 105 84
f 92 72 73
f 73 105 107
f 92 73 107
f 59 46 85
f 85 95 59
f 95 94 103
f 103 100 95
f 103 79 90
f 90 100 103
f 25 108 109
f 109 110 25
f 33 32 111
f 111 109 33
f 32 26 112
f 112 111 32
f 26 25 110
f 110 112 26
f 113 114 115
f 115 25 113
f 91 106 84
f 92 107 93
f 109 108 33
f 108 116 18
f 18 33 108
f 18 116 117
f 117 15 18
f 118 119 120
f 120 121 118
f 122 123 124
f 124 125 122
f 126 127 128
f 128 129 126
f 130 131 132
f 132 133 130
f 123 134 135
f 135 124 123
f 136 137 128
f 128 127 136
f 138 139 132
f 132 131 138
f 134 119 118
f 118 135 134
f 121 120 137
f 137 136 121
f 140 141 139
f 139 138 140
f 121 141 140
f 140 118 121
f 118 140 138
f 138 135 118
f 126 133 132
f 132 127 126
f 124 131 130
f 130 125 124
f 127 132 139
f 139 136 127
f 136 139 141
f 141 121 136
f 135 138 131
f 131 124 135
f 142 143 144
f 144 145 142
f 143 146 147
f 147 144 143
f 148 149 150
f 150 151 148
f 149 152 153
f 153 150 149
f 152 154 155
f 155 153 152
f 154 156 157
f 157 155 154
f 156 158 159
f 159 157 156
f 158 142 145
f 145 159 158
f 160 161 162
f 161 163 162
f 163 164 162
f 164 165 162
f 165 166 162
f 166 167 162
f 167 168 162
f 168 169 162
f 169 170 162
f 170 160 162
f 160 145 144
f 144 161 160
f 161 144 147
f 147 163 161
f 163 147 171
f 171 164 163
f 164 171 151
f 151 165 164
f 165 151 150
f 150 166 165
f 166 150 153
f 153 167 166
f 167 153 155
f 155 168 167
f 168 155 157
f 157 169 168
f 169 157 159
f 159 170 169
f 170 159 145
f 145 160 170
f 36 172 173
f 173 174 36
f 28 31 175
f 175 176 28
f 31 34 177
f 177 175 31
f 34 35 178
f 178 177 34
f 35 36 174
f 174 178 35
f 174 173 179
f 173 176 179
f 176 175 179
f 175 177 179
f 177 178 179
f 178 174 179
f 180 181 182
f 182 183 180
f 181 184 185
f 185 182 181
f 184 186 187
f 187 185 184
f 186 188 189
f 189 187 186
f 188 190 191
f 191 189 188
f 190 192 193
f 193 191 190
f 192 194 195
f 195 193 192
f 194 180 183
f 183 195 194
f 182 185 187
f 187 189 191
f 191 193 195
f 187 191 195
f 182 187 195
f 183 182 195
f 30 29 196
f 196 197 30
f 38 37 198
f 198 199 38
f 25 24 200
f 200 113 25
f 37 20 201
f 201 198 37
f 40 39 202
f 202 203 40
f 204 41 43
f 43 205 204
f 43 40 203
f 203 205 43
f 200 24 41
f 41 204 200
f 19 30 197
f 197 206 19
f 39 38 199
f 199 202 39
f 63 70 207
f 207 208 63
f 88 81 83
f 83 209 88
f 51 50 210
f 210 211 51
f 50 63 208
f 208 210 50
f 212 55 54
f 54 213 212
f 96 51 211
f 211 104 96
f 213 54 89
f 89 214 213
f 89 88 209
f 209 214 89
f 19 206 201
f 201 20 19
f 53 86 89
f 215 216 217
f 217 218 215
f 219 220 221
f 221 222 219
f 223 224 225
f 226 223 225
f 227 226 225
f 228 229 230
f 230 231 228
f 232 217 216
f 216 233 232
f 229 234 220
f 229 220 219
f 230 229 219
f 227 221 220
f 220 226 227
f 234 235 217
f 234 217 232
f 234 232 226
f 220 234 226
f 217 236 237
f 237 218 217
f 222 221 238
f 238 239 222
f 227 225 240
f 240 241 227
f 242 243 244
f 243 240 225
f 225 244 243
f 221 227 241
f 241 238 221
f 245 246 247
f 247 248 245
f 249 250 251
f 251 252 249
f 253 254 255
f 255 256 253
f 257 249 252
f 252 258 257
f 259 253 256
f 256 260 259
f 261 245 248
f 248 262 261
f 252 251 263
f 263 264 252
f 258 252 264
f 264 265 258
f 266 267 268
f 268 269 266
f 270 264 263
f 263 271 270
f 265 264 270
f 270 272 265
f 273 274 265
f 265 272 273
f 275 276 257
f 257 258 275
f 274 275 258
f 258 265 274
f 277 278 279
f 279 280 277
f 280 279 281
f 281 282 280
f 281 83 82
f 82 282 281
f 283 248 247
f 247 284 283
f 285 286 287
f 287 288 285
f 278 289 288
f 288 279 278
f 283 290 262
f 262 248 283
f 268 267 291
f 291 292 268
f 276 284 293
f 293 294 276
f 250 249 295
f 295 296 250
f 249 257 297
f 297 295 249
f 257 276 294
f 294 297 257
f 247 246 259
f 259 260 247
f 255 286 256
f 256 285 298
f 293 260 299
f 299 300 293
f 294 301 302
f 302 297 294
f 295 277 280
f 295 280 282
f 282 296 295
f 104 296 282
f 282 82 104
f 256 298 299
f 299 260 256
f 298 289 300
f 300 299 298
f 278 277 302
f 302 301 278
f 302 277 295
f 295 297 302
f 275 283 284
f 284 276 275
f 288 287 281
f 281 279 288
f 285 288 289
f 289 298 285
f 283 275 274
f 283 274 303
f 304 283 303
f 305 303 274
f 292 305 274
f 292 274 273
f 260 293 284
f 284 247 260
f 293 300 301
f 301 294 293
f 301 300 289
f 289 278 301
f 223 306 307
f 307 308 223
f 233 307 309
f 309 232 233
f 232 309 310
f 310 226 232
f 226 310 306
f 306 223 226
f 113 223 311
f 311 114 113
f 290 283 304
f 292 291 305
f 307 233 308
f 308 233 216
f 216 312 308
f 216 215 313
f 313 312 216
f 314 315 316
f 316 317 314
f 122 125 318
f 318 319 122
f 126 129 320
f 320 321 126
f 130 133 322
f 322 323 130
f 319 318 324
f 324 325 319
f 326 321 320
f 320 327 326
f 328 323 322
f 322 329 328
f 325 324 314
f 314 317 325
f 315 326 327
f 327 316 315
f 330 328 329
f 329 331 330
f 315 314 330
f 330 331 315
f 314 324 328
f 328 330 314
f 126 321 322
f 322 133 126
f 318 125 130
f 130 323 318
f 321 326 329
f 329 322 321
f 326 315 331
f 331 329 326
f 324 318 323
f 323 328 324
f 332 333 334
f 334 335 332
f 335 334 336
f 336 337 335
f 338 339 340
f 340 341 338
f 341 340 342
f 342 343 341
f 343 342 344
f 344 345 343
f 345 344 346
f 346 347 345
f 347 346 348
f 348 349 347
f 349 348 333
f 333 332 349
f 350 351 352
f 352 351 353
f 353 351 354
f 354 351 355
f 355 351 356
f 356 351 357
f 357 351 358
f 358 351 359
f 359 351 360
f 360 351 350
f 350 352 334
f 334 333 350
f 352 353 336
f 336 334 352
f 353 354 361
f 361 336 353
f 354 355 339
f 339 361 354
f 355 356 340
f 340 339 355
f 356 357 342
f 342 340 356
f 357 358 344
f 344 342 357
f 358 359 346
f 346 344 358
f 359 360 348
f 348 346 359
f 360 350 333
f 333 348 360
f 236 362 363
f 363 237 236
f 228 364 365
f 365 229 228
f 229 365 366
f 366 234 229
f 234 366 367
f 367 235 234
f 235 367 362
f 362 236 235
f 362 368 363
f 363 368 364
f 364 368 365
f 365 368 366
f 366 368 367
f 367 368 362
f 369 370 371
f 371 372 369
f 372 371 373
f 373 374 372
f 374 373 375
f 375 376 374
f 376 375 377
f 377 378 376
f 378 377 379
f 379 380 378
f 380 379 381
f 381 382 380
f 382 381 383
f 383 384 382
f 384 383 370
f 370 369 384
f 383 381 379
f 379 377 375
f 383 379 375
f 375 373 371
f 383 375 371
f 370 383 371
f 230 197 196
f 196 231 230
f 238 199 198
f 198 239 238
f 223 113 200
f 200 224 223
f 239 198 201
f 201 222 239
f 240 203 202
f 202 241 240
f 204 205 243
f 243 242 204
f 243 205 203
f 203 240 243
f 200 204 242
f 242 224 200
f 219 206 197
f 197 230 219
f 241 202 199
f 199 238 241
f 263 208 207
f 207 271 263
f 287 209 83
f 83 281 287
f 250 211 210
f 210 251 250
f 251 210 208
f 208 263 251
f 212 213 255
f 255 254 212
f 296 104 211
f 211 250 296
f 213 214 286
f 286 255 213
f 286 214 209
f 209 287 286
f 219 222 201
f 201 206 219
f 256 286 285
f 42 41 24
f 24 23 42
f 224 242 244
f 244 225 224
f 108 25 385
f 385 386 108
f 108 386 387
f 25 115 385
f 110 109 388
f 388 389 110
f 109 111 390
f 390 388 109
f 111 112 391
f 391 390 111
f 112 110 389
f 389 391 112
f 387 386 392
f 392 393 387
f 386 385 394
f 394 392 386
f 385 115 395
f 395 394 385
f 114 396 395
f 395 115 114
f 117 116 397
f 397 398 117
f 116 108 399
f 399 397 116
f 400 401 399
f 399 108 400
f 398 397 402
f 402 403 398
f 397 399 404
f 404 402 397
f 401 405 404
f 404 399 401
f 129 128 123
f 123 122 129
f 137 134 123
f 123 128 137
f 120 119 134
f 134 137 120
f 406 407 408
f 408 409 406
f 407 410 411
f 411 408 407
f 410 412 413
f 413 411 410
f 412 414 415
f 415 413 412
f 414 416 417
f 417 415 414
f 416 418 419
f 419 417 416
f 418 420 421
f 421 419 418
f 420 422 423
f 423 421 420
f 422 424 425
f 425 423 422
f 424 426 427
f 427 425 424
f 426 428 429
f 429 427 426
f 428 430 431
f 431 429 428
f 430 432 433
f 433 431 430
f 432 434 435
f 435 433 432
f 434 436 437
f 437 435 434
f 436 406 409
f 409 437 436
f 438 439 440
f 440 441 442
f 442 443 444
f 440 442 444
f 444 445 446
f 446 447 448
f 444 446 448
f 448 449 450
f 450 451 452
f 448 450 452
f 444 448 452
f 440 444 452
f 438 440 452
f 453 438 452
f 454 455 456
f 456 457 458
f 458 459 460
f 456 458 460
f 454 456 460
f 461 454 460
f 408 462 463
f 463 409 408
f 411 464 462
f 462 408 411
f 413 465 464
f 464 411 413
f 415 466 465
f 465 413 415
f 417 467 466
f 466 415 417
f 419 468 467
f 467 417 419
f 421 469 468
f 468 419 421
f 423 470 469
f 469 421 423
f 425 471 470
f 470 423 425
f 427 472 471
f 471 425 427
f 429 473 472
f 472 427 429
f 431 474 473
f 473 429 431
f 433 475 474
f 474 431 433
f 435 476 475
f 475 433 435
f 437 477 476
f 476 435 437
f 409 463 477
f 477 437 409
f 406 452 451
f 451 407 406
f 407 451 450
f 450 410 407
f 410 450 449
f 449 412 410
f 412 449 448
f 448 414 412
f 414 448 447
f 447 416 414
f 416 447 446
f 446 418 416
f 418 446 445
f 445 420 418
f 420 445 444
f 444 422 420
f 422 444 443
f 443 424 422
f 424 443 442
f 442 426 424
f 426 442 441
f 441 428 426
f 428 441 440
f 440 430 428
f 430 440 439
f 439 432 430
f 432 439 438
f 438 434 432
f 434 438 453
f 453 436 434
f 436 453 452
f 452 406 436
f 463 462 478
f 478 479 463
f 462 464 480
f 480 478 462
f 464 465 481
f 481 480 464
f 465 466 482
f 482 481 465
f 466 467 483
f 483 482 466
f 467 468 484
f 484 483 467
f 468 469 485
f 485 484 468
f 469 470 486
f 486 485 469
f 470 471 487
f 487 486 470
f 471 472 488
f 488 487 471
f 472 473 489
f 489 488 472
f 473 474 490
f 490 489 473
f 474 475 491
f 491 490 474
f 475 476 492
f 492 491 475
f 476 477 493
f 493 492 476
f 477 463 479
f 479 493 477
f 479 478 494
f 478 480 495
f 495 494 478
f 480 481 495
f 481 482 496
f 496 495 481
f 482 483 496
f 483 484 497
f 497 496 483
f 484 485 497
f 485 486 498
f 498 497 485
f 486 487 498
f 487 488 499
f 499 498 487
f 488 489 499
f 489 490 500
f 500 499 489
f 490 491 500
f 491 492 501
f 501 500 491
f 492 493 501
f 493 479 494
f 494 501 493
f 494 495 502
f 502 503 494
f 495 496 504
f 504 502 495
f 496 497 505
f 505 504 496
f 497 498 506
f 506 505 497
f 498 499 507
f 507 506 498
f 499 500 508
f 508 507 499
f 500 501 509
f 509 508 500
f 501 494 503
f 503 509 501
f 503 502 510
f 510 511 503
f 502 504 512
f 512 510 502
f 504 505 513
f 513 512 504
f 505 506 514
f 514 513 505
f 506 507 515
f 515 514 506
f 507 508 516
f 516 515 507
f 508 509 517
f 517 516 508
f 509 503 511
f 511 517 509
f 511 510 454
f 454 461 511
f 510 512 455
f 455 454 510
f 512 513 456
f 456 455 512
f 513 514 457
f 457 456 513
f 514 515 458
f 458 457 514
f 515 516 459
f 459 458 515
f 516 517 460
f 460 459 516
f 517 511 461
f 461 460 517
f 518 519 520
f 520 521 518
f 519 522 523
f 523 520 519
f 522 524 525
f 525 523 522
f 524 526 527
f 527 525 524
f 526 528 529
f 529 527 526
f 528 530 531
f 531 529 528
f 530 532 533
f 533 531 530
f 532 534 535
f 535 533 532
f 534 536 537
f 537 535 534
f 536 538 539
f 539 537 536
f 538 540 541
f 541 539 538
f 540 542 543
f 543 541 540
f 542 544 545
f 545 543 542
f 544 546 547
f 547 545 544
f 546 548 549
f 549 547 546
f 548 518 521
f 521 549 548
f 550 551 552
f 552 553 554
f 554 555 556
f 552 554 556
f 556 557 558
f 558 559 560
f 556 558 560
f 560 561 562
f 562 563 564
f 560 562 564
f 556 560 564
f 552 556 564
f 550 552 564
f 565 550 564
f 566 567 568
f 568 569 570
f 570 571 572
f 568 570 572
f 566 568 572
f 573 566 572
f 520 574 575
f 575 521 520
f 523 576 574
f 574 520 523
f 525 577 576
f 576 523 525
f 527 578 577
f 577 525 527
f 529 579 578
f 578 527 529
f 531 580 579
f 579 529 531
f 533 581 580
f 580 531 533
f 535 582 581
f 581 533 535
f 537 583 582
f 582 535 537
f 539 584 583
f 583 537 539
f 541 585 584
f 584 539 541
f 543 586 585
f 585 541 543
f 545 587 586
f 586 543 545
f 547 588 587
f 587 545 547
f 549 589 588
f 588 547 549
f 521 575 589
f 589 549 521
f 518 564 563
f 563 519 518
f 519 563 562
f 562 522 519
f 522 562 561
f 561 524 522
f 524 561 560
f 560 526 524
f 526 560 559
f 559 528 526
f 528 559 558
f 558 530 528
f 530 558 557
f 557 532 530
f 532 557 556
f 556 534 532
f 534 556 555
f 555 536 534
f 536 555 554
f 554 538 536
f 538 554 553
f 553 540 538
f 540 553 552
f 552 542 540
f 542 552 551
f 551 544 542
f 544 551 550
f 550 546 544
f 546 550 565
f 565 548 546
f 548 565 564
f 564 518 548
f 575 574 590
f 590 591 575
f 574 576 592
f 592 590 574
f 576 577 593
f 593 592 576
f 577 578 594
f 594 593 577
f 578 579 595
f 595 594 578
f 579 580 596
f 596 595 579
f 580 581 597
f 597 596 580
f 581 582 598
f 598 597 581
f 582 583 599
f 599 598 582
f 583 584 600
f 600 599 583
f 584 585 601
f 601 600 584
f 585 586 602
f 602 601 585
f 586 587 603
f 603 602 586
f 587 588 604
f 604 603 587
f 588 589 605
f 605 604 588
f 589 575 591
f 591 605 589
f 591 590 606
f 590 592 607
f 607 606 590
f 592 593 607
f 593 594 608
f 608 607 593
f 594 595 608
f 595 596 609
f 609 608 595
f 596 597 609
f 597 598 610
f 610 609 597
f 598 599 610
f 599 600 611
f 611 610 599
f 600 601 611
f 601 602 612
f 612 611 601
f 602 603 612
f 603 604 613
f 613 612 603
f 604 605 613
f 605 591 606
f 606 613 605
f 606 607 614
f 614 615 606
f 607 608 616
f 616 614 607
f 608 609 617
f 617 616 608
f 609 610 618
f 618 617 609
f 610 611 619
f 619 618 610
f 611 612 620
f 620 619 611
f 612 613 621
f 621 620 612
f 613 606 615
f 615 621 613
f 615 614 622
f 622 623 615
f 614 616 624
f 624 622 614
f 616 617 625
f 625 624 616
f 617 618 626
f 626 625 617
f 618 619 627
f 627 626 618
f 619 620 628
f 628 627 619
f 620 621 629
f 629 628 620
f 621 615 623
f 623 629 621
f 623 622 566
f 566 573 623
f 622 624 567
f 567 566 622
f 624 625 568
f 568 567 624
f 625 626 569
f 569 568 625
f 626 627 570
f 570 569 626
f 627 628 571
f 571 570 627
f 628 629 572
f 572 571 628
f 629 623 573
f 573 572 629
f 630 631 632
f 632 633 630
f 634 631 630
f 630 635 636
f 634 630 636
f 634 636 637
f 638 634 637
f 105 106 638
f 638 637 105
f 106 91 634
f 634 638 106
f 91 61 631
f 631 634 91
f 61 60 632
f 632 631 61
f 65 68 630
f 630 633 65
f 68 93 635
f 635 630 68
f 93 107 636
f 636 635 93
f 107 105 637
f 637 636 107
f 639 640 641
f 641 642 639
f 643 644 640
f 640 639 643
f 644 645 641
f 641 640 644
f 645 646 642
f 642 641 645
f 646 643 639
f 639 642 646
f 647 648 649
f 649 650 647
f 648 651 652
f 652 649 648
f 651 653 654
f 654 652 651
f 653 655 656
f 656 654 653
f 655 657 658
f 658 656 655
f 657 659 660
f 660 658 657
f 659 661 662
f 662 660 659
f 661 647 650
f 650 662 661
f 659 657 655
f 655 653 651
f 651 648 647
f 655 651 647
f 659 655 647
f 661 659 647
f 650 649 663
f 663 664 650
f 649 652 665
f 665 663 649
f 652 654 666
f 666 665 652
f 654 656 667
f 667 666 654
f 656 658 668
f 668 667 656
f 658 660 669
f 669 668 658
f 660 662 670
f 670 669 660
f 662 650 664
f 664 670 662
f 671 632 672
f 672 673 671
f 674 671 673
f 673 675 674
f 671 633 632
f 676 633 671
f 671 674 676
f 677 672 632
f 632 678 677
f 400 108 387
f 387 679 400
f 387 393 680
f 680 679 387
f 681 682 683
f 684 681 683
f 683 685 686
f 684 683 686
f 687 688 689
f 689 690 691
f 687 689 691
f 687 691 692
f 684 686 688
f 688 687 684
f 685 683 690
f 690 689 685
f 682 681 692
f 692 691 682
f 686 685 689
f 689 688 686
f 683 682 691
f 691 690 683
f 693 694 695
f 695 696 693
f 697 698 699
f 699 700 697
f 696 698 697
f 697 693 696
f 701 702 703
f 703 704 701
f 695 699 703
f 703 702 695
f 694 693 697
f 697 700 694
f 702 701 696
f 696 695 702
f 698 704 703
f 703 699 698
f 701 704 698
f 698 696 701
f 694 700 699
f 699 695 694
f 29 28 705
f 705 196 29
f 173 706 707
f 707 176 173
f 172 16 708
f 708 709 172
f 15 710 708
f 708 16 15
f 117 711 710
f 710 15 117
f 65 712 713
f 713 66 65
f 709 706 173
f 173 172 709
f 176 707 705
f 705 28 176
f 676 712 65
f 65 633 676
f 714 715 716
f 716 717 714
f 718 714 717
f 717 719 718
f 720 721 722
f 722 723 720
f 723 722 715
f 715 714 723
f 720 723 714
f 714 718 720
f 724 725 726
f 726 727 724
f 728 729 725
f 725 724 728
f 730 731 729
f 729 728 730
f 732 733 731
f 731 730 732
f 734 735 733
f 733 732 734
f 736 737 735
f 735 734 736
f 738 739 737
f 737 736 738
f 727 726 739
f 739 738 727
f 740 741 726
f 726 725 740
f 742 740 725
f 725 729 742
f 743 742 729
f 729 731 743
f 744 743 731
f 731 733 744
f 745 744 733
f 733 735 745
f 746 745 735
f 735 737 746
f 747 746 737
f 737 739 747
f 741 747 739
f 739 726 741
f 748 749 750
f 750 751 748
f 752 753 749
f 749 748 752
f 754 755 753
f 753 752 754
f 756 757 755
f 755 754 756
f 758 759 757
f 757 756 758
f 760 761 759
f 759 758 760
f 762 763 761
f 761 760 762
f 751 750 763
f 763 762 751
f 764 765 750
f 750 749 764
f 766 764 749
f 749 753 766
f 767 766 753
f 753 755 767
f 768 767 755
f 755 757 768
f 769 768 757
f 757 759 769
f 770 769 759
f 759 761 770
f 771 770 761
f 761 763 771
f 765 771 763
f 763 750 765
f 772 773 774
f 774 775 772
f 776 777 778
f 778 779 776
f 772 775 777
f 777 776 772
f 775 774 778
f 778 777 775
f 774 773 779
f 779 778 774
f 773 772 776
f 776 779 773
f 780 781 782
f 782 783 780
f 784 780 783
f 783 785 784
f 786 784 785
f 785 787 786
f 788 786 787
f 787 789 788
f 790 788 789
f 789 791 790
f 792 790 791
f 791 793 792
f 794 792 793
f 793 795 794
f 796 794 795
f 795 797 796
f 781 798 799
f 799 782 781
f 800 801 802
f 802 803 800
f 803 802 804
f 804 805 803
f 805 804 806
f 806 807 805
f 807 806 808
f 808 809 807
f 809 808 810
f 810 811 809
f 811 810 812
f 812 813 811
f 813 812 814
f 814 815 813
f 815 814 816
f 816 817 815
f 818 819 801
f 801 800 818
f 802 801 781
f 781 780 802
f 804 802 780
f 780 784 804
f 806 804 784
f 784 786 806
f 808 806 786
f 786 788 808
f 810 808 788
f 788 790 810
f 812 810 790
f 790 792 812
f 814 812 792
f 792 794 814
f 817 816 796
f 796 797 817
f 816 814 794
f 794 796 816
f 801 819 798
f 798 781 801
f 819 818 799
f 799 798 819
f 820 821 822
f 822 823 820
f 824 820 823
f 823 825 824
f 826 824 825
f 825 827 826
f 828 826 827
f 827 829 828
f 830 828 829
f 829 831 830
f 832 830 831
f 831 833 832
f 834 832 833
f 833 835 834
f 836 834 835
f 835 837 836
f 838 839 840
f 840 841 838
f 841 840 842
f 842 843 841
f 843 842 844
f 844 845 843
f 845 844 846
f 846 847 845
f 847 846 848
f 848 849 847
f 849 848 850
f 850 851 849
f 851 850 852
f 852 853 851
f 853 852 854
f 854 855 853
f 840 839 821
f 821 820 840
f 839 838 822
f 822 821 839
f 842 840 820
f 820 824 842
f 844 842 824
f 824 826 844
f 846 844 826
f 826 828 846
f 848 846 828
f 828 830 848
f 850 848 830
f 830 832 850
f 852 850 832
f 832 834 852
f 855 854 836
f 836 837 855
f 854 852 834
f 834 836 854
f 856 857 858
f 858 859 856
f 860 856 859
f 859 861 860
f 862 860 861
f 861 863 862
f 864 862 863
f 863 865 864
f 866 867 864
f 864 865 866
f 868 869 870
f 870 871 868
f 869 868 872
f 872 873 869
f 873 872 874
f 874 875 873
f 875 874 876
f 876 877 875
f 877 876 878
f 878 879 877
f 880 870 869
f 869 858 880
f 869 873 859
f 859 858 869
f 872 868 857
f 857 856 872
f 873 875 861
f 861 859 873
f 874 872 856
f 856 860 874
f 875 877 863
f 863 861 875
f 876 874 860
f 860 862 876
f 877 879 865
f 865 863 877
f 878 876 862
f 862 864 878
f 867 881 878
f 878 864 867
f 882 883 884
f 884 885 882
f 886 887 888
f 888 889 886
f 885 884 888
f 888 887 885
f 883 882 886
f 886 889 883
f 890 891 892
f 892 893 890
f 894 895 896
f 896 897 894
f 893 892 896
f 896 895 893
f 891 890 894
f 894 897 891
f 898 899 900
f 900 901 898
f 902 903 904
f 904 905 902
f 901 900 904
f 904 903 901
f 906 899 905
f 905 907 906
f 899 906 908
f 908 900 899
f 909 907 905
f 905 904 909
f 908 909 904
f 904 900 908
f 898 902 905
f 905 899 898
f 910 911 912
f 912 913 910
f 914 391 389
f 389 915 914
f 915 389 388
f 388 912 915
f 912 388 390
f 390 913 912
f 913 390 391
f 391 914 913
f 915 395 396
f 396 916 915
f 392 912 393
f 392 394 915
f 915 912 392
f 394 395 915
f 917 918 919
f 919 920 917
f 918 921 922
f 922 919 918
f 921 923 924
f 924 922 921
f 923 925 926
f 926 924 923
f 925 927 928
f 928 926 925
f 927 917 920
f 920 928 927
f 920 919 922
f 922 928 920
f 928 922 924
f 924 926 928
f 880 858 857
f 857 929 880
f 879 878 881
f 881 930 879
f 857 868 871
f 871 929 857
f 865 879 930
f 930 866 865
f 931 911 910
f 910 932 931
f 910 913 933
f 933 932 910
f 914 915 916
f 916 934 914
f 913 914 934
f 934 933 913
f 912 911 931
f 931 935 912
f 393 912 935
f 935 680 393
f 308 936 937
f 937 223 308
f 308 938 936
f 223 937 311
f 306 939 940
f 940 307 306
f 307 940 941
f 941 309 307
f 309 941 942
f 942 310 309
f 310 942 939
f 939 306 310
f 938 943 944
f 944 936 938
f 936 944 945
f 945 937 936
f 937 945 946
f 946 311 937
f 114 311 946
f 946 396 114
f 313 947 948
f 948 312 313
f 312 948 949
f 949 308 312
f 400 308 949
f 949 401 400
f 947 950 951
f 951 948 947
f 948 951 952
f 952 949 948
f 401 949 952
f 952 405 401
f 129 122 319
f 319 320 129
f 327 320 319
f 319 325 327
f 316 327 325
f 325 317 316
f 953 954 955
f 955 956 953
f 956 955 957
f 957 958 956
f 958 957 959
f 959 960 958
f 960 959 961
f 961 962 960
f 962 961 963
f 963 964 962
f 964 963 965
f 965 966 964
f 966 965 967
f 967 968 966
f 968 967 969
f 969 970 968
f 970 969 971
f 971 972 970
f 972 971 973
f 973 974 972
f 974 973 975
f 975 976 974
f 976 975 977
f 977 978 976
f 978 977 979
f 979 980 978
f 980 979 981
f 981 982 980
f 982 981 983
f 983 984 982
f 984 983 954
f 954 953 984
f 985 986 987
f 987 988 989
f 985 987 989
f 989 990 991
f 991 992 993
f 989 991 993
f 985 989 993
f 993 994 995
f 995 996 997
f 993 995 997
f 985 993 997
f 997 998 999
f 985 997 999
f 1000 985 999
f 1001 1002 1003
f 1003 1004 1005
f 1001 1003 1005
f 1005 1006 1007
f 1001 1005 1007
f 1008 1001 1007
f 955 954 1009
f 1009 1010 955
f 957 955 1010
f 1010 1011 957
f 959 957 1011
f 1011 1012 959
f 961 959 1012
f 1012 1013 961
f 963 961 1013
f 1013 1014 963
f 965 963 1014
f 1014 1015 965
f 967 965 1015
f 1015 1016 967
f 969 967 1016
f 1016 1017 969
f 971 969 1017
f 1017 1018 971
f 973 971 1018
f 1018 1019 973
f 975 973 1019
f 1019 1020 975
f 977 975 1020
f 1020 1021 977
f 979 977 1021
f 1021 1022 979
f 981 979 1022
f 1022 1023 981
f 983 981 1023
f 1023 1024 983
f 954 983 1024
f 1024 1009 954
f 953 956 986
f 986 985 953
f 956 958 987
f 987 986 956
f 958 960 988
f 988 987 958
f 960 962 989
f 989 988 960
f 962 964 990
f 990 989 962
f 964 966 991
f 991 990 964
f 966 968 992
f 992 991 966
f 968 970 993
f 993 992 968
f 970 972 994
f 994 993 970
f 972 974 995
f 995 994 972
f 974 976 996
f 996 995 974
f 976 978 997
f 997 996 976
f 978 980 998
f 998 997 978
f 980 982 999
f 999 998 980
f 982 984 1000
f 1000 999 982
f 984 953 985
f 985 1000 984
f 1009 1025 1026
f 1026 1010 1009
f 1010 1026 1027
f 1027 1011 1010
f 1011 1027 1028
f 1028 1012 1011
f 1012 1028 1029
f 1029 1013 1012
f 1013 1029 1030
f 1030 1014 1013
f 1014 1030 1031
f 1031 1015 1014
f 1015 1031 1032
f 1032 1016 1015
f 1016 1032 1033
f 1033 1017 1016
f 1017 1033 1034
f 1034 1018 1017
f 1018 1034 1035
f 1035 1019 1018
f 1019 1035 1036
f 1036 1020 1019
f 1020 1036 1037
f 1037 1021 1020
f 1021 1037 1038
f 1038 1022 1021
f 1022 1038 1039
f 1039 1023 1022
f 1023 1039 1040
f 1040 1024 1023
f 1024 1040 1025
f 1025 1009 1024
f 1025 1041 1026
f 1026 1041 1042
f 1042 1027 1026
f 1027 1042 1028
f 1028 1042 1043
f 1043 1029 1028
f 1029 1043 1030
f 1030 1043 1044
f 1044 1031 1030
f 1031 1044 1032
f 1032 1044 1045
f 1045 1033 1032
f 1033 1045 1034
f 1034 1045 1046
f 1046 1035 1034
f 1035 1046 1036
f 1036 1046 1047
f 1047 1037 1036
f 1037 1047 1038
f 1038 1047 1048
f 1048 1039 1038
f 1039 1048 1040
f 1040 1048 1041
f 1041 1025 1040
f 1041 1049 1050
f 1050 1042 1041
f 1042 1050 1051
f 1051 1043 1042
f 1043 1051 1052
f 1052 1044 1043
f 1044 1052 1053
f 1053 1045 1044
f 1045 1053 1054
f 1054 1046 1045
f 1046 1054 1055
f 1055 1047 1046
f 1047 1055 1056
f 1056 1048 1047
f 1048 1056 1049
f 1049 1041 1048
f 1049 1057 1058
f 1058 1050 1049
f 1050 1058 1059
f 1059 1051 1050
f 1051 1059 1060
f 1060 1052 1051
f 1052 1060 1061
f 1061 1053 1052
f 1053 1061 1062
f 1062 1054 1053
f 1054 1062 1063
f 1063 1055 1054
f 1055 1063 1064
f 1064 1056 1055
f 1056 1064 1057
f 1057 1049 1056
f 1057 1008 1007
f 1007 1058 1057
f 1058 1007 1006
f 1006 1059 1058
f 1059 1006 1005
f 1005 1060 1059
f 1060 1005 1004
f 1004 1061 1060
f 1061 1004 1003
f 1003 1062 1061
f 1062 1003 1002
f 1002 1063 1062
f 1063 1002 1001
f 1001 1064 1063
f 1064 1001 1008
f 1008 1057 1064
f 1065 1066 1067
f 1067 1068 1065
f 1068 1067 1069
f 1069 1070 1068
f 1070 1069 1071
f 1071 1072 1070
f 1072 1071 1073
f 1073 1074 1072
f 1074 1073 1075
f 1075 1076 1074
f 1076 1075 1077
f 1077 1078 1076
f 1078 1077 1079
f 1079 1080 1078
f 1080 1079 1081
f 1081 1082 1080
f 1082 1081 1083
f 1083 1084 1082
f 1084 1083 1085
f 1085 1086 1084
f 1086 1085 1087
f 1087 1088 1086
f 1088 1087 1089
f 1089 1090 1088
f 1090 1089 1091
f 1091 1092 1090
f 1092 1091 1093
f 1093 1094 1092
f 1094 1093 1095
f 1095 1096 1094
f 1096 1095 1066
f 1066 1065 1096
f 1097 1098 1099
f 1099 1100 1101
f 1097 1099 1101
f 1101 1102 1103
f 1103 1104 1105
f 1101 1103 1105
f 1097 1101 1105
f 1105 1106 1107
f 1107 1108 1109
f 1105 1107 1109
f 1097 1105 1109
f 1109 1110 1111
f 1097 1109 1111
f 1112 1097 1111
f 1113 1114 1115
f 1115 1116 1117
f 1113 1115 1117
f 1117 1118 1119
f 1113 1117 1119
f 1120 1113 1119
f 1067 1066 1121
f 1121 1122 1067
f 1069 1067 1122
f 1122 1123 1069
f 1071 1069 1123
f 1123 1124 1071
f 1073 1071 1124
f 1124 1125 1073
f 1075 1073 1125
f 1125 1126 1075
f 1077 1075 1126
f 1126 1127 1077
f 1079 1077 1127
f 1127 1128 1079
f 1081 1079 1128
f 1128 1129 1081
f 1083 1081 1129
f 1129 1130 1083
f 1085 1083 1130
f 1130 1131 1085
f 1087 1085 1131
f 1131 1132 1087
f 1089 1087 1132
f 1132 1133 1089
f 1091 1089 1133
f 1133 1134 1091
f 1093 1091 1134
f 1134 1135 1093
f 1095 1093 1135
f 1135 1136 1095
f 1066 1095 1136
f 1136 1121 1066
f 1065 1068 1098
f 1098 1097 1065
f 1068 1070 1099
f 1099 1098 1068
f 1070 1072 1100
f 1100 1099 1070
f 1072 1074 1101
f 1101 1100 1072
f 1074 1076 1102
f 1102 1101 1074
f 1076 1078 1103
f 1103 1102 1076
f 1078 1080 1104
f 1104 1103 1078
f 1080 1082 1105
f 1105 1104 1080
f 1082 1084 1106
f 1106 1105 1082
f 1084 1086 1107
f 1107 1106 1084
f 1086 1088 1108
f 1108 1107 1086
f 1088 1090 1109
f 1109 1108 1088
f 1090 1092 1110
f 1110 1109 1090
f 1092 1094 1111
f 1111 1110 1092
f 1094 1096 1112
f 1112 1111 1094
f 1096 1065 1097
f 1097 1112 1096
f 1121 1137 1138
f 1138 1122 1121
f 1122 1138 1139
f 1139 1123 1122
f 1123 1139 1140
f 1140 1124 1123
f 1124 1140 1141
f 1141 1125 1124
f 1125 1141 1142
f 1142 1126 1125
f 1126 1142 1143
f 1143 1127 1126
f 1127 1143 1144
f 1144 1128 1127
f 1128 1144 1145
f 1145 1129 1128
f 1129 1145 1146
f 1146 1130 1129
f 1130 1146 1147
f 1147 1131 1130
f 1131 1147 1148
f 1148 1132 1131
f 1132 1148 1149
f 1149 1133 1132
f 1133 1149 1150
f 1150 1134 1133
f 1134 1150 1151
f 1151 1135 1134
f 1135 1151 1152
f 1152 1136 1135
f 1136 1152 1137
f 1137 1121 1136
f 1137 1153 1138
f 1138 1153 1154
f 1154 1139 1138
f 1139 1154 1140
f 1140 1154 1155
f 1155 1141 1140
f 1141 1155 1142
f 1142 1155 1156
f 1156 1143 1142
f 1143 1156 1144
f 1144 1156 1157
f 1157 1145 1144
f 1145 1157 1146
f 1146 1157 1158
f 1158 1147 1146
f 1147 1158 1148
f 1148 1158 1159
f 1159 1149 1148
f 1149 1159 1150
f 1150 1159 1160
f 1160 1151 1150
f 1151 1160 1152
f 1152 1160 1153
f 1153 1137 1152
f 1153 1161 1162
f 1162 1154 1153
f 1154 1162 1163
f 1163 1155 1154
f 1155 1163 1164
f 1164 1156 1155
f 1156 1164 1165
f 1165 1157 1156
f 1157 1165 1166
f 1166 1158 1157
f 1158 1166 1167
f 1167 1159 1158
f 1159 1167 1168
f 1168 1160 1159
f 1160 1168 1161
f 1161 1153 1160
f 1161 1169 1170
f 1170 1162 1161
f 1162 1170 1171
f 1171 1163 1162
f 1163 1171 1172
f 1172 1164 1163
f 1164 1172 1173
f 1173 1165 1164
f 1165 1173 1174
f 1174 1166 1165
f 1166 1174 1175
f 1175 1167 1166
f 1167 1175 1176
f 1176 1168 1167
f 1168 1176 1169
f 1169 1161 1168
f 1169 1120 1119
f 1119 1170 1169
f 1170 1119 1118
f 1118 1171 1170
f 1171 1118 1117
f 1117 1172 1171
f 1172 1117 1116
f 1116 1173 1172
f 1173 1116 1115
f 1115 1174 1173
f 1174 1115 1114
f 1114 1175 1174
f 1175 1114 1113
f 1113 1176 1175
f 1176 1113 1120
f 1120 1169 1176
f 1177 1178 1179
f 1179 1180 1177
f 1181 1182 1177
f 1177 1180 1183
f 1181 1177 1183
f 1184 1181 1183
f 1185 1184 1183
f 303 1184 1185
f 1185 304 303
f 304 1185 1183
f 1183 290 304
f 290 1183 1180
f 1180 262 290
f 262 1180 1179
f 1179 261 262
f 266 1178 1177
f 1177 267 266
f 267 1177 1182
f 1182 291 267
f 291 1182 1181
f 1181 305 291
f 305 1181 1184
f 1184 303 305
f 1186 1187 1188
f 1188 1189 1186
f 643 1186 1189
f 1189 644 643
f 644 1189 1188
f 1188 645 644
f 645 1188 1187
f 1187 646 645
f 646 1187 1186
f 1186 643 646
f 1190 1191 1192
f 1192 1193 1190
f 1193 1192 1194
f 1194 1195 1193
f 1195 1194 1196
f 1196 1197 1195
f 1197 1196 1198
f 1198 1199 1197
f 1199 1198 1200
f 1200 1201 1199
f 1201 1200 1202
f 1202 1203 1201
f 1203 1202 1204
f 1204 1205 1203
f 1205 1204 1191
f 1191 1190 1205
f 1190 1193 1195
f 1195 1197 1199
f 1190 1195 1199
f 1199 1201 1203
f 1190 1199 1203
f 1205 1190 1203
f 1191 1206 1207
f 1207 1192 1191
f 1192 1207 1208
f 1208 1194 1192
f 1194 1208 1209
f 1209 1196 1194
f 1196 1209 1210
f 1210 1198 1196
f 1198 1210 1211
f 1211 1200 1198
f 1200 1211 1212
f 1212 1202 1200
f 1202 1212 1213
f 1213 1204 1202
f 1204 1213 1206
f 1206 1191 1204
f 1214 1215 1216
f 1216 1179 1214
f 674 675 1215
f 1215 1214 674
f 1214 1179 1178
f 676 674 1214
f 1214 1178 676
f 677 678 1179
f 1179 1216 677
f 400 679 938
f 938 308 400
f 938 679 680
f 680 943 938
f 1217 1218 1219
f 1220 1217 1219
f 1219 1221 1222
f 1220 1219 1222
f 1223 1224 1225
f 1225 1226 1227
f 1223 1225 1227
f 1223 1227 1228
f 1220 1223 1228
f 1228 1217 1220
f 1218 1227 1226
f 1226 1219 1218
f 1221 1225 1224
f 1224 1222 1221
f 1217 1228 1227
f 1227 1218 1217
f 1219 1226 1225
f 1225 1221 1219
f 1229 1230 1231
f 1231 1232 1229
f 1233 1234 1235
f 1235 1236 1233
f 1230 1229 1233
f 1233 1236 1230
f 1237 1238 1239
f 1239 1240 1237
f 1231 1240 1239
f 1239 1235 1231
f 1232 1234 1233
f 1233 1229 1232
f 1240 1231 1230
f 1230 1237 1240
f 1236 1235 1239
f 1239 1238 1236
f 1237 1230 1236
f 1236 1238 1237
f 1232 1231 1235
f 1235 1234 1232
f 231 196 705
f 705 228 231
f 363 364 707
f 707 706 363
f 237 709 708
f 708 218 237
f 215 218 708
f 708 710 215
f 313 215 710
f 710 711 313
f 266 269 713
f 713 712 266
f 709 237 363
f 363 706 709
f 364 228 705
f 705 707 364
f 676 1178 266
f 266 712 676
f 1241 1242 1243
f 1243 1244 1241
f 718 719 1242
f 1242 1241 718
f 720 1245 1246
f 1246 721 720
f 1245 1241 1244
f 1244 1246 1245
f 720 718 1241
f 1241 1245 720
f 724 727 1247
f 1247 1248 724
f 728 724 1248
f 1248 1249 728
f 730 728 1249
f 1249 1250 730
f 732 730 1250
f 1250 1251 732
f 734 732 1251
f 1251 1252 734
f 736 734 1252
f 1252 1253 736
f 738 736 1253
f 1253 1254 738
f 727 738 1254
f 1254 1247 727
f 1255 1248 1247
f 1247 1256 1255
f 1257 1249 1248
f 1248 1255 1257
f 1258 1250 1249
f 1249 1257 1258
f 1259 1251 1250
f 1250 1258 1259
f 1260 1252 1251
f 1251 1259 1260
f 1261 1253 1252
f 1252 1260 1261
f 1262 1254 1253
f 1253 1261 1262
f 1256 1247 1254
f 1254 1262 1256
f 748 751 1263
f 1263 1264 748
f 752 748 1264
f 1264 1265 752
f 754 752 1265
f 1265 1266 754
f 756 754 1266
f 1266 1267 756
f 758 756 1267
f 1267 1268 758
f 760 758 1268
f 1268 1269 760
f 762 760 1269
f 1269 1270 762
f 751 762 1270
f 1270 1263 751
f 1271 1264 1263
f 1263 1272 1271
f 1273 1265 1264
f 1264 1271 1273
f 1274 1266 1265
f 1265 1273 1274
f 1275 1267 1266
f 1266 1274 1275
f 1276 1268 1267
f 1267 1275 1276
f 1277 1269 1268
f 1268 1276 1277
f 1278 1270 1269
f 1269 1277 1278
f 1272 1263 1270
f 1270 1278 1272
f 1279 1280 1281
f 1281 1282 1279
f 1283 1284 1285
f 1285 1286 1283
f 1279 1283 1286
f 1286 1280 1279
f 1280 1286 1285
f 1285 1281 1280
f 1281 1285 1284
f 1284 1282 1281
f 1282 1284 1283
f 1283 1279 1282
f 1287 1288 1289
f 1289 1290 1287
f 1291 1292 1288
f 1288 1287 1291
f 1293 1294 1292
f 1292 1291 1293
f 1295 1296 1294
f 1294 1293 1295
f 1297 1298 1296
f 1296 1295 1297
f 1299 1300 1298
f 1298 1297 1299
f 1301 1302 1300
f 1300 1299 1301
f 1303 1304 1302
f 1302 1301 1303
f 1290 1289 1305
f 1305 1306 1290
f 1307 1308 1309
f 1309 1310 1307
f 1308 1311 1312
f 1312 1309 1308
f 1311 1313 1314
f 1314 1312 1311
f 1313 1315 1316
f 1316 1314 1313
f 1315 1317 1318
f 1318 1316 1315
f 1317 1319 1320
f 1320 1318 1317
f 1319 1321 1322
f 1322 1320 1319
f 1321 1323 1324
f 1324 1322 1321
f 1325 1307 1310
f 1310 1326 1325
f 1309 1287 1290
f 1290 1310 1309
f 1312 1291 1287
f 1287 1309 1312
f 1314 1293 1291
f 1291 1312 1314
f 1316 1295 1293
f 1293 1314 1316
f 1318 1297 1295
f 1295 1316 1318
f 1320 1299 1297
f 1297 1318 1320
f 1322 1301 1299
f 1299 1320 1322
f 1323 1304 1303
f 1303 1324 1323
f 1324 1303 1301
f 1301 1322 1324
f 1310 1290 1306
f 1306 1326 1310
f 1326 1306 1305
f 1305 1325 1326
f 1327 1328 1329
f 1329 1330 1327
f 1331 1332 1328
f 1328 1327 1331
f 1333 1334 1332
f 1332 1331 1333
f 1335 1336 1334
f 1334 1333 1335
f 1337 1338 1336
f 1336 1335 1337
f 1339 1340 1338
f 1338 1337 1339
f 1341 1342 1340
f 1340 1339 1341
f 1343 1344 1342
f 1342 1341 1343
f 1345 1346 1347
f 1347 1348 1345
f 1346 1349 1350
f 1350 1347 1346
f 1349 1351 1352
f 1352 1350 1349
f 1351 1353 1354
f 1354 1352 1351
f 1353 1355 1356
f 1356 1354 1353
f 1355 1357 1358
f 1358 1356 1355
f 1357 1359 1360
f 1360 1358 1357
f 1359 1361 1362
f 1362 1360 1359
f 1347 1327 1330
f 1330 1348 1347
f 1348 1330 1329
f 1329 1345 1348
f 1350 1331 1327
f 1327 1347 1350
f 1352 1333 1331
f 1331 1350 1352
f 1354 1335 1333
f 1333 1352 1354
f 1356 1337 1335
f 1335 1354 1356
f 1358 1339 1337
f 1337 1356 1358
f 1360 1341 1339
f 1339 1358 1360
f 1361 1344 1343
f 1343 1362 1361
f 1362 1343 1341
f 1341 1360 1362
f 1363 1364 1365
f 1365 1366 1363
f 1367 1368 1364
f 1364 1363 1367
f 1369 1370 1368
f 1368 1367 1369
f 1371 1372 1370
f 1370 1369 1371
f 866 1372 1371
f 1371 867 866
f 1373 871 870
f 870 1374 1373
f 1374 1375 1376
f 1376 1373 1374
f 1375 1377 1378
f 1378 1376 1375
f 1377 1379 1380
f 1380 1378 1377
f 1379 1381 1382
f 1382 1380 1379
f 880 1365 1374
f 1374 870 880
f 1374 1365 1364
f 1364 1375 1374
f 1376 1363 1366
f 1366 1373 1376
f 1375 1364 1368
f 1368 1377 1375
f 1378 1367 1363
f 1363 1376 1378
f 1377 1368 1370
f 1370 1379 1377
f 1380 1369 1367
f 1367 1378 1380
f 1379 1370 1372
f 1372 1381 1379
f 1382 1371 1369
f 1369 1380 1382
f 867 1371 1382
f 1382 881 867
f 1383 1384 1385
f 1385 1386 1383
f 1387 1388 1389
f 1389 1390 1387
f 1384 1390 1389
f 1389 1385 1384
f 1386 1388 1387
f 1387 1383 1386
f 1391 1392 1393
f 1393 1394 1391
f 1395 1396 1397
f 1397 1398 1395
f 1392 1398 1397
f 1397 1393 1392
f 1394 1396 1395
f 1395 1391 1394
f 1399 1400 1401
f 1401 1402 1399
f 1403 1404 1405
f 1405 1406 1403
f 1400 1406 1405
f 1405 1401 1400
f 1407 1408 1404
f 1404 1402 1407
f 1402 1401 1409
f 1409 1407 1402
f 1410 1405 1404
f 1404 1408 1410
f 1409 1401 1405
f 1405 1410 1409
f 1399 1402 1404
f 1404 1403 1399
f 1411 1412 1413
f 1413 1414 1411
f 1415 1416 939
f 939 942 1415
f 1416 1413 940
f 940 939 1416
f 1413 1412 941
f 941 940 1413
f 1412 1415 942
f 942 941 1412
f 1416 916 396
f 396 946 1416
f 944 943 1413
f 944 1413 1416
f 1416 945 944
f 945 1416 946
f 1417 1418 1419
f 1419 1420 1417
f 1420 1419 1421
f 1421 1422 1420
f 1422 1421 1423
f 1423 1424 1422
f 1424 1423 1425
f 1425 1426 1424
f 1426 1425 1427
f 1427 1428 1426
f 1428 1427 1418
f 1418 1417 1428
f 1418 1427 1421
f 1421 1419 1418
f 1427 1425 1423
f 1423 1421 1427
f 880 929 1366
f 1366 1365 880
f 1381 930 881
f 881 1382 1381
f 1366 929 871
f 871 1373 1366
f 1372 866 930
f 930 1381 1372
f 931 932 1411
f 1411 1414 931
f 1411 932 933
f 933 1412 1411
f 1415 934 916
f 916 1416 1415
f 1412 933 934
f 934 1415 1412
f 1413 935 931
f 931 1414 1413
f 943 680 935
f 935 1413 943
f 17 16 172
f 172 36 17
f 217 235 236
f 10 9 8
f 8 7 10
f 14 13 12
f 12 11 14
f 78 81 80
f 80 77 78
f 111 112 110
f 110 109 111
f 121 120 119
f 119 118 121
f 282 281 279
f 279 280 282
f 310 309 307
f 307 306 310
f 317 316 315
f 315 314 317
f 372 373 371
f 376 377 375
f 380 381 379
f 384 370 383
f 389 388 109
f 109 110 389
f 388 390 111
f 111 109 388
f 390 391 112
f 112 111 390
f 391 389 110
f 110 112 391
f 393 392 386
f 386 387 393
f 397 117 398
f 402 398 403
f 521 575 574
f 574 520 521
f 521 549 589
f 589 575 521
f 549 547 588
f 588 589 549
f 547 545 587
f 587 588 547
f 545 543 586
f 586 587 545
f 543 541 585
f 585 586 543
f 541 539 584
f 584 585 541
f 539 537 583
f 583 584 539
f 537 535 582
f 582 583 537
f 535 533 581
f 581 582 535
f 533 531 580
f 580 581 533
f 531 529 579
f 579 580 531
f 529 527 578
f 578 579 529
f 527 525 577
f 577 578 527
f 525 523 576
f 576 577 525
f 523 520 574
f 574 576 523
f 61 632 60
f 642 641 640
f 640 639 642
f 673 672 632
f 632 671 673
f 674 1214 1215
f 681 683 682
f 687 692 691
f 687 688 686
f 686 684 687
f 682 692 681
f 704 703 702
f 702 701 704
f 700 697 693
f 693 694 700
f 722 720 723
f 775 774 773
f 773 772 775
f 779 778 777
f 777 776 779
f 776 777 775
f 775 772 776
f 777 778 774
f 774 775 777
f 778 779 773
f 773 774 778
f 779 776 772
f 772 773 779
f 818 801 819
f 817 796 816
f 796 817 797
f 819 799 818
f 799 819 798
f 838 840 839
f 839 822 838
f 822 839 821
f 855 836 854
f 836 855 837
f 859 861 875
f 875 873 859
f 860 856 872
f 872 874 860
f 861 863 877
f 877 875 861
f 862 860 874
f 874 876 862
f 882 884 883
f 884 882 885
f 889 888 887
f 887 886 889
f 885 888 884
f 888 885 887
f 883 886 882
f 886 883 889
f 890 892 891
f 892 890 893
f 897 896 895
f 895 894 897
f 893 896 892
f 896 893 895
f 891 894 890
f 894 891 897
f 900 908 899
f 899 898 900
f 900 898 901
f 904 901 903
f 905 906 907
f 899 908 906
f 390 388 389
f 389 391 390
f 392 393 912
f 920 919 918
f 918 917 920
f 924 926 925
f 925 923 924
f 928 922 919
f 919 920 928
f 926 924 922
f 922 928 926
f 307 940 939
f 939 306 307
f 309 941 940
f 940 307 309
f 310 942 941
f 941 309 310
f 306 939 942
f 942 310 306
f 936 944 943
f 943 938 936
f 1095 1066 1121
f 1121 1136 1095
f 1093 1095 1136
f 1136 1135 1093
f 1091 1093 1135
f 1135 1134 1091
f 1089 1091 1134
f 1134 1133 1089
f 1087 1089 1133
f 1133 1132 1087
f 1085 1087 1132
f 1132 1131 1085
f 1083 1085 1131
f 1131 1130 1083
f 1081 1083 1130
f 1130 1129 1081
f 1079 1081 1129
f 1129 1128 1079
f 1077 1079 1128
f 1128 1127 1077
f 1075 1077 1127
f 1127 1126 1075
f 1073 1075 1126
f 1126 1125 1073
f 1071 1073 1125
f 1125 1124 1071
f 1069 1071 1124
f 1124 1123 1069
f 1067 1069 1123
f 1123 1122 1067
f 1122 1121 1066
f 1066 1067 1122
f 1189 1188 1187
f 1187 1186 1189
f 1214 1216 1215
f 1216 1214 1179
f 1179 677 1216
f 1220 1219 1218
f 1218 1217 1220
f 1220 1222 1221
f 1221 1219 1220
f 1217 1228 1223
f 1223 1220 1217
f 1240 1239 1238
f 1238 1237 1240
f 1229 1233 1234
f 1234 1232 1229
f 1282 1281 1280
f 1280 1279 1282
f 1286 1285 1284
f 1284 1283 1286
f 1280 1286 1283
f 1283 1279 1280
f 1281 1285 1286
f 1286 1280 1281
f 1282 1284 1285
f 1285 1281 1282
f 1279 1283 1284
f 1284 1282 1279
f 1305 1290 1306
f 1324 1303 1304
f 1304 1323 1324
f 1325 1305 1306
f 1306 1326 1325
f 1329 1327 1330
f 1345 1329 1330
f 1330 1348 1345
f 1362 1343 1344
f 1344 1361 1362
f 1377 1368 1364
f 1364 1375 1377
f 1376 1363 1367
f 1367 1378 1376
f 1379 1370 1368
f 1368 1377 1379
f 1378 1367 1369
f 1369 1380 1378
f 1386 1385 1384
f 1384 1383 1386
f 1387 1389 1388
f 1389 1387 1390
f 1385 1389 1390
f 1390 1384 1385
f 1383 1387 1388
f 1388 1386 1383
f 1394 1393 1392
f 1392 1391 1394
f 1395 1397 1396
f 1397 1395 1398
f 1393 1397 1398
f 1398 1392 1393
f 1391 1395 1396
f 1396 1394 1391
f 1405 1410 1404
f 1404 1403 1405
f 1405 1403 1406
f 1404 1410 1408
f 1405 1409 1410
f 1404 1399 1403
f 940 941 942
f 942 939 940
f 944 1413 943
f 1420 1419 1418
f 1418 1417 1420
f 1420 1421 1419
f 1426 1425 1423
f 1423 1424 1426
f 1426 1427 1425
f 1419 1421 1427
f 1427 1418 1419
f 1421 1423 1425
f 1425 1427 1421