# https://github.com/mikedh/trimesh
v 0.00005796 0.03173425 0.06737822
v 0.00582371 0.02897130 0.00826973
v 0.00005796 0.02953918 0.00826973
v 0.00625195 0.03112419 0.06737822
v 0.01136788 0.02728949 0.00826973
v 0.01220791 0.02931747 0.06737822
v 0.01647742 0.02455839 0.00826973
v 0.01769694 0.02638352 0.06737821
v 0.02095597 0.02088294 0.00826973
v 0.02250812 0.02243509 0.06737821
v 0.02463142 0.01640439 0.00826973
v 0.02645657 0.01762391 0.06737821
v 0.02736253 0.01129485 0.00826973
v 0.02939051 0.01213486 0.06737821
v 0.02904433 0.00575068 0.00826973
v 0.03119723 0.00617891 0.06737821
v 0.02961221 -0.00001507 0.00826973
v 0.03180729 -0.00001507 0.06737821
v 0.02904433 -0.00578082 0.00826973
v 0.03119723 -0.00620905 0.06737822
v 0.02736253 -0.01132499 0.00826973
v 0.02939051 -0.01216501 0.06737821
v 0.02463142 -0.01643453 0.00826973
v 0.02645657 -0.01765405 0.06737821
v 0.02095597 -0.02091308 0.00826973
v 0.02250812 -0.02246523 0.06737821
v 0.01647742 -0.02458853 0.00826973
v 0.01769694 -0.02641368 0.06737821
v 0.01136788 -0.02731964 0.00826973
v 0.00625194 -0.03115434 0.06737821
v 0.00582370 -0.02900144 0.00826973
v 0.00005796 -0.02956932 0.00826973
v 0.00005795 -0.03176440 0.06737821
v -0.00570780 -0.02900144 0.00826973
v -0.00613604 -0.03115434 0.06737821
v -0.01125197 -0.02731962 0.00826973
v -0.01209199 -0.02934762 0.06737821
v -0.01636151 -0.02458852 0.00826973
v -0.02239222 -0.02246522 0.06737821
v -0.02084006 -0.02091306 0.00826973
v -0.02451551 -0.01643452 0.00826973
v -0.02634065 -0.01765403 0.06737821
v -0.02724661 -0.01132497 0.00826973
v -0.03108131 -0.00620904 0.06737822
v -0.02892841 -0.00578079 0.00826973
v -0.02949628 -0.00001505 0.00826973
v -0.03169136 -0.00001504 0.06737821
v -0.02892840 0.00575071 0.00826973
v -0.03108130 0.00617895 0.06737821
v -0.02724659 0.01129488 0.00826973
v -0.02634061 0.01762394 0.06737821
v -0.02451547 0.01640441 0.00826973
v -0.02239217 0.02243512 0.06737821
v -0.02084002 0.02088296 0.00826973
v -0.01636146 0.02455841 0.00826973
v -0.01758098 0.02638355 0.06737821
v -0.01125192 0.02728951 0.00826973
v 0.00005795 -0.03101057 0.07080634
v -0.01209193 0.02931749 0.06737822
v -0.00570774 0.02897131 0.00826973
v -0.00613598 0.03112420 0.06737822
v 0.01177391 0.02826972 0.00567991
v -0.01695097 -0.02547070 0.00567991
v -0.01176793 -0.02856526 0.00439306
v -0.01165800 -0.02829986 0.00567991
v 0.02170621 -0.02166332 0.00567991
v 0.02551361 -0.01702399 0.00567991
v -0.02159030 -0.02166331 0.00567991
v -0.01165794 0.02826974 0.00567991
v -0.01695092 0.02544059 0.00567991
v 0.03008494 0.00595766 0.00567991
v 0.00005795 -0.03063032 0.00567991
v -0.02996901 0.00595770 0.00567991
v 0.01706688 0.02544058 0.00567991
v -0.02822684 -0.01173099 0.00567991
v -0.02539769 -0.01702397 0.00567991
v 0.03067321 -0.00001507 0.00567991
v -0.00591478 -0.03004204 0.00567991
v -0.02539766 0.01699387 0.00567991
v -0.02822682 0.01170091 0.00567991
v 0.02170621 0.02163317 0.00567991
v 0.01706688 -0.02547072 0.00567991
v -0.02996902 -0.00598778 0.00567991
v 0.00603070 0.03001190 0.00567991
v 0.00005796 0.03060017 0.00567991
v -0.00591473 0.03001192 0.00567991
v 0.03008495 -0.00598781 0.00567991
v -0.02159025 0.02163320 0.00567991
v 0.02551361 0.01699384 0.00567991
v 0.00603069 -0.03004205 0.00567991
v 0.01177390 -0.02829987 0.00567991
v 0.02834276 -0.01173101 0.00567991
v 0.02834276 0.01170088 0.00567991
v -0.03055728 -0.00001504 0.00567991
v -0.02849224 -0.01184092 0.00439306
v -0.02563655 -0.01718357 0.00280320
v -0.02563655 -0.01718357 0.00439306
v 0.02575246 0.01715344 0.00439306
v -0.01711056 -0.02570956 0.00439306
v 0.02860815 0.01181081 0.00439306
v -0.02179342 -0.02186643 0.00439306
v 0.03036669 0.00601371 0.00439306
v 0.03096047 -0.00001507 0.00439306
v 0.03036669 -0.00604385 0.00439306
v -0.03025077 -0.00604383 0.00439306
v 0.02860816 -0.01184094 0.00439306
v -0.03084455 -0.00001504 0.00439306
v 0.02575246 -0.01718358 0.00439306
v -0.03025076 0.00601374 0.00439306
v 0.01722648 -0.02570957 0.00439306
v 0.02190933 -0.02186644 0.00439306
v -0.02849221 0.01181084 0.00439306
v 0.01188384 -0.02856527 0.00439306
v 0.00005796 0.03088744 0.00439306
v -0.02179338 0.02183633 0.00439306
v -0.02563651 0.01715348 0.00439306
v 0.00608674 -0.03032380 0.00439306
v 0.00608674 0.03029365 0.00439306
v -0.01711052 0.02567945 0.00439306
v 0.01722648 0.02567942 0.00439306
v 0.01188384 0.02853512 0.00439306
v -0.01176787 0.02853514 0.00439306
v -0.00597083 -0.03032380 0.00439306
v 0.00005795 -0.03091758 0.00439306
v 0.02190933 0.02183630 0.00439306
v -0.00597077 0.03029366 0.00439306
v -0.03025076 0.00601374 0.00280320
v -0.03056226 -0.00001504 0.00120464
v -0.03084455 -0.00001504 0.00280320
v 0.03096047 -0.00001507 0.00280320
v -0.02849224 -0.01184092 0.00280320
v 0.03036669 -0.00604385 0.00280320
v -0.03025077 -0.00604383 0.00280320
v 0.02860816 -0.01184094 0.00280320
v 0.02575246 -0.01718358 0.00280320
v 0.02190933 -0.02186644 0.00280320
v -0.02849221 0.01181084 0.00280320
v 0.01722648 -0.02570957 0.00280320
v 0.00005796 0.03088744 0.00280320
v -0.02563651 0.01715348 0.00280320
v 0.01188384 -0.02856527 0.00280320
v 0.00608674 0.03029365 0.00280320
v -0.02179338 0.02183633 0.00280320
v 0.00608674 -0.03032380 0.00280320
v 0.01188384 0.02853512 0.00280320
v -0.01711052 0.02567945 0.00280320
v 0.00005795 -0.03091758 0.00280320
v 0.01722648 0.02567942 0.00280320
v -0.01176787 0.02853514 0.00280320
v -0.00597083 -0.03032380 0.00280320
v 0.02190933 0.02183630 0.00280320
v -0.00597077 0.03029366 0.00280320
v -0.01176793 -0.02856526 0.00280320
v 0.02575246 0.01715344 0.00280320
v -0.01711056 -0.02570956 0.00280320
v 0.02860815 0.01181081 0.00280320
v -0.02179342 -0.02186643 0.00280320
v 0.03036669 0.00601371 0.00280320
v -0.02159378 0.02163672 0.00120465
v -0.02357864 0.01577845 0.00000000
v -0.02540180 0.01699664 0.00120465
v 0.02551775 -0.01702675 0.00120464
v -0.02997389 0.00595867 0.00120464
v 0.01706965 -0.02547485 0.00120464
v 0.02170973 -0.02166683 0.00120464
v -0.02823142 0.01170281 0.00120464
v 0.01177581 -0.02830446 0.00120464
v 0.00005796 0.03060515 0.00120465
v 0.00603167 0.03001679 0.00120465
v 0.00603167 -0.03004693 0.00120464
v 0.01177581 0.02827432 0.00120465
v -0.01695369 0.02544473 0.00120465
v 0.00005795 -0.03063529 0.00120464
v 0.02170973 0.02163669 0.00120465
v 0.01706965 0.02544471 0.00120465
v -0.01165985 0.02827434 0.00120465
v -0.00591576 -0.03004693 0.00120464
v 0.02551775 0.01699661 0.00120465
v -0.00591570 0.03001680 0.00120465
v -0.01165990 -0.02830446 0.00120464
v -0.01695374 -0.02547485 0.00120464
v 0.02834735 0.01170278 0.00120464
v -0.02540183 -0.01702674 0.00120464
v -0.02159381 -0.02166682 0.00120464
v 0.03008982 0.00595864 0.00120464
v -0.02823144 -0.01173290 0.00120464
v 0.03067819 -0.00001507 0.00120464
v 0.03008982 -0.00598878 0.00120464
v -0.02997391 -0.00598875 0.00120464
v 0.02834735 -0.01173292 0.00120464
v 0.02793926 0.00553086 0.00000000
v 0.00560389 -0.02789637 0.00000000
v -0.02782333 -0.00556098 0.00000000
v 0.01093670 -0.02627868 0.00000000
v 0.00560390 0.02786623 0.00000000
v -0.02004331 0.02008625 0.00000000
v 0.01585145 0.02362155 0.00000000
v 0.01093670 0.02624853 0.00000000
v -0.01573549 0.02362157 0.00000000
v 0.00005796 -0.02844260 0.00000000
v 0.02015926 0.02008623 0.00000000
v -0.01082074 0.02624855 0.00000000
v -0.00548798 -0.02789636 0.00000000
v 0.02369459 0.01577841 0.00000000
v -0.00548793 0.02786623 0.00000000
v -0.01573554 -0.02365168 0.00000000
v -0.01082079 -0.02627867 0.00000000
v 0.02632156 0.01086367 0.00000000
v -0.02004334 -0.02011635 0.00000000
v 0.02848549 -0.00001507 0.00000000
v -0.02357867 -0.01580854 0.00000000
v 0.02793926 -0.00556100 0.00000000
v -0.02620565 -0.01089379 0.00000000
v -0.02836956 -0.00001505 0.00000000
v 0.02369459 -0.01580855 0.00000000
v 0.02632157 -0.01089380 0.00000000
v -0.02782333 0.00553090 0.00000000
v 0.02015926 -0.02011636 0.00000000
v -0.02620563 0.01086370 0.00000000
v 0.01585145 -0.02365169 0.00000000
v 0.00005796 0.02841246 0.00000000
v -0.02571386 -0.01723523 0.07080634
v -0.02100214 -0.02107515 0.07304680
v -0.02470610 -0.01656187 0.07304680
v -0.03093753 -0.00001504 0.07080634
v -0.03034196 0.00603188 0.07080635
v 0.01727814 0.02575673 0.07080635
v 0.02197508 -0.02193220 0.07080634
v -0.01180345 0.02862104 0.07080635
v 0.03105346 -0.00001507 0.07080634
v -0.00598897 -0.03041500 0.07080634
v -0.02857813 0.01184642 0.07080634
v -0.02927458 0.01213490 0.06737821
v 0.02197508 0.02190205 0.07080634
v 0.01727813 -0.02578688 0.07080634
v -0.02857815 -0.01187651 0.07080634
v -0.02927459 -0.01216499 0.06737821
v -0.00598891 0.03038486 0.07080635
v 0.03045789 -0.00606199 0.07080634
v -0.01180351 -0.02865117 0.07080634
v -0.02571383 0.01720513 0.07080634
v 0.02582977 0.01720509 0.07080634
v 0.01191942 -0.02865118 0.07080634
v 0.01220790 -0.02934763 0.06737821
v 0.00610489 0.03038485 0.07080635
v -0.03034197 -0.00606197 0.07080634
v 0.00005796 0.03098041 0.07080635
v 0.02869406 -0.01187653 0.07080634
v -0.01758103 -0.02641366 0.06737821
v -0.01716223 -0.02578687 0.07080634
v -0.02185913 0.02190208 0.07080634
v 0.02869406 0.01184638 0.07080634
v 0.00610487 -0.03041500 0.07080634
v 0.01191943 0.02862102 0.07080635
v 0.02582977 -0.01723524 0.07080634
v -0.02185917 -0.02193218 0.07080634
v -0.01716217 0.02575675 0.07080635
v 0.03045789 0.00603185 0.07080635
v -0.02915323 -0.00582552 0.07304680
v -0.02972550 -0.00001505 0.11429953
v -0.02972550 -0.00001505 0.07304680
v 0.02984143 -0.00001507 0.07304680
v -0.02745838 -0.01141269 0.07304680
v 0.02926915 -0.00582553 0.07304680
v 0.02757430 -0.01141271 0.07304680
v 0.02482201 -0.01656188 0.07304680
v -0.02915322 0.00579543 0.07304680
v 0.02111806 -0.02107517 0.07304680
v -0.02745836 0.01138260 0.07304680
v 0.01660477 -0.02477912 0.07304680
v -0.02470607 0.01653176 0.07304680
v 0.01145559 -0.02753142 0.07304680
v 0.00586843 0.02919611 0.07304680
v -0.02100210 0.02104504 0.07304680
v 0.00586842 -0.02922626 0.07304680
v 0.01145560 0.02750126 0.07304680
v -0.01648881 0.02474899 0.07304681
v 0.00005796 -0.02979854 0.07304680
v 0.01660478 0.02474897 0.07304681
v -0.01133964 0.02750128 0.07304680
v -0.00575252 -0.02922626 0.07304680
v 0.02111806 0.02104502 0.07304680
v -0.00575246 0.02919612 0.07304680
v -0.01133969 -0.02753141 0.07304680
v 0.02482201 0.01653173 0.07304680
v 0.00005796 0.02976839 0.07304680
v -0.01648886 -0.02477912 0.07304680
v 0.02757430 0.01138256 0.07304680
v 0.02926915 0.00579539 0.07304680
v -0.02745835 0.01138260 0.11429952
v -0.02486488 0.01663789 0.11670953
v -0.02470607 0.01653176 0.11429953
v 0.02482201 -0.01656188 0.11429953
v -0.02915322 0.00579542 0.11429953
v 0.02111806 -0.02107517 0.11429953
v 0.01660478 -0.02477913 0.11429952
v 0.01145560 -0.02753142 0.11429952
v 0.00005797 0.02976839 0.11429953
v 0.00586844 0.02919611 0.11429953
v -0.02100210 0.02104504 0.11429953
v 0.00586842 -0.02922626 0.11429953
v 0.01145561 0.02750126 0.11429953
v -0.01648881 0.02474899 0.11429953
v 0.00005796 -0.02979854 0.11429953
v 0.01660478 0.02474897 0.11429953
v -0.01133963 0.02750128 0.11429953
v -0.00575251 -0.02922626 0.11429953
v 0.02111806 0.02104502 0.11429953
v -0.00575246 0.02919612 0.11429953
v -0.01133969 -0.02753141 0.11429952
v 0.02482201 0.01653173 0.11429953
v -0.01648886 -0.02477911 0.11429952
v 0.02757430 0.01138256 0.11429952
v -0.02100214 -0.02107516 0.11429953
v 0.02926915 0.00579539 0.11429953
v -0.02470610 -0.01656187 0.11429953
v 0.02984143 -0.00001508 0.11429953
v -0.02745838 -0.01141270 0.11429953
v 0.02926915 -0.00582554 0.11429952
v -0.02915323 -0.00582552 0.11429952
v 0.02757430 -0.01141271 0.11429953
v 0.01152871 0.02767774 0.11670953
v 0.01714302 0.02555449 0.11932132
v 0.01671090 0.02490779 0.11670953
v 0.01152870 -0.02770789 0.11670952
v 0.00005797 0.02995940 0.11670953
v 0.00590570 0.02938345 0.11670953
v -0.02113717 0.02118011 0.11670953
v 0.00590569 -0.02941361 0.11670953
v -0.01659493 0.02490782 0.11670953
v 0.00005796 -0.02998956 0.11670953
v -0.01141273 0.02767775 0.11670953
v -0.00578978 -0.02941360 0.11670953
v 0.02125313 0.02118009 0.11670953
v -0.00578972 0.02938346 0.11670953
v -0.01141279 -0.02770788 0.11670952
v 0.02498084 0.01663786 0.11670953
v -0.01659498 -0.02493794 0.11670952
v 0.02775077 0.01145566 0.11670953
v -0.02113721 -0.02121022 0.11670953
v 0.02945650 0.00583266 0.11670953
v -0.02486492 -0.01666799 0.11670953
v 0.03003245 -0.00001508 0.11670953
v -0.02763485 -0.01148579 0.11670953
v 0.02945650 -0.00586280 0.11670953
v -0.02934057 -0.00586278 0.11670953
v 0.02775077 -0.01148581 0.11670953
v -0.02991651 -0.00001505 0.11670953
v 0.02498084 -0.01666801 0.11670953
v -0.02934056 0.00583269 0.11670953
v 0.02125313 -0.02121023 0.11670953
v -0.02763484 0.01145569 0.11670953
v 0.01671089 -0.02493795 0.11670952
v 0.02562754 0.01706996 0.11932132
v 0.02846936 0.01175331 0.15171787
v 0.02846935 0.01175331 0.11932132
v -0.01171037 0.02839633 0.11932132
v -0.00594151 -0.03017644 0.11932132
v 0.02180310 0.02173006 0.11932132
v -0.00594146 0.03014631 0.11932132
v -0.01171043 -0.02842646 0.11932132
v 0.00005797 0.03073719 0.11932132
v -0.01702709 -0.02558464 0.11932132
v -0.02168718 -0.02176020 0.11932132
v 0.03021934 0.00598439 0.11932132
v -0.02551162 -0.01710010 0.11932132
v 0.03081023 -0.00001508 0.11932132
v -0.02835343 -0.01178344 0.11932132
v 0.03021934 -0.00601454 0.11932132
v -0.03010341 -0.00601452 0.11932132
v 0.02846936 -0.01178346 0.11932132
v -0.03069430 -0.00001504 0.11932132
v 0.02562754 -0.01710012 0.11932132
v -0.03010340 0.00598443 0.11932132
v 0.02180310 -0.02176021 0.11932132
v -0.02835341 0.01175334 0.11932132
v 0.01714301 -0.02558465 0.11932132
v -0.02551158 0.01707000 0.11932132
v 0.01182635 -0.02842647 0.11932132
v 0.00605743 0.03014629 0.11932132
v -0.02168714 0.02173009 0.11932132
v 0.00605743 -0.03017645 0.11932132
v 0.01182635 0.02839631 0.11932132
v -0.01702704 0.02555452 0.11932132
v 0.00005796 -0.03076734 0.11932132
v 0.03081023 -0.00001508 0.15171787
v 0.02937464 -0.00584652 0.15308911
v 0.03021934 -0.00601454 0.15171787
v -0.02168718 -0.02176020 0.15171787
v 0.03021934 0.00598439 0.15171787
v -0.02551162 -0.01710010 0.15171787
v -0.02835343 -0.01178344 0.15171787
v -0.03010340 -0.00601452 0.15171787
v 0.02846936 -0.01178346 0.15171787
v -0.03069430 -0.00001505 0.15171787
v 0.02562754 -0.01710012 0.15171787
v -0.03010340 0.00598443 0.15171787
v 0.02180311 -0.02176022 0.15171787
v -0.02835341 0.01175334 0.15171787
v 0.01714302 -0.02558466 0.15171787
v -0.02551158 0.01706999 0.15171787
v 0.01182635 -0.02842647 0.15171787
v 0.00605744 0.03014629 0.15171788
v -0.02168714 0.02173009 0.15171788
v 0.00605743 -0.03017645 0.15171787
v 0.01182636 0.02839631 0.15171788
v -0.01702704 0.02555452 0.15171788
v 0.00005796 -0.03076734 0.15171787
v 0.01714302 0.02555449 0.15171788
v -0.01171037 0.02839633 0.15171788
v -0.00594151 -0.03017644 0.15171787
v 0.02180311 0.02173006 0.15171788
v -0.00594146 0.03014630 0.15171788
v -0.01171043 -0.02842646 0.15171787
v 0.02562754 0.01706996 0.15171787
v 0.00005797 0.03073719 0.15171788
v -0.01702709 -0.02558464 0.15171787
v 0.02491145 -0.01662164 0.15308911
v 0.01854339 -0.01850050 0.15514670
v 0.02119411 -0.02115122 0.15308911
v -0.02925871 -0.00584650 0.15308911
v 0.02767367 -0.01145387 0.15308911
v -0.02983305 -0.00001505 0.15308911
v -0.02925870 0.00581640 0.15308911
v -0.02755772 0.01142375 0.15308911
v 0.01666453 -0.02486856 0.15308911
v -0.02479548 0.01659152 0.15308911
v 0.01149676 -0.02763079 0.15308911
v 0.00588942 0.02930160 0.15308911
v -0.02107815 0.02112109 0.15308911
v 0.00588941 -0.02933175 0.15308911
v 0.01149677 0.02760062 0.15308911
v -0.01654856 0.02483843 0.15308911
v 0.00005796 -0.02990610 0.15308911
v 0.01666453 0.02483840 0.15308911
v -0.01138078 0.02760065 0.15308911
v -0.00577349 -0.02933175 0.15308911
v 0.02119411 0.02112107 0.15308911
v -0.00577343 0.02930160 0.15308911
v -0.01138084 -0.02763077 0.15308911
v 0.02491145 0.01659148 0.15308911
v 0.00005797 0.02987594 0.15308911
v -0.01654861 -0.02486854 0.15308911
v 0.02767367 0.01142372 0.15308911
v -0.02107819 -0.02115121 0.15308911
v 0.02937464 0.00581637 0.15308911
v -0.02479552 -0.01662162 0.15308911
v 0.02994899 -0.00001508 0.15308911
v -0.02755774 -0.01145386 0.15308911
v 0.00515808 -0.02565510 0.15514670
v 0.00632816 -0.01515266 0.16032531
v 0.00325448 -0.01608504 0.16032531
v -0.02558205 0.00508507 0.15514670
v -0.02409439 0.00998919 0.15514670
v 0.01458188 -0.02175164 0.15514670
v -0.02167857 0.01450886 0.15514670
v 0.01006221 -0.02416745 0.15514670
v 0.00515809 0.02562494 0.15514670
v -0.01842743 0.01847037 0.15514670
v 0.01006221 0.02413730 0.15514670
v -0.01446590 0.02172151 0.15514670
v 0.00005796 -0.02615741 0.15514670
v 0.01458188 0.02172148 0.15514670
v -0.00994623 0.02413731 0.15514670
v -0.00504216 -0.02565510 0.15514670
v 0.01854339 0.01847035 0.15514670
v -0.00504211 0.02562496 0.15514670
v -0.00994628 -0.02416744 0.15514670
v 0.02179453 0.01450883 0.15514670
v 0.00005797 0.02612726 0.15514670
v -0.01446594 -0.02175163 0.15514670
v 0.02421034 0.00998916 0.15514670
v -0.01842747 -0.01850049 0.15514670
v 0.02569799 0.00508504 0.15514670
v -0.02167861 -0.01453896 0.15514670
v 0.02620031 -0.00001508 0.15514670
v -0.02409441 -0.01001929 0.15514670
v 0.02569799 -0.00511519 0.15514670
v -0.02558205 -0.00511517 0.15514670
v 0.02421034 -0.01001931 0.15514670
v -0.02608437 -0.00001505 0.15514670
v 0.02179453 -0.01453898 0.15514670
v -0.00313855 -0.01608504 0.16032531
v -0.00342008 -0.00841182 0.16606764
v -0.00621223 -0.01515265 0.16032531
v 0.00632816 0.01512250 0.16032531
v -0.00904491 0.01360840 0.16032531
v 0.00005796 -0.01639988 0.16032531
v 0.00916088 0.01360838 0.16032531
v -0.00621220 0.01512251 0.16032531
v 0.01164377 0.01157073 0.16032531
v -0.00313852 0.01605490 0.16032531
v 0.01368143 0.00908783 0.16032531
v 0.00005797 0.01636972 0.16032531
v -0.00904495 -0.01363853 0.16032531
v 0.01519554 0.00625512 0.16032531
v -0.01152784 -0.01160086 0.16032531
v 0.01612793 0.00318144 0.16032531
v -0.01356550 -0.00911797 0.16032531
v 0.01644276 -0.00001507 0.16032531
v -0.01507962 -0.00628525 0.16032531
v 0.01612793 -0.00321159 0.16032531
v -0.01601200 -0.00321158 0.16032531
v 0.01519554 -0.00628526 0.16032531
v -0.01632683 -0.00001506 0.16032531
v 0.01368143 -0.00911798 0.16032531
v -0.01601199 0.00318145 0.16032531
v 0.01164377 -0.01160087 0.16032531
v -0.01507960 0.00625514 0.16032531
v 0.00916087 -0.01363853 0.16032531
v -0.01356548 0.00908785 0.16032531
v 0.00325448 0.01605489 0.16032531
v -0.01152782 0.01157074 0.16032531
v -0.00636862 -0.00644165 0.16606764
v -0.00651093 -0.00440426 0.17316187
v -0.00749891 -0.00506441 0.16606764
v 0.00648456 0.00641152 0.16606764
v 0.00761483 0.00503426 0.16606764
v -0.00171511 0.00889887 0.16606764
v 0.00005797 0.00907350 0.16606764
v -0.00499137 -0.00757194 0.16606764
v 0.00845471 0.00346298 0.16606764
v 0.00897191 0.00175802 0.16606764
v 0.00914654 -0.00001507 0.16606764
v -0.00833878 -0.00349311 0.16606764
v 0.00897191 -0.00178816 0.16606764
v -0.00885597 -0.00178815 0.16606764
v 0.00845471 -0.00349312 0.16606764
v -0.00903060 -0.00001506 0.16606764
v 0.00761483 -0.00506441 0.16606764
v -0.00885597 0.00175803 0.16606764
v 0.00648456 -0.00644166 0.16606764
v -0.00833877 0.00346298 0.16606764
v 0.00510731 -0.00757194 0.16606764
v -0.00749889 0.00503428 0.16606764
v 0.00353601 -0.00841182 0.16606764
v 0.00183106 0.00889886 0.16606764
v -0.00636861 0.00641153 0.16606764
v 0.00183106 -0.00892901 0.16606764
v 0.00353602 0.00838167 0.16606764
v -0.00499136 0.00754181 0.16606764
v 0.00005796 -0.00910364 0.16606764
v 0.00510731 0.00754179 0.16606764
v -0.00342007 0.00838168 0.16606764
v -0.00171512 -0.00892901 0.16606764
v -0.00769057 -0.00155635 0.17316187
v -0.00829316 -0.00001507 0.18574644
v -0.00784237 -0.00001506 0.17316187
v 0.00780650 0.00152621 0.17316187
v 0.00795830 -0.00001507 0.17316187
v -0.00724100 -0.00303839 0.17316187
v 0.00780650 -0.00155635 0.17316187
v 0.00735693 -0.00303840 0.17316187
v 0.00662686 -0.00440427 0.17316187
v -0.00769057 0.00152622 0.17316187
v 0.00564435 -0.00560145 0.17316187
v -0.00724099 0.00300826 0.17316187
v 0.00444716 -0.00658396 0.17316187
v -0.00651092 0.00437413 0.17316187
v 0.00308130 -0.00731403 0.17316187
v 0.00159924 0.00773346 0.17316187
v -0.00552841 0.00557132 0.17316187
v 0.00159924 -0.00776361 0.17316187
v 0.00308130 0.00728389 0.17316187
v -0.00433121 0.00655383 0.17316187
v 0.00005796 -0.00791541 0.17316187
v 0.00444717 0.00655382 0.17316187
v -0.00296535 0.00728390 0.17316187
v -0.00148331 -0.00776361 0.17316187
v 0.00564435 0.00557132 0.17316187
v -0.00148330 0.00773347 0.17316187
v -0.00296536 -0.00731403 0.17316187
v 0.00662686 0.00437412 0.17316187
v 0.00005797 0.00788527 0.17316187
v -0.00433123 -0.00658396 0.17316187
v 0.00735693 0.00300826 0.17316187
v -0.00552842 -0.00560145 0.17316187
v -0.00765746 0.00318077 0.18574644
v -0.00730442 0.00490433 0.18713191
v -0.00688573 0.00462458 0.18574644
v 0.00700168 -0.00465471 0.18574644
v -0.00813269 0.00161416 0.18574644
v 0.00596311 -0.00592021 0.18574644
v 0.00469761 -0.00695878 0.18574644
v 0.00325381 -0.00773051 0.18574644
v 0.00168720 0.00817559 0.18574644
v -0.00584716 0.00589007 0.18574644
v 0.00168720 -0.00820574 0.18574644
v 0.00325381 0.00770037 0.18574644
v -0.00458165 0.00692865 0.18574644
v 0.00005797 -0.00836620 0.18574644
v 0.00469761 0.00692864 0.18574644
v -0.00313785 0.00770037 0.18574644
v -0.00157126 -0.00820574 0.18574644
v 0.00596311 0.00589007 0.18574644
v -0.00157124 0.00817560 0.18574644
v -0.00313787 -0.00773051 0.18574644
v 0.00700168 0.00462456 0.18574644
v 0.00005798 0.00833606 0.18574644
v -0.00458167 -0.00695878 0.18574644
v 0.00777341 0.00318077 0.18574644
v -0.00584717 -0.00592021 0.18574644
v 0.00824864 0.00161416 0.18574644
v -0.00688574 -0.00465471 0.18574644
v 0.00840911 -0.00001507 0.18574644
v -0.00765747 -0.00321090 0.18574644
v 0.00824864 -0.00164429 0.18574644
v -0.00813269 -0.00164429 0.18574644
v 0.00777341 -0.00321091 0.18574644
v 0.00497737 0.00734732 0.18713191
v 0.00355740 0.00843330 0.18796200
v 0.00513836 0.00758826 0.18796200
v 0.00497737 -0.00737746 0.18713191
v 0.00344651 -0.00819573 0.18713191
v 0.00178544 0.00866947 0.18713191
v -0.00620322 0.00624614 0.18713191
v 0.00178544 -0.00869961 0.18713191
v 0.00344651 0.00816558 0.18713191
v -0.00486141 0.00734733 0.18713191
v 0.00005797 -0.00886975 0.18713191
v -0.00333055 0.00816559 0.18713191
v -0.00166950 -0.00869961 0.18713191
v 0.00631917 0.00624613 0.18713191
v -0.00166948 0.00866947 0.18713191
v -0.00333057 -0.00819573 0.18713191
v 0.00742037 0.00490432 0.18713191
v 0.00005797 0.00883960 0.18713191
v -0.00486143 -0.00737746 0.18713191
v 0.00823862 0.00337347 0.18713191
v -0.00620323 -0.00627627 0.18713191
v 0.00874251 0.00171239 0.18713191
v -0.00730443 -0.00493446 0.18713191
v 0.00891265 -0.00001507 0.18713191
v -0.00812269 -0.00340360 0.18713191
v 0.00874251 -0.00174253 0.18713191
v -0.00862657 -0.00174252 0.18713191
v 0.00823862 -0.00340361 0.18713191
v -0.00879670 -0.00001507 0.18713191
v 0.00742037 -0.00493446 0.18713191
v -0.00862656 0.00171240 0.18713191
v 0.00631917 -0.00627628 0.18713191
v -0.00812268 0.00337347 0.18713191
v 0.00766130 0.00506531 0.18796200
v 0.00850634 0.00348435 0.18878755
v 0.00850634 0.00348435 0.18796199
v -0.00502240 0.00758827 0.18796200
v -0.00344144 0.00843330 0.18796200
v -0.00172602 -0.00898381 0.18796199
v 0.00652407 0.00645103 0.18796200
v -0.00172601 0.00895367 0.18796200
v -0.00344146 -0.00846344 0.18796199
v 0.00005798 0.00912937 0.18796200
v -0.00502241 -0.00761840 0.18796199
v -0.00640813 -0.00648117 0.18796199
v 0.00902671 0.00176892 0.18796199
v -0.00754536 -0.00509545 0.18796199
v 0.00920242 -0.00001507 0.18796199
v -0.00839040 -0.00351450 0.18796199
v 0.00902671 -0.00179906 0.18796199
v -0.00891077 -0.00179906 0.18796199
v 0.00850634 -0.00351450 0.18796199
v -0.00908648 -0.00001507 0.18796199
v 0.00766130 -0.00509546 0.18796199
v -0.00891077 0.00176893 0.18796199
v 0.00652407 -0.00648117 0.18796199
v -0.00839039 0.00348437 0.18796199
v 0.00513836 -0.00761840 0.18796199
v -0.00754535 0.00506532 0.18796200
v 0.00355740 -0.00846344 0.18796199
v 0.00184197 0.00895367 0.18796200
v -0.00640812 0.00645104 0.18796200
v 0.00184197 -0.00898381 0.18796199
v 0.00005797 -0.00915952 0.18796199
v 0.00920242 -0.00001507 0.18878755
v 0.00870127 -0.00173433 0.18988813
v 0.00902671 -0.00179906 0.18878755
v -0.00502241 -0.00761840 0.18878755
v -0.00640813 -0.00648117 0.18878755
v 0.00902671 0.00176892 0.18878755
v -0.00754536 -0.00509545 0.18878755
v -0.00839040 -0.00351450 0.18878755
v -0.00891077 -0.00179906 0.18878755
v 0.00850634 -0.00351450 0.18878755
v -0.00908648 -0.00001507 0.18878755
v 0.00766130 -0.00509546 0.18878755
v -0.00891077 0.00176893 0.18878755
v 0.00652407 -0.00648117 0.18878755
v -0.00839039 0.00348437 0.18878755
v 0.00513835 -0.00761840 0.18878755
v -0.00754536 0.00506532 0.18878755
v 0.00355740 -0.00846344 0.18878755
v 0.00184197 0.00895367 0.18878755
v -0.00640812 0.00645104 0.18878755
v 0.00184196 -0.00898381 0.18878755
v 0.00355740 0.00843330 0.18878755
v -0.00502240 0.00758827 0.18878755
v 0.00005797 -0.00915952 0.18878755
v 0.00513836 0.00758826 0.18878755
v -0.00344144 0.00843330 0.18878755
v -0.00172603 -0.00898381 0.18878755
v 0.00652407 0.00645103 0.18878755
v -0.00172601 0.00895367 0.18878755
v -0.00344146 -0.00846344 0.18878755
v 0.00766130 0.00506531 0.18878755
v 0.00005797 0.00912937 0.18878755
v 0.00738540 -0.00491110 0.18988813
v 0.00577809 -0.00573519 0.19099069
v 0.00628944 -0.00624654 0.18988813
v -0.00808383 -0.00338751 0.18988813
v -0.00858532 -0.00173433 0.18988813
v 0.00819977 -0.00338752 0.18988813
v -0.00875465 -0.00001507 0.18988813
v -0.00858532 0.00170420 0.18988813
v -0.00808383 0.00335738 0.18988813
v 0.00495401 -0.00734250 0.18988813
v -0.00726945 0.00488097 0.18988813
v 0.00343042 -0.00815688 0.18988813
v 0.00177723 0.00862822 0.18988813
v -0.00617349 0.00621640 0.18988813
v 0.00177723 -0.00865837 0.18988813
v 0.00343042 0.00812673 0.18988813
v -0.00483805 0.00731237 0.18988813
v 0.00005797 -0.00882770 0.18988813
v 0.00495401 0.00731235 0.18988813
v -0.00331446 0.00812674 0.18988813
v -0.00166129 -0.00865837 0.18988813
v 0.00628944 0.00621639 0.18988813
v -0.00166127 0.00862822 0.18988813
v -0.00331448 -0.00815688 0.18988813
v 0.00738540 0.00488096 0.18988813
v 0.00005797 0.00879755 0.18988813
v -0.00483807 -0.00734250 0.18988813
v 0.00819977 0.00335738 0.18988813
v -0.00617350 -0.00624654 0.18988813
v 0.00870126 0.00170419 0.18988813
v -0.00726946 -0.00491110 0.18988813
v 0.00887059 -0.00001507 0.18988813
v -0.00741572 0.00308064 0.19099069
v -0.00303774 -0.00748877 0.19099069
v 0.00753166 -0.00311078 0.19099069
v 0.00455224 -0.00674122 0.19099069
v -0.00666817 0.00447920 0.19099069
v 0.00315368 -0.00748877 0.19099069
v 0.00163615 0.00791896 0.19099069
v -0.00566214 0.00570505 0.19099069
v 0.00163614 -0.00794910 0.19099069
v 0.00315368 0.00745862 0.19099069
v -0.00443629 0.00671108 0.19099069
v 0.00005797 -0.00810454 0.19099069
v 0.00455224 0.00671107 0.19099069
v -0.00303772 0.00745863 0.19099069
v -0.00152021 -0.00794910 0.19099069
v 0.00577809 0.00570504 0.19099069
v -0.00152019 0.00791896 0.19099069
v 0.00678412 0.00447919 0.19099069
v 0.00005797 0.00807440 0.19099069
v -0.00443630 -0.00674122 0.19099069
v 0.00753166 0.00308064 0.19099069
v -0.00566215 -0.00573518 0.19099069
v 0.00799201 0.00156310 0.19099069
v -0.00666818 -0.00450934 0.19099069
v 0.00814744 -0.00001507 0.19099069
v -0.00741572 -0.00311077 0.19099069
v 0.00799201 -0.00159325 0.19099069
v -0.00787606 -0.00159324 0.19099069
v -0.00803149 -0.00001507 0.19099069
v 0.00678412 -0.00450934 0.19099069
v -0.00787605 0.00156311 0.19099069
f 1 2 3
f 4 5 2
f 6 7 5
f 8 9 7
f 10 11 9
f 12 13 11
f 14 15 13
f 16 17 15
f 18 19 17
f 20 21 19
f 22 23 21
f 24 25 23
f 26 27 25
f 28 29 27
f 29 30 31
f 30 32 31
f 33 34 32
f 35 36 34
f 37 38 36
f 38 39 40
f 39 41 40
f 42 43 41
f 43 44 45
f 44 46 45
f 47 48 46
f 49 50 48
f 50 51 52
f 52 53 54
f 53 55 54
f 56 57 55
f 30 58 33
f 59 60 57
f 61 3 60
f 7 62 5
f 63 64 65
f 23 66 67
f 41 68 40
f 55 69 70
f 17 71 15
f 34 72 32
f 50 73 48
f 9 74 7
f 27 66 25
f 41 75 76
f 60 69 57
f 19 77 17
f 36 78 34
f 50 79 80
f 11 81 9
f 29 82 27
f 43 83 75
f 3 84 85
f 3 86 60
f 21 87 19
f 38 65 36
f 52 88 79
f 13 89 11
f 29 90 91
f 46 83 45
f 2 62 84
f 23 92 21
f 40 63 38
f 54 70 88
f 15 93 13
f 32 90 31
f 48 94 46
f 95 96 97
f 93 98 89
f 68 99 63
f 71 100 93
f 68 97 101
f 77 102 71
f 75 97 76
f 87 103 77
f 83 95 75
f 92 104 87
f 94 105 83
f 67 106 92
f 73 107 94
f 66 108 67
f 80 109 73
f 66 110 111
f 79 112 80
f 82 113 110
f 84 114 85
f 79 115 116
f 91 117 113
f 62 118 84
f 88 119 115
f 72 117 90
f 62 120 121
f 70 122 119
f 72 123 124
f 81 120 74
f 86 122 69
f 78 64 123
f 81 98 125
f 85 126 86
f 127 128 129
f 104 130 103
f 105 131 95
f 106 132 104
f 107 133 105
f 108 134 106
f 109 129 107
f 111 135 108
f 112 127 109
f 110 136 111
f 116 137 112
f 113 138 110
f 118 139 114
f 115 140 116
f 117 141 113
f 121 142 118
f 119 143 115
f 124 144 117
f 120 145 121
f 122 146 119
f 123 147 124
f 125 148 120
f 126 149 122
f 64 150 123
f 98 151 125
f 126 139 152
f 99 153 64
f 100 154 98
f 101 155 99
f 102 156 100
f 97 157 101
f 103 158 102
f 159 160 161
f 136 162 135
f 137 163 127
f 136 164 165
f 140 166 137
f 138 167 164
f 142 168 139
f 140 159 161
f 144 167 141
f 145 169 142
f 146 159 143
f 147 170 144
f 148 171 145
f 149 172 146
f 150 173 147
f 148 174 175
f 152 176 149
f 153 177 150
f 151 178 174
f 139 179 152
f 155 180 153
f 156 178 154
f 157 181 155
f 158 182 156
f 157 183 184
f 130 185 158
f 96 186 183
f 132 187 130
f 133 186 131
f 134 188 132
f 129 189 133
f 135 190 134
f 191 192 193
f 167 192 194
f 171 195 169
f 172 196 159
f 173 192 170
f 171 197 198
f 176 199 172
f 177 200 173
f 175 201 197
f 179 202 176
f 180 203 177
f 174 204 201
f 168 205 179
f 180 206 207
f 182 204 178
f 184 206 181
f 182 191 208
f 183 209 184
f 185 210 191
f 186 211 183
f 187 212 210
f 189 213 186
f 190 212 188
f 189 214 193
f 190 215 216
f 163 214 128
f 165 215 162
f 166 217 163
f 164 218 165
f 161 219 166
f 167 220 164
f 169 221 168
f 222 223 224
f 49 225 226
f 6 227 8
f 24 228 26
f 39 222 42
f 56 229 59
f 16 230 18
f 33 231 35
f 49 232 233
f 8 234 10
f 26 235 28
f 42 236 237
f 59 238 61
f 20 230 239
f 37 231 240
f 233 241 51
f 10 242 12
f 28 243 244
f 1 245 4
f 44 236 246
f 1 238 247
f 20 248 22
f 249 240 250
f 51 251 53
f 12 252 14
f 244 253 30
f 44 225 47
f 4 254 6
f 22 255 24
f 249 256 39
f 53 257 56
f 14 258 16
f 259 260 261
f 258 262 230
f 236 224 263
f 230 264 239
f 236 259 246
f 239 265 248
f 246 261 225
f 255 265 266
f 225 267 226
f 255 268 228
f 232 267 269
f 235 268 270
f 232 271 241
f 243 270 272
f 247 273 245
f 241 274 251
f 253 272 275
f 245 276 254
f 257 274 277
f 253 278 58
f 254 279 227
f 229 277 280
f 58 281 231
f 227 282 234
f 229 283 238
f 231 284 240
f 234 285 242
f 238 286 247
f 240 287 250
f 242 288 252
f 250 223 256
f 252 289 258
f 290 291 292
f 265 293 266
f 267 260 294
f 266 295 268
f 267 290 269
f 270 295 296
f 269 292 271
f 270 297 272
f 273 298 299
f 271 300 274
f 272 301 275
f 273 302 276
f 277 300 303
f 275 304 278
f 279 302 305
f 277 306 280
f 278 307 281
f 279 308 282
f 280 309 283
f 281 310 284
f 282 311 285
f 283 298 286
f 284 312 287
f 285 313 288
f 287 314 223
f 289 313 315
f 223 316 224
f 289 317 262
f 224 318 263
f 262 319 264
f 263 320 259
f 264 321 265
f 322 323 324
f 296 325 297
f 299 326 327
f 292 328 300
f 297 329 301
f 302 327 322
f 300 330 303
f 301 331 304
f 302 324 305
f 306 330 332
f 304 333 307
f 308 324 334
f 309 332 335
f 307 336 310
f 308 337 311
f 298 335 326
f 310 338 312
f 311 339 313
f 312 340 314
f 313 341 315
f 314 342 316
f 317 341 343
f 316 344 318
f 317 345 319
f 318 346 320
f 319 347 321
f 320 348 260
f 321 349 293
f 260 350 294
f 293 351 295
f 294 352 290
f 296 351 353
f 354 355 356
f 330 357 332
f 331 358 333
f 324 359 334
f 332 360 335
f 333 361 336
f 334 354 337
f 335 362 326
f 336 363 338
f 337 356 339
f 338 364 340
f 341 356 365
f 342 364 366
f 341 367 343
f 342 368 344
f 345 367 369
f 344 370 346
f 345 371 347
f 346 372 348
f 347 373 349
f 350 372 374
f 349 375 351
f 350 376 352
f 353 375 377
f 291 376 378
f 353 379 325
f 326 380 327
f 291 381 328
f 325 382 329
f 327 383 322
f 330 381 384
f 331 382 385
f 386 387 388
f 363 389 364
f 356 390 365
f 364 391 366
f 365 386 367
f 366 392 368
f 367 388 369
f 368 393 370
f 369 394 371
f 370 395 372
f 371 396 373
f 372 397 374
f 373 398 375
f 374 399 376
f 375 400 377
f 376 401 378
f 377 402 379
f 362 403 380
f 378 404 381
f 379 405 382
f 383 403 406
f 381 407 384
f 382 408 385
f 383 409 323
f 357 407 410
f 385 411 358
f 359 409 412
f 357 413 360
f 361 411 414
f 359 415 354
f 360 416 362
f 361 417 363
f 418 419 420
f 392 421 393
f 394 387 422
f 393 423 395
f 394 418 396
f 395 424 397
f 398 418 420
f 399 424 425
f 398 426 400
f 399 427 401
f 402 426 428
f 416 429 403
f 401 430 404
f 405 428 431
f 406 429 432
f 404 433 407
f 405 434 408
f 406 435 409
f 410 433 436
f 408 437 411
f 412 435 438
f 410 439 413
f 411 440 414
f 412 441 415
f 413 442 416
f 414 443 417
f 355 441 444
f 389 443 445
f 355 446 390
f 389 447 391
f 390 448 386
f 391 449 392
f 450 451 452
f 425 453 454
f 420 455 426
f 427 454 456
f 426 457 428
f 442 458 429
f 427 459 430
f 431 457 450
f 429 460 432
f 430 461 433
f 431 462 434
f 435 460 463
f 433 464 436
f 437 462 465
f 435 466 438
f 439 464 467
f 440 465 468
f 438 469 441
f 442 467 470
f 443 468 471
f 441 472 444
f 445 471 473
f 444 474 446
f 445 475 447
f 446 476 448
f 449 475 477
f 448 478 387
f 421 477 479
f 387 480 422
f 423 479 481
f 422 482 418
f 423 453 424
f 483 484 485
f 458 486 460
f 459 487 461
f 450 488 462
f 460 489 463
f 464 487 490
f 465 488 483
f 463 491 466
f 464 492 467
f 465 485 468
f 466 493 469
f 467 494 470
f 471 485 495
f 469 496 472
f 473 495 497
f 472 498 474
f 473 499 475
f 474 500 476
f 477 499 501
f 476 502 478
f 479 501 503
f 480 502 504
f 481 503 505
f 480 506 482
f 481 507 453
f 482 508 419
f 454 507 509
f 419 510 455
f 454 511 456
f 455 451 457
f 470 512 458
f 456 513 459
f 514 515 516
f 493 517 518
f 494 519 520
f 485 521 495
f 493 522 496
f 497 521 514
f 496 523 498
f 497 516 499
f 498 524 500
f 499 525 501
f 500 526 502
f 501 527 503
f 504 526 528
f 505 527 529
f 504 530 506
f 505 531 507
f 508 530 532
f 509 531 533
f 508 534 510
f 511 533 535
f 510 536 451
f 494 537 512
f 513 535 538
f 451 539 452
f 512 540 486
f 513 541 487
f 452 542 488
f 486 543 489
f 490 541 544
f 483 542 545
f 489 517 491
f 490 519 492
f 546 547 548
f 524 549 550
f 516 551 525
f 524 552 526
f 527 551 546
f 528 552 553
f 527 548 529
f 528 554 530
f 529 555 531
f 530 556 532
f 531 557 533
f 532 558 534
f 533 559 535
f 534 560 536
f 520 561 537
f 535 562 538
f 536 563 539
f 537 564 540
f 538 565 541
f 539 566 542
f 540 567 543
f 541 568 544
f 545 566 569
f 543 570 517
f 544 571 519
f 545 572 484
f 517 573 518
f 519 574 520
f 521 572 575
f 522 573 576
f 521 577 514
f 522 549 523
f 578 579 580
f 553 581 554
f 548 582 555
f 554 583 556
f 555 578 557
f 556 584 558
f 557 580 559
f 558 585 560
f 574 586 561
f 559 587 562
f 560 588 563
f 564 586 589
f 562 590 565
f 563 591 566
f 567 589 592
f 568 590 593
f 566 594 569
f 567 595 570
f 568 596 571
f 569 597 572
f 570 598 573
f 574 596 599
f 572 600 575
f 573 601 576
f 575 602 577
f 576 603 549
f 577 604 515
f 549 605 550
f 515 606 551
f 552 605 607
f 551 608 546
f 552 609 553
f 610 611 612
f 585 613 614
f 599 615 586
f 580 616 587
f 588 614 617
f 586 618 589
f 587 619 590
f 591 617 620
f 589 610 592
f 590 621 593
f 594 620 622
f 592 623 595
f 593 624 596
f 597 622 625
f 595 626 598
f 596 627 599
f 600 625 628
f 598 629 601
f 602 628 630
f 603 629 631
f 604 630 632
f 603 633 605
f 606 632 634
f 607 633 635
f 606 636 608
f 609 635 637
f 608 638 547
f 581 637 639
f 582 638 640
f 583 639 641
f 582 642 578
f 584 641 613
f 643 644 645
f 621 646 647
f 620 648 622
f 623 612 649
f 624 647 650
f 622 651 625
f 626 649 643
f 627 650 652
f 625 653 628
f 629 643 645
f 628 654 630
f 631 645 655
f 630 656 632
f 631 657 633
f 632 658 634
f 635 657 659
f 634 660 636
f 635 661 637
f 636 662 638
f 637 663 639
f 638 664 640
f 639 665 641
f 640 666 642
f 641 667 613
f 579 666 668
f 613 669 614
f 615 652 670
f 616 668 671
f 614 672 617
f 618 670 611
f 619 671 646
f 617 673 620
f 674 675 676
f 654 677 678
f 645 679 655
f 656 678 680
f 655 674 657
f 658 680 681
f 657 676 659
f 660 681 682
f 661 676 683
f 662 682 684
f 663 683 685
f 662 686 664
f 665 685 687
f 664 688 666
f 667 687 689
f 666 690 668
f 669 689 691
f 652 692 670
f 668 693 671
f 672 691 694
f 670 695 611
f 671 696 646
f 673 694 697
f 611 698 612
f 646 699 647
f 648 697 700
f 612 701 649
f 647 702 650
f 651 700 703
f 649 704 643
f 650 705 652
f 653 703 677
f 706 707 708
f 682 709 710
f 676 711 683
f 684 710 712
f 683 706 685
f 684 713 686
f 687 706 708
f 688 713 714
f 687 715 689
f 688 716 690
f 689 717 691
f 705 718 692
f 693 716 719
f 694 717 720
f 695 718 721
f 693 722 696
f 697 720 723
f 695 724 698
f 696 725 699
f 700 723 726
f 698 727 701
f 699 728 702
f 700 729 703
f 701 730 704
f 705 728 731
f 703 732 677
f 704 733 644
f 677 734 678
f 644 735 679
f 680 734 736
f 674 735 737
f 680 709 681
f 738 739 740
f 713 738 714
f 708 741 715
f 714 742 716
f 715 743 717
f 731 744 718
f 716 745 719
f 720 743 746
f 718 747 721
f 719 748 722
f 720 749 723
f 721 750 724
f 725 748 751
f 723 752 726
f 724 753 727
f 725 754 728
f 726 739 729
f 730 753 755
f 728 756 731
f 732 739 757
f 730 758 733
f 732 759 734
f 733 760 735
f 734 761 736
f 735 762 737
f 736 763 709
f 737 764 675
f 710 763 765
f 711 764 740
f 710 766 712
f 711 767 706
f 713 766 768
f 1 4 2
f 4 6 5
f 6 8 7
f 8 10 9
f 10 12 11
f 12 14 13
f 14 16 15
f 16 18 17
f 18 20 19
f 20 22 21
f 22 24 23
f 24 26 25
f 26 28 27
f 28 244 29
f 29 244 30
f 30 33 32
f 33 35 34
f 35 37 36
f 37 249 38
f 38 249 39
f 39 42 41
f 42 237 43
f 43 237 44
f 44 47 46
f 47 49 48
f 49 233 50
f 50 233 51
f 52 51 53
f 53 56 55
f 56 59 57
f 30 253 58
f 59 61 60
f 61 1 3
f 7 74 62
f 63 99 64
f 23 25 66
f 41 76 68
f 55 57 69
f 17 77 71
f 34 78 72
f 50 80 73
f 9 81 74
f 27 82 66
f 41 43 75
f 60 86 69
f 19 87 77
f 36 65 78
f 50 52 79
f 11 89 81
f 29 91 82
f 43 45 83
f 3 2 84
f 3 85 86
f 21 92 87
f 38 63 65
f 52 54 88
f 13 93 89
f 29 31 90
f 46 94 83
f 2 5 62
f 23 67 92
f 40 68 63
f 54 55 70
f 15 71 93
f 32 72 90
f 48 73 94
f 95 131 96
f 93 100 98
f 68 101 99
f 71 102 100
f 68 76 97
f 77 103 102
f 75 95 97
f 87 104 103
f 83 105 95
f 92 106 104
f 94 107 105
f 67 108 106
f 73 109 107
f 66 111 108
f 80 112 109
f 66 82 110
f 79 116 112
f 82 91 113
f 84 118 114
f 79 88 115
f 91 90 117
f 62 121 118
f 88 70 119
f 72 124 117
f 62 74 120
f 70 69 122
f 72 78 123
f 81 125 120
f 86 126 122
f 78 65 64
f 81 89 98
f 85 114 126
f 127 163 128
f 104 132 130
f 105 133 131
f 106 134 132
f 107 129 133
f 108 135 134
f 109 127 129
f 111 136 135
f 112 137 127
f 110 138 136
f 116 140 137
f 113 141 138
f 118 142 139
f 115 143 140
f 117 144 141
f 121 145 142
f 119 146 143
f 124 147 144
f 120 148 145
f 122 149 146
f 123 150 147
f 125 151 148
f 126 152 149
f 64 153 150
f 98 154 151
f 126 114 139
f 99 155 153
f 100 156 154
f 101 157 155
f 102 158 156
f 97 96 157
f 103 130 158
f 159 196 160
f 136 165 162
f 137 166 163
f 136 138 164
f 140 161 166
f 138 141 167
f 142 169 168
f 140 143 159
f 144 170 167
f 145 171 169
f 146 172 159
f 147 173 170
f 148 175 171
f 149 176 172
f 150 177 173
f 148 151 174
f 152 179 176
f 153 180 177
f 151 154 178
f 139 168 179
f 155 181 180
f 156 182 178
f 157 184 181
f 158 185 182
f 157 96 183
f 130 187 185
f 96 131 186
f 132 188 187
f 133 189 186
f 134 190 188
f 129 128 189
f 135 162 190
f 205 221 195
f 195 198 197
f 197 201 204
f 204 208 197
f 208 191 197
f 191 210 212
f 212 216 191
f 216 215 191
f 215 218 220
f 220 194 192
f 192 200 203
f 203 207 192
f 207 206 192
f 206 209 211
f 211 213 206
f 213 193 206
f 193 214 217
f 217 219 193
f 219 160 193
f 160 196 199
f 199 202 205
f 205 195 191
f 195 197 191
f 215 220 191
f 220 192 191
f 160 199 193
f 199 205 193
f 192 206 193
f 205 191 193
f 167 170 192
f 171 198 195
f 172 199 196
f 173 200 192
f 171 175 197
f 176 202 199
f 177 203 200
f 175 174 201
f 179 205 202
f 180 207 203
f 174 178 204
f 168 221 205
f 180 181 206
f 182 208 204
f 184 209 206
f 182 185 191
f 183 211 209
f 185 187 210
f 186 213 211
f 187 188 212
f 189 193 213
f 190 216 212
f 189 128 214
f 190 162 215
f 163 217 214
f 165 218 215
f 166 219 217
f 164 220 218
f 161 160 219
f 167 194 220
f 169 195 221
f 222 256 223
f 49 47 225
f 6 254 227
f 24 255 228
f 39 256 222
f 56 257 229
f 16 258 230
f 33 58 231
f 49 226 232
f 8 227 234
f 26 228 235
f 42 222 236
f 59 229 238
f 20 18 230
f 37 35 231
f 233 232 241
f 10 234 242
f 28 235 243
f 1 247 245
f 44 237 236
f 1 61 238
f 20 239 248
f 249 37 240
f 51 241 251
f 12 242 252
f 244 243 253
f 44 246 225
f 4 245 254
f 22 248 255
f 249 250 256
f 53 251 257
f 14 252 258
f 259 320 260
f 258 289 262
f 236 222 224
f 230 262 264
f 236 263 259
f 239 264 265
f 246 259 261
f 255 248 265
f 225 261 267
f 255 266 268
f 232 226 267
f 235 228 268
f 232 269 271
f 243 235 270
f 247 286 273
f 241 271 274
f 253 243 272
f 245 273 276
f 257 251 274
f 253 275 278
f 254 276 279
f 229 257 277
f 58 278 281
f 227 279 282
f 229 280 283
f 231 281 284
f 234 282 285
f 238 283 286
f 240 284 287
f 242 285 288
f 250 287 223
f 252 288 289
f 290 352 291
f 265 321 293
f 267 261 260
f 266 293 295
f 267 294 290
f 270 268 295
f 269 290 292
f 270 296 297
f 273 286 298
f 271 292 300
f 272 297 301
f 273 299 302
f 277 274 300
f 275 301 304
f 279 276 302
f 277 303 306
f 278 304 307
f 279 305 308
f 280 306 309
f 281 307 310
f 282 308 311
f 283 309 298
f 284 310 312
f 285 311 313
f 287 312 314
f 289 288 313
f 223 314 316
f 289 315 317
f 224 316 318
f 262 317 319
f 263 318 320
f 264 319 321
f 322 383 323
f 296 353 325
f 299 298 326
f 292 291 328
f 297 325 329
f 302 299 327
f 300 328 330
f 301 329 331
f 302 322 324
f 306 303 330
f 304 331 333
f 308 305 324
f 309 306 332
f 307 333 336
f 308 334 337
f 298 309 335
f 310 336 338
f 311 337 339
f 312 338 340
f 313 339 341
f 314 340 342
f 317 315 341
f 316 342 344
f 317 343 345
f 318 344 346
f 319 345 347
f 320 346 348
f 321 347 349
f 260 348 350
f 293 349 351
f 294 350 352
f 296 295 351
f 354 415 355
f 330 384 357
f 331 385 358
f 324 323 359
f 332 357 360
f 333 358 361
f 334 359 354
f 335 360 362
f 336 361 363
f 337 354 356
f 338 363 364
f 341 339 356
f 342 340 364
f 341 365 367
f 342 366 368
f 345 343 367
f 344 368 370
f 345 369 371
f 346 370 372
f 347 371 373
f 350 348 372
f 349 373 375
f 350 374 376
f 353 351 375
f 291 352 376
f 353 377 379
f 326 362 380
f 291 378 381
f 325 379 382
f 327 380 383
f 330 328 381
f 331 329 382
f 386 448 387
f 363 417 389
f 356 355 390
f 364 389 391
f 365 390 386
f 366 391 392
f 367 386 388
f 368 392 393
f 369 388 394
f 370 393 395
f 371 394 396
f 372 395 397
f 373 396 398
f 374 397 399
f 375 398 400
f 376 399 401
f 377 400 402
f 362 416 403
f 378 401 404
f 379 402 405
f 383 380 403
f 381 404 407
f 382 405 408
f 383 406 409
f 357 384 407
f 385 408 411
f 359 323 409
f 357 410 413
f 361 358 411
f 359 412 415
f 360 413 416
f 361 414 417
f 418 482 419
f 392 449 421
f 394 388 387
f 393 421 423
f 394 422 418
f 395 423 424
f 398 396 418
f 399 397 424
f 398 420 426
f 399 425 427
f 402 400 426
f 416 442 429
f 401 427 430
f 405 402 428
f 406 403 429
f 404 430 433
f 405 431 434
f 406 432 435
f 410 407 433
f 408 434 437
f 412 409 435
f 410 436 439
f 411 437 440
f 412 438 441
f 413 439 442
f 414 440 443
f 355 415 441
f 389 417 443
f 355 444 446
f 389 445 447
f 390 446 448
f 391 447 449
f 450 457 451
f 425 424 453
f 420 419 455
f 427 425 454
f 426 455 457
f 442 470 458
f 427 456 459
f 431 428 457
f 429 458 460
f 430 459 461
f 431 450 462
f 435 432 460
f 433 461 464
f 437 434 462
f 435 463 466
f 439 436 464
f 440 437 465
f 438 466 469
f 442 439 467
f 443 440 468
f 441 469 472
f 445 443 471
f 444 472 474
f 445 473 475
f 446 474 476
f 449 447 475
f 448 476 478
f 421 449 477
f 387 478 480
f 423 421 479
f 422 480 482
f 423 481 453
f 483 545 484
f 458 512 486
f 459 513 487
f 450 452 488
f 460 486 489
f 464 461 487
f 465 462 488
f 463 489 491
f 464 490 492
f 465 483 485
f 466 491 493
f 467 492 494
f 471 468 485
f 469 493 496
f 473 471 495
f 472 496 498
f 473 497 499
f 474 498 500
f 477 475 499
f 476 500 502
f 479 477 501
f 480 478 502
f 481 479 503
f 480 504 506
f 481 505 507
f 482 506 508
f 454 453 507
f 419 508 510
f 454 509 511
f 455 510 451
f 470 494 512
f 456 511 513
f 514 577 515
f 493 491 517
f 494 492 519
f 485 484 521
f 493 518 522
f 497 495 521
f 496 522 523
f 497 514 516
f 498 523 524
f 499 516 525
f 500 524 526
f 501 525 527
f 504 502 526
f 505 503 527
f 504 528 530
f 505 529 531
f 508 506 530
f 509 507 531
f 508 532 534
f 511 509 533
f 510 534 536
f 494 520 537
f 513 511 535
f 451 536 539
f 512 537 540
f 513 538 541
f 452 539 542
f 486 540 543
f 490 487 541
f 483 488 542
f 489 543 517
f 490 544 519
f 546 608 547
f 524 523 549
f 516 515 551
f 524 550 552
f 527 525 551
f 528 526 552
f 527 546 548
f 528 553 554
f 529 548 555
f 530 554 556
f 531 555 557
f 532 556 558
f 533 557 559
f 534 558 560
f 520 574 561
f 535 559 562
f 536 560 563
f 537 561 564
f 538 562 565
f 539 563 566
f 540 564 567
f 541 565 568
f 545 542 566
f 543 567 570
f 544 568 571
f 545 569 572
f 517 570 573
f 519 571 574
f 521 484 572
f 522 518 573
f 521 575 577
f 522 576 549
f 578 642 579
f 553 609 581
f 548 547 582
f 554 581 583
f 555 582 578
f 556 583 584
f 557 578 580
f 558 584 585
f 574 599 586
f 559 580 587
f 560 585 588
f 564 561 586
f 562 587 590
f 563 588 591
f 567 564 589
f 568 565 590
f 566 591 594
f 567 592 595
f 568 593 596
f 569 594 597
f 570 595 598
f 574 571 596
f 572 597 600
f 573 598 601
f 575 600 602
f 576 601 603
f 577 602 604
f 549 603 605
f 515 604 606
f 552 550 605
f 551 606 608
f 552 607 609
f 610 618 611
f 585 584 613
f 599 627 615
f 580 579 616
f 588 585 614
f 586 615 618
f 587 616 619
f 591 588 617
f 589 618 610
f 590 619 621
f 594 591 620
f 592 610 623
f 593 621 624
f 597 594 622
f 595 623 626
f 596 624 627
f 600 597 625
f 598 626 629
f 602 600 628
f 603 601 629
f 604 602 630
f 603 631 633
f 606 604 632
f 607 605 633
f 606 634 636
f 609 607 635
f 608 636 638
f 581 609 637
f 582 547 638
f 583 581 639
f 582 640 642
f 584 583 641
f 643 704 644
f 621 619 646
f 620 673 648
f 623 610 612
f 624 621 647
f 622 648 651
f 626 623 649
f 627 624 650
f 625 651 653
f 629 626 643
f 628 653 654
f 631 629 645
f 630 654 656
f 631 655 657
f 632 656 658
f 635 633 657
f 634 658 660
f 635 659 661
f 636 660 662
f 637 661 663
f 638 662 664
f 639 663 665
f 640 664 666
f 641 665 667
f 579 642 666
f 613 667 669
f 615 627 652
f 616 579 668
f 614 669 672
f 618 615 670
f 619 616 671
f 617 672 673
f 674 737 675
f 654 653 677
f 645 644 679
f 656 654 678
f 655 679 674
f 658 656 680
f 657 674 676
f 660 658 681
f 661 659 676
f 662 660 682
f 663 661 683
f 662 684 686
f 665 663 685
f 664 686 688
f 667 665 687
f 666 688 690
f 669 667 689
f 652 705 692
f 668 690 693
f 672 669 691
f 670 692 695
f 671 693 696
f 673 672 694
f 611 695 698
f 646 696 699
f 648 673 697
f 612 698 701
f 647 699 702
f 651 648 700
f 649 701 704
f 650 702 705
f 653 651 703
f 706 767 707
f 682 681 709
f 676 675 711
f 684 682 710
f 683 711 706
f 684 712 713
f 687 685 706
f 688 686 713
f 687 708 715
f 688 714 716
f 689 715 717
f 705 731 718
f 693 690 716
f 694 691 717
f 695 692 718
f 693 719 722
f 697 694 720
f 695 721 724
f 696 722 725
f 700 697 723
f 698 724 727
f 699 725 728
f 700 726 729
f 701 727 730
f 705 702 728
f 703 729 732
f 704 730 733
f 677 732 734
f 644 733 735
f 680 678 734
f 674 679 735
f 680 736 709
f 747 744 756
f 756 754 751
f 751 748 738
f 748 745 738
f 745 742 738
f 738 768 766
f 766 765 738
f 765 763 738
f 763 761 759
f 759 757 739
f 739 752 749
f 749 746 739
f 746 743 739
f 743 741 707
f 707 767 740
f 740 764 762
f 762 760 758
f 758 755 747
f 755 753 747
f 753 750 747
f 747 756 738
f 756 751 738
f 763 759 738
f 759 739 738
f 743 707 739
f 707 740 739
f 740 762 758
f 740 758 747
f 747 738 740
f 713 768 738
f 708 707 741
f 714 738 742
f 715 741 743
f 731 756 744
f 716 742 745
f 720 717 743
f 718 744 747
f 719 745 748
f 720 746 749
f 721 747 750
f 725 722 748
f 723 749 752
f 724 750 753
f 725 751 754
f 726 752 739
f 730 727 753
f 728 754 756
f 732 729 739
f 730 755 758
f 732 757 759
f 733 758 760
f 734 759 761
f 735 760 762
f 736 761 763
f 737 762 764
f 710 709 763
f 711 675 764
f 710 765 766
f 711 740 767
f 713 712 766