# https://github.com/mikedh/trimesh
v 0.01170272 0.01174362 0.00256127
v 0.00847458 0.00811205 0.09307858
v 0.01171786 -0.01064475 0.00246866
v 0.00848532 -0.00776657 0.09301289
v -0.01068584 0.01172845 0.00256729
v -0.00740417 0.00810129 0.09308285
v -0.01067070 -0.01065992 0.00247467
v -0.00739343 -0.00777732 0.09301716
v 0.01936689 0.01916010 0.06111686
v -0.01830310 -0.01856060 0.06097104
v 0.01939238 -0.01853506 0.06096092
v -0.01832859 0.01913456 0.06112698
v -0.01939867 -0.01947355 0.01920867
v 0.02043979 0.02041853 0.01936288
v 0.02046675 -0.01944655 0.01919796
v -0.01942563 0.02039152 0.01937358
v -0.00771390 0.00673280 0.09379636
v -0.00802336 0.00476006 0.09456259
v -0.00822263 0.00251819 0.09510015
v -0.00829013 0.00015210 0.09529377
v -0.00821943 -0.00221221 0.09508059
v -0.00801714 -0.00444929 0.09452450
v -0.00770501 -0.00641520 0.09374196
v 0.00710925 0.00841900 0.09379930
v 0.00513991 0.00872547 0.09457543
v 0.00290043 0.00892261 0.09512362
v 0.00053521 0.00898932 0.09532792
v -0.00183002 0.00891941 0.09512489
v -0.00406952 0.00871923 0.09457790
v -0.00603886 0.00841010 0.09380284
v 0.01821783 0.01798514 0.06663691
v 0.01687365 0.01661580 0.07192895
v 0.01539725 0.01511553 0.07688688
v 0.01385155 0.01354781 0.08140458
v 0.01229976 0.01197637 0.08538182
v 0.01080624 0.01046600 0.08874170
v 0.00945223 0.00909844 0.09139796
v -0.01869671 -0.01875430 0.01550197
v -0.01784225 -0.01788457 0.01230274
v -0.01683930 -0.01686829 0.00958885
v -0.01569187 -0.01570937 0.00733813
v -0.01441401 -0.01442178 0.00552629
v -0.01305995 -0.01305968 0.00412040
v -0.01171698 -0.01171034 0.00309084
v 0.01824177 -0.01740737 0.06649050
v 0.01689576 -0.01608368 0.07179368
v 0.01541736 -0.01462648 0.07676384
v 0.01386957 -0.01309828 0.08129435
v 0.01231568 -0.01156190 0.08528445
v 0.01082013 -0.01008140 0.08865670
v 0.00946429 -0.00873769 0.09132418
v -0.01717498 0.01796117 0.06664642
v -0.01582610 0.01659365 0.07193774
v -0.01434501 0.01509538 0.07689487
v -0.01279476 0.01352976 0.08141174
v -0.01123871 0.01196042 0.08538814
v -0.00974134 0.01045208 0.08874722
v -0.00838405 0.00908635 0.09140275
v 0.00985486 -0.01128161 0.00220607
v 0.00710181 -0.01195352 0.00192358
v 0.00391622 -0.01241750 0.00172447
v 0.00052467 -0.01258819 0.00165102
v -0.00286707 -0.01242209 0.00172630
v -0.00605318 -0.01196243 0.00192711
v -0.00880698 -0.01129426 0.00221109
v 0.01234059 0.00988178 0.00229294
v 0.01301358 0.00713000 0.00200091
v 0.01347832 0.00394530 0.00178956
v 0.01364930 0.00055411 0.00170182
v 0.01348291 -0.00283792 0.00176150
v 0.01302248 -0.00602488 0.00194650
v 0.01235321 -0.00877990 0.00221574
v -0.00602770 -0.00809022 0.09373459
v -0.00405794 -0.00840309 0.09450707
v -0.00181817 -0.00860476 0.09505241
v 0.00054716 -0.00867315 0.09525486
v 0.00291228 -0.00860156 0.09505114
v 0.00515149 -0.00839685 0.09450460
v 0.00712041 -0.00808132 0.09373105
v -0.01130871 -0.00879593 0.00222210
v -0.01198186 -0.00604182 0.00195321
v -0.01244671 -0.00285549 0.00176847
v -0.01261772 0.00053631 0.00170888
v -0.01245130 0.00392774 0.00179653
v -0.01199076 0.00711306 0.00200763
v -0.01132134 0.00986576 0.00229930
v -0.00882299 0.01236746 0.00230897
v -0.00607009 0.01304169 0.00203054
v -0.00288460 0.01350731 0.00183356
v 0.00050691 0.01367861 0.00175968
v 0.00389868 0.01351190 0.00183174
v 0.00708490 0.01305061 0.00202701
v 0.00983886 0.01238011 0.00230396
v 0.00879545 -0.00640402 0.09373753
v 0.00910533 -0.00443769 0.09451990
v 0.00930489 -0.00220034 0.09507589
v 0.00937250 0.00016407 0.09528902
v 0.00930169 0.00253006 0.09509545
v 0.00909910 0.00477166 0.09455799
v 0.00878656 0.00674398 0.09379192
v 0.02098608 0.02094695 0.02358622
v 0.02136344 0.02130423 0.02825668
v 0.02155911 0.02147797 0.03329299
v 0.02156039 0.02145579 0.03861384
v 0.02135452 0.02122530 0.04413795
v 0.02092881 0.02077411 0.04978401
v 0.02027051 0.02008983 0.05547075
v -0.00837199 -0.00874977 0.09132897
v -0.00972744 -0.01009532 0.08866222
v -0.01122279 -0.01157784 0.08529077
v -0.01277674 -0.01311633 0.08130151
v -0.01432490 -0.01464662 0.07677183
v -0.01580399 -0.01610583 0.07180247
v -0.01715105 -0.01743135 0.06650001
v 0.02101378 -0.02000916 0.02341679
v 0.02139164 -0.02040455 0.02808414
v 0.02158758 -0.02061969 0.03311884
v 0.02158886 -0.02064153 0.03843969
v 0.02138271 -0.02045703 0.04396552
v 0.02095642 -0.02005314 0.04961512
v 0.02029722 -0.01941684 0.05530732
v -0.01997038 0.02091921 0.02359722
v -0.02034570 0.02127598 0.02826788
v -0.02053891 0.02144945 0.03330430
v -0.02053729 0.02142727 0.03862515
v -0.02032815 0.02119706 0.04414914
v -0.01989879 0.02074645 0.04979498
v -0.01923650 0.02006308 0.05548136
v -0.01439180 0.02222941 0.06113872
v -0.00979180 0.02444123 0.06114662
v -0.00474945 0.02576987 0.06115074
v 0.00051437 0.02621517 0.06115116
v 0.00577878 0.02577700 0.06114792
v 0.01082292 0.02445520 0.06114108
v 0.01542591 0.02224961 0.06113071
v 0.02246176 0.01522334 0.06109973
v 0.02467359 0.01062338 0.06108010
v 0.02600223 0.00558108 0.06105889
v 0.02644753 0.00031731 0.06103699
v 0.02600935 -0.00494706 0.06101533
v 0.02468753 -0.00999116 0.06099482
v 0.02248192 -0.01459412 0.06097638
v -0.02139797 -0.01462384 0.06098817
v -0.02360981 -0.01002388 0.06100780
v -0.02493845 -0.00498157 0.06102902
v -0.02538375 0.00028220 0.06105091
v -0.02494557 0.00554656 0.06107257
v -0.02362375 0.01059066 0.06109307
v -0.02141814 0.01519362 0.06111152
v 0.01545558 -0.02162991 0.06094919
v 0.01085558 -0.02384173 0.06094129
v 0.00581323 -0.02517037 0.06093716
v 0.00054942 -0.02561567 0.06093674
v -0.00471500 -0.02517750 0.06093999
v -0.00975914 -0.02385569 0.06094682
v -0.01436213 -0.02165011 0.06095719
v -0.01920979 -0.01944359 0.05531793
v -0.01987118 -0.02008080 0.04962609
v -0.02029996 -0.02048526 0.04397671
v -0.02050882 -0.02067005 0.03845100
v -0.02051044 -0.02064821 0.03313015
v -0.02031749 -0.02043280 0.02809534
v -0.01994268 -0.02003690 0.02342779
v 0.01274933 0.01278890 0.00318553
v 0.01409286 0.01412968 0.00422550
v 0.01544769 0.01548011 0.00564188
v 0.01672654 0.01675267 0.00746362
v 0.01787519 0.01789293 0.00972322
v 0.01887962 0.01888673 0.01244488
v 0.01973581 0.01972996 0.01565073
v 0.01276589 -0.01169375 0.00308425
v 0.01411124 -0.01304127 0.00411310
v 0.01546789 -0.01440154 0.00551827
v 0.01674847 -0.01568740 0.00732942
v 0.01789868 -0.01684476 0.00957952
v 0.01890447 -0.01785968 0.01229287
v 0.01976182 -0.01872824 0.01549164
v -0.01173354 0.01277232 0.00319211
v -0.01307832 0.01411128 0.00423280
v -0.01443422 0.01545987 0.00564991
v -0.01571381 0.01673070 0.00747233
v -0.01686279 0.01786940 0.00973255
v -0.01786710 0.01886184 0.01245475
v -0.01872272 0.01970391 0.01566106
v -0.01526222 0.02366453 0.01938599
v -0.01039741 0.02600367 0.01939435
v -0.00506480 0.02740879 0.01939872
v 0.00050202 0.02787973 0.01939915
v 0.00606948 0.02741633 0.01939572
v 0.01140399 0.02601844 0.01938849
v 0.01627195 0.02368589 0.01937752
v 0.02371281 0.01625515 0.01934476
v 0.02605197 0.01139040 0.01932401
v 0.02745709 0.00605783 0.01930157
v 0.02792803 0.00049105 0.01927841
v 0.02746462 -0.00507636 0.01925550
v 0.02606671 -0.01041082 0.01923382
v 0.02373414 -0.01527874 0.01921432
v -0.02267170 -0.01531018 0.01922678
v -0.02501085 -0.01044542 0.01924754
v -0.02641598 -0.00511286 0.01926998
v -0.02688692 0.00045392 0.01929314
v -0.02642351 0.00602133 0.01931604
v -0.02502560 0.01135580 0.01933773
v -0.02269302 0.01622372 0.01935723
v 0.01630333 -0.02271955 0.01918555
v 0.01143853 -0.02505869 0.01917720
v 0.00610592 -0.02646381 0.01917283
v 0.00053909 -0.02693475 0.01917240
v -0.00502836 -0.02647135 0.01917582
v -0.01036287 -0.02507346 0.01918306
v -0.01523083 -0.02274091 0.01919403
v 0.00990045 0.00994254 0.00173505
v 0.00703524 0.01027717 0.00133915
v 0.00385311 0.01056618 0.00108983
v 0.00050873 0.01068129 0.00100279
v -0.00283544 0.01056165 0.00109163
v -0.00601704 0.01026833 0.00134265
v -0.00888158 0.00992981 0.00174010
v 0.01023722 0.00707956 0.00132505
v 0.00717280 0.00721509 0.00084543
v 0.00389641 0.00737041 0.00055435
v 0.00051078 0.00744056 0.00045627
v -0.00287469 0.00736582 0.00055617
v -0.00615071 0.00720606 0.00084900
v -0.00921469 0.00706638 0.00133028
v 0.01052942 0.00389895 0.00106044
v 0.00733126 0.00394022 0.00053923
v 0.00396447 0.00400512 0.00022579
v 0.00051300 0.00403728 0.00012154
v -0.00293837 0.00400044 0.00022764
v -0.00630491 0.00393099 0.00054289
v -0.00950273 0.00388538 0.00106582
v 0.01064867 0.00055515 0.00095815
v 0.00740557 0.00055516 0.00042592
v 0.00400084 0.00055418 0.00010619
v 0.00051532 0.00055227 0.00000000
v -0.00297013 0.00054946 0.00010806
v -0.00637469 0.00054583 0.00042962
v -0.00961750 0.00054143 0.00096360
v 0.01053395 -0.00278953 0.00103278
v 0.00733584 -0.00283082 0.00051122
v 0.00396914 -0.00289767 0.00019723
v 0.00051771 -0.00293363 0.00009271
v -0.00293370 -0.00290234 0.00019909
v -0.00630033 -0.00284006 0.00051488
v -0.00949821 -0.00280310 0.00103816
v 0.01024604 -0.00597261 0.00127106
v 0.00718181 -0.00610831 0.00079030
v 0.00390563 -0.00626565 0.00049794
v 0.00052010 -0.00633957 0.00039927
v -0.00286547 -0.00627024 0.00049975
v -0.00614170 -0.00611734 0.00079388
v -0.00920586 -0.00598579 0.00127628
v 0.00991315 -0.00883934 0.00165736
v 0.00704840 -0.00917456 0.00125868
v 0.00386665 -0.00946580 0.00100697
v 0.00052244 -0.00958471 0.00091895
v -0.00282189 -0.00947033 0.00100877
v -0.00600389 -0.00918340 0.00126219
v -0.00886888 -0.00885206 0.00166241
v 0.01574555 -0.02188533 0.01547947
v 0.01506842 -0.02087334 0.01227988
v 0.01427638 -0.01968571 0.00956346
v 0.01337381 -0.01832451 0.00730691
v 0.01237804 -0.01679576 0.00548397
v 0.01135787 -0.01512111 0.00405672
v 0.01042606 -0.01331126 0.00298226
v 0.01105246 -0.02414142 0.01547097
v 0.01058443 -0.02302557 0.01226875
v 0.01003807 -0.02171073 0.00954462
v 0.00941697 -0.02019656 0.00727270
v 0.00873645 -0.01848096 0.00542317
v 0.00805853 -0.01655505 0.00395053
v 0.00746900 -0.01439868 0.00280351
v 0.00590795 -0.02549655 0.01546634
v 0.00566828 -0.02431747 0.01226130
v 0.00538891 -0.02292402 0.00952924
v 0.00507184 -0.02131363 0.00724171
v 0.00472592 -0.01948025 0.00536648
v 0.00438732 -0.01740376 0.00385622
v 0.00410057 -0.01505937 0.00265963
v 0.00053743 -0.02595070 0.01546572
v 0.00053576 -0.02475019 0.01225934
v 0.00053406 -0.02332973 0.00952360
v 0.00053233 -0.02168581 0.00722890
v 0.00053055 -0.01981156 0.00534218
v 0.00052870 -0.01768645 0.00381693
v 0.00052675 -0.01528663 0.00260318
v -0.00483370 -0.02550383 0.01546923
v -0.00459734 -0.02432443 0.01226405
v -0.00432133 -0.02293060 0.00953186
v -0.00400768 -0.02131978 0.00724415
v -0.00366524 -0.01948593 0.00536873
v -0.00333027 -0.01740899 0.00385829
v -0.00304734 -0.01506421 0.00266154
v -0.00998003 -0.02415568 0.01547662
v -0.00951524 -0.02303918 0.01227415
v -0.00897212 -0.02172361 0.00954972
v -0.00835430 -0.02020859 0.00727747
v -0.00767709 -0.01849208 0.00542757
v -0.00700257 -0.01656525 0.00395457
v -0.00641658 -0.01440809 0.00280725
v -0.01467617 -0.02190594 0.01548764
v -0.01400213 -0.02089304 0.01228769
v -0.01321316 -0.01970432 0.00957085
v -0.01231365 -0.01834190 0.00731380
v -0.01132093 -0.01681182 0.00549033
v -0.01030379 -0.01513579 0.00406254
v -0.00937502 -0.01332468 0.00298757
v -0.02185382 -0.01473806 0.01551924
v -0.02085595 -0.01404855 0.01231786
v -0.01968029 -0.01324599 0.00959932
v -0.01832905 -0.01233469 0.00734029
v -0.01680836 -0.01133185 0.00551450
v -0.01514002 -0.01030614 0.00408383
v -0.01333492 -0.00937016 0.00300501
v -0.02410993 -0.01004501 0.01553883
v -0.02300820 -0.00956459 0.01233355
v -0.02170538 -0.00900768 0.00960578
v -0.02020124 -0.00837778 0.00732963
v -0.01849381 -0.00769008 0.00547520
v -0.01657441 -0.00700645 0.00399672
v -0.01442312 -0.00641245 0.00284249
v -0.02546507 -0.00490055 0.01556005
v -0.02430013 -0.00464847 0.01235080
v -0.02291873 -0.00435852 0.00961373
v -0.02131844 -0.00403259 0.00732036
v -0.01949334 -0.00367939 0.00543842
v -0.01742353 -0.00333491 0.00392033
v -0.01508443 -0.00304350 0.00271454
v -0.02591921 0.00046993 0.01558219
v -0.02473285 0.00048401 0.01237058
v -0.02332446 0.00049631 0.00962864
v -0.02169067 0.00050694 0.00732673
v -0.01982475 0.00051604 0.00543179
v -0.01770639 0.00052382 0.00389721
v -0.01531194 0.00053050 0.00267291
v -0.02547233 0.00584101 0.01560449
v -0.02430707 0.00561707 0.01239326
v -0.02292529 0.00535164 0.00965390
v -0.02132458 0.00504686 0.00735792
v -0.01949901 0.00471171 0.00547312
v -0.01742875 0.00438261 0.00395226
v -0.01508927 0.00410435 0.00274410
v -0.02412416 0.01098730 0.01562583
v -0.02302179 0.01053491 0.01241670
v -0.02171824 0.01000235 0.00968442
v -0.02021326 0.00939334 0.00740314
v -0.01850491 0.00872331 0.00554309
v -0.01658460 0.00805453 0.00405902
v -0.01443251 0.00747301 0.00289994
v -0.02187439 0.01568340 0.01564508
v -0.02087561 0.01502176 0.01243812
v -0.01969888 0.01424330 0.00971304
v -0.01834642 0.01335255 0.00744655
v -0.01682439 0.01236691 0.00561253
v -0.01515467 0.01135533 0.00417344
v -0.01334831 0.01043075 0.00308692
v -0.00586444 0.00655491 0.09533788
v -0.00384946 0.00660848 0.09643656
v -0.00169313 0.00668352 0.09713029
v 0.00053730 0.00671726 0.09737397
v 0.00276765 0.00668654 0.09712909
v 0.00492371 0.00661442 0.09643421
v 0.00693816 0.00656359 0.09533444
v -0.00591952 0.00453563 0.09642854
v -0.00379393 0.00447785 0.09775578
v -0.00163668 0.00448300 0.09856305
v 0.00053920 0.00449540 0.09883663
v 0.00271495 0.00448594 0.09856188
v 0.00487177 0.00448372 0.09775345
v 0.00699657 0.00454438 0.09642508
v -0.00599433 0.00237653 0.09711364
v -0.00379928 0.00231748 0.09855469
v -0.00162431 0.00230470 0.09942265
v 0.00054092 0.00230782 0.09971284
v 0.00270599 0.00230763 0.09942149
v 0.00488048 0.00232336 0.09855235
v 0.00707466 0.00238539 0.09711013
v -0.00602599 0.00014513 0.09734856
v -0.00380980 0.00014055 0.09881979
v -0.00162562 0.00013836 0.09970446
v 0.00054247 0.00013861 0.09999963
v 0.00271039 0.00014130 0.09970330
v 0.00489409 0.00014644 0.09881745
v 0.00710948 0.00015403 0.09734504
v -0.00599131 -0.00208420 0.09709519
v -0.00379634 -0.00203411 0.09853668
v -0.00162138 -0.00202556 0.09940474
v 0.00054385 -0.00202816 0.09969491
v 0.00270892 -0.00202263 0.09940357
v 0.00488342 -0.00202823 0.09853435
v 0.00707768 -0.00207535 0.09709168
v -0.00591359 -0.00423746 0.09639226
v -0.00378807 -0.00418778 0.09771993
v -0.00163081 -0.00419669 0.09852715
v 0.00054509 -0.00420841 0.09880062
v 0.00272082 -0.00419374 0.09852598
v 0.00487763 -0.00418191 0.09771760
v 0.00700250 -0.00422871 0.09638879
v -0.00585578 -0.00624757 0.09528492
v -0.00384073 -0.00630750 0.09638313
v -0.00168429 -0.00638536 0.09707623
v 0.00054619 -0.00641810 0.09731964
v 0.00277648 -0.00638234 0.09707503
v 0.00493244 -0.00630156 0.09638078
v 0.00694682 -0.00623890 0.09528148
v 0.02289292 0.01571372 0.01563306
v 0.02189331 0.01505073 0.01242663
v 0.02071618 0.01427068 0.00970218
v 0.01936371 0.01337810 0.00743642
v 0.01784203 0.01239039 0.00560322
v 0.01617291 0.01137655 0.00416503
v 0.01436722 0.01044952 0.00307948
v 0.02514903 0.01102068 0.01561260
v 0.02404556 0.01056679 0.01240406
v 0.02274126 0.01003246 0.00967248
v 0.02123588 0.00942141 0.00739201
v 0.01952745 0.00874908 0.00553288
v 0.01760724 0.00807769 0.00404984
v 0.01545532 0.00749326 0.00289191
v 0.02650417 0.00587622 0.01559052
v 0.02533748 0.00565070 0.01237992
v 0.02395460 0.00538340 0.00964130
v 0.02235307 0.00507645 0.00734619
v 0.02052695 0.00473882 0.00546238
v 0.01845631 0.00440692 0.00394262
v 0.01611656 0.00412548 0.00273573
v 0.02695831 0.00050575 0.01556799
v 0.02577020 0.00051823 0.01235701
v 0.02436033 0.00052861 0.00961583
v 0.02272529 0.00053703 0.00731480
v 0.02085834 0.00054360 0.00542086
v 0.01873915 0.00054851 0.00388742
v 0.01634403 0.00055195 0.00266440
v 0.02651143 -0.00486534 0.01554610
v 0.02534443 -0.00461484 0.01233746
v 0.02396117 -0.00432676 0.00960114
v 0.02235921 -0.00400300 0.00730863
v 0.02053262 -0.00365227 0.00542766
v 0.01846153 -0.00331060 0.00391070
v 0.01612139 -0.00302236 0.00270615
v 0.02516326 -0.01001163 0.01552559
v 0.02405915 -0.00953271 0.01232091
v 0.02275412 -0.00897756 0.00959383
v 0.02124790 -0.00834970 0.00731849
v 0.01953855 -0.00766432 0.00546498
v 0.01761743 -0.00698328 0.00398752
v 0.01546471 -0.00639220 0.00283447
v 0.02291350 -0.01470773 0.01550721
v 0.02191297 -0.01401958 0.01230637
v 0.02073477 -0.01321862 0.00958847
v 0.01938108 -0.01230915 0.00733016
v 0.01785805 -0.01130837 0.00550518
v 0.01618756 -0.01028492 0.00407541
v 0.01438061 -0.00935139 0.00299756
v -0.01470644 0.02286100 0.01567283
v -0.01403106 0.02187551 0.01246461
v -0.01324049 0.02071039 0.00973803
v -0.01233916 0.01936791 0.00746981
v -0.01134437 0.01785430 0.00563374
v -0.01032498 0.01619152 0.00419214
v -0.00939376 0.01439063 0.00310223
v -0.01001335 0.02511709 0.01568046
v -0.00954707 0.02402777 0.01246886
v -0.00900219 0.02273552 0.00973364
v -0.00838233 0.02124019 0.00744894
v -0.00770281 0.01953995 0.00558491
v -0.00702570 0.01762629 0.00409602
v -0.00643679 0.01547949 0.00293088
v -0.00486885 0.02647223 0.01568424
v -0.00463092 0.02531970 0.01246943
v -0.00435304 0.02394890 0.00972578
v -0.00403722 0.02235749 0.00742484
v -0.00369231 0.02053969 0.00553431
v -0.00335454 0.01847576 0.00400674
v -0.00306844 0.01614135 0.00279064
v 0.00050167 0.02692637 0.01568446
v 0.00050160 0.02575243 0.01246826
v 0.00050181 0.02435465 0.00972086
v 0.00050229 0.02272978 0.00741263
v 0.00050304 0.02087119 0.00551048
v 0.00050406 0.01875878 0.00396770
v 0.00050534 0.01636908 0.00273414
v 0.00587280 0.02647950 0.01568136
v 0.00563470 0.02532665 0.01246666
v 0.00535721 0.02395548 0.00972318
v 0.00504231 0.02236364 0.00742240
v 0.00469885 0.02054537 0.00553205
v 0.00436305 0.01848099 0.00400467
v 0.00407946 0.01614619 0.00278871
v 0.01101913 0.02513135 0.01567480
v 0.01055260 0.02404138 0.01246346
v 0.01000800 0.02274839 0.00972853
v 0.00938894 0.02125223 0.00744416
v 0.00871072 0.01955107 0.00558049
v 0.00803540 0.01763650 0.00409197
v 0.00744878 0.01548890 0.00292716
v 0.01571527 0.02288160 0.01566466
v 0.01503950 0.02189521 0.01245680
v 0.01424904 0.02072901 0.00973065
v 0.01334831 0.01938531 0.00746290
v 0.01235459 0.01787036 0.00562738
v 0.01133668 0.01620620 0.00418631
v 0.01040732 0.01440404 0.00309691
v -0.00670114 0.01016495 0.09167164
v -0.00768998 0.01194920 0.08888685
v -0.00882891 0.01379670 0.08546476
v -0.01003585 0.01567009 0.08145441
v -0.01124893 0.01751728 0.07691862
v -0.01241404 0.01927242 0.07195221
v -0.01347905 0.02086622 0.06665797
v -0.00453579 0.01082506 0.09215705
v -0.00519415 0.01293848 0.08916953
v -0.00596310 0.01506402 0.08562056
v -0.00678756 0.01717692 0.08153580
v -0.00762088 0.01923853 0.07695684
v -0.00842409 0.02118402 0.07196854
v -0.00916009 0.02294204 0.06666658
v -0.00207376 0.01119798 0.09255016
v -0.00240496 0.01350047 0.08942453
v -0.00279357 0.01580063 0.08577086
v -0.00321287 0.01806860 0.08161455
v -0.00363804 0.02026680 0.07699209
v -0.00404871 0.02233064 0.07198160
v -0.00442560 0.02418878 0.06667164
v 0.00053293 0.01131915 0.09270587
v 0.00053048 0.01368090 0.08953263
v 0.00052789 0.01604039 0.08583739
v 0.00052519 0.01836344 0.08164932
v 0.00052242 0.02060974 0.07700696
v 0.00051965 0.02271444 0.07198627
v 0.00051694 0.02460657 0.06667256
v 0.00313970 0.01120151 0.09254877
v 0.00346610 0.01350444 0.08942296
v 0.00384964 0.01580513 0.08576907
v 0.00426363 0.01807366 0.08161254
v 0.00468334 0.02027243 0.07698985
v 0.00508852 0.02233683 0.07197915
v 0.00546004 0.02419548 0.06666898
v 0.00560202 0.01083193 0.09215433
v 0.00625591 0.01294624 0.08916646
v 0.00702008 0.01507282 0.08561708
v 0.00783947 0.01718683 0.08153187
v 0.00866755 0.01924956 0.07695246
v 0.00946544 0.02119614 0.07196374
v 0.01019621 0.02295516 0.06666138
v 0.00776801 0.01017475 0.09166775
v 0.00875293 0.01196034 0.08888243
v 0.00988752 0.01380937 0.08545973
v 0.01108977 0.01568440 0.08144874
v 0.01229790 0.01753323 0.07691230
v 0.01345797 0.01928994 0.07194526
v 0.01451797 0.02088519 0.06665045
v 0.01053200 0.00741452 0.09165558
v 0.01230396 0.00841415 0.08886680
v 0.01413635 0.00956633 0.08544103
v 0.01599205 0.01078879 0.08142715
v 0.01781923 0.01201942 0.07688799
v 0.01955246 0.01320375 0.07191843
v 0.02112291 0.01428924 0.06662138
v 0.01119425 0.00524732 0.09212970
v 0.01329447 0.00591725 0.08913547
v 0.01540435 0.00669996 0.08558016
v 0.01749923 0.00754023 0.08148934
v 0.01954063 0.00839128 0.07690460
v 0.02146412 0.00921380 0.07191091
v 0.02319875 0.00997032 0.06660414
v 0.01156889 0.00278380 0.09251166
v 0.01385758 0.00312711 0.08937721
v 0.01614162 0.00352989 0.08571496
v 0.01839124 0.00396528 0.08155035
v 0.02056904 0.00440835 0.07691992
v 0.02261078 0.00483842 0.07190201
v 0.02444550 0.00523586 0.06658540
v 0.01169074 0.00017652 0.09265675
v 0.01403849 0.00019128 0.08947317
v 0.01638167 0.00020819 0.08576760
v 0.01868624 0.00022712 0.08156937
v 0.02091205 0.00024787 0.07691720
v 0.02299460 0.00027009 0.07188733
v 0.02486329 0.00029337 0.06656538
v 0.01157242 -0.00242962 0.09249009
v 0.01386155 -0.00274390 0.08935293
v 0.01614611 -0.00311327 0.08568748
v 0.01839630 -0.00351115 0.08151942
v 0.02057467 -0.00391295 0.07688550
v 0.02261696 -0.00429873 0.07186421
v 0.02445218 -0.00464969 0.06654451
v 0.01120110 -0.00489041 0.09208777
v 0.01330222 -0.00553270 0.08908811
v 0.01541314 -0.00628312 0.08552646
v 0.01750912 -0.00708668 0.08142884
v 0.01955164 -0.00789701 0.07683722
v 0.02147622 -0.00867558 0.07183691
v 0.02321184 -0.00938582 0.06652407
v 0.01054179 -0.00705451 0.09159573
v 0.01231508 -0.00802863 0.08879878
v 0.01414901 -0.00914995 0.08536360
v 0.01600633 -0.01033665 0.08133976
v 0.01783515 -0.01152721 0.07679059
v 0.01956995 -0.01266804 0.07181141
v 0.02114185 -0.01370754 0.06650556
v -0.00945162 -0.00706805 0.09160110
v -0.01122509 -0.00804457 0.08880510
v -0.01305934 -0.00916838 0.08537091
v -0.01491722 -0.01035760 0.08134807
v -0.01674687 -0.01155064 0.07679987
v -0.01848280 -0.01269381 0.07182163
v -0.02005613 -0.01373545 0.06651663
v -0.01011360 -0.00490485 0.09209350
v -0.01221545 -0.00554999 0.08909496
v -0.01432726 -0.00630326 0.08553445
v -0.01642436 -0.00710966 0.08143795
v -0.01846825 -0.00792276 0.07684743
v -0.02039445 -0.00870394 0.07184816
v -0.02213197 -0.00941654 0.06653624
v -0.01048803 -0.00244457 0.09249601
v -0.01277842 -0.00276195 0.08936008
v -0.01506445 -0.00313441 0.08569586
v -0.01731633 -0.00353534 0.08152901
v -0.01949665 -0.00394010 0.07689626
v -0.02154111 -0.00432864 0.07187607
v -0.02337871 -0.00468209 0.06655735
v -0.01060980 0.00016142 0.09266274
v -0.01295927 0.00017299 0.08948042
v -0.01530446 0.00018673 0.08577611
v -0.01761131 0.00020253 0.08157912
v -0.01983965 0.00022027 0.07692814
v -0.02192493 0.00023966 0.07189939
v -0.02379650 0.00026040 0.06657845
v -0.01049156 0.00276885 0.09251759
v -0.01278239 0.00310907 0.08938437
v -0.01506894 0.00350874 0.08572334
v -0.01732139 0.00394109 0.08155994
v -0.01950227 0.00438121 0.07693068
v -0.02154729 0.00480851 0.07191387
v -0.02338540 0.00520346 0.06659825
v -0.01012045 0.00523288 0.09213543
v -0.01222320 0.00589997 0.08914233
v -0.01433605 0.00667981 0.08558815
v -0.01643425 0.00751724 0.08149846
v -0.01847927 0.00836553 0.07691481
v -0.02040655 0.00918544 0.07192216
v -0.02214506 0.00993960 0.06661632
v -0.00946140 0.00740098 0.09166095
v -0.01123621 0.00839820 0.08887312
v -0.01307200 0.00954790 0.08544833
v -0.01493151 0.01076784 0.08143546
v -0.01676279 0.01199600 0.07689728
v -0.01850029 0.01317797 0.07192865
v -0.02007506 0.01426133 0.06663244
v 0.00778153 -0.00981848 0.09158504
v 0.00876885 -0.01157963 0.08878505
v 0.00990592 -0.01339875 0.08534718
v 0.01111068 -0.01523889 0.08132081
v 0.01232129 -0.01704849 0.07676924
v 0.01348370 -0.01876248 0.07178785
v 0.01454583 -0.02031243 0.06648003
v 0.00561644 -0.01048259 0.09206616
v 0.00627317 -0.01257122 0.08906090
v 0.00704020 -0.01466733 0.08549405
v 0.00786242 -0.01674636 0.08139150
v 0.00869326 -0.01877001 0.07679519
v 0.00949375 -0.02067417 0.07179053
v 0.01022687 -0.02238826 0.06647380
v 0.00315462 -0.01085875 0.09245751
v 0.00348412 -0.01313530 0.08931276
v 0.00387075 -0.01540516 0.08563996
v 0.00428778 -0.01763866 0.08146481
v 0.00471044 -0.01979854 0.07682409
v 0.00511838 -0.02182086 0.07179648
v 0.00549239 -0.02363501 0.06647112
v 0.00054801 -0.01098121 0.09261362
v 0.00054874 -0.01331663 0.08942095
v 0.00054932 -0.01564547 0.08570632
v 0.00054974 -0.01793379 0.08149916
v 0.00054998 -0.02014161 0.07683838
v 0.00055002 -0.02220470 0.07180045
v 0.00054985 -0.02405280 0.06647127
v -0.00205884 -0.01086229 0.09245891
v -0.00238694 -0.01313928 0.08931434
v -0.00277247 -0.01540966 0.08564175
v -0.00318872 -0.01764372 0.08146681
v -0.00361094 -0.01980418 0.07682632
v -0.00401885 -0.02182705 0.07179893
v -0.00439325 -0.02364170 0.06647377
v -0.00452138 -0.01048946 0.09206888
v -0.00517689 -0.01257897 0.08906398
v -0.00594299 -0.01467612 0.08549754
v -0.00676461 -0.01675627 0.08139542
v -0.00759517 -0.01878104 0.07679956
v -0.00839577 -0.02068628 0.07179533
v -0.00912943 -0.02240138 0.06647900
v -0.00668762 -0.00982828 0.09158893
v -0.00767406 -0.01159077 0.08878947
v -0.00881051 -0.01341142 0.08535220
v -0.01001494 -0.01525320 0.08132649
v -0.01122554 -0.01706444 0.07677557
v -0.01238831 -0.01878001 0.07179480
v -0.01345119 -0.02033140 0.06648755
v -0.01511052 0.02330665 0.05549366
v -0.01563489 0.02409846 0.04980769
v -0.01597495 0.02461927 0.04416212
v -0.01614075 0.02488355 0.03863825
v -0.01614233 0.02490576 0.03331740
v -0.01598973 0.02470035 0.02828087
v -0.01569302 0.02428179 0.02360997
v -0.01028946 0.02562477 0.05550194
v -0.01065267 0.02649405 0.04981624
v -0.01088839 0.02706504 0.04417085
v -0.01100354 0.02735366 0.03864707
v -0.01100508 0.02737590 0.03332622
v -0.01089994 0.02714767 0.02828961
v -0.01069507 0.02668495 0.02361855
v -0.00500479 0.02701725 0.05550626
v -0.00519136 0.02793309 0.04982072
v -0.00531269 0.02853421 0.04417542
v -0.00537233 0.02883747 0.03865168
v -0.00537383 0.02885971 0.03333083
v -0.00532071 0.02861778 0.02829418
v -0.00521652 0.02812852 0.02362303
v 0.00051199 0.02748396 0.05550669
v 0.00050983 0.02841539 0.04982116
v 0.00050790 0.02902662 0.04417588
v 0.00050621 0.02933478 0.03865215
v 0.00050476 0.02935702 0.03333129
v 0.00050358 0.02911050 0.02829464
v 0.00050266 0.02861235 0.02362348
v 0.00602939 0.02702473 0.05550330
v 0.00621167 0.02794081 0.04981765
v 0.00632915 0.02854210 0.04417229
v 0.00638542 0.02884543 0.03864853
v 0.00638402 0.02886767 0.03332767
v 0.00632852 0.02862567 0.02829105
v 0.00622249 0.02813627 0.02361996
v 0.01131594 0.02563940 0.05549613
v 0.01167492 0.02650918 0.04981025
v 0.01190683 0.02708048 0.04416473
v 0.01201862 0.02736926 0.03864089
v 0.01201727 0.02739149 0.03332004
v 0.01190974 0.02716313 0.02828348
v 0.01170299 0.02670012 0.02361253
v 0.01614014 0.02332782 0.05548526
v 0.01666038 0.02412033 0.04979901
v 0.01699670 0.02464160 0.04415326
v 0.01715917 0.02490610 0.03862931
v 0.01715786 0.02492832 0.03330846
v 0.01700284 0.02472270 0.02827201
v 0.01670418 0.02430374 0.02360126
v 0.02351411 0.01596389 0.05545280
v 0.02428084 0.01651025 0.04976546
v 0.02477675 0.01687214 0.04411901
v 0.02501668 0.01705929 0.03859471
v 0.02501544 0.01708144 0.03327386
v 0.02478784 0.01694830 0.02823774
v 0.02434869 0.01666964 0.02356761
v 0.02583223 0.01114287 0.05543223
v 0.02667645 0.01152807 0.04974420
v 0.02722254 0.01178562 0.04409731
v 0.02748682 0.01192213 0.03857279
v 0.02748560 0.01194423 0.03325194
v 0.02723518 0.01185856 0.02821602
v 0.02675186 0.01167174 0.02354628
v 0.02722473 0.00585825 0.05540999
v 0.02811549 0.00606681 0.04972122
v 0.02869172 0.00620997 0.04407384
v 0.02897063 0.00629097 0.03854910
v 0.02896941 0.00631303 0.03322825
v 0.02870528 0.00627937 0.02819254
v 0.02819544 0.00619323 0.02352323
v 0.02769143 0.00034152 0.05538704
v 0.02859779 0.00036567 0.04969751
v 0.02918412 0.00038943 0.04404963
v 0.02946793 0.00041248 0.03852465
v 0.02946673 0.00043449 0.03320379
v 0.02919800 0.00045514 0.02816831
v 0.02867927 0.00047410 0.02349944
v 0.02723219 -0.00517584 0.05536434
v 0.02812320 -0.00533612 0.04967405
v 0.02869959 -0.00543177 0.04402568
v 0.02897858 -0.00546668 0.03850046
v 0.02897737 -0.00544472 0.03317960
v 0.02871316 -0.00536976 0.02814435
v 0.02820318 -0.00524568 0.02347591
v 0.02584684 -0.01046234 0.05534285
v 0.02669155 -0.01079933 0.04965184
v 0.02723796 -0.01100940 0.04400301
v 0.02750239 -0.01109984 0.03847756
v 0.02750116 -0.01107793 0.03315671
v 0.02725060 -0.01095093 0.02812166
v 0.02676701 -0.01072614 0.02345363
v 0.02353524 -0.01528650 0.05532352
v 0.02430267 -0.01578474 0.04963187
v 0.02479905 -0.01609923 0.04398262
v 0.02503920 -0.01624035 0.03845696
v 0.02503796 -0.01621847 0.03313611
v 0.02481015 -0.01604399 0.02810125
v 0.02437060 -0.01572729 0.02343359
v -0.02245339 -0.01531765 0.05533588
v -0.02322321 -0.01581694 0.04964463
v -0.02372219 -0.01613210 0.04399565
v -0.02396512 -0.01627354 0.03847012
v -0.02396676 -0.01625167 0.03314927
v -0.02374189 -0.01607688 0.02811430
v -0.02330528 -0.01575959 0.02344640
v -0.02477152 -0.01049663 0.05535645
v -0.02561882 -0.01083476 0.04966589
v -0.02616798 -0.01104558 0.04401735
v -0.02643525 -0.01113638 0.03849205
v -0.02643692 -0.01111446 0.03317119
v -0.02618923 -0.01098713 0.02813602
v -0.02570845 -0.01076169 0.02346772
v -0.02616401 -0.00521201 0.05537869
v -0.02705786 -0.00537350 0.04968887
v -0.02763715 -0.00546994 0.04404082
v -0.02791906 -0.00550522 0.03851574
v -0.02792074 -0.00548326 0.03319489
v -0.02765934 -0.00540795 0.02815949
v -0.02715204 -0.00528318 0.02349077
v -0.02663071 0.00030472 0.05540163
v -0.02754016 0.00032764 0.04971259
v -0.02812956 0.00035061 0.04406503
v -0.02841637 0.00037327 0.03854019
v -0.02841805 0.00039528 0.03321934
v -0.02815206 0.00041629 0.02818372
v -0.02763586 0.00043595 0.02351456
v -0.02617147 0.00582208 0.05542433
v -0.02706557 0.00602943 0.04973605
v -0.02764503 0.00617181 0.04408898
v -0.02792701 0.00625243 0.03856438
v -0.02792869 0.00627448 0.03324353
v -0.02766722 0.00624118 0.02820768
v -0.02715977 0.00615573 0.02353810
v -0.02478612 0.01110858 0.05544582
v -0.02563392 0.01149264 0.04975826
v -0.02618339 0.01174944 0.04411165
v -0.02645082 0.01188559 0.03858728
v -0.02645249 0.01190769 0.03326643
v -0.02620466 0.01182236 0.02823037
v -0.02572360 0.01163619 0.02356038
v -0.02247452 0.01593274 0.05546515
v -0.02324504 0.01647805 0.04977823
v -0.02374449 0.01683927 0.04413204
v -0.02398764 0.01702609 0.03860788
v -0.02398928 0.01704824 0.03328703
v -0.02376420 0.01691542 0.02825078
v -0.02332719 0.01663734 0.02358041
v 0.01617124 -0.02266041 0.05529502
v 0.01669252 -0.02340515 0.04960241
v 0.01702952 -0.02387923 0.04395254
v 0.01719231 -0.02409780 0.03842659
v 0.01719101 -0.02407599 0.03310573
v 0.01703568 -0.02382893 0.02807116
v 0.01673643 -0.02337174 0.02340404
v 0.01135017 -0.02497852 0.05528674
v 0.01171030 -0.02580074 0.04959385
v 0.01194295 -0.02632500 0.04394381
v 0.01205510 -0.02656792 0.03841776
v 0.01205375 -0.02654613 0.03309691
v 0.01194588 -0.02627625 0.02806242
v 0.01173848 -0.02577489 0.02339546
v 0.00606551 -0.02637101 0.05528241
v 0.00624899 -0.02723978 0.04958938
v 0.00636725 -0.02779417 0.04393924
v 0.00642390 -0.02805172 0.03841316
v 0.00642250 -0.02802994 0.03309230
v 0.00636665 -0.02774635 0.02805785
v 0.00625993 -0.02721847 0.02339097
v 0.00054873 -0.02683772 0.05528198
v 0.00054780 -0.02772208 0.04958893
v 0.00054666 -0.02828658 0.04393878
v 0.00054535 -0.02854903 0.03841270
v 0.00054391 -0.02852726 0.03309184
v 0.00054237 -0.02823908 0.02805740
v 0.00054075 -0.02770230 0.02339052
v -0.00496868 -0.02637849 0.05528538
v -0.00515404 -0.02724750 0.04959245
v -0.00527459 -0.02780206 0.04394237
v -0.00533385 -0.02805969 0.03841631
v -0.00533535 -0.02803791 0.03309546
v -0.00528258 -0.02775425 0.02806098
v -0.00517908 -0.02722622 0.02339404
v -0.01025522 -0.02499316 0.05529254
v -0.01061729 -0.02581587 0.04959985
v -0.01085226 -0.02634044 0.04394993
v -0.01096706 -0.02658352 0.03842395
v -0.01096860 -0.02656173 0.03310310
v -0.01086380 -0.02629170 0.02806854
v -0.01065958 -0.02579007 0.02340147
v -0.01507942 -0.02268158 0.05530341
v -0.01560275 -0.02342702 0.04961108
v -0.01594214 -0.02390156 0.04396140
v -0.01610761 -0.02412036 0.03843553
v -0.01610919 -0.02409855 0.03311468
v -0.01595690 -0.02385128 0.02808002
v -0.01566077 -0.02339368 0.02341274
f 213 214 221
f 213 221 220
f 214 215 222
f 214 222 221
f 215 216 223
f 215 223 222
f 216 217 224
f 216 224 223
f 217 218 225
f 217 225 224
f 218 219 226
f 218 226 225
f 220 221 228
f 220 228 227
f 221 222 229
f 221 229 228
f 222 223 230
f 222 230 229
f 223 224 231
f 223 231 230
f 224 225 232
f 224 232 231
f 225 226 233
f 225 233 232
f 227 228 235
f 227 235 234
f 228 229 236
f 228 236 235
f 229 230 237
f 229 237 236
f 230 231 238
f 230 238 237
f 231 232 239
f 231 239 238
f 232 233 240
f 232 240 239
f 234 235 242
f 234 242 241
f 235 236 243
f 235 243 242
f 236 237 244
f 236 244 243
f 237 238 245
f 237 245 244
f 238 239 246
f 238 246 245
f 239 240 247
f 239 247 246
f 241 242 249
f 241 249 248
f 242 243 250
f 242 250 249
f 243 244 251
f 243 251 250
f 244 245 252
f 244 252 251
f 245 246 253
f 245 253 252
f 246 247 254
f 246 254 253
f 248 249 256
f 248 256 255
f 249 250 257
f 249 257 256
f 250 251 258
f 250 258 257
f 251 252 259
f 251 259 258
f 252 253 260
f 252 260 259
f 253 254 261
f 253 261 260
f 1 93 213
f 1 213 66
f 93 92 214
f 93 214 213
f 92 91 215
f 92 215 214
f 91 90 216
f 91 216 215
f 90 89 217
f 90 217 216
f 89 88 218
f 89 218 217
f 88 87 219
f 88 219 218
f 87 5 86
f 87 86 219
f 219 86 85
f 219 85 226
f 226 85 84
f 226 84 233
f 233 84 83
f 233 83 240
f 240 83 82
f 240 82 247
f 247 82 81
f 247 81 254
f 254 81 80
f 254 80 261
f 261 80 7
f 261 7 65
f 260 261 65
f 260 65 64
f 259 260 64
f 259 64 63
f 258 259 63
f 258 63 62
f 257 258 62
f 257 62 61
f 256 257 61
f 256 61 60
f 255 256 60
f 255 60 59
f 72 255 59
f 72 59 3
f 71 248 255
f 71 255 72
f 70 241 248
f 70 248 71
f 69 234 241
f 69 241 70
f 68 227 234
f 68 234 69
f 67 220 227
f 67 227 68
f 66 213 220
f 66 220 67
f 262 263 270
f 262 270 269
f 263 264 271
f 263 271 270
f 264 265 272
f 264 272 271
f 265 266 273
f 265 273 272
f 266 267 274
f 266 274 273
f 267 268 275
f 267 275 274
f 269 270 277
f 269 277 276
f 270 271 278
f 270 278 277
f 271 272 279
f 271 279 278
f 272 273 280
f 272 280 279
f 273 274 281
f 273 281 280
f 274 275 282
f 274 282 281
f 276 277 284
f 276 284 283
f 277 278 285
f 277 285 284
f 278 279 286
f 278 286 285
f 279 280 287
f 279 287 286
f 280 281 288
f 280 288 287
f 281 282 289
f 281 289 288
f 283 284 291
f 283 291 290
f 284 285 292
f 284 292 291
f 285 286 293
f 285 293 292
f 286 287 294
f 286 294 293
f 287 288 295
f 287 295 294
f 288 289 296
f 288 296 295
f 290 291 298
f 290 298 297
f 291 292 299
f 291 299 298
f 292 293 300
f 292 300 299
f 293 294 301
f 293 301 300
f 294 295 302
f 294 302 301
f 295 296 303
f 295 303 302
f 297 298 305
f 297 305 304
f 298 299 306
f 298 306 305
f 299 300 307
f 299 307 306
f 300 301 308
f 300 308 307
f 301 302 309
f 301 309 308
f 302 303 310
f 302 310 309
f 15 177 262
f 15 262 206
f 177 176 263
f 177 263 262
f 176 175 264
f 176 264 263
f 175 174 265
f 175 265 264
f 174 173 266
f 174 266 265
f 173 172 267
f 173 267 266
f 172 171 268
f 172 268 267
f 171 3 59
f 171 59 268
f 268 59 60
f 268 60 275
f 275 60 61
f 275 61 282
f 282 61 62
f 282 62 289
f 289 62 63
f 289 63 296
f 296 63 64
f 296 64 303
f 303 64 65
f 303 65 310
f 310 65 7
f 310 7 44
f 309 310 44
f 309 44 43
f 308 309 43
f 308 43 42
f 307 308 42
f 307 42 41
f 306 307 41
f 306 41 40
f 305 306 40
f 305 40 39
f 304 305 39
f 304 39 38
f 212 304 38
f 212 38 13
f 211 297 304
f 211 304 212
f 210 290 297
f 210 297 211
f 209 283 290
f 209 290 210
f 208 276 283
f 208 283 209
f 207 269 276
f 207 276 208
f 206 262 269
f 206 269 207
f 311 312 319
f 311 319 318
f 312 313 320
f 312 320 319
f 313 314 321
f 313 321 320
f 314 315 322
f 314 322 321
f 315 316 323
f 315 323 322
f 316 317 324
f 316 324 323
f 318 319 326
f 318 326 325
f 319 320 327
f 319 327 326
f 320 321 328
f 320 328 327
f 321 322 329
f 321 329 328
f 322 323 330
f 322 330 329
f 323 324 331
f 323 331 330
f 325 326 333
f 325 333 332
f 326 327 334
f 326 334 333
f 327 328 335
f 327 335 334
f 328 329 336
f 328 336 335
f 329 330 337
f 329 337 336
f 330 331 338
f 330 338 337
f 332 333 340
f 332 340 339
f 333 334 341
f 333 341 340
f 334 335 342
f 334 342 341
f 335 336 343
f 335 343 342
f 336 337 344
f 336 344 343
f 337 338 345
f 337 345 344
f 339 340 347
f 339 347 346
f 340 341 348
f 340 348 347
f 341 342 349
f 341 349 348
f 342 343 350
f 342 350 349
f 343 344 351
f 343 351 350
f 344 345 352
f 344 352 351
f 346 347 354
f 346 354 353
f 347 348 355
f 347 355 354
f 348 349 356
f 348 356 355
f 349 350 357
f 349 357 356
f 350 351 358
f 350 358 357
f 351 352 359
f 351 359 358
f 13 38 311
f 13 311 199
f 38 39 312
f 38 312 311
f 39 40 313
f 39 313 312
f 40 41 314
f 40 314 313
f 41 42 315
f 41 315 314
f 42 43 316
f 42 316 315
f 43 44 317
f 43 317 316
f 44 7 80
f 44 80 317
f 317 80 81
f 317 81 324
f 324 81 82
f 324 82 331
f 331 82 83
f 331 83 338
f 338 83 84
f 338 84 345
f 345 84 85
f 345 85 352
f 352 85 86
f 352 86 359
f 359 86 5
f 359 5 178
f 358 359 178
f 358 178 179
f 357 358 179
f 357 179 180
f 356 357 180
f 356 180 181
f 355 356 181
f 355 181 182
f 354 355 182
f 354 182 183
f 353 354 183
f 353 183 184
f 205 353 184
f 205 184 16
f 204 346 353
f 204 353 205
f 203 339 346
f 203 346 204
f 202 332 339
f 202 339 203
f 201 325 332
f 201 332 202
f 200 318 325
f 200 325 201
f 199 311 318
f 199 318 200
f 360 361 368
f 360 368 367
f 361 362 369
f 361 369 368
f 362 363 370
f 362 370 369
f 363 364 371
f 363 371 370
f 364 365 372
f 364 372 371
f 365 366 373
f 365 373 372
f 367 368 375
f 367 375 374
f 368 369 376
f 368 376 375
f 369 370 377
f 369 377 376
f 370 371 378
f 370 378 377
f 371 372 379
f 371 379 378
f 372 373 380
f 372 380 379
f 374 375 382
f 374 382 381
f 375 376 383
f 375 383 382
f 376 377 384
f 376 384 383
f 377 378 385
f 377 385 384
f 378 379 386
f 378 386 385
f 379 380 387
f 379 387 386
f 381 382 389
f 381 389 388
f 382 383 390
f 382 390 389
f 383 384 391
f 383 391 390
f 384 385 392
f 384 392 391
f 385 386 393
f 385 393 392
f 386 387 394
f 386 394 393
f 388 389 396
f 388 396 395
f 389 390 397
f 389 397 396
f 390 391 398
f 390 398 397
f 391 392 399
f 391 399 398
f 392 393 400
f 392 400 399
f 393 394 401
f 393 401 400
f 395 396 403
f 395 403 402
f 396 397 404
f 396 404 403
f 397 398 405
f 397 405 404
f 398 399 406
f 398 406 405
f 399 400 407
f 399 407 406
f 400 401 408
f 400 408 407
f 6 30 360
f 6 360 17
f 30 29 361
f 30 361 360
f 29 28 362
f 29 362 361
f 28 27 363
f 28 363 362
f 27 26 364
f 27 364 363
f 26 25 365
f 26 365 364
f 25 24 366
f 25 366 365
f 24 2 100
f 24 100 366
f 366 100 99
f 366 99 373
f 373 99 98
f 373 98 380
f 380 98 97
f 380 97 387
f 387 97 96
f 387 96 394
f 394 96 95
f 394 95 401
f 401 95 94
f 401 94 408
f 408 94 4
f 408 4 79
f 407 408 79
f 407 79 78
f 406 407 78
f 406 78 77
f 405 406 77
f 405 77 76
f 404 405 76
f 404 76 75
f 403 404 75
f 403 75 74
f 402 403 74
f 402 74 73
f 23 402 73
f 23 73 8
f 22 395 402
f 22 402 23
f 21 388 395
f 21 395 22
f 20 381 388
f 20 388 21
f 19 374 381
f 19 381 20
f 18 367 374
f 18 374 19
f 17 360 367
f 17 367 18
f 409 410 417
f 409 417 416
f 410 411 418
f 410 418 417
f 411 412 419
f 411 419 418
f 412 413 420
f 412 420 419
f 413 414 421
f 413 421 420
f 414 415 422
f 414 422 421
f 416 417 424
f 416 424 423
f 417 418 425
f 417 425 424
f 418 419 426
f 418 426 425
f 419 420 427
f 419 427 426
f 420 421 428
f 420 428 427
f 421 422 429
f 421 429 428
f 423 424 431
f 423 431 430
f 424 425 432
f 424 432 431
f 425 426 433
f 425 433 432
f 426 427 434
f 426 434 433
f 427 428 435
f 427 435 434
f 428 429 436
f 428 436 435
f 430 431 438
f 430 438 437
f 431 432 439
f 431 439 438
f 432 433 440
f 432 440 439
f 433 434 441
f 433 441 440
f 434 435 442
f 434 442 441
f 435 436 443
f 435 443 442
f 437 438 445
f 437 445 444
f 438 439 446
f 438 446 445
f 439 440 447
f 439 447 446
f 440 441 448
f 440 448 447
f 441 442 449
f 441 449 448
f 442 443 450
f 442 450 449
f 444 445 452
f 444 452 451
f 445 446 453
f 445 453 452
f 446 447 454
f 446 454 453
f 447 448 455
f 447 455 454
f 448 449 456
f 448 456 455
f 449 450 457
f 449 457 456
f 14 170 409
f 14 409 192
f 170 169 410
f 170 410 409
f 169 168 411
f 169 411 410
f 168 167 412
f 168 412 411
f 167 166 413
f 167 413 412
f 166 165 414
f 166 414 413
f 165 164 415
f 165 415 414
f 164 1 66
f 164 66 415
f 415 66 67
f 415 67 422
f 422 67 68
f 422 68 429
f 429 68 69
f 429 69 436
f 436 69 70
f 436 70 443
f 443 70 71
f 443 71 450
f 450 71 72
f 450 72 457
f 457 72 3
f 457 3 171
f 456 457 171
f 456 171 172
f 455 456 172
f 455 172 173
f 454 455 173
f 454 173 174
f 453 454 174
f 453 174 175
f 452 453 175
f 452 175 176
f 451 452 176
f 451 176 177
f 198 451 177
f 198 177 15
f 197 444 451
f 197 451 198
f 196 437 444
f 196 444 197
f 195 430 437
f 195 437 196
f 194 423 430
f 194 430 195
f 193 416 423
f 193 423 194
f 192 409 416
f 192 416 193
f 458 459 466
f 458 466 465
f 459 460 467
f 459 467 466
f 460 461 468
f 460 468 467
f 461 462 469
f 461 469 468
f 462 463 470
f 462 470 469
f 463 464 471
f 463 471 470
f 465 466 473
f 465 473 472
f 466 467 474
f 466 474 473
f 467 468 475
f 467 475 474
f 468 469 476
f 468 476 475
f 469 470 477
f 469 477 476
f 470 471 478
f 470 478 477
f 472 473 480
f 472 480 479
f 473 474 481
f 473 481 480
f 474 475 482
f 474 482 481
f 475 476 483
f 475 483 482
f 476 477 484
f 476 484 483
f 477 478 485
f 477 485 484
f 479 480 487
f 479 487 486
f 480 481 488
f 480 488 487
f 481 482 489
f 481 489 488
f 482 483 490
f 482 490 489
f 483 484 491
f 483 491 490
f 484 485 492
f 484 492 491
f 486 487 494
f 486 494 493
f 487 488 495
f 487 495 494
f 488 489 496
f 488 496 495
f 489 490 497
f 489 497 496
f 490 491 498
f 490 498 497
f 491 492 499
f 491 499 498
f 493 494 501
f 493 501 500
f 494 495 502
f 494 502 501
f 495 496 503
f 495 503 502
f 496 497 504
f 496 504 503
f 497 498 505
f 497 505 504
f 498 499 506
f 498 506 505
f 16 184 458
f 16 458 185
f 184 183 459
f 184 459 458
f 183 182 460
f 183 460 459
f 182 181 461
f 182 461 460
f 181 180 462
f 181 462 461
f 180 179 463
f 180 463 462
f 179 178 464
f 179 464 463
f 178 5 87
f 178 87 464
f 464 87 88
f 464 88 471
f 471 88 89
f 471 89 478
f 478 89 90
f 478 90 485
f 485 90 91
f 485 91 492
f 492 91 92
f 492 92 499
f 499 92 93
f 499 93 506
f 506 93 1
f 506 1 164
f 505 506 164
f 505 164 165
f 504 505 165
f 504 165 166
f 503 504 166
f 503 166 167
f 502 503 167
f 502 167 168
f 501 502 168
f 501 168 169
f 500 501 169
f 500 169 170
f 191 500 170
f 191 170 14
f 190 493 500
f 190 500 191
f 189 486 493
f 189 493 190
f 188 479 486
f 188 486 189
f 187 472 479
f 187 479 188
f 186 465 472
f 186 472 187
f 185 458 465
f 185 465 186
f 507 508 515
f 507 515 514
f 508 509 516
f 508 516 515
f 509 510 517
f 509 517 516
f 510 511 518
f 510 518 517
f 511 512 519
f 511 519 518
f 512 513 520
f 512 520 519
f 514 515 522
f 514 522 521
f 515 516 523
f 515 523 522
f 516 517 524
f 516 524 523
f 517 518 525
f 517 525 524
f 518 519 526
f 518 526 525
f 519 520 527
f 519 527 526
f 521 522 529
f 521 529 528
f 522 523 530
f 522 530 529
f 523 524 531
f 523 531 530
f 524 525 532
f 524 532 531
f 525 526 533
f 525 533 532
f 526 527 534
f 526 534 533
f 528 529 536
f 528 536 535
f 529 530 537
f 529 537 536
f 530 531 538
f 530 538 537
f 531 532 539
f 531 539 538
f 532 533 540
f 532 540 539
f 533 534 541
f 533 541 540
f 535 536 543
f 535 543 542
f 536 537 544
f 536 544 543
f 537 538 545
f 537 545 544
f 538 539 546
f 538 546 545
f 539 540 547
f 539 547 546
f 540 541 548
f 540 548 547
f 542 543 550
f 542 550 549
f 543 544 551
f 543 551 550
f 544 545 552
f 544 552 551
f 545 546 553
f 545 553 552
f 546 547 554
f 546 554 553
f 547 548 555
f 547 555 554
f 6 58 507
f 6 507 30
f 58 57 508
f 58 508 507
f 57 56 509
f 57 509 508
f 56 55 510
f 56 510 509
f 55 54 511
f 55 511 510
f 54 53 512
f 54 512 511
f 53 52 513
f 53 513 512
f 52 12 129
f 52 129 513
f 513 129 130
f 513 130 520
f 520 130 131
f 520 131 527
f 527 131 132
f 527 132 534
f 534 132 133
f 534 133 541
f 541 133 134
f 541 134 548
f 548 134 135
f 548 135 555
f 555 135 9
f 555 9 31
f 554 555 31
f 554 31 32
f 553 554 32
f 553 32 33
f 552 553 33
f 552 33 34
f 551 552 34
f 551 34 35
f 550 551 35
f 550 35 36
f 549 550 36
f 549 36 37
f 24 549 37
f 24 37 2
f 25 542 549
f 25 549 24
f 26 535 542
f 26 542 25
f 27 528 535
f 27 535 26
f 28 521 528
f 28 528 27
f 29 514 521
f 29 521 28
f 30 507 514
f 30 514 29
f 556 557 564
f 556 564 563
f 557 558 565
f 557 565 564
f 558 559 566
f 558 566 565
f 559 560 567
f 559 567 566
f 560 561 568
f 560 568 567
f 561 562 569
f 561 569 568
f 563 564 571
f 563 571 570
f 564 565 572
f 564 572 571
f 565 566 573
f 565 573 572
f 566 567 574
f 566 574 573
f 567 568 575
f 567 575 574
f 568 569 576
f 568 576 575
f 570 571 578
f 570 578 577
f 571 572 579
f 571 579 578
f 572 573 580
f 572 580 579
f 573 574 581
f 573 581 580
f 574 575 582
f 574 582 581
f 575 576 583
f 575 583 582
f 577 578 585
f 577 585 584
f 578 579 586
f 578 586 585
f 579 580 587
f 579 587 586
f 580 581 588
f 580 588 587
f 581 582 589
f 581 589 588
f 582 583 590
f 582 590 589
f 584 585 592
f 584 592 591
f 585 586 593
f 585 593 592
f 586 587 594
f 586 594 593
f 587 588 595
f 587 595 594
f 588 589 596
f 588 596 595
f 589 590 597
f 589 597 596
f 591 592 599
f 591 599 598
f 592 593 600
f 592 600 599
f 593 594 601
f 593 601 600
f 594 595 602
f 594 602 601
f 595 596 603
f 595 603 602
f 596 597 604
f 596 604 603
f 2 37 556
f 2 556 100
f 37 36 557
f 37 557 556
f 36 35 558
f 36 558 557
f 35 34 559
f 35 559 558
f 34 33 560
f 34 560 559
f 33 32 561
f 33 561 560
f 32 31 562
f 32 562 561
f 31 9 136
f 31 136 562
f 562 136 137
f 562 137 569
f 569 137 138
f 569 138 576
f 576 138 139
f 576 139 583
f 583 139 140
f 583 140 590
f 590 140 141
f 590 141 597
f 597 141 142
f 597 142 604
f 604 142 11
f 604 11 45
f 603 604 45
f 603 45 46
f 602 603 46
f 602 46 47
f 601 602 47
f 601 47 48
f 600 601 48
f 600 48 49
f 599 600 49
f 599 49 50
f 598 599 50
f 598 50 51
f 94 598 51
f 94 51 4
f 95 591 598
f 95 598 94
f 96 584 591
f 96 591 95
f 97 577 584
f 97 584 96
f 98 570 577
f 98 577 97
f 99 563 570
f 99 570 98
f 100 556 563
f 100 563 99
f 605 606 613
f 605 613 612
f 606 607 614
f 606 614 613
f 607 608 615
f 607 615 614
f 608 609 616
f 608 616 615
f 609 610 617
f 609 617 616
f 610 611 618
f 610 618 617
f 612 613 620
f 612 620 619
f 613 614 621
f 613 621 620
f 614 615 622
f 614 622 621
f 615 616 623
f 615 623 622
f 616 617 624
f 616 624 623
f 617 618 625
f 617 625 624
f 619 620 627
f 619 627 626
f 620 621 628
f 620 628 627
f 621 622 629
f 621 629 628
f 622 623 630
f 622 630 629
f 623 624 631
f 623 631 630
f 624 625 632
f 624 632 631
f 626 627 634
f 626 634 633
f 627 628 635
f 627 635 634
f 628 629 636
f 628 636 635
f 629 630 637
f 629 637 636
f 630 631 638
f 630 638 637
f 631 632 639
f 631 639 638
f 633 634 641
f 633 641 640
f 634 635 642
f 634 642 641
f 635 636 643
f 635 643 642
f 636 637 644
f 636 644 643
f 637 638 645
f 637 645 644
f 638 639 646
f 638 646 645
f 640 641 648
f 640 648 647
f 641 642 649
f 641 649 648
f 642 643 650
f 642 650 649
f 643 644 651
f 643 651 650
f 644 645 652
f 644 652 651
f 645 646 653
f 645 653 652
f 8 108 605
f 8 605 23
f 108 109 606
f 108 606 605
f 109 110 607
f 109 607 606
f 110 111 608
f 110 608 607
f 111 112 609
f 111 609 608
f 112 113 610
f 112 610 609
f 113 114 611
f 113 611 610
f 114 10 143
f 114 143 611
f 611 143 144
f 611 144 618
f 618 144 145
f 618 145 625
f 625 145 146
f 625 146 632
f 632 146 147
f 632 147 639
f 639 147 148
f 639 148 646
f 646 148 149
f 646 149 653
f 653 149 12
f 653 12 52
f 652 653 52
f 652 52 53
f 651 652 53
f 651 53 54
f 650 651 54
f 650 54 55
f 649 650 55
f 649 55 56
f 648 649 56
f 648 56 57
f 647 648 57
f 647 57 58
f 17 647 58
f 17 58 6
f 18 640 647
f 18 647 17
f 19 633 640
f 19 640 18
f 20 626 633
f 20 633 19
f 21 619 626
f 21 626 20
f 22 612 619
f 22 619 21
f 23 605 612
f 23 612 22
f 654 655 662
f 654 662 661
f 655 656 663
f 655 663 662
f 656 657 664
f 656 664 663
f 657 658 665
f 657 665 664
f 658 659 666
f 658 666 665
f 659 660 667
f 659 667 666
f 661 662 669
f 661 669 668
f 662 663 670
f 662 670 669
f 663 664 671
f 663 671 670
f 664 665 672
f 664 672 671
f 665 666 673
f 665 673 672
f 666 667 674
f 666 674 673
f 668 669 676
f 668 676 675
f 669 670 677
f 669 677 676
f 670 671 678
f 670 678 677
f 671 672 679
f 671 679 678
f 672 673 680
f 672 680 679
f 673 674 681
f 673 681 680
f 675 676 683
f 675 683 682
f 676 677 684
f 676 684 683
f 677 678 685
f 677 685 684
f 678 679 686
f 678 686 685
f 679 680 687
f 679 687 686
f 680 681 688
f 680 688 687
f 682 683 690
f 682 690 689
f 683 684 691
f 683 691 690
f 684 685 692
f 684 692 691
f 685 686 693
f 685 693 692
f 686 687 694
f 686 694 693
f 687 688 695
f 687 695 694
f 689 690 697
f 689 697 696
f 690 691 698
f 690 698 697
f 691 692 699
f 691 699 698
f 692 693 700
f 692 700 699
f 693 694 701
f 693 701 700
f 694 695 702
f 694 702 701
f 4 51 654
f 4 654 79
f 51 50 655
f 51 655 654
f 50 49 656
f 50 656 655
f 49 48 657
f 49 657 656
f 48 47 658
f 48 658 657
f 47 46 659
f 47 659 658
f 46 45 660
f 46 660 659
f 45 11 150
f 45 150 660
f 660 150 151
f 660 151 667
f 667 151 152
f 667 152 674
f 674 152 153
f 674 153 681
f 681 153 154
f 681 154 688
f 688 154 155
f 688 155 695
f 695 155 156
f 695 156 702
f 702 156 10
f 702 10 114
f 701 702 114
f 701 114 113
f 700 701 113
f 700 113 112
f 699 700 112
f 699 112 111
f 698 699 111
f 698 111 110
f 697 698 110
f 697 110 109
f 696 697 109
f 696 109 108
f 73 696 108
f 73 108 8
f 74 689 696
f 74 696 73
f 75 682 689
f 75 689 74
f 76 675 682
f 76 682 75
f 77 668 675
f 77 675 76
f 78 661 668
f 78 668 77
f 79 654 661
f 79 661 78
f 703 704 711
f 703 711 710
f 704 705 712
f 704 712 711
f 705 706 713
f 705 713 712
f 706 707 714
f 706 714 713
f 707 708 715
f 707 715 714
f 708 709 716
f 708 716 715
f 710 711 718
f 710 718 717
f 711 712 719
f 711 719 718
f 712 713 720
f 712 720 719
f 713 714 721
f 713 721 720
f 714 715 722
f 714 722 721
f 715 716 723
f 715 723 722
f 717 718 725
f 717 725 724
f 718 719 726
f 718 726 725
f 719 720 727
f 719 727 726
f 720 721 728
f 720 728 727
f 721 722 729
f 721 729 728
f 722 723 730
f 722 730 729
f 724 725 732
f 724 732 731
f 725 726 733
f 725 733 732
f 726 727 734
f 726 734 733
f 727 728 735
f 727 735 734
f 728 729 736
f 728 736 735
f 729 730 737
f 729 737 736
f 731 732 739
f 731 739 738
f 732 733 740
f 732 740 739
f 733 734 741
f 733 741 740
f 734 735 742
f 734 742 741
f 735 736 743
f 735 743 742
f 736 737 744
f 736 744 743
f 738 739 746
f 738 746 745
f 739 740 747
f 739 747 746
f 740 741 748
f 740 748 747
f 741 742 749
f 741 749 748
f 742 743 750
f 742 750 749
f 743 744 751
f 743 751 750
f 12 128 703
f 12 703 129
f 128 127 704
f 128 704 703
f 127 126 705
f 127 705 704
f 126 125 706
f 126 706 705
f 125 124 707
f 125 707 706
f 124 123 708
f 124 708 707
f 123 122 709
f 123 709 708
f 122 16 185
f 122 185 709
f 709 185 186
f 709 186 716
f 716 186 187
f 716 187 723
f 723 187 188
f 723 188 730
f 730 188 189
f 730 189 737
f 737 189 190
f 737 190 744
f 744 190 191
f 744 191 751
f 751 191 14
f 751 14 101
f 750 751 101
f 750 101 102
f 749 750 102
f 749 102 103
f 748 749 103
f 748 103 104
f 747 748 104
f 747 104 105
f 746 747 105
f 746 105 106
f 745 746 106
f 745 106 107
f 135 745 107
f 135 107 9
f 134 738 745
f 134 745 135
f 133 731 738
f 133 738 134
f 132 724 731
f 132 731 133
f 131 717 724
f 131 724 132
f 130 710 717
f 130 717 131
f 129 703 710
f 129 710 130
f 752 753 760
f 752 760 759
f 753 754 761
f 753 761 760
f 754 755 762
f 754 762 761
f 755 756 763
f 755 763 762
f 756 757 764
f 756 764 763
f 757 758 765
f 757 765 764
f 759 760 767
f 759 767 766
f 760 761 768
f 760 768 767
f 761 762 769
f 761 769 768
f 762 763 770
f 762 770 769
f 763 764 771
f 763 771 770
f 764 765 772
f 764 772 771
f 766 767 774
f 766 774 773
f 767 768 775
f 767 775 774
f 768 769 776
f 768 776 775
f 769 770 777
f 769 777 776
f 770 771 778
f 770 778 777
f 771 772 779
f 771 779 778
f 773 774 781
f 773 781 780
f 774 775 782
f 774 782 781
f 775 776 783
f 775 783 782
f 776 777 784
f 776 784 783
f 777 778 785
f 777 785 784
f 778 779 786
f 778 786 785
f 780 781 788
f 780 788 787
f 781 782 789
f 781 789 788
f 782 783 790
f 782 790 789
f 783 784 791
f 783 791 790
f 784 785 792
f 784 792 791
f 785 786 793
f 785 793 792
f 787 788 795
f 787 795 794
f 788 789 796
f 788 796 795
f 789 790 797
f 789 797 796
f 790 791 798
f 790 798 797
f 791 792 799
f 791 799 798
f 792 793 800
f 792 800 799
f 9 107 752
f 9 752 136
f 107 106 753
f 107 753 752
f 106 105 754
f 106 754 753
f 105 104 755
f 105 755 754
f 104 103 756
f 104 756 755
f 103 102 757
f 103 757 756
f 102 101 758
f 102 758 757
f 101 14 192
f 101 192 758
f 758 192 193
f 758 193 765
f 765 193 194
f 765 194 772
f 772 194 195
f 772 195 779
f 779 195 196
f 779 196 786
f 786 196 197
f 786 197 793
f 793 197 198
f 793 198 800
f 800 198 15
f 800 15 115
f 799 800 115
f 799 115 116
f 798 799 116
f 798 116 117
f 797 798 117
f 797 117 118
f 796 797 118
f 796 118 119
f 795 796 119
f 795 119 120
f 794 795 120
f 794 120 121
f 142 794 121
f 142 121 11
f 141 787 794
f 141 794 142
f 140 780 787
f 140 787 141
f 139 773 780
f 139 780 140
f 138 766 773
f 138 773 139
f 137 759 766
f 137 766 138
f 136 752 759
f 136 759 137
f 801 802 809
f 801 809 808
f 802 803 810
f 802 810 809
f 803 804 811
f 803 811 810
f 804 805 812
f 804 812 811
f 805 806 813
f 805 813 812
f 806 807 814
f 806 814 813
f 808 809 816
f 808 816 815
f 809 810 817
f 809 817 816
f 810 811 818
f 810 818 817
f 811 812 819
f 811 819 818
f 812 813 820
f 812 820 819
f 813 814 821
f 813 821 820
f 815 816 823
f 815 823 822
f 816 817 824
f 816 824 823
f 817 818 825
f 817 825 824
f 818 819 826
f 818 826 825
f 819 820 827
f 819 827 826
f 820 821 828
f 820 828 827
f 822 823 830
f 822 830 829
f 823 824 831
f 823 831 830
f 824 825 832
f 824 832 831
f 825 826 833
f 825 833 832
f 826 827 834
f 826 834 833
f 827 828 835
f 827 835 834
f 829 830 837
f 829 837 836
f 830 831 838
f 830 838 837
f 831 832 839
f 831 839 838
f 832 833 840
f 832 840 839
f 833 834 841
f 833 841 840
f 834 835 842
f 834 842 841
f 836 837 844
f 836 844 843
f 837 838 845
f 837 845 844
f 838 839 846
f 838 846 845
f 839 840 847
f 839 847 846
f 840 841 848
f 840 848 847
f 841 842 849
f 841 849 848
f 10 157 801
f 10 801 143
f 157 158 802
f 157 802 801
f 158 159 803
f 158 803 802
f 159 160 804
f 159 804 803
f 160 161 805
f 160 805 804
f 161 162 806
f 161 806 805
f 162 163 807
f 162 807 806
f 163 13 199
f 163 199 807
f 807 199 200
f 807 200 814
f 814 200 201
f 814 201 821
f 821 201 202
f 821 202 828
f 828 202 203
f 828 203 835
f 835 203 204
f 835 204 842
f 842 204 205
f 842 205 849
f 849 205 16
f 849 16 122
f 848 849 122
f 848 122 123
f 847 848 123
f 847 123 124
f 846 847 124
f 846 124 125
f 845 846 125
f 845 125 126
f 844 845 126
f 844 126 127
f 843 844 127
f 843 127 128
f 149 843 128
f 149 128 12
f 148 836 843
f 148 843 149
f 147 829 836
f 147 836 148
f 146 822 829
f 146 829 147
f 145 815 822
f 145 822 146
f 144 808 815
f 144 815 145
f 143 801 808
f 143 808 144
f 850 851 858
f 850 858 857
f 851 852 859
f 851 859 858
f 852 853 860
f 852 860 859
f 853 854 861
f 853 861 860
f 854 855 862
f 854 862 861
f 855 856 863
f 855 863 862
f 857 858 865
f 857 865 864
f 858 859 866
f 858 866 865
f 859 860 867
f 859 867 866
f 860 861 868
f 860 868 867
f 861 862 869
f 861 869 868
f 862 863 870
f 862 870 869
f 864 865 872
f 864 872 871
f 865 866 873
f 865 873 872
f 866 867 874
f 866 874 873
f 867 868 875
f 867 875 874
f 868 869 876
f 868 876 875
f 869 870 877
f 869 877 876
f 871 872 879
f 871 879 878
f 872 873 880
f 872 880 879
f 873 874 881
f 873 881 880
f 874 875 882
f 874 882 881
f 875 876 883
f 875 883 882
f 876 877 884
f 876 884 883
f 878 879 886
f 878 886 885
f 879 880 887
f 879 887 886
f 880 881 888
f 880 888 887
f 881 882 889
f 881 889 888
f 882 883 890
f 882 890 889
f 883 884 891
f 883 891 890
f 885 886 893
f 885 893 892
f 886 887 894
f 886 894 893
f 887 888 895
f 887 895 894
f 888 889 896
f 888 896 895
f 889 890 897
f 889 897 896
f 890 891 898
f 890 898 897
f 11 121 850
f 11 850 150
f 121 120 851
f 121 851 850
f 120 119 852
f 120 852 851
f 119 118 853
f 119 853 852
f 118 117 854
f 118 854 853
f 117 116 855
f 117 855 854
f 116 115 856
f 116 856 855
f 115 15 206
f 115 206 856
f 856 206 207
f 856 207 863
f 863 207 208
f 863 208 870
f 870 208 209
f 870 209 877
f 877 209 210
f 877 210 884
f 884 210 211
f 884 211 891
f 891 211 212
f 891 212 898
f 898 212 13
f 898 13 163
f 897 898 163
f 897 163 162
f 896 897 162
f 896 162 161
f 895 896 161
f 895 161 160
f 894 895 160
f 894 160 159
f 893 894 159
f 893 159 158
f 892 893 158
f 892 158 157
f 156 892 157
f 156 157 10
f 155 885 892
f 155 892 156
f 154 878 885
f 154 885 155
f 153 871 878
f 153 878 154
f 152 864 871
f 152 871 153
f 151 857 864
f 151 864 152
f 150 850 857
f 150 857 151