# https://github.com/mikedh/trimesh
v -0.02441703 0.01892366 0.02339143
v -0.02299707 0.01892366 0.02679228
v -0.02232196 0.02699900 0.02785896
v -0.02370024 0.02699900 0.02339143
v 0.02232825 0.02699900 0.02785896
v 0.02370653 0.02699900 0.02339143
v 0.02370653 -0.03566715 0.02339143
v 0.02232825 -0.03566715 0.02620573
v 0.02232825 -0.03760377 0.02572560
v 0.02370653 -0.03760377 0.02339143
v -0.02232196 -0.03760377 0.02572560
v -0.02370024 -0.03760377 0.02339143
v -0.02370024 -0.03566715 0.00798011
v 0.02370653 -0.03566715 0.00798011
v 0.02370653 -0.03760377 0.00798011
v -0.02370024 -0.03760377 0.00798011
v -0.02232196 -0.03566715 0.02620573
v 0.01409040 0.01914064 0.02682094
v 0.01424972 0.02438549 0.02751374
v 0.01504505 0.02604627 0.03026015
v 0.01744212 0.01831678 0.02846314
v 0.02339553 0.01084831 0.02572560
v -0.02338924 0.01084831 0.02572560
v -0.02329786 -0.01311215 0.02639803
v 0.02330415 -0.01311215 0.02639803
v -0.02316630 -0.02133307 0.02631838
v 0.02293509 -0.02133307 0.02631838
v -0.02370024 0.01892366 0.00798011
v 0.02370653 0.01892366 0.00798011
v 0.02370653 0.01084831 0.00798011
v -0.02370024 0.01084831 0.00798011
v 0.02370653 -0.01311215 0.00798011
v -0.02370024 -0.01311215 0.00798011
v 0.02370653 -0.02145308 0.00798011
v -0.02370024 -0.02145308 0.00798011
v 0.02442332 0.01892366 0.02339143
v 0.02300336 0.01892366 0.02679228
v 0.02483971 0.01084831 0.02339143
v 0.02474269 -0.01311215 0.02339143
v 0.02435816 -0.02133307 0.02398421
v -0.02370024 -0.03566715 0.02339143
v -0.02458938 -0.02133307 0.02398421
v -0.02473640 -0.01311215 0.02339143
v -0.02483342 0.01084831 0.02339143
v -0.02370024 0.02699900 0.00798011
v 0.02370653 0.02699900 0.00798011
v -0.01408411 0.01914064 0.02682094
v -0.01424342 0.02438549 0.02751374
v 0.01393108 0.01389579 0.02612814
v -0.01392479 0.01389579 0.02612814
v 0.00713351 0.01688890 0.03061732
v -0.00712722 0.01688890 0.03061732
v -0.00640807 0.01466091 0.02982971
v 0.00641436 0.01466091 0.02982971
v -0.01656749 0.01058728 0.02666614
v -0.01743583 0.01831678 0.02846314
v 0.01657378 0.01058728 0.02666614
v -0.01503876 0.02604627 0.03026015
v -0.00651122 0.01911691 0.03140493
v 0.00651751 0.01911691 0.03140493
v -0.01442649 -0.03760981 0.02809814
v -0.02404625 -0.03760981 0.02630116
v -0.02404625 -0.04123648 0.02630116
v -0.01442649 -0.04123648 0.02809814
v -0.01676505 -0.04123648 0.02136773
v -0.02531163 -0.04123648 0.02108333
v -0.02531163 -0.03760981 0.02108333
v 0.02405254 -0.03760981 0.01075620
v 0.02405254 -0.04123648 0.01075620
v 0.02405254 -0.04123648 0.00000000
v 0.02405254 -0.03760981 0.00000000
v 0.02531792 -0.03760981 0.02108333
v 0.02405254 -0.03760981 0.02630116
v 0.02405254 -0.04123648 0.02630116
v 0.02531792 -0.04123648 0.02108333
v 0.01677134 -0.03760981 0.02136773
v 0.01443278 -0.03760981 0.02809814
v -0.01676505 -0.03760981 0.02136773
v -0.00480673 -0.03760981 0.03238209
v -0.00480673 -0.03760981 0.02398907
v 0.00481302 -0.03760981 0.03238209
v 0.00481302 -0.03760981 0.02398907
v 0.02405254 0.03048264 0.01075620
v 0.02405254 0.02685597 0.01075620
v 0.02405254 0.02685597 0.00000000
v 0.02405254 0.03048264 0.00000000
v -0.02045215 -0.03760981 0.01075620
v -0.00480673 -0.03760981 0.01075620
v -0.00480673 -0.04123648 0.01075620
v -0.02045215 -0.04123648 0.01075620
v 0.00481302 -0.03760981 0.01075620
v 0.00481302 -0.04123648 0.01075620
v 0.02045844 -0.03760981 0.01075620
v 0.02045844 -0.04123648 0.01075620
v 0.01443278 -0.04123648 0.02809814
v 0.01677134 -0.04123648 0.02136773
v 0.00481302 -0.04123648 0.03238209
v 0.00481302 -0.04123648 0.02398907
v -0.00480673 -0.04123648 0.03238209
v -0.00480673 -0.04123648 0.02398907
v -0.01442649 0.03048264 0.03897879
v -0.02404625 0.03048264 0.03718181
v -0.02404625 0.02685597 0.03718181
v -0.01442649 0.02685597 0.03897879
v -0.01442649 0.02685597 0.03470726
v -0.02570913 0.02685597 0.03318226
v -0.02570913 0.03048264 0.03318226
v -0.02045215 -0.04123648 0.00000000
v -0.02045215 -0.03760981 0.00000000
v 0.02571542 0.03048264 0.03318226
v 0.02405254 0.03048264 0.03718181
v 0.02405254 0.02685597 0.03718181
v 0.02571542 0.02685597 0.03318226
v 0.01443278 0.03048264 0.03470726
v 0.01443278 0.03048264 0.03897879
v -0.01442649 0.03048264 0.03470726
v -0.00480673 0.03048264 0.04326274
v -0.00554951 0.03048264 0.03834283
v 0.00481302 0.03048264 0.04326274
v 0.00555581 0.03048264 0.03834283
v -0.02045404 0.03048264 0.01075620
v -0.02045404 0.02685597 0.01075620
v -0.02045404 0.02685597 0.00000000
v -0.02045404 0.03048264 0.00000000
v -0.00480673 0.03048264 0.01075620
v -0.00480673 0.02685597 0.01075620
v 0.00481302 0.03048264 0.01075620
v 0.00481302 0.02685597 0.01075620
v 0.02046033 0.03048264 0.01075620
v 0.02046033 0.02685597 0.01075620
v 0.01443278 0.02685597 0.03897879
v 0.01443278 0.02685597 0.03470726
v 0.00481302 0.02685597 0.04326274
v 0.00555580 0.02685597 0.03834283
v -0.00480673 0.02685597 0.04326274
v -0.00554951 0.02685597 0.03834283
v -0.00622928 0.02685597 0.03544437
v -0.01442649 0.02685597 0.03219078
v -0.00622928 0.03048264 0.03544437
v 0.00623558 0.02685597 0.03544437
v 0.00623558 0.03048264 0.03544437
v 0.01443278 0.02685597 0.03219078
v 0.02571542 0.02685597 0.02696012
v 0.01443278 0.03048264 0.03219078
v -0.01442649 0.03048264 0.03219078
v -0.02570913 0.03048264 0.02696012
v 0.02571542 0.03048264 0.02696012
v -0.02570913 0.02685597 0.02696012
v -0.02404625 0.02685597 0.01075620
v -0.02404625 0.03048264 0.01075620
v 0.02045844 -0.03760981 0.00000000
v 0.02045844 -0.04123648 0.00000000
v -0.02404625 -0.03760981 0.00000000
v -0.02404625 -0.04123648 0.00000000
v 0.02046033 0.03048264 0.00000000
v 0.02046033 0.02685597 0.00000000
v -0.02404625 0.03048264 0.00000000
v -0.02404625 0.02685597 0.00000000
v -0.02404625 -0.04123648 0.01075620
v -0.02404625 -0.03760981 0.01075620
f 1 2 3
f 1 3 4
f 4 3 5
f 4 5 6
f 7 8 9
f 7 9 10
f 10 9 11
f 10 11 12
f 13 14 15
f 13 15 16
f 8 17 11
f 8 11 9
f 18 19 20
f 18 20 21
f 22 23 24
f 22 24 25
f 25 24 26
f 25 26 27
f 28 29 30
f 28 30 31
f 31 30 32
f 31 32 33
f 33 32 34
f 33 34 35
f 36 37 22
f 36 22 38
f 38 22 25
f 38 25 39
f 39 25 27
f 39 27 40
f 41 17 26
f 41 26 42
f 42 26 24
f 42 24 43
f 43 24 23
f 43 23 44
f 35 42 43
f 35 43 33
f 13 41 42
f 13 42 35
f 32 39 40
f 32 40 34
f 30 38 39
f 30 39 32
f 29 36 38
f 29 38 30
f 40 27 8
f 40 8 7
f 15 10 12
f 15 12 16
f 35 34 14
f 35 14 13
f 14 7 10
f 14 10 15
f 27 26 17
f 27 17 8
f 45 4 6
f 45 6 46
f 12 11 17
f 12 17 41
f 28 1 4
f 28 4 45
f 16 12 41
f 16 41 13
f 34 40 7
f 34 7 14
f 33 43 44
f 33 44 31
f 47 48 3
f 47 3 2
f 48 19 5
f 48 5 3
f 18 49 22
f 18 22 37
f 49 50 23
f 49 23 22
f 51 52 53
f 51 53 54
f 47 50 55
f 47 55 56
f 50 49 57
f 50 57 55
f 19 48 58
f 19 58 20
f 52 59 58
f 52 58 56
f 59 60 20
f 59 20 58
f 51 54 57
f 51 57 21
f 54 53 55
f 54 55 57
f 60 51 21
f 60 21 20
f 53 52 56
f 53 56 55
f 48 47 56
f 48 56 58
f 60 59 52
f 60 52 51
f 19 18 37
f 19 37 5
f 50 47 2
f 50 2 23
f 31 44 1
f 31 1 28
f 46 6 36
f 46 36 29
f 6 5 37
f 6 37 36
f 45 46 29
f 45 29 28
f 49 18 21
f 49 21 57
f 44 23 2
f 44 2 1
f 61 62 63
f 61 63 64
f 65 64 63
f 65 63 66
f 66 63 62
f 66 62 67
f 68 69 70
f 68 70 71
f 72 73 74
f 72 74 75
f 76 77 73
f 76 73 72
f 67 62 61
f 67 61 78
f 78 61 79
f 78 79 80
f 80 79 81
f 80 81 82
f 82 81 77
f 82 77 76
f 83 84 85
f 83 85 86
f 87 88 89
f 87 89 90
f 88 91 92
f 88 92 89
f 91 93 94
f 91 94 92
f 75 74 95
f 75 95 96
f 96 95 97
f 96 97 98
f 98 97 99
f 98 99 100
f 100 99 64
f 100 64 65
f 73 77 95
f 73 95 74
f 77 81 97
f 77 97 95
f 81 79 99
f 81 99 97
f 79 61 64
f 79 64 99
f 101 102 103
f 101 103 104
f 105 104 103
f 105 103 106
f 106 103 102
f 106 102 107
f 87 90 108
f 87 108 109
f 110 111 112
f 110 112 113
f 114 115 111
f 114 111 110
f 107 102 101
f 107 101 116
f 116 101 117
f 116 117 118
f 118 117 119
f 118 119 120
f 120 119 115
f 120 115 114
f 121 122 123
f 121 123 124
f 121 125 126
f 121 126 122
f 125 127 128
f 125 128 126
f 127 129 130
f 127 130 128
f 113 112 131
f 113 131 132
f 132 131 133
f 132 133 134
f 134 133 135
f 134 135 136
f 136 135 104
f 136 104 105
f 111 115 131
f 111 131 112
f 115 119 133
f 115 133 131
f 119 117 135
f 119 135 133
f 117 101 104
f 117 104 135
f 137 136 105
f 137 105 138
f 139 137 140
f 139 140 141
f 142 132 134
f 142 134 140
f 143 113 132
f 143 132 142
f 141 120 114
f 141 114 144
f 139 118 136
f 139 136 137
f 145 116 118
f 145 118 139
f 146 107 116
f 146 116 145
f 144 114 110
f 144 110 147
f 147 110 113
f 147 113 143
f 148 106 107
f 148 107 146
f 138 105 106
f 138 106 148
f 122 138 148
f 122 148 149
f 149 148 146
f 149 146 150
f 83 147 143
f 83 143 84
f 129 144 147
f 129 147 83
f 150 146 145
f 150 145 121
f 121 145 139
f 121 139 125
f 125 139 141
f 125 141 127
f 127 141 144
f 127 144 129
f 84 143 142
f 84 142 130
f 130 142 140
f 130 140 128
f 128 140 137
f 128 137 126
f 126 137 138
f 126 138 122
f 141 140 134
f 141 134 120
f 134 136 118
f 134 118 120
f 151 71 70
f 151 70 152
f 153 109 108
f 153 108 154
f 155 86 85
f 155 85 156
f 157 124 123
f 157 123 158
f 129 83 86
f 129 86 155
f 93 68 71
f 93 71 151
f 122 149 158
f 122 158 123
f 130 129 155
f 130 155 156
f 90 159 154
f 90 154 108
f 94 93 151
f 94 151 152
f 149 150 157
f 149 157 158
f 159 160 153
f 159 153 154
f 84 130 156
f 84 156 85
f 69 94 152
f 69 152 70
f 150 121 124
f 150 124 157
f 160 87 109
f 160 109 153
f 89 100 65
f 89 65 90
f 92 98 100
f 92 100 89
f 94 96 98
f 94 98 92
f 69 75 96
f 69 96 94
f 91 82 76
f 91 76 93
f 88 80 82
f 88 82 91
f 87 78 80
f 87 80 88
f 160 67 78
f 160 78 87
f 93 76 72
f 93 72 68
f 68 72 75
f 68 75 69
f 159 66 67
f 159 67 160
f 90 65 66
f 90 66 159
f 4 3 2
f 2 1 4
f 10 9 8
f 8 7 10
f 12 11 9
f 9 10 12
f 9 11 17
f 17 8 9
f 21 20 19
f 19 18 21
f 25 24 23
f 23 22 25
f 27 26 24
f 24 25 27
f 38 22 37
f 37 36 38
f 39 25 22
f 22 38 39
f 40 27 25
f 25 39 40
f 42 26 17
f 17 41 42
f 43 24 26
f 26 42 43
f 44 23 24
f 24 43 44
f 33 43 42
f 42 35 33
f 35 42 41
f 41 13 35
f 34 40 39
f 39 32 34
f 32 39 38
f 38 30 32
f 30 38 36
f 36 29 30
f 7 8 27
f 27 40 7
f 16 12 10
f 10 15 16
f 15 10 7
f 7 14 15
f 8 17 26
f 26 27 8
f 41 17 11
f 11 12 41
f 45 4 1
f 1 28 45
f 13 41 12
f 12 16 13
f 14 7 40
f 40 34 14
f 31 44 43
f 43 33 31
f 2 3 48
f 48 47 2
f 3 5 19
f 19 48 3
f 37 22 49
f 49 18 37
f 22 23 50
f 50 49 22
f 54 53 52
f 52 51 54
f 56 55 50
f 50 47 56
f 55 57 49
f 49 50 55
f 20 58 48
f 48 19 20
f 56 58 59
f 59 52 56
f 58 20 60
f 60 59 58
f 21 57 54
f 54 51 21
f 57 55 53
f 53 54 57
f 20 21 51
f 51 60 20
f 55 56 52
f 52 53 55
f 58 56 47
f 47 48 58
f 51 52 59
f 59 60 51
f 5 37 18
f 18 19 5
f 23 2 47
f 47 50 23
f 28 1 44
f 44 31 28
f 29 36 6
f 6 46 29
f 36 37 5
f 5 6 36
f 57 21 18
f 18 49 57
f 1 2 23
f 23 44 1
f 64 63 62
f 62 61 64
f 66 63 64
f 64 65 66
f 67 62 63
f 63 66 67
f 71 70 69
f 69 68 71
f 75 74 73
f 73 72 75
f 72 73 77
f 77 76 72
f 78 61 62
f 62 67 78
f 80 79 61
f 61 78 80
f 82 81 79
f 79 80 82
f 76 77 81
f 81 82 76
f 86 85 84
f 84 83 86
f 96 95 74
f 74 75 96
f 98 97 95
f 95 96 98
f 100 99 97
f 97 98 100
f 65 64 99
f 99 100 65
f 74 95 77
f 77 73 74
f 95 97 81
f 81 77 95
f 97 99 79
f 79 81 97
f 99 64 61
f 61 79 99
f 104 103 102
f 102 101 104
f 106 103 104
f 104 105 106
f 107 102 103
f 103 106 107
f 109 108 90
f 90 87 109
f 113 112 111
f 111 110 113
f 110 111 115
f 115 114 110
f 116 101 102
f 102 107 116
f 118 117 101
f 101 116 118
f 120 119 117
f 117 118 120
f 114 115 119
f 119 120 114
f 124 123 122
f 122 121 124
f 132 131 112
f 112 113 132
f 134 133 131
f 131 132 134
f 136 135 133
f 133 134 136
f 105 104 135
f 135 136 105
f 112 131 115
f 115 111 112
f 131 133 119
f 119 115 131
f 133 135 117
f 117 119 133
f 135 104 101
f 101 117 135
f 138 105 136
f 136 137 138
f 141 140 137
f 137 139 141
f 140 134 132
f 132 142 140
f 142 132 113
f 113 143 142
f 144 114 120
f 120 141 144
f 137 136 118
f 118 139 137
f 139 118 116
f 116 145 139
f 145 116 107
f 107 146 145
f 147 110 114
f 114 144 147
f 143 113 110
f 110 147 143
f 146 107 106
f 106 148 146
f 148 106 105
f 105 138 148
f 149 148 138
f 138 122 149
f 150 146 148
f 148 149 150
f 84 143 147
f 147 83 84
f 83 147 144
f 144 129 83
f 121 145 146
f 146 150 121
f 125 139 145
f 145 121 125
f 127 141 139
f 139 125 127
f 129 144 141
f 141 127 129
f 130 142 143
f 143 84 130
f 128 140 142
f 142 130 128
f 126 137 140
f 140 128 126
f 122 138 137
f 137 126 122
f 120 134 140
f 140 141 120
f 120 118 136
f 136 134 120
f 152 70 71
f 71 151 152
f 154 108 109
f 109 153 154
f 156 85 86
f 86 155 156
f 158 123 124
f 124 157 158
f 155 86 83
f 83 129 155
f 151 71 68
f 68 93 151
f 123 158 149
f 149 122 123
f 156 155 129
f 129 130 156
f 108 154 159
f 159 90 108
f 152 151 93
f 93 94 152
f 158 157 150
f 150 149 158
f 154 153 160
f 160 159 154
f 85 156 130
f 130 84 85
f 70 152 94
f 94 69 70
f 157 124 121
f 121 150 157
f 153 109 87
f 87 160 153
f 90 65 100
f 100 89 90
f 89 100 98
f 98 92 89
f 92 98 96
f 96 94 92
f 94 96 75
f 75 69 94
f 93 76 82
f 82 91 93
f 91 82 80
f 80 88 91
f 88 80 78
f 78 87 88
f 87 78 67
f 67 160 87
f 68 72 76
f 76 93 68
f 69 75 72
f 72 68 69
f 160 67 66
f 66 159 160
f 159 66 65
f 65 90 159