# https://github.com/mikedh/trimesh
v -0.00000000 -0.07380957 -0.09456154
v -0.00000000 -0.07127137 -0.09733911
v 0.00178432 -0.07115796 -0.09723599
v 0.00253246 -0.07335090 -0.09441593
v -0.00000000 -0.06876494 -0.09799108
v 0.00131776 -0.06891161 -0.09799016
v -0.00000000 -0.06704151 -0.09678909
v 0.00129587 -0.06706828 -0.09654934
v -0.00000000 -0.06731888 -0.09335086
v 0.00132797 -0.06703271 -0.09443480
v -0.00000000 -0.06775105 -0.09162373
v 0.00164324 -0.06763643 -0.09228471
v -0.00000000 -0.06844248 -0.09045838
v 0.00204110 -0.06847005 -0.09045753
v -0.00000000 -0.06910735 -0.08835345
v 0.00310205 -0.06918928 -0.08751620
v -0.00000000 -0.06967073 -0.08574846
v 0.00385054 -0.06978511 -0.08480131
v -0.00000000 -0.07038877 -0.08316404
v 0.00430701 -0.07059993 -0.08292862
v -0.00000000 -0.07194757 -0.08022527
v 0.00607677 -0.07227394 -0.07867899
v -0.00000000 -0.07224883 -0.07662202
v 0.00526914 -0.07277537 -0.07559524
v -0.00000000 -0.07172790 -0.07538404
v 0.00305050 -0.07231358 -0.07478975
v -0.00000000 -0.07045113 -0.07555088
v 0.00247179 -0.07078681 -0.07549554
v -0.00000000 -0.07007677 -0.07615860
v 0.00152370 -0.07000549 -0.07635443
v -0.00253246 -0.07335090 -0.09441593
v -0.00178432 -0.07115796 -0.09723599
v -0.00000000 -0.06863578 -0.08005380
v 0.00110307 -0.06840092 -0.08156130
v -0.00000000 -0.06787328 -0.08390609
v 0.00131545 -0.06770170 -0.08487845
v -0.00000000 -0.06756220 -0.08579100
v 0.00130113 -0.06741273 -0.08652114
v -0.00000000 -0.06724704 -0.08740391
v 0.00103807 -0.06715801 -0.08724714
v -0.00000000 -0.06701375 -0.08875975
v 0.00103613 -0.06686030 -0.08888833
v -0.00000000 -0.06696673 -0.09021289
v 0.00123888 -0.06682050 -0.09013494
v -0.00000000 -0.06689214 -0.09131467
v 0.00141984 -0.06672580 -0.09134537
v -0.00000000 -0.06633202 -0.09224803
v 0.00113355 -0.06612966 -0.09230329
v -0.00000000 -0.06550856 -0.09301992
v 0.00101580 -0.06537421 -0.09260454
v -0.00000000 -0.06472535 -0.09251545
v 0.00109931 -0.06496501 -0.09225911
v -0.00000000 -0.06441309 -0.08989393
v 0.00154658 -0.06469126 -0.08991121
v -0.00000000 -0.06423721 -0.08663066
v 0.00185329 -0.06444890 -0.08760396
v -0.00000000 -0.06422510 -0.08485561
v -0.00000000 -0.06432562 -0.08298521
v 0.00219059 -0.06459366 -0.08334072
v 0.00202033 -0.06450554 -0.08552773
v 0.00353505 -0.07905890 -0.09158615
v -0.00000000 -0.07922958 -0.09242079
v 0.00413844 -0.08406787 -0.08921470
v -0.00000000 -0.08423190 -0.08979929
v 0.00442031 -0.08994585 -0.08521161
v -0.00000000 -0.09053726 -0.08553844
v 0.00495128 -0.09522368 -0.07965269
v -0.00000000 -0.09619387 -0.07968727
v 0.00560870 -0.09913066 -0.07438206
v -0.00000000 -0.09991569 -0.07470963
v 0.00578045 -0.10393906 -0.06760662
v -0.00000000 -0.10439591 -0.06779640
v 0.00558228 -0.10860860 -0.05968324
v -0.00000000 -0.10903602 -0.06002573
v 0.00566272 -0.11323389 -0.05128743
v -0.00000000 -0.11366974 -0.05172813
v 0.00532943 -0.11680716 -0.04328132
v -0.00000000 -0.11726966 -0.04343679
v 0.00534663 -0.12079480 -0.03045403
v -0.00000000 -0.12125841 -0.03052693
v 0.00578682 -0.12270072 -0.02208708
v -0.00000000 -0.12416836 -0.02184948
v 0.00448308 -0.12849327 -0.01378070
v -0.00000000 -0.13058216 -0.01534890
v 0.00318674 -0.13389389 -0.00971304
v -0.00000000 -0.13636280 -0.01094528
v 0.00214540 -0.14025273 -0.00521325
v -0.00000000 -0.14176721 -0.00598127
v 0.00206677 -0.14384278 -0.00132363
v -0.00000000 -0.14511072 -0.00192559
v 0.00184393 -0.14543054 0.00273425
v -0.00000000 -0.14656730 0.00228400
v 0.00148636 -0.14559248 0.00652820
v -0.00000000 -0.14690020 0.00617943
v 0.00131118 -0.14415734 0.00873240
v -0.00000000 -0.14497774 0.00921645
v 0.00107596 -0.14164810 0.00966613
v -0.00000000 -0.14209301 0.01010626
v 0.00117611 -0.13838372 0.00997309
v -0.00000000 -0.13853843 0.01057819
v 0.00145393 -0.13475171 0.00975604
v -0.00000000 -0.13480403 0.01123815
v 0.00172690 -0.13097539 0.01034948
v -0.00000000 -0.13067159 0.01139968
v 0.00265893 -0.12631412 0.01128187
v -0.00000000 -0.12626142 0.01150406
v 0.00564725 -0.12150630 0.01322605
v -0.00000000 -0.12147662 0.01367258
v 0.00581101 -0.11770150 0.02271537
v -0.00000000 -0.11808875 0.02316267
v 0.00873364 -0.11326618 0.03077445
v -0.00000000 -0.11401912 0.03212556
v 0.00878891 -0.10831812 0.03987447
v -0.00000000 -0.10922310 0.04096715
v 0.00632711 -0.10397660 0.04782220
v -0.00000000 -0.10444353 0.04839683
v 0.01083362 -0.09787937 0.05330884
v -0.00000000 -0.09878155 0.05582506
v 0.00501934 -0.09188278 0.06220649
v -0.00000000 -0.09267030 0.06221210
v 0.00513416 -0.08586142 0.06726925
v -0.00000000 -0.08715773 0.06698141
v 0.00814436 -0.07917433 0.07154523
v -0.00000000 -0.08017770 0.07316167
v 0.00562202 -0.07213311 0.07856667
v 0.00000000 -0.07234153 0.07969122
v 0.00489481 -0.06199282 0.08572303
v 0.00000000 -0.06209731 0.08653672
v 0.00367299 -0.05282349 0.09086445
v 0.00000000 -0.05298345 0.09132352
v 0.00289487 -0.04455765 0.09477754
v 0.00000000 -0.04450143 0.09523901
v 0.00229851 -0.03617030 0.09824683
v 0.00000000 -0.03598803 0.09859306
v 0.00191635 -0.02851556 0.10027903
v 0.00000000 -0.02858616 0.10046901
v 0.00151183 -0.02305723 0.10140379
v 0.00000000 -0.02314079 0.10138507
v 0.00133492 -0.01818712 0.10276348
v 0.00000000 -0.01811706 0.10271104
v 0.00123898 -0.01246432 0.10421568
v 0.00000000 -0.01256281 0.10411682
v 0.00121127 -0.00717244 0.10443353
v 0.00000000 -0.00717782 0.10432561
v 0.00127388 -0.00233807 0.10292818
v 0.00000000 -0.00222513 0.10295421
v 0.00124127 -0.00200040 0.10128526
v 0.00000000 -0.00197706 0.10143901
v 0.00141777 -0.00441155 0.09926730
v 0.00000000 -0.00437690 0.09933707
v 0.00159365 -0.00729137 0.09788461
v 0.00000000 -0.00723003 0.09792942
v 0.00178209 -0.01060730 0.09630411
v 0.00000000 -0.01062090 0.09627007
v 0.00207031 -0.01496075 0.09341358
v 0.00000000 -0.01498334 0.09314527
v 0.00273800 -0.02106076 0.08777914
v 0.00000000 -0.02080862 0.08732019
v 0.00273950 -0.02547421 0.08268185
v 0.00000000 -0.02524507 0.08234763
v 0.00253380 -0.02947896 0.07824765
v 0.00000000 -0.02954962 0.07766887
v 0.00259959 -0.03526865 0.07184123
v 0.00000000 -0.03528402 0.07143186
v 0.00261179 -0.03987236 0.06622798
v 0.00000000 -0.03978368 0.06598503
v 0.00306192 -0.04428365 0.05950786
v 0.00000000 -0.04405056 0.05942876
v 0.00311869 -0.04757248 0.05346228
v 0.00000000 -0.04736767 0.05326264
v 0.00369912 -0.05084121 0.04066661
v -0.00000000 -0.05067435 0.03946932
v 0.00385735 -0.05393989 0.03126144
v -0.00000000 -0.05373401 0.03019382
v 0.00400243 -0.05603934 0.02361015
v -0.00000000 -0.05584361 0.02281405
v 0.00352982 -0.05996525 0.01153057
v -0.00000000 -0.05988335 0.01125784
v 0.00382679 -0.06253796 0.00122240
v -0.00000000 -0.06248084 0.00094496
v 0.00314738 -0.06557643 -0.00861913
v -0.00000000 -0.06563472 -0.00861447
v 0.00359058 -0.06851320 -0.02030082
v -0.00000000 -0.06842870 -0.02037598
v 0.00331201 -0.06894569 -0.02823838
v -0.00000000 -0.06887127 -0.02859855
v 0.00280189 -0.06930357 -0.03426161
v -0.00000000 -0.06925841 -0.03430972
v 0.00264796 -0.06991153 -0.04044842
v -0.00000000 -0.06987030 -0.04060670
v 0.00280778 -0.06983098 -0.04414214
v -0.00000000 -0.06974457 -0.04426090
v 0.00316178 -0.06871502 -0.05311680
v -0.00000000 -0.06848942 -0.05325501
v 0.00358978 -0.06833361 -0.05961723
v -0.00000000 -0.06757679 -0.06007510
v 0.00352299 -0.06764739 -0.06521145
v -0.00000000 -0.06700769 -0.06529483
v 0.00328248 -0.06608383 -0.07028393
v -0.00000000 -0.06529189 -0.07057087
v 0.00272428 -0.06484656 -0.07575105
v -0.00000000 -0.06459254 -0.07587310
v -0.00000000 -0.06442689 -0.07798778
v 0.00250991 -0.06469916 -0.07803285
v -0.00000000 -0.06425332 -0.08010493
v 0.00230015 -0.06451086 -0.08031499
v 0.00308571 -0.06736818 -0.09500018
v 0.00291009 -0.06736091 -0.09641548
v 0.00288048 -0.06865878 -0.09769758
v 0.00310162 -0.07061891 -0.09696108
v 0.00403768 -0.07266558 -0.09324706
v 0.00431641 -0.06830350 -0.09572180
v 0.00401903 -0.06918632 -0.09676477
v 0.00432888 -0.07025189 -0.09559766
v 0.00525377 -0.07194594 -0.09212389
v 0.00441897 -0.06814418 -0.09382526
v 0.00452963 -0.06888537 -0.09073728
v 0.00592050 -0.06967815 -0.08765765
v 0.00649794 -0.07041514 -0.08464327
v 0.00662953 -0.07159729 -0.08194257
v 0.00745356 -0.07265552 -0.07820092
v 0.00672754 -0.07305741 -0.07512904
v 0.00480346 -0.06928125 -0.09396984
v 0.00463999 -0.06931707 -0.09529009
v 0.00595427 -0.06955508 -0.09096376
v 0.00700359 -0.07018614 -0.08779371
v 0.00773597 -0.07077071 -0.08510046
v 0.00791336 -0.07183356 -0.08264636
v 0.00831723 -0.07303802 -0.07845751
v 0.00887174 -0.07407649 -0.07436953
v 0.00675255 -0.07201716 -0.08995107
v 0.00765963 -0.07231154 -0.08781343
v 0.00829450 -0.07255727 -0.08549306
v 0.00878538 -0.07316194 -0.08313618
v 0.00490905 -0.07220011 -0.07328898
v 0.00460206 -0.07013703 -0.07468569
v 0.00468812 -0.06947853 -0.07828287
v 0.00346033 -0.06793980 -0.08247360
v 0.00275943 -0.06728670 -0.08615723
v 0.00268570 -0.06694897 -0.08779773
v 0.00269136 -0.06675732 -0.08860485
v 0.00247153 -0.06661780 -0.08929783
v 0.00241226 -0.06644788 -0.09052663
v 0.00221473 -0.06632738 -0.09123219
v 0.00228317 -0.06536264 -0.09036292
v 0.00239677 -0.06581883 -0.09053874
v 0.00276799 -0.06503462 -0.08860784
v 0.00269197 -0.06591396 -0.08980473
v 0.00310176 -0.06622861 -0.08899242
v 0.00322142 -0.06639235 -0.08834472
v 0.00335620 -0.06650472 -0.08762391
v 0.00355082 -0.06673204 -0.08622603
v 0.00318785 -0.06520616 -0.08626893
v 0.00339794 -0.06543149 -0.08465103
v 0.00400941 -0.06715201 -0.08269870
v 0.00398602 -0.06574227 -0.08240005
v 0.00523069 -0.06824187 -0.07894575
v 0.00552774 -0.06935061 -0.07458071
v 0.00463886 -0.06615141 -0.07879515
v 0.00493977 -0.06655898 -0.07549124
v 0.00711297 -0.07308878 -0.07194463
v 0.00555020 -0.06925469 -0.07142295
v 0.00920128 -0.07436899 -0.07924560
v 0.00893739 -0.07472208 -0.07288607
v 0.00816711 -0.07428600 -0.07146135
v 0.00615136 -0.07070789 -0.06867810
v 0.00916631 -0.07522556 -0.07024620
v 0.00967109 -0.07550840 -0.07125372
v 0.00709575 -0.07197894 -0.06601114
v 0.01019168 -0.07699593 -0.07936197
v 0.00590859 -0.07764663 -0.09080489
v 0.00717245 -0.07553223 -0.08971881
v 0.00798118 -0.07450572 -0.08787797
v 0.00867004 -0.07465036 -0.08610085
v 0.00891581 -0.07450703 -0.08499358
v 0.00929713 -0.07459050 -0.08243080
v 0.00981819 -0.07574577 -0.06962457
v 0.01003276 -0.07605156 -0.07046738
v 0.00871482 -0.07289689 -0.06110476
v 0.00735994 -0.08253757 -0.08787605
v 0.00883705 -0.07984147 -0.08685999
v 0.00954170 -0.07840575 -0.08545394
v 0.00965877 -0.07752189 -0.08490150
v 0.00988044 -0.07724716 -0.08375355
v 0.01107976 -0.07949749 -0.07677628
v 0.01036308 -0.07964490 -0.08244797
v 0.00936707 -0.08159450 -0.08508508
v 0.00788877 -0.08634308 -0.08541234
v 0.01102264 -0.08412929 -0.08038198
v 0.00914087 -0.09032272 -0.08010575
v 0.01306659 -0.08116432 -0.06913633
v 0.01246846 -0.08403945 -0.07451887
v 0.01037795 -0.09509278 -0.07423081
v 0.01160107 -0.08817874 -0.07614530
v 0.01315284 -0.07946759 -0.06485551
v 0.01046768 -0.07317694 -0.05418715
v 0.01224819 -0.07404465 -0.04818591
v 0.01458927 -0.07431278 -0.04217829
v 0.01903986 -0.07889920 -0.04048572
v 0.01594476 -0.07862371 -0.05079568
v 0.01248798 -0.07119934 -0.03143701
v 0.01149360 -0.07029848 -0.02367491
v 0.01338625 -0.07116590 -0.01923027
v 0.01729798 -0.06787770 -0.03301584
v 0.01995531 -0.06887030 -0.03935972
v 0.01627369 -0.06681228 -0.02427785
v 0.02205366 -0.07021623 -0.03930402
v 0.01808341 -0.06794481 -0.02323825
v 0.02337950 -0.06353233 -0.03617094
v 0.02511807 -0.06540076 -0.03635110
v 0.02070044 -0.06287669 -0.02167710
v 0.01954306 -0.06214973 -0.02248511
v 0.02015205 -0.06388671 -0.03093281
v 0.02640912 -0.05955450 -0.03210633
v 0.02717704 -0.06107290 -0.03113180
v 0.02203468 -0.05924804 -0.01806327
v 0.02113447 -0.05828056 -0.01838564
v 0.02333354 -0.05740433 -0.02587031
v 0.02428386 -0.05444996 -0.02090266
v 0.02785529 -0.05619450 -0.02734975
v 0.02791086 -0.05777002 -0.02635984
v 0.02252631 -0.05699360 -0.01477313
v 0.02202831 -0.05619526 -0.01504989
v 0.02322345 -0.05542766 -0.01208140
v 0.02304710 -0.05450905 -0.01278348
v 0.02485233 -0.05436088 -0.01034550
v 0.02429407 -0.05347557 -0.01138805
v 0.02804674 -0.05397958 -0.02265714
v 0.02810585 -0.05571515 -0.02160301
v 0.02724170 -0.05221332 -0.01427658
v 0.02771461 -0.05417173 -0.01404534
v 0.02489885 -0.05307456 -0.01739503
v 0.02599775 -0.05210704 -0.01375368
v 0.02620663 -0.05280289 -0.01095395
v 0.02704140 -0.05297070 -0.01114846
v 0.02726336 -0.05399577 -0.01156987
v 0.02536998 -0.05570745 -0.01296314
v 0.02551231 -0.05604559 -0.01505063
v 0.02454564 -0.05817781 -0.01995146
v 0.02388664 -0.06150903 -0.02508153
v 0.02283826 -0.06493542 -0.02833825
v 0.02122942 -0.06929265 -0.03198066
v 0.01800657 -0.07345636 -0.02506151
v 0.01623985 -0.07293508 -0.02046579
v 0.01930309 -0.07488634 -0.03281826
v 0.01909451 -0.07728295 -0.03276044
v 0.01124703 -0.09876447 -0.06971938
v 0.01410947 -0.09142528 -0.07067519
v 0.01623862 -0.08601042 -0.06457123
v 0.01515506 -0.08803774 -0.06890360
v 0.01648690 -0.08331118 -0.05906270
v 0.01891224 -0.08411151 -0.04978608
v 0.02148963 -0.08504033 -0.04129187
v 0.01271581 -0.06671227 -0.00433163
v 0.01931633 -0.07195127 -0.00496540
v 0.02271315 -0.08127999 -0.02573557
v 0.02548244 -0.07937244 -0.00500093
v 0.01204248 -0.06186679 0.01412481
v 0.02037897 -0.06822604 0.01448712
v 0.02618399 -0.07619609 0.01598166
v 0.01370291 -0.10450771 -0.05917608
v 0.01834784 -0.09741782 -0.05861288
v 0.01990216 -0.09243007 -0.05544794
v 0.01999857 -0.08902667 -0.05325910
v 0.02388075 -0.09188937 -0.03988637
v 0.02629628 -0.08848690 -0.02175161
v 0.02843380 -0.08602605 -0.00247356
v 0.02905584 -0.08429236 0.01741462
v 0.01501615 -0.10924948 -0.04945874
v 0.01566077 -0.11327893 -0.04015583
v 0.01656972 -0.11668940 -0.02770017
v 0.02047695 -0.10418014 -0.04548508
v 0.02136738 -0.10794538 -0.03625413
v 0.02302051 -0.11054082 -0.02327028
v 0.02338386 -0.09756688 -0.04269967
v 0.02558512 -0.09968017 -0.03171433
v 0.02826323 -0.10069085 -0.01196919
v 0.01637313 -0.11856763 -0.01856529
v 0.01522817 -0.12017592 -0.00834908
v 0.00737905 -0.12414851 -0.01140097
v 0.00540297 -0.12777725 -0.00799381
v 0.02933953 -0.10026536 0.00345213
v 0.02489506 -0.11102633 -0.01108196
v 0.01563151 -0.11918053 0.00380170
v 0.00842445 -0.12303242 0.00251056
v 0.00535782 -0.12717632 0.00341873
v 0.00387719 -0.13208514 0.00298921
v 0.00428861 -0.13291120 -0.00548501
v 0.00328896 -0.13867545 -0.00244685
v 0.00321498 -0.13680768 0.00415397
v 0.00255983 -0.14024735 0.00586634
v 0.00280051 -0.14174716 0.00059270
v 0.00215945 -0.14275567 0.00679817
v 0.00250384 -0.14327356 0.00325358
v 0.01274562 -0.11829611 0.01430772
v 0.01672767 -0.11354455 0.02085359
v 0.02503703 -0.11051808 0.00207186
v 0.02864488 -0.09927736 0.01432012
v 0.02817468 -0.08314847 0.02618566
v 0.01249087 -0.05940168 0.02563927
v 0.02087857 -0.06658669 0.02667022
v 0.02556746 -0.07450687 0.02739318
v 0.01231620 -0.05775117 0.03295867
v 0.02113186 -0.06561606 0.03482690
v 0.02510061 -0.07329794 0.03613260
v 0.02722182 -0.08343522 0.03482996
v 0.02600154 -0.09817628 0.02800875
v 0.02334211 -0.10923237 0.01544976
v 0.01942001 -0.10594881 0.03175232
v 0.02571000 -0.08188288 0.04349625
v 0.02381010 -0.09339485 0.04054918
v 0.01816061 -0.10168154 0.04059927
v 0.02459514 -0.07171165 0.04319239
v 0.02059292 -0.06352319 0.04137076
v 0.01266560 -0.05560192 0.04171015
v 0.01472190 -0.05347174 0.05316876
v 0.02183481 -0.06220867 0.05410537
v 0.02384571 -0.07056310 0.05425665
v 0.02348976 -0.07653506 0.05436314
v 0.01968230 -0.08615621 0.05540332
v 0.01474906 -0.05027152 0.05985970
v 0.02114820 -0.06049086 0.06223525
v 0.02140393 -0.06983166 0.06175802
v 0.01942789 -0.07372997 0.06346434
v 0.01627302 -0.07817900 0.06508842
v 0.01417589 -0.04576816 0.06781016
v 0.01800193 -0.05582946 0.07331888
v 0.01705234 -0.06241099 0.07348656
v 0.01449831 -0.06894244 0.07347252
v 0.01521468 -0.04562276 0.08162724
v 0.01381419 -0.04956633 0.08444529
v 0.01312747 -0.06387332 0.07860063
v 0.01131824 -0.05827262 0.08366095
v 0.01009214 -0.05041457 0.08847557
v 0.01319780 -0.03920619 0.08625891
v 0.01215364 -0.04220282 0.08882151
v 0.00894009 -0.04413106 0.09184233
v 0.01304588 -0.04060285 0.07475608
v 0.01025490 -0.03380591 0.07999037
v 0.00934896 -0.02816384 0.08555658
v 0.01160309 -0.03003677 0.09064614
v 0.01064748 -0.03231446 0.09370181
v 0.01242654 -0.02526797 0.09322185
v 0.01250941 -0.02614605 0.09614189
v 0.00835363 -0.02380498 0.08944021
v 0.00694313 -0.03438728 0.09680493
v 0.00715242 -0.02756212 0.09868005
v 0.01625793 -0.02150182 0.09607371
v 0.01718845 -0.02351012 0.09880333
v 0.02195581 -0.02119119 0.09844993
v 0.02154497 -0.02208170 0.10000587
v 0.02673196 -0.01914946 0.09993418
v 0.02628312 -0.01994029 0.10241150
v 0.03013376 -0.01655530 0.10156012
v 0.03029318 -0.01722882 0.10424699
v 0.00970673 -0.01739269 0.09457112
v 0.01808537 -0.01334482 0.09814300
v 0.01189010 -0.00790753 0.09854122
v 0.00883785 -0.00480885 0.09979241
v 0.00630744 -0.00354383 0.10301435
v 0.01095652 -0.00233526 0.10408655
v 0.01324920 -0.00384161 0.10084426
v 0.02489151 -0.01316986 0.10001738
v 0.01980770 -0.00802937 0.09983008
v 0.00616268 -0.00423095 0.10386482
v 0.00457453 -0.00721982 0.10475779
v 0.00414303 -0.01250237 0.10443064
v 0.03502336 -0.01375262 0.10474679
v 0.03425067 -0.01469654 0.10602334
v 0.03875581 -0.01281158 0.10686611
v 0.03702663 -0.01382261 0.10733709
v 0.04162492 -0.01032421 0.10803599
v 0.04037213 -0.01148833 0.10974974
v 0.04343901 -0.00947143 0.10906705
v 0.04279063 -0.01020447 0.11061243
v 0.04639668 -0.00825459 0.11008277
v 0.04580536 -0.00859161 0.11241895
v 0.04666385 -0.00595736 0.11024267
v 0.04607921 -0.00622040 0.11286242
v 0.04396922 -0.00467070 0.10995191
v 0.04313138 -0.00510076 0.11220959
v 0.03917972 -0.00425383 0.10797295
v 0.03864411 -0.00375984 0.11128051
v 0.03422545 -0.00154390 0.10729819
v 0.03353086 -0.00190726 0.11037928
v 0.02901481 0.00000000 0.10720048
v 0.02887471 -0.00034805 0.10939345
v 0.02373637 -0.00060415 0.10674456
v 0.02223194 -0.00246161 0.10904324
v 0.01277494 -0.00255434 0.10636950
v 0.01722098 -0.00149521 0.10777892
v 0.01655889 -0.00169822 0.10527112
v 0.02033273 -0.00389064 0.10170255
v 0.02461752 -0.00770449 0.10135079
v 0.02819916 -0.01245357 0.10142390
v 0.03341300 -0.00997049 0.10413406
v 0.02979467 -0.00635866 0.10396466
v 0.02567653 -0.00253903 0.10391989
v 0.03044102 -0.00228848 0.10563673
v 0.03327568 -0.00558634 0.10514503
v 0.03631222 -0.00864570 0.10524552
v 0.03586629 -0.00460512 0.10605405
v 0.03737815 -0.00688837 0.10608220
v 0.03897809 -0.00886923 0.10647714
v 0.04274401 -0.00722709 0.10760199
v 0.01201610 -0.00635624 0.10691551
v 0.01708278 -0.00684464 0.10841319
v 0.02119313 -0.00692213 0.10906734
v 0.02847066 -0.00508198 0.10984305
v 0.00879521 -0.02349818 0.10021986
v 0.01032016 -0.02004372 0.10226225
v 0.02188793 -0.01716403 0.10445122
v 0.01880209 -0.01929024 0.10304985
v 0.01240364 -0.01638366 0.10437546
v 0.00850256 -0.01200109 0.10510471
v 0.01545267 -0.01082167 0.10691887
v 0.04214763 -0.00754882 0.11270342
v 0.04117555 -0.00914994 0.11193094
v 0.03765799 -0.00667438 0.11120622
v 0.03324156 -0.00460651 0.11048350
v 0.03834935 -0.01051924 0.11044429
v 0.03333291 -0.00993761 0.10869313
v 0.02754753 -0.00979026 0.10786054
v 0.02445202 -0.01271234 0.10655605
v -0.00131776 -0.06891161 -0.09799016
v -0.00129587 -0.06706828 -0.09654934
v -0.00132797 -0.06703271 -0.09443480
v -0.00164324 -0.06763643 -0.09228471
v -0.00204110 -0.06847005 -0.09045753
v -0.00310205 -0.06918928 -0.08751620
v -0.00385054 -0.06978511 -0.08480131
v -0.00430701 -0.07059993 -0.08292862
v -0.00607677 -0.07227394 -0.07867899
v -0.00526914 -0.07277537 -0.07559524
v -0.00305050 -0.07231358 -0.07478975
v -0.00247179 -0.07078681 -0.07549554
v -0.00152370 -0.07000549 -0.07635443
v -0.00110307 -0.06840092 -0.08156130
v -0.00131545 -0.06770170 -0.08487845
v -0.00130113 -0.06741273 -0.08652114
v -0.00103807 -0.06715801 -0.08724714
v -0.00103613 -0.06686030 -0.08888833
v -0.00123888 -0.06682050 -0.09013494
v -0.00141984 -0.06672580 -0.09134537
v -0.00113355 -0.06612966 -0.09230329
v -0.00101580 -0.06537421 -0.09260454
v -0.00109932 -0.06496501 -0.09225911
v -0.00154658 -0.06469126 -0.08991121
v -0.00185329 -0.06444890 -0.08760396
v -0.00202033 -0.06450554 -0.08552773
v -0.00219059 -0.06459366 -0.08334072
v -0.00353505 -0.07905890 -0.09158615
v -0.00413844 -0.08406787 -0.08921470
v -0.00442031 -0.08994585 -0.08521161
v -0.00495128 -0.09522368 -0.07965269
v -0.00560870 -0.09913066 -0.07438206
v -0.00578045 -0.10393906 -0.06760662
v -0.00558228 -0.10860860 -0.05968324
v -0.00566272 -0.11323389 -0.05128743
v -0.00532943 -0.11680716 -0.04328132
v -0.00534663 -0.12079480 -0.03045403
v -0.00578682 -0.12270072 -0.02208708
v -0.00448308 -0.12849327 -0.01378070
v -0.00318674 -0.13389389 -0.00971304
v -0.00214540 -0.14025273 -0.00521325
v -0.00206678 -0.14384278 -0.00132363
v -0.00184393 -0.14543054 0.00273425
v -0.00148636 -0.14559248 0.00652820
v -0.00131118 -0.14415734 0.00873240
v -0.00107596 -0.14164810 0.00966613
v -0.00117611 -0.13838372 0.00997309
v -0.00145393 -0.13475171 0.00975604
v -0.00172690 -0.13097539 0.01034948
v -0.00265893 -0.12631412 0.01128187
v -0.00564725 -0.12150630 0.01322605
v -0.00581101 -0.11770150 0.02271537
v -0.00873364 -0.11326618 0.03077445
v -0.00878891 -0.10831812 0.03987447
v -0.00632711 -0.10397660 0.04782220
v -0.01083362 -0.09787937 0.05330884
v -0.00501934 -0.09188278 0.06220649
v -0.00513416 -0.08586142 0.06726925
v -0.00814436 -0.07917433 0.07154523
v -0.00562202 -0.07213311 0.07856667
v -0.00489481 -0.06199282 0.08572303
v -0.00367300 -0.05282349 0.09086445
v -0.00289487 -0.04455765 0.09477754
v -0.00229850 -0.03617030 0.09824683
v -0.00191635 -0.02851556 0.10027903
v -0.00151183 -0.02305723 0.10140379
v -0.00133492 -0.01818712 0.10276348
v -0.00123898 -0.01246432 0.10421568
v -0.00121126 -0.00717244 0.10443353
v -0.00127388 -0.00233807 0.10292818
v -0.00124127 -0.00200040 0.10128526
v -0.00141777 -0.00441155 0.09926730
v -0.00159365 -0.00729137 0.09788461
v -0.00178209 -0.01060730 0.09630411
v -0.00207031 -0.01496075 0.09341358
v -0.00273800 -0.02106076 0.08777914
v -0.00273950 -0.02547421 0.08268185
v -0.00253380 -0.02947896 0.07824765
v -0.00259959 -0.03526865 0.07184123
v -0.00261179 -0.03987236 0.06622798
v -0.00306192 -0.04428365 0.05950786
v -0.00311869 -0.04757248 0.05346228
v -0.00369912 -0.05084121 0.04066661
v -0.00385735 -0.05393989 0.03126144
v -0.00400243 -0.05603934 0.02361015
v -0.00352982 -0.05996525 0.01153057
v -0.00382679 -0.06253796 0.00122240
v -0.00314738 -0.06557643 -0.00861913
v -0.00359058 -0.06851320 -0.02030082
v -0.00331202 -0.06894569 -0.02823838
v -0.00280189 -0.06930357 -0.03426161
v -0.00264796 -0.06991153 -0.04044842
v -0.00280778 -0.06983098 -0.04414214
v -0.00316178 -0.06871502 -0.05311680
v -0.00358978 -0.06833361 -0.05961723
v -0.00352299 -0.06764739 -0.06521145
v -0.00328248 -0.06608383 -0.07028393
v -0.00272428 -0.06484656 -0.07575105
v -0.00250992 -0.06469916 -0.07803285
v -0.00230015 -0.06451086 -0.08031499
v -0.00291009 -0.06736091 -0.09641548
v -0.00308572 -0.06736818 -0.09500018
v -0.00288048 -0.06865878 -0.09769758
v -0.00310163 -0.07061891 -0.09696108
v -0.00403768 -0.07266558 -0.09324706
v -0.00401903 -0.06918632 -0.09676477
v -0.00431641 -0.06830350 -0.09572180
v -0.00432888 -0.07025189 -0.09559766
v -0.00525377 -0.07194594 -0.09212389
v -0.00441897 -0.06814418 -0.09382526
v -0.00452964 -0.06888537 -0.09073728
v -0.00592050 -0.06967815 -0.08765765
v -0.00649794 -0.07041514 -0.08464327
v -0.00662954 -0.07159729 -0.08194257
v -0.00745356 -0.07265552 -0.07820092
v -0.00672754 -0.07305741 -0.07512904
v -0.00463999 -0.06931707 -0.09529009
v -0.00480346 -0.06928125 -0.09396984
v -0.00595427 -0.06955508 -0.09096376
v -0.00700359 -0.07018614 -0.08779371
v -0.00773597 -0.07077071 -0.08510046
v -0.00791336 -0.07183356 -0.08264636
v -0.00831723 -0.07303802 -0.07845751
v -0.00887174 -0.07407649 -0.07436953
v -0.00675255 -0.07201716 -0.08995107
v -0.00765963 -0.07231154 -0.08781343
v -0.00829450 -0.07255727 -0.08549306
v -0.00878538 -0.07316194 -0.08313618
v -0.00490905 -0.07220011 -0.07328898
v -0.00460206 -0.07013703 -0.07468569
v -0.00468812 -0.06947853 -0.07828287
v -0.00346033 -0.06793980 -0.08247360
v -0.00275943 -0.06728670 -0.08615723
v -0.00268570 -0.06694897 -0.08779773
v -0.00269136 -0.06675732 -0.08860485
v -0.00247153 -0.06661780 -0.08929783
v -0.00241226 -0.06644788 -0.09052663
v -0.00221473 -0.06632738 -0.09123219
v -0.00228317 -0.06536264 -0.09036292
v -0.00239677 -0.06581883 -0.09053874
v -0.00276799 -0.06503462 -0.08860784
v -0.00269197 -0.06591396 -0.08980473
v -0.00310176 -0.06622861 -0.08899242
v -0.00322142 -0.06639235 -0.08834472
v -0.00335621 -0.06650472 -0.08762391
v -0.00355082 -0.06673204 -0.08622603
v -0.00318785 -0.06520616 -0.08626893
v -0.00339794 -0.06543149 -0.08465103
v -0.00400941 -0.06715201 -0.08269870
v -0.00398602 -0.06574227 -0.08240005
v -0.00523069 -0.06824187 -0.07894575
v -0.00552774 -0.06935061 -0.07458071
v -0.00463886 -0.06615141 -0.07879515
v -0.00493977 -0.06655898 -0.07549124
v -0.00711297 -0.07308878 -0.07194463
v -0.00555020 -0.06925469 -0.07142295
v -0.00920128 -0.07436899 -0.07924560
v -0.00893739 -0.07472208 -0.07288607
v -0.00816711 -0.07428600 -0.07146135
v -0.00615136 -0.07070789 -0.06867810
v -0.00967109 -0.07550840 -0.07125372
v -0.00916631 -0.07522556 -0.07024620
v -0.00709575 -0.07197894 -0.06601114
v -0.01019168 -0.07699593 -0.07936197
v -0.00590860 -0.07764663 -0.09080489
v -0.00717245 -0.07553223 -0.08971881
v -0.00798118 -0.07450572 -0.08787797
v -0.00867004 -0.07465036 -0.08610085
v -0.00891581 -0.07450703 -0.08499358
v -0.00929713 -0.07459050 -0.08243080
v -0.01003276 -0.07605156 -0.07046738
v -0.00981819 -0.07574577 -0.06962457
v -0.00871482 -0.07289689 -0.06110476
v -0.00735994 -0.08253757 -0.08787605
v -0.00883705 -0.07984147 -0.08685999
v -0.00954171 -0.07840575 -0.08545394
v -0.00965877 -0.07752189 -0.08490150
v -0.00988044 -0.07724716 -0.08375355
v -0.01107976 -0.07949749 -0.07677628
v -0.01036308 -0.07964490 -0.08244797
v -0.00936707 -0.08159450 -0.08508508
v -0.00788877 -0.08634308 -0.08541234
v -0.01102264 -0.08412929 -0.08038198
v -0.00914087 -0.09032272 -0.08010575
v -0.01246846 -0.08403945 -0.07451887
v -0.01306659 -0.08116432 -0.06913633
v -0.01037795 -0.09509278 -0.07423081
v -0.01160107 -0.08817874 -0.07614530
v -0.01315284 -0.07946759 -0.06485551
v -0.01046768 -0.07317694 -0.05418715
v -0.01224819 -0.07404465 -0.04818591
v -0.01458927 -0.07431278 -0.04217829
v -0.01594476 -0.07862371 -0.05079568
v -0.01903986 -0.07889920 -0.04048572
v -0.01248798 -0.07119934 -0.03143701
v -0.01149360 -0.07029848 -0.02367491
v -0.01338625 -0.07116590 -0.01923027
v -0.01995531 -0.06887030 -0.03935972
v -0.01729798 -0.06787770 -0.03301584
v -0.01627369 -0.06681228 -0.02427785
v -0.02205366 -0.07021623 -0.03930402
v -0.01808341 -0.06794481 -0.02323825
v -0.02511807 -0.06540076 -0.03635110
v -0.02337950 -0.06353233 -0.03617094
v -0.01954306 -0.06214973 -0.02248511
v -0.02070044 -0.06287669 -0.02167710
v -0.02015205 -0.06388671 -0.03093281
v -0.02717704 -0.06107290 -0.03113180
v -0.02640912 -0.05955450 -0.03210633
v -0.02113447 -0.05828056 -0.01838564
v -0.02203468 -0.05924803 -0.01806327
v -0.02333354 -0.05740433 -0.02587031
v -0.02785529 -0.05619450 -0.02734975
v -0.02428386 -0.05444996 -0.02090266
v -0.02791086 -0.05777002 -0.02635984
v -0.02202831 -0.05619526 -0.01504989
v -0.02252631 -0.05699360 -0.01477313
v -0.02304710 -0.05450905 -0.01278348
v -0.02322345 -0.05542766 -0.01208140
v -0.02429407 -0.05347557 -0.01138805
v -0.02485233 -0.05436088 -0.01034550
v -0.02810585 -0.05571515 -0.02160301
v -0.02804674 -0.05397958 -0.02265714
v -0.02771461 -0.05417173 -0.01404534
v -0.02724170 -0.05221332 -0.01427658
v -0.02489885 -0.05307456 -0.01739503
v -0.02599775 -0.05210704 -0.01375368
v -0.02704140 -0.05297070 -0.01114846
v -0.02620663 -0.05280289 -0.01095395
v -0.02726336 -0.05399577 -0.01156987
v -0.02536998 -0.05570745 -0.01296314
v -0.02551231 -0.05604559 -0.01505063
v -0.02454564 -0.05817781 -0.01995146
v -0.02388663 -0.06150903 -0.02508153
v -0.02283826 -0.06493542 -0.02833825
v -0.02122942 -0.06929265 -0.03198066
v -0.01800657 -0.07345636 -0.02506151
v -0.01623985 -0.07293508 -0.02046579
v -0.01930309 -0.07488634 -0.03281826
v -0.01909451 -0.07728295 -0.03276044
v -0.01124703 -0.09876447 -0.06971938
v -0.01410947 -0.09142528 -0.07067519
v -0.01515506 -0.08803774 -0.06890360
v -0.01623862 -0.08601042 -0.06457123
v -0.01648690 -0.08331118 -0.05906270
v -0.01891224 -0.08411151 -0.04978608
v -0.02148963 -0.08504033 -0.04129187
v -0.01271581 -0.06671227 -0.00433163
v -0.01931633 -0.07195127 -0.00496540
v -0.02271315 -0.08127999 -0.02573557
v -0.02548244 -0.07937244 -0.00500093
v -0.01204248 -0.06186679 0.01412481
v -0.02037897 -0.06822604 0.01448712
v -0.02618399 -0.07619609 0.01598166
v -0.01370291 -0.10450771 -0.05917608
v -0.01834784 -0.09741782 -0.05861288
v -0.01990215 -0.09243007 -0.05544794
v -0.01999857 -0.08902667 -0.05325910
v -0.02388075 -0.09188937 -0.03988637
v -0.02629628 -0.08848690 -0.02175161
v -0.02843380 -0.08602605 -0.00247356
v -0.02905584 -0.08429236 0.01741462
v -0.01501615 -0.10924948 -0.04945874
v -0.01566077 -0.11327893 -0.04015583
v -0.01656972 -0.11668940 -0.02770017
v -0.02047695 -0.10418014 -0.04548508
v -0.02136738 -0.10794538 -0.03625413
v -0.02302051 -0.11054082 -0.02327028
v -0.02338386 -0.09756688 -0.04269967
v -0.02558512 -0.09968017 -0.03171433
v -0.02826323 -0.10069085 -0.01196919
v -0.01637313 -0.11856763 -0.01856529
v -0.00737905 -0.12414851 -0.01140097
v -0.01522817 -0.12017592 -0.00834908
v -0.00540297 -0.12777725 -0.00799381
v -0.02489506 -0.11102633 -0.01108196
v -0.02933953 -0.10026536 0.00345213
v -0.00842445 -0.12303242 0.00251056
v -0.01563151 -0.11918053 0.00380170
v -0.00535782 -0.12717632 0.00341873
v -0.00387719 -0.13208514 0.00298921
v -0.00428861 -0.13291120 -0.00548501
v -0.00328896 -0.13867545 -0.00244685
v -0.00321498 -0.13680768 0.00415397
v -0.00280051 -0.14174716 0.00059270
v -0.00255983 -0.14024735 0.00586634
v -0.00250385 -0.14327356 0.00325358
v -0.00215945 -0.14275567 0.00679817
v -0.01274562 -0.11829611 0.01430772
v -0.01672767 -0.11354455 0.02085359
v -0.02503703 -0.11051808 0.00207186
v -0.02864488 -0.09927736 0.01432012
v -0.02817469 -0.08314847 0.02618566
v -0.01249087 -0.05940168 0.02563927
v -0.02087857 -0.06658669 0.02667022
v -0.02556746 -0.07450687 0.02739318
v -0.01231620 -0.05775117 0.03295867
v -0.02113186 -0.06561606 0.03482690
v -0.02510061 -0.07329794 0.03613260
v -0.02722182 -0.08343522 0.03482996
v -0.02600154 -0.09817628 0.02800875
v -0.02334211 -0.10923237 0.01544976
v -0.01942001 -0.10594881 0.03175232
v -0.02381011 -0.09339485 0.04054918
v -0.02571000 -0.08188288 0.04349625
v -0.01816061 -0.10168154 0.04059927
v -0.02459514 -0.07171165 0.04319239
v -0.02059292 -0.06352319 0.04137076
v -0.01266560 -0.05560192 0.04171015
v -0.01472190 -0.05347174 0.05316876
v -0.02183481 -0.06220867 0.05410537
v -0.02384571 -0.07056310 0.05425665
v -0.02348976 -0.07653506 0.05436314
v -0.01968230 -0.08615621 0.05540332
v -0.01474906 -0.05027152 0.05985970
v -0.02114820 -0.06049086 0.06223525
v -0.02140393 -0.06983166 0.06175802
v -0.01942789 -0.07372997 0.06346434
v -0.01627302 -0.07817900 0.06508842
v -0.01417589 -0.04576816 0.06781016
v -0.01705234 -0.06241099 0.07348656
v -0.01800193 -0.05582946 0.07331888
v -0.01449831 -0.06894244 0.07347252
v -0.01381419 -0.04956633 0.08444529
v -0.01521468 -0.04562276 0.08162724
v -0.01312747 -0.06387332 0.07860063
v -0.01131824 -0.05827262 0.08366095
v -0.01009214 -0.05041457 0.08847557
v -0.01215364 -0.04220282 0.08882151
v -0.01319780 -0.03920619 0.08625891
v -0.00894009 -0.04413106 0.09184233
v -0.01304588 -0.04060285 0.07475608
v -0.01025490 -0.03380591 0.07999037
v -0.00934896 -0.02816384 0.08555658
v -0.01064748 -0.03231446 0.09370181
v -0.01160309 -0.03003677 0.09064614
v -0.01250941 -0.02614605 0.09614189
v -0.01242654 -0.02526797 0.09322185
v -0.00835363 -0.02380498 0.08944021
v -0.00694313 -0.03438728 0.09680493
v -0.00715242 -0.02756212 0.09868005
v -0.01718845 -0.02351012 0.09880333
v -0.01625793 -0.02150182 0.09607371
v -0.02154497 -0.02208170 0.10000587
v -0.02195581 -0.02119119 0.09844993
v -0.02628312 -0.01994029 0.10241150
v -0.02673196 -0.01914946 0.09993418
v -0.03029318 -0.01722882 0.10424699
v -0.03013376 -0.01655530 0.10156012
v -0.00970673 -0.01739269 0.09457112
v -0.01808537 -0.01334482 0.09814300
v -0.01189010 -0.00790753 0.09854122
v -0.00883785 -0.00480885 0.09979241
v -0.01324920 -0.00384161 0.10084426
v -0.01095652 -0.00233526 0.10408655
v -0.00630744 -0.00354383 0.10301435
v -0.02489151 -0.01316986 0.10001738
v -0.01980770 -0.00802937 0.09983008
v -0.00616268 -0.00423095 0.10386482
v -0.00457453 -0.00721982 0.10475779
v -0.00414303 -0.01250237 0.10443064
v -0.03425067 -0.01469654 0.10602334
v -0.03502336 -0.01375262 0.10474679
v -0.03702663 -0.01382261 0.10733709
v -0.03875580 -0.01281158 0.10686611
v -0.04037212 -0.01148833 0.10974974
v -0.04162492 -0.01032421 0.10803599
v -0.04279063 -0.01020447 0.11061243
v -0.04343901 -0.00947143 0.10906705
v -0.04580536 -0.00859161 0.11241895
v -0.04639668 -0.00825459 0.11008277
v -0.04607921 -0.00622040 0.11286242
v -0.04666385 -0.00595736 0.11024267
v -0.04313138 -0.00510076 0.11220959
v -0.04396922 -0.00467070 0.10995191
v -0.03864411 -0.00375984 0.11128051
v -0.03917971 -0.00425383 0.10797295
v -0.03353086 -0.00190726 0.11037928
v -0.03422545 -0.00154390 0.10729819
v -0.02887471 -0.00034805 0.10939345
v -0.02901481 0.00000000 0.10720048
v -0.02223194 -0.00246161 0.10904324
v -0.02373637 -0.00060415 0.10674456
v -0.01277494 -0.00255434 0.10636950
v -0.01655889 -0.00169822 0.10527112
v -0.01722098 -0.00149521 0.10777892
v -0.02033273 -0.00389064 0.10170255
v -0.02461752 -0.00770449 0.10135079
v -0.02819916 -0.01245357 0.10142390
v -0.03341299 -0.00997049 0.10413406
v -0.02979467 -0.00635866 0.10396466
v -0.02567653 -0.00253903 0.10391989
v -0.03044102 -0.00228848 0.10563673
v -0.03327568 -0.00558634 0.10514503
v -0.03631221 -0.00864570 0.10524552
v -0.03586629 -0.00460512 0.10605405
v -0.03737815 -0.00688837 0.10608220
v -0.03897809 -0.00886923 0.10647714
v -0.04274401 -0.00722709 0.10760199
v -0.01201610 -0.00635624 0.10691551
v -0.01708278 -0.00684464 0.10841319
v -0.02119313 -0.00692213 0.10906734
v -0.02847066 -0.00508198 0.10984305
v -0.00879521 -0.02349818 0.10021986
v -0.01032016 -0.02004372 0.10226225
v -0.01880209 -0.01929024 0.10304985
v -0.02188793 -0.01716403 0.10445122
v -0.01240364 -0.01638366 0.10437546
v -0.00850256 -0.01200109 0.10510471
v -0.01545267 -0.01082167 0.10691887
v -0.04214763 -0.00754882 0.11270342
v -0.04117555 -0.00914994 0.11193094
v -0.03765799 -0.00667438 0.11120622
v -0.03324156 -0.00460651 0.11048350
v -0.03834935 -0.01051924 0.11044429
v -0.03333291 -0.00993761 0.10869313
v -0.02754753 -0.00979026 0.10786054
v -0.02445201 -0.01271234 0.10655605
f 1 2 3
f 1 3 4
f 3 2 5
f 3 5 6
f 5 7 8
f 5 8 6
f 7 9 10
f 7 10 8
f 9 11 12
f 9 12 10
f 11 13 14
f 11 14 12
f 13 15 16
f 13 16 14
f 15 17 18
f 15 18 16
f 17 19 20
f 17 20 18
f 19 21 22
f 19 22 20
f 21 23 24
f 21 24 22
f 23 25 26
f 23 26 24
f 25 27 28
f 25 28 26
f 27 29 30
f 27 30 28
f 31 32 2
f 31 2 1
f 29 33 34
f 29 34 30
f 33 35 36
f 33 36 34
f 35 37 38
f 35 38 36
f 37 39 40
f 37 40 38
f 39 41 42
f 39 42 40
f 41 43 44
f 41 44 42
f 43 45 46
f 43 46 44
f 45 47 48
f 45 48 46
f 47 49 50
f 47 50 48
f 49 51 52
f 49 52 50
f 51 53 54
f 51 54 52
f 53 55 56
f 53 56 54
f 57 58 59
f 57 59 60
f 1 4 61
f 1 61 62
f 62 61 63
f 62 63 64
f 64 63 65
f 64 65 66
f 66 65 67
f 66 67 68
f 68 67 69
f 68 69 70
f 70 69 71
f 70 71 72
f 72 71 73
f 72 73 74
f 74 73 75
f 74 75 76
f 76 75 77
f 76 77 78
f 78 77 79
f 78 79 80
f 80 79 81
f 80 81 82
f 82 81 83
f 82 83 84
f 84 83 85
f 84 85 86
f 86 85 87
f 86 87 88
f 88 87 89
f 88 89 90
f 90 89 91
f 90 91 92
f 92 91 93
f 92 93 94
f 94 93 95
f 94 95 96
f 96 95 97
f 96 97 98
f 98 97 99
f 98 99 100
f 100 99 101
f 100 101 102
f 102 101 103
f 102 103 104
f 104 103 105
f 104 105 106
f 105 107 108
f 105 108 106
f 108 107 109
f 108 109 110
f 110 109 111
f 110 111 112
f 112 111 113
f 112 113 114
f 114 113 115
f 114 115 116
f 116 115 117
f 116 117 118
f 118 117 119
f 118 119 120
f 120 119 121
f 120 121 122
f 122 121 123
f 122 123 124
f 124 123 125
f 124 125 126
f 125 127 128
f 125 128 126
f 128 127 129
f 128 129 130
f 130 129 131
f 130 131 132
f 132 131 133
f 132 133 134
f 134 133 135
f 134 135 136
f 136 135 137
f 136 137 138
f 138 137 139
f 138 139 140
f 140 139 141
f 140 141 142
f 142 141 143
f 142 143 144
f 144 143 145
f 144 145 146
f 145 147 148
f 145 148 146
f 148 147 149
f 148 149 150
f 150 149 151
f 150 151 152
f 152 151 153
f 152 153 154
f 154 153 155
f 154 155 156
f 156 155 157
f 156 157 158
f 158 157 159
f 158 159 160
f 160 159 161
f 160 161 162
f 162 161 163
f 162 163 164
f 163 165 166
f 163 166 164
f 166 165 167
f 166 167 168
f 167 169 170
f 167 170 168
f 170 169 171
f 170 171 172
f 172 171 173
f 172 173 174
f 174 173 175
f 174 175 176
f 176 175 177
f 176 177 178
f 178 177 179
f 178 179 180
f 180 179 181
f 180 181 182
f 182 181 183
f 182 183 184
f 184 183 185
f 184 185 186
f 186 185 187
f 186 187 188
f 188 187 189
f 188 189 190
f 190 189 191
f 190 191 192
f 192 191 193
f 192 193 194
f 194 193 195
f 194 195 196
f 196 195 197
f 196 197 198
f 198 197 199
f 198 199 200
f 200 199 201
f 200 201 202
f 203 202 201
f 203 201 204
f 205 206 59
f 205 59 58
f 10 207 208
f 10 208 8
f 6 8 208
f 6 208 209
f 3 6 209
f 3 209 210
f 210 211 4
f 210 4 3
f 208 212 213
f 208 213 209
f 213 214 210
f 213 210 209
f 214 215 211
f 214 211 210
f 207 10 12
f 207 12 216
f 216 212 208
f 216 208 207
f 216 12 14
f 216 14 217
f 217 14 16
f 217 16 218
f 218 16 18
f 218 18 219
f 219 18 20
f 219 20 220
f 220 20 22
f 220 22 221
f 221 22 24
f 221 24 222
f 216 223 224
f 216 224 212
f 224 214 213
f 224 213 212
f 223 216 217
f 223 217 225
f 225 217 218
f 225 218 226
f 226 218 219
f 226 219 227
f 227 219 220
f 227 220 228
f 228 220 221
f 228 221 229
f 229 221 222
f 229 222 230
f 223 215 214
f 223 214 224
f 215 223 225
f 215 225 231
f 231 225 226
f 231 226 232
f 232 226 227
f 232 227 233
f 233 227 228
f 233 228 234
f 26 235 222
f 26 222 24
f 235 26 28
f 235 28 236
f 236 28 30
f 236 30 237
f 237 30 34
f 237 34 238
f 238 34 36
f 238 36 239
f 239 36 38
f 239 38 240
f 240 38 40
f 240 40 241
f 241 40 42
f 241 42 242
f 242 42 44
f 242 44 243
f 243 44 46
f 243 46 244
f 54 245 50
f 54 50 52
f 245 246 48
f 245 48 50
f 244 46 48
f 244 48 246
f 56 247 245
f 56 245 54
f 246 248 243
f 246 243 244
f 248 246 245
f 248 245 247
f 60 56 55
f 60 55 57
f 204 206 205
f 204 205 203
f 242 243 248
f 242 248 249
f 249 250 241
f 249 241 242
f 250 251 240
f 250 240 241
f 251 252 239
f 251 239 240
f 247 56 60
f 247 60 253
f 249 248 247
f 249 247 253
f 251 250 249
f 251 249 253
f 253 254 252
f 253 252 251
f 254 253 60
f 254 60 59
f 252 255 238
f 252 238 239
f 254 256 255
f 254 255 252
f 256 254 59
f 256 59 206
f 237 238 255
f 237 255 257
f 257 258 236
f 257 236 237
f 256 206 204
f 256 204 259
f 259 257 255
f 259 255 256
f 259 260 258
f 259 258 257
f 260 259 204
f 260 204 201
f 235 261 230
f 235 230 222
f 261 235 236
f 261 236 258
f 260 262 261
f 260 261 258
f 199 262 260
f 199 260 201
f 234 228 229
f 234 229 263
f 263 229 230
f 263 230 264
f 264 230 261
f 264 261 265
f 265 261 262
f 265 262 266
f 266 262 199
f 266 199 197
f 264 265 267
f 264 267 268
f 267 265 266
f 267 266 269
f 195 269 266
f 195 266 197
f 268 270 263
f 268 263 264
f 211 271 61
f 211 61 4
f 215 272 271
f 215 271 211
f 231 273 272
f 231 272 215
f 273 231 232
f 273 232 274
f 233 275 274
f 233 274 232
f 234 276 275
f 234 275 233
f 276 234 263
f 276 263 270
f 268 267 277
f 268 277 278
f 277 267 269
f 277 269 279
f 279 269 195
f 279 195 193
f 271 280 63
f 271 63 61
f 272 281 280
f 272 280 271
f 273 282 281
f 273 281 272
f 274 283 282
f 274 282 273
f 275 284 283
f 275 283 274
f 284 275 276
f 284 276 270
f 278 285 270
f 278 270 268
f 285 286 284
f 285 284 270
f 286 282 283
f 286 283 284
f 286 287 281
f 286 281 282
f 287 288 280
f 287 280 281
f 288 65 63
f 288 63 280
f 285 289 287
f 285 287 286
f 289 290 288
f 289 288 287
f 290 67 65
f 290 65 288
f 285 278 291
f 285 291 292
f 69 67 290
f 69 290 293
f 289 294 293
f 289 293 290
f 294 289 285
f 294 285 292
f 277 295 291
f 277 291 278
f 295 277 279
f 295 279 296
f 296 279 193
f 296 193 191
f 296 191 189
f 296 189 297
f 297 189 187
f 297 187 298
f 298 299 300
f 298 300 297
f 300 295 296
f 300 296 297
f 185 301 298
f 185 298 187
f 183 302 301
f 183 301 185
f 181 303 302
f 181 302 183
f 298 301 304
f 298 304 305
f 302 306 304
f 302 304 301
f 305 307 299
f 305 299 298
f 303 308 306
f 303 306 302
f 307 305 309
f 307 309 310
f 306 308 311
f 306 311 312
f 312 313 304
f 312 304 306
f 310 309 314
f 310 314 315
f 313 309 305
f 313 305 304
f 312 311 316
f 312 316 317
f 317 318 313
f 317 313 312
f 318 314 309
f 318 309 313
f 318 319 320
f 318 320 314
f 320 321 315
f 320 315 314
f 317 316 322
f 317 322 323
f 323 319 318
f 323 318 317
f 322 324 325
f 322 325 323
f 324 326 327
f 324 327 325
f 320 328 329
f 320 329 321
f 328 330 331
f 328 331 329
f 319 332 328
f 319 328 320
f 325 332 319
f 325 319 323
f 332 325 327
f 332 327 333
f 333 330 328
f 333 328 332
f 333 334 335
f 333 335 330
f 334 333 327
f 334 327 326
f 335 336 331
f 335 331 330
f 326 336 335
f 326 335 334
f 336 326 324
f 336 324 337
f 337 338 331
f 337 331 336
f 338 337 324
f 338 324 322
f 338 339 329
f 338 329 331
f 339 338 322
f 339 322 316
f 339 340 321
f 339 321 329
f 340 339 316
f 340 316 311
f 340 341 315
f 340 315 321
f 341 340 311
f 341 311 308
f 341 342 310
f 341 310 315
f 308 343 342
f 308 342 341
f 343 308 303
f 343 303 344
f 342 345 307
f 342 307 310
f 345 346 299
f 345 299 307
f 346 345 342
f 346 342 343
f 293 347 71
f 293 71 69
f 347 293 294
f 347 294 348
f 292 291 349
f 292 349 350
f 348 294 292
f 348 292 350
f 349 291 295
f 349 295 351
f 351 295 300
f 351 300 352
f 352 300 299
f 352 299 353
f 179 354 303
f 179 303 181
f 344 303 354
f 344 354 355
f 346 356 353
f 346 353 299
f 356 346 343
f 356 343 344
f 356 344 355
f 356 355 357
f 354 179 177
f 354 177 358
f 355 354 358
f 355 358 359
f 357 355 359
f 357 359 360
f 347 361 73
f 347 73 71
f 348 362 361
f 348 361 347
f 350 363 362
f 350 362 348
f 349 364 363
f 349 363 350
f 364 349 351
f 364 351 352
f 364 352 353
f 364 353 365
f 365 353 356
f 365 356 366
f 366 356 357
f 366 357 367
f 367 357 360
f 367 360 368
f 361 369 75
f 361 75 73
f 369 370 77
f 369 77 75
f 370 371 79
f 370 79 77
f 362 372 369
f 362 369 361
f 372 373 370
f 372 370 369
f 373 374 371
f 373 371 370
f 363 375 372
f 363 372 362
f 375 363 364
f 375 364 365
f 375 376 373
f 375 373 372
f 376 375 365
f 376 365 366
f 376 377 374
f 376 374 373
f 377 376 366
f 377 366 367
f 371 378 81
f 371 81 79
f 81 378 379
f 81 379 380
f 380 381 83
f 380 83 81
f 377 382 383
f 377 383 374
f 374 383 378
f 374 378 371
f 379 384 385
f 379 385 380
f 385 386 381
f 385 381 380
f 107 105 386
f 107 386 385
f 386 105 103
f 386 103 387
f 381 386 387
f 381 387 388
f 87 85 388
f 87 388 389
f 381 388 85
f 381 85 83
f 387 390 389
f 387 389 388
f 103 101 390
f 103 390 387
f 390 391 392
f 390 392 389
f 89 87 389
f 89 389 392
f 391 390 101
f 391 101 99
f 391 393 394
f 391 394 392
f 97 393 391
f 97 391 99
f 393 97 95
f 393 95 93
f 392 394 91
f 392 91 89
f 394 393 93
f 394 93 91
f 382 377 367
f 382 367 368
f 384 395 107
f 384 107 385
f 395 396 109
f 395 109 107
f 383 397 379
f 383 379 378
f 382 398 397
f 382 397 383
f 368 399 398
f 368 398 382
f 175 400 358
f 175 358 177
f 400 401 359
f 400 359 358
f 401 402 360
f 401 360 359
f 402 399 368
f 402 368 360
f 173 403 400
f 173 400 175
f 403 404 401
f 403 401 400
f 401 404 405
f 401 405 402
f 402 405 406
f 402 406 399
f 399 406 407
f 399 407 398
f 398 407 408
f 398 408 397
f 408 384 379
f 408 379 397
f 396 395 384
f 396 384 408
f 396 408 407
f 396 407 409
f 409 111 109
f 409 109 396
f 407 406 410
f 407 410 411
f 409 407 411
f 409 411 412
f 113 111 409
f 113 409 412
f 410 406 405
f 410 405 413
f 413 405 404
f 413 404 414
f 171 415 403
f 171 403 173
f 415 414 404
f 415 404 403
f 169 416 415
f 169 415 171
f 416 417 414
f 416 414 415
f 417 418 413
f 417 413 414
f 418 419 410
f 418 410 413
f 419 420 411
f 419 411 410
f 117 115 113
f 117 113 412
f 420 117 412
f 420 412 411
f 167 421 416
f 167 416 169
f 421 422 417
f 421 417 416
f 422 423 418
f 422 418 417
f 423 424 419
f 423 419 418
f 424 425 420
f 424 420 419
f 425 119 117
f 425 117 420
f 425 123 121
f 425 121 119
f 165 426 421
f 165 421 167
f 423 422 427
f 423 427 428
f 424 423 428
f 424 428 429
f 123 425 424
f 123 424 429
f 427 422 421
f 427 421 426
f 427 430 431
f 427 431 428
f 429 432 125
f 429 125 123
f 432 429 428
f 432 428 431
f 432 433 127
f 432 127 125
f 433 434 129
f 433 129 127
f 434 433 432
f 434 432 431
f 430 435 436
f 430 436 431
f 436 437 434
f 436 434 431
f 437 131 129
f 437 129 434
f 163 438 426
f 163 426 165
f 438 430 427
f 438 427 426
f 161 439 438
f 161 438 163
f 439 435 430
f 439 430 438
f 159 440 439
f 159 439 161
f 435 441 442
f 435 442 436
f 441 443 444
f 441 444 442
f 440 441 435
f 440 435 439
f 157 445 440
f 157 440 159
f 445 443 441
f 445 441 440
f 437 446 133
f 437 133 131
f 446 437 436
f 446 436 442
f 444 447 446
f 444 446 442
f 447 135 133
f 447 133 446
f 443 448 449
f 443 449 444
f 449 448 450
f 449 450 451
f 450 452 453
f 450 453 451
f 453 452 454
f 453 454 455
f 155 456 445
f 155 445 157
f 456 448 443
f 456 443 445
f 456 457 450
f 456 450 448
f 153 457 456
f 153 456 155
f 151 458 457
f 151 457 153
f 149 459 458
f 149 458 151
f 459 460 461
f 459 461 462
f 460 459 149
f 460 149 147
f 457 463 452
f 457 452 450
f 458 459 462
f 458 462 464
f 464 463 457
f 464 457 458
f 145 465 460
f 145 460 147
f 465 145 143
f 465 143 466
f 466 143 141
f 466 141 467
f 454 468 469
f 454 469 455
f 468 470 471
f 468 471 469
f 471 470 472
f 471 472 473
f 472 474 475
f 472 475 473
f 474 476 477
f 474 477 475
f 477 476 478
f 477 478 479
f 479 478 480
f 479 480 481
f 481 480 482
f 481 482 483
f 482 484 485
f 482 485 483
f 484 486 487
f 484 487 485
f 486 488 489
f 486 489 487
f 465 490 461
f 465 461 460
f 461 490 491
f 461 491 492
f 492 491 489
f 492 489 488
f 462 461 492
f 462 492 493
f 493 494 464
f 493 464 462
f 494 495 463
f 494 463 464
f 495 454 452
f 495 452 463
f 495 496 468
f 495 468 454
f 494 497 496
f 494 496 495
f 488 498 493
f 488 493 492
f 498 497 494
f 498 494 493
f 486 499 498
f 486 498 488
f 499 500 497
f 499 497 498
f 500 501 496
f 500 496 497
f 501 470 468
f 501 468 496
f 499 486 484
f 499 484 502
f 500 499 502
f 500 502 503
f 501 500 503
f 501 503 504
f 504 472 470
f 504 470 501
f 482 503 502
f 482 502 484
f 480 505 503
f 480 503 482
f 505 480 478
f 505 478 476
f 472 505 476
f 472 476 474
f 503 505 472
f 503 472 504
f 490 465 466
f 490 466 506
f 506 507 491
f 506 491 490
f 489 491 507
f 489 507 508
f 487 489 508
f 487 508 509
f 447 510 137
f 447 137 135
f 449 510 447
f 449 447 444
f 510 511 139
f 510 139 137
f 467 141 139
f 467 139 511
f 451 511 510
f 451 510 449
f 453 512 513
f 453 513 451
f 511 451 513
f 511 513 514
f 514 515 467
f 514 467 511
f 515 506 466
f 515 466 467
f 506 515 514
f 506 514 516
f 516 514 513
f 516 513 512
f 508 507 506
f 508 506 516
f 477 479 481
f 477 481 517
f 517 518 475
f 517 475 477
f 517 481 483
f 517 483 519
f 519 483 485
f 519 485 520
f 520 485 487
f 520 487 509
f 518 521 473
f 518 473 475
f 519 521 518
f 519 518 517
f 521 522 471
f 521 471 473
f 522 521 519
f 522 519 520
f 509 523 522
f 509 522 520
f 469 471 522
f 469 522 523
f 455 469 523
f 455 523 524
f 508 524 523
f 508 523 509
f 512 453 455
f 512 455 524
f 516 512 524
f 516 524 508
f 525 5 2
f 525 2 32
f 525 526 7
f 525 7 5
f 526 527 9
f 526 9 7
f 527 528 11
f 527 11 9
f 528 529 13
f 528 13 11
f 529 530 15
f 529 15 13
f 530 531 17
f 530 17 15
f 531 532 19
f 531 19 17
f 532 533 21
f 532 21 19
f 533 534 23
f 533 23 21
f 534 535 25
f 534 25 23
f 535 536 27
f 535 27 25
f 536 537 29
f 536 29 27
f 537 538 33
f 537 33 29
f 538 539 35
f 538 35 33
f 539 540 37
f 539 37 35
f 540 541 39
f 540 39 37
f 541 542 41
f 541 41 39
f 542 543 43
f 542 43 41
f 543 544 45
f 543 45 43
f 544 545 47
f 544 47 45
f 545 546 49
f 545 49 47
f 546 547 51
f 546 51 49
f 547 548 53
f 547 53 51
f 548 549 55
f 548 55 53
f 550 551 58
f 550 58 57
f 62 552 31
f 62 31 1
f 64 553 552
f 64 552 62
f 66 554 553
f 66 553 64
f 68 555 554
f 68 554 66
f 70 556 555
f 70 555 68
f 72 557 556
f 72 556 70
f 74 558 557
f 74 557 72
f 76 559 558
f 76 558 74
f 78 560 559
f 78 559 76
f 80 561 560
f 80 560 78
f 82 562 561
f 82 561 80
f 84 563 562
f 84 562 82
f 86 564 563
f 86 563 84
f 88 565 564
f 88 564 86
f 90 566 565
f 90 565 88
f 92 567 566
f 92 566 90
f 94 568 567
f 94 567 92
f 96 569 568
f 96 568 94
f 98 570 569
f 98 569 96
f 100 571 570
f 100 570 98
f 102 572 571
f 102 571 100
f 104 573 572
f 104 572 102
f 106 574 573
f 106 573 104
f 106 108 575
f 106 575 574
f 110 576 575
f 110 575 108
f 112 577 576
f 112 576 110
f 114 578 577
f 114 577 112
f 116 579 578
f 116 578 114
f 118 580 579
f 118 579 116
f 120 581 580
f 120 580 118
f 122 582 581
f 122 581 120
f 124 583 582
f 124 582 122
f 126 584 583
f 126 583 124
f 126 128 585
f 126 585 584
f 130 586 585
f 130 585 128
f 132 587 586
f 132 586 130
f 134 588 587
f 134 587 132
f 136 589 588
f 136 588 134
f 138 590 589
f 138 589 136
f 140 591 590
f 140 590 138
f 142 592 591
f 142 591 140
f 144 593 592
f 144 592 142
f 146 594 593
f 146 593 144
f 146 148 595
f 146 595 594
f 150 596 595
f 150 595 148
f 152 597 596
f 152 596 150
f 154 598 597
f 154 597 152
f 156 599 598
f 156 598 154
f 158 600 599
f 158 599 156
f 160 601 600
f 160 600 158
f 162 602 601
f 162 601 160
f 164 603 602
f 164 602 162
f 164 166 604
f 164 604 603
f 168 605 604
f 168 604 166
f 168 170 606
f 168 606 605
f 172 607 606
f 172 606 170
f 174 608 607
f 174 607 172
f 176 609 608
f 176 608 174
f 178 610 609
f 178 609 176
f 180 611 610
f 180 610 178
f 182 612 611
f 182 611 180
f 184 613 612
f 184 612 182
f 186 614 613
f 186 613 184
f 188 615 614
f 188 614 186
f 190 616 615
f 190 615 188
f 192 617 616
f 192 616 190
f 194 618 617
f 194 617 192
f 196 619 618
f 196 618 194
f 198 620 619
f 198 619 196
f 200 621 620
f 200 620 198
f 202 622 621
f 202 621 200
f 623 622 202
f 623 202 203
f 58 551 624
f 58 624 205
f 526 625 626
f 526 626 527
f 627 625 526
f 627 526 525
f 628 627 525
f 628 525 32
f 32 31 629
f 32 629 628
f 627 630 631
f 627 631 625
f 627 628 632
f 627 632 630
f 628 629 633
f 628 633 632
f 634 528 527
f 634 527 626
f 626 625 631
f 626 631 634
f 635 529 528
f 635 528 634
f 636 530 529
f 636 529 635
f 637 531 530
f 637 530 636
f 638 532 531
f 638 531 637
f 639 533 532
f 639 532 638
f 640 534 533
f 640 533 639
f 631 641 642
f 631 642 634
f 631 630 632
f 631 632 641
f 643 635 634
f 643 634 642
f 644 636 635
f 644 635 643
f 645 637 636
f 645 636 644
f 646 638 637
f 646 637 645
f 647 639 638
f 647 638 646
f 648 640 639
f 648 639 647
f 641 632 633
f 641 633 642
f 649 643 642
f 649 642 633
f 650 644 643
f 650 643 649
f 651 645 644
f 651 644 650
f 652 646 645
f 652 645 651
f 534 640 653
f 534 653 535
f 654 536 535
f 654 535 653
f 655 537 536
f 655 536 654
f 656 538 537
f 656 537 655
f 657 539 538
f 657 538 656
f 658 540 539
f 658 539 657
f 659 541 540
f 659 540 658
f 660 542 541
f 660 541 659
f 661 543 542
f 661 542 660
f 662 544 543
f 662 543 661
f 547 546 663
f 547 663 548
f 546 545 664
f 546 664 663
f 664 545 544
f 664 544 662
f 548 663 665
f 548 665 549
f 662 661 666
f 662 666 664
f 665 663 664
f 665 664 666
f 57 55 549
f 57 549 550
f 203 205 624
f 203 624 623
f 667 666 661
f 667 661 660
f 660 659 668
f 660 668 667
f 659 658 669
f 659 669 668
f 658 657 670
f 658 670 669
f 671 550 549
f 671 549 665
f 671 665 666
f 671 666 667
f 671 667 668
f 671 668 669
f 669 670 672
f 669 672 671
f 551 550 671
f 551 671 672
f 657 656 673
f 657 673 670
f 670 673 674
f 670 674 672
f 624 551 672
f 624 672 674
f 675 673 656
f 675 656 655
f 655 654 676
f 655 676 675
f 677 623 624
f 677 624 674
f 674 673 675
f 674 675 677
f 675 676 678
f 675 678 677
f 622 623 677
f 622 677 678
f 640 648 679
f 640 679 653
f 676 654 653
f 676 653 679
f 676 679 680
f 676 680 678
f 622 678 680
f 622 680 621
f 681 647 646
f 681 646 652
f 682 648 647
f 682 647 681
f 683 679 648
f 683 648 682
f 684 680 679
f 684 679 683
f 620 621 680
f 620 680 684
f 685 686 683
f 685 683 682
f 687 684 683
f 687 683 686
f 620 684 687
f 620 687 619
f 682 681 688
f 682 688 685
f 31 552 689
f 31 689 629
f 629 689 690
f 629 690 633
f 633 690 691
f 633 691 649
f 692 650 649
f 692 649 691
f 650 692 693
f 650 693 651
f 651 693 694
f 651 694 652
f 688 681 652
f 688 652 694
f 695 696 686
f 695 686 685
f 697 687 686
f 697 686 696
f 618 619 687
f 618 687 697
f 552 553 698
f 552 698 689
f 689 698 699
f 689 699 690
f 690 699 700
f 690 700 691
f 691 700 701
f 691 701 692
f 692 701 702
f 692 702 693
f 688 694 693
f 688 693 702
f 685 688 703
f 685 703 695
f 688 702 704
f 688 704 703
f 702 701 700
f 702 700 704
f 700 699 705
f 700 705 704
f 699 698 706
f 699 706 705
f 698 553 554
f 698 554 706
f 704 705 707
f 704 707 703
f 705 706 708
f 705 708 707
f 706 554 555
f 706 555 708
f 709 710 695
f 709 695 703
f 711 708 555
f 711 555 556
f 708 711 712
f 708 712 707
f 709 703 707
f 709 707 712
f 695 710 713
f 695 713 696
f 714 697 696
f 714 696 713
f 617 618 697
f 617 697 714
f 715 616 617
f 715 617 714
f 716 615 616
f 716 616 715
f 715 717 718
f 715 718 716
f 715 714 713
f 715 713 717
f 615 716 719
f 615 719 614
f 614 719 720
f 614 720 613
f 613 720 721
f 613 721 612
f 722 723 719
f 722 719 716
f 719 723 724
f 719 724 720
f 716 718 725
f 716 725 722
f 720 724 726
f 720 726 721
f 727 728 722
f 727 722 725
f 729 730 726
f 729 726 724
f 724 723 731
f 724 731 729
f 732 733 728
f 732 728 727
f 723 722 728
f 723 728 731
f 734 735 730
f 734 730 729
f 729 731 736
f 729 736 734
f 731 728 733
f 731 733 736
f 733 737 738
f 733 738 736
f 733 732 739
f 733 739 737
f 740 741 735
f 740 735 734
f 734 736 738
f 734 738 740
f 740 742 743
f 740 743 741
f 742 744 745
f 742 745 743
f 739 746 747
f 739 747 737
f 746 748 749
f 746 749 747
f 737 747 750
f 737 750 738
f 740 738 750
f 740 750 742
f 751 744 742
f 751 742 750
f 750 747 749
f 750 749 751
f 749 752 753
f 749 753 751
f 745 744 751
f 745 751 753
f 749 748 754
f 749 754 752
f 753 752 754
f 753 754 745
f 755 743 745
f 755 745 754
f 754 748 756
f 754 756 755
f 741 743 755
f 741 755 756
f 748 746 757
f 748 757 756
f 735 741 756
f 735 756 757
f 746 739 758
f 746 758 757
f 730 735 757
f 730 757 758
f 739 732 759
f 739 759 758
f 726 730 758
f 726 758 759
f 732 727 760
f 732 760 759
f 759 760 761
f 759 761 726
f 762 721 726
f 762 726 761
f 727 725 763
f 727 763 760
f 725 718 764
f 725 764 763
f 761 760 763
f 761 763 764
f 556 557 765
f 556 765 711
f 766 712 711
f 766 711 765
f 767 768 710
f 767 710 709
f 767 709 712
f 767 712 766
f 769 713 710
f 769 710 768
f 770 717 713
f 770 713 769
f 771 718 717
f 771 717 770
f 612 721 772
f 612 772 611
f 773 772 721
f 773 721 762
f 718 771 774
f 718 774 764
f 762 761 764
f 762 764 774
f 775 773 762
f 775 762 774
f 776 610 611
f 776 611 772
f 777 776 772
f 777 772 773
f 778 777 773
f 778 773 775
f 557 558 779
f 557 779 765
f 765 779 780
f 765 780 766
f 766 780 781
f 766 781 767
f 767 781 782
f 767 782 768
f 770 769 768
f 770 768 782
f 783 771 770
f 783 770 782
f 784 774 771
f 784 771 783
f 785 775 774
f 785 774 784
f 786 778 775
f 786 775 785
f 558 559 787
f 558 787 779
f 559 560 788
f 559 788 787
f 560 561 789
f 560 789 788
f 779 787 790
f 779 790 780
f 787 788 791
f 787 791 790
f 788 789 792
f 788 792 791
f 780 790 793
f 780 793 781
f 783 782 781
f 783 781 793
f 790 791 794
f 790 794 793
f 784 783 793
f 784 793 794
f 791 792 795
f 791 795 794
f 785 784 794
f 785 794 795
f 561 562 796
f 561 796 789
f 797 798 796
f 797 796 562
f 562 563 799
f 562 799 797
f 792 800 801
f 792 801 795
f 789 796 800
f 789 800 792
f 797 802 803
f 797 803 798
f 797 799 804
f 797 804 802
f 802 804 574
f 802 574 575
f 805 573 574
f 805 574 804
f 806 805 804
f 806 804 799
f 807 806 564
f 807 564 565
f 563 564 806
f 563 806 799
f 806 807 808
f 806 808 805
f 805 808 572
f 805 572 573
f 807 809 810
f 807 810 808
f 809 807 565
f 809 565 566
f 571 572 808
f 571 808 810
f 809 811 812
f 809 812 810
f 571 810 812
f 571 812 570
f 568 569 570
f 568 570 812
f 566 567 811
f 566 811 809
f 567 568 812
f 567 812 811
f 786 785 795
f 786 795 801
f 802 575 813
f 802 813 803
f 575 576 814
f 575 814 813
f 796 798 815
f 796 815 800
f 800 815 816
f 800 816 801
f 801 816 817
f 801 817 786
f 610 776 818
f 610 818 609
f 776 777 819
f 776 819 818
f 777 778 820
f 777 820 819
f 778 786 817
f 778 817 820
f 609 818 821
f 609 821 608
f 818 819 822
f 818 822 821
f 820 823 822
f 820 822 819
f 817 824 823
f 817 823 820
f 816 825 824
f 816 824 817
f 815 826 825
f 815 825 816
f 815 798 803
f 815 803 826
f 826 803 813
f 826 813 814
f 827 825 826
f 827 826 814
f 814 576 577
f 814 577 827
f 828 829 824
f 828 824 825
f 830 828 825
f 830 825 827
f 830 827 577
f 830 577 578
f 831 823 824
f 831 824 829
f 832 822 823
f 832 823 831
f 608 821 833
f 608 833 607
f 821 822 832
f 821 832 833
f 607 833 834
f 607 834 606
f 833 832 835
f 833 835 834
f 832 831 836
f 832 836 835
f 831 829 837
f 831 837 836
f 829 828 838
f 829 838 837
f 830 578 579
f 830 579 580
f 828 830 580
f 828 580 838
f 606 834 839
f 606 839 605
f 834 835 840
f 834 840 839
f 835 836 841
f 835 841 840
f 836 837 842
f 836 842 841
f 837 838 843
f 837 843 842
f 838 580 581
f 838 581 843
f 581 582 583
f 581 583 843
f 605 839 844
f 605 844 604
f 845 846 840
f 845 840 841
f 847 845 841
f 847 841 842
f 847 842 843
f 847 843 583
f 844 839 840
f 844 840 846
f 845 848 849
f 845 849 846
f 583 584 850
f 583 850 847
f 848 845 847
f 848 847 850
f 584 585 851
f 584 851 850
f 585 586 852
f 585 852 851
f 848 850 851
f 848 851 852
f 848 853 854
f 848 854 849
f 848 852 855
f 848 855 853
f 852 586 587
f 852 587 855
f 604 844 856
f 604 856 603
f 844 846 849
f 844 849 856
f 603 856 857
f 603 857 602
f 856 849 854
f 856 854 857
f 602 857 858
f 602 858 601
f 853 859 860
f 853 860 854
f 859 861 862
f 859 862 860
f 857 854 860
f 857 860 858
f 601 858 863
f 601 863 600
f 858 860 862
f 858 862 863
f 587 588 864
f 587 864 855
f 859 853 855
f 859 855 864
f 859 864 865
f 859 865 861
f 864 588 589
f 864 589 865
f 861 866 867
f 861 867 862
f 868 869 867
f 868 867 866
f 868 870 871
f 868 871 869
f 872 873 871
f 872 871 870
f 600 863 874
f 600 874 599
f 863 862 867
f 863 867 874
f 867 869 875
f 867 875 874
f 599 874 875
f 599 875 598
f 598 875 876
f 598 876 597
f 597 876 877
f 597 877 596
f 878 879 880
f 878 880 877
f 595 596 877
f 595 877 880
f 869 871 881
f 869 881 875
f 882 878 877
f 882 877 876
f 876 875 881
f 876 881 882
f 595 880 883
f 595 883 594
f 884 593 594
f 884 594 883
f 885 592 593
f 885 593 884
f 872 886 887
f 872 887 873
f 886 888 889
f 886 889 887
f 890 891 889
f 890 889 888
f 890 892 893
f 890 893 891
f 892 894 895
f 892 895 893
f 896 897 895
f 896 895 894
f 898 899 897
f 898 897 896
f 900 901 899
f 900 899 898
f 900 902 903
f 900 903 901
f 902 904 905
f 902 905 903
f 904 906 907
f 904 907 905
f 880 879 908
f 880 908 883
f 909 910 908
f 909 908 879
f 907 906 910
f 907 910 909
f 911 909 879
f 911 879 878
f 878 882 912
f 878 912 911
f 882 881 913
f 882 913 912
f 881 871 873
f 881 873 913
f 873 887 914
f 873 914 913
f 913 914 915
f 913 915 912
f 909 911 916
f 909 916 907
f 911 912 915
f 911 915 916
f 907 916 917
f 907 917 905
f 916 915 918
f 916 918 917
f 915 914 919
f 915 919 918
f 914 887 889
f 914 889 919
f 920 903 905
f 920 905 917
f 921 920 917
f 921 917 918
f 922 921 918
f 922 918 919
f 919 889 891
f 919 891 922
f 903 920 921
f 903 921 901
f 901 921 923
f 901 923 899
f 895 897 899
f 895 899 923
f 893 895 923
f 893 923 891
f 922 891 923
f 922 923 921
f 924 884 883
f 924 883 908
f 908 910 925
f 908 925 924
f 926 925 910
f 926 910 906
f 927 926 906
f 927 906 904
f 589 590 928
f 589 928 865
f 861 865 928
f 861 928 866
f 590 591 929
f 590 929 928
f 929 591 592
f 929 592 885
f 866 928 929
f 866 929 868
f 868 930 931
f 868 931 870
f 932 930 868
f 932 868 929
f 929 885 933
f 929 933 932
f 885 884 924
f 885 924 933
f 934 932 933
f 934 933 924
f 931 930 932
f 931 932 934
f 934 924 925
f 934 925 926
f 935 898 896
f 935 896 894
f 894 892 936
f 894 936 935
f 937 900 898
f 937 898 935
f 938 902 900
f 938 900 937
f 927 904 902
f 927 902 938
f 892 890 939
f 892 939 936
f 935 936 939
f 935 939 937
f 890 888 940
f 890 940 939
f 938 937 939
f 938 939 940
f 938 940 941
f 938 941 927
f 941 940 888
f 941 888 886
f 942 941 886
f 942 886 872
f 927 941 942
f 927 942 926
f 942 872 870
f 942 870 931
f 926 942 931
f 926 931 934