# https://github.com/mikedh/trimesh
v -0.09256471 -0.26526202 0.62352020
v -0.02683826 -0.28946885 0.62540756
v -0.04229868 -0.20629564 0.63057798
v 0.00500584 0.04492748 0.01245603
v 0.04217800 0.07675160 0.01042534
v 0.06722125 0.02863468 0.02103977
v -0.29721213 0.09533692 0.37148308
v -0.27220772 0.08941924 0.29709018
v -0.29410031 -0.00933969 0.29634330
v -0.31385235 -0.01060365 0.37044308
v -0.27689334 -0.11341391 0.30086593
v -0.29593627 -0.11199831 0.37068227
v -0.22172347 -0.18279769 0.30091436
v -0.24947096 -0.18260043 0.37628579
v -0.02165081 -0.38685054 0.42267621
v 0.00363153 -0.38628259 0.35036587
v 0.08446825 -0.39816521 0.36558302
v 0.06312841 -0.40010872 0.44956358
v 0.15734102 -0.39099684 0.38176618
v 0.14156646 -0.39236609 0.45174752
v 0.25890258 -0.33982816 0.38945968
v 0.24394762 -0.33642271 0.45357113
v 0.31594729 -0.27297132 0.39458798
v 0.29966158 -0.27439025 0.46435077
v 0.39929375 -0.15162811 0.47551238
v 0.41153333 -0.15570040 0.40432476
v 0.46061378 -0.07250932 0.41305878
v 0.44747826 -0.06837477 0.48299302
v 0.48033849 0.00131260 0.41487852
v 0.46607732 0.00567196 0.48483603
v 0.47853152 0.08151678 0.41429393
v 0.46473786 0.08436471 0.48037696
v 0.43042918 0.15949458 0.42049481
v 0.41241385 0.16881111 0.48107310
v 0.34941717 0.23197801 0.48229065
v 0.36466969 0.22142322 0.41132692
v 0.33334030 0.28769796 0.39862272
v 0.31716185 0.29666683 0.47319292
v 0.26889698 0.36178873 0.37957493
v 0.24982201 0.37279327 0.44843865
v 0.17307327 0.40558654 0.36298971
v 0.15102089 0.41568722 0.43172662
v 0.05749013 0.41877643 0.41592505
v 0.08113924 0.41138166 0.34563585
v -0.03201029 0.38305102 0.32585995
v -0.04805437 0.39264175 0.39772976
v -0.12060595 0.32063299 0.31107430
v -0.14421361 0.33128470 0.37712021
v -0.17686924 0.24131499 0.31645832
v -0.19916619 0.24898340 0.38210799
v -0.23110767 0.16189217 0.30085876
v -0.25792922 0.17072589 0.37785495
v -0.13078083 -0.29222352 0.32108231
v -0.15130999 -0.29172458 0.38886819
v -0.19630521 -0.23794256 0.38550118
v -0.16724443 -0.23473681 0.30524436
v -0.07119159 -0.35056043 0.33214684
v -0.09176494 -0.35119375 0.40745293
v 0.35679969 -0.20389034 0.39591776
v 0.34345735 -0.20718729 0.46388454
v 0.28629116 0.34175001 0.31390300
v 0.19646058 0.39012442 0.29773833
v 0.34098879 0.26692147 0.33012784
v 0.36945087 0.20535106 0.33986039
v 0.43407883 0.15640753 0.34740050
v 0.48413324 0.08071936 0.33817617
v 0.48791972 -0.00886123 0.34516620
v 0.47056343 -0.07611756 0.34077919
v 0.42408055 -0.15154476 0.33521452
v 0.36721455 -0.19819355 0.32893911
v 0.33133433 -0.26214865 0.32219516
v 0.26905412 -0.33657842 0.32192189
v 0.17716363 -0.38422854 0.31233839
v 0.10733022 -0.38982140 0.29592318
v 0.02714571 -0.37765805 0.28042839
v -0.05110592 -0.34779742 0.26805558
v -0.10834117 -0.28966269 0.25094213
v -0.14778131 -0.22388366 0.24712271
v -0.19581463 -0.17249708 0.22847062
v -0.26934454 -0.01310213 0.21384830
v -0.25708524 -0.11094061 0.22712009
v -0.24994752 0.07687695 0.21951537
v -0.20404542 0.15376823 0.23228932
v -0.14760749 0.22551864 0.24200204
v -0.10240427 0.30370860 0.24189229
v -0.01587570 0.37005276 0.25435246
v 0.10141231 0.39968564 0.28438570
v 0.29714059 0.32077622 0.25098005
v 0.21481584 0.36974196 0.22289338
v 0.33731417 0.25157287 0.26234903
v 0.36625772 0.18980129 0.27328638
v 0.42689306 0.14975986 0.28048342
v 0.48217716 0.07821378 0.29570190
v 0.48759850 -0.00908481 0.28168749
v 0.47170223 -0.07507103 0.27744460
v 0.42762134 -0.14660756 0.27101931
v 0.36827821 -0.19221752 0.26780846
v 0.33680750 -0.25242113 0.26518100
v 0.27859545 -0.32949622 0.25908692
v 0.19714084 -0.37190972 0.25102073
v 0.13573215 -0.37708219 0.23678658
v 0.04648896 -0.36873608 0.22304740
v -0.02848694 -0.34125087 0.20714567
v -0.08272220 -0.28039445 0.18435112
v -0.10533742 -0.20154389 0.17265725
v -0.17081751 -0.16016999 0.16472171
v -0.24790012 -0.02023200 0.15338545
v -0.22653068 -0.11256451 0.15952491
v -0.22927840 0.06327653 0.15404491
v -0.17636783 0.14062615 0.16585937
v -0.11681753 0.20812163 0.18474481
v -0.07699740 0.29221673 0.17862235
v 0.00096597 0.35758855 0.17597708
v 0.11880876 0.38102040 0.20241350
v 0.29706301 0.29711937 0.17817802
v 0.21784446 0.34717513 0.15380918
v 0.33116519 0.23146106 0.19182298
v 0.35242840 0.16827315 0.21193652
v 0.40829527 0.13021052 0.19893481
v 0.46760088 0.06262527 0.20858695
v 0.47622575 -0.01281502 0.21151545
v 0.46541986 -0.07477744 0.20673984
v 0.42455267 -0.13866852 0.20106436
v 0.35905127 -0.18169778 0.21350689
v 0.33476273 -0.23439664 0.20106414
v 0.28600059 -0.31031724 0.19344080
v 0.22227914 -0.34421636 0.18746548
v 0.15430026 -0.35321470 0.16260473
v 0.06253469 -0.34464169 0.14940156
v 0.00343250 -0.31298928 0.13557326
v -0.04404743 -0.25767827 0.11527424
v -0.08644917 -0.18567162 0.11551807
v -0.13312422 -0.14410575 0.09486253
v -0.20770550 -0.02576047 0.08767097
v -0.17671216 -0.09754463 0.08424765
v -0.19580821 0.05607022 0.08985897
v -0.16083591 0.12193065 0.10139899
v -0.08402499 0.18058942 0.12937689
v -0.04263806 0.27383326 0.10584360
v 0.02553322 0.32977536 0.10888191
v 0.13534505 0.35516041 0.12971251
v 0.28291534 0.26640666 0.09904478
v 0.21892174 0.30137231 0.07762027
v 0.31198159 0.20390023 0.11824454
v 0.32199522 0.13950386 0.15092903
v 0.43889680 0.04919235 0.13719947
v 0.37467449 0.10834374 0.12943628
v 0.44982838 -0.00861535 0.14083682
v 0.44706791 -0.05811870 0.14666951
v 0.40936011 -0.12385761 0.14257702
v 0.34123579 -0.15740353 0.14807647
v 0.31057340 -0.21087685 0.12435777
v 0.27428491 -0.26327432 0.09746355
v 0.22080190 -0.30007845 0.09484570
v 0.16604066 -0.30401337 0.08202156
v 0.09178408 -0.29234248 0.06719896
v 0.03315322 -0.26841603 0.06045503
v -0.01220745 -0.22581702 0.05609729
v -0.02654448 -0.13336880 0.06023791
v -0.07814322 -0.10726976 0.04396116
v -0.14413472 -0.01868114 0.03266979
v -0.12639899 -0.07431343 0.03252800
v -0.14292350 0.04092881 0.03162725
v -0.09898658 0.10192480 0.05924752
v -0.04493158 0.14637745 0.07276932
v -0.00185683 0.22904953 0.04059910
v 0.06256365 0.26736779 0.03070249
v 0.12495425 0.30664795 0.05917815
v 0.30430628 0.29601766 0.53678165
v 0.33957865 0.23356322 0.54626446
v 0.23965003 0.37592548 0.51218345
v 0.13914905 0.41932343 0.49502512
v 0.04427074 0.42159989 0.47899814
v -0.06332126 0.39772059 0.45988071
v -0.16293197 0.33657492 0.43796019
v -0.22111267 0.25468209 0.44175495
v -0.27541275 0.17302038 0.43955236
v -0.31659014 0.09697828 0.43281383
v -0.32794016 -0.01132244 0.43369868
v -0.30999927 -0.11080361 0.43496271
v -0.26641423 -0.18491440 0.44658655
v -0.20836692 -0.23784647 0.44940243
v -0.16473205 -0.29287545 0.45229446
v -0.10345410 -0.35000342 0.47141333
v -0.03363939 -0.38421674 0.48658798
v 0.05052237 -0.39075938 0.51344568
v 0.13696618 -0.38465492 0.51476658
v 0.22666980 -0.33266043 0.52210369
v 0.28217173 -0.27187140 0.52672238
v 0.32676503 -0.20512956 0.52777550
v 0.38113096 -0.14907156 0.53793420
v 0.43341660 -0.05930837 0.55120548
v 0.45058183 0.01444428 0.54618819
v 0.44755271 0.08603719 0.54497167
v 0.40663224 0.16669934 0.54144131
v 0.31741281 0.23425517 0.60417196
v 0.38602209 0.16794179 0.61273042
v 0.28064867 0.29038929 0.60509320
v 0.21819775 0.37361979 0.57933316
v 0.12470300 0.40912715 0.56088616
v 0.02968392 0.40511862 0.54583544
v -0.05986716 0.39227593 0.53440627
v -0.16230612 0.34303710 0.51107429
v -0.22242676 0.26361451 0.51405557
v -0.27016990 0.17353753 0.50235133
v -0.32795803 -0.00606041 0.50604014
v -0.32201090 0.09276857 0.50242604
v -0.31144428 -0.10359336 0.50035663
v -0.26697676 -0.17561493 0.50714522
v -0.20379428 -0.22181782 0.52286043
v -0.16686923 -0.28310493 0.52424813
v -0.10292577 -0.33620754 0.54380884
v -0.03304468 -0.36504691 0.55845536
v 0.04765368 -0.36947172 0.57002079
v 0.12974564 -0.36447506 0.57778944
v 0.21822702 -0.31543914 0.58727085
v 0.27081388 -0.25556205 0.59381510
v 0.31229085 -0.18505867 0.59385732
v 0.36459132 -0.12888403 0.60443710
v 0.40911467 -0.05365009 0.61534637
v 0.42441418 0.01854457 0.61529685
v 0.42300076 0.08515334 0.61429640
v -0.20968110 0.26241611 0.55191148
v -0.15158577 0.32602109 0.56522254
v -0.24644212 0.17767968 0.53688598
v -0.30109596 0.09207002 0.55047337
v -0.30805875 -0.00197299 0.55347158
v -0.29309229 -0.08652719 0.54935999
v -0.26027056 -0.14967917 0.54913778
v -0.19423287 -0.18102187 0.55785734
v -0.16545859 -0.25001717 0.56109461
v -0.09898706 -0.31164943 0.58765217
v -0.02910382 -0.33780412 0.59649919
v 0.04157436 -0.33562526 0.60931023
v 0.12502272 -0.32436929 0.63710650
v 0.25516685 -0.22725879 0.64212642
v 0.20220991 -0.28795954 0.64120825
v 0.29469201 -0.16772973 0.63803560
v 0.34419987 -0.10480286 0.65306317
v 0.38214145 -0.03880252 0.65874660
v 0.38974809 0.02564611 0.66730507
v 0.38227281 0.09579210 0.67161667
v 0.34556482 0.16708765 0.66854743
v 0.28974084 0.22778507 0.64380817
v 0.25391599 0.28242988 0.64099852
v 0.19623817 0.36540906 0.61410520
v 0.11231560 0.38337985 0.60538147
v 0.02607118 0.37688288 0.58040368
v -0.05499943 0.37002145 0.56924693
v 0.25132356 0.05895526 0.70625979
v 0.30959106 0.04725401 0.70754169
v 0.31598870 0.09550969 0.71006022
v 0.25302837 0.10911470 0.71232462
v 0.26976064 -0.13219127 0.67772712
v 0.31176248 -0.06466756 0.69412924
v 0.30775914 -0.01596152 0.70052775
v 0.24493468 -0.05907662 0.69782954
v 0.12602859 -0.11017448 0.67057823
v 0.14193419 -0.17347337 0.70118392
v 0.20009681 -0.12737285 0.67930897
v 0.17863560 -0.05432620 0.66126142
v 0.06741270 -0.13857638 0.65375045
v 0.07742750 -0.20852845 0.67444593
v 0.04516719 -0.28235737 0.63413750
v 0.22863613 -0.18832849 0.67631828
v 0.16985959 -0.23397924 0.68833730
v 0.10060436 -0.26484624 0.67231103
v 0.03798997 -0.22592924 0.62131951
v 0.03633871 -0.16390695 0.59264062
v -0.04709899 -0.14880207 0.61508068
v -0.11118249 -0.10436024 0.55805725
v -0.09362678 -0.18695518 0.62594014
v -0.13457026 -0.20546223 0.60887696
v -0.14537242 -0.14415768 0.56607243
v -0.20076640 -0.09608932 0.58357934
v -0.14811311 -0.03556115 0.56608677
v -0.17512552 0.03057427 0.58480424
v -0.24161899 -0.04061302 0.58444072
v -0.26708263 0.01746435 0.58422730
v -0.22287514 0.08625991 0.58990494
v 0.21614283 -0.02058377 0.67344266
v 0.25481194 0.01298008 0.69386143
v 0.16386959 0.31336409 0.66198135
v 0.21282675 0.25628385 0.66826109
v 0.09534034 0.32729074 0.64026960
v 0.02179092 0.28763830 0.59556870
v -0.04966915 0.28958961 0.60446046
v -0.12562031 0.27048195 0.60740698
v -0.17054431 0.21838925 0.59997697
v -0.20594304 0.14314178 0.56549869
v 0.14319445 0.24521540 0.66648092
v 0.14443637 0.17301709 0.63617406
v 0.19950700 0.18379218 0.65197188
v 0.17672164 0.24675007 0.67005513
v 0.24733807 0.20628621 0.66588503
v 0.29898946 0.16689059 0.69349753
v 0.00257237 0.20979811 0.58512404
v -0.06344438 0.23263165 0.60544765
v -0.06258240 0.12271321 0.56051049
v -0.10190438 0.18309945 0.59695237
v -0.14059897 0.13571860 0.57054663
v -0.12106883 0.08094785 0.55700899
v 0.04893740 0.26066220 0.61442490
v 0.05208086 0.19784748 0.60192865
v 0.09933149 0.24500662 0.65031674
v 0.10070731 0.18039998 0.63122062
v 0.23845415 0.14887426 0.69287262
v 0.19422624 0.11040767 0.67718716
v 0.15323325 0.10053055 0.63464832
v 0.19506730 0.04255777 0.66479378
v 0.03528908 -0.09223509 0.56983646
v -0.03608834 -0.09182567 0.59005702
v 0.06045216 -0.09222501 0.60733996
v 0.11305495 -0.06415192 0.63364528
v -0.08421810 -0.06585086 0.55803157
v -0.09588980 0.00769684 0.55470100
v 0.08312559 0.14239320 0.59860560
v 0.00444700 0.13898770 0.57192627
v 0.16423160 0.01001306 0.63126837
v 0.06810998 0.09936403 0.58883825
v 0.11538823 0.07500223 0.60775711
v 0.00767082 0.10125546 0.56658668
v 0.12521656 0.02292528 0.61866125
v -0.04300138 0.06043349 0.55336782
v -0.04351724 -0.00336054 0.55480390
v -0.02395432 -0.04565612 0.56402635
v -0.04764553 0.05345150 0.59030059
v 0.00113375 0.08543516 0.59304846
v -0.04639907 0.00783473 0.59142363
v -0.03019431 -0.02471499 0.58929823
v 0.08708599 0.05898632 0.61172691
v 0.05118581 0.08198499 0.60495174
v 0.00612902 -0.06730185 0.58254772
v 0.00385489 -0.04880664 0.60432416
v 0.09699849 -0.03382881 0.61625485
v 0.04928377 -0.06404709 0.60931459
v 0.03939796 -0.03855334 0.62108991
v 0.07596513 -0.02180496 0.62176975
v 0.08802117 0.02622434 0.62575347
v -0.05736591 0.01067527 0.62101634
v -0.05854538 0.04777065 0.61900292
v -0.04167533 -0.01488766 0.62460721
v -0.01240161 -0.03075094 0.63277193
v 0.01665237 -0.02845191 0.63917878
v 0.04432506 -0.00690029 0.64547919
v 0.05117000 0.02358384 0.64658835
v 0.05017118 0.04382245 0.63728873
v 0.03036073 0.06272383 0.63208535
v -0.01205509 0.07159521 0.62682200
v 0.02479747 0.03850082 0.65940677
v 0.02447722 0.02287950 0.66793168
v 0.00760577 0.05571049 0.65715970
v -0.03138106 0.06575590 0.65601153
v -0.07763152 0.04711671 0.65062916
v -0.07773592 0.01136665 0.65247656
v -0.03063506 -0.02189509 0.66090112
v -0.06043942 -0.01227147 0.65598702
v -0.00613855 -0.01872392 0.66259714
v 0.01831541 -0.00155632 0.66701940
v -0.00214728 0.03834835 0.68604301
v -0.00253305 0.02321502 0.69445872
v -0.01933395 0.05470650 0.68356789
v -0.05036197 0.06415023 0.67502232
v -0.09365024 0.04516579 0.66729573
v -0.09397616 0.01146793 0.66957340
v -0.07830817 -0.01033268 0.67572235
v -0.05692242 -0.01981758 0.68603033
v -0.03302903 -0.01638070 0.68869719
v -0.00916272 -0.00020779 0.69271038
v -0.03973967 0.04019987 0.71998990
v -0.03965594 0.02077652 0.72902492
v -0.05987464 0.05755968 0.71457183
v -0.07809867 0.06412845 0.69913514
v -0.11233572 0.01232598 0.68455963
v -0.10484304 0.04470390 0.67828248
v -0.07885991 -0.01880916 0.71341163
v -0.08938113 -0.01680492 0.70545787
v -0.04970465 -0.00573453 0.72389518
v -0.13398155 0.01211458 0.69953178
v -0.12734434 0.04298096 0.69371536
v -0.11120283 -0.01752242 0.73057925
v -0.11881866 -0.01504651 0.72014279
v -0.09112566 -0.00657415 0.74943163
v -0.08527832 0.01992187 0.75734536
v -0.08182697 0.03926135 0.75055973
v -0.09574526 0.05887418 0.73817206
v -0.10587017 0.06482804 0.71326568
v -0.15964915 0.01347562 0.71208166
v -0.14880060 0.04303556 0.70481277
v -0.12834421 -0.00389453 0.70787762
v -0.15967142 0.00021395 0.72132116
v -0.15314420 -0.01096996 0.73350422
v -0.14701666 -0.01585677 0.74651171
v -0.12898409 -0.00558270 0.76732209
v -0.12446922 0.02118100 0.77389707
v -0.12046450 0.04032013 0.76951058
v -0.12575833 0.05964480 0.75310547
v -0.13474067 0.06459248 0.72742623
v -0.18751664 -0.00112910 0.73203977
v -0.18943463 0.01683464 0.72152024
v -0.18338116 -0.01101716 0.74434440
v -0.17353337 -0.01517801 0.75922966
v -0.16011818 -0.00189918 0.77812564
v -0.15379839 0.02372945 0.78167242
v -0.15003952 0.04169664 0.77787522
v -0.15824964 0.06026913 0.76353462
v -0.17172719 0.06405688 0.74165999
v -0.18143972 0.04385996 0.71759576
v -0.20480206 0.04247916 0.72411523
v -0.20377163 0.06140469 0.74869749
v -0.21201485 0.01738203 0.72680227
v -0.21356769 0.00102471 0.73573643
v -0.21397331 -0.00957780 0.74678022
v -0.21034141 -0.01475364 0.76409113
v -0.20473427 0.00006225 0.78464161
v -0.20056502 0.02361943 0.78925392
v -0.19643771 0.03973186 0.78633481
v -0.19894838 0.05776341 0.77254130
v -0.22915972 0.04115750 0.72823312
v -0.23424376 0.05832714 0.75018251
v -0.23698975 0.01831548 0.72930213
v -0.24070561 0.00282221 0.73626550
v -0.24365595 -0.00844350 0.74538486
v -0.24428474 -0.01454397 0.76253396
v -0.24430857 0.00009237 0.78398626
v -0.24165176 0.02365451 0.79051520
v -0.23688081 0.03975238 0.78732589
v -0.23555596 0.05599777 0.77257864
v -0.26011622 0.03810599 0.72970117
v -0.26810281 0.05202647 0.74582859
v -0.26053413 0.01932256 0.72640659
v -0.26604732 0.00281509 0.73340041
v -0.26737109 -0.00806680 0.74226481
v -0.26822492 -0.01333782 0.75783307
v -0.27048579 0.00099084 0.77960610
v -0.27029180 0.02498396 0.78535155
v -0.26988540 0.04065974 0.78220311
v -0.26948113 0.05344817 0.76528229
v -0.28954777 0.04887160 0.74238593
v -0.29351356 0.04851110 0.76147037
v -0.28488774 0.00414102 0.72649115
v -0.28193123 0.01693726 0.71989204
v -0.28336177 0.03797881 0.72341757
v -0.29220983 0.04570535 0.73453727
v -0.27548448 0.02849630 0.71790653
v -0.29058276 0.03770621 0.71646620
v -0.29947250 0.04535903 0.72768380
v -0.29185237 0.01933779 0.70224172
v -0.30076736 0.04298115 0.70479326
v -0.31050869 0.04849611 0.71695344
v -0.29500589 0.03754642 0.69309328
v -0.31005711 0.05217732 0.69206040
v -0.31928696 0.05448416 0.70575491
v -0.30387382 0.04099052 0.68578394
v -0.31265589 0.04966699 0.69181048
v -0.31846606 0.05205361 0.69999791
v -0.30597491 0.03713651 0.68748541
v -0.32440984 0.05153238 0.70855653
v -0.32490290 0.04656763 0.71760928
v -0.31756181 0.03778596 0.71094592
v -0.31807956 0.04334432 0.70142470
v -0.31102740 0.03755601 0.69598198
v -0.30913589 0.03114489 0.70977635
v -0.29585553 0.02061167 0.70240386
v -0.30065926 0.02896128 0.68674820
v -0.29491607 0.03907395 0.77415740
v -0.29857994 0.02334058 0.77820931
v -0.29985358 -0.00399391 0.77050207
v -0.29481215 -0.01672526 0.74756224
v -0.29352824 -0.01026965 0.73202159
v -0.30479008 0.00062187 0.71765330
v -0.30022750 0.01612244 0.71578006
v -0.31069624 -0.01332795 0.72516187
v -0.31793658 -0.02004338 0.73707022
v -0.32233771 -0.00878990 0.76116030
v -0.32105119 0.01202664 0.77175867
v -0.31726846 0.03216773 0.76863785
v -0.31591709 0.04215146 0.75579654
v -0.31256873 0.04632981 0.73619938
v -0.32295022 -0.00726669 0.71070363
v -0.32036647 0.00566056 0.70519747
v -0.32245161 -0.01459645 0.71866642
v -0.33009715 -0.02199057 0.73277719
v -0.33887468 -0.01338393 0.75185142
v -0.33699915 0.00553216 0.76336037
v -0.33715527 0.02521698 0.76071035
v -0.33285739 0.03672256 0.74724438
v -0.32963653 0.03944573 0.72967792
v -0.34051970 -0.01010620 0.70293569
v -0.33601776 0.00101866 0.69913709
v -0.34113735 -0.01916232 0.71245597
v -0.34532349 -0.02269578 0.72619776
v -0.35519926 -0.01806127 0.73967113
v -0.35794567 -0.00283528 0.74975490
v -0.35644328 0.01720068 0.74889480
v -0.35196903 0.02951550 0.73530395
v -0.34537636 0.03042231 0.72179678
v -0.31314085 0.02370941 0.71004114
v -0.32434999 0.03419068 0.71325109
v -0.33562738 0.02733900 0.70872398
v -0.32519749 0.01655655 0.70230194
v -0.35170737 -0.01249982 0.70278352
v -0.35032659 -0.00472087 0.69802549
v -0.35157878 -0.02017348 0.71034757
v -0.35421600 -0.02278914 0.72078274
v -0.36170146 -0.01921972 0.73062136
v -0.36563029 -0.00482210 0.74306928
v -0.36534434 0.01120590 0.74389108
v -0.36117685 0.02374410 0.73037959
v -0.35375647 0.02411904 0.71686568
v -0.34497711 0.01976573 0.70207576
v -0.33597261 0.01329646 0.69774048
v -0.37381357 -0.00688612 0.70792680
v -0.36963595 0.00052455 0.70371455
v -0.37371346 -0.01198591 0.71098825
v -0.37051701 -0.01711745 0.71530471
v -0.37440583 -0.01580063 0.72431106
v -0.37940583 -0.00840083 0.72691345
v -0.37842529 0.00139912 0.72764390
v -0.37080797 0.01259261 0.72500348
v -0.36388152 0.01325119 0.70978307
v -0.35866821 0.01001007 0.70160054
v -0.35406354 0.00325397 0.69665268
v 0.24243215 -0.21977231 0.04817031
v 0.27239673 -0.18768992 0.06663282
v 0.19998747 -0.23958287 0.03796589
v 0.15254080 -0.24872377 0.03879528
v 0.11056659 -0.24029258 0.03411593
v 0.05990898 -0.21902232 0.02374005
v 0.06851966 -0.15919487 0.01357513
v 0.01469520 -0.10839610 0.04089695
v -0.03869326 -0.08709015 0.03449386
v -0.06620006 -0.04885054 0.01435981
v -0.08323484 -0.01696306 0.01128659
v -0.07697062 0.02849697 0.00483821
v -0.05703534 0.06546283 0.00487700
v -0.00082537 0.10684233 0.02964256
v 0.02980703 0.17596964 0.01213947
v 0.08846316 0.21196382 0.00329563
v 0.13882357 0.25163258 0.02087535
v 0.21374265 0.24351599 0.03272520
v 0.26550870 0.22102764 0.05129560
v 0.28557335 0.17276360 0.06484052
v 0.29809869 0.11277299 0.09711406
v 0.29908579 -0.13324572 0.09409418
v 0.26262984 -0.10341570 0.05996148
v 0.21731165 -0.12599470 0.03197455
v 0.23829559 0.09001610 0.04169529
v 0.28933563 0.07208356 0.07069799
v 0.28538816 0.02022658 0.05112209
v 0.22120395 0.01458063 0.04601357
v 0.11691691 -0.08637168 0.02077522
v 0.03244658 -0.06807494 0.03296512
v 0.11333159 -0.01551041 0.03866901
v 0.05231802 -0.01477565 0.02557069
v 0.10751739 0.06208630 0.01916884
v 0.07723042 0.10630906 0.00891102
v 0.11119929 0.14559556 0.00000000
v 0.15775889 0.17941981 0.00621180
v 0.19900296 0.17782097 0.01102165
v 0.22632319 0.14806419 0.01849479
v 0.17153410 0.09279983 0.01434760
v 0.16212409 0.02799647 0.04086268
v 0.18653193 -0.18125356 0.01979254
v 0.12229001 -0.17863146 0.01619973
v 0.15418207 -0.12125974 0.01654125
v 0.18364689 -0.06034549 0.03492700
v 0.22666865 -0.05705676 0.04629383
v 0.30189568 -0.03959260 0.04702115
v -0.02436694 -0.04485207 0.01802639
v -0.01290017 0.00607214 0.01010748
v 0.36117667 -0.08085174 0.06697596
v 0.39363273 -0.05304959 0.08014987
v 0.35121395 0.07668717 0.08179708
v 0.39134700 0.02263879 0.08007353
v -0.10497670 -0.00663595 0.69528239
f 1 2 3
f 4 5 6
f 7 8 9
f 7 9 10
f 10 9 11
f 10 11 12
f 11 13 14
f 11 14 12
f 15 16 17
f 15 17 18
f 18 17 19
f 18 19 20
f 19 21 22
f 19 22 20
f 21 23 24
f 21 24 22
f 25 26 27
f 25 27 28
f 28 27 29
f 28 29 30
f 30 29 31
f 30 31 32
f 31 33 34
f 31 34 32
f 35 36 37
f 35 37 38
f 38 37 39
f 38 39 40
f 39 41 42
f 39 42 40
f 43 44 45
f 43 45 46
f 46 45 47
f 46 47 48
f 47 49 50
f 47 50 48
f 49 51 52
f 49 52 50
f 52 51 8
f 52 8 7
f 53 54 55
f 53 55 56
f 57 58 54
f 57 54 53
f 58 57 16
f 58 16 15
f 59 60 24
f 59 24 23
f 60 59 26
f 60 26 25
f 34 33 36
f 34 36 35
f 41 39 61
f 41 61 62
f 39 37 63
f 39 63 61
f 37 36 64
f 37 64 63
f 36 33 65
f 36 65 64
f 33 31 66
f 33 66 65
f 31 29 67
f 31 67 66
f 29 27 68
f 29 68 67
f 27 26 69
f 27 69 68
f 26 59 70
f 26 70 69
f 59 23 71
f 59 71 70
f 23 21 72
f 23 72 71
f 21 19 73
f 21 73 72
f 19 17 74
f 19 74 73
f 17 16 75
f 17 75 74
f 16 57 76
f 16 76 75
f 57 53 77
f 57 77 76
f 53 56 78
f 53 78 77
f 56 13 79
f 56 79 78
f 11 9 80
f 11 80 81
f 9 8 82
f 9 82 80
f 8 51 83
f 8 83 82
f 51 49 84
f 51 84 83
f 49 47 85
f 49 85 84
f 47 45 86
f 47 86 85
f 45 44 87
f 45 87 86
f 62 61 88
f 62 88 89
f 61 63 90
f 61 90 88
f 63 64 91
f 63 91 90
f 64 65 92
f 64 92 91
f 65 66 93
f 65 93 92
f 66 67 94
f 66 94 93
f 67 68 95
f 67 95 94
f 68 69 96
f 68 96 95
f 69 70 97
f 69 97 96
f 70 71 98
f 70 98 97
f 71 72 99
f 71 99 98
f 72 73 100
f 72 100 99
f 73 74 101
f 73 101 100
f 74 75 102
f 74 102 101
f 75 76 103
f 75 103 102
f 76 77 104
f 76 104 103
f 77 78 105
f 77 105 104
f 79 106 105
f 79 105 78
f 81 80 107
f 81 107 108
f 80 82 109
f 80 109 107
f 82 83 110
f 82 110 109
f 83 84 111
f 83 111 110
f 84 85 112
f 84 112 111
f 85 86 113
f 85 113 112
f 86 87 114
f 86 114 113
f 89 88 115
f 89 115 116
f 88 90 117
f 88 117 115
f 90 91 118
f 90 118 117
f 91 92 119
f 91 119 118
f 92 93 120
f 92 120 119
f 93 94 121
f 93 121 120
f 94 95 122
f 94 122 121
f 95 96 123
f 95 123 122
f 96 97 124
f 96 124 123
f 97 98 125
f 97 125 124
f 98 99 126
f 98 126 125
f 99 100 127
f 99 127 126
f 100 101 128
f 100 128 127
f 101 102 129
f 101 129 128
f 102 103 130
f 102 130 129
f 103 104 131
f 103 131 130
f 104 105 132
f 104 132 131
f 106 133 132
f 106 132 105
f 108 107 134
f 108 134 135
f 107 109 136
f 107 136 134
f 109 110 137
f 109 137 136
f 110 111 138
f 110 138 137
f 111 112 139
f 111 139 138
f 112 113 140
f 112 140 139
f 113 114 141
f 113 141 140
f 116 115 142
f 116 142 143
f 115 117 144
f 115 144 142
f 117 118 145
f 117 145 144
f 119 120 146
f 119 146 147
f 120 121 148
f 120 148 146
f 121 122 149
f 121 149 148
f 122 123 150
f 122 150 149
f 123 124 151
f 123 151 150
f 124 125 152
f 124 152 151
f 125 126 153
f 125 153 152
f 126 127 154
f 126 154 153
f 127 128 155
f 127 155 154
f 128 129 156
f 128 156 155
f 129 130 157
f 129 157 156
f 130 131 158
f 130 158 157
f 131 132 159
f 131 159 158
f 132 133 160
f 132 160 159
f 134 161 162
f 134 162 135
f 134 136 163
f 134 163 161
f 136 137 164
f 136 164 163
f 137 138 165
f 137 165 164
f 138 139 166
f 138 166 165
f 139 140 167
f 139 167 166
f 140 141 168
f 140 168 167
f 44 43 42
f 44 42 41
f 87 44 41
f 87 41 62
f 114 87 62
f 114 62 89
f 141 114 89
f 141 89 116
f 168 141 116
f 168 116 143
f 13 56 55
f 13 55 14
f 13 11 81
f 13 81 79
f 79 81 108
f 79 108 106
f 108 135 133
f 108 133 106
f 133 135 162
f 133 162 160
f 35 38 169
f 35 169 170
f 38 40 171
f 38 171 169
f 40 42 172
f 40 172 171
f 42 43 173
f 42 173 172
f 43 46 174
f 43 174 173
f 46 48 175
f 46 175 174
f 48 50 176
f 48 176 175
f 50 52 177
f 50 177 176
f 52 7 178
f 52 178 177
f 7 10 179
f 7 179 178
f 10 12 180
f 10 180 179
f 12 14 181
f 12 181 180
f 14 55 182
f 14 182 181
f 55 54 183
f 55 183 182
f 54 58 184
f 54 184 183
f 58 15 185
f 58 185 184
f 15 18 186
f 15 186 185
f 18 20 187
f 18 187 186
f 20 22 188
f 20 188 187
f 22 24 189
f 22 189 188
f 24 60 190
f 24 190 189
f 60 25 191
f 60 191 190
f 25 28 192
f 25 192 191
f 28 30 193
f 28 193 192
f 30 32 194
f 30 194 193
f 32 34 195
f 32 195 194
f 34 35 170
f 34 170 195
f 195 170 196
f 195 196 197
f 170 169 198
f 170 198 196
f 169 171 199
f 169 199 198
f 171 172 200
f 171 200 199
f 172 173 201
f 172 201 200
f 173 174 202
f 173 202 201
f 174 175 203
f 174 203 202
f 175 176 204
f 175 204 203
f 176 177 205
f 176 205 204
f 178 179 206
f 178 206 207
f 179 180 208
f 179 208 206
f 180 181 209
f 180 209 208
f 181 182 210
f 181 210 209
f 182 183 211
f 182 211 210
f 183 184 212
f 183 212 211
f 184 185 213
f 184 213 212
f 185 186 214
f 185 214 213
f 186 187 215
f 186 215 214
f 187 188 216
f 187 216 215
f 188 189 217
f 188 217 216
f 189 190 218
f 189 218 217
f 190 191 219
f 190 219 218
f 191 192 220
f 191 220 219
f 192 193 221
f 192 221 220
f 193 194 222
f 193 222 221
f 194 195 197
f 194 197 222
f 203 204 223
f 203 223 224
f 204 205 225
f 204 225 223
f 205 207 226
f 205 226 225
f 207 206 227
f 207 227 226
f 206 208 228
f 206 228 227
f 208 209 229
f 208 229 228
f 209 210 230
f 209 230 229
f 210 211 231
f 210 231 230
f 211 212 232
f 211 232 231
f 212 213 233
f 212 233 232
f 213 214 234
f 213 234 233
f 214 215 235
f 214 235 234
f 216 217 236
f 216 236 237
f 217 218 238
f 217 238 236
f 218 219 239
f 218 239 238
f 219 220 240
f 219 240 239
f 220 221 241
f 220 241 240
f 221 222 242
f 221 242 241
f 222 197 243
f 222 243 242
f 197 196 244
f 197 244 243
f 196 198 245
f 196 245 244
f 198 199 246
f 198 246 245
f 199 200 247
f 199 247 246
f 200 201 248
f 200 248 247
f 201 202 249
f 201 249 248
f 202 203 224
f 202 224 249
f 250 251 252
f 250 252 253
f 254 255 256
f 254 256 257
f 238 239 255
f 238 255 254
f 240 256 255
f 240 255 239
f 241 251 256
f 241 256 240
f 242 252 251
f 242 251 241
f 258 259 260
f 258 260 261
f 262 263 259
f 262 259 258
f 234 264 2
f 234 2 233
f 236 265 266
f 236 266 237
f 234 235 267
f 234 267 264
f 268 3 2
f 268 2 264
f 265 260 259
f 265 259 266
f 267 263 268
f 267 268 264
f 237 266 267
f 237 267 235
f 216 237 235
f 216 235 215
f 263 267 266
f 263 266 259
f 238 254 265
f 238 265 236
f 260 265 254
f 260 254 257
f 3 268 269
f 3 269 270
f 268 263 262
f 268 262 269
f 271 272 3
f 271 3 270
f 273 272 271
f 273 271 274
f 230 231 273
f 230 273 274
f 275 274 271
f 275 271 276
f 277 278 275
f 277 275 276
f 279 278 277
f 279 277 280
f 228 229 275
f 228 275 278
f 229 230 274
f 229 274 275
f 227 228 278
f 227 278 279
f 1 232 233
f 1 233 2
f 231 232 1
f 231 1 273
f 272 273 1
f 272 1 3
f 226 227 279
f 226 279 280
f 281 261 260
f 281 260 257
f 257 256 282
f 257 282 281
f 282 256 251
f 282 251 250
f 245 246 283
f 245 283 284
f 246 247 285
f 246 285 283
f 247 248 286
f 247 286 285
f 248 249 287
f 248 287 286
f 249 224 288
f 249 288 287
f 224 223 289
f 224 289 288
f 223 225 290
f 223 290 289
f 291 292 293
f 291 293 294
f 284 283 291
f 284 291 294
f 243 244 295
f 243 295 296
f 243 296 252
f 243 252 242
f 244 245 284
f 244 284 295
f 294 293 295
f 294 295 284
f 297 286 287
f 297 287 298
f 299 297 298
f 299 298 300
f 301 302 299
f 301 299 300
f 303 286 297
f 303 297 304
f 305 303 304
f 305 304 306
f 291 305 306
f 291 306 292
f 285 286 303
f 285 303 305
f 283 285 305
f 283 305 291
f 288 300 298
f 288 298 287
f 289 301 300
f 289 300 288
f 302 301 280
f 302 280 277
f 301 289 290
f 301 290 280
f 225 226 280
f 225 280 290
f 307 253 252
f 307 252 296
f 307 296 295
f 307 295 293
f 308 293 292
f 308 292 309
f 307 293 308
f 307 308 253
f 308 310 250
f 308 250 253
f 270 269 311
f 270 311 312
f 269 262 313
f 269 313 311
f 262 258 314
f 262 314 313
f 315 271 270
f 315 270 312
f 277 276 316
f 277 316 302
f 315 316 276
f 315 276 271
f 310 281 282
f 310 282 250
f 292 306 317
f 292 317 309
f 297 299 318
f 297 318 304
f 317 306 304
f 317 304 318
f 281 310 319
f 281 319 261
f 310 308 309
f 310 309 319
f 309 317 320
f 309 320 321
f 317 318 322
f 317 322 320
f 323 319 309
f 323 309 321
f 324 316 315
f 324 315 325
f 325 315 312
f 325 312 326
f 302 316 324
f 302 324 299
f 322 318 299
f 322 299 324
f 327 328 322
f 327 322 324
f 329 325 326
f 329 326 330
f 331 321 320
f 331 320 332
f 320 322 328
f 320 328 332
f 327 324 325
f 327 325 329
f 326 333 334
f 326 334 330
f 314 258 261
f 314 261 319
f 312 311 333
f 312 333 326
f 335 336 313
f 335 313 314
f 337 336 335
f 337 335 338
f 337 334 333
f 337 333 336
f 311 313 336
f 311 336 333
f 319 323 335
f 319 335 314
f 339 338 335
f 339 335 323
f 331 339 323
f 331 323 321
f 327 329 340
f 327 340 341
f 329 330 342
f 329 342 340
f 330 334 343
f 330 343 342
f 334 337 344
f 334 344 343
f 337 338 345
f 337 345 344
f 338 339 346
f 338 346 345
f 339 331 347
f 339 347 346
f 331 332 348
f 331 348 347
f 332 328 349
f 332 349 348
f 328 327 341
f 328 341 349
f 346 347 350
f 346 350 351
f 347 348 352
f 347 352 350
f 348 349 353
f 348 353 352
f 349 341 354
f 349 354 353
f 341 340 355
f 341 355 354
f 342 343 356
f 342 356 357
f 343 344 358
f 343 358 356
f 344 345 359
f 344 359 358
f 345 346 351
f 345 351 359
f 351 350 360
f 351 360 361
f 350 352 362
f 350 362 360
f 352 353 363
f 352 363 362
f 353 354 364
f 353 364 363
f 354 355 365
f 354 365 364
f 355 357 366
f 355 366 365
f 357 356 367
f 357 367 366
f 356 358 368
f 356 368 367
f 358 359 369
f 358 369 368
f 359 351 361
f 359 361 369
f 361 360 370
f 361 370 371
f 360 362 372
f 360 372 370
f 362 363 373
f 362 373 372
f 364 365 374
f 364 374 375
f 367 368 376
f 367 376 377
f 368 369 378
f 368 378 376
f 369 361 371
f 369 371 378
f 375 374 379
f 375 379 380
f 377 376 381
f 377 381 382
f 376 378 383
f 376 383 381
f 378 371 384
f 378 384 383
f 371 370 385
f 371 385 384
f 370 372 386
f 370 386 385
f 372 373 387
f 372 387 386
f 380 379 388
f 380 388 389
f 379 390 391
f 379 391 388
f 390 382 392
f 390 392 391
f 382 381 393
f 382 393 392
f 381 383 394
f 381 394 393
f 383 384 395
f 383 395 394
f 384 385 396
f 384 396 395
f 385 386 397
f 385 397 396
f 386 387 398
f 386 398 397
f 388 391 399
f 388 399 400
f 391 392 401
f 391 401 399
f 392 393 402
f 392 402 401
f 393 394 403
f 393 403 402
f 394 395 404
f 394 404 403
f 395 396 405
f 395 405 404
f 396 397 406
f 396 406 405
f 397 398 407
f 397 407 406
f 407 408 409
f 407 409 410
f 408 400 411
f 408 411 409
f 400 399 412
f 400 412 411
f 399 401 413
f 399 413 412
f 401 402 414
f 401 414 413
f 402 403 415
f 402 415 414
f 403 404 416
f 403 416 415
f 404 405 417
f 404 417 416
f 405 406 418
f 405 418 417
f 406 407 410
f 406 410 418
f 410 409 419
f 410 419 420
f 409 411 421
f 409 421 419
f 411 412 422
f 411 422 421
f 412 413 423
f 412 423 422
f 413 414 424
f 413 424 423
f 414 415 425
f 414 425 424
f 415 416 426
f 415 426 425
f 416 417 427
f 416 427 426
f 417 418 428
f 417 428 427
f 418 410 420
f 418 420 428
f 420 419 429
f 420 429 430
f 419 421 431
f 419 431 429
f 421 422 432
f 421 432 431
f 422 423 433
f 422 433 432
f 423 424 434
f 423 434 433
f 424 425 435
f 424 435 434
f 425 426 436
f 425 436 435
f 426 427 437
f 426 437 436
f 427 428 438
f 427 438 437
f 428 420 430
f 428 430 438
f 439 440 438
f 439 438 430
f 441 442 431
f 441 431 432
f 430 429 443
f 430 443 444
f 429 431 445
f 429 445 443
f 444 443 446
f 444 446 447
f 443 445 448
f 443 448 446
f 447 446 449
f 447 449 450
f 446 448 451
f 446 451 449
f 452 453 450
f 452 450 449
f 449 451 454
f 449 454 452
f 455 456 453
f 455 453 452
f 452 454 457
f 452 457 455
f 458 459 450
f 458 450 453
f 460 459 458
f 460 458 461
f 462 463 460
f 462 460 461
f 464 463 462
f 464 462 465
f 464 465 451
f 464 451 448
f 458 453 456
f 458 456 461
f 465 457 454
f 465 454 451
f 462 455 457
f 462 457 465
f 461 456 455
f 461 455 462
f 466 437 438
f 466 438 440
f 467 436 437
f 467 437 466
f 468 435 436
f 468 436 467
f 469 434 435
f 469 435 468
f 470 433 434
f 470 434 469
f 433 470 441
f 433 441 432
f 442 441 471
f 442 471 472
f 441 470 473
f 441 473 471
f 470 469 474
f 470 474 473
f 469 468 475
f 469 475 474
f 468 467 476
f 468 476 475
f 467 466 477
f 467 477 476
f 466 440 478
f 466 478 477
f 440 439 479
f 440 479 478
f 472 471 480
f 472 480 481
f 471 473 482
f 471 482 480
f 473 474 483
f 473 483 482
f 474 475 484
f 474 484 483
f 475 476 485
f 475 485 484
f 476 477 486
f 476 486 485
f 477 478 487
f 477 487 486
f 478 479 488
f 478 488 487
f 481 480 489
f 481 489 490
f 480 482 491
f 480 491 489
f 482 483 492
f 482 492 491
f 483 484 493
f 483 493 492
f 484 485 494
f 484 494 493
f 485 486 495
f 485 495 494
f 486 487 496
f 486 496 495
f 487 488 497
f 487 497 496
f 444 479 439
f 444 439 430
f 442 448 445
f 442 445 431
f 464 448 442
f 464 442 472
f 447 450 479
f 447 479 444
f 459 488 479
f 459 479 450
f 498 463 464
f 498 464 472
f 459 460 499
f 459 499 488
f 460 463 498
f 460 498 499
f 500 497 488
f 500 488 499
f 499 498 501
f 499 501 500
f 481 501 498
f 481 498 472
f 490 489 502
f 490 502 503
f 489 491 504
f 489 504 502
f 491 492 505
f 491 505 504
f 492 493 506
f 492 506 505
f 493 494 507
f 493 507 506
f 494 495 508
f 494 508 507
f 495 496 509
f 495 509 508
f 496 497 510
f 496 510 509
f 497 500 511
f 497 511 510
f 500 501 512
f 500 512 511
f 481 490 512
f 481 512 501
f 503 502 513
f 503 513 514
f 502 504 515
f 502 515 513
f 504 505 516
f 504 516 515
f 505 506 517
f 505 517 516
f 506 507 518
f 506 518 517
f 507 508 519
f 507 519 518
f 508 509 520
f 508 520 519
f 509 510 521
f 509 521 520
f 510 511 522
f 510 522 521
f 511 512 523
f 511 523 522
f 490 503 523
f 490 523 512
f 514 522 523
f 514 523 503
f 514 520 521
f 514 521 522
f 514 513 519
f 514 519 520
f 513 515 518
f 513 518 519
f 515 516 517
f 515 517 518
f 152 153 524
f 152 524 525
f 153 154 526
f 153 526 524
f 154 155 527
f 154 527 526
f 155 156 528
f 155 528 527
f 156 157 529
f 156 529 528
f 157 158 530
f 157 530 529
f 158 159 531
f 158 531 530
f 159 160 532
f 159 532 531
f 160 162 533
f 160 533 532
f 162 161 534
f 162 534 533
f 161 163 535
f 161 535 534
f 163 164 536
f 163 536 535
f 164 165 537
f 164 537 536
f 165 166 538
f 165 538 537
f 166 167 539
f 166 539 538
f 167 168 540
f 167 540 539
f 168 143 541
f 168 541 540
f 143 142 542
f 143 542 541
f 142 144 543
f 142 543 542
f 144 145 544
f 144 544 543
f 118 119 147
f 118 147 145
f 545 151 152
f 545 152 525
f 546 545 525
f 546 525 547
f 548 549 550
f 548 550 551
f 544 549 548
f 544 548 543
f 552 530 531
f 552 531 553
f 554 552 553
f 554 553 555
f 6 556 554
f 6 554 555
f 5 557 556
f 5 556 6
f 537 538 557
f 537 557 5
f 538 539 558
f 538 558 557
f 539 540 559
f 539 559 558
f 540 541 560
f 540 560 559
f 541 542 561
f 541 561 560
f 543 548 561
f 543 561 542
f 562 548 551
f 562 551 563
f 562 560 561
f 562 561 548
f 559 560 562
f 559 562 558
f 557 558 562
f 557 562 556
f 556 562 563
f 556 563 554
f 564 524 526
f 564 526 527
f 524 564 547
f 524 547 525
f 565 528 529
f 565 529 530
f 527 528 565
f 527 565 564
f 564 565 566
f 564 566 547
f 552 566 565
f 552 565 530
f 567 552 554
f 567 554 563
f 566 552 567
f 566 567 547
f 568 546 547
f 568 547 567
f 567 563 551
f 567 551 568
f 551 550 569
f 551 569 568
f 546 568 569
f 546 569 545
f 4 536 537
f 4 537 5
f 570 534 535
f 570 535 571
f 535 536 4
f 535 4 571
f 533 534 570
f 533 570 532
f 532 570 553
f 532 553 531
f 570 571 555
f 570 555 553
f 571 4 6
f 571 6 555
f 572 151 545
f 572 545 569
f 573 148 149
f 573 149 150
f 150 151 572
f 150 572 573
f 574 544 145
f 574 145 147
f 147 146 575
f 147 575 574
f 148 573 575
f 148 575 146
f 573 572 569
f 573 569 575
f 575 569 550
f 575 550 574
f 574 550 549
f 574 549 544
f 207 205 177
f 207 177 178
f 408 389 388
f 408 388 400
f 357 355 340
f 357 340 342
f 364 375 373
f 364 373 363
f 387 373 375
f 387 375 380
f 398 387 380
f 398 380 389
f 389 408 407
f 389 407 398
f 379 374 576
f 379 576 390
f 365 366 576
f 365 576 374
f 366 367 377
f 366 377 576
f 382 390 576
f 382 576 377