# https://github.com/mikedh/trimesh
v -0.01142206 -0.03558865 0.04302831
v 0.01060073 -0.03558865 0.04302831
v 0.01060073 -0.03558865 0.04467026
v -0.01142206 -0.03558865 0.04467026
v 0.01060073 -0.02067930 0.04467026
v -0.01142206 -0.02067930 0.04467026
v 0.01060073 -0.02067930 0.04302831
v -0.01142206 -0.02067930 0.04302831
v -0.02685624 0.03858435 0.00000000
v -0.01988527 0.03858435 0.00000000
v -0.01988527 -0.03047439 0.00000000
v -0.02685624 -0.03047439 0.00000000
v -0.02066672 -0.03048038 0.01156090
v -0.02790763 -0.03047439 0.01068357
v -0.03513784 -0.03047439 0.08415195
v -0.02604057 -0.03052162 0.09106252
v -0.02604057 0.03868785 0.09106252
v -0.03513784 0.03858435 0.08415195
v -0.02790763 0.03858435 0.01068357
v -0.02066672 0.03859749 0.01156090
v 0.02744537 0.03858435 0.00000000
v 0.02849677 0.03858435 0.01068357
v 0.02849677 -0.03047439 0.01068357
v 0.02744537 -0.03047439 0.00000000
v -0.00005374 -0.03065657 0.11080292
v 0.01233933 -0.03059346 0.10157204
v 0.01233933 0.03884527 0.10157204
v -0.00005374 0.03898353 0.11080292
v 0.00002767 0.03858435 0.00000000
v 0.00001734 0.03863503 0.01406706
v 0.00988153 0.03861747 0.01289514
v 0.00952412 0.03858435 0.00000000
v 0.00002767 -0.03047439 0.00000000
v 0.00952412 -0.03047439 0.00000000
v 0.00001734 -0.03049751 0.01406706
v 0.00988153 -0.03048951 0.01289514
v -0.03397670 0.03858435 0.07235325
v -0.03397670 -0.03047439 0.07235325
v -0.02517755 0.03867334 0.07829491
v 0.01194462 0.03880868 0.08733092
v -0.00004232 0.03892755 0.09526756
v 0.03456582 -0.03047439 0.07235325
v 0.03456582 0.03858435 0.07235325
v 0.03572696 0.03858435 0.08415195
v 0.03572696 -0.03047439 0.08415195
v -0.00004232 -0.03063103 0.09526756
v 0.01194462 -0.03057677 0.08733092
v -0.02517755 -0.03051500 0.07829491
v -0.03267338 0.03858435 0.05910978
v -0.03267338 -0.03047439 0.05910978
v -0.02420886 0.03865705 0.06396388
v 0.01150157 0.03876762 0.07134595
v -0.00002951 0.03886473 0.07782989
v 0.03326250 -0.03047439 0.05910978
v 0.03326250 0.03858435 0.05910978
v -0.00002951 -0.03060235 0.07782989
v 0.01150157 -0.03055802 0.07134595
v -0.02420886 -0.03050757 0.06396388
v -0.03156783 0.03858435 0.04787599
v -0.03156783 -0.03047439 0.04787599
v -0.02338716 0.03864323 0.05180757
v 0.01112576 0.03873279 0.05778668
v -0.00001864 0.03881145 0.06303835
v 0.03215696 -0.03047439 0.04787599
v 0.03215696 0.03858435 0.04787599
v -0.02338716 -0.03050126 0.05180757
v -0.03036648 0.03858435 0.03566863
v -0.03036648 -0.03047439 0.03566863
v -0.02249425 0.03862822 0.03859774
v 0.01071738 0.03869494 0.04305230
v -0.00000683 0.03875354 0.04301703
v 0.03095561 -0.03047439 0.03566863
v 0.03095561 0.03858435 0.03566863
v -0.02249425 -0.03049440 0.03859774
v -0.02910688 0.03858435 0.02286946
v -0.02910688 -0.03047439 0.02286946
v -0.02155806 0.03861248 0.02474751
v 0.01028920 0.03865525 0.02760361
v 0.00000555 0.03869283 0.03011223
v 0.02969601 -0.03047439 0.02286946
v 0.02969601 0.03858435 0.02286946
v -0.00000683 -0.03055161 0.04301703
v 0.00000555 -0.03052389 0.03011223
v 0.01028920 -0.03050674 0.02760361
v 0.01071738 -0.03052485 0.04305230
v -0.02155806 -0.03048722 0.02474751
v -0.01308364 -0.03058891 0.10090500
v -0.01308364 0.03883527 0.10090500
v -0.01264523 0.03880009 0.08675740
v -0.01215313 0.03876060 0.07087741
v -0.01173571 0.03872710 0.05740719
v -0.01128212 0.03869071 0.04276957
v -0.01080653 0.03865254 0.02742234
v -0.01035373 0.03861621 0.01281046
v -0.00995676 0.03858435 0.00000000
v -0.00995676 -0.03047439 0.00000000
v -0.01035373 -0.03048892 0.01281046
v -0.01080653 -0.03050550 0.02742234
v -0.01128212 -0.03052292 0.04276957
v -0.01264523 -0.03057285 0.08675740
v -0.01215313 -0.03055483 0.07087741
v 0.02629664 -0.03052240 0.09117605
v 0.02629664 0.03868956 0.09117605
v 0.02544453 0.03867480 0.07839252
v 0.02448809 0.03865825 0.06404363
v 0.02367678 0.03864420 0.05187217
v 0.02279517 0.03862894 0.03864587
v 0.02187082 0.03861294 0.02477836
v 0.02099076 0.03859770 0.01157532
v 0.02021919 0.03858435 0.00000000
v 0.02021919 -0.03047439 0.00000000
v 0.02099076 -0.03048049 0.01157532
v 0.02187082 -0.03048744 0.02477836
v 0.02279517 -0.03049474 0.03864587
v 0.01112576 -0.03054213 0.05778668
v 0.02367678 -0.03050170 0.05187217
v 0.02448809 -0.03050811 0.06404363
v 0.02544453 -0.03051567 0.07839252
v -0.01173571 -0.03053954 0.05740719
v -0.01215222 -0.02023597 0.07089144
v -0.00002860 -0.02028350 0.07784391
v -0.01173480 -0.02022069 0.05742121
v -0.01128121 -0.02020407 0.04278359
v 0.01112667 -0.02022328 0.05780071
v 0.01071829 -0.02020600 0.04306632
v 0.01150249 -0.02023917 0.07135998
v 0.04111168 -0.03291998 0.08024868
v 0.04111168 0.04663372 0.08024868
v 0.04307359 0.04663372 0.08288460
v 0.04307359 -0.03291998 0.08288460
v -0.04250927 -0.03291998 0.08286596
v -0.03202947 -0.03297440 0.09082092
v -0.03202947 0.04675296 0.09082092
v -0.04250927 0.04663372 0.08286596
v -0.00011907 -0.03312986 0.11479244
v 0.01613171 -0.03305716 0.10293739
v 0.01613171 0.04693429 0.10293739
v -0.00011907 0.04709356 0.11479244
v -0.01710346 -0.03305192 0.10204742
v -0.01710346 0.04692278 0.10204742
v 0.03221012 -0.03297529 0.09097025
v 0.03221012 0.04675492 0.09097025
v -0.04052256 -0.03291998 0.08024868
v -0.04052256 0.04663372 0.08024868
v -0.03004276 0.04675296 0.08820364
v -0.03004276 -0.03297440 0.08820364
v -0.00010667 -0.03286422 0.11092741
v -0.00010667 0.04735919 0.11092741
v 0.01416980 0.04719992 0.10030147
v 0.01416980 -0.03279152 0.10030147
v -0.01511675 -0.03305192 0.09953361
v -0.01511675 0.04692278 0.09953361
v 0.03024821 0.04675492 0.08833433
v 0.03024821 -0.03297529 0.08833433
f 1 2 3
f 1 3 4
f 4 3 5
f 4 5 6
f 6 5 7
f 6 7 8
f 8 7 2
f 8 2 1
f 2 7 5
f 2 5 3
f 8 1 4
f 8 4 6
f 9 10 11
f 9 11 12
f 12 11 13
f 12 13 14
f 15 16 17
f 15 17 18
f 19 20 10
f 19 10 9
f 21 22 23
f 21 23 24
f 19 9 12
f 19 12 14
f 25 26 27
f 25 27 28
f 29 30 31
f 29 31 32
f 33 29 32
f 33 32 34
f 35 33 34
f 35 34 36
f 18 37 38
f 18 38 15
f 18 17 39
f 18 39 37
f 40 41 28
f 40 28 27
f 42 43 44
f 42 44 45
f 25 46 47
f 25 47 26
f 38 48 16
f 38 16 15
f 37 49 50
f 37 50 38
f 37 39 51
f 37 51 49
f 52 53 41
f 52 41 40
f 54 55 43
f 54 43 42
f 46 56 57
f 46 57 47
f 50 58 48
f 50 48 38
f 49 59 60
f 49 60 50
f 49 51 61
f 49 61 59
f 62 63 53
f 62 53 52
f 64 65 55
f 64 55 54
f 60 66 58
f 60 58 50
f 59 67 68
f 59 68 60
f 59 61 69
f 59 69 67
f 70 71 63
f 70 63 62
f 72 73 65
f 72 65 64
f 68 74 66
f 68 66 60
f 67 75 76
f 67 76 68
f 67 69 77
f 67 77 75
f 78 79 71
f 78 71 70
f 80 81 73
f 80 73 72
f 82 83 84
f 82 84 85
f 76 86 74
f 76 74 68
f 75 19 14
f 75 14 76
f 75 77 20
f 75 20 19
f 31 30 79
f 31 79 78
f 23 22 81
f 23 81 80
f 83 35 36
f 83 36 84
f 14 13 86
f 14 86 76
f 87 25 28
f 87 28 88
f 89 88 28
f 89 28 41
f 90 89 41
f 90 41 53
f 91 90 53
f 91 53 63
f 92 91 63
f 92 63 71
f 93 92 71
f 93 71 79
f 94 93 79
f 94 79 30
f 95 94 30
f 95 30 29
f 96 95 29
f 96 29 33
f 97 96 33
f 97 33 35
f 98 97 35
f 98 35 83
f 99 98 83
f 99 83 82
f 100 101 56
f 100 56 46
f 87 100 46
f 87 46 25
f 26 102 103
f 26 103 27
f 104 40 27
f 104 27 103
f 105 52 40
f 105 40 104
f 106 62 52
f 106 52 105
f 107 70 62
f 107 62 106
f 108 78 70
f 108 70 107
f 109 31 78
f 109 78 108
f 32 31 109
f 32 109 110
f 34 32 110
f 34 110 111
f 36 34 111
f 36 111 112
f 84 36 112
f 84 112 113
f 85 84 113
f 85 113 114
f 115 85 114
f 115 114 116
f 57 115 116
f 57 116 117
f 47 57 117
f 47 117 118
f 26 47 118
f 26 118 102
f 16 87 88
f 16 88 17
f 39 17 88
f 39 88 89
f 51 39 89
f 51 89 90
f 61 51 90
f 61 90 91
f 69 61 91
f 69 91 92
f 77 69 92
f 77 92 93
f 20 77 93
f 20 93 94
f 10 20 94
f 10 94 95
f 11 10 95
f 11 95 96
f 13 11 96
f 13 96 97
f 86 13 97
f 86 97 98
f 74 86 98
f 74 98 99
f 66 74 99
f 66 99 119
f 58 66 119
f 58 119 101
f 48 58 101
f 48 101 100
f 16 48 100
f 16 100 87
f 102 45 44
f 102 44 103
f 43 104 103
f 43 103 44
f 55 105 104
f 55 104 43
f 65 106 105
f 65 105 55
f 73 107 106
f 73 106 65
f 81 108 107
f 81 107 73
f 22 109 108
f 22 108 81
f 110 109 22
f 110 22 21
f 111 110 21
f 111 21 24
f 112 111 24
f 112 24 23
f 113 112 23
f 113 23 80
f 114 113 80
f 114 80 72
f 116 114 72
f 116 72 64
f 117 116 64
f 117 64 54
f 118 117 54
f 118 54 42
f 102 118 42
f 102 42 45
f 56 101 120
f 56 120 121
f 101 119 122
f 101 122 120
f 119 99 123
f 119 123 122
f 85 115 124
f 85 124 125
f 115 57 126
f 115 126 124
f 57 56 121
f 57 121 126
f 127 128 129
f 127 129 130
f 131 132 133
f 131 133 134
f 135 136 137
f 135 137 138
f 139 135 138
f 139 138 140
f 136 141 142
f 136 142 137
f 132 139 140
f 132 140 133
f 141 130 129
f 141 129 142
f 143 144 145
f 143 145 146
f 147 148 149
f 147 149 150
f 151 152 148
f 151 148 147
f 150 149 153
f 150 153 154
f 146 145 152
f 146 152 151
f 154 153 128
f 154 128 127
f 143 146 132
f 143 132 131
f 145 144 134
f 145 134 133
f 144 143 131
f 144 131 134
f 147 150 136
f 147 136 135
f 149 148 138
f 149 138 137
f 151 147 135
f 151 135 139
f 148 152 140
f 148 140 138
f 150 154 141
f 150 141 136
f 153 149 137
f 153 137 142
f 146 151 139
f 146 139 132
f 152 145 133
f 152 133 140
f 154 127 130
f 154 130 141
f 128 153 142
f 128 142 129
f 4 3 2
f 2 1 4
f 6 5 3
f 3 4 6
f 8 7 5
f 5 6 8
f 1 2 7
f 7 8 1
f 3 5 7
f 7 2 3
f 6 4 1
f 1 8 6
f 121 120 101
f 101 56 121
f 126 121 56
f 56 57 126
f 130 129 128
f 128 127 130
f 134 131 143
f 143 144 134