# https://github.com/mikedh/trimesh
v 0.01356198 0.00544767 0.08466983
v 0.01033928 0.01027089 0.08466983
v 0.00897766 0.00890926 0.09051256
v 0.01178303 0.00471079 0.09051256
v 0.00551608 0.01349358 0.08466983
v 0.00477918 0.01171463 0.09051256
v -0.00017325 0.01462528 0.08466983
v -0.00017325 0.01269967 0.09051256
v -0.00586260 0.01349358 0.08466983
v -0.00512569 0.01171463 0.09051256
v -0.01068578 0.01027089 0.08466983
v -0.00932418 0.00890927 0.09051256
v -0.01390858 0.00544768 0.08466983
v -0.01212952 0.00471080 0.09051256
v -0.01504017 -0.00024164 0.08466983
v -0.01311465 -0.00024164 0.09051256
v -0.01390858 -0.00593097 0.08466983
v -0.01212952 -0.00519409 0.09051256
v -0.01068578 -0.01075417 0.08466983
v -0.00932418 -0.00939257 0.09051256
v -0.00586260 -0.01397687 0.08466983
v -0.00512571 -0.01219792 0.09051256
v -0.00017326 -0.01510857 0.08466983
v -0.00017326 -0.01318305 0.09051256
v 0.00551607 -0.01397687 0.08466983
v 0.00477918 -0.01219792 0.09051256
v 0.01033928 -0.01075417 0.08466983
v 0.00897765 -0.00939258 0.09051256
v 0.01356198 -0.00593098 0.08466983
v 0.01178303 -0.00519409 0.09051256
v 0.01469369 -0.00024165 0.08466983
v 0.01276806 -0.00024165 0.09051256
v 0.01937764 0.01930925 0.00000000
v 0.02537114 0.01033918 0.00000000
v -0.00017326 -0.00024165 0.00000000
v 0.01040758 0.02530275 0.00000000
v -0.00017325 0.02740741 0.00000000
v -0.01075407 0.02530275 0.00000000
v -0.01972414 0.01930925 0.00000000
v -0.02571764 0.01033918 0.00000000
v -0.02782239 -0.00024164 0.00000000
v -0.02571773 -0.01082246 0.00000000
v -0.01972414 -0.01979253 0.00000000
v -0.01075407 -0.02578603 0.00000000
v -0.00017326 -0.02789078 0.00000000
v 0.01040758 -0.02578603 0.00000000
v 0.01937764 -0.01979253 0.00000000
v 0.02537114 -0.01082246 0.00000000
v 0.02747580 -0.00024164 0.00000000
v 0.03611007 0.01478739 0.02261390
v 0.02759683 0.02752844 0.02261391
v 0.02821826 0.02814986 0.03087922
v 0.03692210 0.01512369 0.03087922
v 0.01485579 0.03604168 0.02261391
v 0.01519218 0.03685370 0.03087922
v -0.00017324 0.03903111 0.02261391
v -0.00017324 0.03991004 0.03087922
v -0.01520228 0.03604168 0.02261391
v -0.01553858 0.03685370 0.03087922
v -0.02794333 0.02752844 0.02261391
v -0.02856475 0.02814986 0.03087922
v -0.03645657 0.01478739 0.02261390
v -0.03726859 0.01512379 0.03087922
v -0.03944598 -0.00024163 0.02261390
v -0.04032492 -0.00024163 0.03087922
v -0.03645657 -0.01527067 0.02261390
v -0.03726859 -0.01560697 0.03087922
v -0.02794333 -0.02801172 0.02261390
v -0.02856475 -0.02863315 0.03087921
v -0.01520228 -0.03652495 0.02261390
v -0.01553868 -0.03733699 0.03087921
v -0.00017326 -0.03951438 0.02261390
v -0.00017326 -0.04039332 0.03087921
v 0.01485579 -0.03652495 0.02261390
v 0.01519208 -0.03733699 0.03087921
v 0.02759683 -0.02801172 0.02261390
v 0.02821826 -0.02863315 0.03087921
v 0.03611007 -0.01527067 0.02261390
v 0.03692210 -0.01560707 0.03087922
v 0.03909950 -0.00024164 0.02261390
v 0.03997843 -0.00024165 0.03087922
v 0.02906820 0.01187051 0.00000000
v 0.02220714 0.02213875 0.00000000
v 0.02694692 0.02687853 0.00949183
v 0.03526092 0.01443567 0.00949183
v 0.01193900 0.02899981 0.00000000
v 0.01450405 0.03519253 0.00949183
v -0.00017325 0.03140908 0.00000000
v -0.00017324 0.03811199 0.00949183
v -0.01228540 0.02899981 0.00000000
v -0.01485055 0.03519253 0.00949183
v -0.02255373 0.02213884 0.00000000
v -0.02729340 0.02687853 0.00949183
v -0.02941468 0.01187061 0.00000000
v -0.03560741 0.01443567 0.00949183
v -0.03182397 -0.00024164 0.00000000
v -0.03852697 -0.00024163 0.00949183
v -0.02941468 -0.01235379 0.00000000
v -0.03560741 -0.01491894 0.00949183
v -0.02255373 -0.02262212 0.00000000
v -0.02729340 -0.02736180 0.00949183
v -0.01228550 -0.02948308 0.00000000
v -0.01485055 -0.03567581 0.00949183
v -0.00017326 -0.03189236 0.00000000
v -0.00017326 -0.03859536 0.00949183
v 0.01193891 -0.02948308 0.00000000
v 0.01450405 -0.03567581 0.00949183
v 0.02220714 -0.02262212 0.00000000
v 0.02694692 -0.02736180 0.00949183
v 0.02906820 -0.01235389 0.00000000
v 0.03526092 -0.01491894 0.00949183
v 0.03147747 -0.00024164 0.00000000
v 0.03818038 -0.00024164 0.00949183
v 0.03230534 -0.00024165 0.05624433
v 0.02983302 0.01218731 0.05624433
v 0.02447805 0.00996923 0.05863332
v 0.02650908 -0.00024165 0.05863332
v 0.02983302 -0.01267069 0.05624433
v 0.02447805 -0.01045251 0.05863332
v 0.02279253 -0.02320751 0.05624433
v 0.01869406 -0.01910895 0.05863332
v 0.01225580 -0.03024791 0.05624433
v 0.01003764 -0.02489294 0.05863332
v -0.00017326 -0.03272023 0.05624433
v -0.00017326 -0.02692407 0.05863332
v -0.01260229 -0.03024791 0.05624433
v -0.01038412 -0.02489294 0.05863332
v -0.02313912 -0.02320751 0.05624433
v -0.01904056 -0.01910895 0.05863332
v -0.03017952 -0.01267069 0.05624433
v -0.02482455 -0.01045251 0.05863332
v -0.03265184 -0.00024164 0.05624433
v -0.02685568 -0.00024164 0.05863332
v -0.03017952 0.01218741 0.05624433
v -0.02482455 0.00996923 0.05863332
v -0.02313912 0.02272414 0.05624433
v -0.01904056 0.01862568 0.05863332
v -0.01260229 0.02976463 0.05624433
v -0.01038412 0.02440966 0.05863332
v -0.00017325 0.03223695 0.05624433
v -0.00017325 0.02644068 0.05863332
v 0.01225580 0.02976463 0.05624433
v 0.01003764 0.02440966 0.05863332
v 0.01869406 0.01862568 0.05863332
v 0.02279253 0.02272414 0.05624433
v 0.01588308 -0.00024165 0.06035684
v 0.01466083 0.00590283 0.06035684
v 0.01877621 0.00760748 0.06515858
v 0.02033753 -0.00024165 0.06515858
v 0.01466083 -0.00638615 0.06035684
v 0.01877621 -0.00809078 0.06515858
v 0.01118032 -0.01159521 0.06035684
v 0.01433007 -0.01474495 0.06515858
v 0.00597123 -0.01507571 0.06035684
v 0.00767588 -0.01919110 0.06515858
v -0.00017326 -0.01629797 0.06035684
v -0.00017326 -0.02075242 0.06515858
v -0.00631776 -0.01507571 0.06035684
v -0.00802241 -0.01919110 0.06515858
v -0.01152681 -0.01159521 0.06035684
v -0.01467657 -0.01474495 0.06515858
v -0.01500732 -0.00638613 0.06035684
v -0.01912280 -0.00809078 0.06515858
v -0.01622957 -0.00024164 0.06035684
v -0.02068403 -0.00024164 0.06515858
v -0.01500732 0.00590286 0.06035684
v -0.01912271 0.00760749 0.06515858
v -0.01152681 0.01111192 0.06035684
v -0.01467657 0.01426168 0.06515858
v -0.00631773 0.01459243 0.06035684
v -0.00802239 0.01870782 0.06515858
v -0.00017325 0.01581468 0.06035684
v -0.00017325 0.02026914 0.06515858
v 0.00597123 0.01459243 0.06035684
v 0.00767589 0.01870782 0.06515858
v 0.01118032 0.01111192 0.06035684
v 0.01433007 0.01426168 0.06515858
v 0.03424778 0.01401604 0.01554729
v 0.02617149 0.02610311 0.01554729
v 0.01408444 0.03417939 0.01554729
v -0.00017324 0.03701543 0.01554729
v -0.01443093 0.03417939 0.01554729
v -0.02627344 0.02566310 0.01516052
v -0.03459438 0.01401604 0.01554729
v -0.03743030 -0.00024164 0.01554729
v -0.03459438 -0.01449932 0.01554729
v -0.02651799 -0.02658638 0.01554729
v -0.01443093 -0.03466276 0.01554729
v -0.00017326 -0.03749871 0.01554729
v 0.01408444 -0.03466276 0.01554729
v 0.02617149 -0.02658638 0.01554729
v 0.03424778 -0.01449932 0.01554729
v 0.03708382 -0.00024164 0.01554729
v 0.03584770 0.01467873 0.04631011
v 0.02739593 0.02732754 0.04631011
v 0.02510996 0.02504157 0.05329152
v 0.03286085 0.01344153 0.05329152
v 0.01337087 0.03233947 0.05329152
v 0.01474712 0.03577931 0.04631011
v -0.00017324 0.03874707 0.04631011
v -0.00017324 0.03551427 0.05329152
v -0.01509362 0.03577931 0.04631011
v -0.01385642 0.03279255 0.05329152
v -0.02774252 0.02732754 0.04631011
v -0.02545646 0.02504157 0.05329152
v -0.03619419 0.01467873 0.04631011
v -0.03320744 0.01344153 0.05329152
v -0.03916205 -0.00024164 0.04631011
v -0.03592916 -0.00024164 0.05329152
v -0.03619419 -0.01516201 0.04631011
v -0.03320744 -0.01392481 0.05329152
v -0.02774252 -0.02781092 0.04631011
v -0.02545646 -0.02552485 0.05329152
v -0.01509362 -0.03626259 0.04631011
v -0.01385642 -0.03327584 0.05329152
v -0.00017326 -0.03923044 0.04631011
v -0.00017326 -0.03599755 0.05329152
v 0.01474712 -0.03626259 0.04631011
v 0.01350992 -0.03327584 0.05329152
v 0.02739593 -0.02781092 0.04631011
v 0.02510996 -0.02552485 0.05329152
v 0.03584770 -0.01516201 0.04631011
v 0.03286085 -0.01392481 0.05329152
v 0.03881546 -0.00024165 0.04631011
v 0.03558267 -0.00024165 0.05329152
v 0.03078093 0.01258002 0.00949183
v 0.02351807 0.02344968 0.00949183
v 0.01264841 0.03071255 0.00949183
v -0.00017324 0.03326294 0.00949183
v -0.01299490 0.03071255 0.00949183
v -0.02350491 0.02289446 0.00884230
v -0.03112743 0.01258002 0.00949183
v -0.03367783 -0.00024164 0.00949183
v -0.03112743 -0.01306329 0.00949183
v -0.02386456 -0.02393295 0.00949183
v -0.01299490 -0.03119582 0.00949183
v -0.00017326 -0.03374622 0.00949183
v 0.01264841 -0.03119582 0.00949183
v 0.02351807 -0.02393295 0.00949183
v 0.03078093 -0.01306329 0.00949183
v 0.03333135 -0.00024164 0.00949183
v 0.03700048 0.01515615 0.03932862
v 0.02827833 0.02820984 0.03932862
v 0.01522464 0.03693208 0.03932862
v -0.00017324 0.03999485 0.03932862
v -0.01557114 0.03693208 0.03932862
v -0.02862482 0.02820994 0.03932862
v -0.03734698 0.01515625 0.03932862
v -0.04040974 -0.00024164 0.03932861
v -0.03734698 -0.01563953 0.03932861
v -0.02862482 -0.02869321 0.03932861
v -0.01557114 -0.03741537 0.03932861
v -0.00017326 -0.04047813 0.03932861
v 0.01522464 -0.03741537 0.03932861
v 0.02827823 -0.02869321 0.03932861
v 0.03700048 -0.01563953 0.03932861
v 0.04006324 -0.00024165 0.03932861
v 0.00958329 -0.00024165 0.11109904
v 0.00884061 0.00349202 0.11109904
v 0.00937486 0.00371331 0.12376556
v 0.01016154 -0.00024165 0.12376556
v 0.00884061 -0.00397533 0.11109904
v 0.00937486 -0.00419661 0.12376556
v 0.00672565 -0.00714058 0.11109904
v 0.00713455 -0.00754948 0.12376556
v 0.00356041 -0.00925552 0.11109904
v 0.00378171 -0.00978978 0.12376556
v -0.00017326 -0.00999819 0.11109904
v -0.00017326 -0.01057643 0.12376556
v -0.00390694 -0.00925552 0.11109904
v -0.00412822 -0.00978978 0.12376556
v -0.00707218 -0.00714058 0.11109904
v -0.00748107 -0.00754948 0.12376556
v -0.00918713 -0.00397533 0.11109904
v -0.00972139 -0.00419661 0.12376556
v -0.00992981 -0.00024165 0.11109904
v -0.01050803 -0.00024165 0.12376556
v -0.00918713 0.00349202 0.11109904
v -0.00972139 0.00371332 0.12376556
v -0.00707218 0.00665727 0.11109904
v -0.00748107 0.00706617 0.12376556
v -0.00390692 0.00877223 0.11109904
v -0.00412822 0.00930648 0.12376556
v -0.00017325 0.00951489 0.11109904
v -0.00017325 0.01009314 0.12376556
v 0.00356041 0.00877223 0.11109904
v 0.00378171 0.00930648 0.12376556
v 0.00672566 0.00665727 0.11109904
v 0.00713456 0.00706617 0.12376556
v 0.00932117 0.00369106 0.12696085
v 0.01010345 -0.00024165 0.12696085
v 0.00932117 -0.00417438 0.12696085
v 0.00709346 -0.00750837 0.12696085
v 0.00375947 -0.00973608 0.12696085
v -0.00017326 -0.01051834 0.12696085
v -0.00410599 -0.00973608 0.12696085
v -0.00743998 -0.00750837 0.12696085
v -0.00966769 -0.00417437 0.12696085
v -0.01044994 -0.00024165 0.12696085
v -0.00966769 0.00369106 0.12696085
v -0.00743998 0.00702508 0.12696085
v -0.00410598 0.00925279 0.12696085
v -0.00017325 0.01003505 0.12696085
v 0.00375947 0.00925279 0.12696085
v 0.00709346 0.00702507 0.12696085
v 0.01311771 0.01304932 0.07539701
v 0.01719223 0.00695137 0.07539701
v 0.00701979 0.01712383 0.07539701
v -0.00017325 0.01855462 0.07539701
v -0.00736630 0.01712394 0.07539701
v -0.01346421 0.01304932 0.07539701
v -0.01753881 0.00695140 0.07539701
v -0.01896960 -0.00024164 0.07539701
v -0.01753881 -0.00743468 0.07539701
v -0.01346430 -0.01353260 0.07539701
v -0.00736630 -0.01760722 0.07539701
v -0.00017326 -0.01903799 0.07539701
v 0.00701977 -0.01760722 0.07539701
v 0.01311771 -0.01353271 0.07539701
v 0.01719223 -0.00743469 0.07539701
v 0.01862301 -0.00024165 0.07539701
v 0.01132293 -0.00024165 0.09635526
v 0.01044785 0.00415775 0.09635526
v 0.00918027 0.00363269 0.10433821
v 0.00995094 -0.00024165 0.10433821
v 0.01044785 -0.00464105 0.09635526
v 0.00918027 -0.00411601 0.10433821
v 0.00795577 -0.00837067 0.09635526
v 0.00698562 -0.00740054 0.10433821
v 0.00422614 -0.01086274 0.09635526
v 0.00370110 -0.00959519 0.10433821
v -0.00017326 -0.01173782 0.09635526
v -0.00017326 -0.01036583 0.10433821
v -0.00457266 -0.01086274 0.09635526
v -0.00404762 -0.00959519 0.10433821
v -0.00830229 -0.00837067 0.09635526
v -0.00733215 -0.00740054 0.10433821
v -0.01079435 -0.00464105 0.09635526
v -0.00952680 -0.00411601 0.10433821
v -0.01166942 -0.00024165 0.09635526
v -0.01029743 -0.00024165 0.10433821
v -0.01079435 0.00415775 0.09635526
v -0.00952680 0.00363271 0.10433821
v -0.00830229 0.00788737 0.09635526
v -0.00733214 0.00691724 0.10433821
v -0.00457265 0.01037946 0.09635526
v -0.00404762 0.00911188 0.10433821
v -0.00017325 0.01125453 0.09635526
v -0.00017325 0.00988254 0.10433821
v 0.00422614 0.01037946 0.09635526
v 0.00370111 0.00911188 0.10433821
v 0.00795577 0.00788737 0.09635526
v 0.00698562 0.00691722 0.10433821
v 0.01480868 0.00596406 0.08081779
v 0.01129343 0.01122504 0.08081779
v 0.00603248 0.01474028 0.08081779
v -0.00017325 0.01597472 0.08081779
v -0.00637898 0.01474028 0.08081779
v -0.01163993 0.01122504 0.08081779
v -0.01515517 0.00596408 0.08081779
v -0.01638961 -0.00024164 0.08081779
v -0.01515517 -0.00644737 0.08081779
v -0.01163993 -0.01170832 0.08081779
v -0.00637899 -0.01522357 0.08081779
v -0.00017326 -0.01645800 0.08081779
v 0.00603247 -0.01522357 0.08081779
v 0.01129343 -0.01170832 0.08081779
v 0.01480868 -0.00644737 0.08081779
v 0.01604311 -0.00024165 0.08081779
v 0.01611249 0.00650410 0.07737816
v 0.01229133 0.01222294 0.07737816
v 0.00657252 0.01604410 0.07737816
v -0.00017325 0.01738590 0.07737816
v -0.00691902 0.01604410 0.07737816
v -0.01263783 0.01222294 0.07737816
v -0.01645897 0.00650413 0.07737816
v -0.01780079 -0.00024164 0.07737816
v -0.01645897 -0.00698741 0.07737816
v -0.01263783 -0.01270621 0.07737816
v -0.00691903 -0.01652738 0.07737816
v -0.00017326 -0.01786918 0.07737816
v 0.00657250 -0.01652738 0.07737816
v 0.01229133 -0.01270621 0.07737816
v 0.01611249 -0.00698742 0.07737816
v 0.01745429 -0.00024165 0.07737816
v 0.00870235 0.00863395 0.12401853
v 0.01142328 0.00456177 0.12401853
v -0.00017326 -0.00024165 0.12401853
v 0.00463019 0.01135489 0.12401853
v -0.00017325 0.01231032 0.12401853
v -0.00497670 0.01135489 0.12401853
v -0.00904886 0.00863396 0.12401853
v -0.01176978 0.00456179 0.12401853
v -0.01272521 -0.00024165 0.12401853
v -0.01176978 -0.00504509 0.12401853
v -0.00904886 -0.00911725 0.12401853
v -0.00497672 -0.01183817 0.12401853
v -0.00017326 -0.01279361 0.12401853
v 0.00463019 -0.01183817 0.12401853
v 0.00870235 -0.00911727 0.12401853
v 0.01142328 -0.00504509 0.12401853
v 0.01237872 -0.00024165 0.12401853
v 0.00585739 0.00234714 0.17715465
v 0.00442040 0.00449777 0.17715465
v -0.00026704 -0.00018967 0.17708617
v 0.00226979 0.00593476 0.17715465
v -0.00026704 0.00643937 0.17715465
v -0.00280385 0.00593477 0.17715465
v -0.00495447 0.00449777 0.17715465
v -0.00639148 0.00234714 0.17715465
v -0.00689608 -0.00018967 0.17715465
v -0.00639148 -0.00272650 0.17715465
v -0.00495447 -0.00487711 0.17715465
v -0.00280386 -0.00631410 0.17715465
v -0.00026704 -0.00681871 0.17715465
v 0.00226979 -0.00631410 0.17715465
v 0.00442040 -0.00487711 0.17715465
v 0.00585739 -0.00272650 0.17715465
v 0.00636200 -0.00018967 0.17715465
v 0.01180104 0.00471826 0.14822947
v 0.01170732 0.00477024 0.15757166
v 0.01269383 -0.00018967 0.15757166
v 0.01278766 -0.00024165 0.14822947
v 0.00899150 0.00892309 0.14822947
v 0.00889772 0.00897506 0.15757166
v 0.00478668 0.01173265 0.14822947
v 0.00469289 0.01178460 0.15757166
v -0.00017325 0.01271926 0.14822947
v -0.00026704 0.01277121 0.15757166
v -0.00513318 0.01173265 0.14822947
v -0.00522696 0.01178460 0.15757166
v -0.00933800 0.00892311 0.14822947
v -0.00943178 0.00897508 0.15757166
v -0.01214754 0.00471827 0.14822947
v -0.01224136 0.00477026 0.15757166
v -0.01313415 -0.00024165 0.14822947
v -0.01322797 -0.00018967 0.15757166
v -0.01214754 -0.00520158 0.14822947
v -0.01224136 -0.00514958 0.15757166
v -0.00933801 -0.00940640 0.14822947
v -0.00943178 -0.00935442 0.15757166
v -0.00513319 -0.01221594 0.14822947
v -0.00522698 -0.01216397 0.15757166
v -0.00017326 -0.01320255 0.14822947
v -0.00026704 -0.01315059 0.15757166
v 0.00478666 -0.01221594 0.14822947
v 0.00469288 -0.01216397 0.15757166
v 0.00899148 -0.00940640 0.14822947
v 0.00889771 -0.00935442 0.15757166
v 0.01180104 -0.00520158 0.14822947
v 0.01170732 -0.00514960 0.15757166
v 0.01259912 0.00513964 0.15780691
v 0.00958027 0.00965762 0.15780691
v 0.01088520 0.01096257 0.16038690
v 0.01430414 0.00584588 0.16038690
v 0.00506229 0.01267641 0.15780691
v 0.00576853 0.01438143 0.16038690
v -0.00026704 0.01373655 0.15780691
v -0.00026702 0.01558201 0.16038690
v -0.00559636 0.01267641 0.15780691
v -0.00630259 0.01438143 0.16038690
v -0.01011434 0.00965763 0.15780691
v -0.01141933 0.01096257 0.16038690
v -0.01313316 0.00513966 0.15780691
v -0.01483819 0.00584590 0.16038690
v -0.01419321 -0.00018967 0.15780691
v -0.01603877 -0.00018967 0.16038690
v -0.01313316 -0.00551899 0.15780691
v -0.01483819 -0.00622524 0.16038690
v -0.01011434 -0.01003696 0.15780691
v -0.01141933 -0.01134195 0.16038690
v -0.00559636 -0.01305578 0.15780691
v -0.00630260 -0.01476079 0.16038690
v -0.00026704 -0.01411583 0.15780691
v -0.00026704 -0.01596139 0.16038690
v 0.00506228 -0.01305578 0.15780691
v 0.00576853 -0.01476079 0.16038690
v 0.00958026 -0.01003698 0.15780691
v 0.01088520 -0.01134195 0.16038690
v 0.01259912 -0.00551900 0.15780691
v 0.01430414 -0.00622524 0.16038690
v 0.01365916 -0.00018967 0.15780691
v 0.01550463 -0.00018967 0.16038690
v 0.01484619 0.00597960 0.13997494
v 0.01132214 0.01125374 0.13997494
v 0.00996875 0.00990036 0.14033836
v 0.01307793 0.00524716 0.14033836
v 0.00604803 0.01477780 0.13997494
v 0.00531557 0.01300954 0.14033836
v -0.00017325 0.01601528 0.13997494
v -0.00017325 0.01410135 0.14033836
v -0.00639453 0.01477780 0.13997494
v -0.00566207 0.01300954 0.14033836
v -0.01166863 0.01125374 0.13997494
v -0.01031525 0.00990036 0.14033836
v -0.01519269 0.00597963 0.13997494
v -0.01342443 0.00524717 0.14033836
v -0.01643019 -0.00024165 0.13997494
v -0.01451624 -0.00024165 0.14033836
v -0.01519269 -0.00646292 0.13997494
v -0.01342443 -0.00573048 0.14033835
v -0.01166863 -0.01173703 0.13997494
v -0.01031525 -0.01038363 0.14033835
v -0.00639454 -0.01526109 0.13997494
v -0.00566209 -0.01349282 0.14033835
v -0.00017326 -0.01649857 0.13997494
v -0.00017326 -0.01458464 0.14033835
v 0.00604802 -0.01526109 0.13997494
v 0.00531556 -0.01349282 0.14033835
v 0.01132214 -0.01173703 0.13997494
v 0.00996875 -0.01038363 0.14033835
v 0.01484619 -0.00646292 0.13997494
v 0.01307793 -0.00573048 0.14033835
v 0.01608369 -0.00024165 0.13997494
v 0.01416975 -0.00024165 0.14033836
v 0.01484619 0.00597960 0.14327533
v 0.01132214 0.01125374 0.14327533
v 0.00967404 0.00960564 0.14797018
v 0.01269284 0.00508766 0.14797018
v 0.01608369 -0.00024165 0.14327533
v 0.01375290 -0.00024165 0.14797018
v 0.01484619 -0.00646292 0.14327533
v 0.01269284 -0.00557097 0.14797018
v 0.01132214 -0.01173703 0.14327533
v 0.00967404 -0.01008892 0.14797018
v 0.00604802 -0.01526109 0.14327533
v 0.00515607 -0.01310773 0.14797018
v -0.00017326 -0.01649857 0.14327533
v -0.00017326 -0.01416788 0.14797018
v -0.00639454 -0.01526109 0.14327533
v -0.00550259 -0.01310773 0.14797018
v -0.01166863 -0.01173703 0.14327533
v -0.01002052 -0.01008892 0.14797018
v -0.01519269 -0.00646292 0.14327533
v -0.01303934 -0.00557097 0.14797018
v -0.01643019 -0.00024165 0.14327533
v -0.01409949 -0.00024165 0.14797018
v -0.01519269 0.00597963 0.14327533
v -0.01303934 0.00508768 0.14797018
v -0.01166863 0.01125374 0.14327533
v -0.01002052 0.00960565 0.14797018
v -0.00639453 0.01477780 0.14327533
v -0.00550258 0.01262444 0.14797018
v -0.00017325 0.01601528 0.14327533
v -0.00017325 0.01368449 0.14797018
v 0.00604803 0.01477780 0.14327533
v 0.00515607 0.01262444 0.14797018
v 0.01403713 0.00573531 0.16444647
v 0.01068093 0.01075821 0.16444647
v 0.00994718 0.01002456 0.16901177
v 0.01307852 0.00533824 0.16901177
v 0.01521564 -0.00018967 0.16444647
v 0.01417805 -0.00018967 0.16901177
v 0.01403713 -0.00611465 0.16444647
v 0.01307852 -0.00571759 0.16901177
v 0.01068093 -0.01113758 0.16444647
v 0.00994718 -0.01040392 0.16901177
v 0.00565794 -0.01449388 0.16444647
v 0.00526087 -0.01353528 0.16901177
v -0.00026704 -0.01567240 0.16444647
v -0.00026704 -0.01463481 0.16901177
v -0.00619201 -0.01449378 0.16444647
v -0.00579496 -0.01353528 0.16901177
v -0.01121496 -0.01113758 0.16444647
v -0.01048131 -0.01040392 0.16901177
v -0.01457116 -0.00611465 0.16444647
v -0.01361266 -0.00571759 0.16901177
v -0.01574978 -0.00018967 0.16444647
v -0.01471219 -0.00018967 0.16901177
v -0.01457116 0.00573531 0.16444647
v -0.01361257 0.00533825 0.16901177
v -0.01121496 0.01075830 0.16444647
v -0.01048131 0.01002456 0.16901177
v -0.00619200 0.01411451 0.16444647
v -0.00579495 0.01315590 0.16901177
v -0.00026702 0.01529302 0.16444647
v -0.00026704 0.01425545 0.16901177
v 0.00565794 0.01411451 0.16444647
v 0.00526089 0.01315590 0.16901177
v 0.01167734 0.00475783 0.17394444
v 0.01266147 -0.00018967 0.17394444
v 0.01167734 -0.00513718 0.17394444
v 0.00887477 -0.00933149 0.17394444
v 0.00468047 -0.01213399 0.17394444
v -0.00026704 -0.01311813 0.17394444
v -0.00521455 -0.01213399 0.17394444
v -0.00940884 -0.00933148 0.17394444
v -0.01221137 -0.00513718 0.17394444
v -0.01319551 -0.00018967 0.17394444
v -0.01221137 0.00475785 0.17394444
v -0.00940884 0.00895213 0.17394444
v -0.00521454 0.01175472 0.17394444
v -0.00026704 0.01273875 0.17394444
v 0.00468048 0.01175472 0.17394444
v 0.00887478 0.00895213 0.17394444
v 0.00940423 0.00381629 0.17899943
v 0.01020103 -0.00018967 0.17899943
v 0.00940423 -0.00419565 0.17899943
v 0.00713504 -0.00759174 0.17899943
v 0.00373894 -0.00986095 0.17899943
v -0.00026704 -0.01065779 0.17899943
v -0.00427301 -0.00986094 0.17899943
v -0.00766911 -0.00759174 0.17899943
v -0.00993831 -0.00419563 0.17899943
v -0.01073516 -0.00018967 0.17899943
v -0.00993831 0.00381630 0.17899943
v -0.00766911 0.00721241 0.17899943
v -0.00427301 0.00948160 0.17899943
v -0.00026704 0.01027840 0.17899943
v 0.00373894 0.00948160 0.17899943
v 0.00713504 0.00721240 0.17899943
v 0.01132214 0.01125374 0.13619991
v 0.00604803 0.01477780 0.13619991
v -0.00017325 0.01601528 0.13619991
v -0.00639453 0.01477780 0.13619991
v -0.01166863 0.01125374 0.13619991
v -0.01519269 0.00597963 0.13619991
v -0.01643019 -0.00024165 0.13619991
v -0.01519269 -0.00646292 0.13619991
v -0.01166863 -0.01173703 0.13619991
v -0.00639454 -0.01526109 0.13619991
v -0.00017326 -0.01649857 0.13619991
v 0.00604802 -0.01526109 0.13619991
v 0.01132214 -0.01173703 0.13619991
v 0.01484619 -0.00646292 0.13619991
v 0.01608369 -0.00024165 0.13619991
v 0.01484619 0.00597960 0.13619991
v 0.01069952 0.01063113 0.13531395
v 0.00571106 0.01396437 0.13531395
v 0.00571106 0.01396437 0.13602295
v 0.01069952 0.01063113 0.13602295
v -0.00017325 0.01513478 0.13531395
v -0.00017325 0.01513478 0.13602295
v -0.00605757 0.01396437 0.13531395
v -0.00605757 0.01396437 0.13602295
v -0.01104602 0.01063113 0.13531395
v -0.01104602 0.01063113 0.13602295
v -0.01437926 0.00564267 0.13531395
v -0.01437926 0.00564267 0.13602295
v -0.01554976 -0.00024165 0.13531395
v -0.01554976 -0.00024165 0.13602295
v -0.01437926 -0.00612596 0.13531395
v -0.01437926 -0.00612596 0.13602295
v -0.01104602 -0.01111443 0.13531395
v -0.01104602 -0.01111443 0.13602295
v -0.00605757 -0.01444766 0.13531395
v -0.00605757 -0.01444766 0.13602295
v -0.00017326 -0.01561806 0.13531394
v -0.00017326 -0.01561806 0.13602295
v 0.00571105 -0.01444766 0.13531395
v 0.00571105 -0.01444766 0.13602295
v 0.01069952 -0.01111443 0.13531395
v 0.01069952 -0.01111443 0.13602295
v 0.01403277 -0.00612596 0.13531395
v 0.01403277 -0.00612596 0.13602295
v 0.01520317 -0.00024165 0.13531395
v 0.01520317 -0.00024165 0.13602295
v 0.01403277 0.00564264 0.13531395
v 0.01403277 0.00564264 0.13602295
v 0.01051426 0.01044586 0.12951659
v 0.00561081 0.01372230 0.12951659
v 0.00585580 0.01431374 0.13226692
v 0.01096694 0.01089854 0.13226692
v -0.00017325 0.01487281 0.12951659
v -0.00017325 0.01551302 0.13226692
v -0.00595731 0.01372230 0.12951659
v -0.00620230 0.01431374 0.13226692
v -0.01086075 0.01044586 0.12951659
v -0.01131354 0.01089854 0.13226692
v -0.01413719 0.00554240 0.12951659
v -0.01472872 0.00578739 0.13226692
v -0.01528770 -0.00024165 0.12951659
v -0.01592791 -0.00024165 0.13226692
v -0.01413719 -0.00602571 0.12951659
v -0.01472872 -0.00627070 0.13226692
v -0.01086075 -0.01092915 0.12951659
v -0.01131354 -0.01138192 0.13226692
v -0.00595732 -0.01420559 0.12951659
v -0.00620231 -0.01479702 0.13226692
v -0.00017326 -0.01535609 0.12951659
v -0.00017326 -0.01599631 0.13226692
v 0.00561079 -0.01420559 0.12951659
v 0.00585578 -0.01479702 0.13226692
v 0.01051426 -0.01092915 0.12951659
v 0.01096694 -0.01138192 0.13226692
v 0.01379070 -0.00602571 0.12951659
v 0.01438213 -0.00627071 0.13226692
v 0.01494120 -0.00024165 0.12951659
v 0.01558143 -0.00024165 0.13226692
v 0.01379070 0.00554239 0.12951659
v 0.01438213 0.00578739 0.13226692
v 0.01132214 0.01125374 0.13513699
v 0.00604803 0.01477780 0.13513699
v -0.00017325 0.01601528 0.13513699
v -0.00639453 0.01477780 0.13513699
v -0.01166863 0.01125374 0.13513699
v -0.01519269 0.00597963 0.13513699
v -0.01643019 -0.00024165 0.13513699
v -0.01519269 -0.00646292 0.13513699
v -0.01166863 -0.01173703 0.13513699
v -0.00639454 -0.01526109 0.13513699
v -0.00017326 -0.01649857 0.13513699
v 0.00604802 -0.01526109 0.13513699
v 0.01132214 -0.01173703 0.13513699
v 0.01484619 -0.00646292 0.13513699
v 0.01608369 -0.00024165 0.13513699
v 0.01484619 0.00597960 0.13513699
v 0.00975047 0.00968207 0.12676617
v 0.00519743 0.01272431 0.12676617
v -0.00017325 0.01379267 0.12676617
v -0.00554393 0.01272431 0.12676617
v -0.01009702 0.00968208 0.12676617
v -0.01313920 0.00512903 0.12676617
v -0.01420756 -0.00024165 0.12676617
v -0.01313920 -0.00561234 0.12676617
v -0.01009702 -0.01016541 0.12676617
v -0.00554395 -0.01320759 0.12676617
v -0.00017326 -0.01427596 0.12676617
v 0.00519742 -0.01320759 0.12676617
v 0.00975047 -0.01016541 0.12676617
v 0.01279270 -0.00561234 0.12676617
v 0.01386096 -0.00024165 0.12676617
v 0.01279270 0.00512903 0.12676617
v 0.00468002 0.00475737 0.17893094
v 0.00619661 0.00248766 0.17893094
v 0.00241029 0.00627396 0.17893094
v -0.00026704 0.00680653 0.17893094
v -0.00294437 0.00627396 0.17893094
v -0.00521409 0.00475739 0.17893094
v -0.00673068 0.00248766 0.17893094
v -0.00726323 -0.00018967 0.17893094
v -0.00673068 -0.00286700 0.17893094
v -0.00521409 -0.00513673 0.17893094
v -0.00294437 -0.00665331 0.17893094
v -0.00026704 -0.00718587 0.17893094
v 0.00241028 -0.00665331 0.17893094
v 0.00468002 -0.00513673 0.17893094
v 0.00619661 -0.00286700 0.17893094
v 0.00672915 -0.00018967 0.17893094
v 0.00561207 0.00319734 0.17807566
v 0.00312998 0.00567942 0.17807566
v 0.00413573 0.00742141 0.19793607
v 0.00735406 0.00420308 0.19793606
v -0.00026059 0.00658794 0.17807566
v -0.00026059 0.00859940 0.19793607
v -0.00365119 0.00567942 0.17807566
v -0.00465692 0.00742141 0.19793607
v -0.00613326 0.00319734 0.17807566
v -0.00787525 0.00420308 0.19793606
v -0.00704175 -0.00019325 0.17807566
v -0.00905325 -0.00019325 0.19793606
v -0.00613326 -0.00358383 0.17807566
v -0.00787525 -0.00458957 0.19793606
v -0.00365119 -0.00606591 0.17807566
v -0.00465692 -0.00780791 0.19793606
v -0.00026059 -0.00697442 0.17807566
v -0.00026059 -0.00898590 0.19793606
v 0.00312998 -0.00606591 0.17807566
v 0.00413573 -0.00780791 0.19793606
v 0.00561207 -0.00358383 0.17807566
v 0.00735406 -0.00458957 0.19793606
v 0.00652058 -0.00019325 0.17807566
v 0.00853206 -0.00019325 0.19793606
v -0.00026059 -0.00019325 0.17807566
v -0.00026059 -0.00019325 0.19793606
v 0.02527346 0.01029871 0.05942041
v 0.01930282 0.01923443 0.05942041
v 0.01698004 0.01691164 0.07208277
v 0.02223861 0.00904163 0.07208277
v 0.01036710 0.02520507 0.05942041
v 0.00911005 0.02217022 0.07208277
v -0.00017325 0.02730171 0.05942041
v -0.00017325 0.02401677 0.07208277
v -0.01071360 0.02520507 0.05942041
v -0.00945653 0.02217022 0.07208277
v -0.01964931 0.01923443 0.05942041
v -0.01732653 0.01691164 0.07208277
v -0.02561996 0.01029871 0.05942041
v -0.02258511 0.00904164 0.07208277
v -0.02771659 -0.00024164 0.05942041
v -0.02443164 -0.00024164 0.07208277
v -0.02561996 -0.01078198 0.05942041
v -0.02258511 -0.00952494 0.07208277
v -0.01964931 -0.01971771 0.05942041
v -0.01732653 -0.01739493 0.07208277
v -0.01071360 -0.02568835 0.05942041
v -0.00945656 -0.02265350 0.07208277
v -0.00017326 -0.02778498 0.05942041
v -0.00017326 -0.02450004 0.07208277
v 0.01036710 -0.02568835 0.05942041
v 0.00911002 -0.02265350 0.07208277
v 0.01930282 -0.01971771 0.05942041
v 0.01698004 -0.01739493 0.07208277
v 0.02527346 -0.01078198 0.05942041
v 0.02223861 -0.00952495 0.07208277
v 0.02737000 -0.00024165 0.05942041
v 0.02408516 -0.00024165 0.07208277
v -0.00017326 -0.00024165 0.05942041
v 0.01738610 0.00703167 0.07024513
v 0.01326607 0.01319768 0.07024513
v -0.00017326 -0.00024165 0.07024513
v 0.00710007 0.01731771 0.07024513
v -0.00017325 0.01876442 0.07024513
v -0.00744658 0.01731771 0.07024513
v -0.01361257 0.01319768 0.07024513
v -0.01773260 0.00703169 0.07024513
v -0.01917942 -0.00024164 0.07024513
v -0.01773260 -0.00751497 0.07024513
v -0.01361266 -0.01368096 0.07024513
v -0.00744658 -0.01780099 0.07024513
v -0.00017326 -0.01924780 0.07024513
v 0.00710006 -0.01780099 0.07024513
v 0.01326607 -0.01368096 0.07024513
v 0.01738610 -0.00751498 0.07024513
v 0.01883282 -0.00024165 0.07024513
v 0.01367550 0.01360710 0.07208277
v 0.01792103 0.00725322 0.07208277
v 0.00732163 0.01785263 0.07208277
v -0.00017325 0.01934339 0.07208277
v -0.00766813 0.01785263 0.07208277
v -0.01402199 0.01360710 0.07208277
v -0.01826752 0.00725324 0.07208277
v -0.01975827 -0.00024164 0.07208277
v -0.01826752 -0.00773652 0.07208277
v -0.01402199 -0.01409039 0.07208277
v -0.00766814 -0.01833592 0.07208277
v -0.00017326 -0.01982668 0.07208277
v 0.00732162 -0.01833592 0.07208277
v 0.01367550 -0.01409039 0.07208277
v 0.01792093 -0.00773653 0.07208277
v 0.01941179 -0.00024165 0.07208277
v 0.00351350 -0.01609201 0.16616029
v -0.00022023 -0.01670275 0.16472131
v -0.00022020 -0.01574108 0.16444548
v 0.00351352 -0.01491856 0.16582381
v -0.00395751 -0.01609419 0.16615188
v -0.00395747 -0.01492063 0.16581539
v -0.00550910 -0.01478583 0.16966100
v -0.00550907 -0.01361238 0.16932450
v -0.00396611 -0.01403497 0.17333350
v -0.00396609 -0.01286151 0.17299701
v -0.00023241 -0.01379062 0.17487760
v -0.00023237 -0.01282895 0.17460188
v 0.00350488 -0.01403279 0.17334191
v 0.00350492 -0.01285933 0.17300543
v 0.00505648 -0.01478286 0.16967277
v 0.00505654 -0.01360931 0.16933628
v -0.00022631 -0.01524674 0.16979945
v -0.00022626 -0.01323432 0.16922247
v 0.00192411 -0.01692632 0.16804900
v -0.00022284 -0.01717216 0.16719145
v -0.00022280 -0.01579858 0.16679756
v 0.00192416 -0.01555264 0.16765521
v -0.00237187 -0.01692751 0.16804426
v -0.00237183 -0.01555393 0.16765036
v -0.00326408 -0.01625938 0.17008616
v -0.00326404 -0.01496211 0.16971423
v -0.00237682 -0.01574346 0.17217380
v -0.00237678 -0.01436988 0.17178001
v -0.00022985 -0.01549762 0.17303155
v -0.00022981 -0.01412395 0.17263765
v 0.00191916 -0.01574227 0.17217865
v 0.00191921 -0.01436860 0.17178475
v 0.00281139 -0.01599899 0.17001877
v 0.00281142 -0.01496042 0.16972097
v -0.00022635 -0.01633488 0.17011140
v -0.00022630 -0.01485255 0.16968644
v -0.01592910 0.00448746 0.16616029
v -0.01459116 0.00802634 0.16472131
v -0.01375835 0.00754546 0.16444548
v -0.01491290 0.00390068 0.16582381
v -0.01219553 0.01095861 0.16615188
v -0.01117924 0.01037183 0.16581540
v -0.01028664 0.01164822 0.16966100
v -0.00927044 0.01106144 0.16932450
v -0.01040787 0.00993647 0.17333350
v -0.00939163 0.00934971 0.17299701
v -0.01206312 0.00658082 0.17487760
v -0.01123030 0.00609994 0.17460188
v -0.01414154 0.00346532 0.17334191
v -0.01312525 0.00287854 0.17300543
v -0.01556688 0.00249660 0.16967277
v -0.01455058 0.00190982 0.16933628
v -0.01332714 0.00730357 0.16979945
v -0.01158441 0.00629734 0.16922247
v -0.01585696 0.00628105 0.16804902
v -0.01499643 0.00826331 0.16719145
v -0.01380683 0.00757646 0.16679756
v -0.01466736 0.00559420 0.16765521
v -0.01371005 0.01000209 0.16804426
v -0.01252045 0.00931527 0.16765036
v -0.01268523 0.01044071 0.17008617
v -0.01156184 0.00979208 0.16971425
v -0.01268216 0.00941436 0.17217380
v -0.01149257 0.00872750 0.17178001
v -0.01354269 0.00743210 0.17303155
v -0.01235309 0.00674525 0.17263765
v -0.01482908 0.00569329 0.17217865
v -0.01363948 0.00500646 0.17178475
v -0.01549751 0.00504901 0.17001877
v -0.01459808 0.00452966 0.16972097
v -0.01426952 0.00784770 0.17011140
v -0.01298579 0.00710648 0.16968644
v 0.01539507 -0.00486680 0.16616029
v 0.01405712 -0.00840568 0.16472131
v 0.01322430 -0.00792480 0.16444548
v 0.01437876 -0.00428002 0.16582381
v 0.01166139 -0.01133799 0.16615188
v 0.01064519 -0.01075122 0.16581539
v 0.00975261 -0.01202750 0.16966100
v 0.00873635 -0.01144072 0.16932450
v 0.00987384 -0.01031585 0.17333350
v 0.00885754 -0.00972905 0.17299701
v 0.01152908 -0.00696016 0.17487760
v 0.01069616 -0.00647929 0.17460188
v 0.01360740 -0.00384467 0.17334191
v 0.01259120 -0.00325788 0.17300543
v 0.01503274 -0.00287594 0.16967277
v 0.01401654 -0.00228916 0.16933628
v 0.01279310 -0.00768291 0.16979945
v 0.01105037 -0.00667669 0.16922247
v 0.01532292 -0.00666039 0.16804900
v 0.01446229 -0.00864265 0.16719145
v 0.01327280 -0.00795580 0.16679756
v 0.01413332 -0.00597354 0.16765521
v 0.01317600 -0.01038147 0.16804426
v 0.01198641 -0.00969459 0.16765036
v 0.01215119 -0.01081999 0.17008616
v 0.01102781 -0.01017135 0.16971423
v 0.01214803 -0.00979370 0.17217380
v 0.01095843 -0.00910685 0.17178001
v 0.01300865 -0.00781144 0.17303155
v 0.01181906 -0.00712459 0.17263765
v 0.01429494 -0.00607265 0.17217865
v 0.01310544 -0.00538578 0.17178475
v 0.01496347 -0.00542835 0.17001877
v 0.01406395 -0.00490901 0.16972097
v 0.01373547 -0.00822705 0.17011140
v 0.01245176 -0.00748583 0.16968644
v 0.01161450 0.01103552 0.16616029
v 0.01401031 0.00810740 0.16472131
v 0.01317749 0.00762659 0.16444548
v 0.01059819 0.01044883 0.16582381
v 0.01535192 0.00456653 0.16615188
v 0.01433561 0.00397981 0.16581540
v 0.01499465 0.00256867 0.16966100
v 0.01397834 0.00198195 0.16932450
v 0.01357287 0.00352947 0.17333350
v 0.01255657 0.00294276 0.17299701
v 0.01149444 0.00664079 0.17487760
v 0.01066152 0.00615998 0.17460188
v 0.00983554 0.00999843 0.17334191
v 0.00881922 0.00941177 0.17300543
v 0.00970923 0.01171720 0.16967277
v 0.00869295 0.01113052 0.16933628
v 0.01275232 0.00737410 0.16979945
v 0.01100959 0.00636797 0.16922247
v 0.01313177 0.01007622 0.16804902
v 0.01441815 0.00833984 0.16719145
v 0.01322856 0.00765307 0.16679756
v 0.01194208 0.00938946 0.16765521
v 0.01528086 0.00635643 0.16804426
v 0.01409116 0.00566965 0.16765036
v 0.01514824 0.00524965 0.17008617
v 0.01402475 0.00460108 0.16971425
v 0.01425782 0.00576010 0.17217380
v 0.01306822 0.00507333 0.17178001
v 0.01297144 0.00749650 0.17303155
v 0.01178184 0.00680972 0.17263765
v 0.01210873 0.00947991 0.17217865
v 0.01091915 0.00879314 0.17178475
v 0.01188507 0.01038094 0.17001877
v 0.01098554 0.00986165 0.16972097
v 0.01369480 0.00791817 0.17011140
v 0.01241098 0.00717702 0.16968644
v -0.00404757 0.01571265 0.16616029
v -0.00031384 0.01632337 0.16472131
v -0.00031387 0.01536170 0.16444548
v -0.00404761 0.01453918 0.16582381
v 0.00342343 0.01571482 0.16615188
v 0.00342339 0.01454136 0.16581540
v 0.00497503 0.01440656 0.16966100
v 0.00497499 0.01323300 0.16932450
v 0.00343205 0.01365560 0.17333350
v 0.00343201 0.01248213 0.17299701
v -0.00030167 0.01341124 0.17487760
v -0.00030170 0.01244957 0.17460188
v -0.00403896 0.01365351 0.17334191
v -0.00403900 0.01247995 0.17300543
v -0.00559057 0.01440350 0.16967277
v -0.00559061 0.01323003 0.16933628
v -0.00030776 0.01486736 0.16979945
v -0.00030782 0.01285494 0.16922247
v -0.00245820 0.01654694 0.16804902
v -0.00031122 0.01679278 0.16719145
v -0.00031127 0.01541921 0.16679756
v -0.00245824 0.01517337 0.16765521
v 0.00183781 0.01654823 0.16804426
v 0.00183776 0.01517456 0.16765036
v 0.00273000 0.01588000 0.17008617
v 0.00272996 0.01458283 0.16971425
v 0.00184275 0.01536418 0.17217380
v 0.00184271 0.01399051 0.17178001
v -0.00030422 0.01511824 0.17303155
v -0.00030426 0.01374466 0.17263765
v -0.00245325 0.01536289 0.17217865
v -0.00245329 0.01398921 0.17178475
v -0.00334546 0.01561961 0.17001877
v -0.00334549 0.01458105 0.16972097
v -0.00030772 0.01595551 0.17011140
v -0.00030777 0.01447317 0.16968644
v -0.01214862 -0.01141488 0.16616029
v -0.01454434 -0.00848676 0.16472131
v -0.01371153 -0.00800593 0.16444548
v -0.01113233 -0.01082821 0.16582381
v -0.01588595 -0.00494587 0.16615188
v -0.01486965 -0.00435915 0.16581540
v -0.01552878 -0.00294802 0.16966100
v -0.01451248 -0.00236131 0.16932450
v -0.01410701 -0.00390881 0.17333350
v -0.01309070 -0.00332211 0.17299701
v -0.01202847 -0.00702013 0.17487760
v -0.01119566 -0.00653932 0.17460188
v -0.01036958 -0.01037780 0.17334191
v -0.00935331 -0.00979111 0.17300543
v -0.01024329 -0.01209659 0.16967277
v -0.00922702 -0.01150990 0.16933628
v -0.01328646 -0.00775344 0.16979945
v -0.01154364 -0.00674733 0.16922247
v -0.01366580 -0.01045559 0.16804900
v -0.01495219 -0.00871918 0.16719145
v -0.01376260 -0.00803241 0.16679756
v -0.01247620 -0.00976882 0.16765521
v -0.01581489 -0.00673578 0.16804426
v -0.01462530 -0.00604899 0.16765036
v -0.01568227 -0.00562899 0.17008616
v -0.01455889 -0.00498043 0.16971423
v -0.01479196 -0.00613944 0.17217380
v -0.01360227 -0.00545266 0.17178001
v -0.01350547 -0.00787585 0.17303155
v -0.01231588 -0.00718908 0.17263765
v -0.01264287 -0.00985926 0.17217865
v -0.01145318 -0.00917248 0.17178475
v -0.01241910 -0.01076031 0.17001877
v -0.01151959 -0.01024104 0.16972097
v -0.01422883 -0.00829752 0.17011140
v -0.01294512 -0.00755638 0.16968644
v -0.01631281 0.03806765 0.03076630
v -0.02203790 0.03424224 0.03076630
v -0.01590654 0.03831567 0.03963957
v -0.02507464 0.02400479 0.00843138
v -0.02975049 0.02391898 0.01474951
v -0.02424548 0.02917725 0.01474951
v -0.02863432 0.02756437 0.01867141
v -0.02164461 0.03343565 0.02224089
v -0.02556295 0.03086980 0.02170468
v -0.00683536 0.04004038 0.03949161
v -0.01059750 0.03887681 0.03435379
v -0.00017322 0.04092664 0.04194750
v -0.00017322 0.04004126 0.04690125
v 0.00922629 0.03773046 0.04835776
v 0.01268028 0.02984450 0.05763651
v 0.01652360 0.02727657 0.05763651
v 0.01740709 0.03150637 0.05448021
v 0.01259358 0.02043778 0.05993851
v 0.01016738 0.02205897 0.05993851
v -0.02775549 0.02272414 0.01566792
v -0.02725995 0.02619000 0.01922583
v -0.02386456 0.02279471 0.00949183
v -0.02749600 0.01735987 0.00949183
v -0.02890648 0.01830225 0.00846078
v -0.02093560 0.03259254 0.03087922
v -0.01513132 0.03644408 0.03947667
v 0.01225580 0.02910966 0.05624433
v 0.01173889 0.03198962 0.05317652
v 0.01205886 0.03409864 0.05448021
v -0.02322424 0.02764889 0.01554729
v -0.02055744 0.03180852 0.02261391
v -0.02447578 0.02924267 0.02207770
v -0.01553858 0.03619864 0.03087922
v -0.01021024 0.03693001 0.03437338
v -0.00644774 0.03809179 0.03932862
v -0.00017324 0.03893539 0.04159162
v -0.00017324 0.03809210 0.04631011
v 0.00885333 0.03585552 0.04776652
v 0.01406574 0.03347929 0.05015513
v 0.01476622 0.03517046 0.05100269
v 0.01649570 0.03014249 0.05329152
v 0.01591900 0.02666187 0.05624433
v 0.01346994 0.01953955 0.05886778
v 0.01104374 0.02116064 0.05886778
v 0.01482877 0.03852716 0.03076630
v 0.00805312 0.03975238 0.03076630
v 0.01486094 0.03860871 0.03949151
v -0.00124287 0.03449778 0.00843138
v -0.00466591 0.03768415 0.01474951
v 0.00294675 0.03764248 0.01474951
v -0.00133074 0.03953099 0.01867141
v 0.00777572 0.03889908 0.02224089
v 0.00170310 0.03999714 0.02224089
v 0.02301669 0.03336271 0.03949161
v 0.01831848 0.03633828 0.03552903
v 0.02842471 0.02937231 0.04194750
v 0.02780961 0.02873546 0.04690125
v 0.03355461 0.02045411 0.04690125
v 0.02997246 0.01247165 0.05763651
v 0.03095314 0.00795469 0.05763651
v 0.03452707 0.01038362 0.05448021
v 0.02337555 0.00576530 0.05993851
v 0.02275651 0.00861684 0.05993851
v -0.00102395 0.03660609 0.01922583
v -0.00427590 0.03588778 0.01554729
v -0.00121301 0.03278671 0.00949183
v -0.00760060 0.03139978 0.00949183
v -0.00796054 0.03305749 0.00846078
v 0.00770007 0.03780003 0.03087922
v 0.01411848 0.03672396 0.03932862
v 0.03113277 0.01502848 0.05329152
v 0.02915657 0.01223798 0.05589219
v 0.03248062 0.01596353 0.05448021
v 0.00261966 0.03583374 0.01554729
v 0.00742748 0.03697327 0.02261391
v 0.00135487 0.03807141 0.02261391
v 0.01408741 0.03664498 0.03087922
v 0.01724468 0.03466889 0.03554852
v 0.02194190 0.03169173 0.03932862
v 0.02704143 0.02793995 0.04159162
v 0.02645564 0.02733328 0.04631011
v 0.03198380 0.01936447 0.04631011
v 0.03349394 0.01412392 0.05015513
v 0.03517264 0.01485380 0.05100269
v 0.03292399 0.01003555 0.05329152
v 0.03009133 0.00793249 0.05624433
v 0.02338199 0.00451033 0.05886778
v 0.02276285 0.00736188 0.05886778
v 0.03754946 0.01722498 0.03076630
v 0.03352651 0.02281311 0.03076630
v 0.03800877 0.01678834 0.03695348
v 0.02318930 0.02549080 0.00843138
v 0.02294049 0.03016069 0.01474951
v 0.02838759 0.02484265 0.01474951
v 0.02662250 0.02917241 0.01867141
v 0.03273417 0.02239200 0.02224089
v 0.02912866 0.02740028 0.02224089
v 0.03985175 0.00782220 0.03949161
v 0.03853914 0.01322637 0.03552903
v 0.04096999 0.00119506 0.04194750
v 0.04008511 0.00116417 0.04690125
v 0.03846501 -0.00878369 0.04690125
v 0.02935203 -0.01290989 0.05778615
v 0.02791086 -0.01596791 0.05763651
v 0.03216897 -0.01670333 0.05448021
v 0.02093916 -0.01227897 0.05993851
v 0.02247465 -0.00979771 0.05993851
v 0.02197318 0.02859760 0.01554729
v 0.02507176 0.02752191 0.01922583
v 0.02202217 0.02423924 0.00949183
v 0.01646392 0.02767878 0.00949183
v 0.01735661 0.02912123 0.00846078
v 0.03191629 0.02165390 0.03087922
v 0.03616539 0.01594829 0.03679047
v 0.03383776 -0.01240694 0.05110610
v 0.02860275 -0.01251125 0.05639407
v 0.03545688 -0.01267059 0.05229470
v 0.02689584 0.02376865 0.01554729
v 0.03114593 0.02124862 0.02261390
v 0.02754043 0.02625690 0.02261391
v 0.03570855 0.01638612 0.03087922
v 0.03660698 0.01277132 0.03554852
v 0.03791782 0.00736684 0.03932861
v 0.03897994 0.00112559 0.04159162
v 0.03813712 0.00109615 0.04631011
v 0.03657819 -0.00847639 0.04631011
v 0.03402412 -0.01329517 0.05015512
v 0.03573864 -0.01393619 0.05100267
v 0.03077411 -0.01584015 0.05329152
v 0.02727549 -0.01538518 0.05624433
v 0.02007200 -0.01318622 0.05886778
v 0.02160749 -0.01070488 0.05886778
v -0.04029780 0.01062579 0.03076630
v -0.04080818 0.00375915 0.03076630
v -0.04038232 0.01064925 0.03949151
v -0.03461051 -0.00493667 0.00843138
v -0.03742170 -0.00867400 0.01474951
v -0.03817604 -0.00109870 0.01474951
v -0.03960701 -0.00555016 0.01867141
v -0.03993044 0.00532371 0.02224089
v -0.04038776 -0.00258167 0.02224089
v -0.03601753 0.01930866 0.03949161
v -0.03848570 0.01432512 0.03552903
v -0.03072462 0.02607540 0.04083283
v -0.03191660 0.02455901 0.04690125
v -0.02428122 0.03113810 0.04690125
v -0.01596800 0.02840995 0.05763651
v -0.01157827 0.02985745 0.05763651
v -0.01436749 0.03315794 0.05448021
v -0.00860883 0.02255035 0.05993851
v -0.01138004 0.02163648 0.05993851
v -0.03722752 -0.00520188 0.01928273
v -0.03542224 -0.00784282 0.01554729
v -0.03291192 -0.00472809 0.00949183
v -0.03086497 -0.01093578 0.00949183
v -0.03247607 -0.01146695 0.00846078
v -0.03882952 0.00361211 0.03087922
v -0.03803728 0.00987542 0.03928556
v -0.01863212 0.02929670 0.05329152
v -0.01565032 0.02762306 0.05606856
v -0.01970295 0.03053944 0.05448021
v -0.03634294 -0.00123493 0.01554729
v -0.03797889 0.00517868 0.02261390
v -0.03843622 -0.00272670 0.02261390
v -0.03778937 0.01008513 0.03087922
v -0.03671319 0.01343174 0.03554852
v -0.03424333 0.01841438 0.03932862
v -0.02915549 0.02484948 0.04047703
v -0.03020337 0.02302777 0.04625015
v -0.02303323 0.02968990 0.04631011
v -0.01797932 0.03102350 0.05015513
v -0.01888073 0.03261669 0.05100269
v -0.01385374 0.03159998 0.05329152
v -0.01146614 0.02900276 0.05624433
v -0.00736142 0.02268782 0.05886778
v -0.01013265 0.02177405 0.05886778
v -0.03658561 -0.02029716 0.03076630
v -0.03218272 -0.02559106 0.03076630
v -0.03697614 -0.01855711 0.04165257
v -0.02168390 -0.02754113 0.00843138
v -0.02110989 -0.03218223 0.01474951
v -0.02691476 -0.02725709 0.01474951
v -0.02485197 -0.03145324 0.01867140
v -0.03142166 -0.02511563 0.02224089
v -0.02747560 -0.02986025 0.02224089
v -0.03953833 -0.01107790 0.03949161
v -0.04111607 -0.00454488 0.04194750
v -0.04023555 -0.00445232 0.04690125
v -0.03931327 0.00558433 0.04584150
v -0.03143819 0.00939666 0.05763651
v -0.02928603 0.01348726 0.05763651
v -0.03358500 0.01392381 0.05448021
v -0.02207394 0.01029365 0.05993851
v -0.02343256 0.00771131 0.05993851
v -0.02025401 -0.03055549 0.01554729
v -0.02290051 -0.02985362 0.01922583
v -0.02060693 -0.02621109 0.00949183
v -0.01482235 -0.02925457 0.00949183
v -0.01561212 -0.03075580 0.00846078
v -0.03065733 -0.02432240 0.03087922
v -0.03519591 -0.01759049 0.04148967
v -0.03397048 0.00818385 0.05329152
v -0.03066297 0.00905125 0.05559352
v -0.03560404 0.00833395 0.05448021
v -0.02550159 -0.02608175 0.01554729
v -0.02991705 -0.02386427 0.02261390
v -0.02597100 -0.02860890 0.02261390
v -0.03484457 -0.01898238 0.03087922
v -0.03764082 -0.01048875 0.03932861
v -0.03867522 -0.00428834 0.04159162
v -0.03766091 -0.00418173 0.04631011
v -0.03740953 0.00540940 0.04525026
v -0.03499599 0.01041578 0.05015512
v -0.03695298 0.01091449 0.05100269
v -0.03213324 0.01316007 0.05329152
v -0.02861157 0.01295035 0.05624433
v -0.02127220 0.01125919 0.05886778
v -0.02263082 0.00867677 0.05886778
v -0.01243444 -0.03996251 0.03076630
v -0.00558976 -0.04071210 0.03076630
v -0.01176404 -0.03969856 0.04034690
v 0.00331705 -0.03482181 0.00843138
v 0.00695401 -0.03776166 0.01474951
v 0.00080544 -0.03825116 0.01597126
v 0.00375581 -0.03983662 0.01867140
v -0.00537256 -0.03984147 0.02224089
v 0.00076186 -0.04051336 0.02224089
v -0.02096262 -0.03538177 0.03949161
v -0.02663577 -0.03177835 0.04194750
v -0.02606659 -0.03110012 0.04690125
v -0.03237532 -0.02323979 0.04690125
v -0.02935867 -0.01400568 0.05763651
v -0.03065209 -0.01058929 0.05763651
v -0.03161713 -0.01868518 0.05448021
v -0.03438001 -0.01776596 0.05100267
v -0.02324571 -0.00787665 0.05993851
v -0.02242923 -0.01067806 0.05993851
v 0.00643965 -0.03599686 0.01554729
v 0.00380502 -0.03763993 0.01939555
v 0.00316789 -0.03311699 0.00949183
v 0.00944319 -0.03128785 0.00949183
v 0.00991789 -0.03291648 0.00846078
v -0.00537376 -0.03873986 0.03087921
v -0.01115488 -0.03776661 0.04018399
v -0.03003789 -0.01730091 0.05329152
v -0.02856109 -0.01371570 0.05624433
v 0.00100556 -0.03642391 0.01676904
v -0.00515951 -0.03789616 0.02261390
v 0.00097493 -0.03856794 0.02261390
v -0.01129542 -0.03740072 0.03087921
v -0.02000699 -0.03363994 0.03932861
v -0.02490769 -0.02971892 0.04159162
v -0.02461316 -0.02936798 0.04631011
v -0.03088436 -0.02204316 0.04631011
v -0.03249358 -0.01660754 0.05015512
v -0.02979393 -0.01050705 0.05624433
v -0.02333963 -0.00662520 0.05886778
v -0.02252315 -0.00942660 0.05886778
v 0.01810977 -0.03733174 0.02947060
v 0.02404359 -0.03311629 0.03076630
v 0.01863835 -0.03741023 0.03949151
v 0.02635884 -0.02269199 0.00843138
v 0.03101727 -0.02228028 0.01474951
v 0.02658172 -0.02790968 0.01564150
v 0.03078232 -0.02523765 0.01971829
v 0.02359507 -0.03233910 0.02224089
v 0.02875060 -0.02931068 0.02273721
v 0.00928253 -0.03996082 0.03949161
v 0.01463757 -0.03846047 0.03552903
v 0.00300825 -0.04130966 0.04318866
v 0.00248469 -0.04042648 0.04613661
v -0.00736165 -0.03915454 0.04690125
v -0.01089678 -0.03115109 0.05763651
v -0.01403376 -0.02885751 0.05763651
v -0.01390946 -0.03313867 0.05512361
v -0.01146644 -0.02176130 0.05993851
v -0.00893310 -0.02320920 0.05993851
v 0.02931552 -0.02396254 0.02027272
v 0.02942131 -0.02136809 0.01554729
v 0.02506731 -0.02156920 0.00949183
v 0.02831079 -0.01589428 0.00949183
v 0.02978353 -0.01673610 0.00846078
v 0.02282895 -0.03154755 0.03087921
v 0.01771804 -0.03536238 0.03932861
v -0.00977313 -0.03372426 0.05329152
v -0.01052456 -0.03038845 0.05577541
v -0.00998014 -0.03535159 0.05448021
v 0.02545636 -0.02645634 0.01643919
v 0.02239695 -0.03079173 0.02261390
v 0.02755260 -0.02776331 0.02311022
v 0.01720718 -0.03552132 0.02958352
v 0.01411541 -0.03654534 0.03554852
v 0.00875994 -0.03804401 0.03932861
v 0.00285520 -0.03912079 0.04283277
v 0.00234873 -0.03848205 0.04554539
v -0.00712038 -0.03725800 0.04631011
v -0.01205470 -0.03445365 0.04995283
v -0.01260616 -0.03660957 0.05100267
v -0.01309546 -0.03171452 0.05393500
v -0.01347361 -0.02820224 0.05624433
v -0.01240337 -0.02092630 0.05886778
v -0.00987001 -0.02237430 0.05886778
v 0.03909554 -0.01388156 0.03076630
v 0.04008353 -0.00706725 0.03076630
v 0.03917808 -0.01391086 0.03949151
v 0.03450768 0.00203970 0.00843138
v 0.03757261 0.00557185 0.01474951
v 0.03891472 -0.00203762 0.01672233
v 0.03953475 0.00230318 0.01867141
v 0.03922103 -0.00681979 0.02224089
v 0.04010650 -0.00071255 0.02224089
v 0.03433795 -0.02224476 0.04071941
v 0.03042069 -0.02778865 0.04194750
v 0.02976275 -0.02719622 0.04690125
v 0.02188717 -0.03322664 0.04744596
v 0.01358434 -0.02992527 0.05763651
v 0.00910438 -0.03106311 0.05763651
v 0.01264870 -0.03340677 0.05534194
v 0.00665188 -0.02356647 0.05993851
v 0.00948007 -0.02284826 0.05993851
v 0.03579099 0.00511938 0.01554729
v 0.03723702 0.00252273 0.01922583
v 0.03279870 0.00195014 0.00949183
v 0.03118967 0.00828544 0.00949183
v 0.03283383 0.00870301 0.00846078
v 0.03812000 -0.00678254 0.03087922
v 0.03726859 -0.01323461 0.03932861
v 0.01618018 -0.03099571 0.05329152
v 0.01332238 -0.02911809 0.05574206
v 0.01716165 -0.03231010 0.05448021
v 0.03709559 -0.00177386 0.01752002
v 0.03728432 -0.00653898 0.02261390
v 0.03816979 -0.00043175 0.02261390
v 0.03697020 -0.01300966 0.03087922
v 0.03263055 -0.02122885 0.04055650
v 0.02894092 -0.02645625 0.04159162
v 0.02831425 -0.02589193 0.04631011
v 0.02074340 -0.03169492 0.04685473
v 0.01535854 -0.03338697 0.05015512
v 0.01614653 -0.03503915 0.05100267
v 0.01224491 -0.03181684 0.05415333
v 0.00905212 -0.03020258 0.05624433
v 0.00539790 -0.02361675 0.05886778
v 0.00822609 -0.02289844 0.05886778
f 4 1 2
f 2 3 4
f 3 2 5
f 5 6 3
f 6 5 7
f 7 8 6
f 8 7 9
f 9 10 8
f 10 9 11
f 11 12 10
f 12 11 13
f 13 14 12
f 14 13 15
f 15 16 14
f 16 15 17
f 17 18 16
f 18 17 19
f 19 20 18
f 20 19 21
f 21 22 20
f 22 21 23
f 23 24 22
f 24 23 25
f 25 26 24
f 26 25 27
f 27 28 26
f 28 27 29
f 29 30 28
f 30 29 31
f 31 32 30
f 32 31 1
f 1 4 32
f 33 34 35
f 36 33 35
f 37 36 35
f 38 37 35
f 39 38 35
f 40 39 35
f 41 40 35
f 42 41 35
f 43 42 35
f 44 43 35
f 45 44 35
f 46 45 35
f 47 46 35
f 48 47 35
f 49 48 35
f 34 49 35
f 53 50 51
f 51 52 53
f 52 51 54
f 54 55 52
f 55 54 56
f 56 57 55
f 57 56 58
f 58 59 57
f 61 59 58
f 58 60 61
f 61 60 62
f 62 63 61
f 63 62 64
f 64 65 63
f 65 64 66
f 66 67 65
f 67 66 68
f 68 69 67
f 69 68 70
f 70 71 69
f 71 70 72
f 72 73 71
f 73 72 74
f 74 75 73
f 75 74 76
f 76 77 75
f 77 76 78
f 78 79 77
f 79 78 80
f 80 81 79
f 81 80 50
f 50 53 81
f 85 82 83
f 83 84 85
f 84 83 86
f 86 87 84
f 87 86 88
f 88 89 87
f 89 88 90
f 90 91 89
f 91 90 92
f 92 93 91
f 93 92 94
f 94 95 93
f 95 94 96
f 96 97 95
f 97 96 98
f 98 99 97
f 99 98 100
f 100 101 99
f 101 100 102
f 102 103 101
f 103 102 104
f 104 105 103
f 105 104 106
f 106 107 105
f 107 106 108
f 108 109 107
f 109 108 110
f 110 111 109
f 111 110 112
f 112 113 111
f 113 112 82
f 82 85 113
f 117 114 115
f 115 116 117
f 119 118 114
f 114 117 119
f 121 120 118
f 118 119 121
f 123 122 120
f 120 121 123
f 125 124 122
f 122 123 125
f 127 126 124
f 124 125 127
f 129 128 126
f 126 127 129
f 131 130 128
f 128 129 131
f 133 132 130
f 130 131 133
f 135 134 132
f 132 133 135
f 137 136 134
f 134 135 137
f 139 138 136
f 136 137 139
f 141 140 138
f 138 139 141
f 143 142 140
f 140 141 143
f 142 143 144
f 144 145 142
f 116 115 145
f 145 144 116
f 149 146 147
f 147 148 149
f 151 150 146
f 146 149 151
f 153 152 150
f 150 151 153
f 155 154 152
f 152 153 155
f 157 156 154
f 154 155 157
f 159 158 156
f 156 157 159
f 161 160 158
f 158 159 161
f 163 162 160
f 160 161 163
f 165 164 162
f 162 163 165
f 167 166 164
f 164 165 167
f 169 168 166
f 166 167 169
f 171 170 168
f 168 169 171
f 173 172 170
f 170 171 173
f 175 174 172
f 172 173 175
f 177 176 174
f 174 175 177
f 148 147 176
f 176 177 148
f 50 178 179
f 179 51 50
f 51 179 180
f 180 54 51
f 54 180 181
f 181 56 54
f 56 181 182
f 182 58 56
f 58 182 60
f 60 182 183
f 62 184 185
f 185 64 62
f 64 185 186
f 186 66 64
f 66 186 187
f 187 68 66
f 68 187 188
f 188 70 68
f 70 188 189
f 189 72 70
f 72 189 190
f 190 74 72
f 74 190 191
f 191 76 74
f 76 191 192
f 192 78 76
f 78 192 193
f 193 80 78
f 80 193 178
f 178 50 80
f 197 194 195
f 195 196 197
f 196 195 198
f 198 195 199
f 200 201 199
f 199 201 198
f 201 200 202
f 202 203 201
f 203 202 204
f 204 205 203
f 205 204 206
f 206 207 205
f 207 206 208
f 208 209 207
f 209 208 210
f 210 211 209
f 211 210 212
f 212 213 211
f 213 212 214
f 214 215 213
f 215 214 216
f 216 217 215
f 217 216 218
f 218 219 217
f 219 218 220
f 220 221 219
f 221 220 222
f 222 223 221
f 223 222 224
f 224 225 223
f 225 224 194
f 194 197 225
f 178 226 227
f 227 179 178
f 179 227 228
f 228 180 179
f 180 228 229
f 229 181 180
f 181 229 230
f 230 182 181
f 183 182 230
f 230 231 183
f 184 232 233
f 233 185 184
f 185 233 234
f 234 186 185
f 186 234 235
f 235 187 186
f 187 235 236
f 236 188 187
f 188 236 237
f 237 189 188
f 189 237 238
f 238 190 189
f 190 238 239
f 239 191 190
f 191 239 240
f 240 192 191
f 192 240 241
f 241 193 192
f 193 241 226
f 226 178 193
f 194 242 243
f 243 195 194
f 195 243 244
f 244 199 195
f 200 199 244
f 244 245 200
f 200 245 246
f 246 202 200
f 202 246 247
f 247 204 202
f 204 247 248
f 248 206 204
f 206 248 249
f 249 208 206
f 208 249 250
f 250 210 208
f 210 250 251
f 251 212 210
f 212 251 252
f 252 214 212
f 214 252 253
f 253 216 214
f 216 253 254
f 254 218 216
f 218 254 255
f 255 220 218
f 220 255 256
f 256 222 220
f 222 256 257
f 257 224 222
f 224 257 242
f 242 194 224
f 257 81 53
f 53 242 257
f 256 79 81
f 81 257 256
f 255 77 79
f 79 256 255
f 254 75 77
f 77 255 254
f 253 73 75
f 75 254 253
f 252 71 73
f 73 253 252
f 251 69 71
f 71 252 251
f 250 67 69
f 69 251 250
f 249 65 67
f 67 250 249
f 248 63 65
f 65 249 248
f 247 61 63
f 63 248 247
f 246 245 57
f 57 59 246
f 244 55 57
f 57 245 244
f 243 52 55
f 55 244 243
f 242 53 52
f 52 243 242
f 146 117 116
f 116 147 146
f 150 119 117
f 117 146 150
f 152 121 119
f 119 150 152
f 154 123 121
f 121 152 154
f 156 125 123
f 123 154 156
f 158 127 125
f 125 156 158
f 160 129 127
f 127 158 160
f 162 131 129
f 129 160 162
f 164 133 131
f 131 162 164
f 166 135 133
f 133 164 166
f 168 137 135
f 135 166 168
f 170 139 137
f 137 168 170
f 172 141 139
f 139 170 172
f 174 143 141
f 141 172 174
f 176 144 143
f 143 174 176
f 147 116 144
f 144 176 147
f 115 197 196
f 196 145 115
f 196 198 145
f 145 198 142
f 140 201 203
f 203 138 140
f 138 203 205
f 205 136 138
f 136 205 207
f 207 134 136
f 134 207 209
f 209 132 134
f 132 209 211
f 211 130 132
f 130 211 213
f 213 128 130
f 128 213 215
f 215 126 128
f 126 215 217
f 217 124 126
f 124 217 219
f 219 122 124
f 122 219 221
f 221 120 122
f 120 221 223
f 223 118 120
f 118 223 225
f 225 114 118
f 114 225 197
f 197 115 114
f 82 34 33
f 33 83 82
f 84 227 226
f 226 85 84
f 83 33 36
f 36 86 83
f 87 228 227
f 227 84 87
f 86 36 37
f 37 88 86
f 89 229 228
f 228 87 89
f 88 37 38
f 38 90 88
f 91 230 229
f 229 89 91
f 90 38 39
f 39 92 90
f 231 230 93
f 93 230 91
f 92 39 40
f 40 94 92
f 93 95 231
f 231 95 232
f 94 40 41
f 41 96 94
f 97 233 232
f 232 95 97
f 96 41 42
f 42 98 96
f 99 234 233
f 233 97 99
f 98 42 43
f 43 100 98
f 101 235 234
f 234 99 101
f 100 43 44
f 44 102 100
f 103 236 235
f 235 101 103
f 102 44 45
f 45 104 102
f 105 237 236
f 236 103 105
f 104 45 46
f 46 106 104
f 107 238 237
f 237 105 107
f 106 46 47
f 47 108 106
f 109 239 238
f 238 107 109
f 108 47 48
f 48 110 108
f 111 240 239
f 239 109 111
f 110 48 49
f 49 112 110
f 113 241 240
f 240 111 113
f 112 49 34
f 34 82 112
f 85 226 241
f 241 113 85
f 261 258 259
f 259 260 261
f 263 262 258
f 258 261 263
f 265 264 262
f 262 263 265
f 267 266 264
f 264 265 267
f 269 268 266
f 266 267 269
f 271 270 268
f 268 269 271
f 273 272 270
f 270 271 273
f 275 274 272
f 272 273 275
f 277 276 274
f 274 275 277
f 279 278 276
f 276 277 279
f 281 280 278
f 278 279 281
f 283 282 280
f 280 281 283
f 285 284 282
f 282 283 285
f 287 286 284
f 284 285 287
f 289 288 286
f 286 287 289
f 260 259 288
f 288 289 260
f 291 261 260
f 260 290 291
f 292 263 261
f 261 291 292
f 293 265 263
f 263 292 293
f 294 267 265
f 265 293 294
f 295 269 267
f 267 294 295
f 296 271 269
f 269 295 296
f 297 273 271
f 271 296 297
f 298 275 273
f 273 297 298
f 299 277 275
f 275 298 299
f 300 279 277
f 277 299 300
f 301 281 279
f 279 300 301
f 302 283 281
f 281 301 302
f 303 285 283
f 283 302 303
f 304 287 285
f 285 303 304
f 305 289 287
f 287 304 305
f 290 260 289
f 289 305 290
f 307 148 177
f 177 306 307
f 306 177 175
f 175 308 306
f 308 175 173
f 173 309 308
f 309 173 171
f 171 310 309
f 310 171 169
f 169 311 310
f 311 169 167
f 167 312 311
f 312 167 165
f 165 313 312
f 313 165 163
f 163 314 313
f 314 163 161
f 161 315 314
f 315 161 159
f 159 316 315
f 316 159 157
f 157 317 316
f 317 157 155
f 155 318 317
f 318 155 153
f 153 319 318
f 319 153 151
f 151 320 319
f 320 151 149
f 149 321 320
f 321 149 148
f 148 307 321
f 325 322 323
f 323 324 325
f 327 326 322
f 322 325 327
f 329 328 326
f 326 327 329
f 331 330 328
f 328 329 331
f 333 332 330
f 330 331 333
f 335 334 332
f 332 333 335
f 337 336 334
f 334 335 337
f 339 338 336
f 336 337 339
f 341 340 338
f 338 339 341
f 343 342 340
f 340 341 343
f 345 344 342
f 342 343 345
f 347 346 344
f 344 345 347
f 349 348 346
f 346 347 349
f 351 350 348
f 348 349 351
f 353 352 350
f 350 351 353
f 324 323 352
f 352 353 324
f 1 354 355
f 355 2 1
f 2 355 356
f 356 5 2
f 5 356 357
f 357 7 5
f 7 357 358
f 358 9 7
f 9 358 359
f 359 11 9
f 11 359 360
f 360 13 11
f 13 360 361
f 361 15 13
f 15 361 362
f 362 17 15
f 17 362 363
f 363 19 17
f 19 363 364
f 364 21 19
f 21 364 365
f 365 23 21
f 23 365 366
f 366 25 23
f 25 366 367
f 367 27 25
f 27 367 368
f 368 29 27
f 29 368 369
f 369 31 29
f 31 369 354
f 354 1 31
f 354 370 371
f 371 355 354
f 355 371 372
f 372 356 355
f 356 372 373
f 373 357 356
f 357 373 374
f 374 358 357
f 358 374 375
f 375 359 358
f 359 375 376
f 376 360 359
f 360 376 377
f 377 361 360
f 361 377 378
f 378 362 361
f 362 378 379
f 379 363 362
f 363 379 380
f 380 364 363
f 364 380 381
f 381 365 364
f 365 381 382
f 382 366 365
f 366 382 383
f 383 367 366
f 367 383 384
f 384 368 367
f 368 384 385
f 385 369 368
f 369 385 370
f 370 354 369
f 370 307 306
f 306 371 370
f 371 306 308
f 308 372 371
f 372 308 309
f 309 373 372
f 373 309 310
f 310 374 373
f 374 310 311
f 311 375 374
f 375 311 312
f 312 376 375
f 376 312 313
f 313 377 376
f 377 313 314
f 314 378 377
f 378 314 315
f 315 379 378
f 379 315 316
f 316 380 379
f 380 316 317
f 317 381 380
f 381 317 318
f 318 382 381
f 382 318 319
f 319 383 382
f 383 319 320
f 320 384 383
f 384 320 321
f 321 385 384
f 385 321 307
f 307 370 385
f 258 325 324
f 324 259 258
f 262 327 325
f 325 258 262
f 264 329 327
f 327 262 264
f 266 331 329
f 329 264 266
f 268 333 331
f 331 266 268
f 270 335 333
f 333 268 270
f 272 337 335
f 335 270 272
f 274 339 337
f 337 272 274
f 276 341 339
f 339 274 276
f 278 343 341
f 341 276 278
f 280 345 343
f 343 278 280
f 282 347 345
f 345 280 282
f 284 349 347
f 347 282 284
f 286 351 349
f 349 284 286
f 288 353 351
f 351 286 288
f 259 324 353
f 353 288 259
f 322 32 4
f 4 323 322
f 326 30 32
f 32 322 326
f 328 28 30
f 30 326 328
f 330 26 28
f 28 328 330
f 332 24 26
f 26 330 332
f 334 22 24
f 24 332 334
f 336 20 22
f 22 334 336
f 338 18 20
f 20 336 338
f 340 16 18
f 18 338 340
f 342 14 16
f 16 340 342
f 344 12 14
f 14 342 344
f 346 10 12
f 12 344 346
f 348 8 10
f 10 346 348
f 350 6 8
f 8 348 350
f 352 3 6
f 6 350 352
f 323 4 3
f 3 352 323
f 183 184 60
f 60 184 62
f 232 184 183
f 183 231 232
f 247 246 59
f 59 61 247
f 142 198 140
f 140 198 201
f 386 387 388
f 389 386 388
f 390 389 388
f 391 390 388
f 392 391 388
f 393 392 388
f 394 393 388
f 395 394 388
f 396 395 388
f 397 396 388
f 398 397 388
f 399 398 388
f 400 399 388
f 401 400 388
f 402 401 388
f 387 402 388
f 403 404 405
f 404 406 405
f 406 407 405
f 407 408 405
f 408 409 405
f 409 410 405
f 410 411 405
f 411 412 405
f 412 413 405
f 413 414 405
f 414 415 405
f 415 416 405
f 416 417 405
f 417 418 405
f 418 419 405
f 419 403 405
f 423 420 421
f 421 422 423
f 425 421 420
f 420 424 425
f 427 425 424
f 424 426 427
f 429 427 426
f 426 428 429
f 431 429 428
f 428 430 431
f 433 431 430
f 430 432 433
f 435 433 432
f 432 434 435
f 437 435 434
f 434 436 437
f 439 437 436
f 436 438 439
f 441 439 438
f 438 440 441
f 443 441 440
f 440 442 443
f 445 443 442
f 442 444 445
f 447 445 444
f 444 446 447
f 449 447 446
f 446 448 449
f 451 449 448
f 448 450 451
f 422 451 450
f 450 423 422
f 455 452 453
f 453 454 455
f 454 453 456
f 456 457 454
f 457 456 458
f 458 459 457
f 459 458 460
f 460 461 459
f 461 460 462
f 462 463 461
f 463 462 464
f 464 465 463
f 465 464 466
f 466 467 465
f 467 466 468
f 468 469 467
f 469 468 470
f 470 471 469
f 471 470 472
f 472 473 471
f 473 472 474
f 474 475 473
f 475 474 476
f 476 477 475
f 477 476 478
f 478 479 477
f 479 478 480
f 480 481 479
f 481 480 482
f 482 483 481
f 483 482 452
f 452 455 483
f 487 484 485
f 485 486 487
f 486 485 488
f 488 489 486
f 489 488 490
f 490 491 489
f 491 490 492
f 492 493 491
f 493 492 494
f 494 495 493
f 495 494 496
f 496 497 495
f 497 496 498
f 498 499 497
f 499 498 500
f 500 501 499
f 501 500 502
f 502 503 501
f 503 502 504
f 504 505 503
f 505 504 506
f 506 507 505
f 507 506 508
f 508 509 507
f 509 508 510
f 510 511 509
f 511 510 512
f 512 513 511
f 513 512 514
f 514 515 513
f 515 514 484
f 484 487 515
f 519 516 517
f 517 518 519
f 521 520 516
f 516 519 521
f 523 522 520
f 520 521 523
f 525 524 522
f 522 523 525
f 527 526 524
f 524 525 527
f 529 528 526
f 526 527 529
f 531 530 528
f 528 529 531
f 533 532 530
f 530 531 533
f 535 534 532
f 532 533 535
f 537 536 534
f 534 535 537
f 539 538 536
f 536 537 539
f 541 540 538
f 538 539 541
f 543 542 540
f 540 541 543
f 545 544 542
f 542 543 545
f 547 546 544
f 544 545 547
f 518 517 546
f 546 547 518
f 551 548 549
f 549 550 551
f 553 552 548
f 548 551 553
f 555 554 552
f 552 553 555
f 557 556 554
f 554 555 557
f 559 558 556
f 556 557 559
f 561 560 558
f 558 559 561
f 563 562 560
f 560 561 563
f 565 564 562
f 562 563 565
f 567 566 564
f 564 565 567
f 569 568 566
f 566 567 569
f 571 570 568
f 568 569 571
f 573 572 570
f 570 571 573
f 575 574 572
f 572 573 575
f 577 576 574
f 574 575 577
f 579 578 576
f 576 577 579
f 550 549 578
f 578 579 550
f 421 452 482
f 482 422 421
f 423 521 519
f 519 420 423
f 420 519 518
f 518 424 420
f 425 453 452
f 452 421 425
f 424 518 547
f 547 426 424
f 427 456 453
f 453 425 427
f 426 547 545
f 545 428 426
f 429 458 456
f 456 427 429
f 428 545 543
f 543 430 428
f 431 460 458
f 458 429 431
f 430 543 541
f 541 432 430
f 433 462 460
f 460 431 433
f 432 541 539
f 539 434 432
f 435 464 462
f 462 433 435
f 434 539 537
f 537 436 434
f 437 466 464
f 464 435 437
f 436 537 535
f 535 438 436
f 439 468 466
f 466 437 439
f 438 535 533
f 533 440 438
f 441 470 468
f 468 439 441
f 440 533 531
f 531 442 440
f 443 472 470
f 470 441 443
f 442 531 529
f 529 444 442
f 445 474 472
f 472 443 445
f 444 529 527
f 527 446 444
f 447 476 474
f 474 445 447
f 446 527 525
f 525 448 446
f 449 478 476
f 476 447 449
f 448 525 523
f 523 450 448
f 451 480 478
f 478 449 451
f 450 523 521
f 521 423 450
f 422 482 480
f 480 451 422
f 581 553 551
f 551 580 581
f 582 555 553
f 553 581 582
f 583 557 555
f 555 582 583
f 584 559 557
f 557 583 584
f 585 561 559
f 559 584 585
f 586 563 561
f 561 585 586
f 587 565 563
f 563 586 587
f 588 567 565
f 565 587 588
f 589 569 567
f 567 588 589
f 590 571 569
f 569 589 590
f 591 573 571
f 571 590 591
f 592 575 573
f 573 591 592
f 593 577 575
f 575 592 593
f 594 579 577
f 577 593 594
f 595 550 579
f 579 594 595
f 580 551 550
f 550 595 580
f 597 581 580
f 580 596 597
f 598 582 581
f 581 597 598
f 599 583 582
f 582 598 599
f 600 584 583
f 583 599 600
f 601 585 584
f 584 600 601
f 602 586 585
f 585 601 602
f 603 587 586
f 586 602 603
f 604 588 587
f 587 603 604
f 605 589 588
f 588 604 605
f 606 590 589
f 589 605 606
f 607 591 590
f 590 606 607
f 608 592 591
f 591 607 608
f 609 593 592
f 592 608 609
f 610 594 593
f 593 609 610
f 611 595 594
f 594 610 611
f 596 580 595
f 595 611 596
f 549 454 457
f 457 578 549
f 578 457 459
f 459 576 578
f 576 459 461
f 461 574 576
f 574 461 463
f 463 572 574
f 572 463 465
f 465 570 572
f 570 465 467
f 467 568 570
f 568 467 469
f 469 566 568
f 566 469 471
f 471 564 566
f 564 471 473
f 473 562 564
f 562 473 475
f 475 560 562
f 560 475 477
f 477 558 560
f 558 477 479
f 479 556 558
f 556 479 481
f 481 554 556
f 554 481 483
f 483 552 554
f 552 483 455
f 455 548 552
f 548 455 454
f 454 549 548
f 485 612 613
f 613 488 485
f 488 613 614
f 614 490 488
f 490 614 615
f 615 492 490
f 492 615 616
f 616 494 492
f 494 616 617
f 617 496 494
f 496 617 618
f 618 498 496
f 498 618 619
f 619 500 498
f 500 619 620
f 620 502 500
f 502 620 621
f 621 504 502
f 504 621 622
f 622 506 504
f 506 622 623
f 623 508 506
f 508 623 624
f 624 510 508
f 510 624 625
f 625 512 510
f 512 625 626
f 626 514 512
f 514 626 627
f 627 484 514
f 484 627 612
f 612 485 484
f 520 515 487
f 487 516 520
f 522 513 515
f 515 520 522
f 524 511 513
f 513 522 524
f 526 509 511
f 511 524 526
f 528 507 509
f 509 526 528
f 530 505 507
f 507 528 530
f 532 503 505
f 505 530 532
f 534 501 503
f 503 532 534
f 536 499 501
f 501 534 536
f 538 497 499
f 499 536 538
f 540 495 497
f 497 538 540
f 542 493 495
f 495 540 542
f 544 491 493
f 493 542 544
f 546 489 491
f 491 544 546
f 517 486 489
f 489 546 517
f 516 487 486
f 486 517 516
f 631 628 629
f 629 630 631
f 630 629 632
f 632 633 630
f 633 632 634
f 634 635 633
f 635 634 636
f 636 637 635
f 637 636 638
f 638 639 637
f 639 638 640
f 640 641 639
f 641 640 642
f 642 643 641
f 643 642 644
f 644 645 643
f 645 644 646
f 646 647 645
f 647 646 648
f 648 649 647
f 649 648 650
f 650 651 649
f 651 650 652
f 652 653 651
f 653 652 654
f 654 655 653
f 655 654 656
f 656 657 655
f 657 656 658
f 658 659 657
f 659 658 628
f 628 631 659
f 663 660 661
f 661 662 663
f 662 661 664
f 664 665 662
f 665 664 666
f 666 667 665
f 667 666 668
f 668 669 667
f 669 668 670
f 670 671 669
f 671 670 672
f 672 673 671
f 673 672 674
f 674 675 673
f 675 674 676
f 676 677 675
f 677 676 678
f 678 679 677
f 679 678 680
f 680 681 679
f 681 680 682
f 682 683 681
f 683 682 684
f 684 685 683
f 685 684 686
f 686 687 685
f 687 686 688
f 688 689 687
f 689 688 690
f 690 691 689
f 691 690 660
f 660 663 691
f 628 692 693
f 693 629 628
f 630 613 612
f 612 631 630
f 629 693 694
f 694 632 629
f 633 614 613
f 613 630 633
f 632 694 695
f 695 634 632
f 635 615 614
f 614 633 635
f 634 695 696
f 696 636 634
f 637 616 615
f 615 635 637
f 636 696 697
f 697 638 636
f 639 617 616
f 616 637 639
f 638 697 698
f 698 640 638
f 641 618 617
f 617 639 641
f 640 698 699
f 699 642 640
f 643 619 618
f 618 641 643
f 642 699 700
f 700 644 642
f 645 620 619
f 619 643 645
f 644 700 701
f 701 646 644
f 647 621 620
f 620 645 647
f 646 701 702
f 702 648 646
f 649 622 621
f 621 647 649
f 648 702 703
f 703 650 648
f 651 623 622
f 622 649 651
f 650 703 704
f 704 652 650
f 653 624 623
f 623 651 653
f 652 704 705
f 705 654 652
f 655 625 624
f 624 653 655
f 654 705 706
f 706 656 654
f 657 626 625
f 625 655 657
f 656 706 707
f 707 658 656
f 659 627 626
f 626 657 659
f 658 707 692
f 692 628 658
f 631 612 627
f 627 659 631
f 660 708 709
f 709 661 660
f 661 709 710
f 710 664 661
f 664 710 711
f 711 666 664
f 666 711 712
f 712 668 666
f 668 712 713
f 713 670 668
f 670 713 714
f 714 672 670
f 672 714 715
f 715 674 672
f 674 715 716
f 716 676 674
f 676 716 717
f 717 678 676
f 678 717 718
f 718 680 678
f 680 718 719
f 719 682 680
f 682 719 720
f 720 684 682
f 684 720 721
f 721 686 684
f 686 721 722
f 722 688 686
f 688 722 723
f 723 690 688
f 690 723 708
f 708 660 690
f 708 386 389
f 389 709 708
f 709 389 390
f 390 710 709
f 710 390 391
f 391 711 710
f 711 391 392
f 392 712 711
f 712 392 393
f 393 713 712
f 713 393 394
f 394 714 713
f 714 394 395
f 395 715 714
f 715 395 396
f 396 716 715
f 716 396 397
f 397 717 716
f 717 397 398
f 398 718 717
f 718 398 399
f 399 719 718
f 719 399 400
f 400 720 719
f 720 400 401
f 401 721 720
f 721 401 402
f 402 722 721
f 722 402 387
f 387 723 722
f 723 387 386
f 386 708 723
f 706 689 691
f 691 707 706
f 705 687 689
f 689 706 705
f 704 685 687
f 687 705 704
f 703 683 685
f 685 704 703
f 702 681 683
f 683 703 702
f 701 679 681
f 681 702 701
f 700 677 679
f 679 701 700
f 699 675 677
f 677 700 699
f 698 673 675
f 675 699 698
f 697 671 673
f 673 698 697
f 696 669 671
f 671 697 696
f 695 667 669
f 669 696 695
f 694 665 667
f 667 695 694
f 693 662 665
f 665 694 693
f 692 663 662
f 662 693 692
f 707 691 663
f 663 692 707
f 725 596 611
f 611 724 725
f 724 611 610
f 610 726 724
f 726 610 609
f 609 727 726
f 727 609 608
f 608 728 727
f 728 608 607
f 607 729 728
f 729 607 606
f 606 730 729
f 730 606 605
f 605 731 730
f 731 605 604
f 604 732 731
f 732 604 603
f 603 733 732
f 733 603 602
f 602 734 733
f 734 602 601
f 601 735 734
f 735 601 600
f 600 736 735
f 736 600 599
f 599 737 736
f 737 599 598
f 598 738 737
f 738 598 597
f 597 739 738
f 739 597 596
f 596 725 739
f 403 725 724
f 724 404 403
f 404 724 726
f 726 406 404
f 406 726 727
f 727 407 406
f 407 727 728
f 728 408 407
f 408 728 729
f 729 409 408
f 409 729 730
f 730 410 409
f 410 730 731
f 731 411 410
f 411 731 732
f 732 412 411
f 412 732 733
f 733 413 412
f 413 733 734
f 734 414 413
f 414 734 735
f 735 415 414
f 415 735 736
f 736 416 415
f 416 736 737
f 737 417 416
f 417 737 738
f 738 418 417
f 418 738 739
f 739 419 418
f 419 739 725
f 725 403 419
f 743 740 741
f 741 742 743
f 742 741 744
f 744 745 742
f 745 744 746
f 746 747 745
f 747 746 748
f 748 749 747
f 749 748 750
f 750 751 749
f 751 750 752
f 752 753 751
f 753 752 754
f 754 755 753
f 755 754 756
f 756 757 755
f 757 756 758
f 758 759 757
f 759 758 760
f 760 761 759
f 761 760 762
f 762 763 761
f 763 762 740
f 740 743 763
f 741 740 764
f 744 741 764
f 746 744 764
f 748 746 764
f 750 748 764
f 752 750 764
f 754 752 764
f 756 754 764
f 758 756 764
f 760 758 764
f 762 760 764
f 740 762 764
f 743 742 765
f 742 745 765
f 745 747 765
f 747 749 765
f 749 751 765
f 751 753 765
f 753 755 765
f 755 757 765
f 757 759 765
f 759 761 765
f 761 763 765
f 763 743 765
f 769 766 767
f 767 768 769
f 768 767 770
f 770 771 768
f 771 770 772
f 772 773 771
f 773 772 774
f 774 775 773
f 775 774 776
f 776 777 775
f 777 776 778
f 778 779 777
f 779 778 780
f 780 781 779
f 781 780 782
f 782 783 781
f 783 782 784
f 784 785 783
f 785 784 786
f 786 787 785
f 787 786 788
f 788 789 787
f 789 788 790
f 790 791 789
f 791 790 792
f 792 793 791
f 793 792 794
f 794 795 793
f 795 794 796
f 796 797 795
f 797 796 766
f 766 769 797
f 767 766 798
f 770 767 798
f 772 770 798
f 774 772 798
f 776 774 798
f 778 776 798
f 780 778 798
f 782 780 798
f 784 782 798
f 786 784 798
f 788 786 798
f 790 788 798
f 792 790 798
f 794 792 798
f 796 794 798
f 766 796 798
f 799 800 801
f 800 802 801
f 802 803 801
f 803 804 801
f 804 805 801
f 805 806 801
f 806 807 801
f 807 808 801
f 808 809 801
f 809 810 801
f 810 811 801
f 811 812 801
f 812 813 801
f 813 814 801
f 814 815 801
f 815 799 801
f 817 769 768
f 768 816 817
f 816 768 771
f 771 818 816
f 818 771 773
f 773 819 818
f 819 773 775
f 775 820 819
f 820 775 777
f 777 821 820
f 821 777 779
f 779 822 821
f 822 779 781
f 781 823 822
f 823 781 783
f 783 824 823
f 824 783 785
f 785 825 824
f 825 785 787
f 787 826 825
f 826 787 789
f 789 827 826
f 827 789 791
f 791 828 827
f 828 791 793
f 793 829 828
f 829 793 795
f 795 830 829
f 830 795 797
f 797 831 830
f 831 797 769
f 769 817 831
f 799 817 816
f 816 800 799
f 800 816 818
f 818 802 800
f 802 818 819
f 819 803 802
f 803 819 820
f 820 804 803
f 804 820 821
f 821 805 804
f 805 821 822
f 822 806 805
f 806 822 823
f 823 807 806
f 807 823 824
f 824 808 807
f 808 824 825
f 825 809 808
f 809 825 826
f 826 810 809
f 810 826 827
f 827 811 810
f 811 827 828
f 828 812 811
f 812 828 829
f 829 813 812
f 813 829 830
f 830 814 813
f 814 830 831
f 831 815 814
f 815 831 817
f 817 799 815
f 835 832 833
f 833 834 835
f 834 833 836
f 836 837 834
f 837 836 838
f 838 839 837
f 839 838 840
f 840 841 839
f 841 840 842
f 842 843 841
f 843 842 844
f 844 845 843
f 845 844 846
f 846 847 845
f 847 846 832
f 832 835 847
f 833 832 848
f 836 833 848
f 838 836 848
f 840 838 848
f 842 840 848
f 844 842 848
f 846 844 848
f 832 846 848
f 835 834 849
f 834 837 849
f 837 839 849
f 839 841 849
f 841 843 849
f 843 845 849
f 845 847 849
f 847 835 849
f 853 850 851
f 851 852 853
f 852 851 854
f 854 855 852
f 855 854 856
f 856 857 855
f 857 856 858
f 858 859 857
f 859 858 860
f 860 861 859
f 861 860 862
f 862 863 861
f 863 862 864
f 864 865 863
f 865 864 850
f 850 853 865
f 851 850 866
f 854 851 866
f 856 854 866
f 858 856 866
f 860 858 866
f 862 860 866
f 864 862 866
f 850 864 866
f 853 852 867
f 852 855 867
f 855 857 867
f 857 859 867
f 859 861 867
f 861 863 867
f 863 865 867
f 865 853 867
f 871 868 869
f 869 870 871
f 870 869 872
f 872 873 870
f 873 872 874
f 874 875 873
f 875 874 876
f 876 877 875
f 877 876 878
f 878 879 877
f 879 878 880
f 880 881 879
f 881 880 882
f 882 883 881
f 883 882 868
f 868 871 883
f 869 868 884
f 872 869 884
f 874 872 884
f 876 874 884
f 878 876 884
f 880 878 884
f 882 880 884
f 868 882 884
f 871 870 885
f 870 873 885
f 873 875 885
f 875 877 885
f 877 879 885
f 879 881 885
f 881 883 885
f 883 871 885
f 889 886 887
f 887 888 889
f 888 887 890
f 890 891 888
f 891 890 892
f 892 893 891
f 893 892 894
f 894 895 893
f 895 894 896
f 896 897 895
f 897 896 898
f 898 899 897
f 899 898 900
f 900 901 899
f 901 900 886
f 886 889 901
f 887 886 902
f 890 887 902
f 892 890 902
f 894 892 902
f 896 894 902
f 898 896 902
f 900 898 902
f 886 900 902
f 889 888 903
f 888 891 903
f 891 893 903
f 893 895 903
f 895 897 903
f 897 899 903
f 899 901 903
f 901 889 903
f 907 904 905
f 905 906 907
f 906 905 908
f 908 909 906
f 909 908 910
f 910 911 909
f 911 910 912
f 912 913 911
f 913 912 914
f 914 915 913
f 915 914 916
f 916 917 915
f 917 916 918
f 918 919 917
f 919 918 904
f 904 907 919
f 905 904 920
f 908 905 920
f 910 908 920
f 912 910 920
f 914 912 920
f 916 914 920
f 918 916 920
f 904 918 920
f 907 906 921
f 906 909 921
f 909 911 921
f 911 913 921
f 913 915 921
f 915 917 921
f 917 919 921
f 919 907 921
f 925 922 923
f 923 924 925
f 924 923 926
f 926 927 924
f 927 926 928
f 928 929 927
f 929 928 930
f 930 931 929
f 931 930 932
f 932 933 931
f 933 932 934
f 934 935 933
f 935 934 936
f 936 937 935
f 937 936 922
f 922 925 937
f 923 922 938
f 926 923 938
f 928 926 938
f 930 928 938
f 932 930 938
f 934 932 938
f 936 934 938
f 922 936 938
f 925 924 939
f 924 927 939
f 927 929 939
f 929 931 939
f 931 933 939
f 933 935 939
f 935 937 939
f 937 925 939
f 943 940 941
f 941 942 943
f 942 941 944
f 944 945 942
f 945 944 946
f 946 947 945
f 947 946 948
f 948 949 947
f 949 948 950
f 950 951 949
f 951 950 952
f 952 953 951
f 953 952 954
f 954 955 953
f 955 954 940
f 940 943 955
f 941 940 956
f 944 941 956
f 946 944 956
f 948 946 956
f 950 948 956
f 952 950 956
f 954 952 956
f 940 954 956
f 943 942 957
f 942 945 957
f 945 947 957
f 947 949 957
f 949 951 957
f 951 953 957
f 953 955 957
f 955 943 957
f 961 958 959
f 959 960 961
f 960 959 962
f 962 963 960
f 963 962 964
f 964 965 963
f 965 964 966
f 966 967 965
f 967 966 968
f 968 969 967
f 969 968 970
f 970 971 969
f 971 970 972
f 972 973 971
f 973 972 958
f 958 961 973
f 959 958 974
f 962 959 974
f 964 962 974
f 966 964 974
f 968 966 974
f 970 968 974
f 972 970 974
f 958 972 974
f 961 960 975
f 960 963 975
f 963 965 975
f 965 967 975
f 967 969 975
f 969 971 975
f 971 973 975
f 973 961 975
f 979 976 977
f 977 978 979
f 978 977 980
f 980 981 978
f 981 980 982
f 982 983 981
f 983 982 984
f 984 985 983
f 985 984 986
f 986 987 985
f 987 986 988
f 988 989 987
f 989 988 990
f 990 991 989
f 991 990 976
f 976 979 991
f 977 976 992
f 980 977 992
f 982 980 992
f 984 982 992
f 986 984 992
f 988 986 992
f 990 988 992
f 976 990 992
f 979 978 993
f 978 981 993
f 981 983 993
f 983 985 993
f 985 987 993
f 987 989 993
f 989 991 993
f 991 979 993
f 997 994 995
f 995 996 997
f 996 995 998
f 998 999 996
f 999 998 1000
f 1000 1001 999
f 1001 1000 1002
f 1002 1003 1001
f 1003 1002 1004
f 1004 1005 1003
f 1005 1004 1006
f 1006 1007 1005
f 1007 1006 1008
f 1008 1009 1007
f 1009 1008 994
f 994 997 1009
f 995 994 1010
f 998 995 1010
f 1000 998 1010
f 1002 1000 1010
f 1004 1002 1010
f 1006 1004 1010
f 1008 1006 1010
f 994 1008 1010
f 997 996 1011
f 996 999 1011
f 999 1001 1011
f 1001 1003 1011
f 1003 1005 1011
f 1005 1007 1011
f 1007 1009 1011
f 1009 997 1011
f 1015 1012 1013
f 1013 1014 1015
f 1014 1013 1016
f 1016 1017 1014
f 1017 1016 1018
f 1018 1019 1017
f 1019 1018 1020
f 1020 1021 1019
f 1021 1020 1022
f 1022 1023 1021
f 1023 1022 1024
f 1024 1025 1023
f 1025 1024 1026
f 1026 1027 1025
f 1027 1026 1012
f 1012 1015 1027
f 1013 1012 1028
f 1016 1013 1028
f 1018 1016 1028
f 1020 1018 1028
f 1022 1020 1028
f 1024 1022 1028
f 1026 1024 1028
f 1012 1026 1028
f 1015 1014 1029
f 1014 1017 1029
f 1017 1019 1029
f 1019 1021 1029
f 1021 1023 1029
f 1023 1025 1029
f 1025 1027 1029
f 1027 1015 1029
f 1033 1030 1031
f 1031 1032 1033
f 1032 1031 1034
f 1034 1035 1032
f 1035 1034 1036
f 1036 1037 1035
f 1037 1036 1038
f 1038 1039 1037
f 1039 1038 1040
f 1040 1041 1039
f 1041 1040 1042
f 1042 1043 1041
f 1043 1042 1044
f 1044 1045 1043
f 1045 1044 1030
f 1030 1033 1045
f 1031 1030 1046
f 1034 1031 1046
f 1036 1034 1046
f 1038 1036 1046
f 1040 1038 1046
f 1042 1040 1046
f 1044 1042 1046
f 1030 1044 1046
f 1033 1032 1047
f 1032 1035 1047
f 1035 1037 1047
f 1037 1039 1047
f 1039 1041 1047
f 1041 1043 1047
f 1043 1045 1047
f 1045 1033 1047
f 1048 1049 1050
f 1051 1052 1053
f 1053 1052 1054
f 1048 1055 1049
f 1049 1055 1056
f 1057 1058 1050
f 1059 1057 1060
f 1060 1057 1050
f 1061 1059 1060
f 1062 1063 1064
f 1066 1065 1063
f 1063 1062 1066
f 1067 1068 1052
f 1052 1068 1054
f 1051 1069 1070
f 1070 1071 1051
f 1070 1067 1071
f 1071 1067 1052
f 1072 1073 1049
f 1049 1073 1050
f 1074 1062 1075
f 1075 1062 1076
f 1069 1051 1077
f 1077 1051 1053
f 1078 1077 1055
f 1055 1077 1053
f 1054 1068 1079
f 1079 1056 1054
f 1078 1055 1080
f 1080 1055 1048
f 1072 1049 1079
f 1079 1049 1056
f 1081 1058 1082
f 1082 1058 1057
f 1081 1080 1058
f 1058 1080 1048
f 1059 1083 1082
f 1082 1057 1059
f 1073 1084 1050
f 1050 1084 1060
f 1061 1085 1083
f 1083 1059 1061
f 1085 1061 1086
f 1086 1061 1087
f 1075 1076 1084
f 1084 1076 1060
f 1064 1088 1086
f 1086 1087 1064
f 1063 1089 1088
f 1088 1064 1063
f 1090 1089 1065
f 1065 1089 1063
f 1091 1066 1074
f 1074 1066 1062
f 1066 1091 1090
f 1090 1065 1066
f 1087 1061 1076
f 1076 1061 1060
f 1062 1064 1076
f 1076 1064 1087
f 1050 1058 1048
f 1054 1056 1053
f 1053 1056 1055
f 1052 1051 1071
f 1092 1093 1094
f 1095 1096 1097
f 1097 1096 1098
f 1093 1092 1099
f 1099 1100 1093
f 1101 1102 1094
f 1104 1103 1101
f 1101 1094 1104
f 1105 1103 1104
f 1106 1107 1108
f 1110 1109 1107
f 1107 1106 1110
f 1111 1098 1112
f 1112 1098 1096
f 1095 1113 1114
f 1114 1115 1095
f 1114 1112 1115
f 1115 1112 1096
f 1116 1117 1093
f 1093 1117 1094
f 1120 1118 1119
f 1119 1106 1120
f 1113 1095 1121
f 1121 1095 1097
f 1122 1121 1099
f 1099 1121 1097
f 1111 1123 1098
f 1098 1123 1100
f 1122 1099 1124
f 1124 1099 1092
f 1116 1093 1123
f 1123 1093 1100
f 1125 1102 1126
f 1126 1102 1101
f 1125 1124 1102
f 1102 1124 1092
f 1103 1127 1126
f 1126 1101 1103
f 1117 1128 1094
f 1094 1128 1104
f 1129 1127 1105
f 1105 1127 1103
f 1131 1130 1129
f 1129 1105 1131
f 1118 1120 1128
f 1128 1120 1104
f 1108 1132 1130
f 1130 1131 1108
f 1107 1133 1132
f 1132 1108 1107
f 1134 1133 1109
f 1109 1133 1107
f 1135 1110 1119
f 1119 1110 1106
f 1110 1135 1134
f 1134 1109 1110
f 1104 1120 1131
f 1131 1105 1104
f 1106 1108 1120
f 1120 1108 1131
f 1094 1102 1092
f 1099 1097 1098
f 1098 1100 1099
f 1096 1095 1115
f 1136 1137 1138
f 1139 1140 1141
f 1141 1140 1142
f 1137 1136 1143
f 1143 1144 1137
f 1145 1146 1138
f 1147 1145 1148
f 1148 1145 1138
f 1149 1147 1148
f 1150 1151 1152
f 1154 1153 1151
f 1151 1150 1154
f 1155 1156 1140
f 1140 1156 1142
f 1139 1157 1158
f 1158 1159 1139
f 1158 1155 1159
f 1159 1155 1140
f 1137 1160 1161
f 1161 1138 1137
f 1162 1163 1164
f 1164 1163 1150
f 1157 1139 1165
f 1165 1139 1141
f 1166 1165 1143
f 1143 1165 1141
f 1156 1167 1142
f 1142 1167 1144
f 1166 1143 1168
f 1168 1143 1136
f 1160 1137 1167
f 1167 1137 1144
f 1169 1146 1170
f 1170 1146 1145
f 1169 1168 1146
f 1146 1168 1136
f 1147 1171 1170
f 1170 1145 1147
f 1161 1172 1138
f 1138 1172 1148
f 1173 1171 1149
f 1149 1171 1147
f 1175 1174 1173
f 1173 1149 1175
f 1162 1164 1172
f 1172 1164 1148
f 1152 1176 1174
f 1174 1175 1152
f 1151 1177 1176
f 1176 1152 1151
f 1178 1177 1153
f 1153 1177 1151
f 1179 1154 1163
f 1163 1154 1150
f 1154 1179 1178
f 1178 1153 1154
f 1175 1149 1164
f 1164 1149 1148
f 1150 1152 1164
f 1164 1152 1175
f 1138 1146 1136
f 1143 1141 1142
f 1142 1144 1143
f 1140 1139 1159
f 1180 1181 1182
f 1183 1184 1185
f 1185 1184 1186
f 1180 1187 1181
f 1181 1187 1188
f 1189 1190 1182
f 1191 1189 1192
f 1192 1189 1182
f 1193 1191 1192
f 1194 1195 1196
f 1198 1197 1195
f 1195 1194 1198
f 1199 1186 1200
f 1200 1186 1184
f 1183 1201 1202
f 1202 1203 1183
f 1202 1200 1203
f 1203 1200 1184
f 1204 1205 1181
f 1181 1205 1182
f 1208 1206 1207
f 1207 1194 1208
f 1201 1183 1209
f 1209 1183 1185
f 1210 1209 1187
f 1187 1209 1185
f 1199 1211 1186
f 1186 1211 1188
f 1212 1210 1180
f 1180 1210 1187
f 1204 1181 1211
f 1211 1181 1188
f 1213 1190 1214
f 1214 1190 1189
f 1213 1212 1190
f 1190 1212 1180
f 1215 1214 1191
f 1191 1214 1189
f 1205 1216 1182
f 1182 1216 1192
f 1193 1217 1215
f 1215 1191 1193
f 1219 1218 1217
f 1217 1193 1219
f 1206 1208 1216
f 1216 1208 1192
f 1218 1219 1220
f 1220 1219 1196
f 1195 1221 1220
f 1220 1196 1195
f 1222 1221 1197
f 1197 1221 1195
f 1223 1198 1207
f 1207 1198 1194
f 1198 1223 1222
f 1222 1197 1198
f 1219 1193 1208
f 1208 1193 1192
f 1194 1196 1208
f 1208 1196 1219
f 1182 1190 1180
f 1186 1188 1185
f 1185 1188 1187
f 1184 1183 1203
f 1224 1225 1226
f 1227 1228 1229
f 1229 1228 1230
f 1225 1224 1231
f 1231 1232 1225
f 1226 1233 1224
f 1234 1233 1235
f 1235 1233 1226
f 1236 1234 1235
f 1237 1238 1239
f 1241 1240 1238
f 1238 1237 1241
f 1242 1243 1228
f 1228 1243 1230
f 1227 1244 1245
f 1245 1246 1227
f 1245 1242 1246
f 1246 1242 1228
f 1247 1248 1225
f 1225 1248 1226
f 1251 1249 1250
f 1250 1237 1251
f 1244 1227 1252
f 1252 1227 1229
f 1253 1252 1231
f 1231 1252 1229
f 1230 1243 1254
f 1254 1232 1230
f 1255 1253 1224
f 1224 1253 1231
f 1247 1225 1254
f 1254 1225 1232
f 1256 1255 1233
f 1233 1255 1224
f 1234 1257 1256
f 1256 1233 1234
f 1226 1248 1258
f 1258 1235 1226
f 1259 1257 1236
f 1236 1257 1234
f 1259 1236 1260
f 1260 1236 1261
f 1249 1251 1258
f 1258 1251 1235
f 1239 1262 1260
f 1260 1261 1239
f 1238 1263 1262
f 1262 1239 1238
f 1264 1263 1240
f 1240 1263 1238
f 1265 1241 1250
f 1250 1241 1237
f 1241 1265 1264
f 1264 1240 1241
f 1261 1236 1251
f 1251 1236 1235
f 1237 1239 1251
f 1251 1239 1261
f 1231 1229 1230
f 1230 1232 1231
f 1228 1227 1246
f 1266 1267 1268
f 1269 1270 1271
f 1271 1270 1272
f 1267 1266 1273
f 1273 1274 1267
f 1268 1275 1266
f 1276 1275 1277
f 1277 1275 1268
f 1278 1276 1277
f 1279 1280 1281
f 1281 1280 1282
f 1283 1280 1284
f 1284 1280 1279
f 1285 1286 1270
f 1270 1286 1272
f 1269 1287 1288
f 1288 1289 1269
f 1288 1285 1289
f 1289 1285 1270
f 1290 1291 1267
f 1267 1291 1268
f 1281 1292 1293
f 1293 1279 1281
f 1294 1287 1271
f 1271 1287 1269
f 1294 1271 1295
f 1295 1271 1273
f 1272 1286 1296
f 1296 1274 1272
f 1295 1273 1297
f 1297 1273 1266
f 1290 1267 1296
f 1296 1267 1274
f 1275 1298 1266
f 1266 1298 1297
f 1276 1299 1298
f 1298 1275 1276
f 1291 1300 1268
f 1268 1300 1277
f 1301 1299 1278
f 1278 1299 1276
f 1282 1302 1301
f 1301 1278 1282
f 1292 1281 1300
f 1300 1281 1277
f 1303 1302 1280
f 1280 1302 1282
f 1304 1303 1283
f 1283 1303 1280
f 1305 1284 1293
f 1293 1284 1279
f 1284 1305 1304
f 1304 1283 1284
f 1277 1281 1282
f 1282 1278 1277
f 1272 1274 1271
f 1271 1274 1273
f 1270 1269 1289
f 1306 1307 1308
f 1309 1310 1311
f 1311 1310 1312
f 1306 1313 1307
f 1307 1313 1314
f 1315 1316 1308
f 1317 1315 1318
f 1318 1315 1308
f 1319 1317 1318
f 1320 1321 1322
f 1323 1321 1324
f 1324 1321 1320
f 1325 1312 1326
f 1326 1312 1310
f 1309 1327 1328
f 1328 1329 1309
f 1328 1326 1329
f 1329 1326 1310
f 1330 1331 1307
f 1307 1331 1308
f 1334 1332 1333
f 1333 1320 1334
f 1327 1309 1335
f 1335 1309 1311
f 1336 1335 1313
f 1313 1335 1311
f 1325 1337 1312
f 1312 1337 1314
f 1336 1313 1338
f 1338 1313 1306
f 1330 1307 1337
f 1337 1307 1314
f 1339 1316 1340
f 1340 1316 1315
f 1339 1338 1316
f 1316 1338 1306
f 1340 1315 1341
f 1341 1315 1317
f 1331 1342 1308
f 1308 1342 1318
f 1343 1341 1319
f 1319 1341 1317
f 1344 1343 1345
f 1345 1343 1319
f 1332 1334 1342
f 1342 1334 1318
f 1346 1344 1322
f 1322 1344 1345
f 1347 1346 1321
f 1321 1346 1322
f 1348 1347 1323
f 1323 1347 1321
f 1349 1324 1333
f 1333 1324 1320
f 1324 1349 1348
f 1348 1323 1324
f 1345 1319 1334
f 1334 1319 1318
f 1320 1322 1334
f 1334 1322 1345
f 1308 1316 1306
f 1312 1314 1311
f 1311 1314 1313
f 1310 1309 1329
f 1350 1351 1352
f 1353 1354 1355
f 1355 1354 1356
f 1351 1350 1357
f 1357 1358 1351
f 1352 1359 1350
f 1360 1359 1361
f 1361 1359 1352
f 1362 1360 1361
f 1363 1364 1365
f 1367 1366 1364
f 1364 1363 1367
f 1368 1369 1354
f 1354 1369 1356
f 1353 1370 1371
f 1371 1372 1353
f 1371 1368 1372
f 1372 1368 1354
f 1373 1374 1351
f 1351 1374 1352
f 1377 1375 1376
f 1376 1363 1377
f 1370 1353 1378
f 1378 1353 1355
f 1379 1378 1357
f 1357 1378 1355
f 1356 1369 1380
f 1380 1358 1356
f 1379 1357 1381
f 1381 1357 1350
f 1373 1351 1380
f 1380 1351 1358
f 1382 1381 1359
f 1359 1381 1350
f 1382 1359 1383
f 1383 1359 1360
f 1374 1384 1352
f 1352 1384 1361
f 1362 1385 1383
f 1383 1360 1362
f 1387 1386 1385
f 1385 1362 1387
f 1375 1377 1384
f 1384 1377 1361
f 1388 1386 1365
f 1365 1386 1387
f 1389 1388 1364
f 1364 1388 1365
f 1390 1389 1366
f 1366 1389 1364
f 1391 1367 1376
f 1376 1367 1363
f 1367 1391 1390
f 1390 1366 1367
f 1387 1362 1377
f 1377 1362 1361
f 1363 1365 1377
f 1377 1365 1387
f 1356 1358 1355
f 1355 1358 1357
f 1354 1353 1372
f 1066 1065 1090
f 1090 1091 1066
f 1110 1109 1134
f 1134 1135 1110
f 1154 1153 1178
f 1178 1179 1154
f 1198 1197 1222
f 1222 1223 1198
f 1241 1240 1264
f 1264 1265 1241
f 1269 1289 1288
f 1288 1287 1269
f 1284 1283 1304
f 1304 1305 1284
f 1324 1323 1348
f 1348 1349 1324
f 1367 1366 1390
f 1390 1391 1367