# https://github.com/mikedh/trimesh
v -0.49955954 0.29973601 0.58914387
v -0.17759283 0.32594937 0.52257684
v -0.49955954 0.33515806 0.52666241
v -0.49955954 0.26570023 0.12552759
v -0.17759283 0.30135471 0.18755445
v -0.17759283 0.25840178 0.13247337
v 0.49783208 -0.19564491 0.06846083
v 0.17586536 -0.24533773 0.11992940
v 0.17586536 -0.19025872 0.07697647
v -0.49955954 -0.26518020 0.63061468
v -0.17759283 -0.20500653 0.66931083
v -0.49955954 -0.21081269 0.67754710
v -0.49955954 -0.19564491 0.06846083
v -0.17759283 -0.24533773 0.11992940
v -0.49955954 -0.25228352 0.11263086
v 0.49783208 0.29973601 0.58914387
v 0.17586536 0.24585776 0.63621093
v 0.49783208 0.25280355 0.64351129
v 0.49783208 -0.30935026 0.57397615
v 0.17586536 -0.25788175 0.62366890
v 0.17586536 -0.30083468 0.56858988
v -0.17759283 0.24585776 0.63621093
v -0.17759283 0.29149974 0.58333765
v 0.49783208 -0.13147950 0.03619270
v 0.17586536 -0.12785676 0.04559296
v -0.49955954 -0.30935026 0.57397615
v -0.17759283 -0.25788175 0.62366890
v -0.49955751 -0.13147950 0.03619270
v -0.17759283 -0.19025668 0.07697647
v 0.17586536 0.19077875 0.67916592
v 0.49783208 0.19616494 0.68767925
v 0.49783208 -0.34162052 0.50981062
v 0.17586536 -0.33221813 0.50618790
v -0.49955954 0.25280355 0.64351129
v -0.17759283 0.19077875 0.67916592
v 0.49783208 -0.06224999 0.01705958
v 0.17586536 -0.06053139 0.02698795
v -0.49955954 -0.34162052 0.50981062
v -0.17759283 -0.30083468 0.56858988
v -0.49955751 -0.06224999 0.01705958
v -0.17759283 -0.12785676 0.04559296
v 0.17586536 0.12837679 0.71054931
v 0.49783208 0.13199953 0.71995164
v 0.49783208 -0.36075150 0.44058121
v 0.17586536 -0.35082314 0.43886250
v -0.49955954 0.19616494 0.68767925
v -0.17759283 0.12837679 0.71054931
v 0.17586536 0.00912827 0.02187291
v 0.49783208 0.00938107 0.01180188
v -0.49955954 -0.36075150 0.44058121
v -0.17759283 -0.33221813 0.50618790
v 0.49783208 0.30986825 0.18216624
v 0.17586536 0.33273612 0.24995437
v 0.49783208 0.34213851 0.24633165
v -0.17759283 0.00912827 0.02187291
v -0.17759283 -0.06053139 0.02698795
v 0.17586536 0.06105142 0.72915420
v 0.49783208 0.06277002 0.73908268
v -0.49955954 0.30986825 0.18216624
v -0.17759283 0.33273612 0.24995437
v 0.49783208 -0.36600927 0.36895005
v 0.17586536 -0.35593818 0.36920086
v -0.49955954 0.06277002 0.73908268
v -0.49955954 0.13199953 0.71995164
v 0.17586536 0.07844951 0.03044760
v 0.49783208 0.08066148 0.02061912
v -0.49955954 -0.36600927 0.36895005
v -0.17759283 -0.35082314 0.43886250
v 0.49783208 0.00299592 0.26819034
v 0.17586536 0.35134317 0.31727977
v 0.49783208 0.36127153 0.31555912
v -0.49955954 0.00938107 0.01180188
v -0.17759283 0.07844951 0.03044760
v -0.49955954 -0.29921598 0.16699840
v -0.49955954 -0.07550346 0.29843829
v 0.49783208 0.09314228 0.31930007
v -0.49955954 0.07989290 0.30230769
v 0.49783208 0.07989290 0.30230769
v 0.49783208 -0.10804283 0.39682494
v 0.49783208 0.01901383 0.48637394
v 0.49783208 0.03978187 0.48063504
v 0.49783208 0.26570023 0.12552759
v 0.49783208 0.10282397 0.33854923
v 0.49783208 -0.29921598 0.16699840
v 0.49783208 -0.07550346 0.29843829
v 0.49783208 -0.08958258 0.31474971
v 0.49783208 -0.21081269 0.67754710
v 0.49783208 -0.04431776 0.47854134
v 0.49783208 -0.14833122 0.71296915
v 0.49783208 0.35771200 0.45847256
v 0.49783208 0.10073025 0.42264890
v 0.49783208 0.10749459 0.40219079
v 0.49783208 -0.01849380 0.26976833
v 0.49783208 -0.10230394 0.41759303
v 0.49783208 0.05903109 0.47095334
v 0.49783208 0.06358142 0.28822850
v 0.49783208 0.21133272 0.07859517
v 0.49783208 -0.33464007 0.22947986
v 0.49783208 -0.10021022 0.33349337
v 0.49783208 -0.08014145 0.73552303
v 0.49783208 -0.02385961 0.48530777
v 0.49783208 0.36652930 0.38719222
v 0.49783208 0.11014079 0.38080710
v 0.49783208 -0.03926184 0.27550723
v 0.49783208 -0.09262225 0.43684219
v 0.49783208 0.07602348 0.45770398
v 0.49783208 0.14885125 0.04317312
v 0.49783208 0.04483779 0.27760093
v 0.49783208 -0.35719197 0.29766971
v 0.49783208 -0.10697659 0.35395148
v 0.49783208 -0.00247589 0.48795193
v 0.49783208 -0.00886104 0.74434039
v 0.49783208 0.10856286 0.35931733
v 0.49783208 -0.05851106 0.28518893
v 0.49783208 -0.26518020 0.63061468
v 0.49783208 -0.07937287 0.45383458
v 0.49783208 0.09010261 0.44139256
v 0.49783208 0.02437964 0.27083450
v 0.49783208 -0.10962076 0.37533529
v 0.49783208 -0.25228352 0.11263086
v 0.49783208 -0.06306139 0.46791377
v 0.49783208 0.33515806 0.52666241
v -0.49955954 0.09314228 0.31930007
v -0.49955954 -0.04431776 0.47854134
v -0.49955954 -0.06306139 0.46791377
v -0.49955954 0.10749662 0.40219079
v -0.49955954 0.10073025 0.42264890
v -0.49955954 0.00299592 0.26819034
v -0.49955954 -0.10230394 0.41759303
v -0.49955954 -0.10804283 0.39682494
v -0.49955954 0.03978187 0.48063504
v -0.49955954 0.21133272 0.07859723
v -0.49955954 -0.33464007 0.22947986
v -0.49955954 -0.08958258 0.31474971
v -0.49955954 -0.08014145 0.73552303
v -0.49955954 -0.14833122 0.71297134
v -0.49955954 0.36652930 0.38719222
v -0.49955954 0.35771200 0.45847256
v -0.49955954 -0.01849380 0.26976833
v -0.49955954 -0.09262225 0.43684219
v -0.49955954 0.07602348 0.45770398
v -0.49955954 0.05903109 0.47095334
v -0.49955954 0.14885125 0.04317312
v -0.49955954 0.06358142 0.28822850
v -0.49955954 -0.35719197 0.29766971
v -0.49955954 -0.10021022 0.33349337
v -0.49955954 -0.00247589 0.48795193
v -0.49955954 -0.02385961 0.48530777
v -0.49955954 0.10856286 0.35931733
v -0.49955954 0.11014079 0.38080710
v -0.49955954 -0.05851106 0.28518893
v -0.49955954 -0.03926184 0.27550723
v -0.49955954 0.09010261 0.44139256
v -0.49955954 0.02437964 0.27083450
v -0.49955954 0.04483779 0.27760093
v -0.49955954 -0.10962076 0.37533529
v -0.49955954 -0.10697659 0.35395148
v -0.49955954 -0.00886104 0.74434039
v -0.49955954 0.01901383 0.48637394
v -0.49955954 0.34213851 0.24633165
v -0.49955954 0.36127153 0.31556119
v -0.49955954 -0.07937287 0.45383458
v -0.49955954 0.08066148 0.02061912
v -0.49955954 0.10282397 0.33854923
v -0.17759283 0.34788148 0.45626062
v -0.17759283 0.37833121 0.38748580
v -0.17759283 0.35645618 0.38694141
v 0.17586536 -0.29097971 0.17280462
v 0.17586536 -0.34543083 0.22469108
v 0.17586536 -0.30886505 0.16019734
v -0.17759283 -0.14424571 0.70376052
v -0.17759283 -0.08273261 0.74704166
v -0.17759283 -0.07792948 0.72569248
v 0.17586536 0.25840178 0.13247337
v 0.17586536 0.21813376 0.06894604
v 0.17586536 0.27425454 0.11739120
v -0.17759283 -0.29097971 0.17280462
v -0.17759283 -0.34543083 0.22469108
v -0.17759283 -0.32542934 0.23356543
v 0.17586536 0.32594937 0.52257684
v 0.17586536 0.36923054 0.46106167
v 0.17586536 0.34594882 0.53145119
v -0.17759283 0.21813376 0.06894604
v -0.17759283 0.20552656 0.08683144
v 0.17586536 -0.14424571 0.70376052
v 0.17586536 -0.21761373 0.68719611
v 0.17586536 -0.20500653 0.66931083
v -0.17759283 0.36923054 0.46106167
v 0.17586536 -0.26041989 0.10407658
v -0.17759283 -0.21761373 0.68719611
v -0.17759283 -0.15312009 0.72376186
v -0.17759283 -0.30886505 0.16019734
v 0.17586536 0.30938508 0.59594481
v 0.17586536 0.29149974 0.58333765
v 0.17586536 0.30135471 0.18755445
v 0.17586536 0.31984556 0.17585440
v 0.17586536 -0.27373451 0.63875107
v -0.17759283 0.30938508 0.59594481
v -0.17759283 0.34594882 0.53145119
v -0.17759283 0.27425454 0.11739120
v 0.17586536 -0.20195666 0.05848556
v -0.17759283 -0.27373451 0.63875107
v -0.17759283 -0.20195666 0.05848556
v -0.17759283 -0.26041989 0.10407658
v 0.17586536 0.26093992 0.65206375
v 0.17586536 -0.31932553 0.58028787
v 0.17586536 -0.13572403 0.02517556
v -0.17759283 -0.31932553 0.58028787
v -0.17759283 -0.13572403 0.02517556
v 0.17586536 0.20247874 0.69765659
v 0.17586536 -0.35263550 0.51405513
v -0.17759283 0.26093992 0.65206375
v 0.17586536 -0.06426421 0.00542697
v 0.17586536 -0.32542934 0.23356543
v 0.17586536 -0.07792948 0.72569248
v -0.17759283 0.14476574 0.05238175
v 0.17586536 0.34788148 0.45626062
v -0.17759283 -0.34736349 0.29988164
v 0.17586536 0.20552656 0.08683144
v -0.17759283 -0.00861028 0.73426730
v 0.17586536 -0.34736349 0.29988164
v -0.17759283 0.35134317 0.31727977
v 0.17586536 -0.00861028 0.73426730
v 0.17586536 0.35645618 0.38694141
v -0.17759283 -0.35593818 0.36920086
v 0.17586536 0.14476574 0.05238175
v -0.17759283 0.06105142 0.72915420
v -0.17759283 0.31984556 0.17585440
v 0.17586536 0.15364012 0.03238029
v -0.17759283 0.15364012 0.03238029
v 0.17586536 0.08325061 0.00910061
v -0.17759283 0.08325061 0.00910061
v -0.17759283 0.00967464 0.00000000
v 0.17586536 0.00967464 0.00000000
v -0.17759283 -0.06426421 0.00542697
v 0.17586536 -0.36871051 0.29508059
v -0.17759283 -0.36871051 0.29508059
v -0.17759283 -0.37781118 0.36865647
v 0.17586536 -0.37781118 0.36865647
v -0.17759283 -0.37238421 0.44259531
v 0.17586536 -0.37238421 0.44259531
v -0.17759283 -0.35263550 0.51405513
v 0.17586536 -0.08273261 0.74704166
v 0.17586536 -0.00915461 0.75614239
v -0.17759283 -0.00915461 0.75614239
v -0.17759283 0.06478424 0.75071530
v 0.17586536 0.06478424 0.75071530
v -0.17759283 0.13624406 0.73096671
v 0.17586536 0.13624406 0.73096671
v -0.17759283 0.20247874 0.69765659
v 0.17586536 0.37833121 0.38748580
v -0.17759283 0.37290424 0.31354489
v 0.17586536 0.37290424 0.31354489
v -0.17759283 0.35315553 0.24208714
v 0.17586536 0.35315553 0.24208714
v 0.17586536 -0.15312009 0.72376186
f 1 2 3
f 4 5 6
f 7 8 9
f 10 11 12
f 13 14 15
f 16 17 18
f 19 20 21
f 1 22 23
f 24 9 25
f 26 27 10
f 28 29 13
f 18 30 31
f 32 21 33
f 34 35 22
f 36 25 37
f 38 39 26
f 40 41 28
f 31 42 43
f 44 33 45
f 46 47 35
f 36 48 49
f 50 51 38
f 52 53 54
f 40 55 56
f 43 57 58
f 59 60 5
f 61 45 62
f 63 47 64
f 49 65 66
f 67 68 50
f 66 69 49
f 54 70 71
f 72 73 55
f 74 75 15
f 76 77 78
f 61 79 44
f 43 80 81
f 82 76 78
f 52 83 76
f 84 85 86
f 87 88 89
f 90 91 92
f 36 69 93
f 44 94 32
f 31 81 95
f 82 96 97
f 98 86 99
f 100 88 101
f 102 92 103
f 36 104 24
f 32 105 19
f 18 95 106
f 107 96 108
f 109 99 110
f 100 111 112
f 71 103 113
f 24 114 7
f 115 105 116
f 16 106 117
f 107 118 66
f 109 119 61
f 112 80 58
f 71 83 54
f 120 114 85
f 115 121 87
f 16 91 122
f 83 123 76
f 12 124 125
f 3 126 127
f 40 128 72
f 50 129 130
f 46 131 64
f 132 77 4
f 133 134 74
f 135 124 136
f 137 126 138
f 28 139 40
f 38 140 129
f 46 141 142
f 143 144 132
f 145 146 133
f 135 147 148
f 137 149 150
f 28 151 152
f 10 140 26
f 34 153 141
f 143 154 155
f 145 156 157
f 158 159 147
f 160 149 161
f 13 75 151
f 10 125 162
f 3 153 1
f 163 128 154
f 50 156 67
f 64 159 63
f 4 123 59
f 59 164 160
f 113 164 83
f 103 149 113
f 92 150 103
f 91 126 92
f 117 127 91
f 106 153 117
f 95 141 106
f 81 142 95
f 80 131 81
f 111 159 80
f 101 147 111
f 88 148 101
f 105 162 116
f 116 125 121
f 121 124 88
f 94 140 105
f 79 129 94
f 79 156 130
f 110 156 119
f 99 157 110
f 86 146 99
f 85 134 86
f 114 75 85
f 104 151 114
f 93 152 104
f 69 139 93
f 118 128 69
f 108 154 118
f 96 155 108
f 78 144 96
f 165 166 167
f 168 169 170
f 171 172 173
f 174 175 176
f 177 178 179
f 180 181 182
f 6 183 184
f 185 186 187
f 2 188 165
f 8 170 189
f 171 190 191
f 14 192 177
f 180 193 194
f 195 176 196
f 187 197 20
f 2 198 199
f 5 200 6
f 9 189 201
f 11 202 190
f 14 203 204
f 17 193 205
f 20 206 21
f 22 198 23
f 25 201 207
f 27 208 202
f 29 209 203
f 30 205 210
f 33 206 211
f 35 212 22
f 25 213 37
f 51 208 39
f 56 209 41
f 115 187 20
f 82 195 52
f 16 180 194
f 74 14 177
f 12 171 136
f 84 8 120
f 138 2 165
f 87 185 187
f 132 6 184
f 90 180 122
f 74 179 133
f 97 174 82
f 136 173 135
f 84 214 168
f 137 165 167
f 89 215 185
f 143 184 216
f 102 217 90
f 133 218 145
f 107 219 97
f 135 220 158
f 98 221 214
f 161 167 222
f 100 223 215
f 143 73 163
f 71 224 102
f 145 225 67
f 66 226 107
f 158 227 63
f 109 62 221
f 160 222 60
f 112 57 223
f 196 200 228
f 176 183 200
f 183 229 230
f 230 231 232
f 231 233 232
f 234 235 233
f 235 207 209
f 207 203 209
f 201 204 203
f 189 192 204
f 192 169 178
f 178 236 237
f 236 238 237
f 239 240 238
f 241 242 240
f 211 208 242
f 206 202 208
f 197 190 202
f 186 191 190
f 191 243 172
f 172 244 245
f 244 246 245
f 247 248 246
f 249 250 248
f 210 212 250
f 205 198 212
f 193 199 198
f 199 181 188
f 181 166 188
f 251 252 166
f 253 254 252
f 255 228 254
f 185 243 256
f 184 230 216
f 217 251 181
f 179 237 218
f 219 229 175
f 173 245 220
f 221 169 214
f 167 252 222
f 215 244 243
f 216 232 73
f 224 253 251
f 225 237 238
f 226 231 229
f 220 246 227
f 62 236 221
f 222 254 60
f 223 247 244
f 73 233 55
f 70 255 253
f 68 238 240
f 65 234 231
f 47 246 248
f 45 239 62
f 5 254 228
f 42 247 57
f 55 235 56
f 195 255 53
f 51 240 242
f 48 213 234
f 47 250 35
f 33 241 45
f 42 210 249
f 1 23 2
f 4 59 5
f 7 120 8
f 10 27 11
f 13 29 14
f 16 194 17
f 19 115 20
f 1 34 22
f 24 7 9
f 26 39 27
f 28 41 29
f 18 17 30
f 32 19 21
f 34 46 35
f 36 24 25
f 38 51 39
f 40 56 41
f 31 30 42
f 44 32 33
f 46 64 47
f 36 37 48
f 50 68 51
f 52 195 53
f 40 72 55
f 43 42 57
f 59 160 60
f 61 44 45
f 63 227 47
f 49 48 65
f 67 225 68
f 66 118 69
f 54 53 70
f 72 163 73
f 74 134 75
f 76 123 77
f 61 119 79
f 43 58 80
f 82 52 76
f 52 54 83
f 84 120 85
f 87 121 88
f 90 122 91
f 36 49 69
f 44 79 94
f 31 43 81
f 82 78 96
f 98 84 86
f 100 89 88
f 102 90 92
f 36 93 104
f 32 94 105
f 18 31 95
f 107 97 96
f 109 98 99
f 100 101 111
f 71 102 103
f 24 104 114
f 115 19 105
f 16 18 106
f 107 108 118
f 109 110 119
f 112 111 80
f 71 113 83
f 120 7 114
f 115 116 121
f 16 117 91
f 83 164 123
f 12 136 124
f 3 138 126
f 40 139 128
f 50 38 129
f 46 142 131
f 132 144 77
f 133 146 134
f 135 148 124
f 137 150 126
f 28 152 139
f 38 26 140
f 46 34 141
f 143 155 144
f 145 157 146
f 135 158 147
f 137 161 149
f 28 13 151
f 10 162 140
f 34 1 153
f 143 163 154
f 145 67 156
f 158 63 159
f 160 164 149
f 13 15 75
f 10 12 125
f 3 127 153
f 163 72 128
f 50 130 156
f 64 131 159
f 4 77 123
f 59 123 164
f 113 149 164
f 103 150 149
f 92 126 150
f 91 127 126
f 117 153 127
f 106 141 153
f 95 142 141
f 81 131 142
f 80 159 131
f 111 147 159
f 101 148 147
f 88 124 148
f 105 140 162
f 116 162 125
f 121 125 124
f 94 129 140
f 79 130 129
f 79 119 156
f 110 157 156
f 99 146 157
f 86 134 146
f 85 75 134
f 114 151 75
f 104 152 151
f 93 139 152
f 69 128 139
f 118 154 128
f 108 155 154
f 96 144 155
f 78 77 144
f 165 188 166
f 168 214 169
f 171 191 172
f 174 219 175
f 177 192 178
f 180 217 181
f 6 200 183
f 185 256 186
f 2 199 188
f 8 168 170
f 171 11 190
f 14 204 192
f 180 182 193
f 195 174 176
f 187 186 197
f 2 23 198
f 5 228 200
f 9 8 189
f 11 27 202
f 14 29 203
f 17 194 193
f 20 197 206
f 22 212 198
f 25 9 201
f 27 39 208
f 29 41 209
f 30 17 205
f 33 21 206
f 35 250 212
f 25 207 213
f 51 242 208
f 56 235 209
f 115 87 187
f 82 174 195
f 16 122 180
f 74 15 14
f 12 11 171
f 84 168 8
f 138 3 2
f 87 89 185
f 132 4 6
f 90 217 180
f 74 177 179
f 97 219 174
f 136 171 173
f 84 98 214
f 137 138 165
f 89 100 215
f 143 132 184
f 102 224 217
f 133 179 218
f 107 226 219
f 135 173 220
f 98 109 221
f 161 137 167
f 100 112 223
f 143 216 73
f 71 70 224
f 145 218 225
f 66 65 226
f 158 220 227
f 109 61 62
f 160 161 222
f 112 58 57
f 196 176 200
f 176 175 183
f 183 175 229
f 230 229 231
f 231 234 233
f 234 213 235
f 235 213 207
f 207 201 203
f 201 189 204
f 189 170 192
f 192 170 169
f 178 169 236
f 236 239 238
f 239 241 240
f 241 211 242
f 211 206 208
f 206 197 202
f 197 186 190
f 186 256 191
f 191 256 243
f 172 243 244
f 244 247 246
f 247 249 248
f 249 210 250
f 210 205 212
f 205 193 198
f 193 182 199
f 199 182 181
f 181 251 166
f 251 253 252
f 253 255 254
f 255 196 228
f 185 215 243
f 184 183 230
f 217 224 251
f 179 178 237
f 219 226 229
f 173 172 245
f 221 236 169
f 167 166 252
f 215 223 244
f 216 230 232
f 224 70 253
f 225 218 237
f 226 65 231
f 220 245 246
f 62 239 236
f 222 252 254
f 223 57 247
f 73 232 233
f 70 53 255
f 68 225 238
f 65 48 234
f 47 227 246
f 45 241 239
f 5 60 254
f 42 249 247
f 55 233 235
f 195 196 255
f 51 68 240
f 48 37 213
f 47 248 250
f 33 211 241
f 42 30 210
f 3 2 23
f 23 1 3
f 6 5 59
f 59 4 6
f 9 8 120
f 120 7 9
f 12 11 27
f 27 10 12
f 15 14 29
f 29 13 15
f 18 17 194
f 194 16 18
f 21 20 115
f 115 19 21
f 23 22 34
f 34 1 23
f 24 25 9
f 10 27 39
f 39 26 10
f 28 13 29
f 18 31 30
f 32 33 21
f 22 35 46
f 46 34 22
f 37 25 24
f 24 36 37
f 38 26 39
f 28 41 56
f 56 40 28
f 43 42 30
f 30 31 43
f 45 33 32
f 32 44 45
f 35 47 64
f 64 46 35
f 49 48 37
f 37 36 49
f 38 51 68
f 68 50 38
f 52 54 53
f 56 55 72
f 72 40 56
f 58 57 42
f 42 43 58
f 59 5 60
f 62 45 44
f 44 61 62
f 64 47 227
f 227 63 64
f 66 65 48
f 48 49 66
f 50 68 225
f 225 67 50
f 71 70 53
f 53 54 71
f 55 73 163
f 163 72 55
f 78 77 123
f 123 76 78
f 76 123 164
f 164 83 76
f 83 164 149
f 149 113 83
f 113 149 150
f 150 103 113
f 103 150 126
f 126 92 103
f 92 126 127
f 127 91 92
f 91 127 153
f 153 117 91
f 117 153 141
f 141 106 117
f 106 141 142
f 142 95 106
f 95 142 131
f 131 81 95
f 81 131 159
f 159 80 81
f 80 159 147
f 147 111 80
f 111 147 148
f 148 101 111
f 101 148 124
f 124 88 101
f 116 162 140
f 140 105 116
f 121 125 162
f 162 116 121
f 88 124 125
f 125 121 88
f 105 140 129
f 129 94 105
f 94 129 130
f 130 79 94
f 130 156 119
f 119 79 130
f 119 156 157
f 157 110 119
f 110 157 146
f 146 99 110
f 99 146 134
f 134 86 99
f 86 134 75
f 75 85 86
f 85 75 151
f 151 114 85
f 114 151 152
f 152 104 114
f 104 152 139
f 139 93 104
f 93 139 128
f 128 69 93
f 69 128 154
f 154 118 69
f 118 154 155
f 155 108 118
f 108 155 144
f 144 96 108
f 96 144 77
f 77 78 96
f 20 187 87
f 87 115 20
f 52 195 174
f 174 82 52
f 194 180 122
f 122 16 194
f 177 14 15
f 15 74 177
f 136 171 11
f 11 12 136
f 120 8 168
f 168 84 120
f 165 2 3
f 3 138 165
f 187 185 89
f 89 87 187
f 184 6 4
f 4 132 184
f 122 180 217
f 217 90 122
f 133 179 177
f 177 74 133
f 82 174 219
f 219 97 82
f 135 173 171
f 171 136 135
f 168 214 98
f 98 84 168
f 167 165 138
f 138 137 167
f 185 215 100
f 100 89 185
f 216 184 132
f 132 143 216
f 90 217 224
f 224 102 90
f 145 218 179
f 179 133 145
f 97 219 226
f 226 107 97
f 158 220 173
f 173 135 158
f 214 221 109
f 109 98 214
f 222 167 137
f 137 161 222
f 215 223 112
f 112 100 215
f 163 73 216
f 216 143 163
f 102 224 70
f 70 71 102
f 67 225 218
f 218 145 67
f 107 226 65
f 65 66 107
f 63 227 220
f 220 158 63
f 221 62 61
f 61 109 221
f 60 222 161
f 161 160 60
f 223 57 58
f 58 112 223
f 228 200 176
f 176 196 228
f 200 183 175
f 175 176 200
f 230 229 175
f 175 183 230
f 232 231 229
f 229 230 232
f 232 233 234
f 234 231 232
f 233 235 213
f 213 234 233
f 209 207 213
f 213 235 209
f 209 203 201
f 201 207 209
f 203 204 189
f 189 201 203
f 204 192 170
f 170 189 204
f 178 169 170
f 170 192 178
f 237 236 169
f 169 178 237
f 237 238 239
f 239 236 237
f 238 240 241
f 241 239 238
f 240 242 211
f 211 241 240
f 242 208 206
f 206 211 242
f 208 202 197
f 197 206 208
f 202 190 186
f 186 197 202
f 190 191 256
f 256 186 190
f 172 243 256
f 256 191 172
f 245 244 243
f 243 172 245
f 245 246 247
f 247 244 245
f 246 248 249
f 249 247 246
f 248 250 210
f 210 249 248
f 250 212 205
f 205 210 250
f 212 198 193
f 193 205 212
f 198 199 182
f 182 193 198
f 188 181 182
f 182 199 188
f 188 166 251
f 251 181 188
f 166 252 253
f 253 251 166
f 252 254 255
f 255 253 252
f 254 228 196
f 196 255 254
f 24 9 7
f 28 29 41
f 18 30 17
f 32 21 19
f 38 39 51
f 52 53 195
f 59 60 160