# https://github.com/mikedh/trimesh
v 0.00019854 -0.02841459 0.02573683
v 0.01515375 -0.02694837 0.03256222
v 0.00019854 -0.03574557 0.03332061
v -0.01475666 -0.02694837 0.03256222
v 0.01515375 -0.02254979 0.02725358
v -0.01475666 -0.02254979 0.02725358
v -0.01475666 -0.02841459 0.04393789
v 0.00019854 -0.03427939 0.04545466
v 0.01515375 -0.02841459 0.04393789
v -0.02443357 -0.00348921 0.02877034
v -0.01475666 0.00090937 0.02118655
v 0.00019854 -0.02108361 0.02118655
v 0.01515375 0.00090937 0.02118655
v 0.02483066 -0.00348921 0.02877034
v 0.04109520 -0.00597265 0.02637680
v 0.04109520 0.00868931 0.02637680
v 0.04373435 0.00209142 0.02978950
v 0.04109520 0.00868931 0.03320221
v -0.00139583 -0.02218554 0.00000000
v -0.01943007 -0.01632074 0.00000000
v -0.02382866 -0.00092567 0.00000000
v -0.02311401 -0.01485455 0.01048091
v -0.02311401 0.01733500 0.01017915
v -0.03526191 0.00271800 0.03532389
v -0.04069811 -0.00597265 0.03320221
v -0.03526191 -0.01047779 0.03229038
v -0.04069811 -0.00597265 0.02637680
v -0.03526191 -0.00607921 0.02546497
v -0.04333726 0.00209142 0.02978950
v -0.04069811 0.00868931 0.03320221
v -0.04069811 0.00868931 0.02637680
v -0.02355387 -0.00747070 0.02641515
v -0.02795246 0.00279267 0.02565677
v -0.02426543 0.01298139 0.03191119
v -0.01827554 0.00132645 0.03172379
v 0.02351110 -0.01485455 0.01048091
v 0.00179292 -0.02218554 0.00000000
v 0.01982715 -0.01632074 0.00000000
v 0.00179292 0.02180039 0.00000000
v 0.00195799 -0.01485455 0.01048091
v 0.00195799 0.01740180 0.01048091
v 0.02422574 -0.00092567 0.00000000
v -0.02267416 -0.02525152 0.01442765
v -0.03059160 0.00193993 0.00638726
v -0.02223428 -0.02231913 0.00684387
v 0.00019854 0.03939475 0.01654794
v -0.02267413 0.02771801 0.02565677
v 0.00019854 0.02918424 0.02944866
v 0.02307122 0.02771801 0.02565677
v 0.02307124 0.02766519 0.01654794
v 0.03318799 0.00114005 0.01670278
v -0.03279089 0.00114005 0.01670278
v -0.02267416 0.02766519 0.01654794
v 0.02834954 0.00279267 0.02565677
v -0.02047483 -0.02213268 0.02338164
v 0.00019854 -0.03551489 0.01442765
v 0.00019854 -0.02946370 0.02186488
v 0.02307124 -0.02525152 0.01442765
v 0.02087193 -0.02213268 0.02338164
v 0.00019854 -0.03404873 0.00305198
v 0.01867263 0.00132645 0.03172379
v 0.01207475 -0.01626791 0.02717353
v 0.00019854 -0.02066649 0.02565677
v -0.01739583 -0.01375263 0.05152168
v 0.00019854 -0.00935401 0.05531356
v -0.00683919 -0.00348921 0.05531356
v -0.00683922 0.01777065 0.05455518
v -0.02355387 0.00970653 0.04772979
v -0.01035807 0.00677418 0.05455518
v 0.01779293 -0.01375263 0.05152168
v 0.01075517 0.00677418 0.05455518
v 0.00723628 -0.00348921 0.05531356
v 0.00723631 0.01777065 0.05455518
v 0.02395095 0.00970653 0.04772979
v 0.01515375 0.03169952 0.04393789
v 0.00019854 0.00530796 0.05834708
v 0.00019854 0.02290232 0.05455518
v -0.00139583 0.02180039 0.00000000
v 0.02351110 0.01733500 0.01017915
v 0.01982715 0.01740180 0.00000000
v 0.03098869 0.00193993 0.00638726
v 0.02263136 -0.02231913 0.00684387
v 0.00019854 0.03646234 0.00289714
v 0.02219148 0.02326661 0.00593065
v -0.02179440 0.02326661 0.00593065
v -0.03526191 0.01004898 0.02546497
v -0.03526191 0.01444755 0.03229038
v -0.02355387 0.01158984 0.02869028
v -0.01167766 -0.01626791 0.02717353
v 0.00019854 0.00279267 0.03096541
v 0.02395095 -0.00747070 0.02641515
v 0.02746981 0.00237555 0.03711250
v 0.02483066 -0.01521881 0.04166276
v -0.02707272 0.00237555 0.03711250
v -0.02443357 -0.01521881 0.04166276
v 0.00019854 -0.02254979 0.05303844
v 0.03565899 0.01444755 0.03229038
v 0.03565899 0.01004898 0.02546497
v 0.03565899 0.00271800 0.03532389
v 0.03565899 -0.01047779 0.03229038
v 0.02466253 0.01298139 0.03191119
v 0.02395095 0.01158984 0.02869028
v -0.00156089 -0.01485455 0.01048091
v -0.01943007 0.01740180 0.00000000
v -0.00156089 0.01740180 0.01048091
v 0.00019854 0.04049667 0.04393789
v 0.02483066 0.02143613 0.03407898
v 0.01515375 0.03463192 0.03104548
v 0.00019854 0.00970653 0.01891142
v -0.01475666 0.03463192 0.03104548
v -0.02443357 0.02143613 0.03407898
v -0.01475666 0.03169952 0.04393789
v 0.00019854 0.03903049 0.03028709
v 0.03565899 -0.00607921 0.02546497
v 0.04109520 -0.00597265 0.03320221
f 1 2 3
f 4 1 3
f 2 1 5
f 1 4 6
f 4 3 7
f 7 3 8
f 2 9 3
f 3 9 8
f 10 11 6
f 6 11 12
f 5 13 14
f 5 12 13
f 6 12 1
f 10 6 4
f 5 14 2
f 12 5 1
f 15 16 17
f 17 16 18
f 19 20 21
f 21 22 23
f 24 25 26
f 26 27 28
f 29 27 25
f 29 30 31
f 32 28 33
f 34 24 35
f 36 37 38
f 39 40 41
f 42 38 37
f 43 44 45
f 46 47 48
f 49 46 48
f 46 49 50
f 51 50 49
f 52 47 53
f 46 53 47
f 44 43 52
f 51 49 54
f 52 43 55
f 52 55 33
f 55 56 57
f 56 55 43
f 56 58 59
f 56 59 57
f 59 51 54
f 51 59 58
f 43 60 56
f 47 52 33
f 45 60 43
f 47 35 48
f 61 49 48
f 59 61 62
f 57 59 62
f 57 62 63
f 64 65 66
f 67 68 69
f 70 71 72
f 73 74 75
f 76 77 67
f 76 71 73
f 76 65 72
f 76 69 66
f 21 78 19
f 39 79 80
f 36 42 79
f 42 80 79
f 37 36 40
f 79 39 41
f 60 81 82
f 44 60 45
f 83 60 44
f 83 84 81
f 60 83 81
f 44 85 83
f 31 28 27
f 25 24 30
f 86 87 24
f 87 88 86
f 34 88 87
f 26 35 24
f 28 86 33
f 32 35 26
f 57 89 55
f 89 57 63
f 90 48 35
f 59 91 61
f 90 89 63
f 90 35 89
f 90 62 61
f 90 63 62
f 54 91 59
f 90 61 48
f 35 55 89
f 74 71 70
f 69 68 64
f 66 69 64
f 14 92 93
f 2 93 9
f 14 93 2
f 68 94 95
f 68 95 64
f 64 95 7
f 64 7 96
f 96 7 8
f 94 10 95
f 95 4 7
f 9 96 8
f 10 4 95
f 70 96 9
f 93 70 9
f 74 70 93
f 92 74 93
f 97 16 98
f 99 61 100
f 99 101 61
f 98 54 102
f 55 35 32
f 33 88 47
f 55 32 33
f 58 81 51
f 81 58 82
f 81 84 50
f 81 50 51
f 53 44 52
f 22 21 20
f 22 19 103
f 23 78 104
f 23 104 21
f 78 23 105
f 84 83 50
f 50 83 46
f 83 53 46
f 53 83 85
f 44 53 85
f 106 73 75
f 92 14 107
f 107 13 108
f 107 14 13
f 109 11 110
f 74 73 71
f 94 68 111
f 111 68 112
f 111 112 110
f 110 112 106
f 110 106 113
f 106 108 113
f 106 75 108
f 75 107 108
f 108 13 109
f 68 67 112
f 67 106 112
f 73 106 77
f 106 67 77
f 11 111 110
f 11 10 111
f 109 12 11
f 109 13 12
f 109 110 113
f 10 94 111
f 74 92 107
f 108 109 113
f 75 74 107
f 60 58 56
f 58 60 82
f 39 42 37
f 42 36 38
f 37 40 39
f 42 39 80
f 78 105 19
f 105 103 19
f 19 22 20
f 78 21 104
f 27 26 25
f 31 87 86
f 30 24 87
f 28 31 86
f 25 30 29
f 31 27 29
f 87 31 30
f 98 16 114
f 114 15 100
f 15 114 16
f 97 99 18
f 16 97 18
f 115 100 15
f 100 115 99
f 18 99 115
f 17 115 15
f 18 115 17
f 98 97 99
f 54 98 114
f 98 102 97
f 91 114 100
f 101 99 97
f 114 91 54
f 100 61 91
f 97 102 101
f 61 101 102
f 88 33 86
f 28 32 26
f 47 88 35
f 88 34 35
f 49 102 54
f 61 102 49
f 24 34 87
f 72 65 70
f 65 96 70
f 65 64 96
f 67 69 76
f 73 77 76
f 72 71 76
f 66 65 76
f 20 22 19
f 22 20 19
f 103 105 23
f 23 22 103
f 19 21 20
f 88 86 33
f 33 86 88
f 62 61 59
f 67 69 68
f 73 75 74
f 86 24 87
f 69 66 64
f 64 68 69
f 70 71 73
f 73 74 70
f 11 12 13
f 13 109 11
f 98 99 97