# https://github.com/mikedh/trimesh
v -0.01685503 -0.00000000 -0.00694339
v -0.01899776 -0.00000000 0.00177519
v -0.01714546 -0.00000000 0.01056005
v -0.01166499 0.00000000 0.01767125
v -0.00364180 0.00000000 0.02170034
v 0.00533500 0.00000000 0.02184929
v 0.01348743 0.00000000 0.01808861
v 0.01920083 0.00000000 0.01116313
v 0.02134357 0.00000000 0.00244455
v 0.01949125 -0.00000000 -0.00634032
v 0.01401077 -0.00000000 -0.01345152
v 0.00598760 -0.00000000 -0.01748060
v -0.00298921 -0.00000000 -0.01762955
v -0.01114164 -0.00000000 -0.01386887
v -0.01450902 -0.08821104 0.00934388
v -0.01450902 -0.02333500 0.00934387
v -0.01609474 -0.02333500 0.00182336
v -0.01609474 -0.08821104 0.00182337
v -0.01426039 -0.02333500 -0.00564042
v -0.01426039 -0.08821104 -0.00564042
v -0.00936929 -0.02333500 -0.01156915
v -0.00936929 -0.08821104 -0.01156915
v -0.00239018 -0.02333500 -0.01478859
v -0.00239018 -0.08821104 -0.01478859
v 0.00529464 -0.02333500 -0.01466108
v 0.00529465 -0.08821104 -0.01466108
v 0.01216311 -0.02333500 -0.01121187
v 0.01216311 -0.08821104 -0.01121186
v 0.01685482 -0.02333500 -0.00512414
v 0.01685482 -0.08821104 -0.00512414
v 0.01844054 -0.02333500 0.00239638
v 0.01844054 -0.08821104 0.00239639
v 0.01660619 -0.02333500 0.00986015
v 0.01660619 -0.08821104 0.00986016
v 0.01171509 -0.02333500 0.01578890
v 0.01171509 -0.08821104 0.01578890
v 0.00473597 -0.02333500 0.01900833
v 0.00473597 -0.08821104 0.01900834
v -0.00294885 -0.02333500 0.01888081
v -0.00294885 -0.08821104 0.01888081
v -0.00981732 -0.02333500 0.01543161
v -0.00981732 -0.08821104 0.01543161
v 0.00492962 -0.09896961 0.00698442
v 0.00244261 -0.09896961 0.00813167
v -0.00029589 -0.09896961 0.00808623
v -0.00274349 -0.09896961 0.00685710
v -0.00441539 -0.09896961 0.00468773
v -0.00498046 -0.09896961 0.00200777
v -0.00432678 -0.09896961 -0.00065195
v -0.00258383 -0.09896961 -0.00276468
v -0.00009681 -0.09896961 -0.00391193
v 0.00264170 -0.09896961 -0.00386648
v 0.00508928 -0.09896961 -0.00263736
v 0.00676119 -0.09896961 -0.00046799
v 0.00732625 -0.09896961 0.00221197
v 0.00667257 -0.09896961 0.00487170
v -0.01899777 -0.01850065 0.00177519
v -0.01714546 -0.01850065 0.01056005
v -0.01166498 -0.01850065 0.01767125
v -0.00364180 -0.01850065 0.02170034
v 0.00533500 -0.01850065 0.02184929
v 0.01348743 -0.01850065 0.01808861
v 0.01920083 -0.01850065 0.01116313
v 0.02134357 -0.01850065 0.00244455
v 0.01949126 -0.01850065 -0.00634032
v 0.01401077 -0.01850065 -0.01345151
v 0.00598760 -0.01850065 -0.01748060
v -0.00298921 -0.01850065 -0.01762955
v -0.01114164 -0.01850065 -0.01386887
v -0.01685504 -0.01850065 -0.00694339
v -0.01867521 -0.02075511 0.00178054
v -0.01685252 -0.02075511 0.01042492
v -0.01145968 -0.02075511 0.01742240
v -0.00356481 -0.02075511 0.02138706
v 0.00526844 -0.02075511 0.02153363
v 0.01329051 -0.02075511 0.01783309
v 0.01891254 -0.02075511 0.01101835
v 0.02102101 -0.02075511 0.00243920
v 0.01919832 -0.02075511 -0.00620519
v 0.01380548 -0.02075511 -0.01320267
v 0.00591060 -0.02075511 -0.01716732
v -0.00292264 -0.02075511 -0.01731389
v -0.01094471 -0.02075511 -0.01361334
v -0.01656673 -0.02075511 -0.00679862
v -0.01770754 -0.02210779 0.00179660
v -0.01597371 -0.02210779 0.01001953
v -0.01084380 -0.02210779 0.01667585
v -0.00333383 -0.02210779 0.02044722
v 0.00506876 -0.02210779 0.02058664
v 0.01269972 -0.02210779 0.01706651
v 0.01804764 -0.02210779 0.01058404
v 0.02005334 -0.02210779 0.00242314
v 0.01831951 -0.02210779 -0.00579980
v 0.01318958 -0.02210779 -0.01245612
v 0.00567960 -0.02210779 -0.01622748
v -0.00272297 -0.02210779 -0.01636690
v -0.01035393 -0.02210779 -0.01284678
v -0.01570187 -0.02210779 -0.00636430
v -0.01526337 -0.08910720 0.00969186
v -0.01692538 -0.08910720 0.00180959
v -0.01500279 -0.08910720 -0.00601324
v -0.00987640 -0.08910720 -0.01222717
v -0.00256158 -0.08910720 -0.01560146
v 0.00549291 -0.08910720 -0.01546782
v 0.01269178 -0.08910720 -0.01185269
v 0.01760917 -0.08910720 -0.00547212
v 0.01927117 -0.08910720 0.00241016
v 0.01734858 -0.08910720 0.01023298
v 0.01222220 -0.08910720 0.01644691
v 0.00490737 -0.08910720 0.01982121
v -0.00314713 -0.08910720 0.01968757
v -0.01034598 -0.08910720 0.01607244
v -0.01174377 -0.09647255 0.00806828
v -0.01422279 -0.09501921 0.00921184
v -0.01577957 -0.09501921 0.00182859
v -0.01304987 -0.09647255 0.00187388
v -0.01397870 -0.09501921 -0.00549895
v -0.01153898 -0.09647255 -0.00427378
v -0.00917687 -0.09501921 -0.01131947
v -0.00751034 -0.09647255 -0.00915707
v -0.00232514 -0.09501921 -0.01448014
v -0.00176189 -0.09647255 -0.01180881
v 0.00521941 -0.09501921 -0.01435496
v 0.00456784 -0.09647255 -0.01170379
v 0.01196251 -0.09501921 -0.01096872
v 0.01022516 -0.09647255 -0.00886279
v 0.01656858 -0.09501921 -0.00499210
v 0.01408957 -0.09647255 -0.00384854
v 0.01812536 -0.09501921 0.00239116
v 0.01539566 -0.09647254 0.00234586
v 0.01632449 -0.09501921 0.00971870
v 0.01388478 -0.09647254 0.00849352
v 0.01152267 -0.09501921 0.01553921
v 0.00985614 -0.09647254 0.01337682
v 0.00467094 -0.09501921 0.01869989
v 0.00410769 -0.09647254 0.01602856
v -0.00287362 -0.09501921 0.01857471
v -0.00222205 -0.09647254 0.01592353
v -0.00961672 -0.09501921 0.01518845
v -0.00787937 -0.09647254 0.01308254
v -0.01618691 -0.09334879 0.01011788
v -0.01794230 -0.09334879 0.00179271
v -0.01591169 -0.09334879 -0.00646966
v -0.01049726 -0.09334880 -0.01303274
v -0.00277141 -0.09334880 -0.01659665
v 0.00573565 -0.09334879 -0.01645549
v 0.01333901 -0.09334879 -0.01263723
v 0.01853271 -0.09334879 -0.00589814
v 0.02028810 -0.09334879 0.00242705
v 0.01825749 -0.09334879 0.01068941
v 0.01284306 -0.09334879 0.01725249
v 0.00511721 -0.09334879 0.02081639
v -0.00338986 -0.09334879 0.02067524
v -0.01099322 -0.09334879 0.01685698
v -0.01653377 -0.09140219 0.01027789
v -0.01832424 -0.09140219 0.00178636
v -0.01625305 -0.09140219 -0.00664108
v -0.01073043 -0.09140219 -0.01333530
v -0.00285023 -0.09140219 -0.01697041
v 0.00582682 -0.09140219 -0.01682644
v 0.01358209 -0.09140219 -0.01293189
v 0.01887957 -0.09140219 -0.00605815
v 0.02067003 -0.09140219 0.00243338
v 0.01859884 -0.09140219 0.01086082
v 0.01307623 -0.09140219 0.01755506
v 0.00519602 -0.09140219 0.02119016
v -0.00348103 -0.09140219 0.02104618
v -0.01123630 -0.09140219 0.01715163
v -0.00819244 -0.09808182 0.00643007
v -0.00913944 -0.09808182 0.00193876
v -0.00804395 -0.09808182 -0.00251865
v -0.00512296 -0.09808182 -0.00605932
v -0.00095500 -0.09808182 -0.00798198
v 0.00363443 -0.09808182 -0.00790583
v 0.00773631 -0.09808182 -0.00584595
v 0.01053822 -0.09808182 -0.00221032
v 0.01148523 -0.09808182 0.00228098
v 0.01038975 -0.09808182 0.00673839
v 0.00746875 -0.09808182 0.01027906
v 0.00330078 -0.09808182 0.01220172
v -0.00128863 -0.09808182 0.01212557
v -0.00539052 -0.09808182 0.01006569
v -0.01136284 -0.06988798 -0.00710501
v 0.00229975 -0.06988798 -0.01340750
v 0.00072244 -0.06988797 -0.01682680
v -0.01294015 -0.06988797 -0.01052431
v -0.01136284 -0.08141475 -0.00710500
v -0.01294015 -0.08141475 -0.01052431
v 0.00072245 -0.08141475 -0.01682680
v 0.00229975 -0.08141475 -0.01340750
v -0.01161545 -0.08140931 -0.00675459
v 0.00273028 -0.08140931 -0.01337222
v 0.00097505 -0.08140931 -0.01717721
v -0.01337068 -0.08140931 -0.01055959
v -0.00444258 -0.08534424 -0.01006341
v -0.00619781 -0.08534424 -0.01386840
v 0.00069015 -0.08144386 -0.01668716
v 0.00163391 -0.08041667 -0.01464127
v -0.01186920 -0.08041667 -0.00841234
v -0.01281296 -0.08144386 -0.01045823
v -0.01263824 -0.07638958 -0.01007948
v -0.01358201 -0.07741677 -0.01212537
v -0.00007890 -0.07741677 -0.01835430
v 0.00086486 -0.07638958 -0.01630841
v -0.01202631 -0.07759782 -0.00905344
v -0.01235488 -0.07292757 -0.00976571
v -0.01337776 -0.07333771 -0.01198313
v -0.01304920 -0.07800795 -0.01127086
v -0.00010326 -0.07333771 -0.01810660
v 0.00022530 -0.07800795 -0.01739434
v 0.00091963 -0.07292757 -0.01588918
v 0.00124819 -0.07759782 -0.01517692
f 1 2 3
f 3 4 5
f 5 6 7
f 3 5 7
f 7 8 9
f 9 10 11
f 7 9 11
f 3 7 11
f 1 3 11
f 11 12 13
f 1 11 13
f 1 13 14
f 15 16 17
f 17 18 15
f 18 17 19
f 19 20 18
f 20 19 21
f 21 22 20
f 22 21 23
f 23 24 22
f 24 23 25
f 25 26 24
f 26 25 27
f 27 28 26
f 28 27 29
f 29 30 28
f 30 29 31
f 31 32 30
f 32 31 33
f 33 34 32
f 34 33 35
f 35 36 34
f 36 35 37
f 37 38 36
f 38 37 39
f 39 40 38
f 40 39 41
f 41 42 40
f 42 41 16
f 16 15 42
f 43 44 45
f 45 46 47
f 47 48 49
f 45 47 49
f 49 50 51
f 51 52 53
f 49 51 53
f 45 49 53
f 43 45 53
f 53 54 55
f 43 53 55
f 43 55 56
f 2 57 58
f 58 3 2
f 3 58 59
f 59 4 3
f 4 59 60
f 60 5 4
f 5 60 61
f 61 6 5
f 6 61 62
f 62 7 6
f 7 62 63
f 63 8 7
f 8 63 64
f 64 9 8
f 9 64 65
f 65 10 9
f 10 65 66
f 66 11 10
f 11 66 67
f 67 12 11
f 12 67 68
f 68 13 12
f 13 68 69
f 69 14 13
f 14 69 70
f 70 1 14
f 1 70 57
f 57 2 1
f 58 57 71
f 71 72 58
f 59 58 72
f 72 73 59
f 60 59 73
f 73 74 60
f 61 60 74
f 74 75 61
f 62 61 75
f 75 76 62
f 63 62 76
f 76 77 63
f 64 63 77
f 77 78 64
f 65 64 78
f 78 79 65
f 66 65 79
f 79 80 66
f 67 66 80
f 80 81 67
f 68 67 81
f 81 82 68
f 69 68 82
f 82 83 69
f 70 69 83
f 83 84 70
f 57 70 84
f 84 71 57
f 72 71 85
f 85 86 72
f 86 85 17
f 17 16 86
f 73 72 86
f 86 87 73
f 87 86 16
f 16 41 87
f 74 73 87
f 87 88 74
f 88 87 41
f 41 39 88
f 75 74 88
f 88 89 75
f 89 88 39
f 39 37 89
f 76 75 89
f 89 90 76
f 90 89 37
f 37 35 90
f 77 76 90
f 90 91 77
f 91 90 35
f 35 33 91
f 78 77 91
f 91 92 78
f 92 91 33
f 33 31 92
f 79 78 92
f 92 93 79
f 93 92 31
f 31 29 93
f 80 79 93
f 93 94 80
f 94 93 29
f 29 27 94
f 81 80 94
f 94 95 81
f 95 94 27
f 27 25 95
f 82 81 95
f 95 96 82
f 96 95 25
f 25 23 96
f 83 82 96
f 96 97 83
f 97 96 23
f 23 21 97
f 84 83 97
f 97 98 84
f 98 97 21
f 21 19 98
f 71 84 98
f 98 85 71
f 85 98 19
f 19 17 85
f 99 15 18
f 18 100 99
f 100 18 20
f 20 101 100
f 101 20 22
f 22 102 101
f 102 22 24
f 24 103 102
f 103 24 26
f 26 104 103
f 104 26 28
f 28 105 104
f 105 28 30
f 30 106 105
f 106 30 32
f 32 107 106
f 107 32 34
f 34 108 107
f 108 34 36
f 36 109 108
f 109 36 38
f 38 110 109
f 110 38 40
f 40 111 110
f 111 40 42
f 42 112 111
f 112 42 15
f 15 99 112
f 113 114 115
f 115 116 113
f 116 115 117
f 117 118 116
f 118 117 119
f 119 120 118
f 120 119 121
f 121 122 120
f 122 121 123
f 123 124 122
f 124 123 125
f 125 126 124
f 126 125 127
f 127 128 126
f 128 127 129
f 129 130 128
f 130 129 131
f 131 132 130
f 132 131 133
f 133 134 132
f 134 133 135
f 135 136 134
f 136 135 137
f 137 138 136
f 138 137 139
f 139 140 138
f 140 139 114
f 114 113 140
f 115 114 141
f 141 142 115
f 117 115 142
f 142 143 117
f 119 117 143
f 143 144 119
f 121 119 144
f 144 145 121
f 123 121 145
f 145 146 123
f 125 123 146
f 146 147 125
f 127 125 147
f 147 148 127
f 129 127 148
f 148 149 129
f 131 129 149
f 149 150 131
f 133 131 150
f 150 151 133
f 135 133 151
f 151 152 135
f 137 135 152
f 152 153 137
f 139 137 153
f 153 154 139
f 114 139 154
f 154 141 114
f 142 141 155
f 155 156 142
f 156 155 99
f 99 100 156
f 143 142 156
f 156 157 143
f 157 156 100
f 100 101 157
f 144 143 157
f 157 158 144
f 158 157 101
f 101 102 158
f 145 144 158
f 158 159 145
f 159 158 102
f 102 103 159
f 146 145 159
f 159 160 146
f 160 159 103
f 103 104 160
f 147 146 160
f 160 161 147
f 161 160 104
f 104 105 161
f 148 147 161
f 161 162 148
f 162 161 105
f 105 106 162
f 149 148 162
f 162 163 149
f 163 162 106
f 106 107 163
f 150 149 163
f 163 164 150
f 164 163 107
f 107 108 164
f 151 150 164
f 164 165 151
f 165 164 108
f 108 109 165
f 152 151 165
f 165 166 152
f 166 165 109
f 109 110 166
f 153 152 166
f 166 167 153
f 167 166 110
f 110 111 167
f 154 153 167
f 167 168 154
f 168 167 111
f 111 112 168
f 141 154 168
f 168 155 141
f 155 168 112
f 112 99 155
f 48 47 169
f 169 170 48
f 49 48 170
f 170 171 49
f 50 49 171
f 171 172 50
f 51 50 172
f 172 173 51
f 52 51 173
f 173 174 52
f 53 52 174
f 174 175 53
f 54 53 175
f 175 176 54
f 55 54 176
f 176 177 55
f 56 55 177
f 177 178 56
f 43 56 178
f 178 179 43
f 44 43 179
f 179 180 44
f 45 44 180
f 180 181 45
f 46 45 181
f 181 182 46
f 47 46 182
f 182 169 47
f 170 169 113
f 113 116 170
f 171 170 116
f 116 118 171
f 172 171 118
f 118 120 172
f 173 172 120
f 120 122 173
f 174 173 122
f 122 124 174
f 175 174 124
f 124 126 175
f 176 175 126
f 126 128 176
f 177 176 128
f 128 130 177
f 178 177 130
f 130 132 178
f 179 178 132
f 132 134 179
f 180 179 134
f 134 136 180
f 181 180 136
f 136 138 181
f 182 181 138
f 138 140 182
f 169 182 140
f 140 113 169
f 183 184 185
f 185 186 183
f 187 183 186
f 186 188 187
f 188 186 185
f 185 189 188
f 189 185 184
f 184 190 189
f 191 192 193
f 193 194 191
f 195 191 194
f 194 196 195
f 194 193 196
f 196 193 192
f 192 195 196
f 197 198 199
f 199 200 197
f 199 201 202
f 202 200 199
f 200 202 203
f 203 197 200
f 197 203 204
f 204 198 197
f 205 206 207
f 207 208 205
f 208 207 209
f 209 210 208
f 210 209 211
f 211 212 210
f 186 185 184
f 184 183 186
f 188 186 183
f 183 187 188
f 189 185 186
f 186 188 189
f 190 184 185
f 185 189 190
f 194 193 192
f 192 191 194
f 196 194 191
f 191 195 196
f 194 196 193
f 195 192 193
f 193 196 195
f 200 199 198
f 198 197 200
f 200 202 201
f 201 199 200
f 197 203 202
f 202 200 197
f 198 204 203
f 203 197 198
f 208 207 206
f 206 205 208
f 210 209 207
f 207 208 210
f 212 211 209
f 209 210 212