# https://github.com/mikedh/trimesh
v 0.00059938 0.01024227 0.04753884
v 0.00059937 -0.00000001 0.04800000
v 0.00185537 0.01004547 0.04753884
v 0.00059938 -0.00000001 0.00000000
v 0.00059938 0.01024222 0.00046115
v 0.00185537 0.01004543 0.00046115
v 0.00306309 0.00946262 0.04753884
v 0.00306309 0.00946259 0.00046115
v 0.00417614 0.00851613 0.04753884
v 0.00417613 0.00851611 0.00046115
v 0.00515173 0.00724238 0.04753884
v 0.00515172 0.00724235 0.00046115
v 0.00595237 0.00569030 0.04753884
v 0.00595237 0.00569028 0.00046115
v 0.00654731 0.00391954 0.04753884
v 0.00654730 0.00391952 0.00046115
v 0.00691366 0.00199817 0.04753884
v 0.00691366 0.00199815 0.00046115
v 0.00703737 0.00000001 0.04753884
v 0.00703736 -0.00000001 0.00046115
v 0.00691366 -0.00199816 0.04753884
v 0.00691366 -0.00199817 0.00046116
v 0.00654731 -0.00391953 0.04753884
v 0.00654730 -0.00391954 0.00046116
v 0.00595237 -0.00569029 0.04753884
v 0.00595236 -0.00569030 0.00046116
v 0.00515172 -0.00724236 0.04753884
v 0.00515172 -0.00724238 0.00046116
v 0.00417614 -0.00851612 0.04753884
v 0.00417613 -0.00851612 0.00046116
v 0.00306309 -0.00946260 0.04753884
v 0.00306309 -0.00946261 0.00046116
v 0.00185537 -0.01004544 0.04753884
v 0.00185537 -0.01004546 0.00046116
v 0.00059938 -0.01024225 0.04753884
v 0.00059938 -0.01024226 0.00046116
v -0.00065661 -0.01004546 0.00046116
v -0.00065661 -0.01004544 0.04753884
v -0.00186433 -0.00946260 0.04753884
v -0.00186433 -0.00946261 0.00046116
v -0.00297737 -0.00851611 0.04753884
v -0.00297737 -0.00851612 0.00046116
v -0.00395296 -0.00724235 0.04753884
v -0.00395296 -0.00724236 0.00046116
v -0.00475361 -0.00569029 0.04753884
v -0.00475360 -0.00569030 0.00046116
v -0.00534854 -0.00391953 0.04753884
v -0.00534853 -0.00391954 0.00046116
v -0.00571490 -0.00199816 0.04753884
v -0.00571489 -0.00199817 0.00046116
v -0.00583860 0.00000001 0.04753884
v -0.00583860 -0.00000001 0.00046115
v -0.00571490 0.00199817 0.04753884
v -0.00571489 0.00199815 0.00046115
v -0.00534854 0.00391954 0.04753884
v -0.00534853 0.00391952 0.00046115
v -0.00475361 0.00569030 0.04753884
v -0.00475360 0.00569028 0.00046115
v -0.00395296 0.00724238 0.04753884
v -0.00395296 0.00724234 0.00046115
v -0.00297737 0.00851613 0.04753884
v -0.00297737 0.00851610 0.00046115
v -0.00186433 0.00946261 0.04753884
v -0.00186433 0.00946259 0.00046115
v -0.00065661 0.01004546 0.04753884
v -0.00065661 0.01004542 0.00046115
v 0.00059938 0.05149124 0.01931783
v 0.00059938 0.05250002 0.02400000
v 0.00703736 0.05149124 0.02400000
v 0.00691366 0.05050185 0.01931783
v 0.00059938 0.02009091 0.04617311
v 0.00306309 0.01970487 0.04617311
v 0.00059938 0.04850366 0.01481560
v 0.00654730 0.04757170 0.01481560
v 0.00059938 0.02916746 0.04395527
v 0.00417613 0.02860702 0.04395527
v 0.00059939 0.04365212 0.01066631
v 0.00595237 0.04281340 0.01066631
v 0.00059938 0.03712313 0.04097056
v 0.00515172 0.03640981 0.04097056
v 0.00059939 0.03712310 0.00702944
v 0.00515172 0.03640980 0.00702944
v 0.00059938 0.04365218 0.03733368
v 0.00595237 0.04281341 0.03733368
v 0.00059938 0.02916745 0.00404472
v 0.00417613 0.02860700 0.00404472
v 0.00059938 0.04850369 0.03318440
v 0.00654730 0.04757171 0.03318440
v 0.00059938 0.02009086 0.00182689
v 0.00306309 0.01970484 0.00182689
v 0.00059938 0.05149124 0.02868216
v 0.00691366 0.05050185 0.02868216
v 0.01298528 0.04757170 0.02868216
v 0.01322794 0.04850369 0.02400000
v 0.01298528 0.04757170 0.01931783
v 0.00543212 0.01856157 0.04617311
v 0.01226665 0.04481156 0.01481560
v 0.00761543 0.02694722 0.04395527
v 0.01109964 0.04032933 0.01066631
v 0.00952912 0.03429729 0.04097056
v 0.00952912 0.03429728 0.00702944
v 0.01109964 0.04032935 0.03733368
v 0.00761543 0.02694720 0.00404472
v 0.01226664 0.04481156 0.03318440
v 0.00543212 0.01856155 0.00182689
v 0.01584340 0.03629544 0.01066631
v 0.01356335 0.03086675 0.00702944
v 0.01356335 0.03086676 0.04097056
v 0.01584340 0.03629546 0.03733368
v 0.01078511 0.02425184 0.00404472
v 0.01753763 0.04032935 0.03318440
v 0.00761543 0.01670495 0.00182689
v 0.01858092 0.04281340 0.02868216
v 0.01893320 0.04365216 0.02400000
v 0.01858092 0.04281339 0.01931783
v 0.00761544 0.01670498 0.04617311
v 0.01753763 0.04032935 0.01481560
v 0.01078511 0.02425186 0.04395527
v 0.02393391 0.03712311 0.02400000
v 0.02348554 0.03640980 0.01931783
v 0.00952912 0.01420642 0.04617311
v 0.02215767 0.03429728 0.01481560
v 0.01356336 0.02062451 0.04395527
v 0.02000133 0.03086673 0.01066632
v 0.01709939 0.02625002 0.04097056
v 0.01709939 0.02625000 0.00702944
v 0.02000133 0.03086675 0.03733368
v 0.01356335 0.02062449 0.00404472
v 0.02215767 0.03429728 0.03318440
v 0.00952912 0.01420640 0.00182689
v 0.02348554 0.03640980 0.02868216
v 0.02000133 0.02062451 0.04097056
v 0.02341366 0.02425185 0.03733368
v 0.02000133 0.02062449 0.00702944
v 0.01584340 0.01620456 0.00404473
v 0.02594925 0.02694721 0.03318440
v 0.01109964 0.01116189 0.00182689
v 0.02751066 0.02860700 0.02868216
v 0.02803788 0.02916745 0.02400000
v 0.02751066 0.02860699 0.01931783
v 0.01109965 0.01116191 0.04617311
v 0.02594925 0.02694720 0.01481560
v 0.01584340 0.01620458 0.04395527
v 0.02341366 0.02425184 0.01066632
v 0.03108741 0.02009088 0.02400000
v 0.03050159 0.01970484 0.01931784
v 0.01226665 0.00768846 0.04617311
v 0.02876665 0.01856155 0.01481560
v 0.01753763 0.01116191 0.04395527
v 0.02594925 0.01670495 0.01066632
v 0.02215767 0.01420641 0.04097056
v 0.02215767 0.01420640 0.00702944
v 0.02594925 0.01670496 0.03733368
v 0.01753763 0.01116189 0.00404473
v 0.02876665 0.01856156 0.03318440
v 0.01226665 0.00768845 0.00182689
v 0.03050159 0.01970484 0.02868217
v 0.02348555 0.00724235 0.00702944
v 0.01858093 0.00569028 0.00404473
v 0.02751066 0.00851612 0.03733368
v 0.03050159 0.00946260 0.03318440
v 0.01298528 0.00391953 0.00182689
v 0.03234339 0.01004543 0.02868217
v 0.03296530 0.01024225 0.02400000
v 0.03234339 0.01004543 0.01931784
v 0.01298529 0.00391954 0.04617311
v 0.03050159 0.00946260 0.01481560
v 0.01858093 0.00569030 0.04395527
v 0.02751066 0.00851611 0.01066632
v 0.02348555 0.00724236 0.04097056
v 0.03296529 -0.00000001 0.01931784
v 0.03108741 0.00000000 0.01481560
v 0.01322794 0.00000001 0.04617311
v 0.01893320 0.00000001 0.04395527
v 0.02803788 -0.00000001 0.01066632
v 0.02393391 0.00000001 0.04097056
v 0.02393391 -0.00000001 0.00702944
v 0.02803788 0.00000000 0.03733368
v 0.01893320 -0.00000001 0.00404473
v 0.03108741 0.00000000 0.03318440
v 0.01322794 -0.00000001 0.00182689
v 0.03296529 0.00000000 0.02868217
v 0.03359939 0.00000000 0.02400000
v 0.01858092 -0.00569030 0.00404473
v 0.01298528 -0.00391954 0.00182689
v 0.03050159 -0.00946260 0.03318440
v 0.03234339 -0.01004544 0.02868217
v 0.03296530 -0.01024225 0.02400000
v 0.03234339 -0.01004544 0.01931784
v 0.01298529 -0.00391953 0.04617311
v 0.03050159 -0.00946260 0.01481560
v 0.01858093 -0.00569029 0.04395527
v 0.02751066 -0.00851612 0.01066632
v 0.02348554 -0.00724235 0.04097056
v 0.02348554 -0.00724236 0.00702944
v 0.02751066 -0.00851611 0.03733368
v 0.01226665 -0.00768845 0.04617311
v 0.01753763 -0.01116190 0.04395527
v 0.02876665 -0.01856155 0.01481560
v 0.02594925 -0.01670496 0.01066632
v 0.02215767 -0.01420640 0.04097056
v 0.02215767 -0.01420641 0.00702944
v 0.02594925 -0.01670495 0.03733368
v 0.01753762 -0.01116191 0.00404473
v 0.02876665 -0.01856155 0.03318440
v 0.01226664 -0.00768846 0.00182689
v 0.03050158 -0.01970485 0.02868217
v 0.03108741 -0.02009089 0.02400000
v 0.03050158 -0.01970485 0.01931784
v 0.02594925 -0.02694720 0.03318441
v 0.02751065 -0.02860699 0.02868217
v 0.01109964 -0.01116191 0.00182689
v 0.02803788 -0.02916745 0.02400000
v 0.02751065 -0.02860700 0.01931784
v 0.01109964 -0.01116190 0.04617311
v 0.02594925 -0.02694720 0.01481560
v 0.01584340 -0.01620456 0.04395527
v 0.02341366 -0.02425185 0.01066632
v 0.02000133 -0.02062449 0.04097056
v 0.02000133 -0.02062450 0.00702944
v 0.02341366 -0.02425184 0.03733368
v 0.01584339 -0.01620458 0.00404473
v 0.02215767 -0.03429728 0.01481560
v 0.02000133 -0.03086675 0.01066632
v 0.01356335 -0.02062449 0.04395527
v 0.01709938 -0.02625000 0.04097056
v 0.01709938 -0.02625001 0.00702944
v 0.02000133 -0.03086673 0.03733368
v 0.01356335 -0.02062450 0.00404473
v 0.02215767 -0.03429727 0.03318441
v 0.00952911 -0.01420641 0.00182689
v 0.02348553 -0.03640979 0.02868217
v 0.02393390 -0.03712312 0.02400000
v 0.02348553 -0.03640980 0.01931784
v 0.00952912 -0.01420640 0.04617311
v 0.00761543 -0.01670496 0.00182689
v 0.01858091 -0.04281338 0.02868217
v 0.01893320 -0.04365216 0.02400000
v 0.01858091 -0.04281339 0.01931784
v 0.00761543 -0.01670495 0.04617311
v 0.01753763 -0.04032933 0.01481560
v 0.01078511 -0.02425184 0.04395527
v 0.01584339 -0.03629544 0.01066632
v 0.01356335 -0.03086673 0.04097056
v 0.01356335 -0.03086675 0.00702944
v 0.01584339 -0.03629543 0.03733369
v 0.01078510 -0.02425185 0.00404473
v 0.01753763 -0.04032933 0.03318441
v 0.00761543 -0.02694720 0.04395527
v 0.00952911 -0.03429727 0.04097056
v 0.01109964 -0.04032933 0.01066632
v 0.00952911 -0.03429728 0.00702944
v 0.01109964 -0.04032932 0.03733369
v 0.00761543 -0.02694721 0.00404473
v 0.01226664 -0.04481155 0.03318441
v 0.00543212 -0.01856156 0.00182689
v 0.01298528 -0.04757169 0.02868217
v 0.01322793 -0.04850368 0.02400000
v 0.01298528 -0.04757169 0.01931784
v 0.00543212 -0.01856155 0.04617311
v 0.01226664 -0.04481155 0.01481560
v 0.00691365 -0.05050183 0.02868217
v 0.00703736 -0.05149123 0.02400000
v 0.00691365 -0.05050183 0.01931784
v 0.00306309 -0.01970484 0.04617311
v 0.00654730 -0.04757170 0.01481560
v 0.00417613 -0.02860699 0.04395527
v 0.00595236 -0.04281339 0.01066632
v 0.00515172 -0.03640979 0.04097056
v 0.00515172 -0.03640980 0.00702944
v 0.00595236 -0.04281338 0.03733369
v 0.00417613 -0.02860700 0.00404473
v 0.00654730 -0.04757169 0.03318441
v 0.00306309 -0.01970485 0.00182689
v 0.00059938 -0.04365215 0.01066632
v 0.00059938 -0.03712311 0.00702944
v 0.00059938 -0.03712310 0.04097056
v 0.00059938 -0.04365214 0.03733369
v 0.00059938 -0.02916745 0.00404473
v 0.00059938 -0.04850367 0.03318441
v 0.00059938 -0.02009089 0.00182689
v 0.00059938 -0.05149121 0.02868217
v 0.00059937 -0.05250000 0.02400000
v 0.00059938 -0.05149122 0.01931784
v 0.00059938 -0.02009088 0.04617311
v 0.00059938 -0.04850368 0.01481560
v 0.00059938 -0.02916744 0.04395527
v -0.00583860 -0.05149123 0.02400000
v -0.00571490 -0.05050183 0.01931784
v -0.00186433 -0.01970484 0.04617311
v -0.00534854 -0.04757170 0.01481560
v -0.00297737 -0.02860699 0.04395527
v -0.00475361 -0.04281338 0.01066632
v -0.00395296 -0.03640979 0.04097056
v -0.00395296 -0.03640980 0.00702944
v -0.00475361 -0.04281337 0.03733369
v -0.00297737 -0.02860700 0.00404473
v -0.00534854 -0.04757169 0.03318441
v -0.00186433 -0.01970485 0.00182689
v -0.00571490 -0.05050182 0.02868217
v -0.00833035 -0.03429728 0.00702944
v -0.00641667 -0.02694720 0.00404473
v -0.00990088 -0.04032931 0.03733369
v -0.01106788 -0.04481155 0.03318441
v -0.00423336 -0.01856155 0.00182689
v -0.01178652 -0.04757168 0.02868217
v -0.01202918 -0.04850367 0.02400000
v -0.01178652 -0.04757168 0.01931784
v -0.00423336 -0.01856155 0.04617311
v -0.01106788 -0.04481155 0.01481560
v -0.00641667 -0.02694720 0.04395527
v -0.00990088 -0.04032932 0.01066632
v -0.00833035 -0.03429727 0.04097056
v -0.00641667 -0.01670495 0.04617311
v -0.01738216 -0.04281337 0.01931784
v -0.01633886 -0.04032933 0.01481560
v -0.00958635 -0.02425184 0.04395527
v -0.01464463 -0.03629543 0.01066632
v -0.01236459 -0.03086672 0.04097056
v -0.01236459 -0.03086675 0.00702944
v -0.01464463 -0.03629542 0.03733369
v -0.00958634 -0.02425184 0.00404473
v -0.01633886 -0.04032932 0.03318441
v -0.00641667 -0.01670496 0.00182689
v -0.01738216 -0.04281337 0.02868217
v -0.01773444 -0.04365215 0.02400000
v -0.01880256 -0.03086671 0.03733368
v -0.02095891 -0.03429727 0.03318441
v -0.01236459 -0.02062450 0.00404473
v -0.00833035 -0.01420641 0.00182689
v -0.02228677 -0.03640978 0.02868217
v -0.02273515 -0.03712310 0.02400000
v -0.02228677 -0.03640978 0.01931784
v -0.00833035 -0.01420640 0.04617311
v -0.02095891 -0.03429728 0.01481560
v -0.01236459 -0.02062449 0.04395527
v -0.01880256 -0.03086672 0.01066632
v -0.01590062 -0.02624999 0.04097056
v -0.01590062 -0.02625000 0.00702944
v -0.02631189 -0.02860698 0.01931784
v -0.02475048 -0.02694720 0.01481560
v -0.00990088 -0.01116189 0.04617311
v -0.01464463 -0.01620456 0.04395527
v -0.02221489 -0.02425183 0.01066632
v -0.01880257 -0.02062449 0.04097056
v -0.01880257 -0.02062450 0.00702944
v -0.02221489 -0.02425182 0.03733368
v -0.01464463 -0.01620457 0.00404473
v -0.02475048 -0.02694720 0.03318441
v -0.00990088 -0.01116190 0.00182689
v -0.02631189 -0.02860698 0.02868217
v -0.02683912 -0.02916743 0.02400000
v -0.01633885 -0.01116190 0.00404473
v -0.01106788 -0.00768845 0.00182689
v -0.02756788 -0.01856155 0.03318440
v -0.02930282 -0.01970482 0.02868217
v -0.02988865 -0.02009087 0.02400000
v -0.02930282 -0.01970482 0.01931784
v -0.01106788 -0.00768844 0.04617311
v -0.02756788 -0.01856155 0.01481560
v -0.01633886 -0.01116189 0.04395527
v -0.02475048 -0.01670494 0.01066632
v -0.02095891 -0.01420638 0.04097056
v -0.02095891 -0.01420640 0.00702944
v -0.02475048 -0.01670494 0.03733368
v -0.01178652 -0.00391952 0.04617311
v -0.01738216 -0.00569028 0.04395527
v -0.02930283 -0.00946260 0.01481560
v -0.02631188 -0.00851611 0.01066632
v -0.02228677 -0.00724234 0.04097056
v -0.02228677 -0.00724236 0.00702944
v -0.02631188 -0.00851610 0.03733368
v -0.01738216 -0.00569029 0.00404473
v -0.02930283 -0.00946260 0.03318440
v -0.01178652 -0.00391954 0.00182689
v -0.03114462 -0.01004542 0.02868217
v -0.03176653 -0.01024224 0.02400000
v -0.03114462 -0.01004542 0.01931784
v -0.02988864 0.00000000 0.03318440
v -0.03176652 0.00000001 0.02868217
v -0.01202917 -0.00000001 0.00182689
v -0.03240061 0.00000001 0.02400000
v -0.03176652 0.00000001 0.01931784
v -0.01202917 0.00000001 0.04617311
v -0.02988864 0.00000000 0.01481560
v -0.01773444 0.00000001 0.04395527
v -0.02683910 0.00000000 0.01066632
v -0.02273515 0.00000001 0.04097056
v -0.02273515 0.00000000 0.00702944
v -0.02683910 0.00000001 0.03733368
v -0.01773443 -0.00000001 0.00404473
v -0.02930283 0.00946259 0.01481560
v -0.02631188 0.00851611 0.01066632
v -0.01738216 0.00569030 0.04395527
v -0.02228677 0.00724238 0.04097056
v -0.02228677 0.00724235 0.00702944
v -0.02631188 0.00851612 0.03733368
v -0.01738216 0.00569028 0.00404473
v -0.02930283 0.00946260 0.03318440
v -0.01178651 0.00391952 0.00182689
v -0.03114461 0.01004544 0.02868217
v -0.03176653 0.01024225 0.02400000
v -0.03114461 0.01004544 0.01931784
v -0.01178652 0.00391954 0.04617311
v -0.01106788 0.00768844 0.00182689
v -0.02930281 0.01970485 0.02868217
v -0.02988863 0.02009089 0.02400000
v -0.02930281 0.01970484 0.01931784
v -0.01106788 0.00768846 0.04617311
v -0.02756788 0.01856154 0.01481560
v -0.01633885 0.01116190 0.04395527
v -0.02475047 0.01670495 0.01066632
v -0.02095891 0.01420641 0.04097056
v -0.02095891 0.01420640 0.00702944
v -0.02475047 0.01670496 0.03733368
v -0.01633885 0.01116189 0.00404473
v -0.02756788 0.01856155 0.03318440
v -0.02221488 0.02425183 0.01066632
v -0.01880256 0.02062449 0.00702944
v -0.01880256 0.02062450 0.04097056
v -0.02221488 0.02425184 0.03733368
v -0.01464463 0.01620455 0.00404473
v -0.02475048 0.02694720 0.03318440
v -0.00990087 0.01116189 0.00182689
v -0.02631188 0.02860699 0.02868216
v -0.02683910 0.02916744 0.02400000
v -0.02631188 0.02860699 0.01931783
v -0.00990088 0.01116190 0.04617311
v -0.02475048 0.02694719 0.01481560
v -0.01464463 0.01620457 0.04395527
v -0.02273513 0.03712311 0.02400000
v -0.02228676 0.03640978 0.01931783
v -0.00833035 0.01420641 0.04617311
v -0.02095891 0.03429727 0.01481560
v -0.01236459 0.02062450 0.04395527
v -0.01880255 0.03086672 0.01066632
v -0.01590061 0.02625001 0.04097056
v -0.01590061 0.02625000 0.00702944
v -0.01880255 0.03086673 0.03733368
v -0.01236458 0.02062448 0.00404472
v -0.02095891 0.03429727 0.03318440
v -0.00833035 0.01420638 0.00182689
v -0.02228676 0.03640978 0.02868216
v -0.01236459 0.03086673 0.04097056
v -0.01464462 0.03629543 0.03733368
v -0.01236459 0.03086672 0.00702944
v -0.00958633 0.02425182 0.00404472
v -0.01633885 0.04032932 0.03318440
v -0.00641667 0.01670494 0.00182689
v -0.01738214 0.04281337 0.02868216
v -0.01773442 0.04365214 0.02400000
v -0.01738214 0.04281337 0.01931783
v -0.00641667 0.01670496 0.04617311
v -0.01633885 0.04032932 0.01481560
v -0.00958634 0.02425184 0.04395527
v -0.01464462 0.03629542 0.01066631
v -0.01202916 0.04850366 0.02400000
v -0.01178650 0.04757166 0.01931783
v -0.00423336 0.01856155 0.04617311
v -0.01106788 0.04481154 0.01481560
v -0.00641667 0.02694720 0.04395527
v -0.00990086 0.04032931 0.01066631
v -0.00833035 0.03429728 0.04097056
v -0.00833035 0.03429727 0.00702944
v -0.00990086 0.04032931 0.03733368
v -0.00641667 0.02694718 0.00404472
v -0.01106788 0.04481155 0.03318440
v -0.00423335 0.01856153 0.00182689
v -0.01178650 0.04757167 0.02868216
v -0.00395296 0.03640979 0.00702944
v -0.00297737 0.02860697 0.00404472
v -0.00475360 0.04281337 0.03733368
v -0.00534853 0.04757169 0.03318440
v -0.00186433 0.01970482 0.00182689
v -0.00571489 0.05050181 0.02868216
v -0.00583859 0.05149120 0.02400000
v -0.00571489 0.05050181 0.01931783
v -0.00186433 0.01970485 0.04617311
v -0.00534853 0.04757168 0.01481560
v -0.00297737 0.02860699 0.04395527
v -0.00475360 0.04281336 0.01066631
v -0.00395296 0.03640980 0.04097056
f 1 2 3
f 4 5 6
f 3 2 7
f 4 6 8
f 7 2 9
f 4 8 10
f 9 2 11
f 4 10 12
f 11 2 13
f 4 12 14
f 13 2 15
f 4 14 16
f 15 2 17
f 4 16 18
f 17 2 19
f 4 18 20
f 19 2 21
f 4 20 22
f 21 2 23
f 4 22 24
f 23 2 25
f 4 24 26
f 25 2 27
f 4 26 28
f 27 2 29
f 4 28 30
f 29 2 31
f 4 30 32
f 31 2 33
f 4 32 34
f 33 2 35
f 4 34 36
f 4 36 37
f 35 2 38
f 38 2 39
f 4 37 40
f 39 2 41
f 4 40 42
f 41 2 43
f 4 42 44
f 43 2 45
f 4 44 46
f 45 2 47
f 4 46 48
f 47 2 49
f 4 48 50
f 49 2 51
f 4 50 52
f 51 2 53
f 4 52 54
f 53 2 55
f 4 54 56
f 55 2 57
f 4 56 58
f 57 2 59
f 4 58 60
f 59 2 61
f 4 60 62
f 61 2 63
f 4 62 64
f 63 2 65
f 4 64 66
f 65 2 1
f 4 66 5
f 67 68 69
f 67 69 70
f 71 1 3
f 71 3 72
f 73 67 70
f 73 70 74
f 75 71 72
f 75 72 76
f 77 73 74
f 77 74 78
f 79 75 76
f 79 76 80
f 81 77 78
f 81 78 82
f 83 79 80
f 83 80 84
f 85 81 82
f 85 82 86
f 87 83 84
f 87 84 88
f 89 85 86
f 89 86 90
f 91 87 88
f 91 88 92
f 5 89 90
f 5 90 6
f 68 91 92
f 68 92 69
f 69 92 93
f 69 93 94
f 70 69 94
f 70 94 95
f 72 3 7
f 72 7 96
f 74 70 95
f 74 95 97
f 76 72 96
f 76 96 98
f 78 74 97
f 78 97 99
f 80 76 98
f 80 98 100
f 82 78 99
f 82 99 101
f 84 80 100
f 84 100 102
f 86 82 101
f 86 101 103
f 88 84 102
f 88 102 104
f 90 86 103
f 90 103 105
f 92 88 104
f 92 104 93
f 6 90 105
f 6 105 8
f 101 99 106
f 101 106 107
f 102 100 108
f 102 108 109
f 103 101 107
f 103 107 110
f 104 102 109
f 104 109 111
f 105 103 110
f 105 110 112
f 93 104 111
f 93 111 113
f 8 105 112
f 8 112 10
f 94 93 113
f 94 113 114
f 95 94 114
f 95 114 115
f 96 7 9
f 96 9 116
f 97 95 115
f 97 115 117
f 98 96 116
f 98 116 118
f 99 97 117
f 99 117 106
f 100 98 118
f 100 118 108
f 115 114 119
f 115 119 120
f 116 9 11
f 116 11 121
f 117 115 120
f 117 120 122
f 118 116 121
f 118 121 123
f 106 117 122
f 106 122 124
f 108 118 123
f 108 123 125
f 107 106 124
f 107 124 126
f 109 108 125
f 109 125 127
f 110 107 126
f 110 126 128
f 111 109 127
f 111 127 129
f 112 110 128
f 112 128 130
f 113 111 129
f 113 129 131
f 10 112 130
f 10 130 12
f 114 113 131
f 114 131 119
f 127 125 132
f 127 132 133
f 128 126 134
f 128 134 135
f 129 127 133
f 129 133 136
f 130 128 135
f 130 135 137
f 131 129 136
f 131 136 138
f 12 130 137
f 12 137 14
f 119 131 138
f 119 138 139
f 120 119 139
f 120 139 140
f 121 11 13
f 121 13 141
f 122 120 140
f 122 140 142
f 123 121 141
f 123 141 143
f 124 122 142
f 124 142 144
f 125 123 143
f 125 143 132
f 126 124 144
f 126 144 134
f 140 139 145
f 140 145 146
f 141 13 15
f 141 15 147
f 142 140 146
f 142 146 148
f 143 141 147
f 143 147 149
f 144 142 148
f 144 148 150
f 132 143 149
f 132 149 151
f 134 144 150
f 134 150 152
f 133 132 151
f 133 151 153
f 135 134 152
f 135 152 154
f 136 133 153
f 136 153 155
f 137 135 154
f 137 154 156
f 138 136 155
f 138 155 157
f 14 137 156
f 14 156 16
f 139 138 157
f 139 157 145
f 154 152 158
f 154 158 159
f 155 153 160
f 155 160 161
f 156 154 159
f 156 159 162
f 157 155 161
f 157 161 163
f 16 156 162
f 16 162 18
f 145 157 163
f 145 163 164
f 146 145 164
f 146 164 165
f 147 15 17
f 147 17 166
f 148 146 165
f 148 165 167
f 149 147 166
f 149 166 168
f 150 148 167
f 150 167 169
f 151 149 168
f 151 168 170
f 152 150 169
f 152 169 158
f 153 151 170
f 153 170 160
f 167 165 171
f 167 171 172
f 168 166 173
f 168 173 174
f 169 167 172
f 169 172 175
f 170 168 174
f 170 174 176
f 158 169 175
f 158 175 177
f 160 170 176
f 160 176 178
f 159 158 177
f 159 177 179
f 161 160 178
f 161 178 180
f 162 159 179
f 162 179 181
f 163 161 180
f 163 180 182
f 18 162 181
f 18 181 20
f 164 163 182
f 164 182 183
f 165 164 183
f 165 183 171
f 166 17 19
f 166 19 173
f 181 179 184
f 181 184 185
f 182 180 186
f 182 186 187
f 20 181 185
f 20 185 22
f 183 182 187
f 183 187 188
f 171 183 188
f 171 188 189
f 173 19 21
f 173 21 190
f 172 171 189
f 172 189 191
f 174 173 190
f 174 190 192
f 175 172 191
f 175 191 193
f 176 174 192
f 176 192 194
f 177 175 193
f 177 193 195
f 178 176 194
f 178 194 196
f 179 177 195
f 179 195 184
f 180 178 196
f 180 196 186
f 192 190 197
f 192 197 198
f 193 191 199
f 193 199 200
f 194 192 198
f 194 198 201
f 195 193 200
f 195 200 202
f 196 194 201
f 196 201 203
f 184 195 202
f 184 202 204
f 186 196 203
f 186 203 205
f 185 184 204
f 185 204 206
f 187 186 205
f 187 205 207
f 22 185 206
f 22 206 24
f 188 187 207
f 188 207 208
f 189 188 208
f 189 208 209
f 190 21 23
f 190 23 197
f 191 189 209
f 191 209 199
f 207 205 210
f 207 210 211
f 24 206 212
f 24 212 26
f 208 207 211
f 208 211 213
f 209 208 213
f 209 213 214
f 197 23 25
f 197 25 215
f 199 209 214
f 199 214 216
f 198 197 215
f 198 215 217
f 200 199 216
f 200 216 218
f 201 198 217
f 201 217 219
f 202 200 218
f 202 218 220
f 203 201 219
f 203 219 221
f 204 202 220
f 204 220 222
f 205 203 221
f 205 221 210
f 206 204 222
f 206 222 212
f 218 216 223
f 218 223 224
f 219 217 225
f 219 225 226
f 220 218 224
f 220 224 227
f 221 219 226
f 221 226 228
f 222 220 227
f 222 227 229
f 210 221 228
f 210 228 230
f 212 222 229
f 212 229 231
f 211 210 230
f 211 230 232
f 26 212 231
f 26 231 28
f 213 211 232
f 213 232 233
f 214 213 233
f 214 233 234
f 215 25 27
f 215 27 235
f 216 214 234
f 216 234 223
f 217 215 235
f 217 235 225
f 28 231 236
f 28 236 30
f 233 232 237
f 233 237 238
f 234 233 238
f 234 238 239
f 235 27 29
f 235 29 240
f 223 234 239
f 223 239 241
f 225 235 240
f 225 240 242
f 224 223 241
f 224 241 243
f 226 225 242
f 226 242 244
f 227 224 243
f 227 243 245
f 228 226 244
f 228 244 246
f 229 227 245
f 229 245 247
f 230 228 246
f 230 246 248
f 231 229 247
f 231 247 236
f 232 230 248
f 232 248 237
f 244 242 249
f 244 249 250
f 245 243 251
f 245 251 252
f 246 244 250
f 246 250 253
f 247 245 252
f 247 252 254
f 248 246 253
f 248 253 255
f 236 247 254
f 236 254 256
f 237 248 255
f 237 255 257
f 30 236 256
f 30 256 32
f 238 237 257
f 238 257 258
f 239 238 258
f 239 258 259
f 240 29 31
f 240 31 260
f 241 239 259
f 241 259 261
f 242 240 260
f 242 260 249
f 243 241 261
f 243 261 251
f 258 257 262
f 258 262 263
f 259 258 263
f 259 263 264
f 260 31 33
f 260 33 265
f 261 259 264
f 261 264 266
f 249 260 265
f 249 265 267
f 251 261 266
f 251 266 268
f 250 249 267
f 250 267 269
f 252 251 268
f 252 268 270
f 253 250 269
f 253 269 271
f 254 252 270
f 254 270 272
f 255 253 271
f 255 271 273
f 256 254 272
f 256 272 274
f 257 255 273
f 257 273 262
f 32 256 274
f 32 274 34
f 270 268 275
f 270 275 276
f 271 269 277
f 271 277 278
f 272 270 276
f 272 276 279
f 273 271 278
f 273 278 280
f 274 272 279
f 274 279 281
f 262 273 280
f 262 280 282
f 34 274 281
f 34 281 36
f 263 262 282
f 263 282 283
f 264 263 283
f 264 283 284
f 265 33 35
f 265 35 285
f 266 264 284
f 266 284 286
f 267 265 285
f 267 285 287
f 268 266 286
f 268 286 275
f 269 267 287
f 269 287 277
f 284 283 288
f 284 288 289
f 285 35 38
f 285 38 290
f 286 284 289
f 286 289 291
f 287 285 290
f 287 290 292
f 275 286 291
f 275 291 293
f 277 287 292
f 277 292 294
f 276 275 293
f 276 293 295
f 278 277 294
f 278 294 296
f 279 276 295
f 279 295 297
f 280 278 296
f 280 296 298
f 281 279 297
f 281 297 299
f 282 280 298
f 282 298 300
f 36 281 299
f 36 299 37
f 283 282 300
f 283 300 288
f 297 295 301
f 297 301 302
f 298 296 303
f 298 303 304
f 299 297 302
f 299 302 305
f 300 298 304
f 300 304 306
f 37 299 305
f 37 305 40
f 288 300 306
f 288 306 307
f 289 288 307
f 289 307 308
f 290 38 39
f 290 39 309
f 291 289 308
f 291 308 310
f 292 290 309
f 292 309 311
f 293 291 310
f 293 310 312
f 294 292 311
f 294 311 313
f 295 293 312
f 295 312 301
f 296 294 313
f 296 313 303
f 309 39 41
f 309 41 314
f 310 308 315
f 310 315 316
f 311 309 314
f 311 314 317
f 312 310 316
f 312 316 318
f 313 311 317
f 313 317 319
f 301 312 318
f 301 318 320
f 303 313 319
f 303 319 321
f 302 301 320
f 302 320 322
f 304 303 321
f 304 321 323
f 305 302 322
f 305 322 324
f 306 304 323
f 306 323 325
f 40 305 324
f 40 324 42
f 307 306 325
f 307 325 326
f 308 307 326
f 308 326 315
f 323 321 327
f 323 327 328
f 324 322 329
f 324 329 330
f 325 323 328
f 325 328 331
f 42 324 330
f 42 330 44
f 326 325 331
f 326 331 332
f 315 326 332
f 315 332 333
f 314 41 43
f 314 43 334
f 316 315 333
f 316 333 335
f 317 314 334
f 317 334 336
f 318 316 335
f 318 335 337
f 319 317 336
f 319 336 338
f 320 318 337
f 320 337 339
f 321 319 338
f 321 338 327
f 322 320 339
f 322 339 329
f 335 333 340
f 335 340 341
f 336 334 342
f 336 342 343
f 337 335 341
f 337 341 344
f 338 336 343
f 338 343 345
f 339 337 344
f 339 344 346
f 327 338 345
f 327 345 347
f 329 339 346
f 329 346 348
f 328 327 347
f 328 347 349
f 330 329 348
f 330 348 350
f 331 328 349
f 331 349 351
f 44 330 350
f 44 350 46
f 332 331 351
f 332 351 352
f 333 332 352
f 333 352 340
f 334 43 45
f 334 45 342
f 350 348 353
f 350 353 354
f 351 349 355
f 351 355 356
f 46 350 354
f 46 354 48
f 352 351 356
f 352 356 357
f 340 352 357
f 340 357 358
f 342 45 47
f 342 47 359
f 341 340 358
f 341 358 360
f 343 342 359
f 343 359 361
f 344 341 360
f 344 360 362
f 345 343 361
f 345 361 363
f 346 344 362
f 346 362 364
f 347 345 363
f 347 363 365
f 348 346 364
f 348 364 353
f 349 347 365
f 349 365 355
f 361 359 366
f 361 366 367
f 362 360 368
f 362 368 369
f 363 361 367
f 363 367 370
f 364 362 369
f 364 369 371
f 365 363 370
f 365 370 372
f 353 364 371
f 353 371 373
f 355 365 372
f 355 372 374
f 354 353 373
f 354 373 375
f 356 355 374
f 356 374 376
f 48 354 375
f 48 375 50
f 357 356 376
f 357 376 377
f 358 357 377
f 358 377 378
f 359 47 49
f 359 49 366
f 360 358 378
f 360 378 368
f 376 374 379
f 376 379 380
f 50 375 381
f 50 381 52
f 377 376 380
f 377 380 382
f 378 377 382
f 378 382 383
f 366 49 51
f 366 51 384
f 368 378 383
f 368 383 385
f 367 366 384
f 367 384 386
f 369 368 385
f 369 385 387
f 370 367 386
f 370 386 388
f 371 369 387
f 371 387 389
f 372 370 388
f 372 388 390
f 373 371 389
f 373 389 391
f 374 372 390
f 374 390 379
f 375 373 391
f 375 391 381
f 387 385 392
f 387 392 393
f 388 386 394
f 388 394 395
f 389 387 393
f 389 393 396
f 390 388 395
f 390 395 397
f 391 389 396
f 391 396 398
f 379 390 397
f 379 397 399
f 381 391 398
f 381 398 400
f 380 379 399
f 380 399 401
f 52 381 400
f 52 400 54
f 382 380 401
f 382 401 402
f 383 382 402
f 383 402 403
f 384 51 53
f 384 53 404
f 385 383 403
f 385 403 392
f 386 384 404
f 386 404 394
f 54 400 405
f 54 405 56
f 402 401 406
f 402 406 407
f 403 402 407
f 403 407 408
f 404 53 55
f 404 55 409
f 392 403 408
f 392 408 410
f 394 404 409
f 394 409 411
f 393 392 410
f 393 410 412
f 395 394 411
f 395 411 413
f 396 393 412
f 396 412 414
f 397 395 413
f 397 413 415
f 398 396 414
f 398 414 416
f 399 397 415
f 399 415 417
f 400 398 416
f 400 416 405
f 401 399 417
f 401 417 406
f 414 412 418
f 414 418 419
f 415 413 420
f 415 420 421
f 416 414 419
f 416 419 422
f 417 415 421
f 417 421 423
f 405 416 422
f 405 422 424
f 406 417 423
f 406 423 425
f 56 405 424
f 56 424 58
f 407 406 425
f 407 425 426
f 408 407 426
f 408 426 427
f 409 55 57
f 409 57 428
f 410 408 427
f 410 427 429
f 411 409 428
f 411 428 430
f 412 410 429
f 412 429 418
f 413 411 430
f 413 430 420
f 427 426 431
f 427 431 432
f 428 57 59
f 428 59 433
f 429 427 432
f 429 432 434
f 430 428 433
f 430 433 435
f 418 429 434
f 418 434 436
f 420 430 435
f 420 435 437
f 419 418 436
f 419 436 438
f 421 420 437
f 421 437 439
f 422 419 438
f 422 438 440
f 423 421 439
f 423 439 441
f 424 422 440
f 424 440 442
f 425 423 441
f 425 441 443
f 58 424 442
f 58 442 60
f 426 425 443
f 426 443 431
f 439 437 444
f 439 444 445
f 440 438 446
f 440 446 447
f 441 439 445
f 441 445 448
f 442 440 447
f 442 447 449
f 443 441 448
f 443 448 450
f 60 442 449
f 60 449 62
f 431 443 450
f 431 450 451
f 432 431 451
f 432 451 452
f 433 59 61
f 433 61 453
f 434 432 452
f 434 452 454
f 435 433 453
f 435 453 455
f 436 434 454
f 436 454 456
f 437 435 455
f 437 455 444
f 438 436 456
f 438 456 446
f 452 451 457
f 452 457 458
f 453 61 63
f 453 63 459
f 454 452 458
f 454 458 460
f 455 453 459
f 455 459 461
f 456 454 460
f 456 460 462
f 444 455 461
f 444 461 463
f 446 456 462
f 446 462 464
f 445 444 463
f 445 463 465
f 447 446 464
f 447 464 466
f 448 445 465
f 448 465 467
f 449 447 466
f 449 466 468
f 450 448 467
f 450 467 469
f 62 449 468
f 62 468 64
f 451 450 469
f 451 469 457
f 466 464 470
f 466 470 471
f 467 465 472
f 467 472 473
f 468 466 471
f 468 471 474
f 469 467 473
f 469 473 475
f 64 468 474
f 64 474 66
f 457 469 475
f 457 475 476
f 458 457 476
f 458 476 477
f 459 63 65
f 459 65 478
f 460 458 477
f 460 477 479
f 461 459 478
f 461 478 480
f 462 460 479
f 462 479 481
f 463 461 480
f 463 480 482
f 464 462 481
f 464 481 470
f 465 463 482
f 465 482 472
f 478 65 1
f 478 1 71
f 479 477 67
f 479 67 73
f 480 478 71
f 480 71 75
f 481 479 73
f 481 73 77
f 482 480 75
f 482 75 79
f 470 481 77
f 470 77 81
f 472 482 79
f 472 79 83
f 471 470 81
f 471 81 85
f 473 472 83
f 473 83 87
f 474 471 85
f 474 85 89
f 475 473 87
f 475 87 91
f 66 474 89
f 66 89 5
f 476 475 91
f 476 91 68
f 477 476 68
f 477 68 67