# https://github.com/mikedh/trimesh
v -0.44312270 -0.18354617 0.15605871
v -0.48113590 -0.00000216 0.15605868
v -0.53459449 -0.00000218 0.09912116
v -0.49235760 -0.20393997 0.09912119
v -0.37801781 -0.37801175 0.09912122
v -0.34021685 -0.34021081 0.15605874
v -0.30605061 -0.30604450 0.22533272
v -0.39862191 -0.16511331 0.22533271
v -0.43281753 -0.00000213 0.22533267
v -0.18355227 0.44311223 0.15605861
v -0.00000834 0.48112551 0.15605860
v -0.00000834 0.53458414 0.09912107
v -0.20394605 0.49234714 0.09912108
v -0.37801783 0.37800735 0.09912110
v -0.34021687 0.34020643 0.15605863
v -0.30605063 0.30604020 0.22533262
v -0.16511943 0.39861144 0.22533262
v -0.00000833 0.43280715 0.22533260
v 0.18353548 0.44311247 0.15605861
v 0.34019997 0.34020682 0.15605863
v 0.37800087 0.37800780 0.09912110
v 0.20392922 0.49234741 0.09912108
v 0.16510267 0.39861166 0.22533262
v 0.30603373 0.30604057 0.22533262
v 0.44310627 -0.18354582 0.15605871
v 0.34020052 -0.34021057 0.15605874
v 0.37800153 -0.37801154 0.09912122
v 0.49234125 -0.20393960 0.09912119
v 0.53457792 -0.00000170 0.09912116
v 0.48111928 -0.00000173 0.15605868
v 0.43280092 -0.00000174 0.22533267
v 0.39860542 -0.16511300 0.22533271
v 0.30603428 -0.30604435 0.22533272
v -0.18355218 -0.44311664 0.15605876
v -0.20394596 -0.49235160 0.09912124
v -0.00000810 -0.53458843 0.09912125
v -0.00000811 -0.48112984 0.15605876
v -0.00000813 -0.43281140 0.22533274
v -0.16511934 -0.39861581 0.22533275
v -0.44312268 0.18354184 0.15605865
v -0.49235760 0.20393558 0.09912113
v -0.39862191 0.16510903 0.22533265
v 0.44310590 0.18354229 0.15605865
v 0.49234082 0.20393610 0.09912113
v 0.39860511 0.16510944 0.22533265
v 0.18353594 -0.44311651 0.15605876
v 0.20392974 -0.49235144 0.09912124
v 0.16510309 -0.39861573 0.22533275
v 0.36357288 -0.15060205 0.31927963
v 0.27913744 -0.27914749 0.31927966
v 0.39476304 -0.00000176 0.31927962
v 0.36926743 -0.00000175 0.40974704
v 0.34009159 -0.14087578 0.40974704
v 0.26110927 -0.26111933 0.40974709
v -0.15060840 -0.36358322 0.31927966
v -0.27915377 -0.27914765 0.31927966
v -0.00000815 -0.39477352 0.31927968
v -0.00000816 -0.36927784 0.40974710
v -0.14088215 -0.34010189 0.40974707
v -0.26112565 -0.26111949 0.40974709
v -0.36358933 0.15059810 0.31927958
v -0.27915380 0.27914343 0.31927957
v -0.39477969 -0.00000211 0.31927962
v -0.36928402 -0.00000208 0.40974704
v -0.34010804 0.14087186 0.40974700
v -0.26112565 0.26111527 0.40974700
v 0.36357256 0.15059847 0.31927958
v 0.27913694 0.27914375 0.31927957
v 0.26110882 0.26111559 0.40974700
v 0.34009130 0.14087220 0.40974700
v 0.15059210 -0.36358314 0.31927966
v 0.14086584 -0.34010183 0.40974707
v -0.36358936 -0.15060233 0.31927963
v -0.34010807 -0.14087603 0.40974704
v -0.15060848 0.36357894 0.31927955
v -0.00000833 0.39476929 0.31927955
v -0.14088221 0.34009769 0.40974696
v -0.00000833 0.36927367 0.40974698
v 0.15059173 0.36357913 0.31927955
v 0.14086548 0.34009785 0.40974696
v -0.13680348 0.33025070 0.46858242
v -0.00000833 0.35858195 0.46858242
v -0.25356546 0.25355509 0.46858244
v -0.24949460 0.24948424 0.52646892
v -0.13460722 0.32494850 0.52646891
v -0.00000833 0.35282489 0.52646890
v 0.13678673 0.33025089 0.46858242
v 0.25354863 0.25355541 0.46858244
v 0.13459047 0.32494866 0.52646891
v 0.24947778 0.24948453 0.52646892
v 0.33024461 -0.13679702 0.46858250
v 0.25354908 -0.25355911 0.46858252
v 0.35857571 -0.00000175 0.46858248
v 0.35281863 -0.00000174 0.52646896
v 0.32494240 -0.13460075 0.52646898
v 0.24947822 -0.24948824 0.52646900
v -0.13680340 -0.33025490 0.46858253
v -0.25356546 -0.25355929 0.46858252
v -0.00000816 -0.35858613 0.46858254
v -0.00000816 -0.35282902 0.52646902
v -0.13460716 -0.32495268 0.52646901
v -0.24949458 -0.24948843 0.52646900
v -0.33026107 0.13679312 0.46858246
v -0.35859232 -0.00000207 0.46858248
v -0.35283522 -0.00000206 0.52646896
v -0.32495886 0.13459688 0.52646894
v 0.33024432 0.13679345 0.46858246
v 0.32494211 0.13459721 0.52646894
v 0.13678707 -0.33025482 0.46858253
v 0.13459082 -0.32495258 0.52646901
v -0.33026110 -0.13679727 0.46858250
v -0.32495886 -0.13460102 0.52646898
v 0.31509511 0.13051846 0.61408946
v 0.34212688 -0.00000174 0.61408948
v 0.24191758 0.24192436 0.61408944
v 0.23203118 0.23203794 0.70076104
v 0.30221830 0.12518471 0.70076105
v 0.32814540 -0.00000173 0.70076108
v 0.13051205 -0.31510559 0.61408953
v -0.00000817 -0.34213726 0.61408954
v 0.24191801 -0.24192803 0.61408952
v 0.23203157 -0.23204161 0.70076111
v 0.12517829 -0.30222873 0.70076112
v -0.00000817 -0.32815575 0.70076113
v -0.31511186 -0.13052224 0.61408950
v -0.34214347 -0.00000204 0.61408948
v -0.24193438 -0.24192819 0.61408952
v -0.23204798 -0.23204177 0.70076111
v -0.30223504 -0.12518847 0.70076110
v -0.32816201 -0.00000203 0.70076108
v -0.13052846 0.31510154 0.61408943
v -0.00000832 0.34213318 0.61408942
v -0.24193441 0.24192409 0.61408944
v -0.23204798 0.23203767 0.70076104
v -0.12519470 0.30222471 0.70076103
v -0.00000832 0.32815171 0.70076102
v 0.13051172 0.31510170 0.61408943
v 0.12517798 0.30222487 0.70076103
v 0.31509540 -0.13052198 0.61408950
v 0.30221853 -0.12518823 0.70076110
v -0.13052841 -0.31510567 0.61408953
v -0.12519464 -0.30222884 0.70076112
v -0.31511186 0.13051814 0.61408946
v -0.30223504 0.12518439 0.70076105
v -0.28784328 0.11922314 0.75580071
v -0.22099848 0.22098818 0.75580064
v -0.31253564 -0.00000202 0.75580068
v -0.29279705 -0.00000201 0.79154478
v -0.26966423 0.11169314 0.79154482
v -0.20704122 0.20703091 0.79154475
v 0.28782656 0.11922346 0.75580071
v 0.31251902 -0.00000173 0.75580068
v 0.22098169 0.22098845 0.75580064
v 0.20702441 0.20703116 0.79154475
v 0.26964751 0.11169343 0.79154482
v 0.29278046 -0.00000174 0.79154478
v 0.11921702 -0.28783696 0.75580078
v -0.00000818 -0.31252937 0.75580073
v 0.22098205 -0.22099209 0.75580071
v 0.20702478 -0.20703482 0.79154482
v 0.11168700 -0.26965793 0.79154488
v -0.00000818 -0.29279083 0.79154483
v -0.28784328 -0.11922720 0.75580075
v -0.22099846 -0.22099224 0.75580071
v -0.20704119 -0.20703496 0.79154482
v -0.26966423 -0.11169717 0.79154486
v -0.11923344 0.28783299 0.75580068
v -0.00000832 0.31252534 0.75580063
v -0.11170343 0.26965394 0.79154479
v -0.00000832 0.29278681 0.79154474
v 0.11921673 0.28783312 0.75580068
v 0.11168673 0.26965410 0.79154479
v 0.28782680 -0.11922697 0.75580075
v 0.26964775 -0.11169696 0.79154486
v -0.11923338 -0.28783707 0.75580078
v -0.11170338 -0.26965801 0.79154488
v 0.10164673 0.24541537 0.82032986
v 0.18841475 0.18842146 0.82032987
v -0.00000832 0.26646872 0.82032985
v -0.00000831 0.23241970 0.84310490
v 0.08865748 0.21405648 0.84310485
v 0.16433846 0.16434513 0.84310491
v 0.24540901 -0.10165696 0.82032991
v 0.18841507 -0.18842514 0.82032993
v 0.26646237 -0.00000176 0.82032990
v 0.23241334 -0.00000177 0.84310494
v 0.21405013 -0.08866770 0.84310490
v 0.16433877 -0.16434882 0.84310497
v -0.10166337 -0.24541924 0.82032994
v -0.18843150 -0.18842523 0.82032993
v -0.00000819 -0.26647271 0.82032994
v -0.00000820 -0.23242365 0.84310498
v -0.08867411 -0.21406038 0.84310492
v -0.16435521 -0.16434893 0.84310497
v -0.24542549 0.10165314 0.82032988
v -0.18843151 0.18842122 0.82032987
v -0.26647898 -0.00000199 0.82032990
v -0.23242995 -0.00000198 0.84310494
v -0.21406664 0.08866389 0.84310487
v -0.16435521 0.16434494 0.84310491
v 0.24540877 0.10165339 0.82032988
v 0.21404994 0.08866412 0.84310487
v 0.10164698 -0.24541919 0.82032994
v 0.08865770 -0.21406031 0.84310492
v -0.24542549 -0.10165714 0.82032991
v -0.21406664 -0.08866786 0.84310490
v -0.10166342 0.24541521 0.82032986
v -0.08867415 0.21405636 0.84310485
v -0.17452721 -0.07229007 0.86081885
v -0.18949857 -0.00000197 0.86081884
v -0.13399813 -0.13399183 0.86081886
v -0.10728395 -0.10727763 0.87884907
v -0.13973255 -0.05787764 0.87884906
v -0.15171901 -0.00000195 0.87884905
v -0.07229638 0.17451694 0.86081881
v -0.00000831 0.18948832 0.86081881
v -0.13399813 0.13398788 0.86081882
v -0.10728395 0.10727371 0.87884903
v -0.05788397 0.13972229 0.87884903
v -0.00000830 0.15170876 0.87884902
v 0.07227972 0.17451703 0.86081881
v 0.13398142 0.13398804 0.86081882
v 0.05786732 0.13972237 0.87884903
v 0.10726727 0.10727383 0.87884903
v 0.17451067 -0.07228994 0.86081885
v 0.13398166 -0.13399175 0.86081886
v 0.18948197 -0.00000180 0.86081884
v 0.15170240 -0.00000182 0.87884905
v 0.13971602 -0.05787753 0.87884906
v 0.10726746 -0.10727756 0.87884907
v -0.07229635 -0.17452091 0.86081887
v -0.00000822 -0.18949226 0.86081887
v -0.00000823 -0.15171269 0.87884907
v -0.05788394 -0.13972624 0.87884907
v -0.17452721 0.07228613 0.86081883
v -0.13973255 0.05787372 0.87884904
v 0.17451053 0.07228632 0.86081883
v 0.13971589 0.05787388 0.87884904
v 0.07227991 -0.17452087 0.86081887
v 0.05786747 -0.13972621 0.87884907
v 0.12259137 0.05078066 0.90257301
v 0.13310882 -0.00000183 0.90257302
v 0.09411964 0.09412619 0.90257300
v 0.08276411 0.08277063 0.93104176
v 0.10780102 0.04465428 0.93104176
v 0.11704966 -0.00000183 0.93104177
v 0.05077426 -0.12260169 0.90257304
v -0.00000824 -0.13311910 0.90257304
v 0.09411981 -0.09412993 0.90257303
v 0.08276425 -0.08277437 0.93104178
v 0.04464788 -0.10781131 0.93104179
v -0.00000825 -0.11705991 0.93104179
v -0.12260803 -0.05078442 0.90257303
v -0.13312544 -0.00000195 0.90257302
v -0.09413630 -0.09412999 0.90257303
v -0.08278076 -0.08277442 0.93104178
v -0.10781767 -0.04465804 0.93104178
v -0.11706626 -0.00000194 0.93104177
v -0.05079076 0.12259778 0.90257300
v -0.00000830 0.13311519 0.90257300
v -0.09413631 0.09412607 0.90257300
v -0.08278076 0.08277054 0.93104176
v -0.04466439 0.10780743 0.93104175
v -0.00000830 0.11705605 0.93104175
v 0.05077412 0.12259785 0.90257300
v 0.04464777 0.10780750 0.93104175
v 0.12259149 -0.05078433 0.90257303
v 0.10780113 -0.04465796 0.93104178
v -0.05079073 -0.12260170 0.90257304
v -0.04466437 -0.10781133 0.93104179
v -0.12260803 0.05078053 0.90257301
v -0.10781767 0.04465417 0.93104176
v -0.03315248 -0.08001914 0.96330639
v -0.06144284 -0.06143650 0.96330639
v -0.00000826 -0.08688353 0.96330639
v -0.00000827 -0.05647496 0.98924457
v -0.02155201 -0.05201310 0.98924457
v -0.03994075 -0.03993439 0.98924457
v -0.08002549 0.03314229 0.96330637
v -0.06144285 0.06143264 0.96330637
v -0.08688989 -0.00000192 0.96330638
v -0.05648133 -0.00000191 0.98924456
v -0.05201948 0.02154183 0.98924456
v -0.03994075 0.03993055 0.98924455
v 0.08000887 0.03314237 0.96330637
v 0.08687329 -0.00000185 0.96330638
v 0.06142621 0.06143271 0.96330637
v 0.03992413 0.03993060 0.98924455
v 0.05200286 0.02154188 0.98924456
v 0.05646474 -0.00000186 0.98924456
v 0.03313597 -0.08001912 0.96330639
v 0.06142632 -0.06143646 0.96330639
v 0.03992421 -0.03993437 0.98924457
v 0.02153548 -0.05201309 0.98924457
v -0.08002550 -0.03314614 0.96330639
v -0.05201948 -0.02154565 0.98924456
v -0.03315250 0.08001527 0.96330637
v -0.00000830 0.08687968 0.96330637
v -0.02155202 0.05200927 0.98924455
v -0.00000829 0.05647113 0.98924455
v 0.03313588 0.08001532 0.96330637
v 0.02153542 0.05200929 0.98924455
v 0.08000894 -0.03314608 0.96330639
v 0.05200291 -0.02154561 0.98924456
v 0.01514333 0.03657740 0.99873412
v 0.02807605 0.02808250 0.99873412
v -0.00000829 0.03971540 0.99873412
v -0.00000829 0.02978608 0.99999935
v 0.01135543 0.02743258 0.99999936
v 0.02105497 0.02106140 0.99999936
v 0.03657101 -0.01515352 0.99873413
v 0.02807610 -0.02808627 0.99873413
v 0.03970901 -0.00000187 0.99873413
v 0.02977968 -0.00000188 0.99999936
v 0.02742619 -0.01136562 0.99999936
v 0.02105501 -0.02106518 0.99999936
v -0.01515992 -0.03658121 0.99873413
v -0.02809266 -0.02808628 0.99873413
v -0.00000828 -0.03971922 0.99873413
v -0.00000828 -0.02978989 0.99999936
v -0.01137201 -0.02743638 0.99999936
v -0.02107157 -0.02106519 0.99999936
v -0.03658758 0.01514973 0.99873412
v -0.02809266 0.02808247 0.99873412
v -0.03972560 -0.00000191 0.99873413
v -0.02979627 -0.00000191 0.99999936
v -0.02744276 0.01136182 0.99999936
v -0.02107157 0.02106137 0.99999936
v 0.03657098 0.01514977 0.99873412
v 0.02742616 0.01136185 0.99999936
v 0.01514337 -0.03658120 0.99873413
v 0.01135546 -0.02743638 0.99999936
v -0.03658758 -0.01515355 0.99873413
v -0.02744276 -0.01136564 0.99999936
v -0.01515993 0.03657738 0.99873412
v -0.01137202 0.02743257 0.99999936
v 0.03291306 0.01363444 0.01289901
v 0.03573728 -0.00000204 0.01289901
v 0.02560937 -0.00000204 0.00601757
v 0.02358534 0.00977077 0.00601757
v 0.01810611 0.01811237 0.00601757
v 0.02526762 0.02527390 0.01289900
v 0.03242913 0.03243542 0.02132949
v 0.04224077 0.01749812 0.02132949
v 0.04586519 -0.00000203 0.02132950
v 0.01362821 -0.03292343 0.01289901
v -0.00000828 -0.03574765 0.01289901
v -0.00000828 -0.02561973 0.00601757
v 0.00976453 -0.02359571 0.00601758
v 0.01810615 -0.01811648 0.00601757
v 0.02526767 -0.02527799 0.01289901
v 0.03242919 -0.03243951 0.02132950
v 0.01749188 -0.04225115 0.02132950
v -0.00000827 -0.04587556 0.02132950
v -0.03292965 -0.01363854 0.01289901
v -0.03575386 -0.00000207 0.01289901
v -0.02562595 -0.00000207 0.00601757
v -0.02360194 -0.00977487 0.00601758
v -0.01812271 -0.01811649 0.00601757
v -0.02528422 -0.02527801 0.01289901
v -0.03244574 -0.03243952 0.02132950
v -0.04225738 -0.01750221 0.02132950
v -0.04588178 -0.00000207 0.02132950
v -0.01364476 0.03291930 0.01289900
v -0.00000829 0.03574351 0.01289900
v -0.00000829 0.02561560 0.00601757
v -0.00978110 0.02359158 0.00601757
v -0.01812271 0.01811235 0.00601757
v -0.02528422 0.02527387 0.01289900
v -0.03244574 0.03243538 0.02132949
v -0.01750843 0.04224701 0.02132949
v -0.00000829 0.04587142 0.02132949
v 0.01362817 0.03291931 0.01289900
v 0.00976451 0.02359159 0.00601757
v 0.01749183 0.04224704 0.02132949
v 0.03291309 -0.01363852 0.01289901
v 0.02358536 -0.00977486 0.00601758
v 0.04224081 -0.01750218 0.02132950
v -0.01364476 -0.03292344 0.01289901
v -0.00978109 -0.02359572 0.00601758
v -0.01750843 -0.04225116 0.02132950
v -0.03292965 0.01363441 0.01289901
v -0.02360194 0.00977074 0.00601757
v -0.04225737 0.01749808 0.02132949
v 0.01999185 0.04828263 0.02975998
v 0.03706304 0.03706935 0.02975998
v -0.00000829 0.05242478 0.02975998
v -0.00000829 0.05599933 0.03924427
v 0.02135550 0.05157477 0.03924427
v 0.03959064 0.03959695 0.03924428
v 0.04827640 -0.02000220 0.02975999
v 0.03706312 -0.03707343 0.02975999
v 0.05241855 -0.00000202 0.02975999
v 0.05599310 -0.00000202 0.03924428
v 0.05156854 -0.02136585 0.03924429
v 0.03959071 -0.03960102 0.03924429
v -0.02000844 -0.04828675 0.02975999
v -0.03707966 -0.03707345 0.02975999
v -0.00000827 -0.05242892 0.02975999
v -0.00000827 -0.05600348 0.03924429
v -0.02137209 -0.05157888 0.03924429
v -0.03960725 -0.03960104 0.03924429
v -0.04829296 0.01999810 0.02975998
v -0.03707966 0.03706931 0.02975998
v -0.05243513 -0.00000207 0.02975999
v -0.05600969 -0.00000207 0.03924428
v -0.05158510 0.02136174 0.03924428
v -0.03960726 0.03959690 0.03924428
v 0.04827635 0.01999815 0.02975998
v 0.05156848 0.02136180 0.03924428
v 0.01999190 -0.04828674 0.02975999
v 0.02135555 -0.05157888 0.03924429
v -0.04829296 -0.02000224 0.02975999
v -0.05158510 -0.02136588 0.03924429
v -0.02000845 0.04828260 0.02975998
v -0.02137210 0.05157474 0.03924427
v 0.02181011 -0.05267626 0.05083620
v -0.00000827 -0.05719499 0.05083620
v 0.04043324 -0.04044355 0.05083620
v 0.03942221 -0.03943251 0.06348192
v 0.02126465 -0.05135940 0.06348192
v -0.00000827 -0.05576517 0.06348192
v -0.05268248 -0.02182043 0.05083620
v -0.05720121 -0.00000207 0.05083619
v -0.04044979 -0.04044357 0.05083620
v -0.03943875 -0.03943254 0.06348192
v -0.05136563 -0.02127497 0.06348192
v -0.05577139 -0.00000206 0.06348191
v -0.02182665 0.05267212 0.05083619
v -0.00000829 0.05719085 0.05083619
v -0.04044979 0.04043943 0.05083619
v -0.03943875 0.03942839 0.06348191
v -0.02128119 0.05135527 0.06348191
v -0.00000829 0.05576104 0.06348191
v 0.02181005 0.05267215 0.05083619
v 0.04043317 0.04043948 0.05083619
v 0.02126459 0.05135530 0.06348191
v 0.03942213 0.03942845 0.06348191
v 0.05266592 -0.02182039 0.05083620
v 0.05718462 -0.00000202 0.05083619
v 0.05575480 -0.00000201 0.06348191
v 0.05134906 -0.02127493 0.06348192
v -0.02182664 -0.05267626 0.05083620
v -0.02128118 -0.05135941 0.06348192
v -0.05268248 0.02181630 0.05083619
v -0.05136562 0.02127084 0.06348191
v 0.05266586 0.02181635 0.05083619
v 0.05134901 0.02127089 0.06348191
v 0.04739845 0.01963452 0.07612763
v 0.05146533 -0.00000202 0.07612763
v 0.03638902 0.03639533 0.07612763
v 0.03092943 0.03093573 0.08717281
v 0.04028744 0.01668903 0.08717281
v 0.04374429 -0.00000202 0.08717281
v 0.01962827 -0.04740883 0.07612764
v -0.00000827 -0.05147569 0.07612764
v 0.03638909 -0.03639940 0.07612764
v 0.03092949 -0.03093979 0.08717282
v 0.01668278 -0.04029781 0.08717282
v -0.00000827 -0.04375465 0.08717282
v -0.04741506 -0.01963859 0.07612764
v -0.05148192 -0.00000206 0.07612763
v -0.03640563 -0.03639942 0.07612764
v -0.03094603 -0.03093981 0.08717282
v -0.04030404 -0.01669311 0.08717281
v -0.04376087 -0.00000206 0.08717281
v -0.01964481 0.04740471 0.07612763
v -0.00000829 0.05147158 0.07612763
v -0.03640564 0.03639529 0.07612763
v -0.03094603 0.03093569 0.08717281
v -0.01669933 0.04029369 0.08717280
v -0.00000829 0.04375053 0.08717280
v 0.01962821 0.04740473 0.07612763
v 0.01668274 0.04029372 0.08717280
v 0.04739849 -0.01963856 0.07612764
v 0.04028748 -0.01669308 0.08717281
v -0.01964481 -0.04740884 0.07612764
v -0.01669933 -0.04029782 0.08717282
v -0.04741506 0.01963446 0.07612763
v -0.04030404 0.01668899 0.08717281
v 0.02948927 -0.01222032 0.09501690
v 0.02263897 -0.02264928 0.09501690
v 0.03201974 -0.00000203 0.09501690
v 0.02172502 -0.00000203 0.10469130
v 0.02000791 -0.00829301 0.10469130
v 0.01535950 -0.01536981 0.10469130
v -0.01222656 -0.02949960 0.09501690
v -0.02265553 -0.02264930 0.09501690
v -0.00000828 -0.03203009 0.09501691
v -0.00000828 -0.02173536 0.10469130
v -0.00829926 -0.02001824 0.10469130
v -0.01537606 -0.01536982 0.10469130
v -0.02950584 0.01221623 0.09501690
v -0.02265553 0.02264519 0.09501690
v -0.03203633 -0.00000205 0.09501690
v -0.02174160 -0.00000205 0.10469130
v -0.02002448 0.00828893 0.10469129
v -0.01537606 0.01536572 0.10469129
v 0.02948924 0.01221626 0.09501690
v 0.02263893 0.02264522 0.09501690
v 0.01535947 0.01536574 0.10469129
v 0.02000789 0.00828895 0.10469129
v 0.01221001 -0.02949960 0.09501690
v 0.00828270 -0.02001824 0.10469130
v -0.02950584 -0.01222034 0.09501690
v -0.02002448 -0.00829303 0.10469130
v -0.01222657 0.02949549 0.09501690
v -0.00000829 0.03202598 0.09501689
v -0.00829927 0.02001414 0.10469129
v -0.00000829 0.02173126 0.10469129
v 0.01220998 0.02949551 0.09501690
v 0.00828268 0.02001415 0.10469129
v 0.01754976 0.00727074 0.00223426
v 0.01347220 0.01347845 0.00223426
v 0.01905601 -0.00000205 0.00223426
v 0.01428994 -0.00000205 0.00000000
v 0.01316025 0.00545254 0.00000000
v 0.01010208 0.01010832 0.00000000
v 0.00726451 -0.01756013 0.00223426
v 0.01347222 -0.01348256 0.00223426
v -0.00000828 -0.01906637 0.00223426
v -0.00000828 -0.01430030 0.00000000
v 0.00544631 -0.01317061 0.00000000
v 0.01010209 -0.01011244 0.00000000
v -0.01756635 -0.00727485 0.00223426
v -0.01348879 -0.01348257 0.00223426
v -0.01907260 -0.00000207 0.00223426
v -0.01430652 -0.00000206 0.00000000
v -0.01317684 -0.00545666 0.00000000
v -0.01011866 -0.01011244 0.00000000
v -0.00728108 0.01755600 0.00223426
v -0.01348879 0.01347843 0.00223426
v -0.00000829 0.01906224 0.00223426
v -0.00000829 0.01429617 0.00000000
v -0.00546288 0.01316648 0.00000000
v -0.01011866 0.01010831 0.00000000
v 0.00726449 0.01755600 0.00223426
v 0.00544629 0.01316649 0.00000000
v 0.01754978 -0.00727484 0.00223426
v 0.01316026 -0.00545665 0.00000000
v -0.00728107 -0.01756013 0.00223426
v -0.00546288 -0.01317061 0.00000000
v -0.01756635 0.00727072 0.00223426
v -0.01317684 0.00545253 0.00000000
v -0.00699016 0.01685369 0.12122739
v -0.00000829 0.01829969 0.12122739
v -0.01294957 0.01293923 0.12122739
v -0.01294957 0.01293924 0.14230361
v -0.00699016 0.01685370 0.14230362
v -0.00000829 0.01829969 0.14230361
v 0.00697358 0.01685370 0.12122739
v 0.01293298 0.01293925 0.12122739
v 0.00697358 0.01685371 0.14230362
v 0.01293298 0.01293925 0.14230361
v 0.01684746 -0.00698391 0.12122739
v 0.01293301 -0.01294332 0.12122740
v 0.01829344 -0.00000203 0.12122739
v 0.01829344 -0.00000203 0.14230362
v 0.01684746 -0.00698391 0.14230362
v 0.01293301 -0.01294332 0.14230362
v -0.00699016 -0.01685779 0.12122740
v -0.01294957 -0.01294333 0.12122740
v -0.00000828 -0.01830378 0.12122740
v -0.00000828 -0.01830378 0.14230362
v -0.00699016 -0.01685779 0.14230362
v -0.01294957 -0.01294333 0.14230362
v -0.01686403 0.00697983 0.12122739
v -0.01831002 -0.00000205 0.12122739
v -0.01831002 -0.00000204 0.14230362
v -0.01686403 0.00697983 0.14230362
v 0.01684744 0.00697985 0.12122739
v 0.01684744 0.00697985 0.14230362
v 0.00697360 -0.01685779 0.12122740
v 0.00697360 -0.01685778 0.14230362
v -0.01686403 -0.00698392 0.12122739
v -0.01686403 -0.00698392 0.14230362
v -0.01686403 0.00697984 0.16559840
v -0.01294957 0.01293924 0.16559840
v -0.01831002 -0.00000204 0.16559840
v -0.01831002 -0.00000203 0.19166637
v -0.01686403 0.00697984 0.19166637
v -0.01294957 0.01293924 0.19166637
v 0.01684744 0.00697986 0.16559840
v 0.01829344 -0.00000202 0.16559840
v 0.01293298 0.01293926 0.16559840
v 0.01293298 0.01293926 0.19166637
v 0.01684744 0.00697986 0.19166637
v 0.01829344 -0.00000202 0.19166637
v 0.00697360 -0.01685778 0.16559840
v -0.00000828 -0.01830378 0.16559840
v 0.01293300 -0.01294331 0.16559840
v 0.01293300 -0.01294331 0.19166637
v 0.00697360 -0.01685778 0.19166637
v -0.00000828 -0.01830377 0.19166637
v -0.01686403 -0.00698392 0.16559840
v -0.01294957 -0.01294332 0.16559840
v -0.01294957 -0.01294332 0.19166637
v -0.01686403 -0.00698391 0.19166637
v -0.00699016 0.01685370 0.16559840
v -0.00000829 0.01829970 0.16559840
v -0.00699016 0.01685370 0.19166637
v -0.00000829 0.01829970 0.19166637
v 0.00697358 0.01685371 0.16559840
v 0.00697358 0.01685371 0.19166637
v 0.01684746 -0.00698390 0.16559840
v 0.01684746 -0.00698390 0.19166637
v -0.00699016 -0.01685778 0.16559840
v -0.00699016 -0.01685778 0.19166637
v 0.00697358 0.01685372 0.22106216
v 0.01293298 0.01293927 0.22106216
v -0.00000829 0.01829971 0.22106216
v -0.00000829 0.01829971 0.25212186
v 0.00697358 0.01685372 0.25212186
v 0.01293298 0.01293927 0.25212186
v 0.01684746 -0.00698389 0.22106216
v 0.01293301 -0.01294330 0.22106216
v 0.01829344 -0.00000201 0.22106216
v 0.01829344 -0.00000201 0.25212186
v 0.01684746 -0.00698389 0.25212187
v 0.01293300 -0.01294330 0.25212187
v -0.00699016 -0.01685777 0.22106216
v -0.01294957 -0.01294331 0.22106216
v -0.00000828 -0.01830377 0.22106216
v -0.00000828 -0.01830376 0.25212187
v -0.00699016 -0.01685777 0.25212187
v -0.01294957 -0.01294331 0.25212187
v -0.01686403 0.00697985 0.22106216
v -0.01294957 0.01293925 0.22106216
v -0.01831002 -0.00000203 0.22106216
v -0.01831002 -0.00000203 0.25212186
v -0.01686403 0.00697985 0.25212186
v -0.01294957 0.01293926 0.25212186
v 0.01684744 0.00697986 0.22106216
v 0.01684744 0.00697987 0.25212186
v 0.00697360 -0.01685777 0.22106216
v 0.00697360 -0.01685777 0.25212187
v -0.01686403 -0.00698391 0.22106216
v -0.01686403 -0.00698390 0.25212187
v -0.00699016 0.01685371 0.22106216
v -0.00699016 0.01685371 0.25212186
v -0.39388773 -0.16315239 0.05723816
v -0.30241592 -0.30240982 0.05723819
v 0.39387101 0.16314846 0.05723811
v 0.30239904 0.30240582 0.05723809
v -0.42767726 -0.00000216 0.05723814
v 0.42766069 -0.00000178 0.05723814
v -0.16315842 -0.39388168 0.05723820
v -0.00000813 -0.42767116 0.05723821
v 0.16314173 0.39387753 0.05723807
v -0.00000833 0.42766693 0.05723807
v -0.16315850 0.39387732 0.05723807
v -0.30241592 0.30240548 0.05723809
v 0.16314214 -0.39388155 0.05723820
v 0.30239957 -0.30240966 0.05723819
v -0.39388773 0.16314805 0.05723811
v 0.39387135 -0.16315210 0.05723816
v -0.01294957 0.01293932 0.62927545
v -0.01686403 0.00697991 0.62927545
v -0.01686403 0.00697992 0.69583195
v -0.01294957 0.01293933 0.69583195
v 0.01293300 -0.01294324 0.62927545
v 0.01684746 -0.00698383 0.62927545
v 0.01684746 -0.00698382 0.69583196
v 0.01293300 -0.01294323 0.69583196
v -0.01686403 -0.00698384 0.62927545
v -0.01294957 -0.01294325 0.62927545
v -0.01294957 -0.01294323 0.69583196
v -0.01686403 -0.00698383 0.69583196
v 0.01684744 0.00697993 0.62927545
v 0.01293298 0.01293933 0.62927545
v 0.01293298 0.01293934 0.69583195
v 0.01684744 0.00697994 0.69583195
v -0.01831002 -0.00000196 0.62927545
v -0.01831002 -0.00000195 0.69583196
v 0.01829344 -0.00000195 0.62927545
v 0.01829344 -0.00000194 0.69583196
v -0.00699016 -0.01685771 0.62927545
v -0.00000828 -0.01830370 0.62927546
v -0.00000828 -0.01830369 0.69583196
v -0.00699016 -0.01685770 0.69583196
v 0.00697358 0.01685379 0.62927545
v -0.00000829 0.01829977 0.62927545
v -0.00000829 0.01829978 0.69583195
v 0.00697358 0.01685380 0.69583195
v -0.00699016 0.01685378 0.62927545
v -0.00699016 0.01685379 0.69583195
v 0.00697360 -0.01685770 0.62927545
v 0.00697360 -0.01685769 0.69583196
v 0.01684746 -0.00698386 0.45400998
v 0.01829344 -0.00000198 0.45400997
v 0.01829344 -0.00000196 0.56271895
v 0.01684746 -0.00698384 0.56271895
v -0.01686403 0.00697988 0.45400997
v -0.01831002 -0.00000199 0.45400997
v -0.01831002 -0.00000197 0.56271895
v -0.01686403 0.00697990 0.56271895
v -0.00000828 -0.01830373 0.45400998
v 0.00697360 -0.01685773 0.45400998
v 0.00697360 -0.01685771 0.56271895
v -0.00000828 -0.01830371 0.56271895
v -0.00000829 0.01829975 0.45400997
v -0.00699016 0.01685375 0.45400997
v -0.00699016 0.01685376 0.56271895
v -0.00000829 0.01829976 0.56271895
v 0.01293300 -0.01294327 0.45400998
v 0.01293300 -0.01294325 0.56271895
v 0.01293298 0.01293930 0.45400997
v 0.00697358 0.01685376 0.45400997
v 0.00697358 0.01685377 0.56271895
v 0.01293298 0.01293932 0.56271895
v -0.01294957 0.01293929 0.45400997
v -0.01294957 0.01293931 0.56271895
v -0.01294957 -0.01294327 0.45400998
v -0.00699016 -0.01685774 0.45400998
v -0.00699016 -0.01685772 0.56271895
v -0.01294957 -0.01294326 0.56271895
v 0.01684744 0.00697990 0.45400997
v 0.01684744 0.00697992 0.56271895
v -0.01686403 -0.00698387 0.45400998
v -0.01686403 -0.00698385 0.56271895
v -0.01294957 0.01293927 0.35306592
v -0.01686403 0.00697987 0.35306592
v 0.01293300 -0.01294328 0.35306592
v 0.01684746 -0.00698387 0.35306592
v -0.01686403 -0.00698389 0.35306592
v -0.01294957 -0.01294329 0.35306592
v 0.01684744 0.00697989 0.35306592
v 0.01293298 0.01293929 0.35306592
v -0.01831002 -0.00000201 0.35306592
v 0.01829344 -0.00000199 0.35306592
v -0.00699016 -0.01685775 0.35306592
v -0.00000828 -0.01830375 0.35306592
v 0.00697358 0.01685374 0.35306592
v -0.00000829 0.01829973 0.35306592
v -0.00699016 0.01685373 0.35306592
v 0.00697360 -0.01685775 0.35306592
f 1 2 3
f 1 3 4
f 1 4 5
f 1 5 6
f 1 6 7
f 1 7 8
f 1 8 9
f 1 9 2
f 10 11 12
f 10 12 13
f 10 13 14
f 10 14 15
f 10 15 16
f 10 16 17
f 10 17 18
f 10 18 11
f 19 20 21
f 19 21 22
f 19 22 12
f 19 12 11
f 19 11 18
f 19 18 23
f 19 23 24
f 19 24 20
f 25 26 27
f 25 27 28
f 25 28 29
f 25 29 30
f 25 30 31
f 25 31 32
f 25 32 33
f 25 33 26
f 34 6 5
f 34 5 35
f 34 35 36
f 34 36 37
f 34 37 38
f 34 38 39
f 34 39 7
f 34 7 6
f 40 15 14
f 40 14 41
f 40 41 3
f 40 3 2
f 40 2 9
f 40 9 42
f 40 42 16
f 40 16 15
f 43 30 29
f 43 29 44
f 43 44 21
f 43 21 20
f 43 20 24
f 43 24 45
f 43 45 31
f 43 31 30
f 46 37 36
f 46 36 47
f 46 47 27
f 46 27 26
f 46 26 33
f 46 33 48
f 46 48 38
f 46 38 37
f 49 50 33
f 49 33 32
f 49 32 31
f 49 31 51
f 49 51 52
f 49 52 53
f 49 53 54
f 49 54 50
f 55 56 7
f 55 7 39
f 55 39 38
f 55 38 57
f 55 57 58
f 55 58 59
f 55 59 60
f 55 60 56
f 61 62 16
f 61 16 42
f 61 42 9
f 61 9 63
f 61 63 64
f 61 64 65
f 61 65 66
f 61 66 62
f 67 51 31
f 67 31 45
f 67 45 24
f 67 24 68
f 67 68 69
f 67 69 70
f 67 70 52
f 67 52 51
f 71 57 38
f 71 38 48
f 71 48 33
f 71 33 50
f 71 50 54
f 71 54 72
f 71 72 58
f 71 58 57
f 73 63 9
f 73 9 8
f 73 8 7
f 73 7 56
f 73 56 60
f 73 60 74
f 73 74 64
f 73 64 63
f 75 76 18
f 75 18 17
f 75 17 16
f 75 16 62
f 75 62 66
f 75 66 77
f 75 77 78
f 75 78 76
f 79 68 24
f 79 24 23
f 79 23 18
f 79 18 76
f 79 76 78
f 79 78 80
f 79 80 69
f 79 69 68
f 81 82 78
f 81 78 77
f 81 77 66
f 81 66 83
f 81 83 84
f 81 84 85
f 81 85 86
f 81 86 82
f 87 88 69
f 87 69 80
f 87 80 78
f 87 78 82
f 87 82 86
f 87 86 89
f 87 89 90
f 87 90 88
f 91 92 54
f 91 54 53
f 91 53 52
f 91 52 93
f 91 93 94
f 91 94 95
f 91 95 96
f 91 96 92
f 97 98 60
f 97 60 59
f 97 59 58
f 97 58 99
f 97 99 100
f 97 100 101
f 97 101 102
f 97 102 98
f 103 83 66
f 103 66 65
f 103 65 64
f 103 64 104
f 103 104 105
f 103 105 106
f 103 106 84
f 103 84 83
f 107 93 52
f 107 52 70
f 107 70 69
f 107 69 88
f 107 88 90
f 107 90 108
f 107 108 94
f 107 94 93
f 109 99 58
f 109 58 72
f 109 72 54
f 109 54 92
f 109 92 96
f 109 96 110
f 109 110 100
f 109 100 99
f 111 104 64
f 111 64 74
f 111 74 60
f 111 60 98
f 111 98 102
f 111 102 112
f 111 112 105
f 111 105 104
f 113 114 94
f 113 94 108
f 113 108 90
f 113 90 115
f 113 115 116
f 113 116 117
f 113 117 118
f 113 118 114
f 119 120 100
f 119 100 110
f 119 110 96
f 119 96 121
f 119 121 122
f 119 122 123
f 119 123 124
f 119 124 120
f 125 126 105
f 125 105 112
f 125 112 102
f 125 102 127
f 125 127 128
f 125 128 129
f 125 129 130
f 125 130 126
f 131 132 86
f 131 86 85
f 131 85 84
f 131 84 133
f 131 133 134
f 131 134 135
f 131 135 136
f 131 136 132
f 137 115 90
f 137 90 89
f 137 89 86
f 137 86 132
f 137 132 136
f 137 136 138
f 137 138 116
f 137 116 115
f 139 121 96
f 139 96 95
f 139 95 94
f 139 94 114
f 139 114 118
f 139 118 140
f 139 140 122
f 139 122 121
f 141 127 102
f 141 102 101
f 141 101 100
f 141 100 120
f 141 120 124
f 141 124 142
f 141 142 128
f 141 128 127
f 143 133 84
f 143 84 106
f 143 106 105
f 143 105 126
f 143 126 130
f 143 130 144
f 143 144 134
f 143 134 133
f 145 146 134
f 145 134 144
f 145 144 130
f 145 130 147
f 145 147 148
f 145 148 149
f 145 149 150
f 145 150 146
f 151 152 118
f 151 118 117
f 151 117 116
f 151 116 153
f 151 153 154
f 151 154 155
f 151 155 156
f 151 156 152
f 157 158 124
f 157 124 123
f 157 123 122
f 157 122 159
f 157 159 160
f 157 160 161
f 157 161 162
f 157 162 158
f 163 147 130
f 163 130 129
f 163 129 128
f 163 128 164
f 163 164 165
f 163 165 166
f 163 166 148
f 163 148 147
f 167 168 136
f 167 136 135
f 167 135 134
f 167 134 146
f 167 146 150
f 167 150 169
f 167 169 170
f 167 170 168
f 171 153 116
f 171 116 138
f 171 138 136
f 171 136 168
f 171 168 170
f 171 170 172
f 171 172 154
f 171 154 153
f 173 159 122
f 173 122 140
f 173 140 118
f 173 118 152
f 173 152 156
f 173 156 174
f 173 174 160
f 173 160 159
f 175 164 128
f 175 128 142
f 175 142 124
f 175 124 158
f 175 158 162
f 175 162 176
f 175 176 165
f 175 165 164
f 177 178 154
f 177 154 172
f 177 172 170
f 177 170 179
f 177 179 180
f 177 180 181
f 177 181 182
f 177 182 178
f 183 184 160
f 183 160 174
f 183 174 156
f 183 156 185
f 183 185 186
f 183 186 187
f 183 187 188
f 183 188 184
f 189 190 165
f 189 165 176
f 189 176 162
f 189 162 191
f 189 191 192
f 189 192 193
f 189 193 194
f 189 194 190
f 195 196 150
f 195 150 149
f 195 149 148
f 195 148 197
f 195 197 198
f 195 198 199
f 195 199 200
f 195 200 196
f 201 185 156
f 201 156 155
f 201 155 154
f 201 154 178
f 201 178 182
f 201 182 202
f 201 202 186
f 201 186 185
f 203 191 162
f 203 162 161
f 203 161 160
f 203 160 184
f 203 184 188
f 203 188 204
f 203 204 192
f 203 192 191
f 205 197 148
f 205 148 166
f 205 166 165
f 205 165 190
f 205 190 194
f 205 194 206
f 205 206 198
f 205 198 197
f 207 179 170
f 207 170 169
f 207 169 150
f 207 150 196
f 207 196 200
f 207 200 208
f 207 208 180
f 207 180 179
f 209 210 198
f 209 198 206
f 209 206 194
f 209 194 211
f 209 211 212
f 209 212 213
f 209 213 214
f 209 214 210
f 215 216 180
f 215 180 208
f 215 208 200
f 215 200 217
f 215 217 218
f 215 218 219
f 215 219 220
f 215 220 216
f 221 222 182
f 221 182 181
f 221 181 180
f 221 180 216
f 221 216 220
f 221 220 223
f 221 223 224
f 221 224 222
f 225 226 188
f 225 188 187
f 225 187 186
f 225 186 227
f 225 227 228
f 225 228 229
f 225 229 230
f 225 230 226
f 231 211 194
f 231 194 193
f 231 193 192
f 231 192 232
f 231 232 233
f 231 233 234
f 231 234 212
f 231 212 211
f 235 217 200
f 235 200 199
f 235 199 198
f 235 198 210
f 235 210 214
f 235 214 236
f 235 236 218
f 235 218 217
f 237 227 186
f 237 186 202
f 237 202 182
f 237 182 222
f 237 222 224
f 237 224 238
f 237 238 228
f 237 228 227
f 239 232 192
f 239 192 204
f 239 204 188
f 239 188 226
f 239 226 230
f 239 230 240
f 239 240 233
f 239 233 232
f 241 242 228
f 241 228 238
f 241 238 224
f 241 224 243
f 241 243 244
f 241 244 245
f 241 245 246
f 241 246 242
f 247 248 233
f 247 233 240
f 247 240 230
f 247 230 249
f 247 249 250
f 247 250 251
f 247 251 252
f 247 252 248
f 253 254 214
f 253 214 213
f 253 213 212
f 253 212 255
f 253 255 256
f 253 256 257
f 253 257 258
f 253 258 254
f 259 260 220
f 259 220 219
f 259 219 218
f 259 218 261
f 259 261 262
f 259 262 263
f 259 263 264
f 259 264 260
f 265 243 224
f 265 224 223
f 265 223 220
f 265 220 260
f 265 260 264
f 265 264 266
f 265 266 244
f 265 244 243
f 267 249 230
f 267 230 229
f 267 229 228
f 267 228 242
f 267 242 246
f 267 246 268
f 267 268 250
f 267 250 249
f 269 255 212
f 269 212 234
f 269 234 233
f 269 233 248
f 269 248 252
f 269 252 270
f 269 270 256
f 269 256 255
f 271 261 218
f 271 218 236
f 271 236 214
f 271 214 254
f 271 254 258
f 271 258 272
f 271 272 262
f 271 262 261
f 273 274 256
f 273 256 270
f 273 270 252
f 273 252 275
f 273 275 276
f 273 276 277
f 273 277 278
f 273 278 274
f 279 280 262
f 279 262 272
f 279 272 258
f 279 258 281
f 279 281 282
f 279 282 283
f 279 283 284
f 279 284 280
f 285 286 246
f 285 246 245
f 285 245 244
f 285 244 287
f 285 287 288
f 285 288 289
f 285 289 290
f 285 290 286
f 291 275 252
f 291 252 251
f 291 251 250
f 291 250 292
f 291 292 293
f 291 293 294
f 291 294 276
f 291 276 275
f 295 281 258
f 295 258 257
f 295 257 256
f 295 256 274
f 295 274 278
f 295 278 296
f 295 296 282
f 295 282 281
f 297 298 264
f 297 264 263
f 297 263 262
f 297 262 280
f 297 280 284
f 297 284 299
f 297 299 300
f 297 300 298
f 301 287 244
f 301 244 266
f 301 266 264
f 301 264 298
f 301 298 300
f 301 300 302
f 301 302 288
f 301 288 287
f 303 292 250
f 303 250 268
f 303 268 246
f 303 246 286
f 303 286 290
f 303 290 304
f 303 304 293
f 303 293 292
f 305 306 288
f 305 288 302
f 305 302 300
f 305 300 307
f 305 307 308
f 305 308 309
f 305 309 310
f 305 310 306
f 311 312 293
f 311 293 304
f 311 304 290
f 311 290 313
f 311 313 314
f 311 314 315
f 311 315 316
f 311 316 312
f 317 318 278
f 317 278 277
f 317 277 276
f 317 276 319
f 317 319 320
f 317 320 321
f 317 321 322
f 317 322 318
f 323 324 284
f 323 284 283
f 323 283 282
f 323 282 325
f 323 325 326
f 323 326 327
f 323 327 328
f 323 328 324
f 329 313 290
f 329 290 289
f 329 289 288
f 329 288 306
f 329 306 310
f 329 310 330
f 329 330 314
f 329 314 313
f 331 319 276
f 331 276 294
f 331 294 293
f 331 293 312
f 331 312 316
f 331 316 332
f 331 332 320
f 331 320 319
f 333 325 282
f 333 282 296
f 333 296 278
f 333 278 318
f 333 318 322
f 333 322 334
f 333 334 326
f 333 326 325
f 335 307 300
f 335 300 299
f 335 299 284
f 335 284 324
f 335 324 328
f 335 328 336
f 335 336 308
f 335 308 307
f 337 338 339
f 337 339 340
f 337 340 341
f 337 341 342
f 337 342 343
f 337 343 344
f 337 344 345
f 337 345 338
f 346 347 348
f 346 348 349
f 346 349 350
f 346 350 351
f 346 351 352
f 346 352 353
f 346 353 354
f 346 354 347
f 355 356 357
f 355 357 358
f 355 358 359
f 355 359 360
f 355 360 361
f 355 361 362
f 355 362 363
f 355 363 356
f 364 365 366
f 364 366 367
f 364 367 368
f 364 368 369
f 364 369 370
f 364 370 371
f 364 371 372
f 364 372 365
f 373 342 341
f 373 341 374
f 373 374 366
f 373 366 365
f 373 365 372
f 373 372 375
f 373 375 343
f 373 343 342
f 376 351 350
f 376 350 377
f 376 377 339
f 376 339 338
f 376 338 345
f 376 345 378
f 376 378 352
f 376 352 351
f 379 360 359
f 379 359 380
f 379 380 348
f 379 348 347
f 379 347 354
f 379 354 381
f 379 381 361
f 379 361 360
f 382 369 368
f 382 368 383
f 382 383 357
f 382 357 356
f 382 356 363
f 382 363 384
f 382 384 370
f 382 370 369
f 385 386 343
f 385 343 375
f 385 375 372
f 385 372 387
f 385 387 388
f 385 388 389
f 385 389 390
f 385 390 386
f 391 392 352
f 391 352 378
f 391 378 345
f 391 345 393
f 391 393 394
f 391 394 395
f 391 395 396
f 391 396 392
f 397 398 361
f 397 361 381
f 397 381 354
f 397 354 399
f 397 399 400
f 397 400 401
f 397 401 402
f 397 402 398
f 403 404 370
f 403 370 384
f 403 384 363
f 403 363 405
f 403 405 406
f 403 406 407
f 403 407 408
f 403 408 404
f 409 393 345
f 409 345 344
f 409 344 343
f 409 343 386
f 409 386 390
f 409 390 410
f 409 410 394
f 409 394 393
f 411 399 354
f 411 354 353
f 411 353 352
f 411 352 392
f 411 392 396
f 411 396 412
f 411 412 400
f 411 400 399
f 413 405 363
f 413 363 362
f 413 362 361
f 413 361 398
f 413 398 402
f 413 402 414
f 413 414 406
f 413 406 405
f 415 387 372
f 415 372 371
f 415 371 370
f 415 370 404
f 415 404 408
f 415 408 416
f 415 416 388
f 415 388 387
f 417 418 400
f 417 400 412
f 417 412 396
f 417 396 419
f 417 419 420
f 417 420 421
f 417 421 422
f 417 422 418
f 423 424 406
f 423 406 414
f 423 414 402
f 423 402 425
f 423 425 426
f 423 426 427
f 423 427 428
f 423 428 424
f 429 430 388
f 429 388 416
f 429 416 408
f 429 408 431
f 429 431 432
f 429 432 433
f 429 433 434
f 429 434 430
f 435 436 390
f 435 390 389
f 435 389 388
f 435 388 430
f 435 430 434
f 435 434 437
f 435 437 438
f 435 438 436
f 439 419 396
f 439 396 395
f 439 395 394
f 439 394 440
f 439 440 441
f 439 441 442
f 439 442 420
f 439 420 419
f 443 425 402
f 443 402 401
f 443 401 400
f 443 400 418
f 443 418 422
f 443 422 444
f 443 444 426
f 443 426 425
f 445 431 408
f 445 408 407
f 445 407 406
f 445 406 424
f 445 424 428
f 445 428 446
f 445 446 432
f 445 432 431
f 447 440 394
f 447 394 410
f 447 410 390
f 447 390 436
f 447 436 438
f 447 438 448
f 447 448 441
f 447 441 440
f 449 450 441
f 449 441 448
f 449 448 438
f 449 438 451
f 449 451 452
f 449 452 453
f 449 453 454
f 449 454 450
f 455 456 422
f 455 422 421
f 455 421 420
f 455 420 457
f 455 457 458
f 455 458 459
f 455 459 460
f 455 460 456
f 461 462 428
f 461 428 427
f 461 427 426
f 461 426 463
f 461 463 464
f 461 464 465
f 461 465 466
f 461 466 462
f 467 468 434
f 467 434 433
f 467 433 432
f 467 432 469
f 467 469 470
f 467 470 471
f 467 471 472
f 467 472 468
f 473 451 438
f 473 438 437
f 473 437 434
f 473 434 468
f 473 468 472
f 473 472 474
f 473 474 452
f 473 452 451
f 475 457 420
f 475 420 442
f 475 442 441
f 475 441 450
f 475 450 454
f 475 454 476
f 475 476 458
f 475 458 457
f 477 463 426
f 477 426 444
f 477 444 422
f 477 422 456
f 477 456 460
f 477 460 478
f 477 478 464
f 477 464 463
f 479 469 432
f 479 432 446
f 479 446 428
f 479 428 462
f 479 462 466
f 479 466 480
f 479 480 470
f 479 470 469
f 481 482 458
f 481 458 476
f 481 476 454
f 481 454 483
f 481 483 484
f 481 484 485
f 481 485 486
f 481 486 482
f 487 488 464
f 487 464 478
f 487 478 460
f 487 460 489
f 487 489 490
f 487 490 491
f 487 491 492
f 487 492 488
f 493 494 470
f 493 470 480
f 493 480 466
f 493 466 495
f 493 495 496
f 493 496 497
f 493 497 498
f 493 498 494
f 499 483 454
f 499 454 453
f 499 453 452
f 499 452 500
f 499 500 501
f 499 501 502
f 499 502 484
f 499 484 483
f 503 489 460
f 503 460 459
f 503 459 458
f 503 458 482
f 503 482 486
f 503 486 504
f 503 504 490
f 503 490 489
f 505 495 466
f 505 466 465
f 505 465 464
f 505 464 488
f 505 488 492
f 505 492 506
f 505 506 496
f 505 496 495
f 507 508 472
f 507 472 471
f 507 471 470
f 507 470 494
f 507 494 498
f 507 498 509
f 507 509 510
f 507 510 508
f 511 500 452
f 511 452 474
f 511 474 472
f 511 472 508
f 511 508 510
f 511 510 512
f 511 512 501
f 511 501 500
f 513 514 341
f 513 341 340
f 513 340 339
f 513 339 515
f 513 515 516
f 513 516 517
f 513 517 518
f 513 518 514
f 519 520 350
f 519 350 349
f 519 349 348
f 519 348 521
f 519 521 522
f 519 522 523
f 519 523 524
f 519 524 520
f 525 526 359
f 525 359 358
f 525 358 357
f 525 357 527
f 525 527 528
f 525 528 529
f 525 529 530
f 525 530 526
f 531 532 368
f 531 368 367
f 531 367 366
f 531 366 533
f 531 533 534
f 531 534 535
f 531 535 536
f 531 536 532
f 537 533 366
f 537 366 374
f 537 374 341
f 537 341 514
f 537 514 518
f 537 518 538
f 537 538 534
f 537 534 533
f 539 515 339
f 539 339 377
f 539 377 350
f 539 350 520
f 539 520 524
f 539 524 540
f 539 540 516
f 539 516 515
f 541 521 348
f 541 348 380
f 541 380 359
f 541 359 526
f 541 526 530
f 541 530 542
f 541 542 522
f 541 522 521
f 543 527 357
f 543 357 383
f 543 383 368
f 543 368 532
f 543 532 536
f 543 536 544
f 543 544 528
f 543 528 527
f 545 546 510
f 545 510 509
f 545 509 498
f 545 498 547
f 545 547 548
f 545 548 549
f 545 549 550
f 545 550 546
f 551 552 501
f 551 501 512
f 551 512 510
f 551 510 546
f 551 546 550
f 551 550 553
f 551 553 554
f 551 554 552
f 555 556 486
f 555 486 485
f 555 485 484
f 555 484 557
f 555 557 558
f 555 558 559
f 555 559 560
f 555 560 556
f 561 562 492
f 561 492 491
f 561 491 490
f 561 490 563
f 561 563 564
f 561 564 565
f 561 565 566
f 561 566 562
f 567 547 498
f 567 498 497
f 567 497 496
f 567 496 568
f 567 568 569
f 567 569 570
f 567 570 548
f 567 548 547
f 571 557 484
f 571 484 502
f 571 502 501
f 571 501 552
f 571 552 554
f 571 554 572
f 571 572 558
f 571 558 557
f 573 563 490
f 573 490 504
f 573 504 486
f 573 486 556
f 573 556 560
f 573 560 574
f 573 574 564
f 573 564 563
f 575 568 496
f 575 496 506
f 575 506 492
f 575 492 562
f 575 562 566
f 575 566 576
f 575 576 569
f 575 569 568
f 577 578 548
f 577 548 570
f 577 570 569
f 577 569 579
f 577 579 580
f 577 580 581
f 577 581 582
f 577 582 578
f 583 584 558
f 583 558 572
f 583 572 554
f 583 554 585
f 583 585 586
f 583 586 587
f 583 587 588
f 583 588 584
f 589 590 564
f 589 564 574
f 589 574 560
f 589 560 591
f 589 591 592
f 589 592 593
f 589 593 594
f 589 594 590
f 595 579 569
f 595 569 576
f 595 576 566
f 595 566 596
f 595 596 597
f 595 597 598
f 595 598 580
f 595 580 579
f 599 600 550
f 599 550 549
f 599 549 548
f 599 548 578
f 599 578 582
f 599 582 601
f 599 601 602
f 599 602 600
f 603 585 554
f 603 554 553
f 603 553 550
f 603 550 600
f 603 600 602
f 603 602 604
f 603 604 586
f 603 586 585
f 605 591 560
f 605 560 559
f 605 559 558
f 605 558 584
f 605 584 588
f 605 588 606
f 605 606 592
f 605 592 591
f 607 596 566
f 607 566 565
f 607 565 564
f 607 564 590
f 607 590 594
f 607 594 608
f 607 608 597
f 607 597 596
f 609 610 586
f 609 586 604
f 609 604 602
f 609 602 611
f 609 611 612
f 609 612 613
f 609 613 614
f 609 614 610
f 615 616 592
f 615 592 606
f 615 606 588
f 615 588 617
f 615 617 618
f 615 618 619
f 615 619 620
f 615 620 616
f 621 622 597
f 621 597 608
f 621 608 594
f 621 594 623
f 621 623 624
f 621 624 625
f 621 625 626
f 621 626 622
f 627 628 582
f 627 582 581
f 627 581 580
f 627 580 629
f 627 629 630
f 627 630 631
f 627 631 632
f 627 632 628
f 633 617 588
f 633 588 587
f 633 587 586
f 633 586 610
f 633 610 614
f 633 614 634
f 633 634 618
f 633 618 617
f 635 623 594
f 635 594 593
f 635 593 592
f 635 592 616
f 635 616 620
f 635 620 636
f 635 636 624
f 635 624 623
f 637 629 580
f 637 580 598
f 637 598 597
f 637 597 622
f 637 622 626
f 637 626 638
f 637 638 630
f 637 630 629
f 639 611 602
f 639 602 601
f 639 601 582
f 639 582 628
f 639 628 632
f 639 632 640
f 639 640 612
f 639 612 611
f 5 4 641
f 5 641 642
f 21 44 643
f 21 643 644
f 4 3 645
f 4 645 641
f 44 29 646
f 44 646 643
f 36 35 647
f 36 647 648
f 12 22 649
f 12 649 650
f 35 5 642
f 35 642 647
f 14 13 651
f 14 651 652
f 22 21 644
f 22 644 649
f 27 47 653
f 27 653 654
f 13 12 650
f 13 650 651
f 47 36 648
f 47 648 653
f 3 41 655
f 3 655 645
f 29 28 656
f 29 656 646
f 41 14 652
f 41 652 655
f 28 27 654
f 28 654 656
f 657 658 659
f 657 659 660
f 661 662 663
f 661 663 664
f 665 666 667
f 665 667 668
f 669 670 671
f 669 671 672
f 673 665 668
f 673 668 674
f 675 669 672
f 675 672 676
f 677 678 679
f 677 679 680
f 681 682 683
f 681 683 684
f 666 677 680
f 666 680 667
f 685 657 660
f 685 660 686
f 670 681 684
f 670 684 671
f 687 661 664
f 687 664 688
f 682 685 686
f 682 686 683
f 678 687 688
f 678 688 679
f 658 673 674
f 658 674 659
f 662 675 676
f 662 676 663
f 689 690 691
f 689 691 692
f 693 694 695
f 693 695 696
f 697 698 699
f 697 699 700
f 701 702 703
f 701 703 704
f 698 705 706
f 698 706 699
f 707 708 709
f 707 709 710
f 702 711 712
f 702 712 703
f 713 714 715
f 713 715 716
f 708 701 704
f 708 704 709
f 714 697 700
f 714 700 715
f 690 717 718
f 690 718 691
f 694 719 720
f 694 720 695
f 717 707 710
f 717 710 718
f 719 713 716
f 719 716 720
f 705 689 692
f 705 692 706
f 711 693 696
f 711 696 712
f 721 722 693
f 721 693 711
f 723 724 689
f 723 689 705
f 725 726 713
f 725 713 719
f 727 728 707
f 727 707 717
f 729 725 719
f 729 719 694
f 730 727 717
f 730 717 690
f 731 732 697
f 731 697 714
f 733 734 701
f 733 701 708
f 726 731 714
f 726 714 713
f 735 721 711
f 735 711 702
f 728 733 708
f 728 708 707
f 736 723 705
f 736 705 698
f 734 735 702
f 734 702 701
f 732 736 698
f 732 698 697
f 722 729 694
f 722 694 693
f 724 730 690
f 724 690 689
f 619 618 730
f 619 730 724
f 631 630 729
f 631 729 722
f 624 636 736
f 624 736 732
f 612 640 735
f 612 735 734
f 636 620 723
f 636 723 736
f 614 613 733
f 614 733 728
f 640 632 721
f 640 721 735
f 626 625 731
f 626 731 726
f 613 612 734
f 613 734 733
f 625 624 732
f 625 732 731
f 618 634 727
f 618 727 730
f 630 638 725
f 630 725 729
f 634 614 728
f 634 728 727
f 638 626 726
f 638 726 725
f 620 619 724
f 620 724 723
f 632 631 722
f 632 722 721
f 692 691 675
f 692 675 662
f 696 695 673
f 696 673 658
f 700 699 687
f 700 687 678
f 704 703 685
f 704 685 682
f 699 706 661
f 699 661 687
f 710 709 681
f 710 681 670
f 703 712 657
f 703 657 685
f 716 715 677
f 716 677 666
f 709 704 682
f 709 682 681
f 715 700 678
f 715 678 677
f 691 718 669
f 691 669 675
f 695 720 665
f 695 665 673
f 718 710 670
f 718 670 669
f 720 716 666
f 720 666 665
f 706 692 662
f 706 662 661
f 712 696 658
f 712 658 657
f 4 3 2
f 2 1 4
f 6 5 4
f 4 1 6
f 8 7 6
f 6 1 8
f 2 9 8
f 8 1 2
f 13 12 11
f 11 10 13
f 15 14 13
f 13 10 15
f 17 16 15
f 15 10 17
f 11 18 17
f 17 10 11
f 22 21 20
f 20 19 22
f 11 12 22
f 22 19 11
f 23 18 11
f 11 19 23
f 20 24 23
f 23 19 20
f 28 27 26
f 26 25 28
f 30 29 28
f 28 25 30
f 32 31 30
f 30 25 32
f 26 33 32
f 32 25 26
f 35 5 6
f 6 34 35
f 37 36 35
f 35 34 37
f 39 38 37
f 37 34 39
f 6 7 39
f 39 34 6
f 41 14 15
f 15 40 41
f 2 3 41
f 41 40 2
f 42 9 2
f 2 40 42
f 15 16 42
f 42 40 15
f 44 29 30
f 30 43 44
f 20 21 44
f 44 43 20
f 45 24 20
f 20 43 45
f 30 31 45
f 45 43 30
f 47 36 37
f 37 46 47
f 26 27 47
f 47 46 26
f 48 33 26
f 26 46 48
f 37 38 48
f 48 46 37
f 32 33 50
f 50 49 32
f 51 31 32
f 32 49 51
f 53 52 51
f 51 49 53
f 50 54 53
f 53 49 50
f 39 7 56
f 56 55 39
f 57 38 39
f 39 55 57
f 59 58 57
f 57 55 59
f 56 60 59
f 59 55 56
f 42 16 62
f 62 61 42
f 63 9 42
f 42 61 63
f 65 64 63
f 63 61 65
f 62 66 65
f 65 61 62
f 45 31 51
f 51 67 45
f 68 24 45
f 45 67 68
f 70 69 68
f 68 67 70
f 51 52 70
f 70 67 51
f 48 38 57
f 57 71 48
f 50 33 48
f 48 71 50
f 72 54 50
f 50 71 72
f 57 58 72
f 72 71 57
f 8 9 63
f 63 73 8
f 56 7 8
f 8 73 56
f 74 60 56
f 56 73 74
f 63 64 74
f 74 73 63
f 17 18 76
f 76 75 17
f 62 16 17
f 17 75 62
f 77 66 62
f 62 75 77
f 76 78 77
f 77 75 76
f 23 24 68
f 68 79 23
f 76 18 23
f 23 79 76
f 80 78 76
f 76 79 80
f 68 69 80
f 80 79 68
f 77 78 82
f 82 81 77
f 83 66 77
f 77 81 83
f 85 84 83
f 83 81 85
f 82 86 85
f 85 81 82
f 80 69 88
f 88 87 80
f 82 78 80
f 80 87 82
f 89 86 82
f 82 87 89
f 88 90 89
f 89 87 88
f 53 54 92
f 92 91 53
f 93 52 53
f 53 91 93
f 95 94 93
f 93 91 95
f 92 96 95
f 95 91 92
f 59 60 98
f 98 97 59
f 99 58 59
f 59 97 99
f 101 100 99
f 99 97 101
f 98 102 101
f 101 97 98
f 65 66 83
f 83 103 65
f 104 64 65
f 65 103 104
f 106 105 104
f 104 103 106
f 83 84 106
f 106 103 83
f 70 52 93
f 93 107 70
f 88 69 70
f 70 107 88
f 108 90 88
f 88 107 108
f 93 94 108
f 108 107 93
f 72 58 99
f 99 109 72
f 92 54 72
f 72 109 92
f 110 96 92
f 92 109 110
f 99 100 110
f 110 109 99
f 74 64 104
f 104 111 74
f 98 60 74
f 74 111 98
f 112 102 98
f 98 111 112
f 104 105 112
f 112 111 104
f 108 94 114
f 114 113 108
f 115 90 108
f 108 113 115
f 117 116 115
f 115 113 117
f 114 118 117
f 117 113 114
f 110 100 120
f 120 119 110
f 121 96 110
f 110 119 121
f 123 122 121
f 121 119 123
f 120 124 123
f 123 119 120
f 112 105 126
f 126 125 112
f 127 102 112
f 112 125 127
f 129 128 127
f 127 125 129
f 126 130 129
f 129 125 126
f 85 86 132
f 132 131 85
f 133 84 85
f 85 131 133
f 135 134 133
f 133 131 135
f 132 136 135
f 135 131 132
f 89 90 115
f 115 137 89
f 132 86 89
f 89 137 132
f 138 136 132
f 132 137 138
f 115 116 138
f 138 137 115
f 95 96 121
f 121 139 95
f 114 94 95
f 95 139 114
f 140 118 114
f 114 139 140
f 121 122 140
f 140 139 121
f 101 102 127
f 127 141 101
f 120 100 101
f 101 141 120
f 142 124 120
f 120 141 142
f 127 128 142
f 142 141 127
f 106 84 133
f 133 143 106
f 126 105 106
f 106 143 126
f 144 130 126
f 126 143 144
f 133 134 144
f 144 143 133
f 144 134 146
f 146 145 144
f 147 130 144
f 144 145 147
f 149 148 147
f 147 145 149
f 146 150 149
f 149 145 146
f 117 118 152
f 152 151 117
f 153 116 117
f 117 151 153
f 155 154 153
f 153 151 155
f 152 156 155
f 155 151 152
f 123 124 158
f 158 157 123
f 159 122 123
f 123 157 159
f 161 160 159
f 159 157 161
f 158 162 161
f 161 157 158
f 129 130 147
f 147 163 129
f 164 128 129
f 129 163 164
f 166 165 164
f 164 163 166
f 147 148 166
f 166 163 147
f 135 136 168
f 168 167 135
f 146 134 135
f 135 167 146
f 169 150 146
f 146 167 169
f 168 170 169
f 169 167 168
f 138 116 153
f 153 171 138
f 168 136 138
f 138 171 168
f 172 170 168
f 168 171 172
f 153 154 172
f 172 171 153
f 140 122 159
f 159 173 140
f 152 118 140
f 140 173 152
f 174 156 152
f 152 173 174
f 159 160 174
f 174 173 159
f 142 128 164
f 164 175 142
f 158 124 142
f 142 175 158
f 176 162 158
f 158 175 176
f 164 165 176
f 176 175 164
f 172 154 178
f 178 177 172
f 179 170 172
f 172 177 179
f 181 180 179
f 179 177 181
f 178 182 181
f 181 177 178
f 174 160 184
f 184 183 174
f 185 156 174
f 174 183 185
f 187 186 185
f 185 183 187
f 184 188 187
f 187 183 184
f 176 165 190
f 190 189 176
f 191 162 176
f 176 189 191
f 193 192 191
f 191 189 193
f 190 194 193
f 193 189 190
f 149 150 196
f 196 195 149
f 197 148 149
f 149 195 197
f 199 198 197
f 197 195 199
f 196 200 199
f 199 195 196
f 155 156 185
f 185 201 155
f 178 154 155
f 155 201 178
f 202 182 178
f 178 201 202
f 185 186 202
f 202 201 185
f 161 162 191
f 191 203 161
f 184 160 161
f 161 203 184
f 204 188 184
f 184 203 204
f 191 192 204
f 204 203 191
f 166 148 197
f 197 205 166
f 190 165 166
f 166 205 190
f 206 194 190
f 190 205 206
f 197 198 206
f 206 205 197
f 169 170 179
f 179 207 169
f 196 150 169
f 169 207 196
f 208 200 196
f 196 207 208
f 179 180 208
f 208 207 179
f 206 198 210
f 210 209 206
f 211 194 206
f 206 209 211
f 213 212 211
f 211 209 213
f 210 214 213
f 213 209 210
f 208 180 216
f 216 215 208
f 217 200 208
f 208 215 217
f 219 218 217
f 217 215 219
f 216 220 219
f 219 215 216
f 181 182 222
f 222 221 181
f 216 180 181
f 181 221 216
f 223 220 216
f 216 221 223
f 222 224 223
f 223 221 222
f 187 188 226
f 226 225 187
f 227 186 187
f 187 225 227
f 229 228 227
f 227 225 229
f 226 230 229
f 229 225 226
f 193 194 211
f 211 231 193
f 232 192 193
f 193 231 232
f 234 233 232
f 232 231 234
f 211 212 234
f 234 231 211
f 199 200 217
f 217 235 199
f 210 198 199
f 199 235 210
f 236 214 210
f 210 235 236
f 217 218 236
f 236 235 217
f 202 186 227
f 227 237 202
f 222 182 202
f 202 237 222
f 238 224 222
f 222 237 238
f 227 228 238
f 238 237 227
f 204 192 232
f 232 239 204
f 226 188 204
f 204 239 226
f 240 230 226
f 226 239 240
f 232 233 240
f 240 239 232
f 238 228 242
f 242 241 238
f 243 224 238
f 238 241 243
f 245 244 243
f 243 241 245
f 242 246 245
f 245 241 242
f 240 233 248
f 248 247 240
f 249 230 240
f 240 247 249
f 251 250 249
f 249 247 251
f 248 252 251
f 251 247 248
f 213 214 254
f 254 253 213
f 255 212 213
f 213 253 255
f 257 256 255
f 255 253 257
f 254 258 257
f 257 253 254
f 219 220 260
f 260 259 219
f 261 218 219
f 219 259 261
f 263 262 261
f 261 259 263
f 260 264 263
f 263 259 260
f 223 224 243
f 243 265 223
f 260 220 223
f 223 265 260
f 266 264 260
f 260 265 266
f 243 244 266
f 266 265 243
f 229 230 249
f 249 267 229
f 242 228 229
f 229 267 242
f 268 246 242
f 242 267 268
f 249 250 268
f 268 267 249
f 234 212 255
f 255 269 234
f 248 233 234
f 234 269 248
f 270 252 248
f 248 269 270
f 255 256 270
f 270 269 255
f 236 218 261
f 261 271 236
f 254 214 236
f 236 271 254
f 272 258 254
f 254 271 272
f 261 262 272
f 272 271 261
f 270 256 274
f 274 273 270
f 275 252 270
f 270 273 275
f 277 276 275
f 275 273 277
f 274 278 277
f 277 273 274
f 272 262 280
f 280 279 272
f 281 258 272
f 272 279 281
f 283 282 281
f 281 279 283
f 280 284 283
f 283 279 280
f 245 246 286
f 286 285 245
f 287 244 245
f 245 285 287
f 289 288 287
f 287 285 289
f 286 290 289
f 289 285 286
f 251 252 275
f 275 291 251
f 292 250 251
f 251 291 292
f 294 293 292
f 292 291 294
f 275 276 294
f 294 291 275
f 257 258 281
f 281 295 257
f 274 256 257
f 257 295 274
f 296 278 274
f 274 295 296
f 281 282 296
f 296 295 281
f 263 264 298
f 298 297 263
f 280 262 263
f 263 297 280
f 299 284 280
f 280 297 299
f 298 300 299
f 299 297 298
f 266 244 287
f 287 301 266
f 298 264 266
f 266 301 298
f 302 300 298
f 298 301 302
f 287 288 302
f 302 301 287
f 268 250 292
f 292 303 268
f 286 246 268
f 268 303 286
f 304 290 286
f 286 303 304
f 292 293 304
f 304 303 292
f 302 288 306
f 306 305 302
f 307 300 302
f 302 305 307
f 309 308 307
f 307 305 309
f 306 310 309
f 309 305 306
f 304 293 312
f 312 311 304
f 313 290 304
f 304 311 313
f 315 314 313
f 313 311 315
f 312 316 315
f 315 311 312
f 277 278 318
f 318 317 277
f 319 276 277
f 277 317 319
f 321 320 319
f 319 317 321
f 318 322 321
f 321 317 318
f 283 284 324
f 324 323 283
f 325 282 283
f 283 323 325
f 327 326 325
f 325 323 327
f 324 328 327
f 327 323 324
f 289 290 313
f 313 329 289
f 306 288 289
f 289 329 306
f 330 310 306
f 306 329 330
f 313 314 330
f 330 329 313
f 294 276 319
f 319 331 294
f 312 293 294
f 294 331 312
f 332 316 312
f 312 331 332
f 319 320 332
f 332 331 319
f 296 282 325
f 325 333 296
f 318 278 296
f 296 333 318
f 334 322 318
f 318 333 334
f 325 326 334
f 334 333 325
f 299 300 307
f 307 335 299
f 324 284 299
f 299 335 324
f 336 328 324
f 324 335 336
f 307 308 336
f 336 335 307
f 340 339 338
f 338 337 340
f 342 341 340
f 340 337 342
f 344 343 342
f 342 337 344
f 338 345 344
f 344 337 338
f 349 348 347
f 347 346 349
f 351 350 349
f 349 346 351
f 353 352 351
f 351 346 353
f 347 354 353
f 353 346 347
f 358 357 356
f 356 355 358
f 360 359 358
f 358 355 360
f 362 361 360
f 360 355 362
f 356 363 362
f 362 355 356
f 367 366 365
f 365 364 367
f 369 368 367
f 367 364 369
f 371 370 369
f 369 364 371
f 365 372 371
f 371 364 365
f 374 341 342
f 342 373 374
f 365 366 374
f 374 373 365
f 375 372 365
f 365 373 375
f 342 343 375
f 375 373 342
f 377 350 351
f 351 376 377
f 338 339 377
f 377 376 338
f 378 345 338
f 338 376 378
f 351 352 378
f 378 376 351
f 380 359 360
f 360 379 380
f 347 348 380
f 380 379 347
f 381 354 347
f 347 379 381
f 360 361 381
f 381 379 360
f 383 368 369
f 369 382 383
f 356 357 383
f 383 382 356
f 384 363 356
f 356 382 384
f 369 370 384
f 384 382 369
f 375 343 386
f 386 385 375
f 387 372 375
f 375 385 387
f 389 388 387
f 387 385 389
f 386 390 389
f 389 385 386
f 378 352 392
f 392 391 378
f 393 345 378
f 378 391 393
f 395 394 393
f 393 391 395
f 392 396 395
f 395 391 392
f 381 361 398
f 398 397 381
f 399 354 381
f 381 397 399
f 401 400 399
f 399 397 401
f 398 402 401
f 401 397 398
f 384 370 404
f 404 403 384
f 405 363 384
f 384 403 405
f 407 406 405
f 405 403 407
f 404 408 407
f 407 403 404
f 344 345 393
f 393 409 344
f 386 343 344
f 344 409 386
f 410 390 386
f 386 409 410
f 393 394 410
f 410 409 393
f 353 354 399
f 399 411 353
f 392 352 353
f 353 411 392
f 412 396 392
f 392 411 412
f 399 400 412
f 412 411 399
f 362 363 405
f 405 413 362
f 398 361 362
f 362 413 398
f 414 402 398
f 398 413 414
f 405 406 414
f 414 413 405
f 371 372 387
f 387 415 371
f 404 370 371
f 371 415 404
f 416 408 404
f 404 415 416
f 387 388 416
f 416 415 387
f 412 400 418
f 418 417 412
f 419 396 412
f 412 417 419
f 421 420 419
f 419 417 421
f 418 422 421
f 421 417 418
f 414 406 424
f 424 423 414
f 425 402 414
f 414 423 425
f 427 426 425
f 425 423 427
f 424 428 427
f 427 423 424
f 416 388 430
f 430 429 416
f 431 408 416
f 416 429 431
f 433 432 431
f 431 429 433
f 430 434 433
f 433 429 430
f 389 390 436
f 436 435 389
f 430 388 389
f 389 435 430
f 437 434 430
f 430 435 437
f 436 438 437
f 437 435 436
f 395 396 419
f 419 439 395
f 440 394 395
f 395 439 440
f 442 441 440
f 440 439 442
f 419 420 442
f 442 439 419
f 401 402 425
f 425 443 401
f 418 400 401
f 401 443 418
f 444 422 418
f 418 443 444
f 425 426 444
f 444 443 425
f 407 408 431
f 431 445 407
f 424 406 407
f 407 445 424
f 446 428 424
f 424 445 446
f 431 432 446
f 446 445 431
f 410 394 440
f 440 447 410
f 436 390 410
f 410 447 436
f 448 438 436
f 436 447 448
f 440 441 448
f 448 447 440
f 448 441 450
f 450 449 448
f 451 438 448
f 448 449 451
f 453 452 451
f 451 449 453
f 450 454 453
f 453 449 450
f 421 422 456
f 456 455 421
f 457 420 421
f 421 455 457
f 459 458 457
f 457 455 459
f 456 460 459
f 459 455 456
f 427 428 462
f 462 461 427
f 463 426 427
f 427 461 463
f 465 464 463
f 463 461 465
f 462 466 465
f 465 461 462
f 433 434 468
f 468 467 433
f 469 432 433
f 433 467 469
f 471 470 469
f 469 467 471
f 468 472 471
f 471 467 468
f 437 438 451
f 451 473 437
f 468 434 437
f 437 473 468
f 474 472 468
f 468 473 474
f 451 452 474
f 474 473 451
f 442 420 457
f 457 475 442
f 450 441 442
f 442 475 450
f 476 454 450
f 450 475 476
f 457 458 476
f 476 475 457
f 444 426 463
f 463 477 444
f 456 422 444
f 444 477 456
f 478 460 456
f 456 477 478
f 463 464 478
f 478 477 463
f 446 432 469
f 469 479 446
f 462 428 446
f 446 479 462
f 480 466 462
f 462 479 480
f 469 470 480
f 480 479 469
f 476 458 482
f 482 481 476
f 483 454 476
f 476 481 483
f 485 484 483
f 483 481 485
f 482 486 485
f 485 481 482
f 478 464 488
f 488 487 478
f 489 460 478
f 478 487 489
f 491 490 489
f 489 487 491
f 488 492 491
f 491 487 488
f 480 470 494
f 494 493 480
f 495 466 480
f 480 493 495
f 497 496 495
f 495 493 497
f 494 498 497
f 497 493 494
f 453 454 483
f 483 499 453
f 500 452 453
f 453 499 500
f 502 501 500
f 500 499 502
f 483 484 502
f 502 499 483
f 459 460 489
f 489 503 459
f 482 458 459
f 459 503 482
f 504 486 482
f 482 503 504
f 489 490 504
f 504 503 489
f 465 466 495
f 495 505 465
f 488 464 465
f 465 505 488
f 506 492 488
f 488 505 506
f 495 496 506
f 506 505 495
f 471 472 508
f 508 507 471
f 494 470 471
f 471 507 494
f 509 498 494
f 494 507 509
f 508 510 509
f 509 507 508
f 474 452 500
f 500 511 474
f 508 472 474
f 474 511 508
f 512 510 508
f 508 511 512
f 500 501 512
f 512 511 500
f 340 341 514
f 514 513 340
f 515 339 340
f 340 513 515
f 517 516 515
f 515 513 517
f 514 518 517
f 517 513 514
f 349 350 520
f 520 519 349
f 521 348 349
f 349 519 521
f 523 522 521
f 521 519 523
f 520 524 523
f 523 519 520
f 358 359 526
f 526 525 358
f 527 357 358
f 358 525 527
f 529 528 527
f 527 525 529
f 526 530 529
f 529 525 526
f 367 368 532
f 532 531 367
f 533 366 367
f 367 531 533
f 535 534 533
f 533 531 535
f 532 536 535
f 535 531 532
f 374 366 533
f 533 537 374
f 514 341 374
f 374 537 514
f 538 518 514
f 514 537 538
f 533 534 538
f 538 537 533
f 377 339 515
f 515 539 377
f 520 350 377
f 377 539 520
f 540 524 520
f 520 539 540
f 515 516 540
f 540 539 515
f 380 348 521
f 521 541 380
f 526 359 380
f 380 541 526
f 542 530 526
f 526 541 542
f 521 522 542
f 542 541 521
f 383 357 527
f 527 543 383
f 532 368 383
f 383 543 532
f 544 536 532
f 532 543 544
f 527 528 544
f 544 543 527
f 509 510 546
f 546 545 509
f 547 498 509
f 509 545 547
f 549 548 547
f 547 545 549
f 546 550 549
f 549 545 546
f 512 501 552
f 552 551 512
f 546 510 512
f 512 551 546
f 553 550 546
f 546 551 553
f 552 554 553
f 553 551 552
f 485 486 556
f 556 555 485
f 557 484 485
f 485 555 557
f 559 558 557
f 557 555 559
f 556 560 559
f 559 555 556
f 491 492 562
f 562 561 491
f 563 490 491
f 491 561 563
f 565 564 563
f 563 561 565
f 562 566 565
f 565 561 562
f 497 498 547
f 547 567 497
f 568 496 497
f 497 567 568
f 570 569 568
f 568 567 570
f 547 548 570
f 570 567 547
f 502 484 557
f 557 571 502
f 552 501 502
f 502 571 552
f 572 554 552
f 552 571 572
f 557 558 572
f 572 571 557
f 504 490 563
f 563 573 504
f 556 486 504
f 504 573 556
f 574 560 556
f 556 573 574
f 563 564 574
f 574 573 563
f 506 496 568
f 568 575 506
f 562 492 506
f 506 575 562
f 576 566 562
f 562 575 576
f 568 569 576
f 576 575 568
f 570 548 578
f 578 577 570
f 579 569 570
f 570 577 579
f 581 580 579
f 579 577 581
f 578 582 581
f 581 577 578
f 572 558 584
f 584 583 572
f 585 554 572
f 572 583 585
f 587 586 585
f 585 583 587
f 584 588 587
f 587 583 584
f 574 564 590
f 590 589 574
f 591 560 574
f 574 589 591
f 593 592 591
f 591 589 593
f 590 594 593
f 593 589 590
f 576 569 579
f 579 595 576
f 596 566 576
f 576 595 596
f 598 597 596
f 596 595 598
f 579 580 598
f 598 595 579
f 549 550 600
f 600 599 549
f 578 548 549
f 549 599 578
f 601 582 578
f 578 599 601
f 600 602 601
f 601 599 600
f 553 554 585
f 585 603 553
f 600 550 553
f 553 603 600
f 604 602 600
f 600 603 604
f 585 586 604
f 604 603 585
f 559 560 591
f 591 605 559
f 584 558 559
f 559 605 584
f 606 588 584
f 584 605 606
f 591 592 606
f 606 605 591
f 565 566 596
f 596 607 565
f 590 564 565
f 565 607 590
f 608 594 590
f 590 607 608
f 596 597 608
f 608 607 596
f 604 586 610
f 610 609 604
f 611 602 604
f 604 609 611
f 613 612 611
f 611 609 613
f 610 614 613
f 613 609 610
f 606 592 616
f 616 615 606
f 617 588 606
f 606 615 617
f 619 618 617
f 617 615 619
f 616 620 619
f 619 615 616
f 608 597 622
f 622 621 608
f 623 594 608
f 608 621 623
f 625 624 623
f 623 621 625
f 622 626 625
f 625 621 622
f 581 582 628
f 628 627 581
f 629 580 581
f 581 627 629
f 631 630 629
f 629 627 631
f 628 632 631
f 631 627 628
f 587 588 617
f 617 633 587
f 610 586 587
f 587 633 610
f 634 614 610
f 610 633 634
f 617 618 634
f 634 633 617
f 593 594 623
f 623 635 593
f 616 592 593
f 593 635 616
f 636 620 616
f 616 635 636
f 623 624 636
f 636 635 623
f 598 580 629
f 629 637 598
f 622 597 598
f 598 637 622
f 638 626 622
f 622 637 638
f 629 630 638
f 638 637 629
f 601 602 611
f 611 639 601
f 628 582 601
f 601 639 628
f 611 612 640
f 640 639 611
f 642 641 4
f 4 5 642
f 644 643 44
f 44 21 644
f 641 645 3
f 3 4 641
f 643 646 29
f 29 44 643
f 648 647 35
f 35 36 648
f 650 649 22
f 22 12 650
f 647 642 5
f 5 35 647
f 652 651 13
f 13 14 652
f 649 644 21
f 21 22 649
f 654 653 47
f 47 27 654
f 651 650 12
f 12 13 651
f 653 648 36
f 36 47 653
f 645 655 41
f 41 3 645
f 646 656 28
f 28 29 646
f 655 652 14
f 14 41 655
f 656 654 27
f 27 28 656
f 660 659 658
f 658 657 660
f 668 667 666
f 666 665 668
f 672 671 670
f 670 669 672
f 674 668 665
f 665 673 674
f 676 672 669
f 669 675 676
f 680 679 678
f 678 677 680
f 684 683 682
f 682 681 684
f 671 684 681
f 681 670 671
f 688 664 661
f 661 687 688
f 683 686 685
f 685 682 683
f 692 691 690
f 690 689 692
f 696 695 694
f 694 693 696
f 700 699 698
f 698 697 700
f 699 706 705
f 705 698 699
f 716 715 714
f 714 713 716
f 715 700 697
f 697 714 715
f 691 718 717
f 717 690 691
f 695 720 719
f 719 694 695
f 718 710 707
f 707 717 718
f 720 716 713
f 713 719 720
f 712 696 693
f 693 711 712
f 717 707 728
f 728 727 717
f 694 719 725
f 725 729 694
f 690 717 727
f 727 730 690
f 708 701 734
f 734 733 708
f 702 711 721
f 721 735 702
f 698 705 723
f 723 736 698
f 734 735 640
f 640 612 734
f 736 723 620
f 620 636 736
f 733 734 612
f 612 613 733
f 730 727 634
f 634 618 730
f 729 725 638
f 638 630 729
f 727 728 614
f 614 634 727
f 682 685 703
f 703 704 682
f 687 661 706
f 706 699 687
f 670 681 709
f 709 710 670
f 677 678 700
f 700 715 677
f 675 669 718
f 718 691 675
f 673 665 720
f 720 695 673
f 669 670 710
f 710 718 669
f 665 666 716
f 716 720 665
f 657 658 696
f 696 712 657