# https://github.com/mikedh/trimesh
v 0.02336499 0.02880772 0.00000000
v 0.00892058 0.02880772 0.00000000
v 0.00892058 0.02880772 0.01076072
v 0.02336497 0.02880772 0.01076072
v 0.00892058 0.03333532 0.00000000
v -0.00552382 0.03333532 0.00000000
v -0.00552382 0.03333532 0.01076072
v 0.00892058 0.03333532 0.01076072
v -0.00552382 0.02880772 0.00000000
v -0.01996823 0.02880772 0.00000000
v -0.01996822 0.02880772 0.01076072
v -0.00552382 0.02880772 0.01076072
v 0.00807802 0.02545880 0.01963837
v 0.02083731 0.02545880 0.01963837
v -0.00468126 0.02945819 0.01963837
v 0.00807802 0.02945819 0.01963837
v -0.01744055 0.02545880 0.01963837
v -0.00468126 0.02545880 0.01963837
v 0.00718209 0.02189770 0.02647395
v 0.01814953 0.02189770 0.02647395
v -0.00378533 0.02533543 0.02647395
v 0.00718209 0.02533543 0.02647395
v -0.01475277 0.02189770 0.02647395
v -0.00378533 0.02189770 0.02647395
v 0.01669770 0.02363117 0.21475189
v 0.00669816 0.02363117 0.21475189
v 0.00669816 0.01453249 0.21475189
v 0.01669770 0.01453249 0.21475189
v 0.00669816 0.02734232 0.21732339
v -0.00330140 0.02734232 0.21732339
v -0.00330140 0.01680859 0.21954716
v 0.00669816 0.01680859 0.21954716
v -0.00330140 0.02363117 0.21475189
v -0.01330094 0.02363117 0.21475189
v -0.01330094 0.01453249 0.21475189
v -0.00330140 0.01453249 0.21475189
v 0.00669816 -0.01482273 0.21475189
v 0.01669770 -0.01482273 0.21475189
v -0.00330140 -0.01717655 0.21954717
v 0.00669816 -0.01717655 0.21954717
v -0.01330094 -0.01482273 0.21475189
v -0.00330140 -0.01482273 0.21475189
v 0.00669816 -0.02342848 0.21475189
v 0.01669770 -0.02342848 0.21475189
v -0.00330140 -0.02713962 0.21732339
v 0.00669816 -0.02713962 0.21732339
v -0.01330094 -0.02342848 0.21475189
v -0.00330140 -0.02342848 0.21475189
v 0.01814953 -0.02169501 0.02647395
v 0.00718209 -0.02169501 0.02647395
v 0.00807801 -0.02525611 0.01963837
v 0.02083731 -0.02525611 0.01963837
v 0.00718209 -0.02513275 0.02647395
v -0.00378533 -0.02513275 0.02647395
v -0.00468126 -0.02925551 0.01963837
v 0.00807801 -0.02925551 0.01963837
v -0.00378533 -0.02169501 0.02647395
v -0.01475277 -0.02169501 0.02647395
v -0.01744055 -0.02525611 0.01963837
v -0.00468126 -0.02525611 0.01963837
v 0.00892058 -0.02860504 0.01076073
v 0.02336497 -0.02860504 0.01076073
v -0.00552382 -0.03313264 0.01076073
v 0.00892058 -0.03313264 0.01076073
v -0.01996822 -0.02860504 0.01076073
v -0.00552382 -0.02860504 0.01076073
v 0.00892058 -0.02860504 0.00000000
v 0.02336499 -0.02860504 0.00000000
v -0.00552382 -0.03313264 0.00000000
v 0.00892058 -0.03313264 0.00000000
v -0.01996823 -0.02860504 0.00000000
v -0.00552382 -0.02860504 0.00000000
v 0.00790632 -0.01520447 0.00151120
v 0.02336499 -0.01654825 0.00000000
v -0.00450957 -0.01520447 0.00151120
v -0.01996823 -0.01654825 0.00000000
v 0.00790632 0.01491421 0.00151119
v 0.02336499 0.01625801 0.00000000
v -0.00450957 0.01491421 0.00151119
v -0.01996823 0.01625801 0.00000000
v -0.01996822 -0.01654825 0.01076073
v -0.01996822 0.01625801 0.01076072
v -0.01744055 -0.01543194 0.01963837
v -0.01744055 0.01514170 0.01963837
v -0.01475277 -0.01424491 0.02647395
v -0.01475277 0.01395467 0.02647395
v 0.02336497 -0.01654825 0.01076073
v 0.02336497 0.01625801 0.01076072
v 0.02083731 -0.01543194 0.01963837
v 0.02083731 0.01514170 0.01963837
v 0.01814953 -0.01424491 0.02647395
v 0.01814953 0.01395467 0.02647395
v 0.01663828 0.01989544 0.03214800
v 0.00667835 0.01989544 0.03214800
v 0.00658945 0.01954212 0.03443704
v 0.01637161 0.01954212 0.03443704
v 0.01663828 0.01328725 0.03214800
v 0.01637161 0.01316948 0.03443704
v 0.00667835 0.02301737 0.03214800
v -0.00328159 0.02301737 0.03214800
v -0.00319269 0.02260833 0.03443704
v 0.00658945 0.02260833 0.03443704
v -0.00328159 0.01989544 0.03214800
v -0.01324152 0.01989544 0.03214800
v -0.01297485 0.01954212 0.03443704
v -0.00319269 0.01954212 0.03443704
v -0.01324152 0.01328725 0.03214800
v -0.01297485 0.01316948 0.03443704
v 0.01663828 -0.01357750 0.03214801
v 0.01637161 -0.01345972 0.03443705
v -0.01324153 -0.01357750 0.03214801
v -0.01297485 -0.01345972 0.03443705
v 0.00667835 -0.01969276 0.03214801
v 0.01663828 -0.01969276 0.03214801
v 0.01637161 -0.01933944 0.03443705
v 0.00658945 -0.01933944 0.03443705
v -0.00328159 -0.02281469 0.03214801
v 0.00667835 -0.02281469 0.03214801
v 0.00658945 -0.02240565 0.03443705
v -0.00319269 -0.02240565 0.03443705
v -0.01324153 -0.01969276 0.03214801
v -0.01297485 -0.01933944 0.03443705
v -0.00328159 -0.01969276 0.03214801
v -0.00319269 -0.01933944 0.03443705
v 0.01375237 0.01889072 0.14653991
v 0.00571638 0.01889072 0.14653991
v 0.00570636 0.01896358 0.15096599
v 0.01372230 0.01896358 0.15096599
v 0.01375237 0.01295235 0.14653991
v 0.01372230 0.01447996 0.15096599
v 0.00571638 0.02185419 0.14653991
v -0.00231962 0.02185419 0.14653991
v -0.00230960 0.02193855 0.15096599
v 0.00570636 0.02193855 0.15096599
v -0.00231962 0.01889072 0.14653991
v -0.01035562 0.01889072 0.14653991
v -0.01032554 0.01896358 0.15096599
v -0.00230960 0.01896358 0.15096599
v -0.01035562 0.01295235 0.14653991
v -0.01032554 0.01447996 0.15096599
v 0.01375237 -0.01324258 0.14653991
v 0.01372230 -0.01477019 0.15096599
v -0.01035562 -0.01324258 0.14653991
v -0.01032554 -0.01477019 0.15096599
v 0.00571638 -0.01868803 0.14653991
v 0.01375237 -0.01868803 0.14653991
v 0.01372230 -0.01876089 0.15096599
v 0.00570636 -0.01876089 0.15096599
v -0.00231962 -0.02165150 0.14653991
v 0.00571638 -0.02165150 0.14653991
v 0.00570636 -0.02173586 0.15096599
v -0.00230960 -0.02173586 0.15096599
v -0.01035562 -0.01868803 0.14653991
v -0.01032554 -0.01876089 0.15096599
v -0.00231962 -0.01868803 0.14653991
v -0.00230960 -0.01876089 0.15096599
v 0.00627574 0.02164318 0.15504960
v 0.01543045 0.02164318 0.15504960
v 0.01543045 0.01885292 0.15504960
v -0.00287898 0.02504077 0.15504960
v 0.00627574 0.02504077 0.15504960
v -0.01203369 0.02164318 0.15504960
v -0.00287898 0.02164318 0.15504960
v -0.01203369 0.01885292 0.15504960
v 0.01543045 -0.01914316 0.15504960
v -0.01203369 -0.01914316 0.15504960
v 0.01543045 -0.02144049 0.15504960
v 0.00627574 -0.02144049 0.15504960
v 0.00627574 -0.02483808 0.15504960
v -0.00287898 -0.02483808 0.15504960
v -0.01203369 -0.02144049 0.15504960
v -0.00287898 -0.02144049 0.15504960
v 0.01914385 0.02746851 0.19571485
v 0.00751355 0.02746851 0.19571485
v 0.00757766 0.02777026 0.19782135
v 0.01933620 0.02777026 0.19782135
v 0.01914385 0.02467644 0.19571485
v 0.01933620 0.02483292 0.19782135
v 0.00751355 0.03178486 0.19571485
v -0.00411677 0.03178486 0.19571485
v -0.00418089 0.03213421 0.19782135
v 0.00757766 0.03213421 0.19782135
v -0.00411677 0.02746851 0.19571485
v -0.01574709 0.02746851 0.19571485
v -0.01593945 0.02777026 0.19782135
v -0.00418089 0.02777026 0.19782135
v -0.01574709 0.02467644 0.19571485
v -0.01593945 0.02483292 0.19782135
v 0.01914385 -0.02496669 0.19571485
v 0.01933620 -0.02512315 0.19782136
v -0.01574709 -0.02496669 0.19571485
v -0.01593945 -0.02512315 0.19782136
v 0.00751355 -0.02726581 0.19571485
v 0.01914385 -0.02726581 0.19571485
v 0.01933620 -0.02756756 0.19782136
v 0.00757766 -0.02756756 0.19782136
v -0.00411677 -0.03158217 0.19571485
v 0.00751355 -0.03158217 0.19571485
v 0.00757766 -0.03193151 0.19782136
v -0.00418089 -0.03193151 0.19782136
v -0.01574709 -0.02726581 0.19571485
v -0.01593945 -0.02756756 0.19782136
v -0.00411677 -0.02726581 0.19571485
v -0.00418089 -0.02756756 0.19782136
v 0.00806544 0.03006584 0.19932325
v 0.02079955 0.03006584 0.19932325
v 0.02079955 0.02602322 0.19932325
v -0.00466869 0.03479186 0.19932325
v 0.00806544 0.03479186 0.19932325
v -0.01740280 0.03006584 0.19932325
v -0.00466869 0.03006584 0.19932325
v -0.01740280 0.02602322 0.19932325
v 0.02079955 -0.02631345 0.19932326
v -0.01740280 -0.02631345 0.19932326
v 0.02079955 -0.02986314 0.19932326
v 0.00806544 -0.02986314 0.19932326
v 0.00806544 -0.03458917 0.19932326
v -0.00466869 -0.03458917 0.19932326
v -0.01740280 -0.02986314 0.19932326
v -0.00466869 -0.02986314 0.19932326
v 0.00806544 0.03006584 0.20062982
v 0.02079955 0.03006584 0.20062982
v 0.02079955 0.02602322 0.20062982
v -0.00466869 0.03479186 0.20062982
v 0.00806544 0.03479186 0.20062982
v -0.01740280 0.03006584 0.20062982
v -0.00466869 0.03006584 0.20062982
v -0.01740280 0.02602322 0.20062982
v 0.02079955 -0.02631345 0.20062982
v -0.01740280 -0.02631345 0.20062982
v 0.02079955 -0.02986314 0.20062982
v 0.00806544 -0.02986314 0.20062982
v 0.00806544 -0.03458917 0.20062982
v -0.00466869 -0.03458917 0.20062982
v -0.01740280 -0.02986314 0.20062982
v -0.00466869 -0.02986314 0.20062982
v 0.00781559 0.02889000 0.20193920
v 0.02005000 0.02889000 0.20193920
v 0.02005000 0.02541351 0.20193920
v -0.00441884 0.03343057 0.20193920
v 0.00781559 0.03343057 0.20193920
v -0.01665325 0.02889000 0.20193920
v -0.00441884 0.02889000 0.20193920
v -0.01665325 0.02541351 0.20193920
v 0.02005000 -0.02570376 0.20193920
v -0.01665325 -0.02570376 0.20193920
v 0.02005000 -0.02868730 0.20193920
v 0.00781559 -0.02868730 0.20193920
v 0.00781559 -0.03322788 0.20193920
v -0.00441884 -0.03322788 0.20193920
v -0.01665325 -0.02868730 0.20193920
v -0.00441884 -0.02868730 0.20193920
v 0.00823566 0.03086699 0.20872939
v 0.02131024 0.03086699 0.20872939
v 0.02131024 0.01694444 0.20872939
v -0.00483891 0.03571937 0.20872939
v 0.00823566 0.03571937 0.20872939
v -0.01791348 0.03086699 0.20872939
v -0.00483891 0.03086699 0.20872939
v -0.01791348 0.01694444 0.20872939
v 0.02131024 -0.01723466 0.20872939
v -0.01791348 -0.01723466 0.20872939
v 0.02131024 -0.03066430 0.20872939
v 0.00823566 -0.03066430 0.20872939
v 0.00823566 -0.03551667 0.20872939
v -0.00483891 -0.03551667 0.20872939
v -0.01791348 -0.03066430 0.20872939
v -0.00483891 -0.03066430 0.20872939
v 0.00627765 0.01830273 0.03122303
v 0.01543616 0.01830273 0.03122303
v -0.00288089 0.02117346 0.03122303
v 0.00627765 0.02117346 0.03122303
v -0.01203941 0.01830273 0.03122303
v -0.00288089 0.01830273 0.03122303
v -0.01203941 0.01275635 0.03122303
v -0.01203941 -0.01304659 0.03122304
v -0.01203941 -0.01810005 0.03122304
v -0.00288089 -0.01810005 0.03122304
v 0.00627764 -0.02097078 0.03122304
v -0.00288089 -0.02097078 0.03122304
v 0.01543616 -0.01810005 0.03122304
v 0.00627764 -0.01810005 0.03122304
v 0.01543616 -0.01304659 0.03122304
v 0.01543616 0.01275635 0.03122303
v 0.00596715 0.01706861 0.03583278
v 0.01450469 0.01706861 0.03583278
v 0.01450469 0.01234497 0.03583278
v -0.00257040 0.01974471 0.03583278
v 0.00596715 0.01974471 0.03583278
v -0.01110793 0.01706861 0.03583278
v -0.00257040 0.01706861 0.03583278
v -0.01110793 0.01234497 0.03583278
v 0.01450469 -0.01263522 0.03583278
v -0.01110793 -0.01263522 0.03583278
v 0.01450469 -0.01686593 0.03583278
v 0.00596715 -0.01686593 0.03583278
v 0.00596715 -0.01954203 0.03583278
v -0.00257040 -0.01954203 0.03583278
v -0.01110793 -0.01686593 0.03583278
v -0.00257040 -0.01686593 0.03583278
v 0.01447675 0.01713630 0.03994522
v 0.00595783 0.01713630 0.03994522
v 0.00595783 0.01982307 0.03994522
v -0.00256108 0.01982307 0.03994522
v -0.00256108 0.01713630 0.03994522
v -0.01107999 0.01713630 0.03994522
v -0.01107999 0.01236754 0.03994522
v 0.00856887 0.01236754 0.03994522
v 0.00856887 -0.01265778 0.03994522
v 0.00929325 -0.01324258 0.14653991
v 0.00929325 0.01295235 0.14653991
v -0.01107999 -0.01265778 0.03994522
v -0.01107999 -0.01693362 0.03994522
v -0.00256108 -0.01693362 0.03994522
v -0.00256108 -0.01962038 0.03994522
v 0.00595783 -0.01962038 0.03994522
v 0.00595783 -0.01693362 0.03994522
v 0.01447675 -0.01693362 0.03994522
v 0.01447675 -0.01265778 0.03994522
v 0.01447675 0.01236754 0.03994522
v -0.00799116 -0.00941288 0.15268142
v -0.00799116 0.00912264 0.15268142
v 0.00591235 0.00912264 0.15268142
v 0.00591235 -0.00941288 0.15268142
v 0.01563286 0.02196072 0.15726623
v 0.00634320 0.02196072 0.15726623
v 0.00634320 0.02540839 0.15726623
v -0.00294644 0.02540839 0.15726623
v -0.00294644 0.02196072 0.15726623
v -0.01223610 0.02196072 0.15726623
v -0.01223610 0.01899641 0.15726623
v -0.00825451 0.01899641 0.15726623
v -0.00825451 -0.01928663 0.15726623
v -0.01176550 -0.02496669 0.19571485
v -0.01176550 0.02467644 0.19571485
v -0.01223610 -0.01928663 0.15726623
v -0.01223610 -0.02175803 0.15726623
v -0.00294644 -0.02175803 0.15726623
v -0.00294644 -0.02520570 0.15726623
v 0.00634320 -0.02520570 0.15726623
v 0.00634320 -0.02175803 0.15726623
v 0.01563286 -0.02175803 0.15726623
v 0.01563286 -0.01928663 0.15726623
v 0.01563286 0.01899641 0.15726623
v -0.00896610 0.01109993 0.14653991
v -0.00896610 -0.01139015 0.14653991
v 0.00790375 0.01109993 0.14653991
v 0.00790375 -0.01139015 0.14653991
v -0.01283563 -0.00533613 0.19276441
v -0.01260117 -0.01024137 0.19027611
v -0.00899218 -0.01284324 0.19421318
v -0.00928560 -0.00670403 0.19732744
v -0.01223600 -0.01413417 0.18640046
v -0.00853514 -0.01771534 0.18936253
v -0.01177587 -0.01663350 0.18151687
v -0.00795925 -0.02084342 0.18325038
v -0.01126579 -0.01749471 0.17610337
v -0.00732085 -0.02192129 0.17647505
v -0.01075572 -0.01663350 0.17068984
v -0.00668247 -0.02084341 0.16969970
v -0.01029559 -0.01413417 0.16580626
v -0.00610658 -0.01771534 0.16358756
v -0.00993042 -0.01024137 0.16193060
v -0.00564954 -0.01284322 0.15873690
v -0.00969595 -0.00533613 0.15944228
v -0.00535612 -0.00670401 0.15562264
v -0.00961517 0.00010135 0.15858490
v -0.00525500 0.00010135 0.15454953
v -0.00969595 0.00553882 0.15944228
v -0.00535612 0.00690670 0.15562264
v -0.00993042 0.01044404 0.16193060
v -0.00564954 0.01304592 0.15873690
v -0.01029559 0.01433686 0.16580625
v -0.00610658 0.01791801 0.16358755
v -0.01075572 0.01683618 0.17068984
v -0.00668247 0.02104610 0.16969970
v -0.01126579 0.01769740 0.17610336
v -0.00732085 0.02212397 0.17647505
v -0.01177587 0.01683618 0.18151685
v -0.00795925 0.02104610 0.18325038
v -0.01223600 0.01433686 0.18640046
v -0.00853514 0.01791802 0.18936252
v -0.01260117 0.01044404 0.19027609
v -0.00899218 0.01304592 0.19421316
v -0.01283563 0.00553883 0.19276437
v -0.00928560 0.00690671 0.19732742
v -0.01291642 0.00010135 0.19362183
v -0.00938672 0.00010135 0.19840053
v -0.01286809 -0.00438815 0.18215901
v -0.01296985 -0.00225893 0.18323912
v -0.01267055 0.00010135 0.17597098
v -0.01270956 -0.00607792 0.18047672
v -0.01250982 -0.00716282 0.17835684
v -0.01228842 -0.00753664 0.17600695
v -0.01206702 -0.00716282 0.17365715
v -0.01186728 -0.00607792 0.17153728
v -0.01170877 -0.00438815 0.16985498
v -0.01160701 -0.00225893 0.16877487
v -0.01157193 0.00010135 0.16840266
v -0.01160701 0.00246160 0.16877487
v -0.01170877 0.00459084 0.16985498
v -0.01186728 0.00628062 0.17153728
v -0.01206702 0.00736551 0.17365714
v -0.01228842 0.00773934 0.17600695
v -0.01250982 0.00736549 0.17835684
v -0.01270956 0.00628062 0.18047672
v -0.01286807 0.00459084 0.18215901
v -0.01296985 0.00246161 0.18323912
v -0.01300491 0.00010135 0.18361127
v -0.01058240 0.01351353 0.03879227
v -0.01225205 0.01351353 0.03880941
v -0.01158718 0.01410804 0.14739081
v -0.00991753 0.01410804 0.14737369
v -0.01158718 -0.01441892 0.14739081
v -0.00991753 -0.01441892 0.14737369
v -0.01225205 -0.01407075 0.03880941
v -0.01058240 -0.01407075 0.03879227
v -0.01081225 0.01174811 0.04053752
v -0.01081225 -0.01208624 0.04053752
v -0.01017887 -0.01264943 0.14604738
v -0.01017887 0.01225644 0.14604738
v -0.01223418 -0.01208624 0.04055211
v -0.01223418 0.01174811 0.04055211
v -0.01160082 -0.01264943 0.14606195
v -0.01160082 0.01225644 0.14606195
v -0.01156712 0.01948121 0.15679715
v -0.01322535 0.01948121 0.15660204
v -0.01700771 0.02546662 0.19650413
v -0.01534950 0.02546662 0.19669922
v -0.01700771 -0.02579229 0.19650414
v -0.01534950 -0.02579229 0.19669922
v -0.01327561 -0.01993405 0.15660450
v -0.01161738 -0.01993405 0.15679957
v -0.01198895 0.01665653 0.15846999
v -0.01203920 -0.01675884 0.15847244
v -0.01541161 -0.02296109 0.19491792
v -0.01541161 0.02250405 0.19491792
v -0.01345141 -0.01675884 0.15830632
v -0.01340115 0.01665653 0.15830388
v -0.01682382 -0.02296109 0.19475187
v -0.01682382 0.02250405 0.19475186
v 0.00138308 -0.00032291 0.06452689
v 0.00143017 -0.00070564 0.06452689
v 0.00143017 -0.00070563 0.15395453
v 0.00138308 -0.00032291 0.15395453
v 0.00150350 -0.00100936 0.06452689
v 0.00150350 -0.00100936 0.15395453
v 0.00159593 -0.00120438 0.06452689
v 0.00159593 -0.00120437 0.15395453
v 0.00169838 -0.00127157 0.06452689
v 0.00169838 -0.00127157 0.15395453
v 0.00180083 -0.00120438 0.06452689
v 0.00180083 -0.00120437 0.15395453
v 0.00189325 -0.00100936 0.06452689
v 0.00189325 -0.00100936 0.15395453
v 0.00196659 -0.00070564 0.06452689
v 0.00196659 -0.00070563 0.15395453
v 0.00201368 -0.00032291 0.06452689
v 0.00201368 -0.00032291 0.15395453
v 0.00202990 0.00010134 0.06452689
v 0.00202990 0.00010135 0.15395453
v 0.00201368 0.00052560 0.06452689
v 0.00201368 0.00052560 0.15395453
v 0.00196659 0.00090832 0.06452689
v 0.00196659 0.00090832 0.15395453
v 0.00189325 0.00121204 0.06452689
v 0.00189325 0.00121205 0.15395453
v 0.00180083 0.00140706 0.06452689
v 0.00180083 0.00140706 0.15395453
v 0.00169838 0.00147426 0.06452689
v 0.00169838 0.00147426 0.15395453
v 0.00159593 0.00140706 0.06452689
v 0.00159593 0.00140706 0.15395453
v 0.00150350 0.00121204 0.06452689
v 0.00150350 0.00121205 0.15395453
v 0.00143017 0.00090832 0.06452689
v 0.00143017 0.00090832 0.15395453
v 0.00138308 0.00052560 0.06452689
v 0.00138308 0.00052560 0.15395453
v 0.00136685 0.00010134 0.06452689
v 0.00136685 0.00010135 0.15395453
v -0.00058428 -0.00017715 0.06865032
v -0.00058428 -0.00042838 0.06847920
v -0.00047368 -0.00094506 0.06942987
v -0.00047368 -0.00044879 0.06976790
v -0.00058428 -0.00062777 0.06821266
v -0.00047368 -0.00133893 0.06890336
v -0.00058428 -0.00075578 0.06787682
v -0.00047368 -0.00159179 0.06823994
v -0.00058428 -0.00079988 0.06750453
v -0.00047368 -0.00167892 0.06750453
v -0.00058428 -0.00075578 0.06713223
v -0.00047368 -0.00159179 0.06676912
v -0.00058428 -0.00062777 0.06679638
v -0.00047368 -0.00133893 0.06610568
v -0.00058428 -0.00042838 0.06652985
v -0.00047368 -0.00094506 0.06557919
v -0.00058428 -0.00017715 0.06635873
v -0.00047368 -0.00044879 0.06524116
v -0.00058428 0.00010134 0.06629977
v -0.00047368 0.00010134 0.06512467
v -0.00058428 0.00037983 0.06635873
v -0.00047368 0.00065147 0.06524116
v -0.00058428 0.00063107 0.06652985
v -0.00047368 0.00114775 0.06557919
v -0.00058428 0.00083046 0.06679638
v -0.00047368 0.00154161 0.06610568
v -0.00058428 0.00095847 0.06713223
v -0.00047368 0.00179447 0.06676912
v -0.00058428 0.00100257 0.06750453
v -0.00047368 0.00188160 0.06750453
v -0.00058428 0.00095847 0.06787682
v -0.00047368 0.00179447 0.06823994
v -0.00058428 0.00083046 0.06821266
v -0.00047368 0.00154161 0.06890336
v -0.00058428 0.00063107 0.06847920
v -0.00047368 0.00114775 0.06942987
v -0.00058428 0.00037983 0.06865031
v -0.00047368 0.00065147 0.06976790
v -0.00058428 0.00010134 0.06870928
v -0.00047368 0.00010134 0.06988437
v -0.00034836 -0.00143599 0.07033314
v -0.00034037 -0.00070688 0.07082975
v -0.00035816 -0.00201461 0.06955963
v -0.00036601 -0.00238612 0.06858496
v -0.00036898 -0.00251412 0.06750453
v -0.00036601 -0.00238612 0.06642409
v -0.00035816 -0.00201461 0.06544943
v -0.00034836 -0.00143599 0.06467592
v -0.00034037 -0.00070688 0.06417931
v -0.00033731 0.00010134 0.06400818
v -0.00034037 0.00090956 0.06417931
v -0.00034836 0.00163868 0.06467592
v -0.00035816 0.00221729 0.06544943
v -0.00036601 0.00258879 0.06642409
v -0.00036898 0.00271680 0.06750453
v -0.00036601 0.00258879 0.06858496
v -0.00035816 0.00221729 0.06955963
v -0.00034836 0.00163868 0.07033314
v -0.00034037 0.00090956 0.07082973
v -0.00033731 0.00010134 0.07100086
v -0.00024085 -0.00188906 0.07116675
v -0.00021540 -0.00094507 0.07180971
v -0.00027118 -0.00263821 0.07016527
v -0.00029484 -0.00311919 0.06890336
v -0.00030367 -0.00328492 0.06750453
v -0.00029484 -0.00311919 0.06610568
v -0.00027118 -0.00263821 0.06484378
v -0.00024085 -0.00188906 0.06384231
v -0.00021540 -0.00094507 0.06319933
v -0.00020545 0.00010134 0.06297779
v -0.00021540 0.00114775 0.06319933
v -0.00024084 0.00209174 0.06384231
v -0.00027118 0.00284088 0.06484378
v -0.00029484 0.00332187 0.06610568
v -0.00030367 0.00348760 0.06750453
v -0.00029484 0.00332187 0.06890336
v -0.00027118 0.00284088 0.07016527
v -0.00024084 0.00209174 0.07116675
v -0.00021540 0.00114775 0.07180971
v -0.00020545 0.00010134 0.07203127
v -0.00010297 -0.00229312 0.07191016
v -0.00006232 -0.00115750 0.07268369
v -0.00014920 -0.00319434 0.07070540
v -0.00018349 -0.00377296 0.06918732
v -0.00019587 -0.00397235 0.06750453
v -0.00018349 -0.00377296 0.06582171
v -0.00014920 -0.00319434 0.06430363
v -0.00010297 -0.00229312 0.06309887
v -0.00006232 -0.00115750 0.06232538
v -0.00004598 0.00010134 0.06205885
v -0.00006232 0.00136018 0.06232538
v -0.00010297 0.00249580 0.06309887
v -0.00014920 0.00339703 0.06430363
v -0.00018349 0.00397564 0.06582171
v -0.00019587 0.00417503 0.06750453
v -0.00018349 0.00397564 0.06918732
v -0.00014920 0.00339703 0.07070540
v -0.00010297 0.00249580 0.07191016
v -0.00006232 0.00136018 0.07268367
v -0.00004598 0.00010134 0.07295021
v 0.00010901 -0.00263821 0.07254512
v 0.00015181 -0.00133893 0.07343010
v 0.00005945 -0.00366932 0.07116675
v 0.00002569 -0.00433134 0.06942987
v 0.00001464 -0.00455946 0.06750453
v 0.00002569 -0.00433134 0.06557919
v 0.00005945 -0.00366932 0.06384231
v 0.00010901 -0.00263821 0.06246392
v 0.00015181 -0.00133893 0.06157894
v 0.00017089 0.00010134 0.06127399
v 0.00015181 0.00154161 0.06157894
v 0.00010901 0.00284090 0.06246392
v 0.00005945 0.00387201 0.06384231
v 0.00002569 0.00453403 0.06557919
v 0.00001464 0.00476214 0.06750453
v 0.00002569 0.00453403 0.06942987
v 0.00005945 0.00387201 0.07116675
v 0.00010901 0.00284088 0.07254512
v 0.00015181 0.00154161 0.07343010
v 0.00017089 0.00010134 0.07373505
v 0.00040749 -0.00291585 0.07305596
v 0.00044340 -0.00148488 0.07403064
v 0.00036991 -0.00405145 0.07153788
v 0.00034847 -0.00478057 0.06962499
v 0.00034272 -0.00503180 0.06750453
v 0.00034847 -0.00478057 0.06538407
v 0.00036991 -0.00405145 0.06347116
v 0.00040749 -0.00291585 0.06195308
v 0.00044340 -0.00148488 0.06097841
v 0.00046082 0.00010134 0.06064257
v 0.00044340 0.00168756 0.06097841
v 0.00040749 0.00311853 0.06195308
v 0.00036991 0.00425414 0.06347116
v 0.00034847 0.00498325 0.06538407
v 0.00034272 0.00523448 0.06750453
v 0.00034847 0.00498325 0.06962499
v 0.00036991 0.00425414 0.07153788
v 0.00040749 0.00311854 0.07305596
v 0.00044340 0.00168756 0.07403064
v 0.00046082 0.00010134 0.07436649
v 0.00078706 -0.00311919 0.07343010
v 0.00081008 -0.00159179 0.07447048
v 0.00076923 -0.00433134 0.07180971
v 0.00076550 -0.00510959 0.06976790
v 0.00076550 -0.00537775 0.06750453
v 0.00076550 -0.00510959 0.06524116
v 0.00076923 -0.00433134 0.06319933
v 0.00078706 -0.00311919 0.06157894
v 0.00081008 -0.00159179 0.06053858
v 0.00082266 0.00010134 0.06018009
v 0.00081008 0.00179447 0.06053858
v 0.00078706 0.00332187 0.06157894
v 0.00076923 0.00453403 0.06319933
v 0.00076550 0.00531228 0.06524116
v 0.00076550 0.00558044 0.06750453
v 0.00076550 0.00531228 0.06976790
v 0.00076923 0.00453403 0.07180971
v 0.00078706 0.00332187 0.07343010
v 0.00081008 0.00179447 0.07447048
v 0.00082266 0.00010134 0.07482895
v 0.00122716 -0.00324323 0.07365835
v 0.00123585 -0.00165701 0.07473877
v 0.00122613 -0.00450207 0.07197554
v 0.00122613 -0.00531029 0.06985508
v 0.00122613 -0.00558879 0.06750453
v 0.00122613 -0.00531029 0.06515397
v 0.00122613 -0.00450207 0.06303351
v 0.00122716 -0.00324323 0.06135070
v 0.00123585 -0.00165701 0.06027028
v 0.00124242 0.00010134 0.05989798
v 0.00123585 0.00185969 0.06027028
v 0.00122716 0.00344592 0.06135070
v 0.00122613 0.00470476 0.06303351
v 0.00122613 0.00551298 0.06515397
v 0.00122613 0.00579147 0.06750453
v 0.00122613 0.00551298 0.06985508
v 0.00122613 0.00470476 0.07197554
v 0.00122716 0.00344592 0.07365834
v 0.00123585 0.00185969 0.07473877
v 0.00124242 0.00010134 0.07511106
v 0.00169838 -0.00328492 0.07373507
v 0.00169838 -0.00167892 0.07482895
v 0.00169838 -0.00455946 0.07203127
v 0.00169838 -0.00537775 0.06988437
v 0.00169838 -0.00565972 0.06750453
v 0.00169838 -0.00537775 0.06512467
v 0.00169838 -0.00455946 0.06297779
v 0.00169838 -0.00328492 0.06127399
v 0.00169838 -0.00167892 0.06018009
v 0.00169857 0.00010134 0.05980317
v 0.00169838 0.00188160 0.06018009
v 0.00169838 0.00348760 0.06127399
v 0.00169838 0.00476214 0.06297779
v 0.00169838 0.00558044 0.06512467
v 0.00169838 0.00586241 0.06750453
v 0.00169838 0.00558044 0.06988437
v 0.00169838 0.00476214 0.07203127
v 0.00169838 0.00348760 0.07373504
v 0.00169838 0.00188160 0.07482895
v 0.00169857 0.00010134 0.07520586
v 0.00216977 -0.00324323 0.07365835
v 0.00216269 -0.00165701 0.07473877
v 0.00217063 -0.00450207 0.07197554
v 0.00217063 -0.00531029 0.06985508
v 0.00217063 -0.00558879 0.06750453
v 0.00217063 -0.00531029 0.06515397
v 0.00217063 -0.00450207 0.06303351
v 0.00216977 -0.00324323 0.06135070
v 0.00216269 -0.00165701 0.06027028
v 0.00215732 0.00010134 0.05989798
v 0.00216269 0.00185969 0.06027028
v 0.00216977 0.00344592 0.06135070
v 0.00217063 0.00470476 0.06303351
v 0.00217063 0.00551298 0.06515397
v 0.00217063 0.00579147 0.06750453
v 0.00217063 0.00551298 0.06985508
v 0.00217063 0.00470476 0.07197554
v 0.00216977 0.00344592 0.07365834
v 0.00216269 0.00185969 0.07473877
v 0.00215732 0.00010134 0.07511106
v 0.00261363 -0.00311919 0.07343010
v 0.00259483 -0.00159179 0.07447048
v 0.00262821 -0.00433134 0.07180971
v 0.00263125 -0.00510959 0.06976790
v 0.00263125 -0.00537775 0.06750453
v 0.00263125 -0.00510959 0.06524116
v 0.00262821 -0.00433134 0.06319933
v 0.00261363 -0.00311919 0.06157894
v 0.00259483 -0.00159179 0.06053858
v 0.00258453 0.00010134 0.06018009
v 0.00259483 0.00179447 0.06053858
v 0.00261363 0.00332187 0.06157894
v 0.00262821 0.00453403 0.06319933
v 0.00263125 0.00531228 0.06524116
v 0.00263125 0.00558044 0.06750453
v 0.00263125 0.00531228 0.06976790
v 0.00262821 0.00453403 0.07180971
v 0.00261363 0.00332187 0.07343010
v 0.00259483 0.00179447 0.07447048
v 0.00258453 0.00010134 0.07482895
v 0.00300382 -0.00291585 0.07305596
v 0.00297448 -0.00148488 0.07403064
v 0.00303452 -0.00405145 0.07153788
v 0.00305206 -0.00478057 0.06962499
v 0.00305676 -0.00503180 0.06750453
v 0.00305206 -0.00478057 0.06538407
v 0.00303452 -0.00405145 0.06347116
v 0.00300382 -0.00291585 0.06195308
v 0.00297448 -0.00148488 0.06097841
v 0.00296024 0.00010134 0.06064257
v 0.00297448 0.00168756 0.06097841
v 0.00300382 0.00311853 0.06195308
v 0.00303452 0.00425414 0.06347116
v 0.00305206 0.00498325 0.06538407
v 0.00305676 0.00523448 0.06750453
v 0.00305206 0.00498325 0.06962499
v 0.00303452 0.00425414 0.07153788
v 0.00300382 0.00311854 0.07305596
v 0.00297448 0.00168756 0.07403064
v 0.00296024 0.00010134 0.07436649
v 0.00332157 -0.00263821 0.07254512
v 0.00328660 -0.00133893 0.07343010
v 0.00336206 -0.00366932 0.07116675
v 0.00338965 -0.00433134 0.06942987
v 0.00339869 -0.00455946 0.06750453
v 0.00338965 -0.00433134 0.06557919
v 0.00336206 -0.00366932 0.06384231
v 0.00332157 -0.00263821 0.06246392
v 0.00328660 -0.00133893 0.06157894
v 0.00327100 0.00010134 0.06127399
v 0.00328660 0.00154161 0.06157894
v 0.00332157 0.00284090 0.06246392
v 0.00336206 0.00387201 0.06384231
v 0.00338965 0.00453403 0.06557919
v 0.00339869 0.00476214 0.06750453
v 0.00338965 0.00453403 0.06942987
v 0.00336206 0.00387201 0.07116675
v 0.00332157 0.00284088 0.07254512
v 0.00328660 0.00154161 0.07343010
v 0.00327100 0.00010134 0.07373505
v 0.00356065 -0.00229312 0.07191016
v 0.00352741 -0.00115750 0.07268369
v 0.00359843 -0.00319434 0.07070540
v 0.00362644 -0.00377296 0.06918732
v 0.00363657 -0.00397235 0.06750453
v 0.00362644 -0.00377296 0.06582171
v 0.00359843 -0.00319434 0.06430363
v 0.00356065 -0.00229312 0.06309887
v 0.00352741 -0.00115750 0.06232538
v 0.00351406 0.00010134 0.06205885
v 0.00352741 0.00136018 0.06232538
v 0.00356065 0.00249580 0.06309887
v 0.00359843 0.00339703 0.06430363
v 0.00362644 0.00397564 0.06582171
v 0.00363657 0.00417503 0.06750453
v 0.00362644 0.00397564 0.06918732
v 0.00359843 0.00339703 0.07070540
v 0.00356065 0.00249580 0.07191016
v 0.00352741 0.00136018 0.07268367
v 0.00351406 0.00010134 0.07295021
v 0.00372954 -0.00188906 0.07116675
v 0.00370875 -0.00094507 0.07180971
v 0.00375434 -0.00263821 0.07016527
v 0.00377366 -0.00311919 0.06890336
v 0.00378088 -0.00328492 0.06750453
v 0.00377366 -0.00311919 0.06610568
v 0.00375434 -0.00263821 0.06484378
v 0.00372954 -0.00188906 0.06384231
v 0.00370875 -0.00094507 0.06319933
v 0.00370062 0.00010134 0.06297779
v 0.00370875 0.00114775 0.06319933
v 0.00372954 0.00209174 0.06384231
v 0.00375434 0.00284088 0.06484378
v 0.00377366 0.00332187 0.06610568
v 0.00378088 0.00348760 0.06750453
v 0.00377366 0.00332187 0.06890336
v 0.00375434 0.00284088 0.07016527
v 0.00372954 0.00209174 0.07116675
v 0.00370875 0.00114775 0.07180971
v 0.00370062 0.00010134 0.07203127
v 0.00386264 -0.00143599 0.07033314
v 0.00385612 -0.00070688 0.07082975
v 0.00387065 -0.00201461 0.06955963
v 0.00387705 -0.00238612 0.06858496
v 0.00387950 -0.00251412 0.06750453
v 0.00387705 -0.00238611 0.06642409
v 0.00387065 -0.00201461 0.06544943
v 0.00386264 -0.00143599 0.06467592
v 0.00385612 -0.00070688 0.06417931
v 0.00385360 0.00010134 0.06400818
v 0.00385612 0.00090956 0.06417931
v 0.00386264 0.00163868 0.06467592
v 0.00387065 0.00221729 0.06544943
v 0.00387705 0.00258879 0.06642409
v 0.00387950 0.00271680 0.06750453
v 0.00387705 0.00258879 0.06858496
v 0.00387065 0.00221729 0.06955963
v 0.00386264 0.00163868 0.07033314
v 0.00385612 0.00090956 0.07082973
v 0.00385360 0.00010134 0.07100086
v 0.00399819 -0.00094507 0.06942987
v 0.00399819 -0.00044879 0.06976790
v 0.00399819 -0.00133893 0.06890336
v 0.00399819 -0.00159179 0.06823994
v 0.00399819 -0.00167892 0.06750453
v 0.00399819 -0.00159179 0.06676912
v 0.00399819 -0.00133893 0.06610568
v 0.00399819 -0.00094507 0.06557919
v 0.00399819 -0.00044879 0.06524116
v 0.00399819 0.00010134 0.06512467
v 0.00399819 0.00065147 0.06524116
v 0.00399819 0.00114775 0.06557919
v 0.00399819 0.00154161 0.06610568
v 0.00399819 0.00179447 0.06676912
v 0.00399819 0.00188160 0.06750453
v 0.00399819 0.00179447 0.06823994
v 0.00399819 0.00154161 0.06890336
v 0.00399819 0.00114775 0.06942987
v 0.00399819 0.00065147 0.06976790
v 0.00399819 0.00010134 0.06988437
v 0.00410878 -0.00042838 0.06847920
v 0.00410878 -0.00017715 0.06865032
v 0.00410878 -0.00062777 0.06821266
v 0.00410878 -0.00075578 0.06787682
v 0.00410878 -0.00079988 0.06750453
v 0.00410878 -0.00075578 0.06713223
v 0.00410878 -0.00062777 0.06679638
v 0.00410878 -0.00042838 0.06652985
v 0.00410878 -0.00017715 0.06635873
v 0.00410878 0.00010134 0.06629977
v 0.00410878 0.00037983 0.06635873
v 0.00410878 0.00063107 0.06652985
v 0.00410878 0.00083046 0.06679638
v 0.00410878 0.00095847 0.06713223
v 0.00410878 0.00100257 0.06750453
v 0.00410878 0.00095847 0.06787682
v 0.00410878 0.00083046 0.06821266
v 0.00410878 0.00063107 0.06847920
v 0.00410878 0.00037983 0.06865031
v 0.00410878 0.00010134 0.06870928
v -0.00067074 0.00010134 0.06750453
v 0.00418625 0.00010134 0.06750453
f 4 1 2
f 2 3 4
f 8 5 6
f 6 7 8
f 12 9 10
f 10 11 12
f 14 4 3
f 3 13 14
f 16 8 7
f 7 15 16
f 18 12 11
f 11 17 18
f 20 14 13
f 13 19 20
f 22 16 15
f 15 21 22
f 24 18 17
f 17 23 24
f 28 25 26
f 26 27 28
f 32 29 30
f 30 31 32
f 36 33 34
f 34 35 36
f 38 28 27
f 27 37 38
f 40 32 31
f 31 39 40
f 42 36 35
f 35 41 42
f 44 38 37
f 37 43 44
f 46 40 39
f 39 45 46
f 48 42 41
f 41 47 48
f 52 49 50
f 50 51 52
f 56 53 54
f 54 55 56
f 60 57 58
f 58 59 60
f 62 52 51
f 51 61 62
f 64 56 55
f 55 63 64
f 66 60 59
f 59 65 66
f 68 62 61
f 61 67 68
f 70 64 63
f 63 69 70
f 72 66 65
f 65 71 72
f 74 68 67
f 67 73 74
f 73 67 72
f 72 75 73
f 75 72 71
f 71 76 75
f 78 74 73
f 73 77 78
f 77 73 75
f 75 79 77
f 79 75 76
f 76 80 79
f 1 78 77
f 77 2 1
f 2 77 79
f 79 9 2
f 9 79 80
f 80 10 9
f 81 76 71
f 71 65 81
f 82 80 76
f 76 81 82
f 11 10 80
f 80 82 11
f 83 81 65
f 65 59 83
f 84 82 81
f 81 83 84
f 17 11 82
f 82 84 17
f 85 83 59
f 59 58 85
f 86 84 83
f 83 85 86
f 23 17 84
f 84 86 23
f 62 68 74
f 74 87 62
f 87 74 78
f 78 88 87
f 88 78 1
f 1 4 88
f 52 62 87
f 87 89 52
f 89 87 88
f 88 90 89
f 90 88 4
f 4 14 90
f 49 52 89
f 89 91 49
f 91 89 90
f 90 92 91
f 92 90 14
f 14 20 92
f 96 93 94
f 94 95 96
f 98 97 93
f 93 96 98
f 102 99 100
f 100 101 102
f 106 103 104
f 104 105 106
f 105 104 107
f 107 108 105
f 110 109 97
f 97 98 110
f 108 107 111
f 111 112 108
f 116 113 114
f 114 115 116
f 115 114 109
f 109 110 115
f 120 117 118
f 118 119 120
f 112 111 121
f 121 122 112
f 122 121 123
f 123 124 122
f 128 125 126
f 126 127 128
f 130 129 125
f 125 128 130
f 134 131 132
f 132 133 134
f 138 135 136
f 136 137 138
f 137 136 139
f 139 140 137
f 142 141 129
f 129 130 142
f 140 139 143
f 143 144 140
f 148 145 146
f 146 147 148
f 147 146 141
f 141 142 147
f 152 149 150
f 150 151 152
f 144 143 153
f 153 154 144
f 154 153 155
f 155 156 154
f 158 128 127
f 127 157 158
f 159 130 128
f 128 158 159
f 161 134 133
f 133 160 161
f 163 138 137
f 137 162 163
f 162 137 140
f 140 164 162
f 165 142 130
f 130 159 165
f 164 140 144
f 144 166 164
f 168 148 147
f 147 167 168
f 167 147 142
f 142 165 167
f 170 152 151
f 151 169 170
f 166 144 154
f 154 171 166
f 171 154 156
f 156 172 171
f 176 173 174
f 174 175 176
f 178 177 173
f 173 176 178
f 182 179 180
f 180 181 182
f 186 183 184
f 184 185 186
f 185 184 187
f 187 188 185
f 190 189 177
f 177 178 190
f 188 187 191
f 191 192 188
f 196 193 194
f 194 195 196
f 195 194 189
f 189 190 195
f 200 197 198
f 198 199 200
f 192 191 201
f 201 202 192
f 202 201 203
f 203 204 202
f 206 176 175
f 175 205 206
f 207 178 176
f 176 206 207
f 209 182 181
f 181 208 209
f 211 186 185
f 185 210 211
f 210 185 188
f 188 212 210
f 213 190 178
f 178 207 213
f 212 188 192
f 192 214 212
f 216 196 195
f 195 215 216
f 215 195 190
f 190 213 215
f 218 200 199
f 199 217 218
f 214 192 202
f 202 219 214
f 219 202 204
f 204 220 219
f 222 206 205
f 205 221 222
f 223 207 206
f 206 222 223
f 225 209 208
f 208 224 225
f 227 211 210
f 210 226 227
f 226 210 212
f 212 228 226
f 229 213 207
f 207 223 229
f 228 212 214
f 214 230 228
f 232 216 215
f 215 231 232
f 231 215 213
f 213 229 231
f 234 218 217
f 217 233 234
f 230 214 219
f 219 235 230
f 235 219 220
f 220 236 235
f 238 222 221
f 221 237 238
f 239 223 222
f 222 238 239
f 241 225 224
f 224 240 241
f 243 227 226
f 226 242 243
f 242 226 228
f 228 244 242
f 245 229 223
f 223 239 245
f 244 228 230
f 230 246 244
f 248 232 231
f 231 247 248
f 247 231 229
f 229 245 247
f 250 234 233
f 233 249 250
f 246 230 235
f 235 251 246
f 251 235 236
f 236 252 251
f 254 238 237
f 237 253 254
f 255 239 238
f 238 254 255
f 257 241 240
f 240 256 257
f 259 243 242
f 242 258 259
f 258 242 244
f 244 260 258
f 261 245 239
f 239 255 261
f 260 244 246
f 246 262 260
f 264 248 247
f 247 263 264
f 263 247 245
f 245 261 263
f 266 250 249
f 249 265 266
f 262 246 251
f 251 267 262
f 267 251 252
f 252 268 267
f 25 254 253
f 253 26 25
f 28 255 254
f 254 25 28
f 29 257 256
f 256 30 29
f 33 259 258
f 258 34 33
f 34 258 260
f 260 35 34
f 38 261 255
f 255 28 38
f 35 260 262
f 262 41 35
f 43 264 263
f 263 44 43
f 44 263 261
f 261 38 44
f 45 266 265
f 265 46 45
f 41 262 267
f 267 47 41
f 47 267 268
f 268 48 47
f 270 20 19
f 19 269 270
f 272 22 21
f 21 271 272
f 274 24 23
f 23 273 274
f 273 23 86
f 86 275 273
f 275 86 85
f 85 276 275
f 276 85 58
f 58 277 276
f 277 58 57
f 57 278 277
f 280 54 53
f 53 279 280
f 282 50 49
f 49 281 282
f 281 49 91
f 91 283 281
f 283 91 92
f 92 284 283
f 284 92 20
f 20 270 284
f 93 270 269
f 269 94 93
f 95 285 286
f 286 96 95
f 97 284 270
f 270 93 97
f 96 286 287
f 287 98 96
f 99 272 271
f 271 100 99
f 101 288 289
f 289 102 101
f 103 274 273
f 273 104 103
f 105 290 291
f 291 106 105
f 104 273 275
f 275 107 104
f 108 292 290
f 290 105 108
f 109 283 284
f 284 97 109
f 98 287 293
f 293 110 98
f 107 275 276
f 276 111 107
f 112 294 292
f 292 108 112
f 113 282 281
f 281 114 113
f 115 295 296
f 296 116 115
f 114 281 283
f 283 109 114
f 110 293 295
f 295 115 110
f 117 280 279
f 279 118 117
f 119 297 298
f 298 120 119
f 111 276 277
f 277 121 111
f 122 299 294
f 294 112 122
f 121 277 278
f 278 123 121
f 124 300 299
f 299 122 124
f 125 301 302
f 302 126 125
f 131 303 304
f 304 132 131
f 135 305 306
f 306 136 135
f 136 306 307
f 307 139 136
f 311 308 309
f 309 310 311
f 143 312 313
f 313 153 143
f 153 313 314
f 314 155 153
f 149 315 316
f 316 150 149
f 145 317 318
f 318 146 145
f 146 318 319
f 319 141 146
f 141 319 320
f 320 129 141
f 129 320 301
f 301 125 129
f 301 286 285
f 285 302 301
f 303 289 288
f 288 304 303
f 305 291 290
f 290 306 305
f 306 290 292
f 292 307 306
f 307 292 294
f 294 312 307
f 312 294 299
f 299 313 312
f 313 299 300
f 300 314 313
f 315 298 297
f 297 316 315
f 317 296 295
f 295 318 317
f 318 295 293
f 293 319 318
f 319 293 287
f 287 320 319
f 320 287 286
f 286 301 320
f 308 307 312
f 312 309 308
f 309 312 143
f 143 310 309
f 324 321 322
f 322 323 324
f 311 139 307
f 307 308 311
f 5 2 9
f 9 6 5
f 6 9 12
f 12 7 6
f 8 3 2
f 2 5 8
f 7 12 18
f 18 15 7
f 16 13 3
f 3 8 16
f 15 18 24
f 24 21 15
f 22 19 13
f 13 16 22
f 30 33 36
f 36 31 30
f 32 27 26
f 26 29 32
f 31 36 42
f 42 39 31
f 40 37 27
f 27 32 40
f 39 42 48
f 48 45 39
f 46 43 37
f 37 40 46
f 54 57 60
f 60 55 54
f 56 51 50
f 50 53 56
f 55 60 66
f 66 63 55
f 64 61 51
f 51 56 64
f 63 66 72
f 72 69 63
f 69 72 67
f 67 70 69
f 70 67 61
f 61 64 70
f 100 103 106
f 106 101 100
f 102 95 94
f 94 99 102
f 118 113 116
f 116 119 118
f 120 124 123
f 123 117 120
f 132 135 138
f 138 133 132
f 134 127 126
f 126 131 134
f 150 145 148
f 148 151 150
f 152 156 155
f 155 149 152
f 133 138 163
f 163 160 133
f 161 157 127
f 127 134 161
f 151 148 168
f 168 169 151
f 170 172 156
f 156 152 170
f 181 180 183
f 183 186 181
f 182 175 174
f 174 179 182
f 199 198 193
f 193 196 199
f 200 204 203
f 203 197 200
f 181 186 211
f 211 208 181
f 209 205 175
f 175 182 209
f 199 196 216
f 216 217 199
f 218 220 204
f 204 200 218
f 208 211 227
f 227 224 208
f 225 221 205
f 205 209 225
f 217 216 232
f 232 233 217
f 234 236 220
f 220 218 234
f 224 227 243
f 243 240 224
f 241 237 221
f 221 225 241
f 233 232 248
f 248 249 233
f 250 252 236
f 236 234 250
f 240 243 259
f 259 256 240
f 257 253 237
f 237 241 257
f 249 248 264
f 264 265 249
f 266 268 252
f 252 250 266
f 256 259 33
f 33 30 256
f 29 26 253
f 253 257 29
f 265 264 43
f 43 46 265
f 45 48 268
f 268 266 45
f 21 24 274
f 274 271 21
f 272 269 19
f 19 22 272
f 53 50 282
f 282 279 53
f 280 278 57
f 57 54 280
f 271 274 103
f 103 100 271
f 99 94 269
f 269 272 99
f 289 285 95
f 95 102 289
f 101 106 291
f 291 288 101
f 279 282 113
f 113 118 279
f 117 123 278
f 278 280 117
f 298 300 124
f 124 120 298
f 119 116 296
f 296 297 119
f 304 305 135
f 135 132 304
f 131 126 302
f 302 303 131
f 316 317 145
f 145 150 316
f 149 155 314
f 314 315 149
f 288 291 305
f 305 304 288
f 303 302 285
f 285 289 303
f 297 296 317
f 317 316 297
f 315 314 300
f 300 298 315
f 173 325 326
f 326 174 173
f 327 179 174
f 174 326 327
f 179 327 328
f 328 180 179
f 180 328 329
f 329 183 180
f 183 329 330
f 330 184 183
f 184 330 331
f 331 187 184
f 335 332 333
f 333 334 335
f 191 336 337
f 337 201 191
f 201 337 338
f 338 203 201
f 339 197 203
f 203 338 339
f 197 339 340
f 340 198 197
f 198 340 341
f 341 193 198
f 193 341 342
f 342 194 193
f 194 342 343
f 343 189 194
f 189 343 344
f 344 177 189
f 177 344 325
f 325 173 177
f 325 158 157
f 157 326 325
f 161 327 326
f 326 157 161
f 327 161 160
f 160 328 327
f 160 163 329
f 329 328 160
f 329 163 162
f 162 330 329
f 330 162 164
f 164 331 330
f 331 164 166
f 166 336 331
f 336 166 171
f 171 337 336
f 337 171 172
f 172 338 337
f 170 339 338
f 338 172 170
f 339 170 169
f 169 340 339
f 169 168 341
f 341 340 169
f 341 168 167
f 167 342 341
f 342 167 165
f 165 343 342
f 343 165 159
f 159 344 343
f 344 159 158
f 158 325 344
f 332 331 336
f 336 333 332
f 333 336 191
f 191 334 333
f 334 191 187
f 187 335 334
f 335 187 331
f 331 332 335
f 346 143 139
f 139 345 346
f 345 139 311
f 311 347 345
f 347 311 310
f 310 348 347
f 348 310 143
f 143 346 348
f 321 346 345
f 345 322 321
f 322 345 347
f 347 323 322
f 323 347 348
f 348 324 323
f 324 348 346
f 346 321 324
f 352 349 350
f 350 351 352
f 351 350 353
f 353 354 351
f 354 353 355
f 355 356 354
f 356 355 357
f 357 358 356
f 358 357 359
f 359 360 358
f 360 359 361
f 361 362 360
f 362 361 363
f 363 364 362
f 364 363 365
f 365 366 364
f 366 365 367
f 367 368 366
f 368 367 369
f 369 370 368
f 370 369 371
f 371 372 370
f 372 371 373
f 373 374 372
f 374 373 375
f 375 376 374
f 376 375 377
f 377 378 376
f 378 377 379
f 379 380 378
f 380 379 381
f 381 382 380
f 382 381 383
f 383 384 382
f 384 383 385
f 385 386 384
f 386 385 387
f 387 388 386
f 388 387 349
f 349 352 388
f 389 390 391
f 392 389 391
f 393 392 391
f 394 393 391
f 395 394 391
f 396 395 391
f 397 396 391
f 398 397 391
f 399 398 391
f 400 399 391
f 401 400 391
f 402 401 391
f 403 402 391
f 404 403 391
f 405 404 391
f 406 405 391
f 407 406 391
f 408 407 391
f 409 408 391
f 390 409 391
f 349 390 389
f 389 350 349
f 350 389 392
f 392 353 350
f 353 392 393
f 393 355 353
f 355 393 394
f 394 357 355
f 357 394 395
f 395 359 357
f 359 395 396
f 396 361 359
f 361 396 397
f 397 363 361
f 363 397 398
f 398 365 363
f 365 398 399
f 399 367 365
f 367 399 400
f 400 369 367
f 369 400 401
f 401 371 369
f 371 401 402
f 402 373 371
f 373 402 403
f 403 375 373
f 375 403 404
f 404 377 375
f 377 404 405
f 405 379 377
f 379 405 406
f 406 381 379
f 381 406 407
f 407 383 381
f 383 407 408
f 408 385 383
f 385 408 409
f 409 387 385
f 387 409 390
f 390 349 387
f 413 410 411
f 411 412 413
f 415 413 412
f 412 414 415
f 417 415 414
f 414 416 417
f 410 417 416
f 416 411 410
f 421 418 419
f 419 420 421
f 423 411 416
f 416 422 423
f 422 416 414
f 414 424 422
f 424 414 412
f 412 425 424
f 425 412 411
f 411 423 425
f 418 423 422
f 422 419 418
f 419 422 424
f 424 420 419
f 420 424 425
f 425 421 420
f 421 425 423
f 423 418 421
f 429 426 427
f 427 428 429
f 431 429 428
f 428 430 431
f 433 431 430
f 430 432 433
f 426 433 432
f 432 427 426
f 437 434 435
f 435 436 437
f 439 427 432
f 432 438 439
f 438 432 430
f 430 440 438
f 440 430 428
f 428 441 440
f 441 428 427
f 427 439 441
f 434 439 438
f 438 435 434
f 435 438 440
f 440 436 435
f 436 440 441
f 441 437 436
f 437 441 439
f 439 434 437
f 445 442 443
f 443 444 445
f 444 443 446
f 446 447 444
f 447 446 448
f 448 449 447
f 449 448 450
f 450 451 449
f 451 450 452
f 452 453 451
f 453 452 454
f 454 455 453
f 455 454 456
f 456 457 455
f 457 456 458
f 458 459 457
f 459 458 460
f 460 461 459
f 461 460 462
f 462 463 461
f 463 462 464
f 464 465 463
f 465 464 466
f 466 467 465
f 467 466 468
f 468 469 467
f 469 468 470
f 470 471 469
f 471 470 472
f 472 473 471
f 473 472 474
f 474 475 473
f 475 474 476
f 476 477 475
f 477 476 478
f 478 479 477
f 479 478 480
f 480 481 479
f 481 480 442
f 442 445 481
f 485 482 483
f 483 484 485
f 484 483 486
f 486 487 484
f 487 486 488
f 488 489 487
f 489 488 490
f 490 491 489
f 491 490 492
f 492 493 491
f 493 492 494
f 494 495 493
f 495 494 496
f 496 497 495
f 497 496 498
f 498 499 497
f 499 498 500
f 500 501 499
f 501 500 502
f 502 503 501
f 503 502 504
f 504 505 503
f 505 504 506
f 506 507 505
f 507 506 508
f 508 509 507
f 509 508 510
f 510 511 509
f 511 510 512
f 512 513 511
f 513 512 514
f 514 515 513
f 515 514 516
f 516 517 515
f 517 516 518
f 518 519 517
f 519 518 520
f 520 521 519
f 521 520 482
f 482 485 521
f 523 485 484
f 484 522 523
f 522 484 487
f 487 524 522
f 524 487 489
f 489 525 524
f 525 489 491
f 491 526 525
f 526 491 493
f 493 527 526
f 527 493 495
f 495 528 527
f 528 495 497
f 497 529 528
f 529 497 499
f 499 530 529
f 530 499 501
f 501 531 530
f 531 501 503
f 503 532 531
f 532 503 505
f 505 533 532
f 533 505 507
f 507 534 533
f 534 507 509
f 509 535 534
f 535 509 511
f 511 536 535
f 536 511 513
f 513 537 536
f 537 513 515
f 515 538 537
f 538 515 517
f 517 539 538
f 539 517 519
f 519 540 539
f 540 519 521
f 521 541 540
f 541 521 485
f 485 523 541
f 543 523 522
f 522 542 543
f 542 522 524
f 524 544 542
f 544 524 525
f 525 545 544
f 545 525 526
f 526 546 545
f 546 526 527
f 527 547 546
f 547 527 528
f 528 548 547
f 548 528 529
f 529 549 548
f 549 529 530
f 530 550 549
f 550 530 531
f 531 551 550
f 551 531 532
f 532 552 551
f 552 532 533
f 533 553 552
f 553 533 534
f 534 554 553
f 554 534 535
f 535 555 554
f 555 535 536
f 536 556 555
f 556 536 537
f 537 557 556
f 557 537 538
f 538 558 557
f 558 538 539
f 539 559 558
f 559 539 540
f 540 560 559
f 560 540 541
f 541 561 560
f 561 541 523
f 523 543 561
f 563 543 542
f 542 562 563
f 562 542 544
f 544 564 562
f 564 544 545
f 545 565 564
f 565 545 546
f 546 566 565
f 566 546 547
f 547 567 566
f 567 547 548
f 548 568 567
f 568 548 549
f 549 569 568
f 569 549 550
f 550 570 569
f 570 550 551
f 551 571 570
f 571 551 552
f 552 572 571
f 572 552 553
f 553 573 572
f 573 553 554
f 554 574 573
f 574 554 555
f 555 575 574
f 575 555 556
f 556 576 575
f 576 556 557
f 557 577 576
f 577 557 558
f 558 578 577
f 578 558 559
f 559 579 578
f 579 559 560
f 560 580 579
f 580 560 561
f 561 581 580
f 581 561 543
f 543 563 581
f 583 563 562
f 562 582 583
f 582 562 564
f 564 584 582
f 584 564 565
f 565 585 584
f 585 565 566
f 566 586 585
f 586 566 567
f 567 587 586
f 587 567 568
f 568 588 587
f 588 568 569
f 569 589 588
f 589 569 570
f 570 590 589
f 590 570 571
f 571 591 590
f 591 571 572
f 572 592 591
f 592 572 573
f 573 593 592
f 593 573 574
f 574 594 593
f 594 574 575
f 575 595 594
f 595 575 576
f 576 596 595
f 596 576 577
f 577 597 596
f 597 577 578
f 578 598 597
f 598 578 579
f 579 599 598
f 599 579 580
f 580 600 599
f 600 580 581
f 581 601 600
f 601 581 563
f 563 583 601
f 603 583 582
f 582 602 603
f 602 582 584
f 584 604 602
f 604 584 585
f 585 605 604
f 605 585 586
f 586 606 605
f 606 586 587
f 587 607 606
f 607 587 588
f 588 608 607
f 608 588 589
f 589 609 608
f 609 589 590
f 590 610 609
f 610 590 591
f 591 611 610
f 611 591 592
f 592 612 611
f 612 592 593
f 593 613 612
f 613 593 594
f 594 614 613
f 614 594 595
f 595 615 614
f 615 595 596
f 596 616 615
f 616 596 597
f 597 617 616
f 617 597 598
f 598 618 617
f 618 598 599
f 599 619 618
f 619 599 600
f 600 620 619
f 620 600 601
f 601 621 620
f 621 601 583
f 583 603 621
f 623 603 602
f 602 622 623
f 622 602 604
f 604 624 622
f 624 604 605
f 605 625 624
f 625 605 606
f 606 626 625
f 626 606 607
f 607 627 626
f 627 607 608
f 608 628 627
f 628 608 609
f 609 629 628
f 629 609 610
f 610 630 629
f 630 610 611
f 611 631 630
f 631 611 612
f 612 632 631
f 632 612 613
f 613 633 632
f 633 613 614
f 614 634 633
f 634 614 615
f 615 635 634
f 635 615 616
f 616 636 635
f 636 616 617
f 617 637 636
f 637 617 618
f 618 638 637
f 638 618 619
f 619 639 638
f 639 619 620
f 620 640 639
f 640 620 621
f 621 641 640
f 641 621 603
f 603 623 641
f 643 623 622
f 622 642 643
f 642 622 624
f 624 644 642
f 644 624 625
f 625 645 644
f 645 625 626
f 626 646 645
f 646 626 627
f 627 647 646
f 647 627 628
f 628 648 647
f 648 628 629
f 629 649 648
f 649 629 630
f 630 650 649
f 650 630 631
f 631 651 650
f 651 631 632
f 632 652 651
f 652 632 633
f 633 653 652
f 653 633 634
f 634 654 653
f 654 634 635
f 635 655 654
f 655 635 636
f 636 656 655
f 656 636 637
f 637 657 656
f 657 637 638
f 638 658 657
f 658 638 639
f 639 659 658
f 659 639 640
f 640 660 659
f 660 640 641
f 641 661 660
f 661 641 623
f 623 643 661
f 663 643 642
f 642 662 663
f 662 642 644
f 644 664 662
f 664 644 645
f 645 665 664
f 665 645 646
f 646 666 665
f 666 646 647
f 647 667 666
f 667 647 648
f 648 668 667
f 668 648 649
f 649 669 668
f 669 649 650
f 650 670 669
f 670 650 651
f 651 671 670
f 671 651 652
f 652 672 671
f 672 652 653
f 653 673 672
f 673 653 654
f 654 674 673
f 674 654 655
f 655 675 674
f 675 655 656
f 656 676 675
f 676 656 657
f 657 677 676
f 677 657 658
f 658 678 677
f 678 658 659
f 659 679 678
f 679 659 660
f 660 680 679
f 680 660 661
f 661 681 680
f 681 661 643
f 643 663 681
f 683 663 662
f 662 682 683
f 682 662 664
f 664 684 682
f 684 664 665
f 665 685 684
f 685 665 666
f 666 686 685
f 686 666 667
f 667 687 686
f 687 667 668
f 668 688 687
f 688 668 669
f 669 689 688
f 689 669 670
f 670 690 689
f 690 670 671
f 671 691 690
f 691 671 672
f 672 692 691
f 692 672 673
f 673 693 692
f 693 673 674
f 674 694 693
f 694 674 675
f 675 695 694
f 695 675 676
f 676 696 695
f 696 676 677
f 677 697 696
f 697 677 678
f 678 698 697
f 698 678 679
f 679 699 698
f 699 679 680
f 680 700 699
f 700 680 681
f 681 701 700
f 701 681 663
f 663 683 701
f 703 683 682
f 682 702 703
f 702 682 684
f 684 704 702
f 704 684 685
f 685 705 704
f 705 685 686
f 686 706 705
f 706 686 687
f 687 707 706
f 707 687 688
f 688 708 707
f 708 688 689
f 689 709 708
f 709 689 690
f 690 710 709
f 710 690 691
f 691 711 710
f 711 691 692
f 692 712 711
f 712 692 693
f 693 713 712
f 713 693 694
f 694 714 713
f 714 694 695
f 695 715 714
f 715 695 696
f 696 716 715
f 716 696 697
f 697 717 716
f 717 697 698
f 698 718 717
f 718 698 699
f 699 719 718
f 719 699 700
f 700 720 719
f 720 700 701
f 701 721 720
f 721 701 683
f 683 703 721
f 723 703 702
f 702 722 723
f 722 702 704
f 704 724 722
f 724 704 705
f 705 725 724
f 725 705 706
f 706 726 725
f 726 706 707
f 707 727 726
f 727 707 708
f 708 728 727
f 728 708 709
f 709 729 728
f 729 709 710
f 710 730 729
f 730 710 711
f 711 731 730
f 731 711 712
f 712 732 731
f 732 712 713
f 713 733 732
f 733 713 714
f 714 734 733
f 734 714 715
f 715 735 734
f 735 715 716
f 716 736 735
f 736 716 717
f 717 737 736
f 737 717 718
f 718 738 737
f 738 718 719
f 719 739 738
f 739 719 720
f 720 740 739
f 740 720 721
f 721 741 740
f 741 721 703
f 703 723 741
f 743 723 722
f 722 742 743
f 742 722 724
f 724 744 742
f 744 724 725
f 725 745 744
f 745 725 726
f 726 746 745
f 746 726 727
f 727 747 746
f 747 727 728
f 728 748 747
f 748 728 729
f 729 749 748
f 749 729 730
f 730 750 749
f 750 730 731
f 731 751 750
f 751 731 732
f 732 752 751
f 752 732 733
f 733 753 752
f 753 733 734
f 734 754 753
f 754 734 735
f 735 755 754
f 755 735 736
f 736 756 755
f 756 736 737
f 737 757 756
f 757 737 738
f 738 758 757
f 758 738 739
f 739 759 758
f 759 739 740
f 740 760 759
f 760 740 741
f 741 761 760
f 761 741 723
f 723 743 761
f 763 743 742
f 742 762 763
f 762 742 744
f 744 764 762
f 764 744 745
f 745 765 764
f 765 745 746
f 746 766 765
f 766 746 747
f 747 767 766
f 767 747 748
f 748 768 767
f 768 748 749
f 749 769 768
f 769 749 750
f 750 770 769
f 770 750 751
f 751 771 770
f 771 751 752
f 752 772 771
f 772 752 753
f 753 773 772
f 773 753 754
f 754 774 773
f 774 754 755
f 755 775 774
f 775 755 756
f 756 776 775
f 776 756 757
f 757 777 776
f 777 757 758
f 758 778 777
f 778 758 759
f 759 779 778
f 779 759 760
f 760 780 779
f 780 760 761
f 761 781 780
f 781 761 743
f 743 763 781
f 783 763 762
f 762 782 783
f 782 762 764
f 764 784 782
f 784 764 765
f 765 785 784
f 785 765 766
f 766 786 785
f 786 766 767
f 767 787 786
f 787 767 768
f 768 788 787
f 788 768 769
f 769 789 788
f 789 769 770
f 770 790 789
f 790 770 771
f 771 791 790
f 791 771 772
f 772 792 791
f 792 772 773
f 773 793 792
f 793 773 774
f 774 794 793
f 794 774 775
f 775 795 794
f 795 775 776
f 776 796 795
f 796 776 777
f 777 797 796
f 797 777 778
f 778 798 797
f 798 778 779
f 779 799 798
f 799 779 780
f 780 800 799
f 800 780 781
f 781 801 800
f 801 781 763
f 763 783 801
f 803 783 782
f 782 802 803
f 802 782 784
f 784 804 802
f 804 784 785
f 785 805 804
f 805 785 786
f 786 806 805
f 806 786 787
f 787 807 806
f 807 787 788
f 788 808 807
f 808 788 789
f 789 809 808
f 809 789 790
f 790 810 809
f 810 790 791
f 791 811 810
f 811 791 792
f 792 812 811
f 812 792 793
f 793 813 812
f 813 793 794
f 794 814 813
f 814 794 795
f 795 815 814
f 815 795 796
f 796 816 815
f 816 796 797
f 797 817 816
f 817 797 798
f 798 818 817
f 818 798 799
f 799 819 818
f 819 799 800
f 800 820 819
f 820 800 801
f 801 821 820
f 821 801 783
f 783 803 821
f 823 803 802
f 802 822 823
f 822 802 804
f 804 824 822
f 824 804 805
f 805 825 824
f 825 805 806
f 806 826 825
f 826 806 807
f 807 827 826
f 827 807 808
f 808 828 827
f 828 808 809
f 809 829 828
f 829 809 810
f 810 830 829
f 830 810 811
f 811 831 830
f 831 811 812
f 812 832 831
f 832 812 813
f 813 833 832
f 833 813 814
f 814 834 833
f 834 814 815
f 815 835 834
f 835 815 816
f 816 836 835
f 836 816 817
f 817 837 836
f 837 817 818
f 818 838 837
f 838 818 819
f 819 839 838
f 839 819 820
f 820 840 839
f 840 820 821
f 821 841 840
f 841 821 803
f 803 823 841
f 843 823 822
f 822 842 843
f 842 822 824
f 824 844 842
f 844 824 825
f 825 845 844
f 845 825 826
f 826 846 845
f 846 826 827
f 827 847 846
f 847 827 828
f 828 848 847
f 848 828 829
f 829 849 848
f 849 829 830
f 830 850 849
f 850 830 831
f 831 851 850
f 851 831 832
f 832 852 851
f 852 832 833
f 833 853 852
f 853 833 834
f 834 854 853
f 854 834 835
f 835 855 854
f 855 835 836
f 836 856 855
f 856 836 837
f 837 857 856
f 857 837 838
f 838 858 857
f 858 838 839
f 839 859 858
f 859 839 840
f 840 860 859
f 860 840 841
f 841 861 860
f 861 841 823
f 823 843 861
f 483 482 862
f 486 483 862
f 488 486 862
f 490 488 862
f 492 490 862
f 494 492 862
f 496 494 862
f 498 496 862
f 500 498 862
f 502 500 862
f 504 502 862
f 506 504 862
f 508 506 862
f 510 508 862
f 512 510 862
f 514 512 862
f 516 514 862
f 518 516 862
f 520 518 862
f 482 520 862
f 843 842 863
f 842 844 863
f 844 845 863
f 845 846 863
f 846 847 863
f 847 848 863
f 848 849 863
f 849 850 863
f 850 851 863
f 851 852 863
f 852 853 863
f 853 854 863
f 854 855 863
f 855 856 863
f 856 857 863
f 857 858 863
f 858 859 863
f 859 860 863
f 860 861 863
f 861 843 863
f 96 95 94
f 94 93 96
f 98 96 93
f 93 97 98
f 102 101 100
f 100 99 102
f 106 105 104
f 104 103 106
f 116 115 114
f 114 113 116
f 120 119 118
f 118 117 120
f 122 124 123
f 123 121 122
f 307 312 143
f 143 139 307
f 158 157 127
f 127 128 158
f 159 158 128
f 128 130 159
f 161 160 133
f 133 134 161
f 163 162 137
f 137 138 163
f 166 171 154
f 154 144 166
f 168 167 147
f 147 148 168
f 170 169 151
f 151 152 170
f 171 172 156
f 156 154 171
f 191 187 331
f 331 336 191
f 206 205 175
f 175 176 206
f 209 208 181
f 181 182 209
f 211 210 185
f 185 186 211
f 216 215 195
f 195 196 216
f 218 217 199
f 199 200 218
f 219 220 204
f 204 202 219
f 222 221 205
f 205 206 222
f 225 224 208
f 208 209 225
f 227 226 210
f 210 211 227
f 232 231 215
f 215 216 232
f 234 233 217
f 217 218 234
f 235 236 220
f 220 219 235
f 238 237 221
f 221 222 238
f 241 240 224
f 224 225 241
f 243 242 226
f 226 227 243
f 248 247 231
f 231 232 248
f 250 249 233
f 233 234 250
f 251 252 236
f 236 235 251
f 254 253 237
f 237 238 254
f 257 256 240
f 240 241 257
f 259 258 242
f 242 243 259
f 264 263 247
f 247 248 264
f 266 265 249
f 249 250 266
f 267 268 252
f 252 251 267
f 25 26 253
f 253 254 25
f 29 30 256
f 256 257 29
f 33 34 258
f 258 259 33
f 43 44 263
f 263 264 43
f 45 46 265
f 265 266 45
f 47 48 268
f 268 267 47
f 270 269 19
f 19 20 270
f 272 271 21
f 21 22 272
f 274 273 23
f 23 24 274
f 277 278 57
f 57 58 277
f 280 279 53
f 53 54 280
f 282 281 49
f 49 50 282
f 93 94 269
f 269 270 93
f 95 96 286
f 286 285 95
f 99 100 271
f 271 272 99
f 101 102 289
f 289 288 101
f 103 104 273
f 273 274 103
f 105 106 291
f 291 290 105
f 299 122 112
f 112 294 299
f 113 114 281
f 281 282 113
f 115 116 296
f 296 295 115
f 117 118 279
f 279 280 117
f 119 120 298
f 298 297 119
f 121 123 278
f 278 277 121
f 124 122 299
f 299 300 124
f 311 310 309
f 309 308 311
f 308 309 312
f 312 307 308
f 309 310 143
f 143 312 309
f 324 323 322
f 322 321 324
f 311 308 307
f 307 139 311
f 5 6 9
f 9 2 5
f 6 7 12
f 12 9 6
f 8 5 2
f 2 3 8
f 7 15 18
f 18 12 7
f 16 8 3
f 3 13 16
f 15 21 24
f 24 18 15
f 22 16 13
f 13 19 22
f 39 45 48
f 48 42 39
f 46 40 37
f 37 43 46
f 54 55 60
f 60 57 54
f 56 53 50
f 50 51 56
f 55 63 66
f 66 60 55
f 64 56 51
f 51 61 64
f 63 69 72
f 72 66 63
f 69 70 67
f 67 72 69
f 70 64 61
f 61 67 70
f 100 101 106
f 106 103 100
f 102 99 94
f 94 95 102
f 118 119 116
f 116 113 118
f 120 117 123
f 123 124 120
f 133 160 163
f 163 138 133
f 161 134 127
f 127 157 161
f 151 169 168
f 168 148 151
f 170 152 156
f 156 172 170
f 181 208 211
f 211 186 181
f 209 182 175
f 175 205 209
f 199 217 216
f 216 196 199
f 218 200 204
f 204 220 218
f 208 224 227
f 227 211 208
f 225 209 205
f 205 221 225
f 217 233 232
f 232 216 217
f 234 218 220
f 220 236 234
f 224 240 243
f 243 227 224
f 241 225 221
f 221 237 241
f 233 249 248
f 248 232 233
f 250 234 236
f 236 252 250
f 240 256 259
f 259 243 240
f 257 241 237
f 237 253 257
f 249 265 264
f 264 248 249
f 266 250 252
f 252 268 266
f 256 30 33
f 33 259 256
f 29 257 253
f 253 26 29
f 265 46 43
f 43 264 265
f 45 266 268
f 268 48 45
f 21 271 274
f 274 24 21
f 272 22 19
f 19 269 272
f 53 279 282
f 282 50 53
f 280 54 57
f 57 278 280
f 271 100 103
f 103 274 271
f 99 272 269
f 269 94 99
f 289 102 95
f 95 285 289
f 101 288 291
f 291 106 101
f 279 118 113
f 113 282 279
f 117 280 278
f 278 123 117
f 298 120 124
f 124 300 298
f 119 297 296
f 296 116 119
f 335 334 333
f 333 332 335
f 332 333 336
f 336 331 332
f 333 334 191
f 191 336 333
f 334 335 187
f 187 191 334
f 335 332 331
f 331 187 335
f 346 345 139
f 139 143 346
f 345 347 311
f 311 139 345
f 347 348 310
f 310 311 347
f 348 346 143
f 143 310 348
f 321 322 345
f 345 346 321
f 322 323 347
f 347 345 322
f 323 324 348
f 348 347 323
f 324 321 346
f 346 348 324
f 413 412 411
f 411 410 413
f 415 414 412
f 412 413 415
f 417 416 414
f 414 415 417
f 410 411 416
f 416 417 410
f 421 420 419
f 419 418 421
f 423 422 416
f 416 411 423
f 422 424 414
f 414 416 422
f 424 425 412
f 412 414 424
f 425 423 411
f 411 412 425
f 418 419 422
f 422 423 418
f 419 420 424
f 424 422 419
f 420 421 425
f 425 424 420
f 421 418 423
f 423 425 421
f 429 428 427
f 427 426 429
f 431 430 428
f 428 429 431
f 433 432 430
f 430 431 433
f 426 427 432
f 432 433 426
f 437 436 435
f 435 434 437
f 439 438 432
f 432 427 439
f 438 440 430
f 430 432 438
f 440 441 428
f 428 430 440
f 441 439 427
f 427 428 441
f 434 435 438
f 438 439 434
f 435 436 440
f 440 438 435
f 436 437 441
f 441 440 436
f 437 434 439
f 439 441 437