# https://github.com/mikedh/trimesh
v 0.01148279 0.00957227 0.07701592
v 0.01530563 -0.00008124 0.07484389
v 0.01172021 0.00976963 0.07484175
v 0.01499609 -0.00008046 0.07701806
v 0.00264160 0.01501117 0.07483899
v 0.00258678 0.01470839 0.07701315
v -0.00752939 0.01292464 0.07701108
v -0.00768222 0.01319080 0.07483691
v -0.01442061 0.00516030 0.07483648
v -0.01413225 0.00505565 0.07701066
v -0.01413225 -0.00521657 0.07701210
v -0.01442061 -0.00532278 0.07483791
v -0.00752940 -0.01308555 0.07701470
v -0.00768223 -0.01335328 0.07484052
v 0.00264159 -0.01517365 0.07484310
v 0.00258677 -0.01486931 0.07701726
v 0.01148277 -0.00973320 0.07701860
v 0.01172020 -0.00993212 0.07484443
v 0.01445529 -0.00008277 0.07037020
v 0.00242100 0.00194601 0.05090538
v 0.01106940 0.00921989 0.07036805
v 0.00316200 -0.00008989 0.05090753
v 0.00249602 0.01416973 0.07036530
v 0.00054470 0.00302931 0.05090263
v -0.00158896 0.00265310 0.05090056
v -0.00725325 0.01245066 0.07036323
v -0.01361664 0.00486707 0.07036281
v -0.00298162 0.00099340 0.05090014
v -0.00298161 -0.00117318 0.05090156
v -0.01361665 -0.00503260 0.07036423
v -0.00158896 -0.00283287 0.05090417
v -0.00725326 -0.01261621 0.07036684
v 0.00249601 -0.01433527 0.07036940
v 0.00054470 -0.00320908 0.05090673
v 0.00242099 -0.00212579 0.05090806
v 0.01106939 -0.00938544 0.07037073
v 0.00848285 0.00706030 0.08314437
v 0.01108107 -0.00007826 0.08314650
v 0.01383409 -0.00007942 0.07992082
v 0.01059224 0.00882751 0.07991867
v 0.00238358 0.01356679 0.07991593
v 0.00190393 0.01085864 0.08314164
v -0.00557735 0.00953948 0.08313959
v -0.00695098 0.01192086 0.07991386
v -0.01304368 0.00465986 0.07991344
v -0.01046040 0.00372009 0.08313916
v -0.01046041 -0.00387660 0.08314058
v -0.01304369 -0.00481870 0.07991486
v -0.00695099 -0.01207969 0.07991746
v -0.00557735 -0.00969600 0.08314317
v 0.00238356 -0.01372562 0.07992002
v 0.00190392 -0.01101516 0.08314571
v 0.00848284 -0.00721682 0.08314704
v 0.01059223 -0.00898635 0.07992135
v 0.00575775 -0.00007529 0.09133726
v 0.00439968 0.00363748 0.08702751
v 0.00440380 0.00364465 0.09133511
v 0.00575159 -0.00007685 0.08702965
v 0.00097549 0.00562399 0.09133235
v 0.00097654 0.00561382 0.08702476
v -0.00291610 0.00492744 0.08702270
v -0.00292305 0.00493657 0.09133028
v -0.00546763 0.00190405 0.09132985
v -0.00545684 0.00189950 0.08702228
v -0.00546764 -0.00205463 0.09133128
v -0.00545685 -0.00205319 0.08702370
v -0.00291611 -0.00508114 0.08702629
v -0.00292305 -0.00508715 0.09133389
v 0.00097549 -0.00577457 0.09133647
v 0.00097654 -0.00576752 0.08702886
v 0.00439968 -0.00379118 0.08703018
v 0.00440380 -0.00379523 0.09133780
v 0.00818279 -0.00007762 0.08489792
v 0.00626238 0.00519862 0.08489578
v 0.00139978 0.00800604 0.08489305
v -0.00412977 0.00703102 0.08489100
v -0.00773892 0.00272980 0.08489058
v -0.00773893 -0.00288504 0.08489199
v -0.00412978 -0.00718628 0.08489458
v 0.00139977 -0.00816130 0.08489713
v 0.00626239 -0.00535387 0.08489844
v 0.00628471 0.01083609 0.07697624
v 0.01206904 0.00432421 0.07484014
v 0.01182576 0.00423654 0.07697893
v 0.00641468 0.01105866 0.07483758
v -0.00220788 0.01233356 0.07697373
v -0.00225155 0.01258675 0.07483507
v -0.00967613 0.00802176 0.07697243
v -0.00987251 0.00818679 0.07483376
v -0.01262558 -0.00008177 0.07697296
v -0.01288226 -0.00008243 0.07483429
v -0.00967614 -0.00818530 0.07697506
v -0.00987251 -0.00835165 0.07483638
v -0.00221467 -0.01249618 0.07697788
v -0.00225851 -0.01275069 0.07483910
v 0.00963865 -0.00818529 0.07698038
v 0.00983722 -0.00835165 0.07484157
v 0.00127513 0.00212852 0.05098719
v 0.01205522 0.00431671 0.07064340
v 0.00640829 0.01104262 0.07064109
v 0.00239928 0.00079195 0.05098930
v -0.00224647 0.01256869 0.07063858
v -0.00045036 0.00243274 0.05098467
v -0.00196770 0.00155669 0.05098336
v -0.00985733 0.00817455 0.07063728
v -0.01286310 -0.00008372 0.07063780
v -0.00256695 -0.00008972 0.05098389
v -0.00196772 -0.00173616 0.05098599
v -0.00985734 -0.00834199 0.07063990
v -0.00225303 -0.01273519 0.07064235
v -0.00045626 -0.00261114 0.05098824
v 0.00195623 -0.00173588 0.05099050
v 0.00982624 -0.00834194 0.07064468
v 0.00464156 0.00799724 0.08302546
v 0.01091128 0.00390468 0.07984268
v 0.00874036 0.00311521 0.08302846
v 0.00579744 0.00999552 0.07983980
v -0.00204062 0.01137758 0.07983729
v -0.00164136 0.00910509 0.08302293
v -0.00716646 0.00591517 0.08302163
v -0.00893328 0.00739809 0.07983598
v -0.01165542 -0.00008089 0.07983651
v -0.00934850 -0.00007992 0.08302215
v -0.00716647 -0.00607501 0.08302426
v -0.00893329 -0.00755988 0.07983860
v -0.00204698 -0.01153837 0.07984163
v -0.00164685 -0.00926379 0.08302742
v 0.00712238 -0.00607461 0.08303011
v 0.00889275 -0.00755974 0.07984425
v 0.00645207 0.00228162 0.08475879
v 0.00342344 0.00588944 0.08475589
v -0.00121949 0.00670812 0.08475335
v -0.00530242 0.00435084 0.08475204
v -0.00691489 -0.00007939 0.08475257
v -0.00530241 -0.00450962 0.08475467
v -0.00122349 -0.00686575 0.08475774
v 0.00525631 -0.00450899 0.08476042
v -0.00002657 -0.00007689 0.08702803
v 0.00197142 0.00156727 0.04917364
v 0.00257439 -0.00009052 0.04917460
v 0.00044368 0.00244988 0.04917241
v -0.00129426 0.00214382 0.04917148
v -0.00242874 0.00079192 0.04917130
v -0.00242848 -0.00097286 0.04917193
v -0.00129391 -0.00232426 0.04917310
v 0.00044354 -0.00263015 0.04917425
v 0.00197102 -0.00174798 0.04917484
v 0.00042841 -0.00045376 0.04917345
v 0.00052524 0.00011268 0.04917331
v 0.00027959 0.00040303 0.04917305
v -0.00010432 0.00047280 0.04917280
v -0.00044374 0.00027806 0.04917266
v -0.00057726 -0.00009003 0.04917272
v -0.00044200 -0.00045665 0.04917293
v -0.00011279 -0.00064840 0.04917320
v 0.01533625 -0.00009977 0.02352111
v 0.01151603 0.00955217 0.02133697
v 0.01175084 0.00975109 0.02351187
v 0.01502932 -0.00010056 0.02134599
v 0.00267224 0.01499262 0.02350001
v 0.00262003 0.01468829 0.02132540
v -0.00749614 0.01290453 0.02131669
v -0.00765156 0.01317225 0.02349107
v -0.01438994 0.00514176 0.02348925
v -0.01409900 0.00503555 0.02131490
v -0.01409900 -0.00523668 0.02132089
v -0.01438995 -0.00534131 0.02349539
v -0.00749615 -0.01310565 0.02133185
v -0.00765157 -0.01337180 0.02350663
v 0.00267222 -0.01519216 0.02351769
v 0.00262000 -0.01488940 0.02134265
v 0.01151601 -0.00975329 0.02134823
v 0.01175083 -0.00995063 0.02352340
v 0.00316418 -0.00009114 0.04744214
v 0.01445865 -0.00009823 0.02776659
v 0.00242316 0.00194483 0.04744192
v 0.01107796 0.00919014 0.02775736
v 0.00251775 0.01413238 0.02774552
v 0.00054679 0.00302817 0.04744165
v -0.00158696 0.00265195 0.04744144
v -0.00721656 0.01241595 0.02773660
v -0.00297965 -0.00117447 0.04744155
v -0.01357018 0.00484400 0.02773478
v -0.01357019 -0.00504047 0.02774091
v -0.00297966 0.00099219 0.04744140
v -0.00158695 -0.00283422 0.04744180
v -0.00721658 -0.01261243 0.02775212
v 0.00251773 -0.01432885 0.02776317
v 0.00054678 -0.00321044 0.04744205
v 0.00242314 -0.00212712 0.04744219
v 0.01107794 -0.00938662 0.02776888
v 0.01112163 -0.00010278 0.01521288
v 0.00852341 0.00703577 0.01520675
v 0.01387079 -0.00010161 0.01844186
v 0.01062895 0.00880531 0.01843369
v 0.00242029 0.01354460 0.01842322
v 0.00194449 0.01083411 0.01519890
v -0.00553678 0.00951495 0.01519297
v -0.00691427 0.01189866 0.01841533
v -0.01041983 0.00369556 0.01519176
v -0.01300697 0.00463766 0.01841372
v -0.01041984 -0.00390112 0.01519583
v -0.01300697 -0.00484089 0.01841914
v -0.00691428 -0.01210188 0.01842906
v -0.00553680 -0.00972052 0.01520328
v 0.00242027 -0.01374782 0.01843883
v 0.00194448 -0.01103968 0.01521061
v 0.00852340 -0.00724134 0.01521440
v 0.01062893 -0.00900854 0.01844388
v 0.00444487 0.00361015 0.01132122
v 0.00580809 -0.00010572 0.00701577
v 0.00445414 0.00361421 0.00701361
v 0.00579678 -0.00010417 0.01132338
v 0.00102174 0.00558649 0.01131845
v 0.00102583 0.00559355 0.00701085
v -0.00287091 0.00490011 0.01131637
v -0.00287271 0.00490613 0.00700877
v -0.00541165 0.00187217 0.01131594
v -0.00541729 0.00187361 0.00700835
v -0.00541165 -0.00208052 0.01131737
v -0.00541729 -0.00208506 0.00700978
v -0.00287091 -0.00510846 0.01131999
v -0.00287271 -0.00511759 0.00701239
v 0.00102173 -0.00579485 0.01132258
v 0.00102582 -0.00580500 0.00701497
v 0.00444488 -0.00381850 0.01132391
v 0.00445414 -0.00382567 0.00701630
v 0.00630504 0.00517283 0.01345404
v 0.00822544 -0.00010341 0.01345801
v 0.00144243 0.00798025 0.01344894
v -0.00408712 0.00700523 0.01344509
v -0.00769626 0.00270401 0.01344431
v -0.00769627 -0.00291083 0.01344695
v -0.00408713 -0.00721206 0.01345178
v 0.00144242 -0.00818709 0.01345654
v 0.00630504 -0.00537966 0.01345900
v 0.00631790 0.01081601 0.02136952
v 0.01209968 0.00430568 0.02351723
v 0.00644532 0.01104013 0.02350819
v 0.01185895 0.00421647 0.02137823
v -0.00217468 0.01231348 0.02136082
v -0.00222091 0.01256822 0.02349924
v -0.00964293 0.00800168 0.02135631
v -0.00984186 0.00816825 0.02349463
v -0.01259238 -0.00010185 0.02135812
v -0.01285161 -0.00010096 0.02349648
v -0.00964294 -0.00820538 0.02136539
v -0.00984187 -0.00837018 0.02350395
v -0.00218147 -0.01251625 0.02137459
v -0.00222787 -0.01276922 0.02351350
v 0.00967184 -0.00820536 0.02138312
v 0.00986786 -0.00837018 0.02352229
v 0.00127729 0.00212721 0.04735885
v 0.01208085 0.00430121 0.02771396
v 0.00240145 0.00079064 0.04735906
v 0.00643393 0.01102712 0.02770467
v -0.00044819 0.00243144 0.04735910
v -0.00222083 0.01255319 0.02769575
v -0.00196554 0.00155538 0.04735922
v -0.00983169 0.00815905 0.02769113
v -0.00256479 -0.00009103 0.04735917
v -0.01283746 -0.00009922 0.02769298
v -0.00196556 -0.00173747 0.04735897
v -0.00983170 -0.00835749 0.02770044
v -0.00222740 -0.01275069 0.02771024
v -0.00045409 -0.00261245 0.04735916
v 0.00195840 -0.00173719 0.04735915
v 0.00985187 -0.00835743 0.02771916
v 0.01094789 0.00388254 0.01851362
v 0.00583406 0.00997338 0.01850600
v 0.00468198 0.00797280 0.01532040
v 0.00878078 0.00309077 0.01532582
v -0.00200400 0.01135544 0.01849816
v -0.00160094 0.00908065 0.01531463
v -0.00889666 0.00737595 0.01849412
v -0.00712604 0.00589073 0.01531165
v -0.01161879 -0.00010304 0.01849573
v -0.00930808 -0.00010436 0.01531284
v -0.00889668 -0.00758202 0.01850229
v -0.00712604 -0.00609945 0.01531767
v -0.00201037 -0.01156051 0.01851035
v -0.00160643 -0.00928823 0.01532340
v 0.00892936 -0.00758188 0.01851792
v 0.00716280 -0.00609904 0.01532887
v 0.00346592 0.00586375 0.01359005
v 0.00649455 0.00225593 0.01359336
v -0.00117700 0.00668243 0.01358645
v -0.00525993 0.00432515 0.01358459
v -0.00687240 -0.00010508 0.01358533
v -0.00525993 -0.00453531 0.01358835
v -0.00118100 -0.00689144 0.01359185
v 0.00529879 -0.00453467 0.01359521
v 0.00001863 -0.00010422 0.01131810
v 0.02557513 -0.00010505 0.00998172
v 0.02362985 0.00967456 0.00385488
v 0.02362985 0.00967456 0.00998172
v 0.02557513 -0.00010505 0.00385488
v 0.01809014 0.01796531 0.00998172
v 0.01809014 0.01796531 0.00385488
v 0.00979939 0.02350501 0.00998172
v 0.00979939 0.02350501 0.00385488
v 0.00001978 0.02545030 0.00998172
v 0.00001978 0.02545030 0.00385488
v -0.00975983 0.02350502 0.00385488
v -0.00975983 0.02350502 0.00998172
v -0.01805059 0.01796531 0.00998172
v -0.01805059 0.01796531 0.00385488
v -0.02359029 0.00967455 0.00385488
v -0.02359029 0.00967455 0.00998172
v -0.02553558 -0.00010506 0.00998172
v -0.02553558 -0.00010506 0.00385488
v -0.02359029 -0.00988468 0.00998172
v -0.02359029 -0.00988468 0.00385488
v -0.01805058 -0.01817543 0.00998172
v -0.01805058 -0.01817543 0.00385488
v -0.00975981 -0.02371513 0.00385488
v -0.00975981 -0.02371513 0.00998172
v 0.00001980 -0.02566041 0.00998172
v 0.00001980 -0.02566041 0.00385488
v 0.00979942 -0.02371511 0.00998172
v 0.00979942 -0.02371511 0.00385488
v 0.01809017 -0.01817540 0.00998172
v 0.01809017 -0.01817540 0.00385488
v 0.02362986 -0.00988463 0.00998172
v 0.02362986 -0.00988463 0.00385488
v 0.02515351 -0.00010506 0.00343069
v 0.00001978 -0.00010506 0.00342305
v 0.02324032 0.00951321 0.00343069
v 0.01779201 0.01766718 0.00343069
v 0.00963804 0.02311549 0.00343069
v 0.00001978 0.02502868 0.00343069
v -0.00959848 0.02311549 0.00343069
v -0.01775245 0.01766718 0.00343069
v -0.02320077 0.00951320 0.00343069
v -0.02511395 -0.00010506 0.00343069
v -0.02320076 -0.00972333 0.00343069
v -0.01775244 -0.01787730 0.00343069
v -0.00959847 -0.02332560 0.00343069
v 0.00001980 -0.02523879 0.00343069
v 0.00963807 -0.02332558 0.00343069
v 0.01779203 -0.01787726 0.00343069
v 0.02324033 -0.00972328 0.00343069
v 0.02515351 -0.00010506 0.01040592
v 0.02324032 0.00951321 0.01040592
v 0.00001978 -0.00010506 0.01041355
v 0.01779201 0.01766718 0.01040592
v 0.00963804 0.02311549 0.01040592
v 0.00001978 0.02502868 0.01040592
v -0.00959848 0.02311549 0.01040592
v -0.01775245 0.01766718 0.01040592
v -0.02320077 0.00951320 0.01040592
v -0.02511395 -0.00010506 0.01040592
v -0.02320076 -0.00972333 0.01040592
v -0.01775244 -0.01787730 0.01040592
v -0.00959847 -0.02332560 0.01040592
v 0.00001980 -0.02523879 0.01040592
v 0.00963807 -0.02332558 0.01040592
v 0.01779203 -0.01787726 0.01040592
v 0.02324033 -0.00972328 0.01040592
v 0.02506225 -0.00508862 0.09449152
v 0.02506225 -0.00508862 0.08836467
v 0.02506225 0.00487440 0.09449152
v 0.02506225 0.00487440 0.08836467
v 0.02124955 0.01407908 0.09449152
v 0.02124955 0.01407908 0.08836467
v 0.01420460 0.02112403 0.09449151
v 0.01420452 0.02112392 0.08836434
v 0.00499993 0.02493673 0.08836468
v 0.00499993 0.02493673 0.09449151
v -0.00496314 0.02493673 0.09449151
v -0.00496314 0.02493673 0.08836468
v -0.01416781 0.02112403 0.09449151
v -0.01416781 0.02112403 0.08836468
v -0.02121277 0.01407908 0.09449151
v -0.02121277 0.01407908 0.08836468
v -0.02502546 0.00487440 0.09449151
v -0.02502546 0.00487440 0.08836468
v -0.02502546 -0.00508867 0.09449151
v -0.02502546 -0.00508867 0.08836468
v -0.02121276 -0.01429335 0.09449152
v -0.02121276 -0.01429335 0.08836467
v -0.01416780 -0.02133829 0.09449152
v -0.01416780 -0.02133829 0.08836467
v -0.00496312 -0.02515099 0.09449152
v -0.00496312 -0.02515099 0.08836467
v 0.00499995 -0.02515098 0.09449152
v 0.00499995 -0.02515098 0.08836467
v 0.01420462 -0.02133827 0.09449152
v 0.01420462 -0.02133827 0.08836467
v 0.02124957 -0.01429331 0.09449152
v 0.02124957 -0.01429331 0.08836467
v 0.02464872 0.00479215 0.08794048
v 0.02464873 -0.00500637 0.08794048
v 0.00001839 -0.00010713 0.08793284
v 0.02089898 0.01384485 0.08794048
v 0.01396600 0.02076694 0.08794030
v 0.00491769 0.02452321 0.08794048
v -0.00488088 0.02452321 0.08794048
v -0.01393357 0.02077346 0.08794048
v -0.02086220 0.01384483 0.08794048
v -0.02461194 0.00479214 0.08794048
v -0.02461194 -0.00500642 0.08794048
v -0.02086219 -0.01405910 0.08794048
v -0.01393356 -0.02098772 0.08794048
v -0.00488087 -0.02473747 0.08794048
v 0.00491770 -0.02473746 0.08794048
v 0.01397038 -0.02098770 0.08794048
v 0.02089900 -0.01405906 0.08794048
v 0.02464872 0.00479215 0.09491571
v 0.00001839 -0.00010713 0.09492335
v 0.02464873 -0.00500637 0.09491571
v 0.02089898 0.01384483 0.09491571
v 0.01397035 0.02077346 0.09491571
v 0.00491767 0.02452320 0.09491571
v -0.00488088 0.02452321 0.09491571
v -0.01393357 0.02077346 0.09491571
v -0.02086220 0.01384483 0.09491571
v -0.02461194 0.00479214 0.09491571
v -0.02461194 -0.00500642 0.09491571
v -0.02086219 -0.01405910 0.09491571
v -0.01393356 -0.02098772 0.09491571
v -0.00488087 -0.02473747 0.09491571
v 0.00491770 -0.02473746 0.09491571
v 0.01397038 -0.02098770 0.09491571
v 0.02089900 -0.01405906 0.09491571
v 0.02464639 -0.00012755 0.06457600
v 0.02377773 0.00225174 0.05919832
v 0.02377977 0.00225345 0.06457600
v 0.02464373 -0.00012755 0.05919832
v 0.02158543 0.00352036 0.06457600
v 0.02158497 0.00351774 0.05919832
v 0.01909144 0.00307806 0.05919832
v 0.01909011 0.00308037 0.06457600
v 0.01746141 0.00113936 0.06457600
v 0.01746391 0.00113845 0.05919832
v 0.01746141 -0.00139445 0.06457600
v 0.01746391 -0.00139354 0.05919831
v 0.01909144 -0.00333316 0.05919831
v 0.01909011 -0.00333547 0.06457600
v 0.02158543 -0.00377546 0.06457600
v 0.02158496 -0.00377284 0.05919832
v 0.02377773 -0.00250685 0.05919832
v 0.02377977 -0.00250856 0.06457600
v 0.02358001 -0.00012755 0.08398794
v 0.02263577 0.00129352 0.07981548
v 0.02296288 0.00156800 0.08398794
v 0.02315300 -0.00012755 0.07981548
v 0.02140025 0.00247018 0.08398794
v 0.02132610 0.00204966 0.07981548
v 0.01983680 0.00178706 0.07981548
v 0.01962330 0.00215686 0.08398794
v 0.01846348 0.00077463 0.08398794
v 0.01886473 0.00062859 0.07981548
v 0.01846348 -0.00102973 0.08398794
v 0.01886473 -0.00088369 0.07981548
v 0.01983680 -0.00204216 0.07981548
v 0.01962330 -0.00241196 0.08398794
v 0.02140025 -0.00272528 0.08398794
v 0.02132610 -0.00230476 0.07981548
v 0.02263577 -0.00154863 0.07981548
v 0.02296288 -0.00182310 0.08398794
v 0.02371622 -0.00012755 0.09933863
v 0.02306723 0.00165555 0.09933863
v 0.02164932 0.00046579 0.09982689
v 0.02186528 -0.00012755 0.09982689
v 0.02142391 0.00260432 0.09933863
v 0.02110249 0.00078150 0.09982689
v 0.01955519 0.00227482 0.09933863
v 0.02048066 0.00067186 0.09982689
v 0.01833548 0.00082122 0.09933863
v 0.02007480 0.00018816 0.09982689
v 0.01833548 -0.00107632 0.09933863
v 0.02007480 -0.00044326 0.09982689
v 0.02048066 -0.00092696 0.09982689
v 0.01955519 -0.00252992 0.09933863
v 0.02142390 -0.00285943 0.09933863
v 0.02110249 -0.00103660 0.09982689
v 0.02164932 -0.00072089 0.09982689
v 0.02306722 -0.00191066 0.09933863
v 0.02094220 -0.00012755 0.09997242
v 0.02355281 -0.00012755 0.05227356
v 0.02464192 -0.00012755 0.05104554
v 0.02294204 0.00155052 0.05227356
v 0.02377635 0.00225058 0.05104554
v 0.02158465 0.00351596 0.05104554
v 0.02139553 0.00244340 0.05227356
v 0.01963690 0.00213330 0.05227356
v 0.01909235 0.00307650 0.05104554
v 0.01746561 0.00113783 0.05104554
v 0.01848903 0.00076533 0.05227356
v 0.01746561 -0.00139293 0.05104554
v 0.01848903 -0.00102043 0.05227356
v 0.01909234 -0.00333159 0.05104554
v 0.01963690 -0.00238840 0.05227356
v 0.02158465 -0.00377106 0.05104554
v 0.02139553 -0.00269850 0.05227356
v 0.02294204 -0.00180562 0.05227356
v 0.02377635 -0.00250568 0.05104554
v 0.02464365 -0.00012755 0.05400086
v 0.02377768 0.00225170 0.05400086
v 0.02158495 0.00351767 0.05400086
v 0.01909148 0.00307800 0.05400086
v 0.01746397 0.00113842 0.05400086
v 0.01746397 -0.00139352 0.05400086
v 0.01909148 -0.00333310 0.05400086
v 0.02158495 -0.00377277 0.05400086
v 0.02377768 -0.00250680 0.05400086
v 0.02343871 -0.00012755 0.05725165
v 0.02464273 -0.00012755 0.05567525
v 0.02285464 0.00147717 0.05725165
v 0.02377697 0.00225110 0.05567525
v 0.02158479 0.00351676 0.05567525
v 0.02137572 0.00233103 0.05725165
v 0.01969395 0.00203449 0.05725165
v 0.01909194 0.00307720 0.05567525
v 0.01746484 0.00113810 0.05567525
v 0.01859626 0.00072630 0.05725165
v 0.01746484 -0.00139321 0.05567525
v 0.01859626 -0.00098141 0.05725165
v 0.01969395 -0.00228959 0.05725165
v 0.01909194 -0.00333230 0.05567525
v 0.02158479 -0.00377186 0.05567525
v 0.02137572 -0.00258613 0.05725165
v 0.02285464 -0.00173227 0.05725165
v 0.02377697 -0.00250621 0.05567525
v 0.02413936 -0.00012755 0.07014739
v 0.02339137 0.00192755 0.07014739
v 0.02149738 0.00302104 0.07014739
v 0.01934362 0.00264127 0.07014739
v 0.01793785 0.00096594 0.07014739
v 0.01793785 -0.00122104 0.07014739
v 0.01934362 -0.00289637 0.07014739
v 0.02149738 -0.00327614 0.07014739
v 0.02339137 -0.00218265 0.07014739
v 0.02464499 -0.00012755 0.08653273
v 0.02377870 0.00225256 0.08653273
v 0.02158519 0.00351899 0.08653273
v 0.01909081 0.00307916 0.08653273
v 0.01746272 0.00113888 0.08653273
v 0.01746272 -0.00139398 0.08653273
v 0.01909081 -0.00333426 0.08653273
v 0.02158519 -0.00377409 0.08653273
v 0.02377870 -0.00250766 0.08653273
v 0.02464490 -0.00012755 0.09721035
v 0.02377863 0.00225250 0.09721035
v 0.02158517 0.00351889 0.09721035
v 0.01909085 0.00307908 0.09721035
v 0.01746281 0.00113885 0.09721035
v 0.01746280 -0.00139395 0.09721035
v 0.01909085 -0.00333418 0.09721034
v 0.02158517 -0.00377400 0.09721035
v 0.02377863 -0.00250760 0.09721035
v 0.02464192 -0.00012755 0.04892688
v 0.02377635 0.00225058 0.04892688
v 0.02158465 0.00351596 0.04892688
v 0.01909235 0.00307650 0.04892688
v 0.01746561 0.00113783 0.04892688
v 0.01746561 -0.00139293 0.04892688
v 0.02377635 -0.00250568 0.04892688
v 0.02464373 -0.00012755 0.04077411
v 0.02464639 -0.00012755 0.03539642
v 0.02377773 0.00225174 0.04077411
v 0.02377977 0.00225345 0.03539642
v 0.02158543 0.00352036 0.03539642
v 0.02158497 0.00351774 0.04077411
v 0.01909144 0.00307806 0.04077411
v 0.01909011 0.00308037 0.03539642
v 0.01746141 0.00113936 0.03539642
v 0.01746391 0.00113845 0.04077411
v 0.01746141 -0.00139445 0.03539642
v 0.01746391 -0.00139354 0.04077411
v 0.01909144 -0.00333316 0.04077411
v 0.01909011 -0.00333547 0.03539642
v 0.02158543 -0.00377546 0.03539642
v 0.02158496 -0.00377284 0.04077411
v 0.02377773 -0.00250685 0.04077411
v 0.02377977 -0.00250856 0.03539642
v 0.02315300 -0.00012755 0.02015694
v 0.02358001 -0.00012755 0.01598449
v 0.02263577 0.00129352 0.02015694
v 0.02296288 0.00156800 0.01598449
v 0.02140025 0.00247018 0.01598449
v 0.02132610 0.00204966 0.02015694
v 0.01983680 0.00178706 0.02015694
v 0.01962330 0.00215686 0.01598449
v 0.01846348 0.00077463 0.01598449
v 0.01886473 0.00062859 0.02015694
v 0.01846348 -0.00102973 0.01598449
v 0.01886473 -0.00088369 0.02015694
v 0.01983680 -0.00204216 0.02015694
v 0.01962330 -0.00241196 0.01598449
v 0.02140025 -0.00272528 0.01598449
v 0.02132610 -0.00230476 0.02015694
v 0.02263577 -0.00154863 0.02015694
v 0.02296288 -0.00182310 0.01598449
v 0.02164932 0.00046579 0.00014553
v 0.02371622 -0.00012755 0.00063379
v 0.02186528 -0.00012755 0.00014553
v 0.02306723 0.00165555 0.00063379
v 0.02142391 0.00260432 0.00063379
v 0.02110249 0.00078150 0.00014553
v 0.01955519 0.00227482 0.00063379
v 0.02048066 0.00067186 0.00014553
v 0.01833548 0.00082122 0.00063379
v 0.02007480 0.00018816 0.00014553
v 0.01833548 -0.00107632 0.00063379
v 0.02007480 -0.00044326 0.00014553
v 0.02048066 -0.00092696 0.00014553
v 0.01955519 -0.00252992 0.00063379
v 0.02110249 -0.00103660 0.00014553
v 0.02142390 -0.00285943 0.00063379
v 0.02164932 -0.00072089 0.00014553
v 0.02306722 -0.00191066 0.00063379
v 0.02094220 -0.00012755 0.00000000
v 0.02294204 0.00155052 0.04769887
v 0.02355281 -0.00012755 0.04769887
v 0.02139553 0.00244340 0.04769887
v 0.01963690 0.00213330 0.04769887
v 0.01848903 0.00076533 0.04769887
v 0.01848903 -0.00102043 0.04769887
v 0.01909234 -0.00333159 0.04892688
v 0.01963690 -0.00238840 0.04769887
v 0.02158465 -0.00377106 0.04892688
v 0.02139553 -0.00269850 0.04769887
v 0.02294204 -0.00180562 0.04769887
v 0.02464365 -0.00012755 0.04597156
v 0.02377768 0.00225170 0.04597156
v 0.02158495 0.00351767 0.04597156
v 0.01909148 0.00307800 0.04597156
v 0.01746397 0.00113842 0.04597156
v 0.01746397 -0.00139352 0.04597156
v 0.01909148 -0.00333310 0.04597156
v 0.02158495 -0.00377277 0.04597156
v 0.02377768 -0.00250680 0.04597156
v 0.02377697 0.00225110 0.04429718
v 0.02464273 -0.00012755 0.04429718
v 0.02285464 0.00147717 0.04272077
v 0.02343871 -0.00012755 0.04272077
v 0.02158479 0.00351676 0.04429718
v 0.02137572 0.00233103 0.04272077
v 0.01909194 0.00307720 0.04429718
v 0.01969395 0.00203449 0.04272077
v 0.01746484 0.00113810 0.04429718
v 0.01859626 0.00072630 0.04272077
v 0.01746484 -0.00139321 0.04429718
v 0.01859626 -0.00098141 0.04272077
v 0.01909194 -0.00333230 0.04429718
v 0.01969395 -0.00228959 0.04272077
v 0.02158479 -0.00377186 0.04429718
v 0.02137572 -0.00258613 0.04272077
v 0.02377697 -0.00250621 0.04429718
v 0.02285464 -0.00173227 0.04272077
v 0.02339137 0.00192755 0.02982503
v 0.02413936 -0.00012755 0.02982503
v 0.02149738 0.00302104 0.02982503
v 0.01934362 0.00264127 0.02982503
v 0.01793785 0.00096594 0.02982503
v 0.01793785 -0.00122104 0.02982503
v 0.01934362 -0.00289637 0.02982503
v 0.02149738 -0.00327614 0.02982503
v 0.02339137 -0.00218265 0.02982503
v 0.02464499 -0.00012755 0.01343969
v 0.02377870 0.00225256 0.01343969
v 0.02158519 0.00351899 0.01343969
v 0.01909081 0.00307916 0.01343969
v 0.01746272 0.00113888 0.01343969
v 0.01746272 -0.00139398 0.01343969
v 0.01909081 -0.00333426 0.01343969
v 0.02158519 -0.00377409 0.01343969
v 0.02377870 -0.00250766 0.01343969
v 0.02377863 0.00225250 0.00276208
v 0.02464490 -0.00012755 0.00276208
v 0.02158517 0.00351889 0.00276208
v 0.01909085 0.00307908 0.00276208
v 0.01746281 0.00113885 0.00276208
v 0.01746280 -0.00139395 0.00276208
v 0.01909085 -0.00333418 0.00276208
v 0.02158517 -0.00377400 0.00276208
v 0.02377863 -0.00250760 0.00276208
v -0.01106518 0.02167346 0.06457600
v -0.01325748 0.02040484 0.05919832
v -0.01325953 0.02040655 0.06457600
v -0.01106472 0.02167083 0.05919831
v -0.01412614 0.01802555 0.06457600
v -0.01412348 0.01802555 0.05919831
v -0.01325749 0.01564625 0.05919832
v -0.01325952 0.01564454 0.06457600
v -0.01106518 0.01437763 0.06457600
v -0.01106472 0.01438026 0.05919832
v -0.00857119 0.01481993 0.05919832
v -0.00856986 0.01481762 0.06457600
v -0.00694116 0.01675864 0.06457600
v -0.00694366 0.01675955 0.05919832
v -0.00694366 0.01929154 0.05919832
v -0.00694116 0.01929245 0.06457600
v -0.00857119 0.02123115 0.05919831
v -0.00856986 0.02123346 0.06457600
v -0.01088000 0.02062328 0.08398794
v -0.01211553 0.01944662 0.07981548
v -0.01244263 0.01972109 0.08398794
v -0.01080586 0.02020276 0.07981548
v -0.01305976 0.01802555 0.08398794
v -0.01263275 0.01802554 0.07981548
v -0.01211552 0.01660447 0.07981548
v -0.01244263 0.01633000 0.08398794
v -0.01088000 0.01542781 0.08398794
v -0.01080586 0.01584833 0.07981548
v -0.00931656 0.01611094 0.07981548
v -0.00910305 0.01574114 0.08398794
v -0.00794323 0.01712336 0.08398794
v -0.00834448 0.01726941 0.07981548
v -0.00834448 0.01878168 0.07981548
v -0.00794323 0.01892773 0.08398794
v -0.00931655 0.01994015 0.07981548
v -0.00910305 0.02030995 0.08398794
v -0.01254698 0.01980865 0.09933863
v -0.01112907 0.01861888 0.09982689
v -0.01090365 0.02075742 0.09933863
v -0.01058225 0.01893460 0.09982689
v -0.01134503 0.01802555 0.09982689
v -0.01319597 0.01802555 0.09933863
v -0.01254698 0.01624244 0.09933863
v -0.01112907 0.01743220 0.09982689
v -0.01090366 0.01529367 0.09933863
v -0.01058225 0.01711649 0.09982689
v -0.00996042 0.01722614 0.09982689
v -0.00903495 0.01562317 0.09933863
v -0.00781523 0.01707677 0.09933863
v -0.00955455 0.01770983 0.09982689
v -0.00955455 0.01834125 0.09982689
v -0.00781523 0.01897431 0.09933863
v -0.00903494 0.02042791 0.09933863
v -0.00996042 0.01882495 0.09982689
v -0.01042195 0.01802555 0.09997242
v -0.01087528 0.02059649 0.05227356
v -0.01106440 0.02166905 0.05104554
v -0.01242180 0.01970361 0.05227356
v -0.01325610 0.02040367 0.05104554
v -0.01412167 0.01802555 0.05104554
v -0.01303256 0.01802555 0.05227356
v -0.01242180 0.01634748 0.05227356
v -0.01325610 0.01564741 0.05104554
v -0.01106440 0.01438204 0.05104554
v -0.01087528 0.01545460 0.05227356
v -0.00911665 0.01576469 0.05227356
v -0.00857210 0.01482150 0.05104554
v -0.00694536 0.01676017 0.05104554
v -0.00796879 0.01713266 0.05227356
v -0.00694536 0.01929092 0.05104554
v -0.00796879 0.01891843 0.05227356
v -0.00911665 0.02028640 0.05227356
v -0.00857210 0.02122959 0.05104554
v -0.01106470 0.02167076 0.05400086
v -0.01325743 0.02040479 0.05400086
v -0.01412341 0.01802555 0.05400086
v -0.01325743 0.01564630 0.05400086
v -0.01106471 0.01438033 0.05400086
v -0.00857123 0.01481999 0.05400086
v -0.00694373 0.01675957 0.05400086
v -0.00694373 0.01929152 0.05400086
v -0.00857122 0.02123109 0.05400086
v -0.01085547 0.02048412 0.05725165
v -0.01106454 0.02166985 0.05567525
v -0.01233439 0.01963027 0.05725165
v -0.01325672 0.02040420 0.05567525
v -0.01412248 0.01802555 0.05567525
v -0.01291846 0.01802554 0.05725165
v -0.01233439 0.01642082 0.05725165
v -0.01325672 0.01564689 0.05567525
v -0.01106454 0.01438124 0.05567525
v -0.01085547 0.01556697 0.05725165
v -0.00917370 0.01586351 0.05725165
v -0.00857169 0.01482079 0.05567525
v -0.00694460 0.01675989 0.05567525
v -0.00807601 0.01717169 0.05725165
v -0.00807601 0.01887940 0.05725165
v -0.00694460 0.01929120 0.05567525
v -0.00917370 0.02018758 0.05725165
v -0.00857169 0.02123029 0.05567525
v -0.01097713 0.02117414 0.07014739
v -0.01287112 0.02008064 0.07014739
v -0.01361912 0.01802555 0.07014739
v -0.01287112 0.01597045 0.07014739
v -0.01097714 0.01487695 0.07014739
v -0.00882337 0.01525672 0.07014739
v -0.00741760 0.01693205 0.07014739
v -0.00741760 0.01911904 0.07014739
v -0.00882337 0.02079437 0.07014739
v -0.01106494 0.02167208 0.08653273
v -0.01325846 0.02040565 0.08653273
v -0.01412475 0.01802555 0.08653273
v -0.01325846 0.01564543 0.08653273
v -0.01106494 0.01437901 0.08653273
v -0.00857056 0.01481883 0.08653273
v -0.00694247 0.01675911 0.08653273
v -0.00694247 0.01929197 0.08653273
v -0.00857056 0.02123225 0.08653273
v -0.01106492 0.02167199 0.09721035
v -0.01325839 0.02040559 0.09721035
v -0.01412465 0.01802555 0.09721035
v -0.01325838 0.01564550 0.09721035
v -0.01106492 0.01437910 0.09721035
v -0.00857061 0.01481891 0.09721035
v -0.00694256 0.01675914 0.09721035
v -0.00694256 0.01929194 0.09721035
v -0.00857060 0.02123217 0.09721035
v -0.01325610 0.02040367 0.04892688
v -0.01106440 0.02166905 0.04892688
v -0.01325610 0.01564741 0.04892688
v -0.01106440 0.01438204 0.04892688
v -0.00857210 0.01482150 0.04892688
v -0.00694536 0.01676017 0.04892688
v -0.00694536 0.01929092 0.04892688
v -0.01106472 0.02167083 0.04077411
v -0.01106518 0.02167346 0.03539642
v -0.01325748 0.02040484 0.04077411
v -0.01325953 0.02040655 0.03539642
v -0.01412614 0.01802555 0.03539642
v -0.01412348 0.01802555 0.04077411
v -0.01325749 0.01564625 0.04077411
v -0.01325952 0.01564454 0.03539642
v -0.01106518 0.01437763 0.03539642
v -0.01106472 0.01438026 0.04077411
v -0.00857119 0.01481993 0.04077411
v -0.00856986 0.01481762 0.03539642
v -0.00694116 0.01675864 0.03539642
v -0.00694366 0.01675955 0.04077411
v -0.00694366 0.01929154 0.04077411
v -0.00694116 0.01929245 0.03539642
v -0.00857119 0.02123115 0.04077411
v -0.00856986 0.02123346 0.03539642
v -0.01080586 0.02020276 0.02015694
v -0.01088000 0.02062328 0.01598449
v -0.01211553 0.01944662 0.02015694
v -0.01244263 0.01972109 0.01598449
v -0.01305976 0.01802555 0.01598449
v -0.01263275 0.01802554 0.02015694
v -0.01211552 0.01660447 0.02015694
v -0.01244263 0.01633000 0.01598449
v -0.01088000 0.01542781 0.01598449
v -0.01080586 0.01584833 0.02015694
v -0.00931656 0.01611094 0.02015694
v -0.00910305 0.01574114 0.01598449
v -0.00794323 0.01712336 0.01598449
v -0.00834448 0.01726941 0.02015694
v -0.00834448 0.01878168 0.02015694
v -0.00794323 0.01892773 0.01598449
v -0.00931655 0.01994015 0.02015694
v -0.00910305 0.02030995 0.01598449
v -0.01112907 0.01861888 0.00014553
v -0.01090365 0.02075742 0.00063379
v -0.01058225 0.01893460 0.00014553
v -0.01254698 0.01980865 0.00063379
v -0.01134503 0.01802555 0.00014553
v -0.01319597 0.01802555 0.00063379
v -0.01254698 0.01624244 0.00063379
v -0.01112907 0.01743220 0.00014553
v -0.01090366 0.01529367 0.00063379
v -0.01058225 0.01711649 0.00014553
v -0.00996042 0.01722614 0.00014553
v -0.00903495 0.01562317 0.00063379
v -0.00955455 0.01770983 0.00014553
v -0.00781523 0.01707677 0.00063379
v -0.00955455 0.01834125 0.00014553
v -0.00781523 0.01897431 0.00063379
v -0.00903494 0.02042791 0.00063379
v -0.00996042 0.01882495 0.00014553
v -0.01042195 0.01802555 0.00000000
v -0.01242180 0.01970361 0.04769887
v -0.01087528 0.02059649 0.04769887
v -0.01412167 0.01802555 0.04892688
v -0.01303256 0.01802555 0.04769887
v -0.01242180 0.01634748 0.04769887
v -0.01087528 0.01545460 0.04769887
v -0.00911665 0.01576469 0.04769887
v -0.00796879 0.01713266 0.04769887
v -0.00796879 0.01891843 0.04769887
v -0.00857210 0.02122959 0.04892688
v -0.00911665 0.02028640 0.04769887
v -0.01106470 0.02167076 0.04597156
v -0.01325743 0.02040479 0.04597156
v -0.01412341 0.01802555 0.04597156
v -0.01325743 0.01564630 0.04597156
v -0.01106471 0.01438033 0.04597156
v -0.00857123 0.01481999 0.04597156
v -0.00694373 0.01675957 0.04597156
v -0.00694373 0.01929152 0.04597156
v -0.00857122 0.02123109 0.04597156
v -0.01325672 0.02040420 0.04429718
v -0.01106454 0.02166985 0.04429718
v -0.01233439 0.01963027 0.04272077
v -0.01085547 0.02048412 0.04272077
v -0.01412248 0.01802555 0.04429718
v -0.01291846 0.01802554 0.04272077
v -0.01325672 0.01564689 0.04429718
v -0.01233439 0.01642082 0.04272077
v -0.01106454 0.01438124 0.04429718
v -0.01085547 0.01556697 0.04272077
v -0.00857169 0.01482079 0.04429718
v -0.00917370 0.01586351 0.04272077
v -0.00694460 0.01675989 0.04429718
v -0.00807601 0.01717169 0.04272077
v -0.00694460 0.01929120 0.04429718
v -0.00807601 0.01887940 0.04272077
v -0.00857169 0.02123029 0.04429718
v -0.00917370 0.02018758 0.04272077
v -0.01287112 0.02008064 0.02982503
v -0.01097713 0.02117414 0.02982503
v -0.01361912 0.01802555 0.02982503
v -0.01287112 0.01597045 0.02982503
v -0.01097714 0.01487695 0.02982503
v -0.00882337 0.01525672 0.02982503
v -0.00741760 0.01693205 0.02982503
v -0.00741760 0.01911904 0.02982503
v -0.00882337 0.02079437 0.02982503
v -0.01106494 0.02167208 0.01343969
v -0.01325846 0.02040565 0.01343969
v -0.01412475 0.01802555 0.01343969
v -0.01325846 0.01564543 0.01343969
v -0.01106494 0.01437901 0.01343969
v -0.00857056 0.01481883 0.01343969
v -0.00694247 0.01675911 0.01343969
v -0.00694247 0.01929197 0.01343969
v -0.00857056 0.02123225 0.01343969
v -0.01325839 0.02040559 0.00276208
v -0.01106492 0.02167199 0.00276208
v -0.01412465 0.01802555 0.00276208
v -0.01325838 0.01564550 0.00276208
v -0.01106492 0.01437910 0.00276208
v -0.00857061 0.01481891 0.00276208
v -0.00694256 0.01675914 0.00276208
v -0.00694256 0.01929194 0.00276208
v -0.00857060 0.02123217 0.00276208
v -0.01110414 -0.02186107 0.06457600
v -0.01329645 -0.02059245 0.05919831
v -0.01110368 -0.02185845 0.05919831
v -0.01329849 -0.02059416 0.06457600
v -0.00861015 -0.02141877 0.05919831
v -0.00860882 -0.02142108 0.06457600
v -0.00698012 -0.01948006 0.06457600
v -0.00698262 -0.01947915 0.05919831
v -0.00698262 -0.01694716 0.05919832
v -0.00698012 -0.01694625 0.06457600
v -0.00861015 -0.01500755 0.05919832
v -0.00860882 -0.01500524 0.06457600
v -0.01110414 -0.01456525 0.06457600
v -0.01110368 -0.01456787 0.05919832
v -0.01329645 -0.01583387 0.05919832
v -0.01329848 -0.01583216 0.06457600
v -0.01416510 -0.01821316 0.06457600
v -0.01416244 -0.01821316 0.05919832
v -0.01091897 -0.02081089 0.08398794
v -0.01215449 -0.01963423 0.07981548
v -0.01084482 -0.02039037 0.07981548
v -0.01248159 -0.01990871 0.08398794
v -0.00935551 -0.02012777 0.07981548
v -0.00914201 -0.02049757 0.08398794
v -0.00798219 -0.01911534 0.08398794
v -0.00838344 -0.01896930 0.07981548
v -0.00838344 -0.01745702 0.07981548
v -0.00798219 -0.01731098 0.08398794
v -0.00935552 -0.01629855 0.07981548
v -0.00914201 -0.01592875 0.08398794
v -0.01091897 -0.01561543 0.08398794
v -0.01084482 -0.01603595 0.07981548
v -0.01215448 -0.01679209 0.07981548
v -0.01248159 -0.01651761 0.08398794
v -0.01309872 -0.01821316 0.08398794
v -0.01267171 -0.01821316 0.07981548
v -0.01094262 -0.02094504 0.09933863
v -0.01116803 -0.01880650 0.09982689
v -0.01258594 -0.01999626 0.09933863
v -0.01062121 -0.01912221 0.09982689
v -0.00999938 -0.01901257 0.09982689
v -0.00907391 -0.02061553 0.09933863
v -0.00785419 -0.01916193 0.09933863
v -0.00959351 -0.01852887 0.09982689
v -0.00959351 -0.01789745 0.09982689
v -0.00785419 -0.01726439 0.09933863
v -0.00907391 -0.01581079 0.09933863
v -0.00999938 -0.01741375 0.09982689
v -0.01094262 -0.01548128 0.09933863
v -0.01062121 -0.01730411 0.09982689
v -0.01116803 -0.01761982 0.09982689
v -0.01258594 -0.01643005 0.09933863
v -0.01138399 -0.01821316 0.09982689
v -0.01323493 -0.01821316 0.09933863
v -0.01046092 -0.01821316 0.09997242
v -0.01246076 -0.01989123 0.05227356
v -0.01110336 -0.02185666 0.05104554
v -0.01091424 -0.02078411 0.05227356
v -0.01329506 -0.02059129 0.05104554
v -0.00915561 -0.02047401 0.05227356
v -0.00861106 -0.02141720 0.05104554
v -0.00698432 -0.01947853 0.05104554
v -0.00800775 -0.01910604 0.05227356
v -0.00800775 -0.01732028 0.05227356
v -0.00698432 -0.01694778 0.05104554
v -0.00915561 -0.01595231 0.05227356
v -0.00861106 -0.01500911 0.05104554
v -0.01110336 -0.01456965 0.05104554
v -0.01091424 -0.01564221 0.05227356
v -0.01246076 -0.01653509 0.05227356
v -0.01329506 -0.01583503 0.05104554
v -0.01416063 -0.01821316 0.05104554
v -0.01307152 -0.01821316 0.05227356
v -0.01329639 -0.02059240 0.05400086
v -0.01110366 -0.02185838 0.05400086
v -0.00861019 -0.02141871 0.05400086
v -0.00698269 -0.01947913 0.05400086
v -0.00698269 -0.01694719 0.05400086
v -0.00861019 -0.01500761 0.05400086
v -0.01110367 -0.01456794 0.05400086
v -0.01329639 -0.01583391 0.05400086
v -0.01416237 -0.01821316 0.05400086
v -0.01237335 -0.01981788 0.05725165
v -0.01110350 -0.02185747 0.05567525
v -0.01089443 -0.02067174 0.05725165
v -0.01329569 -0.02059181 0.05567525
v -0.00921266 -0.02037520 0.05725165
v -0.00861065 -0.02141791 0.05567525
v -0.00698356 -0.01947881 0.05567525
v -0.00811497 -0.01906701 0.05725165
v -0.00811497 -0.01735931 0.05725165
v -0.00698356 -0.01694750 0.05567525
v -0.00921266 -0.01605112 0.05725165
v -0.00861065 -0.01500841 0.05567525
v -0.01110350 -0.01456885 0.05567525
v -0.01089443 -0.01575458 0.05725165
v -0.01237335 -0.01660844 0.05725165
v -0.01329568 -0.01583451 0.05567525
v -0.01416144 -0.01821316 0.05567525
v -0.01295742 -0.01821316 0.05725165
v -0.01101610 -0.02136175 0.07014739
v -0.00886233 -0.02098198 0.07014739
v -0.00745657 -0.01930665 0.07014739
v -0.00745657 -0.01711967 0.07014739
v -0.00886233 -0.01544434 0.07014739
v -0.01101609 -0.01506457 0.07014739
v -0.01291008 -0.01615806 0.07014739
v -0.01365808 -0.01821316 0.07014739
v -0.01291008 -0.02026825 0.07014739
v -0.01329742 -0.02059326 0.08653273
v -0.01110390 -0.02185970 0.08653273
v -0.00860952 -0.02141987 0.08653273
v -0.00698143 -0.01947959 0.08653273
v -0.00698143 -0.01694673 0.08653273
v -0.00860952 -0.01500645 0.08653273
v -0.01110390 -0.01456662 0.08653273
v -0.01329742 -0.01583305 0.08653273
v -0.01416371 -0.01821316 0.08653273
v -0.01329735 -0.02059320 0.09721035
v -0.01110388 -0.02185960 0.09721035
v -0.00860957 -0.02141979 0.09721035
v -0.00698152 -0.01947955 0.09721035
v -0.00698152 -0.01694676 0.09721035
v -0.00860957 -0.01500653 0.09721035
v -0.01110388 -0.01456672 0.09721035
v -0.01329735 -0.01583311 0.09721035
v -0.01416361 -0.01821316 0.09721035
v -0.01110336 -0.02185666 0.04892688
v -0.01329506 -0.02059129 0.04892688
v -0.00698432 -0.01947853 0.04892688
v -0.00698432 -0.01694778 0.04892688
v -0.00861106 -0.01500911 0.04892688
v -0.01110336 -0.01456965 0.04892688
v -0.01329506 -0.01583503 0.04892688
v -0.01329645 -0.02059245 0.04077411
v -0.01110414 -0.02186107 0.03539642
v -0.01110368 -0.02185845 0.04077411
v -0.01329849 -0.02059416 0.03539642
v -0.00861015 -0.02141877 0.04077411
v -0.00860882 -0.02142108 0.03539642
v -0.00698012 -0.01948006 0.03539642
v -0.00698262 -0.01947915 0.04077411
v -0.00698262 -0.01694716 0.04077411
v -0.00698012 -0.01694625 0.03539642
v -0.00861015 -0.01500755 0.04077411
v -0.00860882 -0.01500524 0.03539642
v -0.01110414 -0.01456525 0.03539642
v -0.01110368 -0.01456787 0.04077411
v -0.01329645 -0.01583387 0.04077411
v -0.01329848 -0.01583216 0.03539642
v -0.01416510 -0.01821316 0.03539642
v -0.01416244 -0.01821316 0.04077411
v -0.01215449 -0.01963423 0.02015694
v -0.01091897 -0.02081089 0.01598449
v -0.01084482 -0.02039037 0.02015694
v -0.01248159 -0.01990871 0.01598449
v -0.00935551 -0.02012777 0.02015694
v -0.00914201 -0.02049757 0.01598449
v -0.00798219 -0.01911534 0.01598449
v -0.00838344 -0.01896930 0.02015694
v -0.00838344 -0.01745702 0.02015694
v -0.00798219 -0.01731098 0.01598449
v -0.00935552 -0.01629855 0.02015694
v -0.00914201 -0.01592875 0.01598449
v -0.01091897 -0.01561543 0.01598449
v -0.01084482 -0.01603595 0.02015694
v -0.01215448 -0.01679209 0.02015694
v -0.01248159 -0.01651761 0.01598449
v -0.01309872 -0.01821316 0.01598449
v -0.01267171 -0.01821316 0.02015694
v -0.01116803 -0.01880650 0.00014553
v -0.01094262 -0.02094504 0.00063379
v -0.01258594 -0.01999626 0.00063379
v -0.01062121 -0.01912221 0.00014553
v -0.00999938 -0.01901257 0.00014553
v -0.00907391 -0.02061553 0.00063379
v -0.00959351 -0.01852887 0.00014553
v -0.00785419 -0.01916193 0.00063379
v -0.00959351 -0.01789745 0.00014553
v -0.00785419 -0.01726439 0.00063379
v -0.00907391 -0.01581079 0.00063379
v -0.00999938 -0.01741375 0.00014553
v -0.01094262 -0.01548128 0.00063379
v -0.01062121 -0.01730411 0.00014553
v -0.01116803 -0.01761982 0.00014553
v -0.01258594 -0.01643005 0.00063379
v -0.01138399 -0.01821316 0.00014553
v -0.01323493 -0.01821316 0.00063379
v -0.01046092 -0.01821316 0.00000000
v -0.01246076 -0.01989123 0.04769887
v -0.01091424 -0.02078411 0.04769887
v -0.00861106 -0.02141720 0.04892688
v -0.00915561 -0.02047401 0.04769887
v -0.00800775 -0.01910604 0.04769887
v -0.00800775 -0.01732028 0.04769887
v -0.00915561 -0.01595231 0.04769887
v -0.01091424 -0.01564221 0.04769887
v -0.01246076 -0.01653509 0.04769887
v -0.01416063 -0.01821316 0.04892688
v -0.01307152 -0.01821316 0.04769887
v -0.01110366 -0.02185838 0.04597156
v -0.01329639 -0.02059240 0.04597156
v -0.00861019 -0.02141871 0.04597156
v -0.00698269 -0.01947913 0.04597156
v -0.00698269 -0.01694719 0.04597156
v -0.00861019 -0.01500761 0.04597156
v -0.01110367 -0.01456794 0.04597156
v -0.01329639 -0.01583391 0.04597156
v -0.01416237 -0.01821316 0.04597156
v -0.01237335 -0.01981788 0.04272077
v -0.01110350 -0.02185747 0.04429718
v -0.01329569 -0.02059181 0.04429718
v -0.01089443 -0.02067174 0.04272077
v -0.00861065 -0.02141791 0.04429718
v -0.00921266 -0.02037520 0.04272077
v -0.00698356 -0.01947881 0.04429718
v -0.00811497 -0.01906701 0.04272077
v -0.00698356 -0.01694750 0.04429718
v -0.00811497 -0.01735931 0.04272077
v -0.00861065 -0.01500841 0.04429718
v -0.00921266 -0.01605112 0.04272077
v -0.01110350 -0.01456885 0.04429718
v -0.01089443 -0.01575458 0.04272077
v -0.01329568 -0.01583451 0.04429718
v -0.01237335 -0.01660844 0.04272077
v -0.01416144 -0.01821316 0.04429718
v -0.01295742 -0.01821316 0.04272077
v -0.01291008 -0.02026825 0.02982503
v -0.01101610 -0.02136175 0.02982503
v -0.00886233 -0.02098198 0.02982503
v -0.00745657 -0.01930665 0.02982503
v -0.00745657 -0.01711967 0.02982503
v -0.00886233 -0.01544434 0.02982503
v -0.01101609 -0.01506457 0.02982503
v -0.01291008 -0.01615806 0.02982503
v -0.01365808 -0.01821316 0.02982503
v -0.01110390 -0.02185970 0.01343969
v -0.01329742 -0.02059326 0.01343969
v -0.00860952 -0.02141987 0.01343969
v -0.00698143 -0.01947959 0.01343969
v -0.00698143 -0.01694673 0.01343969
v -0.00860952 -0.01500645 0.01343969
v -0.01110390 -0.01456662 0.01343969
v -0.01329742 -0.01583305 0.01343969
v -0.01416371 -0.01821316 0.01343969
v -0.01329735 -0.02059320 0.00276208
v -0.01110388 -0.02185960 0.00276208
v -0.00860957 -0.02141979 0.00276208
v -0.00698152 -0.01947955 0.00276208
v -0.00698152 -0.01694676 0.00276208
v -0.00860957 -0.01500653 0.00276208
v -0.01110388 -0.01456672 0.00276208
v -0.01329735 -0.01583311 0.00276208
v -0.01416361 -0.01821316 0.00276208
v 0.00861883 0.00001907 0.01507753
v 0.00557340 0.00203711 0.01219059
v 0.00810048 0.00295875 0.01507688
v 0.00592944 0.00001792 0.01219124
v 0.00454824 0.00381275 0.01218973
v 0.00660797 0.00554385 0.01507601
v 0.00297759 0.00513069 0.01218875
v 0.00432131 0.00746258 0.01507503
v 0.00151631 0.00848352 0.01507405
v 0.00105090 0.00583195 0.01218778
v -0.00099944 0.00583195 0.01218693
v -0.00146871 0.00848352 0.01507320
v -0.00292614 0.00513069 0.01218630
v -0.00427371 0.00746258 0.01507257
v -0.00449679 0.00381276 0.01218598
v -0.00656037 0.00554385 0.01507225
v -0.00805288 0.00295874 0.01507226
v -0.00552196 0.00203711 0.01218599
v -0.00857122 0.00001908 0.01507262
v -0.00587800 0.00001792 0.01218635
v -0.00552196 -0.00200127 0.01218700
v -0.00805288 -0.00292060 0.01507327
v -0.00656038 -0.00550570 0.01507414
v -0.00449679 -0.00377692 0.01218786
v -0.00292614 -0.00509485 0.01218884
v -0.00427372 -0.00742444 0.01507512
v -0.00146872 -0.00844537 0.01507610
v -0.00099945 -0.00579611 0.01218982
v 0.00151630 -0.00844538 0.01507695
v 0.00105089 -0.00579611 0.01219067
v 0.00297758 -0.00509485 0.01219129
v 0.00432131 -0.00742444 0.01507758
v 0.00660797 -0.00550571 0.01507791
v 0.00454823 -0.00377692 0.01219161
v 0.00557340 -0.00200127 0.01219160
v 0.00810048 -0.00292061 0.01507789
v 0.01033507 0.00002023 0.01682866
v 0.00971311 0.00354755 0.01682809
v 0.00792224 0.00664942 0.01682734
v 0.00517847 0.00895172 0.01682648
v 0.00181274 0.01017673 0.01682563
v -0.00176900 0.01017673 0.01682489
v -0.00513472 0.00895171 0.01682434
v -0.00787848 0.00664941 0.01682406
v -0.00966935 0.00354755 0.01682408
v -0.01029131 0.00002023 0.01682439
v -0.00966936 -0.00350709 0.01682495
v -0.00787849 -0.00660896 0.01682571
v -0.00513473 -0.00891126 0.01682656
v -0.00176900 -0.01013629 0.01682741
v 0.00181273 -0.01013630 0.01682816
v 0.00517847 -0.00891127 0.01682870
v 0.00792224 -0.00660898 0.01682898
v 0.00971311 -0.00350710 0.01682897
v 0.01220149 0.00002139 0.02039089
v 0.01146686 0.00418772 0.02039023
v 0.00935155 0.00785154 0.02038936
v 0.00611072 0.01057093 0.02038838
v 0.00213524 0.01201788 0.02038740
v -0.00209537 0.01201789 0.02038655
v -0.00607084 0.01057093 0.02038591
v -0.00931168 0.00785155 0.02038559
v -0.01142698 0.00418773 0.02038561
v -0.01216162 0.00002139 0.02038596
v -0.01142699 -0.00414495 0.02038662
v -0.00931168 -0.00780877 0.02038748
v -0.00607085 -0.01052815 0.02038847
v -0.00209538 -0.01197511 0.02038945
v 0.00213524 -0.01197511 0.02039031
v 0.00611071 -0.01052816 0.02039093
v 0.00935155 -0.00780878 0.02039126
v 0.01146685 -0.00414496 0.02039124
v 0.00001608 0.00002370 0.02876738
v 0.00235848 0.00086696 0.01115657
v 0.00250819 0.00001791 0.01115689
v 0.00192741 0.00161360 0.01115614
v 0.00126697 0.00216778 0.01115565
v 0.00045681 0.00246266 0.01115516
v -0.00040534 0.00246266 0.01115474
v -0.00121550 0.00216779 0.01115442
v -0.00187595 0.00161361 0.01115426
v -0.00230702 0.00086696 0.01115427
v -0.00245673 0.00001791 0.01115445
v -0.00230702 -0.00083114 0.01115477
v -0.00187594 -0.00157778 0.01115520
v -0.00121550 -0.00213196 0.01115569
v -0.00040534 -0.00242683 0.01115618
v 0.00045681 -0.00242683 0.01115660
v 0.00126696 -0.00213196 0.01115691
v 0.00192740 -0.00157778 0.01115708
v 0.00235848 -0.00083114 0.01115707
v 0.00002574 0.00001791 0.01115460
v 0.00440321 -0.00755969 0.06283178
v 0.00673142 -0.00560609 0.06283276
v 0.00002760 0.00001908 0.06287733
v -0.00872360 0.00001908 0.06282936
v -0.00819584 0.00301217 0.06283001
v 0.00003533 0.00002371 0.04915984
v -0.00667621 0.00564424 0.06283088
v -0.00434800 0.00759785 0.06283187
v -0.00149203 0.00863733 0.06283285
v 0.00154723 0.00863733 0.06283370
v 0.00440321 0.00759784 0.06283433
v 0.00673141 0.00564424 0.06283466
v 0.00825104 0.00301217 0.06283464
v 0.00877881 0.00001908 0.06283429
v 0.00825105 -0.00297401 0.06283363
v 0.00154724 -0.00859918 0.06283079
v -0.00149202 -0.00859918 0.06282994
v -0.00434800 -0.00755969 0.06282931
v -0.00667621 -0.00560610 0.06282899
v -0.00819584 -0.00297402 0.06282900
v 0.00010018 0.00000630 0.06283097
v 0.00066495 -0.00018679 0.05234398
v -0.00070961 -0.00018679 0.02639463
v 0.00066495 -0.00018679 0.02639463
v -0.00070961 -0.00018679 0.05234398
v -0.00006196 0.00062434 0.05234398
v -0.00006196 -0.00075022 0.02639463
v -0.00006196 -0.00075022 0.05234398
v -0.00006196 0.00062434 0.02639463
v 0.00074917 -0.00002332 0.05234398
v -0.00062539 -0.00002332 0.02639463
v -0.00062539 -0.00002332 0.05234398
v 0.00074917 -0.00002332 0.02639463
v 0.00010151 -0.00083445 0.05234398
v 0.00010152 0.00054011 0.02639463
v 0.00010152 0.00054011 0.05234398
v 0.00010152 -0.00083445 0.02639463
f 1 2 3
f 2 1 4
f 1 5 6
f 5 1 3
f 7 5 8
f 5 7 6
f 7 9 10
f 9 7 8
f 11 9 12
f 9 11 10
f 13 12 14
f 12 13 11
f 13 15 16
f 15 13 14
f 17 15 18
f 15 17 16
f 17 2 4
f 2 17 18
f 19 20 21
f 20 19 22
f 21 20 23
f 23 20 24
f 23 25 26
f 25 23 24
f 26 25 27
f 27 25 28
f 27 29 30
f 29 27 28
f 30 31 32
f 31 30 29
f 31 33 32
f 33 31 34
f 33 35 36
f 35 33 34
f 36 35 19
f 19 35 22
f 2 21 3
f 21 2 19
f 5 3 21
f 5 21 23
f 5 26 8
f 26 5 23
f 8 26 9
f 9 26 27
f 27 12 9
f 12 27 30
f 12 32 14
f 32 12 30
f 32 15 14
f 15 32 33
f 15 36 18
f 36 15 33
f 2 18 36
f 2 36 19
f 37 38 39
f 37 39 40
f 37 41 42
f 41 37 40
f 43 42 41
f 43 41 44
f 43 45 46
f 45 43 44
f 45 47 46
f 47 45 48
f 48 49 50
f 48 50 47
f 50 51 52
f 51 50 49
f 53 52 51
f 53 51 54
f 53 39 38
f 39 53 54
f 55 56 57
f 56 55 58
f 57 56 59
f 59 56 60
f 59 61 62
f 61 59 60
f 62 61 63
f 63 61 64
f 64 65 63
f 65 64 66
f 65 67 68
f 67 65 66
f 67 69 68
f 69 67 70
f 69 71 72
f 71 69 70
f 72 71 55
f 55 71 58
f 73 37 74
f 37 73 38
f 74 42 75
f 42 74 37
f 43 75 42
f 75 43 76
f 76 46 77
f 46 76 43
f 46 78 77
f 46 47 78
f 47 50 79
f 47 79 78
f 80 79 50
f 80 50 52
f 52 81 80
f 81 52 53
f 38 81 53
f 81 38 73
f 58 74 56
f 74 58 73
f 56 75 60
f 75 56 74
f 76 60 75
f 60 76 61
f 61 77 64
f 77 61 76
f 77 66 64
f 77 78 66
f 78 79 67
f 78 67 66
f 70 67 79
f 70 79 80
f 80 71 70
f 71 80 81
f 73 71 81
f 71 73 58
f 40 39 4
f 40 4 1
f 40 6 41
f 6 40 1
f 44 41 6
f 44 6 7
f 44 10 45
f 10 44 7
f 10 48 45
f 48 10 11
f 49 48 11
f 49 11 13
f 49 16 51
f 16 49 13
f 54 51 16
f 54 16 17
f 54 4 39
f 4 54 17
f 82 83 84
f 83 82 85
f 82 86 87
f 82 87 85
f 88 87 86
f 87 88 89
f 88 90 91
f 88 91 89
f 92 91 90
f 91 92 93
f 92 94 95
f 92 95 93
f 96 95 94
f 95 96 97
f 96 84 83
f 96 83 97
f 98 99 100
f 99 98 101
f 102 98 100
f 98 102 103
f 104 102 105
f 102 104 103
f 106 104 105
f 104 106 107
f 106 108 107
f 108 106 109
f 110 108 109
f 108 110 111
f 110 112 111
f 112 110 113
f 99 112 113
f 112 99 101
f 83 100 99
f 100 83 85
f 87 100 85
f 100 87 102
f 87 105 102
f 105 87 89
f 91 105 89
f 105 91 106
f 91 109 106
f 109 91 93
f 95 109 93
f 109 95 110
f 95 113 110
f 113 95 97
f 83 113 97
f 113 83 99
f 114 115 116
f 115 114 117
f 118 114 119
f 114 118 117
f 120 118 119
f 118 120 121
f 122 120 123
f 120 122 121
f 124 122 123
f 122 124 125
f 126 124 127
f 124 126 125
f 128 126 127
f 126 128 129
f 115 128 116
f 128 115 129
f 114 130 131
f 130 114 116
f 119 131 132
f 131 119 114
f 132 120 119
f 120 132 133
f 123 120 134
f 120 133 134
f 123 135 124
f 135 123 134
f 136 124 135
f 127 124 136
f 128 127 137
f 127 136 137
f 137 116 128
f 116 137 130
f 130 137 138
f 130 138 131
f 131 138 132
f 132 138 133
f 133 138 134
f 134 138 135
f 135 138 136
f 136 138 137
f 117 84 115
f 84 117 82
f 117 86 82
f 86 117 118
f 121 86 118
f 86 121 88
f 90 121 122
f 121 90 88
f 125 90 122
f 90 125 92
f 94 125 126
f 125 94 92
f 129 94 126
f 94 129 96
f 129 84 96
f 84 129 115
f 22 139 20
f 139 22 140
f 20 139 24
f 24 139 141
f 24 142 25
f 142 24 141
f 25 142 28
f 28 142 143
f 28 144 29
f 144 28 143
f 29 145 31
f 145 29 144
f 145 34 31
f 34 145 146
f 34 147 35
f 147 34 146
f 35 147 22
f 22 147 140
f 101 148 112
f 148 101 149
f 149 98 150
f 98 149 101
f 98 151 150
f 151 98 103
f 152 103 104
f 103 152 151
f 152 107 153
f 107 152 104
f 107 108 153
f 153 108 154
f 155 108 111
f 108 155 154
f 155 111 148
f 111 112 148
f 156 157 158
f 157 156 159
f 160 158 157
f 160 157 161
f 160 162 163
f 162 160 161
f 164 163 162
f 164 162 165
f 164 166 167
f 166 164 165
f 167 168 169
f 168 167 166
f 170 169 168
f 170 168 171
f 170 172 173
f 172 170 171
f 156 173 172
f 156 172 159
f 174 175 176
f 175 177 176
f 178 179 176
f 176 177 178
f 180 178 181
f 178 180 179
f 182 183 184
f 183 182 185
f 184 186 182
f 186 184 187
f 188 189 186
f 186 187 188
f 190 188 191
f 188 190 189
f 175 174 190
f 190 191 175
f 156 177 175
f 177 156 158
f 158 160 177
f 178 177 160
f 160 181 178
f 181 160 163
f 180 183 185
f 183 180 181
f 164 167 183
f 184 183 167
f 167 187 184
f 187 167 169
f 169 170 187
f 188 187 170
f 170 191 188
f 191 170 173
f 173 156 191
f 175 191 156
f 192 193 194
f 195 194 193
f 193 196 195
f 196 193 197
f 197 198 196
f 199 196 198
f 200 199 198
f 201 199 200
f 200 202 201
f 203 201 202
f 202 204 203
f 204 202 205
f 205 206 204
f 206 205 207
f 207 208 206
f 209 206 208
f 208 194 209
f 194 208 192
f 210 211 212
f 211 210 213
f 214 210 215
f 210 212 215
f 216 215 217
f 215 216 214
f 218 216 219
f 216 217 219
f 220 218 221
f 218 219 221
f 222 221 223
f 221 222 220
f 224 222 225
f 222 223 225
f 226 225 227
f 225 226 224
f 213 226 211
f 226 227 211
f 228 192 229
f 193 192 228
f 197 193 230
f 230 193 228
f 231 197 230
f 197 231 198
f 232 198 231
f 200 198 232
f 202 232 233
f 232 202 200
f 233 205 202
f 205 233 234
f 234 207 205
f 207 234 235
f 208 235 236
f 235 208 207
f 208 229 192
f 229 208 236
f 210 229 213
f 228 229 210
f 230 228 214
f 214 228 210
f 216 230 214
f 230 216 231
f 218 231 216
f 232 231 218
f 233 218 220
f 218 233 232
f 220 234 233
f 234 220 222
f 222 235 234
f 235 222 224
f 236 224 226
f 224 236 235
f 236 213 229
f 213 236 226
f 194 195 159
f 157 159 195
f 195 161 157
f 161 195 196
f 196 199 161
f 162 161 199
f 199 165 162
f 165 199 201
f 201 203 165
f 166 165 203
f 203 204 166
f 168 166 204
f 204 171 168
f 171 204 206
f 206 209 171
f 172 171 209
f 209 159 172
f 159 209 194
f 237 238 239
f 238 237 240
f 241 237 242
f 239 242 237
f 243 242 244
f 242 243 241
f 245 243 246
f 244 246 243
f 247 246 248
f 246 247 245
f 249 247 250
f 248 250 247
f 251 250 252
f 250 251 249
f 240 251 238
f 252 238 251
f 253 254 255
f 254 253 256
f 257 258 253
f 258 256 253
f 259 258 257
f 258 259 260
f 261 262 259
f 262 260 259
f 263 262 261
f 262 263 264
f 264 263 265
f 266 265 263
f 267 265 266
f 265 267 268
f 255 254 267
f 254 268 267
f 256 238 254
f 238 256 239
f 256 258 242
f 256 242 239
f 260 242 258
f 242 260 244
f 260 262 246
f 260 246 244
f 264 246 262
f 246 264 248
f 264 265 250
f 264 250 248
f 268 250 265
f 250 268 252
f 268 254 238
f 268 238 252
f 269 270 271
f 271 272 269
f 273 271 270
f 271 273 274
f 273 275 276
f 273 276 274
f 277 276 275
f 276 277 278
f 277 279 280
f 277 280 278
f 281 280 279
f 280 281 282
f 281 283 284
f 281 284 282
f 269 284 283
f 284 269 272
f 272 285 286
f 285 272 271
f 271 274 287
f 271 287 285
f 274 276 288
f 274 288 287
f 288 278 289
f 278 288 276
f 280 289 278
f 289 280 290
f 282 290 280
f 290 282 291
f 291 284 292
f 284 291 282
f 284 272 286
f 284 286 292
f 286 293 292
f 285 293 286
f 287 293 285
f 288 293 287
f 289 293 288
f 290 293 289
f 291 293 290
f 292 293 291
f 240 237 270
f 240 270 269
f 241 270 237
f 270 241 273
f 241 243 275
f 241 275 273
f 245 275 243
f 275 245 277
f 245 247 279
f 245 279 277
f 249 279 247
f 279 249 281
f 249 251 283
f 249 283 281
f 240 283 251
f 283 240 269
f 174 139 140
f 139 174 176
f 141 139 179
f 139 176 179
f 179 142 141
f 142 179 180
f 143 142 185
f 142 180 185
f 144 185 182
f 185 144 143
f 182 145 144
f 145 182 186
f 146 145 189
f 145 186 189
f 189 147 146
f 147 189 190
f 140 147 174
f 147 190 174
f 253 149 150
f 149 253 255
f 151 253 150
f 253 151 257
f 257 151 152
f 257 152 259
f 261 152 153
f 152 261 259
f 263 153 154
f 153 263 261
f 263 154 155
f 263 155 266
f 267 266 148
f 148 266 155
f 255 148 149
f 148 255 267
f 163 164 181
f 183 181 164
f 294 295 296
f 295 294 297
f 298 296 295
f 298 295 299
f 300 298 299
f 300 299 301
f 302 300 301
f 302 301 303
f 302 304 305
f 304 302 303
f 306 305 304
f 306 304 307
f 306 308 309
f 308 306 307
f 310 309 308
f 310 308 311
f 312 310 311
f 312 311 313
f 314 312 313
f 314 313 315
f 314 316 317
f 316 314 315
f 318 317 316
f 318 316 319
f 320 318 319
f 320 319 321
f 322 320 321
f 322 321 323
f 324 322 323
f 324 323 325
f 324 297 294
f 297 324 325
f 326 327 328
f 328 327 329
f 329 327 330
f 331 327 332
f 332 327 333
f 333 327 334
f 334 327 335
f 335 327 336
f 336 327 337
f 337 327 338
f 338 327 339
f 339 327 340
f 340 327 341
f 341 327 342
f 342 327 326
f 343 344 345
f 344 346 345
f 346 347 345
f 347 348 345
f 348 349 345
f 349 350 345
f 350 351 345
f 351 352 345
f 352 353 345
f 353 354 345
f 354 355 345
f 355 356 345
f 356 357 345
f 357 358 345
f 358 359 345
f 359 343 345
f 360 361 362
f 362 361 363
f 364 362 363
f 364 363 365
f 366 364 365
f 366 365 367
f 366 368 369
f 368 366 367
f 370 369 368
f 370 368 371
f 372 370 371
f 372 371 373
f 374 372 373
f 374 373 375
f 376 374 375
f 376 375 377
f 378 376 377
f 378 377 379
f 380 378 379
f 380 379 381
f 382 380 381
f 382 381 383
f 384 382 383
f 384 383 385
f 386 384 385
f 386 385 387
f 388 386 387
f 388 387 389
f 390 388 389
f 390 389 391
f 360 390 391
f 360 391 361
f 392 393 394
f 392 394 395
f 395 394 396
f 394 397 396
f 397 394 398
f 398 394 399
f 399 394 400
f 400 394 401
f 401 394 402
f 402 394 403
f 403 394 404
f 404 394 405
f 405 394 406
f 406 394 407
f 407 394 408
f 408 394 393
f 409 410 411
f 409 412 410
f 412 413 410
f 413 414 410
f 414 415 410
f 415 416 410
f 416 417 410
f 417 418 410
f 418 419 410
f 419 420 410
f 420 421 410
f 421 422 410
f 422 423 410
f 423 424 410
f 424 425 410
f 425 411 410
f 426 427 428
f 427 426 429
f 430 427 431
f 427 430 428
f 430 432 433
f 432 430 431
f 434 432 435
f 432 434 433
f 436 435 437
f 435 436 434
f 436 438 439
f 438 436 437
f 440 438 441
f 438 440 439
f 440 442 443
f 442 440 441
f 426 442 429
f 442 426 443
f 444 445 446
f 445 444 447
f 448 445 449
f 445 448 446
f 448 450 451
f 450 448 449
f 452 450 453
f 450 452 451
f 454 453 455
f 453 454 452
f 454 456 457
f 456 454 455
f 458 456 459
f 456 458 457
f 458 460 461
f 460 458 459
f 444 460 447
f 460 444 461
f 462 463 464
f 462 464 465
f 464 466 467
f 466 464 463
f 468 467 466
f 467 468 469
f 470 469 468
f 469 470 471
f 471 472 473
f 472 471 470
f 474 472 475
f 472 474 473
f 475 476 477
f 475 477 474
f 477 476 478
f 476 479 478
f 465 479 462
f 479 465 478
f 465 464 480
f 464 467 480
f 467 469 480
f 469 471 480
f 471 473 480
f 473 474 480
f 474 477 480
f 477 478 480
f 478 465 480
f 481 482 483
f 483 482 484
f 483 485 486
f 485 483 484
f 486 485 487
f 487 485 488
f 487 489 490
f 489 487 488
f 490 491 492
f 491 490 489
f 493 492 491
f 492 493 494
f 494 495 496
f 495 494 493
f 496 495 497
f 497 495 498
f 497 482 481
f 482 497 498
f 499 483 500
f 483 499 481
f 500 483 501
f 501 483 486
f 501 487 502
f 487 501 486
f 502 487 503
f 503 487 490
f 503 490 504
f 504 490 492
f 504 494 505
f 494 504 492
f 505 494 506
f 506 494 496
f 506 497 507
f 497 506 496
f 507 497 499
f 499 497 481
f 508 509 510
f 510 509 511
f 510 512 513
f 512 510 511
f 513 512 514
f 514 512 515
f 514 516 517
f 516 514 515
f 517 518 519
f 518 517 516
f 519 518 520
f 520 518 521
f 520 522 523
f 522 520 521
f 523 522 524
f 524 522 525
f 524 509 508
f 509 524 525
f 429 510 427
f 510 429 508
f 427 510 431
f 431 510 513
f 431 514 432
f 514 431 513
f 432 514 435
f 435 514 517
f 435 517 437
f 437 517 519
f 437 520 438
f 520 437 519
f 520 441 438
f 441 520 523
f 441 524 442
f 524 441 523
f 442 524 429
f 429 524 508
f 526 426 527
f 527 426 428
f 527 430 528
f 430 527 428
f 528 430 529
f 529 430 433
f 529 434 530
f 434 529 433
f 530 436 531
f 436 530 434
f 531 436 532
f 532 436 439
f 532 440 533
f 440 532 439
f 533 440 534
f 534 440 443
f 534 426 526
f 426 534 443
f 447 526 445
f 445 526 527
f 445 528 449
f 528 445 527
f 449 528 450
f 450 528 529
f 450 530 453
f 530 450 529
f 453 531 455
f 531 453 530
f 455 531 456
f 456 531 532
f 456 533 459
f 533 456 532
f 459 533 460
f 460 533 534
f 460 526 447
f 526 460 534
f 535 446 536
f 446 535 444
f 536 446 537
f 537 446 448
f 537 451 538
f 451 537 448
f 538 451 539
f 539 451 452
f 539 452 540
f 540 452 454
f 540 457 541
f 457 540 454
f 457 542 541
f 542 457 458
f 542 461 543
f 461 542 458
f 543 461 535
f 535 461 444
f 544 535 545
f 545 535 536
f 545 537 546
f 537 545 536
f 546 537 547
f 547 537 538
f 547 539 548
f 539 547 538
f 548 539 549
f 549 539 540
f 549 540 550
f 550 540 541
f 550 542 551
f 542 550 541
f 551 542 552
f 552 542 543
f 552 535 544
f 535 552 543
f 544 463 462
f 463 544 545
f 463 546 466
f 546 463 545
f 466 546 468
f 468 546 547
f 468 548 470
f 548 468 547
f 470 549 472
f 549 470 548
f 472 549 475
f 475 549 550
f 475 551 476
f 551 475 550
f 476 551 479
f 479 551 552
f 479 544 462
f 544 479 552
f 509 499 511
f 511 499 500
f 511 501 512
f 501 511 500
f 512 501 515
f 515 501 502
f 515 503 516
f 503 515 502
f 516 504 518
f 504 516 503
f 518 504 521
f 521 504 505
f 521 506 522
f 506 521 505
f 522 506 525
f 525 506 507
f 525 499 509
f 499 525 507
f 484 553 554
f 553 484 482
f 488 485 555
f 488 555 556
f 489 488 556
f 489 556 557
f 491 489 557
f 491 557 558
f 482 559 553
f 559 482 498
f 560 561 562
f 562 561 563
f 562 564 565
f 564 562 563
f 565 564 566
f 566 564 567
f 566 568 569
f 568 566 567
f 569 570 571
f 570 569 568
f 571 570 572
f 572 570 573
f 572 574 575
f 574 572 573
f 575 574 576
f 576 574 577
f 576 561 560
f 561 576 577
f 578 579 580
f 580 579 581
f 580 582 583
f 582 580 581
f 583 582 584
f 584 582 585
f 584 586 587
f 586 584 585
f 587 588 589
f 588 587 586
f 589 588 590
f 588 591 590
f 590 592 593
f 592 590 591
f 593 592 594
f 592 595 594
f 594 579 578
f 579 594 595
f 596 597 598
f 599 597 596
f 600 596 601
f 596 600 599
f 602 601 603
f 601 602 600
f 604 603 605
f 603 604 602
f 606 605 607
f 605 606 604
f 606 608 609
f 608 606 607
f 610 609 608
f 611 609 610
f 612 613 611
f 612 611 610
f 613 598 597
f 598 613 612
f 598 614 596
f 596 614 601
f 601 614 603
f 603 614 605
f 605 614 607
f 607 614 608
f 608 614 610
f 610 614 612
f 612 614 598
f 554 553 615
f 553 616 615
f 615 555 554
f 555 615 617
f 556 555 618
f 555 617 618
f 618 557 556
f 557 618 619
f 558 619 620
f 619 558 557
f 620 621 558
f 621 620 622
f 622 623 621
f 623 622 624
f 559 623 625
f 623 624 625
f 625 553 559
f 553 625 616
f 626 615 616
f 615 626 627
f 617 615 628
f 615 627 628
f 628 618 617
f 618 628 629
f 630 619 618
f 618 629 630
f 619 630 631
f 619 631 620
f 631 622 620
f 622 631 632
f 624 622 633
f 622 632 633
f 633 625 624
f 625 633 634
f 616 625 626
f 625 634 626
f 635 636 637
f 636 638 637
f 637 639 635
f 639 637 640
f 641 639 642
f 639 640 642
f 642 643 641
f 643 642 644
f 645 644 646
f 644 645 643
f 647 645 648
f 645 646 648
f 649 648 650
f 648 649 647
f 651 649 652
f 649 650 652
f 652 636 651
f 636 652 638
f 560 637 638
f 637 560 562
f 640 637 565
f 637 562 565
f 565 642 640
f 642 565 566
f 569 644 642
f 642 566 569
f 644 569 571
f 644 571 646
f 571 648 646
f 648 571 572
f 650 648 575
f 648 572 575
f 575 652 650
f 652 575 576
f 638 652 560
f 652 576 560
f 653 563 561
f 561 654 653
f 564 653 655
f 653 564 563
f 656 567 564
f 564 655 656
f 568 656 657
f 656 568 567
f 570 657 658
f 657 570 568
f 659 573 570
f 570 658 659
f 574 659 660
f 659 574 573
f 661 577 574
f 574 660 661
f 561 661 654
f 661 561 577
f 580 653 654
f 654 578 580
f 655 580 583
f 580 655 653
f 584 656 655
f 655 583 584
f 657 584 587
f 584 657 656
f 658 587 589
f 587 658 657
f 590 659 658
f 658 589 590
f 660 590 593
f 590 660 659
f 594 661 660
f 660 593 594
f 654 594 578
f 594 654 661
f 662 581 579
f 581 662 663
f 664 582 581
f 581 663 664
f 664 585 582
f 585 664 665
f 666 586 585
f 585 665 666
f 588 586 667
f 586 666 667
f 667 591 588
f 591 667 668
f 592 591 669
f 591 668 669
f 669 595 592
f 595 669 670
f 579 595 662
f 595 670 662
f 671 663 662
f 662 672 671
f 664 671 673
f 671 664 663
f 674 665 664
f 664 673 674
f 666 674 675
f 674 666 665
f 667 675 676
f 675 667 666
f 677 668 667
f 667 676 677
f 669 677 678
f 677 669 668
f 679 670 669
f 669 678 679
f 662 679 672
f 679 662 670
f 672 599 671
f 599 672 597
f 673 599 600
f 599 673 671
f 674 673 602
f 673 600 602
f 675 602 604
f 602 675 674
f 676 604 606
f 604 676 675
f 609 677 676
f 676 606 609
f 678 609 611
f 609 678 677
f 679 678 613
f 678 611 613
f 672 613 597
f 613 672 679
f 627 626 635
f 626 636 635
f 628 635 639
f 635 628 627
f 629 628 641
f 628 639 641
f 630 641 643
f 641 630 629
f 631 643 645
f 643 631 630
f 632 631 647
f 631 645 647
f 633 647 649
f 647 633 632
f 634 633 651
f 633 649 651
f 626 651 636
f 651 626 634
f 485 484 555
f 484 554 555
f 493 491 621
f 491 558 621
f 495 493 621
f 495 621 623
f 498 495 559
f 495 623 559
f 680 681 682
f 681 680 683
f 684 681 685
f 681 684 682
f 684 686 687
f 686 684 685
f 688 686 689
f 686 688 687
f 688 690 691
f 690 688 689
f 692 690 693
f 690 692 691
f 692 694 695
f 694 692 693
f 695 696 697
f 696 695 694
f 680 696 683
f 696 680 697
f 698 699 700
f 699 698 701
f 702 699 703
f 699 702 700
f 702 704 705
f 704 702 703
f 706 704 707
f 704 706 705
f 706 708 709
f 708 706 707
f 710 708 711
f 708 710 709
f 710 712 713
f 712 710 711
f 713 714 715
f 714 713 712
f 698 714 701
f 714 698 715
f 716 717 718
f 717 719 718
f 717 716 720
f 716 721 720
f 722 720 721
f 720 722 723
f 724 723 722
f 723 724 725
f 725 724 726
f 724 727 726
f 728 729 727
f 727 729 726
f 730 728 731
f 728 730 729
f 730 732 733
f 732 730 731
f 718 733 732
f 733 718 719
f 717 734 719
f 717 720 734
f 720 723 734
f 723 725 734
f 725 726 734
f 726 729 734
f 729 730 734
f 730 733 734
f 733 719 734
f 735 736 737
f 737 736 738
f 737 739 740
f 739 737 738
f 740 739 741
f 741 739 742
f 741 743 744
f 743 741 742
f 744 743 745
f 745 743 746
f 747 745 746
f 745 747 748
f 748 749 750
f 749 748 747
f 749 751 750
f 751 749 752
f 751 736 735
f 736 751 752
f 753 737 754
f 737 753 735
f 754 737 755
f 755 737 740
f 755 741 756
f 741 755 740
f 756 741 757
f 757 741 744
f 757 745 758
f 745 757 744
f 758 745 759
f 759 745 748
f 748 760 759
f 760 748 750
f 760 751 761
f 751 760 750
f 751 753 761
f 753 751 735
f 762 763 764
f 764 763 765
f 764 766 767
f 766 764 765
f 767 766 768
f 768 766 769
f 768 770 771
f 770 768 769
f 771 770 772
f 772 770 773
f 772 774 775
f 774 772 773
f 775 774 776
f 776 774 777
f 776 777 778
f 778 777 779
f 778 763 762
f 763 778 779
f 683 764 681
f 764 683 762
f 681 764 685
f 685 764 767
f 685 768 686
f 768 685 767
f 686 768 689
f 689 768 771
f 689 772 690
f 772 689 771
f 690 772 693
f 693 772 775
f 693 776 694
f 776 693 775
f 694 778 696
f 778 694 776
f 696 778 683
f 683 778 762
f 780 680 781
f 781 680 682
f 781 684 782
f 684 781 682
f 782 684 783
f 783 684 687
f 783 688 784
f 688 783 687
f 784 688 785
f 785 688 691
f 785 692 786
f 692 785 691
f 786 692 787
f 787 692 695
f 787 695 788
f 788 695 697
f 788 680 780
f 680 788 697
f 701 780 699
f 699 780 781
f 699 782 703
f 782 699 781
f 703 782 704
f 704 782 783
f 704 784 707
f 784 704 783
f 707 784 708
f 708 784 785
f 708 786 711
f 786 708 785
f 711 787 712
f 787 711 786
f 712 787 714
f 714 787 788
f 714 780 701
f 780 714 788
f 789 700 790
f 700 789 698
f 790 700 791
f 791 700 702
f 791 705 792
f 705 791 702
f 792 705 793
f 793 705 706
f 793 709 794
f 709 793 706
f 794 709 795
f 795 709 710
f 795 710 796
f 796 710 713
f 796 715 797
f 715 796 713
f 797 715 789
f 789 715 698
f 798 789 799
f 799 789 790
f 799 791 800
f 791 799 790
f 800 791 801
f 801 791 792
f 801 793 802
f 793 801 792
f 802 793 803
f 803 793 794
f 803 795 804
f 795 803 794
f 804 795 805
f 805 795 796
f 805 796 806
f 806 796 797
f 718 798 716
f 716 798 799
f 716 800 721
f 800 716 799
f 721 800 722
f 722 800 801
f 722 802 724
f 802 722 801
f 724 802 727
f 727 802 803
f 727 804 728
f 804 727 803
f 728 804 731
f 731 804 805
f 731 805 732
f 732 805 806
f 732 798 718
f 798 732 806
f 763 753 765
f 765 753 754
f 765 755 766
f 755 765 754
f 766 755 769
f 769 755 756
f 769 757 770
f 757 769 756
f 770 757 773
f 773 757 758
f 773 759 774
f 759 773 758
f 774 759 777
f 777 759 760
f 777 760 779
f 779 760 761
f 779 753 763
f 753 779 761
f 738 736 807
f 736 808 807
f 743 742 809
f 743 809 810
f 747 746 811
f 747 811 812
f 749 747 812
f 749 812 813
f 814 815 816
f 816 815 817
f 816 818 819
f 818 816 817
f 819 818 820
f 820 818 821
f 820 822 823
f 822 820 821
f 823 822 824
f 824 822 825
f 824 826 827
f 826 824 825
f 827 826 828
f 828 826 829
f 828 829 830
f 830 829 831
f 830 815 814
f 815 830 831
f 832 833 834
f 833 835 834
f 834 836 837
f 836 834 835
f 837 836 838
f 838 836 839
f 838 840 841
f 840 838 839
f 841 840 842
f 842 840 843
f 842 844 845
f 844 842 843
f 845 844 846
f 846 844 847
f 846 847 848
f 847 849 848
f 848 833 832
f 833 848 849
f 850 851 852
f 851 850 853
f 854 855 853
f 853 850 854
f 856 854 857
f 854 856 855
f 857 858 856
f 858 857 859
f 860 861 858
f 858 859 860
f 861 862 863
f 862 861 860
f 864 863 862
f 863 864 865
f 866 864 867
f 864 866 865
f 851 867 852
f 867 851 866
f 852 868 850
f 850 868 854
f 854 868 857
f 857 868 859
f 859 868 860
f 860 868 862
f 862 868 864
f 864 868 867
f 867 868 852
f 807 808 869
f 808 870 869
f 869 871 807
f 871 869 872
f 809 871 873
f 871 872 873
f 873 810 809
f 810 873 874
f 811 810 875
f 810 874 875
f 812 875 876
f 875 812 811
f 813 876 877
f 876 813 812
f 878 813 879
f 813 877 879
f 879 808 878
f 808 879 870
f 880 869 870
f 869 880 881
f 872 869 882
f 869 881 882
f 882 873 872
f 873 882 883
f 874 873 884
f 873 883 884
f 884 875 874
f 875 884 885
f 886 876 875
f 875 885 886
f 876 886 887
f 876 887 877
f 887 879 877
f 879 887 888
f 870 879 880
f 879 888 880
f 889 890 891
f 890 892 891
f 891 893 889
f 893 891 894
f 895 893 896
f 893 894 896
f 896 897 895
f 897 896 898
f 899 897 900
f 897 898 900
f 900 901 899
f 901 900 902
f 903 901 904
f 901 902 904
f 905 903 906
f 903 904 906
f 890 906 892
f 906 890 905
f 814 891 892
f 891 814 816
f 894 891 819
f 891 816 819
f 819 896 894
f 896 819 820
f 898 896 823
f 896 820 823
f 823 900 898
f 900 823 824
f 827 902 900
f 900 824 827
f 827 904 902
f 904 827 828
f 828 906 904
f 906 828 830
f 892 906 814
f 906 830 814
f 907 817 815
f 815 908 907
f 818 907 909
f 907 818 817
f 910 821 818
f 818 909 910
f 822 910 911
f 910 822 821
f 912 825 822
f 822 911 912
f 826 912 913
f 912 826 825
f 914 829 826
f 826 913 914
f 915 831 829
f 829 914 915
f 815 915 908
f 915 815 831
f 834 907 908
f 908 832 834
f 909 834 837
f 834 909 907
f 838 910 909
f 909 837 838
f 911 838 841
f 838 911 910
f 842 912 911
f 911 841 842
f 913 842 845
f 842 913 912
f 914 845 846
f 845 914 913
f 848 915 914
f 914 846 848
f 908 848 832
f 848 908 915
f 916 835 833
f 835 916 917
f 836 835 918
f 835 917 918
f 918 839 836
f 839 918 919
f 920 840 839
f 839 919 920
f 920 843 840
f 843 920 921
f 922 844 843
f 843 921 922
f 847 844 923
f 844 922 923
f 923 849 847
f 849 923 924
f 833 849 916
f 849 924 916
f 925 917 916
f 916 926 925
f 918 925 927
f 925 918 917
f 928 919 918
f 918 927 928
f 920 928 929
f 928 920 919
f 930 921 920
f 920 929 930
f 922 930 931
f 930 922 921
f 932 923 922
f 922 931 932
f 933 924 923
f 923 932 933
f 916 933 926
f 933 916 924
f 925 926 853
f 926 851 853
f 927 853 855
f 853 927 925
f 928 927 856
f 927 855 856
f 929 856 858
f 856 929 928
f 930 929 861
f 929 858 861
f 931 861 863
f 861 931 930
f 932 931 865
f 931 863 865
f 866 933 932
f 932 865 866
f 926 866 851
f 866 926 933
f 881 880 889
f 880 890 889
f 882 889 893
f 889 882 881
f 883 882 895
f 882 893 895
f 884 895 897
f 895 884 883
f 885 884 899
f 884 897 899
f 886 899 901
f 899 886 885
f 887 886 903
f 886 901 903
f 888 887 905
f 887 903 905
f 880 905 890
f 905 880 888
f 739 738 807
f 739 807 871
f 742 739 809
f 739 871 809
f 746 743 811
f 743 810 811
f 752 749 878
f 749 813 878
f 736 752 808
f 752 878 808
f 934 935 936
f 935 934 937
f 934 938 939
f 938 934 936
f 940 938 941
f 938 940 939
f 940 942 943
f 942 940 941
f 943 944 945
f 944 943 942
f 946 944 947
f 944 946 945
f 946 948 949
f 948 946 947
f 950 948 951
f 948 950 949
f 950 935 937
f 935 950 951
f 952 953 954
f 953 952 955
f 952 956 957
f 956 952 954
f 958 956 959
f 956 958 957
f 958 960 961
f 960 958 959
f 961 962 963
f 962 961 960
f 964 962 965
f 962 964 963
f 964 966 967
f 966 964 965
f 968 966 969
f 966 968 967
f 968 953 955
f 953 968 969
f 970 971 972
f 971 970 973
f 973 970 974
f 970 975 974
f 976 977 975
f 975 977 974
f 978 976 979
f 976 978 977
f 978 980 981
f 980 978 979
f 982 981 980
f 981 982 983
f 984 982 985
f 982 984 983
f 984 985 986
f 985 987 986
f 972 971 987
f 987 971 986
f 973 988 971
f 973 974 988
f 974 977 988
f 977 978 988
f 978 981 988
f 981 983 988
f 983 984 988
f 984 986 988
f 986 971 988
f 989 990 991
f 990 989 992
f 991 990 993
f 993 990 994
f 994 995 996
f 994 996 993
f 997 996 995
f 997 995 998
f 998 999 997
f 999 998 1000
f 999 1001 1002
f 1001 999 1000
f 1002 1001 1003
f 1003 1001 1004
f 1003 1005 1006
f 1005 1003 1004
f 1006 1005 989
f 989 1005 992
f 1007 989 1008
f 1008 989 991
f 1008 993 1009
f 993 1008 991
f 1009 993 1010
f 1010 993 996
f 1010 997 1011
f 997 1010 996
f 1011 999 1012
f 999 1011 997
f 999 1013 1012
f 1013 999 1002
f 1013 1003 1014
f 1003 1013 1002
f 1014 1003 1015
f 1015 1003 1006
f 1015 989 1007
f 989 1015 1006
f 1016 1017 1018
f 1017 1016 1019
f 1018 1017 1020
f 1020 1017 1021
f 1020 1022 1023
f 1022 1020 1021
f 1023 1022 1024
f 1024 1022 1025
f 1024 1025 1026
f 1026 1025 1027
f 1026 1028 1029
f 1028 1026 1027
f 1029 1028 1030
f 1030 1028 1031
f 1030 1032 1033
f 1032 1030 1031
f 1033 1032 1016
f 1016 1032 1019
f 935 1016 936
f 936 1016 1018
f 936 1020 938
f 1020 936 1018
f 938 1020 941
f 941 1020 1023
f 941 1024 942
f 1024 941 1023
f 942 1026 944
f 1026 942 1024
f 944 1026 947
f 947 1026 1029
f 947 1030 948
f 1030 947 1029
f 948 1030 951
f 951 1030 1033
f 951 1016 935
f 1016 951 1033
f 1034 934 1035
f 1035 934 939
f 1035 940 1036
f 940 1035 939
f 1036 940 1037
f 1037 940 943
f 1037 943 1038
f 1038 943 945
f 1038 946 1039
f 946 1038 945
f 1039 946 1040
f 1040 946 949
f 1040 950 1041
f 950 1040 949
f 1041 950 1042
f 1042 950 937
f 953 1034 954
f 1034 953 1042
f 954 1034 956
f 956 1034 1035
f 956 1036 959
f 1036 956 1035
f 959 1037 960
f 1037 959 1036
f 960 1037 962
f 962 1037 1038
f 962 1039 965
f 1039 962 1038
f 965 1039 966
f 966 1039 1040
f 966 1041 969
f 1041 966 1040
f 969 1041 953
f 953 1041 1042
f 1043 955 1044
f 1044 955 952
f 1044 957 1045
f 957 1044 952
f 1045 957 1046
f 1046 957 958
f 958 1047 1046
f 1047 958 961
f 1047 963 1048
f 963 1047 961
f 963 1049 1048
f 1049 963 964
f 1049 967 1050
f 967 1049 964
f 1050 967 1051
f 1051 967 968
f 1051 955 1043
f 955 1051 968
f 1052 1044 1053
f 1044 1052 1043
f 1053 1044 1054
f 1054 1044 1045
f 1054 1046 1055
f 1046 1054 1045
f 1046 1056 1055
f 1056 1046 1047
f 1056 1047 1057
f 1057 1047 1048
f 1057 1049 1058
f 1049 1057 1048
f 1058 1049 1059
f 1059 1049 1050
f 1059 1051 1060
f 1051 1059 1050
f 1060 1051 1052
f 1052 1051 1043
f 972 1053 970
f 1053 972 1052
f 970 1053 975
f 975 1053 1054
f 975 1055 976
f 1055 975 1054
f 976 1055 979
f 979 1055 1056
f 979 1056 980
f 980 1056 1057
f 980 1058 982
f 1058 980 1057
f 982 1058 985
f 985 1058 1059
f 985 1060 987
f 1060 985 1059
f 987 1060 972
f 972 1060 1052
f 1019 1008 1017
f 1008 1019 1007
f 1017 1008 1021
f 1021 1008 1009
f 1021 1010 1022
f 1010 1021 1009
f 1010 1025 1022
f 1025 1010 1011
f 1025 1011 1027
f 1027 1011 1012
f 1027 1013 1028
f 1013 1027 1012
f 1028 1013 1031
f 1031 1013 1014
f 1031 1015 1032
f 1015 1031 1014
f 1032 1015 1019
f 1019 1015 1007
f 990 992 1061
f 992 1062 1061
f 998 995 1063
f 998 1063 1064
f 1001 1000 1065
f 1001 1065 1066
f 1004 1001 1066
f 1004 1066 1067
f 1068 1069 1070
f 1069 1068 1071
f 1070 1069 1072
f 1072 1069 1073
f 1072 1074 1075
f 1074 1072 1073
f 1075 1074 1076
f 1076 1074 1077
f 1076 1077 1078
f 1078 1077 1079
f 1078 1080 1081
f 1080 1078 1079
f 1081 1080 1082
f 1082 1080 1083
f 1082 1084 1085
f 1084 1082 1083
f 1085 1084 1068
f 1068 1084 1071
f 1086 1087 1088
f 1087 1086 1089
f 1088 1087 1090
f 1090 1087 1091
f 1090 1092 1093
f 1092 1090 1091
f 1093 1092 1094
f 1094 1092 1095
f 1094 1095 1096
f 1095 1097 1096
f 1096 1098 1099
f 1098 1096 1097
f 1099 1098 1100
f 1098 1101 1100
f 1100 1102 1103
f 1102 1100 1101
f 1103 1102 1086
f 1086 1102 1089
f 1104 1105 1106
f 1105 1104 1107
f 1108 1109 1105
f 1105 1107 1108
f 1109 1110 1111
f 1110 1109 1108
f 1112 1111 1110
f 1111 1112 1113
f 1114 1112 1115
f 1112 1114 1113
f 1116 1115 1117
f 1115 1116 1114
f 1118 1116 1117
f 1116 1118 1119
f 1120 1121 1119
f 1119 1118 1120
f 1121 1104 1106
f 1104 1121 1120
f 1104 1122 1107
f 1107 1122 1108
f 1108 1122 1110
f 1110 1122 1112
f 1112 1122 1115
f 1115 1122 1117
f 1117 1122 1118
f 1118 1122 1120
f 1120 1122 1104
f 1123 1061 1062
f 1061 1123 1124
f 1125 1061 1126
f 1061 1124 1126
f 1125 1127 1063
f 1127 1125 1126
f 1064 1063 1128
f 1063 1127 1128
f 1065 1064 1129
f 1064 1128 1129
f 1129 1066 1065
f 1066 1129 1130
f 1067 1066 1131
f 1066 1130 1131
f 1131 1132 1067
f 1132 1131 1133
f 1062 1132 1123
f 1132 1133 1123
f 1124 1123 1134
f 1123 1135 1134
f 1134 1126 1124
f 1126 1134 1136
f 1137 1127 1126
f 1126 1136 1137
f 1137 1128 1127
f 1128 1137 1138
f 1138 1129 1128
f 1129 1138 1139
f 1130 1129 1140
f 1129 1139 1140
f 1140 1131 1130
f 1131 1140 1141
f 1133 1131 1142
f 1131 1141 1142
f 1142 1123 1133
f 1123 1142 1135
f 1143 1144 1145
f 1144 1143 1146
f 1147 1144 1148
f 1144 1146 1148
f 1148 1149 1147
f 1149 1148 1150
f 1151 1149 1152
f 1149 1150 1152
f 1153 1151 1154
f 1151 1152 1154
f 1155 1154 1156
f 1154 1155 1153
f 1157 1155 1158
f 1155 1156 1158
f 1158 1159 1157
f 1159 1158 1160
f 1145 1159 1143
f 1159 1160 1143
f 1146 1143 1070
f 1143 1068 1070
f 1070 1148 1146
f 1148 1070 1072
f 1075 1150 1148
f 1148 1072 1075
f 1075 1152 1150
f 1152 1075 1076
f 1076 1154 1152
f 1154 1076 1078
f 1156 1154 1081
f 1154 1078 1081
f 1081 1158 1156
f 1158 1081 1082
f 1160 1158 1085
f 1158 1082 1085
f 1085 1143 1160
f 1143 1085 1068
f 1069 1161 1162
f 1161 1069 1071
f 1163 1073 1069
f 1069 1162 1163
f 1074 1163 1164
f 1163 1074 1073
f 1165 1077 1074
f 1074 1164 1165
f 1166 1079 1077
f 1077 1165 1166
f 1080 1166 1167
f 1166 1080 1079
f 1168 1083 1080
f 1080 1167 1168
f 1084 1168 1169
f 1168 1084 1083
f 1161 1071 1084
f 1084 1169 1161
f 1162 1086 1088
f 1086 1162 1161
f 1090 1163 1162
f 1162 1088 1090
f 1164 1090 1093
f 1090 1164 1163
f 1165 1093 1094
f 1093 1165 1164
f 1096 1166 1165
f 1165 1094 1096
f 1167 1096 1099
f 1096 1167 1166
f 1100 1168 1167
f 1167 1099 1100
f 1169 1100 1103
f 1100 1169 1168
f 1086 1161 1169
f 1169 1103 1086
f 1170 1087 1089
f 1089 1171 1170
f 1170 1091 1087
f 1091 1170 1172
f 1173 1092 1091
f 1091 1172 1173
f 1095 1173 1174
f 1173 1095 1092
f 1174 1097 1095
f 1097 1174 1175
f 1098 1097 1176
f 1097 1175 1176
f 1176 1101 1098
f 1101 1176 1177
f 1102 1101 1178
f 1101 1177 1178
f 1178 1089 1102
f 1089 1178 1171
f 1170 1179 1180
f 1179 1170 1171
f 1181 1172 1170
f 1170 1180 1181
f 1173 1181 1182
f 1181 1173 1172
f 1183 1174 1173
f 1173 1182 1183
f 1184 1175 1174
f 1174 1183 1184
f 1176 1184 1185
f 1184 1176 1175
f 1186 1177 1176
f 1176 1185 1186
f 1178 1186 1187
f 1186 1178 1177
f 1179 1171 1178
f 1178 1187 1179
f 1180 1106 1105
f 1106 1180 1179
f 1181 1180 1109
f 1180 1105 1109
f 1182 1109 1111
f 1109 1182 1181
f 1183 1182 1113
f 1182 1111 1113
f 1114 1184 1183
f 1183 1113 1114
f 1185 1114 1116
f 1114 1185 1184
f 1186 1185 1119
f 1185 1116 1119
f 1187 1119 1121
f 1119 1187 1186
f 1179 1187 1106
f 1187 1121 1106
f 1134 1145 1144
f 1145 1134 1135
f 1136 1134 1147
f 1134 1144 1147
f 1137 1147 1149
f 1147 1137 1136
f 1138 1137 1151
f 1137 1149 1151
f 1139 1138 1153
f 1138 1151 1153
f 1140 1153 1155
f 1153 1140 1139
f 1141 1140 1157
f 1140 1155 1157
f 1142 1157 1159
f 1157 1142 1141
f 1135 1142 1145
f 1142 1159 1145
f 994 990 1061
f 994 1061 1125
f 995 994 1063
f 994 1125 1063
f 1000 998 1065
f 998 1064 1065
f 1005 1004 1132
f 1004 1067 1132
f 992 1005 1062
f 1005 1132 1062
f 327 331 330
f 1042 934 1034
f 934 1042 937
f 806 789 798
f 789 806 797
f 294 344 343
f 344 294 296
f 326 328 297
f 295 297 328
f 296 298 344
f 344 298 346
f 328 299 295
f 299 328 329
f 298 300 346
f 346 300 347
f 329 301 299
f 301 329 330
f 347 302 348
f 302 347 300
f 330 303 301
f 303 330 331
f 302 349 348
f 349 302 305
f 331 332 303
f 304 303 332
f 349 306 350
f 306 349 305
f 332 307 304
f 307 332 333
f 351 306 309
f 306 351 350
f 333 334 307
f 308 307 334
f 351 310 352
f 310 351 309
f 334 311 308
f 311 334 335
f 310 353 352
f 353 310 312
f 335 336 311
f 313 311 336
f 354 312 314
f 312 354 353
f 337 313 336
f 313 337 315
f 354 317 355
f 317 354 314
f 337 316 315
f 316 337 338
f 355 318 356
f 318 355 317
f 338 319 316
f 319 338 339
f 318 357 356
f 357 318 320
f 339 340 319
f 321 319 340
f 358 357 322
f 320 322 357
f 323 340 341
f 340 323 321
f 359 358 324
f 322 324 358
f 325 341 342
f 341 325 323
f 359 294 343
f 294 359 324
f 342 297 325
f 297 342 326
f 393 392 361
f 363 361 392
f 409 360 362
f 360 409 411
f 409 364 412
f 364 409 362
f 392 365 363
f 365 392 395
f 364 413 412
f 413 364 366
f 395 367 365
f 367 395 396
f 414 366 369
f 366 414 413
f 368 367 397
f 397 367 396
f 414 370 415
f 370 414 369
f 397 398 368
f 371 368 398
f 415 372 416
f 370 372 415
f 398 373 371
f 373 398 399
f 416 374 417
f 374 416 372
f 399 375 373
f 375 399 400
f 374 376 417
f 417 376 418
f 400 377 375
f 377 400 401
f 418 378 419
f 378 418 376
f 401 402 377
f 379 377 402
f 420 419 380
f 378 380 419
f 381 402 403
f 402 381 379
f 421 380 382
f 380 421 420
f 404 381 403
f 381 404 383
f 422 382 384
f 382 422 421
f 405 383 404
f 385 383 405
f 423 384 386
f 384 423 422
f 405 406 385
f 387 385 406
f 386 388 423
f 423 388 424
f 406 389 387
f 389 406 407
f 425 424 390
f 388 390 424
f 391 407 408
f 407 391 389
f 411 390 360
f 390 411 425
f 393 391 408
f 391 393 361
f 1188 1189 1190
f 1189 1188 1191
f 1190 1192 1193
f 1192 1190 1189
f 1193 1194 1195
f 1194 1193 1192
f 1195 1194 1196
f 1194 1197 1196
f 1196 1198 1199
f 1198 1196 1197
f 1199 1200 1201
f 1200 1199 1198
f 1201 1202 1203
f 1202 1201 1200
f 1204 1203 1202
f 1204 1202 1205
f 1206 1204 1205
f 1206 1205 1207
f 1206 1208 1209
f 1208 1206 1207
f 1210 1208 1211
f 1208 1210 1209
f 1211 1212 1213
f 1211 1213 1210
f 1213 1212 1214
f 1212 1215 1214
f 1216 1214 1215
f 1216 1215 1217
f 1216 1218 1219
f 1218 1216 1217
f 1220 1218 1221
f 1218 1220 1219
f 1222 1220 1221
f 1220 1222 1223
f 1188 1223 1222
f 1188 1222 1191
f 1224 1190 1225
f 1190 1224 1188
f 1225 1193 1226
f 1193 1225 1190
f 1226 1195 1227
f 1195 1226 1193
f 1196 1227 1195
f 1227 1196 1228
f 1228 1199 1229
f 1199 1228 1196
f 1201 1229 1199
f 1229 1201 1230
f 1230 1203 1231
f 1203 1230 1201
f 1232 1231 1203
f 1232 1203 1204
f 1233 1232 1204
f 1233 1204 1206
f 1233 1209 1234
f 1209 1233 1206
f 1235 1209 1210
f 1209 1235 1234
f 1210 1213 1236
f 1210 1236 1235
f 1237 1236 1213
f 1237 1213 1214
f 1238 1237 1214
f 1238 1214 1216
f 1239 1238 1216
f 1239 1216 1219
f 1240 1219 1220
f 1219 1240 1239
f 1223 1240 1220
f 1240 1223 1241
f 1224 1241 1223
f 1224 1223 1188
f 1242 1225 1243
f 1225 1242 1224
f 1243 1226 1244
f 1226 1243 1225
f 1244 1226 1245
f 1226 1227 1245
f 1246 1245 1227
f 1246 1227 1228
f 1246 1229 1247
f 1229 1246 1228
f 1247 1230 1248
f 1230 1247 1229
f 1248 1231 1249
f 1231 1248 1230
f 1250 1249 1231
f 1231 1232 1250
f 1251 1250 1232
f 1251 1232 1233
f 1251 1234 1252
f 1234 1251 1233
f 1252 1235 1253
f 1235 1252 1234
f 1253 1235 1254
f 1235 1236 1254
f 1255 1254 1236
f 1255 1236 1237
f 1256 1255 1237
f 1256 1237 1238
f 1256 1239 1257
f 1239 1256 1238
f 1257 1240 1258
f 1240 1257 1239
f 1259 1258 1240
f 1240 1241 1259
f 1242 1259 1241
f 1242 1241 1224
f 1242 1243 1260
f 1243 1244 1260
f 1244 1245 1260
f 1245 1246 1260
f 1246 1247 1260
f 1247 1248 1260
f 1248 1249 1260
f 1249 1250 1260
f 1250 1251 1260
f 1251 1252 1260
f 1252 1253 1260
f 1253 1254 1260
f 1254 1255 1260
f 1255 1256 1260
f 1256 1257 1260
f 1257 1258 1260
f 1258 1259 1260
f 1259 1242 1260
f 1191 1261 1189
f 1261 1191 1262
f 1189 1263 1192
f 1263 1189 1261
f 1192 1264 1194
f 1264 1192 1263
f 1194 1265 1197
f 1265 1194 1264
f 1266 1197 1265
f 1197 1266 1198
f 1267 1198 1266
f 1198 1267 1200
f 1200 1268 1202
f 1268 1200 1267
f 1268 1205 1202
f 1205 1268 1269
f 1205 1269 1207
f 1270 1207 1269
f 1271 1208 1270
f 1208 1207 1270
f 1272 1211 1271
f 1211 1208 1271
f 1212 1272 1273
f 1272 1212 1211
f 1273 1215 1212
f 1215 1273 1274
f 1274 1217 1215
f 1217 1274 1275
f 1217 1275 1218
f 1276 1218 1275
f 1277 1221 1276
f 1221 1218 1276
f 1278 1221 1277
f 1221 1278 1222
f 1222 1262 1191
f 1262 1222 1278
f 1261 1262 1279
f 1263 1261 1279
f 1264 1263 1279
f 1265 1264 1279
f 1266 1265 1279
f 1267 1266 1279
f 1268 1267 1279
f 1269 1268 1279
f 1270 1269 1279
f 1271 1270 1279
f 1272 1271 1279
f 1273 1272 1279
f 1274 1273 1279
f 1275 1274 1279
f 1276 1275 1279
f 1277 1276 1279
f 1278 1277 1279
f 1262 1278 1279
f 1280 1281 1282
f 1283 1284 1285
f 1284 1286 1285
f 1286 1287 1285
f 1287 1288 1285
f 1288 1289 1285
f 1289 1290 1285
f 1290 1291 1285
f 1291 1292 1285
f 1292 1293 1285
f 1293 1294 1285
f 1294 1281 1285
f 1281 1280 1285
f 1280 1295 1285
f 1295 1296 1285
f 1296 1297 1285
f 1297 1298 1285
f 1298 1299 1285
f 1299 1283 1285
f 1293 1292 1282
f 1289 1288 1282
f 1282 1299 1298
f 1298 1300 1282
f 1288 1287 1282
f 1300 1296 1295
f 1286 1284 1282
f 1282 1295 1280
f 1294 1293 1282
f 1282 1287 1286
f 1284 1283 1282
f 1282 1281 1294
f 1291 1290 1282
f 1282 1283 1299
f 1297 1296 1300
f 1282 1292 1291
f 1290 1289 1282
f 1300 1298 1297
f 1301 1302 1303
f 1302 1301 1304
f 1305 1306 1307
f 1306 1305 1308
f 1309 1310 1311
f 1310 1309 1312
f 1313 1314 1315
f 1314 1313 1316
f 57 56 58
f 58 55 57
f 59 60 56
f 56 57 59
f 62 61 60
f 60 59 62
f 63 64 61
f 61 62 63
f 63 65 66
f 66 64 63
f 68 67 66
f 66 65 68
f 68 69 70
f 70 67 68
f 72 71 70
f 70 69 72
f 55 58 71
f 71 72 55
f 212 211 213
f 213 210 212
f 215 212 210
f 210 214 215
f 217 215 214
f 214 216 217
f 219 217 216
f 216 218 219
f 221 219 218
f 218 220 221
f 223 221 220
f 220 222 223
f 225 223 222
f 222 224 225
f 227 225 224
f 224 226 227
f 211 227 226
f 226 213 211
f 1282 1300 1295
f 1303 1302 1304
f 1304 1301 1303
f 1307 1306 1308
f 1308 1305 1307
f 1311 1310 1312
f 1312 1309 1311
f 1315 1314 1316
f 1316 1313 1315