# https://github.com/mikedh/trimesh
v 0.10178568 0.05664954 0.02153667
v 0.10589167 0.05496764 0.02489130
v -0.08263619 -0.01909372 0.12413365
v -0.08512196 -0.02978689 0.13346561
v 0.10837748 0.05010130 0.02593080
v 0.11348779 0.04622464 0.02063872
v 0.10939124 0.04360442 0.02680003
v 0.11367601 0.03929870 0.01844420
v -0.07615656 -0.03077714 0.09401920
v 0.08989670 0.02972514 0.00543217
v 0.08912173 0.03523201 0.00555539
v -0.08379065 -0.03297894 0.09819161
v 0.10666469 0.04490104 0.02834742
v 0.07820450 0.02156753 0.04666878
v 0.07372359 0.02377638 0.04869689
v 0.11024590 0.03654675 0.02185042
v 0.08328290 0.01627021 0.03477250
v 0.08274846 0.01747760 0.03875438
v 0.10560196 0.05552084 0.01765044
v 0.10075270 0.05522412 0.01355881
v 0.10861672 0.05337416 0.01332277
v -0.08980944 -0.03127956 0.13509171
v -0.10381799 -0.04327905 0.14336060
v -0.10837572 -0.04155168 0.14227573
v -0.09872441 -0.05039865 0.13640652
v -0.01138555 -0.01963711 0.08303096
v -0.04612974 -0.03088746 0.08986750
v -0.10417090 -0.05180846 0.13763655
v -0.05184804 -0.03267779 0.09213935
v 0.10948980 0.05357016 0.01871312
v 0.11102235 0.04223642 0.00653374
v 0.10870354 0.04488023 0.00469051
v 0.10888248 0.03952244 0.00320615
v 0.11336747 0.04402678 0.01553031
v 0.09702087 0.02876515 0.00436236
v -0.05664425 -0.02690538 0.08511689
v 0.11214023 0.03817344 0.01016476
v 0.08299947 0.01561117 0.02665332
v 0.08099518 0.01572056 0.02176093
v 0.08297121 0.01532890 0.02966093
v 0.10802844 0.03224573 0.00932626
v -0.11441840 -0.04159426 0.13625527
v -0.11337272 -0.04788950 0.13591157
v -0.11677164 -0.04203558 0.12320351
v -0.10906945 -0.05081513 0.13787714
v -0.10857189 -0.04821021 0.12267636
v -0.10749533 -0.04917729 0.14123731
v -0.11267667 -0.04718692 0.12628813
v 0.09956451 0.05623356 0.01889833
v 0.09360108 0.05335268 0.01597582
v -0.08339014 -0.01932136 0.11690874
v -0.11046630 -0.03332988 0.12483307
v 0.09837596 0.05424763 0.01338068
v 0.09276755 0.05118821 0.01135490
v 0.09782369 0.05220114 0.01024331
v -0.10649722 -0.04017856 0.11225069
v -0.10914449 -0.04054637 0.11405130
v -0.08697600 -0.04295302 0.10831255
v -0.09572641 -0.04562024 0.11381256
v -0.09799350 -0.03761773 0.10688152
v -0.08419868 -0.04194232 0.10651471
v -0.04911821 -0.03183482 0.09093635
v 0.07923403 0.01885079 0.01751351
v -0.07127204 -0.03773229 0.09979907
v -0.09863267 -0.04638631 0.11587747
v -0.07166404 -0.02992374 0.09195383
v -0.06221150 -0.02807203 0.08763093
v -0.05951916 -0.02752821 0.08639937
v 0.07399184 0.02481049 0.04830520
v 0.08136778 0.01863212 0.04228621
v -0.09226969 -0.04462113 0.13577942
v 0.10881225 0.03324426 0.01503097
v -0.08699678 -0.02186802 0.12619017
v -0.10571496 -0.03600126 0.13686667
v -0.09897034 -0.04346711 0.14063916
v -0.11288221 -0.04133928 0.13902184
v -0.10915674 -0.04391462 0.14193403
v -0.10373744 -0.05057208 0.13881083
v -0.00699015 -0.01795729 0.08146030
v 0.11272283 0.04764398 0.01892290
v 0.10803412 0.05132800 0.00945309
v 0.10686070 0.04824450 0.00610702
v 0.10993713 0.04894009 0.01133611
v 0.10551531 0.04274079 0.00254119
v 0.09763985 0.04556944 0.00449174
v 0.09838863 0.03762204 0.00142718
v 0.09778762 0.02613095 0.01245470
v 0.10461033 0.03271359 0.00460910
v 0.10946254 0.03427743 0.00683432
v 0.11234017 0.04112325 0.01098732
v -0.11411399 -0.03713248 0.12786356
v 0.09428477 0.05392218 0.01837134
v -0.08806302 -0.02218996 0.11597258
v -0.10824182 -0.03263231 0.12246620
v 0.09695787 0.05000309 0.00822380
v 0.09034016 0.04220573 0.00687232
v 0.09149192 0.04705940 0.00813639
v 0.09901788 0.04229880 0.00241812
v -0.08986002 -0.03466711 0.10196941
v -0.11436305 -0.04092511 0.11831404
v -0.05473417 -0.03348502 0.09327396
v -0.08994718 -0.04392094 0.11033133
v -0.10376957 -0.03930525 0.11048204
v -0.07853111 -0.04007798 0.10344326
v 0.10975040 0.03425382 0.01279193
v 0.10605437 0.03261665 0.02166836
v -0.10818187 -0.03910329 0.13931841
v 0.10560963 0.03815702 0.00205217
v 0.09958564 0.05100738 0.00902422
v 0.09372895 0.04755166 0.00725707
v -0.10103456 -0.03839855 0.10878155
v -0.11168177 -0.04094559 0.11603296
v 0.10279979 0.03019643 0.02326296
v 0.10203369 0.03769711 0.00159934
v 0.10220600 0.03382629 0.00282764
v -0.12469076 -0.03580800 0.12835820
v -0.12601361 -0.04359837 0.12667480
v -0.12404481 -0.04415886 0.12460596
v -0.11089932 -0.04995152 0.12241321
v -0.10457016 -0.04746462 0.12497785
v -0.11781309 -0.04058318 0.12351047
v -0.10854663 -0.06012544 0.13156211
v -0.11860883 -0.05811163 0.12737676
v -0.12729916 -0.06170114 0.14751652
v -0.13669465 -0.04923085 0.14321550
v -0.13431515 -0.04664830 0.14957859
v -0.13153264 -0.05834278 0.14619724
v -0.12652023 -0.03864618 0.12915681
v -0.13094443 -0.03970263 0.13930047
v -0.12568687 -0.04961332 0.12691123
v -0.12937956 -0.05897716 0.14110778
v -0.12392902 -0.05485104 0.12755728
v -0.13437845 -0.05425874 0.14267080
v -0.10365208 -0.04540364 0.13306353
v -0.10814881 -0.04029473 0.13051429
v -0.12253415 -0.03898473 0.12597977
v -0.12032280 -0.03203258 0.13127024
v -0.12035680 -0.03507905 0.12770507
v -0.11867575 -0.05357461 0.12415930
v -0.10785507 -0.05832195 0.12634573
v -0.12176217 -0.06118535 0.14764529
v -0.10819837 -0.05507918 0.14111347
v -0.10541022 -0.05086638 0.14159857
v -0.10190934 -0.05230222 0.13218106
v -0.11083391 -0.03863275 0.14776466
v -0.10999928 -0.04878449 0.14630097
v -0.11578332 -0.05489235 0.14956388
v -0.10686020 -0.04369899 0.14378916
v -0.10370052 -0.04482706 0.13859581
v -0.10895017 -0.03647153 0.14533047
v -0.11890581 -0.05503972 0.15139883
v -0.11567219 -0.03792266 0.15041570
v -0.12544353 -0.05284219 0.15238643
v -0.12442047 -0.05544868 0.15200076
v -0.12990231 -0.05580159 0.15086899
v -0.11164877 -0.03326615 0.14654926
v -0.11724985 -0.03195630 0.14607910
v -0.11524162 -0.03045585 0.14336583
v -0.11840107 -0.02995416 0.14101867
v -0.13484183 -0.04417827 0.14462243
v -0.13235992 -0.04117305 0.14250677
v -0.13101332 -0.05060647 0.15166945
v -0.12373547 -0.03339465 0.13327801
v -0.11958468 -0.03033352 0.13602008
v -0.10222701 -0.05175917 0.12762513
v -0.10893088 -0.03837195 0.13524665
v -0.11729721 -0.03855369 0.12462167
v -0.11117779 -0.05527614 0.12399819
v -0.10786958 -0.05333980 0.12387212
v -0.10315154 -0.05631302 0.12853255
v -0.11361777 -0.05569863 0.14671422
v -0.11275607 -0.05275255 0.14770928
v -0.10753233 -0.04230778 0.14450029
v -0.10288590 -0.04845376 0.13691588
v -0.12093160 -0.03704107 0.14883373
v -0.11452591 -0.03633283 0.12978661
v -0.10908275 -0.05398778 0.14398516
v -0.11928386 -0.03456523 0.12971468
v -0.11870956 -0.02713407 0.12941926
v -0.11996938 -0.03013055 0.13393315
v -0.11749345 -0.03469564 0.12444986
v -0.09947067 -0.03595074 0.11914823
v -0.09394011 -0.04774537 0.12731131
v -0.09253151 -0.04644006 0.13329341
v -0.09272051 -0.04630121 0.13885095
v -0.09796133 -0.02722306 0.13967852
v -0.09592901 -0.05250349 0.14086519
v -0.10271919 -0.02980325 0.14593039
v -0.10942345 -0.02289920 0.14334742
v -0.09438900 -0.03999812 0.13487253
v -0.10574693 -0.03959916 0.14664568
v -0.11085794 -0.03924418 0.14558515
v -0.11229529 -0.02863348 0.14676651
v -0.10075893 -0.03814114 0.14752584
v -0.10197513 -0.04883308 0.14253626
v -0.10622040 -0.04965595 0.13843378
v -0.09905749 -0.04109681 0.11675933
v -0.09988429 -0.04585324 0.11614324
v -0.10788687 -0.03799759 0.11361487
v -0.10794107 -0.03453380 0.11459839
v -0.11192303 -0.03127856 0.11722464
v -0.11209404 -0.02700126 0.12167914
v -0.10283364 -0.03142019 0.12108107
v -0.10162994 -0.02939782 0.12474058
v -0.11100471 -0.02518441 0.12471971
v -0.10101351 -0.02835097 0.12831677
v -0.11153058 -0.05014124 0.12541620
v -0.11750872 -0.03580496 0.13825988
v -0.10994645 -0.05268351 0.12368976
v -0.10928635 -0.05168932 0.12956882
v -0.09706900 -0.05521141 0.13614199
v -0.11234706 -0.04778172 0.12261699
v -0.11887818 -0.03280131 0.13821114
v -0.11615016 -0.03369053 0.14322228
v -0.11631053 -0.03052828 0.14341558
v -0.11224916 -0.02241876 0.13858026
v -0.10705496 -0.02215685 0.13439468
v -0.11338017 -0.02263748 0.13146816
v -0.10151072 -0.05064490 0.11845320
v -0.10549543 -0.05396124 0.11808832
v -0.11469753 -0.02441306 0.12775851
v -0.10605236 -0.04958872 0.11469542
v -0.09594386 -0.04813382 0.12378309
v -0.10011496 -0.05700412 0.12687496
v -0.10050192 -0.03464693 0.14753139
v -0.10699475 -0.02709514 0.14607441
v -0.09723276 -0.04889038 0.14336083
v -0.10301859 -0.02520220 0.14081043
v -0.10419200 -0.04094201 0.14640948
v -0.11029116 -0.02395003 0.12787364
v -0.10230428 -0.02537832 0.12993678
v -0.10428954 -0.03872989 0.11458198
v -0.11353617 -0.04054036 0.11931427
v -0.11014566 -0.04588131 0.11555733
v -0.11031900 -0.03626533 0.11535380
v -0.11271870 -0.03134949 0.11826684
v -0.10318808 -0.05614398 0.12551077
v -0.11209725 -0.04214959 0.13995283
v -0.10826040 -0.05251300 0.12923998
v -0.10561950 -0.05002068 0.13850524
v -0.09712269 -0.05516382 0.13118776
v -0.10876660 -0.05066476 0.11803896
v -0.11501849 -0.03346007 0.14421473
v -0.11200270 -0.02364741 0.14089561
v -0.11729675 -0.02553558 0.12945068
v -0.10435723 -0.05527622 0.12014222
v -0.10885728 -0.04264397 0.11407432
v -0.09976502 -0.05246472 0.12230055
v -0.10605190 -0.02900198 0.14653108
v -0.10508506 -0.04279299 0.11392315
v -0.10670594 -0.05183018 0.13282710
v -0.09417327 -0.04889157 0.12900156
v -0.09795795 -0.05631075 0.13132769
v -0.10245274 -0.05663559 0.12369715
v 0.10799203 0.05859470 0.01992205
v 0.13066293 0.05477007 0.00345381
v 0.12937841 0.05493807 0.01060519
v 0.10141608 0.05505579 0.01211177
v 0.12587196 0.05320520 0.00110034
v 0.12888897 0.04464555 0.00073161
v 0.13452682 0.04867178 0.00429116
v 0.12347105 0.04344627 0.00034551
v 0.11392311 0.02883723 0.01002845
v 0.11363395 0.02961126 0.02031442
v 0.11857091 0.03203264 0.01947523
v 0.13078906 0.04298861 0.00754806
v 0.13324229 0.04883980 0.01144253
v 0.11420288 0.04884455 0.02961650
v 0.11158636 0.05374079 0.02926764
v 0.13371582 0.05296184 0.00773770
v 0.10073149 0.04489619 0.01350922
v 0.10083840 0.04602934 0.01939668
v 0.10286949 0.03450738 0.01512800
v 0.10569983 0.02788747 0.01612068
v 0.10387362 0.03040448 0.01150869
v 0.10253875 0.04557966 0.00829311
v 0.10562185 0.03467575 0.00840370
v 0.10075571 0.04591927 0.01383598
v 0.10154704 0.05583832 0.01640994
v 0.10152202 0.05185605 0.02420805
v 0.10260800 0.05665237 0.02079089
v 0.10569866 0.05726188 0.02668844
v 0.10125679 0.05285528 0.01172401
v 0.10302283 0.05276361 0.00730497
v 0.11367393 0.05663961 0.02293844
v 0.12426360 0.04601189 0.00033831
v 0.11928324 0.04376408 0.00137962
v 0.11565372 0.03624538 0.02503161
v 0.11177795 0.03254272 0.02354506
v 0.11542426 0.04583750 0.02854912
v 0.11770629 0.04125443 0.02630716
v 0.11989533 0.03890490 0.02282184
v 0.11003069 0.02859908 0.01953807
v 0.10406250 0.04715736 0.02576029
v 0.10990119 0.03935205 0.02517909
v 0.10505079 0.05228121 0.02644354
v 0.10866995 0.03193529 0.02189855
v 0.10270925 0.04676634 0.02360081
v 0.11978296 0.03270250 0.01800215
v 0.13133631 0.04458092 0.00228447
v 0.10996915 0.05480236 0.02926810
v 0.10845218 0.02805583 0.00939641
v 0.10648912 0.04865651 0.00587052
v 0.11088563 0.02840304 0.01369574
v 0.11579477 0.03006122 0.01253063
v 0.10459042 0.03584673 0.01839760
v 0.10810561 0.03171146 0.02086690
v 0.10493903 0.03382878 0.02287128
v 0.10662673 0.03219115 0.01657620
v 0.10258314 0.03181009 0.01449489
v 0.10118224 0.03650015 0.02136147
v 0.09581218 0.03677769 0.02237240
v 0.09313303 0.03534943 0.01878505
v 0.08955126 0.03032090 0.01684875
v 0.07254816 0.02290913 0.02372780
v -0.00807653 -0.00285365 0.06613223
v 0.10331475 0.02494326 0.01933445
v 0.09473548 0.02647101 0.01725699
v 0.07074203 0.01069906 0.03237990
v 0.04874481 -0.00280704 0.05053531
v 0.04415107 -0.00560693 0.05530972
v -0.01781446 -0.02532819 0.08028264
v 0.10609833 0.02767478 0.01696419
v 0.10368503 0.02484948 0.02334876
v 0.10364051 0.02967100 0.02758732
v 0.04636326 0.00096378 0.06216090
v 0.10075317 0.03627156 0.02206243
v 0.09176206 0.03625098 0.02345749
v -0.02569423 -0.02177930 0.09842072
v 0.01317054 -0.00137370 0.07528236
v 0.03417270 0.00145176 0.06721871
v 0.04229345 0.00046931 0.06445584
v -0.07819132 -0.04662347 0.11715687
v 0.04045924 -0.00663178 0.05817878
v -0.07994301 -0.04203635 0.12444447
v -0.00233241 0.00371400 0.07115662
v -0.00740576 0.00160840 0.07463862
v -0.05542003 -0.02070849 0.10054123
v 0.08930023 0.03435382 0.02846032
v 0.09546934 0.03078697 0.01548325
v -0.01306885 -0.00820703 0.06810496
v -0.02066621 -0.01819495 0.07438818
v -0.05458071 -0.02677824 0.09230030
v 0.06370375 0.01635154 0.03001188
v 0.07747656 0.02476590 0.02167437
v 0.07412283 0.01344404 0.02970629
v 0.05091660 -0.00115801 0.04830451
v -0.04351155 -0.03105415 0.08963177
v -0.08972656 -0.05022857 0.12095431
v -0.09247473 -0.04849454 0.12453596
v -0.09403251 -0.04835130 0.12415575
v 0.04493834 -0.00446211 0.05658965
v 0.10615346 0.03065197 0.02485364
v 0.09278684 0.03582368 0.02518194
v 0.09299161 0.03273094 0.02904307
v 0.09406668 0.02730183 0.03235557
v 0.00753049 0.00494424 0.06991904
v -0.07511942 -0.03934514 0.12201614
v -0.08107783 -0.03446642 0.11931219
v 0.03950801 0.00124110 0.06530605
v -0.07593733 -0.04017379 0.12268314
v -0.09346232 -0.04613925 0.12606117
v -0.09475942 -0.04758569 0.12495637
v -0.09669832 -0.04514323 0.12369392
v -0.05757315 -0.02758262 0.09472185
v -0.09214917 -0.04412298 0.11572599
v -0.00378108 0.00008327 0.06584914
v -0.05241680 -0.01957072 0.09829966
v -0.04871574 -0.02909032 0.08960135
v 0.06738260 0.01945173 0.02712617
v -0.01560161 -0.02214980 0.07675236
v -0.09181111 -0.04572543 0.11661809
v -0.04007055 -0.03338071 0.09371177
v -0.09133205 -0.03995230 0.12087614
v -0.09659795 -0.04445952 0.12306288
v -0.07671050 -0.03148095 0.11446624
v -0.08929700 -0.04207154 0.11488002
v 0.10615344 0.02909763 0.02340405
v 0.09891680 0.03039152 0.02873187
v -0.06327813 -0.02524328 0.10821536
v -0.05985014 -0.02321738 0.10521599
v -0.09520102 -0.04436822 0.12407790
v -0.09207155 -0.04693040 0.12588336
v -0.09596183 -0.04588319 0.12231548
v -0.09470317 -0.04669898 0.11846406
v -0.05784144 -0.02188665 0.10250279
v -0.05021582 -0.02639842 0.08997779
v -0.08829212 -0.04822123 0.11837904
v -0.08245911 -0.03519672 0.11953452
v -0.08871922 -0.03912246 0.11852166
v -0.07323649 -0.02977518 0.11256382
v -0.09553919 -0.04391150 0.12333435
v -0.07889689 -0.03277544 0.11562264
v -0.04734156 -0.00860291 0.09594010
v -0.04117702 -0.01122854 0.09593140
v 0.06834323 0.03811871 0.03744726
v 0.10239841 0.05343448 0.02530223
v 0.10305273 0.05228167 0.02414829
v 0.10146430 0.05086736 0.03010590
v -0.09211218 -0.02736071 0.12447435
v -0.08984632 -0.03072970 0.12391725
v -0.09226962 -0.03249111 0.12827572
v 0.07099287 0.03558164 0.04025896
v 0.09814146 0.04938980 0.02403732
v 0.08813715 0.05274255 0.03383326
v 0.09024178 0.05293812 0.03297574
v -0.01870464 0.01036920 0.09619570
v 0.08765911 0.05447602 0.03002135
v 0.09985408 0.05331942 0.02781242
v -0.01650781 0.01287094 0.09332625
v -0.09494600 -0.02522873 0.13266084
v 0.10146770 0.05419170 0.02401806
v 0.09712416 0.05167891 0.02332211
v -0.09110227 -0.02739699 0.13337150
v -0.09385641 -0.03091753 0.13340893
v -0.09496717 -0.02920364 0.13470549
v -0.07503730 -0.02442107 0.12404278
v -0.02168655 0.00150891 0.09802164
v -0.01579212 0.00671300 0.09562789
v -0.09301968 -0.02671420 0.13467900
v -0.09541849 -0.02684724 0.13439560
v -0.09726633 -0.02797330 0.13279838
v -0.06910800 -0.01479608 0.11113933
v -0.09382648 -0.02529619 0.13051737
v -0.06732008 -0.01251204 0.11476658
v -0.01169100 0.01576190 0.08783917
v -0.08829498 -0.02545930 0.12215222
v -0.09658062 -0.02881673 0.13055488
v -0.09462995 -0.02893988 0.12774711
v -0.09152293 -0.03134476 0.12523238
v -0.01258160 0.01330019 0.08401462
v 0.09881509 0.04893489 0.02472418
v 0.09424239 0.05467240 0.02641505
v 0.09761764 0.05452244 0.02544285
v -0.01457589 0.01451077 0.09043801
v 0.10265256 0.05355570 0.02398695
v 0.10212201 0.05303887 0.02286412
v 0.10111757 0.05218676 0.02259150
v 0.08980460 0.05110756 0.02598394
v -0.09711074 -0.02904503 0.13289949
v -0.09323741 -0.03206477 0.13034672
v -0.08935580 -0.03022682 0.13047679
v -0.09117703 -0.03046370 0.13190312
v -0.07194420 -0.02174668 0.12307597
v -0.01828311 0.00375652 0.09670714
v -0.09705820 -0.02844084 0.13337250
v -0.09740485 -0.02853518 0.13290620
v -0.09731887 -0.02857754 0.13232537
v -0.09312514 -0.02896255 0.12562629
v -0.01637172 0.01203458 0.08689209
v 0.09938525 0.04927480 0.02555606
v 0.10243380 0.05111591 0.02440766
v 0.09903827 0.04986108 0.02371140
v 0.08631092 0.05383001 0.03174410
v 0.09354449 0.05134593 0.02452665
v -0.10837665 -0.03851650 0.11818251
v -0.10760391 -0.03922824 0.11876872
v -0.10860795 -0.03912134 0.11811466
v -0.10660294 -0.03779921 0.11794985
v -0.10794567 -0.03891403 0.11713191
v -0.10830322 -0.03940244 0.11737180
v -0.10775680 -0.03990567 0.11778636
v -0.10806156 -0.03962461 0.11852921
v -0.10717296 -0.03962573 0.11771820
v -0.10835122 -0.03969677 0.11795055
v -0.11152005 -0.04342136 0.12055123
v -0.10466514 -0.03937548 0.12118303
v -0.10384915 -0.04564523 0.11487979
v -0.10828437 -0.04694387 0.11567239
v -0.07060579 -0.03459195 0.09568927
v -0.11452608 -0.04158202 0.11233132
v -0.11369541 -0.04220304 0.11632075
v -0.11020592 -0.03453261 0.11557358
v -0.11334819 -0.03887164 0.12028407
v 0.00735544 0.01560997 0.04521573
v -0.00749331 0.00887703 0.05130927
v -0.01136772 0.00206410 0.04802288
v -0.11067456 -0.04100817 0.10951408
v -0.04559471 -0.01844081 0.07124056
v -0.02353078 -0.00505254 0.05506004
v 0.04505442 0.02037917 0.01959051
v 0.05159085 0.02957593 0.02239551
v 0.07201292 0.03753042 0.01422050
v 0.01178668 0.01678871 0.04407850
v -0.08862276 -0.02444771 0.10583593
v -0.04135384 -0.02321722 0.07560227
v 0.09261631 0.03120405 0.00934728
v 0.04150181 0.01087650 0.03032339
v 0.08861924 0.03463769 0.00430830
v 0.09243955 0.03431820 0.00524241
v 0.04714895 0.01463855 0.02524832
v -0.09974757 -0.04361616 0.11362843
v -0.09677036 -0.03603815 0.11817481
v -0.07172813 -0.02921950 0.10269301
v 0.09365607 0.03524833 0.01237076
v 0.09033967 0.03595305 0.01438915
v -0.08393646 -0.02937245 0.11041720
v -0.09900626 -0.02937599 0.11158808
v -0.10078389 -0.03766856 0.11999444
v -0.06893390 -0.02833984 0.10100985
v -0.09259738 -0.02619788 0.10788483
v -0.10492847 -0.03236624 0.11436581
v -0.08587868 -0.02326840 0.10397572
v -0.01127786 0.00709733 0.05313421
v -0.02004052 -0.00316955 0.05292567
v 0.07550567 0.03244563 0.00774775
v 0.07190937 0.03165222 0.00901528
v 0.04916066 0.02229023 0.01787531
v 0.09631717 0.04071469 0.00392416
v -0.00752921 0.00342245 0.04614595
v 0.09619626 0.03571548 0.00783339
v 0.08791861 0.03637855 0.01490597
v 0.08133843 0.04016019 0.01100457
v 0.08469533 0.04092672 0.00973280
v -0.10626100 -0.04479952 0.11187649
v 0.04465110 0.01306988 0.02705432
v 0.06495644 0.02946888 0.01210283
v 0.08886923 0.03023357 0.01011339
v -0.08796336 -0.03097206 0.11259693
v -0.09583775 -0.02774727 0.10953349
v -0.10138863 -0.03088523 0.11306447
v -0.01703173 -0.00149634 0.05124843
v 0.08145939 0.03432492 0.00570602
v 0.07875867 0.03314946 0.00679562
v 0.09807938 0.03953389 0.00507926
v 0.09865881 0.04105192 0.00479759
v 0.09730885 0.03797537 0.00570756
v 0.09711436 0.04020738 0.00828595
v 0.09543224 0.03853366 0.01063938
v 0.09745067 0.04260717 0.00516059
v 0.09847135 0.04194229 0.00588257
v 0.09763813 0.04171680 0.00407557
v 0.07567298 0.03854389 0.01288458
v 0.04967026 0.01558739 0.02431024
v 0.06841831 0.03059113 0.01052009
v 0.08448513 0.03515290 0.00478746
v 0.09432628 0.03333619 0.00850339
v 0.09324580 0.03732172 0.01247180
v 0.09833692 0.04208661 0.00481692
v 0.09794185 0.04111217 0.00690247
v 0.11251677 0.05452733 0.02086374
v 0.11354518 0.05602247 0.02569792
v 0.10772286 0.05580288 0.02229678
v 0.11759751 0.03133152 0.01575241
v 0.11640508 0.02601880 0.01689003
v 0.11774776 0.03388207 0.02258503
v 0.11232224 0.02340006 0.01961292
v 0.11477094 0.02584246 0.02396947
v 0.10976626 0.05420712 0.03191267
v 0.11248895 0.05416282 0.03039770
v 0.11582055 0.05034899 0.02455745
v 0.11155572 0.04931001 0.03385106
v 0.11257282 0.04612212 0.03361386
v 0.10439274 0.04245966 0.03018199
v 0.10760949 0.05598277 0.02710268
v 0.10333312 0.05286219 0.02881019
v 0.11449760 0.04139201 0.03172846
v 0.11329861 0.03528984 0.03041210
v 0.11582847 0.05077286 0.02212812
v 0.10467428 0.03175915 0.01659700
v 0.10765523 0.03015332 0.01342805
v 0.10595937 0.03375800 0.01535495
v 0.10425494 0.05385225 0.02558779
v 0.10245789 0.04740800 0.02946340
v 0.10380971 0.03541914 0.02020892
v 0.11000615 0.05055327 0.01872698
v 0.10634881 0.05359684 0.02223863
v 0.11434139 0.02950390 0.01393240
v 0.10937482 0.02518571 0.01524652
v 0.10613772 0.02548565 0.02145219
v 0.10370124 0.03358130 0.02715459
v 0.10947768 0.03243623 0.02824731
v 0.10372663 0.03879437 0.02909490
v 0.10363266 0.04950329 0.02983483
v 0.10624975 0.04752220 0.03154695
v 0.11339496 0.04676728 0.03264051
v 0.11420490 0.03299543 0.02888920
v 0.11636537 0.04616484 0.02281938
v 0.10393583 0.02956971 0.02452026
v 0.10774068 0.02500939 0.02232589
v 0.11051300 0.04000247 0.03139824
v 0.11469531 0.02958505 0.02660249
v 0.10467900 0.03188652 0.02647450
v 0.11397508 0.02953954 0.02672294
v 0.11832523 0.03328305 0.01551829
v 0.11852611 0.04730615 0.01048782
v 0.11860979 0.04339704 0.00718006
v 0.11329869 0.02809459 0.00820708
v 0.11336671 0.02575390 0.01289066
v 0.09896388 0.03597278 0.00676204
v 0.09932394 0.04193155 0.00615638
v 0.10387769 0.04297138 0.01429651
v 0.10592377 0.02868463 0.01390960
v 0.11103909 0.02940362 0.01729888
v 0.11587234 0.04948296 0.00668676
v 0.11491035 0.04958696 0.01330783
v 0.10626732 0.02945614 0.00505770
v 0.10938579 0.03681773 0.01915578
v 0.10644741 0.04694891 0.01442150
v 0.10988060 0.04890345 0.01398838
v 0.10231152 0.04642369 0.00751140
v 0.10401524 0.04729980 0.00497525
v 0.10453043 0.03149402 0.01498083
v 0.11444244 0.04021261 0.00432289
v 0.11258508 0.03011276 0.00648850
v 0.10892620 0.03067354 0.00335963
v 0.10588573 0.03439797 0.00056230
v 0.10668816 0.03647257 -0.00000000
v 0.11200713 0.04139382 0.00235070
v 0.10784448 0.04143612 0.00042972
v 0.11643331 0.03229856 0.01646677
v 0.11183155 0.04831637 0.01470798
v 0.10839620 0.04940737 0.00767832
v 0.10928913 0.04909374 0.00477972
v 0.11764781 0.04350107 0.01380124
v 0.11124105 0.04875636 0.00462478
v 0.09994355 0.03551342 0.00459540
v 0.10322572 0.03909897 0.00189121
v 0.10052269 0.03225104 0.00906334
v 0.10499043 0.04171819 0.00073619
v 0.11384095 0.04983301 0.00789026
v 0.09952853 0.04136482 0.00551769
v 0.10210253 0.03314260 0.00513063
v 0.10153858 0.03117402 0.01030245
f 1 3 2
f 2 3 4
f 2 4 5
f 5 6 2
f 6 5 7
f 7 8 6
f 9 11 10
f 11 9 12
f 7 5 13
f 4 13 5
f 13 15 14
f 14 7 13
f 4 14 15
f 8 7 16
f 16 18 17
f 19 1 2
f 19 21 20
f 20 1 19
f 4 3 22
f 22 24 23
f 23 4 22
f 23 14 4
f 25 27 26
f 25 17 18
f 28 29 25
f 6 30 2
f 21 19 30
f 2 30 19
f 31 33 32
f 34 6 8
f 35 36 10
f 33 31 37
f 37 34 8
f 26 27 38
f 38 27 39
f 26 38 40
f 41 40 38
f 42 44 43
f 45 46 28
f 45 47 43
f 47 45 28
f 48 43 44
f 46 48 44
f 48 45 43
f 45 48 46
f 3 1 49
f 20 50 49
f 49 1 20
f 51 52 3
f 49 51 3
f 53 54 50
f 20 54 53
f 50 20 53
f 54 20 55
f 56 46 57
f 29 28 58
f 56 60 59
f 58 59 60
f 60 61 58
f 60 12 61
f 39 27 62
f 62 25 29
f 27 25 62
f 63 35 39
f 63 36 35
f 36 63 64
f 65 28 46
f 59 28 65
f 65 46 56
f 56 59 65
f 66 61 12
f 66 12 9
f 67 61 66
f 10 66 9
f 10 67 66
f 10 68 67
f 10 36 68
f 68 61 67
f 36 61 68
f 69 4 15
f 13 4 69
f 15 13 69
f 16 70 18
f 25 18 70
f 7 14 70
f 70 16 7
f 25 70 71
f 71 70 14
f 72 8 16
f 72 17 40
f 40 41 72
f 73 22 3
f 22 73 24
f 24 73 74
f 52 73 3
f 73 52 74
f 75 14 23
f 14 75 71
f 25 75 23
f 71 75 25
f 42 43 76
f 74 52 76
f 24 77 23
f 23 77 47
f 77 24 76
f 77 76 43
f 77 43 47
f 28 78 47
f 78 28 25
f 78 23 47
f 23 78 25
f 79 25 26
f 17 25 79
f 26 40 79
f 79 40 17
f 80 21 30
f 80 30 6
f 21 80 34
f 80 6 34
f 81 31 32
f 81 32 82
f 81 20 21
f 82 55 81
f 20 81 55
f 83 31 81
f 83 81 21
f 31 83 34
f 83 21 34
f 84 32 33
f 32 84 82
f 84 85 82
f 11 86 10
f 86 35 10
f 39 35 87
f 41 87 35
f 87 38 39
f 41 38 87
f 35 88 41
f 37 89 33
f 37 8 89
f 33 89 88
f 89 41 88
f 31 90 37
f 90 31 34
f 37 90 34
f 44 42 91
f 52 44 91
f 91 42 76
f 91 76 52
f 51 92 50
f 51 49 92
f 49 50 92
f 50 93 51
f 93 50 54
f 93 52 51
f 94 93 54
f 52 93 94
f 85 95 82
f 54 55 95
f 11 12 96
f 96 12 97
f 86 11 96
f 98 96 97
f 97 85 98
f 86 96 98
f 84 98 85
f 86 98 84
f 97 99 57
f 97 12 99
f 97 100 54
f 97 57 100
f 54 100 94
f 94 100 52
f 44 52 100
f 44 100 46
f 101 58 61
f 29 58 101
f 63 101 64
f 101 63 39
f 39 62 101
f 101 62 29
f 102 28 59
f 58 28 102
f 59 58 102
f 57 103 56
f 60 56 103
f 61 36 104
f 104 36 64
f 101 61 104
f 101 104 64
f 41 105 72
f 105 8 72
f 89 105 41
f 8 105 89
f 17 106 16
f 106 72 16
f 74 107 24
f 107 74 76
f 24 107 76
f 33 108 84
f 108 33 88
f 109 82 95
f 82 109 55
f 109 95 55
f 85 97 110
f 110 95 85
f 110 97 54
f 54 95 110
f 111 12 60
f 12 111 99
f 60 103 111
f 57 111 103
f 57 99 111
f 100 112 46
f 100 57 112
f 57 46 112
f 113 17 72
f 17 113 106
f 113 72 106
f 108 114 84
f 114 86 84
f 35 115 88
f 88 115 108
f 115 114 108
f 115 35 86
f 114 115 86
f 116 118 117
f 119 121 120
f 121 119 118
f 122 124 123
f 125 127 126
f 125 128 117
f 128 116 117
f 129 128 125
f 128 129 116
f 125 117 130
f 118 130 117
f 131 123 124
f 123 131 132
f 127 131 124
f 133 127 125
f 127 133 131
f 133 132 131
f 130 133 125
f 133 130 132
f 134 120 135
f 136 116 121
f 116 136 118
f 136 121 118
f 137 138 116
f 132 139 123
f 119 139 118
f 139 132 130
f 130 118 139
f 123 140 122
f 122 141 124
f 141 122 142
f 143 142 144
f 145 147 146
f 146 148 145
f 148 146 143
f 148 143 149
f 144 134 149
f 134 150 149
f 150 148 149
f 145 151 147
f 151 145 152
f 152 153 151
f 141 147 151
f 153 154 151
f 141 154 124
f 154 141 151
f 154 153 155
f 124 154 155
f 126 127 155
f 127 124 155
f 145 150 156
f 145 156 152
f 156 157 152
f 158 157 156
f 157 158 159
f 160 125 126
f 129 160 161
f 160 129 125
f 126 157 160
f 159 161 160
f 160 157 159
f 162 152 126
f 152 162 153
f 155 162 126
f 162 155 153
f 129 163 116
f 163 137 116
f 164 129 161
f 164 161 159
f 163 129 164
f 163 164 137
f 158 164 159
f 158 135 164
f 134 165 120
f 165 134 144
f 166 150 134
f 135 166 134
f 150 166 156
f 166 158 156
f 158 166 135
f 116 138 167
f 121 116 167
f 167 120 121
f 167 135 120
f 138 137 167
f 168 123 139
f 140 123 168
f 139 119 168
f 120 169 119
f 165 169 120
f 169 168 119
f 140 168 169
f 122 140 170
f 142 170 144
f 170 142 122
f 170 165 144
f 165 170 169
f 140 169 170
f 141 171 147
f 141 142 171
f 146 147 172
f 172 143 146
f 145 173 150
f 173 148 150
f 148 173 145
f 143 144 174
f 144 149 174
f 174 149 143
f 126 152 175
f 157 126 175
f 157 175 152
f 164 176 137
f 164 135 176
f 167 137 176
f 176 135 167
f 147 171 177
f 147 177 172
f 143 172 177
f 142 177 171
f 143 177 142
f 178 180 179
f 179 181 178
f 182 184 183
f 184 186 185
f 184 185 187
f 186 189 188
f 182 190 184
f 190 186 184
f 186 190 182
f 191 193 192
f 193 191 194
f 195 192 196
f 197 183 198
f 182 183 197
f 199 201 200
f 202 200 201
f 179 202 201
f 203 182 200
f 204 182 203
f 203 200 202
f 202 205 203
f 186 182 206
f 207 208 178
f 209 210 207
f 208 207 210
f 211 187 195
f 187 211 184
f 178 212 207
f 209 207 212
f 212 178 181
f 180 178 213
f 213 178 208
f 213 208 214
f 215 180 213
f 215 213 214
f 216 180 215
f 180 216 179
f 217 218 216
f 217 216 189
f 219 220 198
f 205 221 218
f 221 205 202
f 222 198 220
f 223 183 224
f 198 183 223
f 186 225 185
f 186 188 225
f 225 193 194
f 226 225 188
f 193 226 189
f 188 189 226
f 185 227 187
f 187 227 195
f 194 227 225
f 185 225 227
f 189 228 217
f 228 189 186
f 217 228 186
f 191 192 229
f 192 195 229
f 229 195 227
f 191 229 194
f 229 227 194
f 218 230 205
f 218 217 230
f 231 203 205
f 203 231 204
f 231 205 230
f 231 230 217
f 231 182 204
f 182 231 206
f 186 206 231
f 217 186 231
f 232 199 200
f 197 232 182
f 182 232 200
f 181 201 233
f 212 181 233
f 233 234 212
f 199 235 201
f 233 235 234
f 235 233 201
f 179 236 181
f 236 179 201
f 181 236 201
f 211 237 224
f 208 210 238
f 238 214 208
f 214 238 192
f 196 192 238
f 238 210 196
f 237 211 239
f 210 209 239
f 239 209 237
f 195 196 240
f 195 240 211
f 196 210 240
f 239 240 210
f 211 241 184
f 183 241 224
f 212 242 209
f 242 212 234
f 209 242 220
f 242 222 220
f 222 242 234
f 214 192 243
f 243 192 193
f 215 214 243
f 243 193 215
f 244 215 193
f 244 193 189
f 215 244 216
f 216 244 189
f 216 245 179
f 245 216 218
f 245 218 221
f 202 245 221
f 245 202 179
f 219 246 220
f 220 246 209
f 247 222 234
f 234 235 247
f 247 235 199
f 224 248 223
f 246 219 248
f 198 223 248
f 248 219 198
f 249 226 193
f 225 249 193
f 249 225 226
f 198 250 197
f 232 197 250
f 222 250 198
f 199 232 250
f 250 222 247
f 250 247 199
f 240 251 211
f 240 239 251
f 239 211 251
f 184 252 183
f 252 184 241
f 183 252 241
f 211 224 253
f 241 211 253
f 241 253 224
f 224 237 254
f 248 224 254
f 248 254 246
f 254 209 246
f 209 254 237
f 255 257 256
f 256 258 255
f 258 256 259
f 260 259 256
f 261 260 256
f 260 263 262
f 264 263 265
f 266 261 267
f 268 267 269
f 269 267 257
f 261 270 267
f 270 257 267
f 270 261 256
f 270 256 257
f 271 273 272
f 272 273 274
f 275 274 273
f 275 271 276
f 271 275 273
f 275 276 277
f 258 278 272
f 278 271 272
f 258 272 279
f 280 279 272
f 255 258 279
f 279 280 281
f 281 280 282
f 255 279 281
f 255 281 282
f 271 283 276
f 278 258 283
f 271 278 283
f 258 259 284
f 283 258 284
f 283 284 276
f 282 285 255
f 257 255 285
f 286 259 260
f 262 286 260
f 286 284 259
f 284 286 287
f 286 262 287
f 288 268 289
f 289 264 288
f 288 264 265
f 267 268 290
f 267 290 291
f 268 288 290
f 290 288 291
f 267 291 292
f 267 292 265
f 291 288 292
f 265 292 288
f 264 289 293
f 263 264 293
f 294 295 268
f 294 289 295
f 289 268 295
f 294 296 280
f 296 282 280
f 294 297 289
f 294 274 297
f 293 289 297
f 297 274 293
f 280 272 298
f 280 298 294
f 272 274 298
f 298 274 294
f 267 265 299
f 299 266 267
f 263 260 300
f 266 263 300
f 300 260 261
f 266 300 261
f 268 301 294
f 269 301 268
f 301 296 294
f 296 301 282
f 301 285 282
f 257 301 269
f 301 257 285
f 275 302 274
f 302 275 277
f 262 263 302
f 287 302 277
f 302 287 262
f 284 303 276
f 284 287 303
f 277 276 303
f 303 287 277
f 304 263 293
f 304 293 274
f 263 304 302
f 302 304 274
f 263 305 265
f 299 265 305
f 263 266 305
f 305 266 299
f 306 308 307
f 309 310 306
f 309 306 307
f 311 308 306
f 312 311 306
f 306 313 312
f 310 313 306
f 314 315 313
f 316 313 315
f 317 319 318
f 317 320 319
f 317 321 320
f 322 320 321
f 310 309 323
f 317 318 323
f 318 310 323
f 309 307 323
f 324 317 323
f 307 324 323
f 321 317 324
f 325 326 324
f 308 311 327
f 311 312 327
f 312 313 328
f 329 331 330
f 329 326 332
f 325 332 326
f 333 321 334
f 326 335 334
f 333 334 335
f 336 328 313
f 336 338 337
f 328 336 339
f 337 339 336
f 313 310 340
f 313 340 314
f 310 318 340
f 340 318 314
f 315 341 316
f 315 342 341
f 343 316 341
f 342 344 319
f 345 314 318
f 315 314 345
f 318 315 345
f 318 346 315
f 318 319 346
f 346 319 344
f 319 320 347
f 322 319 347
f 322 347 320
f 319 348 342
f 322 349 348
f 335 349 333
f 335 350 349
f 349 350 351
f 352 324 326
f 324 352 321
f 352 326 334
f 321 352 334
f 324 353 325
f 308 353 307
f 325 353 308
f 354 327 312
f 327 354 339
f 354 312 328
f 354 328 339
f 327 355 308
f 308 355 325
f 355 327 339
f 339 330 355
f 355 330 356
f 356 330 331
f 339 357 330
f 339 337 357
f 330 358 329
f 358 330 359
f 359 335 358
f 329 332 360
f 329 360 331
f 325 360 332
f 360 325 356
f 356 331 360
f 361 326 329
f 326 361 335
f 361 329 358
f 361 358 335
f 359 362 335
f 363 351 350
f 363 362 364
f 365 316 343
f 343 366 365
f 313 367 336
f 367 313 316
f 336 367 316
f 368 336 316
f 338 336 368
f 316 365 368
f 366 368 365
f 368 366 338
f 369 341 342
f 342 348 369
f 369 366 343
f 342 315 370
f 342 370 344
f 315 346 370
f 344 370 346
f 371 319 322
f 348 319 371
f 322 348 371
f 372 369 348
f 369 372 366
f 321 373 322
f 349 322 373
f 321 333 373
f 349 373 333
f 366 375 374
f 338 374 376
f 377 338 366
f 377 366 374
f 353 378 307
f 378 353 324
f 307 378 324
f 355 379 325
f 379 356 325
f 356 379 355
f 380 330 357
f 359 330 380
f 380 357 337
f 380 337 381
f 359 380 376
f 359 382 362
f 362 382 364
f 375 364 382
f 383 335 362
f 350 335 383
f 362 363 383
f 383 363 350
f 351 363 384
f 384 363 364
f 375 366 385
f 366 372 385
f 364 385 384
f 375 385 364
f 385 372 349
f 351 385 349
f 384 385 351
f 386 337 338
f 381 337 386
f 338 376 386
f 387 341 369
f 343 341 387
f 369 343 387
f 388 348 349
f 348 388 372
f 388 349 372
f 376 389 359
f 382 359 389
f 382 389 374
f 338 390 374
f 390 338 377
f 374 390 377
f 381 391 380
f 376 380 391
f 386 391 381
f 386 376 391
f 374 392 382
f 392 374 375
f 382 392 375
f 389 376 393
f 376 374 393
f 393 374 389
f 394 396 395
f 397 399 398
f 400 394 401
f 395 402 401
f 395 401 394
f 403 402 395
f 403 395 396
f 396 404 403
f 405 407 406
f 407 399 406
f 405 406 408
f 406 409 408
f 406 399 409
f 399 397 409
f 407 405 410
f 410 411 407
f 409 397 412
f 404 396 413
f 414 416 415
f 417 399 418
f 402 403 417
f 399 417 403
f 419 399 407
f 420 407 411
f 416 414 420
f 407 420 419
f 421 420 411
f 420 421 416
f 422 421 411
f 423 424 411
f 424 423 400
f 422 411 424
f 400 422 424
f 423 411 425
f 411 426 425
f 425 426 423
f 400 423 427
f 394 400 427
f 394 427 423
f 422 400 428
f 428 400 429
f 402 430 401
f 430 428 429
f 428 430 402
f 430 400 401
f 423 431 394
f 408 394 431
f 426 408 431
f 403 404 432
f 408 434 433
f 408 409 434
f 412 433 434
f 434 409 412
f 435 411 410
f 426 411 435
f 436 397 398
f 397 436 412
f 433 437 413
f 433 412 437
f 413 437 438
f 436 437 412
f 438 437 398
f 436 398 437
f 408 433 439
f 439 394 408
f 394 439 396
f 416 440 415
f 440 441 415
f 402 440 428
f 441 440 402
f 442 441 402
f 417 442 402
f 443 414 415
f 417 414 443
f 442 417 443
f 415 441 443
f 441 442 443
f 444 414 417
f 418 399 445
f 445 399 419
f 419 420 445
f 414 445 420
f 445 414 444
f 417 445 444
f 445 417 418
f 421 446 416
f 446 447 440
f 416 446 440
f 447 446 422
f 446 421 422
f 447 422 448
f 422 428 448
f 447 448 440
f 448 428 440
f 449 429 400
f 430 429 449
f 400 430 449
f 423 426 450
f 431 423 450
f 431 450 426
f 403 432 451
f 399 403 451
f 398 452 438
f 432 452 451
f 399 452 398
f 452 399 451
f 404 453 432
f 452 453 438
f 452 432 453
f 453 413 438
f 404 413 453
f 435 454 426
f 426 454 408
f 408 454 405
f 410 454 435
f 454 410 405
f 455 439 433
f 433 413 455
f 455 396 439
f 413 396 455
f 456 458 457
f 459 456 457
f 458 456 460
f 456 459 460
f 460 461 458
f 460 462 461
f 463 457 458
f 457 463 462
f 462 460 464
f 460 459 464
f 462 464 457
f 464 459 457
f 465 458 461
f 465 461 462
f 458 465 463
f 465 462 463
f 466 468 467
f 468 466 469
f 469 470 468
f 469 472 471
f 469 466 472
f 471 474 473
f 474 471 472
f 472 466 474
f 466 467 474
f 475 477 476
f 478 469 471
f 477 478 471
f 478 480 479
f 481 479 480
f 475 483 482
f 483 475 484
f 485 484 475
f 469 486 470
f 487 486 488
f 487 470 486
f 489 490 487
f 489 491 481
f 468 470 492
f 492 494 493
f 495 493 494
f 496 493 495
f 493 496 497
f 498 499 493
f 499 474 467
f 493 499 492
f 468 492 499
f 499 467 468
f 487 500 470
f 500 487 495
f 495 494 500
f 492 470 500
f 492 500 494
f 498 485 501
f 498 473 502
f 474 502 473
f 502 474 499
f 503 475 476
f 485 475 503
f 503 501 485
f 476 473 503
f 503 473 501
f 504 476 477
f 477 471 504
f 473 476 504
f 473 504 471
f 478 477 505
f 478 505 480
f 481 480 505
f 506 508 507
f 506 481 508
f 509 490 489
f 482 510 475
f 477 475 510
f 510 482 508
f 510 508 481
f 481 477 510
f 511 495 487
f 497 496 512
f 497 512 485
f 484 513 483
f 485 513 484
f 514 513 512
f 485 512 513
f 486 515 479
f 478 479 515
f 515 486 469
f 469 478 515
f 479 481 516
f 479 516 486
f 516 481 491
f 486 516 488
f 487 488 516
f 482 483 517
f 517 508 482
f 487 518 489
f 485 519 497
f 493 497 519
f 485 498 519
f 493 519 498
f 498 501 520
f 501 473 520
f 520 473 498
f 498 502 521
f 499 498 521
f 499 521 502
f 481 522 477
f 481 505 522
f 505 477 522
f 507 523 506
f 513 514 523
f 489 481 524
f 524 481 506
f 489 524 523
f 506 523 524
f 525 490 509
f 526 511 525
f 511 527 525
f 527 490 525
f 490 527 487
f 528 512 529
f 528 529 511
f 495 511 529
f 530 514 531
f 531 512 528
f 512 531 514
f 526 525 532
f 509 532 525
f 532 514 530
f 483 513 533
f 483 533 507
f 523 533 513
f 523 507 533
f 487 516 534
f 534 516 491
f 534 518 487
f 518 534 489
f 491 489 534
f 507 535 483
f 517 483 535
f 507 508 535
f 535 508 517
f 536 509 489
f 489 523 536
f 536 532 509
f 514 532 536
f 536 523 514
f 527 511 537
f 487 527 537
f 487 537 511
f 538 495 529
f 495 538 496
f 512 538 529
f 538 512 496
f 526 539 531
f 539 530 531
f 539 526 532
f 539 532 530
f 540 526 531
f 511 526 540
f 540 531 528
f 528 511 540
f 541 543 542
f 544 546 545
f 547 545 548
f 545 546 548
f 549 550 542
f 550 551 542
f 552 554 553
f 550 549 552
f 543 555 542
f 542 555 549
f 555 556 549
f 546 551 557
f 553 558 557
f 559 546 544
f 559 544 541
f 559 541 542
f 551 559 542
f 560 562 561
f 560 563 562
f 563 555 543
f 555 563 556
f 556 563 564
f 563 565 564
f 563 560 565
f 541 566 543
f 566 561 562
f 566 567 543
f 566 562 567
f 567 563 543
f 562 563 567
f 568 544 545
f 566 568 561
f 568 566 541
f 568 541 544
f 545 547 569
f 561 568 569
f 568 545 569
f 547 570 569
f 570 560 569
f 560 561 569
f 571 572 558
f 564 573 554
f 573 564 571
f 573 571 558
f 573 553 554
f 574 552 549
f 564 574 556
f 556 574 549
f 575 564 554
f 552 575 554
f 564 575 574
f 575 552 574
f 576 550 552
f 576 552 553
f 576 553 557
f 550 576 551
f 551 576 557
f 577 557 558
f 578 559 551
f 546 559 578
f 551 546 578
f 564 579 571
f 579 564 565
f 565 560 579
f 560 570 579
f 570 547 580
f 547 548 580
f 570 580 579
f 553 581 558
f 581 553 573
f 558 581 573
f 582 557 577
f 546 557 582
f 546 582 548
f 571 579 583
f 572 571 583
f 580 583 579
f 583 580 572
f 580 584 572
f 584 580 548
f 548 582 584
f 558 572 584
f 558 584 577
f 577 584 582
f 585 587 586
f 588 587 585
f 585 589 588
f 590 592 591
f 589 594 593
f 586 587 595
f 586 595 596
f 593 597 589
f 589 597 588
f 598 599 592
f 600 601 599
f 599 601 592
f 592 601 591
f 601 602 591
f 598 592 603
f 603 594 598
f 594 603 593
f 587 605 604
f 587 588 605
f 604 605 606
f 588 606 605
f 606 597 607
f 606 588 597
f 604 606 608
f 607 608 606
f 609 587 604
f 587 609 595
f 610 595 609
f 604 608 609
f 609 608 610
f 611 585 598
f 598 594 611
f 589 585 611
f 611 594 589
f 600 612 596
f 598 596 612
f 612 600 599
f 599 598 612
f 613 600 596
f 613 614 602
f 601 600 613
f 602 601 613
f 615 586 596
f 615 585 586
f 598 615 596
f 615 598 585
f 616 614 595
f 610 616 595
f 616 610 614
f 607 597 617
f 618 607 617
f 590 617 619
f 619 592 590
f 603 592 619
f 614 620 602
f 620 614 610
f 620 610 608
f 608 607 620
f 618 620 607
f 595 621 596
f 613 596 621
f 621 595 614
f 614 613 621
f 591 622 590
f 617 590 622
f 622 618 617
f 620 618 622
f 602 622 591
f 622 602 620
f 623 619 617
f 619 623 597
f 623 617 597
f 624 619 597
f 597 593 624
f 619 624 603
f 593 603 624
f 2 3 1
f 4 3 2
f 5 4 2
f 2 6 5
f 7 5 6
f 6 8 7
f 10 11 9
f 12 9 11
f 13 5 7
f 5 13 4
f 14 15 13
f 13 7 14
f 15 14 4
f 16 7 8
f 17 18 16
f 2 1 19
f 20 21 19
f 19 1 20
f 22 3 4
f 23 24 22
f 22 4 23
f 4 14 23
f 26 27 25
f 18 17 25
f 25 29 28
f 2 30 6
f 30 19 21
f 19 30 2
f 32 33 31
f 8 6 34
f 10 36 35
f 37 31 33
f 8 34 37
f 38 27 26
f 39 27 38
f 40 38 26
f 38 40 41
f 43 44 42
f 28 46 45
f 43 47 45
f 28 45 47
f 44 43 48
f 44 48 46
f 43 45 48
f 46 48 45
f 49 1 3
f 49 50 20
f 20 1 49
f 3 52 51
f 3 51 49
f 50 54 53
f 53 54 20
f 53 20 50
f 55 20 54
f 57 46 56
f 58 28 29
f 59 60 56
f 60 59 58
f 58 61 60
f 61 12 60
f 62 27 39
f 29 25 62
f 62 25 27
f 39 35 63
f 35 36 63
f 64 63 36
f 46 28 65
f 65 28 59
f 56 46 65
f 65 59 56
f 12 61 66
f 9 12 66
f 66 61 67
f 9 66 10
f 66 67 10
f 67 68 10
f 68 36 10
f 67 61 68
f 68 61 36
f 15 4 69
f 69 4 13
f 69 13 15
f 18 70 16
f 70 18 25
f 70 14 7
f 7 16 70
f 71 70 25
f 14 70 71
f 16 8 72
f 40 17 72
f 72 41 40
f 3 22 73
f 24 73 22
f 74 73 24
f 3 73 52
f 74 52 73
f 23 14 75
f 71 75 14
f 23 75 25
f 25 75 71
f 76 43 42
f 76 52 74
f 23 77 24
f 47 77 23
f 76 24 77
f 43 76 77
f 47 43 77
f 47 78 28
f 25 28 78
f 47 23 78
f 25 78 23
f 26 25 79
f 79 25 17
f 79 40 26
f 17 40 79
f 30 21 80
f 6 30 80
f 34 80 21
f 34 6 80
f 32 31 81
f 82 32 81
f 21 20 81
f 81 55 82
f 55 81 20
f 81 31 83
f 21 81 83
f 34 83 31
f 34 21 83
f 33 32 84
f 82 84 32
f 82 85 84
f 10 86 11
f 10 35 86
f 87 35 39
f 35 87 41
f 39 38 87
f 87 38 41
f 41 88 35
f 33 89 37
f 89 8 37
f 88 89 33
f 88 41 89
f 37 90 31
f 34 31 90
f 34 90 37
f 91 42 44
f 91 44 52
f 76 42 91
f 52 76 91
f 50 92 51
f 92 49 51
f 92 50 49
f 51 93 50
f 54 50 93
f 51 52 93
f 54 93 94
f 94 93 52
f 82 95 85
f 95 55 54
f 96 12 11
f 97 12 96
f 96 11 86
f 97 96 98
f 98 85 97
f 98 96 86
f 85 98 84
f 84 98 86
f 57 99 97
f 99 12 97
f 54 100 97
f 100 57 97
f 94 100 54
f 52 100 94
f 100 52 44
f 46 100 44
f 61 58 101
f 101 58 29
f 64 101 63
f 39 63 101
f 101 62 39
f 29 62 101
f 59 28 102
f 102 28 58
f 102 58 59
f 56 103 57
f 103 56 60
f 104 36 61
f 64 36 104
f 104 61 101
f 64 104 101
f 72 105 41
f 72 8 105
f 41 105 89
f 89 105 8
f 16 106 17
f 16 72 106
f 24 107 74
f 76 74 107
f 76 107 24
f 84 108 33
f 88 33 108
f 95 82 109
f 55 109 82
f 55 95 109
f 110 97 85
f 85 95 110
f 54 97 110
f 110 95 54
f 60 12 111
f 99 111 12
f 111 103 60
f 103 111 57
f 111 99 57
f 46 112 100
f 112 57 100
f 112 46 57
f 72 17 113
f 106 113 17
f 106 72 113
f 84 114 108
f 84 86 114
f 88 115 35
f 108 115 88
f 108 114 115
f 86 35 115
f 86 115 114
f 117 118 116
f 120 121 119
f 118 119 121
f 123 124 122
f 126 127 125
f 117 128 125
f 117 116 128
f 125 128 129
f 116 129 128
f 130 117 125
f 117 130 118
f 124 123 131
f 132 131 123
f 124 131 127
f 125 127 133
f 131 133 127
f 131 132 133
f 125 133 130
f 132 130 133
f 135 120 134
f 121 116 136
f 118 136 116
f 118 121 136
f 116 138 137
f 123 139 132
f 118 139 119
f 130 132 139
f 139 118 130
f 122 140 123
f 124 141 122
f 142 122 141
f 144 142 143
f 146 147 145
f 145 148 146
f 143 146 148
f 149 143 148
f 149 134 144
f 149 150 134
f 149 148 150
f 147 151 145
f 152 145 151
f 151 153 152
f 151 147 141
f 151 154 153
f 124 154 141
f 151 141 154
f 155 153 154
f 155 154 124
f 155 127 126
f 155 124 127
f 156 150 145
f 152 156 145
f 152 157 156
f 156 157 158
f 159 158 157
f 126 125 160
f 161 160 129
f 125 129 160
f 160 157 126
f 160 161 159
f 159 157 160
f 126 152 162
f 153 162 152
f 126 162 155
f 153 155 162
f 116 163 129
f 116 137 163
f 161 129 164
f 159 161 164
f 164 129 163
f 137 164 163
f 159 164 158
f 164 135 158
f 120 165 134
f 144 134 165
f 134 150 166
f 134 166 135
f 156 166 150
f 156 158 166
f 135 166 158
f 167 138 116
f 167 116 121
f 121 120 167
f 120 135 167
f 167 137 138
f 139 123 168
f 168 123 140
f 168 119 139
f 119 169 120
f 120 169 165
f 119 168 169
f 169 168 140
f 170 140 122
f 144 170 142
f 122 142 170
f 144 165 170
f 169 170 165
f 170 169 140
f 147 171 141
f 171 142 141
f 172 147 146
f 146 143 172
f 150 173 145
f 150 148 173
f 145 173 148
f 174 144 143
f 174 149 144
f 143 149 174
f 175 152 126
f 175 126 157
f 152 175 157
f 137 176 164
f 176 135 164
f 176 137 167
f 167 135 176
f 177 171 147
f 172 177 147
f 177 172 143
f 171 177 142
f 142 177 143
f 179 180 178
f 178 181 179
f 183 184 182
f 185 186 184
f 187 185 184
f 188 189 186
f 184 190 182
f 184 186 190
f 182 190 186
f 192 193 191
f 194 191 193
f 196 192 195
f 198 183 197
f 197 183 182
f 200 201 199
f 201 200 202
f 201 202 179
f 200 182 203
f 203 182 204
f 202 200 203
f 203 205 202
f 206 182 186
f 178 208 207
f 207 210 209
f 210 207 208
f 195 187 211
f 184 211 187
f 207 212 178
f 212 207 209
f 181 178 212
f 213 178 180
f 208 178 213
f 214 208 213
f 213 180 215
f 214 213 215
f 215 180 216
f 179 216 180
f 216 218 217
f 189 216 217
f 198 220 219
f 218 221 205
f 202 205 221
f 220 198 222
f 224 183 223
f 223 183 198
f 185 225 186
f 225 188 186
f 194 193 225
f 188 225 226
f 189 226 193
f 226 189 188
f 187 227 185
f 195 227 187
f 225 227 194
f 227 225 185
f 217 228 189
f 186 189 228
f 186 228 217
f 229 192 191
f 229 195 192
f 227 195 229
f 194 229 191
f 194 227 229
f 205 230 218
f 230 217 218
f 205 203 231
f 204 231 203
f 230 205 231
f 217 230 231
f 204 182 231
f 206 231 182
f 231 206 186
f 231 186 217
f 200 199 232
f 182 232 197
f 200 232 182
f 233 201 181
f 233 181 212
f 212 234 233
f 201 235 199
f 234 235 233
f 201 233 235
f 181 236 179
f 201 179 236
f 201 236 181
f 224 237 211
f 238 210 208
f 208 214 238
f 192 238 214
f 238 192 196
f 196 210 238
f 239 211 237
f 239 209 210
f 237 209 239
f 240 196 195
f 211 240 195
f 240 210 196
f 210 240 239
f 184 241 211
f 224 241 183
f 209 242 212
f 234 212 242
f 220 242 209
f 220 222 242
f 234 242 222
f 243 192 214
f 193 192 243
f 243 214 215
f 215 193 243
f 193 215 244
f 189 193 244
f 216 244 215
f 189 244 216
f 179 245 216
f 218 216 245
f 221 218 245
f 221 245 202
f 179 202 245
f 220 246 219
f 209 246 220
f 234 222 247
f 247 235 234
f 199 235 247
f 223 248 224
f 248 219 246
f 248 223 198
f 198 219 248
f 193 226 249
f 193 249 225
f 226 225 249
f 197 250 198
f 250 197 232
f 198 250 222
f 250 232 199
f 247 222 250
f 199 247 250
f 211 251 240
f 251 239 240
f 251 211 239
f 183 252 184
f 241 184 252
f 241 252 183
f 253 224 211
f 253 211 241
f 224 253 241
f 254 237 224
f 254 224 248
f 246 254 248
f 246 209 254
f 237 254 209
f 256 257 255
f 255 258 256
f 259 256 258
f 256 259 260
f 256 260 261
f 262 263 260
f 265 263 264
f 267 261 266
f 269 267 268
f 257 267 269
f 267 270 261
f 267 257 270
f 256 261 270
f 257 256 270
f 272 273 271
f 274 273 272
f 273 274 275
f 276 271 275
f 273 275 271
f 277 276 275
f 272 278 258
f 272 271 278
f 279 272 258
f 272 279 280
f 279 258 255
f 281 280 279
f 282 280 281
f 281 279 255
f 282 281 255
f 276 283 271
f 283 258 278
f 283 278 271
f 284 259 258
f 284 258 283
f 276 284 283
f 255 285 282
f 285 255 257
f 260 259 286
f 260 286 262
f 259 284 286
f 287 286 284
f 287 262 286
f 289 268 288
f 288 264 289
f 265 264 288
f 290 268 267
f 291 290 267
f 290 288 268
f 291 288 290
f 292 291 267
f 265 292 267
f 292 288 291
f 288 292 265
f 293 289 264
f 293 264 263
f 268 295 294
f 295 289 294
f 295 268 289
f 280 296 294
f 280 282 296
f 289 297 294
f 297 274 294
f 297 289 293
f 293 274 297
f 298 272 280
f 294 298 280
f 298 274 272
f 294 274 298
f 299 265 267
f 267 266 299
f 300 260 263
f 300 263 266
f 261 260 300
f 261 300 266
f 294 301 268
f 268 301 269
f 294 296 301
f 282 301 296
f 282 285 301
f 269 301 257
f 285 257 301
f 274 302 275
f 277 275 302
f 302 263 262
f 277 302 287
f 262 287 302
f 276 303 284
f 303 287 284
f 303 276 277
f 277 287 303
f 293 263 304
f 274 293 304
f 302 304 263
f 274 304 302
f 265 305 263
f 305 265 299
f 305 266 263
f 299 266 305
f 307 308 306
f 306 310 309
f 307 306 309
f 306 308 311
f 306 311 312
f 312 313 306
f 306 313 310
f 313 315 314
f 315 313 316
f 318 319 317
f 319 320 317
f 320 321 317
f 321 320 322
f 323 309 310
f 323 318 317
f 323 310 318
f 323 307 309
f 323 317 324
f 323 324 307
f 324 317 321
f 324 326 325
f 327 311 308
f 327 312 311
f 328 313 312
f 330 331 329
f 332 326 329
f 326 332 325
f 334 321 333
f 334 335 326
f 335 334 333
f 313 328 336
f 337 338 336
f 339 336 328
f 336 339 337
f 340 310 313
f 314 340 313
f 340 318 310
f 314 318 340
f 316 341 315
f 341 342 315
f 341 316 343
f 319 344 342
f 318 314 345
f 345 314 315
f 345 315 318
f 315 346 318
f 346 319 318
f 344 319 346
f 347 320 319
f 347 319 322
f 320 347 322
f 342 348 319
f 348 349 322
f 333 349 335
f 349 350 335
f 351 350 349
f 326 324 352
f 321 352 324
f 334 326 352
f 334 352 321
f 325 353 324
f 307 353 308
f 308 353 325
f 312 327 354
f 339 354 327
f 328 312 354
f 339 328 354
f 308 355 327
f 325 355 308
f 339 327 355
f 355 330 339
f 356 330 355
f 331 330 356
f 330 357 339
f 357 337 339
f 329 358 330
f 359 330 358
f 358 335 359
f 360 332 329
f 331 360 329
f 332 360 325
f 356 325 360
f 360 331 356
f 329 326 361
f 335 361 326
f 358 329 361
f 335 358 361
f 335 362 359
f 350 351 363
f 364 362 363
f 343 316 365
f 365 366 343
f 336 367 313
f 316 313 367
f 316 367 336
f 316 336 368
f 368 336 338
f 368 365 316
f 365 368 366
f 338 366 368
f 342 341 369
f 369 348 342
f 343 366 369
f 370 315 342
f 344 370 342
f 370 346 315
f 346 370 344
f 322 319 371
f 371 319 348
f 371 348 322
f 348 369 372
f 366 372 369
f 322 373 321
f 373 322 349
f 373 333 321
f 333 373 349
f 374 375 366
f 376 374 338
f 366 338 377
f 374 366 377
f 307 378 353
f 324 353 378
f 324 378 307
f 325 379 355
f 325 356 379
f 355 379 356
f 357 330 380
f 380 330 359
f 337 357 380
f 381 337 380
f 376 380 359
f 362 382 359
f 364 382 362
f 382 364 375
f 362 335 383
f 383 335 350
f 383 363 362
f 350 363 383
f 384 363 351
f 364 363 384
f 385 366 375
f 385 372 366
f 384 385 364
f 364 385 375
f 349 372 385
f 349 385 351
f 351 385 384
f 338 337 386
f 386 337 381
f 386 376 338
f 369 341 387
f 387 341 343
f 387 343 369
f 349 348 388
f 372 388 348
f 372 349 388
f 359 389 376
f 389 359 382
f 374 389 382
f 374 390 338
f 377 338 390
f 377 390 374
f 380 391 381
f 391 380 376
f 381 391 386
f 391 376 386
f 382 392 374
f 375 374 392
f 375 392 382
f 393 376 389
f 393 374 376
f 389 374 393
f 395 396 394
f 398 399 397
f 401 394 400
f 401 402 395
f 394 401 395
f 395 402 403
f 396 395 403
f 403 404 396
f 406 407 405
f 406 399 407
f 408 406 405
f 408 409 406
f 409 399 406
f 409 397 399
f 410 405 407
f 407 411 410
f 412 397 409
f 413 396 404
f 415 416 414
f 418 399 417
f 417 403 402
f 403 417 399
f 407 399 419
f 411 407 420
f 420 414 416
f 419 420 407
f 411 420 421
f 416 421 420
f 411 421 422
f 411 424 423
f 400 423 424
f 424 411 422
f 424 422 400
f 425 411 423
f 425 426 411
f 423 426 425
f 427 423 400
f 427 400 394
f 423 427 394
f 428 400 422
f 429 400 428
f 401 430 402
f 429 428 430
f 402 430 428
f 401 400 430
f 394 431 423
f 431 394 408
f 431 408 426
f 432 404 403
f 433 434 408
f 434 409 408
f 434 433 412
f 412 409 434
f 410 411 435
f 435 411 426
f 398 397 436
f 412 436 397
f 413 437 433
f 437 412 433
f 438 437 413
f 412 437 436
f 398 437 438
f 437 398 436
f 439 433 408
f 408 394 439
f 396 439 394
f 415 440 416
f 415 441 440
f 428 440 402
f 402 440 441
f 402 441 442
f 402 442 417
f 415 414 443
f 443 414 417
f 443 417 442
f 443 441 415
f 443 442 441
f 417 414 444
f 445 399 418
f 419 399 445
f 445 420 419
f 420 445 414
f 444 414 445
f 444 445 417
f 418 417 445
f 416 446 421
f 440 447 446
f 440 446 416
f 422 446 447
f 422 421 446
f 448 422 447
f 448 428 422
f 440 448 447
f 440 428 448
f 400 429 449
f 449 429 430
f 449 430 400
f 450 426 423
f 450 423 431
f 426 450 431
f 451 432 403
f 451 403 399
f 438 452 398
f 451 452 432
f 398 452 399
f 451 399 452
f 432 453 404
f 438 453 452
f 453 432 452
f 438 413 453
f 453 413 404
f 426 454 435
f 408 454 426
f 405 454 408
f 435 454 410
f 405 410 454
f 433 439 455
f 455 413 433
f 439 396 455
f 455 396 413
f 457 458 456
f 457 456 459
f 460 456 458
f 460 459 456
f 458 461 460
f 461 462 460
f 458 457 463
f 462 463 457
f 464 460 462
f 464 459 460
f 457 464 462
f 457 459 464
f 461 458 465
f 462 461 465
f 463 465 458
f 463 462 465
f 467 468 466
f 469 466 468
f 468 470 469
f 471 472 469
f 472 466 469
f 473 474 471
f 472 471 474
f 474 466 472
f 474 467 466
f 476 477 475
f 471 469 478
f 471 478 477
f 479 480 478
f 480 479 481
f 482 483 475
f 484 475 483
f 475 484 485
f 470 486 469
f 488 486 487
f 486 470 487
f 487 490 489
f 481 491 489
f 492 470 468
f 493 494 492
f 494 493 495
f 495 493 496
f 497 496 493
f 493 499 498
f 467 474 499
f 492 499 493
f 499 492 468
f 468 467 499
f 470 500 487
f 495 487 500
f 500 494 495
f 500 470 492
f 494 500 492
f 501 485 498
f 502 473 498
f 473 502 474
f 499 474 502
f 476 475 503
f 503 475 485
f 485 501 503
f 503 473 476
f 501 473 503
f 477 476 504
f 504 471 477
f 504 476 473
f 471 504 473
f 505 477 478
f 480 505 478
f 505 480 481
f 507 508 506
f 508 481 506
f 489 490 509
f 475 510 482
f 510 475 477
f 508 482 510
f 481 508 510
f 510 477 481
f 487 495 511
f 512 496 497
f 485 512 497
f 483 513 484
f 484 513 485
f 512 513 514
f 513 512 485
f 479 515 486
f 515 479 478
f 469 486 515
f 515 478 469
f 516 481 479
f 486 516 479
f 491 481 516
f 488 516 486
f 516 488 487
f 517 483 482
f 482 508 517
f 489 518 487
f 497 519 485
f 519 497 493
f 519 498 485
f 498 519 493
f 520 501 498
f 520 473 501
f 498 473 520
f 521 502 498
f 521 498 499
f 502 521 499
f 477 522 481
f 522 505 481
f 522 477 505
f 506 523 507
f 523 514 513
f 524 481 489
f 506 481 524
f 523 524 489
f 524 523 506
f 509 490 525
f 525 511 526
f 525 527 511
f 525 490 527
f 487 527 490
f 529 512 528
f 511 529 528
f 529 511 495
f 531 514 530
f 528 512 531
f 514 531 512
f 532 525 526
f 525 532 509
f 530 514 532
f 533 513 483
f 507 533 483
f 513 533 523
f 533 507 523
f 534 516 487
f 491 516 534
f 487 518 534
f 489 534 518
f 534 489 491
f 483 535 507
f 535 483 517
f 535 508 507
f 517 508 535
f 489 509 536
f 536 523 489
f 509 532 536
f 536 532 514
f 514 523 536
f 537 511 527
f 537 527 487
f 511 537 487
f 529 495 538
f 496 538 495
f 529 538 512
f 496 512 538
f 531 539 526
f 531 530 539
f 532 526 539
f 530 532 539
f 531 526 540
f 540 526 511
f 528 531 540
f 540 511 528
f 542 543 541
f 545 546 544
f 548 545 547
f 548 546 545
f 542 550 549
f 542 551 550
f 553 554 552
f 552 549 550
f 542 555 543
f 549 555 542
f 549 556 555
f 557 551 546
f 557 558 553
f 544 546 559
f 541 544 559
f 542 541 559
f 542 559 551
f 561 562 560
f 562 563 560
f 543 555 563
f 556 563 555
f 564 563 556
f 564 565 563
f 565 560 563
f 543 566 541
f 562 561 566
f 543 567 566
f 567 562 566
f 543 563 567
f 567 563 562
f 545 544 568
f 561 568 566
f 541 566 568
f 544 541 568
f 569 547 545
f 569 568 561
f 569 545 568
f 569 570 547
f 569 560 570
f 569 561 560
f 558 572 571
f 554 573 564
f 571 564 573
f 558 571 573
f 554 553 573
f 549 552 574
f 556 574 564
f 549 574 556
f 554 564 575
f 554 575 552
f 574 575 564
f 574 552 575
f 552 550 576
f 553 552 576
f 557 553 576
f 551 576 550
f 557 576 551
f 558 557 577
f 551 559 578
f 578 559 546
f 578 546 551
f 571 579 564
f 565 564 579
f 579 560 565
f 579 570 560
f 580 547 570
f 580 548 547
f 579 580 570
f 558 581 553
f 573 553 581
f 573 581 558
f 577 557 582
f 582 557 546
f 548 582 546
f 583 579 571
f 583 571 572
f 579 583 580
f 572 580 583
f 572 584 580
f 548 580 584
f 584 582 548
f 584 572 558
f 577 584 558
f 582 584 577
f 586 587 585
f 585 587 588
f 588 589 585
f 591 592 590
f 593 594 589
f 595 587 586
f 596 595 586
f 589 597 593
f 588 597 589
f 592 599 598
f 599 601 600
f 592 601 599
f 591 601 592
f 591 602 601
f 603 592 598
f 598 594 603
f 593 603 594
f 604 605 587
f 605 588 587
f 606 605 604
f 605 606 588
f 607 597 606
f 597 588 606
f 608 606 604
f 606 608 607
f 604 587 609
f 595 609 587
f 609 595 610
f 609 608 604
f 610 608 609
f 598 585 611
f 611 594 598
f 611 585 589
f 589 594 611
f 596 612 600
f 612 596 598
f 599 600 612
f 612 598 599
f 596 600 613
f 602 614 613
f 613 600 601
f 613 601 602
f 596 586 615
f 586 585 615
f 596 615 598
f 585 598 615
f 595 614 616
f 595 616 610
f 614 610 616
f 617 597 607
f 617 607 618
f 619 617 590
f 590 592 619
f 619 592 603
f 602 620 614
f 610 614 620
f 608 610 620
f 620 607 608
f 607 620 618
f 596 621 595
f 621 596 613
f 614 595 621
f 621 613 614
f 590 622 591
f 622 590 617
f 617 618 622
f 622 618 620
f 591 622 602
f 620 602 622
f 617 619 623
f 597 623 619
f 597 617 623
f 597 619 624
f 624 593 597
f 603 624 619
f 624 603 593