# https://github.com/mikedh/trimesh
v -0.00043753 -0.00999797 0.14162277
v -0.00026448 -0.00999797 0.14186095
v -0.00050266 -0.00999797 0.14168792
v -0.00054447 -0.00999797 0.14176996
v -0.00035546 -0.00999797 0.14158097
v -0.00055888 -0.00999797 0.14186095
v -0.00026448 -0.00999797 0.14156657
v -0.00017351 -0.00999797 0.14158097
v -0.00054447 -0.00999797 0.14195193
v -0.00009144 -0.00999797 0.14162277
v -0.00050266 -0.00999797 0.14203398
v -0.00002631 -0.00999797 0.14168792
v -0.00043753 -0.00999797 0.14209912
v 0.00001550 -0.00999797 0.14176996
v -0.00035546 -0.00999797 0.14214093
v 0.00002991 -0.00999797 0.14186095
v -0.00026448 -0.00999797 0.14215533
v -0.00017351 -0.00999797 0.14214093
v 0.00001550 -0.00999797 0.14195193
v -0.00009144 -0.00999797 0.14209912
v -0.00002631 -0.00999797 0.14203398
v -0.00348721 -0.01036576 0.13951950
v -0.00260593 -0.01036576 0.13863821
v -0.00211840 -0.01036576 0.13930924
v -0.00281617 -0.01036576 0.14000704
v -0.00405302 -0.01036576 0.14062997
v -0.00326417 -0.01036576 0.14088628
v -0.00149546 -0.01036576 0.13807241
v -0.00123914 -0.01036576 0.13886126
v -0.00424799 -0.01036576 0.14186095
v -0.00341855 -0.01036576 0.14186095
v -0.00026448 -0.01036576 0.13787744
v -0.00026448 -0.01036576 0.13870688
v 0.00096649 -0.01036576 0.13807241
v 0.00071017 -0.01036576 0.13886126
v -0.00405302 -0.01036576 0.14309193
v -0.00326417 -0.01036576 0.14283561
v 0.00207696 -0.01036576 0.13863821
v 0.00158943 -0.01036576 0.13930924
v -0.00348721 -0.01036576 0.14420240
v -0.00281617 -0.01036576 0.14371485
v 0.00295824 -0.01036576 0.13951950
v 0.00228721 -0.01036576 0.14000704
v -0.00260593 -0.01036576 0.14508369
v -0.00211840 -0.01036576 0.14441266
v 0.00352405 -0.01036576 0.14062997
v 0.00273520 -0.01036576 0.14088628
v -0.00149546 -0.01036576 0.14564949
v -0.00123914 -0.01036576 0.14486064
v 0.00371902 -0.01036576 0.14186095
v 0.00288958 -0.01036576 0.14186095
v -0.00026448 -0.01036576 0.14584446
v -0.00026448 -0.01036576 0.14501502
v 0.00096649 -0.01036576 0.14564949
v 0.00071017 -0.01036576 0.14486064
v 0.00352406 -0.01036576 0.14309193
v 0.00273521 -0.01036576 0.14283561
v 0.00207696 -0.01036576 0.14508369
v 0.00158943 -0.01036576 0.14441266
v 0.00295824 -0.01036576 0.14420240
v 0.00228721 -0.01036576 0.14371485
v -0.01168981 0.01107334 0.13288010
v -0.00856547 0.01419769 0.13288010
v -0.00026448 0.00277236 0.13288010
v -0.00462857 0.01620364 0.13288010
v -0.01369576 0.00713644 0.13288010
v -0.00026448 0.01689484 0.13288010
v -0.01438696 0.00277236 0.13288010
v 0.00409960 0.01620364 0.13288010
v -0.01369576 -0.00159173 0.13288010
v 0.00803650 0.01419769 0.13288010
v -0.01168981 -0.00552862 0.13288010
v -0.00856547 -0.00865296 0.13288010
v 0.01116085 0.01107335 0.13288010
v -0.00462857 -0.01065891 0.13288010
v 0.01316680 0.00713645 0.13288010
v -0.00026448 -0.01135012 0.13288010
v 0.01385799 0.00277236 0.13288010
v 0.01316679 -0.00159172 0.13288010
v 0.00409960 -0.01065891 0.13288010
v 0.01116084 -0.00552862 0.13288010
v 0.00803650 -0.00865296 0.13288010
v -0.00953815 0.01201271 0.14887233
v -0.01114414 0.01067689 0.14887233
v -0.00870823 0.00890710 0.14887233
v 0.00817926 0.00890710 0.14887233
v 0.01061518 0.01067690 0.14887233
v 0.00900918 0.01201272 0.14887233
v -0.00348721 -0.01083969 0.13951950
v -0.00260593 -0.01097927 0.13863821
v -0.00405302 -0.01075007 0.14062997
v -0.00149545 -0.01115515 0.13807241
v -0.00424799 -0.01071919 0.14186095
v -0.00405302 -0.01075007 0.14309193
v -0.00026448 -0.01135012 0.13787744
v 0.00096649 -0.01115515 0.13807241
v -0.00348721 -0.01083969 0.14420240
v 0.00207696 -0.01097927 0.13863821
v 0.00295824 -0.01083969 0.13951950
v -0.00260593 -0.01097927 0.14508369
v 0.00352405 -0.01075007 0.14062997
v -0.00149546 -0.01115515 0.14564949
v 0.00371902 -0.01071919 0.14186095
v 0.00352406 -0.01075007 0.14309193
v 0.00096649 -0.01115515 0.14564949
v -0.00026448 -0.01135012 0.14584446
v 0.00295824 -0.01083969 0.14420240
v 0.00207696 -0.01097927 0.14508369
v -0.00816902 -0.00810730 0.14887233
v -0.00844935 -0.00849314 0.14867720
v -0.00456752 -0.01047103 0.14867720
v -0.00442014 -0.01001744 0.14887233
v -0.00856547 -0.00865296 0.14820615
v -0.00462857 -0.01065891 0.14820615
v -0.01369576 0.00713644 0.14820615
v -0.01168981 0.01107334 0.14820615
v -0.01438696 0.00277236 0.14820615
v -0.01369576 -0.00159173 0.14820615
v -0.01168981 -0.00552862 0.14820615
v 0.01116085 0.01107335 0.14820615
v 0.01316680 0.00713645 0.14820615
v 0.01385799 0.00277236 0.14820615
v 0.01316679 -0.00159172 0.14820615
v 0.01116084 -0.00552862 0.14820615
v 0.00803650 -0.00865296 0.14820615
v 0.00409960 -0.01065891 0.14820615
v 0.01100102 0.01095723 0.14867720
v 0.01297891 0.00707540 0.14867720
v 0.01252533 0.00692802 0.14887233
v -0.01152999 0.01095723 0.14867720
v -0.01350788 0.00707540 0.14867720
v -0.01305429 0.00692802 0.14887233
v -0.01418941 0.00277236 0.14867720
v -0.01371248 0.00277236 0.14887233
v -0.01350788 -0.00153068 0.14867720
v -0.01305429 -0.00138330 0.14887233
v -0.01152999 -0.00541251 0.14867720
v -0.01114414 -0.00513217 0.14887233
v -0.00026448 -0.01115257 0.14867720
v -0.00026448 -0.01067563 0.14887233
v -0.00026448 -0.01135012 0.14820615
v 0.01366044 0.00277236 0.14867720
v 0.01318351 0.00277236 0.14887233
v 0.01297891 -0.00153068 0.14867720
v 0.01252532 -0.00138330 0.14887233
v 0.01100102 -0.00541251 0.14867720
v 0.01061517 -0.00513217 0.14887233
v 0.00792038 -0.00849314 0.14867720
v 0.00764005 -0.00810730 0.14887233
v 0.00403855 -0.01047103 0.14867720
v 0.00389117 -0.01001744 0.14887233
v -0.00845042 0.00885027 0.14879968
v -0.00777152 0.00521154 0.14887233
v -0.00752284 0.00519942 0.14880778
v -0.00931402 0.01211502 0.14880999
v -0.00933762 0.01283842 0.14872606
v -0.00959325 0.01284192 0.14876883
v -0.00572844 0.01544530 0.14652474
v -0.00578343 0.01561521 0.14632345
v -0.00856547 0.01419769 0.14793667
v -0.00846089 0.01402816 0.14811740
v -0.00457302 0.01604045 0.14626107
v -0.00462857 0.01620364 0.14607733
v -0.00026448 0.01672789 0.14548138
v -0.00026448 0.01689484 0.14529080
v 0.00404567 0.01604523 0.14626070
v 0.00409960 0.01620364 0.14607733
v 0.00793829 0.01404017 0.14811910
v 0.00803650 0.01419769 0.14793667
v 0.00525446 0.01561521 0.14632345
v 0.00519947 0.01544530 0.14652474
v 0.00841840 0.01347868 0.14844042
v 0.00875215 0.01348204 0.14849200
v 0.00880433 0.01283496 0.14872431
v 0.00906842 0.01283790 0.14876861
v -0.00589855 -0.00219895 0.14887233
v -0.00572844 -0.00198801 0.14884000
v -0.00584092 -0.00133181 0.14881066
v -0.00605978 -0.00143817 0.14887233
v -0.00482672 -0.00350702 0.14887233
v -0.00465810 -0.00332657 0.14884676
v -0.00301048 -0.00567894 0.14887233
v -0.00286798 -0.00546735 0.14884504
v -0.00026448 -0.00899883 0.14887233
v -0.00026448 -0.00861545 0.14884714
v 0.00248151 -0.00567894 0.14887233
v 0.00233901 -0.00546735 0.14884504
v 0.00515936 -0.00204177 0.14882652
v 0.00535174 -0.00220236 0.14887233
v 0.00553081 -0.00143817 0.14887233
v 0.00531195 -0.00133181 0.14881066
v 0.00412913 -0.00332656 0.14884676
v 0.00429775 -0.00350702 0.14887233
v -0.00715032 0.00277236 0.14887233
v -0.00691103 0.00280086 0.14881185
v -0.00661885 0.00070770 0.14887233
v -0.00638936 0.00077504 0.14881276
v 0.00792145 0.00885027 0.14879968
v 0.00877675 0.01211600 0.14880560
v 0.00699387 0.00519942 0.14880778
v 0.00724255 0.00521154 0.14887233
v 0.00638206 0.00280086 0.14881185
v 0.00662135 0.00277236 0.14887233
v 0.00586039 0.00077504 0.14881276
v 0.00608988 0.00070770 0.14887233
v -0.00928107 0.01348209 0.14849200
v -0.00898342 0.01350831 0.14845501
v 0.01326088 0.01259911 0.09995358
v 0.01563553 0.00793859 0.09995358
v -0.00026448 0.00277236 0.09995358
v 0.00956227 0.01629772 0.09995358
v 0.00490174 0.01867238 0.09995358
v -0.00026448 0.01949063 0.09995358
v -0.00543071 0.01867238 0.09995358
v -0.01009123 0.01629772 0.09995358
v -0.01378984 0.01259911 0.09995358
v -0.01616450 0.00793859 0.09995358
v -0.01698275 0.00277236 0.09995358
v -0.01616450 -0.00239387 0.09995358
v -0.01378984 -0.00705439 0.09995358
v -0.01009123 -0.01075300 0.09995358
v -0.00543071 -0.01312765 0.09995358
v -0.00026448 -0.01394590 0.09995358
v 0.00490174 -0.01312765 0.09995358
v 0.00956226 -0.01075300 0.09995358
v 0.01326087 -0.00705439 0.09995358
v 0.01563552 -0.00239387 0.09995358
v 0.01645377 0.00277236 0.09995358
v 0.01329977 0.00717965 0.13246335
v 0.01127396 0.01115553 0.13246335
v -0.00026448 0.00277236 0.13246335
v 0.00811869 0.01431081 0.13246335
v 0.00414281 0.01633662 0.13246335
v -0.00026448 0.01703466 0.13246335
v -0.00467178 0.01633662 0.13246335
v -0.00864765 0.01431081 0.13246335
v -0.01180293 0.01115553 0.13246335
v -0.01382874 0.00717965 0.13246335
v -0.01452678 0.00277236 0.13246335
v -0.01382874 -0.00163493 0.13246335
v -0.01180293 -0.00561081 0.13246335
v -0.00864765 -0.00876608 0.13246335
v -0.00467178 -0.01079189 0.13246335
v -0.00026448 -0.01148994 0.13246335
v 0.00414281 -0.01079189 0.13246335
v 0.00811868 -0.00876608 0.13246335
v 0.01127396 -0.00561081 0.13246335
v 0.01329976 -0.00163493 0.13246335
v 0.01399781 0.00277236 0.13246335
v 0.01326088 0.01259911 0.11282209
v 0.01563553 0.00793859 0.11282209
v 0.00956227 0.01629772 0.11282209
v 0.00490174 0.01867238 0.11282209
v -0.00026448 0.01949063 0.11282209
v -0.00543071 0.01867238 0.11282209
v -0.01009123 0.01629772 0.11282209
v -0.01378984 0.01259911 0.11282209
v -0.01616450 0.00793859 0.11282209
v -0.01698275 0.00277236 0.11282209
v -0.01616450 -0.00239387 0.11282209
v -0.01378984 -0.00705439 0.11282209
v -0.01009123 -0.01075300 0.11282209
v -0.00543071 -0.01312765 0.11282209
v -0.00026448 -0.01394590 0.11282209
v 0.00490174 -0.01312765 0.11282209
v 0.00956226 -0.01075300 0.11282209
v 0.01326087 -0.00705439 0.11282209
v 0.01563552 -0.00239387 0.11282209
v 0.01645377 0.00277236 0.11282209
v 0.01269127 0.01218527 0.11399985
v 0.01496592 0.00772102 0.11399985
v 0.00914842 0.01572811 0.11399985
v 0.00468417 0.01800276 0.11399985
v -0.00026448 0.01878655 0.11399985
v -0.00521314 0.01800276 0.11399985
v -0.00967739 0.01572811 0.11399985
v -0.01322024 0.01218526 0.11399985
v -0.01549488 0.00772102 0.11399985
v -0.01627867 0.00277236 0.11399985
v -0.01549488 -0.00217630 0.11399985
v -0.01322023 -0.00664054 0.11399985
v -0.00967739 -0.01018339 0.11399985
v -0.00521314 -0.01245804 0.11399985
v -0.00026448 -0.01324183 0.11399985
v 0.00468417 -0.01245803 0.11399985
v 0.00914842 -0.01018339 0.11399985
v 0.01269126 -0.00664054 0.11399985
v 0.01496591 -0.00217630 0.11399985
v 0.01574970 0.00277236 0.11399985
v 0.01269127 0.01218527 0.13054576
v 0.01496592 0.00772102 0.13054576
v 0.00914842 0.01572811 0.13054576
v 0.00468417 0.01800276 0.13054576
v -0.00026448 0.01878655 0.13054576
v -0.00521314 0.01800276 0.13054576
v -0.00967739 0.01572811 0.13054576
v -0.01322024 0.01218526 0.13054576
v -0.01549488 0.00772102 0.13054576
v -0.01627867 0.00277236 0.13054576
v -0.01549488 -0.00217630 0.13054576
v -0.01322023 -0.00664054 0.13054576
v -0.00967739 -0.01018339 0.13054576
v -0.00521314 -0.01245804 0.13054576
v -0.00026448 -0.01324183 0.13054576
v 0.00468417 -0.01245803 0.13054576
v 0.00914842 -0.01018339 0.13054576
v 0.01269126 -0.00664054 0.13054576
v 0.01496591 -0.00217630 0.13054576
v 0.01574970 0.00277236 0.13054576
v 0.01217293 0.01180867 0.13105250
v 0.01435658 0.00752303 0.13105250
v 0.00877183 0.01520978 0.13105250
v 0.00448619 0.01739342 0.13105250
v -0.00026448 0.01814585 0.13105250
v -0.00501516 0.01739342 0.13105250
v -0.00930080 0.01520978 0.13105250
v -0.01270190 0.01180867 0.13105250
v -0.01488554 0.00752303 0.13105250
v -0.01563797 0.00277236 0.13105250
v -0.01488554 -0.00197831 0.13105250
v -0.01270190 -0.00626395 0.13105250
v -0.00930079 -0.00966505 0.13105250
v -0.00501515 -0.01184870 0.13105250
v -0.00026448 -0.01260113 0.13105250
v 0.00448618 -0.01184869 0.13105250
v 0.00877182 -0.00966505 0.13105250
v 0.01217293 -0.00626395 0.13105250
v 0.01435657 -0.00197831 0.13105250
v 0.01510900 0.00277236 0.13105250
v 0.01169382 0.01146057 0.13105250
v 0.01379334 0.00734002 0.13105250
v 0.00842373 0.01473066 0.13105250
v 0.00430318 0.01683018 0.13105250
v -0.00026448 0.01755363 0.13105250
v -0.00483215 0.01683018 0.13105250
v -0.00895270 0.01473066 0.13105250
v -0.01222278 0.01146057 0.13105250
v -0.01432231 0.00734002 0.13105250
v -0.01504575 0.00277236 0.13105250
v -0.01432231 -0.00179530 0.13105250
v -0.01222278 -0.00591585 0.13105250
v -0.00895269 -0.00918593 0.13105250
v -0.00483215 -0.01128546 0.13105250
v -0.00026448 -0.01200891 0.13105250
v 0.00430318 -0.01128546 0.13105250
v 0.00842372 -0.00918593 0.13105250
v 0.01169381 -0.00591585 0.13105250
v 0.01379333 -0.00179530 0.13105250
v 0.01451678 0.00277236 0.13105250
v 0.01169382 0.01146057 0.13479708
v 0.01379334 0.00734002 0.13479708
v 0.00842373 0.01473066 0.13479708
v 0.00430318 0.01683018 0.13479708
v -0.00026448 0.01755363 0.13479708
v -0.00483215 0.01683018 0.13479708
v -0.00895270 0.01473066 0.13479708
v -0.01222278 0.01146057 0.13479708
v -0.01432231 0.00734002 0.13479708
v -0.01504575 0.00277236 0.13479708
v -0.01432231 -0.00179530 0.13479708
v -0.01222278 -0.00591585 0.13479708
v -0.00895269 -0.00918593 0.13479708
v -0.00483215 -0.01128546 0.13479708
v -0.00026448 -0.01200891 0.13479708
v 0.00430318 -0.01128546 0.13479708
v 0.00842372 -0.00918593 0.13479708
v 0.01169381 -0.00591585 0.13479708
v 0.01379333 -0.00179530 0.13479708
v 0.01451678 0.00277236 0.13479708
v 0.01127396 0.01115553 0.13479708
v 0.01329977 0.00717965 0.13479708
v 0.00811869 0.01431081 0.13479708
v 0.00414281 0.01633662 0.13479708
v -0.00026448 0.01703466 0.13479708
v -0.00467178 0.01633662 0.13479708
v -0.00864765 0.01431081 0.13479708
v -0.01180293 0.01115553 0.13479708
v -0.01382874 0.00717965 0.13479708
v -0.01452678 0.00277236 0.13479708
v -0.01382874 -0.00163493 0.13479708
v -0.01180293 -0.00561081 0.13479708
v -0.00864765 -0.00876608 0.13479708
v -0.00467178 -0.01079189 0.13479708
v -0.00026448 -0.01148994 0.13479708
v 0.00414281 -0.01079189 0.13479708
v 0.00811868 -0.00876608 0.13479708
v 0.01127396 -0.00561081 0.13479708
v 0.01329976 -0.00163493 0.13479708
v 0.01399781 0.00277236 0.13479708
v -0.02849059 0.00277236 0.01798221
v -0.02710911 -0.00594999 0.01798221
v -0.02710911 -0.00594999 0.07441170
v -0.02849059 0.00277236 0.07441170
v -0.02309988 -0.01381853 0.01798221
v -0.02309988 -0.01381853 0.07441170
v -0.01685537 -0.02006304 0.01798221
v -0.01685537 -0.02006304 0.07441170
v -0.00898683 -0.02407226 0.01798221
v -0.00898683 -0.02407226 0.07441170
v -0.00026449 -0.02545374 0.01798221
v -0.00026449 -0.02545374 0.07441170
v 0.00845786 -0.02407226 0.01798221
v 0.00845786 -0.02407226 0.07441170
v 0.01632640 -0.02006304 0.01798221
v 0.01632640 -0.02006304 0.07441170
v 0.02257091 -0.01381853 0.01798221
v 0.02257091 -0.01381853 0.07441170
v 0.02658013 -0.00594998 0.01798221
v 0.02658013 -0.00594998 0.07441170
v 0.02796161 0.00277236 0.01798221
v 0.02796161 0.00277236 0.07441170
v 0.02658015 0.01149471 0.01798221
v 0.02658015 0.01149471 0.07441170
v 0.01402230 0.00741442 0.10584787
v 0.01188858 0.01160207 0.10584787
v -0.00026449 0.00277236 0.10584787
v 0.00856523 0.01492543 0.10584787
v 0.00437757 0.01705914 0.10584787
v -0.00026449 0.01779437 0.10584787
v -0.00490654 0.01705914 0.10584787
v -0.00909420 0.01492542 0.10584787
v -0.01241755 0.01160207 0.10584787
v -0.01455126 0.00741441 0.10584787
v -0.01528649 0.00277236 0.10584787
v -0.01455126 -0.00186969 0.10584787
v -0.01241755 -0.00605735 0.10584787
v -0.00909419 -0.00938070 0.10584787
v -0.00490654 -0.01151441 0.10584787
v -0.00026449 -0.01224964 0.10584787
v 0.00437757 -0.01151441 0.10584787
v 0.00856522 -0.00938070 0.10584787
v 0.01188857 -0.00605735 0.10584787
v 0.01402229 -0.00186969 0.10584787
v 0.01475751 0.00277236 0.10584787
v 0.01986378 0.01739639 0.00000000
v 0.02339770 0.01046067 0.00000000
v -0.00026448 0.00277236 0.00000000
v 0.01435955 0.02290062 0.00000000
v 0.00742383 0.02643454 0.00000000
v -0.00026448 0.02765225 0.00000000
v -0.00795279 0.02643454 0.00000000
v -0.01488852 0.02290061 0.00000000
v -0.02039273 0.01739639 0.00000000
v -0.02392666 0.01046067 0.00000000
v -0.02514437 0.00277236 0.00000000
v -0.02392666 -0.00491595 0.00000000
v -0.02039273 -0.01185167 0.00000000
v -0.01488851 -0.01735589 0.00000000
v -0.00795279 -0.02088981 0.00000000
v -0.00026449 -0.02210752 0.00000000
v 0.00742382 -0.02088981 0.00000000
v 0.01435954 -0.01735588 0.00000000
v 0.01986376 -0.01185167 0.00000000
v 0.02339769 -0.00491595 0.00000000
v 0.02461539 0.00277236 0.00000000
v 0.02257092 0.01936325 0.01798221
v 0.02257092 0.01936325 0.07441170
v 0.01632641 0.02560777 0.01798221
v 0.01632641 0.02560777 0.07441170
v 0.00845786 0.02961699 0.01798221
v 0.00845786 0.02961699 0.07441170
v -0.00026448 0.03099847 0.01798221
v -0.00026448 0.03099847 0.07441170
v -0.00898683 0.02961699 0.01798221
v -0.00898683 0.02961699 0.07441170
v -0.01685538 0.02560776 0.01798221
v -0.01685538 0.02560776 0.07441170
v -0.02309988 0.01936325 0.01798221
v -0.02309988 0.01936325 0.07441170
v -0.02710911 0.01149471 0.01798221
v -0.02710911 0.01149471 0.07441170
v 0.02446973 0.01080899 0.09321718
v 0.02077570 0.01805894 0.09321718
v 0.01368380 0.01290638 0.09907311
v 0.01613272 0.00810013 0.09907311
v 0.01502210 0.02381254 0.09321718
v 0.00986954 0.01672065 0.09907311
v 0.00777215 0.02750657 0.09321718
v 0.00506328 0.01916956 0.09907311
v -0.00026448 0.02877945 0.09321718
v -0.00026449 0.02001339 0.09907311
v -0.00830112 0.02750657 0.09321718
v -0.00559226 0.01916956 0.09907311
v -0.01555107 0.02381253 0.09321718
v -0.01039851 0.01672065 0.09907311
v -0.02130466 0.01805894 0.09321718
v -0.01421277 0.01290638 0.09907311
v -0.02499869 0.01080899 0.09321718
v -0.01666168 0.00810013 0.09907311
v -0.02627157 0.00277236 0.09321718
v -0.01750551 0.00277236 0.09907311
v -0.02499869 -0.00526427 0.09321718
v -0.01666168 -0.00255541 0.09907311
v -0.02130466 -0.01251422 0.09321718
v -0.01421277 -0.00736166 0.09907311
v -0.01555106 -0.01826781 0.09321718
v -0.01039850 -0.01117593 0.09907311
v -0.00830111 -0.02196184 0.09321718
v -0.00559225 -0.01362483 0.09907311
v -0.00026449 -0.02323472 0.09321718
v -0.00026449 -0.01446866 0.09907311
v 0.00777214 -0.02196184 0.09321718
v 0.00506328 -0.01362483 0.09907311
v 0.01502209 -0.01826781 0.09321718
v 0.00986953 -0.01117592 0.09907311
v 0.02077568 -0.01251422 0.09321718
v 0.01368380 -0.00736166 0.09907311
v 0.02446971 -0.00526427 0.09321718
v 0.01613270 -0.00255541 0.09907311
v 0.02574259 0.00277236 0.09321718
v 0.01697653 0.00277236 0.09907311
v 0.01402230 0.00741442 0.10320141
v 0.01188858 0.01160207 0.10320141
v 0.00856523 0.01492543 0.10320141
v 0.00437757 0.01705914 0.10320141
v -0.00026449 0.01779437 0.10320141
v -0.00490654 0.01705914 0.10320141
v -0.00909420 0.01492542 0.10320141
v -0.01241755 0.01160207 0.10320141
v -0.01455126 0.00741441 0.10320141
v -0.01528649 0.00277236 0.10320141
v -0.01455126 -0.00186969 0.10320141
v -0.01241755 -0.00605735 0.10320141
v -0.00909419 -0.00938070 0.10320141
v -0.00490654 -0.01151441 0.10320141
v -0.00026449 -0.01224964 0.10320141
v 0.00437757 -0.01151441 0.10320141
v 0.00856522 -0.00938070 0.10320141
v 0.01188857 -0.00605735 0.10320141
v 0.01402229 -0.00186969 0.10320141
v 0.01475751 0.00277236 0.10320141
v 0.02658015 0.01149471 0.00330502
v 0.02564803 0.01119185 0.00096802
v 0.02177802 0.01878717 0.00096802
v 0.02257092 0.01936325 0.00330502
v 0.01575033 0.02481486 0.00096802
v 0.01632641 0.02560777 0.00330502
v 0.00815500 0.02868487 0.00096802
v 0.00845786 0.02961699 0.00330502
v -0.00026448 0.03001839 0.00096802
v -0.00026448 0.03099847 0.00330502
v -0.00868397 0.02868487 0.00096802
v -0.00898683 0.02961699 0.00330502
v -0.01627930 0.02481486 0.00096802
v -0.01685538 0.02560776 0.00330502
v -0.02230698 0.01878717 0.00096802
v -0.02309988 0.01936325 0.00330502
v -0.02617699 0.01119184 0.00096802
v -0.02710911 0.01149471 0.00330502
v -0.02751050 0.00277236 0.00096802
v -0.02849059 0.00277236 0.00330502
v -0.02617699 -0.00564712 0.00096802
v -0.02710911 -0.00594999 0.00330502
v -0.02230698 -0.01324245 0.00096802
v -0.02309988 -0.01381853 0.00330502
v -0.01627929 -0.01927013 0.00096802
v -0.01685537 -0.02006304 0.00330502
v -0.00868397 -0.02314014 0.00096802
v -0.00898683 -0.02407226 0.00330502
v -0.00026449 -0.02447365 0.00096802
v -0.00026449 -0.02545374 0.00330502
v 0.00815500 -0.02314014 0.00096802
v 0.00845786 -0.02407226 0.00330502
v 0.01575032 -0.01927013 0.00096802
v 0.01632640 -0.02006304 0.00330502
v 0.02177800 -0.01324245 0.00096802
v 0.02257091 -0.01381853 0.00330502
v 0.02564801 -0.00564712 0.00096802
v 0.02658013 -0.00594998 0.00330502
v 0.02698153 0.00277236 0.00096802
v 0.02796161 0.00277236 0.00330502
v 0.02658015 0.01149471 0.08908888
v 0.02601943 0.01131252 0.09142567
v 0.02737204 0.00277236 0.09142567
v 0.02796161 0.00277236 0.08908888
v 0.02209395 0.01901671 0.09142567
v 0.02257092 0.01936325 0.08908888
v 0.01597987 0.02513079 0.09142567
v 0.01632641 0.02560777 0.08908888
v 0.00827568 0.02905627 0.09142567
v 0.00845786 0.02961699 0.08908888
v -0.00026448 0.03040890 0.09142567
v -0.00026448 0.03099847 0.08908888
v -0.00880465 0.02905627 0.09142567
v -0.00898683 0.02961699 0.08908888
v -0.01650883 0.02513079 0.09142567
v -0.01685538 0.02560776 0.08908888
v -0.02262291 0.01901671 0.09142567
v -0.02309988 0.01936325 0.08908888
v -0.02654839 0.01131252 0.09142567
v -0.02710911 0.01149471 0.08908888
v -0.02790102 0.00277236 0.09142567
v -0.02849059 0.00277236 0.08908888
v -0.02654839 -0.00576780 0.09142567
v -0.02710911 -0.00594999 0.08908888
v -0.02262291 -0.01347199 0.09142567
v -0.02309988 -0.01381853 0.08908888
v -0.01650883 -0.01958606 0.09142567
v -0.01685537 -0.02006304 0.08908888
v -0.00880464 -0.02351154 0.09142567
v -0.00898683 -0.02407226 0.08908888
v -0.00026449 -0.02486417 0.09142567
v -0.00026449 -0.02545374 0.08908888
v 0.00827567 -0.02351154 0.09142567
v 0.00845786 -0.02407226 0.08908888
v 0.01597986 -0.01958606 0.09142567
v 0.01632640 -0.02006304 0.08908888
v 0.02209394 -0.01347199 0.09142567
v 0.02257091 -0.01381853 0.08908888
v 0.02601942 -0.00576780 0.09142567
v 0.02658013 -0.00594998 0.08908888
v 0.01458301 0.00759660 0.10086462
v 0.01534708 0.00277236 0.10086462
v 0.01236555 0.01194861 0.10086462
v 0.00891177 0.01540240 0.10086462
v 0.00455976 0.01761986 0.10086462
v -0.00026449 0.01838394 0.10086462
v -0.00508873 0.01761986 0.10086462
v -0.00944074 0.01540240 0.10086462
v -0.01289452 0.01194861 0.10086462
v -0.01511198 0.00759660 0.10086462
v -0.01587606 0.00277236 0.10086462
v -0.01511198 -0.00205188 0.10086462
v -0.01289452 -0.00640389 0.10086462
v -0.00944073 -0.00985767 0.10086462
v -0.00508873 -0.01207513 0.10086462
v -0.00026449 -0.01283921 0.10086462
v 0.00455975 -0.01207513 0.10086462
v 0.00891176 -0.00985767 0.10086462
v 0.01236554 -0.00640389 0.10086462
v 0.01458300 -0.00205188 0.10086462
f 1 2 3
f 3 2 4
f 5 2 1
f 4 2 6
f 7 2 5
f 8 2 7
f 6 2 9
f 10 2 8
f 9 2 11
f 12 2 10
f 11 2 13
f 14 2 12
f 13 2 15
f 16 2 14
f 15 2 17
f 17 2 18
f 19 2 16
f 18 2 20
f 21 2 19
f 20 2 21
f 22 23 24
f 22 24 25
f 26 22 25
f 26 25 27
f 23 28 29
f 23 29 24
f 30 26 27
f 30 27 31
f 28 32 33
f 28 33 29
f 32 34 35
f 32 35 33
f 36 30 31
f 36 31 37
f 34 38 39
f 34 39 35
f 40 36 37
f 40 37 41
f 38 42 43
f 38 43 39
f 44 40 41
f 44 41 45
f 42 46 47
f 42 47 43
f 48 44 45
f 48 45 49
f 46 50 51
f 46 51 47
f 52 48 49
f 52 49 53
f 54 52 53
f 54 53 55
f 50 56 57
f 50 57 51
f 58 54 55
f 58 55 59
f 56 60 61
f 56 61 57
f 60 58 59
f 60 59 61
f 25 24 1
f 25 1 3
f 27 25 3
f 27 3 4
f 24 29 5
f 24 5 1
f 31 27 4
f 31 4 6
f 29 33 7
f 29 7 5
f 33 35 8
f 33 8 7
f 37 31 6
f 37 6 9
f 35 39 10
f 35 10 8
f 41 37 9
f 41 9 11
f 39 43 12
f 39 12 10
f 45 41 11
f 45 11 13
f 43 47 14
f 43 14 12
f 49 45 13
f 49 13 15
f 47 51 16
f 47 16 14
f 53 49 15
f 53 15 17
f 55 53 17
f 55 17 18
f 51 57 19
f 51 19 16
f 59 55 18
f 59 18 20
f 57 61 21
f 57 21 19
f 61 59 20
f 61 20 21
f 62 63 64
f 63 65 64
f 66 62 64
f 65 67 64
f 68 66 64
f 67 69 64
f 70 68 64
f 69 71 64
f 72 70 64
f 73 72 64
f 71 74 64
f 75 73 64
f 74 76 64
f 77 75 64
f 76 78 64
f 78 79 64
f 80 77 64
f 79 81 64
f 82 80 64
f 81 82 64
f 83 84 85
f 86 87 88
f 89 90 23
f 89 23 22
f 91 89 22
f 91 22 26
f 90 92 28
f 90 28 23
f 93 91 26
f 93 26 30
f 94 93 30
f 94 30 36
f 95 96 34
f 95 34 32
f 97 94 36
f 97 36 40
f 96 98 38
f 96 38 34
f 98 99 42
f 98 42 38
f 100 97 40
f 100 40 44
f 99 101 46
f 99 46 42
f 102 100 44
f 102 44 48
f 101 103 50
f 101 50 46
f 103 104 56
f 103 56 50
f 105 106 52
f 105 52 54
f 104 107 60
f 104 60 56
f 108 105 54
f 108 54 58
f 107 108 58
f 107 58 60
f 28 92 95
f 28 95 32
f 52 106 102
f 52 102 48
f 109 110 111
f 109 111 112
f 110 113 114
f 110 114 111
f 62 66 115
f 62 115 116
f 66 68 117
f 66 117 115
f 68 70 118
f 68 118 117
f 70 72 119
f 70 119 118
f 72 73 113
f 72 113 119
f 73 75 114
f 73 114 113
f 76 74 120
f 76 120 121
f 78 76 121
f 78 121 122
f 79 78 122
f 79 122 123
f 81 79 123
f 81 123 124
f 80 82 125
f 80 125 126
f 82 81 124
f 82 124 125
f 120 127 128
f 120 128 121
f 127 87 129
f 127 129 128
f 84 130 131
f 84 131 132
f 130 116 115
f 130 115 131
f 132 131 133
f 132 133 134
f 131 115 117
f 131 117 133
f 134 133 135
f 134 135 136
f 133 117 118
f 133 118 135
f 136 135 137
f 136 137 138
f 135 118 119
f 135 119 137
f 138 137 110
f 138 110 109
f 137 119 113
f 137 113 110
f 112 111 139
f 112 139 140
f 111 114 141
f 111 141 139
f 121 128 142
f 121 142 122
f 128 129 143
f 128 143 142
f 122 142 144
f 122 144 123
f 142 143 145
f 142 145 144
f 123 144 146
f 123 146 124
f 144 145 147
f 144 147 146
f 124 146 148
f 124 148 125
f 146 147 149
f 146 149 148
f 125 148 150
f 125 150 126
f 148 149 151
f 148 151 150
f 126 150 139
f 126 139 141
f 150 151 140
f 150 140 139
f 152 85 153
f 152 153 154
f 85 152 155
f 85 155 83
f 83 155 156
f 83 156 157
f 158 159 160
f 158 160 161
f 159 158 162
f 159 162 163
f 163 162 164
f 163 164 165
f 165 164 166
f 165 166 167
f 168 169 170
f 168 170 171
f 169 168 172
f 169 172 173
f 173 172 174
f 173 174 175
f 167 166 171
f 167 171 170
f 176 177 178
f 176 178 179
f 177 176 180
f 177 180 181
f 181 180 182
f 181 182 183
f 183 182 184
f 183 184 185
f 185 184 186
f 185 186 187
f 188 189 190
f 188 190 191
f 189 188 192
f 189 192 193
f 193 192 187
f 193 187 186
f 154 153 194
f 154 194 195
f 195 194 196
f 195 196 197
f 197 196 179
f 197 179 178
f 198 86 88
f 198 88 199
f 86 198 200
f 86 200 201
f 201 200 202
f 201 202 203
f 203 202 204
f 203 204 205
f 205 204 191
f 205 191 190
f 161 160 206
f 161 206 207
f 207 206 157
f 207 157 156
f 199 88 175
f 199 175 174
f 167 69 67
f 167 67 165
f 67 65 163
f 67 163 165
f 83 157 130
f 83 130 84
f 157 206 116
f 157 116 130
f 173 175 127
f 173 127 120
f 175 88 87
f 175 87 127
f 85 84 132
f 85 132 153
f 153 132 134
f 153 134 194
f 194 134 136
f 194 136 196
f 196 136 138
f 196 138 179
f 201 129 87
f 201 87 86
f 180 109 112
f 180 112 182
f 203 143 129
f 203 129 201
f 205 145 143
f 205 143 203
f 184 140 151
f 184 151 186
f 190 147 145
f 190 145 205
f 186 151 149
f 186 149 193
f 112 140 184
f 112 184 182
f 75 93 114
f 93 75 91
f 91 75 77
f 91 77 89
f 89 77 90
f 90 77 92
f 92 77 95
f 114 97 141
f 97 114 94
f 94 114 93
f 141 97 100
f 141 100 102
f 141 102 106
f 80 95 77
f 95 80 96
f 96 80 98
f 98 80 99
f 99 80 101
f 101 80 103
f 106 126 141
f 126 106 105
f 126 105 108
f 126 108 107
f 126 107 104
f 126 104 103
f 126 103 80
f 162 185 164
f 185 162 158
f 185 158 177
f 185 177 183
f 183 177 181
f 185 166 164
f 166 185 171
f 171 185 188
f 188 185 187
f 188 187 192
f 159 63 160
f 63 159 65
f 65 159 163
f 170 69 167
f 69 170 71
f 71 170 169
f 173 71 169
f 71 173 74
f 74 173 120
f 116 63 62
f 63 116 160
f 160 116 206
f 138 176 179
f 176 138 180
f 180 138 109
f 189 147 190
f 147 189 193
f 147 193 149
f 161 177 158
f 177 161 178
f 178 161 207
f 178 207 156
f 178 156 152
f 152 156 155
f 178 152 154
f 178 154 195
f 178 195 197
f 188 168 171
f 168 188 172
f 172 188 191
f 172 191 174
f 174 191 198
f 174 198 199
f 198 191 200
f 200 191 202
f 202 191 204
f 208 209 210
f 211 208 210
f 212 211 210
f 213 212 210
f 214 213 210
f 215 214 210
f 216 215 210
f 217 216 210
f 218 217 210
f 219 218 210
f 220 219 210
f 221 220 210
f 222 221 210
f 223 222 210
f 224 223 210
f 225 224 210
f 226 225 210
f 227 226 210
f 228 227 210
f 209 228 210
f 229 230 231
f 230 232 231
f 232 233 231
f 233 234 231
f 234 235 231
f 235 236 231
f 236 237 231
f 237 238 231
f 238 239 231
f 239 240 231
f 240 241 231
f 241 242 231
f 242 243 231
f 243 244 231
f 244 245 231
f 245 246 231
f 246 247 231
f 247 248 231
f 248 249 231
f 249 229 231
f 209 208 250
f 209 250 251
f 208 211 252
f 208 252 250
f 211 212 253
f 211 253 252
f 212 213 254
f 212 254 253
f 213 214 255
f 213 255 254
f 214 215 256
f 214 256 255
f 215 216 257
f 215 257 256
f 216 217 258
f 216 258 257
f 217 218 259
f 217 259 258
f 218 219 260
f 218 260 259
f 219 220 261
f 219 261 260
f 220 221 262
f 220 262 261
f 221 222 263
f 221 263 262
f 222 223 264
f 222 264 263
f 223 224 265
f 223 265 264
f 224 225 266
f 224 266 265
f 225 226 267
f 225 267 266
f 226 227 268
f 226 268 267
f 227 228 269
f 227 269 268
f 228 209 251
f 228 251 269
f 251 250 270
f 251 270 271
f 250 252 272
f 250 272 270
f 252 253 273
f 252 273 272
f 253 254 274
f 253 274 273
f 254 255 275
f 254 275 274
f 255 256 276
f 255 276 275
f 256 257 277
f 256 277 276
f 257 258 278
f 257 278 277
f 258 259 279
f 258 279 278
f 259 260 280
f 259 280 279
f 260 261 281
f 260 281 280
f 261 262 282
f 261 282 281
f 262 263 283
f 262 283 282
f 263 264 284
f 263 284 283
f 264 265 285
f 264 285 284
f 265 266 286
f 265 286 285
f 266 267 287
f 266 287 286
f 267 268 288
f 267 288 287
f 268 269 289
f 268 289 288
f 269 251 271
f 269 271 289
f 271 270 290
f 271 290 291
f 270 272 292
f 270 292 290
f 272 273 293
f 272 293 292
f 273 274 294
f 273 294 293
f 274 275 295
f 274 295 294
f 275 276 296
f 275 296 295
f 276 277 297
f 276 297 296
f 277 278 298
f 277 298 297
f 278 279 299
f 278 299 298
f 279 280 300
f 279 300 299
f 280 281 301
f 280 301 300
f 281 282 302
f 281 302 301
f 282 283 303
f 282 303 302
f 283 284 304
f 283 304 303
f 284 285 305
f 284 305 304
f 285 286 306
f 285 306 305
f 286 287 307
f 286 307 306
f 287 288 308
f 287 308 307
f 288 289 309
f 288 309 308
f 289 271 291
f 289 291 309
f 291 290 310
f 291 310 311
f 290 292 312
f 290 312 310
f 292 293 313
f 292 313 312
f 293 294 314
f 293 314 313
f 294 295 315
f 294 315 314
f 295 296 316
f 295 316 315
f 296 297 317
f 296 317 316
f 297 298 318
f 297 318 317
f 298 299 319
f 298 319 318
f 299 300 320
f 299 320 319
f 300 301 321
f 300 321 320
f 301 302 322
f 301 322 321
f 302 303 323
f 302 323 322
f 303 304 324
f 303 324 323
f 304 305 325
f 304 325 324
f 305 306 326
f 305 326 325
f 306 307 327
f 306 327 326
f 307 308 328
f 307 328 327
f 308 309 329
f 308 329 328
f 309 291 311
f 309 311 329
f 311 310 330
f 311 330 331
f 310 312 332
f 310 332 330
f 312 313 333
f 312 333 332
f 313 314 334
f 313 334 333
f 314 315 335
f 314 335 334
f 315 316 336
f 315 336 335
f 316 317 337
f 316 337 336
f 317 318 338
f 317 338 337
f 318 319 339
f 318 339 338
f 319 320 340
f 319 340 339
f 320 321 341
f 320 341 340
f 321 322 342
f 321 342 341
f 322 323 343
f 322 343 342
f 323 324 344
f 323 344 343
f 324 325 345
f 324 345 344
f 325 326 346
f 325 346 345
f 326 327 347
f 326 347 346
f 327 328 348
f 327 348 347
f 328 329 349
f 328 349 348
f 329 311 331
f 329 331 349
f 331 330 350
f 331 350 351
f 330 332 352
f 330 352 350
f 332 333 353
f 332 353 352
f 333 334 354
f 333 354 353
f 334 335 355
f 334 355 354
f 335 336 356
f 335 356 355
f 336 337 357
f 336 357 356
f 337 338 358
f 337 358 357
f 338 339 359
f 338 359 358
f 339 340 360
f 339 360 359
f 340 341 361
f 340 361 360
f 341 342 362
f 341 362 361
f 342 343 363
f 342 363 362
f 343 344 364
f 343 364 363
f 344 345 365
f 344 365 364
f 345 346 366
f 345 366 365
f 346 347 367
f 346 367 366
f 347 348 368
f 347 368 367
f 348 349 369
f 348 369 368
f 349 331 351
f 349 351 369
f 351 350 370
f 351 370 371
f 350 352 372
f 350 372 370
f 352 353 373
f 352 373 372
f 353 354 374
f 353 374 373
f 354 355 375
f 354 375 374
f 355 356 376
f 355 376 375
f 356 357 377
f 356 377 376
f 357 358 378
f 357 378 377
f 358 359 379
f 358 379 378
f 359 360 380
f 359 380 379
f 360 361 381
f 360 381 380
f 361 362 382
f 361 382 381
f 362 363 383
f 362 383 382
f 363 364 384
f 363 384 383
f 364 365 385
f 364 385 384
f 365 366 386
f 365 386 385
f 366 367 387
f 366 387 386
f 367 368 388
f 367 388 387
f 368 369 389
f 368 389 388
f 369 351 371
f 369 371 389
f 371 370 230
f 371 230 229
f 370 372 232
f 370 232 230
f 372 373 233
f 372 233 232
f 373 374 234
f 373 234 233
f 374 375 235
f 374 235 234
f 375 376 236
f 375 236 235
f 376 377 237
f 376 237 236
f 377 378 238
f 377 238 237
f 378 379 239
f 378 239 238
f 379 380 240
f 379 240 239
f 380 381 241
f 380 241 240
f 381 382 242
f 381 242 241
f 382 383 243
f 382 243 242
f 383 384 244
f 383 244 243
f 384 385 245
f 384 245 244
f 385 386 246
f 385 246 245
f 386 387 247
f 386 247 246
f 387 388 248
f 387 248 247
f 388 389 249
f 388 249 248
f 389 371 229
f 389 229 249
f 390 391 392
f 390 392 393
f 391 394 395
f 391 395 392
f 394 396 397
f 394 397 395
f 396 398 399
f 396 399 397
f 398 400 401
f 398 401 399
f 400 402 403
f 400 403 401
f 402 404 405
f 402 405 403
f 404 406 407
f 404 407 405
f 406 408 409
f 406 409 407
f 408 410 411
f 408 411 409
f 410 412 413
f 410 413 411
f 414 415 416
f 415 417 416
f 417 418 416
f 418 419 416
f 419 420 416
f 420 421 416
f 421 422 416
f 422 423 416
f 423 424 416
f 424 425 416
f 425 426 416
f 426 427 416
f 427 428 416
f 428 429 416
f 429 430 416
f 430 431 416
f 431 432 416
f 432 433 416
f 433 434 416
f 434 414 416
f 435 436 437
f 438 435 437
f 439 438 437
f 440 439 437
f 441 440 437
f 442 441 437
f 443 442 437
f 444 443 437
f 445 444 437
f 446 445 437
f 447 446 437
f 448 447 437
f 449 448 437
f 450 449 437
f 451 450 437
f 452 451 437
f 453 452 437
f 454 453 437
f 455 454 437
f 436 455 437
f 412 456 457
f 412 457 413
f 456 458 459
f 456 459 457
f 458 460 461
f 458 461 459
f 460 462 463
f 460 463 461
f 462 464 465
f 462 465 463
f 464 466 467
f 464 467 465
f 466 468 469
f 466 469 467
f 468 470 471
f 468 471 469
f 470 390 393
f 470 393 471
f 472 473 474
f 472 474 475
f 473 476 477
f 473 477 474
f 476 478 479
f 476 479 477
f 478 480 481
f 478 481 479
f 480 482 483
f 480 483 481
f 482 484 485
f 482 485 483
f 484 486 487
f 484 487 485
f 486 488 489
f 486 489 487
f 488 490 491
f 488 491 489
f 490 492 493
f 490 493 491
f 492 494 495
f 492 495 493
f 494 496 497
f 494 497 495
f 496 498 499
f 496 499 497
f 498 500 501
f 498 501 499
f 500 502 503
f 500 503 501
f 502 504 505
f 502 505 503
f 504 506 507
f 504 507 505
f 506 508 509
f 506 509 507
f 508 510 511
f 508 511 509
f 510 472 475
f 510 475 511
f 512 513 415
f 512 415 414
f 513 514 417
f 513 417 415
f 514 515 418
f 514 418 417
f 515 516 419
f 515 419 418
f 516 517 420
f 516 420 419
f 517 518 421
f 517 421 420
f 518 519 422
f 518 422 421
f 519 520 423
f 519 423 422
f 520 521 424
f 520 424 423
f 521 522 425
f 521 425 424
f 522 523 426
f 522 426 425
f 523 524 427
f 523 427 426
f 524 525 428
f 524 428 427
f 525 526 429
f 525 429 428
f 526 527 430
f 526 430 429
f 527 528 431
f 527 431 430
f 528 529 432
f 528 432 431
f 529 530 433
f 529 433 432
f 530 531 434
f 530 434 433
f 531 512 414
f 531 414 434
f 532 533 534
f 532 534 535
f 533 436 435
f 533 435 534
f 535 534 536
f 535 536 537
f 534 435 438
f 534 438 536
f 537 536 538
f 537 538 539
f 536 438 439
f 536 439 538
f 539 538 540
f 539 540 541
f 538 439 440
f 538 440 540
f 541 540 542
f 541 542 543
f 540 440 441
f 540 441 542
f 543 542 544
f 543 544 545
f 542 441 442
f 542 442 544
f 545 544 546
f 545 546 547
f 544 442 443
f 544 443 546
f 547 546 548
f 547 548 549
f 546 443 444
f 546 444 548
f 549 548 550
f 549 550 551
f 548 444 445
f 548 445 550
f 551 550 552
f 551 552 553
f 550 445 446
f 550 446 552
f 553 552 554
f 553 554 555
f 552 446 447
f 552 447 554
f 555 554 556
f 555 556 557
f 554 447 448
f 554 448 556
f 557 556 558
f 557 558 559
f 556 448 449
f 556 449 558
f 559 558 560
f 559 560 561
f 558 449 450
f 558 450 560
f 561 560 562
f 561 562 563
f 560 450 451
f 560 451 562
f 563 562 564
f 563 564 565
f 562 451 452
f 562 452 564
f 565 564 566
f 565 566 567
f 564 452 453
f 564 453 566
f 567 566 568
f 567 568 569
f 566 453 454
f 566 454 568
f 569 568 570
f 569 570 571
f 568 454 455
f 568 455 570
f 436 533 570
f 436 570 455
f 533 532 571
f 533 571 570
f 572 573 574
f 572 574 575
f 573 472 510
f 573 510 574
f 472 573 576
f 472 576 473
f 573 572 577
f 573 577 576
f 473 576 578
f 473 578 476
f 576 577 579
f 576 579 578
f 476 578 580
f 476 580 478
f 578 579 581
f 578 581 580
f 478 580 582
f 478 582 480
f 580 581 583
f 580 583 582
f 480 582 584
f 480 584 482
f 582 583 585
f 582 585 584
f 482 584 586
f 482 586 484
f 584 585 587
f 584 587 586
f 484 586 588
f 484 588 486
f 586 587 589
f 586 589 588
f 486 588 590
f 486 590 488
f 588 589 591
f 588 591 590
f 488 590 592
f 488 592 490
f 590 591 593
f 590 593 592
f 490 592 594
f 490 594 492
f 592 593 595
f 592 595 594
f 492 594 596
f 492 596 494
f 594 595 597
f 594 597 596
f 494 596 598
f 494 598 496
f 596 597 599
f 596 599 598
f 496 598 600
f 496 600 498
f 598 599 601
f 598 601 600
f 498 600 602
f 498 602 500
f 600 601 603
f 600 603 602
f 500 602 604
f 500 604 502
f 602 603 605
f 602 605 604
f 502 604 606
f 502 606 504
f 604 605 607
f 604 607 606
f 504 606 608
f 504 608 506
f 606 607 609
f 606 609 608
f 506 608 610
f 506 610 508
f 608 609 611
f 608 611 610
f 508 610 574
f 508 574 510
f 610 611 575
f 610 575 574
f 475 612 613
f 475 613 511
f 612 512 531
f 612 531 613
f 512 612 614
f 512 614 513
f 612 475 474
f 612 474 614
f 513 614 615
f 513 615 514
f 614 474 477
f 614 477 615
f 514 615 616
f 514 616 515
f 615 477 479
f 615 479 616
f 515 616 617
f 515 617 516
f 616 479 481
f 616 481 617
f 516 617 618
f 516 618 517
f 617 481 483
f 617 483 618
f 517 618 619
f 517 619 518
f 618 483 485
f 618 485 619
f 518 619 620
f 518 620 519
f 619 485 487
f 619 487 620
f 519 620 621
f 519 621 520
f 620 487 489
f 620 489 621
f 520 621 622
f 520 622 521
f 621 489 491
f 621 491 622
f 521 622 623
f 521 623 522
f 622 491 493
f 622 493 623
f 522 623 624
f 522 624 523
f 623 493 495
f 623 495 624
f 523 624 625
f 523 625 524
f 624 495 497
f 624 497 625
f 524 625 626
f 524 626 525
f 625 497 499
f 625 499 626
f 525 626 627
f 525 627 526
f 626 499 501
f 626 501 627
f 526 627 628
f 526 628 527
f 627 501 503
f 627 503 628
f 527 628 629
f 527 629 528
f 628 503 505
f 628 505 629
f 528 629 630
f 528 630 529
f 629 505 507
f 629 507 630
f 529 630 631
f 529 631 530
f 630 507 509
f 630 509 631
f 530 631 613
f 530 613 531
f 631 509 511
f 631 511 613
f 532 535 456
f 532 456 412
f 577 572 413
f 577 413 457
f 535 537 458
f 535 458 456
f 579 577 457
f 579 457 459
f 537 539 460
f 537 460 458
f 581 579 459
f 581 459 461
f 539 541 462
f 539 462 460
f 583 581 461
f 583 461 463
f 541 543 464
f 541 464 462
f 585 583 463
f 585 463 465
f 543 545 466
f 543 466 464
f 587 585 465
f 587 465 467
f 545 547 468
f 545 468 466
f 589 587 467
f 589 467 469
f 547 549 470
f 547 470 468
f 591 589 469
f 591 469 471
f 549 551 390
f 549 390 470
f 593 591 471
f 593 471 393
f 551 553 391
f 551 391 390
f 595 593 393
f 595 393 392
f 553 555 394
f 553 394 391
f 597 595 392
f 597 392 395
f 555 557 396
f 555 396 394
f 599 597 395
f 599 395 397
f 557 559 398
f 557 398 396
f 601 599 397
f 601 397 399
f 559 561 400
f 559 400 398
f 603 601 399
f 603 399 401
f 561 563 402
f 561 402 400
f 605 603 401
f 605 401 403
f 563 565 404
f 563 404 402
f 607 605 403
f 607 403 405
f 565 567 406
f 565 406 404
f 609 607 405
f 609 405 407
f 567 569 408
f 567 408 406
f 611 609 407
f 611 407 409
f 569 571 410
f 569 410 408
f 575 611 409
f 575 409 411
f 571 532 412
f 571 412 410
f 572 575 411
f 572 411 413
f 25 24 23
f 23 22 25
f 24 29 28
f 28 23 24
f 29 33 32
f 32 28 29
f 33 35 34
f 34 32 33
f 37 31 30
f 30 36 37
f 35 39 38
f 38 34 35
f 41 37 36
f 36 40 41
f 39 43 42
f 42 38 39
f 45 41 40
f 40 44 45
f 43 47 46
f 46 42 43
f 49 45 44
f 44 48 49
f 47 51 50
f 50 46 47
f 53 49 48
f 48 52 53
f 55 53 52
f 52 54 55
f 59 55 54
f 54 58 59
f 61 59 58
f 58 60 61
f 3 1 24
f 24 25 3
f 4 3 25
f 25 27 4
f 1 5 29
f 29 24 1
f 6 4 27
f 27 31 6
f 5 7 33
f 33 29 5
f 7 8 35
f 35 33 7
f 9 6 31
f 31 37 9
f 8 10 39
f 39 35 8
f 11 9 37
f 37 41 11
f 10 12 43
f 43 39 10
f 13 11 41
f 41 45 13
f 12 14 47
f 47 43 12
f 15 13 45
f 45 49 15
f 14 16 51
f 51 47 14
f 17 15 49
f 49 53 17
f 18 17 53
f 53 55 18
f 16 19 57
f 57 51 16
f 20 18 55
f 55 59 20
f 19 21 61
f 61 57 19
f 21 20 59
f 59 61 21
f 161 160 159
f 159 158 161
f 207 156 157
f 157 206 207
f 161 207 206
f 206 160 161
f 171 170 169
f 169 168 171
f 175 174 172
f 172 173 175
f 173 172 168
f 168 169 173