# https://github.com/mikedh/trimesh
v -0.03929658 0.00000922 0.06468662
v -0.04129884 -0.00176410 0.06657334
v -0.04399421 0.00259989 0.07284850
v -0.04179888 0.00543766 0.07015998
v -0.04300323 0.00540889 0.08038605
v -0.04066413 0.00940908 0.07713332
v -0.03859144 0.00591020 0.08716631
v -0.03619641 0.01085934 0.08373811
v -0.03194097 0.00396951 0.09137251
v -0.02959283 0.00939984 0.08820462
v -0.02483381 0.00010683 0.09187761
v -0.02262281 0.00542166 0.08933605
v -0.01917433 -0.00464285 0.08854626
v -0.01715397 -0.00000925 0.08682923
v -0.01647896 -0.00900685 0.08227111
v -0.01465168 -0.00543768 0.08135586
v -0.01746994 -0.01181584 0.07473356
v -0.01578642 -0.00940910 0.07438254
v -0.02188172 -0.01231716 0.06795330
v -0.02025415 -0.01085936 0.06777774
v -0.02853219 -0.01037647 0.06374709
v -0.02685772 -0.00939987 0.06331123
v -0.03563934 -0.00651379 0.06324199
v -0.03382774 -0.00542169 0.06217980
v -0.04319505 -0.00412813 0.06803593
v -0.04621986 -0.00117898 0.07495259
v -0.04547564 0.00024098 0.08289721
v -0.04116179 -0.00024872 0.08974104
v -0.03443420 -0.00251687 0.09365028
v -0.02709552 -0.00595572 0.09357745
v -0.02111216 -0.00964383 0.08954207
v -0.01808734 -0.01259298 0.08262541
v -0.01883156 -0.01401294 0.07468080
v -0.02314541 -0.01352325 0.06783697
v -0.02987300 -0.01125510 0.06392773
v -0.03721167 -0.00781625 0.06400055
v -0.04489478 -0.00719839 0.06883217
v -0.04833240 -0.00599179 0.07607192
v -0.04789530 -0.00614974 0.08416335
v -0.04370059 -0.00762991 0.09093835
v -0.03687225 -0.01003569 0.09458158
v -0.02923993 -0.01272246 0.09411683
v -0.02284869 -0.01497030 0.08966864
v -0.01941107 -0.01617690 0.08242889
v -0.01984817 -0.01601896 0.07433747
v -0.02404287 -0.01453879 0.06756246
v -0.03087121 -0.01213301 0.06391923
v -0.03850353 -0.00944624 0.06438397
v -0.04626671 -0.01101145 0.06868026
v -0.05008102 -0.01173659 0.07579450
v -0.04992020 -0.01355060 0.08369201
v -0.04582733 -0.01596740 0.09025666
v -0.03889911 -0.01833942 0.09372946
v -0.03099194 -0.02003108 0.09317988
v -0.02422454 -0.02058910 0.08875518
v -0.02041023 -0.01986396 0.08164094
v -0.02057105 -0.01804996 0.07374343
v -0.02466391 -0.01563315 0.06717878
v -0.03159213 -0.01326113 0.06370598
v -0.03949930 -0.01156947 0.06425555
v -0.04713163 -0.01551177 0.06729288
v -0.05116205 -0.01812773 0.07381972
v -0.05115354 -0.02150679 0.08118648
v -0.04710836 -0.02474352 0.08741923
v -0.04011043 -0.02697066 0.09084792
v -0.03203483 -0.02759144 0.09055384
v -0.02504542 -0.02643953 0.08661578
v -0.02101500 -0.02382357 0.08008894
v -0.02102351 -0.02044452 0.07272219
v -0.02506868 -0.01720778 0.06648944
v -0.03206661 -0.01498064 0.06306074
v -0.04014221 -0.01435986 0.06335482
v -0.04727168 -0.02052864 0.06442997
v -0.05129807 -0.02478375 0.07003080
v -0.05127453 -0.02948934 0.07662960
v -0.04720735 -0.03338454 0.08245820
v -0.04018635 -0.03542564 0.08595486
v -0.03209279 -0.03506573 0.08618263
v -0.02509534 -0.03240125 0.08308049
v -0.02106894 -0.02814614 0.07747965
v -0.02109249 -0.02344055 0.07088087
v -0.02515965 -0.01954535 0.06505226
v -0.03218065 -0.01750424 0.06155561
v -0.04027421 -0.01786415 0.06132783
v -0.04646210 -0.02577246 0.05996212
v -0.05028140 -0.03132034 0.06447002
v -0.05009005 -0.03705423 0.07019479
v -0.04593930 -0.04143775 0.07560249
v -0.03894135 -0.04329632 0.07924413
v -0.03097130 -0.04213196 0.08014394
v -0.02416472 -0.03825665 0.07806081
v -0.02034541 -0.03270877 0.07355293
v -0.02053676 -0.02697488 0.06782816
v -0.02468750 -0.02259136 0.06242046
v -0.03168545 -0.02073278 0.05877881
v -0.03965550 -0.02189715 0.05787900
v -0.04452304 -0.03084957 0.05393809
v -0.04797981 -0.03735825 0.05731078
v -0.04750622 -0.04384202 0.06215056
v -0.04322915 -0.04856357 0.06716064
v -0.03629465 -0.05025776 0.07099855
v -0.02856082 -0.04847063 0.07263594
v -0.02209991 -0.04368105 0.07163407
v -0.01864314 -0.03717238 0.06826139
v -0.01911673 -0.03068861 0.06342160
v -0.02339379 -0.02596705 0.05841153
v -0.03032829 -0.02427286 0.05457361
v -0.03806213 -0.02605999 0.05293622
v -0.04138448 -0.03529972 0.04664558
v -0.04436254 -0.04249277 0.04889912
v -0.04352512 -0.04949866 0.05288701
v -0.03909662 -0.05444019 0.05754069
v -0.03226365 -0.05599327 0.06161323
v -0.02485709 -0.05374176 0.06401337
v -0.01886153 -0.04828894 0.06409802
v -0.01588347 -0.04109590 0.06184448
v -0.01672089 -0.03409001 0.05785659
v -0.02114938 -0.02914848 0.05320290
v -0.02798235 -0.02759539 0.04913037
v -0.03538892 -0.02984690 0.04673022
v -0.03713515 -0.03868467 0.03860519
v -0.03953409 -0.04633932 0.03976214
v -0.03826718 -0.05368827 0.04293624
v -0.03367390 -0.05876238 0.04727702
v -0.02698501 -0.06020204 0.05162135
v -0.01999279 -0.05762149 0.05480518
v -0.01457080 -0.05171221 0.05597540
v -0.01217186 -0.04405755 0.05481846
v -0.01343877 -0.03670860 0.05164435
v -0.01803204 -0.03163449 0.04730358
v -0.02472093 -0.03019483 0.04295925
v -0.03171315 -0.03277537 0.03977541
v -0.03202503 -0.04068895 0.03048240
v -0.03374072 -0.04860971 0.03055415
v -0.03198089 -0.05615122 0.03294491
v -0.02721709 -0.06129274 0.03701407
v -0.02072578 -0.06265661 0.04167131
v -0.01424629 -0.05987738 0.04566872
v -0.00951481 -0.05369974 0.04793520
v -0.00779912 -0.04577898 0.04786344
v -0.00955895 -0.03823747 0.04547269
v -0.01432274 -0.03309594 0.04140353
v -0.02081406 -0.03173207 0.03674629
v -0.02729354 -0.03451130 0.03274888
v -0.02641386 -0.04118939 0.02294465
v -0.02732047 -0.04917904 0.02192941
v -0.02499374 -0.05677000 0.02355751
v -0.02005710 -0.06192828 0.02739271
v -0.01383332 -0.06327174 0.03240738
v -0.00799006 -0.06044037 0.03725782
v -0.00409301 -0.05419286 0.04064438
v -0.00318640 -0.04620322 0.04165963
v -0.00551313 -0.03861226 0.04003152
v -0.01044977 -0.03345397 0.03619632
v -0.01667355 -0.03211052 0.03118166
v -0.02251681 -0.03494187 0.02633122
v -0.02068168 -0.04026451 0.01651604
v -0.02062203 -0.04809340 0.01442032
v -0.01763722 -0.05557558 0.01531192
v -0.01252703 -0.06070621 0.01895192
v -0.00666072 -0.06211054 0.02436501
v -0.00161018 -0.05941229 0.03010073
v 0.00127131 -0.05333444 0.03462221
v 0.00121167 -0.04550555 0.03671793
v -0.00177314 -0.03802336 0.03582634
v -0.00688334 -0.03289273 0.03218633
v -0.01274964 -0.03148839 0.02677325
v -0.01780018 -0.03418665 0.02103753
v -0.01514562 -0.03814230 0.01149712
v -0.01393909 -0.04552703 0.00838310
v -0.01019371 -0.05271111 0.00860297
v -0.00491308 -0.05776957 0.01209782
v 0.00048788 -0.05934700 0.01793121
v 0.00456198 -0.05702073 0.02454009
v 0.00621757 -0.05141409 0.03015362
v 0.00501103 -0.04402935 0.03326765
v 0.00126566 -0.03684528 0.03304778
v -0.00401497 -0.03178682 0.02955293
v -0.00941593 -0.03020938 0.02371954
v -0.01349003 -0.03253565 0.01711066
v -0.01000487 -0.03511652 0.00796044
v -0.00749140 -0.04173440 0.00401415
v -0.00290567 -0.04841039 0.00371521
v 0.00252357 -0.05335567 0.00714372
v 0.00734155 -0.05524515 0.01338103
v 0.01025731 -0.05357256 0.02075584
v 0.01048957 -0.04878606 0.02729209
v 0.00797610 -0.04216818 0.03123839
v 0.00339037 -0.03549219 0.03153733
v -0.00203886 -0.03054691 0.02810882
v -0.00685685 -0.02865742 0.02187152
v -0.00977261 -0.03033001 0.01449670
v -0.00534609 -0.03147856 0.00582049
v -0.00146232 -0.03704607 0.00139258
v 0.00396623 -0.04303896 0.00084198
v 0.00948500 -0.04785144 0.00431622
v 0.01361523 -0.05019402 0.01088437
v 0.01525023 -0.04943900 0.01878651
v 0.01395191 -0.04578869 0.02590527
v 0.01006814 -0.04022119 0.03033318
v 0.00463958 -0.03422830 0.03088378
v -0.00087919 -0.02941582 0.02740955
v -0.00500942 -0.02707324 0.02084140
v -0.00664442 -0.02782825 0.01293926
v -0.00116643 -0.02747642 0.00490763
v 0.00399006 -0.03187345 0.00046197
v 0.01014065 -0.03713123 0.00000024
v 0.01563728 -0.04184094 0.00364616
v 0.01900714 -0.04474064 0.01042281
v 0.01934729 -0.04505333 0.01851438
v 0.01656657 -0.04269524 0.02575276
v 0.01141008 -0.03829821 0.03019842
v 0.00525950 -0.03304044 0.03066016
v -0.00023713 -0.02833072 0.02701425
v -0.00360700 -0.02543102 0.02023760
v -0.00394715 -0.02511833 0.01214603
v 0.00258148 -0.02330723 0.00503475
v 0.00877725 -0.02663473 0.00100645
v 0.01542845 -0.03126553 0.00093982
v 0.02075287 -0.03595881 0.00485271
v 0.02332386 -0.03945701 0.01169667
v 0.02245251 -0.04082279 0.01963786
v 0.01837231 -0.03969018 0.02654845
v 0.01217653 -0.03636268 0.03057675
v 0.00552534 -0.03173188 0.03064339
v 0.00020091 -0.02703859 0.02673050
v -0.00237007 -0.02354040 0.01988655
v -0.00149873 -0.02217462 0.01194535
v 0.00594547 -0.01912750 0.00603219
v 0.01289645 -0.02164564 0.00271105
v 0.01979681 -0.02586569 0.00322419
v 0.02479760 -0.03065690 0.00743413
v 0.02655887 -0.03473547 0.01421280
v 0.02460868 -0.03700853 0.02174387
v 0.01946959 -0.03686704 0.02800940
v 0.01251861 -0.03434890 0.03133054
v 0.00561826 -0.03012885 0.03081740
v 0.00061746 -0.02533764 0.02660747
v -0.00114381 -0.02125908 0.01982880
v 0.00080637 -0.01898601 0.01229773
v 0.00894743 -0.01506167 0.00775137
v 0.01638984 -0.01707768 0.00525471
v 0.02331949 -0.02112369 0.00639358
v 0.02787957 -0.02611555 0.01086282
v 0.02884822 -0.03071572 0.01746489
v 0.02596589 -0.03369156 0.02443078
v 0.02000489 -0.03424573 0.02989398
v 0.01256248 -0.03222971 0.03239064
v 0.00563284 -0.02818371 0.03125177
v 0.00107275 -0.02319184 0.02678254
v 0.00010410 -0.01859168 0.02018047
v 0.00298643 -0.01561583 0.01321458
v 0.01157902 -0.01120242 0.01005318
v 0.01930488 -0.01297714 0.00836539
v 0.02610885 -0.01703606 0.01007367
v 0.03016783 -0.02229159 0.01472031
v 0.03039420 -0.02733552 0.02106024
v 0.02672731 -0.03081633 0.02739467
v 0.02014971 -0.03180135 0.03202631
v 0.01242386 -0.03002663 0.03371410
v 0.00561988 -0.02596771 0.03200581
v 0.00156091 -0.02071218 0.02735917
v 0.00133453 -0.01566825 0.02101925
v 0.00500141 -0.01218744 0.01468482
v 0.01381207 -0.00760914 0.01279734
v 0.02167404 -0.00931912 0.01182137
v 0.02826882 -0.01350252 0.01398821
v 0.03182935 -0.01903838 0.01871726
v 0.03140158 -0.02444339 0.02474138
v 0.02710014 -0.02826927 0.03044641
v 0.02007760 -0.02949088 0.03430369
v 0.01221563 -0.02778090 0.03527967
v 0.00562085 -0.02359750 0.03311283
v 0.00206032 -0.01806164 0.02838378
v 0.00248808 -0.01265663 0.02235966
v 0.00678952 -0.00883075 0.01665463
v 0.01563286 -0.00430092 0.01584612
v 0.02353832 -0.00604261 0.01544935
v 0.02990058 -0.01039614 0.01795046
v 0.03301489 -0.01619498 0.02267926
v 0.03204677 -0.02188535 0.02836869
v 0.02725562 -0.02594251 0.03349426
v 0.01992523 -0.02727935 0.03668258
v 0.01201978 -0.02553767 0.03707935
v 0.00565752 -0.02118414 0.03457825
v 0.00254320 -0.01538530 0.02984945
v 0.00351132 -0.00969493 0.02416002
v 0.00830247 -0.00563777 0.01903445
v 0.01705351 -0.00126618 0.01907767
v 0.02495456 -0.00307110 0.01912949
v 0.03110396 -0.00759136 0.02185701
v 0.03385395 -0.01361574 0.02652942
v 0.03246770 -0.01953004 0.03189473
v 0.02731665 -0.02374951 0.03651531
v 0.01978100 -0.02514356 0.03915309
v 0.01187995 -0.02333863 0.03910127
v 0.00573056 -0.01881838 0.03637374
v 0.00298055 -0.01279399 0.03170134
v 0.00436680 -0.00687970 0.02633604
v 0.00951785 -0.00266022 0.02171545
v 0.01810905 0.00152342 0.02239489
v 0.02598735 -0.00034004 0.02277840
v 0.03196644 -0.00499865 0.02564805
v 0.03444424 -0.01120414 0.03023494
v 0.03275681 -0.01729376 0.03531001
v 0.02735631 -0.02163579 0.03951339
v 0.01968979 -0.02306680 0.04171880
v 0.01181149 -0.02120334 0.04133530
v 0.00583240 -0.01654474 0.03846564
v 0.00335460 -0.01033925 0.03387876
v 0.00504202 -0.00424963 0.02880369
v 0.01044252 0.00009240 0.02460030
v 0.01885455 0.00410588 0.02573209
v 0.02670933 0.00220934 0.02635872
v 0.03256716 -0.00254758 0.02931587
v 0.03485843 -0.00889026 0.03381115
v 0.03296921 -0.01511918 0.03864007
v 0.02740571 -0.01956532 0.04250872
v 0.01965867 -0.02103733 0.04438049
v 0.01180389 -0.01914078 0.04375386
v 0.00594606 -0.01438387 0.04079672
v 0.00365478 -0.00804119 0.03630144
v 0.00554399 -0.00181227 0.03147252
v 0.01110749 0.00263387 0.02760387
v 0.01934322 0.00651435 0.02904161
v 0.02718160 0.00461691 0.02984574
v 0.03296499 -0.00019531 0.03285938
v 0.03514374 -0.00663289 0.03727501
v 0.03313406 -0.01297087 0.04190947
v 0.02747442 -0.01751101 0.04552096
v 0.01968135 -0.01903677 0.04714179
v 0.01184297 -0.01713934 0.04633765
v 0.00605958 -0.01232711 0.04332402
v 0.00388082 -0.00588954 0.03890839
v 0.00589050 0.00044845 0.03427393
v 0.01155013 0.00498859 0.03066244
v 0.01963364 0.00878459 0.03229984
v 0.02746388 0.00691654 0.03324052
v 0.03320937 0.00208795 0.03630011
v 0.03533062 -0.00440738 0.04065880
v 0.03325923 -0.01082901 0.04514869
v 0.02755024 -0.01545629 0.04856670
v 0.01973336 -0.01704934 0.04999699
v 0.01190312 -0.01518129 0.04905632
v 0.00615763 -0.01035270 0.04599672
v 0.00403638 -0.00385738 0.04163803
v 0.00610776 0.00256426 0.03714815
v 0.01181675 0.00719154 0.03373013
v 0.01977559 0.01094643 0.03549074
v 0.02760384 0.00913146 0.03654507
v 0.03333617 0.00431944 0.03965503
v 0.03543662 -0.00220027 0.04398732
v 0.03334238 -0.00868071 0.04838109
v 0.02761458 -0.01338544 0.05165904
v 0.01978800 -0.01505385 0.05294284
v 0.01195976 -0.01323889 0.05188851
v 0.00622743 -0.00842686 0.04877855
v 0.00412697 -0.00190716 0.04444627
v 0.00622121 0.00457328 0.04005250
v 0.01194900 0.00927802 0.03677455
v 0.01981384 0.01302830 0.03860635
v 0.02764243 0.01128342 0.03977065
v 0.03337337 0.00651515 0.04294983
v 0.03547103 0.00000114 0.04729202
v 0.03337337 -0.00651319 0.05163374
v 0.02764244 -0.01128231 0.05481162
v 0.01981384 -0.01302837 0.05597417
v 0.01198525 -0.01128349 0.05480987
v 0.00625432 -0.00651522 0.05163070
v 0.00415664 -0.00000121 0.04728851
v 0.00625430 0.00651311 0.04294679
v 0.01198523 0.01128225 0.03976890
v 0.01978824 0.01505310 0.04163667
v 0.02761476 0.01338557 0.04292198
v 0.03334245 0.00868166 0.04620130
v 0.03543657 0.00220178 0.05059595
v 0.03333601 -0.00431779 0.05492838
v 0.02760361 -0.00913014 0.05803772
v 0.01977537 -0.01094581 0.05909082
v 0.01194884 -0.00927828 0.05780551
v 0.00622116 -0.00457438 0.05452619
v 0.00412703 0.00190550 0.05013154
v 0.00622759 0.00842507 0.04579911
v 0.01195998 0.01323743 0.04268978
v 0.01973424 0.01704798 0.04458167
v 0.02755093 0.01545581 0.04601394
v 0.03325956 0.01082952 0.04943391
v 0.03533049 0.00440872 0.05392519
v 0.03320883 -0.00208615 0.05828436
v 0.02746306 -0.00691479 0.06134337
v 0.01963278 -0.00878337 0.06228258
v 0.01181608 -0.00719120 0.06085031
v 0.00610746 -0.00256491 0.05743035
v 0.00403652 0.00385589 0.05293907
v 0.00615818 0.01035076 0.04857990
v 0.01190394 0.01517940 0.04552088
v 0.01968344 0.01903459 0.04743580
v 0.02747610 0.01750968 0.04905946
v 0.03313486 0.01297073 0.05267381
v 0.03514347 0.00663396 0.05731039
v 0.03296371 0.00019729 0.06172684
v 0.02717965 -0.00461458 0.06473977
v 0.01934113 -0.00651231 0.06554187
v 0.01154847 -0.00498740 0.06391822
v 0.00588971 -0.00044846 0.06030387
v 0.00388111 0.00588831 0.05566729
v 0.00606086 0.01232499 0.05125084
v 0.01184491 0.01713686 0.04823790
v 0.01966223 0.02103446 0.05019642
v 0.02740857 0.01956294 0.05207150
v 0.03297061 0.01511790 0.05594352
v 0.03485798 0.00889040 0.06077500
v 0.03256498 0.00254909 0.06527133
v 0.02670602 -0.00220689 0.06822774
v 0.01885099 -0.00410317 0.06885205
v 0.01110465 -0.00263164 0.06697698
v 0.00554262 0.00181339 0.06310495
v 0.00365523 0.00804089 0.05827348
v 0.00594823 0.01438220 0.05377714
v 0.01180719 0.01913818 0.05082074
v 0.01969556 0.02306292 0.05285737
v 0.02736084 0.02163235 0.05506737
v 0.03275889 0.01729166 0.05927529
v 0.03444331 0.01120393 0.06435362
v 0.03196275 0.00500036 0.06894162
v 0.02598190 0.00034320 0.07180993
v 0.01810330 -0.00151968 0.07219001
v 0.01043802 -0.00008912 0.06998001
v 0.00503997 0.00425157 0.06577209
v 0.00335555 0.01033930 0.06069377
v 0.00583609 0.01654287 0.05610577
v 0.01181695 0.02120004 0.05323745
v 0.01978952 0.02513843 0.05542261
v 0.02732304 0.02374522 0.05806689
v 0.03247026 0.01952770 0.06269354
v 0.03385199 0.01361597 0.06806284
v 0.03109800 0.00759406 0.07273609
v 0.02494622 0.00307554 0.07546110
v 0.01704501 0.00127115 0.07550771
v 0.00951150 0.00266436 0.07286343
v 0.00436428 0.00688187 0.06823679
v 0.00298254 0.01279360 0.06286749
v 0.00573652 0.01881551 0.05819424
v 0.01188830 0.02333403 0.05546922
v 0.01993574 0.02727339 0.05789363
v 0.02726324 0.02593714 0.06108882
v 0.03204947 0.02188200 0.06622058
v 0.03301196 0.01619452 0.07191385
v 0.02989280 0.01039867 0.07664314
v 0.02352778 0.00604744 0.07914122
v 0.01562240 0.00430673 0.07873875
v 0.00829489 0.00564298 0.07554356
v 0.00350866 0.00969812 0.07041180
v 0.00254617 0.01538559 0.06471853
v 0.00566533 0.02118145 0.05998924
v 0.01203034 0.02553268 0.05749116
v 0.02009121 0.02948327 0.06027316
v 0.02710926 0.02826320 0.06413910
v 0.03140377 0.02444046 0.06985146
v 0.03182402 0.01903936 0.07587961
v 0.02825741 0.01350711 0.08060832
v 0.02165961 0.00932609 0.08277053
v 0.01379850 0.00761658 0.08178689
v 0.00678044 0.00883665 0.07792095
v 0.00248594 0.01265939 0.07220859
v 0.00206568 0.01806049 0.06618044
v 0.00563229 0.02359273 0.06145173
v 0.01223008 0.02777376 0.05928951
v 0.02016390 0.03179331 0.06255232
v 0.02673526 0.03081232 0.06719367
v 0.03039377 0.02733658 0.07353572
v 0.03015915 0.02229742 0.07987914
v 0.02609426 0.01704507 0.08452421
v 0.01928829 0.01298690 0.08622628
v 0.01156488 0.01121028 0.08452929
v 0.00499353 0.01219127 0.07988794
v 0.00133501 0.01566700 0.07354589
v 0.00156963 0.02070616 0.06720247
v 0.00563452 0.02595851 0.06255741
v 0.01244049 0.03001669 0.06085533
v 0.02001940 0.03423728 0.06468658
v 0.02597159 0.03369069 0.07016013
v 0.02884360 0.03072261 0.07713360
v 0.02786588 0.02612835 0.08373844
v 0.02330040 0.02113894 0.08820491
v 0.01637048 0.01709128 0.08933619
v 0.00893299 0.01506993 0.08682919
v 0.00298080 0.01561653 0.08135564
v 0.00010879 0.01858460 0.07438218
v 0.00108651 0.02317886 0.06777733
v 0.00565199 0.02816827 0.06331087
v 0.01258190 0.03221594 0.06217957
v 0.01948431 0.03685823 0.06657318
v 0.02461187 0.03701014 0.07284789
v 0.02654969 0.03474703 0.08038516
v 0.02477853 0.03067530 0.08716536
v 0.01977296 0.02588597 0.09137175
v 0.01287423 0.02166233 0.09187723
v 0.00593084 0.01913610 0.08854636
v 0.00080328 0.01898420 0.08227164
v -0.00113454 0.02124731 0.07473438
v 0.00063662 0.02531903 0.06795418
v 0.00564218 0.03010836 0.06374779
v 0.01254091 0.03433200 0.06324230
v 0.01838514 0.03968240 0.06803565
v 0.02245212 0.04082711 0.07495204
v 0.02331037 0.03947226 0.08289653
v 0.02072991 0.03598087 0.08974041
v 0.01540218 0.03128846 0.09364985
v 0.00875474 0.02665236 0.09357734
v 0.00256877 0.02331480 0.08954229
v -0.00149822 0.02217009 0.08262591
v -0.00235646 0.02352494 0.07468142
v 0.00022399 0.02701633 0.06783755
v 0.00555171 0.03170873 0.06392810
v 0.01219915 0.03634483 0.06400061
v 0.01657706 0.04268895 0.06883219
v 0.01934082 0.04506270 0.07607195
v 0.01898547 0.04476312 0.08416338
v 0.01560622 0.04187049 0.09093837
v 0.01010855 0.03715989 0.09458158
v 0.00396556 0.03189352 0.09411682
v -0.00117676 0.02748250 0.08966862
v -0.00394052 0.02510875 0.08242886
v -0.00358518 0.02540833 0.07433744
v -0.00020594 0.02830095 0.06756244
v 0.00529173 0.03301155 0.06391922
v 0.01143473 0.03827792 0.06438398
v 0.01395905 0.04578462 0.06867931
v 0.01523789 0.04945124 0.07579322
v 0.01358674 0.05021925 0.08369075
v 0.00944801 0.04788288 0.09025576
v 0.00393068 0.04306815 0.09372918
v -0.00148688 0.03706517 0.09318029
v -0.00535305 0.03148242 0.08875618
v -0.00663189 0.02781580 0.08164227
v -0.00498074 0.02704779 0.07374475
v -0.00084201 0.02938416 0.06717973
v 0.00467531 0.03419888 0.06370631
v 0.01009287 0.04020187 0.06425520
v 0.01049649 0.04878255 0.06729338
v 0.01024566 0.05358128 0.07381997
v 0.00731448 0.05526374 0.08118643
v 0.00248836 0.05337911 0.08741892
v -0.00293954 0.04843237 0.09084744
v -0.00751483 0.04174900 0.09055334
v -0.01001156 0.03511982 0.08661541
v -0.00976073 0.03032108 0.08008882
v -0.00682955 0.02863862 0.07272237
v -0.00200344 0.03052325 0.06648988
v 0.00342447 0.03546998 0.06306135
v 0.00799976 0.04215334 0.06335545
v 0.00622234 0.05141212 0.06443108
v 0.00455052 0.05702656 0.07003200
v 0.00046330 0.05935903 0.07663058
v -0.00494416 0.05778454 0.08245875
v -0.01022293 0.05272500 0.08595485
v -0.01395857 0.04553609 0.08618210
v -0.01515012 0.03814407 0.08307962
v -0.01347830 0.03252964 0.07747871
v -0.00939108 0.03019716 0.07088012
v -0.00398362 0.03177164 0.06505195
v 0.00129514 0.03683118 0.06155585
v 0.00503079 0.04402009 0.06132859
v 0.00127404 0.05333369 0.05996117
v -0.00162106 0.05941530 0.06446890
v -0.00668226 0.06211648 0.07019385
v -0.01255340 0.06071347 0.07560202
v -0.01766132 0.05558219 0.07924431
v -0.02063736 0.04809758 0.08014475
v -0.02068409 0.04026511 0.07806209
v -0.01778899 0.03418351 0.07355437
v -0.01272780 0.03148232 0.06782942
v -0.00685666 0.03288533 0.06242124
v -0.00174873 0.03801661 0.05877896
v 0.00122731 0.04550122 0.05787850
v -0.00409194 0.05419276 0.05393750
v -0.00799963 0.06044073 0.05731094
v -0.01385093 0.06327243 0.06215149
v -0.02007797 0.06192913 0.06716213
v -0.02501225 0.05677076 0.07100027
v -0.02733160 0.04917950 0.07263747
v -0.02641458 0.04118942 0.07163506
v -0.02250690 0.03494146 0.06826162
v -0.01665561 0.03210975 0.06342107
v -0.01042856 0.03345305 0.05841043
v -0.00549429 0.03861142 0.05457229
v -0.00317492 0.04620267 0.05293509
v -0.00951366 0.05369995 0.04664706
v -0.01425457 0.05987541 0.04889974
v -0.02074121 0.06265300 0.05288666
v -0.02723551 0.06128846 0.05753954
v -0.03199731 0.05614740 0.06161165
v -0.03375069 0.04860740 0.06401185
v -0.03202585 0.04068876 0.06409704
v -0.02728494 0.03451329 0.06184437
v -0.02079830 0.03173571 0.05785744
v -0.01430400 0.03310025 0.05320456
v -0.00954220 0.03824129 0.04913246
v -0.00778881 0.04578130 0.04673225
v -0.01457011 0.05171258 0.03860640
v -0.01999963 0.05761753 0.03976358
v -0.02699751 0.06019480 0.04293761
v -0.03368867 0.05875384 0.04727802
v -0.03828022 0.05368073 0.05162179
v -0.03954186 0.04633481 0.05480502
v -0.03713553 0.03868443 0.05597476
v -0.03170601 0.03277948 0.05481758
v -0.02470814 0.03020220 0.05164355
v -0.01801698 0.03164316 0.04730314
v -0.01342543 0.03671627 0.04295937
v -0.01216378 0.04406218 0.03977615
v -0.01886209 0.04828827 0.03048137
v -0.02486380 0.05373452 0.03055316
v -0.03227467 0.05598143 0.03294429
v -0.03910897 0.05442695 0.03701407
v -0.04353545 0.04948760 0.04167199
v -0.04436805 0.04248689 0.04566997
v -0.04138367 0.03530063 0.04793676
v -0.03538197 0.02985439 0.04786497
v -0.02797110 0.02760748 0.04547383
v -0.02113680 0.02916195 0.04140406
v -0.01671031 0.03410130 0.03674615
v -0.01587771 0.04110201 0.03274816
v -0.02210084 0.04367911 0.02294396
v -0.02856669 0.04845923 0.02192890
v -0.03630388 0.05023999 0.02355738
v -0.04323923 0.04854423 0.02739307
v -0.04751442 0.04382634 0.03240818
v -0.04798392 0.03735046 0.03725892
v -0.04452193 0.03085181 0.04064554
v -0.03805608 0.02607168 0.04166060
v -0.03031890 0.02429092 0.04003211
v -0.02338355 0.02598668 0.03619643
v -0.01910835 0.03070456 0.03118133
v -0.01863885 0.03718044 0.02633058
v -0.02416502 0.03825557 0.01651870
v -0.03097501 0.04211774 0.01442234
v -0.03894746 0.04327283 0.01531282
v -0.04594616 0.04141132 0.01895152
v -0.05009581 0.03703200 0.02436346
v -0.05028451 0.03130831 0.03009852
v -0.04646171 0.02577391 0.03461999
v -0.03965172 0.02191173 0.03671635
v -0.03167927 0.02075664 0.03582587
v -0.02468057 0.02261815 0.03218718
v -0.02053092 0.02699747 0.02677523
v -0.02034222 0.03272115 0.02104017
v -0.02509602 0.03239651 0.01149630
v -0.03209465 0.03504443 0.00838266
v -0.04018889 0.03539353 0.00860308
v -0.04720989 0.03335027 0.01209848
v -0.05127637 0.02946214 0.01793229
v -0.05129873 0.02477097 0.02454134
v -0.04727097 0.02053374 0.03015474
v -0.04027234 0.01788583 0.03326838
v -0.03217810 0.01753673 0.03304797
v -0.02515711 0.01957999 0.02955257
v -0.02109062 0.02346811 0.02371876
v -0.02106826 0.02815928 0.01710971
v -0.02504588 0.02643233 0.00796024
v -0.03203387 0.02756418 0.00401383
v -0.04010830 0.02693069 0.00371489
v -0.04710564 0.02470160 0.00714352
v -0.05115096 0.02147419 0.01338101
v -0.05116032 0.01811325 0.02075604
v -0.04713122 0.01551933 0.02729248
v -0.04014323 0.01438748 0.03123889
v -0.03206880 0.01502097 0.03153783
v -0.02507146 0.01725006 0.02810921
v -0.02102613 0.02047747 0.02187172
v -0.02101677 0.02383841 0.01449668
v -0.02422471 0.02057781 0.00581987
v -0.03098883 0.02000023 0.00139265
v -0.03889356 0.01829732 0.00084274
v -0.04582085 0.01592538 0.00431747
v -0.04991452 0.01351995 0.01088581
v -0.05007768 0.01172559 0.01878775
v -0.04626662 0.01102308 0.02590599
v -0.03950250 0.01160066 0.03033321
v -0.03159776 0.01330356 0.03088312
v -0.02467048 0.01567551 0.02740839
v -0.02057681 0.01808093 0.02084007
v -0.02041364 0.01987530 0.01293812
v -0.02284860 0.01495858 0.00490769
v -0.02923455 0.01269084 0.00046200
v -0.03686303 0.00999268 0.00000022
v -0.04369002 0.00758707 0.00364610
v -0.04788622 0.00611859 0.01042272
v -0.04832726 0.00598073 0.01851430
v -0.04489498 0.00721042 0.02575269
v -0.03850904 0.00947816 0.03019839
v -0.03088055 0.01217632 0.03066017
v -0.02405357 0.01458193 0.02701430
v -0.01985737 0.01605041 0.02023768
v -0.01941632 0.01618827 0.01214610
v -0.02111198 0.00962973 0.00503512
v -0.02709050 0.00592610 0.00100677
v -0.03442569 0.00247971 0.00093999
v -0.04115210 0.00021402 0.00485268
v -0.04546740 -0.00026389 0.01169644
v -0.04621529 0.00117405 0.01963748
v -0.04319538 0.00414252 0.02654801
v -0.03721687 0.00784614 0.03057637
v -0.02988167 0.01129253 0.03064314
v -0.02315526 0.01355822 0.02673045
v -0.01883997 0.01403613 0.01988670
v -0.01809207 0.01259821 0.01194566
v -0.01917420 0.00462568 0.00603223
v -0.02483094 -0.00013390 0.00271035
v -0.03193614 -0.00399920 0.00322293
v -0.03858597 -0.00593451 0.00743262
v -0.04299861 -0.00542128 0.01421144
v -0.04399169 -0.00259702 0.02174300
v -0.04129913 0.00178152 0.02800924
v -0.03564240 0.00654109 0.03133111
v -0.02853720 0.01040639 0.03081853
v -0.02188737 0.01234171 0.02660885
v -0.01747473 0.01182848 0.01983003
v -0.01648164 0.00900422 0.01229847
v -0.01715406 -0.00000913 0.00775128
v -0.02262178 -0.00544586 0.00525465
v -0.02959097 -0.00942334 0.00639354
v -0.03619426 -0.01087582 0.01086278
v -0.04066228 -0.00941409 0.01746485
v -0.04179785 -0.00542984 0.02443072
v -0.03929667 0.00000937 0.02989389
v -0.03382895 0.00544610 0.03239052
v -0.02685976 0.00942358 0.03125163
v -0.02025648 0.01087606 0.02678240
v -0.01578845 0.00941433 0.02018034
v -0.01465289 0.00543008 0.01321447
v -0.01512766 -0.00421659 0.01005307
v -0.02052685 -0.01002090 0.00836611
v -0.02744346 -0.01388449 0.01007501
v -0.03402418 -0.01477211 0.01472187
v -0.03850573 -0.01244592 0.02106157
v -0.03968726 -0.00752924 0.02739539
v -0.03725219 -0.00133947 0.03202619
v -0.03185300 0.00446484 0.03371315
v -0.02493640 0.00832843 0.03200425
v -0.01835567 0.00921605 0.02735740
v -0.01387413 0.00688987 0.02101770
v -0.01269259 0.00197319 0.01468388
v -0.01313229 -0.00794613 0.01279700
v -0.01854441 -0.01389942 0.01182015
v -0.02546492 -0.01751896 0.01398641
v -0.03203946 -0.01783487 0.01871534
v -0.03650639 -0.01476252 0.02473982
v -0.03766881 -0.00912514 0.03044559
v -0.03521523 -0.00243326 0.03430380
v -0.02980311 0.00352004 0.03528065
v -0.02288260 0.00713957 0.03311439
v -0.01630806 0.00745549 0.02838546
v -0.01184113 0.00438315 0.02236099
v -0.01067871 -0.00125423 0.01665522
v -0.01117768 -0.01117676 0.01584553
v -0.01663815 -0.01715280 0.01544888
v -0.02358911 -0.02048667 0.01795020
v -0.03016806 -0.02028507 0.02267925
v -0.03461217 -0.01660201 0.02836889
v -0.03573065 -0.01042436 0.03349460
v -0.03322381 -0.00340743 0.03668292
v -0.02776334 0.00256861 0.03707958
v -0.02081238 0.00590249 0.03457826
v -0.01423343 0.00570089 0.02984921
v -0.00978932 0.00201783 0.02415957
v -0.00867084 -0.00415981 0.01903387
v -0.00925987 -0.01392404 0.01907671
v -0.01477360 -0.01986402 0.01912739
v -0.02176301 -0.02292982 0.02185431
v -0.02835530 -0.02229997 0.02652680
v -0.03278407 -0.01814322 0.03189286
v -0.03386263 -0.01157339 0.03651467
v -0.03130199 -0.00435084 0.03915380
v -0.02578827 0.00158914 0.03910312
v -0.01879886 0.00465495 0.03637620
v -0.01220657 0.00402510 0.03170372
v -0.00777780 -0.00013164 0.02633766
v -0.00669923 -0.00670148 0.02171585
v -0.00737183 -0.01623356 0.02239406
v -0.01292424 -0.02212513 0.02277778
v -0.01994785 -0.02497453 0.02564779
v -0.02656068 -0.02401827 0.03023507
v -0.03099084 -0.01951258 0.03531046
v -0.03205126 -0.01266474 0.03951401
v -0.02945781 -0.00530965 0.04171939
v -0.02390540 0.00058192 0.04133566
v -0.01688180 0.00343132 0.03846565
v -0.01026896 0.00247507 0.03387838
v -0.00583880 -0.00203062 0.02880299
v -0.00477838 -0.00887845 0.02459944
v -0.00550788 -0.01817255 0.02573277
v -0.01107799 -0.02402646 0.02635954
v -0.01812675 -0.02672056 0.02931655
v -0.02476544 -0.02553298 0.03381149
v -0.02921525 -0.02078193 0.03863994
v -0.03028384 -0.01374045 0.04250811
v -0.02768489 -0.00629530 0.04437954
v -0.02211478 -0.00044140 0.04375278
v -0.01506603 0.00225271 0.04079576
v -0.00842733 0.00106513 0.03630083
v -0.00397752 -0.00368591 0.03147238
v -0.00290893 -0.01072739 0.02760420
v -0.00366672 -0.01979840 0.02904088
v -0.00922914 -0.02563796 0.02984473
v -0.01628829 -0.02824061 0.03285832
v -0.02295269 -0.02690896 0.03727415
v -0.02743662 -0.02199982 0.04190901
v -0.02853862 -0.01482860 0.04552098
v -0.02596339 -0.00731682 0.04714225
v -0.02040098 -0.00147726 0.04633839
v -0.01334183 0.00112539 0.04332481
v -0.00667743 -0.00020626 0.03890898
v -0.00219349 -0.00511539 0.03427413
v -0.00109150 -0.01228661 0.03066215
v -0.00184582 -0.02118536 0.03229936
v -0.00737892 -0.02703240 0.03323956
v -0.01443348 -0.02959383 0.03629889
v -0.02111921 -0.02818330 0.04065762
v -0.02564470 -0.02317878 0.04514781
v -0.02679733 -0.01592122 0.04856634
v -0.02426827 -0.00835527 0.04999720
v -0.01873516 -0.00250822 0.04905700
v -0.01168061 0.00005320 0.04599767
v -0.00499487 -0.00135732 0.04163895
v -0.00046938 -0.00636184 0.03714875
v 0.00068325 -0.01361940 0.03373023
v -0.00004316 -0.02239096 0.03549338
v -0.00552898 -0.02826291 0.03654835
v -0.01256276 -0.03082084 0.03965803
v -0.01925979 -0.02937934 0.04398919
v -0.02382562 -0.02432466 0.04838130
v -0.02503683 -0.01701120 0.05165748
v -0.02256887 -0.00939860 0.05293991
v -0.01708305 -0.00352664 0.05188494
v -0.01004928 -0.00096872 0.04877526
v -0.00335224 -0.00241021 0.04444410
v 0.00121359 -0.00746489 0.04005200
v 0.00242480 -0.01477834 0.03677580
v 0.00173824 -0.02346288 0.03860425
v -0.00368702 -0.02937029 0.03976882
v -0.01068152 -0.03194952 0.04294871
v -0.01737108 -0.03050948 0.04729188
v -0.02196325 -0.02543601 0.05163458
v -0.02322756 -0.01808856 0.05481319
v -0.02082524 -0.01043586 0.05597600
v -0.01539998 -0.00452844 0.05481144
v -0.00840549 -0.00194921 0.05163155
v -0.00171592 -0.00338925 0.04728838
v 0.00287625 -0.00846271 0.04294568
v 0.00414056 -0.01581016 0.03976707
v 0.00350538 -0.02445370 0.04163607
v -0.00185224 -0.03039776 0.04292107
v -0.00878987 -0.03300605 0.04620029
v -0.01544858 -0.03157966 0.05059507
v -0.02004419 -0.02650081 0.05492783
v -0.02134529 -0.01913036 0.05803761
v -0.01900326 -0.01144322 0.05909115
v -0.01364565 -0.00549915 0.05780615
v -0.00670803 -0.00289087 0.05452693
v -0.00004931 -0.00431725 0.05013215
v 0.00454629 -0.00939610 0.04579939
v 0.00584740 -0.01676655 0.04268961
v 0.00526020 -0.02540445 0.04458141
v -0.00002681 -0.03137791 0.04601403
v -0.00688744 -0.03400864 0.04943429
v -0.01348338 -0.03259174 0.05392573
v -0.01804726 -0.02750686 0.05828488
v -0.01935620 -0.02011650 0.06134370
v -0.01705945 -0.01240089 0.06228258
v -0.01177244 -0.00642743 0.06084996
v -0.00491182 -0.00379670 0.05742970
v 0.00168413 -0.00521360 0.05293826
v 0.00624801 -0.01029847 0.04857911
v 0.00755695 -0.01768883 0.04552029
v 0.00700594 -0.02635382 0.04743546
v 0.00178883 -0.03233990 0.04905895
v -0.00497146 -0.03497096 0.05267325
v -0.01146351 -0.03354202 0.05730989
v -0.01594779 -0.02843595 0.06172650
v -0.01722274 -0.02102093 0.06473965
v -0.01494673 -0.01328380 0.06554196
v -0.00972963 -0.00729772 0.06391847
v -0.00296934 -0.00466665 0.06030418
v 0.00352272 -0.00609559 0.05566753
v 0.00800700 -0.01120165 0.05125092
v 0.00928195 -0.01861668 0.04823777
v 0.00875023 -0.02733471 0.05019760
v 0.00360273 -0.03330775 0.05207195
v -0.00302817 -0.03590246 0.05594309
v -0.00936573 -0.03442358 0.06077377
v -0.01371180 -0.02926738 0.06526959
v -0.01490186 -0.02181547 0.06822592
v -0.01261704 -0.01406457 0.06885060
v -0.00746954 -0.00809153 0.06697625
v -0.00083864 -0.00549682 0.06310511
v 0.00549892 -0.00697569 0.05827444
v 0.00984499 -0.01213188 0.05377861
v 0.01103506 -0.01958379 0.05082228
v 0.01048806 -0.02837875 0.05285676
v 0.00541638 -0.03430161 0.05506695
v -0.00104171 -0.03680590 0.05927513
v -0.00715577 -0.03522058 0.06435372
v -0.01128756 -0.02997044 0.06894192
v -0.01232995 -0.02246226 0.07181032
v -0.01000364 -0.01470784 0.07219035
v -0.00493197 -0.00878498 0.06998016
v 0.00152612 -0.00628070 0.06577199
v 0.00764019 -0.00786601 0.06069340
v 0.01177197 -0.01311614 0.05610520
v 0.01281437 -0.02062432 0.05323679
v 0.01223831 -0.02949804 0.05542200
v 0.00726530 -0.03532554 0.05806709
v 0.00103967 -0.03767420 0.06269445
v -0.00477042 -0.03591470 0.06806419
v -0.00860816 -0.03051848 0.07273749
v -0.00944525 -0.02293148 0.07546214
v -0.00705737 -0.01518661 0.07550808
v -0.00208436 -0.00935910 0.07286299
v 0.00414126 -0.00701044 0.06823562
v 0.00995135 -0.00876994 0.06286588
v 0.01378910 -0.01416615 0.05819259
v 0.01462619 -0.02175316 0.05546793
v 0.01401732 -0.03069027 0.05789448
v 0.00919516 -0.03636825 0.06108734
v 0.00328869 -0.03848626 0.06621713
v -0.00211945 -0.03647678 0.07190933
v -0.00558016 -0.03087825 0.07663871
v -0.00616614 -0.02319079 0.07913805
v -0.00372038 -0.01547425 0.07873764
v 0.00110178 -0.00979626 0.07554478
v 0.00700824 -0.00767825 0.07041498
v 0.01241639 -0.00968772 0.06472279
v 0.01587710 -0.01528625 0.05999340
v 0.01646308 -0.02297371 0.05749407
v 0.01585234 -0.03193049 0.06027341
v 0.01128753 -0.03739881 0.06413956
v 0.00582996 -0.03920719 0.06985199
v 0.00094197 -0.03687109 0.07588003
v -0.00206669 -0.03101645 0.08060850
v -0.00238987 -0.02321204 0.08277039
v 0.00005904 -0.01554902 0.08178643
v 0.00462385 -0.01008071 0.07792028
v 0.01008142 -0.00827232 0.07220786
v 0.01496941 -0.01060842 0.06617981
v 0.01797808 -0.01646305 0.06145134
v 0.01830126 -0.02426746 0.05928945
v 0.01781380 -0.03315010 0.06255204
v 0.01367979 -0.03835029 0.06719480
v 0.00884175 -0.03978035 0.07353794
v 0.00459603 -0.03705710 0.07988183
v 0.00208027 -0.03091024 0.08452662
v 0.00196856 -0.02298680 0.08622776
v 0.00429084 -0.01540988 0.08452941
v 0.00842485 -0.01020969 0.07988666
v 0.01326288 -0.00877963 0.07354352
v 0.01750860 -0.01150288 0.06719963
v 0.02002437 -0.01764974 0.06255483
v 0.02013608 -0.02557317 0.06085370
v 0.02000393 -0.03424616 0.06468651
v 0.01655331 -0.03912748 0.07015945
v 0.01254608 -0.04013055 0.07713247
v 0.00905596 -0.03698661 0.08373716
v 0.00701812 -0.03053808 0.08820378
v 0.00697861 -0.02251282 0.08933552
v 0.00894801 -0.01506121 0.08682912
v 0.01239862 -0.01017989 0.08135618
v 0.01640585 -0.00917681 0.07438316
v 0.01989598 -0.01232074 0.06777847
v 0.02193381 -0.01876928 0.06331185
v 0.02197333 -0.02679453 0.06218011
v 0.02254042 -0.03509372 0.06657327
v 0.02010715 -0.03960996 0.07284782
v 0.01717784 -0.04015622 0.08038492
v 0.01453739 -0.03658613 0.08716501
v 0.01289331 -0.02985629 0.09137137
v 0.01268613 -0.02176997 0.09187691
v 0.01397137 -0.01449388 0.08854618
v 0.01640463 -0.00997764 0.08227163
v 0.01933395 -0.00943139 0.07473453
v 0.02197439 -0.01300147 0.06795444
v 0.02361847 -0.01973130 0.06374808
v 0.02382565 -0.02781762 0.06324253
v 0.02553688 -0.03555331 0.06803563
v 0.02449556 -0.03964772 0.07495217
v 0.02289368 -0.03971353 0.08289678
v 0.02116047 -0.03573310 0.08974070
v 0.01976034 -0.02877297 0.09365011
v 0.01906846 -0.02069813 0.09357749
v 0.01927021 -0.01367220 0.08954229
v 0.02031154 -0.00957779 0.08262575
v 0.02191341 -0.00951198 0.07468115
v 0.02364662 -0.01349241 0.06783723
v 0.02504675 -0.02045253 0.06392781
v 0.02573863 -0.02852738 0.06400043
v 0.02904691 -0.03548952 0.06883125
v 0.02972162 -0.03907030 0.07607072
v 0.02963987 -0.03861343 0.08416218
v 0.02882358 -0.03424131 0.09093753
v 0.02749147 -0.02712545 0.09458133
v 0.02600048 -0.01917255 0.09411722
v 0.02475011 -0.01251357 0.08966956
v 0.02407541 -0.00893279 0.08243009
v 0.02415715 -0.00938966 0.07433863
v 0.02497344 -0.01376177 0.06756328
v 0.02630555 -0.02087762 0.06391948
v 0.02779655 -0.02883053 0.06438359
v 0.03303409 -0.03477166 0.06867961
v 0.03556888 -0.03771273 0.07579382
v 0.03705886 -0.03666690 0.08369150
v 0.03710478 -0.03191441 0.09025647
v 0.03569434 -0.02472867 0.09372965
v 0.03320547 -0.01703510 0.09318041
v 0.03030506 -0.01089519 0.08875591
v 0.02777027 -0.00795412 0.08164169
v 0.02628029 -0.00899994 0.07374402
v 0.02623437 -0.01375243 0.06717904
v 0.02764480 -0.02093817 0.06370587
v 0.03013367 -0.02863173 0.06425510
v 0.03736052 -0.03327274 0.06729466
v 0.04164172 -0.03545467 0.07382134
v 0.04456477 -0.03375699 0.08118753
v 0.04534644 -0.02863457 0.08741947
v 0.04377728 -0.02145998 0.09084730
v 0.04027775 -0.01415562 0.09055255
v 0.03578554 -0.00867872 0.08661419
v 0.03150435 -0.00649678 0.08008751
v 0.02858130 -0.00819446 0.07272132
v 0.02779963 -0.01331687 0.06648938
v 0.02936878 -0.02049147 0.06306155
v 0.03286831 -0.02779582 0.06335629
v 0.04177703 -0.03088453 0.06443060
v 0.04747547 -0.03224376 0.07003127
v 0.05153913 -0.02987035 0.07662981
v 0.05287917 -0.02440025 0.08245814
v 0.05113652 -0.01729918 0.08595457
v 0.04677813 -0.01046985 0.08618223
v 0.04097183 -0.00574218 0.08308012
v 0.03527339 -0.00438295 0.07747945
v 0.03120973 -0.00675636 0.07088092
v 0.02986969 -0.01222646 0.06505259
v 0.03161233 -0.01932753 0.06155615
v 0.03597072 -0.02615686 0.06132849
v 0.04591617 -0.02755899 0.05995928
v 0.05263035 -0.02809278 0.06446729
v 0.05749973 -0.02506078 0.07019294
v 0.05921959 -0.01927539 0.07560206
v 0.05732908 -0.01228682 0.07924527
v 0.05233477 -0.00596765 0.08014638
v 0.04557488 -0.00201108 0.07806394
v 0.03886071 -0.00147729 0.07355593
v 0.03399132 -0.00450930 0.06783028
v 0.03227146 -0.01029468 0.06242116
v 0.03416197 -0.01728325 0.05877795
v 0.03915628 -0.02360242 0.05787683
v 0.04934153 -0.02334322 0.05393813
v 0.05670646 -0.02308275 0.05731113
v 0.06208466 -0.01943090 0.06215118
v 0.06403504 -0.01336618 0.06716140
v 0.06203500 -0.00651363 0.07099931
v 0.05662045 -0.00070938 0.07263653
v 0.04924222 0.00249133 0.07163438
v 0.04187730 0.00223086 0.06826138
v 0.03649910 -0.00142099 0.06342133
v 0.03454872 -0.00748570 0.05841111
v 0.03654875 -0.01433826 0.05457320
v 0.04196329 -0.02014251 0.05293598
v 0.05162536 -0.01840256 0.04664935
v 0.05934392 -0.01738460 0.04890205
v 0.06499285 -0.01315541 0.05288837
v 0.06705851 -0.00684820 0.05754018
v 0.06498741 -0.00015298 0.06161102
v 0.05933451 0.00513627 0.06401012
v 0.05161449 0.00760230 0.06409464
v 0.04389594 0.00658434 0.06184194
v 0.03824701 0.00235515 0.05785562
v 0.03618135 -0.00395205 0.05320381
v 0.03825244 -0.01064727 0.04913297
v 0.04390533 -0.01593652 0.04673387
v 0.05243299 -0.01302768 0.03860540
v 0.06026158 -0.01127793 0.03976239
v 0.06599251 -0.00650630 0.04293653
v 0.06809018 0.00000866 0.04727729
v 0.06599251 0.00652127 0.05162158
v 0.06026158 0.01128648 0.05480534
v 0.05243299 0.01302746 0.05597550
v 0.04460440 0.01127771 0.05481850
v 0.03887347 0.00650608 0.05164437
v 0.03677580 -0.00000888 0.04730361
v 0.03887346 -0.00652149 0.04295932
v 0.04460439 -0.01128670 0.03977556
v 0.05161297 -0.00759785 0.03047930
v 0.05933062 -0.00512406 0.03055213
v 0.06498222 0.00016961 0.03294453
v 0.06705342 0.00686475 0.03701546
v 0.06498923 0.01316738 0.04167411
v 0.05934277 0.01738873 0.04567222
v 0.05162699 0.01839769 0.04793847
v 0.04390934 0.01592390 0.04786565
v 0.03825774 0.01063023 0.04547325
v 0.03618655 0.00393509 0.04140233
v 0.03825072 -0.00236754 0.03674367
v 0.04389718 -0.00658889 0.03274557
v 0.04924147 -0.00249024 0.02294461
v 0.05661420 0.00071914 0.02192978
v 0.06202494 0.00652941 0.02355822
v 0.06402390 0.01338369 0.02739358
v 0.06207546 0.01944540 0.03240820
v 0.05670169 0.02309030 0.03725840
v 0.04934250 0.02334175 0.04064458
v 0.04196977 0.02013236 0.04165941
v 0.03655902 0.01432210 0.04003098
v 0.03456006 0.00746782 0.03619561
v 0.03650851 0.00140611 0.03118100
v 0.04188227 -0.00223880 0.02633079
v 0.04557668 0.00200924 0.01651920
v 0.05232662 0.00597558 0.01442310
v 0.05731320 0.01230237 0.01531359
v 0.05920027 0.01929434 0.01895206
v 0.05748219 0.02507801 0.02436358
v 0.05261932 0.02810363 0.03009815
v 0.04591466 0.02756051 0.03461918
v 0.03916473 0.02359417 0.03671528
v 0.03417815 0.01726738 0.03582479
v 0.03229108 0.01027541 0.03218632
v 0.03400915 0.00449175 0.02677480
v 0.03887202 0.00146612 0.02104024
v 0.04096828 0.00574496 0.01149687
v 0.04676047 0.01048216 0.00838294
v 0.05110952 0.01731769 0.00860295
v 0.05285010 0.02441998 0.01209796
v 0.05151583 0.02988596 0.01793147
v 0.04746423 0.03225104 0.02454040
v 0.04178091 0.03088150 0.03015390
v 0.03598873 0.02614429 0.03326784
v 0.03163968 0.01930876 0.03304782
v 0.02989909 0.01220648 0.02955282
v 0.03123335 0.00674049 0.02371931
v 0.03528495 0.00437541 0.01711038
v 0.03577509 0.00868563 0.00795844
v 0.04025023 0.01417123 0.00401276
v 0.04374013 0.02148007 0.00371481
v 0.04530965 0.02865373 0.00714442
v 0.04453824 0.03377006 0.01338264
v 0.04163262 0.03545812 0.02075792
v 0.03737133 0.03326561 0.02729409
v 0.03289619 0.02778001 0.03123977
v 0.02940630 0.02047118 0.03153772
v 0.02783678 0.01329751 0.02810811
v 0.02860818 0.00818119 0.02186990
v 0.03151380 0.00649312 0.01449461
v 0.03029712 0.01089992 0.00582012
v 0.03317774 0.01704693 0.00139253
v 0.03565429 0.02474439 0.00084226
v 0.03706318 0.03192980 0.00431675
v 0.03702691 0.03667782 0.01088502
v 0.03555519 0.03771622 0.01878710
v 0.03304237 0.03476677 0.02590564
v 0.03016175 0.02861977 0.03033323
v 0.02768520 0.02092230 0.03088350
v 0.02627630 0.01373690 0.02740901
v 0.02631258 0.00898888 0.02084075
v 0.02778429 0.00795047 0.01293867
v 0.02474411 0.01251698 0.00490850
v 0.02597189 0.01918116 0.00046234
v 0.02744800 0.02713694 0.00000000
v 0.02877693 0.03425259 0.00364538
v 0.02960257 0.03862145 0.01042169
v 0.02970371 0.03907291 0.01851323
v 0.02905325 0.03548600 0.02575188
v 0.02782547 0.02882182 0.03019805
v 0.02634935 0.02086604 0.03066039
v 0.02502043 0.01375040 0.02701502
v 0.02419479 0.00938153 0.02023871
v 0.02409365 0.00893007 0.01214717
v 0.01925734 0.01367937 0.00503475
v 0.01904069 0.02070887 0.00100656
v 0.01972515 0.02878440 0.00094001
v 0.02112733 0.03574213 0.00485293
v 0.02287151 0.03971775 0.01169687
v 0.02449034 0.03964598 0.01963799
v 0.02555006 0.03554607 0.02654847
v 0.02576672 0.02851657 0.03057666
v 0.02508225 0.02044104 0.03064322
v 0.02368008 0.01348330 0.02673029
v 0.02193590 0.00950769 0.01988636
v 0.02031706 0.00957945 0.01194524
v 0.01395417 0.01450359 0.00603202
v 0.01266200 0.02178262 0.00271043
v 0.01286875 0.02986850 0.00322329
v 0.01451901 0.03659461 0.00743318
v 0.01717061 0.04015869 0.01421208
v 0.02011305 0.03960576 0.02174358
v 0.02255790 0.03508397 0.02800962
v 0.02385007 0.02780493 0.03133122
v 0.02364333 0.01971906 0.03081836
v 0.02199306 0.01299295 0.02660847
v 0.01934147 0.00942886 0.01982957
v 0.01639903 0.00998179 0.01229807
v 0.00893261 0.01507016 0.00775140
v 0.00695754 0.02252364 0.00525502
v 0.00699707 0.03054786 0.00639410
v 0.00904059 0.03699273 0.01086341
v 0.01254055 0.04013136 0.01746540
v 0.01655914 0.03912276 0.02443109
v 0.02001958 0.03423718 0.02989401
v 0.02199465 0.02678370 0.03239039
v 0.02195513 0.01875949 0.03125132
v 0.01991161 0.01231461 0.02678201
v 0.01641165 0.00917597 0.02018002
v 0.01239306 0.01018457 0.01321434
v 0.00427464 0.01541955 0.01005334
v 0.00194749 0.02299763 0.00836685
v 0.00205999 0.03091931 0.01007607
v 0.00458202 0.03706199 0.01472301
v 0.00883778 0.03977975 0.02106252
v 0.01368696 0.03834435 0.02739594
v 0.01783023 0.03314042 0.03202623
v 0.02015739 0.02556234 0.03371272
v 0.02004488 0.01764066 0.03200350
v 0.01752286 0.01149798 0.02735657
v 0.01326710 0.00878023 0.02101706
v 0.00841791 0.01021562 0.01468364
v 0.00004584 0.01555703 0.01279774
v -0.00240487 0.02322065 0.01182305
v -0.00207945 0.03102337 0.01399073
v 0.00093491 0.03687445 0.01871997
v 0.00583051 0.03920610 0.02474356
v 0.01129558 0.03739355 0.03044749
v 0.01586576 0.03192249 0.03430339
v 0.01831647 0.02425887 0.03527809
v 0.01799105 0.01645615 0.03311041
v 0.01497670 0.01060507 0.02838117
v 0.01008110 0.00827342 0.02235759
v 0.00461603 0.01008596 0.01665365
v -0.00372553 0.01547736 0.01584505
v -0.00617030 0.02319434 0.01544694
v -0.00558219 0.03088128 0.01794736
v -0.00211878 0.03647848 0.02267634
v 0.00329190 0.03848618 0.02836675
v 0.00920008 0.03636641 0.03349385
v 0.01402266 0.03068716 0.03668383
v 0.01646743 0.02297019 0.03708195
v 0.01587932 0.01528324 0.03458153
v 0.01241592 0.00968604 0.02985255
v 0.00700524 0.00767833 0.02416214
v 0.00109706 0.00979810 0.01903504
v -0.00706953 0.01519348 0.01907931
v -0.00945623 0.02293867 0.01913213
v -0.00861501 0.03052407 0.02185999
v -0.00477127 0.03591718 0.02653194
v 0.00104507 0.03767291 0.03189616
v 0.00727551 0.03532083 0.03651529
v 0.01225062 0.02949116 0.03915165
v 0.01463733 0.02174597 0.03909882
v 0.01379611 0.01416058 0.03637097
v 0.00995237 0.00876747 0.03169902
v 0.00413604 0.00701173 0.02633480
v -0.00209441 0.00936381 0.02171567
v -0.01001379 0.01471295 0.02239738
v -0.01233864 0.02246755 0.02278257
v -0.01129245 0.02997450 0.02565282
v -0.00715554 0.03522231 0.03023906
v -0.00103640 0.03680485 0.03531239
v 0.00542537 0.03429806 0.03951344
v 0.01049832 0.02837365 0.04171652
v 0.01282318 0.02061906 0.04133134
v 0.01177699 0.01311211 0.03846109
v 0.00764009 0.00786429 0.03387485
v 0.00152094 0.00628175 0.02880152
v -0.00494082 0.00878853 0.02460047
v -0.01261547 0.01406396 0.02572864
v -0.01490171 0.02181437 0.02635432
v -0.01371308 0.02926608 0.02931173
v -0.00936809 0.03442242 0.03380843
v -0.00303097 0.03590175 0.03863954
v 0.00360026 0.03330769 0.04251055
v 0.00874876 0.02733531 0.04438425
v 0.01103500 0.01958490 0.04375857
v 0.00984637 0.01213319 0.04080116
v 0.00550139 0.00697685 0.03630446
v -0.00083574 0.00549751 0.03147336
v -0.00746697 0.00809157 0.02760234
v -0.01494759 0.01328403 0.02903951
v -0.01722419 0.02102084 0.02984328
v -0.01594943 0.02843556 0.03285725
v -0.01146489 0.03354143 0.03727383
v -0.00497220 0.03497033 0.04190960
v 0.00178893 0.03233939 0.04552240
v 0.00700687 0.02635357 0.04714420
v 0.00928347 0.01861676 0.04634043
v 0.00800871 0.01120204 0.04332646
v 0.00352417 0.00609617 0.03890988
v -0.00296852 0.00466727 0.03427411
v -0.00972965 0.00729820 0.03066131
v -0.01705917 0.01240086 0.03229767
v -0.01935695 0.02011596 0.03323813
v -0.01804886 0.02750597 0.03629818
v -0.01348538 0.03259072 0.04065789
v -0.00688929 0.03400776 0.04514908
v -0.00002802 0.03137740 0.04856833
v 0.00525996 0.02540445 0.04999947
v 0.00755775 0.01768935 0.04905902
v 0.00624966 0.01029935 0.04599897
v 0.00168618 0.00521460 0.04163926
v -0.00490990 0.00379755 0.03714807
v -0.01177117 0.00642790 0.03372881
v -0.01900662 0.01144253 0.03549426
v -0.02134895 0.01912937 0.03654933
v -0.02004718 0.02649977 0.03965893
v -0.01545010 0.03157886 0.04398985
v -0.00878949 0.03300568 0.04838163
v -0.00185007 0.03039794 0.05165748
v 0.00350875 0.02445436 0.05293965
v 0.00585110 0.01676753 0.05188458
v 0.00454932 0.00939712 0.04877498
v -0.00004776 0.00431804 0.04444406
v -0.00670836 0.00289121 0.04005229
v -0.01364778 0.00549895 0.03677644
v -0.02082739 0.01043458 0.03860833
v -0.02323057 0.01808679 0.03977261
v -0.02196631 0.02543422 0.04295129
v -0.01737336 0.03050814 0.04729264
v -0.01068241 0.03194899 0.05163340
v -0.00368628 0.02937070 0.05481047
v 0.00174041 0.02346412 0.05597255
v 0.00414359 0.01581191 0.05480827
v 0.00287933 0.00846448 0.05162959
v -0.00171361 0.00339056 0.04728824
v -0.00840456 0.00194970 0.04294748
v -0.01540069 0.00452799 0.03977041
v -0.02256584 0.00940203 0.04163420
v -0.02503477 0.01701380 0.04291972
v -0.02382510 0.02432571 0.04619992
v -0.01926094 0.02937856 0.05059587
v -0.01256527 0.03081843 0.05492968
v -0.00553218 0.02825952 0.05804010
v -0.00004619 0.02238747 0.05909371
v 0.00242275 0.01477572 0.05780819
v 0.00121307 0.00746380 0.05452799
v -0.00335108 0.00241095 0.05013205
v -0.01004675 0.00097108 0.04579824
v -0.01707984 0.00352999 0.04268781
v -0.02426900 0.00835375 0.04458542
v -0.02679852 0.01591956 0.04601621
v -0.02564601 0.02317743 0.04943414
v -0.02112031 0.02818261 0.05392338
v -0.01443406 0.02959396 0.05828105
v -0.00737884 0.02703333 0.06133951
v -0.00184510 0.02118682 0.06227925
v 0.00068442 0.01362101 0.06084847
v -0.00046809 0.00636314 0.05743054
v -0.00499379 0.00135796 0.05294130
v -0.01168003 -0.00005340 0.04858363
v -0.01873525 0.00250723 0.04552517
v -0.02596359 0.00731610 0.04743907
v -0.02853959 0.01482743 0.04906122
v -0.02743812 0.02199850 0.05267365
v -0.02295431 0.02690783 0.05730842
v -0.01628960 0.02823997 0.06172364
v -0.00922979 0.02563797 0.06473625
v -0.00366656 0.01979905 0.06553904
v -0.00109056 0.01228773 0.06391690
v -0.00219203 0.00511666 0.06030447
v -0.00667583 0.00020733 0.05566970
v -0.01334054 -0.00112482 0.05125448
v -0.02040035 0.00147717 0.04824186
v -0.02768351 0.00630515 0.05019315
v -0.03028191 0.01374897 0.05207068
v -0.02921328 0.02078682 0.05594545
v -0.02476398 0.02553291 0.06077923
v -0.01812618 0.02671555 0.06527680
v -0.01107848 0.02401783 0.06823304
v -0.00550931 0.01816262 0.06885584
v -0.00291091 0.01071881 0.06697832
v -0.00397954 0.00368096 0.06310355
v -0.00842884 -0.00106514 0.05826978
v -0.01506663 -0.00224778 0.05377220
v -0.02211433 0.00044993 0.05081595
v -0.02945732 0.00531839 0.05285572
v -0.03205063 0.01267170 0.05506723
v -0.03099025 0.01951586 0.05927676
v -0.02656030 0.02401699 0.06435638
v -0.01994779 0.02496902 0.06894499
v -0.01292452 0.02211685 0.07181310
v -0.00737239 0.01622472 0.07219218
v -0.00477907 0.00887141 0.06998067
v -0.00583946 0.00202725 0.06577114
v -0.01026940 -0.00247388 0.06069153
v -0.01688191 -0.00342592 0.05610291
v -0.02390518 -0.00057375 0.05323480
v -0.03130190 0.00436201 0.05542137
v -0.03386209 0.01158205 0.05806781
v -0.03278323 0.01814704 0.06269642
v -0.02835440 0.02229790 0.06806699
v -0.02176231 0.02292240 0.07274046
v -0.01477329 0.01985323 0.07546460
v -0.00926005 0.01391274 0.07550946
v -0.00669986 0.00669271 0.07286303
v -0.00777872 0.00012772 0.06823441
v -0.01220754 -0.00402315 0.06286385
v -0.01879964 -0.00464766 0.05819037
v -0.02578866 -0.00157848 0.05546624
v -0.03322395 0.00341561 0.05789477
v -0.03573021 0.01043059 0.06108788
v -0.03461126 0.01660458 0.06621788
v -0.03016695 0.02028328 0.07191018
v -0.02358810 0.02048098 0.07663955
v -0.01663754 0.01714471 0.07913874
v -0.01117764 0.01116841 0.07873811
v -0.00867138 0.00415344 0.07554500
v -0.00979032 -0.00202056 0.07041501
v -0.01423464 -0.00569926 0.06472270
v -0.02081347 -0.00589696 0.05999334
v -0.02776405 -0.00256069 0.05749414
v -0.03521550 0.00244519 0.06027401
v -0.03766797 0.00913391 0.06413840
v -0.03650469 0.01476576 0.06984946
v -0.03203736 0.01783168 0.07587692
v -0.02546300 0.01751016 0.08060572
v -0.01854321 0.01388736 0.08276878
v -0.01313213 0.00793400 0.08178652
v -0.01067966 0.00124528 0.07792214
v -0.01184294 -0.00438657 0.07221108
v -0.01631026 -0.00745249 0.06618362
v -0.02288462 -0.00713098 0.06145482
v -0.02980441 -0.00350818 0.05929175
v -0.03725249 0.00135753 0.06255235
v -0.03968920 0.00753742 0.06719546
v -0.03850881 0.01244201 0.07353887
v -0.03402760 0.01475711 0.07988287
v -0.02744632 0.01386239 0.08452758
v -0.02052841 0.00999760 0.08622846
v -0.01512752 0.00419830 0.08452976
v -0.01269081 -0.00198160 0.07988665
v -0.01387120 -0.00688618 0.07354325
v -0.01835240 -0.00920129 0.06719925
v -0.02493368 -0.00830658 0.06255454
v -0.03185159 -0.00444178 0.06085365
f 1 2 3
f 1 3 4
f 4 3 5
f 4 5 6
f 6 5 7
f 6 7 8
f 8 7 9
f 8 9 10
f 10 9 11
f 10 11 12
f 12 11 13
f 12 13 14
f 14 13 15
f 14 15 16
f 16 15 17
f 16 17 18
f 18 17 19
f 18 19 20
f 20 19 21
f 20 21 22
f 22 21 23
f 22 23 24
f 24 23 2
f 24 2 1
f 2 25 26
f 2 26 3
f 3 26 27
f 3 27 5
f 5 27 28
f 5 28 7
f 7 28 29
f 7 29 9
f 9 29 30
f 9 30 11
f 11 30 31
f 11 31 13
f 13 31 32
f 13 32 15
f 15 32 33
f 15 33 17
f 17 33 34
f 17 34 19
f 19 34 35
f 19 35 21
f 21 35 36
f 21 36 23
f 23 36 25
f 23 25 2
f 25 37 38
f 25 38 26
f 26 38 39
f 26 39 27
f 27 39 40
f 27 40 28
f 28 40 41
f 28 41 29
f 29 41 42
f 29 42 30
f 30 42 43
f 30 43 31
f 31 43 44
f 31 44 32
f 32 44 45
f 32 45 33
f 33 45 46
f 33 46 34
f 34 46 47
f 34 47 35
f 35 47 48
f 35 48 36
f 36 48 37
f 36 37 25
f 37 49 50
f 37 50 38
f 38 50 51
f 38 51 39
f 39 51 52
f 39 52 40
f 40 52 53
f 40 53 41
f 41 53 54
f 41 54 42
f 42 54 55
f 42 55 43
f 43 55 56
f 43 56 44
f 44 56 57
f 44 57 45
f 45 57 58
f 45 58 46
f 46 58 59
f 46 59 47
f 47 59 60
f 47 60 48
f 48 60 49
f 48 49 37
f 49 61 62
f 49 62 50
f 50 62 63
f 50 63 51
f 51 63 64
f 51 64 52
f 52 64 65
f 52 65 53
f 53 65 66
f 53 66 54
f 54 66 67
f 54 67 55
f 55 67 68
f 55 68 56
f 56 68 69
f 56 69 57
f 57 69 70
f 57 70 58
f 58 70 71
f 58 71 59
f 59 71 72
f 59 72 60
f 60 72 61
f 60 61 49
f 61 73 74
f 61 74 62
f 62 74 75
f 62 75 63
f 63 75 76
f 63 76 64
f 64 76 77
f 64 77 65
f 65 77 78
f 65 78 66
f 66 78 79
f 66 79 67
f 67 79 80
f 67 80 68
f 68 80 81
f 68 81 69
f 69 81 82
f 69 82 70
f 70 82 83
f 70 83 71
f 71 83 84
f 71 84 72
f 72 84 73
f 72 73 61
f 73 85 86
f 73 86 74
f 74 86 87
f 74 87 75
f 75 87 88
f 75 88 76
f 76 88 89
f 76 89 77
f 77 89 90
f 77 90 78
f 78 90 91
f 78 91 79
f 79 91 92
f 79 92 80
f 80 92 93
f 80 93 81
f 81 93 94
f 81 94 82
f 82 94 95
f 82 95 83
f 83 95 96
f 83 96 84
f 84 96 85
f 84 85 73
f 85 97 98
f 85 98 86
f 86 98 99
f 86 99 87
f 87 99 100
f 87 100 88
f 88 100 101
f 88 101 89
f 89 101 102
f 89 102 90
f 90 102 103
f 90 103 91
f 91 103 104
f 91 104 92
f 92 104 105
f 92 105 93
f 93 105 106
f 93 106 94
f 94 106 107
f 94 107 95
f 95 107 108
f 95 108 96
f 96 108 97
f 96 97 85
f 97 109 110
f 97 110 98
f 98 110 111
f 98 111 99
f 99 111 112
f 99 112 100
f 100 112 113
f 100 113 101
f 101 113 114
f 101 114 102
f 102 114 115
f 102 115 103
f 103 115 116
f 103 116 104
f 104 116 117
f 104 117 105
f 105 117 118
f 105 118 106
f 106 118 119
f 106 119 107
f 107 119 120
f 107 120 108
f 108 120 109
f 108 109 97
f 109 121 122
f 109 122 110
f 110 122 123
f 110 123 111
f 111 123 124
f 111 124 112
f 112 124 125
f 112 125 113
f 113 125 126
f 113 126 114
f 114 126 127
f 114 127 115
f 115 127 128
f 115 128 116
f 116 128 129
f 116 129 117
f 117 129 130
f 117 130 118
f 118 130 131
f 118 131 119
f 119 131 132
f 119 132 120
f 120 132 121
f 120 121 109
f 121 133 134
f 121 134 122
f 122 134 135
f 122 135 123
f 123 135 136
f 123 136 124
f 124 136 137
f 124 137 125
f 125 137 138
f 125 138 126
f 126 138 139
f 126 139 127
f 127 139 140
f 127 140 128
f 128 140 141
f 128 141 129
f 129 141 142
f 129 142 130
f 130 142 143
f 130 143 131
f 131 143 144
f 131 144 132
f 132 144 133
f 132 133 121
f 133 145 146
f 133 146 134
f 134 146 147
f 134 147 135
f 135 147 148
f 135 148 136
f 136 148 149
f 136 149 137
f 137 149 150
f 137 150 138
f 138 150 151
f 138 151 139
f 139 151 152
f 139 152 140
f 140 152 153
f 140 153 141
f 141 153 154
f 141 154 142
f 142 154 155
f 142 155 143
f 143 155 156
f 143 156 144
f 144 156 145
f 144 145 133
f 145 157 158
f 145 158 146
f 146 158 159
f 146 159 147
f 147 159 160
f 147 160 148
f 148 160 161
f 148 161 149
f 149 161 162
f 149 162 150
f 150 162 163
f 150 163 151
f 151 163 164
f 151 164 152
f 152 164 165
f 152 165 153
f 153 165 166
f 153 166 154
f 154 166 167
f 154 167 155
f 155 167 168
f 155 168 156
f 156 168 157
f 156 157 145
f 157 169 170
f 157 170 158
f 158 170 171
f 158 171 159
f 159 171 172
f 159 172 160
f 160 172 173
f 160 173 161
f 161 173 174
f 161 174 162
f 162 174 175
f 162 175 163
f 163 175 176
f 163 176 164
f 164 176 177
f 164 177 165
f 165 177 178
f 165 178 166
f 166 178 179
f 166 179 167
f 167 179 180
f 167 180 168
f 168 180 169
f 168 169 157
f 169 181 182
f 169 182 170
f 170 182 183
f 170 183 171
f 171 183 184
f 171 184 172
f 172 184 185
f 172 185 173
f 173 185 186
f 173 186 174
f 174 186 187
f 174 187 175
f 175 187 188
f 175 188 176
f 176 188 189
f 176 189 177
f 177 189 190
f 177 190 178
f 178 190 191
f 178 191 179
f 179 191 192
f 179 192 180
f 180 192 181
f 180 181 169
f 181 193 194
f 181 194 182
f 182 194 195
f 182 195 183
f 183 195 196
f 183 196 184
f 184 196 197
f 184 197 185
f 185 197 198
f 185 198 186
f 186 198 199
f 186 199 187
f 187 199 200
f 187 200 188
f 188 200 201
f 188 201 189
f 189 201 202
f 189 202 190
f 190 202 203
f 190 203 191
f 191 203 204
f 191 204 192
f 192 204 193
f 192 193 181
f 193 205 206
f 193 206 194
f 194 206 207
f 194 207 195
f 195 207 208
f 195 208 196
f 196 208 209
f 196 209 197
f 197 209 210
f 197 210 198
f 198 210 211
f 198 211 199
f 199 211 212
f 199 212 200
f 200 212 213
f 200 213 201
f 201 213 214
f 201 214 202
f 202 214 215
f 202 215 203
f 203 215 216
f 203 216 204
f 204 216 205
f 204 205 193
f 205 217 218
f 205 218 206
f 206 218 219
f 206 219 207
f 207 219 220
f 207 220 208
f 208 220 221
f 208 221 209
f 209 221 222
f 209 222 210
f 210 222 223
f 210 223 211
f 211 223 224
f 211 224 212
f 212 224 225
f 212 225 213
f 213 225 226
f 213 226 214
f 214 226 227
f 214 227 215
f 215 227 228
f 215 228 216
f 216 228 217
f 216 217 205
f 217 229 230
f 217 230 218
f 218 230 231
f 218 231 219
f 219 231 232
f 219 232 220
f 220 232 233
f 220 233 221
f 221 233 234
f 221 234 222
f 222 234 235
f 222 235 223
f 223 235 236
f 223 236 224
f 224 236 237
f 224 237 225
f 225 237 238
f 225 238 226
f 226 238 239
f 226 239 227
f 227 239 240
f 227 240 228
f 228 240 229
f 228 229 217
f 229 241 242
f 229 242 230
f 230 242 243
f 230 243 231
f 231 243 244
f 231 244 232
f 232 244 245
f 232 245 233
f 233 245 246
f 233 246 234
f 234 246 247
f 234 247 235
f 235 247 248
f 235 248 236
f 236 248 249
f 236 249 237
f 237 249 250
f 237 250 238
f 238 250 251
f 238 251 239
f 239 251 252
f 239 252 240
f 240 252 241
f 240 241 229
f 241 253 254
f 241 254 242
f 242 254 255
f 242 255 243
f 243 255 256
f 243 256 244
f 244 256 257
f 244 257 245
f 245 257 258
f 245 258 246
f 246 258 259
f 246 259 247
f 247 259 260
f 247 260 248
f 248 260 261
f 248 261 249
f 249 261 262
f 249 262 250
f 250 262 263
f 250 263 251
f 251 263 264
f 251 264 252
f 252 264 253
f 252 253 241
f 253 265 266
f 253 266 254
f 254 266 267
f 254 267 255
f 255 267 268
f 255 268 256
f 256 268 269
f 256 269 257
f 257 269 270
f 257 270 258
f 258 270 271
f 258 271 259
f 259 271 272
f 259 272 260
f 260 272 273
f 260 273 261
f 261 273 274
f 261 274 262
f 262 274 275
f 262 275 263
f 263 275 276
f 263 276 264
f 264 276 265
f 264 265 253
f 265 277 278
f 265 278 266
f 266 278 279
f 266 279 267
f 267 279 280
f 267 280 268
f 268 280 281
f 268 281 269
f 269 281 282
f 269 282 270
f 270 282 283
f 270 283 271
f 271 283 284
f 271 284 272
f 272 284 285
f 272 285 273
f 273 285 286
f 273 286 274
f 274 286 287
f 274 287 275
f 275 287 288
f 275 288 276
f 276 288 277
f 276 277 265
f 277 289 290
f 277 290 278
f 278 290 291
f 278 291 279
f 279 291 292
f 279 292 280
f 280 292 293
f 280 293 281
f 281 293 294
f 281 294 282
f 282 294 295
f 282 295 283
f 283 295 296
f 283 296 284
f 284 296 297
f 284 297 285
f 285 297 298
f 285 298 286
f 286 298 299
f 286 299 287
f 287 299 300
f 287 300 288
f 288 300 289
f 288 289 277
f 289 301 302
f 289 302 290
f 290 302 303
f 290 303 291
f 291 303 304
f 291 304 292
f 292 304 305
f 292 305 293
f 293 305 306
f 293 306 294
f 294 306 307
f 294 307 295
f 295 307 308
f 295 308 296
f 296 308 309
f 296 309 297
f 297 309 310
f 297 310 298
f 298 310 311
f 298 311 299
f 299 311 312
f 299 312 300
f 300 312 301
f 300 301 289
f 301 313 314
f 301 314 302
f 302 314 315
f 302 315 303
f 303 315 316
f 303 316 304
f 304 316 317
f 304 317 305
f 305 317 318
f 305 318 306
f 306 318 319
f 306 319 307
f 307 319 320
f 307 320 308
f 308 320 321
f 308 321 309
f 309 321 322
f 309 322 310
f 310 322 323
f 310 323 311
f 311 323 324
f 311 324 312
f 312 324 313
f 312 313 301
f 313 325 326
f 313 326 314
f 314 326 327
f 314 327 315
f 315 327 328
f 315 328 316
f 316 328 329
f 316 329 317
f 317 329 330
f 317 330 318
f 318 330 331
f 318 331 319
f 319 331 332
f 319 332 320
f 320 332 333
f 320 333 321
f 321 333 334
f 321 334 322
f 322 334 335
f 322 335 323
f 323 335 336
f 323 336 324
f 324 336 325
f 324 325 313
f 325 337 338
f 325 338 326
f 326 338 339
f 326 339 327
f 327 339 340
f 327 340 328
f 328 340 341
f 328 341 329
f 329 341 342
f 329 342 330
f 330 342 343
f 330 343 331
f 331 343 344
f 331 344 332
f 332 344 345
f 332 345 333
f 333 345 346
f 333 346 334
f 334 346 347
f 334 347 335
f 335 347 348
f 335 348 336
f 336 348 337
f 336 337 325
f 337 349 350
f 337 350 338
f 338 350 351
f 338 351 339
f 339 351 352
f 339 352 340
f 340 352 353
f 340 353 341
f 341 353 354
f 341 354 342
f 342 354 355
f 342 355 343
f 343 355 356
f 343 356 344
f 344 356 357
f 344 357 345
f 345 357 358
f 345 358 346
f 346 358 359
f 346 359 347
f 347 359 360
f 347 360 348
f 348 360 349
f 348 349 337
f 349 361 362
f 349 362 350
f 350 362 363
f 350 363 351
f 351 363 364
f 351 364 352
f 352 364 365
f 352 365 353
f 353 365 366
f 353 366 354
f 354 366 367
f 354 367 355
f 355 367 368
f 355 368 356
f 356 368 369
f 356 369 357
f 357 369 370
f 357 370 358
f 358 370 371
f 358 371 359
f 359 371 372
f 359 372 360
f 360 372 361
f 360 361 349
f 361 373 374
f 361 374 362
f 362 374 375
f 362 375 363
f 363 375 376
f 363 376 364
f 364 376 377
f 364 377 365
f 365 377 378
f 365 378 366
f 366 378 379
f 366 379 367
f 367 379 380
f 367 380 368
f 368 380 381
f 368 381 369
f 369 381 382
f 369 382 370
f 370 382 383
f 370 383 371
f 371 383 384
f 371 384 372
f 372 384 373
f 372 373 361
f 373 385 386
f 373 386 374
f 374 386 387
f 374 387 375
f 375 387 388
f 375 388 376
f 376 388 389
f 376 389 377
f 377 389 390
f 377 390 378
f 378 390 391
f 378 391 379
f 379 391 392
f 379 392 380
f 380 392 393
f 380 393 381
f 381 393 394
f 381 394 382
f 382 394 395
f 382 395 383
f 383 395 396
f 383 396 384
f 384 396 385
f 384 385 373
f 385 397 398
f 385 398 386
f 386 398 399
f 386 399 387
f 387 399 400
f 387 400 388
f 388 400 401
f 388 401 389
f 389 401 402
f 389 402 390
f 390 402 403
f 390 403 391
f 391 403 404
f 391 404 392
f 392 404 405
f 392 405 393
f 393 405 406
f 393 406 394
f 394 406 407
f 394 407 395
f 395 407 408
f 395 408 396
f 396 408 397
f 396 397 385
f 397 409 410
f 397 410 398
f 398 410 411
f 398 411 399
f 399 411 412
f 399 412 400
f 400 412 413
f 400 413 401
f 401 413 414
f 401 414 402
f 402 414 415
f 402 415 403
f 403 415 416
f 403 416 404
f 404 416 417
f 404 417 405
f 405 417 418
f 405 418 406
f 406 418 419
f 406 419 407
f 407 419 420
f 407 420 408
f 408 420 409
f 408 409 397
f 409 421 422
f 409 422 410
f 410 422 423
f 410 423 411
f 411 423 424
f 411 424 412
f 412 424 425
f 412 425 413
f 413 425 426
f 413 426 414
f 414 426 427
f 414 427 415
f 415 427 428
f 415 428 416
f 416 428 429
f 416 429 417
f 417 429 430
f 417 430 418
f 418 430 431
f 418 431 419
f 419 431 432
f 419 432 420
f 420 432 421
f 420 421 409
f 421 433 434
f 421 434 422
f 422 434 435
f 422 435 423
f 423 435 436
f 423 436 424
f 424 436 437
f 424 437 425
f 425 437 438
f 425 438 426
f 426 438 439
f 426 439 427
f 427 439 440
f 427 440 428
f 428 440 441
f 428 441 429
f 429 441 442
f 429 442 430
f 430 442 443
f 430 443 431
f 431 443 444
f 431 444 432
f 432 444 433
f 432 433 421
f 433 445 446
f 433 446 434
f 434 446 447
f 434 447 435
f 435 447 448
f 435 448 436
f 436 448 449
f 436 449 437
f 437 449 450
f 437 450 438
f 438 450 451
f 438 451 439
f 439 451 452
f 439 452 440
f 440 452 453
f 440 453 441
f 441 453 454
f 441 454 442
f 442 454 455
f 442 455 443
f 443 455 456
f 443 456 444
f 444 456 445
f 444 445 433
f 445 457 458
f 445 458 446
f 446 458 459
f 446 459 447
f 447 459 460
f 447 460 448
f 448 460 461
f 448 461 449
f 449 461 462
f 449 462 450
f 450 462 463
f 450 463 451
f 451 463 464
f 451 464 452
f 452 464 465
f 452 465 453
f 453 465 466
f 453 466 454
f 454 466 467
f 454 467 455
f 455 467 468
f 455 468 456
f 456 468 457
f 456 457 445
f 457 469 470
f 457 470 458
f 458 470 471
f 458 471 459
f 459 471 472
f 459 472 460
f 460 472 473
f 460 473 461
f 461 473 474
f 461 474 462
f 462 474 475
f 462 475 463
f 463 475 476
f 463 476 464
f 464 476 477
f 464 477 465
f 465 477 478
f 465 478 466
f 466 478 479
f 466 479 467
f 467 479 480
f 467 480 468
f 468 480 469
f 468 469 457
f 469 481 482
f 469 482 470
f 470 482 483
f 470 483 471
f 471 483 484
f 471 484 472
f 472 484 485
f 472 485 473
f 473 485 486
f 473 486 474
f 474 486 487
f 474 487 475
f 475 487 488
f 475 488 476
f 476 488 489
f 476 489 477
f 477 489 490
f 477 490 478
f 478 490 491
f 478 491 479
f 479 491 492
f 479 492 480
f 480 492 481
f 480 481 469
f 481 493 494
f 481 494 482
f 482 494 495
f 482 495 483
f 483 495 496
f 483 496 484
f 484 496 497
f 484 497 485
f 485 497 498
f 485 498 486
f 486 498 499
f 486 499 487
f 487 499 500
f 487 500 488
f 488 500 501
f 488 501 489
f 489 501 502
f 489 502 490
f 490 502 503
f 490 503 491
f 491 503 504
f 491 504 492
f 492 504 493
f 492 493 481
f 493 505 506
f 493 506 494
f 494 506 507
f 494 507 495
f 495 507 508
f 495 508 496
f 496 508 509
f 496 509 497
f 497 509 510
f 497 510 498
f 498 510 511
f 498 511 499
f 499 511 512
f 499 512 500
f 500 512 513
f 500 513 501
f 501 513 514
f 501 514 502
f 502 514 515
f 502 515 503
f 503 515 516
f 503 516 504
f 504 516 505
f 504 505 493
f 505 517 518
f 505 518 506
f 506 518 519
f 506 519 507
f 507 519 520
f 507 520 508
f 508 520 521
f 508 521 509
f 509 521 522
f 509 522 510
f 510 522 523
f 510 523 511
f 511 523 524
f 511 524 512
f 512 524 525
f 512 525 513
f 513 525 526
f 513 526 514
f 514 526 527
f 514 527 515
f 515 527 528
f 515 528 516
f 516 528 517
f 516 517 505
f 517 529 530
f 517 530 518
f 518 530 531
f 518 531 519
f 519 531 532
f 519 532 520
f 520 532 533
f 520 533 521
f 521 533 534
f 521 534 522
f 522 534 535
f 522 535 523
f 523 535 536
f 523 536 524
f 524 536 537
f 524 537 525
f 525 537 538
f 525 538 526
f 526 538 539
f 526 539 527
f 527 539 540
f 527 540 528
f 528 540 529
f 528 529 517
f 529 541 542
f 529 542 530
f 530 542 543
f 530 543 531
f 531 543 544
f 531 544 532
f 532 544 545
f 532 545 533
f 533 545 546
f 533 546 534
f 534 546 547
f 534 547 535
f 535 547 548
f 535 548 536
f 536 548 549
f 536 549 537
f 537 549 550
f 537 550 538
f 538 550 551
f 538 551 539
f 539 551 552
f 539 552 540
f 540 552 541
f 540 541 529
f 541 553 554
f 541 554 542
f 542 554 555
f 542 555 543
f 543 555 556
f 543 556 544
f 544 556 557
f 544 557 545
f 545 557 558
f 545 558 546
f 546 558 559
f 546 559 547
f 547 559 560
f 547 560 548
f 548 560 561
f 548 561 549
f 549 561 562
f 549 562 550
f 550 562 563
f 550 563 551
f 551 563 564
f 551 564 552
f 552 564 553
f 552 553 541
f 553 565 566
f 553 566 554
f 554 566 567
f 554 567 555
f 555 567 568
f 555 568 556
f 556 568 569
f 556 569 557
f 557 569 570
f 557 570 558
f 558 570 571
f 558 571 559
f 559 571 572
f 559 572 560
f 560 572 573
f 560 573 561
f 561 573 574
f 561 574 562
f 562 574 575
f 562 575 563
f 563 575 576
f 563 576 564
f 564 576 565
f 564 565 553
f 565 577 578
f 565 578 566
f 566 578 579
f 566 579 567
f 567 579 580
f 567 580 568
f 568 580 581
f 568 581 569
f 569 581 582
f 569 582 570
f 570 582 583
f 570 583 571
f 571 583 584
f 571 584 572
f 572 584 585
f 572 585 573
f 573 585 586
f 573 586 574
f 574 586 587
f 574 587 575
f 575 587 588
f 575 588 576
f 576 588 577
f 576 577 565
f 577 589 590
f 577 590 578
f 578 590 591
f 578 591 579
f 579 591 592
f 579 592 580
f 580 592 593
f 580 593 581
f 581 593 594
f 581 594 582
f 582 594 595
f 582 595 583
f 583 595 596
f 583 596 584
f 584 596 597
f 584 597 585
f 585 597 598
f 585 598 586
f 586 598 599
f 586 599 587
f 587 599 600
f 587 600 588
f 588 600 589
f 588 589 577
f 589 601 602
f 589 602 590
f 590 602 603
f 590 603 591
f 591 603 604
f 591 604 592
f 592 604 605
f 592 605 593
f 593 605 606
f 593 606 594
f 594 606 607
f 594 607 595
f 595 607 608
f 595 608 596
f 596 608 609
f 596 609 597
f 597 609 610
f 597 610 598
f 598 610 611
f 598 611 599
f 599 611 612
f 599 612 600
f 600 612 601
f 600 601 589
f 601 613 614
f 601 614 602
f 602 614 615
f 602 615 603
f 603 615 616
f 603 616 604
f 604 616 617
f 604 617 605
f 605 617 618
f 605 618 606
f 606 618 619
f 606 619 607
f 607 619 620
f 607 620 608
f 608 620 621
f 608 621 609
f 609 621 622
f 609 622 610
f 610 622 623
f 610 623 611
f 611 623 624
f 611 624 612
f 612 624 613
f 612 613 601
f 613 625 626
f 613 626 614
f 614 626 627
f 614 627 615
f 615 627 628
f 615 628 616
f 616 628 629
f 616 629 617
f 617 629 630
f 617 630 618
f 618 630 631
f 618 631 619
f 619 631 632
f 619 632 620
f 620 632 633
f 620 633 621
f 621 633 634
f 621 634 622
f 622 634 635
f 622 635 623
f 623 635 636
f 623 636 624
f 624 636 625
f 624 625 613
f 625 637 638
f 625 638 626
f 626 638 639
f 626 639 627
f 627 639 640
f 627 640 628
f 628 640 641
f 628 641 629
f 629 641 642
f 629 642 630
f 630 642 643
f 630 643 631
f 631 643 644
f 631 644 632
f 632 644 645
f 632 645 633
f 633 645 646
f 633 646 634
f 634 646 647
f 634 647 635
f 635 647 648
f 635 648 636
f 636 648 637
f 636 637 625
f 637 649 650
f 637 650 638
f 638 650 651
f 638 651 639
f 639 651 652
f 639 652 640
f 640 652 653
f 640 653 641
f 641 653 654
f 641 654 642
f 642 654 655
f 642 655 643
f 643 655 656
f 643 656 644
f 644 656 657
f 644 657 645
f 645 657 658
f 645 658 646
f 646 658 659
f 646 659 647
f 647 659 660
f 647 660 648
f 648 660 649
f 648 649 637
f 649 661 662
f 649 662 650
f 650 662 663
f 650 663 651
f 651 663 664
f 651 664 652
f 652 664 665
f 652 665 653
f 653 665 666
f 653 666 654
f 654 666 667
f 654 667 655
f 655 667 668
f 655 668 656
f 656 668 669
f 656 669 657
f 657 669 670
f 657 670 658
f 658 670 671
f 658 671 659
f 659 671 672
f 659 672 660
f 660 672 661
f 660 661 649
f 661 673 674
f 661 674 662
f 662 674 675
f 662 675 663
f 663 675 676
f 663 676 664
f 664 676 677
f 664 677 665
f 665 677 678
f 665 678 666
f 666 678 679
f 666 679 667
f 667 679 680
f 667 680 668
f 668 680 681
f 668 681 669
f 669 681 682
f 669 682 670
f 670 682 683
f 670 683 671
f 671 683 684
f 671 684 672
f 672 684 673
f 672 673 661
f 673 685 686
f 673 686 674
f 674 686 687
f 674 687 675
f 675 687 688
f 675 688 676
f 676 688 689
f 676 689 677
f 677 689 690
f 677 690 678
f 678 690 691
f 678 691 679
f 679 691 692
f 679 692 680
f 680 692 693
f 680 693 681
f 681 693 694
f 681 694 682
f 682 694 695
f 682 695 683
f 683 695 696
f 683 696 684
f 684 696 685
f 684 685 673
f 685 697 698
f 685 698 686
f 686 698 699
f 686 699 687
f 687 699 700
f 687 700 688
f 688 700 701
f 688 701 689
f 689 701 702
f 689 702 690
f 690 702 703
f 690 703 691
f 691 703 704
f 691 704 692
f 692 704 705
f 692 705 693
f 693 705 706
f 693 706 694
f 694 706 707
f 694 707 695
f 695 707 708
f 695 708 696
f 696 708 697
f 696 697 685
f 697 709 710
f 697 710 698
f 698 710 711
f 698 711 699
f 699 711 712
f 699 712 700
f 700 712 713
f 700 713 701
f 701 713 714
f 701 714 702
f 702 714 715
f 702 715 703
f 703 715 716
f 703 716 704
f 704 716 717
f 704 717 705
f 705 717 718
f 705 718 706
f 706 718 719
f 706 719 707
f 707 719 720
f 707 720 708
f 708 720 709
f 708 709 697
f 709 721 722
f 709 722 710
f 710 722 723
f 710 723 711
f 711 723 724
f 711 724 712
f 712 724 725
f 712 725 713
f 713 725 726
f 713 726 714
f 714 726 727
f 714 727 715
f 715 727 728
f 715 728 716
f 716 728 729
f 716 729 717
f 717 729 730
f 717 730 718
f 718 730 731
f 718 731 719
f 719 731 732
f 719 732 720
f 720 732 721
f 720 721 709
f 721 733 734
f 721 734 722
f 722 734 735
f 722 735 723
f 723 735 736
f 723 736 724
f 724 736 737
f 724 737 725
f 725 737 738
f 725 738 726
f 726 738 739
f 726 739 727
f 727 739 740
f 727 740 728
f 728 740 741
f 728 741 729
f 729 741 742
f 729 742 730
f 730 742 743
f 730 743 731
f 731 743 744
f 731 744 732
f 732 744 733
f 732 733 721
f 733 745 746
f 733 746 734
f 734 746 747
f 734 747 735
f 735 747 748
f 735 748 736
f 736 748 749
f 736 749 737
f 737 749 750
f 737 750 738
f 738 750 751
f 738 751 739
f 739 751 752
f 739 752 740
f 740 752 753
f 740 753 741
f 741 753 754
f 741 754 742
f 742 754 755
f 742 755 743
f 743 755 756
f 743 756 744
f 744 756 745
f 744 745 733
f 745 757 758
f 745 758 746
f 746 758 759
f 746 759 747
f 747 759 760
f 747 760 748
f 748 760 761
f 748 761 749
f 749 761 762
f 749 762 750
f 750 762 763
f 750 763 751
f 751 763 764
f 751 764 752
f 752 764 765
f 752 765 753
f 753 765 766
f 753 766 754
f 754 766 767
f 754 767 755
f 755 767 768
f 755 768 756
f 756 768 757
f 756 757 745
f 757 769 770
f 757 770 758
f 758 770 771
f 758 771 759
f 759 771 772
f 759 772 760
f 760 772 773
f 760 773 761
f 761 773 774
f 761 774 762
f 762 774 775
f 762 775 763
f 763 775 776
f 763 776 764
f 764 776 777
f 764 777 765
f 765 777 778
f 765 778 766
f 766 778 779
f 766 779 767
f 767 779 780
f 767 780 768
f 768 780 769
f 768 769 757
f 769 781 782
f 769 782 770
f 770 782 783
f 770 783 771
f 771 783 784
f 771 784 772
f 772 784 785
f 772 785 773
f 773 785 786
f 773 786 774
f 774 786 787
f 774 787 775
f 775 787 788
f 775 788 776
f 776 788 789
f 776 789 777
f 777 789 790
f 777 790 778
f 778 790 791
f 778 791 779
f 779 791 792
f 779 792 780
f 780 792 781
f 780 781 769
f 781 793 794
f 781 794 782
f 782 794 795
f 782 795 783
f 783 795 796
f 783 796 784
f 784 796 797
f 784 797 785
f 785 797 798
f 785 798 786
f 786 798 799
f 786 799 787
f 787 799 800
f 787 800 788
f 788 800 801
f 788 801 789
f 789 801 802
f 789 802 790
f 790 802 803
f 790 803 791
f 791 803 804
f 791 804 792
f 792 804 793
f 792 793 781
f 793 805 806
f 793 806 794
f 794 806 807
f 794 807 795
f 795 807 808
f 795 808 796
f 796 808 809
f 796 809 797
f 797 809 810
f 797 810 798
f 798 810 811
f 798 811 799
f 799 811 812
f 799 812 800
f 800 812 813
f 800 813 801
f 801 813 814
f 801 814 802
f 802 814 815
f 802 815 803
f 803 815 816
f 803 816 804
f 804 816 805
f 804 805 793
f 805 817 818
f 805 818 806
f 806 818 819
f 806 819 807
f 807 819 820
f 807 820 808
f 808 820 821
f 808 821 809
f 809 821 822
f 809 822 810
f 810 822 823
f 810 823 811
f 811 823 824
f 811 824 812
f 812 824 825
f 812 825 813
f 813 825 826
f 813 826 814
f 814 826 827
f 814 827 815
f 815 827 828
f 815 828 816
f 816 828 817
f 816 817 805
f 817 829 830
f 817 830 818
f 818 830 831
f 818 831 819
f 819 831 832
f 819 832 820
f 820 832 833
f 820 833 821
f 821 833 834
f 821 834 822
f 822 834 835
f 822 835 823
f 823 835 836
f 823 836 824
f 824 836 837
f 824 837 825
f 825 837 838
f 825 838 826
f 826 838 839
f 826 839 827
f 827 839 840
f 827 840 828
f 828 840 829
f 828 829 817
f 829 841 842
f 829 842 830
f 830 842 843
f 830 843 831
f 831 843 844
f 831 844 832
f 832 844 845
f 832 845 833
f 833 845 846
f 833 846 834
f 834 846 847
f 834 847 835
f 835 847 848
f 835 848 836
f 836 848 849
f 836 849 837
f 837 849 850
f 837 850 838
f 838 850 851
f 838 851 839
f 839 851 852
f 839 852 840
f 840 852 841
f 840 841 829
f 841 853 854
f 841 854 842
f 842 854 855
f 842 855 843
f 843 855 856
f 843 856 844
f 844 856 857
f 844 857 845
f 845 857 858
f 845 858 846
f 846 858 859
f 846 859 847
f 847 859 860
f 847 860 848
f 848 860 861
f 848 861 849
f 849 861 862
f 849 862 850
f 850 862 863
f 850 863 851
f 851 863 864
f 851 864 852
f 852 864 853
f 852 853 841
f 853 865 866
f 853 866 854
f 854 866 867
f 854 867 855
f 855 867 868
f 855 868 856
f 856 868 869
f 856 869 857
f 857 869 870
f 857 870 858
f 858 870 871
f 858 871 859
f 859 871 872
f 859 872 860
f 860 872 873
f 860 873 861
f 861 873 874
f 861 874 862
f 862 874 875
f 862 875 863
f 863 875 876
f 863 876 864
f 864 876 865
f 864 865 853
f 865 877 878
f 865 878 866
f 866 878 879
f 866 879 867
f 867 879 880
f 867 880 868
f 868 880 881
f 868 881 869
f 869 881 882
f 869 882 870
f 870 882 883
f 870 883 871
f 871 883 884
f 871 884 872
f 872 884 885
f 872 885 873
f 873 885 886
f 873 886 874
f 874 886 887
f 874 887 875
f 875 887 888
f 875 888 876
f 876 888 877
f 876 877 865
f 877 889 890
f 877 890 878
f 878 890 891
f 878 891 879
f 879 891 892
f 879 892 880
f 880 892 893
f 880 893 881
f 881 893 894
f 881 894 882
f 882 894 895
f 882 895 883
f 883 895 896
f 883 896 884
f 884 896 897
f 884 897 885
f 885 897 898
f 885 898 886
f 886 898 899
f 886 899 887
f 887 899 900
f 887 900 888
f 888 900 889
f 888 889 877
f 889 901 902
f 889 902 890
f 890 902 903
f 890 903 891
f 891 903 904
f 891 904 892
f 892 904 905
f 892 905 893
f 893 905 906
f 893 906 894
f 894 906 907
f 894 907 895
f 895 907 908
f 895 908 896
f 896 908 909
f 896 909 897
f 897 909 910
f 897 910 898
f 898 910 911
f 898 911 899
f 899 911 912
f 899 912 900
f 900 912 901
f 900 901 889
f 901 913 914
f 901 914 902
f 902 914 915
f 902 915 903
f 903 915 916
f 903 916 904
f 904 916 917
f 904 917 905
f 905 917 918
f 905 918 906
f 906 918 919
f 906 919 907
f 907 919 920
f 907 920 908
f 908 920 921
f 908 921 909
f 909 921 922
f 909 922 910
f 910 922 923
f 910 923 911
f 911 923 924
f 911 924 912
f 912 924 913
f 912 913 901
f 913 925 926
f 913 926 914
f 914 926 927
f 914 927 915
f 915 927 928
f 915 928 916
f 916 928 929
f 916 929 917
f 917 929 930
f 917 930 918
f 918 930 931
f 918 931 919
f 919 931 932
f 919 932 920
f 920 932 933
f 920 933 921
f 921 933 934
f 921 934 922
f 922 934 935
f 922 935 923
f 923 935 936
f 923 936 924
f 924 936 925
f 924 925 913
f 925 937 938
f 925 938 926
f 926 938 939
f 926 939 927
f 927 939 940
f 927 940 928
f 928 940 941
f 928 941 929
f 929 941 942
f 929 942 930
f 930 942 943
f 930 943 931
f 931 943 944
f 931 944 932
f 932 944 945
f 932 945 933
f 933 945 946
f 933 946 934
f 934 946 947
f 934 947 935
f 935 947 948
f 935 948 936
f 936 948 937
f 936 937 925
f 937 949 950
f 937 950 938
f 938 950 951
f 938 951 939
f 939 951 952
f 939 952 940
f 940 952 953
f 940 953 941
f 941 953 954
f 941 954 942
f 942 954 955
f 942 955 943
f 943 955 956
f 943 956 944
f 944 956 957
f 944 957 945
f 945 957 958
f 945 958 946
f 946 958 959
f 946 959 947
f 947 959 960
f 947 960 948
f 948 960 949
f 948 949 937
f 949 961 962
f 949 962 950
f 950 962 963
f 950 963 951
f 951 963 964
f 951 964 952
f 952 964 965
f 952 965 953
f 953 965 966
f 953 966 954
f 954 966 967
f 954 967 955
f 955 967 968
f 955 968 956
f 956 968 969
f 956 969 957
f 957 969 970
f 957 970 958
f 958 970 971
f 958 971 959
f 959 971 972
f 959 972 960
f 960 972 961
f 960 961 949
f 961 973 974
f 961 974 962
f 962 974 975
f 962 975 963
f 963 975 976
f 963 976 964
f 964 976 977
f 964 977 965
f 965 977 978
f 965 978 966
f 966 978 979
f 966 979 967
f 967 979 980
f 967 980 968
f 968 980 981
f 968 981 969
f 969 981 982
f 969 982 970
f 970 982 983
f 970 983 971
f 971 983 984
f 971 984 972
f 972 984 973
f 972 973 961
f 973 985 986
f 973 986 974
f 974 986 987
f 974 987 975
f 975 987 988
f 975 988 976
f 976 988 989
f 976 989 977
f 977 989 990
f 977 990 978
f 978 990 991
f 978 991 979
f 979 991 992
f 979 992 980
f 980 992 993
f 980 993 981
f 981 993 994
f 981 994 982
f 982 994 995
f 982 995 983
f 983 995 996
f 983 996 984
f 984 996 985
f 984 985 973
f 985 997 998
f 985 998 986
f 986 998 999
f 986 999 987
f 987 999 1000
f 987 1000 988
f 988 1000 1001
f 988 1001 989
f 989 1001 1002
f 989 1002 990
f 990 1002 1003
f 990 1003 991
f 991 1003 1004
f 991 1004 992
f 992 1004 1005
f 992 1005 993
f 993 1005 1006
f 993 1006 994
f 994 1006 1007
f 994 1007 995
f 995 1007 1008
f 995 1008 996
f 996 1008 997
f 996 997 985
f 997 1009 1010
f 997 1010 998
f 998 1010 1011
f 998 1011 999
f 999 1011 1012
f 999 1012 1000
f 1000 1012 1013
f 1000 1013 1001
f 1001 1013 1014
f 1001 1014 1002
f 1002 1014 1015
f 1002 1015 1003
f 1003 1015 1016
f 1003 1016 1004
f 1004 1016 1017
f 1004 1017 1005
f 1005 1017 1018
f 1005 1018 1006
f 1006 1018 1019
f 1006 1019 1007
f 1007 1019 1020
f 1007 1020 1008
f 1008 1020 1009
f 1008 1009 997
f 1009 1021 1022
f 1009 1022 1010
f 1010 1022 1023
f 1010 1023 1011
f 1011 1023 1024
f 1011 1024 1012
f 1012 1024 1025
f 1012 1025 1013
f 1013 1025 1026
f 1013 1026 1014
f 1014 1026 1027
f 1014 1027 1015
f 1015 1027 1028
f 1015 1028 1016
f 1016 1028 1029
f 1016 1029 1017
f 1017 1029 1030
f 1017 1030 1018
f 1018 1030 1031
f 1018 1031 1019
f 1019 1031 1032
f 1019 1032 1020
f 1020 1032 1021
f 1020 1021 1009
f 1021 1033 1034
f 1021 1034 1022
f 1022 1034 1035
f 1022 1035 1023
f 1023 1035 1036
f 1023 1036 1024
f 1024 1036 1037
f 1024 1037 1025
f 1025 1037 1038
f 1025 1038 1026
f 1026 1038 1039
f 1026 1039 1027
f 1027 1039 1040
f 1027 1040 1028
f 1028 1040 1041
f 1028 1041 1029
f 1029 1041 1042
f 1029 1042 1030
f 1030 1042 1043
f 1030 1043 1031
f 1031 1043 1044
f 1031 1044 1032
f 1032 1044 1033
f 1032 1033 1021
f 1033 1045 1046
f 1033 1046 1034
f 1034 1046 1047
f 1034 1047 1035
f 1035 1047 1048
f 1035 1048 1036
f 1036 1048 1049
f 1036 1049 1037
f 1037 1049 1050
f 1037 1050 1038
f 1038 1050 1051
f 1038 1051 1039
f 1039 1051 1052
f 1039 1052 1040
f 1040 1052 1053
f 1040 1053 1041
f 1041 1053 1054
f 1041 1054 1042
f 1042 1054 1055
f 1042 1055 1043
f 1043 1055 1056
f 1043 1056 1044
f 1044 1056 1045
f 1044 1045 1033
f 1045 1057 1058
f 1045 1058 1046
f 1046 1058 1059
f 1046 1059 1047
f 1047 1059 1060
f 1047 1060 1048
f 1048 1060 1061
f 1048 1061 1049
f 1049 1061 1062
f 1049 1062 1050
f 1050 1062 1063
f 1050 1063 1051
f 1051 1063 1064
f 1051 1064 1052
f 1052 1064 1065
f 1052 1065 1053
f 1053 1065 1066
f 1053 1066 1054
f 1054 1066 1067
f 1054 1067 1055
f 1055 1067 1068
f 1055 1068 1056
f 1056 1068 1057
f 1056 1057 1045
f 1057 1069 1070
f 1057 1070 1058
f 1058 1070 1071
f 1058 1071 1059
f 1059 1071 1072
f 1059 1072 1060
f 1060 1072 1073
f 1060 1073 1061
f 1061 1073 1074
f 1061 1074 1062
f 1062 1074 1075
f 1062 1075 1063
f 1063 1075 1076
f 1063 1076 1064
f 1064 1076 1077
f 1064 1077 1065
f 1065 1077 1078
f 1065 1078 1066
f 1066 1078 1079
f 1066 1079 1067
f 1067 1079 1080
f 1067 1080 1068
f 1068 1080 1069
f 1068 1069 1057
f 1069 1081 1082
f 1069 1082 1070
f 1070 1082 1083
f 1070 1083 1071
f 1071 1083 1084
f 1071 1084 1072
f 1072 1084 1085
f 1072 1085 1073
f 1073 1085 1086
f 1073 1086 1074
f 1074 1086 1087
f 1074 1087 1075
f 1075 1087 1088
f 1075 1088 1076
f 1076 1088 1089
f 1076 1089 1077
f 1077 1089 1090
f 1077 1090 1078
f 1078 1090 1091
f 1078 1091 1079
f 1079 1091 1092
f 1079 1092 1080
f 1080 1092 1081
f 1080 1081 1069
f 1081 1093 1094
f 1081 1094 1082
f 1082 1094 1095
f 1082 1095 1083
f 1083 1095 1096
f 1083 1096 1084
f 1084 1096 1097
f 1084 1097 1085
f 1085 1097 1098
f 1085 1098 1086
f 1086 1098 1099
f 1086 1099 1087
f 1087 1099 1100
f 1087 1100 1088
f 1088 1100 1101
f 1088 1101 1089
f 1089 1101 1102
f 1089 1102 1090
f 1090 1102 1103
f 1090 1103 1091
f 1091 1103 1104
f 1091 1104 1092
f 1092 1104 1093
f 1092 1093 1081
f 1093 1105 1106
f 1093 1106 1094
f 1094 1106 1107
f 1094 1107 1095
f 1095 1107 1108
f 1095 1108 1096
f 1096 1108 1109
f 1096 1109 1097
f 1097 1109 1110
f 1097 1110 1098
f 1098 1110 1111
f 1098 1111 1099
f 1099 1111 1112
f 1099 1112 1100
f 1100 1112 1113
f 1100 1113 1101
f 1101 1113 1114
f 1101 1114 1102
f 1102 1114 1115
f 1102 1115 1103
f 1103 1115 1116
f 1103 1116 1104
f 1104 1116 1105
f 1104 1105 1093
f 1105 1117 1118
f 1105 1118 1106
f 1106 1118 1119
f 1106 1119 1107
f 1107 1119 1120
f 1107 1120 1108
f 1108 1120 1121
f 1108 1121 1109
f 1109 1121 1122
f 1109 1122 1110
f 1110 1122 1123
f 1110 1123 1111
f 1111 1123 1124
f 1111 1124 1112
f 1112 1124 1125
f 1112 1125 1113
f 1113 1125 1126
f 1113 1126 1114
f 1114 1126 1127
f 1114 1127 1115
f 1115 1127 1128
f 1115 1128 1116
f 1116 1128 1117
f 1116 1117 1105
f 1117 1129 1130
f 1117 1130 1118
f 1118 1130 1131
f 1118 1131 1119
f 1119 1131 1132
f 1119 1132 1120
f 1120 1132 1133
f 1120 1133 1121
f 1121 1133 1134
f 1121 1134 1122
f 1122 1134 1135
f 1122 1135 1123
f 1123 1135 1136
f 1123 1136 1124
f 1124 1136 1137
f 1124 1137 1125
f 1125 1137 1138
f 1125 1138 1126
f 1126 1138 1139
f 1126 1139 1127
f 1127 1139 1140
f 1127 1140 1128
f 1128 1140 1129
f 1128 1129 1117
f 1129 1141 1142
f 1129 1142 1130
f 1130 1142 1143
f 1130 1143 1131
f 1131 1143 1144
f 1131 1144 1132
f 1132 1144 1145
f 1132 1145 1133
f 1133 1145 1146
f 1133 1146 1134
f 1134 1146 1147
f 1134 1147 1135
f 1135 1147 1148
f 1135 1148 1136
f 1136 1148 1149
f 1136 1149 1137
f 1137 1149 1150
f 1137 1150 1138
f 1138 1150 1151
f 1138 1151 1139
f 1139 1151 1152
f 1139 1152 1140
f 1140 1152 1141
f 1140 1141 1129
f 1141 1153 1154
f 1141 1154 1142
f 1142 1154 1155
f 1142 1155 1143
f 1143 1155 1156
f 1143 1156 1144
f 1144 1156 1157
f 1144 1157 1145
f 1145 1157 1158
f 1145 1158 1146
f 1146 1158 1159
f 1146 1159 1147
f 1147 1159 1160
f 1147 1160 1148
f 1148 1160 1161
f 1148 1161 1149
f 1149 1161 1162
f 1149 1162 1150
f 1150 1162 1163
f 1150 1163 1151
f 1151 1163 1164
f 1151 1164 1152
f 1152 1164 1153
f 1152 1153 1141
f 1153 1165 1166
f 1153 1166 1154
f 1154 1166 1167
f 1154 1167 1155
f 1155 1167 1168
f 1155 1168 1156
f 1156 1168 1169
f 1156 1169 1157
f 1157 1169 1170
f 1157 1170 1158
f 1158 1170 1171
f 1158 1171 1159
f 1159 1171 1172
f 1159 1172 1160
f 1160 1172 1173
f 1160 1173 1161
f 1161 1173 1174
f 1161 1174 1162
f 1162 1174 1175
f 1162 1175 1163
f 1163 1175 1176
f 1163 1176 1164
f 1164 1176 1165
f 1164 1165 1153
f 1165 1177 1178
f 1165 1178 1166
f 1166 1178 1179
f 1166 1179 1167
f 1167 1179 1180
f 1167 1180 1168
f 1168 1180 1181
f 1168 1181 1169
f 1169 1181 1182
f 1169 1182 1170
f 1170 1182 1183
f 1170 1183 1171
f 1171 1183 1184
f 1171 1184 1172
f 1172 1184 1185
f 1172 1185 1173
f 1173 1185 1186
f 1173 1186 1174
f 1174 1186 1187
f 1174 1187 1175
f 1175 1187 1188
f 1175 1188 1176
f 1176 1188 1177
f 1176 1177 1165
f 1177 1189 1190
f 1177 1190 1178
f 1178 1190 1191
f 1178 1191 1179
f 1179 1191 1192
f 1179 1192 1180
f 1180 1192 1193
f 1180 1193 1181
f 1181 1193 1194
f 1181 1194 1182
f 1182 1194 1195
f 1182 1195 1183
f 1183 1195 1196
f 1183 1196 1184
f 1184 1196 1197
f 1184 1197 1185
f 1185 1197 1198
f 1185 1198 1186
f 1186 1198 1199
f 1186 1199 1187
f 1187 1199 1200
f 1187 1200 1188
f 1188 1200 1189
f 1188 1189 1177
f 1189 1201 1202
f 1189 1202 1190
f 1190 1202 1203
f 1190 1203 1191
f 1191 1203 1204
f 1191 1204 1192
f 1192 1204 1205
f 1192 1205 1193
f 1193 1205 1206
f 1193 1206 1194
f 1194 1206 1207
f 1194 1207 1195
f 1195 1207 1208
f 1195 1208 1196
f 1196 1208 1209
f 1196 1209 1197
f 1197 1209 1210
f 1197 1210 1198
f 1198 1210 1211
f 1198 1211 1199
f 1199 1211 1212
f 1199 1212 1200
f 1200 1212 1201
f 1200 1201 1189
f 1201 1213 1214
f 1201 1214 1202
f 1202 1214 1215
f 1202 1215 1203
f 1203 1215 1216
f 1203 1216 1204
f 1204 1216 1217
f 1204 1217 1205
f 1205 1217 1218
f 1205 1218 1206
f 1206 1218 1219
f 1206 1219 1207
f 1207 1219 1220
f 1207 1220 1208
f 1208 1220 1221
f 1208 1221 1209
f 1209 1221 1222
f 1209 1222 1210
f 1210 1222 1223
f 1210 1223 1211
f 1211 1223 1224
f 1211 1224 1212
f 1212 1224 1213
f 1212 1213 1201
f 1213 1225 1226
f 1213 1226 1214
f 1214 1226 1227
f 1214 1227 1215
f 1215 1227 1228
f 1215 1228 1216
f 1216 1228 1229
f 1216 1229 1217
f 1217 1229 1230
f 1217 1230 1218
f 1218 1230 1231
f 1218 1231 1219
f 1219 1231 1232
f 1219 1232 1220
f 1220 1232 1233
f 1220 1233 1221
f 1221 1233 1234
f 1221 1234 1222
f 1222 1234 1235
f 1222 1235 1223
f 1223 1235 1236
f 1223 1236 1224
f 1224 1236 1225
f 1224 1225 1213
f 1225 1237 1238
f 1225 1238 1226
f 1226 1238 1239
f 1226 1239 1227
f 1227 1239 1240
f 1227 1240 1228
f 1228 1240 1241
f 1228 1241 1229
f 1229 1241 1242
f 1229 1242 1230
f 1230 1242 1243
f 1230 1243 1231
f 1231 1243 1244
f 1231 1244 1232
f 1232 1244 1245
f 1232 1245 1233
f 1233 1245 1246
f 1233 1246 1234
f 1234 1246 1247
f 1234 1247 1235
f 1235 1247 1248
f 1235 1248 1236
f 1236 1248 1237
f 1236 1237 1225
f 1237 1249 1250
f 1237 1250 1238
f 1238 1250 1251
f 1238 1251 1239
f 1239 1251 1252
f 1239 1252 1240
f 1240 1252 1253
f 1240 1253 1241
f 1241 1253 1254
f 1241 1254 1242
f 1242 1254 1255
f 1242 1255 1243
f 1243 1255 1256
f 1243 1256 1244
f 1244 1256 1257
f 1244 1257 1245
f 1245 1257 1258
f 1245 1258 1246
f 1246 1258 1259
f 1246 1259 1247
f 1247 1259 1260
f 1247 1260 1248
f 1248 1260 1249
f 1248 1249 1237
f 1249 1261 1262
f 1249 1262 1250
f 1250 1262 1263
f 1250 1263 1251
f 1251 1263 1264
f 1251 1264 1252
f 1252 1264 1265
f 1252 1265 1253
f 1253 1265 1266
f 1253 1266 1254
f 1254 1266 1267
f 1254 1267 1255
f 1255 1267 1268
f 1255 1268 1256
f 1256 1268 1269
f 1256 1269 1257
f 1257 1269 1270
f 1257 1270 1258
f 1258 1270 1271
f 1258 1271 1259
f 1259 1271 1272
f 1259 1272 1260
f 1260 1272 1261
f 1260 1261 1249
f 1261 1273 1274
f 1261 1274 1262
f 1262 1274 1275
f 1262 1275 1263
f 1263 1275 1276
f 1263 1276 1264
f 1264 1276 1277
f 1264 1277 1265
f 1265 1277 1278
f 1265 1278 1266
f 1266 1278 1279
f 1266 1279 1267
f 1267 1279 1280
f 1267 1280 1268
f 1268 1280 1281
f 1268 1281 1269
f 1269 1281 1282
f 1269 1282 1270
f 1270 1282 1283
f 1270 1283 1271
f 1271 1283 1284
f 1271 1284 1272
f 1272 1284 1273
f 1272 1273 1261
f 1273 1285 1286
f 1273 1286 1274
f 1274 1286 1287
f 1274 1287 1275
f 1275 1287 1288
f 1275 1288 1276
f 1276 1288 1289
f 1276 1289 1277
f 1277 1289 1290
f 1277 1290 1278
f 1278 1290 1291
f 1278 1291 1279
f 1279 1291 1292
f 1279 1292 1280
f 1280 1292 1293
f 1280 1293 1281
f 1281 1293 1294
f 1281 1294 1282
f 1282 1294 1295
f 1282 1295 1283
f 1283 1295 1296
f 1283 1296 1284
f 1284 1296 1285
f 1284 1285 1273
f 1285 1297 1298
f 1285 1298 1286
f 1286 1298 1299
f 1286 1299 1287
f 1287 1299 1300
f 1287 1300 1288
f 1288 1300 1301
f 1288 1301 1289
f 1289 1301 1302
f 1289 1302 1290
f 1290 1302 1303
f 1290 1303 1291
f 1291 1303 1304
f 1291 1304 1292
f 1292 1304 1305
f 1292 1305 1293
f 1293 1305 1306
f 1293 1306 1294
f 1294 1306 1307
f 1294 1307 1295
f 1295 1307 1308
f 1295 1308 1296
f 1296 1308 1297
f 1296 1297 1285
f 1297 1309 1310
f 1297 1310 1298
f 1298 1310 1311
f 1298 1311 1299
f 1299 1311 1312
f 1299 1312 1300
f 1300 1312 1313
f 1300 1313 1301
f 1301 1313 1314
f 1301 1314 1302
f 1302 1314 1315
f 1302 1315 1303
f 1303 1315 1316
f 1303 1316 1304
f 1304 1316 1317
f 1304 1317 1305
f 1305 1317 1318
f 1305 1318 1306
f 1306 1318 1319
f 1306 1319 1307
f 1307 1319 1320
f 1307 1320 1308
f 1308 1320 1309
f 1308 1309 1297
f 1309 1321 1322
f 1309 1322 1310
f 1310 1322 1323
f 1310 1323 1311
f 1311 1323 1324
f 1311 1324 1312
f 1312 1324 1325
f 1312 1325 1313
f 1313 1325 1326
f 1313 1326 1314
f 1314 1326 1327
f 1314 1327 1315
f 1315 1327 1328
f 1315 1328 1316
f 1316 1328 1329
f 1316 1329 1317
f 1317 1329 1330
f 1317 1330 1318
f 1318 1330 1331
f 1318 1331 1319
f 1319 1331 1332
f 1319 1332 1320
f 1320 1332 1321
f 1320 1321 1309
f 1321 1333 1334
f 1321 1334 1322
f 1322 1334 1335
f 1322 1335 1323
f 1323 1335 1336
f 1323 1336 1324
f 1324 1336 1337
f 1324 1337 1325
f 1325 1337 1338
f 1325 1338 1326
f 1326 1338 1339
f 1326 1339 1327
f 1327 1339 1340
f 1327 1340 1328
f 1328 1340 1341
f 1328 1341 1329
f 1329 1341 1342
f 1329 1342 1330
f 1330 1342 1343
f 1330 1343 1331
f 1331 1343 1344
f 1331 1344 1332
f 1332 1344 1333
f 1332 1333 1321
f 1333 1345 1346
f 1333 1346 1334
f 1334 1346 1347
f 1334 1347 1335
f 1335 1347 1348
f 1335 1348 1336
f 1336 1348 1349
f 1336 1349 1337
f 1337 1349 1350
f 1337 1350 1338
f 1338 1350 1351
f 1338 1351 1339
f 1339 1351 1352
f 1339 1352 1340
f 1340 1352 1353
f 1340 1353 1341
f 1341 1353 1354
f 1341 1354 1342
f 1342 1354 1355
f 1342 1355 1343
f 1343 1355 1356
f 1343 1356 1344
f 1344 1356 1345
f 1344 1345 1333
f 1345 1357 1358
f 1345 1358 1346
f 1346 1358 1359
f 1346 1359 1347
f 1347 1359 1360
f 1347 1360 1348
f 1348 1360 1361
f 1348 1361 1349
f 1349 1361 1362
f 1349 1362 1350
f 1350 1362 1363
f 1350 1363 1351
f 1351 1363 1364
f 1351 1364 1352
f 1352 1364 1365
f 1352 1365 1353
f 1353 1365 1366
f 1353 1366 1354
f 1354 1366 1367
f 1354 1367 1355
f 1355 1367 1368
f 1355 1368 1356
f 1356 1368 1357
f 1356 1357 1345
f 1357 1369 1370
f 1357 1370 1358
f 1358 1370 1371
f 1358 1371 1359
f 1359 1371 1372
f 1359 1372 1360
f 1360 1372 1373
f 1360 1373 1361
f 1361 1373 1374
f 1361 1374 1362
f 1362 1374 1375
f 1362 1375 1363
f 1363 1375 1376
f 1363 1376 1364
f 1364 1376 1377
f 1364 1377 1365
f 1365 1377 1378
f 1365 1378 1366
f 1366 1378 1379
f 1366 1379 1367
f 1367 1379 1380
f 1367 1380 1368
f 1368 1380 1369
f 1368 1369 1357
f 1369 1381 1382
f 1369 1382 1370
f 1370 1382 1383
f 1370 1383 1371
f 1371 1383 1384
f 1371 1384 1372
f 1372 1384 1385
f 1372 1385 1373
f 1373 1385 1386
f 1373 1386 1374
f 1374 1386 1387
f 1374 1387 1375
f 1375 1387 1388
f 1375 1388 1376
f 1376 1388 1389
f 1376 1389 1377
f 1377 1389 1390
f 1377 1390 1378
f 1378 1390 1391
f 1378 1391 1379
f 1379 1391 1392
f 1379 1392 1380
f 1380 1392 1381
f 1380 1381 1369
f 1381 1393 1394
f 1381 1394 1382
f 1382 1394 1395
f 1382 1395 1383
f 1383 1395 1396
f 1383 1396 1384
f 1384 1396 1397
f 1384 1397 1385
f 1385 1397 1398
f 1385 1398 1386
f 1386 1398 1399
f 1386 1399 1387
f 1387 1399 1400
f 1387 1400 1388
f 1388 1400 1401
f 1388 1401 1389
f 1389 1401 1402
f 1389 1402 1390
f 1390 1402 1403
f 1390 1403 1391
f 1391 1403 1404
f 1391 1404 1392
f 1392 1404 1393
f 1392 1393 1381
f 1393 1405 1406
f 1393 1406 1394
f 1394 1406 1407
f 1394 1407 1395
f 1395 1407 1408
f 1395 1408 1396
f 1396 1408 1409
f 1396 1409 1397
f 1397 1409 1410
f 1397 1410 1398
f 1398 1410 1411
f 1398 1411 1399
f 1399 1411 1412
f 1399 1412 1400
f 1400 1412 1413
f 1400 1413 1401
f 1401 1413 1414
f 1401 1414 1402
f 1402 1414 1415
f 1402 1415 1403
f 1403 1415 1416
f 1403 1416 1404
f 1404 1416 1405
f 1404 1405 1393
f 1405 1417 1418
f 1405 1418 1406
f 1406 1418 1419
f 1406 1419 1407
f 1407 1419 1420
f 1407 1420 1408
f 1408 1420 1421
f 1408 1421 1409
f 1409 1421 1422
f 1409 1422 1410
f 1410 1422 1423
f 1410 1423 1411
f 1411 1423 1424
f 1411 1424 1412
f 1412 1424 1425
f 1412 1425 1413
f 1413 1425 1426
f 1413 1426 1414
f 1414 1426 1427
f 1414 1427 1415
f 1415 1427 1428
f 1415 1428 1416
f 1416 1428 1417
f 1416 1417 1405
f 1417 1429 1430
f 1417 1430 1418
f 1418 1430 1431
f 1418 1431 1419
f 1419 1431 1432
f 1419 1432 1420
f 1420 1432 1433
f 1420 1433 1421
f 1421 1433 1434
f 1421 1434 1422
f 1422 1434 1435
f 1422 1435 1423
f 1423 1435 1436
f 1423 1436 1424
f 1424 1436 1437
f 1424 1437 1425
f 1425 1437 1438
f 1425 1438 1426
f 1426 1438 1439
f 1426 1439 1427
f 1427 1439 1440
f 1427 1440 1428
f 1428 1440 1429
f 1428 1429 1417
f 1429 1 4
f 1429 4 1430
f 1430 4 6
f 1430 6 1431
f 1431 6 8
f 1431 8 1432
f 1432 8 10
f 1432 10 1433
f 1433 10 12
f 1433 12 1434
f 1434 12 14
f 1434 14 1435
f 1435 14 16
f 1435 16 1436
f 1436 16 18
f 1436 18 1437
f 1437 18 20
f 1437 20 1438
f 1438 20 22
f 1438 22 1439
f 1439 22 24
f 1439 24 1440
f 1440 24 1
f 1440 1 1429