# https://github.com/mikedh/trimesh
v -0.00200936 -0.08418010 -0.00095093
v -0.00259787 -0.08546449 0.00113176
v -0.00301109 -0.08303488 0.00211647
v -0.00210912 -0.08204382 0.00046517
v -0.00302885 -0.08329409 -0.00277041
v -0.00348038 -0.08550192 -0.00364096
v -0.00270667 -0.08657263 -0.00169797
v -0.00312715 -0.08759763 0.00010640
v -0.00287723 -0.08112865 -0.00156489
v -0.01847691 -0.08266298 -0.00212061
v -0.02058332 -0.08289966 -0.00132689
v -0.02064615 -0.08198924 -0.00244170
v -0.01921037 -0.08180353 -0.00289664
v -0.01864230 -0.08142790 -0.00388582
v -0.01745023 -0.08167949 -0.00351963
v -0.02648375 -0.08097341 -0.00476078
v -0.02529780 -0.08172324 -0.00304709
v -0.02595348 -0.08038258 -0.00187661
v -0.02765807 -0.07954333 -0.00381022
v -0.02655211 -0.07996876 -0.00650055
v -0.02541104 -0.07994790 -0.00610702
v -0.02529499 -0.08055154 -0.00485282
v -0.02441132 -0.08107594 -0.00359886
v -0.02702345 -0.07826598 -0.00582361
v -0.00161753 -0.07685953 0.00545393
v -0.00114256 -0.07644969 0.00231798
v -0.00093747 -0.07490711 0.00279659
v -0.00186731 -0.07436586 0.00770002
v -0.00249529 -0.07946135 0.00621023
v -0.00112564 -0.07866215 0.00194209
v -0.00392540 -0.07551227 0.00932776
v -0.01218936 -0.07379496 -0.00492642
v -0.00795363 -0.07369135 -0.00535007
v -0.00811536 -0.07608088 -0.00448718
v -0.01172496 -0.07676869 -0.00421026
v -0.01380213 -0.07424544 -0.00113942
v -0.01413509 -0.07182754 -0.00105806
v -0.01344279 -0.07194658 -0.00363782
v -0.01338280 -0.07750671 -0.00138101
v -0.01126053 -0.07019092 -0.00651997
v -0.00699369 -0.06970736 -0.00587229
v -0.01358714 -0.07055485 -0.00434264
v -0.00047877 -0.07526931 0.00896537
v -0.00040029 -0.07571856 0.00277125
v -0.00020623 -0.07771155 0.00224083
v -0.00005623 -0.07819800 0.00685171
v 0.00239412 -0.07793229 0.00925234
v 0.00267794 -0.07440940 0.01133852
v 0.00049865 -0.07053612 0.01308621
v -0.00199898 -0.07064991 0.01200077
v 0.00488632 -0.07523121 0.01275009
v 0.00523310 -0.07811673 0.01137378
v 0.00853585 -0.07677147 0.01040273
v 0.00717599 -0.07216882 0.01283215
v 0.00315059 -0.07105090 0.01442800
v -0.01476081 -0.06997488 -0.00112183
v 0.01011197 -0.07279483 -0.00156028
v 0.00536470 -0.07363877 -0.00364662
v 0.00506887 -0.06892100 -0.00444906
v 0.01143124 -0.06882128 -0.00231460
v 0.00972245 -0.07496000 -0.00108757
v 0.00534202 -0.07552822 -0.00215323
v 0.01189419 -0.07246222 0.00189610
v 0.01221054 -0.07476463 0.00152174
v 0.00001474 -0.07337450 -0.00213357
v 0.00094328 -0.07496178 -0.00213612
v -0.00280760 -0.07078324 -0.00413673
v 0.00003417 -0.06635205 -0.00557379
v 0.01271549 -0.07098116 0.00173796
v 0.01176888 -0.07166790 0.01045446
v 0.01196355 -0.07603315 0.00873092
v 0.01273614 -0.07538684 0.00522179
v 0.01258193 -0.07278264 0.00572672
v 0.01336898 -0.07174723 0.00553502
v 0.01375612 -0.07063109 0.00951721
v 0.01690161 -0.06956352 -0.00281655
v 0.01818914 -0.07371334 -0.00203984
v 0.01482591 -0.07515013 0.00053665
v 0.01389988 -0.07260091 0.00088332
v 0.01315054 -0.06318158 -0.00487789
v 0.01854790 -0.06367225 -0.00402981
v 0.02288643 -0.06822017 -0.00209858
v 0.02317881 -0.07258897 -0.00278566
v 0.02335307 -0.06286309 -0.00214679
v 0.00754790 -0.06225604 -0.00627015
v -0.01163244 -0.06957272 0.00931768
v -0.01109033 -0.07526746 0.00870497
v -0.00764934 -0.07571414 0.01009676
v -0.00866030 -0.06993260 0.01178693
v -0.00970898 -0.06276993 0.01408342
v -0.01272701 -0.06398652 0.01009224
v 0.00191169 -0.06089040 -0.00764780
v -0.01785162 -0.07027435 0.00555425
v -0.01801428 -0.07445405 0.00342637
v -0.01597211 -0.07385194 0.00125100
v -0.01564030 -0.07104790 0.00224461
v -0.02171066 -0.07007243 0.00580512
v -0.02128661 -0.07473420 0.00391623
v -0.01918565 -0.06571525 0.00748105
v -0.02222102 -0.06547755 0.00719271
v -0.01453852 -0.07033862 0.00664749
v -0.01602177 -0.06536735 0.00849771
v -0.01426168 -0.07124988 0.00280723
v -0.01329158 -0.07485216 0.00623610
v -0.01371170 -0.07427209 0.00286865
v -0.01543640 -0.07000005 -0.00379759
v -0.01560252 -0.07256691 -0.00172264
v -0.01830029 -0.07064106 -0.00688054
v -0.01687369 -0.06594572 -0.00618630
v -0.01184307 -0.06602505 -0.00667522
v -0.01579294 -0.06167845 -0.00796082
v -0.01095600 -0.06012690 -0.00898982
v -0.00547728 -0.06509359 -0.00630323
v -0.00431322 -0.05989844 -0.00871464
v -0.00236865 -0.06747685 0.01327790
v -0.00497202 -0.06601880 0.01303062
v -0.00502255 -0.07047543 0.01165810
v -0.00037939 -0.06597735 0.01446383
v -0.00295998 -0.06401456 0.01417510
v 0.00131428 -0.06527287 0.01681878
v 0.00667221 -0.06628173 0.01521981
v 0.00673742 -0.06038662 0.01603012
v 0.00200081 -0.05911055 0.01684291
v -0.00430292 -0.06238677 0.01623908
v 0.01755253 -0.06369841 0.01416147
v 0.01473198 -0.06793319 0.01284222
v 0.01690355 -0.07126981 0.01180791
v 0.02012116 -0.06959089 0.01193638
v 0.01739046 -0.05626151 0.01517254
v 0.01288475 -0.05509132 0.01576299
v 0.01154886 -0.06158952 0.01521220
v 0.01108182 -0.06665324 0.01342842
v -0.01742703 -0.06230889 0.00909534
v -0.01982259 -0.06191662 0.00830709
v -0.01629374 -0.06025613 0.00989634
v -0.01916217 -0.05939091 0.00908647
v -0.02463487 -0.05908470 -0.00384234
v -0.02286383 -0.05663174 -0.00445190
v -0.01949076 -0.05846058 -0.00713072
v -0.02447169 -0.06227667 -0.00451392
v -0.00380218 -0.05793022 0.01587238
v -0.00941144 -0.05634981 0.01446060
v -0.01540437 -0.05382236 0.01248385
v -0.01613904 -0.05827273 0.01238306
v -0.02087493 -0.05744861 0.01044159
v -0.02246564 -0.06143474 0.00893040
v -0.02295971 -0.05392657 -0.00415940
v -0.02207103 -0.05184952 -0.00601366
v -0.02424331 -0.05610247 0.00848675
v -0.02462742 -0.06041853 0.00742806
v -0.02037446 -0.05218349 0.01017365
v -0.02372315 -0.05135804 0.00857331
v -0.03112055 -0.05544949 0.00155622
v -0.03028767 -0.05610514 0.00164525
v -0.03107423 -0.05612397 0.00328189
v -0.03146637 -0.05537325 0.00246017
v -0.03137351 -0.05360610 0.00291260
v -0.03102700 -0.05363299 0.00173862
v -0.02996787 -0.05392692 0.00150035
v -0.03090804 -0.05384685 0.00412776
v 0.00449922 -0.05120379 0.01798432
v -0.00307822 -0.05286699 0.01701175
v 0.00916328 -0.05339183 0.01710228
v 0.00288626 -0.04638892 0.01803738
v -0.00302165 -0.04888780 0.01731949
v -0.02493019 -0.05275187 -0.00191599
v -0.02439758 -0.04909324 -0.00274441
v 0.02318339 -0.05119622 -0.00159146
v 0.02330517 -0.05723600 -0.00184216
v 0.01921430 -0.05789477 -0.00387378
v 0.01912016 -0.05291674 -0.00407095
v 0.02432404 -0.05155974 0.00235754
v 0.02467411 -0.05655349 0.00215123
v 0.01883044 -0.04963389 -0.00642816
v 0.02253996 -0.04836503 -0.00431059
v 0.02436500 -0.04428991 -0.00031720
v 0.02507408 -0.04621351 0.00132227
v 0.02523089 -0.04809916 0.00309276
v -0.00079429 -0.04902417 -0.00726932
v 0.00301722 -0.05079946 -0.00601391
v 0.00241039 -0.05514400 -0.00736366
v -0.00405583 -0.05255314 -0.00709542
v -0.00092108 -0.04371960 -0.01021097
v 0.00390279 -0.04807960 -0.00826266
v -0.00620351 -0.04420193 -0.01016353
v 0.02093854 -0.04817857 -0.00744154
v 0.02182738 -0.04813793 -0.00783727
v 0.02396850 -0.04774304 -0.00491429
v 0.01804946 -0.04691155 -0.00994292
v 0.01997815 -0.04586658 -0.01039806
v 0.00505838 -0.04601564 -0.01040166
v 0.00309112 -0.04179252 -0.01205813
v 0.00871043 -0.04686917 -0.01066071
v 0.00885586 -0.04964378 -0.00725506
v 0.00751206 -0.04174902 -0.01305722
v 0.02592326 -0.04330509 0.00512578
v 0.02471640 -0.04666001 0.00649758
v 0.02377908 -0.05099780 0.00722563
v -0.03050915 -0.04410906 0.00517345
v -0.03052143 -0.04383734 0.00396537
v -0.03081856 -0.04674866 0.00311506
v -0.03089917 -0.04690396 0.00443044
v -0.02994726 -0.04697900 0.00522073
v -0.02956619 -0.04367504 0.00575786
v -0.02956565 -0.04333107 0.00324211
v -0.02513184 -0.04446598 0.00415049
v -0.02570736 -0.04438081 0.00451628
v -0.02573674 -0.04712331 0.00462616
v -0.02439295 -0.04634963 0.00527444
v -0.02499961 -0.04370736 0.00146617
v -0.02579712 -0.04496555 0.00345431
v -0.02425802 -0.04258476 0.00480541
v -0.02540355 -0.04825569 0.00099221
v -0.02606365 -0.04813964 0.00293158
v -0.02373566 -0.03774350 0.00463286
v -0.02450291 -0.03795428 0.00041354
v -0.02973893 -0.04695636 0.00250023
v 0.00832497 -0.04624568 0.01808952
v 0.00833383 -0.04151563 0.01758047
v 0.01201534 -0.04587378 0.01675168
v 0.01283677 -0.03931246 0.01616239
v 0.01676098 -0.03856675 0.01273854
v 0.01485298 -0.04710285 0.01459931
v 0.01822932 -0.04877077 0.01453270
v 0.02032358 -0.04220445 0.01237091
v 0.02301478 -0.03798498 0.00928058
v 0.02061928 -0.03423000 0.00966826
v 0.01545856 -0.03199681 0.01322334
v 0.01196384 -0.03380865 0.01673580
v 0.03042551 -0.03680516 -0.00383713
v 0.03344449 -0.04123464 -0.00928876
v 0.03290928 -0.03896313 -0.01191199
v 0.03045384 -0.03361920 -0.00828364
v 0.02663313 -0.02930620 -0.00575921
v 0.02668471 -0.03186978 -0.00116067
v 0.02795265 -0.03709104 0.00162804
v 0.02761181 -0.04021958 0.00014588
v 0.02997011 -0.04152736 -0.00355543
v 0.02518741 -0.03447168 0.00261320
v -0.02398289 -0.02939341 0.00336552
v -0.02432576 -0.02783136 0.00233686
v -0.02326383 -0.02925032 0.00008880
v -0.02323439 -0.03223854 0.00124642
v -0.02303784 -0.02818727 0.00641039
v -0.02368021 -0.02618978 0.00408271
v -0.02303236 -0.03243597 0.00541205
v -0.02274910 -0.02814853 -0.00319147
v -0.02291913 -0.03327977 -0.00480297
v -0.01936864 -0.02800744 -0.00872318
v -0.01894970 -0.03448476 -0.00929068
v -0.02204227 -0.02443338 -0.00316824
v -0.01939138 -0.02303179 -0.00755655
v -0.02292868 -0.02528108 0.00244329
v -0.02199611 -0.02368053 0.00272266
v -0.02372932 -0.02334002 0.00163439
v -0.02426439 -0.02585164 0.00071282
v -0.02188757 -0.02204330 0.00353386
v -0.02316708 -0.02419054 0.00485052
v -0.02295859 -0.02259152 0.00544923
v -0.02434015 -0.02115953 0.00541358
v -0.02272499 -0.02147855 0.00240664
v -0.02581186 -0.01775120 0.00657364
v -0.02561390 -0.01701703 0.00153465
v -0.02404480 -0.01962701 0.00106008
v -0.02343019 -0.02112900 0.00048855
v 0.00860551 -0.01993159 -0.01158209
v 0.00635500 -0.02713434 -0.01451085
v 0.00085378 -0.02603095 -0.01398639
v 0.00144695 -0.01922747 -0.01285221
v 0.00094232 -0.01537803 -0.01125890
v 0.00729287 -0.01484947 -0.00895224
v 0.01166575 -0.01443256 -0.00466320
v 0.01337205 -0.01768906 -0.00586164
v 0.01107220 -0.01772895 0.01702720
v 0.01189361 -0.02009111 0.01615313
v 0.01338912 -0.01724242 0.01364175
v 0.01121734 -0.01517730 0.01502234
v 0.00937490 -0.01878047 0.01919774
v 0.01005188 -0.02250240 0.01843533
v 0.00826778 -0.01379517 0.01786519
v -0.00145551 -0.01417541 -0.01236125
v -0.00608895 -0.01577181 -0.01089071
v -0.00695271 -0.01502459 -0.01224237
v -0.00332018 -0.01360824 -0.01345113
v -0.00120699 -0.01190923 -0.01447969
v 0.00012923 -0.01245506 -0.01408764
v -0.00002101 -0.01198905 -0.01088702
v 0.00259536 -0.01208299 -0.00999570
v -0.00528057 -0.01731117 -0.01116201
v 0.00040944 -0.01124085 -0.01253725
v -0.00108736 -0.01261672 -0.00953039
v 0.00239860 -0.01359255 -0.00795920
v 0.00193223 -0.01046785 -0.00692777
v -0.00059595 -0.00992607 -0.00818159
v -0.00273195 -0.01059587 -0.01113631
v -0.00481744 -0.01197270 -0.01049009
v -0.00397440 -0.01402189 -0.01039650
v -0.00206483 -0.00873458 -0.00934518
v 0.00429588 -0.01232608 0.02112688
v 0.00311238 -0.01500665 0.02136977
v 0.00468113 -0.01755578 0.02089590
v 0.00562245 -0.02140785 0.01995220
v 0.01270521 -0.01277472 0.01290084
v 0.01127646 -0.01043538 0.01460394
v 0.00839961 -0.00989618 0.01773562
v 0.00460318 -0.01024196 0.01974473
v 0.00002646 -0.01203444 0.02135253
v -0.00004712 -0.01547027 0.02134096
v 0.00741158 -0.01268653 0.01479356
v 0.00707573 -0.01499451 0.01677812
v 0.00540759 -0.01326524 0.01777268
v 0.00473219 -0.01137692 0.01721680
v 0.00742070 -0.00972687 0.01549877
v 0.00914998 -0.00946576 0.01321533
v 0.00998925 -0.01229363 0.01199516
v 0.00413948 -0.00924790 0.01713153
v 0.00490744 -0.01645961 0.01837737
v 0.00293542 -0.01363369 0.01884597
v 0.00151773 -0.01095438 0.01849182
v 0.01062439 -0.00800992 0.01553206
v -0.00115281 -0.00593601 -0.00739379
v -0.00393749 -0.00642004 -0.00777739
v -0.00054433 -0.01041559 -0.01448613
v 0.00067404 -0.01015353 -0.01459142
v -0.00235720 -0.01013888 -0.01366137
v -0.00152094 -0.00883998 -0.01355456
v -0.00083725 -0.00814298 -0.01331034
v 0.00035277 -0.01012203 -0.01316984
v -0.00060098 -0.00838822 -0.01228643
v -0.00003474 -0.00872059 -0.01144921
v -0.00590701 -0.00952995 -0.01013930
v -0.00502249 -0.00768942 -0.01024119
v -0.00807982 -0.00918294 -0.00954169
v -0.00750017 -0.01248781 -0.00991347
v -0.00802625 -0.00611650 -0.00874520
v -0.00580629 -0.00900701 -0.01257716
v -0.00441926 -0.01165301 -0.01310169
v -0.00784429 -0.01266885 -0.01227942
v -0.00877563 -0.00853825 -0.01179903
v -0.00887683 -0.00517539 -0.01128934
v -0.00488767 -0.00727378 -0.01256630
v 0.01192959 -0.00705296 0.00786473
v 0.01302260 -0.01050933 0.00681371
v 0.01242013 -0.00852682 0.00233172
v 0.01082844 -0.00547696 0.00362356
v 0.01147215 -0.00881951 0.01161736
v 0.01224926 -0.01203658 0.01017574
v 0.01097693 -0.00432935 0.00857740
v 0.01117826 -0.00606408 0.01253728
v 0.00950288 -0.00330242 0.00434454
v 0.00506585 -0.00768851 -0.00592874
v 0.00219369 -0.00878341 -0.00912871
v 0.00080346 -0.00537013 -0.00895221
v 0.00281815 -0.00503182 -0.00743646
v 0.00655056 -0.01155670 -0.00749170
v 0.00903462 -0.00789425 -0.00193419
v 0.01096729 -0.01120149 -0.00397333
v 0.00247945 -0.00284367 -0.00648819
v 0.00468930 -0.00436302 -0.00367251
v 0.00761388 -0.00498546 -0.00031202
v -0.00065872 -0.00260986 -0.00811410
v -0.00200175 -0.00444484 -0.00499417
v -0.00473628 -0.00437555 -0.00473207
v -0.00790523 -0.00331171 -0.00473225
v -0.00766889 -0.00513276 -0.00617142
v -0.01107931 -0.00367327 -0.00548881
v -0.01398975 -0.00529935 -0.00570240
v -0.01407913 -0.00663460 -0.00534837
v -0.01085522 -0.00569234 -0.00536673
v -0.00920686 -0.00129227 -0.00527502
v -0.01126384 -0.00134897 -0.00499417
v -0.01056812 -0.00092860 -0.00688468
v -0.01087786 -0.00267864 -0.00741737
v -0.00746978 -0.00272986 -0.00951599
v -0.00603993 -0.00396857 -0.00890872
v -0.00322553 -0.00597477 -0.01069635
v -0.00346258 -0.00517037 -0.01177589
v -0.00420163 -0.00582045 -0.01248457
v -0.00857876 -0.00326537 -0.01088207
v -0.00830279 -0.00082110 -0.00807983
v -0.00690991 -0.00166257 -0.00755894
v -0.00461445 -0.00284194 -0.00530793
v -0.00630297 -0.00196138 -0.00558821
v -0.00721575 -0.00045821 -0.00604903
v -0.00429808 -0.00247089 -0.00660422
v -0.00602734 -0.00263463 -0.00685406
v -0.00815885 -0.00000000 -0.00685348
v -0.00952596 -0.00037837 -0.00624200
v -0.00349353 -0.00347743 -0.00806749
v -0.00517080 -0.00428496 -0.00815692
v -0.00127558 -0.00541766 -0.00986710
v -0.00260314 -0.00619506 -0.00982769
v 0.00006178 -0.00907165 -0.01010608
v -0.00160801 -0.00201393 -0.00628452
v -0.00208548 -0.00293500 -0.00490185
v 0.00054840 -0.00294772 -0.00358432
v 0.00137384 -0.00209239 -0.00483521
v 0.00289465 -0.00319978 -0.00123816
v 0.00384460 -0.00283014 -0.00230730
v 0.00545654 -0.00311004 0.00161255
v 0.00659737 -0.00314124 0.00069472
v 0.00805553 -0.00286825 0.00495617
v 0.00530189 -0.00478963 0.00160211
v 0.00753333 -0.00420519 0.00498499
v 0.00843354 -0.00402529 0.00887227
v 0.00953217 -0.00305398 0.00896822
v 0.00860850 -0.00455274 0.01252934
v 0.01007937 -0.00425521 0.01290409
v 0.00859583 -0.00602472 0.01508019
v 0.00981437 -0.00607869 0.01589133
v 0.00711260 -0.00708955 0.01696780
v 0.00802727 -0.00766834 0.01800857
v 0.00409082 -0.00701919 0.01842884
v 0.00450188 -0.00825794 0.01944458
v 0.00040619 -0.00760498 0.01920535
v 0.00038185 -0.00833302 0.02018627
v 0.00028218 -0.00990116 0.02078391
v -0.00357298 -0.00864231 0.02001095
v -0.00373521 -0.01007307 0.02054020
v -0.00391087 -0.01233251 0.02107704
v -0.00778652 -0.01037122 0.02012124
v -0.00795998 -0.01279275 0.02053924
v -0.00811517 -0.01698733 0.02071705
v -0.00395284 -0.01629165 0.02121640
v -0.00815329 -0.02150837 0.02033222
v -0.00377739 -0.02077819 0.02084781
v 0.00054682 -0.01949219 0.02093619
v -0.00367970 -0.02421744 0.01917251
v 0.00081034 -0.02302440 0.01951711
v -0.00352191 -0.02798266 0.01764376
v 0.00073919 -0.02658526 0.01804661
v 0.00559427 -0.02476847 0.01845331
v 0.00077664 -0.03113150 0.01823356
v 0.00548891 -0.02815343 0.01783684
v 0.01008301 -0.02551580 0.01650379
v 0.00622005 -0.03193772 0.01871185
v 0.01082884 -0.02902063 0.01684343
v 0.01437192 -0.02705920 0.01387044
v 0.01346909 -0.02320289 0.01525973
v 0.01692959 -0.02442540 0.01113935
v 0.01500862 -0.02037493 0.01238005
v 0.01869383 -0.02275154 0.00986131
v 0.01659490 -0.01871120 0.01101292
v 0.01447944 -0.01560715 0.01172631
v 0.01588161 -0.01856415 0.00894783
v 0.01395925 -0.01540367 0.00938819
v 0.01591421 -0.01730134 0.00543316
v 0.01440664 -0.01412831 0.00594645
v 0.01417386 -0.01542934 0.00052917
v 0.01429260 -0.01199619 0.00075908
v 0.01783310 -0.02046626 0.00459579
v 0.01601434 -0.01854247 -0.00026246
v 0.02044189 -0.02471173 0.00273152
v 0.01937353 -0.02181616 -0.00196622
v 0.01690972 -0.02097260 -0.00742369
v 0.02289866 -0.02569951 -0.00394591
v 0.02085122 -0.02485254 -0.00903885
v 0.01826086 -0.02638030 -0.01359965
v 0.01377038 -0.02340026 -0.01232848
v 0.01597908 -0.03099429 -0.01574608
v 0.01144360 -0.02907510 -0.01510389
v 0.01550745 -0.03682324 -0.01586301
v 0.01121591 -0.03593511 -0.01549290
v 0.00625303 -0.03492740 -0.01474765
v 0.00126887 -0.03445504 -0.01406182
v 0.01215509 -0.04214590 -0.01395300
v 0.01611363 -0.04229188 -0.01380261
v 0.01336689 -0.04681595 -0.01053463
v 0.01399249 -0.04994169 -0.00708084
v 0.01403902 -0.05294700 -0.00500968
v 0.00846919 -0.05222642 -0.00525958
v 0.01398293 -0.05752959 -0.00552385
v 0.00818140 -0.05652463 -0.00663258
v 0.01854152 -0.03757577 -0.01562315
v 0.01865849 -0.04226515 -0.01346994
v 0.02139395 -0.03940883 -0.01687934
v 0.02080319 -0.04350160 -0.01452612
v 0.02168761 -0.04694884 -0.01166647
v 0.02339133 -0.04584745 -0.01661461
v 0.02384903 -0.04901450 -0.01389560
v 0.02528108 -0.05066745 -0.01153138
v 0.02322505 -0.04906814 -0.00914669
v 0.02746261 -0.04979651 -0.00985684
v 0.02543975 -0.04815585 -0.00688138
v 0.02990957 -0.04747363 -0.00856832
v 0.02784790 -0.04551522 -0.00447448
v 0.02585628 -0.04433655 -0.00196705
v 0.02668046 -0.04115361 0.00303169
v 0.02638928 -0.03865988 0.00515915
v 0.02490055 -0.04088650 0.00798428
v 0.02270001 -0.04470526 0.01021091
v 0.02371125 -0.03650750 0.00588389
v 0.02229672 -0.03264663 0.00730877
v 0.02304127 -0.03127603 0.00439306
v 0.02026001 -0.02702563 0.00608250
v 0.02072035 -0.02771023 0.00861165
v 0.02360066 -0.02854859 0.00071532
v 0.01874786 -0.02927888 0.01026300
v 0.01781204 -0.02232424 0.00777526
v 0.02146041 -0.04996396 0.01190995
v 0.02205164 -0.05606300 0.01273399
v 0.02475846 -0.05609571 0.00774553
v 0.02345004 -0.06256104 0.01208056
v 0.02573120 -0.06186333 0.00706191
v 0.02570123 -0.06191777 0.00156775
v 0.02631645 -0.06742748 0.00526561
v 0.02650539 -0.06728427 0.00044703
v 0.02708935 -0.07245488 0.00405836
v 0.02669418 -0.07212914 -0.00029436
v 0.02821033 -0.07659150 0.00313790
v 0.02754174 -0.07589964 -0.00121745
v 0.02364276 -0.07590107 -0.00357199
v 0.02779410 -0.07862828 -0.00209003
v 0.02393567 -0.07837245 -0.00414898
v 0.01939748 -0.07907949 -0.00358248
v 0.01875208 -0.07677237 -0.00296928
v 0.01663501 -0.08047375 -0.00070990
v 0.01573852 -0.07813966 -0.00012237
v 0.01660786 -0.08134613 0.00295101
v 0.01615896 -0.07873580 0.00358838
v 0.01531459 -0.07564034 0.00444392
v 0.01777806 -0.07929168 0.00701532
v 0.01662956 -0.07590745 0.00812083
v 0.01517323 -0.07264380 0.00914692
v 0.01439477 -0.07310041 0.00511840
v 0.01868621 -0.07563204 0.01050180
v 0.02023124 -0.07951876 0.00941863
v 0.02347772 -0.07887706 0.00961582
v 0.02187330 -0.07459643 0.01059410
v 0.02653814 -0.07767715 0.00705136
v 0.02518914 -0.07338521 0.00801911
v 0.02404635 -0.06831266 0.00944698
v 0.02424876 -0.08174095 0.00843833
v 0.02720638 -0.08072371 0.00600651
v 0.02881200 -0.07958782 0.00213773
v 0.02731560 -0.08287702 0.00507317
v 0.02848685 -0.08167385 0.00131516
v 0.02722794 -0.08046567 -0.00220085
v 0.02717695 -0.08181614 0.00115652
v 0.02629171 -0.08073287 -0.00149655
v 0.02381448 -0.08032744 -0.00284543
v 0.02395430 -0.08002966 -0.00391585
v 0.02068314 -0.08103947 -0.00261919
v 0.02004159 -0.08072476 -0.00361346
v 0.01853096 -0.08231398 -0.00074757
v 0.01741368 -0.08206054 -0.00111113
v 0.01818549 -0.08364128 0.00203988
v 0.01689405 -0.08337868 0.00239888
v 0.01954030 -0.08416045 0.00478413
v 0.01865021 -0.08382749 0.00570220
v 0.01832140 -0.08187606 0.00627546
v 0.02141638 -0.08398812 0.00760338
v 0.02101972 -0.08219868 0.00851419
v 0.02452890 -0.08359100 0.00735230
v 0.02179147 -0.08414283 0.00625669
v 0.02419429 -0.08371633 0.00601522
v 0.02629920 -0.08299297 0.00407133
v 0.02387931 -0.08275986 0.00546565
v 0.02572770 -0.08190198 0.00388721
v 0.02662240 -0.08084308 0.00136028
v 0.02560407 -0.08023472 0.00438453
v 0.02650626 -0.07919896 0.00167416
v 0.02582819 -0.07851927 -0.00073028
v 0.02582692 -0.08004074 -0.00092933
v 0.02361630 -0.07844616 -0.00174467
v 0.02371580 -0.07979328 -0.00205551
v 0.02076032 -0.07915808 -0.00146960
v 0.02094329 -0.08045052 -0.00181204
v 0.01888331 -0.08042078 0.00016659
v 0.01910304 -0.08164848 -0.00021408
v 0.01882138 -0.08125980 0.00255930
v 0.01891338 -0.08269164 0.00214922
v 0.02015507 -0.08165721 0.00483751
v 0.02015026 -0.08319244 0.00437105
v 0.02184827 -0.08176208 0.00625076
v 0.02197446 -0.08321682 0.00557632
v 0.02372094 -0.08121355 0.00600441
v 0.02149128 -0.07947335 0.00719587
v 0.02336426 -0.07880507 0.00688200
v 0.02516726 -0.07773152 0.00503967
v 0.02606436 -0.07675043 0.00214940
v 0.02278890 -0.07645635 0.00748882
v 0.02468128 -0.07537888 0.00554616
v 0.02544999 -0.07454950 0.00258729
v 0.02477712 -0.07427154 0.00048010
v 0.02552704 -0.07625401 -0.00027534
v 0.01121785 -0.01131704 0.00109071
v 0.01118594 -0.01169521 0.00565855
v 0.01007049 -0.00860233 0.00714028
v 0.00972373 -0.00853598 0.00279826
v 0.00751154 -0.00979715 -0.00132995
v 0.00886998 -0.01238948 -0.00312093
v 0.00471123 -0.01065027 -0.00468869
v 0.00564521 -0.01346535 -0.00616561
v 0.00831633 -0.00594924 0.00424949
v 0.00626350 -0.00683822 0.00047350
v 0.00389794 -0.00711970 -0.00279563
v 0.00167458 -0.00623924 -0.00565868
v 0.00299697 -0.00492217 -0.00145317
v 0.00078939 -0.00440858 -0.00401077
v 0.00901439 -0.00580822 0.00829489
v 0.00956664 -0.00909871 0.01055452
v 0.00889526 -0.00633416 0.01166748
v 0.00824103 -0.00712318 0.01408384
v 0.00672355 -0.00770062 0.01595263
v 0.00382012 -0.00762867 0.01724454
v 0.00086846 -0.00929791 0.01803438
v 0.00053281 -0.00814234 0.01832522
v -0.00272298 -0.00962633 0.01801689
v -0.00310373 -0.00834336 0.01825603
v -0.00339162 -0.00770459 0.01920580
v -0.00712074 -0.00871211 0.01787662
v -0.00745064 -0.00809123 0.01883608
v -0.00764814 -0.00887835 0.01972563
v -0.01164769 -0.00876394 0.01819796
v -0.01195599 -0.00905435 0.01912256
v -0.01207199 -0.01063726 0.01935054
v -0.01640797 -0.00914007 0.01769355
v -0.01665799 -0.01072685 0.01820309
v -0.01669267 -0.01343987 0.01817371
v -0.01221965 -0.01315420 0.01964459
v -0.01683982 -0.01758843 0.01805378
v -0.01240510 -0.01735660 0.01969266
v -0.01680463 -0.02164707 0.01733726
v -0.01247304 -0.02171155 0.01916167
v -0.01608546 -0.02478233 0.01550565
v -0.01202843 -0.02513246 0.01744821
v -0.00785624 -0.02486975 0.01835193
v -0.01154528 -0.02878283 0.01597056
v -0.00752476 -0.02879239 0.01711577
v -0.01182120 -0.03257762 0.01570661
v -0.00758337 -0.03334659 0.01678222
v -0.00345523 -0.03291166 0.01759724
v -0.00845478 -0.03875712 0.01819352
v -0.00367864 -0.03854816 0.01913832
v 0.00117358 -0.03625023 0.01948240
v -0.00336615 -0.04426011 0.01837269
v 0.00202897 -0.04167742 0.01909144
v 0.00746384 -0.03662041 0.01829567
v -0.00872242 -0.04412188 0.01713198
v -0.00857620 -0.04782837 0.01566300
v -0.01391808 -0.04225102 0.01484410
v -0.01405891 -0.04562722 0.01320643
v -0.01488754 -0.04910378 0.01330738
v -0.00896739 -0.05142737 0.01541569
v -0.01893287 -0.04361049 0.01037107
v -0.02009054 -0.04735387 0.01073645
v -0.02254603 -0.04259161 0.00789480
v -0.02351966 -0.04660128 0.00854959
v -0.02462269 -0.05106101 0.00603131
v -0.02603843 -0.05086672 0.00486634
v -0.02649368 -0.05444297 0.00478899
v -0.02494827 -0.05522069 0.00567018
v -0.02707146 -0.04689062 0.00504297
v -0.02759527 -0.05061827 0.00506957
v -0.02812056 -0.05415251 0.00519432
v -0.02921304 -0.05065427 0.00526522
v -0.02974045 -0.05402948 0.00504868
v -0.02990673 -0.05648779 0.00427187
v -0.02842641 -0.05647091 0.00467308
v -0.02691219 -0.05652572 0.00421348
v -0.02921462 -0.05636572 0.00240920
v -0.02821139 -0.05642252 0.00301608
v -0.02703387 -0.05653043 0.00318574
v -0.02888182 -0.05429806 0.00205868
v -0.02788336 -0.05450001 0.00282296
v -0.02670653 -0.05466915 0.00323074
v -0.02869337 -0.05133134 0.00233644
v -0.02755961 -0.05162949 0.00294682
v -0.02640575 -0.05183480 0.00298491
v -0.02727013 -0.04783914 0.00319059
v -0.02574143 -0.05213816 0.00136991
v -0.02582171 -0.05516100 0.00176899
v -0.02473246 -0.05564397 -0.00134807
v -0.02606704 -0.05865061 -0.00166320
v -0.02618874 -0.05841002 0.00184135
v -0.02688474 -0.06271140 -0.00206985
v -0.02658349 -0.06302519 0.00086258
v -0.02536911 -0.06382000 0.00361040
v -0.02545102 -0.05892318 0.00449307
v -0.02720270 -0.06733100 -0.00239573
v -0.02722828 -0.06782449 0.00018641
v -0.02591472 -0.06871927 0.00285052
v -0.02486281 -0.06981230 0.00549108
v -0.02464780 -0.06484251 0.00626649
v -0.02761358 -0.07265738 -0.00095115
v -0.02614887 -0.07363995 0.00130516
v -0.02444158 -0.07475160 0.00356039
v -0.02621006 -0.07780439 -0.00047409
v -0.02379774 -0.07868789 0.00121572
v -0.02079062 -0.07882370 0.00211738
v -0.01792370 -0.07810529 0.00148423
v -0.02344452 -0.08105542 -0.00040103
v -0.02049672 -0.08147770 0.00036418
v -0.01772485 -0.08107122 -0.00026191
v -0.02317703 -0.08238723 -0.00175308
v -0.02268818 -0.08164123 -0.00268221
v -0.02410743 -0.07949140 -0.00294389
v -0.02248923 -0.07996944 -0.00212473
v -0.02068105 -0.08028431 -0.00178693
v -0.01923098 -0.08030732 -0.00198843
v -0.02260057 -0.07751844 -0.00046738
v -0.02084403 -0.07781615 -0.00004272
v -0.01919597 -0.07775524 -0.00053510
v -0.01815776 -0.07760072 -0.00152247
v -0.01854870 -0.07997906 -0.00294215
v -0.02089643 -0.07525913 0.00115044
v -0.01893840 -0.07532219 0.00063786
v -0.01748078 -0.07534541 -0.00045498
v -0.01765057 -0.07475296 -0.00225049
v -0.01829698 -0.07703750 -0.00305374
v -0.01902168 -0.07630476 -0.00475815
v -0.01942585 -0.07872741 -0.00568933
v -0.01864924 -0.07941599 -0.00421277
v -0.01837561 -0.07401498 -0.00410043
v -0.01988216 -0.07324562 -0.00512557
v -0.02036955 -0.07550822 -0.00603300
v -0.02383644 -0.07307798 -0.00346603
v -0.02539339 -0.07333833 -0.00277586
v -0.02516082 -0.07580726 -0.00379199
v -0.02417141 -0.07523423 -0.00492389
v -0.02230548 -0.07505000 -0.00583596
v -0.02180966 -0.07298783 -0.00436050
v -0.02423396 -0.07788202 -0.00623072
v -0.02265213 -0.07767700 -0.00703409
v -0.02085208 -0.07806250 -0.00684887
v -0.02283757 -0.07900831 -0.00834958
v -0.02067570 -0.07927128 -0.00797222
v -0.01912303 -0.08001356 -0.00659378
v -0.02006992 -0.07905731 -0.00917640
v -0.01807174 -0.07979297 -0.00725639
v -0.01731615 -0.08077958 -0.00520792
v -0.01855513 -0.08084225 -0.00506697
v -0.01749818 -0.07798175 -0.00675263
v -0.01654394 -0.07903210 -0.00432922
v -0.01638210 -0.08010072 -0.00204844
v -0.01687363 -0.07509350 -0.00570492
v -0.01618833 -0.07623426 -0.00300566
v -0.01625926 -0.07723778 -0.00032369
v -0.01924072 -0.07452868 -0.00799299
v -0.01977439 -0.07716836 -0.00875333
v -0.02298755 -0.07676506 -0.00919372
v -0.02268292 -0.07412745 -0.00794265
v -0.02303605 -0.07886709 -0.00983365
v -0.02552074 -0.07927644 -0.00852560
v -0.02560946 -0.07731464 -0.00780476
v -0.02462207 -0.07935475 -0.00746201
v -0.02510749 -0.07836376 -0.00514231
v -0.02508791 -0.07896631 -0.00397426
v -0.02525376 -0.07646654 -0.00247566
v -0.02408435 -0.07701482 -0.00137233
v -0.02526714 -0.07395793 -0.00128858
v -0.02404341 -0.07453708 -0.00008622
v -0.02276022 -0.07518002 0.00106778
v -0.02719907 -0.07565882 -0.00471156
v -0.02559493 -0.07467623 -0.00658427
v -0.02745975 -0.07183513 -0.00343589
v -0.02518157 -0.07128990 -0.00504914
v -0.02203708 -0.07079252 -0.00671895
v -0.02470078 -0.06698023 -0.00421644
v -0.02088300 -0.06607246 -0.00576832
v -0.02776449 -0.07675179 -0.00244573
v 0.00107792 -0.01799435 0.01860529
v -0.00358116 -0.01920402 0.01839199
v -0.00504221 -0.01557479 0.01862003
v -0.00072660 -0.01461615 0.01892676
v -0.00619800 -0.01207904 0.01824303
v -0.00210625 -0.01144602 0.01851529
v -0.00672914 -0.01007982 0.01771808
v -0.01054167 -0.01278206 0.01760759
v -0.01097942 -0.01067735 0.01720713
v -0.01132660 -0.00938239 0.01748869
v -0.01529659 -0.01130907 0.01629354
v -0.01551534 -0.00983670 0.01617051
v -0.01588031 -0.00903664 0.01671400
v -0.01911485 -0.01055610 0.01380070
v -0.01957561 -0.00946123 0.01399737
v -0.02042641 -0.00944585 0.01490801
v -0.02231248 -0.01057499 0.01084299
v -0.02334486 -0.00990321 0.01132210
v -0.02404352 -0.01152006 0.01197485
v -0.02083179 -0.01110130 0.01555986
v -0.02411969 -0.01418107 0.01206364
v -0.02089047 -0.01381501 0.01566824
v -0.02398922 -0.01792660 0.01140950
v -0.02101248 -0.01785013 0.01533007
v -0.02352539 -0.02135507 0.01031286
v -0.02083523 -0.02162040 0.01436262
v -0.02237794 -0.02338065 0.00894946
v -0.01979059 -0.02426504 0.01257297
v -0.02210385 -0.02531037 0.00770017
v -0.01940313 -0.02681592 0.01122522
v -0.01566142 -0.02806233 0.01416472
v -0.02007554 -0.02941924 0.01064066
v -0.01614650 -0.03116308 0.01382172
v -0.02075558 -0.03320726 0.00947476
v -0.01751006 -0.03520366 0.01351119
v -0.01314336 -0.03735800 0.01632174
v -0.01826644 -0.03986685 0.01165204
v -0.02160088 -0.03826581 0.00825664
v -0.02612130 -0.01413021 0.00755685
v -0.02561771 -0.01176907 0.00779761
v -0.02570071 -0.01106397 0.00343278
v -0.02607069 -0.01341140 0.00260144
v -0.02425406 -0.00994451 -0.00068886
v -0.02417966 -0.01246034 -0.00176259
v -0.02367070 -0.01618837 -0.00269539
v -0.02137733 -0.01161333 -0.00562832
v -0.02070370 -0.01555884 -0.00668333
v -0.01998026 -0.01812133 -0.00658750
v -0.02237139 -0.01877192 -0.00240994
v -0.01933669 -0.01937763 -0.00591712
v -0.02164457 -0.02038753 -0.00194936
v -0.01927104 -0.02068847 -0.00621542
v -0.02189960 -0.02227888 -0.00231495
v -0.02366350 -0.02288390 -0.00014510
v -0.02363296 -0.02432509 -0.00089257
v -0.01522319 -0.01845640 -0.00882065
v -0.01501336 -0.01974166 -0.00915240
v -0.01486512 -0.02260434 -0.01028184
v -0.01023699 -0.01893327 -0.01011205
v -0.01011517 -0.02188488 -0.01181512
v -0.00932481 -0.02763021 -0.01223720
v -0.01432146 -0.02823520 -0.01114459
v -0.00816836 -0.03548313 -0.01211332
v -0.01347541 -0.03560396 -0.01146190
v -0.01242519 -0.04375780 -0.01052434
v -0.01883508 -0.04131343 -0.00904544
v -0.02313952 -0.03907705 -0.00472666
v -0.01264481 -0.05246243 -0.00742296
v -0.01960243 -0.04740974 -0.00764504
v -0.02390288 -0.04451658 -0.00394035
v -0.00433180 -0.02643507 -0.01302275
v -0.00340368 -0.03476070 -0.01294318
v -0.00479643 -0.02025381 -0.01250978
v -0.01059168 -0.01726090 -0.00977310
v -0.01586331 -0.01744405 -0.00979229
v -0.01121589 -0.01630627 -0.01113376
v -0.01653118 -0.01482686 -0.00965750
v -0.01202535 -0.01366774 -0.01124871
v -0.01750800 -0.01054883 -0.00852818
v -0.01313911 -0.00913461 -0.01062426
v -0.01807669 -0.00737408 -0.00717491
v -0.01364289 -0.00566347 -0.00955173
v -0.01784423 -0.00616288 -0.00553435
v -0.01318414 -0.00421389 -0.00774350
v -0.02109237 -0.00770180 -0.00288472
v -0.02022935 -0.00790914 -0.00181861
v -0.01741862 -0.00665562 -0.00426910
v -0.02167711 -0.00875462 -0.00431508
v -0.02338575 -0.00910351 0.00037501
v -0.02455359 -0.01049408 0.00391559
v -0.02368176 -0.01084090 0.00409659
v -0.02231414 -0.00925740 0.00113287
v -0.02337986 -0.01171554 0.00402311
v -0.02199641 -0.01052079 0.00091237
v -0.01993332 -0.00920746 -0.00191424
v -0.02240779 -0.01201354 0.00022415
v -0.02027643 -0.01081412 -0.00277941
v -0.01750399 -0.00950519 -0.00515631
v -0.01727192 -0.00789724 -0.00420480
v -0.01436988 -0.00800422 -0.00678516
v -0.01737199 -0.01217908 -0.00603284
v -0.01419052 -0.01083271 -0.00776106
v -0.01103450 -0.00963351 -0.00889007
v -0.01108814 -0.00670917 -0.00753429
v -0.01363514 -0.01426870 -0.00826250
v -0.01044505 -0.01317813 -0.00920922
v -0.01315898 -0.01627215 -0.00821629
v -0.00994014 -0.01524137 -0.00907116
v -0.00693769 -0.01455495 -0.00986980
v -0.01655953 -0.01743972 -0.00667811
v -0.01697962 -0.01547968 -0.00670064
v -0.01967929 -0.01664021 -0.00381951
v -0.01885184 -0.01859759 -0.00336398
v -0.02148856 -0.01761550 -0.00048049
v -0.02028014 -0.01986297 -0.00009003
v -0.02029932 -0.01337455 -0.00361461
v -0.02241710 -0.01440259 -0.00038860
v -0.02372824 -0.01527920 0.00340980
v -0.02276481 -0.01841448 0.00313947
v -0.02370062 -0.01308395 0.00373363
v -0.02350457 -0.01352688 0.00753424
v -0.02361632 -0.01564877 0.00758925
v -0.02332282 -0.01219073 0.00746455
v -0.02190767 -0.01156145 0.01081594
v -0.02193402 -0.01300393 0.01112236
v -0.02368985 -0.01141657 0.00752198
v -0.02446267 -0.01122597 0.00763396
v -0.01908042 -0.01208601 0.01416384
v -0.01883085 -0.01432562 0.01439128
v -0.02182064 -0.01520064 0.01137557
v -0.01822527 -0.01797973 0.01444325
v -0.02143316 -0.01881780 0.01134410
v -0.02295280 -0.01898548 0.00728664
v -0.02017776 -0.02175598 0.01037833
v -0.02133644 -0.02143632 0.00656313
v -0.02131635 -0.02075599 0.00292616
v -0.01713732 -0.02134388 0.01378543
v -0.01408854 -0.01711413 0.01655104
v -0.01298652 -0.02073617 0.01627920
v -0.00959776 -0.01638583 0.01796382
v -0.00836592 -0.02007878 0.01775645
v -0.01489839 -0.01349365 0.01638988
v 0.03271504 -0.04376253 -0.01509800
v 0.03201332 -0.04281350 -0.01670198
v 0.03295106 -0.04447527 -0.01811261
v 0.03361676 -0.04537422 -0.01659720
v 0.03368804 -0.04641315 -0.01550106
v 0.03292431 -0.04480601 -0.01393810
v 0.03301385 -0.04769507 -0.01471987
v 0.03216073 -0.04616946 -0.01320329
v 0.03170455 -0.04937669 -0.01432305
v 0.03075880 -0.04805174 -0.01280481
v 0.02996784 -0.05056263 -0.01504211
v 0.02880945 -0.04944444 -0.01350307
v 0.02856722 -0.05094268 -0.01604615
v 0.02728408 -0.04991193 -0.01449665
v 0.02778694 -0.04996957 -0.01736384
v 0.02665747 -0.04858353 -0.01592734
v 0.02750964 -0.04837850 -0.01896056
v 0.02646527 -0.04674068 -0.01763218
v 0.02885561 -0.04306605 -0.01957976
v 0.02737346 -0.04465594 -0.01906738
v 0.02833169 -0.04637458 -0.02037466
v 0.02983916 -0.04479568 -0.02084428
v 0.03159371 -0.04412901 -0.01987919
v 0.03061321 -0.04241751 -0.01857738
v 0.03093675 -0.04657898 -0.02209297
v 0.03255730 -0.04583070 -0.02111698
v 0.03385276 -0.04606961 -0.01954137
v 0.03323108 -0.04646251 -0.02196373
v 0.03460513 -0.04668756 -0.02043137
v 0.03541451 -0.04760191 -0.01889732
v 0.03451783 -0.04695042 -0.01809641
v 0.03547406 -0.04886839 -0.01762200
v 0.03455955 -0.04803081 -0.01700188
v 0.03481436 -0.05021349 -0.01671640
v 0.03393559 -0.04927586 -0.01623647
v 0.03351736 -0.05159263 -0.01637126
v 0.03274459 -0.05068397 -0.01590011
v 0.03198161 -0.05265243 -0.01697262
v 0.03124600 -0.05170422 -0.01653672
v 0.03060707 -0.05312048 -0.01833160
v 0.02990722 -0.05209833 -0.01765576
v 0.02952059 -0.05282510 -0.01995807
v 0.02895476 -0.05157178 -0.01900860
v 0.02942021 -0.05136699 -0.02188242
v 0.02873032 -0.05014822 -0.02060650
v 0.03014584 -0.04905391 -0.02319202
v 0.02948995 -0.04817013 -0.02191285
v 0.03159100 -0.04721188 -0.02308034
v 0.03013652 -0.04925721 -0.02441481
v 0.03180561 -0.04689841 -0.02406342
v 0.03369263 -0.04586794 -0.02271352
v 0.03123693 -0.04588436 -0.02444509
v 0.03369727 -0.04461739 -0.02302727
v 0.03592074 -0.04482502 -0.02080965
v 0.03542312 -0.04607425 -0.02087564
v 0.03713314 -0.04627006 -0.01826193
v 0.03651523 -0.04724588 -0.01892328
v 0.03750547 -0.04824901 -0.01613236
v 0.03661626 -0.04884577 -0.01719930
v 0.03604911 -0.05022351 -0.01500924
v 0.03575127 -0.05059910 -0.01613034
v 0.03418665 -0.05242130 -0.01468397
v 0.03406349 -0.05224780 -0.01581263
v 0.03205206 -0.05426480 -0.01559899
v 0.03223884 -0.05356639 -0.01660655
v 0.02999605 -0.05487705 -0.01745174
v 0.03060452 -0.05417179 -0.01817764
v 0.02830660 -0.05477410 -0.02006620
v 0.02931697 -0.05390988 -0.02027516
v 0.02779099 -0.05255405 -0.02342216
v 0.02920735 -0.05225809 -0.02289032
v 0.02908291 -0.04870865 -0.02536239
v 0.02671016 -0.05093398 -0.02175948
v 0.02785886 -0.04736926 -0.02366957
v 0.03014647 -0.04441162 -0.02394038
v 0.02627070 -0.04535700 -0.02144208
v 0.02855383 -0.04241478 -0.02215837
v 0.03134575 -0.04112577 -0.02066317
v 0.03286322 -0.04320096 -0.02231455
v 0.03363603 -0.04143557 -0.01796943
v 0.03504244 -0.04362447 -0.01972562
v 0.03488846 -0.04313923 -0.01509700
v 0.03615969 -0.04529636 -0.01708949
v 0.03513250 -0.04488593 -0.01319169
v 0.03631638 -0.04699625 -0.01517648
v 0.03404555 -0.04710973 -0.01206908
v 0.03519681 -0.04899176 -0.01402799
v 0.03201449 -0.04986669 -0.01155241
v 0.03336139 -0.05143261 -0.01347507
v 0.02949162 -0.05175533 -0.01257958
v 0.03100295 -0.05317205 -0.01448166
v 0.02734638 -0.05256294 -0.01422047
v 0.02890396 -0.05396381 -0.01627760
v 0.02579616 -0.05136952 -0.01662704
v 0.02723068 -0.05339760 -0.01874829
v 0.02518228 -0.04871183 -0.01948543
v 0.02416847 -0.04238870 -0.01893752
v 0.02320548 -0.03567031 -0.01810678
v 0.02623308 -0.03926473 -0.02003499
v 0.02611846 -0.03320089 -0.01636058
v 0.02906540 -0.03757546 -0.01839639
v 0.02882256 -0.03240408 -0.01270830
v 0.03154546 -0.03743091 -0.01536845
v 0.02490400 -0.02847292 -0.01061271
v 0.02239130 -0.02956808 -0.01472552
v 0.01981422 -0.03296809 -0.01620028
v 0.03208504 -0.04419515 -0.00849897
v -0.02848755 -0.04740320 0.00272211
v -0.02809770 -0.04394971 0.00329198
v -0.02696102 -0.04460994 0.00361379
v -0.02807399 -0.04393200 0.00550050
v -0.02669424 -0.04412277 0.00516193
v -0.02858299 -0.04692010 0.00545900
v -0.03052806 -0.05066631 0.00468495
v -0.03127161 -0.05060595 0.00357534
v -0.03095585 -0.05059640 0.00236748
v -0.02987860 -0.05086866 0.00197747
v 0.01033848 -0.01220971 0.00923835
v 0.01766707 -0.07742852 0.00378857
v 0.01918583 -0.07747762 0.00628862
v 0.01975854 -0.07947363 0.00563844
v 0.01831230 -0.07923750 0.00316957
v 0.01811102 -0.07852034 0.00057733
v 0.01743596 -0.07670772 0.00109165
v 0.02023550 -0.07715252 -0.00103943
v 0.01971449 -0.07528039 -0.00034699
v 0.02326514 -0.07639363 -0.00127526
v 0.02269636 -0.07449357 -0.00032277
v 0.02085856 -0.07730445 0.00800809
v -0.01073504 -0.08154690 -0.00200945
v -0.01078840 -0.08244055 0.00004224
v -0.01069754 -0.08445378 -0.00093162
v -0.01053721 -0.08361895 -0.00287713
v -0.00942476 -0.08289473 -0.00428905
v -0.00963875 -0.08070214 -0.00348025
v -0.00749784 -0.08234780 -0.00505455
v -0.00765372 -0.08000069 -0.00418313
v -0.00498615 -0.08243678 -0.00458749
v -0.00500934 -0.08012460 -0.00355410
v -0.00790755 -0.08401892 0.00318807
v -0.00518535 -0.08386036 0.00330826
v -0.00500247 -0.08585665 0.00185636
v -0.00766851 -0.08578831 0.00166985
v -0.00992910 -0.08535079 0.00080312
v -0.01004348 -0.08339510 0.00194942
v -0.00765550 -0.08758315 0.00071376
v -0.00969927 -0.08710368 -0.00033434
v -0.01062829 -0.08640744 -0.00193112
v -0.00981207 -0.08826902 -0.00077457
v -0.01085114 -0.08763061 -0.00241517
v -0.01070322 -0.08683348 -0.00428850
v -0.01037429 -0.08566921 -0.00369140
v -0.00950692 -0.08610723 -0.00595281
v -0.00926444 -0.08506304 -0.00517607
v -0.00734468 -0.08579960 -0.00689514
v -0.00734962 -0.08469309 -0.00594987
v -0.00484005 -0.08597508 -0.00627648
v -0.00501494 -0.08474774 -0.00549347
v -0.00328055 -0.08678093 -0.00432935
v -0.00423023 -0.08617332 -0.00731915
v -0.00234934 -0.08693456 -0.00488216
v -0.00158494 -0.08823916 -0.00221729
v -0.00255362 -0.08779676 -0.00212642
v -0.00244231 -0.08970972 0.00012500
v -0.00321851 -0.08881787 -0.00030251
v -0.00513200 -0.08989371 0.00119082
v -0.00523816 -0.08903132 0.00050018
v -0.00514605 -0.08775354 0.00082192
v -0.00774953 -0.08881071 0.00023396
v -0.00809069 -0.08961808 0.00091930
v -0.01052403 -0.08881607 -0.00021450
v -0.00843077 -0.08901805 0.00226559
v -0.01128965 -0.08824869 0.00086727
v -0.01275322 -0.08704835 -0.00158550
v -0.01188312 -0.08811846 -0.00232534
v -0.01242672 -0.08579500 -0.00437960
v -0.01169489 -0.08702052 -0.00471582
v -0.01070363 -0.08480766 -0.00688628
v -0.01017292 -0.08615526 -0.00678931
v -0.00742509 -0.08429772 -0.00832811
v -0.00740004 -0.08600004 -0.00817086
v -0.00372643 -0.08450757 -0.00745329
v -0.00170492 -0.08549963 -0.00453417
v -0.00747336 -0.08201312 -0.00747561
v -0.00367543 -0.08219492 -0.00655897
v -0.00115824 -0.08327912 -0.00380940
v -0.00027733 -0.08472885 -0.00028755
v -0.00052636 -0.08713246 -0.00148606
v -0.00387406 -0.07909073 -0.00524418
v -0.00134343 -0.08018464 -0.00262015
v -0.00084118 -0.08154613 0.00100434
v -0.00220431 -0.08319124 0.00438746
v -0.00173637 -0.08622728 0.00271903
v -0.00147262 -0.07726959 -0.00176991
v -0.00429311 -0.07625944 -0.00395188
v -0.00421331 -0.07407638 -0.00391411
v -0.00157841 -0.07515719 -0.00141750
v -0.00777715 -0.07881019 -0.00623051
v -0.01090681 -0.08283660 -0.00615861
v -0.01124579 -0.07993056 -0.00500802
v -0.01259483 -0.08386693 -0.00348863
v -0.01285845 -0.08101282 -0.00228098
v -0.01287718 -0.08502848 -0.00046891
v -0.01301790 -0.08209238 0.00090350
v -0.01337597 -0.07827850 0.00212654
v -0.01199550 -0.08340466 0.00361692
v -0.01239080 -0.07936086 0.00501271
v -0.00934219 -0.08450861 0.00549022
v -0.01018374 -0.08045814 0.00727162
v -0.00569044 -0.08447063 0.00588106
v -0.00657487 -0.08060923 0.00786847
v -0.00861647 -0.08705844 0.00338944
v -0.00507229 -0.08721725 0.00392455
v -0.00498047 -0.08918281 0.00253697
v -0.00146073 -0.08892570 0.00157182
v -0.01169271 -0.08641839 0.00209290
v 0.00469709 -0.08093373 -0.00184067
v 0.00271559 -0.08234901 -0.00023811
v 0.00316804 -0.08479945 -0.00119397
v 0.00504477 -0.08352513 -0.00281596
v 0.00785421 -0.08251608 -0.00336567
v 0.00777953 -0.07991071 -0.00207927
v 0.01013387 -0.08259769 -0.00208957
v 0.01002266 -0.08021920 -0.00072226
v 0.01103690 -0.08334848 0.00012740
v 0.01066493 -0.08119967 0.00147829
v 0.00828783 -0.08333281 0.00606580
v 0.01028266 -0.08277200 0.00534604
v 0.01070765 -0.08514548 0.00413673
v 0.00892674 -0.08580000 0.00495076
v 0.00651290 -0.08618769 0.00460401
v 0.00583114 -0.08375403 0.00579469
v 0.00941364 -0.08808343 0.00358783
v 0.00714038 -0.08847649 0.00328135
v 0.00502028 -0.08858784 0.00221853
v 0.00427291 -0.08625558 0.00335677
v 0.00354591 -0.08384922 0.00441189
v 0.00377342 -0.08812767 0.00030321
v 0.00327377 -0.08563672 0.00110729
v 0.00250414 -0.08330861 0.00206651
v 0.00385499 -0.08732342 -0.00183501
v 0.00394126 -0.08973860 -0.00007677
v 0.00401918 -0.08884224 -0.00229123
v 0.00546720 -0.08783237 -0.00425947
v 0.00540132 -0.08621290 -0.00360851
v 0.00807686 -0.08714107 -0.00509077
v 0.00796048 -0.08538476 -0.00431301
v 0.01051664 -0.08679763 -0.00403342
v 0.01025558 -0.08521170 -0.00325569
v 0.01171151 -0.08713169 -0.00182928
v 0.01142152 -0.08564647 -0.00111079
v 0.01195022 -0.08786794 0.00042606
v 0.01156986 -0.08646264 0.00115646
v 0.01109264 -0.08429569 0.00238328
v 0.01098585 -0.08736834 0.00277427
v 0.01100704 -0.08209661 0.00364784
v 0.01126754 -0.08880975 0.00199967
v 0.00970356 -0.08958951 0.00283450
v 0.01200410 -0.08959769 0.00219422
v 0.01015224 -0.09069722 0.00314704
v 0.00748521 -0.09117754 0.00322215
v 0.00740757 -0.09002064 0.00287645
v 0.00489278 -0.09126757 0.00218946
v 0.00521341 -0.09012644 0.00186464
v 0.00322307 -0.09078302 -0.00005512
v 0.00416581 -0.09080348 0.00333253
v 0.00212281 -0.09005353 0.00072249
v 0.00207211 -0.08857794 -0.00262691
v 0.00325006 -0.08957020 -0.00277813
v 0.00412701 -0.08721459 -0.00557422
v 0.00498075 -0.08853431 -0.00522065
v 0.00783622 -0.08631500 -0.00707333
v 0.00814405 -0.08791185 -0.00636537
v 0.01153638 -0.08592685 -0.00558630
v 0.01114213 -0.08742947 -0.00501280
v 0.01318622 -0.08640297 -0.00236680
v 0.01252740 -0.08774069 -0.00241328
v 0.01352411 -0.08762527 0.00071226
v 0.01270297 -0.08858303 0.00018683
v 0.01304529 -0.08944067 0.00327411
v 0.01359306 -0.08567223 0.00159654
v 0.01285160 -0.08733338 0.00450842
v 0.01037455 -0.08854487 0.00577283
v 0.01047169 -0.09042576 0.00452753
v 0.00696654 -0.08905035 0.00554403
v 0.00726133 -0.09082021 0.00450935
v 0.00369817 -0.08902391 0.00439385
v 0.00638872 -0.08645440 0.00753340
v 0.00317325 -0.08622798 0.00589941
v 0.00159865 -0.08524668 0.00314025
v 0.00190204 -0.08798636 0.00174196
v 0.00097888 -0.08397353 -0.00044506
v 0.00151794 -0.08660771 -0.00176694
v 0.00289172 -0.08243364 -0.00364802
v 0.00357373 -0.08516643 -0.00486584
v 0.00667398 -0.08089588 -0.00515274
v 0.00736858 -0.08404765 -0.00637564
v 0.01077187 -0.08049035 -0.00381412
v 0.01125638 -0.08364166 -0.00505153
v 0.01276183 -0.08136783 -0.00076153
v 0.01331652 -0.08430531 -0.00188584
v 0.01311196 -0.08274240 0.00275854
v 0.01233884 -0.07791778 0.00066198
v 0.01284865 -0.07905474 0.00406229
v 0.01215981 -0.08014672 0.00711420
v 0.01256549 -0.08419569 0.00589956
v 0.00923328 -0.08117628 0.00869036
v 0.00993063 -0.08540337 0.00724159
v 0.00574698 -0.08231469 0.00945368
v 0.00261036 -0.08221670 0.00758177
v 0.00057093 -0.08179337 0.00502305
v 0.00023623 -0.08069980 0.00114859
v 0.00139388 -0.07665981 -0.00172537
v 0.00208203 -0.07928532 -0.00223771
v 0.00582994 -0.07767131 -0.00355398
v 0.01017783 -0.07720066 -0.00213831
f 1 2 3
f 1 3 4
f 1 5 6
f 1 6 7
f 1 7 8
f 1 8 2
f 1 4 9
f 1 9 5
f 10 11 12
f 10 12 13
f 10 13 14
f 10 14 15
f 16 17 18
f 16 18 19
f 16 20 21
f 16 21 22
f 16 22 23
f 16 23 17
f 16 19 24
f 16 24 20
f 25 26 27
f 25 27 28
f 29 30 26
f 29 26 25
f 25 28 31
f 25 31 29
f 32 33 34
f 32 34 35
f 32 36 37
f 32 37 38
f 32 35 39
f 32 39 36
f 32 40 41
f 32 41 33
f 32 38 42
f 32 42 40
f 43 44 45
f 43 45 46
f 43 46 47
f 43 47 48
f 43 49 50
f 43 50 28
f 43 28 27
f 43 27 44
f 51 52 53
f 51 53 54
f 51 54 55
f 51 55 48
f 51 48 47
f 51 47 52
f 38 37 56
f 38 56 42
f 57 58 59
f 57 59 60
f 57 61 62
f 57 62 58
f 57 63 64
f 57 64 61
f 65 59 58
f 65 58 66
f 65 66 44
f 65 44 27
f 65 67 68
f 65 68 59
f 57 60 69
f 57 69 63
f 70 71 72
f 70 72 73
f 70 73 74
f 70 74 75
f 70 54 53
f 70 53 71
f 76 77 78
f 76 78 79
f 76 60 80
f 76 80 81
f 76 79 69
f 76 69 60
f 76 82 83
f 76 83 77
f 76 81 84
f 76 84 82
f 60 59 85
f 60 85 80
f 86 87 88
f 86 88 89
f 86 89 90
f 86 90 91
f 59 68 92
f 59 92 85
f 93 94 95
f 93 95 96
f 93 97 98
f 93 98 94
f 93 99 100
f 93 100 97
f 93 101 102
f 93 102 99
f 93 96 103
f 93 103 101
f 86 101 104
f 86 104 87
f 86 91 102
f 86 102 101
f 101 103 105
f 101 105 104
f 106 42 56
f 106 56 107
f 106 108 109
f 106 109 110
f 106 110 40
f 106 40 42
f 110 109 111
f 110 111 112
f 110 113 41
f 110 41 40
f 110 112 114
f 110 114 113
f 115 116 117
f 115 117 50
f 115 50 49
f 115 49 118
f 115 118 119
f 115 119 116
f 90 89 117
f 90 117 116
f 120 121 122
f 120 122 123
f 120 55 54
f 120 54 121
f 120 118 49
f 120 49 55
f 120 124 119
f 120 119 118
f 125 126 127
f 125 127 128
f 125 129 130
f 125 130 131
f 125 131 132
f 125 132 126
f 133 134 99
f 133 99 102
f 133 102 91
f 133 91 135
f 133 135 136
f 133 136 134
f 137 138 139
f 137 139 140
f 90 124 141
f 90 141 142
f 90 142 143
f 90 143 144
f 136 135 144
f 136 144 145
f 136 145 146
f 136 146 134
f 139 138 147
f 139 147 148
f 145 149 150
f 145 150 146
f 145 144 143
f 145 143 151
f 145 151 152
f 145 152 149
f 153 154 155
f 153 155 156
f 153 156 157
f 153 157 158
f 153 158 159
f 153 159 154
f 156 155 160
f 156 160 157
f 161 162 141
f 161 141 123
f 161 123 122
f 161 122 163
f 161 164 165
f 161 165 162
f 147 166 167
f 147 167 148
f 168 169 170
f 168 170 171
f 168 172 173
f 168 173 169
f 168 171 174
f 168 174 175
f 168 175 176
f 168 176 177
f 168 177 178
f 168 178 172
f 179 180 181
f 179 181 182
f 183 184 180
f 183 180 179
f 179 182 185
f 179 185 183
f 186 187 188
f 186 188 175
f 189 190 187
f 189 187 186
f 186 175 174
f 186 174 189
f 191 184 183
f 191 183 192
f 191 193 194
f 191 194 184
f 191 192 195
f 191 195 193
f 178 177 196
f 178 196 197
f 178 197 198
f 178 198 172
f 199 200 201
f 199 201 202
f 199 202 203
f 199 203 204
f 199 204 205
f 199 205 200
f 206 207 208
f 206 208 209
f 210 211 207
f 210 207 206
f 206 209 212
f 206 212 210
f 210 213 214
f 210 214 211
f 210 212 215
f 210 215 216
f 200 205 217
f 200 217 201
f 218 219 164
f 218 164 161
f 218 220 221
f 218 221 219
f 218 161 163
f 218 163 220
f 222 223 224
f 222 224 225
f 222 221 220
f 222 220 223
f 222 225 226
f 222 226 227
f 222 228 229
f 222 229 221
f 230 231 232
f 230 232 233
f 230 233 234
f 230 234 235
f 230 236 237
f 230 237 238
f 230 235 239
f 230 239 236
f 240 241 242
f 240 242 243
f 244 245 241
f 244 241 240
f 240 243 246
f 240 246 244
f 242 247 248
f 242 248 243
f 247 249 250
f 247 250 248
f 247 251 252
f 247 252 249
f 253 254 255
f 253 255 256
f 253 256 241
f 253 241 245
f 257 254 258
f 257 258 259
f 257 259 260
f 257 260 261
f 257 261 255
f 257 255 254
f 260 262 263
f 260 263 264
f 260 264 265
f 260 265 261
f 266 267 268
f 266 268 269
f 266 269 270
f 266 270 271
f 266 271 272
f 266 272 273
f 274 275 276
f 274 276 277
f 274 278 279
f 274 279 275
f 274 277 280
f 274 280 278
f 281 282 283
f 281 283 284
f 281 284 285
f 281 285 286
f 281 287 288
f 281 288 270
f 281 270 289
f 281 289 282
f 281 286 290
f 281 290 287
f 291 292 293
f 291 293 294
f 291 295 296
f 291 296 297
f 291 294 298
f 291 298 295
f 280 299 300
f 280 300 301
f 280 301 302
f 280 302 278
f 280 277 303
f 280 303 304
f 280 305 306
f 280 306 299
f 300 299 307
f 300 307 308
f 309 310 311
f 309 311 312
f 309 313 314
f 309 314 315
f 309 312 316
f 309 316 313
f 311 310 317
f 311 317 318
f 311 318 319
f 311 319 312
f 280 304 320
f 280 320 305
f 298 294 321
f 298 321 322
f 323 324 286
f 323 286 285
f 323 285 325
f 323 325 326
f 323 326 327
f 323 327 324
f 328 324 327
f 328 327 329
f 328 290 286
f 328 286 324
f 328 329 330
f 328 330 290
f 331 296 295
f 331 295 332
f 331 333 334
f 331 334 296
f 331 332 335
f 331 335 333
f 336 337 338
f 336 338 339
f 336 339 340
f 336 340 341
f 336 341 325
f 336 325 337
f 342 343 344
f 342 344 345
f 342 346 347
f 342 347 343
f 342 348 349
f 342 349 346
f 342 345 350
f 342 350 348
f 351 352 353
f 351 353 354
f 351 355 288
f 351 288 352
f 351 356 357
f 351 357 355
f 351 354 358
f 351 358 359
f 351 359 360
f 351 360 356
f 354 353 361
f 354 361 358
f 322 321 362
f 322 362 363
f 322 363 364
f 322 364 365
f 322 365 335
f 322 335 332
f 366 367 368
f 366 368 369
f 366 369 365
f 366 365 364
f 366 364 370
f 366 370 371
f 366 371 372
f 366 372 373
f 374 375 376
f 374 376 377
f 374 377 378
f 374 378 379
f 374 380 381
f 374 381 375
f 374 373 372
f 374 372 380
f 364 363 382
f 364 382 383
f 364 383 384
f 364 384 370
f 383 382 385
f 383 385 386
f 383 386 381
f 383 381 384
f 387 380 372
f 387 372 388
f 387 388 370
f 387 370 384
f 387 384 381
f 387 381 380
f 386 385 389
f 386 389 390
f 386 390 375
f 386 375 381
f 390 389 391
f 390 391 392
f 390 392 376
f 390 376 375
f 392 391 393
f 392 393 330
f 392 330 329
f 392 329 376
f 393 391 353
f 393 353 352
f 393 352 288
f 393 288 287
f 393 287 290
f 393 290 330
f 391 389 361
f 391 361 353
f 389 385 394
f 389 394 361
f 394 385 382
f 394 382 395
f 394 395 396
f 394 396 397
f 394 397 358
f 394 358 361
f 397 396 398
f 397 398 399
f 397 399 359
f 397 359 358
f 399 398 400
f 399 400 401
f 399 401 360
f 399 360 359
f 401 400 402
f 401 402 350
f 401 350 345
f 401 345 360
f 402 400 403
f 402 403 404
f 402 404 405
f 402 405 406
f 402 406 348
f 402 348 350
f 406 405 407
f 406 407 408
f 406 408 349
f 406 349 348
f 408 407 409
f 408 409 410
f 408 410 320
f 408 320 349
f 410 409 411
f 410 411 412
f 410 412 305
f 410 305 320
f 412 411 413
f 412 413 414
f 412 414 306
f 412 306 305
f 414 413 415
f 414 415 416
f 414 416 417
f 414 417 306
f 417 416 418
f 417 418 419
f 417 419 420
f 417 420 307
f 417 307 299
f 417 299 306
f 420 419 421
f 420 421 422
f 420 422 423
f 420 423 424
f 420 424 308
f 420 308 307
f 424 423 425
f 424 425 426
f 424 426 427
f 424 427 308
f 427 426 428
f 427 428 429
f 427 429 302
f 427 302 301
f 427 301 300
f 427 300 308
f 429 428 430
f 429 430 431
f 429 431 432
f 429 432 302
f 432 431 433
f 432 433 434
f 432 434 435
f 432 435 279
f 432 279 278
f 432 278 302
f 435 434 436
f 435 436 437
f 435 437 438
f 435 438 439
f 435 439 275
f 435 275 279
f 439 438 440
f 439 440 441
f 439 441 276
f 439 276 275
f 441 440 442
f 441 442 443
f 441 443 444
f 441 444 276
f 444 303 277
f 444 277 276
f 444 443 445
f 444 445 446
f 444 446 347
f 444 347 303
f 446 445 447
f 446 447 448
f 446 448 343
f 446 343 347
f 448 447 449
f 448 449 450
f 448 450 344
f 448 344 343
f 450 449 272
f 450 272 357
f 450 357 356
f 450 356 344
f 449 447 451
f 449 451 452
f 449 452 273
f 449 273 272
f 452 451 453
f 452 453 454
f 452 454 455
f 452 455 273
f 455 454 456
f 455 456 457
f 455 457 458
f 455 458 459
f 455 459 266
f 455 266 273
f 459 458 460
f 459 460 461
f 459 461 267
f 459 267 266
f 461 460 462
f 461 462 463
f 461 463 464
f 461 464 267
f 464 465 268
f 464 268 267
f 464 463 466
f 464 466 195
f 464 195 192
f 464 192 465
f 466 463 462
f 466 462 467
f 466 467 189
f 466 189 468
f 466 468 193
f 466 193 195
f 468 189 174
f 468 174 469
f 468 469 194
f 468 194 193
f 469 174 171
f 469 171 470
f 469 470 471
f 469 471 194
f 471 470 472
f 471 472 473
f 471 473 181
f 471 181 180
f 471 180 184
f 471 184 194
f 473 472 80
f 473 80 85
f 473 85 92
f 473 92 181
f 472 170 81
f 472 81 80
f 472 470 171
f 472 171 170
f 467 462 474
f 467 474 475
f 467 475 190
f 467 190 189
f 475 474 476
f 475 476 477
f 475 477 478
f 475 478 190
f 478 477 479
f 478 479 480
f 478 480 481
f 478 481 482
f 478 482 187
f 478 187 190
f 482 481 483
f 482 483 484
f 482 484 188
f 482 188 187
f 484 483 485
f 484 485 486
f 484 486 487
f 484 487 188
f 487 176 175
f 487 175 188
f 487 486 238
f 487 238 237
f 487 237 488
f 487 488 176
f 488 489 490
f 488 490 196
f 488 196 177
f 488 177 176
f 488 237 236
f 488 236 489
f 490 226 225
f 490 225 491
f 490 491 197
f 490 197 196
f 490 489 492
f 490 492 226
f 492 493 227
f 492 227 226
f 492 489 236
f 492 236 239
f 492 239 494
f 492 494 493
f 494 495 496
f 494 496 493
f 494 239 235
f 494 235 497
f 494 497 453
f 494 453 495
f 497 235 234
f 497 234 456
f 497 456 454
f 497 454 453
f 496 442 440
f 496 440 498
f 496 498 227
f 496 227 493
f 496 495 499
f 496 499 442
f 499 445 443
f 499 443 442
f 499 495 453
f 499 453 451
f 499 451 447
f 499 447 445
f 498 440 438
f 498 438 228
f 498 228 222
f 498 222 227
f 491 225 224
f 491 224 500
f 491 500 198
f 491 198 197
f 500 224 129
f 500 129 501
f 500 501 502
f 500 502 198
f 502 501 503
f 502 503 504
f 502 504 505
f 502 505 173
f 502 173 172
f 502 172 198
f 505 504 506
f 505 506 507
f 505 507 82
f 505 82 84
f 505 84 169
f 505 169 173
f 507 506 508
f 507 508 509
f 507 509 83
f 507 83 82
f 509 508 510
f 509 510 511
f 509 511 512
f 509 512 83
f 512 511 513
f 512 513 514
f 512 514 515
f 512 515 516
f 512 516 77
f 512 77 83
f 516 515 517
f 516 517 518
f 516 518 78
f 516 78 77
f 518 517 519
f 518 519 520
f 518 520 521
f 518 521 78
f 521 520 522
f 521 522 523
f 521 523 524
f 521 524 525
f 521 525 79
f 521 79 78
f 525 524 75
f 525 75 74
f 525 74 69
f 525 69 79
f 524 523 526
f 524 526 127
f 524 127 126
f 524 126 75
f 526 523 522
f 526 522 527
f 526 527 528
f 526 528 529
f 526 529 128
f 526 128 127
f 529 528 530
f 529 530 531
f 529 531 532
f 529 532 128
f 532 531 508
f 532 508 506
f 532 506 504
f 532 504 503
f 532 503 125
f 532 125 128
f 531 530 510
f 531 510 508
f 530 528 533
f 530 533 534
f 530 534 535
f 530 535 510
f 535 534 536
f 535 536 537
f 535 537 538
f 535 538 513
f 535 513 511
f 535 511 510
f 538 537 539
f 538 539 540
f 538 540 541
f 538 541 542
f 538 542 514
f 538 514 513
f 542 541 543
f 542 543 544
f 542 544 515
f 542 515 514
f 544 543 545
f 544 545 546
f 544 546 517
f 544 517 515
f 546 545 547
f 546 547 548
f 546 548 519
f 546 519 517
f 548 547 549
f 548 549 550
f 548 550 551
f 548 551 519
f 551 550 552
f 551 552 553
f 551 553 527
f 551 527 522
f 551 522 520
f 551 520 519
f 553 552 554
f 553 554 533
f 553 533 528
f 553 528 527
f 554 552 555
f 554 555 556
f 554 556 557
f 554 557 536
f 554 536 534
f 554 534 533
f 557 556 558
f 557 558 559
f 557 559 560
f 557 560 539
f 557 539 537
f 557 537 536
f 560 559 561
f 560 561 562
f 560 562 563
f 560 563 564
f 560 564 540
f 560 540 539
f 564 563 565
f 564 565 566
f 564 566 541
f 564 541 540
f 566 565 567
f 566 567 568
f 566 568 543
f 566 543 541
f 568 567 569
f 568 569 570
f 568 570 545
f 568 545 543
f 570 569 571
f 570 571 572
f 570 572 547
f 570 547 545
f 572 571 573
f 572 573 574
f 572 574 549
f 572 549 547
f 574 573 575
f 574 575 576
f 574 576 555
f 574 555 549
f 576 575 577
f 576 577 558
f 576 558 556
f 576 556 555
f 577 575 578
f 577 578 579
f 577 579 580
f 577 580 561
f 577 561 559
f 577 559 558
f 580 581 562
f 580 562 561
f 580 579 582
f 580 582 583
f 580 583 584
f 580 584 581
f 584 585 586
f 584 586 581
f 587 588 589
f 587 589 590
f 587 590 591
f 587 591 592
f 591 593 594
f 591 594 592
f 591 590 595
f 591 595 596
f 591 596 597
f 591 597 593
f 597 598 293
f 597 293 593
f 597 596 403
f 597 403 599
f 597 599 600
f 597 600 598
f 600 362 321
f 600 321 598
f 600 599 398
f 600 398 396
f 600 396 395
f 600 395 362
f 599 403 400
f 599 400 398
f 598 321 294
f 598 294 293
f 596 595 404
f 596 404 403
f 595 590 589
f 595 589 601
f 595 601 405
f 595 405 404
f 601 589 602
f 601 602 603
f 601 603 407
f 601 407 405
f 603 602 314
f 603 314 604
f 603 604 409
f 603 409 407
f 604 314 313
f 604 313 605
f 604 605 411
f 604 411 409
f 605 313 316
f 605 316 606
f 605 606 413
f 605 413 411
f 606 316 607
f 606 607 608
f 606 608 415
f 606 415 413
f 608 607 609
f 608 609 610
f 608 610 611
f 608 611 415
f 611 610 612
f 611 612 613
f 611 613 614
f 611 614 418
f 611 418 416
f 611 416 415
f 614 613 615
f 614 615 616
f 614 616 617
f 614 617 421
f 614 421 419
f 614 419 418
f 617 616 618
f 617 618 619
f 617 619 620
f 617 620 621
f 617 621 422
f 617 422 421
f 621 620 622
f 621 622 623
f 621 623 423
f 621 423 422
f 623 622 624
f 623 624 625
f 623 625 425
f 623 425 423
f 625 624 626
f 625 626 627
f 625 627 628
f 625 628 425
f 628 627 629
f 628 629 630
f 628 630 430
f 628 430 428
f 628 428 426
f 628 426 425
f 630 629 631
f 630 631 632
f 630 632 633
f 630 633 430
f 633 632 634
f 633 634 635
f 633 635 636
f 633 636 433
f 633 433 431
f 633 431 430
f 636 635 637
f 636 637 638
f 636 638 639
f 636 639 436
f 636 436 434
f 636 434 433
f 639 638 164
f 639 164 219
f 639 219 221
f 639 221 229
f 639 229 437
f 639 437 436
f 638 637 165
f 638 165 164
f 637 635 634
f 637 634 640
f 637 640 641
f 637 641 165
f 641 640 642
f 641 642 643
f 641 643 644
f 641 644 645
f 641 645 162
f 641 162 165
f 645 644 143
f 645 143 142
f 645 142 141
f 645 141 162
f 644 643 646
f 644 646 647
f 644 647 151
f 644 151 143
f 647 646 648
f 647 648 649
f 647 649 152
f 647 152 151
f 649 648 212
f 649 212 209
f 649 209 650
f 649 650 152
f 650 209 208
f 650 208 651
f 650 651 652
f 650 652 653
f 650 653 149
f 650 149 152
f 651 208 654
f 651 654 655
f 651 655 656
f 651 656 652
f 656 655 657
f 656 657 658
f 656 658 659
f 656 659 660
f 656 660 661
f 656 661 652
f 660 659 662
f 660 662 663
f 660 663 664
f 660 664 661
f 663 662 665
f 663 665 666
f 663 666 667
f 663 667 664
f 666 665 668
f 666 668 669
f 666 669 670
f 666 670 667
f 670 669 671
f 670 671 214
f 670 214 213
f 670 213 672
f 670 672 673
f 670 673 667
f 672 213 167
f 672 167 166
f 672 166 674
f 672 674 673
f 674 166 147
f 674 147 138
f 674 138 137
f 674 137 675
f 674 675 676
f 674 676 673
f 675 137 140
f 675 140 677
f 675 677 678
f 675 678 676
f 678 679 680
f 678 680 676
f 678 677 681
f 678 681 682
f 678 682 683
f 678 683 679
f 683 684 685
f 683 685 679
f 683 682 686
f 683 686 687
f 683 687 688
f 683 688 684
f 688 98 97
f 688 97 684
f 688 687 689
f 688 689 690
f 688 690 691
f 688 691 98
f 691 692 94
f 691 94 98
f 691 690 693
f 691 693 694
f 691 694 695
f 691 695 692
f 694 693 696
f 694 696 11
f 694 11 10
f 694 10 695
f 696 693 18
f 696 18 17
f 696 17 23
f 696 23 697
f 696 697 12
f 696 12 11
f 697 23 698
f 697 698 699
f 697 699 700
f 697 700 12
f 700 701 13
f 700 13 12
f 700 699 702
f 700 702 703
f 700 703 704
f 700 704 701
f 704 705 706
f 704 706 701
f 704 703 707
f 704 707 708
f 704 708 709
f 704 709 705
f 709 710 711
f 709 711 705
f 711 712 713
f 711 713 714
f 711 714 706
f 711 706 705
f 711 710 715
f 711 715 712
f 715 716 717
f 715 717 712
f 718 719 720
f 718 720 721
f 718 721 722
f 718 722 723
f 722 721 724
f 722 724 725
f 722 725 726
f 722 726 717
f 722 717 716
f 722 716 723
f 726 725 727
f 726 727 728
f 726 728 729
f 726 729 713
f 726 713 712
f 726 712 717
f 729 728 730
f 729 730 731
f 729 731 732
f 729 732 733
f 729 733 714
f 729 714 713
f 733 732 15
f 733 15 14
f 733 14 706
f 733 706 714
f 732 731 734
f 732 734 735
f 732 735 736
f 732 736 15
f 735 734 737
f 735 737 738
f 735 738 739
f 735 739 736
f 739 738 107
f 739 107 95
f 739 95 94
f 739 94 692
f 739 692 695
f 739 695 736
f 738 737 106
f 738 106 107
f 737 740 108
f 737 108 106
f 737 734 741
f 737 741 740
f 741 742 743
f 741 743 740
f 741 734 731
f 741 731 730
f 741 730 744
f 741 744 742
f 744 745 746
f 744 746 742
f 744 730 728
f 744 728 727
f 744 727 747
f 744 747 745
f 747 21 20
f 747 20 745
f 747 727 725
f 747 725 724
f 747 724 748
f 747 748 21
f 748 749 22
f 748 22 21
f 748 724 721
f 748 721 720
f 748 720 750
f 748 750 749
f 750 751 698
f 750 698 749
f 750 720 719
f 750 719 752
f 750 752 753
f 750 753 751
f 753 754 702
f 753 702 751
f 754 707 703
f 754 703 702
f 751 702 699
f 751 699 698
f 749 698 23
f 749 23 22
f 746 24 755
f 746 755 756
f 746 756 743
f 746 743 742
f 746 745 20
f 746 20 24
f 756 755 757
f 756 757 758
f 756 758 759
f 756 759 743
f 759 758 760
f 759 760 761
f 759 761 109
f 759 109 108
f 759 108 740
f 759 740 743
f 761 760 140
f 761 140 139
f 761 139 111
f 761 111 109
f 760 681 677
f 760 677 140
f 760 758 757
f 760 757 681
f 757 686 682
f 757 682 681
f 757 755 762
f 757 762 686
f 762 689 687
f 762 687 686
f 762 755 24
f 762 24 19
f 762 19 18
f 762 18 689
f 763 764 765
f 763 765 766
f 763 766 318
f 763 318 317
f 766 765 767
f 766 767 768
f 766 768 319
f 766 319 318
f 768 767 769
f 768 769 609
f 768 609 607
f 768 607 319
f 769 767 770
f 769 770 771
f 769 771 772
f 769 772 612
f 769 612 610
f 769 610 609
f 772 771 773
f 772 773 774
f 772 774 775
f 772 775 615
f 772 615 613
f 772 613 612
f 775 774 776
f 775 776 777
f 775 777 778
f 775 778 618
f 775 618 616
f 775 616 615
f 778 777 779
f 778 779 780
f 778 780 781
f 778 781 782
f 778 782 619
f 778 619 618
f 782 781 783
f 782 783 784
f 782 784 620
f 782 620 619
f 784 783 785
f 784 785 786
f 784 786 622
f 784 622 620
f 786 785 787
f 786 787 788
f 786 788 624
f 786 624 622
f 788 787 789
f 788 789 790
f 788 790 626
f 788 626 624
f 790 789 791
f 790 791 792
f 790 792 793
f 790 793 626
f 793 792 794
f 793 794 795
f 793 795 631
f 793 631 629
f 793 629 627
f 793 627 626
f 795 794 796
f 795 796 797
f 795 797 798
f 795 798 631
f 798 797 799
f 798 799 642
f 798 642 640
f 798 640 634
f 798 634 632
f 798 632 631
f 799 797 796
f 799 796 800
f 799 800 648
f 799 648 646
f 799 646 643
f 799 643 642
f 800 796 246
f 800 246 215
f 800 215 212
f 800 212 648
f 796 794 244
f 796 244 246
f 794 792 791
f 794 791 244
f 791 789 259
f 791 259 258
f 791 258 245
f 791 245 244
f 789 787 260
f 789 260 259
f 787 785 262
f 787 262 260
f 785 783 801
f 785 801 262
f 801 802 803
f 801 803 804
f 801 804 263
f 801 263 262
f 801 783 781
f 801 781 802
f 804 803 805
f 804 805 806
f 804 806 807
f 804 807 263
f 807 806 808
f 807 808 809
f 807 809 810
f 807 810 811
f 807 811 264
f 807 264 263
f 811 810 812
f 811 812 813
f 811 813 265
f 811 265 264
f 813 812 814
f 813 814 815
f 813 815 816
f 813 816 265
f 816 815 251
f 816 251 817
f 816 817 256
f 816 256 255
f 816 255 261
f 816 261 265
f 815 814 252
f 815 252 251
f 814 812 818
f 814 818 819
f 814 819 820
f 814 820 252
f 820 819 821
f 820 821 822
f 820 822 823
f 820 823 824
f 820 824 249
f 820 249 252
f 824 823 825
f 824 825 826
f 824 826 250
f 824 250 249
f 826 825 185
f 826 185 827
f 826 827 828
f 826 828 250
f 828 829 248
f 828 248 250
f 828 827 830
f 828 830 831
f 828 831 832
f 828 832 829
f 832 210 216
f 832 216 829
f 832 831 148
f 832 148 167
f 832 167 213
f 832 213 210
f 829 216 243
f 829 243 248
f 827 185 182
f 827 182 830
f 825 823 833
f 825 833 834
f 825 834 183
f 825 183 185
f 834 833 268
f 834 268 465
f 834 465 192
f 834 192 183
f 833 823 822
f 833 822 835
f 833 835 269
f 833 269 268
f 835 822 821
f 835 821 289
f 835 289 270
f 835 270 269
f 821 819 818
f 821 818 836
f 821 836 282
f 821 282 289
f 836 818 837
f 836 837 838
f 836 838 283
f 836 283 282
f 838 837 839
f 838 839 840
f 838 840 338
f 838 338 283
f 840 839 841
f 840 841 842
f 840 842 339
f 840 339 338
f 842 841 843
f 842 843 844
f 842 844 340
f 842 340 339
f 844 843 845
f 844 845 846
f 844 846 379
f 844 379 340
f 845 847 848
f 845 848 849
f 845 849 367
f 845 367 846
f 845 843 850
f 845 850 847
f 850 805 851
f 850 851 847
f 850 843 841
f 850 841 808
f 850 808 806
f 850 806 805
f 851 852 853
f 851 853 854
f 851 854 848
f 851 848 847
f 851 805 803
f 851 803 852
f 854 853 855
f 854 855 856
f 854 856 857
f 854 857 848
f 857 856 858
f 857 858 859
f 857 859 860
f 857 860 861
f 857 861 849
f 857 849 848
f 861 860 862
f 861 862 368
f 861 368 367
f 861 367 849
f 862 860 863
f 862 863 864
f 862 864 865
f 862 865 866
f 862 866 369
f 862 369 368
f 866 865 333
f 866 333 335
f 866 335 365
f 866 365 369
f 865 864 867
f 865 867 868
f 865 868 334
f 865 334 333
f 868 867 869
f 868 869 870
f 868 870 871
f 868 871 334
f 871 297 296
f 871 296 334
f 872 869 867
f 872 867 873
f 872 873 874
f 872 874 875
f 874 876 877
f 874 877 875
f 874 873 863
f 874 863 878
f 874 878 879
f 874 879 876
f 879 880 881
f 879 881 876
f 879 878 859
f 879 859 858
f 879 858 882
f 879 882 880
f 882 883 884
f 882 884 880
f 882 858 856
f 882 856 855
f 882 855 885
f 882 885 883
f 885 886 887
f 885 887 883
f 885 855 853
f 885 853 888
f 885 888 779
f 885 779 886
f 888 853 852
f 888 852 889
f 888 889 780
f 888 780 779
f 889 852 803
f 889 803 802
f 889 802 781
f 889 781 780
f 887 890 891
f 887 891 892
f 887 892 884
f 887 884 883
f 887 886 776
f 887 776 890
f 892 891 893
f 892 893 894
f 892 894 895
f 892 895 884
f 895 894 896
f 895 896 897
f 895 897 898
f 895 898 881
f 895 881 880
f 895 880 884
f 896 894 893
f 896 893 899
f 899 893 900
f 899 900 901
f 900 902 903
f 900 903 901
f 900 893 891
f 900 891 904
f 900 904 770
f 900 770 902
f 904 891 890
f 904 890 773
f 904 773 771
f 904 771 770
f 903 902 765
f 903 765 764
f 902 770 767
f 902 767 765
f 890 776 774
f 890 774 773
f 886 779 777
f 886 777 776
f 881 898 877
f 881 877 876
f 878 863 860
f 878 860 859
f 873 867 864
f 873 864 863
f 841 839 809
f 841 809 808
f 839 837 810
f 839 810 809
f 837 818 812
f 837 812 810
f 905 906 907
f 905 907 908
f 905 908 909
f 905 909 910
f 910 909 911
f 910 911 912
f 912 911 913
f 912 913 914
f 914 913 915
f 914 915 916
f 916 915 917
f 916 917 918
f 918 917 919
f 918 919 920
f 920 919 921
f 920 921 922
f 923 924 925
f 923 925 926
f 923 926 927
f 923 927 928
f 927 926 929
f 927 929 930
f 927 930 931
f 927 931 907
f 927 907 906
f 927 906 928
f 931 930 932
f 931 932 933
f 931 933 934
f 931 934 935
f 931 935 908
f 931 908 907
f 935 934 936
f 935 936 937
f 935 937 909
f 935 909 908
f 937 936 938
f 937 938 939
f 937 939 911
f 937 911 909
f 939 938 940
f 939 940 941
f 939 941 913
f 939 913 911
f 941 940 942
f 941 942 943
f 941 943 915
f 941 915 913
f 943 942 944
f 943 944 945
f 943 945 917
f 943 917 915
f 945 944 946
f 945 946 947
f 945 947 919
f 945 919 917
f 947 946 948
f 947 948 949
f 947 949 921
f 947 921 919
f 949 948 950
f 949 950 951
f 949 951 925
f 949 925 921
f 951 950 952
f 951 952 929
f 951 929 926
f 951 926 925
f 952 950 953
f 952 953 954
f 952 954 955
f 952 955 932
f 952 932 930
f 952 930 929
f 955 954 956
f 955 956 957
f 955 957 958
f 955 958 959
f 955 959 933
f 955 933 932
f 959 958 960
f 959 960 961
f 959 961 934
f 959 934 933
f 961 960 962
f 961 962 963
f 961 963 936
f 961 936 934
f 963 962 964
f 963 964 965
f 963 965 938
f 963 938 936
f 965 964 966
f 965 966 967
f 965 967 940
f 965 940 938
f 967 966 968
f 967 968 969
f 967 969 942
f 967 942 940
f 969 968 970
f 969 970 971
f 969 971 944
f 969 944 942
f 971 970 972
f 971 972 973
f 971 973 946
f 971 946 944
f 973 972 974
f 973 974 975
f 973 975 948
f 973 948 946
f 975 974 976
f 975 976 953
f 975 953 950
f 975 950 948
f 976 974 977
f 976 977 978
f 976 978 979
f 976 979 956
f 976 956 954
f 976 954 953
f 979 978 980
f 979 980 981
f 979 981 982
f 979 982 983
f 979 983 957
f 979 957 956
f 983 982 984
f 983 984 985
f 983 985 958
f 983 958 957
f 985 984 986
f 985 986 987
f 985 987 960
f 985 960 958
f 987 986 988
f 987 988 989
f 987 989 962
f 987 962 960
f 989 988 990
f 989 990 991
f 989 991 964
f 989 964 962
f 991 990 992
f 991 992 993
f 991 993 966
f 991 966 964
f 993 992 994
f 993 994 995
f 993 995 968
f 993 968 966
f 995 994 996
f 995 996 997
f 995 997 970
f 995 970 968
f 997 996 998
f 997 998 999
f 997 999 972
f 997 972 970
f 999 998 1000
f 999 1000 977
f 999 977 974
f 999 974 972
f 1000 479 1001
f 1000 1001 980
f 1000 980 978
f 1000 978 977
f 1000 998 480
f 1000 480 479
f 1001 476 1002
f 1001 1002 1003
f 1001 1003 981
f 1001 981 980
f 1001 479 477
f 1001 477 476
f 1003 1002 1004
f 1003 1004 1005
f 1003 1005 982
f 1003 982 981
f 1005 1004 1006
f 1005 1006 1007
f 1005 1007 984
f 1005 984 982
f 1007 1006 233
f 1007 233 232
f 1007 232 986
f 1007 986 984
f 1006 1008 234
f 1006 234 233
f 1006 1004 1009
f 1006 1009 1008
f 1009 458 457
f 1009 457 1008
f 1009 1004 1002
f 1009 1002 1010
f 1009 1010 460
f 1009 460 458
f 1010 1002 476
f 1010 476 474
f 1010 474 462
f 1010 462 460
f 1008 457 456
f 1008 456 234
f 998 996 481
f 998 481 480
f 996 994 483
f 996 483 481
f 994 992 485
f 994 485 483
f 992 990 1011
f 992 1011 485
f 1011 238 486
f 1011 486 485
f 1011 990 988
f 1011 988 231
f 1011 231 230
f 1011 230 238
f 988 986 232
f 988 232 231
f 925 924 922
f 925 922 921
f 706 14 13
f 706 13 701
f 693 690 689
f 693 689 18
f 685 100 146
f 685 146 150
f 685 150 680
f 685 680 679
f 685 684 97
f 685 97 100
f 671 1012 1013
f 671 1013 1014
f 671 1014 211
f 671 211 214
f 671 669 668
f 671 668 1012
f 1014 1013 1015
f 1014 1015 1016
f 1014 1016 207
f 1014 207 211
f 1016 1015 1017
f 1016 1017 654
f 1016 654 208
f 1016 208 207
f 1017 1015 204
f 1017 204 203
f 1017 203 1018
f 1017 1018 657
f 1017 657 655
f 1017 655 654
f 1018 203 202
f 1018 202 1019
f 1018 1019 157
f 1018 157 160
f 1018 160 658
f 1018 658 657
f 1019 202 201
f 1019 201 1020
f 1019 1020 158
f 1019 158 157
f 1020 201 217
f 1020 217 1021
f 1020 1021 159
f 1020 159 158
f 1021 217 1012
f 1021 1012 668
f 1021 668 665
f 1021 665 159
f 1015 1013 205
f 1015 205 204
f 1013 1012 217
f 1013 217 205
f 665 662 154
f 665 154 159
f 662 659 155
f 662 155 154
f 659 658 160
f 659 160 155
f 607 316 312
f 607 312 319
f 602 589 588
f 602 588 1022
f 602 1022 315
f 602 315 314
f 593 293 292
f 593 292 594
f 1023 1024 1025
f 1023 1025 1026
f 1023 1026 1027
f 1023 1027 1028
f 1027 1026 571
f 1027 571 569
f 1027 569 567
f 1027 567 1029
f 1027 1029 1030
f 1027 1030 1028
f 1029 567 565
f 1029 565 1031
f 1029 1031 1032
f 1029 1032 1030
f 1031 565 563
f 1031 563 586
f 1031 586 585
f 1031 585 1032
f 1026 1025 573
f 1026 573 571
f 1025 578 575
f 1025 575 573
f 1025 1024 1033
f 1025 1033 578
f 1033 582 579
f 1033 579 578
f 586 563 562
f 586 562 581
f 555 552 550
f 555 550 549
f 503 501 129
f 503 129 125
f 438 437 229
f 438 229 228
f 395 382 363
f 395 363 362
f 378 341 340
f 378 340 379
f 378 377 327
f 378 327 326
f 378 326 325
f 378 325 341
f 377 376 329
f 377 329 327
f 373 374 379
f 373 379 846
f 373 846 367
f 373 367 366
f 360 345 344
f 360 344 356
f 357 272 271
f 357 271 355
f 355 271 270
f 355 270 288
f 349 320 304
f 349 304 346
f 347 346 304
f 347 304 303
f 338 337 284
f 338 284 283
f 337 325 285
f 337 285 284
f 332 295 298
f 332 298 322
f 258 254 253
f 258 253 245
f 247 242 241
f 247 241 256
f 817 251 247
f 817 247 256
f 246 243 216
f 246 216 215
f 224 223 130
f 224 130 129
f 223 220 163
f 223 163 130
f 182 181 92
f 182 92 114
f 182 114 112
f 182 112 830
f 170 169 84
f 170 84 81
f 163 122 131
f 163 131 130
f 150 149 653
f 150 653 680
f 146 100 99
f 146 99 134
f 144 135 91
f 144 91 90
f 141 124 120
f 141 120 123
f 1034 1035 1036
f 1034 1036 1037
f 1034 1037 1038
f 1034 1038 1039
f 1039 1038 1040
f 1039 1040 1041
f 1041 1040 1042
f 1041 1042 1043
f 1044 1045 1046
f 1044 1046 1047
f 1044 1047 1048
f 1044 1048 1049
f 1048 1047 1050
f 1048 1050 1051
f 1048 1051 1052
f 1048 1052 1036
f 1048 1036 1035
f 1048 1035 1049
f 1052 1051 1053
f 1052 1053 1054
f 1052 1054 1055
f 1052 1055 1056
f 1052 1056 1037
f 1052 1037 1036
f 1056 1055 1057
f 1056 1057 1058
f 1056 1058 1038
f 1056 1038 1037
f 1058 1057 1059
f 1058 1059 1060
f 1058 1060 1040
f 1058 1040 1038
f 1060 1059 1061
f 1060 1061 1062
f 1060 1062 1042
f 1060 1042 1040
f 1062 1061 1063
f 1062 1063 6
f 1062 6 5
f 1062 5 1042
f 1063 1061 1064
f 1063 1064 1065
f 1063 1065 1066
f 1063 1066 1067
f 1063 1067 7
f 1063 7 6
f 1067 1066 1068
f 1067 1068 1069
f 1067 1069 8
f 1067 8 7
f 1069 1068 1070
f 1069 1070 1071
f 1069 1071 1072
f 1069 1072 8
f 1072 1071 1073
f 1072 1073 1050
f 1072 1050 1047
f 1072 1047 1046
f 1072 1046 2
f 1072 2 8
f 1073 1071 1070
f 1073 1070 1074
f 1073 1074 1075
f 1073 1075 1053
f 1073 1053 1051
f 1073 1051 1050
f 1075 1074 1076
f 1075 1076 1077
f 1075 1077 1078
f 1075 1078 1079
f 1075 1079 1054
f 1075 1054 1053
f 1079 1078 1080
f 1079 1080 1081
f 1079 1081 1055
f 1079 1055 1054
f 1081 1080 1082
f 1081 1082 1083
f 1081 1083 1057
f 1081 1057 1055
f 1083 1082 1084
f 1083 1084 1085
f 1083 1085 1059
f 1083 1059 1057
f 1085 1084 1086
f 1085 1086 1064
f 1085 1064 1061
f 1085 1061 1059
f 1086 1087 1065
f 1086 1065 1064
f 1086 1084 1088
f 1086 1088 1089
f 1086 1089 1090
f 1086 1090 1087
f 1090 1091 1092
f 1090 1092 1087
f 1090 1089 1093
f 1090 1093 1094
f 1090 1094 1095
f 1090 1095 1091
f 1095 1096 1097
f 1095 1097 1091
f 1095 1094 1098
f 1095 1098 30
f 1095 30 29
f 1095 29 1096
f 1098 1094 1093
f 1098 1093 1099
f 1098 1099 1100
f 1098 1100 1101
f 1098 1101 26
f 1098 26 30
f 1101 1100 67
f 1101 67 65
f 1101 65 27
f 1101 27 26
f 1100 1099 34
f 1100 34 33
f 1100 33 41
f 1100 41 67
f 1099 1093 1102
f 1099 1102 34
f 1102 1093 1089
f 1102 1089 1088
f 1102 1088 1103
f 1102 1103 1104
f 1102 1104 35
f 1102 35 34
f 1104 1103 1105
f 1104 1105 1106
f 1104 1106 39
f 1104 39 35
f 1106 1105 1107
f 1106 1107 1108
f 1106 1108 1109
f 1106 1109 39
f 1109 1108 1110
f 1109 1110 1111
f 1109 1111 104
f 1109 104 105
f 1109 105 36
f 1109 36 39
f 1111 1110 1112
f 1111 1112 1113
f 1111 1113 87
f 1111 87 104
f 1113 1112 1114
f 1113 1114 1115
f 1113 1115 88
f 1113 88 87
f 1115 1114 1096
f 1115 1096 29
f 1115 29 31
f 1115 31 88
f 1114 1112 1116
f 1114 1116 1117
f 1114 1117 1097
f 1114 1097 1096
f 1117 1116 1076
f 1117 1076 1118
f 1117 1118 1119
f 1117 1119 1097
f 1119 1118 1070
f 1119 1070 1068
f 1119 1068 1066
f 1119 1066 1092
f 1119 1092 1091
f 1119 1091 1097
f 1118 1076 1074
f 1118 1074 1070
f 1116 1120 1077
f 1116 1077 1076
f 1116 1112 1110
f 1116 1110 1120
f 1120 1110 1108
f 1120 1108 1107
f 1120 1107 1078
f 1120 1078 1077
f 1107 1105 1080
f 1107 1080 1078
f 1105 1103 1082
f 1105 1082 1080
f 1103 1088 1084
f 1103 1084 1082
f 1092 1066 1065
f 1092 1065 1087
f 1046 1045 3
f 1046 3 2
f 1043 1042 5
f 1043 5 9
f 1121 1122 1123
f 1121 1123 1124
f 1121 1124 1125
f 1121 1125 1126
f 1126 1125 1127
f 1126 1127 1128
f 1128 1127 1129
f 1128 1129 1130
f 1131 1132 1133
f 1131 1133 1134
f 1131 1134 1135
f 1131 1135 1136
f 1135 1134 1137
f 1135 1137 1138
f 1135 1138 1139
f 1135 1139 1140
f 1135 1140 1141
f 1135 1141 1136
f 1140 1139 1142
f 1140 1142 1143
f 1140 1143 1144
f 1140 1144 1141
f 1143 1142 1145
f 1143 1145 1123
f 1143 1123 1122
f 1143 1122 1144
f 1145 1142 1146
f 1145 1146 1147
f 1145 1147 1148
f 1145 1148 1149
f 1145 1149 1124
f 1145 1124 1123
f 1149 1148 1150
f 1149 1150 1151
f 1149 1151 1125
f 1149 1125 1124
f 1151 1150 1152
f 1151 1152 1153
f 1151 1153 1127
f 1151 1127 1125
f 1153 1152 1154
f 1153 1154 1155
f 1153 1155 1129
f 1153 1129 1127
f 1155 1154 1156
f 1155 1156 1157
f 1155 1157 1158
f 1155 1158 1129
f 1158 1157 1159
f 1158 1159 1133
f 1158 1133 1132
f 1158 1132 1160
f 1158 1160 1130
f 1158 1130 1129
f 1159 1157 1156
f 1159 1156 1161
f 1159 1161 1162
f 1159 1162 1137
f 1159 1137 1134
f 1159 1134 1133
f 1162 1161 1163
f 1162 1163 1164
f 1162 1164 1165
f 1162 1165 1166
f 1162 1166 1138
f 1162 1138 1137
f 1166 1165 1167
f 1166 1167 1168
f 1166 1168 1139
f 1166 1139 1138
f 1168 1167 1169
f 1168 1169 1146
f 1168 1146 1142
f 1168 1142 1139
f 1169 1167 1170
f 1169 1170 1171
f 1169 1171 1172
f 1169 1172 1173
f 1169 1173 1147
f 1169 1147 1146
f 1173 1172 1174
f 1173 1174 1175
f 1173 1175 1148
f 1173 1148 1147
f 1175 1174 1176
f 1175 1176 1177
f 1175 1177 1150
f 1175 1150 1148
f 1177 1176 1178
f 1177 1178 1179
f 1177 1179 1152
f 1177 1152 1150
f 1179 1178 1180
f 1179 1180 1181
f 1179 1181 1154
f 1179 1154 1152
f 1181 1180 1182
f 1181 1182 1183
f 1181 1183 1156
f 1181 1156 1154
f 1183 1182 1184
f 1183 1184 1163
f 1183 1163 1161
f 1183 1161 1156
f 1184 1182 1185
f 1184 1185 1186
f 1184 1186 1187
f 1184 1187 1188
f 1184 1188 1164
f 1184 1164 1163
f 1188 1187 1189
f 1188 1189 1190
f 1188 1190 1165
f 1188 1165 1164
f 1190 1189 1191
f 1190 1191 1170
f 1190 1170 1167
f 1190 1167 1165
f 1191 1189 1192
f 1191 1192 1193
f 1191 1193 1194
f 1191 1194 1195
f 1191 1195 1171
f 1191 1171 1170
f 1195 1194 1196
f 1195 1196 1197
f 1195 1197 1172
f 1195 1172 1171
f 1197 1196 1198
f 1197 1198 1199
f 1197 1199 1174
f 1197 1174 1172
f 1199 1198 1200
f 1199 1200 1201
f 1199 1201 1176
f 1199 1176 1174
f 1201 1200 1202
f 1201 1202 1203
f 1201 1203 1178
f 1201 1178 1176
f 1203 1202 1204
f 1203 1204 1205
f 1203 1205 1180
f 1203 1180 1178
f 1205 1204 1206
f 1205 1206 1185
f 1205 1185 1182
f 1205 1182 1180
f 1206 1204 1207
f 1206 1207 1208
f 1206 1208 1209
f 1206 1209 1210
f 1206 1210 1186
f 1206 1186 1185
f 1210 1209 1211
f 1210 1211 1212
f 1210 1212 1187
f 1210 1187 1186
f 1212 1211 1213
f 1212 1213 1192
f 1212 1192 1189
f 1212 1189 1187
f 1213 1211 53
f 1213 53 52
f 1213 52 47
f 1213 47 1214
f 1213 1214 1193
f 1213 1193 1192
f 1214 47 46
f 1214 46 1215
f 1214 1215 1194
f 1214 1194 1193
f 1215 46 45
f 1215 45 1216
f 1215 1216 1196
f 1215 1196 1194
f 1216 45 1217
f 1216 1217 1218
f 1216 1218 1198
f 1216 1198 1196
f 1218 1217 62
f 1218 62 1219
f 1218 1219 1200
f 1218 1200 1198
f 1219 62 61
f 1219 61 1220
f 1219 1220 1202
f 1219 1202 1200
f 1220 61 64
f 1220 64 1207
f 1220 1207 1204
f 1220 1204 1202
f 1217 45 44
f 1217 44 66
f 1217 66 58
f 1217 58 62
f 1211 1209 71
f 1211 71 53
f 1209 1208 72
f 1209 72 71
f 1208 1207 64
f 1208 64 72
f 132 121 54
f 132 54 70
f 132 70 75
f 132 75 126
f 132 131 122
f 132 122 121
f 119 124 90
f 119 90 116
f 117 89 88
f 117 88 31
f 117 31 28
f 117 28 50
f 114 92 68
f 114 68 113
f 113 68 67
f 113 67 41
f 139 148 831
f 139 831 830
f 111 139 830
f 111 830 112
f 107 56 96
f 107 96 95
f 105 103 37
f 105 37 36
f 103 96 56
f 103 56 37
f 74 73 63
f 74 63 69
f 73 72 64
f 73 64 63
f 55 49 43
f 55 43 48
f 10 15 736
f 10 736 695
f 370 388 372
f 370 372 371
f 664 667 673
f 664 673 676
f 661 680 653
f 661 653 652
f 661 664 676
f 661 676 680