# https://github.com/mikedh/trimesh
v -0.04737718 -0.05349580 0.00186584
v -0.04467163 -0.05381749 0.00118667
v -0.04662118 -0.05545336 0.00000000
v -0.01708475 -0.02696659 0.01974388
v -0.01395040 -0.02803927 0.01690733
v -0.02293690 -0.03557985 0.01690733
v -0.02476021 -0.03340695 0.01974388
v -0.01441136 -0.02472337 0.01974388
v -0.01258805 -0.02689627 0.01690733
v -0.01041519 -0.02507297 0.01974388
v -0.04753020 -0.05621611 0.00254489
v -0.01675167 -0.03038997 0.02258040
v -0.01712153 -0.02749486 0.02012488
v -0.02293690 -0.03557985 0.02258040
v -0.01258805 -0.02689627 0.02258040
v -0.04482465 -0.05653780 0.00186584
v -0.01572127 -0.03145978 0.02109848
v -0.02111360 -0.03775275 0.01974388
v -0.01422442 -0.03197216 0.01974388
v -0.01076481 -0.02906916 0.01974388
v -0.02960437 -0.04117462 0.01690733
v -0.03142767 -0.03900160 0.01974388
v -0.02960437 -0.04117462 0.02258040
v -0.02778106 -0.04334753 0.01974388
v -0.03532802 -0.04597737 0.01292164
v -0.03715132 -0.04380435 0.01575820
v -0.03532802 -0.04597737 0.01859475
v -0.03350472 -0.04815027 0.01575820
v -0.03882648 -0.04891290 0.00905683
v -0.04064978 -0.04674000 0.01189338
v -0.03882648 -0.04891290 0.01472980
v -0.03700318 -0.05108579 0.01189338
v -0.04319992 -0.05258265 0.00427622
v -0.04502323 -0.05040975 0.00711278
v -0.04319992 -0.05258265 0.00994933
v -0.04137662 -0.05475554 0.00711278
v 0.04641212 -0.05381749 0.00118667
v 0.04911766 -0.05349580 0.00186584
v 0.04836167 -0.05545336 0.00000000
v 0.01882523 -0.02696659 0.01974388
v 0.02650069 -0.03340695 0.01974388
v 0.02467739 -0.03557985 0.01690733
v 0.01569089 -0.02803927 0.01690733
v 0.01432854 -0.02689627 0.01690733
v 0.01615184 -0.02472337 0.01974388
v 0.01215568 -0.02507297 0.01974388
v 0.04927069 -0.05621611 0.00254489
v 0.01849215 -0.03038997 0.02258040
v 0.02467739 -0.03557985 0.02258040
v 0.01886202 -0.02749486 0.02012488
v 0.01432854 -0.02689627 0.02258040
v 0.04656514 -0.05653780 0.00186584
v 0.02285409 -0.03775275 0.01974388
v 0.01746176 -0.03145978 0.02109848
v 0.01596491 -0.03197216 0.01974388
v 0.01250530 -0.02906916 0.01974388
v 0.03316816 -0.03900160 0.01974388
v 0.03134485 -0.04117462 0.01690733
v 0.03134485 -0.04117462 0.02258040
v 0.02952155 -0.04334753 0.01974388
v 0.03889181 -0.04380435 0.01575820
v 0.03706851 -0.04597737 0.01292164
v 0.03706851 -0.04597737 0.01859475
v 0.03524521 -0.04815027 0.01575820
v 0.04239027 -0.04674000 0.01189338
v 0.04056697 -0.04891290 0.00905683
v 0.04056697 -0.04891290 0.01472980
v 0.03874367 -0.05108579 0.01189338
v 0.04676372 -0.05040975 0.00711278
v 0.04494041 -0.05258265 0.00427622
v 0.04494041 -0.05258265 0.00994933
v 0.04311711 -0.05475554 0.00711278
v -0.03368377 0.04703152 0.00186584
v -0.03491149 0.04459912 0.00118667
v -0.03578197 0.04699061 -0.00000000
v -0.02207931 0.01763648 0.01974388
v -0.02234044 0.01456194 0.01844698
v -0.02520740 0.01793753 0.01690733
v -0.02254201 0.01890774 0.01974388
v -0.02181767 0.00862433 0.01690733
v -0.03618775 0.04810584 0.00254489
v -0.02337021 0.01288982 0.02258040
v -0.02520740 0.01793753 0.02258040
v -0.03741546 0.04567343 0.00186584
v -0.02290600 0.00439886 0.02011257
v -0.02350934 0.01125224 0.02188960
v -0.02787291 0.01696745 0.01974388
v -0.02325247 0.00427275 0.01974388
v -0.02278075 0.00405282 0.01974388
v -0.02251399 0.00454154 0.01895798
v -0.02818434 0.02611649 0.01690733
v -0.02551883 0.02708657 0.01974388
v -0.02818434 0.02611649 0.02258040
v -0.03084985 0.02514628 0.01974388
v -0.03073986 0.03313755 0.01292164
v -0.02807435 0.03410776 0.01575820
v -0.03073986 0.03313755 0.01859475
v -0.03340525 0.03216746 0.01575820
v -0.03230178 0.03742904 0.00905682
v -0.02963627 0.03839925 0.01189338
v -0.03230178 0.03742904 0.01472980
v -0.03496729 0.03645896 0.01189338
v -0.03425446 0.04279396 0.00427622
v -0.03158895 0.04376405 0.00711278
v -0.03425446 0.04279396 0.00994933
v -0.03691984 0.04182376 0.00711278
v 0.03665197 0.04459912 0.00118667
v 0.03542426 0.04703152 0.00186584
v 0.03752246 0.04699061 -0.00000000
v 0.02381979 0.01763648 0.01974388
v 0.02428250 0.01890774 0.01974388
v 0.02694788 0.01793753 0.01690733
v 0.02408093 0.01456194 0.01844698
v 0.02355816 0.00862433 0.01690733
v 0.03792824 0.04810584 0.00254489
v 0.02511069 0.01288982 0.02258040
v 0.02694788 0.01793753 0.02258040
v 0.03915595 0.04567343 0.00186584
v 0.02464648 0.00439886 0.02011257
v 0.02499295 0.00427275 0.01974388
v 0.02961339 0.01696745 0.01974388
v 0.02524983 0.01125224 0.02188960
v 0.02452124 0.00405282 0.01974388
v 0.02425447 0.00454154 0.01895798
v 0.02725932 0.02708657 0.01974388
v 0.02992483 0.02611649 0.01690733
v 0.02992483 0.02611649 0.02258040
v 0.03259034 0.02514628 0.01974388
v 0.02981484 0.03410776 0.01575820
v 0.03248035 0.03313755 0.01292164
v 0.03248035 0.03313755 0.01859475
v 0.03514573 0.03216746 0.01575820
v 0.03137676 0.03839925 0.01189338
v 0.03404227 0.03742904 0.00905682
v 0.03404227 0.03742904 0.01472980
v 0.03670778 0.03645896 0.01189338
v 0.03332944 0.04376405 0.00711278
v 0.03599495 0.04279396 0.00427622
v 0.03599495 0.04279396 0.00994933
v 0.03866033 0.04182376 0.00711278
v -0.05477023 0.01358135 0.00186584
v -0.05414724 0.01092884 0.00118667
v -0.05635117 0.01220131 0.00000000
v -0.02278075 -0.00390524 0.01974388
v -0.02181767 -0.00773661 0.01690733
v -0.02957572 -0.00325750 0.01690733
v -0.02815744 -0.00080100 0.01974388
v -0.05737893 0.01279467 0.00254489
v -0.02374383 -0.00662455 0.02258040
v -0.02957572 -0.00325750 0.02258040
v -0.05675582 0.01014220 0.00186584
v -0.02278075 -0.01045591 0.01974388
v -0.03099399 -0.00571401 0.01974388
v -0.03711341 0.00109439 0.01690733
v -0.03569513 0.00355089 0.01974388
v -0.03711341 0.00109439 0.02258040
v -0.03853169 -0.00136211 0.01974388
v -0.04358418 0.00483025 0.01292164
v -0.04216591 0.00728677 0.01575820
v -0.04358418 0.00483025 0.01859475
v -0.04500246 0.00237375 0.01575820
v -0.04753921 0.00711371 0.00905683
v -0.04612094 0.00957021 0.01189338
v -0.04753921 0.00711371 0.01472980
v -0.04895749 0.00465721 0.01189338
v -0.05248347 0.00996829 0.00427622
v -0.05106520 0.01242480 0.00711278
v -0.05248347 0.00996829 0.00994933
v -0.05390175 0.00751179 0.00711278
v 0.05588773 0.01092884 0.00118667
v 0.05651072 0.01358135 0.00186584
v 0.05809166 0.01220131 -0.00000000
v 0.02452124 -0.00390524 0.01974388
v 0.02989793 -0.00080100 0.01974388
v 0.03131620 -0.00325750 0.01690733
v 0.02355816 -0.00773661 0.01690733
v 0.05911942 0.01279467 0.00254489
v 0.02548431 -0.00662455 0.02258040
v 0.03131620 -0.00325750 0.02258040
v 0.05849631 0.01014220 0.00186584
v 0.02452124 -0.01045591 0.01974388
v 0.03273448 -0.00571401 0.01974388
v 0.03743562 0.00355089 0.01974388
v 0.03885390 0.00109439 0.01690733
v 0.03885390 0.00109439 0.02258040
v 0.04027218 -0.00136211 0.01974388
v 0.04390639 0.00728677 0.01575820
v 0.04532467 0.00483025 0.01292164
v 0.04532467 0.00483025 0.01859475
v 0.04674294 0.00237375 0.01575820
v 0.04786143 0.00957021 0.01189338
v 0.04927970 0.00711371 0.00905682
v 0.04927970 0.00711371 0.01472980
v 0.05069798 0.00465721 0.01189338
v 0.05280569 0.01242480 0.00711278
v 0.05422396 0.00996829 0.00427622
v 0.05422396 0.00996829 0.00994933
v 0.05564224 0.00751179 0.00711278
v -0.00519248 -0.04921307 0.06173650
v 0.00087024 -0.03680518 0.06305505
v -0.00944427 -0.03830842 0.05933788
v 0.00087024 -0.05693582 0.01327724
v -0.00944427 -0.05543259 0.01699442
v -0.00519248 -0.04452794 0.01459580
v 0.00087024 -0.04921307 0.06173650
v 0.00087024 -0.04452794 0.01459580
v -0.00893945 -0.03301481 0.02491746
v 0.00087024 -0.03432311 0.01923763
v -0.01500219 -0.04542282 0.02359892
v -0.01581900 -0.03584536 0.03455460
v -0.01874914 -0.04687050 0.03816616
v -0.01500219 -0.05838363 0.02784455
v -0.01581900 -0.05789577 0.04177772
v -0.00893945 -0.06694696 0.03603270
v -0.00020336 -0.08221543 0.02447418
v 0.00087024 -0.08328536 0.02568341
v -0.00011320 -0.08157955 0.02621445
v -0.00704705 -0.06621574 0.02867553
v -0.00519248 -0.06549916 0.02146545
v 0.00087024 -0.06784173 0.04503575
v -0.00251505 -0.06894732 0.03268761
v 0.00087024 -0.07000136 0.03196574
v -0.00519248 -0.02824197 0.05486684
v -0.00893945 -0.06072619 0.05141480
v -0.00893945 -0.02679417 0.04029962
v 0.00087024 -0.02373977 0.04540736
v -0.01500219 -0.03535738 0.04848778
v -0.01500219 -0.04831831 0.05273335
v 0.00087024 -0.05941803 0.05709466
v 0.00087024 -0.02589941 0.03129657
v -0.00032216 -0.08112585 0.02099788
v 0.00087024 -0.08112585 0.02037299
v 0.00087024 -0.02615904 0.03092494
v 0.00087024 -0.06549916 0.02146545
v -0.00525728 -0.07160882 0.02589275
v -0.00324307 -0.07260969 0.03033579
v -0.00085366 -0.07494862 0.03125623
v 0.00087024 -0.07491847 0.03077052
v 0.00087024 -0.07081767 0.02113511
v -0.00315413 -0.07081767 0.02113511
v -0.00111836 -0.07989476 0.02386687
v -0.00137718 -0.07994644 0.02525027
v 0.00693297 -0.04921307 0.06173650
v 0.01118476 -0.03830842 0.05933788
v 0.01118476 -0.05543259 0.01699442
v 0.00693297 -0.04452794 0.01459580
v 0.01067994 -0.03301481 0.02491746
v 0.01755948 -0.03584536 0.03455460
v 0.01674268 -0.04542283 0.02359892
v 0.02048963 -0.04687050 0.03816616
v 0.01755948 -0.05789577 0.04177772
v 0.01674268 -0.05838363 0.02784455
v 0.01067994 -0.06694696 0.03603270
v 0.00194385 -0.08221543 0.02447418
v 0.00185369 -0.08157955 0.02621445
v 0.00878754 -0.06621574 0.02867553
v 0.00693297 -0.06549916 0.02146545
v 0.00425554 -0.06894732 0.03268761
v 0.00693297 -0.02824197 0.05486684
v 0.01067994 -0.06072619 0.05141480
v 0.01067994 -0.02679417 0.04029962
v 0.01674268 -0.03535738 0.04848778
v 0.01674268 -0.04831831 0.05273335
v 0.00206264 -0.08112585 0.02099788
v 0.00498356 -0.07260969 0.03033579
v 0.00699777 -0.07160882 0.02589275
v 0.00259415 -0.07494862 0.03125623
v 0.00489462 -0.07081767 0.02113511
v 0.00311766 -0.07994644 0.02525027
v 0.00285885 -0.07989476 0.02386687
v -0.00779079 -0.02360189 0.05814357
v 0.00087024 0.00092234 0.06416553
v -0.01386481 0.00092234 0.05945637
v 0.00087024 0.08547502 0.03015974
v -0.00598399 0.08197255 0.03199310
v 0.00087024 0.08409665 0.03327884
v 0.00087024 -0.02360189 0.05814357
v 0.00087024 -0.04080076 0.04921125
v -0.02000488 0.04007916 0.03263439
v -0.02297156 0.02670870 0.03263439
v -0.01594637 0.04007916 0.04627547
v -0.00745511 0.08106365 0.03015974
v -0.00598399 0.08197255 0.02832636
v 0.00087024 0.08409665 0.02704062
v 0.00087024 0.02544657 0.05814357
v -0.00779079 0.02544657 0.05814357
v 0.00087024 0.04293811 0.05584205
v 0.00087024 -0.02360189 0.00712517
v -0.00779079 -0.02360189 0.00712517
v 0.00087024 0.00092234 0.00110322
v 0.00087024 -0.04080076 0.01605749
v 0.00087024 0.02544657 0.00712517
v -0.00779079 0.02544657 0.00712517
v 0.00087024 0.04293811 0.00942669
v -0.01594637 0.04007916 0.01899327
v -0.01314360 -0.03875874 0.03263439
v -0.01314360 -0.03875874 0.04237805
v -0.02297156 -0.02486401 0.03263439
v -0.01314360 -0.03875874 0.02289073
v 0.00087024 -0.04812612 0.03263439
v 0.00087024 0.05570610 0.05120046
v -0.01398443 0.05341896 0.04354729
v -0.01763579 0.05341896 0.03263439
v -0.01398443 0.05341896 0.02172149
v -0.02180466 0.01607919 0.04839995
v -0.02715745 0.00092234 0.03263439
v -0.02180466 -0.01423451 0.04839995
v -0.01386481 0.00092234 0.00581237
v 0.00087024 0.05570610 0.01406827
v 0.00087024 0.06507311 0.04315603
v -0.01280965 0.06347214 0.04009047
v -0.01369477 0.06347214 0.03015974
v -0.01280965 0.06347214 0.02022899
v 0.00087024 0.06507311 0.01716346
v -0.01053142 0.07078224 0.02404851
v -0.01172883 0.07078224 0.03015974
v 0.00087024 0.07206301 0.04055677
v -0.01053142 0.07078224 0.03627096
v 0.00087024 0.07206301 0.01976265
v -0.02180466 0.01607919 0.01686879
v -0.02180466 -0.01423451 0.01686879
v 0.00953128 -0.02360189 0.05814357
v 0.01560530 0.00092234 0.05945637
v 0.00772448 0.08197255 0.03199310
v 0.02471205 0.02670870 0.03263439
v 0.02174537 0.04007916 0.03263439
v 0.01768686 0.04007916 0.04627547
v 0.00919560 0.08106365 0.03015974
v 0.00772448 0.08197255 0.02832636
v 0.00953128 0.02544657 0.05814357
v 0.00953128 -0.02360189 0.00712517
v 0.00953128 0.02544657 0.00712517
v 0.01768686 0.04007916 0.01899327
v 0.01488409 -0.03875874 0.04237805
v 0.01488409 -0.03875874 0.03263439
v 0.02471205 -0.02486401 0.03263439
v 0.01488409 -0.03875874 0.02289073
v 0.01572492 0.05341896 0.04354729
v 0.01572492 0.05341896 0.02172149
v 0.01937628 0.05341896 0.03263439
v 0.02354515 0.01607919 0.04839995
v 0.02889794 0.00092234 0.03263439
v 0.02354515 -0.01423451 0.04839995
v 0.01560530 0.00092234 0.00581237
v 0.01455014 0.06347214 0.04009047
v 0.01455014 0.06347214 0.02022899
v 0.01543526 0.06347214 0.03015974
v 0.01227191 0.07078224 0.02404851
v 0.01346932 0.07078224 0.03015974
v 0.01227191 0.07078224 0.03627096
v 0.02354515 0.01607919 0.01686879
v 0.02354515 -0.01423451 0.01686879
v -0.01354938 -0.04806256 0.06018046
v -0.01546139 -0.04075383 0.05810892
v -0.01844672 -0.04422827 0.05714384
v -0.00969105 -0.04598062 0.05897427
v -0.01188261 -0.04068627 0.05509181
v -0.01162019 -0.04702165 0.05957737
v -0.00862959 -0.05312068 0.05861604
v -0.00727797 -0.04625890 0.05234522
v -0.00536588 -0.05356775 0.05441664
v -0.00452421 -0.05359415 0.04733790
v -0.01155696 -0.04120403 0.04738282
v -0.00723179 -0.04879115 0.04282529
v -0.01180403 -0.04499427 0.03889558
v -0.01661466 -0.03780167 0.05094509
v -0.01656836 -0.04033392 0.04142519
v -0.02040866 -0.03920593 0.04495592
v -0.02047284 -0.03988360 0.05215128
v -0.02281115 -0.04370262 0.04337685
v -0.02165802 -0.04665466 0.05054069
v -0.02242490 -0.05072544 0.04221594
v -0.01971735 -0.05552843 0.04672854
v -0.01737904 -0.05170954 0.05550297
v -0.01514508 -0.05932531 0.05065830
v -0.01160867 -0.05693633 0.05636832
v -0.00647629 -0.06443586 0.03740264
v -0.01148774 -0.06356575 0.03144497
v -0.00850244 -0.06009132 0.03241004
v -0.01033455 -0.06651779 0.03860884
v -0.01506650 -0.06363331 0.03446214
v -0.00840542 -0.06547689 0.03800574
v -0.00654052 -0.06511366 0.04459793
v -0.00413794 -0.06061696 0.04617700
v -0.00529113 -0.05766492 0.03901318
v -0.00957012 -0.05261005 0.03405088
v -0.01534052 -0.04738314 0.03318557
v -0.01339986 -0.05625690 0.02937346
v -0.01831959 -0.05119878 0.03093789
v -0.01532901 -0.05729793 0.02997657
v -0.01725804 -0.05833896 0.03057966
v -0.02158332 -0.05075184 0.03513723
v -0.01967118 -0.05806069 0.03720873
v -0.01539220 -0.06311555 0.04217103
v -0.01038074 -0.06398566 0.04812868
v -0.00655103 -0.06033869 0.05280618
v -0.02039815 -0.04398090 0.03674777
v -0.02033408 -0.04420324 0.03656872
v 0.01720188 -0.04075383 0.05810892
v 0.01528987 -0.04806256 0.06018046
v 0.02018721 -0.04422827 0.05714384
v 0.01362310 -0.04068627 0.05509181
v 0.01143154 -0.04598062 0.05897427
v 0.01336067 -0.04702165 0.05957737
v 0.01037008 -0.05312068 0.05861604
v 0.00901846 -0.04625890 0.05234522
v 0.00626470 -0.05359415 0.04733790
v 0.00710637 -0.05356775 0.05441664
v 0.01329745 -0.04120403 0.04738282
v 0.01354452 -0.04499427 0.03889558
v 0.00897228 -0.04879115 0.04282529
v 0.01835515 -0.03780167 0.05094509
v 0.02214914 -0.03920593 0.04495592
v 0.01830885 -0.04033392 0.04142519
v 0.02221333 -0.03988360 0.05215128
v 0.02455164 -0.04370262 0.04337685
v 0.02339850 -0.04665466 0.05054069
v 0.02416539 -0.05072544 0.04221594
v 0.02145784 -0.05552843 0.04672854
v 0.01911953 -0.05170954 0.05550297
v 0.01688557 -0.05932531 0.05065830
v 0.01334916 -0.05693633 0.05636832
v 0.01322823 -0.06356575 0.03144497
v 0.00821678 -0.06443586 0.03740264
v 0.01024293 -0.06009132 0.03241004
v 0.01680699 -0.06363331 0.03446214
v 0.01207504 -0.06651779 0.03860884
v 0.01014591 -0.06547689 0.03800574
v 0.00828100 -0.06511366 0.04459793
v 0.00703162 -0.05766492 0.03901318
v 0.00587843 -0.06061696 0.04617700
v 0.01131061 -0.05261005 0.03405088
v 0.01708101 -0.04738314 0.03318557
v 0.02006008 -0.05119878 0.03093789
v 0.01514034 -0.05625690 0.02937346
v 0.01706950 -0.05729793 0.02997657
v 0.01899853 -0.05833896 0.03057966
v 0.02332381 -0.05075184 0.03513723
v 0.02141167 -0.05806069 0.03720873
v 0.01713269 -0.06311555 0.04217103
v 0.01212122 -0.06398566 0.04812868
v 0.00829151 -0.06033869 0.05280618
v 0.02213863 -0.04398090 0.03674777
v 0.02207457 -0.04420324 0.03656872
v -0.01926715 0.00901718 0.05120722
v -0.01658575 0.00052993 0.05530089
v -0.01530036 0.01463815 0.06516051
v -0.01694473 0.01786333 0.06178980
v -0.01466999 0.04726964 0.08083675
v -0.01499843 0.07272203 0.09094148
v -0.02093655 0.04311466 0.06084687
v -0.01953792 0.04205235 0.06444392
v -0.01979893 0.02039008 0.05427575
v -0.01945108 0.01344297 0.05226689
v -0.01943407 0.04152459 0.06506917
v -0.01934010 0.01059535 0.05190466
v -0.01725204 0.01854901 0.06141956
v -0.01772363 0.03809833 0.06854423
v -0.01698165 0.01838697 0.06243982
v -0.01548379 0.01544895 0.06551023
v -0.01472291 0.03838086 0.07768075
v -0.01743822 0.03731205 0.06933701
v -0.01457714 0.03933680 0.07821303
v -0.01486655 0.04641992 0.08045037
v -0.02124986 0.04370849 0.06058261
v -0.02183244 0.06032604 0.06611132
v -0.02342601 0.04743055 0.05588459
v -0.01809224 0.09264697 0.09080522
v -0.01969483 0.09725365 0.08815573
v -0.02534854 0.07396477 0.06163190
v -0.02202263 0.06084167 0.06558205
v -0.02341012 0.04648611 0.05584605
v -0.02050187 0.02459786 0.05477625
v -0.02142791 0.04309589 0.06012516
v -0.02530687 0.06122130 0.05621630
v -0.01518449 0.07395075 0.09132248
v -0.01797788 0.09151773 0.09084789
v -0.02459342 0.02949220 0.04545003
v -0.02931345 0.06526292 0.04729360
v -0.02989403 0.05665316 0.04186842
v -0.02829520 0.03689989 0.03792637
v -0.02554848 0.03054937 0.04313792
v -0.02577784 0.02309025 0.03923185
v -0.02383504 0.01674861 0.04211460
v -0.02311020 0.01510486 0.04255935
v -0.01959047 0.00970173 0.05042607
v -0.02395816 0.02935168 0.04628824
v -0.02551971 0.04976373 0.05062477
v -0.02899426 0.06751802 0.04825518
v -0.02555662 0.06107478 0.05543164
v -0.02559978 0.07431324 0.06105758
v -0.02766920 0.08716894 0.06063766
v -0.01998274 0.09745148 0.08740999
v -0.02204665 0.09743495 0.08141344
v -0.02548742 0.06035031 0.05628336
v -0.02545189 0.04949922 0.05167193
v -0.02407453 0.04758570 0.05483781
v -0.02253914 0.06000960 0.06469067
v -0.02013113 0.01354769 0.05149363
v -0.02048123 0.02054173 0.05351600
v -0.01611892 -0.00012762 0.05512547
v -0.01476696 0.01471047 0.06549521
v -0.01664043 0.01838510 0.06165479
v -0.01905820 0.00917602 0.05063803
v -0.01395916 0.03905490 0.07841536
v -0.01710915 0.03781492 0.06873604
v -0.01428873 0.04711899 0.08096262
v -0.01915754 0.04190071 0.06456667
v -0.01463370 0.07386029 0.09157898
v -0.02076588 0.04328570 0.06050128
v -0.01962563 0.02050970 0.05391527
v -0.01762178 0.09265123 0.09107136
v -0.02158307 0.06059643 0.06565037
v -0.02320642 0.04745995 0.05523245
v -0.02514108 0.07418861 0.06123050
v -0.02509804 0.06100271 0.05562684
v -0.01941080 0.09779318 0.08811406
v -0.02288986 0.01505794 0.04207430
v -0.02374733 0.02946580 0.04584542
v -0.02745549 0.08743895 0.06027068
v -0.02878844 0.06767080 0.04781437
v -0.02179515 0.09777404 0.08118647
v -0.02506125 0.04973683 0.05083923
v -0.02788655 0.03690352 0.03706522
v -0.02517011 0.03062319 0.04221927
v -0.02539708 0.02324202 0.03835403
v -0.02951040 0.05696584 0.04106893
v -0.01851554 0.00912970 0.05094822
v -0.01619312 0.01797582 0.06153080
v -0.01454874 0.01475063 0.06490150
v -0.01583426 0.00064245 0.05504188
v -0.01411732 0.04735247 0.08064631
v -0.01898525 0.04213506 0.06425349
v -0.02038376 0.04319736 0.06065631
v -0.01444564 0.07280487 0.09075092
v -0.01889829 0.01352580 0.05207645
v -0.01924613 0.02047279 0.05408531
v -0.01854732 0.04165734 0.06476349
v -0.01683688 0.03823108 0.06823867
v -0.01636529 0.01868177 0.06111388
v -0.01845347 0.01072811 0.05159911
v -0.01591009 0.01854738 0.06207045
v -0.01636654 0.03747246 0.06896777
v -0.01365123 0.03854126 0.07731151
v -0.01441211 0.01560936 0.06514099
v -0.01369039 0.03946956 0.07790735
v -0.01397980 0.04655268 0.08014481
v -0.02104591 0.06044378 0.06584030
v -0.02046346 0.04382623 0.06031159
v -0.02263948 0.04754829 0.05561357
v -0.01742746 0.09274658 0.09057612
v -0.02135784 0.06094115 0.06535295
v -0.02468375 0.07406436 0.06140279
v -0.01903017 0.09735312 0.08792663
v -0.01951890 0.02474501 0.05443741
v -0.02242715 0.04663326 0.05550734
v -0.02044494 0.04324316 0.05978645
v -0.02464221 0.06132077 0.05598720
v -0.01719135 0.09163548 0.09057687
v -0.01439797 0.07406849 0.09105134
v -0.02335619 0.02967738 0.04502374
v -0.02705785 0.03708507 0.03750001
v -0.02865668 0.05683834 0.04144206
v -0.02807623 0.06544810 0.04686718
v -0.02259782 0.01693379 0.04168825
v -0.02454061 0.02327555 0.03880549
v -0.02431126 0.03073455 0.04271156
v -0.01892356 0.00980158 0.05019622
v -0.02244329 0.01520471 0.04232952
v -0.02329125 0.02945153 0.04605838
v -0.02832735 0.06761787 0.04802545
v -0.02485280 0.04986358 0.05039492
v -0.02700229 0.08726879 0.06040781
v -0.02493288 0.07441308 0.06082773
v -0.02488971 0.06117463 0.05520179
v -0.02137974 0.09753480 0.08118371
v -0.01931583 0.09755132 0.08718014
v -0.02423731 0.06053750 0.05585256
v -0.02128915 0.06019678 0.06425987
v -0.02282442 0.04777276 0.05440701
v -0.02420191 0.04968640 0.05124113
v -0.01923124 0.02072879 0.05308520
v -0.01888102 0.01373488 0.05106283
v 0.02100764 0.00901718 0.05120722
v 0.01868522 0.01786333 0.06178980
v 0.01704085 0.01463815 0.06516051
v 0.01832624 0.00052993 0.05530089
v 0.01641047 0.04726964 0.08083675
v 0.02127841 0.04205235 0.06444392
v 0.02267704 0.04311466 0.06084687
v 0.01673892 0.07272203 0.09094148
v 0.02119157 0.01344297 0.05226689
v 0.02153941 0.02039008 0.05427575
v 0.02117456 0.04152459 0.06506917
v 0.01946412 0.03809833 0.06854423
v 0.01899252 0.01854901 0.06141956
v 0.02108059 0.01059535 0.05190466
v 0.01872213 0.01838697 0.06243982
v 0.01917871 0.03731205 0.06933701
v 0.01646340 0.03838086 0.07768075
v 0.01722428 0.01544895 0.06551023
v 0.01631763 0.03933680 0.07821303
v 0.01660704 0.04641992 0.08045037
v 0.02357293 0.06032604 0.06611132
v 0.02299035 0.04370849 0.06058261
v 0.02516650 0.04743055 0.05588459
v 0.01983273 0.09264697 0.09080522
v 0.02376311 0.06084167 0.06558205
v 0.02708902 0.07396477 0.06163190
v 0.02143531 0.09725365 0.08815573
v 0.02224236 0.02459786 0.05477625
v 0.02515061 0.04648611 0.05584605
v 0.02316840 0.04309589 0.06012516
v 0.02704736 0.06122130 0.05621630
v 0.01971837 0.09151773 0.09084789
v 0.01692498 0.07395075 0.09132248
v 0.02633390 0.02949220 0.04545003
v 0.03003569 0.03689989 0.03792637
v 0.03163452 0.05665316 0.04186842
v 0.03105394 0.06526292 0.04729360
v 0.02557553 0.01674861 0.04211460
v 0.02751832 0.02309025 0.03923185
v 0.02728897 0.03054937 0.04313792
v 0.02133096 0.00970173 0.05042607
v 0.02485069 0.01510486 0.04255935
v 0.02569865 0.02935168 0.04628824
v 0.03073475 0.06751802 0.04825518
v 0.02726019 0.04976373 0.05062477
v 0.02940969 0.08716894 0.06063766
v 0.02734027 0.07431324 0.06105758
v 0.02729710 0.06107478 0.05543164
v 0.02378714 0.09743495 0.08141344
v 0.02172322 0.09745148 0.08740999
v 0.02722791 0.06035031 0.05628336
v 0.02427962 0.06000960 0.06469067
v 0.02581502 0.04758570 0.05483781
v 0.02719238 0.04949922 0.05167193
v 0.02222172 0.02054173 0.05351600
v 0.02187162 0.01354769 0.05149363
v 0.01785941 -0.00012762 0.05512547
v 0.01650745 0.01471047 0.06549521
v 0.01838092 0.01838510 0.06165479
v 0.02079868 0.00917602 0.05063803
v 0.01569965 0.03905490 0.07841536
v 0.01884963 0.03781492 0.06873604
v 0.01602922 0.04711899 0.08096262
v 0.02089803 0.04190071 0.06456667
v 0.01637419 0.07386029 0.09157898
v 0.02250637 0.04328570 0.06050128
v 0.02136612 0.02050970 0.05391527
v 0.01936227 0.09265123 0.09107136
v 0.02332355 0.06059643 0.06565037
v 0.02494691 0.04745995 0.05523245
v 0.02688157 0.07418861 0.06123050
v 0.02683853 0.06100271 0.05562684
v 0.02115128 0.09779318 0.08811406
v 0.02463035 0.01505794 0.04207430
v 0.02548782 0.02946580 0.04584542
v 0.02919598 0.08743895 0.06027068
v 0.03052892 0.06767080 0.04781437
v 0.02353564 0.09777404 0.08118647
v 0.02680174 0.04973683 0.05083923
v 0.02962703 0.03690352 0.03706522
v 0.02691060 0.03062319 0.04221927
v 0.02713757 0.02324202 0.03835403
v 0.03125089 0.05696584 0.04106893
v 0.02025602 0.00912970 0.05094821
v 0.01757475 0.00064245 0.05504188
v 0.01628923 0.01475063 0.06490150
v 0.01793360 0.01797582 0.06153080
v 0.01585780 0.04735247 0.08064631
v 0.01618613 0.07280487 0.09075092
v 0.02212424 0.04319736 0.06065631
v 0.02072574 0.04213506 0.06425349
v 0.02098662 0.02047279 0.05408531
v 0.02063878 0.01352580 0.05207645
v 0.02028780 0.04165734 0.06476349
v 0.02019396 0.01072811 0.05159911
v 0.01810577 0.01868177 0.06111388
v 0.01857736 0.03823108 0.06823867
v 0.01765057 0.01854738 0.06207045
v 0.01615259 0.01560936 0.06514099
v 0.01539172 0.03854126 0.07731151
v 0.01810702 0.03747246 0.06896777
v 0.01543088 0.03946956 0.07790735
v 0.01572029 0.04655268 0.08014481
v 0.02220395 0.04382623 0.06031159
v 0.02278640 0.06044378 0.06584030
v 0.02437997 0.04754829 0.05561357
v 0.01916795 0.09274658 0.09057612
v 0.02077066 0.09735312 0.08792663
v 0.02642424 0.07406436 0.06140279
v 0.02309833 0.06094115 0.06535295
v 0.02416764 0.04663326 0.05550734
v 0.02125939 0.02474501 0.05443741
v 0.02218543 0.04324316 0.05978645
v 0.02638270 0.06132077 0.05598720
v 0.01613846 0.07406849 0.09105134
v 0.01893184 0.09163548 0.09057687
v 0.02509668 0.02967738 0.04502374
v 0.02981672 0.06544810 0.04686718
v 0.03039717 0.05683834 0.04144206
v 0.02879834 0.03708507 0.03750001
v 0.02605175 0.03073455 0.04271156
v 0.02628110 0.02327555 0.03880549
v 0.02433831 0.01693379 0.04168825
v 0.02418378 0.01520471 0.04232952
v 0.02066405 0.00980158 0.05019622
v 0.02503174 0.02945153 0.04605838
v 0.02659329 0.04986358 0.05039492
v 0.03006784 0.06761787 0.04802545
v 0.02663020 0.06117463 0.05520179
v 0.02667336 0.07441308 0.06082773
v 0.02874278 0.08726879 0.06040781
v 0.02105631 0.09755132 0.08718014
v 0.02312023 0.09753480 0.08118371
v 0.02597780 0.06053750 0.05585256
v 0.02594239 0.04968640 0.05124113
v 0.02456491 0.04777276 0.05440701
v 0.02302964 0.06019678 0.06425987
v 0.02062151 0.01373488 0.05106283
v 0.02097173 0.02072879 0.05308520
f 1 2 3
f 4 5 6
f 4 6 7
f 5 4 8
f 5 8 9
f 8 10 9
f 11 1 3
f 12 13 7
f 12 7 14
f 13 4 7
f 15 8 4
f 15 4 13
f 15 13 12
f 15 10 8
f 16 11 3
f 17 18 19
f 14 18 17
f 14 17 12
f 17 15 12
f 20 15 17
f 20 17 19
f 20 10 15
f 2 16 3
f 19 5 9
f 19 9 20
f 5 19 18
f 5 18 6
f 9 10 20
f 7 6 21
f 7 21 22
f 14 7 22
f 14 22 23
f 18 14 23
f 18 23 24
f 6 18 24
f 6 24 21
f 22 21 25
f 22 25 26
f 23 22 26
f 23 26 27
f 24 23 27
f 24 27 28
f 21 24 28
f 21 28 25
f 26 25 29
f 26 29 30
f 27 26 30
f 27 30 31
f 28 27 31
f 28 31 32
f 25 28 32
f 25 32 29
f 30 29 33
f 30 33 34
f 31 30 34
f 31 34 35
f 32 31 35
f 32 35 36
f 29 32 36
f 29 36 33
f 34 33 2
f 34 2 1
f 35 34 1
f 35 1 11
f 36 35 11
f 36 11 16
f 33 36 16
f 33 16 2
f 37 38 39
f 40 41 42
f 40 42 43
f 43 44 45
f 43 45 40
f 46 45 44
f 38 47 39
f 48 49 41
f 48 41 50
f 40 50 41
f 45 51 40
f 51 48 50
f 51 50 40
f 46 51 45
f 47 52 39
f 53 54 55
f 49 48 54
f 49 54 53
f 51 54 48
f 56 55 54
f 56 54 51
f 46 56 51
f 52 37 39
f 55 56 44
f 55 44 43
f 43 42 53
f 43 53 55
f 46 44 56
f 41 57 58
f 41 58 42
f 49 59 57
f 49 57 41
f 53 60 59
f 53 59 49
f 42 58 60
f 42 60 53
f 57 61 62
f 57 62 58
f 59 63 61
f 59 61 57
f 60 64 63
f 60 63 59
f 58 62 64
f 58 64 60
f 61 65 66
f 61 66 62
f 63 67 65
f 63 65 61
f 64 68 67
f 64 67 63
f 62 66 68
f 62 68 64
f 65 69 70
f 65 70 66
f 67 71 69
f 67 69 65
f 68 72 71
f 68 71 67
f 66 70 72
f 66 72 68
f 69 38 37
f 69 37 70
f 71 47 38
f 71 38 69
f 72 52 47
f 72 47 71
f 70 37 52
f 70 52 72
f 73 74 75
f 76 77 78
f 76 78 79
f 77 80 78
f 81 73 75
f 82 76 79
f 82 79 83
f 84 81 75
f 85 86 87
f 85 87 88
f 87 86 82
f 87 82 83
f 85 88 89
f 74 84 75
f 80 90 87
f 80 87 78
f 90 88 87
f 89 88 90
f 79 78 91
f 79 91 92
f 83 79 92
f 83 92 93
f 87 83 93
f 87 93 94
f 78 87 94
f 78 94 91
f 92 91 95
f 92 95 96
f 93 92 96
f 93 96 97
f 94 93 97
f 94 97 98
f 91 94 98
f 91 98 95
f 96 95 99
f 96 99 100
f 97 96 100
f 97 100 101
f 98 97 101
f 98 101 102
f 95 98 102
f 95 102 99
f 100 99 103
f 100 103 104
f 101 100 104
f 101 104 105
f 102 101 105
f 102 105 106
f 99 102 106
f 99 106 103
f 104 103 74
f 104 74 73
f 105 104 73
f 105 73 81
f 106 105 81
f 106 81 84
f 103 106 84
f 103 84 74
f 107 108 109
f 110 111 112
f 110 112 113
f 114 113 112
f 108 115 109
f 116 117 111
f 116 111 110
f 115 118 109
f 119 120 121
f 119 121 122
f 121 117 116
f 121 116 122
f 120 119 123
f 118 107 109
f 114 112 121
f 114 121 124
f 120 124 121
f 120 123 124
f 111 125 126
f 111 126 112
f 117 127 125
f 117 125 111
f 121 128 127
f 121 127 117
f 112 126 128
f 112 128 121
f 125 129 130
f 125 130 126
f 127 131 129
f 127 129 125
f 128 132 131
f 128 131 127
f 126 130 132
f 126 132 128
f 129 133 134
f 129 134 130
f 131 135 133
f 131 133 129
f 132 136 135
f 132 135 131
f 130 134 136
f 130 136 132
f 133 137 138
f 133 138 134
f 135 139 137
f 135 137 133
f 136 140 139
f 136 139 135
f 134 138 140
f 134 140 136
f 137 108 107
f 137 107 138
f 139 115 108
f 139 108 137
f 140 118 115
f 140 115 139
f 138 107 118
f 138 118 140
f 141 142 143
f 144 145 146
f 144 146 147
f 148 141 143
f 149 144 147
f 149 147 150
f 151 148 143
f 152 149 150
f 152 150 153
f 142 151 143
f 145 152 153
f 145 153 146
f 147 146 154
f 147 154 155
f 150 147 155
f 150 155 156
f 153 150 156
f 153 156 157
f 146 153 157
f 146 157 154
f 155 154 158
f 155 158 159
f 156 155 159
f 156 159 160
f 157 156 160
f 157 160 161
f 154 157 161
f 154 161 158
f 159 158 162
f 159 162 163
f 160 159 163
f 160 163 164
f 161 160 164
f 161 164 165
f 158 161 165
f 158 165 162
f 163 162 166
f 163 166 167
f 164 163 167
f 164 167 168
f 165 164 168
f 165 168 169
f 162 165 169
f 162 169 166
f 167 166 142
f 167 142 141
f 168 167 141
f 168 141 148
f 169 168 148
f 169 148 151
f 166 169 151
f 166 151 142
f 170 171 172
f 173 174 175
f 173 175 176
f 171 177 172
f 178 179 174
f 178 174 173
f 177 180 172
f 181 182 179
f 181 179 178
f 180 170 172
f 176 175 182
f 176 182 181
f 174 183 184
f 174 184 175
f 179 185 183
f 179 183 174
f 182 186 185
f 182 185 179
f 175 184 186
f 175 186 182
f 183 187 188
f 183 188 184
f 185 189 187
f 185 187 183
f 186 190 189
f 186 189 185
f 184 188 190
f 184 190 186
f 187 191 192
f 187 192 188
f 189 193 191
f 189 191 187
f 190 194 193
f 190 193 189
f 188 192 194
f 188 194 190
f 191 195 196
f 191 196 192
f 193 197 195
f 193 195 191
f 194 198 197
f 194 197 193
f 192 196 198
f 192 198 194
f 195 171 170
f 195 170 196
f 197 177 171
f 197 171 195
f 198 180 177
f 198 177 197
f 196 170 180
f 196 180 198
f 199 200 201
f 202 203 204
f 200 199 205
f 204 206 202
f 204 207 208
f 209 210 207
f 207 204 209
f 203 209 204
f 209 211 210
f 212 213 211
f 211 209 212
f 203 212 209
f 212 214 213
f 215 216 217
f 218 212 219
f 203 219 212
f 220 221 222
f 223 201 200
f 224 213 214
f 214 220 224
f 225 223 226
f 227 201 223
f 223 225 227
f 210 227 225
f 211 227 210
f 228 201 227
f 227 211 228
f 213 228 211
f 228 199 201
f 224 229 199
f 199 228 224
f 213 224 228
f 229 224 220
f 219 203 202
f 230 225 226
f 216 231 232
f 207 210 225
f 225 230 207
f 207 230 233
f 207 233 208
f 205 199 229
f 234 219 202
f 206 204 208
f 214 218 235
f 214 235 236
f 222 221 237
f 222 237 238
f 221 214 236
f 221 236 237
f 219 234 239
f 219 239 240
f 236 235 241
f 236 241 242
f 238 237 217
f 238 217 216
f 220 214 221
f 240 239 232
f 240 232 231
f 215 231 216
f 241 235 240
f 241 240 231
f 235 218 219
f 235 219 240
f 218 214 212
f 215 217 242
f 215 242 241
f 215 241 231
f 217 237 236
f 217 236 242
f 200 243 244
f 245 202 246
f 243 200 205
f 206 246 202
f 247 246 208
f 248 249 247
f 246 247 249
f 249 245 246
f 250 249 248
f 251 252 250
f 249 250 252
f 252 245 249
f 253 252 251
f 216 254 255
f 252 256 257
f 257 245 252
f 258 220 222
f 244 259 200
f 251 260 253
f 220 253 260
f 259 261 226
f 244 262 259
f 261 259 262
f 262 248 261
f 262 250 248
f 244 263 262
f 250 262 263
f 263 251 250
f 243 263 244
f 229 260 243
f 263 243 260
f 260 251 263
f 260 229 220
f 245 257 202
f 261 230 226
f 264 216 232
f 248 247 261
f 230 261 247
f 247 208 233
f 247 233 230
f 243 205 229
f 257 234 202
f 246 206 208
f 253 265 266
f 253 266 256
f 222 238 267
f 222 267 258
f 265 253 258
f 265 258 267
f 257 268 239
f 257 239 234
f 265 269 270
f 265 270 266
f 238 216 255
f 238 255 267
f 253 220 258
f 268 264 232
f 268 232 239
f 264 254 216
f 270 264 268
f 270 268 266
f 266 268 257
f 266 257 256
f 253 256 252
f 254 270 269
f 254 269 255
f 270 254 264
f 255 269 265
f 255 265 267
f 271 272 273
f 274 275 276
f 272 271 277
f 278 277 271
f 279 280 281
f 282 274 283
f 284 283 274
f 285 286 272
f 287 286 285
f 288 289 290
f 291 289 288
f 292 293 294
f 279 295 280
f 282 275 274
f 296 297 298
f 296 299 300
f 300 299 291
f 286 273 272
f 281 287 301
f 281 301 302
f 295 279 303
f 295 303 304
f 281 286 287
f 305 273 286
f 286 281 305
f 280 305 281
f 306 305 280
f 307 273 305
f 305 306 307
f 298 307 306
f 307 271 273
f 297 278 271
f 271 307 297
f 298 297 307
f 296 298 299
f 289 308 290
f 294 295 304
f 294 304 309
f 279 281 302
f 279 302 303
f 296 300 297
f 302 301 310
f 302 310 311
f 304 303 312
f 304 312 313
f 278 297 300
f 309 304 313
f 309 313 314
f 303 302 311
f 303 311 312
f 315 316 282
f 315 282 283
f 311 310 317
f 311 317 318
f 313 312 316
f 313 316 315
f 319 315 283
f 319 283 284
f 314 313 315
f 314 315 319
f 312 311 318
f 312 318 316
f 316 318 275
f 316 275 282
f 290 308 293
f 293 292 290
f 318 317 276
f 318 276 275
f 293 295 294
f 320 280 295
f 295 293 320
f 308 320 293
f 320 77 76
f 306 280 82
f 306 82 86
f 280 320 76
f 76 82 280
f 321 298 306
f 80 77 320
f 306 86 85
f 152 145 321
f 89 144 306
f 89 306 85
f 152 321 306
f 321 145 80
f 321 80 320
f 149 152 306
f 144 149 306
f 90 80 145
f 145 144 89
f 145 89 90
f 308 321 320
f 299 298 12
f 299 12 17
f 13 12 298
f 13 298 321
f 289 291 299
f 299 17 19
f 4 13 321
f 19 5 289
f 19 289 299
f 289 5 4
f 289 4 321
f 308 289 321
f 272 322 323
f 324 274 276
f 322 272 277
f 277 278 322
f 325 326 327
f 274 328 329
f 329 284 274
f 330 285 272
f 330 287 285
f 331 288 290
f 331 291 288
f 332 292 294
f 333 326 325
f 324 328 274
f 334 335 336
f 337 335 300
f 337 300 291
f 323 330 272
f 327 338 301
f 327 301 287
f 333 339 340
f 333 340 326
f 330 327 287
f 323 341 330
f 327 330 341
f 341 325 327
f 341 342 325
f 323 343 341
f 342 341 343
f 343 336 342
f 322 343 323
f 278 334 322
f 343 322 334
f 334 336 343
f 336 335 337
f 344 331 290
f 294 309 339
f 294 339 333
f 326 340 338
f 326 338 327
f 300 335 334
f 338 345 310
f 338 310 301
f 339 346 347
f 339 347 340
f 334 278 300
f 309 314 346
f 309 346 339
f 340 347 345
f 340 345 338
f 348 329 328
f 348 328 349
f 345 350 317
f 345 317 310
f 346 348 349
f 346 349 347
f 319 284 329
f 319 329 348
f 314 319 348
f 314 348 346
f 347 349 350
f 347 350 345
f 349 328 324
f 349 324 350
f 344 290 332
f 292 332 290
f 350 324 276
f 350 276 317
f 333 332 294
f 325 351 333
f 332 333 351
f 351 344 332
f 113 351 110
f 342 122 116
f 342 116 325
f 351 325 110
f 116 110 325
f 336 352 342
f 113 114 351
f 122 342 119
f 176 181 352
f 123 119 342
f 123 342 173
f 352 181 342
f 352 351 114
f 352 114 176
f 181 178 342
f 178 173 342
f 114 124 176
f 176 124 123
f 176 123 173
f 352 344 351
f 337 54 48
f 337 48 336
f 50 352 336
f 50 336 48
f 291 331 337
f 54 337 55
f 50 40 352
f 55 337 331
f 55 331 43
f 331 352 40
f 331 40 43
f 331 344 352
f 353 354 355
f 356 357 354
f 354 353 358
f 359 356 358
f 356 360 357
f 361 362 360
f 360 356 361
f 359 361 356
f 360 363 357
f 364 365 363
f 363 360 364
f 362 364 360
f 363 366 357
f 367 368 366
f 366 363 367
f 365 367 363
f 366 354 357
f 369 355 354
f 354 366 369
f 368 369 366
f 370 369 368
f 371 355 369
f 369 370 371
f 372 371 370
f 373 371 372
f 374 355 371
f 371 373 374
f 375 374 373
f 374 353 355
f 376 359 353
f 353 374 376
f 375 376 374
f 377 378 379
f 380 381 378
f 378 377 382
f 383 380 382
f 384 385 362
f 377 379 385
f 385 384 377
f 383 377 384
f 385 364 362
f 386 365 364
f 364 385 386
f 379 386 385
f 386 387 365
f 388 389 387
f 387 386 388
f 379 388 386
f 388 390 389
f 378 381 391
f 391 390 378
f 379 378 388
f 391 392 389
f 393 372 392
f 392 391 393
f 381 393 391
f 393 373 372
f 394 375 373
f 373 393 394
f 381 394 393
f 394 395 375
f 380 383 395
f 395 394 380
f 381 380 394
f 396 395 383
f 376 375 395
f 395 396 376
f 359 376 396
f 361 384 362
f 396 383 384
f 384 361 396
f 359 396 361
f 367 397 368
f 398 397 387
f 398 387 389
f 397 367 387
f 365 387 367
f 397 370 368
f 392 372 370
f 370 397 392
f 392 397 398
f 392 398 389
f 358 356 354
f 358 353 359
f 382 380 378
f 382 377 383
f 390 391 389
f 390 388 378
f 399 400 401
f 402 403 399
f 400 399 404
f 403 405 404
f 406 403 402
f 407 408 406
f 403 406 408
f 408 405 403
f 409 406 402
f 410 411 409
f 406 409 411
f 411 407 406
f 412 409 402
f 413 414 412
f 409 412 414
f 414 410 409
f 399 412 402
f 401 415 399
f 412 399 415
f 415 413 412
f 415 416 413
f 401 417 415
f 416 415 417
f 417 418 416
f 417 419 418
f 401 420 417
f 419 417 420
f 420 421 419
f 400 420 401
f 405 422 400
f 420 400 422
f 422 421 420
f 423 424 425
f 426 427 423
f 424 423 428
f 427 429 428
f 430 431 407
f 425 424 430
f 431 430 424
f 424 429 431
f 411 430 407
f 410 432 411
f 430 411 432
f 432 425 430
f 433 432 410
f 434 435 433
f 432 433 435
f 435 425 432
f 436 435 434
f 426 423 437
f 436 437 423
f 423 425 435
f 438 437 434
f 418 439 438
f 437 438 439
f 439 426 437
f 419 439 418
f 421 440 419
f 439 419 440
f 440 426 439
f 441 440 421
f 429 427 441
f 440 441 427
f 427 426 440
f 441 442 429
f 421 422 441
f 442 441 422
f 422 405 442
f 431 408 407
f 429 442 431
f 408 431 442
f 442 405 408
f 443 414 413
f 444 434 433
f 444 433 443
f 414 443 433
f 433 410 414
f 416 443 413
f 418 438 416
f 443 416 438
f 438 434 444
f 438 444 443
f 403 404 399
f 400 404 405
f 427 428 423
f 424 428 429
f 437 436 434
f 435 436 423
f 445 446 447
f 445 447 448
f 449 450 451
f 449 451 452
f 453 454 452
f 455 456 457
f 455 457 458
f 459 460 461
f 459 461 462
f 463 464 455
f 463 455 458
f 465 466 467
f 451 453 452
f 468 469 470
f 468 470 471
f 472 473 474
f 470 475 471
f 466 465 476
f 466 476 477
f 478 479 480
f 478 480 481
f 478 482 483
f 478 483 484
f 485 486 487
f 481 482 478
f 487 486 488
f 487 488 489
f 489 490 491
f 489 491 492
f 488 490 489
f 491 493 494
f 491 494 492
f 495 496 497
f 495 497 498
f 496 499 500
f 496 500 497
f 501 502 447
f 501 447 446
f 502 503 448
f 502 448 447
f 503 504 445
f 503 445 448
f 504 501 446
f 504 446 445
f 502 505 461
f 502 461 460
f 505 506 462
f 505 462 461
f 506 503 459
f 506 459 462
f 503 502 460
f 503 460 459
f 505 507 464
f 505 464 463
f 507 508 455
f 507 455 464
f 506 505 463
f 506 463 458
f 508 504 456
f 508 456 455
f 504 503 457
f 504 457 456
f 503 506 458
f 503 458 457
f 507 509 450
f 507 450 449
f 509 510 451
f 509 451 450
f 508 507 449
f 508 449 452
f 510 511 453
f 510 453 451
f 511 504 454
f 511 454 453
f 504 508 452
f 504 452 454
f 510 509 476
f 510 476 465
f 509 512 477
f 509 477 476
f 512 513 466
f 512 466 477
f 513 514 467
f 513 467 466
f 514 510 465
f 514 465 467
f 515 516 475
f 515 475 470
f 516 513 471
f 516 471 475
f 512 517 469
f 512 469 468
f 517 515 470
f 517 470 469
f 513 512 468
f 513 468 471
f 518 504 486
f 518 486 485
f 519 518 485
f 519 485 487
f 516 515 491
f 516 491 490
f 520 521 489
f 520 489 492
f 515 517 493
f 515 493 491
f 517 522 494
f 517 494 493
f 522 520 492
f 522 492 494
f 504 523 488
f 504 488 486
f 521 519 487
f 521 487 489
f 523 516 490
f 523 490 488
f 524 525 482
f 524 482 481
f 525 526 483
f 525 483 482
f 526 518 484
f 526 484 483
f 518 519 478
f 518 478 484
f 519 521 479
f 519 479 478
f 521 527 480
f 521 480 479
f 527 524 481
f 527 481 480
f 516 523 496
f 516 496 495
f 514 513 498
f 514 498 497
f 513 516 495
f 513 495 498
f 523 504 499
f 523 499 496
f 504 511 500
f 504 500 499
f 511 514 497
f 511 497 500
f 514 511 473
f 514 473 472
f 511 510 474
f 511 474 473
f 510 514 472
f 510 472 474
f 528 529 530
f 528 530 531
f 532 533 534
f 532 534 535
f 536 537 533
f 538 539 540
f 538 540 541
f 542 543 544
f 542 544 545
f 546 539 538
f 546 538 547
f 548 549 550
f 537 534 533
f 551 552 553
f 551 553 554
f 555 556 557
f 558 553 552
f 548 559 560
f 548 560 549
f 561 562 563
f 561 563 564
f 561 565 566
f 561 566 567
f 568 569 570
f 567 562 561
f 570 571 572
f 570 572 568
f 571 573 574
f 571 574 575
f 575 572 571
f 574 573 576
f 574 576 577
f 578 579 580
f 578 580 581
f 581 580 582
f 581 582 583
f 501 531 530
f 501 530 502
f 502 530 529
f 502 529 503
f 503 529 528
f 503 528 504
f 504 528 531
f 504 531 501
f 502 545 544
f 502 544 505
f 505 544 543
f 505 543 506
f 506 543 542
f 506 542 503
f 503 542 545
f 503 545 502
f 505 546 547
f 505 547 507
f 507 547 538
f 507 538 508
f 506 539 546
f 506 546 505
f 508 538 541
f 508 541 504
f 504 541 540
f 504 540 503
f 503 540 539
f 503 539 506
f 507 532 535
f 507 535 509
f 509 535 534
f 509 534 510
f 508 533 532
f 508 532 507
f 510 534 537
f 510 537 511
f 511 537 536
f 511 536 504
f 504 536 533
f 504 533 508
f 510 549 560
f 510 560 509
f 509 560 559
f 509 559 512
f 512 559 548
f 512 548 513
f 513 548 550
f 513 550 514
f 514 550 549
f 514 549 510
f 515 553 558
f 515 558 516
f 516 558 552
f 516 552 513
f 512 551 554
f 512 554 517
f 517 554 553
f 517 553 515
f 513 552 551
f 513 551 512
f 518 569 568
f 518 568 504
f 519 570 569
f 519 569 518
f 516 575 574
f 516 574 515
f 520 573 571
f 520 571 521
f 515 574 577
f 515 577 517
f 517 577 576
f 517 576 522
f 522 576 573
f 522 573 520
f 504 568 572
f 504 572 523
f 521 571 570
f 521 570 519
f 523 572 575
f 523 575 516
f 524 562 567
f 524 567 525
f 525 567 566
f 525 566 526
f 526 566 565
f 526 565 518
f 518 565 561
f 518 561 519
f 519 561 564
f 519 564 521
f 521 564 563
f 521 563 527
f 527 563 562
f 527 562 524
f 516 578 581
f 516 581 523
f 514 580 579
f 514 579 513
f 513 579 578
f 513 578 516
f 523 581 583
f 523 583 504
f 504 583 582
f 504 582 511
f 511 582 580
f 511 580 514
f 514 556 555
f 514 555 511
f 511 555 557
f 511 557 510
f 510 557 556
f 510 556 514
f 584 585 586
f 584 586 587
f 588 589 590
f 588 590 591
f 592 593 589
f 594 595 596
f 594 596 597
f 598 599 600
f 598 600 601
f 602 595 594
f 602 594 603
f 604 605 606
f 593 590 589
f 607 608 609
f 607 609 610
f 611 612 613
f 614 609 608
f 604 615 616
f 604 616 605
f 617 618 619
f 617 619 620
f 617 621 622
f 617 622 623
f 624 625 626
f 623 618 617
f 626 627 628
f 626 628 624
f 627 629 630
f 627 630 631
f 631 628 627
f 630 629 632
f 630 632 633
f 634 635 636
f 634 636 637
f 637 636 638
f 637 638 639
f 640 587 586
f 640 586 641
f 641 586 585
f 641 585 642
f 642 585 584
f 642 584 643
f 643 584 587
f 643 587 640
f 641 601 600
f 641 600 644
f 644 600 599
f 644 599 645
f 645 599 598
f 645 598 642
f 642 598 601
f 642 601 641
f 644 602 603
f 644 603 646
f 646 603 594
f 646 594 647
f 645 595 602
f 645 602 644
f 647 594 597
f 647 597 643
f 643 597 596
f 643 596 642
f 642 596 595
f 642 595 645
f 646 588 591
f 646 591 648
f 648 591 590
f 648 590 649
f 647 589 588
f 647 588 646
f 649 590 593
f 649 593 650
f 650 593 592
f 650 592 643
f 643 592 589
f 643 589 647
f 649 605 616
f 649 616 648
f 648 616 615
f 648 615 651
f 651 615 604
f 651 604 652
f 652 604 606
f 652 606 653
f 653 606 605
f 653 605 649
f 654 609 614
f 654 614 655
f 655 614 608
f 655 608 652
f 651 607 610
f 651 610 656
f 656 610 609
f 656 609 654
f 652 608 607
f 652 607 651
f 657 625 624
f 657 624 643
f 658 626 625
f 658 625 657
f 655 631 630
f 655 630 654
f 659 629 627
f 659 627 660
f 654 630 633
f 654 633 656
f 656 633 632
f 656 632 661
f 661 632 629
f 661 629 659
f 643 624 628
f 643 628 662
f 660 627 626
f 660 626 658
f 662 628 631
f 662 631 655
f 663 618 623
f 663 623 664
f 664 623 622
f 664 622 665
f 665 622 621
f 665 621 657
f 657 621 617
f 657 617 658
f 658 617 620
f 658 620 660
f 660 620 619
f 660 619 666
f 666 619 618
f 666 618 663
f 655 634 637
f 655 637 662
f 653 636 635
f 653 635 652
f 652 635 634
f 652 634 655
f 662 637 639
f 662 639 643
f 643 639 638
f 643 638 650
f 650 638 636
f 650 636 653
f 653 612 611
f 653 611 650
f 650 611 613
f 650 613 649
f 649 613 612
f 649 612 653
f 667 668 669
f 667 669 670
f 671 672 673
f 671 673 674
f 675 676 674
f 677 678 679
f 677 679 680
f 681 682 683
f 681 683 684
f 685 686 677
f 685 677 680
f 687 688 689
f 673 675 674
f 690 691 692
f 690 692 693
f 694 695 696
f 692 697 693
f 688 687 698
f 688 698 699
f 700 701 702
f 700 702 703
f 700 704 705
f 700 705 706
f 707 708 709
f 703 704 700
f 709 708 710
f 709 710 711
f 711 712 713
f 711 713 714
f 710 712 711
f 713 715 716
f 713 716 714
f 717 718 719
f 717 719 720
f 718 721 722
f 718 722 719
f 640 641 669
f 640 669 668
f 641 642 670
f 641 670 669
f 642 643 667
f 642 667 670
f 643 640 668
f 643 668 667
f 641 644 683
f 641 683 682
f 644 645 684
f 644 684 683
f 645 642 681
f 645 681 684
f 642 641 682
f 642 682 681
f 644 646 686
f 644 686 685
f 646 647 677
f 646 677 686
f 645 644 685
f 645 685 680
f 647 643 678
f 647 678 677
f 643 642 679
f 643 679 678
f 642 645 680
f 642 680 679
f 646 648 672
f 646 672 671
f 648 649 673
f 648 673 672
f 647 646 671
f 647 671 674
f 649 650 675
f 649 675 673
f 650 643 676
f 650 676 675
f 643 647 674
f 643 674 676
f 649 648 698
f 649 698 687
f 648 651 699
f 648 699 698
f 651 652 688
f 651 688 699
f 652 653 689
f 652 689 688
f 653 649 687
f 653 687 689
f 654 655 697
f 654 697 692
f 655 652 693
f 655 693 697
f 651 656 691
f 651 691 690
f 656 654 692
f 656 692 691
f 652 651 690
f 652 690 693
f 657 643 708
f 657 708 707
f 658 657 707
f 658 707 709
f 655 654 713
f 655 713 712
f 659 660 711
f 659 711 714
f 654 656 715
f 654 715 713
f 656 661 716
f 656 716 715
f 661 659 714
f 661 714 716
f 643 662 710
f 643 710 708
f 660 658 709
f 660 709 711
f 662 655 712
f 662 712 710
f 663 664 704
f 663 704 703
f 664 665 705
f 664 705 704
f 665 657 706
f 665 706 705
f 657 658 700
f 657 700 706
f 658 660 701
f 658 701 700
f 660 666 702
f 660 702 701
f 666 663 703
f 666 703 702
f 655 662 718
f 655 718 717
f 653 652 720
f 653 720 719
f 652 655 717
f 652 717 720
f 662 643 721
f 662 721 718
f 643 650 722
f 643 722 721
f 650 653 719
f 650 719 722
f 653 650 695
f 653 695 694
f 650 649 696
f 650 696 695
f 649 653 694
f 649 694 696
f 11 35 36
f 36 35 11
f 16 36 33
f 33 36 16
f 71 69 38
f 38 69 71
f 72 71 47
f 47 71 72
f 70 72 52
f 52 72 70
f 81 105 106
f 106 105 81
f 84 106 103
f 103 106 84
f 139 137 108
f 108 137 139
f 140 139 115
f 115 139 140
f 138 140 118
f 118 140 138
f 148 168 169
f 169 168 148
f 151 169 166
f 166 169 151
f 197 195 171
f 171 195 197
f 198 197 177
f 177 197 198
f 196 198 180
f 180 198 196
f 200 259 244
f 200 201 223
f 260 229 224
f 224 229 260
f 231 216 264
f 264 216 231
f 309 339 346
f 346 339 309
f 313 304 309
f 309 304 313
f 340 338 345
f 345 338 340
f 289 291 331
f 331 291 289
f 334 278 297
f 297 278 334
f 350 317 318
f 318 317 350
f 149 144 145
f 145 152 149
f 173 178 181
f 181 176 173
f 560 549 550
f 550 549 560