# https://github.com/mikedh/trimesh
v -0.01167503 -0.00847645 0.03920601
v -0.01167503 0.01083093 0.03920601
v 0.00763222 0.01083093 0.03920601
v 0.00763222 -0.00847645 0.03920601
v 0.01455526 0.01828133 0.03580713
v 0.01455526 -0.01466176 0.03580713
v -0.01786034 -0.01466176 0.03569002
v -0.01786034 0.01828133 0.03569002
v -0.02023820 -0.01713719 0.02931650
v 0.01693312 -0.01703948 0.02943348
v 0.01693312 0.01939396 0.02943348
v -0.02023820 0.01939396 0.02931650
v -0.01154240 -0.01709533 0.02902546
v -0.01532005 -0.01709533 0.02448040
v 0.00769458 -0.01639668 0.02420640
v 0.00587457 -0.01645253 0.02391550
v 0.00699759 -0.01636896 0.02339341
v 0.00708712 -0.01601874 0.02309890
v 0.01657069 -0.01568195 0.02755580
v 0.01614161 -0.00339449 0.02752698
v 0.01684026 0.01938745 0.00877314
v 0.01616309 -0.00332672 0.01979163
v 0.01659079 0.01001919 0.00877965
v 0.01445048 0.01731048 0.01820307
v 0.01693312 0.01939396 0.00874500
v -0.02023820 0.01939396 0.00582497
v -0.02018997 -0.00594961 0.02701238
v -0.02023820 0.01939396 0.00581928
v -0.02018997 -0.00993335 0.02730384
v -0.01973330 -0.01676936 0.02701903
v -0.02002989 -0.01538536 0.01214721
v -0.01947399 -0.00610359 0.02098811
v -0.01952222 0.01227467 0.00587639
v 0.01679937 -0.01588319 0.02809493
v 0.01652593 -0.01428548 0.02293661
v 0.01587066 -0.01350492 0.01690250
v 0.01737301 -0.00719668 0.02699214
v 0.01214788 -0.01419623 0.00048979
v -0.01557091 -0.01419623 0.00048979
v -0.00157139 0.00155997 0.00000000
v -0.00185163 0.00155997 0.00000000
v 0.01495164 -0.01524330 0.00333305
v 0.01495164 0.01808300 0.00333305
v 0.01560456 0.01873592 0.00652445
v 0.01560456 -0.01589622 0.00652445
v -0.01837466 -0.01524330 0.00333305
v 0.01214788 0.01527924 0.00048979
v -0.01557091 0.01527924 0.00048979
v -0.01837466 0.01808300 0.00333305
v -0.01902758 0.01873592 0.00652445
v -0.01902758 -0.01589622 0.00652445
v -0.01902758 -0.01589622 0.03130242
v -0.01902758 0.01873592 0.03130242
v 0.01560456 0.01873592 0.03130242
v -0.01700120 0.01670953 0.03482741
v 0.01357817 0.01670953 0.03482741
v 0.01560456 -0.01589622 0.03130242
v -0.00157139 0.00127973 0.00000000
v -0.00185163 0.00127973 0.00000000
v -0.00990006 0.00960840 0.03784585
v 0.00647703 0.00960840 0.03784585
v 0.01357817 -0.01386984 0.03482741
v -0.01700120 -0.01386984 0.03482741
v -0.00990006 -0.00676870 0.03784585
v 0.00647703 -0.00676870 0.03784585
v -0.00064074 0.00034907 0.03815547
v -0.00278229 0.00034907 0.03815547
v -0.00064074 0.00249063 0.03815547
v -0.00278229 0.00249063 0.03815547
f 1 2 3
f 1 3 4
f 4 3 5
f 4 5 6
f 2 1 7
f 2 7 8
f 3 2 8
f 3 8 5
f 1 4 6
f 1 6 7
f 9 10 11
f 9 11 12
f 8 7 9
f 8 9 12
f 5 8 12
f 5 12 11
f 7 6 10
f 7 10 9
f 9 10 13
f 9 13 14
f 13 10 15
f 13 15 16
f 16 15 17
f 16 17 18
f 6 5 11
f 6 11 19
f 10 6 19
f 11 10 19
f 11 19 20
f 11 20 21
f 21 20 22
f 21 22 23
f 11 21 24
f 11 24 25
f 11 12 26
f 11 26 25
f 12 9 27
f 12 27 28
f 27 9 29
f 29 9 30
f 29 30 31
f 28 27 32
f 28 32 33
f 20 19 34
f 20 34 35
f 20 35 36
f 20 36 37
f 38 39 40
f 38 40 41
f 42 43 44
f 42 44 45
f 39 38 42
f 39 42 46
f 38 47 43
f 38 43 42
f 48 39 46
f 48 46 49
f 47 48 49
f 47 49 43
f 50 51 52
f 50 52 53
f 49 46 51
f 49 51 50
f 43 49 50
f 43 50 44
f 46 42 45
f 46 45 51
f 54 53 55
f 54 55 56
f 44 50 53
f 44 53 54
f 51 45 57
f 51 57 52
f 45 44 54
f 45 54 57
f 40 58 59
f 40 59 41
f 47 38 41
f 47 41 59
f 39 48 58
f 39 58 40
f 48 47 59
f 48 59 58
f 56 55 60
f 56 60 61
f 52 57 62
f 52 62 63
f 57 54 56
f 57 56 62
f 53 52 63
f 53 63 55
f 64 65 66
f 64 66 67
f 63 62 65
f 63 65 64
f 62 56 61
f 62 61 65
f 55 63 64
f 55 64 60
f 67 66 68
f 67 68 69
f 65 61 68
f 65 68 66
f 60 64 67
f 60 67 69
f 61 60 69
f 61 69 68
f 8 7 6
f 6 5 8
f 12 11 10
f 10 9 12
f 12 9 7
f 7 8 12
f 11 12 8
f 8 5 11
f 9 10 6
f 6 7 9
f 14 13 10
f 10 9 14
f 16 15 10
f 10 13 16
f 16 17 15
f 18 17 16
f 19 11 5
f 5 6 19
f 10 19 6
f 11 19 10
f 21 20 19
f 19 11 21
f 23 22 20
f 20 21 23
f 25 24 11
f 21 11 24
f 25 26 12
f 12 11 25
f 28 27 9
f 9 12 28
f 33 32 27
f 27 28 33
f 34 19 20
f 34 20 36
f 36 35 34
f 36 20 37
f 41 40 39
f 39 38 41
f 45 44 43
f 43 42 45
f 46 42 38
f 38 39 46
f 42 43 47
f 47 38 42
f 49 46 39
f 39 48 49
f 43 49 48
f 48 47 43
f 53 52 51
f 51 50 53
f 50 51 46
f 46 49 50
f 44 50 49
f 49 43 44
f 51 45 42
f 42 46 51
f 56 55 53
f 53 54 56
f 54 53 50
f 50 44 54
f 52 57 45
f 45 51 52
f 57 54 44
f 44 45 57
f 41 59 58
f 58 40 41
f 59 41 38
f 38 47 59
f 40 58 48
f 48 39 40
f 58 59 47
f 47 48 58
f 61 60 55
f 55 56 61
f 63 62 57
f 57 52 63
f 62 56 54
f 54 57 62
f 55 63 52
f 52 53 55
f 67 66 65
f 65 64 67
f 64 65 62
f 62 63 64
f 65 61 56
f 56 62 65
f 60 64 63
f 63 55 60
f 69 68 66
f 66 67 69
f 66 68 61
f 61 65 66
f 69 67 64
f 64 60 69
f 68 69 60
f 60 61 68