# https://github.com/mikedh/trimesh
v 0.00210928 -0.00036420 0.00363976
v 0.00231508 -0.00015346 0.00451549
v 0.00248582 0.00027637 0.00448646
v 0.00223384 0.00001834 0.00341422
v 0.00257440 -0.00102428 0.00320190
v 0.00280332 -0.00078984 0.00287810
v 0.00324530 -0.00147361 0.00363976
v 0.00362478 -0.00134003 0.00341422
v 0.00345109 -0.00126288 0.00451549
v 0.00387676 -0.00108201 0.00448646
v 0.00298599 -0.00060281 0.00495335
v 0.00330728 -0.00027382 0.00502258
v 0.00543893 0.00079018 0.00289497
v 0.00477840 0.00123258 0.00246387
v 0.00716666 0.00384198 0.00189208
v 0.00774730 0.00313416 0.00191512
v 0.00432049 0.00188244 0.00289497
v 0.00674485 0.00470621 0.00229170
v 0.00452311 0.00208991 0.00375714
v 0.00682575 0.00469491 0.00309094
v 0.00518363 0.00164751 0.00418823
v 0.00746273 0.00416259 0.00349055
v 0.00564155 0.00099765 0.00375714
v 0.00799691 0.00335674 0.00309094
v 0.00251850 -0.00067966 0.00381879
v 0.00264015 -0.00055509 0.00433645
v 0.00265854 -0.00093811 0.00355997
v 0.00292023 -0.00107199 0.00381879
v 0.00304188 -0.00094742 0.00433645
v 0.00290184 -0.00068897 0.00459528
v 0.00166893 -0.00154959 0.00395886
v 0.00170987 -0.00150766 0.00450187
v 0.00184933 -0.00176671 0.00368736
v 0.00207066 -0.00194192 0.00395886
v 0.00211161 -0.00190000 0.00450187
v 0.00193121 -0.00168286 0.00477337
v 0.00131858 -0.00190833 0.00375954
v 0.00107328 -0.00215952 0.00417792
v 0.00164210 -0.00197891 0.00355037
v 0.00172032 -0.00230066 0.00375954
v 0.00147502 -0.00255184 0.00417792
v 0.00115151 -0.00248127 0.00438709
v 0.00071092 -0.00253056 0.00277379
v 0.00039025 -0.00285892 0.00302668
v 0.00107213 -0.00256254 0.00264734
v 0.00111265 -0.00292289 0.00277379
v 0.00079197 -0.00325125 0.00302668
v 0.00043078 -0.00321926 0.00315313
v 0.00049495 -0.00275170 0.00185797
v 0.00025145 -0.00300105 0.00189406
v 0.00081759 -0.00282319 0.00183994
v 0.00089669 -0.00314404 0.00185797
v 0.00065318 -0.00339338 0.00189406
v 0.00033056 -0.00332189 0.00191211
v 0.00080348 -0.00283764 0.00088045
v 0.01489136 -0.00107381 0.00324882
v 0.01471524 -0.00089765 0.00413854
v 0.01428682 -0.00072114 0.00413152
v 0.01450246 -0.00093681 0.00304214
v 0.01554087 -0.00060054 0.00280396
v 0.01529773 -0.00035735 0.00249744
v 0.01601427 0.00004887 0.00324882
v 0.01587735 0.00043780 0.00304214
v 0.01583815 0.00022503 0.00413854
v 0.01566171 0.00065348 0.00413152
v 0.01518864 -0.00024824 0.00458340
v 0.01486645 0.00007401 0.00467621
v 0.01375268 0.00229355 0.00266723
v 0.01328661 0.00165417 0.00222925
v 0.01088526 0.00391086 0.00181215
v 0.01124216 0.00482759 0.00222458
v 0.01264715 0.00118823 0.00266723
v 0.01040654 0.00337717 0.00222457
v 0.01247375 0.00136165 0.00354319
v 0.01037700 0.00344519 0.00304942
v 0.01293983 0.00200103 0.00398118
v 0.01068500 0.00437158 0.00346183
v 0.01357929 0.00246697 0.00354319
v 0.01122738 0.00487146 0.00304942
v 0.01521826 -0.00067496 0.00343072
v 0.01511415 -0.00057084 0.00395665
v 0.01546886 -0.00052852 0.00316775
v 0.01561536 -0.00027794 0.00343071
v 0.01551125 -0.00017381 0.00395665
v 0.01526065 -0.00032027 0.00421961
v 0.01608192 -0.00153882 0.00350802
v 0.01606032 -0.00151719 0.00405332
v 0.01629128 -0.00135111 0.00323537
v 0.01647903 -0.00114180 0.00350802
v 0.01645742 -0.00112018 0.00405332
v 0.01624806 -0.00130787 0.00432596
v 0.01642875 -0.00188570 0.00328317
v 0.01669188 -0.00214888 0.00368290
v 0.01649574 -0.00155560 0.00308329
v 0.01682586 -0.00148867 0.00328317
v 0.01708897 -0.00175185 0.00368290
v 0.01702198 -0.00208195 0.00388278
v 0.01700699 -0.00246406 0.00225395
v 0.01734027 -0.00279741 0.00248290
v 0.01703890 -0.00209888 0.00213947
v 0.01740409 -0.00206704 0.00225395
v 0.01773738 -0.00240039 0.00248290
v 0.01770547 -0.00276558 0.00259737
v 0.01719192 -0.00264904 0.00132345
v 0.01743934 -0.00289649 0.00134154
v 0.01726677 -0.00232679 0.00131440
v 0.01758903 -0.00225201 0.00132345
v 0.01783644 -0.00249947 0.00134154
v 0.01776159 -0.00282171 0.00135060
v 0.01724612 -0.00230613 0.00035514
v 0.00949987 0.00958228 0.00255175
v 0.00950293 0.00939548 0.00314244
v 0.00970721 0.00907159 0.00312974
v 0.00970303 0.00931391 0.00231471
v 0.00896609 0.00966492 0.00225575
v 0.00897042 0.00942030 0.00190657
v 0.00843537 0.00956076 0.00255045
v 0.00824202 0.00928436 0.00231344
v 0.00843843 0.00937397 0.00314114
v 0.00824620 0.00904204 0.00312846
v 0.00897220 0.00929132 0.00343713
v 0.00897880 0.00893566 0.00353661
v 0.00901129 0.00738111 0.00167975
v 0.00840012 0.00733726 0.00199343
v 0.00962375 0.00736203 0.00199343
v 0.00962503 0.00729908 0.00284533
v 0.00901484 0.00721322 0.00321508
v 0.00840139 0.00727431 0.00284533
v 0.00915647 0.00953714 0.00267210
v 0.00915827 0.00942671 0.00302126
v 0.00896735 0.00958854 0.00249728
v 0.00878002 0.00952953 0.00267163
v 0.00878182 0.00941911 0.00302080
v 0.00897095 0.00936770 0.00319561
v 0.00914544 0.01014690 0.00298183
v 0.00914905 0.00996783 0.00330126
v 0.00895538 0.01023262 0.00282211
v 0.00876898 0.01013928 0.00298183
v 0.00877260 0.00996020 0.00330126
v 0.00896264 0.00987449 0.00346097
v 0.00913811 0.01050853 0.00299094
v 0.00913596 0.01061486 0.00334137
v 0.00895096 0.01045155 0.00281572
v 0.00876166 0.01050091 0.00299093
v 0.00875951 0.01060724 0.00334137
v 0.00894666 0.01066422 0.00351659
v 0.00912200 0.01130425 0.00261203
v 0.00911762 0.01152065 0.00288883
v 0.00893597 0.01119223 0.00247364
v 0.00874556 0.01129663 0.00261203
v 0.00874117 0.01151304 0.00288883
v 0.00892720 0.01162505 0.00302723
v 0.00911331 0.01173337 0.00213347
v 0.00910905 0.01194381 0.00223786
v 0.00892722 0.01162434 0.00208127
v 0.00873686 0.01172576 0.00213347
v 0.00873260 0.01193619 0.00223786
v 0.00891870 0.01204522 0.00229006
v 0.00910997 0.01189822 0.00148527
v 0.00892174 0.01189441 0.00148527
v 0.00873353 0.01189061 0.00148527
v 0.00826123 -0.00367495 0.00384931
v 0.00826123 -0.00337713 0.00472395
v 0.00808307 -0.00295044 0.00469333
v 0.00808307 -0.00331508 0.00362244
v 0.00905517 -0.00382385 0.00341201
v 0.00905517 -0.00349739 0.00308699
v 0.00984910 -0.00367495 0.00384931
v 0.01002727 -0.00331508 0.00362244
v 0.00984910 -0.00337713 0.00472395
v 0.01002727 -0.00295044 0.00469333
v 0.00905517 -0.00322823 0.00516125
v 0.00905517 -0.00276812 0.00522878
v 0.00983683 -0.00052550 0.00309279
v 0.00905517 -0.00067209 0.00266225
v 0.00905517 0.00261583 0.00210902
v 0.00987366 0.00300462 0.00228954
v 0.00827352 -0.00052550 0.00309279
v 0.00823667 0.00300462 0.00228954
v 0.00827352 -0.00023229 0.00395390
v 0.00823667 0.00359809 0.00343143
v 0.00905517 -0.00008569 0.00438444
v 0.00905517 0.00361074 0.00382322
v 0.00983683 -0.00023229 0.00395390
v 0.00987366 0.00359809 0.00343143
v 0.00877441 -0.00361406 0.00402814
v 0.00877441 -0.00343803 0.00454514
v 0.00905517 -0.00370208 0.00376962
v 0.00933593 -0.00361406 0.00402812
v 0.00933593 -0.00343803 0.00454514
v 0.00905517 -0.00334999 0.00480364
v 0.00877440 -0.00482949 0.00417272
v 0.00877440 -0.00476886 0.00471550
v 0.00905517 -0.00485979 0.00390132
v 0.00933593 -0.00482949 0.00417272
v 0.00933593 -0.00476886 0.00471550
v 0.00905517 -0.00473856 0.00498690
v 0.00877440 -0.00533166 0.00397527
v 0.00877440 -0.00568118 0.00439494
v 0.00905517 -0.00515690 0.00376544
v 0.00933593 -0.00533166 0.00397527
v 0.00933593 -0.00568119 0.00439494
v 0.00905517 -0.00585595 0.00460478
v 0.00877440 -0.00620505 0.00299276
v 0.00877440 -0.00666308 0.00324735
v 0.00905517 -0.00597604 0.00286546
v 0.00933593 -0.00620505 0.00299276
v 0.00933593 -0.00666308 0.00324735
v 0.00905517 -0.00689209 0.00337466
v 0.00877440 -0.00651755 0.00207810
v 0.00877440 -0.00686595 0.00211548
v 0.00905517 -0.00634336 0.00205941
v 0.00933593 -0.00651755 0.00207810
v 0.00933593 -0.00686595 0.00211548
v 0.00905517 -0.00704015 0.00213418
v 0.00905517 -0.00636712 0.00110000
v 0.00555891 -0.00028175 0.02141569
v 0.00555891 0.00762862 0.02008709
v 0.00648668 0.00772729 0.01865068
v 0.00648668 0.00339575 0.01865069
v 0.00901583 0.01028528 0.02221700
v 0.00901583 0.00938135 0.01865068
v 0.01278530 0.00928912 0.02572953
v 0.01154497 0.00772730 0.01865068
v 0.01336105 0.00273972 0.02693635
v 0.01154497 0.00339575 0.01865069
v 0.00901583 0.00183296 0.01865070
v 0.00901583 -0.00046148 0.02370060
v 0.00703754 0.00721137 0.01766854
v 0.00703754 0.00403695 0.01766854
v 0.00901583 0.00854134 0.01766853
v 0.01099411 0.00721137 0.01766854
v 0.01099411 0.00403695 0.01766854
v 0.00901583 0.00275286 0.01766855
v 0.00759442 0.00468516 0.01205368
v 0.00759442 0.00668980 0.01205368
v 0.00770001 0.00640695 0.00721900
v 0.00770001 0.00471818 0.00721901
v 0.00901583 0.00769214 0.01205367
v 0.00910301 0.00720564 0.00721900
v 0.01043723 0.00668980 0.01205368
v 0.01050600 0.00640696 0.00721900
v 0.01043723 0.00468516 0.01205368
v 0.01050600 0.00475593 0.00721901
v 0.00901583 0.00368282 0.01205368
v 0.00910301 0.00410328 0.00721901
v 0.01037371 0.00485503 0.00407667
v 0.00901583 0.00423349 0.00434409
v 0.00901583 0.00321102 0.00167736
v 0.01049739 0.00396383 0.00167736
v 0.00765794 0.00476774 0.00407667
v 0.00753427 0.00396383 0.00167736
v 0.00765794 0.00631063 0.00336144
v 0.00786578 0.00601338 0.00167736
v 0.00901583 0.00708835 0.00167736
v 0.01037370 0.00631063 0.00336144
v 0.01016588 0.00601338 0.00167736
v -0.00001136 -0.00120999 0.02108887
v -0.00001136 0.00556780 0.01798275
v 0.01669863 0.01002071 0.03090364
v 0.01769437 0.00326043 0.03341251
v 0.01474635 0.01262525 0.04387668
v 0.01598707 0.00643944 0.04750665
v 0.01921711 0.00477895 0.04114008
v 0.01795887 0.01127283 0.03777815
v -0.00001136 0.01365319 0.05118906
v -0.00001136 0.00820700 0.05507278
v 0.00881824 0.00775482 0.05298318
v 0.00811017 0.01345570 0.04912547
v 0.01127328 -0.00544275 0.02899689
v -0.00001136 -0.00628312 0.02446776
v 0.01709556 -0.00459142 0.03582368
v 0.01593241 0.00070976 0.05012012
v 0.01903251 -0.00191094 0.04387511
v -0.00001136 0.00406090 0.05753406
v 0.00882949 0.00309815 0.05547783
v 0.00593837 0.01294391 0.02008505
v 0.01135868 0.01392157 0.02323598
v -0.00001136 0.01196106 0.01766142
v 0.01537451 0.01525419 0.02747782
v 0.01643336 0.01683634 0.03246178
v 0.01313247 0.01883976 0.03830969
v 0.00720238 0.02005141 0.04282294
v -0.00001136 0.02040155 0.04460203
v 0.00858363 -0.01498538 0.03574305
v -0.00001136 -0.01570763 0.03343815
v 0.01497378 -0.01219692 0.04090281
v 0.01454560 -0.00433660 0.05288796
v 0.01727827 -0.00786723 0.04773941
v -0.00001136 0.00024250 0.05915650
v 0.00808543 -0.00108015 0.05740225
v 0.00728118 -0.02027466 0.04442143
v -0.00001136 -0.02145047 0.04288470
v 0.01269712 -0.01669768 0.04791427
v 0.01211900 -0.00801759 0.05619023
v 0.01444387 -0.01193680 0.05248851
v -0.00001136 -0.00333275 0.06107464
v 0.00674411 -0.00464394 0.05963607
v 0.00544934 -0.02205113 0.05234323
v -0.00001136 -0.02324727 0.05132007
v 0.00951157 -0.01872520 0.05467831
v 0.00898818 -0.01105194 0.06016729
v 0.01077917 -0.01443502 0.05766757
v -0.00001136 -0.00700030 0.06356356
v 0.00500635 -0.00815579 0.06253615
v 0.00440657 0.01696800 0.01833982
v 0.00874191 0.01864734 0.02046467
v -0.00001136 0.01615934 0.01715524
v 0.01213312 0.02052377 0.02292124
v 0.01277111 0.02316266 0.02645522
v 0.00949396 0.02596950 0.03029509
v 0.00511320 0.02748233 0.03295707
v -0.00001136 0.02794155 0.03404699
v 0.00421026 -0.02223817 0.05850446
v -0.00001136 -0.02323544 0.05778093
v 0.00736508 -0.01947847 0.06024742
v 0.00689231 -0.01331082 0.06426930
v 0.00835532 -0.01588116 0.06253402
v -0.00001136 -0.01013391 0.06671088
v 0.00381276 -0.01104620 0.06596704
v 0.00382717 -0.02340535 0.06233188
v -0.00001136 -0.02455914 0.06192885
v 0.00666152 -0.02069395 0.06382457
v 0.00635156 -0.01528693 0.06815989
v 0.00762601 -0.01745422 0.06600172
v -0.00001136 -0.01318050 0.07131672
v 0.00354051 -0.01371855 0.07032738
v 0.00346049 -0.02445025 0.06583931
v -0.00001136 -0.02562698 0.06576416
v 0.00597919 -0.02190078 0.06705117
v 0.00578562 -0.01744339 0.07140062
v 0.00691587 -0.01910263 0.06910880
v -0.00001136 -0.01651542 0.07498976
v 0.00323321 -0.01662975 0.07384244
v -0.00001136 -0.02542936 0.06729923
v 0.00279707 -0.02445643 0.06730463
v 0.00243004 -0.02417597 0.06841445
v -0.00001136 -0.02486182 0.06839790
v 0.00487596 -0.02218934 0.06818692
v 0.00430336 -0.02244556 0.06920280
v 0.00569885 -0.01977919 0.06999312
v 0.00476191 -0.01845024 0.07192061
v 0.00406310 -0.01935617 0.07201400
v 0.00491655 -0.02041567 0.07063946
v 0.00266211 -0.01788914 0.07418919
v -0.00001136 -0.01787822 0.07529385
v -0.00001136 -0.01918053 0.07484741
v 0.00223726 -0.01905023 0.07390040
v 0.00236643 -0.02474928 0.06862934
v -0.00001136 -0.02527988 0.06819088
v 0.00413389 -0.02342514 0.07004417
v 0.00384973 -0.02089964 0.07359434
v 0.00466056 -0.02179554 0.07199651
v -0.00001136 -0.02039140 0.07605527
v 0.00213693 -0.02045326 0.07527772
v 0.00230640 -0.02539185 0.06884256
v -0.00001136 -0.02572516 0.06817944
v 0.00404650 -0.02452403 0.07060258
v 0.00383558 -0.02277820 0.07482866
v 0.00457754 -0.02342419 0.07287824
v -0.00001136 -0.02232086 0.07711682
v 0.00215424 -0.02241644 0.07644023
v -0.00001136 -0.02639207 0.06836838
v 0.00181523 -0.02641842 0.06897468
v 0.00148046 -0.02685665 0.06890585
v -0.00001136 -0.02667866 0.06848745
v 0.00323244 -0.02650436 0.07052681
v 0.00261911 -0.02730761 0.07000578
v 0.00371241 -0.02664872 0.07251739
v 0.00315764 -0.02681125 0.07427739
v 0.00254948 -0.02838304 0.07276367
v 0.00298485 -0.02791188 0.07140296
v 0.00178390 -0.02702478 0.07554288
v -0.00001136 -0.02714435 0.07603287
v -0.00001136 -0.02899628 0.07390910
v 0.00143990 -0.02879968 0.07361688
v -0.00000973 -0.02838257 0.06781020
v 0.00156551 -0.02888946 0.06840192
v 0.00165725 -0.02970749 0.06934794
v -0.00001023 -0.03041486 0.07012789
v 0.00088283 -0.03066116 0.06651849
v -0.00001049 -0.03038130 0.06619178
v -0.00001080 -0.03150757 0.06747621
v 0.00093760 -0.03111489 0.06704319
v 0.00042770 -0.03078403 0.06594268
v -0.00001099 -0.03058650 0.06594904
v -0.00001116 -0.03137792 0.06591432
v 0.00045775 -0.03110604 0.06593076
v -0.00001136 -0.03065699 0.06523271
v 0.00204305 -0.02471282 0.07659869
v -0.00001136 -0.02471078 0.07723436
v 0.00362491 -0.02481585 0.07504732
v 0.00429638 -0.02509373 0.07307547
v 0.00376241 -0.02556225 0.07073768
v 0.00212891 -0.02594355 0.06891139
v -0.00001136 -0.02609325 0.06819331
v 0.00312324 0.02099687 0.01602784
v 0.00627138 0.02290434 0.01700632
v -0.00001136 0.01960788 0.01511678
v 0.00871488 0.02463597 0.01749566
v 0.00927104 0.02760460 0.01877674
v 0.00691471 0.03040416 0.02043490
v 0.00373130 0.03195595 0.02148644
v -0.00001136 0.03263552 0.02204515
v -0.00001136 0.02298248 0.01399135
v 0.00534860 0.02660617 0.01305295
v 0.00641631 0.03067674 0.01195039
v 0.00419359 0.03392062 0.01432363
v -0.00001136 0.03535174 0.01549223
v -0.00001136 0.02688116 0.01171781
v 0.00528756 0.03040608 0.01089942
v -0.00000998 0.03340430 0.01069828
v 0.00474579 0.03400981 0.00740472
v -0.00001280 0.03621799 0.00762947
v -0.00001136 0.03167030 0.00755718
v -0.00250855 0.00027637 0.00448646
v -0.00233780 -0.00015346 0.00451549
v -0.00213200 -0.00036420 0.00363976
v -0.00225656 0.00001834 0.00341422
v -0.00259712 -0.00102428 0.00320190
v -0.00282605 -0.00078984 0.00287810
v -0.00326802 -0.00147361 0.00363976
v -0.00364751 -0.00134003 0.00341422
v -0.00347381 -0.00126288 0.00451549
v -0.00389948 -0.00108201 0.00448646
v -0.00300871 -0.00060281 0.00495335
v -0.00333000 -0.00027382 0.00502258
v -0.00718938 0.00384198 0.00189208
v -0.00480112 0.00123258 0.00246387
v -0.00546165 0.00079018 0.00289497
v -0.00777002 0.00313416 0.00191512
v -0.00676757 0.00470621 0.00229170
v -0.00434321 0.00188244 0.00289497
v -0.00684847 0.00469491 0.00309094
v -0.00454582 0.00208991 0.00375714
v -0.00748545 0.00416259 0.00349055
v -0.00520635 0.00164751 0.00418823
v -0.00801963 0.00335674 0.00309094
v -0.00566427 0.00099765 0.00375714
v -0.00254122 -0.00067966 0.00381879
v -0.00266286 -0.00055509 0.00433645
v -0.00268126 -0.00093811 0.00355997
v -0.00294295 -0.00107199 0.00381879
v -0.00306461 -0.00094742 0.00433645
v -0.00292456 -0.00068897 0.00459528
v -0.00169164 -0.00154959 0.00395886
v -0.00173259 -0.00150766 0.00450187
v -0.00187205 -0.00176671 0.00368736
v -0.00209339 -0.00194192 0.00395886
v -0.00213433 -0.00190000 0.00450187
v -0.00195393 -0.00168286 0.00477337
v -0.00134130 -0.00190833 0.00375954
v -0.00109600 -0.00215952 0.00417792
v -0.00166482 -0.00197891 0.00355037
v -0.00174304 -0.00230066 0.00375954
v -0.00149774 -0.00255184 0.00417792
v -0.00117423 -0.00248127 0.00438709
v -0.00073364 -0.00253056 0.00277379
v -0.00041297 -0.00285892 0.00302668
v -0.00109485 -0.00256254 0.00264734
v -0.00113538 -0.00292289 0.00277379
v -0.00081470 -0.00325125 0.00302668
v -0.00045350 -0.00321926 0.00315313
v -0.00051767 -0.00275170 0.00185797
v -0.00027417 -0.00300105 0.00189406
v -0.00084030 -0.00282319 0.00183994
v -0.00091941 -0.00314404 0.00185797
v -0.00067590 -0.00339338 0.00189406
v -0.00035328 -0.00332189 0.00191211
v -0.00082620 -0.00283764 0.00088045
v -0.01430954 -0.00072114 0.00413152
v -0.01473796 -0.00089765 0.00413854
v -0.01491408 -0.00107381 0.00324882
v -0.01452518 -0.00093681 0.00304214
v -0.01556359 -0.00060054 0.00280396
v -0.01532045 -0.00035735 0.00249744
v -0.01603699 0.00004887 0.00324882
v -0.01590007 0.00043780 0.00304214
v -0.01586087 0.00022503 0.00413854
v -0.01568443 0.00065348 0.00413152
v -0.01521136 -0.00024824 0.00458340
v -0.01488917 0.00007401 0.00467621
v -0.01090799 0.00391086 0.00181215
v -0.01330933 0.00165417 0.00222925
v -0.01377540 0.00229355 0.00266723
v -0.01126488 0.00482759 0.00222458
v -0.01042926 0.00337717 0.00222457
v -0.01266987 0.00118823 0.00266723
v -0.01039972 0.00344519 0.00304942
v -0.01249647 0.00136165 0.00354319
v -0.01070772 0.00437158 0.00346183
v -0.01296255 0.00200103 0.00398118
v -0.01125010 0.00487146 0.00304942
v -0.01360202 0.00246697 0.00354319
v -0.01524099 -0.00067496 0.00343072
v -0.01513687 -0.00057084 0.00395665
v -0.01549158 -0.00052852 0.00316775
v -0.01563808 -0.00027794 0.00343071
v -0.01553398 -0.00017381 0.00395665
v -0.01528337 -0.00032027 0.00421961
v -0.01610464 -0.00153882 0.00350802
v -0.01608304 -0.00151719 0.00405332
v -0.01631401 -0.00135111 0.00323537
v -0.01650176 -0.00114180 0.00350802
v -0.01648014 -0.00112018 0.00405332
v -0.01627078 -0.00130787 0.00432596
v -0.01645147 -0.00188570 0.00328317
v -0.01671459 -0.00214888 0.00368290
v -0.01651846 -0.00155560 0.00308329
v -0.01684857 -0.00148867 0.00328317
v -0.01711169 -0.00175185 0.00368290
v -0.01704471 -0.00208195 0.00388278
v -0.01702971 -0.00246406 0.00225395
v -0.01736300 -0.00279741 0.00248290
v -0.01706163 -0.00209888 0.00213947
v -0.01742681 -0.00206704 0.00225395
v -0.01776009 -0.00240039 0.00248290
v -0.01772819 -0.00276558 0.00259737
v -0.01721464 -0.00264904 0.00132345
v -0.01746205 -0.00289649 0.00134154
v -0.01728949 -0.00232679 0.00131440
v -0.01761175 -0.00225201 0.00132345
v -0.01785915 -0.00249947 0.00134154
v -0.01778431 -0.00282171 0.00135060
v -0.01726884 -0.00230613 0.00035514
v -0.00972993 0.00907159 0.00312974
v -0.00952565 0.00939548 0.00314244
v -0.00952259 0.00958228 0.00255175
v -0.00972575 0.00931391 0.00231471
v -0.00898882 0.00966492 0.00225575
v -0.00899314 0.00942030 0.00190657
v -0.00845810 0.00956076 0.00255045
v -0.00826474 0.00928436 0.00231344
v -0.00846115 0.00937397 0.00314114
v -0.00826892 0.00904204 0.00312846
v -0.00899492 0.00929132 0.00343713
v -0.00900152 0.00893566 0.00353661
v -0.00903401 0.00738111 0.00167975
v -0.00842284 0.00733726 0.00199343
v -0.00964647 0.00736203 0.00199343
v -0.00964774 0.00729908 0.00284533
v -0.00903756 0.00721322 0.00321508
v -0.00842411 0.00727431 0.00284533
v -0.00917919 0.00953714 0.00267210
v -0.00918100 0.00942671 0.00302126
v -0.00899007 0.00958854 0.00249728
v -0.00880274 0.00952953 0.00267163
v -0.00880454 0.00941911 0.00302080
v -0.00899367 0.00936770 0.00319561
v -0.00916815 0.01014690 0.00298183
v -0.00917177 0.00996783 0.00330126
v -0.00897811 0.01023262 0.00282211
v -0.00879170 0.01013928 0.00298183
v -0.00879532 0.00996020 0.00330126
v -0.00898536 0.00987449 0.00346097
v -0.00916083 0.01050853 0.00299094
v -0.00915868 0.01061486 0.00334137
v -0.00897368 0.01045155 0.00281572
v -0.00878438 0.01050091 0.00299093
v -0.00878223 0.01060724 0.00334137
v -0.00896938 0.01066422 0.00351659
v -0.00914472 0.01130425 0.00261203
v -0.00914034 0.01152065 0.00288883
v -0.00895869 0.01119223 0.00247364
v -0.00876828 0.01129663 0.00261203
v -0.00876389 0.01151304 0.00288883
v -0.00894992 0.01162505 0.00302723
v -0.00913603 0.01173337 0.00213347
v -0.00913177 0.01194381 0.00223786
v -0.00894994 0.01162434 0.00208127
v -0.00875959 0.01172576 0.00213347
v -0.00875532 0.01193619 0.00223786
v -0.00894142 0.01204522 0.00229006
v -0.00894447 0.01189441 0.00148527
v -0.00810579 -0.00295044 0.00469333
v -0.00828395 -0.00337713 0.00472395
v -0.00828395 -0.00367495 0.00384931
v -0.00810579 -0.00331508 0.00362244
v -0.00907789 -0.00382385 0.00341201
v -0.00907789 -0.00349739 0.00308699
v -0.00987182 -0.00367495 0.00384931
v -0.01004999 -0.00331508 0.00362244
v -0.00987182 -0.00337713 0.00472395
v -0.01004999 -0.00295044 0.00469333
v -0.00907789 -0.00322823 0.00516125
v -0.00907789 -0.00276812 0.00522878
v -0.00907789 0.00261583 0.00210902
v -0.00907789 -0.00067209 0.00266225
v -0.00985955 -0.00052550 0.00309279
v -0.00989638 0.00300462 0.00228954
v -0.00825939 0.00300462 0.00228954
v -0.00829624 -0.00052550 0.00309279
v -0.00825939 0.00359809 0.00343143
v -0.00829624 -0.00023229 0.00395390
v -0.00907789 0.00361074 0.00382322
v -0.00907789 -0.00008569 0.00438444
v -0.00989638 0.00359809 0.00343143
v -0.00985955 -0.00023229 0.00395390
v -0.00879713 -0.00361406 0.00402814
v -0.00879713 -0.00343803 0.00454514
v -0.00907789 -0.00370208 0.00376962
v -0.00935865 -0.00361406 0.00402812
v -0.00935865 -0.00343803 0.00454514
v -0.00907789 -0.00334999 0.00480364
v -0.00879712 -0.00482949 0.00417272
v -0.00879712 -0.00476886 0.00471550
v -0.00907789 -0.00485979 0.00390132
v -0.00935865 -0.00482949 0.00417272
v -0.00935865 -0.00476886 0.00471550
v -0.00907789 -0.00473856 0.00498690
v -0.00879712 -0.00533166 0.00397527
v -0.00879712 -0.00568118 0.00439494
v -0.00907789 -0.00515690 0.00376544
v -0.00935865 -0.00533166 0.00397527
v -0.00935865 -0.00568119 0.00439494
v -0.00907789 -0.00585595 0.00460478
v -0.00879712 -0.00620505 0.00299276
v -0.00879712 -0.00666308 0.00324735
v -0.00907789 -0.00597604 0.00286546
v -0.00935865 -0.00620505 0.00299276
v -0.00935865 -0.00666308 0.00324735
v -0.00907789 -0.00689209 0.00337466
v -0.00879712 -0.00651755 0.00207810
v -0.00879712 -0.00686595 0.00211548
v -0.00907789 -0.00634336 0.00205941
v -0.00935865 -0.00651755 0.00207810
v -0.00935865 -0.00686595 0.00211548
v -0.00907789 -0.00704015 0.00213418
v -0.00907789 -0.00636712 0.00110000
v -0.00650941 0.00772729 0.01865068
v -0.00558163 0.00762862 0.02008709
v -0.00558163 -0.00028175 0.02141569
v -0.00650941 0.00339575 0.01865069
v -0.00903855 0.00938135 0.01865068
v -0.00903855 0.01028528 0.02221700
v -0.01156769 0.00772730 0.01865068
v -0.01280802 0.00928912 0.02572953
v -0.01156769 0.00339575 0.01865069
v -0.01338377 0.00273972 0.02693635
v -0.00903855 0.00183296 0.01865070
v -0.00903855 -0.00046148 0.02370060
v -0.00761714 0.00668980 0.01205368
v -0.00705919 0.00721237 0.01767111
v -0.00705919 0.00403570 0.01767111
v -0.00761714 0.00468516 0.01205368
v -0.00903855 0.00854296 0.01767111
v -0.00903855 0.00769214 0.01205367
v -0.01045995 0.00668980 0.01205368
v -0.01101790 0.00721238 0.01767111
v -0.01045995 0.00468516 0.01205368
v -0.01101790 0.00403570 0.01767111
v -0.00903855 0.00368282 0.01205368
v -0.00903855 0.00275108 0.01767111
v -0.00772274 0.00640695 0.00721900
v -0.00772274 0.00471818 0.00721901
v -0.00912573 0.00720564 0.00721900
v -0.01052873 0.00640696 0.00721900
v -0.01052873 0.00475593 0.00721901
v -0.00912573 0.00410328 0.00721901
v -0.00903855 0.00423349 0.00434409
v -0.01039643 0.00485503 0.00407667
v -0.01052011 0.00396383 0.00167736
v -0.00903855 0.00321102 0.00167736
v -0.00768066 0.00476774 0.00407667
v -0.00755699 0.00396383 0.00167736
v -0.00768066 0.00631063 0.00336144
v -0.00788850 0.00601338 0.00167736
v -0.00903855 0.00708835 0.00167736
v -0.01039643 0.00631063 0.00336144
v -0.01018860 0.00601338 0.00167736
v -0.01771708 0.00326043 0.03341251
v -0.01672142 0.01002074 0.03090361
v -0.01923983 0.00477895 0.04114008
v -0.01600979 0.00643944 0.04750665
v -0.01476909 0.01262525 0.04387668
v -0.01798164 0.01127284 0.03777812
v -0.00881354 0.00774810 0.05308890
v -0.00810254 0.01343134 0.04923423
v -0.01129600 -0.00544275 0.02899689
v -0.01712041 -0.00459288 0.03582063
v -0.01905719 -0.00191193 0.04387332
v -0.01595633 0.00070933 0.05011940
v -0.00882402 0.00312361 0.05557802
v -0.00596109 0.01294391 0.02008505
v -0.01138215 0.01392087 0.02323455
v -0.01539784 0.01525371 0.02747686
v -0.01315537 0.01883969 0.03830953
v -0.01645647 0.01683615 0.03246137
v -0.00720917 0.02003100 0.04288660
v -0.00857206 -0.01511651 0.03567624
v -0.01499677 -0.01228806 0.04085540
v -0.01457888 -0.00435264 0.05287595
v -0.01731346 -0.00790876 0.04771577
v -0.00808362 -0.00102290 0.05748431
v -0.00727027 -0.02038979 0.04437248
v -0.01272034 -0.01677791 0.04787917
v -0.01215144 -0.00803297 0.05618066
v -0.01447803 -0.01197440 0.05247039
v -0.00674365 -0.00459607 0.05971110
v -0.00544263 -0.02213594 0.05230481
v -0.00953389 -0.01878475 0.05465109
v -0.00901848 -0.01106421 0.06016023
v -0.01081058 -0.01446349 0.05765355
v -0.00501012 -0.00811062 0.06258537
v -0.00440418 0.01692426 0.01828522
v -0.00875915 0.01861628 0.02042642
v -0.01215782 0.02050817 0.02290168
v -0.01279706 0.02315597 0.02644659
v -0.00951906 0.02596674 0.03029117
v -0.00512766 0.02745632 0.03300694
v -0.00420718 -0.02230587 0.05846672
v -0.00738727 -0.01952629 0.06022075
v -0.00692156 -0.01332096 0.06426308
v -0.00838560 -0.01590400 0.06252085
v -0.00381701 -0.01100050 0.06600968
v -0.00382764 -0.02346743 0.06232115
v -0.00668270 -0.02073641 0.06381515
v -0.00637863 -0.01529495 0.06815571
v -0.00765356 -0.01747376 0.06599525
v -0.00355143 -0.01370111 0.07036372
v -0.00346819 -0.02449165 0.06585857
v -0.00599937 -0.02192808 0.06706246
v -0.00580921 -0.01744809 0.07140048
v -0.00693932 -0.01911505 0.06911218
v -0.00323878 -0.01663876 0.07388811
v -0.00245210 -0.02417746 0.06840114
v -0.00281204 -0.02447766 0.06730420
v -0.00432663 -0.02244675 0.06919336
v -0.00489792 -0.02220345 0.06818525
v -0.00408675 -0.01935633 0.07201223
v -0.00478572 -0.01845270 0.07191923
v -0.00572281 -0.01978551 0.06999137
v -0.00494046 -0.02041604 0.07063510
v -0.00265879 -0.01790192 0.07424551
v -0.00222768 -0.01907099 0.07396302
v -0.00238275 -0.02475132 0.06860105
v -0.00415687 -0.02342669 0.07002408
v -0.00387459 -0.02090022 0.07359037
v -0.00468576 -0.02179632 0.07198700
v -0.00214357 -0.02045854 0.07531969
v -0.00231689 -0.02539202 0.06880484
v -0.00406867 -0.02452431 0.07057594
v -0.00386124 -0.02277879 0.07482310
v -0.00460337 -0.02342460 0.07286519
v -0.00217562 -0.02241682 0.07644900
v -0.00149452 -0.02684396 0.06888397
v -0.00182588 -0.02641082 0.06894285
v -0.00264148 -0.02729870 0.06999024
v -0.00325435 -0.02649894 0.07050427
v -0.00257427 -0.02838130 0.07276022
v -0.00318302 -0.02681028 0.07427240
v -0.00373785 -0.02664618 0.07250608
v -0.00300974 -0.02790768 0.07139506
v -0.00181048 -0.02703232 0.07553134
v -0.00146669 -0.02880909 0.07359108
v -0.00158810 -0.02888159 0.06839479
v -0.00168131 -0.02970478 0.06934539
v -0.00090551 -0.03065680 0.06651452
v -0.00096107 -0.03111339 0.06704177
v -0.00045044 -0.03078128 0.06594309
v -0.00048083 -0.03110509 0.06593089
v -0.00206649 -0.02471875 0.07660123
v -0.00365072 -0.02481587 0.07504136
v -0.00432226 -0.02509310 0.07306193
v -0.00378407 -0.02556050 0.07071047
v -0.00213721 -0.02594100 0.06887285
v -0.00313781 0.02097798 0.01602051
v -0.00629215 0.02289105 0.01677530
v -0.00873794 0.02462920 0.01749304
v -0.00929456 0.02760171 0.01877552
v -0.00693804 0.03040294 0.02043426
v -0.00374791 0.03195330 0.02152695
v -0.00537132 0.02660617 0.01305295
v -0.00643833 0.03067710 0.01195089
v -0.00422854 0.03391061 0.01435115
v 0.00173778 0.04658478 0.00036529
v -0.00001398 0.04658930 0.00036461
v -0.00001112 0.04774385 0.00018994
v -0.00531028 0.03040608 0.01089942
v -0.00476851 0.03400981 0.00740472
v 0.00260047 0.04013421 0.00023527
v -0.00001136 0.04030332 0.00019748
v -0.00001248 0.04150217 0.00000000
v -0.00001136 0.03852851 0.00047675
v -0.00262319 0.04013837 0.00023433
v 0.00404146 0.03763935 0.00326476
v -0.00001385 0.03921808 0.00325196
v -0.00001136 0.03600284 0.00329491
v -0.00406418 0.03764355 0.00326436
v 0.00467208 0.03795509 0.00928127
v 0.00404915 0.03654398 0.00836789
v -0.00001022 0.03752835 0.00900503
v -0.00001095 0.03946496 0.01025857
v -0.00469906 0.03796686 0.00928890
v -0.00407171 0.03654398 0.00836789
v 0.00342673 0.04278494 0.00418003
v 0.00341549 0.04145205 0.00399024
v -0.00001015 0.04238184 0.00412262
v -0.00001105 0.04421111 0.00438310
v -0.00343758 0.04145205 0.00399024
v -0.00345255 0.04279605 0.00418162
v 0.00173205 0.04550152 0.00052917
v -0.00001067 0.04580953 0.00061843
v -0.00175430 0.04550152 0.00052917
v -0.00176192 0.04659382 0.00036392
f 1 2 3
f 1 3 4
f 5 1 4
f 5 4 6
f 7 5 6
f 7 6 8
f 9 7 8
f 9 8 10
f 11 9 10
f 11 10 12
f 2 11 12
f 2 12 3
f 13 14 15
f 13 15 16
f 14 17 18
f 14 18 15
f 17 19 20
f 17 20 18
f 19 21 22
f 19 22 20
f 21 23 24
f 21 24 22
f 13 16 24
f 13 24 23
f 8 6 14
f 8 14 13
f 6 4 17
f 6 17 14
f 4 3 19
f 4 19 17
f 3 12 21
f 3 21 19
f 12 10 23
f 12 23 21
f 10 8 13
f 10 13 23
f 2 1 25
f 2 25 26
f 1 5 27
f 1 27 25
f 5 7 28
f 5 28 27
f 7 9 29
f 7 29 28
f 9 11 30
f 9 30 29
f 11 2 26
f 11 26 30
f 26 25 31
f 26 31 32
f 25 27 33
f 25 33 31
f 27 28 34
f 27 34 33
f 28 29 35
f 28 35 34
f 29 30 36
f 29 36 35
f 30 26 32
f 30 32 36
f 32 31 37
f 32 37 38
f 31 33 39
f 31 39 37
f 33 34 40
f 33 40 39
f 34 35 41
f 34 41 40
f 35 36 42
f 35 42 41
f 36 32 38
f 36 38 42
f 38 37 43
f 38 43 44
f 37 39 45
f 37 45 43
f 39 40 46
f 39 46 45
f 40 41 47
f 40 47 46
f 41 42 48
f 41 48 47
f 42 38 44
f 42 44 48
f 44 43 49
f 44 49 50
f 43 45 51
f 43 51 49
f 45 46 52
f 45 52 51
f 46 47 53
f 46 53 52
f 47 48 54
f 47 54 53
f 48 44 50
f 48 50 54
f 49 55 50
f 51 55 49
f 52 55 51
f 53 55 52
f 54 55 53
f 50 55 54
f 56 57 58
f 56 58 59
f 60 56 59
f 60 59 61
f 62 60 61
f 62 61 63
f 64 62 63
f 64 63 65
f 66 64 65
f 66 65 67
f 57 66 67
f 57 67 58
f 68 69 70
f 68 70 71
f 69 72 73
f 69 73 70
f 72 74 75
f 72 75 73
f 74 76 77
f 74 77 75
f 76 78 79
f 76 79 77
f 68 71 79
f 68 79 78
f 63 61 69
f 63 69 68
f 61 59 72
f 61 72 69
f 59 58 74
f 59 74 72
f 58 67 76
f 58 76 74
f 67 65 78
f 67 78 76
f 65 63 68
f 65 68 78
f 57 56 80
f 57 80 81
f 56 60 82
f 56 82 80
f 60 62 83
f 60 83 82
f 62 64 84
f 62 84 83
f 64 66 85
f 64 85 84
f 66 57 81
f 66 81 85
f 81 80 86
f 81 86 87
f 80 82 88
f 80 88 86
f 82 83 89
f 82 89 88
f 83 84 90
f 83 90 89
f 84 85 91
f 84 91 90
f 85 81 87
f 85 87 91
f 87 86 92
f 87 92 93
f 86 88 94
f 86 94 92
f 88 89 95
f 88 95 94
f 89 90 96
f 89 96 95
f 90 91 97
f 90 97 96
f 91 87 93
f 91 93 97
f 93 92 98
f 93 98 99
f 92 94 100
f 92 100 98
f 94 95 101
f 94 101 100
f 95 96 102
f 95 102 101
f 96 97 103
f 96 103 102
f 97 93 99
f 97 99 103
f 99 98 104
f 99 104 105
f 98 100 106
f 98 106 104
f 100 101 107
f 100 107 106
f 101 102 108
f 101 108 107
f 102 103 109
f 102 109 108
f 103 99 105
f 103 105 109
f 104 110 105
f 106 110 104
f 107 110 106
f 108 110 107
f 109 110 108
f 105 110 109
f 111 112 113
f 111 113 114
f 115 111 114
f 115 114 116
f 117 115 116
f 117 116 118
f 119 117 118
f 119 118 120
f 121 119 120
f 121 120 122
f 112 121 122
f 112 122 113
f 118 116 123
f 118 123 124
f 116 114 125
f 116 125 123
f 114 113 126
f 114 126 125
f 113 122 127
f 113 127 126
f 122 120 128
f 122 128 127
f 120 118 124
f 120 124 128
f 112 111 129
f 112 129 130
f 111 115 131
f 111 131 129
f 115 117 132
f 115 132 131
f 117 119 133
f 117 133 132
f 119 121 134
f 119 134 133
f 121 112 130
f 121 130 134
f 130 129 135
f 130 135 136
f 129 131 137
f 129 137 135
f 131 132 138
f 131 138 137
f 132 133 139
f 132 139 138
f 133 134 140
f 133 140 139
f 134 130 136
f 134 136 140
f 136 135 141
f 136 141 142
f 135 137 143
f 135 143 141
f 137 138 144
f 137 144 143
f 138 139 145
f 138 145 144
f 139 140 146
f 139 146 145
f 140 136 142
f 140 142 146
f 142 141 147
f 142 147 148
f 141 143 149
f 141 149 147
f 143 144 150
f 143 150 149
f 144 145 151
f 144 151 150
f 145 146 152
f 145 152 151
f 146 142 148
f 146 148 152
f 148 147 153
f 148 153 154
f 147 149 155
f 147 155 153
f 149 150 156
f 149 156 155
f 150 151 157
f 150 157 156
f 151 152 158
f 151 158 157
f 152 148 154
f 152 154 158
f 153 159 154
f 153 155 160
f 153 160 159
f 155 156 161
f 155 161 160
f 157 161 156
f 157 158 160
f 157 160 161
f 158 154 159
f 158 159 160
f 162 163 164
f 162 164 165
f 166 162 165
f 166 165 167
f 168 166 167
f 168 167 169
f 170 168 169
f 170 169 171
f 172 170 171
f 172 171 173
f 163 172 173
f 163 173 164
f 174 175 176
f 174 176 177
f 175 178 179
f 175 179 176
f 178 180 181
f 178 181 179
f 180 182 183
f 180 183 181
f 182 184 185
f 182 185 183
f 174 177 185
f 174 185 184
f 169 167 175
f 169 175 174
f 167 165 178
f 167 178 175
f 165 164 180
f 165 180 178
f 164 173 182
f 164 182 180
f 173 171 184
f 173 184 182
f 171 169 174
f 171 174 184
f 163 162 186
f 163 186 187
f 162 166 188
f 162 188 186
f 166 168 189
f 166 189 188
f 168 170 190
f 168 190 189
f 170 172 191
f 170 191 190
f 172 163 187
f 172 187 191
f 187 186 192
f 187 192 193
f 186 188 194
f 186 194 192
f 188 189 195
f 188 195 194
f 189 190 196
f 189 196 195
f 190 191 197
f 190 197 196
f 191 187 193
f 191 193 197
f 193 192 198
f 193 198 199
f 192 194 200
f 192 200 198
f 194 195 201
f 194 201 200
f 195 196 202
f 195 202 201
f 196 197 203
f 196 203 202
f 197 193 199
f 197 199 203
f 199 198 204
f 199 204 205
f 198 200 206
f 198 206 204
f 200 201 207
f 200 207 206
f 201 202 208
f 201 208 207
f 202 203 209
f 202 209 208
f 203 199 205
f 203 205 209
f 205 204 210
f 205 210 211
f 204 206 212
f 204 212 210
f 206 207 213
f 206 213 212
f 207 208 214
f 207 214 213
f 208 209 215
f 208 215 214
f 209 205 211
f 209 211 215
f 210 216 211
f 212 216 210
f 213 216 212
f 214 216 213
f 215 216 214
f 211 216 215
f 217 218 219
f 217 219 220
f 218 221 222
f 218 222 219
f 221 223 224
f 221 224 222
f 225 226 224
f 225 224 223
f 227 226 225
f 227 225 228
f 220 227 228
f 220 228 217
f 220 219 229
f 220 229 230
f 229 219 222
f 229 222 231
f 232 231 222
f 232 222 224
f 233 232 224
f 233 224 226
f 226 227 234
f 226 234 233
f 227 220 230
f 227 230 234
f 235 236 237
f 235 237 238
f 236 239 240
f 236 240 237
f 239 241 242
f 239 242 240
f 241 243 244
f 241 244 242
f 243 245 246
f 243 246 244
f 245 235 238
f 245 238 246
f 247 248 183
f 247 183 185
f 249 250 177
f 249 177 176
f 248 251 181
f 248 181 183
f 252 249 176
f 252 176 179
f 127 128 253
f 254 253 128
f 254 128 124
f 255 254 124
f 255 124 123
f 256 126 127
f 257 255 123
f 257 123 125
f 256 257 125
f 256 125 126
f 256 247 77
f 256 77 79
f 257 256 79
f 257 79 71
f 250 257 71
f 250 71 70
f 177 250 70
f 177 70 73
f 185 177 73
f 185 73 75
f 247 185 75
f 247 75 77
f 251 253 20
f 251 20 22
f 254 252 15
f 254 15 18
f 253 254 18
f 253 18 20
f 181 251 22
f 181 22 24
f 179 181 24
f 179 24 16
f 252 179 16
f 252 16 15
f 249 255 257
f 249 257 250
f 252 254 255
f 252 255 249
f 258 259 218
f 258 218 217
f 260 261 225
f 260 225 223
f 262 263 264
f 262 264 265
f 266 267 268
f 266 268 269
f 225 270 228
f 217 228 270
f 217 270 271
f 217 271 258
f 261 272 270
f 261 270 225
f 263 273 274
f 263 274 264
f 268 267 275
f 268 275 276
f 218 277 221
f 223 221 277
f 223 277 278
f 218 259 279
f 218 279 277
f 223 278 280
f 223 280 260
f 265 281 282
f 265 282 262
f 266 269 283
f 266 283 284
f 244 246 248
f 244 248 247
f 246 238 251
f 246 251 248
f 238 237 253
f 238 253 251
f 237 240 127
f 237 127 253
f 240 242 256
f 240 256 127
f 242 244 247
f 242 247 256
f 269 268 263
f 269 263 262
f 261 260 265
f 261 265 264
f 268 276 273
f 268 273 263
f 272 261 264
f 272 264 274
f 260 280 281
f 260 281 265
f 283 269 262
f 283 262 282
f 271 270 285
f 271 285 286
f 270 272 287
f 270 287 285
f 274 273 288
f 274 288 289
f 276 275 290
f 276 290 291
f 273 276 291
f 273 291 288
f 272 274 289
f 272 289 287
f 286 285 292
f 286 292 293
f 285 287 294
f 285 294 292
f 289 288 295
f 289 295 296
f 291 290 297
f 291 297 298
f 288 291 298
f 288 298 295
f 287 289 296
f 287 296 294
f 293 292 299
f 293 299 300
f 292 294 301
f 292 301 299
f 296 295 302
f 296 302 303
f 298 297 304
f 298 304 305
f 295 298 305
f 295 305 302
f 294 296 303
f 294 303 301
f 278 277 306
f 278 306 307
f 277 279 308
f 277 308 306
f 280 278 307
f 280 307 309
f 282 281 310
f 282 310 311
f 284 283 312
f 284 312 313
f 281 280 309
f 281 309 310
f 283 282 311
f 283 311 312
f 300 299 314
f 300 314 315
f 299 301 316
f 299 316 314
f 303 302 317
f 303 317 318
f 305 304 319
f 305 319 320
f 302 305 320
f 302 320 317
f 301 303 318
f 301 318 316
f 315 314 321
f 315 321 322
f 314 316 323
f 314 323 321
f 318 317 324
f 318 324 325
f 320 319 326
f 320 326 327
f 317 320 327
f 317 327 324
f 316 318 325
f 316 325 323
f 322 321 328
f 322 328 329
f 321 323 330
f 321 330 328
f 325 324 331
f 325 331 332
f 327 326 333
f 327 333 334
f 324 327 334
f 324 334 331
f 323 325 332
f 323 332 330
f 335 336 337
f 335 337 338
f 336 339 340
f 336 340 337
f 341 342 343
f 341 343 344
f 345 346 347
f 345 347 348
f 342 345 348
f 342 348 343
f 339 341 344
f 339 344 340
f 338 337 349
f 338 349 350
f 337 340 351
f 337 351 349
f 344 343 352
f 344 352 353
f 348 347 354
f 348 354 355
f 343 348 355
f 343 355 352
f 340 344 353
f 340 353 351
f 350 349 356
f 350 356 357
f 349 351 358
f 349 358 356
f 353 352 359
f 353 359 360
f 355 354 361
f 355 361 362
f 352 355 362
f 352 362 359
f 351 353 360
f 351 360 358
f 363 364 365
f 363 365 366
f 364 367 368
f 364 368 365
f 369 370 371
f 369 371 372
f 373 374 375
f 373 375 376
f 370 373 376
f 370 376 371
f 367 369 372
f 367 372 368
f 365 377 366
f 365 368 378
f 365 378 377
f 371 379 372
f 375 380 376
f 371 376 380
f 371 380 379
f 368 372 379
f 368 379 378
f 377 378 381
f 377 381 382
f 379 380 383
f 379 383 384
f 378 379 384
f 378 384 381
f 382 381 385
f 382 385 386
f 384 383 387
f 384 387 388
f 381 384 388
f 381 388 385
f 385 389 386
f 387 389 388
f 388 389 385
f 390 391 374
f 390 374 373
f 392 390 373
f 392 373 370
f 393 392 370
f 393 370 369
f 394 393 369
f 394 369 367
f 395 394 367
f 395 367 364
f 396 395 364
f 396 364 363
f 357 356 395
f 357 395 396
f 356 358 394
f 356 394 395
f 358 360 393
f 358 393 394
f 360 359 392
f 360 392 393
f 359 362 390
f 359 390 392
f 362 361 391
f 362 391 390
f 328 336 335
f 328 335 329
f 330 339 336
f 330 336 328
f 332 341 339
f 332 339 330
f 331 342 341
f 331 341 332
f 334 345 342
f 334 342 331
f 333 346 345
f 333 345 334
f 307 306 397
f 307 397 398
f 306 308 399
f 306 399 397
f 309 307 398
f 309 398 400
f 311 310 401
f 311 401 402
f 313 312 403
f 313 403 404
f 310 309 400
f 310 400 401
f 312 311 402
f 312 402 403
f 398 397 405
f 398 405 406
f 399 405 397
f 398 406 400
f 402 401 407
f 402 407 408
f 403 409 404
f 401 400 406
f 401 406 407
f 403 402 408
f 403 408 409
f 405 410 406
f 407 406 410
f 407 410 411
f 412 411 413
f 412 413 414
f 411 410 415
f 411 415 413
f 416 417 418
f 416 418 419
f 419 418 420
f 419 420 421
f 421 420 422
f 421 422 423
f 423 422 424
f 423 424 425
f 425 424 426
f 425 426 427
f 427 426 417
f 427 417 416
f 428 429 430
f 428 430 431
f 432 433 429
f 432 429 428
f 434 435 433
f 434 433 432
f 436 437 435
f 436 435 434
f 438 439 437
f 438 437 436
f 438 431 430
f 438 430 439
f 429 421 423
f 429 423 430
f 433 419 421
f 433 421 429
f 435 416 419
f 435 419 433
f 437 427 416
f 437 416 435
f 439 425 427
f 439 427 437
f 430 423 425
f 430 425 439
f 440 418 417
f 440 417 441
f 442 420 418
f 442 418 440
f 443 422 420
f 443 420 442
f 444 424 422
f 444 422 443
f 445 426 424
f 445 424 444
f 441 417 426
f 441 426 445
f 446 440 441
f 446 441 447
f 448 442 440
f 448 440 446
f 449 443 442
f 449 442 448
f 450 444 443
f 450 443 449
f 451 445 444
f 451 444 450
f 447 441 445
f 447 445 451
f 452 446 447
f 452 447 453
f 454 448 446
f 454 446 452
f 455 449 448
f 455 448 454
f 456 450 449
f 456 449 455
f 457 451 450
f 457 450 456
f 453 447 451
f 453 451 457
f 458 452 453
f 458 453 459
f 460 454 452
f 460 452 458
f 461 455 454
f 461 454 460
f 462 456 455
f 462 455 461
f 463 457 456
f 463 456 462
f 459 453 457
f 459 457 463
f 464 458 459
f 464 459 465
f 466 460 458
f 466 458 464
f 467 461 460
f 467 460 466
f 468 462 461
f 468 461 467
f 469 463 462
f 469 462 468
f 465 459 463
f 465 463 469
f 464 465 470
f 466 464 470
f 467 466 470
f 468 467 470
f 469 468 470
f 465 469 470
f 471 472 473
f 471 473 474
f 474 473 475
f 474 475 476
f 476 475 477
f 476 477 478
f 478 477 479
f 478 479 480
f 480 479 481
f 480 481 482
f 482 481 472
f 482 472 471
f 483 484 485
f 483 485 486
f 487 488 484
f 487 484 483
f 489 490 488
f 489 488 487
f 491 492 490
f 491 490 489
f 493 494 492
f 493 492 491
f 493 486 485
f 493 485 494
f 484 476 478
f 484 478 485
f 488 474 476
f 488 476 484
f 490 471 474
f 490 474 488
f 492 482 471
f 492 471 490
f 494 480 482
f 494 482 492
f 485 478 480
f 485 480 494
f 495 473 472
f 495 472 496
f 497 475 473
f 497 473 495
f 498 477 475
f 498 475 497
f 499 479 477
f 499 477 498
f 500 481 479
f 500 479 499
f 496 472 481
f 496 481 500
f 501 495 496
f 501 496 502
f 503 497 495
f 503 495 501
f 504 498 497
f 504 497 503
f 505 499 498
f 505 498 504
f 506 500 499
f 506 499 505
f 502 496 500
f 502 500 506
f 507 501 502
f 507 502 508
f 509 503 501
f 509 501 507
f 510 504 503
f 510 503 509
f 511 505 504
f 511 504 510
f 512 506 505
f 512 505 511
f 508 502 506
f 508 506 512
f 513 507 508
f 513 508 514
f 515 509 507
f 515 507 513
f 516 510 509
f 516 509 515
f 517 511 510
f 517 510 516
f 518 512 511
f 518 511 517
f 514 508 512
f 514 512 518
f 519 513 514
f 519 514 520
f 521 515 513
f 521 513 519
f 522 516 515
f 522 515 521
f 523 517 516
f 523 516 522
f 524 518 517
f 524 517 523
f 520 514 518
f 520 518 524
f 519 520 525
f 521 519 525
f 522 521 525
f 523 522 525
f 524 523 525
f 520 524 525
f 526 527 528
f 526 528 529
f 529 528 530
f 529 530 531
f 531 530 532
f 531 532 533
f 533 532 534
f 533 534 535
f 535 534 536
f 535 536 537
f 537 536 527
f 537 527 526
f 538 531 533
f 538 533 539
f 540 529 531
f 540 531 538
f 541 526 529
f 541 529 540
f 542 537 526
f 542 526 541
f 543 535 537
f 543 537 542
f 539 533 535
f 539 535 543
f 544 528 527
f 544 527 545
f 546 530 528
f 546 528 544
f 547 532 530
f 547 530 546
f 548 534 532
f 548 532 547
f 549 536 534
f 549 534 548
f 545 527 536
f 545 536 549
f 550 544 545
f 550 545 551
f 552 546 544
f 552 544 550
f 553 547 546
f 553 546 552
f 554 548 547
f 554 547 553
f 555 549 548
f 555 548 554
f 551 545 549
f 551 549 555
f 556 550 551
f 556 551 557
f 558 552 550
f 558 550 556
f 559 553 552
f 559 552 558
f 560 554 553
f 560 553 559
f 561 555 554
f 561 554 560
f 557 551 555
f 557 555 561
f 562 556 557
f 562 557 563
f 564 558 556
f 564 556 562
f 565 559 558
f 565 558 564
f 566 560 559
f 566 559 565
f 567 561 560
f 567 560 566
f 563 557 561
f 563 561 567
f 568 562 563
f 568 563 569
f 570 564 562
f 570 562 568
f 571 565 564
f 571 564 570
f 572 566 565
f 572 565 571
f 573 567 566
f 573 566 572
f 569 563 567
f 569 567 573
f 568 569 574
f 570 568 574
f 571 570 574
f 572 571 574
f 573 572 574
f 569 573 574
f 575 576 577
f 575 577 578
f 578 577 579
f 578 579 580
f 580 579 581
f 580 581 582
f 582 581 583
f 582 583 584
f 584 583 585
f 584 585 586
f 586 585 576
f 586 576 575
f 587 588 589
f 587 589 590
f 591 592 588
f 591 588 587
f 593 594 592
f 593 592 591
f 595 596 594
f 595 594 593
f 597 598 596
f 597 596 595
f 597 590 589
f 597 589 598
f 588 580 582
f 588 582 589
f 592 578 580
f 592 580 588
f 594 575 578
f 594 578 592
f 596 586 575
f 596 575 594
f 598 584 586
f 598 586 596
f 589 582 584
f 589 584 598
f 599 577 576
f 599 576 600
f 601 579 577
f 601 577 599
f 602 581 579
f 602 579 601
f 603 583 581
f 603 581 602
f 604 585 583
f 604 583 603
f 600 576 585
f 600 585 604
f 605 599 600
f 605 600 606
f 607 601 599
f 607 599 605
f 608 602 601
f 608 601 607
f 609 603 602
f 609 602 608
f 610 604 603
f 610 603 609
f 606 600 604
f 606 604 610
f 611 605 606
f 611 606 612
f 613 607 605
f 613 605 611
f 614 608 607
f 614 607 613
f 615 609 608
f 615 608 614
f 616 610 609
f 616 609 615
f 612 606 610
f 612 610 616
f 617 611 612
f 617 612 618
f 619 613 611
f 619 611 617
f 620 614 613
f 620 613 619
f 621 615 614
f 621 614 620
f 622 616 615
f 622 615 621
f 618 612 616
f 618 616 622
f 623 617 618
f 623 618 624
f 625 619 617
f 625 617 623
f 626 620 619
f 626 619 625
f 627 621 620
f 627 620 626
f 628 622 621
f 628 621 627
f 624 618 622
f 624 622 628
f 623 624 629
f 625 623 629
f 626 625 629
f 627 626 629
f 628 627 629
f 624 628 629
f 630 631 632
f 630 632 633
f 634 635 631
f 634 631 630
f 636 637 635
f 636 635 634
f 636 638 639
f 636 639 637
f 639 638 640
f 639 640 641
f 641 640 633
f 641 633 632
f 642 643 644
f 642 644 645
f 646 643 642
f 646 642 647
f 646 647 648
f 646 648 649
f 649 648 650
f 649 650 651
f 652 653 651
f 652 651 650
f 645 644 653
f 645 653 652
f 654 642 645
f 654 645 655
f 656 647 642
f 656 642 654
f 657 648 647
f 657 647 656
f 658 650 648
f 658 648 657
f 659 652 650
f 659 650 658
f 655 645 652
f 655 652 659
f 595 660 661
f 595 661 597
f 590 662 663
f 590 663 587
f 593 664 660
f 593 660 595
f 587 663 665
f 587 665 591
f 542 666 543
f 543 666 667
f 543 667 539
f 539 667 668
f 539 668 538
f 669 542 541
f 538 668 670
f 538 670 540
f 540 670 669
f 540 669 541
f 491 661 669
f 491 669 493
f 493 669 670
f 493 670 486
f 486 670 662
f 486 662 483
f 483 662 590
f 483 590 487
f 487 590 597
f 487 597 489
f 489 597 661
f 489 661 491
f 434 666 664
f 434 664 436
f 428 665 667
f 428 667 432
f 432 667 666
f 432 666 434
f 436 664 593
f 436 593 438
f 438 593 591
f 438 591 431
f 431 591 665
f 431 665 428
f 670 668 663
f 670 663 662
f 668 667 665
f 668 665 663
f 631 259 258
f 631 258 632
f 639 671 672
f 639 672 637
f 673 674 675
f 673 675 676
f 677 267 266
f 677 266 678
f 639 641 679
f 679 641 632
f 679 632 271
f 632 258 271
f 679 680 671
f 679 671 639
f 681 682 674
f 681 674 673
f 275 267 677
f 275 677 683
f 631 635 684
f 684 635 637
f 684 637 685
f 279 259 631
f 279 631 684
f 686 685 637
f 686 637 672
f 687 688 676
f 687 676 675
f 689 678 266
f 689 266 284
f 660 659 658
f 660 658 661
f 664 655 659
f 664 659 660
f 666 654 655
f 666 655 664
f 542 656 654
f 542 654 666
f 669 657 656
f 669 656 542
f 661 658 657
f 661 657 669
f 674 677 678
f 674 678 675
f 676 672 671
f 676 671 673
f 682 683 677
f 682 677 674
f 673 671 680
f 673 680 681
f 688 686 672
f 688 672 676
f 675 678 689
f 675 689 687
f 690 679 271
f 690 271 286
f 691 680 679
f 691 679 690
f 692 682 681
f 692 681 693
f 290 275 683
f 290 683 694
f 694 683 682
f 694 682 692
f 693 681 680
f 693 680 691
f 695 690 286
f 695 286 293
f 696 691 690
f 696 690 695
f 697 692 693
f 697 693 698
f 297 290 694
f 297 694 699
f 699 694 692
f 699 692 697
f 698 693 691
f 698 691 696
f 700 695 293
f 700 293 300
f 701 696 695
f 701 695 700
f 702 697 698
f 702 698 703
f 304 297 699
f 304 699 704
f 704 699 697
f 704 697 702
f 703 698 696
f 703 696 701
f 705 684 685
f 705 685 706
f 308 279 684
f 308 684 705
f 706 685 686
f 706 686 707
f 708 688 687
f 708 687 709
f 710 689 284
f 710 284 313
f 707 686 688
f 707 688 708
f 709 687 689
f 709 689 710
f 711 700 300
f 711 300 315
f 712 701 700
f 712 700 711
f 713 702 703
f 713 703 714
f 319 304 704
f 319 704 715
f 715 704 702
f 715 702 713
f 714 703 701
f 714 701 712
f 716 711 315
f 716 315 322
f 717 712 711
f 717 711 716
f 718 713 714
f 718 714 719
f 326 319 715
f 326 715 720
f 720 715 713
f 720 713 718
f 719 714 712
f 719 712 717
f 721 716 322
f 721 322 329
f 722 717 716
f 722 716 721
f 723 718 719
f 723 719 724
f 333 326 720
f 333 720 725
f 725 720 718
f 725 718 723
f 724 719 717
f 724 717 722
f 726 727 335
f 726 335 338
f 728 729 727
f 728 727 726
f 730 731 732
f 730 732 733
f 347 346 734
f 347 734 735
f 735 734 731
f 735 731 730
f 733 732 729
f 733 729 728
f 736 726 338
f 736 338 350
f 737 728 726
f 737 726 736
f 738 730 733
f 738 733 739
f 354 347 735
f 354 735 740
f 740 735 730
f 740 730 738
f 739 733 728
f 739 728 737
f 741 736 350
f 741 350 357
f 742 737 736
f 742 736 741
f 743 738 739
f 743 739 744
f 361 354 740
f 361 740 745
f 745 740 738
f 745 738 743
f 744 739 737
f 744 737 742
f 746 747 363
f 746 363 366
f 748 749 747
f 748 747 746
f 750 751 752
f 750 752 753
f 375 374 754
f 375 754 755
f 755 754 751
f 755 751 750
f 753 752 749
f 753 749 748
f 746 366 377
f 756 748 746
f 756 746 377
f 750 753 757
f 375 755 380
f 380 755 750
f 380 750 757
f 757 753 748
f 757 748 756
f 758 756 377
f 758 377 382
f 383 380 757
f 383 757 759
f 759 757 756
f 759 756 758
f 760 758 382
f 760 382 386
f 387 383 759
f 387 759 761
f 761 759 758
f 761 758 760
f 760 386 389
f 387 761 389
f 761 760 389
f 374 391 762
f 374 762 754
f 754 762 763
f 754 763 751
f 751 763 764
f 751 764 752
f 752 764 765
f 752 765 749
f 749 765 766
f 749 766 747
f 747 766 396
f 747 396 363
f 766 741 357
f 766 357 396
f 765 742 741
f 765 741 766
f 764 744 742
f 764 742 765
f 763 743 744
f 763 744 764
f 762 745 743
f 762 743 763
f 391 361 745
f 391 745 762
f 335 727 721
f 335 721 329
f 727 729 722
f 727 722 721
f 729 732 724
f 729 724 722
f 732 731 723
f 732 723 724
f 731 734 725
f 731 725 723
f 734 346 333
f 734 333 725
f 767 705 706
f 767 706 768
f 399 308 705
f 399 705 767
f 768 706 707
f 768 707 769
f 770 708 709
f 770 709 771
f 772 710 313
f 772 313 404
f 769 707 708
f 769 708 770
f 771 709 710
f 771 710 772
f 405 767 768
f 405 768 773
f 399 767 405
f 768 769 773
f 774 770 771
f 774 771 775
f 772 404 409
f 773 769 770
f 773 770 774
f 775 771 772
f 775 772 409
f 405 773 410
f 776 777 778
f 410 773 774
f 410 774 779
f 780 779 412
f 780 412 414
f 415 410 779
f 415 779 780
f 781 782 783
f 784 782 781
f 784 785 782
f 783 782 785
f 786 781 783
f 786 783 787
f 788 784 781
f 788 781 786
f 786 413 415
f 786 415 788
f 787 414 413
f 787 413 786
f 789 780 414
f 789 414 787
f 788 415 780
f 788 780 789
f 783 785 789
f 783 789 787
f 785 784 788
f 785 788 789
f 636 649 651
f 636 651 638
f 634 646 649
f 634 649 636
f 634 630 643
f 634 643 646
f 643 630 633
f 643 633 644
f 644 633 640
f 644 640 653
f 653 640 638
f 653 638 651
f 234 230 235
f 234 235 245
f 243 233 234
f 243 234 245
f 243 241 232
f 243 232 233
f 241 239 231
f 241 231 232
f 236 229 231
f 236 231 239
f 235 230 229
f 235 229 236
f 790 407 411
f 790 411 791
f 791 411 412
f 791 412 792
f 408 407 790
f 793 409 408
f 793 408 790
f 774 775 794
f 792 412 779
f 792 779 795
f 795 779 774
f 795 774 794
f 794 775 409
f 794 409 793
f 796 790 791
f 796 791 797
f 797 791 792
f 797 792 798
f 799 793 790
f 799 790 796
f 798 792 795
f 798 795 800
f 800 795 794
f 800 794 801
f 801 794 793
f 801 793 799
f 776 796 797
f 776 797 802
f 802 797 798
f 802 798 803
f 778 799 796
f 778 796 776
f 803 798 800
f 803 800 804
f 804 800 801
f 804 801 805
f 805 801 799
f 805 799 778
f 802 803 777
f 802 777 776
f 777 803 804
f 777 804 805
f 778 777 805
f 4 3 2
f 2 1 4
f 6 4 1
f 1 5 6
f 8 6 5
f 5 7 8
f 10 8 7
f 7 9 10
f 12 10 9
f 9 11 12
f 3 12 11
f 11 2 3
f 16 15 14
f 14 13 16
f 15 18 17
f 17 14 15
f 18 20 19
f 19 17 18
f 20 22 21
f 21 19 20
f 22 24 23
f 23 21 22
f 23 24 16
f 16 13 23
f 13 14 6
f 6 8 13
f 14 17 4
f 4 6 14
f 17 19 3
f 3 4 17
f 19 21 12
f 12 3 19
f 21 23 10
f 10 12 21
f 23 13 8
f 8 10 23
f 26 25 1
f 1 2 26
f 25 27 5
f 5 1 25
f 27 28 7
f 7 5 27
f 28 29 9
f 9 7 28
f 29 30 11
f 11 9 29
f 30 26 2
f 2 11 30
f 32 31 25
f 25 26 32
f 31 33 27
f 27 25 31
f 33 34 28
f 28 27 33
f 34 35 29
f 29 28 34
f 35 36 30
f 30 29 35
f 36 32 26
f 26 30 36
f 38 37 31
f 31 32 38
f 37 39 33
f 33 31 37
f 39 40 34
f 34 33 39
f 40 41 35
f 35 34 40
f 41 42 36
f 36 35 41
f 42 38 32
f 32 36 42
f 44 43 37
f 37 38 44
f 43 45 39
f 39 37 43
f 45 46 40
f 40 39 45
f 46 47 41
f 41 40 46
f 47 48 42
f 42 41 47
f 48 44 38
f 38 42 48
f 50 49 43
f 43 44 50
f 49 51 45
f 45 43 49
f 51 52 46
f 46 45 51
f 52 53 47
f 47 46 52
f 53 54 48
f 48 47 53
f 54 50 44
f 44 48 54
f 49 50 55
f 51 49 55
f 52 51 55
f 53 52 55
f 54 53 55
f 50 54 55
f 59 58 57
f 57 56 59
f 61 59 56
f 56 60 61
f 63 61 60
f 60 62 63
f 65 63 62
f 62 64 65
f 67 65 64
f 64 66 67
f 58 67 66
f 66 57 58
f 71 70 69
f 69 68 71
f 70 73 72
f 72 69 70
f 73 75 74
f 74 72 73
f 75 77 76
f 76 74 75
f 77 79 78
f 78 76 77
f 78 79 71
f 71 68 78
f 68 69 61
f 61 63 68
f 69 72 59
f 59 61 69
f 72 74 58
f 58 59 72
f 74 76 67
f 67 58 74
f 76 78 65
f 65 67 76
f 78 68 63
f 63 65 78
f 81 80 56
f 56 57 81
f 80 82 60
f 60 56 80
f 82 83 62
f 62 60 82
f 83 84 64
f 64 62 83
f 84 85 66
f 66 64 84
f 85 81 57
f 57 66 85
f 87 86 80
f 80 81 87
f 86 88 82
f 82 80 86
f 88 89 83
f 83 82 88
f 89 90 84
f 84 83 89
f 90 91 85
f 85 84 90
f 91 87 81
f 81 85 91
f 93 92 86
f 86 87 93
f 92 94 88
f 88 86 92
f 94 95 89
f 89 88 94
f 95 96 90
f 90 89 95
f 96 97 91
f 91 90 96
f 97 93 87
f 87 91 97
f 99 98 92
f 92 93 99
f 98 100 94
f 94 92 98
f 100 101 95
f 95 94 100
f 101 102 96
f 96 95 101
f 102 103 97
f 97 96 102
f 103 99 93
f 93 97 103
f 105 104 98
f 98 99 105
f 104 106 100
f 100 98 104
f 106 107 101
f 101 100 106
f 107 108 102
f 102 101 107
f 108 109 103
f 103 102 108
f 109 105 99
f 99 103 109
f 104 105 110
f 106 104 110
f 107 106 110
f 108 107 110
f 109 108 110
f 105 109 110
f 114 113 112
f 112 111 114
f 116 114 111
f 111 115 116
f 118 116 115
f 115 117 118
f 120 118 117
f 117 119 120
f 122 120 119
f 119 121 122
f 113 122 121
f 121 112 113
f 124 123 116
f 116 118 124
f 123 125 114
f 114 116 123
f 125 126 113
f 113 114 125
f 126 127 122
f 122 113 126
f 127 128 120
f 120 122 127
f 128 124 118
f 118 120 128
f 130 129 111
f 111 112 130
f 129 131 115
f 115 111 129
f 131 132 117
f 117 115 131
f 132 133 119
f 119 117 132
f 133 134 121
f 121 119 133
f 134 130 112
f 112 121 134
f 136 135 129
f 129 130 136
f 135 137 131
f 131 129 135
f 137 138 132
f 132 131 137
f 138 139 133
f 133 132 138
f 139 140 134
f 134 133 139
f 140 136 130
f 130 134 140
f 142 141 135
f 135 136 142
f 141 143 137
f 137 135 141
f 143 144 138
f 138 137 143
f 144 145 139
f 139 138 144
f 145 146 140
f 140 139 145
f 146 142 136
f 136 140 146
f 148 147 141
f 141 142 148
f 147 149 143
f 143 141 147
f 149 150 144
f 144 143 149
f 150 151 145
f 145 144 150
f 151 152 146
f 146 145 151
f 152 148 142
f 142 146 152
f 154 153 147
f 147 148 154
f 153 155 149
f 149 147 153
f 155 156 150
f 150 149 155
f 156 157 151
f 151 150 156
f 157 158 152
f 152 151 157
f 158 154 148
f 148 152 158
f 153 154 159
f 159 160 155
f 155 153 159
f 160 161 156
f 156 155 160
f 157 156 161
f 161 160 158
f 158 157 161
f 160 159 154
f 154 158 160
f 165 164 163
f 163 162 165
f 167 165 162
f 162 166 167
f 169 167 166
f 166 168 169
f 171 169 168
f 168 170 171
f 173 171 170
f 170 172 173
f 164 173 172
f 172 163 164
f 177 176 175
f 175 174 177
f 176 179 178
f 178 175 176
f 179 181 180
f 180 178 179
f 181 183 182
f 182 180 181
f 183 185 184
f 184 182 183
f 184 185 177
f 177 174 184
f 174 175 167
f 167 169 174
f 175 178 165
f 165 167 175
f 178 180 164
f 164 165 178
f 180 182 173
f 173 164 180
f 182 184 171
f 171 173 182
f 184 174 169
f 169 171 184
f 187 186 162
f 162 163 187
f 186 188 166
f 166 162 186
f 188 189 168
f 168 166 188
f 189 190 170
f 170 168 189
f 190 191 172
f 172 170 190
f 191 187 163
f 163 172 191
f 193 192 186
f 186 187 193
f 192 194 188
f 188 186 192
f 194 195 189
f 189 188 194
f 195 196 190
f 190 189 195
f 196 197 191
f 191 190 196
f 197 193 187
f 187 191 197
f 199 198 192
f 192 193 199
f 198 200 194
f 194 192 198
f 200 201 195
f 195 194 200
f 201 202 196
f 196 195 201
f 202 203 197
f 197 196 202
f 203 199 193
f 193 197 203
f 205 204 198
f 198 199 205
f 204 206 200
f 200 198 204
f 206 207 201
f 201 200 206
f 207 208 202
f 202 201 207
f 208 209 203
f 203 202 208
f 209 205 199
f 199 203 209
f 211 210 204
f 204 205 211
f 210 212 206
f 206 204 210
f 212 213 207
f 207 206 212
f 213 214 208
f 208 207 213
f 214 215 209
f 209 208 214
f 215 211 205
f 205 209 215
f 210 211 216
f 212 210 216
f 213 212 216
f 214 213 216
f 215 214 216
f 211 215 216
f 220 219 218
f 218 217 220
f 219 222 221
f 221 218 219
f 222 224 223
f 223 221 222
f 223 224 226
f 226 225 223
f 228 225 226
f 226 227 228
f 217 228 227
f 227 220 217
f 230 229 219
f 219 220 230
f 231 222 219
f 219 229 231
f 224 222 231
f 231 232 224
f 226 224 232
f 232 233 226
f 233 234 227
f 227 226 233
f 234 230 220
f 220 227 234
f 238 237 236
f 236 235 238
f 237 240 239
f 239 236 237
f 240 242 241
f 241 239 240
f 242 244 243
f 243 241 242
f 244 246 245
f 245 243 244
f 246 238 235
f 235 245 246
f 185 183 248
f 248 247 185
f 176 177 250
f 250 249 176
f 183 181 251
f 251 248 183
f 179 176 249
f 249 252 179
f 127 253 128
f 124 128 253
f 253 254 124
f 123 124 254
f 254 255 123
f 256 127 126
f 125 123 255
f 255 257 125
f 126 125 257
f 257 256 126
f 79 77 247
f 247 256 79
f 71 79 256
f 256 257 71
f 70 71 257
f 257 250 70
f 73 70 250
f 250 177 73
f 75 73 177
f 177 185 75
f 77 75 185
f 185 247 77
f 22 20 253
f 253 251 22
f 18 15 252
f 252 254 18
f 20 18 254
f 254 253 20
f 24 22 251
f 251 181 24
f 16 24 181
f 181 179 16
f 15 16 179
f 179 252 15
f 250 257 255
f 255 249 250
f 249 255 254
f 254 252 249
f 217 218 259
f 259 258 217
f 223 225 261
f 261 260 223
f 265 264 263
f 263 262 265
f 269 268 267
f 267 266 269
f 225 228 270
f 271 270 228
f 228 217 271
f 217 258 271
f 225 270 272
f 272 261 225
f 264 274 273
f 273 263 264
f 276 275 267
f 267 268 276
f 218 221 277
f 278 277 221
f 221 223 278
f 277 279 259
f 259 218 277
f 260 280 278
f 278 223 260
f 262 282 281
f 281 265 262
f 284 283 269
f 269 266 284
f 247 248 246
f 246 244 247
f 248 251 238
f 238 246 248
f 251 253 237
f 237 238 251
f 253 127 240
f 240 237 253
f 127 256 242
f 242 240 127
f 256 247 244
f 244 242 256
f 262 263 268
f 268 269 262
f 264 265 260
f 260 261 264
f 263 273 276
f 276 268 263
f 274 264 261
f 261 272 274
f 265 281 280
f 280 260 265
f 282 262 269
f 269 283 282
f 286 285 270
f 270 271 286
f 285 287 272
f 272 270 285
f 289 288 273
f 273 274 289
f 291 290 275
f 275 276 291
f 288 291 276
f 276 273 288
f 287 289 274
f 274 272 287
f 293 292 285
f 285 286 293
f 292 294 287
f 287 285 292
f 296 295 288
f 288 289 296
f 298 297 290
f 290 291 298
f 295 298 291
f 291 288 295
f 294 296 289
f 289 287 294
f 300 299 292
f 292 293 300
f 299 301 294
f 294 292 299
f 303 302 295
f 295 296 303
f 305 304 297
f 297 298 305
f 302 305 298
f 298 295 302
f 301 303 296
f 296 294 301
f 307 306 277
f 277 278 307
f 306 308 279
f 279 277 306
f 309 307 278
f 278 280 309
f 311 310 281
f 281 282 311
f 313 312 283
f 283 284 313
f 310 309 280
f 280 281 310
f 312 311 282
f 282 283 312
f 315 314 299
f 299 300 315
f 314 316 301
f 301 299 314
f 318 317 302
f 302 303 318
f 320 319 304
f 304 305 320
f 317 320 305
f 305 302 317
f 316 318 303
f 303 301 316
f 322 321 314
f 314 315 322
f 321 323 316
f 316 314 321
f 325 324 317
f 317 318 325
f 327 326 319
f 319 320 327
f 324 327 320
f 320 317 324
f 323 325 318
f 318 316 323
f 329 328 321
f 321 322 329
f 328 330 323
f 323 321 328
f 332 331 324
f 324 325 332
f 334 333 326
f 326 327 334
f 331 334 327
f 327 324 331
f 330 332 325
f 325 323 330
f 338 337 336
f 336 335 338
f 337 340 339
f 339 336 337
f 344 343 342
f 342 341 344
f 348 347 346
f 346 345 348
f 343 348 345
f 345 342 343
f 340 344 341
f 341 339 340
f 350 349 337
f 337 338 350
f 349 351 340
f 340 337 349
f 353 352 343
f 343 344 353
f 355 354 347
f 347 348 355
f 352 355 348
f 348 343 352
f 351 353 344
f 344 340 351
f 357 356 349
f 349 350 357
f 356 358 351
f 351 349 356
f 360 359 352
f 352 353 360
f 362 361 354
f 354 355 362
f 359 362 355
f 355 352 359
f 358 360 353
f 353 351 358
f 366 365 364
f 364 363 366
f 365 368 367
f 367 364 365
f 372 371 370
f 370 369 372
f 376 375 374
f 374 373 376
f 371 376 373
f 373 370 371
f 368 372 369
f 369 367 368
f 365 366 377
f 377 378 368
f 368 365 377
f 371 372 379
f 375 376 380
f 379 380 376
f 376 371 379
f 378 379 372
f 372 368 378
f 382 381 378
f 378 377 382
f 384 383 380
f 380 379 384
f 381 384 379
f 379 378 381
f 386 385 381
f 381 382 386
f 388 387 383
f 383 384 388
f 385 388 384
f 384 381 385
f 385 386 389
f 387 388 389
f 388 385 389
f 373 374 391
f 391 390 373
f 370 373 390
f 390 392 370
f 369 370 392
f 392 393 369
f 367 369 393
f 393 394 367
f 364 367 394
f 394 395 364
f 363 364 395
f 395 396 363
f 396 395 356
f 356 357 396
f 395 394 358
f 358 356 395
f 394 393 360
f 360 358 394
f 393 392 359
f 359 360 393
f 392 390 362
f 362 359 392
f 390 391 361
f 361 362 390
f 329 335 336
f 336 328 329
f 328 336 339
f 339 330 328
f 330 339 341
f 341 332 330
f 332 341 342
f 342 331 332
f 331 342 345
f 345 334 331
f 334 345 346
f 346 333 334
f 398 397 306
f 306 307 398
f 397 399 308
f 308 306 397
f 400 398 307
f 307 309 400
f 402 401 310
f 310 311 402
f 404 403 312
f 312 313 404
f 401 400 309
f 309 310 401
f 403 402 311
f 311 312 403
f 406 405 397
f 397 398 406
f 399 397 405
f 398 400 406
f 408 407 401
f 401 402 408
f 403 404 409
f 407 406 400
f 400 401 407
f 409 408 402
f 402 403 409
f 405 406 410
f 411 410 406
f 406 407 411
f 414 413 411
f 411 412 414
f 413 415 410
f 410 411 413
f 419 418 417
f 417 416 419
f 421 420 418
f 418 419 421
f 423 422 420
f 420 421 423
f 425 424 422
f 422 423 425
f 427 426 424
f 424 425 427
f 416 417 426
f 426 427 416
f 431 430 429
f 429 428 431
f 428 429 433
f 433 432 428
f 432 433 435
f 435 434 432
f 434 435 437
f 437 436 434
f 436 437 439
f 439 438 436
f 439 430 431
f 431 438 439
f 430 423 421
f 421 429 430
f 429 421 419
f 419 433 429
f 433 419 416
f 416 435 433
f 435 416 427
f 427 437 435
f 437 427 425
f 425 439 437
f 439 425 423
f 423 430 439
f 441 417 418
f 418 440 441
f 440 418 420
f 420 442 440
f 442 420 422
f 422 443 442
f 443 422 424
f 424 444 443
f 444 424 426
f 426 445 444
f 445 426 417
f 417 441 445
f 447 441 440
f 440 446 447
f 446 440 442
f 442 448 446
f 448 442 443
f 443 449 448
f 449 443 444
f 444 450 449
f 450 444 445
f 445 451 450
f 451 445 441
f 441 447 451
f 453 447 446
f 446 452 453
f 452 446 448
f 448 454 452
f 454 448 449
f 449 455 454
f 455 449 450
f 450 456 455
f 456 450 451
f 451 457 456
f 457 451 447
f 447 453 457
f 459 453 452
f 452 458 459
f 458 452 454
f 454 460 458
f 460 454 455
f 455 461 460
f 461 455 456
f 456 462 461
f 462 456 457
f 457 463 462
f 463 457 453
f 453 459 463
f 465 459 458
f 458 464 465
f 464 458 460
f 460 466 464
f 466 460 461
f 461 467 466
f 467 461 462
f 462 468 467
f 468 462 463
f 463 469 468
f 469 463 459
f 459 465 469
f 464 470 465
f 466 470 464
f 467 470 466
f 468 470 467
f 469 470 468
f 465 470 469
f 474 473 472
f 472 471 474
f 476 475 473
f 473 474 476
f 478 477 475
f 475 476 478
f 480 479 477
f 477 478 480
f 482 481 479
f 479 480 482
f 471 472 481
f 481 482 471
f 486 485 484
f 484 483 486
f 483 484 488
f 488 487 483
f 487 488 490
f 490 489 487
f 489 490 492
f 492 491 489
f 491 492 494
f 494 493 491
f 494 485 486
f 486 493 494
f 485 478 476
f 476 484 485
f 484 476 474
f 474 488 484
f 488 474 471
f 471 490 488
f 490 471 482
f 482 492 490
f 492 482 480
f 480 494 492
f 494 480 478
f 478 485 494
f 496 472 473
f 473 495 496
f 495 473 475
f 475 497 495
f 497 475 477
f 477 498 497
f 498 477 479
f 479 499 498
f 499 479 481
f 481 500 499
f 500 481 472
f 472 496 500
f 502 496 495
f 495 501 502
f 501 495 497
f 497 503 501
f 503 497 498
f 498 504 503
f 504 498 499
f 499 505 504
f 505 499 500
f 500 506 505
f 506 500 496
f 496 502 506
f 508 502 501
f 501 507 508
f 507 501 503
f 503 509 507
f 509 503 504
f 504 510 509
f 510 504 505
f 505 511 510
f 511 505 506
f 506 512 511
f 512 506 502
f 502 508 512
f 514 508 507
f 507 513 514
f 513 507 509
f 509 515 513
f 515 509 510
f 510 516 515
f 516 510 511
f 511 517 516
f 517 511 512
f 512 518 517
f 518 512 508
f 508 514 518
f 520 514 513
f 513 519 520
f 519 513 515
f 515 521 519
f 521 515 516
f 516 522 521
f 522 516 517
f 517 523 522
f 523 517 518
f 518 524 523
f 524 518 514
f 514 520 524
f 519 525 520
f 521 525 519
f 522 525 521
f 523 525 522
f 524 525 523
f 520 525 524
f 529 528 527
f 527 526 529
f 531 530 528
f 528 529 531
f 533 532 530
f 530 531 533
f 535 534 532
f 532 533 535
f 537 536 534
f 534 535 537
f 526 527 536
f 536 537 526
f 539 533 531
f 531 538 539
f 538 531 529
f 529 540 538
f 540 529 526
f 526 541 540
f 541 526 537
f 537 542 541
f 542 537 535
f 535 543 542
f 543 535 533
f 533 539 543
f 545 527 528
f 528 544 545
f 544 528 530
f 530 546 544
f 546 530 532
f 532 547 546
f 547 532 534
f 534 548 547
f 548 534 536
f 536 549 548
f 549 536 527
f 527 545 549
f 551 545 544
f 544 550 551
f 550 544 546
f 546 552 550
f 552 546 547
f 547 553 552
f 553 547 548
f 548 554 553
f 554 548 549
f 549 555 554
f 555 549 545
f 545 551 555
f 557 551 550
f 550 556 557
f 556 550 552
f 552 558 556
f 558 552 553
f 553 559 558
f 559 553 554
f 554 560 559
f 560 554 555
f 555 561 560
f 561 555 551
f 551 557 561
f 563 557 556
f 556 562 563
f 562 556 558
f 558 564 562
f 564 558 559
f 559 565 564
f 565 559 560
f 560 566 565
f 566 560 561
f 561 567 566
f 567 561 557
f 557 563 567
f 569 563 562
f 562 568 569
f 568 562 564
f 564 570 568
f 570 564 565
f 565 571 570
f 571 565 566
f 566 572 571
f 572 566 567
f 567 573 572
f 573 567 563
f 563 569 573
f 568 574 569
f 570 574 568
f 571 574 570
f 572 574 571
f 573 574 572
f 569 574 573
f 578 577 576
f 576 575 578
f 580 579 577
f 577 578 580
f 582 581 579
f 579 580 582
f 584 583 581
f 581 582 584
f 586 585 583
f 583 584 586
f 575 576 585
f 585 586 575
f 590 589 588
f 588 587 590
f 587 588 592
f 592 591 587
f 591 592 594
f 594 593 591
f 593 594 596
f 596 595 593
f 595 596 598
f 598 597 595
f 598 589 590
f 590 597 598
f 589 582 580
f 580 588 589
f 588 580 578
f 578 592 588
f 592 578 575
f 575 594 592
f 594 575 586
f 586 596 594
f 596 586 584
f 584 598 596
f 598 584 582
f 582 589 598
f 600 576 577
f 577 599 600
f 599 577 579
f 579 601 599
f 601 579 581
f 581 602 601
f 602 581 583
f 583 603 602
f 603 583 585
f 585 604 603
f 604 585 576
f 576 600 604
f 606 600 599
f 599 605 606
f 605 599 601
f 601 607 605
f 607 601 602
f 602 608 607
f 608 602 603
f 603 609 608
f 609 603 604
f 604 610 609
f 610 604 600
f 600 606 610
f 612 606 605
f 605 611 612
f 611 605 607
f 607 613 611
f 613 607 608
f 608 614 613
f 614 608 609
f 609 615 614
f 615 609 610
f 610 616 615
f 616 610 606
f 606 612 616
f 618 612 611
f 611 617 618
f 617 611 613
f 613 619 617
f 619 613 614
f 614 620 619
f 620 614 615
f 615 621 620
f 621 615 616
f 616 622 621
f 622 616 612
f 612 618 622
f 624 618 617
f 617 623 624
f 623 617 619
f 619 625 623
f 625 619 620
f 620 626 625
f 626 620 621
f 621 627 626
f 627 621 622
f 622 628 627
f 628 622 618
f 618 624 628
f 623 629 624
f 625 629 623
f 626 629 625
f 627 629 626
f 628 629 627
f 624 629 628
f 633 632 631
f 631 630 633
f 630 631 635
f 635 634 630
f 634 635 637
f 637 636 634
f 637 639 638
f 638 636 637
f 641 640 638
f 638 639 641
f 632 633 640
f 640 641 632
f 645 644 643
f 643 642 645
f 647 642 643
f 643 646 647
f 649 648 647
f 647 646 649
f 651 650 648
f 648 649 651
f 650 651 653
f 653 652 650
f 652 653 644
f 644 645 652
f 655 645 642
f 642 654 655
f 654 642 647
f 647 656 654
f 656 647 648
f 648 657 656
f 657 648 650
f 650 658 657
f 658 650 652
f 652 659 658
f 659 652 645
f 645 655 659
f 597 661 660
f 660 595 597
f 587 663 662
f 662 590 587
f 595 660 664
f 664 593 595
f 591 665 663
f 663 587 591
f 542 543 666
f 539 667 666
f 666 543 539
f 538 668 667
f 667 539 538
f 669 541 542
f 540 670 668
f 668 538 540
f 541 669 670
f 670 540 541
f 493 669 661
f 661 491 493
f 486 670 669
f 669 493 486
f 483 662 670
f 670 486 483
f 487 590 662
f 662 483 487
f 489 597 590
f 590 487 489
f 491 661 597
f 597 489 491
f 436 664 666
f 666 434 436
f 432 667 665
f 665 428 432
f 434 666 667
f 667 432 434
f 438 593 664
f 664 436 438
f 431 591 593
f 593 438 431
f 428 665 591
f 591 431 428
f 662 663 668
f 668 670 662
f 663 665 667
f 667 668 663
f 632 258 259
f 259 631 632
f 637 672 671
f 671 639 637
f 676 675 674
f 674 673 676
f 678 266 267
f 267 677 678
f 639 679 641
f 271 632 641
f 641 679 271
f 632 271 258
f 639 671 680
f 680 679 639
f 673 674 682
f 682 681 673
f 683 677 267
f 267 275 683
f 631 684 635
f 685 637 635
f 635 684 685
f 684 631 259
f 259 279 684
f 672 637 685
f 685 686 672
f 675 676 688
f 688 687 675
f 284 266 678
f 678 689 284
f 661 658 659
f 659 660 661
f 660 659 655
f 655 664 660
f 664 655 654
f 654 666 664
f 666 654 656
f 656 542 666
f 542 656 657
f 657 669 542
f 669 657 658
f 658 661 669
f 675 678 677
f 677 674 675
f 673 671 672
f 672 676 673
f 674 677 683
f 683 682 674
f 681 680 671
f 671 673 681
f 676 672 686
f 686 688 676
f 687 689 678
f 678 675 687
f 286 271 679
f 679 690 286
f 690 679 680
f 680 691 690
f 693 681 682
f 682 692 693
f 694 683 275
f 275 290 694
f 692 682 683
f 683 694 692
f 691 680 681
f 681 693 691
f 293 286 690
f 690 695 293
f 695 690 691
f 691 696 695
f 698 693 692
f 692 697 698
f 699 694 290
f 290 297 699
f 697 692 694
f 694 699 697
f 696 691 693
f 693 698 696
f 300 293 695
f 695 700 300
f 700 695 696
f 696 701 700
f 703 698 697
f 697 702 703
f 704 699 297
f 297 304 704
f 702 697 699
f 699 704 702
f 701 696 698
f 698 703 701
f 706 685 684
f 684 705 706
f 705 684 279
f 279 308 705
f 707 686 685
f 685 706 707
f 709 687 688
f 688 708 709
f 313 284 689
f 689 710 313
f 708 688 686
f 686 707 708
f 710 689 687
f 687 709 710
f 315 300 700
f 700 711 315
f 711 700 701
f 701 712 711
f 714 703 702
f 702 713 714
f 715 704 304
f 304 319 715
f 713 702 704
f 704 715 713
f 712 701 703
f 703 714 712
f 322 315 711
f 711 716 322
f 716 711 712
f 712 717 716
f 719 714 713
f 713 718 719
f 720 715 319
f 319 326 720
f 718 713 715
f 715 720 718
f 717 712 714
f 714 719 717
f 329 322 716
f 716 721 329
f 721 716 717
f 717 722 721
f 724 719 718
f 718 723 724
f 725 720 326
f 326 333 725
f 723 718 720
f 720 725 723
f 722 717 719
f 719 724 722
f 338 335 727
f 727 726 338
f 726 727 729
f 729 728 726
f 733 732 731
f 731 730 733
f 735 734 346
f 346 347 735
f 730 731 734
f 734 735 730
f 728 729 732
f 732 733 728
f 350 338 726
f 726 736 350
f 736 726 728
f 728 737 736
f 739 733 730
f 730 738 739
f 740 735 347
f 347 354 740
f 738 730 735
f 735 740 738
f 737 728 733
f 733 739 737
f 357 350 736
f 736 741 357
f 741 736 737
f 737 742 741
f 744 739 738
f 738 743 744
f 745 740 354
f 354 361 745
f 743 738 740
f 740 745 743
f 742 737 739
f 739 744 742
f 366 363 747
f 747 746 366
f 746 747 749
f 749 748 746
f 753 752 751
f 751 750 753
f 755 754 374
f 374 375 755
f 750 751 754
f 754 755 750
f 748 749 752
f 752 753 748
f 746 377 366
f 377 746 748
f 748 756 377
f 750 757 753
f 375 380 755
f 757 750 755
f 755 380 757
f 756 748 753
f 753 757 756
f 382 377 756
f 756 758 382
f 759 757 380
f 380 383 759
f 758 756 757
f 757 759 758
f 386 382 758
f 758 760 386
f 761 759 383
f 383 387 761
f 760 758 759
f 759 761 760
f 760 389 386
f 387 389 761
f 761 389 760
f 754 762 391
f 391 374 754
f 751 763 762
f 762 754 751
f 752 764 763
f 763 751 752
f 749 765 764
f 764 752 749
f 747 766 765
f 765 749 747
f 363 396 766
f 766 747 363
f 396 357 741
f 741 766 396
f 766 741 742
f 742 765 766
f 765 742 744
f 744 764 765
f 764 744 743
f 743 763 764
f 763 743 745
f 745 762 763
f 762 745 361
f 361 391 762
f 329 721 727
f 727 335 329
f 721 722 729
f 729 727 721
f 722 724 732
f 732 729 722
f 724 723 731
f 731 732 724
f 723 725 734
f 734 731 723
f 725 333 346
f 346 734 725
f 768 706 705
f 705 767 768
f 767 705 308
f 308 399 767
f 769 707 706
f 706 768 769
f 771 709 708
f 708 770 771
f 404 313 710
f 710 772 404
f 770 708 707
f 707 769 770
f 772 710 709
f 709 771 772
f 773 768 767
f 767 405 773
f 399 405 767
f 768 773 769
f 775 771 770
f 770 774 775
f 772 409 404
f 774 770 769
f 769 773 774
f 409 772 771
f 771 775 409
f 405 410 773
f 778 805 777
f 777 776 778
f 779 774 773
f 773 410 779
f 414 412 779
f 779 780 414
f 780 779 410
f 410 415 780
f 781 783 782
f 784 781 782
f 784 782 785
f 783 785 782
f 787 783 781
f 781 786 787
f 786 781 784
f 784 788 786
f 788 415 413
f 413 786 788
f 786 413 414
f 414 787 786
f 787 414 780
f 780 789 787
f 789 780 415
f 415 788 789
f 787 789 785
f 785 783 787
f 789 788 784
f 784 785 789
f 638 651 649
f 649 636 638
f 636 649 646
f 646 634 636
f 646 643 630
f 630 634 646
f 644 633 630
f 630 643 644
f 653 640 633
f 633 644 653
f 651 638 640
f 640 653 651
f 245 235 230
f 230 234 245
f 245 234 233
f 233 243 245
f 233 232 241
f 241 243 233
f 232 231 239
f 239 241 232
f 239 231 229
f 229 236 239
f 236 229 230
f 230 235 236
f 791 411 407
f 407 790 791
f 792 412 411
f 411 791 792
f 408 790 407
f 790 408 409
f 409 793 790
f 774 794 775
f 795 779 412
f 412 792 795
f 794 774 779
f 779 795 794
f 793 409 775
f 775 794 793
f 797 791 790
f 790 796 797
f 798 792 791
f 791 797 798
f 796 790 793
f 793 799 796
f 800 795 792
f 792 798 800
f 801 794 795
f 795 800 801
f 799 793 794
f 794 801 799
f 802 797 796
f 796 776 802
f 803 798 797
f 797 802 803
f 776 796 799
f 799 778 776
f 804 800 798
f 798 803 804
f 805 801 800
f 800 804 805
f 778 799 801
f 801 805 778
f 776 777 803
f 803 802 776
f 805 804 803
f 803 777 805