# https://github.com/mikedh/trimesh
v -0.01863037 -0.00103871 0.01118592
v -0.01490367 0.00208836 0.01118592
v -0.01488125 0.00210717 0.00750497
v -0.01843548 -0.00087519 0.00750497
v -0.00443719 -0.01755772 0.00750497
v -0.00463206 -0.01772123 0.01118592
v -0.00835875 -0.02084829 0.01118592
v -0.00799140 -0.02054006 0.00750497
v -0.00088296 -0.01457535 0.00750497
v -0.00090537 -0.01459417 0.01118592
v 0.00622551 -0.00861065 0.00750497
v 0.00986258 -0.00555878 0.00750497
v 0.01036155 -0.00514009 0.01118592
v 0.00654800 -0.00834004 0.01118592
v 0.00267128 -0.01159299 0.00750497
v 0.00282131 -0.01146710 0.01118592
v -0.00777280 0.00807187 0.00750497
v -0.00745029 0.00834247 0.01118592
v -0.00363674 0.01154243 0.01118592
v -0.00413572 0.01112373 0.00750497
v -0.01132703 0.00508951 0.00750497
v -0.01117698 0.00521542 0.01118592
v -0.02198971 -0.00385753 0.00750497
v -0.02235704 -0.00416576 0.01118592
v -0.00976113 -0.00394224 0.00000000
v -0.00461280 -0.01007778 0.00000000
v -0.00796809 -0.01289323 0.00000000
v -0.01311642 -0.00675768 0.00000000
v -0.00469277 -0.01014490 0.01964795
v -0.00984110 -0.00400935 0.01964795
v -0.01381155 -0.00734096 0.01964795
v -0.00866321 -0.01347651 0.01964795
v 0.00302098 -0.01170506 0.01118592
v -0.00070571 -0.01483212 0.01118592
v -0.00068329 -0.01481332 0.00750497
v 0.00287094 -0.01183094 0.00750497
v 0.00423046 0.00779807 0.01118592
v 0.00937879 0.00166254 0.01118592
v 0.00875148 0.00113617 0.00750497
v 0.00360314 0.00727171 0.00750497
v -0.01749972 -0.02089121 0.01125337
v -0.02264805 -0.01475566 0.01125337
v -0.02202075 -0.01422930 0.00757242
v -0.01687242 -0.02036484 0.00757242
v -0.00992916 -0.02257151 0.00325906
v -0.01053795 -0.02281645 0.00192233
v -0.01006009 -0.02241547 0.00183322
v 0.00739179 -0.00378311 0.00000000
v 0.00872889 -0.00440612 0.00020369
v 0.00830830 -0.00487536 0.00020369
v -0.02472848 -0.01000456 0.00325906
v -0.02497342 -0.00939578 0.00192233
v -0.02457244 -0.00987364 0.00183322
v -0.00281607 0.00838216 0.00000000
v -0.00219305 0.00971924 0.00020369
v -0.00172381 0.00929867 0.00020369
v -0.01170901 -0.02406497 0.01638889
v -0.01305165 -0.02492569 0.01701270
v -0.01313244 -0.02499347 0.01638889
v 0.01212594 0.00018932 0.01638889
v 0.01280053 -0.00098960 0.01701270
v 0.01285781 -0.00105786 0.01638889
v -0.02696605 -0.01188209 0.01638889
v -0.02764064 -0.01070316 0.01701270
v -0.02769791 -0.01063491 0.01638889
v -0.00313110 0.01237220 0.01638889
v -0.00178845 0.01323292 0.01701270
v -0.00170766 0.01330070 0.01638889
v -0.01497678 -0.01877421 0.00020369
v -0.02012511 -0.01263865 0.00020369
v -0.01903285 -0.01172215 0.00000000
v -0.01388452 -0.01785769 0.00000000
v -0.01723198 -0.00185294 0.00020369
v -0.01387668 0.00096249 0.00020369
v -0.01296017 -0.00012977 0.00000000
v -0.01631547 -0.00294520 0.00000000
v 0.00147524 0.00548619 0.00020369
v 0.00662357 -0.00064935 0.00020369
v 0.00553131 -0.00156588 0.00000000
v 0.00038298 0.00456967 0.00000000
v 0.00151950 -0.01057184 0.00020369
v -0.00183581 -0.01338728 0.00020369
v -0.00275232 -0.01229501 0.00000000
v 0.00060299 -0.00947959 0.00000000
v -0.00588622 -0.01678599 0.01944426
v -0.00191578 -0.01345438 0.01944426
v -0.00283229 -0.01236213 0.01964795
v -0.00680274 -0.01569373 0.01964795
v 0.00860366 0.00101213 0.01944426
v 0.00345533 0.00714768 0.01944426
v 0.00216282 0.00606314 0.01964795
v 0.00731115 -0.00007240 0.01964795
v -0.00998619 0.00422699 0.01944426
v -0.01395665 0.00089539 0.01944426
v -0.01304014 -0.00019687 0.01964795
v -0.00906968 0.00313474 0.01964795
v -0.02210520 -0.01430015 0.01944426
v -0.01695687 -0.02043570 0.01944426
v -0.01566436 -0.01935114 0.01964795
v -0.02081269 -0.01321561 0.01964795
v 0.01006225 -0.00579673 0.00750497
v 0.01108833 -0.00466985 0.00750497
v 0.01164345 -0.00420405 0.01118592
v 0.01056122 -0.00537804 0.01118592
v -0.01234778 -0.02433507 0.01118592
v -0.01179267 -0.02386929 0.00750497
v -0.01050472 -0.02305446 0.00750497
v -0.01100370 -0.02347316 0.01118592
v -0.00067770 0.01203775 0.00750497
v -0.00005842 0.01255738 0.01118592
v 0.00103141 0.01161056 0.01118592
v 0.00040410 0.01108418 0.00750497
v -0.02490235 -0.00589605 0.00750497
v -0.02592844 -0.00702293 0.00750497
v -0.02648355 -0.00748874 0.01118592
v -0.02540132 -0.00631473 0.01118592
v -0.01115235 -0.02333197 0.00325906
v -0.01108407 -0.02327471 0.00263525
v -0.01232532 -0.02351853 0.00325906
v -0.01220830 -0.02342032 0.00218968
v -0.01344808 -0.02313113 0.00325906
v -0.01330179 -0.02300839 0.00192233
v -0.01452062 -0.02216981 0.00325906
v -0.01436459 -0.02203888 0.00183322
v -0.01087928 -0.02310284 0.00218968
v -0.01185721 -0.02312573 0.00142584
v -0.01286294 -0.02264015 0.00096753
v -0.01389648 -0.02164608 0.00081476
v -0.01127207 -0.02263475 0.00096753
v -0.01213153 -0.02202641 0.00039465
v -0.01311630 -0.02099144 0.00020369
v -0.01045288 -0.02194736 0.00081476
v -0.01110753 -0.02116718 0.00020369
v -0.01202404 -0.02007493 0.00000000
v 0.00848405 -0.00286660 0.00020369
v 0.00881675 -0.00340173 0.00020369
v 0.00926424 -0.00221195 0.00081476
v 0.00983459 -0.00312933 0.00081476
v 0.00973234 -0.00181915 0.00183322
v 0.01044529 -0.00296588 0.00183322
v 0.00988837 -0.00168821 0.00325906
v 0.01064885 -0.00291140 0.00325906
v 0.00889838 -0.00391490 0.00020369
v 0.00997449 -0.00400906 0.00081476
v 0.01062017 -0.00406554 0.00183322
v 0.01083540 -0.00408438 0.00325906
v 0.00968395 -0.00485113 0.00081476
v 0.01025698 -0.00511814 0.00183322
v 0.01044801 -0.00520715 0.00325906
v 0.00896296 -0.00565554 0.00081476
v 0.00935575 -0.00612365 0.00183322
v 0.00948668 -0.00627969 0.00325906
v -0.02548896 -0.00878137 0.00325906
v -0.02543168 -0.00884964 0.00263525
v -0.02567550 -0.00760840 0.00325906
v -0.02557730 -0.00772542 0.00218968
v -0.02528812 -0.00648564 0.00325906
v -0.02516536 -0.00663192 0.00192233
v -0.02432678 -0.00541310 0.00325906
v -0.02419586 -0.00556912 0.00183322
v -0.02525983 -0.00905443 0.00218968
v -0.02528271 -0.00807651 0.00142584
v -0.02479712 -0.00707079 0.00096753
v -0.02380306 -0.00603723 0.00081476
v -0.02479173 -0.00866165 0.00096753
v -0.02418339 -0.00780220 0.00039465
v -0.02314840 -0.00681742 0.00020369
v -0.02410435 -0.00948084 0.00081476
v -0.02332415 -0.00882619 0.00020369
v -0.02223189 -0.00790968 0.00000000
v -0.00373258 0.00947441 0.00020369
v -0.00319743 0.00980711 0.00020369
v -0.00438722 0.01025459 0.00081476
v -0.00346983 0.01082495 0.00081476
v -0.00478001 0.01072269 0.00183322
v -0.00363328 0.01143564 0.00183322
v -0.00491094 0.01087874 0.00325906
v -0.00368776 0.01163920 0.00325906
v -0.00268426 0.00988873 0.00020369
v -0.00259011 0.01096484 0.00081476
v -0.00253362 0.01161053 0.00183322
v -0.00251479 0.01182575 0.00325906
v -0.00174803 0.01067430 0.00081476
v -0.00148102 0.01124733 0.00183322
v -0.00139203 0.01143836 0.00325906
v -0.00094363 0.00995331 0.00081476
v -0.00047552 0.01034610 0.00183322
v -0.00031948 0.01047703 0.00325906
v -0.01183993 -0.02390894 0.01781472
v -0.01240540 -0.02438342 0.01772561
v -0.01223273 -0.02344083 0.01883319
v -0.01320211 -0.02425423 0.01868042
v -0.01288737 -0.02266064 0.01944426
v -0.01409911 -0.02367741 0.01925329
v -0.01380388 -0.02156838 0.01964795
v -0.01509639 -0.02265293 0.01944426
v -0.01280932 -0.02472234 0.01745827
v -0.01389451 -0.02483525 0.01822211
v -0.01496462 -0.02440366 0.01868042
v -0.01601961 -0.02342760 0.01883319
v -0.01430997 -0.02518384 0.01745827
v -0.01548393 -0.02483941 0.01772561
v -0.01657355 -0.02389241 0.01781472
v -0.01444845 -0.02530005 0.01638889
v -0.01565704 -0.02498468 0.01638889
v -0.01675820 -0.02404734 0.01638889
v 0.01194130 0.00003439 0.01781472
v 0.01234228 -0.00044348 0.01772561
v 0.01138736 -0.00043043 0.01883319
v 0.01207474 -0.00124962 0.01868042
v 0.01046414 -0.00120511 0.01944426
v 0.01132336 -0.00222908 0.01925329
v 0.00917163 -0.00228963 0.01964795
v 0.01008814 -0.00338190 0.01944426
v 0.01262868 -0.00078480 0.01745827
v 0.01256574 -0.00183474 0.01822211
v 0.01193711 -0.00296051 0.01868042
v 0.01074280 -0.00416208 0.01883319
v 0.01286033 -0.00218584 0.01745827
v 0.01230535 -0.00339935 0.01772561
v 0.01113558 -0.00463020 0.01781472
v 0.01295853 -0.00230286 0.01638889
v 0.01242809 -0.00354565 0.01638889
v 0.01126652 -0.00478621 0.01638889
v -0.02678140 -0.01172716 0.01781472
v -0.02718238 -0.01124930 0.01772561
v -0.02622746 -0.01126236 0.01883319
v -0.02691485 -0.01044316 0.01868042
v -0.02530425 -0.01048769 0.01944426
v -0.02616347 -0.00946369 0.01925329
v -0.02401174 -0.00940314 0.01964795
v -0.02492825 -0.00831088 0.01944426
v -0.02746879 -0.01090797 0.01745827
v -0.02740584 -0.00985803 0.01822211
v -0.02677722 -0.00873228 0.01868042
v -0.02558291 -0.00753071 0.01883319
v -0.02770043 -0.00950694 0.01745827
v -0.02714546 -0.00829342 0.01772561
v -0.02597568 -0.00706259 0.01781472
v -0.02779863 -0.00938991 0.01638889
v -0.02726820 -0.00814714 0.01638889
v -0.02610663 -0.00690656 0.01638889
v -0.00300017 0.01221616 0.01781472
v -0.00243471 0.01269065 0.01772561
v -0.00260738 0.01174805 0.01883319
v -0.00163800 0.01256145 0.01868042
v -0.00195273 0.01096786 0.01944426
v -0.00074100 0.01198462 0.01925329
v -0.00103622 0.00987560 0.01964795
v 0.00025629 0.01096016 0.01944426
v -0.00203079 0.01302957 0.01745827
v -0.00094559 0.01314245 0.01822211
v 0.00012451 0.01271088 0.01868042
v 0.00117950 0.01173482 0.01883319
v -0.00053013 0.01349105 0.01745827
v 0.00064383 0.01314663 0.01772561
v 0.00173344 0.01219963 0.01781472
v -0.00039165 0.01360725 0.01638889
v 0.00081693 0.01329188 0.01638889
v 0.00191809 0.01235457 0.01638889
v -0.01575695 -0.01942885 0.00081476
v -0.02090530 -0.01329331 0.00081476
v -0.01622507 -0.01982164 0.00183322
v -0.02137340 -0.01368611 0.00183322
v -0.01638112 -0.01995258 0.00325906
v -0.02152945 -0.01381704 0.00325906
v -0.01788662 -0.00107277 0.00081476
v -0.01453133 0.00174266 0.00081476
v -0.01827941 -0.00060464 0.00183322
v -0.01492412 0.00221078 0.00183322
v -0.01841036 -0.00044861 0.00325906
v -0.01505505 0.00236682 0.00325906
v 0.00225542 0.00614084 0.00081476
v 0.00740375 0.00000530 0.00081476
v 0.00272353 0.00653361 0.00183322
v 0.00787186 0.00039808 0.00183322
v 0.00287956 0.00666456 0.00325906
v 0.00802791 0.00052901 0.00325906
v 0.00217415 -0.01135202 0.00081476
v -0.00118115 -0.01416745 0.00081476
v 0.00256694 -0.01182014 0.00183322
v -0.00078835 -0.01463557 0.00183322
v 0.00269787 -0.01197617 0.00325906
v -0.00065743 -0.01479161 0.00325906
v -0.00523158 -0.01756617 0.01883319
v -0.00126112 -0.01423456 0.01883319
v -0.00483879 -0.01803428 0.01781472
v -0.00086832 -0.01470267 0.01781472
v -0.00470786 -0.01819032 0.01638889
v -0.00073740 -0.01485872 0.01638889
v 0.00952688 0.00178682 0.01883319
v 0.00437855 0.00792236 0.01883319
v 0.01008082 0.00225162 0.01781472
v 0.00493249 0.00838716 0.01781472
v 0.01026547 0.00240655 0.01638889
v 0.00511713 0.00854209 0.01638889
v -0.01064085 0.00500717 0.01883319
v -0.01461130 0.00167556 0.01883319
v -0.01103363 0.00547528 0.01781472
v -0.01500409 0.00214368 0.01781472
v -0.01116457 0.00563132 0.01638889
v -0.01513502 0.00229972 0.01638889
v -0.02302842 -0.01507483 0.01883319
v -0.01788009 -0.02121037 0.01883319
v -0.02358236 -0.01553963 0.01781472
v -0.01843403 -0.02167518 0.01781472
v -0.02376700 -0.01569458 0.01638889
v -0.01861867 -0.02183011 0.01638889
v 0.01152198 -0.00350827 0.00750497
v 0.01211720 -0.00300882 0.01118592
v 0.01136318 -0.00231201 0.00750497
v 0.01198247 -0.00179237 0.01118592
v 0.01061195 -0.00108106 0.00750497
v 0.01123927 -0.00055469 0.01118592
v -0.01360712 -0.02459408 0.01118592
v -0.01301190 -0.02409463 0.00750497
v -0.01478168 -0.02425017 0.01118592
v -0.01416241 -0.02373053 0.00750497
v -0.01587152 -0.02330334 0.01118592
v -0.01524420 -0.02277696 0.00750497
v -0.00182820 0.01240185 0.00750497
v -0.00123298 0.01290129 0.01118592
v -0.00304743 0.01217649 0.00750497
v -0.00249232 0.01264230 0.01118592
v -0.00433539 0.01136168 0.00750497
v -0.00383640 0.01178037 0.01118592
v -0.02636208 -0.00818450 0.00750497
v -0.02695730 -0.00868395 0.01118592
v -0.02620328 -0.00938077 0.00750497
v -0.02682258 -0.00990041 0.01118592
v -0.02545206 -0.01061171 0.00750497
v -0.02607937 -0.01113808 0.01118592
v 0.00323305 -0.01152709 0.01638889
v -0.00423752 -0.01779565 0.00750497
v -0.00401274 -0.01760704 0.00325906
v -0.01910548 -0.00103189 0.01638889
v -0.01510333 0.00232631 0.01118592
v -0.01883002 -0.00080076 0.01118592
v -0.01152668 0.00532746 0.00750497
v -0.01169975 0.00518224 0.00325906
v -0.01508091 0.00234512 0.00750497
v -0.02288033 -0.01495057 0.01118592
v -0.01773200 -0.02108610 0.01118592
v -0.01710468 -0.02055974 0.00750497
v -0.02225301 -0.01442419 0.00750497
v 0.00209781 -0.00444692 0.00000000
v -0.00305052 0.00168861 0.00000000
v -0.00125749 -0.00726235 0.00000000
v -0.00640582 -0.00112681 0.00000000
v -0.01647173 -0.00957311 0.00000000
v -0.01132340 -0.01570865 0.00000000
v -0.00190019 0.00265387 0.01964795
v 0.00324814 -0.00348167 0.01964795
v -0.00587064 -0.00067774 0.01964795
v -0.00072230 -0.00681328 0.01964795
v -0.01263368 -0.01680811 0.01964795
v -0.01778201 -0.01067257 0.01964795
v -0.00779176 -0.02077801 0.00750497
v -0.00815909 -0.02108624 0.01118592
v -0.01137664 0.00545337 0.01118592
v -0.02218937 -0.00361959 0.00750497
v -0.02255671 -0.00392783 0.01118592
v -0.00716608 0.00659335 0.00020369
v -0.00624957 0.00550109 0.00000000
v -0.01052137 0.00377791 0.00020369
v -0.00960486 0.00268566 0.00000000
v -0.01967076 -0.00576063 0.00000000
v -0.02058727 -0.00466837 0.00020369
v -0.00854640 -0.01901813 0.00020369
v -0.00946291 -0.01792588 0.00000000
v -0.00519110 -0.01620271 0.00020369
v -0.00610761 -0.01511045 0.00000000
v 0.00395828 -0.00666416 0.00000000
v 0.00487480 -0.00775642 0.00020369
v 0.00602513 -0.00679115 0.01944426
v 0.00510862 -0.00569890 0.01964795
v 0.00205468 -0.01012276 0.01944426
v 0.00113817 -0.00903051 0.01964795
v -0.01077320 -0.01902533 0.01964795
v -0.00985669 -0.02011759 0.01944426
v -0.02189756 -0.00576783 0.01944426
v -0.02098105 -0.00686010 0.01964795
v -0.01792710 -0.00243622 0.01944426
v -0.01701059 -0.00352847 0.01964795
v -0.00509923 0.00646634 0.01964795
v -0.00601574 0.00755860 0.01944426
v -0.00782072 0.00737353 0.00081476
v -0.01117603 0.00455811 0.00081476
v -0.02124193 -0.00388820 0.00081476
v -0.00821352 0.00784164 0.00183322
v -0.01156883 0.00502621 0.00183322
v -0.02163472 -0.00342008 0.00183322
v -0.00834446 0.00799768 0.00325906
v -0.02176565 -0.00326405 0.00325906
v -0.00789175 -0.01979831 0.00081476
v -0.00453646 -0.01698289 0.00081476
v 0.00552944 -0.00853659 0.00081476
v -0.00749896 -0.02026643 0.00183322
v -0.00414366 -0.01745100 0.00183322
v 0.00592223 -0.00900470 0.00183322
v -0.00736803 -0.02042246 0.00325906
v 0.00605317 -0.00916074 0.00325906
v 0.00667979 -0.00757135 0.01883319
v 0.00270933 -0.01090295 0.01883319
v -0.00920203 -0.02089778 0.01883319
v 0.00707259 -0.00803945 0.01781472
v 0.00310212 -0.01137106 0.01781472
v -0.00880925 -0.02136588 0.01781472
v 0.00720351 -0.00819548 0.01638889
v -0.00867831 -0.02152192 0.01638889
v -0.02255221 -0.00498765 0.01883319
v -0.01858176 -0.00165604 0.01883319
v -0.00667039 0.00833878 0.01883319
v -0.02294500 -0.00451953 0.01781472
v -0.01897456 -0.00118792 0.01781472
v -0.00706318 0.00880689 0.01781472
v -0.02307594 -0.00436352 0.01638889
v -0.00719411 0.00896293 0.01638889
v -0.00443240 -0.01795918 0.01118592
v 0.00674767 -0.00857799 0.01118592
v 0.00642516 -0.00884859 0.00750497
v -0.00764995 0.00858042 0.01118592
v -0.01863514 -0.00063724 0.00750497
v -0.00797246 0.00830982 0.00750497
v 0.03639788 0.03136020 0.06890548
v 0.04685604 0.04013565 0.08083971
v 0.05639555 0.04814024 0.08083971
v 0.05639555 0.04814024 0.06499145
v 0.03639788 0.03136020 0.02370383
v 0.04685604 0.04013565 0.01176960
v 0.05639555 0.04814024 0.01176960
v 0.05639555 0.04814024 0.02761786
v 0.05190266 0.01288232 0.04746099
v 0.07085480 0.01153504 0.04746099
v 0.08039430 0.01953964 0.04746099
v 0.06911460 0.03298227 0.04746099
v 0.02192674 0.04860625 0.04746099
v 0.02389094 0.06750440 0.04746099
v 0.03343045 0.07550900 0.04746099
v 0.04471015 0.06206638 0.04746099
v 0.05691342 0.04752308 0.08083971
v 0.04737392 0.03951848 0.08083971
v 0.03691575 0.03074304 0.06890548
v 0.05691342 0.04752308 0.06499145
v 0.05587768 0.04875742 0.01176960
v 0.04633818 0.04075282 0.01176960
v 0.03588001 0.03197737 0.02370383
v 0.05587768 0.04875742 0.02761786
v 0.08039430 0.01953964 0.04665532
v 0.07085480 0.01153504 0.04665532
v 0.05190266 0.01288232 0.04665532
v 0.06911460 0.03298227 0.04665532
v 0.03343045 0.07550900 0.04826664
v 0.02389094 0.06750440 0.04826664
v 0.02192674 0.04860625 0.04826664
v 0.04471015 0.06206638 0.04826664
v -0.02708233 -0.05365820 0.05108396
v -0.04202528 -0.04853149 0.05835446
v -0.03838474 -0.05276894 0.04794585
v -0.03480544 -0.00567755 0.07387129
v -0.04281468 -0.00714292 0.06877538
v -0.03624781 -0.01503574 0.07566096
v 0.06940380 0.03381912 0.03889586
v 0.07258232 0.04822596 0.03716301
v 0.07377212 0.04151839 0.04344768
v 0.06482214 0.05725842 0.05934986
v 0.05261718 0.05357325 0.06473111
v 0.05748051 0.04776268 0.06625164
v -0.02925881 -0.05089103 0.03323611
v -0.02702787 -0.05363299 0.04181007
v -0.05722726 -0.03424260 0.04531010
v -0.05481999 -0.02068485 0.05957905
v -0.05826776 -0.02345616 0.04637367
v 0.02869145 0.01575960 0.01664061
v 0.04858468 0.03380602 0.02182064
v 0.05160379 0.03019410 0.02325736
v -0.00505705 -0.04068484 0.02808737
v -0.00939539 -0.04663509 0.03433404
v -0.01374984 -0.04134581 0.02404345
v -0.03590409 -0.01487654 0.01711690
v -0.03448262 -0.00552806 0.01888742
v -0.02679226 -0.01464513 0.01397055
v -0.04039994 0.00143531 0.02799443
v -0.04255161 -0.00702108 0.02396772
v -0.04702672 -0.00178769 0.03423509
v -0.01119008 -0.03382135 0.07393344
v -0.02621399 -0.03727858 0.07385489
v -0.01401292 -0.04146765 0.06885116
v 0.06257640 0.04205984 0.02815829
v 0.05823832 0.06520520 0.04899530
v 0.04513250 0.06270851 0.04254774
v 0.04508714 0.06268750 0.05027599
v 0.06582940 0.05080689 0.06167072
v -0.02809624 -0.02415820 0.01472560
v -0.02031669 -0.03345296 0.01715788
v -0.01849964 -0.02452793 0.01399236
v -0.01086726 -0.03367185 0.01894953
v -0.03632174 -0.04281536 0.06838192
v -0.02941384 -0.05096281 0.05964590
v -0.05064335 -0.02572613 0.06614777
v -0.04081891 -0.01987303 0.07381646
v -0.04697186 -0.01247768 0.06736488
v -0.04364334 0.00518487 0.03990509
v -0.04716910 -0.00185362 0.05848477
v -0.04061564 0.00133543 0.06473344
v -0.04371908 0.00514980 0.05280608
v -0.00195357 -0.04449921 0.04001473
v -0.00953778 -0.04670103 0.05858382
v -0.00202934 -0.04453430 0.05291578
v -0.00527276 -0.04078472 0.06482644
v 0.05283206 0.05367276 0.02813268
v 0.03925184 0.04491464 0.02322486
v 0.04867643 0.05858357 0.03241542
v -0.05466495 -0.02061305 0.03316930
v -0.05447273 -0.03346532 0.03445965
v -0.03318113 -0.02842051 0.01672184
v -0.04288322 -0.04160140 0.02691769
v -0.04488311 -0.03217245 0.02308827
v -0.02717304 -0.01482148 0.07882847
v 0.06985544 0.05150343 0.03430380
v 0.05396614 0.04472211 0.02471881
v 0.06211691 0.05552698 0.03122682
v 0.07247306 0.04817536 0.05576927
v 0.07517575 0.05519863 0.04590731
v 0.07275976 0.06053971 0.04645439
v 0.07032844 0.03264352 0.04647820
v 0.06143024 0.01825796 0.04647967
v 0.06025818 0.01974815 0.03686830
v 0.06651719 0.03704953 0.06047402
v 0.05659912 0.02384302 0.06422079
v 0.06014535 0.01969590 0.05608458
v -0.00791633 -0.04851560 0.04646301
v -0.04864817 0.00002687 0.04635588
v -0.05105182 -0.00752176 0.05772289
v -0.05705091 -0.01794290 0.05100509
v 0.05479437 0.06416351 0.04048722
v 0.07388308 0.05677637 0.04207607
v 0.06792054 0.06384508 0.04588824
v 0.05472464 0.06413124 0.05236182
v 0.04694624 0.06040252 0.05742100
v 0.05680757 0.02393955 0.02871370
v 0.06668164 0.03712568 0.03246277
v -0.04691978 -0.04663136 0.05611786
v -0.05223063 -0.04433937 0.04640678
v -0.05041128 -0.02561865 0.02662275
v -0.04913126 -0.03979775 0.03104455
v 0.05133140 0.03006795 0.06964957
v 0.06236155 0.04196033 0.06475675
v -0.03812864 -0.03244670 0.07346255
v -0.04515682 -0.03229921 0.06971123
v -0.01888045 -0.02470428 0.07885029
v -0.02589191 -0.03712942 0.01900081
v -0.03343544 -0.04584974 0.02666739
v -0.04736676 -0.04219906 0.06176955
v -0.05473224 -0.03730917 0.05489912
v 0.05698575 0.06160083 0.03545949
v 0.03179095 0.05344529 0.06035075
v -0.05091844 -0.00746001 0.03500164
v -0.04672537 -0.01236351 0.02538143
v -0.04049686 -0.01972387 0.01896241
v 0.02107222 0.02483987 0.01662056
v -0.05699646 -0.01791769 0.04173125
v -0.02846828 -0.02433050 0.07809326
v 0.03897945 0.04478850 0.06961707
v 0.04514421 0.03742302 0.07154450
v 0.03620292 0.04811999 0.06728956
v 0.05685692 0.06154118 0.05740093
v 0.06920668 0.06226433 0.05083118
v -0.01565898 -0.04948067 0.03509438
v 0.04084428 0.00082287 0.06334683
v -0.01579240 -0.04954246 0.05781568
v 0.04281617 -0.00125017 0.03484800
v 0.04104248 0.00091468 0.02959105
v 0.04389394 -0.00258998 0.04054989
v 0.00517949 0.04349068 0.04637487
v 0.02943435 0.05634172 0.05129374
v 0.02949187 0.05636836 0.04149741
v 0.03043791 0.05528668 0.03678987
v 0.00856953 0.03961454 0.02950566
v 0.00673418 0.04175082 0.03475311
v -0.04566029 -0.04795551 0.03791470
v 0.06387751 0.06292679 0.03888828
v 0.06931477 0.03377790 0.05405545
v -0.05243765 -0.00575980 0.04635847
v 0.03570407 0.00735817 0.02119524
v 0.03234451 0.01138922 0.01837899
v 0.02834160 0.01559756 0.07623188
v 0.03540747 0.00722081 0.07171429
v 0.03838879 0.00370454 0.06794402
v -0.05048792 -0.03290629 0.06475936
v -0.05460789 -0.02795441 0.06043941
v 0.01739885 0.02920083 0.01833970
v 0.01102505 0.03673290 0.02490846
v 0.04228771 0.04131049 0.02180407
v 0.04267966 -0.00131340 0.05809939
v 0.04382435 -0.00262222 0.05240334
v 0.04423436 -0.00305326 0.04647760
v 0.02072236 0.02467785 0.07621185
v 0.07183629 0.05671296 0.05420709
v -0.01973897 -0.04452478 0.02545239
v -0.01427314 -0.05124266 0.04645885
v 0.03398414 0.05113958 0.02865367
v 0.00659766 0.04168760 0.05800442
v 0.00551989 0.04302740 0.05230253
v 0.01370975 0.03307925 0.07165720
v 0.01077281 0.03661607 0.06787134
v 0.00837135 0.03952276 0.06326137
v -0.02578534 -0.04707993 0.06557082
v 0.03864103 0.00382135 0.02498107
v 0.00558951 0.04305963 0.04044915
v 0.03201495 0.01123661 0.07451278
v 0.00727400 0.00551753 0.01322338
v 0.00310748 0.01047677 0.01385027
v 0.02202920 -0.01261771 0.06993116
v 0.02471232 -0.01576647 0.06490784
v -0.01425843 0.03085642 0.04636266
v -0.00126648 0.01507519 0.07706584
v 0.02796861 -0.01953092 0.05294994
v -0.00787100 0.02347224 0.02290641
v -0.01055413 0.02662098 0.02792976
v 0.00688420 0.00533701 0.07961416
v 0.01105070 0.00037774 0.07898729
v -0.00814663 0.02334458 0.06985174
v -0.00493745 0.01947989 0.07398853
v -0.01388646 0.03035020 0.05283979
v 0.01877155 -0.00877549 0.07405094
v 0.02230481 -0.01249008 0.02298577
v 0.01909563 -0.00862539 0.01884900
v 0.02841664 -0.02000191 0.04647491
v 0.02804466 -0.01949570 0.03999773
v -0.00461335 0.01963001 0.01878664
v -0.00102363 -0.01000476 0.07995846
v -0.00531489 -0.00489701 0.08060413
v -0.00090638 0.01524197 0.01572876
v 0.02686699 -0.01803170 0.03376730
v 0.02492889 -0.01566619 0.02802307
v -0.01255962 0.02895528 0.03366362
v -0.01381042 0.03038542 0.03988765
v 0.02671782 -0.01810079 0.05917396
v -0.01270880 0.02888620 0.05907021
v -0.01077070 0.02652069 0.06481444
v 0.01506456 -0.00438746 0.07710882
v 0.01542467 -0.00422068 0.01577170
v 0.01143300 0.00055480 0.01387217
v -0.01403693 -0.01221632 0.08030393
v 0.00272520 0.01029972 0.07896536
v -0.01363892 -0.01203200 0.01251406
v -0.00920467 0.00039667 0.01287102
v -0.00491341 -0.00471109 0.01222536
v -0.00062990 -0.00982243 0.01289356
v 0.00348132 -0.01474090 0.01484999
v -0.00531651 -0.02197544 0.01511610
v -0.01715672 0.00982398 0.01795520
v -0.01333874 0.00530454 0.01480575
v -0.02199170 -0.00210264 0.01507224
v 0.00170866 -0.03041905 0.02248218
v 0.00726222 -0.01927750 0.01801942
v 0.01056749 -0.02325790 0.02228007
v -0.02327538 0.01702427 0.02737210
v -0.02051191 0.01378124 0.02219833
v -0.02910307 0.00630106 0.02240116
v 0.01327013 -0.02652912 0.02746820
v 0.01526626 -0.02896547 0.03338445
v 0.00636696 -0.03607750 0.03349092
v -0.03389052 0.01189966 0.03338505
v -0.02662917 0.02090143 0.03968805
v -0.02534092 0.01942848 0.03327765
v 0.01647920 -0.03047329 0.03980142
v 0.01686232 -0.03099468 0.04647256
v 0.00794927 -0.03808923 0.04646632
v -0.02670747 0.02086515 0.05302803
v -0.02709059 0.02138653 0.04635695
v -0.03562510 0.01384086 0.04635171
v 0.01640088 -0.03050957 0.05314147
v 0.01511264 -0.02903662 0.05955188
v 0.00621465 -0.03614803 0.05943299
v -0.02349842 0.01692099 0.06536124
v -0.02549455 0.01935733 0.05944500
v -0.03404282 0.01182913 0.05932704
v 0.01304709 -0.02663242 0.06545743
v 0.01028362 -0.02338936 0.07063117
v 0.00142722 -0.03054940 0.07041687
v -0.02938451 0.00617073 0.07033579
v -0.01749051 0.00966938 0.07481004
v -0.02079577 0.01364977 0.07054937
v -0.00568420 -0.02214571 0.07774577
v 0.00692842 -0.01943207 0.07487430
v 0.00311044 -0.01491266 0.07802375
v -0.02235939 -0.00227293 0.07770189
v -0.00959842 0.00021431 0.07993591
v -0.01370962 0.00513278 0.07797947
f 1 2 3
f 1 3 4
f 5 6 7
f 5 7 8
f 9 10 6
f 9 6 5
f 11 12 13
f 11 13 14
f 15 11 14
f 15 14 16
f 17 18 19
f 17 19 20
f 21 22 18
f 21 18 17
f 4 23 24
f 4 24 1
f 25 26 27
f 25 27 28
f 29 30 31
f 29 31 32
f 33 34 35
f 33 35 36
f 37 38 39
f 37 39 40
f 41 42 43
f 41 43 44
f 45 46 47
f 48 49 50
f 51 52 53
f 54 55 56
f 57 58 59
f 60 61 62
f 63 64 65
f 66 67 68
f 69 70 71
f 69 71 72
f 73 74 75
f 73 75 76
f 77 78 79
f 77 79 80
f 81 82 83
f 81 83 84
f 85 86 87
f 85 87 88
f 89 90 91
f 89 91 92
f 93 94 95
f 93 95 96
f 97 98 99
f 97 99 100
f 101 102 103
f 101 103 104
f 105 106 107
f 105 107 108
f 109 110 111
f 109 111 112
f 113 114 115
f 113 115 116
f 45 117 118
f 119 120 118
f 119 118 117
f 121 122 120
f 121 120 119
f 123 124 122
f 123 122 121
f 45 118 125
f 120 126 125
f 120 125 118
f 122 127 126
f 122 126 120
f 124 128 127
f 124 127 122
f 45 125 46
f 126 129 46
f 126 46 125
f 127 130 129
f 127 129 126
f 128 131 130
f 128 130 127
f 129 132 47
f 129 47 46
f 130 133 132
f 130 132 129
f 131 134 133
f 131 133 130
f 48 135 136
f 137 138 136
f 137 136 135
f 139 140 138
f 139 138 137
f 141 142 140
f 141 140 139
f 48 136 143
f 138 144 143
f 138 143 136
f 140 145 144
f 140 144 138
f 142 146 145
f 142 145 140
f 48 143 49
f 144 147 49
f 144 49 143
f 145 148 147
f 145 147 144
f 146 149 148
f 146 148 145
f 147 150 50
f 147 50 49
f 148 151 150
f 148 150 147
f 149 152 151
f 149 151 148
f 51 153 154
f 155 156 154
f 155 154 153
f 157 158 156
f 157 156 155
f 159 160 158
f 159 158 157
f 51 154 161
f 156 162 161
f 156 161 154
f 158 163 162
f 158 162 156
f 160 164 163
f 160 163 158
f 51 161 52
f 162 165 52
f 162 52 161
f 163 166 165
f 163 165 162
f 164 167 166
f 164 166 163
f 165 168 53
f 165 53 52
f 166 169 168
f 166 168 165
f 167 170 169
f 167 169 166
f 54 171 172
f 173 174 172
f 173 172 171
f 175 176 174
f 175 174 173
f 177 178 176
f 177 176 175
f 54 172 179
f 174 180 179
f 174 179 172
f 176 181 180
f 176 180 174
f 178 182 181
f 178 181 176
f 54 179 55
f 180 183 55
f 180 55 179
f 181 184 183
f 181 183 180
f 182 185 184
f 182 184 181
f 183 186 56
f 183 56 55
f 184 187 186
f 184 186 183
f 185 188 187
f 185 187 184
f 57 189 190
f 191 192 190
f 191 190 189
f 193 194 192
f 193 192 191
f 195 196 194
f 195 194 193
f 57 190 197
f 192 198 197
f 192 197 190
f 194 199 198
f 194 198 192
f 196 200 199
f 196 199 194
f 57 197 58
f 198 201 58
f 198 58 197
f 199 202 201
f 199 201 198
f 200 203 202
f 200 202 199
f 201 204 59
f 201 59 58
f 202 205 204
f 202 204 201
f 203 206 205
f 203 205 202
f 60 207 208
f 209 210 208
f 209 208 207
f 211 212 210
f 211 210 209
f 213 214 212
f 213 212 211
f 60 208 215
f 210 216 215
f 210 215 208
f 212 217 216
f 212 216 210
f 214 218 217
f 214 217 212
f 60 215 61
f 216 219 61
f 216 61 215
f 217 220 219
f 217 219 216
f 218 221 220
f 218 220 217
f 219 222 62
f 219 62 61
f 220 223 222
f 220 222 219
f 221 224 223
f 221 223 220
f 63 225 226
f 227 228 226
f 227 226 225
f 229 230 228
f 229 228 227
f 231 232 230
f 231 230 229
f 63 226 233
f 228 234 233
f 228 233 226
f 230 235 234
f 230 234 228
f 232 236 235
f 232 235 230
f 63 233 64
f 234 237 64
f 234 64 233
f 235 238 237
f 235 237 234
f 236 239 238
f 236 238 235
f 237 240 65
f 237 65 64
f 238 241 240
f 238 240 237
f 239 242 241
f 239 241 238
f 66 243 244
f 245 246 244
f 245 244 243
f 247 248 246
f 247 246 245
f 249 250 248
f 249 248 247
f 66 244 251
f 246 252 251
f 246 251 244
f 248 253 252
f 248 252 246
f 250 254 253
f 250 253 248
f 66 251 67
f 252 255 67
f 252 67 251
f 253 256 255
f 253 255 252
f 254 257 256
f 254 256 253
f 255 258 68
f 255 68 67
f 256 259 258
f 256 258 255
f 257 260 259
f 257 259 256
f 261 262 70
f 261 70 69
f 263 264 262
f 263 262 261
f 265 266 264
f 265 264 263
f 267 268 74
f 267 74 73
f 269 270 268
f 269 268 267
f 271 272 270
f 271 270 269
f 273 274 78
f 273 78 77
f 275 276 274
f 275 274 273
f 277 278 276
f 277 276 275
f 279 280 82
f 279 82 81
f 281 282 280
f 281 280 279
f 283 284 282
f 283 282 281
f 285 286 86
f 285 86 85
f 287 288 286
f 287 286 285
f 289 290 288
f 289 288 287
f 291 292 90
f 291 90 89
f 293 294 292
f 293 292 291
f 295 296 294
f 295 294 293
f 297 298 94
f 297 94 93
f 299 300 298
f 299 298 297
f 301 302 300
f 301 300 299
f 303 304 98
f 303 98 97
f 305 306 304
f 305 304 303
f 307 308 306
f 307 306 305
f 102 309 310
f 102 310 103
f 309 311 312
f 309 312 310
f 311 313 314
f 311 314 312
f 315 316 106
f 315 106 105
f 317 318 316
f 317 316 315
f 319 320 318
f 319 318 317
f 321 322 110
f 321 110 109
f 323 324 322
f 323 322 321
f 325 326 324
f 325 324 323
f 114 327 328
f 114 328 115
f 327 329 330
f 327 330 328
f 329 331 332
f 329 332 330
f 333 290 34
f 333 34 33
f 334 335 284
f 334 284 35
f 296 295 38
f 296 38 37
f 278 277 40
f 278 40 39
f 336 302 337
f 336 337 338
f 339 340 272
f 339 272 341
f 308 307 342
f 308 342 343
f 266 265 344
f 266 344 345
f 104 103 223
f 104 223 224
f 102 101 152
f 102 152 149
f 106 117 45
f 106 45 107
f 108 57 59
f 108 59 105
f 110 259 260
f 110 260 111
f 112 188 185
f 112 185 109
f 116 115 241
f 116 241 242
f 114 113 159
f 114 159 157
f 103 310 222
f 103 222 223
f 309 102 149
f 309 149 146
f 310 312 62
f 310 62 222
f 311 309 146
f 311 146 142
f 312 314 60
f 312 60 62
f 313 311 142
f 313 142 141
f 316 119 117
f 316 117 106
f 105 59 204
f 105 204 315
f 318 121 119
f 318 119 316
f 315 204 205
f 315 205 317
f 320 123 121
f 320 121 318
f 317 205 206
f 317 206 319
f 322 258 259
f 322 259 110
f 109 185 182
f 109 182 321
f 324 68 258
f 324 258 322
f 321 182 178
f 321 178 323
f 326 66 68
f 326 68 324
f 323 178 177
f 323 177 325
f 115 328 240
f 115 240 241
f 327 114 157
f 327 157 155
f 328 330 65
f 328 65 240
f 329 327 155
f 329 155 153
f 330 332 63
f 330 63 65
f 331 329 153
f 331 153 51
f 80 79 346
f 80 346 347
f 347 346 348
f 347 348 349
f 349 348 26
f 349 26 25
f 72 71 350
f 72 350 351
f 351 350 28
f 351 28 27
f 92 91 352
f 92 352 353
f 353 352 354
f 353 354 355
f 355 354 30
f 355 30 29
f 100 99 356
f 100 356 357
f 357 356 32
f 357 32 31
f 358 359 108
f 358 108 107
f 341 337 360
f 341 360 339
f 361 113 116
f 361 116 362
f 363 171 54
f 363 54 364
f 365 363 364
f 365 364 366
f 74 365 366
f 74 366 75
f 367 170 167
f 367 167 368
f 76 367 368
f 76 368 73
f 369 133 134
f 369 134 370
f 371 369 370
f 371 370 372
f 82 371 372
f 82 372 83
f 373 48 50
f 373 50 374
f 84 373 374
f 84 374 81
f 375 214 213
f 375 213 376
f 377 375 376
f 377 376 378
f 86 377 378
f 86 378 87
f 379 195 193
f 379 193 380
f 88 379 380
f 88 380 85
f 381 232 231
f 381 231 382
f 383 381 382
f 383 382 384
f 94 383 384
f 94 384 95
f 385 249 247
f 385 247 386
f 96 385 386
f 96 386 93
f 387 173 171
f 387 171 363
f 388 387 363
f 388 363 365
f 268 388 365
f 268 365 74
f 368 167 164
f 368 164 389
f 73 368 389
f 73 389 267
f 390 175 173
f 390 173 387
f 391 390 387
f 391 387 388
f 270 391 388
f 270 388 268
f 389 164 160
f 389 160 392
f 267 389 392
f 267 392 269
f 393 177 175
f 393 175 390
f 340 393 390
f 340 390 391
f 272 340 391
f 272 391 270
f 392 160 159
f 392 159 394
f 269 392 394
f 269 394 271
f 395 132 133
f 395 133 369
f 396 395 369
f 396 369 371
f 280 396 371
f 280 371 82
f 374 50 150
f 374 150 397
f 81 374 397
f 81 397 279
f 398 47 132
f 398 132 395
f 399 398 395
f 399 395 396
f 282 399 396
f 282 396 280
f 397 150 151
f 397 151 400
f 279 397 400
f 279 400 281
f 401 45 47
f 401 47 398
f 335 401 398
f 335 398 399
f 284 335 399
f 284 399 282
f 400 151 152
f 400 152 402
f 281 400 402
f 281 402 283
f 403 218 214
f 403 214 375
f 404 403 375
f 404 375 377
f 286 404 377
f 286 377 86
f 380 193 191
f 380 191 405
f 85 380 405
f 85 405 285
f 406 221 218
f 406 218 403
f 407 406 403
f 407 403 404
f 288 407 404
f 288 404 286
f 405 191 189
f 405 189 408
f 285 405 408
f 285 408 287
f 409 224 221
f 409 221 406
f 333 409 406
f 333 406 407
f 290 333 407
f 290 407 288
f 408 189 57
f 408 57 410
f 287 408 410
f 287 410 289
f 411 236 232
f 411 232 381
f 412 411 381
f 412 381 383
f 298 412 383
f 298 383 94
f 386 247 245
f 386 245 413
f 93 386 413
f 93 413 297
f 414 239 236
f 414 236 411
f 415 414 411
f 415 411 412
f 300 415 412
f 300 412 298
f 413 245 243
f 413 243 416
f 297 413 416
f 297 416 299
f 417 242 239
f 417 239 414
f 336 417 414
f 336 414 415
f 302 336 415
f 302 415 300
f 418 416 243
f 418 243 66
f 299 416 418
f 299 418 301
f 359 410 57
f 359 57 108
f 419 289 410
f 419 410 359
f 34 290 289
f 34 289 419
f 409 420 104
f 409 104 224
f 33 420 409
f 33 409 333
f 402 152 101
f 402 101 421
f 283 402 421
f 283 421 36
f 284 283 36
f 284 36 35
f 401 358 107
f 401 107 45
f 335 334 358
f 335 358 401
f 422 418 66
f 422 66 326
f 360 301 418
f 360 418 422
f 337 302 301
f 337 301 360
f 362 116 242
f 362 242 417
f 338 362 417
f 338 417 336
f 394 159 113
f 394 113 361
f 271 394 361
f 271 361 423
f 272 271 423
f 272 423 341
f 393 424 325
f 393 325 177
f 340 339 424
f 340 424 393
f 10 34 419
f 10 419 6
f 6 419 359
f 6 359 7
f 7 359 358
f 7 358 8
f 8 358 334
f 8 334 5
f 5 334 35
f 5 35 9
f 9 35 34
f 9 34 10
f 12 101 104
f 12 104 13
f 13 104 420
f 13 420 14
f 14 420 33
f 14 33 16
f 16 33 36
f 16 36 15
f 15 36 421
f 15 421 11
f 11 421 101
f 11 101 12
f 24 362 338
f 24 338 1
f 1 338 337
f 1 337 2
f 2 337 341
f 2 341 3
f 3 341 423
f 3 423 4
f 4 423 361
f 4 361 23
f 23 361 362
f 23 362 24
f 19 326 325
f 19 325 20
f 20 325 424
f 20 424 17
f 17 424 339
f 17 339 21
f 21 339 360
f 21 360 22
f 22 360 422
f 22 422 18
f 18 422 326
f 18 326 19
f 26 83 372
f 26 372 27
f 28 76 75
f 28 75 25
f 30 95 384
f 30 384 31
f 32 88 87
f 32 87 29
f 38 314 313
f 38 313 39
f 40 112 111
f 40 111 37
f 342 332 331
f 342 331 345
f 344 320 319
f 344 319 343
f 70 169 170
f 70 170 71
f 72 134 131
f 72 131 69
f 78 135 48
f 78 48 79
f 80 54 56
f 80 56 77
f 90 250 249
f 90 249 91
f 92 213 211
f 92 211 89
f 98 196 195
f 98 195 99
f 100 231 229
f 100 229 97
f 262 168 169
f 262 169 70
f 69 131 128
f 69 128 261
f 264 53 168
f 264 168 262
f 261 128 124
f 261 124 263
f 266 51 53
f 266 53 264
f 263 124 123
f 263 123 265
f 274 137 135
f 274 135 78
f 77 56 186
f 77 186 273
f 276 139 137
f 276 137 274
f 273 186 187
f 273 187 275
f 278 141 139
f 278 139 276
f 275 187 188
f 275 188 277
f 292 254 250
f 292 250 90
f 89 211 209
f 89 209 291
f 294 257 254
f 294 254 292
f 291 209 207
f 291 207 293
f 296 260 257
f 296 257 294
f 293 207 60
f 293 60 295
f 304 200 196
f 304 196 98
f 97 229 227
f 97 227 303
f 306 203 200
f 306 200 304
f 303 227 225
f 303 225 305
f 308 206 203
f 308 203 306
f 305 225 63
f 305 63 307
f 295 60 314
f 295 314 38
f 37 111 260
f 37 260 296
f 277 188 112
f 277 112 40
f 39 313 141
f 39 141 278
f 307 63 332
f 307 332 342
f 343 319 206
f 343 206 308
f 265 123 320
f 265 320 344
f 345 331 51
f 345 51 266
f 79 48 373
f 79 373 346
f 347 364 54
f 347 54 80
f 346 373 84
f 346 84 348
f 349 366 364
f 349 364 347
f 348 84 83
f 348 83 26
f 25 75 366
f 25 366 349
f 71 170 367
f 71 367 350
f 351 370 134
f 351 134 72
f 350 367 76
f 350 76 28
f 27 372 370
f 27 370 351
f 91 249 385
f 91 385 352
f 353 376 213
f 353 213 92
f 352 385 96
f 352 96 354
f 355 378 376
f 355 376 353
f 354 96 95
f 354 95 30
f 29 87 378
f 29 378 355
f 99 195 379
f 99 379 356
f 357 382 231
f 357 231 100
f 356 379 88
f 356 88 32
f 31 384 382
f 31 382 357
f 41 343 342
f 41 342 42
f 42 342 345
f 42 345 43
f 43 345 344
f 43 344 44
f 44 344 343
f 44 343 41
f 425 426 427
f 425 427 428
f 429 430 431
f 429 431 432
f 433 434 435
f 433 435 436
f 437 438 439
f 437 439 440
f 441 442 443
f 441 443 444
f 445 446 447
f 445 447 448
f 449 450 451
f 449 451 452
f 453 454 455
f 453 455 456
f 442 426 425
f 442 425 443
f 446 430 429
f 446 429 447
f 450 434 433
f 450 433 451
f 454 438 437
f 454 437 455
f 443 425 428
f 443 428 444
f 447 429 432
f 447 432 448
f 451 433 436
f 451 436 452
f 455 437 440
f 455 440 456
f 444 428 427
f 444 427 441
f 448 432 431
f 448 431 445
f 452 436 435
f 452 435 449
f 456 440 439
f 456 439 453
f 441 427 426
f 441 426 442
f 445 431 430
f 445 430 446
f 449 435 434
f 449 434 450
f 453 439 438
f 453 438 454
f 457 458 459
f 460 461 462
f 463 464 465
f 466 467 468
f 459 469 470
f 471 472 473
f 474 475 476
f 477 478 479
f 480 481 482
f 483 484 485
f 486 487 488
f 489 476 475
f 490 491 492
f 468 493 466
f 482 494 480
f 495 496 497
f 498 458 499
f 500 501 502
f 485 503 483
f 504 505 506
f 478 477 507
f 508 509 510
f 511 512 513
f 514 515 473
f 516 517 518
f 462 519 460
f 520 521 522
f 523 524 525
f 526 527 528
f 529 530 531
f 509 508 532
f 458 457 499
f 506 533 504
f 534 535 472
f 536 491 490
f 537 538 525
f 494 482 496
f 539 492 540
f 484 483 481
f 479 497 477
f 533 506 503
f 532 507 509
f 461 460 505
f 488 510 486
f 541 542 463
f 459 543 544
f 545 546 515
f 547 548 468
f 549 550 498
f 487 486 551
f 530 529 548
f 524 523 465
f 497 479 495
f 552 553 517
f 554 555 543
f 498 554 458
f 556 513 491
f 557 540 492
f 514 558 559
f 518 560 516
f 512 511 521
f 475 474 561
f 503 485 533
f 558 514 562
f 550 549 501
f 519 462 563
f 467 564 565
f 540 557 566
f 567 466 539
f 490 568 538
f 507 532 478
f 569 470 469
f 570 531 530
f 571 499 457
f 510 488 508
f 465 464 524
f 537 520 522
f 528 572 573
f 574 528 527
f 575 576 577
f 578 579 580
f 472 502 534
f 505 504 461
f 545 559 560
f 481 480 484
f 496 495 494
f 517 516 552
f 553 581 517
f 546 581 544
f 513 556 511
f 522 582 537
f 527 526 583
f 583 465 523
f 562 584 558
f 535 534 584
f 573 541 528
f 476 585 586
f 587 547 565
f 530 588 589
f 555 590 591
f 501 500 550
f 520 489 521
f 464 463 542
f 512 592 593
f 561 594 475
f 466 567 467
f 566 467 540
f 531 570 595
f 527 596 597
f 563 551 519
f 551 563 487
f 598 565 564
f 565 598 587
f 493 599 466
f 523 548 529
f 469 600 569
f 553 552 600
f 457 601 571
f 470 569 601
f 544 515 546
f 591 471 555
f 579 578 602
f 593 602 512
f 603 557 576
f 576 575 604
f 491 577 576
f 578 491 513
f 568 466 599
f 568 539 466
f 564 605 598
f 566 606 605
f 559 545 514
f 515 514 545
f 557 603 607
f 606 566 557
f 538 536 490
f 582 538 537
f 581 459 544
f 469 459 581
f 548 547 530
f 588 530 547
f 583 531 527
f 596 527 531
f 542 541 476
f 585 476 541
f 608 488 487
f 488 608 571
f 543 555 544
f 555 471 544
f 537 464 520
f 542 520 464
f 498 487 549
f 498 608 487
f 468 565 547
f 565 468 467
f 528 463 526
f 463 528 541
f 513 512 602
f 513 602 578
f 549 563 501
f 563 549 487
f 492 576 557
f 576 492 491
f 555 554 590
f 554 498 550
f 556 582 522
f 536 538 582
f 599 525 568
f 538 568 525
f 531 583 529
f 523 529 583
f 517 581 546
f 546 518 517
f 594 561 592
f 476 489 542
f 520 542 489
f 546 545 518
f 560 518 545
f 502 472 500
f 472 471 591
f 541 573 609
f 578 580 610
f 527 597 574
f 547 587 611
f 599 493 523
f 525 599 523
f 476 586 474
f 465 526 463
f 465 583 526
f 600 469 553
f 581 553 469
f 522 521 511
f 511 556 522
f 475 521 489
f 521 475 594
f 515 544 471
f 471 473 515
f 459 470 457
f 601 457 470
f 535 473 472
f 584 562 535
f 491 536 556
f 582 556 536
f 548 523 493
f 493 468 548
f 524 537 525
f 524 464 537
f 492 539 490
f 568 490 539
f 567 540 467
f 540 567 539
f 458 543 459
f 543 458 554
f 608 498 499
f 499 571 608
f 467 566 564
f 605 564 566
f 491 578 577
f 610 577 578
f 592 512 594
f 521 594 512
f 500 591 590
f 591 500 472
f 473 535 562
f 562 514 473
f 590 550 500
f 550 590 554
f 501 462 461
f 462 501 563
f 461 502 501
f 502 461 504
f 508 571 601
f 571 508 488
f 534 504 533
f 504 534 502
f 601 532 508
f 532 601 569
f 584 533 485
f 533 584 534
f 485 558 584
f 558 485 484
f 569 478 532
f 478 569 600
f 479 600 552
f 600 479 478
f 559 484 480
f 484 559 558
f 480 560 559
f 560 480 494
f 495 552 516
f 552 495 479
f 516 494 495
f 494 516 560
f 541 609 585
f 602 593 579
f 528 574 572
f 531 595 596
f 530 589 570
f 576 604 603
f 557 607 606
f 547 611 588
f 577 610 575
f 561 612 613
f 570 614 615
f 616 604 575
f 617 598 605
f 618 597 596
f 579 619 620
f 587 621 622
f 605 623 624
f 604 616 625
f 626 589 588
f 585 627 628
f 574 629 630
f 631 593 592
f 551 632 633
f 612 561 474
f 623 605 606
f 592 634 631
f 573 635 636
f 610 637 638
f 596 639 618
f 607 640 641
f 588 642 626
f 635 573 572
f 621 587 598
f 620 580 579
f 628 586 585
f 474 643 644
f 551 645 519
f 598 617 646
f 640 607 603
f 615 595 570
f 482 647 496
f 482 648 649
f 496 650 651
f 496 652 497
f 481 653 654
f 481 655 482
f 497 656 477
f 497 657 658
f 483 659 660
f 483 661 481
f 477 662 663
f 477 664 507
f 503 665 483
f 503 666 667
f 507 668 669
f 507 670 509
f 506 671 672
f 506 673 503
f 509 674 675
f 509 676 510
f 505 677 678
f 505 679 506
f 510 680 681
f 510 682 486
f 460 683 505
f 460 684 685
f 486 686 551
f 486 687 688
f 519 689 460
f 519 690 691
f 650 496 647
f 474 644 612
f 648 482 655
f 592 613 634
f 657 497 652
f 586 628 643
f 653 481 661
f 593 631 619
f 662 477 656
f 609 636 627
f 580 620 637
f 659 483 665
f 572 630 635
f 668 507 664
f 575 638 616
f 666 503 673
f 674 509 670
f 597 618 629
f 671 506 679
f 603 625 640
f 595 615 639
f 680 510 676
f 677 505 683
f 606 641 623
f 589 626 614
f 687 486 682
f 684 460 689
f 605 624 617
f 632 551 686
f 611 622 642
f 690 519 645
f 598 646 621
f 613 592 561
f 636 609 573
f 637 610 580
f 629 574 597
f 622 611 587
f 643 474 586
f 647 649 650
f 649 647 482
f 655 654 648
f 654 655 481
f 651 652 496
f 652 651 657
f 660 661 483
f 661 660 653
f 658 656 497
f 656 658 662
f 665 667 659
f 667 665 503
f 663 664 477
f 664 663 668
f 672 673 506
f 673 672 666
f 670 669 674
f 669 670 507
f 678 679 505
f 679 678 671
f 676 675 680
f 675 676 509
f 683 685 677
f 685 683 460
f 682 681 687
f 681 682 510
f 689 691 684
f 691 689 519
f 688 686 486
f 686 688 632
f 633 645 551
f 645 633 690
f 649 612 644
f 612 649 648
f 650 644 643
f 644 650 649
f 613 648 654
f 648 613 612
f 643 651 650
f 651 643 628
f 634 654 653
f 654 634 613
f 628 657 651
f 657 628 627
f 653 631 634
f 631 653 660
f 658 627 636
f 627 658 657
f 619 660 659
f 660 619 631
f 662 636 635
f 636 662 658
f 620 659 667
f 659 620 619
f 635 663 662
f 663 635 630
f 637 667 666
f 667 637 620
f 668 630 629
f 630 668 663
f 638 666 672
f 666 638 637
f 629 669 668
f 669 629 618
f 616 672 671
f 672 616 638
f 674 618 639
f 618 674 669
f 625 671 678
f 671 625 616
f 675 639 615
f 639 675 674
f 640 678 677
f 678 640 625
f 615 680 675
f 680 615 614
f 641 677 685
f 677 641 640
f 614 681 680
f 681 614 626
f 623 685 684
f 685 623 641
f 626 687 681
f 687 626 642
f 624 684 691
f 684 624 623
f 642 688 687
f 688 642 622
f 617 691 690
f 691 617 624
f 622 632 688
f 632 622 621
f 690 646 617
f 646 690 633
f 621 633 632
f 633 621 646
f 627 585 609
f 619 579 593
f 630 572 574
f 639 596 595
f 614 570 589
f 625 603 604
f 641 606 607
f 642 588 611
f 638 575 610
f 44 43 42
f 42 41 44
f 45 47 46
f 48 50 49
f 51 53 52
f 54 56 55
f 57 59 58
f 60 62 61
f 63 65 64
f 66 68 67
f 104 103 102
f 102 101 104
f 108 107 106
f 106 105 108
f 112 111 110
f 110 109 112
f 116 115 114
f 114 113 116
f 45 118 117
f 117 118 120
f 120 119 117
f 119 120 122
f 122 121 119
f 121 122 124
f 124 123 121
f 45 125 118
f 118 125 126
f 126 120 118
f 120 126 127
f 127 122 120
f 122 127 128
f 128 124 122
f 45 46 125
f 125 46 129
f 129 126 125
f 126 129 130
f 130 127 126
f 127 130 131
f 131 128 127
f 46 47 132
f 132 129 46
f 129 132 133
f 133 130 129
f 130 133 134
f 134 131 130
f 48 136 135
f 135 136 138
f 138 137 135
f 137 138 140
f 140 139 137
f 139 140 142
f 142 141 139
f 48 143 136
f 136 143 144
f 144 138 136
f 138 144 145
f 145 140 138
f 140 145 146
f 146 142 140
f 48 49 143
f 143 49 147
f 147 144 143
f 144 147 148
f 148 145 144
f 145 148 149
f 149 146 145
f 49 50 150
f 150 147 49
f 147 150 151
f 151 148 147
f 148 151 152
f 152 149 148
f 51 154 153
f 153 154 156
f 156 155 153
f 155 156 158
f 158 157 155
f 157 158 160
f 160 159 157
f 51 161 154
f 154 161 162
f 162 156 154
f 156 162 163
f 163 158 156
f 158 163 164
f 164 160 158
f 51 52 161
f 161 52 165
f 165 162 161
f 162 165 166
f 166 163 162
f 163 166 167
f 167 164 163
f 52 53 168
f 168 165 52
f 165 168 169
f 169 166 165
f 166 169 170
f 170 167 166
f 54 172 171
f 171 172 174
f 174 173 171
f 173 174 176
f 176 175 173
f 175 176 178
f 178 177 175
f 54 179 172
f 172 179 180
f 180 174 172
f 174 180 181
f 181 176 174
f 176 181 182
f 182 178 176
f 54 55 179
f 179 55 183
f 183 180 179
f 180 183 184
f 184 181 180
f 181 184 185
f 185 182 181
f 55 56 186
f 186 183 55
f 183 186 187
f 187 184 183
f 184 187 188
f 188 185 184
f 57 190 189
f 189 190 192
f 192 191 189
f 191 192 194
f 194 193 191
f 193 194 196
f 196 195 193
f 57 197 190
f 190 197 198
f 198 192 190
f 192 198 199
f 199 194 192
f 194 199 200
f 200 196 194
f 57 58 197
f 197 58 201
f 201 198 197
f 198 201 202
f 202 199 198
f 199 202 203
f 203 200 199
f 58 59 204
f 204 201 58
f 201 204 205
f 205 202 201
f 202 205 206
f 206 203 202
f 60 208 207
f 207 208 210
f 210 209 207
f 209 210 212
f 212 211 209
f 211 212 214
f 214 213 211
f 60 215 208
f 208 215 216
f 216 210 208
f 210 216 217
f 217 212 210
f 212 217 218
f 218 214 212
f 60 61 215
f 215 61 219
f 219 216 215
f 216 219 220
f 220 217 216
f 217 220 221
f 221 218 217
f 61 62 222
f 222 219 61
f 219 222 223
f 223 220 219
f 220 223 224
f 224 221 220
f 63 226 225
f 225 226 228
f 228 227 225
f 227 228 230
f 230 229 227
f 229 230 232
f 232 231 229
f 63 233 226
f 226 233 234
f 234 228 226
f 228 234 235
f 235 230 228
f 230 235 236
f 236 232 230
f 63 64 233
f 233 64 237
f 237 234 233
f 234 237 238
f 238 235 234
f 235 238 239
f 239 236 235
f 64 65 240
f 240 237 64
f 237 240 241
f 241 238 237
f 238 241 242
f 242 239 238
f 66 244 243
f 243 244 246
f 246 245 243
f 245 246 248
f 248 247 245
f 247 248 250
f 250 249 247
f 66 251 244
f 244 251 252
f 252 246 244
f 246 252 253
f 253 248 246
f 248 253 254
f 254 250 248
f 66 67 251
f 251 67 255
f 255 252 251
f 252 255 256
f 256 253 252
f 253 256 257
f 257 254 253
f 67 68 258
f 258 255 67
f 255 258 259
f 259 256 255
f 256 259 260
f 260 257 256
f 103 310 309
f 309 102 103
f 310 312 311
f 311 309 310
f 312 314 313
f 313 311 312
f 105 106 316
f 316 315 105
f 315 316 318
f 318 317 315
f 317 318 320
f 320 319 317
f 109 110 322
f 322 321 109
f 321 322 324
f 324 323 321
f 323 324 326
f 326 325 323
f 115 328 327
f 327 114 115
f 328 330 329
f 329 327 328
f 330 332 331
f 331 329 330
f 345 344 343
f 343 342 345
f 224 223 103
f 103 104 224
f 149 152 101
f 101 102 149
f 107 45 117
f 117 106 107
f 105 59 57
f 57 108 105
f 111 260 259
f 259 110 111
f 109 185 188
f 188 112 109
f 242 241 115
f 115 116 242
f 157 159 113
f 113 114 157
f 223 222 310
f 310 103 223
f 146 149 102
f 102 309 146
f 222 62 312
f 312 310 222
f 142 146 309
f 309 311 142
f 62 60 314
f 314 312 62
f 141 142 311
f 311 313 141
f 106 117 119
f 119 316 106
f 315 204 59
f 59 105 315
f 316 119 121
f 121 318 316
f 317 205 204
f 204 315 317
f 318 121 123
f 123 320 318
f 319 206 205
f 205 317 319
f 110 259 258
f 258 322 110
f 321 182 185
f 185 109 321
f 322 258 68
f 68 324 322
f 323 178 182
f 182 321 323
f 324 68 66
f 66 326 324
f 325 177 178
f 178 323 325
f 241 240 328
f 328 115 241
f 155 157 114
f 114 327 155
f 240 65 330
f 330 328 240
f 153 155 327
f 327 329 153
f 65 63 332
f 332 330 65
f 51 153 329
f 329 331 51
f 8 358 359
f 359 7 8
f 10 34 35
f 35 9 10
f 13 104 101
f 101 12 13
f 15 36 33
f 33 16 15
f 3 341 337
f 337 2 3
f 24 362 361
f 361 23 24
f 20 325 326
f 326 19 20
f 22 360 339
f 339 21 22
f 42 342 343
f 343 41 42
f 43 345 342
f 342 42 43
f 44 344 345
f 345 43 44
f 41 343 344
f 344 44 41
f 428 427 426
f 426 425 428
f 432 431 430
f 430 429 432
f 436 435 434
f 434 433 436
f 440 439 438
f 438 437 440
f 444 443 442
f 442 441 444
f 448 447 446
f 446 445 448
f 452 451 450
f 450 449 452
f 456 455 454
f 454 453 456
f 443 425 426
f 426 442 443
f 447 429 430
f 430 446 447
f 451 433 434
f 434 450 451
f 455 437 438
f 438 454 455
f 444 428 425
f 425 443 444
f 448 432 429
f 429 447 448
f 452 436 433
f 433 451 452
f 456 440 437
f 437 455 456
f 441 427 428
f 428 444 441
f 445 431 432
f 432 448 445
f 449 435 436
f 436 452 449
f 453 439 440
f 440 456 453
f 442 426 427
f 427 441 442
f 446 430 431
f 431 445 446
f 450 434 435
f 435 449 450
f 454 438 439
f 439 453 454
f 457 459 458
f 460 462 461
f 463 465 464
f 466 468 467
f 459 470 469
f 471 473 472
f 474 476 475
f 477 479 478
f 480 482 481
f 483 485 484
f 486 488 487
f 489 475 476
f 490 492 491
f 468 466 493
f 482 480 494
f 495 497 496
f 498 499 458
f 500 502 501
f 485 483 503
f 504 506 505
f 478 507 477
f 508 510 509
f 511 513 512
f 514 473 515
f 516 518 517
f 462 460 519
f 520 522 521
f 523 525 524
f 526 528 527
f 529 531 530
f 509 532 508
f 458 499 457
f 506 504 533
f 534 472 535
f 536 490 491
f 537 525 538
f 494 496 482
f 539 540 492
f 484 481 483
f 479 477 497
f 533 503 506
f 532 509 507
f 461 505 460
f 488 486 510
f 541 463 542
f 459 544 543
f 545 515 546
f 547 468 548
f 549 498 550
f 487 551 486
f 530 548 529
f 524 465 523
f 497 495 479
f 552 517 553
f 554 543 555
f 498 458 554
f 556 491 513
f 557 492 540
f 514 559 558
f 518 516 560
f 512 521 511
f 475 561 474
f 503 533 485
f 558 562 514
f 550 501 549
f 519 563 462
f 467 565 564
f 540 566 557
f 567 539 466
f 490 538 568
f 507 478 532
f 569 469 470
f 570 530 531
f 571 457 499
f 510 508 488
f 465 524 464
f 537 522 520
f 528 573 572
f 574 527 528
f 575 577 576
f 578 580 579
f 472 534 502
f 505 461 504
f 545 560 559
f 481 484 480
f 496 494 495
f 517 552 516
f 553 517 581
f 546 544 581
f 513 511 556
f 522 537 582
f 527 583 526
f 583 523 465
f 562 558 584
f 535 584 534
f 573 528 541
f 476 586 585
f 587 565 547
f 530 589 588
f 555 591 590
f 501 550 500
f 520 521 489
f 464 542 463
f 512 593 592
f 561 475 594
f 466 467 567
f 566 540 467
f 531 595 570
f 527 597 596
f 563 519 551
f 551 487 563
f 598 564 565
f 565 587 598
f 493 466 599
f 523 529 548
f 469 569 600
f 553 600 552
f 457 571 601
f 470 601 569
f 544 546 515
f 591 555 471
f 579 602 578
f 593 512 602
f 603 576 557
f 576 604 575
f 491 576 577
f 578 513 491
f 568 599 466
f 568 466 539
f 564 598 605
f 566 605 606
f 559 514 545
f 515 545 514
f 557 607 603
f 606 557 566
f 538 490 536
f 582 537 538
f 581 544 459
f 469 581 459
f 548 530 547
f 588 547 530
f 583 527 531
f 596 531 527
f 542 476 541
f 585 541 476
f 608 487 488
f 488 571 608
f 543 544 555
f 555 544 471
f 537 520 464
f 542 464 520
f 498 549 487
f 498 487 608
f 468 547 565
f 565 467 468
f 528 526 463
f 463 541 528
f 513 602 512
f 513 578 602
f 549 501 563
f 563 487 549
f 492 557 576
f 576 491 492
f 555 590 554
f 554 550 498
f 556 522 582
f 536 582 538
f 599 568 525
f 538 525 568
f 531 529 583
f 523 583 529
f 517 546 581
f 546 517 518
f 594 592 561
f 476 542 489
f 520 489 542
f 546 518 545
f 560 545 518
f 502 500 472
f 472 591 471
f 541 609 573
f 578 610 580
f 527 574 597
f 547 611 587
f 599 523 493
f 525 523 599
f 476 474 586
f 465 463 526
f 465 526 583
f 600 553 469
f 581 469 553
f 522 511 521
f 511 522 556
f 475 489 521
f 521 594 475
f 515 471 544
f 471 515 473
f 459 457 470
f 601 470 457
f 535 472 473
f 584 535 562
f 491 556 536
f 582 536 556
f 548 493 523
f 493 548 468
f 524 525 537
f 524 537 464
f 492 490 539
f 568 539 490
f 567 467 540
f 540 539 567
f 458 459 543
f 543 554 458
f 608 499 498
f 499 608 571
f 467 564 566
f 605 566 564
f 491 577 578
f 610 578 577
f 592 594 512
f 521 512 594
f 500 590 591
f 591 472 500
f 473 562 535
f 562 473 514
f 590 500 550
f 550 554 590
f 501 461 462
f 462 563 501
f 461 501 502
f 502 504 461
f 508 601 571
f 571 488 508
f 534 533 504
f 504 502 534
f 601 508 532
f 532 569 601
f 584 485 533
f 533 534 584
f 485 584 558
f 558 484 485
f 569 532 478
f 478 600 569
f 479 552 600
f 600 478 479
f 559 480 484
f 484 558 559
f 480 559 560
f 560 494 480
f 495 516 552
f 552 479 495
f 516 495 494
f 494 560 516
f 541 585 609
f 602 579 593
f 528 572 574
f 531 596 595
f 530 570 589
f 576 603 604
f 557 606 607
f 547 588 611
f 577 575 610
f 561 613 612
f 570 615 614
f 616 575 604
f 604 625 616
f 617 605 598
f 618 596 597
f 579 620 619
f 587 622 621
f 605 624 623
f 626 588 589
f 585 628 627
f 574 630 629
f 631 592 593
f 551 633 632
f 612 474 561
f 623 606 605
f 592 631 634
f 573 636 635
f 610 638 637
f 596 618 639
f 607 641 640
f 588 626 642
f 635 572 573
f 621 598 587
f 620 579 580
f 628 585 586
f 474 644 643
f 551 519 645
f 598 646 617
f 640 603 607
f 615 570 595
f 482 496 647
f 482 649 648
f 496 651 650
f 496 497 652
f 481 654 653
f 481 482 655
f 497 477 656
f 497 658 657
f 483 660 659
f 483 481 661
f 477 663 662
f 477 507 664
f 503 483 665
f 503 667 666
f 507 669 668
f 507 509 670
f 506 672 671
f 506 503 673
f 509 675 674
f 509 510 676
f 505 678 677
f 505 506 679
f 510 681 680
f 510 486 682
f 460 505 683
f 460 685 684
f 486 551 686
f 486 688 687
f 519 460 689
f 519 691 690
f 650 647 496
f 474 612 644
f 648 655 482
f 592 634 613
f 657 652 497
f 586 643 628
f 653 661 481
f 593 619 631
f 662 656 477
f 609 627 636
f 580 637 620
f 659 665 483
f 572 635 630
f 668 664 507
f 575 616 638
f 666 673 503
f 674 670 509
f 597 629 618
f 671 679 506
f 603 640 625
f 595 639 615
f 680 676 510
f 677 683 505
f 606 623 641
f 589 614 626
f 687 682 486
f 684 689 460
f 605 617 624
f 632 686 551
f 611 642 622
f 690 645 519
f 598 621 646
f 613 561 592
f 636 573 609
f 637 580 610
f 629 597 574
f 622 587 611
f 643 586 474
f 647 650 649
f 649 482 647
f 655 648 654
f 654 481 655
f 651 496 652
f 652 657 651
f 660 483 661
f 661 653 660
f 658 497 656
f 656 662 658
f 665 659 667
f 667 503 665
f 663 477 664
f 664 668 663
f 672 506 673
f 673 666 672
f 670 674 669
f 669 507 670
f 678 505 679
f 679 671 678
f 676 680 675
f 675 509 676
f 683 677 685
f 685 460 683
f 682 687 681
f 681 510 682
f 689 684 691
f 691 519 689
f 688 486 686
f 686 632 688
f 633 551 645
f 645 690 633
f 649 644 612
f 612 648 649
f 650 643 644
f 644 649 650
f 613 654 648
f 648 612 613
f 643 650 651
f 651 628 643
f 634 653 654
f 654 613 634
f 628 651 657
f 657 627 628
f 653 634 631
f 631 660 653
f 658 636 627
f 627 657 658
f 619 659 660
f 660 631 619
f 662 635 636
f 636 658 662
f 620 667 659
f 659 619 620
f 635 662 663
f 663 630 635
f 637 666 667
f 667 620 637
f 668 629 630
f 630 663 668
f 638 672 666
f 666 637 638
f 629 668 669
f 669 618 629
f 616 671 672
f 672 638 616
f 674 639 618
f 618 669 674
f 625 678 671
f 671 616 625
f 675 615 639
f 639 674 675
f 640 677 678
f 678 625 640
f 615 675 680
f 680 614 615
f 641 685 677
f 677 640 641
f 614 680 681
f 681 626 614
f 623 684 685
f 685 641 623
f 626 681 687
f 687 642 626
f 624 691 684
f 684 623 624
f 642 687 688
f 688 622 642
f 617 690 691
f 691 624 617
f 622 688 632
f 632 621 622
f 690 617 646
f 621 633 690
f 690 646 621
f 621 632 633
f 627 609 585
f 619 593 579
f 630 574 572
f 639 595 596
f 614 589 570
f 625 604 603
f 641 607 606
f 642 611 588
f 638 610 575