# https://github.com/mikedh/trimesh
v 0.00210223 -0.00062476 0.19953290
v 0.00122501 0.00001258 0.19953285
v 0.00186235 -0.00086464 0.19953290
v 0.00058768 0.00088980 0.19953290
v 0.00034780 0.00064991 0.19953290
v 0.00019378 0.00034765 0.19953290
v 0.00014071 0.00001258 0.19953290
v 0.00019378 -0.00032249 0.19953290
v 0.00034780 -0.00062476 0.19953290
v 0.00058768 -0.00086464 0.19953290
v 0.00088995 -0.00101865 0.19953290
v 0.00122501 -0.00107172 0.19953290
v 0.00156008 -0.00101865 0.19953290
v 0.00225625 -0.00032249 0.19953290
v 0.00230931 0.00001258 0.19953290
v 0.00225625 0.00034764 0.19953290
v 0.00210223 0.00064991 0.19953290
v 0.00186235 0.00088979 0.19953290
v 0.00156008 0.00104381 0.19953290
v 0.00122501 0.00109688 0.19953290
v 0.00088995 0.00104381 0.19953290
v 0.00078714 0.00136021 0.19917707
v 0.00122501 0.00142956 0.19917707
v 0.00039214 0.00115894 0.19917707
v 0.00007865 0.00084546 0.19917707
v -0.00012261 0.00045045 0.19917707
v -0.00019196 0.00001258 0.19917707
v -0.00012261 -0.00042529 0.19917707
v 0.00007865 -0.00082030 0.19917707
v 0.00039214 -0.00113378 0.19917707
v 0.00078714 -0.00133505 0.19917707
v 0.00122501 -0.00140440 0.19917707
v 0.00166289 -0.00133505 0.19917707
v 0.00205789 -0.00113378 0.19917707
v 0.00237137 -0.00082030 0.19917707
v 0.00257264 -0.00042529 0.19917707
v 0.00264199 0.00001258 0.19917707
v 0.00257264 0.00045045 0.19917707
v 0.00237137 0.00084546 0.19917707
v 0.00205789 0.00115894 0.19917707
v 0.00166289 0.00136020 0.19917707
v 0.00087108 0.00110188 0.19581024
v 0.00055179 0.00093920 0.19581024
v 0.00029840 0.00068581 0.19581024
v 0.00013571 0.00036651 0.19581024
v 0.00007965 0.00001258 0.19581024
v 0.00013571 -0.00034136 0.19581024
v 0.00029840 -0.00066065 0.19581024
v 0.00055179 -0.00091404 0.19581024
v 0.00087108 -0.00107673 0.19581024
v 0.00122501 -0.00113279 0.19581024
v 0.00157895 -0.00107673 0.19581024
v 0.00189824 -0.00091404 0.19581024
v 0.00215163 -0.00066065 0.19581024
v 0.00231432 -0.00034136 0.19581024
v 0.00237038 0.00001258 0.19581024
v 0.00231432 0.00036651 0.19581024
v 0.00215163 0.00068581 0.19581024
v 0.00189824 0.00093920 0.19581024
v 0.00157895 0.00110188 0.19581024
v 0.00122501 0.00115794 0.19581024
v -0.00153216 0.00849828 0.19429178
v -0.00400896 0.00721652 0.19429585
v 0.00122502 0.00001258 0.19632933
v -0.00594814 0.00522418 0.19532412
v -0.00717396 0.00274157 0.19544710
v -0.00756504 0.00001258 0.19654176
v -0.00707350 -0.00268377 0.19793219
v -0.00582800 -0.00511174 0.19850862
v -0.00390242 -0.00704473 0.19793178
v -0.00148219 -0.00831934 0.19765745
v 0.00122502 -0.00874084 0.19740642
v 0.00395026 -0.00837487 0.19572676
v 0.00641740 -0.00713413 0.19556235
v 0.00834346 -0.00515928 0.19674202
v 0.00958561 -0.00270394 0.19677818
v 0.01001034 0.00001258 0.19641482
v 0.00956798 0.00272337 0.19699585
v 0.00832430 0.00517051 0.19697858
v 0.00640121 0.00713700 0.19567821
v 0.00396084 0.00843259 0.19532560
v 0.00122502 0.00890495 0.19429863
v -0.00210545 0.00859631 0.14980269
v -0.00446861 0.00784918 0.14980269
v -0.00446861 0.00784918 0.15423896
v -0.00206886 0.00882620 0.15423896
v -0.00582482 0.00652235 0.14980269
v -0.00582482 0.00652235 0.15423896
v -0.00720070 0.00382205 0.14980269
v -0.00720070 0.00382205 0.15423896
v -0.00767479 0.00082873 0.14980269
v -0.00767479 0.00082873 0.15423896
v -0.00720070 -0.00216458 0.14980269
v -0.00720070 -0.00216458 0.15423896
v -0.00582482 -0.00486489 0.14980269
v -0.00582482 -0.00486489 0.15423896
v -0.00368184 -0.00700787 0.14980269
v -0.00368184 -0.00700787 0.15423896
v -0.00158578 -0.00862175 0.14980269
v -0.00176285 -0.00900757 0.15423896
v 0.00123046 -0.00948167 0.14980269
v 0.00123046 -0.00948167 0.15423896
v 0.00351422 -0.00946491 0.14980269
v 0.00343701 -0.00982373 0.15423896
v 0.00613732 -0.00844785 0.14980269
v 0.00613732 -0.00844785 0.15423896
v 0.00856251 -0.00602897 0.14980269
v 0.00849187 -0.00570898 0.15423896
v 0.00908908 -0.00351748 0.14991411
v 0.00908908 -0.00351748 0.15412754
v 0.00953624 -0.00069423 0.14991411
v 0.00953624 -0.00069423 0.15412754
v 0.00908908 0.00212902 0.14991411
v 0.00908908 0.00212902 0.15412754
v 0.00779137 0.00467591 0.14991411
v 0.00779137 0.00467591 0.15412754
v 0.00577015 0.00669713 0.14991411
v 0.00577015 0.00669713 0.15412754
v 0.00322326 0.00799484 0.14991411
v 0.00322326 0.00799484 0.15412754
v 0.00040001 0.00844199 0.14991411
v 0.00040001 0.00844199 0.15412754
v -0.00445114 -0.00780590 0.19713469
v -0.00659391 -0.00566271 0.19775102
v -0.00796964 -0.00296225 0.19711490
v -0.00844362 0.00003119 0.19559842
v -0.00797117 0.00302279 0.19451020
v -0.00659580 0.00572257 0.19440889
v -0.00446861 0.00784918 0.19331205
v -0.00177414 0.00921730 0.19334216
v 0.00120817 0.00967347 0.19330060
v 0.00419798 0.00919989 0.19439054
v 0.00689420 0.00782466 0.19473034
v 0.00903423 0.00568399 0.19612093
v 0.01040907 0.00298741 0.19616034
v 0.01088245 -0.00000239 0.19552786
v 0.01040945 -0.00299190 0.19593610
v 0.00904963 -0.00568163 0.19588872
v 0.00690220 -0.00783714 0.19462051
v 0.00420162 -0.00921324 0.19478128
v 0.00122513 -0.00966984 0.19658697
v -0.00176818 -0.00919577 0.19686322
v -0.00170359 0.00901868 0.19394853
v -0.00433963 0.00767165 0.19394143
v -0.00641692 0.00557274 0.19502213
v -0.00774865 0.00293469 0.19514119
v -0.00819129 0.00001808 0.19627182
v -0.00770185 -0.00288405 0.19774999
v -0.00636205 -0.00549804 0.19836399
v -0.00428959 -0.00757944 0.19775569
v -0.00168158 -0.00893187 0.19747213
v 0.00122505 -0.00939182 0.19720541
v 0.00413620 -0.00896580 0.19542900
v 0.00676966 -0.00762926 0.19525988
v 0.00884515 -0.00552653 0.19650600
v 0.01017550 -0.00290165 0.19654596
v 0.01063665 0.00000815 0.19615631
v 0.01016807 0.00291558 0.19677293
v 0.00883218 0.00553881 0.19674822
v 0.00676106 0.00763495 0.19537534
v 0.00413820 0.00898926 0.19501597
v 0.00122026 0.00946780 0.19393800
v -0.00747109 0.02457645 0.15058971
v -0.01467114 0.02090788 0.15058971
v 0.00051021 0.00001258 0.15104792
v -0.02038519 0.01519392 0.15058971
v -0.02405368 0.00799387 0.15058971
v -0.02531784 0.00001258 0.15058971
v -0.02405368 -0.00796871 0.15058971
v -0.02038519 -0.01516877 0.15058971
v -0.01467114 -0.02088281 0.15058971
v -0.00747109 -0.02455130 0.15058971
v 0.00051020 -0.02581545 0.15058971
v 0.00849150 -0.02455130 0.15058971
v 0.01569154 -0.02088275 0.15058971
v 0.02140552 -0.01516877 0.15058971
v 0.02507408 -0.00796871 0.15058971
v 0.02633821 0.00001257 0.15058971
v 0.02507408 0.00799387 0.15058971
v 0.02140552 0.01519391 0.15058971
v 0.01569154 0.02090789 0.15058971
v 0.00849150 0.02457644 0.15058971
v 0.00051020 0.02584059 0.15058971
v -0.03049677 0.04269007 0.00000091
v -0.01579114 0.05018293 0.00000091
v 0.00051021 0.00001258 0.00000000
v -0.04216729 0.03101956 0.00000091
v -0.04966014 0.01631393 0.00000091
v -0.05224208 0.00001258 0.00000091
v -0.04966014 -0.01628877 0.00000091
v -0.04216729 -0.03099440 0.00000091
v -0.03049677 -0.04266492 0.00000091
v -0.01579114 -0.05015777 0.00000091
v 0.00051021 -0.05273970 0.00000091
v 0.01681155 -0.05015777 0.00000091
v 0.03151719 -0.04266492 0.00000091
v 0.04318770 -0.03099440 0.00000091
v 0.05068056 -0.01628877 0.00000091
v 0.05326248 0.00001258 0.00000091
v 0.05068056 0.01631392 0.00000091
v 0.04318770 0.03101956 0.00000091
v 0.03151719 0.04269007 0.00000091
v 0.01681155 0.05018293 0.00000091
v 0.00051021 0.05276484 0.00000091
v -0.01517951 0.04830053 0.01098475
v -0.01028964 0.03325105 0.01098475
v 0.00051020 0.03496154 0.01098475
v 0.00051020 0.05078558 0.01098475
v -0.02933343 0.04108879 0.01098475
v -0.02003232 0.02828692 0.01098475
v -0.04056601 0.02985622 0.01098475
v -0.02776413 0.02055511 0.01098475
v -0.04777775 0.01570229 0.01098475
v -0.03272826 0.01081241 0.01098475
v -0.05026280 0.00001258 0.01098475
v -0.03443878 0.00001258 0.01098475
v -0.04777775 -0.01567714 0.01098475
v -0.03272826 -0.01078726 0.01098475
v -0.04056601 -0.02983106 0.01098475
v -0.02776413 -0.02052991 0.01098475
v -0.02933342 -0.04106364 0.01098475
v -0.02003229 -0.02826176 0.01098475
v -0.01517951 -0.04827538 0.01098475
v -0.01028963 -0.03322589 0.01098475
v 0.00051021 -0.05076043 0.01098475
v 0.00051021 -0.03493640 0.01098475
v 0.01619992 -0.04827538 0.01098475
v 0.01131004 -0.03322589 0.01098475
v 0.03035384 -0.04106364 0.01098475
v 0.02105268 -0.02826176 0.01098475
v 0.04158642 -0.02983105 0.01098475
v 0.02878454 -0.02052991 0.01098475
v 0.04879816 -0.01567714 0.01098475
v 0.03374868 -0.01078726 0.01098475
v 0.05128321 0.00001258 0.01098475
v 0.03545918 0.00001257 0.01098475
v 0.04879816 0.01570229 0.01098475
v 0.03374868 0.01081241 0.01098475
v 0.04158642 0.02985620 0.01098475
v 0.02878454 0.02055506 0.01098475
v 0.03035383 0.04108879 0.01098475
v 0.02105268 0.02828691 0.01098475
v 0.01619992 0.04830053 0.01098475
v 0.01131004 0.03325105 0.01098475
v -0.00208780 0.00800839 0.06763111
v -0.00443149 0.00681423 0.06763111
v -0.00362427 0.00570319 0.06878639
v -0.00166342 0.00670229 0.06878639
v -0.00629146 0.00495426 0.06763111
v -0.00518041 0.00414705 0.06878639
v -0.00748561 0.00261057 0.06763111
v -0.00617951 0.00218619 0.06878639
v -0.00789708 0.00001257 0.06763111
v -0.00652378 0.00001257 0.06878639
v -0.00748561 -0.00258543 0.06763111
v -0.00617951 -0.00216105 0.06878639
v -0.00629146 -0.00492912 0.06763111
v -0.00518041 -0.00412190 0.06878639
v -0.00443149 -0.00678909 0.06763111
v -0.00362427 -0.00567804 0.06878639
v -0.00208780 -0.00798324 0.06763111
v -0.00166342 -0.00667714 0.06878639
v 0.00051020 -0.00839471 0.06763111
v 0.00051020 -0.00702141 0.06878639
v 0.00310820 -0.00798324 0.06763111
v 0.00268382 -0.00667714 0.06878639
v 0.00545189 -0.00678909 0.06763111
v 0.00464466 -0.00567804 0.06878639
v 0.00731186 -0.00492912 0.06763111
v 0.00620082 -0.00412190 0.06878639
v 0.00850602 -0.00258543 0.06763111
v 0.00719991 -0.00216105 0.06878639
v 0.00891750 0.00001257 0.06763111
v 0.00754418 0.00001257 0.06878639
v 0.00850602 0.00261057 0.06763111
v 0.00719991 0.00218619 0.06878639
v 0.00731186 0.00495426 0.06763111
v 0.00620082 0.00414705 0.06878639
v 0.00545189 0.00681423 0.06763111
v 0.00464466 0.00570319 0.06878639
v 0.00310820 0.00800839 0.06763111
v 0.00268382 0.00670228 0.06878639
v 0.00051020 0.00841987 0.06763111
v 0.00051020 0.00704655 0.06878639
v -0.00632605 0.00942186 0.06957666
v -0.00308383 0.01107386 0.06957666
v -0.00889911 0.00684883 0.06957666
v -0.01055109 0.00360660 0.06957666
v -0.01112031 0.00001257 0.06957666
v -0.01055109 -0.00358145 0.06957666
v -0.00889911 -0.00682368 0.06957666
v -0.00632605 -0.00939674 0.06957666
v -0.00308383 -0.01104871 0.06957666
v 0.00051020 -0.01161794 0.06957666
v 0.00410423 -0.01104871 0.06957666
v 0.00734645 -0.00939674 0.06957666
v 0.00991949 -0.00682368 0.06957666
v 0.01157147 -0.00358145 0.06957666
v 0.01214072 0.00001257 0.06957666
v 0.01157147 0.00360660 0.06957666
v 0.00991949 0.00684883 0.06957666
v 0.00734645 0.00942186 0.06957666
v 0.00410423 0.01107384 0.06957666
v 0.00051020 0.01164309 0.06957666
v -0.00781406 0.01146991 0.07731978
v -0.00386611 0.01348149 0.07731978
v -0.01094717 0.00833683 0.07731978
v -0.01295872 0.00438889 0.07731978
v -0.01365186 0.00001257 0.07731978
v -0.01295872 -0.00436374 0.07731978
v -0.01094717 -0.00831169 0.07731978
v -0.00781406 -0.01144480 0.07731978
v -0.00386611 -0.01345634 0.07731978
v 0.00051020 -0.01414949 0.07731978
v 0.00488652 -0.01345634 0.07731978
v 0.00883445 -0.01144479 0.07731978
v 0.01196754 -0.00831169 0.07731978
v 0.01397912 -0.00436374 0.07731978
v 0.01467226 0.00001257 0.07731978
v 0.01397912 0.00438889 0.07731978
v 0.01196754 0.00833683 0.07731978
v 0.00883445 0.01146991 0.07731978
v 0.00488652 0.01348149 0.07731978
v 0.00051020 0.01417463 0.07731978
v -0.00781406 0.01146991 0.08987773
v -0.00386611 0.01348149 0.08987773
v -0.01094717 0.00833683 0.08987773
v -0.01295872 0.00438890 0.08987773
v -0.01365186 0.00001257 0.08987773
v -0.01295872 -0.00436374 0.08987773
v -0.01094717 -0.00831169 0.08987773
v -0.00781406 -0.01144480 0.08987773
v -0.00386611 -0.01345634 0.08987773
v 0.00051020 -0.01414949 0.08987773
v 0.00488652 -0.01345634 0.08987773
v 0.00883445 -0.01144479 0.08987773
v 0.01196754 -0.00831169 0.08987773
v 0.01397912 -0.00436374 0.08987773
v 0.01467226 0.00001257 0.08987773
v 0.01397912 0.00438889 0.08987773
v 0.01196754 0.00833683 0.08987773
v 0.00883445 0.01146991 0.08987773
v 0.00488652 0.01348149 0.08987773
v 0.00051020 0.01417463 0.08987773
v -0.00735130 0.01083298 0.08987773
v -0.00362283 0.01273274 0.08987773
v -0.01031024 0.00787406 0.08987773
v -0.01220995 0.00414564 0.08987773
v -0.01286457 0.00001257 0.08987773
v -0.01220995 -0.00412046 0.08987773
v -0.01031024 -0.00784893 0.08987773
v -0.00735130 -0.01080787 0.08987773
v -0.00362283 -0.01270758 0.08987773
v 0.00051020 -0.01336219 0.08987773
v 0.00464323 -0.01270758 0.08987773
v 0.00837169 -0.01080786 0.08987773
v 0.01133061 -0.00784893 0.08987773
v 0.01323036 -0.00412046 0.08987773
v 0.01388497 0.00001257 0.08987773
v 0.01323036 0.00414561 0.08987773
v 0.01133061 0.00787406 0.08987773
v 0.00837169 0.01083298 0.08987773
v 0.00464323 0.01273273 0.08987773
v 0.00051020 0.01338734 0.08987773
v -0.00533248 0.00805433 0.12952478
v -0.00256147 0.00946621 0.12952478
v -0.00753156 0.00585525 0.12952478
v -0.00894345 0.00308427 0.12952478
v -0.00942995 0.00001258 0.12952478
v -0.00894345 -0.00305910 0.12952478
v -0.00753156 -0.00583010 0.12952478
v -0.00533248 -0.00802919 0.12952478
v -0.00256147 -0.00944107 0.12952478
v 0.00051020 -0.00992758 0.12952478
v 0.00358188 -0.00944107 0.12952478
v 0.00635288 -0.00802918 0.12952478
v 0.00855196 -0.00583010 0.12952478
v 0.00996384 -0.00305910 0.12952478
v 0.01045034 0.00001257 0.12952478
v 0.00996384 0.00308425 0.12952478
v 0.00855196 0.00585525 0.12952478
v 0.00635288 0.00805433 0.12952478
v 0.00358188 0.00946621 0.12952478
v 0.00051020 0.00995271 0.12952478
v -0.00693548 0.01026069 0.13199886
v -0.00340422 0.01205993 0.13199886
v -0.00973792 0.00745827 0.13199886
v -0.01153718 0.00392701 0.13199886
v -0.01215716 0.00001257 0.13199886
v -0.01153718 -0.00390185 0.13199886
v -0.00973792 -0.00743311 0.13199886
v -0.00693548 -0.01023555 0.13199886
v -0.00340422 -0.01203478 0.13199886
v 0.00051020 -0.01265479 0.13199886
v 0.00442463 -0.01203478 0.13199886
v 0.00795589 -0.01023555 0.13199886
v 0.01075832 -0.00743311 0.13199886
v 0.01255756 -0.00390185 0.13199886
v 0.01317754 0.00001257 0.13199886
v 0.01255756 0.00392701 0.13199886
v 0.01075832 0.00745826 0.13199886
v 0.00795589 0.01026069 0.13199886
v 0.00442463 0.01205993 0.13199886
v 0.00051020 0.01267992 0.13199886
v -0.00736039 0.01084552 0.13398543
v -0.00362761 0.01274745 0.13398543
v -0.01032275 0.00788317 0.13398543
v -0.01222470 0.00415039 0.13398543
v -0.01288006 0.00001257 0.13398543
v -0.01222470 -0.00412524 0.13398543
v -0.01032275 -0.00785802 0.13398543
v -0.00736039 -0.01082038 0.13398543
v -0.00362761 -0.01272230 0.13398543
v 0.00051020 -0.01337768 0.13398543
v 0.00464802 -0.01272230 0.13398543
v 0.00838080 -0.01082038 0.13398543
v 0.01134316 -0.00785802 0.13398543
v 0.01324508 -0.00412524 0.13398543
v 0.01390044 0.00001257 0.13398543
v 0.01324508 0.00415039 0.13398543
v 0.01134316 0.00788317 0.13398543
v 0.00838080 0.01084552 0.13398543
v 0.00464802 0.01274745 0.13398543
v 0.00051020 0.01340282 0.13398543
v -0.00340422 0.01205993 0.13629683
v -0.00693548 0.01026069 0.13629683
v -0.00543480 0.00819517 0.13885356
v -0.00261527 0.00963178 0.13885356
v -0.00973792 0.00745827 0.13629683
v -0.00767241 0.00595758 0.13885356
v -0.01153718 0.00392701 0.13629683
v -0.00910902 0.00313805 0.13885356
v -0.01215716 0.00001257 0.13629683
v -0.00960405 0.00001257 0.13885356
v -0.01153718 -0.00390185 0.13629683
v -0.00910902 -0.00311289 0.13885356
v -0.00973792 -0.00743311 0.13629683
v -0.00767241 -0.00593243 0.13885356
v -0.00693548 -0.01023555 0.13629683
v -0.00543480 -0.00817004 0.13885356
v -0.00340422 -0.01203478 0.13629683
v -0.00261527 -0.00960663 0.13885356
v 0.00051020 -0.01265479 0.13629683
v 0.00051020 -0.01010167 0.13885356
v 0.00442463 -0.01203478 0.13629683
v 0.00363568 -0.00960663 0.13885356
v 0.00795589 -0.01023555 0.13629683
v 0.00645520 -0.00817004 0.13885356
v 0.01075832 -0.00743311 0.13629683
v 0.00869281 -0.00593243 0.13885356
v 0.01255756 -0.00390185 0.13629683
v 0.01012941 -0.00311289 0.13885356
v 0.01317754 0.00001257 0.13629683
v 0.01062444 0.00001257 0.13885356
v 0.01255756 0.00392701 0.13629683
v 0.01012941 0.00313805 0.13885356
v 0.01075832 0.00745826 0.13629683
v 0.00869281 0.00595757 0.13885356
v 0.00795589 0.01026069 0.13629683
v 0.00645520 0.00819517 0.13885356
v 0.00442463 0.01205993 0.13629683
v 0.00363568 0.00963178 0.13885356
v 0.00051020 0.01267992 0.13629683
v 0.00051020 0.01012681 0.13885356
v -0.00618900 0.00923322 0.14748322
v -0.00301177 0.01085208 0.14748322
v -0.00871047 0.00671178 0.14748322
v -0.01032932 0.00353455 0.14748322
v -0.01088715 0.00001258 0.14748322
v -0.01032932 -0.00350940 0.14748322
v -0.00871047 -0.00668663 0.14748322
v -0.00618900 -0.00920810 0.14748322
v -0.00301177 -0.01082693 0.14748322
v 0.00051020 -0.01138477 0.14748322
v 0.00403218 -0.01082693 0.14748322
v 0.00720940 -0.00920809 0.14748322
v 0.00973085 -0.00668663 0.14748322
v 0.01134971 -0.00350940 0.14748322
v 0.01190754 0.00001257 0.14748322
v 0.01134971 0.00353455 0.14748322
v 0.00973085 0.00671178 0.14748322
v 0.00720940 0.00923322 0.14748322
v 0.00403218 0.01085208 0.14748322
v 0.00051020 0.01140991 0.14748322
v -0.00728536 0.02400478 0.14748322
v -0.00765688 0.02514828 0.14867068
v 0.00051020 0.02644179 0.14867068
v 0.00051020 0.02523952 0.14748322
v -0.01431786 0.02042163 0.14748322
v -0.01502452 0.02139426 0.14867068
v -0.01989887 0.01484063 0.14748322
v -0.02087151 0.01554729 0.14867068
v -0.02348201 0.00780815 0.14748322
v -0.02462551 0.00817966 0.14867068
v -0.02471675 0.00001258 0.14748322
v -0.02591902 0.00001258 0.14867068
v -0.02348201 -0.00778298 0.14748322
v -0.02462551 -0.00815450 0.14867068
v -0.01989887 -0.01481548 0.14748322
v -0.02087151 -0.01552216 0.14867068
v -0.01431786 -0.02039650 0.14748322
v -0.01502452 -0.02136913 0.14867068
v -0.00728536 -0.02397963 0.14748322
v -0.00765688 -0.02512307 0.14867068
v 0.00051020 -0.02521437 0.14748322
v 0.00051020 -0.02641665 0.14867068
v 0.00830577 -0.02397963 0.14748322
v 0.00867729 -0.02512307 0.14867068
v 0.01533825 -0.02039649 0.14748322
v 0.01604491 -0.02136913 0.14867068
v 0.02091926 -0.01481548 0.14748322
v 0.02189189 -0.01552216 0.14867068
v 0.02450241 -0.00778298 0.14748322
v 0.02564591 -0.00815450 0.14867068
v 0.02573714 0.00001257 0.14748322
v 0.02693942 0.00001257 0.14867068
v 0.02450241 0.00780814 0.14748322
v 0.02564591 0.00817966 0.14867068
v 0.02091926 0.01484063 0.14748322
v 0.02189189 0.01554729 0.14867068
v 0.01533825 0.02042163 0.14748322
v 0.01604491 0.02139426 0.14867068
v 0.00830577 0.02400478 0.14748322
v 0.00867729 0.02514822 0.14867068
v -0.00765688 0.02514828 0.14999593
v -0.01502452 0.02139426 0.14999593
v 0.00051020 0.02644179 0.14999593
v -0.02087151 0.01554729 0.14999593
v -0.02462551 0.00817966 0.14999593
v -0.02591902 0.00001258 0.14999593
v -0.02462551 -0.00815450 0.14999593
v -0.02087151 -0.01552216 0.14999593
v -0.01502452 -0.02136913 0.14999593
v -0.00765688 -0.02512307 0.14999593
v 0.00051020 -0.02641665 0.14999593
v 0.00867729 -0.02512307 0.14999593
v 0.01604491 -0.02136913 0.14999593
v 0.02189189 -0.01552216 0.14999593
v 0.02564591 -0.00815450 0.14999593
v 0.02693942 0.00001257 0.14999593
v 0.02564591 0.00817966 0.14999593
v 0.02189189 0.01554729 0.14999593
v 0.01604491 0.02139426 0.14999593
v 0.00867729 0.02514822 0.14999593
v -0.00214390 0.00818103 0.06286550
v -0.00221225 0.00839140 0.06601895
v 0.00051020 0.00882259 0.06601895
v 0.00051020 0.00860140 0.06286550
v -0.00453819 0.00696109 0.06286550
v -0.00466820 0.00714004 0.06601895
v -0.00643832 0.00506097 0.06286550
v -0.00661728 0.00519098 0.06601895
v -0.00765826 0.00266667 0.06286550
v -0.00786863 0.00273502 0.06601895
v -0.00807862 0.00001257 0.06286550
v -0.00829981 0.00001257 0.06601895
v -0.00765826 -0.00264152 0.06286550
v -0.00786863 -0.00270987 0.06601895
v -0.00643832 -0.00503582 0.06286550
v -0.00661727 -0.00516583 0.06601895
v -0.00453819 -0.00693595 0.06286550
v -0.00466820 -0.00711490 0.06601895
v -0.00214390 -0.00815589 0.06286550
v -0.00221225 -0.00836626 0.06601895
v 0.00051020 -0.00857625 0.06286550
v 0.00051020 -0.00879744 0.06601895
v 0.00316430 -0.00815589 0.06286550
v 0.00323265 -0.00836626 0.06601895
v 0.00555859 -0.00693595 0.06286550
v 0.00568860 -0.00711489 0.06601895
v 0.00745872 -0.00503582 0.06286550
v 0.00763767 -0.00516583 0.06601895
v 0.00867866 -0.00264152 0.06286550
v 0.00888903 -0.00270987 0.06601895
v 0.00909902 0.00001257 0.06286550
v 0.00932022 0.00001257 0.06601895
v 0.00867866 0.00266667 0.06286550
v 0.00888903 0.00273502 0.06601895
v 0.00745872 0.00506096 0.06286550
v 0.00763767 0.00519098 0.06601895
v 0.00555859 0.00696109 0.06286550
v 0.00568860 0.00714004 0.06601895
v 0.00316430 0.00818103 0.06286550
v 0.00323265 0.00839140 0.06601895
v -0.00170406 0.00682736 0.05934820
v -0.00370156 0.00580958 0.05934820
v -0.00528680 0.00422435 0.05934820
v -0.00630458 0.00222683 0.05934820
v -0.00665529 0.00001257 0.05934820
v -0.00630458 -0.00220169 0.05934820
v -0.00528680 -0.00419919 0.05934820
v -0.00370156 -0.00578443 0.05934820
v -0.00170406 -0.00680221 0.05934820
v 0.00051020 -0.00715291 0.05934820
v 0.00272446 -0.00680221 0.05934820
v 0.00472197 -0.00578443 0.05934820
v 0.00630720 -0.00419919 0.05934820
v 0.00732498 -0.00220169 0.05934820
v 0.00767567 0.00001257 0.05934820
v 0.00732498 0.00222683 0.05934820
v 0.00630720 0.00422434 0.05934820
v 0.00472197 0.00580958 0.05934820
v 0.00272446 0.00682735 0.05934820
v 0.00051020 0.00717806 0.05934820
v -0.01606007 0.05101054 0.00085921
v 0.00051021 0.05363506 0.00085921
v -0.03100827 0.04339410 0.00085921
v -0.04287131 0.03153106 0.00085921
v -0.05048776 0.01658285 0.00085922
v -0.05311232 0.00001258 0.00085921
v -0.05048776 -0.01655770 0.00085922
v -0.04287131 -0.03150590 0.00085922
v -0.03100827 -0.04336894 0.00085922
v -0.01606006 -0.05098538 0.00085922
v 0.00051021 -0.05360994 0.00085921
v 0.01708048 -0.05098538 0.00085922
v 0.03202869 -0.04336894 0.00085922
v 0.04389173 -0.03150590 0.00085922
v 0.05150817 -0.01655769 0.00085922
v 0.05413272 0.00001258 0.00085921
v 0.05150817 0.01658284 0.00085922
v 0.04389173 0.03153106 0.00085922
v 0.03202869 0.04339409 0.00085922
v 0.01708047 0.05101054 0.00085922
v -0.01562155 0.04966097 0.00997940
v -0.01606262 0.05101839 0.00827927
v -0.03101311 0.04340078 0.00827926
v -0.03017419 0.04224607 0.00997941
v 0.00051021 0.05221602 0.00997940
v 0.00051021 0.05364331 0.00827927
v 0.01664196 0.04966096 0.00997941
v 0.01708303 0.05101838 0.00827927
v -0.04287799 0.03153590 0.00827927
v -0.04172328 0.03069697 0.00997940
v -0.05049561 0.01658541 0.00827927
v -0.04913818 0.01614434 0.00997941
v -0.05312056 0.00001258 0.00827926
v -0.05169326 0.00001258 0.00997940
v -0.05049560 -0.01656025 0.00827927
v -0.04913818 -0.01611918 0.00997941
v -0.04287798 -0.03151074 0.00827927
v -0.04172328 -0.03067182 0.00997941
v -0.03101311 -0.04337561 0.00827927
v -0.03017419 -0.04222090 0.00997941
v -0.01606262 -0.05099323 0.00827927
v -0.01562155 -0.04963580 0.00997941
v 0.00051021 -0.05361818 0.00827926
v 0.00051021 -0.05219088 0.00997940
v 0.01708303 -0.05099323 0.00827927
v 0.01664196 -0.04963580 0.00997941
v 0.03203353 -0.04337561 0.00827927
v 0.03119460 -0.04222090 0.00997941
v 0.04389840 -0.03151074 0.00827927
v 0.04274369 -0.03067181 0.00997941
v 0.05151601 -0.01656025 0.00827927
v 0.05015859 -0.01611918 0.00997941
v 0.05414096 0.00001258 0.00827926
v 0.05271367 0.00001258 0.00997940
v 0.05151601 0.01658540 0.00827927
v 0.05015859 0.01614433 0.00997941
v 0.04389840 0.03153590 0.00827927
v 0.04274369 0.03069696 0.00997941
v 0.03203353 0.04340077 0.00827927
v 0.03119460 0.04224606 0.00997941
v -0.00689928 0.02281660 0.02411670
v -0.00552172 0.01857694 0.03411246
v 0.00051020 0.01953229 0.03411246
v 0.00051020 0.02399014 0.02411670
v -0.01358348 0.01941085 0.02411670
v -0.01096322 0.01580438 0.03411246
v -0.01888807 0.01410626 0.02411670
v -0.01528160 0.01148600 0.03411246
v -0.02229383 0.00742205 0.02411670
v -0.01805417 0.00604450 0.03411246
v -0.02346735 0.00001257 0.02411670
v -0.01900951 0.00001257 0.03411246
v -0.02229383 -0.00739690 0.02411670
v -0.01805417 -0.00601935 0.03411246
v -0.01888807 -0.01408110 0.02411670
v -0.01528160 -0.01146085 0.03411246
v -0.01358347 -0.01938570 0.02411670
v -0.01096322 -0.01577923 0.03411246
v -0.00689927 -0.02279145 0.02411670
v -0.00552172 -0.01855180 0.03411246
v 0.00051020 -0.02396498 0.02411670
v 0.00051020 -0.01950714 0.03411246
v 0.00791968 -0.02279145 0.02411670
v 0.00654213 -0.01855179 0.03411246
v 0.01460385 -0.01938570 0.02411670
v 0.01198359 -0.01577923 0.03411246
v 0.01990848 -0.01408110 0.02411670
v 0.01630201 -0.01146085 0.03411246
v 0.02331423 -0.00739690 0.02411670
v 0.01907457 -0.00601935 0.03411246
v 0.02448776 0.00001257 0.02411670
v 0.02002992 0.00001257 0.03411246
v 0.02331423 0.00742205 0.02411670
v 0.01907457 0.00604450 0.03411246
v 0.01990848 0.01410624 0.02411670
v 0.01630201 0.01148599 0.03411246
v 0.01460385 0.01941085 0.02411670
v 0.01198359 0.01580438 0.03411246
v 0.00791968 0.02281660 0.02411670
v 0.00654213 0.01857694 0.03411246
v -0.00393497 0.01369343 0.05477405
v -0.00480170 0.01636096 0.05045366
v -0.00959367 0.01391935 0.05045365
v -0.00794504 0.01165022 0.05477405
v 0.00051020 0.01439746 0.05477405
v 0.00051020 0.01720226 0.05045366
v -0.01339658 0.01011644 0.05045365
v -0.01112745 0.00846782 0.05477405
v -0.01583819 0.00532449 0.05045365
v -0.01317066 0.00445775 0.05477405
v -0.01667948 0.00001257 0.05045366
v -0.01387468 0.00001257 0.05477405
v -0.01583818 -0.00529933 0.05045366
v -0.01317066 -0.00443260 0.05477405
v -0.01339658 -0.01009129 0.05045365
v -0.01112745 -0.00844267 0.05477405
v -0.00959367 -0.01389421 0.05045365
v -0.00794504 -0.01162508 0.05477405
v -0.00480170 -0.01633581 0.05045365
v -0.00393497 -0.01366828 0.05477405
v 0.00051020 -0.01717711 0.05045366
v 0.00051020 -0.01437231 0.05477405
v 0.00582211 -0.01633581 0.05045366
v 0.00495538 -0.01366828 0.05477405
v 0.01061404 -0.01389421 0.05045365
v 0.00896543 -0.01162508 0.05477405
v 0.01441698 -0.01009129 0.05045365
v 0.01214785 -0.00844267 0.05477405
v 0.01685858 -0.00529933 0.05045365
v 0.01419106 -0.00443260 0.05477405
v 0.01769989 0.00001257 0.05045366
v 0.01489509 0.00001257 0.05477405
v 0.01685858 0.00532448 0.05045366
v 0.01419106 0.00445775 0.05477405
v 0.01441698 0.01011642 0.05045366
v 0.01214785 0.00846780 0.05477405
v 0.01061404 0.01391935 0.05045365
v 0.00896543 0.01165022 0.05477405
v 0.00582211 0.01636095 0.05045365
v 0.00495538 0.01369343 0.05477405
f 1 2 3
f 4 5 2
f 2 5 6
f 2 6 7
f 2 7 8
f 2 8 9
f 2 9 10
f 2 10 11
f 2 11 12
f 2 12 13
f 2 13 3
f 14 2 1
f 15 2 14
f 16 2 15
f 17 2 16
f 18 2 17
f 19 2 18
f 20 2 19
f 21 2 20
f 4 2 21
f 22 21 20
f 22 20 23
f 21 22 24
f 21 24 4
f 4 24 25
f 4 25 5
f 5 25 26
f 5 26 6
f 6 26 27
f 6 27 7
f 7 27 28
f 7 28 8
f 8 28 29
f 8 29 9
f 9 29 30
f 9 30 10
f 10 30 31
f 10 31 11
f 11 31 32
f 11 32 12
f 12 32 33
f 12 33 13
f 13 33 34
f 13 34 3
f 3 34 35
f 3 35 1
f 1 35 36
f 1 36 14
f 14 36 37
f 14 37 15
f 15 37 38
f 15 38 16
f 16 38 39
f 16 39 17
f 17 39 40
f 17 40 18
f 18 40 41
f 18 41 19
f 19 41 23
f 19 23 20
f 42 43 24
f 42 24 22
f 43 44 25
f 43 25 24
f 44 45 26
f 44 26 25
f 45 46 27
f 45 27 26
f 46 47 28
f 46 28 27
f 47 48 29
f 47 29 28
f 48 49 30
f 48 30 29
f 49 50 31
f 49 31 30
f 50 51 32
f 50 32 31
f 51 52 33
f 51 33 32
f 52 53 34
f 52 34 33
f 53 54 35
f 53 35 34
f 54 55 36
f 54 36 35
f 55 56 37
f 55 37 36
f 56 57 38
f 56 38 37
f 57 58 39
f 57 39 38
f 58 59 40
f 58 40 39
f 59 60 41
f 59 41 40
f 60 61 23
f 60 23 41
f 61 42 22
f 61 22 23
f 62 63 64
f 63 65 64
f 65 66 64
f 66 67 64
f 67 68 64
f 68 69 64
f 69 70 64
f 70 71 64
f 71 72 64
f 72 73 64
f 73 74 64
f 74 75 64
f 75 76 64
f 76 77 64
f 77 78 64
f 78 79 64
f 79 80 64
f 80 81 64
f 81 82 64
f 82 62 64
f 83 84 85
f 83 85 86
f 84 87 88
f 84 88 85
f 87 89 90
f 87 90 88
f 89 91 92
f 89 92 90
f 91 93 94
f 91 94 92
f 93 95 96
f 93 96 94
f 95 97 98
f 95 98 96
f 97 99 100
f 97 100 98
f 99 101 102
f 99 102 100
f 101 103 104
f 101 104 102
f 103 105 106
f 103 106 104
f 105 107 108
f 105 108 106
f 107 109 110
f 107 110 108
f 109 111 112
f 109 112 110
f 111 113 114
f 111 114 112
f 113 115 116
f 113 116 114
f 115 117 118
f 115 118 116
f 117 119 120
f 117 120 118
f 119 121 122
f 119 122 120
f 121 83 86
f 121 86 122
f 96 98 123
f 96 123 124
f 94 96 124
f 94 124 125
f 92 94 125
f 92 125 126
f 90 92 126
f 90 126 127
f 88 90 127
f 88 127 128
f 85 88 128
f 85 128 129
f 86 85 129
f 86 129 130
f 122 86 130
f 122 130 131
f 120 122 131
f 120 131 132
f 118 120 132
f 118 132 133
f 116 118 133
f 116 133 134
f 114 116 134
f 114 134 135
f 112 114 135
f 112 135 136
f 110 112 136
f 110 136 137
f 108 110 137
f 108 137 138
f 106 108 138
f 106 138 139
f 104 106 139
f 104 139 140
f 102 104 140
f 102 140 141
f 100 102 141
f 100 141 142
f 98 100 142
f 98 142 123
f 62 143 144
f 62 144 63
f 143 130 129
f 143 129 144
f 63 144 145
f 63 145 65
f 144 129 128
f 144 128 145
f 65 145 146
f 65 146 66
f 145 128 127
f 145 127 146
f 66 146 147
f 66 147 67
f 146 127 126
f 146 126 147
f 67 147 148
f 67 148 68
f 147 126 125
f 147 125 148
f 68 148 149
f 68 149 69
f 148 125 124
f 148 124 149
f 69 149 150
f 69 150 70
f 149 124 123
f 149 123 150
f 70 150 151
f 70 151 71
f 150 123 142
f 150 142 151
f 71 151 152
f 71 152 72
f 151 142 141
f 151 141 152
f 72 152 153
f 72 153 73
f 152 141 140
f 152 140 153
f 73 153 154
f 73 154 74
f 153 140 139
f 153 139 154
f 74 154 155
f 74 155 75
f 154 139 138
f 154 138 155
f 75 155 156
f 75 156 76
f 155 138 137
f 155 137 156
f 76 156 157
f 76 157 77
f 156 137 136
f 156 136 157
f 77 157 158
f 77 158 78
f 157 136 135
f 157 135 158
f 78 158 159
f 78 159 79
f 158 135 134
f 158 134 159
f 79 159 160
f 79 160 80
f 159 134 133
f 159 133 160
f 80 160 161
f 80 161 81
f 160 133 132
f 160 132 161
f 81 161 162
f 81 162 82
f 161 132 131
f 161 131 162
f 130 143 162
f 130 162 131
f 143 62 82
f 143 82 162
f 163 164 165
f 164 166 165
f 166 167 165
f 167 168 165
f 168 169 165
f 169 170 165
f 170 171 165
f 171 172 165
f 172 173 165
f 173 174 165
f 174 175 165
f 175 176 165
f 176 177 165
f 177 178 165
f 178 179 165
f 179 180 165
f 180 181 165
f 181 182 165
f 182 183 165
f 183 163 165
f 184 185 186
f 187 184 186
f 188 187 186
f 189 188 186
f 190 189 186
f 191 190 186
f 192 191 186
f 193 192 186
f 194 193 186
f 195 194 186
f 196 195 186
f 197 196 186
f 198 197 186
f 199 198 186
f 200 199 186
f 201 200 186
f 202 201 186
f 203 202 186
f 204 203 186
f 185 204 186
f 205 206 207
f 205 207 208
f 206 205 209
f 206 209 210
f 210 209 211
f 210 211 212
f 212 211 213
f 212 213 214
f 214 213 215
f 214 215 216
f 216 215 217
f 216 217 218
f 218 217 219
f 218 219 220
f 220 219 221
f 220 221 222
f 222 221 223
f 222 223 224
f 224 223 225
f 224 225 226
f 226 225 227
f 226 227 228
f 228 227 229
f 228 229 230
f 230 229 231
f 230 231 232
f 232 231 233
f 232 233 234
f 234 233 235
f 234 235 236
f 236 235 237
f 236 237 238
f 238 237 239
f 238 239 240
f 240 239 241
f 240 241 242
f 242 241 243
f 242 243 244
f 244 243 208
f 244 208 207
f 245 246 247
f 245 247 248
f 246 249 250
f 246 250 247
f 249 251 252
f 249 252 250
f 251 253 254
f 251 254 252
f 253 255 256
f 253 256 254
f 255 257 258
f 255 258 256
f 257 259 260
f 257 260 258
f 259 261 262
f 259 262 260
f 261 263 264
f 261 264 262
f 263 265 266
f 263 266 264
f 265 267 268
f 265 268 266
f 267 269 270
f 267 270 268
f 269 271 272
f 269 272 270
f 271 273 274
f 271 274 272
f 273 275 276
f 273 276 274
f 275 277 278
f 275 278 276
f 277 279 280
f 277 280 278
f 279 281 282
f 279 282 280
f 281 283 284
f 281 284 282
f 283 245 248
f 283 248 284
f 248 247 285
f 248 285 286
f 247 250 287
f 247 287 285
f 250 252 288
f 250 288 287
f 252 254 289
f 252 289 288
f 254 256 290
f 254 290 289
f 256 258 291
f 256 291 290
f 258 260 292
f 258 292 291
f 260 262 293
f 260 293 292
f 262 264 294
f 262 294 293
f 264 266 295
f 264 295 294
f 266 268 296
f 266 296 295
f 268 270 297
f 268 297 296
f 270 272 298
f 270 298 297
f 272 274 299
f 272 299 298
f 274 276 300
f 274 300 299
f 276 278 301
f 276 301 300
f 278 280 302
f 278 302 301
f 280 282 303
f 280 303 302
f 282 284 304
f 282 304 303
f 284 248 286
f 284 286 304
f 286 285 305
f 286 305 306
f 285 287 307
f 285 307 305
f 287 288 308
f 287 308 307
f 288 289 309
f 288 309 308
f 289 290 310
f 289 310 309
f 290 291 311
f 290 311 310
f 291 292 312
f 291 312 311
f 292 293 313
f 292 313 312
f 293 294 314
f 293 314 313
f 294 295 315
f 294 315 314
f 295 296 316
f 295 316 315
f 296 297 317
f 296 317 316
f 297 298 318
f 297 318 317
f 298 299 319
f 298 319 318
f 299 300 320
f 299 320 319
f 300 301 321
f 300 321 320
f 301 302 322
f 301 322 321
f 302 303 323
f 302 323 322
f 303 304 324
f 303 324 323
f 304 286 306
f 304 306 324
f 306 305 325
f 306 325 326
f 305 307 327
f 305 327 325
f 307 308 328
f 307 328 327
f 308 309 329
f 308 329 328
f 309 310 330
f 309 330 329
f 310 311 331
f 310 331 330
f 311 312 332
f 311 332 331
f 312 313 333
f 312 333 332
f 313 314 334
f 313 334 333
f 314 315 335
f 314 335 334
f 315 316 336
f 315 336 335
f 316 317 337
f 316 337 336
f 317 318 338
f 317 338 337
f 318 319 339
f 318 339 338
f 319 320 340
f 319 340 339
f 320 321 341
f 320 341 340
f 321 322 342
f 321 342 341
f 322 323 343
f 322 343 342
f 323 324 344
f 323 344 343
f 324 306 326
f 324 326 344
f 326 325 345
f 326 345 346
f 325 327 347
f 325 347 345
f 327 328 348
f 327 348 347
f 328 329 349
f 328 349 348
f 329 330 350
f 329 350 349
f 330 331 351
f 330 351 350
f 331 332 352
f 331 352 351
f 332 333 353
f 332 353 352
f 333 334 354
f 333 354 353
f 334 335 355
f 334 355 354
f 335 336 356
f 335 356 355
f 336 337 357
f 336 357 356
f 337 338 358
f 337 358 357
f 338 339 359
f 338 359 358
f 339 340 360
f 339 360 359
f 340 341 361
f 340 361 360
f 341 342 362
f 341 362 361
f 342 343 363
f 342 363 362
f 343 344 364
f 343 364 363
f 344 326 346
f 344 346 364
f 346 345 365
f 346 365 366
f 345 347 367
f 345 367 365
f 347 348 368
f 347 368 367
f 348 349 369
f 348 369 368
f 349 350 370
f 349 370 369
f 350 351 371
f 350 371 370
f 351 352 372
f 351 372 371
f 352 353 373
f 352 373 372
f 353 354 374
f 353 374 373
f 354 355 375
f 354 375 374
f 355 356 376
f 355 376 375
f 356 357 377
f 356 377 376
f 357 358 378
f 357 378 377
f 358 359 379
f 358 379 378
f 359 360 380
f 359 380 379
f 360 361 381
f 360 381 380
f 361 362 382
f 361 382 381
f 362 363 383
f 362 383 382
f 363 364 384
f 363 384 383
f 364 346 366
f 364 366 384
f 366 365 385
f 366 385 386
f 365 367 387
f 365 387 385
f 367 368 388
f 367 388 387
f 368 369 389
f 368 389 388
f 369 370 390
f 369 390 389
f 370 371 391
f 370 391 390
f 371 372 392
f 371 392 391
f 372 373 393
f 372 393 392
f 373 374 394
f 373 394 393
f 374 375 395
f 374 395 394
f 375 376 396
f 375 396 395
f 376 377 397
f 376 397 396
f 377 378 398
f 377 398 397
f 378 379 399
f 378 399 398
f 379 380 400
f 379 400 399
f 380 381 401
f 380 401 400
f 381 382 402
f 381 402 401
f 382 383 403
f 382 403 402
f 383 384 404
f 383 404 403
f 384 366 386
f 384 386 404
f 386 385 405
f 386 405 406
f 385 387 407
f 385 407 405
f 387 388 408
f 387 408 407
f 388 389 409
f 388 409 408
f 389 390 410
f 389 410 409
f 390 391 411
f 390 411 410
f 391 392 412
f 391 412 411
f 392 393 413
f 392 413 412
f 393 394 414
f 393 414 413
f 394 395 415
f 394 415 414
f 395 396 416
f 395 416 415
f 396 397 417
f 396 417 416
f 397 398 418
f 397 418 417
f 398 399 419
f 398 419 418
f 399 400 420
f 399 420 419
f 400 401 421
f 400 421 420
f 401 402 422
f 401 422 421
f 402 403 423
f 402 423 422
f 403 404 424
f 403 424 423
f 404 386 406
f 404 406 424
f 425 426 427
f 425 427 428
f 426 429 430
f 426 430 427
f 429 431 432
f 429 432 430
f 431 433 434
f 431 434 432
f 433 435 436
f 433 436 434
f 435 437 438
f 435 438 436
f 437 439 440
f 437 440 438
f 439 441 442
f 439 442 440
f 441 443 444
f 441 444 442
f 443 445 446
f 443 446 444
f 445 447 448
f 445 448 446
f 447 449 450
f 447 450 448
f 449 451 452
f 449 452 450
f 451 453 454
f 451 454 452
f 453 455 456
f 453 456 454
f 455 457 458
f 455 458 456
f 457 459 460
f 457 460 458
f 459 461 462
f 459 462 460
f 461 463 464
f 461 464 462
f 463 425 428
f 463 428 464
f 427 465 466
f 427 466 428
f 430 467 465
f 430 465 427
f 432 468 467
f 432 467 430
f 434 469 468
f 434 468 432
f 436 470 469
f 436 469 434
f 438 471 470
f 438 470 436
f 440 472 471
f 440 471 438
f 442 473 472
f 442 472 440
f 444 474 473
f 444 473 442
f 446 475 474
f 446 474 444
f 448 476 475
f 448 475 446
f 450 477 476
f 450 476 448
f 452 478 477
f 452 477 450
f 454 479 478
f 454 478 452
f 456 480 479
f 456 479 454
f 458 481 480
f 458 480 456
f 460 482 481
f 460 481 458
f 462 483 482
f 462 482 460
f 464 484 483
f 464 483 462
f 428 466 484
f 428 484 464
f 485 486 487
f 485 487 488
f 486 485 489
f 486 489 490
f 490 489 491
f 490 491 492
f 492 491 493
f 492 493 494
f 494 493 495
f 494 495 496
f 496 495 497
f 496 497 498
f 498 497 499
f 498 499 500
f 500 499 501
f 500 501 502
f 502 501 503
f 502 503 504
f 504 503 505
f 504 505 506
f 506 505 507
f 506 507 508
f 508 507 509
f 508 509 510
f 510 509 511
f 510 511 512
f 512 511 513
f 512 513 514
f 514 513 515
f 514 515 516
f 516 515 517
f 516 517 518
f 518 517 519
f 518 519 520
f 520 519 521
f 520 521 522
f 522 521 523
f 522 523 524
f 524 523 488
f 524 488 487
f 466 465 489
f 466 489 485
f 465 467 491
f 465 491 489
f 467 468 493
f 467 493 491
f 468 469 495
f 468 495 493
f 469 470 497
f 469 497 495
f 470 471 499
f 470 499 497
f 471 472 501
f 471 501 499
f 472 473 503
f 472 503 501
f 473 474 505
f 473 505 503
f 474 475 507
f 474 507 505
f 475 476 509
f 475 509 507
f 476 477 511
f 476 511 509
f 477 478 513
f 477 513 511
f 478 479 515
f 478 515 513
f 479 480 517
f 479 517 515
f 480 481 519
f 480 519 517
f 481 482 521
f 481 521 519
f 482 483 523
f 482 523 521
f 483 484 488
f 483 488 523
f 484 466 485
f 484 485 488
f 163 525 526
f 163 526 164
f 525 163 183
f 525 183 527
f 164 526 528
f 164 528 166
f 166 528 529
f 166 529 167
f 167 529 530
f 167 530 168
f 168 530 531
f 168 531 169
f 169 531 532
f 169 532 170
f 170 532 533
f 170 533 171
f 171 533 534
f 171 534 172
f 172 534 535
f 172 535 173
f 173 535 536
f 173 536 174
f 174 536 537
f 174 537 175
f 175 537 538
f 175 538 176
f 176 538 539
f 176 539 177
f 177 539 540
f 177 540 178
f 178 540 541
f 178 541 179
f 179 541 542
f 179 542 180
f 180 542 543
f 180 543 181
f 181 543 544
f 181 544 182
f 182 544 527
f 182 527 183
f 486 490 526
f 486 526 525
f 490 492 528
f 490 528 526
f 492 494 529
f 492 529 528
f 494 496 530
f 494 530 529
f 496 498 531
f 496 531 530
f 498 500 532
f 498 532 531
f 500 502 533
f 500 533 532
f 502 504 534
f 502 534 533
f 504 506 535
f 504 535 534
f 506 508 536
f 506 536 535
f 508 510 537
f 508 537 536
f 510 512 538
f 510 538 537
f 512 514 539
f 512 539 538
f 514 516 540
f 514 540 539
f 516 518 541
f 516 541 540
f 518 520 542
f 518 542 541
f 520 522 543
f 520 543 542
f 522 524 544
f 522 544 543
f 524 487 527
f 524 527 544
f 487 486 525
f 487 525 527
f 407 408 431
f 407 431 429
f 405 407 429
f 405 429 426
f 406 405 426
f 406 426 425
f 424 406 425
f 424 425 463
f 423 424 463
f 423 463 461
f 422 423 461
f 422 461 459
f 421 422 459
f 421 459 457
f 420 421 457
f 420 457 455
f 419 420 455
f 419 455 453
f 418 419 453
f 418 453 451
f 417 418 451
f 417 451 449
f 416 417 449
f 416 449 447
f 415 416 447
f 415 447 445
f 414 415 445
f 414 445 443
f 413 414 443
f 413 443 441
f 412 413 441
f 412 441 439
f 411 412 439
f 411 439 437
f 410 411 437
f 410 437 435
f 409 410 435
f 409 435 433
f 408 409 433
f 408 433 431
f 545 546 547
f 545 547 548
f 546 545 549
f 546 549 550
f 550 549 551
f 550 551 552
f 552 551 553
f 552 553 554
f 554 553 555
f 554 555 556
f 556 555 557
f 556 557 558
f 558 557 559
f 558 559 560
f 560 559 561
f 560 561 562
f 562 561 563
f 562 563 564
f 564 563 565
f 564 565 566
f 566 565 567
f 566 567 568
f 568 567 569
f 568 569 570
f 570 569 571
f 570 571 572
f 572 571 573
f 572 573 574
f 574 573 575
f 574 575 576
f 576 575 577
f 576 577 578
f 578 577 579
f 578 579 580
f 580 579 581
f 580 581 582
f 582 581 583
f 582 583 584
f 584 583 548
f 584 548 547
f 585 586 549
f 585 549 545
f 586 587 551
f 586 551 549
f 587 588 553
f 587 553 551
f 588 589 555
f 588 555 553
f 589 590 557
f 589 557 555
f 590 591 559
f 590 559 557
f 591 592 561
f 591 561 559
f 592 593 563
f 592 563 561
f 593 594 565
f 593 565 563
f 594 595 567
f 594 567 565
f 595 596 569
f 595 569 567
f 596 597 571
f 596 571 569
f 597 598 573
f 597 573 571
f 598 599 575
f 598 575 573
f 599 600 577
f 599 577 575
f 600 601 579
f 600 579 577
f 601 602 581
f 601 581 579
f 602 603 583
f 602 583 581
f 603 604 548
f 603 548 583
f 604 585 545
f 604 545 548
f 546 550 246
f 546 246 245
f 550 552 249
f 550 249 246
f 552 554 251
f 552 251 249
f 554 556 253
f 554 253 251
f 556 558 255
f 556 255 253
f 558 560 257
f 558 257 255
f 560 562 259
f 560 259 257
f 562 564 261
f 562 261 259
f 564 566 263
f 564 263 261
f 566 568 265
f 566 265 263
f 568 570 267
f 568 267 265
f 570 572 269
f 570 269 267
f 572 574 271
f 572 271 269
f 574 576 273
f 574 273 271
f 576 578 275
f 576 275 273
f 578 580 277
f 578 277 275
f 580 582 279
f 580 279 277
f 582 584 281
f 582 281 279
f 584 547 283
f 584 283 281
f 547 546 245
f 547 245 283
f 185 605 606
f 185 606 204
f 605 185 184
f 605 184 607
f 607 184 187
f 607 187 608
f 608 187 188
f 608 188 609
f 609 188 189
f 609 189 610
f 610 189 190
f 610 190 611
f 611 190 191
f 611 191 612
f 612 191 192
f 612 192 613
f 613 192 193
f 613 193 614
f 614 193 194
f 614 194 615
f 615 194 195
f 615 195 616
f 616 195 196
f 616 196 617
f 617 196 197
f 617 197 618
f 618 197 198
f 618 198 619
f 619 198 199
f 619 199 620
f 620 199 200
f 620 200 621
f 621 200 201
f 621 201 622
f 622 201 202
f 622 202 623
f 623 202 203
f 623 203 624
f 624 203 204
f 624 204 606
f 625 626 627
f 625 627 628
f 626 625 629
f 626 629 630
f 630 629 631
f 630 631 632
f 628 627 633
f 628 633 634
f 634 633 635
f 634 635 636
f 636 635 637
f 636 637 638
f 638 637 639
f 638 639 640
f 640 639 641
f 640 641 642
f 642 641 643
f 642 643 644
f 644 643 645
f 644 645 646
f 646 645 647
f 646 647 648
f 648 647 649
f 648 649 650
f 650 649 651
f 650 651 652
f 652 651 653
f 652 653 654
f 654 653 655
f 654 655 656
f 656 655 657
f 656 657 658
f 658 657 659
f 658 659 660
f 660 659 661
f 660 661 662
f 662 661 663
f 662 663 664
f 664 663 632
f 664 632 631
f 625 205 208
f 625 208 629
f 205 625 628
f 205 628 209
f 209 628 634
f 209 634 211
f 211 634 636
f 211 636 213
f 213 636 638
f 213 638 215
f 215 638 640
f 215 640 217
f 217 640 642
f 217 642 219
f 219 642 644
f 219 644 221
f 221 644 646
f 221 646 223
f 223 646 648
f 223 648 225
f 225 648 650
f 225 650 227
f 227 650 652
f 227 652 229
f 229 652 654
f 229 654 231
f 231 654 656
f 231 656 233
f 233 656 658
f 233 658 235
f 235 658 660
f 235 660 237
f 237 660 662
f 237 662 239
f 239 662 664
f 239 664 241
f 241 664 631
f 241 631 243
f 243 631 629
f 243 629 208
f 605 626 630
f 605 630 606
f 626 605 607
f 626 607 627
f 627 607 608
f 627 608 633
f 633 608 609
f 633 609 635
f 635 609 610
f 635 610 637
f 637 610 611
f 637 611 639
f 639 611 612
f 639 612 641
f 641 612 613
f 641 613 643
f 643 613 614
f 643 614 645
f 645 614 615
f 645 615 647
f 647 615 616
f 647 616 649
f 649 616 617
f 649 617 651
f 651 617 618
f 651 618 653
f 653 618 619
f 653 619 655
f 655 619 620
f 655 620 657
f 657 620 621
f 657 621 659
f 659 621 622
f 659 622 661
f 661 622 623
f 661 623 663
f 663 623 624
f 663 624 632
f 632 624 606
f 632 606 630
f 665 666 667
f 665 667 668
f 666 665 669
f 666 669 670
f 670 669 671
f 670 671 672
f 672 671 673
f 672 673 674
f 674 673 675
f 674 675 676
f 676 675 677
f 676 677 678
f 678 677 679
f 678 679 680
f 680 679 681
f 680 681 682
f 682 681 683
f 682 683 684
f 684 683 685
f 684 685 686
f 686 685 687
f 686 687 688
f 688 687 689
f 688 689 690
f 690 689 691
f 690 691 692
f 692 691 693
f 692 693 694
f 694 693 695
f 694 695 696
f 696 695 697
f 696 697 698
f 698 697 699
f 698 699 700
f 700 699 701
f 700 701 702
f 702 701 703
f 702 703 704
f 704 703 668
f 704 668 667
f 210 669 665
f 210 665 206
f 212 671 669
f 212 669 210
f 214 673 671
f 214 671 212
f 216 675 673
f 216 673 214
f 218 677 675
f 218 675 216
f 220 679 677
f 220 677 218
f 222 681 679
f 222 679 220
f 224 683 681
f 224 681 222
f 226 685 683
f 226 683 224
f 228 687 685
f 228 685 226
f 230 689 687
f 230 687 228
f 232 691 689
f 232 689 230
f 234 693 691
f 234 691 232
f 236 695 693
f 236 693 234
f 238 697 695
f 238 695 236
f 240 699 697
f 240 697 238
f 242 701 699
f 242 699 240
f 244 703 701
f 244 701 242
f 207 668 703
f 207 703 244
f 206 665 668
f 206 668 207
f 705 706 707
f 705 707 708
f 706 705 709
f 706 709 710
f 708 707 711
f 708 711 712
f 712 711 713
f 712 713 714
f 714 713 715
f 714 715 716
f 716 715 717
f 716 717 718
f 718 717 719
f 718 719 720
f 720 719 721
f 720 721 722
f 722 721 723
f 722 723 724
f 724 723 725
f 724 725 726
f 726 725 727
f 726 727 728
f 728 727 729
f 728 729 730
f 730 729 731
f 730 731 732
f 732 731 733
f 732 733 734
f 734 733 735
f 734 735 736
f 736 735 737
f 736 737 738
f 738 737 739
f 738 739 740
f 740 739 741
f 740 741 742
f 742 741 743
f 742 743 744
f 744 743 710
f 744 710 709
f 705 708 586
f 705 586 585
f 708 712 587
f 708 587 586
f 712 714 588
f 712 588 587
f 714 716 589
f 714 589 588
f 716 718 590
f 716 590 589
f 718 720 591
f 718 591 590
f 720 722 592
f 720 592 591
f 722 724 593
f 722 593 592
f 724 726 594
f 724 594 593
f 726 728 595
f 726 595 594
f 728 730 596
f 728 596 595
f 730 732 597
f 730 597 596
f 732 734 598
f 732 598 597
f 734 736 599
f 734 599 598
f 736 738 600
f 736 600 599
f 738 740 601
f 738 601 600
f 740 742 602
f 740 602 601
f 742 744 603
f 742 603 602
f 744 709 604
f 744 604 603
f 709 705 585
f 709 585 604
f 666 670 707
f 666 707 706
f 670 672 711
f 670 711 707
f 672 674 713
f 672 713 711
f 674 676 715
f 674 715 713
f 676 678 717
f 676 717 715
f 678 680 719
f 678 719 717
f 680 682 721
f 680 721 719
f 682 684 723
f 682 723 721
f 684 686 725
f 684 725 723
f 686 688 727
f 686 727 725
f 688 690 729
f 688 729 727
f 690 692 731
f 690 731 729
f 692 694 733
f 692 733 731
f 694 696 735
f 694 735 733
f 696 698 737
f 696 737 735
f 698 700 739
f 698 739 737
f 700 702 741
f 700 741 739
f 702 704 743
f 702 743 741
f 704 667 710
f 704 710 743
f 667 666 706
f 667 706 710