# https://github.com/mikedh/trimesh
v -0.03222459 0.01395130 0.00339337
v -0.03222459 -0.00301552 0.00339337
v -0.03222459 -0.00301552 0.00000000
v -0.03222459 0.01395130 0.00000000
v -0.03222459 0.03091813 0.00339337
v -0.03222459 0.03091813 0.00000000
v -0.01865113 0.00037784 0.00339337
v -0.00507767 0.00037784 0.00339337
v -0.00507767 0.00037784 0.00000000
v -0.01865113 0.00037784 0.00000000
v -0.03222459 0.00037784 0.00339337
v -0.03222459 0.00037784 0.00000000
v -0.00507767 0.01395130 0.00339337
v -0.00507767 0.03091813 0.00339337
v -0.00507767 0.03091813 0.00000000
v -0.00507767 0.01395130 0.00000000
v -0.00507767 -0.00301552 0.00339337
v -0.00507767 -0.00301552 0.00000000
v -0.00338098 -0.00640889 0.00339337
v -0.01865113 -0.00640889 0.00339337
v -0.01865113 -0.00640889 0.00000000
v -0.00338098 -0.00640889 0.00000000
v 0.01188916 -0.00640889 0.00339337
v 0.01188916 -0.00640889 0.00000000
v -0.01865113 -0.01998235 0.00339337
v -0.01865113 -0.03694917 0.00339337
v -0.01865113 -0.03694917 0.00000000
v -0.01865113 -0.01998235 0.00000000
v -0.01865113 -0.00301552 0.00339337
v -0.01865113 -0.00301552 0.00000000
v -0.00168431 0.01395130 0.03732701
v -0.00168431 -0.00301552 0.03732701
v -0.00168431 -0.00301552 0.03393365
v -0.00168431 0.01395130 0.03393365
v -0.00168431 0.03091813 0.03732701
v -0.00168431 0.03091813 0.03393365
v -0.03561795 0.03091813 0.00339337
v -0.03561795 0.01395130 0.00339337
v -0.03561795 -0.00301552 0.00339337
v -0.00168430 0.01395130 0.00339337
v -0.00168430 0.03091813 0.00339337
v -0.00168430 -0.00301552 0.00339337
v -0.00168430 -0.00301552 0.00000000
v -0.00338098 -0.00301552 0.00339337
v 0.01188916 -0.00301552 0.00339337
v -0.02204449 -0.00301552 0.00339337
v -0.02204449 -0.01998235 0.00339337
v -0.02204449 -0.03694917 0.00339337
v -0.00507767 0.01395130 0.03393365
v -0.00507767 -0.00301552 0.03393365
v -0.00507767 0.03091813 0.03393365
v -0.03561795 0.03091813 0.00000000
v -0.03561795 0.01395130 0.00000000
v -0.03561795 -0.00301552 0.00000000
v -0.00168430 0.01395130 0.00000000
v -0.00168430 0.03091813 0.00000000
v 0.01188916 -0.00301552 0.00000000
v -0.00338098 -0.00301552 0.00000000
v -0.02204449 -0.00301552 0.00000000
v -0.02204449 -0.03694917 0.00000000
v -0.02204449 -0.01998235 0.00000000
v -0.00507767 0.01395130 0.03732701
v -0.00507767 0.03091813 0.03732701
v -0.00507767 -0.00301552 0.03732701
v -0.01865113 0.02752476 0.03393365
v -0.03561795 0.02752476 0.03393365
v -0.03561795 0.02752476 0.03054028
v -0.01865113 0.02752476 0.03054028
v -0.00168430 0.02752476 0.03393365
v -0.00168430 0.02752476 0.03054028
v 0.01188916 -0.01998235 0.03393365
v 0.01188916 -0.03694917 0.03393365
v 0.01188916 -0.03694917 0.03054028
v 0.01188916 -0.01998235 0.03054028
v 0.01188916 -0.00301552 0.03393365
v 0.01188916 -0.00301552 0.03054028
v 0.01188915 0.03091813 0.06786730
v 0.02885598 0.03091813 0.06786730
v 0.02885598 0.03091813 0.06447393
v 0.01188915 0.03091813 0.06447393
v -0.00507767 0.03091813 0.06786730
v -0.00507767 0.03091813 0.06447393
v 0.01188915 0.00037784 0.06786730
v 0.02885598 0.00037784 0.06786730
v 0.02885598 0.00037784 0.06447393
v 0.01188915 0.00037784 0.06447393
v -0.00507767 0.00037784 0.06786730
v -0.00507767 0.00037784 0.06447393
v -0.01865113 0.03091813 0.03393365
v -0.00168430 0.03091813 0.03393365
v -0.00168430 0.03091813 0.03054028
v -0.01865113 0.03091813 0.03054028
v -0.03561795 0.03091813 0.03393365
v -0.03561795 0.03091813 0.03054028
v 0.00849579 -0.01998235 0.03393365
v 0.00849579 -0.00301552 0.03393365
v 0.00849579 -0.00301552 0.03054028
v 0.00849579 -0.01998235 0.03054028
v 0.00849579 -0.03694917 0.03393365
v 0.00849579 -0.03694917 0.03054028
v 0.01188915 0.02752476 0.06786730
v -0.00507767 0.02752476 0.06786730
v -0.00507767 0.02752476 0.06447393
v 0.01188915 0.02752476 0.06447393
v 0.02885598 0.02752476 0.06786730
v 0.02885598 0.02752476 0.06447393
v 0.01188915 -0.00301552 0.06786730
v -0.00507767 -0.00301552 0.06786730
v -0.00507767 -0.00301552 0.06447393
v 0.01188915 -0.00301552 0.06447393
v 0.02885598 -0.00301552 0.06786730
v 0.02885598 -0.00301552 0.06447393
v -0.01865113 -0.00640889 0.03393365
v -0.01865113 -0.00301552 0.03393365
v -0.02204449 -0.00301552 0.03393365
v -0.02204449 -0.00640889 0.03393365
v 0.02546261 0.03091813 0.06447393
v 0.02546261 0.02752476 0.06447393
v -0.00168431 0.02752476 0.03732701
v -0.00507767 0.02752476 0.03732701
v -0.00168431 0.02752476 0.06447393
v -0.00168431 0.03091813 0.06447393
v -0.00507767 0.00037784 0.03732701
v -0.00168431 0.00037784 0.03732701
v -0.00168430 -0.00301552 0.01866351
v -0.00168430 -0.00301552 0.03393365
v -0.00507767 -0.00301552 0.03393365
v -0.00507767 -0.00301552 0.01866351
v -0.03561795 0.03091813 0.01696682
v -0.03222459 0.03091813 0.01696682
v -0.03222459 0.03091813 0.03054028
v -0.03222459 0.02752476 0.00339337
v -0.03561795 0.02752476 0.00339337
v -0.01865113 -0.00640889 0.01866351
v -0.01865113 -0.00301552 0.01866351
v 0.01188916 -0.00301552 0.01696682
v 0.01188916 -0.00640889 0.01696682
v 0.01188916 -0.00640889 0.03054028
v 0.00849579 -0.03694917 0.01527014
v 0.00849579 -0.03355581 0.01527014
v 0.00849579 -0.03355581 0.00000000
v 0.00849579 -0.03694917 0.00000000
v 0.00849579 -0.03355581 0.03054028
v 0.02885598 0.03091813 0.04920379
v 0.02885598 0.02752476 0.04920379
v 0.02885598 0.02752476 0.03393365
v 0.02885598 0.03091813 0.03393365
v -0.00168431 0.03091813 0.05090047
v -0.00168431 0.02752476 0.05090047
v 0.02885598 0.00037784 0.04920379
v 0.02885598 -0.00301552 0.04920379
v 0.02885598 -0.00301552 0.03393365
v 0.02885598 0.00037784 0.03393365
v -0.00168431 0.00037784 0.05090047
v -0.00168431 -0.00301552 0.05090047
v -0.00168431 0.00037784 0.06447393
v -0.00168431 -0.00301552 0.06447393
v -0.00507767 0.00037784 0.01866351
v -0.00507767 0.00037784 0.03393365
v -0.03222459 0.02752476 0.01696682
v -0.03222459 0.02752476 0.03054028
v -0.02204449 -0.00640889 0.01866351
v -0.02204449 -0.00640889 0.00339337
v 0.00849579 -0.00640889 0.01696682
v 0.00849579 -0.00640889 0.00339337
v 0.00849579 -0.00640889 0.03054028
v 0.01188916 -0.03355581 0.01527014
v 0.01188916 -0.03355581 0.00000000
v 0.01188916 -0.03355581 0.03054028
v 0.02546261 0.02752476 0.04920379
v 0.02546261 0.02752476 0.03393365
v -0.00507767 0.02752476 0.05090047
v 0.02546261 -0.00301552 0.04920379
v 0.02546261 -0.00301552 0.03393365
v 0.02546261 -0.00301552 0.06447393
v -0.00507767 -0.00301552 0.05090047
v -0.00168430 0.00037784 0.01866351
v -0.00168430 0.00037784 0.00339337
v -0.00168430 0.00037784 0.03393365
v -0.03561795 0.02752476 0.01696682
v -0.02204449 -0.00301552 0.01866351
v 0.00849579 -0.00301552 0.01696682
v 0.00849579 -0.00301552 0.00339337
v 0.01188916 -0.03694917 0.01527014
v 0.01188916 -0.03694917 0.00000000
v 0.02546261 0.03091813 0.04920379
v 0.02546261 0.03091813 0.03393365
v -0.00507767 0.03091813 0.05090047
v 0.02546261 0.00037784 0.04920379
v 0.02546261 0.00037784 0.03393365
v 0.02546261 0.00037784 0.06447393
v -0.00507767 0.00037784 0.05090047
v 0.01193621 0.02752476 0.03393365
v 0.00910958 0.02752476 0.03634923
v 0.01098460 0.02752476 0.03546548
v 0.00512595 0.02752476 0.03393365
v 0.00415004 0.02752476 0.04006893
v 0.00568445 0.02752476 0.03865454
v 0.00734706 0.02752476 0.03740948
v 0.01484315 0.02752476 0.03430998
v 0.01675660 0.02752476 0.03403078
v 0.01874646 0.02752476 0.03393365
v 0.01290945 0.02752476 0.03478520
v -0.00168431 0.02752476 0.03393365
v -0.00168431 0.02752476 0.04755416
v -0.00135199 0.02752476 0.05069447
v -0.00091610 0.02752476 0.04881462
v -0.00168431 0.02752476 0.05436441
v -0.00161345 0.02752476 0.05266435
v -0.00028713 0.02752476 0.04693886
v -0.00168431 0.02752476 0.04074390
v 0.00053889 0.02752476 0.04509616
v 0.00156014 0.02752476 0.04331694
v 0.00276860 0.02752476 0.04163161
v 0.01193621 0.02413139 0.03393365
v 0.01098460 0.02413139 0.03546548
v 0.00910958 0.02413139 0.03634923
v 0.00512595 0.02413139 0.03393365
v 0.00568445 0.02413139 0.03865454
v 0.00415004 0.02413139 0.04006893
v 0.00734706 0.02413139 0.03740948
v 0.01675660 0.02413139 0.03403078
v 0.01484315 0.02413139 0.03430998
v 0.01874646 0.02413139 0.03393365
v 0.01290945 0.02413139 0.03478520
v -0.00168431 0.02413139 0.03393365
v -0.00168431 0.02413139 0.04755416
v -0.00091610 0.02413139 0.04881462
v -0.00135199 0.02413139 0.05069447
v -0.00161345 0.02413139 0.05266435
v -0.00168431 0.02413139 0.05436441
v -0.00028713 0.02413139 0.04693886
v -0.00168431 0.02413139 0.04074390
v 0.00156014 0.02413139 0.04331694
v 0.00053889 0.02413139 0.04509616
v 0.00276860 0.02413139 0.04163161
v 0.01223562 0.02735234 0.06454451
v 0.00940900 0.02735234 0.06212892
v 0.01128401 0.02735234 0.06301267
v 0.00542537 0.02735234 0.06454451
v 0.00444946 0.02735234 0.05840922
v 0.00598387 0.02735234 0.05982361
v 0.00764647 0.02735234 0.06106868
v 0.01514257 0.02735234 0.06416818
v 0.01705602 0.02735234 0.06444738
v 0.01904588 0.02735234 0.06454451
v 0.01320887 0.02735234 0.06369295
v -0.00138488 0.02735234 0.06454451
v -0.00138488 0.02735234 0.05092400
v -0.00105257 0.02735234 0.04778369
v -0.00061668 0.02735234 0.04966353
v -0.00138488 0.02735234 0.04411374
v -0.00131403 0.02735234 0.04581380
v 0.00001230 0.02735234 0.05153929
v -0.00138488 0.02735234 0.05773425
v 0.00083831 0.02735234 0.05338199
v 0.00185956 0.02735234 0.05516121
v 0.00306803 0.02735234 0.05684655
v 0.01223562 0.03074570 0.06454451
v 0.01128401 0.03074570 0.06301267
v 0.00940900 0.03074570 0.06212892
v 0.00542537 0.03074570 0.06454451
v 0.00598387 0.03074570 0.05982361
v 0.00444946 0.03074570 0.05840922
v 0.00764647 0.03074570 0.06106868
v 0.01705602 0.03074570 0.06444738
v 0.01514257 0.03074570 0.06416818
v 0.01904588 0.03074570 0.06454451
v 0.01320887 0.03074570 0.06369295
v -0.00138488 0.03074570 0.06454451
v -0.00138488 0.03074570 0.05092400
v -0.00061668 0.03074570 0.04966353
v -0.00105257 0.03074570 0.04778369
v -0.00131403 0.03074570 0.04581380
v -0.00138488 0.03074570 0.04411374
v 0.00001230 0.03074570 0.05153929
v -0.00138488 0.03074570 0.05773425
v 0.00185956 0.03074570 0.05516121
v 0.00083831 0.03074570 0.05338199
v 0.00306803 0.03074570 0.05684655
v 0.01198081 0.02898919 0.06454451
v 0.01480742 0.02898919 0.06212892
v 0.01293241 0.02898919 0.06301267
v 0.01879106 0.02898919 0.06454451
v 0.01976697 0.02898919 0.05840922
v 0.01823255 0.02898919 0.05982361
v 0.01656995 0.02898919 0.06106868
v 0.00907386 0.02898919 0.06416818
v 0.00716041 0.02898919 0.06444738
v 0.00517055 0.02898919 0.06454451
v 0.01100756 0.02898919 0.06369295
v 0.02560131 0.02898919 0.06454451
v 0.02560131 0.02898919 0.05092400
v 0.02526900 0.02898919 0.04778369
v 0.02483310 0.02898919 0.04966353
v 0.02560131 0.02898919 0.04411374
v 0.02553046 0.02898919 0.04581380
v 0.02420413 0.02898919 0.05153929
v 0.02560131 0.02898919 0.05773425
v 0.02337812 0.02898919 0.05338199
v 0.02235687 0.02898919 0.05516121
v 0.02114840 0.02898919 0.05684655
v 0.01198081 0.02559582 0.06454451
v 0.01293241 0.02559582 0.06301267
v 0.01480742 0.02559582 0.06212892
v 0.01879106 0.02559582 0.06454451
v 0.01823255 0.02559582 0.05982361
v 0.01976697 0.02559582 0.05840922
v 0.01656995 0.02559582 0.06106868
v 0.00716041 0.02559582 0.06444738
v 0.00907386 0.02559582 0.06416818
v 0.00517055 0.02559582 0.06454451
v 0.01100756 0.02559582 0.06369295
v 0.02560131 0.02559582 0.06454451
v 0.02560131 0.02559582 0.05092400
v 0.02483310 0.02559582 0.04966353
v 0.02526900 0.02559582 0.04778369
v 0.02553046 0.02559582 0.04581380
v 0.02560131 0.02559582 0.04411374
v 0.02420413 0.02559582 0.05153929
v 0.02560131 0.02559582 0.05773425
v 0.02235687 0.02559582 0.05516121
v 0.02337812 0.02559582 0.05338199
v 0.02114840 0.02559582 0.05684655
v 0.02582963 0.01313589 0.03393365
v 0.02582963 0.01030927 0.03634923
v 0.02582963 0.01218428 0.03546548
v 0.02582963 0.00632563 0.03393365
v 0.02582963 0.00534973 0.04006893
v 0.02582963 0.00688414 0.03865454
v 0.02582963 0.00854675 0.03740948
v 0.02582963 0.01604285 0.03430998
v 0.02582963 0.01795628 0.03403078
v 0.02582963 0.01994615 0.03393365
v 0.02582963 0.01410912 0.03478520
v 0.02582963 -0.00048461 0.03393365
v 0.02582963 -0.00048461 0.04755416
v 0.02582963 -0.00015229 0.05069447
v 0.02582963 0.00028360 0.04881462
v 0.02582963 -0.00048461 0.05436441
v 0.02582963 -0.00041378 0.05266435
v 0.02582963 0.00091256 0.04693886
v 0.02582963 -0.00048461 0.04074390
v 0.02582963 0.00173858 0.04509616
v 0.02582963 0.00275981 0.04331694
v 0.02582963 0.00396830 0.04163161
v 0.02922300 0.01313589 0.03393365
v 0.02922300 0.01218428 0.03546548
v 0.02922300 0.01030927 0.03634923
v 0.02922300 0.00632563 0.03393365
v 0.02922300 0.00688414 0.03865454
v 0.02922300 0.00534973 0.04006893
v 0.02922300 0.00854675 0.03740948
v 0.02922300 0.01795628 0.03403078
v 0.02922300 0.01604285 0.03430998
v 0.02922300 0.01994615 0.03393365
v 0.02922300 0.01410912 0.03478520
v 0.02922300 -0.00048461 0.03393365
v 0.02922300 -0.00048461 0.04755416
v 0.02922300 0.00028360 0.04881462
v 0.02922300 -0.00015229 0.05069447
v 0.02922300 -0.00041378 0.05266435
v 0.02922300 -0.00048461 0.05436441
v 0.02922300 0.00091256 0.04693886
v 0.02922300 -0.00048461 0.04074390
v 0.02922300 0.00275981 0.04331694
v 0.02922300 0.00173858 0.04509616
v 0.02922300 0.00396830 0.04163161
v 0.01191268 0.02752476 0.03393365
v 0.01473929 0.02752476 0.03634923
v 0.01286428 0.02752476 0.03546548
v 0.01872293 0.02752476 0.03393365
v 0.01969884 0.02752476 0.04006893
v 0.01816442 0.02752476 0.03865454
v 0.01650183 0.02752476 0.03740948
v 0.00900573 0.02752476 0.03430998
v 0.00709228 0.02752476 0.03403078
v 0.00510242 0.02752476 0.03393365
v 0.01093943 0.02752476 0.03478520
v 0.02553319 0.02752476 0.03393365
v 0.02553319 0.02752476 0.04755416
v 0.02520087 0.02752476 0.05069447
v 0.02476497 0.02752476 0.04881462
v 0.02553319 0.02752476 0.05436441
v 0.02546233 0.02752476 0.05266435
v 0.02413600 0.02752476 0.04693886
v 0.02553319 0.02752476 0.04074390
v 0.02330999 0.02752476 0.04509616
v 0.02228874 0.02752476 0.04331694
v 0.02108027 0.02752476 0.04163161
v 0.01191268 0.03091813 0.03393365
v 0.01286428 0.03091813 0.03546548
v 0.01473929 0.03091813 0.03634923
v 0.01872293 0.03091813 0.03393365
v 0.01816442 0.03091813 0.03865454
v 0.01969884 0.03091813 0.04006893
v 0.01650183 0.03091813 0.03740948
v 0.00709228 0.03091813 0.03403078
v 0.00900573 0.03091813 0.03430998
v 0.00510242 0.03091813 0.03393365
v 0.01093943 0.03091813 0.03478520
v 0.02553319 0.03091813 0.03393365
v 0.02553319 0.03091813 0.04755416
v 0.02476497 0.03091813 0.04881462
v 0.02520087 0.03091813 0.05069447
v 0.02546233 0.03091813 0.05266435
v 0.02553319 0.03091813 0.05436441
v 0.02413600 0.03091813 0.04693886
v 0.02553319 0.03091813 0.04074390
v 0.02228874 0.03091813 0.04331694
v 0.02330999 0.03091813 0.04509616
v 0.02108027 0.03091813 0.04163161
v -0.00168431 0.03091813 0.05436441
v 0.01874646 0.03091813 0.03393365
v 0.02546262 -0.00301552 0.06438176
v 0.02546262 0.00037784 0.06438176
v 0.01188916 0.00037784 0.06438176
v 0.01188916 -0.00301552 0.06438176
v 0.02546262 -0.00301552 0.03063246
v 0.01188916 0.00037784 0.03063246
v 0.02546262 0.00037784 0.03063246
v 0.01188916 -0.00301552 0.03063246
v -0.03561795 0.02073803 0.03478199
v -0.03561795 0.02073803 0.03393365
v -0.03561795 0.01564798 0.03478199
v -0.03561795 0.02073803 0.03563033
v -0.03561795 0.02073803 0.03647867
v -0.03561795 0.03091813 0.03732701
v -0.03561795 0.02073803 0.03732701
v -0.03561795 0.01055794 0.03563033
v -0.03561795 0.01055794 0.03393365
v -0.03561795 0.01564798 0.03563033
v -0.03561795 0.01564798 0.03647867
v -0.03561795 0.01055794 0.03732701
v -0.01016771 -0.00301552 0.03393365
v -0.01525776 -0.00301552 0.03563033
v -0.01525776 -0.00301552 0.03393365
v -0.01016771 -0.00301552 0.03732701
v -0.01525776 -0.00301552 0.03732701
v -0.01271274 0.00334704 0.03393365
v -0.00889521 0.00122618 0.03393365
v -0.01271274 0.00122618 0.03393365
v -0.00889521 0.00546789 0.03393365
v -0.01271274 0.00546789 0.03393365
v -0.01271274 0.00758874 0.03393365
v -0.00889521 0.00970959 0.03393365
v -0.01271274 0.00970959 0.03393365
v -0.01271274 0.01183045 0.03393365
v -0.00889521 0.01395130 0.03393365
v -0.01271274 0.01395130 0.03393365
v -0.01653027 0.01607215 0.03393365
v -0.01462151 0.01395130 0.03393365
v -0.01653027 0.01395130 0.03393365
v -0.01271274 0.01819301 0.03393365
v -0.01653027 0.01819301 0.03393365
v -0.01843904 0.01819301 0.03393365
v -0.01653027 0.02243471 0.03393365
v -0.02034781 0.02243471 0.03393365
v -0.02034781 0.01819301 0.03393365
v -0.02798288 0.01819301 0.03393365
v -0.02989165 0.01607215 0.03393365
v -0.02989165 0.01819301 0.03393365
v -0.02798288 0.02243471 0.03393365
v -0.03180041 0.02243471 0.03393365
v -0.03180041 0.01819301 0.03393365
v -0.02225658 0.01819301 0.03393365
v -0.02416534 0.02243471 0.03393365
v -0.02416534 0.01819301 0.03393365
v -0.02607411 0.01819301 0.03393365
v -0.01271274 0.02243471 0.03393365
v -0.00507767 0.01960690 0.03393365
v -0.01525776 0.03091813 0.03393365
v -0.01462151 0.01183045 0.03393365
v -0.01611197 0.01169093 0.03393365
v -0.01418675 0.00857815 0.03393365
v -0.01473365 0.00969691 0.03393365
v -0.01538040 0.01073838 0.03393365
v -0.00507767 0.00829570 0.03393365
v -0.01344050 0.00617068 0.03393365
v -0.01327793 0.00241833 0.03393365
v -0.01378329 0.00004760 0.03393365
v -0.01325685 0.00491880 0.03393365
v -0.01320340 0.00366141 0.03393365
v -0.01375247 0.00739690 0.03393365
v -0.01347436 0.00120824 0.03393365
v -0.01468912 -0.00207333 0.03393365
v -0.01419278 -0.00104980 0.03393365
v -0.02543786 0.03091813 0.03393365
v -0.02034781 0.01607215 0.03393365
v -0.01843904 0.01607215 0.03393365
v -0.01959332 0.01451993 0.03393365
v -0.02287488 0.01573469 0.03393365
v -0.02532805 0.01600567 0.03393365
v -0.02171425 0.01542578 0.03393365
v -0.02225658 0.01607215 0.03393365
v -0.02408498 0.01593113 0.03393365
v -0.02658545 0.01595221 0.03393365
v -0.03180041 0.01607215 0.03393365
v -0.02906354 0.01545661 0.03393365
v -0.03335757 0.01309711 0.03393365
v -0.03024479 0.01502232 0.03393365
v -0.02061684 0.01501628 0.03393365
v -0.01691204 0.01254642 0.03393365
v -0.01776386 0.01330031 0.03393365
v -0.01865113 0.01395130 0.03393365
v -0.02783733 0.01576855 0.03393365
v -0.03136356 0.01447540 0.03393365
v -0.03240503 0.01382866 0.03393365
v -0.03421307 0.01229703 0.03393365
v -0.03496695 0.01144521 0.03393365
v -0.01271274 0.00334704 0.03732701
v -0.01271274 0.00122618 0.03732701
v -0.00889521 0.00122618 0.03732701
v -0.00889521 0.00546789 0.03732701
v -0.01271274 0.00546789 0.03732701
v -0.01271274 0.00758874 0.03732701
v -0.00889521 0.00970959 0.03732701
v -0.01271274 0.00970959 0.03732701
v -0.01271274 0.01183045 0.03732701
v -0.00889521 0.01395130 0.03732701
v -0.01271274 0.01395130 0.03732701
v -0.01653027 0.01607215 0.03732701
v -0.01653027 0.01395130 0.03732701
v -0.01462151 0.01395130 0.03732701
v -0.01271274 0.01819301 0.03732701
v -0.01653027 0.01819301 0.03732701
v -0.01843904 0.01819301 0.03732701
v -0.01653027 0.02243471 0.03732701
v -0.02034781 0.02243471 0.03732701
v -0.02034781 0.01819301 0.03732701
v -0.02798288 0.01819301 0.03732701
v -0.02989165 0.01819301 0.03732701
v -0.02989165 0.01607215 0.03732701
v -0.02798288 0.02243471 0.03732701
v -0.03180041 0.02243471 0.03732701
v -0.03180041 0.01819301 0.03732701
v -0.02225658 0.01819301 0.03732701
v -0.02416534 0.02243471 0.03732701
v -0.02416534 0.01819301 0.03732701
v -0.02607411 0.01819301 0.03732701
v -0.01271274 0.02243471 0.03732701
v -0.00507767 0.01960690 0.03732701
v -0.01525776 0.03091813 0.03732701
v -0.01462151 0.01183045 0.03732701
v -0.01611197 0.01169093 0.03732701
v -0.01418675 0.00857815 0.03732701
v -0.01473365 0.00969691 0.03732701
v -0.01538040 0.01073838 0.03732701
v -0.00507767 0.00829570 0.03732701
v -0.01344050 0.00617068 0.03732701
v -0.01327793 0.00241833 0.03732701
v -0.01378329 0.00004760 0.03732701
v -0.01325685 0.00491880 0.03732701
v -0.01320340 0.00366141 0.03732701
v -0.01375247 0.00739690 0.03732701
v -0.01347436 0.00120824 0.03732701
v -0.01468912 -0.00207333 0.03732701
v -0.01419278 -0.00104980 0.03732701
v -0.02543786 0.03091813 0.03732701
v -0.02034781 0.01607215 0.03732701
v -0.01959332 0.01451993 0.03732701
v -0.01843904 0.01607215 0.03732701
v -0.02287488 0.01573469 0.03732701
v -0.02532805 0.01600567 0.03732701
v -0.02171425 0.01542578 0.03732701
v -0.02225658 0.01607215 0.03732701
v -0.02408498 0.01593113 0.03732701
v -0.02658545 0.01595221 0.03732701
v -0.03180041 0.01607215 0.03732701
v -0.02906354 0.01545661 0.03732701
v -0.03335757 0.01309711 0.03732701
v -0.03024479 0.01502232 0.03732701
v -0.02061684 0.01501628 0.03732701
v -0.01691204 0.01254642 0.03732701
v -0.01776386 0.01330031 0.03732701
v -0.01865113 0.01395130 0.03732701
v -0.02783733 0.01576855 0.03732701
v -0.03136356 0.01447540 0.03732701
v -0.03240503 0.01382866 0.03732701
v -0.03496695 0.01144521 0.03732701
v -0.03421307 0.01229703 0.03732701
v -0.00295681 -0.03355581 0.04665877
v -0.00677435 -0.03355581 0.04665877
v -0.00677435 -0.03355581 0.05090047
v -0.00104805 -0.03355581 0.04665877
v -0.00295681 -0.03355581 0.04877962
v 0.00086072 -0.03355581 0.04665877
v 0.00086072 -0.03355581 0.04241706
v -0.00295681 -0.03355581 0.04241706
v -0.01059189 -0.03355581 0.05090047
v -0.00677435 -0.03355581 0.04241706
v -0.01440942 -0.03355581 0.04241706
v -0.01440942 -0.03355581 0.05090047
v -0.00677435 -0.03355581 0.05302133
v -0.01059189 -0.03355581 0.05514218
v -0.00677435 -0.03355581 0.05514218
v 0.00238774 -0.03355581 0.03393365
v 0.00849579 -0.03355581 0.03818464
v 0.00849579 -0.03355581 0.03393365
v 0.00849579 -0.03355581 0.04243564
v 0.00611590 -0.03355581 0.04671322
v 0.00849579 -0.03355581 0.04668663
v 0.00376256 -0.03355581 0.04706866
v 0.00218623 -0.03355581 0.04752536
v 0.00064675 -0.03355581 0.04819181
v -0.00076720 -0.03355581 0.04908606
v -0.00196690 -0.03355581 0.05022617
v 0.00849579 -0.03355581 0.06488417
v 0.00697100 -0.03355581 0.06175350
v 0.00545354 -0.03355581 0.06147640
v 0.00238774 -0.03355581 0.06786730
v 0.00396626 -0.03355581 0.06106823
v 0.00253203 -0.03355581 0.06052751
v 0.00849579 -0.03355581 0.06190105
v 0.00849579 -0.03355581 0.06786730
v -0.00295681 -0.03355581 0.06362559
v -0.00251639 -0.03355581 0.05098989
v -0.00486558 -0.03355581 0.05090047
v -0.00291711 -0.03355581 0.05178480
v 0.00115911 -0.03355581 0.05984308
v -0.00132150 -0.03355581 0.05796121
v -0.00295681 -0.03355581 0.05938389
v -0.00014847 -0.03355581 0.05898826
v -0.00229077 -0.03355581 0.05676005
v -0.00274764 -0.03355581 0.05594645
v -0.00317075 -0.03355581 0.05260288
v -0.00372032 -0.03355581 0.03393365
v -0.00982838 -0.03355581 0.03393365
v -0.00324340 -0.03355581 0.05427645
v -0.00327896 -0.03355581 0.05343610
v -0.00486558 -0.03355581 0.05302133
v -0.00486558 -0.03355581 0.05514218
v -0.01593644 -0.03355581 0.03393365
v -0.02204449 -0.03355581 0.03393365
v -0.02204449 -0.03355581 0.03958926
v -0.02204449 -0.03355581 0.04524486
v -0.00306574 -0.03355581 0.05511591
v -0.00677435 -0.03355581 0.05938389
v -0.00372032 -0.03355581 0.06786730
v -0.00677435 -0.03355581 0.06362559
v -0.01059189 -0.03355581 0.05938389
v -0.00982838 -0.03355581 0.06786730
v -0.01593644 -0.03355581 0.06786730
v -0.02204449 -0.03355581 0.06221169
v -0.02204449 -0.03355581 0.06786730
v -0.01440942 -0.03355581 0.05938389
v -0.00677435 -0.03694917 0.04665877
v -0.00677435 -0.03694917 0.05090047
v -0.01440942 -0.03694917 0.05090047
v -0.01440942 -0.03694917 0.04241706
v -0.00677435 -0.03694917 0.04241706
v -0.00677435 -0.03694917 0.05514218
v -0.00677435 -0.03694917 0.05938389
v -0.01440942 -0.03694917 0.05938389
v 0.00086072 -0.03694917 0.04877962
v 0.00086072 -0.03694917 0.05090047
v -0.00104805 -0.03694917 0.05090047
v -0.00295681 -0.03694917 0.05090047
v -0.00295681 -0.03694917 0.04665877
v 0.00086072 -0.03694917 0.04665877
v -0.00295681 -0.03694917 0.05302133
v -0.00295681 -0.03694917 0.05514218
v 0.00276949 -0.03694917 0.04665877
v 0.00086072 -0.03694917 0.04241706
v 0.00467826 -0.03694917 0.04241706
v 0.00467826 -0.03694917 0.04665877
v -0.02204449 -0.03694917 0.03958926
v -0.02204449 -0.03694917 0.03393365
v -0.01593644 -0.03694917 0.03393365
v -0.02204449 -0.03694917 0.05090047
v -0.02204449 -0.03694917 0.04524486
v -0.00982838 -0.03694917 0.03393365
v -0.00372032 -0.03694917 0.03393365
v -0.00295681 -0.03694917 0.04241706
v 0.00111225 -0.03694917 0.05216186
v 0.00206246 -0.03694917 0.05060322
v -0.00104805 -0.03694917 0.05302133
v -0.02204449 -0.03694917 0.06221169
v -0.02204449 -0.03694917 0.05655608
v -0.01593644 -0.03694917 0.06786730
v -0.02204449 -0.03694917 0.06786730
v -0.00372032 -0.03694917 0.06786730
v -0.00982838 -0.03694917 0.06786730
v -0.00295681 -0.03694917 0.05938389
v 0.00075041 -0.03694917 0.05381316
v -0.00104805 -0.03694917 0.05514218
v 0.00085862 -0.03694917 0.05297994
v 0.00078597 -0.03694917 0.05465351
v 0.00128173 -0.03694917 0.05632350
v 0.00096363 -0.03694917 0.05549297
v 0.00238774 -0.03694917 0.06786730
v 0.00467611 -0.03694917 0.04856887
v 0.00276949 -0.03694917 0.04877962
v 0.00151298 -0.03694917 0.05136695
v 0.00326216 -0.03694917 0.04946311
v 0.00238774 -0.03694917 0.03393365
v 0.00849579 -0.03694917 0.03838976
v 0.00849579 -0.03694917 0.04284588
v 0.00621560 -0.03694917 0.04790242
v 0.00779192 -0.03694917 0.04744571
v 0.00849579 -0.03694917 0.04730200
v 0.00236189 -0.03694917 0.05796041
v 0.00308497 -0.03694917 0.05870398
v 0.00173859 -0.03694917 0.05713711
v 0.00467826 -0.03694917 0.06362559
v 0.00467826 -0.03694917 0.06150474
v 0.00388352 -0.03694917 0.05936718
v 0.00473325 -0.03694917 0.05994937
v 0.00655793 -0.03694917 0.06090307
v 0.00658703 -0.03694917 0.06150474
v 0.00658703 -0.03694917 0.06362559
v 0.00849579 -0.03694917 0.06159859
v 0.00849579 -0.03694917 0.06786730
v 0.00849579 -0.03694917 0.06473294
v 0.00849579 -0.03527310 0.04688066
v 0.00577724 -0.03525249 0.04725718
v 0.00849579 -0.03526287 0.06186628
v -0.00033934 -0.03496382 0.05043612
v 0.00214578 -0.03662657 0.05006364
v -0.00009554 -0.03473903 0.04985390
v -0.00071889 -0.03465618 0.05726079
v 0.00168106 -0.03629718 0.05799400
v 0.00152243 -0.03654372 0.05747052
v 0.00266104 -0.03491862 0.05992812
v 0.00330889 -0.03406844 0.06065624
v -0.01440942 -0.03355581 0.05514218
v -0.02204449 -0.03355581 0.05090047
v -0.02204449 -0.03355581 0.05655608
v 0.00849579 -0.01998235 0.04654549
v 0.00849579 -0.01998235 0.05074943
v 0.00849579 -0.01574064 0.05074943
v 0.00849579 -0.01149894 0.05074943
v 0.00849579 -0.01149894 0.04234154
v 0.00849579 -0.01998235 0.04234154
v 0.00849579 -0.01998235 0.05705535
v 0.00849579 -0.01998235 0.05915733
v 0.00849579 -0.01574064 0.05915733
v 0.00849579 -0.01574064 0.05495338
v 0.00849579 -0.01998235 0.05495338
v 0.00849579 -0.01998235 0.05285140
v 0.00849579 -0.02422405 0.04654549
v 0.00849579 -0.02422405 0.04234154
v 0.00849579 -0.02846576 0.04234154
v 0.00849579 -0.02422405 0.05915733
v 0.00849579 -0.02210320 0.05915733
v 0.00849579 -0.02210320 0.05705535
v 0.00849579 -0.02422405 0.06336127
v 0.00849579 -0.01998235 0.06336127
v 0.00849579 -0.00867112 0.03393365
v 0.00849579 -0.00301552 0.03953891
v 0.00849579 -0.01432675 0.03393365
v 0.00849579 -0.00301552 0.05074943
v 0.00849579 -0.00301552 0.04514417
v 0.00849579 -0.02210320 0.05074943
v 0.00849579 -0.02381914 0.05238621
v 0.00849579 -0.02210320 0.05285140
v 0.00849579 -0.02408508 0.05159260
v 0.00849579 -0.02447182 0.05081824
v 0.00849579 -0.02367108 0.05319190
v 0.00849579 -0.01149894 0.05915733
v 0.00849579 -0.00301552 0.05635469
v 0.00849579 -0.01149894 0.05495338
v 0.00849579 -0.01432675 0.06756521
v 0.00849579 -0.00301552 0.06195996
v 0.00849579 -0.00867112 0.06756521
v 0.00849579 -0.00301552 0.06756521
v 0.00849579 -0.02371722 0.05481086
v 0.00849579 -0.02210320 0.05495338
v 0.00849579 -0.02363808 0.05400251
v 0.00849579 -0.02390564 0.05560980
v 0.00849579 -0.02420050 0.05639215
v 0.00849579 -0.01998235 0.06756521
v 0.00849579 -0.02496923 0.05008710
v 0.00849579 -0.02563795 0.03393365
v 0.00849579 -0.03129357 0.03393365
v 0.00849579 -0.02847236 0.04752822
v 0.00849579 -0.02555000 0.04943047
v 0.00849579 -0.02691476 0.04833661
v 0.00849579 -0.03012905 0.04699691
v 0.00849579 -0.03355982 0.04668682
v 0.00849579 -0.03183368 0.04672274
v 0.00849579 -0.03527507 0.04688102
v 0.00849579 -0.02459891 0.05715076
v 0.00849579 -0.02556818 0.05843771
v 0.00849579 -0.02676087 0.05952297
v 0.00849579 -0.02811530 0.06040345
v 0.00849579 -0.02563795 0.06756521
v 0.00849579 -0.02956968 0.06107609
v 0.00849579 -0.03129357 0.06756521
v 0.00849579 -0.03136580 0.06161238
v 0.00849579 -0.03694917 0.06458190
v 0.00849579 -0.03322090 0.06188127
v 0.00849579 -0.03694917 0.06756521
v 0.00849579 -0.03509565 0.06187984
v 0.01018600 -0.03694917 0.04708713
v 0.01188916 -0.03694917 0.03830242
v 0.01188916 -0.03694917 0.04703996
v 0.01188916 -0.03694917 0.04267119
v 0.01188916 -0.03058661 0.04654549
v 0.01188916 -0.03270747 0.04654549
v 0.01188916 -0.03270747 0.04234154
v 0.01188916 -0.02846576 0.04234154
v 0.01188916 -0.02846576 0.04654549
v 0.01188916 -0.02422405 0.04864746
v 0.01188916 -0.02422405 0.04654549
v 0.01188916 -0.01998235 0.04654549
v 0.01188916 -0.01998235 0.05074943
v 0.01188916 -0.02422405 0.05074943
v 0.01188916 -0.02634491 0.04654549
v 0.01188916 -0.02422405 0.04234154
v 0.01188916 -0.02422405 0.05705535
v 0.01188916 -0.02422405 0.05495338
v 0.01188916 -0.01998235 0.05495338
v 0.01188916 -0.01998235 0.05915733
v 0.01188916 -0.02422405 0.05915733
v 0.01188916 -0.02634491 0.05074943
v 0.01188916 -0.02422405 0.05285140
v 0.01188916 -0.01998235 0.04234154
v 0.01188916 -0.01149894 0.04234154
v 0.01188916 -0.01149894 0.05074943
v 0.01188916 -0.01149894 0.05915733
v 0.01188916 -0.03129357 0.03393365
v 0.01188916 -0.03421933 0.04709143
v 0.01188916 -0.03558581 0.04699263
v 0.01188916 -0.03287287 0.04734187
v 0.01188916 -0.03156950 0.04774945
v 0.01188916 -0.02815071 0.05002011
v 0.01188916 -0.02846576 0.04864746
v 0.01188916 -0.02634491 0.04864746
v 0.01188916 -0.03031956 0.04832828
v 0.01188916 -0.02916368 0.04908472
v 0.01188916 -0.02732956 0.05113579
v 0.01188916 -0.03058661 0.06336127
v 0.01188916 -0.03129357 0.06756521
v 0.01188916 -0.03465059 0.06201621
v 0.01188916 -0.03242742 0.06139364
v 0.01188916 -0.03352355 0.06175538
v 0.01188916 -0.03579648 0.06217539
v 0.01188916 -0.03694917 0.06489870
v 0.01188916 -0.03694917 0.06223218
v 0.01188916 -0.03694917 0.06756521
v 0.01188916 -0.03058661 0.06125929
v 0.01188916 -0.03097304 0.06072099
v 0.01188916 -0.02634491 0.05915733
v 0.01188916 -0.02846576 0.06125929
v 0.01188916 -0.02842592 0.05875525
v 0.01188916 -0.02745665 0.05746830
v 0.01188916 -0.02961864 0.05984051
v 0.01188916 -0.02422405 0.06336127
v 0.01188916 -0.02846576 0.06336127
v 0.01188916 -0.02705824 0.05670969
v 0.01188916 -0.02634491 0.05705535
v 0.01188916 -0.02667689 0.05270375
v 0.01188916 -0.02694285 0.05191015
v 0.01188916 -0.02652885 0.05350944
v 0.01188916 -0.02649582 0.05432005
v 0.01188916 -0.00867112 0.03393365
v 0.01188916 -0.01432675 0.03393365
v 0.01188916 -0.00301552 0.03953891
v 0.01188916 -0.00301552 0.05074943
v 0.01188916 -0.00301552 0.04514417
v 0.01188916 -0.02676338 0.05592734
v 0.01188916 -0.02657496 0.05512841
v 0.01188916 -0.00301552 0.06195996
v 0.01188916 -0.00301552 0.05635469
v 0.01188916 -0.01998235 0.06336127
v 0.01188916 -0.00867112 0.06756521
v 0.01188916 -0.01432675 0.06756521
v 0.01188916 -0.01998235 0.06756521
v 0.01188916 -0.00301552 0.06756521
v 0.01017725 -0.03694917 0.06199691
v 0.00974640 -0.03046012 0.06112951
v 0.01136829 -0.02872419 0.05942005
v 0.01188916 -0.02563795 0.03393365
v 0.01188916 -0.02563795 0.06756521
v -0.03231696 -0.01880656 0.03621939
v -0.02210871 -0.00986760 0.03288629
v -0.02931723 -0.00837153 0.03313937
v -0.03952549 -0.01731049 0.03647247
v -0.02622134 0.00898200 0.02048083
v -0.02666048 0.00734316 0.02048083
v -0.03321597 0.00909967 0.02048083
v -0.03277683 0.01073854 0.02048083
v -0.01966587 0.00722549 0.02048083
v -0.02010501 0.00558662 0.02048083
v -0.02578221 0.01062087 0.02048083
v -0.03233770 0.01237741 0.02048083
v -0.01922674 0.00886436 0.02048083
v -0.01954708 0.01325550 0.02048083
v -0.02124376 0.01031675 0.02048083
v -0.03299873 0.01710348 0.02048083
v -0.03130205 0.02004223 0.02048083
v 0.01835796 0.00742717 0.00297821
v 0.01682024 0.00814420 0.00297821
v 0.01968844 0.01429508 0.00297821
v 0.02122615 0.01357803 0.00297821
v 0.01548976 0.00127630 0.00297821
v 0.01395204 0.00199334 0.00297821
v 0.01989568 0.00671011 0.00297821
v 0.02276387 0.01286097 0.00297821
v 0.01702748 0.00055925 0.00297821
v -0.01186440 0.01904135 0.01458709
v -0.01345876 0.01846104 0.01458709
v -0.01577995 0.02483848 0.01458709
v -0.01418559 0.02541879 0.01458709
v -0.00954320 0.01266390 0.01458709
v -0.01113756 0.01208362 0.01458709
v -0.01027004 0.01962166 0.01458709
v -0.01259123 0.02599908 0.01458709
v -0.00794884 0.01324421 0.01458709
v -0.01333376 0.01231554 0.01708746
v -0.01627251 0.01061885 0.01708746
v -0.02305924 0.02237380 0.01708746
v -0.02012050 0.02407048 0.01708746
v -0.02543786 0.00716457 0.02440998
v -0.02543786 0.00377121 0.02440998
v -0.03901132 0.00377121 0.02440998
v -0.03901132 0.00716457 0.02440998
v -0.03251921 -0.00304131 0.03030372
v -0.03192996 -0.00638310 0.03030372
v -0.03861358 -0.00756161 0.03030372
v -0.03920283 -0.00421979 0.03030372
v -0.02583559 -0.00186280 0.03030372
v -0.02524634 -0.00520462 0.03030372
v -0.02543786 0.00377121 0.02637456
v -0.02543786 0.00037784 0.02637456
v -0.03901132 0.00037784 0.02637456
v -0.03901132 0.00377121 0.02637456
v -0.02543786 0.00037784 0.02833914
v -0.02543786 -0.00301552 0.02833914
v -0.03901132 -0.00301552 0.02833914
v -0.03901132 0.00037784 0.02833914
v -0.02752825 -0.00291003 0.03262550
v -0.02583157 -0.00584877 0.03262550
v -0.03758654 -0.01263550 0.03262550
v -0.03928322 -0.00969676 0.03262550
v 0.00399121 0.01073178 0.00870360
v 0.00062248 0.01044030 0.00898928
v -0.00057309 0.02395755 0.00868309
v 0.00279564 0.02424904 0.00839742
v -0.00155337 0.01099427 0.01065793
v -0.00493382 0.01070696 0.01065793
v -0.00611683 0.02384405 0.01065793
v -0.00273637 0.02413139 0.01065793
v -0.00168430 0.00059104 0.01346686
v -0.00168430 0.00068683 0.02157813
v -0.00168430 0.00059104 0.02354035
v -0.00168430 0.00210160 0.01588630
v -0.00168430 0.00143076 0.01778442
v -0.00168430 0.00096214 0.01969126
v -0.00168430 0.00524635 0.01065977
v -0.00168430 0.00059104 0.00339337
v -0.00168430 0.00401860 0.01229928
v -0.00168430 0.00297306 0.01403733
v -0.00168430 0.00664112 0.00914667
v -0.00168430 0.01066452 0.00339337
v -0.00168430 0.00818207 0.00778443
v -0.00168430 0.01341563 0.00477114
v -0.00168430 0.01159851 0.00558568
v -0.00168430 0.00984401 0.00659274
v -0.00168430 0.01711907 0.00372106
v -0.00168430 0.01526531 0.00415091
v -0.00168430 0.02073803 0.00339337
v -0.00168430 0.01906159 0.00346324
v -0.00507767 0.00059104 0.01346686
v -0.00507767 0.00059104 0.02354035
v -0.00507767 0.00068683 0.02157813
v -0.00507767 0.00143076 0.01778442
v -0.00507767 0.00210160 0.01588630
v -0.00507767 0.00096214 0.01969126
v -0.00507767 0.00524635 0.01065977
v -0.00507767 0.00059104 0.00339337
v -0.00507767 0.00401860 0.01229928
v -0.00507767 0.00297306 0.01403733
v -0.00507767 0.00664112 0.00914667
v -0.00507767 0.00818207 0.00778443
v -0.00507767 0.01066452 0.00339337
v -0.00507767 0.01159851 0.00558568
v -0.00507767 0.01341563 0.00477114
v -0.00507767 0.00984401 0.00659274
v -0.00507767 0.01711907 0.00372106
v -0.00507767 0.01526531 0.00415091
v -0.00507767 0.01906159 0.00346324
v -0.00507767 0.02073803 0.00339337
v 0.01682024 0.01028001 0.00476419
v 0.01374481 0.01171413 0.00476419
v 0.01661300 0.01786499 0.00476419
v 0.01968844 0.01643088 0.00476419
v 0.01395204 0.00412915 0.00476419
v 0.01087661 0.00556327 0.00476419
v 0.00961398 0.00595021 0.00574648
v 0.00642526 0.00711080 0.00574648
v 0.01106766 0.01986569 0.00574648
v 0.01425637 0.01870510 0.00574648
v 0.00553619 0.00848560 0.00672877
v 0.00234747 0.00964619 0.00672877
v 0.00698986 0.02240108 0.00672877
v 0.01017859 0.02124049 0.00672877
v -0.00507563 0.01292500 0.01262251
v -0.00835336 0.01204673 0.01262251
v -0.01186644 0.02515770 0.01262251
v -0.00858870 0.02603597 0.01262251
v -0.00507767 0.03091813 0.01346686
v -0.00507767 0.03082233 0.02157813
v -0.00507767 0.03091813 0.02354035
v -0.00507767 0.02940756 0.01588630
v -0.00507767 0.03007841 0.01778442
v -0.00507767 0.03054703 0.01969126
v -0.00507767 0.02626281 0.01065977
v -0.00507767 0.02749056 0.01229928
v -0.00507767 0.02853610 0.01403733
v -0.00507767 0.02486805 0.00914667
v -0.00507767 0.02084464 0.00339337
v -0.00507767 0.02332709 0.00778443
v -0.00507767 0.01809354 0.00477114
v -0.00507767 0.01991066 0.00558568
v -0.00507767 0.02166515 0.00659274
v -0.00507767 0.01439010 0.00372106
v -0.00507767 0.01624385 0.00415091
v -0.00507767 0.01077113 0.00339337
v -0.00507767 0.01244757 0.00346324
v -0.00168430 0.03091813 0.01346686
v -0.00168430 0.03091813 0.02354035
v -0.00168430 0.03082233 0.02157813
v -0.00168430 0.03007841 0.01778442
v -0.00168430 0.02940756 0.01588630
v -0.00168430 0.03054703 0.01969126
v -0.00168430 0.02626281 0.01065977
v -0.00168430 0.02749056 0.01229928
v -0.00168430 0.02853610 0.01403733
v -0.00168430 0.02486805 0.00914667
v -0.00168430 0.02332709 0.00778443
v -0.00168430 0.02084464 0.00339337
v -0.00168430 0.01991066 0.00558568
v -0.00168430 0.01809354 0.00477114
v -0.00168430 0.02166515 0.00659274
v -0.00168430 0.01439010 0.00372106
v -0.00168430 0.01624385 0.00415091
v -0.00168430 0.01244757 0.00346324
v -0.00168430 0.01077113 0.00339337
v 0.02885598 -0.00301552 0.03393365
v 0.02885598 0.03091813 0.03393365
v 0.02885598 -0.00301552 0.03054028
v 0.02885598 0.03091813 0.03054028
v -0.00168430 -0.00301552 0.03054028
v -0.01525776 -0.00301552 0.03030372
v -0.01525776 -0.00301552 0.03226830
v -0.02204449 -0.00301552 0.03226830
v -0.02204449 -0.00301552 0.03030372
v -0.00847103 -0.00301552 0.03030372
v -0.00847103 -0.00301552 0.03226830
v -0.02204449 -0.00301552 0.03054028
v -0.02204449 -0.03694917 0.03054028
f 1 2 3
f 1 3 4
f 5 1 4
f 5 4 6
f 7 8 9
f 7 9 10
f 11 7 10
f 11 10 12
f 13 14 15
f 13 15 16
f 17 13 16
f 17 16 18
f 19 20 21
f 19 21 22
f 23 19 22
f 23 22 24
f 25 26 27
f 25 27 28
f 29 25 28
f 29 28 30
f 25 26 27
f 25 27 28
f 29 25 28
f 29 28 30
f 19 20 21
f 19 21 22
f 23 19 22
f 23 22 24
f 25 26 27
f 25 27 28
f 29 25 28
f 29 28 30
f 19 20 21
f 19 21 22
f 23 19 22
f 23 22 24
f 25 26 27
f 25 27 28
f 29 25 28
f 29 28 30
f 19 20 21
f 19 21 22
f 23 19 22
f 23 22 24
f 31 32 33
f 31 33 34
f 35 31 34
f 35 34 36
f 1 5 37
f 1 37 38
f 2 1 38
f 2 38 39
f 29 7 11
f 29 11 2
f 17 8 7
f 17 7 29
f 40 41 14
f 40 14 13
f 42 40 13
f 42 13 17
f 42 17 18
f 42 18 43
f 19 44 29
f 19 29 20
f 23 45 44
f 23 44 19
f 25 29 46
f 25 46 47
f 26 25 47
f 26 47 48
f 25 29 46
f 25 46 47
f 26 25 47
f 26 47 48
f 19 44 29
f 19 29 20
f 23 45 44
f 23 44 19
f 25 29 46
f 25 46 47
f 26 25 47
f 26 47 48
f 19 44 29
f 19 29 20
f 23 45 44
f 23 44 19
f 25 29 46
f 25 46 47
f 26 25 47
f 26 47 48
f 19 44 29
f 19 29 20
f 23 45 44
f 23 44 19
f 49 34 33
f 49 33 50
f 51 36 34
f 51 34 49
f 38 37 52
f 38 52 53
f 39 38 53
f 39 53 54
f 2 39 54
f 2 54 3
f 29 2 3
f 29 3 30
f 17 29 30
f 17 30 18
f 2 11 12
f 2 12 3
f 8 17 18
f 8 18 9
f 40 42 43
f 40 43 55
f 41 40 55
f 41 55 56
f 20 29 30
f 20 30 21
f 44 45 57
f 44 57 58
f 29 44 58
f 29 58 30
f 45 23 24
f 45 24 57
f 46 29 30
f 46 30 59
f 26 48 60
f 26 60 27
f 47 46 59
f 47 59 61
f 48 47 61
f 48 61 60
f 47 46 59
f 47 59 61
f 48 47 61
f 48 61 60
f 26 48 60
f 26 60 27
f 46 29 30
f 46 30 59
f 45 23 24
f 45 24 57
f 44 45 57
f 44 57 58
f 29 44 58
f 29 58 30
f 20 29 30
f 20 30 21
f 47 46 59
f 47 59 61
f 48 47 61
f 48 61 60
f 26 48 60
f 26 60 27
f 46 29 30
f 46 30 59
f 45 23 24
f 45 24 57
f 44 45 57
f 44 57 58
f 29 44 58
f 29 58 30
f 20 29 30
f 20 30 21
f 47 46 59
f 47 59 61
f 48 47 61
f 48 61 60
f 26 48 60
f 26 60 27
f 46 29 30
f 46 30 59
f 45 23 24
f 45 24 57
f 44 45 57
f 44 57 58
f 29 44 58
f 29 58 30
f 20 29 30
f 20 30 21
f 62 63 51
f 62 51 49
f 64 62 49
f 64 49 50
f 4 53 52
f 4 52 6
f 3 54 53
f 3 53 4
f 30 3 12
f 30 12 10
f 18 30 10
f 18 10 9
f 55 16 15
f 55 15 56
f 43 18 16
f 43 16 55
f 22 21 30
f 22 30 58
f 24 22 58
f 24 58 57
f 28 61 59
f 28 59 30
f 27 60 61
f 27 61 28
f 28 61 59
f 28 59 30
f 27 60 61
f 27 61 28
f 22 21 30
f 22 30 58
f 24 22 58
f 24 58 57
f 28 61 59
f 28 59 30
f 27 60 61
f 27 61 28
f 22 21 30
f 22 30 58
f 24 22 58
f 24 58 57
f 28 61 59
f 28 59 30
f 27 60 61
f 27 61 28
f 22 21 30
f 22 30 58
f 24 22 58
f 24 58 57
f 62 64 32
f 62 32 31
f 63 62 31
f 63 31 35
f 65 66 67
f 65 67 68
f 69 65 68
f 69 68 70
f 71 72 73
f 71 73 74
f 75 71 74
f 75 74 76
f 71 72 73
f 71 73 74
f 75 71 74
f 75 74 76
f 71 72 73
f 71 73 74
f 75 71 74
f 75 74 76
f 71 72 73
f 71 73 74
f 75 71 74
f 75 74 76
f 77 78 79
f 77 79 80
f 81 77 80
f 81 80 82
f 83 84 85
f 83 85 86
f 87 83 86
f 87 86 88
f 89 90 91
f 89 91 92
f 93 89 92
f 93 92 94
f 95 96 97
f 95 97 98
f 99 95 98
f 99 98 100
f 95 96 97
f 95 97 98
f 99 95 98
f 99 98 100
f 95 96 97
f 95 97 98
f 99 95 98
f 99 98 100
f 95 96 97
f 95 97 98
f 99 95 98
f 99 98 100
f 101 102 103
f 101 103 104
f 105 101 104
f 105 104 106
f 107 108 109
f 107 109 110
f 111 107 110
f 111 110 112
f 68 67 94
f 68 94 92
f 70 68 92
f 70 92 91
f 90 69 70
f 90 70 91
f 74 98 97
f 74 97 76
f 73 100 98
f 73 98 74
f 96 75 76
f 96 76 97
f 96 75 76
f 96 76 97
f 74 98 97
f 74 97 76
f 73 100 98
f 73 98 74
f 96 75 76
f 96 76 97
f 74 98 97
f 74 97 76
f 73 100 98
f 73 98 74
f 96 75 76
f 96 76 97
f 74 98 97
f 74 97 76
f 73 100 98
f 73 98 74
f 102 81 82
f 102 82 103
f 80 79 106
f 80 106 104
f 82 80 104
f 82 104 103
f 108 87 88
f 108 88 109
f 86 85 112
f 86 112 110
f 88 86 110
f 88 110 109
f 65 89 93
f 65 93 66
f 69 90 89
f 69 89 65
f 66 93 94
f 66 94 67
f 71 75 96
f 71 96 95
f 72 71 95
f 72 95 99
f 72 99 100
f 72 100 73
f 72 99 100
f 72 100 73
f 71 75 96
f 71 96 95
f 72 71 95
f 72 95 99
f 72 99 100
f 72 100 73
f 71 75 96
f 71 96 95
f 72 71 95
f 72 95 99
f 72 99 100
f 72 100 73
f 71 75 96
f 71 96 95
f 72 71 95
f 72 95 99
f 78 105 106
f 78 106 79
f 77 101 105
f 77 105 78
f 81 102 101
f 81 101 77
f 84 111 112
f 84 112 85
f 83 107 111
f 83 111 84
f 87 108 107
f 87 107 83
f 113 114 115
f 113 115 116
f 113 114 115
f 113 115 116
f 113 114 115
f 113 115 116
f 113 114 115
f 113 115 116
f 117 118 106
f 117 106 79
f 63 35 119
f 63 119 120
f 82 103 121
f 82 121 122
f 123 124 32
f 123 32 64
f 125 126 127
f 125 127 128
f 42 125 128
f 42 128 17
f 37 5 6
f 37 6 52
f 129 130 5
f 129 5 37
f 94 131 130
f 94 130 129
f 132 133 37
f 132 37 5
f 134 20 29
f 134 29 135
f 113 134 135
f 113 135 114
f 136 137 23
f 136 23 45
f 76 138 137
f 76 137 136
f 139 140 141
f 139 141 142
f 100 143 140
f 100 140 139
f 139 140 141
f 139 141 142
f 100 143 140
f 100 140 139
f 136 137 23
f 136 23 45
f 76 138 137
f 76 137 136
f 134 20 29
f 134 29 135
f 113 134 135
f 113 135 114
f 139 140 141
f 139 141 142
f 100 143 140
f 100 140 139
f 136 137 23
f 136 23 45
f 76 138 137
f 76 137 136
f 134 20 29
f 134 29 135
f 113 134 135
f 113 135 114
f 139 140 141
f 139 141 142
f 100 143 140
f 100 140 139
f 136 137 23
f 136 23 45
f 76 138 137
f 76 137 136
f 134 20 29
f 134 29 135
f 113 134 135
f 113 135 114
f 32 64 50
f 32 50 33
f 144 145 146
f 144 146 147
f 79 106 145
f 79 145 144
f 148 149 119
f 148 119 35
f 122 121 149
f 122 149 148
f 150 151 152
f 150 152 153
f 85 112 151
f 85 151 150
f 154 155 32
f 154 32 124
f 156 157 155
f 156 155 154
f 128 158 8
f 128 8 17
f 127 159 158
f 127 158 128
f 130 160 132
f 130 132 5
f 131 161 160
f 131 160 130
f 134 113 116
f 134 116 162
f 20 134 162
f 20 162 163
f 137 164 165
f 137 165 23
f 138 166 164
f 138 164 137
f 167 168 141
f 167 141 140
f 169 167 140
f 169 140 143
f 167 168 141
f 167 141 140
f 169 167 140
f 169 140 143
f 137 164 165
f 137 165 23
f 138 166 164
f 138 164 137
f 134 113 116
f 134 116 162
f 20 134 162
f 20 162 163
f 167 168 141
f 167 141 140
f 169 167 140
f 169 140 143
f 137 164 165
f 137 165 23
f 138 166 164
f 138 164 137
f 134 113 116
f 134 116 162
f 20 134 162
f 20 162 163
f 167 168 141
f 167 141 140
f 169 167 140
f 169 140 143
f 137 164 165
f 137 165 23
f 138 166 164
f 138 164 137
f 134 113 116
f 134 116 162
f 20 134 162
f 20 162 163
f 170 171 146
f 170 146 145
f 118 170 145
f 118 145 106
f 149 172 120
f 149 120 119
f 121 103 172
f 121 172 149
f 173 174 152
f 173 152 151
f 175 173 151
f 175 151 112
f 155 176 64
f 155 64 32
f 157 109 176
f 157 176 155
f 177 178 8
f 177 8 158
f 179 177 158
f 179 158 159
f 161 131 94
f 161 94 67
f 160 180 133
f 160 133 132
f 161 67 180
f 161 180 160
f 162 181 46
f 162 46 163
f 116 115 181
f 116 181 162
f 164 182 183
f 164 183 165
f 166 97 182
f 166 182 164
f 184 185 168
f 184 168 167
f 73 184 167
f 73 167 169
f 184 185 168
f 184 168 167
f 73 184 167
f 73 167 169
f 164 182 183
f 164 183 165
f 166 97 182
f 166 182 164
f 162 181 46
f 162 46 163
f 116 115 181
f 116 181 162
f 184 185 168
f 184 168 167
f 73 184 167
f 73 167 169
f 164 182 183
f 164 183 165
f 166 97 182
f 166 182 164
f 162 181 46
f 162 46 163
f 116 115 181
f 116 181 162
f 184 185 168
f 184 168 167
f 73 184 167
f 73 167 169
f 164 182 183
f 164 183 165
f 166 97 182
f 166 182 164
f 162 181 46
f 162 46 163
f 116 115 181
f 116 181 162
f 186 187 171
f 186 171 170
f 117 186 170
f 117 170 118
f 172 188 63
f 172 63 120
f 103 82 188
f 103 188 172
f 189 190 174
f 189 174 173
f 191 189 173
f 191 173 175
f 176 192 123
f 176 123 64
f 109 88 192
f 109 192 176
f 125 42 178
f 125 178 177
f 126 125 177
f 126 177 179
f 178 42 17
f 178 17 8
f 126 179 159
f 126 159 127
f 180 129 37
f 180 37 133
f 67 94 129
f 67 129 180
f 14 41 56
f 14 56 15
f 29 20 163
f 29 163 46
f 135 29 46
f 135 46 181
f 114 135 181
f 114 181 115
f 138 76 97
f 138 97 166
f 23 165 183
f 23 183 45
f 182 136 45
f 182 45 183
f 97 76 136
f 97 136 182
f 168 185 142
f 168 142 141
f 184 73 100
f 184 100 139
f 185 184 139
f 185 139 142
f 73 169 143
f 73 143 100
f 73 169 143
f 73 143 100
f 184 73 100
f 184 100 139
f 185 184 139
f 185 139 142
f 168 185 142
f 168 142 141
f 182 136 45
f 182 45 183
f 97 76 136
f 97 136 182
f 23 165 183
f 23 183 45
f 138 76 97
f 138 97 166
f 135 29 46
f 135 46 181
f 114 135 181
f 114 181 115
f 29 20 163
f 29 163 46
f 73 169 143
f 73 143 100
f 184 73 100
f 184 100 139
f 185 184 139
f 185 139 142
f 168 185 142
f 168 142 141
f 182 136 45
f 182 45 183
f 97 76 136
f 97 136 182
f 23 165 183
f 23 183 45
f 138 76 97
f 138 97 166
f 135 29 46
f 135 46 181
f 114 135 181
f 114 181 115
f 29 20 163
f 29 163 46
f 73 169 143
f 73 143 100
f 184 73 100
f 184 100 139
f 185 184 139
f 185 139 142
f 168 185 142
f 168 142 141
f 182 136 45
f 182 45 183
f 97 76 136
f 97 136 182
f 23 165 183
f 23 183 45
f 138 76 97
f 138 97 166
f 135 29 46
f 135 46 181
f 114 135 181
f 114 181 115
f 29 20 163
f 29 163 46
f 63 35 36
f 63 36 51
f 186 117 79
f 186 79 144
f 187 186 144
f 187 144 147
f 171 187 147
f 171 147 146
f 188 148 35
f 188 35 63
f 82 122 148
f 82 148 188
f 189 191 85
f 189 85 150
f 190 189 150
f 190 150 153
f 192 154 124
f 192 124 123
f 88 156 154
f 88 154 192
f 88 109 157
f 88 157 156
f 193 194 195
f 196 197 198
f 196 198 199
f 196 199 194
f 193 200 201
f 193 201 202
f 203 193 195
f 196 194 193
f 200 193 203
f 196 204 197
f 205 206 207
f 205 208 209
f 206 205 209
f 210 205 207
f 211 212 213
f 211 213 214
f 211 197 204
f 211 205 212
f 205 210 212
f 214 197 211
f 215 216 217
f 218 219 220
f 218 221 219
f 218 217 221
f 215 222 223
f 215 224 222
f 225 216 215
f 218 215 217
f 223 225 215
f 218 220 226
f 227 228 229
f 227 230 231
f 229 230 227
f 232 228 227
f 233 234 235
f 233 236 234
f 233 226 220
f 233 235 227
f 227 235 232
f 236 233 220
f 201 222 224
f 201 224 202
f 203 225 223
f 203 223 200
f 200 223 222
f 200 222 201
f 194 217 216
f 194 216 195
f 198 219 221
f 198 221 199
f 199 221 217
f 199 217 194
f 195 216 225
f 195 225 203
f 197 220 219
f 197 219 198
f 213 234 236
f 213 236 214
f 210 232 235
f 210 235 212
f 212 235 234
f 212 234 213
f 206 229 228
f 206 228 207
f 208 231 230
f 208 230 209
f 209 230 229
f 209 229 206
f 207 228 232
f 207 232 210
f 214 236 220
f 214 220 197
f 205 227 231
f 205 231 208
f 205 211 233
f 205 233 227
f 211 204 226
f 211 226 233
f 204 196 218
f 204 218 226
f 196 193 215
f 196 215 218
f 193 202 224
f 193 224 215
f 237 238 239
f 240 241 242
f 240 242 243
f 240 243 238
f 237 244 245
f 237 245 246
f 247 237 239
f 240 238 237
f 244 237 247
f 240 248 241
f 249 250 251
f 249 252 253
f 250 249 253
f 254 249 251
f 255 256 257
f 255 257 258
f 255 241 248
f 255 249 256
f 249 254 256
f 258 241 255
f 259 260 261
f 262 263 264
f 262 265 263
f 262 261 265
f 259 266 267
f 259 268 266
f 269 260 259
f 262 259 261
f 267 269 259
f 262 264 270
f 271 272 273
f 271 274 275
f 273 274 271
f 276 272 271
f 277 278 279
f 277 280 278
f 277 270 264
f 277 279 271
f 271 279 276
f 280 277 264
f 245 266 268
f 245 268 246
f 247 269 267
f 247 267 244
f 244 267 266
f 244 266 245
f 238 261 260
f 238 260 239
f 242 263 265
f 242 265 243
f 243 265 261
f 243 261 238
f 239 260 269
f 239 269 247
f 241 264 263
f 241 263 242
f 257 278 280
f 257 280 258
f 254 276 279
f 254 279 256
f 256 279 278
f 256 278 257
f 250 273 272
f 250 272 251
f 252 275 274
f 252 274 253
f 253 274 273
f 253 273 250
f 251 272 276
f 251 276 254
f 258 280 264
f 258 264 241
f 249 271 275
f 249 275 252
f 249 255 277
f 249 277 271
f 255 248 270
f 255 270 277
f 248 240 262
f 248 262 270
f 240 237 259
f 240 259 262
f 237 246 268
f 237 268 259
f 281 282 283
f 284 285 286
f 284 286 287
f 284 287 282
f 281 288 289
f 281 289 290
f 291 281 283
f 284 282 281
f 288 281 291
f 284 292 285
f 293 294 295
f 293 296 297
f 294 293 297
f 298 293 295
f 299 300 301
f 299 301 302
f 299 285 292
f 299 293 300
f 293 298 300
f 302 285 299
f 303 304 305
f 306 307 308
f 306 309 307
f 306 305 309
f 303 310 311
f 303 312 310
f 313 304 303
f 306 303 305
f 311 313 303
f 306 308 314
f 315 316 317
f 315 318 319
f 317 318 315
f 320 316 315
f 321 322 323
f 321 324 322
f 321 314 308
f 321 323 315
f 315 323 320
f 324 321 308
f 289 310 312
f 289 312 290
f 291 313 311
f 291 311 288
f 288 311 310
f 288 310 289
f 282 305 304
f 282 304 283
f 286 307 309
f 286 309 287
f 287 309 305
f 287 305 282
f 283 304 313
f 283 313 291
f 285 308 307
f 285 307 286
f 301 322 324
f 301 324 302
f 298 320 323
f 298 323 300
f 300 323 322
f 300 322 301
f 294 317 316
f 294 316 295
f 296 319 318
f 296 318 297
f 297 318 317
f 297 317 294
f 295 316 320
f 295 320 298
f 302 324 308
f 302 308 285
f 296 293 315
f 296 315 319
f 293 299 321
f 293 321 315
f 299 292 314
f 299 314 321
f 292 284 306
f 292 306 314
f 284 281 303
f 284 303 306
f 281 290 312
f 281 312 303
f 237 238 239
f 240 241 242
f 240 242 243
f 240 243 238
f 237 244 245
f 237 245 246
f 247 237 239
f 240 238 237
f 244 237 247
f 240 248 241
f 249 250 251
f 249 252 253
f 250 249 253
f 254 249 251
f 255 256 257
f 255 257 258
f 255 241 248
f 255 249 256
f 249 254 256
f 258 241 255
f 259 260 261
f 262 263 264
f 262 265 263
f 262 261 265
f 259 266 267
f 259 268 266
f 269 260 259
f 262 259 261
f 267 269 259
f 262 264 270
f 271 272 273
f 271 274 275
f 273 274 271
f 276 272 271
f 277 278 279
f 277 280 278
f 277 270 264
f 277 279 271
f 271 279 276
f 280 277 264
f 245 266 268
f 245 268 246
f 247 269 267
f 247 267 244
f 244 267 266
f 244 266 245
f 238 261 260
f 238 260 239
f 242 263 265
f 242 265 243
f 243 265 261
f 243 261 238
f 239 260 269
f 239 269 247
f 241 264 263
f 241 263 242
f 257 278 280
f 257 280 258
f 254 276 279
f 254 279 256
f 256 279 278
f 256 278 257
f 250 273 272
f 250 272 251
f 252 275 274
f 252 274 253
f 253 274 273
f 253 273 250
f 251 272 276
f 251 276 254
f 258 280 264
f 258 264 241
f 249 271 275
f 249 275 252
f 249 255 277
f 249 277 271
f 255 248 270
f 255 270 277
f 248 240 262
f 248 262 270
f 240 237 259
f 240 259 262
f 237 246 268
f 237 268 259
f 325 326 327
f 328 329 330
f 328 330 331
f 328 331 326
f 325 332 333
f 325 333 334
f 335 325 327
f 328 326 325
f 332 325 335
f 328 336 329
f 337 338 339
f 337 340 341
f 338 337 341
f 342 337 339
f 343 344 345
f 343 345 346
f 343 329 336
f 343 337 344
f 337 342 344
f 346 329 343
f 347 348 349
f 350 351 352
f 350 353 351
f 350 349 353
f 347 354 355
f 347 356 354
f 357 348 347
f 350 347 349
f 355 357 347
f 350 352 358
f 359 360 361
f 359 362 363
f 361 362 359
f 364 360 359
f 365 366 367
f 365 368 366
f 365 358 352
f 365 367 359
f 359 367 364
f 368 365 352
f 333 354 356
f 333 356 334
f 335 357 355
f 335 355 332
f 332 355 354
f 332 354 333
f 326 349 348
f 326 348 327
f 330 351 353
f 330 353 331
f 331 353 349
f 331 349 326
f 327 348 357
f 327 357 335
f 329 352 351
f 329 351 330
f 345 366 368
f 345 368 346
f 342 364 367
f 342 367 344
f 344 367 366
f 344 366 345
f 338 361 360
f 338 360 339
f 340 363 362
f 340 362 341
f 341 362 361
f 341 361 338
f 339 360 364
f 339 364 342
f 346 368 352
f 346 352 329
f 340 337 359
f 340 359 363
f 365 359 337
f 365 337 343
f 343 336 358
f 343 358 365
f 336 328 350
f 336 350 358
f 347 350 328
f 347 328 325
f 325 334 356
f 325 356 347
f 369 370 371
f 372 373 374
f 372 374 375
f 372 375 370
f 369 376 377
f 369 377 378
f 379 369 371
f 372 370 369
f 376 369 379
f 372 380 373
f 381 382 383
f 381 384 385
f 382 381 385
f 386 381 383
f 387 388 389
f 387 389 390
f 387 373 380
f 387 381 388
f 381 386 388
f 390 373 387
f 391 392 393
f 394 395 396
f 394 397 395
f 394 393 397
f 391 398 399
f 391 400 398
f 401 392 391
f 394 391 393
f 399 401 391
f 394 396 402
f 403 404 405
f 403 406 407
f 405 406 403
f 408 404 403
f 409 410 411
f 409 412 410
f 409 402 396
f 409 411 403
f 403 411 408
f 412 409 396
f 377 398 400
f 377 400 378
f 379 401 399
f 379 399 376
f 376 399 398
f 376 398 377
f 370 393 392
f 370 392 371
f 374 395 397
f 374 397 375
f 375 397 393
f 375 393 370
f 371 392 401
f 371 401 379
f 373 396 395
f 373 395 374
f 389 410 412
f 389 412 390
f 386 408 411
f 386 411 388
f 388 411 410
f 388 410 389
f 382 405 404
f 382 404 383
f 384 407 406
f 384 406 385
f 385 406 405
f 385 405 382
f 383 404 408
f 383 408 386
f 390 412 396
f 390 396 373
f 381 403 407
f 381 407 384
f 409 403 381
f 409 381 387
f 387 380 402
f 387 402 409
f 380 372 394
f 380 394 402
f 372 369 391
f 372 391 394
f 369 378 400
f 369 400 391
f 413 122 121
f 413 121 208
f 122 413 208
f 122 208 121
f 414 187 171
f 414 171 202
f 187 414 202
f 187 202 171
f 415 416 417
f 417 418 415
f 419 420 421
f 420 419 422
f 416 415 419
f 416 419 421
f 415 418 422
f 415 422 419
f 418 417 420
f 418 420 422
f 417 416 421
f 417 421 420
f 423 93 424
f 425 423 424
f 426 93 423
f 427 428 426
f 93 426 428
f 429 428 427
f 430 425 431
f 424 431 425
f 432 425 430
f 429 427 433
f 429 433 434
f 430 433 432
f 433 430 434
f 435 436 437
f 438 439 436
f 436 435 438
f 440 441 442
f 443 440 444
f 441 440 443
f 445 443 444
f 446 445 447
f 443 445 446
f 448 446 447
f 449 448 450
f 446 448 449
f 451 452 453
f 452 454 450
f 454 451 455
f 451 454 452
f 456 457 455
f 458 456 459
f 457 456 458
f 460 461 462
f 462 463 460
f 464 462 465
f 463 462 464
f 466 458 459
f 467 466 468
f 458 466 467
f 469 467 468
f 463 469 460
f 467 469 463
f 470 51 471
f 471 454 470
f 470 472 51
f 449 454 471
f 473 448 447
f 450 454 449
f 457 458 472
f 453 452 474
f 475 476 447
f 476 473 447
f 473 476 477
f 473 477 474
f 474 452 473
f 457 472 470
f 475 447 445
f 441 443 478
f 443 446 478
f 479 445 444
f 435 441 50
f 478 50 441
f 435 442 441
f 480 440 442
f 481 442 435
f 440 482 444
f 440 483 482
f 445 479 484
f 479 444 482
f 440 480 483
f 442 481 485
f 435 437 486
f 435 486 487
f 435 487 481
f 442 485 480
f 484 475 445
f 458 467 488
f 488 472 458
f 489 490 491
f 466 492 468
f 468 493 469
f 494 495 489
f 495 492 466
f 496 493 468
f 463 488 467
f 451 453 490
f 464 488 463
f 464 424 93
f 464 93 488
f 424 464 465
f 460 469 497
f 424 465 498
f 461 460 499
f 493 497 469
f 498 500 424
f 498 461 501
f 502 489 491
f 468 492 496
f 492 495 494
f 474 503 453
f 504 453 503
f 453 504 505
f 490 453 505
f 490 505 491
f 494 489 502
f 460 497 506
f 461 499 501
f 498 501 507
f 499 460 506
f 498 508 500
f 424 509 510
f 424 510 431
f 509 424 500
f 508 498 507
f 511 512 513
f 514 515 511
f 513 514 511
f 516 515 514
f 517 518 516
f 514 517 516
f 519 518 517
f 520 521 519
f 517 520 519
f 522 523 524
f 524 521 525
f 525 526 522
f 522 524 525
f 527 526 528
f 529 530 527
f 528 529 527
f 531 532 533
f 532 531 534
f 535 536 532
f 534 535 532
f 537 530 529
f 538 539 537
f 529 538 537
f 540 539 538
f 534 531 540
f 538 534 540
f 541 542 63
f 542 541 525
f 541 63 543
f 520 542 525
f 544 518 519
f 521 520 525
f 528 543 529
f 523 545 524
f 546 518 547
f 547 518 544
f 544 548 547
f 544 545 548
f 545 544 524
f 528 541 543
f 546 516 518
f 513 549 514
f 514 549 517
f 550 515 516
f 438 64 513
f 549 513 64
f 438 513 512
f 551 512 511
f 552 438 512
f 511 515 553
f 511 553 554
f 516 555 550
f 550 553 515
f 511 554 551
f 512 556 552
f 438 557 439
f 438 558 557
f 438 552 558
f 512 551 556
f 555 516 546
f 529 559 538
f 559 529 543
f 560 561 562
f 537 539 563
f 539 540 564
f 565 560 566
f 566 537 563
f 567 539 564
f 534 538 559
f 522 562 523
f 535 534 559
f 535 428 429
f 535 559 428
f 429 536 535
f 531 568 540
f 429 569 536
f 533 570 531
f 564 540 568
f 569 429 571
f 569 572 533
f 573 561 560
f 539 567 563
f 563 565 566
f 545 523 574
f 575 574 523
f 523 576 575
f 562 576 523
f 562 561 576
f 565 573 560
f 531 577 568
f 533 572 570
f 569 578 572
f 570 577 531
f 569 571 579
f 429 580 581
f 429 434 580
f 581 571 429
f 579 578 569
f 430 580 434
f 510 580 430
f 430 431 510
f 436 439 557
f 436 486 437
f 557 486 436
f 472 543 63
f 472 63 51
f 543 472 488
f 543 488 559
f 93 428 559
f 93 559 488
f 433 427 426
f 433 426 432
f 432 426 423
f 432 423 425
f 435 50 64
f 435 64 438
f 478 549 64
f 478 64 50
f 549 478 471
f 549 471 542
f 51 63 542
f 51 542 471
f 473 452 450
f 473 450 448
f 490 456 455
f 490 455 451
f 489 459 456
f 489 456 490
f 455 457 470
f 455 470 454
f 498 465 462
f 498 462 461
f 495 466 459
f 495 459 489
f 478 446 449
f 478 449 471
f 544 519 521
f 544 521 524
f 562 522 526
f 562 526 527
f 560 562 527
f 560 527 530
f 526 525 541
f 526 541 528
f 569 533 532
f 569 532 536
f 566 560 530
f 566 530 537
f 549 542 520
f 549 520 517
f 580 510 509
f 580 509 581
f 571 500 508
f 571 508 579
f 581 509 500
f 581 500 571
f 579 508 507
f 579 507 578
f 578 507 501
f 578 501 572
f 572 501 499
f 572 499 570
f 577 506 497
f 577 497 568
f 570 499 506
f 570 506 577
f 564 493 496
f 564 496 567
f 563 492 494
f 563 494 565
f 565 494 502
f 565 502 573
f 567 496 492
f 567 492 563
f 568 497 493
f 568 493 564
f 573 502 491
f 573 491 561
f 505 576 561
f 505 561 491
f 576 505 504
f 576 504 575
f 574 503 474
f 574 474 545
f 575 504 503
f 575 503 574
f 548 477 476
f 548 476 547
f 546 475 484
f 546 484 555
f 547 476 475
f 547 475 546
f 545 474 477
f 545 477 548
f 550 479 482
f 550 482 553
f 554 483 480
f 554 480 551
f 553 482 483
f 553 483 554
f 556 485 481
f 556 481 552
f 558 487 486
f 558 486 557
f 552 481 487
f 552 487 558
f 551 480 485
f 551 485 556
f 555 484 479
f 555 479 550
f 582 583 584
f 585 582 586
f 585 587 588
f 589 582 585
f 588 589 585
f 590 584 583
f 583 591 592
f 592 593 590
f 590 583 592
f 594 584 590
f 595 596 594
f 590 595 594
f 597 598 599
f 600 588 601
f 600 598 588
f 600 601 602
f 603 587 604
f 588 603 601
f 598 597 588
f 603 588 587
f 605 587 585
f 606 605 585
f 585 586 606
f 584 586 582
f 607 606 586
f 604 587 605
f 608 609 610
f 611 612 613
f 611 610 612
f 608 614 609
f 608 611 615
f 608 610 611
f 616 611 613
f 586 617 607
f 618 619 617
f 620 616 613
f 621 622 623
f 623 616 620
f 622 621 624
f 625 622 624
f 618 617 586
f 626 619 618
f 586 584 618
f 591 627 628
f 629 630 631
f 626 631 630
f 631 626 618
f 631 632 629
f 633 634 635
f 635 592 633
f 636 592 635
f 622 625 632
f 637 632 625
f 638 622 632
f 629 632 637
f 596 638 632
f 611 616 639
f 640 639 616
f 641 640 638
f 642 639 640
f 623 622 616
f 643 644 645
f 643 646 644
f 640 641 642
f 591 589 627
f 647 648 649
f 650 651 647
f 649 650 647
f 652 653 654
f 649 648 652
f 654 649 652
f 655 656 657
f 657 658 659
f 659 660 655
f 655 657 659
f 661 662 652
f 648 658 661
f 652 648 661
f 663 660 664
f 665 666 663
f 664 665 663
f 667 668 669
f 650 667 669
f 649 670 671
f 671 650 649
f 650 671 667
f 650 669 672
f 650 672 651
f 673 651 672
f 651 673 674
f 657 656 675
f 676 656 655
f 657 675 677
f 654 678 679
f 680 678 654
f 678 680 681
f 653 682 683
f 682 653 684
f 685 686 677
f 687 685 677
f 675 687 677
f 688 686 685
f 686 684 662
f 689 684 686
f 688 690 686
f 691 682 684
f 686 690 689
f 692 663 666
f 693 663 692
f 694 656 676
f 676 693 695
f 692 695 693
f 655 693 676
f 675 656 694
f 665 696 697
f 99 697 696
f 665 697 698
f 666 665 698
f 692 666 699
f 700 699 666
f 698 700 666
f 700 698 701
f 702 703 684
f 704 702 684
f 705 691 684
f 684 703 706
f 703 707 706
f 708 706 707
f 705 684 706
f 689 704 684
f 706 709 710
f 711 710 712
f 709 712 710
f 713 705 711
f 711 714 713
f 714 711 712
f 691 705 713
f 709 706 708
f 665 664 696
f 715 701 698
f 698 697 715
f 697 598 715
f 602 715 600
f 598 600 715
f 601 715 602
f 701 715 601
f 716 700 701
f 716 601 603
f 701 601 716
f 717 714 712
f 608 717 614
f 717 608 714
f 718 719 720
f 721 722 723
f 604 699 716
f 716 699 700
f 692 605 695
f 604 692 699
f 676 695 719
f 719 695 720
f 719 718 676
f 619 687 675
f 629 637 688
f 694 676 718
f 675 694 617
f 603 604 716
f 720 695 606
f 604 605 692
f 695 605 606
f 607 720 606
f 607 718 720
f 617 694 718
f 617 619 675
f 607 617 718
f 619 626 687
f 630 685 626
f 630 629 685
f 629 688 685
f 626 685 687
f 637 690 688
f 709 708 724
f 708 707 724
f 703 702 722
f 702 704 723
f 724 703 722
f 717 712 610
f 614 717 609
f 612 610 712
f 609 717 610
f 709 612 712
f 709 725 612
f 689 624 704
f 690 637 625
f 624 689 625
f 624 621 721
f 689 690 625
f 623 722 621
f 623 724 722
f 709 724 725
f 613 725 724
f 707 703 724
f 620 724 623
f 620 613 724
f 613 612 725
f 721 621 722
f 722 702 723
f 583 582 589
f 583 589 591
f 596 632 631
f 596 631 594
f 594 631 618
f 594 618 584
f 640 616 622
f 640 622 638
f 646 641 595
f 646 595 726
f 641 638 596
f 641 596 595
f 726 595 590
f 726 590 593
f 589 588 597
f 589 597 627
f 628 633 592
f 628 592 591
f 593 592 636
f 593 636 727
f 726 593 727
f 726 727 728
f 728 644 646
f 728 646 726
f 641 646 643
f 641 643 642
f 635 634 668
f 635 668 667
f 636 635 667
f 636 667 671
f 728 727 670
f 728 670 679
f 645 644 678
f 645 678 681
f 644 728 679
f 644 679 678
f 727 636 671
f 727 671 670
f 658 648 647
f 658 647 659
f 659 647 651
f 659 651 674
f 660 659 674
f 660 674 664
f 684 653 652
f 684 652 662
f 686 662 661
f 686 661 677
f 677 661 658
f 677 658 657
f 693 655 660
f 693 660 663
f 711 705 706
f 711 706 710
f 679 670 649
f 679 649 654
f 664 674 673
f 664 673 696
f 654 653 683
f 654 683 680
f 697 99 599
f 697 599 598
f 597 599 99
f 597 99 696
f 597 696 673
f 597 673 627
f 672 628 627
f 672 627 673
f 628 672 669
f 628 669 633
f 633 669 668
f 633 668 634
f 611 691 713
f 611 713 615
f 611 639 682
f 611 682 691
f 683 682 639
f 683 639 642
f 642 643 680
f 642 680 683
f 643 645 681
f 643 681 680
f 713 714 608
f 713 608 615
f 624 721 723
f 624 723 704
f 729 730 731
f 731 732 733
f 733 734 729
f 729 731 733
f 735 736 737
f 738 739 735
f 737 738 735
f 740 739 738
f 731 730 740
f 738 731 740
f 741 742 743
f 744 745 746
f 745 744 747
f 748 736 745
f 747 748 745
f 749 750 96
f 733 750 749
f 751 733 749
f 732 752 753
f 753 733 732
f 733 753 750
f 754 730 729
f 741 754 729
f 755 756 754
f 754 757 755
f 758 757 754
f 759 756 755
f 760 761 762
f 763 760 737
f 764 761 760
f 765 766 764
f 760 765 764
f 765 760 763
f 763 737 748
f 767 768 769
f 769 768 756
f 770 768 767
f 737 736 748
f 768 770 746
f 746 770 771
f 763 748 772
f 756 759 769
f 773 754 741
f 742 774 743
f 775 743 774
f 776 741 743
f 741 777 773
f 741 776 778
f 778 777 741
f 776 743 779
f 754 773 758
f 697 775 99
f 697 698 743
f 743 698 780
f 781 779 743
f 698 782 780
f 698 701 782
f 781 743 780
f 697 743 775
f 744 783 784
f 746 783 744
f 785 747 744
f 785 786 747
f 787 747 788
f 785 744 784
f 783 746 771
f 787 788 789
f 789 788 790
f 791 789 792
f 790 792 789
f 789 791 793
f 712 791 794
f 794 791 792
f 786 788 747
f 795 701 698
f 698 697 795
f 697 796 795
f 797 795 798
f 796 798 795
f 799 800 801
f 802 803 799
f 801 802 799
f 804 805 806
f 807 808 804
f 806 807 804
f 809 803 802
f 810 805 809
f 802 810 809
f 811 812 813
f 814 815 811
f 813 814 811
f 816 808 817
f 817 808 807
f 813 812 817
f 807 813 817
f 806 818 819
f 820 807 806
f 819 820 806
f 813 807 820
f 821 814 813
f 820 821 813
f 822 801 796
f 823 798 801
f 796 801 798
f 822 796 72
f 824 797 798
f 825 823 800
f 798 823 824
f 826 825 800
f 801 800 823
f 800 799 826
f 827 828 829
f 830 799 803
f 830 826 799
f 827 831 828
f 830 828 831
f 827 816 832
f 830 803 828
f 802 801 822
f 833 834 835
f 836 833 837
f 837 833 835
f 838 839 840
f 841 839 834
f 835 839 838
f 834 839 835
f 842 836 843
f 844 845 846
f 847 844 846
f 836 842 833
f 846 845 848
f 845 849 850
f 848 845 842
f 842 843 848
f 834 833 850
f 851 852 847
f 829 816 827
f 816 853 854
f 855 853 817
f 816 817 853
f 817 856 855
f 854 832 816
f 857 819 858
f 857 75 859
f 859 819 857
f 860 820 861
f 819 861 820
f 861 819 859
f 812 862 863
f 863 856 812
f 812 856 817
f 811 862 812
f 852 844 847
f 815 849 844
f 811 852 862
f 849 845 844
f 852 851 862
f 864 821 865
f 821 866 814
f 864 867 821
f 868 869 866
f 821 868 866
f 867 868 821
f 867 864 870
f 871 791 712
f 839 871 840
f 871 839 791
f 840 871 794
f 838 840 792
f 871 712 794
f 840 794 792
f 792 835 838
f 872 836 837
f 837 835 790
f 848 843 872
f 836 872 843
f 848 872 873
f 846 848 873
f 792 790 835
f 872 837 788
f 788 837 790
f 785 873 786
f 847 846 784
f 784 846 873
f 788 786 872
f 872 786 873
f 873 785 784
f 784 783 847
f 770 863 862
f 771 862 851
f 771 851 783
f 862 771 770
f 863 770 767
f 767 856 863
f 847 783 851
f 781 823 825
f 825 826 779
f 827 832 773
f 830 831 778
f 831 827 777
f 776 826 830
f 797 824 780
f 795 797 782
f 824 781 780
f 795 782 701
f 782 797 780
f 823 781 824
f 825 779 781
f 757 853 755
f 759 855 769
f 856 769 855
f 855 759 755
f 755 853 855
f 757 854 853
f 767 769 856
f 778 831 777
f 773 777 827
f 757 758 854
f 758 832 854
f 758 773 832
f 778 776 830
f 776 779 826
f 859 75 96
f 859 96 750
f 861 859 750
f 861 750 753
f 865 860 752
f 865 752 761
f 870 864 764
f 870 764 766
f 864 865 761
f 864 761 764
f 860 861 753
f 860 753 752
f 737 760 762
f 737 762 738
f 738 762 732
f 738 732 731
f 741 729 734
f 741 734 742
f 745 736 735
f 745 735 746
f 746 735 739
f 746 739 768
f 768 739 740
f 768 740 756
f 756 740 730
f 756 730 754
f 732 762 761
f 732 761 752
f 734 733 751
f 734 751 95
f 742 734 95
f 742 95 774
f 748 747 787
f 748 787 772
f 697 99 72
f 697 72 796
f 850 833 842
f 850 842 845
f 808 816 829
f 808 829 804
f 829 828 803
f 829 803 809
f 804 829 809
f 804 809 805
f 806 805 810
f 806 810 818
f 815 844 852
f 815 852 811
f 866 849 815
f 866 815 814
f 822 874 810
f 822 810 802
f 875 834 850
f 875 850 849
f 874 71 818
f 874 818 810
f 819 818 71
f 819 71 858
f 860 865 821
f 860 821 820
f 849 866 869
f 849 869 875
f 857 749 96
f 857 96 75
f 858 751 749
f 858 749 857
f 874 774 95
f 874 95 71
f 72 99 775
f 72 775 822
f 822 775 774
f 822 774 874
f 71 95 751
f 71 751 858
f 867 870 766
f 867 766 765
f 868 867 765
f 868 765 763
f 875 869 772
f 875 772 787
f 841 834 789
f 841 789 793
f 834 875 787
f 834 787 789
f 869 868 763
f 869 763 772
f 793 791 839
f 793 839 841
f 876 877 878
f 876 878 879
f 877 876 879
f 877 879 878
f 880 881 882
f 880 882 883
f 884 885 881
f 884 881 880
f 886 880 883
f 886 883 887
f 888 884 880
f 888 880 886
f 889 890 891
f 889 891 892
f 893 894 895
f 893 895 896
f 897 898 894
f 897 894 893
f 899 893 896
f 899 896 900
f 901 897 893
f 901 893 899
f 902 903 904
f 902 904 905
f 906 907 903
f 906 903 902
f 908 902 905
f 908 905 909
f 910 906 902
f 910 902 908
f 911 912 913
f 911 913 914
f 915 916 917
f 915 917 918
f 919 920 921
f 919 921 922
f 923 924 920
f 923 920 919
f 925 926 927
f 925 927 928
f 929 930 931
f 929 931 932
f 933 934 935
f 933 935 936
f 937 938 939
f 937 939 940
f 941 942 943
f 941 943 944
f 945 946 947
f 945 948 949
f 945 949 950
f 945 950 946
f 951 945 952
f 945 951 953
f 945 953 954
f 954 948 945
f 955 951 952
f 952 956 957
f 956 958 959
f 956 959 960
f 956 960 957
f 961 962 956
f 958 956 962
f 956 963 964
f 956 964 961
f 955 952 957
f 965 966 967
f 965 968 969
f 965 970 968
f 965 967 970
f 971 972 965
f 965 973 971
f 965 974 973
f 974 965 969
f 975 972 971
f 972 976 977
f 977 978 979
f 977 980 978
f 977 976 980
f 981 977 982
f 979 982 977
f 977 983 984
f 977 981 983
f 975 976 972
f 963 956 977
f 963 977 984
f 972 977 956
f 972 956 952
f 972 952 945
f 972 945 965
f 947 966 965
f 947 965 945
f 946 967 966
f 946 966 947
f 949 968 970
f 949 970 950
f 950 970 967
f 950 967 946
f 954 974 969
f 954 969 948
f 951 971 973
f 951 973 953
f 953 973 974
f 953 974 954
f 948 969 968
f 948 968 949
f 955 975 971
f 955 971 951
f 960 980 976
f 960 976 957
f 958 979 978
f 958 978 959
f 959 978 980
f 959 980 960
f 961 981 982
f 961 982 962
f 963 984 983
f 963 983 964
f 964 983 981
f 964 981 961
f 962 982 979
f 962 979 958
f 957 976 975
f 957 975 955
f 985 986 987
f 985 987 988
f 989 990 986
f 989 986 985
f 991 992 993
f 991 993 994
f 995 996 997
f 995 997 998
f 999 1000 1001
f 999 1001 1002
f 1003 1004 1005
f 1003 1006 1007
f 1003 1007 1008
f 1003 1008 1004
f 1009 1003 14
f 1003 1009 1010
f 1003 1010 1011
f 1011 1006 1003
f 1012 1009 14
f 14 1013 1014
f 1013 1015 1016
f 1013 1016 1017
f 1013 1017 1014
f 1018 1019 1013
f 1015 1013 1019
f 1013 1020 1021
f 1013 1021 1018
f 1012 14 1014
f 1022 1023 1024
f 1022 1025 1026
f 1022 1027 1025
f 1022 1024 1027
f 1028 41 1022
f 1022 1029 1028
f 1022 1030 1029
f 1030 1022 1026
f 1031 41 1028
f 41 1032 1033
f 1033 1034 1035
f 1033 1036 1034
f 1033 1032 1036
f 1037 1033 1038
f 1035 1038 1033
f 1033 1039 1040
f 1033 1037 1039
f 1031 1032 41
f 1020 1013 1033
f 1020 1033 1040
f 41 1033 1013
f 41 1013 14
f 41 14 1003
f 41 1003 1022
f 1005 1023 1022
f 1005 1022 1003
f 1004 1024 1023
f 1004 1023 1005
f 1007 1025 1027
f 1007 1027 1008
f 1008 1027 1024
f 1008 1024 1004
f 1011 1030 1026
f 1011 1026 1006
f 1009 1028 1029
f 1009 1029 1010
f 1010 1029 1030
f 1010 1030 1011
f 1006 1026 1025
f 1006 1025 1007
f 1012 1031 1028
f 1012 1028 1009
f 1017 1036 1032
f 1017 1032 1014
f 1015 1035 1034
f 1015 1034 1016
f 1016 1034 1036
f 1016 1036 1017
f 1018 1037 1038
f 1018 1038 1019
f 1020 1040 1039
f 1020 1039 1021
f 1021 1039 1037
f 1021 1037 1018
f 1019 1038 1035
f 1019 1035 1015
f 1014 1032 1031
f 1014 1031 1012
f 1041 1042 90
f 90 126 1041
f 1043 91 1044
f 91 1043 1045
f 1042 1041 1043
f 1042 1043 1044
f 1041 126 1045
f 1041 1045 1043
f 126 90 91
f 126 91 1045
f 90 1042 1044
f 90 1044 91
f 1046 1047 1048
f 1046 1048 1049
f 1050 1051 1047
f 1050 1047 1046
f 99 96 115
f 115 668 99
f 100 1052 97
f 1052 100 1053
f 96 99 100
f 96 100 97
f 99 668 1053
f 99 1053 100
f 668 115 1052
f 668 1052 1053
f 115 96 97
f 115 97 1052
f 43 18 17
f 17 42 43
f 3 54 39
f 39 2 3
f 3 12 11
f 11 2 3
f 9 18 17
f 17 8 9
f 21 30 29
f 29 20 21
f 57 24 23
f 23 45 57
f 59 30 29
f 29 46 59
f 27 60 48
f 48 26 27
f 27 60 48
f 48 26 27
f 59 30 29
f 29 46 59
f 57 24 23
f 23 45 57
f 21 30 29
f 29 20 21
f 27 60 48
f 48 26 27
f 59 30 29
f 29 46 59
f 57 24 23
f 23 45 57
f 21 30 29
f 29 20 21
f 27 60 48
f 48 26 27
f 59 30 29
f 29 46 59
f 57 24 23
f 23 45 57
f 21 30 29
f 29 20 21
f 91 70 69
f 69 90 91
f 97 76 75
f 75 96 97
f 97 76 75
f 75 96 97
f 97 76 75
f 75 96 97
f 97 76 75
f 75 96 97
f 103 82 81
f 81 102 103
f 109 88 87
f 87 108 109
f 67 94 93
f 93 66 67
f 73 100 99
f 99 72 73
f 73 100 99
f 99 72 73
f 73 100 99
f 99 72 73
f 73 100 99
f 99 72 73
f 79 106 105
f 105 78 79
f 85 112 111
f 111 84 85
f 116 115 114
f 114 113 116
f 116 115 114
f 114 113 116
f 116 115 114
f 114 113 116
f 116 115 114
f 114 113 116
f 79 106 118
f 118 117 79
f 120 119 35
f 35 63 120
f 122 121 103
f 103 82 122
f 64 32 124
f 124 123 64
f 52 6 5
f 5 37 52
f 5 37 133
f 133 132 5
f 33 50 64
f 64 32 33
f 67 94 131
f 131 161 67
f 8 17 42
f 42 178 8
f 127 159 179
f 179 126 127
f 15 56 41
f 41 14 15
f 46 163 20
f 20 29 46
f 166 97 76
f 76 138 166
f 45 183 165
f 165 23 45
f 141 142 185
f 185 168 141
f 100 143 169
f 169 73 100
f 100 143 169
f 169 73 100
f 141 142 185
f 185 168 141
f 45 183 165
f 165 23 45
f 166 97 76
f 76 138 166
f 46 163 20
f 20 29 46
f 100 143 169
f 169 73 100
f 141 142 185
f 185 168 141
f 45 183 165
f 165 23 45
f 166 97 76
f 76 138 166
f 46 163 20
f 20 29 46
f 100 143 169
f 169 73 100
f 141 142 185
f 185 168 141
f 45 183 165
f 165 23 45
f 166 97 76
f 76 138 166
f 46 163 20
f 20 29 46
f 51 36 35
f 35 63 51
f 146 147 187
f 187 171 146
f 156 157 109
f 109 88 156
f 208 121 122
f 122 413 208
f 121 208 413
f 413 122 121
f 202 171 187
f 187 414 202
f 171 202 414
f 414 187 171
f 418 417 416
f 416 415 418
f 421 420 422
f 422 419 421
f 421 419 415
f 415 416 421
f 419 422 418
f 418 415 419
f 422 420 417
f 417 418 422
f 420 421 416
f 416 417 420
f 879 878 877
f 877 876 879
f 878 879 876
f 876 877 878
f 892 891 890
f 890 889 892
f 914 913 912
f 912 911 914
f 918 917 916
f 916 915 918
f 928 927 926
f 926 925 928
f 932 931 930
f 930 929 932
f 936 935 934
f 934 933 936
f 940 939 938
f 938 937 940
f 944 943 942
f 942 941 944
f 994 993 992
f 992 991 994
f 998 997 996
f 996 995 998
f 1002 1001 1000
f 1000 999 1002
f 126 90 1042
f 1042 1041 126
f 1044 91 1045
f 1045 1043 1044
f 1044 1043 1041
f 1041 1042 1044
f 1043 1045 126
f 126 1041 1043
f 1045 91 90
f 90 126 1045
f 91 1044 1042
f 1042 90 91
f 668 115 96
f 96 99 668
f 97 1052 1053
f 1053 100 97
f 97 100 99
f 99 96 97
f 100 1053 668
f 668 99 100
f 1053 1052 115
f 115 668 1053
f 1052 97 96
f 96 115 1052