# https://github.com/mikedh/trimesh
v 0.05096466 -0.02053462 0.02508691
v 0.05397279 -0.01709569 0.02771827
v 0.05599830 -0.01923048 0.02304118
v 0.05271424 -0.02199478 0.02007369
v 0.05899183 -0.01539512 0.02535885
v 0.04856910 -0.01799022 0.02941494
v 0.04777583 -0.02322725 0.02191252
v 0.05729775 -0.02060006 0.01781674
v 0.06069029 -0.01723072 0.02054765
v 0.05661386 -0.01309506 0.02961457
v 0.05140800 -0.01419472 0.03173934
v 0.04552517 -0.02119790 0.02647148
v 0.04979520 -0.02444297 0.01708328
v 0.05401483 -0.02296314 0.01604060
v 0.06360031 -0.01201880 0.02328850
v 0.04594927 -0.01505253 0.03336983
v 0.04302307 -0.01861370 0.03066077
v 0.04240657 -0.02366432 0.02301893
v 0.04462188 -0.02512253 0.01835567
v 0.05737855 -0.02269729 0.01238853
v 0.06187639 -0.01925969 0.01540333
v 0.06498176 -0.01486105 0.01773950
v 0.03999753 -0.02157350 0.02742593
v 0.04678779 -0.02573682 0.01362012
v 0.05203646 -0.02451840 0.01259534
v 0.06844032 -0.01014658 0.01979759
v 0.04032688 -0.01553489 0.03438662
v 0.03744999 -0.01904312 0.03155399
v 0.03696473 -0.02402990 0.02385000
v 0.03928592 -0.02547994 0.01925627
v 0.04154468 -0.02619098 0.01454369
v 0.05356847 -0.02393832 0.00818238
v 0.06246306 -0.02059437 0.00992656
v 0.06609537 -0.01726362 0.01274371
v 0.06926739 -0.01294050 0.01486313
v 0.03450721 -0.02193327 0.02816330
v 0.04373624 -0.02602938 0.00982114
v 0.04875786 -0.02510501 0.00890050
v 0.03478792 -0.01606282 0.03528616
v 0.03192193 -0.01938548 0.03217990
v 0.03151139 -0.02421491 0.02439657
v 0.03390616 -0.02565879 0.01988023
v 0.03622772 -0.02640883 0.01520185
v 0.03852401 -0.02646844 0.01052052
v 0.05030366 -0.02317795 0.00496930
v 0.06562233 -0.01791678 0.00734136
v 0.06912831 -0.01465566 0.00964596
v 0.02903147 -0.02218384 0.02866243
v 0.04578829 -0.02432012 0.00542889
v 0.04081826 -0.02509055 0.00611951
v 0.02922605 -0.01627537 0.03569998
v 0.02644084 -0.01976107 0.03268434
v 0.02608363 -0.02419511 0.02473438
v 0.02851102 -0.02530157 0.02019259
v 0.03090152 -0.02621419 0.01564061
v 0.03324888 -0.02631028 0.01103033
v 0.03560964 -0.02530113 0.00658336
v 0.04725636 -0.02180210 0.00273618
v 0.02358566 -0.02263626 0.02912747
v 0.04315992 -0.02225250 0.00273521
v 0.03799505 -0.02262722 0.00307483
v 0.02376768 -0.01696934 0.03644568
v 0.02096203 -0.02033810 0.03318475
v 0.02070048 -0.02493169 0.02523891
v 0.02312117 -0.02552463 0.02055793
v 0.02555814 -0.02609516 0.01594904
v 0.02797878 -0.02631374 0.01135318
v 0.03038402 -0.02540765 0.00689427
v 0.03281943 -0.02297729 0.00313956
v 0.01814912 -0.02345832 0.02971142
v 0.01825806 -0.01756387 0.03689785
v 0.01553168 -0.02138333 0.03397025
v 0.01531203 -0.02603332 0.02583834
v 0.01777177 -0.02644800 0.02103317
v 0.02019247 -0.02635646 0.01627913
v 0.02267870 -0.02662266 0.01162360
v 0.02511862 -0.02569580 0.00710277
v 0.02755074 -0.02325517 0.00316191
v 0.01273764 -0.02473631 0.03054366
v 0.01275377 -0.01840810 0.03756034
v 0.01010181 -0.02270578 0.03502812
v 0.00980159 -0.02696833 0.02637467
v 0.01238805 -0.02758330 0.02150645
v 0.01489180 -0.02743572 0.01666460
v 0.01734497 -0.02688739 0.01192363
v 0.01982061 -0.02610977 0.00729813
v 0.02224525 -0.02335259 0.00351109
v 0.00710664 -0.02532270 0.03098959
v 0.00734443 -0.01960928 0.03883887
v 0.00438517 -0.02284713 0.03520749
v 0.00421206 -0.02743565 0.02670600
v 0.00689369 -0.02834805 0.02188496
v 0.00950451 -0.02838557 0.01698162
v 0.01199695 -0.02744873 0.01221601
v 0.01449659 -0.02647031 0.00755240
v 0.01692520 -0.02353198 0.00380345
v 0.00148966 -0.02548965 0.03117994
v 0.00165747 -0.01969625 0.03890160
v -0.00122307 -0.02294176 0.03533175
v -0.00134268 -0.02785689 0.02697506
v 0.00138040 -0.02896278 0.02215430
v 0.00404520 -0.02900766 0.01721792
v 0.00663159 -0.02806972 0.01240880
v 0.00918233 -0.02671420 0.00783452
v 0.00453300 -0.01574999 0.04175652
v -0.00408157 -0.02564165 0.03134094
v -0.00107589 -0.01590937 0.04192932
v -0.00395620 -0.01979278 0.03907121
v -0.00680385 -0.02286811 0.03538189
v -0.00689622 -0.02789586 0.02709238
v -0.00416393 -0.02927726 0.02234229
v -0.00143370 -0.02952259 0.01738361
v 0.00123465 -0.02874780 0.01251113
v 0.00389107 -0.02721888 0.00791266
v -0.00962150 -0.02558762 0.03141355
v -0.00665503 -0.01580970 0.04188678
v -0.00953078 -0.01960737 0.03902258
v -0.01235016 -0.02261039 0.03533076
v -0.01243445 -0.02787604 0.02718971
v -0.00968553 -0.02937965 0.02246050
v -0.00694000 -0.02970371 0.01749792
v -0.00419178 -0.02946866 0.01254518
v -0.00150058 -0.02780319 0.00786321
v -0.01513167 -0.02528049 0.03137348
v -0.01505342 -0.01907502 0.03872667
v -0.01783910 -0.02212445 0.03514036
v -0.01791794 -0.02740252 0.02709719
v -0.01521100 -0.02919833 0.02251731
v -0.01244484 -0.02989724 0.01759278
v -0.00967370 -0.02981787 0.01259664
v -0.00694048 -0.02833037 0.00785619
v -0.02062118 -0.02501544 0.03139048
v -0.02050718 -0.01842142 0.03838316
v -0.02330619 -0.02174208 0.03510594
v -0.02337604 -0.02702233 0.02706422
v -0.02068104 -0.02870746 0.02246249
v -0.01794881 -0.02977918 0.01762764
v -0.01517166 -0.02966681 0.01266899
v -0.01239762 -0.02847748 0.00788298
v -0.02606731 -0.02455522 0.03128196
v -0.02593463 -0.01781936 0.03815556
v -0.02871162 -0.02109093 0.03483733
v -0.02878920 -0.02669537 0.02703428
v -0.02611508 -0.02822147 0.02241472
v -0.02341584 -0.02924392 0.01760883
v -0.02064927 -0.02951078 0.01269513
v -0.01784536 -0.02828104 0.00796181
v -0.02312900 -0.01440749 0.04125151
v -0.01766024 -0.01494000 0.04138450
v -0.03141182 -0.02386198 0.03104025
v -0.02854996 -0.01373173 0.04095583
v -0.03130667 -0.01714060 0.03782971
v -0.03399966 -0.02033292 0.03446149
v -0.03415492 -0.02660670 0.02721322
v -0.03153292 -0.02820255 0.02252122
v -0.02886047 -0.02879417 0.01760347
v -0.02612472 -0.02922147 0.01269985
v -0.02330689 -0.02830563 0.00790326
v -0.03673195 -0.02383058 0.03137815
v -0.02047329 -0.02520172 0.00416240
v -0.01506001 -0.02509409 0.00432806
v -0.03657108 -0.01635986 0.03732948
v -0.03929951 -0.02019554 0.03478941
v -0.03694286 -0.02838070 0.02273663
v -0.03954034 -0.02662811 0.02751733
v -0.03431420 -0.02890423 0.01771973
v -0.03160331 -0.02902641 0.01274640
v -0.02880910 -0.02822084 0.00793812
v -0.02594491 -0.02520698 0.00414185
v -0.04211643 -0.02372130 0.03165583
v -0.04460476 -0.01970966 0.03468292
v -0.04233385 -0.02787479 0.02279594
v -0.03976657 -0.02905176 0.01788036
v -0.04490439 -0.02575125 0.02727554
v -0.03710704 -0.02907646 0.01282112
v -0.03431243 -0.02817601 0.00797000
v -0.03141243 -0.02511908 0.00425821
v -0.04729377 -0.02262366 0.03094498
v -0.04763810 -0.02700325 0.02268110
v -0.04517712 -0.02848619 0.01799276
v -0.04264346 -0.02903586 0.01293399
v -0.05084216 -0.02401644 0.02670169
v -0.03988002 -0.02800530 0.00804682
v -0.03691809 -0.02512293 0.00412231
v -0.05201709 -0.02574331 0.02208600
v -0.05041914 -0.02729085 0.01813576
v -0.04810361 -0.02815014 0.01316993
v -0.04545686 -0.02753414 0.00818238
v -0.04245734 -0.02476754 0.00422484
v -0.05561377 -0.02334487 0.02390636
v -0.05524283 -0.02545870 0.01887475
v -0.05341373 -0.02676254 0.01363164
v -0.05085754 -0.02623083 0.00867593
v -0.06024074 -0.02249643 0.02017789
v -0.04791026 -0.02394259 0.00455304
v -0.05841670 -0.02475545 0.01448466
v -0.05613896 -0.02475895 0.00923219
v -0.06295063 -0.02242761 0.01516995
v -0.05318012 -0.02269927 0.00508891
v -0.06088716 -0.02254291 0.01011901
v -0.06446233 -0.02035907 0.01904010
v -0.05819214 -0.02116796 0.00568207
v -0.06543866 -0.02032788 0.01098569
v -0.06273636 -0.01980062 0.00661637
v -0.06700687 -0.01936198 0.01573106
v -0.06957048 -0.01727772 0.01194794
v -0.06703509 -0.01757235 0.00749172
v 0.06031605 -0.01147010 0.02724789
v 0.05878514 -0.00866907 0.03062850
v 0.06289709 -0.00765301 0.02733955
v 0.05399724 -0.00993888 0.03336591
v 0.04863768 -0.01083560 0.03526123
v 0.04310687 -0.01153985 0.03663572
v 0.06716117 -0.00660834 0.02431021
v 0.06064402 -0.00390606 0.03088511
v 0.05618892 -0.00520386 0.03404417
v 0.05101800 -0.00617542 0.03623451
v 0.04569725 -0.00704364 0.03805773
v 0.07120701 -0.00476699 0.02085707
v 0.06507094 -0.00259254 0.02788477
v 0.04013523 -0.00759980 0.03903586
v 0.07203372 -0.00793637 0.01621997
v 0.06960197 -0.00115231 0.02495767
v 0.06246516 0.00103273 0.03076068
v 0.05783084 -0.00024778 0.03353033
v 0.05322835 -0.00133563 0.03660397
v 0.04799860 -0.00221803 0.03857043
v 0.04254618 -0.00291249 0.03991861
v 0.07439340 -0.00263252 0.01674811
v 0.07306129 0.00084074 0.02085774
v 0.06691848 0.00265281 0.02798861
v 0.03702674 -0.00344254 0.04071846
v 0.07081622 0.00459612 0.02430157
v 0.06360617 0.00509754 0.03010618
v 0.05949605 0.00459689 0.03269049
v 0.05483307 0.00356710 0.03549571
v 0.05001603 0.00274674 0.03820176
v 0.04470056 0.00200405 0.03984100
v 0.03923283 0.00137334 0.04079854
v 0.07554184 0.00294758 0.01612787
v 0.07362642 0.00655552 0.01958395
v 0.06665762 0.00853576 0.02757562
v 0.03379766 0.00084019 0.04182994
v 0.07082477 0.01020558 0.02247349
v 0.06138231 0.00879799 0.03088966
v 0.05642846 0.00819079 0.03389743
v 0.05177272 0.00760933 0.03686313
v 0.04656111 0.00691303 0.03866257
v 0.04125081 0.00629432 0.04014019
v 0.03580644 0.00567305 0.04105850
v 0.07542967 0.00827765 0.01447171
v 0.07299147 0.01184369 0.01724552
v 0.06694723 0.01390429 0.02449971
v 0.06269405 0.01300138 0.02840191
v 0.03044281 0.00518685 0.04231682
v 0.07675909 0.00475851 0.01102419
v 0.06976987 0.01534606 0.01976919
v 0.05773000 0.01258969 0.03152780
v 0.05319565 0.01199899 0.03431835
v 0.04827937 0.01161690 0.03670341
v 0.04298880 0.01100242 0.03807964
v 0.03772566 0.01055377 0.03970272
v 0.03232294 0.00990055 0.04077479
v 0.07464942 0.01284815 0.01179807
v 0.07154558 0.01642751 0.01425031
v 0.06530450 0.01793627 0.02167534
v 0.06302615 0.01672368 0.02579433
v 0.05773568 0.01789287 0.02842969
v 0.02697305 0.00943116 0.04204972
v 0.06742621 0.01926271 0.01659948
v 0.05410885 0.01524063 0.03177258
v 0.04981661 0.01565686 0.03360708
v 0.04466556 0.01538242 0.03530518
v 0.03940621 0.01498130 0.03663251
v 0.03411336 0.01451298 0.03804245
v 0.02871713 0.01383754 0.03950853
v 0.07226467 0.01631183 0.00824903
v 0.06102029 0.01999122 0.02369969
v 0.06274586 0.02126112 0.01873776
v 0.05157927 0.01842910 0.02988111
v 0.02336976 0.01338226 0.04103235
v 0.05696596 0.02163069 0.02470448
v 0.05292930 0.02128738 0.02631367
v 0.04631895 0.01907079 0.03177922
v 0.04110834 0.01907724 0.03318271
v 0.03518708 0.01890600 0.03436051
v 0.03016814 0.01752704 0.03682836
v 0.02489179 0.01709288 0.03785819
v 0.01960933 0.01686785 0.03932932
v 0.03763636 0.02263639 0.03038131
v 0.03055822 0.02068853 0.03364327
v 0.02626205 0.02034524 0.03498837
v 0.01822268 0.01350695 0.04242012
v 0.02175178 0.00924307 0.04362822
v 0.02510456 0.00479032 0.04354018
v 0.02839198 0.00036768 0.04298917
v 0.03159696 -0.00397520 0.04189563
v 0.03463817 -0.00815571 0.04010029
v 0.03749939 -0.01195646 0.03741870
v 0.03200573 -0.01254221 0.03841626
v 0.02911079 -0.00862429 0.04086721
v 0.02648900 -0.01299004 0.03901205
v 0.02616359 -0.00451747 0.04296945
v 0.02367177 -0.00929466 0.04187302
v 0.02304542 -0.00011204 0.04421636
v 0.02069216 -0.00505644 0.04371790
v 0.01810324 -0.00965892 0.04195222
v 0.02097269 -0.01354892 0.03956215
v 0.01545535 -0.01412799 0.03993597
v 0.01761189 -0.00058887 0.04485589
v 0.01518472 -0.00552107 0.04386833
v 0.01262091 -0.01026746 0.04241794
v 0.01983392 0.00444578 0.04496631
v 0.00996245 -0.01488348 0.04059644
v 0.01646228 0.00907199 0.04471389
v 0.01443192 0.00400616 0.04519962
v 0.01218016 -0.00108928 0.04497035
v 0.00973315 -0.00608363 0.04428494
v 0.00713583 -0.01089373 0.04296757
v 0.01115819 0.00865201 0.04465984
v 0.01304048 0.01361246 0.04320333
v 0.00908860 0.00350360 0.04517119
v 0.00677826 -0.00158205 0.04505423
v 0.00428927 -0.00657480 0.04457381
v 0.00177301 -0.01158024 0.04421498
v 0.01527203 0.01650081 0.04086916
v 0.01568472 0.01983253 0.03777483
v 0.02097930 0.01994694 0.03607614
v 0.01724808 0.02301522 0.03403712
v 0.02251857 0.02320093 0.03281951
v 0.00592481 0.00811295 0.04454190
v 0.00786829 0.01319076 0.04301284
v 0.01060067 0.01848134 0.04017571
v 0.01185119 0.02273678 0.03579094
v -0.00102151 -0.00702529 0.04576291
v 0.00145880 -0.00201904 0.04568217
v 0.00378099 0.00301353 0.04529838
v 0.00069649 0.00761641 0.04475313
v 0.00270727 0.01251442 0.04289620
v 0.00451716 0.01747759 0.04060271
v -0.00142646 0.00270687 0.04623818
v 0.00636478 0.02229599 0.03735315
v -0.00382883 -0.00226488 0.04655248
v -0.00644588 -0.00697096 0.04548653
v -0.00378876 -0.01156906 0.04403995
v -0.00456425 0.00743897 0.04564243
v -0.00246004 0.01208392 0.04352156
v -0.00060876 0.01649588 0.04061289
v -0.00674618 0.00256176 0.04636392
v -0.00907533 -0.00218263 0.04610796
v -0.01181155 -0.00669913 0.04513566
v -0.00957021 0.00722786 0.04525624
v -0.00782262 0.01183736 0.04403999
v -0.00574151 0.01601672 0.04128158
v -0.01169351 0.00267234 0.04575196
v -0.01422165 -0.00186766 0.04558973
v -0.01719244 -0.00627768 0.04493505
v -0.01472861 -0.01097001 0.04357760
v -0.00926484 -0.01130228 0.04368807
v -0.02018839 -0.01050946 0.04351552
v -0.01350557 0.01106749 0.04371315
v -0.01373001 0.00642794 0.04503131
v -0.01097411 0.01551543 0.04155446
v -0.01633838 0.00303653 0.04532961
v -0.01947966 -0.00133331 0.04535764
v -0.02259545 -0.00568927 0.04475025
v -0.02563336 -0.00989783 0.04333827
v -0.01558031 0.01492286 0.04162783
v -0.01786674 0.00782227 0.04447888
v -0.02137750 0.00373951 0.04506648
v -0.02481026 -0.00056660 0.04492403
v -0.01902891 0.01236079 0.04281725
v -0.02799254 -0.00494729 0.04443739
v -0.01992606 0.01648295 0.04030828
v -0.02297852 0.00880719 0.04384827
v -0.02671207 0.00470942 0.04425578
v -0.03010117 0.00032673 0.04437129
v -0.02425322 0.01368917 0.04169172
v -0.03332078 -0.00409070 0.04380334
v -0.02826607 0.01019885 0.04273497
v -0.03189851 0.00584814 0.04337892
v -0.02930358 0.01539248 0.03995020
v -0.03524877 0.00117041 0.04339998
v -0.03402296 0.01156701 0.04141605
v -0.03689166 0.00651243 0.04241471
v -0.03426048 0.01732067 0.03787629
v -0.03874387 0.01482823 0.03915927
v -0.03887673 0.01051002 0.04100735
v -0.04294276 0.01183894 0.03950511
v 0.05805899 -0.02232603 0.00675736
v 0.05415938 -0.02222652 0.00423286
v 0.06159970 -0.01966282 0.00450947
v 0.05675803 -0.02022634 0.00212395
v 0.05105209 -0.02004662 0.00133674
v 0.07212611 -0.01026664 0.01119813
v 0.07447507 -0.00551592 0.01221695
v 0.07041158 -0.01136264 0.00628094
v 0.07324171 -0.00695126 0.00750346
v 0.06769587 -0.01473233 0.00556185
v 0.06441687 -0.01582950 0.00288740
v 0.05976662 -0.01646950 0.00045174
v 0.07534453 -0.00297669 0.00862998
v 0.07610206 -0.00048623 0.01215833
v 0.06256063 -0.01208218 0.00000000
v 0.06709707 -0.01190155 0.00240696
v 0.07031015 -0.00719884 0.00316815
v 0.07320222 -0.00267436 0.00475937
v 0.07571166 0.00125491 0.00733525
v 0.06569769 -0.00735487 0.00007391
v 0.06888855 -0.00191514 0.00062065
v 0.07244304 0.00264077 0.00342437
v 0.07531132 0.00644742 0.00622662
v 0.06856457 0.00414992 0.00027810
v 0.07173554 0.00816286 0.00264052
v 0.07600788 0.00906174 0.00989179
v 0.07437495 0.01158949 0.00632102
v 0.06711315 0.00966002 0.00007297
v 0.07050982 0.01360319 0.00291646
v 0.06792243 0.01811654 0.00510900
v 0.06540331 0.01502408 0.00058069
v 0.06309083 0.01941355 0.00271714
v 0.05436297 -0.01581116 0.00016729
v 0.04886486 -0.01527026 0.00058470
v 0.05729818 -0.01160515 0.00062951
v 0.04583951 -0.01882542 0.00099670
v 0.04056955 -0.01884319 0.00142213
v 0.05182582 -0.01117299 0.00100224
v 0.03531718 -0.01887983 0.00160733
v 0.03008333 -0.01903773 0.00161262
v 0.04338652 -0.01488541 0.00114713
v 0.04635130 -0.01082848 0.00155526
v 0.05477700 -0.00691319 0.00154040
v 0.06019745 -0.00732709 0.00093366
v 0.03801638 -0.01470097 0.00163106
v 0.03270436 -0.01464400 0.00184625
v 0.04931806 -0.00653464 0.00179801
v 0.02476829 -0.01921445 0.00141438
v 0.02741402 -0.01465277 0.00157231
v 0.04090454 -0.01054027 0.00194985
v 0.04385307 -0.00622812 0.00193013
v 0.05766221 -0.00264901 0.00171134
v 0.05225568 -0.00218298 0.00165182
v 0.06314354 -0.00287830 0.00087850
v 0.03550408 -0.01035153 0.00229404
v 0.03013639 -0.01023485 0.00215480
v 0.04682589 -0.00182610 0.00160317
v 0.06488152 0.00122833 0.00040256
v 0.01947403 -0.01925370 0.00193532
v 0.02213345 -0.01470276 0.00166577
v 0.02484921 -0.01017183 0.00161604
v 0.03841430 -0.00599112 0.00218050
v 0.04140009 -0.00155482 0.00200077
v 0.05524000 0.00210478 0.00171693
v 0.06049666 0.00147854 0.00110995
v 0.06351949 0.00551034 0.00010083
v 0.03300861 -0.00581626 0.00206464
v 0.02764960 -0.00568633 0.00181260
v 0.04444196 0.00292256 0.00180254
v 0.04986329 0.00257721 0.00155053
v 0.01418091 -0.01930765 0.00223277
v 0.01954423 -0.01015160 0.00133344
v 0.02231900 -0.00559508 0.00161911
v 0.03900632 0.00316595 0.00184902
v 0.04757170 0.00740135 0.00175226
v 0.01163388 -0.02346020 0.00439129
v 0.03055349 -0.00119686 0.00218167
v 0.03596329 -0.00135650 0.00192581
v 0.00635161 -0.02350833 0.00482982
v 0.00888184 -0.01937135 0.00251897
v 0.01699165 -0.00552151 0.00147852
v 0.03356221 0.00333544 0.00200850
v 0.03664833 0.00792578 0.00192883
v 0.04212484 0.00771796 0.00202428
v 0.02812973 0.00347315 0.00200131
v 0.02517485 -0.00106394 0.00188316
v 0.01981295 -0.00095082 0.00178402
v 0.02272012 0.00360893 0.00202887
v 0.03983885 0.01254783 0.00228802
v 0.04533842 0.01226765 0.00179992
v 0.05081592 0.01184745 0.00142557
v 0.05298653 0.00695353 0.00172695
v 0.05833387 0.00633099 0.00114584
v 0.06173169 0.01057055 0.00074879
v 0.05627656 0.01127180 0.00114314
v 0.05974732 0.01554147 0.00070700
v 0.05420289 0.01620642 0.00091959
v 0.05770748 0.02032909 0.00131722
v 0.05212248 0.02105756 0.00140420
v 0.05554733 0.02404087 0.00424136
v 0.04867066 0.01676423 0.00122891
v 0.04311919 0.01713565 0.00170855
v 0.03753498 0.01732929 0.00187781
v 0.03430051 0.01271189 0.00231937
v 0.03118082 0.00805594 0.00216986
v 0.02571816 0.00817728 0.00209622
v 0.02027320 0.00831821 0.00214193
v 0.01733382 0.00372566 0.00223608
v 0.01446302 -0.00087111 0.00201018
v 0.01164945 -0.00547795 0.00165990
v 0.01422687 -0.01013453 0.00144124
v 0.01683676 -0.01472364 0.00179287
v 0.01151780 -0.01477800 0.00163891
v 0.00619030 -0.01486702 0.00177711
v 0.00890169 -0.01014269 0.00173202
v 0.00359704 -0.01962348 0.00257512
v 0.00108990 -0.02430213 0.00430001
v -0.00433657 -0.02469481 0.00436409
v -0.00173485 -0.02006765 0.00223008
v 0.00087232 -0.01506274 0.00201031
v 0.00357484 -0.01019978 0.00191868
v 0.00632517 -0.00547819 0.00205367
v 0.00912830 -0.00083126 0.00245669
v 0.01196388 0.00381683 0.00247544
v 0.01485306 0.00844347 0.00212595
v 0.01784580 0.01305957 0.00211018
v -0.00970779 -0.02483162 0.00456743
v -0.00709820 -0.02035879 0.00229519
v -0.00444295 -0.01530274 0.00183736
v -0.00174506 -0.01032625 0.00210705
v 0.00100563 -0.00547545 0.00185239
v 0.00376831 -0.00081211 0.00284682
v 0.00659970 0.00388075 0.00278582
v 0.00946465 0.00853382 0.00240625
v 0.02331373 0.01291224 0.00201401
v 0.02879868 0.01280243 0.00198264
v 0.03195034 0.01745415 0.00171271
v 0.03525967 0.02201775 0.00273331
v 0.04097999 0.02187369 0.00252212
v 0.04654812 0.02166431 0.00173527
v 0.02639485 0.01752934 0.00194171
v 0.02958191 0.02194094 0.00316662
v 0.04474064 0.02516276 0.00544519
v 0.03887685 0.02630422 0.00619453
v 0.03291028 0.02559113 0.00556379
v 0.02408060 0.02192017 0.00369881
v 0.02093041 0.01762764 0.00231123
v 0.01546322 0.01783572 0.00228496
v 0.01240205 0.01320281 0.00227838
v 0.00698985 0.01326825 0.00263152
v 0.00996223 0.01798408 0.00243471
v 0.02727979 0.02577390 0.00580608
v 0.00410098 0.00858907 0.00244428
v 0.00124877 0.00392431 0.00240311
v -0.00155551 -0.00077884 0.00230472
v -0.00431196 -0.00554953 0.00210396
v -0.00704686 -0.01047000 0.00214760
v -0.00974532 -0.01549504 0.00188623
v -0.01239406 -0.02047619 0.00252021
v -0.01772826 -0.02063454 0.00231616
v -0.01503236 -0.01561481 0.00183801
v -0.01232807 -0.01057957 0.00197518
v -0.00960333 -0.00562105 0.00235649
v -0.02311273 -0.02066673 0.00234281
v -0.02033272 -0.01569961 0.00232810
v -0.01760478 -0.01066397 0.00221488
v -0.01488791 -0.00568219 0.00230707
v -0.01216687 -0.00080030 0.00227873
v -0.00686800 -0.00079014 0.00200698
v -0.00408186 0.00395289 0.00193483
v -0.00124881 0.00865042 0.00198586
v 0.00160158 0.01327423 0.00286217
v 0.00450502 0.01800401 0.00285964
v 0.00751128 0.02262998 0.00352673
v 0.01310915 0.02257517 0.00326363
v 0.01859828 0.02209107 0.00384073
v 0.02180463 0.02579833 0.00624447
v 0.01627215 0.02585078 0.00644054
v 0.01066550 0.02616510 0.00633987
v -0.00378291 0.01330964 0.00278004
v -0.00089307 0.01797249 0.00336703
v 0.00200223 0.02261180 0.00383981
v 0.00507736 0.02628036 0.00650752
v -0.00662343 0.00868539 0.00189811
v -0.00943028 0.00395697 0.00165004
v -0.01474255 0.00399207 0.00201222
v -0.01196575 0.00874529 0.00187212
v -0.00912942 0.01342742 0.00231773
v -0.00624224 0.01808912 0.00284716
v -0.00337216 0.02246906 0.00432352
v -0.00047832 0.02625974 0.00681304
v -0.01744455 -0.00080949 0.00242307
v -0.02015006 -0.00572180 0.00259410
v -0.02287103 -0.01072307 0.00267109
v -0.02564428 -0.01573899 0.00280419
v -0.02851150 -0.02065295 0.00249472
v -0.03391297 -0.02060286 0.00239394
v -0.03098261 -0.01573369 0.00310515
v -0.02814382 -0.01074830 0.00325582
v -0.02538374 -0.00574440 0.00315126
v -0.02269347 -0.00080424 0.00283084
v -0.03934748 -0.02037692 0.00238733
v -0.03633253 -0.01561451 0.00307204
v -0.03342592 -0.01070376 0.00375241
v -0.03062481 -0.00571930 0.00364898
v -0.02791860 -0.00077998 0.00332147
v -0.02525061 0.00409954 0.00282839
v -0.02001475 0.00404606 0.00243693
v -0.01728072 0.00883226 0.00210448
v -0.01447639 0.01355838 0.00200102
v -0.01160552 0.01824344 0.00239368
v -0.00873994 0.02273313 0.00387779
v -0.00589268 0.02608267 0.00713981
v -0.01133036 0.02616207 0.00727808
v -0.01412996 0.02273272 0.00399935
v -0.02257069 0.00891024 0.00244605
v -0.01980067 0.01368628 0.00223207
v -0.01696088 0.01837463 0.00223911
v -0.02510653 0.01378992 0.00240122
v -0.02230108 0.01852517 0.00231163
v -0.01940560 0.02293508 0.00387848
v -0.02781218 0.00898539 0.00282673
v -0.03047790 0.00412839 0.00312947
v -0.03314838 -0.00072975 0.00370397
v -0.03589956 -0.00563876 0.00396869
v -0.03873032 -0.01053477 0.00403346
v -0.04165663 -0.01525131 0.00299963
v -0.04473449 -0.01985444 0.00261246
v -0.05002103 -0.01903893 0.00292366
v -0.04694449 -0.01468305 0.00312597
v -0.04404243 -0.01017563 0.00412680
v -0.04120056 -0.00542661 0.00415001
v -0.03840265 -0.00062669 0.00391733
v -0.05516043 -0.01802431 0.00311645
v -0.05221043 -0.01401328 0.00331448
v -0.04936217 -0.00966830 0.00415800
v -0.04652968 -0.00509254 0.00428686
v -0.04370283 -0.00043444 0.00403068
v -0.04092405 0.00426384 0.00369513
v -0.03568546 0.00418047 0.00345853
v -0.03302253 0.00902876 0.00300815
v -0.03034735 0.01387827 0.00279872
v -0.02759879 0.01863964 0.00270852
v -0.02469520 0.02315521 0.00371611
v -0.02180827 0.02643595 0.00730652
v -0.03821746 0.00905832 0.00316317
v -0.03555595 0.01395231 0.00287970
v -0.03286073 0.01879045 0.00292847
v -0.03001503 0.02336364 0.00372562
v -0.04073677 0.01397236 0.00306908
v -0.03811566 0.01888795 0.00301617
v -0.03537421 0.02349460 0.00409439
v -0.04340965 0.00910512 0.00327922
v -0.04618310 0.00443241 0.00384994
v -0.04903716 -0.00011705 0.00424213
v -0.05190706 -0.00467225 0.00428704
v -0.05472533 -0.00917250 0.00398283
v -0.05745839 -0.01334423 0.00330100
v -0.06015837 -0.01751314 0.00333975
v -0.06434852 -0.01653159 0.00418548
v -0.06242377 -0.01334207 0.00293685
v -0.06017163 -0.00891592 0.00357498
v -0.05733733 -0.00433014 0.00400678
v -0.05441253 0.00027717 0.00440262
v -0.06723381 -0.01387870 0.00461719
v -0.07070531 -0.01382376 0.00869011
v -0.06557270 -0.00919713 0.00305539
v -0.06280954 -0.00424692 0.00346911
v -0.05984841 0.00067222 0.00460691
v -0.07012491 -0.00977414 0.00614537
v -0.05675894 0.00524694 0.00450048
v -0.05146917 0.00474331 0.00402812
v -0.04860036 0.00922524 0.00339015
v -0.04588614 0.01396605 0.00318492
v -0.04332710 0.01887033 0.00316685
v -0.04072424 0.02350520 0.00457654
v -0.05376068 0.00955000 0.00378220
v -0.05096758 0.01406033 0.00333051
v -0.04847717 0.01877270 0.00336691
v -0.04602806 0.02329147 0.00527677
v -0.05118156 0.02268721 0.00626549
v -0.05593550 0.01432601 0.00363264
v -0.05349951 0.01872115 0.00379495
v -0.05891128 0.01015293 0.00417793
v -0.06203716 0.00586835 0.00425538
v -0.06519558 0.00109017 0.00375431
v -0.06872559 -0.00413677 0.00396008
v -0.07176508 -0.00598254 0.00746825
v -0.07301933 -0.00905447 0.01115152
v -0.05597265 0.02124916 0.00742321
v -0.07030491 0.00173848 0.00500986
v -0.06723102 0.00675633 0.00476620
v -0.06388618 0.01093815 0.00507683
v -0.07188321 -0.00225263 0.00718574
v -0.07362129 -0.00353340 0.01084968
v -0.07297597 0.00166549 0.00956167
v -0.07083183 0.00653056 0.00876277
v -0.06768040 0.01100014 0.00852833
v -0.06414075 0.01512631 0.00840416
v -0.06063389 0.01499102 0.00478014
v -0.05763622 0.01820116 0.00476248
v 0.06872380 0.01974526 0.01088596
v 0.06454198 0.02216249 0.01354894
v 0.06489938 0.02182312 0.00767596
v 0.05981372 0.02335088 0.01558653
v 0.06122043 0.02413066 0.01032386
v 0.05824145 0.02267245 0.02058123
v 0.05389669 0.02364977 0.02201988
v 0.06052345 0.02301777 0.00540723
v 0.05523080 0.02472551 0.01717010
v 0.05690832 0.02542815 0.01236773
v 0.04911277 0.02360546 0.02298799
v 0.04771842 0.02146135 0.02739788
v 0.04408919 0.02395462 0.02423501
v 0.04271739 0.02218003 0.02903460
v 0.05058632 0.02601409 0.01859365
v 0.04555037 0.02575819 0.01952785
v 0.03913170 0.02472910 0.02564632
v 0.05207202 0.02669792 0.01353387
v 0.04059049 0.02611270 0.02073182
v 0.03413687 0.02534535 0.02685516
v 0.03255855 0.02262932 0.03101824
v 0.02762234 0.02306817 0.03184234
v 0.02904454 0.02507498 0.02753570
v 0.04702397 0.02755184 0.01466522
v 0.04208197 0.02721774 0.01580570
v 0.03566391 0.02696024 0.02202550
v 0.03062639 0.02739889 0.02313741
v 0.02402808 0.02537891 0.02863035
v 0.04853760 0.02702712 0.00939840
v 0.05365291 0.02592345 0.00859072
v 0.05771210 0.02484245 0.00805236
v 0.05016660 0.02445638 0.00492508
v 0.04334750 0.02724649 0.01042305
v 0.03214055 0.02824415 0.01810480
v 0.03717289 0.02769889 0.01701937
v 0.03860782 0.02792293 0.01174272
v 0.03387418 0.02839133 0.01320438
v 0.03499897 0.02764118 0.00895970
v 0.03059480 0.02816952 0.00922725
v 0.02865068 0.02875481 0.01398536
v 0.02704827 0.02853495 0.01909863
v 0.02559985 0.02729323 0.02410834
v 0.02057068 0.02750921 0.02529036
v 0.01891943 0.02574633 0.02994251
v 0.01364693 0.02579162 0.03125724
v 0.00824929 0.02553109 0.03255461
v 0.01543988 0.02783707 0.02657901
v 0.01012363 0.02770386 0.02767318
v 0.02212564 0.02865029 0.02028516
v 0.00277467 0.02491817 0.03353510
v 0.00470313 0.02745928 0.02874779
v 0.01723501 0.02897924 0.02165342
v 0.01207514 0.02923021 0.02283491
v 0.00109876 0.02088740 0.03736010
v 0.00669992 0.02912639 0.02379637
v 0.01877916 0.02906535 0.01778272
v 0.02265800 0.02918507 0.01483299
v -0.00401272 0.01966765 0.03756442
v -0.00228552 0.02286728 0.03338031
v -0.00066514 0.02623368 0.02927079
v 0.00125731 0.02855850 0.02457963
v 0.02516297 0.02831393 0.00977987
v 0.01681717 0.02925027 0.01386572
v 0.01420836 0.02944495 0.01803522
v 0.00885867 0.03003251 0.01886059
v 0.00336971 0.02983278 0.01962632
v 0.01956212 0.02853706 0.00995983
v -0.00917396 0.01897803 0.03814348
v -0.00571639 0.02413866 0.02924614
v -0.00402495 0.02701080 0.02497803
v -0.00205494 0.02891192 0.02024766
v 0.01382952 0.02840008 0.01009075
v 0.01129148 0.02949097 0.01430663
v 0.00568988 0.02980593 0.01470785
v 0.00816977 0.02861400 0.01019494
v 0.00258414 0.02870437 0.01054212
v 0.00017179 0.02948060 0.01529897
v -0.00529829 0.02888348 0.01589697
v -0.00745507 0.02794857 0.02087400
v -0.00931787 0.02580406 0.02549265
v -0.01100466 0.02345635 0.03004574
v -0.00745383 0.02175651 0.03380861
v -0.01263607 0.02135512 0.03479041
v -0.01527759 0.01858163 0.03863566
v -0.01698521 0.02140693 0.03497198
v -0.01612424 0.02321970 0.03125267
v -0.01463418 0.02540363 0.02652635
v -0.02062513 0.01991472 0.03685759
v -0.02502314 0.01806950 0.03841177
v -0.02076871 0.02283366 0.03259466
v -0.01976602 0.02523392 0.02783091
v -0.02519540 0.02174343 0.03414146
v -0.01828294 0.02720086 0.02296857
v -0.01288501 0.02732075 0.02173459
v -0.01079727 0.02850868 0.01664086
v -0.00840382 0.02816821 0.01150832
v -0.00291673 0.02825006 0.01105409
v -0.01632047 0.02812647 0.01765661
v -0.01392451 0.02800814 0.01220708
v -0.02188673 0.02836152 0.01904704
v -0.02001375 0.02836218 0.01273953
v -0.01671881 0.02602032 0.00777376
v -0.02553411 0.02881284 0.01521102
v -0.02735511 0.02839809 0.02045134
v -0.02357390 0.02706785 0.02428028
v -0.02470043 0.02476412 0.02930074
v -0.03025296 0.02383758 0.03112674
v -0.02975585 0.01994009 0.03613342
v -0.03449336 0.02126423 0.03408386
v -0.02872022 0.02659054 0.02561767
v -0.03524701 0.02404364 0.03022068
v -0.03915814 0.01907013 0.03558025
v -0.03376090 0.02610348 0.02667896
v -0.03915361 0.02244553 0.03165493
v -0.04367518 0.01642998 0.03672066
v -0.03264738 0.02800692 0.02160642
v -0.03875525 0.02522418 0.02756942
v -0.04385080 0.02028154 0.03281626
v -0.03104530 0.02880460 0.01638214
v -0.03782754 0.02726669 0.02271599
v -0.02907903 0.02799801 0.01144850
v -0.02465815 0.02790872 0.01077087
v -0.02697203 0.02626318 0.00714385
v -0.04361447 0.02351229 0.02848834
v -0.03640322 0.02844827 0.01744707
v -0.03448557 0.02776357 0.01229373
v -0.03233653 0.02631355 0.00753860
v -0.04167182 0.02751470 0.01856419
v -0.04291439 0.02605542 0.02377960
v -0.04778895 0.02402249 0.02474808
v -0.04830312 0.02119014 0.02945292
v -0.04841791 0.01773390 0.03386068
v -0.04782183 0.01318520 0.03711044
v -0.05266883 0.01821964 0.03009363
v -0.03990497 0.02772752 0.01318955
v -0.03772933 0.02630203 0.00820769
v -0.04679706 0.02607150 0.01969967
v -0.05249216 0.02158205 0.02563712
v -0.05235966 0.01411253 0.03394830
v -0.04517767 0.02672204 0.01431965
v -0.05173691 0.02404898 0.02072729
v -0.05636553 0.01795046 0.02583750
v -0.04312083 0.02603475 0.00900964
v -0.05026768 0.02516355 0.01547002
v -0.05622927 0.02110116 0.02140502
v -0.04836277 0.02517495 0.01008476
v -0.05522430 0.02312266 0.01646595
v -0.06058245 0.01795681 0.02197704
v -0.05346444 0.02385438 0.01126198
v -0.05981505 0.02022694 0.01713852
v -0.06039563 0.01457560 0.02632778
v -0.05622027 0.01434092 0.02999016
v -0.05991951 0.01074544 0.03027448
v -0.05806521 0.02120938 0.01225617
v -0.06424993 0.01402049 0.02213620
v -0.06407343 0.01673892 0.01753151
v -0.06386101 0.01072493 0.02643189
v -0.06265894 0.01828616 0.01267782
v -0.06013931 0.01859993 0.00829547
v -0.06753071 0.01250805 0.01765148
v -0.06657511 0.01439960 0.01291638
v -0.06744885 0.00990443 0.02216633
v -0.07001803 0.01010408 0.01314433
v -0.07048150 0.00814785 0.01793855
v -0.07278273 0.00542373 0.01370570
v -0.01217860 -0.01542331 0.04159537
v -0.03106674 -0.00920938 0.04310844
v -0.03390565 -0.01295872 0.04045606
v -0.03636358 -0.00823486 0.04212938
v -0.03906534 -0.01192504 0.03938519
v -0.04183410 -0.01580526 0.03710253
v -0.03848150 -0.00310918 0.04255665
v -0.04140372 -0.00712728 0.04062192
v -0.04428771 -0.01113817 0.03873331
v -0.04706711 -0.01515610 0.03669504
v -0.04960695 -0.01866928 0.03364202
v -0.05131398 -0.02087803 0.03051818
v -0.04028878 0.00204402 0.04211326
v -0.04335563 -0.00202727 0.04060213
v -0.04654548 -0.00614662 0.03950507
v -0.04947240 -0.01026022 0.03781471
v -0.05216048 -0.01427242 0.03566885
v -0.05411711 -0.01750335 0.03206331
v -0.05517961 -0.02056990 0.02822980
v -0.04177547 0.00700910 0.04112097
v -0.04508783 0.00309439 0.04000837
v -0.04831876 -0.00096604 0.03889698
v -0.05148232 -0.00508582 0.03774621
v -0.05452181 -0.00923283 0.03636972
v -0.05689174 -0.01307966 0.03362969
v -0.05848047 -0.01641367 0.02995184
v -0.05959606 -0.01969885 0.02579041
v -0.04661431 0.00816737 0.03895991
v -0.04991258 0.00418114 0.03796452
v -0.05320568 0.00012366 0.03707157
v -0.05638431 -0.00399557 0.03598831
v -0.05921375 -0.00806795 0.03409683
v -0.06133268 -0.01184688 0.03103925
v -0.06291033 -0.01539742 0.02740785
v -0.06369299 -0.01858373 0.02310793
v -0.05130825 0.00925326 0.03644759
v -0.05460400 0.00523172 0.03570550
v -0.05796307 0.00123178 0.03513357
v -0.06098196 -0.00285559 0.03368793
v -0.06350694 -0.00683203 0.03127488
v -0.06563083 -0.01064442 0.02821736
v -0.06699406 -0.01417663 0.02443185
v -0.06739566 -0.01710040 0.02018304
v -0.05555575 0.01001071 0.03327113
v -0.05908419 0.00623408 0.03320280
v -0.06235733 0.00233130 0.03262004
v -0.06496659 -0.00162879 0.03065653
v -0.06733718 -0.00543485 0.02799589
v -0.06930260 -0.00908384 0.02474497
v -0.07044604 -0.01251736 0.02087808
v -0.07044838 -0.01534587 0.01655533
v -0.06373433 0.00721852 0.03061035
v -0.06586679 0.00321613 0.02905368
v -0.06810987 -0.00021719 0.02697264
v -0.07046750 -0.00371996 0.02414335
v -0.07208477 -0.00716726 0.02061602
v -0.07285231 -0.01064064 0.01660590
v -0.07216039 -0.01363683 0.01306467
v -0.06667558 0.00712120 0.02619765
v -0.06841891 0.00348352 0.02560253
v -0.07069857 0.00145109 0.02305771
v -0.07286466 -0.00174582 0.01976005
v -0.07391337 -0.00530688 0.01585436
v -0.06962597 0.00584846 0.02234570
v -0.07221332 0.00337038 0.01859062
v -0.07413872 0.00021914 0.01481999
f 1 3 2
f 1 4 3
f 3 5 2
f 1 2 6
f 1 7 4
f 4 8 3
f 3 9 5
f 3 8 9
f 2 5 10
f 2 11 6
f 2 10 11
f 1 6 12
f 1 12 7
f 4 7 13
f 4 14 8
f 4 13 14
f 5 9 15
f 6 11 16
f 6 17 12
f 6 16 17
f 7 12 18
f 7 19 13
f 7 18 19
f 14 20 8
f 8 21 9
f 8 20 21
f 9 22 15
f 9 21 22
f 17 23 12
f 12 23 18
f 19 24 13
f 14 13 25
f 14 25 20
f 13 24 25
f 22 26 15
f 16 27 17
f 17 28 23
f 27 28 17
f 23 29 18
f 18 30 19
f 18 29 30
f 19 31 24
f 19 30 31
f 25 32 20
f 21 20 33
f 22 21 34
f 21 33 34
f 22 35 26
f 22 34 35
f 23 28 36
f 23 36 29
f 37 24 31
f 25 24 38
f 25 38 32
f 37 38 24
f 27 39 28
f 40 36 28
f 39 40 28
f 36 41 29
f 29 42 30
f 29 41 42
f 30 43 31
f 42 43 30
f 37 31 44
f 43 44 31
f 45 32 38
f 33 46 34
f 47 35 34
f 46 47 34
f 40 48 36
f 36 48 41
f 49 38 37
f 49 45 38
f 37 44 50
f 49 37 50
f 39 51 40
f 52 48 40
f 51 52 40
f 41 48 53
f 41 54 42
f 41 53 54
f 42 55 43
f 42 54 55
f 43 56 44
f 55 56 43
f 57 50 44
f 56 57 44
f 49 58 45
f 52 59 48
f 59 53 48
f 60 49 50
f 60 58 49
f 57 61 50
f 60 50 61
f 51 62 52
f 63 59 52
f 62 63 52
f 59 64 53
f 53 65 54
f 53 64 65
f 54 66 55
f 65 66 54
f 67 56 55
f 66 67 55
f 68 57 56
f 68 56 67
f 57 69 61
f 68 69 57
f 70 59 63
f 70 64 59
f 71 63 62
f 72 70 63
f 71 72 63
f 70 73 64
f 64 74 65
f 64 73 74
f 65 75 66
f 74 75 65
f 66 76 67
f 75 76 66
f 68 67 77
f 77 67 76
f 78 69 68
f 78 68 77
f 79 70 72
f 79 73 70
f 71 80 72
f 81 79 72
f 80 81 72
f 79 82 73
f 73 83 74
f 73 82 83
f 74 84 75
f 83 84 74
f 75 85 76
f 75 84 85
f 86 77 76
f 85 86 76
f 87 78 77
f 86 87 77
f 81 88 79
f 79 88 82
f 89 81 80
f 81 90 88
f 89 90 81
f 82 88 91
f 82 92 83
f 82 91 92
f 83 93 84
f 92 93 83
f 84 94 85
f 93 94 84
f 85 95 86
f 94 95 85
f 86 96 87
f 95 96 86
f 97 88 90
f 97 91 88
f 98 90 89
f 99 97 90
f 98 99 90
f 97 100 91
f 92 91 101
f 91 100 101
f 92 102 93
f 92 101 102
f 93 103 94
f 93 102 103
f 94 104 95
f 94 103 104
f 105 98 89
f 99 106 97
f 97 106 100
f 105 107 98
f 98 108 99
f 107 108 98
f 109 106 99
f 108 109 99
f 100 106 110
f 100 111 101
f 100 110 111
f 101 112 102
f 101 111 112
f 113 103 102
f 112 113 102
f 114 104 103
f 113 114 103
f 109 115 106
f 106 115 110
f 107 116 108
f 108 117 109
f 108 116 117
f 118 115 109
f 117 118 109
f 110 115 119
f 110 120 111
f 110 119 120
f 111 121 112
f 120 121 111
f 112 122 113
f 121 122 112
f 113 123 114
f 122 123 113
f 118 124 115
f 115 124 119
f 117 125 118
f 118 126 124
f 118 125 126
f 124 127 119
f 119 128 120
f 119 127 128
f 120 129 121
f 120 128 129
f 121 130 122
f 121 129 130
f 122 131 123
f 122 130 131
f 126 132 124
f 124 132 127
f 126 125 133
f 134 132 126
f 134 126 133
f 132 135 127
f 127 136 128
f 127 135 136
f 128 137 129
f 136 137 128
f 138 130 129
f 137 138 129
f 130 139 131
f 138 139 130
f 134 140 132
f 140 135 132
f 141 134 133
f 134 142 140
f 141 142 134
f 140 143 135
f 136 135 144
f 143 144 135
f 136 145 137
f 136 144 145
f 137 146 138
f 145 146 137
f 138 147 139
f 146 147 138
f 141 133 148
f 133 149 148
f 142 150 140
f 140 150 143
f 151 141 148
f 152 142 141
f 152 141 151
f 153 150 142
f 153 142 152
f 154 143 150
f 143 155 144
f 154 155 143
f 144 156 145
f 144 155 156
f 145 157 146
f 145 156 157
f 146 158 147
f 146 157 158
f 159 150 153
f 159 154 150
f 160 147 158
f 160 161 147
f 162 153 152
f 163 159 153
f 162 163 153
f 154 164 155
f 159 165 154
f 165 164 154
f 155 166 156
f 164 166 155
f 157 156 167
f 156 166 167
f 158 157 168
f 157 167 168
f 160 158 169
f 169 158 168
f 163 170 159
f 170 165 159
f 163 171 170
f 165 172 164
f 164 173 166
f 164 172 173
f 170 174 165
f 174 172 165
f 166 175 167
f 173 175 166
f 168 167 176
f 167 175 176
f 169 168 177
f 168 176 177
f 170 178 174
f 174 179 172
f 180 173 172
f 179 180 172
f 181 175 173
f 181 173 180
f 178 182 174
f 174 182 179
f 176 175 183
f 181 183 175
f 177 176 184
f 176 183 184
f 185 179 182
f 186 180 179
f 185 186 179
f 181 180 187
f 186 187 180
f 188 183 181
f 188 181 187
f 189 184 183
f 188 189 183
f 190 185 182
f 185 191 186
f 190 191 185
f 186 192 187
f 191 192 186
f 193 188 187
f 192 193 187
f 190 194 191
f 193 195 188
f 191 196 192
f 191 194 196
f 197 193 192
f 196 197 192
f 196 194 198
f 197 199 193
f 196 200 197
f 196 198 200
f 194 201 198
f 200 202 197
f 198 203 200
f 200 204 202
f 200 203 204
f 198 205 203
f 206 203 205
f 203 207 204
f 206 207 203
f 5 208 10
f 5 15 208
f 208 209 10
f 15 210 208
f 208 210 209
f 10 209 211
f 11 10 211
f 11 211 212
f 11 212 16
f 16 212 213
f 15 214 210
f 15 26 214
f 210 215 209
f 209 216 211
f 209 215 216
f 212 211 217
f 211 216 217
f 212 218 213
f 212 217 218
f 26 219 214
f 214 220 210
f 220 215 210
f 213 218 221
f 26 222 219
f 26 35 222
f 214 219 223
f 214 223 220
f 220 224 215
f 215 225 216
f 215 224 225
f 217 216 226
f 226 216 225
f 218 217 227
f 217 226 227
f 221 218 228
f 218 227 228
f 222 229 219
f 223 219 230
f 219 229 230
f 223 231 220
f 220 231 224
f 221 228 232
f 223 230 233
f 223 233 231
f 231 234 224
f 225 224 235
f 224 234 235
f 226 225 236
f 236 225 235
f 226 237 227
f 226 236 237
f 228 227 238
f 237 238 227
f 228 239 232
f 228 238 239
f 229 240 230
f 233 230 241
f 230 240 241
f 233 242 231
f 231 242 234
f 232 239 243
f 233 241 244
f 233 244 242
f 234 242 245
f 234 245 235
f 236 235 246
f 245 246 235
f 236 247 237
f 236 246 247
f 237 248 238
f 237 247 248
f 238 249 239
f 248 249 238
f 250 243 239
f 250 239 249
f 251 241 240
f 252 244 241
f 252 241 251
f 242 244 253
f 245 242 254
f 242 253 254
f 255 243 250
f 251 240 256
f 252 257 244
f 257 253 244
f 245 254 258
f 245 258 246
f 246 259 247
f 246 258 259
f 248 247 260
f 247 259 260
f 248 261 249
f 248 260 261
f 262 250 249
f 261 262 249
f 255 250 263
f 263 250 262
f 264 252 251
f 252 265 257
f 264 265 252
f 266 253 257
f 267 254 253
f 267 253 266
f 258 254 268
f 268 254 267
f 269 255 263
f 270 257 265
f 270 266 257
f 271 258 268
f 259 258 271
f 259 272 260
f 259 271 272
f 273 261 260
f 272 273 260
f 261 274 262
f 273 274 261
f 275 263 262
f 274 275 262
f 276 269 263
f 275 276 263
f 264 277 265
f 267 266 278
f 268 267 278
f 279 266 270
f 278 266 279
f 271 268 280
f 271 280 272
f 276 281 269
f 268 278 282
f 268 283 280
f 282 283 268
f 272 284 273
f 280 284 272
f 285 274 273
f 284 285 273
f 286 275 274
f 285 286 274
f 275 287 276
f 286 287 275
f 276 288 281
f 276 287 288
f 289 281 288
f 285 290 286
f 286 291 287
f 287 292 288
f 287 291 292
f 289 293 281
f 293 294 281
f 294 269 281
f 294 295 269
f 269 295 255
f 295 296 255
f 255 296 243
f 297 243 296
f 232 243 297
f 232 297 298
f 221 232 298
f 299 221 298
f 299 213 221
f 299 298 300
f 300 298 301
f 298 297 301
f 300 301 302
f 301 297 303
f 297 296 303
f 301 304 302
f 301 303 304
f 303 296 305
f 295 305 296
f 304 303 306
f 303 305 306
f 304 306 307
f 304 307 308
f 308 307 309
f 306 305 310
f 307 306 311
f 306 310 311
f 307 312 309
f 307 311 312
f 313 310 305
f 295 313 305
f 294 313 295
f 309 312 314
f 315 313 294
f 316 310 313
f 315 316 313
f 311 310 317
f 316 317 310
f 312 311 318
f 311 317 318
f 312 319 314
f 312 318 319
f 293 315 294
f 314 319 105
f 314 105 89
f 314 89 80
f 320 316 315
f 293 321 315
f 321 320 315
f 322 317 316
f 320 322 316
f 323 318 317
f 322 323 317
f 319 318 324
f 323 324 318
f 319 325 105
f 319 324 325
f 326 321 293
f 289 326 293
f 327 326 289
f 327 289 328
f 328 289 288
f 292 328 288
f 329 327 328
f 105 325 107
f 330 329 328
f 331 322 320
f 321 332 320
f 333 321 326
f 333 326 327
f 333 332 321
f 329 334 327
f 334 333 327
f 325 324 335
f 332 331 320
f 336 335 324
f 336 324 323
f 337 336 323
f 322 337 323
f 331 337 322
f 338 337 331
f 332 339 331
f 339 338 331
f 333 340 332
f 332 340 339
f 341 336 337
f 341 337 338
f 334 342 333
f 342 340 333
f 343 335 336
f 341 343 336
f 343 344 335
f 344 345 335
f 325 335 345
f 346 341 338
f 339 347 338
f 347 346 338
f 339 340 348
f 339 348 347
f 341 349 343
f 346 349 341
f 350 344 343
f 349 350 343
f 350 351 344
f 346 352 349
f 347 353 346
f 346 353 352
f 347 348 354
f 347 354 353
f 349 355 350
f 352 355 349
f 356 351 350
f 355 356 350
f 357 351 356
f 358 351 357
f 358 359 351
f 360 358 357
f 352 353 361
f 352 362 355
f 362 352 361
f 354 363 353
f 353 363 361
f 364 356 355
f 364 355 362
f 365 357 356
f 365 356 364
f 366 360 357
f 365 366 357
f 366 367 360
f 363 368 361
f 361 369 362
f 369 364 362
f 370 365 364
f 369 370 364
f 365 371 366
f 370 371 365
f 372 361 368
f 369 361 372
f 371 373 366
f 372 368 374
f 369 372 375
f 369 375 370
f 370 376 371
f 370 375 376
f 377 373 371
f 377 371 376
f 372 374 378
f 372 378 375
f 377 379 373
f 375 378 380
f 375 380 376
f 377 376 381
f 380 381 376
f 380 378 382
f 377 381 383
f 380 382 384
f 380 384 381
f 383 381 385
f 381 384 385
f 382 386 384
f 387 384 386
f 388 385 384
f 388 384 387
f 388 387 389
f 16 213 27
f 27 213 299
f 27 299 39
f 299 300 39
f 39 300 51
f 300 302 51
f 51 302 62
f 302 308 62
f 302 304 308
f 308 71 62
f 308 309 71
f 309 80 71
f 309 314 80
f 20 32 390
f 20 390 33
f 391 390 32
f 33 390 392
f 391 32 45
f 393 390 391
f 392 390 393
f 33 392 46
f 394 391 45
f 394 393 391
f 58 394 45
f 222 35 395
f 395 35 47
f 222 395 396
f 395 47 397
f 398 396 395
f 398 395 397
f 222 396 229
f 399 397 47
f 46 399 47
f 46 400 399
f 46 392 400
f 392 401 400
f 392 393 401
f 398 402 396
f 396 403 229
f 396 402 403
f 400 401 404
f 400 405 399
f 399 405 397
f 400 404 405
f 398 397 406
f 405 406 397
f 398 407 402
f 398 406 407
f 229 403 240
f 408 402 407
f 408 403 402
f 256 240 403
f 256 403 408
f 405 409 406
f 410 407 406
f 409 410 406
f 411 408 407
f 410 411 407
f 411 412 408
f 256 408 412
f 410 413 411
f 414 412 411
f 413 414 411
f 415 256 412
f 415 251 256
f 414 416 412
f 416 415 412
f 416 264 415
f 413 417 414
f 414 418 416
f 414 417 418
f 416 277 264
f 418 277 416
f 418 419 277
f 420 419 418
f 420 421 419
f 394 422 393
f 393 422 401
f 394 423 422
f 401 422 424
f 425 423 394
f 58 425 394
f 60 425 58
f 60 426 425
f 60 61 426
f 422 423 427
f 422 427 424
f 404 401 424
f 61 428 426
f 69 428 61
f 69 429 428
f 425 430 423
f 425 426 430
f 431 427 423
f 431 423 430
f 432 424 427
f 404 424 433
f 433 424 432
f 78 429 69
f 428 434 426
f 426 434 430
f 428 429 435
f 428 435 434
f 431 436 427
f 432 427 436
f 404 433 409
f 405 404 409
f 437 429 78
f 438 435 429
f 437 438 429
f 439 431 430
f 439 430 434
f 431 440 436
f 439 440 431
f 433 432 441
f 442 432 436
f 441 432 442
f 409 433 443
f 433 441 443
f 409 443 410
f 87 437 78
f 444 434 435
f 439 434 444
f 438 445 435
f 444 435 445
f 436 440 446
f 442 436 446
f 410 443 447
f 410 447 413
f 87 448 437
f 437 449 438
f 437 448 449
f 438 450 445
f 449 450 438
f 451 440 439
f 451 439 444
f 440 452 446
f 451 452 440
f 453 441 442
f 443 441 454
f 443 454 447
f 454 441 453
f 413 447 455
f 454 455 447
f 87 96 448
f 456 444 445
f 456 451 444
f 457 445 450
f 456 445 457
f 458 446 452
f 458 459 446
f 453 442 459
f 459 442 446
f 96 460 448
f 449 461 450
f 457 450 462
f 462 450 461
f 458 452 463
f 458 464 459
f 465 460 96
f 95 465 96
f 95 104 465
f 466 456 457
f 463 452 467
f 466 467 456
f 451 467 452
f 456 467 451
f 104 468 465
f 465 469 460
f 465 468 469
f 462 461 470
f 463 467 471
f 466 471 467
f 114 468 104
f 472 463 471
f 472 473 463
f 458 473 464
f 458 463 473
f 466 474 471
f 475 474 466
f 475 466 457
f 475 457 462
f 475 462 476
f 476 462 470
f 475 476 477
f 475 477 474
f 478 473 472
f 478 479 473
f 479 464 473
f 480 464 479
f 481 464 480
f 481 459 464
f 453 459 481
f 453 481 482
f 454 453 482
f 454 482 455
f 482 483 455
f 417 455 483
f 413 455 417
f 417 483 420
f 417 420 418
f 482 481 484
f 482 484 483
f 484 481 480
f 420 483 485
f 484 485 483
f 420 485 421
f 484 480 486
f 484 486 485
f 421 485 487
f 487 485 486
f 487 486 488
f 487 488 489
f 486 490 488
f 486 480 490
f 490 480 479
f 490 479 491
f 478 491 479
f 478 492 491
f 493 492 478
f 493 478 472
f 493 472 494
f 472 471 494
f 494 471 474
f 494 474 495
f 495 474 477
f 495 477 496
f 497 496 477
f 497 477 476
f 497 476 498
f 476 470 498
f 498 470 499
f 470 500 499
f 470 461 500
f 501 500 461
f 501 461 449
f 448 501 449
f 448 460 501
f 460 502 501
f 502 500 501
f 469 502 460
f 469 503 502
f 502 504 500
f 503 504 502
f 499 500 504
f 469 505 503
f 468 505 469
f 468 506 505
f 114 506 468
f 114 123 506
f 123 507 506
f 506 508 505
f 506 507 508
f 503 505 509
f 509 505 508
f 510 504 503
f 510 503 509
f 131 507 123
f 510 511 504
f 499 504 511
f 512 499 511
f 498 499 512
f 513 498 512
f 497 498 513
f 514 497 513
f 514 496 497
f 514 515 496
f 131 516 507
f 517 508 507
f 517 507 516
f 509 508 518
f 517 518 508
f 519 510 509
f 519 509 518
f 510 520 511
f 519 520 510
f 512 511 521
f 521 511 520
f 513 512 522
f 522 512 521
f 523 514 513
f 523 513 522
f 524 496 515
f 495 496 524
f 525 495 524
f 525 494 495
f 493 494 525
f 526 493 525
f 526 492 493
f 527 492 526
f 528 492 527
f 528 491 492
f 529 491 528
f 490 491 529
f 488 490 529
f 530 526 525
f 530 525 524
f 527 526 531
f 531 526 530
f 529 528 532
f 533 528 527
f 533 532 528
f 534 527 531
f 533 527 534
f 535 531 530
f 535 530 536
f 530 524 536
f 536 524 515
f 536 515 537
f 538 537 515
f 514 538 515
f 523 538 514
f 523 539 538
f 538 540 537
f 538 539 540
f 534 531 541
f 541 531 535
f 523 542 539
f 523 522 542
f 542 522 543
f 522 521 543
f 521 544 543
f 521 520 544
f 544 520 545
f 519 545 520
f 519 546 545
f 519 518 546
f 546 518 547
f 547 518 517
f 547 517 548
f 548 517 516
f 548 516 161
f 139 161 516
f 139 516 131
f 139 147 161
f 548 161 549
f 547 548 550
f 550 548 549
f 546 547 551
f 551 547 550
f 552 545 546
f 552 546 551
f 549 161 160
f 549 160 553
f 550 549 554
f 554 549 553
f 551 550 555
f 555 550 554
f 556 552 551
f 556 551 555
f 553 160 169
f 556 557 552
f 552 557 558
f 552 558 545
f 544 545 558
f 544 558 559
f 544 559 543
f 560 543 559
f 542 543 560
f 561 542 560
f 561 539 542
f 561 562 539
f 540 539 562
f 563 540 562
f 564 540 563
f 537 540 564
f 565 537 564
f 565 536 537
f 535 536 565
f 535 565 566
f 541 535 566
f 565 564 567
f 565 567 566
f 568 564 563
f 568 567 564
f 569 561 560
f 561 570 562
f 563 562 571
f 562 570 571
f 568 563 572
f 572 563 571
f 569 560 573
f 560 559 573
f 573 559 574
f 559 558 574
f 574 558 557
f 569 570 561
f 575 574 557
f 573 574 576
f 576 574 575
f 569 573 577
f 577 573 576
f 578 570 569
f 578 569 577
f 571 570 579
f 578 579 570
f 572 571 580
f 580 571 579
f 581 575 557
f 581 557 556
f 581 556 582
f 556 555 582
f 555 583 582
f 555 554 583
f 583 554 584
f 554 553 584
f 584 553 585
f 553 169 585
f 169 177 585
f 177 586 585
f 584 585 587
f 585 586 587
f 583 584 588
f 584 587 588
f 582 583 589
f 589 583 588
f 590 581 582
f 590 582 589
f 177 184 586
f 184 591 586
f 587 586 592
f 586 591 592
f 588 587 593
f 587 592 593
f 589 588 594
f 594 588 593
f 590 589 595
f 595 589 594
f 189 591 184
f 590 595 596
f 597 590 596
f 597 581 590
f 597 575 581
f 598 575 597
f 598 576 575
f 599 576 598
f 599 577 576
f 599 600 577
f 600 578 577
f 600 601 578
f 578 601 579
f 602 579 601
f 580 579 602
f 602 601 603
f 601 604 603
f 600 604 601
f 598 597 605
f 606 599 598
f 606 598 605
f 607 600 599
f 606 607 599
f 607 604 600
f 606 605 608
f 609 607 606
f 609 606 608
f 607 610 604
f 609 610 607
f 608 605 611
f 605 596 611
f 605 597 596
f 596 612 611
f 596 595 612
f 612 595 613
f 595 594 613
f 613 594 614
f 594 593 614
f 593 615 614
f 593 592 615
f 592 616 615
f 592 591 616
f 617 616 591
f 189 617 591
f 195 617 189
f 188 195 189
f 195 618 617
f 619 616 617
f 618 619 617
f 616 620 615
f 619 620 616
f 621 614 615
f 621 615 620
f 613 614 622
f 622 614 621
f 195 199 618
f 193 199 195
f 618 199 623
f 624 619 618
f 624 618 623
f 619 625 620
f 624 625 619
f 621 620 626
f 626 620 625
f 622 621 627
f 621 626 627
f 623 199 202
f 197 202 199
f 622 627 628
f 629 622 628
f 629 613 622
f 612 613 629
f 612 629 630
f 611 612 630
f 631 611 630
f 608 611 631
f 632 608 631
f 632 609 608
f 633 609 632
f 633 610 609
f 634 610 633
f 630 629 635
f 635 629 628
f 631 630 636
f 636 630 635
f 632 631 637
f 631 636 637
f 633 632 638
f 632 637 638
f 636 635 639
f 637 636 640
f 636 639 640
f 637 641 638
f 637 640 641
f 639 635 642
f 635 628 642
f 628 643 642
f 628 627 643
f 627 644 643
f 626 644 627
f 626 645 644
f 626 625 645
f 645 625 646
f 624 646 625
f 647 646 624
f 647 624 623
f 648 647 623
f 648 623 202
f 204 648 202
f 204 649 648
f 207 649 204
f 648 650 647
f 648 649 650
f 647 651 646
f 650 651 647
f 645 646 652
f 646 651 652
f 644 645 653
f 653 645 652
f 207 654 649
f 649 654 650
f 207 655 654
f 650 656 651
f 650 654 656
f 652 651 657
f 656 657 651
f 653 652 658
f 652 657 658
f 655 659 654
f 656 654 659
f 653 658 660
f 661 653 660
f 644 653 661
f 644 661 643
f 643 661 662
f 642 643 662
f 663 642 662
f 639 642 663
f 664 639 663
f 640 639 664
f 665 640 664
f 641 640 665
f 662 661 666
f 661 660 666
f 663 662 667
f 662 666 667
f 664 663 668
f 663 667 668
f 665 664 669
f 664 668 669
f 669 668 670
f 667 666 671
f 672 668 667
f 670 668 672
f 672 667 671
f 671 666 673
f 666 660 673
f 673 660 674
f 674 660 658
f 674 658 675
f 658 657 675
f 676 675 657
f 656 676 657
f 656 659 676
f 659 677 676
f 678 677 659
f 655 678 659
f 670 672 679
f 680 675 676
f 674 675 681
f 681 675 680
f 673 674 682
f 682 674 681
f 677 683 676
f 680 676 683
f 677 684 683
f 685 683 684
f 680 683 685
f 681 680 686
f 686 680 685
f 687 682 681
f 687 681 686
f 688 682 687
f 688 689 682
f 689 673 682
f 671 673 689
f 690 671 689
f 672 671 690
f 264 251 415
f 270 265 691
f 692 270 691
f 279 270 692
f 692 691 693
f 279 692 694
f 693 691 419
f 419 691 277
f 692 693 695
f 694 692 695
f 279 694 696
f 278 279 696
f 278 696 282
f 696 697 282
f 697 283 282
f 693 419 421
f 695 693 698
f 693 421 698
f 696 694 699
f 696 699 697
f 694 695 700
f 694 700 699
f 697 701 283
f 283 701 702
f 280 283 702
f 280 702 284
f 701 703 702
f 702 704 284
f 703 704 702
f 704 285 284
f 704 290 285
f 699 705 697
f 697 705 701
f 701 706 703
f 701 705 706
f 704 707 290
f 703 707 704
f 421 487 698
f 700 708 699
f 699 708 705
f 706 709 703
f 703 709 707
f 290 707 710
f 290 710 711
f 290 711 286
f 286 711 291
f 291 711 712
f 291 712 292
f 711 710 713
f 712 711 713
f 292 712 330
f 292 330 328
f 708 714 705
f 706 705 714
f 706 715 709
f 706 714 715
f 707 716 710
f 709 716 707
f 713 710 717
f 710 716 717
f 712 713 718
f 712 718 330
f 719 714 708
f 720 719 708
f 700 720 708
f 721 720 700
f 695 721 700
f 695 698 721
f 698 489 721
f 721 489 720
f 698 487 489
f 489 722 720
f 720 722 719
f 719 723 714
f 715 714 723
f 724 717 716
f 722 532 719
f 719 532 723
f 725 724 716
f 725 716 709
f 715 725 709
f 715 726 725
f 715 723 726
f 726 727 725
f 727 724 725
f 722 529 532
f 488 529 722
f 723 532 533
f 723 533 726
f 726 728 727
f 726 533 728
f 728 729 727
f 727 730 724
f 727 729 730
f 730 731 724
f 731 717 724
f 732 717 731
f 713 717 732
f 713 732 718
f 718 732 733
f 718 733 734
f 718 734 330
f 330 734 329
f 329 734 735
f 329 735 334
f 735 736 334
f 734 737 735
f 734 733 737
f 736 342 334
f 735 738 736
f 735 737 738
f 732 731 739
f 732 739 733
f 736 740 342
f 736 738 741
f 736 741 740
f 739 742 733
f 742 737 733
f 743 738 737
f 742 743 737
f 342 740 744
f 342 744 340
f 348 340 744
f 738 745 741
f 743 745 738
f 746 742 739
f 747 746 739
f 731 747 739
f 730 747 731
f 748 348 744
f 740 749 744
f 749 748 744
f 741 750 740
f 740 750 749
f 745 751 741
f 751 750 741
f 752 747 730
f 747 753 746
f 746 754 742
f 753 754 746
f 754 743 742
f 755 745 743
f 754 755 743
f 748 354 348
f 745 756 751
f 729 752 730
f 752 757 747
f 747 757 753
f 755 756 745
f 748 758 354
f 749 750 759
f 751 760 750
f 761 751 756
f 761 760 751
f 757 762 753
f 763 755 754
f 753 763 754
f 762 763 753
f 764 756 755
f 763 764 755
f 760 759 750
f 567 762 757
f 567 757 566
f 566 757 752
f 541 566 752
f 729 541 752
f 534 541 729
f 534 729 728
f 533 534 728
f 568 762 567
f 568 765 762
f 762 765 763
f 765 764 763
f 568 572 765
f 765 572 766
f 765 766 764
f 764 766 767
f 764 767 756
f 761 756 767
f 761 767 768
f 761 768 769
f 761 769 760
f 760 769 770
f 760 770 759
f 770 771 759
f 771 772 759
f 749 759 772
f 749 772 748
f 748 772 758
f 758 772 773
f 771 773 772
f 758 773 774
f 758 774 363
f 758 363 354
f 774 368 363
f 374 368 774
f 774 773 775
f 776 773 771
f 776 775 773
f 777 771 770
f 776 771 777
f 778 374 774
f 778 774 775
f 778 779 374
f 779 378 374
f 780 775 776
f 780 778 775
f 781 776 777
f 781 780 776
f 782 779 778
f 780 782 778
f 779 382 378
f 783 781 777
f 783 777 784
f 777 770 784
f 769 784 770
f 769 785 784
f 768 785 769
f 768 786 785
f 768 787 786
f 767 787 768
f 766 787 767
f 580 787 766
f 602 786 787
f 580 602 787
f 572 580 766
f 785 788 784
f 788 783 784
f 785 786 789
f 785 789 788
f 602 603 786
f 789 786 603
f 788 790 783
f 789 791 788
f 791 790 788
f 789 603 792
f 789 792 791
f 792 603 604
f 791 793 790
f 792 634 791
f 792 604 610
f 792 610 634
f 790 793 794
f 790 794 795
f 790 795 783
f 783 795 781
f 795 796 781
f 781 796 780
f 796 782 780
f 796 797 782
f 797 798 782
f 782 798 779
f 798 382 779
f 798 386 382
f 797 799 798
f 798 799 386
f 795 800 796
f 796 800 797
f 794 800 795
f 797 801 799
f 802 386 799
f 387 386 802
f 800 803 797
f 797 803 801
f 801 804 799
f 804 802 799
f 387 802 805
f 806 803 800
f 794 806 800
f 803 807 801
f 801 807 804
f 804 808 802
f 808 805 802
f 387 805 389
f 809 806 794
f 809 794 793
f 810 803 806
f 810 807 803
f 809 793 811
f 793 812 811
f 791 812 793
f 634 812 791
f 634 813 812
f 811 812 813
f 634 633 813
f 804 807 814
f 804 814 808
f 809 815 806
f 815 810 806
f 809 811 816
f 809 816 815
f 811 813 817
f 811 817 816
f 633 638 813
f 817 813 638
f 815 818 810
f 818 819 810
f 810 819 807
f 814 807 819
f 814 819 820
f 814 820 821
f 814 821 808
f 821 822 808
f 822 805 808
f 823 805 822
f 824 822 821
f 816 825 815
f 825 818 815
f 816 817 826
f 816 826 825
f 817 638 641
f 817 641 826
f 818 827 819
f 827 820 819
f 821 820 828
f 824 821 828
f 829 822 824
f 825 830 818
f 830 827 818
f 827 831 820
f 828 820 831
f 824 828 832
f 826 833 825
f 825 833 830
f 641 665 826
f 826 665 833
f 830 834 827
f 834 831 827
f 828 831 835
f 828 835 832
f 833 836 830
f 836 834 830
f 837 831 834
f 837 835 831
f 832 835 838
f 665 669 833
f 833 669 836
f 836 839 834
f 839 837 834
f 837 840 835
f 838 835 840
f 841 832 838
f 842 832 841
f 842 841 843
f 836 669 670
f 836 670 839
f 844 837 839
f 844 840 837
f 841 838 845
f 838 840 846
f 838 846 845
f 841 845 847
f 670 679 839
f 679 844 839
f 844 848 840
f 848 846 840
f 679 849 844
f 849 848 844
f 846 850 845
f 851 846 848
f 851 850 846
f 845 850 852
f 690 849 679
f 672 690 679
f 688 848 849
f 688 851 848
f 690 689 849
f 688 849 689
f 851 853 850
f 688 687 851
f 687 853 851
f 854 850 853
f 687 686 853
f 853 686 855
f 691 265 277
f 107 325 345
f 107 345 116
f 345 359 116
f 344 359 345
f 359 856 116
f 117 116 856
f 117 856 125
f 344 351 359
f 358 856 359
f 358 149 856
f 360 149 358
f 148 149 360
f 148 360 367
f 151 148 367
f 857 151 367
f 857 858 151
f 858 152 151
f 858 162 152
f 857 859 858
f 858 860 162
f 859 860 858
f 379 859 857
f 379 857 373
f 860 861 162
f 861 163 162
f 861 171 163
f 862 859 379
f 863 860 859
f 862 863 859
f 860 864 861
f 863 864 860
f 861 865 171
f 861 864 865
f 383 862 379
f 377 383 379
f 865 866 171
f 866 178 171
f 171 178 170
f 866 867 178
f 178 867 182
f 383 868 862
f 862 869 863
f 862 868 869
f 870 864 863
f 869 870 863
f 865 864 871
f 870 871 864
f 865 872 866
f 865 871 872
f 866 873 867
f 866 872 873
f 182 867 874
f 874 867 873
f 383 385 868
f 190 182 874
f 385 875 868
f 869 868 876
f 868 875 876
f 869 877 870
f 869 876 877
f 870 878 871
f 877 878 870
f 879 872 871
f 878 879 871
f 880 873 872
f 879 880 872
f 881 874 873
f 880 881 873
f 882 190 874
f 881 882 874
f 388 875 385
f 882 194 190
f 388 389 875
f 876 875 883
f 875 389 883
f 877 876 884
f 876 883 884
f 877 885 878
f 877 884 885
f 886 879 878
f 886 878 885
f 879 887 880
f 886 887 879
f 888 881 880
f 887 888 880
f 881 889 882
f 888 889 881
f 882 890 194
f 882 889 890
f 890 201 194
f 389 823 883
f 389 805 823
f 891 884 883
f 823 891 883
f 884 892 885
f 891 892 884
f 893 886 885
f 892 893 885
f 886 894 887
f 893 894 886
f 887 895 888
f 887 894 895
f 888 896 889
f 895 896 888
f 897 890 889
f 896 897 889
f 898 201 890
f 897 898 890
f 898 205 201
f 201 205 198
f 823 829 891
f 823 822 829
f 891 899 892
f 891 829 899
f 892 900 893
f 892 899 900
f 901 894 893
f 900 901 893
f 894 902 895
f 901 902 894
f 895 903 896
f 895 902 903
f 896 904 897
f 896 903 904
f 897 905 898
f 897 904 905
f 898 906 205
f 905 906 898
f 906 206 205
f 899 829 842
f 829 824 842
f 899 843 900
f 899 842 843
f 900 907 901
f 843 907 900
f 908 902 901
f 907 908 901
f 909 903 902
f 908 909 902
f 910 904 903
f 909 910 903
f 904 911 905
f 910 911 904
f 905 912 906
f 905 911 912
f 906 913 206
f 906 912 913
f 824 832 842
f 206 913 655
f 206 655 207
f 907 914 908
f 908 915 909
f 908 914 915
f 909 916 910
f 915 916 909
f 910 917 911
f 910 916 917
f 911 918 912
f 911 917 918
f 913 912 678
f 913 678 655
f 918 678 912
f 907 847 914
f 914 847 852
f 914 919 915
f 915 919 916
f 914 852 919
f 920 917 916
f 919 920 916
f 921 918 917
f 920 921 917
f 918 684 678
f 921 684 918
f 845 852 847
f 678 684 677
f 852 854 919
f 919 854 920
f 855 921 920
f 854 855 920
f 685 684 921
f 855 685 921
f 852 850 854
f 854 853 855
f 855 686 685
f 488 722 489
f 856 149 125
f 133 125 149
f 366 373 367
f 373 857 367
f 843 847 907
f 843 841 847
f 125 149 856
f 149 125 133
f 367 373 366
f 367 857 373
f 907 847 843
f 847 841 843