# https://github.com/mikedh/trimesh
v 0.00773653 -0.00702197 0.05919072
v 0.00679826 -0.00957036 0.06199410
v 0.00880251 -0.01710342 0.05754735
v 0.00947386 -0.01694769 0.05293689
v 0.00208959 -0.03072340 0.04648062
v 0.00183817 -0.02885602 0.05253011
v -0.00502907 -0.02800576 0.05355393
v -0.00666672 -0.02962620 0.04832121
v -0.00075545 -0.00407713 0.06150256
v -0.00148311 -0.00671567 0.06447433
v -0.00895926 -0.02002320 0.05396716
v -0.00827438 -0.01987017 0.05773437
v -0.00934509 -0.00912566 0.05944835
v -0.00768863 -0.01038645 0.06347233
v 0.00962831 -0.02555429 0.04587834
v 0.00167930 -0.02864467 0.04489336
v 0.00918538 -0.01637558 0.05066322
v -0.00671287 -0.02787233 0.04703509
v -0.00873451 -0.01895181 0.05117842
v 0.00801266 -0.00682980 0.05700506
v -0.00093706 -0.00402759 0.05913203
v -0.00880316 -0.00833255 0.05795814
v 0.00811000 -0.02580848 0.05342800
v 0.01011400 -0.02692005 0.04733568
v 0.01233064 -0.00758867 0.04185504
v 0.01034385 -0.02531442 0.04078464
v 0.01252595 -0.00911822 0.03075021
v 0.00681805 0.00768592 0.05093713
v 0.00811418 -0.00599545 0.05335609
v 0.01130130 0.01237646 0.04311043
v 0.00844974 0.01926023 0.05211982
v 0.00888437 0.01295576 0.03562198
v 0.00190030 -0.01294430 0.06855238
v 0.00635730 -0.01744396 0.06864924
v 0.00548713 -0.02502029 0.05827427
v 0.00897987 -0.02440270 0.06996934
v 0.00821817 -0.02808922 0.05931905
v 0.00264246 -0.01914657 0.07184176
v -0.00060734 -0.01923974 0.07313040
v 0.00255175 -0.02723262 0.07398471
v 0.00622253 -0.02548435 0.07270917
v 0.00373953 -0.03047739 0.07097011
v 0.00597043 -0.02903812 0.07007524
v -0.00173686 -0.01363477 0.06889919
v -0.00077438 -0.00397824 0.05811178
v -0.00077438 0.00879123 0.05441795
v -0.00077444 0.02099344 0.05502257
v 0.00551964 -0.00961246 0.02573892
v 0.00264344 0.01289995 0.03277811
v 0.01208082 -0.02347722 0.00296722
v 0.00693709 -0.02429847 0.00296722
v 0.00729686 -0.02655051 0.00001813
v 0.01244035 -0.02572969 0.00001813
v -0.00660956 -0.02085816 0.02723221
v 0.00506074 -0.02085816 0.02723221
v -0.00965557 -0.02631126 0.03999743
v 0.00403705 -0.03179871 0.05819530
v 0.00921550 -0.03398973 0.06089247
v 0.00586479 -0.03654420 0.06192286
v -0.00706871 -0.00961221 0.02573892
v 0.00688688 -0.02039452 0.00431030
v 0.00628067 -0.01761702 0.01153688
v 0.00628061 -0.01200868 0.01141409
v 0.00688725 -0.01686036 0.00001813
v 0.01035178 -0.01686036 0.00001813
v 0.01095793 -0.01200868 0.01141409
v 0.01035154 -0.02039452 0.00431030
v 0.01095806 -0.01761751 0.01153688
v -0.00077426 0.02900883 0.05138756
v 0.00745505 0.02715251 0.04931589
v 0.01301897 0.02709806 0.03929885
v 0.01062017 0.02925576 0.04517447
v 0.01181446 0.02947430 0.00263762
v 0.00560064 0.02871782 0.00263762
v 0.00576904 0.02733393 0.00000000
v 0.01198310 0.02808967 0.00000000
v 0.00451150 0.03143460 0.03977766
v 0.00224520 0.03339534 0.04541618
v -0.00077444 0.03293238 0.04225451
v -0.00606020 0.03143460 0.03977766
v 0.00560144 0.01737398 0.02703776
v 0.00560156 0.02694257 0.01929039
v 0.01098184 0.02694257 0.01929039
v 0.01039271 0.01737398 0.02703776
v 0.00560169 0.03129663 0.02786608
v 0.01234337 0.03093268 0.02786608
v 0.00687465 0.03284302 0.00429027
v 0.01107003 0.03284302 0.00429027
v 0.01113788 0.03540493 0.01553455
v 0.00639885 0.03540493 0.01553455
v 0.00560144 0.03948667 0.01663937
v 0.00687465 0.03606412 0.00000000
v 0.01107040 0.03606394 0.00000000
v 0.00896334 0.03948643 0.01663937
v 0.00295909 -0.01661416 0.07961334
v 0.00905595 -0.03379030 0.06701835
v 0.00131713 0.03978781 0.04105401
v -0.00077444 0.03756687 0.03961554
v -0.00077457 0.04078484 0.04237761
v -0.00077444 0.05160451 0.03440138
v -0.00966325 -0.00599545 0.05335609
v -0.01387959 -0.00758842 0.04185504
v -0.00186580 -0.02790423 0.05848114
v -0.01407484 -0.00911797 0.03075021
v -0.00836687 0.00768592 0.05093713
v -0.01285012 0.01237689 0.04311043
v -0.01043307 0.01295533 0.03562198
v -0.00714498 -0.02274016 0.06902904
v -0.00488569 -0.01560540 0.06874309
v -0.00148925 -0.03189729 0.05959216
v -0.00427284 -0.02960100 0.07034208
v -0.00311252 -0.02140353 0.07200358
v -0.00138576 -0.02846871 0.07292322
v 0.00108476 -0.03095386 0.07021266
v -0.00999856 0.01926023 0.05211982
v -0.00419251 0.01289971 0.03277811
v -0.01362921 -0.02347722 0.00296722
v -0.01398874 -0.02572969 0.00001813
v -0.00884501 -0.02655069 0.00001813
v -0.00848579 -0.02429829 0.00296722
v 0.00162596 -0.03696684 0.06110591
v -0.00843577 -0.02039452 0.00431030
v -0.00843528 -0.01685968 0.00001813
v -0.00782943 -0.01200868 0.01141409
v -0.00782943 -0.01761727 0.01153688
v -0.01190061 -0.01686036 0.00001813
v -0.01250670 -0.01200892 0.01141409
v -0.01190036 -0.02039452 0.00431030
v -0.01250657 -0.01761702 0.01153688
v -0.00900394 0.02715251 0.04931589
v -0.01456724 0.02709806 0.03929885
v -0.01216887 0.02925576 0.04517447
v -0.01336341 0.02947430 0.00263762
v -0.01353162 0.02808967 0.00000000
v -0.00731817 0.02733393 0.00000000
v -0.00714928 0.02871850 0.00263762
v -0.00379402 0.03339558 0.04541618
v -0.01253066 0.02694257 0.01929039
v -0.00714996 0.02694257 0.01929039
v -0.00715027 0.01737423 0.02703776
v -0.01194154 0.01737398 0.02703776
v -0.00714996 0.03129663 0.02786608
v -0.01389219 0.03093268 0.02786608
v -0.01268664 0.03540493 0.01553455
v -0.01261873 0.03284277 0.00429027
v -0.00842348 0.03284302 0.00429027
v -0.00794780 0.03540493 0.01553455
v -0.00842348 0.03606412 0.00000000
v -0.00715027 0.03948643 0.01663937
v -0.01261873 0.03606394 0.00000000
v -0.01051161 0.03948710 0.01663937
v -0.00468638 -0.01961334 0.07982838
v 0.00190614 -0.03659502 0.06721956
v -0.00286590 0.03978757 0.04105401
v 0.00576055 -0.03577174 0.06899426
f 1 2 3
f 1 3 4
f 5 6 7
f 5 7 8
f 1 9 10
f 1 10 2
f 11 8 7
f 11 7 12
f 9 13 14
f 9 14 10
f 15 16 17
f 16 18 17
f 18 19 17
f 17 19 20
f 20 19 21
f 19 22 21
f 7 6 12
f 6 23 12
f 23 3 12
f 12 3 14
f 14 3 10
f 3 2 10
f 18 16 5
f 18 5 8
f 11 19 18
f 11 18 8
f 20 21 9
f 20 9 1
f 21 22 13
f 21 13 9
f 1 4 17
f 1 17 20
f 4 3 23
f 4 23 24
f 17 4 24
f 17 24 15
f 13 11 12
f 13 12 14
f 13 22 19
f 13 19 11
f 5 16 15
f 5 15 24
f 23 6 5
f 23 5 24
f 25 26 27
f 28 29 25
f 28 25 30
f 28 30 31
f 32 30 25
f 32 25 27
f 29 33 34
f 29 34 35
f 34 36 37
f 34 37 35
f 38 39 40
f 38 40 41
f 41 40 42
f 41 42 43
f 41 36 34
f 41 34 38
f 44 39 38
f 44 38 33
f 29 45 44
f 29 44 33
f 29 28 46
f 29 46 45
f 47 46 28
f 47 28 31
f 27 48 49
f 27 49 32
f 50 51 52
f 50 52 53
f 54 55 26
f 54 26 56
f 35 37 57
f 58 59 57
f 58 57 37
f 48 55 54
f 48 54 60
f 61 62 63
f 61 63 64
f 48 63 62
f 48 62 55
f 65 64 63
f 65 63 66
f 48 27 66
f 48 66 63
f 67 65 66
f 67 66 68
f 26 68 66
f 26 66 27
f 61 67 68
f 61 68 62
f 55 62 68
f 55 68 26
f 69 47 31
f 69 31 70
f 30 32 71
f 30 71 72
f 31 30 72
f 31 72 70
f 73 74 75
f 73 75 76
f 72 71 77
f 72 77 78
f 79 77 80
f 81 82 83
f 81 83 84
f 32 49 81
f 32 81 84
f 85 82 81
f 49 77 85
f 49 85 81
f 71 86 85
f 71 85 77
f 83 86 84
f 32 84 86
f 32 86 71
f 87 88 89
f 87 89 90
f 83 82 90
f 83 90 89
f 87 90 91
f 87 91 92
f 82 85 91
f 82 91 90
f 93 92 91
f 93 91 94
f 85 86 94
f 85 94 91
f 88 93 94
f 88 94 89
f 83 89 94
f 83 94 86
f 43 37 36
f 43 36 41
f 95 34 33
f 38 95 33
f 34 95 38
f 37 43 96
f 37 96 58
f 70 72 78
f 70 78 69
f 97 78 79
f 97 79 98
f 99 69 78
f 99 78 97
f 97 98 100
f 99 97 100
f 67 61 51
f 67 51 50
f 51 61 64
f 51 64 52
f 52 64 65
f 52 65 53
f 65 67 50
f 65 50 53
f 73 88 87
f 73 87 74
f 74 87 92
f 74 92 75
f 92 93 76
f 92 76 75
f 93 88 73
f 93 73 76
f 101 102 56
f 101 56 103
f 56 102 104
f 105 106 102
f 105 102 101
f 107 104 102
f 107 102 106
f 108 109 103
f 108 103 110
f 108 110 111
f 112 113 40
f 112 40 39
f 42 40 113
f 42 113 114
f 108 111 113
f 108 113 112
f 44 109 112
f 44 112 39
f 44 45 101
f 44 101 109
f 46 105 101
f 46 101 45
f 47 115 105
f 47 105 46
f 116 60 104
f 116 104 107
f 117 118 119
f 117 119 120
f 26 35 103
f 26 103 56
f 57 103 35
f 57 59 121
f 57 121 110
f 122 123 124
f 122 124 125
f 60 54 125
f 60 125 124
f 124 123 126
f 124 126 127
f 127 104 60
f 127 60 124
f 127 126 128
f 127 128 129
f 56 104 127
f 56 127 129
f 129 128 122
f 129 122 125
f 54 56 129
f 54 129 125
f 115 47 69
f 115 69 130
f 131 107 106
f 131 106 132
f 115 130 132
f 115 132 106
f 133 134 135
f 133 135 136
f 80 131 132
f 80 132 137
f 138 139 140
f 138 140 141
f 140 116 107
f 140 107 141
f 142 140 139
f 142 80 116
f 142 116 140
f 131 80 142
f 131 142 143
f 138 141 143
f 107 131 143
f 107 143 141
f 144 145 146
f 144 146 147
f 147 139 138
f 147 138 144
f 146 148 149
f 146 149 147
f 149 142 139
f 149 139 147
f 149 148 150
f 149 150 151
f 151 143 142
f 151 142 149
f 151 150 145
f 151 145 144
f 138 143 151
f 138 151 144
f 111 110 114
f 111 114 113
f 152 109 108
f 112 109 152
f 108 112 152
f 110 121 153
f 110 153 114
f 137 132 130
f 137 130 69
f 79 80 137
f 79 137 154
f 79 154 98
f 137 69 99
f 137 99 154
f 154 100 98
f 99 100 154
f 128 117 120
f 128 120 122
f 123 122 120
f 123 120 119
f 126 123 119
f 126 119 118
f 126 118 117
f 126 117 128
f 146 145 133
f 146 133 136
f 148 146 136
f 148 136 135
f 148 135 134
f 148 134 150
f 150 134 133
f 150 133 145
f 48 60 116
f 48 116 49
f 79 78 77
f 106 105 115
f 59 155 153
f 59 153 121
f 59 58 96
f 59 96 155
f 43 42 155
f 43 155 96
f 114 153 155
f 114 155 42
f 26 25 29
f 26 29 35
f 101 103 109
f 103 57 110
f 80 77 49
f 80 49 116
f 4 3 2
f 2 1 4
f 8 7 6
f 6 5 8
f 23 24 5
f 5 6 23
f 2 10 9
f 9 1 2
f 12 7 8
f 8 11 12
f 10 14 13
f 13 9 10
f 15 17 16
f 17 19 18
f 20 21 19
f 21 22 19
f 17 20 19
f 17 18 16
f 7 12 6
f 12 3 23
f 14 10 3
f 10 2 3
f 12 14 3
f 12 23 6
f 8 5 16
f 16 18 8
f 8 18 19
f 19 11 8
f 1 9 21
f 21 20 1
f 9 13 22
f 22 21 9
f 20 17 4
f 4 1 20
f 24 23 3
f 3 4 24
f 15 24 4
f 4 17 15
f 14 12 11
f 11 13 14
f 11 19 22
f 22 13 11
f 24 15 16
f 16 5 24
f 25 27 26
f 28 31 30
f 31 70 72
f 72 30 31
f 71 86 84
f 84 32 71
f 32 27 25
f 25 30 32
f 35 29 25
f 25 26 35
f 66 68 26
f 26 27 66
f 37 36 34
f 34 35 37
f 34 33 29
f 29 35 34
f 65 67 68
f 68 66 65
f 30 25 29
f 30 28 29
f 41 40 39
f 39 38 41
f 44 33 38
f 38 39 44
f 44 45 29
f 29 33 44
f 43 42 40
f 40 41 43
f 38 34 36
f 36 41 38
f 45 46 28
f 28 29 45
f 31 28 46
f 46 47 31
f 32 49 48
f 48 27 32
f 77 80 116
f 116 49 77
f 53 52 51
f 51 50 53
f 125 129 56
f 56 54 125
f 103 35 26
f 26 56 103
f 56 26 55
f 55 54 56
f 35 57 37
f 59 58 37
f 37 57 59
f 57 110 121
f 121 59 57
f 57 35 103
f 49 116 60
f 60 48 49
f 116 107 104
f 104 60 116
f 60 54 55
f 55 48 60
f 64 63 62
f 62 61 64
f 55 62 63
f 63 48 55
f 66 63 64
f 64 65 66
f 63 66 27
f 27 48 63
f 62 68 67
f 67 61 62
f 26 68 62
f 62 55 26
f 70 31 47
f 47 69 70
f 72 71 32
f 32 30 72
f 76 75 74
f 74 73 76
f 78 77 71
f 71 72 78
f 77 78 79
f 79 137 80
f 131 143 142
f 142 80 131
f 79 80 77
f 81 49 32
f 32 84 81
f 84 83 82
f 82 81 84
f 83 89 90
f 90 82 83
f 85 81 82
f 81 85 77
f 77 49 81
f 77 85 86
f 86 71 77
f 86 94 89
f 89 83 86
f 93 88 89
f 89 94 93
f 83 84 86
f 90 89 88
f 88 87 90
f 92 91 90
f 90 87 92
f 85 82 90
f 90 91 85
f 94 91 92
f 92 93 94
f 91 94 86
f 86 85 91
f 41 36 37
f 37 43 41
f 95 33 34
f 38 33 95
f 34 38 95
f 58 96 43
f 43 37 58
f 69 78 72
f 72 70 69
f 69 99 97
f 97 78 69
f 99 100 97
f 97 100 98
f 98 79 78
f 78 97 98
f 50 51 61
f 61 67 50
f 52 64 61
f 61 51 52
f 53 65 64
f 64 52 53
f 53 50 67
f 67 65 53
f 74 87 88
f 88 73 74
f 75 92 87
f 87 74 75
f 75 76 93
f 93 92 75
f 76 73 88
f 88 93 76
f 101 109 103
f 103 56 102
f 102 101 103
f 56 104 102
f 129 127 104
f 104 56 129
f 128 126 127
f 127 129 128
f 141 143 131
f 131 107 141
f 143 141 138
f 144 151 143
f 143 138 144
f 145 150 151
f 151 144 145
f 107 106 102
f 102 104 107
f 132 130 115
f 115 106 132
f 106 105 101
f 101 102 106
f 108 103 109
f 111 110 103
f 103 108 111
f 112 109 44
f 44 39 112
f 109 101 45
f 45 44 109
f 39 40 113
f 113 112 39
f 114 113 40
f 40 42 114
f 112 113 111
f 111 108 112
f 45 101 105
f 105 46 45
f 46 105 115
f 115 47 46
f 120 119 118
f 118 117 120
f 125 124 123
f 123 122 125
f 124 125 54
f 54 60 124
f 127 126 123
f 123 124 127
f 124 60 104
f 104 127 124
f 125 122 128
f 128 129 125
f 130 69 47
f 47 115 130
f 132 106 107
f 107 131 132
f 136 135 134
f 134 133 136
f 137 132 131
f 131 80 137
f 107 116 140
f 140 141 107
f 141 140 139
f 139 138 141
f 147 144 138
f 138 139 147
f 140 116 80
f 80 142 140
f 142 139 140
f 142 149 147
f 147 139 142
f 149 148 146
f 146 147 149
f 147 146 145
f 145 144 147
f 151 150 148
f 148 149 151
f 149 142 143
f 143 151 149
f 113 114 110
f 110 111 113
f 152 108 109
f 112 152 109
f 108 152 112
f 114 153 121
f 121 110 114
f 154 99 69
f 69 137 154
f 69 130 132
f 132 137 69
f 98 154 137
f 137 79 98
f 154 98 100
f 99 154 100
f 122 120 117
f 117 128 122
f 119 120 122
f 122 123 119
f 118 119 123
f 123 126 118
f 128 117 118
f 118 126 128
f 136 133 145
f 145 146 136
f 135 136 146
f 146 148 135
f 150 134 135
f 135 148 150
f 145 133 134
f 134 150 145
f 106 115 105
f 155 96 58
f 58 59 155
f 121 153 155
f 155 59 121
f 96 155 42
f 42 43 96
f 42 155 153
f 153 114 42
f 103 110 57