# https://github.com/mikedh/trimesh
v -0.01361000 -0.00919805 0.00000000
v -0.01406545 -0.00964717 0.00000000
v -0.01406545 -0.00964717 0.01946701
v -0.01361000 -0.00919805 0.01946701
v -0.01316088 -0.00965350 0.00000000
v -0.01316088 -0.00965350 0.01946701
v -0.01361633 -0.01010262 0.00000000
v -0.01361633 -0.01010262 0.01946701
v -0.01728920 0.00028479 0.00000000
v -0.01792883 0.00028926 0.00000000
v -0.01792883 0.00028926 0.01946701
v -0.01728920 0.00028479 0.01946701
v -0.01729368 -0.00035484 0.00000000
v -0.01729368 -0.00035484 0.01946701
v -0.01793330 -0.00035036 0.00000000
v -0.01793330 -0.00035036 0.01946701
v -0.01318540 0.00959175 0.00000000
v -0.01363452 0.01004720 0.00000000
v -0.01363452 0.01004720 0.01946701
v -0.01318540 0.00959175 0.01946701
v -0.01364085 0.00914263 0.00000000
v -0.01364085 0.00914263 0.01946701
v -0.01408997 0.00959808 0.00000000
v -0.01408997 0.00959808 0.01946701
v -0.00370257 0.01327094 0.00000001
v -0.00369809 0.01391057 0.00000001
v -0.00369809 0.01391057 0.01946702
v -0.00370257 0.01327094 0.01946702
v -0.00434220 0.01327542 0.00000001
v -0.00434220 0.01327542 0.01946702
v -0.00433772 0.01391505 0.00000001
v -0.00433772 0.01391505 0.01946702
v 0.00560439 0.00916715 0.00000001
v 0.00605984 0.00961627 0.00000001
v 0.00605984 0.00961627 0.01946702
v 0.00560439 0.00916715 0.01946702
v 0.00515527 0.00962260 0.00000001
v 0.00515527 0.00962260 0.01946702
v 0.00561072 0.01007172 0.00000001
v 0.00561072 0.01007172 0.01946702
v 0.00928359 -0.00031568 0.00000001
v 0.00992321 -0.00032016 0.00000001
v 0.00992321 -0.00032016 0.01946702
v 0.00928359 -0.00031568 0.01946702
v 0.00928807 0.00032395 0.00000001
v 0.00928807 0.00032395 0.01946702
v 0.00992769 0.00031947 0.00000001
v 0.00992769 0.00031947 0.01946702
v 0.00517979 -0.00962264 0.00000001
v 0.00562891 -0.01007809 0.00000001
v 0.00562891 -0.01007809 0.01946702
v 0.00517979 -0.00962264 0.01946702
v 0.00563524 -0.00917352 0.00000001
v 0.00563524 -0.00917352 0.01946702
v 0.00608436 -0.00962897 0.00000001
v 0.00608436 -0.00962897 0.01946702
v -0.01397846 0.00996020 0.05414864
v -0.01778110 0.00005724 0.05414864
v -0.01901688 0.00006227 0.05424155
v -0.01487319 0.01085343 0.05424155
v 0.00597285 0.00996020 0.05414864
v -0.00400281 0.01375654 0.05414864
v -0.00400281 0.01499027 0.05424155
v 0.00686758 0.01085343 0.05424155
v 0.00597285 -0.00999112 0.05414864
v 0.00977549 0.00005724 0.05414864
v 0.01101127 0.00006227 0.05424155
v 0.00686758 -0.01088734 0.05424155
v -0.01397846 -0.00999112 0.05414864
v -0.00400281 -0.01380005 0.05414864
v -0.00400281 -0.01503789 0.05424155
v -0.01487319 -0.01088734 0.05424155
v -0.00400281 -0.01380005 0.01893830
v -0.01397846 -0.00999112 0.01893830
v -0.00400281 -0.00001334 0.00853299
v -0.00400281 0.00326610 0.05895515
v -0.00638507 0.00236670 0.05895515
v -0.00400281 -0.00377458 0.06095082
v -0.00400281 -0.00331463 0.06095082
v -0.00162054 -0.00239784 0.06095082
v -0.00128844 -0.00272998 0.06095082
v -0.00071244 -0.00000540 0.05895515
v -0.00162054 0.00236670 0.05895515
v -0.00729317 -0.00000540 0.05895515
v -0.00638507 -0.00239784 0.05895515
v -0.00400281 -0.00331463 0.05895515
v -0.00162054 -0.00239784 0.05895515
v -0.00400281 0.01375654 0.01893830
v 0.00597285 0.00996020 0.01893830
v -0.01778110 0.00005724 0.01893830
v -0.01397846 0.00996020 0.01893830
v 0.00977549 0.00005724 0.01893830
v 0.00597285 -0.00999112 0.01893830
v -0.00638507 0.00236670 0.06095082
v -0.00729317 -0.00000540 0.06095082
v -0.00638507 -0.00239784 0.06095082
v -0.00400281 0.00326610 0.06095082
v -0.00071244 -0.00000540 0.06095082
v -0.00162054 0.00236670 0.06095082
v -0.00775186 -0.00000403 0.06165927
v -0.00775186 -0.00000403 0.06095082
v -0.00671717 -0.00272998 0.06095082
v -0.00671717 -0.00272998 0.06165927
v -0.00025375 -0.00000403 0.06095082
v -0.00128844 0.00269874 0.06095082
v -0.00400281 0.00372353 0.06095082
v -0.00671717 0.00269874 0.06095082
v -0.00671717 0.00269874 0.06165927
v -0.00400281 -0.00377458 0.06165927
v -0.00128844 -0.00272998 0.06165927
v -0.00025375 -0.00000403 0.06165927
v -0.00128844 0.00269874 0.06165927
v -0.00400281 0.00372353 0.06165927
v -0.01397846 0.00996020 0.03181722
v -0.01778110 0.00005724 0.03181722
v -0.01778110 0.00005724 0.04243997
v -0.01397846 0.00996020 0.04243997
v 0.00597285 -0.00999112 0.03181722
v 0.00977549 0.00005724 0.03181722
v 0.00977549 0.00005724 0.04243997
v 0.00597285 -0.00999112 0.04243997
v -0.01397846 -0.00999112 0.04316391
v -0.00400281 -0.01380005 0.04316391
v 0.00597285 0.00996020 0.03181722
v -0.00400281 0.01375654 0.03181722
v -0.00400281 0.01375654 0.04243997
v 0.00597285 0.00996020 0.04243997
v -0.00400281 0.01375654 0.04316391
v -0.01397846 0.00996020 0.04316391
v -0.00400281 -0.01380005 0.03181722
v -0.00400281 -0.01380005 0.04243997
v -0.01865405 0.00006080 0.01893830
v -0.01461049 -0.01062420 0.01893830
v -0.01461049 -0.01062420 0.02010855
v -0.01397846 -0.00999112 0.02010855
v -0.01778110 0.00005724 0.02010855
v -0.01865405 0.00006080 0.02010855
v 0.01064844 0.00006080 0.01893830
v 0.00660488 0.01059117 0.01893830
v 0.00660488 0.01059117 0.02010855
v 0.00597285 0.00996020 0.02010855
v 0.00977549 0.00005724 0.02010855
v 0.01064844 0.00006080 0.02010855
v -0.00400281 0.01462804 0.01893830
v -0.01461049 0.01059117 0.01893830
v -0.00400281 -0.01467444 0.02010855
v -0.00400281 -0.01380005 0.02010855
v 0.00597285 -0.00999112 0.02010855
v 0.00660488 -0.01062420 0.02010855
v -0.01461049 0.01059117 0.02010855
v -0.00400281 0.01462804 0.02010855
v 0.00660488 -0.01062420 0.01893830
v -0.00400281 -0.01467444 0.01893830
v -0.01397846 0.00996020 0.02010855
v -0.00400281 0.01375654 0.02010855
v 0.00946868 -0.00164967 0.00651448
v 0.00946868 -0.00222598 0.00651448
v 0.00946868 -0.00222598 0.05298928
v 0.00946868 -0.00164967 0.05298928
v 0.01004499 -0.00164967 0.00651448
v 0.01004499 -0.00164967 0.05298928
v 0.01004499 -0.00222598 0.00651448
v 0.01004499 -0.00222598 0.05298928
v 0.00946868 0.00214247 0.00651448
v 0.00946868 0.00156615 0.00651448
v 0.00946868 0.00156615 0.05298928
v 0.00946868 0.00214247 0.05298928
v 0.01004499 0.00214247 0.00651448
v 0.01004499 0.00214247 0.05298928
v 0.01004499 0.00156615 0.00651448
v 0.01004499 0.00156615 0.05298928
v 0.00946868 0.00176796 0.05026349
v 0.00946868 -0.00171307 0.05026349
v 0.00946868 -0.00171307 0.05076003
v 0.00946868 0.00176796 0.05076003
v 0.01004499 -0.00171307 0.04692632
v 0.01004499 0.00176796 0.04692632
v 0.01004499 0.00176796 0.04742285
v 0.01004499 -0.00171307 0.04742285
v 0.01004499 -0.00171307 0.05026349
v 0.01004499 0.00176796 0.05026349
v 0.01004499 0.00176796 0.05076003
v 0.01004499 -0.00171307 0.05076003
v 0.00946868 0.00176796 0.04692632
v 0.00946868 -0.00171307 0.04692632
v 0.00946868 -0.00171307 0.04742285
v 0.00946868 0.00176796 0.04742285
v 0.01004499 -0.00171307 0.04358915
v 0.01004499 0.00176796 0.04358915
v 0.01004499 0.00176796 0.04408569
v 0.01004499 -0.00171307 0.04408569
v 0.00946868 0.00176796 0.04358915
v 0.00946868 -0.00171307 0.04358915
v 0.00946868 -0.00171307 0.04408569
v 0.00946868 0.00176796 0.04408569
v 0.01004499 -0.00171307 0.04025198
v 0.01004499 0.00176796 0.04025198
v 0.01004499 0.00176796 0.04074852
v 0.01004499 -0.00171307 0.04074852
v 0.00946868 0.00176796 0.04025198
v 0.00946868 -0.00171307 0.04025198
v 0.00946868 -0.00171307 0.04074852
v 0.00946868 0.00176796 0.04074852
v 0.01004499 -0.00171307 0.03691481
v 0.01004499 0.00176796 0.03691481
v 0.01004499 0.00176796 0.03741135
v 0.01004499 -0.00171307 0.03741135
v 0.00946868 0.00176796 0.03691481
v 0.00946868 -0.00171307 0.03691481
v 0.00946868 -0.00171307 0.03741135
v 0.00946868 0.00176796 0.03741135
v 0.01004499 -0.00171307 0.03357764
v 0.01004499 0.00176796 0.03357764
v 0.01004499 0.00176796 0.03407418
v 0.01004499 -0.00171307 0.03407418
v 0.00946868 0.00176796 0.03357764
v 0.00946868 -0.00171307 0.03357764
v 0.00946868 -0.00171307 0.03407418
v 0.00946868 0.00176796 0.03407418
v 0.01004499 -0.00171307 0.03024047
v 0.01004499 0.00176796 0.03024047
v 0.01004499 0.00176796 0.03073701
v 0.01004499 -0.00171307 0.03073701
v 0.00946868 0.00176796 0.03024047
v 0.00946868 -0.00171307 0.03024047
v 0.00946868 -0.00171307 0.03073701
v 0.00946868 0.00176796 0.03073701
v 0.01004499 -0.00171307 0.02690330
v 0.01004499 0.00176796 0.02690330
v 0.01004499 0.00176796 0.02739984
v 0.01004499 -0.00171307 0.02739984
v 0.00946868 0.00176796 0.02690330
v 0.00946868 -0.00171307 0.02690330
v 0.00946868 -0.00171307 0.02739984
v 0.00946868 0.00176796 0.02739984
v 0.01004499 -0.00171307 0.02356613
v 0.01004499 0.00176796 0.02356613
v 0.01004499 0.00176796 0.02406267
v 0.01004499 -0.00171307 0.02406267
v 0.00946868 0.00176796 0.02356613
v 0.00946868 -0.00171307 0.02356613
v 0.00946868 -0.00171307 0.02406267
v 0.00946868 0.00176796 0.02406267
v 0.01004499 -0.00171307 0.02022896
v 0.01004499 0.00176796 0.02022896
v 0.01004499 0.00176796 0.02072550
v 0.01004499 -0.00171307 0.02072550
v 0.00946868 0.00176796 0.02022896
v 0.00946868 -0.00171307 0.02022896
v 0.00946868 -0.00171307 0.02072550
v 0.00946868 0.00176796 0.02072550
v 0.01004499 -0.00171307 0.01689179
v 0.01004499 0.00176796 0.01689179
v 0.01004499 0.00176796 0.01738833
v 0.01004499 -0.00171307 0.01738833
v 0.00946868 0.00176796 0.01689179
v 0.00946868 -0.00171307 0.01689179
v 0.00946868 -0.00171307 0.01738833
v 0.00946868 0.00176796 0.01738833
v 0.01004499 -0.00171307 0.01355462
v 0.01004499 0.00176796 0.01355462
v 0.01004499 0.00176796 0.01405116
v 0.01004499 -0.00171307 0.01405116
v 0.00946868 0.00176796 0.01355462
v 0.00946868 -0.00171307 0.01355462
v 0.00946868 -0.00171307 0.01405116
v 0.00946868 0.00176796 0.01405116
v 0.01004499 -0.00171307 0.01021745
v 0.01004499 0.00176796 0.01021745
v 0.01004499 0.00176796 0.01071399
v 0.01004499 -0.00171307 0.01071399
v 0.00946868 0.00176796 0.01021745
v 0.00946868 -0.00171307 0.01021745
v 0.00946868 -0.00171307 0.01071399
v 0.00946868 0.00176796 0.01071399
v -0.01397846 0.00996020 0.03109327
v -0.00400281 0.01375654 0.03109327
v -0.01778110 0.00005724 0.04316391
v 0.00597285 0.00996020 0.03109327
v 0.00977549 0.00005724 0.03109327
v 0.00597285 0.00996020 0.04316391
v 0.00597285 -0.00999112 0.03109327
v -0.00400281 -0.01380005 0.03109327
v 0.00597285 -0.00999112 0.04316391
v 0.00977549 0.00005724 0.04316391
v -0.01397846 -0.00999112 0.03181722
v -0.01397846 -0.00999112 0.04243997
v -0.01397846 -0.00999112 0.03109327
v -0.01778110 0.00005724 0.03109327
v -0.01825429 0.00005973 0.03109327
v -0.01825429 0.00005973 0.03181721
v -0.01432106 0.01030278 0.03181722
v -0.01432106 0.01030278 0.03109327
v 0.01024868 0.00005973 0.03109327
v 0.00631545 0.01030278 0.03109327
v -0.01432106 0.01030278 0.04316392
v -0.00400281 0.01422950 0.04316391
v 0.00631545 -0.01033372 0.03109327
v 0.00631545 0.01030278 0.03181722
v 0.01024868 0.00005973 0.03181721
v -0.01825429 0.00005973 0.04316391
v -0.00400281 0.01422950 0.03109327
v -0.01432106 -0.01033372 0.04243997
v -0.00400281 -0.01427346 0.04243997
v -0.00400281 0.01422950 0.03181721
v 0.00631545 -0.01033372 0.03181722
v 0.00631545 -0.01033372 0.04243997
v -0.00400281 -0.01427346 0.04316391
v -0.01432106 -0.01033372 0.04316392
v 0.00631545 -0.01033372 0.04316392
v 0.00631545 0.01030278 0.04243997
v -0.00400281 0.01422950 0.04243997
v -0.00400281 -0.01427346 0.03109327
v -0.01825429 0.00005973 0.04243997
v -0.01432106 0.01030278 0.04243997
v 0.00631545 0.01030278 0.04316392
v 0.01024868 0.00005973 0.04243997
v 0.01024868 0.00005973 0.04316391
v -0.00400281 -0.01427346 0.03181721
v -0.01432106 -0.01033372 0.03181722
v -0.01432106 -0.01033372 0.03109327
v -0.00430303 -0.01330184 0.00000001
v -0.00430751 -0.01394146 0.00000001
v -0.00430751 -0.01394146 0.01946702
v -0.00430303 -0.01330184 0.01946702
v -0.00366340 -0.01330631 0.00000001
v -0.00366340 -0.01330631 0.01946702
v -0.00366788 -0.01394594 0.00000001
v -0.00366788 -0.01394594 0.01946702
f 1 2 3
f 1 3 4
f 5 1 4
f 5 4 6
f 7 5 6
f 7 6 8
f 2 7 8
f 2 8 3
f 2 1 5
f 2 5 7
f 9 10 11
f 9 11 12
f 13 9 12
f 13 12 14
f 15 13 14
f 15 14 16
f 10 15 16
f 10 16 11
f 10 9 13
f 10 13 15
f 17 18 19
f 17 19 20
f 21 17 20
f 21 20 22
f 23 21 22
f 23 22 24
f 18 23 24
f 18 24 19
f 18 17 21
f 18 21 23
f 25 26 27
f 25 27 28
f 29 25 28
f 29 28 30
f 31 29 30
f 31 30 32
f 26 31 32
f 26 32 27
f 26 25 29
f 26 29 31
f 33 34 35
f 33 35 36
f 37 33 36
f 37 36 38
f 39 37 38
f 39 38 40
f 34 39 40
f 34 40 35
f 34 33 37
f 34 37 39
f 41 42 43
f 41 43 44
f 45 41 44
f 45 44 46
f 47 45 46
f 47 46 48
f 42 47 48
f 42 48 43
f 42 41 45
f 42 45 47
f 49 50 51
f 49 51 52
f 53 49 52
f 53 52 54
f 55 53 54
f 55 54 56
f 50 55 56
f 50 56 51
f 50 49 53
f 50 53 55
f 57 58 59
f 57 59 60
f 61 62 63
f 61 63 64
f 65 66 67
f 65 67 68
f 69 70 71
f 69 71 72
f 73 74 75
f 76 63 60
f 76 60 77
f 78 79 80
f 78 80 81
f 82 67 64
f 82 64 83
f 84 59 72
f 84 72 85
f 86 71 68
f 86 68 87
f 88 89 75
f 90 91 75
f 92 93 75
f 89 92 75
f 74 90 75
f 77 60 59
f 77 59 84
f 87 68 67
f 87 67 82
f 94 77 84
f 94 84 95
f 66 61 64
f 66 64 67
f 58 69 72
f 58 72 59
f 95 84 85
f 95 85 96
f 91 88 75
f 85 72 71
f 85 71 86
f 97 76 77
f 97 77 94
f 83 64 63
f 83 63 76
f 93 73 75
f 70 65 68
f 70 68 71
f 62 57 60
f 62 60 63
f 80 87 82
f 80 82 98
f 96 85 86
f 96 86 79
f 99 83 76
f 99 76 97
f 98 82 83
f 98 83 99
f 79 86 87
f 79 87 80
f 100 101 102
f 100 102 103
f 104 98 99
f 104 99 105
f 105 99 97
f 105 97 106
f 102 96 79
f 102 79 78
f 107 94 95
f 107 95 101
f 106 97 94
f 106 94 107
f 101 95 96
f 101 96 102
f 81 80 98
f 81 98 104
f 108 100 103
f 108 103 109
f 108 109 110
f 108 110 111
f 108 111 112
f 108 112 113
f 112 105 106
f 112 106 113
f 103 102 78
f 103 78 109
f 109 78 81
f 109 81 110
f 111 104 105
f 111 105 112
f 108 107 101
f 108 101 100
f 110 81 104
f 110 104 111
f 113 106 107
f 113 107 108
f 114 115 116
f 114 116 117
f 118 119 120
f 118 120 121
f 122 123 70
f 122 70 69
f 124 125 126
f 124 126 127
f 128 129 57
f 128 57 62
f 130 118 121
f 130 121 131
f 119 124 127
f 119 127 120
f 125 114 117
f 125 117 126
f 132 90 74
f 132 74 133
f 134 135 136
f 134 136 137
f 138 92 89
f 138 89 139
f 140 141 142
f 140 142 143
f 139 89 88
f 139 88 144
f 145 91 90
f 145 90 132
f 146 147 135
f 146 135 134
f 143 142 148
f 143 148 149
f 145 132 137
f 145 137 150
f 139 144 151
f 139 151 140
f 152 138 143
f 152 143 149
f 133 153 146
f 133 146 134
f 138 139 140
f 138 140 143
f 132 133 134
f 132 134 137
f 153 152 149
f 153 149 146
f 144 145 150
f 144 150 151
f 152 93 92
f 152 92 138
f 133 74 73
f 133 73 153
f 149 148 147
f 149 147 146
f 150 154 155
f 150 155 151
f 137 136 154
f 137 154 150
f 153 73 93
f 153 93 152
f 151 155 141
f 151 141 140
f 144 88 91
f 144 91 145
f 156 157 158
f 156 158 159
f 160 156 159
f 160 159 161
f 162 160 161
f 162 161 163
f 157 162 163
f 157 163 158
f 157 156 160
f 157 160 162
f 163 161 159
f 163 159 158
f 164 165 166
f 164 166 167
f 168 164 167
f 168 167 169
f 170 168 169
f 170 169 171
f 165 170 171
f 165 171 166
f 165 164 168
f 165 168 170
f 171 169 167
f 171 167 166
f 172 173 174
f 172 174 175
f 176 177 178
f 176 178 179
f 180 181 182
f 180 182 183
f 184 185 186
f 184 186 187
f 173 172 181
f 173 181 180
f 183 182 175
f 183 175 174
f 185 184 177
f 185 177 176
f 179 178 187
f 179 187 186
f 188 189 190
f 188 190 191
f 192 193 194
f 192 194 195
f 193 192 189
f 193 189 188
f 191 190 195
f 191 195 194
f 196 197 198
f 196 198 199
f 200 201 202
f 200 202 203
f 201 200 197
f 201 197 196
f 199 198 203
f 199 203 202
f 204 205 206
f 204 206 207
f 208 209 210
f 208 210 211
f 209 208 205
f 209 205 204
f 207 206 211
f 207 211 210
f 212 213 214
f 212 214 215
f 216 217 218
f 216 218 219
f 217 216 213
f 217 213 212
f 215 214 219
f 215 219 218
f 220 221 222
f 220 222 223
f 224 225 226
f 224 226 227
f 225 224 221
f 225 221 220
f 223 222 227
f 223 227 226
f 228 229 230
f 228 230 231
f 232 233 234
f 232 234 235
f 233 232 229
f 233 229 228
f 231 230 235
f 231 235 234
f 236 237 238
f 236 238 239
f 240 241 242
f 240 242 243
f 241 240 237
f 241 237 236
f 239 238 243
f 239 243 242
f 244 245 246
f 244 246 247
f 248 249 250
f 248 250 251
f 249 248 245
f 249 245 244
f 247 246 251
f 247 251 250
f 252 253 254
f 252 254 255
f 256 257 258
f 256 258 259
f 257 256 253
f 257 253 252
f 255 254 259
f 255 259 258
f 260 261 262
f 260 262 263
f 264 265 266
f 264 266 267
f 265 264 261
f 265 261 260
f 263 262 267
f 263 267 266
f 268 269 270
f 268 270 271
f 272 273 274
f 272 274 275
f 273 272 269
f 273 269 268
f 271 270 275
f 271 275 274
f 155 154 276
f 155 276 277
f 129 278 58
f 129 58 57
f 142 141 279
f 142 279 280
f 281 128 62
f 281 62 61
f 147 148 282
f 147 282 283
f 284 285 66
f 284 66 65
f 115 286 287
f 115 287 116
f 136 135 288
f 136 288 289
f 123 284 65
f 123 65 70
f 141 155 277
f 141 277 279
f 278 122 69
f 278 69 58
f 286 130 131
f 286 131 287
f 290 291 292
f 290 292 293
f 148 142 280
f 148 280 282
f 285 281 61
f 285 61 66
f 154 136 289
f 154 289 276
f 294 280 279
f 294 279 295
f 296 129 128
f 296 128 297
f 298 282 280
f 298 280 294
f 299 124 119
f 299 119 300
f 301 278 129
f 301 129 296
f 302 277 276
f 302 276 293
f 303 287 131
f 303 131 304
f 292 114 125
f 292 125 305
f 300 119 118
f 300 118 306
f 293 276 289
f 293 289 290
f 304 131 121
f 304 121 307
f 308 123 122
f 308 122 309
f 310 284 123
f 310 123 308
f 311 127 126
f 311 126 312
f 291 115 114
f 291 114 292
f 313 283 282
f 313 282 298
f 135 147 283
f 135 283 288
f 314 301 296
f 314 296 315
f 302 305 299
f 302 299 295
f 312 297 316
f 312 316 311
f 294 300 306
f 294 306 298
f 317 318 310
f 317 310 307
f 313 319 320
f 313 320 321
f 304 308 309
f 304 309 303
f 295 299 300
f 295 300 294
f 311 316 318
f 311 318 317
f 321 320 291
f 321 291 290
f 303 309 301
f 303 301 314
f 298 306 319
f 298 319 313
f 307 310 308
f 307 308 304
f 293 292 305
f 293 305 302
f 315 296 297
f 315 297 312
f 312 126 117
f 312 117 315
f 315 117 116
f 315 116 314
f 316 281 285
f 316 285 318
f 318 285 284
f 318 284 310
f 317 120 127
f 317 127 311
f 305 125 124
f 305 124 299
f 320 286 115
f 320 115 291
f 307 121 120
f 307 120 317
f 290 289 288
f 290 288 321
f 295 279 277
f 295 277 302
f 309 122 278
f 309 278 301
f 319 130 286
f 319 286 320
f 314 116 287
f 314 287 303
f 297 128 281
f 297 281 316
f 306 118 130
f 306 130 319
f 321 288 283
f 321 283 313
f 322 323 324
f 322 324 325
f 326 322 325
f 326 325 327
f 328 326 327
f 328 327 329
f 323 328 329
f 323 329 324
f 323 322 326
f 323 326 328
f 4 3 2
f 2 1 4
f 6 4 1
f 1 5 6
f 8 6 5
f 5 7 8
f 3 8 7
f 7 2 3
f 7 5 1
f 1 2 7
f 12 11 10
f 10 9 12
f 14 12 9
f 9 13 14
f 16 14 13
f 13 15 16
f 11 16 15
f 15 10 11
f 15 13 9
f 9 10 15
f 20 19 18
f 18 17 20
f 22 20 17
f 17 21 22
f 24 22 21
f 21 23 24
f 19 24 23
f 23 18 19
f 23 21 17
f 17 18 23
f 28 27 26
f 26 25 28
f 30 28 25
f 25 29 30
f 32 30 29
f 29 31 32
f 27 32 31
f 31 26 27
f 31 29 25
f 25 26 31
f 36 35 34
f 34 33 36
f 38 36 33
f 33 37 38
f 40 38 37
f 37 39 40
f 35 40 39
f 39 34 35
f 39 37 33
f 33 34 39
f 44 43 42
f 42 41 44
f 46 44 41
f 41 45 46
f 48 46 45
f 45 47 48
f 43 48 47
f 47 42 43
f 47 45 41
f 41 42 47
f 52 51 50
f 50 49 52
f 54 52 49
f 49 53 54
f 56 54 53
f 53 55 56
f 51 56 55
f 55 50 51
f 55 53 49
f 49 50 55
f 60 59 58
f 58 57 60
f 64 63 62
f 62 61 64
f 68 67 66
f 66 65 68
f 72 71 70
f 70 69 72
f 73 75 74
f 77 60 63
f 63 76 77
f 83 64 67
f 67 82 83
f 85 72 59
f 59 84 85
f 87 68 71
f 71 86 87
f 88 75 89
f 90 75 91
f 92 75 93
f 89 75 92
f 74 75 90
f 84 59 60
f 60 77 84
f 82 67 68
f 68 87 82
f 95 84 77
f 77 94 95
f 67 64 61
f 61 66 67
f 59 72 69
f 69 58 59
f 96 85 84
f 84 95 96
f 91 75 88
f 86 71 72
f 72 85 86
f 94 77 76
f 76 97 94
f 76 63 64
f 64 83 76
f 93 75 73
f 71 68 65
f 65 70 71
f 63 60 57
f 57 62 63
f 98 82 87
f 87 80 98
f 79 86 85
f 85 96 79
f 97 76 83
f 83 99 97
f 99 83 82
f 82 98 99
f 80 87 86
f 86 79 80
f 103 102 101
f 101 100 103
f 113 106 105
f 105 112 113
f 109 78 102
f 102 103 109
f 110 81 78
f 78 109 110
f 112 105 104
f 104 111 112
f 100 101 107
f 107 108 100
f 111 104 81
f 81 110 111
f 108 107 106
f 106 113 108
f 117 116 115
f 115 114 117
f 121 120 119
f 119 118 121
f 69 70 123
f 123 122 69
f 127 126 125
f 125 124 127
f 62 57 129
f 129 128 62
f 131 121 118
f 118 130 131
f 120 127 124
f 124 119 120
f 126 117 114
f 114 125 126
f 150 137 132
f 132 145 150
f 140 151 144
f 144 139 140
f 149 143 138
f 138 152 149
f 134 146 153
f 153 133 134
f 143 140 139
f 139 138 143
f 137 134 133
f 133 132 137
f 146 149 152
f 152 153 146
f 151 150 145
f 145 144 151
f 159 158 157
f 157 156 159
f 161 159 156
f 156 160 161
f 163 161 160
f 160 162 163
f 158 163 162
f 162 157 158
f 162 160 156
f 156 157 162
f 158 159 161
f 161 163 158
f 167 166 165
f 165 164 167
f 169 167 164
f 164 168 169
f 171 169 168
f 168 170 171
f 166 171 170
f 170 165 166
f 170 168 164
f 164 165 170
f 166 167 169
f 169 171 166
f 175 174 173
f 173 172 175
f 179 178 177
f 177 176 179
f 183 182 181
f 181 180 183
f 187 186 185
f 185 184 187
f 180 181 172
f 172 173 180
f 174 175 182
f 182 183 174
f 176 177 184
f 184 185 176
f 186 187 178
f 178 179 186
f 191 190 189
f 189 188 191
f 195 194 193
f 193 192 195
f 188 189 192
f 192 193 188
f 194 195 190
f 190 191 194
f 199 198 197
f 197 196 199
f 203 202 201
f 201 200 203
f 196 197 200
f 200 201 196
f 202 203 198
f 198 199 202
f 207 206 205
f 205 204 207
f 211 210 209
f 209 208 211
f 204 205 208
f 208 209 204
f 210 211 206
f 206 207 210
f 215 214 213
f 213 212 215
f 219 218 217
f 217 216 219
f 212 213 216
f 216 217 212
f 218 219 214
f 214 215 218
f 223 222 221
f 221 220 223
f 227 226 225
f 225 224 227
f 220 221 224
f 224 225 220
f 226 227 222
f 222 223 226
f 231 230 229
f 229 228 231
f 235 234 233
f 233 232 235
f 228 229 232
f 232 233 228
f 234 235 230
f 230 231 234
f 239 238 237
f 237 236 239
f 243 242 241
f 241 240 243
f 236 237 240
f 240 241 236
f 242 243 238
f 238 239 242
f 247 246 245
f 245 244 247
f 251 250 249
f 249 248 251
f 244 245 248
f 248 249 244
f 250 251 246
f 246 247 250
f 255 254 253
f 253 252 255
f 259 258 257
f 257 256 259
f 252 253 256
f 256 257 252
f 258 259 254
f 254 255 258
f 263 262 261
f 261 260 263
f 267 266 265
f 265 264 267
f 260 261 264
f 264 265 260
f 266 267 262
f 262 263 266
f 271 270 269
f 269 268 271
f 275 274 273
f 273 272 275
f 268 269 272
f 272 273 268
f 274 275 270
f 270 271 274
f 277 276 154
f 154 155 277
f 57 58 278
f 278 129 57
f 280 279 141
f 141 142 280
f 61 62 128
f 128 281 61
f 283 282 148
f 148 147 283
f 65 66 285
f 285 284 65
f 116 287 286
f 286 115 116
f 289 288 135
f 135 136 289
f 70 65 284
f 284 123 70
f 279 277 155
f 155 141 279
f 58 69 122
f 122 278 58
f 287 131 130
f 130 286 287
f 293 292 291
f 291 290 293
f 282 280 142
f 142 148 282
f 66 61 281
f 281 285 66
f 276 289 136
f 136 154 276
f 288 283 147
f 147 135 288
f 315 296 301
f 301 314 315
f 295 299 305
f 305 302 295
f 311 316 297
f 297 312 311
f 298 306 300
f 300 294 298
f 307 310 318
f 318 317 307
f 321 320 319
f 319 313 321
f 303 309 308
f 308 304 303
f 294 300 299
f 299 295 294
f 317 318 316
f 316 311 317
f 290 291 320
f 320 321 290
f 314 301 309
f 309 303 314
f 313 319 306
f 306 298 313
f 304 308 310
f 310 307 304
f 302 305 292
f 292 293 302
f 312 297 296
f 296 315 312
f 325 324 323
f 323 322 325
f 327 325 322
f 322 326 327
f 329 327 326
f 326 328 329
f 324 329 328
f 328 323 324
f 328 326 322
f 322 323 328