# https://github.com/mikedh/trimesh
v 0.02464168 -0.01169544 0.04042350
v 0.02028971 -0.00870824 0.04688492
v 0.01306353 -0.01296911 0.04434833
v -0.00652157 -0.00886359 0.04823033
v -0.00665686 -0.00433332 0.05240744
v -0.01043492 -0.00300566 0.05223108
v -0.01483274 -0.00656986 0.04791790
v -0.01492176 -0.00131659 0.05160998
v -0.02652626 -0.00547768 0.04652540
v 0.00633604 0.02110135 0.04799490
v 0.00346030 0.01386966 0.05294438
v 0.00751126 0.01330297 0.05259778
v 0.03216724 -0.00545374 0.04000690
v 0.04123553 -0.00332809 0.03226085
v 0.03305242 0.00370956 0.04215625
v 0.01480436 -0.00639469 0.04994137
v 0.02075976 -0.00664985 0.04765785
v 0.01714424 0.01078600 0.05033337
v -0.03677402 -0.00331501 0.04089824
v -0.04065528 -0.00338549 0.03565058
v -0.03521489 -0.00595768 0.03781672
v -0.02694901 -0.00626811 0.04462296
v 0.00750067 -0.01319531 0.04951575
v 0.00919427 -0.01382209 0.04917386
v -0.02012892 -0.00769659 0.04936951
v -0.01363845 -0.01058568 0.05039896
v -0.03935395 -0.00737355 0.03725945
v -0.03564906 -0.00852456 0.04038103
v 0.01953567 -0.01452601 0.04720678
v 0.02109231 -0.01443591 0.04675248
v -0.00595283 -0.01066154 0.05065329
v -0.00631708 -0.02013125 0.04795161
v -0.00466767 -0.02029624 0.04799581
v -0.04069372 -0.00739901 0.03386613
v -0.03682234 -0.01188982 0.03654711
v 0.03098176 -0.01708329 0.03668469
v 0.03699775 -0.01106637 0.03393167
v 0.03357804 -0.01143017 0.03862293
v -0.01243579 -0.01939280 0.04722878
v -0.03402289 -0.01351173 0.04082951
v 0.01311405 -0.01500075 0.04787121
v 0.01258559 -0.02083419 0.04586813
v 0.04207918 -0.00723737 0.02865573
v 0.03922275 -0.01325344 0.02146985
v 0.04067343 -0.00568191 0.02750576
v 0.02806725 -0.02300207 0.03055079
v 0.03065696 -0.01805987 0.03674839
v 0.02877768 -0.01909660 0.03831925
v -0.03445903 -0.01197108 0.04052505
v 0.01932723 -0.02101543 0.04404964
v 0.01825471 -0.02577870 0.03638765
v 0.02411153 -0.02440965 0.03342239
v 0.02940594 -0.02215586 0.02967993
v 0.02226925 -0.02044189 0.04313390
v 0.02517787 -0.01972992 0.04169752
v -0.03059406 -0.01960961 0.03618713
v -0.03520405 -0.01738390 0.03252980
v -0.03045680 -0.02076651 0.03422691
v 0.03917799 -0.01360307 0.01582115
v 0.04184803 -0.00996279 0.01821754
v 0.04287851 -0.00693035 0.02670137
v 0.04411962 -0.00365065 0.02478020
v 0.04059273 -0.00481486 0.03124054
v 0.04475065 -0.00142375 0.02624219
v 0.03796425 -0.01512221 0.01780800
v 0.03485487 -0.01606621 0.01223719
v -0.00742616 -0.03140832 0.02430063
v -0.01082068 -0.03103793 0.02407466
v -0.00803375 -0.03107496 0.02119418
v -0.02702692 0.01194546 0.04787935
v -0.02460196 0.01294512 0.04903334
v -0.02727736 0.02091985 0.04199365
v -0.01194225 0.01543452 0.05182010
v -0.00701621 0.01481589 0.05272657
v -0.01166750 0.02205431 0.04641841
v 0.00167650 -0.01127507 0.04943615
v 0.00184382 -0.01204778 0.04979305
v 0.01945695 -0.02466422 0.01156446
v 0.01466548 -0.02727130 0.01440501
v 0.01620271 -0.02048284 0.00706981
v -0.03557335 0.00597008 0.04228730
v -0.03250273 0.01061033 0.04372678
v 0.00283425 -0.03079836 0.03152043
v -0.00268811 -0.03155615 0.02680775
v 0.00202428 -0.03148376 0.02652091
v 0.01197819 -0.03033613 0.02921415
v 0.00765482 -0.03077040 0.03024571
v 0.01061045 -0.03082239 0.02456842
v 0.02245797 -0.02703542 0.02241359
v 0.01707163 -0.02920267 0.02578042
v 0.02134814 -0.02701128 0.01805754
v -0.00620031 -0.03029967 0.03288090
v -0.01079504 -0.03095122 0.02690898
v -0.00673640 -0.03139135 0.02711611
v 0.03277714 0.00257645 0.00062869
v 0.03868908 0.00638493 0.00082180
v 0.03330820 -0.00194342 0.00030231
v 0.03377002 0.00523646 0.00055459
v -0.02942982 -0.01047452 0.00135245
v -0.03370349 -0.00855113 0.00127195
v -0.03155636 -0.00654571 0.00045534
v -0.03740584 -0.00686102 0.00226116
v -0.03452548 0.00292007 0.00015350
v 0.03462792 0.00777176 0.00050084
v 0.04651852 0.00155452 0.02394955
v 0.04449495 -0.00017844 0.02717013
v 0.04270335 0.01259298 0.00345033
v 0.04194632 0.00669040 0.00203869
v 0.04502707 -0.00483207 0.01930082
v 0.04383386 -0.00634727 0.02308120
v 0.04651012 0.00623544 0.00507797
v 0.04922419 0.00469368 0.01054411
v 0.04958000 0.00806228 0.01462168
v 0.04960074 0.00610754 0.01530856
v 0.04929685 0.00937264 0.01201196
v 0.04892146 0.00146460 0.01290956
v 0.04802797 0.00011807 0.01139593
v 0.04735713 -0.00022083 0.00941131
v 0.04701191 0.00104457 0.00776960
v 0.04860648 0.00860512 0.00874150
v 0.04023484 -0.01190517 0.01398403
v 0.03671414 -0.01298083 0.00942407
v 0.04277136 -0.00824193 0.01283640
v 0.04956355 0.00348579 0.01455980
v 0.04762519 0.00507465 0.00760063
v 0.04262798 0.02107056 0.02299581
v 0.04516478 0.01959065 0.01611483
v 0.04115164 0.02368333 0.01695345
v 0.04716505 0.00267917 0.00734813
v 0.03152777 -0.01400366 0.00547240
v 0.03558497 -0.01286963 0.00708072
v 0.03242283 -0.01541919 0.00721759
v -0.04082332 0.00424075 0.00188695
v -0.03404148 0.02182580 0.00696564
v -0.04176540 0.01452579 0.00512359
v -0.04122218 0.01935306 0.00760724
v -0.04587069 -0.00967536 0.01407920
v -0.04177343 -0.01477565 0.01748399
v -0.04543483 -0.00975075 0.01792963
v -0.04535823 0.00420982 0.02994313
v -0.03927406 0.00747685 0.03670297
v -0.04463494 0.01130664 0.02987763
v -0.04548888 -0.00351252 0.02755357
v -0.04015398 -0.01015960 0.03143819
v -0.04161001 0.02009093 0.02488075
v -0.03761523 0.01781737 0.03404823
v -0.03682499 0.02072805 0.03266448
v -0.04839940 0.01298500 0.01968447
v -0.05044537 0.00583891 0.01552931
v -0.04931039 0.00879463 0.02214088
v -0.04985364 0.00509867 0.02218723
v -0.04039379 0.00270635 0.03638043
v -0.04988407 0.00170820 0.02131112
v -0.04947469 -0.00089301 0.01239545
v -0.04923227 0.00108235 0.00900237
v -0.04975570 -0.00057189 0.01936243
v -0.04588193 -0.00754645 0.02377250
v -0.04961468 -0.00157533 0.01479077
v -0.04969687 -0.00118812 0.01767232
v -0.04474183 -0.00708985 0.00727350
v -0.03937386 -0.00932339 0.00344734
v -0.04093203 -0.01166315 0.00698877
v -0.03856408 0.01170314 0.03629246
v -0.04033719 -0.01218067 0.02866105
v -0.04881573 0.00463232 0.00785983
v -0.04855276 0.00980386 0.00926323
v -0.04850535 0.01294127 0.01121956
v -0.04823085 0.01494159 0.01226654
v -0.04310188 -0.00343526 0.00335625
v -0.04803212 0.01522692 0.01626563
v -0.04795634 0.01544585 0.01387434
v -0.04194081 -0.01437317 0.01479631
v -0.04185711 -0.01499170 0.01621957
v -0.04140254 -0.01453510 0.02007885
v 0.04103517 0.02352936 0.01353158
v 0.04362192 0.01954988 0.00938851
v 0.04574227 0.01680334 0.02320924
v 0.04592742 0.01487774 0.02501068
v 0.04885935 0.01154203 0.01786108
v 0.04616761 0.01278652 0.02554344
v 0.04896181 0.00704499 0.01907532
v 0.04674471 0.00722259 0.02592734
v 0.04348859 0.01859701 0.02566461
v 0.04116622 0.02376364 0.01493403
v 0.03849729 0.01940579 0.00610922
v 0.03280976 -0.00844857 0.00188263
v 0.02992009 -0.01117466 0.00233031
v 0.03854436 0.01649325 0.00377646
v 0.04703373 0.01261668 0.00703848
v 0.00185844 -0.01105318 0.04723607
v 0.01596653 -0.01514331 0.04753580
v -0.03449200 0.01858148 0.00477877
v 0.03898947 -0.00945154 0.00695209
v 0.03107873 -0.00997464 0.03769585
v 0.03172013 -0.01174950 0.04021336
v 0.02897193 -0.01840991 0.03820261
v 0.02554313 -0.01373680 0.04406763
v 0.01935054 -0.02039922 0.04400243
v 0.02210309 -0.01983066 0.04316353
v -0.02554652 0.00048013 0.04811061
v -0.02862750 -0.00963721 0.04593456
v -0.02761292 0.01059796 0.04720044
v -0.02196859 0.01315736 0.04911194
v -0.03011570 0.00430587 0.04626900
v 0.01735114 0.01219072 0.05078756
v 0.02739720 0.00819785 0.04633202
v 0.02742698 0.01017448 0.04601253
v 0.04171676 -0.00007911 0.03304691
v 0.04161274 -0.00119670 0.03288067
v 0.00274613 -0.02656297 0.04135931
v 0.00826958 -0.02172189 0.04656528
v 0.00311865 -0.02189616 0.04731321
v -0.00568918 -0.02558199 0.04269838
v -0.00456055 -0.02143011 0.04800066
v -0.00636306 -0.02126948 0.04794677
v -0.03597971 0.02347309 0.03001207
v 0.01399786 -0.01685708 0.00364750
v 0.00698294 -0.01726771 0.00382141
v 0.01333804 -0.01528524 0.00291140
v 0.03846910 0.00010677 0.00129359
v 0.03313711 -0.00407159 0.00049158
v 0.02373300 -0.02533476 0.03096945
v 0.01792165 -0.02686980 0.03391666
v 0.02910793 -0.02266693 0.02666515
v 0.02761525 -0.02367497 0.02778761
v 0.02827949 -0.02352475 0.01807910
v -0.03456091 0.00477079 0.00025347
v -0.02720991 0.00424950 0.00004989
v -0.02750088 0.01755230 0.00367918
v -0.03479593 0.01628073 0.00371464
v 0.03443926 0.02078389 0.00563434
v -0.04629751 0.00439060 0.00481015
v -0.04106230 0.00695569 0.00231998
v -0.04554448 0.01911557 0.01494454
v -0.04545269 0.01863373 0.01364078
v 0.03671308 0.02608610 0.02243358
v 0.03602473 0.02646649 0.02023543
v 0.03331788 -0.01600013 0.00880395
v -0.02120937 0.02189570 0.04371222
v -0.02159139 0.01439766 0.04969120
v -0.00265216 0.02188201 0.04816196
v -0.00299957 0.01440470 0.05312409
v 0.01181517 -0.02650019 0.03986187
v 0.01450460 -0.02133980 0.04546870
v 0.01187318 -0.02770561 0.03719204
v 0.01601066 -0.02913284 0.02123197
v 0.00752472 -0.02686714 0.04047824
v 0.01252875 -0.02157778 0.04594685
v -0.01417258 -0.02923980 0.03263576
v -0.00341417 -0.03166548 0.02383416
v -0.01488821 -0.03027841 0.02676257
v 0.00909765 -0.02438411 0.01009262
v 0.00984730 -0.02943736 0.01738573
v -0.02746766 -0.01527780 0.04407716
v 0.01459016 -0.00846349 0.04910963
v 0.02737487 0.00693613 0.04576527
v 0.02657594 -0.00860854 0.04307688
v 0.02715401 -0.00655931 0.04387056
v 0.00012892 -0.00653493 0.05217507
v 0.00404607 -0.00713440 0.05162711
v 0.00302152 -0.02085150 0.04728011
v 0.00835063 -0.02089548 0.04653248
v 0.02493890 -0.01917711 0.04177166
v 0.01482816 -0.02068746 0.04534201
v 0.03178870 -0.00747151 0.03889589
v 0.00059663 -0.00415679 0.05274264
v 0.00450961 -0.00485020 0.05225352
v -0.03163926 -0.00465550 0.04471226
v -0.03089287 0.00176444 0.04597049
v -0.03628204 0.00355502 0.04183340
v -0.00601497 -0.00166605 0.05285742
v -0.01452660 0.00150271 0.05169101
v -0.02471385 0.00321514 0.04824987
v 0.00315957 0.01262335 0.05251599
v 0.00717544 0.01201866 0.05217160
v -0.01216545 0.01434620 0.05138794
v -0.00323313 0.01326618 0.05271418
v -0.03159933 -0.00638799 0.04150344
v -0.03217841 -0.00943107 0.04362251
v -0.02728694 -0.01651778 0.04401948
v -0.01232020 -0.02056806 0.04714386
v -0.02566613 -0.02131792 0.03994733
v -0.02306291 -0.02196222 0.04090947
v -0.03068235 -0.01502705 0.04270235
v -0.01415942 -0.02454652 0.04230102
v -0.01414840 -0.02599939 0.03997957
v -0.00566677 -0.02697410 0.04035846
v -0.03423268 -0.02008265 0.02490054
v -0.02561210 -0.02266725 0.03734672
v 0.00746243 -0.02806729 0.03815057
v -0.02224097 -0.02363213 0.03850770
v 0.04238269 0.00735911 0.03307360
v 0.04446816 0.00666461 0.02938483
v -0.01526413 -0.03025593 0.02385994
v -0.02023391 -0.02897390 0.02296520
v -0.02029129 -0.02850443 0.02034265
v -0.01563220 -0.02983746 0.02104298
v 0.02540387 -0.02238831 0.01073257
v 0.02433059 -0.02070569 0.00802908
v -0.03394205 -0.02229268 0.01842176
v -0.03384757 -0.02228693 0.01634440
v -0.02543185 -0.02709589 0.02198868
v -0.03004277 -0.02480805 0.02053555
v -0.03000952 -0.02474918 0.01802312
v -0.02540865 -0.02691217 0.01947962
v 0.02040254 -0.02625504 0.01489041
v 0.01528218 -0.02864238 0.01793178
v 0.03814367 -0.00481543 0.00275308
v 0.01022888 -0.03054715 0.02105649
v 0.00160327 -0.03170317 0.02332823
v 0.00118226 -0.03108799 0.01997673
v -0.03217934 0.01974827 0.03897770
v 0.03325203 0.00908095 0.04241962
v 0.04067282 0.01597780 0.03325926
v 0.03177181 0.01815887 0.04089642
v 0.02625315 0.01864325 0.04389112
v 0.01691624 0.02054115 0.04642378
v 0.04455637 0.01352560 0.02870025
v 0.00278083 -0.02775599 0.03935768
v -0.00981006 -0.00030455 0.05252552
v -0.00732496 0.01370957 0.05229480
v 0.02332047 -0.01636142 0.00354083
v -0.03464169 -0.01875233 0.00958729
v -0.03000541 -0.02182280 0.01086191
v 0.00078550 -0.02672985 0.01282093
v -0.01935049 -0.02577963 0.01271357
v -0.01503054 -0.02658986 0.01331496
v -0.00835046 -0.02702740 0.01343758
v -0.02460341 -0.02423861 0.01196037
v 0.00672115 0.02366780 0.04582810
v 0.01709947 0.02311430 0.04419582
v 0.01733775 0.02610276 0.04085775
v 0.00716130 0.02664685 0.04255046
v -0.03176557 0.02264631 0.03684064
v -0.03129677 0.02537872 0.03343490
v -0.01107550 0.02450683 0.04423669
v -0.00238818 0.02435654 0.04582779
v -0.00206917 0.02724368 0.04238275
v -0.01042846 0.02746661 0.04096996
v 0.02628917 0.02157010 0.04179288
v 0.03182579 0.02101367 0.03860613
v 0.03193480 0.02370555 0.03504789
v 0.02638024 0.02433402 0.03842669
v 0.03949719 0.01913112 0.03206397
v 0.03837662 0.02212148 0.02960073
v -0.02085133 0.02462385 0.04178489
v -0.02043826 0.02748232 0.03866964
v 0.04399496 0.01614412 0.02781676
v -0.02689054 0.02377709 0.03981039
v -0.02644869 0.02646872 0.03635846
v 0.00885825 0.03059034 0.03684967
v -0.00036717 0.03118288 0.03667870
v -0.02927534 0.02920514 0.02738621
v -0.03407905 0.02741032 0.02429623
v -0.00947449 0.03103500 0.03528130
v 0.03131110 0.02729917 0.02943071
v 0.02508649 0.02932482 0.03222900
v 0.03795707 0.02448641 0.02615698
v -0.01853650 0.03070599 0.03293636
v 0.01727352 0.03000123 0.03523451
v -0.02442133 0.03017687 0.03015742
v -0.03091515 -0.01387753 0.04264179
v -0.02297048 0.03118122 0.02344685
v -0.02802658 0.03004652 0.02039113
v 0.01717696 0.03227820 0.02939370
v 0.00798669 0.03274586 0.03138189
v -0.00086827 0.03280800 0.03121624
v -0.03345752 0.02793316 0.01795490
v -0.00893189 0.03255623 0.02940308
v -0.01697806 0.03204270 0.02659228
v 0.03086187 0.02887262 0.02522295
v 0.02475550 0.03095261 0.02762449
v -0.03335673 -0.01462145 0.00447450
v -0.02420286 -0.01862735 0.00507037
v -0.01807224 -0.01958108 0.00482308
v -0.02910925 -0.01661213 0.00487616
v 0.02212225 -0.01315719 0.00199308
v -0.00085954 -0.01893478 0.00487638
v 0.02924864 -0.00752039 0.00069801
v -0.01329190 -0.01962058 0.00493751
v -0.00814866 -0.01949491 0.00493636
v -0.02007167 -0.02727024 0.03137509
v -0.02552012 -0.02539448 0.02979923
v -0.02544720 -0.02688362 0.02458339
v -0.02016866 -0.02883449 0.02573151
v -0.03013559 -0.02303703 0.02823735
v -0.03402869 -0.02190244 0.02058477
v -0.03006817 -0.02447091 0.02313364
v 0.02647714 -0.02323637 0.01327724
v -0.00880900 0.03144504 0.01991277
v -0.00113550 0.03221259 0.02192572
v -0.00118925 0.02942871 0.01552340
v -0.00892548 0.02816667 0.01357654
v -0.02152118 0.02938975 0.01543959
v -0.01555561 0.03043361 0.01767947
v -0.01473689 0.02681060 0.01178513
v -0.02056420 0.02576141 0.01027034
v 0.02400623 0.03175590 0.02077351
v 0.03057410 0.02981195 0.01919802
v 0.03054574 0.02834659 0.01616374
v 0.02342605 0.03023160 0.01683540
v 0.03555637 0.02735343 0.01732535
v 0.03508802 0.02623952 0.01483830
v 0.01636117 0.03260722 0.02192753
v 0.01558065 0.03060824 0.01715620
v -0.02710204 0.02804441 0.01315298
v -0.02653917 0.02430255 0.00850161
v 0.00772646 0.03260591 0.02270331
v 0.00781952 0.03009612 0.01680196
v -0.03365108 0.02571030 0.01117572
v 0.02104866 0.02277124 0.00671344
v 0.01346926 0.02339822 0.00715135
v -0.02025154 0.01874642 0.00432715
v 0.00639280 0.02290033 0.00689946
v -0.00080750 0.02271373 0.00670552
v -0.00829123 0.02148913 0.00584588
v -0.01424349 0.02002904 0.00501425
v 0.02977106 0.02206184 0.00609992
v -0.00802687 0.00850582 0.00084188
v -0.01397311 0.00678690 0.00063628
v 0.02127870 0.00990677 0.00125977
v 0.01374436 0.01058114 0.00148297
v -0.01997508 0.00540130 0.00033598
v 0.00667694 0.01010199 0.00117896
v -0.00054190 0.00989536 0.00106446
v 0.02997844 0.00914770 0.00077378
v -0.00185805 -0.01322133 0.00224535
v 0.00657960 -0.01149264 0.00174228
v 0.02899593 -0.00524099 0.00037333
v 0.02855818 -0.00040940 0.00038022
v -0.01845081 -0.01363360 0.00210953
v -0.01380298 -0.01349676 0.00220066
v -0.00853085 -0.01355304 0.00222990
v 0.02158073 -0.01117792 0.00137675
v 0.02106986 -0.00584966 0.00084174
v -0.02453797 -0.01255000 0.00181660
v 0.01287276 -0.01009642 0.00123021
v 0.02930444 0.00450310 0.00000573
v 0.02112743 0.00291149 0.00000000
v 0.01365610 0.00067927 0.00040052
v 0.00663447 -0.00222762 0.00046064
v -0.00116051 -0.00419126 0.00045565
v -0.00823481 -0.00606948 0.00049820
v -0.01377554 -0.00689543 0.00058542
v -0.01866373 -0.00780948 0.00073484
v -0.02497294 -0.00866561 0.00064079
v 0.04832897 0.01397865 0.01306426
v 0.04397707 -0.00114451 0.00559352
v 0.04479922 -0.00363258 0.00829827
v 0.04604956 -0.00299105 0.01194299
v 0.04767875 -0.00054660 0.01476809
v 0.04883712 0.00245201 0.01741498
v 0.04440442 0.00166044 0.00452713
v -0.04858211 0.00471177 0.02548995
v -0.04864834 -0.00048828 0.02402049
v -0.04791293 0.00995874 0.02543164
v -0.04855278 -0.00510442 0.01445937
v -0.04848005 -0.00481602 0.01801326
v -0.04058137 0.02334536 0.01615364
v -0.04114052 0.02356282 0.02070411
v -0.04867018 -0.00361538 0.02124150
v -0.04621258 0.01614314 0.02185500
v -0.04807961 -0.00372881 0.01035483
v -0.04736070 -0.00096865 0.00636684
v -0.04078562 0.02205207 0.01065479
v -0.04581351 0.01825349 0.01136511
v -0.04617432 0.01587239 0.00951246
v -0.04638591 0.01186990 0.00688642
v -0.04576639 0.01906008 0.01776346
v 0.03311182 0.00518213 0.04269542
v -0.04034908 0.02275022 0.01412536
v -0.03326069 0.02759393 0.01580884
v -0.02766491 0.02978540 0.01822738
v -0.00108176 0.03299563 0.02875108
v 0.00763340 0.03311483 0.02902768
v 0.01714168 0.03260533 0.02712188
v -0.02247814 0.03101724 0.02103188
v 0.02458642 0.03127931 0.02513466
v -0.01637432 0.03205576 0.02399682
v -0.00869251 0.03272254 0.02667204
v 0.03060245 0.02927644 0.02265533
f 1 2 3
f 4 5 6
f 7 8 9
f 10 11 12
f 13 14 15
f 16 17 18
f 19 20 21
f 9 22 7
f 3 23 24
f 7 25 26
f 21 27 28
f 1 29 30
f 31 32 33
f 27 34 35
f 36 37 38
f 26 25 39
f 27 35 40
f 41 24 42
f 43 37 44
f 45 37 43
f 46 47 48
f 27 49 28
f 50 51 52
f 53 47 46
f 54 52 55
f 56 57 58
f 44 59 60
f 43 44 61
f 45 43 62
f 63 62 64
f 65 66 59
f 67 68 69
f 70 71 72
f 73 74 75
f 76 31 77
f 78 79 80
f 40 49 27
f 81 70 82
f 83 84 85
f 86 87 88
f 89 90 91
f 92 93 94
f 95 96 97
f 96 95 98
f 99 100 101
f 100 102 103
f 101 100 103
f 98 104 96
f 64 105 106
f 96 107 108
f 105 64 62
f 109 62 110
f 108 107 111
f 112 113 114
f 112 115 113
f 116 117 112
f 117 118 112
f 118 119 112
f 115 112 120
f 121 122 123
f 112 114 124
f 120 112 125
f 126 127 128
f 124 116 112
f 129 125 112
f 119 129 112
f 130 131 132
f 103 102 133
f 134 135 136
f 137 138 139
f 140 141 142
f 143 144 34
f 145 146 147
f 148 149 150
f 151 150 149
f 142 146 145
f 140 20 152
f 151 149 153
f 154 149 155
f 149 156 153
f 157 144 143
f 149 158 159
f 160 161 162
f 142 141 163
f 164 144 157
f 165 149 166
f 167 149 168
f 156 149 159
f 102 161 169
f 163 146 142
f 170 149 148
f 143 20 140
f 166 149 167
f 171 149 170
f 172 173 137
f 155 149 165
f 139 138 174
f 158 149 154
f 60 121 123
f 169 161 160
f 20 143 34
f 152 141 140
f 175 127 176
f 177 178 179
f 179 180 181
f 181 180 182
f 127 126 177
f 177 126 183
f 127 175 184
f 176 185 175
f 131 130 186
f 186 130 187
f 107 188 185
f 185 176 107
f 111 107 189
f 189 107 176
f 62 109 105
f 35 34 144
f 23 3 190
f 190 76 23
f 29 191 42
f 29 3 191
f 3 29 1
f 191 41 42
f 191 3 41
f 62 63 45
f 62 43 61
f 135 134 192
f 133 102 169
f 123 109 60
f 109 110 60
f 123 122 193
f 193 122 131
f 37 45 194
f 194 38 37
f 53 65 44
f 47 37 36
f 36 195 196
f 38 194 195
f 30 197 1
f 198 199 29
f 24 41 3
f 27 21 20
f 20 34 27
f 9 8 200
f 25 22 201
f 22 25 7
f 70 81 202
f 202 203 71
f 202 81 204
f 205 206 207
f 106 208 209
f 209 14 106
f 210 211 212
f 213 214 215
f 179 178 180
f 147 216 145
f 168 149 171
f 184 128 127
f 217 218 219
f 220 221 97
f 222 223 90
f 224 65 53
f 224 225 226
f 227 228 103
f 133 227 103
f 192 229 230
f 192 230 135
f 188 107 96
f 188 231 185
f 232 233 133
f 233 227 133
f 61 110 62
f 171 234 235
f 236 128 237
f 132 131 238
f 137 173 138
f 239 71 240
f 71 203 240
f 72 71 239
f 71 70 202
f 6 8 7
f 7 4 6
f 75 74 241
f 241 74 242
f 243 50 244
f 50 243 51
f 90 245 86
f 90 89 222
f 91 90 246
f 88 90 86
f 211 210 247
f 90 223 245
f 88 87 85
f 85 87 83
f 243 248 211
f 52 54 50
f 38 195 36
f 93 92 249
f 69 250 67
f 84 92 94
f 249 251 93
f 84 83 92
f 246 90 88
f 80 79 252
f 252 79 253
f 247 243 211
f 254 25 201
f 3 2 255
f 18 17 256
f 2 1 257
f 256 17 258
f 259 190 260
f 243 244 248
f 39 25 254
f 24 23 261
f 261 262 24
f 263 29 199
f 42 24 262
f 23 77 261
f 42 264 29
f 264 198 29
f 29 263 30
f 263 197 30
f 59 44 65
f 59 66 122
f 60 59 121
f 122 121 59
f 15 14 209
f 77 23 76
f 194 45 63
f 194 63 265
f 266 259 260
f 266 260 267
f 268 269 270
f 268 270 19
f 265 63 14
f 265 14 13
f 5 259 266
f 5 266 271
f 255 2 17
f 255 17 16
f 200 8 272
f 200 272 273
f 274 266 267
f 274 267 275
f 269 200 273
f 269 273 204
f 273 272 276
f 273 276 203
f 204 273 203
f 204 203 202
f 271 266 274
f 271 274 277
f 81 82 163
f 81 163 141
f 270 81 141
f 270 141 152
f 19 270 152
f 19 152 20
f 268 19 21
f 268 21 278
f 278 21 28
f 278 28 279
f 4 7 26
f 4 26 31
f 194 1 197
f 194 197 195
f 39 254 280
f 39 280 281
f 258 13 15
f 258 15 256
f 257 265 13
f 257 13 258
f 1 194 265
f 1 265 257
f 282 283 280
f 282 280 284
f 35 144 164
f 35 164 57
f 40 35 57
f 40 57 56
f 213 285 286
f 213 286 287
f 65 224 226
f 65 226 66
f 57 164 174
f 57 174 288
f 282 56 58
f 282 58 289
f 52 51 223
f 52 223 222
f 53 46 225
f 53 225 224
f 243 247 290
f 243 290 245
f 285 283 291
f 285 291 286
f 14 63 64
f 14 64 106
f 292 208 106
f 292 106 293
f 294 295 296
f 294 296 297
f 132 298 299
f 132 299 130
f 300 173 172
f 300 172 301
f 302 303 304
f 302 304 305
f 306 307 79
f 306 79 78
f 298 306 78
f 298 78 299
f 186 308 193
f 186 193 131
f 303 300 301
f 303 301 304
f 309 310 311
f 309 311 253
f 163 82 312
f 163 312 146
f 242 11 10
f 242 10 241
f 313 292 314
f 313 314 315
f 207 313 315
f 207 315 316
f 240 73 75
f 240 75 239
f 205 207 316
f 205 316 317
f 292 293 318
f 292 318 314
f 11 274 275
f 11 275 12
f 310 250 69
f 310 69 311
f 210 213 287
f 210 287 319
f 283 285 281
f 283 281 280
f 190 4 31
f 190 31 76
f 272 320 321
f 272 321 276
f 8 6 320
f 8 320 272
f 190 259 5
f 190 5 4
f 299 78 80
f 299 80 322
f 304 301 323
f 304 323 324
f 253 311 325
f 253 325 252
f 297 296 326
f 297 326 327
f 311 69 328
f 311 328 325
f 130 299 322
f 130 322 187
f 301 172 162
f 301 162 323
f 69 297 327
f 69 327 328
f 305 304 324
f 305 324 329
f 330 331 332
f 330 332 333
f 147 334 335
f 147 335 216
f 336 337 338
f 336 338 339
f 340 341 342
f 340 342 343
f 341 344 345
f 341 345 342
f 346 336 339
f 346 339 347
f 337 330 333
f 337 333 338
f 331 340 343
f 331 343 332
f 344 348 183
f 344 183 345
f 349 346 347
f 349 347 350
f 338 333 351
f 338 351 352
f 216 335 353
f 216 353 354
f 339 338 352
f 339 352 355
f 343 342 356
f 343 356 357
f 342 345 358
f 342 358 356
f 347 339 355
f 347 355 359
f 332 343 357
f 332 357 360
f 345 183 126
f 345 126 358
f 350 347 359
f 350 359 361
f 333 332 360
f 333 360 351
f 335 350 361
f 335 361 353
f 334 349 350
f 334 350 335
f 296 305 329
f 296 329 326
f 82 70 72
f 82 72 312
f 295 302 305
f 295 305 296
f 283 282 289
f 283 289 291
f 201 279 362
f 201 362 254
f 22 278 279
f 22 279 201
f 9 268 278
f 9 278 22
f 270 269 204
f 270 204 81
f 9 200 269
f 9 269 268
f 353 361 363
f 353 363 364
f 351 360 365
f 351 365 366
f 352 351 366
f 352 366 367
f 354 353 364
f 354 364 368
f 355 352 367
f 355 367 369
f 361 359 370
f 361 370 363
f 357 356 371
f 357 371 372
f 356 358 236
f 356 236 371
f 359 355 369
f 359 369 370
f 360 357 372
f 360 372 365
f 358 126 128
f 358 128 236
f 323 162 161
f 323 161 373
f 326 329 374
f 326 374 375
f 80 252 218
f 80 218 217
f 329 324 376
f 329 376 374
f 322 80 217
f 322 217 377
f 324 323 373
f 324 373 376
f 252 325 378
f 252 378 218
f 186 187 379
f 186 379 221
f 327 326 375
f 327 375 380
f 325 328 381
f 325 381 378
f 328 327 380
f 328 380 381
f 187 322 377
f 187 377 379
f 382 383 384
f 382 384 385
f 386 288 387
f 386 387 388
f 122 66 238
f 122 238 131
f 226 89 91
f 226 91 389
f 383 386 388
f 383 388 384
f 288 174 138
f 288 138 387
f 66 226 389
f 66 389 238
f 249 382 385
f 249 385 251
f 390 391 392
f 390 392 393
f 394 395 396
f 394 396 397
f 398 399 400
f 398 400 401
f 399 402 403
f 399 403 400
f 395 390 393
f 395 393 396
f 404 398 401
f 404 401 405
f 402 184 175
f 402 175 403
f 406 394 397
f 406 397 407
f 408 404 405
f 408 405 409
f 391 408 409
f 391 409 392
f 410 406 407
f 410 407 134
f 405 401 411
f 405 411 412
f 403 175 185
f 403 185 231
f 407 397 413
f 407 413 229
f 409 405 412
f 409 412 414
f 392 409 414
f 392 414 415
f 134 407 229
f 134 229 192
f 393 392 415
f 393 415 416
f 397 396 417
f 397 417 413
f 401 400 418
f 401 418 411
f 400 403 231
f 400 231 418
f 396 393 416
f 396 416 417
f 417 416 419
f 417 419 420
f 412 411 421
f 412 421 422
f 231 188 96
f 231 96 104
f 229 413 423
f 229 423 228
f 414 412 422
f 414 422 424
f 415 414 424
f 415 424 425
f 230 229 228
f 230 228 227
f 416 415 425
f 416 425 419
f 413 417 420
f 413 420 423
f 411 418 426
f 411 426 421
f 418 231 104
f 418 104 426
f 218 378 427
f 218 427 428
f 97 429 430
f 97 430 95
f 380 375 431
f 380 431 432
f 378 381 433
f 378 433 427
f 381 380 432
f 381 432 433
f 429 434 435
f 429 435 430
f 373 161 102
f 373 102 100
f 375 374 436
f 375 436 431
f 374 376 99
f 374 99 436
f 219 218 428
f 219 428 437
f 434 219 437
f 434 437 435
f 376 373 100
f 376 100 99
f 104 98 438
f 104 438 426
f 426 438 439
f 426 439 421
f 421 439 440
f 421 440 422
f 422 440 441
f 422 441 424
f 424 441 442
f 424 442 425
f 425 442 443
f 425 443 419
f 419 443 444
f 419 444 420
f 423 420 444
f 423 444 445
f 423 445 446
f 423 446 228
f 228 446 101
f 228 101 103
f 442 441 428
f 442 428 427
f 444 443 433
f 444 433 432
f 446 445 431
f 446 431 436
f 439 438 430
f 439 430 435
f 441 440 437
f 441 437 428
f 443 442 427
f 443 427 433
f 445 444 432
f 445 432 431
f 101 446 436
f 101 436 99
f 438 98 95
f 438 95 430
f 440 439 435
f 440 435 437
f 97 96 108
f 97 108 220
f 127 447 189
f 127 189 176
f 193 308 448
f 193 448 449
f 293 106 105
f 293 105 182
f 318 293 182
f 318 182 180
f 127 177 179
f 127 179 447
f 186 221 220
f 186 220 308
f 109 123 450
f 109 450 451
f 123 193 449
f 123 449 450
f 348 318 180
f 348 180 178
f 181 114 113
f 181 113 179
f 105 109 451
f 105 451 452
f 189 447 115
f 189 115 120
f 448 119 118
f 448 118 449
f 182 105 452
f 182 452 181
f 220 108 111
f 220 111 453
f 447 179 113
f 447 113 115
f 451 450 117
f 451 117 116
f 308 220 453
f 308 453 448
f 450 449 118
f 450 118 117
f 181 452 124
f 181 124 114
f 453 111 125
f 453 125 129
f 448 453 129
f 448 129 119
f 452 451 116
f 452 116 124
f 111 189 120
f 111 120 125
f 454 151 153
f 454 153 455
f 454 456 150
f 454 150 151
f 457 458 159
f 457 159 158
f 354 368 459
f 354 459 460
f 216 354 460
f 216 460 145
f 461 455 153
f 461 153 156
f 456 462 148
f 456 148 150
f 162 172 137
f 162 137 160
f 463 154 155
f 463 155 464
f 174 164 157
f 174 157 139
f 410 134 136
f 410 136 465
f 230 227 233
f 230 233 135
f 466 467 167
f 466 167 168
f 467 468 166
f 467 166 167
f 463 457 158
f 463 158 154
f 468 232 165
f 468 165 166
f 462 469 170
f 462 170 148
f 232 464 155
f 232 155 165
f 469 234 171
f 469 171 170
f 458 461 156
f 458 156 159
f 262 261 212
f 262 212 211
f 36 196 48
f 36 48 47
f 196 263 55
f 196 55 48
f 197 263 196
f 197 196 195
f 203 276 73
f 203 73 240
f 276 321 74
f 276 74 73
f 277 274 11
f 277 11 242
f 18 256 206
f 18 206 205
f 256 15 470
f 256 470 206
f 15 209 208
f 15 208 470
f 470 208 292
f 470 292 313
f 206 470 313
f 206 313 207
f 284 40 56
f 284 56 282
f 254 362 284
f 254 284 280
f 49 362 279
f 49 279 28
f 139 157 461
f 139 461 458
f 460 459 234
f 460 234 469
f 133 169 464
f 133 464 232
f 145 460 469
f 145 469 462
f 135 233 232
f 135 232 468
f 160 137 457
f 160 457 463
f 136 135 468
f 136 468 467
f 465 136 467
f 465 467 466
f 160 463 464
f 160 464 169
f 142 145 462
f 142 462 456
f 157 143 455
f 157 455 461
f 137 139 458
f 137 458 457
f 140 142 456
f 140 456 454
f 140 454 455
f 140 455 143
f 183 348 178
f 183 178 177
f 312 72 349
f 312 349 334
f 72 239 346
f 72 346 349
f 314 318 348
f 314 348 344
f 317 316 340
f 317 340 331
f 241 10 330
f 241 330 337
f 239 75 336
f 239 336 346
f 315 314 344
f 315 344 341
f 316 315 341
f 316 341 340
f 75 241 337
f 75 337 336
f 146 312 334
f 146 334 147
f 10 317 331
f 10 331 330
f 471 465 466
f 471 466 235
f 235 466 168
f 235 168 171
f 472 410 465
f 472 465 471
f 472 473 406
f 472 406 410
f 474 475 408
f 474 408 391
f 475 476 404
f 475 404 408
f 473 477 394
f 473 394 406
f 237 128 184
f 237 184 402
f 476 478 398
f 476 398 404
f 479 480 390
f 479 390 395
f 481 237 402
f 481 402 399
f 478 481 399
f 478 399 398
f 477 479 395
f 477 395 394
f 480 474 391
f 480 391 390
f 221 379 429
f 221 429 97
f 377 217 219
f 377 219 434
f 379 377 434
f 379 434 429
f 291 289 383
f 291 383 382
f 286 291 382
f 286 382 249
f 245 290 87
f 245 87 86
f 58 57 288
f 58 288 386
f 289 58 386
f 289 386 383
f 287 286 249
f 287 249 92
f 319 287 92
f 319 92 83
f 61 44 60
f 61 60 110
f 368 364 473
f 368 473 472
f 363 370 479
f 363 479 477
f 371 236 237
f 371 237 481
f 365 372 478
f 365 478 476
f 459 368 472
f 459 472 471
f 234 459 471
f 234 471 235
f 364 363 477
f 364 477 473
f 367 366 475
f 367 475 474
f 369 367 474
f 369 474 480
f 372 371 481
f 372 481 478
f 370 369 480
f 370 480 479
f 366 365 476
f 366 476 475
f 385 384 302
f 385 302 295
f 85 84 250
f 85 250 310
f 88 85 310
f 88 310 309
f 388 387 300
f 388 300 303
f 389 91 306
f 389 306 298
f 91 246 307
f 91 307 306
f 384 388 303
f 384 303 302
f 387 138 173
f 387 173 300
f 238 389 298
f 238 298 132
f 94 93 68
f 94 68 67
f 251 385 295
f 251 295 294
f 12 205 317
f 12 317 10
f 260 190 3
f 260 3 255
f 275 267 16
f 275 16 18
f 267 260 255
f 267 255 16
f 12 275 18
f 12 18 205
f 74 321 277
f 74 277 242
f 321 320 271
f 321 271 277
f 320 6 5
f 320 5 271
f 213 210 212
f 213 212 214
f 215 32 39
f 215 39 281
f 42 248 244
f 42 244 264
f 37 47 53
f 37 53 44
f 50 198 264
f 50 264 244
f 223 51 243
f 223 243 245
f 42 262 211
f 42 211 248
f 290 247 210
f 290 210 319
f 40 284 362
f 40 362 49
f 46 48 55
f 46 55 52
f 87 290 319
f 87 319 83
f 226 225 222
f 226 222 89
f 225 46 52
f 225 52 222
f 213 215 281
f 213 281 285
f 69 68 294
f 69 294 297
f 250 84 94
f 250 94 67
f 68 93 251
f 68 251 294
f 79 307 309
f 79 309 253
f 307 246 88
f 307 88 309
f 54 199 198
f 54 198 50
f 17 2 257
f 17 257 258
f 33 32 215
f 33 215 214
f 39 32 31
f 39 31 26
f 261 33 214
f 261 214 212
f 55 263 199
f 55 199 54
f 77 31 33
f 77 33 261