# https://github.com/mikedh/trimesh
v -0.01457527 -0.01954956 0.03099328
v -0.01452692 -0.01204652 0.03109882
v -0.01314308 -0.00954471 0.03114704
v -0.01046030 -0.00842160 0.03119122
v 0.01040703 -0.00855740 0.03141246
v 0.01437852 -0.01973976 0.03129839
v 0.01307419 -0.00971643 0.03142339
v 0.01442693 -0.01223282 0.03140420
v -0.01484518 -0.01990120 0.05652100
v -0.01480067 -0.01239790 0.05662251
v -0.01341292 -0.00989641 0.05667476
v -0.01073021 -0.00877324 0.05671894
v 0.01013725 -0.00890878 0.05693628
v 0.01280441 -0.01006787 0.05694714
v 0.01415708 -0.01258420 0.05692795
v 0.01410861 -0.02009147 0.05682605
v -0.01329879 -0.00933264 0.05812595
v -0.01529384 -0.01175228 0.05654149
v -0.01493224 -0.01177648 0.05807214
v -0.01348157 -0.00930974 0.05659498
v -0.01002004 -0.00861844 0.05664021
v -0.01003975 -0.00863952 0.05816701
v 0.00941367 -0.00876374 0.05837511
v 0.00942948 -0.00874239 0.05684427
v 0.01266438 -0.00950209 0.05839703
v 0.01287872 -0.00948250 0.05687030
v 0.01426777 -0.01196493 0.05838259
v 0.01466086 -0.01194664 0.05685552
v -0.01495645 -0.01438710 0.05851156
v -0.01534993 -0.02061912 0.05641715
v -0.01499426 -0.02064970 0.05842495
v -0.01012103 -0.02068191 0.05847811
v 0.00933253 -0.02080594 0.05868224
v 0.01460470 -0.02081348 0.05673117
v 0.01420582 -0.02083789 0.05873143
v 0.01424753 -0.01457931 0.05881778
v -0.00498446 -0.01476255 0.00000000
v -0.00753130 -0.01254262 0.00000306
v 0.00025453 -0.01568843 0.00004418
v 0.00807752 -0.01264309 0.00016730
v -0.00741853 0.00478574 0.00024213
v 0.00550484 -0.01482886 0.00010997
v 0.00818638 0.00468541 0.00040617
v -0.00733694 0.01802244 0.00042855
v 0.00827188 0.01791806 0.00059246
v 0.00052594 0.02200596 0.00056409
v -0.00559052 0.02204422 0.00050097
v 0.00657883 0.02196406 0.00062962
v -0.00281040 0.02387042 0.00055583
v 0.00050752 0.02402613 0.00059201
v 0.00381842 0.02382786 0.00062552
v -0.00959279 0.00448109 0.01948296
v -0.01038007 0.00451531 0.01740651
v -0.00644398 0.00453080 0.01456093
v -0.01243869 0.00448057 0.02070856
v -0.01157248 0.00443489 0.02377310
v -0.01328480 0.00445180 0.02339570
v -0.00642283 0.00940019 0.01427632
v -0.01063690 0.00987195 0.01693990
v -0.01334291 0.01052369 0.02091659
v -0.01014348 0.01472065 0.01686305
v -0.00637195 0.01691794 0.01446248
v -0.01297695 0.01614334 0.02099728
v -0.00923816 0.01858132 0.01700308
v -0.00846070 0.02138253 0.01710914
v -0.01195717 0.02057897 0.02103274
v -0.00491496 0.02056603 0.01318359
v -0.01427113 0.01686542 0.02570477
v -0.01464164 0.01118207 0.02562396
v -0.01377647 0.00720980 0.02395784
v -0.01402204 0.00886122 0.02405316
v -0.00633551 0.02463102 0.01659132
v -0.01012168 0.02446561 0.02096715
v -0.01309304 0.02178642 0.02578631
v -0.00255018 0.02249457 0.01261521
v -0.01434225 0.01683855 0.02914880
v -0.01480158 0.01145010 0.02907280
v -0.01461028 0.00994685 0.02627095
v -0.01378792 0.00701485 0.02558927
v -0.01078871 0.02603029 0.02586862
v -0.00750566 0.02754981 0.02084736
v -0.01286874 0.02192814 0.02923528
v -0.00314434 0.02640203 0.01633696
v -0.00366497 0.02937925 0.02091295
v 0.00037198 0.02261144 0.01236989
v -0.01272715 0.02184765 0.03023632
v -0.01419982 0.01685339 0.03015192
v -0.01069592 0.02611735 0.02931538
v -0.00771447 0.02927351 0.02594775
v -0.00378443 0.03133682 0.02601802
v -0.01055368 0.02611247 0.03031720
v 0.00036177 0.02697940 0.01629232
v 0.00032943 0.03014962 0.02096643
v 0.00028720 0.03184808 0.02606871
v -0.00745419 0.02943866 0.02939893
v -0.00735210 0.02937860 0.03039646
v -0.00359026 0.03166952 0.02947051
v -0.01237453 0.02167788 0.03117639
v -0.01024303 0.02568834 0.03125629
v -0.00713327 0.02889591 0.03132989
v -0.00348407 0.03162131 0.03046882
v 0.00025499 0.03217883 0.02951625
v 0.00431816 0.02932941 0.02099884
v 0.00385382 0.02635648 0.01641022
v 0.00409107 0.03161844 0.02954990
v 0.00435362 0.03128190 0.02610287
v -0.00332465 0.03115495 0.03140199
v 0.00024158 0.03208760 0.03051729
v 0.00396288 0.03157205 0.03054742
v 0.00813498 0.02744511 0.02101198
v 0.00701746 0.02454532 0.01672868
v 0.00328823 0.02245456 0.01267631
v 0.00780397 0.02927800 0.03055503
v 0.00792831 0.02934027 0.02955848
v 0.00825978 0.02917012 0.02611543
v 0.00022981 0.03157888 0.03144819
v 0.00378068 0.03110849 0.03147753
v 0.00755807 0.02880286 0.03148710
v 0.01112866 0.02597387 0.02954443
v 0.01096507 0.02597537 0.03054423
v 0.01129003 0.02588850 0.02610320
v 0.01070993 0.02433014 0.02118774
v 0.00561410 0.02049939 0.01329434
v 0.00909034 0.02127015 0.01729375
v 0.01324929 0.02176123 0.02950981
v 0.01354126 0.02161522 0.02606747
v 0.01249279 0.02042190 0.02128860
v 0.01062840 0.02555280 0.03147369
v 0.01308102 0.02167931 0.03050818
v 0.01465526 0.01665186 0.02945502
v 0.01465481 0.01667542 0.02600930
v 0.00699677 0.01683191 0.01460414
v 0.00983005 0.01845652 0.01720297
v 0.01345485 0.01597396 0.02127428
v 0.01068826 0.01458543 0.01707967
v 0.01271077 0.02151546 0.03144135
v 0.01449181 0.01666924 0.03045580
v 0.01504594 0.01125664 0.02938462
v 0.01495563 0.01099063 0.02593460
v 0.01374818 0.01034891 0.02119919
v 0.00695389 0.00931404 0.01441817
v 0.01111623 0.00973303 0.01716777
v 0.01409852 0.01659330 0.03138611
v 0.01489563 0.00975619 0.02657971
v 0.01434000 0.00867603 0.02435008
v 0.01276973 0.00431704 0.02097600
v 0.01407724 0.00702884 0.02424824
v 0.01078118 0.00437717 0.01762990
v 0.01404992 0.00683402 0.02587936
v 0.00690496 0.00444491 0.01470213
v 0.01389798 0.00592395 0.02418252
v 0.01354016 0.00427527 0.02367654
v 0.01377109 0.00587639 0.02588853
v 0.01452206 0.01132484 0.03132045
v 0.01386863 0.00598993 0.03123977
v 0.01440715 0.00579394 0.02930816
v 0.01237768 -0.00113934 0.03112336
v 0.01431716 0.00573199 0.02728416
v 0.01265650 -0.00150445 0.02919149
v 0.01397046 0.00389741 0.02751105
v 0.01042135 -0.01158524 0.03095847
v 0.01260399 -0.00130254 0.02758302
v 0.00968072 -0.01278103 0.02743590
v 0.00999514 -0.01398321 0.02978668
v 0.00997958 -0.01399550 0.03092405
v 0.01040176 -0.01160606 0.03248130
v 0.00996403 -0.01401613 0.03244298
v -0.01382664 0.01677491 0.03109427
v -0.01431655 0.01151406 0.03101775
v -0.01373085 0.00616888 0.03095060
v -0.01422897 0.00597737 0.02900929
v -0.01258855 -0.00097797 0.03086093
v -0.01410045 0.00591770 0.02698607
v -0.01257176 -0.00134074 0.02892359
v -0.01377992 0.00407772 0.02721876
v -0.01050566 -0.01144918 0.03073990
v -0.01248535 -0.00114006 0.02731799
v 0.00569582 0.02595539 0.02596538
v 0.00346555 0.02724196 0.03142125
v 0.00351890 0.02731724 0.02596174
v 0.00563850 0.02588011 0.03142483
v 0.00810713 0.02321958 0.02595464
v 0.00006505 -0.00353535 0.02550097
v -0.00389004 -0.00064370 0.02549694
v 0.00008040 -0.00127690 0.02553279
v 0.00405736 -0.00069316 0.02558205
v -0.00439518 -0.00350659 0.02545237
v 0.00452528 -0.00356392 0.02554568
v -0.00792309 -0.00127872 0.02544716
v -0.00701705 0.00107987 0.02548816
v 0.00808292 -0.00138238 0.02561556
v 0.00720558 0.00098676 0.02563944
v -0.01004320 0.00160564 0.02546544
v -0.00930752 0.00402521 0.02550670
v 0.01023635 0.00147088 0.02567835
v 0.00953438 0.00390242 0.02570198
v -0.01140004 0.00503256 0.02549837
v -0.01058966 0.00736792 0.02553988
v 0.01163985 0.00488296 0.02574082
v 0.01085764 0.00722757 0.02576516
v -0.01223756 0.01065819 0.02556598
v -0.01105999 0.01133655 0.02558602
v 0.01254601 0.01049838 0.02582470
v 0.01138015 0.01119177 0.02582405
v -0.01183250 0.01574856 0.02564185
v -0.01066521 0.01568746 0.02565070
v 0.01220830 0.01559487 0.02589322
v 0.01103619 0.01554873 0.02588144
v -0.01073366 0.02021712 0.02571297
v -0.00933602 0.02015791 0.02572677
v 0.01116640 0.02007689 0.02594384
v 0.00976394 0.02003681 0.02592757
v -0.00763671 0.02332116 0.02578767
v -0.00829451 0.02442807 0.02579607
v 0.00877982 0.02431940 0.02597872
v -0.00519066 0.02602886 0.02585144
v -0.00589459 0.02731900 0.02586250
v 0.00641381 0.02723786 0.02599004
v -0.00299871 0.02735883 0.02589439
v -0.00348609 0.02887795 0.02590851
v 0.00402834 0.02882804 0.02598848
v 0.00027106 0.02885485 0.02595061
v 0.00026182 0.02776948 0.02593349
v -0.00540468 -0.00159822 0.02146370
v 0.00012010 -0.00163153 0.02151862
v -0.00459371 -0.00014377 0.01820128
v -0.00964081 0.00279089 0.02147678
v 0.00016441 -0.00017494 0.01825203
v 0.00564468 -0.00166895 0.02157725
v 0.00491856 -0.00020611 0.01830272
v -0.00748770 0.00327592 0.01821716
v -0.00186831 0.00443775 0.01592148
v -0.00844820 0.00985282 0.01829856
v -0.01144442 0.01063112 0.02156853
v -0.00258519 0.00559697 0.01592799
v 0.00021692 0.00442480 0.01594087
v 0.00230203 0.00441153 0.01596417
v 0.00993579 0.00266583 0.02168344
v 0.00785498 0.00317363 0.01837957
v -0.00277370 0.00909378 0.01597406
v -0.00671688 0.01546635 0.01843957
v -0.00945627 0.01969305 0.02171422
v 0.00303472 0.00555865 0.01598857
v 0.00890027 0.00973823 0.01847867
v 0.01183779 0.01047970 0.02181195
v -0.00219015 0.00998354 0.01599495
v -0.00381443 0.01951833 0.01852637
v -0.00527246 0.02588173 0.02184390
v 0.00326728 0.00905597 0.01603959
v 0.00723974 0.01537558 0.01858539
v 0.00996546 0.01956928 0.02191763
v 0.00029201 0.02584816 0.02189960
v 0.00028837 0.01949270 0.01856762
v 0.00025252 0.00996760 0.01601766
v 0.00269108 0.00995153 0.01604427
v 0.00438713 0.01946680 0.01861278
v 0.00586032 0.02581029 0.02195914
v -0.00891456 -0.00412365 0.04751387
v -0.00810053 -0.00404726 0.04370258
v -0.01407052 -0.00395961 0.04271820
v -0.00627545 -0.00400145 0.04113270
v -0.01473476 -0.00407030 0.04811876
v -0.00892061 -0.00420955 0.05144117
v -0.01162883 -0.00377390 0.03360220
v -0.01440147 -0.00419107 0.05349602
v -0.00818903 -0.00429251 0.05504592
v -0.01059539 -0.00375907 0.03261782
v -0.00349897 -0.00398206 0.03942917
v -0.01308308 -0.00430312 0.05830548
v -0.00684559 -0.00436741 0.05807494
v -0.00007778 -0.00399306 0.03900719
v 0.01056996 -0.00389701 0.03283730
v -0.01088365 -0.00441178 0.06258045
v -0.00500573 -0.00443384 0.06053381
v 0.00333241 -0.00402611 0.03949905
v -0.00779744 -0.00450360 0.06585615
v -0.00284606 -0.00447562 0.06175107
v 0.00606868 -0.00408292 0.04126095
v 0.01158194 -0.00392473 0.03384413
v -0.00400281 -0.00457596 0.06811317
v -0.00032667 -0.00449670 0.06209751
v 0.01383082 -0.00413706 0.04300978
v 0.00783793 -0.00415033 0.04386955
v -0.00039344 -0.00460875 0.06857745
v 0.00857290 -0.00423948 0.04769684
v 0.01437780 -0.00426193 0.04842712
v 0.00322173 -0.00462352 0.06819113
v 0.00220202 -0.00450516 0.06180410
v 0.00849527 -0.00432498 0.05162668
v 0.01393272 -0.00437606 0.05379235
v 0.00706470 -0.00459788 0.06601297
v 0.00438739 -0.00449514 0.06063284
v 0.00768593 -0.00439897 0.05521133
v 0.01251055 -0.00446983 0.05857689
v 0.01022210 -0.00454921 0.06279870
v 0.00627684 -0.00445551 0.05821523
v -0.00008064 -0.00437749 0.03898278
v -0.00356619 -0.00436819 0.03943918
v 0.00338831 -0.00441341 0.03951154
v -0.00008058 -0.00486897 0.03857349
v -0.00633095 -0.00438849 0.04115483
v -0.00381834 -0.00485602 0.03912828
v 0.00612041 -0.00446696 0.04128555
v 0.00364449 -0.00490541 0.03920721
v -0.00713131 -0.00531411 0.03601598
v 0.00701590 -0.00540658 0.03616570
v -0.00665656 -0.00487775 0.04093788
v 0.00644211 -0.00496534 0.04107368
v -0.00816020 -0.00443078 0.04373277
v -0.00854334 -0.00492525 0.04360582
v 0.00789350 -0.00453490 0.04390215
v 0.00827286 -0.00503561 0.04378294
v -0.00897670 -0.00533174 0.03726558
v -0.01041130 -0.00469549 0.03311580
v -0.01113957 -0.00544620 0.04309203
v 0.00883650 -0.00544620 0.03745155
v 0.01036473 -0.00483044 0.03333522
v 0.01087560 -0.00558741 0.04332530
v -0.00933901 -0.00500639 0.04748888
v -0.00896206 -0.00451049 0.04753215
v 0.00898251 -0.00512508 0.04768135
v -0.01360247 -0.00488790 0.04274097
v -0.01119527 -0.00470623 0.03375531
v -0.01060606 -0.00404615 0.03262732
v -0.01192054 -0.00554381 0.04779835
v -0.00896785 -0.00459567 0.05144761
v -0.00934682 -0.00509359 0.05149960
v 0.01113380 -0.00484977 0.03398716
v 0.01057517 -0.00418026 0.03284739
v -0.00823230 -0.00467864 0.05505237
v -0.01160267 -0.00405800 0.03356088
v -0.01404866 -0.00424468 0.04269262
v -0.01173860 -0.00564395 0.05242932
v -0.01434739 -0.00500171 0.04819938
v -0.00858166 -0.00517968 0.05521231
v 0.01155636 -0.00420863 0.03380574
v -0.00690058 -0.00475269 0.05806928
v -0.01071004 -0.00574468 0.05665622
v -0.01397018 -0.00511792 0.05337479
v -0.00723530 -0.00525366 0.05828928
v -0.01472545 -0.00435706 0.04812071
v -0.00970926 -0.01265356 0.02723334
v -0.01008589 -0.01385014 0.02957781
v -0.01009741 -0.01386621 0.03071107
v -0.01052127 -0.01147007 0.03226286
v -0.01011302 -0.01388710 0.03223397
v -0.00793148 -0.01266476 0.02713482
v -0.00799206 -0.01390044 0.03225408
v -0.00912597 -0.00454186 0.02709018
v -0.01260892 0.00419575 0.02616026
v -0.01195952 0.00424742 0.02570757
v -0.01235000 0.00579420 0.02546284
v -0.01352257 0.00605292 0.02560170
v -0.01337824 0.00585660 0.02642028
v -0.01277966 0.00414220 0.02671056
v -0.00272561 0.00766080 0.01070162
v -0.00258923 0.00048025 0.01295702
v 0.00029292 0.00764401 0.01073247
v 0.00022271 0.00046503 0.01298760
v 0.00303478 0.00044609 0.01301396
v 0.00331146 0.00762326 0.01076312
v -0.00795211 -0.01594227 0.02691905
v -0.00800592 -0.01597604 0.03222597
v -0.00708290 -0.01261524 0.02317921
v -0.00514674 -0.01348249 0.01848804
v -0.00596955 -0.01163118 0.01775978
v -0.00641236 -0.00445232 0.01939492
v -0.00863782 -0.00449052 0.02327434
v -0.01183374 0.00605956 0.02404158
v 0.00665860 -0.00453568 0.01953040
v 0.00995206 0.00435628 0.01968891
v 0.00615607 -0.01171089 0.01788751
v 0.00880201 -0.00460589 0.02345634
v 0.00713979 -0.01270809 0.02332659
v 0.00529480 -0.01355257 0.01860068
v 0.01181697 0.00428249 0.02401881
v 0.00920753 -0.00466068 0.02728285
v 0.01218449 0.00408884 0.02596082
v 0.00788706 -0.01604476 0.02708797
v 0.00790769 -0.01276718 0.02730374
v 0.01259631 0.00562899 0.02572462
v 0.01209183 0.00590658 0.02429451
v 0.00784314 -0.01400286 0.03242294
v 0.00783331 -0.01607827 0.03239092
v -0.00005976 -0.01154002 0.03237199
v -0.00004414 -0.01151920 0.03084902
v -0.01361405 0.00610237 0.02389120
v 0.01282191 0.00403048 0.02642835
v 0.01360555 0.00568261 0.02670470
v 0.01297691 0.00397432 0.02698138
v 0.00231478 -0.01600682 0.02702836
v 0.00225693 -0.01604450 0.03233490
v 0.00241928 -0.01353279 0.01856906
v 0.00227066 -0.01378578 0.01680240
v 0.00154728 -0.01389198 0.01561409
v 0.00010520 -0.01390759 0.01521638
v 0.00184576 -0.01814860 0.03230060
v 0.00190380 -0.01807521 0.02699628
v -0.00010583 -0.01876879 0.03227184
v -0.00004772 -0.01869545 0.02696759
v 0.00000538 -0.01862505 0.02171077
v 0.00195696 -0.01800486 0.02173947
v 0.00181875 -0.01748977 0.01940865
v 0.00003394 -0.01811151 0.01938334
v 0.00111391 -0.01642028 0.01743924
v 0.00006798 -0.01676040 0.01715280
v -0.00134418 -0.01387233 0.01558611
v -0.00209027 -0.01375787 0.01675581
v -0.00227129 -0.01350221 0.01851967
v -0.00237580 -0.01597624 0.02697898
v -0.00243364 -0.01601391 0.03228551
v -0.00204654 -0.01812459 0.03225968
v -0.00199247 -0.01805119 0.02695529
v -0.00193534 -0.01798085 0.02169860
v -0.00173993 -0.01746849 0.01937059
v -0.00097920 -0.01640700 0.01741575
v 0.00317664 -0.00756287 0.06641191
v -0.00395654 -0.00751615 0.06633585
v -0.00039701 -0.00757465 0.06689695
v -0.00735008 -0.00735464 0.06431991
v 0.00661448 -0.00744548 0.06446586
v -0.01033127 -0.00713503 0.06140074
v 0.00965833 -0.00726355 0.06161195
v -0.01251333 -0.00682035 0.05713916
v 0.01193260 -0.00698140 0.05739469
v -0.01391012 -0.00646813 0.05219201
v 0.01343513 -0.00664512 0.05247988
v -0.01408815 -0.00609567 0.04690565
v 0.01372970 -0.00627656 0.04719925
v -0.01354957 -0.00574787 0.04192337
v 0.01330317 -0.00592473 0.04220486
v -0.01111478 -0.00514864 0.03312797
v 0.01105929 -0.00529127 0.03336450
v 0.01009554 -0.00521566 0.03234980
v -0.01012844 -0.00508532 0.03213773
v -0.00657744 -0.00472692 0.03290420
v -0.00656579 -0.00377833 0.03313168
v -0.00657763 -0.00438374 0.03364241
v -0.00656813 -0.00380383 0.03265628
v -0.00656364 -0.00436350 0.03200401
v -0.00657035 -0.00520518 0.03216155
v -0.00655688 -0.00351779 0.03184668
v -0.00655239 -0.00407342 0.03119461
v -0.00655902 -0.00491888 0.03134798
v -0.00741170 -0.00438081 0.03363298
v -0.00739960 -0.00472412 0.03289495
v -0.00739648 -0.00520239 0.03215224
v -0.00738528 -0.00491627 0.03134264
v -0.00737852 -0.00407056 0.03118530
v -0.00737904 -0.00351102 0.03183770
v -0.00739023 -0.00379707 0.03264730
v -0.00739979 -0.00377143 0.03312244
v -0.00738580 -0.00435667 0.03199504
v -0.00828156 -0.00520785 0.03152816
v -0.00827616 -0.00462092 0.03074536
v -0.00827909 -0.00541647 0.03073879
v -0.00827356 -0.00433865 0.03112557
v -0.00827935 -0.00434925 0.03198456
v -0.00829073 -0.00510029 0.03240654
v -0.00827206 -0.00359847 0.03156648
v -0.00828188 -0.00361305 0.03242515
v -0.00828924 -0.00436389 0.03284322
v -0.00744508 -0.00542336 0.03074803
v -0.00504107 -0.00482003 0.06054044
v -0.00897579 -0.00583467 0.06037718
v -0.01269266 -0.00522503 0.05804839
v -0.01438793 -0.00447711 0.05348613
v -0.00527480 -0.00532472 0.06086976
v -0.01306948 -0.00458890 0.05829162
v -0.01059343 -0.00533558 0.06236494
v -0.00655096 -0.00591100 0.06317422
v -0.00306938 -0.00536473 0.06217969
v -0.00288966 -0.00485882 0.06177365
v -0.01087838 -0.00469874 0.06258631
v -0.00773900 -0.00541764 0.06532590
v -0.00354146 -0.00596852 0.06497770
v -0.00033702 -0.00539226 0.06260193
v -0.00781520 -0.00478808 0.06582583
v -0.00400893 -0.00486129 0.06809502
v -0.00395681 -0.00549136 0.06760641
v -0.00036851 -0.00600041 0.06541687
v -0.00039558 -0.00489415 0.06855936
v -0.00039474 -0.00552273 0.06805383
v 0.00317644 -0.00553411 0.06768274
v 0.00280931 -0.00601277 0.06504538
v 0.00322759 -0.00490872 0.06816920
v 0.00700406 -0.00551088 0.06548018
v 0.00707869 -0.00488270 0.06598329
v 0.01021149 -0.00483604 0.06280423
v 0.00585668 -0.00599299 0.06330378
v 0.00992447 -0.00546833 0.06257902
v 0.01249650 -0.00475509 0.05855854
v 0.00240367 -0.00540176 0.06223727
v 0.00463466 -0.00538634 0.06097576
v 0.00834086 -0.00594919 0.06056068
v 0.01211466 -0.00538901 0.05830737
v 0.01391457 -0.00466178 0.05378181
v 0.00441960 -0.00488166 0.06063688
v 0.00223787 -0.00489272 0.06182408
v 0.00665385 -0.00534385 0.05843367
v 0.01015339 -0.00588022 0.05687348
v 0.01349018 -0.00529596 0.05366507
v 0.01436739 -0.00454433 0.04842497
v 0.00632922 -0.00483754 0.05820807
v 0.00806379 -0.00528450 0.05538618
v 0.01126953 -0.00579322 0.05267113
v 0.01397892 -0.00518267 0.04849577
v 0.01380506 -0.00442174 0.04298329
v 0.01334957 -0.00506170 0.04302474
v 0.01155226 -0.00569295 0.04804601
v 0.00890723 -0.00521169 0.05169071
v 0.00772211 -0.00478184 0.05521973
v 0.00853945 -0.00470766 0.05163124
v 0.00861279 -0.00462313 0.04771721
v -0.00032693 -0.00488126 0.06213687
v -0.01028910 -0.00743813 0.06134269
v -0.00733876 -0.00764700 0.06422198
v -0.00721070 -0.00804751 0.06361819
v -0.01245919 -0.00713523 0.05707663
v -0.00994085 -0.00790546 0.06101396
v -0.00387241 -0.00816483 0.06563582
v -0.00394913 -0.00780448 0.06623818
v -0.00524213 -0.00864485 0.06094303
v -0.01200454 -0.00769887 0.05674803
v -0.01384876 -0.00679673 0.05215655
v -0.00039213 -0.00826081 0.06616901
v -0.00039760 -0.00787085 0.06679863
v 0.00316818 -0.00785113 0.06631392
v -0.01333887 -0.00747841 0.05198886
v -0.00639030 -0.00836264 0.05198815
v -0.01403122 -0.00644496 0.04688470
v 0.00590223 -0.00843969 0.05211562
v 0.00456009 -0.00870556 0.06104675
v 0.00309797 -0.00821019 0.06570850
v -0.01356864 -0.00726888 0.04683043
v -0.00615878 -0.00806619 0.04201642
v 0.00660199 -0.00773765 0.06436748
v 0.00647979 -0.00813614 0.06376252
v -0.01295847 -0.00709228 0.04196625
v 0.01142063 -0.00785159 0.05699445
v 0.00926635 -0.00803150 0.06121672
v 0.00961318 -0.00756586 0.06155203
v 0.01187547 -0.00729550 0.05733379
v 0.01337338 -0.00697659 0.05244169
v 0.01285855 -0.00765000 0.05226476
v 0.01367147 -0.00662488 0.04717596
v 0.01319685 -0.00744099 0.04711030
v 0.01269483 -0.00725925 0.04223492
v 0.01323257 -0.00629374 0.04219594
v 0.00587952 -0.00814121 0.04214265
v 0.01050724 -0.00695010 0.03360617
v 0.01099975 -0.00569757 0.03337732
v 0.00529454 -0.00741295 0.03361801
v -0.00538535 -0.00734104 0.03350440
v 0.01006300 -0.00562469 0.03240283
v 0.00978190 -0.00692323 0.03295560
v -0.00985027 -0.00679764 0.03274783
v -0.01058660 -0.00681281 0.03338812
v -0.01010144 -0.00549488 0.03219207
v -0.01105908 -0.00555201 0.03314346
v -0.01348508 -0.00611786 0.04191328
v -0.00567537 -0.00384470 0.03269246
v -0.00568123 -0.00469562 0.03280568
v -0.00567004 -0.00436689 0.03201469
v -0.00567980 -0.00521358 0.03212413
v -0.00566424 -0.00352026 0.03190517
v -0.00566275 -0.00403822 0.03122356
v -0.00745933 -0.00521436 0.03153317
v -0.00746851 -0.00510686 0.03241155
v -0.00746708 -0.00436669 0.03285246
v -0.00745582 -0.00361591 0.03243452
v -0.00744996 -0.00360524 0.03157546
v -0.00744743 -0.00434541 0.03113461
v -0.00744209 -0.00462782 0.03075460
v -0.00745725 -0.00435608 0.03199354
v -0.00652031 -0.00500008 0.03406641
v -0.00570023 -0.00477416 0.03272870
v -0.00650651 -0.00477149 0.03271979
v -0.00571806 -0.00500665 0.03407500
v -0.00645289 -0.00535029 0.03932798
v -0.00590077 -0.00535465 0.03933137
v -0.00652180 -0.00521058 0.03211450
v -0.00650352 -0.00516126 0.03221354
v -0.00652720 -0.00468859 0.03279624
v -0.00651744 -0.00384197 0.03268680
v -0.00569724 -0.00516393 0.03222239
v -0.00651022 -0.00351330 0.03189574
v -0.00650475 -0.00403125 0.03121419
v -0.00651061 -0.00488211 0.03132741
v -0.00566860 -0.00488510 0.03133705
v -0.00652310 -0.00538803 0.03403381
v -0.00645159 -0.00573798 0.03929154
v -0.00571682 -0.00539070 0.03404273
v -0.00590351 -0.00574260 0.03929883
v 0.00653321 -0.00481463 0.03304032
v 0.00652098 -0.00447158 0.03378225
v 0.00653302 -0.00386194 0.03326774
v 0.00654245 -0.00388784 0.03279663
v 0.00654701 -0.00444725 0.03214034
v 0.00653633 -0.00529290 0.03229755
v 0.00655377 -0.00360153 0.03198300
v 0.00655429 -0.00416113 0.03133060
v 0.00654759 -0.00500288 0.03148820
v 0.00735505 -0.00447451 0.03379175
v 0.00735537 -0.00481750 0.03304956
v 0.00736240 -0.00529576 0.03230685
v 0.00737366 -0.00500965 0.03149725
v 0.00738042 -0.00416400 0.03133991
v 0.00737593 -0.00360830 0.03199198
v 0.00736468 -0.00389441 0.03280164
v 0.00736702 -0.00386884 0.03327698
v 0.00736917 -0.00445004 0.03214958
v 0.00827800 -0.00472900 0.03091715
v 0.00826069 -0.00531574 0.03169962
v 0.00827507 -0.00552448 0.03091051
v 0.00827260 -0.00444686 0.03130106
v 0.00826278 -0.00445746 0.03215999
v 0.00825152 -0.00520824 0.03257800
v 0.00827019 -0.00370642 0.03173794
v 0.00826427 -0.00371729 0.03260097
v 0.00825295 -0.00446807 0.03301898
v 0.00744094 -0.00551785 0.03090524
v 0.00743853 -0.00530897 0.03169064
v 0.00742936 -0.00520147 0.03256902
v 0.00743079 -0.00446527 0.03300974
v 0.00743814 -0.00371449 0.03259166
v 0.00744790 -0.00370382 0.03173274
v 0.00744647 -0.00444002 0.03129202
v 0.00744387 -0.00472236 0.03091188
v 0.00744068 -0.00445070 0.03215101
v 0.00566283 -0.00484769 0.03284862
v 0.00645129 -0.00508285 0.03420384
v 0.00646508 -0.00485426 0.03285721
v 0.00564500 -0.00508018 0.03419493
v 0.00626460 -0.00543475 0.03945994
v 0.00571645 -0.00543039 0.03945662
v 0.00648955 -0.00529368 0.03225271
v 0.00646808 -0.00524403 0.03235097
v 0.00648415 -0.00477546 0.03293029
v 0.00564214 -0.00476876 0.03292489
v 0.00564800 -0.00392187 0.03281140
v 0.00649397 -0.00392486 0.03282110
v 0.00564754 -0.00528672 0.03224334
v 0.00566583 -0.00523746 0.03234238
v 0.00565912 -0.00359340 0.03202432
v 0.00650120 -0.00359613 0.03203004
v 0.00650653 -0.00411832 0.03135221
v 0.00566459 -0.00411142 0.03134284
v 0.00650081 -0.00496501 0.03146172
v 0.00565476 -0.00495824 0.03145625
v 0.00644862 -0.00547054 0.03416734
v 0.00626187 -0.00581873 0.03942760
v 0.00564234 -0.00546390 0.03415868
v 0.00571378 -0.00581808 0.03942005
v -0.01250656 -0.01262194 0.05856355
v 0.01182029 -0.01277791 0.05881680
v 0.00020449 0.02769426 0.03139294
v -0.00306001 0.02728360 0.03135370
v -0.00525196 0.02595370 0.03131082
v -0.00769404 0.02324594 0.03124712
v 0.00804980 0.02314430 0.03141409
v -0.00939335 0.02008269 0.03118621
v 0.00970662 0.01996152 0.03138702
v -0.01072253 0.01561217 0.03111015
v 0.01097893 0.01547377 0.03133692
v -0.01111731 0.01126133 0.03104547
v 0.01131886 0.01111661 0.03128336
v -0.01064686 0.00729296 0.03099536
v 0.01080038 0.00715254 0.03122063
v -0.00936882 0.00394998 0.03096608
v 0.00947698 0.00382713 0.03116142
v -0.00708238 0.00100472 0.03094741
v 0.00715619 0.00091147 0.03109902
v -0.00395928 -0.00071886 0.03095613
v 0.00401194 -0.00076851 0.03104176
v 0.00002308 -0.00135219 0.03099224
v -0.00651595 -0.00435992 0.03200519
v 0.00565333 -0.00444009 0.03213383
v 0.00649534 -0.00444705 0.03214327
f 1 2 3
f 1 3 4
f 5 1 4
f 1 5 6
f 6 5 7
f 6 7 8
f 9 2 1
f 2 9 10
f 10 3 2
f 3 10 11
f 12 3 11
f 3 12 4
f 13 4 12
f 4 13 5
f 13 7 5
f 7 13 14
f 7 14 15
f 7 15 8
f 8 15 16
f 8 16 6
f 1 6 16
f 1 16 9
f 17 18 19
f 18 17 20
f 17 21 20
f 21 17 22
f 23 21 22
f 21 23 24
f 25 24 23
f 24 25 26
f 27 26 25
f 26 27 28
f 29 19 18
f 18 30 29
f 29 30 31
f 30 32 31
f 30 33 32
f 33 30 34
f 34 35 33
f 30 18 20
f 20 21 30
f 34 30 21
f 34 21 24
f 26 34 24
f 34 26 28
f 36 28 27
f 34 28 36
f 36 35 34
f 37 38 39
f 38 40 39
f 41 40 38
f 39 40 42
f 41 43 40
f 44 43 41
f 44 45 43
f 44 46 45
f 46 44 47
f 45 46 48
f 46 47 49
f 49 50 46
f 46 51 48
f 51 46 50
f 52 53 54
f 55 53 52
f 52 56 55
f 56 57 55
f 53 58 54
f 58 53 59
f 55 59 53
f 59 55 60
f 60 61 59
f 58 59 61
f 58 61 62
f 61 60 63
f 63 64 61
f 62 61 64
f 64 65 62
f 64 63 66
f 66 65 64
f 65 67 62
f 68 66 63
f 69 63 60
f 63 69 68
f 60 55 70
f 69 60 71
f 71 60 70
f 67 65 72
f 65 66 73
f 72 65 73
f 74 73 66
f 66 68 74
f 72 75 67
f 76 74 68
f 77 68 69
f 68 77 76
f 69 78 77
f 78 69 71
f 71 79 78
f 79 71 70
f 73 74 80
f 80 81 73
f 72 73 81
f 82 80 74
f 74 76 82
f 75 72 83
f 72 84 83
f 84 72 81
f 83 85 75
f 82 76 86
f 76 77 87
f 86 76 87
f 80 82 88
f 81 80 89
f 88 89 80
f 90 81 89
f 81 90 84
f 82 91 88
f 91 82 86
f 85 83 92
f 83 93 92
f 93 83 84
f 94 84 90
f 84 94 93
f 95 90 89
f 89 88 95
f 96 88 91
f 88 96 95
f 97 94 90
f 90 95 97
f 86 87 98
f 99 86 98
f 91 86 99
f 96 97 95
f 100 91 99
f 91 100 96
f 97 96 101
f 101 96 100
f 101 102 97
f 94 97 102
f 94 103 93
f 104 93 103
f 93 104 92
f 104 85 92
f 105 94 102
f 103 94 106
f 94 105 106
f 100 107 101
f 102 101 108
f 107 108 101
f 109 102 108
f 102 109 105
f 106 110 103
f 111 103 110
f 103 111 104
f 85 104 112
f 111 112 104
f 113 105 109
f 114 106 105
f 105 113 114
f 106 114 115
f 110 106 115
f 108 107 116
f 117 108 116
f 108 117 109
f 118 109 117
f 109 118 113
f 115 114 119
f 113 119 114
f 119 113 120
f 118 120 113
f 121 110 115
f 110 121 122
f 111 110 122
f 115 119 121
f 111 123 112
f 111 122 124
f 124 123 111
f 125 119 120
f 121 119 125
f 121 125 126
f 126 122 121
f 122 126 127
f 127 124 122
f 118 128 120
f 120 129 125
f 129 120 128
f 130 125 129
f 126 125 130
f 126 130 131
f 131 127 126
f 123 124 132
f 133 132 124
f 124 127 133
f 127 131 134
f 134 133 127
f 133 134 135
f 132 133 135
f 128 136 129
f 129 137 130
f 137 129 136
f 137 138 130
f 131 130 138
f 131 138 139
f 139 134 131
f 134 139 140
f 140 135 134
f 141 132 135
f 135 140 142
f 141 135 142
f 136 143 137
f 139 138 144
f 144 145 139
f 139 145 140
f 146 142 140
f 145 147 140
f 140 147 146
f 142 146 148
f 141 142 148
f 145 149 147
f 149 145 144
f 141 148 150
f 146 147 151
f 149 151 147
f 152 146 151
f 151 149 153
f 154 137 143
f 138 137 154
f 155 138 154
f 138 155 156
f 138 156 144
f 155 157 156
f 144 156 158
f 156 157 159
f 156 160 158
f 159 160 156
f 159 157 161
f 160 159 162
f 159 163 162
f 159 161 164
f 163 159 164
f 161 165 164
f 166 165 161
f 165 166 167
f 98 87 168
f 87 169 168
f 87 77 169
f 170 169 77
f 77 171 170
f 77 78 171
f 172 170 171
f 78 173 171
f 171 174 172
f 171 173 175
f 175 174 171
f 174 176 172
f 174 175 177
f 178 179 180
f 179 178 181
f 181 178 182
f 183 184 185
f 186 183 185
f 184 183 187
f 183 186 188
f 189 184 187
f 184 189 190
f 186 191 188
f 191 186 192
f 193 190 189
f 190 193 194
f 192 195 191
f 195 192 196
f 197 194 193
f 194 197 198
f 196 199 195
f 199 196 200
f 201 198 197
f 198 201 202
f 200 203 199
f 203 200 204
f 205 202 201
f 202 205 206
f 204 207 203
f 207 204 208
f 209 206 205
f 206 209 210
f 208 211 207
f 211 208 212
f 213 210 209
f 213 209 214
f 182 211 212
f 215 211 182
f 214 216 213
f 216 214 217
f 182 178 215
f 178 218 215
f 217 219 216
f 219 217 220
f 178 180 218
f 218 180 221
f 222 219 220
f 180 222 221
f 219 222 223
f 222 180 223
f 189 187 224
f 193 189 224
f 187 225 224
f 225 187 183
f 225 226 224
f 227 193 224
f 227 224 226
f 197 193 227
f 188 225 183
f 226 225 228
f 225 188 229
f 225 230 228
f 225 229 230
f 231 227 226
f 232 231 226
f 232 226 228
f 233 227 231
f 234 197 227
f 227 233 234
f 231 232 235
f 233 231 235
f 197 234 201
f 191 229 188
f 228 236 232
f 237 228 230
f 236 228 237
f 229 238 230
f 195 229 191
f 238 229 195
f 239 230 238
f 237 230 239
f 233 235 240
f 241 233 240
f 241 234 233
f 234 241 242
f 205 201 234
f 242 205 234
f 239 243 237
f 238 244 239
f 244 243 239
f 244 238 245
f 199 238 195
f 199 245 238
f 246 241 240
f 247 242 241
f 241 246 247
f 205 242 209
f 242 247 248
f 214 209 242
f 248 214 242
f 244 249 243
f 250 249 244
f 245 250 244
f 245 199 203
f 250 245 251
f 207 245 203
f 207 251 245
f 247 252 248
f 252 247 253
f 246 253 247
f 253 246 254
f 252 220 248
f 214 248 217
f 220 217 248
f 250 255 249
f 255 253 254
f 256 252 253
f 253 255 256
f 251 256 250
f 255 250 256
f 251 207 211
f 256 251 257
f 215 251 211
f 215 257 251
f 252 256 257
f 220 252 222
f 252 221 222
f 221 252 257
f 221 257 218
f 257 215 218
f 258 259 260
f 261 260 259
f 262 258 260
f 262 263 258
f 260 261 264
f 263 262 265
f 265 266 263
f 261 267 264
f 267 261 268
f 266 265 269
f 269 270 266
f 267 268 271
f 272 267 271
f 270 269 273
f 273 274 270
f 272 271 275
f 274 273 276
f 276 277 274
f 278 272 275
f 272 278 279
f 277 276 280
f 280 281 277
f 278 282 279
f 282 278 283
f 281 280 284
f 285 282 283
f 286 282 285
f 287 281 284
f 281 287 288
f 289 286 285
f 286 289 290
f 291 288 287
f 288 291 292
f 293 290 289
f 290 293 294
f 295 292 291
f 296 294 293
f 294 296 295
f 292 295 296
f 268 297 271
f 297 275 271
f 297 268 298
f 261 298 268
f 275 297 299
f 299 297 300
f 298 300 297
f 299 278 275
f 298 261 301
f 300 298 302
f 301 302 298
f 259 301 261
f 278 299 303
f 303 299 304
f 299 300 304
f 305 300 302
f 305 306 300
f 306 304 300
f 307 305 302
f 302 301 307
f 304 306 308
f 303 304 308
f 303 283 278
f 301 259 309
f 301 310 307
f 301 309 310
f 258 309 259
f 283 303 311
f 312 303 308
f 303 312 311
f 307 313 305
f 314 306 305
f 313 314 305
f 315 313 307
f 315 307 310
f 316 308 306
f 314 317 306
f 317 316 306
f 318 308 316
f 308 318 312
f 319 315 310
f 309 319 310
f 309 258 320
f 309 320 319
f 318 321 312
f 321 311 312
f 263 320 258
f 322 313 315
f 322 323 313
f 314 313 323
f 324 317 314
f 323 324 314
f 315 319 325
f 325 322 315
f 320 263 326
f 326 319 320
f 327 325 319
f 319 326 327
f 316 317 328
f 324 329 317
f 329 328 317
f 266 326 263
f 326 266 330
f 330 327 326
f 324 323 331
f 332 323 322
f 332 331 323
f 331 267 324
f 267 329 324
f 325 327 333
f 322 325 334
f 333 334 325
f 335 333 327
f 327 330 335
f 267 331 264
f 331 332 264
f 267 272 329
f 272 336 329
f 328 329 336
f 270 330 266
f 330 270 337
f 337 335 330
f 333 335 338
f 334 333 339
f 338 339 333
f 340 338 335
f 335 337 340
f 260 264 332
f 336 272 279
f 339 341 334
f 342 174 177
f 174 342 343
f 174 343 176
f 176 343 344
f 344 345 176
f 345 344 346
f 347 343 342
f 343 347 348
f 348 344 343
f 344 348 346
f 342 349 347
f 349 342 177
f 350 349 177
f 349 350 351
f 350 352 351
f 352 350 353
f 353 350 354
f 350 177 355
f 350 355 354
f 177 175 355
f 175 354 355
f 353 354 79
f 354 175 173
f 354 173 78
f 79 354 78
f 246 240 356
f 356 240 235
f 357 356 235
f 358 357 359
f 357 358 356
f 360 358 359
f 358 246 356
f 246 358 254
f 358 360 361
f 358 255 254
f 361 255 358
f 360 243 361
f 249 361 243
f 255 361 249
f 235 232 357
f 232 359 357
f 359 232 236
f 237 359 236
f 359 237 360
f 243 360 237
f 348 362 363
f 348 347 362
f 362 347 364
f 364 365 362
f 349 364 347
f 365 364 366
f 364 367 366
f 367 364 368
f 364 349 368
f 366 37 365
f 37 366 38
f 367 38 366
f 351 368 349
f 368 52 367
f 54 367 52
f 54 38 367
f 52 368 56
f 368 351 56
f 54 41 38
f 352 56 351
f 58 41 54
f 56 352 369
f 58 44 41
f 62 44 58
f 67 44 62
f 44 67 47
f 47 67 75
f 75 49 47
f 49 75 85
f 85 50 49
f 85 51 50
f 112 51 85
f 112 48 51
f 123 48 112
f 123 45 48
f 45 123 132
f 132 141 45
f 141 43 45
f 141 150 43
f 150 40 43
f 370 40 150
f 150 371 370
f 372 40 370
f 40 372 42
f 371 373 370
f 370 374 372
f 374 370 373
f 375 42 372
f 374 375 372
f 373 371 376
f 377 374 373
f 373 378 377
f 378 373 376
f 375 374 379
f 374 377 380
f 379 374 380
f 376 381 378
f 381 376 382
f 380 383 379
f 384 379 383
f 385 176 345
f 176 385 386
f 385 161 386
f 161 385 166
f 56 369 57
f 387 57 369
f 57 387 55
f 70 55 387
f 79 70 387
f 79 387 353
f 352 387 369
f 387 352 353
f 371 150 148
f 146 371 148
f 376 371 146
f 376 146 152
f 164 380 163
f 380 164 383
f 383 164 165
f 165 167 383
f 377 163 380
f 163 377 162
f 377 388 162
f 377 378 388
f 381 388 378
f 388 381 153
f 389 388 153
f 390 162 388
f 388 389 390
f 162 390 160
f 389 160 390
f 153 149 389
f 160 389 158
f 389 144 158
f 149 144 389
f 376 152 382
f 151 382 152
f 382 151 381
f 151 153 381
f 391 384 392
f 391 379 384
f 391 375 379
f 375 391 393
f 393 394 375
f 375 394 42
f 395 42 394
f 42 395 39
f 395 396 39
f 397 391 392
f 391 397 398
f 399 398 397
f 398 399 400
f 401 398 400
f 402 398 401
f 398 402 391
f 393 391 402
f 401 403 402
f 393 402 403
f 403 401 404
f 403 394 393
f 394 403 405
f 404 405 403
f 405 404 406
f 405 395 394
f 396 405 406
f 405 396 395
f 407 39 396
f 407 37 39
f 37 407 408
f 408 365 37
f 409 365 408
f 410 365 409
f 365 410 362
f 410 363 362
f 363 410 411
f 412 400 399
f 400 412 413
f 413 401 400
f 401 413 414
f 412 410 413
f 410 414 413
f 410 412 411
f 415 401 414
f 409 415 414
f 410 409 414
f 401 415 404
f 415 409 408
f 404 415 416
f 415 408 416
f 406 404 416
f 407 416 408
f 396 416 407
f 416 396 406
f 417 418 419
f 417 420 418
f 421 420 417
f 421 422 420
f 422 421 423
f 423 424 422
f 424 423 425
f 425 426 424
f 426 425 427
f 427 428 426
f 428 427 429
f 429 430 428
f 430 429 431
f 430 431 432
f 433 432 431
f 432 433 434
f 432 434 435
f 436 437 438
f 437 436 439
f 439 436 440
f 436 441 440
f 442 439 440
f 443 442 440
f 441 444 440
f 444 443 440
f 445 436 438
f 436 445 446
f 441 436 446
f 447 441 446
f 444 441 447
f 448 444 447
f 443 444 448
f 449 443 448
f 442 443 449
f 450 442 449
f 439 442 450
f 451 439 450
f 452 439 451
f 452 437 439
f 452 438 437
f 438 452 445
f 452 446 445
f 446 452 451
f 446 451 453
f 447 446 453
f 451 450 453
f 450 449 453
f 448 447 453
f 449 448 453
f 454 455 456
f 455 454 457
f 457 454 458
f 454 459 458
f 460 457 458
f 461 460 458
f 459 462 458
f 462 461 458
f 463 454 456
f 341 322 334
f 274 337 270
f 337 274 464
f 464 340 337
f 338 340 465
f 339 338 466
f 465 466 338
f 341 339 467
f 466 467 339
f 468 465 340
f 340 464 468
f 265 341 467
f 265 262 341
f 260 341 262
f 341 260 332
f 341 332 322
f 469 265 467
f 467 466 469
f 466 465 470
f 470 469 466
f 465 468 471
f 471 470 465
f 472 471 468
f 464 472 468
f 274 473 464
f 464 473 472
f 265 469 269
f 273 269 469
f 469 470 474
f 273 469 474
f 470 471 475
f 475 474 470
f 471 472 476
f 476 475 471
f 477 476 472
f 473 477 472
f 478 273 474
f 474 475 478
f 273 478 276
f 479 276 478
f 479 478 475
f 475 476 480
f 479 475 480
f 476 477 481
f 481 480 476
f 276 479 280
f 482 280 479
f 482 479 480
f 480 481 483
f 482 480 483
f 481 484 483
f 484 482 483
f 477 485 481
f 484 481 485
f 280 482 284
f 482 287 284
f 287 482 486
f 482 484 486
f 485 487 484
f 487 486 484
f 486 291 287
f 291 486 488
f 486 487 488
f 488 295 291
f 295 488 489
f 487 489 488
f 487 485 490
f 489 487 491
f 490 491 487
f 492 295 489
f 491 492 489
f 493 490 485
f 485 477 493
f 295 492 294
f 490 493 494
f 494 495 490
f 491 490 495
f 495 496 491
f 492 491 496
f 492 290 294
f 290 492 497
f 496 497 492
f 493 498 494
f 498 493 499
f 477 499 493
f 495 494 500
f 498 500 494
f 500 501 495
f 496 495 501
f 501 502 496
f 497 496 502
f 503 290 497
f 502 503 497
f 290 503 286
f 498 499 292
f 292 504 498
f 498 504 500
f 501 500 505
f 504 505 500
f 505 506 501
f 502 501 506
f 506 507 502
f 503 502 507
f 503 282 286
f 282 503 508
f 509 503 507
f 503 509 508
f 507 506 510
f 510 509 507
f 506 505 511
f 511 510 506
f 512 511 505
f 504 512 505
f 296 512 504
f 504 292 296
f 508 279 282
f 279 508 336
f 328 508 509
f 508 328 336
f 509 510 318
f 316 509 318
f 509 316 328
f 510 511 321
f 321 318 510
f 513 321 511
f 512 513 511
f 293 513 512
f 512 296 293
f 513 293 289
f 513 514 321
f 289 514 513
f 311 321 514
f 285 311 514
f 514 289 285
f 311 285 283
f 473 274 277
f 277 515 473
f 473 515 477
f 277 281 515
f 281 288 515
f 499 515 288
f 499 477 515
f 288 292 499
f 420 422 516
f 424 516 422
f 420 516 517
f 418 420 517
f 516 518 517
f 516 424 519
f 519 520 516
f 518 516 520
f 426 519 424
f 521 517 518
f 418 517 522
f 517 521 522
f 523 518 520
f 523 521 518
f 520 519 524
f 524 523 520
f 525 524 519
f 519 426 525
f 526 522 521
f 523 526 521
f 419 418 522
f 522 526 527
f 419 522 527
f 428 525 426
f 526 528 527
f 528 419 527
f 524 525 529
f 530 523 524
f 524 529 530
f 531 529 525
f 525 428 531
f 532 523 530
f 533 526 523
f 523 532 533
f 528 526 534
f 533 534 526
f 529 531 535
f 535 530 529
f 535 536 530
f 536 532 530
f 419 528 417
f 534 537 528
f 537 417 528
f 537 534 538
f 538 534 533
f 531 539 535
f 536 535 539
f 533 532 540
f 538 533 541
f 533 540 541
f 538 542 537
f 542 538 541
f 542 421 537
f 417 537 421
f 543 541 540
f 541 543 542
f 425 542 543
f 425 423 542
f 421 542 423
f 540 544 543
f 427 543 544
f 427 425 543
f 544 540 545
f 532 545 540
f 545 546 544
f 429 544 546
f 429 427 544
f 546 545 547
f 532 547 545
f 547 548 546
f 546 549 429
f 549 546 548
f 547 550 548
f 547 532 550
f 548 551 549
f 551 548 550
f 536 550 532
f 431 429 549
f 552 549 551
f 549 552 431
f 550 553 551
f 550 554 553
f 554 550 536
f 551 555 552
f 553 556 551
f 555 551 556
f 555 433 552
f 433 431 552
f 553 557 556
f 557 553 554
f 557 555 556
f 536 558 554
f 554 558 557
f 558 536 539
f 558 559 557
f 555 557 559
f 435 555 559
f 435 434 555
f 433 555 434
f 559 558 560
f 561 558 539
f 561 560 558
f 432 435 559
f 432 559 560
f 560 430 432
f 430 560 561
f 531 561 539
f 428 430 561
f 428 561 531
f 562 563 564
f 563 565 564
f 566 562 564
f 567 566 564
f 454 463 568
f 568 459 454
f 459 568 569
f 462 459 569
f 570 462 569
f 461 462 570
f 571 461 570
f 571 460 461
f 460 571 572
f 572 457 460
f 457 572 573
f 457 573 574
f 457 574 455
f 574 456 455
f 456 574 463
f 574 568 463
f 568 574 573
f 568 573 575
f 569 568 575
f 573 572 575
f 572 571 575
f 570 569 575
f 571 570 575
f 576 577 578
f 576 579 577
f 580 579 576
f 581 579 580
f 578 582 583
f 582 578 584
f 577 584 578
f 584 577 563
f 562 584 563
f 584 562 585
f 577 565 563
f 565 577 586
f 566 585 562
f 585 566 587
f 587 566 588
f 566 567 588
f 588 567 589
f 567 590 589
f 589 590 582
f 590 565 582
f 582 565 586
f 582 586 583
f 583 591 578
f 576 578 591
f 591 592 576
f 580 576 592
f 586 591 583
f 591 586 593
f 594 591 593
f 591 594 592
f 577 593 586
f 593 577 579
f 579 594 593
f 594 579 581
f 592 581 580
f 581 592 594
f 595 596 597
f 598 595 597
f 598 599 595
f 595 599 600
f 601 599 598
f 602 599 601
f 600 599 603
f 603 599 602
f 595 604 596
f 604 595 605
f 600 605 595
f 606 605 600
f 603 606 600
f 606 603 607
f 602 607 603
f 608 607 602
f 601 608 602
f 608 601 609
f 598 609 601
f 609 598 610
f 598 611 610
f 611 598 597
f 611 597 596
f 611 596 604
f 605 611 604
f 611 605 610
f 605 612 610
f 606 612 605
f 610 612 609
f 609 612 608
f 607 612 606
f 608 612 607
f 613 614 615
f 614 613 616
f 616 617 614
f 614 617 618
f 619 617 616
f 620 617 619
f 618 617 621
f 621 617 620
f 614 622 615
f 622 614 623
f 623 614 618
f 623 618 624
f 621 624 618
f 625 624 621
f 620 625 621
f 626 625 620
f 626 620 619
f 626 619 627
f 627 619 616
f 627 616 628
f 628 616 629
f 613 629 616
f 629 613 615
f 629 615 622
f 623 629 622
f 629 623 628
f 623 630 628
f 624 630 623
f 628 630 627
f 627 630 626
f 625 630 624
f 626 630 625
f 631 632 633
f 632 631 634
f 634 635 632
f 635 634 636
f 637 633 638
f 633 637 639
f 639 631 633
f 631 639 640
f 641 640 639
f 642 641 639
f 643 631 640
f 631 643 644
f 642 645 641
f 645 642 646
f 646 647 645
f 645 647 648
f 647 649 648
f 648 649 650
f 649 637 650
f 650 637 643
f 643 637 644
f 638 644 637
f 633 651 638
f 651 633 632
f 632 652 651
f 652 632 635
f 651 644 638
f 644 651 653
f 654 653 651
f 651 652 654
f 653 631 644
f 631 653 634
f 654 634 653
f 634 654 636
f 635 636 652
f 636 654 652
f 19 29 655
f 655 17 19
f 31 655 29
f 655 22 17
f 32 655 31
f 23 22 655
f 23 655 656
f 33 655 32
f 655 33 656
f 23 656 25
f 33 35 656
f 656 35 36
f 656 27 25
f 27 656 36
f 116 107 657
f 116 657 117
f 107 658 657
f 107 100 658
f 117 657 179
f 118 117 179
f 658 100 659
f 99 659 100
f 181 118 179
f 181 128 118
f 659 99 660
f 660 99 98
f 128 181 661
f 661 136 128
f 662 660 98
f 98 168 662
f 663 136 661
f 663 143 136
f 662 168 664
f 168 169 664
f 663 665 143
f 143 665 154
f 664 169 666
f 665 667 154
f 169 668 666
f 668 169 170
f 669 154 667
f 154 669 155
f 170 670 668
f 170 172 670
f 671 155 669
f 157 155 671
f 172 672 670
f 672 172 176
f 673 157 671
f 157 673 161
f 672 176 674
f 176 386 674
f 161 675 386
f 675 161 673
f 674 386 676
f 675 676 386
f 674 190 672
f 672 190 670
f 190 674 184
f 676 184 674
f 194 670 190
f 668 670 194
f 184 676 185
f 198 668 194
f 666 668 198
f 676 186 185
f 186 676 675
f 202 666 198
f 664 666 202
f 675 192 186
f 192 675 673
f 206 664 202
f 662 664 206
f 671 192 673
f 671 196 192
f 210 662 206
f 660 662 210
f 669 196 671
f 196 669 200
f 213 660 210
f 660 213 659
f 667 200 669
f 204 200 667
f 216 659 213
f 216 658 659
f 665 204 667
f 208 204 665
f 658 216 219
f 219 657 658
f 663 208 665
f 212 208 663
f 219 223 657
f 661 212 663
f 212 661 182
f 180 657 223
f 657 180 179
f 181 182 661
f 565 590 564
f 590 567 564
f 584 585 677
f 582 584 677
f 585 587 677
f 587 588 677
f 589 582 677
f 588 589 677
f 641 678 640
f 640 678 643
f 645 678 641
f 648 678 645
f 643 678 650
f 650 678 648
f 639 679 642
f 637 679 639
f 642 679 646
f 646 679 647
f 649 679 637
f 647 679 649
f 9 16 6
f 6 1 9
f 57 387 369
f 369 56 57
f 369 387 353
f 353 352 369
f 382 151 152
f 152 376 382
f 381 153 151
f 151 382 381
f 580 581 594
f 594 592 580
f 652 654 636
f 636 635 652