# https://github.com/mikedh/trimesh
v 0.03857508 0.01840918 0.00997170
v 0.04437486 0.01840918 0.00997170
v 0.04323360 0.01726774 0.00000000
v 0.03971652 0.01726774 0.00000000
v 0.04437486 0.01260928 0.00997170
v 0.04323360 0.01375072 0.00000000
v 0.03857508 0.01260928 0.00997170
v 0.03971652 0.01375072 0.00000000
v 0.01341480 0.01711401 0.10546650
v 0.02073810 0.01650183 0.10321182
v 0.01999872 0.02352915 0.10509600
v 0.01287330 0.02328231 0.10741266
v 0.02744904 0.01611399 0.10203132
v 0.02657868 0.02349879 0.10348686
v 0.03357834 0.01616433 0.10110900
v 0.03282978 0.02322765 0.10267644
v 0.03812136 0.01580595 0.09881616
v 0.03913020 0.02231139 0.10148730
v 0.03956136 0.01449447 0.09508164
v 0.04343256 0.01988667 0.09504912
v 0.03943998 0.01235217 0.08956584
v 0.04412844 0.01701681 0.08836494
v 0.03812700 0.00944415 0.08339706
v 0.04361910 0.01314303 0.08159706
v 0.03862908 0.00569571 0.07510770
v 0.04339998 0.01031007 0.07440750
v 0.03931890 0.00340971 0.06567342
v 0.04288638 0.00906669 0.06674760
v 0.03997854 0.00620883 0.05189856
v 0.04241286 0.01087797 0.06286257
v 0.03387594 0.00046396 0.04421184
v 0.03388020 -0.00008409 0.06118144
v 0.02107158 -0.00195033 0.05926301
v 0.02116944 -0.00113450 0.04134240
v 0.03300042 0.00428685 0.07606518
v 0.02063346 0.00190473 0.07406388
v 0.03061902 0.00839727 0.08504736
v 0.01997802 0.00768165 0.08567430
v 0.03156366 0.01180857 0.09308946
v 0.01900362 0.01136433 0.09425088
v 0.01313334 0.02824239 0.11260098
v 0.00606726 0.02827929 0.11458230
v 0.00552807 0.02323545 0.10927038
v 0.02050974 0.02846931 0.10980354
v 0.02684094 0.02844021 0.10713156
v 0.03280122 0.02808711 0.10593066
v 0.04000128 0.02561811 0.10648164
v 0.04561086 0.01972485 0.09546996
v 0.04422168 0.02240511 0.10346124
v 0.04616790 0.01682853 0.08830032
v 0.04609284 0.01357383 0.08130468
v 0.04593624 0.01078731 0.07433718
v 0.04579998 0.00952570 0.06679578
v 0.04561518 0.01177257 0.06266865
v 0.04530366 0.02358123 0.10617972
v 0.04741950 0.02222721 0.10352940
v 0.00628824 0.02972091 0.11546172
v 0.01351584 0.02965239 0.11329860
v 0.02104908 0.02983935 0.11036322
v 0.02748276 0.02947623 0.10777626
v 0.03336222 0.02917041 0.10679964
v 0.04038852 0.02776863 0.10761960
v 0.04201026 0.03228621 0.10272504
v 0.04062804 0.03137775 0.10514976
v 0.04419222 0.03085935 0.10441008
v 0.04570674 0.02684199 0.10655670
v 0.04534014 0.03105111 0.10099404
v 0.04816878 0.02539599 0.10254888
v 0.04888158 0.01948317 0.09583830
v 0.04932234 0.01693479 0.08878362
v 0.04920564 0.01351791 0.08140704
v 0.04863300 0.01106109 0.07423524
v 0.04845336 0.00975303 0.06700878
v 0.04821996 0.01128058 0.06322135
v 0.04890108 0.01994092 0.05722353
v 0.04950762 0.02518209 0.09432504
v 0.04616658 0.03094911 0.09318402
v 0.04258680 0.03301899 0.09284784
v 0.05035356 0.02274261 0.08679402
v 0.05067204 0.01961331 0.07923480
v 0.05013450 0.01961505 0.07327122
v 0.05052798 0.01890622 0.06576498
v 0.04666770 0.03122853 0.08506650
v 0.04251024 0.03332745 0.08139750
v 0.04695966 0.03116086 0.07710162
v 0.04759002 0.02482191 0.03991902
v 0.04704684 0.02678685 0.03934242
v 0.04821864 0.02954955 0.05509077
v 0.04889112 0.02749059 0.05562093
v 0.03892452 0.03040204 0.04022970
v 0.04532190 0.02798572 0.03908046
v 0.04467852 0.02571765 0.02162850
v 0.03622620 0.02715346 0.02100168
v 0.04646592 0.02467054 0.02182758
v 0.04614228 0.02420470 0.01099830
v 0.04435620 0.02520856 0.01098294
v 0.04709718 0.02272306 0.02211198
v 0.04677312 0.02226196 0.01083942
v 0.04680606 0.01745398 0.02284842
v 0.04712496 0.01943007 0.04159164
v 0.04645464 0.03081202 0.05457667
v 0.04961562 0.02746365 0.06384912
v 0.04964730 0.02730051 0.07113288
v 0.04961778 0.02746066 0.07754196
v 0.04945854 0.02759601 0.08556582
v 0.04901994 0.02717253 0.09391074
v 0.04786722 0.02749491 0.10211898
v 0.04545990 0.02931009 0.10561140
v 0.01325604 0.03094959 0.11229336
v 0.00587562 0.03120423 0.11403522
v 0.02087622 0.03102159 0.10944216
v 0.02770878 0.03082851 0.10693110
v 0.03380190 0.03063765 0.10603392
v 0.04058574 0.02988321 0.10687908
v 0.01273068 0.03179643 0.11042310
v 0.00528070 0.03203589 0.11198448
v 0.02044560 0.03182115 0.10758624
v 0.02765988 0.03180855 0.10508472
v 0.03409026 0.03176169 0.10426038
v 0.04707378 0.02948229 0.10153500
v 0.04798614 0.02934351 0.09347430
v 0.04850328 0.02972571 0.08513808
v 0.04875228 0.02962551 0.07717014
v 0.04889892 0.02942638 0.07057536
v 0.04713624 0.03090357 0.07025694
v 0.04878006 0.02958208 0.06335151
v 0.04696572 0.03099555 0.06297016
v 0.04139568 0.03314499 0.06379056
v 0.04647114 0.01729576 0.01030542
v 0.03532878 0.02648146 0.01051188
v 0.04516572 0.02327758 0.00858726
v 0.04498698 0.01791922 0.00885954
v 0.03510612 0.01641334 0.01025310
v 0.03477654 0.01754392 0.00888672
v 0.03444456 0.02416042 0.00839898
v 0.00000000 0.02703112 0.02166066
v 0.00000000 0.02642248 0.01042950
v 0.00000000 0.01891096 0.00785238
v 0.00000000 0.02451484 0.00848832
v 0.00000000 0.03326841 0.06486126
v 0.00000000 0.03054088 0.04206420
v 0.00000000 0.03338211 0.08119014
v 0.00000000 0.02820423 0.11515062
v 0.00000000 0.02326497 0.10976496
v 0.00000000 0.02945109 0.11613504
v 0.00000000 0.03107709 0.11475846
v 0.00000000 0.03198339 0.11272896
v 0.00000000 0.01675306 0.00927984
v 0.00000000 0.03308013 0.10142268
v 0.03080118 -0.03905504 0.04638666
v 0.03084516 -0.04404543 0.04505604
v 0.03474600 -0.04301931 0.04431462
v 0.03533040 -0.03863535 0.04498230
v 0.03723636 -0.03963818 0.04112922
v 0.03641010 -0.04503656 0.04129404
v 0.03792162 -0.01406852 0.04150038
v 0.03617982 -0.01451414 0.04615800
v 0.03649176 0.01782843 0.04176420
v 0.03559356 0.01690864 0.04532940
v 0.03103512 -0.01425373 0.04823700
v 0.03083844 0.01733320 0.04588818
v 0.04907550 -0.04757102 0.02971872
v 0.04907550 0.01598644 0.02971872
v 0.04924080 0.01980424 0.05132718
v 0.04924080 -0.03915453 0.05132718
v 0.03540132 -0.03915453 0.06304088
v 0.03734838 -0.03915453 0.06915804
v 0.03734838 0.01980423 0.06915804
v 0.03540132 0.01980423 0.06304088
v 0.04890978 -0.04757102 0.00811026
v 0.04890978 0.01598644 0.00811026
v 0.03556878 -0.04757102 0.03177942
v 0.03492408 -0.03915453 0.05544869
v 0.03492408 0.01980424 0.05544869
v 0.03556878 0.01598644 0.03177942
v 0.05236440 -0.03915453 0.05254196
v 0.05236440 0.01980424 0.05254197
v 0.03621300 -0.04757102 0.00811026
v 0.03621300 0.01598644 0.00811026
v 0.03772020 -0.04995716 0.03074820
v 0.03853404 -0.04995716 0.01049544
v 0.04654230 -0.04995716 0.01049628
v 0.04668978 -0.04995716 0.02967720
v 0.04814058 0.01785772 0.00888534
v 0.03696702 0.01785772 0.00888504
v 0.03878742 0.01863286 0.01075566
v 0.04628376 0.01863286 0.01075656
v 0.03543078 -0.04084179 0.05496713
v 0.03608808 -0.04084179 0.06291203
v 0.05200956 -0.04084179 0.05314413
v 0.04854228 -0.04084179 0.05130468
v 0.03794058 -0.04084179 0.06878706
v 0.03689286 -0.04925822 0.00880884
v 0.04821648 -0.04925822 0.00880908
v 0.04685598 -0.04154067 0.05125086
v 0.04837656 -0.04925822 0.02970654
v 0.03619872 -0.04925822 0.03147738
v 0.03800520 0.02167551 0.06874632
v 0.03616314 0.02167551 0.06289815
v 0.03959130 0.02245065 0.06775326
v 0.03800214 0.02245065 0.06255281
v 0.04846596 0.02167551 0.05130246
v 0.05197050 0.02167551 0.05320964
v 0.04659564 0.02245065 0.05124264
v 0.05101998 0.02245065 0.05482136
v 0.03548592 0.02167551 0.05491463
v 0.03684252 0.02245065 0.05362613
v 0.04642950 0.01863286 0.02967270
v 0.03795486 0.01863286 0.03063570
v 0.04830024 0.01785772 0.02970522
v 0.03626766 0.01785772 0.03144450
v 0.00000000 0.01693047 0.10745868
v 0.00000000 0.01051065 0.09421266
v 0.00000000 0.00702945 0.08654196
v 0.00000000 0.00113649 0.07419924
v 0.00000000 -0.00280366 0.05870248
v 0.00000000 -0.00101900 0.04099686
v 0.02937954 0.03275973 0.10076628
v 0.03665382 -0.04154067 0.05380530
v 0.03774666 -0.04154067 0.06260096
v 0.00000000 0.03326973 0.09203784
v 0.05292840 -0.03915453 0.07358316
v 0.05604858 -0.03915453 0.07202916
v 0.05604858 0.01980423 0.07202916
v 0.05292840 0.01980423 0.07358316
v 0.05817786 -0.03915453 0.06941832
v 0.05817786 0.01980423 0.06941832
v 0.05422128 -0.04154067 0.06999228
v 0.05619390 -0.04154067 0.06809250
v 0.05759694 -0.04084179 0.06903006
v 0.05561562 -0.04084179 0.07151592
v 0.05264340 -0.04084179 0.07294500
v 0.05556834 0.02167551 0.07145994
v 0.05261214 0.02167551 0.07287558
v 0.05753364 0.02167551 0.06898752
v 0.05405988 0.02245065 0.06980094
v 0.05184858 0.02245065 0.07116714
v 0.05597790 0.02245065 0.06794760
v 0.04685466 -0.03915453 0.07462440
v 0.04997616 -0.03915453 0.07443438
v 0.04997616 0.01980423 0.07443438
v 0.04685466 0.01980423 0.07462440
v 0.06000000 0.01980423 0.06304088
v 0.05938914 0.01980423 0.06640008
v 0.05938914 -0.03915453 0.06640008
v 0.06000000 -0.03915453 0.06304088
v 0.05874924 -0.04084179 0.06621834
v 0.05930154 -0.04084179 0.06306604
v 0.04691322 -0.04084179 0.07392810
v 0.04986288 -0.04084179 0.07376712
v 0.04985034 0.02167551 0.07369422
v 0.04691928 0.02167551 0.07385214
v 0.04954662 0.02245065 0.07190766
v 0.04707546 0.02245065 0.07198710
v 0.05922558 0.02167551 0.06306864
v 0.05867982 0.02167551 0.06619836
v 0.05735532 0.02245065 0.06313546
v 0.05696658 0.02245065 0.06571200
v 0.04376484 0.01980423 0.07387428
v 0.04376484 -0.03915453 0.07387428
v 0.04091106 0.01980423 0.07254198
v 0.04091106 -0.03915453 0.07254198
v 0.05942340 -0.03915453 0.05996843
v 0.05942340 0.01980423 0.05996843
v 0.05783082 -0.03915453 0.05709728
v 0.05783082 0.01980424 0.05709728
v 0.05878830 -0.04084179 0.06018231
v 0.05725902 -0.04084179 0.05749945
v 0.05761560 -0.04154067 0.06312634
v 0.05725554 -0.04154067 0.06069771
v 0.04397616 -0.04084179 0.07322784
v 0.04127550 -0.04084179 0.07194546
v 0.04399914 0.02167551 0.07315758
v 0.04131498 0.02167551 0.07188036
v 0.04456488 0.02245065 0.07142658
v 0.04229070 0.02245065 0.07028340
v 0.05871930 0.02167551 0.06020530
v 0.05719698 0.02167551 0.05754326
v 0.05701908 0.02245065 0.06077710
v 0.05566638 0.02245065 0.05861962
v 0.03912972 -0.03915453 0.07084998
v 0.03912972 0.01980423 0.07084998
v 0.05523732 0.01980424 0.05449815
v 0.05523732 -0.03915453 0.05449814
v 0.05477394 -0.04084179 0.05500053
v 0.04076268 -0.04154067 0.06919836
v 0.04215486 -0.04154067 0.07050552
v 0.03960780 -0.04084179 0.07036626
v 0.03965988 0.02167551 0.07031334
v 0.04094100 0.02245065 0.06901830
v 0.05472366 0.02167551 0.05505520
v 0.05348286 0.02245065 0.05639923
v 0.05115228 -0.04154067 0.05459750
v 0.03937050 -0.04154067 0.06789120
v 0.05365512 -0.04154067 0.05621225
v 0.05720478 -0.04154067 0.06577968
v 0.04705380 -0.04154067 0.07224654
v 0.04958916 -0.04154067 0.07215630
v 0.05195490 -0.04154067 0.07140486
v 0.05587896 -0.04154067 0.05846994
v 0.04448634 -0.04154067 0.07166736
v -0.01341480 0.01711401 0.10546650
v -0.01287330 0.02328231 0.10741266
v -0.01999872 0.02352915 0.10509600
v -0.02073810 0.01650183 0.10321182
v -0.02657868 0.02349879 0.10348686
v -0.02744904 0.01611399 0.10203132
v -0.03282978 0.02322765 0.10267644
v -0.03357834 0.01616433 0.10110900
v -0.03913020 0.02231139 0.10148730
v -0.03812136 0.01580595 0.09881616
v -0.04343256 0.01988667 0.09504912
v -0.03956136 0.01449447 0.09508164
v -0.04412844 0.01701681 0.08836494
v -0.03943998 0.01235217 0.08956584
v -0.04361910 0.01314303 0.08159706
v -0.03812700 0.00944415 0.08339706
v -0.04339998 0.01031007 0.07440750
v -0.03862908 0.00569571 0.07510770
v -0.04288638 0.00906669 0.06674760
v -0.03931890 0.00340971 0.06567342
v -0.04241286 0.01087797 0.06286257
v -0.03997854 0.00620883 0.05189856
v -0.03387594 0.00046396 0.04421184
v -0.02116944 -0.00113450 0.04134240
v -0.02107158 -0.00195033 0.05926301
v -0.03388020 -0.00008409 0.06118144
v -0.02063346 0.00190473 0.07406388
v -0.03300042 0.00428685 0.07606518
v -0.01997802 0.00768165 0.08567430
v -0.03061902 0.00839727 0.08504736
v -0.03156366 0.01180857 0.09308946
v -0.01900362 0.01136433 0.09425088
v -0.00552807 0.02323545 0.10927038
v -0.00606726 0.02827929 0.11458230
v -0.01313334 0.02824239 0.11260098
v -0.02050974 0.02846931 0.10980354
v -0.02684094 0.02844021 0.10713156
v -0.03280122 0.02808711 0.10593066
v -0.04000128 0.02561811 0.10648164
v -0.04422168 0.02240511 0.10346124
v -0.04561086 0.01972485 0.09546996
v -0.04616790 0.01682853 0.08830032
v -0.04609284 0.01357383 0.08130468
v -0.04593624 0.01078731 0.07433718
v -0.04579998 0.00952570 0.06679578
v -0.04561518 0.01177257 0.06266865
v -0.04530366 0.02358123 0.10617972
v -0.04741950 0.02222721 0.10352940
v -0.00628824 0.02972091 0.11546172
v -0.01351584 0.02965239 0.11329860
v -0.02104908 0.02983935 0.11036322
v -0.02748276 0.02947623 0.10777626
v -0.03336222 0.02917041 0.10679964
v -0.04038852 0.02776863 0.10761960
v -0.04201026 0.03228621 0.10272504
v -0.04419222 0.03085935 0.10441008
v -0.04062804 0.03137775 0.10514976
v -0.04570674 0.02684199 0.10655670
v -0.04534014 0.03105111 0.10099404
v -0.04816878 0.02539599 0.10254888
v -0.04888158 0.01948317 0.09583830
v -0.04932234 0.01693479 0.08878362
v -0.04920564 0.01351791 0.08140704
v -0.04863300 0.01106109 0.07423524
v -0.04845336 0.00975303 0.06700878
v -0.04821996 0.01128058 0.06322135
v -0.04890108 0.01994092 0.05722353
v -0.04950762 0.02518209 0.09432504
v -0.04258680 0.03301899 0.09284784
v -0.04616658 0.03094911 0.09318402
v -0.05035356 0.02274261 0.08679402
v -0.05067204 0.01961331 0.07923480
v -0.05013450 0.01961505 0.07327122
v -0.05052798 0.01890622 0.06576498
v -0.04251024 0.03332745 0.08139750
v -0.04666770 0.03122853 0.08506650
v -0.04695966 0.03116086 0.07710162
v -0.04759002 0.02482191 0.03991902
v -0.04889112 0.02749059 0.05562093
v -0.04821864 0.02954955 0.05509077
v -0.04704684 0.02678685 0.03934242
v -0.03892452 0.03040204 0.04022970
v -0.03622620 0.02715346 0.02100168
v -0.04467852 0.02571765 0.02162850
v -0.04532190 0.02798572 0.03908046
v -0.04646592 0.02467054 0.02182758
v -0.04435620 0.02520856 0.01098294
v -0.04614228 0.02420470 0.01099830
v -0.04709718 0.02272306 0.02211198
v -0.04677312 0.02226196 0.01083942
v -0.04680606 0.01745398 0.02284842
v -0.04712496 0.01943007 0.04159164
v -0.04645464 0.03081202 0.05457667
v -0.04961562 0.02746365 0.06384912
v -0.04964730 0.02730051 0.07113288
v -0.04961778 0.02746066 0.07754196
v -0.04945854 0.02759601 0.08556582
v -0.04901994 0.02717253 0.09391074
v -0.04786722 0.02749491 0.10211898
v -0.04545990 0.02931009 0.10561140
v -0.00587562 0.03120423 0.11403522
v -0.01325604 0.03094959 0.11229336
v -0.02087622 0.03102159 0.10944216
v -0.02770878 0.03082851 0.10693110
v -0.03380190 0.03063765 0.10603392
v -0.04058574 0.02988321 0.10687908
v -0.00528070 0.03203589 0.11198448
v -0.01273068 0.03179643 0.11042310
v -0.02044560 0.03182115 0.10758624
v -0.02765988 0.03180855 0.10508472
v -0.03409026 0.03176169 0.10426038
v -0.04707378 0.02948229 0.10153500
v -0.04798614 0.02934351 0.09347430
v -0.04850328 0.02972571 0.08513808
v -0.04875228 0.02962551 0.07717014
v -0.04889892 0.02942638 0.07057536
v -0.04713624 0.03090357 0.07025694
v -0.04878006 0.02958208 0.06335151
v -0.04696572 0.03099555 0.06297016
v -0.04139568 0.03314499 0.06379056
v -0.04647114 0.01729576 0.01030542
v -0.03532878 0.02648146 0.01051188
v -0.04516572 0.02327758 0.00858726
v -0.04498698 0.01791922 0.00885954
v -0.03510612 0.01641334 0.01025310
v -0.03477654 0.01754392 0.00888672
v -0.03444456 0.02416042 0.00839898
v -0.02937954 0.03275973 0.10076628
v -0.03669972 -0.04622324 0.01016364
v -0.03149916 -0.04686950 0.00975540
v -0.03164448 -0.04755236 0.01540488
v -0.03672756 -0.04659272 0.01590768
v -0.03173364 -0.04137266 0.00902004
v -0.03761112 -0.04105724 0.01038882
v -0.03080118 -0.03905504 0.04638666
v -0.03533040 -0.03863535 0.04498230
v -0.03474600 -0.04301931 0.04431462
v -0.03084516 -0.04404543 0.04505604
v -0.03124668 -0.04667036 0.04149474
v -0.03641010 -0.04503656 0.04129404
v -0.03723636 -0.03963818 0.04112922
v -0.03141126 -0.04693982 0.02914758
v -0.03660072 -0.04525664 0.02908224
v -0.03689760 -0.04567622 0.02600304
v -0.03655044 -0.04597688 0.02295384
v -0.03150528 -0.04753328 0.02317050
v -0.03168894 -0.04754456 0.02564448
v -0.03145656 -0.04604924 0.02736162
v -0.03555252 -0.04456268 0.02753196
v -0.03151290 -0.04754108 0.01987386
v -0.03684606 -0.04640702 0.01998318
v -0.03136320 -0.04679576 0.02155266
v -0.03622314 -0.04571324 0.02154636
v 0.03124668 -0.04667036 0.04149474
v -0.03792162 -0.01406852 0.04150038
v -0.03617982 -0.01451414 0.04615800
v -0.03559356 0.01690864 0.04532940
v -0.03649176 0.01782843 0.04176420
v -0.03103512 -0.01425373 0.04823700
v -0.03083844 0.01733320 0.04588818
v -0.03193962 0.01955884 0.00962268
v -0.03706710 0.01913518 0.01016496
v 0.03193962 0.01955884 0.00962268
v 0.03173364 -0.04137266 0.00902004
v 0.03706710 0.01913518 0.01016496
v 0.03761112 -0.04105724 0.01038882
v 0.03669972 -0.04622324 0.01016364
v 0.03149916 -0.04686950 0.00975540
v 0.03672756 -0.04659272 0.01590768
v 0.03164448 -0.04755236 0.01540488
v 0.03151290 -0.04754108 0.01987386
v 0.03684606 -0.04640702 0.01998318
v 0.03622314 -0.04571324 0.02154636
v 0.03136320 -0.04679576 0.02155266
v 0.03150528 -0.04753328 0.02317050
v 0.03655044 -0.04597688 0.02295384
v 0.03689760 -0.04567622 0.02600304
v 0.03168894 -0.04754456 0.02564448
v 0.03555252 -0.04456268 0.02753196
v 0.03145656 -0.04604924 0.02736162
v 0.03141126 -0.04693982 0.02914758
v 0.03660072 -0.04525664 0.02908224
v -0.04907550 -0.04757102 0.02971872
v -0.04924080 -0.03915453 0.05132718
v -0.04924080 0.01980424 0.05132718
v -0.04907550 0.01598644 0.02971872
v -0.03540132 -0.03915453 0.06304088
v -0.03540132 0.01980423 0.06304088
v -0.03734838 0.01980423 0.06915804
v -0.03734838 -0.03915453 0.06915804
v -0.04890978 0.01598644 0.00811026
v -0.04890978 -0.04757102 0.00811026
v -0.03556878 -0.04757102 0.03177942
v -0.03556878 0.01598644 0.03177942
v -0.03492408 0.01980424 0.05544869
v -0.03492408 -0.03915453 0.05544869
v -0.05236440 -0.03915453 0.05254196
v -0.05236440 0.01980424 0.05254197
v -0.03621300 -0.04757102 0.00811026
v -0.03621300 0.01598644 0.00811026
v -0.03772020 -0.04995716 0.03074820
v -0.04668978 -0.04995716 0.02967720
v -0.04654230 -0.04995716 0.01049628
v -0.03853404 -0.04995716 0.01049544
v -0.04814058 0.01785772 0.00888534
v -0.04628376 0.01863286 0.01075656
v -0.03878742 0.01863286 0.01075566
v -0.03696702 0.01785772 0.00888504
v -0.03608808 -0.04084179 0.06291203
v -0.03543078 -0.04084179 0.05496713
v -0.04854228 -0.04084179 0.05130468
v -0.05200956 -0.04084179 0.05314413
v -0.03794058 -0.04084179 0.06878706
v -0.03689286 -0.04925822 0.00880884
v -0.04821648 -0.04925822 0.00880908
v -0.04685598 -0.04154067 0.05125086
v -0.04837656 -0.04925822 0.02970654
v -0.03619872 -0.04925822 0.03147738
v -0.03616314 0.02167551 0.06289815
v -0.03800520 0.02167551 0.06874632
v -0.03800214 0.02245065 0.06255281
v -0.03959130 0.02245065 0.06775326
v -0.05197050 0.02167551 0.05320964
v -0.04846596 0.02167551 0.05130246
v -0.05101998 0.02245065 0.05482136
v -0.04659564 0.02245065 0.05124264
v -0.03548592 0.02167551 0.05491463
v -0.03684252 0.02245065 0.05362613
v -0.03795486 0.01863286 0.03063570
v -0.04642950 0.01863286 0.02967270
v -0.04830024 0.01785772 0.02970522
v -0.03626766 0.01785772 0.03144450
v -0.03774666 -0.04154067 0.06260096
v -0.03665382 -0.04154067 0.05380530
v -0.05292840 -0.03915453 0.07358316
v -0.05292840 0.01980423 0.07358316
v -0.05604858 0.01980423 0.07202916
v -0.05604858 -0.03915453 0.07202916
v -0.05817786 0.01980423 0.06941832
v -0.05817786 -0.03915453 0.06941832
v -0.05422128 -0.04154067 0.06999228
v -0.05561562 -0.04084179 0.07151592
v -0.05759694 -0.04084179 0.06903006
v -0.05619390 -0.04154067 0.06809250
v -0.05264340 -0.04084179 0.07294500
v -0.05261214 0.02167551 0.07287558
v -0.05556834 0.02167551 0.07145994
v -0.05753364 0.02167551 0.06898752
v -0.05184858 0.02245065 0.07116714
v -0.05405988 0.02245065 0.06980094
v -0.05597790 0.02245065 0.06794760
v -0.04685466 -0.03915453 0.07462440
v -0.04685466 0.01980423 0.07462440
v -0.04997616 0.01980423 0.07443438
v -0.04997616 -0.03915453 0.07443438
v -0.06000000 0.01980423 0.06304088
v -0.06000000 -0.03915453 0.06304088
v -0.05938914 -0.03915453 0.06640008
v -0.05938914 0.01980423 0.06640008
v -0.05930154 -0.04084179 0.06306604
v -0.05874924 -0.04084179 0.06621834
v -0.04691322 -0.04084179 0.07392810
v -0.04986288 -0.04084179 0.07376712
v -0.04691928 0.02167551 0.07385214
v -0.04985034 0.02167551 0.07369422
v -0.04707546 0.02245065 0.07198710
v -0.04954662 0.02245065 0.07190766
v -0.05922558 0.02167551 0.06306864
v -0.05867982 0.02167551 0.06619836
v -0.05735532 0.02245065 0.06313546
v -0.05696658 0.02245065 0.06571200
v -0.04376484 -0.03915453 0.07387428
v -0.04376484 0.01980423 0.07387428
v -0.04091106 -0.03915453 0.07254198
v -0.04091106 0.01980423 0.07254198
v -0.05942340 0.01980423 0.05996843
v -0.05942340 -0.03915453 0.05996843
v -0.05783082 0.01980424 0.05709728
v -0.05783082 -0.03915453 0.05709728
v -0.05878830 -0.04084179 0.06018231
v -0.05725902 -0.04084179 0.05749945
v -0.05761560 -0.04154067 0.06312634
v -0.05725554 -0.04154067 0.06069771
v -0.04397616 -0.04084179 0.07322784
v -0.04127550 -0.04084179 0.07194546
v -0.04399914 0.02167551 0.07315758
v -0.04131498 0.02167551 0.07188036
v -0.04456488 0.02245065 0.07142658
v -0.04229070 0.02245065 0.07028340
v -0.05871930 0.02167551 0.06020530
v -0.05719698 0.02167551 0.05754326
v -0.05701908 0.02245065 0.06077710
v -0.05566638 0.02245065 0.05861962
v -0.03912972 0.01980423 0.07084998
v -0.03912972 -0.03915453 0.07084998
v -0.05523732 -0.03915453 0.05449814
v -0.05523732 0.01980424 0.05449815
v -0.05477394 -0.04084179 0.05500053
v -0.04076268 -0.04154067 0.06919836
v -0.03960780 -0.04084179 0.07036626
v -0.04215486 -0.04154067 0.07050552
v -0.03965988 0.02167551 0.07031334
v -0.04094100 0.02245065 0.06901830
v -0.05472366 0.02167551 0.05505520
v -0.05348286 0.02245065 0.05639923
v -0.05115228 -0.04154067 0.05459750
v -0.03937050 -0.04154067 0.06789120
v -0.05365512 -0.04154067 0.05621225
v -0.05720478 -0.04154067 0.06577968
v -0.04958916 -0.04154067 0.07215630
v -0.04705380 -0.04154067 0.07224654
v -0.05195490 -0.04154067 0.07140486
v -0.05587896 -0.04154067 0.05846994
v -0.04448634 -0.04154067 0.07166736
v -0.03857508 0.01840918 0.00997170
v -0.03971652 0.01726774 0.00000000
v -0.04323360 0.01726774 0.00000000
v -0.04437486 0.01840918 0.00997170
v -0.04323360 0.01375072 0.00000000
v -0.04437486 0.01260928 0.00997170
v -0.03971652 0.01375072 0.00000000
v -0.03857508 0.01260928 0.00997170
v 0.03857508 -0.04530830 0.00997170
v 0.03971652 -0.04416686 0.00000000
v 0.04323360 -0.04416686 0.00000000
v 0.04437486 -0.04530830 0.00997170
v 0.04323360 -0.04064984 -0.00000000
v 0.04437486 -0.03950840 0.00997170
v 0.03971652 -0.04064984 0.00000000
v 0.03857508 -0.03950840 0.00997170
v -0.03857508 -0.04530830 0.00997170
v -0.04437486 -0.04530830 0.00997170
v -0.04323360 -0.04416686 0.00000000
v -0.03971652 -0.04416686 0.00000000
v -0.04437486 -0.03950840 0.00997170
v -0.04323360 -0.04064984 0.00000000
v -0.03857508 -0.03950840 0.00997170
v -0.03971652 -0.04064984 0.00000000
f 4 1 2
f 2 3 4
f 3 2 5
f 5 6 3
f 6 5 7
f 7 8 6
f 8 7 1
f 1 4 8
f 3 6 8
f 8 4 3
f 12 9 10
f 10 11 12
f 11 10 13
f 13 14 11
f 14 13 15
f 15 16 14
f 16 15 17
f 17 18 16
f 18 17 19
f 19 20 18
f 20 19 21
f 21 22 20
f 22 21 23
f 23 24 22
f 24 23 25
f 25 26 24
f 26 25 27
f 27 28 26
f 28 27 29
f 29 30 28
f 34 31 32
f 32 33 34
f 32 31 29
f 29 27 32
f 33 32 35
f 35 36 33
f 35 32 27
f 27 25 35
f 38 36 35
f 35 37 38
f 37 35 25
f 25 23 37
f 37 23 21
f 21 39 37
f 21 19 39
f 39 19 17
f 17 15 39
f 38 37 39
f 39 40 38
f 40 39 13
f 13 10 40
f 39 15 13
f 10 9 40
f 43 12 41
f 41 42 43
f 12 11 44
f 44 41 12
f 11 14 45
f 45 44 11
f 14 16 46
f 46 45 14
f 16 18 47
f 47 46 16
f 18 20 48
f 48 49 18
f 49 47 18
f 20 22 50
f 50 48 20
f 22 24 51
f 51 50 22
f 24 26 52
f 52 51 24
f 26 28 53
f 53 52 26
f 28 30 54
f 54 53 28
f 56 55 47
f 47 49 56
f 58 57 42
f 42 41 58
f 59 58 41
f 41 44 59
f 60 59 44
f 44 45 60
f 61 60 45
f 45 46 61
f 62 61 46
f 46 47 62
f 63 64 65
f 66 62 47
f 47 55 66
f 63 65 67
f 68 66 55
f 55 56 68
f 56 49 48
f 48 69 56
f 69 48 50
f 50 70 69
f 70 50 51
f 51 71 70
f 71 51 52
f 52 72 71
f 72 52 53
f 53 73 72
f 73 53 54
f 54 74 73
f 54 75 74
f 56 69 76
f 76 68 56
f 78 63 67
f 67 77 78
f 76 69 70
f 70 79 76
f 79 70 71
f 71 80 79
f 80 71 72
f 72 81 80
f 72 73 82
f 82 81 72
f 73 74 75
f 75 82 73
f 84 78 77
f 77 83 84
f 84 83 85
f 89 86 87
f 87 88 89
f 93 90 91
f 91 92 93
f 92 94 95
f 95 96 92
f 94 97 98
f 98 95 94
f 100 99 97
f 97 86 100
f 88 87 91
f 91 101 88
f 75 89 102
f 102 82 75
f 81 82 102
f 102 103 81
f 80 81 103
f 103 104 80
f 80 104 105
f 105 79 80
f 79 105 106
f 106 76 79
f 76 106 107
f 107 68 76
f 68 107 108
f 108 66 68
f 57 58 109
f 109 110 57
f 58 59 111
f 111 109 58
f 59 60 112
f 112 111 59
f 60 61 113
f 113 112 60
f 62 114 113
f 113 61 62
f 62 66 108
f 108 114 62
f 116 110 109
f 109 115 116
f 115 109 111
f 111 117 115
f 117 111 112
f 112 118 117
f 118 112 113
f 113 119 118
f 119 113 114
f 114 64 119
f 64 114 108
f 108 65 64
f 65 108 120
f 120 67 65
f 120 107 106
f 106 121 120
f 67 120 121
f 121 77 67
f 121 106 105
f 105 122 121
f 77 121 122
f 122 83 77
f 122 105 104
f 104 123 122
f 83 122 123
f 123 85 83
f 123 104 103
f 103 124 123
f 85 123 124
f 124 125 85
f 124 103 102
f 102 126 124
f 125 124 126
f 126 127 125
f 126 102 89
f 89 88 126
f 127 126 88
f 88 101 127
f 86 89 75
f 75 100 86
f 91 90 128
f 128 101 91
f 87 86 97
f 97 94 87
f 91 87 94
f 94 92 91
f 97 99 129
f 129 98 97
f 96 130 93
f 93 92 96
f 107 120 108
f 96 95 98
f 98 131 96
f 98 129 132
f 132 131 98
f 129 133 134
f 134 132 129
f 132 134 135
f 135 131 132
f 131 135 130
f 130 96 131
f 137 136 93
f 93 130 137
f 135 134 138
f 138 139 135
f 141 140 128
f 128 90 141
f 140 142 84
f 84 128 140
f 144 43 42
f 42 143 144
f 57 145 143
f 143 42 57
f 145 57 110
f 110 146 145
f 147 146 110
f 110 116 147
f 133 148 138
f 138 134 133
f 149 116 115
f 149 147 116
f 139 137 130
f 130 135 139
f 93 136 141
f 141 90 93
f 153 150 151
f 151 152 153
f 155 154 153
f 153 152 155
f 154 156 157
f 157 153 154
f 157 156 158
f 158 159 157
f 157 160 150
f 150 153 157
f 161 160 157
f 157 159 161
f 165 162 163
f 163 164 165
f 169 166 167
f 167 168 169
f 163 162 170
f 170 171 163
f 175 172 173
f 173 174 175
f 174 173 166
f 166 169 174
f 177 176 165
f 165 164 177
f 179 178 172
f 172 175 179
f 183 180 181
f 181 182 183
f 187 184 185
f 185 186 187
f 189 166 173
f 173 188 189
f 191 165 176
f 176 190 191
f 166 189 192
f 192 167 166
f 171 179 185
f 185 184 171
f 181 193 194
f 194 182 181
f 191 195 183
f 183 196 191
f 165 191 196
f 196 162 165
f 196 183 182
f 182 194 196
f 162 196 194
f 194 170 162
f 172 197 188
f 188 173 172
f 178 193 197
f 197 172 178
f 199 169 168
f 168 198 199
f 201 199 198
f 198 200 201
f 203 177 164
f 164 202 203
f 205 203 202
f 202 204 205
f 206 174 169
f 169 199 206
f 207 206 199
f 199 201 207
f 193 178 170
f 170 194 193
f 207 204 208
f 208 209 207
f 210 208 204
f 204 202 210
f 163 210 202
f 202 164 163
f 184 187 208
f 208 210 184
f 171 184 210
f 210 163 171
f 206 207 209
f 209 211 206
f 174 206 211
f 211 175 174
f 211 209 186
f 186 185 211
f 175 211 185
f 185 179 175
f 209 208 187
f 187 186 209
f 43 212 9
f 9 12 43
f 144 212 43
f 213 40 9
f 9 212 213
f 213 214 38
f 38 40 213
f 214 215 36
f 36 38 214
f 215 216 33
f 33 36 215
f 216 217 34
f 34 33 216
f 218 117 118
f 218 118 119
f 64 63 218
f 218 119 64
f 128 84 85
f 85 125 128
f 125 127 128
f 128 127 101
f 220 189 188
f 188 219 220
f 170 178 179
f 179 171 170
f 193 181 180
f 180 197 193
f 219 180 183
f 183 195 219
f 197 180 219
f 219 188 197
f 78 221 149
f 149 218 78
f 78 218 63
f 221 78 84
f 84 142 221
f 218 149 115
f 115 117 218
f 225 222 223
f 223 224 225
f 224 223 226
f 226 227 224
f 231 228 229
f 229 230 231
f 222 232 231
f 231 223 222
f 223 231 230
f 230 226 223
f 234 225 224
f 224 233 234
f 233 224 227
f 227 235 233
f 237 234 233
f 233 236 237
f 236 233 235
f 235 238 236
f 242 239 240
f 240 241 242
f 241 240 222
f 222 225 241
f 246 243 244
f 244 245 246
f 245 244 227
f 227 226 245
f 248 246 245
f 245 247 248
f 247 245 226
f 226 230 247
f 239 249 250
f 250 240 239
f 240 250 232
f 232 222 240
f 252 242 241
f 241 251 252
f 251 241 225
f 225 234 251
f 254 252 251
f 251 253 254
f 253 251 234
f 234 237 253
f 243 255 256
f 256 244 243
f 244 256 235
f 235 227 244
f 255 257 258
f 258 256 255
f 256 258 238
f 238 235 256
f 239 242 259
f 259 260 239
f 260 259 261
f 261 262 260
f 243 246 263
f 263 264 243
f 264 263 265
f 265 266 264
f 246 248 267
f 267 263 246
f 263 267 268
f 268 265 263
f 248 269 270
f 270 267 248
f 249 239 260
f 260 271 249
f 271 260 262
f 262 272 271
f 242 252 273
f 273 259 242
f 259 273 274
f 274 261 259
f 252 254 275
f 275 273 252
f 273 275 276
f 276 274 273
f 255 243 264
f 264 277 255
f 277 264 266
f 266 278 277
f 257 255 277
f 277 279 257
f 279 277 278
f 278 280 279
f 168 167 281
f 281 282 168
f 282 281 262
f 262 261 282
f 176 177 283
f 283 284 176
f 284 283 266
f 266 265 284
f 190 176 284
f 284 285 190
f 285 284 265
f 265 268 285
f 288 286 287
f 287 272 288
f 167 192 288
f 288 281 167
f 281 288 272
f 272 262 281
f 198 168 282
f 282 289 198
f 289 282 261
f 261 274 289
f 200 198 289
f 289 290 200
f 290 289 274
f 274 276 290
f 177 203 291
f 291 283 177
f 283 291 278
f 278 266 283
f 203 205 292
f 292 291 203
f 291 292 280
f 280 278 291
f 190 293 195
f 195 191 190
f 192 189 220
f 220 294 192
f 293 190 285
f 285 295 293
f 286 288 192
f 192 294 286
f 269 248 247
f 247 296 269
f 250 249 297
f 297 298 250
f 299 232 250
f 250 298 299
f 300 268 267
f 267 270 300
f 297 249 271
f 271 301 297
f 271 272 287
f 287 301 271
f 285 268 300
f 300 295 285
f 228 231 232
f 232 299 228
f 247 230 229
f 229 296 247
f 228 299 298
f 298 229 228
f 229 298 297
f 297 296 229
f 296 297 301
f 301 269 296
f 269 301 287
f 287 270 269
f 270 287 286
f 286 300 270
f 300 286 294
f 294 295 300
f 295 294 220
f 220 293 295
f 293 220 219
f 219 195 293
f 204 207 201
f 201 205 204
f 205 201 200
f 200 292 205
f 292 200 290
f 290 280 292
f 280 290 276
f 276 279 280
f 279 276 275
f 275 257 279
f 257 275 254
f 254 258 257
f 258 254 253
f 253 238 258
f 238 253 237
f 237 236 238
f 305 302 303
f 303 304 305
f 307 305 304
f 304 306 307
f 309 307 306
f 306 308 309
f 311 309 308
f 308 310 311
f 313 311 310
f 310 312 313
f 315 313 312
f 312 314 315
f 317 315 314
f 314 316 317
f 319 317 316
f 316 318 319
f 321 319 318
f 318 320 321
f 323 321 320
f 320 322 323
f 327 324 325
f 325 326 327
f 323 324 327
f 327 321 323
f 329 327 326
f 326 328 329
f 321 327 329
f 329 319 321
f 329 328 330
f 330 331 329
f 319 329 331
f 331 317 319
f 315 317 331
f 331 332 315
f 315 332 313
f 311 313 332
f 332 309 311
f 332 331 330
f 330 333 332
f 307 332 333
f 333 305 307
f 332 307 309
f 305 333 302
f 336 303 334
f 334 335 336
f 337 304 303
f 303 336 337
f 338 306 304
f 304 337 338
f 339 308 306
f 306 338 339
f 340 310 308
f 308 339 340
f 342 312 310
f 310 341 342
f 341 310 340
f 343 314 312
f 312 342 343
f 344 316 314
f 314 343 344
f 345 318 316
f 316 344 345
f 346 320 318
f 318 345 346
f 347 322 320
f 320 346 347
f 340 348 349
f 349 341 340
f 335 350 351
f 351 336 335
f 336 351 352
f 352 337 336
f 337 352 353
f 353 338 337
f 338 353 354
f 354 339 338
f 339 354 355
f 355 340 339
f 356 357 358
f 340 355 359
f 359 348 340
f 356 360 357
f 348 359 361
f 361 349 348
f 342 341 349
f 349 362 342
f 343 342 362
f 362 363 343
f 344 343 363
f 363 364 344
f 345 344 364
f 364 365 345
f 346 345 365
f 365 366 346
f 347 346 366
f 366 367 347
f 347 367 368
f 369 362 349
f 349 361 369
f 360 356 370
f 370 371 360
f 363 362 369
f 369 372 363
f 364 363 372
f 372 373 364
f 365 364 373
f 373 374 365
f 375 366 365
f 365 374 375
f 368 367 366
f 366 375 368
f 371 370 376
f 376 377 371
f 376 378 377
f 382 379 380
f 380 381 382
f 386 383 384
f 384 385 386
f 389 387 385
f 385 388 389
f 391 390 387
f 387 389 391
f 390 392 393
f 393 379 390
f 386 382 381
f 381 394 386
f 395 380 368
f 368 375 395
f 395 375 374
f 374 396 395
f 396 374 373
f 373 397 396
f 398 397 373
f 373 372 398
f 399 398 372
f 372 369 399
f 400 399 369
f 369 361 400
f 401 400 361
f 361 359 401
f 403 351 350
f 350 402 403
f 404 352 351
f 351 403 404
f 405 353 352
f 352 404 405
f 406 354 353
f 353 405 406
f 406 407 355
f 355 354 406
f 401 359 355
f 355 407 401
f 403 402 408
f 408 409 403
f 404 403 409
f 409 410 404
f 405 404 410
f 410 411 405
f 406 405 411
f 411 412 406
f 407 406 412
f 412 358 407
f 401 407 358
f 358 357 401
f 413 401 357
f 357 360 413
f 399 400 413
f 413 414 399
f 414 413 360
f 360 371 414
f 398 399 414
f 414 415 398
f 415 414 371
f 371 377 415
f 397 398 415
f 415 416 397
f 416 415 377
f 377 378 416
f 396 397 416
f 416 417 396
f 417 416 378
f 378 418 417
f 395 396 417
f 417 419 395
f 419 417 418
f 418 420 419
f 380 395 419
f 419 381 380
f 381 419 420
f 420 394 381
f 368 380 379
f 379 393 368
f 421 383 386
f 386 394 421
f 390 379 382
f 382 387 390
f 387 382 386
f 386 385 387
f 422 392 390
f 390 391 422
f 384 423 388
f 388 385 384
f 400 401 413
f 391 389 388
f 388 424 391
f 425 422 391
f 391 424 425
f 427 426 422
f 422 425 427
f 428 427 425
f 425 424 428
f 423 428 424
f 424 388 423
f 384 136 137
f 137 423 384
f 138 427 428
f 428 139 138
f 421 140 141
f 141 383 421
f 376 142 140
f 140 421 376
f 335 334 144
f 144 143 335
f 143 145 350
f 350 335 143
f 402 350 145
f 145 146 402
f 402 146 147
f 147 408 402
f 138 148 426
f 426 427 138
f 149 409 408
f 149 408 147
f 423 137 139
f 139 428 423
f 141 136 384
f 384 383 141
f 302 212 334
f 334 303 302
f 144 334 212
f 302 333 213
f 213 212 302
f 330 214 213
f 213 333 330
f 328 215 214
f 214 330 328
f 326 216 215
f 215 328 326
f 325 217 216
f 216 326 325
f 429 411 410
f 429 412 411
f 429 356 358
f 358 412 429
f 378 376 421
f 421 418 378
f 418 421 420
f 421 394 420
f 149 221 370
f 370 429 149
f 370 356 429
f 376 370 221
f 221 142 376
f 409 149 429
f 429 410 409
f 433 430 431
f 431 432 433
f 435 434 431
f 431 430 435
f 439 436 437
f 437 438 439
f 441 440 439
f 439 438 441
f 437 442 441
f 441 438 437
f 444 443 440
f 440 441 444
f 448 445 446
f 446 447 448
f 445 448 449
f 449 450 445
f 449 443 444
f 444 450 449
f 432 451 452
f 452 433 432
f 452 451 453
f 453 454 452
f 453 447 446
f 446 454 453
f 440 455 151
f 151 439 440
f 457 456 442
f 442 437 457
f 459 456 457
f 457 458 459
f 436 460 457
f 457 437 436
f 457 460 461
f 461 458 457
f 463 462 434
f 434 435 463
f 461 460 160
f 160 161 461
f 150 160 460
f 460 436 150
f 434 462 464
f 464 465 434
f 465 464 466
f 466 467 465
f 469 465 467
f 467 468 469
f 431 434 465
f 465 469 431
f 469 468 470
f 470 471 469
f 469 471 432
f 432 431 469
f 473 472 471
f 471 470 473
f 451 432 471
f 471 472 451
f 475 472 473
f 473 474 475
f 451 472 475
f 475 453 451
f 477 476 475
f 475 474 477
f 476 447 453
f 453 475 476
f 477 478 479
f 479 476 477
f 476 479 448
f 448 447 476
f 481 479 478
f 478 480 481
f 449 448 479
f 479 481 449
f 483 482 481
f 481 480 483
f 449 481 482
f 482 443 449
f 151 455 155
f 155 152 151
f 439 151 150
f 150 436 439
f 455 482 483
f 483 155 455
f 440 443 482
f 482 455 440
f 487 484 485
f 485 486 487
f 491 488 489
f 489 490 491
f 493 484 487
f 487 492 493
f 497 494 495
f 495 496 497
f 488 497 496
f 496 489 488
f 485 498 499
f 499 486 485
f 494 500 501
f 501 495 494
f 505 502 503
f 503 504 505
f 509 506 507
f 507 508 509
f 497 488 510
f 510 511 497
f 498 485 512
f 512 513 498
f 514 510 488
f 488 491 514
f 509 501 492
f 492 506 509
f 516 515 505
f 505 504 516
f 503 517 512
f 512 518 503
f 518 512 485
f 485 484 518
f 504 503 518
f 518 516 504
f 516 518 484
f 484 493 516
f 511 519 494
f 494 497 511
f 519 515 500
f 500 494 519
f 490 489 520
f 520 521 490
f 521 520 522
f 522 523 521
f 486 499 524
f 524 525 486
f 525 524 526
f 526 527 525
f 489 496 528
f 528 520 489
f 520 528 529
f 529 522 520
f 493 500 515
f 515 516 493
f 531 527 529
f 529 530 531
f 527 531 532
f 532 525 527
f 525 532 487
f 487 486 525
f 531 507 506
f 506 532 531
f 532 506 492
f 492 487 532
f 530 529 528
f 528 533 530
f 533 528 496
f 496 495 533
f 508 530 533
f 533 509 508
f 509 533 495
f 495 501 509
f 507 531 530
f 530 508 507
f 511 510 534
f 534 535 511
f 501 500 493
f 493 492 501
f 502 505 515
f 515 519 502
f 503 502 535
f 535 517 503
f 535 502 519
f 519 511 535
f 539 536 537
f 537 538 539
f 541 539 538
f 538 540 541
f 545 542 543
f 543 544 545
f 543 546 536
f 536 539 543
f 544 543 539
f 539 541 544
f 538 537 547
f 547 548 538
f 540 538 548
f 548 549 540
f 548 547 550
f 550 551 548
f 549 548 551
f 551 552 549
f 556 553 554
f 554 555 556
f 536 556 555
f 555 537 536
f 560 557 558
f 558 559 560
f 540 560 559
f 559 541 540
f 559 558 561
f 561 562 559
f 541 559 562
f 562 544 541
f 564 563 553
f 553 556 564
f 546 564 556
f 556 536 546
f 555 554 565
f 565 566 555
f 537 555 566
f 566 547 537
f 566 565 567
f 567 568 566
f 547 566 568
f 568 550 547
f 570 569 557
f 557 560 570
f 549 570 560
f 560 540 549
f 572 571 569
f 569 570 572
f 552 572 570
f 570 549 552
f 574 554 553
f 553 573 574
f 576 574 573
f 573 575 576
f 578 558 557
f 557 577 578
f 580 578 577
f 577 579 580
f 581 561 558
f 558 578 581
f 582 581 578
f 578 580 582
f 584 583 561
f 561 581 584
f 573 553 563
f 563 585 573
f 575 573 585
f 585 586 575
f 587 565 554
f 554 574 587
f 588 587 574
f 574 576 588
f 589 567 565
f 565 587 589
f 590 589 587
f 587 588 590
f 577 557 569
f 569 591 577
f 579 577 591
f 591 592 579
f 591 569 571
f 571 593 591
f 592 591 593
f 593 594 592
f 596 491 490
f 490 595 596
f 575 596 595
f 595 576 575
f 598 499 498
f 498 597 598
f 579 598 597
f 597 580 579
f 597 498 513
f 513 599 597
f 580 597 599
f 599 582 580
f 602 600 601
f 601 586 602
f 601 514 491
f 491 596 601
f 586 601 596
f 596 575 586
f 595 490 521
f 521 603 595
f 576 595 603
f 603 588 576
f 603 521 523
f 523 604 603
f 588 603 604
f 604 590 588
f 605 524 499
f 499 598 605
f 592 605 598
f 598 579 592
f 606 526 524
f 524 605 606
f 594 606 605
f 605 592 594
f 517 607 513
f 513 512 517
f 534 510 514
f 514 608 534
f 599 513 607
f 607 609 599
f 514 601 600
f 600 608 514
f 562 561 583
f 583 610 562
f 612 563 564
f 564 611 612
f 564 546 613
f 613 611 564
f 581 582 614
f 614 584 581
f 585 563 612
f 612 615 585
f 602 586 585
f 585 615 602
f 614 582 599
f 599 609 614
f 546 543 542
f 542 613 546
f 545 544 562
f 562 610 545
f 611 613 542
f 542 545 611
f 612 611 545
f 545 610 612
f 615 612 610
f 610 583 615
f 602 615 583
f 583 584 602
f 600 602 584
f 584 614 600
f 608 600 614
f 614 609 608
f 534 608 609
f 609 607 534
f 535 534 607
f 607 517 535
f 522 529 527
f 527 526 522
f 523 522 526
f 526 606 523
f 604 523 606
f 606 594 604
f 590 604 594
f 594 593 590
f 589 590 593
f 593 571 589
f 567 589 571
f 571 572 567
f 568 567 572
f 572 552 568
f 550 568 552
f 552 551 550
f 619 616 617
f 617 618 619
f 621 619 618
f 618 620 621
f 623 621 620
f 620 622 623
f 616 623 622
f 622 617 616
f 622 620 618
f 618 617 622
f 627 624 625
f 625 626 627
f 629 627 626
f 626 628 629
f 631 629 628
f 628 630 631
f 624 631 630
f 630 625 624
f 630 628 626
f 626 625 630
f 635 632 633
f 633 634 635
f 634 633 636
f 636 637 634
f 637 636 638
f 638 639 637
f 639 638 632
f 632 635 639
f 634 637 639
f 639 635 634
f 4 3 2
f 2 1 4
f 3 6 5
f 5 2 3
f 6 8 7
f 7 5 6
f 8 4 1
f 1 7 8
f 3 4 8
f 8 6 3
f 619 618 617
f 617 616 619
f 621 620 618
f 618 619 621
f 623 622 620
f 620 621 623
f 616 617 622
f 622 623 616
f 622 617 618
f 618 620 622
f 627 626 625
f 625 624 627
f 629 628 626
f 626 627 629
f 631 630 628
f 628 629 631
f 624 625 630
f 630 631 624
f 630 625 626
f 626 628 630
f 635 634 633
f 633 632 635
f 634 637 636
f 636 633 634
f 637 639 638
f 638 636 637
f 639 635 632
f 632 638 639
f 634 635 639
f 639 637 634