# https://github.com/mikedh/trimesh
v 0.02668158 -0.00012315 0.00710840
v 0.01864203 0.00665286 0.00000000
v 0.02507400 0.00899391 0.00710840
v 0.01983682 -0.00012315 0.00000000
v 0.02044515 0.01701132 0.00710840
v 0.01520176 0.01261159 0.00000000
v 0.01335334 0.02296205 0.00710840
v 0.00993096 0.01703431 0.00000000
v 0.00346536 0.01938760 0.00000000
v 0.00465394 0.02612837 0.00710840
v -0.00460376 0.02612837 0.00710840
v -0.00341518 0.01938760 0.00000000
v -0.00988078 0.01703431 0.00000000
v -0.01330316 0.02296205 0.00710840
v -0.02039496 0.01701132 0.00710840
v -0.01515158 0.01261159 0.00000000
v -0.02502381 0.00899391 0.00710840
v -0.01859185 0.00665286 0.00000000
v -0.02663140 -0.00012314 0.00710840
v -0.01978664 -0.00012315 0.00000000
v -0.01859185 -0.00689916 0.00000000
v -0.02502382 -0.00924020 0.00710840
v -0.01515158 -0.01285788 0.00000000
v -0.02039497 -0.01725761 0.00710840
v -0.00988078 -0.01728061 0.00000000
v -0.01330316 -0.02320834 0.00710840
v -0.00460377 -0.02637466 0.00710840
v -0.00341519 -0.01963389 0.00000000
v 0.00465393 -0.02637467 0.00710840
v 0.00346535 -0.01963389 0.00000000
v 0.00993095 -0.01728061 0.00000000
v 0.01335333 -0.02320835 0.00710840
v 0.01520175 -0.01285789 0.00000000
v 0.02044514 -0.01725762 0.00710840
v 0.01864203 -0.00689917 0.00000000
v 0.02507400 -0.00924022 0.00710840
v 0.02668158 -0.00012315 0.15505268
v 0.02507400 0.00899391 0.15505268
v 0.02044515 0.01701132 0.15505268
v 0.01335334 0.02296205 0.15505268
v 0.00465394 0.02612837 0.15505268
v -0.00460376 0.02612837 0.15505268
v -0.01330316 0.02296205 0.15505268
v -0.02039496 0.01701132 0.15505268
v -0.02502381 0.00899391 0.15505268
v -0.02663140 -0.00012314 0.15505268
v -0.02502382 -0.00924020 0.15505268
v -0.02039497 -0.01725761 0.15505268
v -0.01330316 -0.02320834 0.15505268
v -0.00460377 -0.02637466 0.15505268
v 0.00465393 -0.02637467 0.15505268
v 0.01335333 -0.02320835 0.15505268
v 0.02044514 -0.01725762 0.15505268
v 0.02507400 -0.00924022 0.15505268
v 0.02668158 -0.00012315 0.17157805
v 0.02507400 0.00899391 0.17157805
v 0.02044515 0.01701132 0.17157805
v 0.01335334 0.02296205 0.17157805
v 0.00465394 0.02612837 0.17157805
v -0.00460376 0.02612837 0.17157805
v -0.00545115 0.02845655 0.17256152
v -0.00551547 0.02863326 0.15505268
v -0.01415054 0.02529023 0.17256152
v -0.01421486 0.02546694 0.15505268
v -0.01330316 0.02296205 0.17157805
v -0.02039496 0.01701132 0.17157805
v -0.02502381 0.00899391 0.17157805
v -0.02663140 -0.00012314 0.17157805
v -0.02502382 -0.00924020 0.17157805
v -0.02039497 -0.01725761 0.17157805
v -0.02198753 -0.01915555 0.17256152
v -0.01501661 -0.02525035 0.15505268
v -0.01489573 -0.02510629 0.17256152
v -0.02210842 -0.01929961 0.15505268
v -0.01330316 -0.02320834 0.17157805
v -0.00460377 -0.02637466 0.17157805
v 0.00465393 -0.02637467 0.17157805
v 0.01335333 -0.02320835 0.17157805
v 0.02044514 -0.01725762 0.17157805
v 0.02507400 -0.00924022 0.17157805
v 0.02751395 -0.00967045 0.17256152
v 0.02930673 -0.00058603 0.15505268
v 0.02912154 -0.00055338 0.17256152
v 0.02769915 -0.00970311 0.15505268
v 0.01955889 0.00698657 0.17730276
v 0.02081252 -0.00012315 0.17730276
v 0.01594919 0.01323876 0.17730276
v 0.01041881 0.01787929 0.17730276
v 0.00363479 0.02034847 0.17730276
v -0.00358461 0.02034847 0.17730276
v -0.01074876 0.01892371 0.17972565
v -0.00396475 0.02139289 0.17972565
v -0.01036862 0.01787929 0.17730276
v -0.01589900 0.01323876 0.17730276
v -0.01950870 0.00698657 0.17730276
v -0.02076234 -0.00012315 0.17730276
v -0.01950870 -0.00723286 0.17730276
v -0.01589901 -0.01348505 0.17730276
v -0.01108305 -0.01897700 0.17972565
v -0.01661343 -0.01433646 0.17972565
v -0.01036863 -0.01812559 0.17730276
v -0.00358462 -0.02059477 0.17730276
v 0.00363478 -0.02059477 0.17730276
v 0.01041880 -0.01812560 0.17730276
v 0.01594918 -0.01348506 0.17730276
v 0.01955888 -0.00723288 0.17730276
v 0.02065344 -0.00742588 0.17972565
v 0.02190708 -0.00031615 0.17972565
v 0.01672712 0.00555240 0.17730276
v 0.01779902 -0.00052664 0.17730276
v 0.01364071 0.01089822 0.17730276
v 0.00891205 0.01486603 0.17730276
v 0.00311150 0.01697726 0.17730276
v -0.00306132 0.01697726 0.17730276
v -0.00306132 0.01738075 0.17996841
v -0.00886188 0.01526952 0.17996841
v -0.00886188 0.01486603 0.17730276
v -0.01359053 0.01089822 0.17730276
v -0.01667694 0.00595589 0.17730276
v -0.01774884 -0.00012315 0.17730276
v -0.01667694 -0.00620218 0.17730276
v -0.01359053 -0.01154800 0.17730276
v -0.00886188 -0.01551582 0.17996841
v -0.01359053 -0.01154800 0.17996841
v -0.00306132 -0.01762705 0.17730276
v -0.00886188 -0.01551582 0.17730276
v 0.00311149 -0.01762705 0.17730276
v 0.00891204 -0.01551583 0.17730276
v 0.01364070 -0.01154802 0.17730276
v 0.01672712 -0.00660569 0.17730276
v 0.01672712 -0.00620220 0.17996841
v 0.01779902 -0.00012315 0.17996841
v 0.00002509 -0.00032489 0.17730276
v 0.01575847 0.00560333 0.00000000
v 0.01676820 -0.00012315 0.00000000
v 0.01285106 0.01063911 0.00000000
v 0.00839665 0.01437681 0.00000000
v 0.00293250 0.01636560 0.00000000
v -0.00288232 0.01636559 0.00000000
v -0.00834646 0.01437681 0.00000000
v -0.01280087 0.01063911 0.00000000
v -0.01570828 0.00560333 0.00000000
v -0.01671801 -0.00012315 0.00000000
v -0.01570828 -0.00584963 0.00000000
v -0.01280088 -0.01088541 0.00000000
v -0.00834647 -0.01462310 0.00000000
v -0.00288233 -0.01661189 0.00000000
v 0.00293249 -0.01661189 0.00000000
v 0.00839664 -0.01462311 0.00000000
v 0.01285105 -0.01088542 0.00000000
v 0.01575847 -0.00584964 0.00000000
v 0.00002509 -0.00012315 0.00246672
f 1 2 3
f 2 1 4
f 5 3 2
f 5 2 6
f 6 7 5
f 7 6 8
f 9 7 8
f 7 9 10
f 11 10 9
f 11 9 12
f 13 11 12
f 11 13 14
f 15 14 13
f 13 16 15
f 17 15 16
f 17 16 18
f 19 17 18
f 19 18 20
f 19 21 22
f 21 19 20
f 23 22 21
f 22 23 24
f 23 25 26
f 23 26 24
f 27 26 25
f 25 28 27
f 29 27 28
f 29 28 30
f 29 31 32
f 31 29 30
f 33 32 31
f 32 33 34
f 35 34 33
f 34 35 36
f 1 36 35
f 1 35 4
f 37 1 38
f 38 1 3
f 38 3 39
f 39 3 5
f 39 5 40
f 40 5 7
f 40 7 41
f 41 7 10
f 41 10 42
f 42 10 11
f 42 11 43
f 43 11 14
f 43 14 44
f 44 14 15
f 44 15 45
f 45 15 17
f 45 17 46
f 46 17 19
f 46 19 47
f 47 19 22
f 47 22 48
f 48 22 24
f 48 24 49
f 49 24 26
f 49 26 50
f 50 26 27
f 50 27 51
f 51 27 29
f 51 29 52
f 52 29 32
f 52 32 53
f 53 32 34
f 53 34 54
f 54 34 36
f 54 36 37
f 37 36 1
f 55 37 56
f 56 37 38
f 56 38 57
f 57 38 39
f 57 39 58
f 58 39 40
f 58 40 59
f 59 40 41
f 59 41 60
f 60 41 42
f 61 62 63
f 63 62 64
f 65 43 66
f 66 43 44
f 66 44 67
f 67 44 45
f 67 45 68
f 68 45 46
f 68 46 69
f 69 46 47
f 69 47 70
f 70 47 48
f 71 72 73
f 72 71 74
f 75 49 76
f 76 49 50
f 76 50 77
f 77 50 51
f 77 51 78
f 78 51 52
f 78 52 79
f 79 52 53
f 79 53 80
f 80 53 54
f 81 82 83
f 82 81 84
f 55 85 86
f 85 55 56
f 57 85 56
f 85 57 87
f 87 58 88
f 58 87 57
f 58 59 89
f 58 89 88
f 60 89 59
f 89 60 90
f 91 61 63
f 61 91 92
f 93 66 94
f 66 93 65
f 67 94 66
f 94 67 95
f 96 95 67
f 67 68 96
f 69 96 68
f 96 69 97
f 98 69 70
f 69 98 97
f 99 71 73
f 71 99 100
f 101 76 102
f 76 101 75
f 102 77 103
f 77 102 76
f 104 103 77
f 77 78 104
f 78 79 105
f 78 105 104
f 80 106 79
f 79 106 105
f 83 107 81
f 107 83 108
f 86 109 110
f 109 86 85
f 111 109 85
f 85 87 111
f 112 111 87
f 87 88 112
f 88 89 113
f 88 113 112
f 90 113 89
f 113 90 114
f 91 115 92
f 115 91 116
f 117 94 118
f 94 117 93
f 118 95 119
f 95 118 94
f 120 119 95
f 95 96 120
f 97 120 96
f 120 97 121
f 122 97 98
f 97 122 121
f 123 100 99
f 100 123 124
f 101 125 126
f 125 101 102
f 125 103 127
f 103 125 102
f 128 127 103
f 103 104 128
f 104 105 129
f 104 129 128
f 105 106 130
f 105 130 129
f 108 131 107
f 131 108 132
f 62 43 64
f 43 62 42
f 65 64 43
f 64 65 63
f 93 63 65
f 63 93 91
f 116 91 93
f 116 93 117
f 115 116 117
f 115 117 114
f 115 90 92
f 90 115 114
f 60 92 90
f 92 60 61
f 62 61 60
f 60 42 62
f 74 49 72
f 49 74 48
f 75 72 49
f 72 75 73
f 101 73 75
f 73 101 99
f 123 99 101
f 123 101 126
f 124 123 126
f 124 126 122
f 124 98 100
f 98 124 122
f 71 98 70
f 98 71 100
f 74 71 70
f 70 48 74
f 84 37 82
f 37 84 54
f 55 82 37
f 82 55 83
f 108 83 55
f 55 86 108
f 132 108 86
f 132 86 110
f 131 132 110
f 131 110 130
f 131 106 107
f 106 131 130
f 80 107 106
f 107 80 81
f 84 81 80
f 80 54 84
f 133 111 112
f 111 133 109
f 133 113 114
f 113 133 112
f 117 133 114
f 133 117 118
f 133 119 120
f 119 133 118
f 133 121 122
f 121 133 120
f 126 133 122
f 133 126 125
f 133 127 128
f 127 133 125
f 133 129 130
f 129 133 128
f 133 110 109
f 110 133 130
f 4 134 2
f 134 4 135
f 2 136 6
f 136 2 134
f 6 137 8
f 137 6 136
f 138 8 137
f 8 138 9
f 138 139 12
f 138 12 9
f 140 12 139
f 12 140 13
f 140 16 13
f 16 140 141
f 141 18 16
f 18 141 142
f 20 18 142
f 20 142 143
f 143 144 21
f 21 20 143
f 145 21 144
f 21 145 23
f 25 145 146
f 145 25 23
f 146 28 25
f 28 146 147
f 147 30 28
f 30 147 148
f 30 149 31
f 149 30 148
f 150 31 149
f 31 150 33
f 151 33 150
f 33 151 35
f 4 151 135
f 151 4 35
f 152 135 151
f 135 152 134
f 152 136 134
f 136 152 137
f 152 138 137
f 138 152 139
f 140 152 141
f 152 140 139
f 152 142 141
f 142 152 143
f 152 144 143
f 144 152 145
f 146 152 147
f 152 146 145
f 152 148 147
f 148 152 149
f 152 150 149
f 150 152 151
f 63 64 62
f 62 61 63
f 73 72 74
f 74 71 73
f 83 82 84
f 84 81 83
f 63 61 92
f 92 91 63
f 73 71 100
f 100 99 73
f 81 107 108
f 108 83 81
f 92 115 116
f 116 91 92
f 99 100 124
f 124 123 99
f 107 131 132
f 132 108 107
f 64 43 42
f 42 62 64
f 43 64 63
f 63 65 43
f 65 63 91
f 91 93 65
f 117 93 91
f 91 116 117
f 114 117 116
f 116 115 114
f 92 90 114
f 114 115 92
f 90 92 61
f 61 60 90
f 42 60 61
f 61 62 42
f 72 49 48
f 48 74 72
f 49 72 73
f 73 75 49
f 75 73 99
f 99 101 75
f 126 101 99
f 99 123 126
f 122 126 123
f 123 124 122
f 100 98 122
f 122 124 100
f 70 98 100
f 100 71 70
f 48 70 71
f 71 74 48
f 82 37 54
f 54 84 82
f 37 82 83
f 83 55 37
f 86 55 83
f 83 108 86
f 110 86 108
f 108 132 110
f 130 110 132
f 132 131 130
f 107 106 130
f 130 131 107
f 106 107 81
f 81 80 106
f 54 80 81
f 81 84 54
f 151 135 134
f 134 152 151
f 134 136 137
f 137 152 134
f 137 138 139
f 139 152 137
f 141 152 139
f 139 140 141
f 141 142 143
f 143 152 141
f 143 144 145
f 145 152 143
f 147 152 145
f 145 146 147
f 147 148 149
f 149 152 147
f 149 150 151
f 151 152 149