# https://github.com/mikedh/trimesh
v 0.02704285 0.00031493 0.04735576
v 0.02564741 0.02403698 0.05991450
v 0.03401992 0.00031493 0.06130992
v 0.02564741 -0.02340712 0.05991450
v 0.02146118 0.02403698 0.05014659
v 0.02146118 -0.02340712 0.05014659
v 0.02704285 -0.02340712 0.08084573
v 0.03262453 0.00031493 0.08363656
v 0.02704285 0.02403698 0.08084573
v 0.00332076 -0.03875670 0.05293742
v -0.00086547 -0.02340712 0.03898327
v 0.02006578 0.00031493 0.03898327
v -0.00086547 0.02403698 0.03898327
v 0.00332076 0.03938656 0.05293742
v 0.00568432 0.06518549 0.04853332
v -0.00826982 0.06518549 0.04853332
v -0.00199045 0.06937172 0.05481269
v -0.00826982 0.06518549 0.06109206
v 0.02111452 -0.00221407 0.00000000
v 0.01553284 -0.03082010 0.00000000
v 0.00088098 -0.03779717 0.00000000
v 0.01413744 -0.03666360 0.01928488
v -0.01649813 -0.03666360 0.01872963
v -0.00258679 -0.05593268 0.06499596
v 0.00568432 -0.06455562 0.06109206
v 0.00997196 -0.05593268 0.05941430
v 0.00568432 -0.06455562 0.04853332
v 0.00578573 -0.05593268 0.04685556
v -0.00199045 -0.06874186 0.05481269
v -0.00826982 -0.06455562 0.06109206
v -0.00826982 -0.06455562 0.04853332
v 0.00711005 -0.03736130 0.04860388
v -0.00265785 -0.04433837 0.04720846
v -0.01235469 -0.03849000 0.05871659
v -0.00126242 -0.02898879 0.05837178
v 0.01413744 0.03729347 0.01928488
v 0.02111452 0.00284394 0.00000000
v 0.01553284 0.03144996 0.00000000
v -0.02074795 0.00284394 -0.00000000
v 0.01413744 0.00310577 0.01928488
v -0.01656172 0.00310577 0.01928488
v 0.00088098 0.03842704 0.00000000
v 0.02403248 -0.03596590 0.02654688
v -0.00184627 -0.04852460 0.01175256
v 0.02124164 -0.03526816 0.01259272
v -0.03749293 0.00031493 0.03044820
v -0.02637990 -0.03596586 0.04720846
v -0.02777534 0.00031493 0.05418554
v -0.02637990 0.03659573 0.04720846
v -0.02632963 0.03659577 0.03044821
v -0.00108501 0.05264301 0.03073312
v -0.00108501 -0.05201314 0.03073312
v -0.02632963 -0.03596590 0.03044821
v -0.00265785 0.04496824 0.04720846
v 0.02106421 -0.03247732 0.04302221
v 0.03380039 0.00031493 0.02654688
v 0.02804131 0.00031493 0.04023138
v 0.02403248 0.03659577 0.02654688
v 0.02106421 0.03310719 0.04302221
v 0.03240499 0.00031493 0.00561565
v -0.00126242 0.02961865 0.05837178
v 0.01548256 0.01915305 0.04999929
v 0.01966879 0.00031493 0.04720846
v 0.01308871 -0.02759339 0.09479988
v 0.00890243 0.00031493 0.10177695
v 0.00332076 -0.01084837 0.10177695
v -0.01691276 -0.01084841 0.10038154
v -0.00923794 -0.03736130 0.08782281
v -0.00644715 -0.01643005 0.10038154
v 0.01308871 0.02822326 0.09479988
v -0.00644715 0.01705991 0.10038154
v 0.00332076 0.01147824 0.10177695
v -0.01691276 0.01147828 0.10038154
v -0.00923794 0.03799117 0.08782281
v -0.03016919 0.02403698 0.08084573
v -0.00505171 0.00031493 0.10735863
v -0.02179669 0.00031493 0.10038154
v -0.02074795 -0.00221407 -0.00000000
v -0.01649813 0.03729347 0.01872963
v -0.01656172 0.03144996 0.00000000
v -0.00184627 0.04915447 0.01175256
v 0.02124164 0.03589803 0.01259272
v -0.03470209 0.00031493 0.00533073
v -0.02214339 0.03520029 0.01091239
v -0.02214339 -0.03457042 0.01091239
v -0.00956385 -0.05593268 0.04685556
v -0.01375009 -0.05593268 0.05941430
v -0.01103032 -0.03736130 0.05279012
v 0.01548256 -0.01852318 0.04999929
v -0.00265786 0.00031493 0.05697636
v 0.00711005 0.03799117 0.04860388
v -0.00226087 0.04357280 0.06828699
v 0.01448411 0.03938656 0.07665948
v -0.00226087 -0.04294293 0.06828699
v 0.01448411 -0.03875670 0.07665948
v 0.02146117 0.00031493 0.09759073
v -0.01375009 0.05656255 0.05941430
v -0.00956385 0.05656255 0.04685556
v -0.00258679 0.05656255 0.06499596
v 0.00997196 0.05656255 0.05941430
v -0.01235469 0.03911987 0.05871659
v -0.01103032 0.03799117 0.05279012
v 0.01413744 -0.00247590 0.01928488
v -0.01656172 -0.03082010 0.00000000
v -0.01656172 -0.00247590 0.01928488
v -0.03854166 0.00031493 0.08084573
v -0.02040129 0.03938656 0.06270532
v -0.03296003 0.02403698 0.05712367
v -0.00923794 0.00031493 0.03479702
v -0.03296003 -0.02340712 0.05712367
v -0.02040129 -0.03875670 0.06270532
v -0.03016919 -0.02340712 0.08084573
v -0.03714627 0.00031493 0.05572825
v 0.00578573 0.05656255 0.04685556
v 0.00568432 0.06518549 0.06109206
f 1 2 3
f 4 1 3
f 2 1 5
f 1 4 6
f 4 3 7
f 7 3 8
f 2 9 3
f 3 9 8
f 10 11 6
f 6 11 12
f 5 13 14
f 5 12 13
f 6 12 1
f 10 6 4
f 5 14 2
f 12 5 1
f 15 16 17
f 17 16 18
f 19 20 21
f 21 22 23
f 24 25 26
f 26 27 28
f 29 27 25
f 29 30 31
f 32 28 33
f 34 24 35
f 36 37 38
f 39 40 41
f 42 38 37
f 43 44 45
f 46 47 48
f 49 46 48
f 46 49 50
f 51 50 49
f 52 47 53
f 46 53 47
f 44 43 52
f 51 49 54
f 52 43 55
f 52 55 33
f 55 56 57
f 56 55 43
f 56 58 59
f 56 59 57
f 59 51 54
f 51 59 58
f 43 60 56
f 47 52 33
f 45 60 43
f 47 35 48
f 61 49 48
f 59 61 62
f 57 59 62
f 57 62 63
f 64 65 66
f 67 68 69
f 70 71 72
f 73 74 75
f 76 77 67
f 76 71 73
f 76 65 72
f 76 69 66
f 21 78 19
f 39 79 80
f 36 42 79
f 42 80 79
f 37 36 40
f 79 39 41
f 60 81 82
f 44 60 45
f 83 60 44
f 83 84 81
f 60 83 81
f 44 85 83
f 31 28 27
f 25 24 30
f 86 87 24
f 87 88 86
f 34 88 87
f 26 35 24
f 28 86 33
f 32 35 26
f 57 89 55
f 89 57 63
f 90 48 35
f 59 91 61
f 90 89 63
f 90 35 89
f 90 62 61
f 90 63 62
f 54 91 59
f 90 61 48
f 35 55 89
f 74 71 70
f 69 68 64
f 66 69 64
f 14 92 93
f 2 93 9
f 14 93 2
f 68 94 95
f 68 95 64
f 64 95 7
f 64 7 96
f 96 7 8
f 94 10 95
f 95 4 7
f 9 96 8
f 10 4 95
f 70 96 9
f 93 70 9
f 74 70 93
f 92 74 93
f 97 16 98
f 99 61 100
f 99 101 61
f 98 54 102
f 55 35 32
f 33 88 47
f 55 32 33
f 58 81 51
f 81 58 82
f 81 84 50
f 81 50 51
f 53 44 52
f 22 21 20
f 22 19 103
f 23 78 104
f 23 104 21
f 78 23 105
f 84 83 50
f 50 83 46
f 83 53 46
f 53 83 85
f 44 53 85
f 106 73 75
f 92 14 107
f 107 13 108
f 107 14 13
f 109 11 110
f 74 73 71
f 94 68 111
f 111 68 112
f 111 112 110
f 110 112 106
f 110 106 113
f 106 108 113
f 106 75 108
f 75 107 108
f 108 13 109
f 68 67 112
f 67 106 112
f 73 106 77
f 106 67 77
f 11 111 110
f 11 10 111
f 109 12 11
f 109 13 12
f 109 110 113
f 10 94 111
f 74 92 107
f 108 109 113
f 75 74 107
f 60 58 56
f 58 60 82
f 39 42 37
f 42 36 38
f 37 40 39
f 42 39 80
f 78 105 19
f 105 103 19
f 19 22 20
f 78 21 104
f 27 26 25
f 31 87 86
f 30 24 87
f 28 31 86
f 25 30 29
f 31 27 29
f 87 31 30
f 98 16 114
f 114 15 100
f 15 114 16
f 97 99 18
f 16 97 18
f 115 100 15
f 100 115 99
f 18 99 115
f 17 115 15
f 18 115 17
f 98 97 99
f 54 98 114
f 98 102 97
f 91 114 100
f 101 99 97
f 114 91 54
f 100 61 91
f 97 102 101
f 61 101 102
f 88 33 86
f 28 32 26
f 47 88 35
f 88 34 35
f 49 102 54
f 61 102 49
f 24 34 87
f 72 65 70
f 65 96 70
f 65 64 96
f 67 69 76
f 73 77 76
f 72 71 76
f 66 65 76
f 20 22 19
f 22 20 19
f 103 105 23
f 23 22 103
f 19 21 20
f 88 86 33
f 33 86 88
f 62 61 59
f 67 69 68
f 73 75 74
f 86 24 87
f 69 66 64
f 64 68 69
f 70 71 73
f 73 74 70
f 11 12 13
f 13 109 11
f 98 99 97