# https://github.com/mikedh/trimesh
v 0.03188308 0.03168887 0.02540392
v 0.05329014 -0.01103743 0.05898375
v 0.04632401 0.02969197 0.01908559
v 0.04199763 -0.02789400 0.03981444
v 0.05154183 -0.03339508 0.03091250
v -0.02253091 -0.02290250 0.00880640
v -0.02630091 0.00039903 0.04614908
v -0.02253091 0.02669737 0.05641196
v 0.03188309 -0.00977325 0.01425821
v -0.02253091 0.02669737 0.00880640
v 0.04096592 -0.01509270 0.00471947
v -0.02937115 0.02175358 0.00000000
v -0.02948742 -0.02833844 0.00049991
v -0.04169495 -0.00204750 0.04308485
v -0.03788678 0.02456742 0.05301789
v -0.02939028 0.01351411 0.00008223
v -0.03767427 0.01639438 0.04191488
v 0.04370799 -0.01983806 0.01151068
v 0.04750421 0.01516525 0.02207230
v 0.04873265 -0.02853360 0.02395510
v 0.05678728 -0.01146304 0.04589091
v -0.02946803 -0.01998510 0.00041654
v -0.04063675 0.00051904 0.04001635
v -0.03172202 -0.00721602 0.01256314
v -0.03327026 0.00573217 0.01297034
v -0.03644904 0.00183390 0.02419689
v -0.03404149 0.00786451 0.02558556
v -0.03206793 -0.00412667 0.01430146
v -0.03363751 0.00374397 0.01428312
v -0.03567919 0.00127264 0.02150252
v -0.03355769 0.00486753 0.02247913
f 1 2 3
f 2 4 5
f 6 4 2
f 6 2 7
f 7 2 1
f 7 1 8
f 8 1 9
f 8 9 10
f 10 9 11
f 10 11 12
f 4 6 13
f 4 13 5
f 9 1 3
f 9 3 11
f 6 7 14
f 6 14 13
f 7 8 15
f 7 15 14
f 8 10 12
f 8 12 15
f 12 16 17
f 12 17 15
f 16 12 11
f 16 11 18
f 18 11 3
f 18 3 19
f 5 20 21
f 5 21 2
f 20 5 13
f 20 13 22
f 22 13 14
f 22 14 23
f 19 3 2
f 19 2 21
f 23 14 15
f 23 15 17
f 16 18 20
f 16 20 22
f 20 18 19
f 20 19 21
f 16 22 24
f 16 24 25
f 22 23 26
f 22 26 24
f 23 17 27
f 23 27 26
f 17 16 25
f 17 25 27
f 25 24 28
f 25 28 29
f 24 26 30
f 24 30 28
f 26 27 31
f 26 31 30
f 27 25 29
f 27 29 31
f 1 3 2
f 7 8 1
f 1 2 7
f 5 13 6
f 6 4 5
f 11 3 1
f 1 9 11
f 14 15 8
f 8 7 14
f 15 12 10
f 10 8 15