# https://github.com/mikedh/trimesh
v 0.01228659 0.01024233 0.08240703
v 0.01637702 -0.00008693 0.08008296
v 0.01254062 0.01045350 0.08008067
v 0.01604582 -0.00008609 0.08240932
v 0.00282651 0.01606195 0.08007772
v 0.00276785 0.01573798 0.08240407
v -0.00805645 0.01382936 0.08240186
v -0.00821998 0.01411416 0.08007549
v -0.01543005 0.00552152 0.08007503
v -0.01512151 0.00540955 0.08240141
v -0.01512151 -0.00558173 0.08240295
v -0.01543005 -0.00569537 0.08007656
v -0.00805646 -0.01400154 0.08240573
v -0.00821999 -0.01428801 0.08007936
v 0.00282650 -0.01623581 0.08008212
v 0.00276784 -0.01591016 0.08240847
v 0.01228656 -0.01041452 0.08240990
v 0.01254061 -0.01062737 0.08008354
v 0.01546716 -0.00008856 0.07529611
v 0.00259047 0.00208223 0.05446876
v 0.01184426 0.00986528 0.07529381
v 0.00338334 -0.00009618 0.05447106
v 0.00267074 0.01516161 0.07529087
v 0.00058283 0.00324136 0.05446581
v -0.00170019 0.00283882 0.05446360
v -0.00776098 0.01332221 0.07528866
v -0.01456980 0.00520776 0.07528821
v -0.00319033 0.00106294 0.05446315
v -0.00319032 -0.00125530 0.05446467
v -0.01456982 -0.00538488 0.07528973
v -0.00170019 -0.00303117 0.05446746
v -0.00776099 -0.01349934 0.07529252
v 0.00267073 -0.01533874 0.07529526
v 0.00058283 -0.00343372 0.05447020
v 0.00259046 -0.00227460 0.05447162
v 0.01184425 -0.01004242 0.07529668
v 0.00907665 0.00755452 0.08896448
v 0.01185674 -0.00008374 0.08896676
v 0.01480248 -0.00008498 0.08551528
v 0.01133370 0.00944544 0.08551298
v 0.00255043 0.01451647 0.08551005
v 0.00203721 0.01161874 0.08896155
v -0.00596776 0.01020724 0.08895936
v -0.00743755 0.01275532 0.08550783
v -0.01395674 0.00498605 0.08550738
v -0.01119263 0.00398050 0.08895890
v -0.01119264 -0.00414796 0.08896042
v -0.01395675 -0.00515601 0.08550890
v -0.00743756 -0.01292527 0.08551168
v -0.00596776 -0.01037472 0.08896319
v 0.00255041 -0.01468641 0.08551442
v 0.00203719 -0.01178622 0.08896591
v 0.00907664 -0.00772200 0.08896733
v 0.01133369 -0.00961539 0.08551584
v 0.00616079 -0.00008056 0.09773087
v 0.00470766 0.00389210 0.09311944
v 0.00471207 0.00389978 0.09772857
v 0.00615420 -0.00008223 0.09312173
v 0.00104377 0.00601767 0.09772561
v 0.00104490 0.00600679 0.09311649
v -0.00312023 0.00527236 0.09311429
v -0.00312766 0.00528213 0.09772340
v -0.00585036 0.00203733 0.09772294
v -0.00583882 0.00203247 0.09311384
v -0.00585037 -0.00219845 0.09772447
v -0.00583883 -0.00219691 0.09311536
v -0.00312024 -0.00543682 0.09311813
v -0.00312766 -0.00544325 0.09772726
v 0.00104377 -0.00617879 0.09773002
v 0.00104490 -0.00617125 0.09312088
v 0.00470766 -0.00405656 0.09312229
v 0.00471207 -0.00406090 0.09773145
v 0.00875559 -0.00008305 0.09084077
v 0.00670075 0.00556252 0.09083848
v 0.00149776 0.00856646 0.09083556
v -0.00441885 0.00752319 0.09083337
v -0.00828064 0.00292089 0.09083292
v -0.00828066 -0.00308699 0.09083443
v -0.00441886 -0.00768932 0.09083720
v 0.00149775 -0.00873259 0.09083993
v 0.00670076 -0.00572864 0.09084133
v 0.00672464 0.01159462 0.08236458
v 0.01291387 0.00462690 0.08007895
v 0.01265356 0.00453310 0.08236746
v 0.00686371 0.01183277 0.08007621
v -0.00236243 0.01319691 0.08236189
v -0.00240916 0.01346782 0.08007352
v -0.01035346 0.00858328 0.08236050
v -0.01056359 0.00875987 0.08007212
v -0.01350937 -0.00008749 0.08236107
v -0.01378402 -0.00008820 0.08007269
v -0.01035347 -0.00875827 0.08236331
v -0.01056359 -0.00893627 0.08007493
v -0.00236970 -0.01337091 0.08236633
v -0.00241661 -0.01364324 0.08007784
v 0.01031336 -0.00875826 0.08236901
v 0.01052583 -0.00893627 0.08008048
v 0.00136439 0.00227752 0.05455629
v 0.01289909 0.00461888 0.07558844
v 0.00685687 0.01181560 0.07558597
v 0.00256723 0.00084739 0.05455855
v -0.00240372 0.01344850 0.07558328
v -0.00048189 0.00260303 0.05455360
v -0.00210544 0.00166566 0.05455220
v -0.01054734 0.00874677 0.07558189
v -0.01376352 -0.00008958 0.07558245
v -0.00274664 -0.00009600 0.05455276
v -0.00210546 -0.00185769 0.05455501
v -0.01054735 -0.00892593 0.07558469
v -0.00241074 -0.01362665 0.07558731
v -0.00048820 -0.00279392 0.05455742
v 0.00209317 -0.00185739 0.05455984
v 0.01051408 -0.00892588 0.07558981
v 0.00496647 0.00855705 0.08883724
v 0.01167507 0.00417801 0.08543167
v 0.00935219 0.00333327 0.08884045
v 0.00620326 0.01069521 0.08542859
v -0.00218346 0.01217401 0.08542590
v -0.00175626 0.00974245 0.08883454
v -0.00766811 0.00632923 0.08883314
v -0.00955861 0.00791596 0.08542450
v -0.01247130 -0.00008655 0.08542507
v -0.01000289 -0.00008551 0.08883370
v -0.00766812 -0.00650026 0.08883596
v -0.00955862 -0.00808907 0.08542730
v -0.00219027 -0.01234606 0.08543054
v -0.00176213 -0.00991226 0.08883934
v 0.00762095 -0.00649983 0.08884222
v 0.00951524 -0.00808892 0.08543335
v 0.00690371 0.00244133 0.09069191
v 0.00366308 0.00630170 0.09068880
v -0.00130485 0.00717769 0.09068608
v -0.00567359 0.00465540 0.09068468
v -0.00739893 -0.00008495 0.09068525
v -0.00567358 -0.00482529 0.09068750
v -0.00130913 -0.00734635 0.09069078
v 0.00562425 -0.00482462 0.09069365
v -0.00002843 -0.00008227 0.09311999
v 0.00210942 0.00167698 0.05261579
v 0.00275460 -0.00009686 0.05261682
v 0.00047474 0.00262137 0.05261448
v -0.00138486 0.00229389 0.05261348
v -0.00259875 0.00084735 0.05261329
v -0.00259847 -0.00104096 0.05261397
v -0.00138448 -0.00248696 0.05261522
v 0.00047459 -0.00281426 0.05261645
v 0.00210899 -0.00187034 0.05261708
v 0.00045840 -0.00048552 0.05261559
v 0.00056201 0.00012057 0.05261544
v 0.00029916 0.00043124 0.05261516
v -0.00011162 0.00050590 0.05261490
v -0.00047480 0.00029752 0.05261475
v -0.00061767 -0.00009633 0.05261481
v -0.00047294 -0.00048862 0.05261504
v -0.00012069 -0.00069379 0.05261532
v 0.01640979 -0.00010675 0.02516759
v 0.01232215 0.01022082 0.02283056
v 0.01257340 0.01043367 0.02515770
v 0.01608137 -0.00010760 0.02284021
v 0.00285930 0.01604210 0.02514501
v 0.00280343 0.01571647 0.02281818
v -0.00802087 0.01380785 0.02280886
v -0.00818717 0.01409431 0.02513544
v -0.01539724 0.00550168 0.02513350
v -0.01508593 0.00538804 0.02280694
v -0.01508593 -0.00560325 0.02281335
v -0.01539725 -0.00571520 0.02514007
v -0.00802088 -0.01402305 0.02282508
v -0.00818718 -0.01430783 0.02515209
v 0.00285928 -0.01625561 0.02516393
v 0.00280340 -0.01593166 0.02283664
v 0.01232213 -0.01043602 0.02284261
v 0.01257339 -0.01064717 0.02517004
v 0.00338567 -0.00009752 0.05076309
v 0.01547076 -0.00010511 0.02971025
v 0.00259278 0.00208097 0.05076285
v 0.01185342 0.00983345 0.02970038
v 0.00269399 0.01512165 0.02968771
v 0.00058507 0.00324014 0.05076257
v -0.00169805 0.00283759 0.05076234
v -0.00772172 0.01328507 0.02967816
v -0.00318823 -0.00125668 0.05076246
v -0.01452009 0.00518308 0.02967621
v -0.01452010 -0.00539330 0.02968277
v -0.00318824 0.00106164 0.05076230
v -0.00169804 -0.00303262 0.05076273
v -0.00772174 -0.01349530 0.02969477
v 0.00269397 -0.01533187 0.02970659
v 0.00058505 -0.00343517 0.05076299
v 0.00259276 -0.00227602 0.05076314
v 0.01185340 -0.01004368 0.02971270
v 0.01190014 -0.00010997 0.01627778
v 0.00912005 0.00752827 0.01627122
v 0.01484175 -0.00010872 0.01973279
v 0.01137298 0.00942168 0.01972405
v 0.00258971 0.01449272 0.01971285
v 0.00208060 0.01159250 0.01626282
v -0.00592435 0.01018100 0.01625648
v -0.00739827 0.01273157 0.01970440
v -0.01114922 0.00395425 0.01625518
v -0.01391746 0.00496230 0.01970268
v -0.01114923 -0.00417420 0.01625954
v -0.01391746 -0.00517975 0.01970848
v -0.00739828 -0.01294901 0.01971909
v -0.00592438 -0.01040096 0.01626751
v 0.00258969 -0.01471017 0.01972955
v 0.00208059 -0.01181246 0.01627535
v 0.00912004 -0.00774823 0.01627941
v 0.01137296 -0.00963914 0.01973495
v 0.00475601 0.00386286 0.01211371
v 0.00621466 -0.00011312 0.00750687
v 0.00476593 0.00386720 0.00750456
v 0.00620255 -0.00011146 0.01211602
v 0.00109326 0.00597754 0.01211074
v 0.00109764 0.00598510 0.00750161
v -0.00307187 0.00524312 0.01210852
v -0.00307380 0.00524956 0.00749938
v -0.00579047 0.00200322 0.01210806
v -0.00579650 0.00200476 0.00749893
v -0.00579047 -0.00222616 0.01210959
v -0.00579650 -0.00223101 0.00750046
v -0.00307187 -0.00546605 0.01211239
v -0.00307380 -0.00547582 0.00750326
v 0.00109325 -0.00620049 0.01211516
v 0.00109763 -0.00621135 0.00750602
v 0.00475602 -0.00408579 0.01211658
v 0.00476593 -0.00409347 0.00750744
v 0.00674639 0.00553493 0.01439582
v 0.00880122 -0.00011065 0.01440007
v 0.00154340 0.00853887 0.01439037
v -0.00437322 0.00749560 0.01438625
v -0.00823500 0.00289329 0.01438541
v -0.00823501 -0.00311459 0.01438824
v -0.00437323 -0.00771690 0.01439340
v 0.00154339 -0.00876019 0.01439850
v 0.00674639 -0.00575624 0.01440113
v 0.00676015 0.01157313 0.02286539
v 0.01294666 0.00460708 0.02516344
v 0.00689649 0.01181294 0.02515376
v 0.01268908 0.00451162 0.02287471
v -0.00232691 0.01317542 0.02285608
v -0.00237637 0.01344800 0.02514419
v -0.01031794 0.00856180 0.02285125
v -0.01053079 0.00874003 0.02513925
v -0.01347385 -0.00010898 0.02285319
v -0.01375122 -0.00010803 0.02514123
v -0.01031795 -0.00877976 0.02286097
v -0.01053080 -0.00895609 0.02514923
v -0.00233417 -0.01339239 0.02287081
v -0.00238382 -0.01366307 0.02515945
v 0.01034887 -0.00877974 0.02287994
v 0.01055861 -0.00895609 0.02516885
v 0.00136670 0.00227611 0.05067397
v 0.01292651 0.00460229 0.02965394
v 0.00256955 0.00084598 0.05067419
v 0.00688431 0.01179902 0.02964400
v -0.00047956 0.00260164 0.05067424
v -0.00237629 0.01343191 0.02963445
v -0.00210313 0.00166426 0.05067437
v -0.01051991 0.00873018 0.02962951
v -0.00274433 -0.00009740 0.05067431
v -0.01373608 -0.00010617 0.02963149
v -0.00210315 -0.00185909 0.05067410
v -0.01051992 -0.00894251 0.02963947
v -0.00238332 -0.01364324 0.02964996
v -0.00048588 -0.00279532 0.05067430
v 0.00209549 -0.00185879 0.05067429
v 0.01054150 -0.00894245 0.02965950
v 0.01171424 0.00415432 0.01980957
v 0.00624244 0.01067152 0.01980142
v 0.00500972 0.00853090 0.01639283
v 0.00939543 0.00330712 0.01639863
v -0.00214428 0.01215032 0.01979303
v -0.00171301 0.00971630 0.01638665
v -0.00951943 0.00789227 0.01978871
v -0.00762486 0.00630308 0.01638347
v -0.01243211 -0.00011025 0.01979043
v -0.00995965 -0.00011167 0.01638474
v -0.00951945 -0.00811276 0.01979745
v -0.00762486 -0.00652641 0.01638991
v -0.00215110 -0.01236975 0.01980607
v -0.00171888 -0.00993841 0.01639604
v 0.00955442 -0.00811261 0.01981417
v 0.00766420 -0.00652597 0.01640189
v 0.00370853 0.00627421 0.01454135
v 0.00694917 0.00241385 0.01454490
v -0.00125939 0.00715020 0.01453750
v -0.00562813 0.00462791 0.01453551
v -0.00735347 -0.00011244 0.01453630
v -0.00562813 -0.00485278 0.01453953
v -0.00126367 -0.00737384 0.01454328
v 0.00566971 -0.00485210 0.01454687
v 0.00001993 -0.00011152 0.01211037
v 0.02736539 -0.00011240 0.01068044
v 0.02528394 0.01035178 0.00412472
v 0.02528394 0.01035178 0.01068044
v 0.02736539 -0.00011240 0.00412472
v 0.01935645 0.01922288 0.01068044
v 0.01935645 0.01922288 0.00412472
v 0.01048535 0.02515036 0.01068044
v 0.01048535 0.02515036 0.00412472
v 0.00002116 0.02723182 0.01068044
v 0.00002116 0.02723182 0.00412472
v -0.01044302 0.02515037 0.00412472
v -0.01044302 0.02515037 0.01068044
v -0.01931413 0.01922288 0.01068044
v -0.01931413 0.01922288 0.00412472
v -0.02524161 0.01035177 0.00412472
v -0.02524161 0.01035177 0.01068044
v -0.02732307 -0.00011241 0.01068044
v -0.02732307 -0.00011241 0.00412472
v -0.02524161 -0.01057661 0.01068044
v -0.02524161 -0.01057661 0.00412472
v -0.01931412 -0.01944771 0.01068044
v -0.01931412 -0.01944771 0.00412472
v -0.01044300 -0.02537519 0.00412472
v -0.01044300 -0.02537519 0.01068044
v 0.00002119 -0.02745664 0.01068044
v 0.00002119 -0.02745664 0.00412472
v 0.01048538 -0.02537517 0.01068044
v 0.01048538 -0.02537517 0.00412472
v 0.01935648 -0.01944768 0.01068044
v 0.01935648 -0.01944768 0.00412472
v 0.02528395 -0.01057655 0.01068044
v 0.02528395 -0.01057655 0.00412472
v 0.02691426 -0.00011241 0.00367084
v 0.00002116 -0.00011241 0.00366266
v 0.02486714 0.01017913 0.00367084
v 0.01903745 0.01890388 0.00367084
v 0.01031270 0.02473357 0.00367084
v 0.00002116 0.02678069 0.00367084
v -0.01027037 0.02473357 0.00367084
v -0.01899512 0.01890388 0.00367084
v -0.02482482 0.01017912 0.00367084
v -0.02687193 -0.00011241 0.00367084
v -0.02482481 -0.01040396 0.00367084
v -0.01899511 -0.01912871 0.00367084
v -0.01027036 -0.02495839 0.00367084
v 0.00002119 -0.02700551 0.00367084
v 0.01031273 -0.02495837 0.00367084
v 0.01903747 -0.01912867 0.00367084
v 0.02486715 -0.01040391 0.00367084
v 0.02691426 -0.00011241 0.01113433
v 0.02486714 0.01017913 0.01113433
v 0.00002116 -0.00011241 0.01114250
v 0.01903745 0.01890388 0.01113433
v 0.01031270 0.02473357 0.01113433
v 0.00002116 0.02678069 0.01113433
v -0.01027037 0.02473357 0.01113433
v -0.01899512 0.01890388 0.01113433
v -0.02482482 0.01017912 0.01113433
v -0.02687193 -0.00011241 0.01113433
v -0.02482481 -0.01040396 0.01113433
v -0.01899511 -0.01912871 0.01113433
v -0.01027036 -0.02495839 0.01113433
v 0.00002119 -0.02700551 0.01113433
v 0.01031273 -0.02495837 0.01113433
v 0.01903747 -0.01912867 0.01113433
v 0.02486715 -0.01040391 0.01113433
v 0.02681661 -0.00544482 0.10110593
v 0.02681661 -0.00544482 0.09455020
v 0.02681661 0.00521561 0.10110593
v 0.02681661 0.00521561 0.09455020
v 0.02273702 0.01506462 0.10110593
v 0.02273702 0.01506462 0.09455020
v 0.01519892 0.02260271 0.10110592
v 0.01519884 0.02260259 0.09454984
v 0.00534993 0.02668230 0.09455021
v 0.00534993 0.02668230 0.10110592
v -0.00531056 0.02668230 0.10110592
v -0.00531056 0.02668230 0.09455021
v -0.01515956 0.02260271 0.10110592
v -0.01515956 0.02260271 0.09455021
v -0.02269766 0.01506462 0.10110592
v -0.02269766 0.01506462 0.09455021
v -0.02677724 0.00521561 0.10110592
v -0.02677724 0.00521561 0.09455021
v -0.02677724 -0.00544488 0.10110592
v -0.02677724 -0.00544488 0.09455021
v -0.02269765 -0.01529388 0.10110593
v -0.02269765 -0.01529388 0.09455020
v -0.01515955 -0.02283197 0.10110593
v -0.01515955 -0.02283197 0.09455020
v -0.00531054 -0.02691156 0.10110593
v -0.00531054 -0.02691156 0.09455020
v 0.00534995 -0.02691155 0.10110593
v 0.00534995 -0.02691155 0.09455020
v 0.01519894 -0.02283195 0.10110593
v 0.01519894 -0.02283195 0.09455020
v 0.02273704 -0.01529384 0.10110593
v 0.02273704 -0.01529384 0.09455020
v 0.02637413 0.00512760 0.09409631
v 0.02637414 -0.00535682 0.09409631
v 0.00001968 -0.00011463 0.09408814
v 0.02236191 0.01481399 0.09409631
v 0.01494362 0.02222063 0.09409612
v 0.00526193 0.02623983 0.09409631
v -0.00522254 0.02623983 0.09409631
v -0.01490892 0.02222760 0.09409631
v -0.02232255 0.01481397 0.09409631
v -0.02633478 0.00512759 0.09409631
v -0.02633478 -0.00535687 0.09409631
v -0.02232254 -0.01504324 0.09409631
v -0.01490891 -0.02245686 0.09409631
v -0.00522253 -0.02646909 0.09409631
v 0.00526194 -0.02646908 0.09409631
v 0.01494831 -0.02245684 0.09409631
v 0.02236193 -0.01504319 0.09409631
v 0.02637413 0.00512760 0.10155981
v 0.00001968 -0.00011463 0.10156798
v 0.02637414 -0.00535682 0.10155981
v 0.02236191 0.01481397 0.10155981
v 0.01494827 0.02222760 0.10155981
v 0.00526191 0.02623982 0.10155981
v -0.00522254 0.02623983 0.10155981
v -0.01490892 0.02222760 0.10155981
v -0.02232255 0.01481397 0.10155981
v -0.02633478 0.00512759 0.10155981
v -0.02633478 -0.00535687 0.10155981
v -0.02232254 -0.01504324 0.10155981
v -0.01490891 -0.02245686 0.10155981
v -0.00522253 -0.02646909 0.10155981
v 0.00526194 -0.02646908 0.10155981
v 0.01494831 -0.02245684 0.10155981
v 0.02236193 -0.01504319 0.10155981
v 0.02637164 -0.00013648 0.06909632
v 0.02544217 0.00240936 0.06334220
v 0.02544435 0.00241119 0.06909632
v 0.02636879 -0.00013648 0.06334220
v 0.02309641 0.00376679 0.06909632
v 0.02309592 0.00376398 0.06334220
v 0.02042784 0.00329352 0.06334220
v 0.02042642 0.00329600 0.06909632
v 0.01868371 0.00121912 0.06909632
v 0.01868638 0.00121814 0.06334220
v 0.01868371 -0.00149206 0.06909632
v 0.01868638 -0.00149109 0.06334219
v 0.02042784 -0.00356648 0.06334219
v 0.02042642 -0.00356895 0.06909632
v 0.02309641 -0.00403974 0.06909632
v 0.02309591 -0.00403694 0.06334220
v 0.02544217 -0.00268233 0.06334220
v 0.02544435 -0.00268416 0.06909632
v 0.02523061 -0.00013648 0.08986710
v 0.02422027 0.00138407 0.08540256
v 0.02457028 0.00167776 0.08986710
v 0.02477371 -0.00013648 0.08540256
v 0.02289827 0.00264309 0.08986710
v 0.02281893 0.00219314 0.08540256
v 0.02122538 0.00191215 0.08540256
v 0.02099693 0.00230784 0.08986710
v 0.01975592 0.00082885 0.08986710
v 0.02018526 0.00067259 0.08540256
v 0.01975592 -0.00110181 0.08986710
v 0.02018526 -0.00094555 0.08540256
v 0.02122538 -0.00218511 0.08540256
v 0.02099693 -0.00258080 0.08986710
v 0.02289827 -0.00291605 0.08986710
v 0.02281893 -0.00246609 0.08540256
v 0.02422027 -0.00165703 0.08540256
v 0.02457028 -0.00195072 0.08986710
v 0.02537636 -0.00013648 0.10629233
v 0.02468194 0.00177144 0.10629233
v 0.02316477 0.00049840 0.10681477
v 0.02339585 -0.00013648 0.10681477
v 0.02292358 0.00278662 0.10629233
v 0.02257966 0.00083621 0.10681477
v 0.02092405 0.00243406 0.10629233
v 0.02191431 0.00071889 0.10681477
v 0.01961896 0.00087871 0.10629233
v 0.02148004 0.00020133 0.10681477
v 0.01961896 -0.00115166 0.10629233
v 0.02148004 -0.00047429 0.10681477
v 0.02191431 -0.00099185 0.10681477
v 0.02092405 -0.00270701 0.10629233
v 0.02292357 -0.00305959 0.10629233
v 0.02257966 -0.00110916 0.10681477
v 0.02316477 -0.00077135 0.10681477
v 0.02468193 -0.00204441 0.10629233
v 0.02240815 -0.00013648 0.10697049
v 0.02520151 -0.00013648 0.05593271
v 0.02636685 -0.00013648 0.05461873
v 0.02454798 0.00165906 0.05593271
v 0.02544069 0.00240812 0.05461873
v 0.02309558 0.00376208 0.05461873
v 0.02289322 0.00261444 0.05593271
v 0.02101148 0.00228263 0.05593271
v 0.02042881 0.00329185 0.05461873
v 0.01868820 0.00121748 0.05461873
v 0.01978326 0.00081890 0.05593271
v 0.01868820 -0.00149044 0.05461873
v 0.01978326 -0.00109186 0.05593271
v 0.02042880 -0.00356480 0.05461873
v 0.02101148 -0.00255559 0.05593271
v 0.02309558 -0.00403503 0.05461873
v 0.02289322 -0.00288740 0.05593271
v 0.02454798 -0.00193201 0.05593271
v 0.02544069 -0.00268108 0.05461873
v 0.02636871 -0.00013648 0.05778092
v 0.02544212 0.00240932 0.05778092
v 0.02309590 0.00376391 0.05778092
v 0.02042788 0.00329346 0.05778092
v 0.01868645 0.00121811 0.05778092
v 0.01868645 -0.00149107 0.05778092
v 0.02042788 -0.00356642 0.05778092
v 0.02309590 -0.00403686 0.05778092
v 0.02544212 -0.00268228 0.05778092
v 0.02507942 -0.00013648 0.06125927
v 0.02636772 -0.00013648 0.05957252
v 0.02445446 0.00158057 0.06125927
v 0.02544136 0.00240868 0.05957252
v 0.02309573 0.00376293 0.05957252
v 0.02287202 0.00249420 0.06125927
v 0.02107253 0.00217690 0.06125927
v 0.02042838 0.00329260 0.05957252
v 0.01868738 0.00121777 0.05957252
v 0.01989800 0.00077714 0.06125927
v 0.01868738 -0.00149073 0.05957252
v 0.01989800 -0.00105011 0.06125927
v 0.02107253 -0.00244986 0.06125927
v 0.02042838 -0.00356556 0.05957252
v 0.02309573 -0.00403589 0.05957252
v 0.02287202 -0.00276716 0.06125927
v 0.02445446 -0.00185353 0.06125927
v 0.02544136 -0.00268164 0.05957252
v 0.02582912 -0.00013648 0.07505771
v 0.02502877 0.00206248 0.07505771
v 0.02300220 0.00323251 0.07505771
v 0.02069767 0.00282616 0.07505771
v 0.01919350 0.00103356 0.07505771
v 0.01919350 -0.00130651 0.07505771
v 0.02069767 -0.00309912 0.07505771
v 0.02300220 -0.00350547 0.07505771
v 0.02502877 -0.00233544 0.07505771
v 0.02637014 -0.00013648 0.09259002
v 0.02544321 0.00241024 0.09259002
v 0.02309615 0.00376532 0.09259002
v 0.02042717 0.00329470 0.09259002
v 0.01868511 0.00121860 0.09259002
v 0.01868511 -0.00149156 0.09259002
v 0.02042717 -0.00356766 0.09259002
v 0.02309615 -0.00403828 0.09259002
v 0.02544321 -0.00268320 0.09259002
v 0.02637004 -0.00013648 0.10401507
v 0.02544313 0.00241018 0.10401507
v 0.02309613 0.00376521 0.10401507
v 0.02042721 0.00329462 0.10401507
v 0.01868521 0.00121857 0.10401507
v 0.01868520 -0.00149153 0.10401507
v 0.02042721 -0.00356757 0.10401506
v 0.02309613 -0.00403818 0.10401507
v 0.02544313 -0.00268313 0.10401507
v 0.02636685 -0.00013648 0.05235176
v 0.02544069 0.00240812 0.05235176
v 0.02309558 0.00376208 0.05235176
v 0.02042881 0.00329185 0.05235176
v 0.01868820 0.00121748 0.05235176
v 0.01868820 -0.00149044 0.05235176
v 0.02544069 -0.00268108 0.05235176
v 0.02636879 -0.00013648 0.04362830
v 0.02637164 -0.00013648 0.03787417
v 0.02544217 0.00240936 0.04362830
v 0.02544435 0.00241119 0.03787417
v 0.02309641 0.00376679 0.03787417
v 0.02309592 0.00376398 0.04362830
v 0.02042784 0.00329352 0.04362830
v 0.02042642 0.00329600 0.03787417
v 0.01868371 0.00121912 0.03787417
v 0.01868638 0.00121814 0.04362830
v 0.01868371 -0.00149206 0.03787417
v 0.01868638 -0.00149109 0.04362830
v 0.02042784 -0.00356648 0.04362830
v 0.02042642 -0.00356895 0.03787417
v 0.02309641 -0.00403974 0.03787417
v 0.02309591 -0.00403694 0.04362830
v 0.02544217 -0.00268233 0.04362830
v 0.02544435 -0.00268416 0.03787417
v 0.02477371 -0.00013648 0.02156793
v 0.02523061 -0.00013648 0.01710340
v 0.02422027 0.00138407 0.02156793
v 0.02457028 0.00167776 0.01710340
v 0.02289827 0.00264309 0.01710340
v 0.02281893 0.00219314 0.02156793
v 0.02122538 0.00191215 0.02156793
v 0.02099693 0.00230784 0.01710340
v 0.01975592 0.00082885 0.01710340
v 0.02018526 0.00067259 0.02156793
v 0.01975592 -0.00110181 0.01710340
v 0.02018526 -0.00094555 0.02156793
v 0.02122538 -0.00218511 0.02156793
v 0.02099693 -0.00258080 0.01710340
v 0.02289827 -0.00291605 0.01710340
v 0.02281893 -0.00246609 0.02156793
v 0.02422027 -0.00165703 0.02156793
v 0.02457028 -0.00195072 0.01710340
v 0.02316477 0.00049840 0.00015572
v 0.02537636 -0.00013648 0.00067816
v 0.02339585 -0.00013648 0.00015572
v 0.02468194 0.00177144 0.00067816
v 0.02292358 0.00278662 0.00067816
v 0.02257966 0.00083621 0.00015572
v 0.02092405 0.00243406 0.00067816
v 0.02191431 0.00071889 0.00015572
v 0.01961896 0.00087871 0.00067816
v 0.02148004 0.00020133 0.00015572
v 0.01961896 -0.00115166 0.00067816
v 0.02148004 -0.00047429 0.00015572
v 0.02191431 -0.00099185 0.00015572
v 0.02092405 -0.00270701 0.00067816
v 0.02257966 -0.00110916 0.00015572
v 0.02292357 -0.00305959 0.00067816
v 0.02316477 -0.00077135 0.00015572
v 0.02468193 -0.00204441 0.00067816
v 0.02240815 -0.00013648 0.00000000
v 0.02454798 0.00165906 0.05103779
v 0.02520151 -0.00013648 0.05103779
v 0.02289322 0.00261444 0.05103779
v 0.02101148 0.00228263 0.05103779
v 0.01978326 0.00081890 0.05103779
v 0.01978326 -0.00109186 0.05103779
v 0.02042880 -0.00356480 0.05235176
v 0.02101148 -0.00255559 0.05103779
v 0.02309558 -0.00403503 0.05235176
v 0.02289322 -0.00288740 0.05103779
v 0.02454798 -0.00193201 0.05103779
v 0.02636871 -0.00013648 0.04918957
v 0.02544212 0.00240932 0.04918957
v 0.02309590 0.00376391 0.04918957
v 0.02042788 0.00329346 0.04918957
v 0.01868645 0.00121811 0.04918957
v 0.01868645 -0.00149107 0.04918957
v 0.02042788 -0.00356642 0.04918957
v 0.02309590 -0.00403686 0.04918957
v 0.02544212 -0.00268228 0.04918957
v 0.02544136 0.00240868 0.04739798
v 0.02636772 -0.00013648 0.04739798
v 0.02445446 0.00158057 0.04571122
v 0.02507942 -0.00013648 0.04571122
v 0.02309573 0.00376293 0.04739798
v 0.02287202 0.00249420 0.04571122
v 0.02042838 0.00329260 0.04739798
v 0.02107253 0.00217690 0.04571122
v 0.01868738 0.00121777 0.04739798
v 0.01989800 0.00077714 0.04571122
v 0.01868738 -0.00149073 0.04739798
v 0.01989800 -0.00105011 0.04571122
v 0.02042838 -0.00356556 0.04739798
v 0.02107253 -0.00244986 0.04571122
v 0.02309573 -0.00403589 0.04739798
v 0.02287202 -0.00276716 0.04571122
v 0.02544136 -0.00268164 0.04739798
v 0.02445446 -0.00185353 0.04571122
v 0.02502877 0.00206248 0.03191278
v 0.02582912 -0.00013648 0.03191278
v 0.02300220 0.00323251 0.03191278
v 0.02069767 0.00282616 0.03191278
v 0.01919350 0.00103356 0.03191278
v 0.01919350 -0.00130651 0.03191278
v 0.02069767 -0.00309912 0.03191278
v 0.02300220 -0.00350547 0.03191278
v 0.02502877 -0.00233544 0.03191278
v 0.02637014 -0.00013648 0.01438047
v 0.02544321 0.00241024 0.01438047
v 0.02309615 0.00376532 0.01438047
v 0.02042717 0.00329470 0.01438047
v 0.01868511 0.00121860 0.01438047
v 0.01868511 -0.00149156 0.01438047
v 0.02042717 -0.00356766 0.01438047
v 0.02309615 -0.00403828 0.01438047
v 0.02544321 -0.00268320 0.01438047
v 0.02544313 0.00241018 0.00295543
v 0.02637004 -0.00013648 0.00295543
v 0.02309613 0.00376521 0.00295543
v 0.02042721 0.00329462 0.00295543
v 0.01868521 0.00121857 0.00295543
v 0.01868520 -0.00149153 0.00295543
v 0.02042721 -0.00356757 0.00295543
v 0.02309613 -0.00403818 0.00295543
v 0.02544313 -0.00268313 0.00295543
v -0.01183974 0.02319060 0.06909632
v -0.01418550 0.02183318 0.06334220
v -0.01418770 0.02183501 0.06909632
v -0.01183925 0.02318779 0.06334219
v -0.01511497 0.01928734 0.06909632
v -0.01511212 0.01928734 0.06334219
v -0.01418551 0.01674149 0.06334220
v -0.01418769 0.01673966 0.06909632
v -0.01183974 0.01538406 0.06909632
v -0.01183925 0.01538688 0.06334220
v -0.00917117 0.01585733 0.06334220
v -0.00916975 0.01585485 0.06909632
v -0.00742704 0.01793174 0.06909632
v -0.00742972 0.01793272 0.06334220
v -0.00742972 0.02064195 0.06334220
v -0.00742704 0.02064292 0.06909632
v -0.00917117 0.02271733 0.06334219
v -0.00916975 0.02271980 0.06909632
v -0.01164160 0.02206691 0.08986710
v -0.01296362 0.02080788 0.08540256
v -0.01331361 0.02110157 0.08986710
v -0.01156227 0.02161695 0.08540256
v -0.01397394 0.01928734 0.08986710
v -0.01351704 0.01928733 0.08540256
v -0.01296361 0.01776678 0.08540256
v -0.01331361 0.01747310 0.08986710
v -0.01164160 0.01650776 0.08986710
v -0.01156227 0.01695771 0.08540256
v -0.00996872 0.01723871 0.08540256
v -0.00974026 0.01684302 0.08986710
v -0.00849926 0.01832200 0.08986710
v -0.00892859 0.01847827 0.08540256
v -0.00892859 0.02009640 0.08540256
v -0.00849926 0.02025267 0.08986710
v -0.00996871 0.02133596 0.08540256
v -0.00974026 0.02173165 0.08986710
v -0.01342527 0.02119526 0.10629233
v -0.01190810 0.01992220 0.10681477
v -0.01166691 0.02221044 0.10629233
v -0.01132301 0.02026002 0.10681477
v -0.01213918 0.01928734 0.10681477
v -0.01411969 0.01928734 0.10629233
v -0.01342527 0.01737941 0.10629233
v -0.01190810 0.01865245 0.10681477
v -0.01166692 0.01636423 0.10629233
v -0.01132301 0.01831464 0.10681477
v -0.01065765 0.01843197 0.10681477
v -0.00966740 0.01671679 0.10629233
v -0.00836230 0.01827214 0.10629233
v -0.01022337 0.01894952 0.10681477
v -0.01022337 0.01962514 0.10681477
v -0.00836230 0.02030251 0.10629233
v -0.00966739 0.02185786 0.10629233
v -0.01065765 0.02014270 0.10681477
v -0.01115149 0.01928734 0.10697049
v -0.01163655 0.02203824 0.05593271
v -0.01183891 0.02318588 0.05461873
v -0.01329133 0.02108286 0.05593271
v -0.01418403 0.02183193 0.05461873
v -0.01511019 0.01928734 0.05461873
v -0.01394484 0.01928734 0.05593271
v -0.01329133 0.01749180 0.05593271
v -0.01418403 0.01674273 0.05461873
v -0.01183891 0.01538878 0.05461873
v -0.01163655 0.01653642 0.05593271
v -0.00975482 0.01686822 0.05593271
v -0.00917215 0.01585900 0.05461873
v -0.00743154 0.01793338 0.05461873
v -0.00852661 0.01833195 0.05593271
v -0.00743154 0.02064128 0.05461873
v -0.00852661 0.02024272 0.05593271
v -0.00975482 0.02170645 0.05593271
v -0.00917215 0.02271566 0.05461873
v -0.01183923 0.02318771 0.05778092
v -0.01418545 0.02183313 0.05778092
v -0.01511205 0.01928734 0.05778092
v -0.01418545 0.01674154 0.05778092
v -0.01183924 0.01538695 0.05778092
v -0.00917122 0.01585739 0.05778092
v -0.00742979 0.01793274 0.05778092
v -0.00742979 0.02064193 0.05778092
v -0.00917121 0.02271727 0.05778092
v -0.01161535 0.02191801 0.06125927
v -0.01183906 0.02318674 0.05957252
v -0.01319780 0.02100439 0.06125927
v -0.01418469 0.02183249 0.05957252
v -0.01511105 0.01928734 0.05957252
v -0.01382275 0.01928733 0.06125927
v -0.01319780 0.01757028 0.06125927
v -0.01418469 0.01674217 0.05957252
v -0.01183906 0.01538793 0.05957252
v -0.01161535 0.01665666 0.06125927
v -0.00981586 0.01697396 0.06125927
v -0.00917171 0.01585825 0.05957252
v -0.00743072 0.01793308 0.05957252
v -0.00864133 0.01837371 0.06125927
v -0.00864133 0.02020096 0.06125927
v -0.00743072 0.02064158 0.05957252
v -0.00981586 0.02160071 0.06125927
v -0.00917171 0.02271641 0.05957252
v -0.01174553 0.02265633 0.07505771
v -0.01377210 0.02148628 0.07505771
v -0.01457246 0.01928734 0.07505771
v -0.01377210 0.01708838 0.07505771
v -0.01174554 0.01591834 0.07505771
v -0.00944101 0.01632469 0.07505771
v -0.00793683 0.01811729 0.07505771
v -0.00793683 0.02045737 0.07505771
v -0.00944101 0.02224998 0.07505771
v -0.01183949 0.02318913 0.09259002
v -0.01418655 0.02183405 0.09259002
v -0.01511348 0.01928734 0.09259002
v -0.01418655 0.01674061 0.09259002
v -0.01183949 0.01538554 0.09259002
v -0.00917050 0.01585615 0.09259002
v -0.00742844 0.01793225 0.09259002
v -0.00742844 0.02064241 0.09259002
v -0.00917050 0.02271851 0.09259002
v -0.01183946 0.02318903 0.10401507
v -0.01418648 0.02183398 0.10401507
v -0.01511338 0.01928734 0.10401507
v -0.01418647 0.01674069 0.10401507
v -0.01183946 0.01538564 0.10401507
v -0.00917055 0.01585623 0.10401507
v -0.00742854 0.01793228 0.10401507
v -0.00742854 0.02064238 0.10401507
v -0.00917054 0.02271842 0.10401507
v -0.01418403 0.02183193 0.05235176
v -0.01183891 0.02318588 0.05235176
v -0.01418403 0.01674273 0.05235176
v -0.01183891 0.01538878 0.05235176
v -0.00917215 0.01585900 0.05235176
v -0.00743154 0.01793338 0.05235176
v -0.00743154 0.02064128 0.05235176
v -0.01183925 0.02318779 0.04362830
v -0.01183974 0.02319060 0.03787417
v -0.01418550 0.02183318 0.04362830
v -0.01418770 0.02183501 0.03787417
v -0.01511497 0.01928734 0.03787417
v -0.01511212 0.01928734 0.04362830
v -0.01418551 0.01674149 0.04362830
v -0.01418769 0.01673966 0.03787417
v -0.01183974 0.01538406 0.03787417
v -0.01183925 0.01538688 0.04362830
v -0.00917117 0.01585733 0.04362830
v -0.00916975 0.01585485 0.03787417
v -0.00742704 0.01793174 0.03787417
v -0.00742972 0.01793272 0.04362830
v -0.00742972 0.02064195 0.04362830
v -0.00742704 0.02064292 0.03787417
v -0.00917117 0.02271733 0.04362830
v -0.00916975 0.02271980 0.03787417
v -0.01156227 0.02161695 0.02156793
v -0.01164160 0.02206691 0.01710340
v -0.01296362 0.02080788 0.02156793
v -0.01331361 0.02110157 0.01710340
v -0.01397394 0.01928734 0.01710340
v -0.01351704 0.01928733 0.02156793
v -0.01296361 0.01776678 0.02156793
v -0.01331361 0.01747310 0.01710340
v -0.01164160 0.01650776 0.01710340
v -0.01156227 0.01695771 0.02156793
v -0.00996872 0.01723871 0.02156793
v -0.00974026 0.01684302 0.01710340
v -0.00849926 0.01832200 0.01710340
v -0.00892859 0.01847827 0.02156793
v -0.00892859 0.02009640 0.02156793
v -0.00849926 0.02025267 0.01710340
v -0.00996871 0.02133596 0.02156793
v -0.00974026 0.02173165 0.01710340
v -0.01190810 0.01992220 0.00015572
v -0.01166691 0.02221044 0.00067816
v -0.01132301 0.02026002 0.00015572
v -0.01342527 0.02119526 0.00067816
v -0.01213918 0.01928734 0.00015572
v -0.01411969 0.01928734 0.00067816
v -0.01342527 0.01737941 0.00067816
v -0.01190810 0.01865245 0.00015572
v -0.01166692 0.01636423 0.00067816
v -0.01132301 0.01831464 0.00015572
v -0.01065765 0.01843197 0.00015572
v -0.00966740 0.01671679 0.00067816
v -0.01022337 0.01894952 0.00015572
v -0.00836230 0.01827214 0.00067816
v -0.01022337 0.01962514 0.00015572
v -0.00836230 0.02030251 0.00067816
v -0.00966739 0.02185786 0.00067816
v -0.01065765 0.02014270 0.00015572
v -0.01115149 0.01928734 0.00000000
v -0.01329133 0.02108286 0.05103779
v -0.01163655 0.02203824 0.05103779
v -0.01511019 0.01928734 0.05235176
v -0.01394484 0.01928734 0.05103779
v -0.01329133 0.01749180 0.05103779
v -0.01163655 0.01653642 0.05103779
v -0.00975482 0.01686822 0.05103779
v -0.00852661 0.01833195 0.05103779
v -0.00852661 0.02024272 0.05103779
v -0.00917215 0.02271566 0.05235176
v -0.00975482 0.02170645 0.05103779
v -0.01183923 0.02318771 0.04918957
v -0.01418545 0.02183313 0.04918957
v -0.01511205 0.01928734 0.04918957
v -0.01418545 0.01674154 0.04918957
v -0.01183924 0.01538695 0.04918957
v -0.00917122 0.01585739 0.04918957
v -0.00742979 0.01793274 0.04918957
v -0.00742979 0.02064193 0.04918957
v -0.00917121 0.02271727 0.04918957
v -0.01418469 0.02183249 0.04739798
v -0.01183906 0.02318674 0.04739798
v -0.01319780 0.02100439 0.04571122
v -0.01161535 0.02191801 0.04571122
v -0.01511105 0.01928734 0.04739798
v -0.01382275 0.01928733 0.04571122
v -0.01418469 0.01674217 0.04739798
v -0.01319780 0.01757028 0.04571122
v -0.01183906 0.01538793 0.04739798
v -0.01161535 0.01665666 0.04571122
v -0.00917171 0.01585825 0.04739798
v -0.00981586 0.01697396 0.04571122
v -0.00743072 0.01793308 0.04739798
v -0.00864133 0.01837371 0.04571122
v -0.00743072 0.02064158 0.04739798
v -0.00864133 0.02020096 0.04571122
v -0.00917171 0.02271641 0.04739798
v -0.00981586 0.02160071 0.04571122
v -0.01377210 0.02148628 0.03191278
v -0.01174553 0.02265633 0.03191278
v -0.01457246 0.01928734 0.03191278
v -0.01377210 0.01708838 0.03191278
v -0.01174554 0.01591834 0.03191278
v -0.00944101 0.01632469 0.03191278
v -0.00793683 0.01811729 0.03191278
v -0.00793683 0.02045737 0.03191278
v -0.00944101 0.02224998 0.03191278
v -0.01183949 0.02318913 0.01438047
v -0.01418655 0.02183405 0.01438047
v -0.01511348 0.01928734 0.01438047
v -0.01418655 0.01674061 0.01438047
v -0.01183949 0.01538554 0.01438047
v -0.00917050 0.01585615 0.01438047
v -0.00742844 0.01793225 0.01438047
v -0.00742844 0.02064241 0.01438047
v -0.00917050 0.02271851 0.01438047
v -0.01418648 0.02183398 0.00295543
v -0.01183946 0.02318903 0.00295543
v -0.01511338 0.01928734 0.00295543
v -0.01418647 0.01674069 0.00295543
v -0.01183946 0.01538564 0.00295543
v -0.00917055 0.01585623 0.00295543
v -0.00742854 0.01793228 0.00295543
v -0.00742854 0.02064238 0.00295543
v -0.00917054 0.02271842 0.00295543
v -0.01188143 -0.02339134 0.06909632
v -0.01422720 -0.02203392 0.06334219
v -0.01188094 -0.02338854 0.06334219
v -0.01422938 -0.02203575 0.06909632
v -0.00921286 -0.02291808 0.06334219
v -0.00921144 -0.02292056 0.06909632
v -0.00746873 -0.02084366 0.06909632
v -0.00747140 -0.02084269 0.06334219
v -0.00747140 -0.01813346 0.06334220
v -0.00746873 -0.01813249 0.06909632
v -0.00921286 -0.01605808 0.06334220
v -0.00921144 -0.01605561 0.06909632
v -0.01188143 -0.01558482 0.06909632
v -0.01188094 -0.01558762 0.06334220
v -0.01422720 -0.01694224 0.06334220
v -0.01422937 -0.01694041 0.06909632
v -0.01515666 -0.01948808 0.06909632
v -0.01515381 -0.01948808 0.06334220
v -0.01168330 -0.02226765 0.08986710
v -0.01300530 -0.02100863 0.08540256
v -0.01160396 -0.02181770 0.08540256
v -0.01335530 -0.02130232 0.08986710
v -0.01001040 -0.02153671 0.08540256
v -0.00978195 -0.02193240 0.08986710
v -0.00854094 -0.02045341 0.08986710
v -0.00897028 -0.02029715 0.08540256
v -0.00897028 -0.01867901 0.08540256
v -0.00854094 -0.01852275 0.08986710
v -0.01001041 -0.01743945 0.08540256
v -0.00978195 -0.01704376 0.08986710
v -0.01168330 -0.01670851 0.08986710
v -0.01160396 -0.01715847 0.08540256
v -0.01300529 -0.01796754 0.08540256
v -0.01335530 -0.01767384 0.08986710
v -0.01401563 -0.01948808 0.08986710
v -0.01355873 -0.01948808 0.08540256
v -0.01170860 -0.02241119 0.10629233
v -0.01194979 -0.02012296 0.10681477
v -0.01346696 -0.02139600 0.10629233
v -0.01136469 -0.02046076 0.10681477
v -0.01069934 -0.02034345 0.10681477
v -0.00970908 -0.02205862 0.10629233
v -0.00840398 -0.02050327 0.10629233
v -0.01026506 -0.01982589 0.10681477
v -0.01026506 -0.01915027 0.10681477
v -0.00840398 -0.01847290 0.10629233
v -0.00970908 -0.01691755 0.10629233
v -0.01069934 -0.01863271 0.10681477
v -0.01170860 -0.01656497 0.10629233
v -0.01136469 -0.01851540 0.10681477
v -0.01194979 -0.01885321 0.10681477
v -0.01346696 -0.01758015 0.10629233
v -0.01218087 -0.01948808 0.10681477
v -0.01416138 -0.01948808 0.10629233
v -0.01119318 -0.01948808 0.10697049
v -0.01333301 -0.02128362 0.05593271
v -0.01188060 -0.02338663 0.05461873
v -0.01167824 -0.02223900 0.05593271
v -0.01422571 -0.02203268 0.05461873
v -0.00979650 -0.02190719 0.05593271
v -0.00921383 -0.02291640 0.05461873
v -0.00747322 -0.02084203 0.05461873
v -0.00856829 -0.02044346 0.05593271
v -0.00856829 -0.01853270 0.05593271
v -0.00747322 -0.01813412 0.05461873
v -0.00979650 -0.01706897 0.05593271
v -0.00921383 -0.01605975 0.05461873
v -0.01188060 -0.01558953 0.05461873
v -0.01167824 -0.01673716 0.05593271
v -0.01333301 -0.01769255 0.05593271
v -0.01422571 -0.01694348 0.05461873
v -0.01515187 -0.01948808 0.05461873
v -0.01398653 -0.01948808 0.05593271
v -0.01422714 -0.02203387 0.05778092
v -0.01188092 -0.02338847 0.05778092
v -0.00921290 -0.02291802 0.05778092
v -0.00747148 -0.02084267 0.05778092
v -0.00747148 -0.01813349 0.05778092
v -0.00921290 -0.01605814 0.05778092
v -0.01188093 -0.01558770 0.05778092
v -0.01422714 -0.01694228 0.05778092
v -0.01515374 -0.01948808 0.05778092
v -0.01323948 -0.02120513 0.06125927
v -0.01188075 -0.02338749 0.05957252
v -0.01165704 -0.02211876 0.06125927
v -0.01422639 -0.02203324 0.05957252
v -0.00985755 -0.02180146 0.06125927
v -0.00921340 -0.02291716 0.05957252
v -0.00747241 -0.02084233 0.05957252
v -0.00868302 -0.02040170 0.06125927
v -0.00868302 -0.01857446 0.06125927
v -0.00747241 -0.01813383 0.05957252
v -0.00985755 -0.01717470 0.06125927
v -0.00921340 -0.01605900 0.05957252
v -0.01188075 -0.01558867 0.05957252
v -0.01165704 -0.01685740 0.06125927
v -0.01323948 -0.01777103 0.06125927
v -0.01422638 -0.01694293 0.05957252
v -0.01515274 -0.01948808 0.05957252
v -0.01386444 -0.01948808 0.06125927
v -0.01178723 -0.02285707 0.07505771
v -0.00948269 -0.02245072 0.07505771
v -0.00797853 -0.02065812 0.07505771
v -0.00797853 -0.01831805 0.07505771
v -0.00948269 -0.01652544 0.07505771
v -0.01178722 -0.01611909 0.07505771
v -0.01381379 -0.01728912 0.07505771
v -0.01461415 -0.01948808 0.07505771
v -0.01381379 -0.02168703 0.07505771
v -0.01422824 -0.02203479 0.09259002
v -0.01188117 -0.02338988 0.09259002
v -0.00921219 -0.02291926 0.09259002
v -0.00747013 -0.02084316 0.09259002
v -0.00747013 -0.01813300 0.09259002
v -0.00921219 -0.01605690 0.09259002
v -0.01188117 -0.01558628 0.09259002
v -0.01422824 -0.01694136 0.09259002
v -0.01515517 -0.01948808 0.09259002
v -0.01422816 -0.02203472 0.10401507
v -0.01188115 -0.02338977 0.10401507
v -0.00921224 -0.02291918 0.10401507
v -0.00747023 -0.02084312 0.10401507
v -0.00747023 -0.01813303 0.10401507
v -0.00921224 -0.01605699 0.10401507
v -0.01188115 -0.01558639 0.10401507
v -0.01422816 -0.01694143 0.10401507
v -0.01515506 -0.01948808 0.10401507
v -0.01188060 -0.02338663 0.05235176
v -0.01422571 -0.02203268 0.05235176
v -0.00747322 -0.02084203 0.05235176
v -0.00747322 -0.01813412 0.05235176
v -0.00921383 -0.01605975 0.05235176
v -0.01188060 -0.01558953 0.05235176
v -0.01422571 -0.01694348 0.05235176
v -0.01422720 -0.02203392 0.04362830
v -0.01188143 -0.02339134 0.03787417
v -0.01188094 -0.02338854 0.04362830
v -0.01422938 -0.02203575 0.03787417
v -0.00921286 -0.02291808 0.04362830
v -0.00921144 -0.02292056 0.03787417
v -0.00746873 -0.02084366 0.03787417
v -0.00747140 -0.02084269 0.04362830
v -0.00747140 -0.01813346 0.04362830
v -0.00746873 -0.01813249 0.03787417
v -0.00921286 -0.01605808 0.04362830
v -0.00921144 -0.01605561 0.03787417
v -0.01188143 -0.01558482 0.03787417
v -0.01188094 -0.01558762 0.04362830
v -0.01422720 -0.01694224 0.04362830
v -0.01422937 -0.01694041 0.03787417
v -0.01515666 -0.01948808 0.03787417
v -0.01515381 -0.01948808 0.04362830
v -0.01300530 -0.02100863 0.02156793
v -0.01168330 -0.02226765 0.01710340
v -0.01160396 -0.02181770 0.02156793
v -0.01335530 -0.02130232 0.01710340
v -0.01001040 -0.02153671 0.02156793
v -0.00978195 -0.02193240 0.01710340
v -0.00854094 -0.02045341 0.01710340
v -0.00897028 -0.02029715 0.02156793
v -0.00897028 -0.01867901 0.02156793
v -0.00854094 -0.01852275 0.01710340
v -0.01001041 -0.01743945 0.02156793
v -0.00978195 -0.01704376 0.01710340
v -0.01168330 -0.01670851 0.01710340
v -0.01160396 -0.01715847 0.02156793
v -0.01300529 -0.01796754 0.02156793
v -0.01335530 -0.01767384 0.01710340
v -0.01401563 -0.01948808 0.01710340
v -0.01355873 -0.01948808 0.02156793
v -0.01194979 -0.02012296 0.00015572
v -0.01170860 -0.02241119 0.00067816
v -0.01346696 -0.02139600 0.00067816
v -0.01136469 -0.02046076 0.00015572
v -0.01069934 -0.02034345 0.00015572
v -0.00970908 -0.02205862 0.00067816
v -0.01026506 -0.01982589 0.00015572
v -0.00840398 -0.02050327 0.00067816
v -0.01026506 -0.01915027 0.00015572
v -0.00840398 -0.01847290 0.00067816
v -0.00970908 -0.01691755 0.00067816
v -0.01069934 -0.01863271 0.00015572
v -0.01170860 -0.01656497 0.00067816
v -0.01136469 -0.01851540 0.00015572
v -0.01194979 -0.01885321 0.00015572
v -0.01346696 -0.01758015 0.00067816
v -0.01218087 -0.01948808 0.00015572
v -0.01416138 -0.01948808 0.00067816
v -0.01119318 -0.01948808 0.00000000
v -0.01333301 -0.02128362 0.05103779
v -0.01167824 -0.02223900 0.05103779
v -0.00921383 -0.02291640 0.05235176
v -0.00979650 -0.02190719 0.05103779
v -0.00856829 -0.02044346 0.05103779
v -0.00856829 -0.01853270 0.05103779
v -0.00979650 -0.01706897 0.05103779
v -0.01167824 -0.01673716 0.05103779
v -0.01333301 -0.01769255 0.05103779
v -0.01515187 -0.01948808 0.05235176
v -0.01398653 -0.01948808 0.05103779
v -0.01188092 -0.02338847 0.04918957
v -0.01422714 -0.02203387 0.04918957
v -0.00921290 -0.02291802 0.04918957
v -0.00747148 -0.02084267 0.04918957
v -0.00747148 -0.01813349 0.04918957
v -0.00921290 -0.01605814 0.04918957
v -0.01188093 -0.01558770 0.04918957
v -0.01422714 -0.01694228 0.04918957
v -0.01515374 -0.01948808 0.04918957
v -0.01323948 -0.02120513 0.04571122
v -0.01188075 -0.02338749 0.04739798
v -0.01422639 -0.02203324 0.04739798
v -0.01165704 -0.02211876 0.04571122
v -0.00921340 -0.02291716 0.04739798
v -0.00985755 -0.02180146 0.04571122
v -0.00747241 -0.02084233 0.04739798
v -0.00868302 -0.02040170 0.04571122
v -0.00747241 -0.01813383 0.04739798
v -0.00868302 -0.01857446 0.04571122
v -0.00921340 -0.01605900 0.04739798
v -0.00985755 -0.01717470 0.04571122
v -0.01188075 -0.01558867 0.04739798
v -0.01165704 -0.01685740 0.04571122
v -0.01422638 -0.01694293 0.04739798
v -0.01323948 -0.01777103 0.04571122
v -0.01515274 -0.01948808 0.04739798
v -0.01386444 -0.01948808 0.04571122
v -0.01381379 -0.02168703 0.03191278
v -0.01178723 -0.02285707 0.03191278
v -0.00948269 -0.02245072 0.03191278
v -0.00797853 -0.02065812 0.03191278
v -0.00797853 -0.01831805 0.03191278
v -0.00948269 -0.01652544 0.03191278
v -0.01178722 -0.01611909 0.03191278
v -0.01381379 -0.01728912 0.03191278
v -0.01461415 -0.01948808 0.03191278
v -0.01188117 -0.02338988 0.01438047
v -0.01422824 -0.02203479 0.01438047
v -0.00921219 -0.02291926 0.01438047
v -0.00747013 -0.02084316 0.01438047
v -0.00747013 -0.01813300 0.01438047
v -0.00921219 -0.01605690 0.01438047
v -0.01188117 -0.01558628 0.01438047
v -0.01422824 -0.01694136 0.01438047
v -0.01515517 -0.01948808 0.01438047
v -0.01422816 -0.02203472 0.00295543
v -0.01188115 -0.02338977 0.00295543
v -0.00921224 -0.02291918 0.00295543
v -0.00747023 -0.02084312 0.00295543
v -0.00747023 -0.01813303 0.00295543
v -0.00921224 -0.01605699 0.00295543
v -0.01188115 -0.01558639 0.00295543
v -0.01422816 -0.01694143 0.00295543
v -0.01515506 -0.01948808 0.00295543
v 0.00922215 0.00002040 0.01613296
v 0.00596354 0.00217971 0.01304393
v 0.00866751 0.00316586 0.01613226
v 0.00634450 0.00001917 0.01304463
v 0.00486662 0.00407964 0.01304301
v 0.00707053 0.00593192 0.01613133
v 0.00318602 0.00548984 0.01304196
v 0.00462380 0.00798496 0.01613028
v 0.00162245 0.00907737 0.01612923
v 0.00112446 0.00624019 0.01304092
v -0.00106940 0.00624019 0.01304002
v -0.00157152 0.00907737 0.01612832
v -0.00313097 0.00548984 0.01303934
v -0.00457287 0.00798496 0.01612765
v -0.00481157 0.00407965 0.01303900
v -0.00701960 0.00593192 0.01612731
v -0.00861658 0.00316585 0.01612732
v -0.00590850 0.00217971 0.01303901
v -0.00917121 0.00002042 0.01612770
v -0.00628946 0.00001917 0.01303939
v -0.00590850 -0.00214136 0.01304009
v -0.00861658 -0.00312504 0.01612840
v -0.00701961 -0.00589110 0.01612933
v -0.00481157 -0.00404130 0.01304101
v -0.00313097 -0.00545149 0.01304206
v -0.00457288 -0.00794415 0.01613038
v -0.00157153 -0.00903655 0.01613143
v -0.00106941 -0.00620184 0.01304311
v 0.00162244 -0.00903656 0.01613234
v 0.00112445 -0.00620184 0.01304402
v 0.00318601 -0.00545149 0.01304468
v 0.00462380 -0.00794415 0.01613301
v 0.00707053 -0.00589111 0.01613336
v 0.00486661 -0.00404130 0.01304502
v 0.00596354 -0.00214136 0.01304501
v 0.00866751 -0.00312505 0.01613334
v 0.01105852 0.00002165 0.01800667
v 0.01039303 0.00379588 0.01800606
v 0.00847680 0.00711488 0.01800525
v 0.00554096 0.00957834 0.01800433
v 0.00193963 0.01088910 0.01800342
v -0.00189283 0.01088910 0.01800263
v -0.00549415 0.00957833 0.01800204
v -0.00842997 0.00711487 0.01800174
v -0.01034620 0.00379588 0.01800177
v -0.01101170 0.00002165 0.01800210
v -0.01034622 -0.00375259 0.01800270
v -0.00842998 -0.00707159 0.01800351
v -0.00549416 -0.00953505 0.01800442
v -0.00189283 -0.01084583 0.01800533
v 0.00193962 -0.01084584 0.01800613
v 0.00554096 -0.00953506 0.01800671
v 0.00847680 -0.00707161 0.01800701
v 0.01039303 -0.00375260 0.01800700
v 0.01305559 0.00002289 0.02181825
v 0.01226954 0.00448086 0.02181755
v 0.01000616 0.00840115 0.02181662
v 0.00653847 0.01131090 0.02181557
v 0.00228471 0.01285913 0.02181452
v -0.00224205 0.01285914 0.02181361
v -0.00649580 0.01131090 0.02181292
v -0.00996350 0.00840116 0.02181258
v -0.01222687 0.00448087 0.02181260
v -0.01301293 0.00002289 0.02181298
v -0.01222688 -0.00443510 0.02181368
v -0.00996350 -0.00835538 0.02181460
v -0.00649581 -0.01126512 0.02181566
v -0.00224206 -0.01281337 0.02181671
v 0.00228471 -0.01281337 0.02181763
v 0.00653846 -0.01126513 0.02181830
v 0.01000616 -0.00835539 0.02181865
v 0.01226953 -0.00443511 0.02181863
v 0.00001721 0.00002536 0.03078110
v 0.00252357 0.00092765 0.01193753
v 0.00268376 0.00001916 0.01193787
v 0.00206233 0.00172655 0.01193707
v 0.00135566 0.00231952 0.01193655
v 0.00048879 0.00263505 0.01193602
v -0.00043371 0.00263505 0.01193557
v -0.00130059 0.00231954 0.01193523
v -0.00200727 0.00172656 0.01193506
v -0.00246851 0.00092765 0.01193507
v -0.00262870 0.00001916 0.01193526
v -0.00246851 -0.00088932 0.01193560
v -0.00200726 -0.00168822 0.01193606
v -0.00130059 -0.00228120 0.01193659
v -0.00043371 -0.00259671 0.01193711
v 0.00048879 -0.00259671 0.01193756
v 0.00135565 -0.00228120 0.01193789
v 0.00206232 -0.00168822 0.01193808
v 0.00252357 -0.00088932 0.01193806
v 0.00002754 0.00001916 0.01193542
v 0.00471143 -0.00808887 0.06723000
v 0.00720262 -0.00599852 0.06723105
v 0.00002953 0.00002042 0.06727874
v -0.00933425 0.00002042 0.06722742
v -0.00876955 0.00322302 0.06722811
v 0.00003780 0.00002537 0.05260103
v -0.00714354 0.00603934 0.06722904
v -0.00465236 0.00812970 0.06723010
v -0.00159647 0.00924194 0.06723115
v 0.00165554 0.00924194 0.06723206
v 0.00471143 0.00812969 0.06723273
v 0.00720261 0.00603934 0.06723309
v 0.00882861 0.00322302 0.06723306
v 0.00939333 0.00002042 0.06723269
v 0.00882862 -0.00318219 0.06723198
v 0.00165555 -0.00920112 0.06722895
v -0.00159646 -0.00920112 0.06722804
v -0.00465236 -0.00808887 0.06722736
v -0.00714354 -0.00599853 0.06722702
v -0.00876955 -0.00318220 0.06722703
v 0.00010719 0.00000674 0.06722914
v 0.00071150 -0.00019987 0.05600806
v -0.00075928 -0.00019987 0.02824225
v 0.00071150 -0.00019987 0.02824225
v -0.00075928 -0.00019987 0.05600806
v -0.00006630 0.00066804 0.05600806
v -0.00006630 -0.00080274 0.02824225
v -0.00006630 -0.00080274 0.05600806
v -0.00006630 0.00066804 0.02824225
v 0.00080161 -0.00002495 0.05600806
v -0.00066917 -0.00002495 0.02824225
v -0.00066917 -0.00002495 0.05600806
v 0.00080161 -0.00002495 0.02824225
v 0.00010862 -0.00089286 0.05600806
v 0.00010863 0.00057792 0.02824225
v 0.00010863 0.00057792 0.05600806
v 0.00010863 -0.00089286 0.02824225
f 1 2 3
f 2 1 4
f 1 5 6
f 5 1 3
f 7 5 8
f 5 7 6
f 7 9 10
f 9 7 8
f 11 9 12
f 9 11 10
f 13 12 14
f 12 13 11
f 13 15 16
f 15 13 14
f 17 15 18
f 15 17 16
f 17 2 4
f 2 17 18
f 19 20 21
f 20 19 22
f 21 20 23
f 23 20 24
f 23 25 26
f 25 23 24
f 26 25 27
f 27 25 28
f 27 29 30
f 29 27 28
f 30 31 32
f 31 30 29
f 31 33 32
f 33 31 34
f 33 35 36
f 35 33 34
f 36 35 19
f 19 35 22
f 2 21 3
f 21 2 19
f 5 3 21
f 5 21 23
f 5 26 8
f 26 5 23
f 8 26 9
f 9 26 27
f 27 12 9
f 12 27 30
f 12 32 14
f 32 12 30
f 32 15 14
f 15 32 33
f 15 36 18
f 36 15 33
f 2 18 36
f 2 36 19
f 37 38 39
f 37 39 40
f 37 41 42
f 41 37 40
f 43 42 41
f 43 41 44
f 43 45 46
f 45 43 44
f 45 47 46
f 47 45 48
f 48 49 50
f 48 50 47
f 50 51 52
f 51 50 49
f 53 52 51
f 53 51 54
f 53 39 38
f 39 53 54
f 55 56 57
f 56 55 58
f 57 56 59
f 59 56 60
f 59 61 62
f 61 59 60
f 62 61 63
f 63 61 64
f 64 65 63
f 65 64 66
f 65 67 68
f 67 65 66
f 67 69 68
f 69 67 70
f 69 71 72
f 71 69 70
f 72 71 55
f 55 71 58
f 73 37 74
f 37 73 38
f 74 42 75
f 42 74 37
f 43 75 42
f 75 43 76
f 76 46 77
f 46 76 43
f 46 78 77
f 46 47 78
f 47 50 79
f 47 79 78
f 80 79 50
f 80 50 52
f 52 81 80
f 81 52 53
f 38 81 53
f 81 38 73
f 58 74 56
f 74 58 73
f 56 75 60
f 75 56 74
f 76 60 75
f 60 76 61
f 61 77 64
f 77 61 76
f 77 66 64
f 77 78 66
f 78 79 67
f 78 67 66
f 70 67 79
f 70 79 80
f 80 71 70
f 71 80 81
f 73 71 81
f 71 73 58
f 40 39 4
f 40 4 1
f 40 6 41
f 6 40 1
f 44 41 6
f 44 6 7
f 44 10 45
f 10 44 7
f 10 48 45
f 48 10 11
f 49 48 11
f 49 11 13
f 49 16 51
f 16 49 13
f 54 51 16
f 54 16 17
f 54 4 39
f 4 54 17
f 82 83 84
f 83 82 85
f 82 86 87
f 82 87 85
f 88 87 86
f 87 88 89
f 88 90 91
f 88 91 89
f 92 91 90
f 91 92 93
f 92 94 95
f 92 95 93
f 96 95 94
f 95 96 97
f 96 84 83
f 96 83 97
f 98 99 100
f 99 98 101
f 102 98 100
f 98 102 103
f 104 102 105
f 102 104 103
f 106 104 105
f 104 106 107
f 106 108 107
f 108 106 109
f 110 108 109
f 108 110 111
f 110 112 111
f 112 110 113
f 99 112 113
f 112 99 101
f 83 100 99
f 100 83 85
f 87 100 85
f 100 87 102
f 87 105 102
f 105 87 89
f 91 105 89
f 105 91 106
f 91 109 106
f 109 91 93
f 95 109 93
f 109 95 110
f 95 113 110
f 113 95 97
f 83 113 97
f 113 83 99
f 114 115 116
f 115 114 117
f 118 114 119
f 114 118 117
f 120 118 119
f 118 120 121
f 122 120 123
f 120 122 121
f 124 122 123
f 122 124 125
f 126 124 127
f 124 126 125
f 128 126 127
f 126 128 129
f 115 128 116
f 128 115 129
f 114 130 131
f 130 114 116
f 119 131 132
f 131 119 114
f 132 120 119
f 120 132 133
f 123 120 134
f 120 133 134
f 123 135 124
f 135 123 134
f 136 124 135
f 127 124 136
f 128 127 137
f 127 136 137
f 137 116 128
f 116 137 130
f 130 137 138
f 130 138 131
f 131 138 132
f 132 138 133
f 133 138 134
f 134 138 135
f 135 138 136
f 136 138 137
f 117 84 115
f 84 117 82
f 117 86 82
f 86 117 118
f 121 86 118
f 86 121 88
f 90 121 122
f 121 90 88
f 125 90 122
f 90 125 92
f 94 125 126
f 125 94 92
f 129 94 126
f 94 129 96
f 129 84 96
f 84 129 115
f 22 139 20
f 139 22 140
f 20 139 24
f 24 139 141
f 24 142 25
f 142 24 141
f 25 142 28
f 28 142 143
f 28 144 29
f 144 28 143
f 29 145 31
f 145 29 144
f 145 34 31
f 34 145 146
f 34 147 35
f 147 34 146
f 35 147 22
f 22 147 140
f 101 148 112
f 148 101 149
f 149 98 150
f 98 149 101
f 98 151 150
f 151 98 103
f 152 103 104
f 103 152 151
f 152 107 153
f 107 152 104
f 107 108 153
f 153 108 154
f 155 108 111
f 108 155 154
f 155 111 148
f 111 112 148
f 156 157 158
f 157 156 159
f 160 158 157
f 160 157 161
f 160 162 163
f 162 160 161
f 164 163 162
f 164 162 165
f 164 166 167
f 166 164 165
f 167 168 169
f 168 167 166
f 170 169 168
f 170 168 171
f 170 172 173
f 172 170 171
f 156 173 172
f 156 172 159
f 174 175 176
f 175 177 176
f 178 179 176
f 176 177 178
f 180 178 181
f 178 180 179
f 182 183 184
f 183 182 185
f 184 186 182
f 186 184 187
f 188 189 186
f 186 187 188
f 190 188 191
f 188 190 189
f 175 174 190
f 190 191 175
f 156 177 175
f 177 156 158
f 158 160 177
f 178 177 160
f 160 181 178
f 181 160 163
f 180 183 185
f 183 180 181
f 164 167 183
f 184 183 167
f 167 187 184
f 187 167 169
f 169 170 187
f 188 187 170
f 170 191 188
f 191 170 173
f 173 156 191
f 175 191 156
f 192 193 194
f 195 194 193
f 193 196 195
f 196 193 197
f 197 198 196
f 199 196 198
f 200 199 198
f 201 199 200
f 200 202 201
f 203 201 202
f 202 204 203
f 204 202 205
f 205 206 204
f 206 205 207
f 207 208 206
f 209 206 208
f 208 194 209
f 194 208 192
f 210 211 212
f 211 210 213
f 214 210 215
f 210 212 215
f 216 215 217
f 215 216 214
f 218 216 219
f 216 217 219
f 220 218 221
f 218 219 221
f 222 221 223
f 221 222 220
f 224 222 225
f 222 223 225
f 226 225 227
f 225 226 224
f 213 226 211
f 226 227 211
f 228 192 229
f 193 192 228
f 197 193 230
f 230 193 228
f 231 197 230
f 197 231 198
f 232 198 231
f 200 198 232
f 202 232 233
f 232 202 200
f 233 205 202
f 205 233 234
f 234 207 205
f 207 234 235
f 208 235 236
f 235 208 207
f 208 229 192
f 229 208 236
f 210 229 213
f 228 229 210
f 230 228 214
f 214 228 210
f 216 230 214
f 230 216 231
f 218 231 216
f 232 231 218
f 233 218 220
f 218 233 232
f 220 234 233
f 234 220 222
f 222 235 234
f 235 222 224
f 236 224 226
f 224 236 235
f 236 213 229
f 213 236 226
f 194 195 159
f 157 159 195
f 195 161 157
f 161 195 196
f 196 199 161
f 162 161 199
f 199 165 162
f 165 199 201
f 201 203 165
f 166 165 203
f 203 204 166
f 168 166 204
f 204 171 168
f 171 204 206
f 206 209 171
f 172 171 209
f 209 159 172
f 159 209 194
f 237 238 239
f 238 237 240
f 241 237 242
f 239 242 237
f 243 242 244
f 242 243 241
f 245 243 246
f 244 246 243
f 247 246 248
f 246 247 245
f 249 247 250
f 248 250 247
f 251 250 252
f 250 251 249
f 240 251 238
f 252 238 251
f 253 254 255
f 254 253 256
f 257 258 253
f 258 256 253
f 259 258 257
f 258 259 260
f 261 262 259
f 262 260 259
f 263 262 261
f 262 263 264
f 264 263 265
f 266 265 263
f 267 265 266
f 265 267 268
f 255 254 267
f 254 268 267
f 256 238 254
f 238 256 239
f 256 258 242
f 256 242 239
f 260 242 258
f 242 260 244
f 260 262 246
f 260 246 244
f 264 246 262
f 246 264 248
f 264 265 250
f 264 250 248
f 268 250 265
f 250 268 252
f 268 254 238
f 268 238 252
f 269 270 271
f 271 272 269
f 273 271 270
f 271 273 274
f 273 275 276
f 273 276 274
f 277 276 275
f 276 277 278
f 277 279 280
f 277 280 278
f 281 280 279
f 280 281 282
f 281 283 284
f 281 284 282
f 269 284 283
f 284 269 272
f 272 285 286
f 285 272 271
f 271 274 287
f 271 287 285
f 274 276 288
f 274 288 287
f 288 278 289
f 278 288 276
f 280 289 278
f 289 280 290
f 282 290 280
f 290 282 291
f 291 284 292
f 284 291 282
f 284 272 286
f 284 286 292
f 286 293 292
f 285 293 286
f 287 293 285
f 288 293 287
f 289 293 288
f 290 293 289
f 291 293 290
f 292 293 291
f 240 237 270
f 240 270 269
f 241 270 237
f 270 241 273
f 241 243 275
f 241 275 273
f 245 275 243
f 275 245 277
f 245 247 279
f 245 279 277
f 249 279 247
f 279 249 281
f 249 251 283
f 249 283 281
f 240 283 251
f 283 240 269
f 174 139 140
f 139 174 176
f 141 139 179
f 139 176 179
f 179 142 141
f 142 179 180
f 143 142 185
f 142 180 185
f 144 185 182
f 185 144 143
f 182 145 144
f 145 182 186
f 146 145 189
f 145 186 189
f 189 147 146
f 147 189 190
f 140 147 174
f 147 190 174
f 253 149 150
f 149 253 255
f 151 253 150
f 253 151 257
f 257 151 152
f 257 152 259
f 261 152 153
f 152 261 259
f 263 153 154
f 153 263 261
f 263 154 155
f 263 155 266
f 267 266 148
f 148 266 155
f 255 148 149
f 148 255 267
f 163 164 181
f 183 181 164
f 294 295 296
f 295 294 297
f 298 296 295
f 298 295 299
f 300 298 299
f 300 299 301
f 302 300 301
f 302 301 303
f 302 304 305
f 304 302 303
f 306 305 304
f 306 304 307
f 306 308 309
f 308 306 307
f 310 309 308
f 310 308 311
f 312 310 311
f 312 311 313
f 314 312 313
f 314 313 315
f 314 316 317
f 316 314 315
f 318 317 316
f 318 316 319
f 320 318 319
f 320 319 321
f 322 320 321
f 322 321 323
f 324 322 323
f 324 323 325
f 324 297 294
f 297 324 325
f 326 327 328
f 328 327 329
f 329 327 330
f 331 327 332
f 332 327 333
f 333 327 334
f 334 327 335
f 335 327 336
f 336 327 337
f 337 327 338
f 338 327 339
f 339 327 340
f 340 327 341
f 341 327 342
f 342 327 326
f 343 344 345
f 344 346 345
f 346 347 345
f 347 348 345
f 348 349 345
f 349 350 345
f 350 351 345
f 351 352 345
f 352 353 345
f 353 354 345
f 354 355 345
f 355 356 345
f 356 357 345
f 357 358 345
f 358 359 345
f 359 343 345
f 360 361 362
f 362 361 363
f 364 362 363
f 364 363 365
f 366 364 365
f 366 365 367
f 366 368 369
f 368 366 367
f 370 369 368
f 370 368 371
f 372 370 371
f 372 371 373
f 374 372 373
f 374 373 375
f 376 374 375
f 376 375 377
f 378 376 377
f 378 377 379
f 380 378 379
f 380 379 381
f 382 380 381
f 382 381 383
f 384 382 383
f 384 383 385
f 386 384 385
f 386 385 387
f 388 386 387
f 388 387 389
f 390 388 389
f 390 389 391
f 360 390 391
f 360 391 361
f 392 393 394
f 392 394 395
f 395 394 396
f 394 397 396
f 397 394 398
f 398 394 399
f 399 394 400
f 400 394 401
f 401 394 402
f 402 394 403
f 403 394 404
f 404 394 405
f 405 394 406
f 406 394 407
f 407 394 408
f 408 394 393
f 409 410 411
f 409 412 410
f 412 413 410
f 413 414 410
f 414 415 410
f 415 416 410
f 416 417 410
f 417 418 410
f 418 419 410
f 419 420 410
f 420 421 410
f 421 422 410
f 422 423 410
f 423 424 410
f 424 425 410
f 425 411 410
f 426 427 428
f 427 426 429
f 430 427 431
f 427 430 428
f 430 432 433
f 432 430 431
f 434 432 435
f 432 434 433
f 436 435 437
f 435 436 434
f 436 438 439
f 438 436 437
f 440 438 441
f 438 440 439
f 440 442 443
f 442 440 441
f 426 442 429
f 442 426 443
f 444 445 446
f 445 444 447
f 448 445 449
f 445 448 446
f 448 450 451
f 450 448 449
f 452 450 453
f 450 452 451
f 454 453 455
f 453 454 452
f 454 456 457
f 456 454 455
f 458 456 459
f 456 458 457
f 458 460 461
f 460 458 459
f 444 460 447
f 460 444 461
f 462 463 464
f 462 464 465
f 464 466 467
f 466 464 463
f 468 467 466
f 467 468 469
f 470 469 468
f 469 470 471
f 471 472 473
f 472 471 470
f 474 472 475
f 472 474 473
f 475 476 477
f 475 477 474
f 477 476 478
f 476 479 478
f 465 479 462
f 479 465 478
f 465 464 480
f 464 467 480
f 467 469 480
f 469 471 480
f 471 473 480
f 473 474 480
f 474 477 480
f 477 478 480
f 478 465 480
f 481 482 483
f 483 482 484
f 483 485 486
f 485 483 484
f 486 485 487
f 487 485 488
f 487 489 490
f 489 487 488
f 490 491 492
f 491 490 489
f 493 492 491
f 492 493 494
f 494 495 496
f 495 494 493
f 496 495 497
f 497 495 498
f 497 482 481
f 482 497 498
f 499 483 500
f 483 499 481
f 500 483 501
f 501 483 486
f 501 487 502
f 487 501 486
f 502 487 503
f 503 487 490
f 503 490 504
f 504 490 492
f 504 494 505
f 494 504 492
f 505 494 506
f 506 494 496
f 506 497 507
f 497 506 496
f 507 497 499
f 499 497 481
f 508 509 510
f 510 509 511
f 510 512 513
f 512 510 511
f 513 512 514
f 514 512 515
f 514 516 517
f 516 514 515
f 517 518 519
f 518 517 516
f 519 518 520
f 520 518 521
f 520 522 523
f 522 520 521
f 523 522 524
f 524 522 525
f 524 509 508
f 509 524 525
f 429 510 427
f 510 429 508
f 427 510 431
f 431 510 513
f 431 514 432
f 514 431 513
f 432 514 435
f 435 514 517
f 435 517 437
f 437 517 519
f 437 520 438
f 520 437 519
f 520 441 438
f 441 520 523
f 441 524 442
f 524 441 523
f 442 524 429
f 429 524 508
f 526 426 527
f 527 426 428
f 527 430 528
f 430 527 428
f 528 430 529
f 529 430 433
f 529 434 530
f 434 529 433
f 530 436 531
f 436 530 434
f 531 436 532
f 532 436 439
f 532 440 533
f 440 532 439
f 533 440 534
f 534 440 443
f 534 426 526
f 426 534 443
f 447 526 445
f 445 526 527
f 445 528 449
f 528 445 527
f 449 528 450
f 450 528 529
f 450 530 453
f 530 450 529
f 453 531 455
f 531 453 530
f 455 531 456
f 456 531 532
f 456 533 459
f 533 456 532
f 459 533 460
f 460 533 534
f 460 526 447
f 526 460 534
f 535 446 536
f 446 535 444
f 536 446 537
f 537 446 448
f 537 451 538
f 451 537 448
f 538 451 539
f 539 451 452
f 539 452 540
f 540 452 454
f 540 457 541
f 457 540 454
f 457 542 541
f 542 457 458
f 542 461 543
f 461 542 458
f 543 461 535
f 535 461 444
f 544 535 545
f 545 535 536
f 545 537 546
f 537 545 536
f 546 537 547
f 547 537 538
f 547 539 548
f 539 547 538
f 548 539 549
f 549 539 540
f 549 540 550
f 550 540 541
f 550 542 551
f 542 550 541
f 551 542 552
f 552 542 543
f 552 535 544
f 535 552 543
f 544 463 462
f 463 544 545
f 463 546 466
f 546 463 545
f 466 546 468
f 468 546 547
f 468 548 470
f 548 468 547
f 470 549 472
f 549 470 548
f 472 549 475
f 475 549 550
f 475 551 476
f 551 475 550
f 476 551 479
f 479 551 552
f 479 544 462
f 544 479 552
f 509 499 511
f 511 499 500
f 511 501 512
f 501 511 500
f 512 501 515
f 515 501 502
f 515 503 516
f 503 515 502
f 516 504 518
f 504 516 503
f 518 504 521
f 521 504 505
f 521 506 522
f 506 521 505
f 522 506 525
f 525 506 507
f 525 499 509
f 499 525 507
f 484 553 554
f 553 484 482
f 488 485 555
f 488 555 556
f 489 488 556
f 489 556 557
f 491 489 557
f 491 557 558
f 482 559 553
f 559 482 498
f 560 561 562
f 562 561 563
f 562 564 565
f 564 562 563
f 565 564 566
f 566 564 567
f 566 568 569
f 568 566 567
f 569 570 571
f 570 569 568
f 571 570 572
f 572 570 573
f 572 574 575
f 574 572 573
f 575 574 576
f 576 574 577
f 576 561 560
f 561 576 577
f 578 579 580
f 580 579 581
f 580 582 583
f 582 580 581
f 583 582 584
f 584 582 585
f 584 586 587
f 586 584 585
f 587 588 589
f 588 587 586
f 589 588 590
f 588 591 590
f 590 592 593
f 592 590 591
f 593 592 594
f 592 595 594
f 594 579 578
f 579 594 595
f 596 597 598
f 599 597 596
f 600 596 601
f 596 600 599
f 602 601 603
f 601 602 600
f 604 603 605
f 603 604 602
f 606 605 607
f 605 606 604
f 606 608 609
f 608 606 607
f 610 609 608
f 611 609 610
f 612 613 611
f 612 611 610
f 613 598 597
f 598 613 612
f 598 614 596
f 596 614 601
f 601 614 603
f 603 614 605
f 605 614 607
f 607 614 608
f 608 614 610
f 610 614 612
f 612 614 598
f 554 553 615
f 553 616 615
f 615 555 554
f 555 615 617
f 556 555 618
f 555 617 618
f 618 557 556
f 557 618 619
f 558 619 620
f 619 558 557
f 620 621 558
f 621 620 622
f 622 623 621
f 623 622 624
f 559 623 625
f 623 624 625
f 625 553 559
f 553 625 616
f 626 615 616
f 615 626 627
f 617 615 628
f 615 627 628
f 628 618 617
f 618 628 629
f 630 619 618
f 618 629 630
f 619 630 631
f 619 631 620
f 631 622 620
f 622 631 632
f 624 622 633
f 622 632 633
f 633 625 624
f 625 633 634
f 616 625 626
f 625 634 626
f 635 636 637
f 636 638 637
f 637 639 635
f 639 637 640
f 641 639 642
f 639 640 642
f 642 643 641
f 643 642 644
f 645 644 646
f 644 645 643
f 647 645 648
f 645 646 648
f 649 648 650
f 648 649 647
f 651 649 652
f 649 650 652
f 652 636 651
f 636 652 638
f 560 637 638
f 637 560 562
f 640 637 565
f 637 562 565
f 565 642 640
f 642 565 566
f 569 644 642
f 642 566 569
f 644 569 571
f 644 571 646
f 571 648 646
f 648 571 572
f 650 648 575
f 648 572 575
f 575 652 650
f 652 575 576
f 638 652 560
f 652 576 560
f 653 563 561
f 561 654 653
f 564 653 655
f 653 564 563
f 656 567 564
f 564 655 656
f 568 656 657
f 656 568 567
f 570 657 658
f 657 570 568
f 659 573 570
f 570 658 659
f 574 659 660
f 659 574 573
f 661 577 574
f 574 660 661
f 561 661 654
f 661 561 577
f 580 653 654
f 654 578 580
f 655 580 583
f 580 655 653
f 584 656 655
f 655 583 584
f 657 584 587
f 584 657 656
f 658 587 589
f 587 658 657
f 590 659 658
f 658 589 590
f 660 590 593
f 590 660 659
f 594 661 660
f 660 593 594
f 654 594 578
f 594 654 661
f 662 581 579
f 581 662 663
f 664 582 581
f 581 663 664
f 664 585 582
f 585 664 665
f 666 586 585
f 585 665 666
f 588 586 667
f 586 666 667
f 667 591 588
f 591 667 668
f 592 591 669
f 591 668 669
f 669 595 592
f 595 669 670
f 579 595 662
f 595 670 662
f 671 663 662
f 662 672 671
f 664 671 673
f 671 664 663
f 674 665 664
f 664 673 674
f 666 674 675
f 674 666 665
f 667 675 676
f 675 667 666
f 677 668 667
f 667 676 677
f 669 677 678
f 677 669 668
f 679 670 669
f 669 678 679
f 662 679 672
f 679 662 670
f 672 599 671
f 599 672 597
f 673 599 600
f 599 673 671
f 674 673 602
f 673 600 602
f 675 602 604
f 602 675 674
f 676 604 606
f 604 676 675
f 609 677 676
f 676 606 609
f 678 609 611
f 609 678 677
f 679 678 613
f 678 611 613
f 672 613 597
f 613 672 679
f 627 626 635
f 626 636 635
f 628 635 639
f 635 628 627
f 629 628 641
f 628 639 641
f 630 641 643
f 641 630 629
f 631 643 645
f 643 631 630
f 632 631 647
f 631 645 647
f 633 647 649
f 647 633 632
f 634 633 651
f 633 649 651
f 626 651 636
f 651 626 634
f 485 484 555
f 484 554 555
f 493 491 621
f 491 558 621
f 495 493 621
f 495 621 623
f 498 495 559
f 495 623 559
f 680 681 682
f 681 680 683
f 684 681 685
f 681 684 682
f 684 686 687
f 686 684 685
f 688 686 689
f 686 688 687
f 688 690 691
f 690 688 689
f 692 690 693
f 690 692 691
f 692 694 695
f 694 692 693
f 695 696 697
f 696 695 694
f 680 696 683
f 696 680 697
f 698 699 700
f 699 698 701
f 702 699 703
f 699 702 700
f 702 704 705
f 704 702 703
f 706 704 707
f 704 706 705
f 706 708 709
f 708 706 707
f 710 708 711
f 708 710 709
f 710 712 713
f 712 710 711
f 713 714 715
f 714 713 712
f 698 714 701
f 714 698 715
f 716 717 718
f 717 719 718
f 717 716 720
f 716 721 720
f 722 720 721
f 720 722 723
f 724 723 722
f 723 724 725
f 725 724 726
f 724 727 726
f 728 729 727
f 727 729 726
f 730 728 731
f 728 730 729
f 730 732 733
f 732 730 731
f 718 733 732
f 733 718 719
f 717 734 719
f 717 720 734
f 720 723 734
f 723 725 734
f 725 726 734
f 726 729 734
f 729 730 734
f 730 733 734
f 733 719 734
f 735 736 737
f 737 736 738
f 737 739 740
f 739 737 738
f 740 739 741
f 741 739 742
f 741 743 744
f 743 741 742
f 744 743 745
f 745 743 746
f 747 745 746
f 745 747 748
f 748 749 750
f 749 748 747
f 749 751 750
f 751 749 752
f 751 736 735
f 736 751 752
f 753 737 754
f 737 753 735
f 754 737 755
f 755 737 740
f 755 741 756
f 741 755 740
f 756 741 757
f 757 741 744
f 757 745 758
f 745 757 744
f 758 745 759
f 759 745 748
f 748 760 759
f 760 748 750
f 760 751 761
f 751 760 750
f 751 753 761
f 753 751 735
f 762 763 764
f 764 763 765
f 764 766 767
f 766 764 765
f 767 766 768
f 768 766 769
f 768 770 771
f 770 768 769
f 771 770 772
f 772 770 773
f 772 774 775
f 774 772 773
f 775 774 776
f 776 774 777
f 776 777 778
f 778 777 779
f 778 763 762
f 763 778 779
f 683 764 681
f 764 683 762
f 681 764 685
f 685 764 767
f 685 768 686
f 768 685 767
f 686 768 689
f 689 768 771
f 689 772 690
f 772 689 771
f 690 772 693
f 693 772 775
f 693 776 694
f 776 693 775
f 694 778 696
f 778 694 776
f 696 778 683
f 683 778 762
f 780 680 781
f 781 680 682
f 781 684 782
f 684 781 682
f 782 684 783
f 783 684 687
f 783 688 784
f 688 783 687
f 784 688 785
f 785 688 691
f 785 692 786
f 692 785 691
f 786 692 787
f 787 692 695
f 787 695 788
f 788 695 697
f 788 680 780
f 680 788 697
f 701 780 699
f 699 780 781
f 699 782 703
f 782 699 781
f 703 782 704
f 704 782 783
f 704 784 707
f 784 704 783
f 707 784 708
f 708 784 785
f 708 786 711
f 786 708 785
f 711 787 712
f 787 711 786
f 712 787 714
f 714 787 788
f 714 780 701
f 780 714 788
f 789 700 790
f 700 789 698
f 790 700 791
f 791 700 702
f 791 705 792
f 705 791 702
f 792 705 793
f 793 705 706
f 793 709 794
f 709 793 706
f 794 709 795
f 795 709 710
f 795 710 796
f 796 710 713
f 796 715 797
f 715 796 713
f 797 715 789
f 789 715 698
f 798 789 799
f 799 789 790
f 799 791 800
f 791 799 790
f 800 791 801
f 801 791 792
f 801 793 802
f 793 801 792
f 802 793 803
f 803 793 794
f 803 795 804
f 795 803 794
f 804 795 805
f 805 795 796
f 805 796 806
f 806 796 797
f 718 798 716
f 716 798 799
f 716 800 721
f 800 716 799
f 721 800 722
f 722 800 801
f 722 802 724
f 802 722 801
f 724 802 727
f 727 802 803
f 727 804 728
f 804 727 803
f 728 804 731
f 731 804 805
f 731 805 732
f 732 805 806
f 732 798 718
f 798 732 806
f 763 753 765
f 765 753 754
f 765 755 766
f 755 765 754
f 766 755 769
f 769 755 756
f 769 757 770
f 757 769 756
f 770 757 773
f 773 757 758
f 773 759 774
f 759 773 758
f 774 759 777
f 777 759 760
f 777 760 779
f 779 760 761
f 779 753 763
f 753 779 761
f 738 736 807
f 736 808 807
f 743 742 809
f 743 809 810
f 747 746 811
f 747 811 812
f 749 747 812
f 749 812 813
f 814 815 816
f 816 815 817
f 816 818 819
f 818 816 817
f 819 818 820
f 820 818 821
f 820 822 823
f 822 820 821
f 823 822 824
f 824 822 825
f 824 826 827
f 826 824 825
f 827 826 828
f 828 826 829
f 828 829 830
f 830 829 831
f 830 815 814
f 815 830 831
f 832 833 834
f 833 835 834
f 834 836 837
f 836 834 835
f 837 836 838
f 838 836 839
f 838 840 841
f 840 838 839
f 841 840 842
f 842 840 843
f 842 844 845
f 844 842 843
f 845 844 846
f 846 844 847
f 846 847 848
f 847 849 848
f 848 833 832
f 833 848 849
f 850 851 852
f 851 850 853
f 854 855 853
f 853 850 854
f 856 854 857
f 854 856 855
f 857 858 856
f 858 857 859
f 860 861 858
f 858 859 860
f 861 862 863
f 862 861 860
f 864 863 862
f 863 864 865
f 866 864 867
f 864 866 865
f 851 867 852
f 867 851 866
f 852 868 850
f 850 868 854
f 854 868 857
f 857 868 859
f 859 868 860
f 860 868 862
f 862 868 864
f 864 868 867
f 867 868 852
f 807 808 869
f 808 870 869
f 869 871 807
f 871 869 872
f 809 871 873
f 871 872 873
f 873 810 809
f 810 873 874
f 811 810 875
f 810 874 875
f 812 875 876
f 875 812 811
f 813 876 877
f 876 813 812
f 878 813 879
f 813 877 879
f 879 808 878
f 808 879 870
f 880 869 870
f 869 880 881
f 872 869 882
f 869 881 882
f 882 873 872
f 873 882 883
f 874 873 884
f 873 883 884
f 884 875 874
f 875 884 885
f 886 876 875
f 875 885 886
f 876 886 887
f 876 887 877
f 887 879 877
f 879 887 888
f 870 879 880
f 879 888 880
f 889 890 891
f 890 892 891
f 891 893 889
f 893 891 894
f 895 893 896
f 893 894 896
f 896 897 895
f 897 896 898
f 899 897 900
f 897 898 900
f 900 901 899
f 901 900 902
f 903 901 904
f 901 902 904
f 905 903 906
f 903 904 906
f 890 906 892
f 906 890 905
f 814 891 892
f 891 814 816
f 894 891 819
f 891 816 819
f 819 896 894
f 896 819 820
f 898 896 823
f 896 820 823
f 823 900 898
f 900 823 824
f 827 902 900
f 900 824 827
f 827 904 902
f 904 827 828
f 828 906 904
f 906 828 830
f 892 906 814
f 906 830 814
f 907 817 815
f 815 908 907
f 818 907 909
f 907 818 817
f 910 821 818
f 818 909 910
f 822 910 911
f 910 822 821
f 912 825 822
f 822 911 912
f 826 912 913
f 912 826 825
f 914 829 826
f 826 913 914
f 915 831 829
f 829 914 915
f 815 915 908
f 915 815 831
f 834 907 908
f 908 832 834
f 909 834 837
f 834 909 907
f 838 910 909
f 909 837 838
f 911 838 841
f 838 911 910
f 842 912 911
f 911 841 842
f 913 842 845
f 842 913 912
f 914 845 846
f 845 914 913
f 848 915 914
f 914 846 848
f 908 848 832
f 848 908 915
f 916 835 833
f 835 916 917
f 836 835 918
f 835 917 918
f 918 839 836
f 839 918 919
f 920 840 839
f 839 919 920
f 920 843 840
f 843 920 921
f 922 844 843
f 843 921 922
f 847 844 923
f 844 922 923
f 923 849 847
f 849 923 924
f 833 849 916
f 849 924 916
f 925 917 916
f 916 926 925
f 918 925 927
f 925 918 917
f 928 919 918
f 918 927 928
f 920 928 929
f 928 920 919
f 930 921 920
f 920 929 930
f 922 930 931
f 930 922 921
f 932 923 922
f 922 931 932
f 933 924 923
f 923 932 933
f 916 933 926
f 933 916 924
f 925 926 853
f 926 851 853
f 927 853 855
f 853 927 925
f 928 927 856
f 927 855 856
f 929 856 858
f 856 929 928
f 930 929 861
f 929 858 861
f 931 861 863
f 861 931 930
f 932 931 865
f 931 863 865
f 866 933 932
f 932 865 866
f 926 866 851
f 866 926 933
f 881 880 889
f 880 890 889
f 882 889 893
f 889 882 881
f 883 882 895
f 882 893 895
f 884 895 897
f 895 884 883
f 885 884 899
f 884 897 899
f 886 899 901
f 899 886 885
f 887 886 903
f 886 901 903
f 888 887 905
f 887 903 905
f 880 905 890
f 905 880 888
f 739 738 807
f 739 807 871
f 742 739 809
f 739 871 809
f 746 743 811
f 743 810 811
f 752 749 878
f 749 813 878
f 736 752 808
f 752 878 808
f 934 935 936
f 935 934 937
f 934 938 939
f 938 934 936
f 940 938 941
f 938 940 939
f 940 942 943
f 942 940 941
f 943 944 945
f 944 943 942
f 946 944 947
f 944 946 945
f 946 948 949
f 948 946 947
f 950 948 951
f 948 950 949
f 950 935 937
f 935 950 951
f 952 953 954
f 953 952 955
f 952 956 957
f 956 952 954
f 958 956 959
f 956 958 957
f 958 960 961
f 960 958 959
f 961 962 963
f 962 961 960
f 964 962 965
f 962 964 963
f 964 966 967
f 966 964 965
f 968 966 969
f 966 968 967
f 968 953 955
f 953 968 969
f 970 971 972
f 971 970 973
f 973 970 974
f 970 975 974
f 976 977 975
f 975 977 974
f 978 976 979
f 976 978 977
f 978 980 981
f 980 978 979
f 982 981 980
f 981 982 983
f 984 982 985
f 982 984 983
f 984 985 986
f 985 987 986
f 972 971 987
f 987 971 986
f 973 988 971
f 973 974 988
f 974 977 988
f 977 978 988
f 978 981 988
f 981 983 988
f 983 984 988
f 984 986 988
f 986 971 988
f 989 990 991
f 990 989 992
f 991 990 993
f 993 990 994
f 994 995 996
f 994 996 993
f 997 996 995
f 997 995 998
f 998 999 997
f 999 998 1000
f 999 1001 1002
f 1001 999 1000
f 1002 1001 1003
f 1003 1001 1004
f 1003 1005 1006
f 1005 1003 1004
f 1006 1005 989
f 989 1005 992
f 1007 989 1008
f 1008 989 991
f 1008 993 1009
f 993 1008 991
f 1009 993 1010
f 1010 993 996
f 1010 997 1011
f 997 1010 996
f 1011 999 1012
f 999 1011 997
f 999 1013 1012
f 1013 999 1002
f 1013 1003 1014
f 1003 1013 1002
f 1014 1003 1015
f 1015 1003 1006
f 1015 989 1007
f 989 1015 1006
f 1016 1017 1018
f 1017 1016 1019
f 1018 1017 1020
f 1020 1017 1021
f 1020 1022 1023
f 1022 1020 1021
f 1023 1022 1024
f 1024 1022 1025
f 1024 1025 1026
f 1026 1025 1027
f 1026 1028 1029
f 1028 1026 1027
f 1029 1028 1030
f 1030 1028 1031
f 1030 1032 1033
f 1032 1030 1031
f 1033 1032 1016
f 1016 1032 1019
f 935 1016 936
f 936 1016 1018
f 936 1020 938
f 1020 936 1018
f 938 1020 941
f 941 1020 1023
f 941 1024 942
f 1024 941 1023
f 942 1026 944
f 1026 942 1024
f 944 1026 947
f 947 1026 1029
f 947 1030 948
f 1030 947 1029
f 948 1030 951
f 951 1030 1033
f 951 1016 935
f 1016 951 1033
f 1034 934 1035
f 1035 934 939
f 1035 940 1036
f 940 1035 939
f 1036 940 1037
f 1037 940 943
f 1037 943 1038
f 1038 943 945
f 1038 946 1039
f 946 1038 945
f 1039 946 1040
f 1040 946 949
f 1040 950 1041
f 950 1040 949
f 1041 950 1042
f 1042 950 937
f 953 1034 954
f 1034 953 1042
f 954 1034 956
f 956 1034 1035
f 956 1036 959
f 1036 956 1035
f 959 1037 960
f 1037 959 1036
f 960 1037 962
f 962 1037 1038
f 962 1039 965
f 1039 962 1038
f 965 1039 966
f 966 1039 1040
f 966 1041 969
f 1041 966 1040
f 969 1041 953
f 953 1041 1042
f 1043 955 1044
f 1044 955 952
f 1044 957 1045
f 957 1044 952
f 1045 957 1046
f 1046 957 958
f 958 1047 1046
f 1047 958 961
f 1047 963 1048
f 963 1047 961
f 963 1049 1048
f 1049 963 964
f 1049 967 1050
f 967 1049 964
f 1050 967 1051
f 1051 967 968
f 1051 955 1043
f 955 1051 968
f 1052 1044 1053
f 1044 1052 1043
f 1053 1044 1054
f 1054 1044 1045
f 1054 1046 1055
f 1046 1054 1045
f 1046 1056 1055
f 1056 1046 1047
f 1056 1047 1057
f 1057 1047 1048
f 1057 1049 1058
f 1049 1057 1048
f 1058 1049 1059
f 1059 1049 1050
f 1059 1051 1060
f 1051 1059 1050
f 1060 1051 1052
f 1052 1051 1043
f 972 1053 970
f 1053 972 1052
f 970 1053 975
f 975 1053 1054
f 975 1055 976
f 1055 975 1054
f 976 1055 979
f 979 1055 1056
f 979 1056 980
f 980 1056 1057
f 980 1058 982
f 1058 980 1057
f 982 1058 985
f 985 1058 1059
f 985 1060 987
f 1060 985 1059
f 987 1060 972
f 972 1060 1052
f 1019 1008 1017
f 1008 1019 1007
f 1017 1008 1021
f 1021 1008 1009
f 1021 1010 1022
f 1010 1021 1009
f 1010 1025 1022
f 1025 1010 1011
f 1025 1011 1027
f 1027 1011 1012
f 1027 1013 1028
f 1013 1027 1012
f 1028 1013 1031
f 1031 1013 1014
f 1031 1015 1032
f 1015 1031 1014
f 1032 1015 1019
f 1019 1015 1007
f 990 992 1061
f 992 1062 1061
f 998 995 1063
f 998 1063 1064
f 1001 1000 1065
f 1001 1065 1066
f 1004 1001 1066
f 1004 1066 1067
f 1068 1069 1070
f 1069 1068 1071
f 1070 1069 1072
f 1072 1069 1073
f 1072 1074 1075
f 1074 1072 1073
f 1075 1074 1076
f 1076 1074 1077
f 1076 1077 1078
f 1078 1077 1079
f 1078 1080 1081
f 1080 1078 1079
f 1081 1080 1082
f 1082 1080 1083
f 1082 1084 1085
f 1084 1082 1083
f 1085 1084 1068
f 1068 1084 1071
f 1086 1087 1088
f 1087 1086 1089
f 1088 1087 1090
f 1090 1087 1091
f 1090 1092 1093
f 1092 1090 1091
f 1093 1092 1094
f 1094 1092 1095
f 1094 1095 1096
f 1095 1097 1096
f 1096 1098 1099
f 1098 1096 1097
f 1099 1098 1100
f 1098 1101 1100
f 1100 1102 1103
f 1102 1100 1101
f 1103 1102 1086
f 1086 1102 1089
f 1104 1105 1106
f 1105 1104 1107
f 1108 1109 1105
f 1105 1107 1108
f 1109 1110 1111
f 1110 1109 1108
f 1112 1111 1110
f 1111 1112 1113
f 1114 1112 1115
f 1112 1114 1113
f 1116 1115 1117
f 1115 1116 1114
f 1118 1116 1117
f 1116 1118 1119
f 1120 1121 1119
f 1119 1118 1120
f 1121 1104 1106
f 1104 1121 1120
f 1104 1122 1107
f 1107 1122 1108
f 1108 1122 1110
f 1110 1122 1112
f 1112 1122 1115
f 1115 1122 1117
f 1117 1122 1118
f 1118 1122 1120
f 1120 1122 1104
f 1123 1061 1062
f 1061 1123 1124
f 1125 1061 1126
f 1061 1124 1126
f 1125 1127 1063
f 1127 1125 1126
f 1064 1063 1128
f 1063 1127 1128
f 1065 1064 1129
f 1064 1128 1129
f 1129 1066 1065
f 1066 1129 1130
f 1067 1066 1131
f 1066 1130 1131
f 1131 1132 1067
f 1132 1131 1133
f 1062 1132 1123
f 1132 1133 1123
f 1124 1123 1134
f 1123 1135 1134
f 1134 1126 1124
f 1126 1134 1136
f 1137 1127 1126
f 1126 1136 1137
f 1137 1128 1127
f 1128 1137 1138
f 1138 1129 1128
f 1129 1138 1139
f 1130 1129 1140
f 1129 1139 1140
f 1140 1131 1130
f 1131 1140 1141
f 1133 1131 1142
f 1131 1141 1142
f 1142 1123 1133
f 1123 1142 1135
f 1143 1144 1145
f 1144 1143 1146
f 1147 1144 1148
f 1144 1146 1148
f 1148 1149 1147
f 1149 1148 1150
f 1151 1149 1152
f 1149 1150 1152
f 1153 1151 1154
f 1151 1152 1154
f 1155 1154 1156
f 1154 1155 1153
f 1157 1155 1158
f 1155 1156 1158
f 1158 1159 1157
f 1159 1158 1160
f 1145 1159 1143
f 1159 1160 1143
f 1146 1143 1070
f 1143 1068 1070
f 1070 1148 1146
f 1148 1070 1072
f 1075 1150 1148
f 1148 1072 1075
f 1075 1152 1150
f 1152 1075 1076
f 1076 1154 1152
f 1154 1076 1078
f 1156 1154 1081
f 1154 1078 1081
f 1081 1158 1156
f 1158 1081 1082
f 1160 1158 1085
f 1158 1082 1085
f 1085 1143 1160
f 1143 1085 1068
f 1069 1161 1162
f 1161 1069 1071
f 1163 1073 1069
f 1069 1162 1163
f 1074 1163 1164
f 1163 1074 1073
f 1165 1077 1074
f 1074 1164 1165
f 1166 1079 1077
f 1077 1165 1166
f 1080 1166 1167
f 1166 1080 1079
f 1168 1083 1080
f 1080 1167 1168
f 1084 1168 1169
f 1168 1084 1083
f 1161 1071 1084
f 1084 1169 1161
f 1162 1086 1088
f 1086 1162 1161
f 1090 1163 1162
f 1162 1088 1090
f 1164 1090 1093
f 1090 1164 1163
f 1165 1093 1094
f 1093 1165 1164
f 1096 1166 1165
f 1165 1094 1096
f 1167 1096 1099
f 1096 1167 1166
f 1100 1168 1167
f 1167 1099 1100
f 1169 1100 1103
f 1100 1169 1168
f 1086 1161 1169
f 1169 1103 1086
f 1170 1087 1089
f 1089 1171 1170
f 1170 1091 1087
f 1091 1170 1172
f 1173 1092 1091
f 1091 1172 1173
f 1095 1173 1174
f 1173 1095 1092
f 1174 1097 1095
f 1097 1174 1175
f 1098 1097 1176
f 1097 1175 1176
f 1176 1101 1098
f 1101 1176 1177
f 1102 1101 1178
f 1101 1177 1178
f 1178 1089 1102
f 1089 1178 1171
f 1170 1179 1180
f 1179 1170 1171
f 1181 1172 1170
f 1170 1180 1181
f 1173 1181 1182
f 1181 1173 1172
f 1183 1174 1173
f 1173 1182 1183
f 1184 1175 1174
f 1174 1183 1184
f 1176 1184 1185
f 1184 1176 1175
f 1186 1177 1176
f 1176 1185 1186
f 1178 1186 1187
f 1186 1178 1177
f 1179 1171 1178
f 1178 1187 1179
f 1180 1106 1105
f 1106 1180 1179
f 1181 1180 1109
f 1180 1105 1109
f 1182 1109 1111
f 1109 1182 1181
f 1183 1182 1113
f 1182 1111 1113
f 1114 1184 1183
f 1183 1113 1114
f 1185 1114 1116
f 1114 1185 1184
f 1186 1185 1119
f 1185 1116 1119
f 1187 1119 1121
f 1119 1187 1186
f 1179 1187 1106
f 1187 1121 1106
f 1134 1145 1144
f 1145 1134 1135
f 1136 1134 1147
f 1134 1144 1147
f 1137 1147 1149
f 1147 1137 1136
f 1138 1137 1151
f 1137 1149 1151
f 1139 1138 1153
f 1138 1151 1153
f 1140 1153 1155
f 1153 1140 1139
f 1141 1140 1157
f 1140 1155 1157
f 1142 1157 1159
f 1157 1142 1141
f 1135 1142 1145
f 1142 1159 1145
f 994 990 1061
f 994 1061 1125
f 995 994 1063
f 994 1125 1063
f 1000 998 1065
f 998 1064 1065
f 1005 1004 1132
f 1004 1067 1132
f 992 1005 1062
f 1005 1132 1062
f 327 331 330
f 1042 934 1034
f 934 1042 937
f 806 789 798
f 789 806 797
f 294 344 343
f 344 294 296
f 326 328 297
f 295 297 328
f 296 298 344
f 344 298 346
f 328 299 295
f 299 328 329
f 298 300 346
f 346 300 347
f 329 301 299
f 301 329 330
f 347 302 348
f 302 347 300
f 330 303 301
f 303 330 331
f 302 349 348
f 349 302 305
f 331 332 303
f 304 303 332
f 349 306 350
f 306 349 305
f 332 307 304
f 307 332 333
f 351 306 309
f 306 351 350
f 333 334 307
f 308 307 334
f 351 310 352
f 310 351 309
f 334 311 308
f 311 334 335
f 310 353 352
f 353 310 312
f 335 336 311
f 313 311 336
f 354 312 314
f 312 354 353
f 337 313 336
f 313 337 315
f 354 317 355
f 317 354 314
f 337 316 315
f 316 337 338
f 355 318 356
f 318 355 317
f 338 319 316
f 319 338 339
f 318 357 356
f 357 318 320
f 339 340 319
f 321 319 340
f 358 357 322
f 320 322 357
f 323 340 341
f 340 323 321
f 359 358 324
f 322 324 358
f 325 341 342
f 341 325 323
f 359 294 343
f 294 359 324
f 342 297 325
f 297 342 326
f 393 392 361
f 363 361 392
f 409 360 362
f 360 409 411
f 409 364 412
f 364 409 362
f 392 365 363
f 365 392 395
f 364 413 412
f 413 364 366
f 395 367 365
f 367 395 396
f 414 366 369
f 366 414 413
f 368 367 397
f 397 367 396
f 414 370 415
f 370 414 369
f 397 398 368
f 371 368 398
f 415 372 416
f 370 372 415
f 398 373 371
f 373 398 399
f 416 374 417
f 374 416 372
f 399 375 373
f 375 399 400
f 374 376 417
f 417 376 418
f 400 377 375
f 377 400 401
f 418 378 419
f 378 418 376
f 401 402 377
f 379 377 402
f 420 419 380
f 378 380 419
f 381 402 403
f 402 381 379
f 421 380 382
f 380 421 420
f 404 381 403
f 381 404 383
f 422 382 384
f 382 422 421
f 405 383 404
f 385 383 405
f 423 384 386
f 384 423 422
f 405 406 385
f 387 385 406
f 386 388 423
f 423 388 424
f 406 389 387
f 389 406 407
f 425 424 390
f 388 390 424
f 391 407 408
f 407 391 389
f 411 390 360
f 390 411 425
f 393 391 408
f 391 393 361
f 1188 1189 1190
f 1189 1188 1191
f 1190 1192 1193
f 1192 1190 1189
f 1193 1194 1195
f 1194 1193 1192
f 1195 1194 1196
f 1194 1197 1196
f 1196 1198 1199
f 1198 1196 1197
f 1199 1200 1201
f 1200 1199 1198
f 1201 1202 1203
f 1202 1201 1200
f 1204 1203 1202
f 1204 1202 1205
f 1206 1204 1205
f 1206 1205 1207
f 1206 1208 1209
f 1208 1206 1207
f 1210 1208 1211
f 1208 1210 1209
f 1211 1212 1213
f 1211 1213 1210
f 1213 1212 1214
f 1212 1215 1214
f 1216 1214 1215
f 1216 1215 1217
f 1216 1218 1219
f 1218 1216 1217
f 1220 1218 1221
f 1218 1220 1219
f 1222 1220 1221
f 1220 1222 1223
f 1188 1223 1222
f 1188 1222 1191
f 1224 1190 1225
f 1190 1224 1188
f 1225 1193 1226
f 1193 1225 1190
f 1226 1195 1227
f 1195 1226 1193
f 1196 1227 1195
f 1227 1196 1228
f 1228 1199 1229
f 1199 1228 1196
f 1201 1229 1199
f 1229 1201 1230
f 1230 1203 1231
f 1203 1230 1201
f 1232 1231 1203
f 1232 1203 1204
f 1233 1232 1204
f 1233 1204 1206
f 1233 1209 1234
f 1209 1233 1206
f 1235 1209 1210
f 1209 1235 1234
f 1210 1213 1236
f 1210 1236 1235
f 1237 1236 1213
f 1237 1213 1214
f 1238 1237 1214
f 1238 1214 1216
f 1239 1238 1216
f 1239 1216 1219
f 1240 1219 1220
f 1219 1240 1239
f 1223 1240 1220
f 1240 1223 1241
f 1224 1241 1223
f 1224 1223 1188
f 1242 1225 1243
f 1225 1242 1224
f 1243 1226 1244
f 1226 1243 1225
f 1244 1226 1245
f 1226 1227 1245
f 1246 1245 1227
f 1246 1227 1228
f 1246 1229 1247
f 1229 1246 1228
f 1247 1230 1248
f 1230 1247 1229
f 1248 1231 1249
f 1231 1248 1230
f 1250 1249 1231
f 1231 1232 1250
f 1251 1250 1232
f 1251 1232 1233
f 1251 1234 1252
f 1234 1251 1233
f 1252 1235 1253
f 1235 1252 1234
f 1253 1235 1254
f 1235 1236 1254
f 1255 1254 1236
f 1255 1236 1237
f 1256 1255 1237
f 1256 1237 1238
f 1256 1239 1257
f 1239 1256 1238
f 1257 1240 1258
f 1240 1257 1239
f 1259 1258 1240
f 1240 1241 1259
f 1242 1259 1241
f 1242 1241 1224
f 1242 1243 1260
f 1243 1244 1260
f 1244 1245 1260
f 1245 1246 1260
f 1246 1247 1260
f 1247 1248 1260
f 1248 1249 1260
f 1249 1250 1260
f 1250 1251 1260
f 1251 1252 1260
f 1252 1253 1260
f 1253 1254 1260
f 1254 1255 1260
f 1255 1256 1260
f 1256 1257 1260
f 1257 1258 1260
f 1258 1259 1260
f 1259 1242 1260
f 1191 1261 1189
f 1261 1191 1262
f 1189 1263 1192
f 1263 1189 1261
f 1192 1264 1194
f 1264 1192 1263
f 1194 1265 1197
f 1265 1194 1264
f 1266 1197 1265
f 1197 1266 1198
f 1267 1198 1266
f 1198 1267 1200
f 1200 1268 1202
f 1268 1200 1267
f 1268 1205 1202
f 1205 1268 1269
f 1205 1269 1207
f 1270 1207 1269
f 1271 1208 1270
f 1208 1207 1270
f 1272 1211 1271
f 1211 1208 1271
f 1212 1272 1273
f 1272 1212 1211
f 1273 1215 1212
f 1215 1273 1274
f 1274 1217 1215
f 1217 1274 1275
f 1217 1275 1218
f 1276 1218 1275
f 1277 1221 1276
f 1221 1218 1276
f 1278 1221 1277
f 1221 1278 1222
f 1222 1262 1191
f 1262 1222 1278
f 1261 1262 1279
f 1263 1261 1279
f 1264 1263 1279
f 1265 1264 1279
f 1266 1265 1279
f 1267 1266 1279
f 1268 1267 1279
f 1269 1268 1279
f 1270 1269 1279
f 1271 1270 1279
f 1272 1271 1279
f 1273 1272 1279
f 1274 1273 1279
f 1275 1274 1279
f 1276 1275 1279
f 1277 1276 1279
f 1278 1277 1279
f 1262 1278 1279
f 1280 1281 1282
f 1283 1284 1285
f 1284 1286 1285
f 1286 1287 1285
f 1287 1288 1285
f 1288 1289 1285
f 1289 1290 1285
f 1290 1291 1285
f 1291 1292 1285
f 1292 1293 1285
f 1293 1294 1285
f 1294 1281 1285
f 1281 1280 1285
f 1280 1295 1285
f 1295 1296 1285
f 1296 1297 1285
f 1297 1298 1285
f 1298 1299 1285
f 1299 1283 1285
f 1293 1292 1282
f 1289 1288 1282
f 1282 1299 1298
f 1298 1300 1282
f 1288 1287 1282
f 1300 1296 1295
f 1286 1284 1282
f 1282 1295 1280
f 1294 1293 1282
f 1282 1287 1286
f 1284 1283 1282
f 1282 1281 1294
f 1291 1290 1282
f 1282 1283 1299
f 1297 1296 1300
f 1282 1292 1291
f 1290 1289 1282
f 1300 1298 1297
f 1301 1302 1303
f 1302 1301 1304
f 1305 1306 1307
f 1306 1305 1308
f 1309 1310 1311
f 1310 1309 1312
f 1313 1314 1315
f 1314 1313 1316
f 57 56 58
f 58 55 57
f 59 60 56
f 56 57 59
f 62 61 60
f 60 59 62
f 63 64 61
f 61 62 63
f 63 65 66
f 66 64 63
f 68 67 66
f 66 65 68
f 68 69 70
f 70 67 68
f 72 71 70
f 70 69 72
f 55 58 71
f 71 72 55
f 212 211 213
f 213 210 212
f 215 212 210
f 210 214 215
f 217 215 214
f 214 216 217
f 219 217 216
f 216 218 219
f 221 219 218
f 218 220 221
f 223 221 220
f 220 222 223
f 225 223 222
f 222 224 225
f 227 225 224
f 224 226 227
f 211 227 226
f 226 213 211
f 1282 1300 1295
f 1303 1302 1304
f 1304 1301 1303
f 1307 1306 1308
f 1308 1305 1307
f 1311 1310 1312
f 1312 1309 1311
f 1315 1314 1316
f 1316 1313 1315