# https://github.com/mikedh/trimesh
v -0.01169117 -0.00010068 0.04929938
v -0.01278488 -0.00025631 0.04971529
v -0.01290103 0.00282164 0.04971529
v -0.01203934 0.00292571 0.04929938
v -0.01278488 -0.00025631 0.05131751
v -0.01169117 -0.00010068 0.05173346
v -0.01203934 0.00292571 0.05173346
v -0.01290103 0.00282164 0.05131752
v -0.01258942 0.00526441 0.04971530
v -0.01164130 0.00495469 0.04929938
v -0.01164130 0.00495469 0.05173346
v -0.01258942 0.00526441 0.05131752
v -0.01119454 0.00766267 0.04971530
v -0.01080955 0.00704744 0.04929938
v -0.01080955 0.00717634 0.05155299
v -0.01119454 0.00766267 0.05131752
v -0.01163178 -0.00032011 0.04905543
v -0.01292203 -0.00050371 0.04954608
v -0.01292203 -0.00050371 0.05143621
v -0.01163178 -0.00032011 0.05192689
v -0.01163207 -0.00055819 0.04901754
v -0.01292231 -0.00074179 0.04950819
v -0.01292231 -0.00074179 0.05139832
v -0.01163207 -0.00055819 0.05188901
v -0.01145607 -0.00103861 0.04913041
v -0.01264488 -0.00120778 0.04958249
v -0.01264488 -0.00120778 0.05132402
v -0.01145607 -0.00103861 0.05177612
v -0.01158307 -0.00019219 0.04953324
v -0.01193741 0.00292116 0.04953305
v -0.01264378 0.00281054 0.04987886
v -0.01253377 -0.00034978 0.04988415
v -0.01253230 -0.00034078 0.05115066
v -0.01264378 0.00281054 0.05115396
v -0.01193741 0.00292116 0.05149979
v -0.01158556 -0.00017512 0.05149909
v -0.01153601 0.00492020 0.04952939
v -0.01233724 0.00518094 0.04986535
v -0.01233831 0.00517761 0.05115912
v -0.01154603 0.00492116 0.05149886
v -0.01070457 0.00699539 0.04952549
v -0.01097171 0.00753924 0.04987026
v -0.01097462 0.00753424 0.05114819
v -0.01072469 0.00712627 0.05131815
v -0.01268000 -0.00061310 0.04970072
v -0.01153243 -0.00043068 0.04927530
v -0.01152945 -0.00038054 0.05168043
v -0.01267215 -0.00057914 0.05125400
v -0.01266625 -0.00067480 0.04968742
v -0.01154220 -0.00053478 0.04926262
v -0.01155123 -0.00049813 0.05165398
v -0.01266637 -0.00064890 0.05123849
v -0.01243737 -0.00105848 0.04974401
v -0.01138053 -0.00095710 0.04935955
v -0.01138052 -0.00095710 0.05154698
v -0.01243738 -0.00105848 0.05116250
v -0.01251217 0.00251257 0.04971529
v -0.01251217 0.00251257 0.05131752
v 0.01532801 0.00251256 0.04971529
v 0.01452036 0.00517503 0.04971530
v 0.01452036 0.00517503 0.05131752
v 0.01532801 0.00251256 0.05131752
v -0.01170452 0.00517504 0.04971530
v -0.01170452 0.00517504 0.05131752
v 0.01560072 -0.00025632 0.04971529
v 0.01560072 -0.00025632 0.05131751
v -0.01039296 0.00762879 0.04971530
v -0.01039296 0.00762879 0.05131752
v 0.01532800 -0.00302520 0.04971529
v 0.01532800 -0.00302520 0.05131751
v -0.00862791 0.00977951 0.04971530
v -0.00862791 0.00977951 0.05131752
v 0.01452035 -0.00568767 0.04971529
v 0.01452035 -0.00568767 0.05131751
v -0.00647718 0.01154458 0.04971530
v -0.00647718 0.01154457 0.05131752
v 0.01320879 -0.00814142 0.04971529
v 0.01320879 -0.00814142 0.05131751
v -0.00402343 0.01285613 0.04971530
v -0.00402343 0.01285613 0.05131752
v -0.00136096 -0.01417640 0.04971529
v 0.00140792 -0.01444911 0.04971529
v 0.00140792 -0.01444911 0.05131751
v -0.00136096 -0.01417640 0.05131751
v 0.01144373 -0.01029215 0.04971529
v 0.01144373 -0.01029215 0.05131751
v -0.00136096 0.01366378 0.04971530
v -0.00136096 0.01366378 0.05131752
v -0.00402343 -0.01336875 0.04971529
v -0.00402343 -0.01336875 0.05131751
v 0.00929300 -0.01205720 0.04971529
v 0.00929300 -0.01205720 0.05131751
v 0.00140792 0.01393649 0.04971530
v 0.00140792 0.01393649 0.05131752
v -0.00647718 -0.01205719 0.04971529
v -0.00647718 -0.01205719 0.05131751
v 0.00683925 -0.01336876 0.04971529
v 0.00683925 -0.01336876 0.05131751
v 0.00417680 0.01366378 0.04971530
v 0.00417680 0.01366378 0.05131752
v -0.00862791 -0.01029214 0.04971529
v -0.00862791 -0.01029214 0.05131751
v 0.00417678 -0.01417640 0.04971529
v 0.00417678 -0.01417640 0.05131751
v 0.00683927 0.01285612 0.04971530
v 0.00683927 0.01285612 0.05131752
v -0.01039296 -0.00814141 0.04971529
v -0.01039296 -0.00814141 0.05131751
v 0.00929302 0.01154457 0.04971530
v 0.00929302 0.01154457 0.05131752
v -0.01170452 -0.00568766 0.04971529
v -0.01170452 -0.00568766 0.05131751
v 0.01144375 0.00977951 0.04971530
v 0.01144375 0.00977951 0.05131752
v -0.01251217 -0.00302519 0.04971529
v -0.01251217 -0.00302519 0.05131751
v 0.01320881 0.00762878 0.04971530
v 0.01320881 0.00762878 0.05131752
v 0.00143246 -0.01312118 0.05173345
v 0.00143246 -0.01292035 0.05246827
v -0.00105344 -0.01267551 0.05246827
v -0.00109262 -0.01287248 0.05173345
v 0.01339038 -0.00513117 0.05173346
v 0.01320484 -0.00505431 0.05246827
v 0.01202731 -0.00725729 0.05246827
v 0.01219430 -0.00736887 0.05173345
v -0.01052546 -0.00513115 0.04929938
v -0.01033991 -0.00505430 0.04856454
v -0.00916240 -0.00725728 0.04856454
v -0.00932939 -0.00736886 0.04929938
v 0.00143246 -0.01312118 0.04929938
v 0.00143246 -0.01292035 0.04856454
v 0.00391835 -0.01267551 0.04856454
v 0.00395753 -0.01287249 0.04929938
v 0.01412693 -0.00270312 0.05173346
v 0.01392995 -0.00266394 0.05246827
v -0.00757773 -0.00918821 0.04856454
v -0.00771974 -0.00933022 0.04929938
v 0.00630873 -0.01195040 0.04856454
v 0.00638558 -0.01213595 0.04929938
v 0.01437563 -0.00017803 0.05173346
v 0.01417479 -0.00017803 0.05246827
v -0.00564680 -0.01077288 0.04856454
v -0.00575837 -0.01093987 0.04929938
v 0.00851171 -0.01077289 0.04856454
v 0.00862329 -0.01093988 0.04929938
v 0.01412693 0.00234706 0.05173346
v 0.01392996 0.00230788 0.05246827
v -0.00344382 -0.01195040 0.04856454
v -0.00352067 -0.01213594 0.04929938
v 0.01044264 -0.00918822 0.04856454
v 0.01058465 -0.00933023 0.04929938
v 0.01339039 0.00477511 0.05173346
v 0.01320484 0.00469825 0.05246827
v -0.00105344 -0.01267551 0.04856454
v -0.00109262 -0.01287248 0.04929938
v 0.01202731 -0.00725729 0.04856454
v 0.01219430 -0.00736887 0.04929938
v 0.01219432 0.00701281 0.05173346
v 0.01202733 0.00690123 0.05246827
v 0.01320484 -0.00505431 0.04856454
v 0.01339038 -0.00513117 0.04929938
v 0.01058467 0.00897418 0.05173346
v 0.01044266 0.00883216 0.05246827
v 0.01392995 -0.00266394 0.04856454
v 0.01412693 -0.00270312 0.04929938
v 0.00862331 0.01058383 0.05173346
v 0.00851173 0.01041684 0.05246827
v 0.01417479 -0.00017803 0.04856454
v 0.01437563 -0.00017803 0.04929938
v 0.00638561 0.01177990 0.05173346
v 0.00630875 0.01159436 0.05246827
v 0.01392996 0.00230788 0.04856454
v 0.01412693 0.00234706 0.04929938
v 0.00395756 0.01251645 0.05173346
v 0.00391837 0.01231947 0.05246827
v 0.01320484 0.00469825 0.04856454
v 0.01339039 0.00477511 0.04929938
v 0.00143247 0.01276515 0.05173346
v 0.00143247 0.01256431 0.05246827
v 0.01202733 0.00690123 0.04856454
v 0.01219432 0.00701281 0.04929938
v -0.00109262 0.01251645 0.05173346
v -0.00105344 0.01231947 0.05246827
v 0.01044266 0.00883217 0.04856454
v 0.01058467 0.00897418 0.04929938
v -0.00352067 0.01177991 0.05173346
v -0.00344381 0.01159436 0.05246827
v 0.00395753 -0.01287249 0.05173345
v -0.00932939 -0.00736886 0.05173345
v -0.01052546 -0.00513115 0.05173346
v -0.00771974 0.00897418 0.04929938
v -0.00932939 0.00701282 0.04929938
v -0.01126200 -0.00270311 0.05173346
v -0.00575837 0.01058383 0.04929938
v -0.01151070 -0.00017802 0.05173346
v -0.00352067 0.01177991 0.04929938
v -0.01126200 0.00234707 0.05173346
v -0.00109262 0.01251645 0.04929938
v -0.01052546 0.00477511 0.05173346
v 0.00143247 0.01276515 0.04929938
v -0.00932939 0.00701282 0.05173346
v 0.00395756 0.01251645 0.04929938
v -0.00771974 0.00897418 0.05173346
v 0.00638561 0.01177991 0.04929938
v -0.00575837 0.01058383 0.05173346
v 0.00862331 0.01058383 0.04929938
v -0.01126200 -0.00270311 0.04929938
v 0.01058465 -0.00933023 0.05173345
v -0.00352067 -0.01213594 0.05173345
v -0.01151070 -0.00017802 0.04929938
v 0.00862329 -0.01093988 0.05173345
v -0.00575837 -0.01093987 0.05173345
v -0.01126200 0.00234707 0.04929938
v 0.00638558 -0.01213595 0.05173345
v -0.00771974 -0.00933022 0.05173345
v -0.01052546 0.00477511 0.04929938
v -0.01033992 0.00469826 0.05246827
v -0.00981024 0.00447886 0.05246827
v -0.00868570 0.00658272 0.05246827
v -0.00916240 0.00690124 0.05246827
v 0.00143247 0.01256431 0.04856454
v 0.00143247 0.01199100 0.04856454
v -0.00094159 0.01175718 0.04856454
v -0.00105344 0.01231947 0.04856454
v -0.01106503 0.00230788 0.05246827
v -0.01050273 0.00219604 0.05246827
v -0.00322442 0.01106469 0.04856454
v -0.00344381 0.01159436 0.04856454
v -0.01130987 -0.00017802 0.05246827
v -0.01073655 -0.00017802 0.05246827
v -0.00532828 0.00994015 0.04856454
v -0.00564679 0.01041684 0.04856454
v -0.01106503 -0.00266393 0.05246827
v -0.01050273 -0.00255208 0.05246827
v -0.00717233 0.00842677 0.04856454
v -0.00757773 0.00883217 0.04856454
v -0.01033991 -0.00505430 0.05246827
v -0.00981024 -0.00483490 0.05246827
v -0.00868570 0.00658272 0.04856454
v -0.00916240 0.00690124 0.04856454
v -0.00916240 -0.00725728 0.05246827
v -0.00868570 -0.00693876 0.05246827
v 0.00391835 -0.01267551 0.05246827
v 0.00380650 -0.01211321 0.05246827
v 0.00143246 -0.01234704 0.05246827
v -0.00981024 0.00447886 0.04856454
v -0.01033992 0.00469826 0.04856454
v -0.00757773 -0.00918821 0.05246827
v -0.00717233 -0.00878281 0.05246827
v 0.00630873 -0.01195040 0.05246827
v 0.00608933 -0.01142073 0.05246827
v -0.01050273 0.00219604 0.04856454
v -0.01106503 0.00230789 0.04856454
v -0.00564680 -0.01077288 0.05246827
v -0.00532828 -0.01029619 0.05246827
v 0.00851171 -0.01077289 0.05246827
v 0.00819319 -0.01029620 0.05246827
v -0.01073655 -0.00017802 0.04856454
v -0.01130987 -0.00017802 0.04856454
v -0.00344382 -0.01195040 0.05246827
v -0.00322442 -0.01142073 0.05246827
v 0.01044264 -0.00918822 0.05246827
v 0.01003725 -0.00878283 0.05246827
v -0.01050273 -0.00255208 0.04856454
v -0.01106503 -0.00266393 0.04856454
v -0.00094159 -0.01211321 0.05246827
v 0.01155062 -0.00693878 0.05246827
v -0.00981024 -0.00483490 0.04856454
v 0.01267516 -0.00483491 0.05246827
v -0.00868570 -0.00693876 0.04856454
v 0.00143246 -0.01234704 0.04856454
v 0.00380650 -0.01211321 0.04856454
v 0.01336765 -0.00255209 0.05246827
v -0.00717233 -0.00878281 0.04856454
v 0.00608933 -0.01142073 0.04856454
v 0.00391837 0.01231947 0.04856454
v -0.00757773 0.00883217 0.05246827
v 0.00630875 0.01159436 0.04856454
v -0.00564679 0.01041684 0.05246827
v 0.00851173 0.01041684 0.04856454
v 0.01336766 0.00219603 0.04856454
v 0.01336766 0.00219603 0.05246827
v 0.01267517 0.00447885 0.05246827
v 0.01267517 0.00447885 0.04856454
v 0.01360148 -0.00017803 0.04856454
v 0.01360148 -0.00017803 0.05246827
v 0.01336765 -0.00255209 0.04856454
v -0.00717233 0.00842677 0.05246827
v 0.01267516 -0.00483491 0.04856454
v -0.00532828 0.00994015 0.05246827
v 0.01155062 -0.00693878 0.04856454
v -0.00322442 0.01106469 0.05246827
v -0.00094159 -0.01211321 0.04856454
v 0.01003725 -0.00878283 0.04856454
v -0.00094159 0.01175718 0.05246827
v -0.00322442 -0.01142072 0.04856454
v 0.00819319 -0.01029620 0.04856454
v 0.00143247 0.01199100 0.05246827
v -0.00532828 -0.01029619 0.04856454
v 0.00380653 0.01175718 0.04856454
v 0.00380653 0.01175717 0.05246827
v 0.00608935 0.01106468 0.04856454
v 0.00608935 0.01106468 0.05246827
v 0.00819321 0.00994014 0.04856454
v 0.00819321 0.00994014 0.05246827
v 0.01003727 0.00842677 0.04856454
v 0.01003727 0.00842677 0.05246827
v 0.01155064 0.00658272 0.04856454
v 0.01155064 0.00658272 0.05246827
v 0.01316336 -0.00259463 0.05091309
v 0.01339366 -0.00025632 0.05091309
v 0.01393028 -0.00025632 0.05045338
v 0.01368966 -0.00269931 0.05045338
v -0.00706728 0.00821889 0.05091310
v -0.00855786 0.00640261 0.05091309
v -0.00900404 0.00670074 0.05045338
v -0.00744673 0.00859833 0.05045338
v 0.01248130 -0.00484307 0.05091309
v 0.01297707 -0.00504842 0.05045338
v -0.00525100 0.00970947 0.05091310
v -0.00554913 0.01015565 0.05045339
v 0.01137369 -0.00691525 0.05091309
v 0.01181987 -0.00721337 0.05045338
v -0.00317882 0.01081707 0.05091310
v -0.00338418 0.01131284 0.05045339
v -0.00093038 -0.01201175 0.05091309
v 0.00140792 -0.01224205 0.05091309
v 0.00140792 -0.01277867 0.05045338
v -0.00103507 -0.01253806 0.05045338
v 0.00988311 -0.00873152 0.05091309
v 0.01026255 -0.00911097 0.05045338
v -0.00093038 0.01149913 0.05091310
v -0.00103507 0.01202544 0.05045339
v -0.00317883 -0.01132969 0.05091309
v -0.00338418 -0.01182546 0.05045338
v 0.00806683 -0.01022210 0.05091309
v 0.00836495 -0.01066828 0.05045338
v 0.00140792 0.01172943 0.05091310
v 0.00140792 0.01226605 0.05045339
v -0.00525100 -0.01022209 0.05091309
v -0.00554913 -0.01066827 0.05045338
v 0.00599465 -0.01132970 0.05091309
v 0.00620000 -0.01182547 0.05045338
v 0.00374623 0.01149913 0.05091310
v 0.00385092 0.01202544 0.05045339
v -0.00706728 -0.00873151 0.05091309
v -0.00744673 -0.00911096 0.05045338
v 0.00374620 -0.01201175 0.05091309
v 0.00385089 -0.01253806 0.05045338
v 0.00599467 0.01081707 0.05091310
v 0.00620002 0.01131284 0.05045339
v -0.00855786 -0.00691523 0.05091309
v -0.00900404 -0.00721336 0.05045338
v 0.00806685 0.00970947 0.05091310
v 0.00836498 0.01015565 0.05045339
v -0.00966546 -0.00484306 0.05091309
v -0.01016123 -0.00504841 0.05045338
v 0.00988312 0.00821888 0.05091310
v 0.01026257 0.00859833 0.05045338
v -0.01034752 -0.00259461 0.05091309
v -0.01087383 -0.00269930 0.05045338
v 0.01137370 0.00640260 0.05091309
v 0.01181989 0.00670073 0.05045338
v -0.01057782 -0.00025631 0.05091309
v -0.01111444 -0.00025631 0.05045338
v 0.01248130 0.00433043 0.05091309
v 0.01297708 0.00453578 0.05045338
v -0.01034752 0.00208199 0.05091309
v -0.01087383 0.00218668 0.05045338
v 0.01316336 0.00208198 0.05091309
v 0.01368967 0.00218667 0.05045338
v -0.00966546 0.00433043 0.05091309
v -0.01016124 0.00453579 0.05045338
v -0.01008907 -0.00793835 0.05045338
v -0.01136685 -0.00554779 0.05045338
v 0.00908997 0.01124068 0.05045339
v 0.01118532 0.00952107 0.05045339
v -0.01215371 -0.00295389 0.05045338
v 0.01290492 0.00742573 0.05045338
v -0.01241940 -0.00025631 0.05045338
v 0.01418270 0.00503516 0.05045338
v -0.01215371 0.00244126 0.05045338
v 0.01496955 0.00244125 0.05045338
v -0.01136685 0.00503517 0.05045338
v 0.01523523 -0.00025632 0.05045338
v -0.01008907 0.00742573 0.05045338
v 0.01496954 -0.00295390 0.05045338
v -0.00836947 0.00952108 0.05045339
v 0.01418269 -0.00554781 0.05045338
v -0.00627412 0.01124068 0.05045339
v 0.01290490 -0.00793837 0.05045338
v -0.00388356 0.01251846 0.05045339
v 0.00140792 -0.01408362 0.05045338
v -0.00128966 -0.01381794 0.05045338
v 0.01118529 -0.01003371 0.05045338
v -0.00128965 0.01330532 0.05045339
v -0.00388357 -0.01303108 0.05045338
v 0.00908995 -0.01175331 0.05045338
v 0.00140792 0.01357101 0.05045339
v -0.00627413 -0.01175330 0.05045338
v 0.00669938 -0.01303109 0.05045338
v 0.00410550 0.01330532 0.05045339
v -0.00836947 -0.01003370 0.05045338
v 0.00410547 -0.01381794 0.05045338
v 0.00669941 0.01251846 0.05045339
v -0.01241940 -0.00025631 0.05129343
v -0.01215371 0.00244126 0.05129343
v 0.01418270 0.00503516 0.05129344
v 0.01496955 0.00244125 0.05129343
v -0.01136685 0.00503517 0.05129344
v 0.01523523 -0.00025632 0.05129343
v -0.01008907 0.00742573 0.05129344
v 0.01496954 -0.00295390 0.05129343
v -0.00836947 0.00952108 0.05129344
v 0.01418269 -0.00554781 0.05129343
v -0.00627412 0.01124068 0.05129344
v 0.01290490 -0.00793837 0.05129343
v -0.00388356 0.01251846 0.05129344
v 0.00140792 -0.01408362 0.05129343
v -0.00128966 -0.01381794 0.05129343
v 0.01118529 -0.01003371 0.05129343
v -0.00128965 0.01330532 0.05129344
v -0.00388357 -0.01303108 0.05129343
v 0.00908995 -0.01175331 0.05129343
v 0.00140792 0.01357101 0.05129344
v -0.00627413 -0.01175330 0.05129343
v 0.00669938 -0.01303109 0.05129343
v 0.00410550 0.01330532 0.05129344
v -0.00836947 -0.01003370 0.05129343
v 0.00410547 -0.01381794 0.05129343
v 0.00669941 0.01251846 0.05129344
v -0.01008907 -0.00793835 0.05129343
v 0.00908997 0.01124068 0.05129344
v -0.01136685 -0.00554779 0.05129343
v 0.01118532 0.00952107 0.05129344
v -0.01215371 -0.00295389 0.05129343
v 0.01290492 0.00742573 0.05129344
v -0.00916179 0.00680614 0.05171883
v -0.00758088 0.00873248 0.05171883
v 0.01387573 -0.00273633 0.05171883
v 0.01315234 -0.00512102 0.05171883
v -0.00565453 0.01031340 0.05171883
v 0.01197761 -0.00731877 0.05171883
v -0.00345678 0.01148812 0.05171883
v 0.00140792 -0.01296839 0.05171883
v -0.00107208 -0.01272413 0.05171883
v 0.01039670 -0.00924512 0.05171883
v -0.00107208 0.01221151 0.05171883
v -0.00345678 -0.01200074 0.05171883
v 0.00847036 -0.01082603 0.05171883
v 0.00140792 0.01245576 0.05171883
v -0.00565453 -0.01082601 0.05171883
v 0.00627260 -0.01200074 0.05171883
v 0.00388793 0.01221151 0.05171883
v -0.00758088 -0.00924511 0.05171883
v 0.00388790 -0.01272413 0.05171883
v 0.00627263 0.01148811 0.05171883
v -0.00916179 -0.00731876 0.05171883
v 0.00847038 0.01031339 0.05171883
v -0.01033651 -0.00512101 0.05171883
v 0.01039672 0.00873248 0.05171883
v -0.01105990 -0.00273631 0.05171883
v 0.01197763 0.00680613 0.05171883
v -0.01130416 -0.00025631 0.05171883
v 0.01315235 0.00460838 0.05171883
v -0.01105990 0.00222369 0.05171883
v 0.01387574 0.00222368 0.05171883
v -0.01033651 0.00460839 0.05171883
v 0.01411999 -0.00025632 0.05171883
v -0.00339258 0.01133313 0.05449447
v -0.00103935 0.01204697 0.05449447
v -0.00103936 -0.01255959 0.05449447
v -0.00339259 -0.01184575 0.05449447
v 0.01027808 -0.00912650 0.05449447
v 0.00837716 -0.01068654 0.05449447
v 0.00140792 0.01228801 0.05449447
v -0.00556133 -0.01068653 0.05449447
v 0.00620840 -0.01184576 0.05449447
v 0.00385520 0.01204697 0.05449447
v -0.00746226 -0.00912648 0.05449447
v 0.00385517 -0.01255960 0.05449447
v 0.00620843 0.01133312 0.05449447
v -0.00902230 -0.00722556 0.05449447
v 0.00140792 -0.01280063 0.05449447
v 0.00837718 0.01017391 0.05449447
v -0.01018152 -0.00505681 0.05449447
v 0.01027810 0.00861386 0.05449447
v -0.01089537 -0.00270359 0.05449447
v 0.01183814 0.00671293 0.05449447
v -0.01113640 -0.00025631 0.05449447
v 0.01299736 0.00454418 0.05449447
v -0.01089537 0.00219096 0.05449447
v 0.01371120 0.00219095 0.05449447
v -0.01018152 0.00454419 0.05449447
v 0.01395224 -0.00025632 0.05449447
v -0.00902230 0.00671294 0.05449447
v 0.01371120 -0.00270360 0.05449447
v -0.00746226 0.00861386 0.05449447
v 0.01299735 -0.00505683 0.05449447
v -0.00556133 0.01017391 0.05449447
v 0.01183813 -0.00722557 0.05449447
v 0.01236580 -0.00479523 0.05449447
v 0.01304075 -0.00257024 0.05449447
v 0.01271329 -0.00250510 0.05289291
v 0.01205734 -0.00466746 0.05289291
v 0.00140792 -0.01211704 0.05449447
v -0.00090599 -0.01188914 0.05449447
v -0.00313099 -0.01121419 0.05449447
v -0.00518155 -0.01011814 0.05449447
v -0.00697888 -0.00864311 0.05449447
v -0.00845392 -0.00684578 0.05449447
v -0.00954996 -0.00479522 0.05449447
v -0.01022491 -0.00257022 0.05449447
v -0.01045281 -0.00025631 0.05449447
v -0.01022491 0.00205760 0.05449447
v -0.00954996 0.00428259 0.05449447
v -0.00845392 0.00633316 0.05449447
v -0.00697888 0.00813049 0.05449447
v -0.00518155 0.00960553 0.05449447
v -0.00313098 0.01070157 0.05449447
v -0.00090599 0.01137652 0.05449447
v 0.00140792 0.01160442 0.05449447
v 0.00372184 0.01137652 0.05449447
v 0.00594683 0.01070157 0.05449447
v 0.00799739 0.00960552 0.05449447
v 0.00979473 0.00813049 0.05449447
v 0.01126976 0.00633315 0.05449447
v 0.01236581 0.00428258 0.05449447
v 0.01304075 0.00205759 0.05449447
v 0.01326865 -0.00025632 0.05449447
v 0.01126975 -0.00684579 0.05449447
v 0.00979471 -0.00864312 0.05449447
v 0.00799737 -0.01011816 0.05449447
v 0.00594681 -0.01121420 0.05449447
v 0.00372181 -0.01188914 0.05449447
v -0.00674280 0.00789440 0.05289291
v -0.00499606 0.00932792 0.05289291
v 0.01099214 -0.00666030 0.05289291
v -0.00300322 0.01039312 0.05289291
v 0.00140792 -0.01178316 0.05289291
v -0.00084086 -0.01156168 0.05289291
v 0.00955863 -0.00840704 0.05289291
v -0.00084086 0.01104906 0.05289291
v -0.00300322 -0.01090574 0.05289291
v 0.00781188 -0.00984055 0.05289291
v 0.00140792 0.01127054 0.05289291
v -0.00499606 -0.00984054 0.05289291
v 0.00581904 -0.01090574 0.05289291
v 0.00365670 0.01104906 0.05289291
v -0.00674280 -0.00840703 0.05289291
v 0.00365668 -0.01156168 0.05289291
v 0.00581906 0.01039311 0.05289291
v -0.00817631 -0.00666029 0.05289291
v 0.00781190 0.00932792 0.05289291
v -0.00924150 -0.00466745 0.05289291
v 0.00955864 0.00789440 0.05289291
v -0.00989745 -0.00250509 0.05289291
v 0.01099215 0.00614766 0.05289291
v -0.01011894 -0.00025631 0.05289291
v 0.01205735 0.00415482 0.05289291
v -0.00989745 0.00199247 0.05289291
v 0.01271329 0.00199246 0.05289291
v -0.00924151 0.00415482 0.05289291
v 0.01293477 -0.00025632 0.05289291
v -0.00817631 0.00614767 0.05289291
v 0.00140792 -0.00025630 0.00000000
v 0.00140792 -0.01202848 0.00000000
v -0.00088872 -0.01180228 0.00000000
v -0.00309710 -0.01113238 0.00000000
v -0.00513235 -0.01004451 0.00000000
v -0.00691627 -0.00858049 0.00000000
v -0.00838029 -0.00679657 0.00000000
v -0.00946816 -0.00476132 0.00000000
v -0.01013806 -0.00255294 0.00000000
v -0.01036426 -0.00025630 0.00000000
v -0.01013806 0.00204033 0.00000000
v -0.00946816 0.00424871 0.00000000
v -0.00838029 0.00628397 0.00000000
v -0.00691627 0.00806788 0.00000000
v -0.00513235 0.00953191 0.00000000
v -0.00309710 0.01061977 0.00000000
v -0.00088872 0.01128968 0.00000000
v 0.00140792 0.01151588 0.00000000
v 0.00370456 0.01128968 0.00000000
v 0.00591294 0.01061977 0.00000000
v 0.00794820 0.00953190 0.00000000
v 0.00973211 0.00806788 0.00000000
v 0.01119613 0.00628396 0.00000000
v 0.01228400 0.00424871 0.00000000
v 0.01295390 0.00204033 0.00000000
v 0.01318010 -0.00025631 0.00000000
v 0.01295390 -0.00255295 0.00000000
v 0.01228399 -0.00476133 0.00000000
v 0.01119612 -0.00679659 0.00000000
v 0.00973209 -0.00858050 0.00000000
v 0.00794818 -0.01004452 0.00000000
v 0.00591292 -0.01113238 0.00000000
v 0.00370454 -0.01180228 0.00000000
v -0.00945556 0.00700243 0.05026297
v -0.00783071 0.00898232 0.05026297
v -0.00839230 0.00954391 0.05048892
v -0.01011592 0.00744367 0.05048892
v -0.00802039 -0.00968462 0.04944113
v -0.00599986 -0.01134283 0.04944113
v -0.00615546 -0.01157570 0.04944113
v -0.00821843 -0.00988266 0.04944113
v 0.01447331 -0.00025632 0.05026297
v 0.01422226 -0.00280526 0.05026297
v 0.01500121 -0.00296020 0.05026297
v 0.01526752 -0.00025632 0.05026297
v 0.00400916 -0.01333376 0.04944113
v 0.00651047 -0.01257500 0.04944113
v 0.00661764 -0.01283375 0.04944113
v 0.00406380 -0.01360845 0.04944113
v -0.00967860 -0.00766408 0.04944113
v -0.00991148 -0.00781969 0.04944113
v -0.00783071 -0.00949494 0.05026297
v -0.00945556 -0.00751505 0.05026297
v -0.01011592 -0.00795629 0.05026297
v -0.00839230 -0.01005653 0.05026297
v 0.00140792 -0.01358995 0.04944113
v 0.00140792 -0.01387003 0.04944113
v -0.01091076 -0.00535887 0.04944113
v -0.01116952 -0.00546605 0.04944113
v 0.00395686 0.01255804 0.05026297
v 0.00640784 0.01181454 0.05026297
v 0.00671177 0.01254829 0.05048892
v 0.00411180 0.01333699 0.05048892
v 0.00640781 -0.01232717 0.05026297
v 0.00395683 -0.01307066 0.05026297
v 0.00411177 -0.01384961 0.05026297
v 0.00671174 -0.01306092 0.05026297
v -0.01166952 -0.00285758 0.04944113
v -0.01194422 -0.00291222 0.04966707
v -0.01066293 0.00474360 0.05026297
v -0.01139669 0.00504753 0.05048892
v -0.01192573 -0.00025631 0.04966707
v -0.01220580 -0.00025631 0.04966707
v 0.01422227 0.00229261 0.05026297
v 0.01500122 0.00244755 0.05026297
v -0.01166952 0.00234495 0.04966707
v -0.01194422 0.00239959 0.04966707
v -0.00585083 -0.01111979 0.05026297
v -0.00629206 -0.01178015 0.05026297
v -0.01091076 0.00484625 0.04966707
v -0.01116952 0.00495343 0.04966707
v 0.00140792 0.01280909 0.05026297
v 0.00140792 0.01360329 0.05048892
v 0.00866665 -0.01111980 0.05026297
v 0.00910789 -0.01178016 0.05026297
v -0.00967860 0.00715146 0.04966707
v -0.00991148 0.00730707 0.04966707
v -0.01140643 0.00229262 0.05026297
v -0.01218538 0.00244756 0.05048892
v -0.00802039 0.00917200 0.04966707
v -0.00821843 0.00937004 0.04966707
v 0.01347877 0.00474359 0.05026297
v 0.01421253 0.00504752 0.05048892
v -0.00599986 0.01083021 0.04966707
v -0.00615546 0.01106309 0.04966707
v -0.00359199 -0.01232716 0.05026297
v -0.00389592 -0.01306091 0.05026297
v -0.00369464 0.01206237 0.04966707
v -0.00380182 0.01232113 0.04966707
v -0.00114101 0.01255804 0.05026297
v -0.00129595 0.01333699 0.05048892
v 0.01064654 -0.00949495 0.05026297
v 0.01120813 -0.01005654 0.05026297
v -0.00119334 0.01282113 0.04944113
v -0.00124798 0.01309583 0.04966707
v -0.01165748 -0.00025631 0.05026297
v -0.01245168 -0.00025631 0.05048892
v 0.00140792 0.01307734 0.04966707
v 0.00140792 0.01335741 0.04966707
v 0.01227141 0.00700243 0.05026297
v 0.01293176 0.00744367 0.05048892
v 0.00422407 -0.01441416 0.00554994
v 0.00454151 -0.01601006 0.01109988
v 0.00140792 -0.01631869 0.01109989
v 0.00140792 -0.01469152 0.00554994
v 0.00448105 -0.01570612 0.04127969
v 0.00454151 -0.01601007 0.04246283
v 0.00140792 -0.01631870 0.04246283
v 0.00140792 -0.01600880 0.04127970
v 0.00693202 -0.01359272 0.00554994
v 0.00755471 -0.01509603 0.01109988
v 0.00743611 -0.01480972 0.04127969
v 0.00755471 -0.01509603 0.04246283
v 0.00942768 -0.01225876 0.00554994
v 0.01033169 -0.01361170 0.01109988
v 0.01015951 -0.01335403 0.04127969
v 0.01033169 -0.01361171 0.04246283
v 0.01161515 -0.01046356 0.00554994
v 0.01276573 -0.01161414 0.01109988
v 0.01254659 -0.01139501 0.04127969
v 0.01276573 -0.01161415 0.04246283
v 0.01341036 -0.00827610 0.00554994
v 0.01476330 -0.00918011 0.01109988
v 0.01450562 -0.00900794 0.04127969
v 0.01476330 -0.00918011 0.04246283
v 0.01474432 -0.00578044 0.00554994
v 0.01624763 -0.00640313 0.01109988
v 0.01596131 -0.00628454 0.04127969
v 0.01624763 -0.00640314 0.04246283
v 0.01556577 -0.00307249 0.00554994
v 0.01716167 -0.00338994 0.01109989
v 0.01685772 -0.00332948 0.04127969
v 0.01716167 -0.00338994 0.04246283
v 0.01584314 -0.00025632 0.00554994
v 0.01747031 -0.00025632 0.01109989
v 0.01716041 -0.00025632 0.04127969
v 0.01747031 -0.00025632 0.04246283
v 0.01556577 0.00255986 0.00554994
v 0.01716168 0.00287730 0.01109989
v 0.01685773 0.00281684 0.04127969
v 0.01716168 0.00287730 0.04246283
v 0.01474433 0.00526781 0.00554994
v 0.01624764 0.00589050 0.01109989
v 0.01596132 0.00577190 0.04127969
v 0.01624764 0.00589049 0.04246283
v 0.01341037 0.00776347 0.00554994
v 0.01476332 0.00866747 0.01109989
v 0.01450564 0.00849530 0.04127969
v 0.01476332 0.00866747 0.04246283
v 0.01161517 0.00995093 0.00554994
v 0.01276575 0.01110152 0.01109989
v 0.01254662 0.01088238 0.04127969
v 0.01276575 0.01110151 0.04246283
v 0.00942770 0.01174614 0.00554994
v 0.01033171 0.01309908 0.01109989
v 0.01015954 0.01284140 0.04127969
v 0.01033171 0.01309908 0.04246283
v 0.00693205 0.01308010 0.00554994
v 0.00755474 0.01458341 0.01109989
v 0.00743614 0.01429709 0.04127969
v 0.00755474 0.01458340 0.04246283
v 0.00422410 0.01390155 0.00554994
v 0.00454154 0.01549745 0.01109989
v 0.00448108 0.01519350 0.04127969
v 0.00454154 0.01549745 0.04246283
v 0.00140792 0.01417892 0.00554994
v 0.00140792 0.01580609 0.01109989
v 0.00140792 0.01549618 0.04127969
v 0.00140792 0.01580608 0.04246283
v -0.00140825 0.01390155 0.00554994
v -0.00172569 0.01549745 0.01109989
v -0.00166524 0.01519350 0.04127969
v -0.00172569 0.01549745 0.04246283
v -0.00411620 0.01308010 0.00554994
v -0.00473889 0.01458341 0.01109989
v -0.00462030 0.01429709 0.04127969
v -0.00473889 0.01458341 0.04246283
v -0.00661186 0.01174615 0.00554994
v -0.00751587 0.01309909 0.01109989
v -0.00734369 0.01284141 0.04127969
v -0.00751587 0.01309908 0.04246283
v -0.00879932 0.00995094 0.00554994
v -0.00994991 0.01110152 0.01109989
v -0.00973077 0.01088238 0.04127969
v -0.00994991 0.01110152 0.04246283
v -0.01059453 0.00776348 0.00554994
v -0.01194747 0.00866748 0.01109989
v -0.01168980 0.00849530 0.04127969
v -0.01194747 0.00866748 0.04246283
v -0.01192849 0.00526782 0.00554994
v -0.01343180 0.00589051 0.01109989
v -0.01314548 0.00577191 0.04127969
v -0.01343180 0.00589050 0.04246283
v -0.01274993 0.00255987 0.00554994
v -0.01434584 0.00287731 0.01109989
v -0.01404189 0.00281685 0.04127969
v -0.01434584 0.00287731 0.04246283
v -0.01302730 -0.00025630 0.00554994
v -0.01465447 -0.00025630 0.01109989
v -0.01434457 -0.00025631 0.04127969
v -0.01465447 -0.00025631 0.04246283
v -0.01274993 -0.00307247 0.00554994
v -0.01434584 -0.00338992 0.01109989
v -0.01404189 -0.00332947 0.04127969
v -0.01434584 -0.00338993 0.04246283
v -0.01192849 -0.00578042 0.00554994
v -0.01343179 -0.00640311 0.01109988
v -0.01314548 -0.00628452 0.04127969
v -0.01343179 -0.00640312 0.04246283
v -0.01059453 -0.00827608 0.00554994
v -0.01194747 -0.00918009 0.01109988
v -0.01168980 -0.00900792 0.04127969
v -0.01194747 -0.00918009 0.04246283
v -0.00879932 -0.01046355 0.00554994
v -0.00994991 -0.01161413 0.01109988
v -0.00973077 -0.01139500 0.04127969
v -0.00994991 -0.01161413 0.04246283
v -0.00661186 -0.01225875 0.00554994
v -0.00751587 -0.01361169 0.01109988
v -0.00734369 -0.01335402 0.04127969
v -0.00751587 -0.01361170 0.04246283
v -0.00411620 -0.01359271 0.00554994
v -0.00473889 -0.01509602 0.01109988
v -0.00462030 -0.01480971 0.04127969
v -0.00473889 -0.01509602 0.04246283
v -0.00140825 -0.01441415 0.00554994
v -0.00172570 -0.01601006 0.01109988
v -0.00166524 -0.01570612 0.04127969
v -0.00172570 -0.01601006 0.04246283
v 0.00140792 -0.01600879 0.01228302
v -0.00166524 -0.01570611 0.01228302
v -0.00462030 -0.01480970 0.01228302
v -0.00734369 -0.01335402 0.01228302
v -0.00973077 -0.01139499 0.01228302
v -0.01168980 -0.00900792 0.01228302
v -0.01314548 -0.00628452 0.01228302
v -0.01404189 -0.00332946 0.01228302
v -0.01434457 -0.00025630 0.01228302
v -0.01404189 0.00281685 0.01228302
v -0.01314548 0.00577191 0.01228302
v -0.01168980 0.00849531 0.01228302
v -0.00973077 0.01088239 0.01228302
v -0.00734369 0.01284141 0.01228302
v -0.00462030 0.01429710 0.01228302
v -0.00166524 0.01519351 0.01228302
v 0.00140792 0.01549619 0.01228302
v 0.00448108 0.01519350 0.01228302
v 0.00743614 0.01429710 0.01228302
v 0.01015954 0.01284141 0.01228302
v 0.01254662 0.01088238 0.01228302
v 0.01450564 0.00849530 0.01228302
v 0.01596132 0.00577190 0.01228302
v 0.01685773 0.00281684 0.01228302
v 0.01716041 -0.00025632 0.01228302
v 0.01685772 -0.00332948 0.01228302
v 0.01596131 -0.00628453 0.01228302
v 0.01450562 -0.00900793 0.01228302
v 0.01254659 -0.01139501 0.01228302
v 0.01015951 -0.01335403 0.01228302
v 0.00743611 -0.01480971 0.01228302
v 0.00448105 -0.01570611 0.01228302
v 0.00430482 -0.01482011 0.04668796
v 0.00140792 -0.01510543 0.04668796
v 0.00709041 -0.01397512 0.04668796
v 0.00965763 -0.01260291 0.04668796
v 0.01190782 -0.01075624 0.04668796
v 0.01375450 -0.00850606 0.04668796
v 0.01512671 -0.00593884 0.04668796
v 0.01597172 -0.00315324 0.04668796
v 0.01625704 -0.00025632 0.04668796
v 0.01597172 0.00264060 0.04668796
v 0.01512672 0.00542619 0.04668796
v 0.01375452 0.00799341 0.04668796
v 0.01190784 0.01024360 0.04668796
v 0.00965766 0.01209028 0.04668796
v 0.00709044 0.01346249 0.04668796
v 0.00430484 0.01430749 0.04668796
v 0.00140792 0.01459282 0.04668796
v -0.00148900 0.01430749 0.04668796
v -0.00427459 0.01346249 0.04668796
v -0.00684181 0.01209029 0.04668796
v -0.00909200 0.01024361 0.04668796
v -0.01093867 0.00799342 0.04668796
v -0.01231088 0.00542620 0.04668796
v -0.01315588 0.00264061 0.04668796
v -0.01344120 -0.00025631 0.04668796
v -0.01315588 -0.00315323 0.04668796
v -0.01231088 -0.00593882 0.04668796
v -0.01093867 -0.00850604 0.04668796
v -0.00909200 -0.01075622 0.04668796
v -0.00684181 -0.01260290 0.04668796
v -0.00427459 -0.01397511 0.04668796
v -0.00148900 -0.01482011 0.04668796
v 0.00881568 -0.01134284 0.04944113
v 0.01083622 -0.00968463 0.04944113
v 0.01249443 -0.00766410 0.04944113
v 0.01372659 -0.00535889 0.04944113
v 0.01448536 -0.00285759 0.04944113
v 0.01474156 -0.00025632 0.04944113
v 0.01448536 0.00234494 0.04944113
v 0.01372660 0.00484625 0.04966707
v 0.01249445 0.00715146 0.04966707
v 0.01083624 0.00917199 0.04966707
v 0.00881570 0.01083021 0.04966707
v 0.00651049 0.01206237 0.04966707
v 0.00400919 0.01282113 0.04966707
v -0.00369465 -0.01257499 0.04944113
v -0.00119335 -0.01333375 0.04944113
v 0.00140792 -0.01411591 0.05026297
v -0.00129596 -0.01384960 0.05026297
v -0.00124799 -0.01360844 0.04944113
v -0.00380183 -0.01283375 0.04944113
v -0.01139669 -0.00556015 0.05026297
v -0.01218538 -0.00296019 0.05048892
v -0.00629206 0.01126753 0.05048892
v -0.00389592 0.01254830 0.05048892
v 0.00406383 0.01309583 0.04966707
v 0.00661767 0.01232112 0.04966707
v 0.00910791 0.01126753 0.05048892
v 0.00897130 0.01106308 0.04966707
v 0.01120815 0.00954390 0.05048892
v 0.01103428 0.00937004 0.04966707
v 0.01272732 0.00730706 0.04966707
v 0.01398536 0.00495342 0.04966707
v 0.01476006 0.00239958 0.04944113
v 0.01502164 -0.00025632 0.04944113
v 0.01476005 -0.00291223 0.04944113
v 0.01421252 -0.00556016 0.05026297
v 0.01398535 -0.00546607 0.04944113
v 0.01293175 -0.00795631 0.05026297
v 0.01272730 -0.00781970 0.04944113
v 0.01103426 -0.00988268 0.04944113
v 0.00897128 -0.01157571 0.04944113
v 0.00140792 -0.01332171 0.05026297
v 0.00866667 0.01060717 0.05026297
v -0.01066293 -0.00525622 0.05026297
v 0.01347876 -0.00525623 0.05026297
v -0.00585083 0.01060717 0.05026297
v 0.01064656 0.00898232 0.05026297
v -0.01140643 -0.00280524 0.05026297
v -0.00114101 -0.01307066 0.05026297
v 0.01227139 -0.00751507 0.05026297
v -0.00359199 0.01181454 0.05026297
f 1 2 3
f 1 3 4
f 5 6 7
f 5 7 8
f 5 8 3
f 5 3 2
f 4 3 9
f 4 9 10
f 8 7 11
f 8 11 12
f 8 12 9
f 8 9 3
f 10 9 13
f 10 13 14
f 12 11 15
f 12 15 16
f 12 16 13
f 12 13 9
f 2 1 17
f 2 17 18
f 6 5 19
f 6 19 20
f 2 18 19
f 2 19 5
f 18 17 21
f 18 21 22
f 20 19 23
f 20 23 24
f 18 22 23
f 18 23 19
f 22 21 25
f 22 25 26
f 24 23 27
f 24 27 28
f 23 22 26
f 23 26 27
f 29 30 31
f 29 31 32
f 33 34 35
f 33 35 36
f 33 32 31
f 33 31 34
f 30 37 38
f 30 38 31
f 34 39 40
f 34 40 35
f 34 31 38
f 34 38 39
f 37 41 42
f 37 42 38
f 39 43 44
f 39 44 40
f 39 38 42
f 39 42 43
f 32 45 46
f 32 46 29
f 36 47 48
f 36 48 33
f 32 33 48
f 32 48 45
f 45 49 50
f 45 50 46
f 47 51 52
f 47 52 48
f 45 48 52
f 45 52 49
f 49 53 54
f 49 54 50
f 51 55 56
f 51 56 52
f 52 56 53
f 52 53 49
f 1 4 30
f 1 30 29
f 7 6 36
f 7 36 35
f 4 10 37
f 4 37 30
f 11 7 35
f 11 35 40
f 13 16 43
f 13 43 42
f 16 15 44
f 16 44 43
f 14 13 42
f 14 42 41
f 10 14 41
f 10 41 37
f 15 11 40
f 15 40 44
f 17 1 29
f 17 29 46
f 6 20 47
f 6 47 36
f 21 17 46
f 21 46 50
f 20 24 51
f 20 51 47
f 26 25 54
f 26 54 53
f 28 27 56
f 28 56 55
f 27 26 53
f 27 53 56
f 25 21 50
f 25 50 54
f 24 28 55
f 24 55 51
f 57 2 5
f 57 5 58
f 59 60 61
f 59 61 62
f 63 57 58
f 63 58 64
f 65 59 62
f 65 62 66
f 67 63 64
f 67 64 68
f 69 65 66
f 69 66 70
f 71 67 68
f 71 68 72
f 73 69 70
f 73 70 74
f 75 71 72
f 75 72 76
f 77 73 74
f 77 74 78
f 79 75 76
f 79 76 80
f 81 82 83
f 81 83 84
f 85 77 78
f 85 78 86
f 87 79 80
f 87 80 88
f 89 81 84
f 89 84 90
f 91 85 86
f 91 86 92
f 93 87 88
f 93 88 94
f 95 89 90
f 95 90 96
f 97 91 92
f 97 92 98
f 99 93 94
f 99 94 100
f 101 95 96
f 101 96 102
f 103 97 98
f 103 98 104
f 105 99 100
f 105 100 106
f 107 101 102
f 107 102 108
f 82 103 104
f 82 104 83
f 109 105 106
f 109 106 110
f 111 107 108
f 111 108 112
f 113 109 110
f 113 110 114
f 115 111 112
f 115 112 116
f 117 113 114
f 117 114 118
f 2 115 116
f 2 116 5
f 60 117 118
f 60 118 61
f 119 120 121
f 119 121 122
f 123 124 125
f 123 125 126
f 127 128 129
f 127 129 130
f 131 132 133
f 131 133 134
f 135 136 124
f 135 124 123
f 130 129 137
f 130 137 138
f 134 133 139
f 134 139 140
f 141 142 136
f 141 136 135
f 138 137 143
f 138 143 144
f 140 139 145
f 140 145 146
f 147 148 142
f 147 142 141
f 144 143 149
f 144 149 150
f 146 145 151
f 146 151 152
f 153 154 148
f 153 148 147
f 150 149 155
f 150 155 156
f 152 151 157
f 152 157 158
f 159 160 154
f 159 154 153
f 156 155 132
f 156 132 131
f 158 157 161
f 158 161 162
f 163 164 160
f 163 160 159
f 162 161 165
f 162 165 166
f 167 168 164
f 167 164 163
f 166 165 169
f 166 169 170
f 171 172 168
f 171 168 167
f 170 169 173
f 170 173 174
f 175 176 172
f 175 172 171
f 174 173 177
f 174 177 178
f 179 180 176
f 179 176 175
f 178 177 181
f 178 181 182
f 183 184 180
f 183 180 179
f 182 181 185
f 182 185 186
f 187 188 184
f 187 184 183
f 104 189 119
f 104 119 83
f 108 190 191
f 108 191 112
f 71 192 193
f 71 193 67
f 112 191 194
f 112 194 116
f 75 195 192
f 75 192 71
f 116 194 196
f 116 196 5
f 79 197 195
f 79 195 75
f 5 196 198
f 5 198 58
f 87 199 197
f 87 197 79
f 58 198 200
f 58 200 64
f 93 201 199
f 93 199 87
f 64 200 202
f 64 202 68
f 99 203 201
f 99 201 93
f 68 202 204
f 68 204 72
f 105 205 203
f 105 203 99
f 72 204 206
f 72 206 76
f 109 207 205
f 109 205 105
f 76 206 187
f 76 187 80
f 113 186 207
f 113 207 109
f 80 187 183
f 80 183 88
f 117 182 186
f 117 186 113
f 88 183 179
f 88 179 94
f 60 178 182
f 60 182 117
f 94 179 175
f 94 175 100
f 59 174 178
f 59 178 60
f 100 175 171
f 100 171 106
f 65 170 174
f 65 174 59
f 106 171 167
f 106 167 110
f 69 166 170
f 69 170 65
f 110 167 163
f 110 163 114
f 73 162 166
f 73 166 69
f 114 163 159
f 114 159 118
f 77 158 162
f 77 162 73
f 81 156 131
f 81 131 82
f 118 159 153
f 118 153 61
f 85 152 158
f 85 158 77
f 89 150 156
f 89 156 81
f 61 153 147
f 61 147 62
f 91 146 152
f 91 152 85
f 95 144 150
f 95 150 89
f 62 147 141
f 62 141 66
f 97 140 146
f 97 146 91
f 101 138 144
f 101 144 95
f 66 141 135
f 66 135 70
f 103 134 140
f 103 140 97
f 107 130 138
f 107 138 101
f 70 135 123
f 70 123 74
f 82 131 134
f 82 134 103
f 111 127 130
f 111 130 107
f 74 123 126
f 74 126 78
f 83 119 122
f 83 122 84
f 115 208 127
f 115 127 111
f 78 126 209
f 78 209 86
f 84 122 210
f 84 210 90
f 2 211 208
f 2 208 115
f 86 209 212
f 86 212 92
f 90 210 213
f 90 213 96
f 57 214 211
f 57 211 2
f 92 212 215
f 92 215 98
f 96 213 216
f 96 216 102
f 63 217 214
f 63 214 57
f 98 215 189
f 98 189 104
f 102 216 190
f 102 190 108
f 67 193 217
f 67 217 63
f 218 219 220
f 218 220 221
f 222 223 224
f 222 224 225
f 226 227 219
f 226 219 218
f 225 224 228
f 225 228 229
f 230 231 227
f 230 227 226
f 229 228 232
f 229 232 233
f 234 235 231
f 234 231 230
f 233 232 236
f 233 236 237
f 238 239 235
f 238 235 234
f 237 236 240
f 237 240 241
f 242 243 239
f 242 239 238
f 244 245 246
f 244 246 120
f 241 240 247
f 241 247 248
f 249 250 243
f 249 243 242
f 251 252 245
f 251 245 244
f 248 247 253
f 248 253 254
f 255 256 250
f 255 250 249
f 257 258 252
f 257 252 251
f 254 253 259
f 254 259 260
f 261 262 256
f 261 256 255
f 263 264 258
f 263 258 257
f 260 259 265
f 260 265 266
f 121 267 262
f 121 262 261
f 125 268 264
f 125 264 263
f 266 265 269
f 266 269 128
f 120 246 267
f 120 267 121
f 124 270 268
f 124 268 125
f 128 269 271
f 128 271 129
f 132 272 273
f 132 273 133
f 136 274 270
f 136 270 124
f 129 271 275
f 129 275 137
f 133 273 276
f 133 276 139
f 208 266 128
f 208 128 127
f 126 125 263
f 126 263 209
f 122 121 261
f 122 261 210
f 211 260 266
f 211 266 208
f 209 263 257
f 209 257 212
f 210 261 255
f 210 255 213
f 214 254 260
f 214 260 211
f 212 257 251
f 212 251 215
f 213 255 249
f 213 249 216
f 217 248 254
f 217 254 214
f 215 251 244
f 215 244 189
f 216 249 242
f 216 242 190
f 193 241 248
f 193 248 217
f 189 244 120
f 189 120 119
f 190 242 238
f 190 238 191
f 192 237 241
f 192 241 193
f 191 238 234
f 191 234 194
f 195 233 237
f 195 237 192
f 194 234 230
f 194 230 196
f 197 229 233
f 197 233 195
f 196 230 226
f 196 226 198
f 199 225 229
f 199 229 197
f 198 226 218
f 198 218 200
f 201 222 225
f 201 225 199
f 200 218 221
f 200 221 202
f 203 277 222
f 203 222 201
f 202 221 278
f 202 278 204
f 205 279 277
f 205 277 203
f 204 278 280
f 204 280 206
f 207 281 279
f 207 279 205
f 206 280 188
f 206 188 187
f 186 185 281
f 186 281 207
f 253 227 231
f 253 231 259
f 282 283 284
f 282 284 285
f 247 219 227
f 247 227 253
f 286 287 283
f 286 283 282
f 240 220 219
f 240 219 247
f 288 274 287
f 288 287 286
f 236 289 220
f 236 220 240
f 290 270 274
f 290 274 288
f 232 291 289
f 232 289 236
f 292 268 270
f 292 270 290
f 228 293 291
f 228 291 232
f 294 267 246
f 294 246 272
f 295 264 268
f 295 268 292
f 224 296 293
f 224 293 228
f 297 262 267
f 297 267 294
f 298 258 264
f 298 264 295
f 223 299 296
f 223 296 224
f 300 256 262
f 300 262 297
f 276 252 258
f 276 258 298
f 301 302 299
f 301 299 223
f 275 250 256
f 275 256 300
f 273 245 252
f 273 252 276
f 303 304 302
f 303 302 301
f 271 243 250
f 271 250 275
f 272 246 245
f 272 245 273
f 305 306 304
f 305 304 303
f 269 239 243
f 269 243 271
f 307 308 306
f 307 306 305
f 265 235 239
f 265 239 269
f 309 310 308
f 309 308 307
f 259 231 235
f 259 235 265
f 285 284 310
f 285 310 309
f 277 301 223
f 277 223 222
f 221 220 289
f 221 289 278
f 279 303 301
f 279 301 277
f 278 289 291
f 278 291 280
f 281 305 303
f 281 303 279
f 280 291 293
f 280 293 188
f 185 307 305
f 185 305 281
f 188 293 296
f 188 296 184
f 181 309 307
f 181 307 185
f 184 296 299
f 184 299 180
f 177 285 309
f 177 309 181
f 180 299 302
f 180 302 176
f 173 282 285
f 173 285 177
f 176 302 304
f 176 304 172
f 169 286 282
f 169 282 173
f 172 304 306
f 172 306 168
f 165 288 286
f 165 286 169
f 168 306 308
f 168 308 164
f 161 290 288
f 161 288 165
f 164 308 310
f 164 310 160
f 157 292 290
f 157 290 161
f 155 294 272
f 155 272 132
f 160 310 284
f 160 284 154
f 151 295 292
f 151 292 157
f 149 297 294
f 149 294 155
f 154 284 283
f 154 283 148
f 145 298 295
f 145 295 151
f 143 300 297
f 143 297 149
f 148 283 287
f 148 287 142
f 139 276 298
f 139 298 145
f 137 275 300
f 137 300 143
f 142 287 274
f 142 274 136
f 311 312 313
f 311 313 314
f 315 316 317
f 315 317 318
f 319 311 314
f 319 314 320
f 321 315 318
f 321 318 322
f 323 319 320
f 323 320 324
f 325 321 322
f 325 322 326
f 327 328 329
f 327 329 330
f 331 323 324
f 331 324 332
f 333 325 326
f 333 326 334
f 335 327 330
f 335 330 336
f 337 331 332
f 337 332 338
f 339 333 334
f 339 334 340
f 341 335 336
f 341 336 342
f 343 337 338
f 343 338 344
f 345 339 340
f 345 340 346
f 347 341 342
f 347 342 348
f 349 343 344
f 349 344 350
f 351 345 346
f 351 346 352
f 353 347 348
f 353 348 354
f 328 349 350
f 328 350 329
f 355 351 352
f 355 352 356
f 357 353 354
f 357 354 358
f 359 355 356
f 359 356 360
f 361 357 358
f 361 358 362
f 363 359 360
f 363 360 364
f 365 361 362
f 365 362 366
f 367 363 364
f 367 364 368
f 369 365 366
f 369 366 370
f 371 367 368
f 371 368 372
f 373 369 370
f 373 370 374
f 312 371 372
f 312 372 313
f 316 373 374
f 316 374 317
f 358 354 375
f 358 375 376
f 360 356 377
f 360 377 378
f 362 358 376
f 362 376 379
f 364 360 378
f 364 378 380
f 366 362 379
f 366 379 381
f 368 364 380
f 368 380 382
f 370 366 381
f 370 381 383
f 372 368 382
f 372 382 384
f 374 370 383
f 374 383 385
f 313 372 384
f 313 384 386
f 317 374 385
f 317 385 387
f 314 313 386
f 314 386 388
f 318 317 387
f 318 387 389
f 320 314 388
f 320 388 390
f 322 318 389
f 322 389 391
f 324 320 390
f 324 390 392
f 326 322 391
f 326 391 393
f 330 329 394
f 330 394 395
f 332 324 392
f 332 392 396
f 334 326 393
f 334 393 397
f 336 330 395
f 336 395 398
f 338 332 396
f 338 396 399
f 340 334 397
f 340 397 400
f 342 336 398
f 342 398 401
f 344 338 399
f 344 399 402
f 346 340 400
f 346 400 403
f 348 342 401
f 348 401 404
f 350 344 402
f 350 402 405
f 352 346 403
f 352 403 406
f 354 348 404
f 354 404 375
f 329 350 405
f 329 405 394
f 356 352 406
f 356 406 377
f 383 381 407
f 383 407 408
f 384 382 409
f 384 409 410
f 385 383 408
f 385 408 411
f 386 384 410
f 386 410 412
f 387 385 411
f 387 411 413
f 388 386 412
f 388 412 414
f 389 387 413
f 389 413 415
f 390 388 414
f 390 414 416
f 391 389 415
f 391 415 417
f 392 390 416
f 392 416 418
f 393 391 417
f 393 417 419
f 395 394 420
f 395 420 421
f 396 392 418
f 396 418 422
f 397 393 419
f 397 419 423
f 398 395 421
f 398 421 424
f 399 396 422
f 399 422 425
f 400 397 423
f 400 423 426
f 401 398 424
f 401 424 427
f 402 399 425
f 402 425 428
f 403 400 426
f 403 426 429
f 404 401 427
f 404 427 430
f 405 402 428
f 405 428 431
f 406 403 429
f 406 429 432
f 375 404 430
f 375 430 433
f 394 405 431
f 394 431 420
f 377 406 432
f 377 432 434
f 376 375 433
f 376 433 435
f 378 377 434
f 378 434 436
f 379 376 435
f 379 435 437
f 380 378 436
f 380 436 438
f 381 379 437
f 381 437 407
f 382 380 438
f 382 438 409
f 415 413 439
f 415 439 440
f 416 414 441
f 416 441 442
f 417 415 440
f 417 440 443
f 418 416 442
f 418 442 444
f 419 417 443
f 419 443 445
f 421 420 446
f 421 446 447
f 422 418 444
f 422 444 448
f 423 419 445
f 423 445 449
f 424 421 447
f 424 447 450
f 425 422 448
f 425 448 451
f 426 423 449
f 426 449 452
f 427 424 450
f 427 450 453
f 428 425 451
f 428 451 454
f 429 426 452
f 429 452 455
f 430 427 453
f 430 453 456
f 431 428 454
f 431 454 457
f 432 429 455
f 432 455 458
f 433 430 456
f 433 456 459
f 420 431 457
f 420 457 446
f 434 432 458
f 434 458 460
f 435 433 459
f 435 459 461
f 436 434 460
f 436 460 462
f 437 435 461
f 437 461 463
f 438 436 462
f 438 462 464
f 407 437 463
f 407 463 465
f 409 438 464
f 409 464 466
f 408 407 465
f 408 465 467
f 410 409 466
f 410 466 468
f 411 408 467
f 411 467 469
f 412 410 468
f 412 468 470
f 413 411 469
f 413 469 439
f 414 412 470
f 414 470 441
f 449 445 471
f 449 471 472
f 450 447 473
f 450 473 474
f 451 448 475
f 451 475 476
f 452 449 472
f 452 472 477
f 453 450 474
f 453 474 478
f 454 451 476
f 454 476 479
f 455 452 477
f 455 477 480
f 456 453 478
f 456 478 481
f 457 454 479
f 457 479 482
f 458 455 480
f 458 480 483
f 459 456 481
f 459 481 484
f 446 457 482
f 446 482 485
f 460 458 483
f 460 483 486
f 461 459 484
f 461 484 487
f 462 460 486
f 462 486 488
f 463 461 487
f 463 487 489
f 464 462 488
f 464 488 490
f 465 463 489
f 465 489 491
f 466 464 490
f 466 490 492
f 467 465 491
f 467 491 493
f 468 466 492
f 468 492 494
f 469 467 493
f 469 493 495
f 470 468 494
f 470 494 496
f 439 469 495
f 439 495 497
f 441 470 496
f 441 496 498
f 440 439 497
f 440 497 499
f 442 441 498
f 442 498 500
f 443 440 499
f 443 499 501
f 444 442 500
f 444 500 502
f 445 443 501
f 445 501 471
f 447 446 485
f 447 485 473
f 448 444 502
f 448 502 475
f 503 504 505
f 503 505 506
f 507 508 473
f 507 473 485
f 508 509 474
f 508 474 473
f 509 510 478
f 509 478 474
f 510 511 481
f 510 481 478
f 511 512 484
f 511 484 481
f 512 513 487
f 512 487 484
f 513 514 489
f 513 489 487
f 514 515 491
f 514 491 489
f 515 516 493
f 515 493 491
f 516 517 495
f 516 495 493
f 517 518 497
f 517 497 495
f 518 519 499
f 518 499 497
f 519 520 501
f 519 501 499
f 520 521 471
f 520 471 501
f 521 522 472
f 521 472 471
f 522 523 477
f 522 477 472
f 523 524 480
f 523 480 477
f 524 525 483
f 524 483 480
f 525 526 486
f 525 486 483
f 526 527 488
f 526 488 486
f 527 528 490
f 527 490 488
f 528 529 492
f 528 492 490
f 529 530 494
f 529 494 492
f 530 531 496
f 530 496 494
f 531 504 498
f 531 498 496
f 504 503 500
f 504 500 498
f 503 532 502
f 503 502 500
f 532 533 475
f 532 475 502
f 533 534 476
f 533 476 475
f 534 535 479
f 534 479 476
f 535 536 482
f 535 482 479
f 536 507 485
f 536 485 482
f 520 519 537
f 520 537 538
f 532 503 506
f 532 506 539
f 521 520 538
f 521 538 540
f 508 507 541
f 508 541 542
f 533 532 539
f 533 539 543
f 522 521 540
f 522 540 544
f 509 508 542
f 509 542 545
f 534 533 543
f 534 543 546
f 523 522 544
f 523 544 547
f 510 509 545
f 510 545 548
f 535 534 546
f 535 546 549
f 524 523 547
f 524 547 550
f 511 510 548
f 511 548 551
f 536 535 549
f 536 549 552
f 525 524 550
f 525 550 553
f 512 511 551
f 512 551 554
f 507 536 552
f 507 552 541
f 526 525 553
f 526 553 555
f 513 512 554
f 513 554 556
f 527 526 555
f 527 555 557
f 514 513 556
f 514 556 558
f 528 527 557
f 528 557 559
f 515 514 558
f 515 558 560
f 529 528 559
f 529 559 561
f 516 515 560
f 516 560 562
f 530 529 561
f 530 561 563
f 517 516 562
f 517 562 564
f 531 530 563
f 531 563 565
f 518 517 564
f 518 564 566
f 504 531 565
f 504 565 505
f 519 518 566
f 519 566 537
f 563 505 565
f 505 563 561
f 505 561 506
f 506 561 559
f 506 559 539
f 539 559 557
f 539 557 543
f 543 557 555
f 543 555 546
f 546 555 553
f 546 553 549
f 549 553 550
f 549 550 552
f 552 550 547
f 552 547 541
f 541 547 544
f 541 544 542
f 542 544 540
f 542 540 545
f 545 540 538
f 545 538 548
f 548 538 537
f 548 537 551
f 551 537 566
f 551 566 554
f 554 566 564
f 554 564 556
f 556 564 558
f 558 564 562
f 558 562 560
f 567 568 569
f 567 569 570
f 567 570 571
f 567 571 572
f 567 572 573
f 567 573 574
f 567 574 575
f 567 575 576
f 567 576 577
f 567 577 578
f 567 578 579
f 567 579 580
f 567 580 581
f 567 581 582
f 567 582 583
f 567 583 584
f 567 584 585
f 567 585 586
f 567 586 587
f 567 587 588
f 567 588 589
f 567 589 590
f 567 590 591
f 567 591 592
f 567 592 593
f 567 593 594
f 567 594 595
f 567 595 596
f 567 596 597
f 567 597 598
f 567 598 599
f 567 599 568
f 600 601 602
f 600 602 603
f 604 605 606
f 604 606 607
f 608 609 610
f 608 610 611
f 612 613 614
f 612 614 615
f 616 604 607
f 616 607 617
f 618 619 620
f 618 620 621
f 622 612 615
f 622 615 623
f 624 616 617
f 624 617 625
f 626 627 628
f 626 628 629
f 630 631 632
f 630 632 633
f 634 624 625
f 634 625 635
f 636 600 603
f 636 603 637
f 638 634 635
f 638 635 639
f 640 608 611
f 640 611 641
f 642 638 639
f 642 639 643
f 644 618 621
f 644 621 645
f 646 642 643
f 646 643 647
f 648 626 629
f 648 629 649
f 650 630 633
f 650 633 651
f 652 646 647
f 652 647 653
f 654 636 637
f 654 637 655
f 656 652 653
f 656 653 657
f 658 640 641
f 658 641 659
f 660 656 657
f 660 657 661
f 662 644 645
f 662 645 663
f 664 660 661
f 664 661 665
f 666 648 649
f 666 649 667
f 668 650 651
f 668 651 669
f 670 664 665
f 670 665 671
f 672 654 655
f 672 655 673
f 674 670 671
f 674 671 675
f 676 658 659
f 676 659 677
f 678 679 680
f 678 680 681
f 682 683 684
f 682 684 685
f 686 687 679
f 686 679 678
f 688 689 683
f 688 683 682
f 690 691 687
f 690 687 686
f 692 693 689
f 692 689 688
f 694 695 691
f 694 691 690
f 696 697 693
f 696 693 692
f 698 699 695
f 698 695 694
f 700 701 697
f 700 697 696
f 702 703 699
f 702 699 698
f 704 705 701
f 704 701 700
f 706 707 703
f 706 703 702
f 708 709 705
f 708 705 704
f 710 711 707
f 710 707 706
f 712 713 709
f 712 709 708
f 714 715 711
f 714 711 710
f 716 717 713
f 716 713 712
f 718 719 715
f 718 715 714
f 720 721 717
f 720 717 716
f 722 723 719
f 722 719 718
f 724 725 721
f 724 721 720
f 726 727 723
f 726 723 722
f 728 729 725
f 728 725 724
f 730 731 727
f 730 727 726
f 732 733 729
f 732 729 728
f 734 735 731
f 734 731 730
f 736 737 733
f 736 733 732
f 738 739 735
f 738 735 734
f 740 741 737
f 740 737 736
f 742 743 739
f 742 739 738
f 744 745 741
f 744 741 740
f 746 747 743
f 746 743 742
f 748 749 745
f 748 745 744
f 750 751 747
f 750 747 746
f 752 753 749
f 752 749 748
f 754 755 751
f 754 751 750
f 756 757 753
f 756 753 752
f 758 759 755
f 758 755 754
f 760 761 757
f 760 757 756
f 762 763 759
f 762 759 758
f 764 765 761
f 764 761 760
f 766 767 763
f 766 763 762
f 768 769 765
f 768 765 764
f 770 771 767
f 770 767 766
f 772 773 769
f 772 769 768
f 774 775 771
f 774 771 770
f 776 777 773
f 776 773 772
f 778 779 775
f 778 775 774
f 780 781 777
f 780 777 776
f 782 783 779
f 782 779 778
f 784 785 781
f 784 781 780
f 786 787 783
f 786 783 782
f 788 789 785
f 788 785 784
f 790 791 787
f 790 787 786
f 792 793 789
f 792 789 788
f 794 795 791
f 794 791 790
f 796 797 793
f 796 793 792
f 798 799 795
f 798 795 794
f 800 801 797
f 800 797 796
f 802 803 799
f 802 799 798
f 804 805 801
f 804 801 800
f 681 680 803
f 681 803 802
f 685 684 805
f 685 805 804
f 680 806 807
f 680 807 803
f 806 685 804
f 806 804 807
f 803 807 808
f 803 808 799
f 807 804 800
f 807 800 808
f 799 808 809
f 799 809 795
f 808 800 796
f 808 796 809
f 795 809 810
f 795 810 791
f 809 796 792
f 809 792 810
f 791 810 811
f 791 811 787
f 810 792 788
f 810 788 811
f 787 811 812
f 787 812 783
f 811 788 784
f 811 784 812
f 783 812 813
f 783 813 779
f 812 784 780
f 812 780 813
f 779 813 814
f 779 814 775
f 813 780 776
f 813 776 814
f 775 814 815
f 775 815 771
f 814 776 772
f 814 772 815
f 771 815 816
f 771 816 767
f 815 772 768
f 815 768 816
f 767 816 817
f 767 817 763
f 816 768 764
f 816 764 817
f 763 817 818
f 763 818 759
f 817 764 760
f 817 760 818
f 759 818 819
f 759 819 755
f 818 760 756
f 818 756 819
f 755 819 820
f 755 820 751
f 819 756 752
f 819 752 820
f 751 820 821
f 751 821 747
f 820 752 748
f 820 748 821
f 747 821 822
f 747 822 743
f 821 748 744
f 821 744 822
f 743 822 823
f 743 823 739
f 822 744 740
f 822 740 823
f 739 823 824
f 739 824 735
f 823 740 736
f 823 736 824
f 735 824 825
f 735 825 731
f 824 736 732
f 824 732 825
f 731 825 826
f 731 826 727
f 825 732 728
f 825 728 826
f 727 826 827
f 727 827 723
f 826 728 724
f 826 724 827
f 723 827 828
f 723 828 719
f 827 724 720
f 827 720 828
f 719 828 829
f 719 829 715
f 828 720 716
f 828 716 829
f 715 829 830
f 715 830 711
f 829 716 712
f 829 712 830
f 711 830 831
f 711 831 707
f 830 712 708
f 830 708 831
f 707 831 832
f 707 832 703
f 831 708 704
f 831 704 832
f 703 832 833
f 703 833 699
f 832 704 700
f 832 700 833
f 699 833 834
f 699 834 695
f 833 700 696
f 833 696 834
f 695 834 835
f 695 835 691
f 834 696 692
f 834 692 835
f 691 835 836
f 691 836 687
f 835 692 688
f 835 688 836
f 687 836 837
f 687 837 679
f 836 688 682
f 836 682 837
f 679 837 806
f 679 806 680
f 837 682 685
f 837 685 806
f 568 681 802
f 568 802 569
f 569 802 798
f 569 798 570
f 570 798 794
f 570 794 571
f 571 794 790
f 571 790 572
f 572 790 786
f 572 786 573
f 573 786 782
f 573 782 574
f 574 782 778
f 574 778 575
f 575 778 774
f 575 774 576
f 576 774 770
f 576 770 577
f 577 770 766
f 577 766 578
f 578 766 762
f 578 762 579
f 579 762 758
f 579 758 580
f 580 758 754
f 580 754 581
f 581 754 750
f 581 750 582
f 582 750 746
f 582 746 583
f 583 746 742
f 583 742 584
f 584 742 738
f 584 738 585
f 585 738 734
f 585 734 586
f 586 734 730
f 586 730 587
f 587 730 726
f 587 726 588
f 588 726 722
f 588 722 589
f 589 722 718
f 589 718 590
f 590 718 714
f 590 714 591
f 591 714 710
f 591 710 592
f 592 710 706
f 592 706 593
f 593 706 702
f 593 702 594
f 594 702 698
f 594 698 595
f 595 698 694
f 595 694 596
f 596 694 690
f 596 690 597
f 597 690 686
f 597 686 598
f 598 686 678
f 598 678 599
f 599 678 681
f 599 681 568
f 683 838 839
f 683 839 684
f 689 840 838
f 689 838 683
f 693 841 840
f 693 840 689
f 697 842 841
f 697 841 693
f 701 843 842
f 701 842 697
f 705 844 843
f 705 843 701
f 709 845 844
f 709 844 705
f 713 846 845
f 713 845 709
f 717 847 846
f 717 846 713
f 721 848 847
f 721 847 717
f 725 849 848
f 725 848 721
f 729 850 849
f 729 849 725
f 733 851 850
f 733 850 729
f 737 852 851
f 737 851 733
f 741 853 852
f 741 852 737
f 745 854 853
f 745 853 741
f 749 855 854
f 749 854 745
f 753 856 855
f 753 855 749
f 757 857 856
f 757 856 753
f 761 858 857
f 761 857 757
f 765 859 858
f 765 858 761
f 769 860 859
f 769 859 765
f 773 861 860
f 773 860 769
f 777 862 861
f 777 861 773
f 781 863 862
f 781 862 777
f 785 864 863
f 785 863 781
f 789 865 864
f 789 864 785
f 793 866 865
f 793 865 789
f 797 867 866
f 797 866 793
f 801 868 867
f 801 867 797
f 805 869 868
f 805 868 801
f 684 839 869
f 684 869 805
f 838 612 622
f 838 622 839
f 840 613 612
f 840 612 838
f 841 870 613
f 841 613 840
f 842 871 870
f 842 870 841
f 843 872 871
f 843 871 842
f 844 873 872
f 844 872 843
f 845 874 873
f 845 873 844
f 846 875 874
f 846 874 845
f 847 876 875
f 847 875 846
f 848 877 876
f 848 876 847
f 849 878 877
f 849 877 848
f 850 879 878
f 850 878 849
f 851 880 879
f 851 879 850
f 852 881 880
f 852 880 851
f 853 882 881
f 853 881 852
f 854 674 882
f 854 882 853
f 855 670 674
f 855 674 854
f 856 664 670
f 856 670 855
f 857 660 664
f 857 664 856
f 858 656 660
f 858 660 857
f 859 652 656
f 859 656 858
f 860 646 652
f 860 652 859
f 861 642 646
f 861 646 860
f 862 638 642
f 862 642 861
f 863 634 638
f 863 638 862
f 864 624 634
f 864 634 863
f 865 616 624
f 865 624 864
f 866 604 616
f 866 616 865
f 867 605 604
f 867 604 866
f 868 883 605
f 868 605 867
f 869 884 883
f 869 883 868
f 839 622 884
f 839 884 869
f 623 885 886
f 623 886 887
f 887 886 663
f 887 663 888
f 888 663 645
f 888 645 606
f 606 645 621
f 606 621 607
f 607 621 620
f 607 620 617
f 617 620 889
f 617 889 625
f 625 889 890
f 625 890 635
f 635 890 673
f 635 673 639
f 639 673 655
f 639 655 643
f 643 655 637
f 643 637 647
f 647 637 603
f 647 603 653
f 653 603 602
f 653 602 657
f 657 602 891
f 657 891 661
f 661 891 892
f 661 892 665
f 665 892 667
f 665 667 671
f 671 667 649
f 671 649 675
f 675 649 629
f 675 629 893
f 893 629 628
f 893 628 894
f 894 628 895
f 894 895 896
f 896 895 897
f 896 897 898
f 898 897 677
f 898 677 899
f 899 677 659
f 899 659 900
f 900 659 641
f 900 641 901
f 901 641 611
f 901 611 902
f 902 611 610
f 902 610 903
f 903 610 904
f 903 904 905
f 905 904 906
f 905 906 907
f 907 906 669
f 907 669 908
f 908 669 651
f 908 651 909
f 909 651 633
f 909 633 614
f 614 633 632
f 614 632 615
f 615 632 885
f 615 885 623
f 613 870 909
f 613 909 614
f 631 910 885
f 631 885 632
f 605 883 888
f 605 888 606
f 870 871 908
f 870 908 909
f 627 911 895
f 627 895 628
f 883 884 887
f 883 887 888
f 871 872 907
f 871 907 908
f 619 912 889
f 619 889 620
f 884 622 623
f 884 623 887
f 872 873 905
f 872 905 907
f 609 913 904
f 609 904 610
f 601 914 891
f 601 891 602
f 873 874 903
f 873 903 905
f 874 875 902
f 874 902 903
f 911 915 897
f 911 897 895
f 875 876 901
f 875 901 902
f 912 916 890
f 912 890 889
f 876 877 900
f 876 900 901
f 910 917 886
f 910 886 885
f 913 918 906
f 913 906 904
f 914 919 892
f 914 892 891
f 877 878 899
f 877 899 900
f 878 879 898
f 878 898 899
f 915 676 677
f 915 677 897
f 879 880 896
f 879 896 898
f 916 672 673
f 916 673 890
f 880 881 894
f 880 894 896
f 918 668 669
f 918 669 906
f 919 666 667
f 919 667 892
f 881 882 893
f 881 893 894
f 917 662 663
f 917 663 886
f 882 674 675
f 882 675 893
f 33 48 47
f 47 36 33
f 603 602 601
f 601 600 603
f 629 628 627
f 627 626 629
f 637 603 600
f 600 636 637
f 649 629 626
f 626 648 649
f 655 637 636
f 636 654 655
f 659 641 640
f 640 658 659
f 663 645 644
f 644 662 663
f 667 649 648
f 648 666 667
f 669 651 650
f 650 668 669
f 673 655 654
f 654 672 673
f 677 659 658
f 658 676 677
f 628 895 911
f 911 627 628
f 620 889 912
f 912 619 620
f 602 891 914
f 914 601 602
f 895 897 915
f 915 911 895
f 889 890 916
f 916 912 889
f 885 886 917
f 917 910 885
f 904 906 918
f 918 913 904
f 891 892 919
f 919 914 891
f 897 677 676
f 676 915 897
f 890 673 672
f 672 916 890
f 906 669 668
f 668 918 906
f 892 667 666
f 666 919 892
f 886 663 662
f 662 917 886