# https://github.com/mikedh/trimesh
v -0.00717887 0.03329469 -0.03193489
v -0.00685769 0.03409804 -0.03102587
v -0.00498893 0.03403396 -0.03096777
v -0.00526773 0.03318513 -0.03187047
v -0.01000077 0.03491348 -0.02941338
v -0.01035390 0.03458381 -0.03053122
v -0.01132548 0.03445719 -0.02999776
v -0.01228050 0.03432110 -0.02928230
v -0.00820150 0.03514325 -0.02952232
v -0.00836872 0.03422808 -0.03094776
v -0.00153245 0.03356182 -0.03063984
v -0.00201127 0.03307364 -0.03122298
v -0.00656083 0.03510457 -0.02960729
v -0.00662518 0.03463649 -0.02827658
v -0.00448678 0.03445559 -0.02850253
v -0.00464179 0.03484395 -0.02975306
v -0.00135966 0.03422235 -0.02916825
v -0.00131148 0.03409567 -0.02985987
v 0.00026365 0.03330071 -0.02998407
v 0.00024526 0.03352608 -0.02929240
v 0.00186710 0.03314409 -0.02895340
v 0.00082975 0.03299610 -0.03005005
v 0.00015520 0.03312822 -0.03048370
v 0.00003129 0.03290391 -0.03076356
v 0.00148850 0.03276690 -0.03012941
v 0.00248874 0.03299585 -0.03205611
v 0.00163201 0.03313224 -0.03123752
v 0.00019185 0.03308299 -0.02897204
v 0.00325100 0.03291535 -0.02829056
v -0.00002449 0.03256330 -0.03092056
v 0.00399771 0.03256330 -0.03353671
v 0.00197700 0.03256330 -0.03018476
v -0.00543375 0.03267337 -0.03222447
v -0.00731102 0.03288864 -0.03222997
v -0.00452393 0.03313201 -0.02763419
v -0.00222167 0.03299561 -0.02820077
v -0.00688509 0.03313201 -0.02750016
v -0.00848786 0.03479878 -0.02816786
v -0.01016749 0.03485210 -0.02834055
v -0.01121896 0.03386774 -0.02783646
v -0.00886528 0.03317899 -0.02745378
v -0.01084856 0.03369124 -0.03105416
v -0.01233657 0.03366352 -0.03009565
v -0.00865872 0.03316307 -0.03178397
v -0.01141845 0.03460777 -0.02867189
v -0.01288093 0.03340475 -0.02853221
v -0.01381928 0.03296509 -0.02898932
v -0.01303449 0.03256330 -0.03014861
v -0.01402420 0.03256330 -0.02906099
v -0.01402420 0.03256330 -0.02852498
v -0.01193983 0.03256330 -0.02760225
v -0.00941832 0.03256330 -0.03187755
v -0.01128654 0.03256330 -0.03121628
v -0.00909938 0.03256330 -0.02727125
v -0.00186918 0.03256330 -0.02828179
v 0.00020133 0.03256330 -0.02887862
v -0.00214505 0.03280154 -0.02669691
v -0.00147696 0.03256330 -0.02618509
v 0.00443109 0.03256330 -0.02765064
v -0.01306536 0.03256330 -0.02884645
v -0.01311320 0.03284156 -0.02871336
v -0.01274258 0.03295174 -0.02846119
v -0.01270083 0.03256330 -0.02833359
v -0.00460699 0.03256330 -0.02744683
v -0.00378175 0.03256330 -0.02655430
v -0.00376795 0.03286921 -0.02708518
v -0.00666445 0.03256330 -0.02739377
v -0.00720602 0.03299231 -0.02640928
v -0.00651609 0.03256330 -0.02560952
v -0.00808459 0.03299231 -0.02685522
v -0.00796234 0.03256330 -0.02615029
v -0.00799487 0.03288864 -0.03214917
v -0.00900107 0.03256330 -0.03274134
v -0.00559563 0.03256330 -0.03296173
v -0.00756131 0.03256330 -0.03324371
v -0.00265626 0.03272026 -0.03181940
v -0.00374637 0.03256330 -0.03353435
v -0.00140861 0.03275286 -0.03135076
v -0.00088671 0.03256330 -0.03211688
v -0.00717887 0.03183191 -0.03193489
v -0.00526773 0.03194146 -0.03187047
v -0.00498893 0.03109264 -0.03096777
v -0.00685769 0.03102857 -0.03102587
v -0.01000077 0.03021313 -0.02941338
v -0.01228050 0.03080550 -0.02928230
v -0.01132548 0.03066940 -0.02999776
v -0.01035390 0.03054278 -0.03053122
v -0.00820150 0.02998334 -0.02952232
v -0.00836872 0.03089851 -0.03094776
v -0.00201127 0.03205296 -0.03122298
v -0.00153245 0.03156479 -0.03063984
v -0.00656083 0.03002202 -0.02960729
v -0.00464179 0.03028265 -0.02975306
v -0.00448678 0.03067102 -0.02850253
v -0.00662518 0.03049011 -0.02827658
v -0.00131148 0.03103093 -0.02985987
v -0.00135966 0.03090424 -0.02916825
v 0.00032252 0.03185559 -0.02998871
v 0.00082975 0.03213049 -0.03005005
v 0.00186710 0.03198251 -0.02895340
v 0.00024526 0.03160052 -0.02929240
v 0.00003129 0.03222268 -0.03076356
v 0.00015520 0.03199837 -0.03048370
v 0.00148850 0.03235970 -0.03012941
v 0.00163201 0.03199437 -0.03123752
v 0.00248874 0.03213076 -0.03205611
v 0.00325100 0.03221125 -0.02829056
v 0.00019185 0.03204361 -0.02897204
v -0.00731102 0.03223796 -0.03222997
v -0.00543375 0.03245323 -0.03222447
v -0.00222167 0.03213100 -0.02820077
v -0.00452393 0.03199459 -0.02763419
v -0.00688509 0.03199459 -0.02750016
v -0.00848786 0.03032782 -0.02816786
v -0.00886528 0.03194762 -0.02745378
v -0.01121896 0.03125886 -0.02783646
v -0.01016749 0.03027450 -0.02834055
v -0.01233657 0.03146308 -0.03009565
v -0.01084856 0.03143536 -0.03105416
v -0.00865872 0.03196353 -0.03178397
v -0.01288093 0.03172184 -0.02853221
v -0.01141845 0.03051883 -0.02867189
v -0.01381928 0.03216151 -0.02898932
v -0.00214505 0.03232506 -0.02669691
v -0.01311320 0.03228504 -0.02871336
v -0.01274258 0.03217486 -0.02846119
v -0.00376795 0.03225739 -0.02708518
v -0.00720602 0.03213428 -0.02640928
v -0.00808459 0.03213428 -0.02685522
v -0.00799487 0.03223796 -0.03214917
v -0.00265626 0.03240634 -0.03181940
v -0.00140861 0.03237374 -0.03135076
v -0.00179437 -0.03336653 -0.00438166
v -0.00179437 -0.04265977 -0.01047633
v 0.01614403 -0.03108795 -0.01047634
v 0.01192455 -0.02451663 -0.00438166
v -0.01551330 0.01821444 -0.00438166
v -0.01973277 0.02478575 -0.01047633
v -0.02716310 -0.00315110 -0.01047634
v -0.02119587 -0.00315110 -0.00438166
v -0.00179437 -0.04942385 -0.01933068
v 0.01921517 -0.03587087 -0.01933068
v -0.00179437 -0.05106053 -0.02970843
v 0.01995828 -0.03702818 -0.02970843
v -0.00179437 -0.04521536 -0.03986314
v 0.01730436 -0.03289502 -0.03986314
v 0.01760711 -0.00315110 -0.00438166
v 0.02357435 -0.00315110 -0.01047633
v 0.01614403 0.02478575 -0.01047634
v 0.01192455 0.01821444 -0.00438166
v -0.02280391 0.02956868 -0.01933068
v -0.03150635 -0.00315110 -0.01933068
v -0.02354703 0.03072598 -0.02970843
v -0.03255727 -0.00315110 -0.02970843
v -0.02089310 0.02659283 -0.03986314
v -0.02880406 -0.00315110 -0.03986314
v -0.01551330 -0.02451664 -0.00438166
v -0.01973277 -0.03108795 -0.01047633
v 0.02791761 -0.00315110 -0.01933068
v 0.01921517 0.02956867 -0.01933068
v 0.02896853 -0.00315110 -0.02970843
v 0.01995828 0.03072598 -0.02970843
v 0.02521531 -0.00315110 -0.03986314
v 0.01730436 0.02659283 -0.03986314
v -0.02280391 -0.03587088 -0.01933068
v -0.02354703 -0.03702818 -0.02970843
v -0.02089310 -0.03289503 -0.03986314
v -0.00179437 0.02706433 -0.00438166
v -0.00179437 0.03635757 -0.01047633
v -0.00179438 0.04312165 -0.01933068
v -0.00179438 0.04475834 -0.02970843
v -0.00179437 0.03891317 -0.03986314
v -0.00179438 -0.00315109 -0.03986314
v 0.00730147 -0.00219146 -0.00552303
v 0.00719530 -0.00204832 -0.00553041
v 0.00719036 -0.00204554 -0.00543392
v 0.00729653 -0.00218867 -0.00542654
v 0.00469257 -0.00656012 -0.00560743
v 0.00479874 -0.00670325 -0.00560005
v 0.00494856 -0.00716242 -0.00558647
v 0.00437951 -0.00639524 -0.00562605
v 0.00479379 -0.00670046 -0.00550356
v 0.00468762 -0.00655733 -0.00551095
v 0.00494361 -0.00715963 -0.00548998
v 0.00435890 -0.00821374 -0.00550797
v 0.00436384 -0.00821652 -0.00560446
v 0.00437457 -0.00639245 -0.00552956
v 0.00378984 -0.00744655 -0.00554756
v 0.00379479 -0.00744934 -0.00564405
v 0.00297039 -0.01506770 -0.00620449
v 0.00277606 -0.01517212 -0.00684380
v 0.00265297 -0.02044556 -0.00700059
v 0.00279004 -0.02021398 -0.00641531
v 0.00584520 -0.01601910 -0.00526043
v 0.00401982 -0.01423422 -0.00511959
v 0.00397233 -0.01750314 -0.00521814
v 0.00775241 -0.01177157 -0.00521912
v 0.00565313 -0.00971887 -0.00505716
v 0.00464244 -0.01226859 -0.00508826
v 0.00671378 -0.01429398 -0.00524806
v 0.00541207 -0.00831755 -0.00611115
v 0.00535131 -0.00805271 -0.00674536
v 0.00375774 -0.01207289 -0.00679439
v 0.00390116 -0.01212922 -0.00615765
v 0.00565414 -0.01798636 -0.00706585
v 0.00569920 -0.01773598 -0.00641502
v 0.00687638 -0.01542436 -0.00698009
v 0.00699767 -0.01515703 -0.00639655
v 0.01022025 -0.00725316 -0.00630434
v 0.00855035 -0.01138621 -0.00635327
v 0.00866127 -0.01128923 -0.00700072
v 0.01027686 -0.00729059 -0.00695338
v 0.00960453 -0.00718753 -0.00516485
v 0.00750524 -0.00513483 -0.00500289
v 0.00708197 -0.00418450 -0.00606222
v 0.00696690 -0.00405407 -0.00669801
v 0.00993485 -0.00718166 -0.00564271
v 0.00731607 -0.00462097 -0.00544067
v 0.00553676 -0.00902482 -0.00549280
v 0.00815554 -0.01158551 -0.00569484
v 0.00577636 -0.01688415 -0.00574637
v 0.00685988 -0.01473212 -0.00573095
v 0.00339026 -0.01885443 -0.00571749
v 0.00427595 -0.01220552 -0.00553160
v 0.00349926 -0.01465758 -0.00557069
v 0.00305650 -0.01509809 -0.00624750
v 0.00282999 -0.02010451 -0.00647144
v 0.00269885 -0.02032458 -0.00703924
v 0.00286867 -0.01520360 -0.00686869
v 0.00580888 -0.01596205 -0.00534501
v 0.00398556 -0.01745308 -0.00531117
v 0.00405921 -0.01425121 -0.00521002
v 0.00770959 -0.01172678 -0.00530370
v 0.00667155 -0.01424615 -0.00533224
v 0.00467910 -0.01229791 -0.00517853
v 0.00568825 -0.00975029 -0.00514775
v 0.00548987 -0.00839212 -0.00614696
v 0.00398136 -0.01219691 -0.00619379
v 0.00384155 -0.01214403 -0.00681657
v 0.00543250 -0.00813099 -0.00676731
v 0.00564020 -0.01762448 -0.00644684
v 0.00559366 -0.01786813 -0.00707892
v 0.00692046 -0.01507079 -0.00642054
v 0.00679713 -0.01533605 -0.00698969
v 0.01012687 -0.00728441 -0.00632618
v 0.01018071 -0.00731659 -0.00696141
v 0.00857904 -0.01120772 -0.00701007
v 0.00847025 -0.01130637 -0.00637690
v 0.00750740 -0.00521990 -0.00508544
v 0.00954580 -0.00721307 -0.00524270
v 0.00699228 -0.00419891 -0.00671542
v 0.00710167 -0.00432633 -0.00609279
v 0.00985030 -0.00721598 -0.00568760
v 0.00732775 -0.00474939 -0.00549299
v 0.00560646 -0.00909094 -0.00554778
v 0.00808172 -0.01151129 -0.00573875
v 0.00678881 -0.01465248 -0.00577548
v 0.00572323 -0.01678805 -0.00580163
v 0.00341304 -0.01878227 -0.00580204
v 0.00357148 -0.01468404 -0.00563563
v 0.00434753 -0.01226536 -0.00558714
v 0.00867074 -0.01105487 -0.00612155
v 0.00873093 -0.01110868 -0.00630789
v 0.00576075 -0.00820440 -0.00607874
v 0.00583742 -0.00828442 -0.00590295
v 0.00546056 -0.00921716 -0.00591399
v 0.00538388 -0.00913714 -0.00608978
v 0.00835407 -0.01204142 -0.00631893
v 0.00829387 -0.01198761 -0.00613259
v 0.00728774 -0.01360648 -0.00576506
v 0.00737165 -0.01367546 -0.00593942
v 0.00440763 -0.01091306 -0.00622096
v 0.00446294 -0.01097138 -0.00603362
v 0.00410589 -0.01192262 -0.00605086
v 0.00405058 -0.01186430 -0.00623819
v 0.00701460 -0.01462670 -0.00595665
v 0.00693069 -0.01455772 -0.00578229
v 0.00806820 -0.01878615 -0.00531974
v 0.00903362 -0.01591638 -0.00528888
v 0.00942637 -0.01661882 -0.00527921
v 0.00854231 -0.01945537 -0.00525580
v 0.00941855 -0.01660756 -0.00517359
v 0.00851885 -0.01947812 -0.00516033
v 0.00901327 -0.01589490 -0.00519256
v 0.00802975 -0.01879177 -0.00522829
v 0.00791110 -0.01394928 -0.00530438
v 0.00984353 -0.01325493 -0.00529004
v 0.00984987 -0.01418272 -0.00528038
v 0.00788534 -0.01494498 -0.00524044
v 0.00985041 -0.01416616 -0.00517476
v 0.00785909 -0.01493153 -0.00514498
v 0.00984108 -0.01321685 -0.00519372
v 0.00788368 -0.01390694 -0.00521294
v 0.01036024 -0.00764718 -0.00765409
v 0.01029825 -0.00745108 -0.00764536
v 0.01034159 -0.00742669 -0.00756083
v 0.01040358 -0.00762279 -0.00756956
v 0.00738084 -0.00989269 -0.00568972
v 0.00744283 -0.01008878 -0.00569846
v 0.00733750 -0.00991708 -0.00577425
v 0.00739949 -0.01011317 -0.00578299
v 0.00743808 -0.01062107 -0.00574102
v 0.00710580 -0.00957002 -0.00569419
v 0.00748142 -0.01059668 -0.00565649
v 0.00678968 -0.01117282 -0.00521934
v 0.00674635 -0.01119720 -0.00530386
v 0.00714914 -0.00954564 -0.00560965
v 0.00645741 -0.01012177 -0.00517250
v 0.00641407 -0.01014616 -0.00525703
v 0.00036703 0.00556357 -0.00580151
v 0.00036846 0.00538437 -0.00629639
v -0.00031849 0.00493969 -0.00623718
v -0.00047022 0.00507942 -0.00581525
v 0.00036607 0.00545827 -0.00545095
v -0.00032065 0.00489739 -0.00546604
v -0.00032013 0.00313297 -0.00550726
v 0.00036680 0.00296955 -0.00550908
v -0.00046961 0.00299407 -0.00586397
v 0.00036788 0.00265726 -0.00586941
v -0.00031796 0.00317527 -0.00627840
v 0.00036917 0.00301577 -0.00635173
v -0.00071572 0.00297765 -0.00581316
v -0.00065130 0.00283357 -0.00609658
v -0.00009356 0.00376255 -0.00609448
v -0.00012490 0.00383265 -0.00595659
v -0.00011558 0.00401542 -0.00600308
v -0.00006917 0.00394534 -0.00614093
v -0.00064961 0.00343575 -0.00625716
v -0.00071402 0.00357983 -0.00597374
v -0.00094195 0.00281073 -0.00616465
v -0.00100636 0.00295481 -0.00588122
v -0.00083283 0.00225710 -0.00565038
v -0.00041711 0.00263292 -0.00569125
v -0.00036452 0.00251529 -0.00592266
v -0.00076842 0.00211303 -0.00593380
v -0.00009863 0.00249538 -0.00563062
v -0.00007377 0.00243978 -0.00573999
v -0.00032726 0.00203514 -0.00574570
v -0.00003617 0.00228175 -0.00568814
v -0.00036804 0.00212633 -0.00556631
v -0.00006103 0.00233735 -0.00557877
v -0.00018723 0.00433256 -0.00588480
v -0.00058826 0.00447583 -0.00585928
v -0.00057682 0.00464262 -0.00583675
v -0.00018733 0.00467126 -0.00587689
v -0.00045546 0.00463546 -0.00566113
v -0.00015085 0.00482719 -0.00579188
v -0.00048765 0.00442871 -0.00566351
v -0.00015071 0.00436450 -0.00580269
v -0.00075351 0.00472692 -0.00524028
v -0.00018712 0.00392052 -0.00587629
v -0.00055065 0.00405017 -0.00584911
v -0.00054028 0.00420137 -0.00582869
v -0.00018721 0.00422756 -0.00586912
v -0.00043028 0.00419488 -0.00566949
v -0.00015414 0.00436867 -0.00578802
v -0.00045945 0.00400746 -0.00567165
v -0.00015402 0.00394925 -0.00579781
v -0.00074203 0.00414735 -0.00525697
v -0.00018502 0.00347289 -0.00586176
v -0.00050686 0.00358767 -0.00583770
v -0.00049767 0.00372152 -0.00581962
v -0.00018510 0.00374470 -0.00585541
v -0.00040028 0.00371577 -0.00567869
v -0.00015582 0.00386964 -0.00578361
v -0.00042611 0.00354986 -0.00568059
v -0.00015571 0.00349832 -0.00579229
v -0.00067034 0.00341211 -0.00527763
v 0.00120457 0.00508035 -0.00581037
v 0.00105528 0.00494045 -0.00623318
v 0.00105311 0.00489815 -0.00546204
v 0.00105363 0.00313374 -0.00550326
v 0.00120519 0.00299500 -0.00585909
v 0.00105579 0.00317603 -0.00627439
v 0.00145885 0.00296501 -0.00580460
v 0.00078403 0.00381930 -0.00595172
v 0.00075350 0.00374917 -0.00608979
v 0.00139609 0.00282085 -0.00608839
v 0.00077489 0.00400206 -0.00599827
v 0.00074436 0.00393194 -0.00613634
v 0.00145778 0.00356717 -0.00596519
v 0.00139503 0.00342303 -0.00624899
v 0.00174988 0.00294248 -0.00587097
v 0.00168713 0.00279834 -0.00615476
v 0.00115971 0.00261994 -0.00568444
v 0.00157537 0.00224459 -0.00564114
v 0.00110849 0.00250225 -0.00591615
v 0.00151262 0.00210044 -0.00592494
v 0.00081674 0.00242642 -0.00573518
v 0.00084096 0.00248206 -0.00562566
v 0.00107045 0.00202206 -0.00573941
v 0.00077893 0.00226834 -0.00568355
v 0.00111017 0.00211329 -0.00555979
v 0.00080314 0.00232398 -0.00557403
v 0.00092232 0.00433318 -0.00588157
v 0.00092222 0.00467188 -0.00587366
v 0.00131148 0.00464367 -0.00583124
v 0.00132313 0.00447689 -0.00585371
v 0.00088518 0.00482776 -0.00578886
v 0.00118914 0.00463637 -0.00565634
v 0.00088532 0.00436507 -0.00579967
v 0.00122143 0.00442966 -0.00565853
v 0.00148478 0.00472816 -0.00523376
v 0.00092234 0.00392113 -0.00587306
v 0.00092225 0.00422816 -0.00586589
v 0.00127511 0.00420237 -0.00582340
v 0.00128566 0.00405119 -0.00584377
v 0.00088867 0.00436925 -0.00578498
v 0.00116420 0.00419576 -0.00566485
v 0.00088879 0.00394982 -0.00579477
v 0.00119348 0.00400838 -0.00566683
v 0.00147364 0.00414858 -0.00525051
v 0.00092037 0.00347350 -0.00585854
v 0.00092029 0.00374531 -0.00585219
v 0.00123266 0.00372248 -0.00581458
v 0.00124201 0.00358863 -0.00583261
v 0.00089055 0.00387021 -0.00578056
v 0.00113448 0.00371662 -0.00567422
v 0.00089066 0.00349890 -0.00578924
v 0.00116040 0.00355074 -0.00567597
v 0.00140241 0.00341326 -0.00527159
v 0.00470576 0.01739489 -0.00709545
v 0.00532256 0.01804742 -0.00583275
v 0.00574919 0.01692563 -0.00699542
v 0.00516492 0.01643676 -0.00743960
v 0.00297860 0.01798866 -0.00639149
v 0.00423281 0.01565892 -0.00692648
v 0.00426854 0.01356672 -0.00488819
v 0.00311002 0.01629339 -0.00476158
v 0.00536072 0.01769217 -0.00468231
v 0.00385655 0.01856759 -0.00592496
v 0.00341701 0.01832391 -0.00466140
v 0.00574955 0.01554756 -0.00478452
v 0.00565971 0.01443548 -0.00483899
v 0.00382128 -0.02246646 -0.00507567
v 0.00515525 -0.02303145 -0.00514379
v 0.00479547 -0.02479743 -0.00626194
v 0.00285672 -0.02369051 -0.00647240
v 0.00483227 -0.02462060 -0.00474723
v 0.00447832 -0.02661933 -0.00559673
v 0.00363711 -0.02579554 -0.00641019
v 0.00234510 -0.02442136 -0.00609064
v 0.00399263 -0.02580799 -0.00471371
v 0.00368732 -0.02707729 -0.00538707
v 0.00249752 -0.02275779 -0.00530562
v 0.00297323 -0.02351344 -0.00474723
v 0.00401023 -0.02380728 -0.00475011
v 0.00297290 -0.02565997 -0.00542233
v -0.00656716 -0.01015343 -0.00524128
v -0.00487519 -0.01717344 -0.00488954
v -0.00309557 -0.01592753 -0.00686490
v -0.00410997 -0.01269207 -0.00614548
v -0.00479813 -0.01193425 -0.00773126
v -0.00374062 -0.01522858 -0.00813076
v -0.00471856 -0.01908889 -0.00880975
v -0.00682287 -0.01211606 -0.00971432
v -0.00385370 -0.02079562 -0.00743445
v -0.00854104 -0.01958839 -0.00724384
v -0.00919511 -0.01182671 -0.00518559
v -0.00651602 -0.02052725 -0.00475510
v -0.00794598 -0.00818405 -0.00525871
v -0.00928163 -0.01546840 -0.00501461
v -0.00795503 0.00861000 -0.00513300
v -0.00911356 0.00439707 -0.00514559
v -0.00819088 0.00571890 -0.00583673
v -0.00763821 0.00678989 -0.00626134
v -0.00960295 0.00896015 -0.00506758
v -0.00869194 0.00746593 -0.00706321
v -0.00948702 0.00600865 -0.00732700
v -0.01011944 0.00815557 -0.00659549
v -0.01057576 0.00480531 -0.00507855
v -0.00930620 0.00567310 -0.00651680
v -0.00849994 0.00626604 -0.00715014
v -0.01062318 0.00679148 -0.00622370
v -0.01005068 0.00792179 -0.00506270
v -0.01031575 0.00590853 -0.00717586
v -0.01031322 0.00636356 -0.00507063
v -0.00907727 -0.00152292 -0.02039722
v -0.01422058 -0.00092765 -0.01825745
v -0.01422058 0.00648715 -0.01825745
v -0.00945949 0.00648715 -0.01825745
v -0.00945950 -0.01575724 -0.01825745
v -0.01422058 -0.01575724 -0.01825745
v -0.01422058 -0.00834244 -0.01825745
v -0.00907727 -0.00774717 -0.02056102
v 0.00006267 -0.00834244 -0.01825745
v -0.00537191 -0.00774717 -0.02151539
v -0.00537191 -0.00152292 -0.02098584
v 0.00006267 -0.00092765 -0.01825745
v 0.00006267 -0.01575724 -0.01825745
v -0.00469842 -0.01575724 -0.01825745
v -0.00469842 0.00648715 -0.01825745
v 0.00006267 0.00648715 -0.01825745
v -0.00679652 -0.00301282 -0.00536993
v -0.00654213 -0.00279635 -0.00773611
v -0.00739342 -0.00356179 -0.00773611
v -0.00752743 -0.00367002 -0.00534622
v -0.00739342 -0.00509266 -0.00773611
v -0.00752743 -0.00498442 -0.00534622
v -0.00654213 -0.00585809 -0.00773611
v -0.00679652 -0.00564162 -0.00536993
v -0.00569085 -0.00509266 -0.00773611
v -0.00606561 -0.00498442 -0.00536993
v -0.00569085 -0.00356179 -0.00773611
v -0.00606561 -0.00367002 -0.00536993
v -0.00642673 -0.00314426 -0.00752160
v -0.00621772 -0.00294944 -0.01035988
v -0.00698388 -0.00363833 -0.01035988
v -0.00708455 -0.00373574 -0.00752160
v -0.00698388 -0.00501611 -0.01035988
v -0.00708455 -0.00491870 -0.00752160
v -0.00621772 -0.00570500 -0.01035988
v -0.00642673 -0.00551018 -0.00752160
v -0.00545157 -0.00501611 -0.01035988
v -0.00576891 -0.00491870 -0.00752160
v -0.00545157 -0.00363833 -0.01035988
v -0.00576891 -0.00373574 -0.00752160
v -0.00614448 -0.00326256 -0.01035988
v -0.00614448 -0.00308721 -0.01291433
v -0.00683402 -0.00370722 -0.01291433
v -0.00673652 -0.00379489 -0.01035988
v -0.00683402 -0.00494722 -0.01291433
v -0.00673652 -0.00485955 -0.01035988
v -0.00614448 -0.00556723 -0.01291433
v -0.00614448 -0.00539189 -0.01035988
v -0.00545494 -0.00494722 -0.01291433
v -0.00555244 -0.00485955 -0.01035988
v -0.00545494 -0.00370722 -0.01291433
v -0.00555244 -0.00379489 -0.01035988
v -0.00614448 -0.00336902 -0.01291433
v -0.00614448 -0.00321122 -0.01521334
v -0.00676506 -0.00376922 -0.01521334
v -0.00667732 -0.00384812 -0.01291433
v -0.00676506 -0.00488522 -0.01521334
v -0.00667732 -0.00480632 -0.01291433
v -0.00614448 -0.00544322 -0.01521334
v -0.00614448 -0.00528542 -0.01291433
v -0.00552389 -0.00488522 -0.01521334
v -0.00561165 -0.00480632 -0.01291433
v -0.00552389 -0.00376922 -0.01521334
v -0.00561165 -0.00384812 -0.01291433
v -0.00618516 -0.00346484 -0.01521334
v -0.00631321 -0.00332281 -0.01728245
v -0.00687174 -0.00382502 -0.01728245
v -0.00666471 -0.00389604 -0.01521334
v -0.00687174 -0.00482942 -0.01728245
v -0.00666471 -0.00475841 -0.01521334
v -0.00631321 -0.00533162 -0.01728245
v -0.00618516 -0.00518960 -0.01521334
v -0.00575468 -0.00482942 -0.01728245
v -0.00570561 -0.00475841 -0.01521334
v -0.00575468 -0.00382502 -0.01728245
v -0.00570561 -0.00389604 -0.01521334
v -0.00641903 -0.00355108 -0.01728245
v -0.00662483 -0.00342326 -0.01914465
v -0.00712750 -0.00387524 -0.01914465
v -0.00685063 -0.00393915 -0.01728245
v -0.00712750 -0.00477920 -0.01914465
v -0.00685063 -0.00471529 -0.01728245
v -0.00662483 -0.00523118 -0.01914465
v -0.00641903 -0.00510336 -0.01728245
v -0.00612215 -0.00477920 -0.01914465
v -0.00598744 -0.00471529 -0.01728245
v -0.00612215 -0.00387524 -0.01914465
v -0.00598744 -0.00393915 -0.01728245
v -0.00664912 -0.00362870 -0.01909081
v -0.00683967 -0.00351365 -0.02075942
v -0.00729156 -0.00392044 -0.02073739
v -0.00703711 -0.00397795 -0.01907189
v -0.00729156 -0.00473400 -0.02073739
v -0.00703711 -0.00467648 -0.01907189
v -0.00683967 -0.00514078 -0.02075942
v -0.00664912 -0.00502575 -0.01909081
v -0.00638779 -0.00473400 -0.02078145
v -0.00626113 -0.00467648 -0.01910973
v -0.00638779 -0.00392044 -0.02078145
v -0.00626113 -0.00397795 -0.01910973
v -0.00179437 -0.00315110 -0.00561522
v 0.01218102 0.01861385 -0.00475322
v 0.01796981 -0.00315110 -0.00475322
v 0.01218102 -0.02491605 -0.00475322
v -0.01576976 0.01861385 -0.00475322
v -0.00179437 0.02762919 -0.00475322
v -0.01576976 -0.02491605 -0.00475322
v -0.00179437 -0.03393140 -0.00475322
v -0.02155856 -0.00315110 -0.00475322
v -0.01212821 -0.01924478 -0.00138116
v -0.01640862 -0.00315110 -0.00138116
v 0.00853946 0.01294258 -0.00138116
v 0.01281988 -0.00315110 -0.00138116
v 0.00853946 -0.01924478 -0.00138116
v -0.00179437 -0.02591100 -0.00138116
v -0.01212821 0.01294258 -0.00138116
v -0.00179437 0.01960880 -0.00138116
v -0.00179437 -0.00315110 -0.00138116
v -0.00179437 0.02015134 -0.00104518
v -0.00179437 0.02777652 -0.00439552
v -0.01583666 0.01871803 -0.00439552
v -0.01237455 0.01332622 -0.00104518
v -0.02165315 -0.00315110 -0.00439552
v -0.01675700 -0.00315110 -0.00104518
v -0.01583666 -0.02502023 -0.00439552
v -0.01237455 -0.01962842 -0.00104518
v -0.00179437 -0.03407871 -0.00439552
v -0.00179437 -0.02645355 -0.00104518
v 0.01224791 -0.02502022 -0.00439552
v 0.00878580 -0.01962842 -0.00104518
v 0.01806441 -0.00315110 -0.00439552
v 0.01316825 -0.00315110 -0.00104518
v -0.01555598 0.01828091 -0.05124145
v -0.01545055 0.01811671 -0.05183582
v -0.00179437 0.02692613 -0.05183582
v -0.00179437 0.02715833 -0.05124145
v 0.01224791 0.01871802 -0.00439552
v 0.00878580 0.01332622 -0.00104518
v -0.00179437 -0.02646127 -0.00000000
v -0.01237805 -0.01963388 -0.00000000
v -0.01841373 0.02273150 -0.04823461
v -0.02110712 -0.00315110 -0.05183582
v -0.02529769 -0.00315110 -0.04823461
v -0.01841373 -0.02903371 -0.04823461
v -0.01545055 -0.02441891 -0.05183582
v -0.00179437 -0.03322833 -0.05183582
v -0.00179437 -0.03975463 -0.04823461
v 0.02170895 -0.00315110 -0.04823461
v 0.01751838 -0.00315110 -0.05183582
v 0.01186180 0.01811671 -0.05183582
v 0.01482499 0.02273150 -0.04823461
v 0.01186180 -0.02441890 -0.05183582
v 0.01482499 -0.02903370 -0.04823461
v -0.00179437 0.03345244 -0.04823461
v -0.02015558 0.02544423 -0.01065911
v -0.02776105 -0.00315110 -0.01065911
v 0.01656684 -0.03174643 -0.01065911
v -0.00179437 -0.04359099 -0.01065911
v -0.00179437 -0.05051451 -0.01972214
v 0.01971036 -0.03664209 -0.01972215
v -0.00179437 -0.05218976 -0.03038929
v 0.02047099 -0.03782667 -0.03038929
v -0.00179437 -0.04620683 -0.04081994
v 0.01775452 -0.03359608 -0.04081994
v 0.02417229 -0.00315110 -0.01065911
v 0.01656684 0.02544423 -0.01065911
v -0.02329911 0.03033988 -0.01972214
v -0.03220666 -0.00315110 -0.01972215
v -0.02405974 0.03152448 -0.03038929
v -0.03328236 -0.00315110 -0.03038929
v -0.02134327 0.02729390 -0.04081994
v -0.02944068 -0.00315110 -0.04081994
v -0.02015558 -0.03174643 -0.01065911
v 0.02861792 -0.00315110 -0.01972214
v 0.01971036 0.03033988 -0.01972215
v 0.02969361 -0.00315110 -0.03038929
v 0.02047099 0.03152447 -0.03038929
v 0.02585193 -0.00315110 -0.04081994
v 0.01775452 0.02729389 -0.04081994
v -0.02329911 -0.03664209 -0.01972214
v -0.02405974 -0.03782667 -0.03038929
v -0.02134327 -0.03359609 -0.04081994
v -0.00179437 0.03728880 -0.01065911
v -0.00179438 0.04421231 -0.01972214
v -0.00179438 0.04588756 -0.03038929
v -0.00179438 0.03990463 -0.04081994
v 0.00878931 0.01333168 0.00000000
v 0.01317321 -0.00315110 0.00000000
v -0.01676195 -0.00315110 -0.00000000
v -0.01237805 0.01333168 -0.00000000
v 0.00878931 -0.01963388 0.00000000
v -0.00179437 0.02015907 -0.00000000
v -0.02125622 -0.00315110 -0.05124145
v -0.01555598 -0.02458310 -0.05124145
v -0.00179437 -0.03346053 -0.05124145
v 0.01196723 -0.02458310 -0.05124145
v -0.00179437 0.03260955 -0.04710706
v 0.01444229 0.02213550 -0.04710706
v 0.01196723 0.01828091 -0.05124145
v -0.01803103 0.02213550 -0.04710706
v -0.01803103 -0.02843770 -0.04710706
v -0.02475648 -0.00315110 -0.04710706
v 0.02116773 -0.00315110 -0.04710706
v 0.01444229 -0.02843769 -0.04710706
v 0.01766747 -0.00315110 -0.05124145
v -0.00179437 -0.03891174 -0.04710706
v -0.00179437 -0.00315110 -0.00000000
v -0.01632766 0.01948271 -0.05183582
v -0.00179437 0.02885794 -0.05183582
v -0.00179437 0.02861273 -0.05244380
v -0.01621632 0.01930931 -0.05244380
v -0.02219009 -0.00315110 -0.05244380
v -0.02234755 -0.00315110 -0.05183582
v -0.01632766 -0.02578491 -0.05183582
v -0.01621632 -0.02561151 -0.05244380
v -0.00179437 -0.03491492 -0.05244380
v -0.00179437 -0.03516014 -0.05183582
v 0.01262758 -0.02561151 -0.05244380
v 0.01273892 -0.02578491 -0.05183582
v 0.01860135 -0.00315110 -0.05244380
v 0.01262758 0.01930931 -0.05244380
v 0.01273892 0.01948271 -0.05183582
v 0.01875880 -0.00315110 -0.05183582
v -0.01526543 0.01782842 -0.05183582
v -0.01516223 0.01766770 -0.05243018
v -0.00179437 0.02629113 -0.05243018
v -0.00179437 0.02651842 -0.05183582
v -0.02084533 -0.00315110 -0.05183582
v -0.02069937 -0.00315110 -0.05243018
v -0.01526543 -0.02413062 -0.05183582
v -0.00179437 -0.03282062 -0.05183582
v -0.00179437 -0.03259332 -0.05243018
v -0.01516223 -0.02396990 -0.05243018
v 0.01167669 -0.02413062 -0.05183582
v 0.01157349 -0.02396989 -0.05243018
v 0.01711063 -0.00315110 -0.05243018
v 0.01725658 -0.00315110 -0.05183582
v 0.01167669 0.01782842 -0.05183582
v 0.01157349 0.01766769 -0.05243018
f 1 2 3
f 1 3 4
f 5 6 7
f 5 7 8
f 9 10 6
f 9 6 5
f 4 3 11
f 4 11 12
f 13 14 15
f 13 15 16
f 16 15 17
f 16 17 18
f 19 20 21
f 19 21 22
f 18 17 20
f 18 20 19
f 12 11 23
f 12 23 24
f 25 26 27
f 25 27 22
f 24 23 27
f 24 27 26
f 20 28 29
f 20 29 21
f 30 24 26
f 30 26 31
f 32 31 26
f 32 26 25
f 1 4 33
f 1 33 34
f 15 35 36
f 15 36 17
f 17 36 28
f 17 28 20
f 14 37 35
f 14 35 15
f 38 39 40
f 38 40 41
f 7 6 42
f 7 42 43
f 6 10 44
f 6 44 42
f 39 45 46
f 39 46 40
f 8 7 43
f 8 43 47
f 47 43 48
f 47 48 49
f 40 46 50
f 40 50 51
f 42 44 52
f 42 52 53
f 43 42 53
f 43 53 48
f 41 40 51
f 41 51 54
f 36 55 56
f 36 56 28
f 55 36 57
f 55 57 58
f 28 56 59
f 28 59 29
f 47 49 60
f 47 60 61
f 45 8 47
f 45 47 46
f 59 32 25
f 59 25 29
f 29 25 22
f 29 22 21
f 11 18 19
f 11 19 23
f 23 19 22
f 23 22 27
f 3 16 18
f 3 18 11
f 2 13 16
f 2 16 3
f 38 9 5
f 38 5 39
f 39 5 8
f 39 8 45
f 46 47 61
f 46 61 62
f 50 46 62
f 50 62 63
f 61 60 63
f 61 63 62
f 35 64 65
f 35 65 66
f 36 35 66
f 36 66 57
f 57 66 65
f 57 65 58
f 67 37 68
f 67 68 69
f 35 37 67
f 35 67 64
f 10 9 13
f 10 13 2
f 38 41 37
f 38 37 14
f 9 38 14
f 9 14 13
f 44 10 2
f 44 2 1
f 37 41 70
f 37 70 68
f 41 54 71
f 41 71 70
f 71 69 68
f 71 68 70
f 52 44 72
f 52 72 73
f 44 1 34
f 44 34 72
f 34 33 74
f 34 74 75
f 72 34 75
f 72 75 73
f 12 76 33
f 12 33 4
f 77 74 33
f 77 33 76
f 78 79 77
f 78 77 76
f 24 30 79
f 24 79 78
f 24 78 76
f 24 76 12
f 80 81 82
f 80 82 83
f 84 85 86
f 84 86 87
f 88 84 87
f 88 87 89
f 81 90 91
f 81 91 82
f 92 93 94
f 92 94 95
f 93 96 97
f 93 97 94
f 98 99 100
f 98 100 101
f 96 98 101
f 96 101 97
f 90 102 103
f 90 103 91
f 104 99 105
f 104 105 106
f 102 106 105
f 102 105 103
f 101 100 107
f 101 107 108
f 30 31 106
f 30 106 102
f 32 104 106
f 32 106 31
f 80 109 110
f 80 110 81
f 94 97 111
f 94 111 112
f 97 101 108
f 97 108 111
f 95 94 112
f 95 112 113
f 114 115 116
f 114 116 117
f 86 118 119
f 86 119 87
f 87 119 120
f 87 120 89
f 117 116 121
f 117 121 122
f 85 123 118
f 85 118 86
f 123 49 48
f 123 48 118
f 116 51 50
f 116 50 121
f 119 53 52
f 119 52 120
f 118 48 53
f 118 53 119
f 115 54 51
f 115 51 116
f 111 108 56
f 111 56 55
f 55 58 124
f 55 124 111
f 108 107 59
f 108 59 56
f 123 125 60
f 123 60 49
f 122 121 123
f 122 123 85
f 59 107 104
f 59 104 32
f 107 100 99
f 107 99 104
f 91 103 98
f 91 98 96
f 103 105 99
f 103 99 98
f 82 91 96
f 82 96 93
f 83 82 93
f 83 93 92
f 114 117 84
f 114 84 88
f 117 122 85
f 117 85 84
f 121 126 125
f 121 125 123
f 50 63 126
f 50 126 121
f 125 126 63
f 125 63 60
f 112 127 65
f 112 65 64
f 111 124 127
f 111 127 112
f 124 58 65
f 124 65 127
f 67 69 128
f 67 128 113
f 112 64 67
f 112 67 113
f 89 83 92
f 89 92 88
f 114 95 113
f 114 113 115
f 88 92 95
f 88 95 114
f 120 80 83
f 120 83 89
f 113 128 129
f 113 129 115
f 115 129 71
f 115 71 54
f 71 129 128
f 71 128 69
f 52 73 130
f 52 130 120
f 120 130 109
f 120 109 80
f 109 75 74
f 109 74 110
f 130 73 75
f 130 75 109
f 90 81 110
f 90 110 131
f 77 131 110
f 77 110 74
f 132 131 77
f 132 77 79
f 102 132 79
f 102 79 30
f 102 90 131
f 102 131 132
f 133 134 135
f 133 135 136
f 137 138 139
f 137 139 140
f 135 134 141
f 135 141 142
f 142 141 143
f 142 143 144
f 144 143 145
f 144 145 146
f 147 148 149
f 147 149 150
f 139 138 151
f 139 151 152
f 152 151 153
f 152 153 154
f 154 153 155
f 154 155 156
f 157 158 134
f 157 134 133
f 149 148 159
f 149 159 160
f 160 159 161
f 160 161 162
f 162 161 163
f 162 163 164
f 136 135 148
f 136 148 147
f 134 158 165
f 134 165 141
f 141 165 166
f 141 166 143
f 143 166 167
f 143 167 145
f 140 139 158
f 140 158 157
f 148 135 142
f 148 142 159
f 159 142 144
f 159 144 161
f 161 144 146
f 161 146 163
f 168 169 138
f 168 138 137
f 158 139 152
f 158 152 165
f 165 152 154
f 165 154 166
f 166 154 156
f 166 156 167
f 150 149 169
f 150 169 168
f 138 169 170
f 138 170 151
f 151 170 171
f 151 171 153
f 153 171 172
f 153 172 155
f 169 149 160
f 169 160 170
f 170 160 162
f 170 162 171
f 171 162 164
f 171 164 172
f 146 173 164
f 146 164 163
f 173 155 172
f 173 172 164
f 145 167 173
f 145 173 146
f 167 156 155
f 167 155 173
f 194 195 196
f 230 231 232
f 174 175 176
f 174 176 177
f 178 179 180
f 178 180 181
f 179 178 175
f 179 175 174
f 177 182 179
f 177 179 174
f 183 176 175
f 183 175 178
f 180 184 185
f 180 185 186
f 179 182 184
f 179 184 180
f 183 178 181
f 183 181 187
f 185 188 189
f 185 189 186
f 187 181 189
f 187 189 188
f 181 180 186
f 181 186 189
f 190 191 192
f 190 192 193
f 197 198 199
f 197 199 200
f 200 199 195
f 200 195 194
f 201 202 203
f 201 203 204
f 204 203 191
f 204 191 190
f 193 192 205
f 193 205 206
f 206 205 207
f 206 207 208
f 209 210 211
f 209 211 212
f 197 213 214
f 197 214 198
f 201 215 216
f 201 216 202
f 217 218 214
f 217 214 213
f 212 216 215
f 212 215 209
f 209 215 218
f 209 218 217
f 198 214 218
f 198 218 219
f 219 218 215
f 219 215 201
f 213 197 220
f 213 220 217
f 217 220 210
f 217 210 209
f 194 221 222
f 194 222 200
f 221 206 208
f 221 208 222
f 196 223 221
f 196 221 194
f 223 193 206
f 223 206 221
f 199 224 225
f 199 225 195
f 224 204 190
f 224 190 225
f 198 219 224
f 198 224 199
f 219 201 204
f 219 204 224
f 195 225 223
f 195 223 196
f 225 190 193
f 225 193 223
f 200 222 220
f 200 220 197
f 226 227 228
f 226 228 229
f 233 234 235
f 233 235 236
f 234 230 232
f 234 232 235
f 237 238 239
f 237 239 240
f 238 226 229
f 238 229 239
f 227 241 242
f 227 242 228
f 241 243 244
f 241 244 242
f 245 246 247
f 245 247 248
f 233 236 249
f 233 249 250
f 237 240 251
f 237 251 252
f 253 250 249
f 253 249 254
f 246 245 252
f 246 252 251
f 245 253 254
f 245 254 252
f 236 255 254
f 236 254 249
f 255 237 252
f 255 252 254
f 250 253 256
f 250 256 233
f 253 245 248
f 253 248 256
f 230 234 257
f 230 257 258
f 258 257 243
f 258 243 241
f 231 230 258
f 231 258 259
f 259 258 241
f 259 241 227
f 235 232 260
f 235 260 261
f 261 260 226
f 261 226 238
f 236 235 261
f 236 261 255
f 255 261 238
f 255 238 237
f 232 231 259
f 232 259 260
f 260 259 227
f 260 227 226
f 234 233 256
f 234 256 257
f 205 192 228
f 205 228 242
f 207 205 242
f 207 242 244
f 203 202 240
f 203 240 239
f 191 203 239
f 191 239 229
f 192 191 229
f 192 229 228
f 212 211 247
f 212 247 246
f 202 216 251
f 202 251 240
f 216 212 246
f 216 246 251
f 262 263 264
f 262 264 265
f 266 267 268
f 266 268 269
f 262 265 266
f 262 266 269
f 264 263 268
f 264 268 267
f 270 271 272
f 270 272 273
f 274 275 276
f 274 276 277
f 270 273 274
f 270 274 277
f 272 271 276
f 272 276 275
f 220 222 257
f 220 257 256
f 220 256 248
f 220 248 210
f 210 248 247
f 210 247 211
f 208 207 244
f 208 244 243
f 222 208 243
f 222 243 257
f 270 277 276
f 270 276 271
f 278 279 280
f 278 280 281
f 282 283 281
f 282 281 280
f 284 282 280
f 284 280 279
f 285 278 281
f 285 281 283
f 284 279 278
f 284 278 285
f 286 287 288
f 286 288 289
f 290 291 289
f 290 289 288
f 292 290 288
f 292 288 287
f 292 287 286
f 292 286 293
f 294 295 296
f 294 296 297
f 297 296 298
f 297 298 299
f 300 301 302
f 300 302 303
f 301 300 295
f 301 295 294
f 297 299 301
f 297 301 294
f 298 296 295
f 298 295 300
f 302 304 305
f 302 305 306
f 301 299 304
f 301 304 302
f 298 300 303
f 298 303 307
f 299 298 307
f 299 307 304
f 305 308 309
f 305 309 306
f 307 303 309
f 307 309 308
f 304 307 308
f 304 308 305
f 303 302 306
f 303 306 309
f 322 329 331
f 328 323 330
f 333 332 340
f 335 334 338
f 346 344 350
f 348 346 350
f 344 343 350
f 343 348 350
f 355 353 359
f 357 355 359
f 353 352 359
f 352 357 359
f 364 362 368
f 366 364 368
f 362 361 368
f 361 366 368
f 375 383 381
f 382 384 378
f 385 393 386
f 388 391 387
f 400 403 397
f 402 403 400
f 397 403 398
f 398 403 402
f 409 412 406
f 411 412 409
f 406 412 407
f 407 412 411
f 418 421 415
f 420 421 418
f 415 421 416
f 416 421 420
f 310 311 312
f 310 312 313
f 314 310 313
f 314 313 315
f 316 317 314
f 316 314 315
f 313 318 316
f 313 316 315
f 316 318 319
f 316 319 317
f 318 320 321
f 318 321 319
f 311 321 320
f 311 320 312
f 312 320 318
f 312 318 313
f 322 323 324
f 322 324 325
f 326 327 328
f 326 328 329
f 325 326 329
f 325 329 322
f 327 324 323
f 327 323 328
f 329 328 330
f 329 330 331
f 322 331 332
f 322 332 333
f 323 322 333
f 323 333 334
f 330 323 334
f 330 334 335
f 331 330 335
f 331 335 332
f 334 333 336
f 334 336 337
f 338 334 337
f 338 337 339
f 340 338 339
f 340 339 341
f 333 340 341
f 333 341 336
f 336 341 339
f 336 339 337
f 332 335 338
f 332 338 340
f 342 343 344
f 342 344 345
f 345 344 346
f 345 346 347
f 347 346 348
f 347 348 349
f 349 348 343
f 349 343 342
f 351 352 353
f 351 353 354
f 354 353 355
f 354 355 356
f 356 355 357
f 356 357 358
f 358 357 352
f 358 352 351
f 360 361 362
f 360 362 363
f 363 362 364
f 363 364 365
f 365 364 366
f 365 366 367
f 367 366 361
f 367 361 360
f 310 369 370
f 310 370 311
f 314 371 369
f 314 369 310
f 372 371 314
f 372 314 317
f 369 371 372
f 369 372 373
f 372 317 319
f 372 319 373
f 373 319 321
f 373 321 374
f 311 370 374
f 311 374 321
f 370 369 373
f 370 373 374
f 375 376 377
f 375 377 378
f 376 379 380
f 376 380 377
f 379 381 382
f 379 382 380
f 376 375 381
f 376 381 379
f 380 382 378
f 380 378 377
f 381 383 384
f 381 384 382
f 375 385 386
f 375 386 383
f 378 387 385
f 378 385 375
f 384 388 387
f 384 387 378
f 383 386 388
f 383 388 384
f 387 389 390
f 387 390 385
f 391 392 389
f 391 389 387
f 393 394 392
f 393 392 391
f 385 390 394
f 385 394 393
f 390 389 392
f 390 392 394
f 386 393 391
f 386 391 388
f 395 396 397
f 395 397 398
f 396 399 400
f 396 400 397
f 399 401 402
f 399 402 400
f 401 395 398
f 401 398 402
f 404 405 406
f 404 406 407
f 405 408 409
f 405 409 406
f 408 410 411
f 408 411 409
f 410 404 407
f 410 407 411
f 413 414 415
f 413 415 416
f 414 417 418
f 414 418 415
f 417 419 420
f 417 420 418
f 419 413 416
f 419 416 420
f 422 423 424
f 422 424 425
f 426 427 428
f 426 428 429
f 430 423 431
f 430 431 432
f 423 430 433
f 423 433 424
f 425 434 428
f 425 428 427
f 425 424 433
f 425 433 434
f 427 426 422
f 427 422 425
f 429 432 431
f 429 431 426
f 431 423 422
f 431 422 426
f 435 436 437
f 435 437 438
f 439 440 437
f 439 437 436
f 441 442 438
f 441 438 437
f 440 439 443
f 440 443 444
f 445 446 447
f 445 447 435
f 444 441 437
f 444 437 440
f 446 448 444
f 446 444 443
f 448 446 445
f 448 445 442
f 438 442 445
f 438 445 435
f 436 435 447
f 436 447 439
f 441 444 448
f 441 448 442
f 449 450 451
f 449 451 452
f 453 454 455
f 453 455 456
f 451 457 455
f 451 455 454
f 458 459 456
f 458 456 455
f 457 451 450
f 457 450 460
f 461 449 452
f 461 452 453
f 460 458 455
f 460 455 457
f 456 459 461
f 456 461 453
f 454 453 452
f 454 452 451
f 458 460 462
f 458 462 459
f 463 464 465
f 463 465 466
f 467 468 469
f 467 469 470
f 464 471 472
f 464 472 465
f 466 473 469
f 466 469 468
f 466 465 472
f 466 472 473
f 468 467 463
f 468 463 466
f 470 474 475
f 470 475 467
f 473 472 476
f 473 476 469
f 474 470 469
f 474 469 476
f 471 477 475
f 471 475 474
f 476 472 471
f 476 471 474
f 478 479 480
f 478 480 481
f 482 483 484
f 482 484 485
f 485 484 479
f 485 479 478
f 486 487 488
f 486 488 489
f 487 485 478
f 487 478 488
f 490 491 487
f 490 487 486
f 491 482 485
f 491 485 487
f 489 488 492
f 489 492 493
f 488 478 481
f 488 481 492
f 494 495 496
f 494 496 497
f 497 496 498
f 497 498 499
f 499 498 500
f 499 500 501
f 501 500 502
f 501 502 503
f 498 504 502
f 498 502 500
f 503 502 504
f 503 504 505
f 505 504 495
f 505 495 494
f 506 507 508
f 506 508 509
f 509 508 510
f 509 510 511
f 511 510 512
f 511 512 513
f 513 512 514
f 513 514 515
f 510 516 514
f 510 514 512
f 515 514 516
f 515 516 517
f 517 516 507
f 517 507 506
f 518 519 520
f 518 520 521
f 521 520 522
f 521 522 523
f 523 522 524
f 523 524 525
f 525 524 526
f 525 526 527
f 522 528 526
f 522 526 524
f 527 526 528
f 527 528 529
f 529 528 519
f 529 519 518
f 530 531 532
f 530 532 533
f 533 532 534
f 533 534 535
f 535 534 536
f 535 536 537
f 537 536 538
f 537 538 539
f 534 540 538
f 534 538 536
f 539 538 540
f 539 540 541
f 541 540 531
f 541 531 530
f 542 543 544
f 542 544 545
f 545 544 546
f 545 546 547
f 547 546 548
f 547 548 549
f 549 548 550
f 549 550 551
f 546 552 550
f 546 550 548
f 551 550 552
f 551 552 553
f 553 552 543
f 553 543 542
f 554 555 556
f 554 556 557
f 557 556 558
f 557 558 559
f 559 558 560
f 559 560 561
f 561 560 562
f 561 562 563
f 558 564 562
f 558 562 560
f 563 562 564
f 563 564 565
f 565 564 555
f 565 555 554
f 566 567 568
f 566 568 569
f 569 568 570
f 569 570 571
f 571 570 572
f 571 572 573
f 573 572 574
f 573 574 575
f 575 574 576
f 575 576 577
f 577 576 567
f 577 567 566
f 556 555 564
f 556 564 558
f 544 543 552
f 544 552 546
f 532 531 540
f 532 540 534
f 520 519 528
f 520 528 522
f 508 507 516
f 508 516 510
f 496 495 504
f 496 504 498
f 578 579 580
f 578 580 581
f 582 583 579
f 582 579 578
f 584 578 581
f 584 581 585
f 586 582 578
f 586 578 584
f 584 587 588
f 584 588 586
f 579 589 590
f 579 590 580
f 581 591 592
f 581 592 585
f 580 590 591
f 580 591 581
f 586 588 593
f 586 593 582
f 585 592 587
f 585 587 584
f 583 594 589
f 583 589 579
f 582 593 594
f 582 594 583
f 592 591 590
f 592 590 595
f 595 590 589
f 595 589 594
f 587 592 595
f 587 595 588
f 588 595 594
f 588 594 593
f 596 597 598
f 596 598 599
f 599 598 600
f 599 600 601
f 601 600 602
f 601 602 603
f 603 602 604
f 603 604 605
f 605 604 606
f 605 606 607
f 607 606 608
f 607 608 609
f 610 611 612
f 610 612 613
f 609 608 614
f 609 614 615
f 615 614 597
f 615 597 596
f 603 605 616
f 603 616 617
f 618 611 619
f 618 619 620
f 621 622 623
f 621 623 624
f 625 626 627
f 625 627 628
f 624 623 629
f 624 629 630
f 628 627 612
f 628 612 631
f 620 619 622
f 620 622 621
f 630 629 626
f 630 626 625
f 598 632 633
f 598 633 600
f 634 635 636
f 634 636 637
f 637 636 638
f 637 638 639
f 639 638 640
f 639 640 641
f 641 640 624
f 641 624 630
f 608 642 643
f 608 643 614
f 633 632 644
f 633 644 645
f 645 644 646
f 645 646 647
f 647 646 648
f 647 648 649
f 649 648 618
f 649 618 620
f 602 650 635
f 602 635 604
f 643 642 651
f 643 651 652
f 652 651 653
f 652 653 654
f 654 653 655
f 654 655 656
f 656 655 625
f 656 625 628
f 606 634 642
f 606 642 608
f 635 650 657
f 635 657 636
f 636 657 658
f 636 658 638
f 638 658 659
f 638 659 640
f 640 659 621
f 640 621 624
f 600 633 650
f 600 650 602
f 642 634 637
f 642 637 651
f 651 637 639
f 651 639 653
f 653 639 641
f 653 641 655
f 655 641 630
f 655 630 625
f 597 660 632
f 597 632 598
f 650 633 645
f 650 645 657
f 657 645 647
f 657 647 658
f 658 647 649
f 658 649 659
f 659 649 620
f 659 620 621
f 614 643 660
f 614 660 597
f 632 660 661
f 632 661 644
f 644 661 662
f 644 662 646
f 646 662 663
f 646 663 648
f 648 663 631
f 648 631 618
f 660 643 652
f 660 652 661
f 661 652 654
f 661 654 662
f 662 654 656
f 662 656 663
f 663 656 628
f 663 628 631
f 609 615 664
f 609 664 665
f 599 601 666
f 599 666 667
f 605 607 668
f 605 668 616
f 615 596 669
f 615 669 664
f 596 599 667
f 596 667 669
f 601 603 617
f 601 617 666
f 607 609 665
f 607 665 668
f 610 670 619
f 610 619 611
f 671 672 623
f 671 623 622
f 671 622 619
f 671 619 670
f 672 673 629
f 672 629 623
f 674 675 676
f 674 676 613
f 677 674 613
f 677 613 610
f 678 679 670
f 678 670 671
f 680 681 673
f 680 673 682
f 683 678 671
f 683 671 672
f 675 680 682
f 675 682 676
f 679 677 610
f 679 610 670
f 681 683 672
f 681 672 673
f 146 145 683
f 146 683 681
f 156 155 677
f 156 677 679
f 164 163 680
f 164 680 675
f 145 167 678
f 145 678 683
f 163 146 681
f 163 681 680
f 167 156 679
f 167 679 678
f 155 172 674
f 155 674 677
f 172 164 675
f 172 675 674
f 666 617 684
f 666 684 667
f 617 616 668
f 617 668 684
f 667 684 664
f 667 664 669
f 684 668 665
f 684 665 664
f 626 682 676
f 626 676 627
f 629 673 682
f 629 682 626
f 627 676 613
f 627 613 612
f 631 612 611
f 631 611 618
f 604 635 634
f 604 634 606
f 685 686 687
f 685 687 688
f 685 688 689
f 685 689 690
f 691 692 693
f 691 693 694
f 691 690 689
f 691 689 692
f 694 693 695
f 694 695 696
f 697 698 699
f 697 699 700
f 695 697 700
f 695 700 696
f 698 687 686
f 698 686 699
f 701 702 703
f 701 703 704
f 701 705 706
f 701 706 702
f 707 708 709
f 707 709 710
f 707 710 706
f 707 706 705
f 708 711 712
f 708 712 709
f 713 714 715
f 713 715 716
f 712 711 714
f 712 714 713
f 716 715 704
f 716 704 703
f 688 687 703
f 688 703 702
f 699 686 704
f 699 704 715
f 686 685 701
f 686 701 704
f 689 688 702
f 689 702 706
f 685 690 705
f 685 705 701
f 692 689 706
f 692 706 710
f 690 691 707
f 690 707 705
f 693 692 710
f 693 710 709
f 691 694 708
f 691 708 707
f 695 693 709
f 695 709 712
f 694 696 711
f 694 711 708
f 697 695 712
f 697 712 713
f 696 700 714
f 696 714 711
f 698 697 713
f 698 713 716
f 700 699 715
f 700 715 714
f 687 698 716
f 687 716 703
f 28 56 55
f 55 36 28
f 55 56 108
f 108 111 55
f 177 176 175
f 175 174 177
f 181 180 179
f 179 178 181
f 174 175 178
f 178 179 174
f 174 179 182
f 182 177 174
f 178 175 176
f 176 183 178
f 186 185 184
f 184 180 186
f 180 184 182
f 182 179 180
f 187 181 178
f 178 183 187
f 186 189 188
f 188 185 186
f 188 189 181
f 181 187 188
f 189 186 180
f 180 181 189
f 193 192 191
f 191 190 193
f 194 196 195
f 200 199 198
f 198 197 200
f 194 195 199
f 199 200 194
f 204 203 202
f 202 201 204
f 190 191 203
f 203 204 190
f 206 205 192
f 192 193 206
f 208 207 205
f 205 206 208
f 212 211 210
f 210 209 212
f 198 214 213
f 213 197 198
f 202 216 215
f 215 201 202
f 213 214 218
f 218 217 213
f 209 215 216
f 216 212 209
f 217 218 215
f 215 209 217
f 219 218 214
f 214 198 219
f 201 215 218
f 218 219 201
f 217 220 197
f 197 213 217
f 209 210 220
f 220 217 209
f 200 222 221
f 221 194 200
f 222 208 206
f 206 221 222
f 194 221 223
f 223 196 194
f 221 206 193
f 193 223 221
f 195 225 224
f 224 199 195
f 225 190 204
f 204 224 225
f 199 224 219
f 219 198 199
f 224 204 201
f 201 219 224
f 196 223 225
f 225 195 196
f 223 193 190
f 190 225 223
f 197 220 222
f 222 200 197
f 229 228 227
f 227 226 229
f 230 232 231
f 236 235 234
f 234 233 236
f 235 232 230
f 230 234 235
f 240 239 238
f 238 237 240
f 239 229 226
f 226 238 239
f 228 242 241
f 241 227 228
f 242 244 243
f 243 241 242
f 248 247 246
f 246 245 248
f 250 249 236
f 236 233 250
f 252 251 240
f 240 237 252
f 254 249 250
f 250 253 254
f 251 252 245
f 245 246 251
f 252 254 253
f 253 245 252
f 249 254 255
f 255 236 249
f 254 252 237
f 237 255 254
f 233 256 253
f 253 250 233
f 256 248 245
f 245 253 256
f 258 257 234
f 234 230 258
f 241 243 257
f 257 258 241
f 259 258 230
f 230 231 259
f 227 241 258
f 258 259 227
f 261 260 232
f 232 235 261
f 238 226 260
f 260 261 238
f 255 261 235
f 235 236 255
f 237 238 261
f 261 255 237
f 260 259 231
f 231 232 260
f 226 227 259
f 259 260 226
f 257 256 233
f 233 234 257
f 242 228 192
f 192 205 242
f 244 242 205
f 205 207 244
f 239 240 202
f 202 203 239
f 229 239 203
f 203 191 229
f 228 229 191
f 191 192 228
f 246 247 211
f 211 212 246
f 240 251 216
f 216 202 240
f 251 246 212
f 212 216 251
f 265 264 263
f 263 262 265
f 269 268 267
f 267 266 269
f 269 266 265
f 265 262 269
f 267 268 263
f 263 264 267
f 273 272 271
f 271 270 273
f 277 276 275
f 275 274 277
f 277 274 273
f 273 270 277
f 275 276 271
f 271 272 275
f 256 257 222
f 222 220 256
f 210 248 256
f 256 220 210
f 211 247 248
f 248 210 211
f 243 244 207
f 207 208 243
f 257 243 208
f 208 222 257
f 271 276 277
f 277 270 271
f 281 280 279
f 279 278 281
f 280 281 283
f 283 282 280
f 279 280 282
f 282 284 279
f 283 281 278
f 278 285 283
f 285 278 279
f 279 284 285
f 289 288 287
f 287 286 289
f 288 289 291
f 291 290 288
f 287 288 290
f 290 292 287
f 293 286 287
f 287 292 293
f 297 296 295
f 295 294 297
f 299 298 296
f 296 297 299
f 303 302 301
f 301 300 303
f 294 295 300
f 300 301 294
f 294 301 299
f 299 297 294
f 300 295 296
f 296 298 300
f 306 305 304
f 304 302 306
f 302 304 299
f 299 301 302
f 307 303 300
f 300 298 307
f 304 307 298
f 298 299 304
f 306 309 308
f 308 305 306
f 308 309 303
f 303 307 308
f 305 308 307
f 307 304 305
f 309 306 302
f 302 303 309
f 315 316 318
f 318 313 315
f 325 324 323
f 323 322 325
f 328 323 324
f 324 327 328
f 334 333 322
f 322 323 334
f 332 335 330
f 330 331 332
f 337 336 333
f 333 334 337
f 363 362 361
f 361 360 363
f 362 368 361
f 394 392 389
f 389 390 394
f 398 397 396
f 396 395 398
f 397 398 403
f 407 406 405
f 405 404 407
f 406 407 412
f 416 415 414
f 414 413 416
f 415 416 421
f 427 428 434
f 434 425 427
f 435 445 442
f 442 438 435
f 455 456 459
f 459 458 455
f 457 455 458
f 458 460 457
f 453 461 459
f 459 456 453
f 459 462 460
f 460 458 459
f 466 465 464
f 464 463 466
f 474 475 477
f 477 471 474
f 497 496 495
f 495 494 497
f 499 498 496
f 496 497 499
f 509 508 507
f 507 506 509
f 511 510 508
f 508 509 511
f 521 520 519
f 519 518 521
f 523 522 520
f 520 521 523
f 533 532 531
f 531 530 533
f 535 534 532
f 532 533 535
f 545 544 543
f 543 542 545
f 547 546 544
f 544 545 547
f 557 556 555
f 555 554 557
f 559 558 556
f 556 557 559
f 569 568 567
f 567 566 569
f 571 570 568
f 568 569 571